# File exported by Houdini 20.5.445 (www.sidefx.com)
# 492 points
# 2940 vertices
# 980 primitives
# Bounds: [-105.32338, -193.409729, -1041.55969] to [276.09729, 309.786835, -713.241333]
g 
v 85.3869934 58.1885681 -1041.55969
v 85.3869934 97.9878464 -1039.51074
v 114.044128 70.4872894 -1039.51074
v 85.3869934 136.793823 -1033.41479
v 115.645142 113.197105 -1035.50488
v 141.986084 82.4789581 -1033.41479
v 85.3869934 173.63765 -1023.42413
v 116.58551 152.82663 -1027.23877
v 143.889496 126.624611 -1027.23877
v 168.515198 93.8643494 -1023.42413
v 85.3869934 207.59935 -1009.78821
v 116.895477 189.219498 -1015.13568
v 144.782471 166.167969 -1016.79108
v 169.998138 138.26001 -1015.13568
v 192.969055 104.359116 -1009.78821
v 85.3869934 237.831238 -992.847412
v 116.58551 222.158035 -999.40155
v 144.782471 201.807617 -1002.48132
v 170.444519 177.181244 -1002.48132
v 193.811096 148.049225 -999.40155
v 214.737244 113.701241 -992.847412
v 85.3869934 263.578369 -973.024536
v 115.645142 251.261566 -980.070801
v 143.889496 233.875977 -984.17627
v 169.998138 212.009415 -985.524597
v 193.811096 185.969254 -984.17627
v 215.057434 155.861435 -980.070801
v 233.276367 121.657623 -973.024536
v 85.3869934 284.198212 -950.814636
v 114.044128 275.877136 -957.044678
v 141.986145 262.121643 -961.286621
v 168.515198 243.275146 -963.434265
v 192.969055 219.808182 -963.434265
v 214.737244 192.30658 -961.286621
v 233.276306 161.45694 -957.044678
v 248.123474 128.029465 -950.814758
v 103.098083 25.9902496 -1039.51074
v 134.345703 37.1771622 -1035.50488
v 120.367157 -5.40438843 -1033.41479
v 163.171295 48.2421341 -1027.23877
v 152.742065 5.84623337 -1027.23877
v 136.763 -35.2116852 -1023.42413
v 189.471497 59.0988007 -1015.13568
v 181.490906 16.944149 -1016.79108
v 169.18811 -23.3554802 -1015.13568
v 151.876373 -62.6872787 -1009.78821
v 213.092834 69.666748 -999.40155
v 207.152954 27.9573898 -1002.48138
v 197.350952 -11.8889008 -1002.48138
v 183.595276 -50.2439651 -999.40155
v 165.329834 -87.1453781 -992.847412
v 233.757996 79.8415146 -980.070801
v 229.96759 38.9888077 -984.17627
v 222.290771 -0.565670013 -985.524597
v 210.899353 -38.5260086 -984.17627
v 195.785889 -74.5192795 -980.070801
v 176.787689 -107.975311 -973.024536
v 250.987549 89.459259 -957.044678
v 249.717468 50.1082153 -961.286621
v 244.345215 10.958827 -963.434387
v 235.004578 -27.0115662 -963.434387
v 221.929016 -62.8549881 -961.286621
v 205.444824 -95.6765976 -957.044678
v 185.963623 -124.657104 -950.814758
v 67.6758423 25.9902496 -1039.51074
v 85.3869934 -9.80569458 -1035.50488
v 50.4067688 -5.40438843 -1033.41479
v 102.261749 -42.5967636 -1027.23877
v 68.5121765 -42.5967636 -1027.23877
v 34.0108948 -35.2116852 -1023.42413
v 118.206207 -72.2798843 -1015.13568
v 85.3869934 -75.2812881 -1016.79108
v 52.5677185 -72.2798843 -1015.13568
v 18.8975525 -62.6872787 -1009.78821
v 133.114929 -98.6870422 -999.40155
v 101.247009 -104.11441 -1002.48138
v 69.526947 -104.11441 -1002.48138
v 37.6589661 -98.6870422 -999.40155
v 5.44406128 -87.1453781 -992.847412
v 146.827087 -121.502197 -980.070801
v 116.240204 -129.364883 -984.17627
v 85.3869934 -131.944351 -985.524597
v 54.5337524 -129.364883 -984.17627
v 23.9468079 -121.502197 -980.070801
v -6.01370239 -107.975311 -973.024536
v 159.076477 -140.17363 -957.044678
v 130.34967 -150.738403 -961.286621
v 100.500305 -156.087616 -963.434387
v 70.2736206 -156.087616 -963.434387
v 40.4242554 -150.738403 -961.286621
v 11.6974182 -140.17363 -957.044678
v -15.1897583 -124.657104 -950.814758
v 56.7297668 70.4872894 -1039.51074
v 36.4281921 37.1771622 -1035.50488
v 28.7878418 82.4789581 -1033.41479
v 18.0318298 5.84623337 -1027.23877
v 7.60263062 48.2421341 -1027.23877
v 2.25875854 93.8643494 -1023.42413
v 1.58584595 -23.3554802 -1015.13568
v -10.7170105 16.944149 -1016.79108
v -18.6975403 59.0988007 -1015.13568
v -22.1951599 104.359116 -1009.78821
v -12.8213806 -50.2439651 -999.40155
v -26.5770264 -11.8889008 -1002.48138
v -36.3790283 27.9573898 -1002.48138
v -42.3189087 69.666748 -999.40155
v -43.9633484 113.701241 -992.847412
v -25.0119934 -74.5192795 -980.070801
v -40.1253662 -38.5260086 -984.17627
v -51.5168457 -0.565670013 -985.524597
v -59.1937256 38.9888077 -984.17627
v -62.9841003 79.8415146 -980.070801
v -62.5024414 121.657623 -973.024536
v -34.670929 -95.6765976 -957.044678
v -51.1551208 -62.8549881 -961.286621
v -64.2307129 -27.0115662 -963.434387
v -73.5712585 10.958827 -963.434387
v -78.943573 50.1082153 -961.286621
v -80.2135773 89.459259 -957.044678
v -77.3495483 128.029465 -950.814758
v 55.1287842 113.197105 -1035.50488
v 26.8843994 126.624611 -1027.23877
v 54.1884155 152.82663 -1027.23877
v 0.775787354 138.26001 -1015.13568
v 25.9914856 166.167969 -1016.79108
v 53.8784485 189.219498 -1015.13568
v -23.0371399 148.049225 -999.40155
v 0.329406738 177.181244 -1002.48132
v 25.9914856 201.807617 -1002.48132
v 54.1884155 222.158035 -999.401428
v -44.2834473 155.861435 -980.070801
v -23.0371399 185.969254 -984.17627
v 0.775787354 212.009415 -985.524597
v 26.8843689 233.875977 -984.17627
v 55.1287842 251.261566 -980.070801
v -62.5023804 161.45694 -957.044678
v -43.9633484 192.30658 -961.286621
v -22.1951599 219.808182 -963.434265
v 2.25872803 243.275146 -963.434265
v 28.7878113 262.121643 -961.286621
v 56.7297668 275.877136 -957.044678
v 67.6758423 295.776703 -931.188904
v 36.4281616 285.258667 -935.897766
v 50.4067688 301.424225 -910.220215
v 7.60263062 268.929688 -938.630554
v 18.0318604 287.889679 -913.995728
v 34.0108948 300.999542 -888.432251
v -18.6975403 247.411362 -939.526367
v -10.7169495 268.54248 -915.771912
v 1.58587646 284.28595 -891.614685
v 18.8975525 294.513428 -866.368835
v -42.3188782 221.022888 -938.630554
v -36.3789978 243.916061 -915.771912
v -26.5769653 261.73584 -892.618469
v -12.8213501 274.64856 -868.954224
v 5.4440918 282.127747 -844.580872
v -62.9840698 189.858597 -935.897888
v -59.1936951 213.780838 -913.995728
v -51.5167542 233.326416 -891.614685
v -40.1253662 248.446457 -868.954224
v -25.0119324 258.890686 -846.203552
v -6.01370239 264.151733 -823.612122
v -80.2135162 153.855942 -931.188904
v -78.943512 177.294296 -910.220215
v -73.571167 197.759354 -888.432251
v -64.2306213 214.740173 -866.368835
v -51.1550903 227.812912 -844.580872
v -34.6708984 236.651108 -823.612122
v -15.1897583 241.034225 -803.986328
v -91.1596069 109.358894 -931.188904
v -93.2422791 66.8557129 -935.897888
v -100.562485 89.4108505 -910.220215
v -90.3922882 25.5994663 -938.630676
v -100.821457 44.5594559 -913.995728
v -105.32338 68.6832962 -888.432251
v -83.0253296 -14.0880852 -939.526367
v -95.7745209 2.46696472 -915.771912
v -103.308731 22.7865772 -891.614685
v -105.32338 47.6937714 -866.368835
v -71.3239441 -51.9154205 -938.630676
v -85.9724731 -37.3794022 -915.771912
v -95.7745209 -19.5596008 -892.618469
v -100.821457 1.71029472 -868.954224
v -100.562485 26.96628 -844.580811
v -55.2701721 -87.5050812 -935.897888
v -71.3239136 -75.3512573 -913.995728
v -83.0252838 -59.6677094 -891.614685
v -90.3922424 -40.6856079 -868.954224
v -93.2422485 -18.4729233 -846.203552
v -91.1596069 7.01819992 -823.612122
v -34.6708984 -120.273956 -931.188904
v -51.1550903 -111.435776 -910.220215
v -64.2306213 -98.36306 -888.432251
v -73.571167 -81.3822021 -866.368835
v -78.943512 -60.9171448 -844.580872
v -80.2135162 -37.4788361 -823.612122
v -77.3495483 -11.6523743 -803.986389
v -6.01370239 -147.774582 -931.188904
v 23.9468384 -163.525009 -935.897888
v 5.4440918 -165.750748 -910.220215
v 54.5337524 -172.693756 -938.630554
v 37.6589661 -179.935883 -913.995728
v 18.8975525 -178.136353 -888.432251
v 85.3869934 -175.703583 -939.526367
v 69.526947 -186.603165 -915.771912
v 52.5677185 -189.788437 -891.614685
v 34.0108948 -184.622421 -866.368835
v 116.240204 -172.693756 -938.630554
v 101.247009 -186.603165 -915.771912
v 85.3869934 -193.409729 -892.618469
v 68.5121765 -193.176895 -868.954224
v 50.4067688 -185.047058 -844.580872
v 146.827087 -163.525009 -935.897888
v 133.114929 -179.935883 -913.995728
v 118.206207 -189.788437 -891.614685
v 102.261749 -193.176895 -868.954224
v 85.3869934 -189.892899 -846.203552
v 67.6758423 -179.399567 -823.612183
v 176.787689 -147.774582 -931.188904
v 165.329834 -165.750748 -910.220215
v 151.876373 -178.136353 -888.432251
v 136.763 -184.622421 -866.368835
v 120.367157 -185.047058 -844.580872
v 103.098083 -179.399567 -823.612183
v 85.3869934 -167.821106 -803.986389
v 205.444824 -120.273956 -931.188904
v 226.044067 -87.5050812 -935.897888
v 221.928955 -111.435776 -910.220215
v 242.0979 -51.9154205 -938.630676
v 242.0979 -75.3512573 -913.995728
v 235.004578 -98.36306 -888.432251
v 253.799194 -14.0880852 -939.526367
v 256.746399 -37.3794022 -915.771912
v 253.799194 -59.6677094 -891.614685
v 244.345093 -81.3822021 -866.368835
v 261.16626 25.5994663 -938.630676
v 266.548401 2.46696472 -915.771912
v 266.548401 -19.5596008 -892.618469
v 261.166138 -40.6856079 -868.954224
v 249.717468 -60.9171448 -844.580872
v 264.016174 66.8557129 -935.897888
v 271.595398 44.5594559 -913.995728
v 274.082642 22.7865772 -891.614685
v 271.595398 1.71029472 -868.954224
v 264.016174 -18.4729233 -846.203552
v 250.987427 -37.4788361 -823.612122
v 261.933533 109.358894 -931.188904
v 271.336426 89.4108505 -910.220215
v 276.09729 68.6832962 -888.432251
v 276.09729 47.6937714 -866.368835
v 271.336426 26.96628 -844.580811
v 261.933533 7.01819992 -823.612122
v 248.123474 -11.6523743 -803.986389
v 250.987427 153.855942 -931.188904
v 233.757935 189.858597 -935.897888
v 249.717468 177.294296 -910.220215
v 213.092834 221.022888 -938.630554
v 229.96759 213.780838 -913.995728
v 244.345093 197.759354 -888.432251
v 189.471436 247.411362 -939.526367
v 207.152954 243.916061 -915.771912
v 222.29071 233.326416 -891.614685
v 235.004578 214.740173 -866.368835
v 163.171295 268.929688 -938.630554
v 181.490845 268.54248 -915.771912
v 197.350891 261.73584 -892.618469
v 210.899292 248.446457 -868.954224
v 221.928955 227.812912 -844.580872
v 134.345764 285.258667 -935.897766
v 152.742065 287.889679 -913.995728
v 169.188049 284.28595 -891.614685
v 183.595276 274.64856 -868.954224
v 195.785889 258.890686 -846.203552
v 205.444824 236.651108 -823.612122
v 103.098083 295.776703 -931.188904
v 120.367157 301.424225 -910.220215
v 136.763 300.999542 -888.432251
v 151.876373 294.513428 -866.368835
v 165.329834 282.127747 -844.580872
v 176.787689 264.151733 -823.612122
v 185.963623 241.034225 -803.986328
v 85.3869934 306.269989 -908.597534
v 68.5121765 309.554016 -885.846924
v 102.261749 309.554016 -885.846924
v 52.5677185 306.165527 -863.18634
v 85.3869934 309.786835 -862.182556
v 118.206207 306.165527 -863.18634
v 37.6589661 296.312988 -840.805359
v 69.526947 302.980316 -839.029114
v 101.247009 302.980316 -839.029114
v 133.114929 296.312988 -840.805359
v 23.9468384 279.902161 -818.903198
v 54.5337524 289.070923 -816.170471
v 85.3869934 292.080688 -815.274658
v 116.240204 289.070923 -816.170471
v 146.827087 279.902161 -818.903198
v 11.6974182 256.550751 -797.756287
v 40.4242554 267.11554 -793.514404
v 70.2736206 272.464722 -791.366699
v 100.500305 272.464722 -791.366699
v 130.34967 267.11554 -793.514404
v 159.076477 256.550751 -797.756287
v -93.2422485 134.850067 -908.597534
v -100.821457 114.66684 -885.846924
v -90.3922424 157.062714 -885.846924
v -103.308731 93.5905609 -863.18634
v -95.7745209 135.936737 -862.182556
v -83.0252838 176.044861 -863.18634
v -100.821457 71.817688 -840.805359
v -95.7745209 113.910156 -839.029114
v -85.9724731 153.756516 -839.029114
v -71.3239136 191.728363 -840.805359
v -93.2422791 49.5214233 -818.903198
v -90.3922882 90.7776718 -816.170471
v -83.0253296 130.465195 -815.274658
v -71.3239441 168.292526 -816.170471
v -55.2701721 203.882187 -818.903198
v -80.2135773 26.9178791 -797.756287
v -78.943573 66.2688446 -793.514404
v -73.5712585 105.418266 -791.366699
v -64.2307129 143.388702 -791.366699
v -51.1551208 179.232132 -793.514404
v -34.670929 212.053741 -797.756287
v -25.0119324 -142.513611 -908.597534
v -12.8213501 -158.271393 -885.846924
v -40.1253662 -132.069305 -885.846924
v 1.58587646 -167.908859 -863.18634
v -26.5769653 -145.358749 -862.182678
v -51.5167542 -116.94928 -863.18634
v 18.0318604 -171.512436 -840.805359
v -10.7169495 -152.16539 -839.029114
v -36.3789978 -127.539017 -839.029114
v -59.1936646 -97.4037323 -840.805359
v 36.4281616 -168.881561 -818.903259
v 7.60266113 -152.552521 -816.170471
v -18.6975403 -131.034195 -815.274658
v -42.3188782 -104.645844 -816.170471
v -62.9840393 -73.4814682 -818.903259
v 56.7297668 -159.499954 -797.756348
v 28.7878113 -145.744507 -793.514526
v 2.25872803 -126.898026 -791.366699
v -22.1951599 -103.431038 -791.366699
v -43.9633484 -75.9294739 -793.514526
v -62.5023804 -45.0797958 -797.756348
v 195.785889 -142.513611 -908.597534
v 210.899292 -132.069305 -885.846924
v 183.595276 -158.271393 -885.846924
v 222.29071 -116.94928 -863.18634
v 197.350891 -145.358749 -862.182678
v 169.188049 -167.908859 -863.18634
v 229.96759 -97.4037323 -840.805359
v 207.152954 -127.539017 -839.029114
v 181.490845 -152.165314 -839.029114
v 152.742065 -171.512512 -840.805359
v 233.757935 -73.4814682 -818.903259
v 213.092834 -104.645844 -816.170471
v 189.471436 -131.034195 -815.274658
v 163.171295 -152.552521 -816.170471
v 134.345764 -168.881561 -818.903259
v 233.276306 -45.0797958 -797.756348
v 214.737244 -75.9294739 -793.514526
v 192.969055 -103.431038 -791.366699
v 168.515198 -126.898026 -791.366699
v 141.986145 -145.744507 -793.514526
v 114.044128 -159.499954 -797.756348
v 264.016174 134.850067 -908.597534
v 261.166138 157.062714 -885.846924
v 271.595398 114.66684 -885.846924
v 253.799194 176.044861 -863.18634
v 266.548401 135.936737 -862.182556
v 274.082642 93.5905609 -863.18634
v 242.0979 191.728363 -840.805359
v 256.746399 153.756516 -839.029114
v 266.548401 113.910156 -839.029114
v 271.595398 71.817688 -840.805359
v 226.044067 203.882141 -818.903198
v 242.0979 168.292526 -816.170471
v 253.799194 130.465195 -815.274658
v 261.16626 90.7776718 -816.170471
v 264.016174 49.5214233 -818.903198
v 205.444824 212.053741 -797.756287
v 221.929016 179.232132 -793.514404
v 235.004578 143.388702 -791.366699
v 244.345215 105.418266 -791.366699
v 249.717468 66.2688446 -793.514404
v 250.987549 26.9178791 -797.756287
v 85.3869934 58.1885681 -713.241333
v 103.098083 90.3868866 -715.290344
v 67.6758423 90.3868866 -715.290344
v 120.367157 121.781517 -721.38623
v 85.3869934 126.182846 -719.296143
v 50.4067688 121.781517 -721.38623
v 136.763 151.588806 -731.37677
v 102.261749 158.973862 -727.562317
v 68.5121765 158.973862 -727.562317
v 34.0108948 151.588806 -731.37677
v 151.876373 179.064407 -745.012817
v 118.206207 188.656998 -739.665344
v 85.3869934 191.658356 -738.01001
v 52.5677185 188.656998 -739.665344
v 18.8975525 179.064407 -745.012817
v 165.329834 203.522522 -761.953613
v 133.114929 215.064148 -755.399475
v 101.247009 220.491455 -752.319641
v 69.526947 220.491455 -752.319641
v 37.6589661 215.064178 -755.399475
v 5.44406128 203.522522 -761.953613
v 176.787689 224.352402 -781.776489
v 146.827087 237.879318 -774.730347
v 116.240204 245.742142 -770.624756
v 85.3869934 248.321503 -769.276428
v 54.5337524 245.742142 -770.624756
v 23.9468079 237.879318 -774.730347
v -6.01370239 224.352402 -781.776489
v 114.044128 45.8898468 -715.290344
v 141.986084 33.8981781 -721.38623
v 134.345703 79.1998978 -719.296143
v 168.515198 22.5127811 -731.37677
v 163.171295 68.1350098 -727.562317
v 152.742065 110.530815 -727.562317
v 192.969055 12.0179796 -745.012817
v 189.471497 57.2783432 -739.665344
v 181.490906 99.432991 -738.01001
v 169.18811 139.732605 -739.665344
v 214.737244 2.67588806 -761.953613
v 213.092834 46.7103882 -755.399475
v 207.152954 88.4197464 -752.319641
v 197.350952 128.266037 -752.319641
v 183.595276 166.621109 -755.399475
v 233.276367 -5.28051758 -781.776489
v 233.757996 36.5356216 -774.730347
v 229.96759 77.3882523 -770.624756
v 222.290771 116.942772 -769.276428
v 210.899353 154.903152 -770.624756
v 195.785889 190.896439 -774.730347
v 85.3869934 18.3892899 -715.290344
v 85.3869934 -20.4167137 -721.38623
v 115.645142 3.18002701 -719.296143
v 85.3869934 -57.2605209 -731.37677
v 116.58551 -36.4495316 -727.562317
v 143.889496 -10.2475128 -727.562317
v 85.3869934 -91.2222443 -745.012817
v 116.895477 -72.8423996 -739.665405
v 144.782471 -49.7908554 -738.01001
v 169.998138 -21.8828888 -739.665344
v 85.3869934 -121.454132 -761.953674
v 116.58551 -105.78093 -755.399475
v 144.782471 -85.430542 -752.319702
v 170.444519 -60.8041 -752.319702
v 193.811096 -31.6721344 -755.399475
v 85.3869934 -147.201248 -781.776489
v 115.645142 -134.884521 -774.730347
v 143.889496 -117.498871 -770.624756
v 169.998138 -95.6322861 -769.276489
v 193.811096 -69.5921097 -770.624756
v 215.057434 -39.4843292 -774.730347
v 56.7297668 45.8898468 -715.290344
v 28.7878418 33.8981781 -721.38623
v 55.1287842 3.18002701 -719.296143
v 2.25875854 22.5127811 -731.37677
v 26.8843994 -10.2475128 -727.562317
v 54.1884155 -36.4495316 -727.562317
v -22.1951599 12.0179796 -745.012817
v 0.775787354 -21.8828888 -739.665344
v 25.9914856 -49.7908554 -738.01001
v 53.8784485 -72.8423996 -739.665405
v -43.9633484 2.67588806 -761.953613
v -23.0371399 -31.6721344 -755.399475
v 0.329406738 -60.8041 -752.319702
v 25.9914856 -85.430542 -752.319702
v 54.1884155 -105.78093 -755.399536
v -62.5024414 -5.28051758 -781.776489
v -44.2834473 -39.4843292 -774.730347
v -23.0371399 -69.5921097 -770.624756
v 0.775787354 -95.6322861 -769.276489
v 26.8843689 -117.498871 -770.624756
v 55.1287842 -134.884521 -774.730347
v 36.4281921 79.1998978 -719.296143
v 18.0318298 110.530815 -727.562317
v 7.60263062 68.1350098 -727.562317
v 1.58584595 139.732605 -739.665344
v -10.7170105 99.432991 -738.01001
v -18.6975403 57.2783432 -739.665344
v -12.8213806 166.621109 -755.399475
v -26.5770264 128.266037 -752.319641
v -36.3790283 88.4197464 -752.319641
v -42.3189087 46.7103882 -755.399475
v -25.0119934 190.896439 -774.730286
v -40.1253662 154.903152 -770.624756
v -51.5168457 116.942772 -769.276428
v -59.1937256 77.3882523 -770.624756
v -62.9841003 36.5356216 -774.730347
g 
f 3 1 2
f 5 2 4
f 6 3 5
f 8 4 7
f 9 5 8
f 10 6 9
f 12 7 11
f 13 8 12
f 14 9 13
f 15 10 14
f 17 11 16
f 18 12 17
f 19 13 18
f 20 14 19
f 21 15 20
f 23 16 22
f 24 17 23
f 25 18 24
f 26 19 25
f 27 20 26
f 28 21 27
f 30 22 29
f 31 23 30
f 32 24 31
f 33 25 32
f 34 26 33
f 35 27 34
f 36 28 35
f 3 2 5
f 5 4 8
f 6 5 9
f 8 7 12
f 9 8 13
f 10 9 14
f 12 11 17
f 13 12 18
f 14 13 19
f 15 14 20
f 17 16 23
f 18 17 24
f 19 18 25
f 20 19 26
f 21 20 27
f 23 22 30
f 24 23 31
f 25 24 32
f 26 25 33
f 27 26 34
f 28 27 35
f 37 1 3
f 38 3 6
f 39 37 38
f 40 6 10
f 41 38 40
f 42 39 41
f 43 10 15
f 44 40 43
f 45 41 44
f 46 42 45
f 47 15 21
f 48 43 47
f 49 44 48
f 50 45 49
f 51 46 50
f 52 21 28
f 53 47 52
f 54 48 53
f 55 49 54
f 56 50 55
f 57 51 56
f 58 28 36
f 59 52 58
f 60 53 59
f 61 54 60
f 62 55 61
f 63 56 62
f 64 57 63
f 37 3 38
f 38 6 40
f 39 38 41
f 40 10 43
f 41 40 44
f 42 41 45
f 43 15 47
f 44 43 48
f 45 44 49
f 46 45 50
f 47 21 52
f 48 47 53
f 49 48 54
f 50 49 55
f 51 50 56
f 52 28 58
f 53 52 59
f 54 53 60
f 55 54 61
f 56 55 62
f 57 56 63
f 65 1 37
f 66 37 39
f 67 65 66
f 68 39 42
f 69 66 68
f 70 67 69
f 71 42 46
f 72 68 71
f 73 69 72
f 74 70 73
f 75 46 51
f 76 71 75
f 77 72 76
f 78 73 77
f 79 74 78
f 80 51 57
f 81 75 80
f 82 76 81
f 83 77 82
f 84 78 83
f 85 79 84
f 86 57 64
f 87 80 86
f 88 81 87
f 89 82 88
f 90 83 89
f 91 84 90
f 92 85 91
f 65 37 66
f 66 39 68
f 67 66 69
f 68 42 71
f 69 68 72
f 70 69 73
f 71 46 75
f 72 71 76
f 73 72 77
f 74 73 78
f 75 51 80
f 76 75 81
f 77 76 82
f 78 77 83
f 79 78 84
f 80 57 86
f 81 80 87
f 82 81 88
f 83 82 89
f 84 83 90
f 85 84 91
f 93 1 65
f 94 65 67
f 95 93 94
f 96 67 70
f 97 94 96
f 98 95 97
f 99 70 74
f 100 96 99
f 101 97 100
f 102 98 101
f 103 74 79
f 104 99 103
f 105 100 104
f 106 101 105
f 107 102 106
f 108 79 85
f 109 103 108
f 110 104 109
f 111 105 110
f 112 106 111
f 113 107 112
f 114 85 92
f 115 108 114
f 116 109 115
f 117 110 116
f 118 111 117
f 119 112 118
f 120 113 119
f 93 65 94
f 94 67 96
f 95 94 97
f 96 70 99
f 97 96 100
f 98 97 101
f 99 74 103
f 100 99 104
f 101 100 105
f 102 101 106
f 103 79 108
f 104 103 109
f 105 104 110
f 106 105 111
f 107 106 112
f 108 85 114
f 109 108 115
f 110 109 116
f 111 110 117
f 112 111 118
f 113 112 119
f 2 1 93
f 121 93 95
f 4 2 121
f 122 95 98
f 123 121 122
f 7 4 123
f 124 98 102
f 125 122 124
f 126 123 125
f 11 7 126
f 127 102 107
f 128 124 127
f 129 125 128
f 130 126 129
f 16 11 130
f 131 107 113
f 132 127 131
f 133 128 132
f 134 129 133
f 135 130 134
f 22 16 135
f 136 113 120
f 137 131 136
f 138 132 137
f 139 133 138
f 140 134 139
f 141 135 140
f 29 22 141
f 2 93 121
f 121 95 122
f 4 121 123
f 122 98 124
f 123 122 125
f 7 123 126
f 124 102 127
f 125 124 128
f 126 125 129
f 11 126 130
f 127 107 131
f 128 127 132
f 129 128 133
f 130 129 134
f 16 130 135
f 131 113 136
f 132 131 137
f 133 132 138
f 134 133 139
f 135 134 140
f 22 135 141
f 142 29 141
f 143 141 140
f 144 142 143
f 145 140 139
f 146 143 145
f 147 144 146
f 148 139 138
f 149 145 148
f 150 146 149
f 151 147 150
f 152 138 137
f 153 148 152
f 154 149 153
f 155 150 154
f 156 151 155
f 157 137 136
f 158 152 157
f 159 153 158
f 160 154 159
f 161 155 160
f 162 156 161
f 163 136 120
f 164 157 163
f 165 158 164
f 166 159 165
f 167 160 166
f 168 161 167
f 169 162 168
f 142 141 143
f 143 140 145
f 144 143 146
f 145 139 148
f 146 145 149
f 147 146 150
f 148 138 152
f 149 148 153
f 150 149 154
f 151 150 155
f 152 137 157
f 153 152 158
f 154 153 159
f 155 154 160
f 156 155 161
f 157 136 163
f 158 157 164
f 159 158 165
f 160 159 166
f 161 160 167
f 162 161 168
f 170 120 119
f 171 119 118
f 172 170 171
f 173 118 117
f 174 171 173
f 175 172 174
f 176 117 116
f 177 173 176
f 178 174 177
f 179 175 178
f 180 116 115
f 181 176 180
f 182 177 181
f 183 178 182
f 184 179 183
f 185 115 114
f 186 180 185
f 187 181 186
f 188 182 187
f 189 183 188
f 190 184 189
f 191 114 92
f 192 185 191
f 193 186 192
f 194 187 193
f 195 188 194
f 196 189 195
f 197 190 196
f 170 119 171
f 171 118 173
f 172 171 174
f 173 117 176
f 174 173 177
f 175 174 178
f 176 116 180
f 177 176 181
f 178 177 182
f 179 178 183
f 180 115 185
f 181 180 186
f 182 181 187
f 183 182 188
f 184 183 189
f 185 114 191
f 186 185 192
f 187 186 193
f 188 187 194
f 189 188 195
f 190 189 196
f 198 92 91
f 199 91 90
f 200 198 199
f 201 90 89
f 202 199 201
f 203 200 202
f 204 89 88
f 205 201 204
f 206 202 205
f 207 203 206
f 208 88 87
f 209 204 208
f 210 205 209
f 211 206 210
f 212 207 211
f 213 87 86
f 214 208 213
f 215 209 214
f 216 210 215
f 217 211 216
f 218 212 217
f 219 86 64
f 220 213 219
f 221 214 220
f 222 215 221
f 223 216 222
f 224 217 223
f 225 218 224
f 198 91 199
f 199 90 201
f 200 199 202
f 201 89 204
f 202 201 205
f 203 202 206
f 204 88 208
f 205 204 209
f 206 205 210
f 207 206 211
f 208 87 213
f 209 208 214
f 210 209 215
f 211 210 216
f 212 211 217
f 213 86 219
f 214 213 220
f 215 214 221
f 216 215 222
f 217 216 223
f 218 217 224
f 226 64 63
f 227 63 62
f 228 226 227
f 229 62 61
f 230 227 229
f 231 228 230
f 232 61 60
f 233 229 232
f 234 230 233
f 235 231 234
f 236 60 59
f 237 232 236
f 238 233 237
f 239 234 238
f 240 235 239
f 241 59 58
f 242 236 241
f 243 237 242
f 244 238 243
f 245 239 244
f 246 240 245
f 247 58 36
f 248 241 247
f 249 242 248
f 250 243 249
f 251 244 250
f 252 245 251
f 253 246 252
f 226 63 227
f 227 62 229
f 228 227 230
f 229 61 232
f 230 229 233
f 231 230 234
f 232 60 236
f 233 232 237
f 234 233 238
f 235 234 239
f 236 59 241
f 237 236 242
f 238 237 243
f 239 238 244
f 240 239 245
f 241 58 247
f 242 241 248
f 243 242 249
f 244 243 250
f 245 244 251
f 246 245 252
f 254 36 35
f 255 35 34
f 256 254 255
f 257 34 33
f 258 255 257
f 259 256 258
f 260 33 32
f 261 257 260
f 262 258 261
f 263 259 262
f 264 32 31
f 265 260 264
f 266 261 265
f 267 262 266
f 268 263 267
f 269 31 30
f 270 264 269
f 271 265 270
f 272 266 271
f 273 267 272
f 274 268 273
f 275 30 29
f 276 269 275
f 277 270 276
f 278 271 277
f 279 272 278
f 280 273 279
f 281 274 280
f 254 35 255
f 255 34 257
f 256 255 258
f 257 33 260
f 258 257 261
f 259 258 262
f 260 32 264
f 261 260 265
f 262 261 266
f 263 262 267
f 264 31 269
f 265 264 270
f 266 265 271
f 267 266 272
f 268 267 273
f 269 30 275
f 270 269 276
f 271 270 277
f 272 271 278
f 273 272 279
f 274 273 280
f 275 29 142
f 282 142 144
f 276 275 282
f 283 144 147
f 284 282 283
f 277 276 284
f 285 147 151
f 286 283 285
f 287 284 286
f 278 277 287
f 288 151 156
f 289 285 288
f 290 286 289
f 291 287 290
f 279 278 291
f 292 156 162
f 293 288 292
f 294 289 293
f 295 290 294
f 296 291 295
f 280 279 296
f 297 162 169
f 298 292 297
f 299 293 298
f 300 294 299
f 301 295 300
f 302 296 301
f 281 280 302
f 275 142 282
f 282 144 283
f 276 282 284
f 283 147 285
f 284 283 286
f 277 284 287
f 285 151 288
f 286 285 289
f 287 286 290
f 278 287 291
f 288 156 292
f 289 288 293
f 290 289 294
f 291 290 295
f 279 291 296
f 292 162 297
f 293 292 298
f 294 293 299
f 295 294 300
f 296 295 301
f 280 296 302
f 163 120 170
f 303 170 172
f 164 163 303
f 304 172 175
f 305 303 304
f 165 164 305
f 306 175 179
f 307 304 306
f 308 305 307
f 166 165 308
f 309 179 184
f 310 306 309
f 311 307 310
f 312 308 311
f 167 166 312
f 313 184 190
f 314 309 313
f 315 310 314
f 316 311 315
f 317 312 316
f 168 167 317
f 318 190 197
f 319 313 318
f 320 314 319
f 321 315 320
f 322 316 321
f 323 317 322
f 169 168 323
f 163 170 303
f 303 172 304
f 164 303 305
f 304 175 306
f 305 304 307
f 165 305 308
f 306 179 309
f 307 306 310
f 308 307 311
f 166 308 312
f 309 184 313
f 310 309 314
f 311 310 315
f 312 311 316
f 167 312 317
f 313 190 318
f 314 313 319
f 315 314 320
f 316 315 321
f 317 316 322
f 168 317 323
f 191 92 198
f 324 198 200
f 192 191 324
f 325 200 203
f 326 324 325
f 193 192 326
f 327 203 207
f 328 325 327
f 329 326 328
f 194 193 329
f 330 207 212
f 331 327 330
f 332 328 331
f 333 329 332
f 195 194 333
f 334 212 218
f 335 330 334
f 336 331 335
f 337 332 336
f 338 333 337
f 196 195 338
f 339 218 225
f 340 334 339
f 341 335 340
f 342 336 341
f 343 337 342
f 344 338 343
f 197 196 344
f 191 198 324
f 324 200 325
f 192 324 326
f 325 203 327
f 326 325 328
f 193 326 329
f 327 207 330
f 328 327 331
f 329 328 332
f 194 329 333
f 330 212 334
f 331 330 335
f 332 331 336
f 333 332 337
f 195 333 338
f 334 218 339
f 335 334 340
f 336 335 341
f 337 336 342
f 338 337 343
f 196 338 344
f 219 64 226
f 345 226 228
f 220 219 345
f 346 228 231
f 347 345 346
f 221 220 347
f 348 231 235
f 349 346 348
f 350 347 349
f 222 221 350
f 351 235 240
f 352 348 351
f 353 349 352
f 354 350 353
f 223 222 354
f 355 240 246
f 356 351 355
f 357 352 356
f 358 353 357
f 359 354 358
f 224 223 359
f 360 246 253
f 361 355 360
f 362 356 361
f 363 357 362
f 364 358 363
f 365 359 364
f 225 224 365
f 219 226 345
f 345 228 346
f 220 345 347
f 346 231 348
f 347 346 349
f 221 347 350
f 348 235 351
f 349 348 352
f 350 349 353
f 222 350 354
f 351 240 355
f 352 351 356
f 353 352 357
f 354 353 358
f 223 354 359
f 355 246 360
f 356 355 361
f 357 356 362
f 358 357 363
f 359 358 364
f 224 359 365
f 247 36 254
f 366 254 256
f 248 247 366
f 367 256 259
f 368 366 367
f 249 248 368
f 369 259 263
f 370 367 369
f 371 368 370
f 250 249 371
f 372 263 268
f 373 369 372
f 374 370 373
f 375 371 374
f 251 250 375
f 376 268 274
f 377 372 376
f 378 373 377
f 379 374 378
f 380 375 379
f 252 251 380
f 381 274 281
f 382 376 381
f 383 377 382
f 384 378 383
f 385 379 384
f 386 380 385
f 253 252 386
f 247 254 366
f 366 256 367
f 248 366 368
f 367 259 369
f 368 367 370
f 249 368 371
f 369 263 372
f 370 369 373
f 371 370 374
f 250 371 375
f 372 268 376
f 373 372 377
f 374 373 378
f 375 374 379
f 251 375 380
f 376 274 381
f 377 376 382
f 378 377 383
f 379 378 384
f 380 379 385
f 252 380 386
f 389 387 388
f 391 388 390
f 392 389 391
f 394 390 393
f 395 391 394
f 396 392 395
f 398 393 397
f 399 394 398
f 400 395 399
f 401 396 400
f 403 397 402
f 404 398 403
f 405 399 404
f 406 400 405
f 407 401 406
f 409 402 408
f 410 403 409
f 411 404 410
f 412 405 411
f 413 406 412
f 414 407 413
f 302 408 281
f 301 409 302
f 300 410 301
f 299 411 300
f 298 412 299
f 297 413 298
f 169 414 297
f 389 388 391
f 391 390 394
f 392 391 395
f 394 393 398
f 395 394 399
f 396 395 400
f 398 397 403
f 399 398 404
f 400 399 405
f 401 400 406
f 403 402 409
f 404 403 410
f 405 404 411
f 406 405 412
f 407 406 413
f 409 408 302
f 410 409 301
f 411 410 300
f 412 411 299
f 413 412 298
f 414 413 297
f 388 387 415
f 417 415 416
f 390 388 417
f 419 416 418
f 420 417 419
f 393 390 420
f 422 418 421
f 423 419 422
f 424 420 423
f 397 393 424
f 426 421 425
f 427 422 426
f 428 423 427
f 429 424 428
f 402 397 429
f 431 425 430
f 432 426 431
f 433 427 432
f 434 428 433
f 435 429 434
f 408 402 435
f 386 430 253
f 385 431 386
f 384 432 385
f 383 433 384
f 382 434 383
f 381 435 382
f 281 408 381
f 388 415 417
f 417 416 419
f 390 417 420
f 419 418 422
f 420 419 423
f 393 420 424
f 422 421 426
f 423 422 427
f 424 423 428
f 397 424 429
f 426 425 431
f 427 426 432
f 428 427 433
f 429 428 434
f 402 429 435
f 431 430 386
f 432 431 385
f 433 432 384
f 434 433 383
f 435 434 382
f 408 435 381
f 415 387 436
f 438 436 437
f 416 415 438
f 440 437 439
f 441 438 440
f 418 416 441
f 443 439 442
f 444 440 443
f 445 441 444
f 421 418 445
f 447 442 446
f 448 443 447
f 449 444 448
f 450 445 449
f 425 421 450
f 452 446 451
f 453 447 452
f 454 448 453
f 455 449 454
f 456 450 455
f 430 425 456
f 365 451 225
f 364 452 365
f 363 453 364
f 362 454 363
f 361 455 362
f 360 456 361
f 253 430 360
f 415 436 438
f 438 437 440
f 416 438 441
f 440 439 443
f 441 440 444
f 418 441 445
f 443 442 447
f 444 443 448
f 445 444 449
f 421 445 450
f 447 446 452
f 448 447 453
f 449 448 454
f 450 449 455
f 425 450 456
f 452 451 365
f 453 452 364
f 454 453 363
f 455 454 362
f 456 455 361
f 430 456 360
f 436 387 457
f 459 457 458
f 437 436 459
f 461 458 460
f 462 459 461
f 439 437 462
f 464 460 463
f 465 461 464
f 466 462 465
f 442 439 466
f 468 463 467
f 469 464 468
f 470 465 469
f 471 466 470
f 446 442 471
f 473 467 472
f 474 468 473
f 475 469 474
f 476 470 475
f 477 471 476
f 451 446 477
f 344 472 197
f 343 473 344
f 342 474 343
f 341 475 342
f 340 476 341
f 339 477 340
f 225 451 339
f 436 457 459
f 459 458 461
f 437 459 462
f 461 460 464
f 462 461 465
f 439 462 466
f 464 463 468
f 465 464 469
f 466 465 470
f 442 466 471
f 468 467 473
f 469 468 474
f 470 469 475
f 471 470 476
f 446 471 477
f 473 472 344
f 474 473 343
f 475 474 342
f 476 475 341
f 477 476 340
f 451 477 339
f 457 387 389
f 478 389 392
f 458 457 478
f 479 392 396
f 480 478 479
f 460 458 480
f 481 396 401
f 482 479 481
f 483 480 482
f 463 460 483
f 484 401 407
f 485 481 484
f 486 482 485
f 487 483 486
f 467 463 487
f 488 407 414
f 489 484 488
f 490 485 489
f 491 486 490
f 492 487 491
f 472 467 492
f 323 414 169
f 322 488 323
f 321 489 322
f 320 490 321
f 319 491 320
f 318 492 319
f 197 472 318
f 457 389 478
f 478 392 479
f 458 478 480
f 479 396 481
f 480 479 482
f 460 480 483
f 481 401 484
f 482 481 485
f 483 482 486
f 463 483 487
f 484 407 488
f 485 484 489
f 486 485 490
f 487 486 491
f 467 487 492
f 488 414 323
f 489 488 322
f 490 489 321
f 491 490 320
f 492 491 319
f 472 492 318
