# File exported by Houdini 20.5.445 (www.sidefx.com)
# 492 points
# 2940 vertices
# 980 primitives
# Bounds: [-180.931961, -116.973083, -1046.25244] to [351.705872, 233.350189, -708.548523]
g 
v 85.3869476 58.1885681 -1046.25244
v 85.3869476 85.8966522 -1044.14502
v 125.405518 66.7508545 -1044.14502
v 85.3869476 112.913177 -1037.87476
v 127.641174 96.4852676 -1040.02466
v 164.425232 75.0994339 -1037.87476
v 85.3869476 138.56369 -1027.59863
v 128.954407 124.075157 -1031.52222
v 167.083313 105.833435 -1031.52222
v 201.472046 83.0258636 -1027.59863
v 85.3869476 162.207672 -1013.57281
v 129.387207 149.411713 -1019.07318
v 168.330261 133.363312 -1020.77582
v 203.542969 113.93396 -1019.07318
v 235.620911 90.3322983 -1013.57281
v 85.3869476 183.254929 -996.147705
v 128.954407 172.343353 -1002.88922
v 168.330261 158.175476 -1006.05713
v 204.166199 141.030731 -1006.05713
v 236.796631 120.749153 -1002.88922
v 266.019226 96.8362503 -996.147705
v 85.3869476 201.180038 -975.758179
v 127.641235 192.605103 -983.005859
v 167.083313 180.501343 -987.228699
v 203.542969 165.277924 -988.615601
v 236.796631 147.148895 -987.228699
v 266.466248 126.187973 -983.005859
v 291.908264 102.375435 -975.758179
v 85.3869476 215.535416 -952.91333
v 125.405518 209.742325 -959.321472
v 164.425232 200.165833 -963.684692
v 201.472046 187.044998 -965.893738
v 235.620911 170.707397 -965.893738
v 266.019226 151.560913 -963.684692
v 291.908203 130.083496 -959.321472
v 312.641602 106.811493 -952.913452
v 110.119812 35.7722092 -1044.14502
v 153.755737 43.5605469 -1040.02466
v 134.235352 13.9154072 -1037.87476
v 194.00946 51.2639008 -1031.52222
v 179.445496 21.7480927 -1031.52222
v 157.13147 -6.8362484 -1027.59863
v 230.736633 58.8222351 -1019.07318
v 219.592041 29.4743576 -1020.77582
v 202.411682 1.41793633 -1019.07318
v 178.236572 -25.9646835 -1013.57281
v 263.722778 66.1796265 -1002.88922
v 255.42804 37.1417847 -1006.05713
v 241.739929 9.40091991 -1006.05713
v 222.530762 -17.3017044 -1002.88922
v 197.023804 -42.9923019 -996.147705
v 292.580811 73.2632294 -983.005859
v 287.28772 44.8218079 -987.228699
v 276.567383 17.2841015 -988.615601
v 260.659729 -9.1437149 -987.228699
v 239.554382 -34.2020721 -983.005859
v 213.02417 -57.4939575 -975.758179
v 316.641174 79.9590912 -959.321594
v 314.867615 52.5630875 -963.684692
v 307.365417 25.307457 -965.89386
v 294.321716 -1.12741089 -965.89386
v 276.062195 -26.08144 -963.684692
v 253.042664 -48.9317017 -959.321594
v 225.838074 -69.1077347 -952.913452
v 60.6541595 35.7722092 -1044.14502
v 85.3869476 10.8512363 -1040.02466
v 36.5385895 13.9154072 -1037.87476
v 108.951843 -11.9777603 -1031.52222
v 61.8220062 -11.9777603 -1031.52222
v 13.6425018 -6.8362484 -1027.59863
v 131.21759 -32.6430206 -1019.07318
v 85.3869476 -34.7325211 -1020.77582
v 39.5562592 -32.6430206 -1019.07318
v -7.46269226 -25.9646835 -1013.57281
v 152.037048 -51.027504 -1002.88922
v 107.53479 -54.8060074 -1006.05713
v 63.23909 -54.8060074 -1006.05713
v 18.7368317 -51.0275574 -1002.88922
v -26.2499237 -42.9923019 -996.147705
v 171.185486 -66.9113159 -983.005859
v 128.472107 -72.3853989 -987.228699
v 85.3869476 -74.1811523 -988.615601
v 42.3017426 -72.3853989 -987.228699
v -0.411605835 -66.9113159 -983.005859
v -42.2502289 -57.4939575 -975.758179
v 188.29126 -79.9103317 -959.321594
v 148.175537 -87.2654266 -963.684692
v 106.492126 -90.9895172 -965.89386
v 64.2818451 -90.9895172 -965.89386
v 22.598465 -87.2654266 -963.684692
v -17.5173798 -79.9103317 -959.321594
v -55.0641327 -69.1077347 -952.913452
v 45.3683929 66.7508545 -1044.14502
v 17.0180817 43.5605469 -1040.02466
v 6.34864807 75.0994339 -1037.87476
v -8.6716156 21.7480927 -1031.52222
v -23.2355499 51.2639008 -1031.52222
v -30.6981049 83.0258636 -1027.59863
v -31.6377411 1.41793633 -1019.07318
v -48.8181 29.4743576 -1020.77582
v -59.9626617 58.8222351 -1019.07318
v -64.8469391 90.3322983 -1013.57281
v -51.7568512 -17.3017044 -1002.88922
v -70.9659882 9.40091991 -1006.05713
v -84.6540985 37.1417847 -1006.05713
v -92.9488983 66.1796265 -1002.88922
v -95.245285 96.8362503 -996.147705
v -68.7804718 -34.2020721 -983.005859
v -89.8857574 -9.1437149 -987.228699
v -105.793411 17.2841015 -988.615601
v -116.513855 44.8218079 -987.228699
v -121.806931 73.2632294 -983.005859
v -121.134308 102.375435 -975.758179
v -82.2688141 -48.9317017 -959.321594
v -105.288239 -26.08144 -963.684692
v -123.547791 -1.12741089 -965.89386
v -136.591507 25.307457 -965.89386
v -144.093674 52.5630875 -963.684692
v -145.867188 79.9590912 -959.321594
v -141.867706 106.811493 -952.913452
v 43.1326447 96.4852676 -1040.02466
v 3.69059753 105.833435 -1031.52222
v 41.8195343 124.075157 -1031.52222
v -32.7689667 113.93396 -1019.07318
v 2.44364929 133.363312 -1020.77582
v 41.386673 149.411713 -1019.07318
v -66.0226898 120.749153 -1002.88922
v -33.3922882 141.030731 -1006.05713
v 2.44364929 158.175476 -1006.05713
v 41.8194733 172.343353 -1002.88922
v -95.6923218 126.187973 -983.005859
v -66.0226898 147.148895 -987.228699
v -32.7689667 165.277924 -988.615601
v 3.69059753 180.501343 -987.228699
v 43.1326447 192.605103 -983.005859
v -121.134262 130.083496 -959.321472
v -95.245285 151.560913 -963.684692
v -64.8469391 170.707397 -965.893738
v -30.6981049 187.044998 -965.893738
v 6.34864807 200.165833 -963.684692
v 45.3683929 209.742325 -959.321472
v 60.6540985 223.596375 -932.726562
v 17.0180817 216.273758 -937.570068
v 36.5385895 227.528122 -911.158508
v -23.2355499 204.905563 -940.380981
v -8.6716156 218.105438 -915.04187
v 13.6425018 227.232498 -888.747681
v -59.9626007 189.924606 -941.302429
v -48.8181 204.635986 -916.868896
v -31.6377106 215.596512 -892.021057
v -7.46269226 222.716904 -866.053528
v -92.9488678 171.553055 -940.380981
v -84.6540375 187.491196 -916.868896
v -70.9659271 199.897263 -893.053528
v -51.7567902 208.886993 -868.712769
v -26.2498932 214.094025 -843.642639
v -121.80687 149.856628 -937.570068
v -116.513779 166.511169 -915.04187
v -105.793304 180.118744 -892.021057
v -89.8856659 190.645233 -868.712769
v -68.7804413 197.916473 -845.311768
v -42.2502289 201.579178 -822.074524
v -145.867126 124.791763 -932.726562
v -144.093597 141.109406 -911.158508
v -136.59137 155.357101 -888.747681
v -123.547699 167.179077 -866.053528
v -105.288193 176.280258 -843.642639
v -82.2687836 182.433365 -822.074524
v -55.0641327 185.484833 -801.887695
v -161.152863 93.8131256 -932.726562
v -164.061218 64.2225952 -937.570068
v -174.283585 79.9253845 -911.158508
v -160.081329 35.500206 -940.380981
v -174.645233 48.7000122 -915.04187
v -180.931961 65.4949799 -888.747681
v -149.793671 7.86991119 -941.302429
v -167.597382 19.3954086 -916.868896
v -178.118591 33.541832 -892.021057
v -180.931961 50.8821335 -866.053528
v -133.453186 -18.4653168 -940.380981
v -153.909241 -8.34545517 -916.868896
v -167.597382 4.06061172 -893.053528
v -174.645203 18.868618 -868.712769
v -174.283585 36.4517212 -843.642578
v -111.03479 -43.2427292 -937.570068
v -133.453186 -34.7812347 -915.04187
v -149.793625 -23.8624725 -892.021057
v -160.081253 -10.6472168 -868.712769
v -164.061188 4.81715202 -845.311768
v -161.152863 22.5639591 -822.074524
v -82.2687836 -66.0562668 -932.726562
v -105.288193 -59.9031677 -911.158508
v -123.547699 -50.8019485 -888.747681
v -136.59137 -38.9800034 -866.053528
v -144.093597 -24.7323265 -843.642639
v -145.867126 -8.41462708 -822.074524
v -141.867706 9.56558895 -801.887695
v -42.2502289 -85.2020874 -932.726562
v -0.411605835 -96.1674194 -937.570068
v -26.2498932 -97.7169418 -911.158508
v 42.3017426 -102.550705 -940.380981
v 18.7368317 -107.59259 -915.04187
v -7.46269226 -106.339767 -888.747681
v 85.3869476 -104.646072 -941.302429
v 63.23909 -112.234375 -916.868896
v 39.5562592 -114.45195 -892.021057
v 13.6425018 -110.855392 -866.053528
v 128.472107 -102.550705 -940.380981
v 107.53479 -112.234375 -916.868896
v 85.3869476 -116.973083 -893.053528
v 61.8220062 -116.810928 -868.712769
v 36.5385895 -111.151031 -843.642639
v 171.185486 -96.1674194 -937.570068
v 152.037048 -107.59259 -915.04187
v 131.21759 -114.45195 -892.021057
v 108.951843 -116.810928 -868.712769
v 85.3869476 -114.524628 -845.311768
v 60.6540985 -107.219208 -822.074585
v 213.02417 -85.2020874 -932.726562
v 197.023804 -97.7169418 -911.158508
v 178.236572 -106.339767 -888.747681
v 157.13147 -110.855392 -866.053528
v 134.235352 -111.151031 -843.642639
v 110.119812 -107.219208 -822.074585
v 85.3869476 -99.1583252 -801.887695
v 253.042664 -66.0562668 -932.726562
v 281.808716 -43.2427292 -937.570068
v 276.062134 -59.9031677 -911.158508
v 304.227112 -18.4653168 -940.380981
v 304.227112 -34.7812347 -915.04187
v 294.321594 -50.8019485 -888.747681
v 320.567566 7.86991119 -941.302429
v 324.683228 -8.34545517 -916.868896
v 320.567566 -23.8624725 -892.021057
v 307.365295 -38.9800034 -866.053528
v 330.855347 35.500206 -940.380981
v 338.371277 19.3954086 -916.868896
v 338.371277 4.06061172 -893.053528
v 330.855164 -10.6472168 -868.712769
v 314.867554 -24.7323265 -843.642639
v 334.835205 64.2225952 -937.570068
v 345.419189 48.7000122 -915.04187
v 348.892517 33.541832 -892.021057
v 345.419067 18.868618 -868.712769
v 334.835205 4.81715202 -845.311768
v 316.641052 -8.41462708 -822.074524
v 331.926758 93.8131256 -932.726562
v 345.057495 79.9253845 -911.158508
v 351.705872 65.4949799 -888.747681
v 351.705872 50.8821335 -866.053528
v 345.057495 36.4517212 -843.642578
v 331.926758 22.5639591 -822.074524
v 312.641602 9.56558895 -801.887695
v 316.641052 124.791763 -932.726562
v 292.58075 149.856628 -937.570068
v 314.867554 141.109406 -911.158508
v 263.722778 171.553055 -940.380981
v 287.28772 166.511169 -915.04187
v 307.365295 155.357101 -888.747681
v 230.736572 189.924606 -941.302429
v 255.42804 187.491196 -916.868896
v 276.567261 180.118744 -892.021057
v 294.321594 167.179077 -866.053528
v 194.00946 204.905563 -940.380981
v 219.59198 204.635986 -916.868896
v 241.739868 199.897263 -893.053528
v 260.659546 190.645233 -868.712769
v 276.062134 176.280258 -843.642639
v 153.755737 216.273758 -937.570068
v 179.445496 218.105438 -915.04187
v 202.411682 215.596512 -892.021057
v 222.530701 208.886993 -868.712769
v 239.554382 197.916473 -845.311768
v 253.042664 182.433365 -822.074524
v 110.119812 223.596375 -932.726562
v 134.235352 227.528122 -911.158508
v 157.13147 227.232498 -888.747681
v 178.236572 222.716904 -866.053528
v 197.023804 214.094025 -843.642639
v 213.02417 201.579178 -822.074524
v 225.838074 185.484833 -801.887695
v 85.3869476 230.901749 -909.48938
v 61.8220062 233.18808 -886.088379
v 108.951843 233.18808 -886.088379
v 39.5562592 230.829025 -862.780029
v 85.3869476 233.350189 -861.747559
v 131.21759 230.829025 -862.780029
v 18.7368317 223.969681 -839.759277
v 63.23909 228.611481 -837.93219
v 107.53479 228.611481 -837.93219
v 152.037048 223.969681 -839.759277
v -0.411605835 212.544525 -817.231018
v 42.3017426 218.927795 -814.420105
v 85.3869476 221.023239 -813.498718
v 128.472107 218.927795 -814.420105
v 171.185486 212.544525 -817.231018
v -17.5173798 196.287415 -795.479553
v 22.598465 203.642548 -791.116455
v 64.2818451 207.366638 -788.907288
v 106.492126 207.366638 -788.907288
v 148.175537 203.642548 -791.116455
v 188.29126 196.287415 -795.479553
v -164.061188 111.559929 -909.48938
v -174.645203 97.5084915 -886.088379
v -160.081253 127.024292 -886.088379
v -178.118591 82.8352814 -862.780029
v -167.597382 112.316498 -861.747559
v -149.793625 140.239563 -862.780029
v -174.645233 67.6771011 -839.759277
v -167.597382 96.9817047 -837.93219
v -153.909241 124.722534 -837.93219
v -133.453156 151.158386 -839.759277
v -164.061218 52.1545105 -817.231018
v -160.081329 80.8769379 -814.420044
v -149.793671 108.507225 -813.498718
v -133.453186 134.842438 -814.420044
v -111.03479 159.619797 -817.231018
v -145.867188 36.4180222 -795.479553
v -144.093674 63.8140259 -791.116455
v -136.591507 91.0696793 -788.907227
v -123.547791 117.504509 -788.907227
v -105.288239 142.458527 -791.116455
v -82.2688141 165.308792 -795.479553
v -68.7804413 -81.5393677 -909.48938
v -51.7567902 -92.5099182 -886.088379
v -89.8856659 -74.2681427 -886.088379
v -31.6377106 -99.219429 -862.780029
v -70.9659271 -83.520134 -861.747681
v -105.793304 -63.7416382 -862.780029
v -8.6716156 -101.728271 -839.759277
v -48.8181 -88.2588882 -837.93219
v -84.6540375 -71.1141281 -837.93219
v -116.513748 -50.1340714 -839.759277
v 17.0180817 -99.8966675 -817.231018
v -23.2355194 -88.5284729 -814.420105
v -59.9626007 -73.5475006 -813.498718
v -92.9488678 -55.1759949 -814.420105
v -121.80687 -33.4795532 -817.231018
v 45.3683929 -93.365242 -795.479553
v 6.34864807 -83.7886963 -791.116516
v -30.6981049 -70.6678696 -788.907288
v -64.8469391 -54.330307 -788.907288
v -95.245285 -35.1837845 -791.116516
v -121.134262 -13.7064362 -795.479553
v 239.554382 -81.5394211 -909.48938
v 260.659546 -74.2681427 -886.088379
v 222.530701 -92.5099182 -886.088379
v 276.567261 -63.7416382 -862.780029
v 241.739868 -83.520134 -861.747681
v 202.411682 -99.219429 -862.780029
v 287.28772 -50.1340714 -839.759277
v 255.42804 -71.1141281 -837.93219
v 219.59198 -88.2588882 -837.93219
v 179.445496 -101.728325 -839.759277
v 292.58075 -33.4795532 -817.231018
v 263.722778 -55.1759949 -814.420105
v 230.736572 -73.5475006 -813.498718
v 194.00946 -88.5284729 -814.420105
v 153.755737 -99.8966675 -817.231018
v 291.908203 -13.7064362 -795.479553
v 266.019226 -35.1837845 -791.116516
v 235.620911 -54.330307 -788.907288
v 201.472046 -70.6678696 -788.907288
v 164.425232 -83.7886963 -791.116516
v 125.405518 -93.365242 -795.479553
v 334.835205 111.559929 -909.48938
v 330.855164 127.024292 -886.088379
v 345.419067 97.5084915 -886.088379
v 320.567566 140.239563 -862.780029
v 338.371277 112.316498 -861.747559
v 348.892517 82.8352814 -862.780029
v 304.227112 151.158386 -839.759277
v 324.683228 124.722534 -837.93219
v 338.371277 96.9817047 -837.93219
v 345.419189 67.6771011 -839.759277
v 281.808716 159.619766 -817.231018
v 304.227112 134.842438 -814.420044
v 320.567566 108.507225 -813.498718
v 330.855347 80.8769379 -814.420044
v 334.835205 52.1545105 -817.231018
v 253.042664 165.308792 -795.479553
v 276.062195 142.458527 -791.116455
v 294.321716 117.504509 -788.907227
v 307.365417 91.0696793 -788.907227
v 314.867615 63.8140259 -791.116455
v 316.641174 36.4180222 -795.479553
v 85.3869476 58.1885681 -708.548523
v 110.119812 80.604866 -710.656067
v 60.6541595 80.604866 -710.656067
v 134.235352 102.461708 -716.92627
v 85.3869476 105.525871 -714.776428
v 36.5385895 102.461708 -716.92627
v 157.13147 123.213379 -727.202393
v 108.951843 128.354828 -723.278931
v 61.8220062 128.354828 -723.278931
v 13.6425018 123.213379 -727.202393
v 178.236572 142.341797 -741.228271
v 131.21759 149.020081 -735.727905
v 85.3869476 151.109619 -734.025269
v 39.5562592 149.020081 -735.727905
v -7.46269226 142.341797 -741.228271
v 197.023804 159.3694 -758.653381
v 152.037048 167.404633 -751.911865
v 107.53479 171.18309 -748.743958
v 63.23909 171.18309 -748.743958
v 18.7368317 167.404663 -751.911865
v -26.2499237 159.3694 -758.653381
v 213.02417 173.871048 -779.042908
v 171.185486 183.288452 -771.795349
v 128.472107 188.762466 -767.572388
v 85.3869476 190.558243 -766.185486
v 42.3017426 188.762466 -767.572388
v -0.411605835 183.288452 -771.795349
v -42.2502289 173.871048 -779.042908
v 125.405518 49.6262512 -710.656067
v 164.425232 41.2776794 -716.92627
v 153.755737 72.8165894 -714.776428
v 201.472046 33.3512192 -727.202393
v 194.00946 65.113205 -723.278931
v 179.445496 94.6290131 -723.278931
v 235.620911 26.0448341 -741.228271
v 230.736633 57.554863 -735.727905
v 219.592041 86.9027252 -734.025269
v 202.411682 114.959175 -735.727905
v 266.019226 19.5408592 -758.653381
v 263.722778 50.1974792 -751.911865
v 255.42804 79.2353516 -748.743958
v 241.739929 106.976189 -748.743958
v 222.530762 133.678802 -751.911865
v 291.908264 14.0016985 -779.042908
v 292.580811 43.1138535 -771.795349
v 287.28772 71.555336 -767.572388
v 276.567383 99.0929794 -766.185486
v 260.659729 125.520813 -767.572388
v 239.554382 150.579163 -771.795349
v 85.3869476 30.4804611 -710.656067
v 85.3869476 3.46389389 -716.92627
v 127.641174 19.8918381 -714.776428
v 85.3869476 -22.1865463 -727.202393
v 128.954407 -7.69802856 -723.278931
v 167.083313 10.5436993 -723.278931
v 85.3869476 -45.8305435 -741.228271
v 129.387207 -33.0346375 -735.727966
v 168.330261 -16.9861984 -734.025269
v 203.542969 2.44314957 -735.727905
v 85.3869476 -66.8778381 -758.653442
v 128.954407 -55.9662323 -751.911865
v 168.330261 -41.7983856 -748.744019
v 204.166199 -24.6536255 -748.744019
v 236.796631 -4.37202454 -751.911865
v 85.3869476 -84.8029327 -779.042908
v 127.641235 -76.2280197 -771.795349
v 167.083313 -64.1242142 -767.572388
v 203.542969 -48.9008026 -766.185547
v 236.796631 -30.7717896 -767.572388
v 266.466248 -9.81084442 -771.795349
v 45.3683929 49.6262512 -710.656067
v 6.34864807 41.2776794 -716.92627
v 43.1326447 19.8918381 -714.776428
v -30.6981049 33.3512192 -727.202393
v 3.69059753 10.5436993 -723.278931
v 41.8195343 -7.69802856 -723.278931
v -64.8469391 26.0448341 -741.228271
v -32.7689667 2.44314957 -735.727905
v 2.44364929 -16.9861984 -734.025269
v 41.386673 -33.0346375 -735.727966
v -95.245285 19.5408592 -758.653381
v -66.0226898 -4.37202454 -751.911865
v -33.3922882 -24.6536255 -748.744019
v 2.44364929 -41.7983856 -748.744019
v 41.8194733 -55.9662323 -751.911926
v -121.134308 14.0016985 -779.042908
v -95.6923218 -9.81084442 -771.795349
v -66.0226898 -30.7717896 -767.572388
v -32.7689667 -48.9008026 -766.185547
v 3.69059753 -64.1242142 -767.572388
v 43.1326447 -76.2280197 -771.795349
v 17.0180817 72.8165894 -714.776428
v -8.6716156 94.6290131 -723.278931
v -23.2355499 65.113205 -723.278931
v -31.6377411 114.959175 -735.727905
v -48.8181 86.9027252 -734.025269
v -59.9626617 57.554863 -735.727905
v -51.7568512 133.678802 -751.911865
v -70.9659882 106.976189 -748.743958
v -84.6540985 79.2353516 -748.743958
v -92.9488983 50.1974792 -751.911865
v -68.7804718 150.579163 -771.795227
v -89.8857574 125.520813 -767.572388
v -105.793411 99.0929794 -766.185486
v -116.513855 71.555336 -767.572388
v -121.806931 43.1138535 -771.795349
g 
f 3 1 2
f 5 2 4
f 6 3 5
f 8 4 7
f 9 5 8
f 10 6 9
f 12 7 11
f 13 8 12
f 14 9 13
f 15 10 14
f 17 11 16
f 18 12 17
f 19 13 18
f 20 14 19
f 21 15 20
f 23 16 22
f 24 17 23
f 25 18 24
f 26 19 25
f 27 20 26
f 28 21 27
f 30 22 29
f 31 23 30
f 32 24 31
f 33 25 32
f 34 26 33
f 35 27 34
f 36 28 35
f 3 2 5
f 5 4 8
f 6 5 9
f 8 7 12
f 9 8 13
f 10 9 14
f 12 11 17
f 13 12 18
f 14 13 19
f 15 14 20
f 17 16 23
f 18 17 24
f 19 18 25
f 20 19 26
f 21 20 27
f 23 22 30
f 24 23 31
f 25 24 32
f 26 25 33
f 27 26 34
f 28 27 35
f 37 1 3
f 38 3 6
f 39 37 38
f 40 6 10
f 41 38 40
f 42 39 41
f 43 10 15
f 44 40 43
f 45 41 44
f 46 42 45
f 47 15 21
f 48 43 47
f 49 44 48
f 50 45 49
f 51 46 50
f 52 21 28
f 53 47 52
f 54 48 53
f 55 49 54
f 56 50 55
f 57 51 56
f 58 28 36
f 59 52 58
f 60 53 59
f 61 54 60
f 62 55 61
f 63 56 62
f 64 57 63
f 37 3 38
f 38 6 40
f 39 38 41
f 40 10 43
f 41 40 44
f 42 41 45
f 43 15 47
f 44 43 48
f 45 44 49
f 46 45 50
f 47 21 52
f 48 47 53
f 49 48 54
f 50 49 55
f 51 50 56
f 52 28 58
f 53 52 59
f 54 53 60
f 55 54 61
f 56 55 62
f 57 56 63
f 65 1 37
f 66 37 39
f 67 65 66
f 68 39 42
f 69 66 68
f 70 67 69
f 71 42 46
f 72 68 71
f 73 69 72
f 74 70 73
f 75 46 51
f 76 71 75
f 77 72 76
f 78 73 77
f 79 74 78
f 80 51 57
f 81 75 80
f 82 76 81
f 83 77 82
f 84 78 83
f 85 79 84
f 86 57 64
f 87 80 86
f 88 81 87
f 89 82 88
f 90 83 89
f 91 84 90
f 92 85 91
f 65 37 66
f 66 39 68
f 67 66 69
f 68 42 71
f 69 68 72
f 70 69 73
f 71 46 75
f 72 71 76
f 73 72 77
f 74 73 78
f 75 51 80
f 76 75 81
f 77 76 82
f 78 77 83
f 79 78 84
f 80 57 86
f 81 80 87
f 82 81 88
f 83 82 89
f 84 83 90
f 85 84 91
f 93 1 65
f 94 65 67
f 95 93 94
f 96 67 70
f 97 94 96
f 98 95 97
f 99 70 74
f 100 96 99
f 101 97 100
f 102 98 101
f 103 74 79
f 104 99 103
f 105 100 104
f 106 101 105
f 107 102 106
f 108 79 85
f 109 103 108
f 110 104 109
f 111 105 110
f 112 106 111
f 113 107 112
f 114 85 92
f 115 108 114
f 116 109 115
f 117 110 116
f 118 111 117
f 119 112 118
f 120 113 119
f 93 65 94
f 94 67 96
f 95 94 97
f 96 70 99
f 97 96 100
f 98 97 101
f 99 74 103
f 100 99 104
f 101 100 105
f 102 101 106
f 103 79 108
f 104 103 109
f 105 104 110
f 106 105 111
f 107 106 112
f 108 85 114
f 109 108 115
f 110 109 116
f 111 110 117
f 112 111 118
f 113 112 119
f 2 1 93
f 121 93 95
f 4 2 121
f 122 95 98
f 123 121 122
f 7 4 123
f 124 98 102
f 125 122 124
f 126 123 125
f 11 7 126
f 127 102 107
f 128 124 127
f 129 125 128
f 130 126 129
f 16 11 130
f 131 107 113
f 132 127 131
f 133 128 132
f 134 129 133
f 135 130 134
f 22 16 135
f 136 113 120
f 137 131 136
f 138 132 137
f 139 133 138
f 140 134 139
f 141 135 140
f 29 22 141
f 2 93 121
f 121 95 122
f 4 121 123
f 122 98 124
f 123 122 125
f 7 123 126
f 124 102 127
f 125 124 128
f 126 125 129
f 11 126 130
f 127 107 131
f 128 127 132
f 129 128 133
f 130 129 134
f 16 130 135
f 131 113 136
f 132 131 137
f 133 132 138
f 134 133 139
f 135 134 140
f 22 135 141
f 142 29 141
f 143 141 140
f 144 142 143
f 145 140 139
f 146 143 145
f 147 144 146
f 148 139 138
f 149 145 148
f 150 146 149
f 151 147 150
f 152 138 137
f 153 148 152
f 154 149 153
f 155 150 154
f 156 151 155
f 157 137 136
f 158 152 157
f 159 153 158
f 160 154 159
f 161 155 160
f 162 156 161
f 163 136 120
f 164 157 163
f 165 158 164
f 166 159 165
f 167 160 166
f 168 161 167
f 169 162 168
f 142 141 143
f 143 140 145
f 144 143 146
f 145 139 148
f 146 145 149
f 147 146 150
f 148 138 152
f 149 148 153
f 150 149 154
f 151 150 155
f 152 137 157
f 153 152 158
f 154 153 159
f 155 154 160
f 156 155 161
f 157 136 163
f 158 157 164
f 159 158 165
f 160 159 166
f 161 160 167
f 162 161 168
f 170 120 119
f 171 119 118
f 172 170 171
f 173 118 117
f 174 171 173
f 175 172 174
f 176 117 116
f 177 173 176
f 178 174 177
f 179 175 178
f 180 116 115
f 181 176 180
f 182 177 181
f 183 178 182
f 184 179 183
f 185 115 114
f 186 180 185
f 187 181 186
f 188 182 187
f 189 183 188
f 190 184 189
f 191 114 92
f 192 185 191
f 193 186 192
f 194 187 193
f 195 188 194
f 196 189 195
f 197 190 196
f 170 119 171
f 171 118 173
f 172 171 174
f 173 117 176
f 174 173 177
f 175 174 178
f 176 116 180
f 177 176 181
f 178 177 182
f 179 178 183
f 180 115 185
f 181 180 186
f 182 181 187
f 183 182 188
f 184 183 189
f 185 114 191
f 186 185 192
f 187 186 193
f 188 187 194
f 189 188 195
f 190 189 196
f 198 92 91
f 199 91 90
f 200 198 199
f 201 90 89
f 202 199 201
f 203 200 202
f 204 89 88
f 205 201 204
f 206 202 205
f 207 203 206
f 208 88 87
f 209 204 208
f 210 205 209
f 211 206 210
f 212 207 211
f 213 87 86
f 214 208 213
f 215 209 214
f 216 210 215
f 217 211 216
f 218 212 217
f 219 86 64
f 220 213 219
f 221 214 220
f 222 215 221
f 223 216 222
f 224 217 223
f 225 218 224
f 198 91 199
f 199 90 201
f 200 199 202
f 201 89 204
f 202 201 205
f 203 202 206
f 204 88 208
f 205 204 209
f 206 205 210
f 207 206 211
f 208 87 213
f 209 208 214
f 210 209 215
f 211 210 216
f 212 211 217
f 213 86 219
f 214 213 220
f 215 214 221
f 216 215 222
f 217 216 223
f 218 217 224
f 226 64 63
f 227 63 62
f 228 226 227
f 229 62 61
f 230 227 229
f 231 228 230
f 232 61 60
f 233 229 232
f 234 230 233
f 235 231 234
f 236 60 59
f 237 232 236
f 238 233 237
f 239 234 238
f 240 235 239
f 241 59 58
f 242 236 241
f 243 237 242
f 244 238 243
f 245 239 244
f 246 240 245
f 247 58 36
f 248 241 247
f 249 242 248
f 250 243 249
f 251 244 250
f 252 245 251
f 253 246 252
f 226 63 227
f 227 62 229
f 228 227 230
f 229 61 232
f 230 229 233
f 231 230 234
f 232 60 236
f 233 232 237
f 234 233 238
f 235 234 239
f 236 59 241
f 237 236 242
f 238 237 243
f 239 238 244
f 240 239 245
f 241 58 247
f 242 241 248
f 243 242 249
f 244 243 250
f 245 244 251
f 246 245 252
f 254 36 35
f 255 35 34
f 256 254 255
f 257 34 33
f 258 255 257
f 259 256 258
f 260 33 32
f 261 257 260
f 262 258 261
f 263 259 262
f 264 32 31
f 265 260 264
f 266 261 265
f 267 262 266
f 268 263 267
f 269 31 30
f 270 264 269
f 271 265 270
f 272 266 271
f 273 267 272
f 274 268 273
f 275 30 29
f 276 269 275
f 277 270 276
f 278 271 277
f 279 272 278
f 280 273 279
f 281 274 280
f 254 35 255
f 255 34 257
f 256 255 258
f 257 33 260
f 258 257 261
f 259 258 262
f 260 32 264
f 261 260 265
f 262 261 266
f 263 262 267
f 264 31 269
f 265 264 270
f 266 265 271
f 267 266 272
f 268 267 273
f 269 30 275
f 270 269 276
f 271 270 277
f 272 271 278
f 273 272 279
f 274 273 280
f 275 29 142
f 282 142 144
f 276 275 282
f 283 144 147
f 284 282 283
f 277 276 284
f 285 147 151
f 286 283 285
f 287 284 286
f 278 277 287
f 288 151 156
f 289 285 288
f 290 286 289
f 291 287 290
f 279 278 291
f 292 156 162
f 293 288 292
f 294 289 293
f 295 290 294
f 296 291 295
f 280 279 296
f 297 162 169
f 298 292 297
f 299 293 298
f 300 294 299
f 301 295 300
f 302 296 301
f 281 280 302
f 275 142 282
f 282 144 283
f 276 282 284
f 283 147 285
f 284 283 286
f 277 284 287
f 285 151 288
f 286 285 289
f 287 286 290
f 278 287 291
f 288 156 292
f 289 288 293
f 290 289 294
f 291 290 295
f 279 291 296
f 292 162 297
f 293 292 298
f 294 293 299
f 295 294 300
f 296 295 301
f 280 296 302
f 163 120 170
f 303 170 172
f 164 163 303
f 304 172 175
f 305 303 304
f 165 164 305
f 306 175 179
f 307 304 306
f 308 305 307
f 166 165 308
f 309 179 184
f 310 306 309
f 311 307 310
f 312 308 311
f 167 166 312
f 313 184 190
f 314 309 313
f 315 310 314
f 316 311 315
f 317 312 316
f 168 167 317
f 318 190 197
f 319 313 318
f 320 314 319
f 321 315 320
f 322 316 321
f 323 317 322
f 169 168 323
f 163 170 303
f 303 172 304
f 164 303 305
f 304 175 306
f 305 304 307
f 165 305 308
f 306 179 309
f 307 306 310
f 308 307 311
f 166 308 312
f 309 184 313
f 310 309 314
f 311 310 315
f 312 311 316
f 167 312 317
f 313 190 318
f 314 313 319
f 315 314 320
f 316 315 321
f 317 316 322
f 168 317 323
f 191 92 198
f 324 198 200
f 192 191 324
f 325 200 203
f 326 324 325
f 193 192 326
f 327 203 207
f 328 325 327
f 329 326 328
f 194 193 329
f 330 207 212
f 331 327 330
f 332 328 331
f 333 329 332
f 195 194 333
f 334 212 218
f 335 330 334
f 336 331 335
f 337 332 336
f 338 333 337
f 196 195 338
f 339 218 225
f 340 334 339
f 341 335 340
f 342 336 341
f 343 337 342
f 344 338 343
f 197 196 344
f 191 198 324
f 324 200 325
f 192 324 326
f 325 203 327
f 326 325 328
f 193 326 329
f 327 207 330
f 328 327 331
f 329 328 332
f 194 329 333
f 330 212 334
f 331 330 335
f 332 331 336
f 333 332 337
f 195 333 338
f 334 218 339
f 335 334 340
f 336 335 341
f 337 336 342
f 338 337 343
f 196 338 344
f 219 64 226
f 345 226 228
f 220 219 345
f 346 228 231
f 347 345 346
f 221 220 347
f 348 231 235
f 349 346 348
f 350 347 349
f 222 221 350
f 351 235 240
f 352 348 351
f 353 349 352
f 354 350 353
f 223 222 354
f 355 240 246
f 356 351 355
f 357 352 356
f 358 353 357
f 359 354 358
f 224 223 359
f 360 246 253
f 361 355 360
f 362 356 361
f 363 357 362
f 364 358 363
f 365 359 364
f 225 224 365
f 219 226 345
f 345 228 346
f 220 345 347
f 346 231 348
f 347 346 349
f 221 347 350
f 348 235 351
f 349 348 352
f 350 349 353
f 222 350 354
f 351 240 355
f 352 351 356
f 353 352 357
f 354 353 358
f 223 354 359
f 355 246 360
f 356 355 361
f 357 356 362
f 358 357 363
f 359 358 364
f 224 359 365
f 247 36 254
f 366 254 256
f 248 247 366
f 367 256 259
f 368 366 367
f 249 248 368
f 369 259 263
f 370 367 369
f 371 368 370
f 250 249 371
f 372 263 268
f 373 369 372
f 374 370 373
f 375 371 374
f 251 250 375
f 376 268 274
f 377 372 376
f 378 373 377
f 379 374 378
f 380 375 379
f 252 251 380
f 381 274 281
f 382 376 381
f 383 377 382
f 384 378 383
f 385 379 384
f 386 380 385
f 253 252 386
f 247 254 366
f 366 256 367
f 248 366 368
f 367 259 369
f 368 367 370
f 249 368 371
f 369 263 372
f 370 369 373
f 371 370 374
f 250 371 375
f 372 268 376
f 373 372 377
f 374 373 378
f 375 374 379
f 251 375 380
f 376 274 381
f 377 376 382
f 378 377 383
f 379 378 384
f 380 379 385
f 252 380 386
f 389 387 388
f 391 388 390
f 392 389 391
f 394 390 393
f 395 391 394
f 396 392 395
f 398 393 397
f 399 394 398
f 400 395 399
f 401 396 400
f 403 397 402
f 404 398 403
f 405 399 404
f 406 400 405
f 407 401 406
f 409 402 408
f 410 403 409
f 411 404 410
f 412 405 411
f 413 406 412
f 414 407 413
f 302 408 281
f 301 409 302
f 300 410 301
f 299 411 300
f 298 412 299
f 297 413 298
f 169 414 297
f 389 388 391
f 391 390 394
f 392 391 395
f 394 393 398
f 395 394 399
f 396 395 400
f 398 397 403
f 399 398 404
f 400 399 405
f 401 400 406
f 403 402 409
f 404 403 410
f 405 404 411
f 406 405 412
f 407 406 413
f 409 408 302
f 410 409 301
f 411 410 300
f 412 411 299
f 413 412 298
f 414 413 297
f 388 387 415
f 417 415 416
f 390 388 417
f 419 416 418
f 420 417 419
f 393 390 420
f 422 418 421
f 423 419 422
f 424 420 423
f 397 393 424
f 426 421 425
f 427 422 426
f 428 423 427
f 429 424 428
f 402 397 429
f 431 425 430
f 432 426 431
f 433 427 432
f 434 428 433
f 435 429 434
f 408 402 435
f 386 430 253
f 385 431 386
f 384 432 385
f 383 433 384
f 382 434 383
f 381 435 382
f 281 408 381
f 388 415 417
f 417 416 419
f 390 417 420
f 419 418 422
f 420 419 423
f 393 420 424
f 422 421 426
f 423 422 427
f 424 423 428
f 397 424 429
f 426 425 431
f 427 426 432
f 428 427 433
f 429 428 434
f 402 429 435
f 431 430 386
f 432 431 385
f 433 432 384
f 434 433 383
f 435 434 382
f 408 435 381
f 415 387 436
f 438 436 437
f 416 415 438
f 440 437 439
f 441 438 440
f 418 416 441
f 443 439 442
f 444 440 443
f 445 441 444
f 421 418 445
f 447 442 446
f 448 443 447
f 449 444 448
f 450 445 449
f 425 421 450
f 452 446 451
f 453 447 452
f 454 448 453
f 455 449 454
f 456 450 455
f 430 425 456
f 365 451 225
f 364 452 365
f 363 453 364
f 362 454 363
f 361 455 362
f 360 456 361
f 253 430 360
f 415 436 438
f 438 437 440
f 416 438 441
f 440 439 443
f 441 440 444
f 418 441 445
f 443 442 447
f 444 443 448
f 445 444 449
f 421 445 450
f 447 446 452
f 448 447 453
f 449 448 454
f 450 449 455
f 425 450 456
f 452 451 365
f 453 452 364
f 454 453 363
f 455 454 362
f 456 455 361
f 430 456 360
f 436 387 457
f 459 457 458
f 437 436 459
f 461 458 460
f 462 459 461
f 439 437 462
f 464 460 463
f 465 461 464
f 466 462 465
f 442 439 466
f 468 463 467
f 469 464 468
f 470 465 469
f 471 466 470
f 446 442 471
f 473 467 472
f 474 468 473
f 475 469 474
f 476 470 475
f 477 471 476
f 451 446 477
f 344 472 197
f 343 473 344
f 342 474 343
f 341 475 342
f 340 476 341
f 339 477 340
f 225 451 339
f 436 457 459
f 459 458 461
f 437 459 462
f 461 460 464
f 462 461 465
f 439 462 466
f 464 463 468
f 465 464 469
f 466 465 470
f 442 466 471
f 468 467 473
f 469 468 474
f 470 469 475
f 471 470 476
f 446 471 477
f 473 472 344
f 474 473 343
f 475 474 342
f 476 475 341
f 477 476 340
f 451 477 339
f 457 387 389
f 478 389 392
f 458 457 478
f 479 392 396
f 480 478 479
f 460 458 480
f 481 396 401
f 482 479 481
f 483 480 482
f 463 460 483
f 484 401 407
f 485 481 484
f 486 482 485
f 487 483 486
f 467 463 487
f 488 407 414
f 489 484 488
f 490 485 489
f 491 486 490
f 492 487 491
f 472 467 492
f 323 414 169
f 322 488 323
f 321 489 322
f 320 490 321
f 319 491 320
f 318 492 319
f 197 472 318
f 457 389 478
f 478 392 479
f 458 478 480
f 479 396 481
f 480 479 482
f 460 480 483
f 481 401 484
f 482 481 485
f 483 482 486
f 463 483 487
f 484 407 488
f 485 484 489
f 486 485 490
f 487 486 491
f 467 487 492
f 488 414 323
f 489 488 322
f 490 489 321
f 491 490 320
f 492 491 319
f 472 492 318
