# File exported by Houdini 20.5.445 (www.sidefx.com)
# 492 points
# 2940 vertices
# 980 primitives
# Bounds: [-100.181976, -198.278687, -1042.90503] to [270.955902, 314.655792, -711.895996]
g 
v 85.3870087 58.1885529 -1042.90503
v 85.3870087 98.758049 -1040.83911
v 113.271576 70.7252808 -1040.83911
v 85.3870087 138.315002 -1034.69336
v 114.829437 114.261642 -1036.80054
v 140.460236 82.9490204 -1034.69336
v 85.3870087 175.871796 -1024.62085
v 115.744476 154.658081 -1028.4668
v 142.312347 127.948997 -1028.4668
v 166.274139 94.5547562 -1024.62085
v 85.3870087 210.490753 -1010.87323
v 116.046051 191.755249 -1016.26447
v 143.181244 168.257568 -1017.93341
v 167.717072 139.80957 -1016.26447
v 190.068817 105.252609 -1010.87323
v 85.3870087 241.307678 -993.793518
v 115.744476 225.331207 -1000.40143
v 143.181244 204.586945 -1003.50653
v 168.151459 179.484009 -1003.50653
v 190.888031 149.788208 -1000.40143
v 211.250092 114.775528 -993.79364
v 85.3870087 267.553101 -973.808289
v 114.829437 254.997925 -980.91217
v 142.312347 237.275879 -985.051331
v 167.717072 214.986115 -986.410706
v 190.888031 188.442078 -985.051331
v 211.561615 157.751587 -980.91217
v 229.289459 122.885864 -973.808289
v 85.3870087 288.57196 -951.416321
v 113.271576 280.089783 -957.697449
v 140.460297 266.068146 -961.97406
v 166.274139 246.856934 -964.139465
v 190.068817 222.935852 -964.139465
v 211.250092 194.902039 -961.97406
v 229.289459 163.455383 -957.697449
v 243.736298 129.381073 -951.416443
v 102.620636 25.3671341 -1040.83911
v 133.025848 36.7705765 -1036.80054
v 119.424103 -6.63505554 -1034.69336
v 161.074371 48.0496368 -1028.4668
v 150.926239 4.83333015 -1028.4668
v 135.378021 -37.0191879 -1024.62085
v 186.665375 59.1164017 -1016.26447
v 178.900055 16.1459713 -1017.93341
v 166.928925 -24.9335403 -1016.26447
v 150.083832 -65.0264816 -1010.87323
v 209.649994 69.8888702 -1000.40143
v 203.87027 27.372345 -1003.50653
v 194.332489 -13.2450562 -1003.50653
v 180.947723 -52.3423767 -1000.40143
v 163.174652 -89.9579086 -993.79364
v 229.758026 80.2605362 -980.91217
v 226.069855 38.6172791 -985.051331
v 218.599945 -1.70269966 -986.410706
v 207.515656 -40.397644 -985.051331
v 192.809662 -77.087471 -980.91217
v 174.323578 -111.190865 -973.808289
v 246.523102 90.0643997 -957.697449
v 245.287323 49.9518738 -961.97406
v 240.059845 10.0448589 -964.139465
v 230.9711 -28.6603737 -964.139465
v 218.247955 -65.1974411 -961.97406
v 202.208221 -98.6542206 -957.697449
v 183.252167 -128.195557 -951.416443
v 68.1533661 25.3671341 -1040.83911
v 85.3870087 -11.1215401 -1036.80054
v 51.3498383 -6.63505554 -1034.69336
v 101.806854 -44.5471802 -1028.4668
v 68.9671173 -44.5471802 -1028.4668
v 35.3959808 -37.0191879 -1024.62085
v 117.321442 -74.8047333 -1016.26447
v 85.3870087 -77.8641357 -1017.93341
v 53.4525299 -74.8047333 -1016.26447
v 20.6901093 -65.0264816 -1010.87323
v 131.828217 -101.722916 -1000.40143
v 100.819427 -107.255241 -1003.50653
v 69.9545441 -107.255241 -1003.50653
v 38.9456635 -101.722916 -1000.40143
v 7.59928894 -89.9579086 -993.79364
v 145.170746 -124.979607 -980.91217
v 115.408417 -132.994537 -985.051331
v 85.3870087 -135.62384 -986.410706
v 55.3655548 -132.994537 -985.051331
v 25.6031952 -124.979607 -980.91217
v -3.54960632 -111.190865 -973.808289
v 157.089935 -144.01236 -957.697449
v 129.137482 -154.781586 -961.97406
v 100.092865 -160.234314 -964.139465
v 70.6811066 -160.234314 -964.139465
v 41.6364594 -154.781586 -961.97406
v 13.6840363 -144.01236 -957.697449
v -12.4782257 -128.195557 -951.416443
v 57.5023651 70.7252808 -1040.83911
v 37.7481232 36.7705765 -1036.80054
v 30.313736 82.9490204 -1034.69336
v 19.847702 4.83333015 -1028.4668
v 9.69966125 48.0496368 -1028.4668
v 4.49983215 94.5547562 -1024.62085
v 3.84510803 -24.9335403 -1016.26447
v -8.12608337 16.1459713 -1017.93341
v -15.8914948 59.1164017 -1016.26447
v -19.2947845 105.252609 -1010.87323
v -10.1737518 -52.3423767 -1000.40143
v -23.5585175 -13.2450562 -1003.50653
v -33.0962982 27.372345 -1003.50653
v -38.8760529 69.8888702 -1000.40143
v -40.4761505 114.775528 -993.79364
v -22.0356903 -77.087471 -980.91217
v -36.741684 -40.397644 -985.051331
v -47.826004 -1.70269966 -986.410706
v -55.2959442 38.6172791 -985.051331
v -58.9840851 80.2605362 -980.91217
v -58.5154572 122.885864 -973.808289
v -31.4342499 -98.6542206 -957.697449
v -47.4740143 -65.1974411 -961.97406
v -60.1970978 -28.6603737 -964.139465
v -69.2858429 10.0448589 -964.139465
v -74.5133209 49.9518738 -961.97406
v -75.7490997 90.0643997 -957.697449
v -72.9622955 129.381073 -951.416443
v 55.9445343 114.261642 -1036.80054
v 28.4615936 127.948997 -1028.4668
v 55.0295258 154.658081 -1028.4668
v 3.05686951 139.80957 -1016.26447
v 27.5927277 168.257568 -1017.93341
v 54.7279205 191.755249 -1016.26447
v -20.1140594 149.788208 -1000.40143
v 2.62251282 179.484009 -1003.50653
v 27.5927277 204.586945 -1003.50653
v 55.0294952 225.331207 -1000.40143
v -40.7876434 157.751587 -980.91217
v -20.1140594 188.442078 -985.051331
v 3.05686951 214.986115 -986.410706
v 28.4615936 237.275879 -985.051331
v 55.9445343 254.997925 -980.91217
v -58.5153961 163.455383 -957.697449
v -40.4761505 194.902039 -961.97406
v -19.2947845 222.935852 -964.139465
v 4.49983215 246.856934 -964.139465
v 30.313736 266.068146 -961.97406
v 57.5023651 280.089783 -957.697449
v 68.1533356 300.374542 -931.6297
v 37.7480927 289.652924 -936.377258
v 51.3498383 306.131317 -910.489197
v 9.69966125 273.007935 -939.132385
v 19.847702 292.334839 -914.295593
v 35.3959808 305.698486 -888.522644
v -15.8914642 251.073151 -940.035583
v -8.12605286 272.61322 -916.086365
v 3.84510803 288.661377 -891.731262
v 20.6901093 299.086823 -866.278381
v -38.8760223 224.174072 -939.132385
v -33.0962372 247.510315 -916.086365
v -23.5584869 265.674896 -892.743225
v -10.1737213 278.837433 -868.884949
v 7.59928894 286.461426 -844.31189
v -58.9840546 192.406708 -936.377258
v -55.2958832 216.79184 -914.295593
v -47.8259125 236.715668 -891.731262
v -36.7416229 252.128326 -868.884949
v -22.0356598 262.774658 -845.947998
v -3.54960632 268.137543 -823.171387
v -75.7490692 155.707306 -931.6297
v -74.5132599 179.599213 -910.489197
v -69.2857819 200.460327 -888.522644
v -60.1970367 217.769775 -866.278381
v -47.4739838 231.09549 -844.31189
v -31.4342194 240.104706 -823.171387
v -12.4782257 244.572632 -803.384644
v -86.4000702 110.34919 -931.6297
v -88.4265442 67.0234375 -936.377258
v -95.5494232 90.0150604 -910.489197
v -85.6534271 24.9687881 -939.132385
v -95.8014374 44.2956924 -914.295593
v -100.181976 68.8864212 -888.522644
v -78.4850311 -15.4868011 -940.035583
v -90.8905487 1.38858604 -916.086365
v -98.2216492 22.1014633 -891.731262
v -100.181976 47.4906998 -866.278381
v -67.0991364 -54.0461884 -939.132385
v -81.3527679 -39.2288513 -916.086365
v -90.8905487 -21.0642052 -892.743225
v -95.8014069 0.617271423 -868.884949
v -95.5494232 26.3620548 -844.31189
v -51.4781342 -90.3245697 -936.377258
v -67.0991058 -77.9355392 -914.295593
v -78.4850006 -61.9484787 -891.731262
v -85.6533508 -42.5990372 -868.884949
v -88.4265442 -19.9564934 -845.947998
v -86.4000702 6.02793503 -823.171387
v -31.4342194 -123.727577 -931.6297
v -47.4739838 -114.718376 -910.489197
v -60.1970367 -101.39267 -888.522644
v -69.2857819 -84.0832062 -866.278381
v -74.5132599 -63.2220993 -844.31189
v -75.7490692 -39.3302155 -823.171387
v -72.9622955 -13.003952 -803.384644
v -3.54960632 -151.760406 -931.6297
v 25.6032257 -167.815643 -936.377258
v 7.59928894 -170.084351 -910.489197
v 55.3655548 -177.161835 -939.132385
v 38.945694 -184.544098 -914.295593
v 20.6901093 -182.709686 -888.522644
v 85.3870087 -180.229889 -940.035583
v 69.9545441 -191.340424 -916.086365
v 53.4525299 -194.587341 -891.731262
v 35.3959808 -189.32132 -866.278381
v 115.408417 -177.161835 -939.132385
v 100.819427 -191.340424 -916.086365
v 85.3870087 -198.278687 -892.743225
v 68.9671173 -198.04129 -868.884949
v 51.3498383 -189.754211 -844.31189
v 145.170746 -167.815643 -936.377258
v 131.828217 -184.544098 -914.295593
v 117.321442 -194.587341 -891.731262
v 101.806854 -198.04129 -868.884949
v 85.3870087 -194.693817 -845.947998
v 68.1533356 -183.997406 -823.171387
v 174.323578 -151.760406 -931.6297
v 163.174652 -170.084351 -910.489197
v 150.083832 -182.709686 -888.522644
v 135.378021 -189.32132 -866.278381
v 119.424103 -189.754211 -844.31189
v 102.620636 -183.997406 -823.171387
v 85.3870087 -172.194885 -803.384766
v 202.20816 -123.727577 -931.6297
v 222.252106 -90.3245697 -936.377258
v 218.247955 -114.718376 -910.489197
v 237.873138 -54.0461884 -939.132385
v 237.873138 -77.9355392 -914.295593
v 230.971039 -101.39267 -888.522644
v 249.259064 -15.4868011 -940.035583
v 252.12674 -39.2288513 -916.086365
v 249.258942 -61.9484787 -891.731262
v 240.059723 -84.0832062 -866.278381
v 256.427338 24.9687881 -939.132385
v 261.66452 1.38858604 -916.086365
v 261.66452 -21.0642052 -892.743225
v 256.427338 -42.5990372 -868.884949
v 245.287201 -63.2220993 -844.31189
v 259.20047 67.0234375 -936.377258
v 266.575409 44.2956924 -914.295593
v 268.995575 22.1014633 -891.731262
v 266.575409 0.617271423 -868.884949
v 259.20047 -19.9564934 -845.947998
v 246.523041 -39.3302155 -823.171387
v 257.174042 110.34919 -931.6297
v 266.323395 90.0150604 -910.489197
v 270.955902 68.8864212 -888.522644
v 270.955902 47.4906998 -866.278381
v 266.323395 26.3620548 -844.31189
v 257.174042 6.02793503 -823.171387
v 243.736298 -13.003952 -803.384644
v 246.523041 155.707306 -931.6297
v 229.758026 192.406708 -936.377258
v 245.287201 179.599213 -910.489197
v 209.649994 224.174072 -939.132385
v 226.069855 216.79184 -914.295593
v 240.059723 200.460327 -888.522644
v 186.665375 251.073151 -940.035583
v 203.870209 247.510315 -916.086365
v 218.599884 236.715668 -891.731262
v 230.971039 217.769775 -866.278381
v 161.074371 273.007935 -939.132385
v 178.900055 272.61322 -916.086365
v 194.332428 265.674896 -892.743225
v 207.515594 252.128326 -868.884949
v 218.247955 231.09549 -844.31189
v 133.025848 289.652924 -936.377258
v 150.926239 292.334839 -914.295593
v 166.928864 288.661377 -891.731262
v 180.947662 278.837433 -868.884949
v 192.809601 262.774658 -845.947998
v 202.20816 240.104706 -823.171387
v 102.620636 300.374542 -931.6297
v 119.424103 306.131317 -910.489197
v 135.378021 305.698486 -888.522644
v 150.083832 299.086823 -866.278381
v 163.174652 286.461426 -844.31189
v 174.323578 268.137543 -823.171387
v 183.252167 244.572632 -803.384644
v 85.3870087 311.070923 -908.85321
v 68.9671173 314.418488 -885.916077
v 101.806854 314.418488 -885.916077
v 53.4525299 310.964417 -863.069824
v 85.3870087 314.655792 -862.057983
v 117.321442 310.964417 -863.069824
v 38.945694 300.921143 -840.505493
v 69.9545441 307.717529 -838.714722
v 100.819427 307.717529 -838.714722
v 131.828217 300.921143 -840.505493
v 25.6032257 284.192719 -818.423828
v 55.3655548 293.53891 -815.668701
v 85.3870087 296.607025 -814.765503
v 115.408417 293.53891 -815.668701
v 145.170746 284.192719 -818.423828
v 13.6840363 260.389465 -797.103638
v 41.6364594 271.158661 -792.827026
v 70.6811066 276.611389 -790.661621
v 100.092865 276.611389 -790.661621
v 129.137482 271.158661 -792.827026
v 157.089935 260.389465 -797.103638
v -88.4265442 136.333618 -908.85321
v -95.8014069 115.759811 -885.916077
v -85.6533508 158.976135 -885.916077
v -98.2216492 94.2756577 -863.069824
v -90.8905487 137.441315 -862.057983
v -78.4850006 178.325623 -863.069824
v -95.8014374 72.0814362 -840.505493
v -90.8905487 114.988503 -838.714722
v -81.3527679 155.605988 -838.714722
v -67.0991058 194.312622 -840.505493
v -88.4265442 49.3536835 -818.423828
v -85.6534271 91.4082947 -815.668701
v -78.4850311 131.863892 -814.765503
v -67.0991364 170.423279 -815.668701
v -51.4781342 206.701691 -818.423828
v -75.7490997 26.3126755 -797.103638
v -74.5133209 66.4252472 -792.827026
v -69.2858429 106.332268 -790.661621
v -60.1970978 145.037506 -790.661621
v -47.4740143 181.574554 -792.827026
v -31.4342499 215.031342 -797.103638
v -22.0356598 -146.397552 -908.85321
v -10.1737213 -162.460358 -885.916077
v -36.7416229 -135.751221 -885.916077
v 3.84510803 -172.284332 -863.069824
v -23.5584869 -149.297821 -862.057983
v -47.8259125 -120.33857 -863.069824
v 19.847702 -175.957733 -840.505493
v -8.12605286 -156.236115 -838.714722
v -33.0962372 -131.133179 -838.714722
v -55.2958832 -100.41478 -840.505493
v 37.7480927 -173.275848 -818.423828
v 9.69966125 -156.630829 -815.668701
v -15.8914642 -134.696075 -814.765503
v -38.8760223 -107.797035 -815.668701
v -58.9840546 -76.0295639 -818.423828
v 57.5023651 -163.712708 -797.103638
v 30.313736 -149.69104 -792.827026
v 4.49983215 -130.479858 -790.661743
v -19.2947845 -106.558739 -790.661743
v -40.4761505 -78.5249557 -792.827026
v -58.5153961 -47.07827 -797.103638
v 192.809662 -146.397644 -908.85321
v 207.515594 -135.751221 -885.916077
v 180.947662 -162.460358 -885.916077
v 218.599884 -120.33857 -863.069824
v 194.332428 -149.297821 -862.057983
v 166.928864 -172.284332 -863.069824
v 226.069855 -100.41478 -840.505493
v 203.870209 -131.133179 -838.714722
v 178.900055 -156.236115 -838.714722
v 150.926239 -175.957733 -840.505493
v 229.757965 -76.0295639 -818.423828
v 209.649994 -107.797035 -815.668701
v 186.665375 -134.696075 -814.765503
v 161.074371 -156.630829 -815.668701
v 133.025848 -173.275848 -818.423828
v 229.289459 -47.07827 -797.103638
v 211.250092 -78.5249557 -792.827026
v 190.068817 -106.558739 -790.661743
v 166.274139 -130.479858 -790.661743
v 140.460297 -149.69104 -792.827026
v 113.271576 -163.712708 -797.103638
v 259.20047 136.333618 -908.85321
v 256.427338 158.976135 -885.916077
v 266.575409 115.759811 -885.916077
v 249.258942 178.325623 -863.069824
v 261.66452 137.441315 -862.057983
v 268.995575 94.2756577 -863.069824
v 237.873077 194.312622 -840.505493
v 252.12674 155.605988 -838.714722
v 261.66452 114.988503 -838.714722
v 266.575409 72.0814362 -840.505493
v 222.252106 206.701599 -818.423828
v 237.873138 170.423279 -815.668701
v 249.259064 131.863892 -814.765503
v 256.427338 91.4082947 -815.668701
v 259.20047 49.3536835 -818.423828
v 202.208221 215.031342 -797.103638
v 218.247955 181.574554 -792.827026
v 230.9711 145.037506 -790.661621
v 240.059845 106.332268 -790.661621
v 245.287323 66.4252472 -792.827026
v 246.523102 26.3126755 -797.103638
v 85.3870087 58.1885529 -711.895996
v 102.620636 91.0099564 -713.961792
v 68.1533661 91.0099564 -713.961792
v 119.424103 123.012177 -720.107666
v 85.3870087 127.498665 -718.000488
v 51.3498383 123.012177 -720.107666
v 135.378021 153.396271 -730.180176
v 101.806854 160.924316 -726.334351
v 68.9671173 160.924316 -726.334351
v 35.3959808 153.396271 -730.180176
v 150.083832 181.403625 -743.927856
v 117.321442 191.181824 -738.536621
v 85.3870087 194.241302 -736.867676
v 53.4525299 191.181824 -738.536621
v 20.6901093 181.403625 -743.927856
v 163.174652 206.335052 -761.007446
v 131.828217 218.100006 -754.399658
v 100.819427 223.632355 -751.294556
v 69.9545441 223.632355 -751.294556
v 38.9456635 218.100037 -754.399658
v 7.59928894 206.335052 -761.007446
v 174.323578 227.568024 -780.99292
v 145.170746 241.356689 -773.888916
v 115.408417 249.371674 -769.749756
v 85.3870087 252.000946 -768.390381
v 55.3655548 249.371674 -769.749756
v 25.6031952 241.356689 -773.888916
v -3.54960632 227.568024 -780.99292
v 113.271576 45.6518326 -713.961792
v 140.460236 33.428093 -720.107666
v 133.025848 79.6065445 -718.000488
v 166.274139 21.8223686 -730.180176
v 161.074371 68.327446 -726.334351
v 150.926239 111.543793 -726.334351
v 190.068817 11.1245108 -743.927856
v 186.665375 57.2607117 -738.536621
v 178.900055 100.23111 -736.867676
v 166.928925 141.310669 -738.536621
v 211.250092 1.60155106 -761.007446
v 209.649994 46.4882507 -754.399658
v 203.87027 89.0047379 -751.294556
v 194.332489 129.622177 -751.294556
v 180.947723 168.719482 -754.399658
v 229.289459 -6.50878906 -780.99292
v 229.758026 36.1165771 -773.888916
v 226.069855 77.7598419 -769.749756
v 218.599945 118.079819 -768.390381
v 207.515656 156.77478 -769.749756
v 192.809662 193.4646 -773.888916
v 85.3870087 17.6190414 -713.961792
v 85.3870087 -21.9379044 -720.107666
v 114.829437 2.11548424 -718.000488
v 85.3870087 -59.4947128 -730.180176
v 115.744476 -38.2809906 -726.334351
v 142.312347 -11.5718651 -726.334351
v 85.3870087 -94.1136627 -743.927856
v 116.046051 -75.3781357 -738.536621
v 143.181244 -51.8805008 -736.867676
v 167.717072 -23.4324493 -738.536621
v 85.3870087 -124.93058 -761.007568
v 115.744476 -108.954094 -754.399658
v 143.181244 -88.2097931 -751.294678
v 168.151459 -63.1068726 -751.294678
v 190.888031 -33.4111328 -754.399658
v 85.3870087 -151.175995 -780.99292
v 114.829437 -138.620819 -773.888916
v 142.312347 -120.898811 -769.749756
v 167.717072 -98.6090622 -768.390381
v 190.888031 -72.0649414 -769.749756
v 211.561615 -41.3745193 -773.888916
v 57.5023651 45.6518326 -713.961792
v 30.313736 33.428093 -720.107666
v 55.9445343 2.11548424 -718.000488
v 4.49983215 21.8223686 -730.180176
v 28.4615936 -11.5718651 -726.334351
v 55.0295258 -38.2809906 -726.334351
v -19.2947845 11.1245108 -743.927856
v 3.05686951 -23.4324493 -738.536621
v 27.5927277 -51.8805008 -736.867676
v 54.7279205 -75.3781357 -738.536621
v -40.4761505 1.60155106 -761.007446
v -20.1140594 -33.4111328 -754.399658
v 2.62251282 -63.1068726 -751.294678
v 27.5927277 -88.2097931 -751.294678
v 55.0294952 -108.954094 -754.39978
v -58.5154572 -6.50878906 -780.99292
v -40.7876434 -41.3745193 -773.888916
v -20.1140594 -72.0649414 -769.749756
v 3.05686951 -98.6090622 -768.390381
v 28.4615936 -120.898811 -769.749756
v 55.9445343 -138.620819 -773.888916
v 37.7481232 79.6065445 -718.000488
v 19.847702 111.543793 -726.334351
v 9.69966125 68.327446 -726.334351
v 3.84510803 141.310669 -738.536621
v -8.12608337 100.23111 -736.867676
v -15.8914948 57.2607117 -738.536621
v -10.1737518 168.719482 -754.399658
v -23.5585175 129.622177 -751.294556
v -33.0962982 89.0047379 -751.294556
v -38.8760529 46.4882507 -754.399658
v -22.0356903 193.4646 -773.888916
v -36.741684 156.77478 -769.749756
v -47.826004 118.079819 -768.390381
v -55.2959442 77.7598419 -769.749756
v -58.9840851 36.1165771 -773.888916
g 
f 3 1 2
f 5 2 4
f 6 3 5
f 8 4 7
f 9 5 8
f 10 6 9
f 12 7 11
f 13 8 12
f 14 9 13
f 15 10 14
f 17 11 16
f 18 12 17
f 19 13 18
f 20 14 19
f 21 15 20
f 23 16 22
f 24 17 23
f 25 18 24
f 26 19 25
f 27 20 26
f 28 21 27
f 30 22 29
f 31 23 30
f 32 24 31
f 33 25 32
f 34 26 33
f 35 27 34
f 36 28 35
f 3 2 5
f 5 4 8
f 6 5 9
f 8 7 12
f 9 8 13
f 10 9 14
f 12 11 17
f 13 12 18
f 14 13 19
f 15 14 20
f 17 16 23
f 18 17 24
f 19 18 25
f 20 19 26
f 21 20 27
f 23 22 30
f 24 23 31
f 25 24 32
f 26 25 33
f 27 26 34
f 28 27 35
f 37 1 3
f 38 3 6
f 39 37 38
f 40 6 10
f 41 38 40
f 42 39 41
f 43 10 15
f 44 40 43
f 45 41 44
f 46 42 45
f 47 15 21
f 48 43 47
f 49 44 48
f 50 45 49
f 51 46 50
f 52 21 28
f 53 47 52
f 54 48 53
f 55 49 54
f 56 50 55
f 57 51 56
f 58 28 36
f 59 52 58
f 60 53 59
f 61 54 60
f 62 55 61
f 63 56 62
f 64 57 63
f 37 3 38
f 38 6 40
f 39 38 41
f 40 10 43
f 41 40 44
f 42 41 45
f 43 15 47
f 44 43 48
f 45 44 49
f 46 45 50
f 47 21 52
f 48 47 53
f 49 48 54
f 50 49 55
f 51 50 56
f 52 28 58
f 53 52 59
f 54 53 60
f 55 54 61
f 56 55 62
f 57 56 63
f 65 1 37
f 66 37 39
f 67 65 66
f 68 39 42
f 69 66 68
f 70 67 69
f 71 42 46
f 72 68 71
f 73 69 72
f 74 70 73
f 75 46 51
f 76 71 75
f 77 72 76
f 78 73 77
f 79 74 78
f 80 51 57
f 81 75 80
f 82 76 81
f 83 77 82
f 84 78 83
f 85 79 84
f 86 57 64
f 87 80 86
f 88 81 87
f 89 82 88
f 90 83 89
f 91 84 90
f 92 85 91
f 65 37 66
f 66 39 68
f 67 66 69
f 68 42 71
f 69 68 72
f 70 69 73
f 71 46 75
f 72 71 76
f 73 72 77
f 74 73 78
f 75 51 80
f 76 75 81
f 77 76 82
f 78 77 83
f 79 78 84
f 80 57 86
f 81 80 87
f 82 81 88
f 83 82 89
f 84 83 90
f 85 84 91
f 93 1 65
f 94 65 67
f 95 93 94
f 96 67 70
f 97 94 96
f 98 95 97
f 99 70 74
f 100 96 99
f 101 97 100
f 102 98 101
f 103 74 79
f 104 99 103
f 105 100 104
f 106 101 105
f 107 102 106
f 108 79 85
f 109 103 108
f 110 104 109
f 111 105 110
f 112 106 111
f 113 107 112
f 114 85 92
f 115 108 114
f 116 109 115
f 117 110 116
f 118 111 117
f 119 112 118
f 120 113 119
f 93 65 94
f 94 67 96
f 95 94 97
f 96 70 99
f 97 96 100
f 98 97 101
f 99 74 103
f 100 99 104
f 101 100 105
f 102 101 106
f 103 79 108
f 104 103 109
f 105 104 110
f 106 105 111
f 107 106 112
f 108 85 114
f 109 108 115
f 110 109 116
f 111 110 117
f 112 111 118
f 113 112 119
f 2 1 93
f 121 93 95
f 4 2 121
f 122 95 98
f 123 121 122
f 7 4 123
f 124 98 102
f 125 122 124
f 126 123 125
f 11 7 126
f 127 102 107
f 128 124 127
f 129 125 128
f 130 126 129
f 16 11 130
f 131 107 113
f 132 127 131
f 133 128 132
f 134 129 133
f 135 130 134
f 22 16 135
f 136 113 120
f 137 131 136
f 138 132 137
f 139 133 138
f 140 134 139
f 141 135 140
f 29 22 141
f 2 93 121
f 121 95 122
f 4 121 123
f 122 98 124
f 123 122 125
f 7 123 126
f 124 102 127
f 125 124 128
f 126 125 129
f 11 126 130
f 127 107 131
f 128 127 132
f 129 128 133
f 130 129 134
f 16 130 135
f 131 113 136
f 132 131 137
f 133 132 138
f 134 133 139
f 135 134 140
f 22 135 141
f 142 29 141
f 143 141 140
f 144 142 143
f 145 140 139
f 146 143 145
f 147 144 146
f 148 139 138
f 149 145 148
f 150 146 149
f 151 147 150
f 152 138 137
f 153 148 152
f 154 149 153
f 155 150 154
f 156 151 155
f 157 137 136
f 158 152 157
f 159 153 158
f 160 154 159
f 161 155 160
f 162 156 161
f 163 136 120
f 164 157 163
f 165 158 164
f 166 159 165
f 167 160 166
f 168 161 167
f 169 162 168
f 142 141 143
f 143 140 145
f 144 143 146
f 145 139 148
f 146 145 149
f 147 146 150
f 148 138 152
f 149 148 153
f 150 149 154
f 151 150 155
f 152 137 157
f 153 152 158
f 154 153 159
f 155 154 160
f 156 155 161
f 157 136 163
f 158 157 164
f 159 158 165
f 160 159 166
f 161 160 167
f 162 161 168
f 170 120 119
f 171 119 118
f 172 170 171
f 173 118 117
f 174 171 173
f 175 172 174
f 176 117 116
f 177 173 176
f 178 174 177
f 179 175 178
f 180 116 115
f 181 176 180
f 182 177 181
f 183 178 182
f 184 179 183
f 185 115 114
f 186 180 185
f 187 181 186
f 188 182 187
f 189 183 188
f 190 184 189
f 191 114 92
f 192 185 191
f 193 186 192
f 194 187 193
f 195 188 194
f 196 189 195
f 197 190 196
f 170 119 171
f 171 118 173
f 172 171 174
f 173 117 176
f 174 173 177
f 175 174 178
f 176 116 180
f 177 176 181
f 178 177 182
f 179 178 183
f 180 115 185
f 181 180 186
f 182 181 187
f 183 182 188
f 184 183 189
f 185 114 191
f 186 185 192
f 187 186 193
f 188 187 194
f 189 188 195
f 190 189 196
f 198 92 91
f 199 91 90
f 200 198 199
f 201 90 89
f 202 199 201
f 203 200 202
f 204 89 88
f 205 201 204
f 206 202 205
f 207 203 206
f 208 88 87
f 209 204 208
f 210 205 209
f 211 206 210
f 212 207 211
f 213 87 86
f 214 208 213
f 215 209 214
f 216 210 215
f 217 211 216
f 218 212 217
f 219 86 64
f 220 213 219
f 221 214 220
f 222 215 221
f 223 216 222
f 224 217 223
f 225 218 224
f 198 91 199
f 199 90 201
f 200 199 202
f 201 89 204
f 202 201 205
f 203 202 206
f 204 88 208
f 205 204 209
f 206 205 210
f 207 206 211
f 208 87 213
f 209 208 214
f 210 209 215
f 211 210 216
f 212 211 217
f 213 86 219
f 214 213 220
f 215 214 221
f 216 215 222
f 217 216 223
f 218 217 224
f 226 64 63
f 227 63 62
f 228 226 227
f 229 62 61
f 230 227 229
f 231 228 230
f 232 61 60
f 233 229 232
f 234 230 233
f 235 231 234
f 236 60 59
f 237 232 236
f 238 233 237
f 239 234 238
f 240 235 239
f 241 59 58
f 242 236 241
f 243 237 242
f 244 238 243
f 245 239 244
f 246 240 245
f 247 58 36
f 248 241 247
f 249 242 248
f 250 243 249
f 251 244 250
f 252 245 251
f 253 246 252
f 226 63 227
f 227 62 229
f 228 227 230
f 229 61 232
f 230 229 233
f 231 230 234
f 232 60 236
f 233 232 237
f 234 233 238
f 235 234 239
f 236 59 241
f 237 236 242
f 238 237 243
f 239 238 244
f 240 239 245
f 241 58 247
f 242 241 248
f 243 242 249
f 244 243 250
f 245 244 251
f 246 245 252
f 254 36 35
f 255 35 34
f 256 254 255
f 257 34 33
f 258 255 257
f 259 256 258
f 260 33 32
f 261 257 260
f 262 258 261
f 263 259 262
f 264 32 31
f 265 260 264
f 266 261 265
f 267 262 266
f 268 263 267
f 269 31 30
f 270 264 269
f 271 265 270
f 272 266 271
f 273 267 272
f 274 268 273
f 275 30 29
f 276 269 275
f 277 270 276
f 278 271 277
f 279 272 278
f 280 273 279
f 281 274 280
f 254 35 255
f 255 34 257
f 256 255 258
f 257 33 260
f 258 257 261
f 259 258 262
f 260 32 264
f 261 260 265
f 262 261 266
f 263 262 267
f 264 31 269
f 265 264 270
f 266 265 271
f 267 266 272
f 268 267 273
f 269 30 275
f 270 269 276
f 271 270 277
f 272 271 278
f 273 272 279
f 274 273 280
f 275 29 142
f 282 142 144
f 276 275 282
f 283 144 147
f 284 282 283
f 277 276 284
f 285 147 151
f 286 283 285
f 287 284 286
f 278 277 287
f 288 151 156
f 289 285 288
f 290 286 289
f 291 287 290
f 279 278 291
f 292 156 162
f 293 288 292
f 294 289 293
f 295 290 294
f 296 291 295
f 280 279 296
f 297 162 169
f 298 292 297
f 299 293 298
f 300 294 299
f 301 295 300
f 302 296 301
f 281 280 302
f 275 142 282
f 282 144 283
f 276 282 284
f 283 147 285
f 284 283 286
f 277 284 287
f 285 151 288
f 286 285 289
f 287 286 290
f 278 287 291
f 288 156 292
f 289 288 293
f 290 289 294
f 291 290 295
f 279 291 296
f 292 162 297
f 293 292 298
f 294 293 299
f 295 294 300
f 296 295 301
f 280 296 302
f 163 120 170
f 303 170 172
f 164 163 303
f 304 172 175
f 305 303 304
f 165 164 305
f 306 175 179
f 307 304 306
f 308 305 307
f 166 165 308
f 309 179 184
f 310 306 309
f 311 307 310
f 312 308 311
f 167 166 312
f 313 184 190
f 314 309 313
f 315 310 314
f 316 311 315
f 317 312 316
f 168 167 317
f 318 190 197
f 319 313 318
f 320 314 319
f 321 315 320
f 322 316 321
f 323 317 322
f 169 168 323
f 163 170 303
f 303 172 304
f 164 303 305
f 304 175 306
f 305 304 307
f 165 305 308
f 306 179 309
f 307 306 310
f 308 307 311
f 166 308 312
f 309 184 313
f 310 309 314
f 311 310 315
f 312 311 316
f 167 312 317
f 313 190 318
f 314 313 319
f 315 314 320
f 316 315 321
f 317 316 322
f 168 317 323
f 191 92 198
f 324 198 200
f 192 191 324
f 325 200 203
f 326 324 325
f 193 192 326
f 327 203 207
f 328 325 327
f 329 326 328
f 194 193 329
f 330 207 212
f 331 327 330
f 332 328 331
f 333 329 332
f 195 194 333
f 334 212 218
f 335 330 334
f 336 331 335
f 337 332 336
f 338 333 337
f 196 195 338
f 339 218 225
f 340 334 339
f 341 335 340
f 342 336 341
f 343 337 342
f 344 338 343
f 197 196 344
f 191 198 324
f 324 200 325
f 192 324 326
f 325 203 327
f 326 325 328
f 193 326 329
f 327 207 330
f 328 327 331
f 329 328 332
f 194 329 333
f 330 212 334
f 331 330 335
f 332 331 336
f 333 332 337
f 195 333 338
f 334 218 339
f 335 334 340
f 336 335 341
f 337 336 342
f 338 337 343
f 196 338 344
f 219 64 226
f 345 226 228
f 220 219 345
f 346 228 231
f 347 345 346
f 221 220 347
f 348 231 235
f 349 346 348
f 350 347 349
f 222 221 350
f 351 235 240
f 352 348 351
f 353 349 352
f 354 350 353
f 223 222 354
f 355 240 246
f 356 351 355
f 357 352 356
f 358 353 357
f 359 354 358
f 224 223 359
f 360 246 253
f 361 355 360
f 362 356 361
f 363 357 362
f 364 358 363
f 365 359 364
f 225 224 365
f 219 226 345
f 345 228 346
f 220 345 347
f 346 231 348
f 347 346 349
f 221 347 350
f 348 235 351
f 349 348 352
f 350 349 353
f 222 350 354
f 351 240 355
f 352 351 356
f 353 352 357
f 354 353 358
f 223 354 359
f 355 246 360
f 356 355 361
f 357 356 362
f 358 357 363
f 359 358 364
f 224 359 365
f 247 36 254
f 366 254 256
f 248 247 366
f 367 256 259
f 368 366 367
f 249 248 368
f 369 259 263
f 370 367 369
f 371 368 370
f 250 249 371
f 372 263 268
f 373 369 372
f 374 370 373
f 375 371 374
f 251 250 375
f 376 268 274
f 377 372 376
f 378 373 377
f 379 374 378
f 380 375 379
f 252 251 380
f 381 274 281
f 382 376 381
f 383 377 382
f 384 378 383
f 385 379 384
f 386 380 385
f 253 252 386
f 247 254 366
f 366 256 367
f 248 366 368
f 367 259 369
f 368 367 370
f 249 368 371
f 369 263 372
f 370 369 373
f 371 370 374
f 250 371 375
f 372 268 376
f 373 372 377
f 374 373 378
f 375 374 379
f 251 375 380
f 376 274 381
f 377 376 382
f 378 377 383
f 379 378 384
f 380 379 385
f 252 380 386
f 389 387 388
f 391 388 390
f 392 389 391
f 394 390 393
f 395 391 394
f 396 392 395
f 398 393 397
f 399 394 398
f 400 395 399
f 401 396 400
f 403 397 402
f 404 398 403
f 405 399 404
f 406 400 405
f 407 401 406
f 409 402 408
f 410 403 409
f 411 404 410
f 412 405 411
f 413 406 412
f 414 407 413
f 302 408 281
f 301 409 302
f 300 410 301
f 299 411 300
f 298 412 299
f 297 413 298
f 169 414 297
f 389 388 391
f 391 390 394
f 392 391 395
f 394 393 398
f 395 394 399
f 396 395 400
f 398 397 403
f 399 398 404
f 400 399 405
f 401 400 406
f 403 402 409
f 404 403 410
f 405 404 411
f 406 405 412
f 407 406 413
f 409 408 302
f 410 409 301
f 411 410 300
f 412 411 299
f 413 412 298
f 414 413 297
f 388 387 415
f 417 415 416
f 390 388 417
f 419 416 418
f 420 417 419
f 393 390 420
f 422 418 421
f 423 419 422
f 424 420 423
f 397 393 424
f 426 421 425
f 427 422 426
f 428 423 427
f 429 424 428
f 402 397 429
f 431 425 430
f 432 426 431
f 433 427 432
f 434 428 433
f 435 429 434
f 408 402 435
f 386 430 253
f 385 431 386
f 384 432 385
f 383 433 384
f 382 434 383
f 381 435 382
f 281 408 381
f 388 415 417
f 417 416 419
f 390 417 420
f 419 418 422
f 420 419 423
f 393 420 424
f 422 421 426
f 423 422 427
f 424 423 428
f 397 424 429
f 426 425 431
f 427 426 432
f 428 427 433
f 429 428 434
f 402 429 435
f 431 430 386
f 432 431 385
f 433 432 384
f 434 433 383
f 435 434 382
f 408 435 381
f 415 387 436
f 438 436 437
f 416 415 438
f 440 437 439
f 441 438 440
f 418 416 441
f 443 439 442
f 444 440 443
f 445 441 444
f 421 418 445
f 447 442 446
f 448 443 447
f 449 444 448
f 450 445 449
f 425 421 450
f 452 446 451
f 453 447 452
f 454 448 453
f 455 449 454
f 456 450 455
f 430 425 456
f 365 451 225
f 364 452 365
f 363 453 364
f 362 454 363
f 361 455 362
f 360 456 361
f 253 430 360
f 415 436 438
f 438 437 440
f 416 438 441
f 440 439 443
f 441 440 444
f 418 441 445
f 443 442 447
f 444 443 448
f 445 444 449
f 421 445 450
f 447 446 452
f 448 447 453
f 449 448 454
f 450 449 455
f 425 450 456
f 452 451 365
f 453 452 364
f 454 453 363
f 455 454 362
f 456 455 361
f 430 456 360
f 436 387 457
f 459 457 458
f 437 436 459
f 461 458 460
f 462 459 461
f 439 437 462
f 464 460 463
f 465 461 464
f 466 462 465
f 442 439 466
f 468 463 467
f 469 464 468
f 470 465 469
f 471 466 470
f 446 442 471
f 473 467 472
f 474 468 473
f 475 469 474
f 476 470 475
f 477 471 476
f 451 446 477
f 344 472 197
f 343 473 344
f 342 474 343
f 341 475 342
f 340 476 341
f 339 477 340
f 225 451 339
f 436 457 459
f 459 458 461
f 437 459 462
f 461 460 464
f 462 461 465
f 439 462 466
f 464 463 468
f 465 464 469
f 466 465 470
f 442 466 471
f 468 467 473
f 469 468 474
f 470 469 475
f 471 470 476
f 446 471 477
f 473 472 344
f 474 473 343
f 475 474 342
f 476 475 341
f 477 476 340
f 451 477 339
f 457 387 389
f 478 389 392
f 458 457 478
f 479 392 396
f 480 478 479
f 460 458 480
f 481 396 401
f 482 479 481
f 483 480 482
f 463 460 483
f 484 401 407
f 485 481 484
f 486 482 485
f 487 483 486
f 467 463 487
f 488 407 414
f 489 484 488
f 490 485 489
f 491 486 490
f 492 487 491
f 472 467 492
f 323 414 169
f 322 488 323
f 321 489 322
f 320 490 321
f 319 491 320
f 318 492 319
f 197 472 318
f 457 389 478
f 478 392 479
f 458 478 480
f 479 396 481
f 480 479 482
f 460 480 483
f 481 401 484
f 482 481 485
f 483 482 486
f 463 483 487
f 484 407 488
f 485 484 489
f 486 485 490
f 487 486 491
f 467 487 492
f 488 414 323
f 489 488 322
f 490 489 321
f 491 490 320
f 492 491 319
f 472 492 318
