# File exported by Houdini 20.5.445 (www.sidefx.com)
# 492 points
# 2940 vertices
# 980 primitives
# Bounds: [-67.0047607, -129.16568, -1153.28198] to [237.778687, 245.542786, -601.519104]
g 
v 85.3869019 58.1885681 -1153.28198
v 85.3869019 87.8253403 -1149.83838
v 108.286194 67.3468475 -1149.83838
v 85.3869019 116.722435 -1139.59375
v 109.565491 99.1510086 -1143.10645
v 130.613831 76.2765503 -1139.59375
v 85.3869019 144.158386 -1122.80396
v 110.316895 128.661377 -1129.21436
v 132.134827 109.149864 -1129.21436
v 151.812561 84.7547226 -1122.80396
v 85.3869019 169.448212 -1099.8877
v 110.564575 155.761536 -1108.87427
v 132.848328 138.596039 -1111.65649
v 152.997559 117.814247 -1108.87427
v 171.353027 92.5697556 -1099.8877
v 85.3869019 191.960541 -1071.41724
v 110.316895 180.289398 -1082.43213
v 132.848328 165.135345 -1087.60815
v 153.354248 146.79718 -1087.60815
v 172.025879 125.103844 -1082.43213
v 188.747498 99.5264206 -1071.41748
v 85.3869019 211.133362 -1038.10376
v 109.565491 201.961548 -1049.94531
v 132.134827 189.015259 -1056.84497
v 152.997559 172.732178 -1059.11084
v 172.025879 153.341217 -1056.84497
v 189.003174 130.921234 -1049.94531
v 203.561584 105.45118 -1038.10376
v 85.3869019 226.488007 -1000.77838
v 108.286194 220.291656 -1011.24835
v 130.613831 210.048553 -1018.37714
v 151.812561 196.014374 -1021.98651
v 171.353027 178.539581 -1021.98651
v 188.747498 158.060364 -1018.37714
v 203.561523 135.087952 -1011.24835
v 215.425537 110.196022 -1000.77838
v 99.5394287 34.211853 -1149.83838
v 124.508667 42.542305 -1143.10645
v 113.338806 10.8336449 -1139.59375
v 147.54248 50.7818527 -1129.21436
v 139.20874 19.211544 -1129.21436
v 126.440247 -11.3624878 -1122.80396
v 168.558167 58.8663406 -1108.87427
v 162.181152 27.4756165 -1111.65649
v 152.350342 -2.53374863 -1108.87427
v 138.516968 -31.8224106 -1099.8877
v 187.433411 66.7358627 -1082.43213
v 182.687012 35.6767578 -1087.60815
v 174.854492 6.00491333 -1087.60815
v 163.862793 -22.5564194 -1082.43213
v 149.267334 -50.0352859 -1071.41748
v 203.946472 74.3125305 -1049.94531
v 200.917664 43.8913651 -1056.84497
v 194.783203 14.4368248 -1059.11084
v 185.680603 -13.830574 -1056.84497
v 173.603943 -40.6331863 -1049.94531
v 158.422852 -65.5463638 -1038.10376
v 217.71405 81.474472 -1011.2486
v 216.69928 52.1715012 -1018.37726
v 212.406433 23.0186691 -1021.98663
v 204.942566 -5.25627136 -1021.98663
v 194.494202 -31.9472961 -1018.37726
v 181.322144 -56.3881073 -1011.2486
v 165.755188 -77.9685593 -1000.77838
v 71.234436 34.211853 -1149.83838
v 85.3869019 7.55618286 -1143.10645
v 57.4351807 10.8336449 -1139.59375
v 98.8711548 -16.8618889 -1129.21436
v 71.902771 -16.8618889 -1129.21436
v 44.3336792 -11.3624878 -1122.80396
v 111.612 -38.9656067 -1108.87427
v 85.3869019 -41.2005615 -1111.65649
v 59.1619873 -38.9656067 -1108.87427
v 32.257019 -31.8224106 -1099.8877
v 123.525146 -58.6297989 -1082.43213
v 98.0603027 -62.6713257 -1087.60815
v 72.713623 -62.6713257 -1087.60815
v 47.2487183 -58.6298599 -1082.43213
v 21.5065918 -50.0352859 -1071.41748
v 134.482178 -75.6192551 -1049.94531
v 110.040955 -81.4743729 -1056.84497
v 85.3869019 -83.3951187 -1059.11084
v 60.7329712 -81.4743729 -1056.84497
v 36.291748 -75.6192551 -1049.94531
v 12.3510132 -65.5463638 -1038.10376
v 144.270386 -89.5230942 -1011.2486
v 121.315552 -97.3901749 -1018.37714
v 97.463623 -101.373482 -1021.98663
v 73.3103027 -101.373482 -1021.98663
v 49.4584351 -97.3901749 -1018.37714
v 26.50354 -89.5230942 -1011.2486
v 5.01867676 -77.9685593 -1000.77838
v 62.4877319 67.3468475 -1149.83838
v 46.2653198 42.542305 -1143.10645
v 40.1600342 76.2765503 -1139.59375
v 31.5651855 19.211544 -1129.21436
v 23.2314453 50.7818527 -1129.21436
v 18.9613037 84.7547226 -1122.80396
v 18.423645 -2.53374863 -1108.87427
v 8.59277344 27.4756165 -1111.65649
v 2.21575928 58.8663406 -1108.87427
v -0.579162598 92.5697556 -1099.8877
v 6.91119385 -22.5564194 -1082.43213
v -4.08056641 6.00491333 -1087.60815
v -11.9130859 35.6767578 -1087.60815
v -16.6595459 66.7358627 -1082.43213
v -17.9735718 99.5264206 -1071.41748
v -2.82995605 -40.6331863 -1049.94531
v -14.9067383 -13.830574 -1056.84497
v -24.0093384 14.4368248 -1059.11084
v -30.1437378 43.8913651 -1056.84497
v -33.1725464 74.3125305 -1049.94531
v -32.7876587 105.45118 -1038.10376
v -10.5482178 -56.3881073 -1011.2486
v -23.7203369 -31.9472961 -1018.37726
v -34.1686401 -5.25627136 -1021.98663
v -41.6324463 23.0186691 -1021.98663
v -45.925354 52.1715012 -1018.37726
v -46.9401855 81.474472 -1011.2486
v -44.6516113 110.196022 -1000.77838
v 61.2084351 99.1510086 -1143.10645
v 38.6390381 109.149864 -1129.21436
v 60.4570312 128.661377 -1129.21436
v 17.7763672 117.814247 -1108.87427
v 37.9255371 138.596039 -1111.65649
v 60.2092896 155.761536 -1108.87427
v -1.25195312 125.103844 -1082.43213
v 17.4196777 146.79718 -1087.60815
v 37.9255371 165.135345 -1087.60815
v 60.4570312 180.289398 -1082.43213
v -18.2293091 130.921234 -1049.94531
v -1.25195312 153.341217 -1056.84497
v 17.7763672 172.732178 -1059.11084
v 38.6390381 189.015259 -1056.84497
v 61.2084351 201.961548 -1049.94531
v -32.7876587 135.087952 -1011.24835
v -17.9735718 158.060364 -1018.37714
v -0.579162598 178.539581 -1021.98651
v 18.9613037 196.014374 -1021.98651
v 40.1600342 210.048553 -1018.37714
v 62.4877319 220.291656 -1011.24835
v 71.234436 235.110016 -967.795715
v 46.2653198 227.27771 -975.709534
v 57.4351807 239.315491 -932.556458
v 23.2314453 215.118195 -980.302063
v 31.5651855 229.236877 -938.901306
v 44.3336792 238.999237 -895.940125
v 2.21575928 199.094452 -981.807678
v 8.59283447 214.829865 -941.886536
v 18.423645 226.553345 -901.288635
v 32.257019 234.169342 -858.861023
v -16.6594849 179.444122 -980.302063
v -11.9130859 196.491669 -941.886536
v -4.08050537 209.761292 -902.975403
v 6.91119385 219.376801 -863.20575
v 21.5066528 224.946259 -822.24469
v -33.1724854 156.237427 -975.709534
v -30.1436768 174.05127 -938.901306
v -24.0092773 188.606018 -901.288635
v -14.9067383 199.865265 -863.20575
v -2.82995605 207.642609 -824.971741
v 12.3510132 211.560303 -787.00531
v -46.9401245 129.427856 -967.795715
v -45.925293 146.881317 -932.556458
v -41.6324463 162.120789 -895.940125
v -34.1685791 174.765656 -858.861023
v -23.7202759 184.500366 -822.24469
v -10.5481567 191.081787 -787.00531
v 5.01867676 194.345673 -754.022644
v -55.6868896 96.2928543 -967.795715
v -57.3510742 64.6425934 -975.709534
v -63.2005005 81.4384232 -932.556458
v -55.0737305 33.9209137 -980.302063
v -63.4074097 48.0395279 -938.901306
v -67.0047607 66.00354 -895.940125
v -49.1869507 4.36733627 -981.807678
v -59.3745117 16.6950989 -941.886536
v -65.3948975 31.8262177 -901.288635
v -67.0047607 50.3735657 -858.861023
v -39.8366699 -23.8010292 -980.302063
v -51.5419312 -12.9767456 -941.886536
v -59.3745117 0.292873383 -902.975403
v -63.4074097 16.1316338 -863.20575
v -63.2005005 34.9386673 -822.244568
v -27.0085449 -50.3031387 -975.709534
v -39.8366699 -41.2526703 -938.901306
v -49.1869507 -29.5738678 -901.288635
v -55.0736694 -15.4387283 -863.20575
v -57.3510742 1.1020813 -824.971741
v -55.6868896 20.084198 -787.00531
v -10.5481567 -74.704689 -967.795715
v -23.7202759 -68.1232758 -932.556458
v -34.1685791 -58.3885498 -895.940125
v -41.6324463 -45.7436981 -858.861023
v -45.925293 -30.5042725 -822.24469
v -46.9401245 -13.0507355 -787.00531
v -44.6516113 6.18104172 -754.022766
v 12.3510132 -95.1832047 -967.795715
v 36.291748 -106.911812 -975.709534
v 21.5066528 -108.56913 -932.556458
v 60.7329712 -113.739418 -980.302063
v 47.2487183 -119.13224 -938.901306
v 32.257019 -117.792229 -895.940125
v 85.3869019 -115.980659 -981.807678
v 72.713623 -124.097145 -941.886536
v 59.1619873 -126.469063 -901.288635
v 44.3336792 -122.622169 -858.861023
v 110.040955 -113.739418 -980.302063
v 98.0603027 -124.097145 -941.886536
v 85.3869019 -129.16568 -902.975403
v 71.902771 -128.992249 -863.20575
v 57.4351807 -122.938393 -822.24469
v 134.482178 -106.911812 -975.709534
v 123.525146 -119.13224 -938.901306
v 111.612 -126.469063 -901.288635
v 98.8711548 -128.992249 -863.20575
v 85.3869019 -126.546791 -824.971741
v 71.234436 -118.732933 -787.00531
v 158.422852 -95.1832047 -967.795715
v 149.267334 -108.56913 -932.556458
v 138.516968 -117.792229 -895.940125
v 126.440247 -122.622169 -858.861023
v 113.338806 -122.938393 -822.24469
v 99.5394287 -118.732933 -787.00531
v 85.3869019 -110.110909 -754.022766
v 181.322144 -74.704689 -967.795715
v 197.782471 -50.3031387 -975.709534
v 194.494202 -68.1232758 -932.556458
v 210.610596 -23.8010292 -980.302063
v 210.610596 -41.2526703 -938.901306
v 204.942505 -58.3885498 -895.940125
v 219.960876 4.36733627 -981.807678
v 222.315918 -12.9767456 -941.886536
v 219.960876 -29.5738678 -901.288635
v 212.406311 -45.7436981 -858.861023
v 225.847717 33.9209137 -980.302063
v 230.148438 16.6950989 -941.886536
v 230.148438 0.292873383 -902.975403
v 225.847534 -15.4387283 -863.20575
v 216.699158 -30.5042725 -822.24469
v 228.125 64.6425934 -975.709534
v 234.181335 48.0395279 -938.901306
v 236.168823 31.8262177 -901.288635
v 234.181335 16.1316338 -863.20575
v 228.125 1.1020813 -824.971741
v 217.71405 -13.0507355 -787.00531
v 226.460754 96.2928543 -967.795715
v 233.974426 81.4384232 -932.556458
v 237.778687 66.00354 -895.940125
v 237.778687 50.3735657 -858.861023
v 233.974426 34.9386673 -822.244568
v 226.460754 20.084198 -787.00531
v 215.425537 6.18104172 -754.022766
v 217.71405 129.427856 -967.795715
v 203.946472 156.237427 -975.709534
v 216.699158 146.881317 -932.556458
v 187.433411 179.444122 -980.302063
v 200.917664 174.05127 -938.901306
v 212.406311 162.120789 -895.940125
v 168.558167 199.094452 -981.807678
v 182.686951 196.491669 -941.886536
v 194.783203 188.606018 -901.288635
v 204.942505 174.765656 -858.861023
v 147.54248 215.118195 -980.302063
v 162.181152 214.829865 -941.886536
v 174.854492 209.761292 -902.975403
v 185.680603 199.865265 -863.20575
v 194.494202 184.500366 -822.24469
v 124.508667 227.27771 -975.709534
v 139.20874 229.236877 -938.901306
v 152.35022 226.553345 -901.288635
v 163.862793 219.376801 -863.20575
v 173.603943 207.642609 -824.971741
v 181.322144 191.081787 -787.00531
v 99.5394287 235.110016 -967.795715
v 113.338806 239.315491 -932.556458
v 126.440247 238.999237 -895.940125
v 138.516968 234.169342 -858.861023
v 149.267334 224.946259 -822.24469
v 158.422852 211.560303 -787.00531
v 165.755188 194.345673 -754.022644
v 85.3869019 242.92392 -929.829407
v 71.902771 245.369385 -891.595154
v 98.8711548 245.369385 -891.595154
v 59.1619873 242.84613 -853.512634
v 85.3869019 245.542786 -851.825745
v 111.612 242.84613 -853.512634
v 47.2487183 235.509338 -815.899841
v 72.713623 240.474243 -812.914612
v 98.0603027 240.474243 -812.914612
v 123.525146 235.509338 -815.899841
v 36.291748 223.28891 -779.091614
v 60.7329712 230.116455 -774.498962
v 85.3869019 232.357788 -772.993591
v 110.040955 230.116455 -774.498962
v 134.482178 223.28891 -779.091614
v 26.50354 205.900146 -743.552673
v 49.4584351 213.767303 -736.423889
v 73.3103027 217.75058 -732.814514
v 97.463623 217.75058 -732.814514
v 121.315552 213.767303 -736.423889
v 144.270386 205.900146 -743.552673
v -57.3510742 115.274986 -929.829407
v -63.4074097 100.245461 -891.595154
v -55.0736694 131.815796 -891.595154
v -65.3948975 84.5508575 -853.512634
v -59.3745117 116.084206 -851.825745
v -49.1869507 145.950928 -853.512634
v -63.4074097 68.3375702 -815.899841
v -59.3745117 99.6819992 -812.914612
v -51.5419312 129.353821 -812.914612
v -39.8366699 157.629791 -815.899841
v -57.3510742 51.7344818 -779.091614
v -55.0737305 82.4562073 -774.498962
v -49.1869507 112.009789 -772.993591
v -39.8366699 140.178101 -774.498962
v -27.0085449 166.680206 -779.091614
v -46.9401855 34.9026184 -743.552673
v -45.925354 64.2055817 -736.423889
v -41.6324463 93.3584366 -732.814514
v -34.1686401 121.633369 -732.814514
v -23.7203369 148.324341 -736.423889
v -10.5482178 172.765198 -743.552673
v -2.82995605 -91.2655411 -929.829407
v 6.91119385 -102.999725 -891.595154
v -14.9067383 -83.4881668 -891.595154
v 18.423645 -110.176262 -853.512634
v -4.08050537 -93.3841782 -851.825745
v -24.0092773 -72.2289429 -853.512634
v 31.5651855 -112.85981 -815.899841
v 8.59283447 -98.4527817 -812.914612
v -11.9130859 -80.1146164 -812.914612
v -30.1436768 -57.6741714 -815.899841
v 46.2653198 -110.900581 -779.091614
v 23.2315063 -98.741127 -774.498962
v 2.21575928 -82.7173691 -772.993591
v -16.6594849 -63.0670547 -774.498962
v -33.1724854 -39.8603745 -779.091614
v 62.4877319 -103.914589 -743.552673
v 40.1600342 -93.6714401 -736.424011
v 18.9613037 -79.637291 -732.814514
v -0.579162598 -62.1624985 -732.814514
v -17.9735718 -41.6832352 -736.424011
v -32.7876587 -18.7108917 -743.552673
v 173.603943 -91.2655869 -929.829407
v 185.680603 -83.4881668 -891.595154
v 163.862793 -102.999725 -891.595154
v 194.783203 -72.2289429 -853.512634
v 174.854492 -93.3841782 -851.825745
v 152.35022 -110.176262 -853.512634
v 200.917664 -57.6741714 -815.899841
v 182.686951 -80.1146164 -812.914612
v 162.181152 -98.4527817 -812.914612
v 139.20874 -112.85981 -815.899841
v 203.946472 -39.8603745 -779.091614
v 187.433411 -63.0670547 -774.498962
v 168.558167 -82.7173691 -772.993591
v 147.54248 -98.741127 -774.498962
v 124.508667 -110.900642 -779.091614
v 203.561523 -18.7108917 -743.552673
v 188.747498 -41.6832352 -736.424011
v 171.353027 -62.1624985 -732.814514
v 151.812561 -79.637291 -732.814514
v 130.613831 -93.6714401 -736.424011
v 108.286194 -103.914589 -743.552673
v 228.125 115.274986 -929.829407
v 225.847534 131.815796 -891.595154
v 234.181335 100.245461 -891.595154
v 219.960876 145.950928 -853.512634
v 230.148438 116.084206 -851.825745
v 236.168823 84.5508575 -853.512634
v 210.610596 157.629791 -815.899841
v 222.315918 129.353821 -812.914612
v 230.148438 99.6819992 -812.914612
v 234.181335 68.3375702 -815.899841
v 197.782471 166.680145 -779.091614
v 210.610596 140.178101 -774.498962
v 219.960876 112.009789 -772.993591
v 225.847717 82.4562073 -774.498962
v 228.125 51.7344818 -779.091614
v 181.322144 172.765198 -743.552673
v 194.494202 148.324341 -736.423889
v 204.942566 121.633369 -732.814514
v 212.406433 93.3584366 -732.814514
v 216.69928 64.2055817 -736.423889
v 217.71405 34.9026184 -743.552673
v 85.3869019 58.1885681 -601.519104
v 99.5394287 82.1652145 -604.962585
v 71.234436 82.1652145 -604.962585
v 113.338806 105.543449 -615.207092
v 85.3869019 108.8209 -611.694641
v 57.4351807 105.543449 -615.207092
v 126.440247 127.739601 -631.997131
v 98.8711548 133.238953 -625.586609
v 71.902771 133.238953 -625.586609
v 44.3336792 127.739601 -631.997131
v 138.516968 148.199493 -654.913391
v 111.612 155.342651 -645.926697
v 85.3869019 157.577637 -643.144714
v 59.1619873 155.342651 -645.926697
v 32.257019 148.199493 -654.913391
v 149.267334 166.412384 -683.383728
v 123.525146 175.006897 -672.36908
v 98.0603027 179.04837 -667.193054
v 72.713623 179.04837 -667.193054
v 47.2487183 175.006958 -672.36908
v 21.5065918 166.412384 -683.383728
v 158.422852 181.923462 -716.697449
v 134.482178 191.996368 -704.855774
v 110.040955 197.85144 -697.956238
v 85.3869019 199.772217 -695.690247
v 60.7329712 197.85144 -697.956238
v 36.291748 191.996368 -704.855774
v 12.3510132 181.923462 -716.697449
v 108.286194 49.0302124 -604.962585
v 130.613831 40.1005402 -615.207092
v 124.508667 73.834816 -611.694641
v 151.812561 31.6223373 -631.997131
v 147.54248 65.5952072 -625.586609
v 139.20874 97.1655502 -625.586609
v 171.353027 23.807373 -654.913391
v 168.558167 57.5107422 -645.926697
v 162.181152 88.9014359 -643.144714
v 152.350342 118.910835 -645.926697
v 188.747498 16.8506737 -683.383728
v 187.433411 49.6412277 -672.36908
v 182.687012 80.7003632 -667.193054
v 174.854492 110.372169 -667.193054
v 163.862793 138.933502 -672.36908
v 203.561584 10.9259415 -716.697449
v 203.946472 42.0645294 -704.855774
v 200.917664 72.4857254 -697.956238
v 194.783203 101.940239 -695.690247
v 185.680603 130.207642 -697.956238
v 173.603943 157.010284 -704.855774
v 85.3869019 28.551754 -604.962585
v 85.3869019 -0.345378876 -615.207092
v 109.565491 17.226078 -611.694641
v 85.3869019 -27.7812881 -631.997131
v 110.316895 -12.284256 -625.586609
v 132.134827 7.2272377 -625.586609
v 85.3869019 -53.0710907 -654.913391
v 110.564575 -39.3844872 -645.926697
v 132.848328 -22.218956 -643.144714
v 152.997559 -1.43717194 -645.926697
v 85.3869019 -75.5834427 -683.383728
v 110.316895 -63.9123611 -672.36908
v 132.848328 -48.7582626 -667.193054
v 153.354248 -30.4200935 -667.193054
v 172.025879 -8.72673416 -672.36908
v 85.3869019 -94.7562637 -716.697449
v 109.565491 -85.584465 -704.855774
v 132.134827 -72.6381454 -697.956238
v 152.997559 -56.3550644 -695.690247
v 172.025879 -36.9641342 -697.956238
v 189.003174 -14.5441399 -704.855774
v 62.4877319 49.0302124 -604.962585
v 40.1600342 40.1005402 -615.207092
v 61.2084351 17.226078 -611.694641
v 18.9613037 31.6223373 -631.997131
v 38.6390381 7.2272377 -625.586609
v 60.4570312 -12.284256 -625.586609
v -0.579162598 23.807373 -654.913391
v 17.7763672 -1.43717194 -645.926697
v 37.9255371 -22.218956 -643.144714
v 60.2092896 -39.3844872 -645.926697
v -17.9735718 16.8506737 -683.383728
v -1.25195312 -8.72673416 -672.36908
v 17.4196777 -30.4200935 -667.193054
v 37.9255371 -48.7582626 -667.193054
v 60.4570312 -63.9123611 -672.36908
v -32.7876587 10.9259415 -716.697449
v -18.2293091 -14.5441399 -704.855774
v -1.25195312 -36.9641342 -697.956238
v 17.7763672 -56.3550644 -695.690247
v 38.6390381 -72.6381454 -697.956238
v 61.2084351 -85.584465 -704.855774
v 46.2653198 73.834816 -611.694641
v 31.5651855 97.1655502 -625.586609
v 23.2314453 65.5952072 -625.586609
v 18.423645 118.910835 -645.926697
v 8.59277344 88.9014359 -643.144714
v 2.21575928 57.5107422 -645.926697
v 6.91119385 138.933502 -672.36908
v -4.08056641 110.372169 -667.193054
v -11.9130859 80.7003632 -667.193054
v -16.6595459 49.6412277 -672.36908
v -2.82995605 157.010284 -704.855774
v -14.9067383 130.207642 -697.956238
v -24.0093384 101.940239 -695.690247
v -30.1437378 72.4857254 -697.956238
v -33.1725464 42.0645294 -704.855774
g 
f 3 1 2
f 5 2 4
f 6 3 5
f 8 4 7
f 9 5 8
f 10 6 9
f 12 7 11
f 13 8 12
f 14 9 13
f 15 10 14
f 17 11 16
f 18 12 17
f 19 13 18
f 20 14 19
f 21 15 20
f 23 16 22
f 24 17 23
f 25 18 24
f 26 19 25
f 27 20 26
f 28 21 27
f 30 22 29
f 31 23 30
f 32 24 31
f 33 25 32
f 34 26 33
f 35 27 34
f 36 28 35
f 3 2 5
f 5 4 8
f 6 5 9
f 8 7 12
f 9 8 13
f 10 9 14
f 12 11 17
f 13 12 18
f 14 13 19
f 15 14 20
f 17 16 23
f 18 17 24
f 19 18 25
f 20 19 26
f 21 20 27
f 23 22 30
f 24 23 31
f 25 24 32
f 26 25 33
f 27 26 34
f 28 27 35
f 37 1 3
f 38 3 6
f 39 37 38
f 40 6 10
f 41 38 40
f 42 39 41
f 43 10 15
f 44 40 43
f 45 41 44
f 46 42 45
f 47 15 21
f 48 43 47
f 49 44 48
f 50 45 49
f 51 46 50
f 52 21 28
f 53 47 52
f 54 48 53
f 55 49 54
f 56 50 55
f 57 51 56
f 58 28 36
f 59 52 58
f 60 53 59
f 61 54 60
f 62 55 61
f 63 56 62
f 64 57 63
f 37 3 38
f 38 6 40
f 39 38 41
f 40 10 43
f 41 40 44
f 42 41 45
f 43 15 47
f 44 43 48
f 45 44 49
f 46 45 50
f 47 21 52
f 48 47 53
f 49 48 54
f 50 49 55
f 51 50 56
f 52 28 58
f 53 52 59
f 54 53 60
f 55 54 61
f 56 55 62
f 57 56 63
f 65 1 37
f 66 37 39
f 67 65 66
f 68 39 42
f 69 66 68
f 70 67 69
f 71 42 46
f 72 68 71
f 73 69 72
f 74 70 73
f 75 46 51
f 76 71 75
f 77 72 76
f 78 73 77
f 79 74 78
f 80 51 57
f 81 75 80
f 82 76 81
f 83 77 82
f 84 78 83
f 85 79 84
f 86 57 64
f 87 80 86
f 88 81 87
f 89 82 88
f 90 83 89
f 91 84 90
f 92 85 91
f 65 37 66
f 66 39 68
f 67 66 69
f 68 42 71
f 69 68 72
f 70 69 73
f 71 46 75
f 72 71 76
f 73 72 77
f 74 73 78
f 75 51 80
f 76 75 81
f 77 76 82
f 78 77 83
f 79 78 84
f 80 57 86
f 81 80 87
f 82 81 88
f 83 82 89
f 84 83 90
f 85 84 91
f 93 1 65
f 94 65 67
f 95 93 94
f 96 67 70
f 97 94 96
f 98 95 97
f 99 70 74
f 100 96 99
f 101 97 100
f 102 98 101
f 103 74 79
f 104 99 103
f 105 100 104
f 106 101 105
f 107 102 106
f 108 79 85
f 109 103 108
f 110 104 109
f 111 105 110
f 112 106 111
f 113 107 112
f 114 85 92
f 115 108 114
f 116 109 115
f 117 110 116
f 118 111 117
f 119 112 118
f 120 113 119
f 93 65 94
f 94 67 96
f 95 94 97
f 96 70 99
f 97 96 100
f 98 97 101
f 99 74 103
f 100 99 104
f 101 100 105
f 102 101 106
f 103 79 108
f 104 103 109
f 105 104 110
f 106 105 111
f 107 106 112
f 108 85 114
f 109 108 115
f 110 109 116
f 111 110 117
f 112 111 118
f 113 112 119
f 2 1 93
f 121 93 95
f 4 2 121
f 122 95 98
f 123 121 122
f 7 4 123
f 124 98 102
f 125 122 124
f 126 123 125
f 11 7 126
f 127 102 107
f 128 124 127
f 129 125 128
f 130 126 129
f 16 11 130
f 131 107 113
f 132 127 131
f 133 128 132
f 134 129 133
f 135 130 134
f 22 16 135
f 136 113 120
f 137 131 136
f 138 132 137
f 139 133 138
f 140 134 139
f 141 135 140
f 29 22 141
f 2 93 121
f 121 95 122
f 4 121 123
f 122 98 124
f 123 122 125
f 7 123 126
f 124 102 127
f 125 124 128
f 126 125 129
f 11 126 130
f 127 107 131
f 128 127 132
f 129 128 133
f 130 129 134
f 16 130 135
f 131 113 136
f 132 131 137
f 133 132 138
f 134 133 139
f 135 134 140
f 22 135 141
f 142 29 141
f 143 141 140
f 144 142 143
f 145 140 139
f 146 143 145
f 147 144 146
f 148 139 138
f 149 145 148
f 150 146 149
f 151 147 150
f 152 138 137
f 153 148 152
f 154 149 153
f 155 150 154
f 156 151 155
f 157 137 136
f 158 152 157
f 159 153 158
f 160 154 159
f 161 155 160
f 162 156 161
f 163 136 120
f 164 157 163
f 165 158 164
f 166 159 165
f 167 160 166
f 168 161 167
f 169 162 168
f 142 141 143
f 143 140 145
f 144 143 146
f 145 139 148
f 146 145 149
f 147 146 150
f 148 138 152
f 149 148 153
f 150 149 154
f 151 150 155
f 152 137 157
f 153 152 158
f 154 153 159
f 155 154 160
f 156 155 161
f 157 136 163
f 158 157 164
f 159 158 165
f 160 159 166
f 161 160 167
f 162 161 168
f 170 120 119
f 171 119 118
f 172 170 171
f 173 118 117
f 174 171 173
f 175 172 174
f 176 117 116
f 177 173 176
f 178 174 177
f 179 175 178
f 180 116 115
f 181 176 180
f 182 177 181
f 183 178 182
f 184 179 183
f 185 115 114
f 186 180 185
f 187 181 186
f 188 182 187
f 189 183 188
f 190 184 189
f 191 114 92
f 192 185 191
f 193 186 192
f 194 187 193
f 195 188 194
f 196 189 195
f 197 190 196
f 170 119 171
f 171 118 173
f 172 171 174
f 173 117 176
f 174 173 177
f 175 174 178
f 176 116 180
f 177 176 181
f 178 177 182
f 179 178 183
f 180 115 185
f 181 180 186
f 182 181 187
f 183 182 188
f 184 183 189
f 185 114 191
f 186 185 192
f 187 186 193
f 188 187 194
f 189 188 195
f 190 189 196
f 198 92 91
f 199 91 90
f 200 198 199
f 201 90 89
f 202 199 201
f 203 200 202
f 204 89 88
f 205 201 204
f 206 202 205
f 207 203 206
f 208 88 87
f 209 204 208
f 210 205 209
f 211 206 210
f 212 207 211
f 213 87 86
f 214 208 213
f 215 209 214
f 216 210 215
f 217 211 216
f 218 212 217
f 219 86 64
f 220 213 219
f 221 214 220
f 222 215 221
f 223 216 222
f 224 217 223
f 225 218 224
f 198 91 199
f 199 90 201
f 200 199 202
f 201 89 204
f 202 201 205
f 203 202 206
f 204 88 208
f 205 204 209
f 206 205 210
f 207 206 211
f 208 87 213
f 209 208 214
f 210 209 215
f 211 210 216
f 212 211 217
f 213 86 219
f 214 213 220
f 215 214 221
f 216 215 222
f 217 216 223
f 218 217 224
f 226 64 63
f 227 63 62
f 228 226 227
f 229 62 61
f 230 227 229
f 231 228 230
f 232 61 60
f 233 229 232
f 234 230 233
f 235 231 234
f 236 60 59
f 237 232 236
f 238 233 237
f 239 234 238
f 240 235 239
f 241 59 58
f 242 236 241
f 243 237 242
f 244 238 243
f 245 239 244
f 246 240 245
f 247 58 36
f 248 241 247
f 249 242 248
f 250 243 249
f 251 244 250
f 252 245 251
f 253 246 252
f 226 63 227
f 227 62 229
f 228 227 230
f 229 61 232
f 230 229 233
f 231 230 234
f 232 60 236
f 233 232 237
f 234 233 238
f 235 234 239
f 236 59 241
f 237 236 242
f 238 237 243
f 239 238 244
f 240 239 245
f 241 58 247
f 242 241 248
f 243 242 249
f 244 243 250
f 245 244 251
f 246 245 252
f 254 36 35
f 255 35 34
f 256 254 255
f 257 34 33
f 258 255 257
f 259 256 258
f 260 33 32
f 261 257 260
f 262 258 261
f 263 259 262
f 264 32 31
f 265 260 264
f 266 261 265
f 267 262 266
f 268 263 267
f 269 31 30
f 270 264 269
f 271 265 270
f 272 266 271
f 273 267 272
f 274 268 273
f 275 30 29
f 276 269 275
f 277 270 276
f 278 271 277
f 279 272 278
f 280 273 279
f 281 274 280
f 254 35 255
f 255 34 257
f 256 255 258
f 257 33 260
f 258 257 261
f 259 258 262
f 260 32 264
f 261 260 265
f 262 261 266
f 263 262 267
f 264 31 269
f 265 264 270
f 266 265 271
f 267 266 272
f 268 267 273
f 269 30 275
f 270 269 276
f 271 270 277
f 272 271 278
f 273 272 279
f 274 273 280
f 275 29 142
f 282 142 144
f 276 275 282
f 283 144 147
f 284 282 283
f 277 276 284
f 285 147 151
f 286 283 285
f 287 284 286
f 278 277 287
f 288 151 156
f 289 285 288
f 290 286 289
f 291 287 290
f 279 278 291
f 292 156 162
f 293 288 292
f 294 289 293
f 295 290 294
f 296 291 295
f 280 279 296
f 297 162 169
f 298 292 297
f 299 293 298
f 300 294 299
f 301 295 300
f 302 296 301
f 281 280 302
f 275 142 282
f 282 144 283
f 276 282 284
f 283 147 285
f 284 283 286
f 277 284 287
f 285 151 288
f 286 285 289
f 287 286 290
f 278 287 291
f 288 156 292
f 289 288 293
f 290 289 294
f 291 290 295
f 279 291 296
f 292 162 297
f 293 292 298
f 294 293 299
f 295 294 300
f 296 295 301
f 280 296 302
f 163 120 170
f 303 170 172
f 164 163 303
f 304 172 175
f 305 303 304
f 165 164 305
f 306 175 179
f 307 304 306
f 308 305 307
f 166 165 308
f 309 179 184
f 310 306 309
f 311 307 310
f 312 308 311
f 167 166 312
f 313 184 190
f 314 309 313
f 315 310 314
f 316 311 315
f 317 312 316
f 168 167 317
f 318 190 197
f 319 313 318
f 320 314 319
f 321 315 320
f 322 316 321
f 323 317 322
f 169 168 323
f 163 170 303
f 303 172 304
f 164 303 305
f 304 175 306
f 305 304 307
f 165 305 308
f 306 179 309
f 307 306 310
f 308 307 311
f 166 308 312
f 309 184 313
f 310 309 314
f 311 310 315
f 312 311 316
f 167 312 317
f 313 190 318
f 314 313 319
f 315 314 320
f 316 315 321
f 317 316 322
f 168 317 323
f 191 92 198
f 324 198 200
f 192 191 324
f 325 200 203
f 326 324 325
f 193 192 326
f 327 203 207
f 328 325 327
f 329 326 328
f 194 193 329
f 330 207 212
f 331 327 330
f 332 328 331
f 333 329 332
f 195 194 333
f 334 212 218
f 335 330 334
f 336 331 335
f 337 332 336
f 338 333 337
f 196 195 338
f 339 218 225
f 340 334 339
f 341 335 340
f 342 336 341
f 343 337 342
f 344 338 343
f 197 196 344
f 191 198 324
f 324 200 325
f 192 324 326
f 325 203 327
f 326 325 328
f 193 326 329
f 327 207 330
f 328 327 331
f 329 328 332
f 194 329 333
f 330 212 334
f 331 330 335
f 332 331 336
f 333 332 337
f 195 333 338
f 334 218 339
f 335 334 340
f 336 335 341
f 337 336 342
f 338 337 343
f 196 338 344
f 219 64 226
f 345 226 228
f 220 219 345
f 346 228 231
f 347 345 346
f 221 220 347
f 348 231 235
f 349 346 348
f 350 347 349
f 222 221 350
f 351 235 240
f 352 348 351
f 353 349 352
f 354 350 353
f 223 222 354
f 355 240 246
f 356 351 355
f 357 352 356
f 358 353 357
f 359 354 358
f 224 223 359
f 360 246 253
f 361 355 360
f 362 356 361
f 363 357 362
f 364 358 363
f 365 359 364
f 225 224 365
f 219 226 345
f 345 228 346
f 220 345 347
f 346 231 348
f 347 346 349
f 221 347 350
f 348 235 351
f 349 348 352
f 350 349 353
f 222 350 354
f 351 240 355
f 352 351 356
f 353 352 357
f 354 353 358
f 223 354 359
f 355 246 360
f 356 355 361
f 357 356 362
f 358 357 363
f 359 358 364
f 224 359 365
f 247 36 254
f 366 254 256
f 248 247 366
f 367 256 259
f 368 366 367
f 249 248 368
f 369 259 263
f 370 367 369
f 371 368 370
f 250 249 371
f 372 263 268
f 373 369 372
f 374 370 373
f 375 371 374
f 251 250 375
f 376 268 274
f 377 372 376
f 378 373 377
f 379 374 378
f 380 375 379
f 252 251 380
f 381 274 281
f 382 376 381
f 383 377 382
f 384 378 383
f 385 379 384
f 386 380 385
f 253 252 386
f 247 254 366
f 366 256 367
f 248 366 368
f 367 259 369
f 368 367 370
f 249 368 371
f 369 263 372
f 370 369 373
f 371 370 374
f 250 371 375
f 372 268 376
f 373 372 377
f 374 373 378
f 375 374 379
f 251 375 380
f 376 274 381
f 377 376 382
f 378 377 383
f 379 378 384
f 380 379 385
f 252 380 386
f 389 387 388
f 391 388 390
f 392 389 391
f 394 390 393
f 395 391 394
f 396 392 395
f 398 393 397
f 399 394 398
f 400 395 399
f 401 396 400
f 403 397 402
f 404 398 403
f 405 399 404
f 406 400 405
f 407 401 406
f 409 402 408
f 410 403 409
f 411 404 410
f 412 405 411
f 413 406 412
f 414 407 413
f 302 408 281
f 301 409 302
f 300 410 301
f 299 411 300
f 298 412 299
f 297 413 298
f 169 414 297
f 389 388 391
f 391 390 394
f 392 391 395
f 394 393 398
f 395 394 399
f 396 395 400
f 398 397 403
f 399 398 404
f 400 399 405
f 401 400 406
f 403 402 409
f 404 403 410
f 405 404 411
f 406 405 412
f 407 406 413
f 409 408 302
f 410 409 301
f 411 410 300
f 412 411 299
f 413 412 298
f 414 413 297
f 388 387 415
f 417 415 416
f 390 388 417
f 419 416 418
f 420 417 419
f 393 390 420
f 422 418 421
f 423 419 422
f 424 420 423
f 397 393 424
f 426 421 425
f 427 422 426
f 428 423 427
f 429 424 428
f 402 397 429
f 431 425 430
f 432 426 431
f 433 427 432
f 434 428 433
f 435 429 434
f 408 402 435
f 386 430 253
f 385 431 386
f 384 432 385
f 383 433 384
f 382 434 383
f 381 435 382
f 281 408 381
f 388 415 417
f 417 416 419
f 390 417 420
f 419 418 422
f 420 419 423
f 393 420 424
f 422 421 426
f 423 422 427
f 424 423 428
f 397 424 429
f 426 425 431
f 427 426 432
f 428 427 433
f 429 428 434
f 402 429 435
f 431 430 386
f 432 431 385
f 433 432 384
f 434 433 383
f 435 434 382
f 408 435 381
f 415 387 436
f 438 436 437
f 416 415 438
f 440 437 439
f 441 438 440
f 418 416 441
f 443 439 442
f 444 440 443
f 445 441 444
f 421 418 445
f 447 442 446
f 448 443 447
f 449 444 448
f 450 445 449
f 425 421 450
f 452 446 451
f 453 447 452
f 454 448 453
f 455 449 454
f 456 450 455
f 430 425 456
f 365 451 225
f 364 452 365
f 363 453 364
f 362 454 363
f 361 455 362
f 360 456 361
f 253 430 360
f 415 436 438
f 438 437 440
f 416 438 441
f 440 439 443
f 441 440 444
f 418 441 445
f 443 442 447
f 444 443 448
f 445 444 449
f 421 445 450
f 447 446 452
f 448 447 453
f 449 448 454
f 450 449 455
f 425 450 456
f 452 451 365
f 453 452 364
f 454 453 363
f 455 454 362
f 456 455 361
f 430 456 360
f 436 387 457
f 459 457 458
f 437 436 459
f 461 458 460
f 462 459 461
f 439 437 462
f 464 460 463
f 465 461 464
f 466 462 465
f 442 439 466
f 468 463 467
f 469 464 468
f 470 465 469
f 471 466 470
f 446 442 471
f 473 467 472
f 474 468 473
f 475 469 474
f 476 470 475
f 477 471 476
f 451 446 477
f 344 472 197
f 343 473 344
f 342 474 343
f 341 475 342
f 340 476 341
f 339 477 340
f 225 451 339
f 436 457 459
f 459 458 461
f 437 459 462
f 461 460 464
f 462 461 465
f 439 462 466
f 464 463 468
f 465 464 469
f 466 465 470
f 442 466 471
f 468 467 473
f 469 468 474
f 470 469 475
f 471 470 476
f 446 471 477
f 473 472 344
f 474 473 343
f 475 474 342
f 476 475 341
f 477 476 340
f 451 477 339
f 457 387 389
f 478 389 392
f 458 457 478
f 479 392 396
f 480 478 479
f 460 458 480
f 481 396 401
f 482 479 481
f 483 480 482
f 463 460 483
f 484 401 407
f 485 481 484
f 486 482 485
f 487 483 486
f 467 463 487
f 488 407 414
f 489 484 488
f 490 485 489
f 491 486 490
f 492 487 491
f 472 467 492
f 323 414 169
f 322 488 323
f 321 489 322
f 320 490 321
f 319 491 320
f 318 492 319
f 197 472 318
f 457 389 478
f 478 392 479
f 458 478 480
f 479 396 481
f 480 479 482
f 460 480 483
f 481 401 484
f 482 481 485
f 483 482 486
f 463 483 487
f 484 407 488
f 485 484 489
f 486 485 490
f 487 486 491
f 467 487 492
f 488 414 323
f 489 488 322
f 490 489 321
f 491 490 320
f 492 491 319
f 472 492 318
