# File exported by Houdini 20.5.445 (www.sidefx.com)
# 492 points
# 2940 vertices
# 980 primitives
# Bounds: [-51.8128204, -241.449829, -1069.00098] to [222.586761, 357.826935, -685.799988]
g 
v 85.3869476 58.1885262 -1069.00098
v 85.3869476 105.587097 -1066.60938
v 106.003387 72.835556 -1066.60938
v 85.3869476 151.802658 -1059.49451
v 107.155121 123.700363 -1061.93408
v 126.105194 87.1169128 -1059.49451
v 85.3869476 195.681412 -1047.83374
v 107.831696 170.896774 -1052.28613
v 127.474579 139.691711 -1052.28613
v 145.190643 100.676239 -1047.83374
v 85.3869476 236.127716 -1031.91846
v 108.054657 214.23848 -1038.15979
v 128.116974 186.785431 -1040.09192
v 146.257477 153.548767 -1038.15979
v 162.783112 113.174866 -1031.91846
v 85.3869476 272.13208 -1012.14575
v 107.831696 253.466263 -1019.79553
v 128.116974 229.230133 -1023.39026
v 146.578583 199.901657 -1023.39026
v 163.388824 165.207138 -1019.79553
v 178.443451 124.300812 -1012.14575
v 85.3869476 302.795441 -989.009277
v 107.155121 288.126831 -997.233398
v 127.474579 267.421631 -1002.02515
v 146.257477 241.379807 -1003.59888
v 163.388824 210.367599 -1002.02527
v 178.673737 174.510986 -997.233398
v 191.780731 133.776367 -989.009399
v 85.3869476 327.352356 -963.086792
v 106.003387 317.442444 -970.358276
v 126.105194 301.060455 -975.309204
v 145.190643 278.615417 -977.815918
v 162.783112 250.66774 -977.815918
v 178.443451 217.915009 -975.309204
v 191.780731 181.174911 -970.358276
v 202.461945 141.364853 -963.086792
v 98.1285706 19.8422718 -1066.60938
v 120.608551 33.1651993 -1061.93408
v 110.552216 -17.5468445 -1059.49451
v 141.346161 46.3429184 -1052.28613
v 133.843231 -4.14794159 -1052.28613
v 122.347626 -53.0454407 -1047.83374
v 160.266876 59.2725563 -1038.15979
v 154.525543 9.06890869 -1040.09192
v 145.674713 -38.9255104 -1038.15991
v 133.220367 -85.7673035 -1031.91846
v 177.260406 71.8583374 -1019.79553
v 172.987213 22.1850185 -1023.39026
v 165.935455 -25.2695045 -1023.39026
v 156.039459 -70.9480591 -1019.79553
v 142.899078 -114.895416 -1012.14575
v 192.127228 83.9758759 -997.233398
v 189.400421 35.3228607 -1002.02527
v 183.877594 -11.7842255 -1003.599
v 175.682404 -56.992691 -1002.02527
v 164.80954 -99.8585052 -997.233398
v 151.141937 -139.70253 -989.009399
v 204.522369 95.430069 -970.358276
v 203.608734 48.565403 -975.309204
v 199.743805 1.94075394 -977.815918
v 193.024139 -43.2796783 -977.815918
v 183.61734 -85.9670258 -975.309204
v 171.758392 -125.055573 -970.358276
v 157.743317 -159.569595 -963.086792
v 72.64534 19.8422718 -1066.60938
v 85.3869476 -22.7885361 -1061.93408
v 60.2216949 -17.5468445 -1059.49451
v 97.526947 -61.8407135 -1052.28613
v 73.246994 -61.8407135 -1052.28613
v 48.4262848 -53.0454407 -1047.83374
v 108.997589 -97.1915131 -1038.15979
v 85.3869476 -100.765915 -1040.09192
v 61.7763214 -97.1915131 -1038.15979
v 37.5535431 -85.7673035 -1031.91846
v 119.723175 -128.640839 -1019.79553
v 96.7969055 -135.104416 -1023.39026
v 73.9770355 -135.104416 -1023.39026
v 51.0507355 -128.640839 -1019.79553
v 27.8748932 -114.895416 -1012.14575
v 129.587921 -155.812317 -997.233398
v 107.583221 -165.176514 -1002.02527
v 85.3869476 -168.248291 -1003.59888
v 63.1907196 -165.176514 -1002.02527
v 41.1860199 -155.812317 -997.233398
v 19.6319733 -139.70253 -989.009399
v 138.400299 -178.048859 -970.358276
v 117.733795 -190.630875 -975.309204
v 96.2597351 -197.001358 -977.815918
v 74.5142059 -197.001358 -977.815918
v 53.0401459 -190.630875 -975.309204
v 32.373642 -178.048859 -970.358276
v 13.0306244 -159.569595 -963.086792
v 64.7705536 72.835556 -1066.60938
v 50.1652985 33.1651993 -1061.93408
v 44.6687164 87.1169128 -1059.49451
v 36.9307098 -4.14794159 -1052.28613
v 29.4278107 46.3429184 -1052.28613
v 25.5833282 100.676239 -1047.83374
v 25.0992584 -38.9255104 -1038.15991
v 16.2483978 9.06890869 -1040.09192
v 10.5070648 59.2725563 -1038.15979
v 7.99082947 113.174866 -1031.91846
v 14.7344513 -70.9480591 -1019.79553
v 4.8384552 -25.2695045 -1023.39026
v -2.21327209 22.1850185 -1023.39026
v -6.48649597 71.8583374 -1019.79553
v -7.66954041 124.300812 -1012.14575
v 5.96437073 -99.8585052 -997.233398
v -4.90843201 -56.992691 -1002.02527
v -13.1035919 -11.7842255 -1003.599
v -18.6264801 35.3228607 -1002.02527
v -21.3533173 83.9758759 -997.233398
v -21.0068207 133.776367 -989.009399
v -0.984420776 -125.055573 -970.358276
v -12.8433685 -85.9670258 -975.309204
v -22.2501373 -43.2796783 -977.815918
v -28.9698639 1.94075394 -977.815918
v -32.8347931 48.565403 -975.309204
v -33.7484283 95.430069 -970.358276
v -31.6880646 141.364853 -963.086792
v 63.6187897 123.700363 -1061.93408
v 43.2993622 139.691711 -1052.28613
v 62.9422455 170.896774 -1052.28613
v 24.5164642 153.548767 -1038.15979
v 42.6569672 186.785431 -1040.09192
v 62.7192841 214.23848 -1038.15979
v 7.38508606 165.207138 -1019.79553
v 24.1953278 199.901657 -1023.39026
v 42.6569672 229.230133 -1023.39026
v 62.9422455 253.466263 -1019.79553
v -7.89982605 174.510986 -997.233398
v 7.38508606 210.367599 -1002.02527
v 24.5164642 241.379807 -1003.59888
v 43.2993622 267.421631 -1002.02515
v 63.6187897 288.126831 -997.233398
v -21.0067902 181.174911 -970.358276
v -7.66954041 217.915009 -975.309204
v 7.99082947 250.66774 -977.815918
v 25.5833282 278.615417 -977.815918
v 44.6687164 301.060455 -975.309204
v 64.7705536 317.442444 -970.358276
v 72.64534 341.141663 -940.180298
v 50.1652985 328.615326 -945.676392
v 60.2216949 347.867493 -915.706543
v 29.4278107 309.168457 -948.865967
v 36.9307098 331.748688 -920.112915
v 48.4262848 347.361755 -890.276306
v 10.5070648 283.541443 -949.911499
v 16.2484283 308.707275 -922.186157
v 25.0992584 327.456848 -893.990845
v 37.5535431 339.637207 -864.524719
v -6.48646545 252.114365 -948.865967
v -2.21321106 279.378784 -922.186157
v 4.83848572 300.601105 -895.162231
v 14.7344818 315.979279 -867.542236
v 27.8748932 324.886627 -839.094482
v -21.3532867 214.999573 -945.676392
v -18.6264191 243.489502 -920.112915
v -13.1035309 266.76709 -893.990723
v -4.90840149 284.7742 -867.542236
v 5.96440125 297.212677 -840.988525
v 19.6320038 303.478241 -814.620728
v -33.7483978 172.122574 -940.180298
v -32.8347626 200.03624 -915.706543
v -28.9698029 224.408875 -890.276306
v -22.2501068 244.631989 -864.524719
v -12.843338 260.200867 -839.094482
v -0.984420776 270.726624 -814.620728
v 13.0306244 275.946594 -791.714233
v -41.6232147 119.129333 -940.180298
v -43.1214752 68.5105743 -945.676392
v -48.3877716 95.3724365 -915.706543
v -41.0711823 19.3768692 -948.865967
v -48.5740814 41.9570656 -920.113037
v -51.8128204 70.6871948 -890.276306
v -35.771286 -27.8885994 -949.911621
v -44.943222 -8.17253876 -922.186279
v -50.3634186 16.0268917 -893.990845
v -51.8128204 45.6899414 -864.524719
v -27.3531342 -72.9385834 -948.865967
v -37.8914948 -55.6271515 -922.186279
v -44.943222 -34.4048462 -895.162231
v -48.5740509 -9.07368851 -867.542236
v -48.3877716 21.0046635 -839.094482
v -15.8038177 -115.323807 -945.676392
v -27.3531342 -100.849335 -920.113037
v -35.7712555 -82.1711731 -893.990845
v -41.0711212 -59.5646362 -867.542236
v -43.1214752 -33.1106796 -840.988525
v -41.6232147 -2.75229263 -814.620728
v -0.984420776 -154.349548 -940.180298
v -12.843338 -143.823822 -915.706543
v -22.2501068 -128.255005 -890.276306
v -28.9698029 -108.031815 -864.524719
v -32.8347626 -83.6591797 -839.094543
v -33.7483978 -55.7454834 -814.620728
v -31.6880646 -24.9878159 -791.714233
v 19.6320038 -187.101135 -940.180298
v 41.1860504 -205.858871 -945.676392
v 27.8748932 -208.509476 -915.706543
v 63.1907196 -216.778381 -948.865967
v 51.050766 -225.403198 -920.112915
v 37.5535431 -223.260086 -890.276306
v 85.3869476 -220.3629 -949.911621
v 73.9770355 -233.343658 -922.186157
v 61.7763214 -237.137085 -893.990845
v 48.4262848 -230.984695 -864.524719
v 107.583221 -216.778381 -948.865967
v 96.7969055 -233.343658 -922.186157
v 85.3869476 -241.449829 -895.162231
v 73.246994 -241.172485 -867.542236
v 60.2216949 -231.490417 -839.094482
v 129.587921 -205.858871 -945.676392
v 119.723175 -225.403198 -920.112915
v 108.997589 -237.137085 -893.990845
v 97.526947 -241.172485 -867.542236
v 85.3869476 -237.261414 -840.988525
v 72.64534 -224.764694 -814.620728
v 151.141937 -187.101135 -940.180298
v 142.899078 -208.509476 -915.706543
v 133.220367 -223.260086 -890.276306
v 122.347626 -230.984695 -864.524719
v 110.552216 -231.490417 -839.094482
v 98.1285706 -224.764694 -814.620728
v 85.3869476 -210.975235 -791.714233
v 171.758392 -154.349548 -940.180298
v 186.577728 -115.323807 -945.676392
v 183.617279 -143.823822 -915.706543
v 198.127045 -72.9385834 -948.865967
v 198.127045 -100.849335 -920.113037
v 193.024078 -128.255005 -890.276306
v 206.545197 -27.8885994 -949.911621
v 208.665436 -55.6271515 -922.186279
v 206.545135 -82.1711731 -893.990845
v 199.743805 -108.031815 -864.524719
v 211.845062 19.3768692 -948.865967
v 215.717133 -8.17253876 -922.186279
v 215.717133 -34.4048462 -895.162231
v 211.845062 -59.5646362 -867.542236
v 203.608673 -83.6591797 -839.094543
v 213.895416 68.5105743 -945.676392
v 219.348053 41.9570656 -920.113037
v 221.137421 16.0268917 -893.990845
v 219.347992 -9.07368851 -867.542236
v 213.895416 -33.1106796 -840.988525
v 204.522369 -55.7454834 -814.620728
v 212.397125 119.129333 -940.180298
v 219.161713 95.3724365 -915.706543
v 222.586761 70.6871948 -890.276306
v 222.586761 45.6899414 -864.524719
v 219.161713 21.0046635 -839.094482
v 212.397125 -2.75229263 -814.620728
v 202.461945 -24.9878159 -791.714233
v 204.522369 172.122574 -940.180298
v 192.127228 214.999573 -945.676392
v 203.608673 200.03624 -915.706543
v 177.260406 252.114365 -948.865967
v 189.40036 243.489502 -920.112915
v 199.743805 224.408875 -890.276306
v 160.266876 283.541443 -949.911499
v 172.987152 279.378784 -922.186157
v 183.877533 266.76709 -893.990723
v 193.024078 244.631989 -864.524719
v 141.346161 309.168457 -948.865967
v 154.525543 308.707275 -922.186157
v 165.935394 300.601105 -895.162231
v 175.682343 284.7742 -867.542236
v 183.617279 260.200867 -839.094482
v 120.608612 328.615326 -945.676392
v 133.843231 331.748688 -920.112915
v 145.674713 327.456848 -893.990845
v 156.039459 315.979279 -867.542236
v 164.80954 297.212677 -840.988525
v 171.758392 270.726624 -814.620728
v 98.1285706 341.141663 -940.180298
v 110.552216 347.867493 -915.706543
v 122.347626 347.361755 -890.276306
v 133.220367 339.637207 -864.524719
v 142.899078 324.886627 -839.094482
v 151.141937 303.478241 -814.620728
v 157.743317 275.946594 -791.714233
v 85.3869476 353.63858 -913.8125
v 73.246994 357.549622 -887.258789
v 97.526947 357.549622 -887.258789
v 61.7763214 353.51413 -860.810181
v 85.3869476 357.826935 -859.638794
v 108.997589 353.51413 -860.810181
v 51.050766 341.780304 -834.688049
v 73.9770355 349.720703 -832.614807
v 96.7969055 349.720703 -832.614807
v 119.723175 341.780304 -834.688049
v 41.1860504 322.235992 -809.124634
v 63.1907196 333.155426 -805.935059
v 85.3869476 336.73996 -804.889526
v 107.583221 333.155426 -805.935059
v 129.587921 322.235992 -809.124634
v 32.373642 294.425903 -784.442749
v 53.0401459 307.007935 -779.491821
v 74.5142059 313.378479 -776.985107
v 96.2597351 313.378479 -776.985107
v 117.733795 307.007935 -779.491821
v 138.400299 294.425903 -784.442749
v -43.1214752 149.487701 -913.8125
v -48.5740509 125.450775 -887.258789
v -41.0711212 175.941666 -887.258789
v -50.3634186 100.350143 -860.810181
v -44.943222 150.781891 -859.638794
v -35.7712555 198.548218 -860.810181
v -48.5740814 74.4199677 -834.688049
v -44.943222 124.549637 -832.614807
v -37.8914948 172.004196 -832.614807
v -27.3531036 217.226349 -834.688049
v -43.1214752 47.8664742 -809.124634
v -41.0711823 97.0001831 -805.935059
v -35.771286 144.265625 -804.889526
v -27.3531342 189.315674 -805.935059
v -15.8038177 231.700836 -809.124634
v -33.7484283 20.9470196 -784.442749
v -32.8347931 67.8117371 -779.491821
v -28.9698639 114.436249 -776.985046
v -22.2501373 159.656738 -776.985046
v -12.8433685 202.34407 -779.491821
v -0.984420776 241.432663 -784.442749
v 5.96440125 -180.835632 -913.8125
v 14.7344818 -199.602219 -887.258789
v -4.90840149 -168.397125 -887.258789
v 25.0992584 -211.079849 -860.810181
v 4.83848572 -184.224045 -859.638794
v -13.1035309 -150.39006 -860.810181
v 36.9307098 -215.371597 -834.68811
v 16.2484283 -192.330307 -832.614807
v -2.21321106 -163.00174 -832.614807
v -18.6264191 -127.112411 -834.68811
v 50.1652985 -212.238205 -809.124695
v 29.4278107 -192.791397 -805.93512
v 10.5070648 -167.164352 -804.889587
v -6.48646545 -135.73732 -805.93512
v -21.3532867 -98.6225281 -809.124634
v 64.7705536 -201.065369 -784.442749
v 44.6687164 -184.68335 -779.491882
v 25.5833282 -162.238449 -776.985107
v 7.99082947 -134.290649 -776.985107
v -7.66954041 -101.537964 -779.491821
v -21.0067902 -64.7978592 -784.442749
v 164.80954 -180.835632 -913.8125
v 175.682343 -168.397125 -887.258789
v 156.039459 -199.602219 -887.258789
v 183.877533 -150.39006 -860.810181
v 165.935394 -184.224045 -859.638794
v 145.674713 -211.079849 -860.810181
v 189.40036 -127.112411 -834.688049
v 172.987152 -163.00174 -832.614807
v 154.525543 -192.330307 -832.614807
v 133.843231 -215.371597 -834.68811
v 192.127228 -98.6225281 -809.124634
v 177.260406 -135.73732 -805.93512
v 160.266876 -167.164352 -804.889587
v 141.346161 -192.791397 -805.93512
v 120.608612 -212.238281 -809.124695
v 191.780731 -64.7978592 -784.442749
v 178.443451 -101.537964 -779.491821
v 162.783112 -134.290649 -776.985107
v 145.190643 -162.238449 -776.985107
v 126.105194 -184.68335 -779.491882
v 106.003387 -201.065369 -784.442749
v 213.895416 149.487701 -913.8125
v 211.845062 175.941666 -887.258789
v 219.347992 125.450775 -887.258789
v 206.545135 198.548218 -860.810181
v 215.717133 150.781891 -859.638794
v 221.137421 100.350143 -860.810181
v 198.127045 217.226349 -834.688049
v 208.665436 172.004196 -832.614807
v 215.717133 124.549637 -832.614807
v 219.348053 74.4199677 -834.688049
v 186.577728 231.700806 -809.124634
v 198.127045 189.315674 -805.935059
v 206.545197 144.265625 -804.889526
v 211.845062 97.0001831 -805.935059
v 213.895416 47.8664742 -809.124634
v 171.758392 241.432663 -784.442749
v 183.61734 202.34407 -779.491821
v 193.024139 159.656738 -776.985046
v 199.743805 114.436249 -776.985046
v 203.608734 67.8117371 -779.491821
v 204.522369 20.9470196 -784.442749
v 85.3869476 58.1885262 -685.799988
v 98.1285706 96.5347748 -688.191528
v 72.64534 96.5347748 -688.191528
v 110.552216 133.923889 -695.306396
v 85.3869476 139.165573 -692.866943
v 60.2216949 133.923889 -695.306396
v 122.347626 169.422531 -706.967102
v 97.526947 178.217758 -702.514893
v 73.246994 178.217758 -702.514893
v 48.4262848 169.422531 -706.967102
v 133.220367 202.144379 -722.882446
v 108.997589 213.568542 -716.641174
v 85.3869476 217.143005 -714.709106
v 61.7763214 213.568542 -716.641174
v 37.5535431 202.144379 -722.882446
v 142.899078 231.272461 -742.655212
v 119.723175 245.017883 -735.005493
v 96.7969055 251.481461 -731.410767
v 73.9770355 251.481461 -731.410767
v 51.0507355 245.017914 -735.005493
v 27.8748932 231.272461 -742.655212
v 151.141937 256.07959 -765.791687
v 129.587921 272.189331 -757.567627
v 107.583221 281.553467 -752.775757
v 85.3869476 284.625397 -751.202087
v 63.1907196 281.553467 -752.775757
v 41.1860199 272.189331 -757.567688
v 19.6319733 256.07959 -765.791687
v 106.003387 43.5414886 -688.191528
v 126.105194 29.2601318 -695.306396
v 120.608551 83.2118378 -692.866943
v 145.190643 15.7008171 -706.967102
v 141.346161 70.0341339 -702.514893
v 133.843231 120.525009 -702.514893
v 162.783112 3.20223236 -722.882446
v 160.266876 57.1044922 -716.641174
v 154.525543 107.308136 -714.709106
v 145.674713 155.302551 -716.641174
v 178.443451 -7.92372513 -742.655212
v 177.260406 44.5187035 -735.005493
v 172.987213 94.1920319 -731.410767
v 165.935455 141.646591 -731.410767
v 156.039459 187.325119 -735.005493
v 191.780731 -17.3993225 -765.791687
v 192.127228 32.4011688 -757.567627
v 189.400421 81.0542755 -752.775757
v 183.877594 128.16127 -751.202087
v 175.682404 173.369766 -752.775757
v 164.80954 216.23555 -757.567627
v 85.3869476 10.7899857 -688.191528
v 85.3869476 -35.4256134 -695.306396
v 107.155121 -7.32332611 -692.866943
v 85.3869476 -79.3043671 -706.967102
v 107.831696 -54.5197296 -702.514893
v 127.474579 -23.3147125 -702.514893
v 85.3869476 -119.750626 -722.882446
v 108.054657 -97.8614349 -716.641235
v 128.116974 -70.4083481 -714.709167
v 146.257477 -37.1717453 -716.641174
v 85.3869476 -155.754959 -742.655212
v 107.831696 -137.089218 -735.005493
v 128.116974 -112.853058 -731.410828
v 146.578583 -83.5245514 -731.410828
v 163.388824 -48.8300476 -735.005493
v 85.3869476 -186.418259 -765.791687
v 107.155121 -171.749756 -757.567688
v 127.474579 -151.044601 -752.775818
v 146.257477 -125.002823 -751.202148
v 163.388824 -93.9905396 -752.775818
v 178.673737 -58.1339035 -757.567688
v 64.7705536 43.5414886 -688.191528
v 44.6687164 29.2601318 -695.306396
v 63.6187897 -7.32332611 -692.866943
v 25.5833282 15.7008171 -706.967102
v 43.2993622 -23.3147125 -702.514893
v 62.9422455 -54.5197296 -702.514893
v 7.99082947 3.20223236 -722.882446
v 24.5164642 -37.1717453 -716.641174
v 42.6569672 -70.4083481 -714.709167
v 62.7192841 -97.8614349 -716.641235
v -7.66954041 -7.92372513 -742.655212
v 7.38508606 -48.8300476 -735.005493
v 24.1953278 -83.5245514 -731.410828
v 42.6569672 -112.853058 -731.410828
v 62.9422455 -137.089218 -735.005493
v -21.0068207 -17.3993225 -765.791687
v -7.89982605 -58.1339035 -757.567688
v 7.38508606 -93.9905396 -752.775818
v 24.5164642 -125.002823 -751.202148
v 43.2993622 -151.044601 -752.775818
v 63.6187897 -171.749756 -757.567688
v 50.1652985 83.2118378 -692.866943
v 36.9307098 120.525009 -702.514893
v 29.4278107 70.0341339 -702.514893
v 25.0992584 155.302551 -716.641174
v 16.2483978 107.308136 -714.709106
v 10.5070648 57.1044922 -716.641174
v 14.7344513 187.325119 -735.005493
v 4.8384552 141.646591 -731.410767
v -2.21327209 94.1920319 -731.410767
v -6.48649597 44.5187035 -735.005493
v 5.96437073 216.23555 -757.567627
v -4.90843201 173.369766 -752.775757
v -13.1035919 128.16127 -751.202087
v -18.6264801 81.0542755 -752.775757
v -21.3533173 32.4011688 -757.567627
g 
f 3 1 2
f 5 2 4
f 6 3 5
f 8 4 7
f 9 5 8
f 10 6 9
f 12 7 11
f 13 8 12
f 14 9 13
f 15 10 14
f 17 11 16
f 18 12 17
f 19 13 18
f 20 14 19
f 21 15 20
f 23 16 22
f 24 17 23
f 25 18 24
f 26 19 25
f 27 20 26
f 28 21 27
f 30 22 29
f 31 23 30
f 32 24 31
f 33 25 32
f 34 26 33
f 35 27 34
f 36 28 35
f 3 2 5
f 5 4 8
f 6 5 9
f 8 7 12
f 9 8 13
f 10 9 14
f 12 11 17
f 13 12 18
f 14 13 19
f 15 14 20
f 17 16 23
f 18 17 24
f 19 18 25
f 20 19 26
f 21 20 27
f 23 22 30
f 24 23 31
f 25 24 32
f 26 25 33
f 27 26 34
f 28 27 35
f 37 1 3
f 38 3 6
f 39 37 38
f 40 6 10
f 41 38 40
f 42 39 41
f 43 10 15
f 44 40 43
f 45 41 44
f 46 42 45
f 47 15 21
f 48 43 47
f 49 44 48
f 50 45 49
f 51 46 50
f 52 21 28
f 53 47 52
f 54 48 53
f 55 49 54
f 56 50 55
f 57 51 56
f 58 28 36
f 59 52 58
f 60 53 59
f 61 54 60
f 62 55 61
f 63 56 62
f 64 57 63
f 37 3 38
f 38 6 40
f 39 38 41
f 40 10 43
f 41 40 44
f 42 41 45
f 43 15 47
f 44 43 48
f 45 44 49
f 46 45 50
f 47 21 52
f 48 47 53
f 49 48 54
f 50 49 55
f 51 50 56
f 52 28 58
f 53 52 59
f 54 53 60
f 55 54 61
f 56 55 62
f 57 56 63
f 65 1 37
f 66 37 39
f 67 65 66
f 68 39 42
f 69 66 68
f 70 67 69
f 71 42 46
f 72 68 71
f 73 69 72
f 74 70 73
f 75 46 51
f 76 71 75
f 77 72 76
f 78 73 77
f 79 74 78
f 80 51 57
f 81 75 80
f 82 76 81
f 83 77 82
f 84 78 83
f 85 79 84
f 86 57 64
f 87 80 86
f 88 81 87
f 89 82 88
f 90 83 89
f 91 84 90
f 92 85 91
f 65 37 66
f 66 39 68
f 67 66 69
f 68 42 71
f 69 68 72
f 70 69 73
f 71 46 75
f 72 71 76
f 73 72 77
f 74 73 78
f 75 51 80
f 76 75 81
f 77 76 82
f 78 77 83
f 79 78 84
f 80 57 86
f 81 80 87
f 82 81 88
f 83 82 89
f 84 83 90
f 85 84 91
f 93 1 65
f 94 65 67
f 95 93 94
f 96 67 70
f 97 94 96
f 98 95 97
f 99 70 74
f 100 96 99
f 101 97 100
f 102 98 101
f 103 74 79
f 104 99 103
f 105 100 104
f 106 101 105
f 107 102 106
f 108 79 85
f 109 103 108
f 110 104 109
f 111 105 110
f 112 106 111
f 113 107 112
f 114 85 92
f 115 108 114
f 116 109 115
f 117 110 116
f 118 111 117
f 119 112 118
f 120 113 119
f 93 65 94
f 94 67 96
f 95 94 97
f 96 70 99
f 97 96 100
f 98 97 101
f 99 74 103
f 100 99 104
f 101 100 105
f 102 101 106
f 103 79 108
f 104 103 109
f 105 104 110
f 106 105 111
f 107 106 112
f 108 85 114
f 109 108 115
f 110 109 116
f 111 110 117
f 112 111 118
f 113 112 119
f 2 1 93
f 121 93 95
f 4 2 121
f 122 95 98
f 123 121 122
f 7 4 123
f 124 98 102
f 125 122 124
f 126 123 125
f 11 7 126
f 127 102 107
f 128 124 127
f 129 125 128
f 130 126 129
f 16 11 130
f 131 107 113
f 132 127 131
f 133 128 132
f 134 129 133
f 135 130 134
f 22 16 135
f 136 113 120
f 137 131 136
f 138 132 137
f 139 133 138
f 140 134 139
f 141 135 140
f 29 22 141
f 2 93 121
f 121 95 122
f 4 121 123
f 122 98 124
f 123 122 125
f 7 123 126
f 124 102 127
f 125 124 128
f 126 125 129
f 11 126 130
f 127 107 131
f 128 127 132
f 129 128 133
f 130 129 134
f 16 130 135
f 131 113 136
f 132 131 137
f 133 132 138
f 134 133 139
f 135 134 140
f 22 135 141
f 142 29 141
f 143 141 140
f 144 142 143
f 145 140 139
f 146 143 145
f 147 144 146
f 148 139 138
f 149 145 148
f 150 146 149
f 151 147 150
f 152 138 137
f 153 148 152
f 154 149 153
f 155 150 154
f 156 151 155
f 157 137 136
f 158 152 157
f 159 153 158
f 160 154 159
f 161 155 160
f 162 156 161
f 163 136 120
f 164 157 163
f 165 158 164
f 166 159 165
f 167 160 166
f 168 161 167
f 169 162 168
f 142 141 143
f 143 140 145
f 144 143 146
f 145 139 148
f 146 145 149
f 147 146 150
f 148 138 152
f 149 148 153
f 150 149 154
f 151 150 155
f 152 137 157
f 153 152 158
f 154 153 159
f 155 154 160
f 156 155 161
f 157 136 163
f 158 157 164
f 159 158 165
f 160 159 166
f 161 160 167
f 162 161 168
f 170 120 119
f 171 119 118
f 172 170 171
f 173 118 117
f 174 171 173
f 175 172 174
f 176 117 116
f 177 173 176
f 178 174 177
f 179 175 178
f 180 116 115
f 181 176 180
f 182 177 181
f 183 178 182
f 184 179 183
f 185 115 114
f 186 180 185
f 187 181 186
f 188 182 187
f 189 183 188
f 190 184 189
f 191 114 92
f 192 185 191
f 193 186 192
f 194 187 193
f 195 188 194
f 196 189 195
f 197 190 196
f 170 119 171
f 171 118 173
f 172 171 174
f 173 117 176
f 174 173 177
f 175 174 178
f 176 116 180
f 177 176 181
f 178 177 182
f 179 178 183
f 180 115 185
f 181 180 186
f 182 181 187
f 183 182 188
f 184 183 189
f 185 114 191
f 186 185 192
f 187 186 193
f 188 187 194
f 189 188 195
f 190 189 196
f 198 92 91
f 199 91 90
f 200 198 199
f 201 90 89
f 202 199 201
f 203 200 202
f 204 89 88
f 205 201 204
f 206 202 205
f 207 203 206
f 208 88 87
f 209 204 208
f 210 205 209
f 211 206 210
f 212 207 211
f 213 87 86
f 214 208 213
f 215 209 214
f 216 210 215
f 217 211 216
f 218 212 217
f 219 86 64
f 220 213 219
f 221 214 220
f 222 215 221
f 223 216 222
f 224 217 223
f 225 218 224
f 198 91 199
f 199 90 201
f 200 199 202
f 201 89 204
f 202 201 205
f 203 202 206
f 204 88 208
f 205 204 209
f 206 205 210
f 207 206 211
f 208 87 213
f 209 208 214
f 210 209 215
f 211 210 216
f 212 211 217
f 213 86 219
f 214 213 220
f 215 214 221
f 216 215 222
f 217 216 223
f 218 217 224
f 226 64 63
f 227 63 62
f 228 226 227
f 229 62 61
f 230 227 229
f 231 228 230
f 232 61 60
f 233 229 232
f 234 230 233
f 235 231 234
f 236 60 59
f 237 232 236
f 238 233 237
f 239 234 238
f 240 235 239
f 241 59 58
f 242 236 241
f 243 237 242
f 244 238 243
f 245 239 244
f 246 240 245
f 247 58 36
f 248 241 247
f 249 242 248
f 250 243 249
f 251 244 250
f 252 245 251
f 253 246 252
f 226 63 227
f 227 62 229
f 228 227 230
f 229 61 232
f 230 229 233
f 231 230 234
f 232 60 236
f 233 232 237
f 234 233 238
f 235 234 239
f 236 59 241
f 237 236 242
f 238 237 243
f 239 238 244
f 240 239 245
f 241 58 247
f 242 241 248
f 243 242 249
f 244 243 250
f 245 244 251
f 246 245 252
f 254 36 35
f 255 35 34
f 256 254 255
f 257 34 33
f 258 255 257
f 259 256 258
f 260 33 32
f 261 257 260
f 262 258 261
f 263 259 262
f 264 32 31
f 265 260 264
f 266 261 265
f 267 262 266
f 268 263 267
f 269 31 30
f 270 264 269
f 271 265 270
f 272 266 271
f 273 267 272
f 274 268 273
f 275 30 29
f 276 269 275
f 277 270 276
f 278 271 277
f 279 272 278
f 280 273 279
f 281 274 280
f 254 35 255
f 255 34 257
f 256 255 258
f 257 33 260
f 258 257 261
f 259 258 262
f 260 32 264
f 261 260 265
f 262 261 266
f 263 262 267
f 264 31 269
f 265 264 270
f 266 265 271
f 267 266 272
f 268 267 273
f 269 30 275
f 270 269 276
f 271 270 277
f 272 271 278
f 273 272 279
f 274 273 280
f 275 29 142
f 282 142 144
f 276 275 282
f 283 144 147
f 284 282 283
f 277 276 284
f 285 147 151
f 286 283 285
f 287 284 286
f 278 277 287
f 288 151 156
f 289 285 288
f 290 286 289
f 291 287 290
f 279 278 291
f 292 156 162
f 293 288 292
f 294 289 293
f 295 290 294
f 296 291 295
f 280 279 296
f 297 162 169
f 298 292 297
f 299 293 298
f 300 294 299
f 301 295 300
f 302 296 301
f 281 280 302
f 275 142 282
f 282 144 283
f 276 282 284
f 283 147 285
f 284 283 286
f 277 284 287
f 285 151 288
f 286 285 289
f 287 286 290
f 278 287 291
f 288 156 292
f 289 288 293
f 290 289 294
f 291 290 295
f 279 291 296
f 292 162 297
f 293 292 298
f 294 293 299
f 295 294 300
f 296 295 301
f 280 296 302
f 163 120 170
f 303 170 172
f 164 163 303
f 304 172 175
f 305 303 304
f 165 164 305
f 306 175 179
f 307 304 306
f 308 305 307
f 166 165 308
f 309 179 184
f 310 306 309
f 311 307 310
f 312 308 311
f 167 166 312
f 313 184 190
f 314 309 313
f 315 310 314
f 316 311 315
f 317 312 316
f 168 167 317
f 318 190 197
f 319 313 318
f 320 314 319
f 321 315 320
f 322 316 321
f 323 317 322
f 169 168 323
f 163 170 303
f 303 172 304
f 164 303 305
f 304 175 306
f 305 304 307
f 165 305 308
f 306 179 309
f 307 306 310
f 308 307 311
f 166 308 312
f 309 184 313
f 310 309 314
f 311 310 315
f 312 311 316
f 167 312 317
f 313 190 318
f 314 313 319
f 315 314 320
f 316 315 321
f 317 316 322
f 168 317 323
f 191 92 198
f 324 198 200
f 192 191 324
f 325 200 203
f 326 324 325
f 193 192 326
f 327 203 207
f 328 325 327
f 329 326 328
f 194 193 329
f 330 207 212
f 331 327 330
f 332 328 331
f 333 329 332
f 195 194 333
f 334 212 218
f 335 330 334
f 336 331 335
f 337 332 336
f 338 333 337
f 196 195 338
f 339 218 225
f 340 334 339
f 341 335 340
f 342 336 341
f 343 337 342
f 344 338 343
f 197 196 344
f 191 198 324
f 324 200 325
f 192 324 326
f 325 203 327
f 326 325 328
f 193 326 329
f 327 207 330
f 328 327 331
f 329 328 332
f 194 329 333
f 330 212 334
f 331 330 335
f 332 331 336
f 333 332 337
f 195 333 338
f 334 218 339
f 335 334 340
f 336 335 341
f 337 336 342
f 338 337 343
f 196 338 344
f 219 64 226
f 345 226 228
f 220 219 345
f 346 228 231
f 347 345 346
f 221 220 347
f 348 231 235
f 349 346 348
f 350 347 349
f 222 221 350
f 351 235 240
f 352 348 351
f 353 349 352
f 354 350 353
f 223 222 354
f 355 240 246
f 356 351 355
f 357 352 356
f 358 353 357
f 359 354 358
f 224 223 359
f 360 246 253
f 361 355 360
f 362 356 361
f 363 357 362
f 364 358 363
f 365 359 364
f 225 224 365
f 219 226 345
f 345 228 346
f 220 345 347
f 346 231 348
f 347 346 349
f 221 347 350
f 348 235 351
f 349 348 352
f 350 349 353
f 222 350 354
f 351 240 355
f 352 351 356
f 353 352 357
f 354 353 358
f 223 354 359
f 355 246 360
f 356 355 361
f 357 356 362
f 358 357 363
f 359 358 364
f 224 359 365
f 247 36 254
f 366 254 256
f 248 247 366
f 367 256 259
f 368 366 367
f 249 248 368
f 369 259 263
f 370 367 369
f 371 368 370
f 250 249 371
f 372 263 268
f 373 369 372
f 374 370 373
f 375 371 374
f 251 250 375
f 376 268 274
f 377 372 376
f 378 373 377
f 379 374 378
f 380 375 379
f 252 251 380
f 381 274 281
f 382 376 381
f 383 377 382
f 384 378 383
f 385 379 384
f 386 380 385
f 253 252 386
f 247 254 366
f 366 256 367
f 248 366 368
f 367 259 369
f 368 367 370
f 249 368 371
f 369 263 372
f 370 369 373
f 371 370 374
f 250 371 375
f 372 268 376
f 373 372 377
f 374 373 378
f 375 374 379
f 251 375 380
f 376 274 381
f 377 376 382
f 378 377 383
f 379 378 384
f 380 379 385
f 252 380 386
f 389 387 388
f 391 388 390
f 392 389 391
f 394 390 393
f 395 391 394
f 396 392 395
f 398 393 397
f 399 394 398
f 400 395 399
f 401 396 400
f 403 397 402
f 404 398 403
f 405 399 404
f 406 400 405
f 407 401 406
f 409 402 408
f 410 403 409
f 411 404 410
f 412 405 411
f 413 406 412
f 414 407 413
f 302 408 281
f 301 409 302
f 300 410 301
f 299 411 300
f 298 412 299
f 297 413 298
f 169 414 297
f 389 388 391
f 391 390 394
f 392 391 395
f 394 393 398
f 395 394 399
f 396 395 400
f 398 397 403
f 399 398 404
f 400 399 405
f 401 400 406
f 403 402 409
f 404 403 410
f 405 404 411
f 406 405 412
f 407 406 413
f 409 408 302
f 410 409 301
f 411 410 300
f 412 411 299
f 413 412 298
f 414 413 297
f 388 387 415
f 417 415 416
f 390 388 417
f 419 416 418
f 420 417 419
f 393 390 420
f 422 418 421
f 423 419 422
f 424 420 423
f 397 393 424
f 426 421 425
f 427 422 426
f 428 423 427
f 429 424 428
f 402 397 429
f 431 425 430
f 432 426 431
f 433 427 432
f 434 428 433
f 435 429 434
f 408 402 435
f 386 430 253
f 385 431 386
f 384 432 385
f 383 433 384
f 382 434 383
f 381 435 382
f 281 408 381
f 388 415 417
f 417 416 419
f 390 417 420
f 419 418 422
f 420 419 423
f 393 420 424
f 422 421 426
f 423 422 427
f 424 423 428
f 397 424 429
f 426 425 431
f 427 426 432
f 428 427 433
f 429 428 434
f 402 429 435
f 431 430 386
f 432 431 385
f 433 432 384
f 434 433 383
f 435 434 382
f 408 435 381
f 415 387 436
f 438 436 437
f 416 415 438
f 440 437 439
f 441 438 440
f 418 416 441
f 443 439 442
f 444 440 443
f 445 441 444
f 421 418 445
f 447 442 446
f 448 443 447
f 449 444 448
f 450 445 449
f 425 421 450
f 452 446 451
f 453 447 452
f 454 448 453
f 455 449 454
f 456 450 455
f 430 425 456
f 365 451 225
f 364 452 365
f 363 453 364
f 362 454 363
f 361 455 362
f 360 456 361
f 253 430 360
f 415 436 438
f 438 437 440
f 416 438 441
f 440 439 443
f 441 440 444
f 418 441 445
f 443 442 447
f 444 443 448
f 445 444 449
f 421 445 450
f 447 446 452
f 448 447 453
f 449 448 454
f 450 449 455
f 425 450 456
f 452 451 365
f 453 452 364
f 454 453 363
f 455 454 362
f 456 455 361
f 430 456 360
f 436 387 457
f 459 457 458
f 437 436 459
f 461 458 460
f 462 459 461
f 439 437 462
f 464 460 463
f 465 461 464
f 466 462 465
f 442 439 466
f 468 463 467
f 469 464 468
f 470 465 469
f 471 466 470
f 446 442 471
f 473 467 472
f 474 468 473
f 475 469 474
f 476 470 475
f 477 471 476
f 451 446 477
f 344 472 197
f 343 473 344
f 342 474 343
f 341 475 342
f 340 476 341
f 339 477 340
f 225 451 339
f 436 457 459
f 459 458 461
f 437 459 462
f 461 460 464
f 462 461 465
f 439 462 466
f 464 463 468
f 465 464 469
f 466 465 470
f 442 466 471
f 468 467 473
f 469 468 474
f 470 469 475
f 471 470 476
f 446 471 477
f 473 472 344
f 474 473 343
f 475 474 342
f 476 475 341
f 477 476 340
f 451 477 339
f 457 387 389
f 478 389 392
f 458 457 478
f 479 392 396
f 480 478 479
f 460 458 480
f 481 396 401
f 482 479 481
f 483 480 482
f 463 460 483
f 484 401 407
f 485 481 484
f 486 482 485
f 487 483 486
f 467 463 487
f 488 407 414
f 489 484 488
f 490 485 489
f 491 486 490
f 492 487 491
f 472 467 492
f 323 414 169
f 322 488 323
f 321 489 322
f 320 490 321
f 319 491 320
f 318 492 319
f 197 472 318
f 457 389 478
f 478 392 479
f 458 478 480
f 479 396 481
f 480 479 482
f 460 480 483
f 481 401 484
f 482 481 485
f 483 482 486
f 463 483 487
f 484 407 488
f 485 484 489
f 486 485 490
f 487 486 491
f 467 487 492
f 488 414 323
f 489 488 322
f 490 489 321
f 491 490 320
f 492 491 319
f 472 492 318
