# File exported by Houdini 20.5.445 (www.sidefx.com)
# 492 points
# 2940 vertices
# 980 primitives
# Bounds: [-112.031738, -86.5310745, -1153.09717] to [282.805664, 202.908173, -601.703918]
g 
v 85.3869019 58.1885719 -1153.09717
v 85.3869019 81.0811615 -1149.65601
v 115.052185 65.2627869 -1149.65601
v 85.3869019 103.402397 -1139.41821
v 116.709473 89.8295364 -1142.92847
v 143.97699 72.1604462 -1139.41821
v 85.3869019 124.594994 -1122.6394
v 117.682922 112.624489 -1129.0459
v 145.947388 97.5530624 -1129.0459
v 171.43927 78.7093201 -1122.6394
v 85.3869019 144.129822 -1099.73853
v 118.003784 133.557709 -1108.71948
v 146.871643 120.298424 -1111.49951
v 172.974365 104.24575 -1108.71948
v 196.753357 84.7459259 -1099.73853
v 85.3869019 161.519226 -1071.28735
v 117.682922 152.503998 -1082.29468
v 146.871765 140.798401 -1087.46729
v 173.436401 126.633293 -1087.46729
v 197.624939 109.876518 -1082.29468
v 219.287231 90.1195297 -1071.28735
v 85.3869019 176.329041 -1037.99609
v 116.709473 169.244354 -1049.82959
v 145.947388 159.244171 -1056.72461
v 172.974365 146.666443 -1058.98926
v 197.624939 131.688141 -1056.72461
v 219.618591 114.370094 -1049.82959
v 238.478394 94.6960373 -1037.99609
v 85.3869019 188.189545 -1000.69562
v 115.052185 183.403229 -1011.15863
v 143.97699 175.491058 -1018.28265
v 171.43927 164.650543 -1021.88959
v 196.753357 151.152344 -1021.88959
v 219.287231 135.333405 -1018.28265
v 238.478394 117.588631 -1011.15863
v 253.8479 98.3611374 -1000.69586
v 103.721069 39.6680412 -1149.65601
v 136.06781 46.1028099 -1142.92847
v 121.597534 21.6098137 -1139.41821
v 165.907349 52.4673729 -1129.0459
v 155.111389 28.0812302 -1129.0459
v 138.57019 4.46466446 -1122.6394
v 193.13269 58.7121162 -1108.71948
v 184.871399 34.4647102 -1111.49951
v 172.135803 11.2843208 -1108.71948
v 154.215088 -11.3393669 -1099.73853
v 217.584961 64.7908325 -1082.29468
v 211.436157 40.7995872 -1087.46729
v 201.289307 17.8799133 -1087.46729
v 187.049805 -4.18196297 -1082.29468
v 168.141907 -25.4076958 -1071.28735
v 238.97699 70.6433411 -1049.82959
v 235.053345 47.1448708 -1056.72461
v 227.106445 24.3930473 -1058.98926
v 215.314331 2.55821991 -1056.72461
v 199.669312 -18.1451492 -1049.82959
v 180.002686 -37.3890533 -1037.99609
v 256.812561 76.1755066 -1011.15887
v 255.497925 53.5407677 -1018.28278
v 249.936646 31.0219917 -1021.88983
v 240.267456 9.18133926 -1021.88983
v 226.731995 -11.435833 -1018.28278
v 209.667969 -30.3148651 -1011.15887
v 189.501465 -46.9844284 -1000.69586
v 67.0528564 39.6680412 -1149.65601
v 85.3869019 19.0781746 -1142.92847
v 49.1763306 21.6098137 -1139.41821
v 102.855347 0.216716766 -1129.0459
v 67.9185791 0.216716766 -1129.0459
v 32.2036743 4.46466446 -1122.6394
v 119.360596 -16.857048 -1108.71948
v 85.3869019 -18.5834122 -1111.49951
v 51.413208 -16.857048 -1108.71948
v 16.5587769 -11.3393669 -1099.73853
v 134.793762 -32.0464249 -1082.29468
v 101.804871 -35.168251 -1087.46729
v 68.9690552 -35.168251 -1087.46729
v 35.9800415 -32.0464745 -1082.29468
v 2.63201904 -25.4076958 -1071.28735
v 148.988342 -45.1697388 -1049.82959
v 117.325439 -49.6924591 -1056.72461
v 85.3869019 -51.1761169 -1058.98926
v 53.4484863 -49.6924591 -1056.72461
v 21.7855835 -45.1697388 -1049.82959
v -9.2288208 -37.3890533 -1037.99609
v 161.668579 -55.9096069 -1011.15887
v 131.931213 -61.9864349 -1018.28265
v 101.031921 -65.0633011 -1021.88983
v 69.7420044 -65.0633011 -1021.88983
v 38.8426514 -61.9864349 -1018.28265
v 9.10528564 -55.9096069 -1011.15887
v -18.7276001 -46.9844284 -1000.69586
v 55.7217407 65.2627869 -1149.65601
v 34.7059937 46.1028099 -1142.92847
v 26.796936 72.1604462 -1139.41821
v 15.6625977 28.0812302 -1129.0459
v 4.86651611 52.4673729 -1129.0459
v -0.665405273 78.7093201 -1122.6394
v -1.36193848 11.2843208 -1108.71948
v -14.0975342 34.4647102 -1111.49951
v -22.3587646 58.7121162 -1108.71948
v -25.9794312 84.7459259 -1099.73853
v -16.2759399 -4.18196297 -1082.29468
v -30.5154419 17.8799133 -1087.46729
v -40.6622314 40.7995872 -1087.46729
v -46.8110962 64.7908325 -1082.29468
v -48.5133667 90.1195297 -1071.28735
v -28.8953247 -18.1451492 -1049.82959
v -44.5404053 2.55821991 -1056.72461
v -56.3325195 24.3930473 -1058.98926
v -64.27948 47.1448708 -1056.72461
v -68.203125 70.6433411 -1049.82959
v -67.7045288 94.6960373 -1037.99609
v -38.894104 -30.3148651 -1011.15887
v -55.9580688 -11.435833 -1018.28278
v -69.4935913 9.18133926 -1021.88983
v -79.1627197 31.0219917 -1021.88983
v -84.7240601 53.5407677 -1018.28278
v -86.0386353 76.1755066 -1011.15887
v -83.0739136 98.3611374 -1000.69586
v 54.0643921 89.8295364 -1142.92847
v 24.8265381 97.5530624 -1129.0459
v 53.0909424 112.624489 -1129.0459
v -2.20043945 104.24575 -1108.71948
v 23.9021606 120.298424 -1111.49951
v 52.7701416 133.557709 -1108.71948
v -26.8510132 109.876518 -1082.29468
v -2.66253662 126.633293 -1087.46729
v 23.9021606 140.798401 -1087.46729
v 53.0909424 152.503998 -1082.29468
v -48.8447266 114.370094 -1049.82959
v -26.8510132 131.688141 -1056.72461
v -2.20043945 146.666443 -1058.98926
v 24.8265381 159.244171 -1056.72461
v 54.0643921 169.244354 -1049.82959
v -67.7045288 117.588631 -1011.15863
v -48.5133667 135.333405 -1018.28265
v -25.9794312 151.152344 -1021.88959
v -0.665405273 164.650543 -1021.88959
v 26.796875 175.491058 -1018.28265
v 55.7217407 183.403229 -1011.15863
v 67.0528564 194.849548 -967.735291
v 34.7059937 188.79953 -975.643616
v 49.1763306 198.097961 -932.51947
v 4.86651611 179.407104 -980.233093
v 15.6625977 190.312897 -938.860046
v 32.2036743 197.853699 -895.927673
v -22.3587646 167.029724 -981.73761
v -14.0974731 179.184357 -941.843323
v -1.36187744 188.240021 -901.272522
v 16.5587769 194.122925 -858.873474
v -46.8110352 151.851013 -980.233093
v -40.6621704 165.019226 -941.843323
v -30.5153809 175.269165 -902.958191
v -16.2758789 182.696564 -863.215393
v 2.63201904 186.998657 -822.281555
v -68.203125 133.925293 -975.643616
v -64.2794189 147.685394 -938.860046
v -56.3324585 158.92804 -901.272522
v -44.5403442 167.625092 -863.215393
v -28.8953247 173.632629 -825.006775
v -9.2288208 176.658783 -787.065735
v -86.0386353 113.216545 -967.735291
v -84.723938 126.69828 -932.51947
v -79.1626587 138.469818 -895.927673
v -69.4935303 148.237213 -858.873474
v -55.9580078 155.756683 -822.281555
v -38.894043 160.840393 -787.065735
v -18.7276001 163.361572 -754.105286
v -97.369751 87.6218109 -967.735291
v -99.5256958 63.1739159 -975.643616
v -107.103394 76.1476593 -932.51947
v -96.5754395 39.4433022 -980.233093
v -107.371521 50.3490868 -938.860046
v -112.031738 64.225174 -895.927673
v -88.9493408 16.6149826 -981.73761
v -102.146973 26.1374245 -941.843323
v -109.946198 37.8252831 -901.272522
v -112.031738 52.1519508 -858.873474
v -76.8363647 -5.14334488 -980.233093
v -92.0001831 3.21774673 -941.843323
v -102.146973 13.4677162 -902.958191
v -107.37146 25.7021866 -863.215393
v -107.103394 40.2294579 -822.281555
v -60.2178955 -25.6145935 -975.643616
v -76.8363647 -18.623661 -938.860046
v -88.9492798 -9.60250854 -901.272522
v -96.5754395 1.31606293 -863.215393
v -99.5256348 14.0927773 -825.006775
v -97.369751 28.7552986 -787.065735
v -38.894043 -44.4632874 -967.735291
v -55.9580078 -39.3795547 -932.51947
v -69.4935303 -31.8600731 -895.927673
v -79.1626587 -22.0927086 -858.873474
v -84.723938 -10.3211899 -822.281555
v -86.0386353 3.16059494 -787.065735
v -83.0739136 18.0159645 -754.105286
v -9.2288208 -60.2816849 -967.735291
v 21.7855835 -69.3413162 -975.643616
v 2.63201904 -70.6214981 -932.51947
v 53.4484863 -74.6152191 -980.233093
v 35.9800415 -78.7808456 -938.860046
v 16.5587769 -77.7457657 -895.927673
v 85.3869019 -76.3464279 -981.73761
v 68.9690552 -82.6159286 -941.843323
v 51.413208 -84.4480972 -901.272522
v 32.2036743 -81.4766006 -858.873474
v 117.325439 -74.6152191 -980.233093
v 101.804871 -82.6159286 -941.843323
v 85.3869019 -86.5310745 -902.958191
v 67.9185791 -86.3971024 -863.215393
v 49.1763306 -81.7208633 -822.281555
v 148.988342 -69.3413162 -975.643616
v 134.793762 -78.7808456 -938.860046
v 119.360596 -84.4480972 -901.272522
v 102.855347 -86.3971024 -863.215393
v 85.3869019 -84.5081406 -825.006775
v 67.0528564 -78.4724045 -787.065857
v 180.002686 -60.2816849 -967.735291
v 168.141907 -70.6214981 -932.51947
v 154.215088 -77.7457657 -895.927673
v 138.57019 -81.4766006 -858.873474
v 121.597534 -81.7208633 -822.281555
v 103.721069 -78.4724045 -787.065857
v 85.3869019 -71.8124161 -754.105286
v 209.667969 -44.4632874 -967.735291
v 230.991821 -25.6145935 -975.643616
v 226.731873 -39.3795547 -932.51947
v 247.610291 -5.14334488 -980.233093
v 247.610291 -18.623661 -938.860046
v 240.267395 -31.8600731 -895.927673
v 259.723267 16.6149826 -981.73761
v 262.773987 3.21774673 -941.843323
v 259.723145 -9.60250854 -901.272522
v 249.936584 -22.0927086 -858.873474
v 267.349304 39.4433022 -980.233093
v 272.920898 26.1374245 -941.843323
v 272.920898 13.4677162 -902.958191
v 267.349243 1.31606293 -863.215393
v 255.497864 -10.3211899 -822.281555
v 270.299561 63.1739159 -975.643616
v 278.145386 50.3490868 -938.860046
v 280.720154 37.8252831 -901.272522
v 278.145386 25.7021866 -863.215393
v 270.299561 14.0927773 -825.006775
v 256.812561 3.16059494 -787.065735
v 268.143677 87.6218109 -967.735291
v 277.877319 76.1476593 -932.51947
v 282.805664 64.225174 -895.927673
v 282.805664 52.1519508 -858.873474
v 277.877319 40.2294579 -822.281555
v 268.143677 28.7552986 -787.065735
v 253.8479 18.0159645 -754.105286
v 256.812561 113.216545 -967.735291
v 238.97699 133.925293 -975.643616
v 255.497864 126.69828 -932.51947
v 217.584961 151.851013 -980.233093
v 235.053284 147.685394 -938.860046
v 249.936584 138.469818 -895.927673
v 193.13269 167.029724 -981.73761
v 211.436035 165.019226 -941.843323
v 227.106384 158.92804 -901.272522
v 240.267395 148.237213 -858.873474
v 165.907349 179.407104 -980.233093
v 184.871399 179.184357 -941.843323
v 201.289246 175.269165 -902.958191
v 215.314209 167.625092 -863.215393
v 226.731873 155.756683 -822.281555
v 136.06781 188.79953 -975.643616
v 155.111389 190.312897 -938.860046
v 172.135803 188.240021 -901.272522
v 187.049805 182.696564 -863.215393
v 199.669189 173.632629 -825.006775
v 209.667969 160.840393 -787.065735
v 103.721069 194.849548 -967.735291
v 121.597534 198.097961 -932.51947
v 138.57019 197.853699 -895.927673
v 154.215088 194.122925 -858.873474
v 168.141907 186.998657 -822.281555
v 180.002686 176.658783 -787.065735
v 189.501465 163.361572 -754.105286
v 85.3869019 200.885284 -929.79425
v 67.9185791 202.774261 -891.585754
v 102.855347 202.774261 -891.585754
v 51.413208 200.825226 -853.528503
v 85.3869019 202.908173 -851.842834
v 119.360596 200.825226 -853.528503
v 35.9800415 195.157959 -815.940857
v 68.9690552 198.993073 -812.957703
v 101.804871 198.993073 -812.957703
v 134.793762 195.157959 -815.940857
v 21.7855835 185.718445 -779.15741
v 53.4484863 190.99231 -774.567932
v 85.3869019 192.723602 -773.063416
v 117.325439 190.99231 -774.567932
v 148.988342 185.718445 -779.15741
v 9.10528564 172.286682 -743.642273
v 38.8426514 178.363556 -736.51825
v 69.7420044 181.44046 -732.911316
v 101.031921 181.44046 -732.911316
v 131.931213 178.363556 -736.51825
v 161.668579 172.286682 -743.642273
v -99.5256348 102.284325 -929.79425
v -107.37146 90.6749496 -891.585754
v -96.5754395 115.061073 -891.585754
v -109.946198 78.5518341 -853.528503
v -102.146973 102.909401 -851.842834
v -88.9492798 125.979607 -853.528503
v -107.371521 66.0280609 -815.940857
v -102.146973 90.2396927 -812.957703
v -92.0001831 113.15934 -812.957703
v -76.8363037 135.000793 -815.940857
v -99.5256958 53.2031975 -779.15741
v -96.5754395 76.9338379 -774.56781
v -88.9493408 99.7621536 -773.063416
v -76.8363647 121.52047 -774.56781
v -60.2178955 141.991699 -779.15741
v -86.0386353 40.2016106 -743.642273
v -84.7240601 62.8363609 -736.51825
v -79.1627197 85.3551483 -732.911194
v -69.4935913 107.195778 -732.911194
v -55.9580688 127.812935 -736.51825
v -38.894104 146.691986 -743.642273
v -28.8953247 -57.2555237 -929.79425
v -16.2758789 -66.3194656 -891.585754
v -44.5403442 -51.2479935 -891.585754
v -1.36187744 -71.8628998 -853.528503
v -30.5153809 -58.8920441 -851.842834
v -56.3324585 -42.5509338 -853.528503
v 15.6625977 -73.9357681 -815.940857
v -14.0974731 -62.8072281 -812.957703
v -40.6621704 -48.6421204 -812.957703
v -64.2793579 -31.3082657 -815.940857
v 34.7059937 -72.4224014 -779.15741
v 4.86651611 -63.0299606 -774.567932
v -22.3587646 -50.6525955 -773.063416
v -46.8110352 -35.473938 -774.567932
v -68.203064 -17.5481987 -779.15741
v 55.7217407 -67.0261383 -743.642395
v 26.796875 -59.1139374 -736.518372
v -0.665405273 -48.2734222 -732.911316
v -25.9794312 -34.7752266 -732.911316
v -48.5133667 -18.9562492 -736.518372
v -67.7045288 -1.21152878 -743.642395
v 199.669312 -57.2555695 -929.79425
v 215.314209 -51.2479935 -891.585754
v 187.049805 -66.3194656 -891.585754
v 227.106384 -42.5509338 -853.528503
v 201.289246 -58.8920441 -851.842834
v 172.135803 -71.8628998 -853.528503
v 235.053284 -31.3082657 -815.940857
v 211.436035 -48.6421204 -812.957703
v 184.871399 -62.8072281 -812.957703
v 155.111389 -73.9357681 -815.940857
v 238.97699 -17.5481987 -779.15741
v 217.584961 -35.473938 -774.567932
v 193.13269 -50.6525955 -773.063416
v 165.907349 -63.0299606 -774.567932
v 136.06781 -72.4224472 -779.15741
v 238.478394 -1.21152878 -743.642395
v 219.287231 -18.9562492 -736.518372
v 196.753357 -34.7752266 -732.911316
v 171.43927 -48.2734222 -732.911316
v 143.97699 -59.1139374 -736.518372
v 115.052185 -67.0261383 -743.642395
v 270.299561 102.284325 -929.79425
v 267.349304 115.061073 -891.585754
v 278.145386 90.6749496 -891.585754
v 259.723145 125.979607 -853.528503
v 272.920898 102.909401 -851.842834
v 280.720154 78.5518341 -853.528503
v 247.610168 135.000793 -815.940857
v 262.773987 113.15934 -812.957703
v 272.920898 90.2396927 -812.957703
v 278.145386 66.0280609 -815.940857
v 230.991821 141.991669 -779.15741
v 247.610291 121.52047 -774.56781
v 259.723267 99.7621536 -773.063416
v 267.349304 76.9338379 -774.56781
v 270.299561 53.2031975 -779.15741
v 209.667969 146.691986 -743.642273
v 226.731995 127.812935 -736.51825
v 240.267456 107.195778 -732.911194
v 249.936646 85.3551483 -732.911194
v 255.497925 62.8363609 -736.51825
v 256.812561 40.2016106 -743.642273
v 85.3869019 58.1885719 -601.703918
v 103.721069 76.7090454 -605.145081
v 67.0528564 76.7090454 -605.145081
v 121.597534 94.7673111 -615.382874
v 85.3869019 97.2989426 -611.87262
v 49.1763306 94.7673111 -615.382874
v 138.57019 111.912468 -632.161438
v 102.855347 116.160378 -625.755188
v 67.9185791 116.160378 -625.755188
v 32.2036743 111.912468 -632.161438
v 154.215088 127.716484 -655.062439
v 119.360596 133.234131 -646.081604
v 85.3869019 134.960541 -643.301575
v 51.413208 133.234131 -646.081604
v 16.5587769 127.716484 -655.062439
v 168.141907 141.784821 -683.513611
v 134.793762 148.423553 -672.506287
v 101.804871 151.545349 -667.333801
v 68.9690552 151.545349 -667.333801
v 35.9800415 148.423584 -672.506287
v 2.63201904 141.784821 -683.513611
v 180.002686 153.766174 -716.804993
v 148.988342 161.546875 -704.971375
v 117.325439 166.06955 -698.076355
v 85.3869019 167.553223 -695.811829
v 53.4484863 166.06955 -698.076355
v 21.7855835 161.546875 -704.971375
v -9.2288208 153.766174 -716.804993
v 115.052185 51.1143303 -605.145081
v 143.97699 44.2166862 -615.382874
v 136.06781 70.2743378 -611.87262
v 171.43927 37.6677971 -632.161438
v 165.907349 63.9097557 -625.755188
v 155.111389 88.2958832 -625.755188
v 196.753357 31.6312141 -655.062439
v 193.13269 57.6650047 -646.081604
v 184.871399 81.912384 -643.301575
v 172.135803 105.092796 -646.081604
v 219.287231 26.2575951 -683.513611
v 217.584961 51.5862923 -672.506287
v 211.436157 75.5775604 -667.333801
v 201.289307 98.4972153 -667.333801
v 187.049805 120.559074 -672.506287
v 238.478394 21.6811028 -716.804993
v 238.97699 45.7337532 -704.971375
v 235.053345 69.2322693 -698.076355
v 227.106445 91.9840469 -695.811829
v 215.314331 113.818901 -698.076355
v 199.669312 134.522278 -704.971375
v 85.3869019 35.2959633 -605.145081
v 85.3869019 12.9747047 -615.382874
v 116.709473 26.5475769 -611.87262
v 85.3869019 -8.21784973 -632.161438
v 117.682922 3.75265503 -625.755188
v 145.947388 18.8240814 -625.755188
v 85.3869019 -27.7526703 -655.062439
v 118.003784 -17.1806107 -646.081604
v 146.871643 -3.92129135 -643.301575
v 172.974365 12.1313629 -646.081604
v 85.3869019 -45.1420746 -683.513733
v 117.682922 -36.1268349 -672.506287
v 146.871765 -24.4212723 -667.333923
v 173.436401 -10.2561646 -667.333923
v 197.624939 6.5006218 -672.506287
v 85.3869019 -59.9519043 -716.804993
v 116.709473 -52.8672562 -704.971375
v 145.947388 -42.8670197 -698.076355
v 172.974365 -30.2893333 -695.811951
v 197.624939 -15.3110352 -698.076355
v 219.618591 2.0070343 -704.971375
v 55.7217407 51.1143303 -605.145081
v 26.796936 44.2166862 -615.382874
v 54.0643921 26.5475769 -611.87262
v -0.665405273 37.6677971 -632.161438
v 24.8265381 18.8240814 -625.755188
v 53.0909424 3.75265503 -625.755188
v -25.9794312 31.6312141 -655.062439
v -2.20043945 12.1313629 -646.081604
v 23.9021606 -3.92129135 -643.301575
v 52.7701416 -17.1806107 -646.081604
v -48.5133667 26.2575951 -683.513611
v -26.8510132 6.5006218 -672.506287
v -2.66253662 -10.2561646 -667.333923
v 23.9021606 -24.4212723 -667.333923
v 53.0909424 -36.1268349 -672.506287
v -67.7045288 21.6811028 -716.804993
v -48.8447266 2.0070343 -704.971375
v -26.8510132 -15.3110352 -698.076355
v -2.20043945 -30.2893333 -695.811951
v 24.8265381 -42.8670197 -698.076355
v 54.0643921 -52.8672562 -704.971375
v 34.7059937 70.2743378 -611.87262
v 15.6625977 88.2958832 -625.755188
v 4.86651611 63.9097557 -625.755188
v -1.36193848 105.092796 -646.081604
v -14.0975342 81.912384 -643.301575
v -22.3587646 57.6650047 -646.081604
v -16.2759399 120.559074 -672.506287
v -30.5154419 98.4972153 -667.333801
v -40.6622314 75.5775604 -667.333801
v -46.8110962 51.5862923 -672.506287
v -28.8953247 134.522278 -704.971252
v -44.5404053 113.818901 -698.076355
v -56.3325195 91.9840469 -695.811829
v -64.27948 69.2322693 -698.076355
v -68.203125 45.7337532 -704.971375
g 
f 3 1 2
f 5 2 4
f 6 3 5
f 8 4 7
f 9 5 8
f 10 6 9
f 12 7 11
f 13 8 12
f 14 9 13
f 15 10 14
f 17 11 16
f 18 12 17
f 19 13 18
f 20 14 19
f 21 15 20
f 23 16 22
f 24 17 23
f 25 18 24
f 26 19 25
f 27 20 26
f 28 21 27
f 30 22 29
f 31 23 30
f 32 24 31
f 33 25 32
f 34 26 33
f 35 27 34
f 36 28 35
f 3 2 5
f 5 4 8
f 6 5 9
f 8 7 12
f 9 8 13
f 10 9 14
f 12 11 17
f 13 12 18
f 14 13 19
f 15 14 20
f 17 16 23
f 18 17 24
f 19 18 25
f 20 19 26
f 21 20 27
f 23 22 30
f 24 23 31
f 25 24 32
f 26 25 33
f 27 26 34
f 28 27 35
f 37 1 3
f 38 3 6
f 39 37 38
f 40 6 10
f 41 38 40
f 42 39 41
f 43 10 15
f 44 40 43
f 45 41 44
f 46 42 45
f 47 15 21
f 48 43 47
f 49 44 48
f 50 45 49
f 51 46 50
f 52 21 28
f 53 47 52
f 54 48 53
f 55 49 54
f 56 50 55
f 57 51 56
f 58 28 36
f 59 52 58
f 60 53 59
f 61 54 60
f 62 55 61
f 63 56 62
f 64 57 63
f 37 3 38
f 38 6 40
f 39 38 41
f 40 10 43
f 41 40 44
f 42 41 45
f 43 15 47
f 44 43 48
f 45 44 49
f 46 45 50
f 47 21 52
f 48 47 53
f 49 48 54
f 50 49 55
f 51 50 56
f 52 28 58
f 53 52 59
f 54 53 60
f 55 54 61
f 56 55 62
f 57 56 63
f 65 1 37
f 66 37 39
f 67 65 66
f 68 39 42
f 69 66 68
f 70 67 69
f 71 42 46
f 72 68 71
f 73 69 72
f 74 70 73
f 75 46 51
f 76 71 75
f 77 72 76
f 78 73 77
f 79 74 78
f 80 51 57
f 81 75 80
f 82 76 81
f 83 77 82
f 84 78 83
f 85 79 84
f 86 57 64
f 87 80 86
f 88 81 87
f 89 82 88
f 90 83 89
f 91 84 90
f 92 85 91
f 65 37 66
f 66 39 68
f 67 66 69
f 68 42 71
f 69 68 72
f 70 69 73
f 71 46 75
f 72 71 76
f 73 72 77
f 74 73 78
f 75 51 80
f 76 75 81
f 77 76 82
f 78 77 83
f 79 78 84
f 80 57 86
f 81 80 87
f 82 81 88
f 83 82 89
f 84 83 90
f 85 84 91
f 93 1 65
f 94 65 67
f 95 93 94
f 96 67 70
f 97 94 96
f 98 95 97
f 99 70 74
f 100 96 99
f 101 97 100
f 102 98 101
f 103 74 79
f 104 99 103
f 105 100 104
f 106 101 105
f 107 102 106
f 108 79 85
f 109 103 108
f 110 104 109
f 111 105 110
f 112 106 111
f 113 107 112
f 114 85 92
f 115 108 114
f 116 109 115
f 117 110 116
f 118 111 117
f 119 112 118
f 120 113 119
f 93 65 94
f 94 67 96
f 95 94 97
f 96 70 99
f 97 96 100
f 98 97 101
f 99 74 103
f 100 99 104
f 101 100 105
f 102 101 106
f 103 79 108
f 104 103 109
f 105 104 110
f 106 105 111
f 107 106 112
f 108 85 114
f 109 108 115
f 110 109 116
f 111 110 117
f 112 111 118
f 113 112 119
f 2 1 93
f 121 93 95
f 4 2 121
f 122 95 98
f 123 121 122
f 7 4 123
f 124 98 102
f 125 122 124
f 126 123 125
f 11 7 126
f 127 102 107
f 128 124 127
f 129 125 128
f 130 126 129
f 16 11 130
f 131 107 113
f 132 127 131
f 133 128 132
f 134 129 133
f 135 130 134
f 22 16 135
f 136 113 120
f 137 131 136
f 138 132 137
f 139 133 138
f 140 134 139
f 141 135 140
f 29 22 141
f 2 93 121
f 121 95 122
f 4 121 123
f 122 98 124
f 123 122 125
f 7 123 126
f 124 102 127
f 125 124 128
f 126 125 129
f 11 126 130
f 127 107 131
f 128 127 132
f 129 128 133
f 130 129 134
f 16 130 135
f 131 113 136
f 132 131 137
f 133 132 138
f 134 133 139
f 135 134 140
f 22 135 141
f 142 29 141
f 143 141 140
f 144 142 143
f 145 140 139
f 146 143 145
f 147 144 146
f 148 139 138
f 149 145 148
f 150 146 149
f 151 147 150
f 152 138 137
f 153 148 152
f 154 149 153
f 155 150 154
f 156 151 155
f 157 137 136
f 158 152 157
f 159 153 158
f 160 154 159
f 161 155 160
f 162 156 161
f 163 136 120
f 164 157 163
f 165 158 164
f 166 159 165
f 167 160 166
f 168 161 167
f 169 162 168
f 142 141 143
f 143 140 145
f 144 143 146
f 145 139 148
f 146 145 149
f 147 146 150
f 148 138 152
f 149 148 153
f 150 149 154
f 151 150 155
f 152 137 157
f 153 152 158
f 154 153 159
f 155 154 160
f 156 155 161
f 157 136 163
f 158 157 164
f 159 158 165
f 160 159 166
f 161 160 167
f 162 161 168
f 170 120 119
f 171 119 118
f 172 170 171
f 173 118 117
f 174 171 173
f 175 172 174
f 176 117 116
f 177 173 176
f 178 174 177
f 179 175 178
f 180 116 115
f 181 176 180
f 182 177 181
f 183 178 182
f 184 179 183
f 185 115 114
f 186 180 185
f 187 181 186
f 188 182 187
f 189 183 188
f 190 184 189
f 191 114 92
f 192 185 191
f 193 186 192
f 194 187 193
f 195 188 194
f 196 189 195
f 197 190 196
f 170 119 171
f 171 118 173
f 172 171 174
f 173 117 176
f 174 173 177
f 175 174 178
f 176 116 180
f 177 176 181
f 178 177 182
f 179 178 183
f 180 115 185
f 181 180 186
f 182 181 187
f 183 182 188
f 184 183 189
f 185 114 191
f 186 185 192
f 187 186 193
f 188 187 194
f 189 188 195
f 190 189 196
f 198 92 91
f 199 91 90
f 200 198 199
f 201 90 89
f 202 199 201
f 203 200 202
f 204 89 88
f 205 201 204
f 206 202 205
f 207 203 206
f 208 88 87
f 209 204 208
f 210 205 209
f 211 206 210
f 212 207 211
f 213 87 86
f 214 208 213
f 215 209 214
f 216 210 215
f 217 211 216
f 218 212 217
f 219 86 64
f 220 213 219
f 221 214 220
f 222 215 221
f 223 216 222
f 224 217 223
f 225 218 224
f 198 91 199
f 199 90 201
f 200 199 202
f 201 89 204
f 202 201 205
f 203 202 206
f 204 88 208
f 205 204 209
f 206 205 210
f 207 206 211
f 208 87 213
f 209 208 214
f 210 209 215
f 211 210 216
f 212 211 217
f 213 86 219
f 214 213 220
f 215 214 221
f 216 215 222
f 217 216 223
f 218 217 224
f 226 64 63
f 227 63 62
f 228 226 227
f 229 62 61
f 230 227 229
f 231 228 230
f 232 61 60
f 233 229 232
f 234 230 233
f 235 231 234
f 236 60 59
f 237 232 236
f 238 233 237
f 239 234 238
f 240 235 239
f 241 59 58
f 242 236 241
f 243 237 242
f 244 238 243
f 245 239 244
f 246 240 245
f 247 58 36
f 248 241 247
f 249 242 248
f 250 243 249
f 251 244 250
f 252 245 251
f 253 246 252
f 226 63 227
f 227 62 229
f 228 227 230
f 229 61 232
f 230 229 233
f 231 230 234
f 232 60 236
f 233 232 237
f 234 233 238
f 235 234 239
f 236 59 241
f 237 236 242
f 238 237 243
f 239 238 244
f 240 239 245
f 241 58 247
f 242 241 248
f 243 242 249
f 244 243 250
f 245 244 251
f 246 245 252
f 254 36 35
f 255 35 34
f 256 254 255
f 257 34 33
f 258 255 257
f 259 256 258
f 260 33 32
f 261 257 260
f 262 258 261
f 263 259 262
f 264 32 31
f 265 260 264
f 266 261 265
f 267 262 266
f 268 263 267
f 269 31 30
f 270 264 269
f 271 265 270
f 272 266 271
f 273 267 272
f 274 268 273
f 275 30 29
f 276 269 275
f 277 270 276
f 278 271 277
f 279 272 278
f 280 273 279
f 281 274 280
f 254 35 255
f 255 34 257
f 256 255 258
f 257 33 260
f 258 257 261
f 259 258 262
f 260 32 264
f 261 260 265
f 262 261 266
f 263 262 267
f 264 31 269
f 265 264 270
f 266 265 271
f 267 266 272
f 268 267 273
f 269 30 275
f 270 269 276
f 271 270 277
f 272 271 278
f 273 272 279
f 274 273 280
f 275 29 142
f 282 142 144
f 276 275 282
f 283 144 147
f 284 282 283
f 277 276 284
f 285 147 151
f 286 283 285
f 287 284 286
f 278 277 287
f 288 151 156
f 289 285 288
f 290 286 289
f 291 287 290
f 279 278 291
f 292 156 162
f 293 288 292
f 294 289 293
f 295 290 294
f 296 291 295
f 280 279 296
f 297 162 169
f 298 292 297
f 299 293 298
f 300 294 299
f 301 295 300
f 302 296 301
f 281 280 302
f 275 142 282
f 282 144 283
f 276 282 284
f 283 147 285
f 284 283 286
f 277 284 287
f 285 151 288
f 286 285 289
f 287 286 290
f 278 287 291
f 288 156 292
f 289 288 293
f 290 289 294
f 291 290 295
f 279 291 296
f 292 162 297
f 293 292 298
f 294 293 299
f 295 294 300
f 296 295 301
f 280 296 302
f 163 120 170
f 303 170 172
f 164 163 303
f 304 172 175
f 305 303 304
f 165 164 305
f 306 175 179
f 307 304 306
f 308 305 307
f 166 165 308
f 309 179 184
f 310 306 309
f 311 307 310
f 312 308 311
f 167 166 312
f 313 184 190
f 314 309 313
f 315 310 314
f 316 311 315
f 317 312 316
f 168 167 317
f 318 190 197
f 319 313 318
f 320 314 319
f 321 315 320
f 322 316 321
f 323 317 322
f 169 168 323
f 163 170 303
f 303 172 304
f 164 303 305
f 304 175 306
f 305 304 307
f 165 305 308
f 306 179 309
f 307 306 310
f 308 307 311
f 166 308 312
f 309 184 313
f 310 309 314
f 311 310 315
f 312 311 316
f 167 312 317
f 313 190 318
f 314 313 319
f 315 314 320
f 316 315 321
f 317 316 322
f 168 317 323
f 191 92 198
f 324 198 200
f 192 191 324
f 325 200 203
f 326 324 325
f 193 192 326
f 327 203 207
f 328 325 327
f 329 326 328
f 194 193 329
f 330 207 212
f 331 327 330
f 332 328 331
f 333 329 332
f 195 194 333
f 334 212 218
f 335 330 334
f 336 331 335
f 337 332 336
f 338 333 337
f 196 195 338
f 339 218 225
f 340 334 339
f 341 335 340
f 342 336 341
f 343 337 342
f 344 338 343
f 197 196 344
f 191 198 324
f 324 200 325
f 192 324 326
f 325 203 327
f 326 325 328
f 193 326 329
f 327 207 330
f 328 327 331
f 329 328 332
f 194 329 333
f 330 212 334
f 331 330 335
f 332 331 336
f 333 332 337
f 195 333 338
f 334 218 339
f 335 334 340
f 336 335 341
f 337 336 342
f 338 337 343
f 196 338 344
f 219 64 226
f 345 226 228
f 220 219 345
f 346 228 231
f 347 345 346
f 221 220 347
f 348 231 235
f 349 346 348
f 350 347 349
f 222 221 350
f 351 235 240
f 352 348 351
f 353 349 352
f 354 350 353
f 223 222 354
f 355 240 246
f 356 351 355
f 357 352 356
f 358 353 357
f 359 354 358
f 224 223 359
f 360 246 253
f 361 355 360
f 362 356 361
f 363 357 362
f 364 358 363
f 365 359 364
f 225 224 365
f 219 226 345
f 345 228 346
f 220 345 347
f 346 231 348
f 347 346 349
f 221 347 350
f 348 235 351
f 349 348 352
f 350 349 353
f 222 350 354
f 351 240 355
f 352 351 356
f 353 352 357
f 354 353 358
f 223 354 359
f 355 246 360
f 356 355 361
f 357 356 362
f 358 357 363
f 359 358 364
f 224 359 365
f 247 36 254
f 366 254 256
f 248 247 366
f 367 256 259
f 368 366 367
f 249 248 368
f 369 259 263
f 370 367 369
f 371 368 370
f 250 249 371
f 372 263 268
f 373 369 372
f 374 370 373
f 375 371 374
f 251 250 375
f 376 268 274
f 377 372 376
f 378 373 377
f 379 374 378
f 380 375 379
f 252 251 380
f 381 274 281
f 382 376 381
f 383 377 382
f 384 378 383
f 385 379 384
f 386 380 385
f 253 252 386
f 247 254 366
f 366 256 367
f 248 366 368
f 367 259 369
f 368 367 370
f 249 368 371
f 369 263 372
f 370 369 373
f 371 370 374
f 250 371 375
f 372 268 376
f 373 372 377
f 374 373 378
f 375 374 379
f 251 375 380
f 376 274 381
f 377 376 382
f 378 377 383
f 379 378 384
f 380 379 385
f 252 380 386
f 389 387 388
f 391 388 390
f 392 389 391
f 394 390 393
f 395 391 394
f 396 392 395
f 398 393 397
f 399 394 398
f 400 395 399
f 401 396 400
f 403 397 402
f 404 398 403
f 405 399 404
f 406 400 405
f 407 401 406
f 409 402 408
f 410 403 409
f 411 404 410
f 412 405 411
f 413 406 412
f 414 407 413
f 302 408 281
f 301 409 302
f 300 410 301
f 299 411 300
f 298 412 299
f 297 413 298
f 169 414 297
f 389 388 391
f 391 390 394
f 392 391 395
f 394 393 398
f 395 394 399
f 396 395 400
f 398 397 403
f 399 398 404
f 400 399 405
f 401 400 406
f 403 402 409
f 404 403 410
f 405 404 411
f 406 405 412
f 407 406 413
f 409 408 302
f 410 409 301
f 411 410 300
f 412 411 299
f 413 412 298
f 414 413 297
f 388 387 415
f 417 415 416
f 390 388 417
f 419 416 418
f 420 417 419
f 393 390 420
f 422 418 421
f 423 419 422
f 424 420 423
f 397 393 424
f 426 421 425
f 427 422 426
f 428 423 427
f 429 424 428
f 402 397 429
f 431 425 430
f 432 426 431
f 433 427 432
f 434 428 433
f 435 429 434
f 408 402 435
f 386 430 253
f 385 431 386
f 384 432 385
f 383 433 384
f 382 434 383
f 381 435 382
f 281 408 381
f 388 415 417
f 417 416 419
f 390 417 420
f 419 418 422
f 420 419 423
f 393 420 424
f 422 421 426
f 423 422 427
f 424 423 428
f 397 424 429
f 426 425 431
f 427 426 432
f 428 427 433
f 429 428 434
f 402 429 435
f 431 430 386
f 432 431 385
f 433 432 384
f 434 433 383
f 435 434 382
f 408 435 381
f 415 387 436
f 438 436 437
f 416 415 438
f 440 437 439
f 441 438 440
f 418 416 441
f 443 439 442
f 444 440 443
f 445 441 444
f 421 418 445
f 447 442 446
f 448 443 447
f 449 444 448
f 450 445 449
f 425 421 450
f 452 446 451
f 453 447 452
f 454 448 453
f 455 449 454
f 456 450 455
f 430 425 456
f 365 451 225
f 364 452 365
f 363 453 364
f 362 454 363
f 361 455 362
f 360 456 361
f 253 430 360
f 415 436 438
f 438 437 440
f 416 438 441
f 440 439 443
f 441 440 444
f 418 441 445
f 443 442 447
f 444 443 448
f 445 444 449
f 421 445 450
f 447 446 452
f 448 447 453
f 449 448 454
f 450 449 455
f 425 450 456
f 452 451 365
f 453 452 364
f 454 453 363
f 455 454 362
f 456 455 361
f 430 456 360
f 436 387 457
f 459 457 458
f 437 436 459
f 461 458 460
f 462 459 461
f 439 437 462
f 464 460 463
f 465 461 464
f 466 462 465
f 442 439 466
f 468 463 467
f 469 464 468
f 470 465 469
f 471 466 470
f 446 442 471
f 473 467 472
f 474 468 473
f 475 469 474
f 476 470 475
f 477 471 476
f 451 446 477
f 344 472 197
f 343 473 344
f 342 474 343
f 341 475 342
f 340 476 341
f 339 477 340
f 225 451 339
f 436 457 459
f 459 458 461
f 437 459 462
f 461 460 464
f 462 461 465
f 439 462 466
f 464 463 468
f 465 464 469
f 466 465 470
f 442 466 471
f 468 467 473
f 469 468 474
f 470 469 475
f 471 470 476
f 446 471 477
f 473 472 344
f 474 473 343
f 475 474 342
f 476 475 341
f 477 476 340
f 451 477 339
f 457 387 389
f 478 389 392
f 458 457 478
f 479 392 396
f 480 478 479
f 460 458 480
f 481 396 401
f 482 479 481
f 483 480 482
f 463 460 483
f 484 401 407
f 485 481 484
f 486 482 485
f 487 483 486
f 467 463 487
f 488 407 414
f 489 484 488
f 490 485 489
f 491 486 490
f 492 487 491
f 472 467 492
f 323 414 169
f 322 488 323
f 321 489 322
f 320 490 321
f 319 491 320
f 318 492 319
f 197 472 318
f 457 389 478
f 478 392 479
f 458 478 480
f 479 396 481
f 480 479 482
f 460 480 483
f 481 401 484
f 482 481 485
f 483 482 486
f 463 483 487
f 484 407 488
f 485 484 489
f 486 485 490
f 487 486 491
f 467 487 492
f 488 414 323
f 489 488 322
f 490 489 321
f 491 490 320
f 492 491 319
f 472 492 318
