# File exported by Houdini 20.5.445 (www.sidefx.com)
# 492 points
# 2940 vertices
# 980 primitives
# Bounds: [-17.5829163, -244.790924, -1129.87866] to [188.356842, 361.16803, -624.922363]
g 
v 85.3869324 58.1884804 -1129.87866
v 85.3869324 106.11554 -1126.72717
v 100.859772 72.9987335 -1126.72717
v 85.3869324 152.846481 -1117.35181
v 101.724213 124.430832 -1120.56628
v 115.946381 87.4394379 -1117.35181
v 85.3869324 197.214523 -1101.98608
v 102.231842 172.153519 -1107.85278
v 116.974091 140.60054 -1107.85278
v 130.270172 101.149963 -1101.98608
v 85.3869324 238.111786 -1081.01392
v 102.399261 215.9785 -1089.23816
v 117.456268 188.219299 -1091.78418
v 131.070892 154.612076 -1089.23816
v 143.473602 113.787903 -1081.01392
v 85.3869324 274.517578 -1054.95862
v 102.231964 255.643707 -1065.03906
v 117.456268 231.137299 -1069.77563
v 131.311859 201.481659 -1069.77563
v 143.928192 166.400482 -1065.03906
v 155.226837 125.037918 -1054.95874
v 85.3869324 305.522858 -1024.47107
v 101.724213 290.690704 -1035.30811
v 116.974091 269.754608 -1041.62256
v 131.070892 243.422424 -1043.69617
v 143.928192 212.064346 -1041.62256
v 155.399628 175.808075 -1035.30811
v 165.236542 134.619171 -1024.47107
v 85.3869324 330.353577 -990.312012
v 100.859772 320.333099 -999.893921
v 115.946381 303.768524 -1006.41785
v 130.270172 281.073242 -1009.72107
v 143.473602 252.813934 -1009.72107
v 155.226837 219.696014 -1006.41785
v 165.236542 182.546249 -999.893921
v 173.253021 142.292297 -990.312012
v 94.9496765 19.4147453 -1126.72717
v 111.821136 32.8862381 -1120.56628
v 104.273712 -18.3913727 -1117.35181
v 127.384918 46.2107964 -1107.85278
v 121.753876 -4.84306145 -1107.85278
v 113.126312 -54.2857971 -1101.98608
v 141.585114 59.2846947 -1089.23816
v 137.276093 8.52125549 -1091.78418
v 130.633453 -40.0084229 -1089.23816
v 121.286469 -87.3725128 -1081.01392
v 154.338959 72.0107269 -1065.03906
v 151.131805 21.7836151 -1069.77576
v 145.839386 -26.2001457 -1069.77576
v 138.412445 -72.3879547 -1065.03906
v 128.550385 -116.825256 -1054.95874
v 165.496613 84.263382 -1035.30811
v 163.450043 35.0677643 -1041.62256
v 159.305145 -12.5644035 -1043.69617
v 153.154572 -58.2770538 -1041.62256
v 144.994415 -101.62085 -1035.30811
v 134.736725 -141.909073 -1024.47107
v 174.799286 95.8453369 -999.893921
v 174.113617 48.458065 -1006.41785
v 171.212921 1.31361771 -1009.72131
v 166.169708 -44.4110565 -1009.72131
v 159.109833 -87.5744781 -1006.41785
v 150.209564 -127.098801 -999.893921
v 139.691132 -161.997574 -990.312012
v 75.8242493 19.4147453 -1126.72717
v 85.3869324 -23.6915131 -1120.56628
v 66.5001526 -18.3913727 -1117.35181
v 94.4980774 -63.1790466 -1107.85278
v 76.2757263 -63.1790466 -1107.85278
v 57.6475525 -54.2857971 -1101.98608
v 103.106964 -98.9239349 -1089.23816
v 85.3869324 -102.538376 -1091.78418
v 67.6669006 -98.9239349 -1089.23816
v 49.4874573 -87.3725128 -1081.01392
v 111.156647 -130.72403 -1065.03906
v 93.9501648 -137.259689 -1069.77576
v 76.8236389 -137.259689 -1069.77576
v 59.6172791 -130.72403 -1065.03906
v 42.2235413 -116.825256 -1054.95874
v 118.560211 -158.198502 -1035.30811
v 102.045441 -167.667007 -1041.62256
v 85.3869324 -170.773132 -1043.69617
v 68.7284241 -167.667007 -1041.62256
v 52.2137146 -158.198502 -1035.30811
v 36.0372009 -141.909073 -1024.47107
v 125.173981 -180.682999 -999.893921
v 109.663544 -193.405289 -1006.41785
v 93.5470886 -199.846893 -1009.72131
v 77.2268372 -199.846893 -1009.72131
v 61.110321 -193.405289 -1006.41785
v 45.599884 -180.682999 -999.893921
v 31.0827942 -161.997574 -990.312012
v 69.9141541 72.9987335 -1126.72717
v 58.9527283 32.8862381 -1120.56628
v 54.8274841 87.4394379 -1117.35181
v 49.019989 -4.84306145 -1107.85278
v 43.3890076 46.2107964 -1107.85278
v 40.5036926 101.149963 -1101.98608
v 40.1403503 -40.0084229 -1089.23816
v 33.4977112 8.52125549 -1091.78418
v 29.1888123 59.2846947 -1089.23816
v 27.3003235 113.787903 -1081.01392
v 32.3615417 -72.3879547 -1065.03906
v 24.9344788 -26.2001457 -1069.77576
v 19.6420593 21.7836151 -1069.77576
v 16.434967 72.0107269 -1065.03906
v 15.5470886 125.037918 -1054.95874
v 25.7794495 -101.62085 -1035.30811
v 17.6192932 -58.2770538 -1041.62256
v 11.4687195 -12.5644035 -1043.69617
v 7.32376099 35.0677643 -1041.62256
v 5.2772522 84.263382 -1035.30811
v 5.537323 134.619171 -1024.47107
v 20.5643005 -127.098801 -999.893921
v 11.664032 -87.5744781 -1006.41785
v 4.60415649 -44.4110565 -1009.72131
v -0.439056396 1.31361771 -1009.72131
v -3.3397522 48.458065 -1006.41785
v -4.02542114 95.8453369 -999.893921
v -2.47903442 142.292297 -990.312012
v 69.0497131 124.430832 -1120.56628
v 53.7997742 140.60054 -1107.85278
v 68.5419617 172.153519 -1107.85278
v 39.7029724 154.612076 -1089.23816
v 53.3176575 188.219299 -1091.78418
v 68.3746033 215.9785 -1089.23816
v 26.8457336 166.400482 -1065.03906
v 39.4620056 201.481659 -1069.77563
v 53.3176575 231.137299 -1069.77563
v 68.5419617 255.643707 -1065.03882
v 15.3742371 175.808075 -1035.30811
v 26.8457336 212.064346 -1041.62256
v 39.7029724 243.422424 -1043.69617
v 53.7997742 269.754608 -1041.62256
v 69.0497131 290.690704 -1035.30811
v 5.537323 182.546249 -999.893921
v 15.5470886 219.696014 -1006.41785
v 27.3003235 252.813934 -1009.72107
v 40.5036926 281.073242 -1009.72107
v 54.8274841 303.768524 -1006.41785
v 69.9141541 320.333099 -999.893921
v 75.8242493 344.296692 -960.127319
v 58.9527283 331.630615 -967.369751
v 66.5001526 351.097534 -927.877441
v 43.3890076 311.96698 -971.572754
v 49.019989 334.798859 -933.684082
v 57.6475525 350.586151 -894.367432
v 29.1888123 286.054108 -972.950562
v 33.4977722 311.500641 -936.416016
v 40.1404114 330.459259 -899.262085
v 49.4874573 342.775513 -860.433594
v 16.434967 254.276733 -971.572754
v 19.6421204 281.845123 -936.416016
v 24.9344788 303.303986 -900.805786
v 32.3615417 318.853638 -864.409912
v 42.2235413 327.860321 -826.923462
v 5.2772522 216.748077 -967.369751
v 7.32382202 245.555634 -933.684082
v 11.4688416 269.092834 -899.262085
v 17.6193542 287.300659 -864.409912
v 25.7794495 299.877838 -829.419189
v 36.0372009 306.213196 -794.673462
v -4.02542114 173.393021 -960.127319
v -3.33969116 201.617874 -927.877441
v -0.438995361 226.262299 -894.367432
v 4.60421753 246.710876 -860.433594
v 11.664093 262.4534 -826.923462
v 20.5643005 273.096405 -794.673462
v 31.0827942 278.374634 -764.488892
v -9.93551636 119.808731 -960.127319
v -11.059967 68.6257172 -967.369751
v -15.0123596 95.7869568 -927.877441
v -9.52120972 18.9440651 -971.572754
v -15.1521912 41.7760429 -933.684082
v -17.5829163 70.8265228 -894.367432
v -5.54354858 -28.848259 -972.950562
v -12.4272156 -8.91253662 -936.416016
v -16.4951477 15.5568237 -899.262085
v -17.5829163 45.5505333 -860.433594
v 0.77432251 -74.4007645 -971.572754
v -7.13485718 -56.8962936 -936.416016
v -12.4272156 -35.4372597 -900.805786
v -15.1521912 -9.82373428 -864.409912
v -15.0123596 20.5900078 -826.923462
v 9.44223022 -117.258514 -967.369751
v 0.77432251 -102.622635 -933.684082
v -5.54354858 -83.7361145 -899.262085
v -9.52120972 -60.877594 -864.409912
v -11.059967 -34.1286583 -829.419189
v -9.93551636 -3.43175697 -794.673462
v 20.5643005 -156.719406 -960.127319
v 11.664093 -146.076218 -927.877441
v 4.60421753 -130.333908 -894.367432
v -0.438995361 -109.885223 -860.433594
v -3.33969116 -85.240799 -826.923462
v -4.02542114 -57.0159454 -794.673462
v -2.47903442 -25.9152222 -764.488892
v 36.0372009 -189.836212 -960.127319
v 52.2137146 -208.803085 -967.369751
v 42.2235413 -211.483322 -927.877441
v 68.7284851 -219.844254 -971.572754
v 59.6172791 -228.565338 -933.684082
v 49.4874573 -226.398438 -894.367432
v 85.3869324 -223.468826 -972.950562
v 76.8236389 -236.594238 -936.416016
v 67.6669006 -240.429993 -899.262085
v 57.6475525 -234.209076 -860.433594
v 102.045441 -219.844254 -971.572754
v 93.9501648 -236.594238 -936.416016
v 85.3869324 -244.790924 -900.805786
v 76.2757263 -244.510559 -864.409912
v 66.5001526 -234.720551 -826.923462
v 118.560211 -208.803085 -967.369751
v 111.156647 -228.565338 -933.684082
v 103.106964 -240.429993 -899.262085
v 94.4980774 -244.510559 -864.409912
v 85.3869324 -240.555878 -829.419189
v 75.8242493 -227.919617 -794.673584
v 134.736725 -189.836212 -960.127319
v 128.550385 -211.483322 -927.877441
v 121.286469 -226.398438 -894.367432
v 113.126312 -234.209076 -860.433594
v 104.273712 -234.720551 -826.923462
v 94.9496765 -227.919617 -794.673584
v 85.3869324 -213.976501 -764.488892
v 150.209564 -156.719406 -960.127319
v 161.331635 -117.258514 -967.369751
v 159.109833 -146.076218 -927.877441
v 169.999542 -74.4007645 -971.572754
v 169.999542 -102.622635 -933.684082
v 166.169708 -130.333908 -894.367432
v 176.317474 -28.848259 -972.950562
v 177.908722 -56.8962936 -936.416016
v 176.317352 -83.7361145 -899.262085
v 171.212921 -109.885223 -860.433594
v 180.295074 18.9440651 -971.572754
v 183.20108 -8.91253662 -936.416016
v 183.20108 -35.4372597 -900.805786
v 180.295074 -60.877594 -864.409912
v 174.113617 -85.240799 -826.923462
v 181.833893 68.6257172 -967.369751
v 185.926117 41.7760429 -933.684082
v 187.269012 15.5568237 -899.262085
v 185.926117 -9.82373428 -864.409912
v 181.833832 -34.1286583 -829.419189
v 174.799286 -57.0159454 -794.673462
v 180.709442 119.808731 -960.127319
v 185.786285 95.7869568 -927.877441
v 188.356842 70.8265228 -894.367432
v 188.356842 45.5505333 -860.433594
v 185.786285 20.5900078 -826.923462
v 180.709442 -3.43175697 -794.673462
v 173.253021 -25.9152222 -764.488892
v 174.799286 173.393021 -960.127319
v 165.496613 216.748077 -967.369751
v 174.113617 201.617874 -927.877441
v 154.338837 254.276733 -971.572754
v 163.450043 245.555634 -933.684082
v 171.212921 226.262299 -894.367432
v 141.585114 286.054108 -972.950562
v 151.131805 281.845123 -936.416016
v 159.305084 269.092834 -899.262085
v 166.169708 246.710876 -860.433594
v 127.384918 311.96698 -971.572754
v 137.276093 311.500641 -936.416016
v 145.839386 303.303986 -900.805786
v 153.154572 287.300659 -864.409912
v 159.109833 262.4534 -826.923462
v 111.821136 331.630615 -967.369751
v 121.753876 334.798859 -933.684082
v 130.633453 330.459259 -899.262085
v 138.412323 318.853638 -864.409912
v 144.994415 299.877838 -829.419189
v 150.209564 273.096405 -794.673462
v 94.9496765 344.296692 -960.127319
v 104.273712 351.097534 -927.877441
v 113.126312 350.586151 -894.367432
v 121.286469 342.775513 -860.433594
v 128.550385 327.860321 -826.923462
v 134.736725 306.213196 -794.673462
v 139.691132 278.374634 -764.488892
v 85.3869324 356.932983 -925.381592
v 76.2757263 360.887665 -890.391113
v 94.4980774 360.887665 -890.391113
v 67.6669006 356.807098 -855.53894
v 85.3869324 361.16803 -853.995117
v 103.106964 356.807098 -855.53894
v 59.6172791 344.942322 -821.116821
v 76.8236389 352.971405 -818.384888
v 93.9501648 352.971405 -818.384888
v 111.156647 344.942322 -821.116821
v 52.2137146 325.180084 -787.431152
v 68.7284851 336.221344 -783.228149
v 85.3869324 339.845947 -781.850342
v 102.045441 336.221344 -783.228149
v 118.560211 325.180084 -787.431152
v 45.599884 297.059967 -754.906982
v 61.110321 309.782288 -748.383057
v 77.2268372 316.223969 -745.079834
v 93.5470886 316.223969 -745.079834
v 109.663544 309.782288 -748.383057
v 125.173981 297.059967 -754.906982
v -11.059967 150.505737 -925.381592
v -15.1521912 126.200699 -890.391113
v -9.52120972 177.254669 -890.391113
v -16.4951477 100.820236 -855.53894
v -12.4272156 151.814331 -853.995117
v -5.54354858 200.113174 -855.53894
v -15.1521912 74.6009216 -821.116821
v -12.4272156 125.28952 -818.384888
v -7.13485718 173.27327 -818.384888
v 0.77432251 218.999725 -821.116821
v -11.059967 47.751339 -787.431152
v -9.52120972 97.4329987 -783.228149
v -5.54354858 145.225418 -781.850342
v 0.77432251 190.77774 -783.228149
v 9.44223022 233.63559 -787.431152
v -4.02542114 20.531723 -754.906982
v -3.3397522 67.9190063 -748.383057
v -0.439056396 115.063446 -745.079712
v 4.60415649 160.788116 -745.079712
v 11.664032 203.951462 -748.383057
v 20.5643005 243.475891 -754.906982
v 25.7794495 -183.500763 -925.381592
v 32.3615417 -202.476562 -890.391113
v 17.6193542 -170.923691 -890.391113
v 40.1404114 -214.082169 -855.53894
v 24.9344788 -186.927002 -853.995117
v 11.4688416 -152.715775 -855.53894
v 49.019989 -218.421875 -821.116821
v 33.4977722 -195.123596 -818.384888
v 19.6421204 -165.468063 -818.384888
v 7.32382202 -129.17865 -821.116821
v 58.9527283 -215.25354 -787.431152
v 43.3890076 -195.589981 -783.228149
v 29.1888123 -169.677017 -781.850342
v 16.434967 -137.899643 -783.228149
v 5.2772522 -100.371002 -787.431152
v 69.9141541 -203.956039 -754.907104
v 54.8274841 -187.391556 -748.383057
v 40.5036926 -164.696167 -745.079834
v 27.3003235 -136.436951 -745.079834
v 15.5470886 -103.318939 -748.383057
v 5.537323 -66.1691666 -754.907104
v 144.994415 -183.500763 -925.381592
v 153.154572 -170.923599 -890.391113
v 138.412323 -202.476562 -890.391113
v 159.305084 -152.715775 -855.53894
v 145.839386 -186.927002 -853.995117
v 130.633453 -214.082169 -855.53894
v 163.450043 -129.17865 -821.116821
v 151.131805 -165.468063 -818.384888
v 137.276093 -195.123596 -818.384888
v 121.753876 -218.421875 -821.116821
v 165.496613 -100.371002 -787.431152
v 154.338837 -137.899643 -783.228149
v 141.585114 -169.677017 -781.850342
v 127.384918 -195.589981 -783.228149
v 111.821136 -215.25354 -787.431152
v 165.236542 -66.1691666 -754.907104
v 155.226837 -103.318939 -748.383057
v 143.473602 -136.436951 -745.079834
v 130.270172 -164.696167 -745.079834
v 115.946381 -187.391556 -748.383057
v 100.859772 -203.956039 -754.907104
v 181.833832 150.505737 -925.381592
v 180.295074 177.254669 -890.391113
v 185.926117 126.200699 -890.391113
v 176.317352 200.113281 -855.53894
v 183.20108 151.814331 -853.995117
v 187.269012 100.820236 -855.53894
v 169.999542 218.999725 -821.116821
v 177.908722 173.27327 -818.384888
v 183.20108 125.28952 -818.384888
v 185.926117 74.6009216 -821.116821
v 161.331635 233.63559 -787.431152
v 169.999542 190.77774 -783.228149
v 176.317474 145.225418 -781.850342
v 180.295074 97.4329987 -783.228149
v 181.833893 47.751339 -787.431152
v 150.209564 243.475891 -754.906982
v 159.109833 203.951462 -748.383057
v 166.169708 160.788116 -745.079712
v 171.212921 115.063446 -745.079712
v 174.113617 67.9190063 -748.383057
v 174.799286 20.531723 -754.906982
v 85.3869324 58.1884804 -624.922363
v 94.9496765 96.962326 -628.073608
v 75.8242493 96.962326 -628.073608
v 104.273712 134.768433 -637.449219
v 85.3869324 140.068497 -634.234741
v 66.5001526 134.768433 -637.449219
v 113.126312 170.662872 -652.814819
v 94.4980774 179.556137 -646.94812
v 76.2757263 179.556137 -646.94812
v 57.6475525 170.662872 -652.814819
v 121.286469 203.749496 -673.787109
v 103.106964 215.301102 -665.562622
v 85.3869324 218.915359 -663.016724
v 67.6669006 215.301102 -665.562622
v 49.4874573 203.749496 -673.787109
v 128.550385 233.202423 -699.842285
v 111.156647 247.101013 -689.761841
v 93.9501648 253.636749 -685.025024
v 76.8236389 253.636749 -685.025024
v 59.6172791 247.101105 -689.761841
v 42.2235413 233.202423 -699.842285
v 134.736725 258.286133 -730.329956
v 118.560211 274.57547 -719.49292
v 102.045441 284.044067 -713.178467
v 85.3869324 287.150116 -711.104736
v 68.7284241 284.044067 -713.178467
v 52.2137146 274.57547 -719.49292
v 36.0372009 258.286133 -730.329956
v 100.859772 43.378231 -628.073608
v 115.946381 28.9375343 -637.449219
v 111.821136 83.4908295 -634.234741
v 130.270172 15.2271118 -652.814819
v 127.384918 70.1662598 -646.94812
v 121.753876 121.220123 -646.94812
v 143.473602 2.58916473 -673.787109
v 141.585114 57.0923576 -665.562622
v 137.276093 107.855713 -663.016724
v 130.633453 156.385406 -665.562622
v 155.226837 -8.66094971 -699.842285
v 154.338959 44.3662453 -689.761841
v 151.131805 94.5934448 -685.025024
v 145.839386 142.577133 -685.025024
v 138.412445 188.76503 -689.761841
v 165.236542 -18.2421112 -730.329956
v 165.496613 32.1136818 -719.49292
v 163.450043 81.3092041 -713.178467
v 159.305145 128.941467 -711.104736
v 153.154572 174.654053 -713.178467
v 144.994415 217.997833 -719.49292
v 85.3869324 10.2614288 -628.073608
v 85.3869324 -36.4695015 -637.449219
v 101.724213 -8.05376434 -634.234741
v 85.3869324 -80.8374329 -652.814819
v 102.231842 -55.7765274 -646.94812
v 116.974091 -24.2234612 -646.94812
v 85.3869324 -121.734787 -673.787109
v 102.399261 -99.6015167 -665.562744
v 117.456268 -71.8422241 -663.016724
v 131.070892 -38.2350998 -665.562622
v 85.3869324 -158.140579 -699.842285
v 102.231964 -139.266632 -689.761841
v 117.456268 -114.760208 -685.025146
v 131.311859 -85.1046753 -685.025146
v 143.928192 -50.0234909 -689.761841
v 85.3869324 -189.145767 -730.329956
v 101.724213 -174.313629 -719.49292
v 116.974091 -153.377625 -713.178467
v 131.070892 -127.045349 -711.104858
v 143.928192 -95.6873627 -713.178467
v 155.399628 -59.4310913 -719.49292
v 69.9141541 43.378231 -628.073608
v 54.8274841 28.9375343 -637.449219
v 69.0497131 -8.05376434 -634.234741
v 40.5036926 15.2271118 -652.814819
v 53.7997742 -24.2234612 -646.94812
v 68.5419617 -55.7765274 -646.94812
v 27.3003235 2.58916473 -673.787109
v 39.7029724 -38.2350998 -665.562622
v 53.3176575 -71.8422241 -663.016724
v 68.3746033 -99.6015167 -665.562744
v 15.5470886 -8.66094971 -699.842285
v 26.8457336 -50.0234909 -689.761841
v 39.4620056 -85.1046753 -685.025146
v 53.3176575 -114.760208 -685.025146
v 68.5419617 -139.266632 -689.761963
v 5.537323 -18.2421112 -730.329956
v 15.3742371 -59.4310913 -719.49292
v 26.8457336 -95.6873627 -713.178467
v 39.7029724 -127.045349 -711.104858
v 53.7997742 -153.377625 -713.178467
v 69.0497131 -174.313629 -719.49292
v 58.9527283 83.4908295 -634.234741
v 49.019989 121.220123 -646.94812
v 43.3890076 70.1662598 -646.94812
v 40.1403503 156.385406 -665.562622
v 33.4977112 107.855713 -663.016724
v 29.1888123 57.0923576 -665.562622
v 32.3615417 188.76503 -689.761841
v 24.9344788 142.577133 -685.025024
v 19.6420593 94.5934448 -685.025024
v 16.434967 44.3662453 -689.761841
v 25.7794495 217.997833 -719.49292
v 17.6192932 174.654053 -713.178467
v 11.4687195 128.941467 -711.104736
v 7.32376099 81.3092041 -713.178467
v 5.2772522 32.1136818 -719.49292
g 
f 3 1 2
f 5 2 4
f 6 3 5
f 8 4 7
f 9 5 8
f 10 6 9
f 12 7 11
f 13 8 12
f 14 9 13
f 15 10 14
f 17 11 16
f 18 12 17
f 19 13 18
f 20 14 19
f 21 15 20
f 23 16 22
f 24 17 23
f 25 18 24
f 26 19 25
f 27 20 26
f 28 21 27
f 30 22 29
f 31 23 30
f 32 24 31
f 33 25 32
f 34 26 33
f 35 27 34
f 36 28 35
f 3 2 5
f 5 4 8
f 6 5 9
f 8 7 12
f 9 8 13
f 10 9 14
f 12 11 17
f 13 12 18
f 14 13 19
f 15 14 20
f 17 16 23
f 18 17 24
f 19 18 25
f 20 19 26
f 21 20 27
f 23 22 30
f 24 23 31
f 25 24 32
f 26 25 33
f 27 26 34
f 28 27 35
f 37 1 3
f 38 3 6
f 39 37 38
f 40 6 10
f 41 38 40
f 42 39 41
f 43 10 15
f 44 40 43
f 45 41 44
f 46 42 45
f 47 15 21
f 48 43 47
f 49 44 48
f 50 45 49
f 51 46 50
f 52 21 28
f 53 47 52
f 54 48 53
f 55 49 54
f 56 50 55
f 57 51 56
f 58 28 36
f 59 52 58
f 60 53 59
f 61 54 60
f 62 55 61
f 63 56 62
f 64 57 63
f 37 3 38
f 38 6 40
f 39 38 41
f 40 10 43
f 41 40 44
f 42 41 45
f 43 15 47
f 44 43 48
f 45 44 49
f 46 45 50
f 47 21 52
f 48 47 53
f 49 48 54
f 50 49 55
f 51 50 56
f 52 28 58
f 53 52 59
f 54 53 60
f 55 54 61
f 56 55 62
f 57 56 63
f 65 1 37
f 66 37 39
f 67 65 66
f 68 39 42
f 69 66 68
f 70 67 69
f 71 42 46
f 72 68 71
f 73 69 72
f 74 70 73
f 75 46 51
f 76 71 75
f 77 72 76
f 78 73 77
f 79 74 78
f 80 51 57
f 81 75 80
f 82 76 81
f 83 77 82
f 84 78 83
f 85 79 84
f 86 57 64
f 87 80 86
f 88 81 87
f 89 82 88
f 90 83 89
f 91 84 90
f 92 85 91
f 65 37 66
f 66 39 68
f 67 66 69
f 68 42 71
f 69 68 72
f 70 69 73
f 71 46 75
f 72 71 76
f 73 72 77
f 74 73 78
f 75 51 80
f 76 75 81
f 77 76 82
f 78 77 83
f 79 78 84
f 80 57 86
f 81 80 87
f 82 81 88
f 83 82 89
f 84 83 90
f 85 84 91
f 93 1 65
f 94 65 67
f 95 93 94
f 96 67 70
f 97 94 96
f 98 95 97
f 99 70 74
f 100 96 99
f 101 97 100
f 102 98 101
f 103 74 79
f 104 99 103
f 105 100 104
f 106 101 105
f 107 102 106
f 108 79 85
f 109 103 108
f 110 104 109
f 111 105 110
f 112 106 111
f 113 107 112
f 114 85 92
f 115 108 114
f 116 109 115
f 117 110 116
f 118 111 117
f 119 112 118
f 120 113 119
f 93 65 94
f 94 67 96
f 95 94 97
f 96 70 99
f 97 96 100
f 98 97 101
f 99 74 103
f 100 99 104
f 101 100 105
f 102 101 106
f 103 79 108
f 104 103 109
f 105 104 110
f 106 105 111
f 107 106 112
f 108 85 114
f 109 108 115
f 110 109 116
f 111 110 117
f 112 111 118
f 113 112 119
f 2 1 93
f 121 93 95
f 4 2 121
f 122 95 98
f 123 121 122
f 7 4 123
f 124 98 102
f 125 122 124
f 126 123 125
f 11 7 126
f 127 102 107
f 128 124 127
f 129 125 128
f 130 126 129
f 16 11 130
f 131 107 113
f 132 127 131
f 133 128 132
f 134 129 133
f 135 130 134
f 22 16 135
f 136 113 120
f 137 131 136
f 138 132 137
f 139 133 138
f 140 134 139
f 141 135 140
f 29 22 141
f 2 93 121
f 121 95 122
f 4 121 123
f 122 98 124
f 123 122 125
f 7 123 126
f 124 102 127
f 125 124 128
f 126 125 129
f 11 126 130
f 127 107 131
f 128 127 132
f 129 128 133
f 130 129 134
f 16 130 135
f 131 113 136
f 132 131 137
f 133 132 138
f 134 133 139
f 135 134 140
f 22 135 141
f 142 29 141
f 143 141 140
f 144 142 143
f 145 140 139
f 146 143 145
f 147 144 146
f 148 139 138
f 149 145 148
f 150 146 149
f 151 147 150
f 152 138 137
f 153 148 152
f 154 149 153
f 155 150 154
f 156 151 155
f 157 137 136
f 158 152 157
f 159 153 158
f 160 154 159
f 161 155 160
f 162 156 161
f 163 136 120
f 164 157 163
f 165 158 164
f 166 159 165
f 167 160 166
f 168 161 167
f 169 162 168
f 142 141 143
f 143 140 145
f 144 143 146
f 145 139 148
f 146 145 149
f 147 146 150
f 148 138 152
f 149 148 153
f 150 149 154
f 151 150 155
f 152 137 157
f 153 152 158
f 154 153 159
f 155 154 160
f 156 155 161
f 157 136 163
f 158 157 164
f 159 158 165
f 160 159 166
f 161 160 167
f 162 161 168
f 170 120 119
f 171 119 118
f 172 170 171
f 173 118 117
f 174 171 173
f 175 172 174
f 176 117 116
f 177 173 176
f 178 174 177
f 179 175 178
f 180 116 115
f 181 176 180
f 182 177 181
f 183 178 182
f 184 179 183
f 185 115 114
f 186 180 185
f 187 181 186
f 188 182 187
f 189 183 188
f 190 184 189
f 191 114 92
f 192 185 191
f 193 186 192
f 194 187 193
f 195 188 194
f 196 189 195
f 197 190 196
f 170 119 171
f 171 118 173
f 172 171 174
f 173 117 176
f 174 173 177
f 175 174 178
f 176 116 180
f 177 176 181
f 178 177 182
f 179 178 183
f 180 115 185
f 181 180 186
f 182 181 187
f 183 182 188
f 184 183 189
f 185 114 191
f 186 185 192
f 187 186 193
f 188 187 194
f 189 188 195
f 190 189 196
f 198 92 91
f 199 91 90
f 200 198 199
f 201 90 89
f 202 199 201
f 203 200 202
f 204 89 88
f 205 201 204
f 206 202 205
f 207 203 206
f 208 88 87
f 209 204 208
f 210 205 209
f 211 206 210
f 212 207 211
f 213 87 86
f 214 208 213
f 215 209 214
f 216 210 215
f 217 211 216
f 218 212 217
f 219 86 64
f 220 213 219
f 221 214 220
f 222 215 221
f 223 216 222
f 224 217 223
f 225 218 224
f 198 91 199
f 199 90 201
f 200 199 202
f 201 89 204
f 202 201 205
f 203 202 206
f 204 88 208
f 205 204 209
f 206 205 210
f 207 206 211
f 208 87 213
f 209 208 214
f 210 209 215
f 211 210 216
f 212 211 217
f 213 86 219
f 214 213 220
f 215 214 221
f 216 215 222
f 217 216 223
f 218 217 224
f 226 64 63
f 227 63 62
f 228 226 227
f 229 62 61
f 230 227 229
f 231 228 230
f 232 61 60
f 233 229 232
f 234 230 233
f 235 231 234
f 236 60 59
f 237 232 236
f 238 233 237
f 239 234 238
f 240 235 239
f 241 59 58
f 242 236 241
f 243 237 242
f 244 238 243
f 245 239 244
f 246 240 245
f 247 58 36
f 248 241 247
f 249 242 248
f 250 243 249
f 251 244 250
f 252 245 251
f 253 246 252
f 226 63 227
f 227 62 229
f 228 227 230
f 229 61 232
f 230 229 233
f 231 230 234
f 232 60 236
f 233 232 237
f 234 233 238
f 235 234 239
f 236 59 241
f 237 236 242
f 238 237 243
f 239 238 244
f 240 239 245
f 241 58 247
f 242 241 248
f 243 242 249
f 244 243 250
f 245 244 251
f 246 245 252
f 254 36 35
f 255 35 34
f 256 254 255
f 257 34 33
f 258 255 257
f 259 256 258
f 260 33 32
f 261 257 260
f 262 258 261
f 263 259 262
f 264 32 31
f 265 260 264
f 266 261 265
f 267 262 266
f 268 263 267
f 269 31 30
f 270 264 269
f 271 265 270
f 272 266 271
f 273 267 272
f 274 268 273
f 275 30 29
f 276 269 275
f 277 270 276
f 278 271 277
f 279 272 278
f 280 273 279
f 281 274 280
f 254 35 255
f 255 34 257
f 256 255 258
f 257 33 260
f 258 257 261
f 259 258 262
f 260 32 264
f 261 260 265
f 262 261 266
f 263 262 267
f 264 31 269
f 265 264 270
f 266 265 271
f 267 266 272
f 268 267 273
f 269 30 275
f 270 269 276
f 271 270 277
f 272 271 278
f 273 272 279
f 274 273 280
f 275 29 142
f 282 142 144
f 276 275 282
f 283 144 147
f 284 282 283
f 277 276 284
f 285 147 151
f 286 283 285
f 287 284 286
f 278 277 287
f 288 151 156
f 289 285 288
f 290 286 289
f 291 287 290
f 279 278 291
f 292 156 162
f 293 288 292
f 294 289 293
f 295 290 294
f 296 291 295
f 280 279 296
f 297 162 169
f 298 292 297
f 299 293 298
f 300 294 299
f 301 295 300
f 302 296 301
f 281 280 302
f 275 142 282
f 282 144 283
f 276 282 284
f 283 147 285
f 284 283 286
f 277 284 287
f 285 151 288
f 286 285 289
f 287 286 290
f 278 287 291
f 288 156 292
f 289 288 293
f 290 289 294
f 291 290 295
f 279 291 296
f 292 162 297
f 293 292 298
f 294 293 299
f 295 294 300
f 296 295 301
f 280 296 302
f 163 120 170
f 303 170 172
f 164 163 303
f 304 172 175
f 305 303 304
f 165 164 305
f 306 175 179
f 307 304 306
f 308 305 307
f 166 165 308
f 309 179 184
f 310 306 309
f 311 307 310
f 312 308 311
f 167 166 312
f 313 184 190
f 314 309 313
f 315 310 314
f 316 311 315
f 317 312 316
f 168 167 317
f 318 190 197
f 319 313 318
f 320 314 319
f 321 315 320
f 322 316 321
f 323 317 322
f 169 168 323
f 163 170 303
f 303 172 304
f 164 303 305
f 304 175 306
f 305 304 307
f 165 305 308
f 306 179 309
f 307 306 310
f 308 307 311
f 166 308 312
f 309 184 313
f 310 309 314
f 311 310 315
f 312 311 316
f 167 312 317
f 313 190 318
f 314 313 319
f 315 314 320
f 316 315 321
f 317 316 322
f 168 317 323
f 191 92 198
f 324 198 200
f 192 191 324
f 325 200 203
f 326 324 325
f 193 192 326
f 327 203 207
f 328 325 327
f 329 326 328
f 194 193 329
f 330 207 212
f 331 327 330
f 332 328 331
f 333 329 332
f 195 194 333
f 334 212 218
f 335 330 334
f 336 331 335
f 337 332 336
f 338 333 337
f 196 195 338
f 339 218 225
f 340 334 339
f 341 335 340
f 342 336 341
f 343 337 342
f 344 338 343
f 197 196 344
f 191 198 324
f 324 200 325
f 192 324 326
f 325 203 327
f 326 325 328
f 193 326 329
f 327 207 330
f 328 327 331
f 329 328 332
f 194 329 333
f 330 212 334
f 331 330 335
f 332 331 336
f 333 332 337
f 195 333 338
f 334 218 339
f 335 334 340
f 336 335 341
f 337 336 342
f 338 337 343
f 196 338 344
f 219 64 226
f 345 226 228
f 220 219 345
f 346 228 231
f 347 345 346
f 221 220 347
f 348 231 235
f 349 346 348
f 350 347 349
f 222 221 350
f 351 235 240
f 352 348 351
f 353 349 352
f 354 350 353
f 223 222 354
f 355 240 246
f 356 351 355
f 357 352 356
f 358 353 357
f 359 354 358
f 224 223 359
f 360 246 253
f 361 355 360
f 362 356 361
f 363 357 362
f 364 358 363
f 365 359 364
f 225 224 365
f 219 226 345
f 345 228 346
f 220 345 347
f 346 231 348
f 347 346 349
f 221 347 350
f 348 235 351
f 349 348 352
f 350 349 353
f 222 350 354
f 351 240 355
f 352 351 356
f 353 352 357
f 354 353 358
f 223 354 359
f 355 246 360
f 356 355 361
f 357 356 362
f 358 357 363
f 359 358 364
f 224 359 365
f 247 36 254
f 366 254 256
f 248 247 366
f 367 256 259
f 368 366 367
f 249 248 368
f 369 259 263
f 370 367 369
f 371 368 370
f 250 249 371
f 372 263 268
f 373 369 372
f 374 370 373
f 375 371 374
f 251 250 375
f 376 268 274
f 377 372 376
f 378 373 377
f 379 374 378
f 380 375 379
f 252 251 380
f 381 274 281
f 382 376 381
f 383 377 382
f 384 378 383
f 385 379 384
f 386 380 385
f 253 252 386
f 247 254 366
f 366 256 367
f 248 366 368
f 367 259 369
f 368 367 370
f 249 368 371
f 369 263 372
f 370 369 373
f 371 370 374
f 250 371 375
f 372 268 376
f 373 372 377
f 374 373 378
f 375 374 379
f 251 375 380
f 376 274 381
f 377 376 382
f 378 377 383
f 379 378 384
f 380 379 385
f 252 380 386
f 389 387 388
f 391 388 390
f 392 389 391
f 394 390 393
f 395 391 394
f 396 392 395
f 398 393 397
f 399 394 398
f 400 395 399
f 401 396 400
f 403 397 402
f 404 398 403
f 405 399 404
f 406 400 405
f 407 401 406
f 409 402 408
f 410 403 409
f 411 404 410
f 412 405 411
f 413 406 412
f 414 407 413
f 302 408 281
f 301 409 302
f 300 410 301
f 299 411 300
f 298 412 299
f 297 413 298
f 169 414 297
f 389 388 391
f 391 390 394
f 392 391 395
f 394 393 398
f 395 394 399
f 396 395 400
f 398 397 403
f 399 398 404
f 400 399 405
f 401 400 406
f 403 402 409
f 404 403 410
f 405 404 411
f 406 405 412
f 407 406 413
f 409 408 302
f 410 409 301
f 411 410 300
f 412 411 299
f 413 412 298
f 414 413 297
f 388 387 415
f 417 415 416
f 390 388 417
f 419 416 418
f 420 417 419
f 393 390 420
f 422 418 421
f 423 419 422
f 424 420 423
f 397 393 424
f 426 421 425
f 427 422 426
f 428 423 427
f 429 424 428
f 402 397 429
f 431 425 430
f 432 426 431
f 433 427 432
f 434 428 433
f 435 429 434
f 408 402 435
f 386 430 253
f 385 431 386
f 384 432 385
f 383 433 384
f 382 434 383
f 381 435 382
f 281 408 381
f 388 415 417
f 417 416 419
f 390 417 420
f 419 418 422
f 420 419 423
f 393 420 424
f 422 421 426
f 423 422 427
f 424 423 428
f 397 424 429
f 426 425 431
f 427 426 432
f 428 427 433
f 429 428 434
f 402 429 435
f 431 430 386
f 432 431 385
f 433 432 384
f 434 433 383
f 435 434 382
f 408 435 381
f 415 387 436
f 438 436 437
f 416 415 438
f 440 437 439
f 441 438 440
f 418 416 441
f 443 439 442
f 444 440 443
f 445 441 444
f 421 418 445
f 447 442 446
f 448 443 447
f 449 444 448
f 450 445 449
f 425 421 450
f 452 446 451
f 453 447 452
f 454 448 453
f 455 449 454
f 456 450 455
f 430 425 456
f 365 451 225
f 364 452 365
f 363 453 364
f 362 454 363
f 361 455 362
f 360 456 361
f 253 430 360
f 415 436 438
f 438 437 440
f 416 438 441
f 440 439 443
f 441 440 444
f 418 441 445
f 443 442 447
f 444 443 448
f 445 444 449
f 421 445 450
f 447 446 452
f 448 447 453
f 449 448 454
f 450 449 455
f 425 450 456
f 452 451 365
f 453 452 364
f 454 453 363
f 455 454 362
f 456 455 361
f 430 456 360
f 436 387 457
f 459 457 458
f 437 436 459
f 461 458 460
f 462 459 461
f 439 437 462
f 464 460 463
f 465 461 464
f 466 462 465
f 442 439 466
f 468 463 467
f 469 464 468
f 470 465 469
f 471 466 470
f 446 442 471
f 473 467 472
f 474 468 473
f 475 469 474
f 476 470 475
f 477 471 476
f 451 446 477
f 344 472 197
f 343 473 344
f 342 474 343
f 341 475 342
f 340 476 341
f 339 477 340
f 225 451 339
f 436 457 459
f 459 458 461
f 437 459 462
f 461 460 464
f 462 461 465
f 439 462 466
f 464 463 468
f 465 464 469
f 466 465 470
f 442 466 471
f 468 467 473
f 469 468 474
f 470 469 475
f 471 470 476
f 446 471 477
f 473 472 344
f 474 473 343
f 475 474 342
f 476 475 341
f 477 476 340
f 451 477 339
f 457 387 389
f 478 389 392
f 458 457 478
f 479 392 396
f 480 478 479
f 460 458 480
f 481 396 401
f 482 479 481
f 483 480 482
f 463 460 483
f 484 401 407
f 485 481 484
f 486 482 485
f 487 483 486
f 467 463 487
f 488 407 414
f 489 484 488
f 490 485 489
f 491 486 490
f 492 487 491
f 472 467 492
f 323 414 169
f 322 488 323
f 321 489 322
f 320 490 321
f 319 491 320
f 318 492 319
f 197 472 318
f 457 389 478
f 478 392 479
f 458 478 480
f 479 396 481
f 480 479 482
f 460 480 483
f 481 401 484
f 482 481 485
f 483 482 486
f 463 483 487
f 484 407 488
f 485 484 489
f 486 485 490
f 487 486 491
f 467 487 492
f 488 414 323
f 489 488 322
f 490 489 321
f 491 490 320
f 492 491 319
f 472 492 318
