# File exported by Houdini 20.5.445 (www.sidefx.com)
# 492 points
# 2940 vertices
# 980 primitives
# Bounds: [-52.5890503, -149.103958, -1152.7981] to [223.362976, 265.481079, -602.00293]
g 
v 85.3869629 58.1885033 -1152.7981
v 85.3869629 90.9792328 -1149.3606
v 106.120056 68.3214417 -1149.3606
v 85.3869629 122.951599 -1139.13391
v 107.278381 103.510178 -1142.64038
v 126.335571 78.201416 -1139.13391
v 85.3869629 153.307327 -1122.37341
v 107.958679 136.161087 -1128.77283
v 127.712646 114.573166 -1128.77283
v 145.528931 87.5818787 -1122.37341
v 85.3869629 181.288467 -1099.49744
v 108.182922 166.145279 -1108.46826
v 128.358643 147.152985 -1111.24561
v 146.601868 124.159592 -1108.46826
v 163.221069 96.2285767 -1099.49744
v 85.3869629 206.196548 -1071.0769
v 107.958679 193.283417 -1082.07251
v 128.358643 176.516617 -1087.23914
v 146.924805 156.226822 -1087.23914
v 163.830139 132.224976 -1082.07251
v 178.970032 103.925552 -1071.07715
v 85.3869629 227.409744 -1037.82178
v 107.278381 217.261856 -1049.64258
v 127.712646 202.937851 -1056.53015
v 146.601868 184.92186 -1058.79224
v 163.830139 163.467285 -1056.53015
v 179.201599 138.661469 -1049.64258
v 192.382751 110.48085 -1037.82178
v 85.3869629 244.398422 -1000.56189
v 106.120056 237.542648 -1011.01355
v 126.335632 226.209457 -1018.12976
v 145.528931 210.681793 -1021.73291
v 163.221069 191.347336 -1021.73291
v 178.970032 168.688721 -1018.12976
v 192.382629 143.271591 -1011.01355
v 203.12439 115.730637 -1000.56201
v 98.2007446 31.6602821 -1149.3606
v 120.807983 40.8772087 -1142.64038
v 110.694641 5.79409027 -1139.13391
v 141.662781 49.9936714 -1128.77283
v 134.117432 15.0635719 -1128.77283
v 122.556763 -18.764164 -1122.37341
v 160.690552 58.9384422 -1108.46826
v 154.916809 24.2071686 -1111.24561
v 146.015869 -8.99586487 -1108.46826
v 133.491028 -41.4014359 -1099.49744
v 177.780273 67.645401 -1082.07251
v 173.482788 33.2810097 -1087.23938
v 166.391174 0.45148468 -1087.23938
v 156.439209 -31.1492958 -1082.07251
v 143.224487 -61.5524139 -1071.07715
v 192.731201 76.0284271 -1049.64258
v 189.988892 42.3698235 -1056.53015
v 184.434814 9.78078461 -1058.79224
v 176.193298 -21.4949036 -1056.53015
v 165.258911 -51.1498566 -1049.64258
v 151.513977 -78.7142487 -1037.82178
v 205.196411 83.9524994 -1011.01355
v 204.277649 51.5311394 -1018.12976
v 200.390869 19.2758484 -1021.73303
v 193.633057 -12.0080566 -1021.73303
v 184.173096 -41.5396118 -1018.12976
v 172.247009 -68.5813675 -1011.01355
v 158.15271 -92.4584198 -1000.56201
v 72.5733032 31.6602821 -1149.3606
v 85.3869629 2.16783905 -1142.64038
v 60.0793457 5.79409027 -1139.13391
v 97.5956421 -24.8487473 -1128.77283
v 73.1782837 -24.8487473 -1128.77283
v 48.2172241 -18.764164 -1122.37341
v 109.131165 -49.3046875 -1108.46826
v 85.3869629 -51.7776184 -1111.24561
v 61.6427612 -49.3046875 -1108.46826
v 37.2828979 -41.4014359 -1099.49744
v 119.91748 -71.061676 -1082.07251
v 96.8613892 -75.5332336 -1087.23938
v 73.9125366 -75.5332336 -1087.23938
v 50.8565063 -71.061676 -1082.07251
v 27.5495605 -61.5524139 -1071.07715
v 129.837952 -89.859169 -1049.64258
v 107.708801 -96.337326 -1056.53015
v 85.3869629 -98.4624786 -1058.79224
v 63.0651245 -96.337326 -1056.53015
v 40.9359741 -89.859169 -1049.64258
v 19.2600098 -78.7142487 -1037.82178
v 138.700256 -105.242615 -1011.01355
v 117.916748 -113.946945 -1018.12976
v 96.321228 -118.354172 -1021.73303
v 74.4527588 -118.354172 -1021.73303
v 52.8571777 -113.946945 -1018.12976
v 32.0737305 -105.242615 -1011.01355
v 12.6212769 -92.4584198 -1000.56201
v 64.6539307 68.3214417 -1149.3606
v 49.9660645 40.8772087 -1142.64038
v 44.4384155 78.201416 -1139.13391
v 36.6565552 15.0635719 -1128.77283
v 29.1112061 49.9936714 -1128.77283
v 25.2449951 87.5818787 -1122.37341
v 24.7581787 -8.99586487 -1108.46826
v 15.8572998 24.2071686 -1111.24561
v 10.0834351 58.9384422 -1108.46826
v 7.55297852 96.2285767 -1099.49744
v 14.3347168 -31.1492958 -1082.07251
v 4.38275146 0.45148468 -1087.23938
v -2.7088623 33.2810097 -1087.23938
v -7.00628662 67.645401 -1082.07251
v -8.19598389 103.925552 -1071.07715
v 5.51501465 -51.1498566 -1049.64258
v -5.41931152 -21.4949036 -1056.53015
v -13.6608276 9.78078461 -1058.79224
v -19.2149658 42.3698235 -1056.53015
v -21.9572144 76.0284271 -1049.64258
v -21.6087646 110.48085 -1037.82178
v -1.47302246 -68.5813675 -1011.01355
v -13.3991089 -41.5396118 -1018.12976
v -22.8591309 -12.0080566 -1021.73303
v -29.6168213 19.2758484 -1021.73303
v -33.5036621 51.5311394 -1018.12976
v -34.4224854 83.9524994 -1011.01355
v -32.3504028 115.730637 -1000.56201
v 63.4956665 103.510178 -1142.64038
v 43.0612793 114.573166 -1128.77283
v 62.8153076 136.161087 -1128.77283
v 24.1720581 124.159592 -1108.46826
v 42.4152832 147.152985 -1111.24561
v 62.5910645 166.145279 -1108.46826
v 6.94378662 132.224976 -1082.07251
v 23.8491211 156.226822 -1087.23914
v 42.4152832 176.516617 -1087.23914
v 62.8153076 193.283417 -1082.07227
v -8.42755127 138.661469 -1049.64258
v 6.94378662 163.467285 -1056.53015
v 24.1720581 184.92186 -1058.79224
v 43.0612793 202.937851 -1056.53015
v 63.4956665 217.261856 -1049.64258
v -21.6087036 143.271591 -1011.01355
v -8.19598389 168.688721 -1018.12976
v 7.55297852 191.347336 -1021.73291
v 25.2449951 210.681793 -1021.73291
v 44.4383545 226.209457 -1018.12976
v 64.6539307 237.542648 -1011.01355
v 72.5732422 253.938004 -967.637207
v 49.9660645 245.272141 -975.536987
v 60.0793457 258.591003 -932.459717
v 29.1112061 231.818649 -980.121582
v 36.6565552 247.439804 -938.793457
v 48.2172241 258.24115 -895.907715
v 10.0834351 214.0896 -981.62439
v 15.8572998 231.499619 -941.773315
v 24.7581787 244.470718 -901.246582
v 37.2828979 252.897232 -858.893555
v -7.00622559 192.348129 -980.121582
v -2.70880127 211.209885 -941.773315
v 4.3828125 225.891678 -902.930542
v 14.3347778 236.530411 -863.230835
v 27.5495605 242.692642 -822.341431
v -21.9571533 166.671814 -975.536987
v -19.2149048 186.381393 -938.793457
v -13.6607666 202.485062 -901.246582
v -5.41925049 214.94249 -863.230835
v 5.51507568 223.547531 -825.063721
v 19.2600098 227.882065 -787.163818
v -34.4224854 137.00914 -967.637207
v -33.5036011 156.320023 -932.459717
v -29.6168213 173.181244 -895.907715
v -22.8590698 187.171799 -858.893555
v -13.3991089 197.942459 -822.341431
v -1.47302246 205.224243 -787.163818
v 12.6212769 208.83548 -754.239014
v -42.3417969 100.3479 -967.637207
v -43.8485718 65.3293915 -975.536987
v -49.1446533 83.9126282 -932.459717
v -41.7866211 31.3383141 -980.121582
v -49.3319702 46.9594307 -938.793457
v -52.5890503 66.8351898 -895.907715
v -36.4567261 -1.36030579 -981.62439
v -45.680542 12.2793198 -941.773315
v -51.1314697 29.0207062 -901.246582
v -52.5890503 49.5418739 -858.893555
v -27.9909668 -32.5264206 -980.121582
v -38.5889893 -20.5502167 -941.773315
v -45.680542 -5.86836624 -902.930542
v -49.3319702 11.6558952 -863.230835
v -49.1446533 32.4643669 -822.341309
v -16.3762817 -61.8488312 -975.536987
v -27.9909668 -51.8352661 -938.793457
v -36.456665 -38.9134789 -901.246582
v -41.7866211 -23.2741394 -863.230835
v -43.8485718 -4.97304916 -825.063721
v -42.3417969 16.0291557 -787.163818
v -1.47302246 -88.8471985 -967.637207
v -13.3991089 -81.5653305 -932.459717
v -22.8590698 -70.794754 -895.907715
v -29.6168213 -56.8041763 -858.893555
v -33.5036011 -39.9429626 -822.341431
v -34.4224854 -20.6320763 -787.163818
v -32.3504028 0.64642334 -754.239136
v 19.2600098 -111.505051 -967.637207
v 40.9359741 -124.481812 -975.536987
v 27.5495605 -126.315582 -932.459717
v 63.0651245 -132.035965 -980.121582
v 50.8565063 -138.002762 -938.793457
v 37.2828979 -136.520203 -895.907715
v 85.3869629 -134.515839 -981.62439
v 73.9125366 -143.495972 -941.773315
v 61.6427612 -146.120316 -901.246582
v 48.2172241 -141.86409 -858.893555
v 107.708801 -132.035965 -980.121582
v 96.8613892 -143.495972 -941.773315
v 85.3869629 -149.103958 -902.930542
v 73.1782837 -148.912155 -863.230835
v 60.0793457 -142.21402 -822.341431
v 129.837952 -124.481812 -975.536987
v 119.91748 -138.002762 -938.793457
v 109.131165 -146.120316 -901.246582
v 97.5956421 -148.912155 -863.230835
v 85.3869629 -146.206436 -825.063721
v 72.5732422 -137.560959 -787.163818
v 151.513977 -111.505051 -967.637207
v 143.224487 -126.315582 -932.459717
v 133.491028 -136.520203 -895.907715
v 122.556763 -141.86409 -858.893555
v 110.694641 -142.21402 -822.341431
v 98.2007446 -137.560959 -787.163818
v 85.3869629 -128.021378 -754.239136
v 172.247009 -88.8471985 -967.637207
v 187.150208 -61.8488312 -975.536987
v 184.173096 -81.5653305 -932.459717
v 198.764954 -32.5264206 -980.121582
v 198.764954 -51.8352661 -938.793457
v 193.633057 -70.794754 -895.907715
v 207.230774 -1.36030579 -981.62439
v 209.362976 -20.5502167 -941.773315
v 207.230774 -38.9134789 -901.246582
v 200.390808 -56.8041763 -858.893555
v 212.560547 31.3383141 -980.121582
v 216.45459 12.2793198 -941.773315
v 216.45459 -5.86836624 -902.930542
v 212.560547 -23.2741394 -863.230835
v 204.277527 -39.9429626 -822.341431
v 214.622498 65.3293915 -975.536987
v 220.105957 46.9594307 -938.793457
v 221.905396 29.0207062 -901.246582
v 220.105896 11.6558952 -863.230835
v 214.622498 -4.97304916 -825.063721
v 205.196411 -20.6320763 -787.163818
v 213.115723 100.3479 -967.637207
v 219.91864 83.9126282 -932.459717
v 223.362976 66.8351898 -895.907715
v 223.362976 49.5418739 -858.893555
v 219.91864 32.4643669 -822.341309
v 213.115723 16.0291557 -787.163818
v 203.12439 0.64642334 -754.239136
v 205.196411 137.00914 -967.637207
v 192.731201 166.671814 -975.536987
v 204.277527 156.320023 -932.459717
v 177.780273 192.348129 -980.121582
v 189.988892 186.381393 -938.793457
v 200.390808 173.181244 -895.907715
v 160.690552 214.0896 -981.62439
v 173.482788 211.209885 -941.773315
v 184.434753 202.485062 -901.246582
v 193.633057 187.171799 -858.893555
v 141.662781 231.818649 -980.121582
v 154.916687 231.499619 -941.773315
v 166.391174 225.891678 -902.930542
v 176.193176 214.94249 -863.230835
v 184.173096 197.942459 -822.341431
v 120.807983 245.272141 -975.536987
v 134.117432 247.439804 -938.793457
v 146.015808 244.470718 -901.246582
v 156.439209 236.530411 -863.230835
v 165.258911 223.547531 -825.063721
v 172.247009 205.224243 -787.163818
v 98.2007446 253.938004 -967.637207
v 110.694641 258.591003 -932.459717
v 122.556763 258.24115 -895.907715
v 133.491028 252.897232 -858.893555
v 143.224487 242.692642 -822.341431
v 151.513977 227.882065 -787.163818
v 158.15271 208.83548 -754.239014
v 85.3869629 262.583496 -929.737427
v 73.1782837 265.289185 -891.570435
v 97.5956421 265.289185 -891.570435
v 61.6427612 262.497375 -853.554443
v 85.3869629 265.481079 -851.870483
v 109.131165 262.497375 -853.554443
v 50.8565063 254.379807 -816.00769
v 73.9125366 259.873047 -813.02771
v 96.8613892 259.873047 -813.02771
v 119.91748 254.379807 -816.00769
v 40.9359741 240.858871 -779.264038
v 63.0651245 248.41304 -774.679565
v 85.3869629 250.892899 -773.176636
v 107.708801 248.41304 -774.679565
v 129.837952 240.858871 -779.264038
v 32.0737305 221.619644 -743.787476
v 52.8571777 230.32399 -736.671143
v 74.4527588 234.731186 -733.068115
v 96.321228 234.731186 -733.068115
v 117.916748 230.32399 -736.671143
v 138.700256 221.619644 -743.787476
v -43.8485718 121.350113 -929.737427
v -49.3319702 104.7211 -891.570435
v -41.7866211 139.651199 -891.570435
v -51.1314697 87.3562927 -853.554443
v -45.680542 122.245438 -851.870483
v -36.456665 155.290543 -853.554443
v -49.3319702 69.417572 -816.00769
v -45.680542 104.097687 -813.02771
v -38.5889893 136.927216 -813.02771
v -27.9909668 168.212326 -816.00769
v -43.8485718 51.0476112 -779.264038
v -41.7866211 85.0387573 -774.679443
v -36.4567261 117.737427 -773.176636
v -27.9909668 148.903427 -774.679443
v -16.3762817 178.225876 -779.264038
v -34.4224854 32.4244957 -743.787476
v -33.5036621 64.845932 -736.671143
v -29.6168213 97.1012115 -733.067993
v -22.8591309 128.385117 -733.067993
v -13.3991089 157.916626 -736.671143
v -1.47302246 184.958435 -743.787476
v 5.51507568 -107.170456 -929.737427
v 14.3347778 -120.153351 -891.570435
v -5.41925049 -98.5654907 -891.570435
v 24.7581787 -128.093674 -853.554443
v 4.3828125 -109.514633 -851.870483
v -13.6607666 -86.1079865 -853.554443
v 36.6565552 -131.062805 -816.00769
v 15.8572998 -115.122574 -813.02771
v -2.70880127 -94.8328552 -813.02771
v -19.2149048 -70.004364 -816.00769
v 49.9660645 -128.895081 -779.264038
v 29.1112061 -115.441666 -774.679565
v 10.0834351 -97.7125397 -773.176636
v -7.00622559 -75.9710922 -774.679565
v -21.9571533 -50.2947388 -779.264038
v 64.6539307 -121.165558 -743.787476
v 44.4383545 -109.832474 -736.671265
v 25.2449951 -94.3047333 -733.068115
v 7.55297852 -74.9703369 -733.068115
v -8.19598389 -52.3116608 -736.671265
v -21.6087036 -26.8945274 -743.787476
v 165.258911 -107.170456 -929.737427
v 176.193176 -98.5654297 -891.570435
v 156.439209 -120.153351 -891.570435
v 184.434753 -86.1079865 -853.554443
v 166.391174 -109.514633 -851.870483
v 146.015808 -128.093674 -853.554443
v 189.988892 -70.004364 -816.00769
v 173.482788 -94.8328552 -813.02771
v 154.916687 -115.122574 -813.02771
v 134.117432 -131.062805 -816.00769
v 192.731201 -50.2947388 -779.264038
v 177.780273 -75.9710922 -774.679565
v 160.690552 -97.7125397 -773.176636
v 141.662781 -115.441666 -774.679565
v 120.807983 -128.895081 -779.264038
v 192.382629 -26.8945274 -743.787476
v 178.970032 -52.3116608 -736.671265
v 163.221069 -74.9703369 -733.068115
v 145.528931 -94.3047333 -733.068115
v 126.335632 -109.832474 -736.671265
v 106.120056 -121.165558 -743.787476
v 214.622498 121.350113 -929.737427
v 212.560547 139.651199 -891.570435
v 220.105896 104.7211 -891.570435
v 207.230774 155.290604 -853.554443
v 216.45459 122.245438 -851.870483
v 221.905396 87.3562927 -853.554443
v 198.764954 168.212326 -816.00769
v 209.362976 136.927216 -813.02771
v 216.45459 104.097687 -813.02771
v 220.105957 69.417572 -816.00769
v 187.150208 178.225876 -779.264038
v 198.764954 148.903427 -774.679443
v 207.230774 117.737427 -773.176636
v 212.560547 85.0387573 -774.679443
v 214.622498 51.0476112 -779.264038
v 172.247009 184.958435 -743.787476
v 184.173096 157.916626 -736.671143
v 193.633057 128.385117 -733.067993
v 200.390869 97.1012115 -733.067993
v 204.277649 64.845932 -736.671143
v 205.196411 32.4244957 -743.787476
v 85.3869629 58.1885033 -602.00293
v 98.2007446 84.7167816 -605.440308
v 72.5733032 84.7167816 -605.440308
v 110.694641 110.582977 -615.666992
v 85.3869629 114.209152 -612.160645
v 60.0793457 110.582977 -615.666992
v 122.556763 135.14122 -632.427612
v 97.5956421 141.225815 -626.02832
v 73.1782837 141.225815 -626.02832
v 48.2172241 135.14122 -632.427612
v 133.491028 157.778442 -655.303589
v 109.131165 165.681824 -646.332642
v 85.3869629 168.154633 -643.555542
v 61.6427612 165.681824 -646.332642
v 37.2828979 157.778442 -655.303589
v 143.224487 177.92955 -683.723999
v 119.91748 187.438705 -672.728638
v 96.8613892 191.910278 -667.561768
v 73.9125366 191.910278 -667.561768
v 50.8565063 187.438751 -672.728638
v 27.5495605 177.92955 -683.723999
v 151.513977 195.091324 -716.979248
v 129.837952 206.236206 -705.158447
v 107.708801 212.714355 -698.270874
v 85.3869629 214.839523 -696.008911
v 63.0651245 212.714355 -698.270874
v 40.9359741 206.236206 -705.158447
v 19.2600098 195.091324 -716.979248
v 106.120056 48.0556221 -605.440308
v 126.335571 38.1755791 -615.666992
v 120.807983 75.4998627 -612.160645
v 145.528931 28.7951851 -632.427612
v 141.662781 66.3833923 -626.02832
v 134.117432 101.313492 -626.02832
v 163.221069 20.1484871 -655.303589
v 160.690552 57.4385643 -646.332642
v 154.916809 92.1698914 -643.555542
v 146.015869 125.372864 -646.332642
v 178.970032 12.4514542 -683.723999
v 177.780273 48.7315941 -672.728638
v 173.482788 83.0960541 -667.561768
v 166.391174 115.925507 -667.561768
v 156.439209 147.526367 -672.728638
v 192.382751 5.89620972 -716.979248
v 192.731201 40.3486366 -705.158447
v 189.988892 74.0072327 -698.270874
v 184.434814 106.596268 -696.008911
v 176.193298 137.871902 -698.270874
v 165.258911 167.526871 -705.158447
v 85.3869629 25.3977661 -605.440308
v 85.3869629 -6.57460785 -615.666992
v 107.278381 12.8668747 -612.160645
v 85.3869629 -36.9302597 -632.427612
v 107.958679 -19.7840881 -626.02832
v 127.712646 1.80389023 -626.02832
v 85.3869629 -64.9114151 -655.303589
v 108.182922 -49.76828 -646.332642
v 128.358643 -30.7759171 -643.555542
v 146.601868 -7.78259277 -646.332642
v 85.3869629 -89.8195419 -683.723999
v 107.958679 -76.9063492 -672.728638
v 128.358643 -60.1395416 -667.561768
v 146.924805 -39.849823 -667.561768
v 163.830139 -15.8479767 -672.728638
v 85.3869629 -111.032684 -716.979248
v 107.278381 -100.884827 -705.158447
v 127.712646 -86.5608063 -698.270874
v 146.601868 -68.5447998 -696.008911
v 163.830139 -47.0902863 -698.270874
v 179.201599 -22.2844696 -705.158447
v 64.6539307 48.0556221 -605.440308
v 44.4384155 38.1755791 -615.666992
v 63.4956665 12.8668747 -612.160645
v 25.2449951 28.7951851 -632.427612
v 43.0612793 1.80389023 -626.02832
v 62.8153076 -19.7840881 -626.02832
v 7.55297852 20.1484871 -655.303589
v 24.1720581 -7.78259277 -646.332642
v 42.4152832 -30.7759171 -643.555542
v 62.5910645 -49.76828 -646.332642
v -8.19598389 12.4514542 -683.723999
v 6.94378662 -15.8479767 -672.728638
v 23.8491211 -39.849823 -667.561768
v 42.4152832 -60.1395416 -667.561768
v 62.8153076 -76.9063492 -672.728638
v -21.6087646 5.89620972 -716.979248
v -8.42755127 -22.2844696 -705.158447
v 6.94378662 -47.0902863 -698.270874
v 24.1720581 -68.5447998 -696.008911
v 43.0612793 -86.5608063 -698.270874
v 63.4956665 -100.884827 -705.158447
v 49.9660645 75.4998627 -612.160645
v 36.6565552 101.313492 -626.02832
v 29.1112061 66.3833923 -626.02832
v 24.7581787 125.372864 -646.332642
v 15.8572998 92.1698914 -643.555542
v 10.0834351 57.4385643 -646.332642
v 14.3347168 147.526367 -672.728638
v 4.38275146 115.925507 -667.561768
v -2.7088623 83.0960541 -667.561768
v -7.00628662 48.7315941 -672.728638
v 5.51501465 167.526871 -705.158325
v -5.41931152 137.871902 -698.270874
v -13.6608276 106.596268 -696.008911
v -19.2149658 74.0072327 -698.270874
v -21.9572144 40.3486366 -705.158447
g 
f 3 1 2
f 5 2 4
f 6 3 5
f 8 4 7
f 9 5 8
f 10 6 9
f 12 7 11
f 13 8 12
f 14 9 13
f 15 10 14
f 17 11 16
f 18 12 17
f 19 13 18
f 20 14 19
f 21 15 20
f 23 16 22
f 24 17 23
f 25 18 24
f 26 19 25
f 27 20 26
f 28 21 27
f 30 22 29
f 31 23 30
f 32 24 31
f 33 25 32
f 34 26 33
f 35 27 34
f 36 28 35
f 3 2 5
f 5 4 8
f 6 5 9
f 8 7 12
f 9 8 13
f 10 9 14
f 12 11 17
f 13 12 18
f 14 13 19
f 15 14 20
f 17 16 23
f 18 17 24
f 19 18 25
f 20 19 26
f 21 20 27
f 23 22 30
f 24 23 31
f 25 24 32
f 26 25 33
f 27 26 34
f 28 27 35
f 37 1 3
f 38 3 6
f 39 37 38
f 40 6 10
f 41 38 40
f 42 39 41
f 43 10 15
f 44 40 43
f 45 41 44
f 46 42 45
f 47 15 21
f 48 43 47
f 49 44 48
f 50 45 49
f 51 46 50
f 52 21 28
f 53 47 52
f 54 48 53
f 55 49 54
f 56 50 55
f 57 51 56
f 58 28 36
f 59 52 58
f 60 53 59
f 61 54 60
f 62 55 61
f 63 56 62
f 64 57 63
f 37 3 38
f 38 6 40
f 39 38 41
f 40 10 43
f 41 40 44
f 42 41 45
f 43 15 47
f 44 43 48
f 45 44 49
f 46 45 50
f 47 21 52
f 48 47 53
f 49 48 54
f 50 49 55
f 51 50 56
f 52 28 58
f 53 52 59
f 54 53 60
f 55 54 61
f 56 55 62
f 57 56 63
f 65 1 37
f 66 37 39
f 67 65 66
f 68 39 42
f 69 66 68
f 70 67 69
f 71 42 46
f 72 68 71
f 73 69 72
f 74 70 73
f 75 46 51
f 76 71 75
f 77 72 76
f 78 73 77
f 79 74 78
f 80 51 57
f 81 75 80
f 82 76 81
f 83 77 82
f 84 78 83
f 85 79 84
f 86 57 64
f 87 80 86
f 88 81 87
f 89 82 88
f 90 83 89
f 91 84 90
f 92 85 91
f 65 37 66
f 66 39 68
f 67 66 69
f 68 42 71
f 69 68 72
f 70 69 73
f 71 46 75
f 72 71 76
f 73 72 77
f 74 73 78
f 75 51 80
f 76 75 81
f 77 76 82
f 78 77 83
f 79 78 84
f 80 57 86
f 81 80 87
f 82 81 88
f 83 82 89
f 84 83 90
f 85 84 91
f 93 1 65
f 94 65 67
f 95 93 94
f 96 67 70
f 97 94 96
f 98 95 97
f 99 70 74
f 100 96 99
f 101 97 100
f 102 98 101
f 103 74 79
f 104 99 103
f 105 100 104
f 106 101 105
f 107 102 106
f 108 79 85
f 109 103 108
f 110 104 109
f 111 105 110
f 112 106 111
f 113 107 112
f 114 85 92
f 115 108 114
f 116 109 115
f 117 110 116
f 118 111 117
f 119 112 118
f 120 113 119
f 93 65 94
f 94 67 96
f 95 94 97
f 96 70 99
f 97 96 100
f 98 97 101
f 99 74 103
f 100 99 104
f 101 100 105
f 102 101 106
f 103 79 108
f 104 103 109
f 105 104 110
f 106 105 111
f 107 106 112
f 108 85 114
f 109 108 115
f 110 109 116
f 111 110 117
f 112 111 118
f 113 112 119
f 2 1 93
f 121 93 95
f 4 2 121
f 122 95 98
f 123 121 122
f 7 4 123
f 124 98 102
f 125 122 124
f 126 123 125
f 11 7 126
f 127 102 107
f 128 124 127
f 129 125 128
f 130 126 129
f 16 11 130
f 131 107 113
f 132 127 131
f 133 128 132
f 134 129 133
f 135 130 134
f 22 16 135
f 136 113 120
f 137 131 136
f 138 132 137
f 139 133 138
f 140 134 139
f 141 135 140
f 29 22 141
f 2 93 121
f 121 95 122
f 4 121 123
f 122 98 124
f 123 122 125
f 7 123 126
f 124 102 127
f 125 124 128
f 126 125 129
f 11 126 130
f 127 107 131
f 128 127 132
f 129 128 133
f 130 129 134
f 16 130 135
f 131 113 136
f 132 131 137
f 133 132 138
f 134 133 139
f 135 134 140
f 22 135 141
f 142 29 141
f 143 141 140
f 144 142 143
f 145 140 139
f 146 143 145
f 147 144 146
f 148 139 138
f 149 145 148
f 150 146 149
f 151 147 150
f 152 138 137
f 153 148 152
f 154 149 153
f 155 150 154
f 156 151 155
f 157 137 136
f 158 152 157
f 159 153 158
f 160 154 159
f 161 155 160
f 162 156 161
f 163 136 120
f 164 157 163
f 165 158 164
f 166 159 165
f 167 160 166
f 168 161 167
f 169 162 168
f 142 141 143
f 143 140 145
f 144 143 146
f 145 139 148
f 146 145 149
f 147 146 150
f 148 138 152
f 149 148 153
f 150 149 154
f 151 150 155
f 152 137 157
f 153 152 158
f 154 153 159
f 155 154 160
f 156 155 161
f 157 136 163
f 158 157 164
f 159 158 165
f 160 159 166
f 161 160 167
f 162 161 168
f 170 120 119
f 171 119 118
f 172 170 171
f 173 118 117
f 174 171 173
f 175 172 174
f 176 117 116
f 177 173 176
f 178 174 177
f 179 175 178
f 180 116 115
f 181 176 180
f 182 177 181
f 183 178 182
f 184 179 183
f 185 115 114
f 186 180 185
f 187 181 186
f 188 182 187
f 189 183 188
f 190 184 189
f 191 114 92
f 192 185 191
f 193 186 192
f 194 187 193
f 195 188 194
f 196 189 195
f 197 190 196
f 170 119 171
f 171 118 173
f 172 171 174
f 173 117 176
f 174 173 177
f 175 174 178
f 176 116 180
f 177 176 181
f 178 177 182
f 179 178 183
f 180 115 185
f 181 180 186
f 182 181 187
f 183 182 188
f 184 183 189
f 185 114 191
f 186 185 192
f 187 186 193
f 188 187 194
f 189 188 195
f 190 189 196
f 198 92 91
f 199 91 90
f 200 198 199
f 201 90 89
f 202 199 201
f 203 200 202
f 204 89 88
f 205 201 204
f 206 202 205
f 207 203 206
f 208 88 87
f 209 204 208
f 210 205 209
f 211 206 210
f 212 207 211
f 213 87 86
f 214 208 213
f 215 209 214
f 216 210 215
f 217 211 216
f 218 212 217
f 219 86 64
f 220 213 219
f 221 214 220
f 222 215 221
f 223 216 222
f 224 217 223
f 225 218 224
f 198 91 199
f 199 90 201
f 200 199 202
f 201 89 204
f 202 201 205
f 203 202 206
f 204 88 208
f 205 204 209
f 206 205 210
f 207 206 211
f 208 87 213
f 209 208 214
f 210 209 215
f 211 210 216
f 212 211 217
f 213 86 219
f 214 213 220
f 215 214 221
f 216 215 222
f 217 216 223
f 218 217 224
f 226 64 63
f 227 63 62
f 228 226 227
f 229 62 61
f 230 227 229
f 231 228 230
f 232 61 60
f 233 229 232
f 234 230 233
f 235 231 234
f 236 60 59
f 237 232 236
f 238 233 237
f 239 234 238
f 240 235 239
f 241 59 58
f 242 236 241
f 243 237 242
f 244 238 243
f 245 239 244
f 246 240 245
f 247 58 36
f 248 241 247
f 249 242 248
f 250 243 249
f 251 244 250
f 252 245 251
f 253 246 252
f 226 63 227
f 227 62 229
f 228 227 230
f 229 61 232
f 230 229 233
f 231 230 234
f 232 60 236
f 233 232 237
f 234 233 238
f 235 234 239
f 236 59 241
f 237 236 242
f 238 237 243
f 239 238 244
f 240 239 245
f 241 58 247
f 242 241 248
f 243 242 249
f 244 243 250
f 245 244 251
f 246 245 252
f 254 36 35
f 255 35 34
f 256 254 255
f 257 34 33
f 258 255 257
f 259 256 258
f 260 33 32
f 261 257 260
f 262 258 261
f 263 259 262
f 264 32 31
f 265 260 264
f 266 261 265
f 267 262 266
f 268 263 267
f 269 31 30
f 270 264 269
f 271 265 270
f 272 266 271
f 273 267 272
f 274 268 273
f 275 30 29
f 276 269 275
f 277 270 276
f 278 271 277
f 279 272 278
f 280 273 279
f 281 274 280
f 254 35 255
f 255 34 257
f 256 255 258
f 257 33 260
f 258 257 261
f 259 258 262
f 260 32 264
f 261 260 265
f 262 261 266
f 263 262 267
f 264 31 269
f 265 264 270
f 266 265 271
f 267 266 272
f 268 267 273
f 269 30 275
f 270 269 276
f 271 270 277
f 272 271 278
f 273 272 279
f 274 273 280
f 275 29 142
f 282 142 144
f 276 275 282
f 283 144 147
f 284 282 283
f 277 276 284
f 285 147 151
f 286 283 285
f 287 284 286
f 278 277 287
f 288 151 156
f 289 285 288
f 290 286 289
f 291 287 290
f 279 278 291
f 292 156 162
f 293 288 292
f 294 289 293
f 295 290 294
f 296 291 295
f 280 279 296
f 297 162 169
f 298 292 297
f 299 293 298
f 300 294 299
f 301 295 300
f 302 296 301
f 281 280 302
f 275 142 282
f 282 144 283
f 276 282 284
f 283 147 285
f 284 283 286
f 277 284 287
f 285 151 288
f 286 285 289
f 287 286 290
f 278 287 291
f 288 156 292
f 289 288 293
f 290 289 294
f 291 290 295
f 279 291 296
f 292 162 297
f 293 292 298
f 294 293 299
f 295 294 300
f 296 295 301
f 280 296 302
f 163 120 170
f 303 170 172
f 164 163 303
f 304 172 175
f 305 303 304
f 165 164 305
f 306 175 179
f 307 304 306
f 308 305 307
f 166 165 308
f 309 179 184
f 310 306 309
f 311 307 310
f 312 308 311
f 167 166 312
f 313 184 190
f 314 309 313
f 315 310 314
f 316 311 315
f 317 312 316
f 168 167 317
f 318 190 197
f 319 313 318
f 320 314 319
f 321 315 320
f 322 316 321
f 323 317 322
f 169 168 323
f 163 170 303
f 303 172 304
f 164 303 305
f 304 175 306
f 305 304 307
f 165 305 308
f 306 179 309
f 307 306 310
f 308 307 311
f 166 308 312
f 309 184 313
f 310 309 314
f 311 310 315
f 312 311 316
f 167 312 317
f 313 190 318
f 314 313 319
f 315 314 320
f 316 315 321
f 317 316 322
f 168 317 323
f 191 92 198
f 324 198 200
f 192 191 324
f 325 200 203
f 326 324 325
f 193 192 326
f 327 203 207
f 328 325 327
f 329 326 328
f 194 193 329
f 330 207 212
f 331 327 330
f 332 328 331
f 333 329 332
f 195 194 333
f 334 212 218
f 335 330 334
f 336 331 335
f 337 332 336
f 338 333 337
f 196 195 338
f 339 218 225
f 340 334 339
f 341 335 340
f 342 336 341
f 343 337 342
f 344 338 343
f 197 196 344
f 191 198 324
f 324 200 325
f 192 324 326
f 325 203 327
f 326 325 328
f 193 326 329
f 327 207 330
f 328 327 331
f 329 328 332
f 194 329 333
f 330 212 334
f 331 330 335
f 332 331 336
f 333 332 337
f 195 333 338
f 334 218 339
f 335 334 340
f 336 335 341
f 337 336 342
f 338 337 343
f 196 338 344
f 219 64 226
f 345 226 228
f 220 219 345
f 346 228 231
f 347 345 346
f 221 220 347
f 348 231 235
f 349 346 348
f 350 347 349
f 222 221 350
f 351 235 240
f 352 348 351
f 353 349 352
f 354 350 353
f 223 222 354
f 355 240 246
f 356 351 355
f 357 352 356
f 358 353 357
f 359 354 358
f 224 223 359
f 360 246 253
f 361 355 360
f 362 356 361
f 363 357 362
f 364 358 363
f 365 359 364
f 225 224 365
f 219 226 345
f 345 228 346
f 220 345 347
f 346 231 348
f 347 346 349
f 221 347 350
f 348 235 351
f 349 348 352
f 350 349 353
f 222 350 354
f 351 240 355
f 352 351 356
f 353 352 357
f 354 353 358
f 223 354 359
f 355 246 360
f 356 355 361
f 357 356 362
f 358 357 363
f 359 358 364
f 224 359 365
f 247 36 254
f 366 254 256
f 248 247 366
f 367 256 259
f 368 366 367
f 249 248 368
f 369 259 263
f 370 367 369
f 371 368 370
f 250 249 371
f 372 263 268
f 373 369 372
f 374 370 373
f 375 371 374
f 251 250 375
f 376 268 274
f 377 372 376
f 378 373 377
f 379 374 378
f 380 375 379
f 252 251 380
f 381 274 281
f 382 376 381
f 383 377 382
f 384 378 383
f 385 379 384
f 386 380 385
f 253 252 386
f 247 254 366
f 366 256 367
f 248 366 368
f 367 259 369
f 368 367 370
f 249 368 371
f 369 263 372
f 370 369 373
f 371 370 374
f 250 371 375
f 372 268 376
f 373 372 377
f 374 373 378
f 375 374 379
f 251 375 380
f 376 274 381
f 377 376 382
f 378 377 383
f 379 378 384
f 380 379 385
f 252 380 386
f 389 387 388
f 391 388 390
f 392 389 391
f 394 390 393
f 395 391 394
f 396 392 395
f 398 393 397
f 399 394 398
f 400 395 399
f 401 396 400
f 403 397 402
f 404 398 403
f 405 399 404
f 406 400 405
f 407 401 406
f 409 402 408
f 410 403 409
f 411 404 410
f 412 405 411
f 413 406 412
f 414 407 413
f 302 408 281
f 301 409 302
f 300 410 301
f 299 411 300
f 298 412 299
f 297 413 298
f 169 414 297
f 389 388 391
f 391 390 394
f 392 391 395
f 394 393 398
f 395 394 399
f 396 395 400
f 398 397 403
f 399 398 404
f 400 399 405
f 401 400 406
f 403 402 409
f 404 403 410
f 405 404 411
f 406 405 412
f 407 406 413
f 409 408 302
f 410 409 301
f 411 410 300
f 412 411 299
f 413 412 298
f 414 413 297
f 388 387 415
f 417 415 416
f 390 388 417
f 419 416 418
f 420 417 419
f 393 390 420
f 422 418 421
f 423 419 422
f 424 420 423
f 397 393 424
f 426 421 425
f 427 422 426
f 428 423 427
f 429 424 428
f 402 397 429
f 431 425 430
f 432 426 431
f 433 427 432
f 434 428 433
f 435 429 434
f 408 402 435
f 386 430 253
f 385 431 386
f 384 432 385
f 383 433 384
f 382 434 383
f 381 435 382
f 281 408 381
f 388 415 417
f 417 416 419
f 390 417 420
f 419 418 422
f 420 419 423
f 393 420 424
f 422 421 426
f 423 422 427
f 424 423 428
f 397 424 429
f 426 425 431
f 427 426 432
f 428 427 433
f 429 428 434
f 402 429 435
f 431 430 386
f 432 431 385
f 433 432 384
f 434 433 383
f 435 434 382
f 408 435 381
f 415 387 436
f 438 436 437
f 416 415 438
f 440 437 439
f 441 438 440
f 418 416 441
f 443 439 442
f 444 440 443
f 445 441 444
f 421 418 445
f 447 442 446
f 448 443 447
f 449 444 448
f 450 445 449
f 425 421 450
f 452 446 451
f 453 447 452
f 454 448 453
f 455 449 454
f 456 450 455
f 430 425 456
f 365 451 225
f 364 452 365
f 363 453 364
f 362 454 363
f 361 455 362
f 360 456 361
f 253 430 360
f 415 436 438
f 438 437 440
f 416 438 441
f 440 439 443
f 441 440 444
f 418 441 445
f 443 442 447
f 444 443 448
f 445 444 449
f 421 445 450
f 447 446 452
f 448 447 453
f 449 448 454
f 450 449 455
f 425 450 456
f 452 451 365
f 453 452 364
f 454 453 363
f 455 454 362
f 456 455 361
f 430 456 360
f 436 387 457
f 459 457 458
f 437 436 459
f 461 458 460
f 462 459 461
f 439 437 462
f 464 460 463
f 465 461 464
f 466 462 465
f 442 439 466
f 468 463 467
f 469 464 468
f 470 465 469
f 471 466 470
f 446 442 471
f 473 467 472
f 474 468 473
f 475 469 474
f 476 470 475
f 477 471 476
f 451 446 477
f 344 472 197
f 343 473 344
f 342 474 343
f 341 475 342
f 340 476 341
f 339 477 340
f 225 451 339
f 436 457 459
f 459 458 461
f 437 459 462
f 461 460 464
f 462 461 465
f 439 462 466
f 464 463 468
f 465 464 469
f 466 465 470
f 442 466 471
f 468 467 473
f 469 468 474
f 470 469 475
f 471 470 476
f 446 471 477
f 473 472 344
f 474 473 343
f 475 474 342
f 476 475 341
f 477 476 340
f 451 477 339
f 457 387 389
f 478 389 392
f 458 457 478
f 479 392 396
f 480 478 479
f 460 458 480
f 481 396 401
f 482 479 481
f 483 480 482
f 463 460 483
f 484 401 407
f 485 481 484
f 486 482 485
f 487 483 486
f 467 463 487
f 488 407 414
f 489 484 488
f 490 485 489
f 491 486 490
f 492 487 491
f 472 467 492
f 323 414 169
f 322 488 323
f 321 489 322
f 320 490 321
f 319 491 320
f 318 492 319
f 197 472 318
f 457 389 478
f 478 392 479
f 458 478 480
f 479 396 481
f 480 479 482
f 460 480 483
f 481 401 484
f 482 481 485
f 483 482 486
f 463 483 487
f 484 407 488
f 485 484 489
f 486 485 490
f 487 486 491
f 467 487 492
f 488 414 323
f 489 488 322
f 490 489 321
f 491 490 320
f 492 491 319
f 472 492 318
