# File exported by Houdini 20.5.445 (www.sidefx.com)
# 492 points
# 2940 vertices
# 980 primitives
# Bounds: [-206.390594, -45.5497131, -1137.63] to [377.16449, 161.926819, -617.171021]
g 
v 85.3869019 58.1885567 -1137.63
v 85.3869019 74.5984802 -1134.38184
v 129.231079 63.2595253 -1134.38184
v 85.3869019 90.5988464 -1124.71838
v 131.680481 80.8695221 -1128.03174
v 171.980774 68.2039032 -1124.71838
v 85.3869019 105.790161 -1108.88098
v 133.119141 97.2094727 -1114.92798
v 174.892944 86.405899 -1114.92798
v 212.569031 72.8982849 -1108.88098
v 85.3869019 119.793152 -1087.26501
v 133.593384 112.214844 -1095.7417
v 176.259155 102.710281 -1098.36609
v 214.837952 91.2033844 -1095.7417
v 249.9823 77.2254639 -1087.26501
v 85.3869019 132.258286 -1060.40979
v 133.119141 125.795975 -1070.79968
v 176.259155 117.405121 -1075.68201
v 215.520874 107.251236 -1075.68201
v 251.270447 95.2396393 -1070.79968
v 283.286621 81.0773773 -1060.40991
v 85.3869019 142.874268 -1028.98621
v 131.680481 137.795822 -1040.15588
v 174.892944 130.627457 -1046.66418
v 214.837952 121.611481 -1048.80164
v 251.270447 110.87468 -1046.66418
v 283.776367 98.4607544 -1040.15588
v 311.650513 84.3579407 -1028.98621
v 85.3869019 151.376144 -993.778442
v 129.231079 147.945236 -1003.65454
v 171.980774 142.273605 -1010.37878
v 212.569031 134.502884 -1013.78345
v 249.9823 124.827057 -1013.78345
v 283.286621 113.487686 -1010.37878
v 311.650391 100.767853 -1003.65454
v 334.365906 86.9851532 -993.778687
v 112.484131 44.9126549 -1134.38184
v 160.291443 49.5252037 -1128.03174
v 138.904907 31.9680748 -1124.71838
v 204.393188 54.0874825 -1114.92798
v 188.436951 36.6069298 -1114.92798
v 163.989868 19.6780472 -1108.88098
v 244.631165 58.5638618 -1095.7417
v 232.421326 41.1827888 -1098.36609
v 213.598572 24.5665627 -1095.7417
v 187.112488 8.34939575 -1087.26501
v 280.77063 62.9211998 -1070.79968
v 271.682983 45.7237434 -1075.68201
v 256.68634 29.2943993 -1075.68201
v 235.640869 13.4799805 -1070.79968
v 207.695679 -1.73509979 -1060.40991
v 312.38739 67.1164246 -1040.15588
v 306.588257 50.2721825 -1046.66418
v 294.843079 33.963192 -1048.80164
v 277.414734 18.3114967 -1046.66418
v 254.291931 3.47085571 -1040.15588
v 225.225403 -10.3236084 -1028.98621
v 338.747681 71.0819855 -1003.65466
v 336.804626 54.8568993 -1010.37891
v 328.585205 38.7149391 -1013.78357
v 314.294678 23.0590973 -1013.78357
v 294.289673 8.28024292 -1010.37891
v 269.069641 -5.25266838 -1003.65466
v 239.264343 -17.2017899 -993.778687
v 58.2897949 44.9126549 -1134.38184
v 85.3869019 30.1533737 -1128.03174
v 31.8689575 31.9680748 -1124.71838
v 111.204529 16.6330528 -1114.92798
v 59.5692749 16.6330528 -1114.92798
v 6.78411865 19.6780472 -1108.88098
v 135.598755 4.39419556 -1095.7417
v 85.3869019 3.15670013 -1098.36609
v 35.1750488 4.39419556 -1095.7417
v -16.338623 8.34939575 -1087.26501
v 158.408447 -6.49392509 -1070.79968
v 109.651978 -8.73168945 -1075.68201
v 61.1218262 -8.73168945 -1075.68201
v 12.3654175 -6.49392509 -1070.79968
v -36.921814 -1.73509979 -1060.40991
v 179.387329 -15.9009781 -1040.15588
v 132.59082 -19.1429672 -1046.66418
v 85.3869019 -20.2064552 -1048.80164
v 38.1830444 -19.1429672 -1046.66418
v -8.61352539 -15.9009781 -1040.15588
v -54.4516602 -10.3236084 -1028.98621
v 198.128296 -23.599556 -1003.65466
v 154.177673 -27.9555664 -1010.37878
v 108.509583 -30.1611595 -1013.78357
v 62.2642822 -30.1611595 -1013.78357
v 16.5961914 -27.9555664 -1010.37878
v -27.3544922 -23.599556 -1003.65466
v -68.490509 -17.2017899 -993.778687
v 41.5427856 63.2595253 -1134.38184
v 10.4823608 49.5252037 -1128.03174
v -1.20703125 68.2039032 -1124.71838
v -17.663147 36.6069298 -1114.92798
v -33.6193237 54.0874825 -1114.92798
v -41.7952271 72.8982849 -1108.88098
v -42.824707 24.5665627 -1095.7417
v -61.6474609 41.1827888 -1098.36609
v -73.8572998 58.5638618 -1095.7417
v -79.2084961 77.2254639 -1087.26501
v -64.8670654 13.4799805 -1070.79968
v -85.9125061 29.2943993 -1075.68201
v -100.909149 45.7237434 -1075.68201
v -109.996826 62.9211998 -1070.79968
v -112.512756 81.0773773 -1060.40991
v -83.5180664 3.47085571 -1040.15588
v -106.6409 18.3114967 -1046.66418
v -124.069214 33.963192 -1048.80164
v -135.814484 50.2721825 -1046.66418
v -141.613556 67.1164246 -1040.15588
v -140.876617 84.3579407 -1028.98621
v -98.2958069 -5.25266838 -1003.65466
v -123.515808 8.28024292 -1010.37891
v -143.520813 23.0590973 -1013.78357
v -157.811462 38.7149391 -1013.78357
v -166.030823 54.8568993 -1010.37891
v -167.973846 71.0819855 -1003.65466
v -163.59201 86.9851532 -993.778687
v 39.0934448 80.8695221 -1128.03174
v -4.11914062 86.405899 -1114.92798
v 37.6546631 97.2094727 -1114.92798
v -44.0640259 91.2033844 -1095.7417
v -5.48522949 102.710281 -1098.36609
v 37.1804199 112.214844 -1095.7417
v -80.4966431 95.2396393 -1070.79968
v -44.7470093 107.251236 -1075.68201
v -5.48522949 117.405121 -1075.68201
v 37.6546631 125.795975 -1070.79968
v -113.002533 98.4607544 -1040.15588
v -80.4966431 110.87468 -1046.66418
v -44.0640259 121.611481 -1048.80164
v -4.11914062 130.627457 -1046.66418
v 39.0933228 137.795822 -1040.15588
v -140.876617 100.767853 -1003.65454
v -112.512756 113.487686 -1010.37878
v -79.2084961 124.827057 -1013.78345
v -41.7952271 134.502884 -1013.78345
v -1.20703125 142.273605 -1010.37878
v 41.5427856 147.945236 -1003.65454
v 58.2897949 156.150162 -962.667236
v 10.4823608 151.813416 -970.131958
v 31.8689575 158.478745 -929.427124
v -33.6193237 145.080688 -974.463989
v -17.663147 152.898193 -935.411987
v 6.78411865 158.30365 -894.888306
v -73.8572693 136.208298 -975.884033
v -61.6473389 144.921036 -938.227905
v -42.824707 151.412338 -899.933228
v -16.338623 155.629318 -859.91272
v -109.996826 125.327911 -974.463989
v -100.909027 134.767151 -938.227905
v -85.9124451 142.114548 -901.524292
v -64.8670044 147.438675 -864.011108
v -36.921814 150.522491 -825.373901
v -141.613495 112.478348 -970.131958
v -135.814423 122.341888 -935.411987
v -124.069092 130.400864 -899.933228
v -106.640808 136.635117 -864.011108
v -83.5180359 140.941437 -827.946167
v -54.4516602 143.110641 -792.133789
v -167.973785 97.6338348 -962.667236
v -166.030731 107.297852 -929.427124
v -157.81134 115.735947 -894.888306
v -143.520752 122.737427 -859.91272
v -123.515747 128.127548 -825.373901
v -98.2958069 131.771652 -792.133789
v -68.490509 133.578918 -761.022339
v -184.720764 79.2869568 -962.667236
v -187.907135 61.7621651 -970.131958
v -199.106689 71.0620422 -929.427124
v -183.546753 44.7515221 -974.463989
v -199.50293 52.5690422 -935.411987
v -206.390594 62.5157204 -894.888306
v -172.275696 28.3876686 -975.884033
v -191.781311 35.2135658 -938.227905
v -203.308289 43.5917091 -899.933228
v -206.390594 53.8613853 -859.91272
v -154.373138 12.7908096 -974.463989
v -176.784668 18.7842598 -938.227905
v -191.781311 26.1316681 -901.524292
v -199.502899 34.9016151 -864.011108
v -199.106689 45.3150749 -825.373779
v -129.811646 -1.88341141 -970.131958
v -154.373138 3.12781906 -935.411987
v -172.275635 9.59444427 -899.933228
v -183.546692 17.4210625 -864.011108
v -187.907104 26.5797272 -827.946167
v -184.720764 37.0901527 -792.133789
v -98.2958069 -15.3945465 -962.667236
v -123.515747 -11.7504425 -929.427124
v -143.520752 -6.36034203 -894.888306
v -157.81134 0.64115715 -859.91272
v -166.030731 9.07925034 -825.373901
v -167.973785 18.7432594 -792.133789
v -163.59201 29.3919563 -761.022461
v -54.4516602 -26.733532 -962.667236
v -8.61352539 -33.2277031 -970.131958
v -36.921814 -34.1453705 -929.427124
v 38.1830444 -37.0081291 -974.463989
v 12.3654175 -39.9941406 -935.411987
v -16.338623 -39.252243 -894.888306
v 85.3869019 -38.2491684 -975.884033
v 61.1218262 -42.7432175 -938.227905
v 35.1750488 -44.0565567 -899.933228
v 6.78411865 -41.9265518 -859.91272
v 132.59082 -37.0081291 -974.463989
v 109.651978 -42.7432175 -938.227905
v 85.3869019 -45.5497131 -901.524292
v 59.5692749 -45.4537125 -864.011108
v 31.8689575 -42.1016464 -825.373901
v 179.387329 -33.2277031 -970.131958
v 158.408447 -39.9941406 -935.411987
v 135.598755 -44.0565567 -899.933228
v 111.204529 -45.4537125 -864.011108
v 85.3869019 -44.0996628 -827.946167
v 58.2897949 -39.7730789 -792.133789
v 225.225403 -26.733532 -962.667236
v 207.695679 -34.1453705 -929.427124
v 187.112488 -39.252243 -894.888306
v 163.989868 -41.9265518 -859.91272
v 138.904907 -42.1016464 -825.373901
v 112.484131 -39.7730789 -792.133789
v 85.3869019 -34.999054 -761.022461
v 269.069641 -15.3945465 -962.667236
v 300.585571 -1.88341141 -970.131958
v 294.289551 -11.7504425 -929.427124
v 325.146973 12.7908096 -974.463989
v 325.146973 3.12781906 -935.411987
v 314.294556 -6.36034203 -894.888306
v 343.049561 28.3876686 -975.884033
v 347.558594 18.7842598 -938.227905
v 343.049561 9.59444427 -899.933228
v 328.585144 0.64115715 -859.91272
v 354.320679 44.7515221 -974.463989
v 362.555176 35.2135658 -938.227905
v 362.555176 26.1316681 -901.524292
v 354.320496 17.4210625 -864.011108
v 336.804626 9.07925034 -825.373901
v 358.68103 61.7621651 -970.131958
v 370.276733 52.5690422 -935.411987
v 374.082214 43.5917091 -899.933228
v 370.276733 34.9016151 -864.011108
v 358.68103 26.5797272 -827.946167
v 338.747681 18.7432594 -792.133789
v 355.494568 79.2869568 -962.667236
v 369.880493 71.0620422 -929.427124
v 377.16449 62.5157204 -894.888306
v 377.16449 53.8613853 -859.91272
v 369.880493 45.3150749 -825.373779
v 355.494568 37.0901527 -792.133789
v 334.365906 29.3919563 -761.022461
v 338.747681 97.6338348 -962.667236
v 312.387329 112.478348 -970.131958
v 336.804626 107.297852 -929.427124
v 280.77063 125.327911 -974.463989
v 306.588257 122.341888 -935.411987
v 328.585144 115.735947 -894.888306
v 244.631104 136.208298 -975.884033
v 271.682983 134.767151 -938.227905
v 294.843018 130.400864 -899.933228
v 314.294556 122.737427 -859.91272
v 204.393188 145.080688 -974.463989
v 232.421204 144.921036 -938.227905
v 256.686279 142.114548 -901.524292
v 277.414673 136.635117 -864.011108
v 294.289551 128.127548 -825.373901
v 160.291443 151.813416 -970.131958
v 188.436951 152.898193 -935.411987
v 213.598511 151.412338 -899.933228
v 235.640869 147.438675 -864.011108
v 254.29187 140.941437 -827.946167
v 269.069641 131.771652 -792.133789
v 112.484131 156.150162 -962.667236
v 138.904907 158.478745 -929.427124
v 163.989868 158.30365 -894.888306
v 187.112488 155.629318 -859.91272
v 207.695679 150.522491 -825.373901
v 225.225403 143.110641 -792.133789
v 239.264343 133.578918 -761.022339
v 85.3869019 160.476761 -926.854736
v 59.5692749 161.830795 -890.789917
v 111.204529 161.830795 -890.789917
v 35.1750488 160.433655 -854.867798
v 85.3869019 161.926819 -853.276611
v 135.598755 160.433655 -854.867798
v 12.3654175 156.371277 -819.388916
v 61.1218262 159.120361 -816.57312
v 109.651978 159.120361 -816.57312
v 158.408447 156.371277 -819.388916
v -8.61352539 149.604797 -784.669067
v 38.1830444 153.385254 -780.337036
v 85.3869019 154.626266 -778.916992
v 132.59082 153.385254 -780.337036
v 179.387329 149.604797 -784.669067
v -27.3544922 139.976654 -751.146362
v 16.5961914 144.332687 -744.422119
v 62.2642822 146.538254 -741.017456
v 108.509583 146.538254 -741.017456
v 154.177673 144.332687 -744.422119
v 198.128296 139.976654 -751.146362
v -187.907104 89.7973785 -926.854736
v -199.502899 81.4755096 -890.789917
v -183.546692 98.9560394 -890.789917
v -203.308289 72.7854004 -854.867798
v -191.781311 90.2454529 -853.276611
v -172.275635 106.782669 -854.867798
v -199.50293 63.8080788 -819.388916
v -191.781311 81.1635132 -816.57312
v -176.784668 97.5928497 -816.57312
v -154.373108 113.249283 -819.388916
v -187.907135 54.6149406 -784.669067
v -183.546753 71.6255798 -780.337036
v -172.275696 87.9894409 -778.916992
v -154.373138 103.586273 -780.337036
v -129.811646 118.260513 -784.669067
v -167.973846 45.2951164 -751.146362
v -166.030823 61.5202065 -744.422119
v -157.811462 77.6621704 -741.017456
v -143.520813 93.3180084 -741.017456
v -123.515808 108.096863 -744.422119
v -98.2958069 121.629776 -751.146362
v -83.5180359 -24.5643425 -926.854736
v -64.8670044 -31.0615463 -890.789917
v -106.640808 -20.2580414 -890.789917
v -42.824707 -35.0352325 -854.867798
v -85.9124451 -25.7374382 -853.276733
v -124.069092 -14.0237579 -854.867798
v -17.663147 -36.5210838 -819.388916
v -61.6473389 -28.5439262 -816.57312
v -100.909027 -18.3900604 -816.57312
v -135.814362 -5.96476364 -819.388916
v 10.4823608 -35.4363022 -784.669067
v -33.6193237 -28.7035904 -780.337036
v -73.8572693 -19.8311844 -778.916992
v -109.996826 -8.95080948 -780.337036
v -141.613495 3.89876556 -784.669067
v 41.5427856 -31.5681038 -751.146362
v -1.20703125 -25.896492 -744.422119
v -41.7952271 -18.1257706 -741.017456
v -79.2084961 -8.4499588 -741.017456
v -112.512756 2.88941193 -744.422119
v -140.876617 15.6092567 -751.146362
v 254.291931 -24.5643425 -926.854736
v 277.414673 -20.2580032 -890.789917
v 235.640869 -31.0615463 -890.789917
v 294.843018 -14.0237579 -854.867798
v 256.686279 -25.7374382 -853.276733
v 213.598511 -35.0352325 -854.867798
v 306.588257 -5.96476364 -819.388916
v 271.682983 -18.3900604 -816.57312
v 232.421204 -28.5439262 -816.57312
v 188.436951 -36.5210838 -819.388916
v 312.387329 3.89876556 -784.669067
v 280.77063 -8.95080948 -780.337036
v 244.631104 -19.8311844 -778.916992
v 204.393188 -28.7035904 -780.337036
v 160.291443 -35.4363022 -784.669067
v 311.650391 15.6092567 -751.146362
v 283.286621 2.88941193 -744.422119
v 249.9823 -8.4499588 -741.017456
v 212.569031 -18.1257706 -741.017456
v 171.980774 -25.896492 -744.422119
v 129.231079 -31.5681038 -751.146362
v 358.68103 89.7973785 -926.854736
v 354.320496 98.9560394 -890.789917
v 370.276733 81.4755096 -890.789917
v 343.049561 106.7827 -854.867798
v 362.555176 90.2454529 -853.276611
v 374.082214 72.7854004 -854.867798
v 325.146973 113.249283 -819.388916
v 347.558594 97.5928497 -816.57312
v 362.555176 81.1635132 -816.57312
v 370.276733 63.8080788 -819.388916
v 300.585571 118.260513 -784.669067
v 325.146973 103.586273 -780.337036
v 343.049561 87.9894409 -778.916992
v 354.320679 71.6255798 -780.337036
v 358.68103 54.6149406 -784.669067
v 269.069641 121.629776 -751.146362
v 294.289673 108.096863 -744.422119
v 314.294678 93.3180084 -741.017456
v 328.585205 77.6621704 -741.017456
v 336.804626 61.5202065 -744.422119
v 338.747681 45.2951164 -751.146362
v 85.3869019 58.1885567 -617.171021
v 112.484131 71.4644623 -620.419067
v 58.2897949 71.4644623 -620.419067
v 138.904907 84.4090424 -630.08252
v 85.3869019 86.2237549 -626.769287
v 31.8689575 84.4090424 -630.08252
v 163.989868 96.6990356 -645.919922
v 111.204529 99.7440491 -639.873047
v 59.5692749 99.7440491 -639.873047
v 6.78411865 96.6990356 -645.919922
v 187.112488 108.027725 -667.535889
v 135.598755 111.98291 -659.059082
v 85.3869019 113.220413 -656.434937
v 35.1750488 111.98291 -659.059082
v -16.338623 108.027725 -667.535889
v 207.695679 118.112198 -694.391113
v 158.408447 122.871002 -684.001221
v 109.651978 125.10881 -679.119019
v 61.1218262 125.10881 -679.119019
v 12.3654175 122.871048 -684.001221
v -36.921814 118.112198 -694.391113
v 225.225403 126.700729 -725.814819
v 179.387329 132.278107 -714.64502
v 132.59082 135.520081 -708.136719
v 85.3869019 136.583603 -705.99939
v 38.1830444 135.520081 -708.136719
v -8.61352539 132.278107 -714.64502
v -54.4516602 126.700729 -725.814819
v 129.231079 53.1175804 -620.419067
v 171.980774 48.1732063 -630.08252
v 160.291443 66.8518982 -626.769287
v 212.569031 43.478817 -645.919922
v 204.393188 62.2896461 -639.873047
v 188.436951 79.7701569 -639.873047
v 249.9823 39.1516457 -667.535889
v 244.631165 57.8132439 -659.059082
v 232.421326 75.1943207 -656.434937
v 213.598572 91.8105621 -659.059082
v 283.286621 35.2997093 -694.391113
v 280.77063 53.4559059 -684.001221
v 271.682983 70.6533661 -679.119019
v 256.68634 87.0826874 -679.119019
v 235.640869 102.897125 -684.001221
v 311.650513 32.0191841 -725.814819
v 312.38739 49.2606773 -714.64502
v 306.588257 66.1049194 -708.136719
v 294.843079 82.4139252 -705.99939
v 277.414734 98.0656281 -708.136719
v 254.291931 112.90625 -714.64502
v 85.3869019 41.7786293 -620.419067
v 85.3869019 25.7782669 -630.08252
v 131.680481 35.5076103 -626.769287
v 85.3869019 10.586937 -645.919922
v 133.119141 19.1676331 -639.873047
v 174.892944 29.9712067 -639.873047
v 85.3869019 -3.41603088 -667.535889
v 133.593384 4.16226196 -659.059204
v 176.259155 13.6668091 -656.434937
v 214.837952 25.1737404 -659.059082
v 85.3869019 -15.8811493 -694.391113
v 133.119141 -9.41885376 -684.001221
v 176.259155 -1.02800941 -679.119019
v 215.520874 9.12585831 -679.119019
v 251.270447 21.1374702 -684.001221
v 85.3869019 -26.4971619 -725.814819
v 131.680481 -21.4187317 -714.64502
v 174.892944 -14.25037 -708.136719
v 214.837952 -5.23436737 -705.99939
v 251.270447 5.5024147 -708.136719
v 283.776367 17.9163628 -714.64502
v 41.5427856 53.1175804 -620.419067
v -1.20703125 48.1732063 -630.08252
v 39.0934448 35.5076103 -626.769287
v -41.7952271 43.478817 -645.919922
v -4.11914062 29.9712067 -639.873047
v 37.6546631 19.1676331 -639.873047
v -79.2084961 39.1516457 -667.535889
v -44.0640259 25.1737404 -659.059082
v -5.48522949 13.6668091 -656.434937
v 37.1804199 4.16226196 -659.059204
v -112.512756 35.2997093 -694.391113
v -80.4966431 21.1374702 -684.001221
v -44.7470093 9.12585831 -679.119019
v -5.48522949 -1.02800941 -679.119019
v 37.6546631 -9.41885376 -684.001343
v -140.876617 32.0191841 -725.814819
v -113.002533 17.9163628 -714.64502
v -80.4966431 5.5024147 -708.136719
v -44.0640259 -5.23436737 -705.99939
v -4.11914062 -14.25037 -708.136719
v 39.0933228 -21.4187317 -714.64502
v 10.4823608 66.8518982 -626.769287
v -17.663147 79.7701569 -639.873047
v -33.6193237 62.2896461 -639.873047
v -42.824707 91.8105621 -659.059082
v -61.6474609 75.1943207 -656.434937
v -73.8572998 57.8132439 -659.059082
v -64.8670654 102.897125 -684.001221
v -85.9125061 87.0826874 -679.119019
v -100.909149 70.6533661 -679.119019
v -109.996826 53.4559059 -684.001221
v -83.5180664 112.90625 -714.64502
v -106.6409 98.0656281 -708.136719
v -124.069214 82.4139252 -705.99939
v -135.814484 66.1049194 -708.136719
v -141.613556 49.2606773 -714.64502
g 
f 3 1 2
f 5 2 4
f 6 3 5
f 8 4 7
f 9 5 8
f 10 6 9
f 12 7 11
f 13 8 12
f 14 9 13
f 15 10 14
f 17 11 16
f 18 12 17
f 19 13 18
f 20 14 19
f 21 15 20
f 23 16 22
f 24 17 23
f 25 18 24
f 26 19 25
f 27 20 26
f 28 21 27
f 30 22 29
f 31 23 30
f 32 24 31
f 33 25 32
f 34 26 33
f 35 27 34
f 36 28 35
f 3 2 5
f 5 4 8
f 6 5 9
f 8 7 12
f 9 8 13
f 10 9 14
f 12 11 17
f 13 12 18
f 14 13 19
f 15 14 20
f 17 16 23
f 18 17 24
f 19 18 25
f 20 19 26
f 21 20 27
f 23 22 30
f 24 23 31
f 25 24 32
f 26 25 33
f 27 26 34
f 28 27 35
f 37 1 3
f 38 3 6
f 39 37 38
f 40 6 10
f 41 38 40
f 42 39 41
f 43 10 15
f 44 40 43
f 45 41 44
f 46 42 45
f 47 15 21
f 48 43 47
f 49 44 48
f 50 45 49
f 51 46 50
f 52 21 28
f 53 47 52
f 54 48 53
f 55 49 54
f 56 50 55
f 57 51 56
f 58 28 36
f 59 52 58
f 60 53 59
f 61 54 60
f 62 55 61
f 63 56 62
f 64 57 63
f 37 3 38
f 38 6 40
f 39 38 41
f 40 10 43
f 41 40 44
f 42 41 45
f 43 15 47
f 44 43 48
f 45 44 49
f 46 45 50
f 47 21 52
f 48 47 53
f 49 48 54
f 50 49 55
f 51 50 56
f 52 28 58
f 53 52 59
f 54 53 60
f 55 54 61
f 56 55 62
f 57 56 63
f 65 1 37
f 66 37 39
f 67 65 66
f 68 39 42
f 69 66 68
f 70 67 69
f 71 42 46
f 72 68 71
f 73 69 72
f 74 70 73
f 75 46 51
f 76 71 75
f 77 72 76
f 78 73 77
f 79 74 78
f 80 51 57
f 81 75 80
f 82 76 81
f 83 77 82
f 84 78 83
f 85 79 84
f 86 57 64
f 87 80 86
f 88 81 87
f 89 82 88
f 90 83 89
f 91 84 90
f 92 85 91
f 65 37 66
f 66 39 68
f 67 66 69
f 68 42 71
f 69 68 72
f 70 69 73
f 71 46 75
f 72 71 76
f 73 72 77
f 74 73 78
f 75 51 80
f 76 75 81
f 77 76 82
f 78 77 83
f 79 78 84
f 80 57 86
f 81 80 87
f 82 81 88
f 83 82 89
f 84 83 90
f 85 84 91
f 93 1 65
f 94 65 67
f 95 93 94
f 96 67 70
f 97 94 96
f 98 95 97
f 99 70 74
f 100 96 99
f 101 97 100
f 102 98 101
f 103 74 79
f 104 99 103
f 105 100 104
f 106 101 105
f 107 102 106
f 108 79 85
f 109 103 108
f 110 104 109
f 111 105 110
f 112 106 111
f 113 107 112
f 114 85 92
f 115 108 114
f 116 109 115
f 117 110 116
f 118 111 117
f 119 112 118
f 120 113 119
f 93 65 94
f 94 67 96
f 95 94 97
f 96 70 99
f 97 96 100
f 98 97 101
f 99 74 103
f 100 99 104
f 101 100 105
f 102 101 106
f 103 79 108
f 104 103 109
f 105 104 110
f 106 105 111
f 107 106 112
f 108 85 114
f 109 108 115
f 110 109 116
f 111 110 117
f 112 111 118
f 113 112 119
f 2 1 93
f 121 93 95
f 4 2 121
f 122 95 98
f 123 121 122
f 7 4 123
f 124 98 102
f 125 122 124
f 126 123 125
f 11 7 126
f 127 102 107
f 128 124 127
f 129 125 128
f 130 126 129
f 16 11 130
f 131 107 113
f 132 127 131
f 133 128 132
f 134 129 133
f 135 130 134
f 22 16 135
f 136 113 120
f 137 131 136
f 138 132 137
f 139 133 138
f 140 134 139
f 141 135 140
f 29 22 141
f 2 93 121
f 121 95 122
f 4 121 123
f 122 98 124
f 123 122 125
f 7 123 126
f 124 102 127
f 125 124 128
f 126 125 129
f 11 126 130
f 127 107 131
f 128 127 132
f 129 128 133
f 130 129 134
f 16 130 135
f 131 113 136
f 132 131 137
f 133 132 138
f 134 133 139
f 135 134 140
f 22 135 141
f 142 29 141
f 143 141 140
f 144 142 143
f 145 140 139
f 146 143 145
f 147 144 146
f 148 139 138
f 149 145 148
f 150 146 149
f 151 147 150
f 152 138 137
f 153 148 152
f 154 149 153
f 155 150 154
f 156 151 155
f 157 137 136
f 158 152 157
f 159 153 158
f 160 154 159
f 161 155 160
f 162 156 161
f 163 136 120
f 164 157 163
f 165 158 164
f 166 159 165
f 167 160 166
f 168 161 167
f 169 162 168
f 142 141 143
f 143 140 145
f 144 143 146
f 145 139 148
f 146 145 149
f 147 146 150
f 148 138 152
f 149 148 153
f 150 149 154
f 151 150 155
f 152 137 157
f 153 152 158
f 154 153 159
f 155 154 160
f 156 155 161
f 157 136 163
f 158 157 164
f 159 158 165
f 160 159 166
f 161 160 167
f 162 161 168
f 170 120 119
f 171 119 118
f 172 170 171
f 173 118 117
f 174 171 173
f 175 172 174
f 176 117 116
f 177 173 176
f 178 174 177
f 179 175 178
f 180 116 115
f 181 176 180
f 182 177 181
f 183 178 182
f 184 179 183
f 185 115 114
f 186 180 185
f 187 181 186
f 188 182 187
f 189 183 188
f 190 184 189
f 191 114 92
f 192 185 191
f 193 186 192
f 194 187 193
f 195 188 194
f 196 189 195
f 197 190 196
f 170 119 171
f 171 118 173
f 172 171 174
f 173 117 176
f 174 173 177
f 175 174 178
f 176 116 180
f 177 176 181
f 178 177 182
f 179 178 183
f 180 115 185
f 181 180 186
f 182 181 187
f 183 182 188
f 184 183 189
f 185 114 191
f 186 185 192
f 187 186 193
f 188 187 194
f 189 188 195
f 190 189 196
f 198 92 91
f 199 91 90
f 200 198 199
f 201 90 89
f 202 199 201
f 203 200 202
f 204 89 88
f 205 201 204
f 206 202 205
f 207 203 206
f 208 88 87
f 209 204 208
f 210 205 209
f 211 206 210
f 212 207 211
f 213 87 86
f 214 208 213
f 215 209 214
f 216 210 215
f 217 211 216
f 218 212 217
f 219 86 64
f 220 213 219
f 221 214 220
f 222 215 221
f 223 216 222
f 224 217 223
f 225 218 224
f 198 91 199
f 199 90 201
f 200 199 202
f 201 89 204
f 202 201 205
f 203 202 206
f 204 88 208
f 205 204 209
f 206 205 210
f 207 206 211
f 208 87 213
f 209 208 214
f 210 209 215
f 211 210 216
f 212 211 217
f 213 86 219
f 214 213 220
f 215 214 221
f 216 215 222
f 217 216 223
f 218 217 224
f 226 64 63
f 227 63 62
f 228 226 227
f 229 62 61
f 230 227 229
f 231 228 230
f 232 61 60
f 233 229 232
f 234 230 233
f 235 231 234
f 236 60 59
f 237 232 236
f 238 233 237
f 239 234 238
f 240 235 239
f 241 59 58
f 242 236 241
f 243 237 242
f 244 238 243
f 245 239 244
f 246 240 245
f 247 58 36
f 248 241 247
f 249 242 248
f 250 243 249
f 251 244 250
f 252 245 251
f 253 246 252
f 226 63 227
f 227 62 229
f 228 227 230
f 229 61 232
f 230 229 233
f 231 230 234
f 232 60 236
f 233 232 237
f 234 233 238
f 235 234 239
f 236 59 241
f 237 236 242
f 238 237 243
f 239 238 244
f 240 239 245
f 241 58 247
f 242 241 248
f 243 242 249
f 244 243 250
f 245 244 251
f 246 245 252
f 254 36 35
f 255 35 34
f 256 254 255
f 257 34 33
f 258 255 257
f 259 256 258
f 260 33 32
f 261 257 260
f 262 258 261
f 263 259 262
f 264 32 31
f 265 260 264
f 266 261 265
f 267 262 266
f 268 263 267
f 269 31 30
f 270 264 269
f 271 265 270
f 272 266 271
f 273 267 272
f 274 268 273
f 275 30 29
f 276 269 275
f 277 270 276
f 278 271 277
f 279 272 278
f 280 273 279
f 281 274 280
f 254 35 255
f 255 34 257
f 256 255 258
f 257 33 260
f 258 257 261
f 259 258 262
f 260 32 264
f 261 260 265
f 262 261 266
f 263 262 267
f 264 31 269
f 265 264 270
f 266 265 271
f 267 266 272
f 268 267 273
f 269 30 275
f 270 269 276
f 271 270 277
f 272 271 278
f 273 272 279
f 274 273 280
f 275 29 142
f 282 142 144
f 276 275 282
f 283 144 147
f 284 282 283
f 277 276 284
f 285 147 151
f 286 283 285
f 287 284 286
f 278 277 287
f 288 151 156
f 289 285 288
f 290 286 289
f 291 287 290
f 279 278 291
f 292 156 162
f 293 288 292
f 294 289 293
f 295 290 294
f 296 291 295
f 280 279 296
f 297 162 169
f 298 292 297
f 299 293 298
f 300 294 299
f 301 295 300
f 302 296 301
f 281 280 302
f 275 142 282
f 282 144 283
f 276 282 284
f 283 147 285
f 284 283 286
f 277 284 287
f 285 151 288
f 286 285 289
f 287 286 290
f 278 287 291
f 288 156 292
f 289 288 293
f 290 289 294
f 291 290 295
f 279 291 296
f 292 162 297
f 293 292 298
f 294 293 299
f 295 294 300
f 296 295 301
f 280 296 302
f 163 120 170
f 303 170 172
f 164 163 303
f 304 172 175
f 305 303 304
f 165 164 305
f 306 175 179
f 307 304 306
f 308 305 307
f 166 165 308
f 309 179 184
f 310 306 309
f 311 307 310
f 312 308 311
f 167 166 312
f 313 184 190
f 314 309 313
f 315 310 314
f 316 311 315
f 317 312 316
f 168 167 317
f 318 190 197
f 319 313 318
f 320 314 319
f 321 315 320
f 322 316 321
f 323 317 322
f 169 168 323
f 163 170 303
f 303 172 304
f 164 303 305
f 304 175 306
f 305 304 307
f 165 305 308
f 306 179 309
f 307 306 310
f 308 307 311
f 166 308 312
f 309 184 313
f 310 309 314
f 311 310 315
f 312 311 316
f 167 312 317
f 313 190 318
f 314 313 319
f 315 314 320
f 316 315 321
f 317 316 322
f 168 317 323
f 191 92 198
f 324 198 200
f 192 191 324
f 325 200 203
f 326 324 325
f 193 192 326
f 327 203 207
f 328 325 327
f 329 326 328
f 194 193 329
f 330 207 212
f 331 327 330
f 332 328 331
f 333 329 332
f 195 194 333
f 334 212 218
f 335 330 334
f 336 331 335
f 337 332 336
f 338 333 337
f 196 195 338
f 339 218 225
f 340 334 339
f 341 335 340
f 342 336 341
f 343 337 342
f 344 338 343
f 197 196 344
f 191 198 324
f 324 200 325
f 192 324 326
f 325 203 327
f 326 325 328
f 193 326 329
f 327 207 330
f 328 327 331
f 329 328 332
f 194 329 333
f 330 212 334
f 331 330 335
f 332 331 336
f 333 332 337
f 195 333 338
f 334 218 339
f 335 334 340
f 336 335 341
f 337 336 342
f 338 337 343
f 196 338 344
f 219 64 226
f 345 226 228
f 220 219 345
f 346 228 231
f 347 345 346
f 221 220 347
f 348 231 235
f 349 346 348
f 350 347 349
f 222 221 350
f 351 235 240
f 352 348 351
f 353 349 352
f 354 350 353
f 223 222 354
f 355 240 246
f 356 351 355
f 357 352 356
f 358 353 357
f 359 354 358
f 224 223 359
f 360 246 253
f 361 355 360
f 362 356 361
f 363 357 362
f 364 358 363
f 365 359 364
f 225 224 365
f 219 226 345
f 345 228 346
f 220 345 347
f 346 231 348
f 347 346 349
f 221 347 350
f 348 235 351
f 349 348 352
f 350 349 353
f 222 350 354
f 351 240 355
f 352 351 356
f 353 352 357
f 354 353 358
f 223 354 359
f 355 246 360
f 356 355 361
f 357 356 362
f 358 357 363
f 359 358 364
f 224 359 365
f 247 36 254
f 366 254 256
f 248 247 366
f 367 256 259
f 368 366 367
f 249 248 368
f 369 259 263
f 370 367 369
f 371 368 370
f 250 249 371
f 372 263 268
f 373 369 372
f 374 370 373
f 375 371 374
f 251 250 375
f 376 268 274
f 377 372 376
f 378 373 377
f 379 374 378
f 380 375 379
f 252 251 380
f 381 274 281
f 382 376 381
f 383 377 382
f 384 378 383
f 385 379 384
f 386 380 385
f 253 252 386
f 247 254 366
f 366 256 367
f 248 366 368
f 367 259 369
f 368 367 370
f 249 368 371
f 369 263 372
f 370 369 373
f 371 370 374
f 250 371 375
f 372 268 376
f 373 372 377
f 374 373 378
f 375 374 379
f 251 375 380
f 376 274 381
f 377 376 382
f 378 377 383
f 379 378 384
f 380 379 385
f 252 380 386
f 389 387 388
f 391 388 390
f 392 389 391
f 394 390 393
f 395 391 394
f 396 392 395
f 398 393 397
f 399 394 398
f 400 395 399
f 401 396 400
f 403 397 402
f 404 398 403
f 405 399 404
f 406 400 405
f 407 401 406
f 409 402 408
f 410 403 409
f 411 404 410
f 412 405 411
f 413 406 412
f 414 407 413
f 302 408 281
f 301 409 302
f 300 410 301
f 299 411 300
f 298 412 299
f 297 413 298
f 169 414 297
f 389 388 391
f 391 390 394
f 392 391 395
f 394 393 398
f 395 394 399
f 396 395 400
f 398 397 403
f 399 398 404
f 400 399 405
f 401 400 406
f 403 402 409
f 404 403 410
f 405 404 411
f 406 405 412
f 407 406 413
f 409 408 302
f 410 409 301
f 411 410 300
f 412 411 299
f 413 412 298
f 414 413 297
f 388 387 415
f 417 415 416
f 390 388 417
f 419 416 418
f 420 417 419
f 393 390 420
f 422 418 421
f 423 419 422
f 424 420 423
f 397 393 424
f 426 421 425
f 427 422 426
f 428 423 427
f 429 424 428
f 402 397 429
f 431 425 430
f 432 426 431
f 433 427 432
f 434 428 433
f 435 429 434
f 408 402 435
f 386 430 253
f 385 431 386
f 384 432 385
f 383 433 384
f 382 434 383
f 381 435 382
f 281 408 381
f 388 415 417
f 417 416 419
f 390 417 420
f 419 418 422
f 420 419 423
f 393 420 424
f 422 421 426
f 423 422 427
f 424 423 428
f 397 424 429
f 426 425 431
f 427 426 432
f 428 427 433
f 429 428 434
f 402 429 435
f 431 430 386
f 432 431 385
f 433 432 384
f 434 433 383
f 435 434 382
f 408 435 381
f 415 387 436
f 438 436 437
f 416 415 438
f 440 437 439
f 441 438 440
f 418 416 441
f 443 439 442
f 444 440 443
f 445 441 444
f 421 418 445
f 447 442 446
f 448 443 447
f 449 444 448
f 450 445 449
f 425 421 450
f 452 446 451
f 453 447 452
f 454 448 453
f 455 449 454
f 456 450 455
f 430 425 456
f 365 451 225
f 364 452 365
f 363 453 364
f 362 454 363
f 361 455 362
f 360 456 361
f 253 430 360
f 415 436 438
f 438 437 440
f 416 438 441
f 440 439 443
f 441 440 444
f 418 441 445
f 443 442 447
f 444 443 448
f 445 444 449
f 421 445 450
f 447 446 452
f 448 447 453
f 449 448 454
f 450 449 455
f 425 450 456
f 452 451 365
f 453 452 364
f 454 453 363
f 455 454 362
f 456 455 361
f 430 456 360
f 436 387 457
f 459 457 458
f 437 436 459
f 461 458 460
f 462 459 461
f 439 437 462
f 464 460 463
f 465 461 464
f 466 462 465
f 442 439 466
f 468 463 467
f 469 464 468
f 470 465 469
f 471 466 470
f 446 442 471
f 473 467 472
f 474 468 473
f 475 469 474
f 476 470 475
f 477 471 476
f 451 446 477
f 344 472 197
f 343 473 344
f 342 474 343
f 341 475 342
f 340 476 341
f 339 477 340
f 225 451 339
f 436 457 459
f 459 458 461
f 437 459 462
f 461 460 464
f 462 461 465
f 439 462 466
f 464 463 468
f 465 464 469
f 466 465 470
f 442 466 471
f 468 467 473
f 469 468 474
f 470 469 475
f 471 470 476
f 446 471 477
f 473 472 344
f 474 473 343
f 475 474 342
f 476 475 341
f 477 476 340
f 451 477 339
f 457 387 389
f 478 389 392
f 458 457 478
f 479 392 396
f 480 478 479
f 460 458 480
f 481 396 401
f 482 479 481
f 483 480 482
f 463 460 483
f 484 401 407
f 485 481 484
f 486 482 485
f 487 483 486
f 467 463 487
f 488 407 414
f 489 484 488
f 490 485 489
f 491 486 490
f 492 487 491
f 472 467 492
f 323 414 169
f 322 488 323
f 321 489 322
f 320 490 321
f 319 491 320
f 318 492 319
f 197 472 318
f 457 389 478
f 478 392 479
f 458 478 480
f 479 396 481
f 480 479 482
f 460 480 483
f 481 401 484
f 482 481 485
f 483 482 486
f 463 483 487
f 484 407 488
f 485 484 489
f 486 485 490
f 487 486 491
f 467 487 492
f 488 414 323
f 489 488 322
f 490 489 321
f 491 490 320
f 492 491 319
f 472 492 318
