# File exported by Houdini 20.5.445 (www.sidefx.com)
# 492 points
# 2940 vertices
# 980 primitives
# Bounds: [-141.412186, -158.089203, -1037.98145] to [312.186127, 274.466309, -716.819702]
g 
v 85.3869476 58.18853 -1037.98145
v 85.3869476 92.4006042 -1035.97705
v 119.467072 68.7606964 -1035.97705
v 85.3869476 125.758858 -1030.01392
v 121.371002 105.474731 -1032.05859
v 152.696503 79.0689316 -1030.01392
v 85.3869476 157.430328 -1020.24127
v 122.489288 139.540878 -1023.9726
v 154.960175 117.017212 -1023.9726
v 184.24588 88.8559875 -1020.24127
v 85.3869476 186.624344 -1006.9024
v 122.857941 170.824783 -1012.13336
v 156.022064 151.009293 -1013.75262
v 186.00943 127.019196 -1012.13336
v 213.32724 97.877449 -1006.9024
v 85.3869476 212.612106 -990.330872
v 122.489349 199.139252 -996.742126
v 156.022125 181.645706 -999.754944
v 186.540253 160.476471 -999.754944
v 214.328522 135.434158 -996.742126
v 239.214691 105.908089 -990.330872
v 85.3869476 234.744781 -970.940125
v 121.371002 224.157059 -977.832825
v 154.960175 209.212143 -981.848816
v 186.00943 190.415283 -983.167786
v 214.328522 168.030777 -981.848816
v 239.595367 142.149643 -977.832825
v 261.261993 112.747513 -970.940125
v 85.3869476 252.469894 -949.214417
v 119.467072 245.316925 -955.308655
v 152.696625 233.492508 -959.458069
v 184.24588 217.291779 -961.558899
v 213.32724 197.119247 -961.558899
v 239.214691 173.478439 -959.458069
v 261.261993 146.95961 -955.308655
v 278.918732 118.224892 -949.214417
v 106.449615 30.5103626 -1035.97705
v 143.610382 40.1268349 -1032.05859
v 126.986542 3.52301407 -1030.01392
v 177.890717 49.6384239 -1023.9726
v 165.487946 13.1942902 -1023.9726
v 146.485138 -22.0997314 -1020.24127
v 209.167755 58.9709778 -1012.13336
v 199.676971 22.7341938 -1013.75262
v 185.046051 -11.90802 -1012.13336
v 164.458405 -45.7182312 -1006.9024
v 237.259125 68.0553513 -996.742126
v 230.19516 32.2013474 -999.754944
v 218.5383 -2.05117035 -999.754944
v 202.179657 -35.0217743 -996.742126
v 180.457733 -66.7428055 -990.330872
v 261.834747 76.8017426 -977.832825
v 257.327179 41.6841583 -981.848816
v 248.19754 7.68248367 -983.167786
v 234.650482 -24.9488373 -981.848816
v 216.677032 -55.8892059 -977.832825
v 194.08371 -84.648468 -970.940125
v 282.324677 85.0692978 -955.308655
v 280.814362 51.242569 -959.458069
v 274.425446 17.5891514 -961.559021
v 263.317352 -15.0508423 -961.559021
v 247.767365 -45.8623352 -959.458069
v 228.16391 -74.0763702 -955.308655
v 204.996185 -98.9883804 -949.214417
v 64.3243256 30.5103626 -1035.97705
v 85.3869476 -0.260417938 -1032.05859
v 43.7873383 3.52301407 -1030.01392
v 105.455048 -28.4480591 -1023.9726
v 65.3188629 -28.4480591 -1023.9726
v 24.2888336 -22.0997314 -1020.24127
v 124.416718 -53.9641266 -1012.13336
v 85.3869476 -56.5441742 -1013.75262
v 46.3572235 -53.9641266 -1012.13336
v 6.3155365 -45.7182312 -1006.9024
v 142.146759 -76.6641235 -996.742126
v 104.248199 -81.3295135 -999.754944
v 66.5257111 -81.3295135 -999.754944
v 28.6272125 -76.6641922 -996.742126
v -9.68382263 -66.7428055 -990.330872
v 158.453644 -96.2763977 -977.832825
v 122.078583 -103.035355 -981.848816
v 85.3869476 -105.252686 -983.167786
v 48.6952972 -103.035355 -981.848816
v 12.3202667 -96.2763977 -977.832825
v -23.3097687 -84.648468 -970.940125
v 173.021088 -112.32663 -955.308655
v 138.858124 -121.408295 -959.458069
v 103.36026 -126.006531 -961.559021
v 67.413681 -126.006531 -961.559021
v 31.9158173 -121.408295 -959.458069
v -2.24711609 -112.32663 -955.308655
v -34.2222137 -98.9883804 -949.214417
v 51.3068695 68.7606964 -1035.97705
v 27.163559 40.1268349 -1032.05859
v 18.0773773 79.0689316 -1030.01392
v 5.28599548 13.1942902 -1023.9726
v -7.11680603 49.6384239 -1023.9726
v -13.4719086 88.8559875 -1020.24127
v -14.2721405 -11.90802 -1012.13336
v -28.9030914 22.7341938 -1013.75262
v -38.3938446 58.9709778 -1012.13336
v -42.553299 97.877449 -1006.9024
v -31.4057159 -35.0217743 -996.742126
v -47.7643585 -2.05117035 -999.754944
v -59.4212494 32.2013474 -999.754944
v -66.4851532 68.0553513 -996.742126
v -68.4407806 105.908089 -990.330872
v -45.9031525 -55.8892059 -977.832825
v -63.8765411 -24.9488373 -981.848816
v -77.4236298 7.68248367 -983.167786
v -86.5532379 41.6841583 -981.848816
v -91.0608673 76.8017426 -977.832825
v -90.4880829 112.747513 -970.940125
v -57.3899384 -74.0763702 -955.308655
v -76.993454 -45.8623352 -959.458069
v -92.543396 -15.0508423 -961.559021
v -103.651489 17.5891514 -961.559021
v -110.040451 51.242569 -959.458069
v -111.550766 85.0692978 -955.308655
v -108.144775 118.224892 -949.214417
v 49.4029083 105.474731 -1032.05859
v 15.813736 117.017212 -1023.9726
v 48.2845917 139.540878 -1023.9726
v -15.2354889 127.019196 -1012.13336
v 14.7518158 151.009293 -1013.75262
v 47.9159698 170.824783 -1012.13336
v -43.5546112 135.434158 -996.742126
v -15.7663116 160.476471 -999.754944
v 14.7518158 181.645706 -999.754944
v 48.2845917 199.139252 -996.742126
v -68.8214569 142.149643 -977.832825
v -43.5546112 168.030777 -981.848816
v -15.2354889 190.415283 -983.167786
v 15.813736 209.212143 -981.848816
v 49.4029083 224.157059 -977.832825
v -90.4880524 146.95961 -955.308655
v -68.4407806 173.478439 -959.458069
v -42.553299 197.119247 -961.558899
v -13.4719086 217.291779 -961.558899
v 18.0773468 233.492508 -959.458069
v 51.3068695 245.316925 -955.308655
v 64.324295 262.422943 -930.016418
v 27.1635284 253.3815 -934.62262
v 43.7873383 267.277618 -909.504822
v -7.11680603 239.344833 -937.295837
v 5.28599548 255.643127 -913.198059
v 24.2888336 266.912628 -888.191833
v -38.3938141 220.84729 -938.17218
v -28.9030304 239.011963 -914.935486
v -14.2720795 252.545319 -891.304871
v 6.3155365 261.337036 -866.609314
v -66.4851227 198.163437 -937.295837
v -59.4211884 217.842758 -914.935486
v -47.7642975 233.160904 -892.286682
v -31.4056549 244.260834 -869.138367
v -9.68382263 250.69014 -845.296265
v -91.0608215 171.37413 -934.62262
v -86.5531921 191.938049 -913.198059
v -77.4235229 208.739746 -891.304871
v -63.8764801 221.737152 -869.138367
v -45.9031219 230.715149 -846.883667
v -23.3097687 235.237625 -824.784668
v -111.55069 140.425674 -930.016418
v -110.040375 160.573654 -909.504822
v -103.651398 178.165726 -888.191833
v -92.543335 192.762695 -866.609314
v -76.9934082 204.000229 -845.296265
v -57.3899078 211.597672 -824.784668
v -34.2222137 215.365433 -805.586548
v -124.568161 102.175377 -930.016418
v -127.044922 65.6389465 -934.62262
v -135.750397 85.0276947 -909.504822
v -123.655655 30.1744385 -937.295837
v -136.058365 46.4727364 -913.198059
v -141.412186 67.2099915 -888.191833
v -114.894608 -3.94155884 -938.17218
v -130.056351 10.2893505 -914.935486
v -139.016281 27.7564373 -891.304871
v -141.412186 49.1670723 -866.609314
v -100.978928 -36.4585266 -937.295837
v -118.399445 -23.9631348 -914.935486
v -130.056351 -8.64502716 -892.286682
v -136.058334 9.63890457 -869.138367
v -135.750397 31.3493729 -845.296265
v -81.8872375 -67.0519409 -934.62262
v -100.978897 -56.604332 -913.198059
v -114.894562 -43.1224976 -891.304871
v -123.655579 -26.8051949 -869.138367
v -127.044922 -7.71083069 -846.883667
v -124.568161 14.2016954 -824.784668
v -57.3899078 -95.2206345 -930.016418
v -76.9934082 -87.6231995 -909.504822
v -92.543335 -76.3856277 -888.191833
v -103.651398 -61.7886887 -866.609314
v -110.040375 -44.1965485 -845.296265
v -111.55069 -24.0486107 -824.784668
v -108.144775 -1.84778214 -805.586548
v -23.3097687 -118.860596 -930.016418
v 12.3202667 -132.399857 -934.62262
v -9.68382263 -134.313034 -909.504822
v 48.6952972 -140.281509 -937.295837
v 28.6272125 -146.506866 -913.198059
v 6.3155365 -144.959976 -888.191833
v 85.3869476 -142.868729 -938.17218
v 66.5257111 -152.238251 -914.935486
v 46.3572235 -154.976288 -891.304871
v 24.2888336 -150.535568 -866.609314
v 122.078583 -140.281509 -937.295837
v 104.248199 -152.238251 -914.935486
v 85.3869476 -158.089203 -892.286682
v 65.3188629 -157.889069 -869.138367
v 43.7873383 -150.900604 -845.296265
v 158.453644 -132.399857 -934.62262
v 142.146759 -146.506866 -913.198059
v 124.416718 -154.976288 -891.304871
v 105.455048 -157.889069 -869.138367
v 85.3869476 -155.066086 -846.883667
v 64.324295 -146.045914 -824.784668
v 194.08371 -118.860596 -930.016418
v 180.457733 -134.313034 -909.504822
v 164.458405 -144.959976 -888.191833
v 146.485138 -150.535568 -866.609314
v 126.986542 -150.900604 -845.296265
v 106.449615 -146.045914 -824.784668
v 85.3869476 -136.092819 -805.58667
v 228.163849 -95.2206345 -930.016418
v 252.661163 -67.0519409 -934.62262
v 247.767303 -87.6231995 -909.504822
v 271.752838 -36.4585266 -937.295837
v 271.752838 -56.604332 -913.198059
v 263.31723 -76.3856277 -888.191833
v 285.668549 -3.94155884 -938.17218
v 289.173309 -23.9631348 -914.935486
v 285.668427 -43.1224976 -891.304871
v 274.425385 -61.7886887 -866.609314
v 294.429535 30.1744385 -937.295837
v 300.830353 10.2893505 -914.935486
v 300.830353 -8.64502716 -892.286682
v 294.429474 -26.8051949 -869.138367
v 280.81424 -44.1965485 -845.296265
v 297.818878 65.6389465 -934.62262
v 306.832306 46.4727364 -913.198059
v 309.790192 27.7564373 -891.304871
v 306.832306 9.63890457 -869.138367
v 297.818756 -7.71083069 -846.883667
v 282.324615 -24.0486107 -824.784668
v 295.342133 102.175377 -930.016418
v 306.524261 85.0276947 -909.504822
v 312.186127 67.2099915 -888.191833
v 312.186127 49.1670723 -866.609314
v 306.524261 31.3493729 -845.296265
v 295.342133 14.2016954 -824.784668
v 278.918732 -1.84778214 -805.586548
v 282.324615 140.425674 -930.016418
v 261.834747 171.37413 -934.62262
v 280.81424 160.573654 -909.504822
v 237.259125 198.163437 -937.295837
v 257.327057 191.938049 -913.198059
v 274.425385 178.165726 -888.191833
v 209.167755 220.84729 -938.17218
v 230.195099 217.842758 -914.935486
v 248.197479 208.739746 -891.304871
v 263.31723 192.762695 -866.609314
v 177.890717 239.344833 -937.295837
v 199.676971 239.011963 -914.935486
v 218.538177 233.160904 -892.286682
v 234.650482 221.737152 -869.138367
v 247.767303 204.000229 -845.296265
v 143.610382 253.3815 -934.62262
v 165.487946 255.643127 -913.198059
v 185.046051 252.545319 -891.304871
v 202.179596 244.260834 -869.138367
v 216.677032 230.715149 -846.883667
v 228.163849 211.597672 -824.784668
v 106.449615 262.422943 -930.016418
v 126.986542 267.277618 -909.504822
v 146.485138 266.912628 -888.191833
v 164.458405 261.337036 -866.609314
v 180.457733 250.69014 -845.296265
v 194.08371 235.237625 -824.784668
v 204.996185 215.365433 -805.586548
v 85.3869476 271.443176 -907.917542
v 65.3188629 274.266144 -885.662781
v 105.455048 274.266144 -885.662781
v 46.3572235 271.353363 -863.496094
v 85.3869476 274.466309 -862.514282
v 124.416718 271.353363 -863.496094
v 28.6272125 262.883881 -841.603149
v 66.5257111 268.615265 -839.865601
v 104.248199 268.615265 -839.865601
v 142.146759 262.883881 -841.603149
v 12.3202667 248.776886 -820.178345
v 48.6952972 256.658508 -817.505127
v 85.3869476 259.24585 -816.628906
v 122.078583 256.658508 -817.505127
v 158.453644 248.776886 -820.178345
v -2.24711609 228.703735 -799.49231
v 31.9158173 237.785355 -795.343018
v 67.413681 242.383621 -793.242065
v 103.36026 242.383621 -793.242065
v 138.858124 237.785355 -795.343018
v 173.021088 228.703735 -799.49231
v -127.044922 124.087936 -907.917542
v -136.058334 106.738129 -885.662781
v -123.655579 143.182297 -885.662781
v -139.016281 88.620636 -863.496094
v -130.056351 125.022064 -862.514282
v -114.894562 159.499603 -863.496094
v -136.058365 69.904335 -841.603149
v -130.056351 106.087723 -839.865601
v -118.399445 140.34024 -839.865601
v -100.978867 172.9814 -841.603149
v -127.044922 50.7381172 -820.178345
v -123.655655 86.2025986 -817.505127
v -114.894608 120.318626 -816.628906
v -100.978928 152.835587 -817.505127
v -81.8872375 183.429047 -820.178345
v -111.550766 31.3077354 -799.49231
v -110.040451 65.134491 -795.342896
v -103.651489 98.7879181 -793.242065
v -92.543396 131.427887 -793.242065
v -76.993454 162.239441 -795.342896
v -57.3899384 190.4534 -799.49231
v -45.9031219 -114.338135 -907.917542
v -31.4056549 -127.883835 -885.662781
v -63.8764801 -105.360107 -885.662781
v -14.2720795 -136.168259 -863.496094
v -47.7642975 -116.783844 -862.514282
v -77.4235229 -92.3626938 -863.496094
v 5.28599548 -139.266037 -841.603149
v -28.9030304 -122.634933 -839.865601
v -59.4211884 -101.465668 -839.865601
v -86.5531616 -75.5609741 -841.603149
v 27.1635284 -137.004425 -820.178345
v -7.116745 -122.967804 -817.505127
v -38.3938141 -104.470306 -816.628906
v -66.4851227 -81.7863998 -817.505127
v -91.0608215 -54.9970245 -820.178345
v 51.3068695 -128.939926 -799.492432
v 18.0773468 -117.115448 -795.343018
v -13.4719086 -100.914726 -793.242065
v -42.553299 -80.7422028 -793.242065
v -68.4407806 -57.1013641 -795.343018
v -90.4880524 -30.5825119 -799.492432
v 216.677032 -114.338135 -907.917542
v 234.650482 -105.360107 -885.662781
v 202.179596 -127.883835 -885.662781
v 248.197479 -92.3626938 -863.496094
v 218.538177 -116.783844 -862.514282
v 185.046051 -136.168259 -863.496094
v 257.327057 -75.5609741 -841.603149
v 230.195099 -101.465668 -839.865601
v 199.676971 -122.634933 -839.865601
v 165.487946 -139.266098 -841.603149
v 261.834747 -54.9970245 -820.178345
v 237.259125 -81.7863998 -817.505127
v 209.167755 -104.470306 -816.628906
v 177.890717 -122.967804 -817.505127
v 143.610382 -137.004486 -820.178345
v 261.261993 -30.5825119 -799.492432
v 239.214691 -57.1013641 -795.343018
v 213.32724 -80.7422028 -793.242065
v 184.24588 -100.914726 -793.242065
v 152.696625 -117.115448 -795.343018
v 119.467072 -128.939926 -799.492432
v 297.818756 124.087936 -907.917542
v 294.429535 143.182297 -885.662781
v 306.832306 106.738129 -885.662781
v 285.668427 159.499603 -863.496094
v 300.830353 125.022064 -862.514282
v 309.790192 88.620636 -863.496094
v 271.752777 172.9814 -841.603149
v 289.173309 140.34024 -839.865601
v 300.830353 106.087723 -839.865601
v 306.832306 69.904335 -841.603149
v 252.661163 183.428986 -820.178345
v 271.752838 152.835587 -817.505127
v 285.668549 120.318626 -816.628906
v 294.429535 86.2025986 -817.505127
v 297.818878 50.7381172 -820.178345
v 228.16391 190.4534 -799.49231
v 247.767365 162.239441 -795.342896
v 263.317352 131.427887 -793.242065
v 274.425446 98.7879181 -793.242065
v 280.814362 65.134491 -795.342896
v 282.324677 31.3077354 -799.49231
v 85.3869476 58.18853 -716.819702
v 106.449615 85.8667068 -718.823975
v 64.3243256 85.8667068 -718.823975
v 126.986542 112.854034 -724.786987
v 85.3869476 116.637466 -722.742432
v 43.7873383 112.854034 -724.786987
v 146.485138 138.476807 -734.559814
v 105.455048 144.825165 -730.828491
v 65.3188629 144.825165 -730.828491
v 24.2888336 138.476807 -734.559814
v 164.458405 162.095306 -747.89856
v 124.416718 170.341232 -742.667725
v 85.3869476 172.921249 -741.04834
v 46.3572235 170.341232 -742.667725
v 6.3155365 162.095306 -747.89856
v 180.457733 183.119827 -764.470093
v 142.146759 193.041199 -758.058838
v 104.248199 197.706619 -755.046143
v 66.5257111 197.706619 -755.046143
v 28.6272125 193.04126 -758.058838
v -9.68382263 183.119827 -764.470093
v 194.08371 201.025543 -783.86084
v 158.453644 212.653458 -776.968262
v 122.078583 219.41246 -772.952271
v 85.3869476 221.629715 -771.633301
v 48.6952972 219.41246 -772.952271
v 12.3202667 212.653458 -776.968262
v -23.3097687 201.025543 -783.86084
v 119.467072 47.6163635 -718.823975
v 152.696503 37.3081398 -724.786987
v 143.610382 76.2502365 -722.742432
v 184.24588 27.5210762 -734.559814
v 177.890717 66.7386475 -730.828491
v 165.487946 103.182785 -730.828491
v 213.32724 18.4996147 -747.89856
v 209.167755 57.4060822 -742.667725
v 199.676971 93.6428757 -741.04834
v 185.046051 128.285065 -742.667725
v 239.214691 10.4689445 -764.470093
v 237.259125 48.3217163 -758.058838
v 230.19516 84.1756821 -755.046143
v 218.5383 118.428246 -755.046143
v 202.179657 151.398804 -758.058838
v 261.261993 3.62956047 -783.86084
v 261.834747 39.575325 -776.968262
v 257.327179 74.6929092 -772.952271
v 248.19754 108.694588 -771.633301
v 234.650482 141.325882 -772.952271
v 216.677032 172.266251 -776.968262
v 85.3869476 23.976429 -718.823975
v 85.3869476 -9.38174438 -724.786987
v 121.371002 10.9023418 -722.742432
v 85.3869476 -41.0532532 -734.559814
v 122.489288 -23.1638031 -730.828491
v 154.960175 -0.640144348 -730.828491
v 85.3869476 -70.2472687 -747.89856
v 122.857941 -54.4476776 -742.667725
v 156.022064 -34.6322136 -741.04834
v 186.00943 -10.6421585 -742.667725
v 85.3869476 -96.235054 -764.470093
v 122.489349 -82.7621307 -758.058838
v 156.022125 -65.268631 -755.046143
v 186.540253 -44.0994339 -755.046143
v 214.328522 -19.0570755 -758.058838
v 85.3869476 -118.367752 -783.86084
v 121.371002 -107.779968 -776.968262
v 154.960175 -92.8350677 -772.952271
v 186.00943 -74.0382156 -771.633301
v 214.328522 -51.6537323 -772.952271
v 239.595367 -25.7725601 -776.968262
v 51.3068695 47.6163635 -718.823975
v 18.0773773 37.3081398 -724.786987
v 49.4029083 10.9023418 -722.742432
v -13.4719086 27.5210762 -734.559814
v 15.813736 -0.640144348 -730.828491
v 48.2845917 -23.1638031 -730.828491
v -42.553299 18.4996147 -747.89856
v -15.2354889 -10.6421585 -742.667725
v 14.7518158 -34.6322136 -741.04834
v 47.9159698 -54.4476776 -742.667725
v -68.4407806 10.4689445 -764.470093
v -43.5546112 -19.0570755 -758.058838
v -15.7663116 -44.0994339 -755.046143
v 14.7518158 -65.268631 -755.046143
v 48.2845917 -82.7621307 -758.058838
v -90.4880829 3.62956047 -783.86084
v -68.8214569 -25.7725601 -776.968262
v -43.5546112 -51.6537323 -772.952271
v -15.2354889 -74.0382156 -771.633301
v 15.813736 -92.8350677 -772.952271
v 49.4029083 -107.779968 -776.968262
v 27.163559 76.2502365 -722.742432
v 5.28599548 103.182785 -730.828491
v -7.11680603 66.7386475 -730.828491
v -14.2721405 128.285065 -742.667725
v -28.9030914 93.6428757 -741.04834
v -38.3938446 57.4060822 -742.667725
v -31.4057159 151.398804 -758.058838
v -47.7643585 118.428246 -755.046143
v -59.4212494 84.1756821 -755.046143
v -66.4851532 48.3217163 -758.058838
v -45.9031525 172.266251 -776.968262
v -63.8765411 141.325882 -772.952271
v -77.4236298 108.694588 -771.633301
v -86.5532379 74.6929092 -772.952271
v -91.0608673 39.575325 -776.968262
g 
f 3 1 2
f 5 2 4
f 6 3 5
f 8 4 7
f 9 5 8
f 10 6 9
f 12 7 11
f 13 8 12
f 14 9 13
f 15 10 14
f 17 11 16
f 18 12 17
f 19 13 18
f 20 14 19
f 21 15 20
f 23 16 22
f 24 17 23
f 25 18 24
f 26 19 25
f 27 20 26
f 28 21 27
f 30 22 29
f 31 23 30
f 32 24 31
f 33 25 32
f 34 26 33
f 35 27 34
f 36 28 35
f 3 2 5
f 5 4 8
f 6 5 9
f 8 7 12
f 9 8 13
f 10 9 14
f 12 11 17
f 13 12 18
f 14 13 19
f 15 14 20
f 17 16 23
f 18 17 24
f 19 18 25
f 20 19 26
f 21 20 27
f 23 22 30
f 24 23 31
f 25 24 32
f 26 25 33
f 27 26 34
f 28 27 35
f 37 1 3
f 38 3 6
f 39 37 38
f 40 6 10
f 41 38 40
f 42 39 41
f 43 10 15
f 44 40 43
f 45 41 44
f 46 42 45
f 47 15 21
f 48 43 47
f 49 44 48
f 50 45 49
f 51 46 50
f 52 21 28
f 53 47 52
f 54 48 53
f 55 49 54
f 56 50 55
f 57 51 56
f 58 28 36
f 59 52 58
f 60 53 59
f 61 54 60
f 62 55 61
f 63 56 62
f 64 57 63
f 37 3 38
f 38 6 40
f 39 38 41
f 40 10 43
f 41 40 44
f 42 41 45
f 43 15 47
f 44 43 48
f 45 44 49
f 46 45 50
f 47 21 52
f 48 47 53
f 49 48 54
f 50 49 55
f 51 50 56
f 52 28 58
f 53 52 59
f 54 53 60
f 55 54 61
f 56 55 62
f 57 56 63
f 65 1 37
f 66 37 39
f 67 65 66
f 68 39 42
f 69 66 68
f 70 67 69
f 71 42 46
f 72 68 71
f 73 69 72
f 74 70 73
f 75 46 51
f 76 71 75
f 77 72 76
f 78 73 77
f 79 74 78
f 80 51 57
f 81 75 80
f 82 76 81
f 83 77 82
f 84 78 83
f 85 79 84
f 86 57 64
f 87 80 86
f 88 81 87
f 89 82 88
f 90 83 89
f 91 84 90
f 92 85 91
f 65 37 66
f 66 39 68
f 67 66 69
f 68 42 71
f 69 68 72
f 70 69 73
f 71 46 75
f 72 71 76
f 73 72 77
f 74 73 78
f 75 51 80
f 76 75 81
f 77 76 82
f 78 77 83
f 79 78 84
f 80 57 86
f 81 80 87
f 82 81 88
f 83 82 89
f 84 83 90
f 85 84 91
f 93 1 65
f 94 65 67
f 95 93 94
f 96 67 70
f 97 94 96
f 98 95 97
f 99 70 74
f 100 96 99
f 101 97 100
f 102 98 101
f 103 74 79
f 104 99 103
f 105 100 104
f 106 101 105
f 107 102 106
f 108 79 85
f 109 103 108
f 110 104 109
f 111 105 110
f 112 106 111
f 113 107 112
f 114 85 92
f 115 108 114
f 116 109 115
f 117 110 116
f 118 111 117
f 119 112 118
f 120 113 119
f 93 65 94
f 94 67 96
f 95 94 97
f 96 70 99
f 97 96 100
f 98 97 101
f 99 74 103
f 100 99 104
f 101 100 105
f 102 101 106
f 103 79 108
f 104 103 109
f 105 104 110
f 106 105 111
f 107 106 112
f 108 85 114
f 109 108 115
f 110 109 116
f 111 110 117
f 112 111 118
f 113 112 119
f 2 1 93
f 121 93 95
f 4 2 121
f 122 95 98
f 123 121 122
f 7 4 123
f 124 98 102
f 125 122 124
f 126 123 125
f 11 7 126
f 127 102 107
f 128 124 127
f 129 125 128
f 130 126 129
f 16 11 130
f 131 107 113
f 132 127 131
f 133 128 132
f 134 129 133
f 135 130 134
f 22 16 135
f 136 113 120
f 137 131 136
f 138 132 137
f 139 133 138
f 140 134 139
f 141 135 140
f 29 22 141
f 2 93 121
f 121 95 122
f 4 121 123
f 122 98 124
f 123 122 125
f 7 123 126
f 124 102 127
f 125 124 128
f 126 125 129
f 11 126 130
f 127 107 131
f 128 127 132
f 129 128 133
f 130 129 134
f 16 130 135
f 131 113 136
f 132 131 137
f 133 132 138
f 134 133 139
f 135 134 140
f 22 135 141
f 142 29 141
f 143 141 140
f 144 142 143
f 145 140 139
f 146 143 145
f 147 144 146
f 148 139 138
f 149 145 148
f 150 146 149
f 151 147 150
f 152 138 137
f 153 148 152
f 154 149 153
f 155 150 154
f 156 151 155
f 157 137 136
f 158 152 157
f 159 153 158
f 160 154 159
f 161 155 160
f 162 156 161
f 163 136 120
f 164 157 163
f 165 158 164
f 166 159 165
f 167 160 166
f 168 161 167
f 169 162 168
f 142 141 143
f 143 140 145
f 144 143 146
f 145 139 148
f 146 145 149
f 147 146 150
f 148 138 152
f 149 148 153
f 150 149 154
f 151 150 155
f 152 137 157
f 153 152 158
f 154 153 159
f 155 154 160
f 156 155 161
f 157 136 163
f 158 157 164
f 159 158 165
f 160 159 166
f 161 160 167
f 162 161 168
f 170 120 119
f 171 119 118
f 172 170 171
f 173 118 117
f 174 171 173
f 175 172 174
f 176 117 116
f 177 173 176
f 178 174 177
f 179 175 178
f 180 116 115
f 181 176 180
f 182 177 181
f 183 178 182
f 184 179 183
f 185 115 114
f 186 180 185
f 187 181 186
f 188 182 187
f 189 183 188
f 190 184 189
f 191 114 92
f 192 185 191
f 193 186 192
f 194 187 193
f 195 188 194
f 196 189 195
f 197 190 196
f 170 119 171
f 171 118 173
f 172 171 174
f 173 117 176
f 174 173 177
f 175 174 178
f 176 116 180
f 177 176 181
f 178 177 182
f 179 178 183
f 180 115 185
f 181 180 186
f 182 181 187
f 183 182 188
f 184 183 189
f 185 114 191
f 186 185 192
f 187 186 193
f 188 187 194
f 189 188 195
f 190 189 196
f 198 92 91
f 199 91 90
f 200 198 199
f 201 90 89
f 202 199 201
f 203 200 202
f 204 89 88
f 205 201 204
f 206 202 205
f 207 203 206
f 208 88 87
f 209 204 208
f 210 205 209
f 211 206 210
f 212 207 211
f 213 87 86
f 214 208 213
f 215 209 214
f 216 210 215
f 217 211 216
f 218 212 217
f 219 86 64
f 220 213 219
f 221 214 220
f 222 215 221
f 223 216 222
f 224 217 223
f 225 218 224
f 198 91 199
f 199 90 201
f 200 199 202
f 201 89 204
f 202 201 205
f 203 202 206
f 204 88 208
f 205 204 209
f 206 205 210
f 207 206 211
f 208 87 213
f 209 208 214
f 210 209 215
f 211 210 216
f 212 211 217
f 213 86 219
f 214 213 220
f 215 214 221
f 216 215 222
f 217 216 223
f 218 217 224
f 226 64 63
f 227 63 62
f 228 226 227
f 229 62 61
f 230 227 229
f 231 228 230
f 232 61 60
f 233 229 232
f 234 230 233
f 235 231 234
f 236 60 59
f 237 232 236
f 238 233 237
f 239 234 238
f 240 235 239
f 241 59 58
f 242 236 241
f 243 237 242
f 244 238 243
f 245 239 244
f 246 240 245
f 247 58 36
f 248 241 247
f 249 242 248
f 250 243 249
f 251 244 250
f 252 245 251
f 253 246 252
f 226 63 227
f 227 62 229
f 228 227 230
f 229 61 232
f 230 229 233
f 231 230 234
f 232 60 236
f 233 232 237
f 234 233 238
f 235 234 239
f 236 59 241
f 237 236 242
f 238 237 243
f 239 238 244
f 240 239 245
f 241 58 247
f 242 241 248
f 243 242 249
f 244 243 250
f 245 244 251
f 246 245 252
f 254 36 35
f 255 35 34
f 256 254 255
f 257 34 33
f 258 255 257
f 259 256 258
f 260 33 32
f 261 257 260
f 262 258 261
f 263 259 262
f 264 32 31
f 265 260 264
f 266 261 265
f 267 262 266
f 268 263 267
f 269 31 30
f 270 264 269
f 271 265 270
f 272 266 271
f 273 267 272
f 274 268 273
f 275 30 29
f 276 269 275
f 277 270 276
f 278 271 277
f 279 272 278
f 280 273 279
f 281 274 280
f 254 35 255
f 255 34 257
f 256 255 258
f 257 33 260
f 258 257 261
f 259 258 262
f 260 32 264
f 261 260 265
f 262 261 266
f 263 262 267
f 264 31 269
f 265 264 270
f 266 265 271
f 267 266 272
f 268 267 273
f 269 30 275
f 270 269 276
f 271 270 277
f 272 271 278
f 273 272 279
f 274 273 280
f 275 29 142
f 282 142 144
f 276 275 282
f 283 144 147
f 284 282 283
f 277 276 284
f 285 147 151
f 286 283 285
f 287 284 286
f 278 277 287
f 288 151 156
f 289 285 288
f 290 286 289
f 291 287 290
f 279 278 291
f 292 156 162
f 293 288 292
f 294 289 293
f 295 290 294
f 296 291 295
f 280 279 296
f 297 162 169
f 298 292 297
f 299 293 298
f 300 294 299
f 301 295 300
f 302 296 301
f 281 280 302
f 275 142 282
f 282 144 283
f 276 282 284
f 283 147 285
f 284 283 286
f 277 284 287
f 285 151 288
f 286 285 289
f 287 286 290
f 278 287 291
f 288 156 292
f 289 288 293
f 290 289 294
f 291 290 295
f 279 291 296
f 292 162 297
f 293 292 298
f 294 293 299
f 295 294 300
f 296 295 301
f 280 296 302
f 163 120 170
f 303 170 172
f 164 163 303
f 304 172 175
f 305 303 304
f 165 164 305
f 306 175 179
f 307 304 306
f 308 305 307
f 166 165 308
f 309 179 184
f 310 306 309
f 311 307 310
f 312 308 311
f 167 166 312
f 313 184 190
f 314 309 313
f 315 310 314
f 316 311 315
f 317 312 316
f 168 167 317
f 318 190 197
f 319 313 318
f 320 314 319
f 321 315 320
f 322 316 321
f 323 317 322
f 169 168 323
f 163 170 303
f 303 172 304
f 164 303 305
f 304 175 306
f 305 304 307
f 165 305 308
f 306 179 309
f 307 306 310
f 308 307 311
f 166 308 312
f 309 184 313
f 310 309 314
f 311 310 315
f 312 311 316
f 167 312 317
f 313 190 318
f 314 313 319
f 315 314 320
f 316 315 321
f 317 316 322
f 168 317 323
f 191 92 198
f 324 198 200
f 192 191 324
f 325 200 203
f 326 324 325
f 193 192 326
f 327 203 207
f 328 325 327
f 329 326 328
f 194 193 329
f 330 207 212
f 331 327 330
f 332 328 331
f 333 329 332
f 195 194 333
f 334 212 218
f 335 330 334
f 336 331 335
f 337 332 336
f 338 333 337
f 196 195 338
f 339 218 225
f 340 334 339
f 341 335 340
f 342 336 341
f 343 337 342
f 344 338 343
f 197 196 344
f 191 198 324
f 324 200 325
f 192 324 326
f 325 203 327
f 326 325 328
f 193 326 329
f 327 207 330
f 328 327 331
f 329 328 332
f 194 329 333
f 330 212 334
f 331 330 335
f 332 331 336
f 333 332 337
f 195 333 338
f 334 218 339
f 335 334 340
f 336 335 341
f 337 336 342
f 338 337 343
f 196 338 344
f 219 64 226
f 345 226 228
f 220 219 345
f 346 228 231
f 347 345 346
f 221 220 347
f 348 231 235
f 349 346 348
f 350 347 349
f 222 221 350
f 351 235 240
f 352 348 351
f 353 349 352
f 354 350 353
f 223 222 354
f 355 240 246
f 356 351 355
f 357 352 356
f 358 353 357
f 359 354 358
f 224 223 359
f 360 246 253
f 361 355 360
f 362 356 361
f 363 357 362
f 364 358 363
f 365 359 364
f 225 224 365
f 219 226 345
f 345 228 346
f 220 345 347
f 346 231 348
f 347 346 349
f 221 347 350
f 348 235 351
f 349 348 352
f 350 349 353
f 222 350 354
f 351 240 355
f 352 351 356
f 353 352 357
f 354 353 358
f 223 354 359
f 355 246 360
f 356 355 361
f 357 356 362
f 358 357 363
f 359 358 364
f 224 359 365
f 247 36 254
f 366 254 256
f 248 247 366
f 367 256 259
f 368 366 367
f 249 248 368
f 369 259 263
f 370 367 369
f 371 368 370
f 250 249 371
f 372 263 268
f 373 369 372
f 374 370 373
f 375 371 374
f 251 250 375
f 376 268 274
f 377 372 376
f 378 373 377
f 379 374 378
f 380 375 379
f 252 251 380
f 381 274 281
f 382 376 381
f 383 377 382
f 384 378 383
f 385 379 384
f 386 380 385
f 253 252 386
f 247 254 366
f 366 256 367
f 248 366 368
f 367 259 369
f 368 367 370
f 249 368 371
f 369 263 372
f 370 369 373
f 371 370 374
f 250 371 375
f 372 268 376
f 373 372 377
f 374 373 378
f 375 374 379
f 251 375 380
f 376 274 381
f 377 376 382
f 378 377 383
f 379 378 384
f 380 379 385
f 252 380 386
f 389 387 388
f 391 388 390
f 392 389 391
f 394 390 393
f 395 391 394
f 396 392 395
f 398 393 397
f 399 394 398
f 400 395 399
f 401 396 400
f 403 397 402
f 404 398 403
f 405 399 404
f 406 400 405
f 407 401 406
f 409 402 408
f 410 403 409
f 411 404 410
f 412 405 411
f 413 406 412
f 414 407 413
f 302 408 281
f 301 409 302
f 300 410 301
f 299 411 300
f 298 412 299
f 297 413 298
f 169 414 297
f 389 388 391
f 391 390 394
f 392 391 395
f 394 393 398
f 395 394 399
f 396 395 400
f 398 397 403
f 399 398 404
f 400 399 405
f 401 400 406
f 403 402 409
f 404 403 410
f 405 404 411
f 406 405 412
f 407 406 413
f 409 408 302
f 410 409 301
f 411 410 300
f 412 411 299
f 413 412 298
f 414 413 297
f 388 387 415
f 417 415 416
f 390 388 417
f 419 416 418
f 420 417 419
f 393 390 420
f 422 418 421
f 423 419 422
f 424 420 423
f 397 393 424
f 426 421 425
f 427 422 426
f 428 423 427
f 429 424 428
f 402 397 429
f 431 425 430
f 432 426 431
f 433 427 432
f 434 428 433
f 435 429 434
f 408 402 435
f 386 430 253
f 385 431 386
f 384 432 385
f 383 433 384
f 382 434 383
f 381 435 382
f 281 408 381
f 388 415 417
f 417 416 419
f 390 417 420
f 419 418 422
f 420 419 423
f 393 420 424
f 422 421 426
f 423 422 427
f 424 423 428
f 397 424 429
f 426 425 431
f 427 426 432
f 428 427 433
f 429 428 434
f 402 429 435
f 431 430 386
f 432 431 385
f 433 432 384
f 434 433 383
f 435 434 382
f 408 435 381
f 415 387 436
f 438 436 437
f 416 415 438
f 440 437 439
f 441 438 440
f 418 416 441
f 443 439 442
f 444 440 443
f 445 441 444
f 421 418 445
f 447 442 446
f 448 443 447
f 449 444 448
f 450 445 449
f 425 421 450
f 452 446 451
f 453 447 452
f 454 448 453
f 455 449 454
f 456 450 455
f 430 425 456
f 365 451 225
f 364 452 365
f 363 453 364
f 362 454 363
f 361 455 362
f 360 456 361
f 253 430 360
f 415 436 438
f 438 437 440
f 416 438 441
f 440 439 443
f 441 440 444
f 418 441 445
f 443 442 447
f 444 443 448
f 445 444 449
f 421 445 450
f 447 446 452
f 448 447 453
f 449 448 454
f 450 449 455
f 425 450 456
f 452 451 365
f 453 452 364
f 454 453 363
f 455 454 362
f 456 455 361
f 430 456 360
f 436 387 457
f 459 457 458
f 437 436 459
f 461 458 460
f 462 459 461
f 439 437 462
f 464 460 463
f 465 461 464
f 466 462 465
f 442 439 466
f 468 463 467
f 469 464 468
f 470 465 469
f 471 466 470
f 446 442 471
f 473 467 472
f 474 468 473
f 475 469 474
f 476 470 475
f 477 471 476
f 451 446 477
f 344 472 197
f 343 473 344
f 342 474 343
f 341 475 342
f 340 476 341
f 339 477 340
f 225 451 339
f 436 457 459
f 459 458 461
f 437 459 462
f 461 460 464
f 462 461 465
f 439 462 466
f 464 463 468
f 465 464 469
f 466 465 470
f 442 466 471
f 468 467 473
f 469 468 474
f 470 469 475
f 471 470 476
f 446 471 477
f 473 472 344
f 474 473 343
f 475 474 342
f 476 475 341
f 477 476 340
f 451 477 339
f 457 387 389
f 478 389 392
f 458 457 478
f 479 392 396
f 480 478 479
f 460 458 480
f 481 396 401
f 482 479 481
f 483 480 482
f 463 460 483
f 484 401 407
f 485 481 484
f 486 482 485
f 487 483 486
f 467 463 487
f 488 407 414
f 489 484 488
f 490 485 489
f 491 486 490
f 492 487 491
f 472 467 492
f 323 414 169
f 322 488 323
f 321 489 322
f 320 490 321
f 319 491 320
f 318 492 319
f 197 472 318
f 457 389 478
f 478 392 479
f 458 478 480
f 479 396 481
f 480 479 482
f 460 480 483
f 481 401 484
f 482 481 485
f 483 482 486
f 463 483 487
f 484 407 488
f 485 484 489
f 486 485 490
f 487 486 491
f 467 487 492
f 488 414 323
f 489 488 322
f 490 489 321
f 491 490 320
f 492 491 319
f 472 492 318
