# File exported by Houdini 20.5.445 (www.sidefx.com)
# 492 points
# 2940 vertices
# 980 primitives
# Bounds: [-153.154266, -62.5913086, -1150.79468] to [323.928192, 178.968414, -604.006348]
g 
v 85.3869324 58.1885605 -1150.79468
v 85.3869324 77.29422 -1147.38232
v 121.231476 64.0925751 -1147.38232
v 85.3869324 95.9230118 -1137.22998
v 123.234039 84.5954285 -1140.71082
v 156.181366 69.8491745 -1137.22998
v 85.3869324 113.609917 -1120.59131
v 124.410248 103.619621 -1126.94421
v 158.562164 91.0412903 -1126.94421
v 189.364105 75.314743 -1120.59131
v 85.3869324 129.913239 -1097.88184
v 124.797943 121.089989 -1106.78735
v 159.679108 110.024086 -1109.54443
v 191.218964 96.6268539 -1106.78735
v 219.95108 80.3527374 -1097.88184
v 85.3869324 144.426056 -1069.66809
v 124.410248 136.902191 -1080.58362
v 159.679108 127.132927 -1085.71265
v 191.777313 115.310997 -1085.71265
v 221.004242 101.326195 -1080.58362
v 247.178864 84.8374557 -1069.66821
v 85.3869324 156.786011 -1036.65479
v 123.234039 150.873291 -1048.38953
v 158.562164 142.527344 -1055.22705
v 191.218964 132.030273 -1057.47266
v 221.004242 119.529686 -1055.22705
v 247.579254 105.076439 -1048.38953
v 270.367584 88.6568832 -1036.65479
v 85.3869324 166.68457 -999.665894
v 121.231476 162.689972 -1010.04163
v 156.181366 156.08667 -1017.10596
v 189.364105 147.039398 -1020.68286
v 219.95108 135.774078 -1020.68286
v 247.178864 122.571938 -1017.10596
v 270.367584 107.76255 -1010.04163
v 288.938385 91.7156906 -999.666138
v 107.54007 42.7317429 -1147.38232
v 146.624725 48.1020279 -1140.71082
v 129.140289 27.6606979 -1137.22998
v 182.679901 53.4137726 -1126.94421
v 169.634918 33.0616379 -1126.94421
v 149.648285 13.3517609 -1120.59131
v 215.576263 58.6255188 -1106.78735
v 205.594147 38.3891907 -1109.54443
v 190.205719 19.0432701 -1106.78735
v 168.552155 0.162059784 -1097.88184
v 245.121918 63.6986694 -1080.58362
v 237.692352 43.6760712 -1085.71289
v 225.431976 24.5478401 -1085.71289
v 208.226349 6.13547516 -1080.58362
v 185.379852 -11.5790253 -1069.66821
v 270.970001 68.5830688 -1048.38953
v 266.229034 48.9717026 -1055.22705
v 256.62674 29.9835587 -1057.47266
v 242.378265 11.760685 -1055.22705
v 223.474457 -5.5179348 -1048.38953
v 199.711273 -21.5784492 -1036.65479
v 292.520721 73.2000656 -1010.04163
v 290.93222 54.3095856 -1017.10596
v 284.212555 35.5158997 -1020.68311
v 272.529327 17.2882004 -1020.68311
v 256.174286 0.0815505981 -1017.10596
v 235.555878 -15.6744766 -1010.04163
v 211.18869 -29.586544 -999.666138
v 63.2337952 42.7317429 -1147.38232
v 85.3869324 25.5478439 -1140.71082
v 41.6335754 27.6606979 -1137.22998
v 106.493988 9.80651474 -1126.94421
v 64.2798767 9.80651474 -1126.94421
v 21.1255798 13.3517609 -1120.59131
v 126.437408 -4.44284248 -1106.78735
v 85.3869324 -5.88369942 -1109.54443
v 44.3365173 -4.44284248 -1106.78735
v 2.22177124 0.162059784 -1097.88184
v 145.085236 -17.119606 -1080.58362
v 105.224701 -19.7250175 -1085.71289
v 65.5491638 -19.7250175 -1085.71289
v 25.6885681 -17.119606 -1080.58362
v -14.6059265 -11.5790253 -1069.66821
v 162.236542 -28.0720406 -1048.38953
v 123.978241 -31.8466034 -1055.22705
v 85.3869324 -33.0847931 -1057.47266
v 46.7956848 -31.8466034 -1055.22705
v 8.53738403 -28.0720406 -1048.38953
v -28.9374084 -21.5784492 -1036.65479
v 177.558136 -37.0353012 -1010.04163
v 141.626495 -42.106926 -1017.10596
v 104.290741 -44.6748123 -1020.68311
v 66.4831238 -44.6748123 -1020.68311
v 29.1474304 -42.106926 -1017.10596
v -6.78421021 -37.0353012 -1010.04163
v -40.4148254 -29.586544 -999.666138
v 49.5423889 64.0925751 -1147.38232
v 24.1491394 48.1020279 -1140.71082
v 14.5925598 69.8491745 -1137.22998
v 1.1388855 33.0616379 -1126.94421
v -11.9059753 53.4137726 -1126.94421
v -18.5901184 75.314743 -1120.59131
v -19.4317932 19.0432701 -1106.78735
v -34.8202209 38.3891907 -1109.54443
v -44.8023376 58.6255188 -1106.78735
v -49.1771545 80.3527374 -1097.88184
v -37.4524231 6.13547516 -1080.58362
v -54.6579895 24.5478401 -1085.71289
v -66.9184265 43.6760712 -1085.71289
v -74.348053 63.6986694 -1080.58362
v -76.4048767 84.8374557 -1069.66821
v -52.70047 -5.5179348 -1048.38953
v -71.6044006 11.760685 -1055.22705
v -85.8528748 29.9835587 -1057.47266
v -95.4551086 48.9717026 -1055.22705
v -100.196136 68.5830688 -1048.38953
v -99.5936584 88.6568832 -1036.65479
v -64.7818909 -15.6744766 -1010.04163
v -85.4004211 0.0815505981 -1017.10596
v -101.755402 17.2882004 -1020.68311
v -113.438599 35.5158997 -1020.68311
v -120.158325 54.3095856 -1017.10596
v -121.746857 73.2000656 -1010.04163
v -118.16452 91.7156906 -999.666138
v 47.5398865 84.5954285 -1140.71082
v 12.2117004 91.0412903 -1126.94421
v 46.363678 103.619621 -1126.94421
v -20.4450378 96.6268539 -1106.78735
v 11.0948181 110.024086 -1109.54443
v 45.9759827 121.089989 -1106.78735
v -50.2303162 101.326195 -1080.58362
v -21.0033264 115.310997 -1085.71265
v 11.0948181 127.132927 -1085.71265
v 46.3636169 136.902191 -1080.5835
v -76.8053284 105.076439 -1048.38953
v -50.2303162 119.529686 -1055.22705
v -20.4450378 132.030273 -1057.47266
v 12.2117004 142.527344 -1055.22705
v 47.5398865 150.873291 -1048.38953
v -99.5935974 107.76255 -1010.04163
v -76.4048767 122.571938 -1017.10596
v -49.1771545 135.774078 -1020.68286
v -18.5901184 147.039398 -1020.68286
v 14.5924988 156.08667 -1017.10596
v 49.5423889 162.689972 -1010.04163
v 63.2337952 172.242828 -966.980835
v 24.1490784 167.193604 -974.82312
v 41.6335754 174.953918 -932.059082
v -11.9059753 159.354889 -979.374268
v 1.13894653 168.456604 -938.346924
v 21.1255798 174.750061 -895.772949
v -44.8023376 149.024963 -980.866211
v -34.8202209 159.168976 -941.305054
v -19.4317932 166.726654 -901.07312
v 2.22177124 171.636414 -859.028076
v -74.3479919 136.357208 -979.374268
v -66.9183655 147.347107 -941.305054
v -54.6579895 155.901489 -902.744751
v -37.4523621 162.10022 -863.333862
v -14.6059265 165.690643 -822.741821
v -100.196075 121.396797 -974.82312
v -95.4550476 132.880676 -938.346924
v -85.8527527 142.26355 -901.07312
v -71.6042786 149.521912 -863.333862
v -52.7004089 154.535675 -825.444458
v -28.9373474 157.061218 -787.82019
v -121.746796 104.113716 -966.980835
v -120.158264 115.365273 -932.059082
v -113.438477 125.189522 -895.772949
v -101.75531 133.341187 -859.028076
v -85.4002991 139.61676 -822.741821
v -64.7818909 143.859497 -787.82019
v -40.4148254 145.963654 -755.134888
v -135.438202 82.7528763 -966.980835
v -138.043182 62.3492279 -974.82312
v -147.199341 73.1768341 -932.059082
v -134.478424 42.5441132 -979.374268
v -147.523285 51.6458969 -938.346924
v -153.154266 63.2265625 -895.772949
v -125.263794 23.4921608 -980.866211
v -141.210541 31.4393387 -941.305054
v -150.634308 41.1938553 -901.07312
v -153.154266 53.1505203 -859.028076
v -110.627655 5.33312607 -979.374268
v -128.950073 12.3111153 -941.305054
v -141.210541 20.8655205 -902.744751
v -147.523224 31.0761032 -863.333862
v -147.199341 43.2002869 -822.741821
v -90.5475159 -11.7517395 -974.82312
v -110.627655 -5.91729355 -938.346924
v -125.263763 1.61164093 -901.07312
v -134.478333 10.7239723 -863.333862
v -138.043152 21.3872147 -825.444458
v -135.438202 33.6242371 -787.82019
v -64.7818909 -27.4824142 -966.980835
v -85.4002991 -23.2396431 -932.059082
v -101.75531 -16.9640808 -895.772949
v -113.438477 -8.81240845 -859.028076
v -120.158264 1.0118103 -822.741821
v -121.746796 12.2634163 -787.82019
v -118.16452 24.6614227 -755.13501
v -28.9373474 -40.6841049 -966.980835
v 8.53738403 -48.2450714 -974.82312
v -14.6059265 -49.31353 -932.059082
v 46.7956848 -52.6465683 -979.374268
v 25.6885681 -56.1231079 -938.346924
v 2.22177124 -55.2592926 -895.772949
v 85.3869324 -54.0914764 -980.866211
v 65.5491638 -59.3237839 -941.305054
v 44.3365173 -60.8528748 -901.07312
v 21.1255798 -58.372963 -859.028076
v 123.978241 -52.6465683 -979.374268
v 105.224701 -59.3237839 -941.305054
v 85.3869324 -62.5913086 -902.744751
v 64.2798767 -62.4795151 -863.333862
v 41.6335754 -58.5768127 -822.741821
v 162.236542 -48.2450714 -974.82312
v 145.085236 -56.1231079 -938.346924
v 126.437408 -60.8528748 -901.07312
v 106.493988 -62.4795151 -863.333862
v 85.3869324 -60.9030609 -825.444458
v 63.2337952 -55.8656921 -787.82019
v 199.711273 -40.6841049 -966.980835
v 185.379852 -49.31353 -932.059082
v 168.552155 -55.2592926 -895.772949
v 149.648285 -58.372963 -859.028076
v 129.140289 -58.5768127 -822.741821
v 107.54007 -55.8656921 -787.82019
v 85.3869324 -50.3074112 -755.13501
v 235.555878 -27.4824142 -966.980835
v 261.321442 -11.7517395 -974.82312
v 256.174225 -23.2396431 -932.059082
v 281.401642 5.33312607 -979.374268
v 281.401642 -5.91729355 -938.346924
v 272.529266 -16.9640808 -895.772949
v 296.037689 23.4921608 -980.866211
v 299.723969 12.3111153 -941.305054
v 296.037689 1.61164093 -901.07312
v 284.212372 -8.81240845 -859.028076
v 305.252289 42.5441132 -979.374268
v 311.984467 31.4393387 -941.305054
v 311.984467 20.8655205 -902.744751
v 305.252289 10.7239723 -863.333862
v 290.932159 1.0118103 -822.741821
v 308.817108 62.3492279 -974.82312
v 318.29715 51.6458969 -938.346924
v 321.408234 41.1938553 -901.07312
v 318.29715 31.0761032 -863.333862
v 308.817108 21.3872147 -825.444458
v 292.52066 12.2634163 -787.82019
v 306.212128 82.7528763 -966.980835
v 317.973236 73.1768341 -932.059082
v 323.928192 63.2265625 -895.772949
v 323.928192 53.1505203 -859.028076
v 317.973236 43.2002869 -822.741821
v 306.212128 33.6242371 -787.82019
v 288.938385 24.6614227 -755.13501
v 292.52066 104.113716 -966.980835
v 270.970001 121.396797 -974.82312
v 290.932159 115.365273 -932.059082
v 245.121918 136.357208 -979.374268
v 266.228912 132.880676 -938.346924
v 284.212372 125.189522 -895.772949
v 215.576263 149.024963 -980.866211
v 237.69223 147.347107 -941.305054
v 256.626617 142.26355 -901.07312
v 272.529266 133.341187 -859.028076
v 182.679901 159.354889 -979.374268
v 205.594147 159.168976 -941.305054
v 225.431854 155.901489 -902.744751
v 242.378204 149.521912 -863.333862
v 256.174225 139.61676 -822.741821
v 146.624786 167.193604 -974.82312
v 169.634918 168.456604 -938.346924
v 190.205719 166.726654 -901.07312
v 208.226288 162.10022 -863.333862
v 223.474274 154.535675 -825.444458
v 235.555878 143.859497 -787.82019
v 107.54007 172.242828 -966.980835
v 129.140289 174.953918 -932.059082
v 149.648285 174.750061 -895.772949
v 168.552155 171.636414 -859.028076
v 185.379852 165.690643 -822.741821
v 199.711273 157.061218 -787.82019
v 211.18869 145.963654 -755.134888
v 85.3869324 177.280121 -929.356567
v 64.2798767 178.856628 -891.467285
v 106.493988 178.856628 -891.467285
v 44.3365173 177.22995 -853.727783
v 85.3869324 178.968414 -852.056152
v 126.437408 177.22995 -853.727783
v 25.6885681 172.500214 -816.454224
v 65.5491638 175.700928 -813.495972
v 105.224701 175.700928 -813.495972
v 145.085236 172.500214 -816.454224
v 8.53738403 164.622192 -779.977905
v 46.7956848 169.023651 -775.426758
v 85.3869324 170.468567 -773.934814
v 123.978241 169.023651 -775.426758
v 162.236542 164.622192 -779.977905
v -6.78421021 153.412384 -744.759399
v 29.1474304 158.483978 -737.694824
v 66.4831238 161.05191 -734.118042
v 104.290741 161.05191 -734.118042
v 141.626495 158.483978 -737.694824
v 177.558136 153.412384 -744.759399
v -138.043152 94.9899063 -929.356567
v -147.523224 85.3009796 -891.467285
v -134.478333 105.653114 -891.467285
v -150.634308 75.1833038 -853.727783
v -141.210541 95.5116043 -852.056152
v -125.263763 114.765495 -853.727783
v -147.523285 64.7312164 -816.454224
v -141.210541 84.9377365 -813.495972
v -128.950073 104.065971 -813.495972
v -110.627655 122.29438 -816.454224
v -138.043182 54.0278931 -779.977905
v -134.478424 73.8329315 -775.426758
v -125.263794 92.884964 -773.934814
v -110.627655 111.043983 -775.426758
v -90.5475159 128.128815 -779.977905
v -121.746857 43.1770172 -744.759399
v -120.158325 62.0674973 -737.694824
v -113.438599 80.8611832 -734.11792
v -101.755402 99.0888748 -734.11792
v -85.4004211 116.29554 -737.694824
v -64.7818909 132.051544 -744.759399
v -52.7004089 -38.158577 -929.356567
v -37.4523621 -45.7231064 -891.467285
v -71.6042786 -33.1448555 -891.467285
v -19.4317932 -50.3495331 -853.727783
v -54.6579895 -39.5244217 -852.056152
v -85.8527527 -25.8864403 -853.727783
v 1.13894653 -52.0795135 -816.454224
v -34.8202209 -42.7919083 -813.495972
v -66.9183655 -30.9699783 -813.495972
v -95.4550476 -16.5035553 -816.454224
v 24.1490784 -50.8165207 -779.977905
v -11.9059753 -42.9777985 -775.426758
v -44.8023376 -32.6478806 -773.934814
v -74.3479919 -19.9801331 -775.426758
v -100.196075 -5.01969719 -779.977905
v 49.5423889 -46.3128815 -744.759399
v 14.5924988 -39.7096024 -737.694946
v -18.5901184 -30.6623077 -734.118042
v -49.1771545 -19.3970413 -734.118042
v -76.4048767 -6.19482613 -737.694946
v -99.5935974 8.61453629 -744.759399
v 223.474457 -38.158577 -929.356567
v 242.378204 -33.1447792 -891.467285
v 208.226288 -45.7231064 -891.467285
v 256.626617 -25.8864403 -853.727783
v 225.431854 -39.5244217 -852.056152
v 190.205719 -50.3495331 -853.727783
v 266.228912 -16.5035553 -816.454224
v 237.69223 -30.9699783 -813.495972
v 205.594147 -42.7919083 -813.495972
v 169.634918 -52.0795135 -816.454224
v 270.96994 -5.01969719 -779.977905
v 245.121918 -19.9801331 -775.426758
v 215.576263 -32.6478806 -773.934814
v 182.679901 -42.9777985 -775.426758
v 146.624786 -50.8165207 -779.977905
v 270.367584 8.61453629 -744.759399
v 247.178864 -6.19482613 -737.694946
v 219.95108 -19.3970413 -734.118042
v 189.364105 -30.6623077 -734.118042
v 156.181366 -39.7096024 -737.694946
v 121.231476 -46.3128815 -744.759399
v 308.817108 94.9899063 -929.356567
v 305.252289 105.653114 -891.467285
v 318.29715 85.3009796 -891.467285
v 296.037689 114.765495 -853.727783
v 311.984467 95.5116043 -852.056152
v 321.408234 75.1833038 -853.727783
v 281.401459 122.29438 -816.454224
v 299.723969 104.065971 -813.495972
v 311.984467 84.9377365 -813.495972
v 318.29715 64.7312164 -816.454224
v 261.321442 128.128815 -779.977905
v 281.401642 111.043983 -775.426758
v 296.037689 92.884964 -773.934814
v 305.252289 73.8329315 -775.426758
v 308.817108 54.0278931 -779.977905
v 235.555878 132.051544 -744.759399
v 256.174286 116.29554 -737.694824
v 272.529327 99.0888748 -734.11792
v 284.212555 80.8611832 -734.11792
v 290.93222 62.0674973 -737.694824
v 292.520721 43.1770172 -744.759399
v 85.3869324 58.1885605 -604.006348
v 107.54007 73.64534 -607.418701
v 63.2337952 73.64534 -607.418701
v 129.140289 88.7163849 -617.570923
v 85.3869324 90.8292313 -614.090088
v 41.6335754 88.7163849 -617.570923
v 149.648285 103.025352 -634.209595
v 106.493988 106.570564 -627.856812
v 64.2798767 106.570564 -627.856812
v 21.1255798 103.025352 -634.209595
v 168.552155 116.21505 -656.919189
v 126.437408 120.819969 -648.013428
v 85.3869324 122.260796 -645.256592
v 44.3365173 120.819969 -648.013428
v 2.22177124 116.21505 -656.919189
v 185.379852 127.956154 -685.132812
v 145.085236 133.496735 -674.217407
v 105.224701 136.102112 -669.088135
v 65.5491638 136.102112 -669.088135
v 25.6885681 133.496765 -674.217407
v -14.6059265 127.956154 -685.132812
v 199.711273 137.955566 -718.14624
v 162.236542 144.449127 -706.411377
v 123.978241 148.223694 -699.573853
v 85.3869324 149.461914 -697.328369
v 46.7956848 148.223694 -699.573853
v 8.53738403 144.449127 -706.411377
v -28.9374084 137.955566 -718.14624
v 121.231476 52.2845535 -607.418701
v 156.181366 46.5279465 -617.570923
v 146.624725 68.2750626 -614.090088
v 189.364105 41.0624161 -634.209595
v 182.679901 62.9633484 -627.856812
v 169.634918 83.3154755 -627.856812
v 219.95108 36.0243912 -656.919189
v 215.576263 57.7516022 -648.013428
v 205.594147 77.9879303 -645.256592
v 190.205719 97.3337784 -648.013428
v 247.178864 31.5396729 -685.132812
v 245.121918 52.6784515 -674.217407
v 237.692352 72.7010117 -669.088135
v 225.431976 91.8292847 -669.088135
v 208.226349 110.2416 -674.217407
v 270.367584 27.7201958 -718.14624
v 270.970001 47.7940521 -706.411377
v 266.229034 67.4053802 -699.573853
v 256.62674 86.3935165 -697.328369
v 242.378265 104.616432 -699.573853
v 223.474457 121.894981 -706.411377
v 85.3869324 39.082901 -607.418701
v 85.3869324 20.4540634 -617.570923
v 123.234039 31.781723 -614.090088
v 85.3869324 2.76717377 -634.209595
v 124.410248 12.7574997 -627.856812
v 158.562164 25.3357925 -627.856812
v 85.3869324 -13.5361633 -656.919189
v 124.797943 -4.71291542 -648.01355
v 159.679108 6.35302734 -645.256592
v 191.218964 19.7501869 -648.013428
v 85.3869324 -28.0489883 -685.132812
v 124.410248 -20.5250664 -674.217407
v 159.679108 -10.7557755 -669.088257
v 191.777313 1.06611252 -669.088257
v 221.004242 15.0508957 -674.217407
v 85.3869324 -40.4089127 -718.14624
v 123.234039 -34.4961853 -706.411377
v 158.562164 -26.1502762 -699.573853
v 191.218964 -15.6531754 -697.328369
v 221.004242 -3.15257263 -699.573853
v 247.579254 11.3006439 -706.411377
v 49.5423889 52.2845535 -607.418701
v 14.5925598 46.5279465 -617.570923
v 47.5398865 31.781723 -614.090088
v -18.5901184 41.0624161 -634.209595
v 12.2117004 25.3357925 -627.856812
v 46.363678 12.7574997 -627.856812
v -49.1771545 36.0243912 -656.919189
v -20.4450378 19.7501869 -648.013428
v 11.0948181 6.35302734 -645.256592
v 45.9759827 -4.71291542 -648.01355
v -76.4048767 31.5396729 -685.132812
v -50.2303162 15.0508957 -674.217407
v -21.0033264 1.06611252 -669.088257
v 11.0948181 -10.7557755 -669.088257
v 46.3636169 -20.5250664 -674.217407
v -99.5936584 27.7201958 -718.14624
v -76.8053284 11.3006439 -706.411377
v -50.2303162 -3.15257263 -699.573853
v -20.4450378 -15.6531754 -697.328369
v 12.2117004 -26.1502762 -699.573853
v 47.5398865 -34.4961853 -706.411377
v 24.1491394 68.2750626 -614.090088
v 1.1388855 83.3154755 -627.856812
v -11.9059753 62.9633484 -627.856812
v -19.4317932 97.3337784 -648.013428
v -34.8202209 77.9879303 -645.256592
v -44.8023376 57.7516022 -648.013428
v -37.4524231 110.2416 -674.217407
v -54.6579895 91.8292847 -669.088135
v -66.9184265 72.7010117 -669.088135
v -74.348053 52.6784515 -674.217407
v -52.70047 121.894981 -706.411255
v -71.6044006 104.616432 -699.573853
v -85.8528748 86.3935165 -697.328369
v -95.4551086 67.4053802 -699.573853
v -100.196136 47.7940521 -706.411377
g 
f 3 1 2
f 5 2 4
f 6 3 5
f 8 4 7
f 9 5 8
f 10 6 9
f 12 7 11
f 13 8 12
f 14 9 13
f 15 10 14
f 17 11 16
f 18 12 17
f 19 13 18
f 20 14 19
f 21 15 20
f 23 16 22
f 24 17 23
f 25 18 24
f 26 19 25
f 27 20 26
f 28 21 27
f 30 22 29
f 31 23 30
f 32 24 31
f 33 25 32
f 34 26 33
f 35 27 34
f 36 28 35
f 3 2 5
f 5 4 8
f 6 5 9
f 8 7 12
f 9 8 13
f 10 9 14
f 12 11 17
f 13 12 18
f 14 13 19
f 15 14 20
f 17 16 23
f 18 17 24
f 19 18 25
f 20 19 26
f 21 20 27
f 23 22 30
f 24 23 31
f 25 24 32
f 26 25 33
f 27 26 34
f 28 27 35
f 37 1 3
f 38 3 6
f 39 37 38
f 40 6 10
f 41 38 40
f 42 39 41
f 43 10 15
f 44 40 43
f 45 41 44
f 46 42 45
f 47 15 21
f 48 43 47
f 49 44 48
f 50 45 49
f 51 46 50
f 52 21 28
f 53 47 52
f 54 48 53
f 55 49 54
f 56 50 55
f 57 51 56
f 58 28 36
f 59 52 58
f 60 53 59
f 61 54 60
f 62 55 61
f 63 56 62
f 64 57 63
f 37 3 38
f 38 6 40
f 39 38 41
f 40 10 43
f 41 40 44
f 42 41 45
f 43 15 47
f 44 43 48
f 45 44 49
f 46 45 50
f 47 21 52
f 48 47 53
f 49 48 54
f 50 49 55
f 51 50 56
f 52 28 58
f 53 52 59
f 54 53 60
f 55 54 61
f 56 55 62
f 57 56 63
f 65 1 37
f 66 37 39
f 67 65 66
f 68 39 42
f 69 66 68
f 70 67 69
f 71 42 46
f 72 68 71
f 73 69 72
f 74 70 73
f 75 46 51
f 76 71 75
f 77 72 76
f 78 73 77
f 79 74 78
f 80 51 57
f 81 75 80
f 82 76 81
f 83 77 82
f 84 78 83
f 85 79 84
f 86 57 64
f 87 80 86
f 88 81 87
f 89 82 88
f 90 83 89
f 91 84 90
f 92 85 91
f 65 37 66
f 66 39 68
f 67 66 69
f 68 42 71
f 69 68 72
f 70 69 73
f 71 46 75
f 72 71 76
f 73 72 77
f 74 73 78
f 75 51 80
f 76 75 81
f 77 76 82
f 78 77 83
f 79 78 84
f 80 57 86
f 81 80 87
f 82 81 88
f 83 82 89
f 84 83 90
f 85 84 91
f 93 1 65
f 94 65 67
f 95 93 94
f 96 67 70
f 97 94 96
f 98 95 97
f 99 70 74
f 100 96 99
f 101 97 100
f 102 98 101
f 103 74 79
f 104 99 103
f 105 100 104
f 106 101 105
f 107 102 106
f 108 79 85
f 109 103 108
f 110 104 109
f 111 105 110
f 112 106 111
f 113 107 112
f 114 85 92
f 115 108 114
f 116 109 115
f 117 110 116
f 118 111 117
f 119 112 118
f 120 113 119
f 93 65 94
f 94 67 96
f 95 94 97
f 96 70 99
f 97 96 100
f 98 97 101
f 99 74 103
f 100 99 104
f 101 100 105
f 102 101 106
f 103 79 108
f 104 103 109
f 105 104 110
f 106 105 111
f 107 106 112
f 108 85 114
f 109 108 115
f 110 109 116
f 111 110 117
f 112 111 118
f 113 112 119
f 2 1 93
f 121 93 95
f 4 2 121
f 122 95 98
f 123 121 122
f 7 4 123
f 124 98 102
f 125 122 124
f 126 123 125
f 11 7 126
f 127 102 107
f 128 124 127
f 129 125 128
f 130 126 129
f 16 11 130
f 131 107 113
f 132 127 131
f 133 128 132
f 134 129 133
f 135 130 134
f 22 16 135
f 136 113 120
f 137 131 136
f 138 132 137
f 139 133 138
f 140 134 139
f 141 135 140
f 29 22 141
f 2 93 121
f 121 95 122
f 4 121 123
f 122 98 124
f 123 122 125
f 7 123 126
f 124 102 127
f 125 124 128
f 126 125 129
f 11 126 130
f 127 107 131
f 128 127 132
f 129 128 133
f 130 129 134
f 16 130 135
f 131 113 136
f 132 131 137
f 133 132 138
f 134 133 139
f 135 134 140
f 22 135 141
f 142 29 141
f 143 141 140
f 144 142 143
f 145 140 139
f 146 143 145
f 147 144 146
f 148 139 138
f 149 145 148
f 150 146 149
f 151 147 150
f 152 138 137
f 153 148 152
f 154 149 153
f 155 150 154
f 156 151 155
f 157 137 136
f 158 152 157
f 159 153 158
f 160 154 159
f 161 155 160
f 162 156 161
f 163 136 120
f 164 157 163
f 165 158 164
f 166 159 165
f 167 160 166
f 168 161 167
f 169 162 168
f 142 141 143
f 143 140 145
f 144 143 146
f 145 139 148
f 146 145 149
f 147 146 150
f 148 138 152
f 149 148 153
f 150 149 154
f 151 150 155
f 152 137 157
f 153 152 158
f 154 153 159
f 155 154 160
f 156 155 161
f 157 136 163
f 158 157 164
f 159 158 165
f 160 159 166
f 161 160 167
f 162 161 168
f 170 120 119
f 171 119 118
f 172 170 171
f 173 118 117
f 174 171 173
f 175 172 174
f 176 117 116
f 177 173 176
f 178 174 177
f 179 175 178
f 180 116 115
f 181 176 180
f 182 177 181
f 183 178 182
f 184 179 183
f 185 115 114
f 186 180 185
f 187 181 186
f 188 182 187
f 189 183 188
f 190 184 189
f 191 114 92
f 192 185 191
f 193 186 192
f 194 187 193
f 195 188 194
f 196 189 195
f 197 190 196
f 170 119 171
f 171 118 173
f 172 171 174
f 173 117 176
f 174 173 177
f 175 174 178
f 176 116 180
f 177 176 181
f 178 177 182
f 179 178 183
f 180 115 185
f 181 180 186
f 182 181 187
f 183 182 188
f 184 183 189
f 185 114 191
f 186 185 192
f 187 186 193
f 188 187 194
f 189 188 195
f 190 189 196
f 198 92 91
f 199 91 90
f 200 198 199
f 201 90 89
f 202 199 201
f 203 200 202
f 204 89 88
f 205 201 204
f 206 202 205
f 207 203 206
f 208 88 87
f 209 204 208
f 210 205 209
f 211 206 210
f 212 207 211
f 213 87 86
f 214 208 213
f 215 209 214
f 216 210 215
f 217 211 216
f 218 212 217
f 219 86 64
f 220 213 219
f 221 214 220
f 222 215 221
f 223 216 222
f 224 217 223
f 225 218 224
f 198 91 199
f 199 90 201
f 200 199 202
f 201 89 204
f 202 201 205
f 203 202 206
f 204 88 208
f 205 204 209
f 206 205 210
f 207 206 211
f 208 87 213
f 209 208 214
f 210 209 215
f 211 210 216
f 212 211 217
f 213 86 219
f 214 213 220
f 215 214 221
f 216 215 222
f 217 216 223
f 218 217 224
f 226 64 63
f 227 63 62
f 228 226 227
f 229 62 61
f 230 227 229
f 231 228 230
f 232 61 60
f 233 229 232
f 234 230 233
f 235 231 234
f 236 60 59
f 237 232 236
f 238 233 237
f 239 234 238
f 240 235 239
f 241 59 58
f 242 236 241
f 243 237 242
f 244 238 243
f 245 239 244
f 246 240 245
f 247 58 36
f 248 241 247
f 249 242 248
f 250 243 249
f 251 244 250
f 252 245 251
f 253 246 252
f 226 63 227
f 227 62 229
f 228 227 230
f 229 61 232
f 230 229 233
f 231 230 234
f 232 60 236
f 233 232 237
f 234 233 238
f 235 234 239
f 236 59 241
f 237 236 242
f 238 237 243
f 239 238 244
f 240 239 245
f 241 58 247
f 242 241 248
f 243 242 249
f 244 243 250
f 245 244 251
f 246 245 252
f 254 36 35
f 255 35 34
f 256 254 255
f 257 34 33
f 258 255 257
f 259 256 258
f 260 33 32
f 261 257 260
f 262 258 261
f 263 259 262
f 264 32 31
f 265 260 264
f 266 261 265
f 267 262 266
f 268 263 267
f 269 31 30
f 270 264 269
f 271 265 270
f 272 266 271
f 273 267 272
f 274 268 273
f 275 30 29
f 276 269 275
f 277 270 276
f 278 271 277
f 279 272 278
f 280 273 279
f 281 274 280
f 254 35 255
f 255 34 257
f 256 255 258
f 257 33 260
f 258 257 261
f 259 258 262
f 260 32 264
f 261 260 265
f 262 261 266
f 263 262 267
f 264 31 269
f 265 264 270
f 266 265 271
f 267 266 272
f 268 267 273
f 269 30 275
f 270 269 276
f 271 270 277
f 272 271 278
f 273 272 279
f 274 273 280
f 275 29 142
f 282 142 144
f 276 275 282
f 283 144 147
f 284 282 283
f 277 276 284
f 285 147 151
f 286 283 285
f 287 284 286
f 278 277 287
f 288 151 156
f 289 285 288
f 290 286 289
f 291 287 290
f 279 278 291
f 292 156 162
f 293 288 292
f 294 289 293
f 295 290 294
f 296 291 295
f 280 279 296
f 297 162 169
f 298 292 297
f 299 293 298
f 300 294 299
f 301 295 300
f 302 296 301
f 281 280 302
f 275 142 282
f 282 144 283
f 276 282 284
f 283 147 285
f 284 283 286
f 277 284 287
f 285 151 288
f 286 285 289
f 287 286 290
f 278 287 291
f 288 156 292
f 289 288 293
f 290 289 294
f 291 290 295
f 279 291 296
f 292 162 297
f 293 292 298
f 294 293 299
f 295 294 300
f 296 295 301
f 280 296 302
f 163 120 170
f 303 170 172
f 164 163 303
f 304 172 175
f 305 303 304
f 165 164 305
f 306 175 179
f 307 304 306
f 308 305 307
f 166 165 308
f 309 179 184
f 310 306 309
f 311 307 310
f 312 308 311
f 167 166 312
f 313 184 190
f 314 309 313
f 315 310 314
f 316 311 315
f 317 312 316
f 168 167 317
f 318 190 197
f 319 313 318
f 320 314 319
f 321 315 320
f 322 316 321
f 323 317 322
f 169 168 323
f 163 170 303
f 303 172 304
f 164 303 305
f 304 175 306
f 305 304 307
f 165 305 308
f 306 179 309
f 307 306 310
f 308 307 311
f 166 308 312
f 309 184 313
f 310 309 314
f 311 310 315
f 312 311 316
f 167 312 317
f 313 190 318
f 314 313 319
f 315 314 320
f 316 315 321
f 317 316 322
f 168 317 323
f 191 92 198
f 324 198 200
f 192 191 324
f 325 200 203
f 326 324 325
f 193 192 326
f 327 203 207
f 328 325 327
f 329 326 328
f 194 193 329
f 330 207 212
f 331 327 330
f 332 328 331
f 333 329 332
f 195 194 333
f 334 212 218
f 335 330 334
f 336 331 335
f 337 332 336
f 338 333 337
f 196 195 338
f 339 218 225
f 340 334 339
f 341 335 340
f 342 336 341
f 343 337 342
f 344 338 343
f 197 196 344
f 191 198 324
f 324 200 325
f 192 324 326
f 325 203 327
f 326 325 328
f 193 326 329
f 327 207 330
f 328 327 331
f 329 328 332
f 194 329 333
f 330 212 334
f 331 330 335
f 332 331 336
f 333 332 337
f 195 333 338
f 334 218 339
f 335 334 340
f 336 335 341
f 337 336 342
f 338 337 343
f 196 338 344
f 219 64 226
f 345 226 228
f 220 219 345
f 346 228 231
f 347 345 346
f 221 220 347
f 348 231 235
f 349 346 348
f 350 347 349
f 222 221 350
f 351 235 240
f 352 348 351
f 353 349 352
f 354 350 353
f 223 222 354
f 355 240 246
f 356 351 355
f 357 352 356
f 358 353 357
f 359 354 358
f 224 223 359
f 360 246 253
f 361 355 360
f 362 356 361
f 363 357 362
f 364 358 363
f 365 359 364
f 225 224 365
f 219 226 345
f 345 228 346
f 220 345 347
f 346 231 348
f 347 346 349
f 221 347 350
f 348 235 351
f 349 348 352
f 350 349 353
f 222 350 354
f 351 240 355
f 352 351 356
f 353 352 357
f 354 353 358
f 223 354 359
f 355 246 360
f 356 355 361
f 357 356 362
f 358 357 363
f 359 358 364
f 224 359 365
f 247 36 254
f 366 254 256
f 248 247 366
f 367 256 259
f 368 366 367
f 249 248 368
f 369 259 263
f 370 367 369
f 371 368 370
f 250 249 371
f 372 263 268
f 373 369 372
f 374 370 373
f 375 371 374
f 251 250 375
f 376 268 274
f 377 372 376
f 378 373 377
f 379 374 378
f 380 375 379
f 252 251 380
f 381 274 281
f 382 376 381
f 383 377 382
f 384 378 383
f 385 379 384
f 386 380 385
f 253 252 386
f 247 254 366
f 366 256 367
f 248 366 368
f 367 259 369
f 368 367 370
f 249 368 371
f 369 263 372
f 370 369 373
f 371 370 374
f 250 371 375
f 372 268 376
f 373 372 377
f 374 373 378
f 375 374 379
f 251 375 380
f 376 274 381
f 377 376 382
f 378 377 383
f 379 378 384
f 380 379 385
f 252 380 386
f 389 387 388
f 391 388 390
f 392 389 391
f 394 390 393
f 395 391 394
f 396 392 395
f 398 393 397
f 399 394 398
f 400 395 399
f 401 396 400
f 403 397 402
f 404 398 403
f 405 399 404
f 406 400 405
f 407 401 406
f 409 402 408
f 410 403 409
f 411 404 410
f 412 405 411
f 413 406 412
f 414 407 413
f 302 408 281
f 301 409 302
f 300 410 301
f 299 411 300
f 298 412 299
f 297 413 298
f 169 414 297
f 389 388 391
f 391 390 394
f 392 391 395
f 394 393 398
f 395 394 399
f 396 395 400
f 398 397 403
f 399 398 404
f 400 399 405
f 401 400 406
f 403 402 409
f 404 403 410
f 405 404 411
f 406 405 412
f 407 406 413
f 409 408 302
f 410 409 301
f 411 410 300
f 412 411 299
f 413 412 298
f 414 413 297
f 388 387 415
f 417 415 416
f 390 388 417
f 419 416 418
f 420 417 419
f 393 390 420
f 422 418 421
f 423 419 422
f 424 420 423
f 397 393 424
f 426 421 425
f 427 422 426
f 428 423 427
f 429 424 428
f 402 397 429
f 431 425 430
f 432 426 431
f 433 427 432
f 434 428 433
f 435 429 434
f 408 402 435
f 386 430 253
f 385 431 386
f 384 432 385
f 383 433 384
f 382 434 383
f 381 435 382
f 281 408 381
f 388 415 417
f 417 416 419
f 390 417 420
f 419 418 422
f 420 419 423
f 393 420 424
f 422 421 426
f 423 422 427
f 424 423 428
f 397 424 429
f 426 425 431
f 427 426 432
f 428 427 433
f 429 428 434
f 402 429 435
f 431 430 386
f 432 431 385
f 433 432 384
f 434 433 383
f 435 434 382
f 408 435 381
f 415 387 436
f 438 436 437
f 416 415 438
f 440 437 439
f 441 438 440
f 418 416 441
f 443 439 442
f 444 440 443
f 445 441 444
f 421 418 445
f 447 442 446
f 448 443 447
f 449 444 448
f 450 445 449
f 425 421 450
f 452 446 451
f 453 447 452
f 454 448 453
f 455 449 454
f 456 450 455
f 430 425 456
f 365 451 225
f 364 452 365
f 363 453 364
f 362 454 363
f 361 455 362
f 360 456 361
f 253 430 360
f 415 436 438
f 438 437 440
f 416 438 441
f 440 439 443
f 441 440 444
f 418 441 445
f 443 442 447
f 444 443 448
f 445 444 449
f 421 445 450
f 447 446 452
f 448 447 453
f 449 448 454
f 450 449 455
f 425 450 456
f 452 451 365
f 453 452 364
f 454 453 363
f 455 454 362
f 456 455 361
f 430 456 360
f 436 387 457
f 459 457 458
f 437 436 459
f 461 458 460
f 462 459 461
f 439 437 462
f 464 460 463
f 465 461 464
f 466 462 465
f 442 439 466
f 468 463 467
f 469 464 468
f 470 465 469
f 471 466 470
f 446 442 471
f 473 467 472
f 474 468 473
f 475 469 474
f 476 470 475
f 477 471 476
f 451 446 477
f 344 472 197
f 343 473 344
f 342 474 343
f 341 475 342
f 340 476 341
f 339 477 340
f 225 451 339
f 436 457 459
f 459 458 461
f 437 459 462
f 461 460 464
f 462 461 465
f 439 462 466
f 464 463 468
f 465 464 469
f 466 465 470
f 442 466 471
f 468 467 473
f 469 468 474
f 470 469 475
f 471 470 476
f 446 471 477
f 473 472 344
f 474 473 343
f 475 474 342
f 476 475 341
f 477 476 340
f 451 477 339
f 457 387 389
f 478 389 392
f 458 457 478
f 479 392 396
f 480 478 479
f 460 458 480
f 481 396 401
f 482 479 481
f 483 480 482
f 463 460 483
f 484 401 407
f 485 481 484
f 486 482 485
f 487 483 486
f 467 463 487
f 488 407 414
f 489 484 488
f 490 485 489
f 491 486 490
f 492 487 491
f 472 467 492
f 323 414 169
f 322 488 323
f 321 489 322
f 320 490 321
f 319 491 320
f 318 492 319
f 197 472 318
f 457 389 478
f 478 392 479
f 458 478 480
f 479 396 481
f 480 479 482
f 460 480 483
f 481 401 484
f 482 481 485
f 483 482 486
f 463 483 487
f 484 407 488
f 485 484 489
f 486 485 490
f 487 486 491
f 467 487 492
f 488 414 323
f 489 488 322
f 490 489 321
f 491 490 320
f 492 491 319
f 472 492 318
