# File exported by Houdini 20.5.445 (www.sidefx.com)
# 492 points
# 2940 vertices
# 980 primitives
# Bounds: [-221.047028, -70.5268707, -1077.10132] to [391.820953, 186.903976, -677.699768]
g 
v 85.3869476 58.1885338 -1077.10132
v 85.3869476 78.5494843 -1074.60876
v 131.43338 64.4804382 -1074.60876
v 85.3869476 98.4022827 -1067.19299
v 134.00589 86.3304138 -1069.7356
v 176.330536 70.6152649 -1067.19299
v 85.3869476 117.251251 -1055.03931
v 135.516815 106.604538 -1059.67969
v 179.389008 93.1998138 -1059.67969
v 218.957611 76.4399414 -1055.03931
v 85.3869476 134.625732 -1038.45105
v 136.014862 125.222794 -1044.95618
v 180.823822 113.429794 -1046.97009
v 221.340363 99.1523743 -1044.95618
v 258.250214 81.8089905 -1038.45105
v 85.3869476 150.092087 -1017.84253
v 135.516815 142.073853 -1025.81567
v 180.823822 131.66275 -1029.56226
v 222.057648 119.064072 -1029.56226
v 259.603058 104.160416 -1025.81567
v 293.227386 86.5883179 -1017.84253
v 85.3869476 163.26413 -993.727783
v 134.00589 156.962936 -1002.29944
v 179.389008 148.068619 -1007.29395
v 221.340363 136.881866 -1008.9342
v 259.603058 123.559952 -1007.29395
v 293.741791 108.157074 -1002.29944
v 323.016022 90.6587372 -993.727783
v 85.3869476 173.813004 -966.709351
v 131.43338 169.556 -974.288208
v 176.330597 162.518829 -979.448608
v 218.957611 152.877136 -982.061157
v 258.250214 140.871658 -982.061157
v 293.227386 126.802078 -979.448608
v 323.016022 111.019699 -974.288208
v 346.872406 93.9185333 -966.709473
v 113.845184 41.716198 -1074.60876
v 164.053986 47.4393196 -1069.7356
v 141.59317 25.6549416 -1067.19299
v 210.371063 53.1000595 -1059.67969
v 193.613312 31.4107018 -1059.67969
v 167.93808 10.4058361 -1055.03931
v 252.630219 58.6541939 -1044.95618
v 239.807037 37.0882912 -1046.97009
v 220.038788 16.4713249 -1044.95618
v 192.22226 -3.65046692 -1038.45105
v 290.585175 64.0606689 -1025.81567
v 281.040924 42.7225723 -1029.56226
v 265.290985 22.3375263 -1029.56226
v 243.188385 2.71545792 -1025.81567
v 213.839447 -16.1629753 -1017.84253
v 323.789948 69.2659912 -1002.29944
v 317.699615 48.3661461 -1007.29395
v 305.364288 28.1304283 -1008.9342
v 287.060577 8.71021843 -1007.29395
v 262.776276 -9.7036171 -1002.29944
v 232.249786 -26.8193855 -993.727783
v 351.474396 74.1863403 -974.28833
v 349.433746 54.0547333 -979.448608
v 340.801422 34.0262566 -982.061279
v 325.792999 14.6009464 -982.061279
v 304.783173 -3.73626709 -979.448608
v 278.296295 -20.5274696 -974.28833
v 246.993866 -35.3536301 -966.709473
v 56.9286652 41.716198 -1074.60876
v 85.3869476 23.4032707 -1069.7356
v 29.1806793 25.6549416 -1067.19299
v 112.501434 6.62769699 -1059.67969
v 58.2724457 6.62769699 -1059.67969
v 2.83573914 10.4058361 -1055.03931
v 138.120941 -8.55788422 -1044.95618
v 85.3869476 -10.0934105 -1046.97009
v 32.6528778 -8.55788422 -1044.95618
v -21.44841 -3.65046692 -1038.45105
v 162.076447 -22.0675888 -1025.81567
v 110.87088 -24.8441391 -1029.56226
v 59.9030304 -24.8441391 -1029.56226
v 8.69743347 -22.0675888 -1025.81567
v -43.0655365 -16.1629753 -1017.84253
v 184.1091 -33.739624 -1002.29944
v 134.962006 -37.762146 -1007.29395
v 85.3869476 -39.0817337 -1008.9342
v 35.8119049 -37.762146 -1007.29395
v -13.3353119 -33.739624 -1002.29944
v -61.4759674 -26.8193855 -993.727783
v 203.791534 -43.2917938 -974.28833
v 157.633148 -48.6965942 -979.448608
v 109.671051 -51.433197 -982.061279
v 61.1027985 -51.433197 -982.061279
v 13.1407623 -48.6965942 -979.448608
v -33.0176544 -43.2917938 -974.28833
v -76.220047 -35.3536301 -966.709473
v 39.3404388 64.4804382 -1074.60876
v 6.71980286 47.4393196 -1069.7356
v -5.55671692 70.6152649 -1067.19299
v -22.8394928 31.4107018 -1059.67969
v -39.5971527 53.1000595 -1059.67969
v -48.1837311 76.4399414 -1055.03931
v -49.2649384 16.4713249 -1044.95618
v -69.0331879 37.0882912 -1046.97009
v -81.856369 58.6541939 -1044.95618
v -87.4763336 81.8089905 -1038.45105
v -72.4145355 2.71545792 -1025.81567
v -94.5171356 22.3375263 -1029.56226
v -110.267044 42.7225723 -1029.56226
v -119.811234 64.0606689 -1025.81567
v -122.453537 86.5883179 -1017.84253
v -92.0024261 -9.7036171 -1002.29944
v -116.286697 8.71021843 -1007.29395
v -134.5905 28.1304283 -1008.9342
v -146.925735 48.3661461 -1007.29395
v -153.016159 69.2659912 -1002.29944
v -152.242203 90.6587372 -993.727783
v -107.522446 -20.5274696 -974.28833
v -134.009293 -3.73626709 -979.448608
v -155.01918 14.6009464 -982.061279
v -170.027634 34.0262566 -982.061279
v -178.659882 54.0547333 -979.448608
v -180.700531 74.1863403 -974.28833
v -176.098618 93.9185333 -966.709473
v 36.7679596 86.3304138 -1069.7356
v -8.61515808 93.1998138 -1059.67969
v 35.2570038 106.604538 -1059.67969
v -50.5665741 99.1523743 -1044.95618
v -10.049942 113.429794 -1046.97009
v 34.7589264 125.222794 -1044.95618
v -88.8292389 104.160416 -1025.81567
v -51.2837982 119.064072 -1029.56226
v -10.049942 131.66275 -1029.56226
v 35.2569733 142.073853 -1025.81567
v -122.967911 108.157074 -1002.29944
v -88.8292389 123.559952 -1007.29395
v -50.5665741 136.881866 -1008.9342
v -8.61515808 148.068619 -1007.29395
v 36.7679596 156.962936 -1002.29944
v -152.242142 111.019699 -974.288208
v -122.453537 126.802078 -979.448608
v -87.4763336 140.871658 -982.061157
v -48.1837616 152.877136 -982.061157
v -5.55674744 162.518829 -979.448608
v 39.3404388 169.556 -974.288208
v 56.9286346 179.736481 -942.834473
v 6.71980286 174.355545 -948.562866
v 29.1806793 182.625687 -917.325928
v -39.5971527 166.00177 -951.887329
v -22.8394623 175.701508 -921.918823
v 2.83573914 182.408463 -890.820801
v -81.856369 154.993164 -952.977051
v -69.0331268 165.80368 -924.07959
v -49.2649078 173.857895 -894.692139
v -21.44841 179.09024 -863.980469
v -119.811203 141.493118 -951.887329
v -110.266953 153.205048 -924.07959
v -94.5170441 162.321472 -895.913208
v -72.4144745 168.92749 -867.125488
v -43.0655365 172.753815 -837.475159
v -153.016068 125.549744 -948.562866
v -146.925674 137.788116 -921.918823
v -134.590378 147.787491 -894.692139
v -116.286636 155.522751 -867.125488
v -92.0023651 160.865936 -839.44928
v -61.4759369 163.557404 -811.966614
v -180.700455 107.131088 -942.834473
v -178.65979 119.121948 -917.325928
v -170.027512 129.591705 -890.820801
v -155.019089 138.2789 -863.980469
v -134.009232 144.966827 -837.475159
v -107.522415 149.488327 -811.966614
v -76.220047 151.730698 -788.091736
v -198.288681 84.3668365 -942.834473
v -201.635086 62.6225624 -948.562866
v -213.397232 74.1615753 -917.325928
v -197.055725 41.5162354 -951.887329
v -213.81337 51.2159958 -921.918823
v -221.047028 63.5575752 -890.820801
v -185.21846 21.2125206 -952.977051
v -205.703903 29.6818581 -924.07959
v -217.80986 40.0772285 -894.692139
v -221.047028 52.8195229 -863.980469
v -166.416641 1.86035156 -951.887329
v -189.953949 9.29681015 -924.07959
v -205.703903 18.4132633 -895.913208
v -213.813324 29.294754 -867.125488
v -213.397232 42.2154884 -837.475159
v -140.621384 -16.3469963 -948.562866
v -166.416641 -10.1292496 -921.918823
v -185.218399 -2.10564423 -894.692139
v -197.055634 7.6054287 -867.125488
v -201.635056 18.9692364 -839.44928
v -198.288681 32.0102692 -811.966614
v -107.522415 -33.1112595 -942.834473
v -134.009232 -28.5897217 -917.325928
v -155.019089 -21.9018402 -890.820801
v -170.027512 -13.2145844 -863.980469
v -178.65979 -2.74484634 -837.475159
v -180.700455 9.24598122 -811.966614
v -176.098618 22.4585686 -788.091736
v -61.4759369 -47.180336 -942.834473
v -13.3352814 -55.2380829 -948.562866
v -43.0655365 -56.3767319 -917.325928
v 35.8119049 -59.9287262 -951.887329
v 8.69746399 -63.633728 -921.918823
v -21.44841 -62.71315 -890.820801
v 85.3869476 -61.4685669 -952.977051
v 59.9030304 -67.0446548 -924.07959
v 32.6528778 -68.6742096 -894.692139
v 2.83573914 -66.031395 -863.980469
v 134.962006 -59.9287262 -951.887329
v 110.87088 -67.0446548 -924.07959
v 85.3869476 -70.5268707 -895.913208
v 58.2724457 -70.4077606 -867.125488
v 29.1806793 -66.248642 -837.475159
v 184.1091 -55.2380829 -948.562866
v 162.076447 -63.633728 -921.918823
v 138.120941 -68.6742096 -894.692139
v 112.501434 -70.4077606 -867.125488
v 85.3869476 -68.7276917 -839.44928
v 56.9286346 -63.3593903 -811.966675
v 232.249786 -47.180336 -942.834473
v 213.839386 -56.3767319 -917.325928
v 192.22226 -62.71315 -890.820801
v 167.93808 -66.031395 -863.980469
v 141.59317 -66.248642 -837.475159
v 113.845184 -63.3593903 -811.966675
v 85.3869476 -57.4359131 -788.091736
v 278.296295 -33.1112595 -942.834473
v 311.395233 -16.3469963 -948.562866
v 304.783051 -28.5897217 -917.325928
v 337.19046 1.86035156 -951.887329
v 337.19046 -10.1292496 -921.918823
v 325.792938 -21.9018402 -890.820801
v 355.99234 21.2125206 -952.977051
v 360.727753 9.29681015 -924.07959
v 355.992218 -2.10564423 -894.692139
v 340.801361 -13.2145844 -863.980469
v 367.829498 41.5162354 -951.887329
v 376.477753 29.6818581 -924.07959
v 376.477753 18.4132633 -895.913208
v 367.829498 7.6054287 -867.125488
v 349.433624 -2.74484634 -837.475159
v 372.408966 62.6225624 -948.562866
v 384.587189 51.2159958 -921.918823
v 388.58371 40.0772285 -894.692139
v 384.587189 29.294754 -867.125488
v 372.408844 18.9692364 -839.44928
v 351.474396 9.24598122 -811.966614
v 369.062531 84.3668365 -942.834473
v 384.171051 74.1615753 -917.325928
v 391.820953 63.5575752 -890.820801
v 391.820953 52.8195229 -863.980469
v 384.171051 42.2154884 -837.475159
v 369.062531 32.0102692 -811.966614
v 346.872406 22.4585686 -788.091736
v 351.474396 107.131088 -942.834473
v 323.789886 125.549744 -948.562866
v 349.433624 119.121948 -917.325928
v 290.585052 141.493118 -951.887329
v 317.699493 137.788116 -921.918823
v 340.801361 129.591705 -890.820801
v 252.630157 154.993164 -952.977051
v 281.040863 153.205048 -924.07959
v 305.364227 147.787491 -894.692139
v 325.792938 138.2789 -863.980469
v 210.371063 166.00177 -951.887329
v 239.806976 165.80368 -924.07959
v 265.290863 162.321472 -895.913208
v 287.060455 155.522751 -867.125488
v 304.783051 144.966827 -837.475159
v 164.054047 174.355545 -948.562866
v 193.613312 175.701508 -921.918823
v 220.038788 173.857895 -894.692139
v 243.188263 168.92749 -867.125488
v 262.776215 160.865936 -839.44928
v 278.296295 149.488327 -811.966614
v 113.845184 179.736481 -942.834473
v 141.59317 182.625687 -917.325928
v 167.93808 182.408463 -890.820801
v 192.22226 179.09024 -863.980469
v 213.839386 172.753815 -837.475159
v 232.249786 163.557404 -811.966614
v 246.993866 151.730698 -788.091736
v 85.3869476 185.104767 -915.351929
v 58.2724457 186.784836 -887.675659
v 112.501434 186.784836 -887.675659
v 32.6528778 185.051285 -860.108887
v 85.3869476 186.903976 -858.887817
v 138.120941 185.051285 -860.108887
v 8.69746399 180.010788 -832.882324
v 59.9030304 183.421768 -830.721497
v 110.87088 183.421768 -830.721497
v 162.076447 180.010788 -832.882324
v -13.3352814 171.615158 -806.238159
v 35.8119049 176.305832 -802.913818
v 85.3869476 177.845657 -801.824036
v 134.962006 176.305832 -802.913818
v 184.1091 171.615158 -806.238159
v -33.0176544 159.668839 -780.512817
v 13.1407623 165.073669 -775.352539
v 61.1027985 167.810287 -772.739868
v 109.671051 167.810287 -772.739868
v 157.633148 165.073669 -775.352539
v 203.791534 159.668839 -780.512817
v -201.635056 97.4078674 -915.351929
v -213.813324 87.0823059 -887.675659
v -197.055634 108.771667 -887.675659
v -217.80986 76.2998657 -860.108887
v -205.703903 97.9637909 -858.887817
v -185.218399 118.482697 -860.108887
v -213.81337 65.1610565 -832.882324
v -205.703903 86.6952057 -830.721497
v -189.953949 107.080246 -830.721497
v -166.416611 126.506287 -832.882324
v -201.635086 53.7544975 -806.238159
v -197.055725 74.8608246 -802.913757
v -185.21846 95.1646118 -801.824036
v -166.416641 114.516708 -802.913757
v -140.621384 132.724106 -806.238159
v -180.700531 42.1906853 -780.512817
v -178.659882 62.3223686 -775.352539
v -170.027634 82.3508453 -772.739807
v -155.01918 101.776154 -772.739807
v -134.009293 120.113327 -775.352539
v -107.522446 136.904587 -780.512817
v -92.0023651 -44.4888306 -915.351929
v -72.4144745 -52.5503693 -887.675659
v -116.286636 -39.1456947 -887.675659
v -49.2649078 -57.4808121 -860.108887
v -94.5170441 -45.9444122 -858.887817
v -134.590378 -31.4103775 -860.108887
v -22.8394623 -59.3244476 -832.882324
v -69.0331268 -49.42659 -830.721497
v -110.266953 -36.8279648 -830.721497
v -146.925674 -21.4110565 -832.882324
v 6.71980286 -57.9784775 -806.23822
v -39.5971222 -49.624733 -802.913818
v -81.856369 -38.616066 -801.824036
v -119.811203 -25.1160164 -802.913818
v -153.016068 -9.17264175 -806.23822
v 39.3404388 -53.178894 -780.512878
v -5.55674744 -46.1417694 -775.3526
v -48.1837616 -36.5000763 -772.739868
v -87.4763336 -24.4946098 -772.739868
v -122.453537 -10.4250183 -775.3526
v -152.242142 5.35739899 -780.512878
v 262.776276 -44.4888306 -915.351929
v 287.060455 -39.1456566 -887.675659
v 243.188263 -52.5503693 -887.675659
v 305.364227 -31.4103775 -860.108887
v 265.290863 -45.9444122 -858.887817
v 220.038788 -57.4808121 -860.108887
v 317.699493 -21.4110565 -832.882324
v 281.040863 -36.8279648 -830.721497
v 239.806976 -49.42659 -830.721497
v 193.613312 -59.3244476 -832.882324
v 323.789886 -9.17264175 -806.23822
v 290.585052 -25.1160164 -802.913818
v 252.630157 -38.616066 -801.824036
v 210.371063 -49.624733 -802.913818
v 164.054047 -57.9784775 -806.23822
v 323.016022 5.35739899 -780.512878
v 293.227386 -10.4250183 -775.3526
v 258.250214 -24.4946098 -772.739868
v 218.957611 -36.5000763 -772.739868
v 176.330597 -46.1417694 -775.3526
v 131.43338 -53.178894 -780.512878
v 372.408844 97.4078674 -915.351929
v 367.829498 108.771667 -887.675659
v 384.587189 87.0823059 -887.675659
v 355.992218 118.482742 -860.108887
v 376.477753 97.9637909 -858.887817
v 388.58371 76.2998657 -860.108887
v 337.19046 126.506287 -832.882324
v 360.727753 107.080246 -830.721497
v 376.477753 86.6952057 -830.721497
v 384.587189 65.1610565 -832.882324
v 311.395233 132.724106 -806.238159
v 337.19046 114.516708 -802.913757
v 355.99234 95.1646118 -801.824036
v 367.829498 74.8608246 -802.913757
v 372.408966 53.7544975 -806.238159
v 278.296295 136.904587 -780.512817
v 304.783173 120.113327 -775.352539
v 325.792999 101.776154 -772.739807
v 340.801422 82.3508453 -772.739807
v 349.433746 62.3223686 -775.352539
v 351.474396 42.1906853 -780.512817
v 85.3869476 58.1885338 -677.699768
v 113.845184 74.6609039 -680.192383
v 56.9286652 74.6609039 -680.192383
v 141.59317 90.7221527 -687.608154
v 85.3869476 92.9737854 -685.065552
v 29.1806793 90.7221527 -687.608154
v 167.93808 105.971222 -699.76178
v 112.501434 109.749405 -695.121399
v 58.2724457 109.749405 -695.121399
v 2.83573914 105.971222 -699.76178
v 192.22226 120.027527 -716.350037
v 138.120941 124.935028 -709.844788
v 85.3869476 126.470474 -707.831055
v 32.6528778 124.935028 -709.844788
v -21.44841 120.027527 -716.350037
v 213.839447 132.540085 -736.958618
v 162.076447 138.444656 -728.985474
v 110.87088 141.221237 -725.238831
v 59.9030304 141.221237 -725.238831
v 8.69743347 138.444687 -728.985474
v -43.0655365 132.540085 -736.958618
v 232.249786 143.196457 -761.073303
v 184.1091 150.116684 -752.501587
v 134.962006 154.139236 -747.507141
v 85.3869476 155.458786 -745.866882
v 35.8119049 154.139236 -747.507141
v -13.3353119 150.116684 -752.501587
v -61.4759674 143.196457 -761.073303
v 131.43338 51.8966141 -680.192383
v 176.330536 45.7617836 -687.608154
v 164.053986 68.9377747 -685.065552
v 218.957611 39.9371529 -699.76178
v 210.371063 63.2770348 -695.121399
v 193.613312 84.9663544 -695.121399
v 258.250214 34.5681458 -716.350037
v 252.630219 57.7228584 -709.844788
v 239.807037 79.2888031 -707.831055
v 220.038788 99.9057312 -709.844788
v 293.227386 29.7887421 -736.958618
v 290.585175 52.3163948 -728.985474
v 281.040924 73.654541 -725.238831
v 265.290985 94.0395355 -725.238831
v 243.188385 113.661636 -728.985474
v 323.016022 25.7183533 -761.073303
v 323.789948 47.1110725 -752.501587
v 317.699615 68.0109558 -747.507141
v 305.364288 88.2466736 -745.866882
v 287.060577 107.66684 -747.507141
v 262.776276 126.080688 -752.501587
v 85.3869476 37.8275757 -680.192383
v 85.3869476 17.9747715 -687.608154
v 134.00589 30.0466881 -685.065552
v 85.3869476 -0.874153137 -699.76178
v 135.516815 9.77252579 -695.121399
v 179.389008 23.1772804 -695.121399
v 85.3869476 -18.2486649 -716.350037
v 136.014862 -8.84574127 -709.844849
v 180.823822 2.94730377 -707.831055
v 221.340363 17.2246895 -709.844788
v 85.3869476 -33.7150192 -736.958679
v 135.516815 -25.6967926 -728.985474
v 180.823822 -15.2856369 -725.238892
v 222.057648 -2.68701363 -725.238892
v 259.603058 12.2166023 -728.985474
v 85.3869476 -46.8870239 -761.073303
v 134.00589 -40.5858536 -752.501587
v 179.389008 -31.691555 -747.507141
v 221.340363 -20.5047646 -745.866943
v 259.603058 -7.18287849 -747.507141
v 293.741791 8.21994781 -752.501587
v 39.3404388 51.8966141 -680.192383
v -5.55671692 45.7617836 -687.608154
v 36.7679596 30.0466881 -685.065552
v -48.1837311 39.9371529 -699.76178
v -8.61515808 23.1772804 -695.121399
v 35.2570038 9.77252579 -695.121399
v -87.4763336 34.5681458 -716.350037
v -50.5665741 17.2246895 -709.844788
v -10.049942 2.94730377 -707.831055
v 34.7589264 -8.84574127 -709.844849
v -122.453537 29.7887421 -736.958618
v -88.8292389 12.2166023 -728.985474
v -51.2837982 -2.68701363 -725.238892
v -10.049942 -15.2856369 -725.238892
v 35.2569733 -25.6967926 -728.985535
v -152.242203 25.7183533 -761.073303
v -122.967911 8.21994781 -752.501587
v -88.8292389 -7.18287849 -747.507141
v -50.5665741 -20.5047646 -745.866943
v -8.61515808 -31.691555 -747.507141
v 36.7679596 -40.5858536 -752.501587
v 6.71980286 68.9377747 -685.065552
v -22.8394928 84.9663544 -695.121399
v -39.5971527 63.2770348 -695.121399
v -49.2649384 99.9057312 -709.844788
v -69.0331879 79.2888031 -707.831055
v -81.856369 57.7228584 -709.844788
v -72.4145355 113.661636 -728.985474
v -94.5171356 94.0395355 -725.238831
v -110.267044 73.654541 -725.238831
v -119.811234 52.3163948 -728.985474
v -92.0024261 126.080688 -752.501587
v -116.286697 107.66684 -747.507141
v -134.5905 88.2466736 -745.866882
v -146.925735 68.0109558 -747.507141
v -153.016159 47.1110725 -752.501587
g 
f 3 1 2
f 5 2 4
f 6 3 5
f 8 4 7
f 9 5 8
f 10 6 9
f 12 7 11
f 13 8 12
f 14 9 13
f 15 10 14
f 17 11 16
f 18 12 17
f 19 13 18
f 20 14 19
f 21 15 20
f 23 16 22
f 24 17 23
f 25 18 24
f 26 19 25
f 27 20 26
f 28 21 27
f 30 22 29
f 31 23 30
f 32 24 31
f 33 25 32
f 34 26 33
f 35 27 34
f 36 28 35
f 3 2 5
f 5 4 8
f 6 5 9
f 8 7 12
f 9 8 13
f 10 9 14
f 12 11 17
f 13 12 18
f 14 13 19
f 15 14 20
f 17 16 23
f 18 17 24
f 19 18 25
f 20 19 26
f 21 20 27
f 23 22 30
f 24 23 31
f 25 24 32
f 26 25 33
f 27 26 34
f 28 27 35
f 37 1 3
f 38 3 6
f 39 37 38
f 40 6 10
f 41 38 40
f 42 39 41
f 43 10 15
f 44 40 43
f 45 41 44
f 46 42 45
f 47 15 21
f 48 43 47
f 49 44 48
f 50 45 49
f 51 46 50
f 52 21 28
f 53 47 52
f 54 48 53
f 55 49 54
f 56 50 55
f 57 51 56
f 58 28 36
f 59 52 58
f 60 53 59
f 61 54 60
f 62 55 61
f 63 56 62
f 64 57 63
f 37 3 38
f 38 6 40
f 39 38 41
f 40 10 43
f 41 40 44
f 42 41 45
f 43 15 47
f 44 43 48
f 45 44 49
f 46 45 50
f 47 21 52
f 48 47 53
f 49 48 54
f 50 49 55
f 51 50 56
f 52 28 58
f 53 52 59
f 54 53 60
f 55 54 61
f 56 55 62
f 57 56 63
f 65 1 37
f 66 37 39
f 67 65 66
f 68 39 42
f 69 66 68
f 70 67 69
f 71 42 46
f 72 68 71
f 73 69 72
f 74 70 73
f 75 46 51
f 76 71 75
f 77 72 76
f 78 73 77
f 79 74 78
f 80 51 57
f 81 75 80
f 82 76 81
f 83 77 82
f 84 78 83
f 85 79 84
f 86 57 64
f 87 80 86
f 88 81 87
f 89 82 88
f 90 83 89
f 91 84 90
f 92 85 91
f 65 37 66
f 66 39 68
f 67 66 69
f 68 42 71
f 69 68 72
f 70 69 73
f 71 46 75
f 72 71 76
f 73 72 77
f 74 73 78
f 75 51 80
f 76 75 81
f 77 76 82
f 78 77 83
f 79 78 84
f 80 57 86
f 81 80 87
f 82 81 88
f 83 82 89
f 84 83 90
f 85 84 91
f 93 1 65
f 94 65 67
f 95 93 94
f 96 67 70
f 97 94 96
f 98 95 97
f 99 70 74
f 100 96 99
f 101 97 100
f 102 98 101
f 103 74 79
f 104 99 103
f 105 100 104
f 106 101 105
f 107 102 106
f 108 79 85
f 109 103 108
f 110 104 109
f 111 105 110
f 112 106 111
f 113 107 112
f 114 85 92
f 115 108 114
f 116 109 115
f 117 110 116
f 118 111 117
f 119 112 118
f 120 113 119
f 93 65 94
f 94 67 96
f 95 94 97
f 96 70 99
f 97 96 100
f 98 97 101
f 99 74 103
f 100 99 104
f 101 100 105
f 102 101 106
f 103 79 108
f 104 103 109
f 105 104 110
f 106 105 111
f 107 106 112
f 108 85 114
f 109 108 115
f 110 109 116
f 111 110 117
f 112 111 118
f 113 112 119
f 2 1 93
f 121 93 95
f 4 2 121
f 122 95 98
f 123 121 122
f 7 4 123
f 124 98 102
f 125 122 124
f 126 123 125
f 11 7 126
f 127 102 107
f 128 124 127
f 129 125 128
f 130 126 129
f 16 11 130
f 131 107 113
f 132 127 131
f 133 128 132
f 134 129 133
f 135 130 134
f 22 16 135
f 136 113 120
f 137 131 136
f 138 132 137
f 139 133 138
f 140 134 139
f 141 135 140
f 29 22 141
f 2 93 121
f 121 95 122
f 4 121 123
f 122 98 124
f 123 122 125
f 7 123 126
f 124 102 127
f 125 124 128
f 126 125 129
f 11 126 130
f 127 107 131
f 128 127 132
f 129 128 133
f 130 129 134
f 16 130 135
f 131 113 136
f 132 131 137
f 133 132 138
f 134 133 139
f 135 134 140
f 22 135 141
f 142 29 141
f 143 141 140
f 144 142 143
f 145 140 139
f 146 143 145
f 147 144 146
f 148 139 138
f 149 145 148
f 150 146 149
f 151 147 150
f 152 138 137
f 153 148 152
f 154 149 153
f 155 150 154
f 156 151 155
f 157 137 136
f 158 152 157
f 159 153 158
f 160 154 159
f 161 155 160
f 162 156 161
f 163 136 120
f 164 157 163
f 165 158 164
f 166 159 165
f 167 160 166
f 168 161 167
f 169 162 168
f 142 141 143
f 143 140 145
f 144 143 146
f 145 139 148
f 146 145 149
f 147 146 150
f 148 138 152
f 149 148 153
f 150 149 154
f 151 150 155
f 152 137 157
f 153 152 158
f 154 153 159
f 155 154 160
f 156 155 161
f 157 136 163
f 158 157 164
f 159 158 165
f 160 159 166
f 161 160 167
f 162 161 168
f 170 120 119
f 171 119 118
f 172 170 171
f 173 118 117
f 174 171 173
f 175 172 174
f 176 117 116
f 177 173 176
f 178 174 177
f 179 175 178
f 180 116 115
f 181 176 180
f 182 177 181
f 183 178 182
f 184 179 183
f 185 115 114
f 186 180 185
f 187 181 186
f 188 182 187
f 189 183 188
f 190 184 189
f 191 114 92
f 192 185 191
f 193 186 192
f 194 187 193
f 195 188 194
f 196 189 195
f 197 190 196
f 170 119 171
f 171 118 173
f 172 171 174
f 173 117 176
f 174 173 177
f 175 174 178
f 176 116 180
f 177 176 181
f 178 177 182
f 179 178 183
f 180 115 185
f 181 180 186
f 182 181 187
f 183 182 188
f 184 183 189
f 185 114 191
f 186 185 192
f 187 186 193
f 188 187 194
f 189 188 195
f 190 189 196
f 198 92 91
f 199 91 90
f 200 198 199
f 201 90 89
f 202 199 201
f 203 200 202
f 204 89 88
f 205 201 204
f 206 202 205
f 207 203 206
f 208 88 87
f 209 204 208
f 210 205 209
f 211 206 210
f 212 207 211
f 213 87 86
f 214 208 213
f 215 209 214
f 216 210 215
f 217 211 216
f 218 212 217
f 219 86 64
f 220 213 219
f 221 214 220
f 222 215 221
f 223 216 222
f 224 217 223
f 225 218 224
f 198 91 199
f 199 90 201
f 200 199 202
f 201 89 204
f 202 201 205
f 203 202 206
f 204 88 208
f 205 204 209
f 206 205 210
f 207 206 211
f 208 87 213
f 209 208 214
f 210 209 215
f 211 210 216
f 212 211 217
f 213 86 219
f 214 213 220
f 215 214 221
f 216 215 222
f 217 216 223
f 218 217 224
f 226 64 63
f 227 63 62
f 228 226 227
f 229 62 61
f 230 227 229
f 231 228 230
f 232 61 60
f 233 229 232
f 234 230 233
f 235 231 234
f 236 60 59
f 237 232 236
f 238 233 237
f 239 234 238
f 240 235 239
f 241 59 58
f 242 236 241
f 243 237 242
f 244 238 243
f 245 239 244
f 246 240 245
f 247 58 36
f 248 241 247
f 249 242 248
f 250 243 249
f 251 244 250
f 252 245 251
f 253 246 252
f 226 63 227
f 227 62 229
f 228 227 230
f 229 61 232
f 230 229 233
f 231 230 234
f 232 60 236
f 233 232 237
f 234 233 238
f 235 234 239
f 236 59 241
f 237 236 242
f 238 237 243
f 239 238 244
f 240 239 245
f 241 58 247
f 242 241 248
f 243 242 249
f 244 243 250
f 245 244 251
f 246 245 252
f 254 36 35
f 255 35 34
f 256 254 255
f 257 34 33
f 258 255 257
f 259 256 258
f 260 33 32
f 261 257 260
f 262 258 261
f 263 259 262
f 264 32 31
f 265 260 264
f 266 261 265
f 267 262 266
f 268 263 267
f 269 31 30
f 270 264 269
f 271 265 270
f 272 266 271
f 273 267 272
f 274 268 273
f 275 30 29
f 276 269 275
f 277 270 276
f 278 271 277
f 279 272 278
f 280 273 279
f 281 274 280
f 254 35 255
f 255 34 257
f 256 255 258
f 257 33 260
f 258 257 261
f 259 258 262
f 260 32 264
f 261 260 265
f 262 261 266
f 263 262 267
f 264 31 269
f 265 264 270
f 266 265 271
f 267 266 272
f 268 267 273
f 269 30 275
f 270 269 276
f 271 270 277
f 272 271 278
f 273 272 279
f 274 273 280
f 275 29 142
f 282 142 144
f 276 275 282
f 283 144 147
f 284 282 283
f 277 276 284
f 285 147 151
f 286 283 285
f 287 284 286
f 278 277 287
f 288 151 156
f 289 285 288
f 290 286 289
f 291 287 290
f 279 278 291
f 292 156 162
f 293 288 292
f 294 289 293
f 295 290 294
f 296 291 295
f 280 279 296
f 297 162 169
f 298 292 297
f 299 293 298
f 300 294 299
f 301 295 300
f 302 296 301
f 281 280 302
f 275 142 282
f 282 144 283
f 276 282 284
f 283 147 285
f 284 283 286
f 277 284 287
f 285 151 288
f 286 285 289
f 287 286 290
f 278 287 291
f 288 156 292
f 289 288 293
f 290 289 294
f 291 290 295
f 279 291 296
f 292 162 297
f 293 292 298
f 294 293 299
f 295 294 300
f 296 295 301
f 280 296 302
f 163 120 170
f 303 170 172
f 164 163 303
f 304 172 175
f 305 303 304
f 165 164 305
f 306 175 179
f 307 304 306
f 308 305 307
f 166 165 308
f 309 179 184
f 310 306 309
f 311 307 310
f 312 308 311
f 167 166 312
f 313 184 190
f 314 309 313
f 315 310 314
f 316 311 315
f 317 312 316
f 168 167 317
f 318 190 197
f 319 313 318
f 320 314 319
f 321 315 320
f 322 316 321
f 323 317 322
f 169 168 323
f 163 170 303
f 303 172 304
f 164 303 305
f 304 175 306
f 305 304 307
f 165 305 308
f 306 179 309
f 307 306 310
f 308 307 311
f 166 308 312
f 309 184 313
f 310 309 314
f 311 310 315
f 312 311 316
f 167 312 317
f 313 190 318
f 314 313 319
f 315 314 320
f 316 315 321
f 317 316 322
f 168 317 323
f 191 92 198
f 324 198 200
f 192 191 324
f 325 200 203
f 326 324 325
f 193 192 326
f 327 203 207
f 328 325 327
f 329 326 328
f 194 193 329
f 330 207 212
f 331 327 330
f 332 328 331
f 333 329 332
f 195 194 333
f 334 212 218
f 335 330 334
f 336 331 335
f 337 332 336
f 338 333 337
f 196 195 338
f 339 218 225
f 340 334 339
f 341 335 340
f 342 336 341
f 343 337 342
f 344 338 343
f 197 196 344
f 191 198 324
f 324 200 325
f 192 324 326
f 325 203 327
f 326 325 328
f 193 326 329
f 327 207 330
f 328 327 331
f 329 328 332
f 194 329 333
f 330 212 334
f 331 330 335
f 332 331 336
f 333 332 337
f 195 333 338
f 334 218 339
f 335 334 340
f 336 335 341
f 337 336 342
f 338 337 343
f 196 338 344
f 219 64 226
f 345 226 228
f 220 219 345
f 346 228 231
f 347 345 346
f 221 220 347
f 348 231 235
f 349 346 348
f 350 347 349
f 222 221 350
f 351 235 240
f 352 348 351
f 353 349 352
f 354 350 353
f 223 222 354
f 355 240 246
f 356 351 355
f 357 352 356
f 358 353 357
f 359 354 358
f 224 223 359
f 360 246 253
f 361 355 360
f 362 356 361
f 363 357 362
f 364 358 363
f 365 359 364
f 225 224 365
f 219 226 345
f 345 228 346
f 220 345 347
f 346 231 348
f 347 346 349
f 221 347 350
f 348 235 351
f 349 348 352
f 350 349 353
f 222 350 354
f 351 240 355
f 352 351 356
f 353 352 357
f 354 353 358
f 223 354 359
f 355 246 360
f 356 355 361
f 357 356 362
f 358 357 363
f 359 358 364
f 224 359 365
f 247 36 254
f 366 254 256
f 248 247 366
f 367 256 259
f 368 366 367
f 249 248 368
f 369 259 263
f 370 367 369
f 371 368 370
f 250 249 371
f 372 263 268
f 373 369 372
f 374 370 373
f 375 371 374
f 251 250 375
f 376 268 274
f 377 372 376
f 378 373 377
f 379 374 378
f 380 375 379
f 252 251 380
f 381 274 281
f 382 376 381
f 383 377 382
f 384 378 383
f 385 379 384
f 386 380 385
f 253 252 386
f 247 254 366
f 366 256 367
f 248 366 368
f 367 259 369
f 368 367 370
f 249 368 371
f 369 263 372
f 370 369 373
f 371 370 374
f 250 371 375
f 372 268 376
f 373 372 377
f 374 373 378
f 375 374 379
f 251 375 380
f 376 274 381
f 377 376 382
f 378 377 383
f 379 378 384
f 380 379 385
f 252 380 386
f 389 387 388
f 391 388 390
f 392 389 391
f 394 390 393
f 395 391 394
f 396 392 395
f 398 393 397
f 399 394 398
f 400 395 399
f 401 396 400
f 403 397 402
f 404 398 403
f 405 399 404
f 406 400 405
f 407 401 406
f 409 402 408
f 410 403 409
f 411 404 410
f 412 405 411
f 413 406 412
f 414 407 413
f 302 408 281
f 301 409 302
f 300 410 301
f 299 411 300
f 298 412 299
f 297 413 298
f 169 414 297
f 389 388 391
f 391 390 394
f 392 391 395
f 394 393 398
f 395 394 399
f 396 395 400
f 398 397 403
f 399 398 404
f 400 399 405
f 401 400 406
f 403 402 409
f 404 403 410
f 405 404 411
f 406 405 412
f 407 406 413
f 409 408 302
f 410 409 301
f 411 410 300
f 412 411 299
f 413 412 298
f 414 413 297
f 388 387 415
f 417 415 416
f 390 388 417
f 419 416 418
f 420 417 419
f 393 390 420
f 422 418 421
f 423 419 422
f 424 420 423
f 397 393 424
f 426 421 425
f 427 422 426
f 428 423 427
f 429 424 428
f 402 397 429
f 431 425 430
f 432 426 431
f 433 427 432
f 434 428 433
f 435 429 434
f 408 402 435
f 386 430 253
f 385 431 386
f 384 432 385
f 383 433 384
f 382 434 383
f 381 435 382
f 281 408 381
f 388 415 417
f 417 416 419
f 390 417 420
f 419 418 422
f 420 419 423
f 393 420 424
f 422 421 426
f 423 422 427
f 424 423 428
f 397 424 429
f 426 425 431
f 427 426 432
f 428 427 433
f 429 428 434
f 402 429 435
f 431 430 386
f 432 431 385
f 433 432 384
f 434 433 383
f 435 434 382
f 408 435 381
f 415 387 436
f 438 436 437
f 416 415 438
f 440 437 439
f 441 438 440
f 418 416 441
f 443 439 442
f 444 440 443
f 445 441 444
f 421 418 445
f 447 442 446
f 448 443 447
f 449 444 448
f 450 445 449
f 425 421 450
f 452 446 451
f 453 447 452
f 454 448 453
f 455 449 454
f 456 450 455
f 430 425 456
f 365 451 225
f 364 452 365
f 363 453 364
f 362 454 363
f 361 455 362
f 360 456 361
f 253 430 360
f 415 436 438
f 438 437 440
f 416 438 441
f 440 439 443
f 441 440 444
f 418 441 445
f 443 442 447
f 444 443 448
f 445 444 449
f 421 445 450
f 447 446 452
f 448 447 453
f 449 448 454
f 450 449 455
f 425 450 456
f 452 451 365
f 453 452 364
f 454 453 363
f 455 454 362
f 456 455 361
f 430 456 360
f 436 387 457
f 459 457 458
f 437 436 459
f 461 458 460
f 462 459 461
f 439 437 462
f 464 460 463
f 465 461 464
f 466 462 465
f 442 439 466
f 468 463 467
f 469 464 468
f 470 465 469
f 471 466 470
f 446 442 471
f 473 467 472
f 474 468 473
f 475 469 474
f 476 470 475
f 477 471 476
f 451 446 477
f 344 472 197
f 343 473 344
f 342 474 343
f 341 475 342
f 340 476 341
f 339 477 340
f 225 451 339
f 436 457 459
f 459 458 461
f 437 459 462
f 461 460 464
f 462 461 465
f 439 462 466
f 464 463 468
f 465 464 469
f 466 465 470
f 442 466 471
f 468 467 473
f 469 468 474
f 470 469 475
f 471 470 476
f 446 471 477
f 473 472 344
f 474 473 343
f 475 474 342
f 476 475 341
f 477 476 340
f 451 477 339
f 457 387 389
f 478 389 392
f 458 457 478
f 479 392 396
f 480 478 479
f 460 458 480
f 481 396 401
f 482 479 481
f 483 480 482
f 463 460 483
f 484 401 407
f 485 481 484
f 486 482 485
f 487 483 486
f 467 463 487
f 488 407 414
f 489 484 488
f 490 485 489
f 491 486 490
f 492 487 491
f 472 467 492
f 323 414 169
f 322 488 323
f 321 489 322
f 320 490 321
f 319 491 320
f 318 492 319
f 197 472 318
f 457 389 478
f 478 392 479
f 458 478 480
f 479 396 481
f 480 479 482
f 460 480 483
f 481 401 484
f 482 481 485
f 483 482 486
f 463 483 487
f 484 407 488
f 485 484 489
f 486 485 490
f 487 486 491
f 467 487 492
f 488 414 323
f 489 488 322
f 490 489 321
f 491 490 320
f 492 491 319
f 472 492 318
