# File exported by Houdini 20.5.445 (www.sidefx.com)
# 492 points
# 2940 vertices
# 980 primitives
# Bounds: [-146.507584, -152.937103, -1038.28564] to [317.281525, 269.314209, -716.515442]
g 
v 85.3869476 58.1885719 -1038.28564
v 85.3869476 91.5856628 -1036.27734
v 120.232758 68.5088959 -1036.27734
v 85.3869476 124.149185 -1030.3031
v 122.179413 104.348335 -1032.35156
v 154.208771 78.5715637 -1030.3031
v 85.3869476 155.066223 -1020.51172
v 123.322845 137.602997 -1024.25012
v 156.523224 115.615829 -1024.25012
v 186.466888 88.1254807 -1020.51172
v 85.3869476 183.564789 -1007.14777
v 123.699799 168.141571 -1012.38849
v 157.609039 148.798157 -1014.01093
v 188.27005 125.37957 -1012.38849
v 216.201569 96.9319992 -1007.14777
v 85.3869476 208.933502 -990.544739
v 123.322906 195.781586 -996.968262
v 157.609039 178.704742 -999.986511
v 188.812775 158.039764 -999.986511
v 217.225372 133.594025 -996.968262
v 242.670685 104.771378 -990.544861
v 85.3869476 230.53891 -971.11731
v 122.179413 220.2034 -978.022888
v 156.523224 205.614502 -982.046631
v 188.27005 187.26535 -983.368103
v 217.225372 165.414124 -982.046631
v 243.059906 140.149536 -978.022888
v 265.213287 111.447823 -971.11731
v 85.3869476 247.841766 -949.350403
v 120.232758 240.859192 -955.456177
v 154.208771 229.316467 -959.613403
v 186.466888 213.501709 -961.718323
v 216.201569 193.809723 -961.718323
v 242.670685 170.732056 -959.613403
v 265.213287 144.84491 -955.456177
v 283.266693 116.794754 -949.350525
v 106.922821 31.1697426 -1036.27734
v 144.918427 40.5571022 -1032.35156
v 127.921173 4.8252449 -1030.3031
v 179.968903 49.842144 -1024.25012
v 167.287506 14.2662001 -1024.25012
v 147.857819 -20.1870613 -1020.51172
v 211.948639 58.9523888 -1012.38849
v 202.24472 23.5788803 -1014.01093
v 187.285065 -10.2381325 -1012.38849
v 166.234833 -43.2429276 -1007.14777
v 240.671051 67.8203583 -996.968262
v 233.448517 32.820446 -999.986694
v 221.529694 -0.616088867 -999.986694
v 204.803497 -32.801281 -996.968262
v 182.593719 -63.766655 -990.544861
v 265.79892 76.3583832 -978.022888
v 261.190094 42.0773277 -982.046631
v 251.855316 8.88566113 -983.368103
v 238.003937 -22.9682922 -982.046631
v 219.626678 -53.1715469 -978.022888
v 196.525787 -81.2457809 -971.11731
v 286.749176 84.4290009 -955.456177
v 285.204926 51.4081116 -959.613403
v 278.672394 18.556303 -961.718445
v 267.314789 -13.3060913 -961.718445
v 251.415497 -43.3835983 -959.613403
v 231.37149 -70.9255219 -955.456177
v 207.683319 -95.2440872 -949.350525
v 63.85112 31.1697426 -1036.27734
v 85.3869476 1.13207054 -1032.35156
v 42.8527679 4.8252449 -1030.3031
v 105.905914 -26.3842239 -1024.25012
v 64.8680267 -26.3842239 -1024.25012
v 22.9161835 -20.1870613 -1020.51172
v 125.293549 -51.2923889 -1012.38849
v 85.3869476 -53.8109131 -1014.01093
v 45.4803619 -51.2923889 -1012.38849
v 4.53907776 -43.2429276 -1007.14777
v 143.421844 -73.4516296 -996.968262
v 104.671967 -78.0058823 -999.986694
v 66.101944 -78.0058823 -999.986694
v 27.3520355 -73.4516296 -996.968262
v -11.8197174 -63.766655 -990.544861
v 160.095245 -92.5967102 -978.022888
v 122.902985 -99.1946564 -982.046631
v 85.3869476 -101.359116 -983.368103
v 47.8709259 -99.1946564 -982.046631
v 10.6786957 -92.5967102 -978.022888
v -25.7518158 -81.2457809 -971.11731
v 174.989899 -108.264671 -955.456177
v 140.059418 -117.129982 -959.613403
v 103.764008 -121.618629 -961.718445
v 67.0098724 -121.618629 -961.718445
v 30.7144928 -117.129982 -959.613403
v -4.21595764 -108.264671 -955.456177
v -36.9094391 -95.2440872 -949.350525
v 50.541214 68.5088959 -1036.27734
v 25.8554535 40.5571022 -1032.35156
v 16.5651703 78.5715637 -1030.3031
v 3.48640442 14.2662001 -1024.25012
v -9.19502258 49.842144 -1024.25012
v -15.6929169 88.1254807 -1020.51172
v -16.5111237 -10.2381325 -1012.38849
v -31.4707794 23.5788803 -1014.01093
v -41.1747589 58.9523888 -1012.38849
v -45.4276886 96.9319992 -1007.14777
v -34.0296478 -32.801281 -996.968262
v -50.7557831 -0.616088867 -999.986694
v -62.6745758 32.820446 -999.986694
v -69.8972015 67.8203583 -996.968262
v -71.8967438 104.771378 -990.544861
v -48.8527985 -53.1715469 -978.022888
v -67.2299957 -22.9682922 -982.046631
v -81.0814362 8.88566113 -983.368103
v -90.4161224 42.0773277 -982.046631
v -95.0250549 76.3583832 -978.022888
v -94.4394073 111.447823 -971.11731
v -60.5976105 -70.9255219 -955.456177
v -80.641571 -43.3835983 -959.613403
v -96.540863 -13.3060913 -961.718445
v -107.898544 18.556303 -961.718445
v -114.431015 51.4081116 -959.613403
v -115.975281 84.4290009 -955.456177
v -112.492767 116.794754 -949.350525
v 48.5944672 104.348335 -1032.35156
v 14.2506866 115.615829 -1024.25012
v 47.4510345 137.602997 -1024.25012
v -17.4961395 125.37957 -1012.38849
v 13.1649017 148.798157 -1014.01093
v 47.0741425 168.141571 -1012.38849
v -46.4514923 133.594025 -996.968262
v -18.0388641 158.039764 -999.986511
v 13.1649017 178.704742 -999.986511
v 47.4510345 195.781586 -996.96814
v -72.2860107 140.149536 -978.022888
v -46.4514923 165.414124 -982.046631
v -17.4961395 187.26535 -983.368103
v 14.2506866 205.614502 -982.046631
v 48.5944672 220.2034 -978.022888
v -94.4393463 144.84491 -955.456177
v -71.8967438 170.732056 -959.613403
v -45.4276886 193.809723 -961.718323
v -15.6929169 213.501709 -961.718323
v 16.5651398 229.316467 -959.613403
v 50.541214 240.859192 -955.456177
v 63.8510895 257.557739 -930.116089
v 25.8554535 248.731628 -934.731079
v 42.8527679 262.296783 -909.565613
v -9.19502258 235.029388 -937.409302
v 3.48640442 250.939423 -913.265686
v 22.9161835 261.94046 -888.212158
v -41.1747589 216.972504 -938.287292
v -31.4707489 234.704437 -915.006592
v -16.5110931 247.915375 -891.331177
v 4.53907776 256.497742 -866.588867
v -69.897171 194.828979 -937.409302
v -62.6745148 214.03952 -915.006592
v -50.7557526 228.992798 -892.314941
v -34.0295868 239.828247 -869.122681
v -11.8196869 246.104431 -845.235352
v -95.0249939 168.677826 -934.731079
v -90.4161072 188.751923 -913.265686
v -81.0812988 205.15332 -891.331177
v -67.2299042 217.841187 -869.122681
v -48.8527679 226.605286 -846.825745
v -25.7518158 231.02002 -824.684937
v -115.975204 138.466675 -930.116089
v -114.430939 158.134644 -909.565613
v -107.898453 175.307648 -888.212158
v -96.5407867 189.556915 -866.588867
v -80.6415253 200.526733 -845.235352
v -60.59758 207.943176 -824.684937
v -36.9094391 211.621246 -805.450562
v -129.285141 101.127571 -930.116089
v -131.817551 65.4615097 -934.731079
v -140.718582 84.388382 -909.565613
v -128.352112 30.8418179 -937.409302
v -141.033463 46.7518654 -913.265686
v -146.507584 66.9951019 -888.212158
v -119.394226 -2.46144295 -938.287292
v -134.896637 11.430397 -915.006592
v -144.057846 28.4814835 -891.331177
v -146.507584 49.3819847 -866.588867
v -105.165924 -34.2038002 -937.409302
v -122.977814 -22.006134 -915.006592
v -134.896637 -7.05286789 -892.314941
v -141.033447 10.7954464 -869.122681
v -140.718582 31.9887676 -845.235352
v -85.6452789 -64.068428 -934.731079
v -105.165894 -53.8697586 -913.265686
v -119.394165 -40.7090302 -891.331177
v -128.352036 -24.7804947 -869.122681
v -131.81752 -6.14092636 -846.825745
v -129.285141 15.2496405 -824.684937
v -60.59758 -91.56604 -930.116089
v -80.6415253 -84.1495743 -909.565613
v -96.5407867 -73.1797714 -888.212158
v -107.898453 -58.9304886 -866.588867
v -114.430939 -41.7575531 -845.235352
v -115.975204 -22.0895157 -824.684937
v -112.492767 -0.417545319 -805.450623
v -25.7518158 -114.64286 -930.116089
v 10.6787262 -127.859596 -934.731079
v -11.8196869 -129.727264 -909.565613
v 47.8709259 -135.553497 -937.409302
v 27.3520355 -141.630554 -913.265686
v 4.53907776 -140.120575 -888.212158
v 85.3869476 -138.079193 -938.287292
v 66.101944 -147.225464 -915.006592
v 45.4803619 -149.898224 -891.331177
v 22.9161835 -145.563324 -866.588867
v 122.902985 -135.553497 -937.409302
v 104.671967 -147.225464 -915.006592
v 85.3869476 -152.937103 -892.314941
v 64.8680267 -152.741669 -869.122681
v 42.8527679 -145.919617 -845.235352
v 160.095184 -127.859596 -934.731079
v 143.421844 -141.630554 -913.265686
v 125.293549 -149.898224 -891.331177
v 105.905914 -152.741669 -869.122681
v 85.3869476 -149.985931 -846.825745
v 63.8510895 -141.180573 -824.684937
v 196.525787 -114.64286 -930.116089
v 182.593658 -129.727264 -909.565613
v 166.234833 -140.120575 -888.212158
v 147.857819 -145.563324 -866.588867
v 127.921173 -145.919617 -845.235352
v 106.922882 -141.180573 -824.684937
v 85.3869476 -131.464661 -805.450623
v 231.37149 -91.56604 -930.116089
v 256.41922 -64.068428 -934.731079
v 251.415436 -84.1495743 -909.565613
v 275.939789 -34.2038002 -937.409302
v 275.939789 -53.8697586 -913.265686
v 267.314728 -73.1797714 -888.212158
v 290.168182 -2.46144295 -938.287292
v 293.75174 -22.006134 -915.006592
v 290.16806 -40.7090302 -891.331177
v 278.672394 -58.9304886 -866.588867
v 299.125946 30.8418179 -937.409302
v 305.670563 11.430397 -915.006592
v 305.670563 -7.05286789 -892.314941
v 299.125946 -24.7804947 -869.122681
v 285.204803 -41.7575531 -845.235352
v 302.591461 65.4615097 -934.731079
v 311.807343 46.7518654 -913.265686
v 314.831757 28.4814835 -891.331177
v 311.807343 10.7954464 -869.122681
v 302.5914 -6.14092636 -846.825745
v 286.749115 -22.0895157 -824.684937
v 300.059113 101.127571 -930.116089
v 311.492401 84.388382 -909.565613
v 317.281525 66.9951019 -888.212158
v 317.281525 49.3819847 -866.588867
v 311.492401 31.9887676 -845.235352
v 300.059113 15.2496405 -824.684937
v 283.266693 -0.417545319 -805.450623
v 286.749115 138.466675 -930.116089
v 265.79892 168.677826 -934.731079
v 285.204803 158.134644 -909.565613
v 240.671051 194.828979 -937.409302
v 261.190033 188.751923 -913.265686
v 278.672394 175.307648 -888.212158
v 211.948639 216.972504 -938.287292
v 233.448456 214.03952 -915.006592
v 251.855255 205.15332 -891.331177
v 267.314728 189.556915 -866.588867
v 179.968903 235.029388 -937.409302
v 202.244659 234.704437 -915.006592
v 221.529633 228.992798 -892.314941
v 238.003876 217.841187 -869.122681
v 251.415436 200.526733 -845.235352
v 144.918488 248.731628 -934.731079
v 167.287506 250.939423 -913.265686
v 187.285004 247.915375 -891.331177
v 204.803497 239.828247 -869.122681
v 219.626678 226.605286 -846.825745
v 231.37149 207.943176 -824.684937
v 106.922882 257.557739 -930.116089
v 127.921173 262.296783 -909.565613
v 147.857819 261.94046 -888.212158
v 166.234833 256.497742 -866.588867
v 182.593658 246.104431 -845.235352
v 196.525787 231.02002 -824.684937
v 207.683319 211.621246 -805.450562
v 85.3869476 266.363098 -907.97522
v 64.8680267 269.118835 -885.678406
v 105.905914 269.118835 -885.678406
v 45.4803619 266.27536 -863.469788
v 85.3869476 269.314209 -862.486084
v 125.293549 266.27536 -863.469788
v 27.3520355 258.00769 -841.535217
v 66.101944 263.602539 -839.794373
v 104.671967 263.602539 -839.794373
v 143.421844 258.00769 -841.535217
v 10.6787262 244.236725 -820.069946
v 47.8709259 251.930603 -817.391663
v 85.3869476 254.456329 -816.513733
v 122.902985 251.930603 -817.391663
v 160.095184 244.236725 -820.069946
v -4.21595764 224.641754 -799.344788
v 30.7144928 233.50708 -795.187561
v 67.0098724 237.995819 -793.082642
v 103.764008 237.995819 -793.082642
v 140.059418 233.50708 -795.187561
v 174.989899 224.641754 -799.344788
v -131.81752 122.518135 -907.97522
v -141.033447 105.581635 -885.678406
v -128.352036 141.157593 -885.678406
v -144.057846 87.8957291 -863.469788
v -134.896637 123.430008 -862.486084
v -119.394165 157.086182 -863.469788
v -141.033463 69.6252823 -841.535217
v -134.896637 104.946686 -839.794373
v -122.977814 138.383209 -839.794373
v -105.165878 170.246826 -841.535217
v -131.817551 50.9156456 -820.069946
v -128.352112 85.5353317 -817.391663
v -119.394226 118.838585 -816.513733
v -105.165924 150.580933 -817.391663
v -85.6452789 180.445587 -820.069946
v -115.975281 31.9480858 -799.344788
v -114.431015 64.9690399 -795.187561
v -107.898544 97.8207855 -793.082642
v -96.540863 129.683228 -793.082642
v -80.641571 159.760742 -795.187561
v -60.5976105 187.302673 -799.344788
v -48.8527679 -110.228188 -907.97522
v -34.0295868 -123.451134 -885.678406
v -67.2299042 -101.464035 -885.678406
v -16.5110931 -131.538239 -863.469788
v -50.7557526 -112.6157 -862.486145
v -81.0812988 -88.7762375 -863.469788
v 3.48640442 -134.562256 -841.535217
v -31.4707489 -118.327278 -839.794373
v -62.6745148 -97.6623688 -839.794373
v -90.4160767 -72.3747635 -841.535217
v 25.8554535 -132.354523 -820.069946
v -9.19499207 -118.652275 -817.391663
v -41.1747589 -100.595375 -816.513733
v -69.897171 -78.4519501 -817.391663
v -95.0249939 -52.3007507 -820.069946
v 50.541214 -124.482079 -799.344788
v 16.5651398 -112.939415 -795.187561
v -15.6929169 -97.1245499 -793.082642
v -45.4276886 -77.4325027 -793.082642
v -71.8967438 -54.3548965 -795.187561
v -94.4393463 -28.4678307 -799.344788
v 219.626678 -110.228188 -907.97522
v 238.003876 -101.463966 -885.678406
v 204.803497 -123.451134 -885.678406
v 251.855255 -88.7762375 -863.469788
v 221.529633 -112.6157 -862.486145
v 187.285004 -131.538239 -863.469788
v 261.190033 -72.3747635 -841.535217
v 233.448456 -97.6623688 -839.794373
v 202.244659 -118.327278 -839.794373
v 167.287506 -134.562256 -841.535217
v 265.79892 -52.3007507 -820.069946
v 240.671051 -78.4519501 -817.391663
v 211.948639 -100.595375 -816.513733
v 179.968903 -118.652275 -817.391663
v 144.918488 -132.354523 -820.069946
v 265.213287 -28.4678307 -799.344788
v 242.670685 -54.3548965 -795.187561
v 216.201569 -77.4325027 -793.082642
v 186.466888 -97.1245499 -793.082642
v 154.208771 -112.939415 -795.187561
v 120.232758 -124.482079 -799.344788
v 302.5914 122.518135 -907.97522
v 299.125946 141.157593 -885.678406
v 311.807343 105.581635 -885.678406
v 290.16806 157.086182 -863.469788
v 305.670563 123.430008 -862.486084
v 314.831757 87.8957291 -863.469788
v 275.939789 170.246826 -841.535217
v 293.75174 138.383209 -839.794373
v 305.670563 104.946686 -839.794373
v 311.807343 69.6252823 -841.535217
v 256.41922 180.445587 -820.069946
v 275.939789 150.580933 -817.391663
v 290.168182 118.838585 -816.513733
v 299.125946 85.5353317 -817.391663
v 302.591461 50.9156456 -820.069946
v 231.37149 187.302673 -799.344788
v 251.415497 159.760742 -795.187561
v 267.314789 129.683228 -793.082642
v 278.672394 97.8207855 -793.082642
v 285.204926 64.9690399 -795.187561
v 286.749176 31.9480858 -799.344788
v 85.3869476 58.1885719 -716.515442
v 106.922821 85.2074051 -718.52356
v 63.85112 85.2074051 -718.52356
v 127.921173 111.551834 -724.497864
v 85.3869476 115.245148 -722.449524
v 42.8527679 111.551834 -724.497864
v 147.857819 136.564209 -734.289246
v 105.905914 142.761322 -730.550781
v 64.8680267 142.761322 -730.550781
v 22.9161835 136.564209 -734.289246
v 166.234833 159.620087 -747.653198
v 125.293549 167.669556 -742.412476
v 85.3869476 170.18811 -740.790161
v 45.4803619 167.669556 -742.412476
v 4.53907776 159.620087 -747.653198
v 182.593719 180.143738 -764.256226
v 143.421844 189.828796 -757.832764
v 104.671967 194.383026 -754.814392
v 66.101944 194.383026 -754.814392
v 27.3520355 189.828857 -757.832764
v -11.8197174 180.143738 -764.256226
v 196.525787 197.622925 -783.683655
v 160.095245 208.973846 -776.778076
v 122.902985 215.571808 -772.754395
v 85.3869476 217.736267 -771.432983
v 47.8709259 215.571808 -772.754395
v 10.6786957 208.973846 -776.778076
v -25.7518158 197.622925 -783.683655
v 120.232758 47.8683167 -718.52356
v 154.208771 37.805584 -724.497864
v 144.918427 75.8199844 -722.449524
v 186.466888 28.25173 -734.289246
v 179.968903 66.5350037 -730.550781
v 167.287506 102.110947 -730.550781
v 216.201569 19.4451447 -747.653198
v 211.948639 57.4247665 -742.412476
v 202.24472 92.7983322 -740.790161
v 187.285065 126.61528 -742.412476
v 242.670685 11.6057777 -764.256226
v 240.671051 48.5568008 -757.832764
v 233.448517 83.5567017 -754.814392
v 221.529694 116.99324 -754.814392
v 204.803497 149.178436 -757.832764
v 265.213287 4.92925262 -783.683655
v 265.79892 40.0187607 -776.778076
v 261.190094 74.2997589 -772.754395
v 251.855316 107.491493 -771.432983
v 238.003937 139.345428 -772.754395
v 219.626678 169.548767 -776.778076
v 85.3869476 24.7914886 -718.52356
v 85.3869476 -7.77203751 -724.497864
v 122.179413 12.0287533 -722.449524
v 85.3869476 -38.6890755 -734.289246
v 123.322845 -21.2258453 -730.550781
v 156.523224 0.761325836 -730.550781
v 85.3869476 -67.187706 -747.653198
v 123.699799 -51.7644196 -742.412537
v 157.609039 -32.4210587 -740.790161
v 188.27005 -9.0023613 -742.412476
v 85.3869476 -92.5562897 -764.256287
v 123.322906 -79.4044418 -757.832764
v 157.609039 -62.3276672 -754.814392
v 188.812775 -41.6626282 -754.814392
v 217.225372 -17.2169495 -757.832764
v 85.3869476 -114.161812 -783.683655
v 122.179413 -103.826256 -776.778076
v 156.523224 -89.2373581 -772.754395
v 188.27005 -70.8882828 -771.432983
v 217.225372 -49.0369797 -772.754395
v 243.059906 -23.7724648 -776.778076
v 50.541214 47.8683167 -718.52356
v 16.5651703 37.805584 -724.497864
v 48.5944672 12.0287533 -722.449524
v -15.6929169 28.25173 -734.289246
v 14.2506866 0.761325836 -730.550781
v 47.4510345 -21.2258453 -730.550781
v -45.4276886 19.4451447 -747.653198
v -17.4961395 -9.0023613 -742.412476
v 13.1649017 -32.4210587 -740.790161
v 47.0741425 -51.7644196 -742.412537
v -71.8967438 11.6057777 -764.256226
v -46.4514923 -17.2169495 -757.832764
v -18.0388641 -41.6626282 -754.814392
v 13.1649017 -62.3276672 -754.814392
v 47.4510345 -79.4044418 -757.832825
v -94.4394073 4.92925262 -783.683655
v -72.2860107 -23.7724648 -776.778076
v -46.4514923 -49.0369797 -772.754395
v -17.4961395 -70.8882828 -771.432983
v 14.2506866 -89.2373581 -772.754395
v 48.5944672 -103.826256 -776.778076
v 25.8554535 75.8199844 -722.449524
v 3.48640442 102.110947 -730.550781
v -9.19502258 66.5350037 -730.550781
v -16.5111237 126.61528 -742.412476
v -31.4707794 92.7983322 -740.790161
v -41.1747589 57.4247665 -742.412476
v -34.0296478 149.178436 -757.832764
v -50.7557831 116.99324 -754.814392
v -62.6745758 83.5567017 -754.814392
v -69.8972015 48.5568008 -757.832764
v -48.8527985 169.548767 -776.778015
v -67.2299957 139.345428 -772.754395
v -81.0814362 107.491493 -771.432983
v -90.4161224 74.2997589 -772.754395
v -95.0250549 40.0187607 -776.778076
g 
f 3 1 2
f 5 2 4
f 6 3 5
f 8 4 7
f 9 5 8
f 10 6 9
f 12 7 11
f 13 8 12
f 14 9 13
f 15 10 14
f 17 11 16
f 18 12 17
f 19 13 18
f 20 14 19
f 21 15 20
f 23 16 22
f 24 17 23
f 25 18 24
f 26 19 25
f 27 20 26
f 28 21 27
f 30 22 29
f 31 23 30
f 32 24 31
f 33 25 32
f 34 26 33
f 35 27 34
f 36 28 35
f 3 2 5
f 5 4 8
f 6 5 9
f 8 7 12
f 9 8 13
f 10 9 14
f 12 11 17
f 13 12 18
f 14 13 19
f 15 14 20
f 17 16 23
f 18 17 24
f 19 18 25
f 20 19 26
f 21 20 27
f 23 22 30
f 24 23 31
f 25 24 32
f 26 25 33
f 27 26 34
f 28 27 35
f 37 1 3
f 38 3 6
f 39 37 38
f 40 6 10
f 41 38 40
f 42 39 41
f 43 10 15
f 44 40 43
f 45 41 44
f 46 42 45
f 47 15 21
f 48 43 47
f 49 44 48
f 50 45 49
f 51 46 50
f 52 21 28
f 53 47 52
f 54 48 53
f 55 49 54
f 56 50 55
f 57 51 56
f 58 28 36
f 59 52 58
f 60 53 59
f 61 54 60
f 62 55 61
f 63 56 62
f 64 57 63
f 37 3 38
f 38 6 40
f 39 38 41
f 40 10 43
f 41 40 44
f 42 41 45
f 43 15 47
f 44 43 48
f 45 44 49
f 46 45 50
f 47 21 52
f 48 47 53
f 49 48 54
f 50 49 55
f 51 50 56
f 52 28 58
f 53 52 59
f 54 53 60
f 55 54 61
f 56 55 62
f 57 56 63
f 65 1 37
f 66 37 39
f 67 65 66
f 68 39 42
f 69 66 68
f 70 67 69
f 71 42 46
f 72 68 71
f 73 69 72
f 74 70 73
f 75 46 51
f 76 71 75
f 77 72 76
f 78 73 77
f 79 74 78
f 80 51 57
f 81 75 80
f 82 76 81
f 83 77 82
f 84 78 83
f 85 79 84
f 86 57 64
f 87 80 86
f 88 81 87
f 89 82 88
f 90 83 89
f 91 84 90
f 92 85 91
f 65 37 66
f 66 39 68
f 67 66 69
f 68 42 71
f 69 68 72
f 70 69 73
f 71 46 75
f 72 71 76
f 73 72 77
f 74 73 78
f 75 51 80
f 76 75 81
f 77 76 82
f 78 77 83
f 79 78 84
f 80 57 86
f 81 80 87
f 82 81 88
f 83 82 89
f 84 83 90
f 85 84 91
f 93 1 65
f 94 65 67
f 95 93 94
f 96 67 70
f 97 94 96
f 98 95 97
f 99 70 74
f 100 96 99
f 101 97 100
f 102 98 101
f 103 74 79
f 104 99 103
f 105 100 104
f 106 101 105
f 107 102 106
f 108 79 85
f 109 103 108
f 110 104 109
f 111 105 110
f 112 106 111
f 113 107 112
f 114 85 92
f 115 108 114
f 116 109 115
f 117 110 116
f 118 111 117
f 119 112 118
f 120 113 119
f 93 65 94
f 94 67 96
f 95 94 97
f 96 70 99
f 97 96 100
f 98 97 101
f 99 74 103
f 100 99 104
f 101 100 105
f 102 101 106
f 103 79 108
f 104 103 109
f 105 104 110
f 106 105 111
f 107 106 112
f 108 85 114
f 109 108 115
f 110 109 116
f 111 110 117
f 112 111 118
f 113 112 119
f 2 1 93
f 121 93 95
f 4 2 121
f 122 95 98
f 123 121 122
f 7 4 123
f 124 98 102
f 125 122 124
f 126 123 125
f 11 7 126
f 127 102 107
f 128 124 127
f 129 125 128
f 130 126 129
f 16 11 130
f 131 107 113
f 132 127 131
f 133 128 132
f 134 129 133
f 135 130 134
f 22 16 135
f 136 113 120
f 137 131 136
f 138 132 137
f 139 133 138
f 140 134 139
f 141 135 140
f 29 22 141
f 2 93 121
f 121 95 122
f 4 121 123
f 122 98 124
f 123 122 125
f 7 123 126
f 124 102 127
f 125 124 128
f 126 125 129
f 11 126 130
f 127 107 131
f 128 127 132
f 129 128 133
f 130 129 134
f 16 130 135
f 131 113 136
f 132 131 137
f 133 132 138
f 134 133 139
f 135 134 140
f 22 135 141
f 142 29 141
f 143 141 140
f 144 142 143
f 145 140 139
f 146 143 145
f 147 144 146
f 148 139 138
f 149 145 148
f 150 146 149
f 151 147 150
f 152 138 137
f 153 148 152
f 154 149 153
f 155 150 154
f 156 151 155
f 157 137 136
f 158 152 157
f 159 153 158
f 160 154 159
f 161 155 160
f 162 156 161
f 163 136 120
f 164 157 163
f 165 158 164
f 166 159 165
f 167 160 166
f 168 161 167
f 169 162 168
f 142 141 143
f 143 140 145
f 144 143 146
f 145 139 148
f 146 145 149
f 147 146 150
f 148 138 152
f 149 148 153
f 150 149 154
f 151 150 155
f 152 137 157
f 153 152 158
f 154 153 159
f 155 154 160
f 156 155 161
f 157 136 163
f 158 157 164
f 159 158 165
f 160 159 166
f 161 160 167
f 162 161 168
f 170 120 119
f 171 119 118
f 172 170 171
f 173 118 117
f 174 171 173
f 175 172 174
f 176 117 116
f 177 173 176
f 178 174 177
f 179 175 178
f 180 116 115
f 181 176 180
f 182 177 181
f 183 178 182
f 184 179 183
f 185 115 114
f 186 180 185
f 187 181 186
f 188 182 187
f 189 183 188
f 190 184 189
f 191 114 92
f 192 185 191
f 193 186 192
f 194 187 193
f 195 188 194
f 196 189 195
f 197 190 196
f 170 119 171
f 171 118 173
f 172 171 174
f 173 117 176
f 174 173 177
f 175 174 178
f 176 116 180
f 177 176 181
f 178 177 182
f 179 178 183
f 180 115 185
f 181 180 186
f 182 181 187
f 183 182 188
f 184 183 189
f 185 114 191
f 186 185 192
f 187 186 193
f 188 187 194
f 189 188 195
f 190 189 196
f 198 92 91
f 199 91 90
f 200 198 199
f 201 90 89
f 202 199 201
f 203 200 202
f 204 89 88
f 205 201 204
f 206 202 205
f 207 203 206
f 208 88 87
f 209 204 208
f 210 205 209
f 211 206 210
f 212 207 211
f 213 87 86
f 214 208 213
f 215 209 214
f 216 210 215
f 217 211 216
f 218 212 217
f 219 86 64
f 220 213 219
f 221 214 220
f 222 215 221
f 223 216 222
f 224 217 223
f 225 218 224
f 198 91 199
f 199 90 201
f 200 199 202
f 201 89 204
f 202 201 205
f 203 202 206
f 204 88 208
f 205 204 209
f 206 205 210
f 207 206 211
f 208 87 213
f 209 208 214
f 210 209 215
f 211 210 216
f 212 211 217
f 213 86 219
f 214 213 220
f 215 214 221
f 216 215 222
f 217 216 223
f 218 217 224
f 226 64 63
f 227 63 62
f 228 226 227
f 229 62 61
f 230 227 229
f 231 228 230
f 232 61 60
f 233 229 232
f 234 230 233
f 235 231 234
f 236 60 59
f 237 232 236
f 238 233 237
f 239 234 238
f 240 235 239
f 241 59 58
f 242 236 241
f 243 237 242
f 244 238 243
f 245 239 244
f 246 240 245
f 247 58 36
f 248 241 247
f 249 242 248
f 250 243 249
f 251 244 250
f 252 245 251
f 253 246 252
f 226 63 227
f 227 62 229
f 228 227 230
f 229 61 232
f 230 229 233
f 231 230 234
f 232 60 236
f 233 232 237
f 234 233 238
f 235 234 239
f 236 59 241
f 237 236 242
f 238 237 243
f 239 238 244
f 240 239 245
f 241 58 247
f 242 241 248
f 243 242 249
f 244 243 250
f 245 244 251
f 246 245 252
f 254 36 35
f 255 35 34
f 256 254 255
f 257 34 33
f 258 255 257
f 259 256 258
f 260 33 32
f 261 257 260
f 262 258 261
f 263 259 262
f 264 32 31
f 265 260 264
f 266 261 265
f 267 262 266
f 268 263 267
f 269 31 30
f 270 264 269
f 271 265 270
f 272 266 271
f 273 267 272
f 274 268 273
f 275 30 29
f 276 269 275
f 277 270 276
f 278 271 277
f 279 272 278
f 280 273 279
f 281 274 280
f 254 35 255
f 255 34 257
f 256 255 258
f 257 33 260
f 258 257 261
f 259 258 262
f 260 32 264
f 261 260 265
f 262 261 266
f 263 262 267
f 264 31 269
f 265 264 270
f 266 265 271
f 267 266 272
f 268 267 273
f 269 30 275
f 270 269 276
f 271 270 277
f 272 271 278
f 273 272 279
f 274 273 280
f 275 29 142
f 282 142 144
f 276 275 282
f 283 144 147
f 284 282 283
f 277 276 284
f 285 147 151
f 286 283 285
f 287 284 286
f 278 277 287
f 288 151 156
f 289 285 288
f 290 286 289
f 291 287 290
f 279 278 291
f 292 156 162
f 293 288 292
f 294 289 293
f 295 290 294
f 296 291 295
f 280 279 296
f 297 162 169
f 298 292 297
f 299 293 298
f 300 294 299
f 301 295 300
f 302 296 301
f 281 280 302
f 275 142 282
f 282 144 283
f 276 282 284
f 283 147 285
f 284 283 286
f 277 284 287
f 285 151 288
f 286 285 289
f 287 286 290
f 278 287 291
f 288 156 292
f 289 288 293
f 290 289 294
f 291 290 295
f 279 291 296
f 292 162 297
f 293 292 298
f 294 293 299
f 295 294 300
f 296 295 301
f 280 296 302
f 163 120 170
f 303 170 172
f 164 163 303
f 304 172 175
f 305 303 304
f 165 164 305
f 306 175 179
f 307 304 306
f 308 305 307
f 166 165 308
f 309 179 184
f 310 306 309
f 311 307 310
f 312 308 311
f 167 166 312
f 313 184 190
f 314 309 313
f 315 310 314
f 316 311 315
f 317 312 316
f 168 167 317
f 318 190 197
f 319 313 318
f 320 314 319
f 321 315 320
f 322 316 321
f 323 317 322
f 169 168 323
f 163 170 303
f 303 172 304
f 164 303 305
f 304 175 306
f 305 304 307
f 165 305 308
f 306 179 309
f 307 306 310
f 308 307 311
f 166 308 312
f 309 184 313
f 310 309 314
f 311 310 315
f 312 311 316
f 167 312 317
f 313 190 318
f 314 313 319
f 315 314 320
f 316 315 321
f 317 316 322
f 168 317 323
f 191 92 198
f 324 198 200
f 192 191 324
f 325 200 203
f 326 324 325
f 193 192 326
f 327 203 207
f 328 325 327
f 329 326 328
f 194 193 329
f 330 207 212
f 331 327 330
f 332 328 331
f 333 329 332
f 195 194 333
f 334 212 218
f 335 330 334
f 336 331 335
f 337 332 336
f 338 333 337
f 196 195 338
f 339 218 225
f 340 334 339
f 341 335 340
f 342 336 341
f 343 337 342
f 344 338 343
f 197 196 344
f 191 198 324
f 324 200 325
f 192 324 326
f 325 203 327
f 326 325 328
f 193 326 329
f 327 207 330
f 328 327 331
f 329 328 332
f 194 329 333
f 330 212 334
f 331 330 335
f 332 331 336
f 333 332 337
f 195 333 338
f 334 218 339
f 335 334 340
f 336 335 341
f 337 336 342
f 338 337 343
f 196 338 344
f 219 64 226
f 345 226 228
f 220 219 345
f 346 228 231
f 347 345 346
f 221 220 347
f 348 231 235
f 349 346 348
f 350 347 349
f 222 221 350
f 351 235 240
f 352 348 351
f 353 349 352
f 354 350 353
f 223 222 354
f 355 240 246
f 356 351 355
f 357 352 356
f 358 353 357
f 359 354 358
f 224 223 359
f 360 246 253
f 361 355 360
f 362 356 361
f 363 357 362
f 364 358 363
f 365 359 364
f 225 224 365
f 219 226 345
f 345 228 346
f 220 345 347
f 346 231 348
f 347 346 349
f 221 347 350
f 348 235 351
f 349 348 352
f 350 349 353
f 222 350 354
f 351 240 355
f 352 351 356
f 353 352 357
f 354 353 358
f 223 354 359
f 355 246 360
f 356 355 361
f 357 356 362
f 358 357 363
f 359 358 364
f 224 359 365
f 247 36 254
f 366 254 256
f 248 247 366
f 367 256 259
f 368 366 367
f 249 248 368
f 369 259 263
f 370 367 369
f 371 368 370
f 250 249 371
f 372 263 268
f 373 369 372
f 374 370 373
f 375 371 374
f 251 250 375
f 376 268 274
f 377 372 376
f 378 373 377
f 379 374 378
f 380 375 379
f 252 251 380
f 381 274 281
f 382 376 381
f 383 377 382
f 384 378 383
f 385 379 384
f 386 380 385
f 253 252 386
f 247 254 366
f 366 256 367
f 248 366 368
f 367 259 369
f 368 367 370
f 249 368 371
f 369 263 372
f 370 369 373
f 371 370 374
f 250 371 375
f 372 268 376
f 373 372 377
f 374 373 378
f 375 374 379
f 251 375 380
f 376 274 381
f 377 376 382
f 378 377 383
f 379 378 384
f 380 379 385
f 252 380 386
f 389 387 388
f 391 388 390
f 392 389 391
f 394 390 393
f 395 391 394
f 396 392 395
f 398 393 397
f 399 394 398
f 400 395 399
f 401 396 400
f 403 397 402
f 404 398 403
f 405 399 404
f 406 400 405
f 407 401 406
f 409 402 408
f 410 403 409
f 411 404 410
f 412 405 411
f 413 406 412
f 414 407 413
f 302 408 281
f 301 409 302
f 300 410 301
f 299 411 300
f 298 412 299
f 297 413 298
f 169 414 297
f 389 388 391
f 391 390 394
f 392 391 395
f 394 393 398
f 395 394 399
f 396 395 400
f 398 397 403
f 399 398 404
f 400 399 405
f 401 400 406
f 403 402 409
f 404 403 410
f 405 404 411
f 406 405 412
f 407 406 413
f 409 408 302
f 410 409 301
f 411 410 300
f 412 411 299
f 413 412 298
f 414 413 297
f 388 387 415
f 417 415 416
f 390 388 417
f 419 416 418
f 420 417 419
f 393 390 420
f 422 418 421
f 423 419 422
f 424 420 423
f 397 393 424
f 426 421 425
f 427 422 426
f 428 423 427
f 429 424 428
f 402 397 429
f 431 425 430
f 432 426 431
f 433 427 432
f 434 428 433
f 435 429 434
f 408 402 435
f 386 430 253
f 385 431 386
f 384 432 385
f 383 433 384
f 382 434 383
f 381 435 382
f 281 408 381
f 388 415 417
f 417 416 419
f 390 417 420
f 419 418 422
f 420 419 423
f 393 420 424
f 422 421 426
f 423 422 427
f 424 423 428
f 397 424 429
f 426 425 431
f 427 426 432
f 428 427 433
f 429 428 434
f 402 429 435
f 431 430 386
f 432 431 385
f 433 432 384
f 434 433 383
f 435 434 382
f 408 435 381
f 415 387 436
f 438 436 437
f 416 415 438
f 440 437 439
f 441 438 440
f 418 416 441
f 443 439 442
f 444 440 443
f 445 441 444
f 421 418 445
f 447 442 446
f 448 443 447
f 449 444 448
f 450 445 449
f 425 421 450
f 452 446 451
f 453 447 452
f 454 448 453
f 455 449 454
f 456 450 455
f 430 425 456
f 365 451 225
f 364 452 365
f 363 453 364
f 362 454 363
f 361 455 362
f 360 456 361
f 253 430 360
f 415 436 438
f 438 437 440
f 416 438 441
f 440 439 443
f 441 440 444
f 418 441 445
f 443 442 447
f 444 443 448
f 445 444 449
f 421 445 450
f 447 446 452
f 448 447 453
f 449 448 454
f 450 449 455
f 425 450 456
f 452 451 365
f 453 452 364
f 454 453 363
f 455 454 362
f 456 455 361
f 430 456 360
f 436 387 457
f 459 457 458
f 437 436 459
f 461 458 460
f 462 459 461
f 439 437 462
f 464 460 463
f 465 461 464
f 466 462 465
f 442 439 466
f 468 463 467
f 469 464 468
f 470 465 469
f 471 466 470
f 446 442 471
f 473 467 472
f 474 468 473
f 475 469 474
f 476 470 475
f 477 471 476
f 451 446 477
f 344 472 197
f 343 473 344
f 342 474 343
f 341 475 342
f 340 476 341
f 339 477 340
f 225 451 339
f 436 457 459
f 459 458 461
f 437 459 462
f 461 460 464
f 462 461 465
f 439 462 466
f 464 463 468
f 465 464 469
f 466 465 470
f 442 466 471
f 468 467 473
f 469 468 474
f 470 469 475
f 471 470 476
f 446 471 477
f 473 472 344
f 474 473 343
f 475 474 342
f 476 475 341
f 477 476 340
f 451 477 339
f 457 387 389
f 478 389 392
f 458 457 478
f 479 392 396
f 480 478 479
f 460 458 480
f 481 396 401
f 482 479 481
f 483 480 482
f 463 460 483
f 484 401 407
f 485 481 484
f 486 482 485
f 487 483 486
f 467 463 487
f 488 407 414
f 489 484 488
f 490 485 489
f 491 486 490
f 492 487 491
f 472 467 492
f 323 414 169
f 322 488 323
f 321 489 322
f 320 490 321
f 319 491 320
f 318 492 319
f 197 472 318
f 457 389 478
f 478 392 479
f 458 478 480
f 479 396 481
f 480 479 482
f 460 480 483
f 481 401 484
f 482 481 485
f 483 482 486
f 463 483 487
f 484 407 488
f 485 484 489
f 486 485 490
f 487 486 491
f 467 487 492
f 488 414 323
f 489 488 322
f 490 489 321
f 491 490 320
f 492 491 319
f 472 492 318
