# File exported by Houdini 20.5.445 (www.sidefx.com)
# 492 points
# 2940 vertices
# 980 primitives
# Bounds: [-39.5975647, -250.610046, -1081.48779] to [210.37146, 366.987152, -673.313293]
g 
v 85.3869629 58.1885147 -1081.48779
v 85.3869629 107.036064 -1078.94031
v 104.167847 73.2832184 -1078.94031
v 85.3869629 154.664536 -1071.36182
v 105.217041 125.703018 -1073.96021
v 122.479919 88.0012665 -1071.36182
v 85.3869629 199.884613 -1058.94116
v 105.833313 174.342377 -1063.68335
v 123.727356 142.18338 -1063.68335
v 139.866089 101.975021 -1058.94116
v 85.3869629 241.567429 -1041.98853
v 106.036499 219.009079 -1048.6366
v 124.312622 190.716721 -1050.6947
v 140.838013 156.464127 -1048.6366
v 155.892334 114.855789 -1041.98853
v 85.3869629 278.672485 -1020.92712
v 105.833313 259.436096 -1029.07556
v 124.312622 234.459015 -1032.9043
v 141.130554 204.233795 -1032.9043
v 156.444153 168.478836 -1029.07556
v 170.158386 126.321869 -1020.92725
v 85.3869629 310.273224 -996.282959
v 105.217041 295.156158 -1005.04285
v 123.727417 273.817993 -1010.14709
v 140.838013 246.980118 -1011.82336
v 156.444153 215.019745 -1010.14709
v 170.368225 178.067032 -1005.04285
v 182.308228 136.087158 -996.282959
v 85.3869629 335.580902 -968.671021
v 104.167847 325.36795 -976.416382
v 122.479919 308.485199 -981.689941
v 139.866089 285.354034 -984.359985
v 155.892334 256.552002 -984.359985
v 170.158386 222.797897 -981.689941
v 182.308228 184.934708 -976.416382
v 192.038452 143.907532 -968.671021
v 96.9941406 18.6699677 -1078.94031
v 117.472717 32.4002876 -1073.96021
v 108.311707 -19.862175 -1071.36182
v 136.363953 45.9807739 -1063.68335
v 129.529053 -6.05365181 -1063.68335
v 119.056885 -56.4460068 -1058.94116
v 153.600159 59.3057709 -1048.6366
v 148.369934 7.56734848 -1050.6947
v 140.307068 -41.8944092 -1048.6366
v 128.96167 -90.1682053 -1041.98853
v 169.080688 72.2762299 -1029.07556
v 165.187866 21.0844307 -1032.90442
v 158.763977 -27.8209229 -1032.90442
v 149.749084 -74.8959274 -1029.07556
v 137.778564 -120.186707 -1020.92725
v 182.62384 84.7642136 -1005.04285
v 180.139832 34.6237183 -1010.14709
v 175.108643 -13.9233856 -1011.82336
v 167.643127 -60.513916 -1010.14709
v 157.738342 -104.690186 -1005.04285
v 145.287598 -145.752289 -996.282959
v 193.915405 96.5686188 -976.416382
v 193.083069 48.2711983 -981.689941
v 189.562317 0.22127533 -984.360107
v 183.440857 -46.3816986 -984.360107
v 174.871643 -90.3740387 -981.689941
v 164.068481 -130.657471 -976.416382
v 151.301208 -166.226639 -968.671021
v 73.7797241 18.6699677 -1078.94031
v 85.3869629 -25.2641106 -1073.96021
v 62.4622498 -19.862175 -1071.36182
v 96.446106 -65.5100708 -1063.68335
v 74.3278198 -65.5100708 -1063.68335
v 51.71698 -56.4460068 -1058.94116
v 106.895508 -101.941574 -1048.6366
v 85.3869629 -105.625336 -1050.6947
v 63.8784485 -101.941574 -1048.6366
v 41.8122559 -90.1682053 -1041.98853
v 116.666199 -134.352341 -1029.07556
v 95.7810059 -141.013504 -1032.90442
v 74.9928894 -141.013504 -1032.90442
v 54.1077881 -134.352341 -1029.07556
v 32.9953308 -120.186707 -1020.92725
v 125.652588 -162.354492 -1005.04285
v 105.606995 -172.004852 -1010.14709
v 85.3869629 -175.170639 -1011.82336
v 65.1669006 -172.004852 -1010.14709
v 45.1213379 -162.354492 -1005.04285
v 25.4863281 -145.752289 -996.282959
v 133.680359 -185.27092 -976.416382
v 114.853882 -198.237488 -981.689941
v 95.291626 -204.802811 -984.360107
v 75.4822388 -204.802811 -984.360107
v 55.9200745 -198.237488 -981.689941
v 37.0935669 -185.27092 -976.416382
v 19.4726868 -166.226639 -968.671021
v 66.6060791 73.2832184 -1078.94031
v 53.3012085 32.4002876 -1073.96021
v 48.2939758 88.0012665 -1071.36182
v 41.2449036 -6.05365181 -1063.68335
v 34.4100037 45.9807739 -1063.68335
v 30.9078064 101.975021 -1058.94116
v 30.4668274 -41.8944092 -1048.6366
v 22.4039612 7.56734848 -1050.6947
v 17.1737976 59.3057709 -1048.6366
v 14.8816223 114.855789 -1041.98853
v 21.0248413 -74.8959274 -1029.07556
v 12.0098877 -27.8209229 -1032.90442
v 5.58602905 21.0844307 -1032.90442
v 1.6932373 72.2762299 -1029.07556
v 0.615539551 126.321869 -1020.92725
v 13.0355835 -104.690186 -1005.04285
v 3.13076782 -60.513916 -1010.14709
v -4.33474731 -13.9233856 -1011.82336
v -9.36590576 34.6237183 -1010.14709
v -11.8499756 84.7642136 -1005.04285
v -11.5343018 136.087158 -996.282959
v 6.70544434 -130.657471 -976.416382
v -4.09768677 -90.3740387 -981.689941
v -12.6669312 -46.3816986 -984.360107
v -18.7883911 0.22127533 -984.360107
v -22.3092346 48.2711983 -981.689941
v -23.1415405 96.5686188 -976.416382
v -21.2645569 143.907532 -968.671021
v 65.5568542 125.703018 -1073.96021
v 47.0465393 142.18338 -1063.68335
v 64.9405823 174.342377 -1063.68335
v 29.9359131 156.464127 -1048.6366
v 46.4613342 190.716721 -1050.6947
v 64.7374268 219.009079 -1048.6366
v 14.3298035 168.478836 -1029.07556
v 29.6433716 204.233795 -1032.9043
v 46.4613342 234.459015 -1032.9043
v 64.9405823 259.436096 -1029.07532
v 0.405761719 178.067032 -1005.04285
v 14.3298035 215.019745 -1010.14709
v 29.9359131 246.980118 -1011.82336
v 47.0465393 273.817993 -1010.14709
v 65.5568542 295.156158 -1005.04285
v -11.5342712 184.934708 -976.416382
v 0.615539551 222.797897 -981.689941
v 14.8816223 256.552002 -984.359985
v 30.9077759 285.354034 -984.359985
v 48.2939758 308.485199 -981.689941
v 66.6060791 325.36795 -976.416382
v 73.7797241 349.791718 -944.271606
v 53.301178 336.882477 -950.125977
v 62.4622498 356.723175 -918.202881
v 34.4100037 316.841034 -953.523315
v 41.2449036 340.111542 -922.896484
v 51.71698 356.202057 -891.115479
v 17.1738281 290.430573 -954.637085
v 22.4039917 316.365814 -925.104858
v 30.4668274 335.688507 -895.072021
v 41.8122559 348.241302 -863.685547
v 1.69326782 258.042786 -953.523315
v 5.58605957 286.140656 -925.104858
v 12.0099182 308.01181 -896.319824
v 21.0248718 323.860077 -866.899658
v 32.9953308 333.039764 -836.598145
v -11.8499451 219.793442 -950.125977
v -9.36584473 249.154282 -922.896484
v -4.33468628 273.143555 -895.072021
v 3.13079834 291.70108 -866.899658
v 13.0355835 304.519806 -838.615479
v 25.4863281 310.976837 -810.529297
v -23.14151 175.605591 -944.271606
v -22.3092041 204.37265 -918.202881
v -18.7883301 229.490387 -891.115479
v -12.6669006 250.331711 -863.685547
v -4.09765625 266.376587 -836.598145
v 6.70547485 277.223999 -810.529297
v 19.4726868 282.603607 -786.129944
v -30.315155 120.992249 -944.271606
v -31.6800842 68.8262024 -950.125977
v -36.4774475 96.5091171 -918.202881
v -29.8122864 18.19034 -953.523315
v -36.6471863 41.4608421 -922.896484
v -39.5975647 71.0692825 -891.115479
v -24.9842529 -30.5199966 -954.637085
v -33.3395996 -10.2013817 -925.104858
v -38.2772217 14.7380428 -895.072021
v -39.5975647 45.3078308 -863.685547
v -17.3155823 -76.9473038 -953.523315
v -26.9157104 -59.1066437 -925.104858
v -33.3395996 -37.2355499 -896.319824
v -36.6471558 -11.1300812 -866.899658
v -36.4774475 19.8678989 -836.598145
v -6.79452515 -120.628174 -950.125977
v -17.3155823 -105.711319 -922.896484
v -24.9842224 -86.4620514 -895.072021
v -29.8122559 -63.1644058 -866.899658
v -31.6800537 -35.9017181 -838.615479
v -30.315155 -4.615242 -810.529297
v 6.70547485 -160.847 -944.271606
v -4.09765625 -149.999466 -918.202881
v -12.6669006 -133.954712 -891.115479
v -18.7883301 -113.113281 -863.685547
v -22.3092041 -87.9955444 -836.598145
v -23.14151 -59.2285919 -810.529297
v -21.2645569 -27.530529 -786.129944
v 25.4863281 -194.599854 -944.271606
v 45.1213379 -213.931015 -950.125977
v 32.9953308 -216.66275 -918.202881
v 65.1669006 -225.18425 -953.523315
v 54.1078186 -234.072845 -922.896484
v 41.8122559 -231.864288 -891.115479
v 85.3869629 -228.878448 -954.637085
v 74.9928894 -242.255951 -925.104858
v 63.8784485 -246.165375 -895.072021
v 51.71698 -239.825043 -863.685547
v 105.606995 -225.18425 -953.523315
v 95.7810059 -242.255951 -925.104858
v 85.3869629 -250.610046 -896.319824
v 74.3278198 -250.32431 -866.899658
v 62.4622498 -240.346252 -836.598145
v 125.652588 -213.931015 -950.125977
v 116.666138 -234.072845 -922.896484
v 106.895447 -246.165375 -895.072021
v 96.446106 -250.32431 -866.899658
v 85.3869629 -246.293671 -838.615479
v 73.7797241 -233.414703 -810.529358
v 145.287598 -194.599854 -944.271606
v 137.778564 -216.66275 -918.202881
v 128.96167 -231.864288 -891.115479
v 119.056885 -239.825043 -863.685547
v 108.311707 -240.346252 -836.598145
v 96.9941406 -233.414703 -810.529358
v 85.3869629 -219.203812 -786.129944
v 164.068481 -160.847 -944.271606
v 177.56842 -120.628174 -950.125977
v 174.871521 -149.999466 -918.202881
v 188.089539 -76.9473038 -953.523315
v 188.089478 -105.711319 -922.896484
v 183.440857 -133.954712 -891.115479
v 195.758179 -30.5199966 -954.637085
v 197.689575 -59.1066437 -925.104858
v 195.758118 -86.4620514 -895.072021
v 189.562256 -113.113281 -863.685547
v 200.586243 18.19034 -953.523315
v 204.113525 -10.2013817 -925.104858
v 204.113525 -37.2355499 -896.319824
v 200.586121 -63.1644058 -866.899658
v 193.083069 -87.9955444 -836.598145
v 202.453979 68.8262024 -950.125977
v 207.421082 41.4608421 -922.896484
v 209.051147 14.7380428 -895.072021
v 207.421082 -11.1300812 -866.899658
v 202.453918 -35.9017181 -838.615479
v 193.915405 -59.2285919 -810.529297
v 201.089111 120.992249 -944.271606
v 207.251343 96.5091171 -918.202881
v 210.37146 71.0692825 -891.115479
v 210.37146 45.3078308 -863.685547
v 207.251343 19.8678989 -836.598145
v 201.089111 -4.615242 -810.529297
v 192.038452 -27.530529 -786.129944
v 193.915405 175.605591 -944.271606
v 182.62384 219.793442 -950.125977
v 193.083069 204.37265 -918.202881
v 169.080627 258.042786 -953.523315
v 180.139771 249.154282 -922.896484
v 189.562256 229.490387 -891.115479
v 153.600159 290.430573 -954.637085
v 165.187805 286.140656 -925.104858
v 175.108582 273.143555 -895.072021
v 183.440857 250.331711 -863.685547
v 136.363953 316.841034 -953.523315
v 148.369934 316.365814 -925.104858
v 158.763977 308.01181 -896.319824
v 167.643127 291.70108 -866.899658
v 174.871521 266.376587 -836.598145
v 117.472717 336.882477 -950.125977
v 129.528992 340.111542 -922.896484
v 140.307068 335.688507 -895.072021
v 149.749084 323.860077 -866.899658
v 157.738342 304.519806 -838.615479
v 164.068481 277.223999 -810.529297
v 96.9941406 349.791718 -944.271606
v 108.311707 356.723175 -918.202881
v 119.056885 356.202057 -891.115479
v 128.96167 348.241302 -863.685547
v 137.778564 333.039764 -836.598145
v 145.287598 310.976837 -810.529297
v 151.301208 282.603607 -786.129944
v 85.3869629 362.670807 -916.185425
v 74.3278198 366.701324 -887.901245
v 96.446106 366.701324 -887.901245
v 63.8784485 362.542389 -859.729004
v 85.3869629 366.987152 -858.481201
v 106.895447 362.542389 -859.729004
v 54.1078186 350.44986 -831.904419
v 74.9928894 358.633026 -829.696045
v 95.7810059 358.633026 -829.696045
v 116.666138 350.44986 -831.904419
v 45.1213379 330.308014 -804.674988
v 65.1669006 341.56131 -801.277649
v 85.3869629 345.255585 -800.163879
v 105.606995 341.56131 -801.277649
v 125.652588 330.308014 -804.674988
v 37.0935669 301.647858 -778.384644
v 55.9200745 314.614471 -773.111023
v 75.4822388 321.179901 -770.440918
v 95.291626 321.179901 -770.440918
v 114.853882 314.614471 -773.111023
v 133.680359 301.647858 -778.384644
v -31.6800537 152.278717 -916.185425
v -36.6471558 127.50708 -887.901245
v -29.8122559 179.541519 -887.901245
v -38.2772217 101.638977 -859.729004
v -33.3395996 153.612549 -858.481201
v -24.9842224 202.83905 -859.729004
v -36.6471863 74.9161758 -831.904419
v -33.3395996 126.578384 -829.696045
v -26.9157104 175.483658 -829.696045
v -17.3155823 222.088226 -831.904419
v -31.6800842 47.550808 -804.674988
v -29.8122864 98.186676 -801.277588
v -24.9842529 146.897003 -800.163879
v -17.3155823 193.32431 -801.277588
v -6.79452515 237.00528 -804.674988
v -23.1415405 19.8083954 -778.384644
v -22.3092346 68.1059113 -773.111023
v -18.7883911 116.15583 -770.440857
v -12.6669312 162.758698 -770.440857
v -4.09768677 206.751053 -773.111023
v 6.70544434 247.034561 -778.384644
v 13.0355835 -188.142715 -916.185425
v 21.0248718 -207.483093 -887.901245
v 3.13079834 -175.324097 -887.901245
v 30.4668274 -219.311523 -859.729004
v 12.0099182 -191.634766 -858.481201
v -4.33468628 -156.766464 -859.729004
v 41.2449036 -223.734558 -831.904419
v 22.4039917 -199.988785 -829.696045
v 5.58605957 -169.763687 -829.696045
v -9.36584473 -132.777283 -831.904419
v 53.301178 -220.505463 -804.675049
v 34.4100037 -200.464142 -801.277649
v 17.1738281 -174.053574 -800.163879
v 1.69326782 -141.665771 -801.277649
v -11.8499451 -103.416336 -804.675049
v 66.6060791 -208.990967 -778.384705
v 48.2939758 -192.108231 -773.111023
v 30.9077759 -168.977051 -770.440918
v 14.8816223 -140.174973 -770.440918
v 0.615539551 -106.420898 -773.111023
v -11.5342712 -68.5576096 -778.384705
v 157.738342 -188.142715 -916.185425
v 167.643127 -175.324005 -887.901245
v 149.749084 -207.483093 -887.901245
v 175.108582 -156.766464 -859.729004
v 158.763977 -191.634766 -858.481201
v 140.307068 -219.311523 -859.729004
v 180.139771 -132.777283 -831.904419
v 165.187805 -169.763687 -829.696045
v 148.369934 -199.988785 -829.696045
v 129.528992 -223.734558 -831.904419
v 182.62384 -103.416336 -804.675049
v 169.080627 -141.665771 -801.277649
v 153.600159 -174.053574 -800.163879
v 136.363953 -200.464142 -801.277649
v 117.472717 -220.505463 -804.675049
v 182.308228 -68.5576096 -778.384705
v 170.158386 -106.420898 -773.111023
v 155.892334 -140.174973 -770.440918
v 139.866089 -168.977051 -770.440918
v 122.479919 -192.108231 -773.111023
v 104.167847 -208.990967 -778.384705
v 202.453918 152.278717 -916.185425
v 200.586121 179.541519 -887.901245
v 207.421082 127.50708 -887.901245
v 195.758118 202.839142 -859.729004
v 204.113525 153.612549 -858.481201
v 209.051147 101.638977 -859.729004
v 188.089478 222.088226 -831.904419
v 197.689575 175.483566 -829.696045
v 204.113525 126.578384 -829.696045
v 207.421082 74.9161758 -831.904419
v 177.56842 237.00528 -804.674988
v 188.089539 193.32431 -801.277588
v 195.758179 146.897003 -800.163879
v 200.586243 98.186676 -801.277588
v 202.453979 47.550808 -804.674988
v 164.068481 247.034561 -778.384644
v 174.871643 206.751053 -773.111023
v 183.440857 162.758698 -770.440857
v 189.562317 116.15583 -770.440857
v 193.083069 68.1059113 -773.111023
v 193.915405 19.8083954 -778.384644
v 85.3869629 58.1885147 -673.313293
v 96.9941406 97.7070465 -675.860657
v 73.7797241 97.7070465 -675.860657
v 108.311707 136.239273 -683.43927
v 85.3869629 141.64122 -680.84082
v 62.4622498 136.239273 -683.43927
v 119.056885 172.823013 -695.859802
v 96.446106 181.887161 -691.117554
v 74.3278198 181.887161 -691.117554
v 51.71698 172.823013 -695.859802
v 128.96167 206.545197 -712.812439
v 106.895508 218.318588 -706.164429
v 85.3869629 222.00235 -704.106384
v 63.8784485 218.318588 -706.164429
v 41.8122559 206.545197 -712.812439
v 137.778564 236.563812 -733.873779
v 116.666199 250.729355 -725.725464
v 95.7810059 257.390503 -721.896545
v 74.9928894 257.390503 -721.896545
v 54.1077881 250.729446 -725.725464
v 32.9953308 236.563812 -733.873779
v 145.287598 262.129272 -758.518066
v 125.652588 278.731506 -749.758057
v 105.606995 288.381866 -744.653931
v 85.3869629 291.547638 -742.977722
v 65.1669006 288.381866 -744.653931
v 45.1213379 278.731506 -749.758057
v 25.4863281 262.129272 -758.518066
v 104.167847 43.0937996 -675.860657
v 122.479919 28.3757477 -683.43927
v 117.472717 83.9768219 -680.84082
v 139.866089 14.4019966 -695.859802
v 136.363953 70.3963394 -691.117554
v 129.529053 122.430664 -691.117554
v 155.892334 1.52122688 -712.812439
v 153.600159 57.0713348 -706.164429
v 148.369934 108.809662 -704.106384
v 140.307068 158.271515 -706.164429
v 170.158386 -9.94486237 -733.873779
v 169.080688 44.1007881 -725.725464
v 165.187866 95.2926788 -721.896545
v 158.763977 144.197922 -721.896545
v 149.749084 191.272949 -725.725464
v 182.308228 -19.7100487 -758.518066
v 182.62384 31.6128044 -749.758057
v 180.139832 81.7532959 -744.653931
v 175.108643 130.300385 -742.977722
v 167.643127 176.89093 -744.653931
v 157.738342 221.0672 -749.758057
v 85.3869629 9.3409462 -675.860657
v 85.3869629 -38.2875214 -683.43927
v 105.217041 -9.32601547 -680.84082
v 85.3869629 -83.5075989 -695.859802
v 105.833313 -57.9653625 -691.117554
v 123.727356 -25.8062782 -691.117554
v 85.3869629 -125.190536 -712.812439
v 106.036499 -102.632072 -706.164429
v 124.312622 -74.3396301 -704.106384
v 140.838013 -40.0870285 -706.164429
v 85.3869629 -162.295471 -733.873779
v 105.833313 -143.059097 -725.725464
v 124.312622 -118.081909 -721.896545
v 141.130554 -87.8568039 -721.896545
v 156.444153 -52.1018372 -725.725464
v 85.3869629 -193.896164 -758.518066
v 105.217041 -178.77916 -749.758057
v 123.727417 -157.441116 -744.653931
v 140.838013 -130.602997 -742.977722
v 156.444153 -98.6427383 -744.653931
v 170.368225 -61.6901245 -749.758057
v 66.6060791 43.0937996 -675.860657
v 48.2939758 28.3757477 -683.43927
v 65.5568542 -9.32601547 -680.84082
v 30.9078064 14.4019966 -695.859802
v 47.0465393 -25.8062782 -691.117554
v 64.9405823 -57.9653625 -691.117554
v 14.8816223 1.52122688 -712.812439
v 29.9359131 -40.0870285 -706.164429
v 46.4613342 -74.3396301 -704.106384
v 64.7374268 -102.632072 -706.164429
v 0.615539551 -9.94486237 -733.873779
v 14.3298035 -52.1018372 -725.725464
v 29.6433716 -87.8568039 -721.896545
v 46.4613342 -118.081909 -721.896545
v 64.9405823 -143.059097 -725.725525
v -11.5343018 -19.7100487 -758.518066
v 0.405761719 -61.6901245 -749.758057
v 14.3298035 -98.6427383 -744.653931
v 29.9359131 -130.602997 -742.977722
v 47.0465393 -157.441116 -744.653931
v 65.5568542 -178.77916 -749.758057
v 53.3012085 83.9768219 -680.84082
v 41.2449036 122.430664 -691.117554
v 34.4100037 70.3963394 -691.117554
v 30.4668274 158.271515 -706.164429
v 22.4039612 108.809662 -704.106384
v 17.1737976 57.0713348 -706.164429
v 21.0248413 191.272949 -725.725464
v 12.0098877 144.197922 -721.896545
v 5.58602905 95.2926788 -721.896545
v 1.6932373 44.1007881 -725.725464
v 13.0355835 221.0672 -749.758057
v 3.13076782 176.89093 -744.653931
v -4.33474731 130.300385 -742.977722
v -9.36590576 81.7532959 -744.653931
v -11.8499756 31.6128044 -749.758057
g 
f 3 1 2
f 5 2 4
f 6 3 5
f 8 4 7
f 9 5 8
f 10 6 9
f 12 7 11
f 13 8 12
f 14 9 13
f 15 10 14
f 17 11 16
f 18 12 17
f 19 13 18
f 20 14 19
f 21 15 20
f 23 16 22
f 24 17 23
f 25 18 24
f 26 19 25
f 27 20 26
f 28 21 27
f 30 22 29
f 31 23 30
f 32 24 31
f 33 25 32
f 34 26 33
f 35 27 34
f 36 28 35
f 3 2 5
f 5 4 8
f 6 5 9
f 8 7 12
f 9 8 13
f 10 9 14
f 12 11 17
f 13 12 18
f 14 13 19
f 15 14 20
f 17 16 23
f 18 17 24
f 19 18 25
f 20 19 26
f 21 20 27
f 23 22 30
f 24 23 31
f 25 24 32
f 26 25 33
f 27 26 34
f 28 27 35
f 37 1 3
f 38 3 6
f 39 37 38
f 40 6 10
f 41 38 40
f 42 39 41
f 43 10 15
f 44 40 43
f 45 41 44
f 46 42 45
f 47 15 21
f 48 43 47
f 49 44 48
f 50 45 49
f 51 46 50
f 52 21 28
f 53 47 52
f 54 48 53
f 55 49 54
f 56 50 55
f 57 51 56
f 58 28 36
f 59 52 58
f 60 53 59
f 61 54 60
f 62 55 61
f 63 56 62
f 64 57 63
f 37 3 38
f 38 6 40
f 39 38 41
f 40 10 43
f 41 40 44
f 42 41 45
f 43 15 47
f 44 43 48
f 45 44 49
f 46 45 50
f 47 21 52
f 48 47 53
f 49 48 54
f 50 49 55
f 51 50 56
f 52 28 58
f 53 52 59
f 54 53 60
f 55 54 61
f 56 55 62
f 57 56 63
f 65 1 37
f 66 37 39
f 67 65 66
f 68 39 42
f 69 66 68
f 70 67 69
f 71 42 46
f 72 68 71
f 73 69 72
f 74 70 73
f 75 46 51
f 76 71 75
f 77 72 76
f 78 73 77
f 79 74 78
f 80 51 57
f 81 75 80
f 82 76 81
f 83 77 82
f 84 78 83
f 85 79 84
f 86 57 64
f 87 80 86
f 88 81 87
f 89 82 88
f 90 83 89
f 91 84 90
f 92 85 91
f 65 37 66
f 66 39 68
f 67 66 69
f 68 42 71
f 69 68 72
f 70 69 73
f 71 46 75
f 72 71 76
f 73 72 77
f 74 73 78
f 75 51 80
f 76 75 81
f 77 76 82
f 78 77 83
f 79 78 84
f 80 57 86
f 81 80 87
f 82 81 88
f 83 82 89
f 84 83 90
f 85 84 91
f 93 1 65
f 94 65 67
f 95 93 94
f 96 67 70
f 97 94 96
f 98 95 97
f 99 70 74
f 100 96 99
f 101 97 100
f 102 98 101
f 103 74 79
f 104 99 103
f 105 100 104
f 106 101 105
f 107 102 106
f 108 79 85
f 109 103 108
f 110 104 109
f 111 105 110
f 112 106 111
f 113 107 112
f 114 85 92
f 115 108 114
f 116 109 115
f 117 110 116
f 118 111 117
f 119 112 118
f 120 113 119
f 93 65 94
f 94 67 96
f 95 94 97
f 96 70 99
f 97 96 100
f 98 97 101
f 99 74 103
f 100 99 104
f 101 100 105
f 102 101 106
f 103 79 108
f 104 103 109
f 105 104 110
f 106 105 111
f 107 106 112
f 108 85 114
f 109 108 115
f 110 109 116
f 111 110 117
f 112 111 118
f 113 112 119
f 2 1 93
f 121 93 95
f 4 2 121
f 122 95 98
f 123 121 122
f 7 4 123
f 124 98 102
f 125 122 124
f 126 123 125
f 11 7 126
f 127 102 107
f 128 124 127
f 129 125 128
f 130 126 129
f 16 11 130
f 131 107 113
f 132 127 131
f 133 128 132
f 134 129 133
f 135 130 134
f 22 16 135
f 136 113 120
f 137 131 136
f 138 132 137
f 139 133 138
f 140 134 139
f 141 135 140
f 29 22 141
f 2 93 121
f 121 95 122
f 4 121 123
f 122 98 124
f 123 122 125
f 7 123 126
f 124 102 127
f 125 124 128
f 126 125 129
f 11 126 130
f 127 107 131
f 128 127 132
f 129 128 133
f 130 129 134
f 16 130 135
f 131 113 136
f 132 131 137
f 133 132 138
f 134 133 139
f 135 134 140
f 22 135 141
f 142 29 141
f 143 141 140
f 144 142 143
f 145 140 139
f 146 143 145
f 147 144 146
f 148 139 138
f 149 145 148
f 150 146 149
f 151 147 150
f 152 138 137
f 153 148 152
f 154 149 153
f 155 150 154
f 156 151 155
f 157 137 136
f 158 152 157
f 159 153 158
f 160 154 159
f 161 155 160
f 162 156 161
f 163 136 120
f 164 157 163
f 165 158 164
f 166 159 165
f 167 160 166
f 168 161 167
f 169 162 168
f 142 141 143
f 143 140 145
f 144 143 146
f 145 139 148
f 146 145 149
f 147 146 150
f 148 138 152
f 149 148 153
f 150 149 154
f 151 150 155
f 152 137 157
f 153 152 158
f 154 153 159
f 155 154 160
f 156 155 161
f 157 136 163
f 158 157 164
f 159 158 165
f 160 159 166
f 161 160 167
f 162 161 168
f 170 120 119
f 171 119 118
f 172 170 171
f 173 118 117
f 174 171 173
f 175 172 174
f 176 117 116
f 177 173 176
f 178 174 177
f 179 175 178
f 180 116 115
f 181 176 180
f 182 177 181
f 183 178 182
f 184 179 183
f 185 115 114
f 186 180 185
f 187 181 186
f 188 182 187
f 189 183 188
f 190 184 189
f 191 114 92
f 192 185 191
f 193 186 192
f 194 187 193
f 195 188 194
f 196 189 195
f 197 190 196
f 170 119 171
f 171 118 173
f 172 171 174
f 173 117 176
f 174 173 177
f 175 174 178
f 176 116 180
f 177 176 181
f 178 177 182
f 179 178 183
f 180 115 185
f 181 180 186
f 182 181 187
f 183 182 188
f 184 183 189
f 185 114 191
f 186 185 192
f 187 186 193
f 188 187 194
f 189 188 195
f 190 189 196
f 198 92 91
f 199 91 90
f 200 198 199
f 201 90 89
f 202 199 201
f 203 200 202
f 204 89 88
f 205 201 204
f 206 202 205
f 207 203 206
f 208 88 87
f 209 204 208
f 210 205 209
f 211 206 210
f 212 207 211
f 213 87 86
f 214 208 213
f 215 209 214
f 216 210 215
f 217 211 216
f 218 212 217
f 219 86 64
f 220 213 219
f 221 214 220
f 222 215 221
f 223 216 222
f 224 217 223
f 225 218 224
f 198 91 199
f 199 90 201
f 200 199 202
f 201 89 204
f 202 201 205
f 203 202 206
f 204 88 208
f 205 204 209
f 206 205 210
f 207 206 211
f 208 87 213
f 209 208 214
f 210 209 215
f 211 210 216
f 212 211 217
f 213 86 219
f 214 213 220
f 215 214 221
f 216 215 222
f 217 216 223
f 218 217 224
f 226 64 63
f 227 63 62
f 228 226 227
f 229 62 61
f 230 227 229
f 231 228 230
f 232 61 60
f 233 229 232
f 234 230 233
f 235 231 234
f 236 60 59
f 237 232 236
f 238 233 237
f 239 234 238
f 240 235 239
f 241 59 58
f 242 236 241
f 243 237 242
f 244 238 243
f 245 239 244
f 246 240 245
f 247 58 36
f 248 241 247
f 249 242 248
f 250 243 249
f 251 244 250
f 252 245 251
f 253 246 252
f 226 63 227
f 227 62 229
f 228 227 230
f 229 61 232
f 230 229 233
f 231 230 234
f 232 60 236
f 233 232 237
f 234 233 238
f 235 234 239
f 236 59 241
f 237 236 242
f 238 237 243
f 239 238 244
f 240 239 245
f 241 58 247
f 242 241 248
f 243 242 249
f 244 243 250
f 245 244 251
f 246 245 252
f 254 36 35
f 255 35 34
f 256 254 255
f 257 34 33
f 258 255 257
f 259 256 258
f 260 33 32
f 261 257 260
f 262 258 261
f 263 259 262
f 264 32 31
f 265 260 264
f 266 261 265
f 267 262 266
f 268 263 267
f 269 31 30
f 270 264 269
f 271 265 270
f 272 266 271
f 273 267 272
f 274 268 273
f 275 30 29
f 276 269 275
f 277 270 276
f 278 271 277
f 279 272 278
f 280 273 279
f 281 274 280
f 254 35 255
f 255 34 257
f 256 255 258
f 257 33 260
f 258 257 261
f 259 258 262
f 260 32 264
f 261 260 265
f 262 261 266
f 263 262 267
f 264 31 269
f 265 264 270
f 266 265 271
f 267 266 272
f 268 267 273
f 269 30 275
f 270 269 276
f 271 270 277
f 272 271 278
f 273 272 279
f 274 273 280
f 275 29 142
f 282 142 144
f 276 275 282
f 283 144 147
f 284 282 283
f 277 276 284
f 285 147 151
f 286 283 285
f 287 284 286
f 278 277 287
f 288 151 156
f 289 285 288
f 290 286 289
f 291 287 290
f 279 278 291
f 292 156 162
f 293 288 292
f 294 289 293
f 295 290 294
f 296 291 295
f 280 279 296
f 297 162 169
f 298 292 297
f 299 293 298
f 300 294 299
f 301 295 300
f 302 296 301
f 281 280 302
f 275 142 282
f 282 144 283
f 276 282 284
f 283 147 285
f 284 283 286
f 277 284 287
f 285 151 288
f 286 285 289
f 287 286 290
f 278 287 291
f 288 156 292
f 289 288 293
f 290 289 294
f 291 290 295
f 279 291 296
f 292 162 297
f 293 292 298
f 294 293 299
f 295 294 300
f 296 295 301
f 280 296 302
f 163 120 170
f 303 170 172
f 164 163 303
f 304 172 175
f 305 303 304
f 165 164 305
f 306 175 179
f 307 304 306
f 308 305 307
f 166 165 308
f 309 179 184
f 310 306 309
f 311 307 310
f 312 308 311
f 167 166 312
f 313 184 190
f 314 309 313
f 315 310 314
f 316 311 315
f 317 312 316
f 168 167 317
f 318 190 197
f 319 313 318
f 320 314 319
f 321 315 320
f 322 316 321
f 323 317 322
f 169 168 323
f 163 170 303
f 303 172 304
f 164 303 305
f 304 175 306
f 305 304 307
f 165 305 308
f 306 179 309
f 307 306 310
f 308 307 311
f 166 308 312
f 309 184 313
f 310 309 314
f 311 310 315
f 312 311 316
f 167 312 317
f 313 190 318
f 314 313 319
f 315 314 320
f 316 315 321
f 317 316 322
f 168 317 323
f 191 92 198
f 324 198 200
f 192 191 324
f 325 200 203
f 326 324 325
f 193 192 326
f 327 203 207
f 328 325 327
f 329 326 328
f 194 193 329
f 330 207 212
f 331 327 330
f 332 328 331
f 333 329 332
f 195 194 333
f 334 212 218
f 335 330 334
f 336 331 335
f 337 332 336
f 338 333 337
f 196 195 338
f 339 218 225
f 340 334 339
f 341 335 340
f 342 336 341
f 343 337 342
f 344 338 343
f 197 196 344
f 191 198 324
f 324 200 325
f 192 324 326
f 325 203 327
f 326 325 328
f 193 326 329
f 327 207 330
f 328 327 331
f 329 328 332
f 194 329 333
f 330 212 334
f 331 330 335
f 332 331 336
f 333 332 337
f 195 333 338
f 334 218 339
f 335 334 340
f 336 335 341
f 337 336 342
f 338 337 343
f 196 338 344
f 219 64 226
f 345 226 228
f 220 219 345
f 346 228 231
f 347 345 346
f 221 220 347
f 348 231 235
f 349 346 348
f 350 347 349
f 222 221 350
f 351 235 240
f 352 348 351
f 353 349 352
f 354 350 353
f 223 222 354
f 355 240 246
f 356 351 355
f 357 352 356
f 358 353 357
f 359 354 358
f 224 223 359
f 360 246 253
f 361 355 360
f 362 356 361
f 363 357 362
f 364 358 363
f 365 359 364
f 225 224 365
f 219 226 345
f 345 228 346
f 220 345 347
f 346 231 348
f 347 346 349
f 221 347 350
f 348 235 351
f 349 348 352
f 350 349 353
f 222 350 354
f 351 240 355
f 352 351 356
f 353 352 357
f 354 353 358
f 223 354 359
f 355 246 360
f 356 355 361
f 357 356 362
f 358 357 363
f 359 358 364
f 224 359 365
f 247 36 254
f 366 254 256
f 248 247 366
f 367 256 259
f 368 366 367
f 249 248 368
f 369 259 263
f 370 367 369
f 371 368 370
f 250 249 371
f 372 263 268
f 373 369 372
f 374 370 373
f 375 371 374
f 251 250 375
f 376 268 274
f 377 372 376
f 378 373 377
f 379 374 378
f 380 375 379
f 252 251 380
f 381 274 281
f 382 376 381
f 383 377 382
f 384 378 383
f 385 379 384
f 386 380 385
f 253 252 386
f 247 254 366
f 366 256 367
f 248 366 368
f 367 259 369
f 368 367 370
f 249 368 371
f 369 263 372
f 370 369 373
f 371 370 374
f 250 371 375
f 372 268 376
f 373 372 377
f 374 373 378
f 375 374 379
f 251 375 380
f 376 274 381
f 377 376 382
f 378 377 383
f 379 378 384
f 380 379 385
f 252 380 386
f 389 387 388
f 391 388 390
f 392 389 391
f 394 390 393
f 395 391 394
f 396 392 395
f 398 393 397
f 399 394 398
f 400 395 399
f 401 396 400
f 403 397 402
f 404 398 403
f 405 399 404
f 406 400 405
f 407 401 406
f 409 402 408
f 410 403 409
f 411 404 410
f 412 405 411
f 413 406 412
f 414 407 413
f 302 408 281
f 301 409 302
f 300 410 301
f 299 411 300
f 298 412 299
f 297 413 298
f 169 414 297
f 389 388 391
f 391 390 394
f 392 391 395
f 394 393 398
f 395 394 399
f 396 395 400
f 398 397 403
f 399 398 404
f 400 399 405
f 401 400 406
f 403 402 409
f 404 403 410
f 405 404 411
f 406 405 412
f 407 406 413
f 409 408 302
f 410 409 301
f 411 410 300
f 412 411 299
f 413 412 298
f 414 413 297
f 388 387 415
f 417 415 416
f 390 388 417
f 419 416 418
f 420 417 419
f 393 390 420
f 422 418 421
f 423 419 422
f 424 420 423
f 397 393 424
f 426 421 425
f 427 422 426
f 428 423 427
f 429 424 428
f 402 397 429
f 431 425 430
f 432 426 431
f 433 427 432
f 434 428 433
f 435 429 434
f 408 402 435
f 386 430 253
f 385 431 386
f 384 432 385
f 383 433 384
f 382 434 383
f 381 435 382
f 281 408 381
f 388 415 417
f 417 416 419
f 390 417 420
f 419 418 422
f 420 419 423
f 393 420 424
f 422 421 426
f 423 422 427
f 424 423 428
f 397 424 429
f 426 425 431
f 427 426 432
f 428 427 433
f 429 428 434
f 402 429 435
f 431 430 386
f 432 431 385
f 433 432 384
f 434 433 383
f 435 434 382
f 408 435 381
f 415 387 436
f 438 436 437
f 416 415 438
f 440 437 439
f 441 438 440
f 418 416 441
f 443 439 442
f 444 440 443
f 445 441 444
f 421 418 445
f 447 442 446
f 448 443 447
f 449 444 448
f 450 445 449
f 425 421 450
f 452 446 451
f 453 447 452
f 454 448 453
f 455 449 454
f 456 450 455
f 430 425 456
f 365 451 225
f 364 452 365
f 363 453 364
f 362 454 363
f 361 455 362
f 360 456 361
f 253 430 360
f 415 436 438
f 438 437 440
f 416 438 441
f 440 439 443
f 441 440 444
f 418 441 445
f 443 442 447
f 444 443 448
f 445 444 449
f 421 445 450
f 447 446 452
f 448 447 453
f 449 448 454
f 450 449 455
f 425 450 456
f 452 451 365
f 453 452 364
f 454 453 363
f 455 454 362
f 456 455 361
f 430 456 360
f 436 387 457
f 459 457 458
f 437 436 459
f 461 458 460
f 462 459 461
f 439 437 462
f 464 460 463
f 465 461 464
f 466 462 465
f 442 439 466
f 468 463 467
f 469 464 468
f 470 465 469
f 471 466 470
f 446 442 471
f 473 467 472
f 474 468 473
f 475 469 474
f 476 470 475
f 477 471 476
f 451 446 477
f 344 472 197
f 343 473 344
f 342 474 343
f 341 475 342
f 340 476 341
f 339 477 340
f 225 451 339
f 436 457 459
f 459 458 461
f 437 459 462
f 461 460 464
f 462 461 465
f 439 462 466
f 464 463 468
f 465 464 469
f 466 465 470
f 442 466 471
f 468 467 473
f 469 468 474
f 470 469 475
f 471 470 476
f 446 471 477
f 473 472 344
f 474 473 343
f 475 474 342
f 476 475 341
f 477 476 340
f 451 477 339
f 457 387 389
f 478 389 392
f 458 457 478
f 479 392 396
f 480 478 479
f 460 458 480
f 481 396 401
f 482 479 481
f 483 480 482
f 463 460 483
f 484 401 407
f 485 481 484
f 486 482 485
f 487 483 486
f 467 463 487
f 488 407 414
f 489 484 488
f 490 485 489
f 491 486 490
f 492 487 491
f 472 467 492
f 323 414 169
f 322 488 323
f 321 489 322
f 320 490 321
f 319 491 320
f 318 492 319
f 197 472 318
f 457 389 478
f 478 392 479
f 458 478 480
f 479 396 481
f 480 479 482
f 460 480 483
f 481 401 484
f 482 481 485
f 483 482 486
f 463 483 487
f 484 407 488
f 485 484 489
f 486 485 490
f 487 486 491
f 467 487 492
f 488 414 323
f 489 488 322
f 490 489 321
f 491 490 320
f 492 491 319
f 472 492 318
