# File exported by Houdini 20.5.445 (www.sidefx.com)
# 492 points
# 2940 vertices
# 980 primitives
# Bounds: [-225.602234, -45.869976, -1120.80249] to [396.376129, 162.247086, -633.998535]
g 
v 85.3869324 58.188549 -1120.80249
v 85.3869324 74.6491241 -1117.7644
v 132.117889 63.2751732 -1117.7644
v 85.3869324 90.6988831 -1108.72595
v 134.728607 80.9395294 -1111.82495
v 177.682465 68.2348022 -1108.72595
v 85.3869324 105.937119 -1093.91272
v 136.262115 97.329895 -1099.56848
v 180.786469 86.4930115 -1099.56848
v 220.943146 72.9436951 -1093.91272
v 85.3869324 119.983353 -1073.69434
v 136.767487 112.381638 -1081.62292
v 182.242462 102.847733 -1084.07751
v 223.36142 91.3052979 -1081.62292
v 260.819916 77.2842102 -1073.69434
v 85.3869324 132.486954 -1048.57593
v 136.262115 126.004669 -1058.29382
v 182.242523 117.587952 -1062.86035
v 224.089325 107.40271 -1062.86035
v 262.192902 95.3540039 -1058.29382
v 296.316986 81.1480255 -1048.57593
v 85.3869324 143.135712 -1019.18408
v 134.728668 138.041611 -1029.63171
v 180.786469 130.851089 -1035.71899
v 223.36142 121.807281 -1037.71826
v 262.192902 111.037354 -1035.71912
v 296.839081 98.5850525 -1029.63171
v 326.548553 84.4387054 -1019.18408
v 85.3869324 151.663879 -986.253174
v 132.117889 148.222321 -995.490601
v 177.682587 142.533203 -1001.78003
v 220.943146 134.738495 -1004.9646
v 260.819916 125.032791 -1004.9646
v 296.316986 113.658401 -1001.78003
v 326.548553 100.899307 -995.490601
v 350.759552 87.0740509 -986.253174
v 114.268219 44.8716393 -1117.7644
v 165.223419 49.498455 -1111.82495
v 142.428802 31.8871193 -1108.72595
v 212.229034 54.0747948 -1099.5686
v 195.222198 36.5402946 -1099.5686
v 169.165314 19.5591469 -1093.91272
v 255.116364 58.5650139 -1081.62292
v 242.10257 41.1302757 -1084.07751
v 222.040497 24.4627266 -1081.62317
v 193.810455 8.19549179 -1073.69434
v 293.635529 62.9358025 -1058.29382
v 283.94931 45.6852303 -1062.86035
v 267.965302 29.2051888 -1062.86035
v 245.534149 13.3419189 -1058.29382
v 215.748993 -1.9201355 -1048.57593
v 327.333893 67.1439819 -1029.63171
v 321.153046 50.2477303 -1035.71912
v 308.634369 33.8883972 -1037.71826
v 290.058502 18.1883469 -1035.71912
v 265.413239 3.30189133 -1029.63171
v 234.432953 -10.5351601 -1019.18408
v 355.42984 71.1217957 -995.490601
v 353.358795 54.8466072 -1001.78003
v 344.598358 38.654808 -1004.9646
v 329.366791 22.9506073 -1004.9646
v 308.044586 8.12615585 -1001.78003
v 281.164032 -5.44856262 -995.490601
v 249.39621 -17.4345741 -986.253174
v 56.5056458 44.8716393 -1117.7644
v 85.3869324 30.0667801 -1111.82495
v 28.3451233 31.8871193 -1108.72595
v 112.90451 16.5047569 -1099.5686
v 57.8694153 16.5047569 -1099.5686
v 1.60861206 19.5591469 -1093.91272
v 138.904938 4.22811317 -1081.62292
v 85.3869324 2.98676682 -1084.07751
v 31.868988 4.22811317 -1081.62292
v -23.0365906 8.19549179 -1073.69434
v 163.216461 -6.69361877 -1058.29382
v 111.249664 -8.93829346 -1062.86035
v 59.5242004 -8.93829346 -1062.86035
v 7.5574646 -6.6936512 -1058.29382
v -44.9750671 -1.9201355 -1048.57593
v 185.576691 -16.1297455 -1029.63171
v 135.698883 -19.3817406 -1035.71912
v 85.3869324 -20.4485474 -1037.71826
v 35.0750427 -19.3817406 -1035.71912
v -14.8028259 -16.1297455 -1029.63171
v -63.6590881 -10.5351601 -1019.18408
v 205.551666 -23.8520622 -995.490601
v 158.707184 -28.2215462 -1001.78003
v 110.032135 -30.433918 -1004.9646
v 60.7417908 -30.433918 -1004.9646
v 12.066803 -28.2215462 -1001.78003
v -34.777771 -23.8520622 -995.490601
v -78.6223145 -17.4345741 -986.253174
v 38.6559753 63.2751732 -1117.7644
v 5.55044556 49.498455 -1111.82495
v -6.90853882 68.2348022 -1108.72595
v -24.4482727 36.5402946 -1099.5686
v -41.4550781 54.0747948 -1099.5686
v -50.1693115 72.9436951 -1093.91272
v -51.266571 24.4627266 -1081.62317
v -71.3286438 41.1302757 -1084.07751
v -84.3424377 58.5650139 -1081.62292
v -90.04599 77.2842102 -1073.69434
v -74.7602844 13.3419189 -1058.29382
v -97.1914062 29.2051888 -1062.86035
v -113.175476 45.6852303 -1062.86035
v -122.861572 62.9358025 -1058.29382
v -125.543121 81.1480255 -1048.57593
v -94.6393433 3.30189133 -1029.63171
v -119.284637 18.1883469 -1035.71912
v -137.860535 33.8883972 -1037.71826
v -150.37915 50.2477303 -1035.71912
v -156.560028 67.1439819 -1029.63171
v -155.774597 84.4387054 -1019.18408
v -110.390106 -5.44856262 -995.490601
v -137.27066 8.12615585 -1001.78003
v -158.592865 22.9506073 -1004.9646
v -173.824432 38.654808 -1004.9646
v -182.584991 54.8466072 -1001.78003
v -184.656006 71.1217957 -995.490601
v -179.985626 87.0740509 -986.253174
v 36.0453186 80.9395294 -1111.82495
v -10.0125427 86.4930115 -1099.56848
v 34.5118713 97.329895 -1099.56848
v -52.5875244 91.3052979 -1081.62292
v -11.4685974 102.847733 -1084.07751
v 34.0063782 112.381638 -1081.62292
v -91.4189758 95.3540039 -1058.29382
v -53.3153992 107.40271 -1062.86035
v -11.4685974 117.587952 -1062.86035
v 34.5118713 126.004669 -1058.29382
v -126.065186 98.5850525 -1029.63171
v -91.4189758 111.037354 -1035.71912
v -52.5875244 121.807281 -1037.71826
v -10.0125427 130.851089 -1035.71899
v 36.0452576 138.041611 -1029.63171
v -155.774567 100.899307 -995.490601
v -125.543121 113.658401 -1001.78003
v -90.04599 125.032791 -1004.9646
v -50.1693115 134.738495 -1004.9646
v -6.90866089 142.533203 -1001.78003
v 38.6559753 148.222321 -995.490601
v 56.5056458 156.452606 -957.153564
v 5.55044556 152.102478 -964.135742
v 28.3451233 158.788361 -926.062988
v -41.4550781 145.348953 -968.187622
v -24.4482727 153.190613 -931.660767
v 1.60861206 158.612762 -893.757568
v -84.3424377 136.449173 -969.515747
v -71.3285828 145.188797 -934.294556
v -51.26651 151.700165 -898.476196
v -23.0365906 155.930145 -861.043701
v -122.861542 125.535202 -968.187622
v -113.175415 135.003601 -934.294556
v -97.1913452 142.373672 -899.964478
v -74.7601929 147.714203 -864.877075
v -44.9749756 150.807556 -828.738159
v -156.559998 112.64595 -964.135742
v -150.379059 122.539948 -931.660767
v -137.860382 130.623795 -898.476196
v -119.284546 136.877304 -864.877075
v -94.6392517 141.19693 -831.144165
v -63.6590881 143.372849 -797.647461
v -184.655914 97.7556152 -957.153564
v -182.5849 107.449463 -926.062988
v -173.824341 115.91362 -893.757568
v -158.592773 122.936707 -861.043701
v -137.270569 128.343475 -828.738159
v -110.390076 131.998856 -797.647461
v -78.6223145 133.811661 -768.547974
v -202.505554 79.3520966 -957.153564
v -205.901733 61.7731895 -964.135742
v -217.838715 71.1017761 -926.062988
v -201.254333 44.7100182 -968.187622
v -218.261017 52.5516777 -931.660767
v -225.602234 62.5290718 -893.757568
v -189.241058 28.2956619 -969.515747
v -210.031006 35.1426277 -934.294556
v -222.316956 43.5466347 -898.476196
v -225.602234 53.8480186 -861.043701
v -170.159729 12.65065 -968.187622
v -194.046936 18.6626053 -934.294556
v -210.031006 26.0326614 -899.964478
v -218.261017 34.8296776 -864.877075
v -217.838715 45.2753181 -828.738159
v -143.981049 -2.06887436 -964.135742
v -170.159729 2.95782471 -931.660767
v -189.240997 9.44438553 -898.476196
v -201.254211 17.2951927 -864.877075
v -205.901703 26.4821014 -831.144165
v -202.505554 37.0250092 -797.647461
v -110.390076 -15.6217842 -957.153564
v -137.270569 -11.9663963 -926.062988
v -158.592773 -6.55962563 -893.757568
v -173.824341 0.4634552 -861.043701
v -182.5849 8.92762756 -828.738159
v -184.655914 18.6214752 -797.647461
v -179.985626 29.3030472 -768.547974
v -63.6590881 -26.9957695 -957.153564
v -14.8028259 -33.5099602 -964.135742
v -44.9749756 -34.4304619 -926.062988
v 35.0750427 -37.3020935 -968.187622
v 7.5574646 -40.2973213 -931.660767
v -23.0365906 -39.5530663 -893.757568
v 85.3869324 -38.5468941 -969.515747
v 59.5242004 -43.0548897 -934.294556
v 31.868988 -44.3722496 -898.476196
v 1.60861206 -42.2356606 -861.043701
v 135.698883 -37.3020935 -968.187622
v 111.249664 -43.0548897 -934.294556
v 85.3869324 -45.869976 -899.964478
v 57.8694153 -45.7736855 -864.877075
v 28.3451233 -42.4112968 -828.738159
v 185.576691 -33.5099602 -964.135742
v 163.216461 -40.2973213 -931.660767
v 138.904938 -44.3722496 -898.476196
v 112.90451 -45.7736855 -864.877075
v 85.3869324 -44.4154549 -831.144165
v 56.5056458 -40.0755424 -797.647461
v 234.432953 -26.9957695 -957.153564
v 215.748993 -34.4304619 -926.062988
v 193.810455 -39.5530663 -893.757568
v 169.165314 -42.2356606 -861.043701
v 142.428802 -42.4112968 -828.738159
v 114.268219 -40.0755424 -797.647461
v 85.3869324 -35.2867737 -768.547974
v 281.16391 -15.6217842 -957.153564
v 314.754913 -2.06887436 -964.135742
v 308.044464 -11.9663963 -926.062988
v 340.933685 12.65065 -968.187622
v 340.933685 2.95782471 -931.660767
v 329.366791 -6.55962563 -893.757568
v 360.014984 28.2956619 -969.515747
v 364.82077 18.6626053 -934.294556
v 360.014862 9.44438553 -898.476196
v 344.598236 0.4634552 -861.043701
v 372.028168 44.7100182 -968.187622
v 380.804962 35.1426277 -934.294556
v 380.804962 26.0326614 -899.964478
v 372.028168 17.2951927 -864.877075
v 353.358795 8.92762756 -828.738159
v 376.675568 61.7731895 -964.135742
v 389.034943 52.5516777 -931.660767
v 393.090851 43.5466347 -898.476196
v 389.034943 34.8296776 -864.877075
v 376.675568 26.4821014 -831.144165
v 355.42984 18.6214752 -797.647461
v 373.27951 79.3520966 -957.153564
v 388.61264 71.1017761 -926.062988
v 396.376129 62.5290718 -893.757568
v 396.376129 53.8480186 -861.043701
v 388.61264 45.2753181 -828.738159
v 373.27951 37.0250092 -797.647461
v 350.759552 29.3030472 -768.547974
v 355.42984 97.7556152 -957.153564
v 327.333893 112.64595 -964.135742
v 353.358795 107.449463 -926.062988
v 293.635406 125.535202 -968.187622
v 321.152924 122.539948 -931.660767
v 344.598236 115.91362 -893.757568
v 255.116364 136.449173 -969.515747
v 283.94931 135.003601 -934.294556
v 308.634308 130.623795 -898.476196
v 329.366791 122.936707 -861.043701
v 212.229034 145.348953 -968.187622
v 242.10257 145.188797 -934.294556
v 267.965179 142.373672 -899.964478
v 290.058502 136.877304 -864.877075
v 308.044464 128.343475 -828.738159
v 165.223419 152.102478 -964.135742
v 195.222198 153.190613 -931.660767
v 222.040436 151.700165 -898.476196
v 245.534088 147.714203 -864.877075
v 265.413177 141.19693 -831.144165
v 281.16391 131.998856 -797.647461
v 114.268219 156.452606 -957.153564
v 142.428802 158.788361 -926.062988
v 169.165314 158.612762 -893.757568
v 193.810455 155.930145 -861.043701
v 215.748993 150.807556 -828.738159
v 234.432953 143.372849 -797.647461
v 249.39621 133.811661 -768.547974
v 85.3869324 160.792572 -923.656982
v 57.8694153 162.150772 -889.924194
v 112.90451 162.150772 -889.924194
v 31.868988 160.749329 -856.324829
v 85.3869324 162.247086 -854.836792
v 138.904938 160.749329 -856.324829
v 7.5574646 156.674393 -823.140259
v 59.5242004 159.431946 -820.50647
v 111.249664 159.431946 -820.50647
v 163.216461 156.674393 -823.140259
v -14.8028259 149.887039 -790.665405
v 35.0750427 153.679153 -786.613525
v 85.3869324 154.924011 -785.285278
v 135.698883 153.679153 -786.613525
v 185.576691 149.887039 -790.665405
v -34.777771 140.229141 -759.310547
v 12.066803 144.598633 -753.021118
v 60.7417908 146.811005 -749.836548
v 110.032135 146.811005 -749.836548
v 158.707184 144.598633 -753.021118
v 205.551666 140.229141 -759.310547
v -205.901703 89.8949738 -923.656982
v -218.261017 81.5473938 -889.924194
v -201.254211 99.0818939 -889.924194
v -222.316956 72.8304596 -856.324829
v -210.031006 90.3444061 -854.836792
v -189.240997 106.932724 -856.324829
v -218.261017 63.8254051 -823.140259
v -210.031006 81.234436 -820.50647
v -194.046936 97.7144928 -820.50647
v -170.159729 113.419266 -823.140259
v -205.901733 54.6039009 -790.665405
v -201.254333 71.6670532 -786.613525
v -189.241058 88.0814209 -785.285278
v -170.159729 103.72644 -786.613525
v -143.981049 118.445969 -790.665405
v -184.656006 45.2552834 -759.310547
v -182.584991 61.5304756 -753.021118
v -173.824432 77.7222748 -749.836548
v -158.592865 93.4264526 -749.836548
v -137.27066 108.250946 -753.021118
v -110.390106 121.825623 -759.310547
v -94.6392517 -24.8198547 -923.656982
v -74.7601929 -31.3371506 -889.924194
v -119.284546 -20.5002213 -889.924194
v -51.26651 -35.3230743 -856.324829
v -97.1913452 -25.9965744 -854.836792
v -137.860382 -14.246727 -856.324829
v -24.4482727 -36.8135071 -823.140259
v -71.3285828 -28.8117256 -820.50647
v -113.175415 -18.6264839 -820.50647
v -150.379028 -6.16285515 -823.140259
v 5.55044556 -35.7253761 -790.665527
v -41.4550171 -28.9718781 -786.613647
v -84.3424377 -20.0721169 -785.2854
v -122.861542 -9.1581192 -786.613647
v -156.559937 3.73111916 -790.665405
v 38.6559753 -31.8452721 -759.310547
v -6.90866089 -26.1561165 -753.021118
v -50.1693115 -18.3614006 -749.836548
v -90.04599 -8.65572357 -749.836548
v -125.543121 2.71868324 -753.021118
v -155.774567 15.4777985 -759.310547
v 265.413239 -24.8198547 -923.656982
v 290.058502 -20.5002213 -889.924194
v 245.534088 -31.3371506 -889.924194
v 308.634308 -14.246727 -856.324829
v 267.965179 -25.9965744 -854.836792
v 222.040436 -35.3230743 -856.324829
v 321.152924 -6.16285515 -823.140259
v 283.94931 -18.6264839 -820.50647
v 242.10257 -28.8117256 -820.50647
v 195.222198 -36.8135414 -823.140259
v 327.333893 3.73111916 -790.665405
v 293.635406 -9.1581192 -786.613647
v 255.116364 -20.0721169 -785.2854
v 212.229034 -28.9718781 -786.613647
v 165.223419 -35.7254066 -790.665527
v 326.548553 15.4777985 -759.310547
v 296.316986 2.71868324 -753.021118
v 260.819916 -8.65572357 -749.836548
v 220.943146 -18.3614006 -749.836548
v 177.682587 -26.1561165 -753.021118
v 132.117889 -31.8452721 -759.310547
v 376.675568 89.8949738 -923.656982
v 372.028168 99.0818939 -889.924194
v 389.034943 81.5473938 -889.924194
v 360.014862 106.932724 -856.324829
v 380.804962 90.3444061 -854.836548
v 393.090851 72.8304596 -856.324829
v 340.933624 113.419266 -823.140259
v 364.82077 97.7144928 -820.50647
v 380.804962 81.234436 -820.50647
v 389.034943 63.8254051 -823.140259
v 314.754913 118.445953 -790.665405
v 340.933685 103.72644 -786.613525
v 360.014984 88.0814209 -785.285278
v 372.028168 71.6670532 -786.613525
v 376.675568 54.6039009 -790.665405
v 281.164032 121.825623 -759.310547
v 308.044586 108.250946 -753.021118
v 329.366791 93.4264526 -749.836548
v 344.598358 77.7222748 -749.836548
v 353.358795 61.5304756 -753.021118
v 355.42984 45.2552834 -759.310547
v 85.3869324 58.188549 -633.998535
v 114.268219 71.5054321 -637.036621
v 56.5056458 71.5054321 -637.036621
v 142.428802 84.4899597 -646.075195
v 85.3869324 86.3102875 -642.976074
v 28.3451233 84.4899597 -646.075195
v 169.165314 96.8179321 -660.888306
v 112.90451 99.872345 -655.232544
v 57.8694153 99.872345 -655.232544
v 1.60861206 96.8179321 -660.888306
v 193.810455 108.181595 -681.106689
v 138.904938 112.148987 -673.177979
v 85.3869324 113.390335 -670.723511
v 31.868988 112.148987 -673.177979
v -23.0365906 108.181595 -681.106689
v 215.748993 118.297211 -706.22522
v 163.216461 123.070709 -696.507324
v 111.249664 125.315399 -691.940674
v 59.5242004 125.315399 -691.940674
v 7.5574646 123.07074 -696.507324
v -44.9750671 118.297211 -706.22522
v 234.432953 126.912247 -735.616943
v 185.576691 132.506836 -725.169434
v 135.698883 135.75882 -719.082031
v 85.3869324 136.825623 -717.082886
v 35.0750427 135.75882 -719.082031
v -14.8028259 132.506836 -725.169434
v -63.6590881 126.912247 -735.616943
v 132.117889 53.1019173 -637.036621
v 177.682465 48.1422768 -646.075195
v 165.223419 66.8786469 -642.976074
v 220.943146 43.4333916 -660.888306
v 212.229034 62.3022728 -655.232544
v 195.222198 79.836792 -655.232544
v 260.819916 39.0928688 -681.106689
v 255.116364 57.8120842 -673.177979
v 242.10257 75.2468109 -670.723511
v 222.040497 91.9143524 -673.177979
v 296.316986 35.2290382 -706.22522
v 293.635529 53.441288 -696.507324
v 283.94931 70.6918335 -691.940674
v 267.965302 87.1718903 -691.940674
v 245.534149 103.035156 -696.507324
v 326.548553 31.9383774 -735.616943
v 327.333893 49.2331047 -725.169434
v 321.153046 66.129364 -719.082031
v 308.634369 82.4887085 -717.082886
v 290.058502 98.1887207 -719.082031
v 265.413239 113.07518 -725.169434
v 85.3869324 41.7279472 -637.036621
v 85.3869324 25.6782036 -646.075195
v 134.728607 35.4375458 -642.976196
v 85.3869324 10.4399719 -660.888306
v 136.262115 19.0471878 -655.232544
v 180.786469 29.884079 -655.232544
v 85.3869324 -3.60625648 -681.106689
v 136.767487 3.99546432 -673.178101
v 182.242462 13.5293503 -670.723633
v 223.36142 25.0717735 -673.177979
v 85.3869324 -16.1098557 -706.22522
v 136.262115 -9.62757874 -696.507324
v 182.242523 -1.21086311 -691.940796
v 224.089325 8.97434998 -691.940796
v 262.192902 21.0230751 -696.507324
v 85.3869324 -26.7586441 -735.616943
v 134.728668 -21.6645012 -725.169434
v 180.786469 -14.4740067 -719.082031
v 223.36142 -5.43020439 -717.082886
v 262.192902 5.33972168 -719.082031
v 296.839081 17.7920265 -725.169434
v 38.6559753 53.1019173 -637.036621
v -6.90853882 48.1422768 -646.075195
v 36.0453186 35.4375458 -642.976196
v -50.1693115 43.4333916 -660.888306
v -10.0125427 29.884079 -655.232544
v 34.5118713 19.0471878 -655.232544
v -90.04599 39.0928688 -681.106689
v -52.5875244 25.0717735 -673.177979
v -11.4685974 13.5293503 -670.723633
v 34.0063782 3.99546432 -673.178101
v -125.543121 35.2290382 -706.22522
v -91.4189758 21.0230751 -696.507324
v -53.3153992 8.97434998 -691.940796
v -11.4685974 -1.21086311 -691.940796
v 34.5118713 -9.62757874 -696.507324
v -155.774597 31.9383774 -735.616943
v -126.065186 17.7920265 -725.169434
v -91.4189758 5.33972168 -719.082031
v -52.5875244 -5.43020439 -717.082886
v -10.0125427 -14.4740067 -719.082031
v 36.0452576 -21.6645012 -725.169434
v 5.55044556 66.8786469 -642.976074
v -24.4482727 79.836792 -655.232544
v -41.4550781 62.3022728 -655.232544
v -51.266571 91.9143524 -673.177979
v -71.3286438 75.2468109 -670.723511
v -84.3424377 57.8120842 -673.177979
v -74.7602844 103.035156 -696.507324
v -97.1914062 87.1718903 -691.940674
v -113.175476 70.6918335 -691.940674
v -122.861572 53.441288 -696.507324
v -94.6393433 113.07518 -725.169434
v -119.284637 98.1887207 -719.082031
v -137.860535 82.4887085 -717.082886
v -150.37915 66.129364 -719.082031
v -156.560028 49.2331047 -725.169434
g 
f 3 1 2
f 5 2 4
f 6 3 5
f 8 4 7
f 9 5 8
f 10 6 9
f 12 7 11
f 13 8 12
f 14 9 13
f 15 10 14
f 17 11 16
f 18 12 17
f 19 13 18
f 20 14 19
f 21 15 20
f 23 16 22
f 24 17 23
f 25 18 24
f 26 19 25
f 27 20 26
f 28 21 27
f 30 22 29
f 31 23 30
f 32 24 31
f 33 25 32
f 34 26 33
f 35 27 34
f 36 28 35
f 3 2 5
f 5 4 8
f 6 5 9
f 8 7 12
f 9 8 13
f 10 9 14
f 12 11 17
f 13 12 18
f 14 13 19
f 15 14 20
f 17 16 23
f 18 17 24
f 19 18 25
f 20 19 26
f 21 20 27
f 23 22 30
f 24 23 31
f 25 24 32
f 26 25 33
f 27 26 34
f 28 27 35
f 37 1 3
f 38 3 6
f 39 37 38
f 40 6 10
f 41 38 40
f 42 39 41
f 43 10 15
f 44 40 43
f 45 41 44
f 46 42 45
f 47 15 21
f 48 43 47
f 49 44 48
f 50 45 49
f 51 46 50
f 52 21 28
f 53 47 52
f 54 48 53
f 55 49 54
f 56 50 55
f 57 51 56
f 58 28 36
f 59 52 58
f 60 53 59
f 61 54 60
f 62 55 61
f 63 56 62
f 64 57 63
f 37 3 38
f 38 6 40
f 39 38 41
f 40 10 43
f 41 40 44
f 42 41 45
f 43 15 47
f 44 43 48
f 45 44 49
f 46 45 50
f 47 21 52
f 48 47 53
f 49 48 54
f 50 49 55
f 51 50 56
f 52 28 58
f 53 52 59
f 54 53 60
f 55 54 61
f 56 55 62
f 57 56 63
f 65 1 37
f 66 37 39
f 67 65 66
f 68 39 42
f 69 66 68
f 70 67 69
f 71 42 46
f 72 68 71
f 73 69 72
f 74 70 73
f 75 46 51
f 76 71 75
f 77 72 76
f 78 73 77
f 79 74 78
f 80 51 57
f 81 75 80
f 82 76 81
f 83 77 82
f 84 78 83
f 85 79 84
f 86 57 64
f 87 80 86
f 88 81 87
f 89 82 88
f 90 83 89
f 91 84 90
f 92 85 91
f 65 37 66
f 66 39 68
f 67 66 69
f 68 42 71
f 69 68 72
f 70 69 73
f 71 46 75
f 72 71 76
f 73 72 77
f 74 73 78
f 75 51 80
f 76 75 81
f 77 76 82
f 78 77 83
f 79 78 84
f 80 57 86
f 81 80 87
f 82 81 88
f 83 82 89
f 84 83 90
f 85 84 91
f 93 1 65
f 94 65 67
f 95 93 94
f 96 67 70
f 97 94 96
f 98 95 97
f 99 70 74
f 100 96 99
f 101 97 100
f 102 98 101
f 103 74 79
f 104 99 103
f 105 100 104
f 106 101 105
f 107 102 106
f 108 79 85
f 109 103 108
f 110 104 109
f 111 105 110
f 112 106 111
f 113 107 112
f 114 85 92
f 115 108 114
f 116 109 115
f 117 110 116
f 118 111 117
f 119 112 118
f 120 113 119
f 93 65 94
f 94 67 96
f 95 94 97
f 96 70 99
f 97 96 100
f 98 97 101
f 99 74 103
f 100 99 104
f 101 100 105
f 102 101 106
f 103 79 108
f 104 103 109
f 105 104 110
f 106 105 111
f 107 106 112
f 108 85 114
f 109 108 115
f 110 109 116
f 111 110 117
f 112 111 118
f 113 112 119
f 2 1 93
f 121 93 95
f 4 2 121
f 122 95 98
f 123 121 122
f 7 4 123
f 124 98 102
f 125 122 124
f 126 123 125
f 11 7 126
f 127 102 107
f 128 124 127
f 129 125 128
f 130 126 129
f 16 11 130
f 131 107 113
f 132 127 131
f 133 128 132
f 134 129 133
f 135 130 134
f 22 16 135
f 136 113 120
f 137 131 136
f 138 132 137
f 139 133 138
f 140 134 139
f 141 135 140
f 29 22 141
f 2 93 121
f 121 95 122
f 4 121 123
f 122 98 124
f 123 122 125
f 7 123 126
f 124 102 127
f 125 124 128
f 126 125 129
f 11 126 130
f 127 107 131
f 128 127 132
f 129 128 133
f 130 129 134
f 16 130 135
f 131 113 136
f 132 131 137
f 133 132 138
f 134 133 139
f 135 134 140
f 22 135 141
f 142 29 141
f 143 141 140
f 144 142 143
f 145 140 139
f 146 143 145
f 147 144 146
f 148 139 138
f 149 145 148
f 150 146 149
f 151 147 150
f 152 138 137
f 153 148 152
f 154 149 153
f 155 150 154
f 156 151 155
f 157 137 136
f 158 152 157
f 159 153 158
f 160 154 159
f 161 155 160
f 162 156 161
f 163 136 120
f 164 157 163
f 165 158 164
f 166 159 165
f 167 160 166
f 168 161 167
f 169 162 168
f 142 141 143
f 143 140 145
f 144 143 146
f 145 139 148
f 146 145 149
f 147 146 150
f 148 138 152
f 149 148 153
f 150 149 154
f 151 150 155
f 152 137 157
f 153 152 158
f 154 153 159
f 155 154 160
f 156 155 161
f 157 136 163
f 158 157 164
f 159 158 165
f 160 159 166
f 161 160 167
f 162 161 168
f 170 120 119
f 171 119 118
f 172 170 171
f 173 118 117
f 174 171 173
f 175 172 174
f 176 117 116
f 177 173 176
f 178 174 177
f 179 175 178
f 180 116 115
f 181 176 180
f 182 177 181
f 183 178 182
f 184 179 183
f 185 115 114
f 186 180 185
f 187 181 186
f 188 182 187
f 189 183 188
f 190 184 189
f 191 114 92
f 192 185 191
f 193 186 192
f 194 187 193
f 195 188 194
f 196 189 195
f 197 190 196
f 170 119 171
f 171 118 173
f 172 171 174
f 173 117 176
f 174 173 177
f 175 174 178
f 176 116 180
f 177 176 181
f 178 177 182
f 179 178 183
f 180 115 185
f 181 180 186
f 182 181 187
f 183 182 188
f 184 183 189
f 185 114 191
f 186 185 192
f 187 186 193
f 188 187 194
f 189 188 195
f 190 189 196
f 198 92 91
f 199 91 90
f 200 198 199
f 201 90 89
f 202 199 201
f 203 200 202
f 204 89 88
f 205 201 204
f 206 202 205
f 207 203 206
f 208 88 87
f 209 204 208
f 210 205 209
f 211 206 210
f 212 207 211
f 213 87 86
f 214 208 213
f 215 209 214
f 216 210 215
f 217 211 216
f 218 212 217
f 219 86 64
f 220 213 219
f 221 214 220
f 222 215 221
f 223 216 222
f 224 217 223
f 225 218 224
f 198 91 199
f 199 90 201
f 200 199 202
f 201 89 204
f 202 201 205
f 203 202 206
f 204 88 208
f 205 204 209
f 206 205 210
f 207 206 211
f 208 87 213
f 209 208 214
f 210 209 215
f 211 210 216
f 212 211 217
f 213 86 219
f 214 213 220
f 215 214 221
f 216 215 222
f 217 216 223
f 218 217 224
f 226 64 63
f 227 63 62
f 228 226 227
f 229 62 61
f 230 227 229
f 231 228 230
f 232 61 60
f 233 229 232
f 234 230 233
f 235 231 234
f 236 60 59
f 237 232 236
f 238 233 237
f 239 234 238
f 240 235 239
f 241 59 58
f 242 236 241
f 243 237 242
f 244 238 243
f 245 239 244
f 246 240 245
f 247 58 36
f 248 241 247
f 249 242 248
f 250 243 249
f 251 244 250
f 252 245 251
f 253 246 252
f 226 63 227
f 227 62 229
f 228 227 230
f 229 61 232
f 230 229 233
f 231 230 234
f 232 60 236
f 233 232 237
f 234 233 238
f 235 234 239
f 236 59 241
f 237 236 242
f 238 237 243
f 239 238 244
f 240 239 245
f 241 58 247
f 242 241 248
f 243 242 249
f 244 243 250
f 245 244 251
f 246 245 252
f 254 36 35
f 255 35 34
f 256 254 255
f 257 34 33
f 258 255 257
f 259 256 258
f 260 33 32
f 261 257 260
f 262 258 261
f 263 259 262
f 264 32 31
f 265 260 264
f 266 261 265
f 267 262 266
f 268 263 267
f 269 31 30
f 270 264 269
f 271 265 270
f 272 266 271
f 273 267 272
f 274 268 273
f 275 30 29
f 276 269 275
f 277 270 276
f 278 271 277
f 279 272 278
f 280 273 279
f 281 274 280
f 254 35 255
f 255 34 257
f 256 255 258
f 257 33 260
f 258 257 261
f 259 258 262
f 260 32 264
f 261 260 265
f 262 261 266
f 263 262 267
f 264 31 269
f 265 264 270
f 266 265 271
f 267 266 272
f 268 267 273
f 269 30 275
f 270 269 276
f 271 270 277
f 272 271 278
f 273 272 279
f 274 273 280
f 275 29 142
f 282 142 144
f 276 275 282
f 283 144 147
f 284 282 283
f 277 276 284
f 285 147 151
f 286 283 285
f 287 284 286
f 278 277 287
f 288 151 156
f 289 285 288
f 290 286 289
f 291 287 290
f 279 278 291
f 292 156 162
f 293 288 292
f 294 289 293
f 295 290 294
f 296 291 295
f 280 279 296
f 297 162 169
f 298 292 297
f 299 293 298
f 300 294 299
f 301 295 300
f 302 296 301
f 281 280 302
f 275 142 282
f 282 144 283
f 276 282 284
f 283 147 285
f 284 283 286
f 277 284 287
f 285 151 288
f 286 285 289
f 287 286 290
f 278 287 291
f 288 156 292
f 289 288 293
f 290 289 294
f 291 290 295
f 279 291 296
f 292 162 297
f 293 292 298
f 294 293 299
f 295 294 300
f 296 295 301
f 280 296 302
f 163 120 170
f 303 170 172
f 164 163 303
f 304 172 175
f 305 303 304
f 165 164 305
f 306 175 179
f 307 304 306
f 308 305 307
f 166 165 308
f 309 179 184
f 310 306 309
f 311 307 310
f 312 308 311
f 167 166 312
f 313 184 190
f 314 309 313
f 315 310 314
f 316 311 315
f 317 312 316
f 168 167 317
f 318 190 197
f 319 313 318
f 320 314 319
f 321 315 320
f 322 316 321
f 323 317 322
f 169 168 323
f 163 170 303
f 303 172 304
f 164 303 305
f 304 175 306
f 305 304 307
f 165 305 308
f 306 179 309
f 307 306 310
f 308 307 311
f 166 308 312
f 309 184 313
f 310 309 314
f 311 310 315
f 312 311 316
f 167 312 317
f 313 190 318
f 314 313 319
f 315 314 320
f 316 315 321
f 317 316 322
f 168 317 323
f 191 92 198
f 324 198 200
f 192 191 324
f 325 200 203
f 326 324 325
f 193 192 326
f 327 203 207
f 328 325 327
f 329 326 328
f 194 193 329
f 330 207 212
f 331 327 330
f 332 328 331
f 333 329 332
f 195 194 333
f 334 212 218
f 335 330 334
f 336 331 335
f 337 332 336
f 338 333 337
f 196 195 338
f 339 218 225
f 340 334 339
f 341 335 340
f 342 336 341
f 343 337 342
f 344 338 343
f 197 196 344
f 191 198 324
f 324 200 325
f 192 324 326
f 325 203 327
f 326 325 328
f 193 326 329
f 327 207 330
f 328 327 331
f 329 328 332
f 194 329 333
f 330 212 334
f 331 330 335
f 332 331 336
f 333 332 337
f 195 333 338
f 334 218 339
f 335 334 340
f 336 335 341
f 337 336 342
f 338 337 343
f 196 338 344
f 219 64 226
f 345 226 228
f 220 219 345
f 346 228 231
f 347 345 346
f 221 220 347
f 348 231 235
f 349 346 348
f 350 347 349
f 222 221 350
f 351 235 240
f 352 348 351
f 353 349 352
f 354 350 353
f 223 222 354
f 355 240 246
f 356 351 355
f 357 352 356
f 358 353 357
f 359 354 358
f 224 223 359
f 360 246 253
f 361 355 360
f 362 356 361
f 363 357 362
f 364 358 363
f 365 359 364
f 225 224 365
f 219 226 345
f 345 228 346
f 220 345 347
f 346 231 348
f 347 346 349
f 221 347 350
f 348 235 351
f 349 348 352
f 350 349 353
f 222 350 354
f 351 240 355
f 352 351 356
f 353 352 357
f 354 353 358
f 223 354 359
f 355 246 360
f 356 355 361
f 357 356 362
f 358 357 363
f 359 358 364
f 224 359 365
f 247 36 254
f 366 254 256
f 248 247 366
f 367 256 259
f 368 366 367
f 249 248 368
f 369 259 263
f 370 367 369
f 371 368 370
f 250 249 371
f 372 263 268
f 373 369 372
f 374 370 373
f 375 371 374
f 251 250 375
f 376 268 274
f 377 372 376
f 378 373 377
f 379 374 378
f 380 375 379
f 252 251 380
f 381 274 281
f 382 376 381
f 383 377 382
f 384 378 383
f 385 379 384
f 386 380 385
f 253 252 386
f 247 254 366
f 366 256 367
f 248 366 368
f 367 259 369
f 368 367 370
f 249 368 371
f 369 263 372
f 370 369 373
f 371 370 374
f 250 371 375
f 372 268 376
f 373 372 377
f 374 373 378
f 375 374 379
f 251 375 380
f 376 274 381
f 377 376 382
f 378 377 383
f 379 378 384
f 380 379 385
f 252 380 386
f 389 387 388
f 391 388 390
f 392 389 391
f 394 390 393
f 395 391 394
f 396 392 395
f 398 393 397
f 399 394 398
f 400 395 399
f 401 396 400
f 403 397 402
f 404 398 403
f 405 399 404
f 406 400 405
f 407 401 406
f 409 402 408
f 410 403 409
f 411 404 410
f 412 405 411
f 413 406 412
f 414 407 413
f 302 408 281
f 301 409 302
f 300 410 301
f 299 411 300
f 298 412 299
f 297 413 298
f 169 414 297
f 389 388 391
f 391 390 394
f 392 391 395
f 394 393 398
f 395 394 399
f 396 395 400
f 398 397 403
f 399 398 404
f 400 399 405
f 401 400 406
f 403 402 409
f 404 403 410
f 405 404 411
f 406 405 412
f 407 406 413
f 409 408 302
f 410 409 301
f 411 410 300
f 412 411 299
f 413 412 298
f 414 413 297
f 388 387 415
f 417 415 416
f 390 388 417
f 419 416 418
f 420 417 419
f 393 390 420
f 422 418 421
f 423 419 422
f 424 420 423
f 397 393 424
f 426 421 425
f 427 422 426
f 428 423 427
f 429 424 428
f 402 397 429
f 431 425 430
f 432 426 431
f 433 427 432
f 434 428 433
f 435 429 434
f 408 402 435
f 386 430 253
f 385 431 386
f 384 432 385
f 383 433 384
f 382 434 383
f 381 435 382
f 281 408 381
f 388 415 417
f 417 416 419
f 390 417 420
f 419 418 422
f 420 419 423
f 393 420 424
f 422 421 426
f 423 422 427
f 424 423 428
f 397 424 429
f 426 425 431
f 427 426 432
f 428 427 433
f 429 428 434
f 402 429 435
f 431 430 386
f 432 431 385
f 433 432 384
f 434 433 383
f 435 434 382
f 408 435 381
f 415 387 436
f 438 436 437
f 416 415 438
f 440 437 439
f 441 438 440
f 418 416 441
f 443 439 442
f 444 440 443
f 445 441 444
f 421 418 445
f 447 442 446
f 448 443 447
f 449 444 448
f 450 445 449
f 425 421 450
f 452 446 451
f 453 447 452
f 454 448 453
f 455 449 454
f 456 450 455
f 430 425 456
f 365 451 225
f 364 452 365
f 363 453 364
f 362 454 363
f 361 455 362
f 360 456 361
f 253 430 360
f 415 436 438
f 438 437 440
f 416 438 441
f 440 439 443
f 441 440 444
f 418 441 445
f 443 442 447
f 444 443 448
f 445 444 449
f 421 445 450
f 447 446 452
f 448 447 453
f 449 448 454
f 450 449 455
f 425 450 456
f 452 451 365
f 453 452 364
f 454 453 363
f 455 454 362
f 456 455 361
f 430 456 360
f 436 387 457
f 459 457 458
f 437 436 459
f 461 458 460
f 462 459 461
f 439 437 462
f 464 460 463
f 465 461 464
f 466 462 465
f 442 439 466
f 468 463 467
f 469 464 468
f 470 465 469
f 471 466 470
f 446 442 471
f 473 467 472
f 474 468 473
f 475 469 474
f 476 470 475
f 477 471 476
f 451 446 477
f 344 472 197
f 343 473 344
f 342 474 343
f 341 475 342
f 340 476 341
f 339 477 340
f 225 451 339
f 436 457 459
f 459 458 461
f 437 459 462
f 461 460 464
f 462 461 465
f 439 462 466
f 464 463 468
f 465 464 469
f 466 465 470
f 442 466 471
f 468 467 473
f 469 468 474
f 470 469 475
f 471 470 476
f 446 471 477
f 473 472 344
f 474 473 343
f 475 474 342
f 476 475 341
f 477 476 340
f 451 477 339
f 457 387 389
f 478 389 392
f 458 457 478
f 479 392 396
f 480 478 479
f 460 458 480
f 481 396 401
f 482 479 481
f 483 480 482
f 463 460 483
f 484 401 407
f 485 481 484
f 486 482 485
f 487 483 486
f 467 463 487
f 488 407 414
f 489 484 488
f 490 485 489
f 491 486 490
f 492 487 491
f 472 467 492
f 323 414 169
f 322 488 323
f 321 489 322
f 320 490 321
f 319 491 320
f 318 492 319
f 197 472 318
f 457 389 478
f 478 392 479
f 458 478 480
f 479 396 481
f 480 479 482
f 460 480 483
f 481 401 484
f 482 481 485
f 483 482 486
f 463 483 487
f 484 407 488
f 485 484 489
f 486 485 490
f 487 486 491
f 467 487 492
f 488 414 323
f 489 488 322
f 490 489 321
f 491 490 320
f 492 491 319
f 472 492 318
