# File exported by Houdini 20.5.445 (www.sidefx.com)
# 492 points
# 2940 vertices
# 980 primitives
# Bounds: [-21.8630066, -256.321289, -1110.91626] to [192.636932, 372.698364, -643.884827]
g 
v 85.3869934 58.1885605 -1110.91626
v 85.3869934 107.939568 -1108.00159
v 101.50296 73.5624466 -1108.00159
v 85.3869934 156.448929 -1099.3302
v 102.40329 126.951759 -1102.30334
v 117.216644 88.5527191 -1099.3302
v 85.3869934 202.505356 -1085.11853
v 102.932098 176.490707 -1090.54468
v 118.28714 143.736847 -1090.54468
v 132.135895 102.784904 -1085.11853
v 85.3869934 244.959091 -1065.72156
v 103.106415 221.983536 -1073.32812
v 118.789276 193.167923 -1075.68298
v 132.969818 158.281693 -1073.32812
v 145.88797 115.903908 -1065.72156
v 85.3869934 282.750366 -1041.62317
v 102.932098 263.158264 -1050.94653
v 118.789276 237.719193 -1055.32751
v 133.220856 206.934982 -1055.32751
v 146.361542 170.518631 -1050.94653
v 158.129791 127.582069 -1041.62329
v 85.3869934 314.935608 -1013.42529
v 102.40329 299.538879 -1023.44836
v 118.28714 277.806152 -1029.28857
v 132.969818 250.471878 -1031.20667
v 146.361542 217.920395 -1029.28857
v 158.309845 180.284256 -1023.44836
v 168.555695 137.527954 -1013.42529
v 85.3869934 340.711304 -981.831787
v 101.50296 330.309509 -990.69397
v 117.216644 313.114502 -996.728027
v 132.135895 289.555542 -999.783203
v 145.88797 260.220764 -999.783203
v 158.129791 225.842422 -996.728027
v 168.555634 187.278946 -990.69397
v 176.905243 145.492981 -981.831909
v 95.3471985 17.9391365 -1108.00159
v 112.919952 31.9233971 -1102.30334
v 105.058807 -21.3056602 -1099.3302
v 129.130585 45.7550507 -1090.54468
v 123.265533 -7.24174881 -1090.54468
v 114.279327 -58.5661087 -1085.11853
v 143.921112 59.3264923 -1073.32812
v 139.433075 6.63117218 -1075.68298
v 132.514252 -43.7453842 -1073.32812
v 122.778717 -92.9119949 -1065.72156
v 157.205048 72.5368347 -1050.94653
v 153.864594 20.3981514 -1055.32751
v 148.352264 -29.4116058 -1055.32751
v 140.616486 -77.3572693 -1050.94653
v 130.344574 -123.485703 -1041.62329
v 168.826508 85.2557831 -1023.44836
v 166.694916 34.1879501 -1029.28857
v 162.377655 -15.2570305 -1031.20667
v 155.971527 -62.709259 -1029.28857
v 147.472076 -107.70256 -1023.44836
v 136.788055 -149.524124 -1013.42529
v 178.5159 97.278511 -990.694214
v 177.801666 48.0878296 -996.728149
v 174.780487 -0.850767136 -999.783325
v 169.527618 -48.3156586 -999.783325
v 162.174286 -93.1216431 -996.728149
v 152.904083 -134.150223 -990.694214
v 141.948334 -170.377121 -981.831909
v 75.4267273 17.9391365 -1108.00159
v 85.3869934 -26.8075027 -1102.30334
v 65.7151184 -21.3056602 -1099.3302
v 94.8768616 -67.7978058 -1090.54468
v 75.8970642 -67.7978058 -1090.54468
v 56.4945374 -58.5661087 -1085.11853
v 103.843536 -104.903122 -1073.32812
v 85.3869934 -108.655014 -1075.68298
v 66.9303894 -104.903122 -1073.32812
v 47.9952698 -92.9119949 -1065.72156
v 112.227753 -137.913315 -1050.94653
v 94.3061829 -144.697678 -1055.32751
v 76.4677429 -144.697678 -1055.32751
v 58.5461121 -137.913315 -1050.94653
v 40.4294128 -123.485703 -1041.62329
v 119.939117 -166.433365 -1023.44836
v 102.737885 -176.262222 -1029.28857
v 85.3869934 -179.486557 -1031.20667
v 68.0360413 -176.262222 -1029.28857
v 50.8348083 -166.433365 -1023.44836
v 33.9858704 -149.524124 -1013.42529
v 126.827789 -189.773636 -990.694214
v 110.672699 -202.980026 -996.728027
v 93.886261 -209.666763 -999.783325
v 76.8876648 -209.666763 -999.783325
v 60.1012268 -202.980026 -996.728027
v 43.9460754 -189.773636 -990.694214
v 28.825531 -170.377121 -981.831909
v 69.2709656 73.5624466 -1108.00159
v 57.8539734 31.9233971 -1102.30334
v 53.5572815 88.5527191 -1099.3302
v 47.5083923 -7.24174881 -1090.54468
v 41.6433411 45.7550507 -1090.54468
v 38.638092 102.784904 -1085.11853
v 38.259613 -43.7453842 -1073.32812
v 31.3408508 6.63117218 -1075.68298
v 26.8528748 59.3264923 -1073.32812
v 24.8858948 115.903908 -1065.72156
v 30.1574402 -77.3572693 -1050.94653
v 22.4216614 -29.4116058 -1055.32751
v 16.9093323 20.3981514 -1055.32751
v 13.5688782 72.5368347 -1050.94653
v 12.6441345 127.582069 -1041.62329
v 23.3017883 -107.70256 -1023.44836
v 14.8024597 -62.709259 -1029.28857
v 8.39627075 -15.2570305 -1031.20667
v 4.07901001 34.1879501 -1029.28857
v 1.94741821 85.2557831 -1023.44836
v 2.21829224 137.527954 -1013.42529
v 17.8699036 -134.150223 -990.694214
v 8.59963989 -93.1216431 -996.728149
v 1.24636841 -48.3156586 -999.783325
v -4.00653076 -0.850767136 -999.783325
v -7.02774048 48.0878296 -996.728149
v -7.74194336 97.278511 -990.694214
v -6.13134766 145.492981 -981.831909
v 68.370636 126.951759 -1102.30334
v 52.4868469 143.736847 -1090.54468
v 67.8418274 176.490707 -1090.54468
v 37.8041077 158.281693 -1073.32812
v 51.9846497 193.167923 -1075.68298
v 67.667511 221.983536 -1073.32812
v 24.412384 170.518631 -1050.94653
v 37.5530701 206.934982 -1055.32751
v 51.9846497 237.719193 -1055.32751
v 67.8418274 263.158264 -1050.94653
v 12.4640808 180.284256 -1023.44836
v 24.412384 217.920395 -1029.28857
v 37.8041077 250.471878 -1031.20667
v 52.4868469 277.806152 -1029.28857
v 68.370636 299.538879 -1023.44836
v 2.21829224 187.278946 -990.69397
v 12.6441345 225.842422 -996.728027
v 24.8858948 260.220764 -999.783203
v 38.638092 289.555542 -999.783203
v 53.5572815 313.114502 -996.728027
v 69.2709656 330.309509 -990.69397
v 75.4267273 355.184937 -953.914307
v 57.8539734 342.036926 -960.612671
v 65.7151184 362.244568 -924.086426
v 41.6433411 321.624878 -964.5
v 47.5083923 345.325745 -929.457031
v 56.4945374 361.713867 -893.09314
v 26.8528748 294.725952 -965.774292
v 31.3409119 321.140808 -931.983765
v 38.2596741 340.820923 -897.620117
v 47.9952698 353.605896 -861.708008
v 13.5689392 261.739136 -964.5
v 16.9093323 290.356689 -931.983765
v 22.4217224 312.632324 -899.047974
v 30.1574402 328.773743 -865.385742
v 40.4294128 338.123169 -830.714722
v 1.94741821 222.782394 -960.612671
v 4.07901001 252.686264 -929.457031
v 8.39627075 277.119202 -897.620117
v 14.8025208 296.019958 -865.385742
v 23.3018494 309.075745 -833.022949
v 33.9858704 315.652222 -800.886841
v -7.74194336 177.777298 -953.914307
v -7.02770996 207.076401 -924.086426
v -4.00646973 232.658676 -893.09314
v 1.24636841 253.885483 -861.708008
v 8.59970093 270.227051 -830.714722
v 17.8699036 281.275085 -800.886841
v 28.825531 286.754272 -772.969238
v -13.8977051 122.153877 -953.914307
v -15.0689392 69.0230103 -960.612671
v -19.1856384 97.2179031 -924.086426
v -13.4661865 17.4506378 -964.5
v -19.3312378 41.151516 -929.457031
v -21.8630066 71.3075714 -893.09314
v -9.32321167 -32.1605949 -965.774292
v -16.4929504 -11.4661903 -931.983765
v -20.7299805 13.9344864 -897.620117
v -21.8630066 45.0696564 -861.708008
v -2.7427063 -79.446579 -964.5
v -10.9805908 -61.2759552 -931.983765
v -16.4929504 -39.000351 -899.047974
v -19.3312378 -12.4120636 -865.385742
v -19.1856384 19.1592216 -830.7146
v 6.28549194 -123.935349 -960.612671
v -2.7427063 -108.742569 -929.457031
v -9.32318115 -89.137291 -897.620117
v -13.466156 -65.4087601 -865.385742
v -15.0689392 -37.6418533 -833.022949
v -13.8977051 -5.77673721 -800.886841
v 17.8699036 -164.897995 -953.914307
v 8.59970093 -153.849838 -924.086426
v 1.24636841 -137.508331 -893.09314
v -4.00646973 -116.281448 -861.708008
v -7.02770996 -90.6991577 -830.714722
v -7.74194336 -61.4001541 -800.886841
v -6.13134766 -29.1158409 -772.969238
v 33.9858704 -199.275101 -953.914307
v 50.8348083 -218.963791 -960.612671
v 40.4294128 -221.746017 -924.086426
v 68.0360413 -230.425156 -964.5
v 58.5461121 -239.478134 -929.457031
v 47.9952698 -237.228745 -893.09314
v 85.3869934 -234.187668 -965.774292
v 76.4677429 -247.812668 -931.983765
v 66.9303894 -251.794296 -897.620117
v 56.4945374 -245.336746 -861.708008
v 102.737885 -230.425156 -964.5
v 94.3061829 -247.812668 -931.983765
v 85.3869934 -256.321289 -899.047974
v 75.8970642 -256.030151 -865.385742
v 65.7151184 -245.867569 -830.714722
v 119.939117 -218.963791 -960.612671
v 112.227753 -239.478134 -929.457031
v 103.843536 -251.794296 -897.620117
v 94.8768616 -256.030151 -865.385742
v 85.3869934 -251.925003 -833.022949
v 75.4267273 -238.807816 -800.886841
v 136.788055 -199.275101 -953.914307
v 130.344574 -221.746017 -924.086426
v 122.778717 -237.228745 -893.09314
v 114.279327 -245.336746 -861.708008
v 105.058807 -245.867569 -830.714722
v 95.3471985 -238.807816 -800.886841
v 85.3869934 -224.334091 -772.969238
v 152.903961 -164.897995 -953.914307
v 164.488434 -123.935349 -960.612671
v 162.174225 -153.849838 -924.086426
v 173.516632 -79.446579 -964.5
v 173.516632 -108.742569 -929.457031
v 169.527557 -137.508331 -893.09314
v 180.097198 -32.1605949 -965.774292
v 181.754547 -61.2759552 -931.983765
v 180.097137 -89.137291 -897.620117
v 174.780365 -116.281448 -861.708008
v 184.240082 17.4506378 -964.5
v 187.266876 -11.4661903 -931.983765
v 187.266876 -39.000351 -899.047974
v 184.240021 -65.4087601 -865.385742
v 177.801605 -90.6991577 -830.714722
v 185.842865 69.0230103 -960.612671
v 190.105194 41.151516 -929.457031
v 191.503937 13.9344864 -897.620117
v 190.105194 -12.4120636 -865.385742
v 185.842804 -37.6418533 -833.022949
v 178.5159 -61.4001541 -800.886841
v 184.6716 122.153877 -953.914307
v 189.959503 97.2179031 -924.086426
v 192.636932 71.3075714 -893.09314
v 192.636932 45.0696564 -861.708008
v 189.959503 19.1592216 -830.7146
v 184.6716 -5.77673721 -800.886841
v 176.905243 -29.1158409 -772.969238
v 178.5159 177.777298 -953.914307
v 168.826508 222.782394 -960.612671
v 177.801605 207.076401 -924.086426
v 157.205048 261.739136 -964.5
v 166.694916 252.686264 -929.457031
v 174.780365 232.658676 -893.09314
v 143.921112 294.725952 -965.774292
v 153.864594 290.356689 -931.983765
v 162.377655 277.119202 -897.620117
v 169.527557 253.885483 -861.708008
v 129.130585 321.624878 -964.5
v 139.432953 321.140808 -931.983765
v 148.352203 312.632324 -899.047974
v 155.971405 296.019958 -865.385742
v 162.174225 270.227051 -830.714722
v 112.919952 342.036926 -960.612671
v 123.265533 345.325745 -929.457031
v 132.514252 340.820923 -897.620117
v 140.616425 328.773743 -865.385742
v 147.472076 309.075745 -833.022949
v 152.903961 281.275085 -800.886841
v 95.3471985 355.184937 -953.914307
v 105.058807 362.244568 -924.086426
v 114.279327 361.713867 -893.09314
v 122.778717 353.605896 -861.708008
v 130.344574 338.123169 -830.714722
v 136.788055 315.652222 -800.886841
v 141.948334 286.754272 -772.969238
v 85.3869934 368.302124 -921.778198
v 75.8970642 372.407288 -889.415527
v 94.8768616 372.407288 -889.415527
v 66.9303894 368.171448 -857.180908
v 85.3869934 372.698364 -855.753052
v 103.843536 368.171448 -857.180908
v 58.5461121 355.855225 -825.344116
v 76.4677429 364.189758 -822.817383
v 94.3061829 364.189758 -822.817383
v 112.227753 355.855225 -825.344116
v 50.8348083 335.340942 -794.188354
v 68.0360413 346.802368 -790.301147
v 85.3869934 350.56488 -789.026855
v 102.737885 346.802368 -790.301147
v 119.939117 335.340942 -794.188354
v 43.9460754 306.150635 -764.107056
v 60.1012268 319.357117 -758.072998
v 76.8876648 326.043884 -755.017944
v 93.886261 326.043884 -755.017944
v 110.672699 319.357117 -758.072998
v 126.827789 306.150635 -764.107056
v -15.0689392 154.018997 -921.778198
v -19.3312378 128.789215 -889.415527
v -13.466156 181.785995 -889.415527
v -20.7299805 102.44265 -857.180908
v -16.4929504 155.377487 -855.753052
v -9.32318115 205.51442 -857.180908
v -19.3312378 75.2256088 -825.344116
v -16.4929504 127.84333 -822.817383
v -10.9805908 177.653091 -822.817383
v -2.74267578 225.119614 -825.344116
v -15.0689392 47.3541183 -794.188354
v -13.4661865 98.9264984 -790.301025
v -9.32321167 148.53775 -789.026855
v -2.7427063 195.823715 -790.301025
v 6.28549194 240.312485 -794.188354
v -7.74194336 19.0986176 -764.107056
v -7.02774048 68.289299 -758.072998
v -4.00653076 117.228004 -755.017822
v 1.24636841 164.692795 -755.017822
v 8.59963989 209.498764 -758.072998
v 17.8699036 250.527359 -764.107056
v 23.3018494 -192.698532 -921.778198
v 30.1574402 -212.396591 -889.415527
v 14.8025208 -179.642838 -889.415527
v 38.2596741 -224.443802 -857.180908
v 22.4217224 -196.255295 -855.753052
v 8.39627075 -160.741989 -857.180908
v 47.5083923 -228.948654 -825.344116
v 31.3409119 -204.763687 -822.817383
v 16.9093323 -173.979599 -822.817383
v 4.07901001 -136.309128 -825.344116
v 57.8539734 -225.659836 -794.188477
v 41.6433411 -205.247849 -790.301147
v 26.8528748 -178.348801 -789.026855
v 13.5689392 -145.362015 -790.301147
v 1.94741821 -106.405151 -794.188477
v 69.2709656 -213.932388 -764.107056
v 53.5572815 -196.737381 -758.07312
v 38.638092 -173.178421 -755.017944
v 24.8858948 -143.843643 -755.017944
v 12.6441345 -109.465286 -758.07312
v 2.21829224 -70.9017181 -764.107056
v 147.472076 -192.698532 -921.778198
v 155.971405 -179.642746 -889.415527
v 140.616425 -212.396591 -889.415527
v 162.377655 -160.741989 -857.180908
v 148.352203 -196.255295 -855.753052
v 132.514252 -224.443802 -857.180908
v 166.694916 -136.309128 -825.344116
v 153.864594 -173.979599 -822.817383
v 139.432953 -204.763687 -822.817383
v 123.265533 -228.948654 -825.344116
v 168.826508 -106.405151 -794.188477
v 157.205048 -145.362015 -790.301147
v 143.921112 -178.348801 -789.026855
v 129.130585 -205.247849 -790.301147
v 112.919952 -225.659836 -794.188477
v 168.555634 -70.9017181 -764.107056
v 158.129791 -109.465286 -758.07312
v 145.88797 -143.843643 -755.017944
v 132.135895 -173.178421 -755.017944
v 117.216644 -196.737381 -758.07312
v 101.50296 -213.932388 -764.107056
v 185.842804 154.018997 -921.778198
v 184.240082 181.785995 -889.415527
v 190.105194 128.789215 -889.415527
v 180.097137 205.514542 -857.180908
v 187.266876 155.377487 -855.753052
v 191.503937 102.44265 -857.180908
v 173.516571 225.119614 -825.344116
v 181.754547 177.653091 -822.817383
v 187.266876 127.84333 -822.817383
v 190.105194 75.2256088 -825.344116
v 164.488434 240.312485 -794.188354
v 173.516632 195.823715 -790.301025
v 180.097198 148.53775 -789.026855
v 184.240082 98.9264984 -790.301025
v 185.842865 47.3541183 -794.188354
v 152.904083 250.527359 -764.107056
v 162.174286 209.498764 -758.072998
v 169.527618 164.692795 -755.017822
v 174.780487 117.228004 -755.017822
v 177.801666 68.289299 -758.072998
v 178.5159 19.0986176 -764.107056
v 85.3869934 58.1885605 -643.884827
v 95.3471985 98.4380035 -646.7995
v 75.4267273 98.4380035 -646.7995
v 105.058807 137.682892 -655.470886
v 85.3869934 143.184723 -652.497742
v 65.7151184 137.682892 -655.470886
v 114.279327 174.943253 -669.682556
v 94.8768616 184.175034 -664.256409
v 75.8970642 184.175034 -664.256409
v 56.4945374 174.943253 -669.682556
v 122.778717 209.289139 -689.079712
v 103.843536 221.280258 -681.4729
v 85.3869934 225.03215 -679.118164
v 66.9303894 221.280258 -681.4729
v 47.9952698 209.289139 -689.079712
v 130.344574 239.86293 -713.177856
v 112.227753 254.290451 -703.854614
v 94.3061829 261.074829 -699.473633
v 76.4677429 261.074829 -699.473633
v 58.5461121 254.290543 -703.854614
v 40.4294128 239.86293 -713.177856
v 136.788055 265.901245 -741.375854
v 119.939117 282.810486 -731.352661
v 102.737885 292.639343 -725.512573
v 85.3869934 295.863647 -723.594482
v 68.0360413 292.639343 -725.512573
v 50.8348083 282.810486 -731.352661
v 33.9858704 265.901245 -741.375854
v 101.50296 42.8146782 -646.7995
v 117.216644 27.8244209 -655.470886
v 112.919952 84.4538269 -652.497742
v 132.135895 13.5922279 -669.682556
v 129.130585 70.6221771 -664.256409
v 123.265533 123.618874 -664.256409
v 145.88797 0.473226547 -689.079712
v 143.921112 57.0507355 -681.4729
v 139.433075 109.745964 -679.118164
v 132.514252 160.122513 -681.4729
v 158.129791 -11.2049294 -713.177856
v 157.205048 43.8402863 -703.854614
v 153.864594 95.9789734 -699.473633
v 148.352264 145.788757 -699.473633
v 140.616486 193.734421 -703.854614
v 168.555695 -21.1507187 -741.375854
v 168.826508 31.1213531 -731.352661
v 166.694916 82.1891785 -725.512573
v 162.377655 131.634186 -723.594482
v 155.971527 179.086411 -725.512573
v 147.472076 224.079697 -731.352661
v 85.3869934 8.43757248 -646.7995
v 85.3869934 -40.0717773 -655.470886
v 102.40329 -10.5746384 -652.497742
v 85.3869934 -86.1282043 -669.682556
v 102.932098 -60.1135712 -664.256409
v 118.28714 -27.3596992 -664.256409
v 85.3869934 -128.582077 -689.079712
v 103.106415 -105.606384 -681.473022
v 118.789276 -76.7906647 -679.118164
v 132.969818 -41.9045715 -681.4729
v 85.3869934 -166.373245 -713.177979
v 102.932098 -146.781113 -703.854614
v 118.789276 -121.341965 -699.473633
v 133.220856 -90.5578461 -699.473633
v 146.361542 -54.1415863 -703.854614
v 85.3869934 -198.558395 -741.375854
v 102.40329 -183.161789 -731.352661
v 118.28714 -161.429123 -725.512573
v 132.969818 -134.09465 -723.594604
v 146.361542 -101.543259 -725.512573
v 158.309845 -63.9072113 -731.352661
v 69.2709656 42.8146782 -646.7995
v 53.5572815 27.8244209 -655.470886
v 68.370636 -10.5746384 -652.497742
v 38.638092 13.5922279 -669.682556
v 52.4868469 -27.3596992 -664.256409
v 67.8418274 -60.1135712 -664.256409
v 24.8858948 0.473226547 -689.079712
v 37.8041077 -41.9045715 -681.4729
v 51.9846497 -76.7906647 -679.118164
v 67.667511 -105.606384 -681.473022
v 12.6441345 -11.2049294 -713.177856
v 24.412384 -54.1415863 -703.854614
v 37.5530701 -90.5578461 -699.473633
v 51.9846497 -121.341965 -699.473633
v 67.8418274 -146.781113 -703.854736
v 2.21829224 -21.1507187 -741.375854
v 12.4640808 -63.9072113 -731.352661
v 24.412384 -101.543259 -725.512573
v 37.8041077 -134.09465 -723.594604
v 52.4868469 -161.429123 -725.512573
v 68.370636 -183.161789 -731.352661
v 57.8539734 84.4538269 -652.497742
v 47.5083923 123.618874 -664.256409
v 41.6433411 70.6221771 -664.256409
v 38.259613 160.122513 -681.4729
v 31.3408508 109.745964 -679.118164
v 26.8528748 57.0507355 -681.4729
v 30.1574402 193.734421 -703.854614
v 22.4216614 145.788757 -699.473633
v 16.9093323 95.9789734 -699.473633
v 13.5688782 43.8402863 -703.854614
v 23.3017883 224.079697 -731.352661
v 14.8024597 179.086411 -725.512573
v 8.39627075 131.634186 -723.594482
v 4.07901001 82.1891785 -725.512573
v 1.94741821 31.1213531 -731.352661
g 
f 3 1 2
f 5 2 4
f 6 3 5
f 8 4 7
f 9 5 8
f 10 6 9
f 12 7 11
f 13 8 12
f 14 9 13
f 15 10 14
f 17 11 16
f 18 12 17
f 19 13 18
f 20 14 19
f 21 15 20
f 23 16 22
f 24 17 23
f 25 18 24
f 26 19 25
f 27 20 26
f 28 21 27
f 30 22 29
f 31 23 30
f 32 24 31
f 33 25 32
f 34 26 33
f 35 27 34
f 36 28 35
f 3 2 5
f 5 4 8
f 6 5 9
f 8 7 12
f 9 8 13
f 10 9 14
f 12 11 17
f 13 12 18
f 14 13 19
f 15 14 20
f 17 16 23
f 18 17 24
f 19 18 25
f 20 19 26
f 21 20 27
f 23 22 30
f 24 23 31
f 25 24 32
f 26 25 33
f 27 26 34
f 28 27 35
f 37 1 3
f 38 3 6
f 39 37 38
f 40 6 10
f 41 38 40
f 42 39 41
f 43 10 15
f 44 40 43
f 45 41 44
f 46 42 45
f 47 15 21
f 48 43 47
f 49 44 48
f 50 45 49
f 51 46 50
f 52 21 28
f 53 47 52
f 54 48 53
f 55 49 54
f 56 50 55
f 57 51 56
f 58 28 36
f 59 52 58
f 60 53 59
f 61 54 60
f 62 55 61
f 63 56 62
f 64 57 63
f 37 3 38
f 38 6 40
f 39 38 41
f 40 10 43
f 41 40 44
f 42 41 45
f 43 15 47
f 44 43 48
f 45 44 49
f 46 45 50
f 47 21 52
f 48 47 53
f 49 48 54
f 50 49 55
f 51 50 56
f 52 28 58
f 53 52 59
f 54 53 60
f 55 54 61
f 56 55 62
f 57 56 63
f 65 1 37
f 66 37 39
f 67 65 66
f 68 39 42
f 69 66 68
f 70 67 69
f 71 42 46
f 72 68 71
f 73 69 72
f 74 70 73
f 75 46 51
f 76 71 75
f 77 72 76
f 78 73 77
f 79 74 78
f 80 51 57
f 81 75 80
f 82 76 81
f 83 77 82
f 84 78 83
f 85 79 84
f 86 57 64
f 87 80 86
f 88 81 87
f 89 82 88
f 90 83 89
f 91 84 90
f 92 85 91
f 65 37 66
f 66 39 68
f 67 66 69
f 68 42 71
f 69 68 72
f 70 69 73
f 71 46 75
f 72 71 76
f 73 72 77
f 74 73 78
f 75 51 80
f 76 75 81
f 77 76 82
f 78 77 83
f 79 78 84
f 80 57 86
f 81 80 87
f 82 81 88
f 83 82 89
f 84 83 90
f 85 84 91
f 93 1 65
f 94 65 67
f 95 93 94
f 96 67 70
f 97 94 96
f 98 95 97
f 99 70 74
f 100 96 99
f 101 97 100
f 102 98 101
f 103 74 79
f 104 99 103
f 105 100 104
f 106 101 105
f 107 102 106
f 108 79 85
f 109 103 108
f 110 104 109
f 111 105 110
f 112 106 111
f 113 107 112
f 114 85 92
f 115 108 114
f 116 109 115
f 117 110 116
f 118 111 117
f 119 112 118
f 120 113 119
f 93 65 94
f 94 67 96
f 95 94 97
f 96 70 99
f 97 96 100
f 98 97 101
f 99 74 103
f 100 99 104
f 101 100 105
f 102 101 106
f 103 79 108
f 104 103 109
f 105 104 110
f 106 105 111
f 107 106 112
f 108 85 114
f 109 108 115
f 110 109 116
f 111 110 117
f 112 111 118
f 113 112 119
f 2 1 93
f 121 93 95
f 4 2 121
f 122 95 98
f 123 121 122
f 7 4 123
f 124 98 102
f 125 122 124
f 126 123 125
f 11 7 126
f 127 102 107
f 128 124 127
f 129 125 128
f 130 126 129
f 16 11 130
f 131 107 113
f 132 127 131
f 133 128 132
f 134 129 133
f 135 130 134
f 22 16 135
f 136 113 120
f 137 131 136
f 138 132 137
f 139 133 138
f 140 134 139
f 141 135 140
f 29 22 141
f 2 93 121
f 121 95 122
f 4 121 123
f 122 98 124
f 123 122 125
f 7 123 126
f 124 102 127
f 125 124 128
f 126 125 129
f 11 126 130
f 127 107 131
f 128 127 132
f 129 128 133
f 130 129 134
f 16 130 135
f 131 113 136
f 132 131 137
f 133 132 138
f 134 133 139
f 135 134 140
f 22 135 141
f 142 29 141
f 143 141 140
f 144 142 143
f 145 140 139
f 146 143 145
f 147 144 146
f 148 139 138
f 149 145 148
f 150 146 149
f 151 147 150
f 152 138 137
f 153 148 152
f 154 149 153
f 155 150 154
f 156 151 155
f 157 137 136
f 158 152 157
f 159 153 158
f 160 154 159
f 161 155 160
f 162 156 161
f 163 136 120
f 164 157 163
f 165 158 164
f 166 159 165
f 167 160 166
f 168 161 167
f 169 162 168
f 142 141 143
f 143 140 145
f 144 143 146
f 145 139 148
f 146 145 149
f 147 146 150
f 148 138 152
f 149 148 153
f 150 149 154
f 151 150 155
f 152 137 157
f 153 152 158
f 154 153 159
f 155 154 160
f 156 155 161
f 157 136 163
f 158 157 164
f 159 158 165
f 160 159 166
f 161 160 167
f 162 161 168
f 170 120 119
f 171 119 118
f 172 170 171
f 173 118 117
f 174 171 173
f 175 172 174
f 176 117 116
f 177 173 176
f 178 174 177
f 179 175 178
f 180 116 115
f 181 176 180
f 182 177 181
f 183 178 182
f 184 179 183
f 185 115 114
f 186 180 185
f 187 181 186
f 188 182 187
f 189 183 188
f 190 184 189
f 191 114 92
f 192 185 191
f 193 186 192
f 194 187 193
f 195 188 194
f 196 189 195
f 197 190 196
f 170 119 171
f 171 118 173
f 172 171 174
f 173 117 176
f 174 173 177
f 175 174 178
f 176 116 180
f 177 176 181
f 178 177 182
f 179 178 183
f 180 115 185
f 181 180 186
f 182 181 187
f 183 182 188
f 184 183 189
f 185 114 191
f 186 185 192
f 187 186 193
f 188 187 194
f 189 188 195
f 190 189 196
f 198 92 91
f 199 91 90
f 200 198 199
f 201 90 89
f 202 199 201
f 203 200 202
f 204 89 88
f 205 201 204
f 206 202 205
f 207 203 206
f 208 88 87
f 209 204 208
f 210 205 209
f 211 206 210
f 212 207 211
f 213 87 86
f 214 208 213
f 215 209 214
f 216 210 215
f 217 211 216
f 218 212 217
f 219 86 64
f 220 213 219
f 221 214 220
f 222 215 221
f 223 216 222
f 224 217 223
f 225 218 224
f 198 91 199
f 199 90 201
f 200 199 202
f 201 89 204
f 202 201 205
f 203 202 206
f 204 88 208
f 205 204 209
f 206 205 210
f 207 206 211
f 208 87 213
f 209 208 214
f 210 209 215
f 211 210 216
f 212 211 217
f 213 86 219
f 214 213 220
f 215 214 221
f 216 215 222
f 217 216 223
f 218 217 224
f 226 64 63
f 227 63 62
f 228 226 227
f 229 62 61
f 230 227 229
f 231 228 230
f 232 61 60
f 233 229 232
f 234 230 233
f 235 231 234
f 236 60 59
f 237 232 236
f 238 233 237
f 239 234 238
f 240 235 239
f 241 59 58
f 242 236 241
f 243 237 242
f 244 238 243
f 245 239 244
f 246 240 245
f 247 58 36
f 248 241 247
f 249 242 248
f 250 243 249
f 251 244 250
f 252 245 251
f 253 246 252
f 226 63 227
f 227 62 229
f 228 227 230
f 229 61 232
f 230 229 233
f 231 230 234
f 232 60 236
f 233 232 237
f 234 233 238
f 235 234 239
f 236 59 241
f 237 236 242
f 238 237 243
f 239 238 244
f 240 239 245
f 241 58 247
f 242 241 248
f 243 242 249
f 244 243 250
f 245 244 251
f 246 245 252
f 254 36 35
f 255 35 34
f 256 254 255
f 257 34 33
f 258 255 257
f 259 256 258
f 260 33 32
f 261 257 260
f 262 258 261
f 263 259 262
f 264 32 31
f 265 260 264
f 266 261 265
f 267 262 266
f 268 263 267
f 269 31 30
f 270 264 269
f 271 265 270
f 272 266 271
f 273 267 272
f 274 268 273
f 275 30 29
f 276 269 275
f 277 270 276
f 278 271 277
f 279 272 278
f 280 273 279
f 281 274 280
f 254 35 255
f 255 34 257
f 256 255 258
f 257 33 260
f 258 257 261
f 259 258 262
f 260 32 264
f 261 260 265
f 262 261 266
f 263 262 267
f 264 31 269
f 265 264 270
f 266 265 271
f 267 266 272
f 268 267 273
f 269 30 275
f 270 269 276
f 271 270 277
f 272 271 278
f 273 272 279
f 274 273 280
f 275 29 142
f 282 142 144
f 276 275 282
f 283 144 147
f 284 282 283
f 277 276 284
f 285 147 151
f 286 283 285
f 287 284 286
f 278 277 287
f 288 151 156
f 289 285 288
f 290 286 289
f 291 287 290
f 279 278 291
f 292 156 162
f 293 288 292
f 294 289 293
f 295 290 294
f 296 291 295
f 280 279 296
f 297 162 169
f 298 292 297
f 299 293 298
f 300 294 299
f 301 295 300
f 302 296 301
f 281 280 302
f 275 142 282
f 282 144 283
f 276 282 284
f 283 147 285
f 284 283 286
f 277 284 287
f 285 151 288
f 286 285 289
f 287 286 290
f 278 287 291
f 288 156 292
f 289 288 293
f 290 289 294
f 291 290 295
f 279 291 296
f 292 162 297
f 293 292 298
f 294 293 299
f 295 294 300
f 296 295 301
f 280 296 302
f 163 120 170
f 303 170 172
f 164 163 303
f 304 172 175
f 305 303 304
f 165 164 305
f 306 175 179
f 307 304 306
f 308 305 307
f 166 165 308
f 309 179 184
f 310 306 309
f 311 307 310
f 312 308 311
f 167 166 312
f 313 184 190
f 314 309 313
f 315 310 314
f 316 311 315
f 317 312 316
f 168 167 317
f 318 190 197
f 319 313 318
f 320 314 319
f 321 315 320
f 322 316 321
f 323 317 322
f 169 168 323
f 163 170 303
f 303 172 304
f 164 303 305
f 304 175 306
f 305 304 307
f 165 305 308
f 306 179 309
f 307 306 310
f 308 307 311
f 166 308 312
f 309 184 313
f 310 309 314
f 311 310 315
f 312 311 316
f 167 312 317
f 313 190 318
f 314 313 319
f 315 314 320
f 316 315 321
f 317 316 322
f 168 317 323
f 191 92 198
f 324 198 200
f 192 191 324
f 325 200 203
f 326 324 325
f 193 192 326
f 327 203 207
f 328 325 327
f 329 326 328
f 194 193 329
f 330 207 212
f 331 327 330
f 332 328 331
f 333 329 332
f 195 194 333
f 334 212 218
f 335 330 334
f 336 331 335
f 337 332 336
f 338 333 337
f 196 195 338
f 339 218 225
f 340 334 339
f 341 335 340
f 342 336 341
f 343 337 342
f 344 338 343
f 197 196 344
f 191 198 324
f 324 200 325
f 192 324 326
f 325 203 327
f 326 325 328
f 193 326 329
f 327 207 330
f 328 327 331
f 329 328 332
f 194 329 333
f 330 212 334
f 331 330 335
f 332 331 336
f 333 332 337
f 195 333 338
f 334 218 339
f 335 334 340
f 336 335 341
f 337 336 342
f 338 337 343
f 196 338 344
f 219 64 226
f 345 226 228
f 220 219 345
f 346 228 231
f 347 345 346
f 221 220 347
f 348 231 235
f 349 346 348
f 350 347 349
f 222 221 350
f 351 235 240
f 352 348 351
f 353 349 352
f 354 350 353
f 223 222 354
f 355 240 246
f 356 351 355
f 357 352 356
f 358 353 357
f 359 354 358
f 224 223 359
f 360 246 253
f 361 355 360
f 362 356 361
f 363 357 362
f 364 358 363
f 365 359 364
f 225 224 365
f 219 226 345
f 345 228 346
f 220 345 347
f 346 231 348
f 347 346 349
f 221 347 350
f 348 235 351
f 349 348 352
f 350 349 353
f 222 350 354
f 351 240 355
f 352 351 356
f 353 352 357
f 354 353 358
f 223 354 359
f 355 246 360
f 356 355 361
f 357 356 362
f 358 357 363
f 359 358 364
f 224 359 365
f 247 36 254
f 366 254 256
f 248 247 366
f 367 256 259
f 368 366 367
f 249 248 368
f 369 259 263
f 370 367 369
f 371 368 370
f 250 249 371
f 372 263 268
f 373 369 372
f 374 370 373
f 375 371 374
f 251 250 375
f 376 268 274
f 377 372 376
f 378 373 377
f 379 374 378
f 380 375 379
f 252 251 380
f 381 274 281
f 382 376 381
f 383 377 382
f 384 378 383
f 385 379 384
f 386 380 385
f 253 252 386
f 247 254 366
f 366 256 367
f 248 366 368
f 367 259 369
f 368 367 370
f 249 368 371
f 369 263 372
f 370 369 373
f 371 370 374
f 250 371 375
f 372 268 376
f 373 372 377
f 374 373 378
f 375 374 379
f 251 375 380
f 376 274 381
f 377 376 382
f 378 377 383
f 379 378 384
f 380 379 385
f 252 380 386
f 389 387 388
f 391 388 390
f 392 389 391
f 394 390 393
f 395 391 394
f 396 392 395
f 398 393 397
f 399 394 398
f 400 395 399
f 401 396 400
f 403 397 402
f 404 398 403
f 405 399 404
f 406 400 405
f 407 401 406
f 409 402 408
f 410 403 409
f 411 404 410
f 412 405 411
f 413 406 412
f 414 407 413
f 302 408 281
f 301 409 302
f 300 410 301
f 299 411 300
f 298 412 299
f 297 413 298
f 169 414 297
f 389 388 391
f 391 390 394
f 392 391 395
f 394 393 398
f 395 394 399
f 396 395 400
f 398 397 403
f 399 398 404
f 400 399 405
f 401 400 406
f 403 402 409
f 404 403 410
f 405 404 411
f 406 405 412
f 407 406 413
f 409 408 302
f 410 409 301
f 411 410 300
f 412 411 299
f 413 412 298
f 414 413 297
f 388 387 415
f 417 415 416
f 390 388 417
f 419 416 418
f 420 417 419
f 393 390 420
f 422 418 421
f 423 419 422
f 424 420 423
f 397 393 424
f 426 421 425
f 427 422 426
f 428 423 427
f 429 424 428
f 402 397 429
f 431 425 430
f 432 426 431
f 433 427 432
f 434 428 433
f 435 429 434
f 408 402 435
f 386 430 253
f 385 431 386
f 384 432 385
f 383 433 384
f 382 434 383
f 381 435 382
f 281 408 381
f 388 415 417
f 417 416 419
f 390 417 420
f 419 418 422
f 420 419 423
f 393 420 424
f 422 421 426
f 423 422 427
f 424 423 428
f 397 424 429
f 426 425 431
f 427 426 432
f 428 427 433
f 429 428 434
f 402 429 435
f 431 430 386
f 432 431 385
f 433 432 384
f 434 433 383
f 435 434 382
f 408 435 381
f 415 387 436
f 438 436 437
f 416 415 438
f 440 437 439
f 441 438 440
f 418 416 441
f 443 439 442
f 444 440 443
f 445 441 444
f 421 418 445
f 447 442 446
f 448 443 447
f 449 444 448
f 450 445 449
f 425 421 450
f 452 446 451
f 453 447 452
f 454 448 453
f 455 449 454
f 456 450 455
f 430 425 456
f 365 451 225
f 364 452 365
f 363 453 364
f 362 454 363
f 361 455 362
f 360 456 361
f 253 430 360
f 415 436 438
f 438 437 440
f 416 438 441
f 440 439 443
f 441 440 444
f 418 441 445
f 443 442 447
f 444 443 448
f 445 444 449
f 421 445 450
f 447 446 452
f 448 447 453
f 449 448 454
f 450 449 455
f 425 450 456
f 452 451 365
f 453 452 364
f 454 453 363
f 455 454 362
f 456 455 361
f 430 456 360
f 436 387 457
f 459 457 458
f 437 436 459
f 461 458 460
f 462 459 461
f 439 437 462
f 464 460 463
f 465 461 464
f 466 462 465
f 442 439 466
f 468 463 467
f 469 464 468
f 470 465 469
f 471 466 470
f 446 442 471
f 473 467 472
f 474 468 473
f 475 469 474
f 476 470 475
f 477 471 476
f 451 446 477
f 344 472 197
f 343 473 344
f 342 474 343
f 341 475 342
f 340 476 341
f 339 477 340
f 225 451 339
f 436 457 459
f 459 458 461
f 437 459 462
f 461 460 464
f 462 461 465
f 439 462 466
f 464 463 468
f 465 464 469
f 466 465 470
f 442 466 471
f 468 467 473
f 469 468 474
f 470 469 475
f 471 470 476
f 446 471 477
f 473 472 344
f 474 473 343
f 475 474 342
f 476 475 341
f 477 476 340
f 451 477 339
f 457 387 389
f 478 389 392
f 458 457 478
f 479 392 396
f 480 478 479
f 460 458 480
f 481 396 401
f 482 479 481
f 483 480 482
f 463 460 483
f 484 401 407
f 485 481 484
f 486 482 485
f 487 483 486
f 467 463 487
f 488 407 414
f 489 484 488
f 490 485 489
f 491 486 490
f 492 487 491
f 472 467 492
f 323 414 169
f 322 488 323
f 321 489 322
f 320 490 321
f 319 491 320
f 318 492 319
f 197 472 318
f 457 389 478
f 478 392 479
f 458 478 480
f 479 396 481
f 480 479 482
f 460 480 483
f 481 401 484
f 482 481 485
f 483 482 486
f 463 483 487
f 484 407 488
f 485 484 489
f 486 485 490
f 487 486 491
f 467 487 492
f 488 414 323
f 489 488 322
f 490 489 321
f 491 490 320
f 492 491 319
f 472 492 318
