# File exported by Houdini 20.5.445 (www.sidefx.com)
# 492 points
# 2940 vertices
# 980 primitives
# Bounds: [-217.951813, -44.6593628, -1129.87866] to [388.725708, 161.036469, -624.922363]
g 
v 85.3869324 58.1885643 -1129.87866
v 85.3869324 74.4576416 -1126.72742
v 130.968292 63.2160149 -1126.72742
v 85.3869324 90.3206635 -1117.35181
v 133.51474 80.6748657 -1120.56628
v 175.411957 68.1179504 -1117.35181
v 85.3869324 105.381607 -1101.98608
v 135.010529 96.8745728 -1107.85291
v 178.439545 86.1637268 -1107.85291
v 217.608429 72.772049 -1101.98608
v 85.3869324 119.264435 -1081.01392
v 135.50351 111.751144 -1089.23816
v 179.859833 102.328171 -1091.7843
v 219.967194 90.9200439 -1089.23816
v 256.50412 77.0620728 -1081.01392
v 85.3869324 131.622574 -1054.95886
v 135.010529 125.215744 -1065.03918
v 179.859833 116.896896 -1069.776
v 220.677155 106.830154 -1069.776
v 257.843353 94.9216461 -1065.03918
v 291.128082 80.8809357 -1054.95886
v 85.3869324 142.147461 -1024.47107
v 133.51474 137.112595 -1035.30811
v 178.439545 130.005753 -1041.62256
v 219.967194 121.067139 -1043.69629
v 257.843353 110.422501 -1041.62256
v 291.637238 98.115097 -1035.30811
v 320.615875 84.133316 -1024.47107
v 85.3869324 150.57637 -990.312012
v 130.968292 147.174866 -999.893921
v 175.412018 141.551926 -1006.41809
v 217.608429 133.847916 -1009.72107
v 256.50412 124.255112 -1009.72107
v 291.128082 113.013077 -1006.41809
v 320.615814 100.402405 -999.893921
v 344.231323 86.7379913 -990.312256
v 113.55777 45.0265846 -1126.72742
v 163.259491 49.5995522 -1120.56628
v 141.025482 32.1931076 -1117.35181
v 209.108551 54.1226463 -1107.85291
v 192.520172 36.7921829 -1107.85291
v 167.104279 20.0085907 -1101.98608
v 250.940948 58.5606499 -1089.23816
v 238.247284 41.3287697 -1091.7843
v 218.67868 24.8550911 -1089.23816
v 191.143219 8.77713776 -1081.01392
v 288.512482 62.8805885 -1065.03918
v 279.064667 45.8307152 -1069.776
v 263.473724 29.5424118 -1069.776
v 241.594513 13.8636932 -1065.03918
v 212.541901 -1.22080421 -1054.95886
v 321.381866 67.0398102 -1035.30811
v 315.353119 50.3401146 -1041.62256
v 303.142487 34.1711006 -1043.69629
v 285.023468 18.6537399 -1041.62256
v 260.984589 3.94050217 -1035.30811
v 230.766388 -9.73559952 -1024.47107
v 348.786743 70.971344 -999.894043
v 346.766602 54.8854942 -1006.41809
v 338.221649 38.8820686 -1009.72131
v 323.364777 23.3605957 -1009.72131
v 302.567108 8.70861435 -1006.41809
v 276.347809 -4.70818138 -999.894043
v 245.361603 -16.5547485 -990.312256
v 57.216095 45.0265846 -1126.72742
v 85.3869324 30.3940125 -1120.56628
v 29.7483826 32.1931076 -1117.35181
v 112.227509 16.9897041 -1107.85291
v 58.5462952 16.9897041 -1107.85291
v 3.66958618 20.0085907 -1101.98608
v 137.588348 4.85591888 -1089.23816
v 85.3869324 3.62904358 -1091.7843
v 33.1855164 4.85591888 -1089.23816
v -20.3692932 8.77713776 -1081.01392
v 161.301849 -5.93875504 -1065.03918
v 110.613434 -8.1573143 -1069.776
v 60.1604309 -8.1573143 -1069.776
v 9.47201538 -5.93875504 -1065.03918
v -41.7680969 -1.22080421 -1054.95886
v 183.111908 -15.2650986 -1035.30811
v 134.461212 -18.4792328 -1041.62256
v 85.3869324 -19.5336266 -1043.69629
v 36.3126526 -18.4792328 -1041.62256
v -12.3381042 -15.2650986 -1035.30811
v -59.9925232 -9.73559952 -1024.47107
v 202.595551 -22.8976059 -999.894043
v 156.903351 -27.216259 -1006.41809
v 109.425812 -29.4028931 -1009.72131
v 61.348053 -29.4028931 -1009.72131
v 13.8705139 -27.216259 -1006.41809
v -31.8216858 -22.8976059 -999.894043
v -74.5877075 -16.5547485 -990.312256
v 39.8055725 63.2160149 -1126.72742
v 7.51443481 49.5995522 -1120.56628
v -4.63809204 68.1179504 -1117.35181
v -21.7463074 36.7921829 -1107.85291
v -38.3347473 54.1226463 -1107.85291
v -46.8345642 72.772049 -1101.98608
v -47.9048767 24.8550911 -1089.23816
v -67.4734192 41.3287697 -1091.7843
v -80.1670837 58.5606499 -1089.23816
v -85.7302856 77.0620728 -1081.01392
v -70.8206177 13.8636932 -1065.03918
v -92.6999512 29.5424118 -1069.776
v -108.290771 45.8307152 -1069.776
v -117.738586 62.8805885 -1065.03918
v -120.354187 80.8809357 -1054.95886
v -90.2106628 3.94050217 -1035.30811
v -114.249664 18.6537399 -1041.62256
v -132.368591 34.1711006 -1043.69629
v -144.579224 50.3401146 -1041.62256
v -150.608063 67.0398102 -1035.30811
v -149.84198 84.133316 -1024.47107
v -105.573914 -4.70818138 -999.894043
v -131.793213 8.70861435 -1006.41809
v -152.590881 23.3605957 -1009.72131
v -167.447784 38.8820686 -1009.72131
v -175.992828 54.8854942 -1006.41809
v -178.012848 70.971344 -999.894043
v -173.457397 86.7379913 -990.312256
v 37.2590637 80.6748657 -1120.56628
v -7.66567993 86.1637268 -1107.85291
v 35.7633972 96.8745728 -1107.85291
v -49.1933289 90.9200439 -1089.23816
v -9.08590698 102.328171 -1091.7843
v 35.2702942 111.751144 -1089.23816
v -87.0694885 94.9216461 -1065.03918
v -49.9033203 106.830154 -1069.776
v -9.08590698 116.896896 -1069.776
v 35.7633362 125.215744 -1065.03918
v -120.863373 98.115097 -1035.30811
v -87.0694885 110.422501 -1041.62256
v -49.1933289 121.067139 -1043.69629
v -7.66567993 130.005753 -1041.62256
v 37.2590637 137.112595 -1035.30811
v -149.841949 100.402405 -999.893921
v -120.354187 113.013077 -1006.41809
v -85.7302856 124.255112 -1009.72107
v -46.8346252 133.847916 -1009.72107
v -4.63815308 141.551926 -1006.41809
v 39.8055725 147.174866 -999.893921
v 57.216095 155.309402 -960.127441
v 7.51437378 151.009857 -967.369751
v 29.7483826 157.617996 -927.877563
v -38.3347473 144.334915 -971.572754
v -21.7463074 152.085327 -933.684204
v 3.66958618 157.444412 -894.367432
v -80.1670837 135.538681 -972.950684
v -67.4733582 144.176636 -936.416016
v -47.9048157 150.612228 -899.262085
v -20.3692932 154.79303 -860.433716
v -117.738556 124.751663 -971.572754
v -108.29071 134.109909 -936.416016
v -92.6998901 141.394272 -900.805786
v -70.8205566 146.672653 -864.410034
v -41.7680969 149.730026 -826.923584
v -150.608032 112.012375 -967.369751
v -144.579163 121.79129 -933.684204
v -132.368439 129.781082 -899.262085
v -114.249573 135.961823 -864.410034
v -90.2105713 140.231232 -829.419434
v -59.9925232 142.381775 -794.673706
v -178.012756 97.2953033 -960.127441
v -175.992706 106.876358 -927.877563
v -167.447601 115.242035 -894.367432
v -152.59082 122.183441 -860.433716
v -131.793152 127.527283 -826.923584
v -105.573883 131.140137 -794.673706
v -74.5877075 132.93187 -764.488892
v -195.42334 79.105896 -960.127441
v -198.735931 61.7315102 -967.369751
v -210.379303 70.9515686 -927.877563
v -194.20285 44.8668404 -971.572754
v -210.791229 52.6172752 -933.684204
v -217.951813 62.4785728 -894.367432
v -182.485107 28.6434631 -972.950684
v -202.763672 35.4107475 -936.416016
v -214.747345 43.7170296 -899.262085
v -217.951813 53.8985176 -860.433716
v -163.87323 13.1804695 -971.572754
v -187.172791 19.122448 -936.416016
v -202.763672 26.4067955 -900.805786
v -210.791168 35.1014328 -864.410034
v -210.379303 45.4255638 -826.923584
v -138.338531 -1.36784363 -967.369751
v -163.873199 3.60037613 -933.684204
v -182.485077 10.0115051 -899.262085
v -194.202728 17.7709427 -864.410034
v -198.735931 26.8510361 -829.419434
v -195.42334 37.2712517 -794.673706
v -105.573883 -14.7630196 -960.127441
v -131.793152 -11.1501617 -927.877563
v -152.59082 -5.80632019 -894.367432
v -167.447601 1.13508797 -860.433716
v -175.992706 9.50072861 -826.923584
v -178.012756 19.0818329 -794.673706
v -173.457397 29.6391296 -764.488892
v -59.9925232 -26.0046844 -960.127441
v -12.3381042 -32.4430885 -967.369751
v -41.7680969 -33.3529091 -927.877563
v 36.3126526 -36.1910973 -971.572754
v 9.47207642 -39.1514854 -933.684204
v -20.3692932 -38.4159164 -894.367432
v 85.3869324 -37.4214821 -972.950684
v 60.1604309 -41.8769989 -936.416016
v 33.1855164 -43.1790314 -899.262085
v 3.66958618 -41.0673065 -860.433716
v 134.461212 -36.1910973 -971.572754
v 110.613434 -41.8769989 -936.416016
v 85.3869324 -44.6593628 -900.805786
v 58.5462952 -44.5641632 -864.410034
v 29.7483826 -41.24086 -826.923584
v 183.111908 -32.4430885 -967.369751
v 161.301849 -39.1514854 -933.684204
v 137.588348 -43.1790314 -899.262085
v 112.227509 -44.5641632 -864.410034
v 85.3869324 -43.2217712 -829.419434
v 57.216095 -38.9322853 -794.673706
v 230.766388 -26.0046844 -960.127441
v 212.541901 -33.3529091 -927.877563
v 191.143219 -38.4159164 -894.367432
v 167.104279 -41.0673065 -860.433716
v 141.025482 -41.24086 -826.923584
v 113.55777 -38.9322853 -794.673706
v 85.3869324 -34.1992607 -764.489014
v 276.347809 -14.7630196 -960.127441
v 309.112396 -1.36784363 -967.369751
v 302.566986 -11.1501617 -927.877563
v 334.647064 13.1804695 -971.572754
v 334.647064 3.60037613 -933.684204
v 323.364655 -5.80632019 -894.367432
v 353.259033 28.6434631 -972.950684
v 357.946777 19.122448 -936.416016
v 353.258911 10.0115051 -899.262085
v 338.221527 1.13508797 -860.433716
v 364.976807 44.8668404 -971.572754
v 373.537598 35.4107475 -936.416016
v 373.537598 26.4067955 -900.805786
v 364.976685 17.7709427 -864.410034
v 346.766602 9.50072861 -826.923584
v 369.509766 61.7315102 -967.369751
v 381.565186 52.6172752 -933.684204
v 385.52124 43.7170296 -899.262085
v 381.564941 35.1014328 -864.410034
v 369.509766 26.8510361 -829.419434
v 348.786621 19.0818329 -794.673706
v 366.197266 79.105896 -960.127441
v 381.153198 70.9515686 -927.877563
v 388.725708 62.4785728 -894.367432
v 388.725708 53.8985176 -860.433716
v 381.153198 45.4255638 -826.923584
v 366.197266 37.2712517 -794.673706
v 344.231323 29.6391296 -764.488892
v 348.786621 97.2953033 -960.127441
v 321.381866 112.012375 -967.369751
v 346.766602 106.876358 -927.877563
v 288.512482 124.751663 -971.572754
v 315.352997 121.79129 -933.684204
v 338.221527 115.242035 -894.367432
v 250.940948 135.538681 -972.950684
v 279.064545 134.109909 -936.416016
v 303.142365 129.781082 -899.262085
v 323.364655 122.183441 -860.433716
v 209.108551 144.334915 -971.572754
v 238.247223 144.176636 -936.416016
v 263.473724 141.394272 -900.805786
v 285.023468 135.961823 -864.410034
v 302.566986 127.527283 -826.923584
v 163.259491 151.009857 -967.369751
v 192.520172 152.085327 -933.684204
v 218.67868 150.612228 -899.262085
v 241.594391 146.672653 -864.410034
v 260.984467 140.231232 -829.419434
v 276.347809 131.140137 -794.673706
v 113.55777 155.309402 -960.127441
v 141.025482 157.617996 -927.877563
v 167.104279 157.444412 -894.367432
v 191.143219 154.79303 -860.433716
v 212.541901 149.730026 -826.923584
v 230.766388 142.381775 -794.673706
v 245.361603 132.93187 -764.488892
v 85.3869324 159.598846 -925.381714
v 58.5462952 160.941284 -890.391113
v 112.227509 160.941284 -890.391113
v 33.1855164 159.556122 -855.53894
v 85.3869324 161.036469 -853.995117
v 137.588348 159.556122 -855.53894
v 9.47207642 155.52861 -821.116943
v 60.1604309 158.254074 -818.38501
v 110.613434 158.254074 -818.38501
v 161.301849 155.52861 -821.116943
v -12.3381042 148.820221 -787.431274
v 36.3126526 152.568207 -783.228271
v 85.3869324 153.798584 -781.850464
v 134.461212 152.568207 -783.228271
v 183.111908 148.820221 -787.431274
v -31.8216858 139.274689 -754.906982
v 13.8705139 143.593338 -748.383057
v 61.348053 145.779968 -745.079834
v 109.425812 145.779968 -745.079834
v 156.903351 143.593338 -748.383057
v 202.595551 139.274689 -754.906982
v -198.735931 89.526123 -925.381714
v -210.791168 81.27565 -890.391113
v -194.202728 98.6061401 -890.391113
v -214.747345 72.6601257 -855.53894
v -202.763672 89.9703369 -853.995117
v -182.485077 106.365616 -855.53894
v -210.791229 63.7598534 -821.116943
v -202.763672 80.9663544 -818.38501
v -187.172791 97.2546387 -818.38501
v -163.873199 112.776703 -821.116943
v -198.735931 54.6456108 -787.431274
v -194.20285 71.5102539 -783.228271
v -182.485107 87.7336578 -781.850464
v -163.87323 103.196655 -783.228271
v -138.338531 117.744934 -787.431274
v -178.012848 45.4057503 -754.906982
v -175.992828 61.4916039 -748.383057
v -167.447784 77.4950256 -745.079834
v -152.590881 93.0165253 -745.079834
v -131.793213 107.668503 -748.383057
v -105.573914 121.085266 -754.906982
v -90.2105713 -23.8541069 -925.381714
v -70.8205566 -30.2955513 -890.391113
v -114.249573 -19.5847321 -890.391113
v -47.9048157 -34.2351036 -855.53894
v -92.6998901 -25.01717 -853.995117
v -132.368439 -13.4039917 -855.53894
v -21.7463074 -35.7082291 -821.116943
v -67.4733582 -27.799511 -818.38501
v -108.29071 -17.7327881 -818.38501
v -144.579163 -5.4141655 -821.116943
v 7.51437378 -34.6327553 -787.431274
v -38.3346863 -27.9578323 -783.228271
v -80.1670837 -19.1615753 -781.850464
v -117.738556 -8.37461472 -783.228271
v -150.608002 4.36470604 -787.431274
v 39.8055725 -30.7977638 -754.907104
v -4.63815308 -25.1748581 -748.383057
v -46.8346252 -17.4707985 -745.079834
v -85.7302856 -7.87799835 -745.079834
v -120.354187 3.3640461 -748.383057
v -149.841949 15.9746933 -754.907104
v 260.984467 -23.8541069 -925.381714
v 285.023468 -19.5847015 -890.391113
v 241.594391 -30.2955513 -890.391113
v 303.142365 -13.4039917 -855.53894
v 263.473724 -25.01717 -853.995117
v 218.67868 -34.2351036 -855.53894
v 315.352997 -5.4141655 -821.116943
v 279.064545 -17.7327881 -818.38501
v 238.247223 -27.799511 -818.38501
v 192.520172 -35.7082291 -821.116943
v 321.381866 4.36470604 -787.431274
v 288.512482 -8.37461472 -783.228271
v 250.940948 -19.1615753 -781.850464
v 209.108551 -27.9578323 -783.228271
v 163.259491 -34.6327553 -787.431274
v 320.615814 15.9746933 -754.907104
v 291.128082 3.3640461 -748.383057
v 256.50412 -7.87799835 -745.079834
v 217.608429 -17.4707985 -745.079834
v 175.412018 -25.1748581 -748.383057
v 130.968292 -30.7977638 -754.907104
v 369.509766 89.526123 -925.381714
v 364.976685 98.6061401 -890.391113
v 381.564941 81.27565 -890.391113
v 353.258911 106.365616 -855.53894
v 373.537598 89.9703369 -853.995117
v 385.52124 72.6601257 -855.53894
v 334.647064 112.776703 -821.116943
v 357.946777 97.2546387 -818.38501
v 373.537598 80.9663544 -818.38501
v 381.565186 63.7598534 -821.116943
v 309.112396 117.744934 -787.431274
v 334.647064 103.196655 -783.228271
v 353.259033 87.7336578 -781.850464
v 364.976807 71.5102539 -783.228271
v 369.509766 54.6456108 -787.431274
v 276.347809 121.085266 -754.906982
v 302.567108 107.668503 -748.383057
v 323.364777 93.0165253 -745.079834
v 338.221649 77.4950256 -745.079834
v 346.766602 61.4916039 -748.383057
v 348.786743 45.4057503 -754.906982
v 85.3869324 58.1885643 -624.922363
v 113.55777 71.3505402 -628.07373
v 57.216095 71.3505402 -628.07373
v 141.025482 84.1839905 -637.449341
v 85.3869324 85.983139 -634.234741
v 29.7483826 84.1839905 -637.449341
v 167.104279 96.3685303 -652.814941
v 112.227509 99.3873901 -646.94812
v 58.5462952 99.3873901 -646.94812
v 3.66958618 96.3685303 -652.814941
v 191.143219 107.599991 -673.787109
v 137.588348 111.52121 -665.562744
v 85.3869324 112.748108 -663.016724
v 33.1855164 111.52121 -665.562744
v -20.3692932 107.599991 -673.787109
v 212.541901 117.5979 -699.842285
v 161.301849 122.315872 -689.761963
v 110.613434 124.534439 -685.025146
v 60.1604309 124.534439 -685.025146
v 9.47201538 122.315918 -689.761963
v -41.7680969 117.5979 -699.842285
v 230.766388 126.112717 -730.329956
v 183.111908 131.642212 -719.49292
v 134.461212 134.856369 -713.178589
v 85.3869324 135.910736 -711.104736
v 36.3126526 134.856369 -713.178589
v -12.3381042 131.642212 -719.49292
v -59.9925232 126.112717 -730.329956
v 130.968292 53.1611443 -628.07373
v 175.411957 48.2591743 -637.449341
v 163.259491 66.7775421 -634.234741
v 217.608429 43.6051064 -652.814941
v 209.108551 62.2544518 -646.94812
v 192.520172 79.5849304 -646.94812
v 256.50412 39.3150597 -673.787109
v 250.940948 57.8164787 -665.562744
v 238.247284 75.0483856 -663.016724
v 218.67868 91.5220032 -665.562744
v 291.128082 35.4961853 -699.842285
v 288.512482 53.4965324 -689.761963
v 279.064667 70.5463867 -685.025146
v 263.473724 86.8347168 -685.025146
v 241.594513 102.513428 -689.761963
v 320.615875 32.2437744 -730.329956
v 321.381866 49.337307 -719.49292
v 315.353119 66.036972 -713.178589
v 303.142487 82.2060242 -711.104736
v 285.023468 97.7233887 -713.178589
v 260.984589 112.436615 -719.49292
v 85.3869324 41.9194832 -628.07373
v 85.3869324 26.0564575 -637.449341
v 133.51474 35.7022324 -634.234741
v 85.3869324 10.9955101 -652.814941
v 135.010529 19.5025558 -646.94812
v 178.439545 30.2133751 -646.94812
v 85.3869324 -2.88733864 -673.787109
v 135.50351 4.62597466 -665.562744
v 179.859833 14.0489159 -663.016724
v 219.967194 25.457119 -665.562744
v 85.3869324 -15.2454071 -699.842407
v 135.010529 -8.8386116 -689.761963
v 179.859833 -0.519815445 -685.025146
v 220.677155 9.54697037 -685.025146
v 257.843353 21.4554558 -689.761963
v 85.3869324 -25.7703438 -730.329956
v 133.51474 -20.735466 -719.49292
v 178.439545 -13.628624 -713.178589
v 219.967194 -4.69003868 -711.104858
v 257.843353 5.95462418 -713.178589
v 291.637238 18.262001 -719.49292
v 39.8055725 53.1611443 -628.07373
v -4.63809204 48.2591743 -637.449341
v 37.2590637 35.7022324 -634.234741
v -46.8345642 43.6051064 -652.814941
v -7.66567993 30.2133751 -646.94812
v 35.7633972 19.5025558 -646.94812
v -85.7302856 39.3150597 -673.787109
v -49.1933289 25.457119 -665.562744
v -9.08590698 14.0489159 -663.016724
v 35.2702942 4.62597466 -665.562744
v -120.354187 35.4961853 -699.842285
v -87.0694885 21.4554558 -689.761963
v -49.9033203 9.54697037 -685.025146
v -9.08590698 -0.519815445 -685.025146
v 35.7633362 -8.8386116 -689.762085
v -149.84198 32.2437744 -730.329956
v -120.863373 18.262001 -719.49292
v -87.0694885 5.95462418 -713.178589
v -49.1933289 -4.69003868 -711.104858
v -7.66567993 -13.628624 -713.178589
v 37.2590637 -20.735466 -719.49292
v 7.51443481 66.7775421 -634.234741
v -21.7463074 79.5849304 -646.94812
v -38.3347473 62.2544518 -646.94812
v -47.9048767 91.5220032 -665.562744
v -67.4734192 75.0483856 -663.016724
v -80.1670837 57.8164787 -665.562744
v -70.8206177 102.513428 -689.761963
v -92.6999512 86.8347168 -685.025146
v -108.290771 70.5463867 -685.025146
v -117.738586 53.4965324 -689.761963
v -90.2106628 112.436615 -719.49292
v -114.249664 97.7233887 -713.178589
v -132.368591 82.2060242 -711.104736
v -144.579224 66.036972 -713.178589
v -150.608063 49.337307 -719.49292
g 
f 3 1 2
f 5 2 4
f 6 3 5
f 8 4 7
f 9 5 8
f 10 6 9
f 12 7 11
f 13 8 12
f 14 9 13
f 15 10 14
f 17 11 16
f 18 12 17
f 19 13 18
f 20 14 19
f 21 15 20
f 23 16 22
f 24 17 23
f 25 18 24
f 26 19 25
f 27 20 26
f 28 21 27
f 30 22 29
f 31 23 30
f 32 24 31
f 33 25 32
f 34 26 33
f 35 27 34
f 36 28 35
f 3 2 5
f 5 4 8
f 6 5 9
f 8 7 12
f 9 8 13
f 10 9 14
f 12 11 17
f 13 12 18
f 14 13 19
f 15 14 20
f 17 16 23
f 18 17 24
f 19 18 25
f 20 19 26
f 21 20 27
f 23 22 30
f 24 23 31
f 25 24 32
f 26 25 33
f 27 26 34
f 28 27 35
f 37 1 3
f 38 3 6
f 39 37 38
f 40 6 10
f 41 38 40
f 42 39 41
f 43 10 15
f 44 40 43
f 45 41 44
f 46 42 45
f 47 15 21
f 48 43 47
f 49 44 48
f 50 45 49
f 51 46 50
f 52 21 28
f 53 47 52
f 54 48 53
f 55 49 54
f 56 50 55
f 57 51 56
f 58 28 36
f 59 52 58
f 60 53 59
f 61 54 60
f 62 55 61
f 63 56 62
f 64 57 63
f 37 3 38
f 38 6 40
f 39 38 41
f 40 10 43
f 41 40 44
f 42 41 45
f 43 15 47
f 44 43 48
f 45 44 49
f 46 45 50
f 47 21 52
f 48 47 53
f 49 48 54
f 50 49 55
f 51 50 56
f 52 28 58
f 53 52 59
f 54 53 60
f 55 54 61
f 56 55 62
f 57 56 63
f 65 1 37
f 66 37 39
f 67 65 66
f 68 39 42
f 69 66 68
f 70 67 69
f 71 42 46
f 72 68 71
f 73 69 72
f 74 70 73
f 75 46 51
f 76 71 75
f 77 72 76
f 78 73 77
f 79 74 78
f 80 51 57
f 81 75 80
f 82 76 81
f 83 77 82
f 84 78 83
f 85 79 84
f 86 57 64
f 87 80 86
f 88 81 87
f 89 82 88
f 90 83 89
f 91 84 90
f 92 85 91
f 65 37 66
f 66 39 68
f 67 66 69
f 68 42 71
f 69 68 72
f 70 69 73
f 71 46 75
f 72 71 76
f 73 72 77
f 74 73 78
f 75 51 80
f 76 75 81
f 77 76 82
f 78 77 83
f 79 78 84
f 80 57 86
f 81 80 87
f 82 81 88
f 83 82 89
f 84 83 90
f 85 84 91
f 93 1 65
f 94 65 67
f 95 93 94
f 96 67 70
f 97 94 96
f 98 95 97
f 99 70 74
f 100 96 99
f 101 97 100
f 102 98 101
f 103 74 79
f 104 99 103
f 105 100 104
f 106 101 105
f 107 102 106
f 108 79 85
f 109 103 108
f 110 104 109
f 111 105 110
f 112 106 111
f 113 107 112
f 114 85 92
f 115 108 114
f 116 109 115
f 117 110 116
f 118 111 117
f 119 112 118
f 120 113 119
f 93 65 94
f 94 67 96
f 95 94 97
f 96 70 99
f 97 96 100
f 98 97 101
f 99 74 103
f 100 99 104
f 101 100 105
f 102 101 106
f 103 79 108
f 104 103 109
f 105 104 110
f 106 105 111
f 107 106 112
f 108 85 114
f 109 108 115
f 110 109 116
f 111 110 117
f 112 111 118
f 113 112 119
f 2 1 93
f 121 93 95
f 4 2 121
f 122 95 98
f 123 121 122
f 7 4 123
f 124 98 102
f 125 122 124
f 126 123 125
f 11 7 126
f 127 102 107
f 128 124 127
f 129 125 128
f 130 126 129
f 16 11 130
f 131 107 113
f 132 127 131
f 133 128 132
f 134 129 133
f 135 130 134
f 22 16 135
f 136 113 120
f 137 131 136
f 138 132 137
f 139 133 138
f 140 134 139
f 141 135 140
f 29 22 141
f 2 93 121
f 121 95 122
f 4 121 123
f 122 98 124
f 123 122 125
f 7 123 126
f 124 102 127
f 125 124 128
f 126 125 129
f 11 126 130
f 127 107 131
f 128 127 132
f 129 128 133
f 130 129 134
f 16 130 135
f 131 113 136
f 132 131 137
f 133 132 138
f 134 133 139
f 135 134 140
f 22 135 141
f 142 29 141
f 143 141 140
f 144 142 143
f 145 140 139
f 146 143 145
f 147 144 146
f 148 139 138
f 149 145 148
f 150 146 149
f 151 147 150
f 152 138 137
f 153 148 152
f 154 149 153
f 155 150 154
f 156 151 155
f 157 137 136
f 158 152 157
f 159 153 158
f 160 154 159
f 161 155 160
f 162 156 161
f 163 136 120
f 164 157 163
f 165 158 164
f 166 159 165
f 167 160 166
f 168 161 167
f 169 162 168
f 142 141 143
f 143 140 145
f 144 143 146
f 145 139 148
f 146 145 149
f 147 146 150
f 148 138 152
f 149 148 153
f 150 149 154
f 151 150 155
f 152 137 157
f 153 152 158
f 154 153 159
f 155 154 160
f 156 155 161
f 157 136 163
f 158 157 164
f 159 158 165
f 160 159 166
f 161 160 167
f 162 161 168
f 170 120 119
f 171 119 118
f 172 170 171
f 173 118 117
f 174 171 173
f 175 172 174
f 176 117 116
f 177 173 176
f 178 174 177
f 179 175 178
f 180 116 115
f 181 176 180
f 182 177 181
f 183 178 182
f 184 179 183
f 185 115 114
f 186 180 185
f 187 181 186
f 188 182 187
f 189 183 188
f 190 184 189
f 191 114 92
f 192 185 191
f 193 186 192
f 194 187 193
f 195 188 194
f 196 189 195
f 197 190 196
f 170 119 171
f 171 118 173
f 172 171 174
f 173 117 176
f 174 173 177
f 175 174 178
f 176 116 180
f 177 176 181
f 178 177 182
f 179 178 183
f 180 115 185
f 181 180 186
f 182 181 187
f 183 182 188
f 184 183 189
f 185 114 191
f 186 185 192
f 187 186 193
f 188 187 194
f 189 188 195
f 190 189 196
f 198 92 91
f 199 91 90
f 200 198 199
f 201 90 89
f 202 199 201
f 203 200 202
f 204 89 88
f 205 201 204
f 206 202 205
f 207 203 206
f 208 88 87
f 209 204 208
f 210 205 209
f 211 206 210
f 212 207 211
f 213 87 86
f 214 208 213
f 215 209 214
f 216 210 215
f 217 211 216
f 218 212 217
f 219 86 64
f 220 213 219
f 221 214 220
f 222 215 221
f 223 216 222
f 224 217 223
f 225 218 224
f 198 91 199
f 199 90 201
f 200 199 202
f 201 89 204
f 202 201 205
f 203 202 206
f 204 88 208
f 205 204 209
f 206 205 210
f 207 206 211
f 208 87 213
f 209 208 214
f 210 209 215
f 211 210 216
f 212 211 217
f 213 86 219
f 214 213 220
f 215 214 221
f 216 215 222
f 217 216 223
f 218 217 224
f 226 64 63
f 227 63 62
f 228 226 227
f 229 62 61
f 230 227 229
f 231 228 230
f 232 61 60
f 233 229 232
f 234 230 233
f 235 231 234
f 236 60 59
f 237 232 236
f 238 233 237
f 239 234 238
f 240 235 239
f 241 59 58
f 242 236 241
f 243 237 242
f 244 238 243
f 245 239 244
f 246 240 245
f 247 58 36
f 248 241 247
f 249 242 248
f 250 243 249
f 251 244 250
f 252 245 251
f 253 246 252
f 226 63 227
f 227 62 229
f 228 227 230
f 229 61 232
f 230 229 233
f 231 230 234
f 232 60 236
f 233 232 237
f 234 233 238
f 235 234 239
f 236 59 241
f 237 236 242
f 238 237 243
f 239 238 244
f 240 239 245
f 241 58 247
f 242 241 248
f 243 242 249
f 244 243 250
f 245 244 251
f 246 245 252
f 254 36 35
f 255 35 34
f 256 254 255
f 257 34 33
f 258 255 257
f 259 256 258
f 260 33 32
f 261 257 260
f 262 258 261
f 263 259 262
f 264 32 31
f 265 260 264
f 266 261 265
f 267 262 266
f 268 263 267
f 269 31 30
f 270 264 269
f 271 265 270
f 272 266 271
f 273 267 272
f 274 268 273
f 275 30 29
f 276 269 275
f 277 270 276
f 278 271 277
f 279 272 278
f 280 273 279
f 281 274 280
f 254 35 255
f 255 34 257
f 256 255 258
f 257 33 260
f 258 257 261
f 259 258 262
f 260 32 264
f 261 260 265
f 262 261 266
f 263 262 267
f 264 31 269
f 265 264 270
f 266 265 271
f 267 266 272
f 268 267 273
f 269 30 275
f 270 269 276
f 271 270 277
f 272 271 278
f 273 272 279
f 274 273 280
f 275 29 142
f 282 142 144
f 276 275 282
f 283 144 147
f 284 282 283
f 277 276 284
f 285 147 151
f 286 283 285
f 287 284 286
f 278 277 287
f 288 151 156
f 289 285 288
f 290 286 289
f 291 287 290
f 279 278 291
f 292 156 162
f 293 288 292
f 294 289 293
f 295 290 294
f 296 291 295
f 280 279 296
f 297 162 169
f 298 292 297
f 299 293 298
f 300 294 299
f 301 295 300
f 302 296 301
f 281 280 302
f 275 142 282
f 282 144 283
f 276 282 284
f 283 147 285
f 284 283 286
f 277 284 287
f 285 151 288
f 286 285 289
f 287 286 290
f 278 287 291
f 288 156 292
f 289 288 293
f 290 289 294
f 291 290 295
f 279 291 296
f 292 162 297
f 293 292 298
f 294 293 299
f 295 294 300
f 296 295 301
f 280 296 302
f 163 120 170
f 303 170 172
f 164 163 303
f 304 172 175
f 305 303 304
f 165 164 305
f 306 175 179
f 307 304 306
f 308 305 307
f 166 165 308
f 309 179 184
f 310 306 309
f 311 307 310
f 312 308 311
f 167 166 312
f 313 184 190
f 314 309 313
f 315 310 314
f 316 311 315
f 317 312 316
f 168 167 317
f 318 190 197
f 319 313 318
f 320 314 319
f 321 315 320
f 322 316 321
f 323 317 322
f 169 168 323
f 163 170 303
f 303 172 304
f 164 303 305
f 304 175 306
f 305 304 307
f 165 305 308
f 306 179 309
f 307 306 310
f 308 307 311
f 166 308 312
f 309 184 313
f 310 309 314
f 311 310 315
f 312 311 316
f 167 312 317
f 313 190 318
f 314 313 319
f 315 314 320
f 316 315 321
f 317 316 322
f 168 317 323
f 191 92 198
f 324 198 200
f 192 191 324
f 325 200 203
f 326 324 325
f 193 192 326
f 327 203 207
f 328 325 327
f 329 326 328
f 194 193 329
f 330 207 212
f 331 327 330
f 332 328 331
f 333 329 332
f 195 194 333
f 334 212 218
f 335 330 334
f 336 331 335
f 337 332 336
f 338 333 337
f 196 195 338
f 339 218 225
f 340 334 339
f 341 335 340
f 342 336 341
f 343 337 342
f 344 338 343
f 197 196 344
f 191 198 324
f 324 200 325
f 192 324 326
f 325 203 327
f 326 325 328
f 193 326 329
f 327 207 330
f 328 327 331
f 329 328 332
f 194 329 333
f 330 212 334
f 331 330 335
f 332 331 336
f 333 332 337
f 195 333 338
f 334 218 339
f 335 334 340
f 336 335 341
f 337 336 342
f 338 337 343
f 196 338 344
f 219 64 226
f 345 226 228
f 220 219 345
f 346 228 231
f 347 345 346
f 221 220 347
f 348 231 235
f 349 346 348
f 350 347 349
f 222 221 350
f 351 235 240
f 352 348 351
f 353 349 352
f 354 350 353
f 223 222 354
f 355 240 246
f 356 351 355
f 357 352 356
f 358 353 357
f 359 354 358
f 224 223 359
f 360 246 253
f 361 355 360
f 362 356 361
f 363 357 362
f 364 358 363
f 365 359 364
f 225 224 365
f 219 226 345
f 345 228 346
f 220 345 347
f 346 231 348
f 347 346 349
f 221 347 350
f 348 235 351
f 349 348 352
f 350 349 353
f 222 350 354
f 351 240 355
f 352 351 356
f 353 352 357
f 354 353 358
f 223 354 359
f 355 246 360
f 356 355 361
f 357 356 362
f 358 357 363
f 359 358 364
f 224 359 365
f 247 36 254
f 366 254 256
f 248 247 366
f 367 256 259
f 368 366 367
f 249 248 368
f 369 259 263
f 370 367 369
f 371 368 370
f 250 249 371
f 372 263 268
f 373 369 372
f 374 370 373
f 375 371 374
f 251 250 375
f 376 268 274
f 377 372 376
f 378 373 377
f 379 374 378
f 380 375 379
f 252 251 380
f 381 274 281
f 382 376 381
f 383 377 382
f 384 378 383
f 385 379 384
f 386 380 385
f 253 252 386
f 247 254 366
f 366 256 367
f 248 366 368
f 367 259 369
f 368 367 370
f 249 368 371
f 369 263 372
f 370 369 373
f 371 370 374
f 250 371 375
f 372 268 376
f 373 372 377
f 374 373 378
f 375 374 379
f 251 375 380
f 376 274 381
f 377 376 382
f 378 377 383
f 379 378 384
f 380 379 385
f 252 380 386
f 389 387 388
f 391 388 390
f 392 389 391
f 394 390 393
f 395 391 394
f 396 392 395
f 398 393 397
f 399 394 398
f 400 395 399
f 401 396 400
f 403 397 402
f 404 398 403
f 405 399 404
f 406 400 405
f 407 401 406
f 409 402 408
f 410 403 409
f 411 404 410
f 412 405 411
f 413 406 412
f 414 407 413
f 302 408 281
f 301 409 302
f 300 410 301
f 299 411 300
f 298 412 299
f 297 413 298
f 169 414 297
f 389 388 391
f 391 390 394
f 392 391 395
f 394 393 398
f 395 394 399
f 396 395 400
f 398 397 403
f 399 398 404
f 400 399 405
f 401 400 406
f 403 402 409
f 404 403 410
f 405 404 411
f 406 405 412
f 407 406 413
f 409 408 302
f 410 409 301
f 411 410 300
f 412 411 299
f 413 412 298
f 414 413 297
f 388 387 415
f 417 415 416
f 390 388 417
f 419 416 418
f 420 417 419
f 393 390 420
f 422 418 421
f 423 419 422
f 424 420 423
f 397 393 424
f 426 421 425
f 427 422 426
f 428 423 427
f 429 424 428
f 402 397 429
f 431 425 430
f 432 426 431
f 433 427 432
f 434 428 433
f 435 429 434
f 408 402 435
f 386 430 253
f 385 431 386
f 384 432 385
f 383 433 384
f 382 434 383
f 381 435 382
f 281 408 381
f 388 415 417
f 417 416 419
f 390 417 420
f 419 418 422
f 420 419 423
f 393 420 424
f 422 421 426
f 423 422 427
f 424 423 428
f 397 424 429
f 426 425 431
f 427 426 432
f 428 427 433
f 429 428 434
f 402 429 435
f 431 430 386
f 432 431 385
f 433 432 384
f 434 433 383
f 435 434 382
f 408 435 381
f 415 387 436
f 438 436 437
f 416 415 438
f 440 437 439
f 441 438 440
f 418 416 441
f 443 439 442
f 444 440 443
f 445 441 444
f 421 418 445
f 447 442 446
f 448 443 447
f 449 444 448
f 450 445 449
f 425 421 450
f 452 446 451
f 453 447 452
f 454 448 453
f 455 449 454
f 456 450 455
f 430 425 456
f 365 451 225
f 364 452 365
f 363 453 364
f 362 454 363
f 361 455 362
f 360 456 361
f 253 430 360
f 415 436 438
f 438 437 440
f 416 438 441
f 440 439 443
f 441 440 444
f 418 441 445
f 443 442 447
f 444 443 448
f 445 444 449
f 421 445 450
f 447 446 452
f 448 447 453
f 449 448 454
f 450 449 455
f 425 450 456
f 452 451 365
f 453 452 364
f 454 453 363
f 455 454 362
f 456 455 361
f 430 456 360
f 436 387 457
f 459 457 458
f 437 436 459
f 461 458 460
f 462 459 461
f 439 437 462
f 464 460 463
f 465 461 464
f 466 462 465
f 442 439 466
f 468 463 467
f 469 464 468
f 470 465 469
f 471 466 470
f 446 442 471
f 473 467 472
f 474 468 473
f 475 469 474
f 476 470 475
f 477 471 476
f 451 446 477
f 344 472 197
f 343 473 344
f 342 474 343
f 341 475 342
f 340 476 341
f 339 477 340
f 225 451 339
f 436 457 459
f 459 458 461
f 437 459 462
f 461 460 464
f 462 461 465
f 439 462 466
f 464 463 468
f 465 464 469
f 466 465 470
f 442 466 471
f 468 467 473
f 469 468 474
f 470 469 475
f 471 470 476
f 446 471 477
f 473 472 344
f 474 473 343
f 475 474 342
f 476 475 341
f 477 476 340
f 451 477 339
f 457 387 389
f 478 389 392
f 458 457 478
f 479 392 396
f 480 478 479
f 460 458 480
f 481 396 401
f 482 479 481
f 483 480 482
f 463 460 483
f 484 401 407
f 485 481 484
f 486 482 485
f 487 483 486
f 467 463 487
f 488 407 414
f 489 484 488
f 490 485 489
f 491 486 490
f 492 487 491
f 472 467 492
f 323 414 169
f 322 488 323
f 321 489 322
f 320 490 321
f 319 491 320
f 318 492 319
f 197 472 318
f 457 389 478
f 478 392 479
f 458 478 480
f 479 396 481
f 480 479 482
f 460 480 483
f 481 401 484
f 482 481 485
f 483 482 486
f 463 483 487
f 484 407 488
f 485 484 489
f 486 485 490
f 487 486 491
f 467 487 492
f 488 414 323
f 489 488 322
f 490 489 321
f 491 490 320
f 492 491 319
f 472 492 318
