# File exported by Houdini 20.5.445 (www.sidefx.com)
# 492 points
# 2940 vertices
# 980 primitives
# Bounds: [-47.5601349, -244.813232, -1072.93481] to [218.334076, 361.190338, -681.866089]
g 
v 85.3869781 58.1885948 -1072.93481
v 85.3869781 106.119186 -1070.49438
v 105.36441 72.999939 -1070.49438
v 85.3869781 152.853455 -1063.2334
v 106.480377 124.435806 -1065.7229
v 124.843109 87.4416962 -1063.2334
v 85.3869781 197.224747 -1051.33325
v 107.135956 172.162003 -1055.87671
v 126.170013 140.606613 -1055.87671
v 143.336945 101.153137 -1051.33325
v 85.3869781 238.125122 -1035.09106
v 107.352081 215.990128 -1041.46045
v 126.792511 188.228973 -1043.43237
v 144.370758 154.619186 -1041.46045
v 160.384125 113.792007 -1035.09106
v 85.3869781 274.5336 -1014.91229
v 107.135956 255.658325 -1022.71918
v 126.792511 231.150101 -1026.3877
v 144.681915 201.49231 -1026.3877
v 160.9711 166.408524 -1022.71918
v 175.559113 125.042938 -1014.91241
v 85.3869781 305.541077 -991.300842
v 106.480377 290.707855 -999.693665
v 126.170013 269.770264 -1004.58405
v 144.370758 243.436066 -1006.19
v 160.9711 212.075775 -1004.58405
v 175.782196 175.816727 -999.693665
v 188.482941 134.624817 -991.300842
v 85.3869781 330.373657 -964.846008
v 105.36441 320.352448 -972.266785
v 124.843109 303.786713 -977.319397
v 143.336945 281.089722 -979.877625
v 160.384125 252.828247 -979.877625
v 175.559113 219.707916 -977.319397
v 188.48288 182.555405 -972.266785
v 198.833099 142.298492 -964.84613
v 97.7336731 19.4118958 -1070.49438
v 119.516876 32.8843803 -1065.7229
v 109.772186 -18.3970108 -1063.2334
v 139.611664 46.2099228 -1055.87671
v 132.341339 -4.84760857 -1055.87671
v 121.202057 -54.2939911 -1051.33325
v 157.945892 59.2847862 -1041.46045
v 152.382477 8.51769447 -1043.43237
v 143.806 -40.0156555 -1041.46045
v 131.737701 -87.3831482 -1035.09106
v 174.412689 72.0118561 -1022.71918
v 170.271942 21.7809391 -1026.3877
v 163.438751 -26.2062607 -1026.3877
v 153.849518 -72.3975677 -1022.71918
v 141.116425 -116.838242 -1014.91241
v 188.818695 84.2653961 -999.693665
v 186.176361 35.0661583 -1004.58405
v 180.824738 -12.5696106 -1006.19
v 172.883514 -58.2855377 -1004.58405
v 162.347809 -101.632431 -999.693665
v 149.10379 -141.923798 -991.300842
v 200.82962 95.8482208 -972.266785
v 199.944305 48.4573517 -977.319397
v 196.199188 1.30943298 -979.877747
v 189.687775 -44.418602 -979.877747
v 180.572601 -87.5850372 -977.319397
v 169.081207 -127.112457 -972.266785
v 155.50058 -162.013794 -964.84613
v 73.0402679 19.4118958 -1070.49438
v 85.3869781 -23.6973534 -1065.7229
v 61.0017548 -18.3970108 -1063.2334
v 97.1506653 -63.1879883 -1055.87671
v 73.6233063 -63.1879883 -1055.87671
v 49.5719147 -54.2939911 -1051.33325
v 108.265778 -98.9355164 -1041.46045
v 85.3869781 -102.550034 -1043.43237
v 62.508194 -98.9355164 -1041.46045
v 39.0361786 -87.3831482 -1035.09106
v 118.658905 -130.737854 -1022.71918
v 96.4432068 -137.274078 -1026.3877
v 74.3307037 -137.274078 -1026.3877
v 52.1150055 -130.737854 -1022.71918
v 29.657547 -116.838242 -1014.91241
v 128.217865 -158.21434 -999.693665
v 106.895233 -167.68364 -1004.58405
v 85.3869781 -170.789902 -1006.19
v 63.8787079 -167.68364 -1004.58405
v 42.5561066 -158.21434 -999.693665
v 21.6701508 -141.923798 -991.300842
v 136.757111 -180.700592 -972.266785
v 116.731171 -193.423828 -977.319397
v 95.922699 -199.865906 -979.877747
v 74.8512421 -199.865906 -979.877747
v 54.0427704 -193.423828 -977.319397
v 34.016861 -180.700592 -972.266785
v 15.2733917 -162.013794 -964.84613
v 65.4095917 72.999939 -1070.49438
v 51.2570648 32.8843803 -1065.7229
v 45.9308624 87.4416962 -1063.2334
v 38.432663 -4.84760857 -1055.87671
v 31.1623077 46.2099228 -1055.87671
v 27.4369965 101.153137 -1051.33325
v 26.9679108 -40.0156555 -1041.46045
v 18.3914337 8.51769447 -1043.43237
v 12.8280487 59.2847862 -1041.46045
v 10.3898468 113.792007 -1035.09106
v 16.9244232 -72.3975677 -1022.71918
v 7.3351593 -26.2062607 -1026.3877
v 0.502029419 21.7809391 -1026.3877
v -3.63874817 72.0118561 -1022.71918
v -4.78511047 125.042938 -1014.91241
v 8.42616272 -101.632431 -999.693665
v -2.1096344 -58.2855377 -1004.58405
v -10.050766 -12.5696106 -1006.19
v -15.4024506 35.0661583 -1004.58405
v -18.044754 84.2653961 -999.693665
v -17.7089691 134.624817 -991.300842
v 1.69276428 -127.112457 -972.266785
v -9.79859924 -87.5850372 -977.319397
v -18.9138031 -44.418602 -979.877747
v -25.4252777 1.30943298 -979.877747
v -29.1703949 48.4573517 -977.319397
v -30.0557098 95.8482208 -972.266785
v -28.0591583 142.298492 -964.84613
v 64.2935028 124.435806 -1065.7229
v 44.6039276 140.606613 -1055.87671
v 63.6379852 172.162003 -1055.87671
v 26.4032135 154.619186 -1041.46045
v 43.9814606 188.228973 -1043.43237
v 63.4218903 215.990128 -1041.46045
v 9.8028717 166.408524 -1022.71918
v 26.0920563 201.49231 -1026.3877
v 43.9814606 231.150101 -1026.3877
v 63.6379852 255.658325 -1022.71906
v -5.00828552 175.816727 -999.693665
v 9.8028717 212.075775 -1004.58405
v 26.4032135 243.436066 -1006.19
v 44.6039276 269.770264 -1004.58405
v 64.2935028 290.707855 -999.693665
v -17.7089691 182.555405 -972.266785
v -4.78511047 219.707916 -977.319397
v 10.3898468 252.828247 -979.877625
v 27.4369965 281.089722 -979.877625
v 45.9308319 303.786713 -977.319397
v 65.4095917 320.352448 -972.266785
v 73.0402679 344.31778 -941.469299
v 51.2570648 331.650848 -947.078186
v 61.0017548 351.11911 -916.492981
v 31.1623077 311.985687 -950.333313
v 38.4326935 334.819336 -920.989929
v 49.5719147 350.607788 -890.54071
v 12.8280792 286.070892 -951.40033
v 18.3914642 311.519348 -923.105774
v 26.9679413 330.479309 -894.331482
v 39.0361786 342.796478 -864.260376
v -3.63874817 254.291168 -950.333313
v 0.502059937 281.861603 -923.105774
v 7.33518982 303.322144 -895.527039
v 16.9244537 318.872864 -867.339905
v 29.657547 327.88028 -838.308105
v -18.0447235 216.75975 -947.078186
v -15.40242 245.569519 -920.989929
v -10.050705 269.108398 -894.331482
v -2.10957336 287.317566 -867.339905
v 8.42619324 299.89563 -840.240967
v 21.6701508 306.231567 -813.331787
v -30.0556793 173.401505 -941.469299
v -29.1703339 201.628448 -916.492981
v -25.4251862 226.274673 -890.54071
v -18.9137421 246.724869 -864.260376
v -9.79856873 262.468414 -838.308105
v 1.69276428 273.112305 -813.331787
v 15.2733917 278.390961 -789.954956
v -37.6863556 119.813385 -941.469299
v -39.1382294 68.6266022 -947.078186
v -44.2412567 95.7898407 -916.492981
v -37.1514435 18.9412708 -950.333313
v -44.4217682 41.774929 -920.989929
v -47.5601349 70.8274689 -890.54071
v -32.0158234 -28.8546677 -951.40033
v -40.9034882 -8.91747284 -923.105774
v -46.1556854 15.5537815 -894.331482
v -47.5601349 45.5496101 -864.260376
v -23.8586273 -74.4104309 -950.333313
v -34.0702972 -56.9046783 -923.105774
v -40.9034882 -35.4441528 -895.527039
v -44.4217682 -9.82873917 -867.339905
v -44.2412567 20.5873356 -838.308105
v -12.6672821 -117.271439 -947.078186
v -23.8586273 -102.634491 -920.989929
v -32.0158234 -83.7465668 -894.331482
v -37.151413 -60.8863602 -867.339905
v -39.1381989 -34.1353607 -840.240967
v -37.6863556 -3.43619919 -813.331787
v 1.69276428 -156.735153 -941.469299
v -9.79856873 -146.091248 -916.492981
v -18.9137421 -130.347687 -890.54071
v -25.4251862 -109.897507 -864.260376
v -29.1703339 -85.2513733 -838.308105
v -30.0556793 -57.0243378 -813.331787
v -28.0591583 -25.9213181 -789.954956
v 21.6701508 -189.85437 -941.469299
v 42.5561066 -208.822678 -947.078186
v 29.657547 -211.503098 -916.492981
v 63.8787079 -219.864746 -950.333313
v 52.115036 -228.58638 -920.989929
v 39.0361786 -226.419296 -890.54071
v 85.3869781 -223.489594 -951.40033
v 74.3307037 -236.616028 -923.105774
v 62.508194 -240.451996 -894.331482
v 49.5719147 -234.230591 -864.260376
v 106.895233 -219.864746 -950.333313
v 96.4432068 -236.616028 -923.105774
v 85.3869781 -244.813232 -895.527039
v 73.6233063 -244.532745 -867.339905
v 61.0017548 -234.741913 -838.308105
v 128.217865 -208.822678 -947.078186
v 118.658905 -228.58638 -920.989929
v 108.265778 -240.451996 -894.331482
v 97.1506653 -244.532745 -867.339905
v 85.3869781 -240.577881 -840.240967
v 73.0402679 -227.940598 -813.331787
v 149.10379 -189.85437 -941.469299
v 141.116425 -211.503098 -916.492981
v 131.737701 -226.419296 -890.54071
v 121.202057 -234.230591 -864.260376
v 109.772186 -234.741913 -838.308105
v 97.7336731 -227.940598 -813.331787
v 85.3869781 -213.996643 -789.954956
v 169.081207 -156.735153 -941.469299
v 183.441254 -117.271439 -947.078186
v 180.57254 -146.091248 -916.492981
v 194.632599 -74.4104309 -950.333313
v 194.632599 -102.634491 -920.989929
v 189.687714 -130.347687 -890.54071
v 202.789764 -28.8546677 -951.40033
v 204.844269 -56.9046783 -923.105774
v 202.789764 -83.7465668 -894.331482
v 196.199127 -109.897507 -864.260376
v 207.925385 18.9412708 -950.333313
v 211.677399 -8.91747284 -923.105774
v 211.677399 -35.4441528 -895.527039
v 207.925385 -60.8863602 -867.339905
v 199.944244 -85.2513733 -838.308105
v 209.91214 68.6266022 -947.078186
v 215.195709 41.774929 -920.989929
v 216.929657 15.5537815 -894.331482
v 215.195709 -9.82873917 -867.339905
v 209.91214 -34.1353607 -840.240967
v 200.82962 -57.0243378 -813.331787
v 208.460297 119.813385 -941.469299
v 215.015228 95.7898407 -916.492981
v 218.334076 70.8274689 -890.54071
v 218.334076 45.5496101 -864.260376
v 215.015228 20.5873356 -838.308105
v 208.460297 -3.43619919 -813.331787
v 198.833099 -25.9213181 -789.954956
v 200.82962 173.401505 -941.469299
v 188.818695 216.75975 -947.078186
v 199.944244 201.628448 -916.492981
v 174.412689 254.291168 -950.333313
v 186.176361 245.569519 -920.989929
v 196.199127 226.274673 -890.54071
v 157.945892 286.070892 -951.40033
v 170.271942 281.861603 -923.105774
v 180.824677 269.108398 -894.331482
v 189.687714 246.724869 -864.260376
v 139.611664 311.985687 -950.333313
v 152.382477 311.519348 -923.105774
v 163.43869 303.322144 -895.527039
v 172.883514 287.317566 -867.339905
v 180.57254 262.468414 -838.308105
v 119.516876 331.650848 -947.078186
v 132.341339 334.819336 -920.989929
v 143.806 330.479309 -894.331482
v 153.849457 318.872864 -867.339905
v 162.347809 299.89563 -840.240967
v 169.081207 273.112305 -813.331787
v 97.7336731 344.31778 -941.469299
v 109.772186 351.11911 -916.492981
v 121.202057 350.607788 -890.54071
v 131.737701 342.796478 -864.260376
v 141.116425 327.88028 -838.308105
v 149.10379 306.231567 -813.331787
v 155.50058 278.390961 -789.954956
v 85.3869781 356.954987 -914.56012
v 73.6233063 360.909973 -887.461243
v 97.1506653 360.909973 -887.461243
v 62.508194 356.829071 -860.469604
v 85.3869781 361.190338 -859.274048
v 108.265778 356.829071 -860.469604
v 52.115036 344.963562 -833.811035
v 74.3307037 352.993134 -831.695312
v 96.4432068 352.993134 -831.695312
v 118.658905 344.963562 -833.811035
v 42.5561066 325.199829 -807.722778
v 63.8787079 336.241821 -804.467773
v 85.3869781 339.866669 -803.400757
v 106.895233 336.241821 -804.467773
v 128.217865 325.199829 -807.722778
v 34.016861 297.077667 -782.53418
v 54.0427704 309.800903 -777.481567
v 74.8512421 316.242981 -774.92334
v 95.922699 316.242981 -774.92334
v 116.731171 309.800903 -777.481567
v 136.757111 297.077667 -782.53418
v -39.1381989 150.512527 -914.56012
v -44.4217682 126.205811 -887.461243
v -37.151413 177.263443 -887.461243
v -46.1556854 100.823395 -860.469604
v -40.9034882 151.82132 -859.274048
v -32.0158234 200.123734 -860.469604
v -44.4217682 74.6022491 -833.811035
v -40.9034882 125.294647 -831.695312
v -34.0702972 173.281754 -831.695312
v -23.8585968 219.011566 -833.811035
v -39.1382294 47.7505798 -807.722778
v -37.1514435 97.4358978 -804.467773
v -32.0158234 145.231827 -803.400757
v -23.8586273 190.787613 -804.467773
v -12.6672821 233.648514 -807.722778
v -30.0557098 20.5289536 -782.53418
v -29.1703949 67.9197235 -777.481567
v -25.4252777 115.067657 -774.92334
v -18.9138031 160.795685 -774.92334
v -9.79859924 203.962204 -777.481567
v 1.69276428 243.489532 -782.53418
v 8.42619324 -183.518555 -914.56012
v 16.9244537 -202.495773 -887.461243
v -2.10957336 -170.940582 -887.461243
v 26.9679413 -214.102158 -860.469604
v 7.33518982 -186.945053 -859.274048
v -10.050705 -152.731308 -860.469604
v 38.4326935 -218.442154 -833.811035
v 18.3914642 -195.142242 -831.695312
v 0.502059937 -165.484436 -831.695312
v -15.40242 -129.192352 -833.811035
v 51.2570648 -215.273682 -807.7229
v 31.1623077 -195.608597 -804.467773
v 12.8280792 -169.693802 -803.400757
v -3.63874817 -137.914185 -804.467773
v -18.0447235 -100.382675 -807.7229
v 65.4095917 -203.975357 -782.53418
v 45.9308319 -187.409637 -777.481689
v 27.4369965 -164.71257 -774.92334
v 10.3898468 -136.451096 -774.92334
v -4.78511047 -103.330734 -777.481689
v -17.7089691 -66.1783218 -782.53418
v 162.347809 -183.518555 -914.56012
v 172.883514 -170.940384 -887.461243
v 153.849457 -202.495773 -887.461243
v 180.824677 -152.731308 -860.469604
v 163.43869 -186.945053 -859.274048
v 143.806 -214.102158 -860.469604
v 186.176361 -129.192352 -833.811035
v 170.271942 -165.484436 -831.695312
v 152.382477 -195.142242 -831.695312
v 132.341339 -218.442154 -833.811035
v 188.818695 -100.382675 -807.7229
v 174.412689 -137.914185 -804.467773
v 157.945892 -169.693802 -803.400757
v 139.611664 -195.608597 -804.467773
v 119.516876 -215.273682 -807.7229
v 188.48288 -66.1783218 -782.53418
v 175.559113 -103.330734 -777.481689
v 160.384125 -136.451096 -774.92334
v 143.336945 -164.71257 -774.92334
v 124.843109 -187.409637 -777.481689
v 105.36441 -203.975357 -782.53418
v 209.91214 150.512527 -914.56012
v 207.925385 177.263443 -887.461243
v 215.195709 126.205811 -887.461243
v 202.789764 200.123734 -860.469604
v 211.677399 151.82132 -859.274048
v 216.929657 100.823395 -860.469604
v 194.632599 219.011566 -833.811035
v 204.844269 173.281754 -831.695312
v 211.677399 125.294647 -831.695312
v 215.195709 74.6022491 -833.811035
v 183.441254 233.648514 -807.722778
v 194.632599 190.787613 -804.467773
v 202.789764 145.231827 -803.400757
v 207.925385 97.4358978 -804.467773
v 209.91214 47.7505798 -807.722778
v 169.081207 243.489532 -782.53418
v 180.572601 203.962204 -777.481567
v 189.687775 160.795685 -774.92334
v 196.199188 115.067657 -774.92334
v 199.944305 67.9197235 -777.481567
v 200.82962 20.5289536 -782.53418
v 85.3869781 58.1885948 -681.866089
v 97.7336731 96.9651947 -684.306641
v 73.0402679 96.9651947 -684.306641
v 109.772186 134.774094 -691.567749
v 85.3869781 140.074524 -689.078125
v 61.0017548 134.774094 -691.567749
v 121.202057 170.671158 -703.467896
v 97.1506653 179.565063 -698.924316
v 73.6233063 179.565063 -698.924316
v 49.5719147 170.671158 -703.467896
v 131.737701 203.760315 -719.709961
v 108.265778 215.312683 -713.340454
v 85.3869781 218.927292 -711.368774
v 62.508194 215.312683 -713.340454
v 39.0361786 203.760315 -719.709961
v 141.116425 233.215317 -739.888672
v 118.658905 247.115036 -732.081909
v 96.4432068 253.651154 -728.41333
v 74.3307037 253.651154 -728.41333
v 52.1150055 247.115128 -732.081909
v 29.657547 233.215317 -739.888672
v 149.10379 258.300964 -763.500244
v 128.217865 274.591522 -755.1073
v 106.895233 284.06073 -750.217041
v 85.3869781 287.167084 -748.611084
v 63.8787079 284.06073 -750.217041
v 42.5561066 274.591522 -755.1073
v 21.6701508 258.300964 -763.500244
v 105.36441 43.3772354 -684.306641
v 124.843109 28.9354744 -691.567749
v 119.516876 83.492691 -689.078125
v 143.336945 15.2240429 -703.467896
v 139.611664 70.16716 -698.924316
v 132.341339 121.224777 -698.924316
v 160.384125 2.58506966 -719.709961
v 157.945892 57.0922966 -713.340454
v 152.382477 107.859482 -711.368774
v 143.806 156.392731 -713.340454
v 175.559113 -8.6657753 -739.888672
v 174.412689 44.3653221 -732.081909
v 170.271942 94.5961456 -728.41333
v 163.438751 142.583435 -728.41333
v 153.849518 188.774734 -732.081909
v 188.482941 -18.2477379 -763.500244
v 188.818695 32.1117706 -755.1073
v 186.176361 81.3110046 -750.217041
v 180.824738 128.946686 -748.611084
v 172.883514 174.66272 -750.217041
v 162.347809 218.009613 -755.1073
v 85.3869781 10.2579994 -684.306641
v 85.3869781 -36.476284 -691.567749
v 106.480377 -8.05873108 -689.078125
v 85.3869781 -80.8476715 -703.467896
v 107.135956 -55.7848282 -698.924316
v 126.170013 -24.2295303 -698.924316
v 85.3869781 -121.748032 -719.709961
v 107.352081 -99.6129456 -713.340576
v 126.792511 -71.8518829 -711.368774
v 144.370758 -38.242012 -713.340454
v 85.3869781 -158.156342 -739.888672
v 107.135956 -139.281174 -732.081909
v 126.792511 -114.773026 -728.413452
v 144.681915 -85.1151428 -728.413452
v 160.9711 -50.0313644 -732.081909
v 85.3869781 -189.164001 -763.500244
v 106.480377 -174.330673 -755.1073
v 126.170013 -153.393097 -750.217041
v 144.370758 -127.05899 -748.611084
v 160.9711 -95.6985931 -750.217041
v 175.782196 -59.4396591 -755.1073
v 65.4095917 43.3772354 -684.306641
v 45.9308624 28.9354744 -691.567749
v 64.2935028 -8.05873108 -689.078125
v 27.4369965 15.2240429 -703.467896
v 44.6039276 -24.2295303 -698.924316
v 63.6379852 -55.7848282 -698.924316
v 10.3898468 2.58506966 -719.709961
v 26.4032135 -38.242012 -713.340454
v 43.9814606 -71.8518829 -711.368774
v 63.4218903 -99.6129456 -713.340576
v -4.78511047 -8.6657753 -739.888672
v 9.8028717 -50.0313644 -732.081909
v 26.0920563 -85.1151428 -728.413452
v 43.9814606 -114.773026 -728.413452
v 63.6379852 -139.281174 -732.081909
v -17.7089691 -18.2477379 -763.500244
v -5.00828552 -59.4396591 -755.1073
v 9.8028717 -95.6985931 -750.217041
v 26.4032135 -127.05899 -748.611084
v 44.6039276 -153.393097 -750.217041
v 64.2935028 -174.330673 -755.1073
v 51.2570648 83.492691 -689.078125
v 38.432663 121.224777 -698.924316
v 31.1623077 70.16716 -698.924316
v 26.9679108 156.392731 -713.340454
v 18.3914337 107.859482 -711.368774
v 12.8280487 57.0922966 -713.340454
v 16.9244232 188.774734 -732.081909
v 7.3351593 142.583435 -728.41333
v 0.502029419 94.5961456 -728.41333
v -3.63874817 44.3653221 -732.081909
v 8.42616272 218.009613 -755.1073
v -2.1096344 174.66272 -750.217041
v -10.050766 128.946686 -748.611084
v -15.4024506 81.3110046 -750.217041
v -18.044754 32.1117706 -755.1073
g 
f 3 1 2
f 5 2 4
f 6 3 5
f 8 4 7
f 9 5 8
f 10 6 9
f 12 7 11
f 13 8 12
f 14 9 13
f 15 10 14
f 17 11 16
f 18 12 17
f 19 13 18
f 20 14 19
f 21 15 20
f 23 16 22
f 24 17 23
f 25 18 24
f 26 19 25
f 27 20 26
f 28 21 27
f 30 22 29
f 31 23 30
f 32 24 31
f 33 25 32
f 34 26 33
f 35 27 34
f 36 28 35
f 3 2 5
f 5 4 8
f 6 5 9
f 8 7 12
f 9 8 13
f 10 9 14
f 12 11 17
f 13 12 18
f 14 13 19
f 15 14 20
f 17 16 23
f 18 17 24
f 19 18 25
f 20 19 26
f 21 20 27
f 23 22 30
f 24 23 31
f 25 24 32
f 26 25 33
f 27 26 34
f 28 27 35
f 37 1 3
f 38 3 6
f 39 37 38
f 40 6 10
f 41 38 40
f 42 39 41
f 43 10 15
f 44 40 43
f 45 41 44
f 46 42 45
f 47 15 21
f 48 43 47
f 49 44 48
f 50 45 49
f 51 46 50
f 52 21 28
f 53 47 52
f 54 48 53
f 55 49 54
f 56 50 55
f 57 51 56
f 58 28 36
f 59 52 58
f 60 53 59
f 61 54 60
f 62 55 61
f 63 56 62
f 64 57 63
f 37 3 38
f 38 6 40
f 39 38 41
f 40 10 43
f 41 40 44
f 42 41 45
f 43 15 47
f 44 43 48
f 45 44 49
f 46 45 50
f 47 21 52
f 48 47 53
f 49 48 54
f 50 49 55
f 51 50 56
f 52 28 58
f 53 52 59
f 54 53 60
f 55 54 61
f 56 55 62
f 57 56 63
f 65 1 37
f 66 37 39
f 67 65 66
f 68 39 42
f 69 66 68
f 70 67 69
f 71 42 46
f 72 68 71
f 73 69 72
f 74 70 73
f 75 46 51
f 76 71 75
f 77 72 76
f 78 73 77
f 79 74 78
f 80 51 57
f 81 75 80
f 82 76 81
f 83 77 82
f 84 78 83
f 85 79 84
f 86 57 64
f 87 80 86
f 88 81 87
f 89 82 88
f 90 83 89
f 91 84 90
f 92 85 91
f 65 37 66
f 66 39 68
f 67 66 69
f 68 42 71
f 69 68 72
f 70 69 73
f 71 46 75
f 72 71 76
f 73 72 77
f 74 73 78
f 75 51 80
f 76 75 81
f 77 76 82
f 78 77 83
f 79 78 84
f 80 57 86
f 81 80 87
f 82 81 88
f 83 82 89
f 84 83 90
f 85 84 91
f 93 1 65
f 94 65 67
f 95 93 94
f 96 67 70
f 97 94 96
f 98 95 97
f 99 70 74
f 100 96 99
f 101 97 100
f 102 98 101
f 103 74 79
f 104 99 103
f 105 100 104
f 106 101 105
f 107 102 106
f 108 79 85
f 109 103 108
f 110 104 109
f 111 105 110
f 112 106 111
f 113 107 112
f 114 85 92
f 115 108 114
f 116 109 115
f 117 110 116
f 118 111 117
f 119 112 118
f 120 113 119
f 93 65 94
f 94 67 96
f 95 94 97
f 96 70 99
f 97 96 100
f 98 97 101
f 99 74 103
f 100 99 104
f 101 100 105
f 102 101 106
f 103 79 108
f 104 103 109
f 105 104 110
f 106 105 111
f 107 106 112
f 108 85 114
f 109 108 115
f 110 109 116
f 111 110 117
f 112 111 118
f 113 112 119
f 2 1 93
f 121 93 95
f 4 2 121
f 122 95 98
f 123 121 122
f 7 4 123
f 124 98 102
f 125 122 124
f 126 123 125
f 11 7 126
f 127 102 107
f 128 124 127
f 129 125 128
f 130 126 129
f 16 11 130
f 131 107 113
f 132 127 131
f 133 128 132
f 134 129 133
f 135 130 134
f 22 16 135
f 136 113 120
f 137 131 136
f 138 132 137
f 139 133 138
f 140 134 139
f 141 135 140
f 29 22 141
f 2 93 121
f 121 95 122
f 4 121 123
f 122 98 124
f 123 122 125
f 7 123 126
f 124 102 127
f 125 124 128
f 126 125 129
f 11 126 130
f 127 107 131
f 128 127 132
f 129 128 133
f 130 129 134
f 16 130 135
f 131 113 136
f 132 131 137
f 133 132 138
f 134 133 139
f 135 134 140
f 22 135 141
f 142 29 141
f 143 141 140
f 144 142 143
f 145 140 139
f 146 143 145
f 147 144 146
f 148 139 138
f 149 145 148
f 150 146 149
f 151 147 150
f 152 138 137
f 153 148 152
f 154 149 153
f 155 150 154
f 156 151 155
f 157 137 136
f 158 152 157
f 159 153 158
f 160 154 159
f 161 155 160
f 162 156 161
f 163 136 120
f 164 157 163
f 165 158 164
f 166 159 165
f 167 160 166
f 168 161 167
f 169 162 168
f 142 141 143
f 143 140 145
f 144 143 146
f 145 139 148
f 146 145 149
f 147 146 150
f 148 138 152
f 149 148 153
f 150 149 154
f 151 150 155
f 152 137 157
f 153 152 158
f 154 153 159
f 155 154 160
f 156 155 161
f 157 136 163
f 158 157 164
f 159 158 165
f 160 159 166
f 161 160 167
f 162 161 168
f 170 120 119
f 171 119 118
f 172 170 171
f 173 118 117
f 174 171 173
f 175 172 174
f 176 117 116
f 177 173 176
f 178 174 177
f 179 175 178
f 180 116 115
f 181 176 180
f 182 177 181
f 183 178 182
f 184 179 183
f 185 115 114
f 186 180 185
f 187 181 186
f 188 182 187
f 189 183 188
f 190 184 189
f 191 114 92
f 192 185 191
f 193 186 192
f 194 187 193
f 195 188 194
f 196 189 195
f 197 190 196
f 170 119 171
f 171 118 173
f 172 171 174
f 173 117 176
f 174 173 177
f 175 174 178
f 176 116 180
f 177 176 181
f 178 177 182
f 179 178 183
f 180 115 185
f 181 180 186
f 182 181 187
f 183 182 188
f 184 183 189
f 185 114 191
f 186 185 192
f 187 186 193
f 188 187 194
f 189 188 195
f 190 189 196
f 198 92 91
f 199 91 90
f 200 198 199
f 201 90 89
f 202 199 201
f 203 200 202
f 204 89 88
f 205 201 204
f 206 202 205
f 207 203 206
f 208 88 87
f 209 204 208
f 210 205 209
f 211 206 210
f 212 207 211
f 213 87 86
f 214 208 213
f 215 209 214
f 216 210 215
f 217 211 216
f 218 212 217
f 219 86 64
f 220 213 219
f 221 214 220
f 222 215 221
f 223 216 222
f 224 217 223
f 225 218 224
f 198 91 199
f 199 90 201
f 200 199 202
f 201 89 204
f 202 201 205
f 203 202 206
f 204 88 208
f 205 204 209
f 206 205 210
f 207 206 211
f 208 87 213
f 209 208 214
f 210 209 215
f 211 210 216
f 212 211 217
f 213 86 219
f 214 213 220
f 215 214 221
f 216 215 222
f 217 216 223
f 218 217 224
f 226 64 63
f 227 63 62
f 228 226 227
f 229 62 61
f 230 227 229
f 231 228 230
f 232 61 60
f 233 229 232
f 234 230 233
f 235 231 234
f 236 60 59
f 237 232 236
f 238 233 237
f 239 234 238
f 240 235 239
f 241 59 58
f 242 236 241
f 243 237 242
f 244 238 243
f 245 239 244
f 246 240 245
f 247 58 36
f 248 241 247
f 249 242 248
f 250 243 249
f 251 244 250
f 252 245 251
f 253 246 252
f 226 63 227
f 227 62 229
f 228 227 230
f 229 61 232
f 230 229 233
f 231 230 234
f 232 60 236
f 233 232 237
f 234 233 238
f 235 234 239
f 236 59 241
f 237 236 242
f 238 237 243
f 239 238 244
f 240 239 245
f 241 58 247
f 242 241 248
f 243 242 249
f 244 243 250
f 245 244 251
f 246 245 252
f 254 36 35
f 255 35 34
f 256 254 255
f 257 34 33
f 258 255 257
f 259 256 258
f 260 33 32
f 261 257 260
f 262 258 261
f 263 259 262
f 264 32 31
f 265 260 264
f 266 261 265
f 267 262 266
f 268 263 267
f 269 31 30
f 270 264 269
f 271 265 270
f 272 266 271
f 273 267 272
f 274 268 273
f 275 30 29
f 276 269 275
f 277 270 276
f 278 271 277
f 279 272 278
f 280 273 279
f 281 274 280
f 254 35 255
f 255 34 257
f 256 255 258
f 257 33 260
f 258 257 261
f 259 258 262
f 260 32 264
f 261 260 265
f 262 261 266
f 263 262 267
f 264 31 269
f 265 264 270
f 266 265 271
f 267 266 272
f 268 267 273
f 269 30 275
f 270 269 276
f 271 270 277
f 272 271 278
f 273 272 279
f 274 273 280
f 275 29 142
f 282 142 144
f 276 275 282
f 283 144 147
f 284 282 283
f 277 276 284
f 285 147 151
f 286 283 285
f 287 284 286
f 278 277 287
f 288 151 156
f 289 285 288
f 290 286 289
f 291 287 290
f 279 278 291
f 292 156 162
f 293 288 292
f 294 289 293
f 295 290 294
f 296 291 295
f 280 279 296
f 297 162 169
f 298 292 297
f 299 293 298
f 300 294 299
f 301 295 300
f 302 296 301
f 281 280 302
f 275 142 282
f 282 144 283
f 276 282 284
f 283 147 285
f 284 283 286
f 277 284 287
f 285 151 288
f 286 285 289
f 287 286 290
f 278 287 291
f 288 156 292
f 289 288 293
f 290 289 294
f 291 290 295
f 279 291 296
f 292 162 297
f 293 292 298
f 294 293 299
f 295 294 300
f 296 295 301
f 280 296 302
f 163 120 170
f 303 170 172
f 164 163 303
f 304 172 175
f 305 303 304
f 165 164 305
f 306 175 179
f 307 304 306
f 308 305 307
f 166 165 308
f 309 179 184
f 310 306 309
f 311 307 310
f 312 308 311
f 167 166 312
f 313 184 190
f 314 309 313
f 315 310 314
f 316 311 315
f 317 312 316
f 168 167 317
f 318 190 197
f 319 313 318
f 320 314 319
f 321 315 320
f 322 316 321
f 323 317 322
f 169 168 323
f 163 170 303
f 303 172 304
f 164 303 305
f 304 175 306
f 305 304 307
f 165 305 308
f 306 179 309
f 307 306 310
f 308 307 311
f 166 308 312
f 309 184 313
f 310 309 314
f 311 310 315
f 312 311 316
f 167 312 317
f 313 190 318
f 314 313 319
f 315 314 320
f 316 315 321
f 317 316 322
f 168 317 323
f 191 92 198
f 324 198 200
f 192 191 324
f 325 200 203
f 326 324 325
f 193 192 326
f 327 203 207
f 328 325 327
f 329 326 328
f 194 193 329
f 330 207 212
f 331 327 330
f 332 328 331
f 333 329 332
f 195 194 333
f 334 212 218
f 335 330 334
f 336 331 335
f 337 332 336
f 338 333 337
f 196 195 338
f 339 218 225
f 340 334 339
f 341 335 340
f 342 336 341
f 343 337 342
f 344 338 343
f 197 196 344
f 191 198 324
f 324 200 325
f 192 324 326
f 325 203 327
f 326 325 328
f 193 326 329
f 327 207 330
f 328 327 331
f 329 328 332
f 194 329 333
f 330 212 334
f 331 330 335
f 332 331 336
f 333 332 337
f 195 333 338
f 334 218 339
f 335 334 340
f 336 335 341
f 337 336 342
f 338 337 343
f 196 338 344
f 219 64 226
f 345 226 228
f 220 219 345
f 346 228 231
f 347 345 346
f 221 220 347
f 348 231 235
f 349 346 348
f 350 347 349
f 222 221 350
f 351 235 240
f 352 348 351
f 353 349 352
f 354 350 353
f 223 222 354
f 355 240 246
f 356 351 355
f 357 352 356
f 358 353 357
f 359 354 358
f 224 223 359
f 360 246 253
f 361 355 360
f 362 356 361
f 363 357 362
f 364 358 363
f 365 359 364
f 225 224 365
f 219 226 345
f 345 228 346
f 220 345 347
f 346 231 348
f 347 346 349
f 221 347 350
f 348 235 351
f 349 348 352
f 350 349 353
f 222 350 354
f 351 240 355
f 352 351 356
f 353 352 357
f 354 353 358
f 223 354 359
f 355 246 360
f 356 355 361
f 357 356 362
f 358 357 363
f 359 358 364
f 224 359 365
f 247 36 254
f 366 254 256
f 248 247 366
f 367 256 259
f 368 366 367
f 249 248 368
f 369 259 263
f 370 367 369
f 371 368 370
f 250 249 371
f 372 263 268
f 373 369 372
f 374 370 373
f 375 371 374
f 251 250 375
f 376 268 274
f 377 372 376
f 378 373 377
f 379 374 378
f 380 375 379
f 252 251 380
f 381 274 281
f 382 376 381
f 383 377 382
f 384 378 383
f 385 379 384
f 386 380 385
f 253 252 386
f 247 254 366
f 366 256 367
f 248 366 368
f 367 259 369
f 368 367 370
f 249 368 371
f 369 263 372
f 370 369 373
f 371 370 374
f 250 371 375
f 372 268 376
f 373 372 377
f 374 373 378
f 375 374 379
f 251 375 380
f 376 274 381
f 377 376 382
f 378 377 383
f 379 378 384
f 380 379 385
f 252 380 386
f 389 387 388
f 391 388 390
f 392 389 391
f 394 390 393
f 395 391 394
f 396 392 395
f 398 393 397
f 399 394 398
f 400 395 399
f 401 396 400
f 403 397 402
f 404 398 403
f 405 399 404
f 406 400 405
f 407 401 406
f 409 402 408
f 410 403 409
f 411 404 410
f 412 405 411
f 413 406 412
f 414 407 413
f 302 408 281
f 301 409 302
f 300 410 301
f 299 411 300
f 298 412 299
f 297 413 298
f 169 414 297
f 389 388 391
f 391 390 394
f 392 391 395
f 394 393 398
f 395 394 399
f 396 395 400
f 398 397 403
f 399 398 404
f 400 399 405
f 401 400 406
f 403 402 409
f 404 403 410
f 405 404 411
f 406 405 412
f 407 406 413
f 409 408 302
f 410 409 301
f 411 410 300
f 412 411 299
f 413 412 298
f 414 413 297
f 388 387 415
f 417 415 416
f 390 388 417
f 419 416 418
f 420 417 419
f 393 390 420
f 422 418 421
f 423 419 422
f 424 420 423
f 397 393 424
f 426 421 425
f 427 422 426
f 428 423 427
f 429 424 428
f 402 397 429
f 431 425 430
f 432 426 431
f 433 427 432
f 434 428 433
f 435 429 434
f 408 402 435
f 386 430 253
f 385 431 386
f 384 432 385
f 383 433 384
f 382 434 383
f 381 435 382
f 281 408 381
f 388 415 417
f 417 416 419
f 390 417 420
f 419 418 422
f 420 419 423
f 393 420 424
f 422 421 426
f 423 422 427
f 424 423 428
f 397 424 429
f 426 425 431
f 427 426 432
f 428 427 433
f 429 428 434
f 402 429 435
f 431 430 386
f 432 431 385
f 433 432 384
f 434 433 383
f 435 434 382
f 408 435 381
f 415 387 436
f 438 436 437
f 416 415 438
f 440 437 439
f 441 438 440
f 418 416 441
f 443 439 442
f 444 440 443
f 445 441 444
f 421 418 445
f 447 442 446
f 448 443 447
f 449 444 448
f 450 445 449
f 425 421 450
f 452 446 451
f 453 447 452
f 454 448 453
f 455 449 454
f 456 450 455
f 430 425 456
f 365 451 225
f 364 452 365
f 363 453 364
f 362 454 363
f 361 455 362
f 360 456 361
f 253 430 360
f 415 436 438
f 438 437 440
f 416 438 441
f 440 439 443
f 441 440 444
f 418 441 445
f 443 442 447
f 444 443 448
f 445 444 449
f 421 445 450
f 447 446 452
f 448 447 453
f 449 448 454
f 450 449 455
f 425 450 456
f 452 451 365
f 453 452 364
f 454 453 363
f 455 454 362
f 456 455 361
f 430 456 360
f 436 387 457
f 459 457 458
f 437 436 459
f 461 458 460
f 462 459 461
f 439 437 462
f 464 460 463
f 465 461 464
f 466 462 465
f 442 439 466
f 468 463 467
f 469 464 468
f 470 465 469
f 471 466 470
f 446 442 471
f 473 467 472
f 474 468 473
f 475 469 474
f 476 470 475
f 477 471 476
f 451 446 477
f 344 472 197
f 343 473 344
f 342 474 343
f 341 475 342
f 340 476 341
f 339 477 340
f 225 451 339
f 436 457 459
f 459 458 461
f 437 459 462
f 461 460 464
f 462 461 465
f 439 462 466
f 464 463 468
f 465 464 469
f 466 465 470
f 442 466 471
f 468 467 473
f 469 468 474
f 470 469 475
f 471 470 476
f 446 471 477
f 473 472 344
f 474 473 343
f 475 474 342
f 476 475 341
f 477 476 340
f 451 477 339
f 457 387 389
f 478 389 392
f 458 457 478
f 479 392 396
f 480 478 479
f 460 458 480
f 481 396 401
f 482 479 481
f 483 480 482
f 463 460 483
f 484 401 407
f 485 481 484
f 486 482 485
f 487 483 486
f 467 463 487
f 488 407 414
f 489 484 488
f 490 485 489
f 491 486 490
f 492 487 491
f 472 467 492
f 323 414 169
f 322 488 323
f 321 489 322
f 320 490 321
f 319 491 320
f 318 492 319
f 197 472 318
f 457 389 478
f 478 392 479
f 458 478 480
f 479 396 481
f 480 479 482
f 460 480 483
f 481 401 484
f 482 481 485
f 483 482 486
f 463 483 487
f 484 407 488
f 485 484 489
f 486 485 490
f 487 486 491
f 467 487 492
f 488 414 323
f 489 488 322
f 490 489 321
f 491 490 320
f 492 491 319
f 472 492 318
