# File exported by Houdini 20.5.445 (www.sidefx.com)
# 492 points
# 2940 vertices
# 980 primitives
# Bounds: [-136.290253, -163.226089, -1037.88013] to [307.064148, 279.60321, -716.920898]
g 
v 85.3869324 58.18853 -1037.88013
v 85.3869324 93.2132111 -1035.87708
v 118.697388 69.0118027 -1035.87708
v 85.3869324 127.363724 -1029.91785
v 120.558319 106.597832 -1031.96106
v 151.176422 79.5648651 -1029.91785
v 85.3869324 159.787476 -1020.15112
v 121.651398 141.473129 -1023.88013
v 153.388947 118.414497 -1023.88013
v 182.013245 89.5843811 -1020.15112
v 85.3869324 189.674835 -1006.8208
v 122.011688 173.500015 -1012.04834
v 154.42688 153.213867 -1013.66663
v 183.736969 128.653992 -1012.04834
v 210.437805 98.8201065 -1006.8208
v 85.3869324 216.279861 -990.259644
v 121.651398 202.486984 -996.666992
v 154.42688 184.577942 -999.677734
v 184.255768 162.90596 -999.677734
v 211.416504 137.268814 -996.666992
v 235.740662 107.041512 -990.259766
v 85.3869324 238.938248 -970.881226
v 120.558319 228.098999 -977.769409
v 153.388947 212.799164 -981.782959
v 183.736969 193.555847 -983.101074
v 211.416504 170.639679 -981.782959
v 236.112793 144.143814 -977.769409
v 257.290039 114.043373 -970.881226
v 85.3869324 257.08429 -949.169189
v 118.697388 249.76149 -955.259521
v 151.176453 237.656204 -959.40625
v 182.013245 221.070679 -961.505859
v 210.437805 200.419037 -961.505859
v 235.740662 176.216736 -959.40625
v 257.290039 149.068024 -955.259521
v 274.548035 119.650803 -949.169189
v 105.973907 29.8529739 -1035.87708
v 142.295441 39.6978836 -1031.96106
v 126.047119 2.22467804 -1029.91785
v 175.801605 49.4353409 -1023.88013
v 163.678955 12.125658 -1023.88013
v 145.105286 -24.0066376 -1020.15112
v 206.372314 58.9895706 -1012.04834
v 197.095886 21.8921108 -1013.66663
v 182.795349 -13.5728607 -1012.04834
v 162.672668 -48.1861115 -1006.8208
v 233.829285 68.2897034 -996.666992
v 226.924805 31.5841217 -999.677734
v 215.531189 -3.48189926 -999.677734
v 199.541992 -37.2355957 -996.666992
v 178.310699 -69.7100296 -990.259766
v 257.849915 77.2438278 -977.769409
v 253.444092 41.2921906 -981.782959
v 244.520691 6.48290443 -983.101074
v 231.279541 -26.9234123 -981.782959
v 213.712036 -58.5986557 -977.769409
v 191.628906 -88.0409775 -970.881226
v 277.877075 85.7077866 -955.259521
v 276.400879 51.0776291 -959.40625
v 270.15625 16.6249008 -961.505981
v 259.29895 -16.790329 -961.505981
v 244.100159 -48.3337021 -959.40625
v 224.939392 -77.2177734 -955.259521
v 202.294861 -102.721466 -949.169189
v 64.7999573 29.8529739 -1035.87708
v 85.3869324 -1.64861488 -1031.96106
v 44.7267761 2.22467804 -1029.91785
v 105.001801 -30.5058136 -1023.88013
v 65.7720642 -30.5058136 -1023.88013
v 25.6686096 -24.0066376 -1020.15112
v 123.535248 -56.6279144 -1012.04834
v 85.3869324 -59.2691727 -1013.66663
v 47.2386169 -56.6279144 -1012.04834
v 8.10122681 -48.1861115 -1006.8208
v 140.864807 -79.8670578 -996.666992
v 103.822205 -84.6432495 -999.677734
v 66.9516296 -84.6432495 -999.677734
v 29.9090271 -79.8670578 -996.666992
v -7.5368042 -69.7100296 -990.259766
v 156.803528 -99.9450836 -977.769409
v 121.25 -106.864639 -981.782959
v 85.3869324 -109.134567 -983.101074
v 49.5238953 -106.864639 -981.782959
v 13.9703674 -99.9450836 -977.769409
v -20.8550415 -88.0409775 -970.881226
v 171.041992 -116.376617 -955.259521
v 137.650513 -125.67395 -959.40625
v 102.954315 -130.381332 -961.505981
v 67.8195496 -130.381332 -961.505981
v 33.1233521 -125.67395 -959.40625
v -0.268035889 -116.376617 -955.259521
v -31.5210266 -102.721466 -949.169189
v 52.0764465 69.0118027 -1035.87708
v 28.4784241 39.6978836 -1031.96106
v 19.5974426 79.5648651 -1029.91785
v 7.09490967 12.125658 -1023.88013
v -5.02774048 49.4353409 -1023.88013
v -11.2393494 89.5843811 -1020.15112
v -12.0215149 -13.5728607 -1012.04834
v -26.3220215 21.8921108 -1013.66663
v -35.5984192 58.9895706 -1012.04834
v -39.6639709 98.8201065 -1006.8208
v -28.7681274 -37.2355957 -996.666992
v -44.7573547 -3.48189926 -999.677734
v -56.1509705 31.5841217 -999.677734
v -63.0553589 68.2897034 -996.666992
v -64.9668274 107.041512 -990.259766
v -42.9382019 -58.5986557 -977.769409
v -60.5056458 -26.9234123 -981.782959
v -73.7467957 6.48290443 -983.101074
v -82.6702271 41.2921906 -981.782959
v -87.0760651 77.2438278 -977.769409
v -86.5162201 114.043373 -970.881226
v -54.1655273 -77.2177734 -955.259521
v -73.3263397 -48.3337021 -959.40625
v -88.5251007 -16.790329 -961.505981
v -99.3823395 16.6249008 -961.505981
v -105.626999 51.0776291 -959.40625
v -107.103226 85.7077866 -955.259521
v -103.77417 119.650803 -949.169189
v 50.2155151 106.597832 -1031.96106
v 17.3849182 118.414497 -1023.88013
v 49.1224976 141.473129 -1023.88013
v -12.9631042 128.653992 -1012.04834
v 16.3470154 153.213867 -1013.66663
v 48.7621765 173.500015 -1012.04834
v -40.6426697 137.268814 -996.666992
v -13.4819336 162.90596 -999.677734
v 16.3470154 184.577942 -999.677734
v 49.122467 202.486984 -996.66687
v -65.3389282 144.143814 -977.769409
v -40.6426697 170.639679 -981.782959
v -12.9631042 193.555847 -983.101074
v 17.3849182 212.799164 -981.782959
v 50.2155151 228.098999 -977.769409
v -86.5161743 149.068024 -955.259521
v -64.9668274 176.216736 -959.40625
v -39.6639709 200.419037 -961.505859
v -11.2393494 221.070679 -961.505859
v 19.5974121 237.656204 -959.40625
v 52.0764465 249.76149 -955.259521
v 64.7999268 267.273743 -929.983154
v 28.4783936 258.017578 -934.58667
v 44.7267761 272.243774 -909.484619
v -5.02774048 243.647491 -937.258179
v 7.09490967 260.332947 -913.175415
v 25.6686096 271.870056 -888.184937
v -35.5984192 224.710678 -938.133911
v -26.321991 243.306747 -914.911865
v -12.0214539 257.16156 -891.296143
v 8.10122681 266.162109 -866.616211
v -63.0553284 201.488007 -937.258179
v -56.1509094 221.634735 -914.911865
v -44.7572632 237.316742 -892.277466
v -28.7680664 248.680298 -869.143555
v -7.53677368 255.262283 -845.316528
v -87.0760345 174.062408 -934.58667
v -82.6701965 195.114731 -913.175415
v -73.7467041 212.315521 -891.296143
v -60.5056152 225.621658 -869.143555
v -42.9381409 234.812897 -846.902832
v -20.8550415 239.442795 -824.817871
v -107.103165 142.378891 -929.983276
v -105.626923 163.005402 -909.484619
v -99.3822479 181.015305 -888.184937
v -88.5250244 195.95903 -866.616211
v -73.3262939 207.46347 -845.316528
v -54.1654968 215.241364 -824.817871
v -31.5210266 219.098587 -805.631958
v -119.826645 103.220108 -929.983276
v -122.247482 65.8159027 -934.58667
v -130.756317 85.665184 -909.484619
v -118.934708 29.5090714 -937.258179
v -131.057358 46.1944733 -913.175415
v -136.290253 67.4242935 -888.184937
v -110.371506 -5.41725349 -938.133911
v -125.190887 9.15172291 -914.911865
v -133.948471 27.0336361 -891.296143
v -136.290253 48.9528351 -866.616211
v -96.7701111 -38.7064667 -937.258179
v -113.797226 -25.9143677 -914.911865
v -125.190887 -10.2323685 -892.277466
v -131.057312 8.4858284 -869.143555
v -130.756317 30.7119122 -845.316406
v -78.1095886 -70.0265732 -934.58667
v -96.7701111 -59.3307571 -913.175415
v -110.371475 -45.5287933 -891.296143
v -118.934662 -28.8239288 -869.143555
v -122.247452 -9.27605438 -846.902832
v -119.826645 13.1569576 -824.817871
v -54.1654968 -98.8642426 -929.983276
v -73.3262939 -91.0863571 -909.484619
v -88.5250244 -79.5818863 -888.184937
v -99.3822479 -64.6382446 -866.616211
v -105.626923 -46.6283417 -845.316528
v -107.103165 -26.0018082 -824.817871
v -103.77417 -3.2737484 -805.631958
v -20.8550415 -123.065689 -929.983276
v 13.9703674 -136.926498 -934.58667
v -7.53677368 -138.885223 -909.484619
v 49.5238953 -144.995377 -937.258179
v 29.9090576 -151.368591 -913.175415
v 8.10122681 -149.784958 -888.184937
v 85.3869324 -147.644104 -938.133911
v 66.9516296 -157.236099 -914.911865
v 47.2386169 -160.039215 -891.296143
v 25.6686096 -155.492966 -866.616211
v 121.25 -144.995377 -937.258179
v 103.822205 -157.236099 -914.911865
v 85.3869324 -163.226089 -892.277466
v 65.7720642 -163.021118 -869.143555
v 44.7267761 -155.866684 -845.316528
v 156.803528 -136.926498 -934.58667
v 140.864807 -151.368591 -913.175415
v 123.535248 -160.039215 -891.296143
v 105.001801 -163.021118 -869.143555
v 85.3869324 -160.131104 -846.902832
v 64.7999268 -150.896637 -824.817871
v 191.628906 -123.065689 -929.983276
v 178.310699 -138.885223 -909.484619
v 162.672668 -149.784958 -888.184937
v 145.105286 -155.492966 -866.616211
v 126.047119 -155.866684 -845.316528
v 105.973907 -150.896637 -824.817871
v 85.3869324 -140.707199 -805.631958
v 224.939392 -98.8642426 -929.983276
v 248.883484 -70.0265732 -934.58667
v 244.100159 -91.0863571 -909.484619
v 267.543945 -38.7064667 -937.258179
v 267.543945 -59.3307571 -913.175415
v 259.298889 -79.5818863 -888.184937
v 281.145386 -5.41725349 -938.133911
v 284.571045 -25.9143677 -914.911865
v 281.145325 -45.5287933 -891.296143
v 270.156128 -64.6382446 -866.616211
v 289.708557 29.5090714 -937.258179
v 295.964783 9.15172291 -914.911865
v 295.964783 -10.2323685 -892.277466
v 289.708496 -28.8239288 -869.143555
v 276.400757 -46.6283417 -845.316528
v 293.021301 65.8159027 -934.58667
v 301.831177 46.1944733 -913.175415
v 304.722351 27.0336361 -891.296143
v 301.831177 8.4858284 -869.143555
v 293.021301 -9.27605438 -846.902832
v 277.877014 -26.0018082 -824.817871
v 290.600464 103.220108 -929.983276
v 301.530151 85.665184 -909.484619
v 307.064148 67.4242935 -888.184937
v 307.064148 48.9528351 -866.616211
v 301.530151 30.7119122 -845.316406
v 290.600464 13.1569576 -824.817871
v 274.548035 -3.2737484 -805.631958
v 277.877014 142.378891 -929.983276
v 257.849915 174.062408 -934.58667
v 276.400757 163.005402 -909.484619
v 233.829163 201.488007 -937.258179
v 253.44397 195.114731 -913.175415
v 270.156128 181.015305 -888.184937
v 206.372314 224.710678 -938.133911
v 226.924744 221.634735 -914.911865
v 244.520569 212.315521 -891.296143
v 259.298889 195.95903 -866.616211
v 175.801605 243.647491 -937.258179
v 197.095886 243.306747 -914.911865
v 215.531189 237.316742 -892.277466
v 231.279541 225.621658 -869.143555
v 244.100159 207.46347 -845.316528
v 142.295502 258.017578 -934.58667
v 163.678955 260.332947 -913.175415
v 182.795349 257.16156 -891.296143
v 199.541992 248.680298 -869.143555
v 213.712036 234.812897 -846.902832
v 224.939392 215.241364 -824.817871
v 105.973907 267.273743 -929.983154
v 126.047119 272.243774 -909.484619
v 145.105286 271.870056 -888.184937
v 162.672668 266.162109 -866.616211
v 178.310699 255.262283 -845.316528
v 191.628906 239.442795 -824.817871
v 202.294861 219.098587 -805.631958
v 85.3869324 276.50824 -907.898315
v 65.7720642 279.398254 -885.657593
v 105.001801 279.398254 -885.657593
v 47.2386169 276.41626 -863.505005
v 85.3869324 279.60321 -862.523682
v 123.535248 276.41626 -863.505005
v 29.9090576 267.745667 -841.625732
v 66.9516296 273.61322 -839.889282
v 103.822205 273.61322 -839.889282
v 140.864807 267.745667 -841.625732
v 13.9703674 253.303619 -820.214355
v 49.5238953 261.372437 -817.542969
v 85.3869324 264.021179 -816.667236
v 121.25 261.372437 -817.542969
v 156.803528 253.303619 -820.214355
v -0.268035889 232.753662 -799.541504
v 33.1233521 242.05101 -795.394775
v 67.8195496 246.758438 -793.295166
v 102.954315 246.758438 -793.295166
v 137.650513 242.05101 -795.394775
v 171.041992 232.753662 -799.541504
v -122.247452 125.653122 -907.898315
v -131.057312 107.891281 -885.657593
v -118.934662 145.201004 -885.657593
v -133.948471 89.3434296 -863.505005
v -125.190887 126.609428 -862.523682
v -110.371475 161.905853 -863.505005
v -131.057358 70.1825943 -841.625732
v -125.190887 107.225372 -839.889282
v -113.797226 142.291443 -839.889282
v -96.7700958 175.707886 -841.625732
v -122.247482 50.5611649 -820.214355
v -118.934708 86.8679962 -817.542847
v -110.371506 121.794327 -816.667236
v -96.7701111 155.083572 -817.542847
v -78.1095886 186.403641 -820.214355
v -107.103226 30.6693153 -799.541504
v -105.626999 65.2995071 -795.394775
v -99.3823395 99.7522278 -793.295166
v -88.5251007 133.167389 -793.295166
v -73.3263397 164.71077 -795.394775
v -54.1655273 193.594864 -799.541504
v -42.9381409 -118.435867 -907.898315
v -28.7680664 -132.303223 -885.657593
v -60.5056152 -109.244537 -885.657593
v -12.0214539 -140.784439 -863.505005
v -44.7572632 -120.939667 -862.523682
v -73.7467041 -95.9384155 -863.505005
v 7.09490967 -143.955765 -841.625732
v -26.321991 -126.929733 -839.889282
v -56.1509094 -105.257675 -839.889282
v -82.6701965 -78.7376404 -841.625732
v 28.4783936 -141.640518 -820.214478
v -5.02774048 -127.270432 -817.542969
v -35.5984192 -108.333618 -816.667236
v -63.0553284 -85.1109238 -817.542969
v -87.0760193 -57.6853485 -820.214478
v 52.0764465 -133.384399 -799.541626
v 19.5974121 -121.279099 -795.394775
v -11.2393494 -104.693588 -793.295166
v -39.6639709 -84.0419312 -793.295166
v -64.9668274 -59.8396683 -795.394775
v -86.5161743 -32.6909637 -799.541626
v 213.712036 -118.435867 -907.898315
v 231.279541 -109.244537 -885.657593
v 199.541992 -132.303223 -885.657593
v 244.520569 -95.9384155 -863.505005
v 215.531189 -120.939667 -862.523682
v 182.795349 -140.784439 -863.505005
v 253.44397 -78.7376404 -841.625732
v 226.924744 -105.257675 -839.889282
v 197.095886 -126.929581 -839.889282
v 163.678955 -143.955841 -841.625732
v 257.849854 -57.6853485 -820.214478
v 233.829163 -85.1109238 -817.542969
v 206.372314 -108.333618 -816.667236
v 175.801605 -127.270432 -817.542969
v 142.295502 -141.640518 -820.214478
v 257.290039 -32.6909637 -799.541626
v 235.740662 -59.8396683 -795.394775
v 210.437805 -84.0419312 -793.295166
v 182.013245 -104.693588 -793.295166
v 151.176453 -121.279099 -795.394775
v 118.697388 -133.384399 -799.541626
v 293.021301 125.653122 -907.898315
v 289.708557 145.201004 -885.657593
v 301.831177 107.891281 -885.657593
v 281.145325 161.905853 -863.505005
v 295.964783 126.609428 -862.523682
v 304.722351 89.3434296 -863.505005
v 267.543945 175.707886 -841.625732
v 284.571045 142.291443 -839.889282
v 295.964783 107.225372 -839.889282
v 301.831177 70.1825943 -841.625732
v 248.883484 186.403595 -820.214355
v 267.543945 155.083572 -817.542847
v 281.145386 121.794327 -816.667236
v 289.708557 86.8679962 -817.542847
v 293.021301 50.5611649 -820.214355
v 224.939392 193.594864 -799.541504
v 244.100159 164.71077 -795.394775
v 259.29895 133.167389 -793.295166
v 270.15625 99.7522278 -793.295166
v 276.400879 65.2995071 -795.394775
v 277.877075 30.6693153 -799.541504
v 85.3869324 58.18853 -716.920898
v 105.973907 86.5240936 -718.92395
v 64.7999573 86.5240936 -718.92395
v 126.047119 114.15239 -724.883301
v 85.3869324 118.025719 -722.840088
v 44.7267761 114.15239 -724.883301
v 145.105286 140.383743 -734.649902
v 105.001801 146.882874 -730.920898
v 65.7720642 146.882874 -730.920898
v 25.6686096 140.383743 -734.649902
v 162.672668 164.563202 -747.980225
v 123.535248 173.004974 -742.752686
v 85.3869324 175.646271 -741.134399
v 47.2386169 173.004974 -742.752686
v 8.10122681 164.563202 -747.980225
v 178.310699 186.087082 -764.541382
v 140.864807 196.244141 -758.134155
v 103.822205 201.020309 -755.123291
v 66.9516296 201.020309 -755.123291
v 29.9090271 196.244156 -758.134155
v -7.5368042 186.087082 -764.541382
v 191.628906 204.418076 -783.919922
v 156.803528 216.32222 -777.031616
v 121.25 223.241699 -773.018188
v 85.3869324 225.511673 -771.700073
v 49.5238953 223.241699 -773.018188
v 13.9703674 216.32222 -777.031616
v -20.8550415 204.418076 -783.919922
v 118.697388 47.3652649 -718.92395
v 151.176422 36.8122025 -724.883301
v 142.295441 76.6792526 -722.840088
v 182.013245 26.7926884 -734.649902
v 175.801605 66.9417191 -730.920898
v 163.678955 104.251442 -730.920898
v 210.437805 17.5569916 -747.980225
v 206.372314 57.3874969 -742.752686
v 197.095886 94.4849548 -741.134399
v 182.795349 129.949921 -742.752686
v 235.740662 9.33558273 -764.541382
v 233.829285 48.0873642 -758.134155
v 226.924805 84.7929382 -755.123291
v 215.531189 119.858994 -755.123291
v 199.541992 153.612686 -758.134155
v 257.290039 2.33368683 -783.919922
v 257.849915 39.1332397 -777.031616
v 253.444092 75.0849075 -773.018188
v 244.520691 109.894165 -771.700073
v 231.279541 143.300507 -773.018188
v 213.712036 174.975769 -777.031616
v 85.3869324 23.1638813 -718.92395
v 85.3869324 -10.9866524 -724.883301
v 120.558319 9.77923965 -722.840088
v 85.3869324 -43.4103928 -734.649902
v 121.651398 -25.0960464 -730.920898
v 153.388947 -2.03735924 -730.920898
v 85.3869324 -73.2977295 -747.980225
v 122.011688 -57.1229477 -742.752686
v 154.42688 -36.8367767 -741.134399
v 183.736969 -12.2769318 -742.752686
v 85.3869324 -99.9027557 -764.541382
v 121.651398 -86.1099091 -758.134155
v 154.42688 -68.2008438 -755.123291
v 184.255768 -46.5288544 -755.123291
v 211.416504 -20.891716 -758.134155
v 85.3869324 -122.561066 -783.919922
v 120.558319 -111.721939 -777.031616
v 153.388947 -96.4220886 -773.018188
v 183.736969 -77.1787109 -771.700073
v 211.416504 -54.2625809 -773.018188
v 236.112793 -27.7667007 -777.031616
v 52.0764465 47.3652649 -718.92395
v 19.5974426 36.8122025 -724.883301
v 50.2155151 9.77923965 -722.840088
v -11.2393494 26.7926884 -734.649902
v 17.3849182 -2.03735924 -730.920898
v 49.1224976 -25.0960464 -730.920898
v -39.6639709 17.5569916 -747.980225
v -12.9631042 -12.2769318 -742.752686
v 16.3470154 -36.8367767 -741.134399
v 48.7621765 -57.1229477 -742.752686
v -64.9668274 9.33558273 -764.541382
v -40.6426697 -20.891716 -758.134155
v -13.4819336 -46.5288544 -755.123291
v 16.3470154 -68.2008438 -755.123291
v 49.122467 -86.1099091 -758.134155
v -86.5162201 2.33368683 -783.919922
v -65.3389282 -27.7667007 -777.031616
v -40.6426697 -54.2625809 -773.018188
v -12.9631042 -77.1787109 -771.700073
v 17.3849182 -96.4220886 -773.018188
v 50.2155151 -111.721939 -777.031616
v 28.4784241 76.6792526 -722.840088
v 7.09490967 104.251442 -730.920898
v -5.02774048 66.9417191 -730.920898
v -12.0215149 129.949921 -742.752686
v -26.3220215 94.4849548 -741.134399
v -35.5984192 57.3874969 -742.752686
v -28.7681274 153.612686 -758.134155
v -44.7573547 119.858994 -755.123291
v -56.1509705 84.7929382 -755.123291
v -63.0553589 48.0873642 -758.134155
v -42.9382019 174.975769 -777.031616
v -60.5056458 143.300507 -773.018188
v -73.7467957 109.894165 -771.700073
v -82.6702271 75.0849075 -773.018188
v -87.0760651 39.1332397 -777.031616
g 
f 3 1 2
f 5 2 4
f 6 3 5
f 8 4 7
f 9 5 8
f 10 6 9
f 12 7 11
f 13 8 12
f 14 9 13
f 15 10 14
f 17 11 16
f 18 12 17
f 19 13 18
f 20 14 19
f 21 15 20
f 23 16 22
f 24 17 23
f 25 18 24
f 26 19 25
f 27 20 26
f 28 21 27
f 30 22 29
f 31 23 30
f 32 24 31
f 33 25 32
f 34 26 33
f 35 27 34
f 36 28 35
f 3 2 5
f 5 4 8
f 6 5 9
f 8 7 12
f 9 8 13
f 10 9 14
f 12 11 17
f 13 12 18
f 14 13 19
f 15 14 20
f 17 16 23
f 18 17 24
f 19 18 25
f 20 19 26
f 21 20 27
f 23 22 30
f 24 23 31
f 25 24 32
f 26 25 33
f 27 26 34
f 28 27 35
f 37 1 3
f 38 3 6
f 39 37 38
f 40 6 10
f 41 38 40
f 42 39 41
f 43 10 15
f 44 40 43
f 45 41 44
f 46 42 45
f 47 15 21
f 48 43 47
f 49 44 48
f 50 45 49
f 51 46 50
f 52 21 28
f 53 47 52
f 54 48 53
f 55 49 54
f 56 50 55
f 57 51 56
f 58 28 36
f 59 52 58
f 60 53 59
f 61 54 60
f 62 55 61
f 63 56 62
f 64 57 63
f 37 3 38
f 38 6 40
f 39 38 41
f 40 10 43
f 41 40 44
f 42 41 45
f 43 15 47
f 44 43 48
f 45 44 49
f 46 45 50
f 47 21 52
f 48 47 53
f 49 48 54
f 50 49 55
f 51 50 56
f 52 28 58
f 53 52 59
f 54 53 60
f 55 54 61
f 56 55 62
f 57 56 63
f 65 1 37
f 66 37 39
f 67 65 66
f 68 39 42
f 69 66 68
f 70 67 69
f 71 42 46
f 72 68 71
f 73 69 72
f 74 70 73
f 75 46 51
f 76 71 75
f 77 72 76
f 78 73 77
f 79 74 78
f 80 51 57
f 81 75 80
f 82 76 81
f 83 77 82
f 84 78 83
f 85 79 84
f 86 57 64
f 87 80 86
f 88 81 87
f 89 82 88
f 90 83 89
f 91 84 90
f 92 85 91
f 65 37 66
f 66 39 68
f 67 66 69
f 68 42 71
f 69 68 72
f 70 69 73
f 71 46 75
f 72 71 76
f 73 72 77
f 74 73 78
f 75 51 80
f 76 75 81
f 77 76 82
f 78 77 83
f 79 78 84
f 80 57 86
f 81 80 87
f 82 81 88
f 83 82 89
f 84 83 90
f 85 84 91
f 93 1 65
f 94 65 67
f 95 93 94
f 96 67 70
f 97 94 96
f 98 95 97
f 99 70 74
f 100 96 99
f 101 97 100
f 102 98 101
f 103 74 79
f 104 99 103
f 105 100 104
f 106 101 105
f 107 102 106
f 108 79 85
f 109 103 108
f 110 104 109
f 111 105 110
f 112 106 111
f 113 107 112
f 114 85 92
f 115 108 114
f 116 109 115
f 117 110 116
f 118 111 117
f 119 112 118
f 120 113 119
f 93 65 94
f 94 67 96
f 95 94 97
f 96 70 99
f 97 96 100
f 98 97 101
f 99 74 103
f 100 99 104
f 101 100 105
f 102 101 106
f 103 79 108
f 104 103 109
f 105 104 110
f 106 105 111
f 107 106 112
f 108 85 114
f 109 108 115
f 110 109 116
f 111 110 117
f 112 111 118
f 113 112 119
f 2 1 93
f 121 93 95
f 4 2 121
f 122 95 98
f 123 121 122
f 7 4 123
f 124 98 102
f 125 122 124
f 126 123 125
f 11 7 126
f 127 102 107
f 128 124 127
f 129 125 128
f 130 126 129
f 16 11 130
f 131 107 113
f 132 127 131
f 133 128 132
f 134 129 133
f 135 130 134
f 22 16 135
f 136 113 120
f 137 131 136
f 138 132 137
f 139 133 138
f 140 134 139
f 141 135 140
f 29 22 141
f 2 93 121
f 121 95 122
f 4 121 123
f 122 98 124
f 123 122 125
f 7 123 126
f 124 102 127
f 125 124 128
f 126 125 129
f 11 126 130
f 127 107 131
f 128 127 132
f 129 128 133
f 130 129 134
f 16 130 135
f 131 113 136
f 132 131 137
f 133 132 138
f 134 133 139
f 135 134 140
f 22 135 141
f 142 29 141
f 143 141 140
f 144 142 143
f 145 140 139
f 146 143 145
f 147 144 146
f 148 139 138
f 149 145 148
f 150 146 149
f 151 147 150
f 152 138 137
f 153 148 152
f 154 149 153
f 155 150 154
f 156 151 155
f 157 137 136
f 158 152 157
f 159 153 158
f 160 154 159
f 161 155 160
f 162 156 161
f 163 136 120
f 164 157 163
f 165 158 164
f 166 159 165
f 167 160 166
f 168 161 167
f 169 162 168
f 142 141 143
f 143 140 145
f 144 143 146
f 145 139 148
f 146 145 149
f 147 146 150
f 148 138 152
f 149 148 153
f 150 149 154
f 151 150 155
f 152 137 157
f 153 152 158
f 154 153 159
f 155 154 160
f 156 155 161
f 157 136 163
f 158 157 164
f 159 158 165
f 160 159 166
f 161 160 167
f 162 161 168
f 170 120 119
f 171 119 118
f 172 170 171
f 173 118 117
f 174 171 173
f 175 172 174
f 176 117 116
f 177 173 176
f 178 174 177
f 179 175 178
f 180 116 115
f 181 176 180
f 182 177 181
f 183 178 182
f 184 179 183
f 185 115 114
f 186 180 185
f 187 181 186
f 188 182 187
f 189 183 188
f 190 184 189
f 191 114 92
f 192 185 191
f 193 186 192
f 194 187 193
f 195 188 194
f 196 189 195
f 197 190 196
f 170 119 171
f 171 118 173
f 172 171 174
f 173 117 176
f 174 173 177
f 175 174 178
f 176 116 180
f 177 176 181
f 178 177 182
f 179 178 183
f 180 115 185
f 181 180 186
f 182 181 187
f 183 182 188
f 184 183 189
f 185 114 191
f 186 185 192
f 187 186 193
f 188 187 194
f 189 188 195
f 190 189 196
f 198 92 91
f 199 91 90
f 200 198 199
f 201 90 89
f 202 199 201
f 203 200 202
f 204 89 88
f 205 201 204
f 206 202 205
f 207 203 206
f 208 88 87
f 209 204 208
f 210 205 209
f 211 206 210
f 212 207 211
f 213 87 86
f 214 208 213
f 215 209 214
f 216 210 215
f 217 211 216
f 218 212 217
f 219 86 64
f 220 213 219
f 221 214 220
f 222 215 221
f 223 216 222
f 224 217 223
f 225 218 224
f 198 91 199
f 199 90 201
f 200 199 202
f 201 89 204
f 202 201 205
f 203 202 206
f 204 88 208
f 205 204 209
f 206 205 210
f 207 206 211
f 208 87 213
f 209 208 214
f 210 209 215
f 211 210 216
f 212 211 217
f 213 86 219
f 214 213 220
f 215 214 221
f 216 215 222
f 217 216 223
f 218 217 224
f 226 64 63
f 227 63 62
f 228 226 227
f 229 62 61
f 230 227 229
f 231 228 230
f 232 61 60
f 233 229 232
f 234 230 233
f 235 231 234
f 236 60 59
f 237 232 236
f 238 233 237
f 239 234 238
f 240 235 239
f 241 59 58
f 242 236 241
f 243 237 242
f 244 238 243
f 245 239 244
f 246 240 245
f 247 58 36
f 248 241 247
f 249 242 248
f 250 243 249
f 251 244 250
f 252 245 251
f 253 246 252
f 226 63 227
f 227 62 229
f 228 227 230
f 229 61 232
f 230 229 233
f 231 230 234
f 232 60 236
f 233 232 237
f 234 233 238
f 235 234 239
f 236 59 241
f 237 236 242
f 238 237 243
f 239 238 244
f 240 239 245
f 241 58 247
f 242 241 248
f 243 242 249
f 244 243 250
f 245 244 251
f 246 245 252
f 254 36 35
f 255 35 34
f 256 254 255
f 257 34 33
f 258 255 257
f 259 256 258
f 260 33 32
f 261 257 260
f 262 258 261
f 263 259 262
f 264 32 31
f 265 260 264
f 266 261 265
f 267 262 266
f 268 263 267
f 269 31 30
f 270 264 269
f 271 265 270
f 272 266 271
f 273 267 272
f 274 268 273
f 275 30 29
f 276 269 275
f 277 270 276
f 278 271 277
f 279 272 278
f 280 273 279
f 281 274 280
f 254 35 255
f 255 34 257
f 256 255 258
f 257 33 260
f 258 257 261
f 259 258 262
f 260 32 264
f 261 260 265
f 262 261 266
f 263 262 267
f 264 31 269
f 265 264 270
f 266 265 271
f 267 266 272
f 268 267 273
f 269 30 275
f 270 269 276
f 271 270 277
f 272 271 278
f 273 272 279
f 274 273 280
f 275 29 142
f 282 142 144
f 276 275 282
f 283 144 147
f 284 282 283
f 277 276 284
f 285 147 151
f 286 283 285
f 287 284 286
f 278 277 287
f 288 151 156
f 289 285 288
f 290 286 289
f 291 287 290
f 279 278 291
f 292 156 162
f 293 288 292
f 294 289 293
f 295 290 294
f 296 291 295
f 280 279 296
f 297 162 169
f 298 292 297
f 299 293 298
f 300 294 299
f 301 295 300
f 302 296 301
f 281 280 302
f 275 142 282
f 282 144 283
f 276 282 284
f 283 147 285
f 284 283 286
f 277 284 287
f 285 151 288
f 286 285 289
f 287 286 290
f 278 287 291
f 288 156 292
f 289 288 293
f 290 289 294
f 291 290 295
f 279 291 296
f 292 162 297
f 293 292 298
f 294 293 299
f 295 294 300
f 296 295 301
f 280 296 302
f 163 120 170
f 303 170 172
f 164 163 303
f 304 172 175
f 305 303 304
f 165 164 305
f 306 175 179
f 307 304 306
f 308 305 307
f 166 165 308
f 309 179 184
f 310 306 309
f 311 307 310
f 312 308 311
f 167 166 312
f 313 184 190
f 314 309 313
f 315 310 314
f 316 311 315
f 317 312 316
f 168 167 317
f 318 190 197
f 319 313 318
f 320 314 319
f 321 315 320
f 322 316 321
f 323 317 322
f 169 168 323
f 163 170 303
f 303 172 304
f 164 303 305
f 304 175 306
f 305 304 307
f 165 305 308
f 306 179 309
f 307 306 310
f 308 307 311
f 166 308 312
f 309 184 313
f 310 309 314
f 311 310 315
f 312 311 316
f 167 312 317
f 313 190 318
f 314 313 319
f 315 314 320
f 316 315 321
f 317 316 322
f 168 317 323
f 191 92 198
f 324 198 200
f 192 191 324
f 325 200 203
f 326 324 325
f 193 192 326
f 327 203 207
f 328 325 327
f 329 326 328
f 194 193 329
f 330 207 212
f 331 327 330
f 332 328 331
f 333 329 332
f 195 194 333
f 334 212 218
f 335 330 334
f 336 331 335
f 337 332 336
f 338 333 337
f 196 195 338
f 339 218 225
f 340 334 339
f 341 335 340
f 342 336 341
f 343 337 342
f 344 338 343
f 197 196 344
f 191 198 324
f 324 200 325
f 192 324 326
f 325 203 327
f 326 325 328
f 193 326 329
f 327 207 330
f 328 327 331
f 329 328 332
f 194 329 333
f 330 212 334
f 331 330 335
f 332 331 336
f 333 332 337
f 195 333 338
f 334 218 339
f 335 334 340
f 336 335 341
f 337 336 342
f 338 337 343
f 196 338 344
f 219 64 226
f 345 226 228
f 220 219 345
f 346 228 231
f 347 345 346
f 221 220 347
f 348 231 235
f 349 346 348
f 350 347 349
f 222 221 350
f 351 235 240
f 352 348 351
f 353 349 352
f 354 350 353
f 223 222 354
f 355 240 246
f 356 351 355
f 357 352 356
f 358 353 357
f 359 354 358
f 224 223 359
f 360 246 253
f 361 355 360
f 362 356 361
f 363 357 362
f 364 358 363
f 365 359 364
f 225 224 365
f 219 226 345
f 345 228 346
f 220 345 347
f 346 231 348
f 347 346 349
f 221 347 350
f 348 235 351
f 349 348 352
f 350 349 353
f 222 350 354
f 351 240 355
f 352 351 356
f 353 352 357
f 354 353 358
f 223 354 359
f 355 246 360
f 356 355 361
f 357 356 362
f 358 357 363
f 359 358 364
f 224 359 365
f 247 36 254
f 366 254 256
f 248 247 366
f 367 256 259
f 368 366 367
f 249 248 368
f 369 259 263
f 370 367 369
f 371 368 370
f 250 249 371
f 372 263 268
f 373 369 372
f 374 370 373
f 375 371 374
f 251 250 375
f 376 268 274
f 377 372 376
f 378 373 377
f 379 374 378
f 380 375 379
f 252 251 380
f 381 274 281
f 382 376 381
f 383 377 382
f 384 378 383
f 385 379 384
f 386 380 385
f 253 252 386
f 247 254 366
f 366 256 367
f 248 366 368
f 367 259 369
f 368 367 370
f 249 368 371
f 369 263 372
f 370 369 373
f 371 370 374
f 250 371 375
f 372 268 376
f 373 372 377
f 374 373 378
f 375 374 379
f 251 375 380
f 376 274 381
f 377 376 382
f 378 377 383
f 379 378 384
f 380 379 385
f 252 380 386
f 389 387 388
f 391 388 390
f 392 389 391
f 394 390 393
f 395 391 394
f 396 392 395
f 398 393 397
f 399 394 398
f 400 395 399
f 401 396 400
f 403 397 402
f 404 398 403
f 405 399 404
f 406 400 405
f 407 401 406
f 409 402 408
f 410 403 409
f 411 404 410
f 412 405 411
f 413 406 412
f 414 407 413
f 302 408 281
f 301 409 302
f 300 410 301
f 299 411 300
f 298 412 299
f 297 413 298
f 169 414 297
f 389 388 391
f 391 390 394
f 392 391 395
f 394 393 398
f 395 394 399
f 396 395 400
f 398 397 403
f 399 398 404
f 400 399 405
f 401 400 406
f 403 402 409
f 404 403 410
f 405 404 411
f 406 405 412
f 407 406 413
f 409 408 302
f 410 409 301
f 411 410 300
f 412 411 299
f 413 412 298
f 414 413 297
f 388 387 415
f 417 415 416
f 390 388 417
f 419 416 418
f 420 417 419
f 393 390 420
f 422 418 421
f 423 419 422
f 424 420 423
f 397 393 424
f 426 421 425
f 427 422 426
f 428 423 427
f 429 424 428
f 402 397 429
f 431 425 430
f 432 426 431
f 433 427 432
f 434 428 433
f 435 429 434
f 408 402 435
f 386 430 253
f 385 431 386
f 384 432 385
f 383 433 384
f 382 434 383
f 381 435 382
f 281 408 381
f 388 415 417
f 417 416 419
f 390 417 420
f 419 418 422
f 420 419 423
f 393 420 424
f 422 421 426
f 423 422 427
f 424 423 428
f 397 424 429
f 426 425 431
f 427 426 432
f 428 427 433
f 429 428 434
f 402 429 435
f 431 430 386
f 432 431 385
f 433 432 384
f 434 433 383
f 435 434 382
f 408 435 381
f 415 387 436
f 438 436 437
f 416 415 438
f 440 437 439
f 441 438 440
f 418 416 441
f 443 439 442
f 444 440 443
f 445 441 444
f 421 418 445
f 447 442 446
f 448 443 447
f 449 444 448
f 450 445 449
f 425 421 450
f 452 446 451
f 453 447 452
f 454 448 453
f 455 449 454
f 456 450 455
f 430 425 456
f 365 451 225
f 364 452 365
f 363 453 364
f 362 454 363
f 361 455 362
f 360 456 361
f 253 430 360
f 415 436 438
f 438 437 440
f 416 438 441
f 440 439 443
f 441 440 444
f 418 441 445
f 443 442 447
f 444 443 448
f 445 444 449
f 421 445 450
f 447 446 452
f 448 447 453
f 449 448 454
f 450 449 455
f 425 450 456
f 452 451 365
f 453 452 364
f 454 453 363
f 455 454 362
f 456 455 361
f 430 456 360
f 436 387 457
f 459 457 458
f 437 436 459
f 461 458 460
f 462 459 461
f 439 437 462
f 464 460 463
f 465 461 464
f 466 462 465
f 442 439 466
f 468 463 467
f 469 464 468
f 470 465 469
f 471 466 470
f 446 442 471
f 473 467 472
f 474 468 473
f 475 469 474
f 476 470 475
f 477 471 476
f 451 446 477
f 344 472 197
f 343 473 344
f 342 474 343
f 341 475 342
f 340 476 341
f 339 477 340
f 225 451 339
f 436 457 459
f 459 458 461
f 437 459 462
f 461 460 464
f 462 461 465
f 439 462 466
f 464 463 468
f 465 464 469
f 466 465 470
f 442 466 471
f 468 467 473
f 469 468 474
f 470 469 475
f 471 470 476
f 446 471 477
f 473 472 344
f 474 473 343
f 475 474 342
f 476 475 341
f 477 476 340
f 451 477 339
f 457 387 389
f 478 389 392
f 458 457 478
f 479 392 396
f 480 478 479
f 460 458 480
f 481 396 401
f 482 479 481
f 483 480 482
f 463 460 483
f 484 401 407
f 485 481 484
f 486 482 485
f 487 483 486
f 467 463 487
f 488 407 414
f 489 484 488
f 490 485 489
f 491 486 490
f 492 487 491
f 472 467 492
f 323 414 169
f 322 488 323
f 321 489 322
f 320 490 321
f 319 491 320
f 318 492 319
f 197 472 318
f 457 389 478
f 478 392 479
f 458 478 480
f 479 396 481
f 480 479 482
f 460 480 483
f 481 401 484
f 482 481 485
f 483 482 486
f 463 483 487
f 484 407 488
f 485 484 489
f 486 485 490
f 487 486 491
f 467 487 492
f 488 414 323
f 489 488 322
f 490 489 321
f 491 490 320
f 492 491 319
f 472 492 318
