# File exported by Houdini 20.5.445 (www.sidefx.com)
# 492 points
# 2940 vertices
# 980 primitives
# Bounds: [-227.988617, -59.5729065, -1090.84204] to [398.762543, 175.950012, -663.958984]
g 
v 85.3869324 58.1885605 -1090.84204
v 85.3869324 76.8167496 -1088.17773
v 132.476532 63.9449997 -1088.17773
v 85.3869324 94.9800262 -1080.25195
v 135.107208 83.9355011 -1082.96948
v 178.390717 69.5577698 -1080.25195
v 85.3869324 112.224907 -1067.26208
v 136.652496 102.484245 -1072.22156
v 181.518463 90.2202911 -1072.22156
v 221.983368 74.8867416 -1067.26208
v 85.3869324 128.120789 -1049.53235
v 137.161835 119.518044 -1056.48511
v 182.985748 108.728691 -1058.63757
v 224.420197 95.6662827 -1056.48511
v 262.166046 79.798851 -1049.53235
v 85.3869324 142.270935 -1027.50574
v 136.652496 134.935028 -1036.02759
v 182.985809 125.40995 -1040.03198
v 225.153656 113.883492 -1040.03198
v 263.549652 100.248161 -1036.02759
v 297.935577 84.171463 -1027.50574
v 85.3869324 154.321991 -1001.73193
v 135.107269 148.557037 -1010.89343
v 181.518463 140.419678 -1016.23145
v 224.420197 130.184937 -1017.98462
v 263.549652 117.996742 -1016.23145
v 298.461578 103.904678 -1010.89343
v 328.399078 87.8954697 -1001.73193
v 85.3869324 163.973145 -972.85437
v 132.476532 160.07843 -980.954834
v 178.390839 153.640137 -986.470093
v 221.983368 144.81897 -989.262573
v 262.166046 133.835175 -989.262573
v 297.935577 120.962959 -986.470093
v 328.399078 106.523659 -980.954834
v 352.795868 90.8778381 -972.85437
v 114.489899 43.1180115 -1088.17773
v 165.836151 48.3541031 -1082.96948
v 142.866486 28.4236412 -1080.25195
v 213.202301 53.5331039 -1072.2218
v 196.065033 33.6895714 -1072.2218
v 169.808197 14.4722652 -1067.26208
v 256.418793 58.6145782 -1056.48511
v 243.305084 38.8839493 -1058.63757
v 223.089142 20.0215683 -1056.48523
v 194.642426 1.61218834 -1049.53235
v 295.23349 63.5609589 -1036.02759
v 285.473114 44.0387764 -1040.03198
v 269.366425 25.3885422 -1040.03198
v 246.763092 7.43632317 -1036.02759
v 216.749298 -9.83551407 -1027.50574
v 329.19046 68.3232803 -1010.89343
v 322.962311 49.2020683 -1016.23145
v 310.347565 30.6884193 -1017.98462
v 291.62912 12.9209518 -1016.23145
v 266.794647 -3.92582321 -1010.89343
v 235.576691 -19.5850029 -1001.73193
v 357.502106 72.8249207 -980.954834
v 355.415192 54.4065475 -986.470093
v 346.587372 36.0825348 -989.262573
v 331.238983 18.3103294 -989.262573
v 309.753082 1.53369141 -986.470093
v 282.666351 -13.8285789 -980.954834
v 250.654816 -27.3929672 -972.85437
v 56.2840271 43.1180115 -1088.17773
v 85.3869324 26.3635941 -1082.96948
v 27.9074707 28.4236412 -1080.25195
v 113.115753 11.0156193 -1072.2218
v 57.6582336 11.0156193 -1072.2218
v 0.96572876 14.4722652 -1067.26208
v 139.315582 -2.87763214 -1056.48511
v 85.3869324 -4.28244591 -1058.63757
v 31.458313 -2.87763214 -1056.48511
v -23.8685303 1.61218834 -1049.53235
v 163.81369 -15.2375908 -1036.02759
v 111.448151 -17.7778893 -1040.03198
v 59.3257751 -17.7778893 -1040.03198
v 6.96020508 -15.2376289 -1036.02759
v -45.9753418 -9.83551407 -1027.50574
v 186.34549 -25.9163132 -1010.89343
v 136.08493 -29.5965462 -1016.23145
v 85.3869324 -30.803833 -1017.98462
v 34.6889343 -29.5965462 -1016.23145
v -15.5716248 -25.9163132 -1010.89343
v -64.8028259 -19.5850029 -1001.73193
v 206.473785 -34.655571 -980.954834
v 159.269745 -39.6004181 -986.470093
v 110.221222 -42.104126 -989.262573
v 60.5527039 -42.104126 -989.262573
v 11.5041809 -39.6004181 -986.470093
v -35.6998596 -34.655571 -980.954834
v -79.8808594 -27.3929672 -972.85437
v 38.2973633 63.9449997 -1088.17773
v 4.93780518 48.3541031 -1082.96948
v -7.61682129 69.5577698 -1080.25195
v -25.2910767 33.6895714 -1072.2218
v -42.4283752 53.5331039 -1072.2218
v -51.2094727 74.8867416 -1067.26208
v -52.3152161 20.0215683 -1056.48523
v -72.53125 38.8839493 -1058.63757
v -85.644928 58.6145782 -1056.48511
v -91.3921509 79.798851 -1049.53235
v -75.9891663 7.43632317 -1036.02759
v -98.5924683 25.3885422 -1040.03198
v -114.699127 44.0387764 -1040.03198
v -124.459564 63.5609589 -1036.02759
v -127.161713 84.171463 -1027.50574
v -96.0207825 -3.92582321 -1010.89343
v -120.855225 12.9209518 -1016.23145
v -139.573639 30.6884193 -1017.98462
v -152.188293 49.2020683 -1016.23145
v -158.416626 68.3232803 -1010.89343
v -157.625153 87.8954697 -1001.73193
v -111.892395 -13.8285789 -980.954834
v -138.979248 1.53369141 -986.470093
v -160.465088 18.3103294 -989.262573
v -175.813507 36.0825348 -989.262573
v -184.641296 54.4065475 -986.470093
v -186.728149 72.8249207 -980.954834
v -182.021973 90.8778381 -972.85437
v 35.666687 83.9355011 -1082.96948
v -10.7445679 90.2202911 -1072.22156
v 34.12146 102.484245 -1072.22156
v -53.6463013 95.6662827 -1056.48511
v -12.211853 108.728691 -1058.63757
v 33.6120911 119.518044 -1056.48511
v -92.7756958 100.248161 -1036.02759
v -54.3797607 113.883492 -1040.03198
v -12.211853 125.40995 -1040.03198
v 34.12146 134.935028 -1036.02759
v -127.687744 103.904678 -1010.89343
v -92.7756958 117.996742 -1016.23145
v -53.6463013 130.184937 -1017.98462
v -10.7445679 140.419678 -1016.23145
v 35.6665955 148.557037 -1010.89343
v -157.625153 106.523659 -980.954834
v -127.161713 120.962959 -986.470093
v -91.3921509 133.835175 -989.262573
v -51.2094727 144.81897 -989.262573
v -7.61688232 153.640137 -986.470093
v 38.2973633 160.07843 -980.954834
v 56.2840271 169.392517 -947.33667
v 4.93777466 164.469513 -953.459229
v 27.9074707 172.035858 -920.072998
v -42.4283752 156.82666 -957.012451
v -25.2910767 165.700958 -924.981812
v 0.96572876 171.837097 -891.744019
v -85.6448669 146.754944 -958.177246
v -72.5311584 156.645416 -927.291382
v -52.3151245 164.014221 -895.881958
v -23.8685303 168.801239 -863.057007
v -124.459534 134.403717 -957.012451
v -114.699097 145.118958 -927.291382
v -98.5923767 153.459564 -897.187012
v -75.9891357 159.503387 -866.418579
v -45.9753113 163.004089 -834.727905
v -158.416565 119.817177 -953.459229
v -152.188202 131.014069 -924.981812
v -139.573486 140.162445 -895.881958
v -120.855103 147.23941 -866.418579
v -96.0206909 152.127899 -836.837769
v -64.8028259 154.590332 -807.464233
v -186.728088 102.966003 -947.33667
v -184.641205 113.936394 -920.072998
v -175.813416 123.515144 -891.744019
v -160.464996 131.463074 -863.057007
v -138.979156 137.581818 -834.727905
v -111.892365 141.718567 -807.464233
v -79.8808594 143.770111 -781.946655
v -204.714737 82.1390152 -947.33667
v -208.136932 62.2452469 -953.459229
v -220.165543 72.802269 -920.072998
v -203.453827 42.9351349 -957.012451
v -220.59108 51.8094101 -924.981812
v -227.988617 63.1006699 -891.744019
v -191.34845 24.3592453 -958.177246
v -212.297913 32.1078568 -927.291382
v -224.678131 41.6185188 -895.881958
v -227.988617 53.2764359 -863.057007
v -172.120667 6.65402412 -957.012451
v -196.191162 13.4576244 -927.291382
v -212.297913 21.7982445 -897.187012
v -220.591049 31.7536926 -866.418579
v -220.165543 43.5748444 -834.727905
v -145.74115 -10.0038719 -953.459229
v -172.120667 -4.3151989 -924.981812
v -191.348358 3.02550697 -895.881958
v -203.453766 11.910181 -866.418579
v -208.136932 22.3068695 -836.837769
v -204.714737 34.2380753 -807.464233
v -111.892365 -25.3414574 -947.33667
v -138.979156 -21.2047157 -920.072998
v -160.464996 -15.0859528 -891.744019
v -175.813416 -7.13803864 -863.057007
v -184.641205 2.44070244 -834.727905
v -186.728088 13.4111195 -807.464233
v -182.021973 25.4992523 -781.946655
v -64.8028259 -38.2132301 -947.33667
v -15.5715637 -45.5852356 -953.459229
v -45.9753113 -46.6269531 -920.072998
v 34.6889343 -49.8767395 -957.012451
v 6.9602356 -53.2663879 -924.981812
v -23.8685303 -52.4241257 -891.744019
v 85.3869324 -51.2854614 -958.177246
v 59.3257751 -56.387085 -927.291382
v 31.458313 -57.8779602 -895.881958
v 0.96572876 -55.4599762 -863.057007
v 136.08493 -49.8767395 -957.012451
v 111.448151 -56.387085 -927.291382
v 85.3869324 -59.5729065 -897.187012
v 57.6582336 -59.4638977 -866.418579
v 27.9074707 -55.6587448 -834.727905
v 186.34549 -45.5852356 -953.459229
v 163.81369 -53.2663879 -924.981812
v 139.315582 -57.8779602 -895.881958
v 113.115753 -59.4638977 -866.418579
v 85.3869324 -57.9268188 -836.837769
v 56.2840271 -53.0153809 -807.464233
v 235.576691 -38.2132301 -947.33667
v 216.749298 -46.6269531 -920.072998
v 194.642426 -52.4241257 -891.744019
v 169.808197 -55.4599762 -863.057007
v 142.866486 -55.6587448 -834.727905
v 114.489899 -53.0153809 -807.464233
v 85.3869324 -47.5960388 -781.946655
v 282.66629 -25.3414574 -947.33667
v 316.514984 -10.0038719 -953.459229
v 309.753082 -21.2047157 -920.072998
v 342.894623 6.65402412 -957.012451
v 342.894623 -4.3151989 -924.981812
v 331.238861 -15.0859528 -891.744019
v 362.122467 24.3592453 -958.177246
v 366.965057 13.4576244 -927.291382
v 362.122162 3.02550697 -895.881958
v 346.58725 -7.13803864 -863.057007
v 374.227814 42.9351349 -957.012451
v 383.071808 32.1078568 -927.291382
v 383.071808 21.7982445 -897.187012
v 374.227631 11.910181 -866.418579
v 355.41507 2.44070244 -834.727905
v 378.910858 62.2452469 -953.459229
v 391.36496 51.8094101 -924.981812
v 395.452118 41.6185188 -895.881958
v 391.36496 31.7536926 -866.418579
v 378.910858 22.3068695 -836.837769
v 357.501923 13.4111195 -807.464233
v 375.488678 82.1390152 -947.33667
v 390.939362 72.802269 -920.072998
v 398.762543 63.1006699 -891.744019
v 398.762543 53.2764359 -863.057007
v 390.939362 43.5748444 -834.727905
v 375.488678 34.2380753 -807.464233
v 352.795868 25.4992523 -781.946655
v 357.501923 102.966003 -947.33667
v 329.19046 119.817177 -953.459229
v 355.41507 113.936394 -920.072998
v 295.233429 134.403717 -957.012451
v 322.962006 131.014069 -924.981812
v 346.58725 123.515144 -891.744019
v 256.418793 146.754944 -958.177246
v 285.472992 145.118958 -927.291382
v 310.347382 140.162445 -895.881958
v 331.238861 131.463074 -863.057007
v 213.202301 156.82666 -957.012451
v 243.305084 156.645416 -927.291382
v 269.366241 153.459564 -897.187012
v 291.629059 147.23941 -866.418579
v 309.753082 137.581818 -834.727905
v 165.836151 164.469513 -953.459229
v 196.065033 165.700958 -924.981812
v 223.08902 164.014221 -895.881958
v 246.763092 159.503387 -866.418579
v 266.794586 152.127899 -836.837769
v 282.66629 141.718567 -807.464233
v 114.489899 169.392517 -947.33667
v 142.866486 172.035858 -920.072998
v 169.808197 171.837097 -891.744019
v 194.642426 168.801239 -863.057007
v 216.749298 163.004089 -834.727905
v 235.576691 154.590332 -807.464233
v 250.654816 143.770111 -781.946655
v 85.3869324 174.303955 -917.963135
v 57.6582336 175.841034 -888.382568
v 113.115753 175.841034 -888.382568
v 31.458313 174.255035 -858.919067
v 85.3869324 175.950012 -857.614014
v 139.315582 174.255035 -858.919067
v 6.9602356 169.643494 -829.819092
v 59.3257751 172.764191 -827.509521
v 111.448151 172.764191 -827.509521
v 163.81369 169.643494 -829.819092
v -15.5715637 161.962341 -801.341675
v 34.6889343 166.253815 -797.788452
v 85.3869324 167.662598 -796.623779
v 136.08493 166.253815 -797.788452
v 186.34549 161.962341 -801.341675
v -35.6998596 151.032654 -773.846252
v 11.5041809 155.977539 -768.330872
v 60.5527039 158.481262 -765.538452
v 110.221222 158.481262 -765.538452
v 159.269745 155.977539 -768.330872
v 206.473785 151.032654 -773.846252
v -208.136932 94.0702286 -917.963135
v -220.591049 84.6234131 -888.382568
v -203.453766 104.466942 -888.382568
v -224.678131 74.7585907 -858.919067
v -212.297913 94.5788727 -857.614014
v -191.348358 113.351585 -858.919067
v -220.59108 64.5677185 -829.819092
v -212.297913 84.269249 -827.509521
v -196.191162 102.919472 -827.509521
v -172.120667 120.692329 -829.819092
v -208.136932 54.1318588 -801.341675
v -203.453827 73.4419861 -797.788452
v -191.34845 92.0178909 -796.623779
v -172.120667 109.723076 -797.788452
v -145.74115 126.380959 -801.341675
v -186.728149 43.5521889 -773.846252
v -184.641296 61.9705582 -768.330872
v -175.813507 80.2945862 -765.538391
v -160.465088 98.0667877 -765.538391
v -138.979248 114.843391 -768.330872
v -111.892395 130.205688 -773.846252
v -96.0206909 -35.7507782 -917.963135
v -75.9891357 -43.126297 -888.382568
v -120.855103 -30.8623161 -888.382568
v -52.3151245 -47.6371078 -858.919067
v -98.5923767 -37.0824471 -857.614014
v -139.573486 -23.7853279 -858.919067
v -25.2910767 -49.3238068 -829.819214
v -72.5311584 -40.2683105 -827.509521
v -114.699097 -28.7418671 -827.509521
v -152.188171 -14.6369324 -829.819214
v 4.93777466 -48.0924225 -801.341675
v -42.4283752 -40.4495544 -797.788574
v -85.6448669 -30.3778305 -796.623779
v -124.459534 -18.0266304 -797.788574
v -158.416534 -3.44007111 -801.341675
v 38.2973633 -43.7013321 -773.846252
v -7.61688232 -37.2630043 -768.330933
v -51.2094727 -28.4418449 -765.538452
v -91.3921509 -17.4580727 -765.538452
v -127.161713 -4.5858326 -768.330872
v -157.625153 9.85342789 -773.846252
v 266.794647 -35.7508125 -917.963135
v 291.629059 -30.8623161 -888.382568
v 246.763092 -43.126297 -888.382568
v 310.347382 -23.7853279 -858.919067
v 269.366241 -37.0824471 -857.614014
v 223.08902 -47.6371078 -858.919067
v 322.962006 -14.6369324 -829.819092
v 285.472992 -28.7418671 -827.509521
v 243.305084 -40.2683105 -827.509521
v 196.065033 -49.3238449 -829.819214
v 329.19046 -3.44007111 -801.341675
v 295.233429 -18.0266304 -797.788574
v 256.418793 -30.3778305 -796.623779
v 213.202301 -40.4495544 -797.788574
v 165.836151 -48.0924225 -801.341675
v 328.399078 9.85342789 -773.846252
v 297.935577 -4.5858326 -768.330872
v 262.166046 -17.4580727 -765.538452
v 221.983368 -28.4418449 -765.538452
v 178.390839 -37.2630043 -768.330933
v 132.476532 -43.7013321 -773.846252
v 378.910858 94.0702286 -917.963135
v 374.227814 104.466942 -888.382568
v 391.36496 84.6234131 -888.382568
v 362.122162 113.351585 -858.919067
v 383.071808 94.5788727 -857.614014
v 395.452118 74.7585907 -858.919067
v 342.894562 120.692329 -829.819092
v 366.965057 102.919472 -827.509521
v 383.071808 84.269249 -827.509521
v 391.36496 64.5677185 -829.819092
v 316.514984 126.380943 -801.341675
v 342.894623 109.723076 -797.788452
v 362.122467 92.0178909 -796.623779
v 374.227814 73.4419861 -797.788452
v 378.910858 54.1318588 -801.341675
v 282.666351 130.205688 -773.846252
v 309.753082 114.843391 -768.330872
v 331.238983 98.0667877 -765.538391
v 346.587372 80.2945862 -765.538391
v 355.415192 61.9705582 -768.330872
v 357.502106 43.5521889 -773.846252
v 85.3869324 58.1885605 -663.958984
v 114.489899 73.259079 -666.623108
v 56.2840271 73.259079 -666.623108
v 142.866486 87.9534683 -674.549011
v 85.3869324 90.0135193 -671.831421
v 27.9074707 87.9534683 -674.549011
v 169.808197 101.904869 -687.538879
v 113.115753 105.361465 -682.579224
v 57.6582336 105.361465 -682.579224
v 0.96572876 101.904869 -687.538879
v 194.642426 114.764915 -705.268494
v 139.315582 119.254753 -698.315796
v 85.3869324 120.659554 -696.163452
v 31.458313 119.254753 -698.315796
v -23.8685303 114.764915 -705.268494
v 216.749298 126.212608 -727.295227
v 163.81369 131.614716 -718.773438
v 111.448151 134.154999 -714.768982
v 59.3257751 134.154999 -714.768982
v 6.96020508 131.614746 -718.773438
v -45.9753418 126.212608 -727.295227
v 235.576691 135.962097 -753.069092
v 186.34549 142.293427 -743.907532
v 136.08493 145.973633 -738.569458
v 85.3869324 147.180939 -736.816406
v 34.6889343 145.973633 -738.569458
v -15.5716248 142.293427 -743.907593
v -64.8028259 135.962097 -753.069092
v 132.476532 52.432106 -666.623108
v 178.390717 46.8193398 -674.549011
v 165.836151 68.0230026 -671.831421
v 221.983368 41.4903679 -687.538879
v 213.202301 62.8440094 -682.579224
v 196.065033 82.6875381 -682.579224
v 262.166046 36.5782776 -705.268494
v 256.418793 57.7625275 -698.315796
v 243.305084 77.4931412 -696.163452
v 223.089142 96.355545 -698.315796
v 297.935577 32.2056427 -727.295227
v 295.23349 52.8161469 -718.773438
v 285.473114 72.338356 -714.768982
v 269.366425 90.9885635 -714.768982
v 246.763092 108.940796 -718.773438
v 328.399078 28.4816551 -753.069092
v 329.19046 48.0538292 -743.907532
v 322.962311 67.1750641 -738.569458
v 310.347565 85.6886749 -736.816406
v 291.62912 103.456161 -738.569458
v 266.794647 120.302925 -743.907532
v 85.3869324 39.5603561 -666.623108
v 85.3869324 21.3971062 -674.549011
v 135.107208 32.4416046 -671.831543
v 85.3869324 4.15223122 -687.538879
v 136.652496 13.892889 -682.579285
v 181.518463 26.1568336 -682.579285
v 85.3869324 -11.7436676 -705.268616
v 137.161835 -3.14095497 -698.315796
v 182.985748 7.64843559 -696.163452
v 224.420197 20.7108231 -698.315796
v 85.3869324 -25.8937988 -727.295227
v 136.652496 -18.5579071 -718.773438
v 182.985809 -9.03283691 -714.769043
v 225.153656 2.49361229 -714.769043
v 263.549652 16.1289692 -718.773438
v 85.3869324 -37.9448776 -753.069092
v 135.107269 -32.1799469 -743.907593
v 181.518463 -24.0425415 -738.569519
v 224.420197 -13.8078079 -736.816467
v 263.549652 -1.61964417 -738.569519
v 298.461578 12.4724407 -743.907593
v 38.2973633 52.432106 -666.623108
v -7.61682129 46.8193398 -674.549011
v 35.666687 32.4416046 -671.831543
v -51.2094727 41.4903679 -687.538879
v -10.7445679 26.1568336 -682.579285
v 34.12146 13.892889 -682.579285
v -91.3921509 36.5782776 -705.268494
v -53.6463013 20.7108231 -698.315796
v -12.211853 7.64843559 -696.163452
v 33.6120911 -3.14095497 -698.315796
v -127.161713 32.2056427 -727.295227
v -92.7756958 16.1289692 -718.773438
v -54.3797607 2.49361229 -714.769043
v -12.211853 -9.03283691 -714.769043
v 34.12146 -18.5579071 -718.773438
v -157.625153 28.4816551 -753.069092
v -127.687744 12.4724407 -743.907593
v -92.7756958 -1.61964417 -738.569519
v -53.6463013 -13.8078079 -736.816467
v -10.7445679 -24.0425415 -738.569519
v 35.6665955 -32.1799469 -743.907593
v 4.93780518 68.0230026 -671.831421
v -25.2910767 82.6875381 -682.579224
v -42.4283752 62.8440094 -682.579224
v -52.3152161 96.355545 -698.315796
v -72.53125 77.4931412 -696.163452
v -85.644928 57.7625275 -698.315796
v -75.9891663 108.940796 -718.773438
v -98.5924683 90.9885635 -714.768982
v -114.699127 72.338356 -714.768982
v -124.459564 52.8161469 -718.773438
v -96.0207825 120.302925 -743.907532
v -120.855225 103.456161 -738.569458
v -139.573639 85.6886749 -736.816406
v -152.188293 67.1750641 -738.569458
v -158.416626 48.0538292 -743.907532
g 
f 3 1 2
f 5 2 4
f 6 3 5
f 8 4 7
f 9 5 8
f 10 6 9
f 12 7 11
f 13 8 12
f 14 9 13
f 15 10 14
f 17 11 16
f 18 12 17
f 19 13 18
f 20 14 19
f 21 15 20
f 23 16 22
f 24 17 23
f 25 18 24
f 26 19 25
f 27 20 26
f 28 21 27
f 30 22 29
f 31 23 30
f 32 24 31
f 33 25 32
f 34 26 33
f 35 27 34
f 36 28 35
f 3 2 5
f 5 4 8
f 6 5 9
f 8 7 12
f 9 8 13
f 10 9 14
f 12 11 17
f 13 12 18
f 14 13 19
f 15 14 20
f 17 16 23
f 18 17 24
f 19 18 25
f 20 19 26
f 21 20 27
f 23 22 30
f 24 23 31
f 25 24 32
f 26 25 33
f 27 26 34
f 28 27 35
f 37 1 3
f 38 3 6
f 39 37 38
f 40 6 10
f 41 38 40
f 42 39 41
f 43 10 15
f 44 40 43
f 45 41 44
f 46 42 45
f 47 15 21
f 48 43 47
f 49 44 48
f 50 45 49
f 51 46 50
f 52 21 28
f 53 47 52
f 54 48 53
f 55 49 54
f 56 50 55
f 57 51 56
f 58 28 36
f 59 52 58
f 60 53 59
f 61 54 60
f 62 55 61
f 63 56 62
f 64 57 63
f 37 3 38
f 38 6 40
f 39 38 41
f 40 10 43
f 41 40 44
f 42 41 45
f 43 15 47
f 44 43 48
f 45 44 49
f 46 45 50
f 47 21 52
f 48 47 53
f 49 48 54
f 50 49 55
f 51 50 56
f 52 28 58
f 53 52 59
f 54 53 60
f 55 54 61
f 56 55 62
f 57 56 63
f 65 1 37
f 66 37 39
f 67 65 66
f 68 39 42
f 69 66 68
f 70 67 69
f 71 42 46
f 72 68 71
f 73 69 72
f 74 70 73
f 75 46 51
f 76 71 75
f 77 72 76
f 78 73 77
f 79 74 78
f 80 51 57
f 81 75 80
f 82 76 81
f 83 77 82
f 84 78 83
f 85 79 84
f 86 57 64
f 87 80 86
f 88 81 87
f 89 82 88
f 90 83 89
f 91 84 90
f 92 85 91
f 65 37 66
f 66 39 68
f 67 66 69
f 68 42 71
f 69 68 72
f 70 69 73
f 71 46 75
f 72 71 76
f 73 72 77
f 74 73 78
f 75 51 80
f 76 75 81
f 77 76 82
f 78 77 83
f 79 78 84
f 80 57 86
f 81 80 87
f 82 81 88
f 83 82 89
f 84 83 90
f 85 84 91
f 93 1 65
f 94 65 67
f 95 93 94
f 96 67 70
f 97 94 96
f 98 95 97
f 99 70 74
f 100 96 99
f 101 97 100
f 102 98 101
f 103 74 79
f 104 99 103
f 105 100 104
f 106 101 105
f 107 102 106
f 108 79 85
f 109 103 108
f 110 104 109
f 111 105 110
f 112 106 111
f 113 107 112
f 114 85 92
f 115 108 114
f 116 109 115
f 117 110 116
f 118 111 117
f 119 112 118
f 120 113 119
f 93 65 94
f 94 67 96
f 95 94 97
f 96 70 99
f 97 96 100
f 98 97 101
f 99 74 103
f 100 99 104
f 101 100 105
f 102 101 106
f 103 79 108
f 104 103 109
f 105 104 110
f 106 105 111
f 107 106 112
f 108 85 114
f 109 108 115
f 110 109 116
f 111 110 117
f 112 111 118
f 113 112 119
f 2 1 93
f 121 93 95
f 4 2 121
f 122 95 98
f 123 121 122
f 7 4 123
f 124 98 102
f 125 122 124
f 126 123 125
f 11 7 126
f 127 102 107
f 128 124 127
f 129 125 128
f 130 126 129
f 16 11 130
f 131 107 113
f 132 127 131
f 133 128 132
f 134 129 133
f 135 130 134
f 22 16 135
f 136 113 120
f 137 131 136
f 138 132 137
f 139 133 138
f 140 134 139
f 141 135 140
f 29 22 141
f 2 93 121
f 121 95 122
f 4 121 123
f 122 98 124
f 123 122 125
f 7 123 126
f 124 102 127
f 125 124 128
f 126 125 129
f 11 126 130
f 127 107 131
f 128 127 132
f 129 128 133
f 130 129 134
f 16 130 135
f 131 113 136
f 132 131 137
f 133 132 138
f 134 133 139
f 135 134 140
f 22 135 141
f 142 29 141
f 143 141 140
f 144 142 143
f 145 140 139
f 146 143 145
f 147 144 146
f 148 139 138
f 149 145 148
f 150 146 149
f 151 147 150
f 152 138 137
f 153 148 152
f 154 149 153
f 155 150 154
f 156 151 155
f 157 137 136
f 158 152 157
f 159 153 158
f 160 154 159
f 161 155 160
f 162 156 161
f 163 136 120
f 164 157 163
f 165 158 164
f 166 159 165
f 167 160 166
f 168 161 167
f 169 162 168
f 142 141 143
f 143 140 145
f 144 143 146
f 145 139 148
f 146 145 149
f 147 146 150
f 148 138 152
f 149 148 153
f 150 149 154
f 151 150 155
f 152 137 157
f 153 152 158
f 154 153 159
f 155 154 160
f 156 155 161
f 157 136 163
f 158 157 164
f 159 158 165
f 160 159 166
f 161 160 167
f 162 161 168
f 170 120 119
f 171 119 118
f 172 170 171
f 173 118 117
f 174 171 173
f 175 172 174
f 176 117 116
f 177 173 176
f 178 174 177
f 179 175 178
f 180 116 115
f 181 176 180
f 182 177 181
f 183 178 182
f 184 179 183
f 185 115 114
f 186 180 185
f 187 181 186
f 188 182 187
f 189 183 188
f 190 184 189
f 191 114 92
f 192 185 191
f 193 186 192
f 194 187 193
f 195 188 194
f 196 189 195
f 197 190 196
f 170 119 171
f 171 118 173
f 172 171 174
f 173 117 176
f 174 173 177
f 175 174 178
f 176 116 180
f 177 176 181
f 178 177 182
f 179 178 183
f 180 115 185
f 181 180 186
f 182 181 187
f 183 182 188
f 184 183 189
f 185 114 191
f 186 185 192
f 187 186 193
f 188 187 194
f 189 188 195
f 190 189 196
f 198 92 91
f 199 91 90
f 200 198 199
f 201 90 89
f 202 199 201
f 203 200 202
f 204 89 88
f 205 201 204
f 206 202 205
f 207 203 206
f 208 88 87
f 209 204 208
f 210 205 209
f 211 206 210
f 212 207 211
f 213 87 86
f 214 208 213
f 215 209 214
f 216 210 215
f 217 211 216
f 218 212 217
f 219 86 64
f 220 213 219
f 221 214 220
f 222 215 221
f 223 216 222
f 224 217 223
f 225 218 224
f 198 91 199
f 199 90 201
f 200 199 202
f 201 89 204
f 202 201 205
f 203 202 206
f 204 88 208
f 205 204 209
f 206 205 210
f 207 206 211
f 208 87 213
f 209 208 214
f 210 209 215
f 211 210 216
f 212 211 217
f 213 86 219
f 214 213 220
f 215 214 221
f 216 215 222
f 217 216 223
f 218 217 224
f 226 64 63
f 227 63 62
f 228 226 227
f 229 62 61
f 230 227 229
f 231 228 230
f 232 61 60
f 233 229 232
f 234 230 233
f 235 231 234
f 236 60 59
f 237 232 236
f 238 233 237
f 239 234 238
f 240 235 239
f 241 59 58
f 242 236 241
f 243 237 242
f 244 238 243
f 245 239 244
f 246 240 245
f 247 58 36
f 248 241 247
f 249 242 248
f 250 243 249
f 251 244 250
f 252 245 251
f 253 246 252
f 226 63 227
f 227 62 229
f 228 227 230
f 229 61 232
f 230 229 233
f 231 230 234
f 232 60 236
f 233 232 237
f 234 233 238
f 235 234 239
f 236 59 241
f 237 236 242
f 238 237 243
f 239 238 244
f 240 239 245
f 241 58 247
f 242 241 248
f 243 242 249
f 244 243 250
f 245 244 251
f 246 245 252
f 254 36 35
f 255 35 34
f 256 254 255
f 257 34 33
f 258 255 257
f 259 256 258
f 260 33 32
f 261 257 260
f 262 258 261
f 263 259 262
f 264 32 31
f 265 260 264
f 266 261 265
f 267 262 266
f 268 263 267
f 269 31 30
f 270 264 269
f 271 265 270
f 272 266 271
f 273 267 272
f 274 268 273
f 275 30 29
f 276 269 275
f 277 270 276
f 278 271 277
f 279 272 278
f 280 273 279
f 281 274 280
f 254 35 255
f 255 34 257
f 256 255 258
f 257 33 260
f 258 257 261
f 259 258 262
f 260 32 264
f 261 260 265
f 262 261 266
f 263 262 267
f 264 31 269
f 265 264 270
f 266 265 271
f 267 266 272
f 268 267 273
f 269 30 275
f 270 269 276
f 271 270 277
f 272 271 278
f 273 272 279
f 274 273 280
f 275 29 142
f 282 142 144
f 276 275 282
f 283 144 147
f 284 282 283
f 277 276 284
f 285 147 151
f 286 283 285
f 287 284 286
f 278 277 287
f 288 151 156
f 289 285 288
f 290 286 289
f 291 287 290
f 279 278 291
f 292 156 162
f 293 288 292
f 294 289 293
f 295 290 294
f 296 291 295
f 280 279 296
f 297 162 169
f 298 292 297
f 299 293 298
f 300 294 299
f 301 295 300
f 302 296 301
f 281 280 302
f 275 142 282
f 282 144 283
f 276 282 284
f 283 147 285
f 284 283 286
f 277 284 287
f 285 151 288
f 286 285 289
f 287 286 290
f 278 287 291
f 288 156 292
f 289 288 293
f 290 289 294
f 291 290 295
f 279 291 296
f 292 162 297
f 293 292 298
f 294 293 299
f 295 294 300
f 296 295 301
f 280 296 302
f 163 120 170
f 303 170 172
f 164 163 303
f 304 172 175
f 305 303 304
f 165 164 305
f 306 175 179
f 307 304 306
f 308 305 307
f 166 165 308
f 309 179 184
f 310 306 309
f 311 307 310
f 312 308 311
f 167 166 312
f 313 184 190
f 314 309 313
f 315 310 314
f 316 311 315
f 317 312 316
f 168 167 317
f 318 190 197
f 319 313 318
f 320 314 319
f 321 315 320
f 322 316 321
f 323 317 322
f 169 168 323
f 163 170 303
f 303 172 304
f 164 303 305
f 304 175 306
f 305 304 307
f 165 305 308
f 306 179 309
f 307 306 310
f 308 307 311
f 166 308 312
f 309 184 313
f 310 309 314
f 311 310 315
f 312 311 316
f 167 312 317
f 313 190 318
f 314 313 319
f 315 314 320
f 316 315 321
f 317 316 322
f 168 317 323
f 191 92 198
f 324 198 200
f 192 191 324
f 325 200 203
f 326 324 325
f 193 192 326
f 327 203 207
f 328 325 327
f 329 326 328
f 194 193 329
f 330 207 212
f 331 327 330
f 332 328 331
f 333 329 332
f 195 194 333
f 334 212 218
f 335 330 334
f 336 331 335
f 337 332 336
f 338 333 337
f 196 195 338
f 339 218 225
f 340 334 339
f 341 335 340
f 342 336 341
f 343 337 342
f 344 338 343
f 197 196 344
f 191 198 324
f 324 200 325
f 192 324 326
f 325 203 327
f 326 325 328
f 193 326 329
f 327 207 330
f 328 327 331
f 329 328 332
f 194 329 333
f 330 212 334
f 331 330 335
f 332 331 336
f 333 332 337
f 195 333 338
f 334 218 339
f 335 334 340
f 336 335 341
f 337 336 342
f 338 337 343
f 196 338 344
f 219 64 226
f 345 226 228
f 220 219 345
f 346 228 231
f 347 345 346
f 221 220 347
f 348 231 235
f 349 346 348
f 350 347 349
f 222 221 350
f 351 235 240
f 352 348 351
f 353 349 352
f 354 350 353
f 223 222 354
f 355 240 246
f 356 351 355
f 357 352 356
f 358 353 357
f 359 354 358
f 224 223 359
f 360 246 253
f 361 355 360
f 362 356 361
f 363 357 362
f 364 358 363
f 365 359 364
f 225 224 365
f 219 226 345
f 345 228 346
f 220 345 347
f 346 231 348
f 347 346 349
f 221 347 350
f 348 235 351
f 349 348 352
f 350 349 353
f 222 350 354
f 351 240 355
f 352 351 356
f 353 352 357
f 354 353 358
f 223 354 359
f 355 246 360
f 356 355 361
f 357 356 362
f 358 357 363
f 359 358 364
f 224 359 365
f 247 36 254
f 366 254 256
f 248 247 366
f 367 256 259
f 368 366 367
f 249 248 368
f 369 259 263
f 370 367 369
f 371 368 370
f 250 249 371
f 372 263 268
f 373 369 372
f 374 370 373
f 375 371 374
f 251 250 375
f 376 268 274
f 377 372 376
f 378 373 377
f 379 374 378
f 380 375 379
f 252 251 380
f 381 274 281
f 382 376 381
f 383 377 382
f 384 378 383
f 385 379 384
f 386 380 385
f 253 252 386
f 247 254 366
f 366 256 367
f 248 366 368
f 367 259 369
f 368 367 370
f 249 368 371
f 369 263 372
f 370 369 373
f 371 370 374
f 250 371 375
f 372 268 376
f 373 372 377
f 374 373 378
f 375 374 379
f 251 375 380
f 376 274 381
f 377 376 382
f 378 377 383
f 379 378 384
f 380 379 385
f 252 380 386
f 389 387 388
f 391 388 390
f 392 389 391
f 394 390 393
f 395 391 394
f 396 392 395
f 398 393 397
f 399 394 398
f 400 395 399
f 401 396 400
f 403 397 402
f 404 398 403
f 405 399 404
f 406 400 405
f 407 401 406
f 409 402 408
f 410 403 409
f 411 404 410
f 412 405 411
f 413 406 412
f 414 407 413
f 302 408 281
f 301 409 302
f 300 410 301
f 299 411 300
f 298 412 299
f 297 413 298
f 169 414 297
f 389 388 391
f 391 390 394
f 392 391 395
f 394 393 398
f 395 394 399
f 396 395 400
f 398 397 403
f 399 398 404
f 400 399 405
f 401 400 406
f 403 402 409
f 404 403 410
f 405 404 411
f 406 405 412
f 407 406 413
f 409 408 302
f 410 409 301
f 411 410 300
f 412 411 299
f 413 412 298
f 414 413 297
f 388 387 415
f 417 415 416
f 390 388 417
f 419 416 418
f 420 417 419
f 393 390 420
f 422 418 421
f 423 419 422
f 424 420 423
f 397 393 424
f 426 421 425
f 427 422 426
f 428 423 427
f 429 424 428
f 402 397 429
f 431 425 430
f 432 426 431
f 433 427 432
f 434 428 433
f 435 429 434
f 408 402 435
f 386 430 253
f 385 431 386
f 384 432 385
f 383 433 384
f 382 434 383
f 381 435 382
f 281 408 381
f 388 415 417
f 417 416 419
f 390 417 420
f 419 418 422
f 420 419 423
f 393 420 424
f 422 421 426
f 423 422 427
f 424 423 428
f 397 424 429
f 426 425 431
f 427 426 432
f 428 427 433
f 429 428 434
f 402 429 435
f 431 430 386
f 432 431 385
f 433 432 384
f 434 433 383
f 435 434 382
f 408 435 381
f 415 387 436
f 438 436 437
f 416 415 438
f 440 437 439
f 441 438 440
f 418 416 441
f 443 439 442
f 444 440 443
f 445 441 444
f 421 418 445
f 447 442 446
f 448 443 447
f 449 444 448
f 450 445 449
f 425 421 450
f 452 446 451
f 453 447 452
f 454 448 453
f 455 449 454
f 456 450 455
f 430 425 456
f 365 451 225
f 364 452 365
f 363 453 364
f 362 454 363
f 361 455 362
f 360 456 361
f 253 430 360
f 415 436 438
f 438 437 440
f 416 438 441
f 440 439 443
f 441 440 444
f 418 441 445
f 443 442 447
f 444 443 448
f 445 444 449
f 421 445 450
f 447 446 452
f 448 447 453
f 449 448 454
f 450 449 455
f 425 450 456
f 452 451 365
f 453 452 364
f 454 453 363
f 455 454 362
f 456 455 361
f 430 456 360
f 436 387 457
f 459 457 458
f 437 436 459
f 461 458 460
f 462 459 461
f 439 437 462
f 464 460 463
f 465 461 464
f 466 462 465
f 442 439 466
f 468 463 467
f 469 464 468
f 470 465 469
f 471 466 470
f 446 442 471
f 473 467 472
f 474 468 473
f 475 469 474
f 476 470 475
f 477 471 476
f 451 446 477
f 344 472 197
f 343 473 344
f 342 474 343
f 341 475 342
f 340 476 341
f 339 477 340
f 225 451 339
f 436 457 459
f 459 458 461
f 437 459 462
f 461 460 464
f 462 461 465
f 439 462 466
f 464 463 468
f 465 464 469
f 466 465 470
f 442 466 471
f 468 467 473
f 469 468 474
f 470 469 475
f 471 470 476
f 446 471 477
f 473 472 344
f 474 473 343
f 475 474 342
f 476 475 341
f 477 476 340
f 451 477 339
f 457 387 389
f 478 389 392
f 458 457 478
f 479 392 396
f 480 478 479
f 460 458 480
f 481 396 401
f 482 479 481
f 483 480 482
f 463 460 483
f 484 401 407
f 485 481 484
f 486 482 485
f 487 483 486
f 467 463 487
f 488 407 414
f 489 484 488
f 490 485 489
f 491 486 490
f 492 487 491
f 472 467 492
f 323 414 169
f 322 488 323
f 321 489 322
f 320 490 321
f 319 491 320
f 318 492 319
f 197 472 318
f 457 389 478
f 478 392 479
f 458 478 480
f 479 396 481
f 480 479 482
f 460 480 483
f 481 401 484
f 482 481 485
f 483 482 486
f 463 483 487
f 484 407 488
f 485 484 489
f 486 485 490
f 487 486 491
f 467 487 492
f 488 414 323
f 489 488 322
f 490 489 321
f 491 490 320
f 492 491 319
f 472 492 318
