# File exported by Houdini 20.5.445 (www.sidefx.com)
# 492 points
# 2940 vertices
# 980 primitives
# Bounds: [-214.606705, -78.8486786, -1069.00098] to [385.380615, 195.225784, -685.800049]
g 
v 85.3869324 58.1885452 -1069.00098
v 85.3869324 79.8659134 -1066.60962
v 130.465607 64.8872452 -1066.60962
v 85.3869324 101.002228 -1059.49438
v 132.984039 88.1498642 -1061.93384
v 174.419159 71.4187317 -1059.49438
v 85.3869324 121.069817 -1047.83398
v 134.463287 109.734772 -1052.28613
v 177.413361 95.4634018 -1052.28613
v 216.15036 77.619957 -1047.83398
v 85.3869324 139.567627 -1031.91846
v 134.950836 129.556747 -1038.15967
v 178.818024 117.001328 -1040.0918
v 218.483124 101.800804 -1038.15967
v 254.617218 83.3361053 -1031.91846
v 85.3869324 156.033905 -1012.14569
v 134.463287 147.497269 -1019.79547
v 178.818024 136.413071 -1023.3902
v 219.185272 122.999924 -1023.3902
v 255.941559 107.13266 -1019.79547
v 288.859222 88.4244766 -1012.14581
v 85.3869324 170.057556 -989.009338
v 132.984039 163.348984 -997.233337
v 177.413361 153.879639 -1002.02509
v 218.483124 141.96965 -1003.59882
v 255.941559 127.786453 -1002.02509
v 289.362823 111.387703 -997.233337
v 318.02182 92.7580414 -989.009338
v 85.3869324 181.288467 -963.086731
v 130.465607 176.756256 -970.358215
v 174.419281 169.264084 -975.309143
v 216.15036 158.999039 -977.815979
v 254.617218 146.217377 -977.815979
v 288.859222 131.23819 -975.309143
v 318.02182 114.435394 -970.358215
v 341.376923 96.2285843 -963.086731
v 113.247101 40.6511879 -1066.60962
v 162.400665 46.7443695 -1061.93384
v 140.411957 23.5515728 -1059.49438
v 207.744232 52.7710686 -1052.28613
v 191.338776 29.6794548 -1052.28613
v 166.203217 7.31657028 -1047.83398
v 249.115265 58.6843185 -1038.15967
v 236.561615 35.7240753 -1040.0918
v 217.208893 13.77421 -1038.15967
v 189.976959 -7.64850998 -1031.91846
v 286.272552 64.4403458 -1019.79547
v 276.928864 41.7226257 -1023.3902
v 261.509918 20.0196762 -1023.3902
v 239.871857 -0.871051788 -1019.79547
v 211.139801 -20.9700241 -1012.14581
v 318.779449 69.9821854 -997.233337
v 312.817108 47.7311134 -1002.02509
v 300.74118 26.1870613 -1003.59882
v 282.822052 5.51132965 -1002.02509
v 259.048065 -14.0930061 -997.233337
v 229.163177 -32.3153572 -989.009338
v 345.881958 75.220665 -970.358215
v 343.884277 53.7874832 -975.309265
v 335.433502 32.4641113 -977.815979
v 320.740448 11.7828636 -977.815979
v 300.172089 -7.73985672 -975.309265
v 274.242035 -25.6166992 -970.358215
v 243.597382 -41.4013672 -963.086731
v 57.5267944 40.6511879 -1066.60962
v 85.3869324 21.1543274 -1061.93384
v 30.3619385 23.5515728 -1059.49438
v 111.931549 3.2941227 -1052.28613
v 58.8423157 3.2941227 -1052.28613
v 4.57070923 7.31657028 -1047.83398
v 137.012665 -12.8732872 -1038.15967
v 85.3869324 -14.5080032 -1040.0918
v 33.7611694 -12.8732872 -1038.15967
v -19.2030945 -7.64850998 -1031.91846
v 160.46463 -27.25634 -1019.79547
v 110.335236 -30.2124481 -1023.3902
v 60.4386292 -30.2124481 -1023.3902
v 10.3091736 -27.2563858 -1019.79547
v -40.3659058 -20.9700241 -1012.14581
v 182.034332 -39.6830063 -997.233337
v 133.920013 -43.9656372 -1002.02509
v 85.3869324 -45.3705444 -1003.59882
v 36.8538818 -43.9656372 -1002.02509
v -11.260437 -39.6830063 -997.233337
v -58.3893433 -32.3153572 -989.009338
v 201.303009 -49.8527527 -970.358215
v 156.114777 -55.6069946 -975.309143
v 109.160736 -58.5205231 -977.815979
v 61.6131287 -58.5205231 -977.815979
v 14.6591492 -55.6069946 -975.309143
v -30.5291443 -49.8527527 -970.358215
v -72.8235168 -41.4013672 -963.086731
v 40.308197 64.8872452 -1066.60962
v 8.37316895 46.7443695 -1061.93384
v -3.64535522 71.4187317 -1059.49438
v -20.5649109 29.6794548 -1052.28613
v -36.9703979 52.7710686 -1052.28613
v -45.3764954 77.619957 -1047.83398
v -46.434967 13.77421 -1038.15967
v -65.7877197 35.7240753 -1040.0918
v -78.3414307 58.6843185 -1038.15967
v -83.8432922 83.3361053 -1031.91846
v -69.0980225 -0.871051788 -1019.79547
v -90.736084 20.0196762 -1023.3902
v -106.154968 41.7226257 -1023.3902
v -115.498596 64.4403458 -1019.79547
v -118.085388 88.4244766 -1012.14581
v -88.274231 -14.0930061 -997.233337
v -112.048157 5.51132965 -1002.02509
v -129.967255 26.1870613 -1003.59882
v -142.043243 47.7311134 -1002.02509
v -148.005615 69.9821854 -997.233337
v -147.247925 92.7580414 -989.009338
v -103.468109 -25.6166992 -970.358215
v -129.398193 -7.73985672 -975.309265
v -149.966583 11.7828636 -977.815979
v -164.659607 32.4641113 -977.815979
v -173.110413 53.7874832 -975.309265
v -175.10817 75.220665 -970.358215
v -170.602966 96.2285843 -963.086731
v 37.7898254 88.1498642 -1061.93384
v -6.63955688 95.4634018 -1052.28613
v 36.3106079 109.734772 -1052.28613
v -47.7092285 101.800804 -1038.15967
v -8.04412842 117.001328 -1040.0918
v 35.8230286 129.556747 -1038.15967
v -85.1677246 107.13266 -1019.79547
v -48.411377 122.999924 -1023.3902
v -8.04412842 136.413071 -1023.3902
v 36.3106079 147.497269 -1019.79547
v -118.588928 111.387703 -997.233337
v -85.1677246 127.786453 -1002.02509
v -47.7092285 141.96965 -1003.59882
v -6.63955688 153.879639 -1002.02509
v 37.7897644 163.348984 -997.233337
v -147.247894 114.435394 -970.358215
v -118.085388 131.23819 -975.309143
v -83.8432922 146.217377 -977.815979
v -45.3764954 158.999039 -977.815979
v -3.64538574 169.264084 -975.309143
v 40.308197 176.756256 -970.358215
v 57.5267944 187.594894 -940.180237
v 8.37313843 181.866089 -945.676331
v 30.3619385 190.670929 -915.70636
v -36.9703979 172.972214 -948.865906
v -20.5649109 183.299088 -920.112976
v 4.57070923 190.439636 -890.276306
v -78.3414307 161.251892 -949.911438
v -65.7876587 172.761292 -922.186096
v -46.4349365 181.336273 -893.990906
v -19.2030945 186.90686 -864.52478
v -115.498566 146.878983 -948.865906
v -106.154907 159.348129 -922.186096
v -90.7360229 169.054001 -895.162292
v -69.0979919 176.087082 -867.542297
v -40.3658447 180.160797 -839.094604
v -148.005554 129.904831 -945.676331
v -142.043182 142.934464 -920.112976
v -129.967102 153.580322 -893.990906
v -112.048065 161.815704 -867.542297
v -88.2741699 167.504318 -840.988525
v -58.3893433 170.369843 -814.620728
v -175.108109 110.29538 -940.180237
v -173.110336 123.061462 -915.70636
v -164.659485 134.208099 -890.276306
v -149.966492 143.457001 -864.52478
v -129.398163 150.577286 -839.094604
v -103.468079 155.391159 -814.620728
v -72.8235168 157.778458 -791.714233
v -192.32666 86.0593414 -940.180237
v -195.602753 62.9092712 -945.676331
v -207.117691 75.1943054 -915.70636
v -191.119629 40.438343 -948.865906
v -207.525055 50.765213 -920.112976
v -214.606705 63.9046936 -890.276306
v -179.531158 18.8218956 -949.911438
v -199.586044 27.8388367 -922.186096
v -211.437592 38.9062576 -893.990906
v -214.606705 52.472393 -864.52478
v -161.124496 -1.78140068 -948.865906
v -184.167114 6.13584518 -922.186096
v -199.586044 15.8416996 -895.162415
v -207.52504 27.4267044 -867.542297
v -207.117691 41.1828003 -839.094604
v -135.871368 -21.1659431 -945.676331
v -161.124496 -14.5461197 -920.112976
v -179.531082 -6.00385094 -893.990906
v -191.119537 4.33506775 -867.542297
v -195.602722 16.4335785 -840.988525
v -192.32666 30.3177452 -814.620728
v -103.468079 -39.0140572 -940.180237
v -129.398163 -34.2001953 -915.70636
v -149.966492 -27.0798798 -890.276306
v -164.659485 -17.8310165 -864.52478
v -173.110336 -6.68437958 -839.094604
v -175.108109 6.08172989 -814.620728
v -170.602966 20.1485043 -791.714233
v -58.3893433 -53.9927368 -940.180237
v -11.260437 -62.5714417 -945.676331
v -40.3658447 -63.7836609 -915.70636
v 36.8538818 -67.5653839 -948.865906
v 10.3091736 -71.5098801 -920.112976
v -19.2030945 -70.529747 -890.276306
v 85.3869324 -69.2047424 -949.911438
v 60.4386292 -75.1413727 -922.186096
v 33.7611694 -76.8762894 -893.990906
v 4.57070923 -74.0625229 -864.52478
v 133.920013 -67.5653839 -948.865906
v 110.335236 -75.1413727 -922.186096
v 85.3869324 -78.8486786 -895.162415
v 58.8423157 -78.7218323 -867.542297
v 30.3619385 -74.2938156 -839.094604
v 182.034332 -62.5714417 -945.676331
v 160.46463 -71.5098801 -920.112976
v 137.012665 -76.8762894 -893.990906
v 111.931549 -78.7218323 -867.542297
v 85.3869324 -76.9331436 -840.988525
v 57.5267944 -71.2178574 -814.62085
v 229.163177 -53.9927368 -940.180237
v 211.139801 -63.7836609 -915.70636
v 189.976959 -70.529747 -890.276306
v 166.203217 -74.0625229 -864.52478
v 140.411957 -74.2938156 -839.094604
v 113.247101 -71.2178574 -814.62085
v 85.3869324 -64.9113693 -791.714233
v 274.241913 -39.0140572 -940.180237
v 306.645233 -21.1659431 -945.676331
v 300.172028 -34.2001953 -915.70636
v 331.898346 -1.78140068 -948.865906
v 331.898346 -14.5461197 -920.112976
v 320.740387 -27.0798798 -890.276306
v 350.305054 18.8218956 -949.911438
v 354.940918 6.13584518 -922.186096
v 350.304932 -6.00385094 -893.990906
v 335.433319 -17.8310165 -864.52478
v 361.893555 40.438343 -948.865906
v 370.359985 27.8388367 -922.186096
v 370.359985 15.8416996 -895.162415
v 361.893433 4.33506775 -867.542297
v 343.884155 -6.68437958 -839.094604
v 366.376709 62.9092712 -945.676331
v 378.29895 50.765213 -920.112976
v 382.211426 38.9062576 -893.990906
v 378.29895 27.4267044 -867.542297
v 366.376587 16.4335785 -840.988525
v 345.881958 6.08172989 -814.620728
v 363.100464 86.0593414 -940.180237
v 377.891602 75.1943054 -915.70636
v 385.380615 63.9046936 -890.276306
v 385.380615 52.472393 -864.52478
v 377.891602 41.1828003 -839.094604
v 363.100464 30.3177452 -814.620728
v 341.376923 20.1485043 -791.714233
v 345.881958 110.29538 -940.180237
v 318.779449 129.904831 -945.676331
v 343.884155 123.061462 -915.70636
v 286.27243 146.878983 -948.865906
v 312.817047 142.934464 -920.112976
v 335.433319 134.208099 -890.276306
v 249.115265 161.251892 -949.911438
v 276.928802 159.348129 -922.186096
v 300.741058 153.580322 -893.990906
v 320.740387 143.457001 -864.52478
v 207.744232 172.972214 -948.865906
v 236.561615 172.761292 -922.186096
v 261.509857 169.054001 -895.162292
v 282.821991 161.815704 -867.542297
v 300.172028 150.577286 -839.094604
v 162.400665 181.866089 -945.676331
v 191.338776 183.299088 -920.112976
v 217.208832 181.336273 -893.990906
v 239.871857 176.087082 -867.542297
v 259.048065 167.504318 -840.988525
v 274.241913 155.391159 -814.620728
v 113.247101 187.594894 -940.180237
v 140.411957 190.670929 -915.70636
v 166.203217 190.439636 -890.276306
v 189.976959 186.90686 -864.52478
v 211.139801 180.160797 -839.094604
v 229.163177 170.369843 -814.620728
v 243.597382 157.778458 -791.714233
v 85.3869324 193.310257 -913.812439
v 58.8423157 195.098969 -887.25885
v 111.931549 195.098969 -887.25885
v 33.7611694 193.253342 -860.810181
v 85.3869324 195.225784 -859.638794
v 137.012665 193.253342 -860.810181
v 10.3091736 187.886993 -834.68811
v 60.4386292 191.518478 -832.614868
v 110.335236 191.518478 -832.614868
v 160.46463 187.886993 -834.68811
v -11.260437 178.948532 -809.124634
v 36.8538818 183.942474 -805.935181
v 85.3869324 185.581818 -804.889526
v 133.920013 183.942474 -805.935181
v 182.034332 178.948532 -809.124634
v -30.5291443 166.229828 -784.442749
v 14.6591492 171.984116 -779.491821
v 61.6131287 174.897644 -776.985107
v 109.160736 174.897644 -776.985107
v 156.114777 171.984116 -779.491821
v 201.303009 166.229828 -784.442749
v -195.602722 99.943512 -913.812439
v -207.52504 88.9504013 -887.25885
v -191.119537 112.042015 -887.25885
v -211.437592 77.4708328 -860.810181
v -199.586044 100.535408 -859.638794
v -179.531082 122.380936 -860.810181
v -207.525055 65.6118698 -834.68811
v -199.586044 88.5382767 -832.614868
v -184.167114 110.241241 -832.614868
v -161.124466 130.923248 -834.68811
v -195.602753 53.4678345 -809.124634
v -191.119629 75.9387436 -805.935059
v -179.531158 97.5552368 -804.889526
v -161.124496 118.158516 -805.935059
v -135.871368 137.54303 -809.124634
v -175.10817 41.1564369 -784.442749
v -173.110413 62.5896225 -779.491821
v -164.659607 83.9130096 -776.985107
v -149.966583 104.594223 -776.985107
v -129.398193 124.116943 -779.491821
v -103.468109 141.993805 -784.442749
v -88.2741699 -51.1272278 -913.812439
v -69.0979919 -59.7100067 -887.25885
v -112.048065 -45.4385986 -887.25885
v -46.4349365 -64.9591675 -860.810181
v -90.7360229 -52.6769104 -859.638794
v -129.967102 -37.2032204 -860.810181
v -20.5649109 -66.9219971 -834.68811
v -65.7876587 -56.3842163 -832.614868
v -106.154907 -42.9710617 -832.614868
v -142.043152 -26.5573654 -834.68811
v 8.37313843 -65.4889679 -809.124756
v -36.9703674 -56.5951309 -805.935181
v -78.3414307 -44.8748016 -804.889526
v -115.498566 -30.5018997 -805.935181
v -148.005524 -13.5277443 -809.124756
v 40.308197 -60.3791656 -784.442749
v -3.64538574 -52.8869781 -779.491943
v -45.3764954 -42.621933 -776.985107
v -83.8432922 -29.8402824 -776.985107
v -118.085388 -14.8610954 -779.491943
v -147.247894 1.94169807 -784.442749
v 259.048065 -51.1272583 -913.812439
v 282.821991 -45.4385986 -887.25885
v 239.871857 -59.7100067 -887.25885
v 300.741058 -37.2032204 -860.810181
v 261.509857 -52.6769104 -859.638794
v 217.208832 -64.9591675 -860.810181
v 312.817047 -26.5573654 -834.68811
v 276.928802 -42.9710617 -832.614868
v 236.561615 -56.3842163 -832.614868
v 191.338776 -66.9219971 -834.68811
v 318.779388 -13.5277443 -809.124756
v 286.27243 -30.5018997 -805.935181
v 249.115265 -44.8748016 -804.889526
v 207.744232 -56.5951309 -805.935181
v 162.400665 -65.489006 -809.124756
v 318.02182 1.94169807 -784.442749
v 288.859222 -14.8610954 -779.491943
v 254.617218 -29.8402824 -776.985107
v 216.15036 -42.621933 -776.985107
v 174.419281 -52.8869781 -779.491943
v 130.465607 -60.3791656 -784.442749
v 366.376587 99.943512 -913.812439
v 361.893555 112.042015 -887.25885
v 378.29895 88.9504013 -887.25885
v 350.304932 122.380936 -860.810181
v 370.359985 100.535408 -859.638794
v 382.211426 77.4708328 -860.810181
v 331.898285 130.923248 -834.68811
v 354.940918 110.241241 -832.614868
v 370.359985 88.5382767 -832.614868
v 378.29895 65.6118698 -834.68811
v 306.645233 137.542999 -809.124634
v 331.898346 118.158516 -805.935059
v 350.305054 97.5552368 -804.889526
v 361.893555 75.9387436 -805.935059
v 366.376709 53.4678345 -809.124634
v 274.242035 141.993805 -784.442749
v 300.172089 124.116943 -779.491821
v 320.740448 104.594223 -776.985107
v 335.433502 83.9130096 -776.985107
v 343.884277 62.5896225 -779.491821
v 345.881958 41.1564369 -784.442749
v 85.3869324 58.1885452 -685.800049
v 113.247101 75.7258987 -688.191528
v 57.5267944 75.7258987 -688.191528
v 140.411957 92.8255157 -695.306519
v 85.3869324 95.2227783 -692.867065
v 30.3619385 92.8255157 -695.306519
v 166.203217 109.060539 -706.967163
v 111.931549 113.082962 -702.515015
v 58.8423157 113.082962 -702.515015
v 4.57070923 109.060539 -706.967163
v 189.976959 124.025604 -722.882568
v 137.012665 129.250366 -716.641235
v 85.3869324 130.885101 -714.709106
v 33.7611694 129.250366 -716.641235
v -19.2030945 124.025604 -722.882568
v 211.139801 137.347107 -742.655273
v 160.46463 143.633453 -735.005493
v 110.335236 146.589539 -731.410889
v 60.4386292 146.589539 -731.410889
v 10.3091736 143.633484 -735.005493
v -40.3659058 137.347107 -742.655273
v 229.163177 148.692459 -765.791748
v 182.034332 156.060135 -757.567749
v 133.920013 160.342728 -752.775879
v 85.3869324 161.747635 -751.202148
v 36.8538818 160.342728 -752.775879
v -11.260437 156.060135 -757.567749
v -58.3893433 148.692459 -765.791748
v 130.465607 51.4898605 -688.191528
v 174.419159 44.958374 -695.306519
v 162.400665 69.6327591 -692.867065
v 216.15036 38.7571259 -706.967163
v 207.744232 63.6060333 -702.515015
v 191.338776 86.6976547 -702.515015
v 254.617218 33.0409966 -722.882568
v 249.115265 57.6927872 -716.641235
v 236.561615 80.6530075 -714.709106
v 217.208893 102.602875 -716.641235
v 288.859222 27.9526291 -742.655273
v 286.272552 51.9367638 -735.005493
v 276.928864 74.6544571 -731.410889
v 261.509918 96.3574371 -731.410889
v 239.871857 117.248154 -735.005493
v 318.02182 23.6190414 -765.791748
v 318.779449 46.3949013 -757.567749
v 312.817108 68.6459885 -752.775879
v 300.74118 90.1900253 -751.202148
v 282.822052 110.865776 -752.775879
v 259.048065 130.470108 -757.567749
v 85.3869324 36.5111961 -688.191528
v 85.3869324 15.3748589 -695.306519
v 132.984039 28.2272186 -692.867065
v 85.3869324 -4.69273949 -706.967163
v 134.463287 6.64231491 -702.515015
v 177.413361 20.9137268 -702.515015
v 85.3869324 -23.1905136 -722.882568
v 134.950836 -13.1796684 -716.641235
v 178.818024 -0.624217987 -714.709106
v 218.483124 14.5762825 -716.641235
v 85.3869324 -39.6568146 -742.655273
v 134.463287 -31.1201859 -735.005493
v 178.818024 -20.035965 -731.410889
v 219.185272 -6.62280846 -731.410889
v 255.941559 9.24445057 -735.005493
v 85.3869324 -53.6804581 -765.791748
v 132.984039 -46.9719009 -757.567749
v 177.413361 -37.5025673 -752.775879
v 218.483124 -25.5925217 -751.202271
v 255.941559 -11.4093399 -752.775879
v 289.362823 4.98940277 -757.567749
v 40.308197 51.4898605 -688.191528
v -3.64535522 44.958374 -695.306519
v 37.7898254 28.2272186 -692.867065
v -45.3764954 38.7571259 -706.967163
v -6.63955688 20.9137268 -702.515015
v 36.3106079 6.64231491 -702.515015
v -83.8432922 33.0409966 -722.882568
v -47.7092285 14.5762825 -716.641235
v -8.04412842 -0.624217987 -714.709106
v 35.8230286 -13.1796684 -716.641235
v -118.085388 27.9526291 -742.655273
v -85.1677246 9.24445057 -735.005493
v -48.411377 -6.62280846 -731.410889
v -8.04412842 -20.035965 -731.410889
v 36.3106079 -31.1201859 -735.005615
v -147.247925 23.6190414 -765.791748
v -118.588928 4.98940277 -757.567749
v -85.1677246 -11.4093399 -752.775879
v -47.7092285 -25.5925217 -751.202271
v -6.63955688 -37.5025673 -752.775879
v 37.7897644 -46.9719009 -757.567749
v 8.37316895 69.6327591 -692.867065
v -20.5649109 86.6976547 -702.515015
v -36.9703979 63.6060333 -702.515015
v -46.434967 102.602875 -716.641235
v -65.7877197 80.6530075 -714.709106
v -78.3414307 57.6927872 -716.641235
v -69.0980225 117.248154 -735.005493
v -90.736084 96.3574371 -731.410889
v -106.154968 74.6544571 -731.410889
v -115.498596 51.9367638 -735.005493
v -88.274231 130.470108 -757.567627
v -112.048157 110.865776 -752.775879
v -129.967255 90.1900253 -751.202148
v -142.043243 68.6459885 -752.775879
v -148.005615 46.3949013 -757.567749
g 
f 3 1 2
f 5 2 4
f 6 3 5
f 8 4 7
f 9 5 8
f 10 6 9
f 12 7 11
f 13 8 12
f 14 9 13
f 15 10 14
f 17 11 16
f 18 12 17
f 19 13 18
f 20 14 19
f 21 15 20
f 23 16 22
f 24 17 23
f 25 18 24
f 26 19 25
f 27 20 26
f 28 21 27
f 30 22 29
f 31 23 30
f 32 24 31
f 33 25 32
f 34 26 33
f 35 27 34
f 36 28 35
f 3 2 5
f 5 4 8
f 6 5 9
f 8 7 12
f 9 8 13
f 10 9 14
f 12 11 17
f 13 12 18
f 14 13 19
f 15 14 20
f 17 16 23
f 18 17 24
f 19 18 25
f 20 19 26
f 21 20 27
f 23 22 30
f 24 23 31
f 25 24 32
f 26 25 33
f 27 26 34
f 28 27 35
f 37 1 3
f 38 3 6
f 39 37 38
f 40 6 10
f 41 38 40
f 42 39 41
f 43 10 15
f 44 40 43
f 45 41 44
f 46 42 45
f 47 15 21
f 48 43 47
f 49 44 48
f 50 45 49
f 51 46 50
f 52 21 28
f 53 47 52
f 54 48 53
f 55 49 54
f 56 50 55
f 57 51 56
f 58 28 36
f 59 52 58
f 60 53 59
f 61 54 60
f 62 55 61
f 63 56 62
f 64 57 63
f 37 3 38
f 38 6 40
f 39 38 41
f 40 10 43
f 41 40 44
f 42 41 45
f 43 15 47
f 44 43 48
f 45 44 49
f 46 45 50
f 47 21 52
f 48 47 53
f 49 48 54
f 50 49 55
f 51 50 56
f 52 28 58
f 53 52 59
f 54 53 60
f 55 54 61
f 56 55 62
f 57 56 63
f 65 1 37
f 66 37 39
f 67 65 66
f 68 39 42
f 69 66 68
f 70 67 69
f 71 42 46
f 72 68 71
f 73 69 72
f 74 70 73
f 75 46 51
f 76 71 75
f 77 72 76
f 78 73 77
f 79 74 78
f 80 51 57
f 81 75 80
f 82 76 81
f 83 77 82
f 84 78 83
f 85 79 84
f 86 57 64
f 87 80 86
f 88 81 87
f 89 82 88
f 90 83 89
f 91 84 90
f 92 85 91
f 65 37 66
f 66 39 68
f 67 66 69
f 68 42 71
f 69 68 72
f 70 69 73
f 71 46 75
f 72 71 76
f 73 72 77
f 74 73 78
f 75 51 80
f 76 75 81
f 77 76 82
f 78 77 83
f 79 78 84
f 80 57 86
f 81 80 87
f 82 81 88
f 83 82 89
f 84 83 90
f 85 84 91
f 93 1 65
f 94 65 67
f 95 93 94
f 96 67 70
f 97 94 96
f 98 95 97
f 99 70 74
f 100 96 99
f 101 97 100
f 102 98 101
f 103 74 79
f 104 99 103
f 105 100 104
f 106 101 105
f 107 102 106
f 108 79 85
f 109 103 108
f 110 104 109
f 111 105 110
f 112 106 111
f 113 107 112
f 114 85 92
f 115 108 114
f 116 109 115
f 117 110 116
f 118 111 117
f 119 112 118
f 120 113 119
f 93 65 94
f 94 67 96
f 95 94 97
f 96 70 99
f 97 96 100
f 98 97 101
f 99 74 103
f 100 99 104
f 101 100 105
f 102 101 106
f 103 79 108
f 104 103 109
f 105 104 110
f 106 105 111
f 107 106 112
f 108 85 114
f 109 108 115
f 110 109 116
f 111 110 117
f 112 111 118
f 113 112 119
f 2 1 93
f 121 93 95
f 4 2 121
f 122 95 98
f 123 121 122
f 7 4 123
f 124 98 102
f 125 122 124
f 126 123 125
f 11 7 126
f 127 102 107
f 128 124 127
f 129 125 128
f 130 126 129
f 16 11 130
f 131 107 113
f 132 127 131
f 133 128 132
f 134 129 133
f 135 130 134
f 22 16 135
f 136 113 120
f 137 131 136
f 138 132 137
f 139 133 138
f 140 134 139
f 141 135 140
f 29 22 141
f 2 93 121
f 121 95 122
f 4 121 123
f 122 98 124
f 123 122 125
f 7 123 126
f 124 102 127
f 125 124 128
f 126 125 129
f 11 126 130
f 127 107 131
f 128 127 132
f 129 128 133
f 130 129 134
f 16 130 135
f 131 113 136
f 132 131 137
f 133 132 138
f 134 133 139
f 135 134 140
f 22 135 141
f 142 29 141
f 143 141 140
f 144 142 143
f 145 140 139
f 146 143 145
f 147 144 146
f 148 139 138
f 149 145 148
f 150 146 149
f 151 147 150
f 152 138 137
f 153 148 152
f 154 149 153
f 155 150 154
f 156 151 155
f 157 137 136
f 158 152 157
f 159 153 158
f 160 154 159
f 161 155 160
f 162 156 161
f 163 136 120
f 164 157 163
f 165 158 164
f 166 159 165
f 167 160 166
f 168 161 167
f 169 162 168
f 142 141 143
f 143 140 145
f 144 143 146
f 145 139 148
f 146 145 149
f 147 146 150
f 148 138 152
f 149 148 153
f 150 149 154
f 151 150 155
f 152 137 157
f 153 152 158
f 154 153 159
f 155 154 160
f 156 155 161
f 157 136 163
f 158 157 164
f 159 158 165
f 160 159 166
f 161 160 167
f 162 161 168
f 170 120 119
f 171 119 118
f 172 170 171
f 173 118 117
f 174 171 173
f 175 172 174
f 176 117 116
f 177 173 176
f 178 174 177
f 179 175 178
f 180 116 115
f 181 176 180
f 182 177 181
f 183 178 182
f 184 179 183
f 185 115 114
f 186 180 185
f 187 181 186
f 188 182 187
f 189 183 188
f 190 184 189
f 191 114 92
f 192 185 191
f 193 186 192
f 194 187 193
f 195 188 194
f 196 189 195
f 197 190 196
f 170 119 171
f 171 118 173
f 172 171 174
f 173 117 176
f 174 173 177
f 175 174 178
f 176 116 180
f 177 176 181
f 178 177 182
f 179 178 183
f 180 115 185
f 181 180 186
f 182 181 187
f 183 182 188
f 184 183 189
f 185 114 191
f 186 185 192
f 187 186 193
f 188 187 194
f 189 188 195
f 190 189 196
f 198 92 91
f 199 91 90
f 200 198 199
f 201 90 89
f 202 199 201
f 203 200 202
f 204 89 88
f 205 201 204
f 206 202 205
f 207 203 206
f 208 88 87
f 209 204 208
f 210 205 209
f 211 206 210
f 212 207 211
f 213 87 86
f 214 208 213
f 215 209 214
f 216 210 215
f 217 211 216
f 218 212 217
f 219 86 64
f 220 213 219
f 221 214 220
f 222 215 221
f 223 216 222
f 224 217 223
f 225 218 224
f 198 91 199
f 199 90 201
f 200 199 202
f 201 89 204
f 202 201 205
f 203 202 206
f 204 88 208
f 205 204 209
f 206 205 210
f 207 206 211
f 208 87 213
f 209 208 214
f 210 209 215
f 211 210 216
f 212 211 217
f 213 86 219
f 214 213 220
f 215 214 221
f 216 215 222
f 217 216 223
f 218 217 224
f 226 64 63
f 227 63 62
f 228 226 227
f 229 62 61
f 230 227 229
f 231 228 230
f 232 61 60
f 233 229 232
f 234 230 233
f 235 231 234
f 236 60 59
f 237 232 236
f 238 233 237
f 239 234 238
f 240 235 239
f 241 59 58
f 242 236 241
f 243 237 242
f 244 238 243
f 245 239 244
f 246 240 245
f 247 58 36
f 248 241 247
f 249 242 248
f 250 243 249
f 251 244 250
f 252 245 251
f 253 246 252
f 226 63 227
f 227 62 229
f 228 227 230
f 229 61 232
f 230 229 233
f 231 230 234
f 232 60 236
f 233 232 237
f 234 233 238
f 235 234 239
f 236 59 241
f 237 236 242
f 238 237 243
f 239 238 244
f 240 239 245
f 241 58 247
f 242 241 248
f 243 242 249
f 244 243 250
f 245 244 251
f 246 245 252
f 254 36 35
f 255 35 34
f 256 254 255
f 257 34 33
f 258 255 257
f 259 256 258
f 260 33 32
f 261 257 260
f 262 258 261
f 263 259 262
f 264 32 31
f 265 260 264
f 266 261 265
f 267 262 266
f 268 263 267
f 269 31 30
f 270 264 269
f 271 265 270
f 272 266 271
f 273 267 272
f 274 268 273
f 275 30 29
f 276 269 275
f 277 270 276
f 278 271 277
f 279 272 278
f 280 273 279
f 281 274 280
f 254 35 255
f 255 34 257
f 256 255 258
f 257 33 260
f 258 257 261
f 259 258 262
f 260 32 264
f 261 260 265
f 262 261 266
f 263 262 267
f 264 31 269
f 265 264 270
f 266 265 271
f 267 266 272
f 268 267 273
f 269 30 275
f 270 269 276
f 271 270 277
f 272 271 278
f 273 272 279
f 274 273 280
f 275 29 142
f 282 142 144
f 276 275 282
f 283 144 147
f 284 282 283
f 277 276 284
f 285 147 151
f 286 283 285
f 287 284 286
f 278 277 287
f 288 151 156
f 289 285 288
f 290 286 289
f 291 287 290
f 279 278 291
f 292 156 162
f 293 288 292
f 294 289 293
f 295 290 294
f 296 291 295
f 280 279 296
f 297 162 169
f 298 292 297
f 299 293 298
f 300 294 299
f 301 295 300
f 302 296 301
f 281 280 302
f 275 142 282
f 282 144 283
f 276 282 284
f 283 147 285
f 284 283 286
f 277 284 287
f 285 151 288
f 286 285 289
f 287 286 290
f 278 287 291
f 288 156 292
f 289 288 293
f 290 289 294
f 291 290 295
f 279 291 296
f 292 162 297
f 293 292 298
f 294 293 299
f 295 294 300
f 296 295 301
f 280 296 302
f 163 120 170
f 303 170 172
f 164 163 303
f 304 172 175
f 305 303 304
f 165 164 305
f 306 175 179
f 307 304 306
f 308 305 307
f 166 165 308
f 309 179 184
f 310 306 309
f 311 307 310
f 312 308 311
f 167 166 312
f 313 184 190
f 314 309 313
f 315 310 314
f 316 311 315
f 317 312 316
f 168 167 317
f 318 190 197
f 319 313 318
f 320 314 319
f 321 315 320
f 322 316 321
f 323 317 322
f 169 168 323
f 163 170 303
f 303 172 304
f 164 303 305
f 304 175 306
f 305 304 307
f 165 305 308
f 306 179 309
f 307 306 310
f 308 307 311
f 166 308 312
f 309 184 313
f 310 309 314
f 311 310 315
f 312 311 316
f 167 312 317
f 313 190 318
f 314 313 319
f 315 314 320
f 316 315 321
f 317 316 322
f 168 317 323
f 191 92 198
f 324 198 200
f 192 191 324
f 325 200 203
f 326 324 325
f 193 192 326
f 327 203 207
f 328 325 327
f 329 326 328
f 194 193 329
f 330 207 212
f 331 327 330
f 332 328 331
f 333 329 332
f 195 194 333
f 334 212 218
f 335 330 334
f 336 331 335
f 337 332 336
f 338 333 337
f 196 195 338
f 339 218 225
f 340 334 339
f 341 335 340
f 342 336 341
f 343 337 342
f 344 338 343
f 197 196 344
f 191 198 324
f 324 200 325
f 192 324 326
f 325 203 327
f 326 325 328
f 193 326 329
f 327 207 330
f 328 327 331
f 329 328 332
f 194 329 333
f 330 212 334
f 331 330 335
f 332 331 336
f 333 332 337
f 195 333 338
f 334 218 339
f 335 334 340
f 336 335 341
f 337 336 342
f 338 337 343
f 196 338 344
f 219 64 226
f 345 226 228
f 220 219 345
f 346 228 231
f 347 345 346
f 221 220 347
f 348 231 235
f 349 346 348
f 350 347 349
f 222 221 350
f 351 235 240
f 352 348 351
f 353 349 352
f 354 350 353
f 223 222 354
f 355 240 246
f 356 351 355
f 357 352 356
f 358 353 357
f 359 354 358
f 224 223 359
f 360 246 253
f 361 355 360
f 362 356 361
f 363 357 362
f 364 358 363
f 365 359 364
f 225 224 365
f 219 226 345
f 345 228 346
f 220 345 347
f 346 231 348
f 347 346 349
f 221 347 350
f 348 235 351
f 349 348 352
f 350 349 353
f 222 350 354
f 351 240 355
f 352 351 356
f 353 352 357
f 354 353 358
f 223 354 359
f 355 246 360
f 356 355 361
f 357 356 362
f 358 357 363
f 359 358 364
f 224 359 365
f 247 36 254
f 366 254 256
f 248 247 366
f 367 256 259
f 368 366 367
f 249 248 368
f 369 259 263
f 370 367 369
f 371 368 370
f 250 249 371
f 372 263 268
f 373 369 372
f 374 370 373
f 375 371 374
f 251 250 375
f 376 268 274
f 377 372 376
f 378 373 377
f 379 374 378
f 380 375 379
f 252 251 380
f 381 274 281
f 382 376 381
f 383 377 382
f 384 378 383
f 385 379 384
f 386 380 385
f 253 252 386
f 247 254 366
f 366 256 367
f 248 366 368
f 367 259 369
f 368 367 370
f 249 368 371
f 369 263 372
f 370 369 373
f 371 370 374
f 250 371 375
f 372 268 376
f 373 372 377
f 374 373 378
f 375 374 379
f 251 375 380
f 376 274 381
f 377 376 382
f 378 377 383
f 379 378 384
f 380 379 385
f 252 380 386
f 389 387 388
f 391 388 390
f 392 389 391
f 394 390 393
f 395 391 394
f 396 392 395
f 398 393 397
f 399 394 398
f 400 395 399
f 401 396 400
f 403 397 402
f 404 398 403
f 405 399 404
f 406 400 405
f 407 401 406
f 409 402 408
f 410 403 409
f 411 404 410
f 412 405 411
f 413 406 412
f 414 407 413
f 302 408 281
f 301 409 302
f 300 410 301
f 299 411 300
f 298 412 299
f 297 413 298
f 169 414 297
f 389 388 391
f 391 390 394
f 392 391 395
f 394 393 398
f 395 394 399
f 396 395 400
f 398 397 403
f 399 398 404
f 400 399 405
f 401 400 406
f 403 402 409
f 404 403 410
f 405 404 411
f 406 405 412
f 407 406 413
f 409 408 302
f 410 409 301
f 411 410 300
f 412 411 299
f 413 412 298
f 414 413 297
f 388 387 415
f 417 415 416
f 390 388 417
f 419 416 418
f 420 417 419
f 393 390 420
f 422 418 421
f 423 419 422
f 424 420 423
f 397 393 424
f 426 421 425
f 427 422 426
f 428 423 427
f 429 424 428
f 402 397 429
f 431 425 430
f 432 426 431
f 433 427 432
f 434 428 433
f 435 429 434
f 408 402 435
f 386 430 253
f 385 431 386
f 384 432 385
f 383 433 384
f 382 434 383
f 381 435 382
f 281 408 381
f 388 415 417
f 417 416 419
f 390 417 420
f 419 418 422
f 420 419 423
f 393 420 424
f 422 421 426
f 423 422 427
f 424 423 428
f 397 424 429
f 426 425 431
f 427 426 432
f 428 427 433
f 429 428 434
f 402 429 435
f 431 430 386
f 432 431 385
f 433 432 384
f 434 433 383
f 435 434 382
f 408 435 381
f 415 387 436
f 438 436 437
f 416 415 438
f 440 437 439
f 441 438 440
f 418 416 441
f 443 439 442
f 444 440 443
f 445 441 444
f 421 418 445
f 447 442 446
f 448 443 447
f 449 444 448
f 450 445 449
f 425 421 450
f 452 446 451
f 453 447 452
f 454 448 453
f 455 449 454
f 456 450 455
f 430 425 456
f 365 451 225
f 364 452 365
f 363 453 364
f 362 454 363
f 361 455 362
f 360 456 361
f 253 430 360
f 415 436 438
f 438 437 440
f 416 438 441
f 440 439 443
f 441 440 444
f 418 441 445
f 443 442 447
f 444 443 448
f 445 444 449
f 421 445 450
f 447 446 452
f 448 447 453
f 449 448 454
f 450 449 455
f 425 450 456
f 452 451 365
f 453 452 364
f 454 453 363
f 455 454 362
f 456 455 361
f 430 456 360
f 436 387 457
f 459 457 458
f 437 436 459
f 461 458 460
f 462 459 461
f 439 437 462
f 464 460 463
f 465 461 464
f 466 462 465
f 442 439 466
f 468 463 467
f 469 464 468
f 470 465 469
f 471 466 470
f 446 442 471
f 473 467 472
f 474 468 473
f 475 469 474
f 476 470 475
f 477 471 476
f 451 446 477
f 344 472 197
f 343 473 344
f 342 474 343
f 341 475 342
f 340 476 341
f 339 477 340
f 225 451 339
f 436 457 459
f 459 458 461
f 437 459 462
f 461 460 464
f 462 461 465
f 439 462 466
f 464 463 468
f 465 464 469
f 466 465 470
f 442 466 471
f 468 467 473
f 469 468 474
f 470 469 475
f 471 470 476
f 446 471 477
f 473 472 344
f 474 473 343
f 475 474 342
f 476 475 341
f 477 476 340
f 451 477 339
f 457 387 389
f 478 389 392
f 458 457 478
f 479 392 396
f 480 478 479
f 460 458 480
f 481 396 401
f 482 479 481
f 483 480 482
f 463 460 483
f 484 401 407
f 485 481 484
f 486 482 485
f 487 483 486
f 467 463 487
f 488 407 414
f 489 484 488
f 490 485 489
f 491 486 490
f 492 487 491
f 472 467 492
f 323 414 169
f 322 488 323
f 321 489 322
f 320 490 321
f 319 491 320
f 318 492 319
f 197 472 318
f 457 389 478
f 478 392 479
f 458 478 480
f 479 396 481
f 480 479 482
f 460 480 483
f 481 401 484
f 482 481 485
f 483 482 486
f 463 483 487
f 484 407 488
f 485 484 489
f 486 485 490
f 487 486 491
f 467 487 492
f 488 414 323
f 489 488 322
f 490 489 321
f 491 490 320
f 492 491 319
f 472 492 318
