# File exported by Houdini 20.5.445 (www.sidefx.com)
# 492 points
# 2940 vertices
# 980 primitives
# Bounds: [-203.119949, -92.4382248, -1058.65503] to [373.89386, 208.815338, -696.146057]
g 
v 85.3869476 58.1885681 -1058.65503
v 85.3869476 82.0155869 -1056.39258
v 128.739563 65.5515671 -1056.39258
v 85.3869476 105.24791 -1049.66199
v 131.16156 91.1210632 -1051.96973
v 171.010254 72.7307358 -1049.66199
v 85.3869476 127.305557 -1038.63086
v 132.584229 114.846489 -1042.84253
v 173.889709 99.1598206 -1042.84253
v 211.143433 79.5469437 -1038.63086
v 85.3869476 147.637756 -1023.57495
v 133.053101 136.634109 -1029.47913
v 175.24054 122.833618 -1031.30688
v 213.386841 106.125725 -1029.47913
v 248.137329 85.8299179 -1023.57495
v 85.3869476 165.736938 -1004.86975
v 132.584229 156.35376 -1012.10645
v 175.24054 144.170364 -1015.50696
v 214.062134 129.427032 -1015.50696
v 249.411133 111.986298 -1012.10645
v 281.068359 91.4228821 -1004.86987
v 85.3869476 181.151276 -982.982788
v 131.16156 173.777405 -990.762573
v 173.889709 163.369019 -995.295776
v 213.386841 150.277908 -996.784424
v 249.411133 134.688232 -995.295776
v 281.552612 116.663315 -990.762573
v 309.114197 96.1861801 -982.982788
v 85.3869476 193.495911 -958.459961
v 128.739563 188.514191 -965.338745
v 171.010254 180.279083 -970.022339
v 211.143494 168.996094 -972.393677
v 248.137329 154.94693 -972.393677
v 281.068359 138.482285 -970.022339
v 309.114197 120.013206 -965.338745
v 331.575012 100.000877 -958.459961
v 112.180359 38.9120865 -1056.39258
v 159.451904 45.6094666 -1051.96973
v 138.305054 20.1167088 -1049.66199
v 203.059204 52.2338409 -1042.84253
v 187.281921 26.8523216 -1042.84253
v 163.108765 2.27177811 -1038.63086
v 242.84613 58.7335129 -1029.47913
v 230.773193 33.4963684 -1031.30688
v 212.161377 9.36975574 -1029.47913
v 185.972229 -14.1773453 -1023.57495
v 278.580566 65.0603256 -1012.10645
v 269.594788 40.0897751 -1015.50708
v 254.766235 16.2346115 -1015.50708
v 233.956726 -6.72778511 -1012.10645
v 206.324646 -28.81987 -1004.86987
v 309.842896 71.1517487 -990.762573
v 304.108826 46.6940613 -995.295776
v 292.495239 23.0135975 -996.784424
v 275.262207 0.28751564 -995.295776
v 252.398682 -21.2609253 -990.762573
v 223.65802 -41.290329 -982.982788
v 335.907715 76.9096985 -965.338745
v 333.986389 53.3510208 -970.022339
v 325.859192 29.9130802 -972.393799
v 311.72876 7.18098068 -972.393799
v 291.948059 -14.2777481 -970.022339
v 267.010742 -33.9273796 -965.338745
v 237.539551 -51.2773743 -958.459961
v 58.5935211 38.9120865 -1056.39258
v 85.3869476 17.4817352 -1051.96973
v 32.4688568 20.1167088 -1049.66199
v 110.915161 -2.14956474 -1042.84253
v 59.8587189 -2.14956474 -1042.84253
v 7.66514587 2.27177811 -1038.63086
v 135.036011 -19.9202003 -1029.47913
v 85.3869476 -21.7171249 -1031.30688
v 35.7379608 -19.9202003 -1029.47913
v -15.198288 -14.1773453 -1023.57495
v 157.590027 -35.7296219 -1012.10645
v 109.380005 -38.9788361 -1015.50708
v 61.3939056 -38.9788361 -1015.50708
v 13.1839142 -35.7296219 -1012.10645
v -35.550766 -28.81987 -1004.86987
v 178.33374 -49.3886032 -990.762573
v 132.061768 -54.0958939 -995.295776
v 85.3869476 -55.6401138 -996.784424
v 38.7121735 -54.0958939 -995.295776
v -7.55982971 -49.3886032 -990.762573
v -52.88414 -41.290329 -982.982788
v 196.864624 -60.5668564 -965.338745
v 153.406616 -66.891777 -970.022339
v 108.250427 -70.094223 -972.393799
v 62.5234833 -70.094223 -972.393799
v 17.3672943 -66.891777 -970.022339
v -26.0907135 -60.5668564 -965.338745
v -66.7656403 -51.2773743 -958.459961
v 42.0342865 65.5515671 -1056.39258
v 11.3220367 45.6094666 -1051.96973
v -0.236282349 72.7307358 -1049.66199
v -16.5079803 26.8523216 -1042.84253
v -32.2852936 52.2338409 -1042.84253
v -40.3695526 79.5469437 -1038.63086
v -41.3874969 9.36975574 -1029.47913
v -59.9992523 33.4963684 -1031.30688
v -72.0722504 58.7335129 -1029.47913
v -77.3634186 85.8299179 -1023.57495
v -63.182785 -6.72778511 -1012.10645
v -83.9923248 16.2346115 -1015.50708
v -98.8208466 40.0897751 -1015.50708
v -107.806717 65.0603256 -1012.10645
v -110.294388 91.4228821 -1004.86987
v -81.6247711 -21.2609253 -990.762573
v -104.488358 0.28751564 -995.295776
v -121.721329 23.0135975 -996.784424
v -133.33493 46.6940613 -995.295776
v -139.069 71.1517487 -990.762573
v -138.340347 96.1861801 -982.982788
v -96.2368317 -33.9273796 -965.338745
v -121.174118 -14.2777481 -970.022339
v -140.95491 7.18098068 -972.393799
v -155.085312 29.9130802 -972.393799
v -163.212555 53.3510208 -970.022339
v -165.133789 76.9096985 -965.338745
v -160.801102 100.000877 -958.459961
v 39.6123199 91.1210632 -1051.96973
v -3.11582947 99.1598206 -1042.84253
v 38.189743 114.846489 -1042.84253
v -42.6129608 106.125725 -1029.47913
v -4.46665955 122.833618 -1031.30688
v 37.7208099 136.634109 -1029.47913
v -78.6371918 111.986298 -1012.10645
v -43.2882233 129.427032 -1015.50696
v -4.46665955 144.170364 -1015.50696
v 38.1897125 156.35376 -1012.10632
v -110.778671 116.663315 -990.762573
v -78.6371918 134.688232 -995.295776
v -42.6129608 150.277908 -996.784424
v -3.11582947 163.369019 -995.295776
v 39.6122894 173.777405 -990.762573
v -138.340302 120.013206 -965.338745
v -110.294388 138.482285 -970.022339
v -77.3634186 154.94693 -972.393677
v -40.3695526 168.996094 -972.393677
v -0.236343384 180.279083 -970.022339
v 42.0342865 188.514191 -965.338745
v 58.5935211 200.427704 -936.790283
v 11.3220367 194.130798 -941.989624
v 32.4688568 203.808777 -913.638062
v -32.2852936 184.35495 -945.006958
v -16.5079803 195.705872 -917.80658
v 7.66514587 203.554565 -889.581116
v -72.0722504 171.472351 -945.996094
v -59.9991913 184.123108 -919.767883
v -41.3874664 193.548431 -893.094971
v -15.198288 199.671478 -865.21991
v -107.806656 155.674133 -945.006958
v -98.820755 169.379822 -919.767883
v -83.9922638 180.048187 -894.203247
v -63.182724 187.778687 -868.074524
v -35.550766 192.256378 -841.163025
v -139.068954 137.016708 -941.989624
v -133.334869 151.338486 -917.80658
v -121.721207 163.040009 -893.094971
v -104.488266 172.092072 -868.074524
v -81.6247101 178.344818 -842.954773
v -52.8841095 181.494446 -818.010681
v -165.133743 115.462662 -936.790283
v -163.212463 129.49469 -913.638062
v -155.085175 141.746719 -889.581116
v -140.954803 151.912827 -865.21991
v -121.174057 159.739197 -841.163025
v -96.2368011 165.030396 -818.010681
v -66.7656403 167.65448 -796.341125
v -181.693008 88.8232346 -936.790283
v -184.843643 63.3774185 -941.989624
v -195.917679 76.880722 -913.638062
v -180.532166 38.6781387 -945.006958
v -196.309464 50.0290985 -917.80658
v -203.119949 64.47155 -889.581116
v -169.387436 14.9180508 -945.996094
v -188.674423 24.8291302 -919.767883
v -200.072189 36.9941177 -893.094971
v -203.119949 51.9055405 -865.21991
v -151.685577 -7.72840881 -945.006958
v -173.845886 0.973964691 -919.767883
v -188.674423 11.6423178 -894.203247
v -196.309433 24.3761253 -868.074524
v -195.917679 39.4964218 -841.163025
v -127.399368 -29.0352631 -941.989624
v -151.685532 -21.7590179 -917.80658
v -169.38736 -12.369545 -893.094971
v -180.532089 -1.00539017 -868.074524
v -184.843613 12.2929363 -842.954773
v -181.693008 27.5539551 -818.010681
v -96.2368011 -48.6532745 -936.790283
v -121.174057 -43.3620377 -913.638062
v -140.954803 -35.5356674 -889.581116
v -155.085175 -25.3695755 -865.21991
v -163.212463 -13.1176033 -841.163025
v -165.133743 0.914480209 -818.010681
v -160.801102 16.3762627 -796.341125
v -52.8841095 -65.1173477 -936.790283
v -7.55979919 -74.5467682 -941.989624
v -35.550766 -75.8792572 -913.638062
v 38.7121735 -80.0359497 -945.006958
v 13.1839447 -84.3716049 -917.80658
v -15.198288 -83.2943268 -889.581116
v 85.3869476 -81.8379135 -945.996094
v 61.3939056 -88.3632355 -919.767883
v 35.7379608 -90.2701874 -893.094971
v 7.66514587 -87.1774368 -865.21991
v 132.061768 -80.0359497 -945.006958
v 109.380005 -88.3632355 -919.767883
v 85.3869476 -92.4382248 -894.203247
v 59.8587189 -92.2987976 -868.074524
v 32.4688568 -87.4316711 -841.163025
v 178.33374 -74.5467682 -941.989624
v 157.589905 -84.3716049 -917.80658
v 135.03595 -90.2701874 -893.094971
v 110.915161 -92.2987976 -868.074524
v 85.3869476 -90.3327713 -842.954773
v 58.5935211 -84.0505753 -818.010742
v 223.65802 -65.1173477 -936.790283
v 206.324646 -75.8792572 -913.638062
v 185.972229 -83.2943268 -889.581116
v 163.108765 -87.1774368 -865.21991
v 138.305054 -87.4316711 -841.163025
v 112.18042 -84.0505753 -818.010742
v 85.3869476 -77.1187439 -796.341125
v 267.010681 -48.6532745 -936.790283
v 298.173218 -29.0352631 -941.989624
v 291.947998 -43.3620377 -913.638062
v 322.459473 -7.72840881 -945.006958
v 322.459473 -21.7590179 -917.80658
v 311.728638 -35.5356674 -889.581116
v 340.161316 14.9180508 -945.996094
v 344.619751 0.973964691 -919.767883
v 340.161255 -12.369545 -893.094971
v 325.859009 -25.3695755 -865.21991
v 351.306091 38.6781387 -945.006958
v 359.448364 24.8291302 -919.767883
v 359.448364 11.6423178 -894.203247
v 351.305969 -1.00539017 -868.074524
v 333.986328 -13.1176033 -841.163025
v 355.617493 63.3774185 -941.989624
v 367.083374 50.0290985 -917.80658
v 370.846069 36.9941177 -893.094971
v 367.083374 24.3761253 -868.074524
v 355.617493 12.2929363 -842.954773
v 335.907593 0.914480209 -818.010681
v 352.466858 88.8232346 -936.790283
v 366.691528 76.880722 -913.638062
v 373.89386 64.47155 -889.581116
v 373.89386 51.9055405 -865.21991
v 366.691528 39.4964218 -841.163025
v 352.466858 27.5539551 -818.010681
v 331.575012 16.3762627 -796.341125
v 335.907593 115.462662 -936.790283
v 309.842834 137.016708 -941.989624
v 333.986328 129.49469 -913.638062
v 278.580566 155.674133 -945.006958
v 304.108765 151.338486 -917.80658
v 325.859009 141.746719 -889.581116
v 242.84613 171.472351 -945.996094
v 269.594604 169.379822 -919.767883
v 292.495056 163.040009 -893.094971
v 311.728638 151.912827 -865.21991
v 203.059204 184.35495 -945.006958
v 230.773132 184.123108 -919.767883
v 254.766174 180.048187 -894.203247
v 275.262207 172.092072 -868.074524
v 291.947998 159.739197 -841.163025
v 159.451904 194.130798 -941.989624
v 187.28186 195.705872 -917.80658
v 212.161377 193.548431 -893.094971
v 233.956604 187.778687 -868.074524
v 252.398621 178.344818 -842.954773
v 267.010681 165.030396 -818.010681
v 112.18042 200.427704 -936.790283
v 138.305054 203.808777 -913.638062
v 163.108765 203.554565 -889.581116
v 185.972229 199.671478 -865.21991
v 206.324646 192.256378 -841.163025
v 223.65802 181.494446 -818.010681
v 237.539551 167.65448 -796.341125
v 85.3869476 206.709869 -911.846252
v 59.8587189 208.675934 -886.72644
v 110.915161 208.675934 -886.72644
v 35.7379608 206.647278 -861.706116
v 85.3869476 208.815338 -860.597839
v 135.03595 206.647278 -861.706116
v 13.1839447 200.748749 -836.994446
v 61.3939056 204.740356 -835.033142
v 109.380005 204.740356 -835.033142
v 157.589905 200.748749 -836.994446
v -7.55979919 190.92392 -812.811401
v 38.7121735 196.413055 -809.794067
v 85.3869476 198.215027 -808.804932
v 132.061768 196.413055 -809.794067
v 178.33374 190.92392 -812.811401
v -26.0907135 176.943939 -789.46228
v 17.3672943 183.26886 -784.778687
v 62.5234833 186.471313 -782.407288
v 108.250427 186.471313 -782.407288
v 153.406616 183.26886 -784.778687
v 196.864624 176.943939 -789.46228
v -184.843613 104.084198 -911.846252
v -196.309433 92.0009689 -886.72644
v -180.532089 117.382484 -886.72644
v -200.072189 79.3830261 -861.706116
v -188.674423 104.734825 -860.597839
v -169.38736 128.746689 -861.706116
v -196.309464 66.348053 -836.994446
v -188.674423 91.5479584 -835.033142
v -173.845886 115.403137 -835.033142
v -151.685532 138.136108 -836.994446
v -184.843643 52.9997253 -812.811401
v -180.532166 77.6989594 -809.794006
v -169.387436 101.459091 -808.804932
v -151.685577 124.105553 -809.794006
v -127.399368 145.412369 -812.811401
v -165.133789 39.4674377 -789.46228
v -163.212555 63.0260696 -784.778687
v -155.085312 86.4640121 -782.407227
v -140.95491 109.196159 -782.407227
v -121.174118 130.654846 -784.778687
v -96.2368317 150.304489 -789.46228
v -81.6247101 -61.9677124 -911.846252
v -63.182724 -71.4015732 -886.72644
v -104.488266 -55.7149582 -886.72644
v -41.3874664 -77.1712799 -861.706116
v -83.9922638 -63.6710815 -860.597839
v -121.721207 -46.6629105 -861.706116
v -16.5079803 -79.3287582 -836.994446
v -59.9991913 -67.7459793 -835.033142
v -98.820755 -53.0026779 -835.033142
v -133.334869 -34.9613342 -836.994446
v 11.3220367 -77.7536697 -812.811401
v -32.2852631 -67.9778519 -809.794067
v -72.0722504 -55.0952225 -808.804932
v -107.806656 -39.2969894 -809.794067
v -139.068924 -20.6396065 -812.811401
v 42.0342865 -72.1370926 -789.462341
v -0.236343384 -63.9020309 -784.778687
v -40.3695526 -52.6189804 -782.407288
v -77.3634186 -38.569809 -782.407288
v -110.294388 -22.1051331 -784.778687
v -138.340302 -3.63610458 -789.462341
v 252.398621 -61.9677124 -911.846252
v 275.262207 -55.71492 -886.72644
v 233.956604 -71.4015732 -886.72644
v 292.495056 -46.6629105 -861.706116
v 254.766174 -63.6710815 -860.597839
v 212.161377 -77.1712799 -861.706116
v 304.108765 -34.9613342 -836.994446
v 269.594604 -53.0026779 -835.033142
v 230.773132 -67.7459793 -835.033142
v 187.28186 -79.3287582 -836.994446
v 309.842834 -20.6396065 -812.811401
v 278.580566 -39.2969894 -809.794067
v 242.84613 -55.0952225 -808.804932
v 203.059204 -67.9778519 -809.794067
v 159.451904 -77.7536697 -812.811401
v 309.114197 -3.63610458 -789.462341
v 281.068359 -22.1051331 -784.778687
v 248.137329 -38.569809 -782.407288
v 211.143494 -52.6189804 -782.407288
v 171.010254 -63.9020309 -784.778687
v 128.739563 -72.1370926 -789.462341
v 355.617493 104.084198 -911.846252
v 351.305969 117.382484 -886.72644
v 367.083374 92.0009689 -886.72644
v 340.161255 128.746689 -861.706116
v 359.448364 104.734825 -860.597839
v 370.846069 79.3830261 -861.706116
v 322.459473 138.136108 -836.994446
v 344.619751 115.403137 -835.033142
v 359.448364 91.5479584 -835.033142
v 367.083374 66.348053 -836.994446
v 298.173218 145.412369 -812.811401
v 322.459473 124.105553 -809.794006
v 340.161316 101.459091 -808.804932
v 351.306091 77.6989594 -809.794006
v 355.617493 52.9997253 -812.811401
v 267.010742 150.304489 -789.46228
v 291.948059 130.654846 -784.778687
v 311.72876 109.196159 -782.407227
v 325.859192 86.4640121 -782.407227
v 333.986389 63.0260696 -784.778687
v 335.907715 39.4674377 -789.46228
v 85.3869476 58.1885681 -696.146057
v 112.180359 77.4650497 -698.408386
v 58.5935211 77.4650497 -698.408386
v 138.305054 96.2603836 -705.13916
v 85.3869476 98.8953629 -702.831421
v 32.4688568 96.2603836 -705.13916
v 163.108765 114.10537 -716.170166
v 110.915161 118.526657 -711.958374
v 59.8587189 118.526657 -711.958374
v 7.66514587 114.10537 -716.170166
v 185.972229 130.554489 -731.226135
v 135.036011 136.297348 -725.321838
v 85.3869476 138.094223 -723.49408
v 35.7379608 136.297348 -725.321838
v -15.198288 130.554489 -731.226135
v 206.324646 145.197021 -749.931213
v 157.590027 152.106781 -742.694458
v 109.380005 155.355957 -739.293884
v 61.3939056 155.355957 -739.293884
v 13.1839142 152.106796 -742.694458
v -35.550766 145.197021 -749.931213
v 223.65802 157.66745 -771.818359
v 178.33374 165.765747 -764.038391
v 132.061768 170.473022 -759.50531
v 85.3869476 172.017242 -758.016541
v 38.7121735 170.473022 -759.50531
v -7.55982971 165.765747 -764.038391
v -52.88414 157.66745 -771.818359
v 128.739563 50.8255768 -698.408386
v 171.010254 43.6464081 -705.13916
v 159.451904 70.7676315 -702.831421
v 211.143433 36.8302002 -716.170166
v 203.059204 64.1433029 -711.958374
v 187.281921 89.5248108 -711.958374
v 248.137329 30.5471783 -731.226135
v 242.84613 57.643631 -725.321838
v 230.773193 82.880722 -723.49408
v 212.161377 107.007339 -725.321838
v 281.068359 24.9542542 -749.931213
v 278.580566 51.3168182 -742.694458
v 269.594788 76.2873154 -739.293884
v 254.766235 100.142532 -739.293884
v 233.956726 123.104935 -742.694458
v 309.114197 20.1909142 -771.818359
v 309.842896 45.2253876 -764.038391
v 304.108826 69.6830292 -759.50531
v 292.495239 93.3635406 -758.016541
v 275.262207 116.089622 -759.50531
v 252.398682 137.638016 -764.038391
v 85.3869476 34.3615494 -698.408386
v 85.3869476 11.1291819 -705.13916
v 131.16156 25.2561188 -702.831421
v 85.3869476 -10.9284134 -716.170166
v 132.584229 1.53065872 -711.958374
v 173.889709 17.2172775 -711.958374
v 85.3869476 -31.2606506 -731.226135
v 133.053101 -20.2570114 -725.321838
v 175.24054 -6.4564743 -723.49408
v 213.386841 10.2513676 -725.321838
v 85.3869476 -49.3598633 -749.931213
v 132.584229 -39.9766388 -742.694458
v 175.24054 -27.7931786 -739.293945
v 214.062134 -13.049881 -739.293945
v 249.411133 4.39079285 -742.694458
v 85.3869476 -64.774147 -771.818359
v 131.16156 -57.4002762 -764.038391
v 173.889709 -46.9919357 -759.50531
v 213.386841 -33.9008102 -758.016602
v 249.411133 -18.3110809 -759.50531
v 281.552612 -0.286214828 -764.038391
v 42.0342865 50.8255768 -698.408386
v -0.236282349 43.6464081 -705.13916
v 39.6123199 25.2561188 -702.831421
v -40.3695526 36.8302002 -716.170166
v -3.11582947 17.2172775 -711.958374
v 38.189743 1.53065872 -711.958374
v -77.3634186 30.5471783 -731.226135
v -42.6129608 10.2513676 -725.321838
v -4.46665955 -6.4564743 -723.49408
v 37.7208099 -20.2570114 -725.321838
v -110.294388 24.9542542 -749.931213
v -78.6371918 4.39079285 -742.694458
v -43.2882233 -13.049881 -739.293945
v -4.46665955 -27.7931786 -739.293945
v 38.1897125 -39.9766388 -742.694519
v -138.340347 20.1909142 -771.818359
v -110.778671 -0.286214828 -764.038391
v -78.6371918 -18.3110809 -759.50531
v -42.6129608 -33.9008102 -758.016602
v -3.11582947 -46.9919357 -759.50531
v 39.6122894 -57.4002762 -764.038391
v 11.3220367 70.7676315 -702.831421
v -16.5079803 89.5248108 -711.958374
v -32.2852936 64.1433029 -711.958374
v -41.3874969 107.007339 -725.321838
v -59.9992523 82.880722 -723.49408
v -72.0722504 57.643631 -725.321838
v -63.182785 123.104935 -742.694458
v -83.9923248 100.142532 -739.293884
v -98.8208466 76.2873154 -739.293884
v -107.806717 51.3168182 -742.694458
v -81.6247711 137.638016 -764.038391
v -104.488358 116.089622 -759.50531
v -121.721329 93.3635406 -758.016541
v -133.33493 69.6830292 -759.50531
v -139.069 45.2253876 -764.038391
g 
f 3 1 2
f 5 2 4
f 6 3 5
f 8 4 7
f 9 5 8
f 10 6 9
f 12 7 11
f 13 8 12
f 14 9 13
f 15 10 14
f 17 11 16
f 18 12 17
f 19 13 18
f 20 14 19
f 21 15 20
f 23 16 22
f 24 17 23
f 25 18 24
f 26 19 25
f 27 20 26
f 28 21 27
f 30 22 29
f 31 23 30
f 32 24 31
f 33 25 32
f 34 26 33
f 35 27 34
f 36 28 35
f 3 2 5
f 5 4 8
f 6 5 9
f 8 7 12
f 9 8 13
f 10 9 14
f 12 11 17
f 13 12 18
f 14 13 19
f 15 14 20
f 17 16 23
f 18 17 24
f 19 18 25
f 20 19 26
f 21 20 27
f 23 22 30
f 24 23 31
f 25 24 32
f 26 25 33
f 27 26 34
f 28 27 35
f 37 1 3
f 38 3 6
f 39 37 38
f 40 6 10
f 41 38 40
f 42 39 41
f 43 10 15
f 44 40 43
f 45 41 44
f 46 42 45
f 47 15 21
f 48 43 47
f 49 44 48
f 50 45 49
f 51 46 50
f 52 21 28
f 53 47 52
f 54 48 53
f 55 49 54
f 56 50 55
f 57 51 56
f 58 28 36
f 59 52 58
f 60 53 59
f 61 54 60
f 62 55 61
f 63 56 62
f 64 57 63
f 37 3 38
f 38 6 40
f 39 38 41
f 40 10 43
f 41 40 44
f 42 41 45
f 43 15 47
f 44 43 48
f 45 44 49
f 46 45 50
f 47 21 52
f 48 47 53
f 49 48 54
f 50 49 55
f 51 50 56
f 52 28 58
f 53 52 59
f 54 53 60
f 55 54 61
f 56 55 62
f 57 56 63
f 65 1 37
f 66 37 39
f 67 65 66
f 68 39 42
f 69 66 68
f 70 67 69
f 71 42 46
f 72 68 71
f 73 69 72
f 74 70 73
f 75 46 51
f 76 71 75
f 77 72 76
f 78 73 77
f 79 74 78
f 80 51 57
f 81 75 80
f 82 76 81
f 83 77 82
f 84 78 83
f 85 79 84
f 86 57 64
f 87 80 86
f 88 81 87
f 89 82 88
f 90 83 89
f 91 84 90
f 92 85 91
f 65 37 66
f 66 39 68
f 67 66 69
f 68 42 71
f 69 68 72
f 70 69 73
f 71 46 75
f 72 71 76
f 73 72 77
f 74 73 78
f 75 51 80
f 76 75 81
f 77 76 82
f 78 77 83
f 79 78 84
f 80 57 86
f 81 80 87
f 82 81 88
f 83 82 89
f 84 83 90
f 85 84 91
f 93 1 65
f 94 65 67
f 95 93 94
f 96 67 70
f 97 94 96
f 98 95 97
f 99 70 74
f 100 96 99
f 101 97 100
f 102 98 101
f 103 74 79
f 104 99 103
f 105 100 104
f 106 101 105
f 107 102 106
f 108 79 85
f 109 103 108
f 110 104 109
f 111 105 110
f 112 106 111
f 113 107 112
f 114 85 92
f 115 108 114
f 116 109 115
f 117 110 116
f 118 111 117
f 119 112 118
f 120 113 119
f 93 65 94
f 94 67 96
f 95 94 97
f 96 70 99
f 97 96 100
f 98 97 101
f 99 74 103
f 100 99 104
f 101 100 105
f 102 101 106
f 103 79 108
f 104 103 109
f 105 104 110
f 106 105 111
f 107 106 112
f 108 85 114
f 109 108 115
f 110 109 116
f 111 110 117
f 112 111 118
f 113 112 119
f 2 1 93
f 121 93 95
f 4 2 121
f 122 95 98
f 123 121 122
f 7 4 123
f 124 98 102
f 125 122 124
f 126 123 125
f 11 7 126
f 127 102 107
f 128 124 127
f 129 125 128
f 130 126 129
f 16 11 130
f 131 107 113
f 132 127 131
f 133 128 132
f 134 129 133
f 135 130 134
f 22 16 135
f 136 113 120
f 137 131 136
f 138 132 137
f 139 133 138
f 140 134 139
f 141 135 140
f 29 22 141
f 2 93 121
f 121 95 122
f 4 121 123
f 122 98 124
f 123 122 125
f 7 123 126
f 124 102 127
f 125 124 128
f 126 125 129
f 11 126 130
f 127 107 131
f 128 127 132
f 129 128 133
f 130 129 134
f 16 130 135
f 131 113 136
f 132 131 137
f 133 132 138
f 134 133 139
f 135 134 140
f 22 135 141
f 142 29 141
f 143 141 140
f 144 142 143
f 145 140 139
f 146 143 145
f 147 144 146
f 148 139 138
f 149 145 148
f 150 146 149
f 151 147 150
f 152 138 137
f 153 148 152
f 154 149 153
f 155 150 154
f 156 151 155
f 157 137 136
f 158 152 157
f 159 153 158
f 160 154 159
f 161 155 160
f 162 156 161
f 163 136 120
f 164 157 163
f 165 158 164
f 166 159 165
f 167 160 166
f 168 161 167
f 169 162 168
f 142 141 143
f 143 140 145
f 144 143 146
f 145 139 148
f 146 145 149
f 147 146 150
f 148 138 152
f 149 148 153
f 150 149 154
f 151 150 155
f 152 137 157
f 153 152 158
f 154 153 159
f 155 154 160
f 156 155 161
f 157 136 163
f 158 157 164
f 159 158 165
f 160 159 166
f 161 160 167
f 162 161 168
f 170 120 119
f 171 119 118
f 172 170 171
f 173 118 117
f 174 171 173
f 175 172 174
f 176 117 116
f 177 173 176
f 178 174 177
f 179 175 178
f 180 116 115
f 181 176 180
f 182 177 181
f 183 178 182
f 184 179 183
f 185 115 114
f 186 180 185
f 187 181 186
f 188 182 187
f 189 183 188
f 190 184 189
f 191 114 92
f 192 185 191
f 193 186 192
f 194 187 193
f 195 188 194
f 196 189 195
f 197 190 196
f 170 119 171
f 171 118 173
f 172 171 174
f 173 117 176
f 174 173 177
f 175 174 178
f 176 116 180
f 177 176 181
f 178 177 182
f 179 178 183
f 180 115 185
f 181 180 186
f 182 181 187
f 183 182 188
f 184 183 189
f 185 114 191
f 186 185 192
f 187 186 193
f 188 187 194
f 189 188 195
f 190 189 196
f 198 92 91
f 199 91 90
f 200 198 199
f 201 90 89
f 202 199 201
f 203 200 202
f 204 89 88
f 205 201 204
f 206 202 205
f 207 203 206
f 208 88 87
f 209 204 208
f 210 205 209
f 211 206 210
f 212 207 211
f 213 87 86
f 214 208 213
f 215 209 214
f 216 210 215
f 217 211 216
f 218 212 217
f 219 86 64
f 220 213 219
f 221 214 220
f 222 215 221
f 223 216 222
f 224 217 223
f 225 218 224
f 198 91 199
f 199 90 201
f 200 199 202
f 201 89 204
f 202 201 205
f 203 202 206
f 204 88 208
f 205 204 209
f 206 205 210
f 207 206 211
f 208 87 213
f 209 208 214
f 210 209 215
f 211 210 216
f 212 211 217
f 213 86 219
f 214 213 220
f 215 214 221
f 216 215 222
f 217 216 223
f 218 217 224
f 226 64 63
f 227 63 62
f 228 226 227
f 229 62 61
f 230 227 229
f 231 228 230
f 232 61 60
f 233 229 232
f 234 230 233
f 235 231 234
f 236 60 59
f 237 232 236
f 238 233 237
f 239 234 238
f 240 235 239
f 241 59 58
f 242 236 241
f 243 237 242
f 244 238 243
f 245 239 244
f 246 240 245
f 247 58 36
f 248 241 247
f 249 242 248
f 250 243 249
f 251 244 250
f 252 245 251
f 253 246 252
f 226 63 227
f 227 62 229
f 228 227 230
f 229 61 232
f 230 229 233
f 231 230 234
f 232 60 236
f 233 232 237
f 234 233 238
f 235 234 239
f 236 59 241
f 237 236 242
f 238 237 243
f 239 238 244
f 240 239 245
f 241 58 247
f 242 241 248
f 243 242 249
f 244 243 250
f 245 244 251
f 246 245 252
f 254 36 35
f 255 35 34
f 256 254 255
f 257 34 33
f 258 255 257
f 259 256 258
f 260 33 32
f 261 257 260
f 262 258 261
f 263 259 262
f 264 32 31
f 265 260 264
f 266 261 265
f 267 262 266
f 268 263 267
f 269 31 30
f 270 264 269
f 271 265 270
f 272 266 271
f 273 267 272
f 274 268 273
f 275 30 29
f 276 269 275
f 277 270 276
f 278 271 277
f 279 272 278
f 280 273 279
f 281 274 280
f 254 35 255
f 255 34 257
f 256 255 258
f 257 33 260
f 258 257 261
f 259 258 262
f 260 32 264
f 261 260 265
f 262 261 266
f 263 262 267
f 264 31 269
f 265 264 270
f 266 265 271
f 267 266 272
f 268 267 273
f 269 30 275
f 270 269 276
f 271 270 277
f 272 271 278
f 273 272 279
f 274 273 280
f 275 29 142
f 282 142 144
f 276 275 282
f 283 144 147
f 284 282 283
f 277 276 284
f 285 147 151
f 286 283 285
f 287 284 286
f 278 277 287
f 288 151 156
f 289 285 288
f 290 286 289
f 291 287 290
f 279 278 291
f 292 156 162
f 293 288 292
f 294 289 293
f 295 290 294
f 296 291 295
f 280 279 296
f 297 162 169
f 298 292 297
f 299 293 298
f 300 294 299
f 301 295 300
f 302 296 301
f 281 280 302
f 275 142 282
f 282 144 283
f 276 282 284
f 283 147 285
f 284 283 286
f 277 284 287
f 285 151 288
f 286 285 289
f 287 286 290
f 278 287 291
f 288 156 292
f 289 288 293
f 290 289 294
f 291 290 295
f 279 291 296
f 292 162 297
f 293 292 298
f 294 293 299
f 295 294 300
f 296 295 301
f 280 296 302
f 163 120 170
f 303 170 172
f 164 163 303
f 304 172 175
f 305 303 304
f 165 164 305
f 306 175 179
f 307 304 306
f 308 305 307
f 166 165 308
f 309 179 184
f 310 306 309
f 311 307 310
f 312 308 311
f 167 166 312
f 313 184 190
f 314 309 313
f 315 310 314
f 316 311 315
f 317 312 316
f 168 167 317
f 318 190 197
f 319 313 318
f 320 314 319
f 321 315 320
f 322 316 321
f 323 317 322
f 169 168 323
f 163 170 303
f 303 172 304
f 164 303 305
f 304 175 306
f 305 304 307
f 165 305 308
f 306 179 309
f 307 306 310
f 308 307 311
f 166 308 312
f 309 184 313
f 310 309 314
f 311 310 315
f 312 311 316
f 167 312 317
f 313 190 318
f 314 313 319
f 315 314 320
f 316 315 321
f 317 316 322
f 168 317 323
f 191 92 198
f 324 198 200
f 192 191 324
f 325 200 203
f 326 324 325
f 193 192 326
f 327 203 207
f 328 325 327
f 329 326 328
f 194 193 329
f 330 207 212
f 331 327 330
f 332 328 331
f 333 329 332
f 195 194 333
f 334 212 218
f 335 330 334
f 336 331 335
f 337 332 336
f 338 333 337
f 196 195 338
f 339 218 225
f 340 334 339
f 341 335 340
f 342 336 341
f 343 337 342
f 344 338 343
f 197 196 344
f 191 198 324
f 324 200 325
f 192 324 326
f 325 203 327
f 326 325 328
f 193 326 329
f 327 207 330
f 328 327 331
f 329 328 332
f 194 329 333
f 330 212 334
f 331 330 335
f 332 331 336
f 333 332 337
f 195 333 338
f 334 218 339
f 335 334 340
f 336 335 341
f 337 336 342
f 338 337 343
f 196 338 344
f 219 64 226
f 345 226 228
f 220 219 345
f 346 228 231
f 347 345 346
f 221 220 347
f 348 231 235
f 349 346 348
f 350 347 349
f 222 221 350
f 351 235 240
f 352 348 351
f 353 349 352
f 354 350 353
f 223 222 354
f 355 240 246
f 356 351 355
f 357 352 356
f 358 353 357
f 359 354 358
f 224 223 359
f 360 246 253
f 361 355 360
f 362 356 361
f 363 357 362
f 364 358 363
f 365 359 364
f 225 224 365
f 219 226 345
f 345 228 346
f 220 345 347
f 346 231 348
f 347 346 349
f 221 347 350
f 348 235 351
f 349 348 352
f 350 349 353
f 222 350 354
f 351 240 355
f 352 351 356
f 353 352 357
f 354 353 358
f 223 354 359
f 355 246 360
f 356 355 361
f 357 356 362
f 358 357 363
f 359 358 364
f 224 359 365
f 247 36 254
f 366 254 256
f 248 247 366
f 367 256 259
f 368 366 367
f 249 248 368
f 369 259 263
f 370 367 369
f 371 368 370
f 250 249 371
f 372 263 268
f 373 369 372
f 374 370 373
f 375 371 374
f 251 250 375
f 376 268 274
f 377 372 376
f 378 373 377
f 379 374 378
f 380 375 379
f 252 251 380
f 381 274 281
f 382 376 381
f 383 377 382
f 384 378 383
f 385 379 384
f 386 380 385
f 253 252 386
f 247 254 366
f 366 256 367
f 248 366 368
f 367 259 369
f 368 367 370
f 249 368 371
f 369 263 372
f 370 369 373
f 371 370 374
f 250 371 375
f 372 268 376
f 373 372 377
f 374 373 378
f 375 374 379
f 251 375 380
f 376 274 381
f 377 376 382
f 378 377 383
f 379 378 384
f 380 379 385
f 252 380 386
f 389 387 388
f 391 388 390
f 392 389 391
f 394 390 393
f 395 391 394
f 396 392 395
f 398 393 397
f 399 394 398
f 400 395 399
f 401 396 400
f 403 397 402
f 404 398 403
f 405 399 404
f 406 400 405
f 407 401 406
f 409 402 408
f 410 403 409
f 411 404 410
f 412 405 411
f 413 406 412
f 414 407 413
f 302 408 281
f 301 409 302
f 300 410 301
f 299 411 300
f 298 412 299
f 297 413 298
f 169 414 297
f 389 388 391
f 391 390 394
f 392 391 395
f 394 393 398
f 395 394 399
f 396 395 400
f 398 397 403
f 399 398 404
f 400 399 405
f 401 400 406
f 403 402 409
f 404 403 410
f 405 404 411
f 406 405 412
f 407 406 413
f 409 408 302
f 410 409 301
f 411 410 300
f 412 411 299
f 413 412 298
f 414 413 297
f 388 387 415
f 417 415 416
f 390 388 417
f 419 416 418
f 420 417 419
f 393 390 420
f 422 418 421
f 423 419 422
f 424 420 423
f 397 393 424
f 426 421 425
f 427 422 426
f 428 423 427
f 429 424 428
f 402 397 429
f 431 425 430
f 432 426 431
f 433 427 432
f 434 428 433
f 435 429 434
f 408 402 435
f 386 430 253
f 385 431 386
f 384 432 385
f 383 433 384
f 382 434 383
f 381 435 382
f 281 408 381
f 388 415 417
f 417 416 419
f 390 417 420
f 419 418 422
f 420 419 423
f 393 420 424
f 422 421 426
f 423 422 427
f 424 423 428
f 397 424 429
f 426 425 431
f 427 426 432
f 428 427 433
f 429 428 434
f 402 429 435
f 431 430 386
f 432 431 385
f 433 432 384
f 434 433 383
f 435 434 382
f 408 435 381
f 415 387 436
f 438 436 437
f 416 415 438
f 440 437 439
f 441 438 440
f 418 416 441
f 443 439 442
f 444 440 443
f 445 441 444
f 421 418 445
f 447 442 446
f 448 443 447
f 449 444 448
f 450 445 449
f 425 421 450
f 452 446 451
f 453 447 452
f 454 448 453
f 455 449 454
f 456 450 455
f 430 425 456
f 365 451 225
f 364 452 365
f 363 453 364
f 362 454 363
f 361 455 362
f 360 456 361
f 253 430 360
f 415 436 438
f 438 437 440
f 416 438 441
f 440 439 443
f 441 440 444
f 418 441 445
f 443 442 447
f 444 443 448
f 445 444 449
f 421 445 450
f 447 446 452
f 448 447 453
f 449 448 454
f 450 449 455
f 425 450 456
f 452 451 365
f 453 452 364
f 454 453 363
f 455 454 362
f 456 455 361
f 430 456 360
f 436 387 457
f 459 457 458
f 437 436 459
f 461 458 460
f 462 459 461
f 439 437 462
f 464 460 463
f 465 461 464
f 466 462 465
f 442 439 466
f 468 463 467
f 469 464 468
f 470 465 469
f 471 466 470
f 446 442 471
f 473 467 472
f 474 468 473
f 475 469 474
f 476 470 475
f 477 471 476
f 451 446 477
f 344 472 197
f 343 473 344
f 342 474 343
f 341 475 342
f 340 476 341
f 339 477 340
f 225 451 339
f 436 457 459
f 459 458 461
f 437 459 462
f 461 460 464
f 462 461 465
f 439 462 466
f 464 463 468
f 465 464 469
f 466 465 470
f 442 466 471
f 468 467 473
f 469 468 474
f 470 469 475
f 471 470 476
f 446 471 477
f 473 472 344
f 474 473 343
f 475 474 342
f 476 475 341
f 477 476 340
f 451 477 339
f 457 387 389
f 478 389 392
f 458 457 478
f 479 392 396
f 480 478 479
f 460 458 480
f 481 396 401
f 482 479 481
f 483 480 482
f 463 460 483
f 484 401 407
f 485 481 484
f 486 482 485
f 487 483 486
f 467 463 487
f 488 407 414
f 489 484 488
f 490 485 489
f 491 486 490
f 492 487 491
f 472 467 492
f 323 414 169
f 322 488 323
f 321 489 322
f 320 490 321
f 319 491 320
f 318 492 319
f 197 472 318
f 457 389 478
f 478 392 479
f 458 478 480
f 479 396 481
f 480 479 482
f 460 480 483
f 481 401 484
f 482 481 485
f 483 482 486
f 463 483 487
f 484 407 488
f 485 484 489
f 486 485 490
f 487 486 491
f 467 487 492
f 488 414 323
f 489 488 322
f 490 489 321
f 491 490 320
f 492 491 319
f 472 492 318
