# File exported by Houdini 20.5.445 (www.sidefx.com)
# 492 points
# 2940 vertices
# 980 primitives
# Bounds: [-225.602203, -45.8699913, -1120.80249] to [396.376129, 162.247101, -633.998535]
g 
v 85.3869629 58.1885567 -1120.80249
v 85.3869629 74.6491394 -1117.7644
v 132.11792 63.2751884 -1117.7644
v 85.3869629 90.6989136 -1108.72583
v 134.728638 80.9395294 -1111.82483
v 177.682495 68.2348328 -1108.72583
v 85.3869629 105.937134 -1093.91248
v 136.262085 97.3299408 -1099.56848
v 180.786438 86.4930115 -1099.56848
v 220.943237 72.9437103 -1093.91248
v 85.3869629 119.983353 -1073.69421
v 136.767578 112.381638 -1081.62305
v 182.242493 102.847733 -1084.07751
v 223.361389 91.3052979 -1081.62305
v 260.819946 77.2842255 -1073.69421
v 85.3869629 132.486938 -1048.57581
v 136.262146 126.0047 -1058.2937
v 182.242493 117.587952 -1062.86011
v 224.089355 107.402725 -1062.86011
v 262.192993 95.3540192 -1058.2937
v 296.317078 81.148056 -1048.57581
v 85.3869629 143.135742 -1019.18408
v 134.728638 138.041611 -1029.63159
v 180.786438 130.851105 -1035.71887
v 223.361389 121.807297 -1037.71814
v 262.192993 111.037354 -1035.71887
v 296.839111 98.5850677 -1029.63159
v 326.548523 84.4387207 -1019.18408
v 85.3869629 151.663879 -986.25293
v 132.11792 148.222321 -995.490356
v 177.682556 142.533203 -1001.78003
v 220.943237 134.738495 -1004.96436
v 260.819946 125.032806 -1004.96436
v 296.317078 113.658417 -1001.78003
v 326.548523 100.899307 -995.490356
v 350.759552 87.0740662 -986.253174
v 114.26825 44.8716545 -1117.7644
v 165.22345 49.498455 -1111.82483
v 142.428772 31.8871117 -1108.72583
v 212.229065 54.07481 -1099.56848
v 195.22229 36.5403214 -1099.56848
v 169.165344 19.5591736 -1093.91248
v 255.116394 58.5650215 -1081.62305
v 242.102539 41.1302757 -1084.07751
v 222.040527 24.4627533 -1081.62305
v 193.810425 8.19551468 -1073.69421
v 293.635559 62.9358177 -1058.2937
v 283.949402 45.6852455 -1062.86035
v 267.965393 29.2052155 -1062.86035
v 245.534241 13.3419456 -1058.2937
v 215.748962 -1.92011642 -1048.57581
v 327.333923 67.1439972 -1029.63159
v 321.153137 50.2477303 -1035.71887
v 308.63446 33.8883934 -1037.71814
v 290.058594 18.1883736 -1035.71887
v 265.413269 3.30191422 -1029.63159
v 234.433044 -10.5351372 -1019.18408
v 355.42984 71.1218109 -995.490356
v 353.358917 54.8466072 -1001.78003
v 344.598297 38.6548042 -1004.96448
v 329.366882 22.9506302 -1004.96448
v 308.044495 8.12614822 -1001.78003
v 281.164124 -5.44854164 -995.490356
v 249.396301 -17.4345551 -986.253174
v 56.5056763 44.8716545 -1117.7644
v 85.3869629 30.0668068 -1111.82483
v 28.3452148 31.8871117 -1108.72583
v 112.904541 16.5047493 -1099.56848
v 57.8694458 16.5047493 -1099.56848
v 1.60864258 19.5591736 -1093.91248
v 138.904907 4.22810364 -1081.62305
v 85.3869629 2.98678589 -1084.07751
v 31.8690186 4.22810364 -1081.62305
v -23.036499 8.19551468 -1073.69421
v 163.216492 -6.69360161 -1058.2937
v 111.249695 -8.93827438 -1062.86035
v 59.524231 -8.93827438 -1062.86035
v 7.55749512 -6.69360161 -1058.2937
v -44.9749756 -1.92011642 -1048.57581
v 185.576721 -16.1297264 -1029.63159
v 135.698914 -19.381691 -1035.71887
v 85.3869629 -20.4484978 -1037.71814
v 35.0749512 -19.381691 -1035.71887
v -14.8027344 -16.1297264 -1029.63159
v -63.6590271 -10.5351372 -1019.18408
v 205.551697 -23.8520775 -995.490356
v 158.707153 -28.2215614 -1001.78003
v 110.032104 -30.4339333 -1004.96448
v 60.7418823 -30.4339333 -1004.96448
v 12.0668335 -28.2215614 -1001.78003
v -34.77771 -23.8520775 -995.490356
v -78.6223145 -17.4345551 -986.253174
v 38.6560059 63.2751884 -1117.7644
v 5.55047607 49.498455 -1111.82483
v -6.90856934 68.2348328 -1108.72583
v -24.4482422 36.5403214 -1099.56848
v -41.4550476 54.07481 -1099.56848
v -50.169281 72.9437103 -1093.91248
v -51.266571 24.4627533 -1081.62305
v -71.3286133 41.1302757 -1084.07751
v -84.3424377 58.5650215 -1081.62305
v -90.045929 77.2842255 -1073.69421
v -74.7602539 13.3419456 -1058.2937
v -97.1913757 29.2052155 -1062.86035
v -113.175446 45.6852455 -1062.86035
v -122.861511 62.9358177 -1058.2937
v -125.543121 81.148056 -1048.57581
v -94.6393127 3.30191422 -1029.63159
v -119.284576 18.1883736 -1035.71887
v -137.860474 33.8883934 -1037.71814
v -150.379089 50.2477303 -1035.71887
v -156.559967 67.1439972 -1029.63159
v -155.774567 84.4387207 -1019.18408
v -110.390076 -5.44854164 -995.490356
v -137.27063 8.12614822 -1001.78003
v -158.592834 22.9506302 -1004.96448
v -173.824402 38.6548042 -1004.96448
v -182.584961 54.8466072 -1001.78003
v -184.655945 71.1218109 -995.490356
v -179.985626 87.0740662 -986.253174
v 36.0452881 80.9395294 -1111.82483
v -10.0124512 86.4930115 -1099.56848
v 34.5118408 97.3299408 -1099.56848
v -52.5874634 91.3052979 -1081.62305
v -11.4685669 102.847733 -1084.07751
v 34.0064087 112.381638 -1081.62305
v -91.4189453 95.3540192 -1058.2937
v -53.3153687 107.402725 -1062.86011
v -11.4685669 117.587952 -1062.86011
v 34.5118408 126.0047 -1058.29358
v -126.065094 98.5850677 -1029.63159
v -91.4189453 111.037354 -1035.71887
v -52.5874634 121.807297 -1037.71814
v -10.0124512 130.851105 -1035.71887
v 36.0452881 138.041611 -1029.63159
v -155.774536 100.899307 -995.490356
v -125.543121 113.658417 -1001.78003
v -90.045929 125.032806 -1004.96436
v -50.169281 134.738495 -1004.96436
v -6.90856934 142.533203 -1001.78003
v 38.6560059 148.222321 -995.490356
v 56.5056152 156.452637 -957.153564
v 5.55041504 152.102478 -964.135498
v 28.3452148 158.788361 -926.062866
v -41.4550476 145.348953 -968.187378
v -24.4482422 153.190598 -931.660889
v 1.60864258 158.612762 -893.757446
v -84.3424072 136.449173 -969.515625
v -71.3285828 145.188797 -934.294434
v -51.2664795 151.70015 -898.476196
v -23.036499 155.930161 -861.043579
v -122.861481 125.535187 -968.187378
v -113.175354 135.003586 -934.294434
v -97.1913147 142.373688 -899.964355
v -74.7601929 147.714218 -864.876953
v -44.9749451 150.807571 -828.738037
v -156.559937 112.645966 -964.135498
v -150.378998 122.539948 -931.660889
v -137.860321 130.62381 -898.476196
v -119.284515 136.877304 -864.876953
v -94.6392517 141.196945 -831.144165
v -63.6590271 143.372833 -797.647461
v -184.655853 97.7556152 -957.153564
v -182.584869 107.449478 -926.062866
v -173.824249 115.913635 -893.757446
v -158.592743 122.936722 -861.043579
v -137.270538 128.343491 -828.738037
v -110.390045 131.99884 -797.647461
v -78.6223145 133.811661 -768.547852
v -202.505554 79.3520966 -957.153564
v -205.901642 61.7732048 -964.135498
v -217.838684 71.1017914 -926.062866
v -201.254272 44.7100258 -968.187378
v -218.260986 52.551693 -931.660889
v -225.602203 62.5290718 -893.757446
v -189.240997 28.2956581 -969.515625
v -210.030975 35.1426582 -934.294434
v -222.316895 43.5466499 -898.476196
v -225.602203 53.8480186 -861.043579
v -170.159729 12.6506729 -968.187378
v -194.046906 18.6625977 -934.294434
v -210.030975 26.0326881 -899.964355
v -218.260986 34.8297081 -864.876953
v -217.838684 45.2753334 -828.738037
v -143.980957 -2.0688839 -964.135498
v -170.159668 2.95784569 -931.660889
v -189.240967 9.44440842 -898.476196
v -201.25415 17.2951851 -864.876953
v -205.901642 26.4821281 -831.144165
v -202.505554 37.0250053 -797.647461
v -110.390045 -15.6217346 -957.153564
v -137.270538 -11.9663506 -926.062866
v -158.592743 -6.55960464 -893.757446
v -173.824249 0.463476181 -861.043579
v -182.584869 8.92761993 -828.738037
v -184.655853 18.6215019 -797.647461
v -179.985626 29.3030396 -768.547852
v -63.6590271 -26.9957199 -957.153564
v -14.8027344 -33.5099182 -964.135498
v -44.9749451 -34.4304466 -926.062866
v 35.0749512 -37.3020439 -968.187378
v 7.55749512 -40.2972755 -931.660889
v -23.036499 -39.553051 -893.757446
v 85.3869629 -38.5469093 -969.515625
v 59.524231 -43.0548744 -934.294434
v 31.8690186 -44.3722343 -898.476196
v 1.60864258 -42.2356529 -861.043579
v 135.698914 -37.3020439 -968.187378
v 111.249695 -43.0548744 -934.294434
v 85.3869629 -45.8699913 -899.964355
v 57.8694458 -45.7736702 -864.876953
v 28.3452148 -42.4112511 -828.738037
v 185.576721 -33.5099182 -964.135498
v 163.216492 -40.2972755 -931.660889
v 138.904907 -44.3722343 -898.476196
v 112.904541 -45.7736702 -864.876953
v 85.3869629 -44.4154701 -831.144165
v 56.5056152 -40.0754967 -797.647461
v 234.433044 -26.9957199 -957.153564
v 215.748962 -34.4304466 -926.062866
v 193.810425 -39.553051 -893.757446
v 169.165344 -42.2356529 -861.043579
v 142.428772 -42.4112511 -828.738037
v 114.26825 -40.0754967 -797.647461
v 85.3869629 -35.2867622 -768.547974
v 281.16394 -15.6217346 -957.153564
v 314.754944 -2.0688839 -964.135498
v 308.044495 -11.9663506 -926.062866
v 340.933716 12.6506729 -968.187378
v 340.933716 2.95784569 -931.660889
v 329.366699 -6.55960464 -893.757446
v 360.015045 28.2956581 -969.515625
v 364.820831 18.6625977 -934.294434
v 360.014923 9.44440842 -898.476196
v 344.598175 0.463476181 -861.043579
v 372.028229 44.7100258 -968.187378
v 380.804962 35.1426582 -934.294434
v 380.804962 26.0326881 -899.964355
v 372.028107 17.2951851 -864.876953
v 353.358795 8.92761993 -828.738037
v 376.67569 61.7732048 -964.135498
v 389.034943 52.551693 -931.660889
v 393.090851 43.5466499 -898.476196
v 389.034943 34.8297081 -864.876953
v 376.675568 26.4821281 -831.144165
v 355.42984 18.6215019 -797.647461
v 373.279449 79.3520966 -957.153564
v 388.612579 71.1017914 -926.062866
v 396.376129 62.5290718 -893.757446
v 396.376129 53.8480186 -861.043579
v 388.612579 45.2753334 -828.738037
v 373.279449 37.0250053 -797.647461
v 350.759552 29.3030396 -768.547852
v 355.42984 97.7556152 -957.153564
v 327.333923 112.645966 -964.135498
v 353.358795 107.449478 -926.062866
v 293.635437 125.535187 -968.187378
v 321.152954 122.539948 -931.660889
v 344.598175 115.913635 -893.757446
v 255.116394 136.449173 -969.515625
v 283.949341 135.003586 -934.294434
v 308.634338 130.62381 -898.476196
v 329.366699 122.936722 -861.043579
v 212.229065 145.348953 -968.187378
v 242.102539 145.188797 -934.294434
v 267.96521 142.373688 -899.964355
v 290.058533 136.877304 -864.876953
v 308.044495 128.343491 -828.738037
v 165.223511 152.102478 -964.135498
v 195.22229 153.190598 -931.660889
v 222.040405 151.70015 -898.476196
v 245.53418 147.714218 -864.876953
v 265.413208 141.196945 -831.144165
v 281.16394 131.99884 -797.647461
v 114.26825 156.452637 -957.153564
v 142.428772 158.788361 -926.062866
v 169.165344 158.612762 -893.757446
v 193.810425 155.930161 -861.043579
v 215.748962 150.807571 -828.738037
v 234.433044 143.372833 -797.647461
v 249.396301 133.811661 -768.547852
v 85.3869629 160.792572 -923.65686
v 57.8694458 162.150803 -889.924072
v 112.904541 162.150803 -889.924072
v 31.8690186 160.749329 -856.324707
v 85.3869629 162.247101 -854.83667
v 138.904907 160.749329 -856.324707
v 7.55749512 156.674393 -823.140137
v 59.524231 159.431961 -820.50647
v 111.249695 159.431961 -820.50647
v 163.216492 156.674393 -823.140137
v -14.8027344 149.887039 -790.665405
v 35.0749512 153.679153 -786.613525
v 85.3869629 154.924026 -785.285278
v 135.698914 153.679153 -786.613525
v 185.576721 149.887039 -790.665405
v -34.77771 140.229156 -759.310547
v 12.0668335 144.598633 -753.020996
v 60.7418823 146.81102 -749.836426
v 110.032104 146.81102 -749.836426
v 158.707153 144.598633 -753.020996
v 205.551697 140.229156 -759.310547
v -205.901642 89.8949738 -923.65686
v -218.260986 81.5474091 -889.924072
v -201.25415 99.0818939 -889.924072
v -222.316895 72.8304749 -856.324707
v -210.030975 90.3444214 -854.83667
v -189.240967 106.932693 -856.324707
v -218.260986 63.825428 -823.140137
v -210.030975 81.2344666 -820.50647
v -194.046906 97.7145081 -820.50647
v -170.159668 113.419281 -823.140137
v -205.901642 54.6039085 -790.665405
v -201.254272 71.6670532 -786.613525
v -189.240997 88.0814362 -785.285278
v -170.159729 103.72644 -786.613525
v -143.980957 118.445969 -790.665405
v -184.655945 45.2553139 -759.310547
v -182.584961 61.5304832 -753.020996
v -173.824402 77.7222748 -749.836426
v -158.592834 93.4264679 -749.836426
v -137.27063 108.250946 -753.020996
v -110.390076 121.825638 -759.310547
v -94.6392517 -24.8198357 -923.65686
v -74.7601929 -31.337101 -889.924072
v -119.284515 -20.5002365 -889.924072
v -51.2664795 -35.3230247 -856.324707
v -97.1913147 -25.9965897 -854.83667
v -137.860321 -14.2467079 -856.324707
v -24.4482422 -36.8134956 -823.140137
v -71.3285828 -28.8117104 -820.50647
v -113.175354 -18.6264648 -820.50647
v -150.378998 -6.16283607 -823.140137
v 5.55041504 -35.7253609 -790.665405
v -41.4550171 -28.9718628 -786.613525
v -84.3424072 -20.0720673 -785.285278
v -122.861481 -9.15813065 -786.613525
v -156.559937 3.73114204 -790.665405
v 38.6560059 -31.8452225 -759.310547
v -6.90856934 -26.1561317 -753.020996
v -50.169281 -18.3613892 -749.836548
v -90.045929 -8.65567017 -749.836548
v -125.543121 2.71870232 -753.020996
v -155.774536 15.4777908 -759.310547
v 265.413269 -24.8198357 -923.65686
v 290.058533 -20.5001755 -889.924072
v 245.53418 -31.337101 -889.924072
v 308.634338 -14.2467079 -856.324707
v 267.96521 -25.9965897 -854.83667
v 222.040405 -35.3230247 -856.324707
v 321.152954 -6.16283607 -823.140137
v 283.949341 -18.6264648 -820.50647
v 242.102539 -28.8117104 -820.50647
v 195.22229 -36.8134956 -823.140137
v 327.333801 3.73114204 -790.665405
v 293.635437 -9.15813065 -786.613525
v 255.116394 -20.0720673 -785.285278
v 212.229065 -28.9718628 -786.613525
v 165.223511 -35.7253609 -790.665405
v 326.548523 15.4777908 -759.310547
v 296.317078 2.71870232 -753.020996
v 260.819946 -8.65567017 -749.836548
v 220.943237 -18.3613892 -749.836548
v 177.682556 -26.1561317 -753.020996
v 132.11792 -31.8452225 -759.310547
v 376.675568 89.8949738 -923.65686
v 372.028229 99.0818939 -889.924072
v 389.034943 81.5474091 -889.924072
v 360.014923 106.932739 -856.324707
v 380.804962 90.3444214 -854.83667
v 393.090851 72.8304749 -856.324707
v 340.933655 113.419281 -823.140137
v 364.820831 97.7145081 -820.50647
v 380.804962 81.2344666 -820.50647
v 389.034943 63.825428 -823.140137
v 314.754944 118.445969 -790.665405
v 340.933716 103.72644 -786.613525
v 360.015045 88.0814362 -785.285278
v 372.028229 71.6670532 -786.613525
v 376.67569 54.6039085 -790.665405
v 281.164124 121.825638 -759.310547
v 308.044495 108.250946 -753.020996
v 329.366882 93.4264679 -749.836426
v 344.598297 77.7222748 -749.836426
v 353.358917 61.5304832 -753.020996
v 355.42984 45.2553139 -759.310547
v 85.3869629 58.1885567 -633.998535
v 114.26825 71.5054626 -637.036499
v 56.5056763 71.5054626 -637.036499
v 142.428772 84.489975 -646.075073
v 85.3869629 86.3103027 -642.976074
v 28.3452148 84.489975 -646.075073
v 169.165344 96.8179474 -660.888306
v 112.904541 99.8723602 -655.232544
v 57.8694458 99.8723602 -655.232544
v 1.60864258 96.8179474 -660.888306
v 193.810425 108.181595 -681.106689
v 138.904907 112.148987 -673.177856
v 85.3869629 113.39032 -670.723389
v 31.8690186 112.148987 -673.177856
v -23.036499 108.181595 -681.106689
v 215.748962 118.297226 -706.22522
v 163.216492 123.070724 -696.507202
v 111.249695 125.315399 -691.940674
v 59.524231 125.315399 -691.940674
v 7.55749512 123.07074 -696.507202
v -44.9749756 118.297226 -706.22522
v 234.433044 126.912247 -735.616821
v 185.576721 132.506851 -725.169434
v 135.698914 135.758804 -719.082031
v 85.3869629 136.825592 -717.082886
v 35.0749512 135.758804 -719.082031
v -14.8027344 132.506851 -725.169434
v -63.6590271 126.912247 -735.616821
v 132.11792 53.1019325 -637.036499
v 177.682495 48.1422997 -646.075073
v 165.22345 66.8786469 -642.976074
v 220.943237 43.4334145 -660.888306
v 212.229065 62.3023033 -655.232544
v 195.22229 79.8368073 -655.232544
v 260.819946 39.092865 -681.106689
v 255.116394 57.8120918 -673.177856
v 242.102539 75.2468109 -670.723389
v 222.040527 91.9143524 -673.177856
v 296.317078 35.2290688 -706.22522
v 293.635559 53.4412956 -696.507202
v 283.949402 70.6918488 -691.940674
v 267.965393 87.1719055 -691.940674
v 245.534241 103.035156 -696.507202
v 326.548523 31.9383736 -735.616821
v 327.333923 49.2331123 -725.169434
v 321.153137 66.129364 -719.082031
v 308.63446 82.4887085 -717.082886
v 290.058594 98.1887207 -719.082031
v 265.413269 113.075195 -725.169434
v 85.3869629 41.7279778 -637.036499
v 85.3869629 25.6781998 -646.075073
v 134.728638 35.4375725 -642.976074
v 85.3869629 10.4399948 -660.888306
v 136.262085 19.047184 -655.232544
v 180.786438 29.8840752 -655.232544
v 85.3869629 -3.6062336 -681.106689
v 136.767578 3.99545288 -673.177979
v 182.242493 13.5293732 -670.723389
v 223.361389 25.0718002 -673.177856
v 85.3869629 -16.1098022 -706.22522
v 136.262146 -9.62759399 -696.507202
v 182.242493 -1.21084213 -691.940674
v 224.089355 8.9744072 -691.940674
v 262.192993 21.0231018 -696.507202
v 85.3869629 -26.758625 -735.616821
v 134.728638 -21.6644821 -725.169434
v 180.786438 -14.4739914 -719.082031
v 223.361389 -5.43018532 -717.082886
v 262.192993 5.33977509 -719.082031
v 296.839111 17.7920532 -725.169434
v 38.6560059 53.1019325 -637.036499
v -6.90856934 48.1422997 -646.075073
v 36.0452881 35.4375725 -642.976074
v -50.169281 43.4334145 -660.888306
v -10.0124512 29.8840752 -655.232544
v 34.5118408 19.047184 -655.232544
v -90.045929 39.092865 -681.106689
v -52.5874634 25.0718002 -673.177856
v -11.4685669 13.5293732 -670.723389
v 34.0064087 3.99545288 -673.177979
v -125.543121 35.2290688 -706.22522
v -91.4189453 21.0231018 -696.507202
v -53.3153687 8.9744072 -691.940674
v -11.4685669 -1.21084213 -691.940674
v 34.5118408 -9.62759399 -696.507324
v -155.774567 31.9383736 -735.616821
v -126.065094 17.7920532 -725.169434
v -91.4189453 5.33977509 -719.082031
v -52.5874634 -5.43018532 -717.082886
v -10.0124512 -14.4739914 -719.082031
v 36.0452881 -21.6644821 -725.169434
v 5.55047607 66.8786469 -642.976074
v -24.4482422 79.8368073 -655.232544
v -41.4550476 62.3023033 -655.232544
v -51.266571 91.9143524 -673.177856
v -71.3286133 75.2468109 -670.723389
v -84.3424377 57.8120918 -673.177856
v -74.7602539 103.035156 -696.507202
v -97.1913757 87.1719055 -691.940674
v -113.175446 70.6918488 -691.940674
v -122.861511 53.4412956 -696.507202
v -94.6393127 113.075195 -725.169434
v -119.284576 98.1887207 -719.082031
v -137.860474 82.4887085 -717.082886
v -150.379089 66.129364 -719.082031
v -156.559967 49.2331123 -725.169434
g 
f 3 1 2
f 5 2 4
f 6 3 5
f 8 4 7
f 9 5 8
f 10 6 9
f 12 7 11
f 13 8 12
f 14 9 13
f 15 10 14
f 17 11 16
f 18 12 17
f 19 13 18
f 20 14 19
f 21 15 20
f 23 16 22
f 24 17 23
f 25 18 24
f 26 19 25
f 27 20 26
f 28 21 27
f 30 22 29
f 31 23 30
f 32 24 31
f 33 25 32
f 34 26 33
f 35 27 34
f 36 28 35
f 3 2 5
f 5 4 8
f 6 5 9
f 8 7 12
f 9 8 13
f 10 9 14
f 12 11 17
f 13 12 18
f 14 13 19
f 15 14 20
f 17 16 23
f 18 17 24
f 19 18 25
f 20 19 26
f 21 20 27
f 23 22 30
f 24 23 31
f 25 24 32
f 26 25 33
f 27 26 34
f 28 27 35
f 37 1 3
f 38 3 6
f 39 37 38
f 40 6 10
f 41 38 40
f 42 39 41
f 43 10 15
f 44 40 43
f 45 41 44
f 46 42 45
f 47 15 21
f 48 43 47
f 49 44 48
f 50 45 49
f 51 46 50
f 52 21 28
f 53 47 52
f 54 48 53
f 55 49 54
f 56 50 55
f 57 51 56
f 58 28 36
f 59 52 58
f 60 53 59
f 61 54 60
f 62 55 61
f 63 56 62
f 64 57 63
f 37 3 38
f 38 6 40
f 39 38 41
f 40 10 43
f 41 40 44
f 42 41 45
f 43 15 47
f 44 43 48
f 45 44 49
f 46 45 50
f 47 21 52
f 48 47 53
f 49 48 54
f 50 49 55
f 51 50 56
f 52 28 58
f 53 52 59
f 54 53 60
f 55 54 61
f 56 55 62
f 57 56 63
f 65 1 37
f 66 37 39
f 67 65 66
f 68 39 42
f 69 66 68
f 70 67 69
f 71 42 46
f 72 68 71
f 73 69 72
f 74 70 73
f 75 46 51
f 76 71 75
f 77 72 76
f 78 73 77
f 79 74 78
f 80 51 57
f 81 75 80
f 82 76 81
f 83 77 82
f 84 78 83
f 85 79 84
f 86 57 64
f 87 80 86
f 88 81 87
f 89 82 88
f 90 83 89
f 91 84 90
f 92 85 91
f 65 37 66
f 66 39 68
f 67 66 69
f 68 42 71
f 69 68 72
f 70 69 73
f 71 46 75
f 72 71 76
f 73 72 77
f 74 73 78
f 75 51 80
f 76 75 81
f 77 76 82
f 78 77 83
f 79 78 84
f 80 57 86
f 81 80 87
f 82 81 88
f 83 82 89
f 84 83 90
f 85 84 91
f 93 1 65
f 94 65 67
f 95 93 94
f 96 67 70
f 97 94 96
f 98 95 97
f 99 70 74
f 100 96 99
f 101 97 100
f 102 98 101
f 103 74 79
f 104 99 103
f 105 100 104
f 106 101 105
f 107 102 106
f 108 79 85
f 109 103 108
f 110 104 109
f 111 105 110
f 112 106 111
f 113 107 112
f 114 85 92
f 115 108 114
f 116 109 115
f 117 110 116
f 118 111 117
f 119 112 118
f 120 113 119
f 93 65 94
f 94 67 96
f 95 94 97
f 96 70 99
f 97 96 100
f 98 97 101
f 99 74 103
f 100 99 104
f 101 100 105
f 102 101 106
f 103 79 108
f 104 103 109
f 105 104 110
f 106 105 111
f 107 106 112
f 108 85 114
f 109 108 115
f 110 109 116
f 111 110 117
f 112 111 118
f 113 112 119
f 2 1 93
f 121 93 95
f 4 2 121
f 122 95 98
f 123 121 122
f 7 4 123
f 124 98 102
f 125 122 124
f 126 123 125
f 11 7 126
f 127 102 107
f 128 124 127
f 129 125 128
f 130 126 129
f 16 11 130
f 131 107 113
f 132 127 131
f 133 128 132
f 134 129 133
f 135 130 134
f 22 16 135
f 136 113 120
f 137 131 136
f 138 132 137
f 139 133 138
f 140 134 139
f 141 135 140
f 29 22 141
f 2 93 121
f 121 95 122
f 4 121 123
f 122 98 124
f 123 122 125
f 7 123 126
f 124 102 127
f 125 124 128
f 126 125 129
f 11 126 130
f 127 107 131
f 128 127 132
f 129 128 133
f 130 129 134
f 16 130 135
f 131 113 136
f 132 131 137
f 133 132 138
f 134 133 139
f 135 134 140
f 22 135 141
f 142 29 141
f 143 141 140
f 144 142 143
f 145 140 139
f 146 143 145
f 147 144 146
f 148 139 138
f 149 145 148
f 150 146 149
f 151 147 150
f 152 138 137
f 153 148 152
f 154 149 153
f 155 150 154
f 156 151 155
f 157 137 136
f 158 152 157
f 159 153 158
f 160 154 159
f 161 155 160
f 162 156 161
f 163 136 120
f 164 157 163
f 165 158 164
f 166 159 165
f 167 160 166
f 168 161 167
f 169 162 168
f 142 141 143
f 143 140 145
f 144 143 146
f 145 139 148
f 146 145 149
f 147 146 150
f 148 138 152
f 149 148 153
f 150 149 154
f 151 150 155
f 152 137 157
f 153 152 158
f 154 153 159
f 155 154 160
f 156 155 161
f 157 136 163
f 158 157 164
f 159 158 165
f 160 159 166
f 161 160 167
f 162 161 168
f 170 120 119
f 171 119 118
f 172 170 171
f 173 118 117
f 174 171 173
f 175 172 174
f 176 117 116
f 177 173 176
f 178 174 177
f 179 175 178
f 180 116 115
f 181 176 180
f 182 177 181
f 183 178 182
f 184 179 183
f 185 115 114
f 186 180 185
f 187 181 186
f 188 182 187
f 189 183 188
f 190 184 189
f 191 114 92
f 192 185 191
f 193 186 192
f 194 187 193
f 195 188 194
f 196 189 195
f 197 190 196
f 170 119 171
f 171 118 173
f 172 171 174
f 173 117 176
f 174 173 177
f 175 174 178
f 176 116 180
f 177 176 181
f 178 177 182
f 179 178 183
f 180 115 185
f 181 180 186
f 182 181 187
f 183 182 188
f 184 183 189
f 185 114 191
f 186 185 192
f 187 186 193
f 188 187 194
f 189 188 195
f 190 189 196
f 198 92 91
f 199 91 90
f 200 198 199
f 201 90 89
f 202 199 201
f 203 200 202
f 204 89 88
f 205 201 204
f 206 202 205
f 207 203 206
f 208 88 87
f 209 204 208
f 210 205 209
f 211 206 210
f 212 207 211
f 213 87 86
f 214 208 213
f 215 209 214
f 216 210 215
f 217 211 216
f 218 212 217
f 219 86 64
f 220 213 219
f 221 214 220
f 222 215 221
f 223 216 222
f 224 217 223
f 225 218 224
f 198 91 199
f 199 90 201
f 200 199 202
f 201 89 204
f 202 201 205
f 203 202 206
f 204 88 208
f 205 204 209
f 206 205 210
f 207 206 211
f 208 87 213
f 209 208 214
f 210 209 215
f 211 210 216
f 212 211 217
f 213 86 219
f 214 213 220
f 215 214 221
f 216 215 222
f 217 216 223
f 218 217 224
f 226 64 63
f 227 63 62
f 228 226 227
f 229 62 61
f 230 227 229
f 231 228 230
f 232 61 60
f 233 229 232
f 234 230 233
f 235 231 234
f 236 60 59
f 237 232 236
f 238 233 237
f 239 234 238
f 240 235 239
f 241 59 58
f 242 236 241
f 243 237 242
f 244 238 243
f 245 239 244
f 246 240 245
f 247 58 36
f 248 241 247
f 249 242 248
f 250 243 249
f 251 244 250
f 252 245 251
f 253 246 252
f 226 63 227
f 227 62 229
f 228 227 230
f 229 61 232
f 230 229 233
f 231 230 234
f 232 60 236
f 233 232 237
f 234 233 238
f 235 234 239
f 236 59 241
f 237 236 242
f 238 237 243
f 239 238 244
f 240 239 245
f 241 58 247
f 242 241 248
f 243 242 249
f 244 243 250
f 245 244 251
f 246 245 252
f 254 36 35
f 255 35 34
f 256 254 255
f 257 34 33
f 258 255 257
f 259 256 258
f 260 33 32
f 261 257 260
f 262 258 261
f 263 259 262
f 264 32 31
f 265 260 264
f 266 261 265
f 267 262 266
f 268 263 267
f 269 31 30
f 270 264 269
f 271 265 270
f 272 266 271
f 273 267 272
f 274 268 273
f 275 30 29
f 276 269 275
f 277 270 276
f 278 271 277
f 279 272 278
f 280 273 279
f 281 274 280
f 254 35 255
f 255 34 257
f 256 255 258
f 257 33 260
f 258 257 261
f 259 258 262
f 260 32 264
f 261 260 265
f 262 261 266
f 263 262 267
f 264 31 269
f 265 264 270
f 266 265 271
f 267 266 272
f 268 267 273
f 269 30 275
f 270 269 276
f 271 270 277
f 272 271 278
f 273 272 279
f 274 273 280
f 275 29 142
f 282 142 144
f 276 275 282
f 283 144 147
f 284 282 283
f 277 276 284
f 285 147 151
f 286 283 285
f 287 284 286
f 278 277 287
f 288 151 156
f 289 285 288
f 290 286 289
f 291 287 290
f 279 278 291
f 292 156 162
f 293 288 292
f 294 289 293
f 295 290 294
f 296 291 295
f 280 279 296
f 297 162 169
f 298 292 297
f 299 293 298
f 300 294 299
f 301 295 300
f 302 296 301
f 281 280 302
f 275 142 282
f 282 144 283
f 276 282 284
f 283 147 285
f 284 283 286
f 277 284 287
f 285 151 288
f 286 285 289
f 287 286 290
f 278 287 291
f 288 156 292
f 289 288 293
f 290 289 294
f 291 290 295
f 279 291 296
f 292 162 297
f 293 292 298
f 294 293 299
f 295 294 300
f 296 295 301
f 280 296 302
f 163 120 170
f 303 170 172
f 164 163 303
f 304 172 175
f 305 303 304
f 165 164 305
f 306 175 179
f 307 304 306
f 308 305 307
f 166 165 308
f 309 179 184
f 310 306 309
f 311 307 310
f 312 308 311
f 167 166 312
f 313 184 190
f 314 309 313
f 315 310 314
f 316 311 315
f 317 312 316
f 168 167 317
f 318 190 197
f 319 313 318
f 320 314 319
f 321 315 320
f 322 316 321
f 323 317 322
f 169 168 323
f 163 170 303
f 303 172 304
f 164 303 305
f 304 175 306
f 305 304 307
f 165 305 308
f 306 179 309
f 307 306 310
f 308 307 311
f 166 308 312
f 309 184 313
f 310 309 314
f 311 310 315
f 312 311 316
f 167 312 317
f 313 190 318
f 314 313 319
f 315 314 320
f 316 315 321
f 317 316 322
f 168 317 323
f 191 92 198
f 324 198 200
f 192 191 324
f 325 200 203
f 326 324 325
f 193 192 326
f 327 203 207
f 328 325 327
f 329 326 328
f 194 193 329
f 330 207 212
f 331 327 330
f 332 328 331
f 333 329 332
f 195 194 333
f 334 212 218
f 335 330 334
f 336 331 335
f 337 332 336
f 338 333 337
f 196 195 338
f 339 218 225
f 340 334 339
f 341 335 340
f 342 336 341
f 343 337 342
f 344 338 343
f 197 196 344
f 191 198 324
f 324 200 325
f 192 324 326
f 325 203 327
f 326 325 328
f 193 326 329
f 327 207 330
f 328 327 331
f 329 328 332
f 194 329 333
f 330 212 334
f 331 330 335
f 332 331 336
f 333 332 337
f 195 333 338
f 334 218 339
f 335 334 340
f 336 335 341
f 337 336 342
f 338 337 343
f 196 338 344
f 219 64 226
f 345 226 228
f 220 219 345
f 346 228 231
f 347 345 346
f 221 220 347
f 348 231 235
f 349 346 348
f 350 347 349
f 222 221 350
f 351 235 240
f 352 348 351
f 353 349 352
f 354 350 353
f 223 222 354
f 355 240 246
f 356 351 355
f 357 352 356
f 358 353 357
f 359 354 358
f 224 223 359
f 360 246 253
f 361 355 360
f 362 356 361
f 363 357 362
f 364 358 363
f 365 359 364
f 225 224 365
f 219 226 345
f 345 228 346
f 220 345 347
f 346 231 348
f 347 346 349
f 221 347 350
f 348 235 351
f 349 348 352
f 350 349 353
f 222 350 354
f 351 240 355
f 352 351 356
f 353 352 357
f 354 353 358
f 223 354 359
f 355 246 360
f 356 355 361
f 357 356 362
f 358 357 363
f 359 358 364
f 224 359 365
f 247 36 254
f 366 254 256
f 248 247 366
f 367 256 259
f 368 366 367
f 249 248 368
f 369 259 263
f 370 367 369
f 371 368 370
f 250 249 371
f 372 263 268
f 373 369 372
f 374 370 373
f 375 371 374
f 251 250 375
f 376 268 274
f 377 372 376
f 378 373 377
f 379 374 378
f 380 375 379
f 252 251 380
f 381 274 281
f 382 376 381
f 383 377 382
f 384 378 383
f 385 379 384
f 386 380 385
f 253 252 386
f 247 254 366
f 366 256 367
f 248 366 368
f 367 259 369
f 368 367 370
f 249 368 371
f 369 263 372
f 370 369 373
f 371 370 374
f 250 371 375
f 372 268 376
f 373 372 377
f 374 373 378
f 375 374 379
f 251 375 380
f 376 274 381
f 377 376 382
f 378 377 383
f 379 378 384
f 380 379 385
f 252 380 386
f 389 387 388
f 391 388 390
f 392 389 391
f 394 390 393
f 395 391 394
f 396 392 395
f 398 393 397
f 399 394 398
f 400 395 399
f 401 396 400
f 403 397 402
f 404 398 403
f 405 399 404
f 406 400 405
f 407 401 406
f 409 402 408
f 410 403 409
f 411 404 410
f 412 405 411
f 413 406 412
f 414 407 413
f 302 408 281
f 301 409 302
f 300 410 301
f 299 411 300
f 298 412 299
f 297 413 298
f 169 414 297
f 389 388 391
f 391 390 394
f 392 391 395
f 394 393 398
f 395 394 399
f 396 395 400
f 398 397 403
f 399 398 404
f 400 399 405
f 401 400 406
f 403 402 409
f 404 403 410
f 405 404 411
f 406 405 412
f 407 406 413
f 409 408 302
f 410 409 301
f 411 410 300
f 412 411 299
f 413 412 298
f 414 413 297
f 388 387 415
f 417 415 416
f 390 388 417
f 419 416 418
f 420 417 419
f 393 390 420
f 422 418 421
f 423 419 422
f 424 420 423
f 397 393 424
f 426 421 425
f 427 422 426
f 428 423 427
f 429 424 428
f 402 397 429
f 431 425 430
f 432 426 431
f 433 427 432
f 434 428 433
f 435 429 434
f 408 402 435
f 386 430 253
f 385 431 386
f 384 432 385
f 383 433 384
f 382 434 383
f 381 435 382
f 281 408 381
f 388 415 417
f 417 416 419
f 390 417 420
f 419 418 422
f 420 419 423
f 393 420 424
f 422 421 426
f 423 422 427
f 424 423 428
f 397 424 429
f 426 425 431
f 427 426 432
f 428 427 433
f 429 428 434
f 402 429 435
f 431 430 386
f 432 431 385
f 433 432 384
f 434 433 383
f 435 434 382
f 408 435 381
f 415 387 436
f 438 436 437
f 416 415 438
f 440 437 439
f 441 438 440
f 418 416 441
f 443 439 442
f 444 440 443
f 445 441 444
f 421 418 445
f 447 442 446
f 448 443 447
f 449 444 448
f 450 445 449
f 425 421 450
f 452 446 451
f 453 447 452
f 454 448 453
f 455 449 454
f 456 450 455
f 430 425 456
f 365 451 225
f 364 452 365
f 363 453 364
f 362 454 363
f 361 455 362
f 360 456 361
f 253 430 360
f 415 436 438
f 438 437 440
f 416 438 441
f 440 439 443
f 441 440 444
f 418 441 445
f 443 442 447
f 444 443 448
f 445 444 449
f 421 445 450
f 447 446 452
f 448 447 453
f 449 448 454
f 450 449 455
f 425 450 456
f 452 451 365
f 453 452 364
f 454 453 363
f 455 454 362
f 456 455 361
f 430 456 360
f 436 387 457
f 459 457 458
f 437 436 459
f 461 458 460
f 462 459 461
f 439 437 462
f 464 460 463
f 465 461 464
f 466 462 465
f 442 439 466
f 468 463 467
f 469 464 468
f 470 465 469
f 471 466 470
f 446 442 471
f 473 467 472
f 474 468 473
f 475 469 474
f 476 470 475
f 477 471 476
f 451 446 477
f 344 472 197
f 343 473 344
f 342 474 343
f 341 475 342
f 340 476 341
f 339 477 340
f 225 451 339
f 436 457 459
f 459 458 461
f 437 459 462
f 461 460 464
f 462 461 465
f 439 462 466
f 464 463 468
f 465 464 469
f 466 465 470
f 442 466 471
f 468 467 473
f 469 468 474
f 470 469 475
f 471 470 476
f 446 471 477
f 473 472 344
f 474 473 343
f 475 474 342
f 476 475 341
f 477 476 340
f 451 477 339
f 457 387 389
f 478 389 392
f 458 457 478
f 479 392 396
f 480 478 479
f 460 458 480
f 481 396 401
f 482 479 481
f 483 480 482
f 463 460 483
f 484 401 407
f 485 481 484
f 486 482 485
f 487 483 486
f 467 463 487
f 488 407 414
f 489 484 488
f 490 485 489
f 491 486 490
f 492 487 491
f 472 467 492
f 323 414 169
f 322 488 323
f 321 489 322
f 320 490 321
f 319 491 320
f 318 492 319
f 197 472 318
f 457 389 478
f 478 392 479
f 458 478 480
f 479 396 481
f 480 479 482
f 460 480 483
f 481 401 484
f 482 481 485
f 483 482 486
f 463 483 487
f 484 407 488
f 485 484 489
f 486 485 490
f 487 486 491
f 467 487 492
f 488 414 323
f 489 488 322
f 490 489 321
f 491 490 320
f 492 491 319
f 472 492 318
