# File exported by Houdini 20.5.445 (www.sidefx.com)
# 492 points
# 2940 vertices
# 980 primitives
# Bounds: [-223.777725, -66.6479034, -1081.48767] to [394.551666, 183.025009, -673.313354]
g 
v 85.3869934 58.188549 -1081.48767
v 85.3869934 77.9359131 -1078.94031
v 131.843781 64.2908478 -1078.94031
v 85.3869934 97.1904144 -1071.36169
v 134.43924 85.4823456 -1073.96008
v 177.141083 70.240799 -1071.36169
v 85.3869934 115.471329 -1058.94104
v 135.963654 105.145462 -1063.68347
v 180.226776 92.1447144 -1063.68347
v 220.14798 75.8899384 -1058.94104
v 85.3869934 132.32225 -1041.98853
v 136.466095 123.202667 -1048.6366
v 181.674286 111.765076 -1050.69458
v 222.552032 97.9178925 -1048.6366
v 259.790741 81.097168 -1041.98853
v 85.3869934 147.322495 -1020.92725
v 135.963654 139.545883 -1029.07556
v 181.674347 129.448547 -1032.90442
v 223.275604 117.229584 -1032.90442
v 261.15567 102.77504 -1029.07556
v 295.07962 85.7324982 -1020.92725
v 85.3869934 160.097595 -996.282959
v 134.43924 153.986282 -1005.04285
v 180.226776 145.360031 -1010.14697
v 222.552032 134.510391 -1011.82336
v 261.15567 121.589966 -1010.14697
v 295.598602 106.651245 -1005.04285
v 325.133759 89.6802216 -996.282959
v 85.3869934 170.328583 -968.670898
v 131.843781 166.199875 -976.41626
v 177.141144 159.374756 -981.689819
v 220.14798 150.023636 -984.359985
v 259.790741 138.379974 -984.359985
v 295.07962 124.734375 -981.689819
v 325.133759 109.427597 -976.41626
v 349.202789 92.8417816 -968.671021
v 114.098846 42.2126045 -1078.94031
v 164.755096 47.7632523 -1073.96008
v 142.094147 26.6354065 -1071.36169
v 211.484894 53.2533836 -1063.68347
v 194.57785 32.2176704 -1063.68347
v 168.673859 11.845808 -1058.94104
v 254.120636 58.6401787 -1048.6366
v 241.183197 37.7241631 -1050.69458
v 221.238861 17.7285461 -1048.6366
v 193.174347 -1.78689575 -1041.98853
v 292.413849 63.8837166 -1029.07556
v 282.784515 43.1886444 -1032.90442
v 266.894257 23.417923 -1032.90442
v 244.594696 4.38714981 -1029.07556
v 214.984161 -13.9223213 -1020.92725
v 325.91452 68.9321747 -1005.04285
v 319.769928 48.6621437 -1010.14697
v 307.324738 29.0362511 -1011.82336
v 288.85788 10.201292 -1010.14697
v 264.357147 -7.65762329 -1005.04285
v 233.558624 -24.2575912 -996.282959
v 353.845673 73.7042542 -976.416382
v 351.786774 54.1793022 -981.689941
v 343.077667 34.754406 -984.360107
v 327.935516 15.9144955 -984.360107
v 306.738373 -1.8700695 -981.689941
v 280.015472 -18.1553307 -976.416382
v 248.434052 -32.5346527 -968.671021
v 56.6751404 42.2126045 -1078.94031
v 85.3869934 24.4515533 -1073.96008
v 28.6798401 26.6354065 -1071.36169
v 112.743134 8.18152809 -1063.68347
v 58.0308838 8.18152809 -1063.68347
v 2.10015869 11.845808 -1058.94104
v 138.590912 -6.54645729 -1048.6366
v 85.3869934 -8.03567123 -1050.69458
v 32.1830139 -6.54645729 -1048.6366
v -22.4004211 -1.78689575 -1041.98853
v 162.759857 -19.6489944 -1029.07556
v 111.097992 -22.3418732 -1032.90442
v 59.6759949 -22.3418732 -1032.90442
v 8.01409912 -19.6490326 -1029.07556
v -44.2102051 -13.9223213 -1020.92725
v 184.988922 -30.9692841 -1005.04285
v 135.403778 -34.8705826 -1010.14697
v 85.3869934 -36.1504402 -1011.82336
v 35.3702087 -34.8705826 -1010.14697
v -14.2149658 -30.9692841 -1005.04285
v -62.7846375 -24.2575912 -996.282959
v 204.846771 -40.233551 -976.416382
v 158.277069 -45.4755249 -981.689819
v 109.887604 -48.1296539 -984.360107
v 60.8864136 -48.1296539 -984.360107
v 12.4970093 -45.4755249 -981.689819
v -34.0727234 -40.233551 -976.416382
v -77.6601257 -32.5346527 -968.671021
v 38.9302063 64.2908478 -1078.94031
v 6.01889038 47.7632523 -1073.96008
v -6.36709595 70.240799 -1071.36169
v -23.803894 32.2176704 -1063.68347
v -40.710907 53.2533836 -1063.68347
v -49.3739929 75.8899384 -1058.94104
v -50.4648132 17.7285461 -1048.6366
v -70.4092407 37.7241631 -1050.69458
v -83.3466492 58.6401787 -1048.6366
v -89.0167542 81.097168 -1041.98853
v -73.8207397 4.38714981 -1029.07556
v -96.1203003 23.417923 -1032.90442
v -112.010529 43.1886444 -1032.90442
v -121.639801 63.8837166 -1029.07556
v -124.305634 85.7324982 -1020.92725
v -93.5831299 -7.65762329 -1005.04285
v -118.083862 10.201292 -1010.14697
v -136.550781 29.0362511 -1011.82336
v -148.995911 48.6621437 -1010.14697
v -155.140594 68.9321747 -1005.04285
v -154.359772 89.6802216 -996.282959
v -109.241516 -18.1553307 -976.416382
v -135.964355 -1.8700695 -981.689941
v -157.161469 15.9144955 -984.360107
v -172.303711 34.754406 -984.360107
v -181.012863 54.1793022 -981.689941
v -183.071686 73.7042542 -976.416382
v -178.428772 92.8417816 -968.671021
v 36.3348389 85.4823456 -1073.96008
v -9.45278931 92.1447144 -1063.68347
v 34.8103638 105.145462 -1063.68347
v -51.7780151 97.9178925 -1048.6366
v -10.9003601 111.765076 -1050.69458
v 34.3078918 123.202667 -1048.6366
v -90.3816528 102.77504 -1029.07556
v -52.5016479 117.229584 -1032.90442
v -10.9003601 129.448547 -1032.90442
v 34.8103638 139.545883 -1029.07556
v -124.824585 106.651245 -1005.04285
v -90.3816528 121.589966 -1010.14697
v -51.7780151 134.510391 -1011.82336
v -9.45278931 145.360031 -1010.14697
v 36.3347778 153.986282 -1005.04285
v -154.359711 109.427597 -976.41626
v -124.305634 124.734375 -981.689819
v -89.0167542 138.379974 -984.359985
v -49.3739929 150.023636 -984.359985
v -6.36709595 159.374756 -981.689819
v 38.9302063 166.199875 -976.41626
v 56.6751404 176.073532 -944.271729
v 6.01885986 170.854767 -950.125854
v 28.6798401 178.875671 -918.202881
v -40.710907 162.752731 -953.523315
v -23.803894 172.160187 -922.896484
v 2.10015869 178.665009 -891.115356
v -83.3466492 152.075912 -954.637085
v -70.4091492 162.560608 -925.104858
v -50.4647827 170.372131 -895.072021
v -22.4004211 175.446747 -863.685669
v -121.639771 138.982666 -953.523315
v -112.010437 150.34166 -925.104858
v -96.1202087 159.18335 -896.319824
v -73.8206177 165.590302 -866.89978
v -44.210144 169.3013 -836.598145
v -155.140533 123.519745 -950.125854
v -148.99585 135.389328 -922.896484
v -136.550659 145.087341 -895.072021
v -118.08374 152.589523 -866.89978
v -93.5830688 157.771683 -838.615479
v -62.7846375 160.38208 -810.529297
v -183.071609 105.656174 -944.271729
v -181.012756 117.285675 -918.202881
v -172.303558 127.439896 -891.115356
v -157.161407 135.865326 -863.685669
v -135.964264 142.351685 -836.598145
v -109.241455 146.736969 -810.529297
v -77.6601257 148.911743 -786.130005
v -200.816559 83.5779419 -944.271729
v -204.192795 62.4889565 -950.125854
v -216.059753 73.6802216 -918.202881
v -199.572617 42.0187073 -953.523315
v -216.479599 51.4261322 -922.896484
v -223.777725 63.395771 -891.115356
v -187.629883 22.326786 -954.637085
v -208.297852 30.5409279 -925.104858
v -220.511719 40.623024 -895.072021
v -223.777725 52.9813194 -863.685669
v -168.660492 3.55785179 -953.523315
v -192.407562 10.7702446 -925.104858
v -208.297852 19.6119232 -896.319824
v -216.479553 30.1654892 -866.89978
v -216.059753 42.696846 -836.598145
v -142.635376 -14.1007996 -950.125854
v -168.660492 -8.07039261 -922.896484
v -187.629807 -0.28862381 -895.072021
v -199.572525 9.12979507 -866.89978
v -204.192764 20.151144 -838.615479
v -200.816559 32.7991714 -810.529297
v -109.241455 -30.3598938 -944.271729
v -135.964264 -25.974617 -918.202881
v -157.161407 -19.4882469 -891.115356
v -172.303558 -11.0628281 -863.685669
v -181.012756 -0.908565521 -836.598145
v -183.071609 10.7209072 -810.529297
v -178.428772 23.5353241 -786.130005
v -62.7846375 -44.0049896 -944.271729
v -14.2149658 -51.8199005 -950.125854
v -44.210144 -52.9242401 -918.202881
v 35.3702087 -56.3692322 -953.523315
v 8.01409912 -59.962532 -922.896484
v -22.4004211 -59.069664 -891.115356
v 85.3869934 -57.8625946 -954.637085
v 59.6759949 -63.2707138 -925.104858
v 32.1830139 -64.85112 -895.072021
v 2.10015869 -62.2878723 -863.685669
v 135.403778 -56.3692322 -953.523315
v 111.097992 -63.2707138 -925.104858
v 85.3869934 -66.6479034 -896.319824
v 58.0308838 -66.5323944 -866.89978
v 28.6798401 -62.4986115 -836.598145
v 184.988922 -51.8199005 -950.125854
v 162.759857 -59.962532 -922.896484
v 138.590912 -64.85112 -895.072021
v 112.743134 -66.5323944 -866.89978
v 85.3869934 -64.9029541 -838.615479
v 56.6751404 -59.6964264 -810.529358
v 233.558624 -44.0049896 -944.271729
v 214.984161 -52.9242401 -918.202881
v 193.174347 -59.069664 -891.115356
v 168.673859 -62.2878723 -863.685669
v 142.094147 -62.4986115 -836.598145
v 114.098846 -59.6964264 -810.529358
v 85.3869934 -53.9515076 -786.130005
v 280.015472 -30.3598938 -944.271729
v 313.409393 -14.1007996 -950.125854
v 306.738251 -25.974617 -918.202881
v 339.434418 3.55785179 -953.523315
v 339.434418 -8.07039261 -922.896484
v 327.935394 -19.4882469 -891.115356
v 358.403839 22.326786 -954.637085
v 363.181549 10.7702446 -925.104858
v 358.403717 -0.28862381 -895.072021
v 343.077606 -11.0628281 -863.685669
v 370.346649 42.0187073 -953.523315
v 379.071808 30.5409279 -925.104858
v 379.071808 19.6119232 -896.319824
v 370.346527 9.12979507 -866.89978
v 351.786713 -0.908565521 -836.598145
v 374.966705 62.4889565 -950.125854
v 387.253571 51.4261322 -922.896484
v 391.285675 40.623024 -895.072021
v 387.253571 30.1654892 -866.89978
v 374.966644 20.151144 -838.615479
v 353.845612 10.7209072 -810.529297
v 371.590607 83.5779419 -944.271729
v 386.833649 73.6802216 -918.202881
v 394.551666 63.395771 -891.115356
v 394.551666 52.9813194 -863.685669
v 386.833649 42.696846 -836.598145
v 371.590607 32.7991714 -810.529297
v 349.202789 23.5353241 -786.130005
v 353.845612 105.656174 -944.271729
v 325.91452 123.519745 -950.125854
v 351.786713 117.285675 -918.202881
v 292.413727 138.982666 -953.523315
v 319.769745 135.389328 -922.896484
v 343.077606 127.439896 -891.115356
v 254.120636 152.075912 -954.637085
v 282.784515 150.34166 -925.104858
v 307.324677 145.087341 -895.072021
v 327.935394 135.865326 -863.685669
v 211.484894 162.752731 -953.523315
v 241.183197 162.560608 -925.104858
v 266.894135 159.18335 -896.319824
v 288.857819 152.589523 -866.89978
v 306.738251 142.351685 -836.598145
v 164.755096 170.854767 -950.125854
v 194.57785 172.160187 -922.896484
v 221.2388 170.372131 -895.072021
v 244.594635 165.590302 -866.89978
v 264.357147 157.771683 -838.615479
v 280.015472 146.736969 -810.529297
v 114.098846 176.073532 -944.271729
v 142.094147 178.875671 -918.202881
v 168.673859 178.665009 -891.115356
v 193.174347 175.446747 -863.685669
v 214.984161 169.3013 -836.598145
v 233.558624 160.38208 -810.529297
v 248.434052 148.911743 -786.130005
v 85.3869934 181.280045 -916.185303
v 58.0308838 182.909485 -887.901245
v 112.743134 182.909485 -887.901245
v 32.1830139 181.228195 -859.729004
v 85.3869934 183.025009 -858.481079
v 138.590912 181.228195 -859.729004
v 8.01409912 176.3396 -831.904419
v 59.6759949 179.647766 -829.696167
v 111.097992 179.647766 -829.696167
v 162.759857 176.3396 -831.904419
v -14.2149658 168.19696 -804.675049
v 35.3702087 172.746292 -801.277649
v 85.3869934 174.239685 -800.16394
v 135.403778 172.746292 -801.277649
v 184.988922 168.19696 -804.675049
v -34.0727234 156.610657 -778.384644
v 12.4970093 161.8526 -773.111023
v 60.8864136 164.50676 -770.440918
v 109.887604 164.50676 -770.440918
v 158.277069 161.8526 -773.111023
v 204.846771 156.610657 -778.384644
v -204.192764 96.2259674 -916.185303
v -216.479553 86.2115784 -887.901245
v -199.572525 107.247314 -887.901245
v -220.511719 75.7540894 -859.729004
v -208.297852 96.7651367 -858.481079
v -187.629807 116.665726 -859.729004
v -216.479599 64.9509583 -831.904419
v -208.297852 85.8361664 -829.696167
v -192.407562 105.606857 -829.696167
v -168.660492 124.447479 -831.904419
v -204.192795 53.8881264 -804.675049
v -199.572617 74.3583984 -801.277588
v -187.629883 94.050293 -800.16394
v -168.660492 112.819244 -801.277588
v -142.635376 130.477905 -804.675049
v -183.071686 42.6728287 -778.384644
v -181.012863 62.1977882 -773.111023
v -172.303711 81.6226807 -770.440857
v -157.161469 100.462601 -770.440857
v -135.964355 118.247162 -773.111023
v -109.241516 134.532394 -778.384644
v -93.5830688 -41.3945923 -916.185303
v -73.8206177 -49.2132416 -887.901245
v -118.08374 -36.2124405 -887.901245
v -50.4647827 -53.9950562 -859.729004
v -96.1202087 -42.8062744 -858.481079
v -136.550659 -28.7102737 -859.729004
v -23.803894 -55.7830505 -831.904419
v -70.4091492 -46.183548 -829.696167
v -112.010437 -33.9645538 -829.696167
v -148.99585 -19.012249 -831.904419
v 6.01885986 -54.4777222 -804.67511
v -40.7108459 -46.3756409 -801.277649
v -83.3466492 -35.6988068 -800.16394
v -121.639771 -22.6055946 -801.277649
v -155.140503 -7.1426506 -804.67511
v 38.9302063 -49.8228149 -778.384705
v -6.36709595 -42.997673 -773.111084
v -49.3739929 -33.6465492 -770.440918
v -89.0167542 -22.0028801 -770.440918
v -124.305634 -8.35728455 -773.111084
v -154.359711 6.94950867 -778.384705
v 264.357147 -41.3945923 -916.185303
v 288.857819 -36.2124405 -887.901245
v 244.594635 -49.2132416 -887.901245
v 307.324677 -28.7102737 -859.729004
v 266.894135 -42.8062744 -858.481079
v 221.2388 -53.9950562 -859.729004
v 319.769745 -19.012249 -831.904419
v 282.784515 -33.9645538 -829.696167
v 241.183197 -46.183548 -829.696167
v 194.57785 -55.7831268 -831.904419
v 325.914398 -7.1426506 -804.67511
v 292.413727 -22.6055946 -801.277649
v 254.120636 -35.6988068 -800.16394
v 211.484894 -46.3756409 -801.277649
v 164.755096 -54.4777222 -804.67511
v 325.133759 6.94950867 -778.384705
v 295.07962 -8.35728455 -773.111084
v 259.790741 -22.0028801 -770.440918
v 220.14798 -33.6465492 -770.440918
v 177.141144 -42.997673 -773.111084
v 131.843781 -49.8228149 -778.384705
v 374.966644 96.2259674 -916.185303
v 370.346649 107.247314 -887.901245
v 387.253571 86.2115784 -887.901245
v 358.403717 116.665726 -859.729004
v 379.071808 96.7651367 -858.481079
v 391.285675 75.7540894 -859.729004
v 339.434418 124.447479 -831.904419
v 363.181549 105.606857 -829.696167
v 379.071808 85.8361664 -829.696167
v 387.253571 64.9509583 -831.904419
v 313.409393 130.477875 -804.675049
v 339.434418 112.819244 -801.277588
v 358.403839 94.050293 -800.16394
v 370.346649 74.3583984 -801.277588
v 374.966705 53.8881264 -804.675049
v 280.015472 134.532394 -778.384644
v 306.738373 118.247162 -773.111023
v 327.935516 100.462601 -770.440857
v 343.077667 81.6226807 -770.440857
v 351.786774 62.1977882 -773.111023
v 353.845673 42.6728287 -778.384644
v 85.3869934 58.188549 -673.313354
v 114.098846 74.164505 -675.860718
v 56.6751404 74.164505 -675.860718
v 142.094147 89.7416992 -683.439331
v 85.3869934 91.9255066 -680.840881
v 28.6798401 89.7416992 -683.439331
v 168.673859 104.531281 -695.859802
v 112.743134 108.195572 -691.117615
v 58.0308838 108.195572 -691.117615
v 2.10015869 104.531281 -695.859802
v 193.174347 118.163971 -712.8125
v 138.590912 122.923569 -706.164368
v 85.3869934 124.412766 -704.106384
v 32.1830139 122.923569 -706.164368
v -22.4004211 118.163971 -712.8125
v 214.984161 130.299438 -733.873779
v 162.759857 136.026077 -725.725525
v 111.097992 138.718979 -721.896545
v 59.6759949 138.718979 -721.896545
v 8.01409912 136.026123 -725.725525
v -44.2102051 130.299438 -733.873779
v 233.558624 140.634689 -758.518066
v 184.988922 147.346375 -749.758118
v 135.403778 151.247681 -744.653992
v 85.3869934 152.527527 -742.977661
v 35.3702087 151.247681 -744.653992
v -14.2149658 147.346375 -749.758118
v -62.7846375 140.634689 -758.518066
v 131.843781 52.0862389 -675.860718
v 177.141083 46.1362648 -683.439331
v 164.755096 68.6138306 -680.840881
v 220.14798 40.4871712 -695.859802
v 211.484894 63.1237068 -691.117615
v 194.57785 84.1594238 -691.117615
v 259.790741 35.2799301 -712.8125
v 254.120636 57.7369118 -706.164368
v 241.183197 78.6529388 -704.106384
v 221.238861 98.6485596 -706.164368
v 295.07962 30.6445923 -733.873779
v 292.413849 52.4933701 -725.725525
v 282.784515 73.1884613 -721.896545
v 266.894257 92.9591675 -721.896545
v 244.594696 111.989914 -725.725525
v 325.133759 26.6968689 -758.518066
v 325.91452 47.4449387 -749.758118
v 319.769928 67.7149353 -744.653992
v 307.324738 87.3408508 -742.977661
v 288.85788 106.175781 -744.653992
v 264.357147 124.034683 -749.758118
v 85.3869934 38.4411697 -675.860718
v 85.3869934 19.1866856 -683.439331
v 134.43924 30.8947678 -680.840881
v 85.3869934 0.905754089 -695.859802
v 135.963654 11.2316227 -691.117615
v 180.226776 24.2323761 -691.117615
v 85.3869934 -15.9451599 -712.8125
v 136.466095 -6.82556534 -706.164368
v 181.674286 4.61200714 -704.106384
v 222.552032 18.4592075 -706.164368
v 85.3869934 -30.9454193 -733.87384
v 135.963654 -23.1687927 -725.725525
v 181.674347 -13.0714684 -721.896606
v 223.275604 -0.85251236 -721.896606
v 261.15567 13.6020432 -725.725525
v 85.3869934 -43.7205048 -758.518066
v 134.43924 -37.6091919 -749.758118
v 180.226776 -28.982933 -744.653992
v 222.552032 -18.1333084 -742.977722
v 261.15567 -5.21289062 -744.653992
v 295.598602 9.72583389 -749.758118
v 38.9302063 52.0862389 -675.860718
v -6.36709595 46.1362648 -683.439331
v 36.3348389 30.8947678 -680.840881
v -49.3739929 40.4871712 -695.859802
v -9.45278931 24.2323761 -691.117615
v 34.8103638 11.2316227 -691.117615
v -89.0167542 35.2799301 -712.8125
v -51.7780151 18.4592075 -706.164368
v -10.9003601 4.61200714 -704.106384
v 34.3078918 -6.82556534 -706.164368
v -124.305634 30.6445923 -733.873779
v -90.3816528 13.6020432 -725.725525
v -52.5016479 -0.85251236 -721.896606
v -10.9003601 -13.0714684 -721.896606
v 34.8103638 -23.1687927 -725.725525
v -154.359772 26.6968689 -758.518066
v -124.824585 9.72583389 -749.758118
v -90.3816528 -5.21289062 -744.653992
v -51.7780151 -18.1333084 -742.977722
v -9.45278931 -28.982933 -744.653992
v 36.3347778 -37.6091919 -749.758118
v 6.01889038 68.6138306 -680.840881
v -23.803894 84.1594238 -691.117615
v -40.710907 63.1237068 -691.117615
v -50.4648132 98.6485596 -706.164368
v -70.4092407 78.6529388 -704.106384
v -83.3466492 57.7369118 -706.164368
v -73.8207397 111.989914 -725.725525
v -96.1203003 92.9591675 -721.896545
v -112.010529 73.1884613 -721.896545
v -121.639801 52.4933701 -725.725525
v -93.5831299 124.034683 -749.758057
v -118.083862 106.175781 -744.653992
v -136.550781 87.3408508 -742.977661
v -148.995911 67.7149353 -744.653992
v -155.140594 47.4449387 -749.758118
g 
f 3 1 2
f 5 2 4
f 6 3 5
f 8 4 7
f 9 5 8
f 10 6 9
f 12 7 11
f 13 8 12
f 14 9 13
f 15 10 14
f 17 11 16
f 18 12 17
f 19 13 18
f 20 14 19
f 21 15 20
f 23 16 22
f 24 17 23
f 25 18 24
f 26 19 25
f 27 20 26
f 28 21 27
f 30 22 29
f 31 23 30
f 32 24 31
f 33 25 32
f 34 26 33
f 35 27 34
f 36 28 35
f 3 2 5
f 5 4 8
f 6 5 9
f 8 7 12
f 9 8 13
f 10 9 14
f 12 11 17
f 13 12 18
f 14 13 19
f 15 14 20
f 17 16 23
f 18 17 24
f 19 18 25
f 20 19 26
f 21 20 27
f 23 22 30
f 24 23 31
f 25 24 32
f 26 25 33
f 27 26 34
f 28 27 35
f 37 1 3
f 38 3 6
f 39 37 38
f 40 6 10
f 41 38 40
f 42 39 41
f 43 10 15
f 44 40 43
f 45 41 44
f 46 42 45
f 47 15 21
f 48 43 47
f 49 44 48
f 50 45 49
f 51 46 50
f 52 21 28
f 53 47 52
f 54 48 53
f 55 49 54
f 56 50 55
f 57 51 56
f 58 28 36
f 59 52 58
f 60 53 59
f 61 54 60
f 62 55 61
f 63 56 62
f 64 57 63
f 37 3 38
f 38 6 40
f 39 38 41
f 40 10 43
f 41 40 44
f 42 41 45
f 43 15 47
f 44 43 48
f 45 44 49
f 46 45 50
f 47 21 52
f 48 47 53
f 49 48 54
f 50 49 55
f 51 50 56
f 52 28 58
f 53 52 59
f 54 53 60
f 55 54 61
f 56 55 62
f 57 56 63
f 65 1 37
f 66 37 39
f 67 65 66
f 68 39 42
f 69 66 68
f 70 67 69
f 71 42 46
f 72 68 71
f 73 69 72
f 74 70 73
f 75 46 51
f 76 71 75
f 77 72 76
f 78 73 77
f 79 74 78
f 80 51 57
f 81 75 80
f 82 76 81
f 83 77 82
f 84 78 83
f 85 79 84
f 86 57 64
f 87 80 86
f 88 81 87
f 89 82 88
f 90 83 89
f 91 84 90
f 92 85 91
f 65 37 66
f 66 39 68
f 67 66 69
f 68 42 71
f 69 68 72
f 70 69 73
f 71 46 75
f 72 71 76
f 73 72 77
f 74 73 78
f 75 51 80
f 76 75 81
f 77 76 82
f 78 77 83
f 79 78 84
f 80 57 86
f 81 80 87
f 82 81 88
f 83 82 89
f 84 83 90
f 85 84 91
f 93 1 65
f 94 65 67
f 95 93 94
f 96 67 70
f 97 94 96
f 98 95 97
f 99 70 74
f 100 96 99
f 101 97 100
f 102 98 101
f 103 74 79
f 104 99 103
f 105 100 104
f 106 101 105
f 107 102 106
f 108 79 85
f 109 103 108
f 110 104 109
f 111 105 110
f 112 106 111
f 113 107 112
f 114 85 92
f 115 108 114
f 116 109 115
f 117 110 116
f 118 111 117
f 119 112 118
f 120 113 119
f 93 65 94
f 94 67 96
f 95 94 97
f 96 70 99
f 97 96 100
f 98 97 101
f 99 74 103
f 100 99 104
f 101 100 105
f 102 101 106
f 103 79 108
f 104 103 109
f 105 104 110
f 106 105 111
f 107 106 112
f 108 85 114
f 109 108 115
f 110 109 116
f 111 110 117
f 112 111 118
f 113 112 119
f 2 1 93
f 121 93 95
f 4 2 121
f 122 95 98
f 123 121 122
f 7 4 123
f 124 98 102
f 125 122 124
f 126 123 125
f 11 7 126
f 127 102 107
f 128 124 127
f 129 125 128
f 130 126 129
f 16 11 130
f 131 107 113
f 132 127 131
f 133 128 132
f 134 129 133
f 135 130 134
f 22 16 135
f 136 113 120
f 137 131 136
f 138 132 137
f 139 133 138
f 140 134 139
f 141 135 140
f 29 22 141
f 2 93 121
f 121 95 122
f 4 121 123
f 122 98 124
f 123 122 125
f 7 123 126
f 124 102 127
f 125 124 128
f 126 125 129
f 11 126 130
f 127 107 131
f 128 127 132
f 129 128 133
f 130 129 134
f 16 130 135
f 131 113 136
f 132 131 137
f 133 132 138
f 134 133 139
f 135 134 140
f 22 135 141
f 142 29 141
f 143 141 140
f 144 142 143
f 145 140 139
f 146 143 145
f 147 144 146
f 148 139 138
f 149 145 148
f 150 146 149
f 151 147 150
f 152 138 137
f 153 148 152
f 154 149 153
f 155 150 154
f 156 151 155
f 157 137 136
f 158 152 157
f 159 153 158
f 160 154 159
f 161 155 160
f 162 156 161
f 163 136 120
f 164 157 163
f 165 158 164
f 166 159 165
f 167 160 166
f 168 161 167
f 169 162 168
f 142 141 143
f 143 140 145
f 144 143 146
f 145 139 148
f 146 145 149
f 147 146 150
f 148 138 152
f 149 148 153
f 150 149 154
f 151 150 155
f 152 137 157
f 153 152 158
f 154 153 159
f 155 154 160
f 156 155 161
f 157 136 163
f 158 157 164
f 159 158 165
f 160 159 166
f 161 160 167
f 162 161 168
f 170 120 119
f 171 119 118
f 172 170 171
f 173 118 117
f 174 171 173
f 175 172 174
f 176 117 116
f 177 173 176
f 178 174 177
f 179 175 178
f 180 116 115
f 181 176 180
f 182 177 181
f 183 178 182
f 184 179 183
f 185 115 114
f 186 180 185
f 187 181 186
f 188 182 187
f 189 183 188
f 190 184 189
f 191 114 92
f 192 185 191
f 193 186 192
f 194 187 193
f 195 188 194
f 196 189 195
f 197 190 196
f 170 119 171
f 171 118 173
f 172 171 174
f 173 117 176
f 174 173 177
f 175 174 178
f 176 116 180
f 177 176 181
f 178 177 182
f 179 178 183
f 180 115 185
f 181 180 186
f 182 181 187
f 183 182 188
f 184 183 189
f 185 114 191
f 186 185 192
f 187 186 193
f 188 187 194
f 189 188 195
f 190 189 196
f 198 92 91
f 199 91 90
f 200 198 199
f 201 90 89
f 202 199 201
f 203 200 202
f 204 89 88
f 205 201 204
f 206 202 205
f 207 203 206
f 208 88 87
f 209 204 208
f 210 205 209
f 211 206 210
f 212 207 211
f 213 87 86
f 214 208 213
f 215 209 214
f 216 210 215
f 217 211 216
f 218 212 217
f 219 86 64
f 220 213 219
f 221 214 220
f 222 215 221
f 223 216 222
f 224 217 223
f 225 218 224
f 198 91 199
f 199 90 201
f 200 199 202
f 201 89 204
f 202 201 205
f 203 202 206
f 204 88 208
f 205 204 209
f 206 205 210
f 207 206 211
f 208 87 213
f 209 208 214
f 210 209 215
f 211 210 216
f 212 211 217
f 213 86 219
f 214 213 220
f 215 214 221
f 216 215 222
f 217 216 223
f 218 217 224
f 226 64 63
f 227 63 62
f 228 226 227
f 229 62 61
f 230 227 229
f 231 228 230
f 232 61 60
f 233 229 232
f 234 230 233
f 235 231 234
f 236 60 59
f 237 232 236
f 238 233 237
f 239 234 238
f 240 235 239
f 241 59 58
f 242 236 241
f 243 237 242
f 244 238 243
f 245 239 244
f 246 240 245
f 247 58 36
f 248 241 247
f 249 242 248
f 250 243 249
f 251 244 250
f 252 245 251
f 253 246 252
f 226 63 227
f 227 62 229
f 228 227 230
f 229 61 232
f 230 229 233
f 231 230 234
f 232 60 236
f 233 232 237
f 234 233 238
f 235 234 239
f 236 59 241
f 237 236 242
f 238 237 243
f 239 238 244
f 240 239 245
f 241 58 247
f 242 241 248
f 243 242 249
f 244 243 250
f 245 244 251
f 246 245 252
f 254 36 35
f 255 35 34
f 256 254 255
f 257 34 33
f 258 255 257
f 259 256 258
f 260 33 32
f 261 257 260
f 262 258 261
f 263 259 262
f 264 32 31
f 265 260 264
f 266 261 265
f 267 262 266
f 268 263 267
f 269 31 30
f 270 264 269
f 271 265 270
f 272 266 271
f 273 267 272
f 274 268 273
f 275 30 29
f 276 269 275
f 277 270 276
f 278 271 277
f 279 272 278
f 280 273 279
f 281 274 280
f 254 35 255
f 255 34 257
f 256 255 258
f 257 33 260
f 258 257 261
f 259 258 262
f 260 32 264
f 261 260 265
f 262 261 266
f 263 262 267
f 264 31 269
f 265 264 270
f 266 265 271
f 267 266 272
f 268 267 273
f 269 30 275
f 270 269 276
f 271 270 277
f 272 271 278
f 273 272 279
f 274 273 280
f 275 29 142
f 282 142 144
f 276 275 282
f 283 144 147
f 284 282 283
f 277 276 284
f 285 147 151
f 286 283 285
f 287 284 286
f 278 277 287
f 288 151 156
f 289 285 288
f 290 286 289
f 291 287 290
f 279 278 291
f 292 156 162
f 293 288 292
f 294 289 293
f 295 290 294
f 296 291 295
f 280 279 296
f 297 162 169
f 298 292 297
f 299 293 298
f 300 294 299
f 301 295 300
f 302 296 301
f 281 280 302
f 275 142 282
f 282 144 283
f 276 282 284
f 283 147 285
f 284 283 286
f 277 284 287
f 285 151 288
f 286 285 289
f 287 286 290
f 278 287 291
f 288 156 292
f 289 288 293
f 290 289 294
f 291 290 295
f 279 291 296
f 292 162 297
f 293 292 298
f 294 293 299
f 295 294 300
f 296 295 301
f 280 296 302
f 163 120 170
f 303 170 172
f 164 163 303
f 304 172 175
f 305 303 304
f 165 164 305
f 306 175 179
f 307 304 306
f 308 305 307
f 166 165 308
f 309 179 184
f 310 306 309
f 311 307 310
f 312 308 311
f 167 166 312
f 313 184 190
f 314 309 313
f 315 310 314
f 316 311 315
f 317 312 316
f 168 167 317
f 318 190 197
f 319 313 318
f 320 314 319
f 321 315 320
f 322 316 321
f 323 317 322
f 169 168 323
f 163 170 303
f 303 172 304
f 164 303 305
f 304 175 306
f 305 304 307
f 165 305 308
f 306 179 309
f 307 306 310
f 308 307 311
f 166 308 312
f 309 184 313
f 310 309 314
f 311 310 315
f 312 311 316
f 167 312 317
f 313 190 318
f 314 313 319
f 315 314 320
f 316 315 321
f 317 316 322
f 168 317 323
f 191 92 198
f 324 198 200
f 192 191 324
f 325 200 203
f 326 324 325
f 193 192 326
f 327 203 207
f 328 325 327
f 329 326 328
f 194 193 329
f 330 207 212
f 331 327 330
f 332 328 331
f 333 329 332
f 195 194 333
f 334 212 218
f 335 330 334
f 336 331 335
f 337 332 336
f 338 333 337
f 196 195 338
f 339 218 225
f 340 334 339
f 341 335 340
f 342 336 341
f 343 337 342
f 344 338 343
f 197 196 344
f 191 198 324
f 324 200 325
f 192 324 326
f 325 203 327
f 326 325 328
f 193 326 329
f 327 207 330
f 328 327 331
f 329 328 332
f 194 329 333
f 330 212 334
f 331 330 335
f 332 331 336
f 333 332 337
f 195 333 338
f 334 218 339
f 335 334 340
f 336 335 341
f 337 336 342
f 338 337 343
f 196 338 344
f 219 64 226
f 345 226 228
f 220 219 345
f 346 228 231
f 347 345 346
f 221 220 347
f 348 231 235
f 349 346 348
f 350 347 349
f 222 221 350
f 351 235 240
f 352 348 351
f 353 349 352
f 354 350 353
f 223 222 354
f 355 240 246
f 356 351 355
f 357 352 356
f 358 353 357
f 359 354 358
f 224 223 359
f 360 246 253
f 361 355 360
f 362 356 361
f 363 357 362
f 364 358 363
f 365 359 364
f 225 224 365
f 219 226 345
f 345 228 346
f 220 345 347
f 346 231 348
f 347 346 349
f 221 347 350
f 348 235 351
f 349 348 352
f 350 349 353
f 222 350 354
f 351 240 355
f 352 351 356
f 353 352 357
f 354 353 358
f 223 354 359
f 355 246 360
f 356 355 361
f 357 356 362
f 358 357 363
f 359 358 364
f 224 359 365
f 247 36 254
f 366 254 256
f 248 247 366
f 367 256 259
f 368 366 367
f 249 248 368
f 369 259 263
f 370 367 369
f 371 368 370
f 250 249 371
f 372 263 268
f 373 369 372
f 374 370 373
f 375 371 374
f 251 250 375
f 376 268 274
f 377 372 376
f 378 373 377
f 379 374 378
f 380 375 379
f 252 251 380
f 381 274 281
f 382 376 381
f 383 377 382
f 384 378 383
f 385 379 384
f 386 380 385
f 253 252 386
f 247 254 366
f 366 256 367
f 248 366 368
f 367 259 369
f 368 367 370
f 249 368 371
f 369 263 372
f 370 369 373
f 371 370 374
f 250 371 375
f 372 268 376
f 373 372 377
f 374 373 378
f 375 374 379
f 251 375 380
f 376 274 381
f 377 376 382
f 378 377 383
f 379 378 384
f 380 379 385
f 252 380 386
f 389 387 388
f 391 388 390
f 392 389 391
f 394 390 393
f 395 391 394
f 396 392 395
f 398 393 397
f 399 394 398
f 400 395 399
f 401 396 400
f 403 397 402
f 404 398 403
f 405 399 404
f 406 400 405
f 407 401 406
f 409 402 408
f 410 403 409
f 411 404 410
f 412 405 411
f 413 406 412
f 414 407 413
f 302 408 281
f 301 409 302
f 300 410 301
f 299 411 300
f 298 412 299
f 297 413 298
f 169 414 297
f 389 388 391
f 391 390 394
f 392 391 395
f 394 393 398
f 395 394 399
f 396 395 400
f 398 397 403
f 399 398 404
f 400 399 405
f 401 400 406
f 403 402 409
f 404 403 410
f 405 404 411
f 406 405 412
f 407 406 413
f 409 408 302
f 410 409 301
f 411 410 300
f 412 411 299
f 413 412 298
f 414 413 297
f 388 387 415
f 417 415 416
f 390 388 417
f 419 416 418
f 420 417 419
f 393 390 420
f 422 418 421
f 423 419 422
f 424 420 423
f 397 393 424
f 426 421 425
f 427 422 426
f 428 423 427
f 429 424 428
f 402 397 429
f 431 425 430
f 432 426 431
f 433 427 432
f 434 428 433
f 435 429 434
f 408 402 435
f 386 430 253
f 385 431 386
f 384 432 385
f 383 433 384
f 382 434 383
f 381 435 382
f 281 408 381
f 388 415 417
f 417 416 419
f 390 417 420
f 419 418 422
f 420 419 423
f 393 420 424
f 422 421 426
f 423 422 427
f 424 423 428
f 397 424 429
f 426 425 431
f 427 426 432
f 428 427 433
f 429 428 434
f 402 429 435
f 431 430 386
f 432 431 385
f 433 432 384
f 434 433 383
f 435 434 382
f 408 435 381
f 415 387 436
f 438 436 437
f 416 415 438
f 440 437 439
f 441 438 440
f 418 416 441
f 443 439 442
f 444 440 443
f 445 441 444
f 421 418 445
f 447 442 446
f 448 443 447
f 449 444 448
f 450 445 449
f 425 421 450
f 452 446 451
f 453 447 452
f 454 448 453
f 455 449 454
f 456 450 455
f 430 425 456
f 365 451 225
f 364 452 365
f 363 453 364
f 362 454 363
f 361 455 362
f 360 456 361
f 253 430 360
f 415 436 438
f 438 437 440
f 416 438 441
f 440 439 443
f 441 440 444
f 418 441 445
f 443 442 447
f 444 443 448
f 445 444 449
f 421 445 450
f 447 446 452
f 448 447 453
f 449 448 454
f 450 449 455
f 425 450 456
f 452 451 365
f 453 452 364
f 454 453 363
f 455 454 362
f 456 455 361
f 430 456 360
f 436 387 457
f 459 457 458
f 437 436 459
f 461 458 460
f 462 459 461
f 439 437 462
f 464 460 463
f 465 461 464
f 466 462 465
f 442 439 466
f 468 463 467
f 469 464 468
f 470 465 469
f 471 466 470
f 446 442 471
f 473 467 472
f 474 468 473
f 475 469 474
f 476 470 475
f 477 471 476
f 451 446 477
f 344 472 197
f 343 473 344
f 342 474 343
f 341 475 342
f 340 476 341
f 339 477 340
f 225 451 339
f 436 457 459
f 459 458 461
f 437 459 462
f 461 460 464
f 462 461 465
f 439 462 466
f 464 463 468
f 465 464 469
f 466 465 470
f 442 466 471
f 468 467 473
f 469 468 474
f 470 469 475
f 471 470 476
f 446 471 477
f 473 472 344
f 474 473 343
f 475 474 342
f 476 475 341
f 477 476 340
f 451 477 339
f 457 387 389
f 478 389 392
f 458 457 478
f 479 392 396
f 480 478 479
f 460 458 480
f 481 396 401
f 482 479 481
f 483 480 482
f 463 460 483
f 484 401 407
f 485 481 484
f 486 482 485
f 487 483 486
f 467 463 487
f 488 407 414
f 489 484 488
f 490 485 489
f 491 486 490
f 492 487 491
f 472 467 492
f 323 414 169
f 322 488 323
f 321 489 322
f 320 490 321
f 319 491 320
f 318 492 319
f 197 472 318
f 457 389 478
f 478 392 479
f 458 478 480
f 479 396 481
f 480 479 482
f 460 480 483
f 481 401 484
f 482 481 485
f 483 482 486
f 463 483 487
f 484 407 488
f 485 484 489
f 486 485 490
f 487 486 491
f 467 487 492
f 488 414 323
f 489 488 322
f 490 489 321
f 491 490 320
f 492 491 319
f 472 492 318
