# File exported by Houdini 20.5.445 (www.sidefx.com)
# 492 points
# 2940 vertices
# 980 primitives
# Bounds: [-210.98587, -83.2494507, -1065.30737] to [381.759766, 199.626556, -689.493652]
g 
v 85.3869934 58.18853 -1065.30737
v 85.3869934 80.5620422 -1062.96191
v 129.92157 65.102356 -1062.96191
v 85.3869934 102.377121 -1055.98413
v 132.409546 89.11203 -1058.37646
v 173.344666 71.8435669 -1055.98413
v 85.3869934 123.089172 -1044.54834
v 133.870972 111.390091 -1048.91455
v 176.302673 96.6604004 -1048.91455
v 214.572083 78.2439575 -1044.54834
v 85.3869934 142.181015 -1028.9397
v 134.352661 131.848648 -1035.06079
v 177.690308 118.890015 -1036.95557
v 216.876709 103.20134 -1035.06079
v 252.574646 84.1436768 -1028.9397
v 85.3869934 159.176102 -1009.54816
v 133.870972 150.365311 -1017.05048
v 177.690308 138.925156 -1020.57587
v 217.570312 125.081253 -1020.57587
v 253.883118 108.704422 -1017.05048
v 286.403442 89.3954468 -1009.54816
v 85.3869934 173.650116 -986.857727
v 132.409668 166.726089 -994.923279
v 176.302673 156.952652 -999.62262
v 216.876709 144.660156 -1001.16608
v 253.883118 130.0215 -999.62262
v 286.900879 113.096115 -994.923279
v 315.213989 93.8681793 -986.857727
v 85.3869934 185.241684 -961.434875
v 129.92157 180.563904 -968.566101
v 173.344666 172.831131 -973.421692
v 214.572083 162.23645 -975.880066
v 252.574646 149.044327 -975.880066
v 286.403442 133.584061 -973.421692
v 315.213989 116.241684 -968.566101
v 338.287109 97.4501801 -961.434998
v 112.910858 40.0880089 -1062.96191
v 161.471191 46.3768234 -1058.37646
v 139.747803 22.4392605 -1055.98413
v 206.267456 52.5970879 -1048.91455
v 190.059998 28.7638893 -1048.91455
v 165.227844 5.68284607 -1044.54834
v 247.139221 58.7002258 -1035.06079
v 234.737061 35.0026665 -1036.95557
v 215.617859 12.347908 -1035.06079
v 188.714539 -9.76281738 -1028.9397
v 283.847778 64.6410828 -1017.05048
v 274.617004 41.1938515 -1020.57587
v 259.384216 18.7938976 -1020.57587
v 238.007324 -2.76771164 -1017.05048
v 209.621948 -23.5120964 -1009.54816
v 315.962524 70.3609161 -994.923279
v 310.072083 47.3952484 -999.62262
v 298.141907 25.1593838 -1001.16608
v 280.439087 3.81963158 -999.62262
v 256.952087 -16.4142761 -994.923279
v 227.427917 -35.2218132 -986.857727
v 342.737976 75.7676239 -968.566223
v 340.764343 53.6461182 -973.421692
v 332.415466 31.63797 -975.880188
v 317.89978 10.292613 -975.880188
v 297.579712 -9.85705566 -973.421692
v 271.962524 -28.3080292 -968.566223
v 241.687866 -44.5996094 -961.434998
v 57.8630676 40.0880089 -1062.96191
v 85.3869934 19.9649849 -1058.37646
v 31.0260925 22.4392605 -1055.98413
v 111.611206 1.53126526 -1048.91455
v 59.1627502 1.53126526 -1048.91455
v 5.5461731 5.68284607 -1044.54834
v 136.389587 -15.1553383 -1035.06079
v 85.3869934 -16.842598 -1036.95557
v 34.3843079 -15.1553383 -1035.06079
v -17.9406738 -9.76281738 -1028.9397
v 159.558472 -30.0003319 -1017.05048
v 110.034149 -33.0513268 -1020.57587
v 60.7397461 -33.0513268 -1020.57587
v 11.2154236 -30.0003738 -1017.05048
v -38.8480835 -23.5120964 -1009.54816
v 180.867737 -42.8260651 -994.923279
v 133.334229 -47.2461853 -999.62262
v 85.3869934 -48.6962509 -1001.16608
v 37.4396362 -47.2461853 -999.62262
v -10.0939026 -42.8260651 -994.923279
v -56.6539612 -35.2218132 -986.857727
v 199.903931 -53.3223572 -968.566223
v 155.261108 -59.2614288 -973.421692
v 108.87381 -62.2685242 -975.880188
v 61.900116 -62.2685242 -975.880188
v 15.5128479 -59.2614288 -973.421692
v -29.1300354 -53.3223572 -968.566223
v -70.9139709 -44.5996094 -961.434998
v 40.8522949 65.102356 -1062.96191
v 9.30273438 46.3768234 -1058.37646
v -2.57077026 71.8435669 -1055.98413
v -19.2860718 28.7638893 -1048.91455
v -35.4935608 52.5970879 -1048.91455
v -43.7981873 78.2439575 -1044.54834
v -44.8439026 12.347908 -1035.06079
v -63.9630737 35.0026665 -1036.95557
v -76.3652039 58.7002258 -1035.06079
v -81.8007202 84.1436768 -1028.9397
v -67.233429 -2.76771164 -1017.05048
v -88.610321 18.7938976 -1020.57587
v -103.843079 41.1938515 -1020.57587
v -113.073975 64.6410828 -1017.05048
v -115.629486 89.3954468 -1009.54816
v -86.1781616 -16.4142761 -994.923279
v -109.665131 3.81963158 -999.62262
v -127.367981 25.1593838 -1001.16608
v -139.298172 47.3952484 -999.62262
v -145.188629 70.3609161 -994.923279
v -144.440109 93.8681793 -986.857727
v -101.188629 -28.3080292 -968.566223
v -126.805817 -9.85705566 -973.421692
v -147.125931 10.292613 -975.880188
v -161.641602 31.63797 -975.880188
v -169.990417 53.6461182 -973.421692
v -171.96405 75.7676239 -968.566223
v -167.513229 97.4501801 -961.434998
v 38.3642883 89.11203 -1058.37646
v -5.52877808 96.6604004 -1048.91455
v 36.9029846 111.390091 -1048.91455
v -46.1028137 103.20134 -1035.06079
v -6.91644287 118.890015 -1036.95557
v 36.4212646 131.848648 -1035.06079
v -83.1091614 108.704422 -1017.05048
v -46.7964478 125.081253 -1020.57587
v -6.91644287 138.925156 -1020.57587
v 36.9029236 150.365311 -1017.05048
v -116.127014 113.096115 -994.923279
v -83.1091614 130.0215 -999.62262
v -46.1028137 144.660156 -1001.16608
v -5.52877808 156.952652 -999.62262
v 38.3642883 166.726089 -994.923279
v -144.440048 116.241684 -968.566101
v -115.629486 133.584061 -973.421692
v -81.8007202 149.044327 -975.880066
v -43.7981873 162.23645 -975.880066
v -2.57077026 172.831131 -973.421692
v 40.8522949 180.563904 -968.566101
v 57.8630676 191.750626 -938.970032
v 9.30273438 185.83783 -944.360046
v 31.0260925 194.925415 -914.967957
v -35.4935608 176.65834 -947.48822
v -19.2860718 187.316849 -919.28949
v 5.5461731 194.686707 -890.028015
v -76.3652039 164.561646 -948.513611
v -63.9630127 176.440659 -921.322815
v -44.8438416 185.291016 -893.670898
v -17.9406738 191.040512 -864.772949
v -113.073914 149.727173 -947.48822
v -103.843018 162.596771 -921.322815
v -88.610199 172.614304 -894.819885
v -67.2333679 179.87326 -867.7323
v -38.8480225 184.077774 -839.832947
v -145.188568 132.207916 -944.360046
v -139.298141 145.655991 -919.28949
v -127.367859 156.643692 -893.670898
v -109.66507 165.14357 -867.7323
v -86.1781006 171.014877 -841.690491
v -56.6539612 173.972412 -815.830933
v -171.963974 111.968719 -938.970032
v -169.990311 125.144775 -914.967957
v -161.641464 136.649368 -890.028015
v -147.125839 146.195282 -864.772949
v -126.805756 153.54422 -839.832947
v -101.188629 158.512711 -815.830933
v -70.9139709 160.976685 -793.366028
v -188.974716 86.954361 -938.970032
v -192.211258 63.0608406 -944.360046
v -203.587219 75.7404022 -914.967957
v -187.782257 39.8683281 -947.48822
v -203.989685 50.5268326 -919.28949
v -210.98587 64.0882416 -890.028015
v -176.333649 17.5576496 -948.513611
v -196.1465 26.8641624 -921.322815
v -207.854996 38.2870407 -893.670898
v -210.98587 52.2888184 -864.772949
v -158.149155 -3.70729446 -947.48822
v -180.913666 4.46424866 -921.322815
v -196.1465 14.4817924 -894.819885
v -203.98967 26.4387932 -867.7323
v -203.587219 40.6366463 -839.832947
v -133.200836 -23.7143021 -944.360046
v -158.149155 -16.8819351 -919.28949
v -176.333603 -8.06529999 -893.670898
v -187.78215 2.60564041 -867.7323
v -192.211243 15.0926781 -841.690491
v -188.974716 29.422718 -815.830933
v -101.188629 -42.1356354 -938.970032
v -126.805756 -37.1671753 -914.967957
v -147.125839 -29.8182068 -890.028015
v -161.641464 -20.2722778 -864.772949
v -169.990311 -8.76768494 -839.832947
v -171.963974 4.40834808 -815.830933
v -167.513229 18.9269066 -793.366028
v -56.6539612 -57.5953369 -938.970032
v -10.0939026 -66.4495316 -944.360046
v -38.8480225 -67.7006836 -914.967957
v 37.4396362 -71.6038055 -947.48822
v 11.2154236 -75.6750183 -919.28949
v -17.9406738 -74.6634064 -890.028015
v 85.3869934 -73.2958069 -948.513611
v 60.7397461 -79.4231415 -921.322815
v 34.3843079 -81.2137299 -893.670898
v 5.5461731 -78.3096008 -864.772949
v 133.334229 -71.6038055 -947.48822
v 110.034149 -79.4231415 -921.322815
v 85.3869934 -83.2494507 -894.819885
v 59.1627502 -83.118576 -867.7323
v 31.0260925 -78.5483704 -839.832947
v 180.867737 -66.4495316 -944.360046
v 159.558472 -75.6750183 -919.28949
v 136.389587 -81.2137299 -893.670898
v 111.611206 -83.118576 -867.7323
v 85.3869934 -81.2724457 -841.690491
v 57.8630676 -75.3735809 -815.830994
v 227.427917 -57.5953369 -938.970032
v 209.621948 -67.7006836 -914.967957
v 188.714539 -74.6634064 -890.028015
v 165.227844 -78.3096008 -864.772949
v 139.747803 -78.5483704 -839.832947
v 112.910858 -75.3735809 -815.830994
v 85.3869934 -68.8646088 -793.366028
v 271.962524 -42.1356354 -938.970032
v 303.974731 -23.7143021 -944.360046
v 297.579651 -37.1671753 -914.967957
v 328.922974 -3.70729446 -947.48822
v 328.922974 -16.8819351 -919.28949
v 317.899658 -29.8182068 -890.028015
v 347.107605 17.5576496 -948.513611
v 351.687561 4.46424866 -921.322815
v 347.107605 -8.06529999 -893.670898
v 332.415405 -20.2722778 -864.772949
v 358.556213 39.8683281 -947.48822
v 366.920349 26.8641624 -921.322815
v 366.920349 14.4817924 -894.819885
v 358.556152 2.60564041 -867.7323
v 340.764343 -8.76768494 -839.832947
v 362.985229 63.0608406 -944.360046
v 374.763733 50.5268326 -919.28949
v 378.628906 38.2870407 -893.670898
v 374.763611 26.4387932 -867.7323
v 362.985229 15.0926781 -841.690491
v 342.737854 4.40834808 -815.830933
v 359.748718 86.954361 -938.970032
v 374.361206 75.7404022 -914.967957
v 381.759766 64.0882416 -890.028015
v 381.759766 52.2888184 -864.772949
v 374.361206 40.6366463 -839.832947
v 359.748718 29.422718 -815.830933
v 338.287109 18.9269066 -793.366028
v 342.737854 111.968719 -938.970032
v 315.962402 132.207916 -944.360046
v 340.764343 125.144775 -914.967957
v 283.847778 149.727173 -947.48822
v 310.072083 145.655991 -919.28949
v 332.415405 136.649368 -890.028015
v 247.139099 164.561646 -948.513611
v 274.617004 162.596771 -921.322815
v 298.141785 156.643692 -893.670898
v 317.899658 146.195282 -864.772949
v 206.267456 176.65834 -947.48822
v 234.736877 176.440659 -921.322815
v 259.384155 172.614304 -894.819885
v 280.438965 165.14357 -867.7323
v 297.579651 153.54422 -839.832947
v 161.471191 185.83783 -944.360046
v 190.059998 187.316849 -919.28949
v 215.617737 185.291016 -893.670898
v 238.007324 179.87326 -867.7323
v 256.952087 171.014877 -841.690491
v 271.962524 158.512711 -815.830933
v 112.910858 191.750626 -938.970032
v 139.747803 194.925415 -914.967957
v 165.227844 194.686707 -890.028015
v 188.714539 191.040512 -864.772949
v 209.621948 184.077774 -839.832947
v 227.427917 173.972412 -815.830933
v 241.687866 160.976685 -793.366028
v 85.3869934 197.649536 -913.110413
v 59.1627502 199.495682 -887.068726
v 111.611206 199.495682 -887.068726
v 34.3843079 197.59079 -861.130005
v 85.3869934 199.626556 -859.981079
v 136.389587 197.59079 -861.130005
v 11.2154236 192.052063 -835.511414
v 60.7397461 195.800186 -833.478149
v 110.034149 195.800186 -833.478149
v 159.558472 192.052063 -835.511414
v -10.0939026 182.826614 -810.440796
v 37.4396362 187.980896 -807.312744
v 85.3869934 189.672897 -806.287292
v 133.334229 187.980896 -807.312744
v 180.867737 182.826614 -810.440796
v -29.1300354 169.699448 -786.234741
v 15.5128479 175.638504 -781.379272
v 61.900116 178.645615 -778.920837
v 108.87381 178.645615 -778.920837
v 155.261108 175.638504 -781.379272
v 199.903931 169.699448 -786.234741
v -192.211243 101.284409 -913.110413
v -203.98967 89.9382629 -887.068726
v -187.78215 113.771439 -887.068726
v -207.854996 78.0900421 -861.130005
v -196.1465 101.895294 -859.981079
v -176.333603 124.442383 -861.130005
v -203.989685 65.8502502 -835.511414
v -196.1465 89.5129089 -833.478149
v -180.913666 111.912842 -833.478149
v -158.149109 133.259003 -835.511414
v -192.211258 53.3162231 -810.440796
v -187.782257 76.5087585 -807.312683
v -176.333649 98.8194122 -806.287292
v -158.149155 120.084351 -807.312683
v -133.200836 140.091385 -810.440796
v -171.96405 40.6094398 -786.234741
v -169.990417 62.7309456 -781.379272
v -161.641602 84.73909 -778.920776
v -147.125931 106.084473 -778.920776
v -126.805817 126.234146 -781.379272
v -101.188629 144.685074 -786.234741
v -86.1781006 -54.6378021 -913.110413
v -67.2333679 -63.4962158 -887.068726
v -109.66507 -48.7664948 -887.068726
v -44.8438416 -68.9139404 -861.130005
v -88.610199 -56.2372131 -859.981079
v -127.367859 -40.2666397 -861.130005
v -19.2860718 -70.9398041 -835.511414
v -63.9630127 -60.0635757 -833.478149
v -103.843018 -46.2196655 -833.478149
v -139.298111 -29.2789078 -835.511414
v 9.30273438 -69.4607086 -810.440857
v -35.4935608 -60.28125 -807.312744
v -76.3652039 -48.1845551 -806.287292
v -113.073914 -33.3501205 -807.312744
v -145.188522 -15.8308182 -810.440857
v 40.8522949 -64.1868591 -786.234802
v -2.57077026 -56.454071 -781.379272
v -43.7981873 -45.859375 -778.920837
v -81.8007202 -32.6672516 -778.920837
v -115.629486 -17.2069855 -781.379272
v -144.440048 0.135408401 -786.234802
v 256.952087 -54.6378021 -913.110413
v 280.438965 -48.7664948 -887.068726
v 238.007324 -63.4962158 -887.068726
v 298.141785 -40.2666397 -861.130005
v 259.384155 -56.2372131 -859.981079
v 215.617737 -68.9139404 -861.130005
v 310.072083 -29.2789078 -835.511414
v 274.617004 -46.2196655 -833.478149
v 234.736877 -60.0635757 -833.478149
v 190.059998 -70.9398041 -835.511414
v 315.962402 -15.8308182 -810.440857
v 283.847778 -33.3501205 -807.312744
v 247.139099 -48.1845551 -806.287292
v 206.267456 -60.28125 -807.312744
v 161.471191 -69.4608002 -810.440857
v 315.213989 0.135408401 -786.234802
v 286.403442 -17.2069855 -781.379272
v 252.574646 -32.6672516 -778.920837
v 214.572083 -45.859375 -778.920837
v 173.344666 -56.454071 -781.379272
v 129.92157 -64.1868591 -786.234802
v 362.985229 101.284409 -913.110413
v 358.556152 113.771439 -887.068726
v 374.763611 89.9382629 -887.068726
v 347.107605 124.442383 -861.130005
v 366.920349 101.895294 -859.981079
v 378.628906 78.0900421 -861.130005
v 328.922974 133.259003 -835.511414
v 351.687561 111.912842 -833.478149
v 366.920349 89.5129089 -833.478149
v 374.763733 65.8502502 -835.511414
v 303.974731 140.09137 -810.440796
v 328.922974 120.084351 -807.312683
v 347.107605 98.8194122 -806.287292
v 358.556213 76.5087585 -807.312683
v 362.985229 53.3162231 -810.440796
v 271.962524 144.685074 -786.234741
v 297.579712 126.234146 -781.379272
v 317.89978 106.084473 -778.920776
v 332.415466 84.73909 -778.920776
v 340.764343 62.7309456 -781.379272
v 342.737976 40.6094398 -786.234741
v 85.3869934 58.18853 -689.493652
v 112.910858 76.2890778 -691.83905
v 57.8630676 76.2890778 -691.83905
v 139.747803 93.9378204 -698.816772
v 85.3869934 96.4120483 -696.424377
v 31.0260925 93.9378204 -698.816772
v 165.227844 110.694214 -710.252625
v 111.611206 114.845825 -705.886353
v 59.1627502 114.845825 -705.886353
v 5.5461731 110.694214 -710.252625
v 188.714539 126.139877 -725.861267
v 136.389587 131.53244 -719.740234
v 85.3869934 133.219666 -717.845398
v 34.3843079 131.53244 -719.740234
v -17.9406738 126.139877 -725.861267
v 209.621948 139.889191 -745.252747
v 159.558472 146.377396 -737.750488
v 110.034149 149.428421 -734.225098
v 60.7397461 149.428421 -734.225098
v 11.2154236 146.377441 -737.750488
v -38.8480835 139.889191 -745.252747
v 227.427917 151.598877 -767.943237
v 180.867737 159.20314 -759.877747
v 133.334229 163.623291 -755.178284
v 85.3869934 165.073318 -753.634888
v 37.4396362 163.623291 -755.178284
v -10.0939026 159.20314 -759.877747
v -56.6539612 151.598877 -767.943237
v 129.92157 51.274704 -691.83905
v 173.344666 44.5334663 -698.816772
v 161.471191 70.0002441 -696.424377
v 214.572083 38.1331215 -710.252625
v 206.267456 63.779995 -705.886353
v 190.059998 87.6131744 -705.886353
v 252.574646 32.2333832 -725.861267
v 247.139221 57.6768379 -719.740234
v 234.737061 81.3744049 -717.845398
v 215.617859 104.029175 -719.740234
v 286.403442 26.9816093 -745.252747
v 283.847778 51.7359772 -737.750488
v 274.617004 75.1832275 -734.225098
v 259.384216 97.5831604 -734.225098
v 238.007324 119.14476 -737.750488
v 315.213989 22.508894 -767.943237
v 315.962524 46.0161705 -759.877747
v 310.072083 68.9818115 -755.178284
v 298.141907 91.2176971 -753.634888
v 280.439087 112.557419 -755.178284
v 256.952087 132.791321 -759.877747
v 85.3869934 35.8150253 -691.83905
v 85.3869934 13.9999599 -698.816772
v 132.409546 27.2650566 -696.424377
v 85.3869934 -6.71208572 -710.252625
v 133.870972 4.98698235 -705.886353
v 176.302673 19.7166576 -705.886353
v 85.3869934 -25.8039398 -725.861267
v 134.352661 -15.4715614 -719.740234
v 177.690308 -2.5129509 -717.845398
v 216.876709 13.1757374 -719.740234
v 85.3869934 -42.7990265 -745.252808
v 133.870972 -33.9882164 -737.750488
v 177.690308 -22.5480843 -734.225159
v 217.570312 -8.70417786 -734.225159
v 253.883118 7.67263794 -737.750488
v 85.3869934 -57.2730408 -767.943237
v 132.409668 -50.348999 -759.877747
v 176.302673 -40.5755615 -755.178284
v 216.876709 -28.2830811 -753.634949
v 253.883118 -13.6444244 -755.178284
v 286.900879 3.28094482 -759.877747
v 40.8522949 51.274704 -691.83905
v -2.57077026 44.5334663 -698.816772
v 38.3642883 27.2650566 -696.424377
v -43.7981873 38.1331215 -710.252625
v -5.52877808 19.7166576 -705.886353
v 36.9029846 4.98698235 -705.886353
v -81.8007202 32.2333832 -725.861267
v -46.1028137 13.1757374 -719.740234
v -6.91644287 -2.5129509 -717.845398
v 36.4212646 -15.4715614 -719.740234
v -115.629486 26.9816093 -745.252747
v -83.1091614 7.67263794 -737.750488
v -46.7964478 -8.70417786 -734.225159
v -6.91644287 -22.5480843 -734.225159
v 36.9029236 -33.9882164 -737.750549
v -144.440109 22.508894 -767.943237
v -116.127014 3.28094482 -759.877747
v -83.1091614 -13.6444244 -755.178284
v -46.1028137 -28.2830811 -753.634949
v -5.52877808 -40.5755615 -755.178284
v 38.3642883 -50.348999 -759.877747
v 9.30273438 70.0002441 -696.424377
v -19.2860718 87.6131744 -705.886353
v -35.4935608 63.779995 -705.886353
v -44.8439026 104.029175 -719.740234
v -63.9630737 81.3744049 -717.845398
v -76.3652039 57.6768379 -719.740234
v -67.233429 119.14476 -737.750488
v -88.610321 97.5831604 -734.225098
v -103.843079 75.1832275 -734.225098
v -113.073975 51.7359772 -737.750488
v -86.1781616 132.791321 -759.877747
v -109.665131 112.557419 -755.178284
v -127.367981 91.2176971 -753.634888
v -139.298172 68.9818115 -755.178284
v -145.188629 46.0161705 -759.877747
g 
f 3 1 2
f 5 2 4
f 6 3 5
f 8 4 7
f 9 5 8
f 10 6 9
f 12 7 11
f 13 8 12
f 14 9 13
f 15 10 14
f 17 11 16
f 18 12 17
f 19 13 18
f 20 14 19
f 21 15 20
f 23 16 22
f 24 17 23
f 25 18 24
f 26 19 25
f 27 20 26
f 28 21 27
f 30 22 29
f 31 23 30
f 32 24 31
f 33 25 32
f 34 26 33
f 35 27 34
f 36 28 35
f 3 2 5
f 5 4 8
f 6 5 9
f 8 7 12
f 9 8 13
f 10 9 14
f 12 11 17
f 13 12 18
f 14 13 19
f 15 14 20
f 17 16 23
f 18 17 24
f 19 18 25
f 20 19 26
f 21 20 27
f 23 22 30
f 24 23 31
f 25 24 32
f 26 25 33
f 27 26 34
f 28 27 35
f 37 1 3
f 38 3 6
f 39 37 38
f 40 6 10
f 41 38 40
f 42 39 41
f 43 10 15
f 44 40 43
f 45 41 44
f 46 42 45
f 47 15 21
f 48 43 47
f 49 44 48
f 50 45 49
f 51 46 50
f 52 21 28
f 53 47 52
f 54 48 53
f 55 49 54
f 56 50 55
f 57 51 56
f 58 28 36
f 59 52 58
f 60 53 59
f 61 54 60
f 62 55 61
f 63 56 62
f 64 57 63
f 37 3 38
f 38 6 40
f 39 38 41
f 40 10 43
f 41 40 44
f 42 41 45
f 43 15 47
f 44 43 48
f 45 44 49
f 46 45 50
f 47 21 52
f 48 47 53
f 49 48 54
f 50 49 55
f 51 50 56
f 52 28 58
f 53 52 59
f 54 53 60
f 55 54 61
f 56 55 62
f 57 56 63
f 65 1 37
f 66 37 39
f 67 65 66
f 68 39 42
f 69 66 68
f 70 67 69
f 71 42 46
f 72 68 71
f 73 69 72
f 74 70 73
f 75 46 51
f 76 71 75
f 77 72 76
f 78 73 77
f 79 74 78
f 80 51 57
f 81 75 80
f 82 76 81
f 83 77 82
f 84 78 83
f 85 79 84
f 86 57 64
f 87 80 86
f 88 81 87
f 89 82 88
f 90 83 89
f 91 84 90
f 92 85 91
f 65 37 66
f 66 39 68
f 67 66 69
f 68 42 71
f 69 68 72
f 70 69 73
f 71 46 75
f 72 71 76
f 73 72 77
f 74 73 78
f 75 51 80
f 76 75 81
f 77 76 82
f 78 77 83
f 79 78 84
f 80 57 86
f 81 80 87
f 82 81 88
f 83 82 89
f 84 83 90
f 85 84 91
f 93 1 65
f 94 65 67
f 95 93 94
f 96 67 70
f 97 94 96
f 98 95 97
f 99 70 74
f 100 96 99
f 101 97 100
f 102 98 101
f 103 74 79
f 104 99 103
f 105 100 104
f 106 101 105
f 107 102 106
f 108 79 85
f 109 103 108
f 110 104 109
f 111 105 110
f 112 106 111
f 113 107 112
f 114 85 92
f 115 108 114
f 116 109 115
f 117 110 116
f 118 111 117
f 119 112 118
f 120 113 119
f 93 65 94
f 94 67 96
f 95 94 97
f 96 70 99
f 97 96 100
f 98 97 101
f 99 74 103
f 100 99 104
f 101 100 105
f 102 101 106
f 103 79 108
f 104 103 109
f 105 104 110
f 106 105 111
f 107 106 112
f 108 85 114
f 109 108 115
f 110 109 116
f 111 110 117
f 112 111 118
f 113 112 119
f 2 1 93
f 121 93 95
f 4 2 121
f 122 95 98
f 123 121 122
f 7 4 123
f 124 98 102
f 125 122 124
f 126 123 125
f 11 7 126
f 127 102 107
f 128 124 127
f 129 125 128
f 130 126 129
f 16 11 130
f 131 107 113
f 132 127 131
f 133 128 132
f 134 129 133
f 135 130 134
f 22 16 135
f 136 113 120
f 137 131 136
f 138 132 137
f 139 133 138
f 140 134 139
f 141 135 140
f 29 22 141
f 2 93 121
f 121 95 122
f 4 121 123
f 122 98 124
f 123 122 125
f 7 123 126
f 124 102 127
f 125 124 128
f 126 125 129
f 11 126 130
f 127 107 131
f 128 127 132
f 129 128 133
f 130 129 134
f 16 130 135
f 131 113 136
f 132 131 137
f 133 132 138
f 134 133 139
f 135 134 140
f 22 135 141
f 142 29 141
f 143 141 140
f 144 142 143
f 145 140 139
f 146 143 145
f 147 144 146
f 148 139 138
f 149 145 148
f 150 146 149
f 151 147 150
f 152 138 137
f 153 148 152
f 154 149 153
f 155 150 154
f 156 151 155
f 157 137 136
f 158 152 157
f 159 153 158
f 160 154 159
f 161 155 160
f 162 156 161
f 163 136 120
f 164 157 163
f 165 158 164
f 166 159 165
f 167 160 166
f 168 161 167
f 169 162 168
f 142 141 143
f 143 140 145
f 144 143 146
f 145 139 148
f 146 145 149
f 147 146 150
f 148 138 152
f 149 148 153
f 150 149 154
f 151 150 155
f 152 137 157
f 153 152 158
f 154 153 159
f 155 154 160
f 156 155 161
f 157 136 163
f 158 157 164
f 159 158 165
f 160 159 166
f 161 160 167
f 162 161 168
f 170 120 119
f 171 119 118
f 172 170 171
f 173 118 117
f 174 171 173
f 175 172 174
f 176 117 116
f 177 173 176
f 178 174 177
f 179 175 178
f 180 116 115
f 181 176 180
f 182 177 181
f 183 178 182
f 184 179 183
f 185 115 114
f 186 180 185
f 187 181 186
f 188 182 187
f 189 183 188
f 190 184 189
f 191 114 92
f 192 185 191
f 193 186 192
f 194 187 193
f 195 188 194
f 196 189 195
f 197 190 196
f 170 119 171
f 171 118 173
f 172 171 174
f 173 117 176
f 174 173 177
f 175 174 178
f 176 116 180
f 177 176 181
f 178 177 182
f 179 178 183
f 180 115 185
f 181 180 186
f 182 181 187
f 183 182 188
f 184 183 189
f 185 114 191
f 186 185 192
f 187 186 193
f 188 187 194
f 189 188 195
f 190 189 196
f 198 92 91
f 199 91 90
f 200 198 199
f 201 90 89
f 202 199 201
f 203 200 202
f 204 89 88
f 205 201 204
f 206 202 205
f 207 203 206
f 208 88 87
f 209 204 208
f 210 205 209
f 211 206 210
f 212 207 211
f 213 87 86
f 214 208 213
f 215 209 214
f 216 210 215
f 217 211 216
f 218 212 217
f 219 86 64
f 220 213 219
f 221 214 220
f 222 215 221
f 223 216 222
f 224 217 223
f 225 218 224
f 198 91 199
f 199 90 201
f 200 199 202
f 201 89 204
f 202 201 205
f 203 202 206
f 204 88 208
f 205 204 209
f 206 205 210
f 207 206 211
f 208 87 213
f 209 208 214
f 210 209 215
f 211 210 216
f 212 211 217
f 213 86 219
f 214 213 220
f 215 214 221
f 216 215 222
f 217 216 223
f 218 217 224
f 226 64 63
f 227 63 62
f 228 226 227
f 229 62 61
f 230 227 229
f 231 228 230
f 232 61 60
f 233 229 232
f 234 230 233
f 235 231 234
f 236 60 59
f 237 232 236
f 238 233 237
f 239 234 238
f 240 235 239
f 241 59 58
f 242 236 241
f 243 237 242
f 244 238 243
f 245 239 244
f 246 240 245
f 247 58 36
f 248 241 247
f 249 242 248
f 250 243 249
f 251 244 250
f 252 245 251
f 253 246 252
f 226 63 227
f 227 62 229
f 228 227 230
f 229 61 232
f 230 229 233
f 231 230 234
f 232 60 236
f 233 232 237
f 234 233 238
f 235 234 239
f 236 59 241
f 237 236 242
f 238 237 243
f 239 238 244
f 240 239 245
f 241 58 247
f 242 241 248
f 243 242 249
f 244 243 250
f 245 244 251
f 246 245 252
f 254 36 35
f 255 35 34
f 256 254 255
f 257 34 33
f 258 255 257
f 259 256 258
f 260 33 32
f 261 257 260
f 262 258 261
f 263 259 262
f 264 32 31
f 265 260 264
f 266 261 265
f 267 262 266
f 268 263 267
f 269 31 30
f 270 264 269
f 271 265 270
f 272 266 271
f 273 267 272
f 274 268 273
f 275 30 29
f 276 269 275
f 277 270 276
f 278 271 277
f 279 272 278
f 280 273 279
f 281 274 280
f 254 35 255
f 255 34 257
f 256 255 258
f 257 33 260
f 258 257 261
f 259 258 262
f 260 32 264
f 261 260 265
f 262 261 266
f 263 262 267
f 264 31 269
f 265 264 270
f 266 265 271
f 267 266 272
f 268 267 273
f 269 30 275
f 270 269 276
f 271 270 277
f 272 271 278
f 273 272 279
f 274 273 280
f 275 29 142
f 282 142 144
f 276 275 282
f 283 144 147
f 284 282 283
f 277 276 284
f 285 147 151
f 286 283 285
f 287 284 286
f 278 277 287
f 288 151 156
f 289 285 288
f 290 286 289
f 291 287 290
f 279 278 291
f 292 156 162
f 293 288 292
f 294 289 293
f 295 290 294
f 296 291 295
f 280 279 296
f 297 162 169
f 298 292 297
f 299 293 298
f 300 294 299
f 301 295 300
f 302 296 301
f 281 280 302
f 275 142 282
f 282 144 283
f 276 282 284
f 283 147 285
f 284 283 286
f 277 284 287
f 285 151 288
f 286 285 289
f 287 286 290
f 278 287 291
f 288 156 292
f 289 288 293
f 290 289 294
f 291 290 295
f 279 291 296
f 292 162 297
f 293 292 298
f 294 293 299
f 295 294 300
f 296 295 301
f 280 296 302
f 163 120 170
f 303 170 172
f 164 163 303
f 304 172 175
f 305 303 304
f 165 164 305
f 306 175 179
f 307 304 306
f 308 305 307
f 166 165 308
f 309 179 184
f 310 306 309
f 311 307 310
f 312 308 311
f 167 166 312
f 313 184 190
f 314 309 313
f 315 310 314
f 316 311 315
f 317 312 316
f 168 167 317
f 318 190 197
f 319 313 318
f 320 314 319
f 321 315 320
f 322 316 321
f 323 317 322
f 169 168 323
f 163 170 303
f 303 172 304
f 164 303 305
f 304 175 306
f 305 304 307
f 165 305 308
f 306 179 309
f 307 306 310
f 308 307 311
f 166 308 312
f 309 184 313
f 310 309 314
f 311 310 315
f 312 311 316
f 167 312 317
f 313 190 318
f 314 313 319
f 315 314 320
f 316 315 321
f 317 316 322
f 168 317 323
f 191 92 198
f 324 198 200
f 192 191 324
f 325 200 203
f 326 324 325
f 193 192 326
f 327 203 207
f 328 325 327
f 329 326 328
f 194 193 329
f 330 207 212
f 331 327 330
f 332 328 331
f 333 329 332
f 195 194 333
f 334 212 218
f 335 330 334
f 336 331 335
f 337 332 336
f 338 333 337
f 196 195 338
f 339 218 225
f 340 334 339
f 341 335 340
f 342 336 341
f 343 337 342
f 344 338 343
f 197 196 344
f 191 198 324
f 324 200 325
f 192 324 326
f 325 203 327
f 326 325 328
f 193 326 329
f 327 207 330
f 328 327 331
f 329 328 332
f 194 329 333
f 330 212 334
f 331 330 335
f 332 331 336
f 333 332 337
f 195 333 338
f 334 218 339
f 335 334 340
f 336 335 341
f 337 336 342
f 338 337 343
f 196 338 344
f 219 64 226
f 345 226 228
f 220 219 345
f 346 228 231
f 347 345 346
f 221 220 347
f 348 231 235
f 349 346 348
f 350 347 349
f 222 221 350
f 351 235 240
f 352 348 351
f 353 349 352
f 354 350 353
f 223 222 354
f 355 240 246
f 356 351 355
f 357 352 356
f 358 353 357
f 359 354 358
f 224 223 359
f 360 246 253
f 361 355 360
f 362 356 361
f 363 357 362
f 364 358 363
f 365 359 364
f 225 224 365
f 219 226 345
f 345 228 346
f 220 345 347
f 346 231 348
f 347 346 349
f 221 347 350
f 348 235 351
f 349 348 352
f 350 349 353
f 222 350 354
f 351 240 355
f 352 351 356
f 353 352 357
f 354 353 358
f 223 354 359
f 355 246 360
f 356 355 361
f 357 356 362
f 358 357 363
f 359 358 364
f 224 359 365
f 247 36 254
f 366 254 256
f 248 247 366
f 367 256 259
f 368 366 367
f 249 248 368
f 369 259 263
f 370 367 369
f 371 368 370
f 250 249 371
f 372 263 268
f 373 369 372
f 374 370 373
f 375 371 374
f 251 250 375
f 376 268 274
f 377 372 376
f 378 373 377
f 379 374 378
f 380 375 379
f 252 251 380
f 381 274 281
f 382 376 381
f 383 377 382
f 384 378 383
f 385 379 384
f 386 380 385
f 253 252 386
f 247 254 366
f 366 256 367
f 248 366 368
f 367 259 369
f 368 367 370
f 249 368 371
f 369 263 372
f 370 369 373
f 371 370 374
f 250 371 375
f 372 268 376
f 373 372 377
f 374 373 378
f 375 374 379
f 251 375 380
f 376 274 381
f 377 376 382
f 378 377 383
f 379 378 384
f 380 379 385
f 252 380 386
f 389 387 388
f 391 388 390
f 392 389 391
f 394 390 393
f 395 391 394
f 396 392 395
f 398 393 397
f 399 394 398
f 400 395 399
f 401 396 400
f 403 397 402
f 404 398 403
f 405 399 404
f 406 400 405
f 407 401 406
f 409 402 408
f 410 403 409
f 411 404 410
f 412 405 411
f 413 406 412
f 414 407 413
f 302 408 281
f 301 409 302
f 300 410 301
f 299 411 300
f 298 412 299
f 297 413 298
f 169 414 297
f 389 388 391
f 391 390 394
f 392 391 395
f 394 393 398
f 395 394 399
f 396 395 400
f 398 397 403
f 399 398 404
f 400 399 405
f 401 400 406
f 403 402 409
f 404 403 410
f 405 404 411
f 406 405 412
f 407 406 413
f 409 408 302
f 410 409 301
f 411 410 300
f 412 411 299
f 413 412 298
f 414 413 297
f 388 387 415
f 417 415 416
f 390 388 417
f 419 416 418
f 420 417 419
f 393 390 420
f 422 418 421
f 423 419 422
f 424 420 423
f 397 393 424
f 426 421 425
f 427 422 426
f 428 423 427
f 429 424 428
f 402 397 429
f 431 425 430
f 432 426 431
f 433 427 432
f 434 428 433
f 435 429 434
f 408 402 435
f 386 430 253
f 385 431 386
f 384 432 385
f 383 433 384
f 382 434 383
f 381 435 382
f 281 408 381
f 388 415 417
f 417 416 419
f 390 417 420
f 419 418 422
f 420 419 423
f 393 420 424
f 422 421 426
f 423 422 427
f 424 423 428
f 397 424 429
f 426 425 431
f 427 426 432
f 428 427 433
f 429 428 434
f 402 429 435
f 431 430 386
f 432 431 385
f 433 432 384
f 434 433 383
f 435 434 382
f 408 435 381
f 415 387 436
f 438 436 437
f 416 415 438
f 440 437 439
f 441 438 440
f 418 416 441
f 443 439 442
f 444 440 443
f 445 441 444
f 421 418 445
f 447 442 446
f 448 443 447
f 449 444 448
f 450 445 449
f 425 421 450
f 452 446 451
f 453 447 452
f 454 448 453
f 455 449 454
f 456 450 455
f 430 425 456
f 365 451 225
f 364 452 365
f 363 453 364
f 362 454 363
f 361 455 362
f 360 456 361
f 253 430 360
f 415 436 438
f 438 437 440
f 416 438 441
f 440 439 443
f 441 440 444
f 418 441 445
f 443 442 447
f 444 443 448
f 445 444 449
f 421 445 450
f 447 446 452
f 448 447 453
f 449 448 454
f 450 449 455
f 425 450 456
f 452 451 365
f 453 452 364
f 454 453 363
f 455 454 362
f 456 455 361
f 430 456 360
f 436 387 457
f 459 457 458
f 437 436 459
f 461 458 460
f 462 459 461
f 439 437 462
f 464 460 463
f 465 461 464
f 466 462 465
f 442 439 466
f 468 463 467
f 469 464 468
f 470 465 469
f 471 466 470
f 446 442 471
f 473 467 472
f 474 468 473
f 475 469 474
f 476 470 475
f 477 471 476
f 451 446 477
f 344 472 197
f 343 473 344
f 342 474 343
f 341 475 342
f 340 476 341
f 339 477 340
f 225 451 339
f 436 457 459
f 459 458 461
f 437 459 462
f 461 460 464
f 462 461 465
f 439 462 466
f 464 463 468
f 465 464 469
f 466 465 470
f 442 466 471
f 468 467 473
f 469 468 474
f 470 469 475
f 471 470 476
f 446 471 477
f 473 472 344
f 474 473 343
f 475 474 342
f 476 475 341
f 477 476 340
f 451 477 339
f 457 387 389
f 478 389 392
f 458 457 478
f 479 392 396
f 480 478 479
f 460 458 480
f 481 396 401
f 482 479 481
f 483 480 482
f 463 460 483
f 484 401 407
f 485 481 484
f 486 482 485
f 487 483 486
f 467 463 487
f 488 407 414
f 489 484 488
f 490 485 489
f 491 486 490
f 492 487 491
f 472 467 492
f 323 414 169
f 322 488 323
f 321 489 322
f 320 490 321
f 319 491 320
f 318 492 319
f 197 472 318
f 457 389 478
f 478 392 479
f 458 478 480
f 479 396 481
f 480 479 482
f 460 480 483
f 481 401 484
f 482 481 485
f 483 482 486
f 463 483 487
f 484 407 488
f 485 484 489
f 486 485 490
f 487 486 491
f 467 487 492
f 488 414 323
f 489 488 322
f 490 489 321
f 491 490 320
f 492 491 319
f 472 492 318
