# File exported by Houdini 20.5.445 (www.sidefx.com)
# 492 points
# 2940 vertices
# 980 primitives
# Bounds: [-125.989044, -173.431335, -1038.28564] to [296.762939, 289.808441, -716.515503]
g 
v 85.3869171 58.1885567 -1038.28564
v 85.3869171 94.8275375 -1036.27734
v 117.149475 69.5106812 -1036.27734
v 85.3869171 130.552063 -1030.30322
v 118.92395 108.829086 -1032.35156
v 148.119202 80.550148 -1030.30322
v 85.3869171 164.470276 -1020.51178
v 119.966187 145.311829 -1024.25024
v 150.228943 121.190376 -1024.25024
v 177.52301 91.0314789 -1020.51178
v 85.3869171 195.735199 -1007.14777
v 120.309753 178.81485 -1012.38849
v 151.218567 157.593689 -1014.0108
v 179.166748 131.901855 -1012.38849
v 204.62677 100.692894 -1007.14777
v 85.3869171 223.566498 -990.544739
v 119.966248 209.137848 -996.968201
v 151.218567 190.403381 -999.986511
v 179.661438 167.732422 -999.986511
v 205.560059 140.913757 -996.968201
v 228.753845 109.293198 -990.544861
v 85.3869171 247.269196 -971.117371
v 118.92395 235.93042 -978.022888
v 150.228943 219.925354 -982.04657
v 179.166748 199.795074 -983.367981
v 205.560059 175.822632 -982.04657
v 229.108643 148.105621 -978.022888
v 249.301819 116.617783 -971.117371
v 85.3869171 266.251648 -949.350403
v 117.149475 258.591278 -955.456238
v 148.119202 245.92807 -959.613464
v 177.52301 228.578156 -961.718323
v 204.62677 206.974579 -961.718323
v 228.753845 181.656799 -959.613464
v 249.301758 153.256775 -955.456238
v 265.757812 122.483673 -949.350403
v 105.017273 28.5470028 -1036.27734
v 139.65094 38.8456078 -1032.35156
v 124.157654 -0.354787827 -1030.30322
v 171.600098 49.0319557 -1024.25024
v 160.040771 10.0025768 -1024.25024
v 142.3302 -27.7951431 -1020.51178
v 200.750244 59.0265083 -1012.38849
v 191.904846 20.2192154 -1014.0108
v 178.26886 -16.8803864 -1012.38849
v 159.081238 -53.0890121 -1007.14777
v 226.931152 68.7552948 -996.968201
v 220.347656 30.3579407 -999.986633
v 209.483459 -6.32431793 -999.986633
v 194.237305 -41.6337662 -996.968201
v 173.992615 -75.6049957 -990.544861
v 249.835693 78.1221313 -978.022888
v 245.634583 40.513401 -982.04657
v 237.125854 4.09977722 -983.367981
v 224.499939 -30.8462868 -982.04657
v 207.74884 -63.9814758 -978.022888
v 186.691895 -94.780838 -971.117371
v 268.93219 86.9761658 -955.456238
v 267.524536 50.7498665 -959.613464
v 261.570129 14.7091618 -961.718323
v 251.217407 -20.2461548 -961.718323
v 236.724854 -53.2434006 -959.613464
v 218.454468 -83.4587784 -955.456238
v 196.862244 -110.137993 -949.350403
v 65.7566376 28.5470028 -1036.27734
v 85.3869171 -4.40657043 -1032.35156
v 46.6162262 -0.354787827 -1030.30322
v 104.090332 -34.5937996 -1024.25024
v 66.683548 -34.5937996 -1024.25024
v 28.4437103 -27.7951431 -1020.51178
v 121.762512 -61.9199066 -1012.38849
v 85.3869171 -64.6829071 -1014.0108
v 49.0113678 -61.9199066 -1012.38849
v 11.6926727 -53.0890121 -1007.14777
v 138.286804 -86.2301788 -996.968201
v 102.965576 -91.2265091 -999.986633
v 67.8083038 -91.2265091 -999.986633
v 32.4870453 -86.2301788 -996.968201
v -3.21867371 -75.6049957 -990.544861
v 153.484802 -107.23362 -978.022888
v 119.583496 -114.472115 -982.04657
v 85.3869171 -116.846611 -983.367981
v 51.1904449 -114.472115 -982.04657
v 17.2890472 -107.23362 -978.022888
v -15.9180145 -94.780838 -971.117371
v 167.061523 -124.422508 -955.456238
v 135.221863 -134.148285 -959.613464
v 102.138 -139.072815 -961.718323
v 68.63591 -139.072815 -961.718323
v 35.5520172 -134.148285 -959.613464
v 3.71229553 -124.422508 -955.456238
v -26.0883942 -110.137993 -949.350403
v 53.6244049 69.5106812 -1036.27734
v 31.1229401 38.8456078 -1032.35156
v 22.6546478 80.550148 -1030.30322
v 10.733139 10.0025768 -1024.25024
v -0.826187134 49.0319557 -1024.25024
v -6.74916077 91.0314789 -1020.51178
v -7.49497986 -16.8803864 -1012.38849
v -21.1309662 20.2192154 -1014.0108
v -29.9763336 59.0265083 -1012.38849
v -33.852951 100.692894 -1007.14777
v -23.4634247 -41.6337662 -996.968201
v -38.7096405 -6.32431793 -999.986633
v -49.5738068 30.3579407 -999.986633
v -56.1573334 68.7552948 -996.968201
v -57.9799652 109.293198 -990.544861
v -36.9749908 -63.9814758 -978.022888
v -53.72612 -30.8462868 -982.04657
v -66.351944 4.09977722 -983.367981
v -74.8607025 40.513401 -982.04657
v -79.0618286 78.1221313 -978.022888
v -78.5279694 116.617783 -971.117371
v -47.6806183 -83.4587784 -955.456238
v -65.9510345 -53.2434006 -959.613464
v -80.4435272 -20.2461548 -961.718323
v -90.7962341 14.7091618 -961.718323
v -96.7507172 50.7498665 -959.613464
v -98.1583099 86.9761658 -955.456238
v -94.9839478 122.483673 -949.350403
v 51.8499298 108.829086 -1032.35156
v 20.5449371 121.190376 -1024.25024
v 50.8076935 145.311829 -1024.25024
v -8.39283752 131.901855 -1012.38849
v 19.5552521 157.593689 -1014.0108
v 50.4641266 178.81485 -1012.38849
v -34.7861176 140.913757 -996.968201
v -8.88755798 167.732422 -999.986511
v 19.5552521 190.403381 -999.986511
v 50.807663 209.137848 -996.968079
v -58.3347626 148.105621 -978.022888
v -34.7861176 175.822632 -982.04657
v -8.39283752 199.795074 -983.367981
v 20.5449371 219.925354 -982.04657
v 51.8499298 235.93042 -978.022888
v -78.5279388 153.256775 -955.456238
v -57.9799652 181.656799 -959.613464
v -33.852951 206.974579 -961.718323
v -6.74916077 228.578156 -961.718323
v 22.6546173 245.92807 -959.613464
v 53.6244049 258.591278 -955.456238
v 65.7566376 276.910767 -930.116028
v 31.1229095 267.227936 -934.73114
v 46.6162262 282.109833 -909.565613
v -0.826187134 252.195557 -937.409363
v 10.733139 269.650024 -913.265686
v 28.4437103 281.718903 -888.212219
v -29.9762726 232.385864 -938.28717
v -21.1309357 251.839081 -915.006531
v -7.49494934 266.332428 -891.331238
v 11.6926727 275.747864 -866.588806
v -56.1573029 208.092834 -937.409363
v -49.5737152 229.168182 -915.006531
v -38.709549 245.572968 -892.315002
v -23.4633636 257.460297 -869.12262
v -3.21867371 264.345642 -845.235352
v -79.0617676 179.403168 -934.73114
v -74.8606567 201.425842 -913.265686
v -66.3518524 219.419403 -891.331238
v -53.726059 233.338806 -869.12262
v -36.9749298 242.953705 -846.825806
v -15.9180145 247.796997 -824.684937
v -98.1582642 146.259369 -930.116028
v -96.7506409 167.836548 -909.565613
v -90.7961426 186.676544 -888.212219
v -80.4434357 202.30899 -866.588806
v -65.9509735 214.343689 -845.235352
v -47.6805878 222.480103 -824.684937
v -26.0883942 226.515137 -805.450562
v -110.290466 105.2957 -930.116028
v -112.598801 66.1674805 -934.73114
v -120.71228 86.9316101 -909.565613
v -109.440018 28.1872501 -937.409363
v -120.999313 45.6416702 -913.265686
v -125.989044 67.8499756 -888.212219
v -101.274734 -8.34887695 -938.28717
v -115.405487 6.89156914 -915.006531
v -123.756073 25.5976868 -891.331238
v -125.989044 48.5271378 -866.588806
v -88.3053894 -43.1724319 -937.409363
v -104.54126 -29.7907257 -915.006531
v -115.405487 -13.3859253 -892.315002
v -120.999298 6.19498444 -869.12262
v -120.71228 29.4454994 -845.235352
v -70.5120087 -75.9361343 -934.73114
v -88.3053894 -64.7473984 -913.265686
v -101.274719 -50.3091354 -891.331238
v -109.439957 -32.8343964 -869.12262
v -112.598801 -12.3855324 -846.825806
v -110.290466 11.0814466 -824.684937
v -47.6805878 -106.102898 -930.116028
v -65.9509735 -97.9665909 -909.565613
v -80.4434357 -85.9319305 -888.212219
v -90.7961426 -70.2994461 -866.588806
v -96.7506409 -51.4594345 -845.235352
v -98.1582642 -29.882267 -824.684937
v -94.9839478 -6.1065731 -805.450562
v -15.9180145 -131.41983 -930.116028
v 17.2890778 -145.919586 -934.73114
v -3.21867371 -147.968475 -909.565613
v 51.1904449 -154.36026 -937.409363
v 32.4870758 -161.027252 -913.265686
v 11.6926727 -159.370758 -888.212219
v 85.3869171 -157.131165 -938.28717
v 67.8083038 -167.165253 -915.006531
v 49.0113678 -170.097534 -891.331238
v 28.4437103 -165.341797 -866.588806
v 119.583496 -154.36026 -937.409363
v 102.965576 -167.165253 -915.006531
v 85.3869171 -173.431335 -892.315002
v 66.683548 -173.21701 -869.12262
v 46.6162262 -165.732727 -845.235352
v 153.484802 -145.919586 -934.73114
v 138.286804 -161.027252 -913.265686
v 121.762512 -170.097534 -891.331238
v 104.090332 -173.21701 -869.12262
v 85.3869171 -170.193787 -846.825806
v 65.7566376 -160.533661 -824.684937
v 186.691895 -131.41983 -930.116028
v 173.992615 -147.968475 -909.565613
v 159.081238 -159.370758 -888.212219
v 142.3302 -165.341797 -866.588806
v 124.157654 -165.732727 -845.235352
v 105.017273 -160.533661 -824.684937
v 85.3869171 -149.874512 -805.450684
v 218.454468 -106.102898 -930.116028
v 241.285828 -75.9361343 -934.73114
v 236.724792 -97.9665909 -909.565613
v 259.079285 -43.1724319 -937.409363
v 259.079285 -64.7473984 -913.265686
v 251.217346 -85.9319305 -888.212219
v 272.048584 -8.34887695 -938.28717
v 275.315125 -29.7907257 -915.006531
v 272.048584 -50.3091354 -891.331238
v 261.570007 -70.2994461 -866.588806
v 280.213867 28.1872501 -937.409363
v 286.179321 6.89156914 -915.006531
v 286.179321 -13.3859253 -892.315002
v 280.213867 -32.8343964 -869.12262
v 267.524475 -51.4594345 -845.235352
v 283.372742 66.1674805 -934.73114
v 291.773132 45.6416702 -913.265686
v 294.529968 25.5976868 -891.331238
v 291.773132 6.19498444 -869.12262
v 283.372742 -12.3855324 -846.825806
v 268.932129 -29.882267 -824.684937
v 281.064331 105.2957 -930.116028
v 291.486145 86.9316101 -909.565613
v 296.762939 67.8499756 -888.212219
v 296.762939 48.5271378 -866.588806
v 291.486145 29.4454994 -845.235352
v 281.064331 11.0814466 -824.684937
v 265.757812 -6.1065731 -805.450562
v 268.932129 146.259369 -930.116028
v 249.835632 179.403168 -934.73114
v 267.524475 167.836548 -909.565613
v 226.931152 208.092834 -937.409363
v 245.634583 201.425842 -913.265686
v 261.570007 186.676544 -888.212219
v 200.750183 232.385864 -938.28717
v 220.347595 229.168182 -915.006531
v 237.125732 219.419403 -891.331238
v 251.217346 202.30899 -866.588806
v 171.600098 252.195557 -937.409363
v 191.904724 251.839081 -915.006531
v 209.483459 245.572968 -892.315002
v 224.499939 233.338806 -869.12262
v 236.724792 214.343689 -845.235352
v 139.65094 267.227936 -934.73114
v 160.040771 269.650024 -913.265686
v 178.268799 266.332428 -891.331238
v 194.237244 257.460297 -869.12262
v 207.748779 242.953705 -846.825806
v 218.454468 222.480103 -824.684937
v 105.017273 276.910767 -930.116028
v 124.157654 282.109833 -909.565613
v 142.3302 281.718903 -888.212219
v 159.081238 275.747864 -866.588806
v 173.992615 264.345642 -845.235352
v 186.691895 247.796997 -824.684937
v 196.862244 226.515137 -805.450562
v 85.3869171 286.570831 -907.975281
v 66.683548 289.594086 -885.678406
v 104.090332 289.594086 -885.678406
v 49.0113678 286.474701 -863.469849
v 85.3869171 289.808441 -862.486084
v 121.762512 286.474701 -863.469849
v 32.4870758 277.404449 -841.535278
v 67.8083038 283.542389 -839.794434
v 102.965576 283.542389 -839.794434
v 138.286804 277.404449 -841.535278
v 17.2890778 262.296722 -820.069946
v 51.1904449 270.737427 -817.391724
v 85.3869171 273.508301 -816.513794
v 119.583496 270.737427 -817.391724
v 153.484802 262.296722 -820.069946
v 3.71229553 240.799591 -799.344849
v 35.5520172 250.525452 -795.187622
v 68.63591 255.44989 -793.082642
v 102.138 255.44989 -793.082642
v 135.221863 250.525452 -795.187622
v 167.061523 240.799591 -799.344849
v -112.598801 128.762634 -907.975281
v -120.999298 110.182121 -885.678406
v -109.439957 149.211487 -885.678406
v -123.756073 90.7794189 -863.469849
v -115.405487 129.763062 -862.486084
v -101.274719 166.686279 -863.469849
v -120.999313 70.7354431 -841.535278
v -115.405487 109.485527 -839.794434
v -104.54126 146.167816 -839.794434
v -88.3053741 181.124512 -841.535278
v -112.598801 50.2096291 -820.069946
v -109.440018 88.1898575 -817.391724
v -101.274734 124.725983 -816.513794
v -88.3053894 159.549561 -817.391724
v -70.5120087 192.313232 -820.069946
v -98.1583099 29.4009399 -799.344849
v -96.7507172 65.627243 -795.187622
v -90.7962341 101.667938 -793.082642
v -80.4435272 136.623291 -793.082642
v -65.9510345 169.620514 -795.187622
v -47.6806183 199.835876 -799.344849
v -36.9749298 -126.576607 -907.975281
v -23.4633636 -141.08313 -885.678406
v -53.726059 -116.961784 -885.678406
v -7.49494934 -149.955322 -863.469849
v -38.709549 -129.195831 -862.486084
v -66.3518524 -103.042282 -863.469849
v 10.733139 -153.272827 -841.535278
v -21.1309357 -135.461975 -839.794434
v -49.5737152 -112.791084 -839.794434
v -74.8606567 -85.0486984 -841.535278
v 31.1229095 -150.8508 -820.069946
v -0.826187134 -135.818451 -817.391724
v -29.9762726 -116.00872 -816.513794
v -56.1573029 -91.715744 -817.391724
v -79.0617523 -63.0260696 -820.069946
v 53.6244049 -142.214142 -799.344849
v 22.6546173 -129.550934 -795.187622
v -6.74916077 -112.200981 -793.082642
v -33.852951 -90.5974731 -793.082642
v -57.9799652 -65.2796936 -795.187622
v -78.5279388 -36.8796692 -799.344849
v 207.74884 -126.576607 -907.975281
v 224.499939 -116.961708 -885.678406
v 194.237244 -141.08313 -885.678406
v 237.125732 -103.042282 -863.469849
v 209.483459 -129.195831 -862.486084
v 178.268799 -149.955322 -863.469849
v 245.634583 -85.0486984 -841.535278
v 220.347595 -112.791084 -839.794434
v 191.904724 -135.461975 -839.794434
v 160.040771 -153.272827 -841.535278
v 249.835632 -63.0260696 -820.069946
v 226.931152 -91.715744 -817.391724
v 200.750183 -116.00872 -816.513794
v 171.600098 -135.818451 -817.391724
v 139.65094 -150.8508 -820.069946
v 249.301758 -36.8796692 -799.344849
v 228.753845 -65.2796936 -795.187622
v 204.62677 -90.5974731 -793.082642
v 177.52301 -112.200981 -793.082642
v 148.119202 -129.550934 -795.187622
v 117.149475 -142.214142 -799.344849
v 283.372742 128.762634 -907.975281
v 280.213867 149.211487 -885.678406
v 291.773132 110.182121 -885.678406
v 272.048584 166.68631 -863.469849
v 286.179321 129.763062 -862.486084
v 294.529968 90.7794189 -863.469849
v 259.079285 181.124512 -841.535278
v 275.315125 146.167816 -839.794434
v 286.179321 109.485527 -839.794434
v 291.773132 70.7354431 -841.535278
v 241.285828 192.313232 -820.069946
v 259.079285 159.549561 -817.391724
v 272.048584 124.725983 -816.513794
v 280.213867 88.1898575 -817.391724
v 283.372742 50.2096291 -820.069946
v 218.454468 199.835876 -799.344849
v 236.724854 169.620514 -795.187622
v 251.217407 136.623291 -793.082642
v 261.570129 101.667938 -793.082642
v 267.524536 65.627243 -795.187622
v 268.93219 29.4009399 -799.344849
v 85.3869171 58.1885567 -716.515503
v 105.017273 87.8301392 -718.52356
v 65.7566376 87.8301392 -718.52356
v 124.157654 116.731888 -724.497925
v 85.3869171 120.783669 -722.449463
v 46.6162262 116.731888 -724.497925
v 142.3302 144.172241 -734.289185
v 104.090332 150.970917 -730.550781
v 66.683548 150.970917 -730.550781
v 28.4437103 144.172241 -734.289185
v 159.081238 169.466156 -747.653198
v 121.762512 178.296997 -742.412476
v 85.3869171 181.060059 -740.790161
v 49.0113678 178.296997 -742.412476
v 11.6926727 169.466156 -747.653198
v 173.992615 191.982086 -764.256226
v 138.286804 202.607239 -757.832764
v 102.965576 207.603607 -754.814331
v 67.8083038 207.603607 -754.814331
v 32.4870453 202.6073 -757.832764
v -3.21867371 191.982086 -764.256226
v 186.691895 211.15799 -783.683716
v 153.484802 223.610779 -776.778076
v 119.583496 230.849213 -772.754395
v 85.3869171 233.223785 -771.432983
v 51.1904449 230.849213 -772.754395
v 17.2890472 223.610779 -776.778076
v -15.9180145 211.15799 -783.683716
v 117.149475 46.8664589 -718.52356
v 148.119202 35.8269615 -724.497925
v 139.65094 77.5315018 -722.449463
v 177.52301 25.3456326 -734.289185
v 171.600098 67.3451843 -730.550781
v 160.040771 106.374565 -730.550781
v 204.62677 15.6842136 -747.653198
v 200.750244 57.3506012 -742.412476
v 191.904846 96.1578903 -740.790161
v 178.26886 133.257538 -742.412476
v 228.753845 7.08390427 -764.256226
v 226.931152 47.6218071 -757.832764
v 220.347656 86.019165 -754.814331
v 209.483459 122.701462 -754.814331
v 194.237305 158.010895 -757.832764
v 249.301819 -0.240682602 -783.683716
v 249.835693 38.2549744 -776.778076
v 245.634583 75.8637085 -772.754395
v 237.125854 112.277359 -771.432983
v 224.499939 147.223419 -772.754395
v 207.74884 180.358582 -776.778076
v 85.3869171 21.5495682 -718.52356
v 85.3869171 -14.1749725 -724.497925
v 118.92395 7.54804611 -722.449463
v 85.3869171 -48.0931778 -734.289185
v 119.966187 -28.9346924 -730.550781
v 150.228943 -4.81326866 -730.550781
v 85.3869171 -79.3580627 -747.653198
v 120.309753 -62.4377518 -742.412476
v 151.218567 -41.2166443 -740.790161
v 179.166748 -15.5247269 -742.412476
v 85.3869171 -107.189354 -764.256226
v 119.966248 -92.7607651 -757.832764
v 151.218567 -74.0262451 -754.814453
v 179.661438 -51.3553696 -754.814453
v 205.560059 -24.5366478 -757.832764
v 85.3869171 -130.89209 -783.683716
v 118.92395 -119.553307 -776.778076
v 150.228943 -103.54818 -772.754395
v 179.166748 -83.417923 -771.432983
v 205.560059 -59.445549 -772.754395
v 229.108643 -31.7285118 -776.778076
v 53.6244049 46.8664589 -718.52356
v 22.6546478 35.8269615 -724.497925
v 51.8499298 7.54804611 -722.449463
v -6.74916077 25.3456326 -734.289185
v 20.5449371 -4.81326866 -730.550781
v 50.8076935 -28.9346924 -730.550781
v -33.852951 15.6842136 -747.653198
v -8.39283752 -15.5247269 -742.412476
v 19.5552521 -41.2166443 -740.790161
v 50.4641266 -62.4377518 -742.412476
v -57.9799652 7.08390427 -764.256226
v -34.7861176 -24.5366478 -757.832764
v -8.88755798 -51.3553696 -754.814453
v 19.5552521 -74.0262451 -754.814453
v 50.807663 -92.7607651 -757.832886
v -78.5279694 -0.240682602 -783.683716
v -58.3347626 -31.7285118 -776.778076
v -34.7861176 -59.445549 -772.754395
v -8.39283752 -83.417923 -771.432983
v 20.5449371 -103.54818 -772.754395
v 51.8499298 -119.553307 -776.778076
v 31.1229401 77.5315018 -722.449463
v 10.733139 106.374565 -730.550781
v -0.826187134 67.3451843 -730.550781
v -7.49497986 133.257538 -742.412476
v -21.1309662 96.1578903 -740.790161
v -29.9763336 57.3506012 -742.412476
v -23.4634247 158.010895 -757.832764
v -38.7096405 122.701462 -754.814331
v -49.5738068 86.019165 -754.814331
v -56.1573334 47.6218071 -757.832764
v -36.9749908 180.358582 -776.778076
v -53.72612 147.223419 -772.754395
v -66.351944 112.277359 -771.432983
v -74.8607025 75.8637085 -772.754395
v -79.0618286 38.2549744 -776.778076
g 
f 3 1 2
f 5 2 4
f 6 3 5
f 8 4 7
f 9 5 8
f 10 6 9
f 12 7 11
f 13 8 12
f 14 9 13
f 15 10 14
f 17 11 16
f 18 12 17
f 19 13 18
f 20 14 19
f 21 15 20
f 23 16 22
f 24 17 23
f 25 18 24
f 26 19 25
f 27 20 26
f 28 21 27
f 30 22 29
f 31 23 30
f 32 24 31
f 33 25 32
f 34 26 33
f 35 27 34
f 36 28 35
f 3 2 5
f 5 4 8
f 6 5 9
f 8 7 12
f 9 8 13
f 10 9 14
f 12 11 17
f 13 12 18
f 14 13 19
f 15 14 20
f 17 16 23
f 18 17 24
f 19 18 25
f 20 19 26
f 21 20 27
f 23 22 30
f 24 23 31
f 25 24 32
f 26 25 33
f 27 26 34
f 28 27 35
f 37 1 3
f 38 3 6
f 39 37 38
f 40 6 10
f 41 38 40
f 42 39 41
f 43 10 15
f 44 40 43
f 45 41 44
f 46 42 45
f 47 15 21
f 48 43 47
f 49 44 48
f 50 45 49
f 51 46 50
f 52 21 28
f 53 47 52
f 54 48 53
f 55 49 54
f 56 50 55
f 57 51 56
f 58 28 36
f 59 52 58
f 60 53 59
f 61 54 60
f 62 55 61
f 63 56 62
f 64 57 63
f 37 3 38
f 38 6 40
f 39 38 41
f 40 10 43
f 41 40 44
f 42 41 45
f 43 15 47
f 44 43 48
f 45 44 49
f 46 45 50
f 47 21 52
f 48 47 53
f 49 48 54
f 50 49 55
f 51 50 56
f 52 28 58
f 53 52 59
f 54 53 60
f 55 54 61
f 56 55 62
f 57 56 63
f 65 1 37
f 66 37 39
f 67 65 66
f 68 39 42
f 69 66 68
f 70 67 69
f 71 42 46
f 72 68 71
f 73 69 72
f 74 70 73
f 75 46 51
f 76 71 75
f 77 72 76
f 78 73 77
f 79 74 78
f 80 51 57
f 81 75 80
f 82 76 81
f 83 77 82
f 84 78 83
f 85 79 84
f 86 57 64
f 87 80 86
f 88 81 87
f 89 82 88
f 90 83 89
f 91 84 90
f 92 85 91
f 65 37 66
f 66 39 68
f 67 66 69
f 68 42 71
f 69 68 72
f 70 69 73
f 71 46 75
f 72 71 76
f 73 72 77
f 74 73 78
f 75 51 80
f 76 75 81
f 77 76 82
f 78 77 83
f 79 78 84
f 80 57 86
f 81 80 87
f 82 81 88
f 83 82 89
f 84 83 90
f 85 84 91
f 93 1 65
f 94 65 67
f 95 93 94
f 96 67 70
f 97 94 96
f 98 95 97
f 99 70 74
f 100 96 99
f 101 97 100
f 102 98 101
f 103 74 79
f 104 99 103
f 105 100 104
f 106 101 105
f 107 102 106
f 108 79 85
f 109 103 108
f 110 104 109
f 111 105 110
f 112 106 111
f 113 107 112
f 114 85 92
f 115 108 114
f 116 109 115
f 117 110 116
f 118 111 117
f 119 112 118
f 120 113 119
f 93 65 94
f 94 67 96
f 95 94 97
f 96 70 99
f 97 96 100
f 98 97 101
f 99 74 103
f 100 99 104
f 101 100 105
f 102 101 106
f 103 79 108
f 104 103 109
f 105 104 110
f 106 105 111
f 107 106 112
f 108 85 114
f 109 108 115
f 110 109 116
f 111 110 117
f 112 111 118
f 113 112 119
f 2 1 93
f 121 93 95
f 4 2 121
f 122 95 98
f 123 121 122
f 7 4 123
f 124 98 102
f 125 122 124
f 126 123 125
f 11 7 126
f 127 102 107
f 128 124 127
f 129 125 128
f 130 126 129
f 16 11 130
f 131 107 113
f 132 127 131
f 133 128 132
f 134 129 133
f 135 130 134
f 22 16 135
f 136 113 120
f 137 131 136
f 138 132 137
f 139 133 138
f 140 134 139
f 141 135 140
f 29 22 141
f 2 93 121
f 121 95 122
f 4 121 123
f 122 98 124
f 123 122 125
f 7 123 126
f 124 102 127
f 125 124 128
f 126 125 129
f 11 126 130
f 127 107 131
f 128 127 132
f 129 128 133
f 130 129 134
f 16 130 135
f 131 113 136
f 132 131 137
f 133 132 138
f 134 133 139
f 135 134 140
f 22 135 141
f 142 29 141
f 143 141 140
f 144 142 143
f 145 140 139
f 146 143 145
f 147 144 146
f 148 139 138
f 149 145 148
f 150 146 149
f 151 147 150
f 152 138 137
f 153 148 152
f 154 149 153
f 155 150 154
f 156 151 155
f 157 137 136
f 158 152 157
f 159 153 158
f 160 154 159
f 161 155 160
f 162 156 161
f 163 136 120
f 164 157 163
f 165 158 164
f 166 159 165
f 167 160 166
f 168 161 167
f 169 162 168
f 142 141 143
f 143 140 145
f 144 143 146
f 145 139 148
f 146 145 149
f 147 146 150
f 148 138 152
f 149 148 153
f 150 149 154
f 151 150 155
f 152 137 157
f 153 152 158
f 154 153 159
f 155 154 160
f 156 155 161
f 157 136 163
f 158 157 164
f 159 158 165
f 160 159 166
f 161 160 167
f 162 161 168
f 170 120 119
f 171 119 118
f 172 170 171
f 173 118 117
f 174 171 173
f 175 172 174
f 176 117 116
f 177 173 176
f 178 174 177
f 179 175 178
f 180 116 115
f 181 176 180
f 182 177 181
f 183 178 182
f 184 179 183
f 185 115 114
f 186 180 185
f 187 181 186
f 188 182 187
f 189 183 188
f 190 184 189
f 191 114 92
f 192 185 191
f 193 186 192
f 194 187 193
f 195 188 194
f 196 189 195
f 197 190 196
f 170 119 171
f 171 118 173
f 172 171 174
f 173 117 176
f 174 173 177
f 175 174 178
f 176 116 180
f 177 176 181
f 178 177 182
f 179 178 183
f 180 115 185
f 181 180 186
f 182 181 187
f 183 182 188
f 184 183 189
f 185 114 191
f 186 185 192
f 187 186 193
f 188 187 194
f 189 188 195
f 190 189 196
f 198 92 91
f 199 91 90
f 200 198 199
f 201 90 89
f 202 199 201
f 203 200 202
f 204 89 88
f 205 201 204
f 206 202 205
f 207 203 206
f 208 88 87
f 209 204 208
f 210 205 209
f 211 206 210
f 212 207 211
f 213 87 86
f 214 208 213
f 215 209 214
f 216 210 215
f 217 211 216
f 218 212 217
f 219 86 64
f 220 213 219
f 221 214 220
f 222 215 221
f 223 216 222
f 224 217 223
f 225 218 224
f 198 91 199
f 199 90 201
f 200 199 202
f 201 89 204
f 202 201 205
f 203 202 206
f 204 88 208
f 205 204 209
f 206 205 210
f 207 206 211
f 208 87 213
f 209 208 214
f 210 209 215
f 211 210 216
f 212 211 217
f 213 86 219
f 214 213 220
f 215 214 221
f 216 215 222
f 217 216 223
f 218 217 224
f 226 64 63
f 227 63 62
f 228 226 227
f 229 62 61
f 230 227 229
f 231 228 230
f 232 61 60
f 233 229 232
f 234 230 233
f 235 231 234
f 236 60 59
f 237 232 236
f 238 233 237
f 239 234 238
f 240 235 239
f 241 59 58
f 242 236 241
f 243 237 242
f 244 238 243
f 245 239 244
f 246 240 245
f 247 58 36
f 248 241 247
f 249 242 248
f 250 243 249
f 251 244 250
f 252 245 251
f 253 246 252
f 226 63 227
f 227 62 229
f 228 227 230
f 229 61 232
f 230 229 233
f 231 230 234
f 232 60 236
f 233 232 237
f 234 233 238
f 235 234 239
f 236 59 241
f 237 236 242
f 238 237 243
f 239 238 244
f 240 239 245
f 241 58 247
f 242 241 248
f 243 242 249
f 244 243 250
f 245 244 251
f 246 245 252
f 254 36 35
f 255 35 34
f 256 254 255
f 257 34 33
f 258 255 257
f 259 256 258
f 260 33 32
f 261 257 260
f 262 258 261
f 263 259 262
f 264 32 31
f 265 260 264
f 266 261 265
f 267 262 266
f 268 263 267
f 269 31 30
f 270 264 269
f 271 265 270
f 272 266 271
f 273 267 272
f 274 268 273
f 275 30 29
f 276 269 275
f 277 270 276
f 278 271 277
f 279 272 278
f 280 273 279
f 281 274 280
f 254 35 255
f 255 34 257
f 256 255 258
f 257 33 260
f 258 257 261
f 259 258 262
f 260 32 264
f 261 260 265
f 262 261 266
f 263 262 267
f 264 31 269
f 265 264 270
f 266 265 271
f 267 266 272
f 268 267 273
f 269 30 275
f 270 269 276
f 271 270 277
f 272 271 278
f 273 272 279
f 274 273 280
f 275 29 142
f 282 142 144
f 276 275 282
f 283 144 147
f 284 282 283
f 277 276 284
f 285 147 151
f 286 283 285
f 287 284 286
f 278 277 287
f 288 151 156
f 289 285 288
f 290 286 289
f 291 287 290
f 279 278 291
f 292 156 162
f 293 288 292
f 294 289 293
f 295 290 294
f 296 291 295
f 280 279 296
f 297 162 169
f 298 292 297
f 299 293 298
f 300 294 299
f 301 295 300
f 302 296 301
f 281 280 302
f 275 142 282
f 282 144 283
f 276 282 284
f 283 147 285
f 284 283 286
f 277 284 287
f 285 151 288
f 286 285 289
f 287 286 290
f 278 287 291
f 288 156 292
f 289 288 293
f 290 289 294
f 291 290 295
f 279 291 296
f 292 162 297
f 293 292 298
f 294 293 299
f 295 294 300
f 296 295 301
f 280 296 302
f 163 120 170
f 303 170 172
f 164 163 303
f 304 172 175
f 305 303 304
f 165 164 305
f 306 175 179
f 307 304 306
f 308 305 307
f 166 165 308
f 309 179 184
f 310 306 309
f 311 307 310
f 312 308 311
f 167 166 312
f 313 184 190
f 314 309 313
f 315 310 314
f 316 311 315
f 317 312 316
f 168 167 317
f 318 190 197
f 319 313 318
f 320 314 319
f 321 315 320
f 322 316 321
f 323 317 322
f 169 168 323
f 163 170 303
f 303 172 304
f 164 303 305
f 304 175 306
f 305 304 307
f 165 305 308
f 306 179 309
f 307 306 310
f 308 307 311
f 166 308 312
f 309 184 313
f 310 309 314
f 311 310 315
f 312 311 316
f 167 312 317
f 313 190 318
f 314 313 319
f 315 314 320
f 316 315 321
f 317 316 322
f 168 317 323
f 191 92 198
f 324 198 200
f 192 191 324
f 325 200 203
f 326 324 325
f 193 192 326
f 327 203 207
f 328 325 327
f 329 326 328
f 194 193 329
f 330 207 212
f 331 327 330
f 332 328 331
f 333 329 332
f 195 194 333
f 334 212 218
f 335 330 334
f 336 331 335
f 337 332 336
f 338 333 337
f 196 195 338
f 339 218 225
f 340 334 339
f 341 335 340
f 342 336 341
f 343 337 342
f 344 338 343
f 197 196 344
f 191 198 324
f 324 200 325
f 192 324 326
f 325 203 327
f 326 325 328
f 193 326 329
f 327 207 330
f 328 327 331
f 329 328 332
f 194 329 333
f 330 212 334
f 331 330 335
f 332 331 336
f 333 332 337
f 195 333 338
f 334 218 339
f 335 334 340
f 336 335 341
f 337 336 342
f 338 337 343
f 196 338 344
f 219 64 226
f 345 226 228
f 220 219 345
f 346 228 231
f 347 345 346
f 221 220 347
f 348 231 235
f 349 346 348
f 350 347 349
f 222 221 350
f 351 235 240
f 352 348 351
f 353 349 352
f 354 350 353
f 223 222 354
f 355 240 246
f 356 351 355
f 357 352 356
f 358 353 357
f 359 354 358
f 224 223 359
f 360 246 253
f 361 355 360
f 362 356 361
f 363 357 362
f 364 358 363
f 365 359 364
f 225 224 365
f 219 226 345
f 345 228 346
f 220 345 347
f 346 231 348
f 347 346 349
f 221 347 350
f 348 235 351
f 349 348 352
f 350 349 353
f 222 350 354
f 351 240 355
f 352 351 356
f 353 352 357
f 354 353 358
f 223 354 359
f 355 246 360
f 356 355 361
f 357 356 362
f 358 357 363
f 359 358 364
f 224 359 365
f 247 36 254
f 366 254 256
f 248 247 366
f 367 256 259
f 368 366 367
f 249 248 368
f 369 259 263
f 370 367 369
f 371 368 370
f 250 249 371
f 372 263 268
f 373 369 372
f 374 370 373
f 375 371 374
f 251 250 375
f 376 268 274
f 377 372 376
f 378 373 377
f 379 374 378
f 380 375 379
f 252 251 380
f 381 274 281
f 382 376 381
f 383 377 382
f 384 378 383
f 385 379 384
f 386 380 385
f 253 252 386
f 247 254 366
f 366 256 367
f 248 366 368
f 367 259 369
f 368 367 370
f 249 368 371
f 369 263 372
f 370 369 373
f 371 370 374
f 250 371 375
f 372 268 376
f 373 372 377
f 374 373 378
f 375 374 379
f 251 375 380
f 376 274 381
f 377 376 382
f 378 377 383
f 379 378 384
f 380 379 385
f 252 380 386
f 389 387 388
f 391 388 390
f 392 389 391
f 394 390 393
f 395 391 394
f 396 392 395
f 398 393 397
f 399 394 398
f 400 395 399
f 401 396 400
f 403 397 402
f 404 398 403
f 405 399 404
f 406 400 405
f 407 401 406
f 409 402 408
f 410 403 409
f 411 404 410
f 412 405 411
f 413 406 412
f 414 407 413
f 302 408 281
f 301 409 302
f 300 410 301
f 299 411 300
f 298 412 299
f 297 413 298
f 169 414 297
f 389 388 391
f 391 390 394
f 392 391 395
f 394 393 398
f 395 394 399
f 396 395 400
f 398 397 403
f 399 398 404
f 400 399 405
f 401 400 406
f 403 402 409
f 404 403 410
f 405 404 411
f 406 405 412
f 407 406 413
f 409 408 302
f 410 409 301
f 411 410 300
f 412 411 299
f 413 412 298
f 414 413 297
f 388 387 415
f 417 415 416
f 390 388 417
f 419 416 418
f 420 417 419
f 393 390 420
f 422 418 421
f 423 419 422
f 424 420 423
f 397 393 424
f 426 421 425
f 427 422 426
f 428 423 427
f 429 424 428
f 402 397 429
f 431 425 430
f 432 426 431
f 433 427 432
f 434 428 433
f 435 429 434
f 408 402 435
f 386 430 253
f 385 431 386
f 384 432 385
f 383 433 384
f 382 434 383
f 381 435 382
f 281 408 381
f 388 415 417
f 417 416 419
f 390 417 420
f 419 418 422
f 420 419 423
f 393 420 424
f 422 421 426
f 423 422 427
f 424 423 428
f 397 424 429
f 426 425 431
f 427 426 432
f 428 427 433
f 429 428 434
f 402 429 435
f 431 430 386
f 432 431 385
f 433 432 384
f 434 433 383
f 435 434 382
f 408 435 381
f 415 387 436
f 438 436 437
f 416 415 438
f 440 437 439
f 441 438 440
f 418 416 441
f 443 439 442
f 444 440 443
f 445 441 444
f 421 418 445
f 447 442 446
f 448 443 447
f 449 444 448
f 450 445 449
f 425 421 450
f 452 446 451
f 453 447 452
f 454 448 453
f 455 449 454
f 456 450 455
f 430 425 456
f 365 451 225
f 364 452 365
f 363 453 364
f 362 454 363
f 361 455 362
f 360 456 361
f 253 430 360
f 415 436 438
f 438 437 440
f 416 438 441
f 440 439 443
f 441 440 444
f 418 441 445
f 443 442 447
f 444 443 448
f 445 444 449
f 421 445 450
f 447 446 452
f 448 447 453
f 449 448 454
f 450 449 455
f 425 450 456
f 452 451 365
f 453 452 364
f 454 453 363
f 455 454 362
f 456 455 361
f 430 456 360
f 436 387 457
f 459 457 458
f 437 436 459
f 461 458 460
f 462 459 461
f 439 437 462
f 464 460 463
f 465 461 464
f 466 462 465
f 442 439 466
f 468 463 467
f 469 464 468
f 470 465 469
f 471 466 470
f 446 442 471
f 473 467 472
f 474 468 473
f 475 469 474
f 476 470 475
f 477 471 476
f 451 446 477
f 344 472 197
f 343 473 344
f 342 474 343
f 341 475 342
f 340 476 341
f 339 477 340
f 225 451 339
f 436 457 459
f 459 458 461
f 437 459 462
f 461 460 464
f 462 461 465
f 439 462 466
f 464 463 468
f 465 464 469
f 466 465 470
f 442 466 471
f 468 467 473
f 469 468 474
f 470 469 475
f 471 470 476
f 446 471 477
f 473 472 344
f 474 473 343
f 475 474 342
f 476 475 341
f 477 476 340
f 451 477 339
f 457 387 389
f 478 389 392
f 458 457 478
f 479 392 396
f 480 478 479
f 460 458 480
f 481 396 401
f 482 479 481
f 483 480 482
f 463 460 483
f 484 401 407
f 485 481 484
f 486 482 485
f 487 483 486
f 467 463 487
f 488 407 414
f 489 484 488
f 490 485 489
f 491 486 490
f 492 487 491
f 472 467 492
f 323 414 169
f 322 488 323
f 321 489 322
f 320 490 321
f 319 491 320
f 318 492 319
f 197 472 318
f 457 389 478
f 478 392 479
f 458 478 480
f 479 396 481
f 480 479 482
f 460 480 483
f 481 401 484
f 482 481 485
f 483 482 486
f 463 483 487
f 484 407 488
f 485 484 489
f 486 485 490
f 487 486 491
f 467 487 492
f 488 414 323
f 489 488 322
f 490 489 321
f 491 490 320
f 492 491 319
f 472 492 318
