# File exported by Houdini 20.5.445 (www.sidefx.com)
# 492 points
# 2940 vertices
# 980 primitives
# Bounds: [-56.2187805, -237.833298, -1065.30737] to [226.992676, 354.210388, -689.493652]
g 
v 85.3869629 58.1885872 -1065.30737
v 85.3869629 105.015038 -1062.96191
v 106.665405 72.6588364 -1062.96191
v 85.3869629 150.672791 -1055.98413
v 107.854126 122.909737 -1058.37671
v 127.412781 86.7678223 -1055.98413
v 85.3869629 194.021957 -1044.54834
v 108.552399 169.536514 -1048.91455
v 128.826111 138.708069 -1048.91455
v 147.111084 100.16349 -1044.54834
v 85.3869629 233.980118 -1028.9397
v 108.782593 212.355057 -1035.06079
v 129.489197 185.233353 -1036.95557
v 148.212219 152.397888 -1035.06079
v 165.268555 112.511269 -1028.9397
v 85.3869629 269.549866 -1009.54816
v 108.552399 251.109421 -1017.05048
v 129.489197 227.165787 -1020.57574
v 148.54364 198.191147 -1020.57574
v 165.893677 163.915543 -1017.05048
v 181.431824 123.502892 -1009.54828
v 85.3869629 299.843079 -986.857727
v 107.854126 285.351562 -994.923157
v 128.826111 264.89624 -999.622742
v 148.212219 239.168747 -1001.16608
v 165.893677 208.530869 -999.622742
v 181.669495 173.107101 -994.923157
v 195.197388 132.864075 -986.857727
v 85.3869629 324.103638 -961.434875
v 106.665405 314.313293 -968.566223
v 127.412842 298.129089 -973.421692
v 147.111084 275.954956 -975.880066
v 165.268555 248.34462 -975.880066
v 181.431824 215.987198 -973.421692
v 195.197388 179.690536 -968.566223
v 206.221619 140.361023 -961.434875
v 98.5377502 20.3051548 -1062.96191
v 121.739624 33.4673843 -1058.37671
v 111.360321 -16.6326904 -1055.98413
v 143.143188 46.4859581 -1048.91455
v 135.399292 -3.395504 -1048.91455
v 123.534546 -51.7028351 -1044.54834
v 162.671509 59.2595367 -1035.06079
v 156.745789 9.66182232 -1036.95557
v 147.610779 -37.7533264 -1035.06079
v 134.75647 -84.0297546 -1028.9397
v 180.210815 71.6934204 -1017.05048
v 175.800293 22.619627 -1020.57587
v 168.522156 -24.2621422 -1020.57587
v 158.30835 -69.3893814 -1017.05048
v 144.745911 -112.806229 -1009.54828
v 195.555054 83.6647034 -994.923157
v 192.740662 35.5989037 -999.622742
v 187.040405 -10.939621 -1001.16608
v 178.582092 -55.6024475 -999.622742
v 167.360107 -97.950882 -994.923157
v 153.25354 -137.314011 -986.857727
v 208.348267 94.9806519 -968.566223
v 207.405212 48.6816177 -973.421692
v 203.416199 2.61979294 -975.880188
v 196.480713 -42.0549469 -975.880188
v 186.77179 -84.2269821 -973.421692
v 174.532043 -122.843765 -968.566223
v 160.066895 -156.941208 -961.434875
v 72.236145 20.3051548 -1062.96191
v 85.3869629 -21.8111191 -1058.37671
v 59.4135437 -16.6326904 -1055.98413
v 97.9167786 -60.391861 -1048.91455
v 72.8571167 -60.391861 -1048.91455
v 47.2393188 -51.7028351 -1044.54834
v 109.755829 -95.3159943 -1035.06079
v 85.3869629 -98.8473358 -1036.95557
v 61.0180969 -95.3159943 -1035.06079
v 36.0174255 -84.0297546 -1028.9397
v 120.825806 -126.385742 -1017.05048
v 97.1632996 -132.771317 -1020.57587
v 73.6105957 -132.771317 -1020.57587
v 49.9480591 -126.385849 -1017.05048
v 26.0279541 -112.806229 -1009.54828
v 131.007324 -153.229294 -994.923157
v 108.295959 -162.480362 -999.622742
v 85.3869629 -165.515152 -1001.16608
v 62.4779053 -162.480362 -999.622742
v 39.766571 -153.229294 -994.923157
v 17.5203552 -137.314011 -986.857727
v 140.102722 -175.197525 -968.566223
v 118.772583 -187.627579 -973.421692
v 96.6088867 -193.92128 -975.880188
v 74.1650085 -193.92128 -975.880188
v 52.0013733 -187.627579 -973.421692
v 30.6711731 -175.197525 -968.566223
v 10.7070007 -156.941208 -961.434875
v 64.1084595 72.6588364 -1062.96191
v 49.0342102 33.4673843 -1058.37671
v 43.361084 86.7678223 -1055.98413
v 35.3745728 -3.395504 -1048.91455
v 27.6307068 46.4859581 -1048.91455
v 23.6628113 100.16349 -1044.54834
v 23.1631775 -37.7533264 -1035.06079
v 14.0280762 9.66182232 -1036.95557
v 8.10238647 59.2595367 -1035.06079
v 5.50537109 112.511269 -1028.9397
v 12.4655457 -69.3893814 -1017.05048
v 2.2517395 -24.2621422 -1020.57587
v -5.02642822 22.619627 -1020.57587
v -9.43688965 71.6934204 -1017.05048
v -10.6579285 123.502892 -1009.54828
v 3.41378784 -97.950882 -994.923157
v -7.8081665 -55.6024475 -999.622742
v -16.26651 -10.939621 -1001.16608
v -21.9667358 35.5989037 -999.622742
v -24.7811584 83.6647034 -994.923157
v -24.4235229 132.864075 -986.857727
v -3.75811768 -122.843765 -968.566223
v -15.9979248 -84.2269821 -973.421692
v -25.7067871 -42.0549469 -975.880188
v -32.642334 2.61979294 -975.880188
v -36.6313782 48.6816177 -973.421692
v -37.5743408 94.9806519 -968.566223
v -35.4477539 140.361023 -961.434875
v 62.9197083 122.909737 -1058.37671
v 41.9477844 138.708069 -1048.91455
v 62.2214966 169.536514 -1048.91455
v 22.561676 152.397888 -1035.06079
v 41.2847595 185.233353 -1036.95557
v 61.991333 212.355057 -1035.06079
v 4.88015747 163.915543 -1017.05048
v 22.2302246 198.191147 -1020.57574
v 41.2847595 227.165787 -1020.57574
v 62.2214966 251.109421 -1017.05023
v -10.8955994 173.107101 -994.923157
v 4.88015747 208.530869 -999.622742
v 22.561676 239.168747 -1001.16608
v 41.9477844 264.89624 -999.622742
v 62.9197083 285.351562 -994.923157
v -24.4234924 179.690536 -968.566223
v -10.6579285 215.987198 -973.421692
v 5.50537109 248.34462 -975.880066
v 23.6628113 275.954956 -975.880066
v 43.361084 298.129089 -973.421692
v 64.1084595 314.313293 -968.566223
v 72.236145 337.726501 -938.96991
v 49.0342102 325.351379 -944.360168
v 59.4135437 344.371155 -914.967957
v 27.6307068 306.139221 -947.48822
v 35.3746033 328.446838 -919.28949
v 47.2393188 343.871582 -890.028015
v 8.10238647 280.821472 -948.513611
v 14.0281067 305.683655 -921.322815
v 23.1631775 324.206848 -893.670959
v 36.0174255 336.240295 -864.772949
v -9.43685913 249.773758 -947.48822
v -5.02639771 276.709106 -921.322815
v 2.25180054 297.675232 -894.819885
v 12.4655762 312.867798 -867.732361
v 26.0279541 321.667664 -839.833008
v -24.7811279 213.106979 -944.360168
v -21.9666748 241.253006 -919.28949
v -16.266449 264.249695 -893.670959
v -7.80810547 282.039429 -867.732361
v 3.41384888 294.327698 -841.690552
v 17.5203552 300.517578 -815.830933
v -37.5743103 170.747513 -938.96991
v -36.6313171 198.324203 -914.967957
v -32.6422424 222.402695 -890.028015
v -25.7067261 242.381699 -864.772949
v -15.9978943 257.762634 -839.833008
v -3.75811768 268.161316 -815.830933
v 10.7070007 273.318359 -793.366089
v -45.7019653 118.393875 -938.96991
v -47.2483826 68.3860626 -944.360168
v -52.6837463 94.9236526 -914.967957
v -45.1322327 19.8454628 -947.48822
v -52.8760681 42.153038 -919.28949
v -56.2187805 70.5364151 -890.028015
v -39.6621094 -26.8495331 -948.513611
v -49.1286011 -7.37152672 -921.322815
v -54.7229004 16.5358276 -893.670959
v -56.2187805 45.8408585 -864.772949
v -30.9736633 -71.3558807 -947.48822
v -41.8504333 -54.2532959 -921.322815
v -49.1286011 -33.2872238 -894.819885
v -52.8760681 -8.26179886 -867.732361
v -52.6837463 21.4535236 -839.833008
v -19.0534363 -113.229446 -944.360168
v -30.9736328 -98.9296722 -919.28949
v -39.6621094 -80.476944 -893.670959
v -45.1321716 -58.1432648 -867.732361
v -47.2483826 -32.0086746 -841.690552
v -45.7019653 -2.01670074 -815.830933
v -3.75811768 -151.784164 -938.96991
v -15.9978943 -141.385483 -914.967957
v -25.7067261 -126.004562 -890.028015
v -32.6422424 -106.025467 -864.772949
v -36.6313171 -81.946991 -839.833008
v -37.5743103 -54.370285 -815.830933
v -35.4477539 -23.9838486 -793.366089
v 17.5203552 -184.140457 -938.96991
v 39.766571 -202.671799 -944.360168
v 26.0279541 -205.290482 -914.967957
v 62.4779053 -213.459396 -947.48822
v 49.9480896 -221.98024 -919.28949
v 36.0174255 -219.863083 -890.028015
v 85.3869629 -217.000748 -948.513611
v 73.6105957 -229.824936 -921.322815
v 61.0180969 -233.572403 -893.670959
v 47.2393188 -227.494431 -864.772949
v 108.295959 -213.459396 -947.48822
v 97.1632996 -229.824936 -921.322815
v 85.3869629 -237.833298 -894.819885
v 72.8571167 -237.55928 -867.732361
v 59.4135437 -227.993881 -839.833008
v 131.007324 -202.671799 -944.360168
v 120.825806 -221.98024 -919.28949
v 109.755829 -233.572403 -893.670959
v 97.9167786 -237.55928 -867.732361
v 85.3869629 -233.695419 -841.690552
v 72.236145 -221.349319 -815.831055
v 153.25354 -184.140457 -938.96991
v 144.745911 -205.290482 -914.967957
v 134.75647 -219.863083 -890.028015
v 123.534546 -227.494431 -864.772949
v 111.360321 -227.993881 -839.833008
v 98.5377502 -221.349319 -815.831055
v 85.3869629 -207.726486 -793.366089
v 174.532043 -151.784164 -938.96991
v 189.827332 -113.229446 -944.360168
v 186.77179 -141.385483 -914.967957
v 201.747498 -71.3558807 -947.48822
v 201.747498 -98.9296722 -919.28949
v 196.480652 -126.004562 -890.028015
v 210.435974 -26.8495331 -948.513611
v 212.624329 -54.2532959 -921.322815
v 210.435974 -80.476944 -893.670959
v 203.416138 -106.025467 -864.772949
v 215.906128 19.8454628 -947.48822
v 219.902466 -7.37152672 -921.322815
v 219.902466 -33.2872238 -894.819885
v 215.906067 -58.1432648 -867.732361
v 207.405212 -81.946991 -839.833008
v 218.022278 68.3860626 -944.360168
v 223.649902 42.153038 -919.28949
v 225.496765 16.5358276 -893.670959
v 223.649902 -8.26179886 -867.732361
v 218.022278 -32.0086746 -841.690552
v 208.348206 -54.370285 -815.830933
v 216.47583 118.393875 -938.96991
v 223.457642 94.9236526 -914.967957
v 226.992676 70.5364151 -890.028015
v 226.992676 45.8408585 -864.772949
v 223.457642 21.4535236 -839.833008
v 216.47583 -2.01670074 -815.830933
v 206.221619 -23.9838486 -793.366089
v 208.348206 170.747513 -938.96991
v 195.554993 213.106979 -944.360168
v 207.405212 198.324203 -914.967957
v 180.210815 249.773758 -947.48822
v 192.740601 241.253006 -919.28949
v 203.416138 222.402695 -890.028015
v 162.671509 280.821472 -948.513611
v 175.800232 276.709106 -921.322815
v 187.040344 264.249695 -893.670959
v 196.480652 242.381699 -864.772949
v 143.143188 306.139221 -947.48822
v 156.745789 305.683655 -921.322815
v 168.522095 297.675232 -894.819885
v 178.582031 282.039429 -867.732361
v 186.77179 257.762634 -839.833008
v 121.739685 325.351379 -944.360168
v 135.399292 328.446838 -919.28949
v 147.610718 324.206848 -893.670959
v 158.30835 312.867798 -867.732361
v 167.360046 294.327698 -841.690552
v 174.532043 268.161316 -815.830933
v 98.5377502 337.726501 -938.96991
v 111.360321 344.371155 -914.967957
v 123.534546 343.871582 -890.028015
v 134.75647 336.240295 -864.772949
v 144.745911 321.667664 -839.833008
v 153.25354 300.517578 -815.830933
v 160.066895 273.318359 -793.366089
v 85.3869629 350.072632 -913.110413
v 72.8571167 353.936401 -887.068787
v 97.9167786 353.936401 -887.068787
v 61.0180969 349.949585 -861.130005
v 85.3869629 354.210388 -859.981079
v 109.755829 349.949585 -861.130005
v 49.9480896 338.357361 -835.511353
v 73.6105957 346.202026 -833.478149
v 97.1632996 346.202026 -833.478149
v 120.825806 338.357361 -835.511353
v 39.766571 319.04895 -810.440796
v 62.4779053 329.836609 -807.312744
v 85.3869629 333.377991 -806.287354
v 108.295959 329.836609 -807.312744
v 131.007324 319.04895 -810.440796
v 30.6711731 291.574585 -786.234741
v 52.0013733 304.004761 -781.379272
v 74.1650085 310.298462 -778.920776
v 96.6088867 310.298462 -778.920776
v 118.772583 304.004761 -781.379272
v 140.102722 291.574585 -786.234741
v -47.2483826 148.385864 -913.110413
v -52.8760681 124.638969 -887.068787
v -45.1321716 174.520493 -887.068787
v -54.7229004 99.8413544 -861.130005
v -49.1286011 149.664398 -859.981079
v -39.6621094 196.854111 -861.130005
v -52.8760681 74.2241364 -835.511353
v -49.1286011 123.748695 -833.478149
v -41.8504333 170.630508 -833.478149
v -30.9736328 215.3069 -835.511353
v -47.2483826 47.9911232 -810.440796
v -45.1322327 96.5317535 -807.312744
v -39.6621094 143.226746 -806.287354
v -30.9736633 187.733047 -807.312744
v -19.0534363 229.606644 -810.440796
v -37.5743408 21.3965702 -786.234741
v -36.6313782 67.6956482 -781.379272
v -32.642334 113.757431 -778.920776
v -25.7067871 158.432114 -778.920776
v -15.9979248 200.604202 -781.379272
v -3.75811768 239.220963 -786.234741
v 3.41384888 -177.950485 -913.110413
v 12.4655762 -196.490646 -887.068787
v -7.80810547 -165.662277 -887.068787
v 23.1631775 -207.829666 -861.130005
v 2.25180054 -181.29805 -859.981079
v -16.266449 -147.872482 -861.130005
v 35.3746033 -212.069687 -835.511353
v 14.0281067 -189.306412 -833.478149
v -5.02639771 -160.331894 -833.478149
v -21.9666748 -124.875839 -835.511353
v 49.0342102 -208.974197 -810.440796
v 27.6307373 -189.762131 -807.312744
v 8.10238647 -164.44429 -806.287354
v -9.43685913 -133.396652 -807.312744
v -24.7810974 -96.7297287 -810.440796
v 64.1084595 -197.936142 -786.234741
v 43.361084 -181.751938 -781.379272
v 23.6628113 -159.577805 -778.920776
v 5.50537109 -131.967453 -778.920776
v -10.6579285 -99.6099701 -781.379272
v -24.4234924 -63.3133163 -786.234741
v 167.360107 -177.950485 -913.110413
v 178.582031 -165.662155 -887.068787
v 158.30835 -196.490646 -887.068787
v 187.040344 -147.872482 -861.130005
v 168.522095 -181.29805 -859.981079
v 147.610718 -207.829666 -861.130005
v 192.740601 -124.875839 -835.511353
v 175.800232 -160.331894 -833.478149
v 156.745789 -189.306412 -833.478149
v 135.399292 -212.069687 -835.511353
v 195.554993 -96.7297287 -810.440796
v 180.210815 -133.396652 -807.312744
v 162.671509 -164.44429 -806.287354
v 143.143188 -189.762131 -807.312744
v 121.739685 -208.974197 -810.440796
v 195.197388 -63.3133163 -786.234741
v 181.431824 -99.6099701 -781.379272
v 165.268555 -131.967453 -778.920776
v 147.111084 -159.577805 -778.920776
v 127.412842 -181.751938 -781.379272
v 106.665405 -197.936142 -786.234741
v 218.022278 148.385864 -913.110413
v 215.906067 174.520493 -887.068787
v 223.649902 124.638969 -887.068787
v 210.435974 196.854172 -861.130005
v 219.902466 149.664398 -859.981079
v 225.496765 99.8413544 -861.130005
v 201.747498 215.3069 -835.511353
v 212.624329 170.630508 -833.478149
v 219.902466 123.748695 -833.478149
v 223.649902 74.2241364 -835.511353
v 189.827332 229.606644 -810.440796
v 201.747498 187.733047 -807.312744
v 210.435974 143.226746 -806.287354
v 215.906128 96.5317535 -807.312744
v 218.022278 47.9911232 -810.440796
v 174.532043 239.220963 -786.234741
v 186.77179 200.604202 -781.379272
v 196.480713 158.432114 -778.920776
v 203.416199 113.757431 -778.920776
v 207.405212 67.6956482 -781.379272
v 208.348267 21.3965702 -786.234741
v 85.3869629 58.1885872 -689.493652
v 98.5377502 96.0720139 -691.838989
v 72.236145 96.0720139 -691.838989
v 111.360321 133.009918 -698.816772
v 85.3869629 138.188293 -696.424316
v 59.4135437 133.009918 -698.816772
v 123.534546 168.080063 -710.252686
v 97.9167786 176.769089 -705.886353
v 72.8571167 176.769089 -705.886353
v 47.2393188 168.080063 -710.252686
v 134.75647 200.406937 -725.861206
v 109.755829 211.693222 -719.740234
v 85.3869629 215.224533 -717.845337
v 61.0180969 211.693222 -719.740234
v 36.0174255 200.406937 -725.861206
v 144.745911 229.183456 -745.252808
v 120.825806 242.762894 -737.750488
v 97.1632996 249.148514 -734.225098
v 73.6105957 249.148514 -734.225098
v 49.9480591 242.762985 -737.750488
v 26.0279541 229.183456 -745.252808
v 153.25354 253.691147 -767.943237
v 131.007324 269.606445 -759.877808
v 108.295959 278.857544 -755.178223
v 85.3869629 281.892334 -753.634888
v 62.4779053 278.857544 -755.178223
v 39.766571 269.606445 -759.877808
v 17.5203552 253.691147 -767.943237
v 106.665405 43.7183418 -691.838989
v 127.412781 29.6093521 -698.816772
v 121.739624 82.9098892 -696.424316
v 147.111084 16.2136879 -710.252686
v 143.143188 69.8912277 -705.886353
v 135.399292 119.77272 -705.886353
v 165.268555 3.86595535 -725.861206
v 162.671509 57.1176414 -719.740234
v 156.745789 106.715355 -717.845337
v 147.610779 154.130508 -719.740234
v 181.431824 -7.12571526 -745.252808
v 180.210815 44.6837578 -737.750488
v 175.800293 93.7575531 -734.225098
v 168.522156 140.639313 -734.225098
v 158.30835 185.766556 -737.750488
v 195.197388 -16.4868584 -767.943237
v 195.555054 32.7124748 -759.877808
v 192.740662 80.7783661 -755.178223
v 187.040405 127.316811 -753.634888
v 178.582092 171.97963 -755.178223
v 167.360107 214.328049 -759.877808
v 85.3869629 11.3621311 -691.838989
v 85.3869629 -34.2955856 -698.816772
v 107.854126 -6.53256607 -696.424316
v 85.3869629 -77.6447372 -710.252686
v 108.552399 -53.1593323 -705.886353
v 128.826111 -22.3308525 -705.886353
v 85.3869629 -117.602921 -725.861206
v 108.782593 -95.9778366 -719.740356
v 129.489197 -68.8561859 -717.845337
v 148.212219 -36.0207253 -719.740234
v 85.3869629 -153.172623 -745.252808
v 108.552399 -134.732254 -737.750488
v 129.489197 -110.788589 -734.22522
v 148.54364 -81.8139877 -734.22522
v 165.893677 -47.5383148 -737.750488
v 85.3869629 -183.465897 -767.943237
v 107.854126 -168.97435 -759.877808
v 128.826111 -148.519119 -755.178223
v 148.212219 -122.79155 -753.634888
v 165.893677 -92.1536484 -755.178223
v 181.669495 -56.7298889 -759.877808
v 64.1084595 43.7183418 -691.838989
v 43.361084 29.6093521 -698.816772
v 62.9197083 -6.53256607 -696.424316
v 23.6628113 16.2136879 -710.252686
v 41.9477844 -22.3308525 -705.886353
v 62.2214966 -53.1593323 -705.886353
v 5.50537109 3.86595535 -725.861206
v 22.561676 -36.0207253 -719.740234
v 41.2847595 -68.8561859 -717.845337
v 61.991333 -95.9778366 -719.740356
v -10.6579285 -7.12571526 -745.252808
v 4.88015747 -47.5383148 -737.750488
v 22.2302246 -81.8139877 -734.22522
v 41.2847595 -110.788589 -734.22522
v 62.2214966 -134.732254 -737.750488
v -24.4235229 -16.4868584 -767.943237
v -10.8955994 -56.7298889 -759.877808
v 4.88015747 -92.1536484 -755.178223
v 22.561676 -122.79155 -753.634888
v 41.9477844 -148.519119 -755.178223
v 62.9197083 -168.97435 -759.877808
v 49.0342102 82.9098892 -696.424316
v 35.3745728 119.77272 -705.886353
v 27.6307068 69.8912277 -705.886353
v 23.1631775 154.130508 -719.740234
v 14.0280762 106.715355 -717.845337
v 8.10238647 57.1176414 -719.740234
v 12.4655457 185.766556 -737.750488
v 2.2517395 140.639313 -734.225098
v -5.02642822 93.7575531 -734.225098
v -9.43688965 44.6837578 -737.750488
v 3.41378784 214.328049 -759.877808
v -7.8081665 171.97963 -755.178223
v -16.26651 127.316811 -753.634888
v -21.9667358 80.7783661 -755.178223
v -24.7811584 32.7124748 -759.877808
g 
f 3 1 2
f 5 2 4
f 6 3 5
f 8 4 7
f 9 5 8
f 10 6 9
f 12 7 11
f 13 8 12
f 14 9 13
f 15 10 14
f 17 11 16
f 18 12 17
f 19 13 18
f 20 14 19
f 21 15 20
f 23 16 22
f 24 17 23
f 25 18 24
f 26 19 25
f 27 20 26
f 28 21 27
f 30 22 29
f 31 23 30
f 32 24 31
f 33 25 32
f 34 26 33
f 35 27 34
f 36 28 35
f 3 2 5
f 5 4 8
f 6 5 9
f 8 7 12
f 9 8 13
f 10 9 14
f 12 11 17
f 13 12 18
f 14 13 19
f 15 14 20
f 17 16 23
f 18 17 24
f 19 18 25
f 20 19 26
f 21 20 27
f 23 22 30
f 24 23 31
f 25 24 32
f 26 25 33
f 27 26 34
f 28 27 35
f 37 1 3
f 38 3 6
f 39 37 38
f 40 6 10
f 41 38 40
f 42 39 41
f 43 10 15
f 44 40 43
f 45 41 44
f 46 42 45
f 47 15 21
f 48 43 47
f 49 44 48
f 50 45 49
f 51 46 50
f 52 21 28
f 53 47 52
f 54 48 53
f 55 49 54
f 56 50 55
f 57 51 56
f 58 28 36
f 59 52 58
f 60 53 59
f 61 54 60
f 62 55 61
f 63 56 62
f 64 57 63
f 37 3 38
f 38 6 40
f 39 38 41
f 40 10 43
f 41 40 44
f 42 41 45
f 43 15 47
f 44 43 48
f 45 44 49
f 46 45 50
f 47 21 52
f 48 47 53
f 49 48 54
f 50 49 55
f 51 50 56
f 52 28 58
f 53 52 59
f 54 53 60
f 55 54 61
f 56 55 62
f 57 56 63
f 65 1 37
f 66 37 39
f 67 65 66
f 68 39 42
f 69 66 68
f 70 67 69
f 71 42 46
f 72 68 71
f 73 69 72
f 74 70 73
f 75 46 51
f 76 71 75
f 77 72 76
f 78 73 77
f 79 74 78
f 80 51 57
f 81 75 80
f 82 76 81
f 83 77 82
f 84 78 83
f 85 79 84
f 86 57 64
f 87 80 86
f 88 81 87
f 89 82 88
f 90 83 89
f 91 84 90
f 92 85 91
f 65 37 66
f 66 39 68
f 67 66 69
f 68 42 71
f 69 68 72
f 70 69 73
f 71 46 75
f 72 71 76
f 73 72 77
f 74 73 78
f 75 51 80
f 76 75 81
f 77 76 82
f 78 77 83
f 79 78 84
f 80 57 86
f 81 80 87
f 82 81 88
f 83 82 89
f 84 83 90
f 85 84 91
f 93 1 65
f 94 65 67
f 95 93 94
f 96 67 70
f 97 94 96
f 98 95 97
f 99 70 74
f 100 96 99
f 101 97 100
f 102 98 101
f 103 74 79
f 104 99 103
f 105 100 104
f 106 101 105
f 107 102 106
f 108 79 85
f 109 103 108
f 110 104 109
f 111 105 110
f 112 106 111
f 113 107 112
f 114 85 92
f 115 108 114
f 116 109 115
f 117 110 116
f 118 111 117
f 119 112 118
f 120 113 119
f 93 65 94
f 94 67 96
f 95 94 97
f 96 70 99
f 97 96 100
f 98 97 101
f 99 74 103
f 100 99 104
f 101 100 105
f 102 101 106
f 103 79 108
f 104 103 109
f 105 104 110
f 106 105 111
f 107 106 112
f 108 85 114
f 109 108 115
f 110 109 116
f 111 110 117
f 112 111 118
f 113 112 119
f 2 1 93
f 121 93 95
f 4 2 121
f 122 95 98
f 123 121 122
f 7 4 123
f 124 98 102
f 125 122 124
f 126 123 125
f 11 7 126
f 127 102 107
f 128 124 127
f 129 125 128
f 130 126 129
f 16 11 130
f 131 107 113
f 132 127 131
f 133 128 132
f 134 129 133
f 135 130 134
f 22 16 135
f 136 113 120
f 137 131 136
f 138 132 137
f 139 133 138
f 140 134 139
f 141 135 140
f 29 22 141
f 2 93 121
f 121 95 122
f 4 121 123
f 122 98 124
f 123 122 125
f 7 123 126
f 124 102 127
f 125 124 128
f 126 125 129
f 11 126 130
f 127 107 131
f 128 127 132
f 129 128 133
f 130 129 134
f 16 130 135
f 131 113 136
f 132 131 137
f 133 132 138
f 134 133 139
f 135 134 140
f 22 135 141
f 142 29 141
f 143 141 140
f 144 142 143
f 145 140 139
f 146 143 145
f 147 144 146
f 148 139 138
f 149 145 148
f 150 146 149
f 151 147 150
f 152 138 137
f 153 148 152
f 154 149 153
f 155 150 154
f 156 151 155
f 157 137 136
f 158 152 157
f 159 153 158
f 160 154 159
f 161 155 160
f 162 156 161
f 163 136 120
f 164 157 163
f 165 158 164
f 166 159 165
f 167 160 166
f 168 161 167
f 169 162 168
f 142 141 143
f 143 140 145
f 144 143 146
f 145 139 148
f 146 145 149
f 147 146 150
f 148 138 152
f 149 148 153
f 150 149 154
f 151 150 155
f 152 137 157
f 153 152 158
f 154 153 159
f 155 154 160
f 156 155 161
f 157 136 163
f 158 157 164
f 159 158 165
f 160 159 166
f 161 160 167
f 162 161 168
f 170 120 119
f 171 119 118
f 172 170 171
f 173 118 117
f 174 171 173
f 175 172 174
f 176 117 116
f 177 173 176
f 178 174 177
f 179 175 178
f 180 116 115
f 181 176 180
f 182 177 181
f 183 178 182
f 184 179 183
f 185 115 114
f 186 180 185
f 187 181 186
f 188 182 187
f 189 183 188
f 190 184 189
f 191 114 92
f 192 185 191
f 193 186 192
f 194 187 193
f 195 188 194
f 196 189 195
f 197 190 196
f 170 119 171
f 171 118 173
f 172 171 174
f 173 117 176
f 174 173 177
f 175 174 178
f 176 116 180
f 177 176 181
f 178 177 182
f 179 178 183
f 180 115 185
f 181 180 186
f 182 181 187
f 183 182 188
f 184 183 189
f 185 114 191
f 186 185 192
f 187 186 193
f 188 187 194
f 189 188 195
f 190 189 196
f 198 92 91
f 199 91 90
f 200 198 199
f 201 90 89
f 202 199 201
f 203 200 202
f 204 89 88
f 205 201 204
f 206 202 205
f 207 203 206
f 208 88 87
f 209 204 208
f 210 205 209
f 211 206 210
f 212 207 211
f 213 87 86
f 214 208 213
f 215 209 214
f 216 210 215
f 217 211 216
f 218 212 217
f 219 86 64
f 220 213 219
f 221 214 220
f 222 215 221
f 223 216 222
f 224 217 223
f 225 218 224
f 198 91 199
f 199 90 201
f 200 199 202
f 201 89 204
f 202 201 205
f 203 202 206
f 204 88 208
f 205 204 209
f 206 205 210
f 207 206 211
f 208 87 213
f 209 208 214
f 210 209 215
f 211 210 216
f 212 211 217
f 213 86 219
f 214 213 220
f 215 214 221
f 216 215 222
f 217 216 223
f 218 217 224
f 226 64 63
f 227 63 62
f 228 226 227
f 229 62 61
f 230 227 229
f 231 228 230
f 232 61 60
f 233 229 232
f 234 230 233
f 235 231 234
f 236 60 59
f 237 232 236
f 238 233 237
f 239 234 238
f 240 235 239
f 241 59 58
f 242 236 241
f 243 237 242
f 244 238 243
f 245 239 244
f 246 240 245
f 247 58 36
f 248 241 247
f 249 242 248
f 250 243 249
f 251 244 250
f 252 245 251
f 253 246 252
f 226 63 227
f 227 62 229
f 228 227 230
f 229 61 232
f 230 229 233
f 231 230 234
f 232 60 236
f 233 232 237
f 234 233 238
f 235 234 239
f 236 59 241
f 237 236 242
f 238 237 243
f 239 238 244
f 240 239 245
f 241 58 247
f 242 241 248
f 243 242 249
f 244 243 250
f 245 244 251
f 246 245 252
f 254 36 35
f 255 35 34
f 256 254 255
f 257 34 33
f 258 255 257
f 259 256 258
f 260 33 32
f 261 257 260
f 262 258 261
f 263 259 262
f 264 32 31
f 265 260 264
f 266 261 265
f 267 262 266
f 268 263 267
f 269 31 30
f 270 264 269
f 271 265 270
f 272 266 271
f 273 267 272
f 274 268 273
f 275 30 29
f 276 269 275
f 277 270 276
f 278 271 277
f 279 272 278
f 280 273 279
f 281 274 280
f 254 35 255
f 255 34 257
f 256 255 258
f 257 33 260
f 258 257 261
f 259 258 262
f 260 32 264
f 261 260 265
f 262 261 266
f 263 262 267
f 264 31 269
f 265 264 270
f 266 265 271
f 267 266 272
f 268 267 273
f 269 30 275
f 270 269 276
f 271 270 277
f 272 271 278
f 273 272 279
f 274 273 280
f 275 29 142
f 282 142 144
f 276 275 282
f 283 144 147
f 284 282 283
f 277 276 284
f 285 147 151
f 286 283 285
f 287 284 286
f 278 277 287
f 288 151 156
f 289 285 288
f 290 286 289
f 291 287 290
f 279 278 291
f 292 156 162
f 293 288 292
f 294 289 293
f 295 290 294
f 296 291 295
f 280 279 296
f 297 162 169
f 298 292 297
f 299 293 298
f 300 294 299
f 301 295 300
f 302 296 301
f 281 280 302
f 275 142 282
f 282 144 283
f 276 282 284
f 283 147 285
f 284 283 286
f 277 284 287
f 285 151 288
f 286 285 289
f 287 286 290
f 278 287 291
f 288 156 292
f 289 288 293
f 290 289 294
f 291 290 295
f 279 291 296
f 292 162 297
f 293 292 298
f 294 293 299
f 295 294 300
f 296 295 301
f 280 296 302
f 163 120 170
f 303 170 172
f 164 163 303
f 304 172 175
f 305 303 304
f 165 164 305
f 306 175 179
f 307 304 306
f 308 305 307
f 166 165 308
f 309 179 184
f 310 306 309
f 311 307 310
f 312 308 311
f 167 166 312
f 313 184 190
f 314 309 313
f 315 310 314
f 316 311 315
f 317 312 316
f 168 167 317
f 318 190 197
f 319 313 318
f 320 314 319
f 321 315 320
f 322 316 321
f 323 317 322
f 169 168 323
f 163 170 303
f 303 172 304
f 164 303 305
f 304 175 306
f 305 304 307
f 165 305 308
f 306 179 309
f 307 306 310
f 308 307 311
f 166 308 312
f 309 184 313
f 310 309 314
f 311 310 315
f 312 311 316
f 167 312 317
f 313 190 318
f 314 313 319
f 315 314 320
f 316 315 321
f 317 316 322
f 168 317 323
f 191 92 198
f 324 198 200
f 192 191 324
f 325 200 203
f 326 324 325
f 193 192 326
f 327 203 207
f 328 325 327
f 329 326 328
f 194 193 329
f 330 207 212
f 331 327 330
f 332 328 331
f 333 329 332
f 195 194 333
f 334 212 218
f 335 330 334
f 336 331 335
f 337 332 336
f 338 333 337
f 196 195 338
f 339 218 225
f 340 334 339
f 341 335 340
f 342 336 341
f 343 337 342
f 344 338 343
f 197 196 344
f 191 198 324
f 324 200 325
f 192 324 326
f 325 203 327
f 326 325 328
f 193 326 329
f 327 207 330
f 328 327 331
f 329 328 332
f 194 329 333
f 330 212 334
f 331 330 335
f 332 331 336
f 333 332 337
f 195 333 338
f 334 218 339
f 335 334 340
f 336 335 341
f 337 336 342
f 338 337 343
f 196 338 344
f 219 64 226
f 345 226 228
f 220 219 345
f 346 228 231
f 347 345 346
f 221 220 347
f 348 231 235
f 349 346 348
f 350 347 349
f 222 221 350
f 351 235 240
f 352 348 351
f 353 349 352
f 354 350 353
f 223 222 354
f 355 240 246
f 356 351 355
f 357 352 356
f 358 353 357
f 359 354 358
f 224 223 359
f 360 246 253
f 361 355 360
f 362 356 361
f 363 357 362
f 364 358 363
f 365 359 364
f 225 224 365
f 219 226 345
f 345 228 346
f 220 345 347
f 346 231 348
f 347 346 349
f 221 347 350
f 348 235 351
f 349 348 352
f 350 349 353
f 222 350 354
f 351 240 355
f 352 351 356
f 353 352 357
f 354 353 358
f 223 354 359
f 355 246 360
f 356 355 361
f 357 356 362
f 358 357 363
f 359 358 364
f 224 359 365
f 247 36 254
f 366 254 256
f 248 247 366
f 367 256 259
f 368 366 367
f 249 248 368
f 369 259 263
f 370 367 369
f 371 368 370
f 250 249 371
f 372 263 268
f 373 369 372
f 374 370 373
f 375 371 374
f 251 250 375
f 376 268 274
f 377 372 376
f 378 373 377
f 379 374 378
f 380 375 379
f 252 251 380
f 381 274 281
f 382 376 381
f 383 377 382
f 384 378 383
f 385 379 384
f 386 380 385
f 253 252 386
f 247 254 366
f 366 256 367
f 248 366 368
f 367 259 369
f 368 367 370
f 249 368 371
f 369 263 372
f 370 369 373
f 371 370 374
f 250 371 375
f 372 268 376
f 373 372 377
f 374 373 378
f 375 374 379
f 251 375 380
f 376 274 381
f 377 376 382
f 378 377 383
f 379 378 384
f 380 379 385
f 252 380 386
f 389 387 388
f 391 388 390
f 392 389 391
f 394 390 393
f 395 391 394
f 396 392 395
f 398 393 397
f 399 394 398
f 400 395 399
f 401 396 400
f 403 397 402
f 404 398 403
f 405 399 404
f 406 400 405
f 407 401 406
f 409 402 408
f 410 403 409
f 411 404 410
f 412 405 411
f 413 406 412
f 414 407 413
f 302 408 281
f 301 409 302
f 300 410 301
f 299 411 300
f 298 412 299
f 297 413 298
f 169 414 297
f 389 388 391
f 391 390 394
f 392 391 395
f 394 393 398
f 395 394 399
f 396 395 400
f 398 397 403
f 399 398 404
f 400 399 405
f 401 400 406
f 403 402 409
f 404 403 410
f 405 404 411
f 406 405 412
f 407 406 413
f 409 408 302
f 410 409 301
f 411 410 300
f 412 411 299
f 413 412 298
f 414 413 297
f 388 387 415
f 417 415 416
f 390 388 417
f 419 416 418
f 420 417 419
f 393 390 420
f 422 418 421
f 423 419 422
f 424 420 423
f 397 393 424
f 426 421 425
f 427 422 426
f 428 423 427
f 429 424 428
f 402 397 429
f 431 425 430
f 432 426 431
f 433 427 432
f 434 428 433
f 435 429 434
f 408 402 435
f 386 430 253
f 385 431 386
f 384 432 385
f 383 433 384
f 382 434 383
f 381 435 382
f 281 408 381
f 388 415 417
f 417 416 419
f 390 417 420
f 419 418 422
f 420 419 423
f 393 420 424
f 422 421 426
f 423 422 427
f 424 423 428
f 397 424 429
f 426 425 431
f 427 426 432
f 428 427 433
f 429 428 434
f 402 429 435
f 431 430 386
f 432 431 385
f 433 432 384
f 434 433 383
f 435 434 382
f 408 435 381
f 415 387 436
f 438 436 437
f 416 415 438
f 440 437 439
f 441 438 440
f 418 416 441
f 443 439 442
f 444 440 443
f 445 441 444
f 421 418 445
f 447 442 446
f 448 443 447
f 449 444 448
f 450 445 449
f 425 421 450
f 452 446 451
f 453 447 452
f 454 448 453
f 455 449 454
f 456 450 455
f 430 425 456
f 365 451 225
f 364 452 365
f 363 453 364
f 362 454 363
f 361 455 362
f 360 456 361
f 253 430 360
f 415 436 438
f 438 437 440
f 416 438 441
f 440 439 443
f 441 440 444
f 418 441 445
f 443 442 447
f 444 443 448
f 445 444 449
f 421 445 450
f 447 446 452
f 448 447 453
f 449 448 454
f 450 449 455
f 425 450 456
f 452 451 365
f 453 452 364
f 454 453 363
f 455 454 362
f 456 455 361
f 430 456 360
f 436 387 457
f 459 457 458
f 437 436 459
f 461 458 460
f 462 459 461
f 439 437 462
f 464 460 463
f 465 461 464
f 466 462 465
f 442 439 466
f 468 463 467
f 469 464 468
f 470 465 469
f 471 466 470
f 446 442 471
f 473 467 472
f 474 468 473
f 475 469 474
f 476 470 475
f 477 471 476
f 451 446 477
f 344 472 197
f 343 473 344
f 342 474 343
f 341 475 342
f 340 476 341
f 339 477 340
f 225 451 339
f 436 457 459
f 459 458 461
f 437 459 462
f 461 460 464
f 462 461 465
f 439 462 466
f 464 463 468
f 465 464 469
f 466 465 470
f 442 466 471
f 468 467 473
f 469 468 474
f 470 469 475
f 471 470 476
f 446 471 477
f 473 472 344
f 474 473 343
f 475 474 342
f 476 475 341
f 477 476 340
f 451 477 339
f 457 387 389
f 478 389 392
f 458 457 478
f 479 392 396
f 480 478 479
f 460 458 480
f 481 396 401
f 482 479 481
f 483 480 482
f 463 460 483
f 484 401 407
f 485 481 484
f 486 482 485
f 487 483 486
f 467 463 487
f 488 407 414
f 489 484 488
f 490 485 489
f 491 486 490
f 492 487 491
f 472 467 492
f 323 414 169
f 322 488 323
f 321 489 322
f 320 490 321
f 319 491 320
f 318 492 319
f 197 472 318
f 457 389 478
f 478 392 479
f 458 478 480
f 479 396 481
f 480 479 482
f 460 480 483
f 481 401 484
f 482 481 485
f 483 482 486
f 463 483 487
f 484 407 488
f 485 484 489
f 486 485 490
f 487 486 491
f 467 487 492
f 488 414 323
f 489 488 322
f 490 489 321
f 491 490 320
f 492 491 319
f 472 492 318
