# File exported by Houdini 20.5.445 (www.sidefx.com)
# 492 points
# 2940 vertices
# 980 primitives
# Bounds: [-18.7949219, -252.432266, -1120.80249] to [189.568848, 368.809387, -633.998535]
g 
v 85.3869629 58.188591 -1120.80249
v 85.3869629 107.324394 -1117.7644
v 101.041992 73.3724747 -1117.7644
v 85.3869629 155.233871 -1108.72595
v 101.916504 126.101616 -1111.82495
v 116.306152 88.1772766 -1108.72595
v 85.3869629 200.720871 -1093.9126
v 102.430237 175.027817 -1099.56848
v 117.345947 142.679047 -1099.56848
v 130.798523 102.233574 -1093.9126
v 85.3869629 242.649673 -1073.69434
v 102.599487 219.958145 -1081.62317
v 117.833801 191.498886 -1084.07751
v 131.608704 157.044022 -1081.62317
v 144.157349 115.190315 -1073.69434
v 85.3869629 279.973633 -1048.57593
v 102.430237 260.623657 -1058.29382
v 117.833801 235.499283 -1062.86023
v 131.852539 205.095779 -1062.86023
v 144.61731 169.129684 -1058.29382
v 156.04895 126.724007 -1048.57593
v 85.3869629 311.760864 -1019.18408
v 101.916504 296.554626 -1029.63159
v 117.345947 275.090576 -1035.71899
v 131.608704 248.094254 -1037.71826
v 144.61731 215.945389 -1035.71899
v 156.223877 178.774551 -1029.63159
v 166.176575 136.546844 -1019.18408
v 85.3869629 337.217896 -986.253052
v 101.041992 326.944763 -995.490479
v 116.306213 309.962341 -1001.77991
v 130.798523 286.694641 -1004.96448
v 144.157349 257.722595 -1004.96448
v 156.04895 223.769363 -1001.77991
v 166.176575 185.682693 -995.490479
v 174.287292 144.413544 -986.253174
v 95.0623169 18.4368477 -1117.7644
v 112.132324 32.2481041 -1111.82495
v 104.496094 -20.3226662 -1108.72595
v 127.879333 45.9088058 -1099.56848
v 122.182007 -6.43266106 -1099.56848
v 113.45282 -57.122467 -1093.9126
v 142.246643 59.312355 -1081.62317
v 137.886963 7.26861763 -1084.07751
v 131.166138 -42.4849091 -1081.62317
v 121.709045 -91.0435638 -1073.69434
v 155.150574 72.3594437 -1058.29382
v 151.905762 20.8654633 -1062.86035
v 146.551025 -28.3283806 -1062.86035
v 139.036621 -75.6811676 -1058.29382
v 129.058472 -121.239304 -1048.57593
v 166.439636 84.9211121 -1029.63159
v 164.36908 34.484745 -1035.71899
v 160.175293 -14.3488312 -1037.71826
v 153.952332 -61.2142944 -1035.71899
v 145.696167 -105.651245 -1029.63159
v 135.317688 -146.955734 -1019.18408
v 175.851807 96.7950897 -995.490479
v 175.15802 48.2127609 -1001.77991
v 172.223206 -0.120801926 -1004.9646
v 167.120667 -46.9986725 -1004.9646
v 159.977661 -91.250618 -1001.77991
v 150.972656 -131.771866 -995.490479
v 140.330383 -167.550888 -986.253174
v 75.7116699 18.4368477 -1117.7644
v 85.3869629 -25.7564812 -1111.82495
v 66.2778931 -20.3226662 -1108.72595
v 94.6054077 -66.2400131 -1099.56848
v 76.1685181 -66.2400131 -1099.56848
v 57.321106 -57.122467 -1093.9126
v 103.315552 -102.886513 -1081.62317
v 85.3869629 -106.591904 -1084.07751
v 67.458374 -102.886513 -1081.62317
v 49.0648804 -91.0435638 -1073.69434
v 111.460022 -135.48851 -1058.29382
v 94.0510864 -142.189011 -1062.86035
v 76.7229004 -142.189011 -1062.86035
v 59.3139038 -135.48851 -1058.29382
v 41.7154541 -121.239304 -1048.57593
v 118.950745 -163.65593 -1029.63159
v 102.241577 -173.363113 -1035.71899
v 85.3869629 -176.547684 -1037.71826
v 68.5323486 -173.363113 -1035.71899
v 51.8232422 -163.65593 -1029.63159
v 35.4562378 -146.955734 -1019.18408
v 125.642334 -186.707474 -995.490479
v 109.949341 -199.750656 -1001.77991
v 93.6431274 -206.354721 -1004.9646
v 77.1308594 -206.354721 -1004.9646
v 60.824585 -199.750656 -1001.77991
v 45.1315918 -186.707474 -995.490479
v 30.4435425 -167.550888 -986.253174
v 69.7320557 73.3724747 -1117.7644
v 58.6416016 32.2481041 -1111.82495
v 54.4677734 88.1772766 -1108.72595
v 48.59198 -6.43266106 -1099.56848
v 42.8947144 45.9088058 -1099.56848
v 39.9754028 102.233574 -1093.9126
v 39.6077881 -42.4849091 -1081.62317
v 32.8869629 7.26861763 -1084.07751
v 28.5273438 59.312355 -1081.62317
v 26.6166382 115.190315 -1073.69434
v 31.7373657 -75.6811676 -1058.29382
v 24.2229004 -28.3283806 -1062.86035
v 18.8682251 20.8654633 -1062.86035
v 15.6233521 72.3594437 -1058.29382
v 14.7249756 126.724007 -1048.57593
v 25.0778198 -105.651245 -1029.63159
v 16.8216553 -61.2142944 -1035.71899
v 10.5986938 -14.3488312 -1037.71826
v 6.40490723 34.484745 -1035.71899
v 4.33428955 84.9211121 -1029.63159
v 4.59741211 136.546844 -1019.18408
v 19.8013306 -131.771866 -995.490479
v 10.7962646 -91.250618 -1001.77991
v 3.65325928 -46.9986725 -1004.9646
v -1.44934082 -0.120801926 -1004.9646
v -4.38409424 48.2127609 -1001.77991
v -5.07788086 96.7950897 -995.490479
v -3.51330566 144.413544 -986.253174
v 68.8574219 126.101616 -1111.82495
v 53.4279785 142.679047 -1099.56848
v 68.343689 175.027817 -1099.56848
v 39.1652832 157.044022 -1081.62317
v 52.9401855 191.498886 -1084.07751
v 68.1743774 219.958145 -1081.62317
v 26.1566772 169.129684 -1058.29382
v 38.9214478 205.095779 -1062.86023
v 52.9401855 235.499283 -1062.86023
v 68.343689 260.623657 -1058.2937
v 14.5501709 178.774551 -1029.63159
v 26.1566772 215.945389 -1035.71899
v 39.1652832 248.094254 -1037.71826
v 53.4279785 275.090576 -1035.71899
v 68.8574219 296.554626 -1029.63159
v 4.59741211 185.682693 -995.490479
v 14.7249756 223.769363 -1001.77991
v 26.6166382 257.722595 -1004.96448
v 39.9754028 286.694641 -1004.96448
v 54.4677734 309.962341 -1001.77991
v 69.7319946 326.944763 -995.490479
v 75.7116699 351.512573 -957.153564
v 58.6416016 338.527161 -964.13562
v 66.2778931 358.484985 -926.062988
v 42.8947144 318.367493 -968.1875
v 48.59198 341.775391 -931.660767
v 57.321106 357.960693 -893.757568
v 28.5273438 291.801147 -969.515747
v 32.8869629 317.889404 -934.294556
v 39.6077881 337.326233 -898.476196
v 49.0649414 349.953003 -861.043579
v 15.6233521 259.22229 -968.1875
v 18.8682251 287.485962 -934.294556
v 24.2229004 309.486084 -899.964478
v 31.7374268 325.427979 -864.877075
v 41.7154541 334.661743 -828.738159
v 4.33435059 220.747116 -964.13562
v 6.40496826 250.281296 -931.660767
v 10.5986938 274.412048 -898.476196
v 16.8216553 293.079102 -864.877075
v 25.0778809 305.973511 -831.144165
v 35.4562988 312.46875 -797.647461
v -5.07788086 176.298599 -957.153564
v -4.38409424 205.235336 -926.062988
v -1.44927979 230.501328 -893.757568
v 3.65332031 251.465652 -861.043579
v 10.7962646 267.605164 -828.738159
v 19.8013306 278.516663 -797.647461
v 30.4435425 283.927979 -768.547852
v -11.0575562 121.363045 -957.153564
v -12.1952515 68.8889618 -964.13562
v -16.1942139 96.7353287 -926.062988
v -10.6383667 17.9543915 -968.1875
v -16.3356323 41.3622055 -931.660767
v -18.7949219 71.1452713 -893.757568
v -6.6138916 -31.0434723 -969.515747
v -13.5785522 -10.6047707 -934.294556
v -17.694397 14.4816284 -898.476196
v -18.7949219 45.2318039 -861.043579
v -0.221679688 -77.744751 -968.1875
v -8.22387695 -59.7987061 -934.294556
v -13.5785522 -37.7985573 -899.964478
v -16.3356323 -11.5389481 -864.877075
v -16.1942139 19.6418495 -828.738159
v 8.54827881 -121.683395 -964.13562
v -0.221618652 -106.678391 -931.660767
v -6.6138916 -87.3156357 -898.476196
v -10.6383667 -63.8805161 -864.877075
v -12.1952515 -36.456955 -831.144165
v -11.0575562 -4.98585892 -797.647461
v 19.8013306 -162.139511 -957.153564
v 10.7962646 -151.227982 -926.062988
v 3.65332031 -135.088547 -893.757568
v -1.44927979 -114.124146 -861.043579
v -4.38409424 -88.8581848 -828.738159
v -5.07788086 -59.9214783 -797.647461
v -3.51330566 -28.0363655 -768.547974
v 35.4562988 -196.091537 -957.153564
v 51.8232422 -215.53688 -964.13562
v 41.7154541 -218.284714 -926.062988
v 68.5323486 -226.856522 -968.1875
v 59.3139648 -235.797562 -931.660767
v 49.0649414 -233.575821 -893.757568
v 85.3869629 -230.572433 -969.515747
v 76.7229004 -244.028946 -934.294556
v 67.458374 -247.961441 -898.476196
v 57.321106 -241.583542 -861.043579
v 102.241577 -226.856522 -968.1875
v 94.0510864 -244.028946 -934.294556
v 85.3869629 -252.432266 -899.964478
v 76.1685181 -252.14473 -864.877075
v 66.2778931 -242.107803 -828.738159
v 118.950745 -215.53688 -964.13562
v 111.459961 -235.797562 -931.660767
v 103.315552 -247.961441 -898.476196
v 94.6054077 -252.14473 -864.877075
v 85.3869629 -248.090408 -831.144165
v 75.7116699 -235.135361 -797.647583
v 135.317688 -196.091537 -957.153564
v 129.058472 -218.284714 -926.062988
v 121.709045 -233.575821 -893.757568
v 113.45282 -241.583542 -861.043579
v 104.496094 -242.107803 -828.738159
v 95.0623169 -235.135361 -797.647583
v 85.3869629 -220.840775 -768.547974
v 150.972656 -162.139511 -957.153564
v 162.225647 -121.683395 -964.13562
v 159.977661 -151.227982 -926.062988
v 170.995605 -77.744751 -968.1875
v 170.995605 -106.678391 -931.660767
v 167.120667 -135.088547 -893.757568
v 177.387817 -31.0434723 -969.515747
v 178.997803 -59.7987061 -934.294556
v 177.387817 -87.3156357 -898.476196
v 172.223206 -114.124146 -861.043579
v 181.412354 17.9543915 -968.1875
v 184.352539 -10.6047707 -934.294556
v 184.352539 -37.7985573 -899.964478
v 181.412231 -63.8805161 -864.877075
v 175.15802 -88.8581848 -828.738159
v 182.969116 68.8889618 -964.13562
v 187.109619 41.3622055 -931.660767
v 188.468323 14.4816284 -898.476196
v 187.109619 -11.5389481 -864.877075
v 182.969116 -36.456955 -831.144165
v 175.851807 -59.9214783 -797.647461
v 181.831543 121.363045 -957.153564
v 186.96814 96.7353287 -926.062988
v 189.568848 71.1452713 -893.757568
v 189.568848 45.2318039 -861.043579
v 186.96814 19.6418495 -828.738159
v 181.831543 -4.98585892 -797.647461
v 174.287292 -28.0363655 -768.547974
v 175.851807 176.298599 -957.153564
v 166.439636 220.747116 -964.13562
v 175.15802 205.235336 -926.062988
v 155.150574 259.22229 -968.1875
v 164.368958 250.281296 -931.660767
v 172.223206 230.501328 -893.757568
v 142.246643 291.801147 -969.515747
v 151.905762 287.485962 -934.294556
v 160.175171 274.412048 -898.476196
v 167.120667 251.465652 -861.043579
v 127.879333 318.367493 -968.1875
v 137.886963 317.889404 -934.294556
v 146.551025 309.486084 -899.964478
v 153.952332 293.079102 -864.877075
v 159.977661 267.605164 -828.738159
v 112.132385 338.527161 -964.13562
v 122.182007 341.775391 -931.660767
v 131.166138 337.326233 -898.476196
v 139.036499 325.427979 -864.877075
v 145.696045 305.973511 -831.144165
v 150.972656 278.516663 -797.647461
v 95.0623169 351.512573 -957.153564
v 104.496094 358.484985 -926.062988
v 113.45282 357.960693 -893.757568
v 121.709045 349.953003 -861.043579
v 129.058472 334.661743 -828.738159
v 135.317688 312.46875 -797.647461
v 140.330383 283.927979 -768.547852
v 85.3869629 364.467529 -923.656738
v 76.1685181 368.521973 -889.924194
v 94.6054077 368.521973 -889.924194
v 67.458374 364.338562 -856.324829
v 85.3869629 368.809387 -854.836548
v 103.315552 364.338562 -856.324829
v 59.3139648 352.174683 -823.140259
v 76.7229004 360.406128 -820.50647
v 94.0510864 360.406128 -820.50647
v 111.459961 352.174683 -823.140259
v 51.8232422 331.914001 -790.665405
v 68.5323486 343.233704 -786.613647
v 85.3869629 346.949524 -785.285278
v 102.241577 343.233704 -786.613647
v 118.950745 331.914001 -790.665405
v 45.1315918 303.084595 -759.310547
v 60.824585 316.127747 -753.020996
v 77.1308594 322.731812 -749.836548
v 93.6431274 322.731812 -749.836548
v 109.949341 316.127747 -753.020996
v 125.642334 303.084595 -759.310547
v -12.1952515 152.834122 -923.656738
v -16.3356323 127.91613 -889.924194
v -10.6383667 180.257645 -889.924194
v -17.694397 101.895546 -856.324829
v -13.5785522 154.175705 -854.836548
v -6.6138916 203.692795 -856.324829
v -16.3356323 75.0149689 -823.140259
v -13.5785522 126.981941 -820.50647
v -8.22387695 176.175858 -820.50647
v -0.221618652 223.055527 -823.140259
v -12.1952515 47.4882126 -790.665405
v -10.6383667 98.4227829 -786.613525
v -6.6138916 147.420593 -785.285278
v -0.221679688 194.121872 -786.613525
v 8.54827881 238.060532 -790.665405
v -5.07788086 19.5820923 -759.310547
v -4.38409424 68.1644135 -753.020996
v -1.44934082 116.497932 -749.836548
v 3.65325928 163.375839 -749.836548
v 10.7962646 207.627792 -753.020996
v 19.8013306 248.149033 -759.310547
v 25.0778809 -189.59639 -923.656738
v 31.7374268 -209.050827 -889.924194
v 16.8216553 -176.70195 -889.924194
v 39.6077881 -220.949142 -856.324829
v 24.2229004 -193.108994 -854.836548
v 10.5986938 -158.034897 -856.324829
v 48.59198 -225.398087 -823.140259
v 32.8869629 -201.512375 -820.50647
v 18.8682251 -171.108902 -820.50647
v 6.40496826 -133.90416 -823.140259
v 58.6416016 -222.15004 -790.665527
v 42.8947144 -201.990341 -786.613647
v 28.5273438 -175.424026 -785.285278
v 15.6233521 -142.8452 -786.613647
v 4.33435059 -104.36998 -790.665527
v 69.7319946 -210.567581 -759.310547
v 54.4677734 -193.585251 -753.021118
v 39.9754028 -170.317551 -749.836548
v 26.6166382 -141.345413 -749.836548
v 14.7249756 -107.392258 -753.021118
v 4.59741211 -69.305542 -759.310547
v 145.696167 -189.59639 -923.656738
v 153.952332 -176.70195 -889.924194
v 139.036499 -209.050827 -889.924194
v 160.175171 -158.034897 -856.324829
v 146.551025 -193.108994 -854.836548
v 131.166138 -220.949142 -856.324829
v 164.368958 -133.90416 -823.140259
v 151.905762 -171.108902 -820.50647
v 137.886963 -201.512192 -820.50647
v 122.182007 -225.398178 -823.140259
v 166.439636 -104.36998 -790.665527
v 155.150574 -142.8452 -786.613647
v 142.246643 -175.424026 -785.285278
v 127.879333 -201.990341 -786.613647
v 112.132385 -222.15004 -790.665527
v 166.176575 -69.305542 -759.310547
v 156.04895 -107.392258 -753.021118
v 144.157349 -141.345413 -749.836548
v 130.798523 -170.317551 -749.836548
v 116.306213 -193.585251 -753.021118
v 101.041992 -210.567581 -759.310547
v 182.969116 152.834122 -923.656738
v 181.412354 180.257645 -889.924194
v 187.109619 127.91613 -889.924194
v 177.387817 203.692795 -856.324829
v 184.352539 154.175705 -854.836548
v 188.468323 101.895546 -856.324829
v 170.995544 223.055527 -823.140259
v 178.997803 176.175858 -820.50647
v 184.352539 126.981941 -820.50647
v 187.109619 75.0149689 -823.140259
v 162.225647 238.06044 -790.665405
v 170.995605 194.121872 -786.613525
v 177.387817 147.420593 -785.285278
v 181.412354 98.4227829 -786.613525
v 182.969116 47.4882126 -790.665405
v 150.972656 248.149033 -759.310547
v 159.977661 207.627792 -753.020996
v 167.120667 163.375839 -749.836548
v 172.223206 116.497932 -749.836548
v 175.15802 68.1644135 -753.020996
v 175.851807 19.5820923 -759.310547
v 85.3869629 58.188591 -633.998535
v 95.0623169 97.9403229 -637.036621
v 75.7116699 97.9403229 -637.036621
v 104.496094 136.699829 -646.075073
v 85.3869629 142.133636 -642.976074
v 66.2778931 136.699829 -646.075073
v 113.45282 173.499588 -660.888306
v 94.6054077 182.617203 -655.232544
v 76.1685181 182.617203 -655.232544
v 57.321106 173.499588 -660.888306
v 121.709045 207.420731 -681.106689
v 103.315552 219.263626 -673.177979
v 85.3869629 222.969131 -670.723511
v 67.458374 219.263626 -673.177979
v 49.0648804 207.420731 -681.106689
v 129.058472 237.61647 -706.22522
v 111.460022 251.865646 -696.507324
v 94.0510864 258.566162 -691.940674
v 76.7229004 258.566162 -691.940674
v 59.3139038 251.865677 -696.507324
v 41.7154541 237.61647 -706.22522
v 135.317688 263.332886 -735.616943
v 118.950745 280.03302 -725.169434
v 102.241577 289.740356 -719.082031
v 85.3869629 292.924866 -717.082886
v 68.5323486 289.740356 -719.082031
v 51.8232422 280.03302 -725.169434
v 35.4562378 263.332886 -735.616943
v 101.041992 43.0047073 -637.036621
v 116.306152 28.1998978 -646.075073
v 112.132324 84.1290741 -642.976074
v 130.798523 14.1436005 -660.888306
v 127.879333 70.4683685 -655.232544
v 122.182007 122.809883 -655.232544
v 144.157349 1.18681908 -681.106689
v 142.246643 57.064827 -673.177979
v 137.886963 109.108513 -670.723511
v 131.166138 158.862076 -673.177979
v 156.04895 -10.3468361 -706.22522
v 155.150574 44.0177307 -696.507324
v 151.905762 95.5117111 -691.940674
v 146.551025 144.705536 -691.940674
v 139.036621 192.058334 -696.507324
v 166.176575 -20.1697388 -735.616943
v 166.439636 31.4560661 -725.169434
v 164.36908 81.892334 -719.082031
v 160.175293 130.726013 -717.082886
v 153.952332 177.591476 -719.082031
v 145.696167 222.028397 -725.169434
v 85.3869629 9.05278015 -637.036621
v 85.3869629 -38.856739 -646.075073
v 101.916504 -9.7244339 -642.976074
v 85.3869629 -84.34375 -660.888306
v 102.430237 -58.6507034 -655.232544
v 117.345947 -26.3019409 -655.232544
v 85.3869629 -126.272568 -681.106689
v 102.599487 -103.580978 -673.178101
v 117.833801 -75.1217804 -670.723511
v 131.608704 -40.6668625 -673.177979
v 85.3869629 -163.596542 -706.225342
v 102.430237 -144.246567 -696.507324
v 117.833801 -119.122086 -691.940796
v 131.852539 -88.7186203 -691.940796
v 144.61731 -52.7525711 -696.507324
v 85.3869629 -195.383713 -735.616943
v 101.916504 -180.177597 -725.169434
v 117.345947 -158.713425 -719.082031
v 131.608704 -131.717163 -717.082886
v 144.61731 -99.5681992 -719.082031
v 156.223877 -62.397438 -725.169434
v 69.7320557 43.0047073 -637.036621
v 54.4677734 28.1998978 -646.075073
v 68.8574219 -9.7244339 -642.976074
v 39.9754028 14.1436005 -660.888306
v 53.4279785 -26.3019409 -655.232544
v 68.343689 -58.6507034 -655.232544
v 26.6166382 1.18681908 -681.106689
v 39.1652832 -40.6668625 -673.177979
v 52.9401855 -75.1217804 -670.723511
v 68.1743774 -103.580978 -673.178101
v 14.7249756 -10.3468361 -706.22522
v 26.1566772 -52.7525711 -696.507324
v 38.9214478 -88.7186203 -691.940796
v 52.9401855 -119.122086 -691.940796
v 68.343689 -144.246567 -696.507324
v 4.59741211 -20.1697388 -735.616943
v 14.5501709 -62.397438 -725.169434
v 26.1566772 -99.5681992 -719.082031
v 39.1652832 -131.717163 -717.082886
v 53.4279785 -158.713425 -719.082031
v 68.8574219 -180.177597 -725.169434
v 58.6416016 84.1290741 -642.976074
v 48.59198 122.809883 -655.232544
v 42.8947144 70.4683685 -655.232544
v 39.6077881 158.862076 -673.177979
v 32.8869629 109.108513 -670.723511
v 28.5273438 57.064827 -673.177979
v 31.7373657 192.058334 -696.507324
v 24.2229004 144.705536 -691.940674
v 18.8682251 95.5117111 -691.940674
v 15.6233521 44.0177307 -696.507324
v 25.0778198 222.028397 -725.169434
v 16.8216553 177.591476 -719.082031
v 10.5986938 130.726013 -717.082886
v 6.40490723 81.892334 -719.082031
v 4.33428955 31.4560661 -725.169434
g 
f 3 1 2
f 5 2 4
f 6 3 5
f 8 4 7
f 9 5 8
f 10 6 9
f 12 7 11
f 13 8 12
f 14 9 13
f 15 10 14
f 17 11 16
f 18 12 17
f 19 13 18
f 20 14 19
f 21 15 20
f 23 16 22
f 24 17 23
f 25 18 24
f 26 19 25
f 27 20 26
f 28 21 27
f 30 22 29
f 31 23 30
f 32 24 31
f 33 25 32
f 34 26 33
f 35 27 34
f 36 28 35
f 3 2 5
f 5 4 8
f 6 5 9
f 8 7 12
f 9 8 13
f 10 9 14
f 12 11 17
f 13 12 18
f 14 13 19
f 15 14 20
f 17 16 23
f 18 17 24
f 19 18 25
f 20 19 26
f 21 20 27
f 23 22 30
f 24 23 31
f 25 24 32
f 26 25 33
f 27 26 34
f 28 27 35
f 37 1 3
f 38 3 6
f 39 37 38
f 40 6 10
f 41 38 40
f 42 39 41
f 43 10 15
f 44 40 43
f 45 41 44
f 46 42 45
f 47 15 21
f 48 43 47
f 49 44 48
f 50 45 49
f 51 46 50
f 52 21 28
f 53 47 52
f 54 48 53
f 55 49 54
f 56 50 55
f 57 51 56
f 58 28 36
f 59 52 58
f 60 53 59
f 61 54 60
f 62 55 61
f 63 56 62
f 64 57 63
f 37 3 38
f 38 6 40
f 39 38 41
f 40 10 43
f 41 40 44
f 42 41 45
f 43 15 47
f 44 43 48
f 45 44 49
f 46 45 50
f 47 21 52
f 48 47 53
f 49 48 54
f 50 49 55
f 51 50 56
f 52 28 58
f 53 52 59
f 54 53 60
f 55 54 61
f 56 55 62
f 57 56 63
f 65 1 37
f 66 37 39
f 67 65 66
f 68 39 42
f 69 66 68
f 70 67 69
f 71 42 46
f 72 68 71
f 73 69 72
f 74 70 73
f 75 46 51
f 76 71 75
f 77 72 76
f 78 73 77
f 79 74 78
f 80 51 57
f 81 75 80
f 82 76 81
f 83 77 82
f 84 78 83
f 85 79 84
f 86 57 64
f 87 80 86
f 88 81 87
f 89 82 88
f 90 83 89
f 91 84 90
f 92 85 91
f 65 37 66
f 66 39 68
f 67 66 69
f 68 42 71
f 69 68 72
f 70 69 73
f 71 46 75
f 72 71 76
f 73 72 77
f 74 73 78
f 75 51 80
f 76 75 81
f 77 76 82
f 78 77 83
f 79 78 84
f 80 57 86
f 81 80 87
f 82 81 88
f 83 82 89
f 84 83 90
f 85 84 91
f 93 1 65
f 94 65 67
f 95 93 94
f 96 67 70
f 97 94 96
f 98 95 97
f 99 70 74
f 100 96 99
f 101 97 100
f 102 98 101
f 103 74 79
f 104 99 103
f 105 100 104
f 106 101 105
f 107 102 106
f 108 79 85
f 109 103 108
f 110 104 109
f 111 105 110
f 112 106 111
f 113 107 112
f 114 85 92
f 115 108 114
f 116 109 115
f 117 110 116
f 118 111 117
f 119 112 118
f 120 113 119
f 93 65 94
f 94 67 96
f 95 94 97
f 96 70 99
f 97 96 100
f 98 97 101
f 99 74 103
f 100 99 104
f 101 100 105
f 102 101 106
f 103 79 108
f 104 103 109
f 105 104 110
f 106 105 111
f 107 106 112
f 108 85 114
f 109 108 115
f 110 109 116
f 111 110 117
f 112 111 118
f 113 112 119
f 2 1 93
f 121 93 95
f 4 2 121
f 122 95 98
f 123 121 122
f 7 4 123
f 124 98 102
f 125 122 124
f 126 123 125
f 11 7 126
f 127 102 107
f 128 124 127
f 129 125 128
f 130 126 129
f 16 11 130
f 131 107 113
f 132 127 131
f 133 128 132
f 134 129 133
f 135 130 134
f 22 16 135
f 136 113 120
f 137 131 136
f 138 132 137
f 139 133 138
f 140 134 139
f 141 135 140
f 29 22 141
f 2 93 121
f 121 95 122
f 4 121 123
f 122 98 124
f 123 122 125
f 7 123 126
f 124 102 127
f 125 124 128
f 126 125 129
f 11 126 130
f 127 107 131
f 128 127 132
f 129 128 133
f 130 129 134
f 16 130 135
f 131 113 136
f 132 131 137
f 133 132 138
f 134 133 139
f 135 134 140
f 22 135 141
f 142 29 141
f 143 141 140
f 144 142 143
f 145 140 139
f 146 143 145
f 147 144 146
f 148 139 138
f 149 145 148
f 150 146 149
f 151 147 150
f 152 138 137
f 153 148 152
f 154 149 153
f 155 150 154
f 156 151 155
f 157 137 136
f 158 152 157
f 159 153 158
f 160 154 159
f 161 155 160
f 162 156 161
f 163 136 120
f 164 157 163
f 165 158 164
f 166 159 165
f 167 160 166
f 168 161 167
f 169 162 168
f 142 141 143
f 143 140 145
f 144 143 146
f 145 139 148
f 146 145 149
f 147 146 150
f 148 138 152
f 149 148 153
f 150 149 154
f 151 150 155
f 152 137 157
f 153 152 158
f 154 153 159
f 155 154 160
f 156 155 161
f 157 136 163
f 158 157 164
f 159 158 165
f 160 159 166
f 161 160 167
f 162 161 168
f 170 120 119
f 171 119 118
f 172 170 171
f 173 118 117
f 174 171 173
f 175 172 174
f 176 117 116
f 177 173 176
f 178 174 177
f 179 175 178
f 180 116 115
f 181 176 180
f 182 177 181
f 183 178 182
f 184 179 183
f 185 115 114
f 186 180 185
f 187 181 186
f 188 182 187
f 189 183 188
f 190 184 189
f 191 114 92
f 192 185 191
f 193 186 192
f 194 187 193
f 195 188 194
f 196 189 195
f 197 190 196
f 170 119 171
f 171 118 173
f 172 171 174
f 173 117 176
f 174 173 177
f 175 174 178
f 176 116 180
f 177 176 181
f 178 177 182
f 179 178 183
f 180 115 185
f 181 180 186
f 182 181 187
f 183 182 188
f 184 183 189
f 185 114 191
f 186 185 192
f 187 186 193
f 188 187 194
f 189 188 195
f 190 189 196
f 198 92 91
f 199 91 90
f 200 198 199
f 201 90 89
f 202 199 201
f 203 200 202
f 204 89 88
f 205 201 204
f 206 202 205
f 207 203 206
f 208 88 87
f 209 204 208
f 210 205 209
f 211 206 210
f 212 207 211
f 213 87 86
f 214 208 213
f 215 209 214
f 216 210 215
f 217 211 216
f 218 212 217
f 219 86 64
f 220 213 219
f 221 214 220
f 222 215 221
f 223 216 222
f 224 217 223
f 225 218 224
f 198 91 199
f 199 90 201
f 200 199 202
f 201 89 204
f 202 201 205
f 203 202 206
f 204 88 208
f 205 204 209
f 206 205 210
f 207 206 211
f 208 87 213
f 209 208 214
f 210 209 215
f 211 210 216
f 212 211 217
f 213 86 219
f 214 213 220
f 215 214 221
f 216 215 222
f 217 216 223
f 218 217 224
f 226 64 63
f 227 63 62
f 228 226 227
f 229 62 61
f 230 227 229
f 231 228 230
f 232 61 60
f 233 229 232
f 234 230 233
f 235 231 234
f 236 60 59
f 237 232 236
f 238 233 237
f 239 234 238
f 240 235 239
f 241 59 58
f 242 236 241
f 243 237 242
f 244 238 243
f 245 239 244
f 246 240 245
f 247 58 36
f 248 241 247
f 249 242 248
f 250 243 249
f 251 244 250
f 252 245 251
f 253 246 252
f 226 63 227
f 227 62 229
f 228 227 230
f 229 61 232
f 230 229 233
f 231 230 234
f 232 60 236
f 233 232 237
f 234 233 238
f 235 234 239
f 236 59 241
f 237 236 242
f 238 237 243
f 239 238 244
f 240 239 245
f 241 58 247
f 242 241 248
f 243 242 249
f 244 243 250
f 245 244 251
f 246 245 252
f 254 36 35
f 255 35 34
f 256 254 255
f 257 34 33
f 258 255 257
f 259 256 258
f 260 33 32
f 261 257 260
f 262 258 261
f 263 259 262
f 264 32 31
f 265 260 264
f 266 261 265
f 267 262 266
f 268 263 267
f 269 31 30
f 270 264 269
f 271 265 270
f 272 266 271
f 273 267 272
f 274 268 273
f 275 30 29
f 276 269 275
f 277 270 276
f 278 271 277
f 279 272 278
f 280 273 279
f 281 274 280
f 254 35 255
f 255 34 257
f 256 255 258
f 257 33 260
f 258 257 261
f 259 258 262
f 260 32 264
f 261 260 265
f 262 261 266
f 263 262 267
f 264 31 269
f 265 264 270
f 266 265 271
f 267 266 272
f 268 267 273
f 269 30 275
f 270 269 276
f 271 270 277
f 272 271 278
f 273 272 279
f 274 273 280
f 275 29 142
f 282 142 144
f 276 275 282
f 283 144 147
f 284 282 283
f 277 276 284
f 285 147 151
f 286 283 285
f 287 284 286
f 278 277 287
f 288 151 156
f 289 285 288
f 290 286 289
f 291 287 290
f 279 278 291
f 292 156 162
f 293 288 292
f 294 289 293
f 295 290 294
f 296 291 295
f 280 279 296
f 297 162 169
f 298 292 297
f 299 293 298
f 300 294 299
f 301 295 300
f 302 296 301
f 281 280 302
f 275 142 282
f 282 144 283
f 276 282 284
f 283 147 285
f 284 283 286
f 277 284 287
f 285 151 288
f 286 285 289
f 287 286 290
f 278 287 291
f 288 156 292
f 289 288 293
f 290 289 294
f 291 290 295
f 279 291 296
f 292 162 297
f 293 292 298
f 294 293 299
f 295 294 300
f 296 295 301
f 280 296 302
f 163 120 170
f 303 170 172
f 164 163 303
f 304 172 175
f 305 303 304
f 165 164 305
f 306 175 179
f 307 304 306
f 308 305 307
f 166 165 308
f 309 179 184
f 310 306 309
f 311 307 310
f 312 308 311
f 167 166 312
f 313 184 190
f 314 309 313
f 315 310 314
f 316 311 315
f 317 312 316
f 168 167 317
f 318 190 197
f 319 313 318
f 320 314 319
f 321 315 320
f 322 316 321
f 323 317 322
f 169 168 323
f 163 170 303
f 303 172 304
f 164 303 305
f 304 175 306
f 305 304 307
f 165 305 308
f 306 179 309
f 307 306 310
f 308 307 311
f 166 308 312
f 309 184 313
f 310 309 314
f 311 310 315
f 312 311 316
f 167 312 317
f 313 190 318
f 314 313 319
f 315 314 320
f 316 315 321
f 317 316 322
f 168 317 323
f 191 92 198
f 324 198 200
f 192 191 324
f 325 200 203
f 326 324 325
f 193 192 326
f 327 203 207
f 328 325 327
f 329 326 328
f 194 193 329
f 330 207 212
f 331 327 330
f 332 328 331
f 333 329 332
f 195 194 333
f 334 212 218
f 335 330 334
f 336 331 335
f 337 332 336
f 338 333 337
f 196 195 338
f 339 218 225
f 340 334 339
f 341 335 340
f 342 336 341
f 343 337 342
f 344 338 343
f 197 196 344
f 191 198 324
f 324 200 325
f 192 324 326
f 325 203 327
f 326 325 328
f 193 326 329
f 327 207 330
f 328 327 331
f 329 328 332
f 194 329 333
f 330 212 334
f 331 330 335
f 332 331 336
f 333 332 337
f 195 333 338
f 334 218 339
f 335 334 340
f 336 335 341
f 337 336 342
f 338 337 343
f 196 338 344
f 219 64 226
f 345 226 228
f 220 219 345
f 346 228 231
f 347 345 346
f 221 220 347
f 348 231 235
f 349 346 348
f 350 347 349
f 222 221 350
f 351 235 240
f 352 348 351
f 353 349 352
f 354 350 353
f 223 222 354
f 355 240 246
f 356 351 355
f 357 352 356
f 358 353 357
f 359 354 358
f 224 223 359
f 360 246 253
f 361 355 360
f 362 356 361
f 363 357 362
f 364 358 363
f 365 359 364
f 225 224 365
f 219 226 345
f 345 228 346
f 220 345 347
f 346 231 348
f 347 346 349
f 221 347 350
f 348 235 351
f 349 348 352
f 350 349 353
f 222 350 354
f 351 240 355
f 352 351 356
f 353 352 357
f 354 353 358
f 223 354 359
f 355 246 360
f 356 355 361
f 357 356 362
f 358 357 363
f 359 358 364
f 224 359 365
f 247 36 254
f 366 254 256
f 248 247 366
f 367 256 259
f 368 366 367
f 249 248 368
f 369 259 263
f 370 367 369
f 371 368 370
f 250 249 371
f 372 263 268
f 373 369 372
f 374 370 373
f 375 371 374
f 251 250 375
f 376 268 274
f 377 372 376
f 378 373 377
f 379 374 378
f 380 375 379
f 252 251 380
f 381 274 281
f 382 376 381
f 383 377 382
f 384 378 383
f 385 379 384
f 386 380 385
f 253 252 386
f 247 254 366
f 366 256 367
f 248 366 368
f 367 259 369
f 368 367 370
f 249 368 371
f 369 263 372
f 370 369 373
f 371 370 374
f 250 371 375
f 372 268 376
f 373 372 377
f 374 373 378
f 375 374 379
f 251 375 380
f 376 274 381
f 377 376 382
f 378 377 383
f 379 378 384
f 380 379 385
f 252 380 386
f 389 387 388
f 391 388 390
f 392 389 391
f 394 390 393
f 395 391 394
f 396 392 395
f 398 393 397
f 399 394 398
f 400 395 399
f 401 396 400
f 403 397 402
f 404 398 403
f 405 399 404
f 406 400 405
f 407 401 406
f 409 402 408
f 410 403 409
f 411 404 410
f 412 405 411
f 413 406 412
f 414 407 413
f 302 408 281
f 301 409 302
f 300 410 301
f 299 411 300
f 298 412 299
f 297 413 298
f 169 414 297
f 389 388 391
f 391 390 394
f 392 391 395
f 394 393 398
f 395 394 399
f 396 395 400
f 398 397 403
f 399 398 404
f 400 399 405
f 401 400 406
f 403 402 409
f 404 403 410
f 405 404 411
f 406 405 412
f 407 406 413
f 409 408 302
f 410 409 301
f 411 410 300
f 412 411 299
f 413 412 298
f 414 413 297
f 388 387 415
f 417 415 416
f 390 388 417
f 419 416 418
f 420 417 419
f 393 390 420
f 422 418 421
f 423 419 422
f 424 420 423
f 397 393 424
f 426 421 425
f 427 422 426
f 428 423 427
f 429 424 428
f 402 397 429
f 431 425 430
f 432 426 431
f 433 427 432
f 434 428 433
f 435 429 434
f 408 402 435
f 386 430 253
f 385 431 386
f 384 432 385
f 383 433 384
f 382 434 383
f 381 435 382
f 281 408 381
f 388 415 417
f 417 416 419
f 390 417 420
f 419 418 422
f 420 419 423
f 393 420 424
f 422 421 426
f 423 422 427
f 424 423 428
f 397 424 429
f 426 425 431
f 427 426 432
f 428 427 433
f 429 428 434
f 402 429 435
f 431 430 386
f 432 431 385
f 433 432 384
f 434 433 383
f 435 434 382
f 408 435 381
f 415 387 436
f 438 436 437
f 416 415 438
f 440 437 439
f 441 438 440
f 418 416 441
f 443 439 442
f 444 440 443
f 445 441 444
f 421 418 445
f 447 442 446
f 448 443 447
f 449 444 448
f 450 445 449
f 425 421 450
f 452 446 451
f 453 447 452
f 454 448 453
f 455 449 454
f 456 450 455
f 430 425 456
f 365 451 225
f 364 452 365
f 363 453 364
f 362 454 363
f 361 455 362
f 360 456 361
f 253 430 360
f 415 436 438
f 438 437 440
f 416 438 441
f 440 439 443
f 441 440 444
f 418 441 445
f 443 442 447
f 444 443 448
f 445 444 449
f 421 445 450
f 447 446 452
f 448 447 453
f 449 448 454
f 450 449 455
f 425 450 456
f 452 451 365
f 453 452 364
f 454 453 363
f 455 454 362
f 456 455 361
f 430 456 360
f 436 387 457
f 459 457 458
f 437 436 459
f 461 458 460
f 462 459 461
f 439 437 462
f 464 460 463
f 465 461 464
f 466 462 465
f 442 439 466
f 468 463 467
f 469 464 468
f 470 465 469
f 471 466 470
f 446 442 471
f 473 467 472
f 474 468 473
f 475 469 474
f 476 470 475
f 477 471 476
f 451 446 477
f 344 472 197
f 343 473 344
f 342 474 343
f 341 475 342
f 340 476 341
f 339 477 340
f 225 451 339
f 436 457 459
f 459 458 461
f 437 459 462
f 461 460 464
f 462 461 465
f 439 462 466
f 464 463 468
f 465 464 469
f 466 465 470
f 442 466 471
f 468 467 473
f 469 468 474
f 470 469 475
f 471 470 476
f 446 471 477
f 473 472 344
f 474 473 343
f 475 474 342
f 476 475 341
f 477 476 340
f 451 477 339
f 457 387 389
f 478 389 392
f 458 457 478
f 479 392 396
f 480 478 479
f 460 458 480
f 481 396 401
f 482 479 481
f 483 480 482
f 463 460 483
f 484 401 407
f 485 481 484
f 486 482 485
f 487 483 486
f 467 463 487
f 488 407 414
f 489 484 488
f 490 485 489
f 491 486 490
f 492 487 491
f 472 467 492
f 323 414 169
f 322 488 323
f 321 489 322
f 320 490 321
f 319 491 320
f 318 492 319
f 197 472 318
f 457 389 478
f 478 392 479
f 458 478 480
f 479 396 481
f 480 479 482
f 460 480 483
f 481 401 484
f 482 481 485
f 483 482 486
f 463 483 487
f 484 407 488
f 485 484 489
f 486 485 490
f 487 486 491
f 467 487 492
f 488 414 323
f 489 488 322
f 490 489 321
f 491 490 320
f 492 491 319
f 472 492 318
