# File exported by Houdini 20.5.445 (www.sidefx.com)
# 492 points
# 2940 vertices
# 980 primitives
# Bounds: [-20.1134033, -254.822296, -1115.92554] to [190.887299, 371.199402, -638.875488]
g 
v 85.3869324 58.1886024 -1115.92554
v 85.3869324 107.702484 -1112.94849
v 101.240021 73.489212 -1112.94849
v 85.3869324 155.98053 -1104.09106
v 102.125702 126.624161 -1107.12793
v 116.697418 88.4080353 -1104.09106
v 85.3869324 201.817535 -1089.57446
v 102.645905 175.926895 -1095.11719
v 117.750336 143.329132 -1095.11719
v 131.373199 102.572388 -1089.57446
v 85.3869324 244.068954 -1069.76123
v 102.817352 221.202789 -1077.53125
v 118.244354 192.524597 -1079.93652
v 132.193573 157.804581 -1077.53125
v 144.901031 115.628769 -1069.76123
v 85.3869324 281.680145 -1045.14624
v 102.645905 262.181396 -1054.66943
v 118.244354 236.863571 -1059.14429
v 132.440521 206.226074 -1059.14429
v 145.366852 169.983276 -1054.66943
v 156.943085 127.251358 -1045.14624
v 85.3869324 313.711914 -1016.34332
v 102.125702 298.388702 -1026.58154
v 117.750336 276.75946 -1032.54688
v 132.193573 249.555374 -1034.5061
v 145.366852 217.159134 -1032.54688
v 157.120209 179.702362 -1026.58154
v 167.198883 137.14975 -1016.34332
v 85.3869324 339.364746 -984.072083
v 101.240021 329.012512 -993.124573
v 116.697418 311.899567 -999.288025
v 131.373199 288.452881 -1002.40863
v 144.901031 259.257812 -1002.40863
v 156.943085 225.043381 -999.288025
v 167.198883 186.663635 -993.124573
v 175.412262 145.076904 -984.072205
v 95.1846619 18.1309929 -1112.94849
v 112.470795 32.0485153 -1107.12793
v 104.737885 -20.9268494 -1104.09106
v 128.417023 45.8142509 -1095.11719
v 122.647552 -6.92987061 -1095.11719
v 113.808014 -58.009613 -1089.57446
v 142.966156 59.3210106 -1077.53125
v 138.5513 6.87693024 -1079.93652
v 131.745453 -43.2596207 -1077.53125
v 122.16861 -92.191803 -1069.76123
v 156.033417 72.4684906 -1054.66943
v 152.747467 20.5783043 -1059.14453
v 147.325043 -28.9940643 -1059.14453
v 139.715485 -76.7112122 -1054.66943
v 129.611115 -122.619873 -1045.14624
v 167.465363 85.1268158 -1026.58154
v 165.368561 34.3023682 -1032.54688
v 161.121674 -14.9069519 -1034.5061
v 154.819977 -62.1330261 -1032.54688
v 146.45932 -106.911789 -1026.58154
v 135.949493 -148.534088 -1016.34332
v 176.996674 97.0921478 -993.124573
v 176.294037 48.1359215 -999.288025
v 173.322113 -0.569442749 -1002.40863
v 168.154999 -47.8080139 -1002.40863
v 160.9216 -92.4003601 -999.288025
v 151.802582 -133.233475 -993.124573
v 141.025726 -169.287735 -984.072205
v 75.5892029 18.1309929 -1112.94849
v 85.3869324 -26.4023743 -1107.12793
v 66.0360413 -20.9268494 -1104.09106
v 94.7220764 -67.197403 -1095.11719
v 76.0518494 -67.197403 -1095.11719
v 56.9659119 -58.009613 -1089.57446
v 103.54245 -104.125778 -1077.53125
v 85.3869324 -107.859787 -1079.93652
v 67.2314758 -104.125778 -1077.53125
v 48.6051941 -92.191803 -1069.76123
v 111.789948 -136.978653 -1054.66943
v 94.160614 -143.730789 -1059.14453
v 76.6132507 -143.730789 -1059.14453
v 58.9839172 -136.978653 -1054.66943
v 41.1628113 -122.619873 -1045.14624
v 119.375458 -165.362778 -1026.58154
v 102.454803 -175.144867 -1032.54688
v 85.3869324 -178.35376 -1034.5061
v 68.3190613 -175.144867 -1032.54688
v 51.398468 -165.362778 -1026.58154
v 34.8243713 -148.534088 -1016.34332
v 126.151764 -188.591797 -993.124573
v 110.260162 -201.735336 -999.288025
v 93.7475891 -208.390213 -1002.40863
v 77.0263367 -208.390213 -1002.40863
v 60.5137024 -201.735336 -999.288025
v 44.6221008 -188.591797 -993.124573
v 29.7481995 -169.287735 -984.072205
v 69.533905 73.489212 -1112.94849
v 58.3031311 32.0485153 -1107.12793
v 54.0765076 88.4080353 -1104.09106
v 48.1263123 -6.92987061 -1095.11719
v 42.3569031 45.8142509 -1095.11719
v 39.4006653 102.572388 -1089.57446
v 39.0284119 -43.2596207 -1077.53125
v 32.2225647 6.87693024 -1079.93652
v 27.8077698 59.3210106 -1077.53125
v 25.8728943 115.628769 -1069.76123
v 31.0583801 -76.7112122 -1054.66943
v 23.448822 -28.9940643 -1059.14453
v 18.0263977 20.5783043 -1059.14453
v 14.740448 72.4684906 -1054.66943
v 13.83078 127.251358 -1045.14624
v 24.3146057 -106.911789 -1026.58154
v 15.953949 -62.1330261 -1032.54688
v 9.65219116 -14.9069519 -1034.5061
v 5.40536499 34.3023682 -1032.54688
v 3.30856323 85.1268158 -1026.58154
v 3.57504272 137.14975 -1016.34332
v 18.971283 -133.233475 -993.124573
v 9.85232544 -92.4003601 -999.288025
v 2.618927 -47.8080139 -1002.40863
v -2.54824829 -0.569442749 -1002.40863
v -5.52017212 48.1359215 -999.288025
v -6.2227478 97.0921478 -993.124573
v -4.63839722 145.076904 -984.072205
v 68.6482239 126.624161 -1107.12793
v 53.0235291 143.329132 -1095.11719
v 68.1280212 175.926895 -1095.11719
v 38.5803528 157.804581 -1077.53125
v 52.5295715 192.524597 -1079.93652
v 67.9565735 221.202789 -1077.53125
v 25.407074 169.983276 -1054.66943
v 38.3333435 206.226074 -1059.14429
v 52.5295715 236.863571 -1059.14429
v 68.1280212 262.181396 -1054.66943
v 13.653717 179.702362 -1026.58154
v 25.407074 217.159134 -1032.54688
v 38.5803528 249.555374 -1034.5061
v 53.023468 276.75946 -1032.54688
v 68.6482239 298.388702 -1026.58154
v 3.57504272 186.663635 -993.124573
v 13.83078 225.043381 -999.288025
v 25.8728943 259.257812 -1002.40863
v 39.4006653 288.452881 -1002.40863
v 54.0765076 311.899567 -999.288025
v 69.533905 329.012512 -993.124573
v 75.5892029 353.769501 -955.555603
v 58.3031311 340.684082 -962.397766
v 66.0360413 360.795502 -925.087952
v 42.3569031 320.369354 -966.368469
v 48.1263123 343.957275 -930.573792
v 56.9659119 360.267273 -893.429749
v 27.8077698 293.598541 -967.670105
v 32.2225647 319.887634 -933.154602
v 39.0284119 339.473938 -898.054016
v 48.6051941 352.197968 -861.371399
v 14.740509 260.769043 -966.368469
v 18.0263977 289.250244 -933.154602
v 23.448822 311.419678 -899.512512
v 31.0584412 327.48407 -865.127991
v 41.1628113 336.789032 -829.713196
v 3.30856323 221.997849 -962.397766
v 5.40542603 251.759293 -930.573792
v 9.6522522 276.075745 -898.054016
v 15.953949 294.886414 -865.127991
v 24.3146057 307.879944 -832.071106
v 34.8243713 314.425201 -799.245544
v -6.2227478 177.207352 -955.555603
v -5.52017212 206.366714 -925.087952
v -2.54818726 231.827072 -893.429749
v 2.61898804 252.952774 -861.371399
v 9.85232544 269.216431 -829.713196
v 18.971344 280.211914 -799.245544
v 29.7481995 285.664948 -770.728943
v -12.2780457 121.84903 -955.555603
v -13.4302063 68.9713135 -962.397766
v -17.4797058 97.0319366 -925.087952
v -11.8535461 17.6447372 -966.368469
v -17.6229858 41.2327576 -930.573792
v -20.1134033 71.2449799 -893.429749
v -7.77816772 -31.7299538 -967.670105
v -14.8310242 -11.1341743 -933.154602
v -18.9989014 14.14534 -898.054016
v -20.1134033 45.1321297 -861.371399
v -1.30502319 -78.7905655 -966.368469
v -9.40853882 -60.706543 -933.154602
v -14.8310242 -38.5371094 -899.512512
v -17.6229248 -12.0755424 -865.127991
v -17.4797058 19.3452759 -829.713196
v 7.57589722 -123.067383 -962.397766
v -1.30502319 -107.946945 -930.573792
v -7.77816772 -88.4350891 -898.054016
v -11.8535461 -64.8197479 -865.127991
v -13.4301453 -37.1850853 -832.071106
v -12.2780457 -5.4718399 -799.245544
v 18.971344 -163.834717 -955.555603
v 9.85232544 -152.839218 -925.087952
v 2.61898804 -136.575592 -893.429749
v -2.54818726 -115.449875 -861.371399
v -5.52017212 -89.9896088 -829.713196
v -6.2227478 -60.8301544 -799.245544
v -4.63839722 -28.699707 -770.729065
v 34.8243713 -198.047974 -955.555603
v 51.398468 -217.642853 -962.397766
v 41.1628113 -220.411835 -925.087952
v 68.3190613 -229.049667 -966.368469
v 58.9839783 -238.059387 -930.573792
v 48.6051941 -235.82074 -893.429749
v 85.3869324 -232.79425 -967.670105
v 76.6132507 -246.354309 -933.154602
v 67.2314758 -250.316986 -898.054016
v 56.9659119 -243.890076 -861.371399
v 102.454803 -229.049667 -966.368469
v 94.160614 -246.354309 -933.154602
v 85.3869324 -254.822296 -899.512512
v 76.0518494 -254.532532 -865.127991
v 66.0360413 -244.418304 -829.713196
v 119.375458 -217.642853 -962.397766
v 111.789886 -238.059387 -930.573792
v 103.54245 -250.316986 -898.054016
v 94.7220764 -254.532532 -865.127991
v 85.3869324 -250.447021 -832.071106
v 75.5892029 -237.392365 -799.245544
v 135.949493 -198.047974 -955.555603
v 129.611115 -220.411835 -925.087952
v 122.16861 -235.82074 -893.429749
v 113.808014 -243.890076 -861.371399
v 104.737885 -244.418304 -829.713196
v 95.1846619 -237.392365 -799.245544
v 85.3869324 -222.987732 -770.729065
v 151.802582 -163.834717 -955.555603
v 163.198029 -123.067383 -962.397766
v 160.921539 -152.839218 -925.087952
v 172.07901 -78.7905655 -966.368469
v 172.078888 -107.946945 -930.573792
v 168.154877 -136.575592 -893.429749
v 178.552094 -31.7299538 -967.670105
v 180.182465 -60.706543 -933.154602
v 178.552032 -88.4350891 -898.054016
v 173.322113 -115.449875 -861.371399
v 182.627472 17.6447372 -966.368469
v 185.604889 -11.1341743 -933.154602
v 185.604889 -38.5371094 -899.512512
v 182.627411 -64.8197479 -865.127991
v 176.294037 -89.9896088 -829.713196
v 184.204132 68.9713135 -962.397766
v 188.396881 41.2327576 -930.573792
v 189.772858 14.14534 -898.054016
v 188.396881 -12.0755424 -865.127991
v 184.204132 -37.1850853 -832.071106
v 176.996674 -60.8301544 -799.245544
v 183.05191 121.84903 -955.555603
v 188.253571 97.0319366 -925.087952
v 190.887299 71.2449799 -893.429749
v 190.887299 45.1321297 -861.371399
v 188.253571 19.3452759 -829.713196
v 183.05191 -5.4718399 -799.245544
v 175.412262 -28.699707 -770.729065
v 176.996674 177.207352 -955.555603
v 167.465302 221.997849 -962.397766
v 176.294037 206.366714 -925.087952
v 156.033417 260.769043 -966.368469
v 165.3685 251.759293 -930.573792
v 173.322113 231.827072 -893.429749
v 142.966156 293.598541 -967.670105
v 152.747467 289.250244 -933.154602
v 161.121674 276.075745 -898.054016
v 168.154877 252.952774 -861.371399
v 128.417023 320.369354 -966.368469
v 138.5513 319.887634 -933.154602
v 147.325043 311.419678 -899.512512
v 154.819977 294.886414 -865.127991
v 160.921539 269.216431 -829.713196
v 112.470795 340.684082 -962.397766
v 122.647552 343.957275 -930.573792
v 131.745453 339.473938 -898.054016
v 139.715485 327.48407 -865.127991
v 146.45932 307.879944 -832.071106
v 151.802582 280.211914 -799.245544
v 95.1846619 353.769501 -955.555603
v 104.737885 360.795502 -925.087952
v 113.808014 360.267273 -893.429749
v 122.16861 352.197968 -861.371399
v 129.611115 336.789032 -829.713196
v 135.949493 314.425201 -799.245544
v 141.025726 285.664948 -770.728943
v 85.3869324 366.824158 -922.730164
v 76.0518494 370.90979 -889.673279
v 94.7220764 370.90979 -889.673279
v 67.2314758 366.694092 -856.747253
v 85.3869324 371.199402 -855.288879
v 103.54245 366.694092 -856.747253
v 58.9839783 354.436615 -824.227478
v 76.6132507 362.731445 -821.646545
v 94.160614 362.731445 -821.646545
v 111.789886 354.436615 -824.227478
v 51.398468 334.02005 -792.403381
v 68.3190613 345.426758 -788.432678
v 85.3869324 349.171356 -787.131042
v 102.454803 345.426758 -788.432678
v 119.375458 334.02005 -792.403381
v 44.6221008 304.968933 -761.676697
v 60.5137024 318.112457 -755.513245
v 77.0263367 324.767334 -752.392517
v 93.7475891 324.767334 -752.392517
v 110.260162 318.112457 -755.513245
v 126.151764 304.968933 -761.676697
v -13.4301453 153.562271 -922.730164
v -17.6229248 128.452637 -889.673279
v -11.8535461 181.196854 -889.673279
v -18.9989014 102.231766 -856.747253
v -14.8310242 154.9142 -855.288879
v -7.77816772 204.812286 -856.747253
v -17.6229858 75.144455 -824.227478
v -14.8310242 127.511292 -821.646545
v -9.40853882 177.083649 -821.646545
v -1.30502319 224.324051 -824.227478
v -13.4302063 47.4057961 -792.403381
v -11.8535461 98.7323761 -788.432678
v -7.77816772 148.107056 -787.131042
v -1.30502319 195.16777 -788.432678
v 7.57589722 239.444504 -792.403381
v -6.2227478 19.2849579 -761.676697
v -5.52017212 68.2411804 -755.513245
v -2.54824829 116.946548 -752.392517
v 2.618927 164.18512 -752.392517
v 9.85232544 208.777557 -755.513245
v 18.971283 249.61058 -761.676697
v 24.3146057 -191.502853 -922.730164
v 31.0584412 -211.106949 -889.673279
v 15.953949 -178.509399 -889.673279
v 39.0284119 -223.096725 -856.747253
v 23.448822 -195.042557 -855.288879
v 9.6522522 -159.698608 -856.747253
v 48.1263123 -227.580093 -824.227478
v 32.2225647 -203.510529 -821.646545
v 18.0263977 -172.873123 -821.646545
v 5.40542603 -135.382095 -824.227478
v 58.3031311 -224.306961 -792.403381
v 42.3569031 -203.992264 -788.432678
v 27.8077698 -177.221436 -787.131042
v 14.740509 -144.392029 -788.432678
v 3.30856323 -105.620743 -792.403381
v 69.533905 -212.635406 -761.676697
v 54.0765076 -195.522476 -755.513367
v 39.4006653 -172.075668 -752.392517
v 25.8728943 -142.8806 -752.392517
v 13.83078 -108.66629 -755.513367
v 3.57504272 -70.2865219 -761.676697
v 146.45932 -191.502853 -922.730164
v 154.819977 -178.509201 -889.673279
v 139.715485 -211.106949 -889.673279
v 161.121674 -159.698608 -856.747253
v 147.325043 -195.042557 -855.288879
v 131.745453 -223.096725 -856.747253
v 165.3685 -135.382095 -824.227478
v 152.747467 -172.873123 -821.646545
v 138.5513 -203.510529 -821.646545
v 122.647552 -227.580093 -824.227478
v 167.465302 -105.620743 -792.403381
v 156.033417 -144.392029 -788.432678
v 142.966156 -177.221436 -787.131042
v 128.417023 -203.992264 -788.432678
v 112.470795 -224.306961 -792.403381
v 167.198883 -70.2865219 -761.676697
v 156.943085 -108.66629 -755.513367
v 144.901031 -142.8806 -752.392517
v 131.373199 -172.075668 -752.392517
v 116.697418 -195.522476 -755.513367
v 101.240021 -212.635406 -761.676697
v 184.204132 153.562271 -922.730164
v 182.627411 181.196854 -889.673279
v 188.396881 128.452637 -889.673279
v 178.552032 204.812286 -856.747253
v 185.604889 154.9142 -855.288879
v 189.772858 102.231766 -856.747253
v 172.078888 224.324051 -824.227478
v 180.182465 177.083649 -821.646545
v 185.604889 127.511292 -821.646545
v 188.396881 75.144455 -824.227478
v 163.198029 239.444504 -792.403381
v 172.07901 195.16777 -788.432678
v 178.552094 148.107056 -787.131042
v 182.627472 98.7323761 -788.432678
v 184.204132 47.4057961 -792.403381
v 151.802582 249.61058 -761.676697
v 160.9216 208.777557 -755.513245
v 168.154999 164.18512 -752.392517
v 173.322113 116.946548 -752.392517
v 176.294037 68.2411804 -755.513245
v 176.996674 19.2849579 -761.676697
v 85.3869324 58.1886024 -638.875488
v 95.1846619 98.246109 -641.852783
v 75.5892029 98.246109 -641.852783
v 104.737885 137.30394 -650.710144
v 85.3869324 142.77948 -647.673218
v 66.0360413 137.30394 -650.710144
v 113.808014 174.386826 -665.226624
v 94.7220764 183.574509 -659.684021
v 76.0518494 183.574509 -659.684021
v 56.9659119 174.386826 -665.226624
v 122.16861 208.569 -685.039734
v 103.54245 220.502975 -677.269958
v 85.3869324 224.236984 -674.864685
v 67.2314758 220.502975 -677.269958
v 48.6051941 208.569 -685.039734
v 129.611115 238.996994 -709.65509
v 111.789948 253.35585 -700.131775
v 94.160614 260.107849 -695.656799
v 76.6132507 260.107849 -695.656799
v 58.9839172 253.35585 -700.131775
v 41.1628113 238.996994 -709.65509
v 135.949493 264.911194 -738.457825
v 119.375458 281.73999 -728.219788
v 102.454803 291.521973 -722.254211
v 85.3869324 294.730957 -720.295105
v 68.3190613 291.521973 -722.254211
v 51.398468 281.73999 -728.219788
v 34.8243713 264.911194 -738.457825
v 101.240021 42.887989 -641.852783
v 116.697418 27.9691658 -650.710144
v 112.470795 84.328598 -647.673218
v 131.373199 13.8048134 -665.226624
v 128.417023 70.5628662 -659.684021
v 122.647552 123.307068 -659.684021
v 144.901031 0.748332977 -685.039734
v 142.966156 57.0560951 -677.269958
v 138.5513 109.500259 -674.864685
v 131.745453 159.636627 -677.269958
v 156.943085 -10.8741608 -709.65509
v 156.033417 43.9087105 -700.131775
v 152.747467 95.7987976 -695.656799
v 147.325043 145.371262 -695.656799
v 139.715485 193.088318 -700.131775
v 167.198883 -20.7726479 -738.457825
v 167.465363 31.2503853 -728.219788
v 165.368561 82.0748291 -722.254211
v 161.121674 131.284058 -720.295105
v 154.819977 178.510223 -722.254211
v 146.45932 223.288986 -728.219788
v 85.3869324 8.67472267 -641.852783
v 85.3869324 -39.6033325 -650.710144
v 102.125702 -10.2470665 -647.673218
v 85.3869324 -85.4404449 -665.226624
v 102.645905 -59.5496979 -659.684021
v 117.750336 -26.952034 -659.684021
v 85.3869324 -127.691864 -685.039734
v 102.817352 -104.825592 -677.269958
v 118.244354 -76.1475067 -674.864685
v 132.193573 -41.4273911 -677.269958
v 85.3869324 -165.302856 -709.65509
v 102.645905 -145.804169 -700.131775
v 118.244354 -120.486465 -695.656799
v 132.440521 -89.848877 -695.656799
v 145.366852 -53.6061783 -700.131775
v 85.3869324 -197.334793 -738.457825
v 102.125702 -182.011475 -728.219788
v 117.750336 -160.382278 -722.254211
v 132.193573 -133.178268 -720.295105
v 145.366852 -100.781937 -722.254211
v 157.120209 -63.3252563 -728.219788
v 69.533905 42.887989 -641.852783
v 54.0765076 27.9691658 -650.710144
v 68.6482239 -10.2470665 -647.673218
v 39.4006653 13.8048134 -665.226624
v 53.0235291 -26.952034 -659.684021
v 68.1280212 -59.5496979 -659.684021
v 25.8728943 0.748332977 -685.039734
v 38.5803528 -41.4273911 -677.269958
v 52.5295715 -76.1475067 -674.864685
v 67.9565735 -104.825592 -677.269958
v 13.83078 -10.8741608 -709.65509
v 25.407074 -53.6061783 -700.131775
v 38.3333435 -89.848877 -695.656799
v 52.5295715 -120.486465 -695.656799
v 68.1280212 -145.804169 -700.131775
v 3.57504272 -20.7726479 -738.457825
v 13.653717 -63.3252563 -728.219788
v 25.407074 -100.781937 -722.254211
v 38.5803528 -133.178268 -720.295105
v 53.023468 -160.382278 -722.254211
v 68.6482239 -182.011475 -728.219788
v 58.3031311 84.328598 -647.673218
v 48.1263123 123.307068 -659.684021
v 42.3569031 70.5628662 -659.684021
v 39.0284119 159.636627 -677.269958
v 32.2225647 109.500259 -674.864685
v 27.8077698 57.0560951 -677.269958
v 31.0583801 193.088318 -700.131775
v 23.448822 145.371262 -695.656799
v 18.0263977 95.7987976 -695.656799
v 14.740448 43.9087105 -700.131775
v 24.3146057 223.288986 -728.219666
v 15.953949 178.510223 -722.254211
v 9.65219116 131.284058 -720.295105
v 5.40536499 82.0748291 -722.254211
v 3.30856323 31.2503853 -728.219788
g 
f 3 1 2
f 5 2 4
f 6 3 5
f 8 4 7
f 9 5 8
f 10 6 9
f 12 7 11
f 13 8 12
f 14 9 13
f 15 10 14
f 17 11 16
f 18 12 17
f 19 13 18
f 20 14 19
f 21 15 20
f 23 16 22
f 24 17 23
f 25 18 24
f 26 19 25
f 27 20 26
f 28 21 27
f 30 22 29
f 31 23 30
f 32 24 31
f 33 25 32
f 34 26 33
f 35 27 34
f 36 28 35
f 3 2 5
f 5 4 8
f 6 5 9
f 8 7 12
f 9 8 13
f 10 9 14
f 12 11 17
f 13 12 18
f 14 13 19
f 15 14 20
f 17 16 23
f 18 17 24
f 19 18 25
f 20 19 26
f 21 20 27
f 23 22 30
f 24 23 31
f 25 24 32
f 26 25 33
f 27 26 34
f 28 27 35
f 37 1 3
f 38 3 6
f 39 37 38
f 40 6 10
f 41 38 40
f 42 39 41
f 43 10 15
f 44 40 43
f 45 41 44
f 46 42 45
f 47 15 21
f 48 43 47
f 49 44 48
f 50 45 49
f 51 46 50
f 52 21 28
f 53 47 52
f 54 48 53
f 55 49 54
f 56 50 55
f 57 51 56
f 58 28 36
f 59 52 58
f 60 53 59
f 61 54 60
f 62 55 61
f 63 56 62
f 64 57 63
f 37 3 38
f 38 6 40
f 39 38 41
f 40 10 43
f 41 40 44
f 42 41 45
f 43 15 47
f 44 43 48
f 45 44 49
f 46 45 50
f 47 21 52
f 48 47 53
f 49 48 54
f 50 49 55
f 51 50 56
f 52 28 58
f 53 52 59
f 54 53 60
f 55 54 61
f 56 55 62
f 57 56 63
f 65 1 37
f 66 37 39
f 67 65 66
f 68 39 42
f 69 66 68
f 70 67 69
f 71 42 46
f 72 68 71
f 73 69 72
f 74 70 73
f 75 46 51
f 76 71 75
f 77 72 76
f 78 73 77
f 79 74 78
f 80 51 57
f 81 75 80
f 82 76 81
f 83 77 82
f 84 78 83
f 85 79 84
f 86 57 64
f 87 80 86
f 88 81 87
f 89 82 88
f 90 83 89
f 91 84 90
f 92 85 91
f 65 37 66
f 66 39 68
f 67 66 69
f 68 42 71
f 69 68 72
f 70 69 73
f 71 46 75
f 72 71 76
f 73 72 77
f 74 73 78
f 75 51 80
f 76 75 81
f 77 76 82
f 78 77 83
f 79 78 84
f 80 57 86
f 81 80 87
f 82 81 88
f 83 82 89
f 84 83 90
f 85 84 91
f 93 1 65
f 94 65 67
f 95 93 94
f 96 67 70
f 97 94 96
f 98 95 97
f 99 70 74
f 100 96 99
f 101 97 100
f 102 98 101
f 103 74 79
f 104 99 103
f 105 100 104
f 106 101 105
f 107 102 106
f 108 79 85
f 109 103 108
f 110 104 109
f 111 105 110
f 112 106 111
f 113 107 112
f 114 85 92
f 115 108 114
f 116 109 115
f 117 110 116
f 118 111 117
f 119 112 118
f 120 113 119
f 93 65 94
f 94 67 96
f 95 94 97
f 96 70 99
f 97 96 100
f 98 97 101
f 99 74 103
f 100 99 104
f 101 100 105
f 102 101 106
f 103 79 108
f 104 103 109
f 105 104 110
f 106 105 111
f 107 106 112
f 108 85 114
f 109 108 115
f 110 109 116
f 111 110 117
f 112 111 118
f 113 112 119
f 2 1 93
f 121 93 95
f 4 2 121
f 122 95 98
f 123 121 122
f 7 4 123
f 124 98 102
f 125 122 124
f 126 123 125
f 11 7 126
f 127 102 107
f 128 124 127
f 129 125 128
f 130 126 129
f 16 11 130
f 131 107 113
f 132 127 131
f 133 128 132
f 134 129 133
f 135 130 134
f 22 16 135
f 136 113 120
f 137 131 136
f 138 132 137
f 139 133 138
f 140 134 139
f 141 135 140
f 29 22 141
f 2 93 121
f 121 95 122
f 4 121 123
f 122 98 124
f 123 122 125
f 7 123 126
f 124 102 127
f 125 124 128
f 126 125 129
f 11 126 130
f 127 107 131
f 128 127 132
f 129 128 133
f 130 129 134
f 16 130 135
f 131 113 136
f 132 131 137
f 133 132 138
f 134 133 139
f 135 134 140
f 22 135 141
f 142 29 141
f 143 141 140
f 144 142 143
f 145 140 139
f 146 143 145
f 147 144 146
f 148 139 138
f 149 145 148
f 150 146 149
f 151 147 150
f 152 138 137
f 153 148 152
f 154 149 153
f 155 150 154
f 156 151 155
f 157 137 136
f 158 152 157
f 159 153 158
f 160 154 159
f 161 155 160
f 162 156 161
f 163 136 120
f 164 157 163
f 165 158 164
f 166 159 165
f 167 160 166
f 168 161 167
f 169 162 168
f 142 141 143
f 143 140 145
f 144 143 146
f 145 139 148
f 146 145 149
f 147 146 150
f 148 138 152
f 149 148 153
f 150 149 154
f 151 150 155
f 152 137 157
f 153 152 158
f 154 153 159
f 155 154 160
f 156 155 161
f 157 136 163
f 158 157 164
f 159 158 165
f 160 159 166
f 161 160 167
f 162 161 168
f 170 120 119
f 171 119 118
f 172 170 171
f 173 118 117
f 174 171 173
f 175 172 174
f 176 117 116
f 177 173 176
f 178 174 177
f 179 175 178
f 180 116 115
f 181 176 180
f 182 177 181
f 183 178 182
f 184 179 183
f 185 115 114
f 186 180 185
f 187 181 186
f 188 182 187
f 189 183 188
f 190 184 189
f 191 114 92
f 192 185 191
f 193 186 192
f 194 187 193
f 195 188 194
f 196 189 195
f 197 190 196
f 170 119 171
f 171 118 173
f 172 171 174
f 173 117 176
f 174 173 177
f 175 174 178
f 176 116 180
f 177 176 181
f 178 177 182
f 179 178 183
f 180 115 185
f 181 180 186
f 182 181 187
f 183 182 188
f 184 183 189
f 185 114 191
f 186 185 192
f 187 186 193
f 188 187 194
f 189 188 195
f 190 189 196
f 198 92 91
f 199 91 90
f 200 198 199
f 201 90 89
f 202 199 201
f 203 200 202
f 204 89 88
f 205 201 204
f 206 202 205
f 207 203 206
f 208 88 87
f 209 204 208
f 210 205 209
f 211 206 210
f 212 207 211
f 213 87 86
f 214 208 213
f 215 209 214
f 216 210 215
f 217 211 216
f 218 212 217
f 219 86 64
f 220 213 219
f 221 214 220
f 222 215 221
f 223 216 222
f 224 217 223
f 225 218 224
f 198 91 199
f 199 90 201
f 200 199 202
f 201 89 204
f 202 201 205
f 203 202 206
f 204 88 208
f 205 204 209
f 206 205 210
f 207 206 211
f 208 87 213
f 209 208 214
f 210 209 215
f 211 210 216
f 212 211 217
f 213 86 219
f 214 213 220
f 215 214 221
f 216 215 222
f 217 216 223
f 218 217 224
f 226 64 63
f 227 63 62
f 228 226 227
f 229 62 61
f 230 227 229
f 231 228 230
f 232 61 60
f 233 229 232
f 234 230 233
f 235 231 234
f 236 60 59
f 237 232 236
f 238 233 237
f 239 234 238
f 240 235 239
f 241 59 58
f 242 236 241
f 243 237 242
f 244 238 243
f 245 239 244
f 246 240 245
f 247 58 36
f 248 241 247
f 249 242 248
f 250 243 249
f 251 244 250
f 252 245 251
f 253 246 252
f 226 63 227
f 227 62 229
f 228 227 230
f 229 61 232
f 230 229 233
f 231 230 234
f 232 60 236
f 233 232 237
f 234 233 238
f 235 234 239
f 236 59 241
f 237 236 242
f 238 237 243
f 239 238 244
f 240 239 245
f 241 58 247
f 242 241 248
f 243 242 249
f 244 243 250
f 245 244 251
f 246 245 252
f 254 36 35
f 255 35 34
f 256 254 255
f 257 34 33
f 258 255 257
f 259 256 258
f 260 33 32
f 261 257 260
f 262 258 261
f 263 259 262
f 264 32 31
f 265 260 264
f 266 261 265
f 267 262 266
f 268 263 267
f 269 31 30
f 270 264 269
f 271 265 270
f 272 266 271
f 273 267 272
f 274 268 273
f 275 30 29
f 276 269 275
f 277 270 276
f 278 271 277
f 279 272 278
f 280 273 279
f 281 274 280
f 254 35 255
f 255 34 257
f 256 255 258
f 257 33 260
f 258 257 261
f 259 258 262
f 260 32 264
f 261 260 265
f 262 261 266
f 263 262 267
f 264 31 269
f 265 264 270
f 266 265 271
f 267 266 272
f 268 267 273
f 269 30 275
f 270 269 276
f 271 270 277
f 272 271 278
f 273 272 279
f 274 273 280
f 275 29 142
f 282 142 144
f 276 275 282
f 283 144 147
f 284 282 283
f 277 276 284
f 285 147 151
f 286 283 285
f 287 284 286
f 278 277 287
f 288 151 156
f 289 285 288
f 290 286 289
f 291 287 290
f 279 278 291
f 292 156 162
f 293 288 292
f 294 289 293
f 295 290 294
f 296 291 295
f 280 279 296
f 297 162 169
f 298 292 297
f 299 293 298
f 300 294 299
f 301 295 300
f 302 296 301
f 281 280 302
f 275 142 282
f 282 144 283
f 276 282 284
f 283 147 285
f 284 283 286
f 277 284 287
f 285 151 288
f 286 285 289
f 287 286 290
f 278 287 291
f 288 156 292
f 289 288 293
f 290 289 294
f 291 290 295
f 279 291 296
f 292 162 297
f 293 292 298
f 294 293 299
f 295 294 300
f 296 295 301
f 280 296 302
f 163 120 170
f 303 170 172
f 164 163 303
f 304 172 175
f 305 303 304
f 165 164 305
f 306 175 179
f 307 304 306
f 308 305 307
f 166 165 308
f 309 179 184
f 310 306 309
f 311 307 310
f 312 308 311
f 167 166 312
f 313 184 190
f 314 309 313
f 315 310 314
f 316 311 315
f 317 312 316
f 168 167 317
f 318 190 197
f 319 313 318
f 320 314 319
f 321 315 320
f 322 316 321
f 323 317 322
f 169 168 323
f 163 170 303
f 303 172 304
f 164 303 305
f 304 175 306
f 305 304 307
f 165 305 308
f 306 179 309
f 307 306 310
f 308 307 311
f 166 308 312
f 309 184 313
f 310 309 314
f 311 310 315
f 312 311 316
f 167 312 317
f 313 190 318
f 314 313 319
f 315 314 320
f 316 315 321
f 317 316 322
f 168 317 323
f 191 92 198
f 324 198 200
f 192 191 324
f 325 200 203
f 326 324 325
f 193 192 326
f 327 203 207
f 328 325 327
f 329 326 328
f 194 193 329
f 330 207 212
f 331 327 330
f 332 328 331
f 333 329 332
f 195 194 333
f 334 212 218
f 335 330 334
f 336 331 335
f 337 332 336
f 338 333 337
f 196 195 338
f 339 218 225
f 340 334 339
f 341 335 340
f 342 336 341
f 343 337 342
f 344 338 343
f 197 196 344
f 191 198 324
f 324 200 325
f 192 324 326
f 325 203 327
f 326 325 328
f 193 326 329
f 327 207 330
f 328 327 331
f 329 328 332
f 194 329 333
f 330 212 334
f 331 330 335
f 332 331 336
f 333 332 337
f 195 333 338
f 334 218 339
f 335 334 340
f 336 335 341
f 337 336 342
f 338 337 343
f 196 338 344
f 219 64 226
f 345 226 228
f 220 219 345
f 346 228 231
f 347 345 346
f 221 220 347
f 348 231 235
f 349 346 348
f 350 347 349
f 222 221 350
f 351 235 240
f 352 348 351
f 353 349 352
f 354 350 353
f 223 222 354
f 355 240 246
f 356 351 355
f 357 352 356
f 358 353 357
f 359 354 358
f 224 223 359
f 360 246 253
f 361 355 360
f 362 356 361
f 363 357 362
f 364 358 363
f 365 359 364
f 225 224 365
f 219 226 345
f 345 228 346
f 220 345 347
f 346 231 348
f 347 346 349
f 221 347 350
f 348 235 351
f 349 348 352
f 350 349 353
f 222 350 354
f 351 240 355
f 352 351 356
f 353 352 357
f 354 353 358
f 223 354 359
f 355 246 360
f 356 355 361
f 357 356 362
f 358 357 363
f 359 358 364
f 224 359 365
f 247 36 254
f 366 254 256
f 248 247 366
f 367 256 259
f 368 366 367
f 249 248 368
f 369 259 263
f 370 367 369
f 371 368 370
f 250 249 371
f 372 263 268
f 373 369 372
f 374 370 373
f 375 371 374
f 251 250 375
f 376 268 274
f 377 372 376
f 378 373 377
f 379 374 378
f 380 375 379
f 252 251 380
f 381 274 281
f 382 376 381
f 383 377 382
f 384 378 383
f 385 379 384
f 386 380 385
f 253 252 386
f 247 254 366
f 366 256 367
f 248 366 368
f 367 259 369
f 368 367 370
f 249 368 371
f 369 263 372
f 370 369 373
f 371 370 374
f 250 371 375
f 372 268 376
f 373 372 377
f 374 373 378
f 375 374 379
f 251 375 380
f 376 274 381
f 377 376 382
f 378 377 383
f 379 378 384
f 380 379 385
f 252 380 386
f 389 387 388
f 391 388 390
f 392 389 391
f 394 390 393
f 395 391 394
f 396 392 395
f 398 393 397
f 399 394 398
f 400 395 399
f 401 396 400
f 403 397 402
f 404 398 403
f 405 399 404
f 406 400 405
f 407 401 406
f 409 402 408
f 410 403 409
f 411 404 410
f 412 405 411
f 413 406 412
f 414 407 413
f 302 408 281
f 301 409 302
f 300 410 301
f 299 411 300
f 298 412 299
f 297 413 298
f 169 414 297
f 389 388 391
f 391 390 394
f 392 391 395
f 394 393 398
f 395 394 399
f 396 395 400
f 398 397 403
f 399 398 404
f 400 399 405
f 401 400 406
f 403 402 409
f 404 403 410
f 405 404 411
f 406 405 412
f 407 406 413
f 409 408 302
f 410 409 301
f 411 410 300
f 412 411 299
f 413 412 298
f 414 413 297
f 388 387 415
f 417 415 416
f 390 388 417
f 419 416 418
f 420 417 419
f 393 390 420
f 422 418 421
f 423 419 422
f 424 420 423
f 397 393 424
f 426 421 425
f 427 422 426
f 428 423 427
f 429 424 428
f 402 397 429
f 431 425 430
f 432 426 431
f 433 427 432
f 434 428 433
f 435 429 434
f 408 402 435
f 386 430 253
f 385 431 386
f 384 432 385
f 383 433 384
f 382 434 383
f 381 435 382
f 281 408 381
f 388 415 417
f 417 416 419
f 390 417 420
f 419 418 422
f 420 419 423
f 393 420 424
f 422 421 426
f 423 422 427
f 424 423 428
f 397 424 429
f 426 425 431
f 427 426 432
f 428 427 433
f 429 428 434
f 402 429 435
f 431 430 386
f 432 431 385
f 433 432 384
f 434 433 383
f 435 434 382
f 408 435 381
f 415 387 436
f 438 436 437
f 416 415 438
f 440 437 439
f 441 438 440
f 418 416 441
f 443 439 442
f 444 440 443
f 445 441 444
f 421 418 445
f 447 442 446
f 448 443 447
f 449 444 448
f 450 445 449
f 425 421 450
f 452 446 451
f 453 447 452
f 454 448 453
f 455 449 454
f 456 450 455
f 430 425 456
f 365 451 225
f 364 452 365
f 363 453 364
f 362 454 363
f 361 455 362
f 360 456 361
f 253 430 360
f 415 436 438
f 438 437 440
f 416 438 441
f 440 439 443
f 441 440 444
f 418 441 445
f 443 442 447
f 444 443 448
f 445 444 449
f 421 445 450
f 447 446 452
f 448 447 453
f 449 448 454
f 450 449 455
f 425 450 456
f 452 451 365
f 453 452 364
f 454 453 363
f 455 454 362
f 456 455 361
f 430 456 360
f 436 387 457
f 459 457 458
f 437 436 459
f 461 458 460
f 462 459 461
f 439 437 462
f 464 460 463
f 465 461 464
f 466 462 465
f 442 439 466
f 468 463 467
f 469 464 468
f 470 465 469
f 471 466 470
f 446 442 471
f 473 467 472
f 474 468 473
f 475 469 474
f 476 470 475
f 477 471 476
f 451 446 477
f 344 472 197
f 343 473 344
f 342 474 343
f 341 475 342
f 340 476 341
f 339 477 340
f 225 451 339
f 436 457 459
f 459 458 461
f 437 459 462
f 461 460 464
f 462 461 465
f 439 462 466
f 464 463 468
f 465 464 469
f 466 465 470
f 442 466 471
f 468 467 473
f 469 468 474
f 470 469 475
f 471 470 476
f 446 471 477
f 473 472 344
f 474 473 343
f 475 474 342
f 476 475 341
f 477 476 340
f 451 477 339
f 457 387 389
f 478 389 392
f 458 457 478
f 479 392 396
f 480 478 479
f 460 458 480
f 481 396 401
f 482 479 481
f 483 480 482
f 463 460 483
f 484 401 407
f 485 481 484
f 486 482 485
f 487 483 486
f 467 463 487
f 488 407 414
f 489 484 488
f 490 485 489
f 491 486 490
f 492 487 491
f 472 467 492
f 323 414 169
f 322 488 323
f 321 489 322
f 320 490 321
f 319 491 320
f 318 492 319
f 197 472 318
f 457 389 478
f 478 392 479
f 458 478 480
f 479 396 481
f 480 479 482
f 460 480 483
f 481 401 484
f 482 481 485
f 483 482 486
f 463 483 487
f 484 407 488
f 485 484 489
f 486 485 490
f 487 486 491
f 467 487 492
f 488 414 323
f 489 488 322
f 490 489 321
f 491 490 320
f 492 491 319
f 472 492 318
