# File exported by Houdini 20.5.445 (www.sidefx.com)
# 492 points
# 2940 vertices
# 980 primitives
# Bounds: [-47.5601807, -244.813217, -1072.93481] to [218.334076, 361.190308, -681.866089]
g 
v 85.3869629 58.1885796 -1072.93481
v 85.3869629 106.119171 -1070.49414
v 105.364349 72.9999237 -1070.49414
v 85.3869629 152.8535 -1063.23315
v 106.480377 124.43576 -1065.7229
v 124.843109 87.4416504 -1063.23315
v 85.3869629 197.224747 -1051.33301
v 107.135895 172.161957 -1055.87671
v 126.169952 140.606613 -1055.87671
v 143.336884 101.153168 -1051.33301
v 85.3869629 238.125107 -1035.09106
v 107.35202 215.990158 -1041.46045
v 126.79245 188.228958 -1043.43213
v 144.370697 154.619217 -1041.46045
v 160.384064 113.792099 -1035.09106
v 85.3869629 274.5336 -1014.91229
v 107.135895 255.658295 -1022.71918
v 126.79245 231.150101 -1026.38745
v 144.681915 201.49234 -1026.38745
v 160.971039 166.408447 -1022.71918
v 175.559052 125.042953 -1014.91229
v 85.3869629 305.541138 -991.300842
v 106.480377 290.707886 -999.693665
v 126.169952 269.770264 -1004.58392
v 144.370697 243.436172 -1006.19
v 160.971039 212.075851 -1004.58392
v 175.782257 175.816742 -999.693665
v 188.482941 134.624817 -991.300842
v 85.3869629 330.373718 -964.846008
v 105.364349 320.352539 -972.266785
v 124.843109 303.786682 -977.319275
v 143.336884 281.089722 -979.877502
v 160.384064 252.828369 -979.877502
v 175.559052 219.707901 -977.319275
v 188.48288 182.55545 -972.266785
v 198.833099 142.298523 -964.84613
v 97.7336731 19.4118919 -1070.49414
v 119.516876 32.8843727 -1065.7229
v 109.772186 -18.3969154 -1063.23315
v 139.611603 46.2100105 -1055.87671
v 132.341278 -4.84770203 -1055.87671
v 121.201996 -54.2940826 -1051.33301
v 157.945892 59.2846794 -1041.46045
v 152.382538 8.51760101 -1043.43213
v 143.806 -40.015564 -1041.46045
v 131.737762 -87.3832397 -1035.09106
v 174.412689 72.0118408 -1022.71918
v 170.271881 21.7809391 -1026.3877
v 163.438751 -26.2063522 -1026.3877
v 153.849518 -72.3976593 -1022.71918
v 141.116364 -116.838226 -1014.91229
v 188.818634 84.2653503 -999.693665
v 186.176361 35.0661545 -1004.58392
v 180.824677 -12.5696106 -1006.19
v 172.883575 -58.2856293 -1004.58392
v 162.347809 -101.632614 -999.693665
v 149.10379 -141.923889 -991.300842
v 200.82962 95.8481293 -972.266785
v 199.944305 48.4573479 -977.319275
v 196.199127 1.30943108 -979.877625
v 189.687714 -44.4186096 -979.877625
v 180.57254 -87.5851135 -977.319275
v 169.081146 -127.112534 -972.266785
v 155.500519 -162.01387 -964.84613
v 73.0402527 19.4118919 -1070.49414
v 85.3869629 -23.6975403 -1065.7229
v 61.001709 -18.3969154 -1063.23315
v 97.1506348 -63.1879883 -1055.87671
v 73.623291 -63.1879883 -1055.87671
v 49.5718994 -54.2940826 -1051.33301
v 108.265717 -98.9356079 -1041.46045
v 85.3869629 -102.550217 -1043.43213
v 62.5081482 -98.9356079 -1041.46045
v 39.0361633 -87.3832397 -1035.09106
v 118.658844 -130.737946 -1022.71918
v 96.4432068 -137.274078 -1026.3877
v 74.3306885 -137.274078 -1026.3877
v 52.1149902 -130.738037 -1022.71918
v 29.6575317 -116.838226 -1014.91229
v 128.217804 -158.214432 -999.693665
v 106.895172 -167.683609 -1004.58392
v 85.3869629 -170.79007 -1006.19
v 63.8786926 -167.683609 -1004.58392
v 42.5560608 -158.214432 -999.693665
v 21.670105 -141.923889 -991.300842
v 136.757111 -180.700562 -972.266785
v 116.73111 -193.423813 -977.319275
v 95.9226685 -199.865875 -979.877625
v 74.8511963 -199.865875 -979.877625
v 54.0427551 -193.423813 -977.319275
v 34.0168457 -180.700562 -972.266785
v 15.2733765 -162.01387 -964.84613
v 65.4095764 72.9999237 -1070.49414
v 51.257019 32.8843727 -1065.7229
v 45.9308167 87.4416504 -1063.23315
v 38.4326477 -4.84770203 -1055.87671
v 31.1622925 46.2100105 -1055.87671
v 27.4370117 101.153168 -1051.33301
v 26.9678955 -40.015564 -1041.46045
v 18.3913879 8.51760101 -1043.43213
v 12.8280334 59.2846794 -1041.46045
v 10.389801 113.792099 -1035.09106
v 16.9243774 -72.3976593 -1022.71918
v 7.33514404 -26.2063522 -1026.3877
v 0.501983643 21.7809391 -1026.3877
v -3.63879395 72.0118408 -1022.71918
v -4.78515625 125.042953 -1014.91229
v 8.42614746 -101.632614 -999.693665
v -2.10968018 -58.2856293 -1004.58392
v -10.0508118 -12.5696106 -1006.19
v -15.4024658 35.0661545 -1004.58392
v -18.0447998 84.2653503 -999.693665
v -17.7090454 134.624817 -991.300842
v 1.69271851 -127.112534 -972.266785
v -9.79864502 -87.5851135 -977.319275
v -18.9138184 -44.4186096 -979.877625
v -25.425293 1.30943108 -979.877625
v -29.1704102 48.4573479 -977.319275
v -30.0557556 95.8481293 -972.266785
v -28.0592041 142.298523 -964.84613
v 64.2934875 124.43576 -1065.7229
v 44.6039124 140.606613 -1055.87671
v 63.6379395 172.161957 -1055.87671
v 26.4031982 154.619217 -1041.46045
v 43.9814453 188.228958 -1043.43213
v 63.421875 215.990158 -1041.46045
v 9.80282593 166.408447 -1022.71918
v 26.0920105 201.49234 -1026.38745
v 43.9814453 231.150101 -1026.38745
v 63.6379395 255.658295 -1022.71906
v -5.0083313 175.816742 -999.693665
v 9.80282593 212.075851 -1004.58392
v 26.4031982 243.436172 -1006.19
v 44.6038818 269.770264 -1004.58392
v 64.293457 290.707886 -999.693665
v -17.7090149 182.55545 -972.266785
v -4.78515625 219.707901 -977.319275
v 10.389801 252.828369 -979.877502
v 27.4369812 281.089722 -979.877502
v 45.9308167 303.786682 -977.319275
v 65.4095459 320.352539 -972.266785
v 73.0402527 344.31781 -941.469299
v 51.257019 331.650818 -947.078186
v 61.001709 351.11908 -916.492859
v 31.1622925 311.985718 -950.333191
v 38.4326477 334.819397 -920.989807
v 49.5718994 350.607727 -890.54071
v 12.8280334 286.070984 -951.400208
v 18.3914185 311.519348 -923.105652
v 26.9678955 330.47937 -894.33136
v 39.0361633 342.796448 -864.260376
v -3.63876343 254.291199 -950.333191
v 0.50201416 281.861633 -923.105652
v 7.33517456 303.322083 -895.526917
v 16.924408 318.872986 -867.339844
v 29.6575317 327.88031 -838.308044
v -18.0447693 216.759796 -947.078186
v -15.4024353 245.569534 -920.989807
v -10.0507507 269.108429 -894.33136
v -2.10964966 287.317627 -867.339844
v 8.42617798 299.895691 -840.240845
v 21.670105 306.231628 -813.331665
v -30.0557251 173.401505 -941.469299
v -29.1703796 201.628494 -916.492859
v -25.4252319 226.274719 -890.54071
v -18.9137878 246.724854 -864.260376
v -9.7986145 262.468445 -838.308044
v 1.69271851 273.112366 -813.331665
v 15.2733765 278.390961 -789.954834
v -37.6864014 119.813416 -941.469299
v -39.1382446 68.6264954 -947.078186
v -44.2413025 95.7897797 -916.492859
v -37.1514893 18.9412689 -950.333191
v -44.4218445 41.7748375 -920.989807
v -47.5601807 70.8274689 -890.54071
v -32.0158691 -28.8547592 -951.400208
v -40.9035339 -8.91747665 -923.105652
v -46.1557617 15.5536861 -894.33136
v -47.5601807 45.5496063 -864.260376
v -23.8586731 -74.4105225 -950.333191
v -34.0703735 -56.9046783 -923.105652
v -40.9035339 -35.4442444 -895.526917
v -44.4218445 -9.82873917 -867.339844
v -44.2413025 20.5872421 -838.308044
v -12.6673279 -117.271423 -947.078186
v -23.8586731 -102.634491 -920.989807
v -32.0158386 -83.7466583 -894.33136
v -37.1514587 -60.8863602 -867.339844
v -39.1382446 -34.1354523 -840.240845
v -37.6864014 -3.43629456 -813.331665
v 1.69271851 -156.735321 -941.469299
v -9.7986145 -146.091415 -916.492859
v -18.9137878 -130.347778 -890.54071
v -25.4252319 -109.897675 -864.260376
v -29.1703796 -85.251358 -838.308044
v -30.0557251 -57.0244293 -813.331665
v -28.0592041 -25.9214096 -789.954895
v 21.670105 -189.854538 -941.469299
v 42.5560608 -208.82283 -947.078186
v 29.6575317 -211.503265 -916.492859
v 63.8786926 -219.864914 -950.333191
v 52.1149902 -228.586533 -920.989807
v 39.0361633 -226.419373 -890.54071
v 85.3869629 -223.489578 -951.400208
v 74.3306885 -236.616135 -923.105652
v 62.5081787 -240.452072 -894.33136
v 49.5718994 -234.230606 -864.260376
v 106.895172 -219.864914 -950.333191
v 96.4432068 -236.616135 -923.105652
v 85.3869629 -244.813217 -895.526917
v 73.623291 -244.532852 -867.339844
v 61.001709 -234.742111 -838.308044
v 128.217804 -208.82283 -947.078186
v 118.658844 -228.586533 -920.989807
v 108.265717 -240.452072 -894.33136
v 97.1506348 -244.532852 -867.339844
v 85.3869629 -240.577896 -840.240845
v 73.0402527 -227.940674 -813.331726
v 149.10379 -189.854538 -941.469299
v 141.116364 -211.503265 -916.492859
v 131.737762 -226.419373 -890.54071
v 121.201996 -234.230606 -864.260376
v 109.772186 -234.742111 -838.308044
v 97.7336731 -227.940674 -813.331726
v 85.3869629 -213.996643 -789.954895
v 169.081146 -156.735321 -941.469299
v 183.441193 -117.271423 -947.078186
v 180.572479 -146.091415 -916.492859
v 194.632538 -74.4105225 -950.333191
v 194.632538 -102.634491 -920.989807
v 189.687653 -130.347778 -890.54071
v 202.789703 -28.8547592 -951.400208
v 204.844269 -56.9046783 -923.105652
v 202.789703 -83.7466583 -894.33136
v 196.199066 -109.897675 -864.260376
v 207.925385 18.9412689 -950.333191
v 211.677399 -8.91747665 -923.105652
v 211.677399 -35.4442444 -895.526917
v 207.925323 -60.8863602 -867.339844
v 199.944305 -85.251358 -838.308044
v 209.91214 68.6264954 -947.078186
v 215.19577 41.7748375 -920.989807
v 216.929657 15.5536861 -894.33136
v 215.195709 -9.82873917 -867.339844
v 209.91214 -34.1354523 -840.240845
v 200.829559 -57.0244293 -813.331665
v 208.460297 119.813416 -941.469299
v 215.015228 95.7897797 -916.492859
v 218.334076 70.8274689 -890.54071
v 218.334076 45.5496063 -864.260376
v 215.015228 20.5872421 -838.308044
v 208.460297 -3.43629456 -813.331665
v 198.833099 -25.9214096 -789.954895
v 200.829559 173.401505 -941.469299
v 188.818634 216.759796 -947.078186
v 199.944305 201.628494 -916.492859
v 174.412628 254.291199 -950.333191
v 186.176361 245.569534 -920.989807
v 196.199066 226.274719 -890.54071
v 157.945892 286.070984 -951.400208
v 170.271881 281.861633 -923.105652
v 180.824615 269.108429 -894.33136
v 189.687653 246.724854 -864.260376
v 139.611603 311.985718 -950.333191
v 152.382477 311.519348 -923.105652
v 163.438751 303.322083 -895.526917
v 172.883514 287.317627 -867.339844
v 180.572479 262.468445 -838.308044
v 119.516876 331.650818 -947.078186
v 132.341217 334.819397 -920.989807
v 143.806 330.47937 -894.33136
v 153.849457 318.872986 -867.339844
v 162.347748 299.895691 -840.240845
v 169.081146 273.112366 -813.331665
v 97.7336731 344.31781 -941.469299
v 109.772186 351.11908 -916.492859
v 121.201996 350.607727 -890.54071
v 131.737762 342.796448 -864.260376
v 141.116364 327.88031 -838.308044
v 149.10379 306.231628 -813.331665
v 155.500519 278.390961 -789.954834
v 85.3869629 356.954956 -914.559875
v 73.623291 360.909973 -887.461243
v 97.1506348 360.909973 -887.461243
v 62.5081787 356.829163 -860.469543
v 85.3869629 361.190308 -859.273987
v 108.265717 356.829163 -860.469543
v 52.1149902 344.963623 -833.811035
v 74.3306885 352.993164 -831.695251
v 96.4432068 352.993164 -831.695251
v 118.658844 344.963623 -833.811035
v 42.5560608 325.19989 -807.722717
v 63.8786926 336.241943 -804.467712
v 85.3869629 339.866638 -803.400696
v 106.895172 336.241943 -804.467712
v 128.217804 325.19989 -807.722717
v 34.0168457 297.077698 -782.534119
v 54.0427551 309.800903 -777.481506
v 74.8511963 316.242981 -774.92334
v 95.9226685 316.242981 -774.92334
v 116.73111 309.800903 -777.481506
v 136.757111 297.077698 -782.534119
v -39.1382446 150.512573 -914.559875
v -44.4218445 126.205826 -887.461243
v -37.1514587 177.263474 -887.461243
v -46.1557617 100.823441 -860.469543
v -40.9035339 151.821274 -859.273987
v -32.0158386 200.123779 -860.469543
v -44.4218445 74.6022339 -833.811035
v -40.9035339 125.29454 -831.695251
v -34.0703735 173.281799 -831.695251
v -23.8586426 219.011566 -833.811035
v -39.1382446 47.750576 -807.722717
v -37.1514893 97.4358521 -804.467651
v -32.0158691 145.231842 -803.400696
v -23.8586731 190.787598 -804.467651
v -12.6673279 233.64856 -807.722717
v -30.0557556 20.5289497 -782.534119
v -29.1704102 67.9197235 -777.481506
v -25.425293 115.067642 -774.923279
v -18.9138184 160.795715 -774.923279
v -9.79864502 203.96225 -777.481506
v 1.69271851 243.489578 -782.534119
v 8.42617798 -183.518631 -914.559875
v 16.924408 -202.495941 -887.461243
v -2.10964966 -170.940552 -887.461243
v 26.9678955 -214.102325 -860.469543
v 7.33517456 -186.945053 -859.273987
v -10.0507507 -152.731384 -860.469543
v 38.4326477 -218.442154 -833.811035
v 18.3914185 -195.142334 -831.695251
v 0.50201416 -165.484604 -831.695251
v -15.4024353 -129.192444 -833.811035
v 51.257019 -215.273849 -807.722778
v 31.1622925 -195.608582 -804.467712
v 12.8280334 -169.693878 -803.400696
v -3.63876343 -137.914169 -804.467712
v -18.0447693 -100.382675 -807.722778
v 65.4095459 -203.97551 -782.534119
v 45.9308167 -187.409622 -777.481567
v 27.4369812 -164.712738 -774.92334
v 10.389801 -136.451263 -774.92334
v -4.78515625 -103.330826 -777.481567
v -17.7090149 -66.1783218 -782.534119
v 162.347748 -183.518631 -914.559875
v 172.883514 -170.940552 -887.461243
v 153.849457 -202.495941 -887.461243
v 180.824615 -152.731384 -860.469543
v 163.438751 -186.945053 -859.273987
v 143.806 -214.102325 -860.469543
v 186.176361 -129.192444 -833.811035
v 170.271881 -165.484604 -831.695251
v 152.382477 -195.142242 -831.695251
v 132.341217 -218.442322 -833.811035
v 188.818634 -100.382675 -807.722778
v 174.412628 -137.914169 -804.467712
v 157.945892 -169.693878 -803.400696
v 139.611603 -195.608582 -804.467712
v 119.516876 -215.273849 -807.722778
v 188.48288 -66.1783218 -782.534119
v 175.559052 -103.330826 -777.481567
v 160.384064 -136.451263 -774.92334
v 143.336884 -164.712738 -774.92334
v 124.843109 -187.409622 -777.481567
v 105.364349 -203.97551 -782.534119
v 209.91214 150.512573 -914.559875
v 207.925323 177.263474 -887.461243
v 215.195709 126.205826 -887.461243
v 202.789703 200.123779 -860.469543
v 211.677399 151.821274 -859.273987
v 216.929657 100.823441 -860.469543
v 194.632538 219.011566 -833.811035
v 204.844269 173.281799 -831.695251
v 211.677399 125.29454 -831.695251
v 215.19577 74.6022339 -833.811035
v 183.441193 233.648468 -807.722717
v 194.632538 190.787598 -804.467651
v 202.789703 145.231842 -803.400696
v 207.925385 97.4358521 -804.467651
v 209.91214 47.750576 -807.722717
v 169.081146 243.489578 -782.534119
v 180.57254 203.96225 -777.481506
v 189.687714 160.795715 -774.923279
v 196.199127 115.067642 -774.923279
v 199.944305 67.9197235 -777.481506
v 200.82962 20.5289497 -782.534119
v 85.3869629 58.1885796 -681.866089
v 97.7336731 96.9652252 -684.306702
v 73.0402527 96.9652252 -684.306702
v 109.772186 134.774048 -691.567627
v 85.3869629 140.07457 -689.078125
v 61.001709 134.774048 -691.567627
v 121.201996 170.671158 -703.467712
v 97.1506348 179.565109 -698.924194
v 73.623291 179.565109 -698.924194
v 49.5718994 170.671158 -703.467712
v 131.737762 203.760315 -719.709839
v 108.265717 215.312729 -713.340454
v 85.3869629 218.927292 -711.368652
v 62.5081482 215.312729 -713.340454
v 39.0361633 203.760315 -719.709839
v 141.116364 233.215363 -739.888611
v 118.658844 247.115021 -732.081787
v 96.4432068 253.651184 -728.413269
v 74.3306885 253.651184 -728.413269
v 52.1149902 247.115112 -732.081787
v 29.6575317 233.215363 -739.888611
v 149.10379 258.300934 -763.500122
v 128.217804 274.591522 -755.107239
v 106.895172 284.06073 -750.21698
v 85.3869629 287.167175 -748.610962
v 63.8786926 284.06073 -750.21698
v 42.5560608 274.591522 -755.107239
v 21.670105 258.300934 -763.500122
v 105.364349 43.3771362 -684.306702
v 124.843109 28.935379 -691.567627
v 119.516876 83.492691 -689.078125
v 143.336884 15.2239494 -703.467712
v 139.611603 70.1670532 -698.924194
v 132.341278 121.224777 -698.924194
v 160.384064 2.5849762 -719.709839
v 157.945892 57.0923729 -713.340454
v 152.382538 107.859528 -711.368652
v 143.806 156.392685 -713.340454
v 175.559052 -8.66586685 -739.888611
v 174.412689 44.3652229 -732.081787
v 170.271881 94.5961761 -728.413269
v 163.438751 142.583435 -728.413269
v 153.849518 188.774689 -732.081787
v 188.482941 -18.2477379 -763.500122
v 188.818634 32.1117668 -755.107239
v 186.176361 81.3108978 -750.21698
v 180.824677 128.946747 -748.610962
v 172.883575 174.662659 -750.21698
v 162.347809 218.009644 -755.107239
v 85.3869629 10.257906 -684.306702
v 85.3869629 -36.4763756 -691.567627
v 106.480377 -8.05863953 -689.078125
v 85.3869629 -80.8476715 -703.467712
v 107.135895 -55.7848206 -698.924194
v 126.169952 -24.2295303 -698.924194
v 85.3869629 -121.748032 -719.709839
v 107.35202 -99.6130371 -713.340454
v 126.79245 -71.8518829 -711.368652
v 144.370697 -38.2421036 -713.340454
v 85.3869629 -158.156509 -739.888672
v 107.135895 -139.281158 -732.081787
v 126.79245 -114.773026 -728.41333
v 144.681915 -85.1153259 -728.41333
v 160.971039 -50.0313568 -732.081787
v 85.3869629 -189.163971 -763.500122
v 106.480377 -174.330841 -755.107239
v 126.169952 -153.393173 -750.21698
v 144.370697 -127.059082 -748.611023
v 160.971039 -95.6987762 -750.21698
v 175.782257 -59.4396667 -755.107239
v 65.4095764 43.3771362 -684.306702
v 45.9308167 28.935379 -691.567627
v 64.2934875 -8.05863953 -689.078125
v 27.4370117 15.2239494 -703.467712
v 44.6039124 -24.2295303 -698.924194
v 63.6379395 -55.7848206 -698.924194
v 10.389801 2.5849762 -719.709839
v 26.4031982 -38.2421036 -713.340454
v 43.9814453 -71.8518829 -711.368652
v 63.421875 -99.6130371 -713.340454
v -4.78515625 -8.66586685 -739.888611
v 9.80282593 -50.0313568 -732.081787
v 26.0920105 -85.1153259 -728.41333
v 43.9814453 -114.773026 -728.41333
v 63.6379395 -139.281158 -732.081848
v -17.7090454 -18.2477379 -763.500122
v -5.0083313 -59.4396667 -755.107239
v 9.80282593 -95.6987762 -750.21698
v 26.4031982 -127.059082 -748.611023
v 44.6038818 -153.393173 -750.21698
v 64.293457 -174.330841 -755.107239
v 51.257019 83.492691 -689.078125
v 38.4326477 121.224777 -698.924194
v 31.1622925 70.1670532 -698.924194
v 26.9678955 156.392685 -713.340454
v 18.3913879 107.859528 -711.368652
v 12.8280334 57.0923729 -713.340454
v 16.9243774 188.774689 -732.081787
v 7.33514404 142.583435 -728.413269
v 0.501983643 94.5961761 -728.413269
v -3.63879395 44.3652229 -732.081787
v 8.42614746 218.009644 -755.107178
v -2.10968018 174.662659 -750.21698
v -10.0508118 128.946747 -748.610962
v -15.4024658 81.3108978 -750.21698
v -18.0447998 32.1117668 -755.107239
g 
f 3 1 2
f 5 2 4
f 6 3 5
f 8 4 7
f 9 5 8
f 10 6 9
f 12 7 11
f 13 8 12
f 14 9 13
f 15 10 14
f 17 11 16
f 18 12 17
f 19 13 18
f 20 14 19
f 21 15 20
f 23 16 22
f 24 17 23
f 25 18 24
f 26 19 25
f 27 20 26
f 28 21 27
f 30 22 29
f 31 23 30
f 32 24 31
f 33 25 32
f 34 26 33
f 35 27 34
f 36 28 35
f 3 2 5
f 5 4 8
f 6 5 9
f 8 7 12
f 9 8 13
f 10 9 14
f 12 11 17
f 13 12 18
f 14 13 19
f 15 14 20
f 17 16 23
f 18 17 24
f 19 18 25
f 20 19 26
f 21 20 27
f 23 22 30
f 24 23 31
f 25 24 32
f 26 25 33
f 27 26 34
f 28 27 35
f 37 1 3
f 38 3 6
f 39 37 38
f 40 6 10
f 41 38 40
f 42 39 41
f 43 10 15
f 44 40 43
f 45 41 44
f 46 42 45
f 47 15 21
f 48 43 47
f 49 44 48
f 50 45 49
f 51 46 50
f 52 21 28
f 53 47 52
f 54 48 53
f 55 49 54
f 56 50 55
f 57 51 56
f 58 28 36
f 59 52 58
f 60 53 59
f 61 54 60
f 62 55 61
f 63 56 62
f 64 57 63
f 37 3 38
f 38 6 40
f 39 38 41
f 40 10 43
f 41 40 44
f 42 41 45
f 43 15 47
f 44 43 48
f 45 44 49
f 46 45 50
f 47 21 52
f 48 47 53
f 49 48 54
f 50 49 55
f 51 50 56
f 52 28 58
f 53 52 59
f 54 53 60
f 55 54 61
f 56 55 62
f 57 56 63
f 65 1 37
f 66 37 39
f 67 65 66
f 68 39 42
f 69 66 68
f 70 67 69
f 71 42 46
f 72 68 71
f 73 69 72
f 74 70 73
f 75 46 51
f 76 71 75
f 77 72 76
f 78 73 77
f 79 74 78
f 80 51 57
f 81 75 80
f 82 76 81
f 83 77 82
f 84 78 83
f 85 79 84
f 86 57 64
f 87 80 86
f 88 81 87
f 89 82 88
f 90 83 89
f 91 84 90
f 92 85 91
f 65 37 66
f 66 39 68
f 67 66 69
f 68 42 71
f 69 68 72
f 70 69 73
f 71 46 75
f 72 71 76
f 73 72 77
f 74 73 78
f 75 51 80
f 76 75 81
f 77 76 82
f 78 77 83
f 79 78 84
f 80 57 86
f 81 80 87
f 82 81 88
f 83 82 89
f 84 83 90
f 85 84 91
f 93 1 65
f 94 65 67
f 95 93 94
f 96 67 70
f 97 94 96
f 98 95 97
f 99 70 74
f 100 96 99
f 101 97 100
f 102 98 101
f 103 74 79
f 104 99 103
f 105 100 104
f 106 101 105
f 107 102 106
f 108 79 85
f 109 103 108
f 110 104 109
f 111 105 110
f 112 106 111
f 113 107 112
f 114 85 92
f 115 108 114
f 116 109 115
f 117 110 116
f 118 111 117
f 119 112 118
f 120 113 119
f 93 65 94
f 94 67 96
f 95 94 97
f 96 70 99
f 97 96 100
f 98 97 101
f 99 74 103
f 100 99 104
f 101 100 105
f 102 101 106
f 103 79 108
f 104 103 109
f 105 104 110
f 106 105 111
f 107 106 112
f 108 85 114
f 109 108 115
f 110 109 116
f 111 110 117
f 112 111 118
f 113 112 119
f 2 1 93
f 121 93 95
f 4 2 121
f 122 95 98
f 123 121 122
f 7 4 123
f 124 98 102
f 125 122 124
f 126 123 125
f 11 7 126
f 127 102 107
f 128 124 127
f 129 125 128
f 130 126 129
f 16 11 130
f 131 107 113
f 132 127 131
f 133 128 132
f 134 129 133
f 135 130 134
f 22 16 135
f 136 113 120
f 137 131 136
f 138 132 137
f 139 133 138
f 140 134 139
f 141 135 140
f 29 22 141
f 2 93 121
f 121 95 122
f 4 121 123
f 122 98 124
f 123 122 125
f 7 123 126
f 124 102 127
f 125 124 128
f 126 125 129
f 11 126 130
f 127 107 131
f 128 127 132
f 129 128 133
f 130 129 134
f 16 130 135
f 131 113 136
f 132 131 137
f 133 132 138
f 134 133 139
f 135 134 140
f 22 135 141
f 142 29 141
f 143 141 140
f 144 142 143
f 145 140 139
f 146 143 145
f 147 144 146
f 148 139 138
f 149 145 148
f 150 146 149
f 151 147 150
f 152 138 137
f 153 148 152
f 154 149 153
f 155 150 154
f 156 151 155
f 157 137 136
f 158 152 157
f 159 153 158
f 160 154 159
f 161 155 160
f 162 156 161
f 163 136 120
f 164 157 163
f 165 158 164
f 166 159 165
f 167 160 166
f 168 161 167
f 169 162 168
f 142 141 143
f 143 140 145
f 144 143 146
f 145 139 148
f 146 145 149
f 147 146 150
f 148 138 152
f 149 148 153
f 150 149 154
f 151 150 155
f 152 137 157
f 153 152 158
f 154 153 159
f 155 154 160
f 156 155 161
f 157 136 163
f 158 157 164
f 159 158 165
f 160 159 166
f 161 160 167
f 162 161 168
f 170 120 119
f 171 119 118
f 172 170 171
f 173 118 117
f 174 171 173
f 175 172 174
f 176 117 116
f 177 173 176
f 178 174 177
f 179 175 178
f 180 116 115
f 181 176 180
f 182 177 181
f 183 178 182
f 184 179 183
f 185 115 114
f 186 180 185
f 187 181 186
f 188 182 187
f 189 183 188
f 190 184 189
f 191 114 92
f 192 185 191
f 193 186 192
f 194 187 193
f 195 188 194
f 196 189 195
f 197 190 196
f 170 119 171
f 171 118 173
f 172 171 174
f 173 117 176
f 174 173 177
f 175 174 178
f 176 116 180
f 177 176 181
f 178 177 182
f 179 178 183
f 180 115 185
f 181 180 186
f 182 181 187
f 183 182 188
f 184 183 189
f 185 114 191
f 186 185 192
f 187 186 193
f 188 187 194
f 189 188 195
f 190 189 196
f 198 92 91
f 199 91 90
f 200 198 199
f 201 90 89
f 202 199 201
f 203 200 202
f 204 89 88
f 205 201 204
f 206 202 205
f 207 203 206
f 208 88 87
f 209 204 208
f 210 205 209
f 211 206 210
f 212 207 211
f 213 87 86
f 214 208 213
f 215 209 214
f 216 210 215
f 217 211 216
f 218 212 217
f 219 86 64
f 220 213 219
f 221 214 220
f 222 215 221
f 223 216 222
f 224 217 223
f 225 218 224
f 198 91 199
f 199 90 201
f 200 199 202
f 201 89 204
f 202 201 205
f 203 202 206
f 204 88 208
f 205 204 209
f 206 205 210
f 207 206 211
f 208 87 213
f 209 208 214
f 210 209 215
f 211 210 216
f 212 211 217
f 213 86 219
f 214 213 220
f 215 214 221
f 216 215 222
f 217 216 223
f 218 217 224
f 226 64 63
f 227 63 62
f 228 226 227
f 229 62 61
f 230 227 229
f 231 228 230
f 232 61 60
f 233 229 232
f 234 230 233
f 235 231 234
f 236 60 59
f 237 232 236
f 238 233 237
f 239 234 238
f 240 235 239
f 241 59 58
f 242 236 241
f 243 237 242
f 244 238 243
f 245 239 244
f 246 240 245
f 247 58 36
f 248 241 247
f 249 242 248
f 250 243 249
f 251 244 250
f 252 245 251
f 253 246 252
f 226 63 227
f 227 62 229
f 228 227 230
f 229 61 232
f 230 229 233
f 231 230 234
f 232 60 236
f 233 232 237
f 234 233 238
f 235 234 239
f 236 59 241
f 237 236 242
f 238 237 243
f 239 238 244
f 240 239 245
f 241 58 247
f 242 241 248
f 243 242 249
f 244 243 250
f 245 244 251
f 246 245 252
f 254 36 35
f 255 35 34
f 256 254 255
f 257 34 33
f 258 255 257
f 259 256 258
f 260 33 32
f 261 257 260
f 262 258 261
f 263 259 262
f 264 32 31
f 265 260 264
f 266 261 265
f 267 262 266
f 268 263 267
f 269 31 30
f 270 264 269
f 271 265 270
f 272 266 271
f 273 267 272
f 274 268 273
f 275 30 29
f 276 269 275
f 277 270 276
f 278 271 277
f 279 272 278
f 280 273 279
f 281 274 280
f 254 35 255
f 255 34 257
f 256 255 258
f 257 33 260
f 258 257 261
f 259 258 262
f 260 32 264
f 261 260 265
f 262 261 266
f 263 262 267
f 264 31 269
f 265 264 270
f 266 265 271
f 267 266 272
f 268 267 273
f 269 30 275
f 270 269 276
f 271 270 277
f 272 271 278
f 273 272 279
f 274 273 280
f 275 29 142
f 282 142 144
f 276 275 282
f 283 144 147
f 284 282 283
f 277 276 284
f 285 147 151
f 286 283 285
f 287 284 286
f 278 277 287
f 288 151 156
f 289 285 288
f 290 286 289
f 291 287 290
f 279 278 291
f 292 156 162
f 293 288 292
f 294 289 293
f 295 290 294
f 296 291 295
f 280 279 296
f 297 162 169
f 298 292 297
f 299 293 298
f 300 294 299
f 301 295 300
f 302 296 301
f 281 280 302
f 275 142 282
f 282 144 283
f 276 282 284
f 283 147 285
f 284 283 286
f 277 284 287
f 285 151 288
f 286 285 289
f 287 286 290
f 278 287 291
f 288 156 292
f 289 288 293
f 290 289 294
f 291 290 295
f 279 291 296
f 292 162 297
f 293 292 298
f 294 293 299
f 295 294 300
f 296 295 301
f 280 296 302
f 163 120 170
f 303 170 172
f 164 163 303
f 304 172 175
f 305 303 304
f 165 164 305
f 306 175 179
f 307 304 306
f 308 305 307
f 166 165 308
f 309 179 184
f 310 306 309
f 311 307 310
f 312 308 311
f 167 166 312
f 313 184 190
f 314 309 313
f 315 310 314
f 316 311 315
f 317 312 316
f 168 167 317
f 318 190 197
f 319 313 318
f 320 314 319
f 321 315 320
f 322 316 321
f 323 317 322
f 169 168 323
f 163 170 303
f 303 172 304
f 164 303 305
f 304 175 306
f 305 304 307
f 165 305 308
f 306 179 309
f 307 306 310
f 308 307 311
f 166 308 312
f 309 184 313
f 310 309 314
f 311 310 315
f 312 311 316
f 167 312 317
f 313 190 318
f 314 313 319
f 315 314 320
f 316 315 321
f 317 316 322
f 168 317 323
f 191 92 198
f 324 198 200
f 192 191 324
f 325 200 203
f 326 324 325
f 193 192 326
f 327 203 207
f 328 325 327
f 329 326 328
f 194 193 329
f 330 207 212
f 331 327 330
f 332 328 331
f 333 329 332
f 195 194 333
f 334 212 218
f 335 330 334
f 336 331 335
f 337 332 336
f 338 333 337
f 196 195 338
f 339 218 225
f 340 334 339
f 341 335 340
f 342 336 341
f 343 337 342
f 344 338 343
f 197 196 344
f 191 198 324
f 324 200 325
f 192 324 326
f 325 203 327
f 326 325 328
f 193 326 329
f 327 207 330
f 328 327 331
f 329 328 332
f 194 329 333
f 330 212 334
f 331 330 335
f 332 331 336
f 333 332 337
f 195 333 338
f 334 218 339
f 335 334 340
f 336 335 341
f 337 336 342
f 338 337 343
f 196 338 344
f 219 64 226
f 345 226 228
f 220 219 345
f 346 228 231
f 347 345 346
f 221 220 347
f 348 231 235
f 349 346 348
f 350 347 349
f 222 221 350
f 351 235 240
f 352 348 351
f 353 349 352
f 354 350 353
f 223 222 354
f 355 240 246
f 356 351 355
f 357 352 356
f 358 353 357
f 359 354 358
f 224 223 359
f 360 246 253
f 361 355 360
f 362 356 361
f 363 357 362
f 364 358 363
f 365 359 364
f 225 224 365
f 219 226 345
f 345 228 346
f 220 345 347
f 346 231 348
f 347 346 349
f 221 347 350
f 348 235 351
f 349 348 352
f 350 349 353
f 222 350 354
f 351 240 355
f 352 351 356
f 353 352 357
f 354 353 358
f 223 354 359
f 355 246 360
f 356 355 361
f 357 356 362
f 358 357 363
f 359 358 364
f 224 359 365
f 247 36 254
f 366 254 256
f 248 247 366
f 367 256 259
f 368 366 367
f 249 248 368
f 369 259 263
f 370 367 369
f 371 368 370
f 250 249 371
f 372 263 268
f 373 369 372
f 374 370 373
f 375 371 374
f 251 250 375
f 376 268 274
f 377 372 376
f 378 373 377
f 379 374 378
f 380 375 379
f 252 251 380
f 381 274 281
f 382 376 381
f 383 377 382
f 384 378 383
f 385 379 384
f 386 380 385
f 253 252 386
f 247 254 366
f 366 256 367
f 248 366 368
f 367 259 369
f 368 367 370
f 249 368 371
f 369 263 372
f 370 369 373
f 371 370 374
f 250 371 375
f 372 268 376
f 373 372 377
f 374 373 378
f 375 374 379
f 251 375 380
f 376 274 381
f 377 376 382
f 378 377 383
f 379 378 384
f 380 379 385
f 252 380 386
f 389 387 388
f 391 388 390
f 392 389 391
f 394 390 393
f 395 391 394
f 396 392 395
f 398 393 397
f 399 394 398
f 400 395 399
f 401 396 400
f 403 397 402
f 404 398 403
f 405 399 404
f 406 400 405
f 407 401 406
f 409 402 408
f 410 403 409
f 411 404 410
f 412 405 411
f 413 406 412
f 414 407 413
f 302 408 281
f 301 409 302
f 300 410 301
f 299 411 300
f 298 412 299
f 297 413 298
f 169 414 297
f 389 388 391
f 391 390 394
f 392 391 395
f 394 393 398
f 395 394 399
f 396 395 400
f 398 397 403
f 399 398 404
f 400 399 405
f 401 400 406
f 403 402 409
f 404 403 410
f 405 404 411
f 406 405 412
f 407 406 413
f 409 408 302
f 410 409 301
f 411 410 300
f 412 411 299
f 413 412 298
f 414 413 297
f 388 387 415
f 417 415 416
f 390 388 417
f 419 416 418
f 420 417 419
f 393 390 420
f 422 418 421
f 423 419 422
f 424 420 423
f 397 393 424
f 426 421 425
f 427 422 426
f 428 423 427
f 429 424 428
f 402 397 429
f 431 425 430
f 432 426 431
f 433 427 432
f 434 428 433
f 435 429 434
f 408 402 435
f 386 430 253
f 385 431 386
f 384 432 385
f 383 433 384
f 382 434 383
f 381 435 382
f 281 408 381
f 388 415 417
f 417 416 419
f 390 417 420
f 419 418 422
f 420 419 423
f 393 420 424
f 422 421 426
f 423 422 427
f 424 423 428
f 397 424 429
f 426 425 431
f 427 426 432
f 428 427 433
f 429 428 434
f 402 429 435
f 431 430 386
f 432 431 385
f 433 432 384
f 434 433 383
f 435 434 382
f 408 435 381
f 415 387 436
f 438 436 437
f 416 415 438
f 440 437 439
f 441 438 440
f 418 416 441
f 443 439 442
f 444 440 443
f 445 441 444
f 421 418 445
f 447 442 446
f 448 443 447
f 449 444 448
f 450 445 449
f 425 421 450
f 452 446 451
f 453 447 452
f 454 448 453
f 455 449 454
f 456 450 455
f 430 425 456
f 365 451 225
f 364 452 365
f 363 453 364
f 362 454 363
f 361 455 362
f 360 456 361
f 253 430 360
f 415 436 438
f 438 437 440
f 416 438 441
f 440 439 443
f 441 440 444
f 418 441 445
f 443 442 447
f 444 443 448
f 445 444 449
f 421 445 450
f 447 446 452
f 448 447 453
f 449 448 454
f 450 449 455
f 425 450 456
f 452 451 365
f 453 452 364
f 454 453 363
f 455 454 362
f 456 455 361
f 430 456 360
f 436 387 457
f 459 457 458
f 437 436 459
f 461 458 460
f 462 459 461
f 439 437 462
f 464 460 463
f 465 461 464
f 466 462 465
f 442 439 466
f 468 463 467
f 469 464 468
f 470 465 469
f 471 466 470
f 446 442 471
f 473 467 472
f 474 468 473
f 475 469 474
f 476 470 475
f 477 471 476
f 451 446 477
f 344 472 197
f 343 473 344
f 342 474 343
f 341 475 342
f 340 476 341
f 339 477 340
f 225 451 339
f 436 457 459
f 459 458 461
f 437 459 462
f 461 460 464
f 462 461 465
f 439 462 466
f 464 463 468
f 465 464 469
f 466 465 470
f 442 466 471
f 468 467 473
f 469 468 474
f 470 469 475
f 471 470 476
f 446 471 477
f 473 472 344
f 474 473 343
f 475 474 342
f 476 475 341
f 477 476 340
f 451 477 339
f 457 387 389
f 478 389 392
f 458 457 478
f 479 392 396
f 480 478 479
f 460 458 480
f 481 396 401
f 482 479 481
f 483 480 482
f 463 460 483
f 484 401 407
f 485 481 484
f 486 482 485
f 487 483 486
f 467 463 487
f 488 407 414
f 489 484 488
f 490 485 489
f 491 486 490
f 492 487 491
f 472 467 492
f 323 414 169
f 322 488 323
f 321 489 322
f 320 490 321
f 319 491 320
f 318 492 319
f 197 472 318
f 457 389 478
f 478 392 479
f 458 478 480
f 479 396 481
f 480 479 482
f 460 480 483
f 481 401 484
f 482 481 485
f 483 482 486
f 463 483 487
f 484 407 488
f 485 484 489
f 486 485 490
f 487 486 491
f 467 487 492
f 488 414 323
f 489 488 322
f 490 489 321
f 491 490 320
f 492 491 319
f 472 492 318
