# File exported by Houdini 20.5.445 (www.sidefx.com)
# 492 points
# 2940 vertices
# 980 primitives
# Bounds: [-221.047012, -70.5268402, -1077.10132] to [391.820953, 186.903946, -677.699707]
g 
v 85.3869934 58.1885567 -1077.10132
v 85.3869934 78.5494995 -1074.60864
v 131.433472 64.4804688 -1074.60864
v 85.3869934 98.402298 -1067.19287
v 134.00592 86.3304291 -1069.73535
v 176.330566 70.6153107 -1067.19287
v 85.3869934 117.251236 -1055.03931
v 135.516846 106.604523 -1059.67969
v 179.389038 93.1998138 -1059.67969
v 218.957642 76.4399567 -1055.03931
v 85.3869934 134.625748 -1038.45093
v 136.014954 125.222809 -1044.9563
v 180.823792 113.429825 -1046.96997
v 221.340515 99.1523895 -1044.9563
v 258.250244 81.8089905 -1038.45093
v 85.3869934 150.092087 -1017.84235
v 135.516846 142.073853 -1025.81543
v 180.823792 131.662766 -1029.56226
v 222.057678 119.064117 -1029.56226
v 259.603149 104.160446 -1025.81543
v 293.227478 86.5883484 -1017.84247
v 85.3869934 163.264114 -993.727722
v 134.00592 156.962952 -1002.2995
v 179.389038 148.068634 -1007.29388
v 221.340515 136.881897 -1008.93414
v 259.603149 123.559982 -1007.29388
v 293.741821 108.157104 -1002.2995
v 323.016113 90.6587372 -993.727722
v 85.3869934 173.813034 -966.70929
v 131.433472 169.55603 -974.288269
v 176.330566 162.518845 -979.448425
v 218.957642 152.877167 -982.061218
v 258.250244 140.871674 -982.061218
v 293.227478 126.802109 -979.448425
v 323.015991 111.019714 -974.288269
v 346.872467 93.9185486 -966.709412
v 113.845215 41.7161865 -1074.60864
v 164.054077 47.439312 -1069.73535
v 141.593201 25.6549797 -1067.19287
v 210.371033 53.1000519 -1059.67969
v 193.613403 31.4107323 -1059.67969
v 167.938171 10.4058723 -1055.03931
v 252.63031 58.6542244 -1044.9563
v 239.80719 37.0882835 -1046.96997
v 220.038879 16.4713593 -1044.9563
v 192.222351 -3.65042686 -1038.45093
v 290.585144 64.0606842 -1025.81543
v 281.040894 42.7225609 -1029.56226
v 265.291016 22.3375607 -1029.56226
v 243.188416 2.71545792 -1025.81543
v 213.839478 -16.1629715 -1017.84247
v 323.789978 69.2660065 -1002.2995
v 317.699585 48.366169 -1007.29388
v 305.36438 28.1304207 -1008.93414
v 287.060608 8.71025848 -1007.29388
v 262.776306 -9.70357513 -1002.2995
v 232.249939 -26.8193398 -993.727722
v 351.474396 74.1863556 -974.288269
v 349.433868 54.05476 -979.448425
v 340.801514 34.0262489 -982.061218
v 325.793091 14.6009426 -982.061218
v 304.783142 -3.73622513 -979.448425
v 278.296326 -20.527462 -974.288269
v 246.993896 -35.3535843 -966.709412
v 56.9286804 41.7161865 -1074.60864
v 85.3869934 23.4033051 -1069.73535
v 29.1806946 25.6549797 -1067.19287
v 112.501404 6.62769508 -1059.67969
v 58.2724609 6.62769508 -1059.67969
v 2.83578491 10.4058723 -1055.03931
v 138.121033 -8.55792236 -1044.9563
v 85.3869934 -10.0933685 -1046.96997
v 32.6528931 -8.55792236 -1044.9563
v -21.4484253 -3.65042686 -1038.45093
v 162.076416 -22.0675812 -1025.81543
v 110.870911 -24.8441315 -1029.56226
v 59.9030457 -24.8441315 -1029.56226
v 8.69744873 -22.0675812 -1025.81543
v -43.0655212 -16.1629715 -1017.84247
v 184.109131 -33.7396126 -1002.2995
v 134.961975 -37.7621346 -1007.29388
v 85.3869934 -39.0817223 -1008.93414
v 35.8119202 -37.7621346 -1007.29388
v -13.3352661 -33.7396126 -1002.2995
v -61.4759216 -26.8193398 -993.727722
v 203.791504 -43.2917442 -974.288269
v 157.633118 -48.6965904 -979.448425
v 109.671143 -51.4331474 -982.061218
v 61.1028137 -51.4331474 -982.061218
v 13.1407776 -48.6965904 -979.448425
v -33.0176392 -43.2917442 -974.288269
v -76.2200012 -35.3535843 -966.709412
v 39.3404541 64.4804688 -1074.60864
v 6.71984863 47.439312 -1069.73535
v -5.55670166 70.6153107 -1067.19287
v -22.839447 31.4107323 -1059.67969
v -39.5971375 53.1000519 -1059.67969
v -48.1837158 76.4399567 -1055.03931
v -49.2649231 16.4713593 -1044.9563
v -69.0331421 37.0882835 -1046.96997
v -81.8563538 58.6542244 -1044.9563
v -87.4763489 81.8089905 -1038.45093
v -72.4145203 2.71545792 -1025.81543
v -94.5171204 22.3375607 -1029.56226
v -110.267029 42.7225609 -1029.56226
v -119.811218 64.0606842 -1025.81543
v -122.453552 86.5883484 -1017.84247
v -92.0024109 -9.70357513 -1002.2995
v -116.286682 8.71025848 -1007.29388
v -134.590485 28.1304207 -1008.93414
v -146.92572 48.366169 -1007.29388
v -153.016113 69.2660065 -1002.2995
v -152.242218 90.6587372 -993.727722
v -107.522461 -20.527462 -974.288269
v -134.009277 -3.73622513 -979.448425
v -155.019196 14.6009426 -982.061218
v -170.027603 34.0262489 -982.061218
v -178.659866 54.05476 -979.448425
v -180.700485 74.1863556 -974.288269
v -176.098587 93.9185486 -966.709412
v 36.7680054 86.3304291 -1069.73535
v -8.61514282 93.1998138 -1059.67969
v 35.2570496 106.604523 -1059.67969
v -50.5665588 99.1523895 -1044.9563
v -10.0499268 113.429825 -1046.96997
v 34.7590027 125.222809 -1044.9563
v -88.8291931 104.160446 -1025.81543
v -51.2837524 119.064117 -1029.56226
v -10.0499268 131.662766 -1029.56226
v 35.2569885 142.073853 -1025.81543
v -122.967896 108.157104 -1002.2995
v -88.8291931 123.559982 -1007.29388
v -50.5665588 136.881897 -1008.93414
v -8.61514282 148.068634 -1007.29388
v 36.7680054 156.962952 -1002.2995
v -152.242157 111.019714 -974.288269
v -122.453552 126.802109 -979.448425
v -87.4763489 140.871674 -982.061218
v -48.1837158 152.877167 -982.061218
v -5.55670166 162.518845 -979.448425
v 39.3404541 169.55603 -974.288269
v 56.9286804 179.736496 -942.834412
v 6.71984863 174.35556 -948.562805
v 29.1806946 182.625702 -917.325867
v -39.5971375 166.001785 -951.887146
v -22.839447 175.701553 -921.918762
v 2.83578491 182.408478 -890.820618
v -81.8563232 154.993195 -952.97699
v -69.0330811 165.80368 -924.079529
v -49.2648621 173.857925 -894.6922
v -21.4484253 179.090225 -863.980408
v -119.811157 141.493118 -951.887146
v -110.266907 153.205063 -924.079529
v -94.5170288 162.321487 -895.913147
v -72.4144592 168.927505 -867.125427
v -43.0655212 172.75383 -837.475098
v -153.016052 125.549744 -948.562805
v -146.925659 137.788147 -921.918762
v -134.590363 147.787476 -894.6922
v -116.286621 155.522781 -867.125427
v -92.0023499 160.865921 -839.449219
v -61.4759216 163.557434 -811.966614
v -180.700439 107.131119 -942.834412
v -178.65976 119.121948 -917.325867
v -170.027512 129.591675 -890.820618
v -155.019043 138.278915 -863.980408
v -134.009186 144.966827 -837.475098
v -107.52243 149.488358 -811.966614
v -76.2200012 151.730713 -788.091614
v -198.288651 84.3668518 -942.834412
v -201.635056 62.6225929 -948.562805
v -213.397202 74.1616058 -917.325867
v -197.055695 41.5162697 -951.887146
v -213.813324 51.2160225 -921.918762
v -221.047012 63.5575829 -890.820618
v -185.218445 21.2124786 -952.97699
v -205.703873 29.6818924 -924.079529
v -217.809845 40.0772171 -894.6922
v -221.047012 52.8195114 -863.980408
v -166.416656 1.86039162 -951.887146
v -189.953918 9.2968483 -924.079529
v -205.703873 18.4132977 -895.913147
v -213.813293 29.2947807 -867.125427
v -213.397202 42.2155151 -837.475098
v -140.621368 -16.3469887 -948.562805
v -166.416626 -10.1292076 -921.918762
v -185.218369 -2.10564232 -894.6922
v -197.055603 7.60542679 -867.125427
v -201.63501 18.9692345 -839.449219
v -198.288651 32.0102615 -811.966614
v -107.52243 -33.111248 -942.834412
v -134.009186 -28.5897179 -917.325867
v -155.019043 -21.9018364 -890.820618
v -170.027512 -13.2145844 -863.980408
v -178.65976 -2.74484444 -837.475098
v -180.700439 9.24597931 -811.966614
v -176.098587 22.4585648 -788.091614
v -61.4759216 -47.1803246 -942.834412
v -13.3352356 -55.2381096 -948.562805
v -43.0655212 -56.3766747 -917.325867
v 35.8119202 -59.9287529 -951.887146
v 8.69747925 -63.633709 -921.918762
v -21.4484253 -62.7130928 -890.820618
v 85.3869934 -61.4685478 -952.97699
v 59.9030457 -67.0446777 -924.079529
v 32.6528931 -68.6742249 -894.6922
v 2.83578491 -66.0313416 -863.980408
v 134.961975 -59.9287529 -951.887146
v 110.870911 -67.0446777 -924.079529
v 85.3869934 -70.5268402 -895.913147
v 58.2724609 -70.4076996 -867.125427
v 29.1806946 -66.2485962 -837.475098
v 184.109131 -55.2381096 -948.562805
v 162.076416 -63.633709 -921.918762
v 138.121033 -68.6742249 -894.6922
v 112.501404 -70.4076996 -867.125427
v 85.3869934 -68.7276764 -839.449219
v 56.9286804 -63.359417 -811.966614
v 232.249939 -47.1803246 -942.834412
v 213.839478 -56.3766747 -917.325867
v 192.222351 -62.7130928 -890.820618
v 167.938171 -66.0313416 -863.980408
v 141.593201 -66.2485962 -837.475098
v 113.845337 -63.359417 -811.966614
v 85.3869934 -57.4359016 -788.091675
v 278.296326 -33.111248 -942.834412
v 311.395325 -16.3469887 -948.562805
v 304.783081 -28.5897179 -917.325867
v 337.190552 1.86039162 -951.887146
v 337.190552 -10.1292076 -921.918762
v 325.79303 -21.9018364 -890.820618
v 355.99234 21.2124786 -952.97699
v 360.727814 9.2968483 -924.079529
v 355.99234 -2.10564232 -894.6922
v 340.801392 -13.2145844 -863.980408
v 367.829742 41.5162697 -951.887146
v 376.477692 29.6818924 -924.079529
v 376.477692 18.4132977 -895.913147
v 367.829498 7.60542679 -867.125427
v 349.433746 -2.74484444 -837.475098
v 372.408966 62.6225929 -948.562805
v 384.587311 51.2160225 -921.918762
v 388.583771 40.0772171 -894.6922
v 384.587311 29.2947807 -867.125427
v 372.408966 18.9692345 -839.449219
v 351.474396 9.24597931 -811.966614
v 369.062531 84.3668518 -942.834412
v 384.171173 74.1616058 -917.325867
v 391.820953 63.5575829 -890.820618
v 391.820953 52.8195114 -863.980408
v 384.171173 42.2155151 -837.475098
v 369.062531 32.0102615 -811.966614
v 346.872467 22.4585648 -788.091614
v 351.474396 107.131119 -942.834412
v 323.789978 125.549744 -948.562805
v 349.433746 119.121948 -917.325867
v 290.585144 141.493118 -951.887146
v 317.699585 137.788147 -921.918762
v 340.801392 129.591675 -890.820618
v 252.630249 154.993195 -952.97699
v 281.040833 153.205063 -924.079529
v 305.364258 147.787476 -894.6922
v 325.79303 138.278915 -863.980408
v 210.371033 166.001785 -951.887146
v 239.807007 165.80368 -924.079529
v 265.291016 162.321487 -895.913147
v 287.060547 155.522781 -867.125427
v 304.783081 144.966827 -837.475098
v 164.054138 174.35556 -948.562805
v 193.613403 175.701553 -921.918762
v 220.038757 173.857925 -894.6922
v 243.188416 168.927505 -867.125427
v 262.776245 160.865921 -839.449219
v 278.296326 149.488358 -811.966614
v 113.845337 179.736496 -942.834412
v 141.593201 182.625702 -917.325867
v 167.938171 182.408478 -890.820618
v 192.222351 179.090225 -863.980408
v 213.839478 172.75383 -837.475098
v 232.249939 163.557434 -811.966614
v 246.993896 151.730713 -788.091614
v 85.3869934 185.104782 -915.351868
v 58.2724609 186.784851 -887.675598
v 112.501404 186.784851 -887.675598
v 32.6528931 185.051315 -860.108826
v 85.3869934 186.903946 -858.887756
v 138.121033 185.051315 -860.108826
v 8.69747925 180.010818 -832.882263
v 59.9030457 183.421783 -830.721436
v 110.870911 183.421783 -830.721436
v 162.076416 180.010818 -832.882263
v -13.3352356 171.615189 -806.238098
v 35.8119202 176.305862 -802.913696
v 85.3869934 177.845657 -801.823975
v 134.961975 176.305862 -802.913696
v 184.109131 171.615189 -806.238098
v -33.0176392 159.668854 -780.512817
v 13.1407776 165.073685 -775.3526
v 61.1028137 167.810272 -772.739746
v 109.671143 167.810272 -772.739746
v 157.633118 165.073685 -775.3526
v 203.791504 159.668854 -780.512817
v -201.63501 97.4078827 -915.351868
v -213.813293 87.0823364 -887.675598
v -197.055603 108.771683 -887.675598
v -217.809845 76.2998962 -860.108826
v -205.703873 97.9638214 -858.887756
v -185.218369 118.482758 -860.108826
v -213.813324 65.161087 -832.882263
v -205.703873 86.6952362 -830.721436
v -189.953918 107.080261 -830.721436
v -166.416626 126.506302 -832.882263
v -201.635056 53.7545242 -806.238098
v -197.055695 74.8608246 -802.913696
v -185.218445 95.1646118 -801.823975
v -166.416656 114.516739 -802.913696
v -140.621368 132.724091 -806.238098
v -180.700485 42.1907539 -780.512817
v -178.659866 62.3223534 -775.3526
v -170.027603 82.3508453 -772.739746
v -155.019196 101.776169 -772.739746
v -134.009277 120.113342 -775.3526
v -107.522461 136.904572 -780.512817
v -92.0023499 -44.4888573 -915.351868
v -72.4144592 -52.550396 -887.675598
v -116.286621 -39.1456451 -887.675598
v -49.2648621 -57.4808388 -860.108826
v -94.5170288 -45.9444084 -858.887756
v -134.590363 -31.4103737 -860.108826
v -22.839447 -59.3244362 -832.882263
v -69.0330811 -49.4266167 -830.721436
v -110.266907 -36.8279572 -830.721436
v -146.925629 -21.4110107 -832.882263
v 6.71984863 -57.9784279 -806.238098
v -39.5971069 -49.6246758 -802.913696
v -81.8563232 -38.6160927 -801.823975
v -119.811157 -25.1160469 -802.913696
v -153.016052 -9.17263794 -806.238098
v 39.3404541 -53.1789207 -780.512817
v -5.55670166 -46.1417503 -775.3526
v -48.1837158 -36.5000267 -772.739807
v -87.4763489 -24.4945641 -772.739807
v -122.453552 -10.4250145 -775.3526
v -152.242157 5.35739899 -780.512817
v 262.776306 -44.4888573 -915.351868
v 287.060547 -39.1456451 -887.675598
v 243.188416 -52.550396 -887.675598
v 305.364258 -31.4103737 -860.108826
v 265.291016 -45.9444084 -858.887756
v 220.038757 -57.4808388 -860.108826
v 317.699585 -21.4110107 -832.882263
v 281.040833 -36.8279572 -830.721436
v 239.807007 -49.4266167 -830.721436
v 193.613403 -59.3244362 -832.882263
v 323.789978 -9.17263794 -806.238098
v 290.585144 -25.1160469 -802.913696
v 252.630249 -38.6160927 -801.823975
v 210.371033 -49.6246758 -802.913696
v 164.054138 -57.978466 -806.238098
v 323.015991 5.35739899 -780.512817
v 293.227478 -10.4250145 -775.3526
v 258.250244 -24.4945641 -772.739807
v 218.957642 -36.5000267 -772.739807
v 176.330566 -46.1417503 -775.3526
v 131.433472 -53.1789207 -780.512817
v 372.408966 97.4078827 -915.351868
v 367.829498 108.771683 -887.675598
v 384.587311 87.0823364 -887.675598
v 355.99234 118.482758 -860.108826
v 376.477692 97.9638214 -858.887756
v 388.583771 76.2998962 -860.108826
v 337.190552 126.506302 -832.882263
v 360.727814 107.080261 -830.721436
v 376.477692 86.6952362 -830.721436
v 384.587311 65.161087 -832.882263
v 311.395325 132.72406 -806.238098
v 337.190552 114.516739 -802.913696
v 355.99234 95.1646118 -801.823975
v 367.829742 74.8608246 -802.913696
v 372.408966 53.7545242 -806.238098
v 278.296326 136.904572 -780.512817
v 304.783142 120.113342 -775.3526
v 325.793091 101.776169 -772.739746
v 340.801514 82.3508453 -772.739746
v 349.433868 62.3223534 -775.3526
v 351.474396 42.1907539 -780.512817
v 85.3869934 58.1885567 -677.699707
v 113.845215 74.6609344 -680.192322
v 56.9286804 74.6609344 -680.192322
v 141.593201 90.7221375 -687.608032
v 85.3869934 92.9738007 -685.06543
v 29.1806946 90.7221375 -687.608032
v 167.938171 105.971252 -699.761658
v 112.501404 109.74942 -695.121277
v 58.2724609 109.74942 -695.121277
v 2.83578491 105.971252 -699.761658
v 192.222351 120.027542 -716.349915
v 138.121033 124.935028 -709.844788
v 85.3869934 126.47049 -707.830994
v 32.6528931 124.935028 -709.844788
v -21.4484253 120.027542 -716.349915
v 213.839478 132.54007 -736.958618
v 162.076416 138.444672 -728.985474
v 110.870911 141.221237 -725.23877
v 59.9030457 141.221237 -725.23877
v 8.69744873 138.444702 -728.985474
v -43.0655212 132.54007 -736.958618
v 232.249939 143.196472 -761.073181
v 184.109131 150.116699 -752.501526
v 134.961975 154.139236 -747.507019
v 85.3869934 155.458832 -745.866821
v 35.8119202 154.139236 -747.507019
v -13.3352661 150.116699 -752.501526
v -61.4759216 143.196472 -761.073181
v 131.433472 51.8966408 -680.192322
v 176.330566 45.7618103 -687.608032
v 164.054077 68.9377747 -685.06543
v 218.957642 39.937149 -699.761658
v 210.371033 63.2770653 -695.121277
v 193.613403 84.9664001 -695.121277
v 258.250244 34.5681038 -716.349915
v 252.63031 57.7228889 -709.844788
v 239.80719 79.2888336 -707.830994
v 220.038879 99.9057465 -709.844788
v 293.227478 29.7887726 -736.958618
v 290.585144 52.3164253 -728.985474
v 281.040894 73.6545563 -725.23877
v 265.291016 94.039566 -725.23877
v 243.188416 113.661652 -728.985474
v 323.016113 25.7183495 -761.073181
v 323.789978 47.1111069 -752.501526
v 317.699585 68.0109558 -747.507019
v 305.36438 88.2466888 -745.866821
v 287.060608 107.666855 -747.507019
v 262.776306 126.080673 -752.501526
v 85.3869934 37.8276062 -680.192322
v 85.3869934 17.9748096 -687.608032
v 134.00592 30.0466881 -685.06543
v 85.3869934 -0.87415123 -699.761658
v 135.516846 9.77256393 -695.121277
v 179.389038 23.1772766 -695.121277
v 85.3869934 -18.2486572 -716.349915
v 136.014954 -8.84569931 -709.844788
v 180.823792 2.94730186 -707.830994
v 221.340515 17.2247257 -709.844788
v 85.3869934 -33.7149696 -736.958679
v 135.516846 -25.6967468 -728.985474
v 180.823792 -15.2856331 -725.23877
v 222.057678 -2.68701363 -725.23877
v 259.603149 12.2166386 -728.985474
v 85.3869934 -46.8870049 -761.073181
v 134.00592 -40.5858421 -752.501526
v 179.389038 -31.6915474 -747.507019
v 221.340515 -20.5047951 -745.866821
v 259.603149 -7.18287659 -747.507019
v 293.741821 8.21998787 -752.501526
v 39.3404541 51.8966408 -680.192322
v -5.55670166 45.7618103 -687.608032
v 36.7680054 30.0466881 -685.06543
v -48.1837158 39.937149 -699.761658
v -8.61514282 23.1772766 -695.121277
v 35.2570496 9.77256393 -695.121277
v -87.4763489 34.5681038 -716.349915
v -50.5665588 17.2247257 -709.844788
v -10.0499268 2.94730186 -707.830994
v 34.7590027 -8.84569931 -709.844788
v -122.453552 29.7887726 -736.958618
v -88.8291931 12.2166386 -728.985474
v -51.2837524 -2.68701363 -725.23877
v -10.0499268 -15.2856331 -725.23877
v 35.2569885 -25.6967468 -728.985474
v -152.242218 25.7183495 -761.073181
v -122.967896 8.21998787 -752.501526
v -88.8291931 -7.18287659 -747.507019
v -50.5665588 -20.5047951 -745.866821
v -8.61514282 -31.6915474 -747.507019
v 36.7680054 -40.5858421 -752.501526
v 6.71984863 68.9377747 -685.06543
v -22.839447 84.9664001 -695.121277
v -39.5971375 63.2770653 -695.121277
v -49.2649231 99.9057465 -709.844788
v -69.0331421 79.2888336 -707.830994
v -81.8563538 57.7228889 -709.844788
v -72.4145203 113.661652 -728.985474
v -94.5171204 94.039566 -725.23877
v -110.267029 73.6545563 -725.23877
v -119.811218 52.3164253 -728.985474
v -92.0024109 126.080673 -752.501465
v -116.286682 107.666855 -747.507019
v -134.590485 88.2466888 -745.866821
v -146.92572 68.0109558 -747.507019
v -153.016113 47.1111069 -752.501526
g 
f 3 1 2
f 5 2 4
f 6 3 5
f 8 4 7
f 9 5 8
f 10 6 9
f 12 7 11
f 13 8 12
f 14 9 13
f 15 10 14
f 17 11 16
f 18 12 17
f 19 13 18
f 20 14 19
f 21 15 20
f 23 16 22
f 24 17 23
f 25 18 24
f 26 19 25
f 27 20 26
f 28 21 27
f 30 22 29
f 31 23 30
f 32 24 31
f 33 25 32
f 34 26 33
f 35 27 34
f 36 28 35
f 3 2 5
f 5 4 8
f 6 5 9
f 8 7 12
f 9 8 13
f 10 9 14
f 12 11 17
f 13 12 18
f 14 13 19
f 15 14 20
f 17 16 23
f 18 17 24
f 19 18 25
f 20 19 26
f 21 20 27
f 23 22 30
f 24 23 31
f 25 24 32
f 26 25 33
f 27 26 34
f 28 27 35
f 37 1 3
f 38 3 6
f 39 37 38
f 40 6 10
f 41 38 40
f 42 39 41
f 43 10 15
f 44 40 43
f 45 41 44
f 46 42 45
f 47 15 21
f 48 43 47
f 49 44 48
f 50 45 49
f 51 46 50
f 52 21 28
f 53 47 52
f 54 48 53
f 55 49 54
f 56 50 55
f 57 51 56
f 58 28 36
f 59 52 58
f 60 53 59
f 61 54 60
f 62 55 61
f 63 56 62
f 64 57 63
f 37 3 38
f 38 6 40
f 39 38 41
f 40 10 43
f 41 40 44
f 42 41 45
f 43 15 47
f 44 43 48
f 45 44 49
f 46 45 50
f 47 21 52
f 48 47 53
f 49 48 54
f 50 49 55
f 51 50 56
f 52 28 58
f 53 52 59
f 54 53 60
f 55 54 61
f 56 55 62
f 57 56 63
f 65 1 37
f 66 37 39
f 67 65 66
f 68 39 42
f 69 66 68
f 70 67 69
f 71 42 46
f 72 68 71
f 73 69 72
f 74 70 73
f 75 46 51
f 76 71 75
f 77 72 76
f 78 73 77
f 79 74 78
f 80 51 57
f 81 75 80
f 82 76 81
f 83 77 82
f 84 78 83
f 85 79 84
f 86 57 64
f 87 80 86
f 88 81 87
f 89 82 88
f 90 83 89
f 91 84 90
f 92 85 91
f 65 37 66
f 66 39 68
f 67 66 69
f 68 42 71
f 69 68 72
f 70 69 73
f 71 46 75
f 72 71 76
f 73 72 77
f 74 73 78
f 75 51 80
f 76 75 81
f 77 76 82
f 78 77 83
f 79 78 84
f 80 57 86
f 81 80 87
f 82 81 88
f 83 82 89
f 84 83 90
f 85 84 91
f 93 1 65
f 94 65 67
f 95 93 94
f 96 67 70
f 97 94 96
f 98 95 97
f 99 70 74
f 100 96 99
f 101 97 100
f 102 98 101
f 103 74 79
f 104 99 103
f 105 100 104
f 106 101 105
f 107 102 106
f 108 79 85
f 109 103 108
f 110 104 109
f 111 105 110
f 112 106 111
f 113 107 112
f 114 85 92
f 115 108 114
f 116 109 115
f 117 110 116
f 118 111 117
f 119 112 118
f 120 113 119
f 93 65 94
f 94 67 96
f 95 94 97
f 96 70 99
f 97 96 100
f 98 97 101
f 99 74 103
f 100 99 104
f 101 100 105
f 102 101 106
f 103 79 108
f 104 103 109
f 105 104 110
f 106 105 111
f 107 106 112
f 108 85 114
f 109 108 115
f 110 109 116
f 111 110 117
f 112 111 118
f 113 112 119
f 2 1 93
f 121 93 95
f 4 2 121
f 122 95 98
f 123 121 122
f 7 4 123
f 124 98 102
f 125 122 124
f 126 123 125
f 11 7 126
f 127 102 107
f 128 124 127
f 129 125 128
f 130 126 129
f 16 11 130
f 131 107 113
f 132 127 131
f 133 128 132
f 134 129 133
f 135 130 134
f 22 16 135
f 136 113 120
f 137 131 136
f 138 132 137
f 139 133 138
f 140 134 139
f 141 135 140
f 29 22 141
f 2 93 121
f 121 95 122
f 4 121 123
f 122 98 124
f 123 122 125
f 7 123 126
f 124 102 127
f 125 124 128
f 126 125 129
f 11 126 130
f 127 107 131
f 128 127 132
f 129 128 133
f 130 129 134
f 16 130 135
f 131 113 136
f 132 131 137
f 133 132 138
f 134 133 139
f 135 134 140
f 22 135 141
f 142 29 141
f 143 141 140
f 144 142 143
f 145 140 139
f 146 143 145
f 147 144 146
f 148 139 138
f 149 145 148
f 150 146 149
f 151 147 150
f 152 138 137
f 153 148 152
f 154 149 153
f 155 150 154
f 156 151 155
f 157 137 136
f 158 152 157
f 159 153 158
f 160 154 159
f 161 155 160
f 162 156 161
f 163 136 120
f 164 157 163
f 165 158 164
f 166 159 165
f 167 160 166
f 168 161 167
f 169 162 168
f 142 141 143
f 143 140 145
f 144 143 146
f 145 139 148
f 146 145 149
f 147 146 150
f 148 138 152
f 149 148 153
f 150 149 154
f 151 150 155
f 152 137 157
f 153 152 158
f 154 153 159
f 155 154 160
f 156 155 161
f 157 136 163
f 158 157 164
f 159 158 165
f 160 159 166
f 161 160 167
f 162 161 168
f 170 120 119
f 171 119 118
f 172 170 171
f 173 118 117
f 174 171 173
f 175 172 174
f 176 117 116
f 177 173 176
f 178 174 177
f 179 175 178
f 180 116 115
f 181 176 180
f 182 177 181
f 183 178 182
f 184 179 183
f 185 115 114
f 186 180 185
f 187 181 186
f 188 182 187
f 189 183 188
f 190 184 189
f 191 114 92
f 192 185 191
f 193 186 192
f 194 187 193
f 195 188 194
f 196 189 195
f 197 190 196
f 170 119 171
f 171 118 173
f 172 171 174
f 173 117 176
f 174 173 177
f 175 174 178
f 176 116 180
f 177 176 181
f 178 177 182
f 179 178 183
f 180 115 185
f 181 180 186
f 182 181 187
f 183 182 188
f 184 183 189
f 185 114 191
f 186 185 192
f 187 186 193
f 188 187 194
f 189 188 195
f 190 189 196
f 198 92 91
f 199 91 90
f 200 198 199
f 201 90 89
f 202 199 201
f 203 200 202
f 204 89 88
f 205 201 204
f 206 202 205
f 207 203 206
f 208 88 87
f 209 204 208
f 210 205 209
f 211 206 210
f 212 207 211
f 213 87 86
f 214 208 213
f 215 209 214
f 216 210 215
f 217 211 216
f 218 212 217
f 219 86 64
f 220 213 219
f 221 214 220
f 222 215 221
f 223 216 222
f 224 217 223
f 225 218 224
f 198 91 199
f 199 90 201
f 200 199 202
f 201 89 204
f 202 201 205
f 203 202 206
f 204 88 208
f 205 204 209
f 206 205 210
f 207 206 211
f 208 87 213
f 209 208 214
f 210 209 215
f 211 210 216
f 212 211 217
f 213 86 219
f 214 213 220
f 215 214 221
f 216 215 222
f 217 216 223
f 218 217 224
f 226 64 63
f 227 63 62
f 228 226 227
f 229 62 61
f 230 227 229
f 231 228 230
f 232 61 60
f 233 229 232
f 234 230 233
f 235 231 234
f 236 60 59
f 237 232 236
f 238 233 237
f 239 234 238
f 240 235 239
f 241 59 58
f 242 236 241
f 243 237 242
f 244 238 243
f 245 239 244
f 246 240 245
f 247 58 36
f 248 241 247
f 249 242 248
f 250 243 249
f 251 244 250
f 252 245 251
f 253 246 252
f 226 63 227
f 227 62 229
f 228 227 230
f 229 61 232
f 230 229 233
f 231 230 234
f 232 60 236
f 233 232 237
f 234 233 238
f 235 234 239
f 236 59 241
f 237 236 242
f 238 237 243
f 239 238 244
f 240 239 245
f 241 58 247
f 242 241 248
f 243 242 249
f 244 243 250
f 245 244 251
f 246 245 252
f 254 36 35
f 255 35 34
f 256 254 255
f 257 34 33
f 258 255 257
f 259 256 258
f 260 33 32
f 261 257 260
f 262 258 261
f 263 259 262
f 264 32 31
f 265 260 264
f 266 261 265
f 267 262 266
f 268 263 267
f 269 31 30
f 270 264 269
f 271 265 270
f 272 266 271
f 273 267 272
f 274 268 273
f 275 30 29
f 276 269 275
f 277 270 276
f 278 271 277
f 279 272 278
f 280 273 279
f 281 274 280
f 254 35 255
f 255 34 257
f 256 255 258
f 257 33 260
f 258 257 261
f 259 258 262
f 260 32 264
f 261 260 265
f 262 261 266
f 263 262 267
f 264 31 269
f 265 264 270
f 266 265 271
f 267 266 272
f 268 267 273
f 269 30 275
f 270 269 276
f 271 270 277
f 272 271 278
f 273 272 279
f 274 273 280
f 275 29 142
f 282 142 144
f 276 275 282
f 283 144 147
f 284 282 283
f 277 276 284
f 285 147 151
f 286 283 285
f 287 284 286
f 278 277 287
f 288 151 156
f 289 285 288
f 290 286 289
f 291 287 290
f 279 278 291
f 292 156 162
f 293 288 292
f 294 289 293
f 295 290 294
f 296 291 295
f 280 279 296
f 297 162 169
f 298 292 297
f 299 293 298
f 300 294 299
f 301 295 300
f 302 296 301
f 281 280 302
f 275 142 282
f 282 144 283
f 276 282 284
f 283 147 285
f 284 283 286
f 277 284 287
f 285 151 288
f 286 285 289
f 287 286 290
f 278 287 291
f 288 156 292
f 289 288 293
f 290 289 294
f 291 290 295
f 279 291 296
f 292 162 297
f 293 292 298
f 294 293 299
f 295 294 300
f 296 295 301
f 280 296 302
f 163 120 170
f 303 170 172
f 164 163 303
f 304 172 175
f 305 303 304
f 165 164 305
f 306 175 179
f 307 304 306
f 308 305 307
f 166 165 308
f 309 179 184
f 310 306 309
f 311 307 310
f 312 308 311
f 167 166 312
f 313 184 190
f 314 309 313
f 315 310 314
f 316 311 315
f 317 312 316
f 168 167 317
f 318 190 197
f 319 313 318
f 320 314 319
f 321 315 320
f 322 316 321
f 323 317 322
f 169 168 323
f 163 170 303
f 303 172 304
f 164 303 305
f 304 175 306
f 305 304 307
f 165 305 308
f 306 179 309
f 307 306 310
f 308 307 311
f 166 308 312
f 309 184 313
f 310 309 314
f 311 310 315
f 312 311 316
f 167 312 317
f 313 190 318
f 314 313 319
f 315 314 320
f 316 315 321
f 317 316 322
f 168 317 323
f 191 92 198
f 324 198 200
f 192 191 324
f 325 200 203
f 326 324 325
f 193 192 326
f 327 203 207
f 328 325 327
f 329 326 328
f 194 193 329
f 330 207 212
f 331 327 330
f 332 328 331
f 333 329 332
f 195 194 333
f 334 212 218
f 335 330 334
f 336 331 335
f 337 332 336
f 338 333 337
f 196 195 338
f 339 218 225
f 340 334 339
f 341 335 340
f 342 336 341
f 343 337 342
f 344 338 343
f 197 196 344
f 191 198 324
f 324 200 325
f 192 324 326
f 325 203 327
f 326 325 328
f 193 326 329
f 327 207 330
f 328 327 331
f 329 328 332
f 194 329 333
f 330 212 334
f 331 330 335
f 332 331 336
f 333 332 337
f 195 333 338
f 334 218 339
f 335 334 340
f 336 335 341
f 337 336 342
f 338 337 343
f 196 338 344
f 219 64 226
f 345 226 228
f 220 219 345
f 346 228 231
f 347 345 346
f 221 220 347
f 348 231 235
f 349 346 348
f 350 347 349
f 222 221 350
f 351 235 240
f 352 348 351
f 353 349 352
f 354 350 353
f 223 222 354
f 355 240 246
f 356 351 355
f 357 352 356
f 358 353 357
f 359 354 358
f 224 223 359
f 360 246 253
f 361 355 360
f 362 356 361
f 363 357 362
f 364 358 363
f 365 359 364
f 225 224 365
f 219 226 345
f 345 228 346
f 220 345 347
f 346 231 348
f 347 346 349
f 221 347 350
f 348 235 351
f 349 348 352
f 350 349 353
f 222 350 354
f 351 240 355
f 352 351 356
f 353 352 357
f 354 353 358
f 223 354 359
f 355 246 360
f 356 355 361
f 357 356 362
f 358 357 363
f 359 358 364
f 224 359 365
f 247 36 254
f 366 254 256
f 248 247 366
f 367 256 259
f 368 366 367
f 249 248 368
f 369 259 263
f 370 367 369
f 371 368 370
f 250 249 371
f 372 263 268
f 373 369 372
f 374 370 373
f 375 371 374
f 251 250 375
f 376 268 274
f 377 372 376
f 378 373 377
f 379 374 378
f 380 375 379
f 252 251 380
f 381 274 281
f 382 376 381
f 383 377 382
f 384 378 383
f 385 379 384
f 386 380 385
f 253 252 386
f 247 254 366
f 366 256 367
f 248 366 368
f 367 259 369
f 368 367 370
f 249 368 371
f 369 263 372
f 370 369 373
f 371 370 374
f 250 371 375
f 372 268 376
f 373 372 377
f 374 373 378
f 375 374 379
f 251 375 380
f 376 274 381
f 377 376 382
f 378 377 383
f 379 378 384
f 380 379 385
f 252 380 386
f 389 387 388
f 391 388 390
f 392 389 391
f 394 390 393
f 395 391 394
f 396 392 395
f 398 393 397
f 399 394 398
f 400 395 399
f 401 396 400
f 403 397 402
f 404 398 403
f 405 399 404
f 406 400 405
f 407 401 406
f 409 402 408
f 410 403 409
f 411 404 410
f 412 405 411
f 413 406 412
f 414 407 413
f 302 408 281
f 301 409 302
f 300 410 301
f 299 411 300
f 298 412 299
f 297 413 298
f 169 414 297
f 389 388 391
f 391 390 394
f 392 391 395
f 394 393 398
f 395 394 399
f 396 395 400
f 398 397 403
f 399 398 404
f 400 399 405
f 401 400 406
f 403 402 409
f 404 403 410
f 405 404 411
f 406 405 412
f 407 406 413
f 409 408 302
f 410 409 301
f 411 410 300
f 412 411 299
f 413 412 298
f 414 413 297
f 388 387 415
f 417 415 416
f 390 388 417
f 419 416 418
f 420 417 419
f 393 390 420
f 422 418 421
f 423 419 422
f 424 420 423
f 397 393 424
f 426 421 425
f 427 422 426
f 428 423 427
f 429 424 428
f 402 397 429
f 431 425 430
f 432 426 431
f 433 427 432
f 434 428 433
f 435 429 434
f 408 402 435
f 386 430 253
f 385 431 386
f 384 432 385
f 383 433 384
f 382 434 383
f 381 435 382
f 281 408 381
f 388 415 417
f 417 416 419
f 390 417 420
f 419 418 422
f 420 419 423
f 393 420 424
f 422 421 426
f 423 422 427
f 424 423 428
f 397 424 429
f 426 425 431
f 427 426 432
f 428 427 433
f 429 428 434
f 402 429 435
f 431 430 386
f 432 431 385
f 433 432 384
f 434 433 383
f 435 434 382
f 408 435 381
f 415 387 436
f 438 436 437
f 416 415 438
f 440 437 439
f 441 438 440
f 418 416 441
f 443 439 442
f 444 440 443
f 445 441 444
f 421 418 445
f 447 442 446
f 448 443 447
f 449 444 448
f 450 445 449
f 425 421 450
f 452 446 451
f 453 447 452
f 454 448 453
f 455 449 454
f 456 450 455
f 430 425 456
f 365 451 225
f 364 452 365
f 363 453 364
f 362 454 363
f 361 455 362
f 360 456 361
f 253 430 360
f 415 436 438
f 438 437 440
f 416 438 441
f 440 439 443
f 441 440 444
f 418 441 445
f 443 442 447
f 444 443 448
f 445 444 449
f 421 445 450
f 447 446 452
f 448 447 453
f 449 448 454
f 450 449 455
f 425 450 456
f 452 451 365
f 453 452 364
f 454 453 363
f 455 454 362
f 456 455 361
f 430 456 360
f 436 387 457
f 459 457 458
f 437 436 459
f 461 458 460
f 462 459 461
f 439 437 462
f 464 460 463
f 465 461 464
f 466 462 465
f 442 439 466
f 468 463 467
f 469 464 468
f 470 465 469
f 471 466 470
f 446 442 471
f 473 467 472
f 474 468 473
f 475 469 474
f 476 470 475
f 477 471 476
f 451 446 477
f 344 472 197
f 343 473 344
f 342 474 343
f 341 475 342
f 340 476 341
f 339 477 340
f 225 451 339
f 436 457 459
f 459 458 461
f 437 459 462
f 461 460 464
f 462 461 465
f 439 462 466
f 464 463 468
f 465 464 469
f 466 465 470
f 442 466 471
f 468 467 473
f 469 468 474
f 470 469 475
f 471 470 476
f 446 471 477
f 473 472 344
f 474 473 343
f 475 474 342
f 476 475 341
f 477 476 340
f 451 477 339
f 457 387 389
f 478 389 392
f 458 457 478
f 479 392 396
f 480 478 479
f 460 458 480
f 481 396 401
f 482 479 481
f 483 480 482
f 463 460 483
f 484 401 407
f 485 481 484
f 486 482 485
f 487 483 486
f 467 463 487
f 488 407 414
f 489 484 488
f 490 485 489
f 491 486 490
f 492 487 491
f 472 467 492
f 323 414 169
f 322 488 323
f 321 489 322
f 320 490 321
f 319 491 320
f 318 492 319
f 197 472 318
f 457 389 478
f 478 392 479
f 458 478 480
f 479 396 481
f 480 479 482
f 460 480 483
f 481 401 484
f 482 481 485
f 483 482 486
f 463 483 487
f 484 407 488
f 485 484 489
f 486 485 490
f 487 486 491
f 467 487 492
f 488 414 323
f 489 488 322
f 490 489 321
f 491 490 320
f 492 491 319
f 472 492 318
