# File exported by Houdini 20.5.445 (www.sidefx.com)
# 492 points
# 2940 vertices
# 980 primitives
# Bounds: [-229.339767, -56.4299393, -1095.75342] to [400.113708, 172.807037, -659.047607]
g 
v 85.3869934 58.188549 -1095.75342
v 85.3869934 76.3195953 -1093.02783
v 132.679596 63.7913704 -1093.02783
v 85.3869934 93.9981003 -1084.91943
v 135.321625 83.2483368 -1087.69971
v 178.791779 69.2543488 -1084.91943
v 85.3869934 110.782707 -1071.63062
v 136.873505 101.302055 -1076.70435
v 181.932953 89.3654099 -1076.70435
v 222.572418 74.4410706 -1071.63062
v 85.3869934 126.254372 -1053.49316
v 137.38504 117.881233 -1060.60571
v 183.406586 107.379814 -1062.80762
v 225.019745 94.6660385 -1060.60571
v 262.928314 79.2220917 -1053.49316
v 85.3869934 140.026825 -1030.95947
v 136.873566 132.886749 -1039.67749
v 183.406586 123.615868 -1043.77393
v 225.756317 112.397026 -1043.77393
v 264.31778 99.125618 -1039.67749
v 298.852081 83.4780121 -1030.95972
v 85.3869934 151.756256 -1004.59259
v 135.321625 146.145172 -1013.96503
v 181.932953 138.224976 -1019.42584
v 225.019745 128.263367 -1021.2193
v 264.31778 116.400505 -1019.42584
v 299.380402 102.684563 -1013.96503
v 329.446869 87.1026306 -1004.59259
v 85.3869934 161.149841 -975.05072
v 132.679596 157.35907 -983.337463
v 178.791779 151.09259 -988.979675
v 222.572418 142.506866 -991.836365
v 262.928314 131.816254 -991.836365
v 298.852081 119.28756 -988.979675
v 329.446808 105.233665 -983.337463
v 353.948914 90.0054092 -975.05072
v 114.615387 43.5202675 -1093.02783
v 166.183014 48.6165962 -1087.69971
v 143.114349 29.2180405 -1084.91943
v 213.753387 53.6573677 -1076.70435
v 196.542206 34.3434296 -1076.70435
v 170.172272 15.6390152 -1071.63062
v 257.156281 58.6032143 -1060.60571
v 243.986053 39.3992081 -1062.80762
v 223.682892 21.0402489 -1060.60571
v 195.113556 3.12215805 -1053.49316
v 296.138275 63.4175758 -1039.67749
v 286.335785 44.4164238 -1043.77393
v 270.159698 26.2639465 -1043.77393
v 247.458954 8.79088593 -1039.67749
v 217.315765 -8.01998138 -1030.95972
v 330.24173 68.0527954 -1013.96503
v 323.986542 49.4419136 -1019.42584
v 311.317596 31.4224091 -1021.2193
v 292.518463 14.1291389 -1019.42584
v 267.576874 -2.26801682 -1013.96503
v 236.224335 -17.5092659 -1004.59259
v 358.675354 72.4342957 -983.337463
v 356.579529 54.5074883 -988.979797
v 347.713684 36.6725273 -991.836365
v 332.298981 19.3746758 -991.836365
v 310.720551 3.04578972 -988.979797
v 283.516876 -11.9064751 -983.337463
v 251.367462 -25.1088448 -975.05072
v 56.1585388 43.5202675 -1093.02783
v 85.3869934 27.2129745 -1087.69971
v 27.659668 29.2180405 -1084.91943
v 113.235199 12.2746563 -1076.70435
v 57.5387268 12.2746563 -1076.70435
v 0.601806641 15.6390152 -1071.63062
v 139.548126 -1.24783325 -1060.60571
v 85.3869934 -2.61515617 -1062.80762
v 31.2258301 -1.24783325 -1060.60571
v -24.3395691 3.12215805 -1053.49316
v 164.151825 -13.2779198 -1039.67749
v 111.560577 -15.7503853 -1043.77393
v 59.2134094 -15.7503853 -1043.77393
v 6.62210083 -13.2779198 -1039.67749
v -46.5417175 -8.01998138 -1030.95972
v 186.780853 -23.6716347 -1013.96503
v 136.303619 -27.2536125 -1019.42584
v 85.3869934 -28.4286766 -1021.2193
v 34.4703369 -27.2536125 -1019.42584
v -16.0068665 -23.6716347 -1013.96503
v -65.4503174 -17.5092659 -1004.59259
v 206.99588 -32.1776199 -983.337463
v 159.588287 -36.9905243 -988.979675
v 110.328278 -39.4274139 -991.836365
v 60.4456482 -39.4274139 -991.836365
v 11.1856689 -36.9905243 -988.979675
v -36.2218628 -32.1776199 -983.337463
v -80.5934143 -25.1088448 -975.05072
v 38.0943909 63.7913704 -1093.02783
v 4.59100342 48.6165962 -1087.69971
v -8.01776123 69.2543488 -1084.91943
v -25.76828 34.3434296 -1076.70435
v -42.9794617 53.6573677 -1076.70435
v -51.7984009 74.4410706 -1071.63062
v -52.9088745 21.0402489 -1060.60571
v -73.2120667 39.3992081 -1062.80762
v -86.3822937 58.6032143 -1060.60571
v -92.1543274 79.2220917 -1053.49316
v -76.6849365 8.79088593 -1039.67749
v -99.3856506 26.2639465 -1043.77393
v -115.561798 44.4164238 -1043.77393
v -125.364319 63.4175758 -1039.67749
v -128.078094 83.4780121 -1030.95972
v -96.802948 -2.26801682 -1013.96503
v -121.744385 14.1291389 -1019.42584
v -140.543549 31.4224091 -1021.2193
v -153.212585 49.4419136 -1019.42584
v -159.467804 68.0527954 -1013.96503
v -158.672913 87.1026306 -1004.59259
v -112.74295 -11.9064751 -983.337463
v -139.946594 3.04578972 -988.979797
v -161.525055 19.3746758 -991.836365
v -176.939636 36.6725273 -991.836365
v -185.805481 54.5074883 -988.979797
v -187.901367 72.4342957 -983.337463
v -183.174927 90.0054092 -975.05072
v 35.452301 83.2483368 -1087.69971
v -11.1589966 89.3654099 -1076.70435
v 33.9004822 101.302055 -1076.70435
v -54.245697 94.6660385 -1060.60571
v -12.6325989 107.379814 -1062.80762
v 33.388916 117.881233 -1060.60571
v -93.5438538 99.125618 -1039.67749
v -54.9822998 112.397026 -1043.77393
v -12.6325989 123.615868 -1043.77393
v 33.9004211 132.886749 -1039.67749
v -128.606384 102.684563 -1013.96503
v -93.5438538 116.400505 -1019.42584
v -54.245697 128.263367 -1021.2193
v -11.1589966 138.224976 -1019.42584
v 35.452301 146.145172 -1013.96503
v -158.672852 105.233665 -983.337463
v -128.078094 119.28756 -988.979675
v -92.1543274 131.816254 -991.836365
v -51.7984009 142.506866 -991.836365
v -8.01782227 151.09259 -988.979675
v 38.0943909 157.35907 -983.337463
v 56.1585388 166.424591 -948.94574
v 4.5909729 161.632965 -955.209412
v 27.659668 168.997345 -921.054749
v -42.9794617 154.194092 -958.844299
v -25.76828 162.831512 -926.076599
v 0.601806641 168.803925 -892.074036
v -86.3822937 144.391144 -960.035706
v -73.2120056 154.0177 -928.43927
v -52.9088135 161.189789 -896.30719
v -24.3395691 165.849091 -862.726746
v -125.364288 132.369598 -958.844299
v -115.561707 142.798859 -928.43927
v -99.3855896 150.91687 -897.642273
v -76.684845 156.799377 -866.16571
v -46.541687 160.206635 -833.746033
v -159.467712 118.172356 -955.209412
v -153.212524 129.070404 -926.076599
v -140.543396 137.97464 -896.30719
v -121.744324 144.862732 -866.16571
v -96.8028259 149.620728 -835.90448
v -65.4503174 152.017426 -805.854919
v -187.901306 101.770927 -948.94574
v -185.80542 112.44854 -921.054749
v -176.939514 121.771629 -892.074036
v -161.524933 129.507446 -862.726746
v -139.946503 135.462891 -833.746033
v -112.74292 139.489197 -805.854919
v -80.5934143 141.485992 -779.750061
v -205.965515 81.4998169 -948.94574
v -209.402496 62.1369667 -955.209412
v -221.482925 72.4122467 -921.054749
v -204.699188 43.3422394 -958.844299
v -221.910324 51.9796486 -926.076599
v -229.339767 62.9695854 -892.074036
v -192.541595 25.2621155 -960.035706
v -213.581421 32.8039284 -928.43927
v -226.014999 42.0607643 -896.30719
v -229.339767 53.4075584 -862.726746
v -173.230957 8.0294323 -958.844299
v -197.405243 14.6514874 -928.43927
v -213.581421 22.7695007 -897.642273
v -221.910278 32.4592171 -866.16571
v -221.482925 43.9648781 -833.746033
v -146.73761 -8.18384552 -955.209412
v -173.230896 -2.64703369 -926.076599
v -192.541504 4.49782753 -896.30719
v -204.699097 13.1453094 -866.16571
v -209.402435 23.2645531 -835.90448
v -205.965515 34.8773308 -805.854919
v -112.74292 -23.1120911 -948.94574
v -139.946503 -19.0857506 -921.054749
v -161.524933 -13.1303253 -892.074036
v -176.939514 -5.39449883 -862.726746
v -185.80542 3.92859459 -833.746033
v -187.901306 14.6061859 -805.854919
v -183.174927 26.3717346 -779.750061
v -65.4503174 -35.6402893 -948.94574
v -16.0068665 -42.8155823 -955.209412
v -46.541687 -43.8295288 -921.054749
v 34.4703369 -46.9925079 -958.844299
v 6.62213135 -50.2917404 -926.076599
v -24.3395691 -49.4719849 -892.074036
v 85.3869934 -48.3637009 -960.035706
v 59.2134094 -53.3291702 -928.43927
v 31.2258301 -54.7801819 -896.30719
v 0.601806641 -52.4267807 -862.726746
v 136.303619 -46.9925079 -958.844299
v 111.560577 -53.3291702 -928.43927
v 85.3869934 -56.4299393 -897.642273
v 57.5387268 -56.3238754 -866.16571
v 27.659668 -52.6202011 -833.746033
v 186.780853 -42.8155823 -955.209412
v 164.151825 -50.2917404 -926.076599
v 139.548126 -54.7801819 -896.30719
v 113.235199 -56.3238754 -866.16571
v 85.3869934 -54.8278122 -835.90448
v 56.1585388 -50.0474472 -805.854919
v 236.224335 -35.6402893 -948.94574
v 217.315765 -43.8295288 -921.054749
v 195.113556 -49.4719849 -892.074036
v 170.172272 -52.4267807 -862.726746
v 143.114349 -52.6202011 -833.746033
v 114.615448 -50.0474472 -805.854919
v 85.3869934 -44.7727432 -779.750183
v 283.516876 -23.1120911 -948.94574
v 317.511627 -8.18384552 -955.209412
v 310.720551 -19.0857506 -921.054749
v 344.004944 8.0294323 -958.844299
v 344.004944 -2.64703369 -926.076599
v 332.29892 -13.1303253 -892.074036
v 363.315491 25.2621155 -960.035706
v 368.17926 14.6514874 -928.43927
v 363.315491 4.49782753 -896.30719
v 347.713562 -5.39449883 -862.726746
v 375.473206 43.3422394 -958.844299
v 384.355286 32.8039284 -928.43927
v 384.355286 22.7695007 -897.642273
v 375.473083 13.1453094 -866.16571
v 356.579407 3.92859459 -833.746033
v 380.176453 62.1369667 -955.209412
v 392.684265 51.9796486 -926.076599
v 396.789001 42.0607643 -896.30719
v 392.684265 32.4592171 -866.16571
v 380.176453 23.2645531 -835.90448
v 358.675354 14.6061859 -805.854919
v 376.739563 81.4998169 -948.94574
v 392.256897 72.4122467 -921.054749
v 400.113708 62.9695854 -892.074036
v 400.113708 53.4075584 -862.726746
v 392.256897 43.9648781 -833.746033
v 376.739563 34.8773308 -805.854919
v 353.948914 26.3717346 -779.750061
v 358.675354 101.770927 -948.94574
v 330.241669 118.172356 -955.209412
v 356.579407 112.44854 -921.054749
v 296.138275 132.369598 -958.844299
v 323.986542 129.070404 -926.076599
v 347.713562 121.771629 -892.074036
v 257.156219 144.391144 -960.035706
v 286.335724 142.798859 -928.43927
v 311.317413 137.97464 -896.30719
v 332.29892 129.507446 -862.726746
v 213.753387 154.194092 -958.844299
v 243.985992 154.0177 -928.43927
v 270.159637 150.91687 -897.642273
v 292.518219 144.862732 -866.16571
v 310.720551 135.462891 -833.746033
v 166.183014 161.632965 -955.209412
v 196.542206 162.831512 -926.076599
v 223.682831 161.189789 -896.30719
v 247.458832 156.799377 -866.16571
v 267.576813 149.620728 -835.90448
v 283.516876 139.489197 -805.854919
v 114.615448 166.424591 -948.94574
v 143.114349 168.997345 -921.054749
v 170.172272 168.803925 -892.074036
v 195.113556 165.849091 -862.726746
v 217.315765 160.206635 -833.746033
v 236.224335 152.017426 -805.854919
v 251.367462 141.485992 -779.750061
v 85.3869934 171.204926 -918.896301
v 57.5387268 172.700989 -888.635071
v 113.235199 172.700989 -888.635071
v 31.2258301 171.157318 -858.493713
v 85.3869934 172.807037 -857.15863
v 139.548126 171.157318 -858.493713
v 6.62213135 166.668854 -828.724182
v 59.2134094 169.706268 -826.361511
v 111.560577 169.706268 -826.361511
v 164.151825 166.668854 -828.724182
v -16.0068665 159.192688 -799.591492
v 34.4703369 163.369629 -795.956604
v 85.3869934 164.740814 -794.765076
v 136.303619 163.369629 -795.956604
v 186.780853 159.192688 -799.591492
v -36.2218628 148.554718 -771.463318
v 11.1856689 153.367645 -765.821228
v 60.4456482 155.804565 -762.964417
v 110.328278 155.804565 -762.964417
v 159.588287 153.367645 -765.821228
v 206.99588 148.554718 -771.463318
v -209.402435 93.112587 -918.896301
v -221.910278 83.9179077 -888.635071
v -204.699097 103.231819 -888.635071
v -226.014999 74.3163605 -858.493713
v -213.581421 93.6076431 -857.15863
v -192.541504 111.879311 -858.493713
v -221.910324 64.3974609 -828.724182
v -213.581421 83.5731812 -826.361511
v -197.405243 101.725655 -826.361511
v -173.230896 119.024147 -828.724182
v -209.402496 54.2401314 -799.591492
v -204.699188 73.0348969 -795.956604
v -192.541595 91.1150284 -794.765076
v -173.230957 108.347694 -795.956604
v -146.73761 124.560966 -799.591492
v -187.901367 43.9428253 -771.463318
v -185.805481 61.8696556 -765.821106
v -176.939636 79.7046051 -762.964417
v -161.525055 97.0024643 -762.964417
v -139.946594 113.331352 -765.821106
v -112.74295 128.2836 -771.463318
v -96.8028259 -33.2435913 -918.896301
v -76.684845 -40.4222336 -888.635071
v -121.744324 -28.4856377 -888.635071
v -52.9088135 -44.8126907 -858.493713
v -99.3855896 -34.5397568 -857.15863
v -140.543396 -21.5974922 -858.493713
v -25.76828 -46.4543762 -828.724182
v -73.2120056 -37.640564 -826.361511
v -115.561707 -26.4217453 -826.361511
v -153.212463 -12.6932945 -828.724182
v 4.5909729 -45.2558212 -799.591492
v -42.9794312 -37.817009 -795.956604
v -86.3822937 -28.0140076 -794.765076
v -125.364288 -15.9925194 -795.956604
v -159.467712 -1.79522705 -799.591492
v 38.0943909 -40.981926 -771.46344
v -8.01782227 -34.7154961 -765.821228
v -51.7984009 -26.1297302 -762.964417
v -92.1543274 -15.4391022 -762.964417
v -128.078094 -2.91044426 -765.821228
v -158.672852 11.1434822 -771.46344
v 267.576874 -33.2435913 -918.896301
v 292.518219 -28.4855995 -888.635071
v 247.458832 -40.4222336 -888.635071
v 311.317413 -21.5974922 -858.493713
v 270.159637 -34.5397568 -857.15863
v 223.682831 -44.8126907 -858.493713
v 323.986542 -12.6932945 -828.724182
v 286.335724 -26.4217453 -826.361511
v 243.985992 -37.640564 -826.361511
v 196.542206 -46.4543762 -828.724182
v 330.241669 -1.79522705 -799.591492
v 296.138275 -15.9925194 -795.956604
v 257.156219 -28.0140076 -794.765076
v 213.753387 -37.817009 -795.956604
v 166.183014 -45.2558212 -799.591492
v 329.446808 11.1434822 -771.46344
v 298.852081 -2.91044426 -765.821228
v 262.928314 -15.4391022 -762.964417
v 222.572418 -26.1297302 -762.964417
v 178.791779 -34.7154961 -765.821228
v 132.679596 -40.981926 -771.46344
v 380.176453 93.112587 -918.896301
v 375.473083 103.231819 -888.635071
v 392.684265 83.9179077 -888.635071
v 363.315491 111.879341 -858.493713
v 384.355286 93.6076431 -857.15863
v 396.789001 74.3163605 -858.493713
v 344.004944 119.024147 -828.724182
v 368.17926 101.725655 -826.361511
v 384.355286 83.5731812 -826.361511
v 392.684265 64.3974609 -828.724182
v 317.511627 124.560966 -799.591492
v 344.004944 108.347694 -795.956604
v 363.315491 91.1150284 -794.765076
v 375.473206 73.0348969 -795.956604
v 380.176453 54.2401314 -799.591492
v 283.516876 128.2836 -771.463318
v 310.720551 113.331352 -765.821106
v 332.298981 97.0024643 -762.964417
v 347.713684 79.7046051 -762.964417
v 356.579529 61.8696556 -765.821106
v 358.675354 43.9428253 -771.463318
v 85.3869934 58.188549 -659.047607
v 114.615387 72.8568573 -661.77301
v 56.1585388 72.8568573 -661.77301
v 143.114349 87.1590881 -669.881287
v 85.3869934 89.1641464 -667.101257
v 27.659668 87.1590881 -669.881287
v 170.172272 100.738106 -683.170105
v 113.235199 104.10247 -678.096375
v 57.5387268 104.10247 -678.096375
v 0.601806641 100.738106 -683.170105
v 195.113556 113.254951 -701.307739
v 139.548126 117.624947 -694.194946
v 85.3869934 118.992271 -691.993103
v 31.2258301 117.624947 -694.194946
v -24.3395691 113.254951 -701.307739
v 217.315765 124.397118 -723.841187
v 164.151825 129.655029 -715.123352
v 111.560577 132.127502 -711.026733
v 59.2134094 132.127502 -711.026733
v 6.62210083 129.65506 -715.123352
v -46.5417175 124.397118 -723.841187
v 236.224335 133.886383 -750.208191
v 186.780853 140.048767 -740.835876
v 136.303619 143.630737 -735.374939
v 85.3869934 144.805786 -733.581482
v 34.4703369 143.630737 -735.374939
v -16.0068665 140.048767 -740.835876
v -65.4503174 133.886383 -750.208191
v 132.679596 52.5857582 -661.77301
v 178.791779 47.1227798 -669.881287
v 166.183014 67.7605438 -667.101257
v 222.572418 41.9360695 -683.170105
v 213.753387 62.7197685 -678.096375
v 196.542206 82.0336914 -678.096375
v 262.928314 37.1550369 -701.307739
v 257.156281 57.7738838 -694.194946
v 243.986053 76.9779205 -691.993103
v 223.682892 95.3368912 -694.194946
v 298.852081 32.8991051 -723.841187
v 296.138275 52.9595375 -715.123352
v 286.335785 71.9607086 -711.026733
v 270.159698 90.1131821 -711.026733
v 247.458954 107.58625 -715.123352
v 329.446869 29.2745056 -750.208191
v 330.24173 48.324337 -740.835876
v 323.986542 66.9352264 -735.374939
v 311.317596 84.9547272 -733.581482
v 292.518463 102.247993 -735.374939
v 267.576874 118.645149 -740.835876
v 85.3869934 40.0575256 -661.77301
v 85.3869934 22.3790359 -669.881287
v 135.321625 33.1288033 -667.101257
v 85.3869934 5.59441185 -683.170105
v 136.873505 15.0750656 -678.096375
v 181.932953 27.011734 -678.096375
v 85.3869934 -9.87724304 -701.307739
v 137.38504 -1.50409317 -694.195007
v 183.406586 8.99730301 -691.993103
v 225.019745 21.7111015 -694.194946
v 85.3869934 -23.6496887 -723.841309
v 136.873566 -16.5096207 -715.123352
v 183.406586 -7.23872948 -711.026855
v 225.756317 3.98009109 -711.026855
v 264.31778 17.2514992 -715.123352
v 85.3869934 -35.3791313 -750.208191
v 135.321625 -29.7680626 -740.835876
v 181.932953 -21.8478699 -735.374939
v 225.019745 -11.8862572 -733.581543
v 264.31778 -0.0233840942 -735.374939
v 299.380402 13.6925602 -740.835876
v 38.0943909 52.5857582 -661.77301
v -8.01776123 47.1227798 -669.881287
v 35.452301 33.1288033 -667.101257
v -51.7984009 41.9360695 -683.170105
v -11.1589966 27.011734 -678.096375
v 33.9004822 15.0750656 -678.096375
v -92.1543274 37.1550369 -701.307739
v -54.245697 21.7111015 -694.194946
v -12.6325989 8.99730301 -691.993103
v 33.388916 -1.50409317 -694.195007
v -128.078094 32.8991051 -723.841187
v -93.5438538 17.2514992 -715.123352
v -54.9822998 3.98009109 -711.026855
v -12.6325989 -7.23872948 -711.026855
v 33.9004211 -16.5096207 -715.123413
v -158.672913 29.2745056 -750.208191
v -128.606384 13.6925602 -740.835876
v -93.5438538 -0.0233840942 -735.374939
v -54.245697 -11.8862572 -733.581543
v -11.1589966 -21.8478699 -735.374939
v 35.452301 -29.7680626 -740.835876
v 4.59100342 67.7605438 -667.101257
v -25.76828 82.0336914 -678.096375
v -42.9794617 62.7197685 -678.096375
v -52.9088745 95.3368912 -694.194946
v -73.2120667 76.9779205 -691.993103
v -86.3822937 57.7738838 -694.194946
v -76.6849365 107.58625 -715.123352
v -99.3856506 90.1131821 -711.026733
v -115.561798 71.9607086 -711.026733
v -125.364319 52.9595375 -715.123352
v -96.802948 118.645149 -740.835815
v -121.744385 102.247993 -735.374939
v -140.543549 84.9547272 -733.581482
v -153.212585 66.9352264 -735.374939
v -159.467804 48.324337 -740.835876
g 
f 3 1 2
f 5 2 4
f 6 3 5
f 8 4 7
f 9 5 8
f 10 6 9
f 12 7 11
f 13 8 12
f 14 9 13
f 15 10 14
f 17 11 16
f 18 12 17
f 19 13 18
f 20 14 19
f 21 15 20
f 23 16 22
f 24 17 23
f 25 18 24
f 26 19 25
f 27 20 26
f 28 21 27
f 30 22 29
f 31 23 30
f 32 24 31
f 33 25 32
f 34 26 33
f 35 27 34
f 36 28 35
f 3 2 5
f 5 4 8
f 6 5 9
f 8 7 12
f 9 8 13
f 10 9 14
f 12 11 17
f 13 12 18
f 14 13 19
f 15 14 20
f 17 16 23
f 18 17 24
f 19 18 25
f 20 19 26
f 21 20 27
f 23 22 30
f 24 23 31
f 25 24 32
f 26 25 33
f 27 26 34
f 28 27 35
f 37 1 3
f 38 3 6
f 39 37 38
f 40 6 10
f 41 38 40
f 42 39 41
f 43 10 15
f 44 40 43
f 45 41 44
f 46 42 45
f 47 15 21
f 48 43 47
f 49 44 48
f 50 45 49
f 51 46 50
f 52 21 28
f 53 47 52
f 54 48 53
f 55 49 54
f 56 50 55
f 57 51 56
f 58 28 36
f 59 52 58
f 60 53 59
f 61 54 60
f 62 55 61
f 63 56 62
f 64 57 63
f 37 3 38
f 38 6 40
f 39 38 41
f 40 10 43
f 41 40 44
f 42 41 45
f 43 15 47
f 44 43 48
f 45 44 49
f 46 45 50
f 47 21 52
f 48 47 53
f 49 48 54
f 50 49 55
f 51 50 56
f 52 28 58
f 53 52 59
f 54 53 60
f 55 54 61
f 56 55 62
f 57 56 63
f 65 1 37
f 66 37 39
f 67 65 66
f 68 39 42
f 69 66 68
f 70 67 69
f 71 42 46
f 72 68 71
f 73 69 72
f 74 70 73
f 75 46 51
f 76 71 75
f 77 72 76
f 78 73 77
f 79 74 78
f 80 51 57
f 81 75 80
f 82 76 81
f 83 77 82
f 84 78 83
f 85 79 84
f 86 57 64
f 87 80 86
f 88 81 87
f 89 82 88
f 90 83 89
f 91 84 90
f 92 85 91
f 65 37 66
f 66 39 68
f 67 66 69
f 68 42 71
f 69 68 72
f 70 69 73
f 71 46 75
f 72 71 76
f 73 72 77
f 74 73 78
f 75 51 80
f 76 75 81
f 77 76 82
f 78 77 83
f 79 78 84
f 80 57 86
f 81 80 87
f 82 81 88
f 83 82 89
f 84 83 90
f 85 84 91
f 93 1 65
f 94 65 67
f 95 93 94
f 96 67 70
f 97 94 96
f 98 95 97
f 99 70 74
f 100 96 99
f 101 97 100
f 102 98 101
f 103 74 79
f 104 99 103
f 105 100 104
f 106 101 105
f 107 102 106
f 108 79 85
f 109 103 108
f 110 104 109
f 111 105 110
f 112 106 111
f 113 107 112
f 114 85 92
f 115 108 114
f 116 109 115
f 117 110 116
f 118 111 117
f 119 112 118
f 120 113 119
f 93 65 94
f 94 67 96
f 95 94 97
f 96 70 99
f 97 96 100
f 98 97 101
f 99 74 103
f 100 99 104
f 101 100 105
f 102 101 106
f 103 79 108
f 104 103 109
f 105 104 110
f 106 105 111
f 107 106 112
f 108 85 114
f 109 108 115
f 110 109 116
f 111 110 117
f 112 111 118
f 113 112 119
f 2 1 93
f 121 93 95
f 4 2 121
f 122 95 98
f 123 121 122
f 7 4 123
f 124 98 102
f 125 122 124
f 126 123 125
f 11 7 126
f 127 102 107
f 128 124 127
f 129 125 128
f 130 126 129
f 16 11 130
f 131 107 113
f 132 127 131
f 133 128 132
f 134 129 133
f 135 130 134
f 22 16 135
f 136 113 120
f 137 131 136
f 138 132 137
f 139 133 138
f 140 134 139
f 141 135 140
f 29 22 141
f 2 93 121
f 121 95 122
f 4 121 123
f 122 98 124
f 123 122 125
f 7 123 126
f 124 102 127
f 125 124 128
f 126 125 129
f 11 126 130
f 127 107 131
f 128 127 132
f 129 128 133
f 130 129 134
f 16 130 135
f 131 113 136
f 132 131 137
f 133 132 138
f 134 133 139
f 135 134 140
f 22 135 141
f 142 29 141
f 143 141 140
f 144 142 143
f 145 140 139
f 146 143 145
f 147 144 146
f 148 139 138
f 149 145 148
f 150 146 149
f 151 147 150
f 152 138 137
f 153 148 152
f 154 149 153
f 155 150 154
f 156 151 155
f 157 137 136
f 158 152 157
f 159 153 158
f 160 154 159
f 161 155 160
f 162 156 161
f 163 136 120
f 164 157 163
f 165 158 164
f 166 159 165
f 167 160 166
f 168 161 167
f 169 162 168
f 142 141 143
f 143 140 145
f 144 143 146
f 145 139 148
f 146 145 149
f 147 146 150
f 148 138 152
f 149 148 153
f 150 149 154
f 151 150 155
f 152 137 157
f 153 152 158
f 154 153 159
f 155 154 160
f 156 155 161
f 157 136 163
f 158 157 164
f 159 158 165
f 160 159 166
f 161 160 167
f 162 161 168
f 170 120 119
f 171 119 118
f 172 170 171
f 173 118 117
f 174 171 173
f 175 172 174
f 176 117 116
f 177 173 176
f 178 174 177
f 179 175 178
f 180 116 115
f 181 176 180
f 182 177 181
f 183 178 182
f 184 179 183
f 185 115 114
f 186 180 185
f 187 181 186
f 188 182 187
f 189 183 188
f 190 184 189
f 191 114 92
f 192 185 191
f 193 186 192
f 194 187 193
f 195 188 194
f 196 189 195
f 197 190 196
f 170 119 171
f 171 118 173
f 172 171 174
f 173 117 176
f 174 173 177
f 175 174 178
f 176 116 180
f 177 176 181
f 178 177 182
f 179 178 183
f 180 115 185
f 181 180 186
f 182 181 187
f 183 182 188
f 184 183 189
f 185 114 191
f 186 185 192
f 187 186 193
f 188 187 194
f 189 188 195
f 190 189 196
f 198 92 91
f 199 91 90
f 200 198 199
f 201 90 89
f 202 199 201
f 203 200 202
f 204 89 88
f 205 201 204
f 206 202 205
f 207 203 206
f 208 88 87
f 209 204 208
f 210 205 209
f 211 206 210
f 212 207 211
f 213 87 86
f 214 208 213
f 215 209 214
f 216 210 215
f 217 211 216
f 218 212 217
f 219 86 64
f 220 213 219
f 221 214 220
f 222 215 221
f 223 216 222
f 224 217 223
f 225 218 224
f 198 91 199
f 199 90 201
f 200 199 202
f 201 89 204
f 202 201 205
f 203 202 206
f 204 88 208
f 205 204 209
f 206 205 210
f 207 206 211
f 208 87 213
f 209 208 214
f 210 209 215
f 211 210 216
f 212 211 217
f 213 86 219
f 214 213 220
f 215 214 221
f 216 215 222
f 217 216 223
f 218 217 224
f 226 64 63
f 227 63 62
f 228 226 227
f 229 62 61
f 230 227 229
f 231 228 230
f 232 61 60
f 233 229 232
f 234 230 233
f 235 231 234
f 236 60 59
f 237 232 236
f 238 233 237
f 239 234 238
f 240 235 239
f 241 59 58
f 242 236 241
f 243 237 242
f 244 238 243
f 245 239 244
f 246 240 245
f 247 58 36
f 248 241 247
f 249 242 248
f 250 243 249
f 251 244 250
f 252 245 251
f 253 246 252
f 226 63 227
f 227 62 229
f 228 227 230
f 229 61 232
f 230 229 233
f 231 230 234
f 232 60 236
f 233 232 237
f 234 233 238
f 235 234 239
f 236 59 241
f 237 236 242
f 238 237 243
f 239 238 244
f 240 239 245
f 241 58 247
f 242 241 248
f 243 242 249
f 244 243 250
f 245 244 251
f 246 245 252
f 254 36 35
f 255 35 34
f 256 254 255
f 257 34 33
f 258 255 257
f 259 256 258
f 260 33 32
f 261 257 260
f 262 258 261
f 263 259 262
f 264 32 31
f 265 260 264
f 266 261 265
f 267 262 266
f 268 263 267
f 269 31 30
f 270 264 269
f 271 265 270
f 272 266 271
f 273 267 272
f 274 268 273
f 275 30 29
f 276 269 275
f 277 270 276
f 278 271 277
f 279 272 278
f 280 273 279
f 281 274 280
f 254 35 255
f 255 34 257
f 256 255 258
f 257 33 260
f 258 257 261
f 259 258 262
f 260 32 264
f 261 260 265
f 262 261 266
f 263 262 267
f 264 31 269
f 265 264 270
f 266 265 271
f 267 266 272
f 268 267 273
f 269 30 275
f 270 269 276
f 271 270 277
f 272 271 278
f 273 272 279
f 274 273 280
f 275 29 142
f 282 142 144
f 276 275 282
f 283 144 147
f 284 282 283
f 277 276 284
f 285 147 151
f 286 283 285
f 287 284 286
f 278 277 287
f 288 151 156
f 289 285 288
f 290 286 289
f 291 287 290
f 279 278 291
f 292 156 162
f 293 288 292
f 294 289 293
f 295 290 294
f 296 291 295
f 280 279 296
f 297 162 169
f 298 292 297
f 299 293 298
f 300 294 299
f 301 295 300
f 302 296 301
f 281 280 302
f 275 142 282
f 282 144 283
f 276 282 284
f 283 147 285
f 284 283 286
f 277 284 287
f 285 151 288
f 286 285 289
f 287 286 290
f 278 287 291
f 288 156 292
f 289 288 293
f 290 289 294
f 291 290 295
f 279 291 296
f 292 162 297
f 293 292 298
f 294 293 299
f 295 294 300
f 296 295 301
f 280 296 302
f 163 120 170
f 303 170 172
f 164 163 303
f 304 172 175
f 305 303 304
f 165 164 305
f 306 175 179
f 307 304 306
f 308 305 307
f 166 165 308
f 309 179 184
f 310 306 309
f 311 307 310
f 312 308 311
f 167 166 312
f 313 184 190
f 314 309 313
f 315 310 314
f 316 311 315
f 317 312 316
f 168 167 317
f 318 190 197
f 319 313 318
f 320 314 319
f 321 315 320
f 322 316 321
f 323 317 322
f 169 168 323
f 163 170 303
f 303 172 304
f 164 303 305
f 304 175 306
f 305 304 307
f 165 305 308
f 306 179 309
f 307 306 310
f 308 307 311
f 166 308 312
f 309 184 313
f 310 309 314
f 311 310 315
f 312 311 316
f 167 312 317
f 313 190 318
f 314 313 319
f 315 314 320
f 316 315 321
f 317 316 322
f 168 317 323
f 191 92 198
f 324 198 200
f 192 191 324
f 325 200 203
f 326 324 325
f 193 192 326
f 327 203 207
f 328 325 327
f 329 326 328
f 194 193 329
f 330 207 212
f 331 327 330
f 332 328 331
f 333 329 332
f 195 194 333
f 334 212 218
f 335 330 334
f 336 331 335
f 337 332 336
f 338 333 337
f 196 195 338
f 339 218 225
f 340 334 339
f 341 335 340
f 342 336 341
f 343 337 342
f 344 338 343
f 197 196 344
f 191 198 324
f 324 200 325
f 192 324 326
f 325 203 327
f 326 325 328
f 193 326 329
f 327 207 330
f 328 327 331
f 329 328 332
f 194 329 333
f 330 212 334
f 331 330 335
f 332 331 336
f 333 332 337
f 195 333 338
f 334 218 339
f 335 334 340
f 336 335 341
f 337 336 342
f 338 337 343
f 196 338 344
f 219 64 226
f 345 226 228
f 220 219 345
f 346 228 231
f 347 345 346
f 221 220 347
f 348 231 235
f 349 346 348
f 350 347 349
f 222 221 350
f 351 235 240
f 352 348 351
f 353 349 352
f 354 350 353
f 223 222 354
f 355 240 246
f 356 351 355
f 357 352 356
f 358 353 357
f 359 354 358
f 224 223 359
f 360 246 253
f 361 355 360
f 362 356 361
f 363 357 362
f 364 358 363
f 365 359 364
f 225 224 365
f 219 226 345
f 345 228 346
f 220 345 347
f 346 231 348
f 347 346 349
f 221 347 350
f 348 235 351
f 349 348 352
f 350 349 353
f 222 350 354
f 351 240 355
f 352 351 356
f 353 352 357
f 354 353 358
f 223 354 359
f 355 246 360
f 356 355 361
f 357 356 362
f 358 357 363
f 359 358 364
f 224 359 365
f 247 36 254
f 366 254 256
f 248 247 366
f 367 256 259
f 368 366 367
f 249 248 368
f 369 259 263
f 370 367 369
f 371 368 370
f 250 249 371
f 372 263 268
f 373 369 372
f 374 370 373
f 375 371 374
f 251 250 375
f 376 268 274
f 377 372 376
f 378 373 377
f 379 374 378
f 380 375 379
f 252 251 380
f 381 274 281
f 382 376 381
f 383 377 382
f 384 378 383
f 385 379 384
f 386 380 385
f 253 252 386
f 247 254 366
f 366 256 367
f 248 366 368
f 367 259 369
f 368 367 370
f 249 368 371
f 369 263 372
f 370 369 373
f 371 370 374
f 250 371 375
f 372 268 376
f 373 372 377
f 374 373 378
f 375 374 379
f 251 375 380
f 376 274 381
f 377 376 382
f 378 377 383
f 379 378 384
f 380 379 385
f 252 380 386
f 389 387 388
f 391 388 390
f 392 389 391
f 394 390 393
f 395 391 394
f 396 392 395
f 398 393 397
f 399 394 398
f 400 395 399
f 401 396 400
f 403 397 402
f 404 398 403
f 405 399 404
f 406 400 405
f 407 401 406
f 409 402 408
f 410 403 409
f 411 404 410
f 412 405 411
f 413 406 412
f 414 407 413
f 302 408 281
f 301 409 302
f 300 410 301
f 299 411 300
f 298 412 299
f 297 413 298
f 169 414 297
f 389 388 391
f 391 390 394
f 392 391 395
f 394 393 398
f 395 394 399
f 396 395 400
f 398 397 403
f 399 398 404
f 400 399 405
f 401 400 406
f 403 402 409
f 404 403 410
f 405 404 411
f 406 405 412
f 407 406 413
f 409 408 302
f 410 409 301
f 411 410 300
f 412 411 299
f 413 412 298
f 414 413 297
f 388 387 415
f 417 415 416
f 390 388 417
f 419 416 418
f 420 417 419
f 393 390 420
f 422 418 421
f 423 419 422
f 424 420 423
f 397 393 424
f 426 421 425
f 427 422 426
f 428 423 427
f 429 424 428
f 402 397 429
f 431 425 430
f 432 426 431
f 433 427 432
f 434 428 433
f 435 429 434
f 408 402 435
f 386 430 253
f 385 431 386
f 384 432 385
f 383 433 384
f 382 434 383
f 381 435 382
f 281 408 381
f 388 415 417
f 417 416 419
f 390 417 420
f 419 418 422
f 420 419 423
f 393 420 424
f 422 421 426
f 423 422 427
f 424 423 428
f 397 424 429
f 426 425 431
f 427 426 432
f 428 427 433
f 429 428 434
f 402 429 435
f 431 430 386
f 432 431 385
f 433 432 384
f 434 433 383
f 435 434 382
f 408 435 381
f 415 387 436
f 438 436 437
f 416 415 438
f 440 437 439
f 441 438 440
f 418 416 441
f 443 439 442
f 444 440 443
f 445 441 444
f 421 418 445
f 447 442 446
f 448 443 447
f 449 444 448
f 450 445 449
f 425 421 450
f 452 446 451
f 453 447 452
f 454 448 453
f 455 449 454
f 456 450 455
f 430 425 456
f 365 451 225
f 364 452 365
f 363 453 364
f 362 454 363
f 361 455 362
f 360 456 361
f 253 430 360
f 415 436 438
f 438 437 440
f 416 438 441
f 440 439 443
f 441 440 444
f 418 441 445
f 443 442 447
f 444 443 448
f 445 444 449
f 421 445 450
f 447 446 452
f 448 447 453
f 449 448 454
f 450 449 455
f 425 450 456
f 452 451 365
f 453 452 364
f 454 453 363
f 455 454 362
f 456 455 361
f 430 456 360
f 436 387 457
f 459 457 458
f 437 436 459
f 461 458 460
f 462 459 461
f 439 437 462
f 464 460 463
f 465 461 464
f 466 462 465
f 442 439 466
f 468 463 467
f 469 464 468
f 470 465 469
f 471 466 470
f 446 442 471
f 473 467 472
f 474 468 473
f 475 469 474
f 476 470 475
f 477 471 476
f 451 446 477
f 344 472 197
f 343 473 344
f 342 474 343
f 341 475 342
f 340 476 341
f 339 477 340
f 225 451 339
f 436 457 459
f 459 458 461
f 437 459 462
f 461 460 464
f 462 461 465
f 439 462 466
f 464 463 468
f 465 464 469
f 466 465 470
f 442 466 471
f 468 467 473
f 469 468 474
f 470 469 475
f 471 470 476
f 446 471 477
f 473 472 344
f 474 473 343
f 475 474 342
f 476 475 341
f 477 476 340
f 451 477 339
f 457 387 389
f 478 389 392
f 458 457 478
f 479 392 396
f 480 478 479
f 460 458 480
f 481 396 401
f 482 479 481
f 483 480 482
f 463 460 483
f 484 401 407
f 485 481 484
f 486 482 485
f 487 483 486
f 467 463 487
f 488 407 414
f 489 484 488
f 490 485 489
f 491 486 490
f 492 487 491
f 472 467 492
f 323 414 169
f 322 488 323
f 321 489 322
f 320 490 321
f 319 491 320
f 318 492 319
f 197 472 318
f 457 389 478
f 478 392 479
f 458 478 480
f 479 396 481
f 480 479 482
f 460 480 483
f 481 401 484
f 482 481 485
f 483 482 486
f 463 483 487
f 484 407 488
f 485 484 489
f 486 485 490
f 487 486 491
f 467 487 492
f 488 414 323
f 489 488 322
f 490 489 321
f 491 490 320
f 492 491 319
f 472 492 318
