# File exported by Houdini 20.5.445 (www.sidefx.com)
# 492 points
# 2940 vertices
# 980 primitives
# Bounds: [-156.596298, -142.610382, -1039.50708] to [327.370239, 258.987488, -715.294006]
g 
v 85.3869629 58.1885452 -1039.50708
v 85.3869629 89.9521179 -1037.48364
v 121.748749 68.0040665 -1037.48364
v 85.3869629 120.922874 -1031.46387
v 123.780151 102.090508 -1033.52783
v 157.202972 77.5745468 -1031.46387
v 85.3869629 150.327667 -1021.59821
v 124.973328 133.718597 -1025.36511
v 159.618134 112.8069 -1025.36511
v 190.864441 86.6611557 -1021.59821
v 85.3869629 177.432281 -1008.13281
v 125.366638 162.763458 -1013.41339
v 160.751099 144.36618 -1015.0481
v 192.746155 122.093056 -1013.41339
v 221.892822 95.0369644 -1008.13281
v 85.3869629 201.56015 -991.403809
v 124.973389 189.051514 -997.876038
v 160.751099 172.809937 -1000.91724
v 193.3125 153.155792 -1000.91724
v 222.961182 129.905762 -997.876038
v 249.513428 102.492851 -991.403809
v 85.3869629 222.108795 -971.828857
v 123.780151 212.278839 -978.786926
v 159.618134 198.403534 -982.841125
v 192.746155 180.951874 -984.172607
v 222.961182 160.169434 -982.841125
v 249.919678 136.140625 -978.786926
v 273.036804 108.842773 -971.828857
v 85.3869629 238.565338 -949.896667
v 121.748749 231.924286 -956.048767
v 157.202972 220.946136 -960.237671
v 190.864441 205.904877 -962.358459
v 221.892822 187.176086 -962.358459
v 249.513428 165.227234 -960.237671
v 273.036743 140.606354 -956.048767
v 291.87561 113.928146 -949.896729
v 107.859772 32.4913063 -1037.48364
v 147.508484 41.4195061 -1033.52783
v 129.771729 7.43538666 -1031.46387
v 184.083862 50.2503853 -1025.36511
v 170.850708 16.4145279 -1025.36511
v 150.575653 -16.3535004 -1021.59821
v 217.454895 58.9149933 -1013.41339
v 207.328796 25.2716694 -1015.0481
v 191.718323 -6.89120102 -1013.41339
v 169.752228 -38.2816505 -1008.13281
v 247.42688 67.3492355 -997.876038
v 239.890076 34.0612717 -1000.91736
v 227.452759 2.26020241 -1000.91736
v 209.998901 -28.3507233 -997.876038
v 186.822754 -57.801506 -991.403809
v 273.647949 75.4696198 -978.786926
v 268.838562 42.8653984 -982.841125
v 259.097717 11.2971973 -984.172607
v 244.643677 -18.9986992 -982.841125
v 225.467041 -47.7246933 -978.786926
v 201.360962 -74.4256744 -971.828857
v 295.509644 83.1455078 -956.048767
v 293.898254 51.739727 -960.237671
v 287.081543 20.4948235 -962.358582
v 275.229736 -9.80909729 -962.358582
v 258.638733 -38.4154968 -960.237671
v 237.722717 -64.6102142 -956.048767
v 213.004028 -87.739296 -949.896729
v 62.9142151 32.4913063 -1037.48364
v 85.3869629 3.92279434 -1033.52783
v 41.0023193 7.43538666 -1031.46387
v 106.798615 -22.2475433 -1025.36511
v 63.9753418 -22.2475433 -1025.36511
v 20.1983643 -16.3535004 -1021.59821
v 127.029785 -45.9374466 -1013.41339
v 85.3869629 -48.3327866 -1015.0481
v 43.7442322 -45.9374466 -1013.41339
v 1.02175903 -38.2816505 -1008.13281
v 145.946777 -67.012764 -997.876038
v 105.510986 -71.3443069 -1000.91736
v 65.26297 -71.3443069 -1000.91736
v 24.827179 -67.012825 -997.876038
v -16.0487366 -57.801506 -991.403809
v 163.345459 -85.221405 -978.786926
v 124.535187 -91.4966965 -982.841125
v 85.3869629 -93.5552139 -984.172607
v 46.2388611 -91.4966965 -982.841125
v 7.42849731 -85.221405 -978.786926
v -30.5869751 -74.4256744 -971.828857
v 178.888184 -100.122948 -956.048767
v 142.438049 -108.554634 -960.237671
v 104.563599 -112.823845 -962.358582
v 66.2104187 -112.823845 -962.358582
v 28.335968 -108.554634 -960.237671
v -8.11416626 -100.122948 -956.048767
v -42.230011 -87.739296 -949.896729
v 49.025238 68.0040665 -1037.48364
v 23.265564 41.4195061 -1033.52783
v 13.5710754 77.5745468 -1031.46387
v -0.0767211914 16.4145279 -1025.36511
v -13.3098755 50.2503853 -1025.36511
v -20.0904541 86.6611557 -1021.59821
v -20.9442444 -6.89120102 -1013.41339
v -36.554718 25.2716694 -1015.0481
v -46.6808777 58.9149933 -1013.41339
v -51.1188354 95.0369644 -1008.13281
v -39.224884 -28.3507233 -997.876038
v -56.678772 2.26020241 -1000.91736
v -69.1160889 34.0612717 -1000.91736
v -76.6529236 67.3492355 -997.876038
v -78.7394714 102.492851 -991.403809
v -54.6929626 -47.7246933 -978.786926
v -73.8696594 -18.9986992 -982.841125
v -88.3237152 11.2971973 -984.172607
v -98.0645447 42.8653984 -982.841125
v -102.873978 75.4696198 -978.786926
v -102.262833 108.842773 -971.828857
v -66.948761 -64.6102142 -956.048767
v -87.8647614 -38.4154968 -960.237671
v -104.45575 -9.80909729 -962.358582
v -116.307556 20.4948235 -962.358582
v -123.124222 51.739727 -960.237671
v -124.735657 83.1455078 -956.048767
v -121.101654 113.928146 -949.896729
v 46.9938049 102.090508 -1033.52783
v 11.1558838 112.8069 -1025.36511
v 45.8006287 133.718597 -1025.36511
v -21.9721069 122.093056 -1013.41339
v 10.0228577 144.36618 -1015.0481
v 45.4073181 162.763458 -1013.41339
v -52.1871643 129.905762 -997.876038
v -22.5384827 153.155792 -1000.91724
v 10.0228577 172.809937 -1000.91724
v 45.8006287 189.051514 -997.875916
v -79.1456604 136.140625 -978.786926
v -52.1871643 160.169434 -982.841125
v -21.9721069 180.951874 -984.172607
v 11.1558838 198.403534 -982.841125
v 46.9938049 212.278839 -978.786926
v -102.262802 140.606354 -956.048767
v -78.7394714 165.227234 -960.237671
v -51.1188354 187.176086 -962.358459
v -20.0904541 205.904877 -962.358459
v 13.5710449 220.946136 -960.237671
v 49.025238 231.924286 -956.048767
v 62.9141541 247.806061 -930.516296
v 23.2655029 239.411682 -935.166321
v 41.0023193 252.313293 -909.809814
v -13.3098755 226.379608 -937.864868
v -0.0767211914 241.511475 -913.538086
v 20.1983643 251.974396 -888.294312
v -46.6808777 209.205933 -938.749512
v -36.5546875 226.070587 -915.292114
v -20.9442139 238.635345 -891.437012
v 1.02175903 246.797882 -866.506775
v -76.6528625 188.145538 -937.864868
v -69.1160278 206.416443 -915.292114
v -56.6787109 220.638275 -892.428162
v -39.224884 230.943787 -869.059814
v -16.0487366 236.912933 -844.991211
v -102.873932 163.273529 -935.166321
v -98.0645142 182.365692 -913.538086
v -88.3236237 197.964874 -891.437012
v -73.8696136 210.032135 -869.059814
v -54.6929321 218.367554 -846.593628
v -30.5869751 222.566376 -824.28479
v -124.735611 134.540039 -930.516296
v -123.124146 153.246002 -909.809814
v -116.307449 169.579041 -888.294312
v -104.455673 183.131348 -866.506775
v -87.8647003 193.564575 -844.991211
v -66.9487305 200.618286 -824.28479
v -42.230011 204.116425 -804.904297
v -138.624588 99.0272827 -930.516296
v -141.267151 65.1057739 -935.166321
v -150.55545 83.106842 -909.809814
v -137.650955 32.1794243 -937.864868
v -150.884048 47.3112335 -913.538086
v -156.596298 66.5643463 -888.294312
v -128.30336 0.505048752 -938.749512
v -144.480194 13.7175255 -915.292114
v -154.039978 29.934473 -891.437012
v -156.596298 49.8127403 -866.506775
v -113.456039 -29.6846466 -937.864868
v -132.042862 -18.0836029 -915.292114
v -144.480194 -3.8617363 -892.428162
v -150.884018 13.1136303 -869.059814
v -150.55545 33.270237 -844.991211
v -93.0861664 -58.0885773 -935.166321
v -113.456024 -48.3886337 -913.538086
v -128.303299 -35.8716888 -891.437012
v -137.650879 -20.7222595 -869.059814
v -141.267151 -2.99446297 -846.593628
v -138.624588 17.3498363 -824.28479
v -66.9487305 -84.2411423 -930.516296
v -87.8647003 -77.1875076 -909.809814
v -104.455673 -66.7542038 -888.294312
v -116.307449 -53.2019424 -866.506775
v -123.124146 -36.8689232 -844.991211
v -124.735611 -18.162899 -824.28479
v -121.101654 2.44897461 -804.904297
v -30.5869751 -106.189217 -930.516296
v 7.42852783 -118.759483 -935.166321
v -16.0487366 -120.535805 -909.809814
v 46.2388611 -126.077049 -937.864868
v 24.8272095 -131.856873 -913.538086
v 1.02175903 -130.420746 -888.294312
v 85.3869629 -128.479248 -938.749512
v 65.26297 -137.178131 -915.292114
v 43.7442322 -139.720215 -891.437012
v 20.1983643 -135.59729 -866.506775
v 124.535187 -126.077049 -937.864868
v 105.510986 -137.178131 -915.292114
v 85.3869629 -142.610382 -892.428162
v 63.9753418 -142.42453 -869.059814
v 41.0023193 -135.936218 -844.991211
v 163.345459 -118.759483 -935.166321
v 145.946777 -131.856873 -913.538086
v 127.029785 -139.720215 -891.437012
v 106.798615 -142.42453 -869.059814
v 85.3869629 -139.80365 -846.593628
v 62.9141541 -131.428986 -824.28479
v 201.360962 -106.189217 -930.516296
v 186.822754 -120.535805 -909.809814
v 169.752228 -130.420746 -888.294312
v 150.575653 -135.59729 -866.506775
v 129.771729 -135.936218 -844.991211
v 107.859802 -131.428986 -824.28479
v 85.3869629 -122.18821 -804.904358
v 237.722717 -84.2411423 -930.516296
v 263.860168 -58.0885773 -935.166321
v 258.638672 -77.1875076 -909.809814
v 284.230042 -29.6846466 -937.864868
v 284.230042 -48.3886337 -913.538086
v 275.229675 -66.7542038 -888.294312
v 299.077271 0.505048752 -938.749512
v 302.816895 -18.0836029 -915.292114
v 299.077271 -35.8716888 -891.437012
v 287.081482 -53.2019424 -866.506775
v 308.424927 32.1794243 -937.864868
v 315.254211 13.7175255 -915.292114
v 315.254211 -3.8617363 -892.428162
v 308.424927 -20.7222595 -869.059814
v 293.898193 -36.8689232 -844.991211
v 312.041138 65.1057739 -935.166321
v 321.658081 47.3112335 -913.538086
v 324.814026 29.934473 -891.437012
v 321.65802 13.1136303 -869.059814
v 312.041138 -2.99446297 -846.593628
v 295.509583 -18.162899 -824.28479
v 309.39856 99.0272827 -930.516296
v 321.329407 83.106842 -909.809814
v 327.370239 66.5643463 -888.294312
v 327.370239 49.8127403 -866.506775
v 321.329407 33.270237 -844.991211
v 309.39856 17.3498363 -824.28479
v 291.87561 2.44897461 -804.904297
v 295.509583 134.540039 -930.516296
v 273.647888 163.273529 -935.166321
v 293.898193 153.246002 -909.809814
v 247.42688 188.145538 -937.864868
v 268.838562 182.365692 -913.538086
v 287.081482 169.579041 -888.294312
v 217.454834 209.205933 -938.749512
v 239.890015 206.416443 -915.292114
v 259.097595 197.964874 -891.437012
v 275.229675 183.131348 -866.506775
v 184.083862 226.379608 -937.864868
v 207.328674 226.070587 -915.292114
v 227.452698 220.638275 -892.428162
v 244.643616 210.032135 -869.059814
v 258.638672 193.564575 -844.991211
v 147.508484 239.411682 -935.166321
v 170.850708 241.511475 -913.538086
v 191.718201 238.635345 -891.437012
v 209.998901 230.943787 -869.059814
v 225.466919 218.367554 -846.593628
v 237.722717 200.618286 -824.28479
v 107.859802 247.806061 -930.516296
v 129.771729 252.313293 -909.809814
v 150.575653 251.974396 -888.294312
v 169.752228 246.797882 -866.506775
v 186.822754 236.912933 -844.991211
v 201.360962 222.566376 -824.28479
v 213.004028 204.116425 -804.904297
v 85.3869629 256.180695 -908.207397
v 63.9753418 258.801636 -885.741272
v 106.798615 258.801636 -885.741272
v 43.7442322 256.097321 -863.364014
v 85.3869629 258.987488 -862.372925
v 127.029785 256.097321 -863.364014
v 24.8272095 248.234009 -841.262939
v 65.26297 253.555206 -839.508911
v 105.510986 253.555206 -839.508911
v 145.946777 248.234009 -841.262939
v 7.42852783 235.136627 -819.634705
v 46.2388611 242.454163 -816.936096
v 85.3869629 244.856323 -816.051453
v 124.535187 242.454163 -816.936096
v 163.345459 235.136627 -819.634705
v -8.11416626 216.500092 -798.752258
v 28.335968 224.931763 -794.563416
v 66.2104187 229.200897 -792.442444
v 104.563599 229.200897 -792.442444
v 142.438049 224.931763 -794.563416
v 178.888184 216.500092 -798.752258
v -141.267151 119.371582 -908.207397
v -150.884018 103.263489 -885.741272
v -137.650879 137.099335 -885.741272
v -154.039978 86.4426422 -863.364014
v -144.480194 120.238853 -862.372925
v -128.303299 152.24881 -863.364014
v -150.884048 69.0658493 -841.262939
v -144.480194 102.659622 -839.508911
v -132.042862 134.460693 -839.508911
v -113.455994 164.765778 -841.262939
v -141.267151 51.271347 -819.634705
v -137.650955 84.1976929 -816.936096
v -128.30336 115.872047 -816.051453
v -113.456039 146.061768 -816.936096
v -93.0861664 174.465668 -819.634705
v -124.735657 33.2316055 -798.752258
v -123.124222 64.6373901 -794.563416
v -116.307556 95.8822632 -792.442444
v -104.45575 126.186218 -792.442444
v -87.8647614 154.792572 -794.563416
v -66.948761 180.987335 -798.752258
v -54.6929321 -101.990479 -908.207397
v -39.224884 -114.566658 -885.741272
v -73.8696136 -93.6550598 -885.741272
v -20.9442139 -122.258247 -863.364014
v -56.6787109 -104.261147 -862.372925
v -88.3236237 -81.5877991 -863.364014
v -0.0767211914 -125.134315 -841.262939
v -36.5546875 -109.693489 -839.508911
v -69.1160278 -90.0393524 -839.508911
v -98.0644836 -65.9885635 -841.262939
v 23.2655029 -123.034569 -819.634705
v -13.3098145 -110.002541 -816.936096
v -46.6808777 -92.8288269 -816.051453
v -76.6528625 -71.7684479 -816.936096
v -102.873932 -46.8964233 -819.634705
v 49.025238 -115.547157 -798.752258
v 13.5710449 -104.569023 -794.563416
v -20.0904541 -89.5277786 -792.442566
v -51.1188354 -70.7989807 -792.442566
v -78.7394714 -48.8501587 -794.563416
v -102.262802 -24.2292366 -798.752258
v 225.467041 -101.990479 -908.207397
v 244.643616 -93.6549988 -885.741272
v 209.998901 -114.566658 -885.741272
v 259.097595 -81.5877991 -863.364014
v 227.452698 -104.261147 -862.372925
v 191.718201 -122.258247 -863.364014
v 268.838562 -65.9885635 -841.262939
v 239.890015 -90.0393524 -839.508911
v 207.328674 -109.693489 -839.508911
v 170.850708 -125.134315 -841.262939
v 273.647888 -46.8964233 -819.634705
v 247.42688 -71.7684479 -816.936096
v 217.454834 -92.8288269 -816.051453
v 184.083862 -110.002541 -816.936096
v 147.508484 -123.034569 -819.634705
v 273.036743 -24.2292366 -798.752258
v 249.513428 -48.8501587 -794.563416
v 221.892822 -70.7989807 -792.442566
v 190.864441 -89.5277786 -792.442566
v 157.202972 -104.569023 -794.563416
v 121.748749 -115.547157 -798.752258
v 312.041138 119.371582 -908.207397
v 308.424927 137.099335 -885.741272
v 321.65802 103.263489 -885.741272
v 299.077271 152.24884 -863.364014
v 315.254211 120.238853 -862.372925
v 324.814026 86.4426422 -863.364014
v 284.230042 164.765778 -841.262939
v 302.816895 134.460693 -839.508911
v 315.254211 102.659622 -839.508911
v 321.658081 69.0658493 -841.262939
v 263.860168 174.465668 -819.634705
v 284.230042 146.061768 -816.936096
v 299.077271 115.872047 -816.051453
v 308.424927 84.1976929 -816.936096
v 312.041138 51.271347 -819.634705
v 237.722717 180.987335 -798.752258
v 258.638733 154.792572 -794.563416
v 275.229736 126.186218 -792.442444
v 287.081543 95.8822632 -792.442444
v 293.898254 64.6373901 -794.563416
v 295.509644 33.2316055 -798.752258
v 85.3869629 58.1885452 -715.294006
v 107.859772 83.8858109 -717.317383
v 62.9142151 83.8858109 -717.317383
v 129.771729 108.941696 -723.337036
v 85.3869629 112.454323 -721.273132
v 41.0023193 108.941696 -723.337036
v 150.575653 132.730652 -733.202698
v 106.798615 138.624634 -729.435913
v 63.9753418 138.624634 -729.435913
v 20.1983643 132.730652 -733.202698
v 169.752228 154.658752 -746.668213
v 127.029785 162.314545 -741.387573
v 85.3869629 164.7099 -739.75293
v 43.7442322 162.314545 -741.387573
v 1.02175903 154.658752 -746.668213
v 186.822754 174.178589 -763.397156
v 145.946777 183.389923 -756.924988
v 105.510986 187.721405 -753.883728
v 65.26297 187.721405 -753.883728
v 24.827179 183.389954 -756.924988
v -16.0487366 174.178589 -763.397156
v 201.360962 190.802795 -782.972168
v 163.345459 201.598511 -776.014099
v 124.535187 207.873779 -771.9599
v 85.3869629 209.932373 -770.628479
v 46.2388611 207.873779 -771.9599
v 7.42849731 201.598511 -776.014099
v -30.5869751 190.802795 -782.972168
v 121.748749 48.3730469 -717.317383
v 157.202972 38.802536 -723.337036
v 147.508484 74.9575806 -721.273132
v 190.864441 29.7159595 -733.202698
v 184.083862 66.1267242 -729.435913
v 170.850708 99.9625854 -729.435913
v 221.892822 21.3401566 -746.668213
v 217.454895 57.4621239 -741.387573
v 207.328796 91.1054459 -739.75293
v 191.718323 123.268326 -741.387573
v 249.513428 13.884264 -763.397156
v 247.42688 49.0278816 -756.924988
v 239.890076 82.3158493 -753.883728
v 227.452759 114.116943 -753.883728
v 209.998901 144.727844 -756.924988
v 273.036804 7.53430939 -782.972168
v 273.647949 40.9074974 -776.014099
v 268.838562 73.5117111 -771.9599
v 259.097717 105.079918 -770.628479
v 244.643677 135.375824 -771.9599
v 225.467041 164.101807 -776.014099
v 85.3869629 26.4249992 -717.317383
v 85.3869629 -4.54578972 -723.337036
v 123.780151 14.2866135 -721.273132
v 85.3869629 -33.9505959 -733.202698
v 124.973328 -17.3414764 -729.435913
v 159.618134 3.5701828 -729.435913
v 85.3869629 -61.0551605 -746.668213
v 125.366638 -46.3863907 -741.387634
v 160.751099 -27.9890404 -739.75293
v 192.746155 -5.71593475 -741.387573
v 85.3869629 -85.1830215 -763.397217
v 124.973389 -72.674408 -756.924988
v 160.751099 -56.4328384 -753.883728
v 193.3125 -36.7786407 -753.883728
v 222.961182 -13.5286636 -756.924988
v 85.3869629 -105.731697 -782.972168
v 123.780151 -95.90168 -776.014099
v 159.618134 -82.0263748 -771.9599
v 192.746155 -64.574791 -770.628479
v 222.961182 -43.7922897 -771.9599
v 249.919678 -19.7635345 -776.014099
v 49.025238 48.3730469 -717.317383
v 13.5710754 38.802536 -723.337036
v 46.9938049 14.2866135 -721.273132
v -20.0904541 29.7159595 -733.202698
v 11.1558838 3.5701828 -729.435913
v 45.8006287 -17.3414764 -729.435913
v -51.1188354 21.3401566 -746.668213
v -21.9721069 -5.71593475 -741.387573
v 10.0228577 -27.9890404 -739.75293
v 45.4073181 -46.3863907 -741.387634
v -78.7394714 13.884264 -763.397156
v -52.1871643 -13.5286636 -756.924988
v -22.5384827 -36.7786407 -753.883728
v 10.0228577 -56.4328384 -753.883728
v 45.8006287 -72.674408 -756.92511
v -102.262833 7.53430939 -782.972168
v -79.1456604 -19.7635345 -776.014099
v -52.1871643 -43.7922897 -771.9599
v -21.9721069 -64.574791 -770.628479
v 11.1558838 -82.0263748 -771.9599
v 46.9938049 -95.90168 -776.014099
v 23.265564 74.9575806 -721.273132
v -0.0767211914 99.9625854 -729.435913
v -13.3098755 66.1267242 -729.435913
v -20.9442444 123.268326 -741.387573
v -36.554718 91.1054459 -739.75293
v -46.6808777 57.4621239 -741.387573
v -39.224884 144.727844 -756.924988
v -56.678772 114.116943 -753.883728
v -69.1160889 82.3158493 -753.883728
v -76.6529236 49.0278816 -756.924988
v -54.6929626 164.101807 -776.014099
v -73.8696594 135.375824 -771.9599
v -88.3237152 105.079918 -770.628479
v -98.0645447 73.5117111 -771.9599
v -102.873978 40.9074974 -776.014099
g 
f 3 1 2
f 5 2 4
f 6 3 5
f 8 4 7
f 9 5 8
f 10 6 9
f 12 7 11
f 13 8 12
f 14 9 13
f 15 10 14
f 17 11 16
f 18 12 17
f 19 13 18
f 20 14 19
f 21 15 20
f 23 16 22
f 24 17 23
f 25 18 24
f 26 19 25
f 27 20 26
f 28 21 27
f 30 22 29
f 31 23 30
f 32 24 31
f 33 25 32
f 34 26 33
f 35 27 34
f 36 28 35
f 3 2 5
f 5 4 8
f 6 5 9
f 8 7 12
f 9 8 13
f 10 9 14
f 12 11 17
f 13 12 18
f 14 13 19
f 15 14 20
f 17 16 23
f 18 17 24
f 19 18 25
f 20 19 26
f 21 20 27
f 23 22 30
f 24 23 31
f 25 24 32
f 26 25 33
f 27 26 34
f 28 27 35
f 37 1 3
f 38 3 6
f 39 37 38
f 40 6 10
f 41 38 40
f 42 39 41
f 43 10 15
f 44 40 43
f 45 41 44
f 46 42 45
f 47 15 21
f 48 43 47
f 49 44 48
f 50 45 49
f 51 46 50
f 52 21 28
f 53 47 52
f 54 48 53
f 55 49 54
f 56 50 55
f 57 51 56
f 58 28 36
f 59 52 58
f 60 53 59
f 61 54 60
f 62 55 61
f 63 56 62
f 64 57 63
f 37 3 38
f 38 6 40
f 39 38 41
f 40 10 43
f 41 40 44
f 42 41 45
f 43 15 47
f 44 43 48
f 45 44 49
f 46 45 50
f 47 21 52
f 48 47 53
f 49 48 54
f 50 49 55
f 51 50 56
f 52 28 58
f 53 52 59
f 54 53 60
f 55 54 61
f 56 55 62
f 57 56 63
f 65 1 37
f 66 37 39
f 67 65 66
f 68 39 42
f 69 66 68
f 70 67 69
f 71 42 46
f 72 68 71
f 73 69 72
f 74 70 73
f 75 46 51
f 76 71 75
f 77 72 76
f 78 73 77
f 79 74 78
f 80 51 57
f 81 75 80
f 82 76 81
f 83 77 82
f 84 78 83
f 85 79 84
f 86 57 64
f 87 80 86
f 88 81 87
f 89 82 88
f 90 83 89
f 91 84 90
f 92 85 91
f 65 37 66
f 66 39 68
f 67 66 69
f 68 42 71
f 69 68 72
f 70 69 73
f 71 46 75
f 72 71 76
f 73 72 77
f 74 73 78
f 75 51 80
f 76 75 81
f 77 76 82
f 78 77 83
f 79 78 84
f 80 57 86
f 81 80 87
f 82 81 88
f 83 82 89
f 84 83 90
f 85 84 91
f 93 1 65
f 94 65 67
f 95 93 94
f 96 67 70
f 97 94 96
f 98 95 97
f 99 70 74
f 100 96 99
f 101 97 100
f 102 98 101
f 103 74 79
f 104 99 103
f 105 100 104
f 106 101 105
f 107 102 106
f 108 79 85
f 109 103 108
f 110 104 109
f 111 105 110
f 112 106 111
f 113 107 112
f 114 85 92
f 115 108 114
f 116 109 115
f 117 110 116
f 118 111 117
f 119 112 118
f 120 113 119
f 93 65 94
f 94 67 96
f 95 94 97
f 96 70 99
f 97 96 100
f 98 97 101
f 99 74 103
f 100 99 104
f 101 100 105
f 102 101 106
f 103 79 108
f 104 103 109
f 105 104 110
f 106 105 111
f 107 106 112
f 108 85 114
f 109 108 115
f 110 109 116
f 111 110 117
f 112 111 118
f 113 112 119
f 2 1 93
f 121 93 95
f 4 2 121
f 122 95 98
f 123 121 122
f 7 4 123
f 124 98 102
f 125 122 124
f 126 123 125
f 11 7 126
f 127 102 107
f 128 124 127
f 129 125 128
f 130 126 129
f 16 11 130
f 131 107 113
f 132 127 131
f 133 128 132
f 134 129 133
f 135 130 134
f 22 16 135
f 136 113 120
f 137 131 136
f 138 132 137
f 139 133 138
f 140 134 139
f 141 135 140
f 29 22 141
f 2 93 121
f 121 95 122
f 4 121 123
f 122 98 124
f 123 122 125
f 7 123 126
f 124 102 127
f 125 124 128
f 126 125 129
f 11 126 130
f 127 107 131
f 128 127 132
f 129 128 133
f 130 129 134
f 16 130 135
f 131 113 136
f 132 131 137
f 133 132 138
f 134 133 139
f 135 134 140
f 22 135 141
f 142 29 141
f 143 141 140
f 144 142 143
f 145 140 139
f 146 143 145
f 147 144 146
f 148 139 138
f 149 145 148
f 150 146 149
f 151 147 150
f 152 138 137
f 153 148 152
f 154 149 153
f 155 150 154
f 156 151 155
f 157 137 136
f 158 152 157
f 159 153 158
f 160 154 159
f 161 155 160
f 162 156 161
f 163 136 120
f 164 157 163
f 165 158 164
f 166 159 165
f 167 160 166
f 168 161 167
f 169 162 168
f 142 141 143
f 143 140 145
f 144 143 146
f 145 139 148
f 146 145 149
f 147 146 150
f 148 138 152
f 149 148 153
f 150 149 154
f 151 150 155
f 152 137 157
f 153 152 158
f 154 153 159
f 155 154 160
f 156 155 161
f 157 136 163
f 158 157 164
f 159 158 165
f 160 159 166
f 161 160 167
f 162 161 168
f 170 120 119
f 171 119 118
f 172 170 171
f 173 118 117
f 174 171 173
f 175 172 174
f 176 117 116
f 177 173 176
f 178 174 177
f 179 175 178
f 180 116 115
f 181 176 180
f 182 177 181
f 183 178 182
f 184 179 183
f 185 115 114
f 186 180 185
f 187 181 186
f 188 182 187
f 189 183 188
f 190 184 189
f 191 114 92
f 192 185 191
f 193 186 192
f 194 187 193
f 195 188 194
f 196 189 195
f 197 190 196
f 170 119 171
f 171 118 173
f 172 171 174
f 173 117 176
f 174 173 177
f 175 174 178
f 176 116 180
f 177 176 181
f 178 177 182
f 179 178 183
f 180 115 185
f 181 180 186
f 182 181 187
f 183 182 188
f 184 183 189
f 185 114 191
f 186 185 192
f 187 186 193
f 188 187 194
f 189 188 195
f 190 189 196
f 198 92 91
f 199 91 90
f 200 198 199
f 201 90 89
f 202 199 201
f 203 200 202
f 204 89 88
f 205 201 204
f 206 202 205
f 207 203 206
f 208 88 87
f 209 204 208
f 210 205 209
f 211 206 210
f 212 207 211
f 213 87 86
f 214 208 213
f 215 209 214
f 216 210 215
f 217 211 216
f 218 212 217
f 219 86 64
f 220 213 219
f 221 214 220
f 222 215 221
f 223 216 222
f 224 217 223
f 225 218 224
f 198 91 199
f 199 90 201
f 200 199 202
f 201 89 204
f 202 201 205
f 203 202 206
f 204 88 208
f 205 204 209
f 206 205 210
f 207 206 211
f 208 87 213
f 209 208 214
f 210 209 215
f 211 210 216
f 212 211 217
f 213 86 219
f 214 213 220
f 215 214 221
f 216 215 222
f 217 216 223
f 218 217 224
f 226 64 63
f 227 63 62
f 228 226 227
f 229 62 61
f 230 227 229
f 231 228 230
f 232 61 60
f 233 229 232
f 234 230 233
f 235 231 234
f 236 60 59
f 237 232 236
f 238 233 237
f 239 234 238
f 240 235 239
f 241 59 58
f 242 236 241
f 243 237 242
f 244 238 243
f 245 239 244
f 246 240 245
f 247 58 36
f 248 241 247
f 249 242 248
f 250 243 249
f 251 244 250
f 252 245 251
f 253 246 252
f 226 63 227
f 227 62 229
f 228 227 230
f 229 61 232
f 230 229 233
f 231 230 234
f 232 60 236
f 233 232 237
f 234 233 238
f 235 234 239
f 236 59 241
f 237 236 242
f 238 237 243
f 239 238 244
f 240 239 245
f 241 58 247
f 242 241 248
f 243 242 249
f 244 243 250
f 245 244 251
f 246 245 252
f 254 36 35
f 255 35 34
f 256 254 255
f 257 34 33
f 258 255 257
f 259 256 258
f 260 33 32
f 261 257 260
f 262 258 261
f 263 259 262
f 264 32 31
f 265 260 264
f 266 261 265
f 267 262 266
f 268 263 267
f 269 31 30
f 270 264 269
f 271 265 270
f 272 266 271
f 273 267 272
f 274 268 273
f 275 30 29
f 276 269 275
f 277 270 276
f 278 271 277
f 279 272 278
f 280 273 279
f 281 274 280
f 254 35 255
f 255 34 257
f 256 255 258
f 257 33 260
f 258 257 261
f 259 258 262
f 260 32 264
f 261 260 265
f 262 261 266
f 263 262 267
f 264 31 269
f 265 264 270
f 266 265 271
f 267 266 272
f 268 267 273
f 269 30 275
f 270 269 276
f 271 270 277
f 272 271 278
f 273 272 279
f 274 273 280
f 275 29 142
f 282 142 144
f 276 275 282
f 283 144 147
f 284 282 283
f 277 276 284
f 285 147 151
f 286 283 285
f 287 284 286
f 278 277 287
f 288 151 156
f 289 285 288
f 290 286 289
f 291 287 290
f 279 278 291
f 292 156 162
f 293 288 292
f 294 289 293
f 295 290 294
f 296 291 295
f 280 279 296
f 297 162 169
f 298 292 297
f 299 293 298
f 300 294 299
f 301 295 300
f 302 296 301
f 281 280 302
f 275 142 282
f 282 144 283
f 276 282 284
f 283 147 285
f 284 283 286
f 277 284 287
f 285 151 288
f 286 285 289
f 287 286 290
f 278 287 291
f 288 156 292
f 289 288 293
f 290 289 294
f 291 290 295
f 279 291 296
f 292 162 297
f 293 292 298
f 294 293 299
f 295 294 300
f 296 295 301
f 280 296 302
f 163 120 170
f 303 170 172
f 164 163 303
f 304 172 175
f 305 303 304
f 165 164 305
f 306 175 179
f 307 304 306
f 308 305 307
f 166 165 308
f 309 179 184
f 310 306 309
f 311 307 310
f 312 308 311
f 167 166 312
f 313 184 190
f 314 309 313
f 315 310 314
f 316 311 315
f 317 312 316
f 168 167 317
f 318 190 197
f 319 313 318
f 320 314 319
f 321 315 320
f 322 316 321
f 323 317 322
f 169 168 323
f 163 170 303
f 303 172 304
f 164 303 305
f 304 175 306
f 305 304 307
f 165 305 308
f 306 179 309
f 307 306 310
f 308 307 311
f 166 308 312
f 309 184 313
f 310 309 314
f 311 310 315
f 312 311 316
f 167 312 317
f 313 190 318
f 314 313 319
f 315 314 320
f 316 315 321
f 317 316 322
f 168 317 323
f 191 92 198
f 324 198 200
f 192 191 324
f 325 200 203
f 326 324 325
f 193 192 326
f 327 203 207
f 328 325 327
f 329 326 328
f 194 193 329
f 330 207 212
f 331 327 330
f 332 328 331
f 333 329 332
f 195 194 333
f 334 212 218
f 335 330 334
f 336 331 335
f 337 332 336
f 338 333 337
f 196 195 338
f 339 218 225
f 340 334 339
f 341 335 340
f 342 336 341
f 343 337 342
f 344 338 343
f 197 196 344
f 191 198 324
f 324 200 325
f 192 324 326
f 325 203 327
f 326 325 328
f 193 326 329
f 327 207 330
f 328 327 331
f 329 328 332
f 194 329 333
f 330 212 334
f 331 330 335
f 332 331 336
f 333 332 337
f 195 333 338
f 334 218 339
f 335 334 340
f 336 335 341
f 337 336 342
f 338 337 343
f 196 338 344
f 219 64 226
f 345 226 228
f 220 219 345
f 346 228 231
f 347 345 346
f 221 220 347
f 348 231 235
f 349 346 348
f 350 347 349
f 222 221 350
f 351 235 240
f 352 348 351
f 353 349 352
f 354 350 353
f 223 222 354
f 355 240 246
f 356 351 355
f 357 352 356
f 358 353 357
f 359 354 358
f 224 223 359
f 360 246 253
f 361 355 360
f 362 356 361
f 363 357 362
f 364 358 363
f 365 359 364
f 225 224 365
f 219 226 345
f 345 228 346
f 220 345 347
f 346 231 348
f 347 346 349
f 221 347 350
f 348 235 351
f 349 348 352
f 350 349 353
f 222 350 354
f 351 240 355
f 352 351 356
f 353 352 357
f 354 353 358
f 223 354 359
f 355 246 360
f 356 355 361
f 357 356 362
f 358 357 363
f 359 358 364
f 224 359 365
f 247 36 254
f 366 254 256
f 248 247 366
f 367 256 259
f 368 366 367
f 249 248 368
f 369 259 263
f 370 367 369
f 371 368 370
f 250 249 371
f 372 263 268
f 373 369 372
f 374 370 373
f 375 371 374
f 251 250 375
f 376 268 274
f 377 372 376
f 378 373 377
f 379 374 378
f 380 375 379
f 252 251 380
f 381 274 281
f 382 376 381
f 383 377 382
f 384 378 383
f 385 379 384
f 386 380 385
f 253 252 386
f 247 254 366
f 366 256 367
f 248 366 368
f 367 259 369
f 368 367 370
f 249 368 371
f 369 263 372
f 370 369 373
f 371 370 374
f 250 371 375
f 372 268 376
f 373 372 377
f 374 373 378
f 375 374 379
f 251 375 380
f 376 274 381
f 377 376 382
f 378 377 383
f 379 378 384
f 380 379 385
f 252 380 386
f 389 387 388
f 391 388 390
f 392 389 391
f 394 390 393
f 395 391 394
f 396 392 395
f 398 393 397
f 399 394 398
f 400 395 399
f 401 396 400
f 403 397 402
f 404 398 403
f 405 399 404
f 406 400 405
f 407 401 406
f 409 402 408
f 410 403 409
f 411 404 410
f 412 405 411
f 413 406 412
f 414 407 413
f 302 408 281
f 301 409 302
f 300 410 301
f 299 411 300
f 298 412 299
f 297 413 298
f 169 414 297
f 389 388 391
f 391 390 394
f 392 391 395
f 394 393 398
f 395 394 399
f 396 395 400
f 398 397 403
f 399 398 404
f 400 399 405
f 401 400 406
f 403 402 409
f 404 403 410
f 405 404 411
f 406 405 412
f 407 406 413
f 409 408 302
f 410 409 301
f 411 410 300
f 412 411 299
f 413 412 298
f 414 413 297
f 388 387 415
f 417 415 416
f 390 388 417
f 419 416 418
f 420 417 419
f 393 390 420
f 422 418 421
f 423 419 422
f 424 420 423
f 397 393 424
f 426 421 425
f 427 422 426
f 428 423 427
f 429 424 428
f 402 397 429
f 431 425 430
f 432 426 431
f 433 427 432
f 434 428 433
f 435 429 434
f 408 402 435
f 386 430 253
f 385 431 386
f 384 432 385
f 383 433 384
f 382 434 383
f 381 435 382
f 281 408 381
f 388 415 417
f 417 416 419
f 390 417 420
f 419 418 422
f 420 419 423
f 393 420 424
f 422 421 426
f 423 422 427
f 424 423 428
f 397 424 429
f 426 425 431
f 427 426 432
f 428 427 433
f 429 428 434
f 402 429 435
f 431 430 386
f 432 431 385
f 433 432 384
f 434 433 383
f 435 434 382
f 408 435 381
f 415 387 436
f 438 436 437
f 416 415 438
f 440 437 439
f 441 438 440
f 418 416 441
f 443 439 442
f 444 440 443
f 445 441 444
f 421 418 445
f 447 442 446
f 448 443 447
f 449 444 448
f 450 445 449
f 425 421 450
f 452 446 451
f 453 447 452
f 454 448 453
f 455 449 454
f 456 450 455
f 430 425 456
f 365 451 225
f 364 452 365
f 363 453 364
f 362 454 363
f 361 455 362
f 360 456 361
f 253 430 360
f 415 436 438
f 438 437 440
f 416 438 441
f 440 439 443
f 441 440 444
f 418 441 445
f 443 442 447
f 444 443 448
f 445 444 449
f 421 445 450
f 447 446 452
f 448 447 453
f 449 448 454
f 450 449 455
f 425 450 456
f 452 451 365
f 453 452 364
f 454 453 363
f 455 454 362
f 456 455 361
f 430 456 360
f 436 387 457
f 459 457 458
f 437 436 459
f 461 458 460
f 462 459 461
f 439 437 462
f 464 460 463
f 465 461 464
f 466 462 465
f 442 439 466
f 468 463 467
f 469 464 468
f 470 465 469
f 471 466 470
f 446 442 471
f 473 467 472
f 474 468 473
f 475 469 474
f 476 470 475
f 477 471 476
f 451 446 477
f 344 472 197
f 343 473 344
f 342 474 343
f 341 475 342
f 340 476 341
f 339 477 340
f 225 451 339
f 436 457 459
f 459 458 461
f 437 459 462
f 461 460 464
f 462 461 465
f 439 462 466
f 464 463 468
f 465 464 469
f 466 465 470
f 442 466 471
f 468 467 473
f 469 468 474
f 470 469 475
f 471 470 476
f 446 471 477
f 473 472 344
f 474 473 343
f 475 474 342
f 476 475 341
f 477 476 340
f 451 477 339
f 457 387 389
f 478 389 392
f 458 457 478
f 479 392 396
f 480 478 479
f 460 458 480
f 481 396 401
f 482 479 481
f 483 480 482
f 463 460 483
f 484 401 407
f 485 481 484
f 486 482 485
f 487 483 486
f 467 463 487
f 488 407 414
f 489 484 488
f 490 485 489
f 491 486 490
f 492 487 491
f 472 467 492
f 323 414 169
f 322 488 323
f 321 489 322
f 320 490 321
f 319 491 320
f 318 492 319
f 197 472 318
f 457 389 478
f 478 392 479
f 458 478 480
f 479 396 481
f 480 479 482
f 460 480 483
f 481 401 484
f 482 481 485
f 483 482 486
f 463 483 487
f 484 407 488
f 485 484 489
f 486 485 490
f 487 486 491
f 467 487 492
f 488 414 323
f 489 488 322
f 490 489 321
f 491 490 320
f 492 491 319
f 472 492 318
