# File exported by Houdini 20.5.445 (www.sidefx.com)
# 492 points
# 2940 vertices
# 980 primitives
# Bounds: [-39.5975037, -250.60994, -1081.48767] to [210.371429, 366.987061, -673.313354]
g 
v 85.3869934 58.1885452 -1081.48767
v 85.3869934 107.036133 -1078.94031
v 104.167877 73.2833481 -1078.94031
v 85.3869934 154.664505 -1071.36169
v 105.217133 125.703125 -1073.96008
v 122.47995 88.0012894 -1071.36169
v 85.3869934 199.884674 -1058.94104
v 105.833344 174.342361 -1063.68335
v 123.727386 142.183319 -1063.68335
v 139.86618 101.975121 -1058.94104
v 85.3869934 241.567459 -1041.98853
v 106.03653 219.009048 -1048.6366
v 124.312653 190.716736 -1050.69458
v 140.838043 156.46402 -1048.6366
v 155.892303 114.85585 -1041.98853
v 85.3869934 278.672455 -1020.92725
v 105.833344 259.436066 -1029.07544
v 124.312653 234.459 -1032.9043
v 141.130524 204.233917 -1032.9043
v 156.444122 168.478775 -1029.07544
v 170.158356 126.32193 -1020.92725
v 85.3869934 310.273254 -996.282837
v 105.217133 295.156189 -1005.04297
v 123.727386 273.818054 -1010.14697
v 140.838043 246.980164 -1011.82336
v 156.444122 215.019852 -1010.14697
v 170.368195 178.067062 -1005.04297
v 182.308197 136.087143 -996.282837
v 85.3869934 335.580872 -968.670898
v 104.167877 325.367981 -976.41626
v 122.47995 308.485229 -981.689941
v 139.86618 285.354004 -984.359985
v 155.892303 256.551971 -984.359985
v 170.158356 222.797943 -981.689941
v 182.308197 184.934692 -976.41626
v 192.038483 143.907623 -968.671021
v 96.9941711 18.670023 -1078.94031
v 117.472748 32.4002419 -1073.96008
v 108.311737 -19.8620987 -1071.36169
v 136.363922 45.9808159 -1063.68335
v 129.529022 -6.05358505 -1063.68335
v 119.056915 -56.4459152 -1058.94104
v 153.600128 59.3057175 -1048.6366
v 148.369904 7.56731224 -1050.69458
v 140.307098 -41.8943253 -1048.6366
v 128.9617 -90.1680984 -1041.98853
v 169.080719 72.2762604 -1029.07544
v 165.187958 21.0843906 -1032.90442
v 158.764069 -27.8208466 -1032.90442
v 149.749054 -74.8958282 -1029.07544
v 137.778595 -120.186691 -1020.92725
v 182.623871 84.7642365 -1005.04297
v 180.139801 34.6238632 -1010.14697
v 175.108673 -13.9233131 -1011.82336
v 167.643097 -60.5138245 -1010.14697
v 157.738373 -104.690079 -1005.04297
v 145.287628 -145.752151 -996.282837
v 193.915436 96.5685959 -976.41626
v 193.08316 48.2712402 -981.689941
v 189.562347 0.221340179 -984.360107
v 183.440826 -46.3816071 -984.360107
v 174.871613 -90.3739319 -981.689941
v 164.068451 -130.65744 -976.41626
v 151.301239 -166.226486 -968.671021
v 73.7797852 18.670023 -1078.94031
v 85.3869934 -25.2640343 -1073.96008
v 62.4622803 -19.8620987 -1071.36169
v 96.4461365 -65.5100708 -1063.68335
v 74.3278809 -65.5100708 -1063.68335
v 51.7170105 -56.4459152 -1058.94104
v 106.895538 -101.941559 -1048.6366
v 85.3869934 -105.625229 -1050.69458
v 63.878479 -101.941559 -1048.6366
v 41.8123169 -90.1680984 -1041.98853
v 116.666229 -134.35231 -1029.07544
v 95.7810364 -141.013489 -1032.90442
v 74.9929199 -141.013489 -1032.90442
v 54.1078186 -134.35231 -1029.07544
v 32.9953613 -120.186691 -1020.92725
v 125.652557 -162.35437 -1005.04297
v 105.607025 -172.004807 -1010.14697
v 85.3869934 -175.170593 -1011.82336
v 65.1669617 -172.004807 -1010.14697
v 45.1213989 -162.35437 -1005.04297
v 25.4863892 -145.752151 -996.282837
v 133.680389 -185.270767 -976.41626
v 114.853912 -198.237427 -981.689941
v 95.2917175 -204.802658 -984.360107
v 75.4822693 -204.802658 -984.360107
v 55.920105 -198.237427 -981.689941
v 37.0935669 -185.270767 -976.41626
v 19.4727173 -166.226486 -968.671021
v 66.6061096 73.2833481 -1078.94031
v 53.3012085 32.4002419 -1073.96008
v 48.2940063 88.0012894 -1071.36169
v 41.2449341 -6.05358505 -1063.68335
v 34.4100342 45.9808159 -1063.68335
v 30.9078369 101.975121 -1058.94104
v 30.4668274 -41.8943253 -1048.6366
v 22.4040222 7.56731224 -1050.69458
v 17.1738586 59.3057175 -1048.6366
v 14.8816528 114.85585 -1041.98853
v 21.0248718 -74.8958282 -1029.07544
v 12.0099487 -27.8208466 -1032.90442
v 5.58605957 21.0843906 -1032.90442
v 1.69326782 72.2762604 -1029.07544
v 0.615570068 126.32193 -1020.92725
v 13.035614 -104.690079 -1005.04297
v 3.13082886 -60.5138245 -1010.14697
v -4.33468628 -13.9233131 -1011.82336
v -9.36581421 34.6238632 -1010.14697
v -11.8499146 84.7642365 -1005.04297
v -11.5342712 136.087143 -996.282837
v 6.70547485 -130.65744 -976.41626
v -4.09762573 -90.3739319 -981.689941
v -12.6669006 -46.3816071 -984.360107
v -18.7883606 0.221340179 -984.360107
v -22.3091736 48.2712402 -981.689941
v -23.1414795 96.5685959 -976.41626
v -21.2644958 143.907623 -968.671021
v 65.5568848 125.703125 -1073.96008
v 47.0466003 142.183319 -1063.68335
v 64.9406433 174.342361 -1063.68335
v 29.9359436 156.46402 -1048.6366
v 46.4613647 190.716736 -1050.69458
v 64.7374878 219.009048 -1048.6366
v 14.3298645 168.478775 -1029.07544
v 29.6434326 204.233917 -1032.9043
v 46.4613647 234.459 -1032.9043
v 64.9406128 259.436066 -1029.07532
v 0.405792236 178.067062 -1005.04297
v 14.3298645 215.019852 -1010.14697
v 29.9359436 246.980164 -1011.82336
v 47.0466003 273.818054 -1010.14697
v 65.5568848 295.156189 -1005.04297
v -11.5342407 184.934692 -976.41626
v 0.615570068 222.797943 -981.689941
v 14.8816528 256.551971 -984.359985
v 30.9078369 285.354004 -984.359985
v 48.2940063 308.485229 -981.689941
v 66.6061096 325.367981 -976.41626
v 73.7797852 349.791748 -944.271729
v 53.3012085 336.882446 -950.125854
v 62.4622498 356.723206 -918.202881
v 34.4100342 316.841064 -953.523315
v 41.2449341 340.111572 -922.896484
v 51.7170105 356.202026 -891.115479
v 17.1738586 290.430603 -954.637085
v 22.4040527 316.365845 -925.104858
v 30.4668579 335.68866 -895.072021
v 41.8123169 348.241333 -863.685669
v 1.69329834 258.042816 -953.523315
v 5.58612061 286.140747 -925.104858
v 12.0099792 308.01178 -896.319824
v 21.0249023 323.860107 -866.89978
v 32.9953613 333.039795 -836.598145
v -11.849884 219.793396 -950.125854
v -9.36581421 249.154266 -922.896484
v -4.33462524 273.143555 -895.072021
v 3.13088989 291.701111 -866.89978
v 13.0356445 304.519775 -838.615601
v 25.4863892 310.976929 -810.529297
v -23.141449 175.605621 -944.271729
v -22.3091125 204.37262 -918.202881
v -18.7883301 229.490341 -891.115479
v -12.6668701 250.331757 -863.685669
v -4.09759521 266.376526 -836.598145
v 6.70550537 277.224091 -810.529297
v 19.4727173 282.603638 -786.130005
v -30.315094 120.992355 -944.271729
v -31.6799927 68.8261414 -950.125854
v -36.4773865 96.5091782 -918.202881
v -29.8122253 18.1903954 -953.523315
v -36.6470947 41.4608879 -922.896484
v -39.5975037 71.0693207 -891.115479
v -24.9841919 -30.5200119 -954.637085
v -33.3395386 -10.2012177 -925.104858
v -38.2771912 14.7380066 -895.072021
v -39.5975037 45.3078728 -863.685669
v -17.3155518 -76.947197 -953.523315
v -26.9156494 -59.1065521 -925.104858
v -33.3395386 -37.235466 -896.319824
v -36.6470947 -11.1299133 -866.89978
v -36.4773865 19.8679543 -836.598145
v -6.79449463 -120.628159 -950.125854
v -17.3155212 -105.711197 -922.896484
v -24.9841919 -86.4620361 -895.072021
v -29.8121948 -63.1644058 -866.89978
v -31.6799927 -35.9017334 -838.615601
v -30.315094 -4.61527061 -810.529297
v 6.70550537 -160.846954 -944.271729
v -4.09759521 -149.999435 -918.202881
v -12.6668701 -133.954681 -891.115479
v -18.7883301 -113.113266 -863.685669
v -22.3091125 -87.9955292 -836.598145
v -23.141449 -59.2285004 -810.529297
v -21.2644958 -27.5305481 -786.130005
v 25.4863892 -194.599792 -944.271729
v 45.1213989 -213.930954 -950.125854
v 32.9953613 -216.662659 -918.202881
v 65.1669617 -225.18428 -953.523315
v 54.1078186 -234.072769 -922.896484
v 41.8123169 -231.864151 -891.115479
v 85.3869934 -228.878372 -954.637085
v 74.9929199 -242.255936 -925.104858
v 63.878479 -246.165359 -895.072021
v 51.7170105 -239.824875 -863.685669
v 105.607025 -225.18428 -953.523315
v 95.7810364 -242.255936 -925.104858
v 85.3869934 -250.60994 -896.319824
v 74.3278809 -250.324112 -866.89978
v 62.4622498 -240.346085 -836.598145
v 125.652557 -213.930954 -950.125854
v 116.666168 -234.072769 -922.896484
v 106.895477 -246.165359 -895.072021
v 96.4461365 -250.324112 -866.89978
v 85.3869934 -246.293472 -838.615601
v 73.7797852 -233.414505 -810.529358
v 145.287628 -194.599792 -944.271729
v 137.778595 -216.662659 -918.202881
v 128.9617 -231.864151 -891.115479
v 119.056915 -239.824875 -863.685669
v 108.311737 -240.346085 -836.598145
v 96.9941711 -233.414505 -810.529358
v 85.3869934 -219.20372 -786.130005
v 164.068451 -160.846954 -944.271729
v 177.568512 -120.628159 -950.125854
v 174.871613 -149.999435 -918.202881
v 188.089508 -76.947197 -953.523315
v 188.089508 -105.711197 -922.896484
v 183.440826 -133.954681 -891.115479
v 195.758148 -30.5200119 -954.637085
v 197.689667 -59.1065521 -925.104858
v 195.758148 -86.4620361 -895.072021
v 189.562286 -113.113266 -863.685669
v 200.586212 18.1903954 -953.523315
v 204.113556 -10.2012177 -925.104858
v 204.113556 -37.235466 -896.319824
v 200.586212 -63.1644058 -866.89978
v 193.083099 -87.9955292 -836.598145
v 202.45401 68.8261414 -950.125854
v 207.421112 41.4608879 -922.896484
v 209.051117 14.7380066 -895.072021
v 207.421112 -11.1299133 -866.89978
v 202.45401 -35.9017334 -838.615601
v 193.915375 -59.2285004 -810.529297
v 201.089081 120.992355 -944.271729
v 207.251434 96.5091782 -918.202881
v 210.371429 71.0693207 -891.115479
v 210.371429 45.3078728 -863.685669
v 207.251434 19.8679543 -836.598145
v 201.089081 -4.61527061 -810.529297
v 192.038483 -27.5305481 -786.130005
v 193.915375 175.605621 -944.271729
v 182.623871 219.793396 -950.125854
v 193.083099 204.37262 -918.202881
v 169.080658 258.042816 -953.523315
v 180.139801 249.154266 -922.896484
v 189.562286 229.490341 -891.115479
v 153.600128 290.430603 -954.637085
v 165.187897 286.140747 -925.104858
v 175.108612 273.143555 -895.072021
v 183.440826 250.331757 -863.685669
v 136.363922 316.841064 -953.523315
v 148.369904 316.365845 -925.104858
v 158.763947 308.01178 -896.319824
v 167.643097 291.701111 -866.89978
v 174.871613 266.376526 -836.598145
v 117.472748 336.882446 -950.125854
v 129.529022 340.111572 -922.896484
v 140.307037 335.68866 -895.072021
v 149.749054 323.860107 -866.89978
v 157.738373 304.519775 -838.615601
v 164.068451 277.224091 -810.529297
v 96.9941711 349.791748 -944.271729
v 108.311737 356.723206 -918.202881
v 119.056915 356.202026 -891.115479
v 128.9617 348.241333 -863.685669
v 137.778595 333.039795 -836.598145
v 145.287628 310.976929 -810.529297
v 151.301239 282.603638 -786.130005
v 85.3869934 362.670715 -916.185425
v 74.3278809 366.701294 -887.901245
v 96.4461365 366.701294 -887.901245
v 63.878479 362.542419 -859.729004
v 85.3869934 366.987061 -858.481079
v 106.895477 362.542419 -859.729004
v 54.1078186 350.44989 -831.904419
v 74.9929199 358.633057 -829.696167
v 95.7810364 358.633057 -829.696167
v 116.666168 350.44989 -831.904419
v 45.1213989 330.308105 -804.675049
v 65.1669617 341.56134 -801.277649
v 85.3869934 345.255432 -800.16394
v 105.607025 341.56134 -801.277649
v 125.652557 330.308105 -804.675049
v 37.0935669 301.647888 -778.384644
v 55.920105 314.614502 -773.111084
v 75.4822693 321.17981 -770.440979
v 95.2917175 321.17981 -770.440979
v 114.853912 314.614502 -773.111084
v 133.680389 301.647888 -778.384644
v -31.6799927 152.278809 -916.185425
v -36.6470947 127.507034 -887.901245
v -29.8121948 179.541489 -887.901245
v -38.2771912 101.639091 -859.729004
v -33.3395386 153.612549 -858.481079
v -24.9841919 202.839127 -859.729004
v -36.6470947 74.9162064 -831.904419
v -33.3395386 126.578354 -829.696167
v -26.9156494 175.483627 -829.696167
v -17.3155212 222.088287 -831.904419
v -31.6799927 47.5509453 -804.675049
v -29.8122253 98.1866913 -801.277588
v -24.9841919 146.897095 -800.16394
v -17.3155518 193.324326 -801.277588
v -6.79449463 237.005234 -804.675049
v -23.1414795 19.8085442 -778.384644
v -22.3091736 68.1059418 -773.111084
v -18.7883606 116.155807 -770.440918
v -12.6669006 162.758682 -770.440918
v -4.09762573 206.751007 -773.111084
v 6.70547485 247.034576 -778.384644
v 13.0356445 -188.142761 -916.185425
v 21.0249023 -207.483032 -887.901245
v 3.13088989 -175.323959 -887.901245
v 30.4668579 -219.311523 -859.729004
v 12.0099792 -191.63472 -858.481079
v -4.33462524 -156.766418 -859.729004
v 41.2449341 -223.734375 -831.904419
v 22.4040527 -199.988815 -829.696167
v 5.58612061 -169.763641 -829.696167
v -9.36578369 -132.777145 -831.904419
v 53.3012085 -220.505386 -804.67511
v 34.4100342 -200.463989 -801.277649
v 17.1738586 -174.053513 -800.16394
v 1.69329834 -141.665741 -801.277649
v -11.849884 -103.416313 -804.67511
v 66.6061096 -208.990906 -778.384705
v 48.2940063 -192.108078 -773.111084
v 30.9078369 -168.976898 -770.440979
v 14.8816528 -140.174835 -770.440979
v 0.615570068 -106.420868 -773.111084
v -11.5342407 -68.5576096 -778.384705
v 157.738373 -188.142761 -916.185425
v 167.643097 -175.323959 -887.901245
v 149.749054 -207.483032 -887.901245
v 175.108612 -156.766418 -859.729004
v 158.763947 -191.63472 -858.481079
v 140.307037 -219.311523 -859.729004
v 180.139801 -132.777145 -831.904419
v 165.187897 -169.763641 -829.696167
v 148.369904 -199.988632 -829.696167
v 129.529022 -223.734467 -831.904419
v 182.623871 -103.416313 -804.67511
v 169.080658 -141.665741 -801.277649
v 153.600128 -174.053513 -800.16394
v 136.363922 -200.463989 -801.277649
v 117.472748 -220.505386 -804.67511
v 182.308197 -68.5576096 -778.384705
v 170.158356 -106.420868 -773.111084
v 155.892303 -140.174835 -770.440979
v 139.86618 -168.976898 -770.440979
v 122.47995 -192.108078 -773.111084
v 104.167877 -208.990906 -778.384705
v 202.45401 152.278809 -916.185425
v 200.586212 179.541489 -887.901245
v 207.421112 127.507034 -887.901245
v 195.758148 202.839127 -859.729004
v 204.113556 153.612549 -858.481079
v 209.051117 101.639091 -859.729004
v 188.089508 222.088287 -831.904419
v 197.689667 175.483627 -829.696167
v 204.113556 126.578354 -829.696167
v 207.421112 74.9162064 -831.904419
v 177.568512 237.005203 -804.675049
v 188.089508 193.324326 -801.277588
v 195.758148 146.897095 -800.16394
v 200.586212 98.1866913 -801.277588
v 202.45401 47.5509453 -804.675049
v 164.068451 247.034576 -778.384644
v 174.871613 206.751007 -773.111084
v 183.440826 162.758682 -770.440918
v 189.562347 116.155807 -770.440918
v 193.08316 68.1059418 -773.111084
v 193.915436 19.8085442 -778.384644
v 85.3869934 58.1885452 -673.313354
v 96.9941711 97.7070618 -675.860718
v 73.7797852 97.7070618 -675.860718
v 108.311737 136.239182 -683.439331
v 85.3869934 141.641113 -680.840881
v 62.4622803 136.239182 -683.439331
v 119.056915 172.823044 -695.859924
v 96.4461365 181.887146 -691.117615
v 74.3278809 181.887146 -691.117615
v 51.7170105 172.823044 -695.859924
v 128.9617 206.545227 -712.8125
v 106.895538 218.318649 -706.164429
v 85.3869934 222.00235 -704.106445
v 63.878479 218.318649 -706.164429
v 41.8123169 206.545227 -712.8125
v 137.778595 236.563766 -733.873779
v 116.666229 250.729401 -725.725525
v 95.7810364 257.390564 -721.896545
v 74.9929199 257.390564 -721.896545
v 54.1078186 250.729431 -725.725525
v 32.9953613 236.563766 -733.873779
v 145.287628 262.129303 -758.518127
v 125.652557 278.731506 -749.758118
v 105.607025 288.381897 -744.653992
v 85.3869934 291.547729 -742.977661
v 65.1669617 288.381897 -744.653992
v 45.1213989 278.731506 -749.758118
v 25.4863892 262.129303 -758.518127
v 104.167877 43.09375 -675.860718
v 122.47995 28.3757973 -683.439331
v 117.472748 83.9768448 -680.840881
v 139.86618 14.4019604 -695.859924
v 136.363922 70.3962784 -691.117615
v 129.529022 122.43071 -691.117615
v 155.892303 1.52128983 -712.8125
v 153.600128 57.071373 -706.164429
v 148.369904 108.809776 -704.106445
v 140.307098 158.271408 -706.164429
v 170.158356 -9.9447937 -733.873779
v 169.080719 44.1008301 -725.725525
v 165.187958 95.2927017 -721.896545
v 158.764069 144.197983 -721.896545
v 149.749054 191.272949 -725.725525
v 182.308197 -19.7100716 -758.518127
v 182.623871 31.612854 -749.758118
v 180.139801 81.753273 -744.653992
v 175.108673 130.3004 -742.977661
v 167.643097 176.890961 -744.653992
v 157.738373 221.067154 -749.758118
v 85.3869934 9.34100533 -675.860718
v 85.3869934 -38.2874374 -683.439331
v 105.217133 -9.32604218 -680.840881
v 85.3869934 -83.5075836 -695.859924
v 105.833344 -57.965271 -691.117615
v 123.727386 -25.8062019 -691.117615
v 85.3869934 -125.190323 -712.8125
v 106.03653 -102.631958 -706.16449
v 124.312653 -74.3396225 -704.106445
v 140.838043 -40.0869446 -706.164429
v 85.3869934 -162.295334 -733.87384
v 105.833344 -143.058975 -725.725525
v 124.312653 -118.081879 -721.896606
v 141.130524 -87.8567886 -721.896606
v 156.444122 -52.1016464 -725.725525
v 85.3869934 -193.896011 -758.518127
v 105.217133 -178.779099 -749.758118
v 123.727386 -157.440964 -744.653992
v 140.838043 -130.603073 -742.977783
v 156.444122 -98.6427231 -744.653992
v 170.368195 -61.6899338 -749.758118
v 66.6061096 43.09375 -675.860718
v 48.2940063 28.3757973 -683.439331
v 65.5568848 -9.32604218 -680.840881
v 30.9078369 14.4019604 -695.859924
v 47.0466003 -25.8062019 -691.117615
v 64.9406433 -57.965271 -691.117615
v 14.8816528 1.52128983 -712.8125
v 29.9359436 -40.0869446 -706.164429
v 46.4613647 -74.3396225 -704.106445
v 64.7374878 -102.631958 -706.16449
v 0.615570068 -9.9447937 -733.873779
v 14.3298645 -52.1016464 -725.725525
v 29.6434326 -87.8567886 -721.896606
v 46.4613647 -118.081879 -721.896606
v 64.9406128 -143.058975 -725.725586
v -11.5342712 -19.7100716 -758.518127
v 0.405792236 -61.6899338 -749.758118
v 14.3298645 -98.6427231 -744.653992
v 29.9359436 -130.603073 -742.977783
v 47.0466003 -157.440964 -744.653992
v 65.5568848 -178.779099 -749.758118
v 53.3012085 83.9768448 -680.840881
v 41.2449341 122.43071 -691.117615
v 34.4100342 70.3962784 -691.117615
v 30.4668274 158.271408 -706.164429
v 22.4040222 108.809776 -704.106445
v 17.1738586 57.071373 -706.164429
v 21.0248718 191.272949 -725.725525
v 12.0099487 144.197983 -721.896545
v 5.58605957 95.2927017 -721.896545
v 1.69326782 44.1008301 -725.725525
v 13.035614 221.067154 -749.758118
v 3.13082886 176.890961 -744.653992
v -4.33468628 130.3004 -742.977661
v -9.36581421 81.753273 -744.653992
v -11.8499146 31.612854 -749.758118
g 
f 3 1 2
f 5 2 4
f 6 3 5
f 8 4 7
f 9 5 8
f 10 6 9
f 12 7 11
f 13 8 12
f 14 9 13
f 15 10 14
f 17 11 16
f 18 12 17
f 19 13 18
f 20 14 19
f 21 15 20
f 23 16 22
f 24 17 23
f 25 18 24
f 26 19 25
f 27 20 26
f 28 21 27
f 30 22 29
f 31 23 30
f 32 24 31
f 33 25 32
f 34 26 33
f 35 27 34
f 36 28 35
f 3 2 5
f 5 4 8
f 6 5 9
f 8 7 12
f 9 8 13
f 10 9 14
f 12 11 17
f 13 12 18
f 14 13 19
f 15 14 20
f 17 16 23
f 18 17 24
f 19 18 25
f 20 19 26
f 21 20 27
f 23 22 30
f 24 23 31
f 25 24 32
f 26 25 33
f 27 26 34
f 28 27 35
f 37 1 3
f 38 3 6
f 39 37 38
f 40 6 10
f 41 38 40
f 42 39 41
f 43 10 15
f 44 40 43
f 45 41 44
f 46 42 45
f 47 15 21
f 48 43 47
f 49 44 48
f 50 45 49
f 51 46 50
f 52 21 28
f 53 47 52
f 54 48 53
f 55 49 54
f 56 50 55
f 57 51 56
f 58 28 36
f 59 52 58
f 60 53 59
f 61 54 60
f 62 55 61
f 63 56 62
f 64 57 63
f 37 3 38
f 38 6 40
f 39 38 41
f 40 10 43
f 41 40 44
f 42 41 45
f 43 15 47
f 44 43 48
f 45 44 49
f 46 45 50
f 47 21 52
f 48 47 53
f 49 48 54
f 50 49 55
f 51 50 56
f 52 28 58
f 53 52 59
f 54 53 60
f 55 54 61
f 56 55 62
f 57 56 63
f 65 1 37
f 66 37 39
f 67 65 66
f 68 39 42
f 69 66 68
f 70 67 69
f 71 42 46
f 72 68 71
f 73 69 72
f 74 70 73
f 75 46 51
f 76 71 75
f 77 72 76
f 78 73 77
f 79 74 78
f 80 51 57
f 81 75 80
f 82 76 81
f 83 77 82
f 84 78 83
f 85 79 84
f 86 57 64
f 87 80 86
f 88 81 87
f 89 82 88
f 90 83 89
f 91 84 90
f 92 85 91
f 65 37 66
f 66 39 68
f 67 66 69
f 68 42 71
f 69 68 72
f 70 69 73
f 71 46 75
f 72 71 76
f 73 72 77
f 74 73 78
f 75 51 80
f 76 75 81
f 77 76 82
f 78 77 83
f 79 78 84
f 80 57 86
f 81 80 87
f 82 81 88
f 83 82 89
f 84 83 90
f 85 84 91
f 93 1 65
f 94 65 67
f 95 93 94
f 96 67 70
f 97 94 96
f 98 95 97
f 99 70 74
f 100 96 99
f 101 97 100
f 102 98 101
f 103 74 79
f 104 99 103
f 105 100 104
f 106 101 105
f 107 102 106
f 108 79 85
f 109 103 108
f 110 104 109
f 111 105 110
f 112 106 111
f 113 107 112
f 114 85 92
f 115 108 114
f 116 109 115
f 117 110 116
f 118 111 117
f 119 112 118
f 120 113 119
f 93 65 94
f 94 67 96
f 95 94 97
f 96 70 99
f 97 96 100
f 98 97 101
f 99 74 103
f 100 99 104
f 101 100 105
f 102 101 106
f 103 79 108
f 104 103 109
f 105 104 110
f 106 105 111
f 107 106 112
f 108 85 114
f 109 108 115
f 110 109 116
f 111 110 117
f 112 111 118
f 113 112 119
f 2 1 93
f 121 93 95
f 4 2 121
f 122 95 98
f 123 121 122
f 7 4 123
f 124 98 102
f 125 122 124
f 126 123 125
f 11 7 126
f 127 102 107
f 128 124 127
f 129 125 128
f 130 126 129
f 16 11 130
f 131 107 113
f 132 127 131
f 133 128 132
f 134 129 133
f 135 130 134
f 22 16 135
f 136 113 120
f 137 131 136
f 138 132 137
f 139 133 138
f 140 134 139
f 141 135 140
f 29 22 141
f 2 93 121
f 121 95 122
f 4 121 123
f 122 98 124
f 123 122 125
f 7 123 126
f 124 102 127
f 125 124 128
f 126 125 129
f 11 126 130
f 127 107 131
f 128 127 132
f 129 128 133
f 130 129 134
f 16 130 135
f 131 113 136
f 132 131 137
f 133 132 138
f 134 133 139
f 135 134 140
f 22 135 141
f 142 29 141
f 143 141 140
f 144 142 143
f 145 140 139
f 146 143 145
f 147 144 146
f 148 139 138
f 149 145 148
f 150 146 149
f 151 147 150
f 152 138 137
f 153 148 152
f 154 149 153
f 155 150 154
f 156 151 155
f 157 137 136
f 158 152 157
f 159 153 158
f 160 154 159
f 161 155 160
f 162 156 161
f 163 136 120
f 164 157 163
f 165 158 164
f 166 159 165
f 167 160 166
f 168 161 167
f 169 162 168
f 142 141 143
f 143 140 145
f 144 143 146
f 145 139 148
f 146 145 149
f 147 146 150
f 148 138 152
f 149 148 153
f 150 149 154
f 151 150 155
f 152 137 157
f 153 152 158
f 154 153 159
f 155 154 160
f 156 155 161
f 157 136 163
f 158 157 164
f 159 158 165
f 160 159 166
f 161 160 167
f 162 161 168
f 170 120 119
f 171 119 118
f 172 170 171
f 173 118 117
f 174 171 173
f 175 172 174
f 176 117 116
f 177 173 176
f 178 174 177
f 179 175 178
f 180 116 115
f 181 176 180
f 182 177 181
f 183 178 182
f 184 179 183
f 185 115 114
f 186 180 185
f 187 181 186
f 188 182 187
f 189 183 188
f 190 184 189
f 191 114 92
f 192 185 191
f 193 186 192
f 194 187 193
f 195 188 194
f 196 189 195
f 197 190 196
f 170 119 171
f 171 118 173
f 172 171 174
f 173 117 176
f 174 173 177
f 175 174 178
f 176 116 180
f 177 176 181
f 178 177 182
f 179 178 183
f 180 115 185
f 181 180 186
f 182 181 187
f 183 182 188
f 184 183 189
f 185 114 191
f 186 185 192
f 187 186 193
f 188 187 194
f 189 188 195
f 190 189 196
f 198 92 91
f 199 91 90
f 200 198 199
f 201 90 89
f 202 199 201
f 203 200 202
f 204 89 88
f 205 201 204
f 206 202 205
f 207 203 206
f 208 88 87
f 209 204 208
f 210 205 209
f 211 206 210
f 212 207 211
f 213 87 86
f 214 208 213
f 215 209 214
f 216 210 215
f 217 211 216
f 218 212 217
f 219 86 64
f 220 213 219
f 221 214 220
f 222 215 221
f 223 216 222
f 224 217 223
f 225 218 224
f 198 91 199
f 199 90 201
f 200 199 202
f 201 89 204
f 202 201 205
f 203 202 206
f 204 88 208
f 205 204 209
f 206 205 210
f 207 206 211
f 208 87 213
f 209 208 214
f 210 209 215
f 211 210 216
f 212 211 217
f 213 86 219
f 214 213 220
f 215 214 221
f 216 215 222
f 217 216 223
f 218 217 224
f 226 64 63
f 227 63 62
f 228 226 227
f 229 62 61
f 230 227 229
f 231 228 230
f 232 61 60
f 233 229 232
f 234 230 233
f 235 231 234
f 236 60 59
f 237 232 236
f 238 233 237
f 239 234 238
f 240 235 239
f 241 59 58
f 242 236 241
f 243 237 242
f 244 238 243
f 245 239 244
f 246 240 245
f 247 58 36
f 248 241 247
f 249 242 248
f 250 243 249
f 251 244 250
f 252 245 251
f 253 246 252
f 226 63 227
f 227 62 229
f 228 227 230
f 229 61 232
f 230 229 233
f 231 230 234
f 232 60 236
f 233 232 237
f 234 233 238
f 235 234 239
f 236 59 241
f 237 236 242
f 238 237 243
f 239 238 244
f 240 239 245
f 241 58 247
f 242 241 248
f 243 242 249
f 244 243 250
f 245 244 251
f 246 245 252
f 254 36 35
f 255 35 34
f 256 254 255
f 257 34 33
f 258 255 257
f 259 256 258
f 260 33 32
f 261 257 260
f 262 258 261
f 263 259 262
f 264 32 31
f 265 260 264
f 266 261 265
f 267 262 266
f 268 263 267
f 269 31 30
f 270 264 269
f 271 265 270
f 272 266 271
f 273 267 272
f 274 268 273
f 275 30 29
f 276 269 275
f 277 270 276
f 278 271 277
f 279 272 278
f 280 273 279
f 281 274 280
f 254 35 255
f 255 34 257
f 256 255 258
f 257 33 260
f 258 257 261
f 259 258 262
f 260 32 264
f 261 260 265
f 262 261 266
f 263 262 267
f 264 31 269
f 265 264 270
f 266 265 271
f 267 266 272
f 268 267 273
f 269 30 275
f 270 269 276
f 271 270 277
f 272 271 278
f 273 272 279
f 274 273 280
f 275 29 142
f 282 142 144
f 276 275 282
f 283 144 147
f 284 282 283
f 277 276 284
f 285 147 151
f 286 283 285
f 287 284 286
f 278 277 287
f 288 151 156
f 289 285 288
f 290 286 289
f 291 287 290
f 279 278 291
f 292 156 162
f 293 288 292
f 294 289 293
f 295 290 294
f 296 291 295
f 280 279 296
f 297 162 169
f 298 292 297
f 299 293 298
f 300 294 299
f 301 295 300
f 302 296 301
f 281 280 302
f 275 142 282
f 282 144 283
f 276 282 284
f 283 147 285
f 284 283 286
f 277 284 287
f 285 151 288
f 286 285 289
f 287 286 290
f 278 287 291
f 288 156 292
f 289 288 293
f 290 289 294
f 291 290 295
f 279 291 296
f 292 162 297
f 293 292 298
f 294 293 299
f 295 294 300
f 296 295 301
f 280 296 302
f 163 120 170
f 303 170 172
f 164 163 303
f 304 172 175
f 305 303 304
f 165 164 305
f 306 175 179
f 307 304 306
f 308 305 307
f 166 165 308
f 309 179 184
f 310 306 309
f 311 307 310
f 312 308 311
f 167 166 312
f 313 184 190
f 314 309 313
f 315 310 314
f 316 311 315
f 317 312 316
f 168 167 317
f 318 190 197
f 319 313 318
f 320 314 319
f 321 315 320
f 322 316 321
f 323 317 322
f 169 168 323
f 163 170 303
f 303 172 304
f 164 303 305
f 304 175 306
f 305 304 307
f 165 305 308
f 306 179 309
f 307 306 310
f 308 307 311
f 166 308 312
f 309 184 313
f 310 309 314
f 311 310 315
f 312 311 316
f 167 312 317
f 313 190 318
f 314 313 319
f 315 314 320
f 316 315 321
f 317 316 322
f 168 317 323
f 191 92 198
f 324 198 200
f 192 191 324
f 325 200 203
f 326 324 325
f 193 192 326
f 327 203 207
f 328 325 327
f 329 326 328
f 194 193 329
f 330 207 212
f 331 327 330
f 332 328 331
f 333 329 332
f 195 194 333
f 334 212 218
f 335 330 334
f 336 331 335
f 337 332 336
f 338 333 337
f 196 195 338
f 339 218 225
f 340 334 339
f 341 335 340
f 342 336 341
f 343 337 342
f 344 338 343
f 197 196 344
f 191 198 324
f 324 200 325
f 192 324 326
f 325 203 327
f 326 325 328
f 193 326 329
f 327 207 330
f 328 327 331
f 329 328 332
f 194 329 333
f 330 212 334
f 331 330 335
f 332 331 336
f 333 332 337
f 195 333 338
f 334 218 339
f 335 334 340
f 336 335 341
f 337 336 342
f 338 337 343
f 196 338 344
f 219 64 226
f 345 226 228
f 220 219 345
f 346 228 231
f 347 345 346
f 221 220 347
f 348 231 235
f 349 346 348
f 350 347 349
f 222 221 350
f 351 235 240
f 352 348 351
f 353 349 352
f 354 350 353
f 223 222 354
f 355 240 246
f 356 351 355
f 357 352 356
f 358 353 357
f 359 354 358
f 224 223 359
f 360 246 253
f 361 355 360
f 362 356 361
f 363 357 362
f 364 358 363
f 365 359 364
f 225 224 365
f 219 226 345
f 345 228 346
f 220 345 347
f 346 231 348
f 347 346 349
f 221 347 350
f 348 235 351
f 349 348 352
f 350 349 353
f 222 350 354
f 351 240 355
f 352 351 356
f 353 352 357
f 354 353 358
f 223 354 359
f 355 246 360
f 356 355 361
f 357 356 362
f 358 357 363
f 359 358 364
f 224 359 365
f 247 36 254
f 366 254 256
f 248 247 366
f 367 256 259
f 368 366 367
f 249 248 368
f 369 259 263
f 370 367 369
f 371 368 370
f 250 249 371
f 372 263 268
f 373 369 372
f 374 370 373
f 375 371 374
f 251 250 375
f 376 268 274
f 377 372 376
f 378 373 377
f 379 374 378
f 380 375 379
f 252 251 380
f 381 274 281
f 382 376 381
f 383 377 382
f 384 378 383
f 385 379 384
f 386 380 385
f 253 252 386
f 247 254 366
f 366 256 367
f 248 366 368
f 367 259 369
f 368 367 370
f 249 368 371
f 369 263 372
f 370 369 373
f 371 370 374
f 250 371 375
f 372 268 376
f 373 372 377
f 374 373 378
f 375 374 379
f 251 375 380
f 376 274 381
f 377 376 382
f 378 377 383
f 379 378 384
f 380 379 385
f 252 380 386
f 389 387 388
f 391 388 390
f 392 389 391
f 394 390 393
f 395 391 394
f 396 392 395
f 398 393 397
f 399 394 398
f 400 395 399
f 401 396 400
f 403 397 402
f 404 398 403
f 405 399 404
f 406 400 405
f 407 401 406
f 409 402 408
f 410 403 409
f 411 404 410
f 412 405 411
f 413 406 412
f 414 407 413
f 302 408 281
f 301 409 302
f 300 410 301
f 299 411 300
f 298 412 299
f 297 413 298
f 169 414 297
f 389 388 391
f 391 390 394
f 392 391 395
f 394 393 398
f 395 394 399
f 396 395 400
f 398 397 403
f 399 398 404
f 400 399 405
f 401 400 406
f 403 402 409
f 404 403 410
f 405 404 411
f 406 405 412
f 407 406 413
f 409 408 302
f 410 409 301
f 411 410 300
f 412 411 299
f 413 412 298
f 414 413 297
f 388 387 415
f 417 415 416
f 390 388 417
f 419 416 418
f 420 417 419
f 393 390 420
f 422 418 421
f 423 419 422
f 424 420 423
f 397 393 424
f 426 421 425
f 427 422 426
f 428 423 427
f 429 424 428
f 402 397 429
f 431 425 430
f 432 426 431
f 433 427 432
f 434 428 433
f 435 429 434
f 408 402 435
f 386 430 253
f 385 431 386
f 384 432 385
f 383 433 384
f 382 434 383
f 381 435 382
f 281 408 381
f 388 415 417
f 417 416 419
f 390 417 420
f 419 418 422
f 420 419 423
f 393 420 424
f 422 421 426
f 423 422 427
f 424 423 428
f 397 424 429
f 426 425 431
f 427 426 432
f 428 427 433
f 429 428 434
f 402 429 435
f 431 430 386
f 432 431 385
f 433 432 384
f 434 433 383
f 435 434 382
f 408 435 381
f 415 387 436
f 438 436 437
f 416 415 438
f 440 437 439
f 441 438 440
f 418 416 441
f 443 439 442
f 444 440 443
f 445 441 444
f 421 418 445
f 447 442 446
f 448 443 447
f 449 444 448
f 450 445 449
f 425 421 450
f 452 446 451
f 453 447 452
f 454 448 453
f 455 449 454
f 456 450 455
f 430 425 456
f 365 451 225
f 364 452 365
f 363 453 364
f 362 454 363
f 361 455 362
f 360 456 361
f 253 430 360
f 415 436 438
f 438 437 440
f 416 438 441
f 440 439 443
f 441 440 444
f 418 441 445
f 443 442 447
f 444 443 448
f 445 444 449
f 421 445 450
f 447 446 452
f 448 447 453
f 449 448 454
f 450 449 455
f 425 450 456
f 452 451 365
f 453 452 364
f 454 453 363
f 455 454 362
f 456 455 361
f 430 456 360
f 436 387 457
f 459 457 458
f 437 436 459
f 461 458 460
f 462 459 461
f 439 437 462
f 464 460 463
f 465 461 464
f 466 462 465
f 442 439 466
f 468 463 467
f 469 464 468
f 470 465 469
f 471 466 470
f 446 442 471
f 473 467 472
f 474 468 473
f 475 469 474
f 476 470 475
f 477 471 476
f 451 446 477
f 344 472 197
f 343 473 344
f 342 474 343
f 341 475 342
f 340 476 341
f 339 477 340
f 225 451 339
f 436 457 459
f 459 458 461
f 437 459 462
f 461 460 464
f 462 461 465
f 439 462 466
f 464 463 468
f 465 464 469
f 466 465 470
f 442 466 471
f 468 467 473
f 469 468 474
f 470 469 475
f 471 470 476
f 446 471 477
f 473 472 344
f 474 473 343
f 475 474 342
f 476 475 341
f 477 476 340
f 451 477 339
f 457 387 389
f 478 389 392
f 458 457 478
f 479 392 396
f 480 478 479
f 460 458 480
f 481 396 401
f 482 479 481
f 483 480 482
f 463 460 483
f 484 401 407
f 485 481 484
f 486 482 485
f 487 483 486
f 467 463 487
f 488 407 414
f 489 484 488
f 490 485 489
f 491 486 490
f 492 487 491
f 472 467 492
f 323 414 169
f 322 488 323
f 321 489 322
f 320 490 321
f 319 491 320
f 318 492 319
f 197 472 318
f 457 389 478
f 478 392 479
f 458 478 480
f 479 396 481
f 480 479 482
f 460 480 483
f 481 401 484
f 482 481 485
f 483 482 486
f 463 483 487
f 484 407 488
f 485 484 489
f 486 485 490
f 487 486 491
f 467 487 492
f 488 414 323
f 489 488 322
f 490 489 321
f 491 490 320
f 492 491 319
f 472 492 318
