# File exported by Houdini 20.5.445 (www.sidefx.com)
# 492 points
# 2940 vertices
# 980 primitives
# Bounds: [-171.384399, -127.160606, -1042.90503] to [342.158325, 243.53772, -711.895996]
g 
v 85.3869629 58.1885719 -1042.90503
v 85.3869629 87.508194 -1040.83923
v 123.970886 67.2488251 -1040.83923
v 85.3869629 116.096001 -1034.69336
v 126.126404 98.7125931 -1036.80054
v 161.591736 76.0829926 -1034.69336
v 85.3869629 143.238373 -1024.62085
v 127.392548 127.907234 -1028.46667
v 164.154541 108.604485 -1028.46667
v 197.310303 84.4703979 -1024.62085
v 85.3869629 168.257507 -1010.87317
v 127.809875 154.717316 -1016.26447
v 165.35672 137.735565 -1017.93341
v 199.307007 117.176125 -1016.26447
v 230.234863 92.2017899 -1010.87317
v 85.3869629 190.528931 -993.793518
v 127.392548 178.982727 -1000.40137
v 165.35672 163.990784 -1003.50647
v 199.90802 145.848877 -1003.50647
v 231.368591 124.387733 -1000.40137
v 259.543518 99.0840378 -993.793518
v 85.3869629 209.496521 -973.808228
v 126.126404 200.422882 -980.91217
v 164.154541 187.615143 -985.051331
v 199.307007 171.506287 -986.410706
v 231.368591 152.322876 -985.051331
v 259.974609 130.142883 -980.91217
v 284.504517 104.945366 -973.808228
v 85.3869629 224.686859 -951.41626
v 123.970886 218.556793 -957.697388
v 161.591766 208.42334 -961.97406
v 197.310364 194.539368 -964.139343
v 230.234863 177.251617 -964.139343
v 259.543518 156.991547 -961.97406
v 284.504395 134.264984 -957.697388
v 304.494507 109.639427 -951.416382
v 109.233124 34.4684906 -1040.83923
v 151.30484 42.7097397 -1036.80054
v 132.484131 11.3404131 -1034.69336
v 190.115356 50.8611603 -1028.46667
v 176.073547 19.6286564 -1028.46667
v 154.559418 -10.6181793 -1024.62085
v 225.525757 58.859127 -1016.26447
v 214.780823 27.8043442 -1017.93341
v 198.216309 -1.88392258 -1016.26447
v 174.907898 -30.8590851 -1010.87317
v 257.329407 66.6444092 -1000.40137
v 249.332092 35.9176559 -1003.50647
v 236.134644 6.56341553 -1003.50647
v 217.614136 -21.6922607 -1000.40137
v 193.021606 -48.8771133 -993.793518
v 285.152954 74.1399536 -980.91217
v 280.049622 44.0443573 -985.051331
v 269.713562 14.9050894 -986.410706
v 254.376099 -13.0597954 -985.051331
v 234.027527 -39.5755081 -980.91217
v 208.448364 -64.2221298 -973.808228
v 308.350647 81.2252808 -957.69751
v 306.640808 52.235878 -961.97406
v 299.407471 23.3950367 -964.139404
v 286.831421 -4.57725334 -964.139404
v 269.226501 -30.9825821 -961.97406
v 247.032227 -55.1618881 -957.69751
v 220.802917 -76.5113754 -951.416382
v 61.540802 34.4684906 -1040.83923
v 85.3869629 8.0980835 -1036.80054
v 38.2898254 11.3404131 -1034.69336
v 108.107086 -16.05867 -1028.46667
v 62.6668396 -16.05867 -1028.46667
v 16.2145386 -10.6181793 -1024.62085
v 129.574677 -37.9257812 -1016.26447
v 85.3869629 -40.1368713 -1017.93341
v 41.1993103 -37.9257812 -1016.26447
v -4.13397217 -30.8590851 -1010.87317
v 149.647705 -57.3795853 -1000.40137
v 106.740814 -61.377861 -1003.50647
v 64.0331421 -61.377861 -1003.50647
v 21.1262207 -57.3795853 -1000.40137
v -22.2477112 -48.8771133 -993.793518
v 168.10965 -74.1872177 -980.91217
v 126.927582 -79.9796829 -985.051331
v 85.3869629 -81.8798141 -986.410706
v 43.8463745 -79.9796829 -985.051331
v 2.66427612 -74.1872177 -980.91217
v -37.674408 -64.2221298 -973.808228
v 184.602234 -87.9422684 -957.69751
v 145.9245 -95.7252121 -961.97406
v 105.735474 -99.6658859 -964.139404
v 65.0384521 -99.6658859 -964.139404
v 24.8494263 -95.7252121 -961.97406
v -13.8282471 -87.9422684 -957.69751
v -50.0289917 -76.5113754 -951.416382
v 46.8030701 67.2488251 -1040.83923
v 19.4691467 42.7097397 -1036.80054
v 9.18222046 76.0829926 -1034.69336
v -5.29962158 19.6286564 -1028.46667
v -19.3414307 50.8611603 -1028.46667
v -26.5364075 84.4703979 -1024.62085
v -27.4423828 -1.88392258 -1016.26447
v -44.0068665 27.8043442 -1017.93341
v -54.7518616 58.859127 -1016.26447
v -59.4609985 92.2017899 -1010.87317
v -46.84021 -21.6922607 -1000.40137
v -65.3607178 6.56341553 -1003.50647
v -78.558136 35.9176559 -1003.50647
v -86.5555573 66.6444092 -1000.40137
v -88.7695923 99.0840378 -993.793518
v -63.2535706 -39.5755081 -980.91217
v -83.6022186 -13.0597954 -985.051331
v -98.9395752 14.9050894 -986.410706
v -109.275681 44.0443573 -985.051331
v -114.379028 74.1399536 -980.91217
v -113.73053 104.945366 -973.808228
v -76.2583618 -55.1618881 -957.69751
v -98.4525299 -30.9825821 -961.97406
v -116.057449 -4.57725334 -964.139404
v -128.633514 23.3950367 -964.139404
v -135.866776 52.235878 -961.97406
v -137.576691 81.2252808 -957.69751
v -133.720596 109.639427 -951.416382
v 44.6474915 98.7125931 -1036.80054
v 6.6194458 108.604485 -1028.46667
v 43.3814087 127.907234 -1028.46667
v -28.5330811 117.176125 -1016.26447
v 5.41717529 137.735565 -1017.93341
v 42.9640503 154.717316 -1016.26447
v -60.5946655 124.387733 -1000.40137
v -29.1340332 145.848877 -1003.50647
v 5.41717529 163.990784 -1003.50647
v 43.3814087 178.982727 -1000.40137
v -89.2006073 130.142883 -980.91217
v -60.5946655 152.322876 -985.051331
v -28.5330811 171.506287 -986.410706
v 6.61941528 187.615143 -985.051331
v 44.6474609 200.422882 -980.91217
v -113.730469 134.264984 -957.697388
v -88.7695923 156.991547 -961.97406
v -59.4609985 177.251617 -964.139343
v -26.536438 194.539368 -964.139343
v 9.18215942 208.42334 -961.97406
v 46.8030396 218.556793 -957.697388
v 61.540802 233.216583 -931.6297
v 19.4691162 225.468109 -936.377197
v 38.2898254 237.377014 -910.489197
v -19.3414307 213.438751 -939.132324
v -5.29959106 227.406281 -914.295593
v 16.2145386 237.06424 -888.522644
v -54.7518616 197.586456 -940.035522
v -44.0068359 213.153473 -916.086365
v -27.4423828 224.751465 -891.731262
v -4.13397217 232.28598 -866.278442
v -86.5554962 178.146454 -939.132324
v -78.5580444 195.011566 -916.086365
v -65.3606567 208.13916 -892.743225
v -46.8401794 217.651733 -868.884949
v -22.2476807 223.161591 -844.311829
v -114.378967 155.18811 -936.377197
v -109.275635 172.81134 -914.295593
v -98.9394531 187.210297 -891.731262
v -83.6021423 198.34906 -868.884949
v -63.2535095 206.043152 -845.947876
v -37.674408 209.918854 -823.171326
v -137.57666 128.665466 -931.6297
v -135.866714 145.932129 -910.489197
v -128.633423 161.008484 -888.522644
v -116.057373 173.518066 -866.278442
v -98.4524841 183.14856 -844.311829
v -76.2583313 189.659515 -823.171326
v -50.0289917 192.888519 -803.384705
v -152.314392 95.8850632 -931.6297
v -155.118469 64.5735474 -936.377197
v -164.97438 81.189621 -910.489197
v -151.281265 34.180603 -939.132324
v -165.323074 48.1481781 -914.295593
v -171.384399 65.9199066 -888.522644
v -141.362427 4.94336128 -940.035522
v -158.527878 17.1391373 -916.086365
v -168.671875 32.1083832 -891.731262
v -171.384399 50.4571877 -866.278442
v -125.607773 -22.9235458 -939.132324
v -145.33046 -12.2151642 -916.086365
v -158.527878 0.912508011 -892.743225
v -165.323044 16.581707 -868.884949
v -164.97438 35.1875191 -844.311829
v -103.993042 -49.1420364 -936.377197
v -125.607727 -40.1884842 -914.295593
v -141.362381 -28.634552 -891.731262
v -151.281189 -14.6507416 -868.884949
v -155.118454 1.71310806 -845.947876
v -152.314392 20.4920864 -823.171326
v -76.2583313 -73.2823868 -931.6297
v -98.4524841 -66.7714005 -910.489197
v -116.057373 -57.1409073 -888.522644
v -128.633423 -44.63134 -866.278442
v -135.866714 -29.5550575 -844.311829
v -137.57666 -12.2883606 -823.171326
v -133.720596 6.73771858 -803.384705
v -37.674408 -93.5417404 -931.6297
v 2.66427612 -105.144844 -936.377197
v -22.2476807 -106.784477 -910.489197
v 43.8463745 -111.899376 -939.132324
v 21.1262512 -117.234489 -914.295593
v -4.13397217 -115.908928 -888.522644
v 85.3869629 -114.116737 -940.035522
v 64.0331421 -122.146309 -916.086365
v 41.1993408 -124.49279 -891.731262
v 16.2145386 -120.687111 -866.278442
v 126.927582 -111.899376 -939.132324
v 106.740814 -122.146309 -916.086365
v 85.3869629 -127.160606 -892.743225
v 62.6668396 -126.989098 -868.884949
v 38.2898254 -120.999886 -844.311829
v 168.10965 -105.144844 -936.377197
v 149.647705 -117.234489 -914.295593
v 129.574615 -124.49279 -891.731262
v 108.107086 -126.989098 -868.884949
v 85.3869629 -124.569817 -845.947876
v 61.540802 -116.8395 -823.171387
v 208.448364 -93.5417404 -931.6297
v 193.021606 -106.784477 -910.489197
v 174.907898 -115.908928 -888.522644
v 154.559418 -120.687111 -866.278442
v 132.484131 -120.999886 -844.311829
v 109.233154 -116.8395 -823.171387
v 85.3869629 -108.309807 -803.384705
v 247.032227 -73.2823868 -931.6297
v 274.766968 -49.1420364 -936.377197
v 269.22644 -66.7714005 -910.489197
v 296.381714 -22.9235458 -939.132324
v 296.381714 -40.1884842 -914.295593
v 286.831299 -57.1409073 -888.522644
v 312.136414 4.94336128 -940.035522
v 316.104431 -12.2151642 -916.086365
v 312.136353 -28.634552 -891.731262
v 299.407349 -44.63134 -866.278442
v 322.055237 34.180603 -939.132324
v 329.301819 17.1391373 -916.086365
v 329.301819 0.912508011 -892.743225
v 322.055176 -14.6507416 -868.884949
v 306.640625 -29.5550575 -844.311829
v 325.892395 64.5735474 -936.377197
v 336.096985 48.1481781 -914.295593
v 339.445801 32.1083832 -891.731262
v 336.096985 16.581707 -868.884949
v 325.892395 1.71310806 -845.947876
v 308.350647 -12.2883606 -823.171326
v 323.088318 95.8850632 -931.6297
v 335.748352 81.189621 -910.489197
v 342.158325 65.9199066 -888.522644
v 342.158325 50.4571877 -866.278442
v 335.748352 35.1875191 -844.311829
v 323.088318 20.4920864 -823.171326
v 304.494507 6.73771858 -803.384705
v 308.350647 128.665466 -931.6297
v 285.152832 155.18811 -936.377197
v 306.640625 145.932129 -910.489197
v 257.329407 178.146454 -939.132324
v 280.049561 172.81134 -914.295593
v 299.407349 161.008484 -888.522644
v 225.525757 197.586456 -940.035522
v 249.33197 195.011566 -916.086365
v 269.713379 187.210297 -891.731262
v 286.831299 173.518066 -866.278442
v 190.115356 213.438751 -939.132324
v 214.780701 213.153473 -916.086365
v 236.134644 208.13916 -892.743225
v 254.376038 198.34906 -868.884949
v 269.22644 183.14856 -844.311829
v 151.30484 225.468109 -936.377197
v 176.073547 227.406281 -914.295593
v 198.216309 224.751465 -891.731262
v 217.614075 217.651733 -868.884949
v 234.027527 206.043152 -845.947876
v 247.032227 189.659515 -823.171326
v 109.233154 233.216583 -931.6297
v 132.484131 237.377014 -910.489197
v 154.559418 237.06424 -888.522644
v 174.907898 232.28598 -866.278442
v 193.021606 223.161591 -844.311829
v 208.448364 209.918854 -823.171326
v 220.802917 192.888519 -803.384705
v 85.3869629 240.946899 -908.853149
v 62.6668396 243.36618 -885.916138
v 108.107086 243.36618 -885.916138
v 41.1993408 240.869873 -863.069824
v 85.3869629 243.53772 -862.057922
v 129.574615 240.869873 -863.069824
v 21.1262512 233.611603 -840.505493
v 64.0331421 238.523376 -838.714661
v 106.740814 238.523376 -838.714661
v 149.647705 233.611603 -840.505493
v 2.66427612 221.521942 -818.423767
v 43.8463745 228.276459 -815.668701
v 85.3869629 230.493835 -814.765503
v 126.927582 228.276459 -815.668701
v 168.10965 221.521942 -818.423767
v -13.8282471 204.319336 -797.103577
v 24.8494263 212.102264 -792.827026
v 65.0384521 216.042969 -790.661682
v 105.735474 216.042969 -790.661682
v 145.9245 212.102264 -792.827026
v 184.602234 204.319336 -797.103577
v -155.118454 114.66404 -908.853149
v -165.323044 99.7953873 -885.916138
v -151.281189 131.027832 -885.916138
v -168.671875 84.2687683 -863.069824
v -158.527878 115.464592 -862.057922
v -141.362381 145.011658 -863.069824
v -165.323074 68.2289581 -840.505493
v -158.527878 99.2379532 -838.714661
v -145.33046 128.592194 -838.714661
v -125.607727 156.565582 -840.505493
v -155.118469 51.8035393 -818.423767
v -151.281265 82.1964874 -815.66864
v -141.362427 111.433784 -814.765503
v -125.607773 139.30069 -815.66864
v -103.993042 165.519135 -818.423767
v -137.576691 35.1518021 -797.103577
v -135.866776 64.1412048 -792.827026
v -128.633514 92.982048 -790.661621
v -116.057449 120.954338 -790.661621
v -98.4525299 147.359741 -792.827026
v -76.2583618 171.538971 -797.103577
v -63.2535095 -89.6660538 -908.853149
v -46.8401794 -101.27462 -885.916138
v -83.6021423 -81.9719772 -885.916138
v -27.4423828 -108.374413 -863.069824
v -65.3606567 -91.7620773 -862.057922
v -98.9394531 -70.8331985 -863.069824
v -5.29959106 -111.029167 -840.505493
v -44.0068359 -96.7763748 -838.714661
v -78.5580444 -78.6344681 -838.714661
v -109.275635 -56.4341888 -840.505493
v 19.4691162 -109.090981 -818.423828
v -19.3414307 -97.0616531 -815.668701
v -54.7518616 -81.2093124 -814.765503
v -86.5554962 -61.7694168 -815.668701
v -114.378967 -38.8110275 -818.423828
v 46.8030396 -102.17968 -797.103638
v 9.18215942 -92.046257 -792.827026
v -26.536438 -78.1622543 -790.661682
v -59.4609985 -60.8744278 -790.661682
v -88.7695923 -40.6144409 -792.827026
v -113.730469 -17.887886 -797.103638
v 234.027527 -89.6660538 -908.853149
v 254.376038 -81.9718704 -885.916138
v 217.614075 -101.27462 -885.916138
v 269.713379 -70.8331985 -863.069824
v 236.134644 -91.7620773 -862.057922
v 198.216309 -108.374413 -863.069824
v 280.049561 -56.4341888 -840.505493
v 249.33197 -78.6344681 -838.714661
v 214.780701 -96.7763748 -838.714661
v 176.073547 -111.029167 -840.505493
v 285.152832 -38.8110275 -818.423828
v 257.329407 -61.7694168 -815.668701
v 225.525757 -81.2093124 -814.765503
v 190.115356 -97.0616531 -815.668701
v 151.30484 -109.090981 -818.423828
v 284.504395 -17.887886 -797.103638
v 259.543518 -40.6144409 -792.827026
v 230.234863 -60.8744278 -790.661682
v 197.310364 -78.1622543 -790.661682
v 161.591766 -92.046257 -792.827026
v 123.970886 -102.17968 -797.103638
v 325.892395 114.66404 -908.853149
v 322.055176 131.027832 -885.916138
v 336.096985 99.7953873 -885.916138
v 312.136353 145.011688 -863.069824
v 329.301819 115.464592 -862.057922
v 339.445801 84.2687683 -863.069824
v 296.381714 156.565582 -840.505493
v 316.104431 128.592194 -838.714661
v 329.301819 99.2379532 -838.714661
v 336.096985 68.2289581 -840.505493
v 274.766968 165.519135 -818.423767
v 296.381714 139.30069 -815.66864
v 312.136414 111.433784 -814.765503
v 322.055237 82.1964874 -815.66864
v 325.892395 51.8035393 -818.423767
v 247.032227 171.538971 -797.103577
v 269.226501 147.359741 -792.827026
v 286.831421 120.954338 -790.661621
v 299.407471 92.982048 -790.661621
v 306.640808 64.1412048 -792.827026
v 308.350647 35.1518021 -797.103577
v 85.3869629 58.1885719 -711.895996
v 109.233124 81.9085999 -713.961792
v 61.540802 81.9085999 -713.961792
v 132.484131 105.036674 -720.107666
v 85.3869629 108.27906 -718.000427
v 38.2898254 105.036674 -720.107666
v 154.559418 126.995277 -730.180115
v 108.107086 132.43576 -726.334351
v 62.6668396 132.43576 -726.334351
v 16.2145386 126.995277 -730.180115
v 174.907898 147.236237 -743.927856
v 129.574677 154.302948 -738.536621
v 85.3869629 156.514008 -736.867676
v 41.1993103 154.302948 -738.536621
v -4.13397217 147.236237 -743.927856
v 193.021606 165.25415 -761.007568
v 149.647705 173.756744 -754.399719
v 106.740814 177.754944 -751.294617
v 64.0331421 177.754944 -751.294617
v 21.1262207 173.756744 -754.399719
v -22.2477112 165.25415 -761.007568
v 208.448364 180.599243 -780.992798
v 168.10965 190.564362 -773.888977
v 126.927582 196.356781 -769.749695
v 85.3869629 198.256927 -768.390381
v 43.8463745 196.356781 -769.749695
v 2.66427612 190.564362 -773.888977
v -37.674408 180.599243 -780.992798
v 123.970886 49.1282654 -713.961792
v 161.591736 40.2941551 -720.107666
v 151.30484 73.6673431 -718.000427
v 197.310303 31.906683 -730.180115
v 190.115356 65.5159302 -726.334351
v 176.073547 96.748436 -726.334351
v 230.234863 24.1753578 -743.927856
v 225.525757 57.5180168 -738.536621
v 214.780823 88.5727463 -736.867676
v 198.216309 118.260963 -738.536621
v 259.543518 17.2931042 -761.007568
v 257.329407 49.7327461 -754.399719
v 249.332092 80.4594269 -751.294617
v 236.134644 109.813728 -751.294617
v 217.614136 138.069366 -754.399719
v 284.504517 11.4317236 -780.992798
v 285.152954 42.2371254 -773.888977
v 280.049622 72.3327332 -769.749695
v 269.713562 101.471992 -768.390381
v 254.376099 129.43689 -769.749695
v 234.027527 155.952667 -773.888977
v 85.3869629 28.8689613 -713.961792
v 85.3869629 0.281143188 -720.107666
v 126.126404 17.6644402 -718.000427
v 85.3869629 -26.8612671 -730.180115
v 127.392548 -11.5300827 -726.334351
v 164.154541 7.77260208 -726.334351
v 85.3869629 -51.8804245 -743.927856
v 127.809875 -38.3401794 -738.536621
v 165.35672 -21.3584633 -736.867676
v 199.307007 -0.798969269 -738.536621
v 85.3869629 -74.1517868 -761.007568
v 127.392548 -62.6056137 -754.399719
v 165.35672 -47.6137466 -751.294617
v 199.90802 -29.4717789 -751.294617
v 231.368591 -8.01063538 -754.399719
v 85.3869629 -93.1194229 -780.992798
v 126.126404 -84.0457993 -773.888977
v 164.154541 -71.2380295 -769.749695
v 199.307007 -55.1291885 -768.390381
v 231.368591 -35.9457855 -769.749695
v 259.974609 -13.7657814 -773.888977
v 46.8030701 49.1282654 -713.961792
v 9.18222046 40.2941551 -720.107666
v 44.6474915 17.6644402 -718.000427
v -26.5364075 31.906683 -730.180115
v 6.6194458 7.77260208 -726.334351
v 43.3814087 -11.5300827 -726.334351
v -59.4609985 24.1753578 -743.927856
v -28.5330811 -0.798969269 -738.536621
v 5.41717529 -21.3584633 -736.867676
v 42.9640503 -38.3401794 -738.536621
v -88.7695923 17.2931042 -761.007568
v -60.5946655 -8.01063538 -754.399719
v -29.1340332 -29.4717789 -751.294617
v 5.41717529 -47.6137466 -751.294617
v 43.3814087 -62.6056137 -754.399719
v -113.73053 11.4317236 -780.992798
v -89.2006073 -13.7657814 -773.888977
v -60.5946655 -35.9457855 -769.749695
v -28.5330811 -55.1291885 -768.390381
v 6.61941528 -71.2380295 -769.749695
v 44.6474609 -84.0457993 -773.888977
v 19.4691467 73.6673431 -718.000427
v -5.29962158 96.748436 -726.334351
v -19.3414307 65.5159302 -726.334351
v -27.4423828 118.260963 -738.536621
v -44.0068665 88.5727463 -736.867676
v -54.7518616 57.5180168 -738.536621
v -46.84021 138.069366 -754.399719
v -65.3607178 109.813728 -751.294617
v -78.558136 80.4594269 -751.294617
v -86.5555573 49.7327461 -754.399719
v -63.2535706 155.952667 -773.888916
v -83.6022186 129.43689 -769.749695
v -98.9395752 101.471992 -768.390381
v -109.275681 72.3327332 -769.749695
v -114.379028 42.2371254 -773.888977
g 
f 3 1 2
f 5 2 4
f 6 3 5
f 8 4 7
f 9 5 8
f 10 6 9
f 12 7 11
f 13 8 12
f 14 9 13
f 15 10 14
f 17 11 16
f 18 12 17
f 19 13 18
f 20 14 19
f 21 15 20
f 23 16 22
f 24 17 23
f 25 18 24
f 26 19 25
f 27 20 26
f 28 21 27
f 30 22 29
f 31 23 30
f 32 24 31
f 33 25 32
f 34 26 33
f 35 27 34
f 36 28 35
f 3 2 5
f 5 4 8
f 6 5 9
f 8 7 12
f 9 8 13
f 10 9 14
f 12 11 17
f 13 12 18
f 14 13 19
f 15 14 20
f 17 16 23
f 18 17 24
f 19 18 25
f 20 19 26
f 21 20 27
f 23 22 30
f 24 23 31
f 25 24 32
f 26 25 33
f 27 26 34
f 28 27 35
f 37 1 3
f 38 3 6
f 39 37 38
f 40 6 10
f 41 38 40
f 42 39 41
f 43 10 15
f 44 40 43
f 45 41 44
f 46 42 45
f 47 15 21
f 48 43 47
f 49 44 48
f 50 45 49
f 51 46 50
f 52 21 28
f 53 47 52
f 54 48 53
f 55 49 54
f 56 50 55
f 57 51 56
f 58 28 36
f 59 52 58
f 60 53 59
f 61 54 60
f 62 55 61
f 63 56 62
f 64 57 63
f 37 3 38
f 38 6 40
f 39 38 41
f 40 10 43
f 41 40 44
f 42 41 45
f 43 15 47
f 44 43 48
f 45 44 49
f 46 45 50
f 47 21 52
f 48 47 53
f 49 48 54
f 50 49 55
f 51 50 56
f 52 28 58
f 53 52 59
f 54 53 60
f 55 54 61
f 56 55 62
f 57 56 63
f 65 1 37
f 66 37 39
f 67 65 66
f 68 39 42
f 69 66 68
f 70 67 69
f 71 42 46
f 72 68 71
f 73 69 72
f 74 70 73
f 75 46 51
f 76 71 75
f 77 72 76
f 78 73 77
f 79 74 78
f 80 51 57
f 81 75 80
f 82 76 81
f 83 77 82
f 84 78 83
f 85 79 84
f 86 57 64
f 87 80 86
f 88 81 87
f 89 82 88
f 90 83 89
f 91 84 90
f 92 85 91
f 65 37 66
f 66 39 68
f 67 66 69
f 68 42 71
f 69 68 72
f 70 69 73
f 71 46 75
f 72 71 76
f 73 72 77
f 74 73 78
f 75 51 80
f 76 75 81
f 77 76 82
f 78 77 83
f 79 78 84
f 80 57 86
f 81 80 87
f 82 81 88
f 83 82 89
f 84 83 90
f 85 84 91
f 93 1 65
f 94 65 67
f 95 93 94
f 96 67 70
f 97 94 96
f 98 95 97
f 99 70 74
f 100 96 99
f 101 97 100
f 102 98 101
f 103 74 79
f 104 99 103
f 105 100 104
f 106 101 105
f 107 102 106
f 108 79 85
f 109 103 108
f 110 104 109
f 111 105 110
f 112 106 111
f 113 107 112
f 114 85 92
f 115 108 114
f 116 109 115
f 117 110 116
f 118 111 117
f 119 112 118
f 120 113 119
f 93 65 94
f 94 67 96
f 95 94 97
f 96 70 99
f 97 96 100
f 98 97 101
f 99 74 103
f 100 99 104
f 101 100 105
f 102 101 106
f 103 79 108
f 104 103 109
f 105 104 110
f 106 105 111
f 107 106 112
f 108 85 114
f 109 108 115
f 110 109 116
f 111 110 117
f 112 111 118
f 113 112 119
f 2 1 93
f 121 93 95
f 4 2 121
f 122 95 98
f 123 121 122
f 7 4 123
f 124 98 102
f 125 122 124
f 126 123 125
f 11 7 126
f 127 102 107
f 128 124 127
f 129 125 128
f 130 126 129
f 16 11 130
f 131 107 113
f 132 127 131
f 133 128 132
f 134 129 133
f 135 130 134
f 22 16 135
f 136 113 120
f 137 131 136
f 138 132 137
f 139 133 138
f 140 134 139
f 141 135 140
f 29 22 141
f 2 93 121
f 121 95 122
f 4 121 123
f 122 98 124
f 123 122 125
f 7 123 126
f 124 102 127
f 125 124 128
f 126 125 129
f 11 126 130
f 127 107 131
f 128 127 132
f 129 128 133
f 130 129 134
f 16 130 135
f 131 113 136
f 132 131 137
f 133 132 138
f 134 133 139
f 135 134 140
f 22 135 141
f 142 29 141
f 143 141 140
f 144 142 143
f 145 140 139
f 146 143 145
f 147 144 146
f 148 139 138
f 149 145 148
f 150 146 149
f 151 147 150
f 152 138 137
f 153 148 152
f 154 149 153
f 155 150 154
f 156 151 155
f 157 137 136
f 158 152 157
f 159 153 158
f 160 154 159
f 161 155 160
f 162 156 161
f 163 136 120
f 164 157 163
f 165 158 164
f 166 159 165
f 167 160 166
f 168 161 167
f 169 162 168
f 142 141 143
f 143 140 145
f 144 143 146
f 145 139 148
f 146 145 149
f 147 146 150
f 148 138 152
f 149 148 153
f 150 149 154
f 151 150 155
f 152 137 157
f 153 152 158
f 154 153 159
f 155 154 160
f 156 155 161
f 157 136 163
f 158 157 164
f 159 158 165
f 160 159 166
f 161 160 167
f 162 161 168
f 170 120 119
f 171 119 118
f 172 170 171
f 173 118 117
f 174 171 173
f 175 172 174
f 176 117 116
f 177 173 176
f 178 174 177
f 179 175 178
f 180 116 115
f 181 176 180
f 182 177 181
f 183 178 182
f 184 179 183
f 185 115 114
f 186 180 185
f 187 181 186
f 188 182 187
f 189 183 188
f 190 184 189
f 191 114 92
f 192 185 191
f 193 186 192
f 194 187 193
f 195 188 194
f 196 189 195
f 197 190 196
f 170 119 171
f 171 118 173
f 172 171 174
f 173 117 176
f 174 173 177
f 175 174 178
f 176 116 180
f 177 176 181
f 178 177 182
f 179 178 183
f 180 115 185
f 181 180 186
f 182 181 187
f 183 182 188
f 184 183 189
f 185 114 191
f 186 185 192
f 187 186 193
f 188 187 194
f 189 188 195
f 190 189 196
f 198 92 91
f 199 91 90
f 200 198 199
f 201 90 89
f 202 199 201
f 203 200 202
f 204 89 88
f 205 201 204
f 206 202 205
f 207 203 206
f 208 88 87
f 209 204 208
f 210 205 209
f 211 206 210
f 212 207 211
f 213 87 86
f 214 208 213
f 215 209 214
f 216 210 215
f 217 211 216
f 218 212 217
f 219 86 64
f 220 213 219
f 221 214 220
f 222 215 221
f 223 216 222
f 224 217 223
f 225 218 224
f 198 91 199
f 199 90 201
f 200 199 202
f 201 89 204
f 202 201 205
f 203 202 206
f 204 88 208
f 205 204 209
f 206 205 210
f 207 206 211
f 208 87 213
f 209 208 214
f 210 209 215
f 211 210 216
f 212 211 217
f 213 86 219
f 214 213 220
f 215 214 221
f 216 215 222
f 217 216 223
f 218 217 224
f 226 64 63
f 227 63 62
f 228 226 227
f 229 62 61
f 230 227 229
f 231 228 230
f 232 61 60
f 233 229 232
f 234 230 233
f 235 231 234
f 236 60 59
f 237 232 236
f 238 233 237
f 239 234 238
f 240 235 239
f 241 59 58
f 242 236 241
f 243 237 242
f 244 238 243
f 245 239 244
f 246 240 245
f 247 58 36
f 248 241 247
f 249 242 248
f 250 243 249
f 251 244 250
f 252 245 251
f 253 246 252
f 226 63 227
f 227 62 229
f 228 227 230
f 229 61 232
f 230 229 233
f 231 230 234
f 232 60 236
f 233 232 237
f 234 233 238
f 235 234 239
f 236 59 241
f 237 236 242
f 238 237 243
f 239 238 244
f 240 239 245
f 241 58 247
f 242 241 248
f 243 242 249
f 244 243 250
f 245 244 251
f 246 245 252
f 254 36 35
f 255 35 34
f 256 254 255
f 257 34 33
f 258 255 257
f 259 256 258
f 260 33 32
f 261 257 260
f 262 258 261
f 263 259 262
f 264 32 31
f 265 260 264
f 266 261 265
f 267 262 266
f 268 263 267
f 269 31 30
f 270 264 269
f 271 265 270
f 272 266 271
f 273 267 272
f 274 268 273
f 275 30 29
f 276 269 275
f 277 270 276
f 278 271 277
f 279 272 278
f 280 273 279
f 281 274 280
f 254 35 255
f 255 34 257
f 256 255 258
f 257 33 260
f 258 257 261
f 259 258 262
f 260 32 264
f 261 260 265
f 262 261 266
f 263 262 267
f 264 31 269
f 265 264 270
f 266 265 271
f 267 266 272
f 268 267 273
f 269 30 275
f 270 269 276
f 271 270 277
f 272 271 278
f 273 272 279
f 274 273 280
f 275 29 142
f 282 142 144
f 276 275 282
f 283 144 147
f 284 282 283
f 277 276 284
f 285 147 151
f 286 283 285
f 287 284 286
f 278 277 287
f 288 151 156
f 289 285 288
f 290 286 289
f 291 287 290
f 279 278 291
f 292 156 162
f 293 288 292
f 294 289 293
f 295 290 294
f 296 291 295
f 280 279 296
f 297 162 169
f 298 292 297
f 299 293 298
f 300 294 299
f 301 295 300
f 302 296 301
f 281 280 302
f 275 142 282
f 282 144 283
f 276 282 284
f 283 147 285
f 284 283 286
f 277 284 287
f 285 151 288
f 286 285 289
f 287 286 290
f 278 287 291
f 288 156 292
f 289 288 293
f 290 289 294
f 291 290 295
f 279 291 296
f 292 162 297
f 293 292 298
f 294 293 299
f 295 294 300
f 296 295 301
f 280 296 302
f 163 120 170
f 303 170 172
f 164 163 303
f 304 172 175
f 305 303 304
f 165 164 305
f 306 175 179
f 307 304 306
f 308 305 307
f 166 165 308
f 309 179 184
f 310 306 309
f 311 307 310
f 312 308 311
f 167 166 312
f 313 184 190
f 314 309 313
f 315 310 314
f 316 311 315
f 317 312 316
f 168 167 317
f 318 190 197
f 319 313 318
f 320 314 319
f 321 315 320
f 322 316 321
f 323 317 322
f 169 168 323
f 163 170 303
f 303 172 304
f 164 303 305
f 304 175 306
f 305 304 307
f 165 305 308
f 306 179 309
f 307 306 310
f 308 307 311
f 166 308 312
f 309 184 313
f 310 309 314
f 311 310 315
f 312 311 316
f 167 312 317
f 313 190 318
f 314 313 319
f 315 314 320
f 316 315 321
f 317 316 322
f 168 317 323
f 191 92 198
f 324 198 200
f 192 191 324
f 325 200 203
f 326 324 325
f 193 192 326
f 327 203 207
f 328 325 327
f 329 326 328
f 194 193 329
f 330 207 212
f 331 327 330
f 332 328 331
f 333 329 332
f 195 194 333
f 334 212 218
f 335 330 334
f 336 331 335
f 337 332 336
f 338 333 337
f 196 195 338
f 339 218 225
f 340 334 339
f 341 335 340
f 342 336 341
f 343 337 342
f 344 338 343
f 197 196 344
f 191 198 324
f 324 200 325
f 192 324 326
f 325 203 327
f 326 325 328
f 193 326 329
f 327 207 330
f 328 327 331
f 329 328 332
f 194 329 333
f 330 212 334
f 331 330 335
f 332 331 336
f 333 332 337
f 195 333 338
f 334 218 339
f 335 334 340
f 336 335 341
f 337 336 342
f 338 337 343
f 196 338 344
f 219 64 226
f 345 226 228
f 220 219 345
f 346 228 231
f 347 345 346
f 221 220 347
f 348 231 235
f 349 346 348
f 350 347 349
f 222 221 350
f 351 235 240
f 352 348 351
f 353 349 352
f 354 350 353
f 223 222 354
f 355 240 246
f 356 351 355
f 357 352 356
f 358 353 357
f 359 354 358
f 224 223 359
f 360 246 253
f 361 355 360
f 362 356 361
f 363 357 362
f 364 358 363
f 365 359 364
f 225 224 365
f 219 226 345
f 345 228 346
f 220 345 347
f 346 231 348
f 347 346 349
f 221 347 350
f 348 235 351
f 349 348 352
f 350 349 353
f 222 350 354
f 351 240 355
f 352 351 356
f 353 352 357
f 354 353 358
f 223 354 359
f 355 246 360
f 356 355 361
f 357 356 362
f 358 357 363
f 359 358 364
f 224 359 365
f 247 36 254
f 366 254 256
f 248 247 366
f 367 256 259
f 368 366 367
f 249 248 368
f 369 259 263
f 370 367 369
f 371 368 370
f 250 249 371
f 372 263 268
f 373 369 372
f 374 370 373
f 375 371 374
f 251 250 375
f 376 268 274
f 377 372 376
f 378 373 377
f 379 374 378
f 380 375 379
f 252 251 380
f 381 274 281
f 382 376 381
f 383 377 382
f 384 378 383
f 385 379 384
f 386 380 385
f 253 252 386
f 247 254 366
f 366 256 367
f 248 366 368
f 367 259 369
f 368 367 370
f 249 368 371
f 369 263 372
f 370 369 373
f 371 370 374
f 250 371 375
f 372 268 376
f 373 372 377
f 374 373 378
f 375 374 379
f 251 375 380
f 376 274 381
f 377 376 382
f 378 377 383
f 379 378 384
f 380 379 385
f 252 380 386
f 389 387 388
f 391 388 390
f 392 389 391
f 394 390 393
f 395 391 394
f 396 392 395
f 398 393 397
f 399 394 398
f 400 395 399
f 401 396 400
f 403 397 402
f 404 398 403
f 405 399 404
f 406 400 405
f 407 401 406
f 409 402 408
f 410 403 409
f 411 404 410
f 412 405 411
f 413 406 412
f 414 407 413
f 302 408 281
f 301 409 302
f 300 410 301
f 299 411 300
f 298 412 299
f 297 413 298
f 169 414 297
f 389 388 391
f 391 390 394
f 392 391 395
f 394 393 398
f 395 394 399
f 396 395 400
f 398 397 403
f 399 398 404
f 400 399 405
f 401 400 406
f 403 402 409
f 404 403 410
f 405 404 411
f 406 405 412
f 407 406 413
f 409 408 302
f 410 409 301
f 411 410 300
f 412 411 299
f 413 412 298
f 414 413 297
f 388 387 415
f 417 415 416
f 390 388 417
f 419 416 418
f 420 417 419
f 393 390 420
f 422 418 421
f 423 419 422
f 424 420 423
f 397 393 424
f 426 421 425
f 427 422 426
f 428 423 427
f 429 424 428
f 402 397 429
f 431 425 430
f 432 426 431
f 433 427 432
f 434 428 433
f 435 429 434
f 408 402 435
f 386 430 253
f 385 431 386
f 384 432 385
f 383 433 384
f 382 434 383
f 381 435 382
f 281 408 381
f 388 415 417
f 417 416 419
f 390 417 420
f 419 418 422
f 420 419 423
f 393 420 424
f 422 421 426
f 423 422 427
f 424 423 428
f 397 424 429
f 426 425 431
f 427 426 432
f 428 427 433
f 429 428 434
f 402 429 435
f 431 430 386
f 432 431 385
f 433 432 384
f 434 433 383
f 435 434 382
f 408 435 381
f 415 387 436
f 438 436 437
f 416 415 438
f 440 437 439
f 441 438 440
f 418 416 441
f 443 439 442
f 444 440 443
f 445 441 444
f 421 418 445
f 447 442 446
f 448 443 447
f 449 444 448
f 450 445 449
f 425 421 450
f 452 446 451
f 453 447 452
f 454 448 453
f 455 449 454
f 456 450 455
f 430 425 456
f 365 451 225
f 364 452 365
f 363 453 364
f 362 454 363
f 361 455 362
f 360 456 361
f 253 430 360
f 415 436 438
f 438 437 440
f 416 438 441
f 440 439 443
f 441 440 444
f 418 441 445
f 443 442 447
f 444 443 448
f 445 444 449
f 421 445 450
f 447 446 452
f 448 447 453
f 449 448 454
f 450 449 455
f 425 450 456
f 452 451 365
f 453 452 364
f 454 453 363
f 455 454 362
f 456 455 361
f 430 456 360
f 436 387 457
f 459 457 458
f 437 436 459
f 461 458 460
f 462 459 461
f 439 437 462
f 464 460 463
f 465 461 464
f 466 462 465
f 442 439 466
f 468 463 467
f 469 464 468
f 470 465 469
f 471 466 470
f 446 442 471
f 473 467 472
f 474 468 473
f 475 469 474
f 476 470 475
f 477 471 476
f 451 446 477
f 344 472 197
f 343 473 344
f 342 474 343
f 341 475 342
f 340 476 341
f 339 477 340
f 225 451 339
f 436 457 459
f 459 458 461
f 437 459 462
f 461 460 464
f 462 461 465
f 439 462 466
f 464 463 468
f 465 464 469
f 466 465 470
f 442 466 471
f 468 467 473
f 469 468 474
f 470 469 475
f 471 470 476
f 446 471 477
f 473 472 344
f 474 473 343
f 475 474 342
f 476 475 341
f 477 476 340
f 451 477 339
f 457 387 389
f 478 389 392
f 458 457 478
f 479 392 396
f 480 478 479
f 460 458 480
f 481 396 401
f 482 479 481
f 483 480 482
f 463 460 483
f 484 401 407
f 485 481 484
f 486 482 485
f 487 483 486
f 467 463 487
f 488 407 414
f 489 484 488
f 490 485 489
f 491 486 490
f 492 487 491
f 472 467 492
f 323 414 169
f 322 488 323
f 321 489 322
f 320 490 321
f 319 491 320
f 318 492 319
f 197 472 318
f 457 389 478
f 478 392 479
f 458 478 480
f 479 396 481
f 480 479 482
f 460 480 483
f 481 401 484
f 482 481 485
f 483 482 486
f 463 483 487
f 484 407 488
f 485 484 489
f 486 485 490
f 487 486 491
f 467 487 492
f 488 414 323
f 489 488 322
f 490 489 321
f 491 490 320
f 492 491 319
f 472 492 318
