# File exported by Houdini 20.5.445 (www.sidefx.com)
# 492 points
# 2940 vertices
# 980 primitives
# Bounds: [-227.988586, -59.5729218, -1090.84204] to [398.762512, 175.950027, -663.958984]
g 
v 85.3869934 58.1885567 -1090.84204
v 85.3869934 76.8167572 -1088.17798
v 132.476532 63.9450188 -1088.17798
v 85.3869934 94.980011 -1080.25195
v 135.107269 83.9355011 -1082.96948
v 178.390717 69.5577698 -1080.25195
v 85.3869934 112.224884 -1067.26221
v 136.652557 102.484268 -1072.2218
v 181.518524 90.2202759 -1072.2218
v 221.983429 74.8867493 -1067.26221
v 85.3869934 128.120789 -1049.53247
v 137.161835 119.518036 -1056.48523
v 182.985748 108.728683 -1058.63757
v 224.420258 95.6662598 -1056.48523
v 262.166107 79.7988281 -1049.53247
v 85.3869934 142.27092 -1027.50586
v 136.652557 134.935059 -1036.02759
v 182.985748 125.409958 -1040.03198
v 225.153717 113.883469 -1040.03198
v 263.549591 100.248154 -1036.02759
v 297.935638 84.171463 -1027.50598
v 85.3869934 154.32196 -1001.73193
v 135.107269 148.557037 -1010.89343
v 181.518524 140.419662 -1016.23157
v 224.420258 130.184891 -1017.98462
v 263.549591 117.996719 -1016.23157
v 298.461639 103.904678 -1010.89343
v 328.399139 87.895462 -1001.73193
v 85.3869934 163.973129 -972.85437
v 132.476532 160.078415 -980.954834
v 178.390778 153.640106 -986.470093
v 221.983429 144.81897 -989.262695
v 262.166107 133.835159 -989.262695
v 297.935638 120.962952 -986.470093
v 328.399078 106.523651 -980.954834
v 352.795959 90.8778229 -972.854492
v 114.489899 43.1180229 -1088.17798
v 165.836151 48.3540993 -1082.96948
v 142.866547 28.4236145 -1080.25195
v 213.202362 53.5331001 -1072.2218
v 196.065033 33.689579 -1072.2218
v 169.808197 14.4722729 -1067.26221
v 256.418854 58.6146049 -1056.48523
v 243.305206 38.8839951 -1058.63757
v 223.089142 20.0215416 -1056.48523
v 194.642487 1.61219025 -1049.53247
v 295.23349 63.5609627 -1036.02759
v 285.473053 44.0387497 -1040.03198
v 269.366364 25.3885536 -1040.03198
v 246.763092 7.43632507 -1036.02759
v 216.749298 -9.83551407 -1027.50598
v 329.190521 68.3233032 -1010.89343
v 322.962189 49.2020416 -1016.23157
v 310.347565 30.688427 -1017.98462
v 291.62912 12.9209576 -1016.23157
v 266.794708 -3.92578506 -1010.89343
v 235.576691 -19.5850029 -1001.73193
v 357.502014 72.8249207 -980.954834
v 355.415222 54.4065208 -986.470093
v 346.587463 36.0825119 -989.262695
v 331.239044 18.3103371 -989.262695
v 309.753143 1.53372955 -986.470093
v 282.666351 -13.8285789 -980.954834
v 250.654816 -27.3929672 -972.854492
v 56.2840271 43.1180229 -1088.17798
v 85.3869934 26.3636017 -1082.96948
v 27.9074707 28.4236145 -1080.25195
v 113.115753 11.015625 -1072.2218
v 57.6582947 11.015625 -1072.2218
v 0.965759277 14.4722729 -1067.26221
v 139.315582 -2.87763023 -1056.48523
v 85.3869934 -4.282444 -1058.63757
v 31.4583435 -2.87763023 -1056.48523
v -23.8684998 1.61219025 -1049.53247
v 163.81369 -15.2375946 -1036.02759
v 111.448151 -17.7778931 -1040.03198
v 59.3257751 -17.7778931 -1040.03198
v 6.9602356 -15.2375946 -1036.02759
v -45.9753113 -9.83551407 -1027.50598
v 186.345551 -25.9163132 -1010.89343
v 136.085052 -29.59655 -1016.23157
v 85.3869934 -30.8037987 -1017.98462
v 34.6889648 -29.59655 -1016.23157
v -15.5715942 -25.9163132 -1010.89343
v -64.8027649 -19.5850029 -1001.73193
v 206.473846 -34.6555786 -980.954834
v 159.269745 -39.6004562 -986.470093
v 110.221222 -42.1041718 -989.262695
v 60.5527039 -42.1041718 -989.262695
v 11.5042114 -39.6004562 -986.470093
v -35.6997986 -34.6555786 -980.954834
v -79.8808289 -27.3929672 -972.854492
v 38.2974243 63.9450188 -1088.17798
v 4.93783569 48.3540993 -1082.96948
v -7.61682129 69.5577698 -1080.25195
v -25.2911072 33.689579 -1072.2218
v -42.4283447 53.5331001 -1072.2218
v -51.2094421 74.8867493 -1067.26221
v -52.315155 20.0215416 -1056.48523
v -72.5312195 38.8839951 -1058.63757
v -85.6448669 58.6146049 -1056.48523
v -91.3921204 79.7988281 -1049.53247
v -75.9891357 7.43632507 -1036.02759
v -98.5924072 25.3885536 -1040.03198
v -114.699127 44.0387497 -1040.03198
v -124.459534 63.5609627 -1036.02759
v -127.161682 84.171463 -1027.50598
v -96.020752 -3.92578506 -1010.89343
v -120.855133 12.9209576 -1016.23157
v -139.573578 30.688427 -1017.98462
v -152.188232 49.2020416 -1016.23157
v -158.416595 68.3233032 -1010.89343
v -157.625122 87.895462 -1001.73193
v -111.892365 -13.8285789 -980.954834
v -138.979187 1.53372955 -986.470093
v -160.465057 18.3103371 -989.262695
v -175.813446 36.0825119 -989.262695
v -184.641266 54.4065208 -986.470093
v -186.728088 72.8249207 -980.954834
v -182.021942 90.8778229 -972.854492
v 35.666687 83.9355011 -1082.96948
v -10.7445068 90.2202759 -1072.2218
v 34.1214905 102.484268 -1072.2218
v -53.6462402 95.6662598 -1056.48523
v -12.211792 108.728683 -1058.63757
v 33.6121521 119.518036 -1056.48523
v -92.7756958 100.248154 -1036.02759
v -54.3797302 113.883469 -1040.03198
v -12.211792 125.409958 -1040.03198
v 34.12146 134.935059 -1036.02759
v -127.687683 103.904678 -1010.89343
v -92.7756958 117.996719 -1016.23157
v -53.6462402 130.184891 -1017.98462
v -10.7445068 140.419662 -1016.23157
v 35.6666565 148.557037 -1010.89343
v -157.625061 106.523651 -980.954834
v -127.161682 120.962952 -986.470093
v -91.3921204 133.835159 -989.262695
v -51.2094421 144.81897 -989.262695
v -7.61685181 153.640106 -986.470093
v 38.2973938 160.078415 -980.954834
v 56.2840271 169.392502 -947.336792
v 4.93783569 164.469498 -953.459473
v 27.9074707 172.035828 -920.07312
v -42.4283447 156.826645 -957.012573
v -25.2910461 165.700912 -924.981934
v 0.965759277 171.837097 -891.744141
v -85.6448669 146.754883 -958.177246
v -72.5311584 156.645401 -927.291382
v -52.3151245 164.014191 -895.88208
v -23.8684998 168.801254 -863.057007
v -124.459473 134.403702 -957.012573
v -114.699036 145.118958 -927.291382
v -98.5923462 153.459549 -897.187134
v -75.9890747 159.503357 -866.418579
v -45.9752808 163.004059 -834.728027
v -158.416534 119.817154 -953.459473
v -152.188171 131.014053 -924.981934
v -139.573425 140.162415 -895.88208
v -120.855072 147.239395 -866.418579
v -96.0206909 152.127853 -836.837891
v -64.8027344 154.590302 -807.464355
v -186.728058 102.966003 -947.336792
v -184.641144 113.936386 -920.07312
v -175.813324 123.515121 -891.744141
v -160.464935 131.463074 -863.057007
v -138.979126 137.581802 -834.728027
v -111.892334 141.718536 -807.464355
v -79.8808289 143.770096 -781.946655
v -204.714706 82.1389923 -947.336792
v -208.136902 62.2452507 -953.459473
v -220.165512 72.8022614 -920.07312
v -203.453796 42.9350815 -957.012573
v -220.591049 51.8093987 -924.981934
v -227.988586 63.1006508 -891.744141
v -191.348419 24.3592491 -958.177246
v -212.297882 32.1078262 -927.291382
v -224.678101 41.6185341 -895.88208
v -227.988586 53.276432 -863.057007
v -172.120667 6.65402794 -957.012573
v -196.191162 13.4576302 -927.291382
v -212.297882 21.7982521 -897.187134
v -220.591019 31.7536659 -866.418579
v -220.165512 43.5748558 -834.728027
v -145.741058 -10.0038719 -953.459473
v -172.120636 -4.31523514 -924.981934
v -191.348328 3.02554703 -895.88208
v -203.453705 11.9101505 -866.418579
v -208.136871 22.3069115 -836.837891
v -204.714706 34.2381248 -807.464355
v -111.892334 -25.3414268 -947.336792
v -138.979126 -21.2046852 -920.07312
v -160.464935 -15.0859528 -891.744141
v -175.813324 -7.13800049 -863.057007
v -184.641144 2.44070435 -834.728027
v -186.728058 13.4111252 -807.464355
v -182.021942 25.4992943 -781.946777
v -64.8027344 -38.2131958 -947.336792
v -15.5715637 -45.5852051 -953.459473
v -45.9752808 -46.6269684 -920.07312
v 34.6889648 -49.876709 -957.012573
v 6.96026611 -53.2663574 -924.981934
v -23.8684998 -52.4241333 -891.744141
v 85.3869934 -51.2855072 -958.177246
v 59.3257751 -56.3870926 -927.291382
v 31.458374 -57.8779297 -895.88208
v 0.965759277 -55.4599915 -863.057007
v 136.085052 -49.876709 -957.012573
v 111.448151 -56.3870926 -927.291382
v 85.3869934 -59.5729218 -897.187134
v 57.6582947 -59.463913 -866.418579
v 27.9074707 -55.6587143 -834.728027
v 186.34549 -45.5852051 -953.459473
v 163.81369 -53.2663574 -924.981934
v 139.315582 -57.8779297 -895.88208
v 113.115753 -59.463913 -866.418579
v 85.3869934 -57.9268646 -836.837891
v 56.2840271 -53.0153809 -807.464355
v 235.576691 -38.2131958 -947.336792
v 216.749237 -46.6269684 -920.07312
v 194.642487 -52.4241333 -891.744141
v 169.808197 -55.4599915 -863.057007
v 142.866547 -55.6587143 -834.728027
v 114.489899 -53.0153809 -807.464355
v 85.3869934 -47.596077 -781.946777
v 282.666229 -25.3414268 -947.336792
v 316.515045 -10.0038719 -953.459473
v 309.753082 -21.2046852 -920.07312
v 342.894714 6.65402794 -957.012573
v 342.894714 -4.31523514 -924.981934
v 331.238922 -15.0859528 -891.744141
v 362.122375 24.3592491 -958.177246
v 366.965027 13.4576302 -927.291382
v 362.122253 3.02554703 -895.88208
v 346.587341 -7.13800049 -863.057007
v 374.227722 42.9350815 -957.012573
v 383.071838 32.1078262 -927.291382
v 383.071838 21.7982521 -897.187134
v 374.2276 11.9101505 -866.418579
v 355.4151 2.44070435 -834.728027
v 378.91095 62.2452507 -953.459473
v 391.364929 51.8093987 -924.981934
v 395.452087 41.6185341 -895.88208
v 391.364929 31.7536659 -866.418579
v 378.910828 22.3069115 -836.837891
v 357.502014 13.4111252 -807.464355
v 375.488708 82.1389923 -947.336792
v 390.939514 72.8022614 -920.07312
v 398.762512 63.1006508 -891.744141
v 398.762512 53.276432 -863.057007
v 390.939514 43.5748558 -834.728027
v 375.488708 34.2381248 -807.464355
v 352.795959 25.4992943 -781.946777
v 357.502014 102.966003 -947.336792
v 329.19046 119.817154 -953.459473
v 355.4151 113.936386 -920.07312
v 295.23349 134.403702 -957.012573
v 322.962128 131.014053 -924.981934
v 346.587341 123.515121 -891.744141
v 256.418854 146.754883 -958.177246
v 285.472992 145.118958 -927.291382
v 310.347443 140.162415 -895.88208
v 331.238922 131.463074 -863.057007
v 213.202362 156.826645 -957.012573
v 243.305084 156.645401 -927.291382
v 269.366241 153.459549 -897.187134
v 291.628998 147.239395 -866.418579
v 309.753082 137.581802 -834.728027
v 165.836151 164.469498 -953.459473
v 196.065033 165.700912 -924.981934
v 223.08902 164.014191 -895.88208
v 246.76297 159.503357 -866.418579
v 266.794647 152.127853 -836.837891
v 282.666229 141.718536 -807.464355
v 114.489899 169.392502 -947.336792
v 142.866547 172.035828 -920.07312
v 169.808197 171.837097 -891.744141
v 194.642487 168.801254 -863.057007
v 216.749237 163.004059 -834.728027
v 235.576691 154.590302 -807.464355
v 250.654816 143.770096 -781.946655
v 85.3869934 174.30394 -917.963135
v 57.6582947 175.841034 -888.382568
v 113.115753 175.841034 -888.382568
v 31.458374 174.255005 -858.919189
v 85.3869934 175.950027 -857.614136
v 139.315582 174.255005 -858.919189
v 6.96026611 169.643463 -829.819214
v 59.3257751 172.76416 -827.509644
v 111.448151 172.76416 -827.509644
v 163.81369 169.643463 -829.819214
v -15.5715637 161.962326 -801.341797
v 34.6889648 166.253815 -797.788574
v 85.3869934 167.662567 -796.623901
v 136.085052 166.253815 -797.788574
v 186.34549 161.962326 -801.341797
v -35.6997986 151.032654 -773.846313
v 11.5042114 155.977524 -768.330994
v 60.5527039 158.481247 -765.538513
v 110.221222 158.481247 -765.538513
v 159.269745 155.977524 -768.330994
v 206.473846 151.032654 -773.846313
v -208.136871 94.0702057 -917.963135
v -220.591019 84.6234131 -888.382568
v -203.453705 104.466934 -888.382568
v -224.678101 74.7585907 -858.919189
v -212.297882 94.5788727 -857.614136
v -191.348328 113.351578 -858.919189
v -220.591049 64.5677185 -829.819214
v -212.297882 84.2692566 -827.509644
v -196.191162 102.919464 -827.509644
v -172.120636 120.692322 -829.819214
v -208.136902 54.1318703 -801.341797
v -203.453796 73.4419708 -797.788574
v -191.348419 92.0178833 -796.623901
v -172.120667 109.723083 -797.788574
v -145.741058 126.380951 -801.341797
v -186.728088 43.552166 -773.846313
v -184.641266 61.970562 -768.330994
v -175.813446 80.2945709 -765.538513
v -160.465057 98.0667419 -765.538513
v -138.979187 114.843384 -768.330994
v -111.892365 130.205658 -773.846313
v -96.0206909 -35.7507858 -917.963135
v -75.9890747 -43.1262665 -888.382568
v -120.855072 -30.8623581 -888.382568
v -52.3151245 -47.6370773 -858.919189
v -98.5923462 -37.0824928 -857.614136
v -139.573425 -23.7853355 -858.919189
v -25.2910461 -49.323822 -829.819214
v -72.5311584 -40.2683258 -827.509644
v -114.699036 -28.7418709 -827.509644
v -152.188171 -14.6369362 -829.819214
v 4.93783569 -48.0923996 -801.341797
v -42.4283447 -40.4495697 -797.788574
v -85.6448669 -30.3778 -796.623901
v -124.459473 -18.0266647 -797.788574
v -158.416534 -3.44007111 -801.341797
v 38.2973938 -43.7013016 -773.846375
v -7.61685181 -37.2630463 -768.331055
v -51.2094421 -28.4418488 -765.538513
v -91.3921204 -17.4580383 -765.538513
v -127.161682 -4.58586884 -768.331055
v -157.625061 9.8534317 -773.846375
v 266.794708 -35.7507858 -917.963135
v 291.628998 -30.8622818 -888.382568
v 246.76297 -43.1262665 -888.382568
v 310.347443 -23.7853355 -858.919189
v 269.366241 -37.0824928 -857.614136
v 223.08902 -47.6370773 -858.919189
v 322.962128 -14.6369362 -829.819214
v 285.472992 -28.7418709 -827.509644
v 243.305084 -40.2683258 -827.509644
v 196.065033 -49.323822 -829.819214
v 329.19046 -3.44007111 -801.341797
v 295.23349 -18.0266647 -797.788574
v 256.418854 -30.3778 -796.623901
v 213.202362 -40.4495697 -797.788574
v 165.836151 -48.0923996 -801.341797
v 328.399078 9.8534317 -773.846375
v 297.935638 -4.58586884 -768.331055
v 262.166107 -17.4580383 -765.538513
v 221.983429 -28.4418488 -765.538513
v 178.390778 -37.2630463 -768.331055
v 132.476532 -43.7013016 -773.846375
v 378.910828 94.0702057 -917.963135
v 374.227722 104.466934 -888.382568
v 391.364929 84.6234131 -888.382568
v 362.122253 113.351578 -858.919189
v 383.071838 94.5788727 -857.614136
v 395.452087 74.7585907 -858.919189
v 342.894592 120.692322 -829.819214
v 366.965027 102.919464 -827.509644
v 383.071838 84.2692566 -827.509644
v 391.364929 64.5677185 -829.819214
v 316.515045 126.380951 -801.341797
v 342.894714 109.723083 -797.788574
v 362.122375 92.0178833 -796.623901
v 374.227722 73.4419708 -797.788574
v 378.91095 54.1318703 -801.341797
v 282.666351 130.205658 -773.846313
v 309.753143 114.843384 -768.330994
v 331.239044 98.0667419 -765.538513
v 346.587463 80.2945709 -765.538513
v 355.415222 61.970562 -768.330994
v 357.502014 43.552166 -773.846313
v 85.3869934 58.1885567 -663.958984
v 114.489899 73.2590637 -666.623108
v 56.2840271 73.2590637 -666.623108
v 142.866547 87.953476 -674.549133
v 85.3869934 90.0135193 -671.831543
v 27.9074707 87.953476 -674.549133
v 169.808197 101.904846 -687.539001
v 113.115753 105.361465 -682.579407
v 57.6582947 105.361465 -682.579407
v 0.965759277 101.904846 -687.539001
v 194.642487 114.764923 -705.268616
v 139.315582 119.254745 -698.315857
v 85.3869934 120.659561 -696.163574
v 31.4583435 119.254745 -698.315857
v -23.8684998 114.764923 -705.268616
v 216.749298 126.212585 -727.295349
v 163.81369 131.614716 -718.77356
v 111.448151 134.154984 -714.769104
v 59.3257751 134.154984 -714.769104
v 6.9602356 131.614716 -718.77356
v -45.9753113 126.212585 -727.295349
v 235.576691 135.962082 -753.069214
v 186.345551 142.293442 -743.907715
v 136.085052 145.973633 -738.569641
v 85.3869934 147.180908 -736.816528
v 34.6889648 145.973633 -738.569641
v -15.5715942 142.293442 -743.907715
v -64.8027649 135.962082 -753.069214
v 132.476532 52.4321022 -666.623108
v 178.390717 46.819355 -674.549133
v 165.836151 68.022995 -671.831543
v 221.983429 41.4904175 -687.539001
v 213.202362 62.8439903 -682.579407
v 196.065033 82.6875458 -682.579407
v 262.166107 36.5782852 -705.268616
v 256.418854 57.7625237 -698.315857
v 243.305206 77.4931335 -696.163574
v 223.089142 96.3555145 -698.315857
v 297.935638 32.2056541 -727.295349
v 295.23349 52.8161583 -718.77356
v 285.473053 72.3383331 -714.769104
v 269.366364 90.9885712 -714.769104
v 246.763092 108.94075 -718.77356
v 328.399139 28.4816284 -753.069214
v 329.190521 48.0538216 -743.907715
v 322.962189 67.1750488 -738.569641
v 310.347565 85.6886597 -736.816528
v 291.62912 103.456177 -738.569641
v 266.794708 120.302902 -743.907715
v 85.3869934 39.5603638 -666.623108
v 85.3869934 21.39711 -674.549133
v 135.107269 32.4415779 -671.831543
v 85.3869934 4.1522007 -687.539001
v 136.652557 13.8928585 -682.579407
v 181.518524 26.1568069 -682.579407
v 85.3869934 -11.7437057 -705.268616
v 137.161835 -3.14091682 -698.315918
v 182.985748 7.64840508 -696.163574
v 224.420258 20.710865 -698.315857
v 85.3869934 -25.8937683 -727.29541
v 136.652557 -18.5579453 -718.77356
v 182.985748 -9.03287506 -714.769165
v 225.153717 2.49365234 -714.769165
v 263.549591 16.1289387 -718.77356
v 85.3869934 -37.9448776 -753.069214
v 135.107269 -32.1799164 -743.907715
v 181.518524 -24.0425415 -738.569641
v 224.420258 -13.8078041 -736.816589
v 263.549591 -1.61960411 -738.569641
v 298.461639 12.4724102 -743.907715
v 38.2974243 52.4321022 -666.623108
v -7.61682129 46.819355 -674.549133
v 35.666687 32.4415779 -671.831543
v -51.2094421 41.4904175 -687.539001
v -10.7445068 26.1568069 -682.579407
v 34.1214905 13.8928585 -682.579407
v -91.3921204 36.5782852 -705.268616
v -53.6462402 20.710865 -698.315857
v -12.211792 7.64840508 -696.163574
v 33.6121521 -3.14091682 -698.315918
v -127.161682 32.2056541 -727.295349
v -92.7756958 16.1289387 -718.77356
v -54.3797302 2.49365234 -714.769165
v -12.211792 -9.03287506 -714.769165
v 34.12146 -18.5579453 -718.773621
v -157.625122 28.4816284 -753.069214
v -127.687683 12.4724102 -743.907715
v -92.7756958 -1.61960411 -738.569641
v -53.6462402 -13.8078041 -736.816589
v -10.7445068 -24.0425415 -738.569641
v 35.6666565 -32.1799164 -743.907715
v 4.93783569 68.022995 -671.831543
v -25.2911072 82.6875458 -682.579407
v -42.4283447 62.8439903 -682.579407
v -52.315155 96.3555145 -698.315857
v -72.5312195 77.4931335 -696.163574
v -85.6448669 57.7625237 -698.315857
v -75.9891357 108.94075 -718.77356
v -98.5924072 90.9885712 -714.769104
v -114.699127 72.3383331 -714.769104
v -124.459534 52.8161583 -718.77356
v -96.020752 120.302902 -743.907654
v -120.855133 103.456177 -738.569641
v -139.573578 85.6886597 -736.816528
v -152.188232 67.1750488 -738.569641
v -158.416595 48.0538216 -743.907715
g 
f 3 1 2
f 5 2 4
f 6 3 5
f 8 4 7
f 9 5 8
f 10 6 9
f 12 7 11
f 13 8 12
f 14 9 13
f 15 10 14
f 17 11 16
f 18 12 17
f 19 13 18
f 20 14 19
f 21 15 20
f 23 16 22
f 24 17 23
f 25 18 24
f 26 19 25
f 27 20 26
f 28 21 27
f 30 22 29
f 31 23 30
f 32 24 31
f 33 25 32
f 34 26 33
f 35 27 34
f 36 28 35
f 3 2 5
f 5 4 8
f 6 5 9
f 8 7 12
f 9 8 13
f 10 9 14
f 12 11 17
f 13 12 18
f 14 13 19
f 15 14 20
f 17 16 23
f 18 17 24
f 19 18 25
f 20 19 26
f 21 20 27
f 23 22 30
f 24 23 31
f 25 24 32
f 26 25 33
f 27 26 34
f 28 27 35
f 37 1 3
f 38 3 6
f 39 37 38
f 40 6 10
f 41 38 40
f 42 39 41
f 43 10 15
f 44 40 43
f 45 41 44
f 46 42 45
f 47 15 21
f 48 43 47
f 49 44 48
f 50 45 49
f 51 46 50
f 52 21 28
f 53 47 52
f 54 48 53
f 55 49 54
f 56 50 55
f 57 51 56
f 58 28 36
f 59 52 58
f 60 53 59
f 61 54 60
f 62 55 61
f 63 56 62
f 64 57 63
f 37 3 38
f 38 6 40
f 39 38 41
f 40 10 43
f 41 40 44
f 42 41 45
f 43 15 47
f 44 43 48
f 45 44 49
f 46 45 50
f 47 21 52
f 48 47 53
f 49 48 54
f 50 49 55
f 51 50 56
f 52 28 58
f 53 52 59
f 54 53 60
f 55 54 61
f 56 55 62
f 57 56 63
f 65 1 37
f 66 37 39
f 67 65 66
f 68 39 42
f 69 66 68
f 70 67 69
f 71 42 46
f 72 68 71
f 73 69 72
f 74 70 73
f 75 46 51
f 76 71 75
f 77 72 76
f 78 73 77
f 79 74 78
f 80 51 57
f 81 75 80
f 82 76 81
f 83 77 82
f 84 78 83
f 85 79 84
f 86 57 64
f 87 80 86
f 88 81 87
f 89 82 88
f 90 83 89
f 91 84 90
f 92 85 91
f 65 37 66
f 66 39 68
f 67 66 69
f 68 42 71
f 69 68 72
f 70 69 73
f 71 46 75
f 72 71 76
f 73 72 77
f 74 73 78
f 75 51 80
f 76 75 81
f 77 76 82
f 78 77 83
f 79 78 84
f 80 57 86
f 81 80 87
f 82 81 88
f 83 82 89
f 84 83 90
f 85 84 91
f 93 1 65
f 94 65 67
f 95 93 94
f 96 67 70
f 97 94 96
f 98 95 97
f 99 70 74
f 100 96 99
f 101 97 100
f 102 98 101
f 103 74 79
f 104 99 103
f 105 100 104
f 106 101 105
f 107 102 106
f 108 79 85
f 109 103 108
f 110 104 109
f 111 105 110
f 112 106 111
f 113 107 112
f 114 85 92
f 115 108 114
f 116 109 115
f 117 110 116
f 118 111 117
f 119 112 118
f 120 113 119
f 93 65 94
f 94 67 96
f 95 94 97
f 96 70 99
f 97 96 100
f 98 97 101
f 99 74 103
f 100 99 104
f 101 100 105
f 102 101 106
f 103 79 108
f 104 103 109
f 105 104 110
f 106 105 111
f 107 106 112
f 108 85 114
f 109 108 115
f 110 109 116
f 111 110 117
f 112 111 118
f 113 112 119
f 2 1 93
f 121 93 95
f 4 2 121
f 122 95 98
f 123 121 122
f 7 4 123
f 124 98 102
f 125 122 124
f 126 123 125
f 11 7 126
f 127 102 107
f 128 124 127
f 129 125 128
f 130 126 129
f 16 11 130
f 131 107 113
f 132 127 131
f 133 128 132
f 134 129 133
f 135 130 134
f 22 16 135
f 136 113 120
f 137 131 136
f 138 132 137
f 139 133 138
f 140 134 139
f 141 135 140
f 29 22 141
f 2 93 121
f 121 95 122
f 4 121 123
f 122 98 124
f 123 122 125
f 7 123 126
f 124 102 127
f 125 124 128
f 126 125 129
f 11 126 130
f 127 107 131
f 128 127 132
f 129 128 133
f 130 129 134
f 16 130 135
f 131 113 136
f 132 131 137
f 133 132 138
f 134 133 139
f 135 134 140
f 22 135 141
f 142 29 141
f 143 141 140
f 144 142 143
f 145 140 139
f 146 143 145
f 147 144 146
f 148 139 138
f 149 145 148
f 150 146 149
f 151 147 150
f 152 138 137
f 153 148 152
f 154 149 153
f 155 150 154
f 156 151 155
f 157 137 136
f 158 152 157
f 159 153 158
f 160 154 159
f 161 155 160
f 162 156 161
f 163 136 120
f 164 157 163
f 165 158 164
f 166 159 165
f 167 160 166
f 168 161 167
f 169 162 168
f 142 141 143
f 143 140 145
f 144 143 146
f 145 139 148
f 146 145 149
f 147 146 150
f 148 138 152
f 149 148 153
f 150 149 154
f 151 150 155
f 152 137 157
f 153 152 158
f 154 153 159
f 155 154 160
f 156 155 161
f 157 136 163
f 158 157 164
f 159 158 165
f 160 159 166
f 161 160 167
f 162 161 168
f 170 120 119
f 171 119 118
f 172 170 171
f 173 118 117
f 174 171 173
f 175 172 174
f 176 117 116
f 177 173 176
f 178 174 177
f 179 175 178
f 180 116 115
f 181 176 180
f 182 177 181
f 183 178 182
f 184 179 183
f 185 115 114
f 186 180 185
f 187 181 186
f 188 182 187
f 189 183 188
f 190 184 189
f 191 114 92
f 192 185 191
f 193 186 192
f 194 187 193
f 195 188 194
f 196 189 195
f 197 190 196
f 170 119 171
f 171 118 173
f 172 171 174
f 173 117 176
f 174 173 177
f 175 174 178
f 176 116 180
f 177 176 181
f 178 177 182
f 179 178 183
f 180 115 185
f 181 180 186
f 182 181 187
f 183 182 188
f 184 183 189
f 185 114 191
f 186 185 192
f 187 186 193
f 188 187 194
f 189 188 195
f 190 189 196
f 198 92 91
f 199 91 90
f 200 198 199
f 201 90 89
f 202 199 201
f 203 200 202
f 204 89 88
f 205 201 204
f 206 202 205
f 207 203 206
f 208 88 87
f 209 204 208
f 210 205 209
f 211 206 210
f 212 207 211
f 213 87 86
f 214 208 213
f 215 209 214
f 216 210 215
f 217 211 216
f 218 212 217
f 219 86 64
f 220 213 219
f 221 214 220
f 222 215 221
f 223 216 222
f 224 217 223
f 225 218 224
f 198 91 199
f 199 90 201
f 200 199 202
f 201 89 204
f 202 201 205
f 203 202 206
f 204 88 208
f 205 204 209
f 206 205 210
f 207 206 211
f 208 87 213
f 209 208 214
f 210 209 215
f 211 210 216
f 212 211 217
f 213 86 219
f 214 213 220
f 215 214 221
f 216 215 222
f 217 216 223
f 218 217 224
f 226 64 63
f 227 63 62
f 228 226 227
f 229 62 61
f 230 227 229
f 231 228 230
f 232 61 60
f 233 229 232
f 234 230 233
f 235 231 234
f 236 60 59
f 237 232 236
f 238 233 237
f 239 234 238
f 240 235 239
f 241 59 58
f 242 236 241
f 243 237 242
f 244 238 243
f 245 239 244
f 246 240 245
f 247 58 36
f 248 241 247
f 249 242 248
f 250 243 249
f 251 244 250
f 252 245 251
f 253 246 252
f 226 63 227
f 227 62 229
f 228 227 230
f 229 61 232
f 230 229 233
f 231 230 234
f 232 60 236
f 233 232 237
f 234 233 238
f 235 234 239
f 236 59 241
f 237 236 242
f 238 237 243
f 239 238 244
f 240 239 245
f 241 58 247
f 242 241 248
f 243 242 249
f 244 243 250
f 245 244 251
f 246 245 252
f 254 36 35
f 255 35 34
f 256 254 255
f 257 34 33
f 258 255 257
f 259 256 258
f 260 33 32
f 261 257 260
f 262 258 261
f 263 259 262
f 264 32 31
f 265 260 264
f 266 261 265
f 267 262 266
f 268 263 267
f 269 31 30
f 270 264 269
f 271 265 270
f 272 266 271
f 273 267 272
f 274 268 273
f 275 30 29
f 276 269 275
f 277 270 276
f 278 271 277
f 279 272 278
f 280 273 279
f 281 274 280
f 254 35 255
f 255 34 257
f 256 255 258
f 257 33 260
f 258 257 261
f 259 258 262
f 260 32 264
f 261 260 265
f 262 261 266
f 263 262 267
f 264 31 269
f 265 264 270
f 266 265 271
f 267 266 272
f 268 267 273
f 269 30 275
f 270 269 276
f 271 270 277
f 272 271 278
f 273 272 279
f 274 273 280
f 275 29 142
f 282 142 144
f 276 275 282
f 283 144 147
f 284 282 283
f 277 276 284
f 285 147 151
f 286 283 285
f 287 284 286
f 278 277 287
f 288 151 156
f 289 285 288
f 290 286 289
f 291 287 290
f 279 278 291
f 292 156 162
f 293 288 292
f 294 289 293
f 295 290 294
f 296 291 295
f 280 279 296
f 297 162 169
f 298 292 297
f 299 293 298
f 300 294 299
f 301 295 300
f 302 296 301
f 281 280 302
f 275 142 282
f 282 144 283
f 276 282 284
f 283 147 285
f 284 283 286
f 277 284 287
f 285 151 288
f 286 285 289
f 287 286 290
f 278 287 291
f 288 156 292
f 289 288 293
f 290 289 294
f 291 290 295
f 279 291 296
f 292 162 297
f 293 292 298
f 294 293 299
f 295 294 300
f 296 295 301
f 280 296 302
f 163 120 170
f 303 170 172
f 164 163 303
f 304 172 175
f 305 303 304
f 165 164 305
f 306 175 179
f 307 304 306
f 308 305 307
f 166 165 308
f 309 179 184
f 310 306 309
f 311 307 310
f 312 308 311
f 167 166 312
f 313 184 190
f 314 309 313
f 315 310 314
f 316 311 315
f 317 312 316
f 168 167 317
f 318 190 197
f 319 313 318
f 320 314 319
f 321 315 320
f 322 316 321
f 323 317 322
f 169 168 323
f 163 170 303
f 303 172 304
f 164 303 305
f 304 175 306
f 305 304 307
f 165 305 308
f 306 179 309
f 307 306 310
f 308 307 311
f 166 308 312
f 309 184 313
f 310 309 314
f 311 310 315
f 312 311 316
f 167 312 317
f 313 190 318
f 314 313 319
f 315 314 320
f 316 315 321
f 317 316 322
f 168 317 323
f 191 92 198
f 324 198 200
f 192 191 324
f 325 200 203
f 326 324 325
f 193 192 326
f 327 203 207
f 328 325 327
f 329 326 328
f 194 193 329
f 330 207 212
f 331 327 330
f 332 328 331
f 333 329 332
f 195 194 333
f 334 212 218
f 335 330 334
f 336 331 335
f 337 332 336
f 338 333 337
f 196 195 338
f 339 218 225
f 340 334 339
f 341 335 340
f 342 336 341
f 343 337 342
f 344 338 343
f 197 196 344
f 191 198 324
f 324 200 325
f 192 324 326
f 325 203 327
f 326 325 328
f 193 326 329
f 327 207 330
f 328 327 331
f 329 328 332
f 194 329 333
f 330 212 334
f 331 330 335
f 332 331 336
f 333 332 337
f 195 333 338
f 334 218 339
f 335 334 340
f 336 335 341
f 337 336 342
f 338 337 343
f 196 338 344
f 219 64 226
f 345 226 228
f 220 219 345
f 346 228 231
f 347 345 346
f 221 220 347
f 348 231 235
f 349 346 348
f 350 347 349
f 222 221 350
f 351 235 240
f 352 348 351
f 353 349 352
f 354 350 353
f 223 222 354
f 355 240 246
f 356 351 355
f 357 352 356
f 358 353 357
f 359 354 358
f 224 223 359
f 360 246 253
f 361 355 360
f 362 356 361
f 363 357 362
f 364 358 363
f 365 359 364
f 225 224 365
f 219 226 345
f 345 228 346
f 220 345 347
f 346 231 348
f 347 346 349
f 221 347 350
f 348 235 351
f 349 348 352
f 350 349 353
f 222 350 354
f 351 240 355
f 352 351 356
f 353 352 357
f 354 353 358
f 223 354 359
f 355 246 360
f 356 355 361
f 357 356 362
f 358 357 363
f 359 358 364
f 224 359 365
f 247 36 254
f 366 254 256
f 248 247 366
f 367 256 259
f 368 366 367
f 249 248 368
f 369 259 263
f 370 367 369
f 371 368 370
f 250 249 371
f 372 263 268
f 373 369 372
f 374 370 373
f 375 371 374
f 251 250 375
f 376 268 274
f 377 372 376
f 378 373 377
f 379 374 378
f 380 375 379
f 252 251 380
f 381 274 281
f 382 376 381
f 383 377 382
f 384 378 383
f 385 379 384
f 386 380 385
f 253 252 386
f 247 254 366
f 366 256 367
f 248 366 368
f 367 259 369
f 368 367 370
f 249 368 371
f 369 263 372
f 370 369 373
f 371 370 374
f 250 371 375
f 372 268 376
f 373 372 377
f 374 373 378
f 375 374 379
f 251 375 380
f 376 274 381
f 377 376 382
f 378 377 383
f 379 378 384
f 380 379 385
f 252 380 386
f 389 387 388
f 391 388 390
f 392 389 391
f 394 390 393
f 395 391 394
f 396 392 395
f 398 393 397
f 399 394 398
f 400 395 399
f 401 396 400
f 403 397 402
f 404 398 403
f 405 399 404
f 406 400 405
f 407 401 406
f 409 402 408
f 410 403 409
f 411 404 410
f 412 405 411
f 413 406 412
f 414 407 413
f 302 408 281
f 301 409 302
f 300 410 301
f 299 411 300
f 298 412 299
f 297 413 298
f 169 414 297
f 389 388 391
f 391 390 394
f 392 391 395
f 394 393 398
f 395 394 399
f 396 395 400
f 398 397 403
f 399 398 404
f 400 399 405
f 401 400 406
f 403 402 409
f 404 403 410
f 405 404 411
f 406 405 412
f 407 406 413
f 409 408 302
f 410 409 301
f 411 410 300
f 412 411 299
f 413 412 298
f 414 413 297
f 388 387 415
f 417 415 416
f 390 388 417
f 419 416 418
f 420 417 419
f 393 390 420
f 422 418 421
f 423 419 422
f 424 420 423
f 397 393 424
f 426 421 425
f 427 422 426
f 428 423 427
f 429 424 428
f 402 397 429
f 431 425 430
f 432 426 431
f 433 427 432
f 434 428 433
f 435 429 434
f 408 402 435
f 386 430 253
f 385 431 386
f 384 432 385
f 383 433 384
f 382 434 383
f 381 435 382
f 281 408 381
f 388 415 417
f 417 416 419
f 390 417 420
f 419 418 422
f 420 419 423
f 393 420 424
f 422 421 426
f 423 422 427
f 424 423 428
f 397 424 429
f 426 425 431
f 427 426 432
f 428 427 433
f 429 428 434
f 402 429 435
f 431 430 386
f 432 431 385
f 433 432 384
f 434 433 383
f 435 434 382
f 408 435 381
f 415 387 436
f 438 436 437
f 416 415 438
f 440 437 439
f 441 438 440
f 418 416 441
f 443 439 442
f 444 440 443
f 445 441 444
f 421 418 445
f 447 442 446
f 448 443 447
f 449 444 448
f 450 445 449
f 425 421 450
f 452 446 451
f 453 447 452
f 454 448 453
f 455 449 454
f 456 450 455
f 430 425 456
f 365 451 225
f 364 452 365
f 363 453 364
f 362 454 363
f 361 455 362
f 360 456 361
f 253 430 360
f 415 436 438
f 438 437 440
f 416 438 441
f 440 439 443
f 441 440 444
f 418 441 445
f 443 442 447
f 444 443 448
f 445 444 449
f 421 445 450
f 447 446 452
f 448 447 453
f 449 448 454
f 450 449 455
f 425 450 456
f 452 451 365
f 453 452 364
f 454 453 363
f 455 454 362
f 456 455 361
f 430 456 360
f 436 387 457
f 459 457 458
f 437 436 459
f 461 458 460
f 462 459 461
f 439 437 462
f 464 460 463
f 465 461 464
f 466 462 465
f 442 439 466
f 468 463 467
f 469 464 468
f 470 465 469
f 471 466 470
f 446 442 471
f 473 467 472
f 474 468 473
f 475 469 474
f 476 470 475
f 477 471 476
f 451 446 477
f 344 472 197
f 343 473 344
f 342 474 343
f 341 475 342
f 340 476 341
f 339 477 340
f 225 451 339
f 436 457 459
f 459 458 461
f 437 459 462
f 461 460 464
f 462 461 465
f 439 462 466
f 464 463 468
f 465 464 469
f 466 465 470
f 442 466 471
f 468 467 473
f 469 468 474
f 470 469 475
f 471 470 476
f 446 471 477
f 473 472 344
f 474 473 343
f 475 474 342
f 476 475 341
f 477 476 340
f 451 477 339
f 457 387 389
f 478 389 392
f 458 457 478
f 479 392 396
f 480 478 479
f 460 458 480
f 481 396 401
f 482 479 481
f 483 480 482
f 463 460 483
f 484 401 407
f 485 481 484
f 486 482 485
f 487 483 486
f 467 463 487
f 488 407 414
f 489 484 488
f 490 485 489
f 491 486 490
f 492 487 491
f 472 467 492
f 323 414 169
f 322 488 323
f 321 489 322
f 320 490 321
f 319 491 320
f 318 492 319
f 197 472 318
f 457 389 478
f 478 392 479
f 458 478 480
f 479 396 481
f 480 479 482
f 460 480 483
f 481 401 484
f 482 481 485
f 483 482 486
f 463 483 487
f 484 407 488
f 485 484 489
f 486 485 490
f 487 486 491
f 467 487 492
f 488 414 323
f 489 488 322
f 490 489 321
f 491 490 320
f 492 491 319
f 472 492 318
