# File exported by Houdini 20.5.445 (www.sidefx.com)
# 492 points
# 2940 vertices
# 980 primitives
# Bounds: [-75.0290222, -221.466782, -1052.98096] to [245.802948, 337.843872, -701.819946]
g 
v 85.3869629 58.1885719 -1052.98096
v 85.3869629 102.426071 -1050.78955
v 109.491974 71.858696 -1050.78955
v 85.3869629 145.55954 -1044.26953
v 110.838654 119.331314 -1046.50488
v 132.9953 85.1877136 -1044.26953
v 85.3869629 186.511887 -1033.58374
v 111.629608 163.380264 -1037.66357
v 134.596375 134.256226 -1037.66357
v 155.310272 97.8426666 -1033.58374
v 85.3869629 224.26088 -1018.99908
v 111.89032 203.831406 -1024.71851
v 135.347504 178.209274 -1026.48901
v 156.557648 147.189209 -1024.71851
v 175.879608 109.507797 -1018.99908
v 85.3869629 257.864075 -1000.87958
v 111.629608 240.443161 -1007.88971
v 135.347504 217.823288 -1011.18378
v 156.933014 190.450638 -1011.18378
v 176.58786 158.070023 -1007.88971
v 194.189911 119.891762 -1000.87958
v 85.3869629 286.482422 -979.677551
v 110.838654 272.792114 -987.21405
v 134.596375 253.467758 -991.605164
v 156.557648 229.162613 -993.047302
v 176.58786 200.218643 -991.605164
v 194.459198 166.753403 -987.21405
v 209.784088 128.735352 -979.677551
v 85.3869629 309.401611 -955.922424
v 109.491974 300.152527 -962.585999
v 132.9953 284.86322 -967.122986
v 155.310272 263.9151 -969.420105
v 175.879608 237.831161 -969.420105
v 194.189911 207.262741 -967.122986
v 209.784088 172.972824 -962.585999
v 222.272797 135.817749 -955.922546
v 100.284637 22.3996468 -1050.78955
v 126.568604 34.8340645 -1046.50488
v 114.810486 -12.4960594 -1044.26953
v 150.815216 47.1328697 -1037.66357
v 142.042694 0.00935173035 -1037.66357
v 128.601898 -45.6271515 -1033.58374
v 172.937592 59.2003059 -1024.71851
v 166.224762 12.3448515 -1026.48901
v 155.876251 -32.4489708 -1024.71851
v 141.314484 -76.1667709 -1018.99908
v 192.806732 70.9467468 -1007.88971
v 187.810455 24.5861549 -1011.1839
v 179.565399 -19.7036057 -1011.1839
v 167.994904 -62.3358459 -1007.88971
v 152.630951 -103.352242 -1000.87958
v 210.189178 82.2561569 -987.21405
v 207.001007 36.847744 -991.605164
v 200.543488 -7.11766434 -993.047302
v 190.961639 -49.3111572 -991.605164
v 178.248993 -89.318306 -987.21405
v 162.268585 -126.50502 -979.677551
v 224.681793 92.9465103 -962.585999
v 223.613556 49.2071342 -967.122986
v 219.094635 5.69198799 -969.420227
v 211.237885 -36.5126762 -969.420227
v 200.239288 -76.3531876 -967.122986
v 186.373627 -112.834915 -962.585999
v 169.986969 -145.047073 -955.922546
v 70.4892578 22.3996468 -1050.78955
v 85.3869629 -17.3881798 -1046.50488
v 55.9633484 -12.4960594 -1044.26953
v 99.5811768 -53.8358612 -1037.66357
v 71.1927185 -53.8358612 -1037.66357
v 42.1719971 -45.6271515 -1033.58374
v 112.992859 -86.8290253 -1024.71851
v 85.3869629 -90.1652069 -1026.48901
v 57.7810669 -86.8290253 -1024.71851
v 29.4594116 -76.1667709 -1018.99908
v 125.533325 -116.180984 -1007.88971
v 98.7276306 -122.213577 -1011.1839
v 72.0462952 -122.213577 -1011.1839
v 45.2405396 -116.180984 -1007.88971
v 18.1429749 -103.352242 -1000.87958
v 137.067322 -141.54039 -987.21405
v 111.339111 -150.279984 -991.605164
v 85.3869629 -153.146988 -993.047302
v 59.4347534 -150.279984 -991.605164
v 33.706604 -141.54039 -987.21405
v 8.50527954 -126.50502 -979.677551
v 147.370911 -162.294052 -962.585999
v 123.207306 -174.036972 -967.122986
v 98.0995483 -179.982681 -969.420227
v 72.6743774 -179.982681 -969.420227
v 47.5665894 -174.036972 -967.122986
v 23.4030151 -162.294052 -962.585999
v 0.786865234 -145.047073 -955.922546
v 61.2819519 71.858696 -1050.78955
v 44.2052917 34.8340645 -1046.50488
v 37.778595 85.1877136 -1044.26953
v 28.7312012 0.00935173035 -1037.66357
v 19.9586792 47.1328697 -1037.66357
v 15.4636841 97.8426666 -1033.58374
v 14.897644 -32.4489708 -1024.71851
v 4.5491333 12.3448515 -1026.48901
v -2.16369629 59.2003059 -1024.71851
v -5.10574341 109.507797 -1018.99908
v 2.77902222 -62.3358459 -1007.88971
v -8.79153442 -19.7036057 -1011.1839
v -17.036499 24.5861549 -1011.1839
v -22.0328369 70.9467468 -1007.88971
v -23.4160461 119.891762 -1000.87958
v -7.47509766 -89.318306 -987.21405
v -20.1877441 -49.3111572 -991.605164
v -29.7696533 -7.11766434 -993.047302
v -36.2270508 36.847744 -991.605164
v -39.4153442 82.2561569 -987.21405
v -39.0101929 128.735352 -979.677551
v -15.5997314 -112.834915 -962.585999
v -29.4653931 -76.3531876 -967.122986
v -40.4639587 -36.5126762 -969.420227
v -48.3207397 5.69198799 -969.420227
v -52.8396606 49.2071342 -967.122986
v -53.9079285 92.9465103 -962.585999
v -51.4988403 135.817749 -955.922546
v 59.9353027 119.331314 -1046.50488
v 36.1775208 134.256226 -1037.66357
v 59.1442871 163.380264 -1037.66357
v 14.2162476 147.189209 -1024.71851
v 35.4264221 178.209274 -1026.48901
v 58.8835754 203.831406 -1024.71851
v -5.81396484 158.070023 -1007.88971
v 13.8408203 190.450638 -1011.18378
v 35.4264221 217.823288 -1011.18378
v 59.1442871 240.443161 -1007.88971
v -23.6853333 166.753403 -987.21405
v -5.81396484 200.218643 -991.605164
v 14.2162476 229.162613 -993.047302
v 36.1775208 253.467758 -991.605164
v 59.9353027 272.792114 -987.21405
v -39.0101624 172.972824 -962.585999
v -23.4160461 207.262741 -967.122986
v -5.10574341 237.831161 -969.420105
v 15.4636536 263.9151 -969.420105
v 37.778595 284.86322 -967.122986
v 61.2819519 300.152527 -962.585999
v 70.4892273 322.271362 -934.931213
v 44.2052917 310.580444 -939.967712
v 55.9633484 328.548645 -912.503723
v 19.9586792 292.43042 -942.890686
v 28.7312012 313.504761 -916.541809
v 42.1719971 328.076721 -889.199768
v -2.16369629 268.51239 -943.848816
v 4.54916382 292.000061 -918.441589
v 14.8976746 309.499146 -892.603821
v 29.4594116 320.867249 -865.601379
v -22.0328064 239.181351 -942.890686
v -17.0364685 264.627502 -918.441589
v -8.79150391 284.434448 -893.677307
v 2.77905273 298.786987 -868.366516
v 18.1430054 307.100403 -842.297363
v -39.4152832 204.541733 -939.967712
v -36.2270203 231.131699 -916.541809
v -29.7695618 252.856888 -892.603821
v -20.1877136 269.663025 -868.366516
v -7.47506714 281.271973 -844.033081
v 8.50531006 287.11969 -819.869873
v -53.9078979 164.524277 -934.931213
v -52.8395996 190.576309 -912.503723
v -48.3206787 213.323502 -889.199768
v -40.4638672 232.198013 -865.601379
v -29.465332 246.728531 -842.297363
v -15.5997009 256.552307 -819.869873
v 0.786865234 261.424255 -798.87854
v -63.1152039 115.065132 -934.931213
v -64.8670044 67.8223267 -939.967712
v -71.0244141 92.8926239 -912.503723
v -62.4697571 21.9652824 -942.890686
v -71.2422485 43.0395966 -916.541809
v -75.0290222 69.8536224 -889.199768
v -56.2730408 -22.1479492 -943.848816
v -66.9970093 -3.74692917 -918.441589
v -73.3344116 18.8388023 -892.603821
v -75.0290222 46.5234413 -865.601379
v -46.4304199 -64.1936188 -942.890686
v -58.7520142 -48.0366898 -918.441589
v -66.9970093 -28.2297096 -893.677307
v -71.242218 -4.58798027 -868.366516
v -71.0244141 23.48452 -842.297363
v -32.9267578 -103.752136 -939.967712
v -46.4304199 -90.2429886 -916.541809
v -56.2729797 -72.8103943 -892.603821
v -62.469696 -51.7115784 -868.366516
v -64.8669739 -27.0217628 -844.033081
v -63.1152039 1.31200981 -819.869873
v -15.5997009 -140.175156 -934.931213
v -29.465332 -130.351395 -912.503723
v -40.4638672 -115.820877 -889.199768
v -48.3206787 -96.9463882 -865.601379
v -52.8395996 -74.1992493 -842.297363
v -53.9078979 -48.1471252 -819.869873
v -51.4988403 -19.4406166 -798.87854
v 8.50531006 -170.742538 -934.931213
v 33.706604 -188.249313 -939.967712
v 18.1430054 -190.723221 -912.503723
v 59.4347534 -198.440598 -942.890686
v 45.2405701 -206.490219 -916.541809
v 29.4594116 -204.490128 -889.199768
v 85.3869629 -201.786148 -943.848816
v 72.0462952 -213.901108 -918.441589
v 57.7810669 -217.441574 -892.603821
v 42.1719971 -211.69957 -865.601379
v 111.339111 -198.440598 -942.890686
v 98.7276306 -213.901108 -918.441589
v 85.3869629 -221.466782 -893.677307
v 71.1927185 -221.207932 -868.366516
v 55.9633484 -212.171555 -842.297363
v 137.067322 -188.249313 -939.967712
v 125.533325 -206.490219 -916.541809
v 112.992859 -217.441574 -892.603821
v 99.5811768 -221.207932 -868.366516
v 85.3869629 -217.557785 -844.033081
v 70.4892273 -205.894211 -819.869873
v 162.268585 -170.742538 -934.931213
v 152.63089 -190.723221 -912.503723
v 141.314484 -204.490128 -889.199768
v 128.601898 -211.69957 -865.601379
v 114.810486 -212.171555 -842.297363
v 100.284637 -205.894211 -819.869873
v 85.3869629 -193.02446 -798.87854
v 186.373627 -140.175156 -934.931213
v 203.700653 -103.752136 -939.967712
v 200.239227 -130.351395 -912.503723
v 217.204315 -64.1936188 -942.890686
v 217.204315 -90.2429886 -916.541809
v 211.237762 -115.820877 -889.199768
v 227.046967 -22.1479492 -943.848816
v 229.525909 -48.0366898 -918.441589
v 227.046906 -72.8103943 -892.603821
v 219.094574 -96.9463882 -865.601379
v 233.243683 21.9652824 -942.890686
v 237.770966 -3.74692917 -918.441589
v 237.770966 -28.2297096 -893.677307
v 233.243622 -51.7115784 -868.366516
v 223.613495 -74.1992493 -842.297363
v 235.6409 67.8223267 -939.967712
v 242.016083 43.0395966 -916.541809
v 244.108307 18.8388023 -892.603821
v 242.016083 -4.58798027 -868.366516
v 235.640839 -27.0217628 -844.033081
v 224.681732 -48.1471252 -819.869873
v 233.889069 115.065132 -934.931213
v 241.798248 92.8926239 -912.503723
v 245.802948 69.8536224 -889.199768
v 245.802948 46.5234413 -865.601379
v 241.798248 23.48452 -842.297363
v 233.889069 1.31200981 -819.869873
v 222.272797 -19.4406166 -798.87854
v 224.681732 164.524277 -934.931213
v 210.189178 204.541733 -939.967712
v 223.613495 190.576309 -912.503723
v 192.806732 239.181351 -942.890686
v 207.000885 231.131699 -916.541809
v 219.094574 213.323502 -889.199768
v 172.937592 268.51239 -943.848816
v 187.810394 264.627502 -918.441589
v 200.543488 252.856888 -892.603821
v 211.237762 232.198013 -865.601379
v 150.815216 292.43042 -942.890686
v 166.224701 292.000061 -918.441589
v 179.565399 284.434448 -893.677307
v 190.961639 269.663025 -868.366516
v 200.239227 246.728531 -842.297363
v 126.568604 310.580444 -939.967712
v 142.042694 313.504761 -916.541809
v 155.876251 309.499146 -892.603821
v 167.994904 298.786987 -868.366516
v 178.248993 281.271973 -844.033081
v 186.373627 256.552307 -819.869873
v 100.284637 322.271362 -934.931213
v 114.810486 328.548645 -912.503723
v 128.601898 328.076721 -889.199768
v 141.314484 320.867249 -865.601379
v 152.63089 307.100403 -842.297363
v 162.268585 287.11969 -819.869873
v 169.986969 261.424255 -798.87854
v 85.3869629 333.934875 -910.768005
v 71.1927185 337.585083 -886.434631
v 99.5811768 337.585083 -886.434631
v 57.7810669 333.818665 -862.197388
v 85.3869629 337.843872 -861.123901
v 112.992859 333.818665 -862.197388
v 45.2405701 322.867371 -838.259277
v 72.0462952 330.278259 -836.359497
v 98.7276306 330.278259 -836.359497
v 125.533325 322.867371 -838.259277
v 33.706604 304.626465 -814.833252
v 59.4347534 314.817688 -811.9104
v 85.3869629 318.163208 -810.952271
v 111.339111 314.817688 -811.9104
v 137.067322 304.626465 -814.833252
v 23.4030151 278.671143 -792.215088
v 47.5665894 290.414001 -787.678101
v 72.6743774 296.359741 -785.380981
v 98.0995483 296.359741 -785.380981
v 123.207306 290.414001 -787.678101
v 147.370911 278.671143 -792.215088
v -64.8669739 143.398895 -910.768005
v -71.242218 120.965019 -886.434631
v -62.469696 168.088638 -886.434631
v -73.3344116 97.5383377 -862.197388
v -66.9970093 144.606842 -861.123901
v -56.2729797 189.187515 -862.197388
v -71.2422485 73.3375473 -838.259277
v -66.9970093 120.124069 -836.359497
v -58.7520142 164.413742 -836.359497
v -46.4303894 206.620041 -838.259277
v -64.8670044 48.5548134 -814.833252
v -62.4697571 94.4118576 -811.9104
v -56.2730408 138.525085 -810.952271
v -46.4304199 180.570755 -811.9104
v -32.9267578 220.129196 -814.833252
v -53.9079285 23.4306316 -792.215088
v -52.8396606 67.1699219 -787.678101
v -48.3207397 110.685074 -785.380859
v -40.4639587 152.889725 -785.380859
v -29.4653931 192.73024 -787.678101
v -15.5997314 229.21196 -792.215088
v -7.47506714 -164.894882 -910.768005
v 2.77905273 -182.409927 -886.434631
v -20.1877136 -153.286057 -886.434631
v 14.8976746 -193.122025 -862.197388
v -8.79150391 -168.057388 -861.123901
v -29.7695618 -136.479813 -862.197388
v 28.7312012 -197.127609 -838.259277
v 4.54916382 -175.622971 -836.359497
v -17.0364685 -148.25032 -836.359497
v -36.2270203 -114.754562 -838.259277
v 44.2052917 -194.203293 -814.833374
v 19.9586792 -176.053391 -811.9104
v -2.16369629 -152.135361 -810.952271
v -22.0328064 -122.804276 -811.9104
v -39.4152832 -88.1646805 -814.833374
v 61.2819519 -183.775467 -792.21521
v 37.778595 -168.48616 -787.678101
v 15.4636536 -147.537918 -785.380981
v -5.10574341 -121.454178 -785.380981
v -23.4160461 -90.8855896 -787.678101
v -39.0101624 -56.5957947 -792.21521
v 178.248993 -164.894882 -910.768005
v 190.961639 -153.285873 -886.434631
v 167.994904 -182.409927 -886.434631
v 200.543488 -136.479813 -862.197388
v 179.565399 -168.057388 -861.123901
v 155.876251 -193.122025 -862.197388
v 207.000885 -114.754562 -838.259277
v 187.810394 -148.25032 -836.359497
v 166.224701 -175.622971 -836.359497
v 142.042694 -197.127609 -838.259277
v 210.189178 -88.1646805 -814.833374
v 192.806732 -122.804276 -811.9104
v 172.937592 -152.135361 -810.952271
v 150.815216 -176.053391 -811.9104
v 126.568604 -194.203293 -814.833374
v 209.784088 -56.5957947 -792.21521
v 194.189911 -90.8855896 -787.678101
v 175.879608 -121.454178 -785.380981
v 155.310272 -147.537918 -785.380981
v 132.9953 -168.48616 -787.678101
v 109.491974 -183.775467 -792.21521
v 235.640839 143.398895 -910.768005
v 233.243683 168.088638 -886.434631
v 242.016083 120.965019 -886.434631
v 227.046906 189.187515 -862.197388
v 237.770966 144.606842 -861.123901
v 244.108307 97.5383377 -862.197388
v 217.204315 206.620041 -838.259277
v 229.525909 164.413742 -836.359497
v 237.770966 120.124069 -836.359497
v 242.016083 73.3375473 -838.259277
v 203.700653 220.129196 -814.833252
v 217.204315 180.570755 -811.9104
v 227.046967 138.525085 -810.952271
v 233.243683 94.4118576 -811.9104
v 235.6409 48.5548134 -814.833252
v 186.373627 229.21196 -792.215088
v 200.239288 192.73024 -787.678101
v 211.237885 152.889725 -785.380859
v 219.094635 110.685074 -785.380859
v 223.613556 67.1699219 -787.678101
v 224.681793 23.4306316 -792.215088
v 85.3869629 58.1885719 -701.819946
v 100.284637 93.9774017 -704.011597
v 70.4892578 93.9774017 -704.011597
v 114.810486 128.873108 -710.531616
v 85.3869629 133.765228 -708.296143
v 55.9633484 128.873108 -710.531616
v 128.601898 162.004288 -721.217285
v 99.5811768 170.212906 -717.137329
v 71.1927185 170.212906 -717.137329
v 42.1719971 162.004288 -721.217285
v 141.314484 192.5439 -735.802002
v 112.992859 203.206161 -730.08252
v 85.3869629 206.542252 -728.312012
v 57.7810669 203.206161 -730.08252
v 29.4594116 192.5439 -735.802002
v 152.630951 219.729385 -753.921509
v 125.533325 232.558121 -746.911255
v 98.7276306 238.590652 -743.617188
v 72.0462952 238.590652 -743.617188
v 45.2405396 232.558212 -746.911255
v 18.1429749 219.729385 -753.921509
v 162.268585 242.882187 -775.123535
v 137.067322 257.917542 -767.587036
v 111.339111 266.657166 -763.195923
v 85.3869629 269.52417 -761.753784
v 59.4347534 266.657166 -763.195923
v 33.706604 257.917542 -767.587036
v 8.50527954 242.882187 -775.123535
v 109.491974 44.5184441 -704.011597
v 132.9953 31.1894302 -710.531616
v 126.568604 81.5429916 -708.296143
v 155.310272 18.5344715 -721.217285
v 150.815216 69.2441864 -717.137329
v 142.042694 116.367775 -717.137329
v 175.879608 6.86933899 -735.802002
v 172.937592 57.1767502 -730.08252
v 166.224762 104.032295 -728.312012
v 155.876251 148.826019 -730.08252
v 194.189911 -3.51462173 -753.921509
v 192.806732 45.430397 -746.911255
v 187.810455 91.7909012 -743.617188
v 179.565399 136.08075 -743.617188
v 167.994904 178.712967 -746.911255
v 209.784088 -12.3582916 -775.123535
v 210.189178 34.1209869 -767.587036
v 207.001007 79.5293961 -763.195923
v 200.543488 123.494713 -761.753784
v 190.961639 165.688309 -763.195923
v 178.248993 205.695267 -767.587036
v 85.3869629 13.9510632 -704.011597
v 85.3869629 -29.1824036 -710.531616
v 110.838654 -2.95417786 -708.296143
v 85.3869629 -70.1347733 -721.217285
v 111.629608 -47.0031204 -717.137329
v 134.596375 -17.8791809 -717.137329
v 85.3869629 -107.883835 -735.802002
v 111.89032 -87.4543457 -730.08252
v 135.347504 -61.8321228 -728.312012
v 156.557648 -30.8121643 -730.08252
v 85.3869629 -141.487015 -753.921509
v 111.629608 -124.066025 -746.911255
v 135.347504 -101.446083 -743.617188
v 156.933014 -74.0735092 -743.617188
v 176.58786 -41.6929626 -746.911255
v 85.3869629 -170.105362 -775.123535
v 110.838654 -156.414932 -767.587036
v 134.596375 -137.090714 -763.195923
v 156.557648 -112.785568 -761.753784
v 176.58786 -83.8415146 -763.195923
v 194.459198 -50.376358 -767.587036
v 61.2819519 44.5184441 -704.011597
v 37.778595 31.1894302 -710.531616
v 59.9353027 -2.95417786 -708.296143
v 15.4636841 18.5344715 -721.217285
v 36.1775208 -17.8791809 -717.137329
v 59.1442871 -47.0031204 -717.137329
v -5.10574341 6.86933899 -735.802002
v 14.2162476 -30.8121643 -730.08252
v 35.4264221 -61.8321228 -728.312012
v 58.8835754 -87.4543457 -730.08252
v -23.4160461 -3.51462173 -753.921509
v -5.81396484 -41.6929626 -746.911255
v 13.8408203 -74.0735092 -743.617188
v 35.4264221 -101.446083 -743.617188
v 59.1442871 -124.066025 -746.911377
v -39.0101929 -12.3582916 -775.123535
v -23.6853333 -50.376358 -767.587036
v -5.81396484 -83.8415146 -763.195923
v 14.2162476 -112.785568 -761.753784
v 36.1775208 -137.090714 -763.195923
v 59.9353027 -156.414932 -767.587036
v 44.2052917 81.5429916 -708.296143
v 28.7312012 116.367775 -717.137329
v 19.9586792 69.2441864 -717.137329
v 14.897644 148.826019 -730.08252
v 4.5491333 104.032295 -728.312012
v -2.16369629 57.1767502 -730.08252
v 2.77902222 178.712967 -746.911255
v -8.79153442 136.08075 -743.617188
v -17.036499 91.7909012 -743.617188
v -22.0328369 45.430397 -746.911255
v -7.47509766 205.695267 -767.587036
v -20.1877441 165.688309 -763.195923
v -29.7696533 123.494713 -761.753784
v -36.2270508 79.5293961 -763.195923
v -39.4153442 34.1209869 -767.587036
g 
f 3 1 2
f 5 2 4
f 6 3 5
f 8 4 7
f 9 5 8
f 10 6 9
f 12 7 11
f 13 8 12
f 14 9 13
f 15 10 14
f 17 11 16
f 18 12 17
f 19 13 18
f 20 14 19
f 21 15 20
f 23 16 22
f 24 17 23
f 25 18 24
f 26 19 25
f 27 20 26
f 28 21 27
f 30 22 29
f 31 23 30
f 32 24 31
f 33 25 32
f 34 26 33
f 35 27 34
f 36 28 35
f 3 2 5
f 5 4 8
f 6 5 9
f 8 7 12
f 9 8 13
f 10 9 14
f 12 11 17
f 13 12 18
f 14 13 19
f 15 14 20
f 17 16 23
f 18 17 24
f 19 18 25
f 20 19 26
f 21 20 27
f 23 22 30
f 24 23 31
f 25 24 32
f 26 25 33
f 27 26 34
f 28 27 35
f 37 1 3
f 38 3 6
f 39 37 38
f 40 6 10
f 41 38 40
f 42 39 41
f 43 10 15
f 44 40 43
f 45 41 44
f 46 42 45
f 47 15 21
f 48 43 47
f 49 44 48
f 50 45 49
f 51 46 50
f 52 21 28
f 53 47 52
f 54 48 53
f 55 49 54
f 56 50 55
f 57 51 56
f 58 28 36
f 59 52 58
f 60 53 59
f 61 54 60
f 62 55 61
f 63 56 62
f 64 57 63
f 37 3 38
f 38 6 40
f 39 38 41
f 40 10 43
f 41 40 44
f 42 41 45
f 43 15 47
f 44 43 48
f 45 44 49
f 46 45 50
f 47 21 52
f 48 47 53
f 49 48 54
f 50 49 55
f 51 50 56
f 52 28 58
f 53 52 59
f 54 53 60
f 55 54 61
f 56 55 62
f 57 56 63
f 65 1 37
f 66 37 39
f 67 65 66
f 68 39 42
f 69 66 68
f 70 67 69
f 71 42 46
f 72 68 71
f 73 69 72
f 74 70 73
f 75 46 51
f 76 71 75
f 77 72 76
f 78 73 77
f 79 74 78
f 80 51 57
f 81 75 80
f 82 76 81
f 83 77 82
f 84 78 83
f 85 79 84
f 86 57 64
f 87 80 86
f 88 81 87
f 89 82 88
f 90 83 89
f 91 84 90
f 92 85 91
f 65 37 66
f 66 39 68
f 67 66 69
f 68 42 71
f 69 68 72
f 70 69 73
f 71 46 75
f 72 71 76
f 73 72 77
f 74 73 78
f 75 51 80
f 76 75 81
f 77 76 82
f 78 77 83
f 79 78 84
f 80 57 86
f 81 80 87
f 82 81 88
f 83 82 89
f 84 83 90
f 85 84 91
f 93 1 65
f 94 65 67
f 95 93 94
f 96 67 70
f 97 94 96
f 98 95 97
f 99 70 74
f 100 96 99
f 101 97 100
f 102 98 101
f 103 74 79
f 104 99 103
f 105 100 104
f 106 101 105
f 107 102 106
f 108 79 85
f 109 103 108
f 110 104 109
f 111 105 110
f 112 106 111
f 113 107 112
f 114 85 92
f 115 108 114
f 116 109 115
f 117 110 116
f 118 111 117
f 119 112 118
f 120 113 119
f 93 65 94
f 94 67 96
f 95 94 97
f 96 70 99
f 97 96 100
f 98 97 101
f 99 74 103
f 100 99 104
f 101 100 105
f 102 101 106
f 103 79 108
f 104 103 109
f 105 104 110
f 106 105 111
f 107 106 112
f 108 85 114
f 109 108 115
f 110 109 116
f 111 110 117
f 112 111 118
f 113 112 119
f 2 1 93
f 121 93 95
f 4 2 121
f 122 95 98
f 123 121 122
f 7 4 123
f 124 98 102
f 125 122 124
f 126 123 125
f 11 7 126
f 127 102 107
f 128 124 127
f 129 125 128
f 130 126 129
f 16 11 130
f 131 107 113
f 132 127 131
f 133 128 132
f 134 129 133
f 135 130 134
f 22 16 135
f 136 113 120
f 137 131 136
f 138 132 137
f 139 133 138
f 140 134 139
f 141 135 140
f 29 22 141
f 2 93 121
f 121 95 122
f 4 121 123
f 122 98 124
f 123 122 125
f 7 123 126
f 124 102 127
f 125 124 128
f 126 125 129
f 11 126 130
f 127 107 131
f 128 127 132
f 129 128 133
f 130 129 134
f 16 130 135
f 131 113 136
f 132 131 137
f 133 132 138
f 134 133 139
f 135 134 140
f 22 135 141
f 142 29 141
f 143 141 140
f 144 142 143
f 145 140 139
f 146 143 145
f 147 144 146
f 148 139 138
f 149 145 148
f 150 146 149
f 151 147 150
f 152 138 137
f 153 148 152
f 154 149 153
f 155 150 154
f 156 151 155
f 157 137 136
f 158 152 157
f 159 153 158
f 160 154 159
f 161 155 160
f 162 156 161
f 163 136 120
f 164 157 163
f 165 158 164
f 166 159 165
f 167 160 166
f 168 161 167
f 169 162 168
f 142 141 143
f 143 140 145
f 144 143 146
f 145 139 148
f 146 145 149
f 147 146 150
f 148 138 152
f 149 148 153
f 150 149 154
f 151 150 155
f 152 137 157
f 153 152 158
f 154 153 159
f 155 154 160
f 156 155 161
f 157 136 163
f 158 157 164
f 159 158 165
f 160 159 166
f 161 160 167
f 162 161 168
f 170 120 119
f 171 119 118
f 172 170 171
f 173 118 117
f 174 171 173
f 175 172 174
f 176 117 116
f 177 173 176
f 178 174 177
f 179 175 178
f 180 116 115
f 181 176 180
f 182 177 181
f 183 178 182
f 184 179 183
f 185 115 114
f 186 180 185
f 187 181 186
f 188 182 187
f 189 183 188
f 190 184 189
f 191 114 92
f 192 185 191
f 193 186 192
f 194 187 193
f 195 188 194
f 196 189 195
f 197 190 196
f 170 119 171
f 171 118 173
f 172 171 174
f 173 117 176
f 174 173 177
f 175 174 178
f 176 116 180
f 177 176 181
f 178 177 182
f 179 178 183
f 180 115 185
f 181 180 186
f 182 181 187
f 183 182 188
f 184 183 189
f 185 114 191
f 186 185 192
f 187 186 193
f 188 187 194
f 189 188 195
f 190 189 196
f 198 92 91
f 199 91 90
f 200 198 199
f 201 90 89
f 202 199 201
f 203 200 202
f 204 89 88
f 205 201 204
f 206 202 205
f 207 203 206
f 208 88 87
f 209 204 208
f 210 205 209
f 211 206 210
f 212 207 211
f 213 87 86
f 214 208 213
f 215 209 214
f 216 210 215
f 217 211 216
f 218 212 217
f 219 86 64
f 220 213 219
f 221 214 220
f 222 215 221
f 223 216 222
f 224 217 223
f 225 218 224
f 198 91 199
f 199 90 201
f 200 199 202
f 201 89 204
f 202 201 205
f 203 202 206
f 204 88 208
f 205 204 209
f 206 205 210
f 207 206 211
f 208 87 213
f 209 208 214
f 210 209 215
f 211 210 216
f 212 211 217
f 213 86 219
f 214 213 220
f 215 214 221
f 216 215 222
f 217 216 223
f 218 217 224
f 226 64 63
f 227 63 62
f 228 226 227
f 229 62 61
f 230 227 229
f 231 228 230
f 232 61 60
f 233 229 232
f 234 230 233
f 235 231 234
f 236 60 59
f 237 232 236
f 238 233 237
f 239 234 238
f 240 235 239
f 241 59 58
f 242 236 241
f 243 237 242
f 244 238 243
f 245 239 244
f 246 240 245
f 247 58 36
f 248 241 247
f 249 242 248
f 250 243 249
f 251 244 250
f 252 245 251
f 253 246 252
f 226 63 227
f 227 62 229
f 228 227 230
f 229 61 232
f 230 229 233
f 231 230 234
f 232 60 236
f 233 232 237
f 234 233 238
f 235 234 239
f 236 59 241
f 237 236 242
f 238 237 243
f 239 238 244
f 240 239 245
f 241 58 247
f 242 241 248
f 243 242 249
f 244 243 250
f 245 244 251
f 246 245 252
f 254 36 35
f 255 35 34
f 256 254 255
f 257 34 33
f 258 255 257
f 259 256 258
f 260 33 32
f 261 257 260
f 262 258 261
f 263 259 262
f 264 32 31
f 265 260 264
f 266 261 265
f 267 262 266
f 268 263 267
f 269 31 30
f 270 264 269
f 271 265 270
f 272 266 271
f 273 267 272
f 274 268 273
f 275 30 29
f 276 269 275
f 277 270 276
f 278 271 277
f 279 272 278
f 280 273 279
f 281 274 280
f 254 35 255
f 255 34 257
f 256 255 258
f 257 33 260
f 258 257 261
f 259 258 262
f 260 32 264
f 261 260 265
f 262 261 266
f 263 262 267
f 264 31 269
f 265 264 270
f 266 265 271
f 267 266 272
f 268 267 273
f 269 30 275
f 270 269 276
f 271 270 277
f 272 271 278
f 273 272 279
f 274 273 280
f 275 29 142
f 282 142 144
f 276 275 282
f 283 144 147
f 284 282 283
f 277 276 284
f 285 147 151
f 286 283 285
f 287 284 286
f 278 277 287
f 288 151 156
f 289 285 288
f 290 286 289
f 291 287 290
f 279 278 291
f 292 156 162
f 293 288 292
f 294 289 293
f 295 290 294
f 296 291 295
f 280 279 296
f 297 162 169
f 298 292 297
f 299 293 298
f 300 294 299
f 301 295 300
f 302 296 301
f 281 280 302
f 275 142 282
f 282 144 283
f 276 282 284
f 283 147 285
f 284 283 286
f 277 284 287
f 285 151 288
f 286 285 289
f 287 286 290
f 278 287 291
f 288 156 292
f 289 288 293
f 290 289 294
f 291 290 295
f 279 291 296
f 292 162 297
f 293 292 298
f 294 293 299
f 295 294 300
f 296 295 301
f 280 296 302
f 163 120 170
f 303 170 172
f 164 163 303
f 304 172 175
f 305 303 304
f 165 164 305
f 306 175 179
f 307 304 306
f 308 305 307
f 166 165 308
f 309 179 184
f 310 306 309
f 311 307 310
f 312 308 311
f 167 166 312
f 313 184 190
f 314 309 313
f 315 310 314
f 316 311 315
f 317 312 316
f 168 167 317
f 318 190 197
f 319 313 318
f 320 314 319
f 321 315 320
f 322 316 321
f 323 317 322
f 169 168 323
f 163 170 303
f 303 172 304
f 164 303 305
f 304 175 306
f 305 304 307
f 165 305 308
f 306 179 309
f 307 306 310
f 308 307 311
f 166 308 312
f 309 184 313
f 310 309 314
f 311 310 315
f 312 311 316
f 167 312 317
f 313 190 318
f 314 313 319
f 315 314 320
f 316 315 321
f 317 316 322
f 168 317 323
f 191 92 198
f 324 198 200
f 192 191 324
f 325 200 203
f 326 324 325
f 193 192 326
f 327 203 207
f 328 325 327
f 329 326 328
f 194 193 329
f 330 207 212
f 331 327 330
f 332 328 331
f 333 329 332
f 195 194 333
f 334 212 218
f 335 330 334
f 336 331 335
f 337 332 336
f 338 333 337
f 196 195 338
f 339 218 225
f 340 334 339
f 341 335 340
f 342 336 341
f 343 337 342
f 344 338 343
f 197 196 344
f 191 198 324
f 324 200 325
f 192 324 326
f 325 203 327
f 326 325 328
f 193 326 329
f 327 207 330
f 328 327 331
f 329 328 332
f 194 329 333
f 330 212 334
f 331 330 335
f 332 331 336
f 333 332 337
f 195 333 338
f 334 218 339
f 335 334 340
f 336 335 341
f 337 336 342
f 338 337 343
f 196 338 344
f 219 64 226
f 345 226 228
f 220 219 345
f 346 228 231
f 347 345 346
f 221 220 347
f 348 231 235
f 349 346 348
f 350 347 349
f 222 221 350
f 351 235 240
f 352 348 351
f 353 349 352
f 354 350 353
f 223 222 354
f 355 240 246
f 356 351 355
f 357 352 356
f 358 353 357
f 359 354 358
f 224 223 359
f 360 246 253
f 361 355 360
f 362 356 361
f 363 357 362
f 364 358 363
f 365 359 364
f 225 224 365
f 219 226 345
f 345 228 346
f 220 345 347
f 346 231 348
f 347 346 349
f 221 347 350
f 348 235 351
f 349 348 352
f 350 349 353
f 222 350 354
f 351 240 355
f 352 351 356
f 353 352 357
f 354 353 358
f 223 354 359
f 355 246 360
f 356 355 361
f 357 356 362
f 358 357 363
f 359 358 364
f 224 359 365
f 247 36 254
f 366 254 256
f 248 247 366
f 367 256 259
f 368 366 367
f 249 248 368
f 369 259 263
f 370 367 369
f 371 368 370
f 250 249 371
f 372 263 268
f 373 369 372
f 374 370 373
f 375 371 374
f 251 250 375
f 376 268 274
f 377 372 376
f 378 373 377
f 379 374 378
f 380 375 379
f 252 251 380
f 381 274 281
f 382 376 381
f 383 377 382
f 384 378 383
f 385 379 384
f 386 380 385
f 253 252 386
f 247 254 366
f 366 256 367
f 248 366 368
f 367 259 369
f 368 367 370
f 249 368 371
f 369 263 372
f 370 369 373
f 371 370 374
f 250 371 375
f 372 268 376
f 373 372 377
f 374 373 378
f 375 374 379
f 251 375 380
f 376 274 381
f 377 376 382
f 378 377 383
f 379 378 384
f 380 379 385
f 252 380 386
f 389 387 388
f 391 388 390
f 392 389 391
f 394 390 393
f 395 391 394
f 396 392 395
f 398 393 397
f 399 394 398
f 400 395 399
f 401 396 400
f 403 397 402
f 404 398 403
f 405 399 404
f 406 400 405
f 407 401 406
f 409 402 408
f 410 403 409
f 411 404 410
f 412 405 411
f 413 406 412
f 414 407 413
f 302 408 281
f 301 409 302
f 300 410 301
f 299 411 300
f 298 412 299
f 297 413 298
f 169 414 297
f 389 388 391
f 391 390 394
f 392 391 395
f 394 393 398
f 395 394 399
f 396 395 400
f 398 397 403
f 399 398 404
f 400 399 405
f 401 400 406
f 403 402 409
f 404 403 410
f 405 404 411
f 406 405 412
f 407 406 413
f 409 408 302
f 410 409 301
f 411 410 300
f 412 411 299
f 413 412 298
f 414 413 297
f 388 387 415
f 417 415 416
f 390 388 417
f 419 416 418
f 420 417 419
f 393 390 420
f 422 418 421
f 423 419 422
f 424 420 423
f 397 393 424
f 426 421 425
f 427 422 426
f 428 423 427
f 429 424 428
f 402 397 429
f 431 425 430
f 432 426 431
f 433 427 432
f 434 428 433
f 435 429 434
f 408 402 435
f 386 430 253
f 385 431 386
f 384 432 385
f 383 433 384
f 382 434 383
f 381 435 382
f 281 408 381
f 388 415 417
f 417 416 419
f 390 417 420
f 419 418 422
f 420 419 423
f 393 420 424
f 422 421 426
f 423 422 427
f 424 423 428
f 397 424 429
f 426 425 431
f 427 426 432
f 428 427 433
f 429 428 434
f 402 429 435
f 431 430 386
f 432 431 385
f 433 432 384
f 434 433 383
f 435 434 382
f 408 435 381
f 415 387 436
f 438 436 437
f 416 415 438
f 440 437 439
f 441 438 440
f 418 416 441
f 443 439 442
f 444 440 443
f 445 441 444
f 421 418 445
f 447 442 446
f 448 443 447
f 449 444 448
f 450 445 449
f 425 421 450
f 452 446 451
f 453 447 452
f 454 448 453
f 455 449 454
f 456 450 455
f 430 425 456
f 365 451 225
f 364 452 365
f 363 453 364
f 362 454 363
f 361 455 362
f 360 456 361
f 253 430 360
f 415 436 438
f 438 437 440
f 416 438 441
f 440 439 443
f 441 440 444
f 418 441 445
f 443 442 447
f 444 443 448
f 445 444 449
f 421 445 450
f 447 446 452
f 448 447 453
f 449 448 454
f 450 449 455
f 425 450 456
f 452 451 365
f 453 452 364
f 454 453 363
f 455 454 362
f 456 455 361
f 430 456 360
f 436 387 457
f 459 457 458
f 437 436 459
f 461 458 460
f 462 459 461
f 439 437 462
f 464 460 463
f 465 461 464
f 466 462 465
f 442 439 466
f 468 463 467
f 469 464 468
f 470 465 469
f 471 466 470
f 446 442 471
f 473 467 472
f 474 468 473
f 475 469 474
f 476 470 475
f 477 471 476
f 451 446 477
f 344 472 197
f 343 473 344
f 342 474 343
f 341 475 342
f 340 476 341
f 339 477 340
f 225 451 339
f 436 457 459
f 459 458 461
f 437 459 462
f 461 460 464
f 462 461 465
f 439 462 466
f 464 463 468
f 465 464 469
f 466 465 470
f 442 466 471
f 468 467 473
f 469 468 474
f 470 469 475
f 471 470 476
f 446 471 477
f 473 472 344
f 474 473 343
f 475 474 342
f 476 475 341
f 477 476 340
f 451 477 339
f 457 387 389
f 478 389 392
f 458 457 478
f 479 392 396
f 480 478 479
f 460 458 480
f 481 396 401
f 482 479 481
f 483 480 482
f 463 460 483
f 484 401 407
f 485 481 484
f 486 482 485
f 487 483 486
f 467 463 487
f 488 407 414
f 489 484 488
f 490 485 489
f 491 486 490
f 492 487 491
f 472 467 492
f 323 414 169
f 322 488 323
f 321 489 322
f 320 490 321
f 319 491 320
f 318 492 319
f 197 472 318
f 457 389 478
f 478 392 479
f 458 478 480
f 479 396 481
f 480 479 482
f 460 480 483
f 481 401 484
f 482 481 485
f 483 482 486
f 463 483 487
f 484 407 488
f 485 484 489
f 486 485 490
f 487 486 491
f 467 487 492
f 488 414 323
f 489 488 322
f 490 489 321
f 491 490 320
f 492 491 319
f 472 492 318
