# File exported by Houdini 20.5.445 (www.sidefx.com)
# 492 points
# 2940 vertices
# 980 primitives
# Bounds: [-230.170258, -51.079216, -1105.84302] to [400.944153, 167.456329, -648.957947]
g 
v 85.3870239 58.1885529 -1105.84302
v 85.3870239 75.4731674 -1102.9917
v 132.804443 63.529808 -1102.9917
v 85.3870239 92.3263779 -1094.50867
v 135.45343 82.0784531 -1097.41724
v 179.038208 68.7377319 -1094.50867
v 85.3870239 108.327446 -1080.60583
v 137.009399 99.2893677 -1085.91406
v 182.187805 87.909935 -1085.91406
v 222.934448 73.6823349 -1080.60583
v 85.3870239 123.076843 -1061.63013
v 137.522339 115.094559 -1069.07153
v 183.665222 105.083397 -1071.37524
v 225.388184 92.9631348 -1069.07153
v 263.39679 78.2401581 -1061.63013
v 85.3870239 136.206345 -1038.0553
v 137.009399 129.399597 -1047.17615
v 183.665222 120.561508 -1051.46204
v 226.126709 109.866394 -1051.46204
v 264.789978 97.2145386 -1047.17615
v 299.415405 82.2974091 -1038.05542
v 85.3870239 147.388229 -1010.47009
v 135.453491 142.039078 -1020.27539
v 182.187805 134.488632 -1025.98877
v 225.388184 124.992081 -1027.86511
v 264.789978 113.682968 -1025.98877
v 299.945007 100.607338 -1020.27539
v 330.090881 85.7528152 -1010.47009
v 85.3870239 156.343292 -979.562988
v 132.804443 152.729492 -988.232666
v 179.038208 146.755539 -994.13562
v 222.934448 138.570618 -997.12439
v 263.39679 128.379059 -997.12439
v 299.415405 116.435272 -994.13562
v 330.09082 103.037437 -988.232666
v 354.657593 88.5200806 -979.56311
v 114.692505 44.2049942 -1102.9917
v 166.396179 49.0634232 -1097.41724
v 143.266602 30.5704536 -1094.50867
v 214.092163 53.868866 -1085.91406
v 196.835571 35.4565735 -1085.91406
v 170.395996 17.6253395 -1080.60583
v 257.609558 58.583847 -1069.07153
v 244.404602 40.2763405 -1071.37524
v 224.047791 22.7744255 -1069.07153
v 195.403137 5.69280815 -1061.63013
v 296.694336 63.1734543 -1047.17615
v 286.866028 45.0593147 -1051.46204
v 270.647156 27.7542648 -1051.46204
v 247.886536 11.0969048 -1047.17615
v 217.663879 -4.92918205 -1038.05542
v 330.887878 67.5923004 -1020.27539
v 324.61615 49.8502197 -1025.98877
v 311.913696 32.6719208 -1027.86511
v 293.065002 16.1859169 -1025.98877
v 268.057617 0.554265976 -1020.27539
v 236.622375 -13.9754791 -1010.47009
v 359.396545 71.7692413 -988.232788
v 357.295166 54.6793137 -994.135742
v 348.405762 37.6769447 -997.124512
v 332.950623 21.1866112 -997.124512
v 311.315063 5.62000465 -994.135742
v 284.039734 -8.63424301 -988.232788
v 251.805359 -21.2202835 -979.56311
v 56.0814209 44.2049942 -1102.9917
v 85.3870239 28.6589928 -1097.41724
v 27.5073242 30.5704536 -1094.50867
v 113.308716 14.4180412 -1085.91406
v 57.46521 14.4180412 -1085.91406
v 0.37802124 17.6253395 -1080.60583
v 139.691101 1.52682114 -1069.07153
v 85.3870239 0.223329544 -1071.37524
v 31.0829468 1.52682114 -1069.07153
v -24.6291199 5.69280815 -1061.63013
v 164.35968 -9.94166183 -1047.17615
v 111.629639 -12.2987061 -1051.46204
v 59.1444092 -12.2987061 -1051.46204
v 6.41421509 -9.94166183 -1047.17615
v -46.8898315 -4.92918205 -1038.05542
v 187.048401 -19.8501701 -1020.27539
v 136.437988 -23.2649269 -1025.98877
v 85.3870239 -24.3851395 -1027.86511
v 34.3359985 -23.2649269 -1025.98877
v -16.2744446 -19.8501701 -1020.27539
v -65.8483582 -13.9754791 -1010.47009
v 207.316711 -27.9590683 -988.232788
v 159.784119 -32.5472946 -994.13562
v 110.394165 -34.8704224 -997.124512
v 60.3797607 -34.8704224 -997.124512
v 10.9898376 -32.5472946 -994.13562
v -36.5427856 -27.9590683 -988.232788
v -81.0313416 -21.2202835 -979.56311
v 37.9696045 63.529808 -1102.9917
v 4.37780762 49.0634232 -1097.41724
v -8.26428223 68.7377319 -1094.50867
v -26.061554 35.4565735 -1085.91406
v -43.3181763 53.868866 -1085.91406
v -52.1604004 73.6823349 -1080.60583
v -53.2737732 22.7744255 -1069.07153
v -73.6306152 40.2763405 -1071.37524
v -86.8355103 58.583847 -1069.07153
v -92.6228333 78.2401581 -1061.63013
v -77.1126099 11.0969048 -1047.17615
v -99.87323 27.7542648 -1051.46204
v -116.092041 45.0593147 -1051.46204
v -125.920441 63.1734543 -1047.17615
v -128.641388 82.2974091 -1038.05542
v -97.2836609 0.554265976 -1020.27539
v -122.290955 16.1859169 -1025.98877
v -141.139709 32.6719208 -1027.86511
v -153.842163 49.8502197 -1025.98877
v -160.113892 67.5923004 -1020.27539
v -159.316925 85.7528152 -1010.47009
v -113.265808 -8.63424301 -988.232788
v -140.541168 5.62000465 -994.135742
v -162.176605 21.1866112 -997.124512
v -177.631897 37.6769447 -997.124512
v -186.521149 54.6793137 -994.135742
v -188.622528 71.7692413 -988.232788
v -183.883575 88.5200806 -979.56311
v 35.3206177 82.0784531 -1097.41724
v -11.4137878 87.909935 -1085.91406
v 33.7645874 99.2893677 -1085.91406
v -54.6141663 92.9631348 -1069.07153
v -12.8912354 105.083397 -1071.37524
v 33.251709 115.094559 -1069.07153
v -94.0159607 97.2145386 -1047.17615
v -55.3526917 109.866394 -1051.46204
v -12.8912354 120.561508 -1051.46204
v 33.7645874 129.399597 -1047.17615
v -129.171112 100.607338 -1020.27539
v -94.0159607 113.682968 -1025.98877
v -54.6141663 124.992081 -1027.86511
v -11.4137878 134.488632 -1025.98877
v 35.3204956 142.039078 -1020.27539
v -159.316895 103.037437 -988.232666
v -128.641388 116.435272 -994.13562
v -92.6228333 128.379059 -997.12439
v -52.1604004 138.570618 -997.12439
v -8.26431274 146.755539 -994.13562
v 37.9696045 152.729492 -988.232666
v 56.0814209 161.371765 -952.251953
v 4.37774658 156.803833 -958.80481
v 27.5073242 163.824463 -923.072144
v -43.3181763 149.71225 -962.607666
v -26.061554 157.946472 -928.32605
v 0.37802124 163.640045 -892.752197
v -86.8355103 140.366928 -963.85437
v -73.6304932 149.544083 -930.797852
v -53.2737427 156.381409 -897.180908
v -24.6291199 160.823151 -862.04895
v -125.92041 128.906586 -962.607666
v -116.09201 138.848984 -930.797852
v -99.8731079 146.588013 -898.577637
v -77.1125488 152.195923 -865.646729
v -46.889801 155.444122 -831.728882
v -160.113831 115.372131 -958.80481
v -153.842102 125.761414 -928.32605
v -141.139587 134.249954 -897.180908
v -122.290863 140.816513 -865.646729
v -97.2835999 145.352386 -833.987061
v -65.8483582 147.637207 -802.549072
v -188.622467 99.7363586 -952.251953
v -186.521057 109.915497 -923.072144
v -177.631775 118.803375 -892.752197
v -162.176514 126.178055 -862.04895
v -140.541077 131.855469 -831.728882
v -113.265717 135.693832 -802.549072
v -81.0313416 137.597382 -775.237915
v -206.734314 80.4115524 -952.251953
v -210.180359 61.952652 -958.80481
v -222.292694 71.7482147 -923.072144
v -205.46463 44.0352821 -962.607666
v -222.721191 52.2695007 -928.32605
v -230.170258 62.7463684 -892.752197
v -193.274963 26.7992058 -963.85437
v -214.3703 33.9889412 -930.797852
v -226.8367 42.8136406 -897.180908
v -230.170258 53.6307297 -862.04895
v -173.913361 10.3709965 -962.607666
v -198.151428 16.6839104 -930.797852
v -214.3703 24.4229584 -898.577637
v -222.721161 33.6603241 -865.646729
v -222.292694 44.6288834 -831.728882
v -147.350128 -5.08539772 -958.80481
v -173.913361 0.192939758 -928.32605
v -193.274902 7.0042572 -897.180908
v -205.464539 15.2480469 -865.646729
v -210.180328 24.8948936 -833.987061
v -206.734314 35.9655571 -802.549072
v -113.265717 -19.3167419 -952.251953
v -140.541077 -15.4783707 -923.072144
v -162.176514 -9.80096054 -892.752197
v -177.631775 -2.42626572 -862.04895
v -186.521057 6.46159744 -831.728882
v -188.622467 16.640728 -802.549072
v -183.883575 27.8570251 -775.238037
v -65.8483582 -31.2601242 -952.251953
v -16.2743835 -38.1004181 -958.80481
v -46.889801 -39.0670319 -923.072144
v 34.3359985 -42.0823517 -962.607666
v 6.41430664 -45.227562 -928.32605
v -24.6291199 -44.4460831 -892.752197
v 85.3870239 -43.389534 -963.85437
v 59.1444092 -48.1232071 -930.797852
v 31.0829468 -49.506485 -897.180908
v 0.37802124 -47.2629395 -862.04895
v 136.437988 -42.0823517 -962.607666
v 111.629639 -48.1232071 -930.797852
v 85.3870239 -51.079216 -898.577637
v 57.46521 -50.9781113 -865.646729
v 27.5073242 -47.4473267 -831.728882
v 187.048401 -38.1004181 -958.80481
v 164.35968 -45.227562 -928.32605
v 139.691101 -49.506485 -897.180908
v 113.308716 -50.9781113 -865.646729
v 85.3870239 -49.5518723 -833.987061
v 56.0814209 -44.9946823 -802.549072
v 236.622375 -31.2601242 -952.251953
v 217.663879 -39.0670319 -923.072144
v 195.403137 -44.4460831 -892.752197
v 170.395996 -47.2629395 -862.04895
v 143.266602 -47.4473267 -831.728882
v 114.692505 -44.9946823 -802.549072
v 85.3870239 -39.9661789 -775.238037
v 284.039734 -19.3167419 -952.251953
v 318.124084 -5.08539772 -958.80481
v 311.315063 -15.4783707 -923.072144
v 344.687378 10.3709965 -962.607666
v 344.687378 0.192939758 -928.32605
v 332.9505 -9.80096054 -892.752197
v 364.04895 26.7992058 -963.85437
v 368.925415 16.6839104 -930.797852
v 364.04895 7.0042572 -897.180908
v 348.405762 -2.42626572 -862.04895
v 376.238647 44.0352821 -962.607666
v 385.144287 33.9889412 -930.797852
v 385.144287 24.4229584 -898.577637
v 376.238586 15.2480469 -865.646729
v 357.295105 6.46159744 -831.728882
v 380.954285 61.952652 -958.80481
v 393.4953 52.2695007 -928.32605
v 397.610596 42.8136406 -897.180908
v 393.495117 33.6603241 -865.646729
v 380.954285 24.8948936 -833.987061
v 359.396362 16.640728 -802.549072
v 377.508301 80.4115524 -952.251953
v 393.066772 71.7482147 -923.072144
v 400.944153 62.7463684 -892.752197
v 400.944153 53.6307297 -862.04895
v 393.066772 44.6288834 -831.728882
v 377.508301 35.9655571 -802.549072
v 354.657593 27.8570251 -775.238037
v 359.396362 99.7363586 -952.251953
v 330.887756 115.372131 -958.80481
v 357.295105 109.915497 -923.072144
v 296.694336 128.906586 -962.607666
v 324.61615 125.761414 -928.32605
v 348.405762 118.803375 -892.752197
v 257.609558 140.366928 -963.85437
v 286.865967 138.848984 -930.797852
v 311.913513 134.249954 -897.180908
v 332.9505 126.178055 -862.04895
v 214.092163 149.71225 -962.607666
v 244.40448 149.544083 -930.797852
v 270.647156 146.588013 -898.577637
v 293.064819 140.816513 -865.646729
v 311.315063 131.855469 -831.728882
v 166.396179 156.803833 -958.80481
v 196.835571 157.946472 -928.32605
v 224.047791 156.381409 -897.180908
v 247.886475 152.195923 -865.646729
v 268.057556 145.352386 -833.987061
v 284.039734 135.693832 -802.549072
v 114.692505 161.371765 -952.251953
v 143.266602 163.824463 -923.072144
v 170.395996 163.640045 -892.752197
v 195.403137 160.823151 -862.04895
v 217.663879 155.444122 -831.728882
v 236.622375 147.637207 -802.549072
v 251.805359 137.597382 -775.237915
v 85.3870239 165.928986 -920.813965
v 57.46521 167.355194 -889.154419
v 113.308716 167.355194 -889.154419
v 31.0829468 165.883575 -857.620117
v 85.3870239 167.456329 -856.223267
v 139.691101 165.883575 -857.620117
v 6.41430664 161.604645 -826.475098
v 59.1444092 164.500244 -824.003174
v 111.629639 164.500244 -824.003174
v 164.35968 161.604645 -826.475098
v -16.2743835 154.477539 -795.996216
v 34.3359985 158.459473 -792.193359
v 85.3870239 159.766632 -790.946655
v 136.437988 158.459473 -792.193359
v 187.048401 154.477539 -795.996216
v -36.5427856 144.336151 -766.568359
v 10.9898376 148.924393 -760.665405
v 60.3797607 151.247513 -757.676636
v 110.394165 151.247513 -757.676636
v 159.784119 148.924393 -760.665405
v 207.316711 144.336151 -766.568359
v -210.180328 91.4822159 -920.813965
v -222.721161 82.7167587 -889.154419
v -205.464539 101.129059 -889.154419
v -226.8367 73.5634308 -857.620117
v -214.3703 91.9541473 -856.223267
v -193.274902 109.372849 -857.620117
v -222.721191 64.1076126 -826.475098
v -214.3703 82.3881454 -824.003174
v -198.151428 99.6931992 -824.003174
v -173.91333 116.184143 -826.475098
v -210.180359 54.4244385 -795.996216
v -205.46463 72.3418121 -792.193237
v -193.274963 89.5778961 -790.946655
v -173.913361 106.006096 -792.193237
v -147.350128 121.462494 -795.996216
v -188.622528 44.6078415 -766.568359
v -186.521149 61.6977692 -760.665405
v -177.631897 78.7001572 -757.676514
v -162.176605 95.1904907 -757.676514
v -140.541168 110.757095 -760.665405
v -113.265808 125.011353 -766.568359
v -97.2835999 -28.9752769 -920.813965
v -77.1125488 -35.8188019 -889.154419
v -122.290863 -24.4394341 -889.154419
v -53.2737427 -40.0042953 -857.620117
v -99.8731079 -30.2109375 -856.223511
v -141.139587 -17.8728523 -857.620117
v -26.061554 -41.5693741 -826.475098
v -73.6304932 -33.1669884 -824.003174
v -116.09201 -22.4718933 -824.003174
v -153.842102 -9.38433075 -826.475098
v 4.37774658 -40.4267349 -795.996216
v -43.3181763 -33.3351593 -792.193359
v -86.8355103 -23.98983 -790.946655
v -125.92041 -12.529541 -792.193359
v -160.113831 1.00498199 -795.996216
v 37.9696045 -36.352356 -766.568359
v -8.26431274 -30.3784332 -760.665405
v -52.1604004 -22.193512 -757.676636
v -92.6228333 -12.0019569 -757.676636
v -128.641388 -0.0581741333 -760.665405
v -159.316895 13.3396759 -766.568359
v 268.057617 -28.9752769 -920.813965
v 293.064819 -24.4394035 -889.154419
v 247.886475 -35.8188019 -889.154419
v 311.913513 -17.8728523 -857.620117
v 270.647156 -30.2109375 -856.223511
v 224.047791 -40.0042953 -857.620117
v 324.61615 -9.38433075 -826.475098
v 286.865967 -22.4718933 -824.003174
v 244.40448 -33.1669884 -824.003174
v 196.835571 -41.5693741 -826.475098
v 330.887756 1.00498199 -795.996216
v 296.694336 -12.529541 -792.193359
v 257.609558 -23.98983 -790.946655
v 214.092163 -33.3351593 -792.193359
v 166.396179 -40.4267349 -795.996216
v 330.09082 13.3396759 -766.568359
v 299.415405 -0.0581741333 -760.665405
v 263.39679 -12.0019569 -757.676636
v 222.934448 -22.193512 -757.676636
v 179.038208 -30.3784332 -760.665405
v 132.804443 -36.352356 -766.568359
v 380.954285 91.4822159 -920.813965
v 376.238586 101.129059 -889.154419
v 393.495117 82.7167587 -889.154419
v 364.04895 109.372879 -857.620117
v 385.144287 91.9541473 -856.223267
v 397.610596 73.5634308 -857.620117
v 344.687378 116.184143 -826.475098
v 368.925415 99.6931992 -824.003174
v 385.144287 82.3881454 -824.003174
v 393.4953 64.1076126 -826.475098
v 318.124084 121.462494 -795.996216
v 344.687378 106.006096 -792.193237
v 364.04895 89.5778961 -790.946655
v 376.238647 72.3418121 -792.193237
v 380.954285 54.4244385 -795.996216
v 284.039734 125.011353 -766.568359
v 311.315063 110.757095 -760.665405
v 332.950623 95.1904907 -757.676514
v 348.405762 78.7001572 -757.676514
v 357.295166 61.6977692 -760.665405
v 359.396545 44.6078415 -766.568359
v 85.3870239 58.1885529 -648.957947
v 114.692505 72.1720963 -651.809265
v 56.0814209 72.1720963 -651.809265
v 143.266602 85.8066559 -660.292297
v 85.3870239 87.7180786 -657.383789
v 27.5073242 85.8066559 -660.292297
v 170.395996 98.7517395 -674.19519
v 113.308716 101.959053 -668.886902
v 57.46521 101.959053 -668.886902
v 0.37802124 98.7517395 -674.19519
v 195.403137 110.684265 -693.170837
v 139.691101 114.850266 -685.729431
v 85.3870239 116.153732 -683.425842
v 31.0829468 114.850266 -685.729431
v -24.6291199 110.684265 -693.170837
v 217.663879 121.306274 -716.745728
v 164.35968 126.318756 -707.624878
v 111.629639 128.675797 -703.338989
v 59.1444092 128.675797 -703.338989
v 6.41421509 126.318771 -707.624878
v -46.8898315 121.306274 -716.745728
v 236.622375 130.352585 -744.330933
v 187.048401 136.227264 -734.525513
v 136.437988 139.642014 -728.812256
v 85.3870239 140.762238 -726.935913
v 34.3359985 139.642014 -728.812256
v -16.2744446 136.227264 -734.525513
v -65.8483582 130.352585 -744.330933
v 132.804443 52.8472824 -651.809265
v 179.038208 47.6393661 -660.292297
v 166.396179 67.3136826 -657.383789
v 222.934448 42.694767 -674.19519
v 214.092163 62.5082169 -668.886902
v 196.835571 80.9205093 -668.886902
v 263.39679 38.1369324 -693.170837
v 257.609558 57.7932358 -685.729431
v 244.404602 76.1007614 -683.425842
v 224.047791 93.6026764 -685.729431
v 299.415405 34.0796776 -716.745728
v 296.694336 53.2036438 -707.624878
v 286.866028 71.3177719 -703.338989
v 270.647156 88.6228256 -703.338989
v 247.886536 105.280205 -707.624878
v 330.090881 30.6242867 -744.330933
v 330.887878 48.78479 -734.525513
v 324.61615 66.526886 -728.812256
v 311.913696 83.7051926 -726.935913
v 293.065002 100.191154 -728.812256
v 268.057617 115.822845 -734.525513
v 85.3870239 40.903923 -651.809265
v 85.3870239 24.0507164 -660.292297
v 135.45343 34.2986526 -657.383789
v 85.3870239 8.04965019 -674.19519
v 137.009399 17.0877151 -668.886902
v 182.187805 28.4671478 -668.886902
v 85.3870239 -6.69974327 -693.170837
v 137.522339 1.2825222 -685.729492
v 183.665222 11.2936859 -683.425842
v 225.388184 23.4139671 -685.729431
v 85.3870239 -19.8292465 -716.745728
v 137.009399 -13.0224991 -707.624878
v 183.665222 -4.1844368 -703.339111
v 226.126709 6.5106926 -703.339111
v 264.789978 19.1625519 -707.624878
v 85.3870239 -31.0111237 -744.330933
v 135.453491 -25.6619987 -734.525513
v 182.187805 -18.1115417 -728.812256
v 225.388184 -8.61496735 -726.936035
v 264.789978 2.69411087 -728.812256
v 299.945007 15.7697525 -734.525513
v 37.9696045 52.8472824 -651.809265
v -8.26428223 47.6393661 -660.292297
v 35.3206177 34.2986526 -657.383789
v -52.1604004 42.694767 -674.19519
v -11.4137878 28.4671478 -668.886902
v 33.7645874 17.0877151 -668.886902
v -92.6228333 38.1369324 -693.170837
v -54.6141663 23.4139671 -685.729431
v -12.8912354 11.2936859 -683.425842
v 33.251709 1.2825222 -685.729492
v -128.641388 34.0796776 -716.745728
v -94.0159607 19.1625519 -707.624878
v -55.3526917 6.5106926 -703.339111
v -12.8912354 -4.1844368 -703.339111
v 33.7645874 -13.0224991 -707.625
v -159.316925 30.6242867 -744.330933
v -129.171112 15.7697525 -734.525513
v -94.0159607 2.69411087 -728.812256
v -54.6141663 -8.61496735 -726.936035
v -11.4137878 -18.1115417 -728.812256
v 35.3204956 -25.6619987 -734.525513
v 4.37780762 67.3136826 -657.383789
v -26.061554 80.9205093 -668.886902
v -43.3181763 62.5082169 -668.886902
v -53.2737732 93.6026764 -685.729431
v -73.6306152 76.1007614 -683.425842
v -86.8355103 57.7932358 -685.729431
v -77.1126099 105.280205 -707.624878
v -99.87323 88.6228256 -703.338989
v -116.092041 71.3177719 -703.338989
v -125.920441 53.2036438 -707.624878
v -97.2836609 115.822845 -734.525513
v -122.290955 100.191154 -728.812256
v -141.139709 83.7051926 -726.935913
v -153.842163 66.526886 -728.812256
v -160.113892 48.78479 -734.525513
g 
f 3 1 2
f 5 2 4
f 6 3 5
f 8 4 7
f 9 5 8
f 10 6 9
f 12 7 11
f 13 8 12
f 14 9 13
f 15 10 14
f 17 11 16
f 18 12 17
f 19 13 18
f 20 14 19
f 21 15 20
f 23 16 22
f 24 17 23
f 25 18 24
f 26 19 25
f 27 20 26
f 28 21 27
f 30 22 29
f 31 23 30
f 32 24 31
f 33 25 32
f 34 26 33
f 35 27 34
f 36 28 35
f 3 2 5
f 5 4 8
f 6 5 9
f 8 7 12
f 9 8 13
f 10 9 14
f 12 11 17
f 13 12 18
f 14 13 19
f 15 14 20
f 17 16 23
f 18 17 24
f 19 18 25
f 20 19 26
f 21 20 27
f 23 22 30
f 24 23 31
f 25 24 32
f 26 25 33
f 27 26 34
f 28 27 35
f 37 1 3
f 38 3 6
f 39 37 38
f 40 6 10
f 41 38 40
f 42 39 41
f 43 10 15
f 44 40 43
f 45 41 44
f 46 42 45
f 47 15 21
f 48 43 47
f 49 44 48
f 50 45 49
f 51 46 50
f 52 21 28
f 53 47 52
f 54 48 53
f 55 49 54
f 56 50 55
f 57 51 56
f 58 28 36
f 59 52 58
f 60 53 59
f 61 54 60
f 62 55 61
f 63 56 62
f 64 57 63
f 37 3 38
f 38 6 40
f 39 38 41
f 40 10 43
f 41 40 44
f 42 41 45
f 43 15 47
f 44 43 48
f 45 44 49
f 46 45 50
f 47 21 52
f 48 47 53
f 49 48 54
f 50 49 55
f 51 50 56
f 52 28 58
f 53 52 59
f 54 53 60
f 55 54 61
f 56 55 62
f 57 56 63
f 65 1 37
f 66 37 39
f 67 65 66
f 68 39 42
f 69 66 68
f 70 67 69
f 71 42 46
f 72 68 71
f 73 69 72
f 74 70 73
f 75 46 51
f 76 71 75
f 77 72 76
f 78 73 77
f 79 74 78
f 80 51 57
f 81 75 80
f 82 76 81
f 83 77 82
f 84 78 83
f 85 79 84
f 86 57 64
f 87 80 86
f 88 81 87
f 89 82 88
f 90 83 89
f 91 84 90
f 92 85 91
f 65 37 66
f 66 39 68
f 67 66 69
f 68 42 71
f 69 68 72
f 70 69 73
f 71 46 75
f 72 71 76
f 73 72 77
f 74 73 78
f 75 51 80
f 76 75 81
f 77 76 82
f 78 77 83
f 79 78 84
f 80 57 86
f 81 80 87
f 82 81 88
f 83 82 89
f 84 83 90
f 85 84 91
f 93 1 65
f 94 65 67
f 95 93 94
f 96 67 70
f 97 94 96
f 98 95 97
f 99 70 74
f 100 96 99
f 101 97 100
f 102 98 101
f 103 74 79
f 104 99 103
f 105 100 104
f 106 101 105
f 107 102 106
f 108 79 85
f 109 103 108
f 110 104 109
f 111 105 110
f 112 106 111
f 113 107 112
f 114 85 92
f 115 108 114
f 116 109 115
f 117 110 116
f 118 111 117
f 119 112 118
f 120 113 119
f 93 65 94
f 94 67 96
f 95 94 97
f 96 70 99
f 97 96 100
f 98 97 101
f 99 74 103
f 100 99 104
f 101 100 105
f 102 101 106
f 103 79 108
f 104 103 109
f 105 104 110
f 106 105 111
f 107 106 112
f 108 85 114
f 109 108 115
f 110 109 116
f 111 110 117
f 112 111 118
f 113 112 119
f 2 1 93
f 121 93 95
f 4 2 121
f 122 95 98
f 123 121 122
f 7 4 123
f 124 98 102
f 125 122 124
f 126 123 125
f 11 7 126
f 127 102 107
f 128 124 127
f 129 125 128
f 130 126 129
f 16 11 130
f 131 107 113
f 132 127 131
f 133 128 132
f 134 129 133
f 135 130 134
f 22 16 135
f 136 113 120
f 137 131 136
f 138 132 137
f 139 133 138
f 140 134 139
f 141 135 140
f 29 22 141
f 2 93 121
f 121 95 122
f 4 121 123
f 122 98 124
f 123 122 125
f 7 123 126
f 124 102 127
f 125 124 128
f 126 125 129
f 11 126 130
f 127 107 131
f 128 127 132
f 129 128 133
f 130 129 134
f 16 130 135
f 131 113 136
f 132 131 137
f 133 132 138
f 134 133 139
f 135 134 140
f 22 135 141
f 142 29 141
f 143 141 140
f 144 142 143
f 145 140 139
f 146 143 145
f 147 144 146
f 148 139 138
f 149 145 148
f 150 146 149
f 151 147 150
f 152 138 137
f 153 148 152
f 154 149 153
f 155 150 154
f 156 151 155
f 157 137 136
f 158 152 157
f 159 153 158
f 160 154 159
f 161 155 160
f 162 156 161
f 163 136 120
f 164 157 163
f 165 158 164
f 166 159 165
f 167 160 166
f 168 161 167
f 169 162 168
f 142 141 143
f 143 140 145
f 144 143 146
f 145 139 148
f 146 145 149
f 147 146 150
f 148 138 152
f 149 148 153
f 150 149 154
f 151 150 155
f 152 137 157
f 153 152 158
f 154 153 159
f 155 154 160
f 156 155 161
f 157 136 163
f 158 157 164
f 159 158 165
f 160 159 166
f 161 160 167
f 162 161 168
f 170 120 119
f 171 119 118
f 172 170 171
f 173 118 117
f 174 171 173
f 175 172 174
f 176 117 116
f 177 173 176
f 178 174 177
f 179 175 178
f 180 116 115
f 181 176 180
f 182 177 181
f 183 178 182
f 184 179 183
f 185 115 114
f 186 180 185
f 187 181 186
f 188 182 187
f 189 183 188
f 190 184 189
f 191 114 92
f 192 185 191
f 193 186 192
f 194 187 193
f 195 188 194
f 196 189 195
f 197 190 196
f 170 119 171
f 171 118 173
f 172 171 174
f 173 117 176
f 174 173 177
f 175 174 178
f 176 116 180
f 177 176 181
f 178 177 182
f 179 178 183
f 180 115 185
f 181 180 186
f 182 181 187
f 183 182 188
f 184 183 189
f 185 114 191
f 186 185 192
f 187 186 193
f 188 187 194
f 189 188 195
f 190 189 196
f 198 92 91
f 199 91 90
f 200 198 199
f 201 90 89
f 202 199 201
f 203 200 202
f 204 89 88
f 205 201 204
f 206 202 205
f 207 203 206
f 208 88 87
f 209 204 208
f 210 205 209
f 211 206 210
f 212 207 211
f 213 87 86
f 214 208 213
f 215 209 214
f 216 210 215
f 217 211 216
f 218 212 217
f 219 86 64
f 220 213 219
f 221 214 220
f 222 215 221
f 223 216 222
f 224 217 223
f 225 218 224
f 198 91 199
f 199 90 201
f 200 199 202
f 201 89 204
f 202 201 205
f 203 202 206
f 204 88 208
f 205 204 209
f 206 205 210
f 207 206 211
f 208 87 213
f 209 208 214
f 210 209 215
f 211 210 216
f 212 211 217
f 213 86 219
f 214 213 220
f 215 214 221
f 216 215 222
f 217 216 223
f 218 217 224
f 226 64 63
f 227 63 62
f 228 226 227
f 229 62 61
f 230 227 229
f 231 228 230
f 232 61 60
f 233 229 232
f 234 230 233
f 235 231 234
f 236 60 59
f 237 232 236
f 238 233 237
f 239 234 238
f 240 235 239
f 241 59 58
f 242 236 241
f 243 237 242
f 244 238 243
f 245 239 244
f 246 240 245
f 247 58 36
f 248 241 247
f 249 242 248
f 250 243 249
f 251 244 250
f 252 245 251
f 253 246 252
f 226 63 227
f 227 62 229
f 228 227 230
f 229 61 232
f 230 229 233
f 231 230 234
f 232 60 236
f 233 232 237
f 234 233 238
f 235 234 239
f 236 59 241
f 237 236 242
f 238 237 243
f 239 238 244
f 240 239 245
f 241 58 247
f 242 241 248
f 243 242 249
f 244 243 250
f 245 244 251
f 246 245 252
f 254 36 35
f 255 35 34
f 256 254 255
f 257 34 33
f 258 255 257
f 259 256 258
f 260 33 32
f 261 257 260
f 262 258 261
f 263 259 262
f 264 32 31
f 265 260 264
f 266 261 265
f 267 262 266
f 268 263 267
f 269 31 30
f 270 264 269
f 271 265 270
f 272 266 271
f 273 267 272
f 274 268 273
f 275 30 29
f 276 269 275
f 277 270 276
f 278 271 277
f 279 272 278
f 280 273 279
f 281 274 280
f 254 35 255
f 255 34 257
f 256 255 258
f 257 33 260
f 258 257 261
f 259 258 262
f 260 32 264
f 261 260 265
f 262 261 266
f 263 262 267
f 264 31 269
f 265 264 270
f 266 265 271
f 267 266 272
f 268 267 273
f 269 30 275
f 270 269 276
f 271 270 277
f 272 271 278
f 273 272 279
f 274 273 280
f 275 29 142
f 282 142 144
f 276 275 282
f 283 144 147
f 284 282 283
f 277 276 284
f 285 147 151
f 286 283 285
f 287 284 286
f 278 277 287
f 288 151 156
f 289 285 288
f 290 286 289
f 291 287 290
f 279 278 291
f 292 156 162
f 293 288 292
f 294 289 293
f 295 290 294
f 296 291 295
f 280 279 296
f 297 162 169
f 298 292 297
f 299 293 298
f 300 294 299
f 301 295 300
f 302 296 301
f 281 280 302
f 275 142 282
f 282 144 283
f 276 282 284
f 283 147 285
f 284 283 286
f 277 284 287
f 285 151 288
f 286 285 289
f 287 286 290
f 278 287 291
f 288 156 292
f 289 288 293
f 290 289 294
f 291 290 295
f 279 291 296
f 292 162 297
f 293 292 298
f 294 293 299
f 295 294 300
f 296 295 301
f 280 296 302
f 163 120 170
f 303 170 172
f 164 163 303
f 304 172 175
f 305 303 304
f 165 164 305
f 306 175 179
f 307 304 306
f 308 305 307
f 166 165 308
f 309 179 184
f 310 306 309
f 311 307 310
f 312 308 311
f 167 166 312
f 313 184 190
f 314 309 313
f 315 310 314
f 316 311 315
f 317 312 316
f 168 167 317
f 318 190 197
f 319 313 318
f 320 314 319
f 321 315 320
f 322 316 321
f 323 317 322
f 169 168 323
f 163 170 303
f 303 172 304
f 164 303 305
f 304 175 306
f 305 304 307
f 165 305 308
f 306 179 309
f 307 306 310
f 308 307 311
f 166 308 312
f 309 184 313
f 310 309 314
f 311 310 315
f 312 311 316
f 167 312 317
f 313 190 318
f 314 313 319
f 315 314 320
f 316 315 321
f 317 316 322
f 168 317 323
f 191 92 198
f 324 198 200
f 192 191 324
f 325 200 203
f 326 324 325
f 193 192 326
f 327 203 207
f 328 325 327
f 329 326 328
f 194 193 329
f 330 207 212
f 331 327 330
f 332 328 331
f 333 329 332
f 195 194 333
f 334 212 218
f 335 330 334
f 336 331 335
f 337 332 336
f 338 333 337
f 196 195 338
f 339 218 225
f 340 334 339
f 341 335 340
f 342 336 341
f 343 337 342
f 344 338 343
f 197 196 344
f 191 198 324
f 324 200 325
f 192 324 326
f 325 203 327
f 326 325 328
f 193 326 329
f 327 207 330
f 328 327 331
f 329 328 332
f 194 329 333
f 330 212 334
f 331 330 335
f 332 331 336
f 333 332 337
f 195 333 338
f 334 218 339
f 335 334 340
f 336 335 341
f 337 336 342
f 338 337 343
f 196 338 344
f 219 64 226
f 345 226 228
f 220 219 345
f 346 228 231
f 347 345 346
f 221 220 347
f 348 231 235
f 349 346 348
f 350 347 349
f 222 221 350
f 351 235 240
f 352 348 351
f 353 349 352
f 354 350 353
f 223 222 354
f 355 240 246
f 356 351 355
f 357 352 356
f 358 353 357
f 359 354 358
f 224 223 359
f 360 246 253
f 361 355 360
f 362 356 361
f 363 357 362
f 364 358 363
f 365 359 364
f 225 224 365
f 219 226 345
f 345 228 346
f 220 345 347
f 346 231 348
f 347 346 349
f 221 347 350
f 348 235 351
f 349 348 352
f 350 349 353
f 222 350 354
f 351 240 355
f 352 351 356
f 353 352 357
f 354 353 358
f 223 354 359
f 355 246 360
f 356 355 361
f 357 356 362
f 358 357 363
f 359 358 364
f 224 359 365
f 247 36 254
f 366 254 256
f 248 247 366
f 367 256 259
f 368 366 367
f 249 248 368
f 369 259 263
f 370 367 369
f 371 368 370
f 250 249 371
f 372 263 268
f 373 369 372
f 374 370 373
f 375 371 374
f 251 250 375
f 376 268 274
f 377 372 376
f 378 373 377
f 379 374 378
f 380 375 379
f 252 251 380
f 381 274 281
f 382 376 381
f 383 377 382
f 384 378 383
f 385 379 384
f 386 380 385
f 253 252 386
f 247 254 366
f 366 256 367
f 248 366 368
f 367 259 369
f 368 367 370
f 249 368 371
f 369 263 372
f 370 369 373
f 371 370 374
f 250 371 375
f 372 268 376
f 373 372 377
f 374 373 378
f 375 374 379
f 251 375 380
f 376 274 381
f 377 376 382
f 378 377 383
f 379 378 384
f 380 379 385
f 252 380 386
f 389 387 388
f 391 388 390
f 392 389 391
f 394 390 393
f 395 391 394
f 396 392 395
f 398 393 397
f 399 394 398
f 400 395 399
f 401 396 400
f 403 397 402
f 404 398 403
f 405 399 404
f 406 400 405
f 407 401 406
f 409 402 408
f 410 403 409
f 411 404 410
f 412 405 411
f 413 406 412
f 414 407 413
f 302 408 281
f 301 409 302
f 300 410 301
f 299 411 300
f 298 412 299
f 297 413 298
f 169 414 297
f 389 388 391
f 391 390 394
f 392 391 395
f 394 393 398
f 395 394 399
f 396 395 400
f 398 397 403
f 399 398 404
f 400 399 405
f 401 400 406
f 403 402 409
f 404 403 410
f 405 404 411
f 406 405 412
f 407 406 413
f 409 408 302
f 410 409 301
f 411 410 300
f 412 411 299
f 413 412 298
f 414 413 297
f 388 387 415
f 417 415 416
f 390 388 417
f 419 416 418
f 420 417 419
f 393 390 420
f 422 418 421
f 423 419 422
f 424 420 423
f 397 393 424
f 426 421 425
f 427 422 426
f 428 423 427
f 429 424 428
f 402 397 429
f 431 425 430
f 432 426 431
f 433 427 432
f 434 428 433
f 435 429 434
f 408 402 435
f 386 430 253
f 385 431 386
f 384 432 385
f 383 433 384
f 382 434 383
f 381 435 382
f 281 408 381
f 388 415 417
f 417 416 419
f 390 417 420
f 419 418 422
f 420 419 423
f 393 420 424
f 422 421 426
f 423 422 427
f 424 423 428
f 397 424 429
f 426 425 431
f 427 426 432
f 428 427 433
f 429 428 434
f 402 429 435
f 431 430 386
f 432 431 385
f 433 432 384
f 434 433 383
f 435 434 382
f 408 435 381
f 415 387 436
f 438 436 437
f 416 415 438
f 440 437 439
f 441 438 440
f 418 416 441
f 443 439 442
f 444 440 443
f 445 441 444
f 421 418 445
f 447 442 446
f 448 443 447
f 449 444 448
f 450 445 449
f 425 421 450
f 452 446 451
f 453 447 452
f 454 448 453
f 455 449 454
f 456 450 455
f 430 425 456
f 365 451 225
f 364 452 365
f 363 453 364
f 362 454 363
f 361 455 362
f 360 456 361
f 253 430 360
f 415 436 438
f 438 437 440
f 416 438 441
f 440 439 443
f 441 440 444
f 418 441 445
f 443 442 447
f 444 443 448
f 445 444 449
f 421 445 450
f 447 446 452
f 448 447 453
f 449 448 454
f 450 449 455
f 425 450 456
f 452 451 365
f 453 452 364
f 454 453 363
f 455 454 362
f 456 455 361
f 430 456 360
f 436 387 457
f 459 457 458
f 437 436 459
f 461 458 460
f 462 459 461
f 439 437 462
f 464 460 463
f 465 461 464
f 466 462 465
f 442 439 466
f 468 463 467
f 469 464 468
f 470 465 469
f 471 466 470
f 446 442 471
f 473 467 472
f 474 468 473
f 475 469 474
f 476 470 475
f 477 471 476
f 451 446 477
f 344 472 197
f 343 473 344
f 342 474 343
f 341 475 342
f 340 476 341
f 339 477 340
f 225 451 339
f 436 457 459
f 459 458 461
f 437 459 462
f 461 460 464
f 462 461 465
f 439 462 466
f 464 463 468
f 465 464 469
f 466 465 470
f 442 466 471
f 468 467 473
f 469 468 474
f 470 469 475
f 471 470 476
f 446 471 477
f 473 472 344
f 474 473 343
f 475 474 342
f 476 475 341
f 477 476 340
f 451 477 339
f 457 387 389
f 478 389 392
f 458 457 478
f 479 392 396
f 480 478 479
f 460 458 480
f 481 396 401
f 482 479 481
f 483 480 482
f 463 460 483
f 484 401 407
f 485 481 484
f 486 482 485
f 487 483 486
f 467 463 487
f 488 407 414
f 489 484 488
f 490 485 489
f 491 486 490
f 492 487 491
f 472 467 492
f 323 414 169
f 322 488 323
f 321 489 322
f 320 490 321
f 319 491 320
f 318 492 319
f 197 472 318
f 457 389 478
f 478 392 479
f 458 478 480
f 479 396 481
f 480 479 482
f 460 480 483
f 481 401 484
f 482 481 485
f 483 482 486
f 463 483 487
f 484 407 488
f 485 484 489
f 486 485 490
f 487 486 491
f 467 487 492
f 488 414 323
f 489 488 322
f 490 489 321
f 491 490 320
f 492 491 319
f 472 492 318
