# File exported by Houdini 20.5.445 (www.sidefx.com)
# 492 points
# 2940 vertices
# 980 primitives
# Bounds: [-24.0104065, -256.994995, -1105.84314] to [194.784332, 373.372131, -648.957886]
g 
v 85.3869324 58.1885147 -1105.84314
v 85.3869324 108.046074 -1102.99158
v 101.825531 73.5953293 -1102.99158
v 85.3869324 156.659348 -1094.50867
v 102.743927 127.099014 -1097.41724
v 117.853912 88.6177063 -1094.50867
v 85.3869324 202.814423 -1080.60583
v 103.283356 176.744064 -1085.91394
v 118.945831 143.92012 -1085.91394
v 133.071869 102.880379 -1080.60583
v 85.3869324 245.359131 -1061.63013
v 103.461212 222.33432 -1069.07153
v 119.458038 193.45697 -1071.37524
v 133.922516 158.496155 -1069.07153
v 147.099335 116.027496 -1061.63013
v 85.3869324 283.231384 -1038.0553
v 103.283356 263.59726 -1047.17615
v 119.458038 238.103699 -1051.46191
v 134.178558 207.253555 -1051.46191
v 147.582367 170.759201 -1047.17615
v 159.586273 127.730652 -1038.05542
v 85.3869324 315.485596 -1010.47009
v 102.743927 300.055908 -1020.27539
v 118.945831 278.27655 -1025.98877
v 133.922516 250.883728 -1027.86511
v 147.582367 218.262497 -1025.98877
v 159.769867 180.545746 -1020.27539
v 170.220917 137.69783 -1010.47009
v 85.3869324 341.316467 -979.562988
v 101.825531 330.892395 -988.232666
v 117.853912 313.660583 -994.13562
v 133.071869 290.051086 -997.12439
v 147.099335 260.653503 -997.12439
v 159.586273 226.201508 -994.13562
v 170.220856 187.555435 -988.232666
v 178.73764 145.679932 -979.56311
v 95.5465393 17.8528557 -1102.99158
v 113.471222 31.8670807 -1097.41724
v 105.452667 -21.4760017 -1094.50867
v 130.006439 45.7283554 -1085.91394
v 124.023956 -7.38196564 -1085.91394
v 114.85788 -58.8162689 -1080.60583
v 145.093048 59.3288803 -1069.07153
v 140.515167 6.52066803 -1071.37524
v 133.457855 -43.9637909 -1069.07153
v 123.527252 -93.2357254 -1061.63013
v 158.642975 72.5675125 -1047.17615
v 155.235626 20.3172455 -1051.46204
v 149.612885 -29.5993156 -1051.46204
v 141.722198 -77.6476746 -1047.17615
v 131.244659 -123.874924 -1038.05542
v 170.497162 85.3137054 -1020.27539
v 168.322906 34.1364822 -1025.98877
v 163.919159 -15.4144211 -1027.86511
v 157.384735 -62.9682922 -1025.98877
v 148.715179 -108.057983 -1020.27539
v 137.817169 -149.969101 -1010.47009
v 180.380524 97.3621979 -988.232666
v 179.651947 48.0661392 -994.13562
v 176.570282 -0.977293015 -997.124512
v 171.21225 -48.5438614 -997.124512
v 163.711639 -93.445816 -994.13562
v 154.25589 -134.562195 -988.232666
v 143.080841 -170.866806 -979.56311
v 75.2272644 17.8528557 -1102.99158
v 85.3869324 -26.9896317 -1097.41724
v 65.3211975 -21.4760017 -1094.50867
v 95.066803 -68.0677414 -1085.91394
v 75.7070618 -68.0677414 -1085.91394
v 55.9160461 -58.8162689 -1080.60583
v 104.213104 -105.252533 -1069.07153
v 85.3869324 -109.012466 -1071.37524
v 66.5608215 -105.252533 -1069.07153
v 47.2465515 -93.2357254 -1061.63013
v 112.765167 -138.33345 -1047.17615
v 94.4847107 -145.132355 -1051.46204
v 76.2891541 -145.132355 -1051.46204
v 58.0086365 -138.33345 -1047.17615
v 39.5292664 -123.874924 -1038.05542
v 120.63089 -166.914597 -1020.27539
v 103.085297 -176.764496 -1025.98877
v 85.3869324 -179.995728 -1027.86511
v 67.6885681 -176.764496 -1025.98877
v 50.1429749 -166.914597 -1020.27539
v 32.9566345 -149.969101 -1010.47009
v 127.657562 -190.30484 -988.232666
v 111.178925 -203.539536 -994.13562
v 94.056366 -210.240601 -997.124512
v 76.7174377 -210.240601 -997.124512
v 59.5949402 -203.539536 -994.13562
v 43.1163025 -190.30484 -988.232666
v 27.6930237 -170.866806 -979.56311
v 68.9482727 73.5953293 -1102.99158
v 57.3027039 31.8670807 -1097.41724
v 52.9199524 88.6177063 -1094.50867
v 46.7499695 -7.38196564 -1085.91394
v 40.7674255 45.7283554 -1085.91394
v 37.7020569 102.880379 -1080.60583
v 37.3160095 -43.9637909 -1069.07153
v 30.2587585 6.52066803 -1071.37524
v 25.6808777 59.3288803 -1069.07153
v 23.67453 116.027496 -1061.63013
v 29.0516052 -77.6476746 -1047.17615
v 21.1609192 -29.5993156 -1051.46204
v 15.5381775 20.3172455 -1051.46204
v 12.1308899 72.5675125 -1047.17615
v 11.1875916 127.730652 -1038.05542
v 22.0586853 -108.057983 -1020.27539
v 13.3891296 -62.9682922 -1025.98877
v 6.85467529 -15.4144211 -1027.86511
v 2.45098877 34.1364822 -1025.98877
v 0.276733398 85.3137054 -1020.27539
v 0.553009033 137.69783 -1010.47009
v 16.5180359 -134.562195 -988.232666
v 7.06219482 -93.445816 -994.13562
v -0.43838501 -48.5438614 -997.124512
v -5.79644775 -0.977293015 -997.124512
v -8.87814331 48.0661392 -994.13562
v -9.60665894 97.3621979 -988.232666
v -7.96374512 145.679932 -979.56311
v 68.0299377 127.099014 -1097.41724
v 51.8280945 143.92012 -1085.91394
v 67.490509 176.744064 -1085.91394
v 36.8513489 158.496155 -1069.07153
v 51.3158264 193.45697 -1071.37524
v 67.3126526 222.33432 -1069.07153
v 23.1915588 170.759201 -1047.17615
v 36.5953064 207.253555 -1051.46191
v 51.3158264 238.103699 -1051.46191
v 67.490448 263.59726 -1047.17603
v 11.0039978 180.545746 -1020.27539
v 23.1915588 218.262497 -1025.98877
v 36.8513489 250.883728 -1027.86511
v 51.8280945 278.27655 -1025.98877
v 68.0298767 300.055908 -1020.27539
v 0.553009033 187.555435 -988.232666
v 11.1875916 226.201508 -994.13562
v 23.67453 260.653503 -997.12439
v 37.7019958 290.051086 -997.12439
v 52.9199524 313.660583 -994.13562
v 68.9482727 330.892395 -988.232666
v 75.2272644 355.821106 -952.251953
v 57.3027039 342.644958 -958.80481
v 65.3211975 362.895935 -923.072144
v 40.7674255 322.189148 -962.607666
v 46.7499695 345.940857 -928.325928
v 55.9160461 362.364014 -892.752197
v 25.6808777 295.232605 -963.85437
v 30.2587585 321.704102 -930.797852
v 37.3160095 341.426331 -897.180908
v 47.2465515 354.238708 -862.04895
v 12.1308899 262.17511 -962.607666
v 15.5382385 290.854004 -930.797852
v 21.1609802 313.177307 -898.577637
v 29.0516052 329.353333 -865.646729
v 39.5292664 338.722778 -831.728882
v 0.276733398 223.134888 -958.80481
v 2.45101929 253.102844 -928.325928
v 6.85473633 277.588135 -897.180908
v 13.3891907 296.529419 -865.646729
v 22.0587463 309.613159 -833.987061
v 32.9566956 316.203735 -802.549072
v -9.60665894 178.033401 -952.251953
v -8.87811279 207.395279 -923.072144
v -5.7963562 233.032379 -892.752197
v -0.438354492 254.304596 -862.04895
v 7.06222534 270.681244 -831.728882
v 16.5180359 281.752991 -802.549072
v 27.6930237 287.243835 -775.237915
v -15.8856506 122.290833 -952.251953
v -17.0803223 69.0461578 -958.80481
v -21.2794189 97.3014603 -923.072144
v -15.4454956 17.3633118 -962.607666
v -21.4279785 41.1149673 -928.325928
v -24.0104065 71.3356094 -892.752197
v -11.2195435 -32.3541946 -963.85437
v -18.5328979 -11.6154556 -930.797852
v -22.8547363 13.8396301 -897.180908
v -24.0104065 45.0415001 -862.04895
v -4.50732422 -79.7414627 -962.607666
v -12.9101257 -61.5319214 -930.797852
v -18.5328979 -39.2085991 -898.577637
v -21.4279785 -12.5633545 -865.646729
v -21.2794189 19.0755577 -831.728882
v 4.70166016 -124.325531 -958.80481
v -4.5072937 -109.100235 -928.325928
v -11.2195435 -89.4529419 -897.180908
v -15.4454346 -65.673584 -865.646729
v -17.0803223 -37.8471909 -833.987061
v -15.8856506 -5.91381454 -802.549072
v 16.5180359 -165.375931 -952.251953
v 7.06222534 -154.304123 -923.072144
v -0.438354492 -137.927597 -892.752197
v -5.7963562 -116.655243 -862.04895
v -8.87811279 -91.0181503 -831.728882
v -9.60665894 -61.6563873 -802.549072
v -7.96374512 -29.3029137 -775.238037
v 32.9566956 -199.826675 -952.251953
v 50.1429749 -219.557541 -958.80481
v 39.5292664 -222.345764 -923.072144
v 67.6885681 -231.043472 -962.607666
v 58.0086975 -240.115799 -928.325928
v 47.2465515 -237.861649 -892.752197
v 85.3869324 -234.814041 -963.85437
v 76.2891541 -248.468124 -930.797852
v 66.5608215 -252.45842 -897.180908
v 55.9160461 -245.986984 -862.04895
v 103.085297 -231.043472 -962.607666
v 94.4847107 -248.468124 -930.797852
v 85.3869324 -256.994995 -898.577637
v 75.7070618 -256.703308 -865.646729
v 65.3211975 -246.518936 -831.728882
v 120.63089 -219.557541 -958.80481
v 112.765167 -240.115799 -928.325928
v 104.213043 -252.45842 -897.180908
v 95.066803 -256.703308 -865.646729
v 85.3869324 -252.58934 -833.987061
v 75.2272644 -239.444077 -802.549072
v 137.817169 -199.826675 -952.251953
v 131.244659 -222.345764 -923.072144
v 123.527252 -237.861649 -892.752197
v 114.85788 -245.986984 -862.04895
v 105.452667 -246.518936 -831.728882
v 95.5465393 -239.444077 -802.549072
v 85.3869324 -224.939346 -775.238037
v 154.25589 -165.375931 -952.251953
v 166.072235 -124.325531 -958.80481
v 163.711639 -154.304123 -923.072144
v 175.281219 -79.7414627 -962.607666
v 175.281158 -109.100235 -928.325928
v 171.212189 -137.927597 -892.752197
v 181.993439 -32.3541946 -963.85437
v 183.68399 -61.5319214 -930.797852
v 181.993439 -89.4529419 -897.180908
v 176.570221 -116.655243 -862.04895
v 186.219391 17.3633118 -962.607666
v 189.306732 -11.6154556 -930.797852
v 189.306732 -39.2085991 -898.577637
v 186.21933 -65.673584 -865.646729
v 179.651947 -91.0181503 -831.728882
v 187.854218 69.0461578 -958.80481
v 192.201813 41.1149673 -928.325928
v 193.628632 13.8396301 -897.180908
v 192.201813 -12.5633545 -865.646729
v 187.854218 -37.8471909 -833.987061
v 180.380524 -61.6563873 -802.549072
v 186.659454 122.290833 -952.251953
v 192.053253 97.3014603 -923.072144
v 194.784332 71.3356094 -892.752197
v 194.784332 45.0415001 -862.04895
v 192.053253 19.0755577 -831.728882
v 186.659454 -5.91381454 -802.549072
v 178.73764 -29.3029137 -775.238037
v 180.380524 178.033401 -952.251953
v 170.497162 223.134888 -958.80481
v 179.651947 207.395279 -923.072144
v 158.642975 262.17511 -962.607666
v 168.322906 253.102844 -928.325928
v 176.570221 233.032379 -892.752197
v 145.093048 295.232605 -963.85437
v 155.235626 290.854004 -930.797852
v 163.919159 277.588135 -897.180908
v 171.212189 254.304596 -862.04895
v 130.006439 322.189148 -962.607666
v 140.515167 321.704102 -930.797852
v 149.612885 313.177307 -898.577637
v 157.384674 296.529419 -865.646729
v 163.711639 270.681244 -831.728882
v 113.471222 342.644958 -958.80481
v 124.023956 345.940857 -928.325928
v 133.457855 341.426331 -897.180908
v 141.722198 329.353333 -865.646729
v 148.715179 309.613159 -833.987061
v 154.25589 281.752991 -802.549072
v 95.5465393 355.821106 -952.251953
v 105.452667 362.895935 -923.072144
v 114.85788 362.364014 -892.752197
v 123.527252 354.238708 -862.04895
v 131.244659 338.722778 -831.728882
v 137.817169 316.203735 -802.549072
v 143.080841 287.243835 -775.237915
v 85.3869324 368.966431 -920.813843
v 75.7070618 373.080383 -889.154419
v 95.066803 373.080383 -889.154419
v 66.5608215 368.835449 -857.620117
v 85.3869324 373.372131 -856.223267
v 104.213043 368.835449 -857.620117
v 58.0086975 356.49292 -826.475098
v 76.2891541 364.845276 -824.003174
v 94.4847107 364.845276 -824.003174
v 112.765167 356.49292 -826.475098
v 50.1429749 335.934631 -795.996094
v 67.6885681 347.420593 -792.193237
v 85.3869324 351.191162 -790.946655
v 103.085297 347.420593 -792.193237
v 120.63089 335.934631 -795.996094
v 43.1163025 306.681824 -766.568237
v 59.5949402 319.916565 -760.665283
v 76.7174377 326.617737 -757.676514
v 94.056366 326.617737 -757.676514
v 111.178925 319.916565 -760.665283
v 127.657562 306.681824 -766.568237
v -17.0803223 154.224197 -920.813843
v -21.4279785 128.940369 -889.154419
v -15.4454346 182.05069 -889.154419
v -22.8547363 102.537384 -857.620117
v -18.5328979 155.585632 -856.223267
v -11.2195435 205.829971 -857.620117
v -21.4279785 75.2620468 -826.475098
v -18.5328979 127.992477 -824.003174
v -12.9101257 177.908936 -824.003174
v -4.5072937 225.477127 -826.475098
v -17.0803223 47.3308563 -795.996094
v -15.4454956 99.0137024 -792.193237
v -11.2195435 148.731201 -790.946655
v -4.50732422 196.1185 -792.193237
v 4.70166016 240.702637 -795.996094
v -9.60665894 19.0148239 -766.568237
v -8.87814331 68.3109741 -760.665283
v -5.79644775 117.354416 -757.676514
v -0.43838501 164.920883 -757.676514
v 7.06219482 209.822845 -760.665283
v 16.5180359 250.939301 -766.568237
v 22.0587463 -193.236023 -920.813843
v 29.0516052 -212.976303 -889.154419
v 13.3891907 -180.152374 -889.154419
v 37.3160095 -225.049301 -857.620117
v 21.1609802 -196.800278 -856.223267
v 6.85473633 -161.211014 -857.620117
v 46.7499695 -229.563797 -826.475098
v 30.2587585 -205.327042 -824.003174
v 15.5382385 -174.47699 -824.003174
v 2.45101929 -136.725815 -826.475098
v 57.3027039 -226.267929 -795.996094
v 40.7674255 -205.812241 -792.193237
v 25.6808777 -178.855576 -790.946655
v 12.1308899 -145.798096 -792.193237
v 0.276763916 -106.757797 -795.996094
v 68.9482727 -214.51535 -766.568359
v 52.9199524 -197.283554 -760.665405
v 37.7019958 -173.674072 -757.676514
v 23.67453 -144.276474 -757.676514
v 11.1875916 -109.824478 -760.665405
v 0.553009033 -71.178299 -766.568359
v 148.715179 -193.236023 -920.813843
v 157.384674 -180.152283 -889.154419
v 141.722198 -212.976303 -889.154419
v 163.919159 -161.211014 -857.620117
v 149.612885 -196.800278 -856.223267
v 133.457855 -225.049301 -857.620117
v 168.322906 -136.725815 -826.475098
v 155.235626 -174.47699 -824.003174
v 140.515167 -205.327042 -824.003174
v 124.023956 -229.563797 -826.475098
v 170.497162 -106.757797 -795.996094
v 158.642975 -145.798096 -792.193237
v 145.093048 -178.855576 -790.946655
v 130.006439 -205.812241 -792.193237
v 113.471222 -226.267929 -795.996094
v 170.220856 -71.178299 -766.568359
v 159.586273 -109.824478 -760.665405
v 147.099335 -144.276474 -757.676514
v 133.071869 -173.674072 -757.676514
v 117.853912 -197.283554 -760.665405
v 101.825531 -214.51535 -766.568359
v 187.854218 154.224197 -920.813843
v 186.21933 182.05069 -889.154419
v 192.201813 128.940369 -889.154419
v 181.993439 205.830048 -857.620117
v 189.306732 155.585632 -856.223267
v 193.628632 102.537384 -857.620117
v 175.281158 225.477127 -826.475098
v 183.68399 177.908936 -824.003174
v 189.306732 127.992477 -824.003174
v 192.201813 75.2620468 -826.475098
v 166.072235 240.702637 -795.996094
v 175.281219 196.1185 -792.193237
v 181.993439 148.731201 -790.946655
v 186.219391 99.0137024 -792.193237
v 187.854218 47.3308563 -795.996094
v 154.25589 250.939301 -766.568237
v 163.711639 209.822845 -760.665283
v 171.21225 164.920883 -757.676514
v 176.570282 117.354416 -757.676514
v 179.651947 68.3109741 -760.665283
v 180.380524 19.0148239 -766.568237
v 85.3869324 58.1885147 -648.957886
v 95.5465393 98.5241623 -651.809265
v 75.2272644 98.5241623 -651.809265
v 105.452667 137.853119 -660.292297
v 85.3869324 143.36673 -657.383728
v 65.3211975 137.853119 -660.292297
v 114.85788 175.193298 -674.195129
v 95.066803 184.444839 -668.886902
v 75.7070618 184.444839 -668.886902
v 55.9160461 175.193298 -674.195129
v 123.527252 209.612747 -693.170837
v 104.213104 221.629562 -685.729431
v 85.3869324 225.389481 -683.425842
v 66.5608215 221.629562 -685.729431
v 47.2465515 209.612747 -693.170837
v 131.244659 240.252045 -716.745605
v 112.765167 254.71048 -707.624878
v 94.4847107 261.509399 -703.338989
v 76.2891541 261.509399 -703.338989
v 58.0086365 254.710571 -707.624878
v 39.5292664 240.252045 -716.745605
v 137.817169 266.34613 -744.330811
v 120.63089 283.291626 -734.525513
v 103.085297 293.141541 -728.812256
v 85.3869324 296.372803 -726.935913
v 67.6885681 293.141541 -728.812256
v 50.1429749 283.291626 -734.525513
v 32.9566345 266.34613 -744.330811
v 101.825531 42.7816849 -651.809265
v 117.853912 27.7593155 -660.292297
v 113.471222 84.5100327 -657.383728
v 133.071869 13.4966393 -674.195129
v 130.006439 70.6487579 -668.886902
v 124.023956 123.758987 -668.886902
v 147.099335 0.349533081 -693.170837
v 145.093048 57.0482407 -685.729431
v 140.515167 109.856354 -683.425842
v 133.457855 160.340897 -685.729431
v 159.586273 -11.3536377 -716.745605
v 158.642975 43.8094978 -707.624878
v 155.235626 96.0598755 -703.338989
v 149.612885 145.976318 -703.338989
v 141.722198 194.024689 -707.624878
v 170.220917 -21.3207321 -744.330811
v 170.497162 31.0633087 -734.525513
v 168.322906 82.2405396 -728.812256
v 163.919159 131.791428 -726.935913
v 157.384735 179.345306 -728.812256
v 148.715179 224.434982 -734.525513
v 85.3869324 8.33094215 -651.809265
v 85.3869324 -40.2823257 -660.292297
v 102.743927 -10.7219925 -657.383728
v 85.3869324 -86.4374084 -674.195129
v 103.283356 -60.3670425 -668.886902
v 118.945831 -27.5430107 -668.886902
v 85.3869324 -128.982208 -693.170837
v 103.461212 -105.957321 -685.729492
v 119.458038 -77.0798645 -683.425842
v 133.922516 -42.1190338 -685.729431
v 85.3869324 -166.854355 -716.745605
v 103.283356 -147.22023 -707.624878
v 119.458038 -121.726608 -703.339111
v 134.178558 -90.8765335 -703.339111
v 147.582367 -54.3822708 -707.624878
v 85.3869324 -199.108444 -744.330811
v 102.743927 -183.678864 -734.525513
v 118.945831 -161.899628 -728.812256
v 133.922516 -134.506592 -726.936035
v 147.582367 -101.88549 -728.812256
v 159.769867 -64.1688156 -734.525513
v 68.9482727 42.7816849 -651.809265
v 52.9199524 27.7593155 -660.292297
v 68.0299377 -10.7219925 -657.383728
v 37.7020569 13.4966393 -674.195129
v 51.8280945 -27.5430107 -668.886902
v 67.490509 -60.3670425 -668.886902
v 23.67453 0.349533081 -693.170837
v 36.8513489 -42.1190338 -685.729431
v 51.3158264 -77.0798645 -683.425842
v 67.3126526 -105.957321 -685.729492
v 11.1875916 -11.3536377 -716.745605
v 23.1915588 -54.3822708 -707.624878
v 36.5953064 -90.8765335 -703.339111
v 51.3158264 -121.726608 -703.339111
v 67.490448 -147.22023 -707.624878
v 0.553009033 -21.3207321 -744.330811
v 11.0039978 -64.1688156 -734.525513
v 23.1915588 -101.88549 -728.812256
v 36.8513489 -134.506592 -726.936035
v 51.8280945 -161.899628 -728.812256
v 68.0298767 -183.678864 -734.525513
v 57.3027039 84.5100327 -657.383728
v 46.7499695 123.758987 -668.886902
v 40.7674255 70.6487579 -668.886902
v 37.3160095 160.340897 -685.729431
v 30.2587585 109.856354 -683.425842
v 25.6808777 57.0482407 -685.729431
v 29.0516052 194.024689 -707.624878
v 21.1609192 145.976318 -703.338989
v 15.5381775 96.0598755 -703.338989
v 12.1308899 43.8094978 -707.624878
v 22.0586853 224.434982 -734.525513
v 13.3891296 179.345306 -728.812256
v 6.85467529 131.791428 -726.935913
v 2.45098877 82.2405396 -728.812256
v 0.276733398 31.0633087 -734.525513
g 
f 3 1 2
f 5 2 4
f 6 3 5
f 8 4 7
f 9 5 8
f 10 6 9
f 12 7 11
f 13 8 12
f 14 9 13
f 15 10 14
f 17 11 16
f 18 12 17
f 19 13 18
f 20 14 19
f 21 15 20
f 23 16 22
f 24 17 23
f 25 18 24
f 26 19 25
f 27 20 26
f 28 21 27
f 30 22 29
f 31 23 30
f 32 24 31
f 33 25 32
f 34 26 33
f 35 27 34
f 36 28 35
f 3 2 5
f 5 4 8
f 6 5 9
f 8 7 12
f 9 8 13
f 10 9 14
f 12 11 17
f 13 12 18
f 14 13 19
f 15 14 20
f 17 16 23
f 18 17 24
f 19 18 25
f 20 19 26
f 21 20 27
f 23 22 30
f 24 23 31
f 25 24 32
f 26 25 33
f 27 26 34
f 28 27 35
f 37 1 3
f 38 3 6
f 39 37 38
f 40 6 10
f 41 38 40
f 42 39 41
f 43 10 15
f 44 40 43
f 45 41 44
f 46 42 45
f 47 15 21
f 48 43 47
f 49 44 48
f 50 45 49
f 51 46 50
f 52 21 28
f 53 47 52
f 54 48 53
f 55 49 54
f 56 50 55
f 57 51 56
f 58 28 36
f 59 52 58
f 60 53 59
f 61 54 60
f 62 55 61
f 63 56 62
f 64 57 63
f 37 3 38
f 38 6 40
f 39 38 41
f 40 10 43
f 41 40 44
f 42 41 45
f 43 15 47
f 44 43 48
f 45 44 49
f 46 45 50
f 47 21 52
f 48 47 53
f 49 48 54
f 50 49 55
f 51 50 56
f 52 28 58
f 53 52 59
f 54 53 60
f 55 54 61
f 56 55 62
f 57 56 63
f 65 1 37
f 66 37 39
f 67 65 66
f 68 39 42
f 69 66 68
f 70 67 69
f 71 42 46
f 72 68 71
f 73 69 72
f 74 70 73
f 75 46 51
f 76 71 75
f 77 72 76
f 78 73 77
f 79 74 78
f 80 51 57
f 81 75 80
f 82 76 81
f 83 77 82
f 84 78 83
f 85 79 84
f 86 57 64
f 87 80 86
f 88 81 87
f 89 82 88
f 90 83 89
f 91 84 90
f 92 85 91
f 65 37 66
f 66 39 68
f 67 66 69
f 68 42 71
f 69 68 72
f 70 69 73
f 71 46 75
f 72 71 76
f 73 72 77
f 74 73 78
f 75 51 80
f 76 75 81
f 77 76 82
f 78 77 83
f 79 78 84
f 80 57 86
f 81 80 87
f 82 81 88
f 83 82 89
f 84 83 90
f 85 84 91
f 93 1 65
f 94 65 67
f 95 93 94
f 96 67 70
f 97 94 96
f 98 95 97
f 99 70 74
f 100 96 99
f 101 97 100
f 102 98 101
f 103 74 79
f 104 99 103
f 105 100 104
f 106 101 105
f 107 102 106
f 108 79 85
f 109 103 108
f 110 104 109
f 111 105 110
f 112 106 111
f 113 107 112
f 114 85 92
f 115 108 114
f 116 109 115
f 117 110 116
f 118 111 117
f 119 112 118
f 120 113 119
f 93 65 94
f 94 67 96
f 95 94 97
f 96 70 99
f 97 96 100
f 98 97 101
f 99 74 103
f 100 99 104
f 101 100 105
f 102 101 106
f 103 79 108
f 104 103 109
f 105 104 110
f 106 105 111
f 107 106 112
f 108 85 114
f 109 108 115
f 110 109 116
f 111 110 117
f 112 111 118
f 113 112 119
f 2 1 93
f 121 93 95
f 4 2 121
f 122 95 98
f 123 121 122
f 7 4 123
f 124 98 102
f 125 122 124
f 126 123 125
f 11 7 126
f 127 102 107
f 128 124 127
f 129 125 128
f 130 126 129
f 16 11 130
f 131 107 113
f 132 127 131
f 133 128 132
f 134 129 133
f 135 130 134
f 22 16 135
f 136 113 120
f 137 131 136
f 138 132 137
f 139 133 138
f 140 134 139
f 141 135 140
f 29 22 141
f 2 93 121
f 121 95 122
f 4 121 123
f 122 98 124
f 123 122 125
f 7 123 126
f 124 102 127
f 125 124 128
f 126 125 129
f 11 126 130
f 127 107 131
f 128 127 132
f 129 128 133
f 130 129 134
f 16 130 135
f 131 113 136
f 132 131 137
f 133 132 138
f 134 133 139
f 135 134 140
f 22 135 141
f 142 29 141
f 143 141 140
f 144 142 143
f 145 140 139
f 146 143 145
f 147 144 146
f 148 139 138
f 149 145 148
f 150 146 149
f 151 147 150
f 152 138 137
f 153 148 152
f 154 149 153
f 155 150 154
f 156 151 155
f 157 137 136
f 158 152 157
f 159 153 158
f 160 154 159
f 161 155 160
f 162 156 161
f 163 136 120
f 164 157 163
f 165 158 164
f 166 159 165
f 167 160 166
f 168 161 167
f 169 162 168
f 142 141 143
f 143 140 145
f 144 143 146
f 145 139 148
f 146 145 149
f 147 146 150
f 148 138 152
f 149 148 153
f 150 149 154
f 151 150 155
f 152 137 157
f 153 152 158
f 154 153 159
f 155 154 160
f 156 155 161
f 157 136 163
f 158 157 164
f 159 158 165
f 160 159 166
f 161 160 167
f 162 161 168
f 170 120 119
f 171 119 118
f 172 170 171
f 173 118 117
f 174 171 173
f 175 172 174
f 176 117 116
f 177 173 176
f 178 174 177
f 179 175 178
f 180 116 115
f 181 176 180
f 182 177 181
f 183 178 182
f 184 179 183
f 185 115 114
f 186 180 185
f 187 181 186
f 188 182 187
f 189 183 188
f 190 184 189
f 191 114 92
f 192 185 191
f 193 186 192
f 194 187 193
f 195 188 194
f 196 189 195
f 197 190 196
f 170 119 171
f 171 118 173
f 172 171 174
f 173 117 176
f 174 173 177
f 175 174 178
f 176 116 180
f 177 176 181
f 178 177 182
f 179 178 183
f 180 115 185
f 181 180 186
f 182 181 187
f 183 182 188
f 184 183 189
f 185 114 191
f 186 185 192
f 187 186 193
f 188 187 194
f 189 188 195
f 190 189 196
f 198 92 91
f 199 91 90
f 200 198 199
f 201 90 89
f 202 199 201
f 203 200 202
f 204 89 88
f 205 201 204
f 206 202 205
f 207 203 206
f 208 88 87
f 209 204 208
f 210 205 209
f 211 206 210
f 212 207 211
f 213 87 86
f 214 208 213
f 215 209 214
f 216 210 215
f 217 211 216
f 218 212 217
f 219 86 64
f 220 213 219
f 221 214 220
f 222 215 221
f 223 216 222
f 224 217 223
f 225 218 224
f 198 91 199
f 199 90 201
f 200 199 202
f 201 89 204
f 202 201 205
f 203 202 206
f 204 88 208
f 205 204 209
f 206 205 210
f 207 206 211
f 208 87 213
f 209 208 214
f 210 209 215
f 211 210 216
f 212 211 217
f 213 86 219
f 214 213 220
f 215 214 221
f 216 215 222
f 217 216 223
f 218 217 224
f 226 64 63
f 227 63 62
f 228 226 227
f 229 62 61
f 230 227 229
f 231 228 230
f 232 61 60
f 233 229 232
f 234 230 233
f 235 231 234
f 236 60 59
f 237 232 236
f 238 233 237
f 239 234 238
f 240 235 239
f 241 59 58
f 242 236 241
f 243 237 242
f 244 238 243
f 245 239 244
f 246 240 245
f 247 58 36
f 248 241 247
f 249 242 248
f 250 243 249
f 251 244 250
f 252 245 251
f 253 246 252
f 226 63 227
f 227 62 229
f 228 227 230
f 229 61 232
f 230 229 233
f 231 230 234
f 232 60 236
f 233 232 237
f 234 233 238
f 235 234 239
f 236 59 241
f 237 236 242
f 238 237 243
f 239 238 244
f 240 239 245
f 241 58 247
f 242 241 248
f 243 242 249
f 244 243 250
f 245 244 251
f 246 245 252
f 254 36 35
f 255 35 34
f 256 254 255
f 257 34 33
f 258 255 257
f 259 256 258
f 260 33 32
f 261 257 260
f 262 258 261
f 263 259 262
f 264 32 31
f 265 260 264
f 266 261 265
f 267 262 266
f 268 263 267
f 269 31 30
f 270 264 269
f 271 265 270
f 272 266 271
f 273 267 272
f 274 268 273
f 275 30 29
f 276 269 275
f 277 270 276
f 278 271 277
f 279 272 278
f 280 273 279
f 281 274 280
f 254 35 255
f 255 34 257
f 256 255 258
f 257 33 260
f 258 257 261
f 259 258 262
f 260 32 264
f 261 260 265
f 262 261 266
f 263 262 267
f 264 31 269
f 265 264 270
f 266 265 271
f 267 266 272
f 268 267 273
f 269 30 275
f 270 269 276
f 271 270 277
f 272 271 278
f 273 272 279
f 274 273 280
f 275 29 142
f 282 142 144
f 276 275 282
f 283 144 147
f 284 282 283
f 277 276 284
f 285 147 151
f 286 283 285
f 287 284 286
f 278 277 287
f 288 151 156
f 289 285 288
f 290 286 289
f 291 287 290
f 279 278 291
f 292 156 162
f 293 288 292
f 294 289 293
f 295 290 294
f 296 291 295
f 280 279 296
f 297 162 169
f 298 292 297
f 299 293 298
f 300 294 299
f 301 295 300
f 302 296 301
f 281 280 302
f 275 142 282
f 282 144 283
f 276 282 284
f 283 147 285
f 284 283 286
f 277 284 287
f 285 151 288
f 286 285 289
f 287 286 290
f 278 287 291
f 288 156 292
f 289 288 293
f 290 289 294
f 291 290 295
f 279 291 296
f 292 162 297
f 293 292 298
f 294 293 299
f 295 294 300
f 296 295 301
f 280 296 302
f 163 120 170
f 303 170 172
f 164 163 303
f 304 172 175
f 305 303 304
f 165 164 305
f 306 175 179
f 307 304 306
f 308 305 307
f 166 165 308
f 309 179 184
f 310 306 309
f 311 307 310
f 312 308 311
f 167 166 312
f 313 184 190
f 314 309 313
f 315 310 314
f 316 311 315
f 317 312 316
f 168 167 317
f 318 190 197
f 319 313 318
f 320 314 319
f 321 315 320
f 322 316 321
f 323 317 322
f 169 168 323
f 163 170 303
f 303 172 304
f 164 303 305
f 304 175 306
f 305 304 307
f 165 305 308
f 306 179 309
f 307 306 310
f 308 307 311
f 166 308 312
f 309 184 313
f 310 309 314
f 311 310 315
f 312 311 316
f 167 312 317
f 313 190 318
f 314 313 319
f 315 314 320
f 316 315 321
f 317 316 322
f 168 317 323
f 191 92 198
f 324 198 200
f 192 191 324
f 325 200 203
f 326 324 325
f 193 192 326
f 327 203 207
f 328 325 327
f 329 326 328
f 194 193 329
f 330 207 212
f 331 327 330
f 332 328 331
f 333 329 332
f 195 194 333
f 334 212 218
f 335 330 334
f 336 331 335
f 337 332 336
f 338 333 337
f 196 195 338
f 339 218 225
f 340 334 339
f 341 335 340
f 342 336 341
f 343 337 342
f 344 338 343
f 197 196 344
f 191 198 324
f 324 200 325
f 192 324 326
f 325 203 327
f 326 325 328
f 193 326 329
f 327 207 330
f 328 327 331
f 329 328 332
f 194 329 333
f 330 212 334
f 331 330 335
f 332 331 336
f 333 332 337
f 195 333 338
f 334 218 339
f 335 334 340
f 336 335 341
f 337 336 342
f 338 337 343
f 196 338 344
f 219 64 226
f 345 226 228
f 220 219 345
f 346 228 231
f 347 345 346
f 221 220 347
f 348 231 235
f 349 346 348
f 350 347 349
f 222 221 350
f 351 235 240
f 352 348 351
f 353 349 352
f 354 350 353
f 223 222 354
f 355 240 246
f 356 351 355
f 357 352 356
f 358 353 357
f 359 354 358
f 224 223 359
f 360 246 253
f 361 355 360
f 362 356 361
f 363 357 362
f 364 358 363
f 365 359 364
f 225 224 365
f 219 226 345
f 345 228 346
f 220 345 347
f 346 231 348
f 347 346 349
f 221 347 350
f 348 235 351
f 349 348 352
f 350 349 353
f 222 350 354
f 351 240 355
f 352 351 356
f 353 352 357
f 354 353 358
f 223 354 359
f 355 246 360
f 356 355 361
f 357 356 362
f 358 357 363
f 359 358 364
f 224 359 365
f 247 36 254
f 366 254 256
f 248 247 366
f 367 256 259
f 368 366 367
f 249 248 368
f 369 259 263
f 370 367 369
f 371 368 370
f 250 249 371
f 372 263 268
f 373 369 372
f 374 370 373
f 375 371 374
f 251 250 375
f 376 268 274
f 377 372 376
f 378 373 377
f 379 374 378
f 380 375 379
f 252 251 380
f 381 274 281
f 382 376 381
f 383 377 382
f 384 378 383
f 385 379 384
f 386 380 385
f 253 252 386
f 247 254 366
f 366 256 367
f 248 366 368
f 367 259 369
f 368 367 370
f 249 368 371
f 369 263 372
f 370 369 373
f 371 370 374
f 250 371 375
f 372 268 376
f 373 372 377
f 374 373 378
f 375 374 379
f 251 375 380
f 376 274 381
f 377 376 382
f 378 377 383
f 379 378 384
f 380 379 385
f 252 380 386
f 389 387 388
f 391 388 390
f 392 389 391
f 394 390 393
f 395 391 394
f 396 392 395
f 398 393 397
f 399 394 398
f 400 395 399
f 401 396 400
f 403 397 402
f 404 398 403
f 405 399 404
f 406 400 405
f 407 401 406
f 409 402 408
f 410 403 409
f 411 404 410
f 412 405 411
f 413 406 412
f 414 407 413
f 302 408 281
f 301 409 302
f 300 410 301
f 299 411 300
f 298 412 299
f 297 413 298
f 169 414 297
f 389 388 391
f 391 390 394
f 392 391 395
f 394 393 398
f 395 394 399
f 396 395 400
f 398 397 403
f 399 398 404
f 400 399 405
f 401 400 406
f 403 402 409
f 404 403 410
f 405 404 411
f 406 405 412
f 407 406 413
f 409 408 302
f 410 409 301
f 411 410 300
f 412 411 299
f 413 412 298
f 414 413 297
f 388 387 415
f 417 415 416
f 390 388 417
f 419 416 418
f 420 417 419
f 393 390 420
f 422 418 421
f 423 419 422
f 424 420 423
f 397 393 424
f 426 421 425
f 427 422 426
f 428 423 427
f 429 424 428
f 402 397 429
f 431 425 430
f 432 426 431
f 433 427 432
f 434 428 433
f 435 429 434
f 408 402 435
f 386 430 253
f 385 431 386
f 384 432 385
f 383 433 384
f 382 434 383
f 381 435 382
f 281 408 381
f 388 415 417
f 417 416 419
f 390 417 420
f 419 418 422
f 420 419 423
f 393 420 424
f 422 421 426
f 423 422 427
f 424 423 428
f 397 424 429
f 426 425 431
f 427 426 432
f 428 427 433
f 429 428 434
f 402 429 435
f 431 430 386
f 432 431 385
f 433 432 384
f 434 433 383
f 435 434 382
f 408 435 381
f 415 387 436
f 438 436 437
f 416 415 438
f 440 437 439
f 441 438 440
f 418 416 441
f 443 439 442
f 444 440 443
f 445 441 444
f 421 418 445
f 447 442 446
f 448 443 447
f 449 444 448
f 450 445 449
f 425 421 450
f 452 446 451
f 453 447 452
f 454 448 453
f 455 449 454
f 456 450 455
f 430 425 456
f 365 451 225
f 364 452 365
f 363 453 364
f 362 454 363
f 361 455 362
f 360 456 361
f 253 430 360
f 415 436 438
f 438 437 440
f 416 438 441
f 440 439 443
f 441 440 444
f 418 441 445
f 443 442 447
f 444 443 448
f 445 444 449
f 421 445 450
f 447 446 452
f 448 447 453
f 449 448 454
f 450 449 455
f 425 450 456
f 452 451 365
f 453 452 364
f 454 453 363
f 455 454 362
f 456 455 361
f 430 456 360
f 436 387 457
f 459 457 458
f 437 436 459
f 461 458 460
f 462 459 461
f 439 437 462
f 464 460 463
f 465 461 464
f 466 462 465
f 442 439 466
f 468 463 467
f 469 464 468
f 470 465 469
f 471 466 470
f 446 442 471
f 473 467 472
f 474 468 473
f 475 469 474
f 476 470 475
f 477 471 476
f 451 446 477
f 344 472 197
f 343 473 344
f 342 474 343
f 341 475 342
f 340 476 341
f 339 477 340
f 225 451 339
f 436 457 459
f 459 458 461
f 437 459 462
f 461 460 464
f 462 461 465
f 439 462 466
f 464 463 468
f 465 464 469
f 466 465 470
f 442 466 471
f 468 467 473
f 469 468 474
f 470 469 475
f 471 470 476
f 446 471 477
f 473 472 344
f 474 473 343
f 475 474 342
f 476 475 341
f 477 476 340
f 451 477 339
f 457 387 389
f 478 389 392
f 458 457 478
f 479 392 396
f 480 478 479
f 460 458 480
f 481 396 401
f 482 479 481
f 483 480 482
f 463 460 483
f 484 401 407
f 485 481 484
f 486 482 485
f 487 483 486
f 467 463 487
f 488 407 414
f 489 484 488
f 490 485 489
f 491 486 490
f 492 487 491
f 472 467 492
f 323 414 169
f 322 488 323
f 321 489 322
f 320 490 321
f 319 491 320
f 318 492 319
f 197 472 318
f 457 389 478
f 478 392 479
f 458 478 480
f 479 396 481
f 480 479 482
f 460 480 483
f 481 401 484
f 482 481 485
f 483 482 486
f 463 483 487
f 484 407 488
f 485 484 489
f 486 485 490
f 487 486 491
f 467 487 492
f 488 414 323
f 489 488 322
f 490 489 321
f 491 490 320
f 492 491 319
f 472 492 318
