# File exported by Houdini 20.5.445 (www.sidefx.com)
# 492 points
# 2940 vertices
# 980 primitives
# Bounds: [-24.1930542, -209.340469, -1146.08655] to [194.96698, 325.71759, -608.714478]
g 
v 85.3869629 58.18853 -1146.08655
v 85.3869629 100.507919 -1142.73291
v 101.853027 71.2659836 -1142.73291
v 85.3869629 141.770966 -1132.75549
v 102.772949 116.680115 -1136.17639
v 117.908142 84.0169449 -1132.75549
v 85.3869629 180.947662 -1116.40332
v 103.313293 158.819031 -1122.64673
v 119.001831 130.95787 -1122.64673
v 133.151489 96.1232452 -1116.40332
v 85.3869629 217.059738 -1094.08484
v 103.491394 197.516159 -1102.83728
v 119.514954 173.00502 -1105.54663
v 134.00354 143.329971 -1102.83728
v 147.202393 107.282562 -1094.08484
v 85.3869629 249.205841 -1066.35718
v 103.313293 232.540344 -1077.08459
v 119.514954 210.901306 -1082.12549
v 134.260071 184.715576 -1082.12549
v 147.686218 153.739059 -1077.08459
v 159.710205 117.216263 -1066.35718
v 85.3869629 276.583282 -1033.91223
v 102.772949 263.486542 -1045.44507
v 119.001831 245.000153 -1052.16479
v 134.00354 221.748978 -1054.37158
v 147.686218 194.060013 -1052.16479
v 159.894043 162.045914 -1045.44507
v 170.362488 125.676376 -1033.91223
v 85.3869629 298.508667 -997.560425
v 101.853027 289.660645 -1007.75757
v 117.908142 275.034271 -1014.70032
v 133.151489 254.994446 -1018.21558
v 147.202393 230.041626 -1018.21558
v 159.710205 200.79866 -1014.70032
v 170.362488 167.995667 -1007.75757
v 178.893494 132.451675 -997.560547
v 95.5635376 23.9515419 -1142.73291
v 113.518066 35.8467865 -1136.17639
v 105.486145 -9.43103027 -1132.75549
v 130.080872 47.612381 -1122.64673
v 124.08844 2.53204346 -1122.64673
v 114.907043 -41.1255951 -1116.40332
v 145.192749 59.156395 -1102.83728
v 140.607117 14.3326569 -1105.54663
v 133.538025 -28.5186729 -1102.83728
v 123.591064 -70.340889 -1094.08484
v 158.76532 70.3935699 -1077.08459
v 155.352356 26.0432434 -1082.12549
v 149.720154 -16.3261261 -1082.12549
v 141.816406 -57.1096878 -1077.08459
v 131.321228 -96.3477173 -1066.35718
v 170.639221 81.2125015 -1045.44507
v 168.461304 37.7731476 -1052.16479
v 164.050354 -4.28585243 -1054.37158
v 157.504883 -44.6497726 -1052.16479
v 148.820923 -82.9219971 -1045.44507
v 137.904724 -118.496414 -1033.91223
v 180.539062 91.4393082 -1007.75757
v 179.809448 49.5966187 -1014.70032
v 176.722534 7.96835709 -1018.21558
v 171.35553 -32.40625 -1018.21558
v 163.842468 -70.5191345 -1014.70032
v 154.37085 -105.419037 -1007.75757
v 143.177185 -136.234451 -997.560547
v 75.2103271 23.9515419 -1142.73291
v 85.3869629 -14.110939 -1136.17639
v 65.2877197 -9.43103027 -1132.75549
v 95.0830078 -48.9782791 -1122.64673
v 75.6908569 -48.9782791 -1122.64673
v 55.8668213 -41.1255951 -1116.40332
v 104.244507 -80.540802 -1102.83728
v 85.3869629 -83.7322464 -1105.54663
v 66.5293579 -80.540802 -1102.83728
v 47.1828613 -70.340889 -1094.08484
v 112.810913 -108.620102 -1077.08459
v 94.4998779 -114.391037 -1082.12549
v 76.2739258 -114.391037 -1082.12549
v 57.9629517 -108.620102 -1077.08459
v 39.4526367 -96.3477173 -1066.35718
v 120.689758 -132.879807 -1045.44507
v 103.114807 -141.240509 -1052.16479
v 85.3869629 -143.983124 -1054.37158
v 67.6590576 -141.240509 -1052.16479
v 50.0841064 -132.879807 -1045.44507
v 32.8691406 -118.496414 -1033.91223
v 127.728088 -152.733536 -1007.75757
v 111.221985 -163.96727 -1014.70032
v 94.0708618 -169.655167 -1018.21558
v 76.7030029 -169.655167 -1018.21558
v 59.5518799 -163.96727 -1014.70032
v 43.0457153 -152.733536 -1007.75757
v 27.5966797 -136.234451 -997.560547
v 68.9208374 71.2659836 -1142.73291
v 57.2557373 35.8467865 -1136.17639
v 52.8657227 84.0169449 -1132.75549
v 46.6854248 2.53204346 -1122.64673
v 40.6929321 47.612381 -1122.64673
v 37.6223755 96.1232452 -1116.40332
v 37.2357178 -28.5186729 -1102.83728
v 30.166687 14.3326569 -1105.54663
v 25.5811157 59.156395 -1102.83728
v 23.5714722 107.282562 -1094.08484
v 28.9575195 -57.1096878 -1077.08459
v 21.0537109 -16.3261261 -1082.12549
v 15.4215698 26.0432434 -1082.12549
v 12.0085449 70.3935699 -1077.08459
v 11.0636597 117.216263 -1066.35718
v 21.9529419 -82.9219971 -1045.44507
v 13.2689819 -44.6497726 -1052.16479
v 6.72351074 -4.28585243 -1054.37158
v 2.3125 37.7731476 -1052.16479
v 0.13458252 81.2125015 -1045.44507
v 0.411376953 125.676376 -1033.91223
v 16.4030151 -105.419037 -1007.75757
v 6.93139648 -70.5191345 -1014.70032
v -0.581726074 -32.40625 -1018.21558
v -5.94866943 7.96835709 -1018.21558
v -9.0355835 49.5966187 -1014.70032
v -9.76525879 91.4393082 -1007.75757
v -8.11968994 132.451675 -997.560547
v 68.0009155 116.680115 -1136.17639
v 51.7720337 130.95787 -1122.64673
v 67.4605713 158.819031 -1122.64673
v 36.7703247 143.329971 -1102.83728
v 51.2589111 173.00502 -1105.54663
v 67.2824707 197.516159 -1102.83728
v 23.0876465 153.739059 -1077.08459
v 36.5137939 184.715576 -1082.12549
v 51.2589111 210.901306 -1082.12549
v 67.4605713 232.540344 -1077.08459
v 10.8797607 162.045914 -1045.44507
v 23.0876465 194.060013 -1052.16479
v 36.7703247 221.748978 -1054.37158
v 51.7720337 245.000153 -1052.16479
v 68.0009155 263.486542 -1045.44507
v 0.411376953 167.995667 -1007.75757
v 11.0636597 200.79866 -1014.70032
v 23.5714722 230.041626 -1018.21558
v 37.6223755 254.994446 -1018.21558
v 52.8657227 275.034271 -1014.70032
v 68.9208374 289.660645 -1007.75757
v 75.2103271 310.820312 -965.43811
v 57.2557373 299.636353 -973.145386
v 65.2877197 316.825439 -931.11792
v 40.6929321 282.273376 -977.618164
v 46.6854248 302.433899 -937.297363
v 55.8668213 316.373962 -895.456665
v 25.5811157 259.392487 -979.084473
v 30.166687 281.861694 -940.20459
v 37.2357788 298.601929 -900.665649
v 47.1828613 309.477112 -859.344482
v 12.0085449 231.333252 -977.618164
v 15.4215698 255.675964 -940.20459
v 21.0537109 274.624084 -902.308472
v 28.9575195 288.354309 -863.57605
v 39.4526367 296.30719 -823.683228
v 0.134643555 198.195679 -973.145386
v 2.3125 223.632629 -937.297363
v 6.72357178 244.415802 -900.665649
v 13.2689819 260.493225 -863.57605
v 21.9529419 271.598755 -826.339233
v 32.8691406 277.192871 -789.362915
v -9.76525879 159.913437 -965.43811
v -9.03552246 184.835815 -931.11792
v -5.9486084 206.59668 -895.456665
v -0.581665039 224.65271 -859.344482
v 6.93139648 238.553192 -823.683228
v 16.4030151 247.950958 -789.362915
v 27.5966797 252.611633 -757.240601
v -16.0547485 112.598923 -965.43811
v -17.2514038 67.4045486 -973.145386
v -21.4575195 91.3878403 -931.11792
v -15.6138306 23.5360146 -977.618164
v -21.6063232 43.696434 -937.297363
v -24.1930542 69.347847 -895.456665
v -11.3808594 -18.6644821 -979.084473
v -18.7064209 -1.06127739 -940.20459
v -23.0355225 20.5450211 -900.665649
v -24.1930542 47.0292892 -859.344482
v -4.65740967 -58.8869858 -977.618164
v -13.0742798 -43.4306488 -940.20459
v -18.7064209 -24.4824448 -902.308472
v -21.6063232 -1.86585808 -863.57605
v -21.4575195 24.989296 -823.683228
v 4.56695557 -96.7301102 -973.145386
v -4.65740967 -83.8067322 -937.297363
v -11.3808594 -67.130043 -900.665649
v -15.6138306 -46.946106 -863.57605
v -17.2514038 -23.3269577 -826.339233
v -16.0547485 3.77821732 -789.362915
v 16.4030151 -131.573776 -965.43811
v 6.93139648 -122.17598 -931.11792
v -0.581665039 -108.275604 -895.456665
v -5.9486084 -90.2194672 -859.344482
v -9.03552246 -68.4586792 -823.683228
v -9.76525879 -43.5363007 -789.362915
v -8.11968994 -16.074543 -757.240723
v 32.8691406 -160.815704 -965.43811
v 50.0841064 -177.563431 -973.145386
v 39.4526367 -179.930069 -931.11792
v 67.6590576 -187.312714 -977.618164
v 57.9629517 -195.013306 -937.297363
v 47.1828613 -193.100021 -895.456665
v 85.3869629 -190.513199 -979.084473
v 76.2739258 -202.102921 -940.20459
v 66.5293579 -205.489807 -900.665649
v 55.8668213 -199.996765 -859.344482
v 103.114807 -187.312714 -977.618164
v 94.4998779 -202.102921 -940.20459
v 85.3869629 -209.340469 -902.308472
v 75.6908569 -209.092911 -863.57605
v 65.2877197 -200.448212 -823.683228
v 120.689758 -177.563431 -973.145386
v 112.810913 -195.013306 -937.297363
v 104.244507 -205.489807 -900.665649
v 95.0830078 -209.092911 -863.57605
v 85.3869629 -205.600952 -826.339233
v 75.2103271 -194.443207 -789.363037
v 137.904724 -160.815704 -965.43811
v 131.321228 -179.930069 -931.11792
v 123.591064 -193.100021 -895.456665
v 114.907043 -199.996765 -859.344482
v 105.486145 -200.448212 -823.683228
v 95.5635376 -194.443207 -789.363037
v 85.3869629 -182.131607 -757.240723
v 154.37085 -131.573776 -965.43811
v 166.206909 -96.7301102 -973.145386
v 163.842468 -122.17598 -931.11792
v 175.431213 -58.8869858 -977.618164
v 175.431213 -83.8067322 -937.297363
v 171.35553 -108.275604 -895.456665
v 182.154724 -18.6644821 -979.084473
v 183.848145 -43.4306488 -940.20459
v 182.154724 -67.130043 -900.665649
v 176.722534 -90.2194672 -859.344482
v 186.387695 23.5360146 -977.618164
v 189.480225 -1.06127739 -940.20459
v 189.480225 -24.4824448 -902.308472
v 186.387695 -46.946106 -863.57605
v 179.809387 -68.4586792 -823.683228
v 188.02533 67.4045486 -973.145386
v 192.380249 43.696434 -937.297363
v 193.809326 20.5450211 -900.665649
v 192.380249 -1.86585808 -863.57605
v 188.02533 -23.3269577 -826.339233
v 180.539062 -43.5363007 -789.362915
v 186.828613 112.598923 -965.43811
v 192.231384 91.3878403 -931.11792
v 194.96698 69.347847 -895.456665
v 194.96698 47.0292892 -859.344482
v 192.231384 24.989296 -823.683228
v 186.828613 3.77821732 -789.362915
v 178.893494 -16.074543 -757.240723
v 180.539062 159.913437 -965.43811
v 170.639221 198.195679 -973.145386
v 179.809387 184.835815 -931.11792
v 158.765198 231.333252 -977.618164
v 168.461304 223.632629 -937.297363
v 176.722534 206.59668 -895.456665
v 145.192749 259.392487 -979.084473
v 155.352295 255.675964 -940.20459
v 164.050232 244.415802 -900.665649
v 171.35553 224.65271 -859.344482
v 130.080872 282.273376 -977.618164
v 140.607117 281.861694 -940.20459
v 149.720154 274.624084 -902.308472
v 157.504883 260.493225 -863.57605
v 163.842468 238.553192 -823.683228
v 113.518066 299.636353 -973.145386
v 124.08844 302.433899 -937.297363
v 133.538025 298.601929 -900.665649
v 141.816284 288.354309 -863.57605
v 148.820923 271.598755 -826.339233
v 154.37085 247.950958 -789.362915
v 95.5635376 310.820312 -965.43811
v 105.486145 316.825439 -931.11792
v 114.907043 316.373962 -895.456665
v 123.591064 309.477112 -859.344482
v 131.321228 296.30719 -823.683228
v 137.904724 277.192871 -789.362915
v 143.177185 252.611633 -757.240601
v 85.3869629 321.978088 -928.461914
v 75.6908569 325.469971 -891.225098
v 95.0830078 325.469971 -891.225098
v 66.5293579 321.866943 -854.135742
v 85.3869629 325.71759 -852.492798
v 104.244507 321.866943 -854.135742
v 57.9629517 311.390503 -817.503784
v 76.2739258 318.480103 -814.596558
v 94.4998779 318.480103 -814.596558
v 112.810913 311.390503 -817.503784
v 50.0841064 293.940552 -781.65564
v 67.6590576 303.68988 -777.182861
v 85.3869629 306.890381 -775.716675
v 103.114807 303.68988 -777.182861
v 120.689758 293.940552 -781.65564
v 43.0457153 269.110657 -747.043579
v 59.5518799 280.34436 -740.10083
v 76.7030029 286.032349 -736.585571
v 94.0708618 286.032349 -736.585571
v 111.221985 280.34436 -740.10083
v 127.728088 269.110657 -747.043579
v -17.2514038 139.704102 -928.461914
v -21.6063232 118.242996 -891.225098
v -15.6138306 163.323242 -891.225098
v -23.0355225 95.8321075 -854.135742
v -18.7064209 140.859589 -852.492798
v -11.3808594 183.507172 -854.135742
v -21.6063232 72.6806183 -817.503784
v -18.7064209 117.438416 -814.596558
v -13.0742798 159.807709 -814.596558
v -4.65740967 200.183838 -817.503784
v -17.2514038 48.9725876 -781.65564
v -15.6138306 92.8411179 -777.182861
v -11.3808594 135.041611 -775.716675
v -4.65740967 175.264114 -777.182861
v 4.56695557 213.107254 -781.65564
v -9.76525879 24.9378242 -747.043579
v -9.0355835 66.7805176 -740.10083
v -5.94866943 108.408783 -736.585571
v -0.581726074 148.783386 -736.585571
v 6.93139648 186.896347 -740.10083
v 16.4030151 221.796173 -747.043579
v 21.9529419 -155.221619 -928.461914
v 28.9575195 -171.977158 -891.225098
v 13.2689819 -144.11615 -891.225098
v 37.2357788 -182.224838 -854.135742
v 21.0537109 -158.246979 -852.492798
v 6.72357178 -128.038651 -854.135742
v 46.6854248 -186.056671 -817.503784
v 30.166687 -165.484512 -814.596558
v 15.4215698 -139.298859 -814.596558
v 2.3125 -107.255447 -817.503784
v 57.2557373 -183.25914 -781.65564
v 40.6929321 -165.896255 -777.182861
v 25.5811157 -143.015335 -775.716675
v 12.0085449 -114.956192 -777.182861
v 0.134643555 -81.8185501 -781.65564
v 68.9208374 -173.283508 -747.043701
v 52.8657227 -158.657166 -740.10083
v 37.6223755 -138.617264 -736.585571
v 23.5714722 -113.664474 -736.585571
v 11.0636597 -84.4215546 -740.10083
v 0.411376953 -51.6185379 -747.043701
v 148.820923 -155.221619 -928.461914
v 157.504883 -144.116074 -891.225098
v 141.816284 -171.977158 -891.225098
v 164.050232 -128.038651 -854.135742
v 149.720154 -158.246979 -852.492798
v 133.538025 -182.224838 -854.135742
v 168.461304 -107.255447 -817.503784
v 155.352295 -139.298859 -814.596558
v 140.607117 -165.484512 -814.596558
v 124.08844 -186.056671 -817.503784
v 170.639221 -81.8185501 -781.65564
v 158.765198 -114.956192 -777.182861
v 145.192749 -143.015335 -775.716675
v 130.080872 -165.896255 -777.182861
v 113.518066 -183.25914 -781.65564
v 170.362488 -51.6185379 -747.043701
v 159.710205 -84.4215546 -740.10083
v 147.202393 -113.664474 -736.585571
v 133.151489 -138.617264 -736.585571
v 117.908142 -158.657166 -740.10083
v 101.853027 -173.283508 -747.043701
v 188.02533 139.704102 -928.461914
v 186.387695 163.323242 -891.225098
v 192.380249 118.242996 -891.225098
v 182.154724 183.507263 -854.135742
v 189.480225 140.859589 -852.492798
v 193.809326 95.8321075 -854.135742
v 175.431213 200.183838 -817.503784
v 183.848145 159.807709 -814.596558
v 189.480225 117.438416 -814.596558
v 192.380249 72.6806183 -817.503784
v 166.206909 213.107254 -781.65564
v 175.431213 175.264114 -777.182861
v 182.154724 135.041611 -775.716675
v 186.387695 92.8411179 -777.182861
v 188.02533 48.9725876 -781.65564
v 154.37085 221.796173 -747.043579
v 163.842468 186.896347 -740.10083
v 171.35553 148.783386 -736.585571
v 176.722534 108.408783 -736.585571
v 179.809448 66.7805176 -740.10083
v 180.539062 24.9378242 -747.043579
v 85.3869629 58.18853 -608.714478
v 95.5635376 92.4255905 -612.068237
v 75.2103271 92.4255905 -612.068237
v 105.486145 125.808167 -622.045654
v 85.3869629 130.488068 -618.624756
v 65.2877197 125.808167 -622.045654
v 114.907043 157.502731 -638.397705
v 95.0830078 165.355423 -632.154297
v 75.6908569 165.355423 -632.154297
v 55.8668213 157.502731 -638.397705
v 123.591064 186.718063 -660.716187
v 104.244507 196.91803 -651.963867
v 85.3869629 200.109421 -649.254517
v 66.5293579 196.91803 -651.963867
v 47.1828613 186.718063 -660.716187
v 131.321228 212.724777 -688.44397
v 112.810913 224.997192 -677.716553
v 94.4998779 230.768158 -672.675659
v 76.2739258 230.768158 -672.675659
v 57.9629517 224.997284 -677.716553
v 39.4526367 212.724777 -688.44397
v 137.904724 234.873535 -720.888794
v 120.689758 249.256989 -709.356201
v 103.114807 257.617645 -702.636353
v 85.3869629 260.360321 -700.429565
v 67.6590576 257.617645 -702.636353
v 50.0841064 249.256989 -709.356201
v 32.8691406 234.873535 -720.888794
v 101.853027 45.1111526 -612.068237
v 117.908142 32.3601074 -622.045654
v 113.518066 80.5303421 -618.624756
v 133.151489 20.2538872 -638.397705
v 130.080872 68.7647552 -632.154297
v 124.08844 113.845093 -632.154297
v 147.202393 9.09457397 -660.716187
v 145.192749 57.2207489 -651.963867
v 140.607117 102.044479 -649.254517
v 133.538025 144.895813 -651.963867
v 159.710205 -0.83912468 -688.44397
v 158.76532 45.9835663 -677.716553
v 155.352356 90.3338928 -672.675659
v 149.720154 132.703262 -672.675659
v 141.816406 173.486816 -677.716553
v 170.362488 -9.2992363 -720.888794
v 170.639221 35.1646271 -709.356201
v 168.461304 78.6039886 -702.636353
v 164.050354 120.662994 -700.429565
v 157.504883 161.026901 -702.636353
v 148.820923 199.29921 -709.356201
v 85.3869629 15.8692207 -612.068237
v 85.3869629 -25.3938293 -622.045654
v 102.772949 -0.30298233 -618.624756
v 85.3869629 -64.5705261 -638.397705
v 103.313293 -42.4418945 -632.154297
v 119.001831 -14.5807304 -632.154297
v 85.3869629 -100.68264 -660.716187
v 103.491394 -81.1389389 -651.963867
v 119.514954 -56.6278915 -649.254517
v 134.00354 -26.9528389 -651.963867
v 85.3869629 -132.828659 -688.44397
v 103.313293 -116.163162 -677.716553
v 119.514954 -94.5242157 -672.675659
v 134.260071 -68.3384781 -672.675659
v 147.686218 -37.3619194 -677.716553
v 85.3869629 -160.206131 -720.888794
v 102.772949 -147.109451 -709.356201
v 119.001831 -128.622986 -702.636353
v 134.00354 -105.371841 -700.429565
v 147.686218 -77.6829224 -702.636353
v 159.894043 -45.6687775 -709.356201
v 68.9208374 45.1111526 -612.068237
v 52.8657227 32.3601074 -622.045654
v 68.0009155 -0.30298233 -618.624756
v 37.6223755 20.2538872 -638.397705
v 51.7720337 -14.5807304 -632.154297
v 67.4605713 -42.4418945 -632.154297
v 23.5714722 9.09457397 -660.716187
v 36.7703247 -26.9528389 -651.963867
v 51.2589111 -56.6278915 -649.254517
v 67.2824707 -81.1389389 -651.963867
v 11.0636597 -0.83912468 -688.44397
v 23.0876465 -37.3619194 -677.716553
v 36.5137939 -68.3384781 -672.675659
v 51.2589111 -94.5242157 -672.675659
v 67.4605713 -116.163162 -677.716553
v 0.411376953 -9.2992363 -720.888794
v 10.8797607 -45.6687775 -709.356201
v 23.0876465 -77.6829224 -702.636353
v 36.7703247 -105.371841 -700.429565
v 51.7720337 -128.622986 -702.636353
v 68.0009155 -147.109451 -709.356201
v 57.2557373 80.5303421 -618.624756
v 46.6854248 113.845093 -632.154297
v 40.6929321 68.7647552 -632.154297
v 37.2357178 144.895813 -651.963867
v 30.166687 102.044479 -649.254517
v 25.5811157 57.2207489 -651.963867
v 28.9575195 173.486816 -677.716553
v 21.0537109 132.703262 -672.675659
v 15.4215698 90.3338928 -672.675659
v 12.0085449 45.9835663 -677.716553
v 21.9529419 199.29921 -709.356079
v 13.2689819 161.026901 -702.636353
v 6.72351074 120.662994 -700.429565
v 2.3125 78.6039886 -702.636353
v 0.13458252 35.1646271 -709.356201
g 
f 3 1 2
f 5 2 4
f 6 3 5
f 8 4 7
f 9 5 8
f 10 6 9
f 12 7 11
f 13 8 12
f 14 9 13
f 15 10 14
f 17 11 16
f 18 12 17
f 19 13 18
f 20 14 19
f 21 15 20
f 23 16 22
f 24 17 23
f 25 18 24
f 26 19 25
f 27 20 26
f 28 21 27
f 30 22 29
f 31 23 30
f 32 24 31
f 33 25 32
f 34 26 33
f 35 27 34
f 36 28 35
f 3 2 5
f 5 4 8
f 6 5 9
f 8 7 12
f 9 8 13
f 10 9 14
f 12 11 17
f 13 12 18
f 14 13 19
f 15 14 20
f 17 16 23
f 18 17 24
f 19 18 25
f 20 19 26
f 21 20 27
f 23 22 30
f 24 23 31
f 25 24 32
f 26 25 33
f 27 26 34
f 28 27 35
f 37 1 3
f 38 3 6
f 39 37 38
f 40 6 10
f 41 38 40
f 42 39 41
f 43 10 15
f 44 40 43
f 45 41 44
f 46 42 45
f 47 15 21
f 48 43 47
f 49 44 48
f 50 45 49
f 51 46 50
f 52 21 28
f 53 47 52
f 54 48 53
f 55 49 54
f 56 50 55
f 57 51 56
f 58 28 36
f 59 52 58
f 60 53 59
f 61 54 60
f 62 55 61
f 63 56 62
f 64 57 63
f 37 3 38
f 38 6 40
f 39 38 41
f 40 10 43
f 41 40 44
f 42 41 45
f 43 15 47
f 44 43 48
f 45 44 49
f 46 45 50
f 47 21 52
f 48 47 53
f 49 48 54
f 50 49 55
f 51 50 56
f 52 28 58
f 53 52 59
f 54 53 60
f 55 54 61
f 56 55 62
f 57 56 63
f 65 1 37
f 66 37 39
f 67 65 66
f 68 39 42
f 69 66 68
f 70 67 69
f 71 42 46
f 72 68 71
f 73 69 72
f 74 70 73
f 75 46 51
f 76 71 75
f 77 72 76
f 78 73 77
f 79 74 78
f 80 51 57
f 81 75 80
f 82 76 81
f 83 77 82
f 84 78 83
f 85 79 84
f 86 57 64
f 87 80 86
f 88 81 87
f 89 82 88
f 90 83 89
f 91 84 90
f 92 85 91
f 65 37 66
f 66 39 68
f 67 66 69
f 68 42 71
f 69 68 72
f 70 69 73
f 71 46 75
f 72 71 76
f 73 72 77
f 74 73 78
f 75 51 80
f 76 75 81
f 77 76 82
f 78 77 83
f 79 78 84
f 80 57 86
f 81 80 87
f 82 81 88
f 83 82 89
f 84 83 90
f 85 84 91
f 93 1 65
f 94 65 67
f 95 93 94
f 96 67 70
f 97 94 96
f 98 95 97
f 99 70 74
f 100 96 99
f 101 97 100
f 102 98 101
f 103 74 79
f 104 99 103
f 105 100 104
f 106 101 105
f 107 102 106
f 108 79 85
f 109 103 108
f 110 104 109
f 111 105 110
f 112 106 111
f 113 107 112
f 114 85 92
f 115 108 114
f 116 109 115
f 117 110 116
f 118 111 117
f 119 112 118
f 120 113 119
f 93 65 94
f 94 67 96
f 95 94 97
f 96 70 99
f 97 96 100
f 98 97 101
f 99 74 103
f 100 99 104
f 101 100 105
f 102 101 106
f 103 79 108
f 104 103 109
f 105 104 110
f 106 105 111
f 107 106 112
f 108 85 114
f 109 108 115
f 110 109 116
f 111 110 117
f 112 111 118
f 113 112 119
f 2 1 93
f 121 93 95
f 4 2 121
f 122 95 98
f 123 121 122
f 7 4 123
f 124 98 102
f 125 122 124
f 126 123 125
f 11 7 126
f 127 102 107
f 128 124 127
f 129 125 128
f 130 126 129
f 16 11 130
f 131 107 113
f 132 127 131
f 133 128 132
f 134 129 133
f 135 130 134
f 22 16 135
f 136 113 120
f 137 131 136
f 138 132 137
f 139 133 138
f 140 134 139
f 141 135 140
f 29 22 141
f 2 93 121
f 121 95 122
f 4 121 123
f 122 98 124
f 123 122 125
f 7 123 126
f 124 102 127
f 125 124 128
f 126 125 129
f 11 126 130
f 127 107 131
f 128 127 132
f 129 128 133
f 130 129 134
f 16 130 135
f 131 113 136
f 132 131 137
f 133 132 138
f 134 133 139
f 135 134 140
f 22 135 141
f 142 29 141
f 143 141 140
f 144 142 143
f 145 140 139
f 146 143 145
f 147 144 146
f 148 139 138
f 149 145 148
f 150 146 149
f 151 147 150
f 152 138 137
f 153 148 152
f 154 149 153
f 155 150 154
f 156 151 155
f 157 137 136
f 158 152 157
f 159 153 158
f 160 154 159
f 161 155 160
f 162 156 161
f 163 136 120
f 164 157 163
f 165 158 164
f 166 159 165
f 167 160 166
f 168 161 167
f 169 162 168
f 142 141 143
f 143 140 145
f 144 143 146
f 145 139 148
f 146 145 149
f 147 146 150
f 148 138 152
f 149 148 153
f 150 149 154
f 151 150 155
f 152 137 157
f 153 152 158
f 154 153 159
f 155 154 160
f 156 155 161
f 157 136 163
f 158 157 164
f 159 158 165
f 160 159 166
f 161 160 167
f 162 161 168
f 170 120 119
f 171 119 118
f 172 170 171
f 173 118 117
f 174 171 173
f 175 172 174
f 176 117 116
f 177 173 176
f 178 174 177
f 179 175 178
f 180 116 115
f 181 176 180
f 182 177 181
f 183 178 182
f 184 179 183
f 185 115 114
f 186 180 185
f 187 181 186
f 188 182 187
f 189 183 188
f 190 184 189
f 191 114 92
f 192 185 191
f 193 186 192
f 194 187 193
f 195 188 194
f 196 189 195
f 197 190 196
f 170 119 171
f 171 118 173
f 172 171 174
f 173 117 176
f 174 173 177
f 175 174 178
f 176 116 180
f 177 176 181
f 178 177 182
f 179 178 183
f 180 115 185
f 181 180 186
f 182 181 187
f 183 182 188
f 184 183 189
f 185 114 191
f 186 185 192
f 187 186 193
f 188 187 194
f 189 188 195
f 190 189 196
f 198 92 91
f 199 91 90
f 200 198 199
f 201 90 89
f 202 199 201
f 203 200 202
f 204 89 88
f 205 201 204
f 206 202 205
f 207 203 206
f 208 88 87
f 209 204 208
f 210 205 209
f 211 206 210
f 212 207 211
f 213 87 86
f 214 208 213
f 215 209 214
f 216 210 215
f 217 211 216
f 218 212 217
f 219 86 64
f 220 213 219
f 221 214 220
f 222 215 221
f 223 216 222
f 224 217 223
f 225 218 224
f 198 91 199
f 199 90 201
f 200 199 202
f 201 89 204
f 202 201 205
f 203 202 206
f 204 88 208
f 205 204 209
f 206 205 210
f 207 206 211
f 208 87 213
f 209 208 214
f 210 209 215
f 211 210 216
f 212 211 217
f 213 86 219
f 214 213 220
f 215 214 221
f 216 215 222
f 217 216 223
f 218 217 224
f 226 64 63
f 227 63 62
f 228 226 227
f 229 62 61
f 230 227 229
f 231 228 230
f 232 61 60
f 233 229 232
f 234 230 233
f 235 231 234
f 236 60 59
f 237 232 236
f 238 233 237
f 239 234 238
f 240 235 239
f 241 59 58
f 242 236 241
f 243 237 242
f 244 238 243
f 245 239 244
f 246 240 245
f 247 58 36
f 248 241 247
f 249 242 248
f 250 243 249
f 251 244 250
f 252 245 251
f 253 246 252
f 226 63 227
f 227 62 229
f 228 227 230
f 229 61 232
f 230 229 233
f 231 230 234
f 232 60 236
f 233 232 237
f 234 233 238
f 235 234 239
f 236 59 241
f 237 236 242
f 238 237 243
f 239 238 244
f 240 239 245
f 241 58 247
f 242 241 248
f 243 242 249
f 244 243 250
f 245 244 251
f 246 245 252
f 254 36 35
f 255 35 34
f 256 254 255
f 257 34 33
f 258 255 257
f 259 256 258
f 260 33 32
f 261 257 260
f 262 258 261
f 263 259 262
f 264 32 31
f 265 260 264
f 266 261 265
f 267 262 266
f 268 263 267
f 269 31 30
f 270 264 269
f 271 265 270
f 272 266 271
f 273 267 272
f 274 268 273
f 275 30 29
f 276 269 275
f 277 270 276
f 278 271 277
f 279 272 278
f 280 273 279
f 281 274 280
f 254 35 255
f 255 34 257
f 256 255 258
f 257 33 260
f 258 257 261
f 259 258 262
f 260 32 264
f 261 260 265
f 262 261 266
f 263 262 267
f 264 31 269
f 265 264 270
f 266 265 271
f 267 266 272
f 268 267 273
f 269 30 275
f 270 269 276
f 271 270 277
f 272 271 278
f 273 272 279
f 274 273 280
f 275 29 142
f 282 142 144
f 276 275 282
f 283 144 147
f 284 282 283
f 277 276 284
f 285 147 151
f 286 283 285
f 287 284 286
f 278 277 287
f 288 151 156
f 289 285 288
f 290 286 289
f 291 287 290
f 279 278 291
f 292 156 162
f 293 288 292
f 294 289 293
f 295 290 294
f 296 291 295
f 280 279 296
f 297 162 169
f 298 292 297
f 299 293 298
f 300 294 299
f 301 295 300
f 302 296 301
f 281 280 302
f 275 142 282
f 282 144 283
f 276 282 284
f 283 147 285
f 284 283 286
f 277 284 287
f 285 151 288
f 286 285 289
f 287 286 290
f 278 287 291
f 288 156 292
f 289 288 293
f 290 289 294
f 291 290 295
f 279 291 296
f 292 162 297
f 293 292 298
f 294 293 299
f 295 294 300
f 296 295 301
f 280 296 302
f 163 120 170
f 303 170 172
f 164 163 303
f 304 172 175
f 305 303 304
f 165 164 305
f 306 175 179
f 307 304 306
f 308 305 307
f 166 165 308
f 309 179 184
f 310 306 309
f 311 307 310
f 312 308 311
f 167 166 312
f 313 184 190
f 314 309 313
f 315 310 314
f 316 311 315
f 317 312 316
f 168 167 317
f 318 190 197
f 319 313 318
f 320 314 319
f 321 315 320
f 322 316 321
f 323 317 322
f 169 168 323
f 163 170 303
f 303 172 304
f 164 303 305
f 304 175 306
f 305 304 307
f 165 305 308
f 306 179 309
f 307 306 310
f 308 307 311
f 166 308 312
f 309 184 313
f 310 309 314
f 311 310 315
f 312 311 316
f 167 312 317
f 313 190 318
f 314 313 319
f 315 314 320
f 316 315 321
f 317 316 322
f 168 317 323
f 191 92 198
f 324 198 200
f 192 191 324
f 325 200 203
f 326 324 325
f 193 192 326
f 327 203 207
f 328 325 327
f 329 326 328
f 194 193 329
f 330 207 212
f 331 327 330
f 332 328 331
f 333 329 332
f 195 194 333
f 334 212 218
f 335 330 334
f 336 331 335
f 337 332 336
f 338 333 337
f 196 195 338
f 339 218 225
f 340 334 339
f 341 335 340
f 342 336 341
f 343 337 342
f 344 338 343
f 197 196 344
f 191 198 324
f 324 200 325
f 192 324 326
f 325 203 327
f 326 325 328
f 193 326 329
f 327 207 330
f 328 327 331
f 329 328 332
f 194 329 333
f 330 212 334
f 331 330 335
f 332 331 336
f 333 332 337
f 195 333 338
f 334 218 339
f 335 334 340
f 336 335 341
f 337 336 342
f 338 337 343
f 196 338 344
f 219 64 226
f 345 226 228
f 220 219 345
f 346 228 231
f 347 345 346
f 221 220 347
f 348 231 235
f 349 346 348
f 350 347 349
f 222 221 350
f 351 235 240
f 352 348 351
f 353 349 352
f 354 350 353
f 223 222 354
f 355 240 246
f 356 351 355
f 357 352 356
f 358 353 357
f 359 354 358
f 224 223 359
f 360 246 253
f 361 355 360
f 362 356 361
f 363 357 362
f 364 358 363
f 365 359 364
f 225 224 365
f 219 226 345
f 345 228 346
f 220 345 347
f 346 231 348
f 347 346 349
f 221 347 350
f 348 235 351
f 349 348 352
f 350 349 353
f 222 350 354
f 351 240 355
f 352 351 356
f 353 352 357
f 354 353 358
f 223 354 359
f 355 246 360
f 356 355 361
f 357 356 362
f 358 357 363
f 359 358 364
f 224 359 365
f 247 36 254
f 366 254 256
f 248 247 366
f 367 256 259
f 368 366 367
f 249 248 368
f 369 259 263
f 370 367 369
f 371 368 370
f 250 249 371
f 372 263 268
f 373 369 372
f 374 370 373
f 375 371 374
f 251 250 375
f 376 268 274
f 377 372 376
f 378 373 377
f 379 374 378
f 380 375 379
f 252 251 380
f 381 274 281
f 382 376 381
f 383 377 382
f 384 378 383
f 385 379 384
f 386 380 385
f 253 252 386
f 247 254 366
f 366 256 367
f 248 366 368
f 367 259 369
f 368 367 370
f 249 368 371
f 369 263 372
f 370 369 373
f 371 370 374
f 250 371 375
f 372 268 376
f 373 372 377
f 374 373 378
f 375 374 379
f 251 375 380
f 376 274 381
f 377 376 382
f 378 377 383
f 379 378 384
f 380 379 385
f 252 380 386
f 389 387 388
f 391 388 390
f 392 389 391
f 394 390 393
f 395 391 394
f 396 392 395
f 398 393 397
f 399 394 398
f 400 395 399
f 401 396 400
f 403 397 402
f 404 398 403
f 405 399 404
f 406 400 405
f 407 401 406
f 409 402 408
f 410 403 409
f 411 404 410
f 412 405 411
f 413 406 412
f 414 407 413
f 302 408 281
f 301 409 302
f 300 410 301
f 299 411 300
f 298 412 299
f 297 413 298
f 169 414 297
f 389 388 391
f 391 390 394
f 392 391 395
f 394 393 398
f 395 394 399
f 396 395 400
f 398 397 403
f 399 398 404
f 400 399 405
f 401 400 406
f 403 402 409
f 404 403 410
f 405 404 411
f 406 405 412
f 407 406 413
f 409 408 302
f 410 409 301
f 411 410 300
f 412 411 299
f 413 412 298
f 414 413 297
f 388 387 415
f 417 415 416
f 390 388 417
f 419 416 418
f 420 417 419
f 393 390 420
f 422 418 421
f 423 419 422
f 424 420 423
f 397 393 424
f 426 421 425
f 427 422 426
f 428 423 427
f 429 424 428
f 402 397 429
f 431 425 430
f 432 426 431
f 433 427 432
f 434 428 433
f 435 429 434
f 408 402 435
f 386 430 253
f 385 431 386
f 384 432 385
f 383 433 384
f 382 434 383
f 381 435 382
f 281 408 381
f 388 415 417
f 417 416 419
f 390 417 420
f 419 418 422
f 420 419 423
f 393 420 424
f 422 421 426
f 423 422 427
f 424 423 428
f 397 424 429
f 426 425 431
f 427 426 432
f 428 427 433
f 429 428 434
f 402 429 435
f 431 430 386
f 432 431 385
f 433 432 384
f 434 433 383
f 435 434 382
f 408 435 381
f 415 387 436
f 438 436 437
f 416 415 438
f 440 437 439
f 441 438 440
f 418 416 441
f 443 439 442
f 444 440 443
f 445 441 444
f 421 418 445
f 447 442 446
f 448 443 447
f 449 444 448
f 450 445 449
f 425 421 450
f 452 446 451
f 453 447 452
f 454 448 453
f 455 449 454
f 456 450 455
f 430 425 456
f 365 451 225
f 364 452 365
f 363 453 364
f 362 454 363
f 361 455 362
f 360 456 361
f 253 430 360
f 415 436 438
f 438 437 440
f 416 438 441
f 440 439 443
f 441 440 444
f 418 441 445
f 443 442 447
f 444 443 448
f 445 444 449
f 421 445 450
f 447 446 452
f 448 447 453
f 449 448 454
f 450 449 455
f 425 450 456
f 452 451 365
f 453 452 364
f 454 453 363
f 455 454 362
f 456 455 361
f 430 456 360
f 436 387 457
f 459 457 458
f 437 436 459
f 461 458 460
f 462 459 461
f 439 437 462
f 464 460 463
f 465 461 464
f 466 462 465
f 442 439 466
f 468 463 467
f 469 464 468
f 470 465 469
f 471 466 470
f 446 442 471
f 473 467 472
f 474 468 473
f 475 469 474
f 476 470 475
f 477 471 476
f 451 446 477
f 344 472 197
f 343 473 344
f 342 474 343
f 341 475 342
f 340 476 341
f 339 477 340
f 225 451 339
f 436 457 459
f 459 458 461
f 437 459 462
f 461 460 464
f 462 461 465
f 439 462 466
f 464 463 468
f 465 464 469
f 466 465 470
f 442 466 471
f 468 467 473
f 469 468 474
f 470 469 475
f 471 470 476
f 446 471 477
f 473 472 344
f 474 473 343
f 475 474 342
f 476 475 341
f 477 476 340
f 451 477 339
f 457 387 389
f 478 389 392
f 458 457 478
f 479 392 396
f 480 478 479
f 460 458 480
f 481 396 401
f 482 479 481
f 483 480 482
f 463 460 483
f 484 401 407
f 485 481 484
f 486 482 485
f 487 483 486
f 467 463 487
f 488 407 414
f 489 484 488
f 490 485 489
f 491 486 490
f 492 487 491
f 472 467 492
f 323 414 169
f 322 488 323
f 321 489 322
f 320 490 321
f 319 491 320
f 318 492 319
f 197 472 318
f 457 389 478
f 478 392 479
f 458 478 480
f 479 396 481
f 480 479 482
f 460 480 483
f 481 401 484
f 482 481 485
f 483 482 486
f 463 483 487
f 484 407 488
f 485 484 489
f 486 485 490
f 487 486 491
f 467 487 492
f 488 414 323
f 489 488 322
f 490 489 321
f 491 490 320
f 492 491 319
f 472 492 318
