# File exported by Houdini 20.5.445 (www.sidefx.com)
# 492 points
# 2940 vertices
# 980 primitives
# Bounds: [-179.618683, -176.030243, -1070.96167] to [350.392578, 292.407349, -683.839355]
g 
v 185.239197 60.6554871 -1063.96265
v 186.624146 92.2223816 -1059.25574
v 215.645508 76.6884918 -1068.33337
v 185.734375 121.60804 -1046.58044
v 217.455383 111.209648 -1056.00732
v 242.798767 92.8601685 -1060.87134
v 184.027649 147.830292 -1028.43286
v 217.562866 140.991974 -1036.13623
v 244.664856 127.933098 -1041.16858
v 267.047424 107.833183 -1043.5592
v 182.19635 170.637665 -1007.25171
v 217.339417 165.971039 -1012.14673
v 245.599121 156.42041 -1016.14587
v 269.333984 141.400909 -1018.33826
v 288.90625 119.95919 -1019.81042
v 179.978638 191.152527 -985.326782
v 216.640076 187.399567 -987.357788
v 246.428528 179.906586 -989.609863
v 271.35199 167.831238 -990.57959
v 292.295837 150.886871 -991.580811
v 308.938354 127.722267 -993.376831
v 176.539062 211.271301 -964.234253
v 214.109558 207.389954 -964.012329
v 245.944397 200.711792 -964.145996
v 272.751709 190.064026 -963.641846
v 295.224609 175.20343 -963.315552
v 313.439331 155.620544 -964.574219
v 326.803711 130.224915 -967.466064
v 170.855408 231.967682 -944.928589
v 208.162354 227.956573 -942.865112
v 241.694641 221.293976 -941.005859
v 271.070251 210.888214 -939.025391
v 295.994141 196.36853 -937.250732
v 316.235657 177.736115 -937.262329
v 331.437744 154.830566 -939.753052
v 341.138 127.733208 -943.90918
v 200.661804 37.5390472 -1068.02148
v 233.200806 53.1823845 -1070.96167
v 212.579407 12.9907341 -1067.6134
v 260.035095 68.9139709 -1061.11926
v 244.755188 28.4428902 -1068.67529
v 219.939148 -13.9147301 -1063.6637
v 282.656433 83.2840805 -1042.27844
v 269.829529 43.8249397 -1057.03247
v 250.217834 1.91212082 -1062.47656
v 223.096436 -41.8330688 -1054.89307
v 302.522583 94.3155823 -1017.91309
v 290.406372 57.2817535 -1037.07434
v 273.029297 17.0655956 -1048.8844
v 250.641052 -25.1974792 -1050.55762
v 222.34198 -68.085556 -1039.17883
v 320.779663 100.236061 -990.800171
v 308.664734 66.6253128 -1011.65613
v 291.694153 29.2561989 -1026.97888
v 270.942627 -10.6515236 -1034.11938
v 246.703613 -51.3772736 -1030.92822
v 217.924194 -90.8991013 -1016.39136
v 337.036987 100.335464 -962.87207
v 325.699219 70.0283356 -982.210449
v 308.491699 36.2572899 -998.579102
v 287.481567 -0.431064606 -1008.70496
v 264.108521 -38.371376 -1010.43481
v 238.457214 -75.3827438 -1003.18457
v 209.551147 -109.103577 -987.687744
v 161.35437 31.9847717 -1052.23145
v 174.208191 4.71843147 -1052.7887
v 133.14563 5.24583435 -1031.01819
v 183.685303 -23.9294662 -1050.38831
v 145.559937 -25.733017 -1029.50952
v 102.976685 -20.0750504 -1005.92993
v 189.980835 -54.3109131 -1045.04907
v 155.215027 -58.1217804 -1026.50488
v 117.095947 -54.7832489 -1004.03552
v 73.2816772 -44.7929077 -982.045532
v 192.544861 -83.6513748 -1033.46216
v 160.88446 -90.4177704 -1018.8894
v 126.34082 -89.0977859 -999.069214
v 87.4099121 -81.2290802 -977.810425
v 43.661377 -68.2202377 -959.119751
v 190.912109 -109.029373 -1013.73584
v 161.746765 -119.436264 -1003.47205
v 129.647705 -121.102615 -987.342773
v 94.0048218 -114.972961 -968.291138
v 54.850769 -103.395081 -950.058594
v 13.4250183 -88.5985336 -935.166382
v 184.296997 -128.564911 -985.385864
v 156.514648 -141.807495 -977.690186
v 125.750488 -146.807617 -964.921021
v 92.1167603 -143.202332 -949.20105
v 56.1390991 -132.893906 -932.609985
v 19.1188049 -118.915695 -918.676392
v -17.893158 -103.255157 -909.161987
v 154.024109 65.1221771 -1051.21887
v 124.768555 37.2757072 -1033.69897
v 119.901001 70.3833847 -1036.80823
v 91.8291016 13.4496822 -1009.25647
v 85.7998657 44.8774757 -1015.927
v 82.3398438 77.5382919 -1023.55347
v 58.4163818 -8.94129944 -984.410278
v 49.6561279 23.7976189 -990.752686
v 44.6381836 55.1732941 -1000.69897
v 42.7531738 87.5448608 -1010.255
v 27.3564453 -32.3800659 -962.269531
v 15.1505737 2.41012001 -966.504883
v 7.39373779 35.5329475 -975.330688
v 3.20162964 67.5739441 -986.282715
v 3.33279419 100.013245 -995.570557
v -2.67675781 -56.0462189 -940.623413
v -16.4543152 -21.6969147 -944.85498
v -27.380188 13.2960052 -951.781128
v -34.5848083 47.7425575 -961.711304
v -37.4171753 81.0424576 -972.09021
v -34.5789185 113.599808 -979.880981
v -34.3598938 -76.9922256 -917.294678
v -49.2123108 -45.7474518 -923.220581
v -61.8657837 -11.1801109 -929.999023
v -71.3552246 24.8447952 -939.247437
v -76.8347778 60.6580811 -949.119751
v -76.6389465 94.740303 -958.033203
v -69.9464722 126.369392 -964.023315
v 152.976074 97.2761459 -1047.44348
v 117.325134 102.599899 -1036.02429
v 149.844055 126.067604 -1036.83032
v 79.6008301 109.422447 -1024.75549
v 113.099182 130.898285 -1027.49817
v 146.342651 151.455933 -1021.03918
v 40.8580322 119.377083 -1011.24402
v 75.5444336 138.089874 -1016.24988
v 108.951416 156.525635 -1012.43359
v 143.184814 174.31958 -1001.49939
v 1.75250244 132.426819 -994.560059
v 37.010437 149.105621 -1001.09949
v 71.1703491 165.410278 -999.837646
v 105.221985 181.376953 -992.219849
v 140.155273 196.807556 -979.747192
v -37.4482422 146.987885 -975.46875
v -3.13067627 164.064148 -981.572632
v 31.2471924 179.503754 -981.939209
v 65.8522339 194.065948 -977.359009
v 100.686523 207.966583 -968.796875
v 135.830933 220.850677 -957.538208
v 140.502258 247.049438 -935.088257
v 100.756042 236.23938 -945.67981
v 107.343811 261.6185 -925.716553
v 62.7990112 223.590576 -953.993652
v 64.7142334 250.65033 -933.919434
v 73.0471802 273.571716 -916.816772
v 26.1202393 209.601532 -959.565796
v 25.2758179 237.115479 -939.447998
v 29.0432434 261.466217 -922.340698
v 39.1945801 281.136841 -908.140137
v -10.0967712 193.996307 -962.106689
v -12.8013 221.148346 -942.919312
v -11.5043945 245.424103 -925.737183
v -5.31497192 266.663544 -911.412231
v 6.2996521 283.923004 -899.491455
v -46.4322205 175.479431 -961.143799
v -51.1212158 201.660248 -944.489502
v -51.5204468 225.204712 -928.04834
v -47.3864136 246.76062 -913.585938
v -38.5601807 266.297882 -901.64624
v -24.625 281.152344 -891.326538
v -82.0215149 151.962433 -954.773926
v -89.2306519 176.335999 -942.432373
v -91.9306335 199.135468 -928.160156
v -89.5413513 220.826691 -914.243774
v -81.7162476 241.410706 -902.299805
v -68.7558899 259.249115 -892.254028
v -51.6260376 271.439362 -882.877197
v -106.708679 116.671112 -946.179321
v -112.97525 79.1966171 -938.321533
v -137.31778 103.624329 -928.018921
v -111.578156 41.1408882 -928.686401
v -141.346436 62.1744232 -918.95752
v -160.196259 88.4558487 -908.504761
v -104.521942 2.78625488 -918.275757
v -137.84082 21.3866291 -908.599121
v -161.333832 43.8496284 -898.310913
v -174.1492 70.7883453 -886.857788
v -93.2342834 -34.6951828 -908.649902
v -129.299713 -18.7687454 -897.292725
v -156.083466 0.953052521 -886.645264
v -173.029968 23.8904037 -874.97998
v -179.618683 50.5769386 -862.557678
v -78.2969971 -68.8635254 -899.885864
v -116.376831 -56.2549667 -885.388062
v -146.174957 -39.766861 -872.435425
v -166.419922 -19.8406792 -859.9599
v -176.889038 2.83448219 -847.034058
v -178.029968 28.7787895 -834.673279
v -59.9017944 -97.9598999 -889.270264
v -98.7886963 -89.1921539 -871.74707
v -131.265991 -76.9632187 -855.713623
v -154.897186 -61.041748 -840.79895
v -168.876068 -41.6133881 -826.960876
v -173.781189 -19.319828 -814.119568
v -171.341156 6.16117477 -803.813538
v -27.2305603 -121.655792 -884.641357
v 11.464325 -138.631042 -893.412109
v -35.6362305 -135.802933 -857.444946
v 48.6331177 -152.799805 -907.154297
v 4.15982056 -152.930359 -866.952881
v -41.5922546 -147.750275 -829.84906
v 84.2360229 -161.404877 -922.00293
v 41.282959 -165.678131 -880.289185
v -1.57751465 -163.67923 -840.278442
v -44.1594543 -157.530853 -803.132629
v 118.227478 -161.899078 -935.9552
v 77.0115356 -171.225403 -894.205811
v 35.4464722 -173.571899 -853.594849
v -4.71398926 -170.641785 -814.586853
v -43.0497437 -163.261688 -778.535278
v 150.489014 -152.893005 -947.31665
v 111.99292 -167.345001 -907.513184
v 71.7366333 -174.636139 -867.593018
v 32.2404175 -176.030243 -828.634094
v -4.55166626 -171.827881 -791.561523
v -38.1233826 -162.334778 -757.960693
v 181.120178 -134.602661 -954.432983
v 146.797791 -152.771576 -918.085327
v 108.597412 -164.467133 -880.59375
v 69.5595703 -170.27417 -843.288208
v 32.5531006 -170.127625 -807.046204
v -0.46685791 -164.056915 -772.90564
v -29.391449 -152.922668 -742.774658
v 216.639221 -103.564102 -966.668701
v 248.247925 -67.6900253 -979.329224
v 221.212097 -94.9778137 -943.041626
v 275.974304 -30.7065201 -983.308472
v 255.715881 -58.7217407 -953.431274
v 223.954041 -83.0445023 -918.361206
v 301.300415 5.58601379 -978.818726
v 285.825623 -22.9922791 -955.037109
v 261.14032 -47.6286621 -926.759277
v 225.430908 -67.0252838 -894.007568
v 323.688293 40.233284 -967.060791
v 312.781677 11.6785641 -948.730835
v 292.856873 -13.2655373 -926.501465
v 264.002563 -32.645462 -900.375854
v 225.547058 -47.014595 -870.844604
v 340.713928 73.2338867 -950.603394
v 334.981995 45.9396553 -936.501587
v 319.529358 21.2815018 -919.377686
v 295.069458 1.53019333 -898.880371
v 262.706055 -12.8818779 -875.349976
v 222.881897 -23.4701614 -849.467834
v 349.135681 105.325127 -932.953125
v 348.69519 81.2193832 -921.337036
v 338.218201 58.2140121 -908.042847
v 317.600159 38.5282059 -892.225586
v 289.027283 23.2215958 -873.628906
v 254.350159 11.781496 -852.785217
v 215.073975 2.42350769 -830.565247
v 345.549622 140.803406 -921.310059
v 332.786621 170.730804 -917.34668
v 341.875122 154.216888 -903.895386
v 313.931152 195.462097 -916.070679
v 325.303467 185.903748 -901.911499
v 328.803711 168.411896 -891.231079
v 289.827637 215.436615 -917.433105
v 302.582031 211.830322 -902.27124
v 309.008667 200.490662 -891.209106
v 306.722351 182.129608 -881.308838
v 260.852722 230.993439 -920.248535
v 274.694397 232.851654 -904.439819
v 283.20343 226.71048 -892.62793
v 284.611816 213.560577 -882.712891
v 276.880249 194.363678 -872.240601
v 226.799133 242.096802 -923.173462
v 241.203064 249.322357 -907.53186
v 251.311584 248.335022 -895.200317
v 255.671997 239.533722 -884.911133
v 252.491882 224.544769 -874.76355
v 241.10498 204.534088 -862.921326
v 186.711548 249.140869 -926.704224
v 200.252991 261.085327 -911.087402
v 211.186401 265.425171 -898.511108
v 218.100281 261.353058 -887.98877
v 218.895691 250.122864 -877.734253
v 213.090881 233.286133 -866.476196
v 201.399841 212.534149 -853.247925
v 153.999817 265.594299 -917.565674
v 119.832031 278.609863 -909.854736
v 165.647278 275.900238 -903.399048
v 85.2091675 287.438232 -903.140503
v 130.449524 285.552612 -897.296631
v 174.687622 276.957397 -891.868164
v 50.3452759 292.216095 -896.100586
v 94.0872192 291.247528 -891.601929
v 137.217957 283.277557 -886.052612
v 178.879028 269.566376 -881.193359
v 16.0543213 291.755829 -887.943115
v 57.1798096 292.407349 -884.378906
v 98.4302368 285.111084 -879.525146
v 138.726135 271.821289 -873.836914
v 176.869812 254.389221 -869.040527
v -16.4554443 283.610229 -878.726074
v 20.6306458 286.331512 -874.244507
v 58.7349243 280.369232 -869.396362
v 96.8199463 267.714935 -863.572144
v 133.538818 250.968536 -857.488525
v 168.332153 232.438141 -853.801819
v -119.712006 142.883545 -936.623413
v -148.562836 130.77002 -917.814331
v -125.982849 167.094269 -924.788574
v -167.302185 115.690987 -897.256958
v -151.407196 154.854187 -906.177979
v -125.863251 189.636902 -911.872925
v -175.966858 97.1099014 -874.120972
v -165.225922 139.125854 -885.278442
v -146.431396 177.104675 -894.213745
v -118.845245 211.351501 -899.776245
v -176.068146 74.717659 -847.694092
v -168.723389 119.09211 -860.811462
v -154.860199 160.703064 -873.313965
v -133.771301 198.655365 -883.073486
v -105.100983 231.889343 -889.124756
v -169.592468 49.0652351 -816.527222
v -164.054565 93.9475021 -831.377502
v -153.216248 138.860016 -846.910339
v -136.533844 180.967682 -861.17334
v -113.872589 218.091034 -871.968506
v -85.4008484 248.622925 -878.826782
v -71.6918335 -115.406128 -860.26947
v -79.5687866 -128.927917 -829.713928
v -109.204865 -106.775009 -839.646912
v -82.5170898 -140.603668 -800.018127
v -113.764557 -120.658569 -807.135742
v -137.633881 -95.0757828 -821.305969
v -80.5843201 -149.447357 -772.184937
v -112.417358 -131.964569 -776.11554
v -137.578033 -108.927582 -787.382507
v -156.132355 -79.2386703 -804.838562
v -74.0249329 -152.423492 -747.344849
v -105.757721 -138.301514 -747.208801
v -131.640533 -118.320633 -755.195129
v -151.19812 -91.6644058 -769.913086
v -164.838806 -58.5661926 -790.15155
v -62.6264954 -146.477295 -727.565979
v -93.7595215 -136.048035 -721.920959
v -120.262695 -119.899231 -725.144165
v -140.696503 -96.960022 -736.395813
v -155.141357 -67.4185181 -754.580811
v -164.841278 -32.4500351 -777.88623
v 183.952515 -127.59787 -930.12146
v 184.371887 -116.051361 -905.649902
v 146.442139 -143.460449 -893.088989
v 183.924622 -99.7134247 -882.146362
v 144.751221 -128.459259 -869.902344
v 106.948486 -152.827209 -856.934326
v 183.492737 -78.5533447 -860.002502
v 143.199768 -107.808716 -848.336304
v 104.765625 -134.17926 -835.638489
v 68.0252686 -155.991547 -821.511719
v 182.666687 -52.8325729 -838.956421
v 142.343506 -81.6335373 -827.719727
v 103.296997 -109.192413 -815.274719
v 66.3234253 -133.749329 -801.266418
v 31.8115234 -152.949738 -786.221924
v 179.143188 -23.4755592 -818.820496
v 140.827209 -50.4655609 -807.027893
v 102.205139 -78.0276718 -794.374023
v 65.059021 -104.400009 -780.265625
v 30.576416 -127.083054 -765.156921
v -0.74331665 -143.651642 -751.26593
v 350.392578 118.211174 -910.260742
v 340.837341 132.564301 -893.687012
v 344.618408 96.2783127 -898.879883
v 320.808289 147.594574 -881.067993
v 327.847351 112.81356 -882.590576
v 327.767639 76.6909714 -885.812256
v 291.48175 161.94696 -869.900757
v 300.457214 129.190033 -868.90918
v 303.828674 95.3165436 -868.907593
v 301.035156 59.9410095 -869.994385
v 254.450439 174.691193 -858.31488
v 263.814697 144.24765 -855.132812
v 269.162537 112.70768 -852.953918
v 270.468567 79.9733276 -851.442749
v 266.717102 46.3223419 -850.894836
v 211.302979 185.30777 -845.562988
v 218.980591 156.996857 -839.426086
v 224.512329 127.633217 -834.860229
v 227.98407 97.1415405 -831.533813
v 229.121643 66.0158157 -829.210754
v 225.660522 34.3983536 -828.51355
v -31.5874023 68.894928 -717.390259
v -4.86187744 99.630127 -733.788086
v -41.5242615 106.40451 -738.634033
v 25.0568237 127.066948 -752.641479
v -11.7425232 140.228455 -756.912415
v -46.9480896 145.689178 -767.220093
v 57.5042114 150.812714 -773.949158
v 20.170166 167.919647 -776.842834
v -14.4607239 180.052795 -786.15094
v -49.3700256 184.29657 -798.586853
v 92.1685791 171.006134 -796.131409
v 54.0838013 190.015259 -797.994934
v 19.0657349 206.113708 -805.472961
v -15.3269348 216.897064 -816.24353
v -51.0251465 218.844421 -827.797485
v 128.676147 187.910645 -817.464478
v 90.3564453 207.588409 -818.451782
v 54.49646 225.652039 -824.546936
v 19.4680786 240.113892 -833.051636
v -16.0849304 248.134369 -842.491211
v -52.7024841 245.97113 -851.691772
v 165.761292 201.682953 -836.780701
v 128.841125 221.545471 -837.147034
v 92.6375122 240.238037 -842.095032
v 56.4825439 256.582062 -849.132263
v 19.9260864 267.835754 -856.112488
v -16.8410339 271.097046 -863.113953
v -53.4180298 263.592163 -869.636719
v -2.25466919 53.8655167 -715.32196
v 30.5784302 42.2061996 -723.490173
v 28.9994202 84.4667206 -735.012878
v 66.427002 34.193531 -739.502502
v 65.1536865 72.9474411 -745.682495
v 62.1066895 111.036354 -756.674011
v 104.251282 28.2072258 -760.146057
v 103.596619 64.574585 -762.533691
v 100.550842 98.9453049 -768.911133
v 96.8807983 134.078033 -779.647034
v 142.991211 21.6512642 -782.832642
v 143.94165 56.8675079 -782.963867
v 141.278137 89.3332596 -786.362976
v 137.598694 121.333794 -792.796753
v 133.65802 153.986237 -802.907471
v 180.695984 12.9255562 -806.29657
v 185.313232 47.1942787 -805.093689
v 184.398804 79.2003632 -806.854736
v 181.069763 110.087692 -810.703247
v 177.140442 140.603699 -816.626526
v 172.206055 170.959351 -825.269287
v -37.6936951 26.9171906 -700.268677
v -41.0319824 -13.1687202 -689.788452
v -5.21350098 12.1872139 -703.755981
v -42.7553101 -49.8892822 -687.061157
v -6.09866333 -25.3218613 -700.510071
v 29.6080933 2.58971214 -718.510132
v -43.13974 -82.4729767 -691.867188
v -6.38269043 -59.2730408 -704.503418
v 29.5956116 -32.7402573 -721.604614
v 66.1323853 -3.51604462 -739.991211
v -41.5871277 -110.495697 -703.282776
v -6.08450317 -90.2850342 -714.393311
v 29.462616 -65.6132431 -730.687805
v 66.0284424 -37.9704437 -747.672607
v 103.8797 -8.59438705 -764.600098
v -37.3291321 -133.979736 -720.487427
v -4.85803223 -118.603668 -729.919373
v 29.0498962 -97.1692657 -745.082031
v 64.994812 -71.3638458 -761.14386
v 102.836914 -43.3969879 -776.30011
v 141.832764 -15.0099869 -790.89386
v -62.453186 58.7601624 -715.896362
v -89.5556641 47.9177208 -720.077148
v -69.9648438 11.0946198 -696.390991
v -112.606323 36.7333679 -728.941895
v -97.1474609 -3.53533554 -699.882263
v -74.3255615 -31.9031219 -685.502869
v -131.759003 25.9256935 -741.980713
v -119.590027 -16.1384277 -709.998657
v -101.588531 -47.5653229 -690.359497
v -76.4943542 -69.3003769 -683.839355
v -147.662506 16.6689091 -759.121399
v -137.958801 -25.6521797 -726.620605
v -123.74057 -59.2314377 -703.625122
v -103.456665 -84.035965 -691.485901
v -76.1975403 -100.716339 -690.963074
v -160.915283 9.99885941 -780.027832
v -152.948914 -31.198864 -749.52478
v -141.482483 -66.0354767 -725.118835
v -124.741272 -93.5087662 -709.01416
v -101.627747 -113.34491 -702.345154
v -72.0844421 -126.277435 -705.802856
v -73.1983643 100.181572 -744.701233
v -78.6270752 141.389343 -778.310364
v -99.5118103 92.0159073 -754.523071
v -81.534729 179.638397 -810.804565
v -104.747009 133.458008 -790.281128
v -121.503021 81.8652344 -766.324158
v -84.119812 211.787964 -839.038757
v -108.461487 169.906738 -822.321655
v -127.19812 122.192741 -802.226196
v -140.159241 70.4029236 -779.915527
v -86.149292 235.142548 -861.654602
v -112.03421 198.690918 -849.683838
v -132.172455 155.849518 -833.723999
v -146.960419 108.443649 -815.246643
v -156.200928 58.99263 -796.282776
g 
f 3 1 2
f 5 2 4
f 6 3 5
f 8 4 7
f 9 5 8
f 10 6 9
f 12 7 11
f 13 8 12
f 14 9 13
f 15 10 14
f 17 11 16
f 18 12 17
f 19 13 18
f 20 14 19
f 21 15 20
f 23 16 22
f 24 17 23
f 25 18 24
f 26 19 25
f 27 20 26
f 28 21 27
f 30 22 29
f 31 23 30
f 32 24 31
f 33 25 32
f 34 26 33
f 35 27 34
f 36 28 35
f 3 2 5
f 5 4 8
f 6 5 9
f 8 7 12
f 9 8 13
f 10 9 14
f 12 11 17
f 13 12 18
f 14 13 19
f 15 14 20
f 17 16 23
f 18 17 24
f 19 18 25
f 20 19 26
f 21 20 27
f 23 22 30
f 24 23 31
f 25 24 32
f 26 25 33
f 27 26 34
f 28 27 35
f 37 1 3
f 38 3 6
f 39 37 38
f 40 6 10
f 41 38 40
f 42 39 41
f 43 10 15
f 44 40 43
f 45 41 44
f 46 42 45
f 47 15 21
f 48 43 47
f 49 44 48
f 50 45 49
f 51 46 50
f 52 21 28
f 53 47 52
f 54 48 53
f 55 49 54
f 56 50 55
f 57 51 56
f 58 28 36
f 59 52 58
f 60 53 59
f 61 54 60
f 62 55 61
f 63 56 62
f 64 57 63
f 37 3 38
f 38 6 40
f 39 38 41
f 40 10 43
f 41 40 44
f 42 41 45
f 43 15 47
f 44 43 48
f 45 44 49
f 46 45 50
f 47 21 52
f 48 47 53
f 49 48 54
f 50 49 55
f 51 50 56
f 52 28 58
f 53 52 59
f 54 53 60
f 55 54 61
f 56 55 62
f 57 56 63
f 65 1 37
f 66 37 39
f 67 65 66
f 68 39 42
f 69 66 68
f 70 67 69
f 71 42 46
f 72 68 71
f 73 69 72
f 74 70 73
f 75 46 51
f 76 71 75
f 77 72 76
f 78 73 77
f 79 74 78
f 80 51 57
f 81 75 80
f 82 76 81
f 83 77 82
f 84 78 83
f 85 79 84
f 86 57 64
f 87 80 86
f 88 81 87
f 89 82 88
f 90 83 89
f 91 84 90
f 92 85 91
f 65 37 66
f 66 39 68
f 67 66 69
f 68 42 71
f 69 68 72
f 70 69 73
f 71 46 75
f 72 71 76
f 73 72 77
f 74 73 78
f 75 51 80
f 76 75 81
f 77 76 82
f 78 77 83
f 79 78 84
f 80 57 86
f 81 80 87
f 82 81 88
f 83 82 89
f 84 83 90
f 85 84 91
f 93 1 65
f 94 65 67
f 95 93 94
f 96 67 70
f 97 94 96
f 98 95 97
f 99 70 74
f 100 96 99
f 101 97 100
f 102 98 101
f 103 74 79
f 104 99 103
f 105 100 104
f 106 101 105
f 107 102 106
f 108 79 85
f 109 103 108
f 110 104 109
f 111 105 110
f 112 106 111
f 113 107 112
f 114 85 92
f 115 108 114
f 116 109 115
f 117 110 116
f 118 111 117
f 119 112 118
f 120 113 119
f 93 65 94
f 94 67 96
f 95 94 97
f 96 70 99
f 97 96 100
f 98 97 101
f 99 74 103
f 100 99 104
f 101 100 105
f 102 101 106
f 103 79 108
f 104 103 109
f 105 104 110
f 106 105 111
f 107 106 112
f 108 85 114
f 109 108 115
f 110 109 116
f 111 110 117
f 112 111 118
f 113 112 119
f 2 1 93
f 121 93 95
f 4 2 121
f 122 95 98
f 123 121 122
f 7 4 123
f 124 98 102
f 125 122 124
f 126 123 125
f 11 7 126
f 127 102 107
f 128 124 127
f 129 125 128
f 130 126 129
f 16 11 130
f 131 107 113
f 132 127 131
f 133 128 132
f 134 129 133
f 135 130 134
f 22 16 135
f 136 113 120
f 137 131 136
f 138 132 137
f 139 133 138
f 140 134 139
f 141 135 140
f 29 22 141
f 2 93 121
f 121 95 122
f 4 121 123
f 122 98 124
f 123 122 125
f 7 123 126
f 124 102 127
f 125 124 128
f 126 125 129
f 11 126 130
f 127 107 131
f 128 127 132
f 129 128 133
f 130 129 134
f 16 130 135
f 131 113 136
f 132 131 137
f 133 132 138
f 134 133 139
f 135 134 140
f 22 135 141
f 142 29 141
f 143 141 140
f 144 142 143
f 145 140 139
f 146 143 145
f 147 144 146
f 148 139 138
f 149 145 148
f 150 146 149
f 151 147 150
f 152 138 137
f 153 148 152
f 154 149 153
f 155 150 154
f 156 151 155
f 157 137 136
f 158 152 157
f 159 153 158
f 160 154 159
f 161 155 160
f 162 156 161
f 163 136 120
f 164 157 163
f 165 158 164
f 166 159 165
f 167 160 166
f 168 161 167
f 169 162 168
f 142 141 143
f 143 140 145
f 144 143 146
f 145 139 148
f 146 145 149
f 147 146 150
f 148 138 152
f 149 148 153
f 150 149 154
f 151 150 155
f 152 137 157
f 153 152 158
f 154 153 159
f 155 154 160
f 156 155 161
f 157 136 163
f 158 157 164
f 159 158 165
f 160 159 166
f 161 160 167
f 162 161 168
f 170 120 119
f 171 119 118
f 172 170 171
f 173 118 117
f 174 171 173
f 175 172 174
f 176 117 116
f 177 173 176
f 178 174 177
f 179 175 178
f 180 116 115
f 181 176 180
f 182 177 181
f 183 178 182
f 184 179 183
f 185 115 114
f 186 180 185
f 187 181 186
f 188 182 187
f 189 183 188
f 190 184 189
f 191 114 92
f 192 185 191
f 193 186 192
f 194 187 193
f 195 188 194
f 196 189 195
f 197 190 196
f 170 119 171
f 171 118 173
f 172 171 174
f 173 117 176
f 174 173 177
f 175 174 178
f 176 116 180
f 177 176 181
f 178 177 182
f 179 178 183
f 180 115 185
f 181 180 186
f 182 181 187
f 183 182 188
f 184 183 189
f 185 114 191
f 186 185 192
f 187 186 193
f 188 187 194
f 189 188 195
f 190 189 196
f 198 92 91
f 199 91 90
f 200 198 199
f 201 90 89
f 202 199 201
f 203 200 202
f 204 89 88
f 205 201 204
f 206 202 205
f 207 203 206
f 208 88 87
f 209 204 208
f 210 205 209
f 211 206 210
f 212 207 211
f 213 87 86
f 214 208 213
f 215 209 214
f 216 210 215
f 217 211 216
f 218 212 217
f 219 86 64
f 220 213 219
f 221 214 220
f 222 215 221
f 223 216 222
f 224 217 223
f 225 218 224
f 198 91 199
f 199 90 201
f 200 199 202
f 201 89 204
f 202 201 205
f 203 202 206
f 204 88 208
f 205 204 209
f 206 205 210
f 207 206 211
f 208 87 213
f 209 208 214
f 210 209 215
f 211 210 216
f 212 211 217
f 213 86 219
f 214 213 220
f 215 214 221
f 216 215 222
f 217 216 223
f 218 217 224
f 226 64 63
f 227 63 62
f 228 226 227
f 229 62 61
f 230 227 229
f 231 228 230
f 232 61 60
f 233 229 232
f 234 230 233
f 235 231 234
f 236 60 59
f 237 232 236
f 238 233 237
f 239 234 238
f 240 235 239
f 241 59 58
f 242 236 241
f 243 237 242
f 244 238 243
f 245 239 244
f 246 240 245
f 247 58 36
f 248 241 247
f 249 242 248
f 250 243 249
f 251 244 250
f 252 245 251
f 253 246 252
f 226 63 227
f 227 62 229
f 228 227 230
f 229 61 232
f 230 229 233
f 231 230 234
f 232 60 236
f 233 232 237
f 234 233 238
f 235 234 239
f 236 59 241
f 237 236 242
f 238 237 243
f 239 238 244
f 240 239 245
f 241 58 247
f 242 241 248
f 243 242 249
f 244 243 250
f 245 244 251
f 246 245 252
f 254 36 35
f 255 35 34
f 256 254 255
f 257 34 33
f 258 255 257
f 259 256 258
f 260 33 32
f 261 257 260
f 262 258 261
f 263 259 262
f 264 32 31
f 265 260 264
f 266 261 265
f 267 262 266
f 268 263 267
f 269 31 30
f 270 264 269
f 271 265 270
f 272 266 271
f 273 267 272
f 274 268 273
f 275 30 29
f 276 269 275
f 277 270 276
f 278 271 277
f 279 272 278
f 280 273 279
f 281 274 280
f 254 35 255
f 255 34 257
f 256 255 258
f 257 33 260
f 258 257 261
f 259 258 262
f 260 32 264
f 261 260 265
f 262 261 266
f 263 262 267
f 264 31 269
f 265 264 270
f 266 265 271
f 267 266 272
f 268 267 273
f 269 30 275
f 270 269 276
f 271 270 277
f 272 271 278
f 273 272 279
f 274 273 280
f 275 29 142
f 282 142 144
f 276 275 282
f 283 144 147
f 284 282 283
f 277 276 284
f 285 147 151
f 286 283 285
f 287 284 286
f 278 277 287
f 288 151 156
f 289 285 288
f 290 286 289
f 291 287 290
f 279 278 291
f 292 156 162
f 293 288 292
f 294 289 293
f 295 290 294
f 296 291 295
f 280 279 296
f 297 162 169
f 298 292 297
f 299 293 298
f 300 294 299
f 301 295 300
f 302 296 301
f 281 280 302
f 275 142 282
f 282 144 283
f 276 282 284
f 283 147 285
f 284 283 286
f 277 284 287
f 285 151 288
f 286 285 289
f 287 286 290
f 278 287 291
f 288 156 292
f 289 288 293
f 290 289 294
f 291 290 295
f 279 291 296
f 292 162 297
f 293 292 298
f 294 293 299
f 295 294 300
f 296 295 301
f 280 296 302
f 163 120 170
f 303 170 172
f 164 163 303
f 304 172 175
f 305 303 304
f 165 164 305
f 306 175 179
f 307 304 306
f 308 305 307
f 166 165 308
f 309 179 184
f 310 306 309
f 311 307 310
f 312 308 311
f 167 166 312
f 313 184 190
f 314 309 313
f 315 310 314
f 316 311 315
f 317 312 316
f 168 167 317
f 318 190 197
f 319 313 318
f 320 314 319
f 321 315 320
f 322 316 321
f 323 317 322
f 169 168 323
f 163 170 303
f 303 172 304
f 164 303 305
f 304 175 306
f 305 304 307
f 165 305 308
f 306 179 309
f 307 306 310
f 308 307 311
f 166 308 312
f 309 184 313
f 310 309 314
f 311 310 315
f 312 311 316
f 167 312 317
f 313 190 318
f 314 313 319
f 315 314 320
f 316 315 321
f 317 316 322
f 168 317 323
f 191 92 198
f 324 198 200
f 192 191 324
f 325 200 203
f 326 324 325
f 193 192 326
f 327 203 207
f 328 325 327
f 329 326 328
f 194 193 329
f 330 207 212
f 331 327 330
f 332 328 331
f 333 329 332
f 195 194 333
f 334 212 218
f 335 330 334
f 336 331 335
f 337 332 336
f 338 333 337
f 196 195 338
f 339 218 225
f 340 334 339
f 341 335 340
f 342 336 341
f 343 337 342
f 344 338 343
f 197 196 344
f 191 198 324
f 324 200 325
f 192 324 326
f 325 203 327
f 326 325 328
f 193 326 329
f 327 207 330
f 328 327 331
f 329 328 332
f 194 329 333
f 330 212 334
f 331 330 335
f 332 331 336
f 333 332 337
f 195 333 338
f 334 218 339
f 335 334 340
f 336 335 341
f 337 336 342
f 338 337 343
f 196 338 344
f 219 64 226
f 345 226 228
f 220 219 345
f 346 228 231
f 347 345 346
f 221 220 347
f 348 231 235
f 349 346 348
f 350 347 349
f 222 221 350
f 351 235 240
f 352 348 351
f 353 349 352
f 354 350 353
f 223 222 354
f 355 240 246
f 356 351 355
f 357 352 356
f 358 353 357
f 359 354 358
f 224 223 359
f 360 246 253
f 361 355 360
f 362 356 361
f 363 357 362
f 364 358 363
f 365 359 364
f 225 224 365
f 219 226 345
f 345 228 346
f 220 345 347
f 346 231 348
f 347 346 349
f 221 347 350
f 348 235 351
f 349 348 352
f 350 349 353
f 222 350 354
f 351 240 355
f 352 351 356
f 353 352 357
f 354 353 358
f 223 354 359
f 355 246 360
f 356 355 361
f 357 356 362
f 358 357 363
f 359 358 364
f 224 359 365
f 247 36 254
f 366 254 256
f 248 247 366
f 367 256 259
f 368 366 367
f 249 248 368
f 369 259 263
f 370 367 369
f 371 368 370
f 250 249 371
f 372 263 268
f 373 369 372
f 374 370 373
f 375 371 374
f 251 250 375
f 376 268 274
f 377 372 376
f 378 373 377
f 379 374 378
f 380 375 379
f 252 251 380
f 381 274 281
f 382 376 381
f 383 377 382
f 384 378 383
f 385 379 384
f 386 380 385
f 253 252 386
f 247 254 366
f 366 256 367
f 248 366 368
f 367 259 369
f 368 367 370
f 249 368 371
f 369 263 372
f 370 369 373
f 371 370 374
f 250 371 375
f 372 268 376
f 373 372 377
f 374 373 378
f 375 374 379
f 251 375 380
f 376 274 381
f 377 376 382
f 378 377 383
f 379 378 384
f 380 379 385
f 252 380 386
f 389 387 388
f 391 388 390
f 392 389 391
f 394 390 393
f 395 391 394
f 396 392 395
f 398 393 397
f 399 394 398
f 400 395 399
f 401 396 400
f 403 397 402
f 404 398 403
f 405 399 404
f 406 400 405
f 407 401 406
f 409 402 408
f 410 403 409
f 411 404 410
f 412 405 411
f 413 406 412
f 414 407 413
f 302 408 281
f 301 409 302
f 300 410 301
f 299 411 300
f 298 412 299
f 297 413 298
f 169 414 297
f 389 388 391
f 391 390 394
f 392 391 395
f 394 393 398
f 395 394 399
f 396 395 400
f 398 397 403
f 399 398 404
f 400 399 405
f 401 400 406
f 403 402 409
f 404 403 410
f 405 404 411
f 406 405 412
f 407 406 413
f 409 408 302
f 410 409 301
f 411 410 300
f 412 411 299
f 413 412 298
f 414 413 297
f 388 387 415
f 417 415 416
f 390 388 417
f 419 416 418
f 420 417 419
f 393 390 420
f 422 418 421
f 423 419 422
f 424 420 423
f 397 393 424
f 426 421 425
f 427 422 426
f 428 423 427
f 429 424 428
f 402 397 429
f 431 425 430
f 432 426 431
f 433 427 432
f 434 428 433
f 435 429 434
f 408 402 435
f 386 430 253
f 385 431 386
f 384 432 385
f 383 433 384
f 382 434 383
f 381 435 382
f 281 408 381
f 388 415 417
f 417 416 419
f 390 417 420
f 419 418 422
f 420 419 423
f 393 420 424
f 422 421 426
f 423 422 427
f 424 423 428
f 397 424 429
f 426 425 431
f 427 426 432
f 428 427 433
f 429 428 434
f 402 429 435
f 431 430 386
f 432 431 385
f 433 432 384
f 434 433 383
f 435 434 382
f 408 435 381
f 415 387 436
f 438 436 437
f 416 415 438
f 440 437 439
f 441 438 440
f 418 416 441
f 443 439 442
f 444 440 443
f 445 441 444
f 421 418 445
f 447 442 446
f 448 443 447
f 449 444 448
f 450 445 449
f 425 421 450
f 452 446 451
f 453 447 452
f 454 448 453
f 455 449 454
f 456 450 455
f 430 425 456
f 365 451 225
f 364 452 365
f 363 453 364
f 362 454 363
f 361 455 362
f 360 456 361
f 253 430 360
f 415 436 438
f 438 437 440
f 416 438 441
f 440 439 443
f 441 440 444
f 418 441 445
f 443 442 447
f 444 443 448
f 445 444 449
f 421 445 450
f 447 446 452
f 448 447 453
f 449 448 454
f 450 449 455
f 425 450 456
f 452 451 365
f 453 452 364
f 454 453 363
f 455 454 362
f 456 455 361
f 430 456 360
f 436 387 457
f 459 457 458
f 437 436 459
f 461 458 460
f 462 459 461
f 439 437 462
f 464 460 463
f 465 461 464
f 466 462 465
f 442 439 466
f 468 463 467
f 469 464 468
f 470 465 469
f 471 466 470
f 446 442 471
f 473 467 472
f 474 468 473
f 475 469 474
f 476 470 475
f 477 471 476
f 451 446 477
f 344 472 197
f 343 473 344
f 342 474 343
f 341 475 342
f 340 476 341
f 339 477 340
f 225 451 339
f 436 457 459
f 459 458 461
f 437 459 462
f 461 460 464
f 462 461 465
f 439 462 466
f 464 463 468
f 465 464 469
f 466 465 470
f 442 466 471
f 468 467 473
f 469 468 474
f 470 469 475
f 471 470 476
f 446 471 477
f 473 472 344
f 474 473 343
f 475 474 342
f 476 475 341
f 477 476 340
f 451 477 339
f 457 387 389
f 478 389 392
f 458 457 478
f 479 392 396
f 480 478 479
f 460 458 480
f 481 396 401
f 482 479 481
f 483 480 482
f 463 460 483
f 484 401 407
f 485 481 484
f 486 482 485
f 487 483 486
f 467 463 487
f 488 407 414
f 489 484 488
f 490 485 489
f 491 486 490
f 492 487 491
f 472 467 492
f 323 414 169
f 322 488 323
f 321 489 322
f 320 490 321
f 319 491 320
f 318 492 319
f 197 472 318
f 457 389 478
f 478 392 479
f 458 478 480
f 479 396 481
f 480 479 482
f 460 480 483
f 481 401 484
f 482 481 485
f 483 482 486
f 463 483 487
f 484 407 488
f 485 484 489
f 486 485 490
f 487 486 491
f 467 487 492
f 488 414 323
f 489 488 322
f 490 489 321
f 491 490 320
f 492 491 319
f 472 492 318
