# File exported by Houdini 20.5.445 (www.sidefx.com)
# 492 points
# 2940 vertices
# 980 primitives
# Bounds: [-103.690308, -243.503036, -1070.39893] to [274.464233, 359.880127, -684.402039]
g 
v 104.07666 31.3625946 -1042.10571
v 110.693909 76.5616302 -1051.35181
v 128.515442 49.2025566 -1039.96338
v 120.790466 121.454468 -1059.98999
v 138.871216 97.8750763 -1049.45166
v 152.486694 66.2054749 -1036.68213
v 133.660645 164.748703 -1066.74414
v 152.235657 144.087143 -1058.34277
v 165.618713 117.04834 -1047.12427
v 175.688293 81.9167938 -1033.70801
v 147.357849 205.218735 -1069.65063
v 167.333801 187.465927 -1064.4978
v 180.908752 163.988297 -1056.44922
v 190.773254 134.016907 -1045.67285
v 197.903564 96.4799194 -1031.88647
v 159.022888 243.066437 -1068.25391
v 181.281616 228.101227 -1066.46484
v 196.613037 207.729416 -1062.21143
v 207.020142 181.500427 -1055.49194
v 214.166687 149.048599 -1045.47754
v 218.726196 110.366409 -1031.39868
v 166.396606 278.443451 -1062.80078
v 191.170837 266.569244 -1063.89844
v 209.507263 249.155579 -1063.27246
v 222.237732 225.92807 -1060.76587
v 230.411438 196.883026 -1055.42627
v 235.276367 162.612579 -1045.87964
v 237.336243 123.944855 -1031.54297
v 168.505981 310.233643 -1053.42041
v 195.128601 302.399841 -1056.18018
v 216.75885 288.357727 -1058.37402
v 233.161011 268.01239 -1059.6333
v 244.202087 241.588562 -1058.85327
v 250.442871 209.984375 -1054.48706
v 253.060425 174.6521 -1045.12915
v 252.788452 136.975464 -1030.77954
v 115.177673 -2.02917099 -1031.42017
v 139.891907 14.5395508 -1027.86035
v 127.17688 -34.2190056 -1019.81024
v 162.550903 29.7846527 -1023.33771
v 150.81958 -18.3271141 -1015.56049
v 138.206726 -65.1053391 -1006.94269
v 183.712891 44.120533 -1019.2818
v 171.346375 -3.74892426 -1009.94366
v 159.521301 -49.4294281 -1002.19293
v 146.467163 -94.2424316 -992.167175
v 203.928101 58.3843193 -1016.50726
v 190.309509 10.5029984 -1004.72882
v 177.58844 -34.696682 -995.460266
v 164.972412 -78.3209229 -986.811707
v 151.537659 -120.619965 -974.914612
v 223.305298 73.5699463 -1015.17926
v 208.894531 25.7861137 -1000.69843
v 194.774841 -19.5674744 -988.864075
v 181.067261 -62.8624344 -978.863708
v 167.727722 -104.212708 -968.727478
v 155.033813 -143.183228 -954.958679
v 241.348572 90.312561 -1014.47552
v 227.695679 43.5785561 -997.889221
v 212.859985 -2.072052 -983.019348
v 197.799072 -45.9411087 -970.416443
v 183.325928 -87.4875717 -959.216614
v 170.230774 -126.04129 -947.491516
v 159.818848 -160.872986 -932.325012
v 86.8985596 -7.30951691 -1034.5459
v 100.127258 -43.8087692 -1021.32416
v 71.8491821 -44.5268097 -1020.97174
v 113.524475 -76.7294922 -1007.23322
v 87.4442749 -81.4098663 -1004.73566
v 59.477478 -79.3394165 -1001.28571
v 125.010681 -107.075928 -991.772522
v 102.040405 -113.55687 -987.883118
v 77.3959351 -115.197906 -982.468811
v 50.3366699 -111.041092 -976.274963
v 133.559814 -135.120499 -974.004211
v 114.449524 -143.137512 -969.281433
v 93.9500122 -146.664688 -962.682556
v 71.3348389 -146.150803 -955.174011
v 45.7959595 -139.841446 -947.531555
v 140.279358 -160.328415 -952.871155
v 125.122986 -170.895355 -947.242737
v 108.937317 -176.449219 -939.816223
v 90.8157349 -177.888092 -931.765686
v 69.7043457 -174.871689 -923.953064
v 45.0541382 -165.420029 -917.573914
v 147.669434 -181.312012 -927.5755
v 135.784851 -195.642838 -920.022766
v 123.22229 -204.314148 -911.288513
v 108.730957 -207.922546 -902.939758
v 91.0089111 -206.607956 -895.87384
v 69.7069092 -199.68158 -890.772888
v 45.5206909 -185.662735 -888.136536
v 82.387207 41.51408 -1047.83984
v 62.0582886 0.758722305 -1037.22437
v 60.8150024 52.5765572 -1050.55078
v 45.3899536 -37.1084213 -1019.8598
v 38.9624023 10.315712 -1036.43604
v 39.3560181 64.5641479 -1049.43066
v 32.4651489 -71.4503937 -996.189758
v 21.7133789 -27.151825 -1014.88519
v 17.0420532 22.4186974 -1031.24731
v 17.3701782 77.4817047 -1043.70581
v 23.7940674 -102.116486 -967.466736
v 8.63684082 -59.9392242 -986.833557
v -0.296875 -13.2771225 -1005.17694
v -4.72424316 37.178936 -1021.1048
v -5.94628906 90.5746155 -1032.96924
v 20.131958 -129.918091 -936.291321
v 0.191589355 -89.3379669 -954.831482
v -13.6635132 -44.3761902 -973.447693
v -22.2526855 3.51518631 -991.382996
v -27.5617676 52.9858055 -1006.75775
v -30.2905884 102.871933 -1018.33014
v 20.3034668 -153.937836 -904.638855
v -3.02081299 -115.67836 -921.290222
v -22.2632446 -72.3563232 -938.660706
v -36.5464478 -26.1524353 -956.822205
v -46.0883179 21.2658577 -974.590759
v -52.3651733 68.1798706 -989.56427
v -54.2615356 114.158737 -1001.73944
v 88.9737549 90.9470062 -1057.8811
v 67.2721558 105.104553 -1060.27686
v 98.7730713 137.616791 -1065.94165
v 44.6541748 118.726379 -1058.12476
v 76.1322632 152.509293 -1066.75024
v 110.76416 180.561813 -1070.39893
v 20.0252686 130.91507 -1051.0127
v 51.5288696 165.704498 -1062.3125
v 86.7540283 194.945435 -1068.59644
v 123.093018 220.299469 -1070.29492
v -6.83166504 141.754776 -1038.6582
v 23.7766724 176.599274 -1052.57007
v 59.4744873 207.143524 -1061.28052
v 96.8161011 234.019012 -1065.521
v 132.887817 257.936005 -1065.66699
v -34.7072144 151.862198 -1021.90375
v -6.66253662 186.655319 -1037.31763
v 28.0562134 218.080475 -1048.0835
v 66.119751 246.39682 -1054.78027
v 103.608704 271.915253 -1057.43042
v 137.988892 293.798035 -1056.57446
v 147.475464 328.004028 -1042.97925
v 111.189636 308.143677 -1045.32129
v 121.613281 338.203857 -1029.7644
v 72.5075684 283.016571 -1044.09546
v 80.9249878 314.678467 -1030.73511
v 92.9439697 340.404236 -1013.45599
v 32.6704102 255.160065 -1038.74219
v 39.8884888 287.17511 -1026.92383
v 49.9053955 314.414185 -1012.25848
v 63.1069336 334.777405 -993.487488
v -5.90765381 224.398468 -1029.69873
v -0.715576172 256.978973 -1019.35541
v 7.87689209 284.808167 -1006.29462
v 19.2982788 307.080688 -990.251282
v 33.8760376 321.719543 -970.100037
v -39.6876221 189.450455 -1016.60968
v -38.574707 222.94043 -1008.03839
v -32.5298462 251.775513 -996.441956
v -22.5928955 275.352203 -982.015442
v -9.08184814 292.744812 -964.42865
v 7.48193359 302.660156 -943.557922
v -65.1171875 149.087692 -997.587585
v -69.8132935 182.695633 -991.058655
v -68.2990723 213.081375 -980.988342
v -61.0988159 238.737061 -967.764343
v -48.927124 258.715576 -951.881531
v -32.9451904 272.444 -933.662292
v -14.8158569 279.586639 -914.070007
v -75.4046021 96.8126373 -976.55426
v -70.3135376 45.9553871 -960.367615
v -89.7836914 79.9646454 -949.771301
v -59.7786255 -3.66705322 -942.33136
v -80.2697144 25.9969063 -931.72345
v -96.2573853 64.8553314 -922.052551
v -44.4546509 -51.8319931 -923.593079
v -65.227417 -24.8692398 -912.923523
v -83.0053711 9.81082535 -903.893982
v -96.5709229 52.1331825 -893.312439
v -23.8839722 -97.8612518 -905.709045
v -44.8238525 -72.9391022 -894.42926
v -64.2979126 -40.831459 -885.473572
v -80.8919678 -2.01799774 -876.055115
v -94.0233765 41.5674858 -863.083557
v 1.11767578 -140.856644 -888.508118
v -19.4934692 -118.563461 -876.21405
v -40.5502319 -88.3033905 -866.569763
v -60.1412964 -51.3235855 -857.631653
v -77.453186 -10.1727905 -846.408997
v -91.6348267 32.3194771 -831.092834
v 28.9329224 -179.007034 -870.934143
v 9.70562744 -161.130554 -856.974548
v -12.2592773 -133.373169 -845.892883
v -34.9331665 -97.6048889 -836.329041
v -56.5075684 -57.2089081 -826.216614
v -75.8140259 -16.0182877 -813.252625
v -90.6182861 23.7049065 -798.027893
v 60.0630493 -209.528809 -859.956726
v 86.1213379 -224.504059 -860.672058
v 71.0808716 -224.473038 -831.801331
v 107.205078 -230.728836 -864.72699
v 97.9594116 -238.768326 -831.677795
v 77.3894043 -228.9478 -804.56842
v 123.675171 -230.128403 -871.753967
v 118.848389 -243.133682 -835.826843
v 104.973328 -241.702103 -804.729797
v 79.2474365 -222.64032 -779.705872
v 136.808716 -223.202545 -881.350525
v 135.153809 -239.597122 -843.945007
v 126.517273 -243.503036 -809.994446
v 107.989197 -233.147049 -781.139954
v 78.0351562 -206.635452 -758.629456
v 148.393188 -209.406052 -892.696106
v 148.764343 -228.174759 -855.78241
v 144.158936 -235.979965 -820.123718
v 131.242615 -231.415054 -788.294128
v 108.229614 -213.720383 -762.062317
v 75.2763062 -183.231567 -742.111023
v 160.144836 -187.525467 -903.583191
v 161.701233 -207.273346 -870.22821
v 159.990662 -217.963318 -835.04303
v 151.348511 -217.972183 -801.259949
v 133.457458 -206.71167 -771.725525
v 106.25061 -185.053131 -748.068787
v 71.508728 -155.380035 -730.017273
v 172.350281 -151.8181 -919.694153
v 184.695679 -111.753708 -936.106628
v 186.548523 -135.198898 -908.270569
v 199.684082 -69.2868042 -949.700012
v 200.652954 -90.555191 -926.87262
v 200.760498 -111.694138 -898.375305
v 215.743652 -24.8240852 -963.78595
v 216.709229 -44.7528534 -942.919739
v 216.241943 -63.8065643 -919.2453
v 212.335205 -82.8054352 -889.690369
v 231.750244 21.6277313 -980.027039
v 233.212402 2.36100388 -960.110779
v 232.509521 -15.4931412 -937.76593
v 228.63501 -33.1506805 -912.536682
v 218.805725 -50.5159302 -881.874695
v 246.527161 70.1688232 -998.56073
v 248.915588 51.5385933 -979.870544
v 248.390747 34.1352806 -957.890808
v 244.399109 16.9818459 -933.308533
v 235.069336 -0.220409393 -906.148621
v 218.683533 -16.8856506 -874.740173
v 258.84613 120.526001 -1017.83173
v 262.310852 103.485397 -1001.21588
v 262.449463 86.4391785 -980.238953
v 258.497986 69.1518097 -955.409729
v 249.252747 51.4517632 -928.080994
v 234.019775 33.4754677 -899.075867
v 212.565369 16.4250336 -867.950745
v 265.132385 171.638565 -1036.89868
v 264.572937 212.224182 -1048.76807
v 272.023621 201.602905 -1036.23926
v 260.036499 248.069885 -1053.47241
v 268.875244 242.383209 -1043.08667
v 272.564819 225.307129 -1026.31421
v 250.373291 278.760895 -1053.28296
v 260.734192 277.257263 -1042.90967
v 265.656677 264.996887 -1027.79053
v 266.553345 242.684235 -1007.26251
v 234.761902 303.630615 -1050.39062
v 246.580994 306.641357 -1039.1394
v 252.88678 298.595947 -1023.88641
v 254.947205 280.867279 -1004.68463
v 253.868042 254.560486 -981.768616
v 212.912598 321.973389 -1046.47412
v 225.777161 330.139465 -1033.93774
v 233.460388 326.827393 -1017.7901
v 236.822021 313.108704 -998.326111
v 237.140442 290.77771 -976.491028
v 235.168701 261.77301 -953.389587
v 184.299988 332.867859 -1042.68726
v 196.914612 346.251282 -1028.95166
v 205.619568 348.522583 -1011.63177
v 210.392273 339.458313 -991.100159
v 212.315002 320.70459 -968.812805
v 212.446838 294.989136 -946.555481
v 211.15387 265.109955 -925.739319
v 161.190369 349.617615 -1027.92236
v 134.302612 356.295105 -1011.04254
v 171.313904 358.900513 -1009.33368
v 104.9328 353.167114 -991.796326
v 142.640747 359.880127 -988.588074
v 177.609558 355.549927 -987.285339
v 74.5848999 341.272156 -969.416199
v 112.301086 350.682068 -966.357727
v 147.71698 350.582275 -963.09198
v 181.117859 340.618713 -962.938904
v 44.9724121 321.769897 -943.251404
v 81.4724121 332.71759 -941.258972
v 116.906006 335.509399 -937.945251
v 150.91925 329.935364 -935.82074
v 183.025879 316.122681 -938.011047
v 17.4234619 296.017578 -913.10968
v 51.1535034 306.943665 -911.582214
v 85.6556396 311.29364 -909.494568
v 119.996704 308.737183 -907.551453
v 153.116333 299.465454 -908.344543
v 183.883606 284.401855 -914.196594
v -87.2526245 133.84642 -970.3703
v -99.7515259 119.335342 -941.443298
v -91.2785034 168.215256 -961.53009
v -103.690308 105.997971 -910.878479
v -101.301636 154.10997 -929.652283
v -88.2854614 197.993835 -948.865906
v -102.628662 93.4434967 -878.081848
v -103.338196 140.313126 -895.211853
v -96.2878418 183.040237 -913.843201
v -78.8967896 222.171753 -933.175232
v -100.41748 80.8213959 -842.599304
v -101.9328 125.957596 -857.502747
v -97.0150757 167.541977 -875.425232
v -85.0212402 205.608353 -895.126038
v -63.7752686 240.195251 -914.941956
v -98.7832031 67.4845428 -805.046692
v -100.082947 109.975693 -816.439148
v -95.3057861 150.15097 -832.563416
v -84.7687988 187.367737 -852.414856
v -67.930481 221.169418 -873.780457
v -44.2609863 251.629547 -894.676086
v 40.6369019 -197.883423 -840.722473
v 46.9862061 -204.781677 -812.036072
v 17.7251587 -172.918289 -826.281677
v 48.242981 -200.432251 -785.396179
v 19.6455078 -171.735046 -797.793884
v -7.90893555 -137.961426 -814.954529
v 45.8410034 -186.391312 -761.576599
v 16.9674072 -160.16069 -771.519226
v -9.63311768 -130.291733 -786.187439
v -34.1196899 -96.3753815 -804.396545
v 41.586731 -164.819595 -741.094177
v 11.2966919 -140.805283 -747.174744
v -15.6859741 -113.82547 -758.398254
v -39.2736816 -84.462738 -773.439758
v -59.3100586 -52.0988312 -791.779846
v 36.843689 -138.0802 -724.084167
v 4.55371094 -115.882797 -724.685364
v -24.0082397 -91.0204926 -730.772888
v -48.0948486 -64.9301529 -741.597229
v -67.168396 -37.3508301 -756.783508
v -81.1160278 -7.82200623 -775.811096
v 173.938354 -175.541611 -888.520935
v 186.855591 -154.965881 -875.614807
v 174.070007 -189.994553 -854.291199
v 197.084839 -127.456879 -864.762146
v 182.997498 -164.27739 -841.207458
v 168.375732 -194.358856 -819.482117
v 202.422546 -94.6095886 -855.316833
v 186.859131 -131.948807 -830.302429
v 170.982727 -163.016632 -806.971619
v 153.535522 -187.998276 -786.56488
v 200.985596 -58.0281906 -846.989807
v 183.557312 -94.2711334 -820.654968
v 166.048523 -125.301773 -796.205872
v 147.676392 -150.920929 -774.592224
v 127.821655 -170.90889 -757.677429
v 192.660889 -19.012661 -839.804749
v 172.22168 -52.0257721 -812.071594
v 151.727539 -81.5611801 -786.120789
v 131.477966 -106.975006 -763.362488
v 111.318604 -127.862839 -745.307434
v 91.1384888 -143.994354 -733.748596
v 270.177063 154.625198 -1021.54535
v 274.464233 181.714142 -1017.26984
v 271.427734 136.662384 -1001.35577
v 271.834106 201.931091 -1003.47565
v 272.175293 161.456543 -992.801208
v 268.007996 118.317169 -976.195129
v 262.601868 216.402176 -981.026306
v 265.501953 179.359207 -975.114197
v 264.123352 141.147079 -963.342957
v 258.854187 99.3017578 -947.07135
v 246.74353 226.181549 -952.924133
v 252.3172 191.591019 -949.539978
v 252.619446 156.795181 -941.771667
v 249.300232 119.838501 -929.976135
v 243.027161 79.0570984 -915.283142
v 223.581482 232.497223 -922.77594
v 231.261475 199.741852 -918.948181
v 233.297485 166.913559 -912.752869
v 230.835083 133.096603 -904.190125
v 225.780334 96.997879 -893.533142
v 219.421936 57.9879112 -881.14679
v 4.39794922 108.095306 -732.202209
v 38.9540405 132.827637 -762.627502
v -0.879455566 138.408768 -747.915833
v 74.6533813 156.835785 -793.32489
v 35.1487427 166.503082 -781.048157
v -4.56256104 167.706223 -768.132141
v 109.097473 180.184433 -821.525696
v 70.2528076 192.345688 -811.420349
v 31.5994873 197.990601 -801.348816
v -7.35308838 195.529831 -792.201721
v 140.650146 202.82695 -847.200989
v 102.844543 216.772736 -837.691956
v 65.2296753 225.102814 -830.300476
v 27.6082764 226.933807 -824.297791
v -10.0723267 221.291046 -820.033875
v 168.337708 224.721283 -872.191101
v 132.445862 240.24176 -861.708923
v 96.0943604 250.504089 -855.849426
v 59.6126709 255.09314 -852.552307
v 23.2507935 253.166595 -850.894226
v -12.7842407 244.397034 -850.405457
v 191.730652 245.677307 -898.134094
v 159.302307 262.96048 -886.413635
v 125.009399 275.305878 -880.830627
v 89.829834 281.957153 -879.413269
v 54.4316406 282.533661 -879.713196
v 19.4588623 276.476196 -880.718689
v -14.6762695 264.126373 -882.161682
v 32.5968018 92.9872437 -739.971375
v 63.0845947 78.6087189 -753.226501
v 72.2265625 118.468719 -773.314636
v 94.722229 64.9647369 -771.660339
v 104.879395 105.056152 -788.536438
v 110.388245 142.414383 -805.157776
v 127.080139 51.7765541 -793.882751
v 136.148132 92.6285706 -808.219299
v 143.265869 129.485596 -821.568054
v 145.317017 165.500397 -834.511292
v 159.116882 39.1029854 -818.238342
v 166.111389 80.9542999 -831.166565
v 173.217224 118.018661 -842.461365
v 177.374695 153.031769 -852.712097
v 176.271118 188.087936 -862.546082
v 188.560669 27.2606316 -843.319275
v 194.446533 69.6008911 -855.875793
v 200.732666 107.576797 -866.861633
v 205.700134 142.537231 -876.087585
v 206.943848 176.320404 -884.278748
v 202.465393 210.392609 -891.570129
v -9.57629395 73.0518494 -709.633972
v -16.5340576 37.3144417 -695.40802
v 20.7566528 54.9877892 -720.021545
v -14.1329346 0.960983276 -690.740051
v 17.6777954 17.6277542 -709.407288
v 53.6691284 38.8022194 -736.958435
v -1.72210693 -36.5848083 -694.206604
v 25.0983276 -20.2921486 -707.142273
v 55.0065308 -0.347988129 -729.342468
v 88.8139038 23.3143387 -758.570251
v 18.9616699 -75.7628708 -703.203552
v 41.9251099 -59.8682938 -711.499084
v 66.9347534 -40.6118088 -728.952942
v 94.6139526 -18.1121521 -753.37262
v 125.406311 8.13121796 -783.486145
v 44.8118286 -115.927124 -715.425232
v 65.3783569 -101.372986 -720.648132
v 87.09198 -83.0680542 -734.506775
v 110.128418 -61.1735077 -755.090271
v 134.897644 -35.6556931 -780.927795
v 161.256958 -6.24026489 -810.79303
v -29.9403076 101.145004 -714.778625
v -58.2893066 92.6707916 -706.06488
v -42.8239746 63.0366478 -693.710388
v -79.2667847 82.5797119 -707.690613
v -67.0114136 52.0888176 -690.020935
v -45.5792236 25.5629463 -684.402039
v -92.0759277 70.838974 -719.989807
v -82.4054565 39.7786598 -698.06781
v -64.095459 12.9483986 -687.110168
v -37.7138062 -12.1909485 -685.773743
v -97.0874634 57.3097801 -741.253967
v -89.1870117 25.927227 -716.670959
v -73.5626831 -1.43323517 -701.297668
v -50.4558716 -26.7069283 -694.223328
v -20.0913696 -51.6834183 -694.772522
v -95.9213867 41.6234856 -768.405334
v -88.149231 10.21595 -743.597839
v -74.31427 -17.9850845 -725.197937
v -53.8481445 -43.9707947 -713.329773
v -27.0990601 -69.0777283 -707.720642
v 5.72454834 -93.8093567 -708.129578
v -36.2987671 132.134964 -733.942932
v -39.4837036 160.831177 -758.908142
v -63.7649536 123.997284 -729.833313
v -41.0975342 187.445343 -788.756897
v -65.2820435 152.227921 -760.03656
v -82.9614868 114.019531 -736.189026
v -42.5351562 211.877579 -822.026062
v -65.6784058 177.976593 -794.759583
v -83.1229858 141.700562 -770.620422
v -94.3813477 101.885162 -752.11908
v -43.9430542 233.560699 -857.563782
v -66.6384888 201.202393 -832.832581
v -83.2489014 166.21582 -809.429016
v -94.3352051 128.191925 -789.786438
v -99.1891479 86.7164459 -775.877502
g 
f 3 1 2
f 5 2 4
f 6 3 5
f 8 4 7
f 9 5 8
f 10 6 9
f 12 7 11
f 13 8 12
f 14 9 13
f 15 10 14
f 17 11 16
f 18 12 17
f 19 13 18
f 20 14 19
f 21 15 20
f 23 16 22
f 24 17 23
f 25 18 24
f 26 19 25
f 27 20 26
f 28 21 27
f 30 22 29
f 31 23 30
f 32 24 31
f 33 25 32
f 34 26 33
f 35 27 34
f 36 28 35
f 3 2 5
f 5 4 8
f 6 5 9
f 8 7 12
f 9 8 13
f 10 9 14
f 12 11 17
f 13 12 18
f 14 13 19
f 15 14 20
f 17 16 23
f 18 17 24
f 19 18 25
f 20 19 26
f 21 20 27
f 23 22 30
f 24 23 31
f 25 24 32
f 26 25 33
f 27 26 34
f 28 27 35
f 37 1 3
f 38 3 6
f 39 37 38
f 40 6 10
f 41 38 40
f 42 39 41
f 43 10 15
f 44 40 43
f 45 41 44
f 46 42 45
f 47 15 21
f 48 43 47
f 49 44 48
f 50 45 49
f 51 46 50
f 52 21 28
f 53 47 52
f 54 48 53
f 55 49 54
f 56 50 55
f 57 51 56
f 58 28 36
f 59 52 58
f 60 53 59
f 61 54 60
f 62 55 61
f 63 56 62
f 64 57 63
f 37 3 38
f 38 6 40
f 39 38 41
f 40 10 43
f 41 40 44
f 42 41 45
f 43 15 47
f 44 43 48
f 45 44 49
f 46 45 50
f 47 21 52
f 48 47 53
f 49 48 54
f 50 49 55
f 51 50 56
f 52 28 58
f 53 52 59
f 54 53 60
f 55 54 61
f 56 55 62
f 57 56 63
f 65 1 37
f 66 37 39
f 67 65 66
f 68 39 42
f 69 66 68
f 70 67 69
f 71 42 46
f 72 68 71
f 73 69 72
f 74 70 73
f 75 46 51
f 76 71 75
f 77 72 76
f 78 73 77
f 79 74 78
f 80 51 57
f 81 75 80
f 82 76 81
f 83 77 82
f 84 78 83
f 85 79 84
f 86 57 64
f 87 80 86
f 88 81 87
f 89 82 88
f 90 83 89
f 91 84 90
f 92 85 91
f 65 37 66
f 66 39 68
f 67 66 69
f 68 42 71
f 69 68 72
f 70 69 73
f 71 46 75
f 72 71 76
f 73 72 77
f 74 73 78
f 75 51 80
f 76 75 81
f 77 76 82
f 78 77 83
f 79 78 84
f 80 57 86
f 81 80 87
f 82 81 88
f 83 82 89
f 84 83 90
f 85 84 91
f 93 1 65
f 94 65 67
f 95 93 94
f 96 67 70
f 97 94 96
f 98 95 97
f 99 70 74
f 100 96 99
f 101 97 100
f 102 98 101
f 103 74 79
f 104 99 103
f 105 100 104
f 106 101 105
f 107 102 106
f 108 79 85
f 109 103 108
f 110 104 109
f 111 105 110
f 112 106 111
f 113 107 112
f 114 85 92
f 115 108 114
f 116 109 115
f 117 110 116
f 118 111 117
f 119 112 118
f 120 113 119
f 93 65 94
f 94 67 96
f 95 94 97
f 96 70 99
f 97 96 100
f 98 97 101
f 99 74 103
f 100 99 104
f 101 100 105
f 102 101 106
f 103 79 108
f 104 103 109
f 105 104 110
f 106 105 111
f 107 106 112
f 108 85 114
f 109 108 115
f 110 109 116
f 111 110 117
f 112 111 118
f 113 112 119
f 2 1 93
f 121 93 95
f 4 2 121
f 122 95 98
f 123 121 122
f 7 4 123
f 124 98 102
f 125 122 124
f 126 123 125
f 11 7 126
f 127 102 107
f 128 124 127
f 129 125 128
f 130 126 129
f 16 11 130
f 131 107 113
f 132 127 131
f 133 128 132
f 134 129 133
f 135 130 134
f 22 16 135
f 136 113 120
f 137 131 136
f 138 132 137
f 139 133 138
f 140 134 139
f 141 135 140
f 29 22 141
f 2 93 121
f 121 95 122
f 4 121 123
f 122 98 124
f 123 122 125
f 7 123 126
f 124 102 127
f 125 124 128
f 126 125 129
f 11 126 130
f 127 107 131
f 128 127 132
f 129 128 133
f 130 129 134
f 16 130 135
f 131 113 136
f 132 131 137
f 133 132 138
f 134 133 139
f 135 134 140
f 22 135 141
f 142 29 141
f 143 141 140
f 144 142 143
f 145 140 139
f 146 143 145
f 147 144 146
f 148 139 138
f 149 145 148
f 150 146 149
f 151 147 150
f 152 138 137
f 153 148 152
f 154 149 153
f 155 150 154
f 156 151 155
f 157 137 136
f 158 152 157
f 159 153 158
f 160 154 159
f 161 155 160
f 162 156 161
f 163 136 120
f 164 157 163
f 165 158 164
f 166 159 165
f 167 160 166
f 168 161 167
f 169 162 168
f 142 141 143
f 143 140 145
f 144 143 146
f 145 139 148
f 146 145 149
f 147 146 150
f 148 138 152
f 149 148 153
f 150 149 154
f 151 150 155
f 152 137 157
f 153 152 158
f 154 153 159
f 155 154 160
f 156 155 161
f 157 136 163
f 158 157 164
f 159 158 165
f 160 159 166
f 161 160 167
f 162 161 168
f 170 120 119
f 171 119 118
f 172 170 171
f 173 118 117
f 174 171 173
f 175 172 174
f 176 117 116
f 177 173 176
f 178 174 177
f 179 175 178
f 180 116 115
f 181 176 180
f 182 177 181
f 183 178 182
f 184 179 183
f 185 115 114
f 186 180 185
f 187 181 186
f 188 182 187
f 189 183 188
f 190 184 189
f 191 114 92
f 192 185 191
f 193 186 192
f 194 187 193
f 195 188 194
f 196 189 195
f 197 190 196
f 170 119 171
f 171 118 173
f 172 171 174
f 173 117 176
f 174 173 177
f 175 174 178
f 176 116 180
f 177 176 181
f 178 177 182
f 179 178 183
f 180 115 185
f 181 180 186
f 182 181 187
f 183 182 188
f 184 183 189
f 185 114 191
f 186 185 192
f 187 186 193
f 188 187 194
f 189 188 195
f 190 189 196
f 198 92 91
f 199 91 90
f 200 198 199
f 201 90 89
f 202 199 201
f 203 200 202
f 204 89 88
f 205 201 204
f 206 202 205
f 207 203 206
f 208 88 87
f 209 204 208
f 210 205 209
f 211 206 210
f 212 207 211
f 213 87 86
f 214 208 213
f 215 209 214
f 216 210 215
f 217 211 216
f 218 212 217
f 219 86 64
f 220 213 219
f 221 214 220
f 222 215 221
f 223 216 222
f 224 217 223
f 225 218 224
f 198 91 199
f 199 90 201
f 200 199 202
f 201 89 204
f 202 201 205
f 203 202 206
f 204 88 208
f 205 204 209
f 206 205 210
f 207 206 211
f 208 87 213
f 209 208 214
f 210 209 215
f 211 210 216
f 212 211 217
f 213 86 219
f 214 213 220
f 215 214 221
f 216 215 222
f 217 216 223
f 218 217 224
f 226 64 63
f 227 63 62
f 228 226 227
f 229 62 61
f 230 227 229
f 231 228 230
f 232 61 60
f 233 229 232
f 234 230 233
f 235 231 234
f 236 60 59
f 237 232 236
f 238 233 237
f 239 234 238
f 240 235 239
f 241 59 58
f 242 236 241
f 243 237 242
f 244 238 243
f 245 239 244
f 246 240 245
f 247 58 36
f 248 241 247
f 249 242 248
f 250 243 249
f 251 244 250
f 252 245 251
f 253 246 252
f 226 63 227
f 227 62 229
f 228 227 230
f 229 61 232
f 230 229 233
f 231 230 234
f 232 60 236
f 233 232 237
f 234 233 238
f 235 234 239
f 236 59 241
f 237 236 242
f 238 237 243
f 239 238 244
f 240 239 245
f 241 58 247
f 242 241 248
f 243 242 249
f 244 243 250
f 245 244 251
f 246 245 252
f 254 36 35
f 255 35 34
f 256 254 255
f 257 34 33
f 258 255 257
f 259 256 258
f 260 33 32
f 261 257 260
f 262 258 261
f 263 259 262
f 264 32 31
f 265 260 264
f 266 261 265
f 267 262 266
f 268 263 267
f 269 31 30
f 270 264 269
f 271 265 270
f 272 266 271
f 273 267 272
f 274 268 273
f 275 30 29
f 276 269 275
f 277 270 276
f 278 271 277
f 279 272 278
f 280 273 279
f 281 274 280
f 254 35 255
f 255 34 257
f 256 255 258
f 257 33 260
f 258 257 261
f 259 258 262
f 260 32 264
f 261 260 265
f 262 261 266
f 263 262 267
f 264 31 269
f 265 264 270
f 266 265 271
f 267 266 272
f 268 267 273
f 269 30 275
f 270 269 276
f 271 270 277
f 272 271 278
f 273 272 279
f 274 273 280
f 275 29 142
f 282 142 144
f 276 275 282
f 283 144 147
f 284 282 283
f 277 276 284
f 285 147 151
f 286 283 285
f 287 284 286
f 278 277 287
f 288 151 156
f 289 285 288
f 290 286 289
f 291 287 290
f 279 278 291
f 292 156 162
f 293 288 292
f 294 289 293
f 295 290 294
f 296 291 295
f 280 279 296
f 297 162 169
f 298 292 297
f 299 293 298
f 300 294 299
f 301 295 300
f 302 296 301
f 281 280 302
f 275 142 282
f 282 144 283
f 276 282 284
f 283 147 285
f 284 283 286
f 277 284 287
f 285 151 288
f 286 285 289
f 287 286 290
f 278 287 291
f 288 156 292
f 289 288 293
f 290 289 294
f 291 290 295
f 279 291 296
f 292 162 297
f 293 292 298
f 294 293 299
f 295 294 300
f 296 295 301
f 280 296 302
f 163 120 170
f 303 170 172
f 164 163 303
f 304 172 175
f 305 303 304
f 165 164 305
f 306 175 179
f 307 304 306
f 308 305 307
f 166 165 308
f 309 179 184
f 310 306 309
f 311 307 310
f 312 308 311
f 167 166 312
f 313 184 190
f 314 309 313
f 315 310 314
f 316 311 315
f 317 312 316
f 168 167 317
f 318 190 197
f 319 313 318
f 320 314 319
f 321 315 320
f 322 316 321
f 323 317 322
f 169 168 323
f 163 170 303
f 303 172 304
f 164 303 305
f 304 175 306
f 305 304 307
f 165 305 308
f 306 179 309
f 307 306 310
f 308 307 311
f 166 308 312
f 309 184 313
f 310 309 314
f 311 310 315
f 312 311 316
f 167 312 317
f 313 190 318
f 314 313 319
f 315 314 320
f 316 315 321
f 317 316 322
f 168 317 323
f 191 92 198
f 324 198 200
f 192 191 324
f 325 200 203
f 326 324 325
f 193 192 326
f 327 203 207
f 328 325 327
f 329 326 328
f 194 193 329
f 330 207 212
f 331 327 330
f 332 328 331
f 333 329 332
f 195 194 333
f 334 212 218
f 335 330 334
f 336 331 335
f 337 332 336
f 338 333 337
f 196 195 338
f 339 218 225
f 340 334 339
f 341 335 340
f 342 336 341
f 343 337 342
f 344 338 343
f 197 196 344
f 191 198 324
f 324 200 325
f 192 324 326
f 325 203 327
f 326 325 328
f 193 326 329
f 327 207 330
f 328 327 331
f 329 328 332
f 194 329 333
f 330 212 334
f 331 330 335
f 332 331 336
f 333 332 337
f 195 333 338
f 334 218 339
f 335 334 340
f 336 335 341
f 337 336 342
f 338 337 343
f 196 338 344
f 219 64 226
f 345 226 228
f 220 219 345
f 346 228 231
f 347 345 346
f 221 220 347
f 348 231 235
f 349 346 348
f 350 347 349
f 222 221 350
f 351 235 240
f 352 348 351
f 353 349 352
f 354 350 353
f 223 222 354
f 355 240 246
f 356 351 355
f 357 352 356
f 358 353 357
f 359 354 358
f 224 223 359
f 360 246 253
f 361 355 360
f 362 356 361
f 363 357 362
f 364 358 363
f 365 359 364
f 225 224 365
f 219 226 345
f 345 228 346
f 220 345 347
f 346 231 348
f 347 346 349
f 221 347 350
f 348 235 351
f 349 348 352
f 350 349 353
f 222 350 354
f 351 240 355
f 352 351 356
f 353 352 357
f 354 353 358
f 223 354 359
f 355 246 360
f 356 355 361
f 357 356 362
f 358 357 363
f 359 358 364
f 224 359 365
f 247 36 254
f 366 254 256
f 248 247 366
f 367 256 259
f 368 366 367
f 249 248 368
f 369 259 263
f 370 367 369
f 371 368 370
f 250 249 371
f 372 263 268
f 373 369 372
f 374 370 373
f 375 371 374
f 251 250 375
f 376 268 274
f 377 372 376
f 378 373 377
f 379 374 378
f 380 375 379
f 252 251 380
f 381 274 281
f 382 376 381
f 383 377 382
f 384 378 383
f 385 379 384
f 386 380 385
f 253 252 386
f 247 254 366
f 366 256 367
f 248 366 368
f 367 259 369
f 368 367 370
f 249 368 371
f 369 263 372
f 370 369 373
f 371 370 374
f 250 371 375
f 372 268 376
f 373 372 377
f 374 373 378
f 375 374 379
f 251 375 380
f 376 274 381
f 377 376 382
f 378 377 383
f 379 378 384
f 380 379 385
f 252 380 386
f 389 387 388
f 391 388 390
f 392 389 391
f 394 390 393
f 395 391 394
f 396 392 395
f 398 393 397
f 399 394 398
f 400 395 399
f 401 396 400
f 403 397 402
f 404 398 403
f 405 399 404
f 406 400 405
f 407 401 406
f 409 402 408
f 410 403 409
f 411 404 410
f 412 405 411
f 413 406 412
f 414 407 413
f 302 408 281
f 301 409 302
f 300 410 301
f 299 411 300
f 298 412 299
f 297 413 298
f 169 414 297
f 389 388 391
f 391 390 394
f 392 391 395
f 394 393 398
f 395 394 399
f 396 395 400
f 398 397 403
f 399 398 404
f 400 399 405
f 401 400 406
f 403 402 409
f 404 403 410
f 405 404 411
f 406 405 412
f 407 406 413
f 409 408 302
f 410 409 301
f 411 410 300
f 412 411 299
f 413 412 298
f 414 413 297
f 388 387 415
f 417 415 416
f 390 388 417
f 419 416 418
f 420 417 419
f 393 390 420
f 422 418 421
f 423 419 422
f 424 420 423
f 397 393 424
f 426 421 425
f 427 422 426
f 428 423 427
f 429 424 428
f 402 397 429
f 431 425 430
f 432 426 431
f 433 427 432
f 434 428 433
f 435 429 434
f 408 402 435
f 386 430 253
f 385 431 386
f 384 432 385
f 383 433 384
f 382 434 383
f 381 435 382
f 281 408 381
f 388 415 417
f 417 416 419
f 390 417 420
f 419 418 422
f 420 419 423
f 393 420 424
f 422 421 426
f 423 422 427
f 424 423 428
f 397 424 429
f 426 425 431
f 427 426 432
f 428 427 433
f 429 428 434
f 402 429 435
f 431 430 386
f 432 431 385
f 433 432 384
f 434 433 383
f 435 434 382
f 408 435 381
f 415 387 436
f 438 436 437
f 416 415 438
f 440 437 439
f 441 438 440
f 418 416 441
f 443 439 442
f 444 440 443
f 445 441 444
f 421 418 445
f 447 442 446
f 448 443 447
f 449 444 448
f 450 445 449
f 425 421 450
f 452 446 451
f 453 447 452
f 454 448 453
f 455 449 454
f 456 450 455
f 430 425 456
f 365 451 225
f 364 452 365
f 363 453 364
f 362 454 363
f 361 455 362
f 360 456 361
f 253 430 360
f 415 436 438
f 438 437 440
f 416 438 441
f 440 439 443
f 441 440 444
f 418 441 445
f 443 442 447
f 444 443 448
f 445 444 449
f 421 445 450
f 447 446 452
f 448 447 453
f 449 448 454
f 450 449 455
f 425 450 456
f 452 451 365
f 453 452 364
f 454 453 363
f 455 454 362
f 456 455 361
f 430 456 360
f 436 387 457
f 459 457 458
f 437 436 459
f 461 458 460
f 462 459 461
f 439 437 462
f 464 460 463
f 465 461 464
f 466 462 465
f 442 439 466
f 468 463 467
f 469 464 468
f 470 465 469
f 471 466 470
f 446 442 471
f 473 467 472
f 474 468 473
f 475 469 474
f 476 470 475
f 477 471 476
f 451 446 477
f 344 472 197
f 343 473 344
f 342 474 343
f 341 475 342
f 340 476 341
f 339 477 340
f 225 451 339
f 436 457 459
f 459 458 461
f 437 459 462
f 461 460 464
f 462 461 465
f 439 462 466
f 464 463 468
f 465 464 469
f 466 465 470
f 442 466 471
f 468 467 473
f 469 468 474
f 470 469 475
f 471 470 476
f 446 471 477
f 473 472 344
f 474 473 343
f 475 474 342
f 476 475 341
f 477 476 340
f 451 477 339
f 457 387 389
f 478 389 392
f 458 457 478
f 479 392 396
f 480 478 479
f 460 458 480
f 481 396 401
f 482 479 481
f 483 480 482
f 463 460 483
f 484 401 407
f 485 481 484
f 486 482 485
f 487 483 486
f 467 463 487
f 488 407 414
f 489 484 488
f 490 485 489
f 491 486 490
f 492 487 491
f 472 467 492
f 323 414 169
f 322 488 323
f 321 489 322
f 320 490 321
f 319 491 320
f 318 492 319
f 197 472 318
f 457 389 478
f 478 392 479
f 458 478 480
f 479 396 481
f 480 479 482
f 460 480 483
f 481 401 484
f 482 481 485
f 483 482 486
f 463 483 487
f 484 407 488
f 485 484 489
f 486 485 490
f 487 486 491
f 467 487 492
f 488 414 323
f 489 488 322
f 490 489 321
f 491 490 320
f 492 491 319
f 472 492 318
