# File exported by Houdini 20.5.445 (www.sidefx.com)
# 492 points
# 2940 vertices
# 980 primitives
# Bounds: [-95.7563934, -141.969788, -1138.97729] to [266.530304, 258.346893, -615.82373]
g 
v 137.922028 154.514587 -1134.67188
v 133.202728 181.813049 -1120.07727
v 166.967926 167.389465 -1127.18994
v 128.618683 205.837433 -1094.21765
v 161.846344 195.986664 -1105.88879
v 192.742401 176.913727 -1111.23193
v 125.283417 226.038391 -1058.14575
v 156.692413 218.970551 -1073.02539
v 186.194672 204.615601 -1082.72058
v 214.371368 180.497894 -1086.73376
v 122.107025 241.927917 -1013.70465
v 151.533722 236.50769 -1030.20508
v 179.37619 224.737701 -1042.91309
v 206.197784 205.43869 -1051.48645
v 231.863617 176.621277 -1055.16321
v 116.879608 252.619446 -962.804504
v 145.032684 248.921143 -979.170715
v 171.639252 238.662231 -993.518799
v 197.355499 221.976074 -1005.7489
v 222.090546 197.993958 -1014.69598
v 244.821808 165.638184 -1018.85315
v 108.327118 257.603943 -907.43573
v 135.616119 256.01416 -921.568542
v 161.774445 247.652863 -936.063293
v 186.850861 232.462891 -950.41333
v 210.861969 210.86792 -963.807007
v 233.245453 183.089996 -974.375122
v 252.180084 149.355301 -979.797119
v 95.8524323 258.346893 -852.132385
v 121.621246 258.15564 -860.502625
v 147.516632 251.551453 -872.051819
v 172.603729 238.084991 -886.770142
v 196.490387 217.910431 -903.168762
v 218.737091 192.251282 -919.163147
v 238.313385 162.748291 -932.271484
v 253.1008 130.701202 -940.117371
v 159.700348 132.849182 -1137.97595
v 191.903351 143.621414 -1128.23218
v 179.542572 108.422882 -1134.90125
v 218.125031 149.343002 -1109.52771
v 212.429657 116.116447 -1121.63428
v 195.66922 80.8105087 -1126.53149
v 238.197845 148.286011 -1082.63208
v 237.004181 117.49157 -1099.4303
v 226.741486 84.3928452 -1109.01636
v 205.930084 49.6537476 -1112.95825
v 252.650238 140.250198 -1049.12756
v 254.098236 112.020599 -1069.61292
v 247.960358 81.1962585 -1083.02698
v 233.25766 48.5167999 -1091.14343
v 209.065399 15.4184427 -1093.60083
v 261.313263 126.175995 -1010.16711
v 263.969513 100.245819 -1032.65967
v 260.358429 71.4760132 -1049.0769
v 249.574127 40.8406448 -1060.79614
v 231.15683 9.65927887 -1067.54883
v 205.666534 -20.140625 -1068.08496
v 263.000946 108.310188 -967.01062
v 266.530304 83.6754761 -988.953064
v 263.835419 56.5102463 -1006.63983
v 255.28952 27.5415688 -1020.99805
v 240.827423 -1.72107697 -1031.56885
v 221.006805 -29.5625839 -1037.03577
v 197.58194 -54.0715637 -1036.20251
v 119.389374 127.994507 -1138.24316
v 139.226349 102.626495 -1138.97729
v 97.0929718 102.380386 -1134.61951
v 156.417755 76.293541 -1134.1825
v 115.133881 75.2753143 -1132.96924
v 73.2744293 78.2324905 -1123.77112
v 169.617279 48.0416107 -1124.49866
v 130.339691 48.2510605 -1126.17651
v 90.3690338 50.4999847 -1119.38806
v 51.0943756 54.9907455 -1104.76221
v 177.265106 16.893404 -1108.547
v 141.675079 19.5692863 -1113.57336
v 104.59726 22.9224892 -1109.18335
v 68.024704 26.9562111 -1096.51855
v 33.0685577 31.7454357 -1077.1803
v 179.147919 -17.3741302 -1084.64819
v 148.444244 -12.3940315 -1092.61389
v 115.585785 -6.99071884 -1091.23718
v 82.4551849 -1.83973503 -1080.88757
v 50.5567474 3.0956459 -1063.50098
v 20.350296 7.92184067 -1042.1781
v 176.442902 -53.3921509 -1051.41602
v 151.24527 -48.4140167 -1060.42542
v 123.515045 -41.4914551 -1061.52869
v 94.7833099 -34.4980316 -1054.19165
v 66.2700043 -28.0267258 -1039.6886
v 38.6955414 -21.8234978 -1021.04797
v 12.3150787 -15.5427628 -1002.021
v 105.242645 157.847229 -1128.91797
v 82.9315033 131.173935 -1130.29578
v 73.7060089 160.165802 -1116.41016
v 58.8264008 106.257866 -1123.0033
v 49.8321686 133.258667 -1115.75415
v 45.8206329 161.372192 -1097.78821
v 35.7229156 82.1515503 -1107.37634
v 26.0537262 107.834816 -1105.19849
v 22.0269928 133.388535 -1095.38733
v 23.2220001 160.425201 -1074.43188
v 16.1266632 57.5882645 -1083.16052
v 4.79100037 82.1358032 -1085.56909
v -0.306167603 106.327621 -1082.10925
v 0.786209106 130.904816 -1070.33728
v 6.45448303 156.438293 -1048.21008
v 1.52293396 31.7859135 -1050.43909
v -12.0292816 55.1245346 -1056.59509
v -19.0883331 78.5668182 -1058.57178
v -19.3549347 102.173271 -1054.15039
v -13.8546295 125.780769 -1041.73596
v -5.05552673 149.407211 -1020.62878
v -7.78007507 5.16685295 -1009.93744
v -23.3299408 26.7315655 -1017.69275
v -32.852951 49.3682022 -1023.5144
v -35.4374847 72.6234818 -1025.26624
v -31.5036469 95.8249969 -1020.98022
v -23.0874481 118.293396 -1009.82648
v -13.0385895 139.753098 -991.967407
v 99.8411407 185.515961 -1109.00024
v 70.4707184 187.530518 -1091.05859
v 96.7376556 208.914978 -1077.93103
v 46.1176605 187.805237 -1068.09949
v 70.1902008 210.040802 -1055.80444
v 95.6410675 228.081909 -1038.07666
v 26.8454742 185.095032 -1042.1134
v 48.3480072 208.684204 -1030.12354
v 70.9526825 227.640503 -1013.30103
v 93.9529266 242.522614 -991.330383
v 12.3071442 178.347107 -1014.46521
v 30.6172333 203.509949 -1002.28748
v 49.9911346 224.011658 -985.259277
v 69.7673492 239.593109 -963.720459
v 89.2433319 250.938782 -937.623352
v 1.27281189 167.081207 -985.538696
v 15.9434967 192.758636 -972.699829
v 31.3618927 214.714264 -954.301697
v 47.4053192 231.633514 -931.379578
v 63.5366669 244.259247 -905.70874
v 79.640152 253.39801 -878.820557
v 70.6838226 253.841278 -817.1427
v 54.537735 244.836548 -844.797791
v 45.2400665 244.540375 -788.142029
v 40.0147552 232.151306 -873.182678
v 30.710556 230.888397 -818.320007
v 21.4395294 230.325378 -765.571289
v 26.7498932 216.694672 -901.300293
v 18.7409821 214.334839 -849.123535
v 9.19917297 212.071045 -798.399109
v 1.42140198 212.473206 -748.846375
v 14.1666718 197.173737 -926.735657
v 8.15711975 195.456116 -878.952515
v -0.424179077 191.912506 -830.776978
v -9.06874084 190.56778 -783.327576
v -15.265274 192.156097 -737.129272
v 1.65394592 172.728363 -946.676453
v -2.14930725 172.863068 -904.924316
v -9.445755 169.789459 -860.736755
v -18.1064911 167.291046 -816.016785
v -25.6378021 167.768494 -772.062012
v -30.3123627 169.654755 -729.779968
v -11.8157196 144.601318 -959.456543
v -13.941452 145.697113 -923.908997
v -20.3526764 143.552277 -885.487549
v -28.8654633 141.203827 -845.260437
v -36.7474518 141.185623 -804.567383
v -42.3357391 143.189041 -764.444153
v -44.996109 145.073441 -726.033691
v -25.9977264 116.112877 -973.005676
v -36.6640778 92.6583023 -985.100281
v -39.0641632 92.172348 -949.258484
v -43.9457855 68.806221 -989.385071
v -48.0083466 68.2077637 -955.066956
v -53.0039825 68.32341 -920.597107
v -45.4732208 44.82798 -987.412842
v -52.573288 44.1446915 -953.237305
v -58.7927399 44.8127289 -920.077087
v -66.5905304 46.0819244 -886.570862
v -39.8092194 21.1022549 -981.342529
v -50.4600677 19.737278 -946.816528
v -58.7841644 20.5806236 -913.607788
v -67.5105743 22.3921833 -881.157227
v -77.0917816 25.5713654 -848.376892
v -26.3535919 -1.80867195 -973.157349
v -40.2985687 -5.00175476 -938.077393
v -51.2275238 -5.00643158 -904.252014
v -61.337265 -2.98166656 -871.524963
v -71.8795929 0.641887665 -839.677002
v -82.4530182 6.02096176 -808.208252
v -5.73698425 -24.1823425 -964.821777
v -20.7968292 -29.743309 -928.401917
v -33.9421844 -32.0076065 -893.372314
v -46.205246 -31.0376091 -859.737671
v -58.395401 -27.2180748 -827.450439
v -70.7115021 -21.2084885 -796.821899
v -81.8315277 -13.0350609 -768.504517
v 23.4968719 -41.7771225 -970.52063
v 52.2476654 -50.9628143 -989.269165
v 37.1404266 -67.1309128 -937.338013
v 79.7169037 -59.5288773 -1006.1438
v 66.47435 -78.0755692 -955.164429
v 51.5653229 -90.8288345 -902.178406
v 105.977142 -68.0581589 -1017.80383
v 92.6934052 -88.0064316 -969.31311
v 79.7881317 -102.318748 -917.963135
v 64.6069489 -111.381416 -864.798706
v 131.174835 -76.4119492 -1022.24829
v 116.461151 -97.365593 -977.522034
v 103.782501 -112.259575 -928.64447
v 91.0234833 -122.174019 -877.482605
v 74.7481842 -127.113701 -825.960022
v 155.132782 -82.9285278 -1018.9021
v 138.572113 -105.220757 -978.804932
v 125.10379 -120.747704 -933.161499
v 112.910858 -130.647278 -884.36377
v 99.5003204 -135.952026 -835.082397
v 81.8004608 -136.763031 -787.858643
v 177.150055 -84.5337067 -1008.34937
v 159.538605 -108.615105 -973.012146
v 145.083954 -125.600349 -931.314209
v 132.645294 -135.933075 -885.453064
v 120.223541 -140.957031 -838.504272
v 105.494965 -141.969788 -793.68689
v 86.7707062 -139.605774 -753.543152
v 200.479828 -69.5684967 -1002.01361
v 221.856232 -42.9994507 -999.205688
v 199.227386 -78.5415344 -965.200867
v 239.197357 -14.3432579 -990.013245
v 217.887848 -50.1781464 -959.827576
v 195.615204 -81.052681 -927.224792
v 251.878876 14.909668 -976.679993
v 232.709625 -21.0195236 -948.352539
v 210.90097 -51.696106 -920.233093
v 189.249054 -77.082077 -889.432983
v 259.384186 43.8095093 -960.59906
v 243.379852 8.50775337 -933.447876
v 222.819305 -21.9142303 -907.499634
v 200.707855 -46.9309921 -881.586548
v 180.022125 -67.3272018 -853.067688
v 260.856354 71.7447662 -941.744934
v 249.119415 38.2791138 -916.197144
v 230.942047 8.64234352 -891.536987
v 209.264496 -16.1775169 -867.976501
v 187.300446 -36.4486694 -844.46405
v 168.181976 -53.5108032 -818.684692
v 254.684601 98.8460236 -918.333435
v 247.916351 68.4792175 -895.585449
v 233.564484 40.5299988 -872.628723
v 213.728485 16.1297188 -850.456665
v 191.476959 -4.37419891 -829.370239
v 170.707306 -22.0033035 -808.536377
v 153.99765 -37.6924667 -786.264954
v 240.753143 132.473022 -897.346008
v 222.753998 165.846039 -882.132874
v 223.248993 135.217377 -855.237183
v 201.094269 195.972015 -862.849304
v 202.645172 169.593048 -835.147461
v 201.707062 139.203674 -815.145935
v 177.327606 221.248688 -842.502563
v 178.990265 199.351654 -811.990051
v 178.774139 173.262665 -791.799683
v 177.087799 143.471146 -777.402039
v 151.737579 240.322418 -824.370056
v 153.027496 223.488678 -789.489929
v 152.790192 201.923096 -766.092773
v 152.029388 176.198822 -751.289429
v 150.599762 146.624359 -741.550049
v 124.3237 252.487793 -811.385376
v 124.551361 241.197815 -772.128967
v 123.619171 224.646912 -743.622986
v 123.115509 203.10791 -724.964478
v 123.74234 177.324799 -713.777893
v 123.798553 147.746246 -707.878174
v 95.7085724 257.127106 -804.385803
v 93.6930084 251.310669 -762.422729
v 91.2859955 240.304199 -728.681824
v 90.5237274 223.833466 -704.079102
v 92.1702118 201.878632 -688.354065
v 94.9621124 175.50058 -680.406433
v 96.884903 146.571396 -678.200378
v 66.0912323 252.501587 -767.952332
v 38.7432404 242.990967 -740.174683
v 61.5657806 246.6026 -727.444397
v 15.7418976 228.996857 -719.84491
v 34.9909821 236.942505 -701.964172
v 59.6203766 235.348145 -695.7547
v -3.04542542 210.899902 -705.681885
v 13.5511322 222.042755 -684.118896
v 34.8325043 224.258759 -672.667175
v 61.0099335 217.332489 -673.215881
v -19.464798 188.201569 -697.017456
v -4.67201233 201.030365 -672.56488
v 14.4285736 206.203979 -657.214417
v 37.7526703 203.073456 -652.436462
v 64.855484 192.303497 -659.917786
v -35.5258026 160.714966 -692.994812
v -22.3769989 172.869232 -666.437927
v -4.8427887 179.470703 -647.933594
v 16.8829193 179.440308 -639.141907
v 41.9766388 172.95639 -641.452515
v 69.145401 161.395569 -655.048767
v -26.8955536 118.054482 -938.651245
v -43.4685211 91.9082718 -914.718689
v -32.4010773 116.476418 -903.257629
v -60.3313446 67.9242477 -886.091492
v -51.0684967 89.9186935 -879.988342
v -40.6548309 114.180077 -866.682739
v -75.5631256 46.8352814 -851.341919
v -68.7891083 67.4044037 -851.15155
v -59.4157257 89.5176239 -844.305481
v -48.8540802 114.12207 -828.757568
v -86.5634308 27.6051121 -811.361938
v -83.7881012 48.2621384 -814.808472
v -76.4354095 69.3425598 -814.265747
v -66.600235 92.0070572 -806.190369
v -55.1400299 116.580437 -788.778015
v -90.8445282 8.34339142 -768.250061
v -93.4118195 29.6978493 -771.25061
v -89.9879608 50.990242 -774.049377
v -82.0885468 72.7258987 -772.447693
v -71.2639618 95.4698181 -763.344788
v -58.5512543 119.55146 -746.477661
v 6.54759216 -51.0988159 -927.148926
v 20.9294586 -75.7629852 -890.143372
v -8.13670349 -56.4526062 -887.221069
v 34.9403229 -97.5748596 -852.838867
v 5.43287659 -79.7891388 -848.124939
v -22.444046 -57.7316513 -850.253052
v 46.5935211 -115.341194 -814.510376
v 17.443924 -99.4270248 -809.287537
v -11.246048 -79.219162 -809.490173
v -37.4662323 -55.0491867 -815.2323
v 55.1582489 -127.788185 -775.667786
v 26.6904755 -114.395927 -769.560852
v -2.21412659 -96.3829803 -768.601196
v -29.5084686 -74.0574722 -772.316406
v -53.0596771 -48.4862289 -781.337341
v 61.5088654 -133.831665 -738.556458
v 33.6310577 -123.483192 -729.579834
v 4.60084534 -108.221245 -726.353516
v -23.4736786 -88.1951523 -728.31958
v -48.4404144 -64.351265 -735.66449
v -68.3703766 -38.5446701 -749.001221
v 179.729889 -99.83535 -968.39386
v 179.585114 -105.701363 -928.86853
v 163.433563 -121.08007 -928.957642
v 177.035004 -103.310402 -890.218018
v 164.624786 -122.455437 -887.853149
v 150.070099 -133.799133 -885.082214
v 171.425507 -94.0311508 -852.734436
v 162.553131 -115.18853 -848.897278
v 151.49173 -130.662445 -843.260864
v 137.303741 -139.602081 -838.691528
v 162.501923 -79.569046 -816.538391
v 156.769745 -101.709099 -811.331482
v 148.909515 -119.755013 -804.027771
v 137.562958 -133.014465 -796.662415
v 122.733612 -140.684418 -792.277161
v 149.916229 -61.8398666 -781.395142
v 146.418365 -84.0061722 -774.305908
v 141.193329 -103.602043 -765.486633
v 132.454987 -119.743141 -756.627136
v 119.58194 -131.652252 -750.036194
v 103.732758 -138.47049 -748.458374
v 239.239899 100.926643 -875.230347
v 219.018951 104.608208 -835.391541
v 229.554535 72.7691422 -853.73761
v 195.4617 109.333519 -798.490417
v 207.18161 78.0723724 -816.410339
v 212.918549 47.7950668 -832.709717
v 169.438263 113.884071 -763.612244
v 181.690338 83.4925995 -781.612
v 188.377716 54.823494 -797.050903
v 191.075226 26.1183395 -811.993896
v 141.845245 117.081772 -729.266296
v 153.848785 88.0308533 -747.222046
v 160.909515 60.6036301 -762.522522
v 164.947296 33.8710251 -776.601318
v 167.924835 6.59641838 -791.495789
v 112.622711 118.42897 -695.569031
v 123.707245 90.9885864 -711.96344
v 130.863617 64.6249313 -726.49646
v 136.107391 39.0592194 -740.236084
v 141.372162 13.6329632 -754.420288
v 147.528534 -12.0269814 -769.760071
v -9.53987122 -18.4528885 -615.82373
v -2.76564026 4.54114151 -618.231384
v -32.3634186 6.5693512 -615.995117
v 7.84550476 28.9451141 -623.389465
v -22.5652618 32.5823822 -618.092712
v -49.4197235 32.7807007 -623.449158
v 22.8101044 54.0042648 -630.851807
v -7.98771667 58.9625244 -622.168457
v -35.4942169 60.6712952 -624.213257
v -59.6389008 58.9738464 -637.582458
v 40.9744415 79.1389465 -640.046692
v 10.0555878 85.7194366 -627.09198
v -17.9059906 88.8329849 -625.524597
v -42.4233856 88.4891891 -634.848083
v -62.8819427 84.3289948 -656.827026
v 60.6181488 103.400085 -650.65564
v 29.7688446 112.415939 -633.092896
v 1.40818787 117.531189 -627.267517
v -23.350235 118.636765 -632.916016
v -43.9502411 115.455429 -649.864502
v -60.2557526 107.733192 -678.943176
v 79.7857208 125.914932 -663.08429
v 49.8728485 137.892212 -641.677307
v 21.643692 146.004501 -631.562012
v -3.51161194 149.345093 -633.228333
v -24.6868744 147.388168 -645.988403
v -41.337204 140.104218 -669.092712
v -53.7533722 128.157516 -702.143616
v 19.2623138 -27.1166382 -623.959351
v 47.6261749 -32.4095993 -639.640015
v 27.0327606 -2.01695442 -629.743286
v 73.860672 -34.999176 -661.6026
v 55.0041351 -5.65213394 -648.662537
v 38.1697845 23.3250923 -638.36261
v 97.0280304 -35.9752655 -688.573364
v 80.4123077 -7.47981262 -673.225586
v 65.8508148 20.144865 -660.354309
v 53.3430939 48.368248 -649.579773
v 117.283905 -36.3891907 -719.284851
v 103.404083 -8.65366364 -702.198242
v 91.2238312 18.1398449 -687.542053
v 81.0913544 44.8499451 -674.827881
v 71.8281097 72.7541351 -663.029785
v 135.809296 -36.8820267 -752.373291
v 125.128815 -10.0279922 -734.685547
v 115.607697 16.197937 -719.046936
v 107.772308 42.066597 -705.138794
v 100.799118 68.2891464 -692.005981
v 92.4183807 95.9422989 -678.313049
v 4.25431824 -45.8444901 -619.433716
v 19.6621857 -70.6896286 -627.265076
v 36.9845123 -55.3136978 -631.693359
v 34.874588 -92.3950882 -639.839722
v 54.3986053 -79.4014282 -643.34375
v 66.7396393 -60.187561 -651.446594
v 49.1606293 -110.460991 -658.023804
v 69.8892975 -99.6592331 -659.467468
v 84.1133575 -83.1776505 -666.870911
v 92.4535065 -62.017395 -677.171875
v 62.580307 -124.461128 -682.675537
v 83.1725006 -116.218376 -681.379639
v 98.7570648 -102.365257 -687.041077
v 108.752655 -84.2045517 -696.692505
v 114.104401 -62.2710114 -707.933655
v 75.3689117 -134.218903 -714.546509
v 94.3615265 -129.172729 -710.52417
v 110.573212 -118.405235 -713.985718
v 122.129364 -103.108208 -722.171326
v 129.01297 -84.1549149 -732.529541
v 132.668182 -62.0189896 -743.004333
v -29.8510895 -24.1067429 -616.358521
v -48.4304047 -26.7013626 -624.718689
v -16.5008087 -52.717041 -620.534424
v -63.9172211 -26.7037048 -641.143494
v -35.0505829 -55.551445 -630.220154
v -1.91581726 -77.4622269 -630.096619
v -75.1182404 -24.9172363 -664.702209
v -50.0001678 -55.2542725 -648.148499
v -20.2317047 -79.7924042 -642.383362
v 13.0140533 -98.3349152 -645.513123
v -81.8115997 -21.9134903 -694.595886
v -60.8334503 -52.1064606 -674.16095
v -34.4470673 -78.3615494 -663.851929
v -4.31987 -99.4551315 -661.939148
v 28.3813934 -115.01432 -667.772827
v -83.9156647 -18.0424118 -729.61554
v -66.902298 -46.50914 -708.003235
v -43.8222504 -73.2640762 -694.930725
v -16.4210663 -96.2163391 -689.355042
v 13.6847076 -114.275047 -690.455872
v 44.8377533 -126.971046 -698.493347
v -54.1508942 3.41920471 -623.267212
v -70.1808014 30.5407028 -639.278442
v -71.5572357 2.91934967 -639.706177
v -77.360672 56.1921616 -662.608276
v -84.4980011 30.3768921 -664.129272
v -83.9341583 3.94594193 -663.72345
v -76.6024933 79.6875229 -690.220703
v -87.6777496 54.8182068 -695.121765
v -92.8450165 30.6514874 -695.167114
v -91.0655975 5.33607483 -693.572632
v -69.6134491 100.731468 -718.797607
v -82.6833954 76.2334976 -729.246643
v -91.7604523 53.179924 -732.400818
v -95.7563934 30.2763805 -730.814697
v -93.3816986 6.5984478 -728.451172
g 
f 3 1 2
f 5 2 4
f 6 3 5
f 8 4 7
f 9 5 8
f 10 6 9
f 12 7 11
f 13 8 12
f 14 9 13
f 15 10 14
f 17 11 16
f 18 12 17
f 19 13 18
f 20 14 19
f 21 15 20
f 23 16 22
f 24 17 23
f 25 18 24
f 26 19 25
f 27 20 26
f 28 21 27
f 30 22 29
f 31 23 30
f 32 24 31
f 33 25 32
f 34 26 33
f 35 27 34
f 36 28 35
f 3 2 5
f 5 4 8
f 6 5 9
f 8 7 12
f 9 8 13
f 10 9 14
f 12 11 17
f 13 12 18
f 14 13 19
f 15 14 20
f 17 16 23
f 18 17 24
f 19 18 25
f 20 19 26
f 21 20 27
f 23 22 30
f 24 23 31
f 25 24 32
f 26 25 33
f 27 26 34
f 28 27 35
f 37 1 3
f 38 3 6
f 39 37 38
f 40 6 10
f 41 38 40
f 42 39 41
f 43 10 15
f 44 40 43
f 45 41 44
f 46 42 45
f 47 15 21
f 48 43 47
f 49 44 48
f 50 45 49
f 51 46 50
f 52 21 28
f 53 47 52
f 54 48 53
f 55 49 54
f 56 50 55
f 57 51 56
f 58 28 36
f 59 52 58
f 60 53 59
f 61 54 60
f 62 55 61
f 63 56 62
f 64 57 63
f 37 3 38
f 38 6 40
f 39 38 41
f 40 10 43
f 41 40 44
f 42 41 45
f 43 15 47
f 44 43 48
f 45 44 49
f 46 45 50
f 47 21 52
f 48 47 53
f 49 48 54
f 50 49 55
f 51 50 56
f 52 28 58
f 53 52 59
f 54 53 60
f 55 54 61
f 56 55 62
f 57 56 63
f 65 1 37
f 66 37 39
f 67 65 66
f 68 39 42
f 69 66 68
f 70 67 69
f 71 42 46
f 72 68 71
f 73 69 72
f 74 70 73
f 75 46 51
f 76 71 75
f 77 72 76
f 78 73 77
f 79 74 78
f 80 51 57
f 81 75 80
f 82 76 81
f 83 77 82
f 84 78 83
f 85 79 84
f 86 57 64
f 87 80 86
f 88 81 87
f 89 82 88
f 90 83 89
f 91 84 90
f 92 85 91
f 65 37 66
f 66 39 68
f 67 66 69
f 68 42 71
f 69 68 72
f 70 69 73
f 71 46 75
f 72 71 76
f 73 72 77
f 74 73 78
f 75 51 80
f 76 75 81
f 77 76 82
f 78 77 83
f 79 78 84
f 80 57 86
f 81 80 87
f 82 81 88
f 83 82 89
f 84 83 90
f 85 84 91
f 93 1 65
f 94 65 67
f 95 93 94
f 96 67 70
f 97 94 96
f 98 95 97
f 99 70 74
f 100 96 99
f 101 97 100
f 102 98 101
f 103 74 79
f 104 99 103
f 105 100 104
f 106 101 105
f 107 102 106
f 108 79 85
f 109 103 108
f 110 104 109
f 111 105 110
f 112 106 111
f 113 107 112
f 114 85 92
f 115 108 114
f 116 109 115
f 117 110 116
f 118 111 117
f 119 112 118
f 120 113 119
f 93 65 94
f 94 67 96
f 95 94 97
f 96 70 99
f 97 96 100
f 98 97 101
f 99 74 103
f 100 99 104
f 101 100 105
f 102 101 106
f 103 79 108
f 104 103 109
f 105 104 110
f 106 105 111
f 107 106 112
f 108 85 114
f 109 108 115
f 110 109 116
f 111 110 117
f 112 111 118
f 113 112 119
f 2 1 93
f 121 93 95
f 4 2 121
f 122 95 98
f 123 121 122
f 7 4 123
f 124 98 102
f 125 122 124
f 126 123 125
f 11 7 126
f 127 102 107
f 128 124 127
f 129 125 128
f 130 126 129
f 16 11 130
f 131 107 113
f 132 127 131
f 133 128 132
f 134 129 133
f 135 130 134
f 22 16 135
f 136 113 120
f 137 131 136
f 138 132 137
f 139 133 138
f 140 134 139
f 141 135 140
f 29 22 141
f 2 93 121
f 121 95 122
f 4 121 123
f 122 98 124
f 123 122 125
f 7 123 126
f 124 102 127
f 125 124 128
f 126 125 129
f 11 126 130
f 127 107 131
f 128 127 132
f 129 128 133
f 130 129 134
f 16 130 135
f 131 113 136
f 132 131 137
f 133 132 138
f 134 133 139
f 135 134 140
f 22 135 141
f 142 29 141
f 143 141 140
f 144 142 143
f 145 140 139
f 146 143 145
f 147 144 146
f 148 139 138
f 149 145 148
f 150 146 149
f 151 147 150
f 152 138 137
f 153 148 152
f 154 149 153
f 155 150 154
f 156 151 155
f 157 137 136
f 158 152 157
f 159 153 158
f 160 154 159
f 161 155 160
f 162 156 161
f 163 136 120
f 164 157 163
f 165 158 164
f 166 159 165
f 167 160 166
f 168 161 167
f 169 162 168
f 142 141 143
f 143 140 145
f 144 143 146
f 145 139 148
f 146 145 149
f 147 146 150
f 148 138 152
f 149 148 153
f 150 149 154
f 151 150 155
f 152 137 157
f 153 152 158
f 154 153 159
f 155 154 160
f 156 155 161
f 157 136 163
f 158 157 164
f 159 158 165
f 160 159 166
f 161 160 167
f 162 161 168
f 170 120 119
f 171 119 118
f 172 170 171
f 173 118 117
f 174 171 173
f 175 172 174
f 176 117 116
f 177 173 176
f 178 174 177
f 179 175 178
f 180 116 115
f 181 176 180
f 182 177 181
f 183 178 182
f 184 179 183
f 185 115 114
f 186 180 185
f 187 181 186
f 188 182 187
f 189 183 188
f 190 184 189
f 191 114 92
f 192 185 191
f 193 186 192
f 194 187 193
f 195 188 194
f 196 189 195
f 197 190 196
f 170 119 171
f 171 118 173
f 172 171 174
f 173 117 176
f 174 173 177
f 175 174 178
f 176 116 180
f 177 176 181
f 178 177 182
f 179 178 183
f 180 115 185
f 181 180 186
f 182 181 187
f 183 182 188
f 184 183 189
f 185 114 191
f 186 185 192
f 187 186 193
f 188 187 194
f 189 188 195
f 190 189 196
f 198 92 91
f 199 91 90
f 200 198 199
f 201 90 89
f 202 199 201
f 203 200 202
f 204 89 88
f 205 201 204
f 206 202 205
f 207 203 206
f 208 88 87
f 209 204 208
f 210 205 209
f 211 206 210
f 212 207 211
f 213 87 86
f 214 208 213
f 215 209 214
f 216 210 215
f 217 211 216
f 218 212 217
f 219 86 64
f 220 213 219
f 221 214 220
f 222 215 221
f 223 216 222
f 224 217 223
f 225 218 224
f 198 91 199
f 199 90 201
f 200 199 202
f 201 89 204
f 202 201 205
f 203 202 206
f 204 88 208
f 205 204 209
f 206 205 210
f 207 206 211
f 208 87 213
f 209 208 214
f 210 209 215
f 211 210 216
f 212 211 217
f 213 86 219
f 214 213 220
f 215 214 221
f 216 215 222
f 217 216 223
f 218 217 224
f 226 64 63
f 227 63 62
f 228 226 227
f 229 62 61
f 230 227 229
f 231 228 230
f 232 61 60
f 233 229 232
f 234 230 233
f 235 231 234
f 236 60 59
f 237 232 236
f 238 233 237
f 239 234 238
f 240 235 239
f 241 59 58
f 242 236 241
f 243 237 242
f 244 238 243
f 245 239 244
f 246 240 245
f 247 58 36
f 248 241 247
f 249 242 248
f 250 243 249
f 251 244 250
f 252 245 251
f 253 246 252
f 226 63 227
f 227 62 229
f 228 227 230
f 229 61 232
f 230 229 233
f 231 230 234
f 232 60 236
f 233 232 237
f 234 233 238
f 235 234 239
f 236 59 241
f 237 236 242
f 238 237 243
f 239 238 244
f 240 239 245
f 241 58 247
f 242 241 248
f 243 242 249
f 244 243 250
f 245 244 251
f 246 245 252
f 254 36 35
f 255 35 34
f 256 254 255
f 257 34 33
f 258 255 257
f 259 256 258
f 260 33 32
f 261 257 260
f 262 258 261
f 263 259 262
f 264 32 31
f 265 260 264
f 266 261 265
f 267 262 266
f 268 263 267
f 269 31 30
f 270 264 269
f 271 265 270
f 272 266 271
f 273 267 272
f 274 268 273
f 275 30 29
f 276 269 275
f 277 270 276
f 278 271 277
f 279 272 278
f 280 273 279
f 281 274 280
f 254 35 255
f 255 34 257
f 256 255 258
f 257 33 260
f 258 257 261
f 259 258 262
f 260 32 264
f 261 260 265
f 262 261 266
f 263 262 267
f 264 31 269
f 265 264 270
f 266 265 271
f 267 266 272
f 268 267 273
f 269 30 275
f 270 269 276
f 271 270 277
f 272 271 278
f 273 272 279
f 274 273 280
f 275 29 142
f 282 142 144
f 276 275 282
f 283 144 147
f 284 282 283
f 277 276 284
f 285 147 151
f 286 283 285
f 287 284 286
f 278 277 287
f 288 151 156
f 289 285 288
f 290 286 289
f 291 287 290
f 279 278 291
f 292 156 162
f 293 288 292
f 294 289 293
f 295 290 294
f 296 291 295
f 280 279 296
f 297 162 169
f 298 292 297
f 299 293 298
f 300 294 299
f 301 295 300
f 302 296 301
f 281 280 302
f 275 142 282
f 282 144 283
f 276 282 284
f 283 147 285
f 284 283 286
f 277 284 287
f 285 151 288
f 286 285 289
f 287 286 290
f 278 287 291
f 288 156 292
f 289 288 293
f 290 289 294
f 291 290 295
f 279 291 296
f 292 162 297
f 293 292 298
f 294 293 299
f 295 294 300
f 296 295 301
f 280 296 302
f 163 120 170
f 303 170 172
f 164 163 303
f 304 172 175
f 305 303 304
f 165 164 305
f 306 175 179
f 307 304 306
f 308 305 307
f 166 165 308
f 309 179 184
f 310 306 309
f 311 307 310
f 312 308 311
f 167 166 312
f 313 184 190
f 314 309 313
f 315 310 314
f 316 311 315
f 317 312 316
f 168 167 317
f 318 190 197
f 319 313 318
f 320 314 319
f 321 315 320
f 322 316 321
f 323 317 322
f 169 168 323
f 163 170 303
f 303 172 304
f 164 303 305
f 304 175 306
f 305 304 307
f 165 305 308
f 306 179 309
f 307 306 310
f 308 307 311
f 166 308 312
f 309 184 313
f 310 309 314
f 311 310 315
f 312 311 316
f 167 312 317
f 313 190 318
f 314 313 319
f 315 314 320
f 316 315 321
f 317 316 322
f 168 317 323
f 191 92 198
f 324 198 200
f 192 191 324
f 325 200 203
f 326 324 325
f 193 192 326
f 327 203 207
f 328 325 327
f 329 326 328
f 194 193 329
f 330 207 212
f 331 327 330
f 332 328 331
f 333 329 332
f 195 194 333
f 334 212 218
f 335 330 334
f 336 331 335
f 337 332 336
f 338 333 337
f 196 195 338
f 339 218 225
f 340 334 339
f 341 335 340
f 342 336 341
f 343 337 342
f 344 338 343
f 197 196 344
f 191 198 324
f 324 200 325
f 192 324 326
f 325 203 327
f 326 325 328
f 193 326 329
f 327 207 330
f 328 327 331
f 329 328 332
f 194 329 333
f 330 212 334
f 331 330 335
f 332 331 336
f 333 332 337
f 195 333 338
f 334 218 339
f 335 334 340
f 336 335 341
f 337 336 342
f 338 337 343
f 196 338 344
f 219 64 226
f 345 226 228
f 220 219 345
f 346 228 231
f 347 345 346
f 221 220 347
f 348 231 235
f 349 346 348
f 350 347 349
f 222 221 350
f 351 235 240
f 352 348 351
f 353 349 352
f 354 350 353
f 223 222 354
f 355 240 246
f 356 351 355
f 357 352 356
f 358 353 357
f 359 354 358
f 224 223 359
f 360 246 253
f 361 355 360
f 362 356 361
f 363 357 362
f 364 358 363
f 365 359 364
f 225 224 365
f 219 226 345
f 345 228 346
f 220 345 347
f 346 231 348
f 347 346 349
f 221 347 350
f 348 235 351
f 349 348 352
f 350 349 353
f 222 350 354
f 351 240 355
f 352 351 356
f 353 352 357
f 354 353 358
f 223 354 359
f 355 246 360
f 356 355 361
f 357 356 362
f 358 357 363
f 359 358 364
f 224 359 365
f 247 36 254
f 366 254 256
f 248 247 366
f 367 256 259
f 368 366 367
f 249 248 368
f 369 259 263
f 370 367 369
f 371 368 370
f 250 249 371
f 372 263 268
f 373 369 372
f 374 370 373
f 375 371 374
f 251 250 375
f 376 268 274
f 377 372 376
f 378 373 377
f 379 374 378
f 380 375 379
f 252 251 380
f 381 274 281
f 382 376 381
f 383 377 382
f 384 378 383
f 385 379 384
f 386 380 385
f 253 252 386
f 247 254 366
f 366 256 367
f 248 366 368
f 367 259 369
f 368 367 370
f 249 368 371
f 369 263 372
f 370 369 373
f 371 370 374
f 250 371 375
f 372 268 376
f 373 372 377
f 374 373 378
f 375 374 379
f 251 375 380
f 376 274 381
f 377 376 382
f 378 377 383
f 379 378 384
f 380 379 385
f 252 380 386
f 389 387 388
f 391 388 390
f 392 389 391
f 394 390 393
f 395 391 394
f 396 392 395
f 398 393 397
f 399 394 398
f 400 395 399
f 401 396 400
f 403 397 402
f 404 398 403
f 405 399 404
f 406 400 405
f 407 401 406
f 409 402 408
f 410 403 409
f 411 404 410
f 412 405 411
f 413 406 412
f 414 407 413
f 302 408 281
f 301 409 302
f 300 410 301
f 299 411 300
f 298 412 299
f 297 413 298
f 169 414 297
f 389 388 391
f 391 390 394
f 392 391 395
f 394 393 398
f 395 394 399
f 396 395 400
f 398 397 403
f 399 398 404
f 400 399 405
f 401 400 406
f 403 402 409
f 404 403 410
f 405 404 411
f 406 405 412
f 407 406 413
f 409 408 302
f 410 409 301
f 411 410 300
f 412 411 299
f 413 412 298
f 414 413 297
f 388 387 415
f 417 415 416
f 390 388 417
f 419 416 418
f 420 417 419
f 393 390 420
f 422 418 421
f 423 419 422
f 424 420 423
f 397 393 424
f 426 421 425
f 427 422 426
f 428 423 427
f 429 424 428
f 402 397 429
f 431 425 430
f 432 426 431
f 433 427 432
f 434 428 433
f 435 429 434
f 408 402 435
f 386 430 253
f 385 431 386
f 384 432 385
f 383 433 384
f 382 434 383
f 381 435 382
f 281 408 381
f 388 415 417
f 417 416 419
f 390 417 420
f 419 418 422
f 420 419 423
f 393 420 424
f 422 421 426
f 423 422 427
f 424 423 428
f 397 424 429
f 426 425 431
f 427 426 432
f 428 427 433
f 429 428 434
f 402 429 435
f 431 430 386
f 432 431 385
f 433 432 384
f 434 433 383
f 435 434 382
f 408 435 381
f 415 387 436
f 438 436 437
f 416 415 438
f 440 437 439
f 441 438 440
f 418 416 441
f 443 439 442
f 444 440 443
f 445 441 444
f 421 418 445
f 447 442 446
f 448 443 447
f 449 444 448
f 450 445 449
f 425 421 450
f 452 446 451
f 453 447 452
f 454 448 453
f 455 449 454
f 456 450 455
f 430 425 456
f 365 451 225
f 364 452 365
f 363 453 364
f 362 454 363
f 361 455 362
f 360 456 361
f 253 430 360
f 415 436 438
f 438 437 440
f 416 438 441
f 440 439 443
f 441 440 444
f 418 441 445
f 443 442 447
f 444 443 448
f 445 444 449
f 421 445 450
f 447 446 452
f 448 447 453
f 449 448 454
f 450 449 455
f 425 450 456
f 452 451 365
f 453 452 364
f 454 453 363
f 455 454 362
f 456 455 361
f 430 456 360
f 436 387 457
f 459 457 458
f 437 436 459
f 461 458 460
f 462 459 461
f 439 437 462
f 464 460 463
f 465 461 464
f 466 462 465
f 442 439 466
f 468 463 467
f 469 464 468
f 470 465 469
f 471 466 470
f 446 442 471
f 473 467 472
f 474 468 473
f 475 469 474
f 476 470 475
f 477 471 476
f 451 446 477
f 344 472 197
f 343 473 344
f 342 474 343
f 341 475 342
f 340 476 341
f 339 477 340
f 225 451 339
f 436 457 459
f 459 458 461
f 437 459 462
f 461 460 464
f 462 461 465
f 439 462 466
f 464 463 468
f 465 464 469
f 466 465 470
f 442 466 471
f 468 467 473
f 469 468 474
f 470 469 475
f 471 470 476
f 446 471 477
f 473 472 344
f 474 473 343
f 475 474 342
f 476 475 341
f 477 476 340
f 451 477 339
f 457 387 389
f 478 389 392
f 458 457 478
f 479 392 396
f 480 478 479
f 460 458 480
f 481 396 401
f 482 479 481
f 483 480 482
f 463 460 483
f 484 401 407
f 485 481 484
f 486 482 485
f 487 483 486
f 467 463 487
f 488 407 414
f 489 484 488
f 490 485 489
f 491 486 490
f 492 487 491
f 472 467 492
f 323 414 169
f 322 488 323
f 321 489 322
f 320 490 321
f 319 491 320
f 318 492 319
f 197 472 318
f 457 389 478
f 478 392 479
f 458 478 480
f 479 396 481
f 480 479 482
f 460 480 483
f 481 401 484
f 482 481 485
f 483 482 486
f 463 483 487
f 484 407 488
f 485 484 489
f 486 485 490
f 487 486 491
f 467 487 492
f 488 414 323
f 489 488 322
f 490 489 321
f 491 490 320
f 492 491 319
f 472 492 318
