# File exported by Houdini 20.5.445 (www.sidefx.com)
# 492 points
# 2940 vertices
# 980 primitives
# Bounds: [-151.063843, -156.64743, -1096.18079] to [321.837769, 273.024536, -658.620239]
g 
v 80.8286743 87.300415 -1040.80371
v 84.8817749 122.904617 -1064.90698
v 107.575439 95.7818146 -1044.77344
v 90.4815674 156.549713 -1082.6897
v 113.832947 136.286209 -1067.30261
v 132.794739 104.093552 -1047.13477
v 93.6167603 186.520737 -1090.86243
v 119.481812 173.095627 -1080.00171
v 138.566284 147.914749 -1066.06567
v 156.315735 112.452209 -1046.87866
v 91.4608154 211.554367 -1087.54553
v 120.891296 204.837311 -1081.16113
v 142.453491 186.243332 -1072.521
v 160.077271 157.677109 -1060.78247
v 178.542297 121.150467 -1042.41431
v 83.0774536 231.29007 -1073.29626
v 116.088257 230.63501 -1070.76294
v 141.550964 218.326767 -1066.56982
v 161.729065 195.92897 -1060.599
v 179.528503 165.551056 -1050.43005
v 199.833923 129.963852 -1032.03796
v 69.4974365 246.277054 -1050.76819
v 104.66272 250.437317 -1050.46851
v 134.336853 243.861435 -1049.27002
v 158.740051 227.172623 -1047.48865
v 179.158569 202.182449 -1043.3667
v 198.071655 171.411591 -1033.53906
v 219.843506 137.989822 -1014.18311
v 53.8683167 256.551727 -1023.00122
v 88.3894653 264.247131 -1022.47144
v 120.659485 262.704407 -1022.21338
v 149.665466 251.548309 -1022.72217
v 174.775452 231.649536 -1022.70789
v 196.243652 205.120743 -1019.08557
v 216.394836 175.124649 -1008.44556
v 238.019165 144.57309 -988.505005
v 97.8039551 55.5151405 -1016.46741
v 125.797668 60.7109871 -1020.16541
v 119.041504 22.8327961 -990.932617
v 152.442383 67.1438904 -1022.57971
v 148.856079 27.5525131 -994.7229
v 144.231262 -8.41518021 -964.873291
v 178.322632 75.6790314 -1021.86133
v 177.783325 35.2790222 -996.129028
v 176.056946 -1.53846359 -967.899658
v 172.141602 -36.1219635 -938.730957
v 203.705688 86.4377899 -1015.77441
v 206.402283 46.3440285 -992.784424
v 207.156128 9.28608322 -966.478149
v 205.371521 -25.5951843 -939.132568
v 200.513977 -58.9421234 -912.327393
v 228.093689 98.4880676 -1001.96326
v 234.719238 60.1864967 -982.32959
v 238.214722 23.5733204 -958.295654
v 238.082642 -11.2863617 -932.790527
v 234.238159 -44.6855927 -908.085754
v 226.988098 -76.514389 -885.376404
v 250.051697 110.250412 -978.115967
v 261.073303 75.3041534 -961.45752
v 268.713196 40.3412704 -940.402954
v 270.928528 5.95412254 -917.15155
v 267.649048 -27.485054 -894.565918
v 260.086792 -59.5090103 -874.673706
v 249.662476 -89.1819916 -857.788635
v 64.8682251 60.4996147 -1020.57361
v 87.2612305 25.8191223 -991.964966
v 54.0724792 34.9381409 -999.07666
v 112.447754 -8.08942032 -963.495605
v 81.5078125 -1.06692123 -967.632446
v 48.3663635 9.89799309 -976.589722
v 140.150452 -39.7045593 -936.488892
v 109.991699 -35.4680634 -937.930359
v 79.8359375 -26.4156647 -944.055054
v 47.0375366 -15.2033615 -954.012085
v 169.242432 -67.5382996 -910.842041
v 139.608643 -67.3354187 -910.820251
v 110.796204 -61.0890961 -914.015076
v 81.305603 -51.2399139 -921.472717
v 48.6862183 -40.3653259 -932.600525
v 198.108093 -90.3902893 -885.431519
v 169.767822 -95.4615173 -885.197266
v 141.902588 -93.2830658 -886.445251
v 113.901428 -85.82547 -891.057922
v 84.3147583 -75.5714264 -900.110291
v 51.3992615 -64.5354767 -912.90332
v 225.118164 -107.504868 -858.893677
v 199.564819 -118.430038 -859.053223
v 173.254456 -121.625122 -859.356018
v 146.095276 -117.903824 -861.802979
v 117.549622 -108.956726 -868.425781
v 86.7817993 -97.6777344 -879.798706
v 53.5518494 -85.6310272 -894.319946
v 54.0904236 99.3784332 -1051.80688
v 33.8862915 71.9232635 -1030.48816
v 25.9328613 107.69606 -1059.97144
v 21.4868774 45.5138435 -1007.93311
v 4.05886841 78.9337769 -1035.94324
v -2.87557983 111.623978 -1062.1676
v 15.6191406 19.1616039 -984.818726
v -8.25900269 51.0177917 -1011.70752
v -24.3374634 81.7477112 -1035.62634
v -31.2133484 111.547653 -1056.8689
v 14.3651428 -7.6366272 -962.24292
v -13.8612671 22.9197502 -988.299683
v -35.8457947 52.2743607 -1010.75964
v -51.0211487 80.841629 -1029.68469
v -58.2016602 108.12207 -1044.93091
v 15.9477234 -34.8058472 -940.957825
v -15.3226013 -5.84176636 -965.870361
v -41.3469543 22.3725433 -987.272095
v -61.6144104 49.9752083 -1004.88647
v -75.8334656 76.8834381 -1018.44836
v -83.5656433 102.12381 -1028.07642
v 18.6533813 -60.7875671 -920.140381
v -14.2600403 -34.6950607 -943.596008
v -43.3651123 -7.95063782 -963.70166
v -67.3776245 18.9040451 -980.167603
v -85.7943726 45.4332314 -992.97937
v -98.8936768 71.2544708 -1002.08191
v -106.936035 95.3186188 -1008.01636
v 57.3388672 134.147919 -1076.55713
v 27.8387756 139.566864 -1082.85132
v 61.0435486 163.954391 -1092.17603
v -2.75631714 139.814911 -1080.62183
v 29.1466675 164.707596 -1094.20972
v 61.1569824 188.551331 -1096.18079
v -33.4431152 136.199417 -1069.03333
v -4.19073486 160.701767 -1086.16809
v 26.201355 184.395386 -1092.70007
v 55.5926819 208.3134 -1087.75952
v -64.1657715 129.332138 -1050.03003
v -38.8056946 153.285263 -1068.125
v -10.9661255 176.329742 -1078.58032
v 17.1190491 200.033005 -1078.51013
v 43.9608765 224.148697 -1068.29297
v -94.4937134 120.651382 -1025.78699
v -74.8017273 143.648026 -1042.31555
v -50.5453491 165.9673 -1054.15784
v -24.2702942 189.103821 -1058.14172
v 2.23654175 213.255814 -1052.90942
v 28.1677551 236.765427 -1040.2041
v 22.7720032 251.372681 -1004.15247
v -7.71670532 227.732605 -1019.96826
v -6.08013916 242.210083 -983.98877
v -36.3921204 202.287888 -1029.43591
v -39.380249 216.780426 -998.270752
v -31.0224609 230.717636 -963.162354
v -63.4825134 177.530624 -1030.95154
v -69.2832947 191.030563 -1004.66248
v -65.5690308 205.586472 -975.803833
v -51.1047058 217.994614 -941.735718
v -88.3371277 154.297913 -1024.38147
v -95.9908142 166.643188 -1002.98938
v -95.525116 180.857132 -979.104736
v -85.5396729 194.62381 -952.165649
v -65.8487549 204.375198 -919.516541
v -109.142578 131.246735 -1011.71252
v -118.896606 143.066025 -994.307251
v -121.170013 156.837326 -974.621948
v -114.358612 170.762512 -952.574707
v -98.3951416 181.960098 -927.104309
v -74.9406433 188.409241 -896.678955
v -123.015381 105.764465 -995.914551
v -135.37619 117.584549 -980.910767
v -140.779633 131.035583 -963.92334
v -137.055908 144.881287 -945.346008
v -124.247742 156.903076 -924.570435
v -104.182251 165.26207 -900.924011
v -79.6832886 169.527039 -874.015198
v -121.710663 75.0219574 -984.616089
v -108.630585 46.5526657 -977.888428
v -129.52655 56.6586761 -961.495728
v -91.0739441 18.4388409 -968.201294
v -112.084564 25.586916 -954.019165
v -130.920074 40.8374405 -937.456177
v -68.3400574 -9.18686676 -955.574951
v -90.2788696 -4.19328308 -943.933533
v -109.973663 8.17675018 -929.40863
v -126.281586 27.2922478 -911.869507
v -40.0995789 -36.3057785 -939.261169
v -63.4026794 -32.721077 -930.829773
v -84.4880676 -22.5490417 -918.564331
v -102.547638 -6.09807205 -902.806519
v -116.623474 15.9285469 -884.450256
v -6.44671631 -62.7031097 -918.298828
v -30.6691589 -60.1594086 -913.03595
v -53.2876282 -51.7725983 -903.526123
v -73.6105042 -37.1038055 -890.273804
v -90.3060913 -17.61092 -873.833984
v -102.839813 5.66843796 -856.005981
v 31.986145 -88.0189056 -892.287964
v 8.76678467 -86.3748474 -888.633362
v -14.7304077 -79.5016937 -881.706787
v -37.3734741 -66.7541351 -871.590759
v -57.3212891 -49.0506287 -858.359619
v -73.3448181 -27.8813934 -843.059448
v -85.2351685 -4.66291046 -827.798096
v 76.1354065 -109.43454 -866.232483
v 113.374573 -123.397995 -850.146362
v 97.8342285 -126.932129 -837.97168
v 146.106628 -134.820862 -839.920776
v 137.240051 -140.909851 -823.193054
v 117.466736 -137.928406 -810.531372
v 175.539246 -141.274689 -835.142944
v 170.777466 -150.379913 -815.184875
v 157.369446 -150.63002 -798.474731
v 134.135986 -142.388977 -784.729004
v 202.621643 -140.311478 -833.83197
v 200.435181 -152.863464 -811.798889
v 190.893005 -156.64743 -792.471191
v 173.334473 -152.418671 -775.458313
v 147.759338 -139.842697 -761.116211
v 228.235046 -130.589188 -833.434509
v 227.309265 -146.46582 -810.381409
v 220.317383 -154.245148 -789.414429
v 206.066589 -154.025558 -770.584351
v 185.307068 -145.840179 -753.879944
v 158.487305 -129.794861 -739.962585
v 253.152161 -111.431046 -832.133911
v 252.690918 -129.418777 -808.437622
v 247.106873 -141.139481 -786.464478
v 234.851257 -145.398605 -766.579041
v 216.401978 -141.755737 -748.832397
v 193.24292 -130.436279 -733.449158
v 166.249451 -112.910828 -721.136902
v 274.764282 -79.421875 -838.242371
v 287.830811 -44.9671173 -854.047058
v 294.804138 -65.5317688 -816.858704
v 296.078552 -10.2029076 -873.076721
v 308.417847 -27.9537582 -832.255188
v 308.467529 -49.3920441 -795.03656
v 297.27594 24.4259529 -894.130432
v 314.293335 8.3428669 -850.085388
v 319.793518 -9.98403931 -809.670349
v 313.482788 -31.7882919 -773.358643
v 290.843384 59.0917854 -915.337158
v 311.559021 43.7238045 -869.432434
v 321.837769 27.479557 -826.214844
v 321.355774 8.66711044 -787.1651
v 309.815979 -12.2338715 -753.129578
v 278.406555 94.1792145 -935.085388
v 301.156677 79.3304749 -889.445984
v 315.532959 64.2259369 -844.559021
v 319.985107 47.6014519 -803.087341
v 314.276978 28.8325844 -766.701477
v 298.74231 9.50356674 -736.088379
v 262.481262 130.145126 -951.411133
v 284.790955 116.403381 -909.053162
v 301.594849 102.417709 -864.713135
v 310.11853 87.1164398 -821.759949
v 309.128662 69.7540131 -783.011841
v 299.268555 50.8965073 -750.052185
v 282.083862 32.8297348 -723.342468
v 239.409302 168.143585 -971.749268
v 215.589905 200.519409 -988.101685
v 237.125305 189.462784 -950.486938
v 191.802673 229.484177 -994.140015
v 210.231628 220.944183 -963.041138
v 230.508484 207.076477 -925.490356
v 164.950684 252.312286 -993.778198
v 182.027954 246.223083 -965.067139
v 200.408142 235.07753 -933.79657
v 219.021301 219.179077 -896.975281
v 133.973938 267.075226 -991.532471
v 149.695251 263.864319 -962.325317
v 167.362183 255.141785 -932.996948
v 185.664429 242.081375 -901.612732
v 202.280334 224.831772 -866.373291
v 99.2567749 272.72049 -990.681641
v 112.960205 273.024536 -959.626465
v 129.493713 266.962463 -929.364319
v 147.826294 256.144073 -899.213745
v 165.795715 241.783859 -868.230164
v 181.616516 224.437119 -835.795654
v 61.5891724 268.459198 -992.171997
v 72.434082 272.796997 -959.800903
v 86.8998413 269.920471 -927.215637
v 104.561768 261.426483 -895.484802
v 123.669678 249.182495 -864.92218
v 142.136597 235.014114 -835.480469
v 158.467224 218.982254 -807.713318
v 31.7280579 262.305084 -969.065674
v 6.41931152 251.335175 -946.473328
v 44.684967 264.166626 -932.961548
v -14.1333618 237.380402 -924.431824
v 22.765564 250.547211 -908.06366
v 61.5376282 258.555328 -897.087097
v -30.3358765 221.802277 -902.483215
v 5.41085815 234.151733 -884.574768
v 42.1803284 242.544861 -869.794922
v 81.3286743 247.966141 -862.720093
v -42.463623 204.384506 -880.16333
v -8.49557495 216.21048 -861.634155
v 26.896759 224.403275 -844.290039
v 64.036377 230.710373 -833.045227
v 102.821472 234.783783 -830.547791
v -50.6669006 183.455307 -857.54248
v -19.3702698 195.045898 -838.717773
v 14.1368408 203.748199 -819.886536
v 49.7915344 210.509247 -805.386292
v 86.756897 216.167068 -798.914062
v 123.534729 219.597702 -800.350647
v -138.800781 88.1790619 -969.718384
v -144.790131 72.8582611 -944.733459
v -148.775024 102.411667 -952.981689
v -143.090546 59.8512611 -919.062744
v -151.063843 89.141861 -926.607971
v -149.525604 117.095383 -935.188049
v -135.296112 48.4476814 -891.774292
v -145.883972 77.6502686 -899.445312
v -147.747406 104.608383 -907.453735
v -140.524841 130.677872 -916.010315
v -122.255371 37.470089 -862.398499
v -134.601166 66.3836212 -870.073669
v -138.936737 92.690506 -878.133606
v -134.587921 117.314606 -886.394104
v -122.578217 141.209137 -894.240784
v -104.438507 25.2040424 -831.611206
v -117.661255 53.6656799 -837.817444
v -123.700043 79.7234497 -845.474365
v -121.576447 103.519516 -853.77887
v -112.144623 125.878265 -861.763916
v -97.5726318 147.777557 -868.579712
v 53.3565674 -108.807114 -861.671509
v 72.9926147 -121.700195 -830.900269
v 28.9222107 -103.071564 -855.762207
v 90.5018311 -127.807861 -801.153381
v 46.9259949 -111.695267 -823.554504
v 4.09542847 -92.1030121 -847.800781
v 106.053955 -127.232605 -773.341064
v 63.3999634 -113.075623 -792.519165
v 21.0218506 -96.4267273 -815.22168
v -19.5802307 -75.4333038 -837.531677
v 119.856079 -119.473602 -747.838684
v 79.1397705 -107.094788 -762.989014
v 37.5272522 -93.0174408 -783.288086
v -2.82272339 -75.7901611 -804.520813
v -40.1079102 -54.1099091 -824.2901
v 131.845642 -103.990356 -724.585815
v 94.102417 -93.129425 -734.797791
v 54.149292 -81.0954437 -751.360107
v 14.0631104 -67.2709045 -771.083313
v -23.5866394 -49.985199 -790.637451
v -56.9708252 -28.7413559 -809.266907
v 275.458557 -101.171722 -809.460449
v 290.416199 -86.584671 -786.472412
v 270.387695 -117.328232 -784.618713
v 297.578186 -69.3999176 -764.309265
v 278.905579 -100.756958 -761.624695
v 258.894653 -126.457275 -762.82135
v 296.629456 -49.4178543 -743.516907
v 279.491333 -80.6906586 -739.970581
v 260.90802 -106.790817 -740.552673
v 240.634949 -127.521393 -743.708496
v 287.753601 -25.6967316 -724.852722
v 272.932129 -56.4060822 -720.043396
v 255.526733 -82.1651001 -719.504089
v 237.205444 -103.390396 -722.047546
v 217.112915 -119.64534 -726.592041
v 271.925781 1.81475639 -709.599182
v 258.775146 -27.0429573 -702.216614
v 243.001831 -52.1047668 -699.788147
v 225.75238 -72.867218 -701.0224
v 208.027344 -90.0035248 -705.179871
v 188.588623 -103.391571 -711.705872
v 262.624268 153.87677 -930.707703
v 257.997925 174.297729 -907.682312
v 281.561462 139.939331 -886.632324
v 247.960205 190.342514 -882.827087
v 272.642944 158.90239 -863.789001
v 293.470215 124.932037 -842.520203
v 232.068665 200.686615 -855.729614
v 257.432373 172.676453 -840.331238
v 279.002747 141.698608 -820.955383
v 296.334167 107.679123 -800.785461
v 211.279602 204.951889 -826.823181
v 236.47467 180.669693 -815.022583
v 257.994385 152.672562 -798.756592
v 275.662903 121.680832 -780.410645
v 289.647644 87.801239 -763.188721
v 186.623901 203.352264 -797.901428
v 211.293701 182.735947 -787.542664
v 232.571228 157.887894 -774.256104
v 250.144531 129.722839 -758.352966
v 263.721802 99.0922546 -742.961548
v 274.141296 66.6392059 -730.564087
v 61.0040894 61.2972832 -684.494019
v 78.9750366 80.5666504 -690.990906
v 32.7606506 74.7825317 -707.025635
v 97.4699097 102.396683 -702.443237
v 52.0758362 97.1645508 -715.424133
v 8.17654419 90.1118469 -732.10968
v 114.873718 127.039886 -717.334656
v 70.7233582 121.73877 -726.138855
v 28.5161743 115.143814 -740.192505
v -13.0328979 107.332092 -757.848572
v 130.113342 153.203461 -734.073547
v 87.2428589 148.390167 -737.967957
v 46.4729919 141.515854 -748.518311
v 7.0435791 134.158813 -764.563416
v -31.7438965 125.297577 -784.17572
v 142.259644 178.811356 -753.475403
v 101.255554 174.868149 -752.242859
v 61.3984375 168.545471 -758.628845
v 23.3345337 161.112671 -772.13147
v -13.2060852 152.788574 -790.991211
v -48.8795166 142.365677 -812.277954
v 151.638489 201.075989 -777.809998
v 113.339417 199.00412 -772.238586
v 74.6412048 193.725815 -774.220642
v 37.0184631 187.023071 -784.369934
v 1.45803833 179.2556 -801.579712
v -32.3522339 169.483765 -821.996338
v -64.8562317 157.261688 -842.575134
v 100.876648 59.7669487 -670.235413
v 138.289001 57.4041519 -664.25946
v 120.921753 81.148941 -679.955566
v 171.803772 54.1389389 -666.331299
v 158.113342 81.2657776 -678.084045
v 139.688965 104.671234 -696.041443
v 201.595825 49.8173485 -674.822388
v 190.664307 80.5250854 -683.670105
v 176.144592 106.503555 -698.5
v 156.420715 130.237991 -716.312317
v 229.191956 44.2536469 -687.841736
v 219.633484 77.8152313 -695.023682
v 207.765808 106.663376 -707.860901
v 191.552612 132.62706 -723.669312
v 170.009216 156.717361 -739.126526
v 256.195374 38.097187 -704.072327
v 246.936951 72.8489838 -710.840698
v 236.213989 104.113205 -722.86499
v 222.032593 132.621552 -737.800781
v 203.249329 158.678131 -752.76532
v 179.875305 181.836639 -765.52948
v 70.8751221 41.7822418 -672.508179
v 84.1114502 21.0457287 -667.481262
v 113.116943 37.8105774 -660.610413
v 99.7211914 -2.35590553 -669.698547
v 126.427795 14.2284336 -659.902771
v 150.361877 31.5093231 -658.620239
v 117.078369 -28.8980331 -677.827698
v 141.023071 -12.4011726 -666.362
v 162.73999 4.27388 -662.161682
v 182.999695 24.0517941 -664.422791
v 134.85553 -57.6189423 -689.954468
v 157.26123 -41.9007721 -677.975769
v 176.709656 -25.371563 -671.966675
v 195.40741 -7.01699448 -671.062439
v 212.849731 15.9230022 -675.63031
v 151.401001 -86.4211273 -704.569458
v 173.545898 -72.9259186 -693.326843
v 192.396606 -57.2789154 -686.388123
v 210.116394 -39.4726105 -683.350708
v 227.013916 -18.124321 -684.439514
v 242.367065 8.00370216 -690.620361
v 26.9316711 50.6903801 -695.801575
v -3.55300903 40.4743729 -711.809814
v 38.5003967 28.5704689 -685.854919
v -29.1483154 30.7122154 -731.538147
v 11.1805725 15.5123329 -704.75415
v 54.59729 5.70706177 -683.46814
v -49.6838074 21.43606 -753.738708
v -11.2093506 2.91742134 -727.720154
v 30.3033447 -9.67379379 -705.26355
v 73.4577332 -19.201767 -687.888123
v -65.5117798 12.6097908 -777.460938
v -29.6047974 -8.8247261 -753.224243
v 9.88937378 -24.4346199 -731.156128
v 51.4152222 -36.1063232 -711.581299
v 93.4333496 -46.4781418 -697.1651
v -77.3122253 3.90533638 -802.084961
v -44.9470215 -19.4792633 -780.282959
v -8.12988281 -38.1076965 -759.572815
v 31.723053 -52.3408661 -739.414551
v 72.6644592 -64.104599 -721.670349
v 112.929016 -75.3818054 -709.451355
v -4.75296021 65.3516388 -722.10907
v -29.8624268 81.8869934 -749.64801
v -36.2272949 57.3719978 -740.337952
v -49.9188538 99.5584106 -777.453064
v -60.7612915 75.3857117 -769.15686
v -61.4785461 50.1308937 -760.612061
v -66.8288879 117.124329 -806.177185
v -79.8863525 93.5530396 -798.342957
v -85.4454956 69.4943085 -789.885315
v -80.9002686 43.0224342 -782.456421
v -82.6173096 133.393234 -836.424866
v -96.4025879 110.660461 -828.925598
v -104.43811 87.7032928 -820.525146
v -104.240173 62.8968773 -812.504456
v -95.0070496 35.041008 -805.985229
g 
f 3 1 2
f 5 2 4
f 6 3 5
f 8 4 7
f 9 5 8
f 10 6 9
f 12 7 11
f 13 8 12
f 14 9 13
f 15 10 14
f 17 11 16
f 18 12 17
f 19 13 18
f 20 14 19
f 21 15 20
f 23 16 22
f 24 17 23
f 25 18 24
f 26 19 25
f 27 20 26
f 28 21 27
f 30 22 29
f 31 23 30
f 32 24 31
f 33 25 32
f 34 26 33
f 35 27 34
f 36 28 35
f 3 2 5
f 5 4 8
f 6 5 9
f 8 7 12
f 9 8 13
f 10 9 14
f 12 11 17
f 13 12 18
f 14 13 19
f 15 14 20
f 17 16 23
f 18 17 24
f 19 18 25
f 20 19 26
f 21 20 27
f 23 22 30
f 24 23 31
f 25 24 32
f 26 25 33
f 27 26 34
f 28 27 35
f 37 1 3
f 38 3 6
f 39 37 38
f 40 6 10
f 41 38 40
f 42 39 41
f 43 10 15
f 44 40 43
f 45 41 44
f 46 42 45
f 47 15 21
f 48 43 47
f 49 44 48
f 50 45 49
f 51 46 50
f 52 21 28
f 53 47 52
f 54 48 53
f 55 49 54
f 56 50 55
f 57 51 56
f 58 28 36
f 59 52 58
f 60 53 59
f 61 54 60
f 62 55 61
f 63 56 62
f 64 57 63
f 37 3 38
f 38 6 40
f 39 38 41
f 40 10 43
f 41 40 44
f 42 41 45
f 43 15 47
f 44 43 48
f 45 44 49
f 46 45 50
f 47 21 52
f 48 47 53
f 49 48 54
f 50 49 55
f 51 50 56
f 52 28 58
f 53 52 59
f 54 53 60
f 55 54 61
f 56 55 62
f 57 56 63
f 65 1 37
f 66 37 39
f 67 65 66
f 68 39 42
f 69 66 68
f 70 67 69
f 71 42 46
f 72 68 71
f 73 69 72
f 74 70 73
f 75 46 51
f 76 71 75
f 77 72 76
f 78 73 77
f 79 74 78
f 80 51 57
f 81 75 80
f 82 76 81
f 83 77 82
f 84 78 83
f 85 79 84
f 86 57 64
f 87 80 86
f 88 81 87
f 89 82 88
f 90 83 89
f 91 84 90
f 92 85 91
f 65 37 66
f 66 39 68
f 67 66 69
f 68 42 71
f 69 68 72
f 70 69 73
f 71 46 75
f 72 71 76
f 73 72 77
f 74 73 78
f 75 51 80
f 76 75 81
f 77 76 82
f 78 77 83
f 79 78 84
f 80 57 86
f 81 80 87
f 82 81 88
f 83 82 89
f 84 83 90
f 85 84 91
f 93 1 65
f 94 65 67
f 95 93 94
f 96 67 70
f 97 94 96
f 98 95 97
f 99 70 74
f 100 96 99
f 101 97 100
f 102 98 101
f 103 74 79
f 104 99 103
f 105 100 104
f 106 101 105
f 107 102 106
f 108 79 85
f 109 103 108
f 110 104 109
f 111 105 110
f 112 106 111
f 113 107 112
f 114 85 92
f 115 108 114
f 116 109 115
f 117 110 116
f 118 111 117
f 119 112 118
f 120 113 119
f 93 65 94
f 94 67 96
f 95 94 97
f 96 70 99
f 97 96 100
f 98 97 101
f 99 74 103
f 100 99 104
f 101 100 105
f 102 101 106
f 103 79 108
f 104 103 109
f 105 104 110
f 106 105 111
f 107 106 112
f 108 85 114
f 109 108 115
f 110 109 116
f 111 110 117
f 112 111 118
f 113 112 119
f 2 1 93
f 121 93 95
f 4 2 121
f 122 95 98
f 123 121 122
f 7 4 123
f 124 98 102
f 125 122 124
f 126 123 125
f 11 7 126
f 127 102 107
f 128 124 127
f 129 125 128
f 130 126 129
f 16 11 130
f 131 107 113
f 132 127 131
f 133 128 132
f 134 129 133
f 135 130 134
f 22 16 135
f 136 113 120
f 137 131 136
f 138 132 137
f 139 133 138
f 140 134 139
f 141 135 140
f 29 22 141
f 2 93 121
f 121 95 122
f 4 121 123
f 122 98 124
f 123 122 125
f 7 123 126
f 124 102 127
f 125 124 128
f 126 125 129
f 11 126 130
f 127 107 131
f 128 127 132
f 129 128 133
f 130 129 134
f 16 130 135
f 131 113 136
f 132 131 137
f 133 132 138
f 134 133 139
f 135 134 140
f 22 135 141
f 142 29 141
f 143 141 140
f 144 142 143
f 145 140 139
f 146 143 145
f 147 144 146
f 148 139 138
f 149 145 148
f 150 146 149
f 151 147 150
f 152 138 137
f 153 148 152
f 154 149 153
f 155 150 154
f 156 151 155
f 157 137 136
f 158 152 157
f 159 153 158
f 160 154 159
f 161 155 160
f 162 156 161
f 163 136 120
f 164 157 163
f 165 158 164
f 166 159 165
f 167 160 166
f 168 161 167
f 169 162 168
f 142 141 143
f 143 140 145
f 144 143 146
f 145 139 148
f 146 145 149
f 147 146 150
f 148 138 152
f 149 148 153
f 150 149 154
f 151 150 155
f 152 137 157
f 153 152 158
f 154 153 159
f 155 154 160
f 156 155 161
f 157 136 163
f 158 157 164
f 159 158 165
f 160 159 166
f 161 160 167
f 162 161 168
f 170 120 119
f 171 119 118
f 172 170 171
f 173 118 117
f 174 171 173
f 175 172 174
f 176 117 116
f 177 173 176
f 178 174 177
f 179 175 178
f 180 116 115
f 181 176 180
f 182 177 181
f 183 178 182
f 184 179 183
f 185 115 114
f 186 180 185
f 187 181 186
f 188 182 187
f 189 183 188
f 190 184 189
f 191 114 92
f 192 185 191
f 193 186 192
f 194 187 193
f 195 188 194
f 196 189 195
f 197 190 196
f 170 119 171
f 171 118 173
f 172 171 174
f 173 117 176
f 174 173 177
f 175 174 178
f 176 116 180
f 177 176 181
f 178 177 182
f 179 178 183
f 180 115 185
f 181 180 186
f 182 181 187
f 183 182 188
f 184 183 189
f 185 114 191
f 186 185 192
f 187 186 193
f 188 187 194
f 189 188 195
f 190 189 196
f 198 92 91
f 199 91 90
f 200 198 199
f 201 90 89
f 202 199 201
f 203 200 202
f 204 89 88
f 205 201 204
f 206 202 205
f 207 203 206
f 208 88 87
f 209 204 208
f 210 205 209
f 211 206 210
f 212 207 211
f 213 87 86
f 214 208 213
f 215 209 214
f 216 210 215
f 217 211 216
f 218 212 217
f 219 86 64
f 220 213 219
f 221 214 220
f 222 215 221
f 223 216 222
f 224 217 223
f 225 218 224
f 198 91 199
f 199 90 201
f 200 199 202
f 201 89 204
f 202 201 205
f 203 202 206
f 204 88 208
f 205 204 209
f 206 205 210
f 207 206 211
f 208 87 213
f 209 208 214
f 210 209 215
f 211 210 216
f 212 211 217
f 213 86 219
f 214 213 220
f 215 214 221
f 216 215 222
f 217 216 223
f 218 217 224
f 226 64 63
f 227 63 62
f 228 226 227
f 229 62 61
f 230 227 229
f 231 228 230
f 232 61 60
f 233 229 232
f 234 230 233
f 235 231 234
f 236 60 59
f 237 232 236
f 238 233 237
f 239 234 238
f 240 235 239
f 241 59 58
f 242 236 241
f 243 237 242
f 244 238 243
f 245 239 244
f 246 240 245
f 247 58 36
f 248 241 247
f 249 242 248
f 250 243 249
f 251 244 250
f 252 245 251
f 253 246 252
f 226 63 227
f 227 62 229
f 228 227 230
f 229 61 232
f 230 229 233
f 231 230 234
f 232 60 236
f 233 232 237
f 234 233 238
f 235 234 239
f 236 59 241
f 237 236 242
f 238 237 243
f 239 238 244
f 240 239 245
f 241 58 247
f 242 241 248
f 243 242 249
f 244 243 250
f 245 244 251
f 246 245 252
f 254 36 35
f 255 35 34
f 256 254 255
f 257 34 33
f 258 255 257
f 259 256 258
f 260 33 32
f 261 257 260
f 262 258 261
f 263 259 262
f 264 32 31
f 265 260 264
f 266 261 265
f 267 262 266
f 268 263 267
f 269 31 30
f 270 264 269
f 271 265 270
f 272 266 271
f 273 267 272
f 274 268 273
f 275 30 29
f 276 269 275
f 277 270 276
f 278 271 277
f 279 272 278
f 280 273 279
f 281 274 280
f 254 35 255
f 255 34 257
f 256 255 258
f 257 33 260
f 258 257 261
f 259 258 262
f 260 32 264
f 261 260 265
f 262 261 266
f 263 262 267
f 264 31 269
f 265 264 270
f 266 265 271
f 267 266 272
f 268 267 273
f 269 30 275
f 270 269 276
f 271 270 277
f 272 271 278
f 273 272 279
f 274 273 280
f 275 29 142
f 282 142 144
f 276 275 282
f 283 144 147
f 284 282 283
f 277 276 284
f 285 147 151
f 286 283 285
f 287 284 286
f 278 277 287
f 288 151 156
f 289 285 288
f 290 286 289
f 291 287 290
f 279 278 291
f 292 156 162
f 293 288 292
f 294 289 293
f 295 290 294
f 296 291 295
f 280 279 296
f 297 162 169
f 298 292 297
f 299 293 298
f 300 294 299
f 301 295 300
f 302 296 301
f 281 280 302
f 275 142 282
f 282 144 283
f 276 282 284
f 283 147 285
f 284 283 286
f 277 284 287
f 285 151 288
f 286 285 289
f 287 286 290
f 278 287 291
f 288 156 292
f 289 288 293
f 290 289 294
f 291 290 295
f 279 291 296
f 292 162 297
f 293 292 298
f 294 293 299
f 295 294 300
f 296 295 301
f 280 296 302
f 163 120 170
f 303 170 172
f 164 163 303
f 304 172 175
f 305 303 304
f 165 164 305
f 306 175 179
f 307 304 306
f 308 305 307
f 166 165 308
f 309 179 184
f 310 306 309
f 311 307 310
f 312 308 311
f 167 166 312
f 313 184 190
f 314 309 313
f 315 310 314
f 316 311 315
f 317 312 316
f 168 167 317
f 318 190 197
f 319 313 318
f 320 314 319
f 321 315 320
f 322 316 321
f 323 317 322
f 169 168 323
f 163 170 303
f 303 172 304
f 164 303 305
f 304 175 306
f 305 304 307
f 165 305 308
f 306 179 309
f 307 306 310
f 308 307 311
f 166 308 312
f 309 184 313
f 310 309 314
f 311 310 315
f 312 311 316
f 167 312 317
f 313 190 318
f 314 313 319
f 315 314 320
f 316 315 321
f 317 316 322
f 168 317 323
f 191 92 198
f 324 198 200
f 192 191 324
f 325 200 203
f 326 324 325
f 193 192 326
f 327 203 207
f 328 325 327
f 329 326 328
f 194 193 329
f 330 207 212
f 331 327 330
f 332 328 331
f 333 329 332
f 195 194 333
f 334 212 218
f 335 330 334
f 336 331 335
f 337 332 336
f 338 333 337
f 196 195 338
f 339 218 225
f 340 334 339
f 341 335 340
f 342 336 341
f 343 337 342
f 344 338 343
f 197 196 344
f 191 198 324
f 324 200 325
f 192 324 326
f 325 203 327
f 326 325 328
f 193 326 329
f 327 207 330
f 328 327 331
f 329 328 332
f 194 329 333
f 330 212 334
f 331 330 335
f 332 331 336
f 333 332 337
f 195 333 338
f 334 218 339
f 335 334 340
f 336 335 341
f 337 336 342
f 338 337 343
f 196 338 344
f 219 64 226
f 345 226 228
f 220 219 345
f 346 228 231
f 347 345 346
f 221 220 347
f 348 231 235
f 349 346 348
f 350 347 349
f 222 221 350
f 351 235 240
f 352 348 351
f 353 349 352
f 354 350 353
f 223 222 354
f 355 240 246
f 356 351 355
f 357 352 356
f 358 353 357
f 359 354 358
f 224 223 359
f 360 246 253
f 361 355 360
f 362 356 361
f 363 357 362
f 364 358 363
f 365 359 364
f 225 224 365
f 219 226 345
f 345 228 346
f 220 345 347
f 346 231 348
f 347 346 349
f 221 347 350
f 348 235 351
f 349 348 352
f 350 349 353
f 222 350 354
f 351 240 355
f 352 351 356
f 353 352 357
f 354 353 358
f 223 354 359
f 355 246 360
f 356 355 361
f 357 356 362
f 358 357 363
f 359 358 364
f 224 359 365
f 247 36 254
f 366 254 256
f 248 247 366
f 367 256 259
f 368 366 367
f 249 248 368
f 369 259 263
f 370 367 369
f 371 368 370
f 250 249 371
f 372 263 268
f 373 369 372
f 374 370 373
f 375 371 374
f 251 250 375
f 376 268 274
f 377 372 376
f 378 373 377
f 379 374 378
f 380 375 379
f 252 251 380
f 381 274 281
f 382 376 381
f 383 377 382
f 384 378 383
f 385 379 384
f 386 380 385
f 253 252 386
f 247 254 366
f 366 256 367
f 248 366 368
f 367 259 369
f 368 367 370
f 249 368 371
f 369 263 372
f 370 369 373
f 371 370 374
f 250 371 375
f 372 268 376
f 373 372 377
f 374 373 378
f 375 374 379
f 251 375 380
f 376 274 381
f 377 376 382
f 378 377 383
f 379 378 384
f 380 379 385
f 252 380 386
f 389 387 388
f 391 388 390
f 392 389 391
f 394 390 393
f 395 391 394
f 396 392 395
f 398 393 397
f 399 394 398
f 400 395 399
f 401 396 400
f 403 397 402
f 404 398 403
f 405 399 404
f 406 400 405
f 407 401 406
f 409 402 408
f 410 403 409
f 411 404 410
f 412 405 411
f 413 406 412
f 414 407 413
f 302 408 281
f 301 409 302
f 300 410 301
f 299 411 300
f 298 412 299
f 297 413 298
f 169 414 297
f 389 388 391
f 391 390 394
f 392 391 395
f 394 393 398
f 395 394 399
f 396 395 400
f 398 397 403
f 399 398 404
f 400 399 405
f 401 400 406
f 403 402 409
f 404 403 410
f 405 404 411
f 406 405 412
f 407 406 413
f 409 408 302
f 410 409 301
f 411 410 300
f 412 411 299
f 413 412 298
f 414 413 297
f 388 387 415
f 417 415 416
f 390 388 417
f 419 416 418
f 420 417 419
f 393 390 420
f 422 418 421
f 423 419 422
f 424 420 423
f 397 393 424
f 426 421 425
f 427 422 426
f 428 423 427
f 429 424 428
f 402 397 429
f 431 425 430
f 432 426 431
f 433 427 432
f 434 428 433
f 435 429 434
f 408 402 435
f 386 430 253
f 385 431 386
f 384 432 385
f 383 433 384
f 382 434 383
f 381 435 382
f 281 408 381
f 388 415 417
f 417 416 419
f 390 417 420
f 419 418 422
f 420 419 423
f 393 420 424
f 422 421 426
f 423 422 427
f 424 423 428
f 397 424 429
f 426 425 431
f 427 426 432
f 428 427 433
f 429 428 434
f 402 429 435
f 431 430 386
f 432 431 385
f 433 432 384
f 434 433 383
f 435 434 382
f 408 435 381
f 415 387 436
f 438 436 437
f 416 415 438
f 440 437 439
f 441 438 440
f 418 416 441
f 443 439 442
f 444 440 443
f 445 441 444
f 421 418 445
f 447 442 446
f 448 443 447
f 449 444 448
f 450 445 449
f 425 421 450
f 452 446 451
f 453 447 452
f 454 448 453
f 455 449 454
f 456 450 455
f 430 425 456
f 365 451 225
f 364 452 365
f 363 453 364
f 362 454 363
f 361 455 362
f 360 456 361
f 253 430 360
f 415 436 438
f 438 437 440
f 416 438 441
f 440 439 443
f 441 440 444
f 418 441 445
f 443 442 447
f 444 443 448
f 445 444 449
f 421 445 450
f 447 446 452
f 448 447 453
f 449 448 454
f 450 449 455
f 425 450 456
f 452 451 365
f 453 452 364
f 454 453 363
f 455 454 362
f 456 455 361
f 430 456 360
f 436 387 457
f 459 457 458
f 437 436 459
f 461 458 460
f 462 459 461
f 439 437 462
f 464 460 463
f 465 461 464
f 466 462 465
f 442 439 466
f 468 463 467
f 469 464 468
f 470 465 469
f 471 466 470
f 446 442 471
f 473 467 472
f 474 468 473
f 475 469 474
f 476 470 475
f 477 471 476
f 451 446 477
f 344 472 197
f 343 473 344
f 342 474 343
f 341 475 342
f 340 476 341
f 339 477 340
f 225 451 339
f 436 457 459
f 459 458 461
f 437 459 462
f 461 460 464
f 462 461 465
f 439 462 466
f 464 463 468
f 465 464 469
f 466 465 470
f 442 466 471
f 468 467 473
f 469 468 474
f 470 469 475
f 471 470 476
f 446 471 477
f 473 472 344
f 474 473 343
f 475 474 342
f 476 475 341
f 477 476 340
f 451 477 339
f 457 387 389
f 478 389 392
f 458 457 478
f 479 392 396
f 480 478 479
f 460 458 480
f 481 396 401
f 482 479 481
f 483 480 482
f 463 460 483
f 484 401 407
f 485 481 484
f 486 482 485
f 487 483 486
f 467 463 487
f 488 407 414
f 489 484 488
f 490 485 489
f 491 486 490
f 492 487 491
f 472 467 492
f 323 414 169
f 322 488 323
f 321 489 322
f 320 490 321
f 319 491 320
f 318 492 319
f 197 472 318
f 457 389 478
f 478 392 479
f 458 478 480
f 479 396 481
f 480 479 482
f 460 480 483
f 481 401 484
f 482 481 485
f 483 482 486
f 463 483 487
f 484 407 488
f 485 484 489
f 486 485 490
f 487 486 491
f 467 487 492
f 488 414 323
f 489 488 322
f 490 489 321
f 491 490 320
f 492 491 319
f 472 492 318
