# File exported by Houdini 20.5.445 (www.sidefx.com)
# 492 points
# 2940 vertices
# 980 primitives
# Bounds: [-150.810242, -161.456482, -1093.04358] to [321.584167, 277.833588, -661.757446]
g 
v 72.1844482 88.9268646 -1031.21997
v 72.9680786 123.475899 -1054.6925
v 98.8010254 95.6505814 -1033.93872
v 77.7127686 156.536835 -1073.91406
v 102.879639 134.808105 -1057.08948
v 124.932678 102.40609 -1035.64746
v 82.3215942 186.498291 -1085.84741
v 108.952148 171.034332 -1072.78333
v 129.593811 144.9729 -1056.56995
v 150.359131 109.792717 -1035.41907
v 83.2692261 212.020569 -1087.64648
v 112.635437 203.0755 -1078.77026
v 134.566223 183.146973 -1067.23242
v 153.511108 154.148926 -1052.49268
v 175.182495 118.40023 -1031.61414
v 78.6752319 232.441406 -1078.36755
v 111.132019 229.853302 -1073.61499
v 136.089233 216.152893 -1066.49756
v 156.376526 192.958405 -1057.1792
v 175.65741 162.618835 -1043.58472
v 199.350708 128.158447 -1022.30798
v 68.6704712 248.009277 -1059.49756
v 103.244141 250.807922 -1057.61353
v 131.947998 243.240356 -1054.01624
v 155.606018 225.82135 -1049.15918
v 176.078613 200.493286 -1041.45703
v 197.03009 170.282867 -1028.08093
v 222.098633 138.086792 -1005.76221
v 55.2880554 259.078003 -1033.92126
v 89.5765991 265.962006 -1032.5199
v 121.108887 263.873718 -1030.47644
v 149.094482 252.205536 -1028.37805
v 173.366577 232.02243 -1025.11768
v 195.269714 205.726227 -1017.91833
v 217.758728 176.577728 -1003.79614
v 242.155029 146.917389 -981.111084
v 92.6244507 57.243576 -1007.60754
v 120.741638 60.8879356 -1009.46716
v 116.061646 24.4909306 -982.885864
v 148.452332 66.1373138 -1010.76282
v 146.216431 27.8712845 -984.641968
v 142.289307 -7.36127472 -958.318848
v 176.155884 74.0965424 -1009.62085
v 176.103516 34.6930161 -984.734131
v 174.274719 -1.64414406 -959.184692
v 170.032959 -36.3639603 -934.198486
v 203.844055 85.05159 -1003.74817
v 206.155396 45.4762955 -980.768433
v 205.985107 8.53796196 -956.383545
v 203.086731 -26.7820129 -932.495239
v 197.338501 -61.0572662 -910.009033
v 230.882446 98.2178116 -990.943481
v 236.314636 59.7348671 -970.439819
v 237.989624 22.8320065 -947.533447
v 235.940552 -12.8332405 -924.859009
v 230.518677 -47.4954147 -903.958252
v 222.466858 -80.7540207 -885.176147
v 255.161682 111.865562 -968.690308
v 265.189392 76.120285 -950.987549
v 270.05426 40.2882423 -930.033203
v 269.19458 4.68961716 -908.685303
v 263.602173 -30.3606224 -889.451904
v 254.719727 -64.1617355 -873.167603
v 244.094482 -95.3587112 -859.376587
v 59.539917 63.5816612 -1013.46411
v 84.4472656 28.7440147 -986.015015
v 51.6333008 38.6998558 -994.701172
v 110.94043 -5.84295654 -959.234985
v 80.7658691 2.07000732 -965.207275
v 48.347168 13.5330944 -975.608032
v 138.779419 -38.8555832 -934.316406
v 109.77124 -33.6991959 -937.727783
v 80.8510742 -23.9706345 -945.522461
v 48.7974243 -12.2307205 -957.30957
v 167.031311 -68.7392349 -910.73584
v 138.816589 -67.5844193 -912.655273
v 111.590149 -60.5011826 -917.662109
v 83.3980713 -49.8879471 -927.045776
v 51.2453613 -38.1855698 -940.596436
v 194.638916 -94.0389786 -887.133423
v 167.790039 -98.194664 -888.618652
v 141.597839 -95.0174179 -891.637451
v 115.095276 -86.5003738 -898.303589
v 86.5297852 -75.1292953 -909.776367
v 53.9613037 -62.9966583 -925.051147
v 220.590027 -113.565498 -862.009155
v 196.425293 -123.776024 -863.556519
v 171.579956 -125.83091 -865.421753
v 145.680847 -120.693886 -869.920288
v 118.32135 -110.367867 -878.9375
v 88.5168457 -97.7934341 -892.815063
v 55.6627502 -84.5119858 -909.557739
v 44.0019531 102.136757 -1042.65356
v 28.1260071 75.6642456 -1023.9458
v 15.4410706 111.505806 -1050.81921
v 19.2839966 49.5592766 -1004.58655
v -1.46585083 83.126358 -1029.87854
v -12.9477539 116.423378 -1053.48523
v 15.820343 23.070694 -985.604736
v -10.1937866 55.2382698 -1009.86633
v -29.3705444 86.2646179 -1031.04163
v -40.2609253 117.099007 -1049.83667
v 16.0594482 -4.20273209 -968.178101
v -13.8192749 27.0496521 -991.516846
v -37.7764282 56.6319771 -1011.25415
v -55.4147644 85.5301361 -1027.58643
v -65.7644043 114.024605 -1040.58105
v 18.2175598 -31.9128952 -951.954346
v -14.1777039 -2.00946426 -974.661377
v -41.7808228 26.7285461 -993.193481
v -63.6324158 54.5137024 -1007.93286
v -79.4124451 81.6177673 -1019.08826
v -88.9554443 108.134941 -1026.62256
v 20.7976074 -58.3734665 -935.344849
v -12.7900696 -31.2397003 -957.577881
v -43.0386353 -3.76396942 -975.285522
v -68.3066711 23.5135727 -988.614746
v -87.7445374 50.2155266 -998.312622
v -101.313385 76.1680756 -1005.05505
v -109.780151 101.232475 -1009.08728
v 44.030304 136.487701 -1066.95691
v 14.440094 143.659088 -1073.61426
v 47.4587097 166.379272 -1084.7052
v -15.1993103 145.503204 -1072.13611
v 16.0661926 169.437439 -1087.57703
v 49.7294922 191.352112 -1093.04358
v -44.1958923 143.059418 -1062.28625
v -15.7694702 167.36322 -1080.40649
v 15.7290955 189.70694 -1090.64478
v 47.8094482 211.535004 -1089.88586
v -72.3608704 136.952057 -1045.76196
v -48.0204163 161.437592 -1063.76184
v -19.4448853 183.690826 -1077.06018
v 10.6561584 205.656036 -1081.49231
v 40.4037781 227.591614 -1074.99121
v -99.5214233 128.377533 -1024.13855
v -81.0857544 152.555511 -1039.74854
v -56.600708 174.716675 -1053.34326
v -28.8510437 196.554443 -1061.15295
v -0.15838623 218.791748 -1060.18335
v 28.0588989 240.364685 -1050.05762
v 24.690094 255.025879 -1015.66309
v -7.39108276 232.763977 -1030.04688
v -4.29473877 246.986084 -995.233276
v -37.8661194 209.207825 -1036.26453
v -39.2202148 222.973236 -1007.39661
v -29.7675781 236.804962 -973.737305
v -66.6418762 186.140228 -1033.76062
v -70.5896912 198.934814 -1010.37903
v -65.9896545 212.932587 -983.550293
v -50.7630005 225.629272 -951.446289
v -92.3269653 163.689758 -1024.31885
v -98.4330444 175.808899 -1005.40918
v -97.1378784 189.471375 -983.776855
v -86.7122498 202.93222 -958.81189
v -66.4111633 212.817566 -928.381348
v -112.597473 140.000519 -1011.17273
v -121.334595 152.214447 -995.150635
v -123.131256 165.727966 -977.007446
v -116.11264 179.224182 -956.716797
v -100.152649 190.375275 -933.179932
v -76.5210266 196.823669 -904.954834
v -124.684692 112.603081 -997.355469
v -136.330109 125.138832 -982.696777
v -141.680969 138.748352 -966.121338
v -138.471802 152.556335 -948.210449
v -126.41983 164.832275 -928.722168
v -106.995605 173.525848 -906.737915
v -82.7615662 177.984009 -881.739502
v -122.598419 80.3633423 -988.442993
v -110.062531 51.4722099 -984.049316
v -129.831787 61.9180794 -967.246216
v -92.2155151 23.1388016 -977.774414
v -112.94455 30.2098198 -962.927856
v -131.102722 45.8318939 -944.740723
v -68.6720581 -4.83481979 -968.734863
v -90.8404541 0.0717506409 -956.735107
v -110.517792 12.4559689 -940.370728
v -126.59964 31.9848442 -920.088501
v -39.4642334 -32.5368805 -955.287476
v -63.3256531 -28.8748398 -947.055176
v -84.6471558 -18.8447495 -933.367798
v -103.003052 -2.30363655 -915.209839
v -117.224457 20.0408077 -893.474609
v -4.99981689 -59.802742 -935.854614
v -29.8495789 -56.9549103 -931.392212
v -52.9299622 -48.787468 -921.312622
v -73.7715454 -34.3903427 -906.481812
v -90.9172668 -14.9012947 -887.399414
v -103.685211 8.66337967 -865.951416
v 33.7281189 -86.3131332 -909.822388
v 10.0568542 -84.1511765 -907.40625
v -14.0080261 -77.4034348 -900.817139
v -37.1736145 -65.2264481 -889.947632
v -57.6945801 -47.7220154 -875.054199
v -74.0013123 -26.4959412 -857.005737
v -86.0858765 -2.69480896 -838.266357
v 77.4784546 -109.310783 -881.983276
v 113.75354 -124.80117 -863.233398
v 98.1997681 -127.654335 -852.924561
v 145.263611 -137.73999 -850.373901
v 136.371887 -143.302887 -835.253296
v 116.882263 -139.437775 -823.91687
v 173.64624 -145.763519 -843.250122
v 168.804932 -154.357574 -824.718994
v 155.762573 -153.805603 -808.988403
v 133.028625 -144.748352 -796.212891
v 199.847046 -146.442444 -840.036743
v 197.686523 -158.528046 -819.276123
v 188.573059 -161.456482 -800.720459
v 171.693298 -156.348053 -784.31665
v 146.766541 -143.05838 -770.648071
v 224.308105 -137.915497 -838.298462
v 224.007141 -153.758087 -816.318237
v 217.525757 -160.736633 -796.091309
v 204.164429 -159.561371 -777.615234
v 184.17157 -150.503357 -761.200806
v 157.98175 -133.709503 -747.70459
v 247.887207 -119.144051 -835.799927
v 248.501404 -137.651276 -813.281494
v 243.92804 -148.950409 -792.06897
v 232.689148 -152.343048 -772.547119
v 215.203186 -147.783783 -754.872925
v 192.801575 -135.561707 -739.560791
v 166.373108 -117.063972 -727.547729
v 268.448364 -86.0669479 -839.746582
v 281.841797 -49.5282288 -852.267578
v 288.194397 -71.7562943 -818.192749
v 292.096008 -12.5610733 -867.760498
v 302.641663 -31.7593918 -830.296631
v 302.144043 -54.55056 -796.113892
v 297.079651 24.0263844 -886.44812
v 312.034729 6.84427452 -845.578735
v 315.841248 -12.9878197 -808.367432
v 308.542297 -35.8865891 -774.746948
v 294.535156 60.2769051 -906.664551
v 313.441711 44.3395653 -863.178955
v 321.584167 26.6893959 -822.806763
v 319.209351 6.28056717 -786.537598
v 306.29895 -15.4970627 -754.811157
v 284.290222 96.6611099 -926.389771
v 306.023682 81.6443329 -882.215576
v 318.324951 65.596344 -839.401001
v 320.574219 47.2778473 -800.311157
v 313.055603 27.0527573 -766.193604
v 296.2146 7.25711441 -737.567749
v 268.268677 133.665222 -943.633545
v 290.629639 120.172295 -901.530884
v 306.112122 105.602303 -858.173218
v 312.598877 88.9831848 -816.911987
v 309.662537 69.9968567 -780.203491
v 298.156189 50.188797 -749.212891
v 279.97699 31.9541321 -724.219604
v 243.114807 171.828735 -966.25061
v 216.704834 203.467316 -986.057617
v 240.123962 194.091919 -946.765503
v 191.482056 231.905304 -995.897339
v 211.097107 225.204834 -963.426025
v 232.609253 212.687714 -924.061523
v 165.029785 254.932709 -999.289307
v 182.307983 250.589508 -969.672974
v 200.975891 240.853241 -937.129639
v 220.126404 225.767487 -898.671875
v 135.067383 270.018219 -1000.0647
v 150.899597 268.587494 -970.377075
v 168.385071 261.302185 -940.253174
v 186.22467 249.11261 -907.814209
v 202.650452 231.965027 -871.297607
v 101.359314 275.847137 -1001.30676
v 115.282043 277.833588 -970.108643
v 131.739136 273.311371 -939.443726
v 149.555725 263.541687 -908.707764
v 166.608826 249.512146 -876.954712
v 181.691589 231.617981 -843.614502
v 64.1671143 271.707642 -1003.89734
v 75.5539551 277.45517 -971.757935
v 90.1668701 276.116791 -939.143188
v 107.485352 268.80072 -907.187622
v 125.832153 257.130615 -876.328003
v 143.205933 242.914062 -846.382324
v 158.653992 225.841461 -817.952637
v 34.668335 266.675262 -981.24292
v 9.16845703 256.952087 -958.566895
v 48.1917114 270.044495 -945.619385
v -12.1154785 244.515686 -936.13269
v 25.9321289 257.642975 -920.91272
v 65.0020142 265.729523 -909.949097
v -29.5153198 230.25119 -913.718994
v 7.54940796 242.545624 -897.31958
v 45.067749 250.710785 -883.128906
v 84.197998 255.973206 -875.628296
v -42.756897 212.984467 -890.919556
v -7.73251343 225.196228 -874.233276
v 28.5888672 233.382111 -858.025879
v 66.0756226 239.273743 -846.747314
v 104.858154 242.851471 -843.488403
v -52.5341187 191.718842 -867.780884
v -20.0809326 203.456909 -851.047607
v 14.4856567 212.394257 -833.927734
v 50.7687988 218.884125 -820.025635
v 87.9345093 223.908844 -812.977905
v 124.391113 226.863068 -812.901123
v -138.603973 94.1597977 -973.472168
v -144.305908 78.7037201 -949.589844
v -148.369781 108.88485 -956.45459
v -142.848877 65.4663391 -924.501465
v -150.810242 95.5776443 -930.590332
v -149.979706 123.99131 -938.294067
v -135.539795 53.7969704 -897.338257
v -146.22168 84.0917053 -903.411133
v -148.924194 111.826637 -910.694092
v -142.541901 138.274475 -919.146484
v -123.158417 42.1858521 -868.270386
v -135.692352 72.7762146 -873.732056
v -140.959503 100.327309 -881.107178
v -137.850159 125.567268 -889.388184
v -126.145325 149.618256 -898.241211
v -105.725891 28.9046021 -838.281372
v -119.578827 59.4617195 -841.550781
v -126.685242 87.4433136 -848.062256
v -125.972778 112.448509 -856.390747
v -117.252838 135.157593 -865.518433
v -102.107788 156.71048 -874.254395
v 54.5422974 -107.906013 -879.11377
v 73.3164673 -121.682457 -847.270264
v 29.6561279 -101.964363 -874.174683
v 90.0801392 -128.852142 -815.712646
v 46.9942932 -111.896782 -840.655151
v 4.38735962 -91.5327682 -866.249756
v 105.395752 -129.388397 -785.654419
v 63.117981 -114.597603 -807.551758
v 20.9942322 -97.2912827 -831.971191
v -19.6826782 -75.3419266 -855.044556
v 119.398499 -122.443336 -757.771362
v 78.8203735 -109.564125 -775.442383
v 37.3667297 -94.9084091 -797.773438
v -3.00387573 -76.7532578 -820.160156
v -40.4940491 -53.9945526 -839.890137
v 131.966736 -107.223839 -732.391846
v 94.1592407 -95.8366928 -744.563354
v 54.1871643 -83.2505722 -763.142578
v 14.0767212 -68.5860825 -784.202637
v -23.7352295 -50.3306961 -804.020142
v -57.4525146 -28.0382233 -821.750977
v 269.860168 -109.059883 -813.070557
v 284.813416 -93.6474075 -789.950684
v 266.267578 -125.38195 -789.353027
v 292.016663 -74.9898453 -767.502319
v 274.969727 -107.758583 -766.200806
v 256.007629 -134.014008 -768.241943
v 291.639038 -53.6199875 -746.642334
v 275.25592 -86.125267 -744.32959
v 258.264587 -113.316689 -745.768921
v 239.068726 -134.236847 -749.236328
v 284.031311 -28.6926537 -727.994385
v 268.781006 -60.0111923 -724.112915
v 252.777222 -86.9789658 -724.436035
v 235.953064 -109.057045 -727.344727
v 216.593445 -125.396126 -732.067749
v 269.26123 0.216136932 -712.27771
v 255.619507 -28.9226303 -706.063843
v 240.198425 -54.3896408 -704.265381
v 224.582031 -76.3817215 -706.069458
v 207.955933 -94.3214798 -710.4104
v 188.882141 -107.883659 -717.213745
v 267.703308 158.41153 -924.264282
v 261.940491 179.562744 -902.804443
v 286.364319 144.445831 -880.112915
v 250.655518 196.15451 -880.143433
v 276.056641 163.85202 -858.724487
v 296.786072 128.615417 -836.719116
v 233.426819 206.874634 -856.352905
v 259.514709 177.827393 -837.326782
v 280.936218 145.62384 -816.476562
v 297.726501 109.956535 -796.402832
v 211.522217 211.198792 -831.017212
v 237.106262 185.940277 -815.054321
v 258.635803 156.841278 -796.203491
v 276.005066 124.417442 -777.144043
v 289.282288 88.8480835 -760.534912
v 186.295044 209.252686 -805.289795
v 210.841614 187.810822 -791.067627
v 231.804932 162.107758 -774.15332
v 248.562378 133.058563 -756.678467
v 261.695496 101.323967 -741.119263
v 272.240112 67.3913879 -729.772217
v 55.8234863 72.7419281 -685.622192
v 72.8018799 92.0207672 -692.319702
v 26.1276855 86.1694794 -708.605713
v 91.9212646 112.044838 -704.466187
v 45.1737671 107.967903 -718.554077
v 0.531005859 100.92878 -735.228394
v 110.665649 134.435364 -721.400391
v 65.4421387 130.350067 -731.909912
v 21.855957 124.849281 -746.378052
v -20.6803589 117.378563 -763.17334
v 127.555054 158.832916 -741.406372
v 84.2642822 154.877167 -747.428467
v 42.4117432 149.211945 -758.849243
v 1.54351807 142.826599 -774.020874
v -38.4919128 134.596985 -791.562012
v 141.319092 183.698425 -763.418701
v 100.429016 180.529327 -764.624756
v 60.2137756 174.956024 -772.220215
v 20.9706726 168.560333 -785.405151
v -17.1564331 160.911774 -802.259644
v -54.2062073 151.184113 -820.818237
v 151.41687 206.752594 -788.458374
v 113.596375 205.138824 -785.407471
v 74.963623 200.559845 -788.876831
v 36.8574829 194.431213 -799.188477
v 0.0918884277 187.127045 -815.082397
v -35.160675 177.606079 -833.212402
v -69.0632935 165.88208 -850.98584
v 95.9191284 71.0394592 -671.613159
v 133.629822 67.1456146 -665.925415
v 115.615845 91.4165955 -680.787354
v 167.429749 61.4238625 -668.316162
v 153.221558 89.6038666 -678.755005
v 134.904419 112.975426 -696.992798
v 197.614319 54.4360085 -676.981445
v 185.909302 86.6544189 -684.354248
v 171.531555 113.124336 -698.904053
v 152.680054 136.55069 -718.61084
v 225.848206 46.4600639 -689.827026
v 215.231934 81.8612518 -695.543213
v 203.3396 111.719826 -707.772949
v 188.106934 137.871674 -724.655518
v 167.786682 161.616455 -744.045776
v 253.728943 38.4859428 -705.498169
v 243.55658 75.1122131 -710.807007
v 232.538513 107.722298 -722.053711
v 219.147949 136.882935 -737.586304
v 201.558167 163.152649 -755.292969
v 178.99353 186.603912 -772.485352
v 67.8429565 51.7726593 -674.390991
v 83.112854 28.4682732 -670.812378
v 109.801331 47.2523346 -663.17041
v 100.514587 1.88201523 -674.459717
v 125.013611 20.5703583 -663.725586
v 146.809631 39.3261375 -661.757446
v 118.82782 -27.7773285 -683.490967
v 141.505859 -9.51849747 -671.050049
v 160.914917 9.00014687 -666.296631
v 179.721191 29.1960068 -667.866943
v 136.207703 -58.9641037 -695.886475
v 158.446106 -42.1350937 -683.114502
v 176.612488 -24.1413422 -676.599854
v 193.480164 -4.54698944 -675.207153
v 210.159546 18.2512684 -679.049438
v 152.166077 -89.5366745 -710.686768
v 174.405212 -75.6621628 -698.657715
v 192.546204 -59.1191559 -691.403198
v 208.786926 -39.9844894 -687.922363
v 224.82666 -18.0455284 -688.446289
v 240.067017 7.96365738 -693.7323
v 22.8988037 61.0955315 -697.163696
v -6.24755859 49.2977066 -713.947388
v 37.1829224 36.8011665 -688.564697
v -30.6952515 37.6813889 -734.893188
v 11.1854553 21.6563282 -708.9823
v 55.3338928 11.0150757 -688.193726
v -50.5474548 26.6117706 -758.662354
v -10.5913391 7.06993294 -733.854858
v 31.7632141 -6.40794754 -711.85498
v 75.2556763 -16.9155464 -694.233032
v -66.3512268 16.1693096 -783.973877
v -29.300415 -6.39316559 -761.240112
v 10.9033813 -22.9244232 -739.746948
v 52.7233887 -35.4609909 -719.752686
v 94.8293457 -46.767067 -704.181152
v -78.1937866 6.31256294 -810.471558
v -45.1047974 -18.2892761 -790.406494
v -7.77557373 -37.8984756 -770.401611
v 32.2915955 -53.0253677 -749.905518
v 73.3215332 -65.5822525 -730.794189
v 113.688049 -77.5681992 -716.836792
v -10.7049561 75.9265289 -723.717041
v -37.2036438 92.2173767 -752.345825
v -40.9345398 66.6386414 -742.302368
v -57.710968 109.557915 -781.540039
v -67.0615234 84.8853607 -771.465576
v -64.9375305 57.9102898 -763.205688
v -74.0925293 126.858681 -811.295898
v -86.9090576 103.216255 -801.188354
v -90.2265015 77.959137 -792.220093
v -83.306366 49.2598381 -786.06897
v -88.5450439 142.847229 -842.127319
v -102.854004 120.394814 -832.317749
v -109.626068 96.64785 -822.896484
v -107.496033 70.0404663 -815.268066
v -96.8373108 39.7699623 -810.818481
g 
f 3 1 2
f 5 2 4
f 6 3 5
f 8 4 7
f 9 5 8
f 10 6 9
f 12 7 11
f 13 8 12
f 14 9 13
f 15 10 14
f 17 11 16
f 18 12 17
f 19 13 18
f 20 14 19
f 21 15 20
f 23 16 22
f 24 17 23
f 25 18 24
f 26 19 25
f 27 20 26
f 28 21 27
f 30 22 29
f 31 23 30
f 32 24 31
f 33 25 32
f 34 26 33
f 35 27 34
f 36 28 35
f 3 2 5
f 5 4 8
f 6 5 9
f 8 7 12
f 9 8 13
f 10 9 14
f 12 11 17
f 13 12 18
f 14 13 19
f 15 14 20
f 17 16 23
f 18 17 24
f 19 18 25
f 20 19 26
f 21 20 27
f 23 22 30
f 24 23 31
f 25 24 32
f 26 25 33
f 27 26 34
f 28 27 35
f 37 1 3
f 38 3 6
f 39 37 38
f 40 6 10
f 41 38 40
f 42 39 41
f 43 10 15
f 44 40 43
f 45 41 44
f 46 42 45
f 47 15 21
f 48 43 47
f 49 44 48
f 50 45 49
f 51 46 50
f 52 21 28
f 53 47 52
f 54 48 53
f 55 49 54
f 56 50 55
f 57 51 56
f 58 28 36
f 59 52 58
f 60 53 59
f 61 54 60
f 62 55 61
f 63 56 62
f 64 57 63
f 37 3 38
f 38 6 40
f 39 38 41
f 40 10 43
f 41 40 44
f 42 41 45
f 43 15 47
f 44 43 48
f 45 44 49
f 46 45 50
f 47 21 52
f 48 47 53
f 49 48 54
f 50 49 55
f 51 50 56
f 52 28 58
f 53 52 59
f 54 53 60
f 55 54 61
f 56 55 62
f 57 56 63
f 65 1 37
f 66 37 39
f 67 65 66
f 68 39 42
f 69 66 68
f 70 67 69
f 71 42 46
f 72 68 71
f 73 69 72
f 74 70 73
f 75 46 51
f 76 71 75
f 77 72 76
f 78 73 77
f 79 74 78
f 80 51 57
f 81 75 80
f 82 76 81
f 83 77 82
f 84 78 83
f 85 79 84
f 86 57 64
f 87 80 86
f 88 81 87
f 89 82 88
f 90 83 89
f 91 84 90
f 92 85 91
f 65 37 66
f 66 39 68
f 67 66 69
f 68 42 71
f 69 68 72
f 70 69 73
f 71 46 75
f 72 71 76
f 73 72 77
f 74 73 78
f 75 51 80
f 76 75 81
f 77 76 82
f 78 77 83
f 79 78 84
f 80 57 86
f 81 80 87
f 82 81 88
f 83 82 89
f 84 83 90
f 85 84 91
f 93 1 65
f 94 65 67
f 95 93 94
f 96 67 70
f 97 94 96
f 98 95 97
f 99 70 74
f 100 96 99
f 101 97 100
f 102 98 101
f 103 74 79
f 104 99 103
f 105 100 104
f 106 101 105
f 107 102 106
f 108 79 85
f 109 103 108
f 110 104 109
f 111 105 110
f 112 106 111
f 113 107 112
f 114 85 92
f 115 108 114
f 116 109 115
f 117 110 116
f 118 111 117
f 119 112 118
f 120 113 119
f 93 65 94
f 94 67 96
f 95 94 97
f 96 70 99
f 97 96 100
f 98 97 101
f 99 74 103
f 100 99 104
f 101 100 105
f 102 101 106
f 103 79 108
f 104 103 109
f 105 104 110
f 106 105 111
f 107 106 112
f 108 85 114
f 109 108 115
f 110 109 116
f 111 110 117
f 112 111 118
f 113 112 119
f 2 1 93
f 121 93 95
f 4 2 121
f 122 95 98
f 123 121 122
f 7 4 123
f 124 98 102
f 125 122 124
f 126 123 125
f 11 7 126
f 127 102 107
f 128 124 127
f 129 125 128
f 130 126 129
f 16 11 130
f 131 107 113
f 132 127 131
f 133 128 132
f 134 129 133
f 135 130 134
f 22 16 135
f 136 113 120
f 137 131 136
f 138 132 137
f 139 133 138
f 140 134 139
f 141 135 140
f 29 22 141
f 2 93 121
f 121 95 122
f 4 121 123
f 122 98 124
f 123 122 125
f 7 123 126
f 124 102 127
f 125 124 128
f 126 125 129
f 11 126 130
f 127 107 131
f 128 127 132
f 129 128 133
f 130 129 134
f 16 130 135
f 131 113 136
f 132 131 137
f 133 132 138
f 134 133 139
f 135 134 140
f 22 135 141
f 142 29 141
f 143 141 140
f 144 142 143
f 145 140 139
f 146 143 145
f 147 144 146
f 148 139 138
f 149 145 148
f 150 146 149
f 151 147 150
f 152 138 137
f 153 148 152
f 154 149 153
f 155 150 154
f 156 151 155
f 157 137 136
f 158 152 157
f 159 153 158
f 160 154 159
f 161 155 160
f 162 156 161
f 163 136 120
f 164 157 163
f 165 158 164
f 166 159 165
f 167 160 166
f 168 161 167
f 169 162 168
f 142 141 143
f 143 140 145
f 144 143 146
f 145 139 148
f 146 145 149
f 147 146 150
f 148 138 152
f 149 148 153
f 150 149 154
f 151 150 155
f 152 137 157
f 153 152 158
f 154 153 159
f 155 154 160
f 156 155 161
f 157 136 163
f 158 157 164
f 159 158 165
f 160 159 166
f 161 160 167
f 162 161 168
f 170 120 119
f 171 119 118
f 172 170 171
f 173 118 117
f 174 171 173
f 175 172 174
f 176 117 116
f 177 173 176
f 178 174 177
f 179 175 178
f 180 116 115
f 181 176 180
f 182 177 181
f 183 178 182
f 184 179 183
f 185 115 114
f 186 180 185
f 187 181 186
f 188 182 187
f 189 183 188
f 190 184 189
f 191 114 92
f 192 185 191
f 193 186 192
f 194 187 193
f 195 188 194
f 196 189 195
f 197 190 196
f 170 119 171
f 171 118 173
f 172 171 174
f 173 117 176
f 174 173 177
f 175 174 178
f 176 116 180
f 177 176 181
f 178 177 182
f 179 178 183
f 180 115 185
f 181 180 186
f 182 181 187
f 183 182 188
f 184 183 189
f 185 114 191
f 186 185 192
f 187 186 193
f 188 187 194
f 189 188 195
f 190 189 196
f 198 92 91
f 199 91 90
f 200 198 199
f 201 90 89
f 202 199 201
f 203 200 202
f 204 89 88
f 205 201 204
f 206 202 205
f 207 203 206
f 208 88 87
f 209 204 208
f 210 205 209
f 211 206 210
f 212 207 211
f 213 87 86
f 214 208 213
f 215 209 214
f 216 210 215
f 217 211 216
f 218 212 217
f 219 86 64
f 220 213 219
f 221 214 220
f 222 215 221
f 223 216 222
f 224 217 223
f 225 218 224
f 198 91 199
f 199 90 201
f 200 199 202
f 201 89 204
f 202 201 205
f 203 202 206
f 204 88 208
f 205 204 209
f 206 205 210
f 207 206 211
f 208 87 213
f 209 208 214
f 210 209 215
f 211 210 216
f 212 211 217
f 213 86 219
f 214 213 220
f 215 214 221
f 216 215 222
f 217 216 223
f 218 217 224
f 226 64 63
f 227 63 62
f 228 226 227
f 229 62 61
f 230 227 229
f 231 228 230
f 232 61 60
f 233 229 232
f 234 230 233
f 235 231 234
f 236 60 59
f 237 232 236
f 238 233 237
f 239 234 238
f 240 235 239
f 241 59 58
f 242 236 241
f 243 237 242
f 244 238 243
f 245 239 244
f 246 240 245
f 247 58 36
f 248 241 247
f 249 242 248
f 250 243 249
f 251 244 250
f 252 245 251
f 253 246 252
f 226 63 227
f 227 62 229
f 228 227 230
f 229 61 232
f 230 229 233
f 231 230 234
f 232 60 236
f 233 232 237
f 234 233 238
f 235 234 239
f 236 59 241
f 237 236 242
f 238 237 243
f 239 238 244
f 240 239 245
f 241 58 247
f 242 241 248
f 243 242 249
f 244 243 250
f 245 244 251
f 246 245 252
f 254 36 35
f 255 35 34
f 256 254 255
f 257 34 33
f 258 255 257
f 259 256 258
f 260 33 32
f 261 257 260
f 262 258 261
f 263 259 262
f 264 32 31
f 265 260 264
f 266 261 265
f 267 262 266
f 268 263 267
f 269 31 30
f 270 264 269
f 271 265 270
f 272 266 271
f 273 267 272
f 274 268 273
f 275 30 29
f 276 269 275
f 277 270 276
f 278 271 277
f 279 272 278
f 280 273 279
f 281 274 280
f 254 35 255
f 255 34 257
f 256 255 258
f 257 33 260
f 258 257 261
f 259 258 262
f 260 32 264
f 261 260 265
f 262 261 266
f 263 262 267
f 264 31 269
f 265 264 270
f 266 265 271
f 267 266 272
f 268 267 273
f 269 30 275
f 270 269 276
f 271 270 277
f 272 271 278
f 273 272 279
f 274 273 280
f 275 29 142
f 282 142 144
f 276 275 282
f 283 144 147
f 284 282 283
f 277 276 284
f 285 147 151
f 286 283 285
f 287 284 286
f 278 277 287
f 288 151 156
f 289 285 288
f 290 286 289
f 291 287 290
f 279 278 291
f 292 156 162
f 293 288 292
f 294 289 293
f 295 290 294
f 296 291 295
f 280 279 296
f 297 162 169
f 298 292 297
f 299 293 298
f 300 294 299
f 301 295 300
f 302 296 301
f 281 280 302
f 275 142 282
f 282 144 283
f 276 282 284
f 283 147 285
f 284 283 286
f 277 284 287
f 285 151 288
f 286 285 289
f 287 286 290
f 278 287 291
f 288 156 292
f 289 288 293
f 290 289 294
f 291 290 295
f 279 291 296
f 292 162 297
f 293 292 298
f 294 293 299
f 295 294 300
f 296 295 301
f 280 296 302
f 163 120 170
f 303 170 172
f 164 163 303
f 304 172 175
f 305 303 304
f 165 164 305
f 306 175 179
f 307 304 306
f 308 305 307
f 166 165 308
f 309 179 184
f 310 306 309
f 311 307 310
f 312 308 311
f 167 166 312
f 313 184 190
f 314 309 313
f 315 310 314
f 316 311 315
f 317 312 316
f 168 167 317
f 318 190 197
f 319 313 318
f 320 314 319
f 321 315 320
f 322 316 321
f 323 317 322
f 169 168 323
f 163 170 303
f 303 172 304
f 164 303 305
f 304 175 306
f 305 304 307
f 165 305 308
f 306 179 309
f 307 306 310
f 308 307 311
f 166 308 312
f 309 184 313
f 310 309 314
f 311 310 315
f 312 311 316
f 167 312 317
f 313 190 318
f 314 313 319
f 315 314 320
f 316 315 321
f 317 316 322
f 168 317 323
f 191 92 198
f 324 198 200
f 192 191 324
f 325 200 203
f 326 324 325
f 193 192 326
f 327 203 207
f 328 325 327
f 329 326 328
f 194 193 329
f 330 207 212
f 331 327 330
f 332 328 331
f 333 329 332
f 195 194 333
f 334 212 218
f 335 330 334
f 336 331 335
f 337 332 336
f 338 333 337
f 196 195 338
f 339 218 225
f 340 334 339
f 341 335 340
f 342 336 341
f 343 337 342
f 344 338 343
f 197 196 344
f 191 198 324
f 324 200 325
f 192 324 326
f 325 203 327
f 326 325 328
f 193 326 329
f 327 207 330
f 328 327 331
f 329 328 332
f 194 329 333
f 330 212 334
f 331 330 335
f 332 331 336
f 333 332 337
f 195 333 338
f 334 218 339
f 335 334 340
f 336 335 341
f 337 336 342
f 338 337 343
f 196 338 344
f 219 64 226
f 345 226 228
f 220 219 345
f 346 228 231
f 347 345 346
f 221 220 347
f 348 231 235
f 349 346 348
f 350 347 349
f 222 221 350
f 351 235 240
f 352 348 351
f 353 349 352
f 354 350 353
f 223 222 354
f 355 240 246
f 356 351 355
f 357 352 356
f 358 353 357
f 359 354 358
f 224 223 359
f 360 246 253
f 361 355 360
f 362 356 361
f 363 357 362
f 364 358 363
f 365 359 364
f 225 224 365
f 219 226 345
f 345 228 346
f 220 345 347
f 346 231 348
f 347 346 349
f 221 347 350
f 348 235 351
f 349 348 352
f 350 349 353
f 222 350 354
f 351 240 355
f 352 351 356
f 353 352 357
f 354 353 358
f 223 354 359
f 355 246 360
f 356 355 361
f 357 356 362
f 358 357 363
f 359 358 364
f 224 359 365
f 247 36 254
f 366 254 256
f 248 247 366
f 367 256 259
f 368 366 367
f 249 248 368
f 369 259 263
f 370 367 369
f 371 368 370
f 250 249 371
f 372 263 268
f 373 369 372
f 374 370 373
f 375 371 374
f 251 250 375
f 376 268 274
f 377 372 376
f 378 373 377
f 379 374 378
f 380 375 379
f 252 251 380
f 381 274 281
f 382 376 381
f 383 377 382
f 384 378 383
f 385 379 384
f 386 380 385
f 253 252 386
f 247 254 366
f 366 256 367
f 248 366 368
f 367 259 369
f 368 367 370
f 249 368 371
f 369 263 372
f 370 369 373
f 371 370 374
f 250 371 375
f 372 268 376
f 373 372 377
f 374 373 378
f 375 374 379
f 251 375 380
f 376 274 381
f 377 376 382
f 378 377 383
f 379 378 384
f 380 379 385
f 252 380 386
f 389 387 388
f 391 388 390
f 392 389 391
f 394 390 393
f 395 391 394
f 396 392 395
f 398 393 397
f 399 394 398
f 400 395 399
f 401 396 400
f 403 397 402
f 404 398 403
f 405 399 404
f 406 400 405
f 407 401 406
f 409 402 408
f 410 403 409
f 411 404 410
f 412 405 411
f 413 406 412
f 414 407 413
f 302 408 281
f 301 409 302
f 300 410 301
f 299 411 300
f 298 412 299
f 297 413 298
f 169 414 297
f 389 388 391
f 391 390 394
f 392 391 395
f 394 393 398
f 395 394 399
f 396 395 400
f 398 397 403
f 399 398 404
f 400 399 405
f 401 400 406
f 403 402 409
f 404 403 410
f 405 404 411
f 406 405 412
f 407 406 413
f 409 408 302
f 410 409 301
f 411 410 300
f 412 411 299
f 413 412 298
f 414 413 297
f 388 387 415
f 417 415 416
f 390 388 417
f 419 416 418
f 420 417 419
f 393 390 420
f 422 418 421
f 423 419 422
f 424 420 423
f 397 393 424
f 426 421 425
f 427 422 426
f 428 423 427
f 429 424 428
f 402 397 429
f 431 425 430
f 432 426 431
f 433 427 432
f 434 428 433
f 435 429 434
f 408 402 435
f 386 430 253
f 385 431 386
f 384 432 385
f 383 433 384
f 382 434 383
f 381 435 382
f 281 408 381
f 388 415 417
f 417 416 419
f 390 417 420
f 419 418 422
f 420 419 423
f 393 420 424
f 422 421 426
f 423 422 427
f 424 423 428
f 397 424 429
f 426 425 431
f 427 426 432
f 428 427 433
f 429 428 434
f 402 429 435
f 431 430 386
f 432 431 385
f 433 432 384
f 434 433 383
f 435 434 382
f 408 435 381
f 415 387 436
f 438 436 437
f 416 415 438
f 440 437 439
f 441 438 440
f 418 416 441
f 443 439 442
f 444 440 443
f 445 441 444
f 421 418 445
f 447 442 446
f 448 443 447
f 449 444 448
f 450 445 449
f 425 421 450
f 452 446 451
f 453 447 452
f 454 448 453
f 455 449 454
f 456 450 455
f 430 425 456
f 365 451 225
f 364 452 365
f 363 453 364
f 362 454 363
f 361 455 362
f 360 456 361
f 253 430 360
f 415 436 438
f 438 437 440
f 416 438 441
f 440 439 443
f 441 440 444
f 418 441 445
f 443 442 447
f 444 443 448
f 445 444 449
f 421 445 450
f 447 446 452
f 448 447 453
f 449 448 454
f 450 449 455
f 425 450 456
f 452 451 365
f 453 452 364
f 454 453 363
f 455 454 362
f 456 455 361
f 430 456 360
f 436 387 457
f 459 457 458
f 437 436 459
f 461 458 460
f 462 459 461
f 439 437 462
f 464 460 463
f 465 461 464
f 466 462 465
f 442 439 466
f 468 463 467
f 469 464 468
f 470 465 469
f 471 466 470
f 446 442 471
f 473 467 472
f 474 468 473
f 475 469 474
f 476 470 475
f 477 471 476
f 451 446 477
f 344 472 197
f 343 473 344
f 342 474 343
f 341 475 342
f 340 476 341
f 339 477 340
f 225 451 339
f 436 457 459
f 459 458 461
f 437 459 462
f 461 460 464
f 462 461 465
f 439 462 466
f 464 463 468
f 465 464 469
f 466 465 470
f 442 466 471
f 468 467 473
f 469 468 474
f 470 469 475
f 471 470 476
f 446 471 477
f 473 472 344
f 474 473 343
f 475 474 342
f 476 475 341
f 477 476 340
f 451 477 339
f 457 387 389
f 478 389 392
f 458 457 478
f 479 392 396
f 480 478 479
f 460 458 480
f 481 396 401
f 482 479 481
f 483 480 482
f 463 460 483
f 484 401 407
f 485 481 484
f 486 482 485
f 487 483 486
f 467 463 487
f 488 407 414
f 489 484 488
f 490 485 489
f 491 486 490
f 492 487 491
f 472 467 492
f 323 414 169
f 322 488 323
f 321 489 322
f 320 490 321
f 319 491 320
f 318 492 319
f 197 472 318
f 457 389 478
f 478 392 479
f 458 478 480
f 479 396 481
f 480 479 482
f 460 480 483
f 481 401 484
f 482 481 485
f 483 482 486
f 463 483 487
f 484 407 488
f 485 484 489
f 486 485 490
f 487 486 491
f 467 487 492
f 488 414 323
f 489 488 322
f 490 489 321
f 491 490 320
f 492 491 319
f 472 492 318
