# File exported by Houdini 20.5.445 (www.sidefx.com)
# 492 points
# 2940 vertices
# 980 primitives
# Bounds: [-157.929718, -91.4309692, -1137.32397] to [328.703644, 207.808075, -617.477051]
g 
v 189.050446 32.6814384 -1089.38403
v 195.174591 48.8122673 -1084.69458
v 224.057343 32.2233734 -1070.57361
v 200.851227 64.6604919 -1074.13257
v 233.073944 49.3862991 -1062.60217
v 254.981537 32.7180862 -1048.39075
v 205.219147 80.1437683 -1057.97314
v 239.909576 65.6047668 -1048.89246
v 264.71225 50.9404259 -1037.86475
v 281.002716 34.407444 -1022.84692
v 206.654205 94.913269 -1036.68188
v 243.436188 81.1740723 -1030.14148
v 270.658295 67.8340378 -1021.78882
v 289.905426 53.7214737 -1010.49304
v 301.309113 37.7787514 -994.424805
v 203.715363 107.85556 -1010.10596
v 242.174286 95.2890778 -1006.15283
v 271.812408 83.2942276 -1000.35242
v 293.647491 71.2852631 -992.069824
v 308.180084 58.264019 -980.245972
v 315.12735 43.6200943 -963.543945
v 196.444366 118.904572 -979.314575
v 235.286774 107.380615 -977.182617
v 267.350555 96.7355957 -973.338379
v 292.127899 86.4117661 -967.456421
v 309.610504 75.8674927 -958.834961
v 319.913849 64.4746399 -946.835327
v 323.360992 52.4480171 -931.214722
v 186.17569 129.505859 -946.091064
v 223.285675 118.77771 -944.363525
v 256.879608 109.080734 -941.244873
v 284.848663 99.7745514 -936.688965
v 305.906036 90.8552246 -930.145752
v 319.7211 82.009964 -921.411499
v 326.789215 73.1459961 -910.714233
v 327.390594 63.8697968 -898.305298
v 203.835114 15.9776821 -1077.42981
v 238.254059 14.9180861 -1055.40491
v 214.494843 -0.53686142 -1059.53198
v 266.349091 15.4395618 -1030.14795
v 246.52475 -1.28010559 -1034.09766
v 219.829803 -16.2333488 -1035.91089
v 288.56076 17.7925224 -1001.87439
v 271.019257 0.153274536 -1005.77649
v 248.607269 -15.8206673 -1007.32739
v 219.113678 -30.3321648 -1007.74316
v 304.897858 22.6828728 -971.031128
v 289.276215 4.14919662 -974.704346
v 269.270721 -12.6382942 -976.086426
v 244.211823 -28.0442238 -976.333618
v 212.039154 -42.1277809 -976.817749
v 315.465302 31.5819778 -938.118652
v 301.928925 11.9150867 -941.286621
v 283.485504 -5.98377228 -942.010986
v 260.594879 -22.3587151 -941.952271
v 232.503632 -37.30373 -942.122314
v 198.25235 -50.8248863 -943.908081
v 321.064301 45.4347954 -903.983398
v 309.513397 25.6340523 -906.265259
v 292.374481 6.41810226 -905.927734
v 269.973053 -11.6732368 -904.466675
v 243.060577 -28.4007187 -903.691772
v 212.536896 -43.6023064 -905.469604
v 178.658539 -56.7918892 -910.418213
v 161.984589 23.291851 -1098.76196
v 176.18924 4.83372116 -1082.68555
v 133.755585 14.1826601 -1103.25684
v 184.953705 -12.5539169 -1061.05774
v 146.933746 -5.08653641 -1082.57666
v 103.495209 5.56238937 -1103.0343
v 187.5289 -28.5988045 -1034.78857
v 153.193634 -22.7075768 -1057.58765
v 114.804535 -13.9094963 -1078.09937
v 70.8515167 -2.34931183 -1098.20813
v 183.493073 -42.8099556 -1004.99207
v 152.047638 -38.6534691 -1028.77673
v 117.455414 -31.2678871 -1049.3175
v 78.99263 -21.5750084 -1068.84424
v 36.7699738 -9.57997894 -1087.53271
v 172.451691 -54.4397621 -972.251953
v 143.430939 -52.8076057 -996.686401
v 111.7659 -47.3301582 -1017.40491
v 77.5618134 -39.2202339 -1036.15942
v 41.1352692 -29.1278229 -1054.06787
v 3.72636414 -16.8307838 -1070.42139
v 154.579254 -63.0294533 -936.522583
v 127.493683 -64.7679138 -960.998047
v 98.2921295 -62.544445 -982.3479
v 67.6909027 -56.8793526 -1000.72253
v 36.1695099 -48.5010262 -1017.60107
v 4.68452454 -37.8119164 -1033.42993
v -25.3139343 -24.7647362 -1047.50452
v 154.794281 44.438652 -1104.61304
v 122.925385 35.9503937 -1115.92566
v 119.107147 58.6150436 -1117.71655
v 91.4210358 27.471056 -1121.02673
v 84.5044098 50.578598 -1129.38257
v 83.1238556 74.2460022 -1126.93713
v 58.9715118 19.172287 -1120.1825
v 51.2271576 42.2222099 -1133.20898
v 47.2136688 66.1934662 -1136.94287
v 48.2111053 90.4745941 -1129.40723
v 25.6777496 11.1240234 -1112.95715
v 17.9327545 33.7103653 -1129.38562
v 13.2972565 57.4917183 -1137.32397
v 12.1448517 81.8917007 -1135.74646
v 15.8711395 106.262161 -1122.69482
v -7.11607361 3.21710587 -1097.96875
v -15.1824188 24.8710365 -1117.15259
v -20.0750275 48.1763916 -1128.12476
v -21.6966248 72.4704361 -1130.55298
v -19.5582733 97.023819 -1123.44604
v -13.1712189 120.827423 -1105.64404
v -36.9671021 -5.11771393 -1073.95508
v -46.4783478 15.6205444 -1094.6217
v -52.6395874 38.2856064 -1107.62048
v -54.8596039 62.4870911 -1112.93213
v -53.1535797 87.3085403 -1110.01794
v -47.8003845 111.566025 -1098.56726
v -39.4251404 133.878464 -1078.73633
v 158.692535 62.9299393 -1097.97766
v 122.003326 78.8377991 -1108.1134
v 162.497162 79.9078369 -1084.48889
v 86.0125275 95.6826782 -1112.86279
v 124.868011 96.4497375 -1090.47363
v 165.108429 95.5248566 -1064.5946
v 51.5962982 112.850845 -1109.53674
v 88.5970917 114.107422 -1089.57263
v 126.489227 112.420547 -1065.15784
v 165.021332 109.998795 -1038.3988
v 18.9953156 129.419785 -1095.96252
v 53.3726654 132.242584 -1079.10376
v 89.0451813 130.867554 -1057.0564
v 125.115448 127.199432 -1031.98364
v 161.160126 122.938248 -1005.9751
v -12.4037933 144.671722 -1070.82263
v 18.0636749 150.056549 -1056.46228
v 51.1460419 150.231827 -1036.95386
v 85.3246918 146.544312 -1014.32385
v 119.861725 140.80307 -990.938965
v 153.941925 134.820801 -968.339111
v 154.739227 144.157089 -924.373779
v 118.460236 151.564331 -945.371338
v 122.31369 159.906097 -900.223755
v 82.3430634 159.08992 -966.381958
v 83.7696075 167.950073 -920.147461
v 89.3508759 175.467438 -874.254639
v 47.0133514 164.947906 -987.923828
v 46.5448456 175.222534 -939.853638
v 49.5904083 182.60582 -893.331665
v 56.1521454 189.173706 -847.341797
v 12.713028 167.180527 -1008.87695
v 10.4287262 179.606735 -959.848633
v 11.5336151 188.223511 -911.970093
v 15.730423 194.260498 -865.55127
v 23.2311249 199.445358 -820.451538
v -19.5796051 163.805542 -1027.19934
v -24.6607666 179.063232 -979.365967
v -25.9250336 190.130493 -930.534668
v -23.29776 197.277115 -882.949829
v -17.5939178 201.854599 -837.350342
v -8.44078064 205.00589 -794.509399
v -48.7580109 153.521118 -1040.6853
v -57.1107178 170.979141 -996.274536
v -62.1472473 185.420898 -948.267334
v -62.370697 195.556259 -899.671143
v -57.906723 201.427338 -852.784058
v -49.5867767 204.267563 -809.306152
v -37.7839966 205.230011 -770.440186
v -69.0688782 131.754532 -1058.79724
v -77.5366516 105.452667 -1076.3158
v -95.4796448 127.208069 -1033.18384
v -82.2138824 78.5684433 -1084.63489
v -101.973221 97.7300873 -1048.33801
v -118.313004 121.103668 -1003.69897
v -82.4794464 52.2218361 -1084.66516
v -103.919739 68.8700409 -1054.00366
v -121.298248 89.2882233 -1016.89465
v -137.121811 114.063919 -972.335205
v -77.8091888 27.0815468 -1077.06067
v -100.656387 41.1057816 -1051.66187
v -118.788315 58.7236061 -1020.28992
v -135.275864 80.5633469 -983.608154
v -149.688324 105.965729 -940.17688
v -68.4802704 3.30267715 -1061.02441
v -92.0641327 14.3216619 -1040.95947
v -110.717499 29.0976028 -1014.91431
v -127.48262 48.3732834 -983.976074
v -142.802536 71.4401779 -948.551025
v -153.812164 96.6346741 -907.691162
v -55.7065887 -20.1014404 -1036.69458
v -79.4387665 -12.5926323 -1020.32043
v -98.3050537 -0.897354126 -998.959839
v -114.705322 16.1343861 -973.570435
v -129.666107 37.6605339 -944.581787
v -141.697906 61.6074219 -911.87207
v -148.33371 85.8226089 -875.606445
v -32.3135986 -42.2616768 -1013.41833
v -3.08137512 -56.5677757 -997.968506
v -36.6352539 -59.4142113 -979.186523
v 26.1533356 -66.5748901 -982.053467
v -8.73335266 -73.2469788 -964.28125
v -39.4007111 -73.6450958 -945.970459
v 54.9482574 -72.5044708 -965.123413
v 18.1838837 -80.6515503 -948.420654
v -13.3359222 -85.282608 -931.796387
v -41.0410919 -82.0895691 -913.682983
v 83.7975006 -74.4989624 -945.362549
v 45.1655426 -83.0863647 -930.62854
v 11.8863983 -89.3561096 -915.558838
v -16.2516327 -90.4310608 -899.362305
v -39.8897247 -82.9836426 -881.942505
v 112.887238 -72.7226105 -921.623413
v 73.4824371 -81.3355713 -908.432861
v 38.2195282 -88.2767334 -895.600342
v 8.45127869 -91.4309692 -881.693848
v -15.5246735 -88.4304962 -866.560791
v -35.1636658 -77.9593353 -850.641602
v 141.655121 -66.6063538 -894.789062
v 103.769806 -75.4363403 -881.496704
v 67.5561981 -82.8043976 -869.940918
v 35.620163 -87.1894684 -858.538574
v 10.0166168 -86.8175659 -846.077515
v -10.2036591 -81.1499939 -833.061035
v -26.3678284 -70.2367706 -819.931152
v 177.720612 -52.5626183 -874.535156
v 213.541046 -34.6248055 -868.63916
v 175.208954 -44.2928581 -842.385986
v 245.761078 -15.3924408 -867.990234
v 212.699127 -21.8833122 -838.392334
v 171.7883 -32.9552193 -815.159546
v 273.758331 4.54068184 -870.277588
v 245.791168 0.72022438 -839.422729
v 210.010651 -7.51145935 -813.270508
v 167.726227 -20.2403069 -791.852783
v 296.431671 24.9307671 -872.899048
v 273.944122 23.0143089 -842.362305
v 242.985382 17.1775208 -814.834351
v 205.507965 6.79744911 -790.771484
v 163.456268 -6.94565582 -770.527832
v 312.846649 45.797863 -873.187744
v 296.123444 45.1921959 -844.220947
v 270.471954 41.2733383 -816.705688
v 237.384369 32.9192543 -791.19873
v 199.565826 20.8820591 -768.609497
v 159.398163 7.012043 -749.498291
v 323.508209 65.936203 -869.7052
v 311.761444 67.1814728 -841.634155
v 291.409149 65.2123184 -814.620239
v 263.033905 58.8037491 -788.869385
v 228.950104 48.3506584 -765.021729
v 192.161896 35.4437256 -744.322021
v 154.242706 21.3908882 -727.549194
v 328.703644 81.3674698 -872.442505
v 325.535614 89.6481705 -882.813232
v 324.737274 97.8486328 -845.514038
v 314.304901 97.0034027 -891.851318
v 317.9664 105.360611 -855.65564
v 314.163605 114.256775 -818.844116
v 295.514801 104.803268 -899.376953
v 301.707855 112.199234 -864.522827
v 302.929596 122.109512 -829.865967
v 295.78952 131.342911 -793.55835
v 269.285736 113.675888 -905.12439
v 277.295074 120.332977 -871.608643
v 281.21347 129.789749 -838.914795
v 279.600555 140.751251 -805.399292
v 269.460175 148.968628 -770.06189
v 236.010651 123.287292 -909.266479
v 245.236603 130.112625 -876.606079
v 250.917877 139.412918 -845.161255
v 252.408417 150.499908 -813.700317
v 248.327667 160.768143 -781.31189
v 236.798126 165.881927 -747.762207
v 197.092804 134.103027 -912.047363
v 205.857574 141.064011 -879.496094
v 212.380646 150.750549 -848.266968
v 215.904449 162.079453 -817.6698
v 215.553375 172.785522 -787.063721
v 210.552826 179.817505 -756.281616
v 200.143158 179.75705 -726.019653
v 163.659821 151.02124 -886.411743
v 130.165253 168.243713 -859.745972
v 170.517609 160.597473 -851.852539
v 96.4452667 184.15834 -832.368286
v 135.738678 178.914337 -823.876953
v 175.253998 172.241333 -819.515991
v 62.3231049 196.963699 -804.788208
v 100.740402 194.148758 -795.524292
v 138.933136 190.240982 -790.411987
v 177.132172 183.659393 -787.985352
v 27.9701996 204.922348 -777.538086
v 64.8929901 204.361237 -766.819946
v 102.02536 202.851151 -760.569458
v 138.954498 199.078842 -757.322632
v 175.214935 191.562454 -756.12915
v -5.71290588 206.644623 -751.243286
v 28.2166901 207.676163 -737.906372
v 63.4578094 207.808075 -729.509033
v 99.2041168 206.028793 -724.919067
v 134.478241 201.001099 -723.165405
v 168.501984 192.282013 -723.673584
v -81.0493774 153.036606 -1014.61682
v -108.239944 149.745621 -984.980225
v -90.2745056 171.356934 -966.303101
v -131.125031 144.648544 -953.583496
v -116.894379 168.505157 -934.512817
v -94.6381683 185.783737 -916.198608
v -148.666519 137.670731 -921.485107
v -138.666351 163.225021 -901.953003
v -120.381958 182.589127 -883.049683
v -93.6352844 195.44043 -866.243408
v -157.929718 128.222061 -888.862427
v -153.440735 155.026688 -868.651001
v -140.056641 176.304855 -848.843506
v -117.718719 191.491272 -831.455444
v -86.8851318 200.458511 -817.978271
v -155.514313 115.66246 -855.908203
v -156.218323 142.64563 -834.429077
v -148.829575 165.447083 -813.166138
v -132.232086 182.969391 -794.687866
v -106.345703 194.680634 -780.967651
v -73.5907745 201.508636 -772.872437
v -61.0655365 -38.36549 -998.019165
v -63.3051453 -54.2184944 -961.079102
v -82.4124908 -29.7166138 -978.685303
v -63.9737701 -65.2502594 -926.266602
v -82.9049835 -42.2989693 -940.276733
v -99.3427887 -14.8086166 -956.320923
v -62.1358948 -68.8903351 -892.654663
v -81.1507263 -48.525631 -904.271729
v -97.8647766 -22.9012489 -917.188232
v -113.888184 6.28953934 -931.138916
v -56.4781494 -65.6103973 -859.312012
v -75.2324066 -47.3401833 -868.611206
v -92.498703 -24.259449 -879.186523
v -109.128494 2.60077286 -890.630005
v -125.919479 31.6680069 -901.91272
v -46.0126038 -58.5948219 -825.304443
v -63.7605286 -41.2441063 -831.258667
v -80.8718414 -19.5960159 -838.831055
v -98.1128082 5.17182159 -847.849243
v -116.036926 31.7467728 -857.506226
v -133.550186 59.0360489 -866.870605
v 138.227081 -63.3730278 -857.463623
v 134.157745 -55.9899788 -825.805908
v 100.082169 -72.357605 -844.500977
v 129.836273 -45.2484398 -799.05896
v 96.4669952 -64.8210754 -813.693848
v 65.1772919 -78.431015 -833.740356
v 126.009735 -32.3518066 -775.373169
v 93.3343964 -53.559948 -786.79541
v 63.9293976 -69.5421753 -802.871948
v 36.2229462 -80.1982727 -822.766602
v 123.348236 -17.5478668 -752.578125
v 91.1496124 -39.0615044 -761.105469
v 63.4085236 -56.6980019 -774.285156
v 37.8504486 -69.2868805 -790.947998
v 13.2388153 -77.0274811 -810.770142
v 120.463165 -1.20869446 -728.83374
v 89.0030975 -22.0867348 -734.499023
v 61.9097137 -40.3114204 -744.576904
v 38.4515228 -54.5325966 -759.120117
v 16.1855316 -63.8772621 -777.362183
v -5.73808289 -68.8027802 -798.137939
v 322.008942 85.4181976 -840.656738
v 314.035492 102.686096 -811.564453
v 305.837921 86.496788 -810.946167
v 298.921967 119.078247 -783.634644
v 292.97702 102.730835 -780.702393
v 280.830475 82.6543961 -783.312378
v 275.95462 135.422607 -757.688599
v 273.060516 117.821152 -751.8479
v 263.441925 97.0101624 -752.35022
v 248.851227 73.8384705 -757.597168
v 245.118744 151.42215 -733.740234
v 245.217499 132.413406 -724.924194
v 238.649078 110.065796 -722.512207
v 227.184601 85.9367828 -726.120728
v 211.78714 61.0860825 -734.176514
v 207.473236 165.155975 -711.007202
v 208.717072 145.31601 -699.802979
v 204.495331 121.513138 -694.355042
v 196.025055 95.8135834 -695.605347
v 184.470673 70.063446 -702.956177
v 170.462921 45.2137146 -714.405396
v -11.5098724 77.353569 -624.353149
v 9.62879944 95.1126862 -617.477051
v -22.5032806 107.495621 -625.704651
v 34.5316925 114.746201 -620.225952
v 1.07301331 126.841919 -622.866211
v -33.5829163 135.511169 -636.069397
v 63.3139801 135.349548 -630.729187
v 28.6593781 146.145645 -630.440002
v -5.94178772 154.34404 -637.366577
v -42.5924683 159.895645 -653.817383
v 95.8382416 154.527695 -647.490723
v 59.7932587 164.876266 -645.51416
v 25.08815 171.880569 -648.874878
v -10.2513885 176.571869 -658.494934
v -47.8869934 179.476196 -677.060791
v 131.004608 170.004669 -669.482056
v 94.3681183 180.764359 -666.403809
v 58.7837067 187.493134 -667.545471
v 23.9976654 191.220169 -673.160767
v -11.5156097 192.953842 -684.659485
v -48.6927643 193.52388 -704.504517
v 166.610748 179.252258 -695.950317
v 131.284943 191.01619 -692.493958
v 95.5306244 198.385818 -692.239319
v 60.0971527 202.33139 -695.366699
v 25.0281525 203.448914 -702.612427
v -9.98783875 202.990662 -715.414917
v -45.1740417 201.849823 -735.649902
v 10.1954498 58.4107018 -624.74292
v 31.1855621 43.7704506 -632.732727
v 35.8810883 79.2368774 -620.703369
v 52.2790985 34.0375214 -646.093567
v 60.7098236 67.906044 -630.798218
v 64.5034637 101.61087 -625.788086
v 74.618454 27.9282494 -663.503479
v 85.5044708 59.6181717 -645.942749
v 92.8503876 91.4579468 -637.514587
v 96.5395966 123.313217 -637.974487
v 99.395462 24.2415981 -683.515137
v 111.647247 53.3476448 -665.283142
v 121.315643 83.1245117 -654.257202
v 128.281952 113.16066 -651.197266
v 131.92514 142.631424 -656.33429
v 126.511322 22.1445694 -704.984009
v 140.133331 48.6293068 -688.171387
v 151.566193 76.1065063 -675.866882
v 160.789093 104.226746 -670.042664
v 167.193939 131.961258 -671.641357
v 169.618256 157.717514 -680.612549
v -16.3093109 48.4748116 -639.120911
v -20.1639252 21.580471 -663.002014
v 4.24180603 26.9077835 -643.195862
v -23.4779663 -1.97116089 -693.405762
v -0.582504272 0.0355606079 -669.506348
v 23.6024933 12.2244492 -654.449158
v -25.4510956 -22.0900459 -727.241333
v -4.21321106 -21.9235001 -700.658813
v 18.1291656 -13.0527229 -682.034912
v 43.4434967 4.0351162 -669.910828
v -26.0799408 -39.5452766 -761.246582
v -5.50727844 -39.7207909 -734.005249
v 15.3203888 -32.9486008 -712.540649
v 38.328598 -19.2192879 -697.410889
v 65.5308685 0.212314606 -688.035034
v -26.7910919 -55.5541649 -792.130981
v -5.43452454 -54.8257256 -767.019287
v 15.4843292 -49.2178764 -744.672729
v 37.0025787 -37.9294472 -727.079712
v 61.521225 -21.522728 -714.980835
v 91.1844635 -1.22938728 -707.792969
v -36.3297882 80.6792221 -639.990417
v -59.9185791 85.7298203 -666.715576
v -39.8545837 51.7589874 -661.869507
v -83.0260773 91.5945129 -702.827759
v -61.70224 57.3967209 -694.956421
v -42.5034485 25.8868122 -691.800354
v -105.197525 95.7741241 -744.786621
v -82.9055481 63.0483398 -734.955322
v -62.7377167 32.0614243 -728.505371
v -44.3941956 3.04177856 -725.955078
v -124.980347 95.9150543 -788.605957
v -103.102997 65.4239197 -778.099487
v -82.1538696 36.1980057 -769.594238
v -63.1963806 8.21413612 -763.874023
v -45.1885071 -17.7153282 -761.243042
v -140.234177 92.170845 -832.290283
v -121.055008 63.605587 -821.990601
v -100.794617 35.8255539 -812.541138
v -81.4579926 9.21023178 -804.557861
v -63.6514893 -15.8543243 -798.480591
v -46.0836487 -38.139492 -794.585083
v -51.776123 112.633575 -645.995544
v -66.3917389 140.605591 -660.646057
v -78.7507019 118.387146 -677.143311
v -77.5640259 163.906433 -681.445129
v -95.6538086 145.650391 -694.839478
v -104.148956 123.585846 -716.317749
v -83.220108 181.975555 -706.973999
v -107.630539 167.533539 -717.758789
v -121.837738 149.087677 -735.990234
v -126.945831 125.47995 -760.383423
v -82.0559082 194.441528 -737.115601
v -112.017075 183.877991 -745.867554
v -132.536484 168.765747 -761.377441
v -143.09523 148.3013 -782.481079
v -145.164581 122.66745 -806.979858
g 
f 3 1 2
f 5 2 4
f 6 3 5
f 8 4 7
f 9 5 8
f 10 6 9
f 12 7 11
f 13 8 12
f 14 9 13
f 15 10 14
f 17 11 16
f 18 12 17
f 19 13 18
f 20 14 19
f 21 15 20
f 23 16 22
f 24 17 23
f 25 18 24
f 26 19 25
f 27 20 26
f 28 21 27
f 30 22 29
f 31 23 30
f 32 24 31
f 33 25 32
f 34 26 33
f 35 27 34
f 36 28 35
f 3 2 5
f 5 4 8
f 6 5 9
f 8 7 12
f 9 8 13
f 10 9 14
f 12 11 17
f 13 12 18
f 14 13 19
f 15 14 20
f 17 16 23
f 18 17 24
f 19 18 25
f 20 19 26
f 21 20 27
f 23 22 30
f 24 23 31
f 25 24 32
f 26 25 33
f 27 26 34
f 28 27 35
f 37 1 3
f 38 3 6
f 39 37 38
f 40 6 10
f 41 38 40
f 42 39 41
f 43 10 15
f 44 40 43
f 45 41 44
f 46 42 45
f 47 15 21
f 48 43 47
f 49 44 48
f 50 45 49
f 51 46 50
f 52 21 28
f 53 47 52
f 54 48 53
f 55 49 54
f 56 50 55
f 57 51 56
f 58 28 36
f 59 52 58
f 60 53 59
f 61 54 60
f 62 55 61
f 63 56 62
f 64 57 63
f 37 3 38
f 38 6 40
f 39 38 41
f 40 10 43
f 41 40 44
f 42 41 45
f 43 15 47
f 44 43 48
f 45 44 49
f 46 45 50
f 47 21 52
f 48 47 53
f 49 48 54
f 50 49 55
f 51 50 56
f 52 28 58
f 53 52 59
f 54 53 60
f 55 54 61
f 56 55 62
f 57 56 63
f 65 1 37
f 66 37 39
f 67 65 66
f 68 39 42
f 69 66 68
f 70 67 69
f 71 42 46
f 72 68 71
f 73 69 72
f 74 70 73
f 75 46 51
f 76 71 75
f 77 72 76
f 78 73 77
f 79 74 78
f 80 51 57
f 81 75 80
f 82 76 81
f 83 77 82
f 84 78 83
f 85 79 84
f 86 57 64
f 87 80 86
f 88 81 87
f 89 82 88
f 90 83 89
f 91 84 90
f 92 85 91
f 65 37 66
f 66 39 68
f 67 66 69
f 68 42 71
f 69 68 72
f 70 69 73
f 71 46 75
f 72 71 76
f 73 72 77
f 74 73 78
f 75 51 80
f 76 75 81
f 77 76 82
f 78 77 83
f 79 78 84
f 80 57 86
f 81 80 87
f 82 81 88
f 83 82 89
f 84 83 90
f 85 84 91
f 93 1 65
f 94 65 67
f 95 93 94
f 96 67 70
f 97 94 96
f 98 95 97
f 99 70 74
f 100 96 99
f 101 97 100
f 102 98 101
f 103 74 79
f 104 99 103
f 105 100 104
f 106 101 105
f 107 102 106
f 108 79 85
f 109 103 108
f 110 104 109
f 111 105 110
f 112 106 111
f 113 107 112
f 114 85 92
f 115 108 114
f 116 109 115
f 117 110 116
f 118 111 117
f 119 112 118
f 120 113 119
f 93 65 94
f 94 67 96
f 95 94 97
f 96 70 99
f 97 96 100
f 98 97 101
f 99 74 103
f 100 99 104
f 101 100 105
f 102 101 106
f 103 79 108
f 104 103 109
f 105 104 110
f 106 105 111
f 107 106 112
f 108 85 114
f 109 108 115
f 110 109 116
f 111 110 117
f 112 111 118
f 113 112 119
f 2 1 93
f 121 93 95
f 4 2 121
f 122 95 98
f 123 121 122
f 7 4 123
f 124 98 102
f 125 122 124
f 126 123 125
f 11 7 126
f 127 102 107
f 128 124 127
f 129 125 128
f 130 126 129
f 16 11 130
f 131 107 113
f 132 127 131
f 133 128 132
f 134 129 133
f 135 130 134
f 22 16 135
f 136 113 120
f 137 131 136
f 138 132 137
f 139 133 138
f 140 134 139
f 141 135 140
f 29 22 141
f 2 93 121
f 121 95 122
f 4 121 123
f 122 98 124
f 123 122 125
f 7 123 126
f 124 102 127
f 125 124 128
f 126 125 129
f 11 126 130
f 127 107 131
f 128 127 132
f 129 128 133
f 130 129 134
f 16 130 135
f 131 113 136
f 132 131 137
f 133 132 138
f 134 133 139
f 135 134 140
f 22 135 141
f 142 29 141
f 143 141 140
f 144 142 143
f 145 140 139
f 146 143 145
f 147 144 146
f 148 139 138
f 149 145 148
f 150 146 149
f 151 147 150
f 152 138 137
f 153 148 152
f 154 149 153
f 155 150 154
f 156 151 155
f 157 137 136
f 158 152 157
f 159 153 158
f 160 154 159
f 161 155 160
f 162 156 161
f 163 136 120
f 164 157 163
f 165 158 164
f 166 159 165
f 167 160 166
f 168 161 167
f 169 162 168
f 142 141 143
f 143 140 145
f 144 143 146
f 145 139 148
f 146 145 149
f 147 146 150
f 148 138 152
f 149 148 153
f 150 149 154
f 151 150 155
f 152 137 157
f 153 152 158
f 154 153 159
f 155 154 160
f 156 155 161
f 157 136 163
f 158 157 164
f 159 158 165
f 160 159 166
f 161 160 167
f 162 161 168
f 170 120 119
f 171 119 118
f 172 170 171
f 173 118 117
f 174 171 173
f 175 172 174
f 176 117 116
f 177 173 176
f 178 174 177
f 179 175 178
f 180 116 115
f 181 176 180
f 182 177 181
f 183 178 182
f 184 179 183
f 185 115 114
f 186 180 185
f 187 181 186
f 188 182 187
f 189 183 188
f 190 184 189
f 191 114 92
f 192 185 191
f 193 186 192
f 194 187 193
f 195 188 194
f 196 189 195
f 197 190 196
f 170 119 171
f 171 118 173
f 172 171 174
f 173 117 176
f 174 173 177
f 175 174 178
f 176 116 180
f 177 176 181
f 178 177 182
f 179 178 183
f 180 115 185
f 181 180 186
f 182 181 187
f 183 182 188
f 184 183 189
f 185 114 191
f 186 185 192
f 187 186 193
f 188 187 194
f 189 188 195
f 190 189 196
f 198 92 91
f 199 91 90
f 200 198 199
f 201 90 89
f 202 199 201
f 203 200 202
f 204 89 88
f 205 201 204
f 206 202 205
f 207 203 206
f 208 88 87
f 209 204 208
f 210 205 209
f 211 206 210
f 212 207 211
f 213 87 86
f 214 208 213
f 215 209 214
f 216 210 215
f 217 211 216
f 218 212 217
f 219 86 64
f 220 213 219
f 221 214 220
f 222 215 221
f 223 216 222
f 224 217 223
f 225 218 224
f 198 91 199
f 199 90 201
f 200 199 202
f 201 89 204
f 202 201 205
f 203 202 206
f 204 88 208
f 205 204 209
f 206 205 210
f 207 206 211
f 208 87 213
f 209 208 214
f 210 209 215
f 211 210 216
f 212 211 217
f 213 86 219
f 214 213 220
f 215 214 221
f 216 215 222
f 217 216 223
f 218 217 224
f 226 64 63
f 227 63 62
f 228 226 227
f 229 62 61
f 230 227 229
f 231 228 230
f 232 61 60
f 233 229 232
f 234 230 233
f 235 231 234
f 236 60 59
f 237 232 236
f 238 233 237
f 239 234 238
f 240 235 239
f 241 59 58
f 242 236 241
f 243 237 242
f 244 238 243
f 245 239 244
f 246 240 245
f 247 58 36
f 248 241 247
f 249 242 248
f 250 243 249
f 251 244 250
f 252 245 251
f 253 246 252
f 226 63 227
f 227 62 229
f 228 227 230
f 229 61 232
f 230 229 233
f 231 230 234
f 232 60 236
f 233 232 237
f 234 233 238
f 235 234 239
f 236 59 241
f 237 236 242
f 238 237 243
f 239 238 244
f 240 239 245
f 241 58 247
f 242 241 248
f 243 242 249
f 244 243 250
f 245 244 251
f 246 245 252
f 254 36 35
f 255 35 34
f 256 254 255
f 257 34 33
f 258 255 257
f 259 256 258
f 260 33 32
f 261 257 260
f 262 258 261
f 263 259 262
f 264 32 31
f 265 260 264
f 266 261 265
f 267 262 266
f 268 263 267
f 269 31 30
f 270 264 269
f 271 265 270
f 272 266 271
f 273 267 272
f 274 268 273
f 275 30 29
f 276 269 275
f 277 270 276
f 278 271 277
f 279 272 278
f 280 273 279
f 281 274 280
f 254 35 255
f 255 34 257
f 256 255 258
f 257 33 260
f 258 257 261
f 259 258 262
f 260 32 264
f 261 260 265
f 262 261 266
f 263 262 267
f 264 31 269
f 265 264 270
f 266 265 271
f 267 266 272
f 268 267 273
f 269 30 275
f 270 269 276
f 271 270 277
f 272 271 278
f 273 272 279
f 274 273 280
f 275 29 142
f 282 142 144
f 276 275 282
f 283 144 147
f 284 282 283
f 277 276 284
f 285 147 151
f 286 283 285
f 287 284 286
f 278 277 287
f 288 151 156
f 289 285 288
f 290 286 289
f 291 287 290
f 279 278 291
f 292 156 162
f 293 288 292
f 294 289 293
f 295 290 294
f 296 291 295
f 280 279 296
f 297 162 169
f 298 292 297
f 299 293 298
f 300 294 299
f 301 295 300
f 302 296 301
f 281 280 302
f 275 142 282
f 282 144 283
f 276 282 284
f 283 147 285
f 284 283 286
f 277 284 287
f 285 151 288
f 286 285 289
f 287 286 290
f 278 287 291
f 288 156 292
f 289 288 293
f 290 289 294
f 291 290 295
f 279 291 296
f 292 162 297
f 293 292 298
f 294 293 299
f 295 294 300
f 296 295 301
f 280 296 302
f 163 120 170
f 303 170 172
f 164 163 303
f 304 172 175
f 305 303 304
f 165 164 305
f 306 175 179
f 307 304 306
f 308 305 307
f 166 165 308
f 309 179 184
f 310 306 309
f 311 307 310
f 312 308 311
f 167 166 312
f 313 184 190
f 314 309 313
f 315 310 314
f 316 311 315
f 317 312 316
f 168 167 317
f 318 190 197
f 319 313 318
f 320 314 319
f 321 315 320
f 322 316 321
f 323 317 322
f 169 168 323
f 163 170 303
f 303 172 304
f 164 303 305
f 304 175 306
f 305 304 307
f 165 305 308
f 306 179 309
f 307 306 310
f 308 307 311
f 166 308 312
f 309 184 313
f 310 309 314
f 311 310 315
f 312 311 316
f 167 312 317
f 313 190 318
f 314 313 319
f 315 314 320
f 316 315 321
f 317 316 322
f 168 317 323
f 191 92 198
f 324 198 200
f 192 191 324
f 325 200 203
f 326 324 325
f 193 192 326
f 327 203 207
f 328 325 327
f 329 326 328
f 194 193 329
f 330 207 212
f 331 327 330
f 332 328 331
f 333 329 332
f 195 194 333
f 334 212 218
f 335 330 334
f 336 331 335
f 337 332 336
f 338 333 337
f 196 195 338
f 339 218 225
f 340 334 339
f 341 335 340
f 342 336 341
f 343 337 342
f 344 338 343
f 197 196 344
f 191 198 324
f 324 200 325
f 192 324 326
f 325 203 327
f 326 325 328
f 193 326 329
f 327 207 330
f 328 327 331
f 329 328 332
f 194 329 333
f 330 212 334
f 331 330 335
f 332 331 336
f 333 332 337
f 195 333 338
f 334 218 339
f 335 334 340
f 336 335 341
f 337 336 342
f 338 337 343
f 196 338 344
f 219 64 226
f 345 226 228
f 220 219 345
f 346 228 231
f 347 345 346
f 221 220 347
f 348 231 235
f 349 346 348
f 350 347 349
f 222 221 350
f 351 235 240
f 352 348 351
f 353 349 352
f 354 350 353
f 223 222 354
f 355 240 246
f 356 351 355
f 357 352 356
f 358 353 357
f 359 354 358
f 224 223 359
f 360 246 253
f 361 355 360
f 362 356 361
f 363 357 362
f 364 358 363
f 365 359 364
f 225 224 365
f 219 226 345
f 345 228 346
f 220 345 347
f 346 231 348
f 347 346 349
f 221 347 350
f 348 235 351
f 349 348 352
f 350 349 353
f 222 350 354
f 351 240 355
f 352 351 356
f 353 352 357
f 354 353 358
f 223 354 359
f 355 246 360
f 356 355 361
f 357 356 362
f 358 357 363
f 359 358 364
f 224 359 365
f 247 36 254
f 366 254 256
f 248 247 366
f 367 256 259
f 368 366 367
f 249 248 368
f 369 259 263
f 370 367 369
f 371 368 370
f 250 249 371
f 372 263 268
f 373 369 372
f 374 370 373
f 375 371 374
f 251 250 375
f 376 268 274
f 377 372 376
f 378 373 377
f 379 374 378
f 380 375 379
f 252 251 380
f 381 274 281
f 382 376 381
f 383 377 382
f 384 378 383
f 385 379 384
f 386 380 385
f 253 252 386
f 247 254 366
f 366 256 367
f 248 366 368
f 367 259 369
f 368 367 370
f 249 368 371
f 369 263 372
f 370 369 373
f 371 370 374
f 250 371 375
f 372 268 376
f 373 372 377
f 374 373 378
f 375 374 379
f 251 375 380
f 376 274 381
f 377 376 382
f 378 377 383
f 379 378 384
f 380 379 385
f 252 380 386
f 389 387 388
f 391 388 390
f 392 389 391
f 394 390 393
f 395 391 394
f 396 392 395
f 398 393 397
f 399 394 398
f 400 395 399
f 401 396 400
f 403 397 402
f 404 398 403
f 405 399 404
f 406 400 405
f 407 401 406
f 409 402 408
f 410 403 409
f 411 404 410
f 412 405 411
f 413 406 412
f 414 407 413
f 302 408 281
f 301 409 302
f 300 410 301
f 299 411 300
f 298 412 299
f 297 413 298
f 169 414 297
f 389 388 391
f 391 390 394
f 392 391 395
f 394 393 398
f 395 394 399
f 396 395 400
f 398 397 403
f 399 398 404
f 400 399 405
f 401 400 406
f 403 402 409
f 404 403 410
f 405 404 411
f 406 405 412
f 407 406 413
f 409 408 302
f 410 409 301
f 411 410 300
f 412 411 299
f 413 412 298
f 414 413 297
f 388 387 415
f 417 415 416
f 390 388 417
f 419 416 418
f 420 417 419
f 393 390 420
f 422 418 421
f 423 419 422
f 424 420 423
f 397 393 424
f 426 421 425
f 427 422 426
f 428 423 427
f 429 424 428
f 402 397 429
f 431 425 430
f 432 426 431
f 433 427 432
f 434 428 433
f 435 429 434
f 408 402 435
f 386 430 253
f 385 431 386
f 384 432 385
f 383 433 384
f 382 434 383
f 381 435 382
f 281 408 381
f 388 415 417
f 417 416 419
f 390 417 420
f 419 418 422
f 420 419 423
f 393 420 424
f 422 421 426
f 423 422 427
f 424 423 428
f 397 424 429
f 426 425 431
f 427 426 432
f 428 427 433
f 429 428 434
f 402 429 435
f 431 430 386
f 432 431 385
f 433 432 384
f 434 433 383
f 435 434 382
f 408 435 381
f 415 387 436
f 438 436 437
f 416 415 438
f 440 437 439
f 441 438 440
f 418 416 441
f 443 439 442
f 444 440 443
f 445 441 444
f 421 418 445
f 447 442 446
f 448 443 447
f 449 444 448
f 450 445 449
f 425 421 450
f 452 446 451
f 453 447 452
f 454 448 453
f 455 449 454
f 456 450 455
f 430 425 456
f 365 451 225
f 364 452 365
f 363 453 364
f 362 454 363
f 361 455 362
f 360 456 361
f 253 430 360
f 415 436 438
f 438 437 440
f 416 438 441
f 440 439 443
f 441 440 444
f 418 441 445
f 443 442 447
f 444 443 448
f 445 444 449
f 421 445 450
f 447 446 452
f 448 447 453
f 449 448 454
f 450 449 455
f 425 450 456
f 452 451 365
f 453 452 364
f 454 453 363
f 455 454 362
f 456 455 361
f 430 456 360
f 436 387 457
f 459 457 458
f 437 436 459
f 461 458 460
f 462 459 461
f 439 437 462
f 464 460 463
f 465 461 464
f 466 462 465
f 442 439 466
f 468 463 467
f 469 464 468
f 470 465 469
f 471 466 470
f 446 442 471
f 473 467 472
f 474 468 473
f 475 469 474
f 476 470 475
f 477 471 476
f 451 446 477
f 344 472 197
f 343 473 344
f 342 474 343
f 341 475 342
f 340 476 341
f 339 477 340
f 225 451 339
f 436 457 459
f 459 458 461
f 437 459 462
f 461 460 464
f 462 461 465
f 439 462 466
f 464 463 468
f 465 464 469
f 466 465 470
f 442 466 471
f 468 467 473
f 469 468 474
f 470 469 475
f 471 470 476
f 446 471 477
f 473 472 344
f 474 473 343
f 475 474 342
f 476 475 341
f 477 476 340
f 451 477 339
f 457 387 389
f 478 389 392
f 458 457 478
f 479 392 396
f 480 478 479
f 460 458 480
f 481 396 401
f 482 479 481
f 483 480 482
f 463 460 483
f 484 401 407
f 485 481 484
f 486 482 485
f 487 483 486
f 467 463 487
f 488 407 414
f 489 484 488
f 490 485 489
f 491 486 490
f 492 487 491
f 472 467 492
f 323 414 169
f 322 488 323
f 321 489 322
f 320 490 321
f 319 491 320
f 318 492 319
f 197 472 318
f 457 389 478
f 478 392 479
f 458 478 480
f 479 396 481
f 480 479 482
f 460 480 483
f 481 401 484
f 482 481 485
f 483 482 486
f 463 483 487
f 484 407 488
f 485 484 489
f 486 485 490
f 487 486 491
f 467 487 492
f 488 414 323
f 489 488 322
f 490 489 321
f 491 490 320
f 492 491 319
f 472 492 318
