# File exported by Houdini 20.5.445 (www.sidefx.com)
# 492 points
# 2940 vertices
# 980 primitives
# Bounds: [-117.914871, -104.119392, -1197.51135] to [288.688782, 220.49649, -557.289673]
g 
v 122.295807 133.089172 -1190.18762
v 113.070404 157.473083 -1189.84558
v 153.654816 141.489563 -1197.51135
v 102.267761 181.063568 -1182.94934
v 143.584656 166.538025 -1195.79944
v 181.261353 144.357941 -1196.01917
v 91.9895325 201.19342 -1167.89209
v 132.664612 188.170746 -1185.8606
v 169.874298 168.281799 -1191.19397
v 203.912231 140.166168 -1184.65198
v 84.8908081 214.548035 -1144.40149
v 123.980499 203.775299 -1166.46704
v 159.62558 186.388702 -1176.8728
v 191.677521 161.578522 -1175.84619
v 220.955444 128.640686 -1163.35315
v 82.636261 219.453247 -1113.96375
v 119.066772 211.433624 -1138.19409
v 152.502014 197.012329 -1152.49683
v 182.175903 175.560699 -1156.66479
v 208.405396 146.668396 -1150.27832
v 232.457642 111.011467 -1133.1272
v 84.522644 215.964386 -1077.83179
v 117.730133 210.581055 -1102.04016
v 148.454376 199.174255 -1118.35803
v 175.705688 181.102081 -1126.44824
v 199.184845 156.091461 -1125.68237
v 219.741943 125.044197 -1115.28052
v 239.063538 89.7943573 -1095.70227
v 87.3483276 205.72464 -1036.70166
v 117.449799 201.730652 -1057.90198
v 145.430237 192.676117 -1073.9209
v 170.383026 177.589417 -1084.04382
v 191.748993 156.219177 -1087.5426
v 209.762146 129.51535 -1083.50037
v 225.916077 99.4003983 -1071.48657
v 241.724731 68.1290131 -1052.79736
v 148.837372 114.56562 -1191.20068
v 183.272186 119.158897 -1193.36853
v 172.012695 94.8245773 -1185.34973
v 210.806641 116.689644 -1185.08813
v 207.075928 95.2273178 -1180.70447
v 191.766541 73.941124 -1172.61658
v 231.36792 107.093117 -1166.61829
v 233.367676 87.7941742 -1165.02405
v 226.152283 70.0988464 -1160.38208
v 208.571106 52.2755814 -1152.9209
v 245.323181 91.3243408 -1138.57678
v 251.986572 73.6287689 -1139.2251
v 251.043274 58.162117 -1136.96838
v 241.553223 44.2166328 -1132.68945
v 222.367432 30.1305847 -1126.18677
v 253.417664 71.2977371 -1101.79785
v 263.873413 54.485054 -1103.50488
v 268.25116 40.1396255 -1102.75037
v 265.0047 28.1927643 -1100.59583
v 253.166382 17.8278255 -1097.36072
v 231.980957 7.57506943 -1092.4386
v 256.652527 49.992836 -1056.56775
v 269.842651 33.1074753 -1056.90906
v 278.716431 18.7103653 -1055.90027
v 280.772949 7.34407043 -1054.84778
v 274.409119 -1.29558945 -1054.15576
v 259.15686 -8.15340424 -1053.51794
v 235.52002 -14.4690704 -1051.92322
v 104.702301 110.804604 -1179.34351
v 129.21814 90.8657837 -1179.61475
v 83.4287415 87.4341431 -1164.38782
v 150.144836 71.3563461 -1173.30859
v 106.338501 66.6358261 -1164.22827
v 59.4028015 63.9591179 -1145.92151
v 168.490997 51.9384842 -1160.40625
v 126.19162 47.4172859 -1157.43286
v 81.5862732 42.6627464 -1145.33618
v 34.6187134 40.5760803 -1124.74487
v 184.648315 32.3646469 -1140.23315
v 144.069214 28.9300518 -1143.69763
v 101.103302 23.5184307 -1137.60925
v 56.5809021 18.6031227 -1123.26965
v 10.7658691 17.1494961 -1101.52051
v 197.687469 12.1031513 -1111.67078
v 159.346466 10.6362553 -1121.40759
v 118.270447 5.0534935 -1121.69141
v 75.5094299 -1.44273758 -1113.35107
v 32.0470276 -5.9821434 -1097.74707
v -10.9468079 -6.40712738 -1076.41797
v 205.22937 -9.61646271 -1073.35144
v 170.056763 -9.44736481 -1088.04749
v 131.286102 -14.1122208 -1094.54187
v 90.3876953 -21.2971573 -1092.45898
v 48.8496704 -27.693428 -1082.90686
v 8.18356323 -30.7099686 -1067.77222
v -29.7378845 -29.0546265 -1049.08899
v 84.6483154 136.916138 -1176.39941
v 63.3103333 112.157173 -1161.10596
v 48.3786926 140.443848 -1155.5332
v 39.5687866 88.2140198 -1142.24463
v 25.2114868 114.625374 -1137.03772
v 15.440155 144.510529 -1129.45093
v 14.5236511 64.6550064 -1120.8457
v 0.958312988 90.3756561 -1115.95557
v -8.28918457 118.08007 -1109.51489
v -13.5822144 148.126465 -1100.34851
v -10.1960754 41.0664062 -1097.5824
v -23.9803772 66.535614 -1092.82703
v -32.3847961 93.2305374 -1087.58203
v -37.4465027 121.044594 -1080.36987
v -39.2011108 149.433075 -1070.02844
v -33.0756531 16.3948479 -1072.78625
v -48.1975403 41.5751953 -1068.04871
v -56.9743195 68.047554 -1063.42908
v -61.2070465 95.0244522 -1058.08081
v -62.7424316 121.791756 -1050.22949
v -61.4623871 147.307312 -1039.07971
v -52.725708 -9.19761276 -1045.64258
v -69.9498444 14.5196285 -1040.98059
v -80.4674377 40.690506 -1036.58313
v -84.9887848 67.8671341 -1032.21936
v -85.5702515 94.6128464 -1026.33521
v -83.4637756 119.667732 -1017.99854
v -78.8349152 142.191925 -1006.60376
v 73.7709656 164.021393 -1171.62329
v 38.9317322 169.414307 -1146.51392
v 63.0528564 188.733032 -1159.55896
v 8.59906006 173.573822 -1116.72498
v 29.8686829 193.593567 -1129.62158
v 53.8829041 207.896301 -1139.41174
v -18.3933716 175.090973 -1084.1925
v 1.29162598 195.397827 -1095.71863
v 22.6351929 210.280731 -1105.09692
v 48.8515625 218.940918 -1111.96692
v -43 172.520935 -1049.85364
v -24.6163635 192.895111 -1058.95007
v -4.47988892 208.081818 -1066.76453
v 19.7389221 217.532104 -1073.50781
v 49.5317078 220.49649 -1078.02869
v -64.2898865 165.614319 -1012.9126
v -48.2819824 185.365234 -1018.48816
v -29.321228 200.389435 -1023.94751
v -5.84606934 210.122955 -1029.41638
v 22.5509644 214.267303 -1034.47839
v 54.5439148 212.769379 -1037.57385
v 69.12323 197.399078 -993.848145
v 34.1941528 202.904327 -992.37793
v 50.7541504 187.197021 -948.68866
v 1.34707642 203.294708 -988.433228
v 15.5704956 191.717163 -947.377869
v 32.0194702 176.422241 -902.784119
v -26.9286804 198.571686 -984.067261
v -16.3144836 191.257568 -944.640015
v -1.81854248 179.812164 -903.551147
v 13.3153076 164.887909 -858.330933
v -49.643219 188.327118 -980.270752
v -43.0272217 185.292603 -942.150879
v -31.4637146 177.825989 -903.324158
v -17.7398071 166.398438 -862.278381
v -3.94784546 151.532104 -817.773438
v -67.4442291 171.996216 -977.502441
v -64.3079376 173.203247 -940.745728
v -55.8561096 169.557312 -903.452881
v -44.0846863 161.496124 -865.142639
v -31.0529785 149.679749 -825.060486
v -18.0329895 135.293549 -783.195068
v -82.2657928 149.788666 -975.397949
v -81.119873 153.795959 -941.009521
v -75.2886047 153.74353 -905.113953
v -65.6696472 149.439606 -868.513916
v -53.803833 141.212555 -831.156372
v -41.0784302 129.763519 -793.177063
v -27.7481384 115.497643 -755.659912
v -94.4781189 123.000771 -981.775879
v -101.158066 97.2698441 -992.60022
v -105.91478 103.395805 -957.392212
v -103.869553 69.5308533 -1000.5155
v -112.602264 75.3205719 -968.797852
v -112.599045 83.1515198 -933.263489
v -102.799789 40.6489067 -1005.66992
v -114.326599 45.6312027 -976.57959
v -117.914871 53.7892647 -945.208618
v -114.336807 62.5685921 -908.838867
v -96.0855103 12.2193737 -1009.65466
v -111.12735 15.3729897 -980.92041
v -117.451248 23.412035 -952.185059
v -117.539001 33.2994614 -919.930786
v -111.726059 42.6577568 -882.73175
v -81.8498383 -14.2660522 -1014.0094
v -101.015961 -13.7336273 -983.858643
v -111.097 -7.0213623 -954.741211
v -114.063736 3.68052292 -924.524475
v -112.359818 14.7704296 -890.698914
v -105.677353 24.5028286 -853.403564
v -59.522583 -37.4209824 -1018.48938
v -82.1933594 -39.9533386 -987.037964
v -96.7278442 -35.7711792 -955.262451
v -103.659393 -25.616539 -923.505981
v -105.252731 -12.9682541 -890.537598
v -103.336136 -1.32601738 -855.584473
v -97.0334167 8.48978424 -820.162659
v -23.6298828 -51.1114273 -1030.61938
v 17.1838379 -51.7127914 -1046.75732
v -16.3833313 -68.2201614 -1007.4613
v 58.7474365 -46.886528 -1057.53967
v 25.2288208 -67.5461655 -1020.48413
v -9.23629761 -80.1503525 -979.291992
v 99.9136658 -39.3679352 -1061.46948
v 66.2319946 -61.7082138 -1026.59094
v 31.553833 -78.6652145 -988.822388
v -2.66165161 -86.8672104 -946.364197
v 140.100891 -32.4175415 -1057.09924
v 106.551758 -53.8341293 -1024.53442
v 71.466217 -72.1783066 -989.85437
v 36.5478516 -84.8769608 -951.924194
v 3.71911621 -89.2658768 -909.359314
v 178.58374 -28.9217911 -1043.76868
v 146.420898 -47.5579224 -1012.93884
v 111.312469 -65.1152725 -980.82373
v 75.5482788 -79.5202713 -946.648193
v 41.4779663 -88.5179672 -909.653809
v 11.4826355 -90.3969803 -868.975342
v 214.399109 -30.5770874 -1022.22717
v 185.906891 -46.0246811 -991.349976
v 152.361847 -61.4751663 -960.214355
v 116.475677 -75.640831 -928.607849
v 81.2588501 -86.5406876 -896.077393
v 49.5281677 -92.3965073 -862.177124
v 23.2834778 -92.5139236 -826.233093
v 249.34552 -30.9493484 -1006.14478
v 273.058167 -26.5785408 -1003.1355
v 257.234131 -46.2189255 -954.620483
v 285.634705 -20.6663132 -1001.08154
v 279.423218 -41.8982468 -949.438354
v 260.391541 -59.8554459 -900.336975
v 287.79187 -11.8057823 -1001.00452
v 288.688782 -34.8851967 -947.257751
v 280.033569 -53.4639053 -895.355835
v 260.164368 -70.222374 -846.583496
v 281.106628 0.9100914 -1003.05322
v 286.814514 -23.8361397 -948.568726
v 285.747559 -43.2914124 -894.893127
v 276.748413 -59.9097061 -843.623901
v 257.45575 -75.0013657 -796.450623
v 267.952942 17.6758385 -1006.34656
v 276.037109 -8.05234909 -952.987305
v 280.030823 -28.2483025 -898.65863
v 278.918945 -44.9527435 -845.704529
v 270.627441 -59.5407944 -796.221252
v 252.841858 -72.8604813 -752.090698
v 251.112183 37.8881989 -1008.39746
v 258.982056 12.4842911 -958.635986
v 265.320068 -7.7977562 -905.434143
v 269.485291 -24.4494743 -851.732117
v 269.284851 -38.8207474 -800.388428
v 262.190918 -51.9680862 -753.789856
v 246.595764 -64.5538254 -713.754089
v 232.125366 66.998558 -1019.15979
v 215.89624 97.9256821 -1034.20959
v 220.736206 66.97995 -981.849365
v 199.861115 126.085854 -1041.04089
v 203.348236 96.3769302 -993.135498
v 207.659729 68.1161346 -941.247559
v 181.948517 150.148682 -1040.50867
v 186.031464 122.274254 -995.578003
v 188.05188 95.6326065 -948.924255
v 193.567841 70.5552597 -898.133789
v 160.792755 168.992065 -1033.88977
v 167.024078 143.884644 -991.272583
v 168.744843 119.387154 -947.422363
v 171.403442 95.8931808 -902.089417
v 178.40097 74.1155548 -853.193115
v 135.469788 182.181458 -1021.90601
v 144.594147 160.491974 -981.555176
v 147.832214 138.675476 -939.114441
v 149.504669 117.27346 -896.140564
v 153.402466 96.7226028 -852.583008
v 162.321991 77.1829834 -807.34436
v 105.497437 189.986603 -1004.46313
v 117.117188 171.810669 -966.496094
v 122.840576 152.866638 -924.843018
v 125.122772 133.902374 -882.371826
v 127.759003 115.008766 -840.916443
v 133.966278 96.3670425 -801.000366
v 145.176941 77.8136139 -762.315063
v 85.494873 180.399261 -954.651611
v 65.2422791 170.121948 -904.521423
v 94.7764282 162.734802 -911.714661
v 44.3114319 159.530853 -855.626038
v 72.4017639 153.171387 -858.669189
v 98.8437805 145.107178 -867.400391
v 23.8479004 147.520355 -809.874878
v 50.3612671 142.360291 -808.402344
v 76.0024109 135.863647 -813.107605
v 101.527283 127.132454 -824.035217
v 5.73150635 132.470795 -769.406738
v 30.1702881 128.465363 -762.32782
v 55.1592407 123.416328 -762.311646
v 80.7785339 116.77166 -769.36792
v 107.0271 108.009727 -782.710327
v -8.29940796 113.126411 -736.033264
v 13.6476135 109.459663 -722.279175
v 37.8178711 105.300163 -715.984375
v 63.8151245 100.430885 -717.980286
v 90.9430847 94.4938736 -727.674194
v 118.386658 87.1177368 -743.218445
v -94.5877991 129.834595 -947.400024
v -101.90564 109.440666 -921.434204
v -89.9226074 132.534149 -911.503601
v -104.982269 88.4336548 -895.973755
v -93.5517273 110.666435 -885.042419
v -81.3508759 131.101379 -875.038513
v -104.205414 67.1904449 -869.684875
v -93.6138763 88.4046631 -858.611938
v -82.3345337 107.771751 -847.857239
v -70.0475311 125.71154 -837.722717
v -99.9086151 46.3098831 -840.941467
v -90.822998 66.0567093 -829.752136
v -80.1763916 84.0397491 -819.346741
v -69.2732391 101.021278 -808.544128
v -57.0144196 116.591026 -798.709045
v -92.5965576 26.4251366 -807.302185
v -85.0264435 43.649437 -795.768921
v -75.482605 59.8600616 -785.416626
v -65.0950623 75.1590576 -775.515259
v -54.4374237 89.9219971 -765.616028
v -42.4759521 103.647301 -757.940552
v -53.4605865 -59.0268173 -995.12793
v -45.7088928 -73.0770645 -967.650513
v -74.355423 -58.2982559 -959.159302
v -37.540741 -81.0316544 -935.822937
v -64.931076 -68.1878433 -927.463806
v -86.6478271 -50.0707169 -922.617004
v -29.1942139 -84.1648636 -899.730896
v -55.1535645 -72.9381943 -891.362244
v -75.7335205 -56.9285355 -885.766113
v -92.3079987 -37.1193085 -885.494934
v -19.8056641 -84.8759689 -859.413696
v -44.8336487 -74.6275558 -850.335999
v -64.8287506 -60.4077225 -843.695618
v -80.8769379 -43.1159821 -842.048706
v -93.8055573 -23.4509621 -846.851807
v -6.30252075 -86.0542526 -815.43866
v -31.1109009 -75.8708878 -804.457214
v -51.524292 -62.5534897 -795.914185
v -67.9358826 -46.9358063 -792.313416
v -80.9546204 -29.7270699 -796.506775
v -90.7189941 -11.2952499 -807.067078
v 224.406555 -46.8944016 -969.517334
v 229.22229 -62.2465286 -913.856812
v 192.87616 -61.8143692 -934.95929
v 230.926025 -75.6156998 -857.551575
v 195.935394 -76.6349564 -877.552246
v 157.445557 -75.6218796 -902.358948
v 230.751404 -84.763237 -802.871704
v 197.262878 -88.775856 -820.313904
v 159.974518 -88.8267288 -844.288757
v 120.788177 -87.2081985 -870.630493
v 229.147156 -87.2460098 -751.864441
v 197.713806 -95.66819 -764.256897
v 161.666351 -98.6468735 -785.742126
v 123.559204 -97.6472549 -811.86377
v 85.5630493 -94.9639664 -838.373779
v 226.094727 -81.9011765 -705.475281
v 197.273193 -94.8843613 -709.850525
v 162.897522 -102.26133 -725.810547
v 125.835571 -104.119392 -749.901794
v 88.7996826 -101.827766 -777.205933
v 54.1079712 -97.3590469 -803.36676
v 239.524658 38.1715775 -969.44043
v 227.273315 41.0139847 -928.86731
v 246.315369 16.2333832 -916.414673
v 215.190186 45.4313316 -886.328186
v 234.811218 22.3150558 -874.237854
v 253.155518 -0.89315033 -861.589722
v 202.1763 51.1605949 -842.241516
v 223.555542 29.6024952 -830.150635
v 242.195984 7.70804977 -818.208679
v 258.031433 -15.4218445 -806.893921
v 187.474762 56.7835121 -796.645691
v 210.81073 36.8123245 -783.879211
v 230.723999 16.057106 -771.918152
v 246.546509 -6.03765869 -761.567261
v 257.649292 -29.349968 -754.197449
v 170.189392 59.9717941 -749.960571
v 194.588318 41.7857895 -735.626587
v 215.979431 22.0784206 -721.88916
v 232.502258 0.787185669 -711.41217
v 243.399231 -21.6563492 -705.505432
v 248.321228 -44.2118607 -705.492859
v 43.1929321 -38.7313614 -564.531738
v 69.3651733 -27.0244255 -561.589111
v 28.9475098 -18.2854538 -576.667419
v 94.7818909 -10.8825874 -571.843506
v 53.5620117 -4.86306763 -579.103149
v 16.2449341 2.63342285 -597.998108
v 116.238922 8.34278488 -594.175903
v 75.6579895 11.8436718 -594.087158
v 38.7410583 16.8130989 -604.007202
v 4.98660278 23.6548538 -625.350342
v 131.1586 28.561533 -626.679565
v 92.6980896 31.0548763 -619.09314
v 57.0293274 34.295433 -620.673706
v 24.317627 39.1929855 -632.205811
v -5.50256348 45.7290688 -655.189819
v 139.239655 47.7002106 -667.017029
v 104.05191 51.2264862 -652.49231
v 70.4266052 54.3605995 -646.16272
v 39.1303406 58.2101517 -649.114136
v 10.5362549 63.2292633 -662.315125
v -15.1895447 69.1554108 -686.417236
v 142.809418 64.3111801 -712.824524
v 111.561859 70.4248199 -693.84668
v 80.6859741 75.076416 -681.212097
v 51.2199097 79.3055115 -676.692993
v 23.8774414 83.6095734 -681.671143
v -0.861053467 88.2666473 -696.237244
v -22.9051514 93.0401917 -719.619141
v 75.9263 -51.0570602 -557.289673
v 110.810059 -59.1789627 -560.9422
v 107.487549 -35.3245926 -558.771729
v 145.448212 -63.28405 -575.452759
v 144.50061 -39.4129257 -568.366821
v 134.95752 -15.3834839 -575.999878
v 177.494141 -64.7489548 -599.798096
v 178.176331 -40.8204117 -589.224976
v 170.721191 -16.8857956 -592.609436
v 155.213837 6.2611084 -605.884155
v 205.149109 -65.069191 -632.332581
v 206.86676 -41.2760239 -620.106995
v 200.858246 -17.5419769 -620.143433
v 187.480255 5.45139122 -629.679077
v 166.811432 27.0235577 -646.16449
v 227.913513 -65.0592117 -671.072144
v 229.960388 -42.260582 -659.462036
v 224.885254 -18.802269 -657.967651
v 213.087402 3.94588852 -664.617676
v 194.738251 25.4061699 -677.685364
v 170.751068 45.1043129 -694.885925
v 36.8834534 -55.2771835 -573.077759
v 31.8985291 -68.531517 -595.512573
v 71.2793579 -69.5777206 -571.640381
v 28.3665466 -78.3769913 -630.328369
v 67.1615906 -83.0386581 -601.379517
v 106.523438 -78.4112167 -581.485901
v 25.2068481 -85.1877213 -674.36676
v 63.1199951 -92.2309036 -642.833862
v 101.725098 -91.7305984 -617.041992
v 140.549072 -82.8439255 -600.809692
v 22.0041809 -89.4283981 -723.921082
v 58.5649719 -97.4484329 -692.423767
v 96.4315796 -100.168343 -663.354126
v 134.779999 -96.0622482 -640.366333
v 172.112 -84.4504929 -628.325439
v 20.5140686 -91.8022232 -775.393127
v 54.6670837 -99.0615768 -746.784607
v 91.3534546 -103.66967 -717.416992
v 129.220886 -103.492989 -690.536926
v 166.4198 -97.1352768 -670.929626
v 200.465363 -84.1543961 -663.39978
v 10.6833191 -33.364727 -583.152466
v -16.2034302 -24.9966698 -610.626831
v 3.18951416 -48.2294159 -597.975708
v -37.753479 -15.95961 -645.29895
v -23.0151672 -38.8354111 -629.928345
v -1.66186523 -59.6635971 -625.885986
v -55.468811 -7.91836929 -685.987061
v -43.8487549 -29.6815262 -667.488037
v -27.2294922 -49.6139145 -661.099976
v -4.70120239 -68.2531815 -664.264038
v -70.9403992 -1.24610901 -730.340393
v -61.5580139 -22.0444221 -710.450684
v -48.0011902 -40.7962723 -700.731689
v -30.1090088 -58.5091629 -701.67627
v -7.20089722 -75.005455 -710.253662
v -84.8166962 4.19364548 -775.72644
v -77.1635132 -16.0492439 -757.513
v -65.8524017 -34.2360954 -745.740234
v -50.9607544 -51.1819687 -743.589966
v -32.151062 -66.9565811 -749.808899
v -8.71624756 -80.8332291 -761.32135
v -3.08200073 -10.9918747 -600.534668
v -13.8296814 10.7286854 -626.549255
v -27.8767395 -1.88438416 -632.934937
v -22.3232422 32.0758896 -657.268311
v -36.234436 19.874485 -662.887085
v -47.2223816 6.88785934 -671.924805
v -29.8179016 54.3040352 -689.65918
v -42.6716919 41.4103394 -696.120605
v -53.9476929 28.5802383 -704.352234
v -63.4386749 14.5010223 -715.241333
v -36.7743225 78.3775177 -722.771606
v -48.573822 64.3564148 -730.394653
v -59.5453949 50.6744041 -739.200195
v -69.6709595 36.4316788 -748.976379
v -78.3694458 20.9691696 -760.836426
g 
f 3 1 2
f 5 2 4
f 6 3 5
f 8 4 7
f 9 5 8
f 10 6 9
f 12 7 11
f 13 8 12
f 14 9 13
f 15 10 14
f 17 11 16
f 18 12 17
f 19 13 18
f 20 14 19
f 21 15 20
f 23 16 22
f 24 17 23
f 25 18 24
f 26 19 25
f 27 20 26
f 28 21 27
f 30 22 29
f 31 23 30
f 32 24 31
f 33 25 32
f 34 26 33
f 35 27 34
f 36 28 35
f 3 2 5
f 5 4 8
f 6 5 9
f 8 7 12
f 9 8 13
f 10 9 14
f 12 11 17
f 13 12 18
f 14 13 19
f 15 14 20
f 17 16 23
f 18 17 24
f 19 18 25
f 20 19 26
f 21 20 27
f 23 22 30
f 24 23 31
f 25 24 32
f 26 25 33
f 27 26 34
f 28 27 35
f 37 1 3
f 38 3 6
f 39 37 38
f 40 6 10
f 41 38 40
f 42 39 41
f 43 10 15
f 44 40 43
f 45 41 44
f 46 42 45
f 47 15 21
f 48 43 47
f 49 44 48
f 50 45 49
f 51 46 50
f 52 21 28
f 53 47 52
f 54 48 53
f 55 49 54
f 56 50 55
f 57 51 56
f 58 28 36
f 59 52 58
f 60 53 59
f 61 54 60
f 62 55 61
f 63 56 62
f 64 57 63
f 37 3 38
f 38 6 40
f 39 38 41
f 40 10 43
f 41 40 44
f 42 41 45
f 43 15 47
f 44 43 48
f 45 44 49
f 46 45 50
f 47 21 52
f 48 47 53
f 49 48 54
f 50 49 55
f 51 50 56
f 52 28 58
f 53 52 59
f 54 53 60
f 55 54 61
f 56 55 62
f 57 56 63
f 65 1 37
f 66 37 39
f 67 65 66
f 68 39 42
f 69 66 68
f 70 67 69
f 71 42 46
f 72 68 71
f 73 69 72
f 74 70 73
f 75 46 51
f 76 71 75
f 77 72 76
f 78 73 77
f 79 74 78
f 80 51 57
f 81 75 80
f 82 76 81
f 83 77 82
f 84 78 83
f 85 79 84
f 86 57 64
f 87 80 86
f 88 81 87
f 89 82 88
f 90 83 89
f 91 84 90
f 92 85 91
f 65 37 66
f 66 39 68
f 67 66 69
f 68 42 71
f 69 68 72
f 70 69 73
f 71 46 75
f 72 71 76
f 73 72 77
f 74 73 78
f 75 51 80
f 76 75 81
f 77 76 82
f 78 77 83
f 79 78 84
f 80 57 86
f 81 80 87
f 82 81 88
f 83 82 89
f 84 83 90
f 85 84 91
f 93 1 65
f 94 65 67
f 95 93 94
f 96 67 70
f 97 94 96
f 98 95 97
f 99 70 74
f 100 96 99
f 101 97 100
f 102 98 101
f 103 74 79
f 104 99 103
f 105 100 104
f 106 101 105
f 107 102 106
f 108 79 85
f 109 103 108
f 110 104 109
f 111 105 110
f 112 106 111
f 113 107 112
f 114 85 92
f 115 108 114
f 116 109 115
f 117 110 116
f 118 111 117
f 119 112 118
f 120 113 119
f 93 65 94
f 94 67 96
f 95 94 97
f 96 70 99
f 97 96 100
f 98 97 101
f 99 74 103
f 100 99 104
f 101 100 105
f 102 101 106
f 103 79 108
f 104 103 109
f 105 104 110
f 106 105 111
f 107 106 112
f 108 85 114
f 109 108 115
f 110 109 116
f 111 110 117
f 112 111 118
f 113 112 119
f 2 1 93
f 121 93 95
f 4 2 121
f 122 95 98
f 123 121 122
f 7 4 123
f 124 98 102
f 125 122 124
f 126 123 125
f 11 7 126
f 127 102 107
f 128 124 127
f 129 125 128
f 130 126 129
f 16 11 130
f 131 107 113
f 132 127 131
f 133 128 132
f 134 129 133
f 135 130 134
f 22 16 135
f 136 113 120
f 137 131 136
f 138 132 137
f 139 133 138
f 140 134 139
f 141 135 140
f 29 22 141
f 2 93 121
f 121 95 122
f 4 121 123
f 122 98 124
f 123 122 125
f 7 123 126
f 124 102 127
f 125 124 128
f 126 125 129
f 11 126 130
f 127 107 131
f 128 127 132
f 129 128 133
f 130 129 134
f 16 130 135
f 131 113 136
f 132 131 137
f 133 132 138
f 134 133 139
f 135 134 140
f 22 135 141
f 142 29 141
f 143 141 140
f 144 142 143
f 145 140 139
f 146 143 145
f 147 144 146
f 148 139 138
f 149 145 148
f 150 146 149
f 151 147 150
f 152 138 137
f 153 148 152
f 154 149 153
f 155 150 154
f 156 151 155
f 157 137 136
f 158 152 157
f 159 153 158
f 160 154 159
f 161 155 160
f 162 156 161
f 163 136 120
f 164 157 163
f 165 158 164
f 166 159 165
f 167 160 166
f 168 161 167
f 169 162 168
f 142 141 143
f 143 140 145
f 144 143 146
f 145 139 148
f 146 145 149
f 147 146 150
f 148 138 152
f 149 148 153
f 150 149 154
f 151 150 155
f 152 137 157
f 153 152 158
f 154 153 159
f 155 154 160
f 156 155 161
f 157 136 163
f 158 157 164
f 159 158 165
f 160 159 166
f 161 160 167
f 162 161 168
f 170 120 119
f 171 119 118
f 172 170 171
f 173 118 117
f 174 171 173
f 175 172 174
f 176 117 116
f 177 173 176
f 178 174 177
f 179 175 178
f 180 116 115
f 181 176 180
f 182 177 181
f 183 178 182
f 184 179 183
f 185 115 114
f 186 180 185
f 187 181 186
f 188 182 187
f 189 183 188
f 190 184 189
f 191 114 92
f 192 185 191
f 193 186 192
f 194 187 193
f 195 188 194
f 196 189 195
f 197 190 196
f 170 119 171
f 171 118 173
f 172 171 174
f 173 117 176
f 174 173 177
f 175 174 178
f 176 116 180
f 177 176 181
f 178 177 182
f 179 178 183
f 180 115 185
f 181 180 186
f 182 181 187
f 183 182 188
f 184 183 189
f 185 114 191
f 186 185 192
f 187 186 193
f 188 187 194
f 189 188 195
f 190 189 196
f 198 92 91
f 199 91 90
f 200 198 199
f 201 90 89
f 202 199 201
f 203 200 202
f 204 89 88
f 205 201 204
f 206 202 205
f 207 203 206
f 208 88 87
f 209 204 208
f 210 205 209
f 211 206 210
f 212 207 211
f 213 87 86
f 214 208 213
f 215 209 214
f 216 210 215
f 217 211 216
f 218 212 217
f 219 86 64
f 220 213 219
f 221 214 220
f 222 215 221
f 223 216 222
f 224 217 223
f 225 218 224
f 198 91 199
f 199 90 201
f 200 199 202
f 201 89 204
f 202 201 205
f 203 202 206
f 204 88 208
f 205 204 209
f 206 205 210
f 207 206 211
f 208 87 213
f 209 208 214
f 210 209 215
f 211 210 216
f 212 211 217
f 213 86 219
f 214 213 220
f 215 214 221
f 216 215 222
f 217 216 223
f 218 217 224
f 226 64 63
f 227 63 62
f 228 226 227
f 229 62 61
f 230 227 229
f 231 228 230
f 232 61 60
f 233 229 232
f 234 230 233
f 235 231 234
f 236 60 59
f 237 232 236
f 238 233 237
f 239 234 238
f 240 235 239
f 241 59 58
f 242 236 241
f 243 237 242
f 244 238 243
f 245 239 244
f 246 240 245
f 247 58 36
f 248 241 247
f 249 242 248
f 250 243 249
f 251 244 250
f 252 245 251
f 253 246 252
f 226 63 227
f 227 62 229
f 228 227 230
f 229 61 232
f 230 229 233
f 231 230 234
f 232 60 236
f 233 232 237
f 234 233 238
f 235 234 239
f 236 59 241
f 237 236 242
f 238 237 243
f 239 238 244
f 240 239 245
f 241 58 247
f 242 241 248
f 243 242 249
f 244 243 250
f 245 244 251
f 246 245 252
f 254 36 35
f 255 35 34
f 256 254 255
f 257 34 33
f 258 255 257
f 259 256 258
f 260 33 32
f 261 257 260
f 262 258 261
f 263 259 262
f 264 32 31
f 265 260 264
f 266 261 265
f 267 262 266
f 268 263 267
f 269 31 30
f 270 264 269
f 271 265 270
f 272 266 271
f 273 267 272
f 274 268 273
f 275 30 29
f 276 269 275
f 277 270 276
f 278 271 277
f 279 272 278
f 280 273 279
f 281 274 280
f 254 35 255
f 255 34 257
f 256 255 258
f 257 33 260
f 258 257 261
f 259 258 262
f 260 32 264
f 261 260 265
f 262 261 266
f 263 262 267
f 264 31 269
f 265 264 270
f 266 265 271
f 267 266 272
f 268 267 273
f 269 30 275
f 270 269 276
f 271 270 277
f 272 271 278
f 273 272 279
f 274 273 280
f 275 29 142
f 282 142 144
f 276 275 282
f 283 144 147
f 284 282 283
f 277 276 284
f 285 147 151
f 286 283 285
f 287 284 286
f 278 277 287
f 288 151 156
f 289 285 288
f 290 286 289
f 291 287 290
f 279 278 291
f 292 156 162
f 293 288 292
f 294 289 293
f 295 290 294
f 296 291 295
f 280 279 296
f 297 162 169
f 298 292 297
f 299 293 298
f 300 294 299
f 301 295 300
f 302 296 301
f 281 280 302
f 275 142 282
f 282 144 283
f 276 282 284
f 283 147 285
f 284 283 286
f 277 284 287
f 285 151 288
f 286 285 289
f 287 286 290
f 278 287 291
f 288 156 292
f 289 288 293
f 290 289 294
f 291 290 295
f 279 291 296
f 292 162 297
f 293 292 298
f 294 293 299
f 295 294 300
f 296 295 301
f 280 296 302
f 163 120 170
f 303 170 172
f 164 163 303
f 304 172 175
f 305 303 304
f 165 164 305
f 306 175 179
f 307 304 306
f 308 305 307
f 166 165 308
f 309 179 184
f 310 306 309
f 311 307 310
f 312 308 311
f 167 166 312
f 313 184 190
f 314 309 313
f 315 310 314
f 316 311 315
f 317 312 316
f 168 167 317
f 318 190 197
f 319 313 318
f 320 314 319
f 321 315 320
f 322 316 321
f 323 317 322
f 169 168 323
f 163 170 303
f 303 172 304
f 164 303 305
f 304 175 306
f 305 304 307
f 165 305 308
f 306 179 309
f 307 306 310
f 308 307 311
f 166 308 312
f 309 184 313
f 310 309 314
f 311 310 315
f 312 311 316
f 167 312 317
f 313 190 318
f 314 313 319
f 315 314 320
f 316 315 321
f 317 316 322
f 168 317 323
f 191 92 198
f 324 198 200
f 192 191 324
f 325 200 203
f 326 324 325
f 193 192 326
f 327 203 207
f 328 325 327
f 329 326 328
f 194 193 329
f 330 207 212
f 331 327 330
f 332 328 331
f 333 329 332
f 195 194 333
f 334 212 218
f 335 330 334
f 336 331 335
f 337 332 336
f 338 333 337
f 196 195 338
f 339 218 225
f 340 334 339
f 341 335 340
f 342 336 341
f 343 337 342
f 344 338 343
f 197 196 344
f 191 198 324
f 324 200 325
f 192 324 326
f 325 203 327
f 326 325 328
f 193 326 329
f 327 207 330
f 328 327 331
f 329 328 332
f 194 329 333
f 330 212 334
f 331 330 335
f 332 331 336
f 333 332 337
f 195 333 338
f 334 218 339
f 335 334 340
f 336 335 341
f 337 336 342
f 338 337 343
f 196 338 344
f 219 64 226
f 345 226 228
f 220 219 345
f 346 228 231
f 347 345 346
f 221 220 347
f 348 231 235
f 349 346 348
f 350 347 349
f 222 221 350
f 351 235 240
f 352 348 351
f 353 349 352
f 354 350 353
f 223 222 354
f 355 240 246
f 356 351 355
f 357 352 356
f 358 353 357
f 359 354 358
f 224 223 359
f 360 246 253
f 361 355 360
f 362 356 361
f 363 357 362
f 364 358 363
f 365 359 364
f 225 224 365
f 219 226 345
f 345 228 346
f 220 345 347
f 346 231 348
f 347 346 349
f 221 347 350
f 348 235 351
f 349 348 352
f 350 349 353
f 222 350 354
f 351 240 355
f 352 351 356
f 353 352 357
f 354 353 358
f 223 354 359
f 355 246 360
f 356 355 361
f 357 356 362
f 358 357 363
f 359 358 364
f 224 359 365
f 247 36 254
f 366 254 256
f 248 247 366
f 367 256 259
f 368 366 367
f 249 248 368
f 369 259 263
f 370 367 369
f 371 368 370
f 250 249 371
f 372 263 268
f 373 369 372
f 374 370 373
f 375 371 374
f 251 250 375
f 376 268 274
f 377 372 376
f 378 373 377
f 379 374 378
f 380 375 379
f 252 251 380
f 381 274 281
f 382 376 381
f 383 377 382
f 384 378 383
f 385 379 384
f 386 380 385
f 253 252 386
f 247 254 366
f 366 256 367
f 248 366 368
f 367 259 369
f 368 367 370
f 249 368 371
f 369 263 372
f 370 369 373
f 371 370 374
f 250 371 375
f 372 268 376
f 373 372 377
f 374 373 378
f 375 374 379
f 251 375 380
f 376 274 381
f 377 376 382
f 378 377 383
f 379 378 384
f 380 379 385
f 252 380 386
f 389 387 388
f 391 388 390
f 392 389 391
f 394 390 393
f 395 391 394
f 396 392 395
f 398 393 397
f 399 394 398
f 400 395 399
f 401 396 400
f 403 397 402
f 404 398 403
f 405 399 404
f 406 400 405
f 407 401 406
f 409 402 408
f 410 403 409
f 411 404 410
f 412 405 411
f 413 406 412
f 414 407 413
f 302 408 281
f 301 409 302
f 300 410 301
f 299 411 300
f 298 412 299
f 297 413 298
f 169 414 297
f 389 388 391
f 391 390 394
f 392 391 395
f 394 393 398
f 395 394 399
f 396 395 400
f 398 397 403
f 399 398 404
f 400 399 405
f 401 400 406
f 403 402 409
f 404 403 410
f 405 404 411
f 406 405 412
f 407 406 413
f 409 408 302
f 410 409 301
f 411 410 300
f 412 411 299
f 413 412 298
f 414 413 297
f 388 387 415
f 417 415 416
f 390 388 417
f 419 416 418
f 420 417 419
f 393 390 420
f 422 418 421
f 423 419 422
f 424 420 423
f 397 393 424
f 426 421 425
f 427 422 426
f 428 423 427
f 429 424 428
f 402 397 429
f 431 425 430
f 432 426 431
f 433 427 432
f 434 428 433
f 435 429 434
f 408 402 435
f 386 430 253
f 385 431 386
f 384 432 385
f 383 433 384
f 382 434 383
f 381 435 382
f 281 408 381
f 388 415 417
f 417 416 419
f 390 417 420
f 419 418 422
f 420 419 423
f 393 420 424
f 422 421 426
f 423 422 427
f 424 423 428
f 397 424 429
f 426 425 431
f 427 426 432
f 428 427 433
f 429 428 434
f 402 429 435
f 431 430 386
f 432 431 385
f 433 432 384
f 434 433 383
f 435 434 382
f 408 435 381
f 415 387 436
f 438 436 437
f 416 415 438
f 440 437 439
f 441 438 440
f 418 416 441
f 443 439 442
f 444 440 443
f 445 441 444
f 421 418 445
f 447 442 446
f 448 443 447
f 449 444 448
f 450 445 449
f 425 421 450
f 452 446 451
f 453 447 452
f 454 448 453
f 455 449 454
f 456 450 455
f 430 425 456
f 365 451 225
f 364 452 365
f 363 453 364
f 362 454 363
f 361 455 362
f 360 456 361
f 253 430 360
f 415 436 438
f 438 437 440
f 416 438 441
f 440 439 443
f 441 440 444
f 418 441 445
f 443 442 447
f 444 443 448
f 445 444 449
f 421 445 450
f 447 446 452
f 448 447 453
f 449 448 454
f 450 449 455
f 425 450 456
f 452 451 365
f 453 452 364
f 454 453 363
f 455 454 362
f 456 455 361
f 430 456 360
f 436 387 457
f 459 457 458
f 437 436 459
f 461 458 460
f 462 459 461
f 439 437 462
f 464 460 463
f 465 461 464
f 466 462 465
f 442 439 466
f 468 463 467
f 469 464 468
f 470 465 469
f 471 466 470
f 446 442 471
f 473 467 472
f 474 468 473
f 475 469 474
f 476 470 475
f 477 471 476
f 451 446 477
f 344 472 197
f 343 473 344
f 342 474 343
f 341 475 342
f 340 476 341
f 339 477 340
f 225 451 339
f 436 457 459
f 459 458 461
f 437 459 462
f 461 460 464
f 462 461 465
f 439 462 466
f 464 463 468
f 465 464 469
f 466 465 470
f 442 466 471
f 468 467 473
f 469 468 474
f 470 469 475
f 471 470 476
f 446 471 477
f 473 472 344
f 474 473 343
f 475 474 342
f 476 475 341
f 477 476 340
f 451 477 339
f 457 387 389
f 478 389 392
f 458 457 478
f 479 392 396
f 480 478 479
f 460 458 480
f 481 396 401
f 482 479 481
f 483 480 482
f 463 460 483
f 484 401 407
f 485 481 484
f 486 482 485
f 487 483 486
f 467 463 487
f 488 407 414
f 489 484 488
f 490 485 489
f 491 486 490
f 492 487 491
f 472 467 492
f 323 414 169
f 322 488 323
f 321 489 322
f 320 490 321
f 319 491 320
f 318 492 319
f 197 472 318
f 457 389 478
f 478 392 479
f 458 478 480
f 479 396 481
f 480 479 482
f 460 480 483
f 481 401 484
f 482 481 485
f 483 482 486
f 463 483 487
f 484 407 488
f 485 484 489
f 486 485 490
f 487 486 491
f 467 487 492
f 488 414 323
f 489 488 322
f 490 489 321
f 491 490 320
f 492 491 319
f 472 492 318
