# File exported by Houdini 20.5.445 (www.sidefx.com)
# 492 points
# 2940 vertices
# 980 primitives
# Bounds: [-165.739532, -88.4617004, -1112.75354] to [336.513428, 204.838806, -642.047485]
g 
v 156.626587 0.753501892 -1097.83923
v 153.284546 21.3492603 -1099.42517
v 187.372681 13.1500587 -1087.71985
v 149.068726 43.9332771 -1094.52283
v 184.677063 37.310585 -1088.84399
v 217.322937 29.7089958 -1076.09656
v 143.479736 67.2255096 -1082.85706
v 180.092041 61.8756485 -1082.70996
v 213.797974 56.3330765 -1077.13098
v 246.031128 48.1556892 -1064.02332
v 136.061157 89.9929504 -1064.86829
v 173.179077 85.5674591 -1069.29749
v 207.549744 81.5107117 -1069.70483
v 240.704773 75.6756516 -1064.85327
v 272.206238 65.7351685 -1051.42151
v 126.781555 111.448357 -1041.49756
v 163.573975 107.669426 -1049.12915
v 198.391907 104.525414 -1053.95959
v 232.053833 100.081985 -1055.47681
v 264.538513 92.5266418 -1051.04199
v 294.03833 79.7611389 -1037.60864
v 116.218994 131.13324 -1013.94397
v 151.418335 127.909767 -1022.87671
v 186.024353 125.272247 -1030.40259
v 220.07782 121.33503 -1036.28271
v 253.15564 114.71666 -1038.58643
v 283.925964 103.989365 -1034.37451
v 310.01886 88.1115112 -1021.5946
v 105.203003 148.445221 -983.450562
v 137.31012 145.983917 -991.243774
v 170.489075 143.590851 -999.256348
v 204.245117 139.573334 -1007.49573
v 237.77533 132.774628 -1014.42529
v 269.615845 122.375038 -1017.25476
v 297.647705 108.143097 -1013.68274
v 319.364624 90.6888123 -1002.26917
v 178.525024 -10.8793182 -1084.56458
v 212.673401 3.24076462 -1070.78687
v 198.891663 -20.2076759 -1065.74072
v 244.245605 20.2269554 -1056.54163
v 234.41333 -5.28455734 -1048.74963
v 215.85968 -29.0662346 -1042.76733
v 273.0271 37.5820808 -1042.68933
v 265.585632 11.0326328 -1032.302
v 251.01593 -14.2944565 -1023.3335
v 227.150513 -38.6866379 -1016.46973
v 297.885864 52.9913101 -1028.97034
v 292.671631 26.4880142 -1016.7467
v 280.182922 0.589542389 -1004.7063
v 260.414673 -24.7598114 -994.920654
v 230.847046 -49.1406326 -987.075439
v 317.108704 64.2673645 -1014.07812
v 314.641296 39.1751747 -1001.00488
v 303.917358 13.7163944 -986.211548
v 286.074219 -11.7626686 -973.160767
v 260.811218 -36.8365555 -963.122559
v 227.029419 -59.9755554 -955.048584
v 329.13385 70.4635239 -995.716187
v 329.781311 47.9491844 -982.532349
v 321.43158 23.7958679 -965.830322
v 305.144592 -1.23106003 -949.633545
v 281.937073 -26.2278862 -936.786377
v 252.345459 -49.8479462 -927.30188
v 217.212341 -69.858345 -920.562378
v 138.306274 -14.7785873 -1099.00537
v 159.212036 -27.951683 -1082.85193
v 117.558716 -25.112793 -1098.17725
v 176.702942 -38.440918 -1061.7771
v 136.334961 -39.6086578 -1078.6991
v 93.305069 -30.5844269 -1095.62939
v 188.997437 -48.5528488 -1036.64099
v 149.662537 -51.3918228 -1054.60095
v 108.57019 -46.5521469 -1072.20081
v 65.7050629 -32.5982819 -1089.64368
v 194.585876 -58.9296799 -1007.53931
v 156.440552 -62.1914978 -1026.20154
v 116.684387 -59.4989929 -1043.54102
v 75.9657745 -49.5318298 -1061.55554
v 35.3258514 -32.0664711 -1077.84387
v 193.202576 -69.4752579 -974.724854
v 156.496033 -72.8264923 -993.366943
v 117.645081 -70.7796478 -1010.6123
v 78.0452423 -63.21492 -1027.74463
v 39.404892 -49.447464 -1045.07556
v 3.29380798 -30.0043869 -1059.04321
v 185.305725 -79.1325302 -937.80249
v 149.77301 -82.5897675 -955.405518
v 111.491577 -80.5323715 -972.434814
v 72.1262665 -74.048584 -988.681152
v 34.0692291 -62.904129 -1005.22791
v -0.19770813 -46.833374 -1021.02319
v -29.3832855 -26.958725 -1032.73413
v 123.47644 5.72000122 -1106.54077
v 101.119446 -6.068573 -1109.06213
v 90.3473358 17.0591526 -1109.49072
v 77.4832306 -11.571846 -1109.68091
v 65.7524261 9.78755951 -1112.75354
v 58.0890961 34.7970924 -1106.15625
v 52.1633148 -13.0941811 -1107.02319
v 41.5741425 7.67202568 -1112.6665
v 33.5244598 31.0136509 -1108.47974
v 28.2264557 57.3962517 -1095.56604
v 25.1849518 -12.2829437 -1098.73608
v 16.9685822 8.04718018 -1107.31543
v 10.6316681 30.3482533 -1105.58118
v 5.54499817 55.1769714 -1095.12085
v 2.03657532 82.0384674 -1077.479
v -3.73774719 -10.021656 -1082.34644
v -9.30870056 10.2121983 -1093.93176
v -12.9510345 31.5266266 -1095.06128
v -15.5915375 54.6999626 -1087.30627
v -18.2137909 79.8484802 -1072.43225
v -20.1534576 105.368118 -1052.5188
v -34.6611938 -7.32707977 -1055.95813
v -38.1714783 13.0801125 -1069.86084
v -39.4692993 34.2949371 -1073.62317
v -39.2591705 56.6877708 -1068.7406
v -39.0327606 80.1043854 -1056.96326
v -39.5211639 103.747978 -1040.56128
v -39.6472473 125.642265 -1021.7417
v 118.350769 28.5912895 -1103.7876
v 84.9156952 42.0229874 -1101.05029
v 112.93573 52.4126244 -1093.62781
v 53.0630646 61.3507767 -1091.65137
v 79.2758026 66.9831238 -1085.7561
v 106.650452 76.2017822 -1076.89246
v 23.5747833 85.0361023 -1075.52844
v 47.5884247 87.1633453 -1071.45508
v 72.8967133 91.360611 -1064.4624
v 99.1131439 99.3203201 -1054.43494
v -2.72770691 109.951172 -1052.43188
v 18.164505 111.133148 -1050.30127
v 41.2733307 111.937538 -1045.45764
v 65.462326 114.918121 -1037.5863
v 90.332016 121.397491 -1026.93457
v -25.8065491 132.384888 -1022.14539
v -8.53742981 135.320343 -1021.19775
v 11.7332306 135.604553 -1018.29297
v 33.868454 135.664276 -1012.84985
v 57.0157013 137.555054 -1004.87231
v 80.8250885 142.056763 -994.820435
v 79.1643829 160.309647 -958.835327
v 52.9183502 157.091019 -969.119995
v 53.8077545 171.83728 -933.186279
v 28.8697662 155.773651 -977.256226
v 27.5503693 170.706863 -942.231934
v 28.4809723 182.797394 -905.903564
v 6.50154114 155.940903 -983.014038
v 4.18367004 170.918915 -948.564697
v 2.99992371 182.718628 -913.556641
v 3.10108948 192.061981 -876.579224
v -14.3107147 156.057846 -986.480103
v -17.5450592 171.605621 -952.454956
v -19.8775635 183.447617 -918.205688
v -21.6862488 192.165512 -882.69812
v -21.8382111 198.275818 -845.384644
v -33.2863464 154.078156 -988.089233
v -38.1929169 170.943878 -954.257446
v -41.7820892 183.523911 -920.302856
v -44.7155457 192.201248 -885.526489
v -46.6513824 197.706375 -849.641846
v -46.1182709 200.977921 -813.198486
v -49.8135986 147.939499 -988.418457
v -57.5464325 166.263977 -954.450439
v -63.3307953 180.243073 -920.153564
v -67.8325806 189.841888 -885.340332
v -71.0404968 195.67746 -849.97937
v -72.1001129 198.827454 -814.809204
v -69.4616394 200.349258 -781.449219
v -58.5936432 130.330902 -998.744995
v -59.5178223 106.430573 -1016.9248
v -77.6714325 131.621277 -972.550781
v -61.3361816 82.0284729 -1031.51672
v -80.1055145 106.226768 -989.55835
v -98.0805206 130.056946 -943.275024
v -64.1891327 58.0959015 -1040.65356
v -83.9641876 81.0257721 -1001.76245
v -102.153763 103.662888 -958.415527
v -119.522888 125.887703 -910.948486
v -66.5238342 34.8564949 -1042.37109
v -88.5712738 56.3156815 -1007.45288
v -107.426041 77.7813568 -967.29248
v -124.756012 99.0143967 -923.127563
v -139.889328 119.243561 -875.928467
v -66.5815582 12.0920219 -1034.37097
v -92.1983337 31.7992897 -1004.19629
v -112.98082 51.9805946 -967.702393
v -130.478256 72.3321686 -926.915039
v -145.11557 92.0175323 -883.567749
v -155.84462 110.183815 -839.342285
v -63.502182 -10.712471 -1015.20459
v -92.7570953 6.87466812 -989.429443
v -116.908752 25.4271812 -956.661743
v -135.718948 44.6951218 -919.171143
v -149.739899 63.9218674 -879.536499
v -159.265488 82.1447449 -840.051758
v -164.658508 99.0764999 -802.446045
v -45.8549652 -35.7612152 -994.53772
v -14.3429871 -55.9084473 -979.78064
v -60.6889038 -42.071312 -952.422241
v 22.7920685 -70.4199982 -963.52124
v -24.9684448 -60.4774399 -937.909424
v -70.3008118 -44.7941895 -908.848511
v 63.1824799 -80.4012222 -947.403198
v 15.7263031 -73.1714478 -922.381836
v -29.9606476 -60.8290634 -895.60083
v -72.7084045 -44.1796341 -864.692749
v 104.253357 -86.8350754 -930.5271
v 58.3333893 -82.6038284 -905.521729
v 13.4892426 -72.3304672 -879.50647
v -29.1961212 -58.1194382 -851.353394
v -68.1969757 -41.0434723 -819.712402
v 144.804871 -88.3452454 -912.804932
v 101.816223 -88.4617004 -887.291138
v 58.5855865 -80.8248672 -860.907715
v 16.7009125 -68.0530701 -833.584961
v -22.4493561 -52.5168304 -805.08728
v -56.8301849 -35.4195938 -775.269043
v 183.759216 -82.7388535 -894.603149
v 145.929871 -87.9621582 -867.825073
v 105.686401 -84.8285141 -840.270142
v 65.2624969 -74.5315399 -812.25354
v 26.507431 -59.9960098 -784.715698
v -8.95695496 -43.8544159 -758.464844
v -39.5114746 -27.2927742 -733.848999
v 227.264954 -66.4476242 -888.325195
v 264.57782 -43.6534042 -897.10498
v 235.86438 -59.4465332 -857.107178
v 294.581787 -18.4626083 -909.947144
v 274.180908 -35.0470505 -870.186279
v 243.792358 -47.7630615 -828.734253
v 317.226379 7.06224442 -926.702148
v 303.568604 -9.44783783 -887.471436
v 281.745728 -22.7403679 -847.139648
v 249.938171 -31.4042282 -804.653442
v 331.688354 32.0245476 -946.072144
v 324.375793 16.0167084 -907.957275
v 309.080139 2.61899185 -868.762573
v 285.682556 -6.40460968 -828.128662
v 252.081726 -10.9022141 -785.874878
v 336.513428 55.8309212 -964.233765
v 335.162964 40.9425049 -929.285156
v 325.912415 27.9910622 -891.990601
v 308.943604 18.8418083 -853.013062
v 283.386292 14.0938005 -812.961548
v 248.136658 13.077137 -772.697266
v 330.163574 78.3638306 -976.969116
v 333.67804 65.3508148 -947.200684
v 329.981995 53.7984047 -913.623413
v 318.857422 45.0991173 -877.308838
v 299.925293 40.3337135 -839.223999
v 272.631165 39.0523186 -801.023682
v 237.581177 39.7604408 -764.344116
v 310.296326 101.273338 -987.671387
v 283.48407 119.697044 -993.308105
v 293.834534 110.557076 -967.481323
v 251.997925 134.574005 -990.65686
v 263.008972 129.140015 -967.47168
v 271.615479 120.428062 -942.559937
v 218.237854 145.766373 -982.954224
v 229.619263 144.123337 -960.24353
v 238.27124 139.03949 -937.77832
v 245.549438 132.566055 -913.992188
v 183.625977 153.414383 -973.223267
v 194.960083 155.795593 -949.602051
v 203.734802 154.214935 -927.315674
v 210.744141 151.012711 -905.515991
v 217.138733 147.624115 -883.092285
v 148.719849 158.014023 -964.0271
v 159.151855 164.103638 -938.462036
v 167.717834 166.246399 -914.794189
v 174.608643 166.301788 -892.703857
v 181.003601 165.582397 -871.957031
v 186.90802 164.742081 -851.364624
v 113.493164 160.852692 -956.363037
v 121.514404 169.532501 -929.245728
v 128.537476 175.182068 -903.222778
v 134.750793 178.569901 -879.207642
v 141.18042 180.495682 -857.765991
v 147.932312 181.401535 -838.453857
v 154.36261 181.230408 -820.270508
v 85.3801117 171.909256 -927.734619
v 57.7216644 182.587875 -899.496094
v 90.4107513 180.426102 -897.991455
v 30.287735 192.006912 -870.242432
v 60.4634552 190.458298 -867.895264
v 94.8928375 186.423874 -870.177979
v 3.55995178 198.77684 -839.054077
v 31.8744659 198.225021 -836.800659
v 63.9988556 195.877197 -838.62439
v 100.492844 190.552582 -845.166992
v -22.4672699 202.230469 -805.835571
v 4.53666687 202.770126 -803.2771
v 35.2769928 202.316422 -805.422485
v 69.8473053 199.533859 -811.991821
v 107.812683 193.164413 -822.8302
v -48.1434784 202.324127 -771.431396
v -22.3728638 203.73848 -766.963745
v 7.679245 204.838806 -768.523071
v 41.4623871 204.613907 -775.657715
v 78.0589142 201.457413 -787.146606
v 116.303162 194.08905 -802.163818
v -71.2227173 153.025574 -959.874634
v -91.9084015 153.329025 -929.698242
v -80.8062897 170.158829 -922.24646
v -112.907364 149.928619 -897.523071
v -102.674408 168.594666 -889.142822
v -88.1088104 182.136383 -885.134155
v -133.579895 143.449341 -863.106934
v -123.843277 163.166519 -854.329224
v -110.799957 178.810379 -849.254517
v -93.4430542 189.752258 -847.737305
v -151.560638 134.13739 -826.732788
v -143.360443 154.71254 -817.383057
v -131.520859 171.873062 -811.378906
v -115.886505 185.155899 -808.779419
v -96.0730133 194.0625 -809.776733
v -163.357483 122.106155 -789.441772
v -158.019196 143.192398 -778.634766
v -148.292206 161.728333 -771.138794
v -134.272125 177.145264 -767.237671
v -116.070999 188.665237 -767.472412
v -94.1725922 196.167709 -772.223389
v -83.3746185 -18.5890732 -970.368896
v -98.8257294 -23.8593369 -922.862427
v -113.234451 -0.531141281 -939.330444
v -106.45726 -26.0897064 -875.28064
v -126.507797 -5.40029526 -888.1427
v -135.661102 18.1308022 -903.412598
v -105.1129 -25.613327 -827.982422
v -130.009125 -7.58505249 -837.963135
v -144.619568 13.3804502 -850.342651
v -150.817032 37.3337517 -864.902588
v -94.9538879 -22.4635544 -780.879761
v -123.368881 -7.14455032 -788.220825
v -142.885162 11.3610935 -798.207153
v -154.675079 32.8627357 -811.163818
v -159.88501 56.7702446 -825.848633
v -76.4623566 -16.0114899 -735.385498
v -106.99791 -2.9204216 -739.401978
v -130.697968 13.1073332 -746.661011
v -147.773315 32.2941475 -757.695923
v -158.827301 53.8038101 -771.99939
v -164.382996 76.49897 -787.588745
v 191.684692 -78.280365 -856.019531
v 199.220703 -68.2465897 -820.421509
v 153.517334 -80.7960205 -824.778564
v 206.236206 -52.5889435 -789.315552
v 160.944031 -67.3010483 -786.59436
v 114.035095 -74.7702255 -794.448364
v 210.922913 -31.8751984 -764.015381
v 167.010254 -48.1142349 -754.169312
v 121.374512 -58.3867874 -754.906494
v 74.4807892 -62.0333939 -765.000366
v 210.946777 -6.48843765 -745.765015
v 169.665588 -23.4886894 -728.785278
v 125.943848 -36.096344 -722.07666
v 81.0564423 -43.2508545 -724.993652
v 35.7918243 -45.4508438 -737.244873
v 204.445312 23.3514004 -735.042969
v 166.494873 7.07008553 -711.945312
v 125.479065 -7.09857941 -697.408081
v 83.0052948 -17.5394173 -692.491272
v 40.4453888 -24.067646 -697.555542
v -0.911209106 -27.0956421 -712.092529
v 319.033325 88.9169769 -960.754517
v 300.294495 99.6644669 -940.005615
v 320.355408 78.0707855 -930.362915
v 276.013123 112.627449 -915.178223
v 299.433044 92.2827148 -909.537109
v 314.484924 70.3129883 -896.650879
v 247.754822 128.899445 -886.678589
v 272.880737 109.564751 -884.612915
v 291.122803 88.9498749 -875.653931
v 300.77063 66.0506439 -860.037231
v 216.107117 148.424576 -855.215576
v 241.382996 130.395325 -855.3302
v 261.18042 110.88887 -849.922852
v 273.766541 89.1438599 -838.255005
v 277.99292 65.1713562 -821.002319
v 180.414795 169.159912 -821.500366
v 204.123962 153.794632 -821.632935
v 223.887085 135.743729 -818.306396
v 237.74762 114.965446 -810.309937
v 244.763916 91.5409851 -797.160645
v 244.644714 66.2836609 -780.776001
v -26.4842529 141.247452 -649.941406
v 2.99028015 158.783386 -660.623291
v -43.2626343 157.688492 -651.995422
v 34.0083466 173.030655 -677.691833
v -13.2515106 174.39386 -663.266296
v -58.1661072 170.552597 -657.563538
v 64.0787201 183.880005 -700.912598
v 16.6448822 186.819031 -681.849243
v -27.6764221 185.056839 -670.543884
v -70.1982117 180.454803 -668.582275
v 91.2558441 190.514282 -728.840088
v 44.5026398 195.722656 -706.903687
v 1.28071594 195.293518 -691.600647
v -39.5693512 192.329422 -684.148315
v -78.2512665 188.279266 -686.466553
v 115.098816 192.178268 -759.170288
v 69.8411713 200.197952 -736.649292
v 27.8710175 201.984665 -719.334229
v -11.294632 200.252167 -708.345459
v -47.9283905 197.484451 -705.278931
v -81.1739655 194.42778 -711.871216
v 135.984314 188.705612 -789.968384
v 93.4571686 199.678665 -768.85022
v 52.9375153 204.276474 -751.73645
v 15.1011505 204.642746 -739.355469
v -19.8355865 202.947433 -733.077637
v -51.2116852 200.929642 -734.469727
v -78.0509186 198.47641 -744.237549
v 9.64604187 133.817215 -656.097534
v 47.6501923 124.351402 -666.912537
v 44.9988556 152.039337 -673.874817
v 86.426651 111.870201 -681.659302
v 86.5107269 142.25412 -691.610657
v 79.5696869 165.675186 -697.156494
v 125.705383 96.0838318 -699.158081
v 127.080811 128.10762 -712.006104
v 122.663269 153.913971 -720.12207
v 110.965576 174.524963 -725.123779
v 165.075073 77.8834839 -718.512207
v 167.302979 109.948372 -733.439453
v 164.000244 137.119232 -744.633179
v 154.498779 159.692657 -751.723877
v 138.203796 178.174545 -755.897949
v 203.059937 58.5458679 -740.030273
v 206.992432 88.8429718 -755.977783
v 204.751587 115.943352 -770.02478
v 196.395386 139.58075 -779.929321
v 181.612061 159.587692 -785.615723
v 161.130249 176.132385 -788.289307
v -31.9286041 116.287941 -645.087646
v -35.4815979 88.6151123 -642.047485
v 6.0191803 105.144577 -648.871033
v -38.1093903 60.4175797 -643.390442
v 3.70115662 75.0581207 -644.368591
v 44.5549164 92.518158 -657.527649
v -40.3725281 33.9831505 -652.182678
v 1.76844788 45.685463 -645.927979
v 42.7384186 60.5961418 -652.508728
v 83.6009369 77.7587357 -670.686707
v -42.1236267 10.4474583 -670.43927
v -0.131240845 18.5820312 -656.686035
v 41.388504 30.2052956 -655.53064
v 82.4338837 44.5635185 -666.347778
v 123.606384 60.7591133 -687.849548
v -42.3795776 -9.85589218 -698.234375
v -1.46202087 -5.60707092 -678.624451
v 40.3341827 2.00677872 -669.771912
v 82.1506195 12.8169098 -672.444641
v 123.614685 26.4267197 -685.925842
v 164.317749 42.2032623 -708.973022
v -63.4791565 132.920563 -647.318359
v -96.0522003 124.086395 -653.39032
v -69.6999207 105.217133 -645.743225
v -123.412933 115.892784 -668.123779
v -101.3927 95.1035004 -656.138428
v -73.4739532 76.6740112 -647.508484
v -144.66861 109.336609 -691.223206
v -127.345627 86.9729767 -675.691406
v -104.537781 67.0034943 -663.480957
v -76.3031464 49.4107666 -655.343384
v -158.960846 104.761581 -722.083008
v -147.181 81.3627167 -704.2323
v -129.524033 60.0943451 -689.217468
v -106.915878 41.1598282 -678.232422
v -78.3976288 24.8413773 -671.852173
v -165.739532 101.730423 -759.593018
v -159.928253 78.1601181 -741.641479
v -148.091263 55.8822975 -725.088623
v -130.991028 35.5991402 -711.815063
v -108.297531 17.9907265 -702.934937
v -79.1299133 3.14702034 -698.521606
v -82.0317688 150.023895 -652.734009
v -96.3228149 163.535675 -662.489014
v -113.63916 142.359436 -663.361145
v -105.585266 174.717224 -678.368774
v -125.129044 157.211075 -677.982239
v -137.98642 135.676392 -682.850769
v -108.856949 184.220627 -701.580322
v -130.101166 170.072342 -699.143066
v -145.251358 152.102875 -702.513794
v -154.774597 130.435425 -710.533936
v -105.037384 191.49939 -733.085205
v -127.278992 180.779037 -728.604248
v -144.441345 166.055298 -729.898315
v -156.476822 147.794205 -735.872803
v -163.498688 126.302704 -746.06897
g 
f 3 1 2
f 5 2 4
f 6 3 5
f 8 4 7
f 9 5 8
f 10 6 9
f 12 7 11
f 13 8 12
f 14 9 13
f 15 10 14
f 17 11 16
f 18 12 17
f 19 13 18
f 20 14 19
f 21 15 20
f 23 16 22
f 24 17 23
f 25 18 24
f 26 19 25
f 27 20 26
f 28 21 27
f 30 22 29
f 31 23 30
f 32 24 31
f 33 25 32
f 34 26 33
f 35 27 34
f 36 28 35
f 3 2 5
f 5 4 8
f 6 5 9
f 8 7 12
f 9 8 13
f 10 9 14
f 12 11 17
f 13 12 18
f 14 13 19
f 15 14 20
f 17 16 23
f 18 17 24
f 19 18 25
f 20 19 26
f 21 20 27
f 23 22 30
f 24 23 31
f 25 24 32
f 26 25 33
f 27 26 34
f 28 27 35
f 37 1 3
f 38 3 6
f 39 37 38
f 40 6 10
f 41 38 40
f 42 39 41
f 43 10 15
f 44 40 43
f 45 41 44
f 46 42 45
f 47 15 21
f 48 43 47
f 49 44 48
f 50 45 49
f 51 46 50
f 52 21 28
f 53 47 52
f 54 48 53
f 55 49 54
f 56 50 55
f 57 51 56
f 58 28 36
f 59 52 58
f 60 53 59
f 61 54 60
f 62 55 61
f 63 56 62
f 64 57 63
f 37 3 38
f 38 6 40
f 39 38 41
f 40 10 43
f 41 40 44
f 42 41 45
f 43 15 47
f 44 43 48
f 45 44 49
f 46 45 50
f 47 21 52
f 48 47 53
f 49 48 54
f 50 49 55
f 51 50 56
f 52 28 58
f 53 52 59
f 54 53 60
f 55 54 61
f 56 55 62
f 57 56 63
f 65 1 37
f 66 37 39
f 67 65 66
f 68 39 42
f 69 66 68
f 70 67 69
f 71 42 46
f 72 68 71
f 73 69 72
f 74 70 73
f 75 46 51
f 76 71 75
f 77 72 76
f 78 73 77
f 79 74 78
f 80 51 57
f 81 75 80
f 82 76 81
f 83 77 82
f 84 78 83
f 85 79 84
f 86 57 64
f 87 80 86
f 88 81 87
f 89 82 88
f 90 83 89
f 91 84 90
f 92 85 91
f 65 37 66
f 66 39 68
f 67 66 69
f 68 42 71
f 69 68 72
f 70 69 73
f 71 46 75
f 72 71 76
f 73 72 77
f 74 73 78
f 75 51 80
f 76 75 81
f 77 76 82
f 78 77 83
f 79 78 84
f 80 57 86
f 81 80 87
f 82 81 88
f 83 82 89
f 84 83 90
f 85 84 91
f 93 1 65
f 94 65 67
f 95 93 94
f 96 67 70
f 97 94 96
f 98 95 97
f 99 70 74
f 100 96 99
f 101 97 100
f 102 98 101
f 103 74 79
f 104 99 103
f 105 100 104
f 106 101 105
f 107 102 106
f 108 79 85
f 109 103 108
f 110 104 109
f 111 105 110
f 112 106 111
f 113 107 112
f 114 85 92
f 115 108 114
f 116 109 115
f 117 110 116
f 118 111 117
f 119 112 118
f 120 113 119
f 93 65 94
f 94 67 96
f 95 94 97
f 96 70 99
f 97 96 100
f 98 97 101
f 99 74 103
f 100 99 104
f 101 100 105
f 102 101 106
f 103 79 108
f 104 103 109
f 105 104 110
f 106 105 111
f 107 106 112
f 108 85 114
f 109 108 115
f 110 109 116
f 111 110 117
f 112 111 118
f 113 112 119
f 2 1 93
f 121 93 95
f 4 2 121
f 122 95 98
f 123 121 122
f 7 4 123
f 124 98 102
f 125 122 124
f 126 123 125
f 11 7 126
f 127 102 107
f 128 124 127
f 129 125 128
f 130 126 129
f 16 11 130
f 131 107 113
f 132 127 131
f 133 128 132
f 134 129 133
f 135 130 134
f 22 16 135
f 136 113 120
f 137 131 136
f 138 132 137
f 139 133 138
f 140 134 139
f 141 135 140
f 29 22 141
f 2 93 121
f 121 95 122
f 4 121 123
f 122 98 124
f 123 122 125
f 7 123 126
f 124 102 127
f 125 124 128
f 126 125 129
f 11 126 130
f 127 107 131
f 128 127 132
f 129 128 133
f 130 129 134
f 16 130 135
f 131 113 136
f 132 131 137
f 133 132 138
f 134 133 139
f 135 134 140
f 22 135 141
f 142 29 141
f 143 141 140
f 144 142 143
f 145 140 139
f 146 143 145
f 147 144 146
f 148 139 138
f 149 145 148
f 150 146 149
f 151 147 150
f 152 138 137
f 153 148 152
f 154 149 153
f 155 150 154
f 156 151 155
f 157 137 136
f 158 152 157
f 159 153 158
f 160 154 159
f 161 155 160
f 162 156 161
f 163 136 120
f 164 157 163
f 165 158 164
f 166 159 165
f 167 160 166
f 168 161 167
f 169 162 168
f 142 141 143
f 143 140 145
f 144 143 146
f 145 139 148
f 146 145 149
f 147 146 150
f 148 138 152
f 149 148 153
f 150 149 154
f 151 150 155
f 152 137 157
f 153 152 158
f 154 153 159
f 155 154 160
f 156 155 161
f 157 136 163
f 158 157 164
f 159 158 165
f 160 159 166
f 161 160 167
f 162 161 168
f 170 120 119
f 171 119 118
f 172 170 171
f 173 118 117
f 174 171 173
f 175 172 174
f 176 117 116
f 177 173 176
f 178 174 177
f 179 175 178
f 180 116 115
f 181 176 180
f 182 177 181
f 183 178 182
f 184 179 183
f 185 115 114
f 186 180 185
f 187 181 186
f 188 182 187
f 189 183 188
f 190 184 189
f 191 114 92
f 192 185 191
f 193 186 192
f 194 187 193
f 195 188 194
f 196 189 195
f 197 190 196
f 170 119 171
f 171 118 173
f 172 171 174
f 173 117 176
f 174 173 177
f 175 174 178
f 176 116 180
f 177 176 181
f 178 177 182
f 179 178 183
f 180 115 185
f 181 180 186
f 182 181 187
f 183 182 188
f 184 183 189
f 185 114 191
f 186 185 192
f 187 186 193
f 188 187 194
f 189 188 195
f 190 189 196
f 198 92 91
f 199 91 90
f 200 198 199
f 201 90 89
f 202 199 201
f 203 200 202
f 204 89 88
f 205 201 204
f 206 202 205
f 207 203 206
f 208 88 87
f 209 204 208
f 210 205 209
f 211 206 210
f 212 207 211
f 213 87 86
f 214 208 213
f 215 209 214
f 216 210 215
f 217 211 216
f 218 212 217
f 219 86 64
f 220 213 219
f 221 214 220
f 222 215 221
f 223 216 222
f 224 217 223
f 225 218 224
f 198 91 199
f 199 90 201
f 200 199 202
f 201 89 204
f 202 201 205
f 203 202 206
f 204 88 208
f 205 204 209
f 206 205 210
f 207 206 211
f 208 87 213
f 209 208 214
f 210 209 215
f 211 210 216
f 212 211 217
f 213 86 219
f 214 213 220
f 215 214 221
f 216 215 222
f 217 216 223
f 218 217 224
f 226 64 63
f 227 63 62
f 228 226 227
f 229 62 61
f 230 227 229
f 231 228 230
f 232 61 60
f 233 229 232
f 234 230 233
f 235 231 234
f 236 60 59
f 237 232 236
f 238 233 237
f 239 234 238
f 240 235 239
f 241 59 58
f 242 236 241
f 243 237 242
f 244 238 243
f 245 239 244
f 246 240 245
f 247 58 36
f 248 241 247
f 249 242 248
f 250 243 249
f 251 244 250
f 252 245 251
f 253 246 252
f 226 63 227
f 227 62 229
f 228 227 230
f 229 61 232
f 230 229 233
f 231 230 234
f 232 60 236
f 233 232 237
f 234 233 238
f 235 234 239
f 236 59 241
f 237 236 242
f 238 237 243
f 239 238 244
f 240 239 245
f 241 58 247
f 242 241 248
f 243 242 249
f 244 243 250
f 245 244 251
f 246 245 252
f 254 36 35
f 255 35 34
f 256 254 255
f 257 34 33
f 258 255 257
f 259 256 258
f 260 33 32
f 261 257 260
f 262 258 261
f 263 259 262
f 264 32 31
f 265 260 264
f 266 261 265
f 267 262 266
f 268 263 267
f 269 31 30
f 270 264 269
f 271 265 270
f 272 266 271
f 273 267 272
f 274 268 273
f 275 30 29
f 276 269 275
f 277 270 276
f 278 271 277
f 279 272 278
f 280 273 279
f 281 274 280
f 254 35 255
f 255 34 257
f 256 255 258
f 257 33 260
f 258 257 261
f 259 258 262
f 260 32 264
f 261 260 265
f 262 261 266
f 263 262 267
f 264 31 269
f 265 264 270
f 266 265 271
f 267 266 272
f 268 267 273
f 269 30 275
f 270 269 276
f 271 270 277
f 272 271 278
f 273 272 279
f 274 273 280
f 275 29 142
f 282 142 144
f 276 275 282
f 283 144 147
f 284 282 283
f 277 276 284
f 285 147 151
f 286 283 285
f 287 284 286
f 278 277 287
f 288 151 156
f 289 285 288
f 290 286 289
f 291 287 290
f 279 278 291
f 292 156 162
f 293 288 292
f 294 289 293
f 295 290 294
f 296 291 295
f 280 279 296
f 297 162 169
f 298 292 297
f 299 293 298
f 300 294 299
f 301 295 300
f 302 296 301
f 281 280 302
f 275 142 282
f 282 144 283
f 276 282 284
f 283 147 285
f 284 283 286
f 277 284 287
f 285 151 288
f 286 285 289
f 287 286 290
f 278 287 291
f 288 156 292
f 289 288 293
f 290 289 294
f 291 290 295
f 279 291 296
f 292 162 297
f 293 292 298
f 294 293 299
f 295 294 300
f 296 295 301
f 280 296 302
f 163 120 170
f 303 170 172
f 164 163 303
f 304 172 175
f 305 303 304
f 165 164 305
f 306 175 179
f 307 304 306
f 308 305 307
f 166 165 308
f 309 179 184
f 310 306 309
f 311 307 310
f 312 308 311
f 167 166 312
f 313 184 190
f 314 309 313
f 315 310 314
f 316 311 315
f 317 312 316
f 168 167 317
f 318 190 197
f 319 313 318
f 320 314 319
f 321 315 320
f 322 316 321
f 323 317 322
f 169 168 323
f 163 170 303
f 303 172 304
f 164 303 305
f 304 175 306
f 305 304 307
f 165 305 308
f 306 179 309
f 307 306 310
f 308 307 311
f 166 308 312
f 309 184 313
f 310 309 314
f 311 310 315
f 312 311 316
f 167 312 317
f 313 190 318
f 314 313 319
f 315 314 320
f 316 315 321
f 317 316 322
f 168 317 323
f 191 92 198
f 324 198 200
f 192 191 324
f 325 200 203
f 326 324 325
f 193 192 326
f 327 203 207
f 328 325 327
f 329 326 328
f 194 193 329
f 330 207 212
f 331 327 330
f 332 328 331
f 333 329 332
f 195 194 333
f 334 212 218
f 335 330 334
f 336 331 335
f 337 332 336
f 338 333 337
f 196 195 338
f 339 218 225
f 340 334 339
f 341 335 340
f 342 336 341
f 343 337 342
f 344 338 343
f 197 196 344
f 191 198 324
f 324 200 325
f 192 324 326
f 325 203 327
f 326 325 328
f 193 326 329
f 327 207 330
f 328 327 331
f 329 328 332
f 194 329 333
f 330 212 334
f 331 330 335
f 332 331 336
f 333 332 337
f 195 333 338
f 334 218 339
f 335 334 340
f 336 335 341
f 337 336 342
f 338 337 343
f 196 338 344
f 219 64 226
f 345 226 228
f 220 219 345
f 346 228 231
f 347 345 346
f 221 220 347
f 348 231 235
f 349 346 348
f 350 347 349
f 222 221 350
f 351 235 240
f 352 348 351
f 353 349 352
f 354 350 353
f 223 222 354
f 355 240 246
f 356 351 355
f 357 352 356
f 358 353 357
f 359 354 358
f 224 223 359
f 360 246 253
f 361 355 360
f 362 356 361
f 363 357 362
f 364 358 363
f 365 359 364
f 225 224 365
f 219 226 345
f 345 228 346
f 220 345 347
f 346 231 348
f 347 346 349
f 221 347 350
f 348 235 351
f 349 348 352
f 350 349 353
f 222 350 354
f 351 240 355
f 352 351 356
f 353 352 357
f 354 353 358
f 223 354 359
f 355 246 360
f 356 355 361
f 357 356 362
f 358 357 363
f 359 358 364
f 224 359 365
f 247 36 254
f 366 254 256
f 248 247 366
f 367 256 259
f 368 366 367
f 249 248 368
f 369 259 263
f 370 367 369
f 371 368 370
f 250 249 371
f 372 263 268
f 373 369 372
f 374 370 373
f 375 371 374
f 251 250 375
f 376 268 274
f 377 372 376
f 378 373 377
f 379 374 378
f 380 375 379
f 252 251 380
f 381 274 281
f 382 376 381
f 383 377 382
f 384 378 383
f 385 379 384
f 386 380 385
f 253 252 386
f 247 254 366
f 366 256 367
f 248 366 368
f 367 259 369
f 368 367 370
f 249 368 371
f 369 263 372
f 370 369 373
f 371 370 374
f 250 371 375
f 372 268 376
f 373 372 377
f 374 373 378
f 375 374 379
f 251 375 380
f 376 274 381
f 377 376 382
f 378 377 383
f 379 378 384
f 380 379 385
f 252 380 386
f 389 387 388
f 391 388 390
f 392 389 391
f 394 390 393
f 395 391 394
f 396 392 395
f 398 393 397
f 399 394 398
f 400 395 399
f 401 396 400
f 403 397 402
f 404 398 403
f 405 399 404
f 406 400 405
f 407 401 406
f 409 402 408
f 410 403 409
f 411 404 410
f 412 405 411
f 413 406 412
f 414 407 413
f 302 408 281
f 301 409 302
f 300 410 301
f 299 411 300
f 298 412 299
f 297 413 298
f 169 414 297
f 389 388 391
f 391 390 394
f 392 391 395
f 394 393 398
f 395 394 399
f 396 395 400
f 398 397 403
f 399 398 404
f 400 399 405
f 401 400 406
f 403 402 409
f 404 403 410
f 405 404 411
f 406 405 412
f 407 406 413
f 409 408 302
f 410 409 301
f 411 410 300
f 412 411 299
f 413 412 298
f 414 413 297
f 388 387 415
f 417 415 416
f 390 388 417
f 419 416 418
f 420 417 419
f 393 390 420
f 422 418 421
f 423 419 422
f 424 420 423
f 397 393 424
f 426 421 425
f 427 422 426
f 428 423 427
f 429 424 428
f 402 397 429
f 431 425 430
f 432 426 431
f 433 427 432
f 434 428 433
f 435 429 434
f 408 402 435
f 386 430 253
f 385 431 386
f 384 432 385
f 383 433 384
f 382 434 383
f 381 435 382
f 281 408 381
f 388 415 417
f 417 416 419
f 390 417 420
f 419 418 422
f 420 419 423
f 393 420 424
f 422 421 426
f 423 422 427
f 424 423 428
f 397 424 429
f 426 425 431
f 427 426 432
f 428 427 433
f 429 428 434
f 402 429 435
f 431 430 386
f 432 431 385
f 433 432 384
f 434 433 383
f 435 434 382
f 408 435 381
f 415 387 436
f 438 436 437
f 416 415 438
f 440 437 439
f 441 438 440
f 418 416 441
f 443 439 442
f 444 440 443
f 445 441 444
f 421 418 445
f 447 442 446
f 448 443 447
f 449 444 448
f 450 445 449
f 425 421 450
f 452 446 451
f 453 447 452
f 454 448 453
f 455 449 454
f 456 450 455
f 430 425 456
f 365 451 225
f 364 452 365
f 363 453 364
f 362 454 363
f 361 455 362
f 360 456 361
f 253 430 360
f 415 436 438
f 438 437 440
f 416 438 441
f 440 439 443
f 441 440 444
f 418 441 445
f 443 442 447
f 444 443 448
f 445 444 449
f 421 445 450
f 447 446 452
f 448 447 453
f 449 448 454
f 450 449 455
f 425 450 456
f 452 451 365
f 453 452 364
f 454 453 363
f 455 454 362
f 456 455 361
f 430 456 360
f 436 387 457
f 459 457 458
f 437 436 459
f 461 458 460
f 462 459 461
f 439 437 462
f 464 460 463
f 465 461 464
f 466 462 465
f 442 439 466
f 468 463 467
f 469 464 468
f 470 465 469
f 471 466 470
f 446 442 471
f 473 467 472
f 474 468 473
f 475 469 474
f 476 470 475
f 477 471 476
f 451 446 477
f 344 472 197
f 343 473 344
f 342 474 343
f 341 475 342
f 340 476 341
f 339 477 340
f 225 451 339
f 436 457 459
f 459 458 461
f 437 459 462
f 461 460 464
f 462 461 465
f 439 462 466
f 464 463 468
f 465 464 469
f 466 465 470
f 442 466 471
f 468 467 473
f 469 468 474
f 470 469 475
f 471 470 476
f 446 471 477
f 473 472 344
f 474 473 343
f 475 474 342
f 476 475 341
f 477 476 340
f 451 477 339
f 457 387 389
f 478 389 392
f 458 457 478
f 479 392 396
f 480 478 479
f 460 458 480
f 481 396 401
f 482 479 481
f 483 480 482
f 463 460 483
f 484 401 407
f 485 481 484
f 486 482 485
f 487 483 486
f 467 463 487
f 488 407 414
f 489 484 488
f 490 485 489
f 491 486 490
f 492 487 491
f 472 467 492
f 323 414 169
f 322 488 323
f 321 489 322
f 320 490 321
f 319 491 320
f 318 492 319
f 197 472 318
f 457 389 478
f 478 392 479
f 458 478 480
f 479 396 481
f 480 479 482
f 460 480 483
f 481 401 484
f 482 481 485
f 483 482 486
f 463 483 487
f 484 407 488
f 485 484 489
f 486 485 490
f 487 486 491
f 467 487 492
f 488 414 323
f 489 488 322
f 490 489 321
f 491 490 320
f 492 491 319
f 472 492 318
