# File exported by Houdini 20.5.445 (www.sidefx.com)
# 492 points
# 2940 vertices
# 980 primitives
# Bounds: [-115.501465, -147.861481, -1083.9425] to [286.27536, 264.238586, -670.858521]
g 
v 134.035004 40.8482475 -1061.74805
v 137.979095 74.8835602 -1059.8186
v 151.2742 47.4755859 -1041.96082
v 144.468353 109.524948 -1050.67932
v 157.257538 83.5243454 -1035.02893
v 168.176971 55.3868103 -1017.27307
v 153.455841 144.020752 -1036.41443
v 165.761932 117.705055 -1021.5675
v 175.612518 91.4917374 -1005.77344
v 185.369232 62.8476181 -989.151978
v 162.979645 177.28479 -1018.94287
v 175.082184 150.527344 -1004.22131
v 184.468048 124.341003 -988.959351
v 193.069183 97.8641968 -973.841248
v 202.702789 68.5405502 -958.968994
v 170.701569 207.347809 -998.829102
v 182.90976 181.590485 -984.445557
v 192.47171 155.280792 -969.273926
v 200.880585 129.030762 -954.391052
v 209.501251 101.793434 -940.50116
v 219.657501 71.7195282 -927.647278
v 175.088715 231.585541 -975.729187
v 187.548065 209.166138 -962.03009
v 197.656464 184.059662 -947.167542
v 206.659698 157.908875 -932.285645
v 215.474518 130.937256 -918.4505
v 224.893097 102.595749 -906.315857
v 235.585236 72.567749 -895.468506
v 175.228302 247.63559 -949.277527
v 188.054291 230.487122 -935.766785
v 198.871613 208.642029 -921.292114
v 208.836578 183.869202 -906.605774
v 218.698944 157.194763 -892.813843
v 228.786713 129.167786 -880.880554
v 239.152863 100.482384 -871.040649
v 249.647675 72.011322 -862.576721
v 142.275787 11.1684647 -1046.47986
v 161.052094 17.631794 -1024.77515
v 151.495148 -17.8793449 -1027.31799
v 179.113495 25.5811424 -999.921753
v 172.550262 -10.7348442 -1006.01648
v 162.290009 -45.6183167 -1005.97278
v 197.435211 32.8762283 -972.74884
v 192.821075 -2.53606224 -982.317322
v 185.998199 -37.4126358 -985.946838
v 174.056061 -70.8030624 -981.565369
v 216.166046 38.3841286 -943.367798
v 213.235504 4.95488358 -955.75824
v 208.995087 -28.6155701 -962.881348
v 200.633698 -61.4771194 -962.684998
v 186.39859 -92.0921326 -953.823303
v 234.727142 42.0229034 -911.16333
v 233.955292 10.9562035 -925.28418
v 232.086029 -20.83321 -935.559937
v 226.393158 -52.3442535 -939.486206
v 215.407684 -82.2649765 -935.54425
v 198.451019 -108.634003 -923.346375
v 251.951996 44.141716 -875.680237
v 253.998016 15.3018608 -889.510986
v 254.783783 -14.628746 -901.826172
v 251.668976 -44.6209106 -909.565002
v 243.057404 -73.276741 -910.549622
v 228.603058 -98.9338837 -904.031372
v 209.000885 -120.018799 -891.02887
v 120.789154 17.8080883 -1066.65735
v 129.881378 -15.7709808 -1047.21472
v 106.189606 -2.36293602 -1063.33691
v 138.631073 -46.6952667 -1023.67773
v 115.266998 -37.6899948 -1039.31506
v 89.2648621 -19.0011902 -1052.46521
v 148.167145 -74.8198776 -997.073975
v 123.85672 -69.3220444 -1011.35596
v 98.8544617 -55.0286713 -1024.35339
v 70.6547852 -32.3476219 -1034.67395
v 158.526031 -98.7722778 -966.600952
v 132.660553 -96.6825943 -979.00531
v 107.415375 -86.2017517 -991.213989
v 81.0046387 -68.0712738 -1002.29578
v 51.8398132 -43.245636 -1010.44653
v 169.559784 -117.59343 -932.535645
v 142.092194 -118.999023 -942.136658
v 115.793671 -112.421661 -952.760071
v 89.6610107 -98.3152084 -963.790161
v 62.5978394 -77.9018478 -973.692017
v 33.9956665 -52.809433 -980.733582
v 180.876801 -130.555939 -895.524292
v 152.527924 -135.260437 -900.957092
v 124.843658 -132.945648 -908.642883
v 97.8781433 -123.190308 -918.56958
v 71.2430725 -106.806488 -929.445923
v 44.4470825 -85.5301437 -939.300293
v 17.6308594 -61.1404266 -946.834473
v 117.561066 57.3927193 -1076.57056
v 100.239288 35.943821 -1079.625
v 99.3927307 76.3513412 -1083.9425
v 81.497467 18.6008377 -1073.03149
v 77.9074097 56.1478348 -1083.40393
v 79.4381409 97.0844269 -1083.604
v 60.8587341 4.75971985 -1058.44446
v 55.3039246 40.4816666 -1072.96692
v 53.8433533 77.6200333 -1078.71704
v 58.6028748 118.831902 -1076.35962
v 39.9050598 -7.09239578 -1036.80481
v 31.8360901 27.5921154 -1054.59094
v 28.0480347 62.3855438 -1064.354
v 29.4385376 99.5591202 -1066.85645
v 38.4143372 140.200806 -1063.49768
v 20.1014709 -18.5096054 -1008.34668
v 9.28900146 15.2643089 -1028.73999
v 2.45602417 48.9336128 -1041.89294
v 1.0932312 83.7915039 -1048.1803
v 6.26702881 120.811081 -1048.94031
v 19.0857239 158.783478 -1046.20312
v 1.75979614 -30.1345215 -973.061523
v -11.6143799 2.2367115 -994.581909
v -21.6513977 35.3348389 -1010.41589
v -26.4881592 69.3913651 -1020.1416
v -24.5005493 104.763199 -1024.64478
v -15.5792236 140.200623 -1025.82043
v -0.0992736816 173.470306 -1025.56311
v 121.8992 95.2698212 -1072.63586
v 105.060577 116.878616 -1077.3783
v 129.378448 132.831451 -1061.62109
v 87.3178711 138.966888 -1075.17065
v 114.181183 155.682068 -1064.9231
v 139.254791 169.195496 -1046.40637
v 69.4228821 161.125061 -1067.24561
v 98.4960022 178.095581 -1062.20166
v 125.152008 192.221985 -1048.99353
v 149.251251 202.822174 -1027.9884
v 51.1745605 180.787415 -1054.16052
v 81.9176331 198.903534 -1054.09851
v 110.22702 213.493835 -1045.65491
v 135.339325 224.685913 -1029.25732
v 157.034027 231.296295 -1005.71545
v 31.1401367 195.884308 -1036.14355
v 62.6299133 215.2099 -1040.25037
v 92.3902588 230.829712 -1036.19336
v 119.076202 242.391571 -1023.62793
v 141.837006 249.547699 -1003.6864
v 160.510162 251.502594 -978.281799
v 162.555328 259.214325 -939.255249
v 144.83371 262.182617 -969.771118
v 144.195465 263.094818 -928.484985
v 123.290131 259.26828 -994.940063
v 123.227753 264.238586 -960.019043
v 119.888031 261.687958 -916.817932
v 97.7049561 251.245789 -1012.849
v 98.6167908 259.820648 -983.919861
v 95.8101196 260.747955 -947.975159
v 90.2889709 257.605835 -903.661804
v 68.2138672 238.355103 -1021.7688
v 70.0685425 250.362549 -998.568115
v 67.7744446 254.914642 -969.233948
v 63.5822449 254.411926 -932.56366
v 56.7759094 251.91571 -888.649292
v 35.1899414 220.605591 -1020.98694
v 37.1484375 235.920868 -1002.55579
v 36.5372314 243.451538 -979.03479
v 32.9552307 246.552002 -949.195557
v 27.8543701 246.59201 -913.247864
v 21.5178528 244.371887 -871.991638
v -0.140716553 197.845306 -1011.28918
v -0.0404052734 215.501556 -995.512939
v -0.859161377 226.760406 -976.3974
v -2.67294312 233.082703 -952.565369
v -5.55874634 236.009735 -923.68866
v -9.230896 236.24707 -890.508057
v -12.1424866 233.690674 -854.447937
v -30.3206177 164.541199 -1001.51465
v -44.9431458 127.969078 -998.220459
v -58.3651123 151.569458 -973.90863
v -51.0591125 90.9159393 -993.565552
v -69.6613159 112.661629 -967.907837
v -82.5636597 136.354736 -943.967468
v -49.5252991 55.0031319 -985.511536
v -72.0814209 75.0098953 -960.238037
v -89.8259277 96.6739044 -935.662903
v -101.251648 121.245987 -912.699768
v -40.8834534 20.282526 -972.186951
v -66.4529114 39.2726898 -948.482788
v -87.8522644 59.7065048 -924.443665
v -103.702148 82.5689774 -901.271973
v -112.403198 107.950089 -880.088135
v -26.9839478 -14.042244 -952.679199
v -53.6555481 4.32601547 -930.538635
v -77.40448 24.5355396 -907.603333
v -96.5924683 46.814991 -885.033752
v -109.440308 71.0961685 -864.224487
v -115.501465 96.4355545 -846.145813
v -8.7539978 -48.1544342 -927.259399
v -35.0683594 -31.5871048 -905.79126
v -59.925415 -11.9549026 -883.582153
v -81.3308716 10.4348602 -861.883118
v -97.3205566 34.8757401 -842.00647
v -107.28653 60.097847 -825.153931
v -111.959808 84.7145767 -811.98175
v 19.3362732 -82.2765045 -906.094177
v 49.3452454 -107.606842 -894.9599
v 22.7789917 -98.9764404 -864.4104
v 78.3283691 -126.864471 -883.206299
v 56.1161804 -123.209488 -852.384216
v 27.8953857 -110.675308 -824.181396
v 107.465546 -139.455566 -872.717712
v 87.7287598 -139.004211 -841.241943
v 64.4389038 -132.085754 -813.170959
v 34.8375854 -117.086975 -787.250671
v 136.86441 -144.783203 -864.971069
v 119.260101 -147.125427 -832.802795
v 99.1608582 -143.987671 -804.20697
v 74.2575073 -134.580536 -778.383484
v 44.1631775 -118.45755 -755.052368
v 167.586578 -142.753845 -861.018738
v 152.038727 -147.861481 -828.219482
v 134.085236 -147.661713 -798.585266
v 112.31839 -142.264252 -772.232727
v 86.1242065 -131.398956 -748.88855
v 56.5539856 -115.437775 -728.761047
v 199.464203 -133.640228 -859.728943
v 186.719147 -141.1716 -827.487793
v 171.117706 -143.535034 -797.042053
v 151.916107 -141.253967 -769.848755
v 128.215607 -134.080353 -746.00946
v 101.108673 -122.998566 -725.598328
v 71.9378052 -108.486145 -709.100769
v 230.758575 -115.594299 -867.734009
v 251.80069 -92.5391312 -878.032959
v 249.056854 -108.031097 -843.683411
v 265.376495 -65.9392929 -880.177429
v 268.719635 -83.7687302 -850.243652
v 262.630646 -98.1246033 -818.25647
v 271.748383 -37.1291962 -874.742676
v 279.618683 -56.5866241 -847.888428
v 278.678558 -73.070816 -820.211243
v 269.74295 -86.3411331 -791.325928
v 272.111115 -7.2011261 -863.761902
v 283.100739 -27.3145218 -838.642639
v 285.809845 -45.0745544 -813.592712
v 281.298126 -60.3790894 -788.596985
v 268.987213 -72.3620911 -763.606506
v 268.52359 23.1835155 -850.14801
v 280.854767 3.49210548 -825.364746
v 286.27536 -14.5674515 -801.316101
v 284.509918 -30.9279633 -778.324646
v 276.21756 -45.0121841 -756.812805
v 260.400909 -55.2931061 -736.514893
v 263.461456 53.8834419 -837.075928
v 274.888641 35.9630737 -811.621765
v 281.731903 18.6119823 -786.909546
v 281.90274 2.19555283 -763.998291
v 275.82901 -12.8624573 -743.92041
v 263.692963 -25.4403915 -726.89386
v 245.503754 -34.9606171 -712.42688
v 253.964569 88.2786942 -835.0979
v 241.610199 119.688164 -843.840149
v 253.876312 104.140915 -809.388733
v 229.232697 149.779816 -854.210205
v 239.257172 136.721741 -819.193359
v 249.199799 119.186195 -785.668396
v 217.271698 178.157013 -866.493164
v 224.83017 166.440216 -830.089844
v 232.628204 151.180023 -796.304626
v 239.714203 133.541321 -764.130188
v 205.67392 204.272125 -880.502441
v 210.837189 193.702881 -842.51123
v 215.926483 179.510101 -807.54071
v 220.832428 164.246368 -775.26947
v 224.15744 148.414551 -745.501038
v 193.70993 227.558929 -895.777161
v 196.768341 218.309418 -856.817322
v 198.8367 205.295868 -820.196472
v 200.827606 191.320374 -786.703064
v 202.122589 177.6539 -756.577332
v 201.470612 163.321899 -730.460999
v 179.777313 246.764496 -912.043518
v 180.966095 239.60144 -873.558716
v 180.110077 228.490234 -835.520264
v 178.638092 215.985687 -799.852478
v 176.95639 203.555084 -768.045593
v 174.810089 190.899078 -741.085449
v 171.700653 176.640533 -719.800354
v 163.375885 255.247345 -897.792114
v 141.156525 257.080444 -883.825928
v 160.529999 246.316376 -856.645569
v 113.323761 255.615021 -870.054626
v 134.605133 248.542877 -840.876404
v 155.845551 235.516754 -817.256897
v 80.3598328 252.245544 -856.117615
v 103.046844 248.157745 -826.16217
v 126.113617 238.820099 -800.844543
v 150.469574 224.135498 -781.280029
v 43.8576355 246.250061 -841.750122
v 66.7417297 244.555023 -812.130554
v 91.0232849 238.36911 -786.031555
v 117.162567 227.43808 -765.059143
v 145.233856 211.676361 -750.12854
v 6.64120483 236.048431 -827.051392
v 27.8421631 235.671967 -798.675293
v 52.0155945 231.824707 -772.636414
v 79.3137817 223.963013 -751.144592
v 109.124786 212.103058 -735.177368
v 140.477386 196.299255 -725.00293
v -34.2238159 187.147797 -983.888062
v -64.0221863 173.12384 -954.004211
v -36.4096375 202.809662 -965.897522
v -88.1251526 157.938507 -922.921509
v -66.2039185 188.247009 -934.595337
v -37.6353149 213.160156 -945.443115
v -105.280884 143.062927 -890.952209
v -89.1942139 173.148163 -902.324158
v -66.6460571 198.45639 -913.085693
v -38.7987976 219.447266 -921.025269
v -114.39209 129.040649 -857.488586
v -104.749512 157.987701 -868.634155
v -88.2023315 183.128754 -879.145386
v -66.4828491 204.575378 -887.540833
v -40.2190552 222.383606 -891.812012
v -115.160828 114.858139 -821.910339
v -111.75415 142.041901 -832.396118
v -101.579163 166.273865 -842.427856
v -85.7234802 187.625488 -850.976624
v -65.3548584 206.122437 -856.450928
v -40.7812195 221.616608 -857.625793
v -8.94992065 -67.2710571 -882.281616
v -6.97137451 -81.4639969 -838.957275
v -35.9778748 -48.4673157 -858.676758
v -2.64938354 -91.1304932 -798.91449
v -34.0570679 -60.5595551 -815.266907
v -60.0528259 -26.3361053 -836.230774
v 4.83148193 -96.3847198 -763.317261
v -28.7606201 -68.6430283 -776.49292
v -56.5831299 -36.2195511 -794.083008
v -79.311676 -1.01572227 -816.154968
v 16.325531 -97.552475 -732.732056
v -19.2702332 -73.1392059 -742.644348
v -49.2826538 -42.6986542 -757.144714
v -73.6271057 -8.38097382 -776.198608
v -92.9706726 26.6066074 -799.177002
v 32.4837952 -94.4639816 -708.188782
v -4.71072388 -73.7350769 -713.968262
v -37.3809509 -45.7893524 -725.518677
v -64.2172852 -12.3642273 -741.896729
v -85.3916931 22.5822563 -762.505005
v -101.372589 55.4184723 -786.192444
v 220.581024 -127.477692 -834.077576
v 237.802948 -118.061142 -810.167114
v 207.235138 -132.832855 -801.743835
v 249.382599 -106.493652 -786.532715
v 222.678558 -121.482849 -779.377441
v 190.070892 -133.190277 -772.663818
v 253.037018 -92.643364 -762.058655
v 230.613251 -107.623169 -757.515015
v 201.938629 -119.394806 -751.780029
v 167.502167 -128.573761 -746.863708
v 247.625275 -75.5680466 -736.681824
v 229.319061 -90.892395 -734.533264
v 205.019135 -102.971344 -730.909363
v 174.846649 -112.671539 -726.812134
v 139.667816 -119.80571 -724.041931
v 233.531586 -54.6083908 -712.089539
v 217.7435 -70.4848633 -710.792786
v 197.290436 -83.378273 -708.799866
v 171.623077 -93.8651962 -706.39447
v 141.067291 -102.025482 -704.37439
v 107.058563 -107.290848 -704.478943
v 266.164642 69.8767471 -806.055481
v 263.625885 85.388092 -778.949524
v 273.985626 52.4714508 -778.739563
v 255.702911 100.918938 -755.446167
v 267.803864 68.5601807 -751.789612
v 275.998077 36.0015106 -753.71228
v 241.680756 117.5299 -735.537659
v 255.363739 85.813179 -729.832703
v 264.97226 53.4372635 -728.017395
v 271.092499 20.6482849 -731.937988
v 219.624115 135.100403 -719.67926
v 234.672516 104.686699 -712.625488
v 246.204315 72.5103149 -708.567017
v 253.97702 39.4899521 -708.536194
v 259.350739 6.5366478 -714.371582
v 188.132843 151.902039 -708.586365
v 203.434418 123.56028 -700.616394
v 216.579865 92.2525711 -695.053101
v 226.902924 59.1349449 -692.506653
v 234.321381 25.77808 -693.967407
v 240.34494 -6.13905716 -700.761047
v 13.9501038 60.8336678 -698.234741
v 32.1189575 79.03228 -699.654663
v -6.793396 90.7922668 -713.263855
v 51.557312 100.182861 -699.98175
v 12.276886 111.961525 -713.131104
v -23.7939453 121.303741 -729.034363
v 72.4301758 122.689835 -698.985413
v 32.3719177 134.996674 -711.439392
v -3.08822632 143.953522 -726.700806
v -35.9422302 151.488525 -746.195007
v 95.5071716 143.883606 -698.263794
v 54.773468 157.575714 -709.417236
v 19.0872803 166.833954 -723.851562
v -12.8268433 173.914948 -742.784729
v -42.0414124 179.285645 -766.868103
v 120.885284 160.928955 -700.066406
v 80.5683899 176.711151 -709.243652
v 44.4566345 187.390747 -722.674561
v 12.7348633 194.893799 -740.742859
v -15.4742432 200.111938 -764.154846
v -40.3169861 202.75412 -792.127441
v 147.145355 171.842682 -706.735229
v 109.781219 189.961945 -713.599915
v 74.2785645 203.278442 -725.934509
v 42.8549194 212.340454 -742.760742
v 15.1051636 218.222137 -765.097351
v -9.11187744 221.044495 -792.184082
v -29.923584 220.854126 -821.763977
v 47.8075867 42.6109886 -686.661865
v 82.7422485 26.6033134 -678.722595
v 69.2345886 63.1965942 -688.917908
v 118.097748 12.1997566 -674.604919
v 105.951691 49.2180023 -681.634949
v 91.1406555 85.5405731 -689.810974
v 153.2211 -1.17555237 -675.035095
v 142.11557 35.8410492 -677.883667
v 129.36319 71.9423676 -683.242004
v 113.967621 107.863586 -689.791016
v 187.318573 -13.6727486 -681.196289
v 177.258331 22.055212 -678.628601
v 166.428436 57.8792343 -680.602539
v 153.562958 93.1888123 -684.882202
v 138.242523 127.694054 -691.205627
v 218.762177 -25.1710739 -693.691956
v 210.498749 7.72301865 -685.608643
v 201.907257 42.4054413 -683.34198
v 191.496368 77.1522675 -685.007629
v 178.640533 110.945618 -689.571228
v 163.604706 142.796509 -696.627075
v 18.0818481 32.5903206 -688.67334
v 24.3459778 4.65137482 -680.867676
v 55.8548584 10.6026669 -677.580078
v 32.4906616 -22.9177628 -676.032471
v 65.6889954 -19.0388031 -672.006042
v 93.2087402 -7.48975372 -672.023804
v 42.3704834 -48.7936249 -675.900696
v 77.0249634 -45.503952 -671.581604
v 105.682526 -36.7197418 -670.858521
v 130.191681 -22.2114487 -672.17688
v 52.987854 -71.7254333 -681.479187
v 88.7783508 -68.6097183 -677.025635
v 119.141449 -61.1421967 -676.18988
v 144.629059 -49.8959045 -676.9151
v 166.721222 -34.3861389 -678.624023
v 63.0392456 -91.5447617 -692.67218
v 99.2038879 -88.9277802 -688.084961
v 131.623566 -82.3956146 -687.508911
v 159.270538 -72.9041443 -688.529846
v 182.334991 -60.6246567 -690.033508
v 201.794708 -45.0762024 -691.800842
v -16.5075684 64.5009995 -706.933411
v -44.6357727 71.6183395 -717.496277
v -13.9588013 35.8594742 -697.012756
v -68.6431885 80.017601 -729.894287
v -42.1795654 42.0562744 -707.50238
v -8.8515625 7.32616806 -689.485596
v -87.1057434 87.1137848 -744.983032
v -65.2484741 49.0481682 -720.515137
v -36.8767395 12.1765785 -700.86615
v -1.44787598 -21.3439178 -685.236938
v -99.8582153 90.7404022 -763.483948
v -82.4581299 54.6147041 -737.044983
v -58.8933105 17.4866562 -715.669983
v -29.0002747 -18.1836166 -698.312134
v 8.28512573 -48.6521606 -685.999146
v -107.829132 89.8141022 -785.866821
v -94.2261353 56.9885864 -758.478577
v -74.8672791 21.4250774 -735.340942
v -49.83078 -14.7149963 -716.310303
v -18.3356323 -47.4225388 -701.824097
v 19.842804 -73.1654816 -693.287476
v -38.677063 97.6526337 -726.001953
v -54.3899841 129.302368 -745.750549
v -65.4285583 106.82692 -739.860901
v -63.2637329 158.439972 -767.794617
v -77.9075928 137.780212 -763.636414
v -86.1743164 115.220543 -755.604248
v -64.7319946 183.946655 -793.675171
v -82.4295349 164.554504 -790.465576
v -94.6300354 144.002594 -783.491028
v -100.733154 120.367752 -774.047974
v -57.392395 205.069977 -823.759216
v -78.6435547 187.220795 -821.335144
v -94.7185974 167.666229 -815.01178
v -105.360352 145.837341 -806.181519
v -110.034454 120.454567 -795.992676
g 
f 3 1 2
f 5 2 4
f 6 3 5
f 8 4 7
f 9 5 8
f 10 6 9
f 12 7 11
f 13 8 12
f 14 9 13
f 15 10 14
f 17 11 16
f 18 12 17
f 19 13 18
f 20 14 19
f 21 15 20
f 23 16 22
f 24 17 23
f 25 18 24
f 26 19 25
f 27 20 26
f 28 21 27
f 30 22 29
f 31 23 30
f 32 24 31
f 33 25 32
f 34 26 33
f 35 27 34
f 36 28 35
f 3 2 5
f 5 4 8
f 6 5 9
f 8 7 12
f 9 8 13
f 10 9 14
f 12 11 17
f 13 12 18
f 14 13 19
f 15 14 20
f 17 16 23
f 18 17 24
f 19 18 25
f 20 19 26
f 21 20 27
f 23 22 30
f 24 23 31
f 25 24 32
f 26 25 33
f 27 26 34
f 28 27 35
f 37 1 3
f 38 3 6
f 39 37 38
f 40 6 10
f 41 38 40
f 42 39 41
f 43 10 15
f 44 40 43
f 45 41 44
f 46 42 45
f 47 15 21
f 48 43 47
f 49 44 48
f 50 45 49
f 51 46 50
f 52 21 28
f 53 47 52
f 54 48 53
f 55 49 54
f 56 50 55
f 57 51 56
f 58 28 36
f 59 52 58
f 60 53 59
f 61 54 60
f 62 55 61
f 63 56 62
f 64 57 63
f 37 3 38
f 38 6 40
f 39 38 41
f 40 10 43
f 41 40 44
f 42 41 45
f 43 15 47
f 44 43 48
f 45 44 49
f 46 45 50
f 47 21 52
f 48 47 53
f 49 48 54
f 50 49 55
f 51 50 56
f 52 28 58
f 53 52 59
f 54 53 60
f 55 54 61
f 56 55 62
f 57 56 63
f 65 1 37
f 66 37 39
f 67 65 66
f 68 39 42
f 69 66 68
f 70 67 69
f 71 42 46
f 72 68 71
f 73 69 72
f 74 70 73
f 75 46 51
f 76 71 75
f 77 72 76
f 78 73 77
f 79 74 78
f 80 51 57
f 81 75 80
f 82 76 81
f 83 77 82
f 84 78 83
f 85 79 84
f 86 57 64
f 87 80 86
f 88 81 87
f 89 82 88
f 90 83 89
f 91 84 90
f 92 85 91
f 65 37 66
f 66 39 68
f 67 66 69
f 68 42 71
f 69 68 72
f 70 69 73
f 71 46 75
f 72 71 76
f 73 72 77
f 74 73 78
f 75 51 80
f 76 75 81
f 77 76 82
f 78 77 83
f 79 78 84
f 80 57 86
f 81 80 87
f 82 81 88
f 83 82 89
f 84 83 90
f 85 84 91
f 93 1 65
f 94 65 67
f 95 93 94
f 96 67 70
f 97 94 96
f 98 95 97
f 99 70 74
f 100 96 99
f 101 97 100
f 102 98 101
f 103 74 79
f 104 99 103
f 105 100 104
f 106 101 105
f 107 102 106
f 108 79 85
f 109 103 108
f 110 104 109
f 111 105 110
f 112 106 111
f 113 107 112
f 114 85 92
f 115 108 114
f 116 109 115
f 117 110 116
f 118 111 117
f 119 112 118
f 120 113 119
f 93 65 94
f 94 67 96
f 95 94 97
f 96 70 99
f 97 96 100
f 98 97 101
f 99 74 103
f 100 99 104
f 101 100 105
f 102 101 106
f 103 79 108
f 104 103 109
f 105 104 110
f 106 105 111
f 107 106 112
f 108 85 114
f 109 108 115
f 110 109 116
f 111 110 117
f 112 111 118
f 113 112 119
f 2 1 93
f 121 93 95
f 4 2 121
f 122 95 98
f 123 121 122
f 7 4 123
f 124 98 102
f 125 122 124
f 126 123 125
f 11 7 126
f 127 102 107
f 128 124 127
f 129 125 128
f 130 126 129
f 16 11 130
f 131 107 113
f 132 127 131
f 133 128 132
f 134 129 133
f 135 130 134
f 22 16 135
f 136 113 120
f 137 131 136
f 138 132 137
f 139 133 138
f 140 134 139
f 141 135 140
f 29 22 141
f 2 93 121
f 121 95 122
f 4 121 123
f 122 98 124
f 123 122 125
f 7 123 126
f 124 102 127
f 125 124 128
f 126 125 129
f 11 126 130
f 127 107 131
f 128 127 132
f 129 128 133
f 130 129 134
f 16 130 135
f 131 113 136
f 132 131 137
f 133 132 138
f 134 133 139
f 135 134 140
f 22 135 141
f 142 29 141
f 143 141 140
f 144 142 143
f 145 140 139
f 146 143 145
f 147 144 146
f 148 139 138
f 149 145 148
f 150 146 149
f 151 147 150
f 152 138 137
f 153 148 152
f 154 149 153
f 155 150 154
f 156 151 155
f 157 137 136
f 158 152 157
f 159 153 158
f 160 154 159
f 161 155 160
f 162 156 161
f 163 136 120
f 164 157 163
f 165 158 164
f 166 159 165
f 167 160 166
f 168 161 167
f 169 162 168
f 142 141 143
f 143 140 145
f 144 143 146
f 145 139 148
f 146 145 149
f 147 146 150
f 148 138 152
f 149 148 153
f 150 149 154
f 151 150 155
f 152 137 157
f 153 152 158
f 154 153 159
f 155 154 160
f 156 155 161
f 157 136 163
f 158 157 164
f 159 158 165
f 160 159 166
f 161 160 167
f 162 161 168
f 170 120 119
f 171 119 118
f 172 170 171
f 173 118 117
f 174 171 173
f 175 172 174
f 176 117 116
f 177 173 176
f 178 174 177
f 179 175 178
f 180 116 115
f 181 176 180
f 182 177 181
f 183 178 182
f 184 179 183
f 185 115 114
f 186 180 185
f 187 181 186
f 188 182 187
f 189 183 188
f 190 184 189
f 191 114 92
f 192 185 191
f 193 186 192
f 194 187 193
f 195 188 194
f 196 189 195
f 197 190 196
f 170 119 171
f 171 118 173
f 172 171 174
f 173 117 176
f 174 173 177
f 175 174 178
f 176 116 180
f 177 176 181
f 178 177 182
f 179 178 183
f 180 115 185
f 181 180 186
f 182 181 187
f 183 182 188
f 184 183 189
f 185 114 191
f 186 185 192
f 187 186 193
f 188 187 194
f 189 188 195
f 190 189 196
f 198 92 91
f 199 91 90
f 200 198 199
f 201 90 89
f 202 199 201
f 203 200 202
f 204 89 88
f 205 201 204
f 206 202 205
f 207 203 206
f 208 88 87
f 209 204 208
f 210 205 209
f 211 206 210
f 212 207 211
f 213 87 86
f 214 208 213
f 215 209 214
f 216 210 215
f 217 211 216
f 218 212 217
f 219 86 64
f 220 213 219
f 221 214 220
f 222 215 221
f 223 216 222
f 224 217 223
f 225 218 224
f 198 91 199
f 199 90 201
f 200 199 202
f 201 89 204
f 202 201 205
f 203 202 206
f 204 88 208
f 205 204 209
f 206 205 210
f 207 206 211
f 208 87 213
f 209 208 214
f 210 209 215
f 211 210 216
f 212 211 217
f 213 86 219
f 214 213 220
f 215 214 221
f 216 215 222
f 217 216 223
f 218 217 224
f 226 64 63
f 227 63 62
f 228 226 227
f 229 62 61
f 230 227 229
f 231 228 230
f 232 61 60
f 233 229 232
f 234 230 233
f 235 231 234
f 236 60 59
f 237 232 236
f 238 233 237
f 239 234 238
f 240 235 239
f 241 59 58
f 242 236 241
f 243 237 242
f 244 238 243
f 245 239 244
f 246 240 245
f 247 58 36
f 248 241 247
f 249 242 248
f 250 243 249
f 251 244 250
f 252 245 251
f 253 246 252
f 226 63 227
f 227 62 229
f 228 227 230
f 229 61 232
f 230 229 233
f 231 230 234
f 232 60 236
f 233 232 237
f 234 233 238
f 235 234 239
f 236 59 241
f 237 236 242
f 238 237 243
f 239 238 244
f 240 239 245
f 241 58 247
f 242 241 248
f 243 242 249
f 244 243 250
f 245 244 251
f 246 245 252
f 254 36 35
f 255 35 34
f 256 254 255
f 257 34 33
f 258 255 257
f 259 256 258
f 260 33 32
f 261 257 260
f 262 258 261
f 263 259 262
f 264 32 31
f 265 260 264
f 266 261 265
f 267 262 266
f 268 263 267
f 269 31 30
f 270 264 269
f 271 265 270
f 272 266 271
f 273 267 272
f 274 268 273
f 275 30 29
f 276 269 275
f 277 270 276
f 278 271 277
f 279 272 278
f 280 273 279
f 281 274 280
f 254 35 255
f 255 34 257
f 256 255 258
f 257 33 260
f 258 257 261
f 259 258 262
f 260 32 264
f 261 260 265
f 262 261 266
f 263 262 267
f 264 31 269
f 265 264 270
f 266 265 271
f 267 266 272
f 268 267 273
f 269 30 275
f 270 269 276
f 271 270 277
f 272 271 278
f 273 272 279
f 274 273 280
f 275 29 142
f 282 142 144
f 276 275 282
f 283 144 147
f 284 282 283
f 277 276 284
f 285 147 151
f 286 283 285
f 287 284 286
f 278 277 287
f 288 151 156
f 289 285 288
f 290 286 289
f 291 287 290
f 279 278 291
f 292 156 162
f 293 288 292
f 294 289 293
f 295 290 294
f 296 291 295
f 280 279 296
f 297 162 169
f 298 292 297
f 299 293 298
f 300 294 299
f 301 295 300
f 302 296 301
f 281 280 302
f 275 142 282
f 282 144 283
f 276 282 284
f 283 147 285
f 284 283 286
f 277 284 287
f 285 151 288
f 286 285 289
f 287 286 290
f 278 287 291
f 288 156 292
f 289 288 293
f 290 289 294
f 291 290 295
f 279 291 296
f 292 162 297
f 293 292 298
f 294 293 299
f 295 294 300
f 296 295 301
f 280 296 302
f 163 120 170
f 303 170 172
f 164 163 303
f 304 172 175
f 305 303 304
f 165 164 305
f 306 175 179
f 307 304 306
f 308 305 307
f 166 165 308
f 309 179 184
f 310 306 309
f 311 307 310
f 312 308 311
f 167 166 312
f 313 184 190
f 314 309 313
f 315 310 314
f 316 311 315
f 317 312 316
f 168 167 317
f 318 190 197
f 319 313 318
f 320 314 319
f 321 315 320
f 322 316 321
f 323 317 322
f 169 168 323
f 163 170 303
f 303 172 304
f 164 303 305
f 304 175 306
f 305 304 307
f 165 305 308
f 306 179 309
f 307 306 310
f 308 307 311
f 166 308 312
f 309 184 313
f 310 309 314
f 311 310 315
f 312 311 316
f 167 312 317
f 313 190 318
f 314 313 319
f 315 314 320
f 316 315 321
f 317 316 322
f 168 317 323
f 191 92 198
f 324 198 200
f 192 191 324
f 325 200 203
f 326 324 325
f 193 192 326
f 327 203 207
f 328 325 327
f 329 326 328
f 194 193 329
f 330 207 212
f 331 327 330
f 332 328 331
f 333 329 332
f 195 194 333
f 334 212 218
f 335 330 334
f 336 331 335
f 337 332 336
f 338 333 337
f 196 195 338
f 339 218 225
f 340 334 339
f 341 335 340
f 342 336 341
f 343 337 342
f 344 338 343
f 197 196 344
f 191 198 324
f 324 200 325
f 192 324 326
f 325 203 327
f 326 325 328
f 193 326 329
f 327 207 330
f 328 327 331
f 329 328 332
f 194 329 333
f 330 212 334
f 331 330 335
f 332 331 336
f 333 332 337
f 195 333 338
f 334 218 339
f 335 334 340
f 336 335 341
f 337 336 342
f 338 337 343
f 196 338 344
f 219 64 226
f 345 226 228
f 220 219 345
f 346 228 231
f 347 345 346
f 221 220 347
f 348 231 235
f 349 346 348
f 350 347 349
f 222 221 350
f 351 235 240
f 352 348 351
f 353 349 352
f 354 350 353
f 223 222 354
f 355 240 246
f 356 351 355
f 357 352 356
f 358 353 357
f 359 354 358
f 224 223 359
f 360 246 253
f 361 355 360
f 362 356 361
f 363 357 362
f 364 358 363
f 365 359 364
f 225 224 365
f 219 226 345
f 345 228 346
f 220 345 347
f 346 231 348
f 347 346 349
f 221 347 350
f 348 235 351
f 349 348 352
f 350 349 353
f 222 350 354
f 351 240 355
f 352 351 356
f 353 352 357
f 354 353 358
f 223 354 359
f 355 246 360
f 356 355 361
f 357 356 362
f 358 357 363
f 359 358 364
f 224 359 365
f 247 36 254
f 366 254 256
f 248 247 366
f 367 256 259
f 368 366 367
f 249 248 368
f 369 259 263
f 370 367 369
f 371 368 370
f 250 249 371
f 372 263 268
f 373 369 372
f 374 370 373
f 375 371 374
f 251 250 375
f 376 268 274
f 377 372 376
f 378 373 377
f 379 374 378
f 380 375 379
f 252 251 380
f 381 274 281
f 382 376 381
f 383 377 382
f 384 378 383
f 385 379 384
f 386 380 385
f 253 252 386
f 247 254 366
f 366 256 367
f 248 366 368
f 367 259 369
f 368 367 370
f 249 368 371
f 369 263 372
f 370 369 373
f 371 370 374
f 250 371 375
f 372 268 376
f 373 372 377
f 374 373 378
f 375 374 379
f 251 375 380
f 376 274 381
f 377 376 382
f 378 377 383
f 379 378 384
f 380 379 385
f 252 380 386
f 389 387 388
f 391 388 390
f 392 389 391
f 394 390 393
f 395 391 394
f 396 392 395
f 398 393 397
f 399 394 398
f 400 395 399
f 401 396 400
f 403 397 402
f 404 398 403
f 405 399 404
f 406 400 405
f 407 401 406
f 409 402 408
f 410 403 409
f 411 404 410
f 412 405 411
f 413 406 412
f 414 407 413
f 302 408 281
f 301 409 302
f 300 410 301
f 299 411 300
f 298 412 299
f 297 413 298
f 169 414 297
f 389 388 391
f 391 390 394
f 392 391 395
f 394 393 398
f 395 394 399
f 396 395 400
f 398 397 403
f 399 398 404
f 400 399 405
f 401 400 406
f 403 402 409
f 404 403 410
f 405 404 411
f 406 405 412
f 407 406 413
f 409 408 302
f 410 409 301
f 411 410 300
f 412 411 299
f 413 412 298
f 414 413 297
f 388 387 415
f 417 415 416
f 390 388 417
f 419 416 418
f 420 417 419
f 393 390 420
f 422 418 421
f 423 419 422
f 424 420 423
f 397 393 424
f 426 421 425
f 427 422 426
f 428 423 427
f 429 424 428
f 402 397 429
f 431 425 430
f 432 426 431
f 433 427 432
f 434 428 433
f 435 429 434
f 408 402 435
f 386 430 253
f 385 431 386
f 384 432 385
f 383 433 384
f 382 434 383
f 381 435 382
f 281 408 381
f 388 415 417
f 417 416 419
f 390 417 420
f 419 418 422
f 420 419 423
f 393 420 424
f 422 421 426
f 423 422 427
f 424 423 428
f 397 424 429
f 426 425 431
f 427 426 432
f 428 427 433
f 429 428 434
f 402 429 435
f 431 430 386
f 432 431 385
f 433 432 384
f 434 433 383
f 435 434 382
f 408 435 381
f 415 387 436
f 438 436 437
f 416 415 438
f 440 437 439
f 441 438 440
f 418 416 441
f 443 439 442
f 444 440 443
f 445 441 444
f 421 418 445
f 447 442 446
f 448 443 447
f 449 444 448
f 450 445 449
f 425 421 450
f 452 446 451
f 453 447 452
f 454 448 453
f 455 449 454
f 456 450 455
f 430 425 456
f 365 451 225
f 364 452 365
f 363 453 364
f 362 454 363
f 361 455 362
f 360 456 361
f 253 430 360
f 415 436 438
f 438 437 440
f 416 438 441
f 440 439 443
f 441 440 444
f 418 441 445
f 443 442 447
f 444 443 448
f 445 444 449
f 421 445 450
f 447 446 452
f 448 447 453
f 449 448 454
f 450 449 455
f 425 450 456
f 452 451 365
f 453 452 364
f 454 453 363
f 455 454 362
f 456 455 361
f 430 456 360
f 436 387 457
f 459 457 458
f 437 436 459
f 461 458 460
f 462 459 461
f 439 437 462
f 464 460 463
f 465 461 464
f 466 462 465
f 442 439 466
f 468 463 467
f 469 464 468
f 470 465 469
f 471 466 470
f 446 442 471
f 473 467 472
f 474 468 473
f 475 469 474
f 476 470 475
f 477 471 476
f 451 446 477
f 344 472 197
f 343 473 344
f 342 474 343
f 341 475 342
f 340 476 341
f 339 477 340
f 225 451 339
f 436 457 459
f 459 458 461
f 437 459 462
f 461 460 464
f 462 461 465
f 439 462 466
f 464 463 468
f 465 464 469
f 466 465 470
f 442 466 471
f 468 467 473
f 469 468 474
f 470 469 475
f 471 470 476
f 446 471 477
f 473 472 344
f 474 473 343
f 475 474 342
f 476 475 341
f 477 476 340
f 451 477 339
f 457 387 389
f 478 389 392
f 458 457 478
f 479 392 396
f 480 478 479
f 460 458 480
f 481 396 401
f 482 479 481
f 483 480 482
f 463 460 483
f 484 401 407
f 485 481 484
f 486 482 485
f 487 483 486
f 467 463 487
f 488 407 414
f 489 484 488
f 490 485 489
f 491 486 490
f 492 487 491
f 472 467 492
f 323 414 169
f 322 488 323
f 321 489 322
f 320 490 321
f 319 491 320
f 318 492 319
f 197 472 318
f 457 389 478
f 478 392 479
f 458 478 480
f 479 396 481
f 480 479 482
f 460 480 483
f 481 401 484
f 482 481 485
f 483 482 486
f 463 483 487
f 484 407 488
f 485 484 489
f 486 485 490
f 487 486 491
f 467 487 492
f 488 414 323
f 489 488 322
f 490 489 321
f 491 490 320
f 492 491 319
f 472 492 318
