# File exported by Houdini 20.5.445 (www.sidefx.com)
# 492 points
# 2940 vertices
# 980 primitives
# Bounds: [-191.452698, -198.317963, -1046.50635] to [362.226593, 314.695068, -708.294678]
g 
v 163.053345 55.0382385 -1041.13159
v 161.168152 88.1161194 -1029.11633
v 192.280334 74.1381149 -1033.84521
v 160.180359 117.787041 -1013.37512
v 193.807617 109.15136 -1016.50183
v 221.416321 91.4015274 -1017.63611
v 160.506592 143.805328 -996.05603
v 196.733459 138.547089 -997.74292
v 226.184082 126.283836 -997.127197
v 250.663025 106.319778 -995.597046
v 161.313904 167.287048 -978.240967
v 200.222046 163.742065 -979.64978
v 231.889221 154.929871 -978.080566
v 258.144226 140.2099 -974.427734
v 279.571838 118.526314 -971.526367
v 161.999573 190.390747 -960.373535
v 202.422546 186.960846 -962.235718
v 236.717407 180.044098 -960.926514
v 265.252014 168.327454 -956.298218
v 288.718445 151.280823 -951.276123
v 306.91272 127.361168 -948.352661
v 161.697876 214.623596 -942.971558
v 202.456238 210.779633 -944.903931
v 238.541382 204.365265 -944.435669
v 269.774963 194.071533 -940.228271
v 295.744446 179.226807 -934.364624
v 316.297058 159.000946 -929.673462
v 330.789185 132.16684 -927.828125
v 159.516602 239.989197 -926.919312
v 199.636169 236.620941 -927.598511
v 236.650635 230.427795 -927.332642
v 269.826782 220.384094 -924.289795
v 298.451111 206.034027 -919.09021
v 321.75 186.889648 -914.019165
v 338.861511 162.543701 -911.061523
v 349.198792 133.057831 -910.863892
v 182.131775 31.8336792 -1046.50635
v 213.013977 50.6128769 -1036.39856
v 198.423828 7.55670929 -1046.14075
v 241.691589 67.4969559 -1017.2644
v 229.405396 26.830761 -1033.36108
v 210.812988 -16.9200935 -1039.83398
v 269.298523 81.7766037 -993.356812
v 256.855957 43.5990791 -1012.53589
v 240.779175 2.72631264 -1025.29077
v 217.824646 -42.1633987 -1029.12415
v 296.168762 92.6216583 -968.356445
v 282.835632 56.7303314 -987.964844
v 266.761902 18.5745659 -1003.80017
v 245.975037 -23.1135025 -1013.68884
v 219.291504 -68.2296143 -1014.75696
v 321.546448 99.1300735 -944.511108
v 308.130188 65.1116714 -962.462158
v 291.464355 29.243515 -978.873779
v 270.52356 -9.38211823 -991.605347
v 245.383362 -50.8273087 -998.101074
v 216.158936 -93.4499054 -995.575195
v 343.400635 101.07769 -922.963623
v 331.859253 68.0067444 -937.448242
v 315.584595 33.6757812 -952.054199
v 294.096069 -2.40466309 -965.078979
v 268.227051 -40.2395096 -974.015869
v 239.682678 -78.7432709 -976.37854
v 209.235474 -115.693878 -971.019531
v 145.459656 21.6116524 -1043.16711
v 163.342773 -5.92651749 -1045.98901
v 125.429749 -10.4958305 -1034.12769
v 177.135193 -32.8822517 -1042.13696
v 141.428772 -40.394455 -1032.50769
v 101.50293 -39.6197891 -1015.03564
v 186.289734 -59.5542755 -1032.79419
v 152.803772 -68.9692841 -1025.151
v 115.693237 -71.1760483 -1009.18762
v 73.7811279 -65.3931885 -989.471558
v 190.106079 -86.8191071 -1019.62244
v 159.303955 -97.8040848 -1013.83728
v 125.176819 -101.621521 -999.483887
v 86.8341675 -98.9024277 -980.752197
v 43.9138794 -88.5023651 -962.206299
v 188.983215 -113.382812 -1001.28394
v 160.554077 -126.675873 -997.901245
v 129.369812 -132.580246 -986.121216
v 94.6094971 -131.485931 -969.006714
v 55.8725586 -124.017715 -951.328491
v 14.1004639 -109.576584 -936.310913
v 183.077576 -136.803406 -975.639771
v 155.834656 -152.717957 -973.786133
v 126.500671 -161.5177 -965.045532
v 94.5310669 -162.552094 -950.945923
v 59.4658203 -156.406433 -934.905029
v 21.9807129 -144.333038 -921.127563
v -16.2438965 -126.692657 -911.476685
v 131.626099 56.4958878 -1035.97815
v 110.1297 22.95224 -1033.47327
v 98.401001 58.2688599 -1029.44543
v 86.2119141 -6.78375626 -1019.99048
v 73.2234497 26.2488365 -1023.54749
v 63.4718628 61.3794937 -1021.55884
v 58.5516357 -32.133049 -998.214844
v 45.5471191 -0.0466957092 -1007.4502
v 34.9671021 32.6002617 -1012.87329
v 28.2301025 67.6487045 -1010.47156
v 27.9219971 -53.9687271 -972.194336
v 14.5765991 -21.1341934 -984.269409
v 3.90386963 10.8546085 -994.639526
v -3.4430542 43.3978653 -999.437622
v -6.41674805 78.0647659 -995.443726
v -3.2467041 -74.705513 -945.685913
v -18.09729 -40.1540604 -957.941895
v -29.9343262 -6.70055008 -970.406616
v -37.8710938 25.9238586 -979.653931
v -41.2478333 58.5591888 -982.55896
v -39.8483582 92.4845352 -977.234619
v -34.5751648 -95.0306091 -920.640381
v -51.4958496 -60.2398987 -932.167114
v -65.7915955 -24.5214462 -944.534058
v -75.5834351 10.4639664 -955.386719
v -79.6225891 44.1697693 -962.150757
v -77.8830872 76.9252396 -962.97583
v -71.3840027 109.398178 -957.480347
v 126.765625 90.2728348 -1024.99585
v 92.1651001 92.0830917 -1019.54968
v 123.303406 119.396248 -1010.1051
v 57.7337646 95.452179 -1011.01782
v 87.7783203 121.259514 -1004.17871
v 121.421997 145.172211 -992.593384
v 23.8619995 102.355881 -997.901611
v 53.630249 125.913139 -993.76123
v 85.3220215 148.491089 -985.147339
v 120.988281 170.068115 -973.547363
v -9.87145996 113.997398 -980.417358
v 19.8079224 135.228546 -978.408081
v 50.5783081 156.252289 -972.668213
v 84.0095825 176.680176 -964.316528
v 121.064514 196.282104 -954.127686
v -43.7137451 130.454926 -959.791138
v -15.0147095 150.731506 -958.831421
v 15.0944214 170.727814 -955.332886
v 47.4342041 190.148468 -950.031738
v 82.6043091 208.428375 -943.321777
v 120.370972 225.179443 -935.473267
v 130.603821 257.210754 -917.963257
v 87.1098022 242.921967 -924.912842
v 99.6741943 273.964722 -909.918091
v 47.526123 226.490295 -930.304932
v 53.8099976 259.976166 -915.231201
v 67.1958618 288.223755 -902.665771
v 11.7744751 208.017944 -934.379883
v 13.5145874 242.955688 -918.607056
v 20.4448242 273.590729 -906.218628
v 34.0617676 297.961639 -896.019775
v -21.0198364 187.682587 -937.402832
v -22.5395508 222.914124 -920.56897
v -19.7938232 254.642059 -907.46875
v -11.9920654 281.538239 -897.165161
v 1.72570801 302.503876 -889.362427
v -52.0698242 165.460968 -939.278442
v -56.074646 199.537628 -921.567383
v -56.0460205 231.156921 -907.178711
v -51.6698303 259.292358 -895.87207
v -42.552063 283.453491 -887.696045
v -27.8361816 301.299774 -882.022583
v -82.7288818 140.561005 -939.578613
v -89.4431458 171.709473 -922.133545
v -91.6166687 201.790985 -906.701172
v -89.3322754 230.314087 -893.997803
v -82.4076843 256.688202 -884.571045
v -70.2773132 278.642731 -878.221924
v -53.1322632 293.371185 -873.970581
v -106.47937 105.002487 -942.641357
v -114.878967 67.6602478 -944.912964
v -138.140839 95.8494415 -927.910156
v -115.930359 30.4147339 -941.099731
v -145.085114 53.6401062 -927.588013
v -164.023224 82.9397812 -912.738037
v -109.516205 -7.46212769 -932.55188
v -143.443481 12.7741241 -921.547485
v -167.899139 37.398613 -909.503418
v -182.079468 67.9686356 -896.075439
v -96.8405151 -45.843071 -920.785645
v -134.495728 -27.6898689 -911.063354
v -163.279633 -5.97941208 -900.742554
v -182.402588 19.7847252 -889.216919
v -190.919647 51.0179443 -877.10022
v -79.6981506 -83.8611603 -907.356567
v -119.669189 -68.2430115 -897.224976
v -152.018341 -48.9496155 -887.474121
v -175.116241 -26.1345901 -876.916626
v -188.34137 0.557184219 -865.760254
v -191.452698 32.2618065 -855.361084
v -59.0296936 -119.91452 -894.110474
v -99.59375 -108.012207 -880.730713
v -134.625458 -91.7194214 -869.434326
v -161.440125 -71.6177368 -858.576782
v -178.652802 -47.8308563 -847.926392
v -186.493011 -20.1129913 -838.251465
v -185.871307 12.2787151 -830.956665
v -23.846344 -150.145508 -889.55957
v 16.6777954 -168.143219 -897.906494
v -31.0686035 -166.796082 -864.194092
v 53.8355103 -179.896545 -911.43335
v 10.3440552 -183.558044 -872.526733
v -37.6139526 -177.63382 -837.165405
v 88.1088867 -184.483917 -925.960571
v 46.9362793 -193.281433 -885.99292
v 3.5100708 -191.898193 -846.400391
v -42.9046326 -183.032257 -810.572998
v 120.210571 -180.615875 -937.682861
v 81.18927 -194.813904 -899.216431
v 39.8460083 -198.317963 -859.945435
v -2.57751465 -193.554413 -821.393921
v -45.7561951 -182.470184 -786.700562
v 151.215515 -167.795502 -944.52002
v 114.959839 -187.016327 -909.227173
v 75.1660767 -195.474182 -872.147827
v 34.1844482 -195.364136 -834.856689
v -6.11871338 -188.113342 -798.865356
v -44.7816162 -175.567596 -766.836182
v 182.092834 -146.661377 -945.32605
v 149.639709 -169.172485 -914.39209
v 112.129272 -182.01825 -880.525879
v 72.0756836 -186.429535 -845.773071
v 32.3596191 -183.679047 -811.631958
v -4.8581543 -175.080505 -779.48645
v -38.7251892 -162.362671 -751.676758
v 219.771057 -112.613754 -948.407593
v 255.218384 -74.4645233 -951.517456
v 229.572021 -106.696594 -924.243164
v 287.292236 -36.6032333 -947.246704
v 269.262268 -68.8574982 -926.216553
v 237.80304 -97.0704193 -900.021606
v 314.833374 0.260623932 -937.902466
v 303.126038 -31.6827316 -921.65332
v 279.690857 -59.8514252 -901.89624
v 243.204712 -82.2200775 -877.267456
v 336.067993 36.4715729 -926.328491
v 330.077026 5.52533531 -913.597534
v 312.97699 -22.2685623 -898.445068
v 284.108032 -45.0681763 -880.005859
v 243.900269 -61.9905243 -857.311279
v 350.829407 73.0202637 -914.263062
v 349.061951 44.1397362 -904.726807
v 337.120239 17.3242378 -893.040283
v 313.944214 -5.56957626 -878.861206
v 280.24054 -23.7903366 -861.696899
v 237.807007 -37.0978546 -841.05835
v 359.017487 110.725639 -903.008667
v 360.416779 85.7742767 -895.627441
v 352.019043 60.9553909 -887.112061
v 332.978638 38.3904533 -876.359863
v 303.58844 19.0331573 -863.016479
v 266.353577 3.3511219 -846.992554
v 224.174805 -9.08693695 -828.314575
v 355.897217 152.032135 -897.450562
v 341.944153 184.894958 -898.325562
v 353.750854 170.633911 -887.552246
v 320.856995 211.02124 -901.549561
v 336.045837 205.021454 -889.038818
v 342.608582 187.912781 -879.460571
v 294.107849 231.29071 -905.970825
v 311.634521 232.232086 -892.066528
v 322.060913 222.8414 -881.365967
v 322.756226 203.479248 -872.398315
v 262.156372 246.448303 -909.886475
v 281.687317 253.684601 -895.662109
v 294.889465 250.844421 -884.304199
v 299.987427 238.331451 -874.840942
v 294.800476 216.901367 -866.131592
v 224.715576 256.81073 -912.147705
v 245.49939 269.656799 -898.781738
v 260.99707 273.119568 -887.557129
v 269.46991 266.469543 -878.003174
v 269.404175 250.75827 -869.241699
v 259.995483 227.673615 -860.268311
v 181.2052 262.453125 -913.103027
v 201.169434 279.739105 -901.02002
v 217.890076 288.94043 -890.615356
v 229.234863 288.297791 -881.609619
v 233.48584 277.953796 -872.931763
v 230.339722 259.707947 -864.079956
v 220.064392 235.944305 -854.514771
v 150.507812 280.831573 -904.741089
v 118.141541 295.628204 -897.991699
v 168.24585 295.936554 -893.950806
v 84.0755615 306.230194 -892.704468
v 133.660278 306.653473 -888.739624
v 182.161438 301.237579 -884.976318
v 48.7269897 312.329254 -888.084106
v 96.7709351 313.135101 -885.0271
v 144.464539 307.499298 -880.830933
v 190.078491 296.361664 -876.483521
v 14.1486206 312.917511 -882.770874
v 58.8295288 314.695068 -881.250977
v 104.662231 308.812805 -877.47876
v 149.544495 297.406555 -872.196289
v 191.490173 281.323914 -867.249146
v -17.5704346 306.139465 -875.455078
v 21.7069092 309.312714 -875.35083
v 63.6146851 303.903717 -872.490112
v 106.264038 292.15976 -867.085571
v 147.341187 276.203278 -860.753418
v 185.286316 257.463287 -856.28479
v -118.73703 136.478302 -924.898193
v -148.884552 127.164055 -911.22229
v -124.197021 166.286163 -908.343262
v -171.467621 115.10244 -897.515137
v -151.5271 157.323792 -896.232544
v -123.907654 195.637665 -894.276489
v -184.39093 100.415161 -882.398926
v -169.240875 145.830444 -884.418335
v -146.823425 187.215607 -883.980957
v -117.814606 224.382416 -883.183594
v -187.574432 82.677475 -864.347168
v -176.360352 131.020386 -870.745972
v -158.61969 175.895142 -873.747437
v -134.856506 216.157593 -874.388794
v -105.358734 250.747986 -875.082275
v -182.802307 61.3100052 -841.814087
v -173.748779 111.360817 -852.36792
v -159.277954 159.650635 -860.227417
v -139.691406 203.637146 -864.599243
v -115.213959 241.309143 -866.791138
v -86.2196045 271.387604 -869.319336
v -69.7701416 -141.904114 -867.909546
v -77.8691711 -156.623352 -839.426636
v -109.811768 -128.695587 -851.218872
v -83.0188293 -165.78241 -810.43457
v -115.649811 -142.253662 -820.702271
v -141.557526 -111.290985 -837.414917
v -84.9399109 -169.352844 -782.798218
v -117.391022 -150.106171 -790.268311
v -143.319427 -123.730133 -805.2323
v -163.633728 -89.7113037 -825.13501
v -82.6265259 -166.534302 -758.326416
v -114.754333 -151.514771 -761.346069
v -140.512238 -129.342773 -773.471558
v -160.548065 -99.6766968 -792.12085
v -175.77533 -62.8863907 -814.662476
v -74.6112976 -156.101044 -739.006592
v -106.225128 -144.675003 -736.265625
v -132.274231 -126.302612 -743.854858
v -152.482147 -100.305756 -760.25647
v -167.626984 -67.2368317 -782.517578
v -178.729279 -28.9249382 -807.162964
v 188.347351 -141.381241 -919.380249
v 193.197571 -130.985901 -893.974731
v 151.805481 -159.23407 -887.205933
v 197.230896 -115.137268 -870.245605
v 153.462158 -143.239426 -862.347656
v 111.880432 -167.525818 -854.081665
v 199.545837 -94.0705338 -848.822998
v 155.205261 -121.917755 -839.938354
v 112.069824 -146.862946 -830.649414
v 70.9319458 -168.280609 -821.049438
v 197.686951 -67.941803 -830.325073
v 155.194702 -95.5422134 -819.767944
v 112.08844 -120.953354 -809.342163
v 70.069519 -143.91507 -798.848145
v 30.723938 -162.812164 -788.483398
v 188.813171 -37.3987122 -815.203491
v 149.966492 -64.1755371 -802.116211
v 108.886292 -89.8911209 -789.609619
v 67.4915771 -114.111053 -777.794434
v 27.949585 -135.429413 -766.734619
v -7.75189209 -151.898529 -757.248779
v 362.226593 129.575104 -889.702393
v 354.356262 147.812469 -879.870972
v 357.421417 105.975212 -882.528687
v 336.299561 164.645233 -871.524902
v 342.18103 125.00312 -872.38147
v 341.400146 83.2589645 -873.989136
v 308.923828 179.825623 -863.838623
v 316.339294 142.302673 -863.149902
v 318.135132 103.547363 -863.100464
v 314.364807 62.5297852 -862.830322
v 273.074951 193.175385 -856.289185
v 280.768311 157.93512 -853.763794
v 283.934143 121.881004 -852.05481
v 282.91394 84.0895538 -850.33728
v 277.299561 44.2458801 -848.311157
v 229.879028 204.50058 -848.282593
v 235.985535 171.576416 -843.253418
v 239.126892 137.865997 -839.186401
v 239.628296 102.594223 -835.624023
v 237.447998 65.5380249 -832.472778
v 232.426514 27.8139305 -829.8302
v -29.944458 80.7678528 -745.442017
v 0.585266113 112.065239 -761.377197
v -35.8860168 124.820076 -769.799683
v 32.6096191 140.410431 -779.076904
v -3.70324707 159.223022 -787.427734
v -39.617218 169.434601 -797.817505
v 67.0322266 165.495972 -796.865601
v 29.3859863 187.413239 -804.712158
v -6.13397217 203.553436 -814.491211
v -42.8492126 210.975403 -823.661987
v 104.394958 187.381927 -813.974365
v 64.9905396 210.310028 -820.209839
v 28.0154419 229.378998 -829.548096
v -8.49072266 242.432953 -837.655151
v -46.6538391 246.116821 -843.637573
v 143.854919 206.404449 -829.809692
v 103.660583 228.980865 -833.876953
v 64.7583618 249.002808 -842.001831
v 26.4855957 264.738922 -849.915283
v -11.7524414 273.718353 -854.867554
v -50.6772766 272.224701 -857.341431
v 183.319885 222.720581 -843.513062
v 144.498596 244.521423 -845.854004
v 104.799927 264.172729 -852.180664
v 64.3723145 280.711395 -859.551636
v 24.0488281 292.056732 -864.796265
v -15.390686 295.480835 -866.791016
v -53.4590454 287.895447 -866.589233
v -1.91540527 60.0660248 -739.011597
v 29.8731079 43.2487183 -742.291626
v 33.3485718 91.5309677 -757.658813
v 64.9677124 30.300827 -753.135376
v 68.6578369 75.8593369 -763.393188
v 69.1189575 119.733208 -777.519653
v 103.23822 20.663681 -769.413574
v 106.269165 63.9044647 -775.675781
v 107.492432 104.850349 -784.921143
v 106.725098 145.022522 -797.414307
v 143.772888 11.9096718 -788.636963
v 146.428711 53.3297119 -792.209839
v 148.016907 92.7635574 -797.978149
v 148.020081 130.202759 -806.017822
v 146.731934 167.423431 -816.59314
v 184.854004 1.94041634 -808.654785
v 189.138794 41.6737328 -810.828003
v 191.161194 80.3215942 -814.3927
v 191.964111 117.119713 -819.490112
v 190.990601 152.254852 -826.000732
v 188.446838 187.180908 -833.966675
v -42.1639099 34.8025017 -727.015747
v -51.0178833 -9.04350281 -714.636841
v -10.9104004 13.7520123 -724.815796
v -56.4467773 -49.3147888 -708.396729
v -16.5250854 -27.8782349 -717.829224
v 23.5202637 -1.69846344 -733.2052
v -58.4655457 -84.8262787 -709.210938
v -19.090271 -64.4298859 -717.845215
v 20.732666 -40.2015915 -731.763306
v 61.2355957 -12.1104279 -748.896484
v -56.7505493 -115.372955 -717.138794
v -18.9000854 -96.7443771 -724.607178
v 20.5268555 -74.2021027 -736.989624
v 60.8618774 -48.3457718 -751.927368
v 101.976807 -19.9061775 -769.074951
v -50.3757324 -141.161469 -731.468262
v -15.4360962 -125.759003 -737.644287
v 22.8080444 -105.595337 -748.414307
v 63.0893555 -81.6970367 -761.268188
v 104.145508 -55.5398102 -775.653687
v 144.999878 -27.8893471 -791.534424
v -62.7992859 74.2781982 -747.488525
v -92.3954773 66.7359238 -755.595947
v -77.3243713 22.2979088 -727.498169
v -118.408936 57.5830383 -767.413818
v -106.927307 10.1445065 -734.945679
v -86.6666565 -24.8515091 -714.339355
v -140.847198 46.6655731 -781.063354
v -131.408325 -1.66728592 -747.320068
v -115.206238 -38.9999466 -722.003662
v -91.4699707 -66.4273224 -708.294678
v -159.874725 34.65308 -795.954224
v -151.355743 -12.6635017 -763.57959
v -137.773224 -51.1845703 -736.165527
v -118.343964 -80.919693 -717.352295
v -91.8311157 -102.055084 -710.236694
v -175.1922 22.6900902 -812.494751
v -167.217499 -22.0096054 -783.444702
v -155.131256 -60.883194 -756.307495
v -138.509888 -92.4881744 -734.558472
v -116.022003 -116.087646 -721.777954
v -86.7958374 -131.872742 -720.485962
v -69.3082886 122.638054 -777.876709
v -73.6861572 168.520294 -807.981812
v -98.4538879 117.508064 -789.467896
v -78.1072388 208.503845 -832.443726
v -103.315308 162.587036 -819.148315
v -124.195435 108.534393 -801.875732
v -82.7843018 239.893738 -849.769165
v -108.576691 199.203827 -841.541626
v -129.718536 150.796448 -829.970459
v -147.036163 95.4118118 -814.212036
v -86.3088379 261.061188 -861.098267
v -113.437439 225.742249 -856.691895
v -135.635223 182.71579 -850.521973
v -153.432831 133.202087 -840.590942
v -166.945709 78.991806 -827.100464
g 
f 3 1 2
f 5 2 4
f 6 3 5
f 8 4 7
f 9 5 8
f 10 6 9
f 12 7 11
f 13 8 12
f 14 9 13
f 15 10 14
f 17 11 16
f 18 12 17
f 19 13 18
f 20 14 19
f 21 15 20
f 23 16 22
f 24 17 23
f 25 18 24
f 26 19 25
f 27 20 26
f 28 21 27
f 30 22 29
f 31 23 30
f 32 24 31
f 33 25 32
f 34 26 33
f 35 27 34
f 36 28 35
f 3 2 5
f 5 4 8
f 6 5 9
f 8 7 12
f 9 8 13
f 10 9 14
f 12 11 17
f 13 12 18
f 14 13 19
f 15 14 20
f 17 16 23
f 18 17 24
f 19 18 25
f 20 19 26
f 21 20 27
f 23 22 30
f 24 23 31
f 25 24 32
f 26 25 33
f 27 26 34
f 28 27 35
f 37 1 3
f 38 3 6
f 39 37 38
f 40 6 10
f 41 38 40
f 42 39 41
f 43 10 15
f 44 40 43
f 45 41 44
f 46 42 45
f 47 15 21
f 48 43 47
f 49 44 48
f 50 45 49
f 51 46 50
f 52 21 28
f 53 47 52
f 54 48 53
f 55 49 54
f 56 50 55
f 57 51 56
f 58 28 36
f 59 52 58
f 60 53 59
f 61 54 60
f 62 55 61
f 63 56 62
f 64 57 63
f 37 3 38
f 38 6 40
f 39 38 41
f 40 10 43
f 41 40 44
f 42 41 45
f 43 15 47
f 44 43 48
f 45 44 49
f 46 45 50
f 47 21 52
f 48 47 53
f 49 48 54
f 50 49 55
f 51 50 56
f 52 28 58
f 53 52 59
f 54 53 60
f 55 54 61
f 56 55 62
f 57 56 63
f 65 1 37
f 66 37 39
f 67 65 66
f 68 39 42
f 69 66 68
f 70 67 69
f 71 42 46
f 72 68 71
f 73 69 72
f 74 70 73
f 75 46 51
f 76 71 75
f 77 72 76
f 78 73 77
f 79 74 78
f 80 51 57
f 81 75 80
f 82 76 81
f 83 77 82
f 84 78 83
f 85 79 84
f 86 57 64
f 87 80 86
f 88 81 87
f 89 82 88
f 90 83 89
f 91 84 90
f 92 85 91
f 65 37 66
f 66 39 68
f 67 66 69
f 68 42 71
f 69 68 72
f 70 69 73
f 71 46 75
f 72 71 76
f 73 72 77
f 74 73 78
f 75 51 80
f 76 75 81
f 77 76 82
f 78 77 83
f 79 78 84
f 80 57 86
f 81 80 87
f 82 81 88
f 83 82 89
f 84 83 90
f 85 84 91
f 93 1 65
f 94 65 67
f 95 93 94
f 96 67 70
f 97 94 96
f 98 95 97
f 99 70 74
f 100 96 99
f 101 97 100
f 102 98 101
f 103 74 79
f 104 99 103
f 105 100 104
f 106 101 105
f 107 102 106
f 108 79 85
f 109 103 108
f 110 104 109
f 111 105 110
f 112 106 111
f 113 107 112
f 114 85 92
f 115 108 114
f 116 109 115
f 117 110 116
f 118 111 117
f 119 112 118
f 120 113 119
f 93 65 94
f 94 67 96
f 95 94 97
f 96 70 99
f 97 96 100
f 98 97 101
f 99 74 103
f 100 99 104
f 101 100 105
f 102 101 106
f 103 79 108
f 104 103 109
f 105 104 110
f 106 105 111
f 107 106 112
f 108 85 114
f 109 108 115
f 110 109 116
f 111 110 117
f 112 111 118
f 113 112 119
f 2 1 93
f 121 93 95
f 4 2 121
f 122 95 98
f 123 121 122
f 7 4 123
f 124 98 102
f 125 122 124
f 126 123 125
f 11 7 126
f 127 102 107
f 128 124 127
f 129 125 128
f 130 126 129
f 16 11 130
f 131 107 113
f 132 127 131
f 133 128 132
f 134 129 133
f 135 130 134
f 22 16 135
f 136 113 120
f 137 131 136
f 138 132 137
f 139 133 138
f 140 134 139
f 141 135 140
f 29 22 141
f 2 93 121
f 121 95 122
f 4 121 123
f 122 98 124
f 123 122 125
f 7 123 126
f 124 102 127
f 125 124 128
f 126 125 129
f 11 126 130
f 127 107 131
f 128 127 132
f 129 128 133
f 130 129 134
f 16 130 135
f 131 113 136
f 132 131 137
f 133 132 138
f 134 133 139
f 135 134 140
f 22 135 141
f 142 29 141
f 143 141 140
f 144 142 143
f 145 140 139
f 146 143 145
f 147 144 146
f 148 139 138
f 149 145 148
f 150 146 149
f 151 147 150
f 152 138 137
f 153 148 152
f 154 149 153
f 155 150 154
f 156 151 155
f 157 137 136
f 158 152 157
f 159 153 158
f 160 154 159
f 161 155 160
f 162 156 161
f 163 136 120
f 164 157 163
f 165 158 164
f 166 159 165
f 167 160 166
f 168 161 167
f 169 162 168
f 142 141 143
f 143 140 145
f 144 143 146
f 145 139 148
f 146 145 149
f 147 146 150
f 148 138 152
f 149 148 153
f 150 149 154
f 151 150 155
f 152 137 157
f 153 152 158
f 154 153 159
f 155 154 160
f 156 155 161
f 157 136 163
f 158 157 164
f 159 158 165
f 160 159 166
f 161 160 167
f 162 161 168
f 170 120 119
f 171 119 118
f 172 170 171
f 173 118 117
f 174 171 173
f 175 172 174
f 176 117 116
f 177 173 176
f 178 174 177
f 179 175 178
f 180 116 115
f 181 176 180
f 182 177 181
f 183 178 182
f 184 179 183
f 185 115 114
f 186 180 185
f 187 181 186
f 188 182 187
f 189 183 188
f 190 184 189
f 191 114 92
f 192 185 191
f 193 186 192
f 194 187 193
f 195 188 194
f 196 189 195
f 197 190 196
f 170 119 171
f 171 118 173
f 172 171 174
f 173 117 176
f 174 173 177
f 175 174 178
f 176 116 180
f 177 176 181
f 178 177 182
f 179 178 183
f 180 115 185
f 181 180 186
f 182 181 187
f 183 182 188
f 184 183 189
f 185 114 191
f 186 185 192
f 187 186 193
f 188 187 194
f 189 188 195
f 190 189 196
f 198 92 91
f 199 91 90
f 200 198 199
f 201 90 89
f 202 199 201
f 203 200 202
f 204 89 88
f 205 201 204
f 206 202 205
f 207 203 206
f 208 88 87
f 209 204 208
f 210 205 209
f 211 206 210
f 212 207 211
f 213 87 86
f 214 208 213
f 215 209 214
f 216 210 215
f 217 211 216
f 218 212 217
f 219 86 64
f 220 213 219
f 221 214 220
f 222 215 221
f 223 216 222
f 224 217 223
f 225 218 224
f 198 91 199
f 199 90 201
f 200 199 202
f 201 89 204
f 202 201 205
f 203 202 206
f 204 88 208
f 205 204 209
f 206 205 210
f 207 206 211
f 208 87 213
f 209 208 214
f 210 209 215
f 211 210 216
f 212 211 217
f 213 86 219
f 214 213 220
f 215 214 221
f 216 215 222
f 217 216 223
f 218 217 224
f 226 64 63
f 227 63 62
f 228 226 227
f 229 62 61
f 230 227 229
f 231 228 230
f 232 61 60
f 233 229 232
f 234 230 233
f 235 231 234
f 236 60 59
f 237 232 236
f 238 233 237
f 239 234 238
f 240 235 239
f 241 59 58
f 242 236 241
f 243 237 242
f 244 238 243
f 245 239 244
f 246 240 245
f 247 58 36
f 248 241 247
f 249 242 248
f 250 243 249
f 251 244 250
f 252 245 251
f 253 246 252
f 226 63 227
f 227 62 229
f 228 227 230
f 229 61 232
f 230 229 233
f 231 230 234
f 232 60 236
f 233 232 237
f 234 233 238
f 235 234 239
f 236 59 241
f 237 236 242
f 238 237 243
f 239 238 244
f 240 239 245
f 241 58 247
f 242 241 248
f 243 242 249
f 244 243 250
f 245 244 251
f 246 245 252
f 254 36 35
f 255 35 34
f 256 254 255
f 257 34 33
f 258 255 257
f 259 256 258
f 260 33 32
f 261 257 260
f 262 258 261
f 263 259 262
f 264 32 31
f 265 260 264
f 266 261 265
f 267 262 266
f 268 263 267
f 269 31 30
f 270 264 269
f 271 265 270
f 272 266 271
f 273 267 272
f 274 268 273
f 275 30 29
f 276 269 275
f 277 270 276
f 278 271 277
f 279 272 278
f 280 273 279
f 281 274 280
f 254 35 255
f 255 34 257
f 256 255 258
f 257 33 260
f 258 257 261
f 259 258 262
f 260 32 264
f 261 260 265
f 262 261 266
f 263 262 267
f 264 31 269
f 265 264 270
f 266 265 271
f 267 266 272
f 268 267 273
f 269 30 275
f 270 269 276
f 271 270 277
f 272 271 278
f 273 272 279
f 274 273 280
f 275 29 142
f 282 142 144
f 276 275 282
f 283 144 147
f 284 282 283
f 277 276 284
f 285 147 151
f 286 283 285
f 287 284 286
f 278 277 287
f 288 151 156
f 289 285 288
f 290 286 289
f 291 287 290
f 279 278 291
f 292 156 162
f 293 288 292
f 294 289 293
f 295 290 294
f 296 291 295
f 280 279 296
f 297 162 169
f 298 292 297
f 299 293 298
f 300 294 299
f 301 295 300
f 302 296 301
f 281 280 302
f 275 142 282
f 282 144 283
f 276 282 284
f 283 147 285
f 284 283 286
f 277 284 287
f 285 151 288
f 286 285 289
f 287 286 290
f 278 287 291
f 288 156 292
f 289 288 293
f 290 289 294
f 291 290 295
f 279 291 296
f 292 162 297
f 293 292 298
f 294 293 299
f 295 294 300
f 296 295 301
f 280 296 302
f 163 120 170
f 303 170 172
f 164 163 303
f 304 172 175
f 305 303 304
f 165 164 305
f 306 175 179
f 307 304 306
f 308 305 307
f 166 165 308
f 309 179 184
f 310 306 309
f 311 307 310
f 312 308 311
f 167 166 312
f 313 184 190
f 314 309 313
f 315 310 314
f 316 311 315
f 317 312 316
f 168 167 317
f 318 190 197
f 319 313 318
f 320 314 319
f 321 315 320
f 322 316 321
f 323 317 322
f 169 168 323
f 163 170 303
f 303 172 304
f 164 303 305
f 304 175 306
f 305 304 307
f 165 305 308
f 306 179 309
f 307 306 310
f 308 307 311
f 166 308 312
f 309 184 313
f 310 309 314
f 311 310 315
f 312 311 316
f 167 312 317
f 313 190 318
f 314 313 319
f 315 314 320
f 316 315 321
f 317 316 322
f 168 317 323
f 191 92 198
f 324 198 200
f 192 191 324
f 325 200 203
f 326 324 325
f 193 192 326
f 327 203 207
f 328 325 327
f 329 326 328
f 194 193 329
f 330 207 212
f 331 327 330
f 332 328 331
f 333 329 332
f 195 194 333
f 334 212 218
f 335 330 334
f 336 331 335
f 337 332 336
f 338 333 337
f 196 195 338
f 339 218 225
f 340 334 339
f 341 335 340
f 342 336 341
f 343 337 342
f 344 338 343
f 197 196 344
f 191 198 324
f 324 200 325
f 192 324 326
f 325 203 327
f 326 325 328
f 193 326 329
f 327 207 330
f 328 327 331
f 329 328 332
f 194 329 333
f 330 212 334
f 331 330 335
f 332 331 336
f 333 332 337
f 195 333 338
f 334 218 339
f 335 334 340
f 336 335 341
f 337 336 342
f 338 337 343
f 196 338 344
f 219 64 226
f 345 226 228
f 220 219 345
f 346 228 231
f 347 345 346
f 221 220 347
f 348 231 235
f 349 346 348
f 350 347 349
f 222 221 350
f 351 235 240
f 352 348 351
f 353 349 352
f 354 350 353
f 223 222 354
f 355 240 246
f 356 351 355
f 357 352 356
f 358 353 357
f 359 354 358
f 224 223 359
f 360 246 253
f 361 355 360
f 362 356 361
f 363 357 362
f 364 358 363
f 365 359 364
f 225 224 365
f 219 226 345
f 345 228 346
f 220 345 347
f 346 231 348
f 347 346 349
f 221 347 350
f 348 235 351
f 349 348 352
f 350 349 353
f 222 350 354
f 351 240 355
f 352 351 356
f 353 352 357
f 354 353 358
f 223 354 359
f 355 246 360
f 356 355 361
f 357 356 362
f 358 357 363
f 359 358 364
f 224 359 365
f 247 36 254
f 366 254 256
f 248 247 366
f 367 256 259
f 368 366 367
f 249 248 368
f 369 259 263
f 370 367 369
f 371 368 370
f 250 249 371
f 372 263 268
f 373 369 372
f 374 370 373
f 375 371 374
f 251 250 375
f 376 268 274
f 377 372 376
f 378 373 377
f 379 374 378
f 380 375 379
f 252 251 380
f 381 274 281
f 382 376 381
f 383 377 382
f 384 378 383
f 385 379 384
f 386 380 385
f 253 252 386
f 247 254 366
f 366 256 367
f 248 366 368
f 367 259 369
f 368 367 370
f 249 368 371
f 369 263 372
f 370 369 373
f 371 370 374
f 250 371 375
f 372 268 376
f 373 372 377
f 374 373 378
f 375 374 379
f 251 375 380
f 376 274 381
f 377 376 382
f 378 377 383
f 379 378 384
f 380 379 385
f 252 380 386
f 389 387 388
f 391 388 390
f 392 389 391
f 394 390 393
f 395 391 394
f 396 392 395
f 398 393 397
f 399 394 398
f 400 395 399
f 401 396 400
f 403 397 402
f 404 398 403
f 405 399 404
f 406 400 405
f 407 401 406
f 409 402 408
f 410 403 409
f 411 404 410
f 412 405 411
f 413 406 412
f 414 407 413
f 302 408 281
f 301 409 302
f 300 410 301
f 299 411 300
f 298 412 299
f 297 413 298
f 169 414 297
f 389 388 391
f 391 390 394
f 392 391 395
f 394 393 398
f 395 394 399
f 396 395 400
f 398 397 403
f 399 398 404
f 400 399 405
f 401 400 406
f 403 402 409
f 404 403 410
f 405 404 411
f 406 405 412
f 407 406 413
f 409 408 302
f 410 409 301
f 411 410 300
f 412 411 299
f 413 412 298
f 414 413 297
f 388 387 415
f 417 415 416
f 390 388 417
f 419 416 418
f 420 417 419
f 393 390 420
f 422 418 421
f 423 419 422
f 424 420 423
f 397 393 424
f 426 421 425
f 427 422 426
f 428 423 427
f 429 424 428
f 402 397 429
f 431 425 430
f 432 426 431
f 433 427 432
f 434 428 433
f 435 429 434
f 408 402 435
f 386 430 253
f 385 431 386
f 384 432 385
f 383 433 384
f 382 434 383
f 381 435 382
f 281 408 381
f 388 415 417
f 417 416 419
f 390 417 420
f 419 418 422
f 420 419 423
f 393 420 424
f 422 421 426
f 423 422 427
f 424 423 428
f 397 424 429
f 426 425 431
f 427 426 432
f 428 427 433
f 429 428 434
f 402 429 435
f 431 430 386
f 432 431 385
f 433 432 384
f 434 433 383
f 435 434 382
f 408 435 381
f 415 387 436
f 438 436 437
f 416 415 438
f 440 437 439
f 441 438 440
f 418 416 441
f 443 439 442
f 444 440 443
f 445 441 444
f 421 418 445
f 447 442 446
f 448 443 447
f 449 444 448
f 450 445 449
f 425 421 450
f 452 446 451
f 453 447 452
f 454 448 453
f 455 449 454
f 456 450 455
f 430 425 456
f 365 451 225
f 364 452 365
f 363 453 364
f 362 454 363
f 361 455 362
f 360 456 361
f 253 430 360
f 415 436 438
f 438 437 440
f 416 438 441
f 440 439 443
f 441 440 444
f 418 441 445
f 443 442 447
f 444 443 448
f 445 444 449
f 421 445 450
f 447 446 452
f 448 447 453
f 449 448 454
f 450 449 455
f 425 450 456
f 452 451 365
f 453 452 364
f 454 453 363
f 455 454 362
f 456 455 361
f 430 456 360
f 436 387 457
f 459 457 458
f 437 436 459
f 461 458 460
f 462 459 461
f 439 437 462
f 464 460 463
f 465 461 464
f 466 462 465
f 442 439 466
f 468 463 467
f 469 464 468
f 470 465 469
f 471 466 470
f 446 442 471
f 473 467 472
f 474 468 473
f 475 469 474
f 476 470 475
f 477 471 476
f 451 446 477
f 344 472 197
f 343 473 344
f 342 474 343
f 341 475 342
f 340 476 341
f 339 477 340
f 225 451 339
f 436 457 459
f 459 458 461
f 437 459 462
f 461 460 464
f 462 461 465
f 439 462 466
f 464 463 468
f 465 464 469
f 466 465 470
f 442 466 471
f 468 467 473
f 469 468 474
f 470 469 475
f 471 470 476
f 446 471 477
f 473 472 344
f 474 473 343
f 475 474 342
f 476 475 341
f 477 476 340
f 451 477 339
f 457 387 389
f 478 389 392
f 458 457 478
f 479 392 396
f 480 478 479
f 460 458 480
f 481 396 401
f 482 479 481
f 483 480 482
f 463 460 483
f 484 401 407
f 485 481 484
f 486 482 485
f 487 483 486
f 467 463 487
f 488 407 414
f 489 484 488
f 490 485 489
f 491 486 490
f 492 487 491
f 472 467 492
f 323 414 169
f 322 488 323
f 321 489 322
f 320 490 321
f 319 491 320
f 318 492 319
f 197 472 318
f 457 389 478
f 478 392 479
f 458 478 480
f 479 396 481
f 480 479 482
f 460 480 483
f 481 401 484
f 482 481 485
f 483 482 486
f 463 483 487
f 484 407 488
f 485 484 489
f 486 485 490
f 487 486 491
f 467 487 492
f 488 414 323
f 489 488 322
f 490 489 321
f 491 490 320
f 492 491 319
f 472 492 318
