# File exported by Houdini 20.5.445 (www.sidefx.com)
# 492 points
# 2940 vertices
# 980 primitives
# Bounds: [-140.317261, -95.814209, -1166.46729] to [311.091187, 212.191315, -588.333801]
g 
v 145.178284 122.684113 -1165.01331
v 146.916473 147.992218 -1160.86938
v 180.289154 129.927032 -1166.46729
v 146.541962 170.583282 -1150.46716
v 183.065765 154.425476 -1158.22339
v 213.052795 131.675903 -1159.70056
v 142.500061 189.274521 -1134.53882
v 181.460754 174.721863 -1143.65735
v 213.81723 153.735718 -1146.18457
v 241.894104 128.081314 -1144.34521
v 134.790283 202.629486 -1113.49622
v 174.670959 189.737488 -1123.97156
v 208.845184 170.281281 -1126.9668
v 238.74353 146.490097 -1125.30432
v 265.45874 120.820267 -1120.49573
v 125.196655 209.531769 -1087.31848
v 163.711121 198.494766 -1099.20984
v 198.574982 180.688797 -1102.7644
v 229.762512 158.434158 -1100.96423
v 258.013306 134.79538 -1095.66418
v 283.027954 110.928757 -1088.36292
v 116.286133 209.360535 -1055.59351
v 150.877228 200.18042 -1068.40332
v 184.474976 184.265991 -1072.71802
v 216.035248 163.625 -1070.89099
v 245.24884 141.503769 -1064.97925
v 271.860901 119.900635 -1057.02942
v 294.151672 97.6839447 -1048.4458
v 110.018707 202.358292 -1017.927
v 138.942169 194.433563 -1029.80542
v 169.010193 180.318695 -1034.35767
v 199.123566 161.479645 -1032.64624
v 228.378784 140.852753 -1026.2926
v 255.916138 120.922638 -1017.60254
v 280.189575 101.588257 -1009.13794
v 298.739502 81.3399506 -1001.81372
v 165.071442 102.512436 -1165.93091
v 202.566284 107.638962 -1165.38831
v 184.04071 83.0023193 -1160.43335
v 236.064575 107.163452 -1156.09814
v 221.983856 86.6264954 -1157.79199
v 200.524048 64.8226013 -1148.18823
v 264.449158 102.866501 -1137.90063
v 254.370056 84.8740082 -1145.90186
v 237.082581 66.7167358 -1142.96118
v 212.315948 47.6524963 -1128.63599
v 286.609558 96.1996307 -1110.40894
v 280.502991 80.4585571 -1124.36938
v 266.681641 64.157547 -1127.79736
v 246.19342 47.8118515 -1119.90845
v 218.500122 31.132349 -1102.09131
v 301.664917 85.7847137 -1073.07446
v 299.489075 72.512619 -1091.86646
v 288.999817 58.3086853 -1101.55054
v 271.805908 43.7463799 -1100.04626
v 248.66687 29.1632004 -1088.64771
v 219.303833 14.366806 -1070.4856
v 308.751221 70.6073303 -1025.51416
v 310.1073 58.8755875 -1046.65857
v 302.907593 46.4699936 -1061.3894
v 288.620544 33.7518845 -1066.38354
v 268.767578 20.9136581 -1061.78003
v 243.986938 8.43550873 -1050.34375
v 214.354614 -3.31733322 -1035.09619
v 122.55603 98.8163605 -1158.91284
v 142.993866 77.1394043 -1156.21021
v 101.333527 73.1138458 -1146.74219
v 160.890228 58.3527527 -1145.83826
v 121.745667 51.4083405 -1139.46704
v 80.15448 47.8562393 -1128.92505
v 174.792419 42.0966034 -1128.36133
v 137.532684 34.0707397 -1124.24207
v 99.1299133 26.9957924 -1117.16772
v 57.5371704 24.4477234 -1106.10742
v 183.382294 26.909277 -1104.40674
v 147.956268 19.3590603 -1102.76904
v 111.616577 10.7041969 -1098.42676
v 73.651886 4.23131943 -1091.18213
v 33.5492249 2.53066635 -1079.62329
v 186.858521 11.5809097 -1075.04089
v 152.968414 5.14381218 -1076.10156
v 118.048187 -3.53514099 -1074.38342
v 82.1477051 -11.895668 -1070.01172
v 45.8067017 -17.2624779 -1062.14624
v 9.48971558 -17.88731 -1049.81128
v 185.203217 -4.74499893 -1040.49304
v 153.166321 -9.63942337 -1043.62036
v 119.284149 -17.5331535 -1044.57385
v 84.6095886 -26.380497 -1042.68555
v 50.3117676 -33.6587181 -1037.58789
v 17.5479736 -37.2077827 -1028.76685
v -13.2526855 -36.1782951 -1016.47626
v 110.1091 127.612335 -1155.99438
v 83.8188477 100.498474 -1146.74731
v 73.979126 130.161392 -1140.6582
v 60.3231201 73.7536316 -1132.28687
v 45.4710083 101.66658 -1128.66382
v 37.427948 131.071808 -1119.57666
v 37.7618713 48.8210373 -1112.7865
v 20.5221863 75.1882019 -1112.18164
v 7.71194458 102.515472 -1105.41748
v 1.9079895 130.603683 -1093.80627
v 15.0212097 25.29533 -1088.24841
v -2.57791138 50.3011856 -1090.71411
v -17.8680115 76.0582886 -1086.91296
v -28.1835022 102.052261 -1077.854
v -30.7515259 128.223206 -1064.98291
v -7.59945679 2.21257019 -1058.8645
v -24.7310181 25.4788685 -1063.51208
v -41.0671082 49.9787827 -1062.7373
v -54.204361 74.6562195 -1056.85059
v -61.0303345 99.1629028 -1047.13135
v -58.8004456 123.477676 -1034.84814
v -29.5882568 -20.0346947 -1023.76733
v -46.3451385 0.122404099 -1029.07739
v -63.1891479 22.6185722 -1030.90698
v -78.0680084 46.125061 -1028.56006
v -87.6066895 69.9497375 -1022.65076
v -88.8160553 93.6394806 -1014.38287
v -80.6607819 116.568283 -1004.58813
v 109.095856 154.749771 -1148.8103
v 71.4683838 157.673447 -1129.98682
v 106.692383 177.247223 -1135.60828
v 35.0033264 157.603683 -1105.59314
v 68.341156 179.351593 -1113.55359
v 101.229828 195.426651 -1116.69897
v 0.938995361 155.315445 -1076.91748
v 32.9173279 177.834137 -1085.91907
v 63.8627014 195.736801 -1091.25391
v 94.375824 207.282623 -1092.42334
v -29.2955017 150.471191 -1045.35767
v 1.31784058 173.456543 -1053.65991
v 30.9787598 192.143616 -1059.34961
v 59.6685181 205.643112 -1062.48828
v 88.0172119 212.191315 -1062.0791
v -54.4371185 142.399033 -1011.95587
v -25.6376648 165.387985 -1017.53003
v 3.06686401 184.546646 -1021.22217
v 30.8571472 198.913437 -1023.9826
v 57.9609375 207.503983 -1025.62134
v 84.3803406 209.013977 -1024.34473
v 92.1781921 196.651749 -980.577148
v 64.7359924 200.836258 -983.865662
v 78.4337158 186.748932 -939.349121
v 37.236145 197.028961 -983.826477
v 50.1543884 188.125107 -942.769043
v 67.1320496 173.218201 -897.244446
v 9.08639526 186.865738 -983.028442
v 21.4674072 182.167542 -944.583374
v 37.9267578 171.792465 -903.674438
v 56.7290344 156.702728 -857.220703
v -19.9890137 171.193146 -982.944885
v -8.54083252 170.382843 -946.85199
v 7.537323 163.904999 -909.032654
v 25.9744873 152.905426 -867.842773
v 44.6736145 138.832062 -821.113403
v -50.1139526 150.312866 -982.253113
v -39.8116302 153.105576 -949.747925
v -24.8652039 150.588608 -914.394714
v -6.88174438 143.544052 -876.534363
v 11.6384888 133.233536 -835.28418
v 28.7923584 121.639297 -789.374512
v -80.0960693 124.561157 -978.755371
v -72.2961578 129.952911 -950.550354
v -59.0961914 131.564453 -918.649597
v -42.5685577 128.961487 -883.242737
v -24.4354248 122.911438 -845.217102
v -6.95480347 114.869614 -804.572327
v 8.61022949 106.670013 -761.399109
v -104.003677 94.8375092 -980.686646
v -111.770477 68.4558716 -987.911072
v -121.318924 74.0243835 -955.343872
v -108.417664 43.0175705 -992.836853
v -126.927612 45.8784332 -959.776367
v -132.533295 56.486496 -927.272888
v -96.7924347 18.9262428 -995.033081
v -121.271011 20.0306053 -961.290466
v -135.610016 28.0402851 -928.814453
v -138.442886 43.6932297 -895.892029
v -80.5936737 -3.78564835 -994.110962
v -108.282516 -3.63831711 -960.041138
v -128.31665 2.52891541 -927.108643
v -139.270309 15.8220615 -894.82782
v -140.317261 35.2648354 -861.853577
v -62.7735138 -24.9101906 -990.401062
v -91.4373474 -25.6045952 -956.472351
v -114.644592 -20.7656364 -922.936462
v -130.898087 -9.31858444 -890.387451
v -139.0914 8.17430115 -858.761536
v -139.298355 28.8302917 -827.151123
v -44.245575 -43.0569191 -984.864014
v -72.5308838 -45.6930199 -951.344788
v -97.0626526 -42.5443535 -917.42865
v -116.424667 -32.9025536 -884.094971
v -129.368744 -17.3060684 -852.35614
v -135.632355 1.88387489 -822.657227
v -135.853973 21.1026878 -794.501526
v -16.5387573 -53.3107796 -989.729492
v 16.1980591 -52.7418938 -1001.62653
v -18.2009888 -66.7274475 -962.971008
v 50.1194153 -47.2298698 -1009.16785
v 16.619812 -64.3995972 -974.715027
v -17.1858215 -76.9070435 -936.198181
v 84.8536377 -38.9271812 -1012.4895
v 51.5253601 -57.7304039 -981.088379
v 19.0550232 -73.718811 -947.223022
v -13.7284546 -84.7309723 -908.868591
v 119.77771 -30.4290733 -1011.77942
v 86.5546875 -49.685276 -982.134216
v 54.3317261 -67.2627869 -951.599243
v 22.7893677 -81.8029022 -918.10437
v -9.05322266 -90.4385986 -881.060242
v 154.203857 -24.1240654 -1007.98138
v 121.848236 -42.7814674 -978.148193
v 89.528595 -60.4357491 -949.40271
v 57.8858948 -76.1212616 -919.575928
v 26.8526917 -88.1152344 -887.482849
v -4.00125122 -93.7589264 -853.598022
v 187.530029 -21.3385506 -1002.41614
v 157.454529 -38.5993843 -971.049927
v 125.702759 -55.0945396 -941.678772
v 93.5780334 -70.2610474 -913.451172
v 61.9536743 -83.0329132 -884.939087
v 31.3256836 -91.8464203 -855.679626
v 2.06460571 -94.9341278 -826.585754
v 223.499695 -15.3647499 -1006.0752
v 253.682129 -4.53391266 -1017.80847
v 227.297363 -28.3590202 -973.281738
v 277.562744 6.99667358 -1024.17065
v 256.762817 -18.3375435 -981.403748
v 226.803772 -41.1810112 -937.146362
v 295.678528 18.9358978 -1022.32971
v 279.364685 -7.57845688 -982.51532
v 255.196045 -31.9428749 -941.379578
v 223.508423 -52.9405251 -898.173401
v 307.3927 31.1110039 -1010.86237
v 295.597229 4.0056572 -974.119263
v 276.332397 -21.6169853 -936.635498
v 250.645447 -44.2134895 -897.604309
v 218.436401 -62.8420219 -856.926453
v 311.091187 43.7428284 -990.931641
v 304.462341 16.6206818 -955.938477
v 290.350403 -9.62224197 -920.874268
v 269.869934 -33.5789223 -885.664734
v 243.686035 -53.9624443 -849.969177
v 211.897888 -70.2164154 -814.046936
v 304.988647 56.8952713 -966.277771
v 303.723328 31.1235924 -930.220764
v 295.527405 5.04527473 -895.046082
v 280.716492 -19.6046257 -861.247375
v 259.937866 -41.5067711 -829.245789
v 234.03125 -59.743 -799.145813
v 203.785278 -73.8620758 -771.029114
v 288.190979 76.60289 -955.388916
v 265.4104 97.4729004 -963.353821
v 273.417419 72.9526825 -908.465881
v 238.347412 116.531601 -973.34314
v 247.725708 94.5425568 -918.957886
v 256.501343 72.0179901 -862.987
v 209.720306 135.793961 -983.048523
v 219.496765 113.384018 -930.548096
v 229.214233 94.213623 -875.704224
v 239.189941 74.0632477 -819.701172
v 180.724976 155.476639 -989.24231
v 191.006348 131.897034 -939.980652
v 200.822845 112.711578 -887.184753
v 211.283234 96.3195953 -832.444946
v 222.093018 78.1780701 -778.197083
v 151.594208 173.197983 -989.973877
v 162.704865 150.23378 -944.315186
v 172.809204 130.198883 -893.996765
v 183.111755 114.130341 -840.789429
v 194.516693 99.5581055 -787.487305
v 204.976105 82.484726 -737.464905
v 122.519684 186.248474 -983.300659
v 134.230713 166.174438 -941.86377
v 144.889008 146.550308 -894.2276
v 155.333832 129.939758 -842.286804
v 166.624023 115.830093 -789.516602
v 177.905853 101.852768 -740.019348
v 186.735657 84.8603821 -697.430481
v 106.323212 179.013519 -939.286316
v 93.9654846 168.577972 -893.080505
v 118.614929 159.688919 -892.602295
v 83.6361389 155.25032 -847.429382
v 106.935059 150.484528 -842.571106
v 129.859467 142.185486 -840.948975
v 72.6005249 139.653503 -804.904724
v 96.3467407 138.416473 -794.067383
v 118.48819 134.443542 -788.015991
v 141.26947 127.107437 -786.397766
v 57.5101013 123.117081 -766.95813
v 82.7698975 123.834625 -749.299744
v 106.157898 123.019669 -737.214478
v 129.105957 119.609039 -731.54541
v 152.784637 112.773056 -732.545044
v 36.124115 107.078491 -734.181396
v 62.4109497 107.552872 -709.835022
v 87.9324341 107.673508 -690.807617
v 113.142548 106.458252 -679.452087
v 138.189087 102.760345 -677.252197
v 162.865784 95.7169647 -683.949768
v -101.722549 102.999832 -952.154968
v -116.601395 84.6087341 -924.648376
v -91.287674 109.099045 -921.827148
v -125.940353 70.581955 -894.423096
v -104.363464 92.8684082 -892.004639
v -76.3110199 111.630981 -887.968628
v -131.123138 60.5525818 -860.511658
v -113.349167 80.7705383 -858.628479
v -89.0431366 96.6321106 -854.903442
v -59.1889648 109.995728 -850.202026
v -133.318237 52.5437469 -823.622192
v -119.474152 71.1343689 -820.653809
v -98.8493195 84.9920044 -816.990356
v -72.1969604 95.7225494 -812.991943
v -40.9468079 105.150528 -808.870605
v -132.851425 43.2518005 -786.490234
v -122.850952 61.1199532 -779.533813
v -105.755661 74.433548 -773.749817
v -82.1739655 84.1082001 -769.248047
v -53.9713898 91.6285858 -766.055603
v -22.9725952 98.7124786 -763.292603
v -48.5392151 -60.387188 -953.395264
v -49.8827209 -72.5710602 -924.115173
v -75.7773438 -60.7166405 -916.986877
v -47.6965942 -80.9781952 -896.091614
v -75.4232025 -70.0935516 -886.394287
v -97.984436 -53.650692 -881.535034
v -42.9599152 -86.7556763 -868.43689
v -71.6639099 -76.134079 -857.665527
v -95.5234222 -60.0287743 -849.986206
v -114.655106 -39.9945793 -847.313599
v -36.9738159 -90.1447754 -841.199707
v -65.7605133 -79.927124 -829.687683
v -90.3102875 -64.1239624 -820.293274
v -110.261963 -44.0460854 -814.587708
v -125.382736 -21.4199104 -814.775269
v -29.359314 -91.6360016 -814.24292
v -57.9818878 -82.209549 -801.939331
v -82.8916626 -66.8849182 -791.148376
v -103.500046 -46.8998985 -783.399963
v -119.252853 -23.9501381 -780.397156
v -130.046051 -0.550796509 -783.922729
v 193.559753 -34.9072456 -968.658508
v 194.568268 -47.9044914 -933.102478
v 161.50296 -51.7824974 -934.690186
v 192.179749 -59.5001564 -895.718201
v 160.894562 -63.4630165 -897.769287
v 128.218018 -66.2947235 -904.050537
v 187.887634 -69.4280243 -856.25238
v 157.341797 -73.3777161 -859.251404
v 126.280731 -75.9197388 -865.987
v 94.4906311 -78.7613373 -875.131836
v 182.484192 -77.5079346 -814.456482
v 152.133942 -81.771286 -817.981689
v 121.450623 -84.2272491 -825.317627
v 90.8105774 -86.0443878 -835.326294
v 60.8091736 -88.8098297 -846.033691
v 175.898956 -82.9313965 -770.660095
v 145.831085 -88.3441162 -773.216919
v 114.749512 -91.2279816 -780.29248
v 83.9815674 -92.4941101 -791.178284
v 54.6991272 -93.5735321 -803.931641
v 27.397522 -94.672226 -816.192505
v 293.005554 50.5726624 -911.655212
v 277.856812 47.2541809 -859.859436
v 290.849243 24.462822 -871.274292
v 261.335022 47.8242493 -812.080688
v 275.426025 22.1787014 -817.584534
v 282.006409 -0.889148712 -834.656128
v 243.930176 51.7653351 -768.139709
v 258.307251 24.1756325 -769.136658
v 265.646851 -2.01594353 -780.768188
v 266.194458 -24.5178413 -801.569702
v 225.025757 57.4123306 -726.953552
v 238.836975 29.1797657 -724.930542
v 246.183777 0.682250977 -732.339478
v 247.472351 -25.1069832 -748.59021
v 243.280334 -45.7791634 -771.895081
v 203.348938 62.2559776 -686.772827
v 215.170135 34.9790649 -683.369934
v 221.555725 5.44690323 -687.924805
v 222.818726 -22.8551445 -700.694153
v 219.796722 -46.6909904 -720.672241
v 213.340515 -63.9606819 -745.315552
v 3.75762939 -25.7812767 -627.947144
v 32.263092 -17.8032074 -608.42218
v -5.36114502 -1.09786606 -616.270203
v 63.9685669 -5.27038956 -595.120544
v 26.3304749 9.53679276 -597.708374
v -10.9520264 23.8053818 -613.064575
v 97.5266113 12.1255188 -591.039001
v 60.3621826 24.4242477 -588.333801
v 23.6756897 35.5401459 -599.091553
v -12.5474854 46.8052673 -622.020752
v 129.752045 32.4376678 -598.859253
v 94.1401978 42.8522034 -590.633484
v 58.6633606 50.9545059 -596.377869
v 24.0499878 58.4732971 -614.74939
v -9.96655273 66.1359711 -644.306702
v 156.547852 52.9995193 -619.940857
v 124.285065 62.5056343 -606.771912
v 91.3934021 68.615509 -606.985291
v 58.9740906 73.1782532 -620.062256
v 27.3070374 77.2910919 -644.369385
v -4.21362305 81.4469147 -677.640686
v 175.49765 71.065506 -653.642517
v 147.578308 80.8877716 -637.916504
v 118.651093 86.5791168 -633.231873
v 89.5540771 89.6347809 -640.448669
v 60.7411194 91.3357239 -658.566223
v 32.0554199 92.6577454 -685.34729
v 2.74224854 94.0861206 -718.050842
v 31.9007874 -44.4251442 -631.102905
v 60.9945984 -59.3715706 -638.665833
v 64.6880798 -34.747509 -614.15918
v 90.485321 -70.6257172 -651.34314
v 96.3468628 -47.6433372 -626.581726
v 98.5116882 -19.7403145 -605.331543
v 119.987793 -78.2090149 -670.799316
v 127.016693 -57.539959 -645.177917
v 130.861755 -30.9298973 -623.548035
v 132.391205 -0.314865112 -606.91095
v 149.136414 -81.3972931 -697.502747
v 156.782806 -64.0807953 -670.49115
v 161.466187 -39.6033669 -648.036987
v 163.875488 -10.239502 -631.113708
v 163.015472 21.5385361 -620.682983
v 177.344788 -79.8757324 -731.159302
v 185.677765 -66.4572601 -703.622803
v 191.05661 -45.2804604 -679.53009
v 193.69635 -18.0825882 -661.495056
v 192.870575 12.4970951 -650.488403
v 187.242889 43.2518005 -647.290283
v -5.91445923 -43.6656609 -651.520264
v -14.1483459 -59.3735542 -675.823853
v 23.2768555 -63.1846809 -656.132568
v -19.8883667 -72.211731 -701.229553
v 16.1381836 -77.2258606 -682.044189
v 52.7576904 -76.9813538 -664.61969
v -21.5357971 -82.0348969 -729.297668
v 12.1422424 -86.8258209 -710.796265
v 46.8254089 -88.1938019 -693.207336
v 82.8399963 -85.8491516 -679.168213
v -18.1400146 -89.1253662 -759.920044
v 12.4221497 -92.6546936 -742.91803
v 44.5455322 -94.1990814 -725.698303
v 78.3586121 -93.6526642 -710.956787
v 113.474976 -90.1280212 -701.258667
v -9.86056519 -93.5159912 -792.536133
v 17.6316833 -95.187149 -778.169983
v 47.0056458 -95.814209 -762.580933
v 78.362915 -95.6137695 -747.974426
v 111.273926 -93.9440155 -737.068787
v 144.664154 -89.2144012 -731.528259
v -28.3812256 -16.0468941 -642.919678
v -56.9842682 -4.80827713 -660.817322
v -39.3627167 -34.1119804 -668.889893
v -81.8180695 6.52239609 -680.775208
v -67.4422302 -23.6382408 -686.760681
v -47.2674103 -50.2146416 -693.863403
v -102.816711 16.2309322 -703.142578
v -90.8594513 -13.6639061 -705.230835
v -73.8152466 -40.8704872 -711.191895
v -51.2596741 -64.0634766 -719.393616
v -119.284576 22.4708138 -729.102905
v -109.710739 -5.63453674 -725.899719
v -94.9171448 -32.6990852 -729.289795
v -75.1808624 -56.5037498 -737.017395
v -49.9116211 -75.7520447 -747.585144
v -129.875763 24.229538 -759.781616
v -122.751007 -0.85861969 -751.43042
v -110.213684 -26.757 -751.19342
v -92.6539612 -50.5753822 -756.905396
v -70.0573578 -70.5325165 -766.708923
v -42.4449463 -85.2017517 -779.004761
v -38.5211182 11.3068314 -634.53949
v -43.7603455 36.5824127 -636.990967
v -66.3764801 23.9879742 -656.798035
v -43.7914276 57.6264038 -652.938721
v -69.9060516 48.1539383 -665.526367
v -89.664917 35.0234604 -682.586487
v -39.2936859 73.9793396 -681.380371
v -68.1836243 66.6035309 -687.85498
v -91.5523376 56.8189774 -698.274841
v -108.938461 42.6645927 -712.270996
v -31.631546 86.6882172 -719.386597
v -62.3917542 80.1623688 -722.259399
v -88.6555328 72.3903809 -727.510864
v -109.476303 61.382061 -735.775391
v -123.577911 45.6151428 -746.697449
g 
f 3 1 2
f 5 2 4
f 6 3 5
f 8 4 7
f 9 5 8
f 10 6 9
f 12 7 11
f 13 8 12
f 14 9 13
f 15 10 14
f 17 11 16
f 18 12 17
f 19 13 18
f 20 14 19
f 21 15 20
f 23 16 22
f 24 17 23
f 25 18 24
f 26 19 25
f 27 20 26
f 28 21 27
f 30 22 29
f 31 23 30
f 32 24 31
f 33 25 32
f 34 26 33
f 35 27 34
f 36 28 35
f 3 2 5
f 5 4 8
f 6 5 9
f 8 7 12
f 9 8 13
f 10 9 14
f 12 11 17
f 13 12 18
f 14 13 19
f 15 14 20
f 17 16 23
f 18 17 24
f 19 18 25
f 20 19 26
f 21 20 27
f 23 22 30
f 24 23 31
f 25 24 32
f 26 25 33
f 27 26 34
f 28 27 35
f 37 1 3
f 38 3 6
f 39 37 38
f 40 6 10
f 41 38 40
f 42 39 41
f 43 10 15
f 44 40 43
f 45 41 44
f 46 42 45
f 47 15 21
f 48 43 47
f 49 44 48
f 50 45 49
f 51 46 50
f 52 21 28
f 53 47 52
f 54 48 53
f 55 49 54
f 56 50 55
f 57 51 56
f 58 28 36
f 59 52 58
f 60 53 59
f 61 54 60
f 62 55 61
f 63 56 62
f 64 57 63
f 37 3 38
f 38 6 40
f 39 38 41
f 40 10 43
f 41 40 44
f 42 41 45
f 43 15 47
f 44 43 48
f 45 44 49
f 46 45 50
f 47 21 52
f 48 47 53
f 49 48 54
f 50 49 55
f 51 50 56
f 52 28 58
f 53 52 59
f 54 53 60
f 55 54 61
f 56 55 62
f 57 56 63
f 65 1 37
f 66 37 39
f 67 65 66
f 68 39 42
f 69 66 68
f 70 67 69
f 71 42 46
f 72 68 71
f 73 69 72
f 74 70 73
f 75 46 51
f 76 71 75
f 77 72 76
f 78 73 77
f 79 74 78
f 80 51 57
f 81 75 80
f 82 76 81
f 83 77 82
f 84 78 83
f 85 79 84
f 86 57 64
f 87 80 86
f 88 81 87
f 89 82 88
f 90 83 89
f 91 84 90
f 92 85 91
f 65 37 66
f 66 39 68
f 67 66 69
f 68 42 71
f 69 68 72
f 70 69 73
f 71 46 75
f 72 71 76
f 73 72 77
f 74 73 78
f 75 51 80
f 76 75 81
f 77 76 82
f 78 77 83
f 79 78 84
f 80 57 86
f 81 80 87
f 82 81 88
f 83 82 89
f 84 83 90
f 85 84 91
f 93 1 65
f 94 65 67
f 95 93 94
f 96 67 70
f 97 94 96
f 98 95 97
f 99 70 74
f 100 96 99
f 101 97 100
f 102 98 101
f 103 74 79
f 104 99 103
f 105 100 104
f 106 101 105
f 107 102 106
f 108 79 85
f 109 103 108
f 110 104 109
f 111 105 110
f 112 106 111
f 113 107 112
f 114 85 92
f 115 108 114
f 116 109 115
f 117 110 116
f 118 111 117
f 119 112 118
f 120 113 119
f 93 65 94
f 94 67 96
f 95 94 97
f 96 70 99
f 97 96 100
f 98 97 101
f 99 74 103
f 100 99 104
f 101 100 105
f 102 101 106
f 103 79 108
f 104 103 109
f 105 104 110
f 106 105 111
f 107 106 112
f 108 85 114
f 109 108 115
f 110 109 116
f 111 110 117
f 112 111 118
f 113 112 119
f 2 1 93
f 121 93 95
f 4 2 121
f 122 95 98
f 123 121 122
f 7 4 123
f 124 98 102
f 125 122 124
f 126 123 125
f 11 7 126
f 127 102 107
f 128 124 127
f 129 125 128
f 130 126 129
f 16 11 130
f 131 107 113
f 132 127 131
f 133 128 132
f 134 129 133
f 135 130 134
f 22 16 135
f 136 113 120
f 137 131 136
f 138 132 137
f 139 133 138
f 140 134 139
f 141 135 140
f 29 22 141
f 2 93 121
f 121 95 122
f 4 121 123
f 122 98 124
f 123 122 125
f 7 123 126
f 124 102 127
f 125 124 128
f 126 125 129
f 11 126 130
f 127 107 131
f 128 127 132
f 129 128 133
f 130 129 134
f 16 130 135
f 131 113 136
f 132 131 137
f 133 132 138
f 134 133 139
f 135 134 140
f 22 135 141
f 142 29 141
f 143 141 140
f 144 142 143
f 145 140 139
f 146 143 145
f 147 144 146
f 148 139 138
f 149 145 148
f 150 146 149
f 151 147 150
f 152 138 137
f 153 148 152
f 154 149 153
f 155 150 154
f 156 151 155
f 157 137 136
f 158 152 157
f 159 153 158
f 160 154 159
f 161 155 160
f 162 156 161
f 163 136 120
f 164 157 163
f 165 158 164
f 166 159 165
f 167 160 166
f 168 161 167
f 169 162 168
f 142 141 143
f 143 140 145
f 144 143 146
f 145 139 148
f 146 145 149
f 147 146 150
f 148 138 152
f 149 148 153
f 150 149 154
f 151 150 155
f 152 137 157
f 153 152 158
f 154 153 159
f 155 154 160
f 156 155 161
f 157 136 163
f 158 157 164
f 159 158 165
f 160 159 166
f 161 160 167
f 162 161 168
f 170 120 119
f 171 119 118
f 172 170 171
f 173 118 117
f 174 171 173
f 175 172 174
f 176 117 116
f 177 173 176
f 178 174 177
f 179 175 178
f 180 116 115
f 181 176 180
f 182 177 181
f 183 178 182
f 184 179 183
f 185 115 114
f 186 180 185
f 187 181 186
f 188 182 187
f 189 183 188
f 190 184 189
f 191 114 92
f 192 185 191
f 193 186 192
f 194 187 193
f 195 188 194
f 196 189 195
f 197 190 196
f 170 119 171
f 171 118 173
f 172 171 174
f 173 117 176
f 174 173 177
f 175 174 178
f 176 116 180
f 177 176 181
f 178 177 182
f 179 178 183
f 180 115 185
f 181 180 186
f 182 181 187
f 183 182 188
f 184 183 189
f 185 114 191
f 186 185 192
f 187 186 193
f 188 187 194
f 189 188 195
f 190 189 196
f 198 92 91
f 199 91 90
f 200 198 199
f 201 90 89
f 202 199 201
f 203 200 202
f 204 89 88
f 205 201 204
f 206 202 205
f 207 203 206
f 208 88 87
f 209 204 208
f 210 205 209
f 211 206 210
f 212 207 211
f 213 87 86
f 214 208 213
f 215 209 214
f 216 210 215
f 217 211 216
f 218 212 217
f 219 86 64
f 220 213 219
f 221 214 220
f 222 215 221
f 223 216 222
f 224 217 223
f 225 218 224
f 198 91 199
f 199 90 201
f 200 199 202
f 201 89 204
f 202 201 205
f 203 202 206
f 204 88 208
f 205 204 209
f 206 205 210
f 207 206 211
f 208 87 213
f 209 208 214
f 210 209 215
f 211 210 216
f 212 211 217
f 213 86 219
f 214 213 220
f 215 214 221
f 216 215 222
f 217 216 223
f 218 217 224
f 226 64 63
f 227 63 62
f 228 226 227
f 229 62 61
f 230 227 229
f 231 228 230
f 232 61 60
f 233 229 232
f 234 230 233
f 235 231 234
f 236 60 59
f 237 232 236
f 238 233 237
f 239 234 238
f 240 235 239
f 241 59 58
f 242 236 241
f 243 237 242
f 244 238 243
f 245 239 244
f 246 240 245
f 247 58 36
f 248 241 247
f 249 242 248
f 250 243 249
f 251 244 250
f 252 245 251
f 253 246 252
f 226 63 227
f 227 62 229
f 228 227 230
f 229 61 232
f 230 229 233
f 231 230 234
f 232 60 236
f 233 232 237
f 234 233 238
f 235 234 239
f 236 59 241
f 237 236 242
f 238 237 243
f 239 238 244
f 240 239 245
f 241 58 247
f 242 241 248
f 243 242 249
f 244 243 250
f 245 244 251
f 246 245 252
f 254 36 35
f 255 35 34
f 256 254 255
f 257 34 33
f 258 255 257
f 259 256 258
f 260 33 32
f 261 257 260
f 262 258 261
f 263 259 262
f 264 32 31
f 265 260 264
f 266 261 265
f 267 262 266
f 268 263 267
f 269 31 30
f 270 264 269
f 271 265 270
f 272 266 271
f 273 267 272
f 274 268 273
f 275 30 29
f 276 269 275
f 277 270 276
f 278 271 277
f 279 272 278
f 280 273 279
f 281 274 280
f 254 35 255
f 255 34 257
f 256 255 258
f 257 33 260
f 258 257 261
f 259 258 262
f 260 32 264
f 261 260 265
f 262 261 266
f 263 262 267
f 264 31 269
f 265 264 270
f 266 265 271
f 267 266 272
f 268 267 273
f 269 30 275
f 270 269 276
f 271 270 277
f 272 271 278
f 273 272 279
f 274 273 280
f 275 29 142
f 282 142 144
f 276 275 282
f 283 144 147
f 284 282 283
f 277 276 284
f 285 147 151
f 286 283 285
f 287 284 286
f 278 277 287
f 288 151 156
f 289 285 288
f 290 286 289
f 291 287 290
f 279 278 291
f 292 156 162
f 293 288 292
f 294 289 293
f 295 290 294
f 296 291 295
f 280 279 296
f 297 162 169
f 298 292 297
f 299 293 298
f 300 294 299
f 301 295 300
f 302 296 301
f 281 280 302
f 275 142 282
f 282 144 283
f 276 282 284
f 283 147 285
f 284 283 286
f 277 284 287
f 285 151 288
f 286 285 289
f 287 286 290
f 278 287 291
f 288 156 292
f 289 288 293
f 290 289 294
f 291 290 295
f 279 291 296
f 292 162 297
f 293 292 298
f 294 293 299
f 295 294 300
f 296 295 301
f 280 296 302
f 163 120 170
f 303 170 172
f 164 163 303
f 304 172 175
f 305 303 304
f 165 164 305
f 306 175 179
f 307 304 306
f 308 305 307
f 166 165 308
f 309 179 184
f 310 306 309
f 311 307 310
f 312 308 311
f 167 166 312
f 313 184 190
f 314 309 313
f 315 310 314
f 316 311 315
f 317 312 316
f 168 167 317
f 318 190 197
f 319 313 318
f 320 314 319
f 321 315 320
f 322 316 321
f 323 317 322
f 169 168 323
f 163 170 303
f 303 172 304
f 164 303 305
f 304 175 306
f 305 304 307
f 165 305 308
f 306 179 309
f 307 306 310
f 308 307 311
f 166 308 312
f 309 184 313
f 310 309 314
f 311 310 315
f 312 311 316
f 167 312 317
f 313 190 318
f 314 313 319
f 315 314 320
f 316 315 321
f 317 316 322
f 168 317 323
f 191 92 198
f 324 198 200
f 192 191 324
f 325 200 203
f 326 324 325
f 193 192 326
f 327 203 207
f 328 325 327
f 329 326 328
f 194 193 329
f 330 207 212
f 331 327 330
f 332 328 331
f 333 329 332
f 195 194 333
f 334 212 218
f 335 330 334
f 336 331 335
f 337 332 336
f 338 333 337
f 196 195 338
f 339 218 225
f 340 334 339
f 341 335 340
f 342 336 341
f 343 337 342
f 344 338 343
f 197 196 344
f 191 198 324
f 324 200 325
f 192 324 326
f 325 203 327
f 326 325 328
f 193 326 329
f 327 207 330
f 328 327 331
f 329 328 332
f 194 329 333
f 330 212 334
f 331 330 335
f 332 331 336
f 333 332 337
f 195 333 338
f 334 218 339
f 335 334 340
f 336 335 341
f 337 336 342
f 338 337 343
f 196 338 344
f 219 64 226
f 345 226 228
f 220 219 345
f 346 228 231
f 347 345 346
f 221 220 347
f 348 231 235
f 349 346 348
f 350 347 349
f 222 221 350
f 351 235 240
f 352 348 351
f 353 349 352
f 354 350 353
f 223 222 354
f 355 240 246
f 356 351 355
f 357 352 356
f 358 353 357
f 359 354 358
f 224 223 359
f 360 246 253
f 361 355 360
f 362 356 361
f 363 357 362
f 364 358 363
f 365 359 364
f 225 224 365
f 219 226 345
f 345 228 346
f 220 345 347
f 346 231 348
f 347 346 349
f 221 347 350
f 348 235 351
f 349 348 352
f 350 349 353
f 222 350 354
f 351 240 355
f 352 351 356
f 353 352 357
f 354 353 358
f 223 354 359
f 355 246 360
f 356 355 361
f 357 356 362
f 358 357 363
f 359 358 364
f 224 359 365
f 247 36 254
f 366 254 256
f 248 247 366
f 367 256 259
f 368 366 367
f 249 248 368
f 369 259 263
f 370 367 369
f 371 368 370
f 250 249 371
f 372 263 268
f 373 369 372
f 374 370 373
f 375 371 374
f 251 250 375
f 376 268 274
f 377 372 376
f 378 373 377
f 379 374 378
f 380 375 379
f 252 251 380
f 381 274 281
f 382 376 381
f 383 377 382
f 384 378 383
f 385 379 384
f 386 380 385
f 253 252 386
f 247 254 366
f 366 256 367
f 248 366 368
f 367 259 369
f 368 367 370
f 249 368 371
f 369 263 372
f 370 369 373
f 371 370 374
f 250 371 375
f 372 268 376
f 373 372 377
f 374 373 378
f 375 374 379
f 251 375 380
f 376 274 381
f 377 376 382
f 378 377 383
f 379 378 384
f 380 379 385
f 252 380 386
f 389 387 388
f 391 388 390
f 392 389 391
f 394 390 393
f 395 391 394
f 396 392 395
f 398 393 397
f 399 394 398
f 400 395 399
f 401 396 400
f 403 397 402
f 404 398 403
f 405 399 404
f 406 400 405
f 407 401 406
f 409 402 408
f 410 403 409
f 411 404 410
f 412 405 411
f 413 406 412
f 414 407 413
f 302 408 281
f 301 409 302
f 300 410 301
f 299 411 300
f 298 412 299
f 297 413 298
f 169 414 297
f 389 388 391
f 391 390 394
f 392 391 395
f 394 393 398
f 395 394 399
f 396 395 400
f 398 397 403
f 399 398 404
f 400 399 405
f 401 400 406
f 403 402 409
f 404 403 410
f 405 404 411
f 406 405 412
f 407 406 413
f 409 408 302
f 410 409 301
f 411 410 300
f 412 411 299
f 413 412 298
f 414 413 297
f 388 387 415
f 417 415 416
f 390 388 417
f 419 416 418
f 420 417 419
f 393 390 420
f 422 418 421
f 423 419 422
f 424 420 423
f 397 393 424
f 426 421 425
f 427 422 426
f 428 423 427
f 429 424 428
f 402 397 429
f 431 425 430
f 432 426 431
f 433 427 432
f 434 428 433
f 435 429 434
f 408 402 435
f 386 430 253
f 385 431 386
f 384 432 385
f 383 433 384
f 382 434 383
f 381 435 382
f 281 408 381
f 388 415 417
f 417 416 419
f 390 417 420
f 419 418 422
f 420 419 423
f 393 420 424
f 422 421 426
f 423 422 427
f 424 423 428
f 397 424 429
f 426 425 431
f 427 426 432
f 428 427 433
f 429 428 434
f 402 429 435
f 431 430 386
f 432 431 385
f 433 432 384
f 434 433 383
f 435 434 382
f 408 435 381
f 415 387 436
f 438 436 437
f 416 415 438
f 440 437 439
f 441 438 440
f 418 416 441
f 443 439 442
f 444 440 443
f 445 441 444
f 421 418 445
f 447 442 446
f 448 443 447
f 449 444 448
f 450 445 449
f 425 421 450
f 452 446 451
f 453 447 452
f 454 448 453
f 455 449 454
f 456 450 455
f 430 425 456
f 365 451 225
f 364 452 365
f 363 453 364
f 362 454 363
f 361 455 362
f 360 456 361
f 253 430 360
f 415 436 438
f 438 437 440
f 416 438 441
f 440 439 443
f 441 440 444
f 418 441 445
f 443 442 447
f 444 443 448
f 445 444 449
f 421 445 450
f 447 446 452
f 448 447 453
f 449 448 454
f 450 449 455
f 425 450 456
f 452 451 365
f 453 452 364
f 454 453 363
f 455 454 362
f 456 455 361
f 430 456 360
f 436 387 457
f 459 457 458
f 437 436 459
f 461 458 460
f 462 459 461
f 439 437 462
f 464 460 463
f 465 461 464
f 466 462 465
f 442 439 466
f 468 463 467
f 469 464 468
f 470 465 469
f 471 466 470
f 446 442 471
f 473 467 472
f 474 468 473
f 475 469 474
f 476 470 475
f 477 471 476
f 451 446 477
f 344 472 197
f 343 473 344
f 342 474 343
f 341 475 342
f 340 476 341
f 339 477 340
f 225 451 339
f 436 457 459
f 459 458 461
f 437 459 462
f 461 460 464
f 462 461 465
f 439 462 466
f 464 463 468
f 465 464 469
f 466 465 470
f 442 466 471
f 468 467 473
f 469 468 474
f 470 469 475
f 471 470 476
f 446 471 477
f 473 472 344
f 474 473 343
f 475 474 342
f 476 475 341
f 477 476 340
f 451 477 339
f 457 387 389
f 478 389 392
f 458 457 478
f 479 392 396
f 480 478 479
f 460 458 480
f 481 396 401
f 482 479 481
f 483 480 482
f 463 460 483
f 484 401 407
f 485 481 484
f 486 482 485
f 487 483 486
f 467 463 487
f 488 407 414
f 489 484 488
f 490 485 489
f 491 486 490
f 492 487 491
f 472 467 492
f 323 414 169
f 322 488 323
f 321 489 322
f 320 490 321
f 319 491 320
f 318 492 319
f 197 472 318
f 457 389 478
f 478 392 479
f 458 478 480
f 479 396 481
f 480 479 482
f 460 480 483
f 481 401 484
f 482 481 485
f 483 482 486
f 463 483 487
f 484 407 488
f 485 484 489
f 486 485 490
f 487 486 491
f 467 487 492
f 488 414 323
f 489 488 322
f 490 489 321
f 491 490 320
f 492 491 319
f 472 492 318
