# File exported by Houdini 20.5.445 (www.sidefx.com)
# 492 points
# 2940 vertices
# 980 primitives
# Bounds: [-111.051575, -147.161987, -1099.77905] to [281.82547, 263.539093, -655.022095]
g 
v 189.746307 81.492569 -1063.00684
v 192.298309 99.3702164 -1055.41675
v 218.898956 80.7356415 -1041.97241
v 187.908661 117.892395 -1045.5127
v 221.378754 100.414543 -1031.31567
v 242.528412 81.7008286 -1016.38654
v 179.236542 136.770691 -1032.61084
v 217.145905 119.656158 -1019.2558
v 244.039093 102.83609 -1003.99921
v 260.3909 84.9608383 -986.937439
v 168.784454 156.048477 -1015.67096
v 209.06192 138.751556 -1004.43182
v 239.466827 122.759346 -990.339417
v 261.053436 107.067726 -973.841492
v 272.560822 90.5000916 -954.899353
v 158.246185 175.742218 -993.837341
v 198.957062 158.251221 -985.365417
v 231.324127 142.494659 -973.450134
v 255.953766 127.889969 -958.586853
v 272.608551 113.668648 -941.252686
v 279.432465 98.3536606 -922.300903
v 147.942413 195.304932 -966.584045
v 187.479462 178.448761 -960.798035
v 220.653229 163.014923 -951.417419
v 247.299652 149.099503 -939.068726
v 267.294037 136.351898 -924.585327
v 279.320892 123.470642 -908.353271
v 281.82547 108.411499 -892.028076
v 137.185028 213.115448 -933.518066
v 174.411407 198.732941 -928.801514
v 207.271454 184.729797 -921.869751
v 235.244476 172.242706 -912.845947
v 257.563934 160.653137 -901.915649
v 273.106232 148.878754 -889.512085
v 280.373688 135.381729 -876.605591
v 279.197845 118.717796 -864.952393
v 199.108307 63.2776108 -1057.6438
v 228.532867 61.9935989 -1031.77002
v 201.597748 45.7169571 -1050.17212
v 250.274323 63.3068237 -1001.47552
v 229.733307 45.1585693 -1018.8194
v 198.713898 28.6369419 -1040.47241
v 264.828217 67.470047 -968.365662
v 249.094818 46.9917526 -984.390076
v 224.854889 28.8740425 -1004.35687
v 192.334259 10.7845383 -1029.76318
v 272.949554 74.2034454 -934.118896
v 260.727448 51.5192413 -948.806763
v 241.85611 30.6106701 -967.147644
v 215.919403 11.1260834 -990.56134
v 184.16037 -9.05086899 -1018.98602
v 276.122406 83.272934 -901.083984
v 265.658478 58.7193222 -913.436768
v 250.847748 34.5863342 -930.288452
v 230.345673 11.8373833 -952.028381
v 204.400299 -9.56993866 -978.615417
v 175.069 -30.9844551 -1007.95258
v 274.772675 93.8658676 -871.065308
v 265.51944 68.0177689 -880.369873
v 252.737518 41.0165482 -894.67688
v 236.277679 14.0618401 -914.720337
v 215.395721 -10.9310074 -939.817993
v 190.852142 -33.322319 -967.841248
v 165.031525 -53.6386185 -995.304504
v 163.326385 71.5511093 -1076.95752
v 168.377838 50.9832611 -1073.57544
v 133.086884 60.6182022 -1086.90381
v 167.662689 30.9298725 -1068.75879
v 136.378754 36.7274857 -1085.09424
v 102.587067 46.6773453 -1092.45483
v 163.719147 10.7411194 -1062.24219
v 135.586884 12.8227615 -1082.5752
v 106.958588 18.1105843 -1091.80566
v 75.3444214 28.191267 -1093.61011
v 158.469391 -10.7512741 -1053.9541
v 133.360504 -11.6590309 -1077.86377
v 108.521637 -10.6333237 -1090.45825
v 82.5818787 -5.70995331 -1093.37622
v 53.275116 5.00812721 -1090.72266
v 152.701202 -34.2214355 -1043.11597
v 130.751801 -37.4553757 -1069.43433
v 109.247528 -39.9631348 -1085.34033
v 87.2596741 -39.6355972 -1091.30029
v 63.3298035 -34.0960312 -1090.07373
v 36.4880066 -22.5630951 -1084.7583
v 145.904999 -59.0337219 -1027.89111
v 127.111542 -64.5111923 -1054.63672
v 108.764984 -70.0458984 -1073.06079
v 89.9659729 -73.699707 -1082.68237
v 69.6419373 -72.7738342 -1084.50293
v 47.361145 -65.3188553 -1080.7395
v 23.3474731 -51.483139 -1073.46069
v 159.170929 93.6895447 -1075.46216
v 128.77829 83.7677078 -1087.57227
v 123.190826 105.644936 -1084.8811
v 96.4772339 72.6514053 -1094.29565
v 90.5093079 94.8953018 -1095.31958
v 83.3974609 116.829391 -1091.54565
v 66.0753174 58.2121201 -1095.69141
v 57.9732056 82.8123016 -1098.93091
v 50.5089722 104.643845 -1099.76929
v 43.0895081 127.186737 -1093.73853
v 40.2332764 38.9107971 -1092.67139
v 29.0148315 67.2487946 -1096.37402
v 19.4687805 91.2717819 -1099.77905
v 11.7601318 113.493835 -1098.89551
v 5.96020508 136.995865 -1089.35181
v 20.3446655 13.7202959 -1085.48389
v 5.67376709 45.9339905 -1088.27393
v -6.81369019 73.6831131 -1092.1604
v -16.4721069 98.2282639 -1094.06274
v -22.6381226 121.638405 -1090.09497
v -25.660675 145.945709 -1076.85986
v 5.83203125 -16.5894661 -1073.27515
v -11.5228882 17.7964935 -1074.19043
v -27.1311951 49.4903564 -1076.81543
v -39.5043945 78.0363541 -1079.3562
v -47.467804 104.245499 -1078.63525
v -50.7855225 129.318375 -1071.50098
v -51.1869507 153.823318 -1056.20093
v 155.920197 113.535614 -1067.85132
v 115.448395 126.976715 -1075.94067
v 146.459015 133.539276 -1056.46167
v 73.4589844 139.624664 -1079.854
v 103.352203 148.549759 -1061.6189
v 134.750885 153.8853 -1040.83984
v 33.1210327 151.568375 -1077.89502
v 60.985199 162.95285 -1061.23486
v 90.8998413 170.805511 -1041.85449
v 123.461029 174.817596 -1020.01788
v -3.53665161 162.614777 -1068.12256
v 20.7377319 176.289429 -1053.68433
v 48.2198486 186.764343 -1035.81787
v 79.3384705 193.342743 -1015.58868
v 113.269012 195.806641 -992.957825
v -35.1714783 172.359955 -1048.76514
v -15.8808289 188.546844 -1036.23022
v 7.64373779 201.700867 -1020.09552
v 36.0588074 210.832886 -1001.41449
v 68.7417297 215.280212 -980.90094
v 103.461823 215.534637 -958.387024
v 104.8862 230.532013 -912.001831
v 65.9104919 232.939606 -936.969849
v 71.5223083 244.972229 -887.730957
v 29.5303955 231.629974 -958.893372
v 30.7378845 246.215088 -912.361938
v 39.3049316 255.897217 -861.653198
v -1.61764526 224.82547 -978.758362
v -4.20532227 242.629211 -933.906738
v -0.816925049 254.974121 -885.954224
v 9.94143677 262.155029 -835.366943
v -26.967041 212.429169 -996.909485
v -32.3623657 232.607849 -953.681946
v -33.2055054 248.204102 -907.635498
v -28.3496704 258.721649 -859.71228
v -16.1900024 263.309448 -811.00354
v -47.1330872 195.176056 -1012.77948
v -54.6950378 216.346405 -972.032043
v -58.9147644 234.67041 -928.036865
v -58.8237305 248.847321 -882.172241
v -52.1060181 257.529907 -835.85022
v -38.3621826 259.057434 -790.52356
v -63.2060242 173.832916 -1025.34448
v -72.559082 194.284912 -988.36322
v -79.5608215 214.032196 -947.373779
v -82.9787598 231.130341 -903.919067
v -80.1781006 243.662079 -859.597534
v -70.1756287 249.990845 -816.112183
v -54.3163147 248.640045 -774.874023
v -71.1906433 144.614746 -1041.01514
v -70.2322998 114.877876 -1053.55811
v -86.1172791 132.714752 -1021.20929
v -65.0542297 84.7008286 -1057.88477
v -83.1741333 97.5873337 -1031.16357
v -97.2668762 118.855247 -998.718689
v -54.2825928 53.206459 -1057.52686
v -75.2915955 62.3466263 -1033.93677
v -92.16922 78.693634 -1006.77972
v -104.973969 103.109352 -975.112488
v -38.7700806 19.2074165 -1055.9895
v -61.817688 25.6705132 -1033.87988
v -81.7948914 38.4662628 -1009.05365
v -98.0966492 58.5919113 -981.971863
v -108.039886 85.3833542 -951.322449
v -19.9770508 -17.7892303 -1055.67578
v -43.9172363 -13.815712 -1034.07031
v -66.3025208 -3.54708862 -1009.97321
v -85.6737671 13.9418077 -984.431458
v -99.2502747 38.03965 -957.439026
v -104.36087 66.4360733 -927.773438
v 0.427429199 -56.6687851 -1056.79175
v -22.8534851 -56.0091705 -1035.57617
v -46.2410583 -48.0163803 -1011.51471
v -68.0001526 -32.287529 -985.923889
v -84.8563843 -9.60976028 -959.526062
v -94.1341248 17.6273613 -932.393921
v -95.3408813 46.510994 -904.167358
v 25.8215027 -88.4881134 -1062.60449
v 50.0729065 -101.797249 -1069.09131
v 26.6896973 -118.222893 -1046.16162
v 71.2087402 -105.487785 -1070.18628
v 50.4113464 -127.616753 -1050.02051
v 25.2961731 -137.06308 -1022.97418
v 89.7134705 -102.14164 -1064.38525
v 70.1716309 -126.676125 -1047.29932
v 48.0293274 -141.910126 -1023.27155
v 21.790802 -145.629272 -993.424866
v 106.82608 -94.9325943 -1050.70972
v 87.3998108 -119.754417 -1037.3479
v 66.7540894 -137.564331 -1016.5473
v 43.6712036 -147.161987 -989.95636
v 17.3916931 -146.856598 -958.987366
v 124.090179 -86.7774277 -1028.9314
v 104.080963 -110.391914 -1019.68158
v 83.9085999 -128.838806 -1002.50006
v 62.3599548 -141.312378 -979.211487
v 39.0751038 -146.535522 -951.666809
v 14.2005005 -143.751831 -921.7948
v 143.066681 -78.7442398 -999.002014
v 122.25705 -100.851372 -993.9422
v 102.10733 -118.82766 -980.359558
v 81.2236328 -132.31073 -960.439636
v 59.4278564 -140.284912 -936.282349
v 37.0116577 -142.362427 -910.198608
v 14.8757019 -138.354645 -884.371704
v 168.974579 -62.4954987 -964.899109
v 195.134552 -38.7512512 -934.964111
v 170.657684 -67.9853287 -934.314697
v 217.547394 -11.3376808 -906.396484
v 195.848663 -39.6987686 -904.533081
v 170.69632 -68.9918518 -903.849854
v 235.751007 19.104044 -882.330811
v 216.156769 -7.25592804 -877.533203
v 194.030121 -36.0968323 -876.260376
v 169.73465 -64.3300705 -873.886597
v 250.444489 50.4698715 -864.10791
v 232.337799 27.3907967 -855.422974
v 212.0867 0.501464844 -851.637573
v 190.038727 -27.2642555 -849.576294
v 167.612885 -53.0024185 -844.782715
v 262.137299 80.9960938 -851.942993
v 245.413177 62.1910629 -839.214233
v 226.108978 38.474968 -831.709106
v 205.179352 12.3786659 -827.373535
v 183.822296 -13.0934296 -823.342651
v 163.838226 -36.2086029 -816.261841
v 269.582184 110.579163 -844.360474
v 254.732819 96.5432587 -827.984375
v 236.350067 76.7252045 -816.164062
v 216.016876 53.0514603 -808.154541
v 195.065155 28.5370407 -802.334595
v 175.614594 5.29899597 -796.327881
v 158.650116 -16.2532234 -788.589355
v 273.929657 138.783112 -845.960205
v 272.251862 158.071381 -855.783203
v 262.879547 156.432877 -826.346924
v 261.520844 172.555023 -865.697632
v 258.27005 177.3479 -833.670288
v 246.558868 170.854492 -805.04541
v 243.009674 184.00946 -874.111938
v 244.726532 192.060425 -839.500366
v 239.287018 192.542969 -808.530029
v 225.850616 181.877258 -781.237671
v 218.031342 194.687469 -881.336426
v 223.636749 203.48465 -844.224854
v 223.193207 207.902252 -810.717773
v 215.734283 204.29071 -781.208252
v 200.91214 189.810608 -756.230347
v 186.813141 206.665192 -887.883057
v 195.194 214.586365 -848.85376
v 198.785797 220.519531 -813.027466
v 196.311798 221.097137 -781.101562
v 186.845612 212.703674 -754.027954
v 171.401398 194.437103 -732.416016
v 149.09671 220.683289 -894.099976
v 158.489838 227.632751 -854.014526
v 164.793732 233.536011 -816.057739
v 166.495758 235.859375 -781.833496
v 162.059967 230.979828 -752.503906
v 151.926727 217.02478 -728.967529
v 139.226105 196.071014 -711.237427
v 115.849823 238.739166 -866.953979
v 82.7105408 252.507446 -839.70459
v 124.444366 245.082581 -824.326416
v 51.3205566 261.195251 -812.847046
v 91.1963806 256.609772 -796.530518
v 129.658295 248.425781 -785.942505
v 22.2096558 263.539093 -787.406982
v 59.3334045 260.811249 -770.280151
v 95.0786133 254.92804 -758.64502
v 129.415497 245.114288 -752.626709
v -4.79125977 259.416595 -764.732666
v 28.8081665 256.687286 -745.904541
v 61.4867249 251.629272 -733.127808
v 93.0577087 243.769196 -726.235474
v 123.273712 232.108337 -724.933472
v -27.3800354 248.632019 -746.214722
v 1.20022583 244.91333 -724.256592
v 30.179657 238.772919 -709.313232
v 58.8796387 231.072662 -701.314453
v 86.8011475 221.551636 -699.554565
v 113.742523 209.834473 -703.016479
v -83.0854187 165.887024 -1005.93597
v -97.6034546 155.907608 -984.322205
v -92.5702209 187.1026 -966.606384
v -107.176025 143.662109 -961.774719
v -105.539337 177.561523 -944.57019
v -98.6018372 206.603363 -924.63623
v -111.051575 128.317841 -938.606201
v -110.861603 164.778076 -922.191528
v -107.480286 195.944611 -902.232788
v -98.3189392 222.491089 -880.737061
v -107.869537 109.534142 -914.721924
v -108.19632 147.534973 -898.73999
v -106.558624 180.692139 -879.042114
v -101.281097 209.350342 -857.26123
v -90.0250549 232.821014 -835.531616
v -97.6939697 87.2074509 -889.635742
v -97.3447876 125.176788 -873.082886
v -95.8215637 159.432953 -853.240723
v -92.7749939 189.81485 -831.206177
v -86.0696411 215.525757 -809.215088
v -73.6932373 235.320862 -789.576294
v 1.45651245 -93.2160339 -1040.36304
v 0.5831604 -118.490028 -1019.15778
v -23.1827393 -88.3196793 -1014.90704
v -2.15093994 -132.261627 -992.31366
v -25.0933533 -107.941261 -990.531799
v -47.164978 -74.4570084 -987.885193
v -5.756073 -137.146118 -959.893005
v -27.6044006 -117.522438 -960.86908
v -48.2375793 -88.9074707 -960.730286
v -67.4801941 -52.7364807 -959.643738
v -8.6729126 -136.17627 -922.827148
v -29.6928711 -119.948479 -925.198853
v -48.7928162 -95.0154572 -927.656128
v -65.8079834 -62.6563568 -929.039307
v -80.9194031 -24.6083221 -930.10083
v -7.9614563 -131.765656 -883.070679
v -28.8843689 -117.743004 -884.218994
v -47.0999756 -95.4176483 -887.364868
v -62.1356812 -65.508873 -891.015503
v -74.6307373 -30.3278084 -894.643433
v -85.5257568 7.77525902 -898.848389
v 144.774323 -87.9932785 -964.832825
v 145.72464 -92.8496246 -930.653687
v 122.963776 -107.721962 -955.182556
v 146.606537 -92.3307419 -896.616211
v 123.92569 -110.129372 -917.279175
v 101.847443 -122.35096 -937.988159
v 147.365387 -84.7352219 -863.038452
v 125.552643 -106.640785 -880.372925
v 102.588715 -121.485924 -897.57019
v 80.0787659 -131.961151 -915.837646
v 147.039642 -69.7968063 -830.013672
v 127.033295 -95.9834824 -843.929443
v 104.193634 -114.859627 -858.359375
v 80.1982422 -127.657082 -873.569824
v 57.264679 -136.335876 -890.611816
v 144.75119 -48.8948593 -797.425049
v 127.173492 -77.7622681 -807.568115
v 105.418854 -100.801842 -819.066772
v 80.9641724 -117.447533 -832.021606
v 56.1755981 -128.36618 -846.842651
v 33.6178284 -134.981995 -864.26355
v 260.901581 128.793304 -823.716797
v 246.605255 143.142731 -803.117676
v 242.930634 112.341095 -806.444824
v 227.98465 154.297394 -781.482788
v 226.322418 124.15506 -785.090576
v 222.391388 90.9400864 -793.61853
v 205.465179 162.803192 -758.211792
v 206.174042 133.477234 -762.783936
v 204.481354 101.749107 -771.093262
v 200.907928 67.0507584 -784.070923
v 177.754852 168.398315 -734.242188
v 181.088409 140.297852 -739.401855
v 182.2258 110.110138 -747.508179
v 181.891571 77.7858734 -759.794312
v 179.907928 42.8064423 -776.165405
v 145.579193 171.286987 -711.092651
v 150.371429 144.447693 -715.222046
v 153.885895 115.638588 -722.70166
v 157.267059 84.8019943 -734.174438
v 160.285675 52.056488 -749.650391
v 161.160919 17.9905529 -767.974365
v 21.3660583 28.014185 -685.970337
v 34.8988647 52.7949829 -669.414795
v 11.6439819 66.0018845 -677.549927
v 46.7762451 79.6544647 -660.638916
v 23.2313538 93.2110519 -661.242188
v 0.381958008 104.938812 -676.13855
v 58.4884338 107.287598 -659.487305
v 34.1031494 119.69207 -655.022095
v 10.735199 132.092941 -661.427734
v -12.533844 142.96785 -682.458252
v 71.9860535 134.089142 -665.071899
v 46.3409424 145.22879 -657.491089
v 21.9647522 156.748474 -658.421387
v -1.86627197 168.422791 -670.163208
v -26.0331421 178.240509 -696.394653
v 89.5534058 158.411896 -676.213867
v 62.6059875 169.472107 -666.933594
v 36.8340759 179.83316 -664.815186
v 11.7652283 190.781677 -670.81897
v -13.1560669 201.072144 -687.475586
v -38.6756897 208.608368 -717.336182
v 112.428558 179.251831 -691.757568
v 85.0775452 191.529266 -682.167725
v 58.1313477 201.791901 -678.66748
v 31.4651184 211.516541 -681.582397
v 4.83370972 220.838196 -692.569214
v -21.8112488 228.319214 -713.075073
v -48.4938965 232.539185 -743.970947
v 40.522644 8.64540291 -687.911011
v 61.649292 -4.11096573 -695.118896
v 56.4269409 37.4274292 -674.479858
v 84.0734863 -11.0705414 -707.556885
v 78.425415 29.0204544 -685.338135
v 69.5653687 67.9153442 -669.344604
v 106.193207 -14.3291626 -724.554077
v 100.629547 24.7016048 -701.502075
v 91.8607178 61.8694 -683.73999
v 82.4253845 97.8911972 -671.521606
v 126.546783 -15.5648346 -744.570801
v 122.371613 22.2720413 -721.403564
v 114.460968 58.3059006 -702.681885
v 105.82785 92.5592651 -688.642944
v 97.9839172 125.526794 -679.935669
v 144.030792 -15.9665222 -766.31897
v 142.792938 20.382122 -743.832275
v 137.415863 55.4251099 -724.848877
v 130.557648 88.7352524 -709.664307
v 124.494904 120.102089 -699.27478
v 118.824432 150.020706 -693.181274
v 17.2976379 -8.00382996 -707.786865
v 12.5019836 -40.7323685 -732.809814
v 38.6106873 -28.8799057 -711.480591
v 7.5526123 -69.4259186 -758.970459
v 36.2976379 -60.5581818 -737.352905
v 61.9457092 -41.2771225 -720.209839
v 3.52307129 -93.7800369 -785.663086
v 33.3173828 -86.7565994 -764.275024
v 61.0698853 -71.4440689 -747.441406
v 85.6384277 -47.5505753 -734.126465
v 2.41253662 -113.393242 -814.541626
v 30.2606812 -107.946632 -792.939331
v 58.5678711 -95.8824463 -776.332031
v 85.0803833 -76.7753754 -762.941528
v 107.995209 -50.0101166 -752.269165
v 6.04516602 -128.040344 -847.596069
v 29.598175 -123.986229 -825.688965
v 55.9058533 -115.02523 -808.475586
v 82.5455627 -100.13868 -794.599976
v 107.194183 -78.5834427 -783.082886
v 127.775604 -50.1760254 -773.652832
v 1.44003296 29.5787773 -703.581177
v -17.5807495 34.9497757 -729.818604
v -5.41860962 -7.71226883 -730.157104
v -35.7364502 42.4378281 -762.692017
v -25.9760437 -3.12135696 -758.767822
v -12.8623657 -40.7379227 -757.709717
v -53.3074036 49.1217422 -798.821777
v -44.5945435 2.88401222 -791.442017
v -34.3852539 -37.124054 -786.860229
v -19.2190247 -69.8953171 -784.964355
v -70.0044861 51.928566 -835.157227
v -61.0301208 7.30787468 -826.274658
v -51.9272766 -33.1319199 -819.549561
v -39.7260437 -67.8789902 -815.117188
v -21.9793396 -95.0923843 -813.224854
v -84.5724487 50.694603 -870.547363
v -74.8962097 8.86457825 -862.434814
v -65.2869568 -30.6424065 -855.841919
v -53.8897705 -65.9313278 -850.581421
v -38.6763611 -94.859642 -846.826294
v -18.6019592 -115.720695 -845.431885
v -8.70913696 72.0729523 -700.574463
v -20.6577759 113.392426 -705.526123
v -27.8108215 80.5144501 -732.975586
v -34.7017212 152.102097 -717.704834
v -40.513855 122.543259 -743.556885
v -46.2700195 88.9501343 -771.24585
v -49.9129639 186.54895 -736.221313
v -55.7324829 159.947723 -760.125732
v -60.0465698 129.152588 -785.987915
v -64.7256165 93.7805481 -811.431152
v -63.9585876 214.803802 -760.328125
v -72.1318665 191.352753 -781.973999
v -76.3812561 162.976562 -805.84668
v -79.5289001 130.265442 -829.466675
v -82.7111206 92.9941483 -850.918213
g 
f 3 1 2
f 5 2 4
f 6 3 5
f 8 4 7
f 9 5 8
f 10 6 9
f 12 7 11
f 13 8 12
f 14 9 13
f 15 10 14
f 17 11 16
f 18 12 17
f 19 13 18
f 20 14 19
f 21 15 20
f 23 16 22
f 24 17 23
f 25 18 24
f 26 19 25
f 27 20 26
f 28 21 27
f 30 22 29
f 31 23 30
f 32 24 31
f 33 25 32
f 34 26 33
f 35 27 34
f 36 28 35
f 3 2 5
f 5 4 8
f 6 5 9
f 8 7 12
f 9 8 13
f 10 9 14
f 12 11 17
f 13 12 18
f 14 13 19
f 15 14 20
f 17 16 23
f 18 17 24
f 19 18 25
f 20 19 26
f 21 20 27
f 23 22 30
f 24 23 31
f 25 24 32
f 26 25 33
f 27 26 34
f 28 27 35
f 37 1 3
f 38 3 6
f 39 37 38
f 40 6 10
f 41 38 40
f 42 39 41
f 43 10 15
f 44 40 43
f 45 41 44
f 46 42 45
f 47 15 21
f 48 43 47
f 49 44 48
f 50 45 49
f 51 46 50
f 52 21 28
f 53 47 52
f 54 48 53
f 55 49 54
f 56 50 55
f 57 51 56
f 58 28 36
f 59 52 58
f 60 53 59
f 61 54 60
f 62 55 61
f 63 56 62
f 64 57 63
f 37 3 38
f 38 6 40
f 39 38 41
f 40 10 43
f 41 40 44
f 42 41 45
f 43 15 47
f 44 43 48
f 45 44 49
f 46 45 50
f 47 21 52
f 48 47 53
f 49 48 54
f 50 49 55
f 51 50 56
f 52 28 58
f 53 52 59
f 54 53 60
f 55 54 61
f 56 55 62
f 57 56 63
f 65 1 37
f 66 37 39
f 67 65 66
f 68 39 42
f 69 66 68
f 70 67 69
f 71 42 46
f 72 68 71
f 73 69 72
f 74 70 73
f 75 46 51
f 76 71 75
f 77 72 76
f 78 73 77
f 79 74 78
f 80 51 57
f 81 75 80
f 82 76 81
f 83 77 82
f 84 78 83
f 85 79 84
f 86 57 64
f 87 80 86
f 88 81 87
f 89 82 88
f 90 83 89
f 91 84 90
f 92 85 91
f 65 37 66
f 66 39 68
f 67 66 69
f 68 42 71
f 69 68 72
f 70 69 73
f 71 46 75
f 72 71 76
f 73 72 77
f 74 73 78
f 75 51 80
f 76 75 81
f 77 76 82
f 78 77 83
f 79 78 84
f 80 57 86
f 81 80 87
f 82 81 88
f 83 82 89
f 84 83 90
f 85 84 91
f 93 1 65
f 94 65 67
f 95 93 94
f 96 67 70
f 97 94 96
f 98 95 97
f 99 70 74
f 100 96 99
f 101 97 100
f 102 98 101
f 103 74 79
f 104 99 103
f 105 100 104
f 106 101 105
f 107 102 106
f 108 79 85
f 109 103 108
f 110 104 109
f 111 105 110
f 112 106 111
f 113 107 112
f 114 85 92
f 115 108 114
f 116 109 115
f 117 110 116
f 118 111 117
f 119 112 118
f 120 113 119
f 93 65 94
f 94 67 96
f 95 94 97
f 96 70 99
f 97 96 100
f 98 97 101
f 99 74 103
f 100 99 104
f 101 100 105
f 102 101 106
f 103 79 108
f 104 103 109
f 105 104 110
f 106 105 111
f 107 106 112
f 108 85 114
f 109 108 115
f 110 109 116
f 111 110 117
f 112 111 118
f 113 112 119
f 2 1 93
f 121 93 95
f 4 2 121
f 122 95 98
f 123 121 122
f 7 4 123
f 124 98 102
f 125 122 124
f 126 123 125
f 11 7 126
f 127 102 107
f 128 124 127
f 129 125 128
f 130 126 129
f 16 11 130
f 131 107 113
f 132 127 131
f 133 128 132
f 134 129 133
f 135 130 134
f 22 16 135
f 136 113 120
f 137 131 136
f 138 132 137
f 139 133 138
f 140 134 139
f 141 135 140
f 29 22 141
f 2 93 121
f 121 95 122
f 4 121 123
f 122 98 124
f 123 122 125
f 7 123 126
f 124 102 127
f 125 124 128
f 126 125 129
f 11 126 130
f 127 107 131
f 128 127 132
f 129 128 133
f 130 129 134
f 16 130 135
f 131 113 136
f 132 131 137
f 133 132 138
f 134 133 139
f 135 134 140
f 22 135 141
f 142 29 141
f 143 141 140
f 144 142 143
f 145 140 139
f 146 143 145
f 147 144 146
f 148 139 138
f 149 145 148
f 150 146 149
f 151 147 150
f 152 138 137
f 153 148 152
f 154 149 153
f 155 150 154
f 156 151 155
f 157 137 136
f 158 152 157
f 159 153 158
f 160 154 159
f 161 155 160
f 162 156 161
f 163 136 120
f 164 157 163
f 165 158 164
f 166 159 165
f 167 160 166
f 168 161 167
f 169 162 168
f 142 141 143
f 143 140 145
f 144 143 146
f 145 139 148
f 146 145 149
f 147 146 150
f 148 138 152
f 149 148 153
f 150 149 154
f 151 150 155
f 152 137 157
f 153 152 158
f 154 153 159
f 155 154 160
f 156 155 161
f 157 136 163
f 158 157 164
f 159 158 165
f 160 159 166
f 161 160 167
f 162 161 168
f 170 120 119
f 171 119 118
f 172 170 171
f 173 118 117
f 174 171 173
f 175 172 174
f 176 117 116
f 177 173 176
f 178 174 177
f 179 175 178
f 180 116 115
f 181 176 180
f 182 177 181
f 183 178 182
f 184 179 183
f 185 115 114
f 186 180 185
f 187 181 186
f 188 182 187
f 189 183 188
f 190 184 189
f 191 114 92
f 192 185 191
f 193 186 192
f 194 187 193
f 195 188 194
f 196 189 195
f 197 190 196
f 170 119 171
f 171 118 173
f 172 171 174
f 173 117 176
f 174 173 177
f 175 174 178
f 176 116 180
f 177 176 181
f 178 177 182
f 179 178 183
f 180 115 185
f 181 180 186
f 182 181 187
f 183 182 188
f 184 183 189
f 185 114 191
f 186 185 192
f 187 186 193
f 188 187 194
f 189 188 195
f 190 189 196
f 198 92 91
f 199 91 90
f 200 198 199
f 201 90 89
f 202 199 201
f 203 200 202
f 204 89 88
f 205 201 204
f 206 202 205
f 207 203 206
f 208 88 87
f 209 204 208
f 210 205 209
f 211 206 210
f 212 207 211
f 213 87 86
f 214 208 213
f 215 209 214
f 216 210 215
f 217 211 216
f 218 212 217
f 219 86 64
f 220 213 219
f 221 214 220
f 222 215 221
f 223 216 222
f 224 217 223
f 225 218 224
f 198 91 199
f 199 90 201
f 200 199 202
f 201 89 204
f 202 201 205
f 203 202 206
f 204 88 208
f 205 204 209
f 206 205 210
f 207 206 211
f 208 87 213
f 209 208 214
f 210 209 215
f 211 210 216
f 212 211 217
f 213 86 219
f 214 213 220
f 215 214 221
f 216 215 222
f 217 216 223
f 218 217 224
f 226 64 63
f 227 63 62
f 228 226 227
f 229 62 61
f 230 227 229
f 231 228 230
f 232 61 60
f 233 229 232
f 234 230 233
f 235 231 234
f 236 60 59
f 237 232 236
f 238 233 237
f 239 234 238
f 240 235 239
f 241 59 58
f 242 236 241
f 243 237 242
f 244 238 243
f 245 239 244
f 246 240 245
f 247 58 36
f 248 241 247
f 249 242 248
f 250 243 249
f 251 244 250
f 252 245 251
f 253 246 252
f 226 63 227
f 227 62 229
f 228 227 230
f 229 61 232
f 230 229 233
f 231 230 234
f 232 60 236
f 233 232 237
f 234 233 238
f 235 234 239
f 236 59 241
f 237 236 242
f 238 237 243
f 239 238 244
f 240 239 245
f 241 58 247
f 242 241 248
f 243 242 249
f 244 243 250
f 245 244 251
f 246 245 252
f 254 36 35
f 255 35 34
f 256 254 255
f 257 34 33
f 258 255 257
f 259 256 258
f 260 33 32
f 261 257 260
f 262 258 261
f 263 259 262
f 264 32 31
f 265 260 264
f 266 261 265
f 267 262 266
f 268 263 267
f 269 31 30
f 270 264 269
f 271 265 270
f 272 266 271
f 273 267 272
f 274 268 273
f 275 30 29
f 276 269 275
f 277 270 276
f 278 271 277
f 279 272 278
f 280 273 279
f 281 274 280
f 254 35 255
f 255 34 257
f 256 255 258
f 257 33 260
f 258 257 261
f 259 258 262
f 260 32 264
f 261 260 265
f 262 261 266
f 263 262 267
f 264 31 269
f 265 264 270
f 266 265 271
f 267 266 272
f 268 267 273
f 269 30 275
f 270 269 276
f 271 270 277
f 272 271 278
f 273 272 279
f 274 273 280
f 275 29 142
f 282 142 144
f 276 275 282
f 283 144 147
f 284 282 283
f 277 276 284
f 285 147 151
f 286 283 285
f 287 284 286
f 278 277 287
f 288 151 156
f 289 285 288
f 290 286 289
f 291 287 290
f 279 278 291
f 292 156 162
f 293 288 292
f 294 289 293
f 295 290 294
f 296 291 295
f 280 279 296
f 297 162 169
f 298 292 297
f 299 293 298
f 300 294 299
f 301 295 300
f 302 296 301
f 281 280 302
f 275 142 282
f 282 144 283
f 276 282 284
f 283 147 285
f 284 283 286
f 277 284 287
f 285 151 288
f 286 285 289
f 287 286 290
f 278 287 291
f 288 156 292
f 289 288 293
f 290 289 294
f 291 290 295
f 279 291 296
f 292 162 297
f 293 292 298
f 294 293 299
f 295 294 300
f 296 295 301
f 280 296 302
f 163 120 170
f 303 170 172
f 164 163 303
f 304 172 175
f 305 303 304
f 165 164 305
f 306 175 179
f 307 304 306
f 308 305 307
f 166 165 308
f 309 179 184
f 310 306 309
f 311 307 310
f 312 308 311
f 167 166 312
f 313 184 190
f 314 309 313
f 315 310 314
f 316 311 315
f 317 312 316
f 168 167 317
f 318 190 197
f 319 313 318
f 320 314 319
f 321 315 320
f 322 316 321
f 323 317 322
f 169 168 323
f 163 170 303
f 303 172 304
f 164 303 305
f 304 175 306
f 305 304 307
f 165 305 308
f 306 179 309
f 307 306 310
f 308 307 311
f 166 308 312
f 309 184 313
f 310 309 314
f 311 310 315
f 312 311 316
f 167 312 317
f 313 190 318
f 314 313 319
f 315 314 320
f 316 315 321
f 317 316 322
f 168 317 323
f 191 92 198
f 324 198 200
f 192 191 324
f 325 200 203
f 326 324 325
f 193 192 326
f 327 203 207
f 328 325 327
f 329 326 328
f 194 193 329
f 330 207 212
f 331 327 330
f 332 328 331
f 333 329 332
f 195 194 333
f 334 212 218
f 335 330 334
f 336 331 335
f 337 332 336
f 338 333 337
f 196 195 338
f 339 218 225
f 340 334 339
f 341 335 340
f 342 336 341
f 343 337 342
f 344 338 343
f 197 196 344
f 191 198 324
f 324 200 325
f 192 324 326
f 325 203 327
f 326 325 328
f 193 326 329
f 327 207 330
f 328 327 331
f 329 328 332
f 194 329 333
f 330 212 334
f 331 330 335
f 332 331 336
f 333 332 337
f 195 333 338
f 334 218 339
f 335 334 340
f 336 335 341
f 337 336 342
f 338 337 343
f 196 338 344
f 219 64 226
f 345 226 228
f 220 219 345
f 346 228 231
f 347 345 346
f 221 220 347
f 348 231 235
f 349 346 348
f 350 347 349
f 222 221 350
f 351 235 240
f 352 348 351
f 353 349 352
f 354 350 353
f 223 222 354
f 355 240 246
f 356 351 355
f 357 352 356
f 358 353 357
f 359 354 358
f 224 223 359
f 360 246 253
f 361 355 360
f 362 356 361
f 363 357 362
f 364 358 363
f 365 359 364
f 225 224 365
f 219 226 345
f 345 228 346
f 220 345 347
f 346 231 348
f 347 346 349
f 221 347 350
f 348 235 351
f 349 348 352
f 350 349 353
f 222 350 354
f 351 240 355
f 352 351 356
f 353 352 357
f 354 353 358
f 223 354 359
f 355 246 360
f 356 355 361
f 357 356 362
f 358 357 363
f 359 358 364
f 224 359 365
f 247 36 254
f 366 254 256
f 248 247 366
f 367 256 259
f 368 366 367
f 249 248 368
f 369 259 263
f 370 367 369
f 371 368 370
f 250 249 371
f 372 263 268
f 373 369 372
f 374 370 373
f 375 371 374
f 251 250 375
f 376 268 274
f 377 372 376
f 378 373 377
f 379 374 378
f 380 375 379
f 252 251 380
f 381 274 281
f 382 376 381
f 383 377 382
f 384 378 383
f 385 379 384
f 386 380 385
f 253 252 386
f 247 254 366
f 366 256 367
f 248 366 368
f 367 259 369
f 368 367 370
f 249 368 371
f 369 263 372
f 370 369 373
f 371 370 374
f 250 371 375
f 372 268 376
f 373 372 377
f 374 373 378
f 375 374 379
f 251 375 380
f 376 274 381
f 377 376 382
f 378 377 383
f 379 378 384
f 380 379 385
f 252 380 386
f 389 387 388
f 391 388 390
f 392 389 391
f 394 390 393
f 395 391 394
f 396 392 395
f 398 393 397
f 399 394 398
f 400 395 399
f 401 396 400
f 403 397 402
f 404 398 403
f 405 399 404
f 406 400 405
f 407 401 406
f 409 402 408
f 410 403 409
f 411 404 410
f 412 405 411
f 413 406 412
f 414 407 413
f 302 408 281
f 301 409 302
f 300 410 301
f 299 411 300
f 298 412 299
f 297 413 298
f 169 414 297
f 389 388 391
f 391 390 394
f 392 391 395
f 394 393 398
f 395 394 399
f 396 395 400
f 398 397 403
f 399 398 404
f 400 399 405
f 401 400 406
f 403 402 409
f 404 403 410
f 405 404 411
f 406 405 412
f 407 406 413
f 409 408 302
f 410 409 301
f 411 410 300
f 412 411 299
f 413 412 298
f 414 413 297
f 388 387 415
f 417 415 416
f 390 388 417
f 419 416 418
f 420 417 419
f 393 390 420
f 422 418 421
f 423 419 422
f 424 420 423
f 397 393 424
f 426 421 425
f 427 422 426
f 428 423 427
f 429 424 428
f 402 397 429
f 431 425 430
f 432 426 431
f 433 427 432
f 434 428 433
f 435 429 434
f 408 402 435
f 386 430 253
f 385 431 386
f 384 432 385
f 383 433 384
f 382 434 383
f 381 435 382
f 281 408 381
f 388 415 417
f 417 416 419
f 390 417 420
f 419 418 422
f 420 419 423
f 393 420 424
f 422 421 426
f 423 422 427
f 424 423 428
f 397 424 429
f 426 425 431
f 427 426 432
f 428 427 433
f 429 428 434
f 402 429 435
f 431 430 386
f 432 431 385
f 433 432 384
f 434 433 383
f 435 434 382
f 408 435 381
f 415 387 436
f 438 436 437
f 416 415 438
f 440 437 439
f 441 438 440
f 418 416 441
f 443 439 442
f 444 440 443
f 445 441 444
f 421 418 445
f 447 442 446
f 448 443 447
f 449 444 448
f 450 445 449
f 425 421 450
f 452 446 451
f 453 447 452
f 454 448 453
f 455 449 454
f 456 450 455
f 430 425 456
f 365 451 225
f 364 452 365
f 363 453 364
f 362 454 363
f 361 455 362
f 360 456 361
f 253 430 360
f 415 436 438
f 438 437 440
f 416 438 441
f 440 439 443
f 441 440 444
f 418 441 445
f 443 442 447
f 444 443 448
f 445 444 449
f 421 445 450
f 447 446 452
f 448 447 453
f 449 448 454
f 450 449 455
f 425 450 456
f 452 451 365
f 453 452 364
f 454 453 363
f 455 454 362
f 456 455 361
f 430 456 360
f 436 387 457
f 459 457 458
f 437 436 459
f 461 458 460
f 462 459 461
f 439 437 462
f 464 460 463
f 465 461 464
f 466 462 465
f 442 439 466
f 468 463 467
f 469 464 468
f 470 465 469
f 471 466 470
f 446 442 471
f 473 467 472
f 474 468 473
f 475 469 474
f 476 470 475
f 477 471 476
f 451 446 477
f 344 472 197
f 343 473 344
f 342 474 343
f 341 475 342
f 340 476 341
f 339 477 340
f 225 451 339
f 436 457 459
f 459 458 461
f 437 459 462
f 461 460 464
f 462 461 465
f 439 462 466
f 464 463 468
f 465 464 469
f 466 465 470
f 442 466 471
f 468 467 473
f 469 468 474
f 470 469 475
f 471 470 476
f 446 471 477
f 473 472 344
f 474 473 343
f 475 474 342
f 476 475 341
f 477 476 340
f 451 477 339
f 457 387 389
f 478 389 392
f 458 457 478
f 479 392 396
f 480 478 479
f 460 458 480
f 481 396 401
f 482 479 481
f 483 480 482
f 463 460 483
f 484 401 407
f 485 481 484
f 486 482 485
f 487 483 486
f 467 463 487
f 488 407 414
f 489 484 488
f 490 485 489
f 491 486 490
f 492 487 491
f 472 467 492
f 323 414 169
f 322 488 323
f 321 489 322
f 320 490 321
f 319 491 320
f 318 492 319
f 197 472 318
f 457 389 478
f 478 392 479
f 458 478 480
f 479 396 481
f 480 479 482
f 460 480 483
f 481 401 484
f 482 481 485
f 483 482 486
f 463 483 487
f 484 407 488
f 485 484 489
f 486 485 490
f 487 486 491
f 467 487 492
f 488 414 323
f 489 488 322
f 490 489 321
f 491 490 320
f 492 491 319
f 472 492 318
