# File exported by Houdini 20.5.445 (www.sidefx.com)
# 492 points
# 2940 vertices
# 980 primitives
# Bounds: [-142.23288, -122.102989, -1109.20923] to [313.006775, 238.480103, -645.591919]
g 
v 94.1165466 59.4303169 -1078.75757
v 82.9256592 87.5015793 -1093.74634
v 117.703217 76.4906998 -1082.68311
v 74.1431274 114.231316 -1104.88379
v 106.613007 105.664635 -1095.8667
v 140.114441 92.2549438 -1081.95288
v 66.7631531 139.666016 -1108.70898
v 97.2723694 131.812698 -1102.43823
v 128.14563 121.366867 -1090.95093
v 160.826721 105.422997 -1075.66602
v 60.0520935 162.892303 -1103.11768
v 89.1500854 155.265564 -1100.24634
v 118.011414 146.348114 -1092.16724
v 148.084595 133.290466 -1079.37939
v 180.025574 115.181274 -1063.53125
v 54.3634033 182.839172 -1088.59644
v 82.8722839 175.737457 -1089.15991
v 110.326477 168.143402 -1085.21216
v 138.318115 156.778473 -1075.7002
v 167.570068 141.000488 -1061.8606
v 198.342957 121.036415 -1046.02832
v 50.5220947 198.881561 -1067.47095
v 79.3908997 192.976379 -1070.51855
v 106.508698 186.803192 -1070.37866
v 133.191101 177.493927 -1065.12842
v 160.196075 163.073822 -1054.26221
v 187.835938 144.313477 -1039.66309
v 216.368774 122.380997 -1023.85309
v 47.989502 211.33429 -1041.99707
v 77.8451538 206.745758 -1045.24609
v 106.1362 201.770447 -1046.9104
v 133.031525 194.509338 -1045.6272
v 158.893799 182.224976 -1039.13281
v 184.03363 164.203705 -1027.17163
v 208.861023 142.465973 -1012.41193
v 233.982971 119.8815 -997.745544
v 122.321991 40.5653572 -1067.16431
v 148.661896 58.5441818 -1068.9917
v 152.017426 20.8486176 -1056.01123
v 172.259766 73.9640579 -1066.64111
v 179.349182 40.1039238 -1055.84009
v 182.468323 1.28840637 -1044.05811
v 193.204956 86.357132 -1059.20801
v 203.152832 55.9273376 -1051.64526
v 209.789185 22.0583878 -1041.80371
v 211.770325 -16.4338264 -1028.97534
v 212.282532 95.3240204 -1046.00586
v 224.210388 68.1607819 -1042.24365
v 233.52063 38.3933258 -1035.32495
v 238.813843 5.18355942 -1024.77148
v 237.98822 -31.3562012 -1009.48236
v 230.54071 100.111519 -1026.77075
v 243.531738 76.3879242 -1026.56665
v 254.746338 50.1131401 -1022.80353
v 262.189636 21.1070404 -1015.07892
v 264.138611 -10.4710808 -1002.65936
v 259.235718 -43.6289825 -985.268372
v 248.566223 100.035774 -1001.02106
v 262.224426 79.4395523 -1003.15594
v 274.36145 56.5195885 -1002.25543
v 282.956116 31.0018387 -997.383728
v 286.379944 3.30446625 -988.101013
v 283.422485 -25.7226868 -974.478943
v 273.071106 -54.8321762 -957.192566
v 87.8047791 30.2465229 -1065.41943
v 119.399292 5.58870125 -1054.96631
v 83.4942932 0.628170013 -1052.854
v 151.345154 -17.6050339 -1044.4812
v 117.77298 -27.8057938 -1043.69824
v 80.3664856 -26.3828125 -1040.56909
v 181.948181 -37.9226608 -1030.85645
v 150.069458 -51.7613754 -1031.95508
v 115.341644 -55.7599258 -1031.02686
v 76.6730042 -47.0356674 -1026.61792
v 209.849243 -54.2601547 -1011.89984
v 179.489929 -70.7024689 -1014.56354
v 146.628204 -78.4073334 -1016.05707
v 110.76181 -75.3189163 -1014.85858
v 71.4499207 -59.307785 -1009.37164
v 233.635437 -66.3862152 -987.0047
v 204.928955 -84.3297424 -989.597961
v 173.534058 -94.7090302 -992.772644
v 139.431091 -95.3973007 -994.645081
v 102.807007 -85.0861664 -993.41803
v 64.3699646 -63.5133286 -987.431946
v 250.796753 -75.7544174 -956.402527
v 224.381775 -93.5546646 -956.698669
v 194.529175 -105.286461 -959.214172
v 161.810791 -108.562706 -963.047791
v 126.877838 -102.064171 -965.818176
v 91.2737122 -85.9900894 -965.059998
v 56.1071777 -62.1710281 -959.903015
v 63.1006775 61.9110794 -1081.18311
v 53.8534851 33.7804184 -1064.53223
v 33.7405396 69.2851105 -1081.00757
v 47.926239 7.82827568 -1049.10352
v 23.1498718 43.8535767 -1061.17969
v 6.8085022 83.0107956 -1078.45117
v 43.3595276 -13.1190109 -1033.82251
v 16.5306702 22.6360683 -1042.47681
v -4.17144775 61.0232849 -1055.94531
v -17.4161377 102.304718 -1073.30713
v 38.5688782 -26.9870911 -1016.78082
v 10.8239746 7.75358582 -1023.211
v -11.5144958 44.5975914 -1033.38818
v -28.361084 83.6351242 -1048.24243
v -39.0914612 123.81694 -1064.32446
v 33.0362854 -33.6785545 -995.904724
v 5.00387573 -0.653963089 -1001.45612
v -18.5180969 34.4999428 -1008.81805
v -36.9045105 71.1675873 -1020.90118
v -50.1894836 108.170883 -1035.94897
v -58.6811523 143.484863 -1049.6123
v 27.1333923 -34.8790169 -968.740784
v -0.44128418 -3.86516571 -974.170837
v -25.0527344 29.5993614 -979.469666
v -45.1383667 64.3316727 -988.625305
v -60.0878601 98.7611771 -1002.04449
v -70.3210754 131.063538 -1016.49323
v -76.9822388 159.557983 -1027.80127
v 51.8338013 93.1814651 -1097.32715
v 23.9621277 104.397575 -1097.26416
v 44.2445374 122.590546 -1107.73218
v -1.4135437 121.189789 -1093.75049
v 17.6742249 136.316559 -1105.93018
v 37.9824219 149.859741 -1109.20923
v -25.1171875 141.302307 -1085.90845
v -7.46697998 154.204468 -1099.29126
v 11.6304016 164.570953 -1104.02661
v 31.6271057 173.876312 -1100.02612
v -47.5823669 160.639374 -1071.84717
v -32.4046631 173.196075 -1086.2417
v -14.7190247 181.885834 -1092.32104
v 4.33508301 188.292328 -1090.01025
v 25.3505554 193.688263 -1080.80957
v -69.081665 175.931732 -1049.32495
v -57.4577942 189.332275 -1064.20996
v -42.2466431 198.529602 -1071.60669
v -24.3004761 204.068542 -1071.20288
v -3.76705933 207.222443 -1064.40869
v 20.326355 209.355408 -1054.15308
v 26.3929443 220.879639 -1021.82147
v -5.49682617 220.873383 -1032.64917
v 2.64810181 229.519897 -999.605774
v -31.5140991 219.952393 -1040.77393
v -31.3493347 230.076294 -1008.53949
v -22.4693298 235.827209 -974.867126
v -52.1471252 216.61673 -1045.13135
v -57.389801 228.362885 -1014.0224
v -56.2443848 235.442078 -981.087708
v -46.4075928 238.480103 -946.796143
v -68.6899719 209.497711 -1042.88623
v -77.0290527 222.99295 -1015.17535
v -80.953125 231.674438 -983.433411
v -78.6163025 236.525208 -949.782837
v -67.3698425 238.12793 -915.387817
v -81.3843384 197.860168 -1032.7356
v -92.0071106 213.528259 -1008.98541
v -99.4070282 224.31076 -980.249573
v -102.069778 231.29953 -948.319336
v -98.0904846 235.037842 -914.921265
v -85.2236938 235.50592 -881.90564
v -90.6954041 182.239441 -1014.07501
v -103.10553 200.031647 -993.778381
v -113.339233 213.13858 -968.061096
v -119.733017 222.234314 -938.813354
v -120.631073 227.87973 -907.994507
v -114.201736 230.368195 -877.381714
v -99.6339111 229.712769 -848.364746
v -90.648468 157.161682 -994.260803
v -81.5296021 126.54615 -979.730896
v -100.494003 153.331909 -956.720032
v -68.039856 93.3955612 -964.907288
v -87.5240784 120.60817 -941.502563
v -106.218674 146.971008 -917.209106
v -49.8516541 58.8348503 -953.348938
v -70.4257812 85.9795837 -928.095093
v -89.3695068 112.410507 -903.305786
v -108.293869 137.416626 -877.55249
v -26.994873 24.113678 -946.578979
v -49.28302 50.532299 -918.849854
v -69.5057983 76.5781937 -891.99707
v -88.6104126 101.569069 -865.638916
v -107.483734 124.795158 -839.018677
v -0.015411377 -9.78336334 -941.78894
v -23.8850098 15.1120481 -913.013184
v -46.0670776 40.2746887 -883.95874
v -66.8208008 64.9202118 -855.596924
v -86.1837158 88.2767868 -828.346802
v -104.205963 109.866631 -802.33313
v 30.2732849 -42.0566254 -934.615845
v 5.87426758 -20.0088348 -906.201904
v -18.0213928 3.6755867 -876.189087
v -41.1660461 27.6576576 -846.116821
v -62.6495056 50.9679108 -817.307251
v -81.9150696 73.235672 -790.910278
v -98.4849091 94.192215 -767.827515
v 67.8379211 -74.42453 -931.238892
v 104.910309 -97.9253311 -932.075195
v 75.9167786 -84.9456558 -897.018799
v 140.827698 -112.131508 -928.937134
v 113.064819 -107.428185 -894.787354
v 79.221283 -92.8187408 -858.972046
v 175.302856 -116.498619 -924.306519
v 148.533234 -119.286842 -890.391113
v 116.475891 -113.34359 -856.078857
v 79.562561 -96.1590424 -820.29126
v 207.866821 -111.40078 -921.339233
v 182.917664 -121.14666 -886.946655
v 152.249298 -122.102989 -853.079712
v 117.482361 -112.981468 -819.039062
v 79.7919312 -92.9919434 -784.487915
v 237.997742 -98.0556488 -922.071167
v 216.131592 -113.678368 -887.323975
v 187.458313 -120.590355 -853.063599
v 154.363892 -117.401329 -819.316772
v 118.863403 -104.296867 -786.400757
v 82.138031 -82.1227493 -754.257324
v 264.968994 -78.241333 -925.875122
v 247.449524 -97.4318695 -892.292358
v 222.027527 -108.981255 -857.742554
v 191.150757 -110.771141 -823.657593
v 157.340485 -102.57003 -790.758423
v 122.401733 -86.0806274 -759.731323
v 87.6710815 -64.0440216 -730.852539
v 288.082092 -49.2356796 -939.062134
v 299.755554 -18.8433914 -955.332092
v 296.714478 -43.7783585 -919.923584
v 302.631104 9.63201523 -966.579285
v 308.538757 -13.1595688 -934.285278
v 298.877502 -35.7394943 -899.036743
v 298.440247 35.6648331 -973.180115
v 311.120483 14.7184324 -942.573975
v 310.493774 -5.66247559 -910.740845
v 296.011902 -23.5317612 -876.251343
v 289.042786 59.5390816 -975.534973
v 306.503418 40.1998329 -946.207275
v 313.006775 21.9128876 -915.791138
v 307.490173 5.5576725 -884.749512
v 290.247009 -6.26220703 -851.858276
v 275.80127 81.7152481 -974.232605
v 296.406616 64.131424 -946.026611
v 308.49823 47.8763885 -916.241577
v 310.59436 33.3153305 -886.233032
v 302.014343 21.9983253 -856.524658
v 283.102478 16.2002525 -826.22522
v 259.197632 103.666908 -970.955261
v 281.264343 87.9771957 -942.797852
v 297.701904 73.6082916 -913.09375
v 306.675964 60.9181213 -882.728638
v 305.814331 50.6381264 -853.499268
v 294.687866 44.2861977 -826.062622
v 274.370239 42.5643539 -799.708252
v 234.426392 130.295868 -977.736267
v 208.901245 156.159454 -993.492371
v 232.864807 141.257416 -955.760437
v 184.542847 179.253448 -1007.43964
v 206.981812 168.626556 -971.787292
v 229.601746 152.171661 -931.474243
v 159.332947 196.317352 -1016.0484
v 182.118774 191.035828 -983.510803
v 202.422058 179.644623 -946.880859
v 223.781555 163.214111 -905.681763
v 131.7005 206.865784 -1018.91058
v 154.942444 206.653503 -989.156311
v 174.961853 201.190979 -956.523743
v 193.914612 190.369659 -920.395996
v 213.267761 175.385284 -880.143677
v 100.790863 213.409363 -1018.48761
v 123.183807 216.426819 -990.307312
v 143.232056 215.795563 -960.296082
v 161.68103 210.700867 -928.276245
v 179.544617 200.864532 -893.669067
v 196.335571 188.324951 -855.694702
v 66.0379333 218.233643 -1016.54242
v 85.5262451 222.896637 -989.408508
v 104.460754 225.113892 -960.564514
v 122.435699 224.051544 -930.521851
v 140.21637 218.932434 -899.602905
v 157.188232 210.409821 -867.275879
v 172.304138 200.472748 -833.093506
v 43.5881042 227.031311 -992.466858
v 18.5183411 233.959381 -967.854797
v 61.1174316 230.723175 -962.721008
v -6.99234009 237.776215 -941.466675
v 34.9168701 235.595459 -936.496582
v 78.360321 231.639069 -932.282349
v -30.43396 238.215485 -911.822998
v 9.94067383 236.950897 -908.579102
v 52.526123 234.287018 -904.773926
v 96.414917 229.015411 -901.285889
v -51.4730835 236.319519 -878.530029
v -13.0875854 235.664368 -876.850098
v 28.361969 233.835419 -874.714844
v 71.5710144 230.09726 -871.744751
v 115.16507 223.020538 -868.923096
v -69.7505798 231.231537 -842.768799
v -33.9039001 231.352844 -840.373169
v 6.06121826 230.457458 -839.195679
v 48.4819336 228.145782 -837.594238
v 91.6664429 223.365784 -835.465942
v 133.666992 214.663696 -833.759155
v -106.253708 180.275635 -975.088074
v -116.921692 175.812103 -933.533813
v -119.493942 197.084961 -950.793762
v -123.011108 167.987152 -891.214844
v -130.069946 191.163605 -906.771118
v -129.401123 208.866211 -922.877808
v -124.886566 156.378418 -849.387329
v -135.499222 181.570007 -862.828125
v -138.871689 201.403381 -877.674927
v -134.337997 216.670044 -892.988647
v -122.57341 141.124939 -808.793579
v -135.725235 167.869751 -819.392578
v -142.23288 190.001709 -832.643066
v -141.310516 207.626862 -847.343262
v -132.241241 220.96756 -862.563965
v -116.1026 123.311562 -769.895264
v -130.109375 150.298492 -776.670044
v -138.674881 174.18927 -787.512207
v -140.267365 194.204193 -801.265381
v -134.261398 210.023956 -816.730347
v -120.47731 221.710144 -832.741333
v 39.7583618 -54.3055801 -900.79126
v 44.0654297 -63.614502 -862.903442
v 12.7262573 -31.4903984 -868.709106
v 44.3660583 -69.6676712 -822.858643
v 14.3483887 -39.7473526 -828.56958
v -13.5412598 -7.54157257 -836.281982
v 43.5895386 -70.7668533 -783.525513
v 13.2174683 -44.180397 -787.393311
v -13.5871277 -14.9410324 -794.674683
v -38.5469971 16.5840073 -804.626465
v 44.7272644 -64.8794632 -747.849854
v 12.5979309 -42.7639618 -747.537598
v -15.145752 -17.2666016 -752.470703
v -39.4977417 10.7581177 -761.856445
v -61.4792175 40.9667282 -774.866943
v 50.206604 -50.8319702 -718.295654
v 15.9607239 -33.389328 -711.790039
v -14.2851257 -12.3046303 -711.875244
v -40.3085327 11.7500267 -718.69104
v -62.502655 38.1021004 -731.456421
v -81.6075439 65.9168854 -748.404785
v 275.399231 -73.1797409 -904.414673
v 278.646118 -64.7078094 -883.419434
v 253.152283 -89.1387939 -868.726562
v 276.657959 -51.1188736 -862.014404
v 252.815491 -74.8946075 -846.983276
v 224.529602 -95.1164932 -833.163086
v 271.194031 -31.6650429 -839.435791
v 248.49939 -54.1845779 -825.2854
v 222.046753 -73.9093475 -810.856812
v 191.576599 -90.6361237 -798.409546
v 263.676514 -5.80110931 -815.384644
v 241.274353 -26.4844322 -802.315796
v 215.782898 -45.4780502 -788.105713
v 187.081543 -62.3814621 -774.851074
v 155.629395 -76.3379745 -764.547363
v 254.277283 25.7312469 -789.375854
v 231.253601 8.41049957 -777.203979
v 205.670776 -9.10894012 -763.608887
v 177.648804 -26.2245712 -750.080566
v 147.812927 -41.9475861 -738.671021
v 117.238525 -55.0208969 -731.662964
v 259.063965 113.615067 -945.077393
v 256.673218 124.173157 -918.322388
v 280.094055 99.0113449 -912.391724
v 251.936218 135.244354 -890.57373
v 276.213501 110.618347 -881.855713
v 295.122803 86.8597946 -879.267822
v 242.597717 148.389099 -862.869507
v 267.852295 123.86808 -851.256836
v 288.512451 101.056824 -845.906494
v 301.534485 77.3661423 -846.87854
v 226.461975 164.208954 -836.361572
v 252.875793 140.486969 -821.548706
v 274.977478 117.853363 -812.975708
v 290.251404 95.4348373 -811.594238
v 296.2323 71.2430496 -816.936523
v 202.047302 181.619476 -811.738159
v 229.028503 160.613251 -793.219116
v 252.022095 138.813843 -780.784546
v 268.627563 116.698112 -776.218018
v 277.145264 93.8383789 -779.858398
v 278.03949 69.1551819 -789.004272
v 26.690155 143.02951 -670.017456
v 53.6242981 162.679993 -683.62854
v 3.23001099 160.964294 -684.845215
v 82.323761 178.316284 -697.839111
v 30.2396851 180.457642 -701.499512
v -19.7541809 176.681824 -704.182007
v 109.344055 189.567535 -714.888184
v 57.0688782 194.672302 -718.512939
v 6.45956421 194.218994 -722.45874
v -42.6784668 190.001709 -725.921753
v 131.439545 196.525177 -737.872314
v 80.4815979 204.339478 -740.004395
v 31.044281 206.341614 -742.872925
v -17.255188 205.172424 -746.132935
v -63.7678833 201.693329 -750.609619
v 148.624817 199.915009 -766.513062
v 100.284515 210.356964 -767.335205
v 52.737854 214.633698 -769.101685
v 6.31082153 215.625458 -771.015381
v -38.7191467 214.766785 -773.839355
v -80.8251648 212.497009 -779.345215
v 162.196106 200.770569 -798.882202
v 117.839569 213.537292 -799.066895
v 72.5307922 220.147369 -800.463013
v 27.7055969 223.042023 -801.912231
v -15.6888733 223.910919 -803.27771
v -56.5840149 223.614349 -805.938965
v -92.9589233 222.187469 -812.134766
v 66.8667908 136.689392 -669.777344
v 107.317413 128.054962 -676.336304
v 99.147522 155.748047 -683.023315
v 146.884369 116.156502 -690.110229
v 142.035583 145.319458 -689.602295
v 130.875824 169.349731 -697.269653
v 184.60083 100.736847 -710.854248
v 181.790283 130.847504 -704.203369
v 174.169373 156.139954 -705.208496
v 158.281311 177.876678 -716.201904
v 219.716248 82.338089 -737.201782
v 218.579346 112.413887 -726.246582
v 212.968811 138.257324 -721.775024
v 200.4823 161.306885 -726.643677
v 178.97876 181.866974 -741.972046
v 250.046814 61.8314018 -767.454712
v 251.303711 91.0099869 -755.073975
v 247.760986 116.606583 -746.624146
v 237.499329 140.137238 -746.165283
v 218.928894 161.991211 -755.745239
v 193.246582 182.419342 -774.099731
v 27.2483521 116.613396 -657.355835
v 31.0238037 87.8256607 -651.072998
v 69.5288086 107.826195 -662.954834
v 37.8905029 57.5570946 -652.469116
v 74.9555969 77.3151703 -663.622559
v 110.645508 97.0834885 -676.851562
v 47.1187744 26.5970459 -662.083374
v 82.7219238 45.4253235 -671.235962
v 116.699738 64.8245773 -684.20813
v 150.297974 83.4130478 -697.621094
v 58.3988647 -4.41236877 -679.455078
v 92.3252869 12.3943062 -685.283691
v 125.110992 31.0111485 -696.899292
v 156.947754 49.420269 -710.412598
v 188.554688 66.7282181 -723.737915
v 71.9433289 -34.8931999 -703.044312
v 103.780457 -21.3975716 -705.477539
v 135.485962 -4.66846466 -714.732544
v 166.123169 13.0198574 -727.525757
v 195.506226 30.3203259 -741.254272
v 223.483948 46.6953773 -754.725586
v -11.4620972 132.553833 -665.237427
v -44.477417 121.872795 -664.519775
v -10.1109314 102.223267 -651.057739
v -70.6962891 112.70195 -670.369751
v -40.1061707 89.319664 -651.851074
v -4.51049805 71.3051605 -645.591919
v -88.8842163 105.83651 -684.581665
v -62.4148254 79.5934143 -662.094238
v -31.6399841 58.0548782 -650.245728
v 4.43630981 40.6586075 -649.971558
v -98.8113098 101.020699 -706.952148
v -76.5620728 73.1227493 -682.621948
v -50.5318604 48.7959328 -666.44873
v -19.8829041 27.9588547 -660.084717
v 16.1240234 10.3912086 -664.383057
v -101.409348 97.267334 -735.370483
v -82.5757446 68.7565765 -712.003296
v -60.763031 42.4178009 -693.846436
v -34.9684143 18.6928196 -683.021973
v -4.48028564 -2.11971474 -680.955444
v 31.1248474 -19.9697189 -687.802368
v -37.9407654 152.15033 -683.808716
v -61.8009644 169.322937 -706.164673
v -71.0608826 143.8909 -687.108276
v -83.6459351 184.381256 -730.790283
v -93.6129456 163.144318 -712.830566
v -95.42659 137.230011 -696.803345
v -101.609756 198.230133 -759.387573
v -112.728043 180.300385 -741.42041
v -115.450592 158.388458 -726.0802
v -110.595291 132.088287 -714.111816
v -114.143585 211.010437 -793.255371
v -126.686264 196.134277 -775.512573
v -130.932861 177.30661 -759.806519
v -127.477921 154.472198 -747.180786
v -117.102356 127.674469 -738.735718
g 
f 3 1 2
f 5 2 4
f 6 3 5
f 8 4 7
f 9 5 8
f 10 6 9
f 12 7 11
f 13 8 12
f 14 9 13
f 15 10 14
f 17 11 16
f 18 12 17
f 19 13 18
f 20 14 19
f 21 15 20
f 23 16 22
f 24 17 23
f 25 18 24
f 26 19 25
f 27 20 26
f 28 21 27
f 30 22 29
f 31 23 30
f 32 24 31
f 33 25 32
f 34 26 33
f 35 27 34
f 36 28 35
f 3 2 5
f 5 4 8
f 6 5 9
f 8 7 12
f 9 8 13
f 10 9 14
f 12 11 17
f 13 12 18
f 14 13 19
f 15 14 20
f 17 16 23
f 18 17 24
f 19 18 25
f 20 19 26
f 21 20 27
f 23 22 30
f 24 23 31
f 25 24 32
f 26 25 33
f 27 26 34
f 28 27 35
f 37 1 3
f 38 3 6
f 39 37 38
f 40 6 10
f 41 38 40
f 42 39 41
f 43 10 15
f 44 40 43
f 45 41 44
f 46 42 45
f 47 15 21
f 48 43 47
f 49 44 48
f 50 45 49
f 51 46 50
f 52 21 28
f 53 47 52
f 54 48 53
f 55 49 54
f 56 50 55
f 57 51 56
f 58 28 36
f 59 52 58
f 60 53 59
f 61 54 60
f 62 55 61
f 63 56 62
f 64 57 63
f 37 3 38
f 38 6 40
f 39 38 41
f 40 10 43
f 41 40 44
f 42 41 45
f 43 15 47
f 44 43 48
f 45 44 49
f 46 45 50
f 47 21 52
f 48 47 53
f 49 48 54
f 50 49 55
f 51 50 56
f 52 28 58
f 53 52 59
f 54 53 60
f 55 54 61
f 56 55 62
f 57 56 63
f 65 1 37
f 66 37 39
f 67 65 66
f 68 39 42
f 69 66 68
f 70 67 69
f 71 42 46
f 72 68 71
f 73 69 72
f 74 70 73
f 75 46 51
f 76 71 75
f 77 72 76
f 78 73 77
f 79 74 78
f 80 51 57
f 81 75 80
f 82 76 81
f 83 77 82
f 84 78 83
f 85 79 84
f 86 57 64
f 87 80 86
f 88 81 87
f 89 82 88
f 90 83 89
f 91 84 90
f 92 85 91
f 65 37 66
f 66 39 68
f 67 66 69
f 68 42 71
f 69 68 72
f 70 69 73
f 71 46 75
f 72 71 76
f 73 72 77
f 74 73 78
f 75 51 80
f 76 75 81
f 77 76 82
f 78 77 83
f 79 78 84
f 80 57 86
f 81 80 87
f 82 81 88
f 83 82 89
f 84 83 90
f 85 84 91
f 93 1 65
f 94 65 67
f 95 93 94
f 96 67 70
f 97 94 96
f 98 95 97
f 99 70 74
f 100 96 99
f 101 97 100
f 102 98 101
f 103 74 79
f 104 99 103
f 105 100 104
f 106 101 105
f 107 102 106
f 108 79 85
f 109 103 108
f 110 104 109
f 111 105 110
f 112 106 111
f 113 107 112
f 114 85 92
f 115 108 114
f 116 109 115
f 117 110 116
f 118 111 117
f 119 112 118
f 120 113 119
f 93 65 94
f 94 67 96
f 95 94 97
f 96 70 99
f 97 96 100
f 98 97 101
f 99 74 103
f 100 99 104
f 101 100 105
f 102 101 106
f 103 79 108
f 104 103 109
f 105 104 110
f 106 105 111
f 107 106 112
f 108 85 114
f 109 108 115
f 110 109 116
f 111 110 117
f 112 111 118
f 113 112 119
f 2 1 93
f 121 93 95
f 4 2 121
f 122 95 98
f 123 121 122
f 7 4 123
f 124 98 102
f 125 122 124
f 126 123 125
f 11 7 126
f 127 102 107
f 128 124 127
f 129 125 128
f 130 126 129
f 16 11 130
f 131 107 113
f 132 127 131
f 133 128 132
f 134 129 133
f 135 130 134
f 22 16 135
f 136 113 120
f 137 131 136
f 138 132 137
f 139 133 138
f 140 134 139
f 141 135 140
f 29 22 141
f 2 93 121
f 121 95 122
f 4 121 123
f 122 98 124
f 123 122 125
f 7 123 126
f 124 102 127
f 125 124 128
f 126 125 129
f 11 126 130
f 127 107 131
f 128 127 132
f 129 128 133
f 130 129 134
f 16 130 135
f 131 113 136
f 132 131 137
f 133 132 138
f 134 133 139
f 135 134 140
f 22 135 141
f 142 29 141
f 143 141 140
f 144 142 143
f 145 140 139
f 146 143 145
f 147 144 146
f 148 139 138
f 149 145 148
f 150 146 149
f 151 147 150
f 152 138 137
f 153 148 152
f 154 149 153
f 155 150 154
f 156 151 155
f 157 137 136
f 158 152 157
f 159 153 158
f 160 154 159
f 161 155 160
f 162 156 161
f 163 136 120
f 164 157 163
f 165 158 164
f 166 159 165
f 167 160 166
f 168 161 167
f 169 162 168
f 142 141 143
f 143 140 145
f 144 143 146
f 145 139 148
f 146 145 149
f 147 146 150
f 148 138 152
f 149 148 153
f 150 149 154
f 151 150 155
f 152 137 157
f 153 152 158
f 154 153 159
f 155 154 160
f 156 155 161
f 157 136 163
f 158 157 164
f 159 158 165
f 160 159 166
f 161 160 167
f 162 161 168
f 170 120 119
f 171 119 118
f 172 170 171
f 173 118 117
f 174 171 173
f 175 172 174
f 176 117 116
f 177 173 176
f 178 174 177
f 179 175 178
f 180 116 115
f 181 176 180
f 182 177 181
f 183 178 182
f 184 179 183
f 185 115 114
f 186 180 185
f 187 181 186
f 188 182 187
f 189 183 188
f 190 184 189
f 191 114 92
f 192 185 191
f 193 186 192
f 194 187 193
f 195 188 194
f 196 189 195
f 197 190 196
f 170 119 171
f 171 118 173
f 172 171 174
f 173 117 176
f 174 173 177
f 175 174 178
f 176 116 180
f 177 176 181
f 178 177 182
f 179 178 183
f 180 115 185
f 181 180 186
f 182 181 187
f 183 182 188
f 184 183 189
f 185 114 191
f 186 185 192
f 187 186 193
f 188 187 194
f 189 188 195
f 190 189 196
f 198 92 91
f 199 91 90
f 200 198 199
f 201 90 89
f 202 199 201
f 203 200 202
f 204 89 88
f 205 201 204
f 206 202 205
f 207 203 206
f 208 88 87
f 209 204 208
f 210 205 209
f 211 206 210
f 212 207 211
f 213 87 86
f 214 208 213
f 215 209 214
f 216 210 215
f 217 211 216
f 218 212 217
f 219 86 64
f 220 213 219
f 221 214 220
f 222 215 221
f 223 216 222
f 224 217 223
f 225 218 224
f 198 91 199
f 199 90 201
f 200 199 202
f 201 89 204
f 202 201 205
f 203 202 206
f 204 88 208
f 205 204 209
f 206 205 210
f 207 206 211
f 208 87 213
f 209 208 214
f 210 209 215
f 211 210 216
f 212 211 217
f 213 86 219
f 214 213 220
f 215 214 221
f 216 215 222
f 217 216 223
f 218 217 224
f 226 64 63
f 227 63 62
f 228 226 227
f 229 62 61
f 230 227 229
f 231 228 230
f 232 61 60
f 233 229 232
f 234 230 233
f 235 231 234
f 236 60 59
f 237 232 236
f 238 233 237
f 239 234 238
f 240 235 239
f 241 59 58
f 242 236 241
f 243 237 242
f 244 238 243
f 245 239 244
f 246 240 245
f 247 58 36
f 248 241 247
f 249 242 248
f 250 243 249
f 251 244 250
f 252 245 251
f 253 246 252
f 226 63 227
f 227 62 229
f 228 227 230
f 229 61 232
f 230 229 233
f 231 230 234
f 232 60 236
f 233 232 237
f 234 233 238
f 235 234 239
f 236 59 241
f 237 236 242
f 238 237 243
f 239 238 244
f 240 239 245
f 241 58 247
f 242 241 248
f 243 242 249
f 244 243 250
f 245 244 251
f 246 245 252
f 254 36 35
f 255 35 34
f 256 254 255
f 257 34 33
f 258 255 257
f 259 256 258
f 260 33 32
f 261 257 260
f 262 258 261
f 263 259 262
f 264 32 31
f 265 260 264
f 266 261 265
f 267 262 266
f 268 263 267
f 269 31 30
f 270 264 269
f 271 265 270
f 272 266 271
f 273 267 272
f 274 268 273
f 275 30 29
f 276 269 275
f 277 270 276
f 278 271 277
f 279 272 278
f 280 273 279
f 281 274 280
f 254 35 255
f 255 34 257
f 256 255 258
f 257 33 260
f 258 257 261
f 259 258 262
f 260 32 264
f 261 260 265
f 262 261 266
f 263 262 267
f 264 31 269
f 265 264 270
f 266 265 271
f 267 266 272
f 268 267 273
f 269 30 275
f 270 269 276
f 271 270 277
f 272 271 278
f 273 272 279
f 274 273 280
f 275 29 142
f 282 142 144
f 276 275 282
f 283 144 147
f 284 282 283
f 277 276 284
f 285 147 151
f 286 283 285
f 287 284 286
f 278 277 287
f 288 151 156
f 289 285 288
f 290 286 289
f 291 287 290
f 279 278 291
f 292 156 162
f 293 288 292
f 294 289 293
f 295 290 294
f 296 291 295
f 280 279 296
f 297 162 169
f 298 292 297
f 299 293 298
f 300 294 299
f 301 295 300
f 302 296 301
f 281 280 302
f 275 142 282
f 282 144 283
f 276 282 284
f 283 147 285
f 284 283 286
f 277 284 287
f 285 151 288
f 286 285 289
f 287 286 290
f 278 287 291
f 288 156 292
f 289 288 293
f 290 289 294
f 291 290 295
f 279 291 296
f 292 162 297
f 293 292 298
f 294 293 299
f 295 294 300
f 296 295 301
f 280 296 302
f 163 120 170
f 303 170 172
f 164 163 303
f 304 172 175
f 305 303 304
f 165 164 305
f 306 175 179
f 307 304 306
f 308 305 307
f 166 165 308
f 309 179 184
f 310 306 309
f 311 307 310
f 312 308 311
f 167 166 312
f 313 184 190
f 314 309 313
f 315 310 314
f 316 311 315
f 317 312 316
f 168 167 317
f 318 190 197
f 319 313 318
f 320 314 319
f 321 315 320
f 322 316 321
f 323 317 322
f 169 168 323
f 163 170 303
f 303 172 304
f 164 303 305
f 304 175 306
f 305 304 307
f 165 305 308
f 306 179 309
f 307 306 310
f 308 307 311
f 166 308 312
f 309 184 313
f 310 309 314
f 311 310 315
f 312 311 316
f 167 312 317
f 313 190 318
f 314 313 319
f 315 314 320
f 316 315 321
f 317 316 322
f 168 317 323
f 191 92 198
f 324 198 200
f 192 191 324
f 325 200 203
f 326 324 325
f 193 192 326
f 327 203 207
f 328 325 327
f 329 326 328
f 194 193 329
f 330 207 212
f 331 327 330
f 332 328 331
f 333 329 332
f 195 194 333
f 334 212 218
f 335 330 334
f 336 331 335
f 337 332 336
f 338 333 337
f 196 195 338
f 339 218 225
f 340 334 339
f 341 335 340
f 342 336 341
f 343 337 342
f 344 338 343
f 197 196 344
f 191 198 324
f 324 200 325
f 192 324 326
f 325 203 327
f 326 325 328
f 193 326 329
f 327 207 330
f 328 327 331
f 329 328 332
f 194 329 333
f 330 212 334
f 331 330 335
f 332 331 336
f 333 332 337
f 195 333 338
f 334 218 339
f 335 334 340
f 336 335 341
f 337 336 342
f 338 337 343
f 196 338 344
f 219 64 226
f 345 226 228
f 220 219 345
f 346 228 231
f 347 345 346
f 221 220 347
f 348 231 235
f 349 346 348
f 350 347 349
f 222 221 350
f 351 235 240
f 352 348 351
f 353 349 352
f 354 350 353
f 223 222 354
f 355 240 246
f 356 351 355
f 357 352 356
f 358 353 357
f 359 354 358
f 224 223 359
f 360 246 253
f 361 355 360
f 362 356 361
f 363 357 362
f 364 358 363
f 365 359 364
f 225 224 365
f 219 226 345
f 345 228 346
f 220 345 347
f 346 231 348
f 347 346 349
f 221 347 350
f 348 235 351
f 349 348 352
f 350 349 353
f 222 350 354
f 351 240 355
f 352 351 356
f 353 352 357
f 354 353 358
f 223 354 359
f 355 246 360
f 356 355 361
f 357 356 362
f 358 357 363
f 359 358 364
f 224 359 365
f 247 36 254
f 366 254 256
f 248 247 366
f 367 256 259
f 368 366 367
f 249 248 368
f 369 259 263
f 370 367 369
f 371 368 370
f 250 249 371
f 372 263 268
f 373 369 372
f 374 370 373
f 375 371 374
f 251 250 375
f 376 268 274
f 377 372 376
f 378 373 377
f 379 374 378
f 380 375 379
f 252 251 380
f 381 274 281
f 382 376 381
f 383 377 382
f 384 378 383
f 385 379 384
f 386 380 385
f 253 252 386
f 247 254 366
f 366 256 367
f 248 366 368
f 367 259 369
f 368 367 370
f 249 368 371
f 369 263 372
f 370 369 373
f 371 370 374
f 250 371 375
f 372 268 376
f 373 372 377
f 374 373 378
f 375 374 379
f 251 375 380
f 376 274 381
f 377 376 382
f 378 377 383
f 379 378 384
f 380 379 385
f 252 380 386
f 389 387 388
f 391 388 390
f 392 389 391
f 394 390 393
f 395 391 394
f 396 392 395
f 398 393 397
f 399 394 398
f 400 395 399
f 401 396 400
f 403 397 402
f 404 398 403
f 405 399 404
f 406 400 405
f 407 401 406
f 409 402 408
f 410 403 409
f 411 404 410
f 412 405 411
f 413 406 412
f 414 407 413
f 302 408 281
f 301 409 302
f 300 410 301
f 299 411 300
f 298 412 299
f 297 413 298
f 169 414 297
f 389 388 391
f 391 390 394
f 392 391 395
f 394 393 398
f 395 394 399
f 396 395 400
f 398 397 403
f 399 398 404
f 400 399 405
f 401 400 406
f 403 402 409
f 404 403 410
f 405 404 411
f 406 405 412
f 407 406 413
f 409 408 302
f 410 409 301
f 411 410 300
f 412 411 299
f 413 412 298
f 414 413 297
f 388 387 415
f 417 415 416
f 390 388 417
f 419 416 418
f 420 417 419
f 393 390 420
f 422 418 421
f 423 419 422
f 424 420 423
f 397 393 424
f 426 421 425
f 427 422 426
f 428 423 427
f 429 424 428
f 402 397 429
f 431 425 430
f 432 426 431
f 433 427 432
f 434 428 433
f 435 429 434
f 408 402 435
f 386 430 253
f 385 431 386
f 384 432 385
f 383 433 384
f 382 434 383
f 381 435 382
f 281 408 381
f 388 415 417
f 417 416 419
f 390 417 420
f 419 418 422
f 420 419 423
f 393 420 424
f 422 421 426
f 423 422 427
f 424 423 428
f 397 424 429
f 426 425 431
f 427 426 432
f 428 427 433
f 429 428 434
f 402 429 435
f 431 430 386
f 432 431 385
f 433 432 384
f 434 433 383
f 435 434 382
f 408 435 381
f 415 387 436
f 438 436 437
f 416 415 438
f 440 437 439
f 441 438 440
f 418 416 441
f 443 439 442
f 444 440 443
f 445 441 444
f 421 418 445
f 447 442 446
f 448 443 447
f 449 444 448
f 450 445 449
f 425 421 450
f 452 446 451
f 453 447 452
f 454 448 453
f 455 449 454
f 456 450 455
f 430 425 456
f 365 451 225
f 364 452 365
f 363 453 364
f 362 454 363
f 361 455 362
f 360 456 361
f 253 430 360
f 415 436 438
f 438 437 440
f 416 438 441
f 440 439 443
f 441 440 444
f 418 441 445
f 443 442 447
f 444 443 448
f 445 444 449
f 421 445 450
f 447 446 452
f 448 447 453
f 449 448 454
f 450 449 455
f 425 450 456
f 452 451 365
f 453 452 364
f 454 453 363
f 455 454 362
f 456 455 361
f 430 456 360
f 436 387 457
f 459 457 458
f 437 436 459
f 461 458 460
f 462 459 461
f 439 437 462
f 464 460 463
f 465 461 464
f 466 462 465
f 442 439 466
f 468 463 467
f 469 464 468
f 470 465 469
f 471 466 470
f 446 442 471
f 473 467 472
f 474 468 473
f 475 469 474
f 476 470 475
f 477 471 476
f 451 446 477
f 344 472 197
f 343 473 344
f 342 474 343
f 341 475 342
f 340 476 341
f 339 477 340
f 225 451 339
f 436 457 459
f 459 458 461
f 437 459 462
f 461 460 464
f 462 461 465
f 439 462 466
f 464 463 468
f 465 464 469
f 466 465 470
f 442 466 471
f 468 467 473
f 469 468 474
f 470 469 475
f 471 470 476
f 446 471 477
f 473 472 344
f 474 473 343
f 475 474 342
f 476 475 341
f 477 476 340
f 451 477 339
f 457 387 389
f 478 389 392
f 458 457 478
f 479 392 396
f 480 478 479
f 460 458 480
f 481 396 401
f 482 479 481
f 483 480 482
f 463 460 483
f 484 401 407
f 485 481 484
f 486 482 485
f 487 483 486
f 467 463 487
f 488 407 414
f 489 484 488
f 490 485 489
f 491 486 490
f 492 487 491
f 472 467 492
f 323 414 169
f 322 488 323
f 321 489 322
f 320 490 321
f 319 491 320
f 318 492 319
f 197 472 318
f 457 389 478
f 478 392 479
f 458 478 480
f 479 396 481
f 480 479 482
f 460 480 483
f 481 401 484
f 482 481 485
f 483 482 486
f 463 483 487
f 484 407 488
f 485 484 489
f 486 485 490
f 487 486 491
f 467 487 492
f 488 414 323
f 489 488 322
f 490 489 321
f 491 490 320
f 492 491 319
f 472 492 318
