# File exported by Houdini 20.5.445 (www.sidefx.com)
# 492 points
# 2940 vertices
# 980 primitives
# Bounds: [-211.551971, -239.476059, -1006.06433] to [382.325897, 355.853149, -748.736694]
g 
v 119.878113 33.379612 -999.295898
v 117.267639 63.536293 -993.339722
v 160.024658 52.1776276 -991.431274
v 113.418823 92.5009537 -982.043335
v 160.694275 84.615654 -984.293701
v 201.534241 70.3646011 -978.954346
v 107.841797 122.519867 -965.952637
v 157.34613 115.364609 -971.94873
v 202.78064 105.175552 -970.718018
v 242.091919 88.7408066 -961.567993
v 101.17688 155.026459 -947.744873
v 150.703491 147.237625 -955.737305
v 197.794922 138.060684 -957.591309
v 241.986145 126.253128 -952.504395
v 279.170776 107.784576 -940.974121
v 94.7540283 189.844788 -929.768433
v 142.74884 181.581085 -937.997437
v 189.282349 172.052902 -941.385986
v 235.003174 161.641724 -938.898926
v 277.115723 148.014786 -931.149536
v 311.054932 126.680649 -919.425049
v 89.687439 225.443085 -913.454834
v 135.779236 218.307465 -919.931641
v 180.64801 208.679245 -923.786133
v 225.790161 198.171021 -922.889038
v 269.625854 186.024948 -917.479492
v 308.160583 168.979492 -909.003784
v 337.380798 143.406708 -899.21167
v 87.3572388 259.716064 -899.289185
v 131.536438 256.075684 -902.662354
v 175.08136 248.18544 -905.386841
v 218.91925 237.740646 -905.271606
v 262.598389 225.089432 -901.686768
v 302.834473 208.506271 -895.606079
v 335.480408 185.656509 -888.475708
v 358.232269 155.414474 -881.724243
v 145.287659 12.3996887 -997.379883
v 188.166504 31.2341995 -985.212646
v 167.771851 -11.2365532 -991.628784
v 230.245178 48.6687164 -967.645752
v 210.549194 7.73764801 -974.305054
v 186.811707 -36.9043198 -981.937988
v 269.949463 66.0658722 -946.982666
v 251.271545 24.9730606 -953.200073
v 227.962158 -17.4215851 -960.830933
v 201.660034 -63.368454 -968.477539
v 305.636963 83.5464935 -925.33252
v 289.350281 41.438179 -931.178467
v 266.695374 -0.585201263 -938.053833
v 240.539429 -43.9181442 -945.545044
v 211.726257 -89.7956696 -951.488281
v 336.024719 100.276947 -904.531128
v 323.6474 56.9766541 -909.850342
v 302.932556 14.0987282 -915.877808
v 277.003357 -28.6752357 -922.452393
v 248.111023 -71.9345856 -928.422729
v 217.010864 -115.777481 -931.614014
v 360.335419 114.351257 -885.844849
v 352.629028 70.8799515 -890.426758
v 335.420044 26.4954987 -895.375732
v 310.849854 -17.3478508 -900.673462
v 281.750793 -60.0555878 -905.682373
v 250.409363 -101.426895 -909.227783
v 217.781189 -140.628738 -909.902466
v 98.762085 0.543832779 -1004.35596
v 124.28772 -26.461216 -1001.64783
v 80.336731 -34.4557457 -1006.06433
v 146.118042 -54.3330688 -995.64502
v 106.277527 -65.4201355 -1000.95105
v 62.6665039 -68.8280945 -1002.38953
v 163.638977 -82.3251801 -985.265137
v 127.118774 -95.2848663 -992.463501
v 87.9204712 -101.630112 -993.540283
v 43.2797241 -99.5301361 -992.367554
v 176.140137 -109.768082 -969.264404
v 142.113098 -123.936295 -979.112549
v 106.267944 -132.004013 -980.977417
v 65.9610596 -132.728348 -979.03772
v 20.2206421 -124.147263 -976.374756
v 183.438599 -136.287109 -947.870728
v 151.038391 -151.565048 -959.124878
v 117.337891 -160.78833 -963.278564
v 80.0863037 -163.040726 -961.637451
v 38.2678833 -157.200348 -958.54895
v -6.9989624 -141.935013 -955.969849
v 185.739746 -161.701385 -922.160767
v 153.922852 -178.240784 -932.410522
v 121.014343 -188.730484 -938.39624
v 85.3782959 -192.038635 -938.829956
v 46.2040405 -187.460114 -936.164917
v 4.64477539 -174.673645 -934.046753
v -37.1361084 -154.01413 -933.534424
v 79.40625 33.5544281 -1000.80615
v 56.5077515 -0.78613472 -1005.46655
v 39.9329224 34.1946449 -997.100342
v 37.057312 -34.467041 -1005.29517
v 16.8195801 0.107065201 -1000.08545
v 2.33087158 37.1585159 -987.070435
v 18.0757446 -65.0951614 -999.071411
v -3.04290771 -30.7177315 -997.430908
v -20.1729736 4.99730301 -987.727539
v -32.7667847 44.3805542 -971.340332
v -3.28967285 -90.4204712 -986.468384
v -23.5241699 -56.503273 -988.631104
v -40.7374268 -21.6018982 -982.577515
v -54.803833 15.7387161 -969.626709
v -65.2578735 57.5989838 -952.32019
v -28.7269287 -109.309006 -968.171021
v -47.6976929 -75.951973 -973.578369
v -63.7073364 -41.5485229 -971.307007
v -77.0286865 -5.26284027 -962.05957
v -87.6511841 34.0601692 -948.182129
v -95.3641968 77.57621 -932.810547
v -58.3464966 -122.553146 -945.607178
v -76.9509888 -89.2931747 -952.766113
v -92.0316772 -54.6512375 -953.566284
v -103.740295 -18.4235535 -948.03833
v -112.595093 19.8542175 -937.902222
v -118.906677 60.5546722 -926.050537
v -122.866272 102.912994 -914.304688
v 72.6661377 65.7651291 -990.627808
v 31.2802734 68.7526093 -982.298828
v 66.1870728 96.651268 -974.612305
v -7.0614624 74.6423416 -968.77124
v 23.6798096 102.311478 -963.054443
v 59.5883179 128.977875 -955.43396
v -42.7064209 85.729866 -951.597656
v -15.642334 112.00386 -948.437256
v 16.2353516 137.840668 -942.819824
v 53.0319214 163.966293 -936.189697
v -76.4467773 103.472351 -932.834839
v -53.2444458 127.865173 -931.797974
v -24.9221802 151.948746 -928.626587
v 8.67980957 176.309921 -924.148682
v 47.1362915 201.163986 -919.018921
v -108.169983 128.053116 -913.791504
v -89.1697998 151.375122 -913.541382
v -64.3769531 173.728165 -912.469116
v -33.2895508 195.864792 -910.34082
v 3.31304932 217.848969 -907.493042
v 44.0092773 239.440414 -903.833984
v 59.8451538 279.646851 -889.872437
v 11.3048096 259.720154 -892.73645
v 34.7012939 297.604919 -880.171265
v -31.8783569 239.690811 -894.511963
v -16.5309448 278.345642 -881.073486
v 10.6984863 313.113525 -869.893433
v -68.7680664 219.243927 -895.43335
v -60.8720093 259.270142 -881.267822
v -42.2515869 294.267273 -869.264526
v -15.5887451 325.401367 -860.275269
v -98.7496338 197.814255 -895.723877
v -97.9307251 239.0168 -880.732544
v -87.2688599 274.930176 -868.059937
v -69.0112915 306.545044 -858.240967
v -44.6697998 333.473206 -851.831421
v -121.715088 174.047745 -895.834473
v -127.441498 215.795258 -880.051636
v -124.32608 252.57048 -866.455322
v -113.660889 285.159485 -855.855225
v -96.9398193 313.463989 -848.651001
v -74.6226196 335.636475 -844.765381
v -138.683075 145.853271 -896.885254
v -149.388519 186.704453 -880.638672
v -153.223877 223.886719 -865.874756
v -149.966858 257.80188 -853.940063
v -140.042267 288.081421 -845.497681
v -123.91214 313.04071 -840.473145
v -102.494019 330.554321 -838.546143
v -145.764282 102.881577 -903.459717
v -143.466675 56.6063004 -913.72522
v -165.826782 99.9586487 -892.083496
v -138.963898 13.347641 -923.2229
v -165.194763 50.4151459 -901.134277
v -183.218781 93.0603943 -880.635254
v -131.829102 -27.1328545 -930.553345
v -162.60437 4.55989456 -909.064453
v -184.563873 40.4206085 -889.210327
v -198.590363 83.6824265 -870.442505
v -120.691895 -65.9928436 -933.342407
v -156.161133 -38.8936157 -914.251221
v -182.595245 -8.40660858 -895.640503
v -200.328186 28.2303963 -878.11145
v -209.340179 73.2712555 -861.825928
v -104.039185 -104.247421 -930.044556
v -143.436859 -81.7493591 -914.464844
v -174.516022 -55.6027985 -898.376953
v -196.448639 -23.7124557 -882.355591
v -208.735504 15.5606079 -867.751709
v -211.551971 62.2201385 -854.865967
v -81.5788574 -142.141129 -920.170898
v -122.998535 -125.161209 -907.585083
v -158.130219 -103.202469 -894.48645
v -184.688171 -75.0325623 -880.736572
v -200.823914 -39.7781296 -867.799194
v -206.830719 2.59071922 -857.038818
v -204.465851 50.0779037 -848.311523
v -42.7277832 -178.034866 -910.959473
v 2.18737793 -200.260406 -909.993286
v -48.2675781 -199.276184 -888.404175
v 44.7442627 -212.751221 -911.856934
v -1.55950928 -220.314423 -887.19043
v -54.3884277 -214.47084 -865.372437
v 84.269165 -216.161835 -912.680298
v 41.348877 -230.649704 -887.894653
v -7.2401123 -232.575699 -863.602173
v -60.2261353 -221.913284 -841.478882
v 120.976196 -210.90242 -909.459717
v 81.4835205 -231.303696 -885.810669
v 35.9685059 -239.476059 -861.861694
v -13.4060669 -236.035538 -838.223877
v -63.5182495 -221.303116 -816.94458
v 156.543701 -197.347534 -902.603027
v 120.549316 -222.538635 -880.727173
v 77.8538818 -236.064163 -857.717529
v 30.8252563 -238.523026 -834.574951
v -17.1286011 -230.537186 -812.34082
v -61.9857178 -212.893738 -793.376221
v 193.058594 -176.001282 -893.582275
v 161.005737 -203.910141 -874.10144
v 121.45166 -221.733429 -852.567871
v 76.4691772 -229.145706 -830.312378
v 29.5673828 -226.878662 -808.739014
v -15.0631104 -215.897186 -789.140747
v -53.7672729 -197.288803 -773.634399
v 235.979919 -139.639389 -889.550781
v 274.175964 -97.013588 -889.276489
v 251.437195 -134.106888 -872.233398
v 308.413208 -52.9103012 -886.913452
v 293.231384 -88.5148773 -873.943481
v 262.589661 -122.128311 -858.754761
v 337.690735 -7.10879517 -883.35437
v 327.976562 -41.351059 -873.401733
v 305.671448 -73.848053 -862.680054
v 267.991943 -103.170807 -848.707642
v 360.033295 40.3201218 -879.048218
v 355.412903 7.78023148 -870.739746
v 339.055969 -23.8556671 -863.010742
v 309.989075 -52.8204651 -853.738525
v 266.620728 -78.0407562 -840.738037
v 373.200043 88.5076675 -874.251587
v 374.256073 58.7077103 -866.055664
v 363.476044 28.1799927 -859.47229
v 340.602661 -0.680614471 -852.953857
v 305.471985 -26.3780136 -844.821167
v 258.555359 -48.1637726 -833.152344
v 375.523529 136.425858 -869.689697
v 382.325897 111.495514 -860.542969
v 377.384125 83.4778824 -853.503418
v 360.251434 55.112175 -847.661987
v 331.280945 28.5014954 -841.974243
v 291.933472 5.14915848 -834.986328
v 244.887878 -14.5040894 -825.031494
v 362.242767 184.050003 -870.640991
v 335.589417 218.148102 -876.612915
v 360.610565 209.678894 -861.347412
v 299.851685 243.281265 -882.460571
v 331.62384 245.958389 -867.07251
v 352.951416 232.026779 -853.410034
v 257.729492 261.717773 -887.184692
v 293.577515 272.723022 -872.584473
v 321.572693 269.424744 -859.699341
v 337.59375 250.626053 -847.029907
v 212.25531 275.826172 -889.719238
v 248.692017 292.906921 -876.849243
v 280.213074 297.537781 -865.647339
v 302.755737 288.253357 -854.714966
v 313.393738 264.985901 -842.788574
v 165.242065 285.856934 -889.774536
v 199.727966 307.824463 -878.645874
v 231.691284 318.843445 -869.355469
v 257.47113 316.934631 -860.896973
v 274.518982 301.7547 -851.747803
v 280.021973 275.742981 -840.85791
v 115.76825 290.294922 -888.707275
v 146.570862 315.727844 -879.081665
v 176.809326 332.780029 -870.676758
v 203.372681 337.922485 -863.745117
v 223.989197 329.839355 -857.407104
v 236.422974 310.949707 -849.856201
v 238.818604 284.88562 -840.385986
v 90.1203613 311.565308 -879.847168
v 66.1394043 328.176697 -870.880859
v 120.089783 335.315002 -871.428345
v 40.3043823 340.461853 -862.27002
v 93.763855 348.318604 -863.903076
v 147.148804 348.312317 -864.40332
v 10.1785278 348.04718 -854.745361
v 63.9793091 355.168091 -857.355591
v 116.985107 355.324158 -858.689575
v 169.945557 347.650085 -858.77124
v -23.8588257 349.789124 -848.175049
v 28.7496948 355.853149 -851.715942
v 81.9032593 355.16864 -854.017456
v 134.697632 348.271362 -854.327515
v 186.340149 333.715149 -853.166504
v -59.5239258 344.267883 -842.065063
v -11.3721313 349.651978 -846.058594
v 40.0114136 348.136597 -849.328491
v 92.72229 340.988586 -850.348877
v 144.593262 328.313782 -848.834351
v 193.678833 309.207581 -845.535034
v -161.544495 147.280853 -884.932007
v -179.202576 143.861496 -873.312012
v -170.879852 187.020874 -868.330322
v -193.632202 137.369095 -862.780151
v -186.536621 183.495544 -857.574463
v -173.978363 223.535889 -854.372681
v -205.020081 128.906708 -853.938721
v -197.879425 177.54805 -848.157104
v -187.804749 220.188354 -844.852173
v -170.19281 257.23645 -843.753784
v -209.497528 118.74234 -847.509399
v -203.733765 169.320618 -840.817383
v -195.0867 214.175674 -836.501831
v -181.509308 253.528091 -835.337891
v -158.600861 286.818359 -836.67395
v -203.808716 106.035583 -843.325684
v -199.98175 158.200089 -836.696045
v -193.167572 205.098175 -831.15686
v -182.609894 246.375687 -828.856323
v -165.3685 281.635254 -829.941528
v -138.698608 309.908752 -833.39624
v -90.6538696 -166.227219 -896.952637
v -98.0377808 -184.974365 -873.106079
v -132.156952 -147.782944 -884.474365
v -103.660522 -196.480316 -848.266968
v -137.8013 -162.909546 -859.919067
v -164.720734 -122.488693 -871.945801
v -105.953796 -200.220154 -822.897583
v -139.410522 -170.463516 -834.105225
v -165.781647 -133.208939 -847.664673
v -186.21463 -89.4247208 -859.938232
v -102.909119 -195.822845 -797.910889
v -135.579468 -169.922867 -807.760864
v -161.135986 -135.357315 -822.036865
v -180.810425 -93.6551666 -837.452881
v -195.956116 -46.9537811 -850.049683
v -92.4163818 -182.870987 -774.859009
v -124.024567 -160.082108 -782.498535
v -148.942444 -127.712784 -796.270508
v -168.004944 -87.0212936 -814.046021
v -182.932709 -41.4383316 -831.072876
v -195.108215 5.23308945 -843.028076
v 205.75592 -173.822159 -871.345825
v 214.495361 -164.163635 -853.817993
v 167.750061 -196.860321 -851.002075
v 219.120911 -146.77037 -840.823242
v 170.917236 -181.417023 -833.721924
v 123.468018 -208.91478 -829.403564
v 219.201111 -122.197159 -831.133423
v 171.020081 -158.417831 -821.11084
v 122.94342 -187.990692 -812.467773
v 75.572876 -211.159943 -807.585815
v 214.143066 -91.1470413 -823.190063
v 167.705505 -128.220764 -811.467651
v 120.222168 -159.625717 -799.919434
v 72.9630127 -185.261887 -790.84021
v 27.362793 -204.440079 -786.715332
v 203.739075 -53.7730408 -815.838257
v 160.147034 -90.5634537 -803.138428
v 114.645081 -123.215683 -789.886597
v 68.5689087 -151.031174 -778.025757
v 23.8109741 -173.205139 -770.15332
v -17.5322876 -188.741837 -768.311523
v 377.777679 163.465271 -858.512695
v 371.763275 186.671249 -849.393555
v 379.572479 137.781357 -849.351074
v 357.603607 206.389526 -841.670532
v 366.759369 159.828369 -840.189819
v 367.915375 109.997955 -842.273926
v 335.139709 222.556931 -835.29895
v 345.039551 178.144119 -832.345825
v 347.512085 131.623627 -832.977051
v 343.272583 82.0850677 -836.494263
v 302.764404 235.800064 -831.321289
v 313.969299 193.352173 -826.061279
v 317.309937 149.154526 -824.837769
v 314.540283 103.417877 -826.77002
v 306.232727 55.6320953 -830.746216
v 259.402283 248.342941 -830.305542
v 271.076843 207.83696 -822.512085
v 275.145874 164.915253 -818.483032
v 273.48584 121.191727 -817.837891
v 267.385071 77.0260086 -819.834839
v 257.798401 31.7660141 -822.953491
v -26.6526489 131.537964 -801.767212
v 2.52154541 163.311722 -808.352661
v -40.3867798 182.971191 -816.683594
v 37.0256348 191.569992 -815.339478
v -9.83190918 215.791519 -822.874146
v -55.0491943 228.349106 -826.202881
v 76.5743408 216.509171 -821.629517
v 25.6967163 242.347 -828.915405
v -22.7521362 258.83252 -831.749023
v -70.3099976 265.760071 -830.740845
v 119.905212 237.976364 -826.322876
v 65.9654541 264.179382 -833.776245
v 14.3769531 282.021179 -837.182617
v -35.7153931 292.640137 -836.383789
v -84.5735474 294.60199 -832.663086
v 164.241943 255.968887 -829.974121
v 109.691711 282.245605 -837.168091
v 56.0670166 300.464294 -841.316162
v 3.55047607 312.499207 -841.696899
v -47.3213501 318.237732 -838.675049
v -95.7249756 315.338806 -833.741943
v 205.122681 271.384216 -834.519897
v 153.726501 296.954285 -840.694824
v 100.66803 315.71283 -844.858521
v 47.1401367 328.124512 -846.125488
v -5.42816162 335.353943 -844.109497
v -55.5708008 336.103638 -839.969849
v -101.781555 327.736633 -835.317993
v 4.50622559 98.8876038 -789.069092
v 38.4985352 68.6605759 -780.57019
v 41.1584473 131.698914 -797.686523
v 75.8045654 43.9250793 -779.984375
v 81.0532227 103.720947 -792.096558
v 82.2225952 160.797363 -806.348511
v 116.207642 25.1989212 -787.046509
v 122.817444 81.344368 -793.786499
v 127.118164 134.155258 -802.447266
v 127.165894 186.414642 -813.522461
v 158.980408 10.1608772 -798.639526
v 166.859802 63.0055771 -800.799316
v 172.930298 112.197067 -804.272217
v 176.047668 160.431915 -810.245483
v 174.061035 208.812668 -818.957397
v 202.657593 -2.95413971 -812.026611
v 212.436035 46.855835 -811.092896
v 219.957092 93.5521393 -810.347046
v 224.699158 138.923096 -811.773682
v 225.192688 184.348907 -816.284912
v 219.493103 229.150772 -823.957275
v -34.2037964 75.9928436 -786.541382
v -41.8430786 18.7884865 -770.619507
v -2.37335205 38.6340256 -772.529175
v -50.6617432 -36.8847427 -756.828369
v -8.73565674 -18.3501892 -759.075195
v 32.2371216 8.35819244 -767.345703
v -59.2664795 -87.951088 -748.823853
v -15.6325073 -70.2316589 -750.542358
v 27.2913818 -45.5098343 -759.30481
v 70.3175659 -13.9211426 -771.987427
v -64.4425659 -132.009827 -749.300171
v -21.3944092 -116.006729 -748.736694
v 22.6625977 -93.4318237 -756.37207
v 66.9748535 -64.9584427 -768.706299
v 111.857605 -30.2667847 -783.40564
v -63.3287354 -168.252655 -758.163574
v -23.0911865 -155.406631 -754.614624
v 20.4316406 -135.866989 -759.54248
v 65.5509644 -110.342255 -770.192261
v 111.111511 -79.393692 -784.045654
v 156.520264 -43.1133575 -798.827637
v -59.8295898 130.427902 -806.549438
v -90.1577759 127.206696 -811.911499
v -68.5737915 69.5291672 -791.557617
v -118.85199 120.728577 -818.13501
v -99.5956421 62.1819458 -799.194824
v -78.5899048 8.766922 -775.991089
v -145.845306 109.528717 -824.867676
v -128.350159 52.7419128 -808.680664
v -110.634399 -1.26799965 -785.962524
v -89.2814331 -49.230835 -763.34021
v -170.106903 93.1359558 -832.113281
v -154.504913 40.0641174 -819.433228
v -138.870422 -12.5110855 -798.981934
v -121.000305 -61.0579681 -776.246826
v -97.6394043 -101.768204 -757.665894
v -190.280029 72.479187 -839.737183
v -177.297974 23.7728577 -830.827759
v -163.324768 -25.9934387 -814.062744
v -147.388519 -73.5267792 -793.232666
v -127.116455 -114.838547 -774.03125
v -99.9927979 -146.533066 -761.559448
v -77.0841675 184.398544 -820.431274
v -94.8498535 228.683548 -826.750244
v -109.169067 181.368256 -823.368774
v -112.10968 262.849976 -828.334473
v -128.298065 222.592972 -826.513672
v -138.246582 172.480484 -826.551392
v -126.697021 287.483643 -828.863647
v -145.634277 252.176865 -826.434082
v -157.082336 208.941391 -827.214478
v -164.505096 156.616226 -830.480957
v -136.284302 303.414856 -830.005371
v -158.964172 271.615173 -826.945679
v -172.812958 232.8452 -826.546631
v -181.450531 187.318817 -830.204834
v -186.997681 133.995636 -835.893066
g 
f 3 1 2
f 5 2 4
f 6 3 5
f 8 4 7
f 9 5 8
f 10 6 9
f 12 7 11
f 13 8 12
f 14 9 13
f 15 10 14
f 17 11 16
f 18 12 17
f 19 13 18
f 20 14 19
f 21 15 20
f 23 16 22
f 24 17 23
f 25 18 24
f 26 19 25
f 27 20 26
f 28 21 27
f 30 22 29
f 31 23 30
f 32 24 31
f 33 25 32
f 34 26 33
f 35 27 34
f 36 28 35
f 3 2 5
f 5 4 8
f 6 5 9
f 8 7 12
f 9 8 13
f 10 9 14
f 12 11 17
f 13 12 18
f 14 13 19
f 15 14 20
f 17 16 23
f 18 17 24
f 19 18 25
f 20 19 26
f 21 20 27
f 23 22 30
f 24 23 31
f 25 24 32
f 26 25 33
f 27 26 34
f 28 27 35
f 37 1 3
f 38 3 6
f 39 37 38
f 40 6 10
f 41 38 40
f 42 39 41
f 43 10 15
f 44 40 43
f 45 41 44
f 46 42 45
f 47 15 21
f 48 43 47
f 49 44 48
f 50 45 49
f 51 46 50
f 52 21 28
f 53 47 52
f 54 48 53
f 55 49 54
f 56 50 55
f 57 51 56
f 58 28 36
f 59 52 58
f 60 53 59
f 61 54 60
f 62 55 61
f 63 56 62
f 64 57 63
f 37 3 38
f 38 6 40
f 39 38 41
f 40 10 43
f 41 40 44
f 42 41 45
f 43 15 47
f 44 43 48
f 45 44 49
f 46 45 50
f 47 21 52
f 48 47 53
f 49 48 54
f 50 49 55
f 51 50 56
f 52 28 58
f 53 52 59
f 54 53 60
f 55 54 61
f 56 55 62
f 57 56 63
f 65 1 37
f 66 37 39
f 67 65 66
f 68 39 42
f 69 66 68
f 70 67 69
f 71 42 46
f 72 68 71
f 73 69 72
f 74 70 73
f 75 46 51
f 76 71 75
f 77 72 76
f 78 73 77
f 79 74 78
f 80 51 57
f 81 75 80
f 82 76 81
f 83 77 82
f 84 78 83
f 85 79 84
f 86 57 64
f 87 80 86
f 88 81 87
f 89 82 88
f 90 83 89
f 91 84 90
f 92 85 91
f 65 37 66
f 66 39 68
f 67 66 69
f 68 42 71
f 69 68 72
f 70 69 73
f 71 46 75
f 72 71 76
f 73 72 77
f 74 73 78
f 75 51 80
f 76 75 81
f 77 76 82
f 78 77 83
f 79 78 84
f 80 57 86
f 81 80 87
f 82 81 88
f 83 82 89
f 84 83 90
f 85 84 91
f 93 1 65
f 94 65 67
f 95 93 94
f 96 67 70
f 97 94 96
f 98 95 97
f 99 70 74
f 100 96 99
f 101 97 100
f 102 98 101
f 103 74 79
f 104 99 103
f 105 100 104
f 106 101 105
f 107 102 106
f 108 79 85
f 109 103 108
f 110 104 109
f 111 105 110
f 112 106 111
f 113 107 112
f 114 85 92
f 115 108 114
f 116 109 115
f 117 110 116
f 118 111 117
f 119 112 118
f 120 113 119
f 93 65 94
f 94 67 96
f 95 94 97
f 96 70 99
f 97 96 100
f 98 97 101
f 99 74 103
f 100 99 104
f 101 100 105
f 102 101 106
f 103 79 108
f 104 103 109
f 105 104 110
f 106 105 111
f 107 106 112
f 108 85 114
f 109 108 115
f 110 109 116
f 111 110 117
f 112 111 118
f 113 112 119
f 2 1 93
f 121 93 95
f 4 2 121
f 122 95 98
f 123 121 122
f 7 4 123
f 124 98 102
f 125 122 124
f 126 123 125
f 11 7 126
f 127 102 107
f 128 124 127
f 129 125 128
f 130 126 129
f 16 11 130
f 131 107 113
f 132 127 131
f 133 128 132
f 134 129 133
f 135 130 134
f 22 16 135
f 136 113 120
f 137 131 136
f 138 132 137
f 139 133 138
f 140 134 139
f 141 135 140
f 29 22 141
f 2 93 121
f 121 95 122
f 4 121 123
f 122 98 124
f 123 122 125
f 7 123 126
f 124 102 127
f 125 124 128
f 126 125 129
f 11 126 130
f 127 107 131
f 128 127 132
f 129 128 133
f 130 129 134
f 16 130 135
f 131 113 136
f 132 131 137
f 133 132 138
f 134 133 139
f 135 134 140
f 22 135 141
f 142 29 141
f 143 141 140
f 144 142 143
f 145 140 139
f 146 143 145
f 147 144 146
f 148 139 138
f 149 145 148
f 150 146 149
f 151 147 150
f 152 138 137
f 153 148 152
f 154 149 153
f 155 150 154
f 156 151 155
f 157 137 136
f 158 152 157
f 159 153 158
f 160 154 159
f 161 155 160
f 162 156 161
f 163 136 120
f 164 157 163
f 165 158 164
f 166 159 165
f 167 160 166
f 168 161 167
f 169 162 168
f 142 141 143
f 143 140 145
f 144 143 146
f 145 139 148
f 146 145 149
f 147 146 150
f 148 138 152
f 149 148 153
f 150 149 154
f 151 150 155
f 152 137 157
f 153 152 158
f 154 153 159
f 155 154 160
f 156 155 161
f 157 136 163
f 158 157 164
f 159 158 165
f 160 159 166
f 161 160 167
f 162 161 168
f 170 120 119
f 171 119 118
f 172 170 171
f 173 118 117
f 174 171 173
f 175 172 174
f 176 117 116
f 177 173 176
f 178 174 177
f 179 175 178
f 180 116 115
f 181 176 180
f 182 177 181
f 183 178 182
f 184 179 183
f 185 115 114
f 186 180 185
f 187 181 186
f 188 182 187
f 189 183 188
f 190 184 189
f 191 114 92
f 192 185 191
f 193 186 192
f 194 187 193
f 195 188 194
f 196 189 195
f 197 190 196
f 170 119 171
f 171 118 173
f 172 171 174
f 173 117 176
f 174 173 177
f 175 174 178
f 176 116 180
f 177 176 181
f 178 177 182
f 179 178 183
f 180 115 185
f 181 180 186
f 182 181 187
f 183 182 188
f 184 183 189
f 185 114 191
f 186 185 192
f 187 186 193
f 188 187 194
f 189 188 195
f 190 189 196
f 198 92 91
f 199 91 90
f 200 198 199
f 201 90 89
f 202 199 201
f 203 200 202
f 204 89 88
f 205 201 204
f 206 202 205
f 207 203 206
f 208 88 87
f 209 204 208
f 210 205 209
f 211 206 210
f 212 207 211
f 213 87 86
f 214 208 213
f 215 209 214
f 216 210 215
f 217 211 216
f 218 212 217
f 219 86 64
f 220 213 219
f 221 214 220
f 222 215 221
f 223 216 222
f 224 217 223
f 225 218 224
f 198 91 199
f 199 90 201
f 200 199 202
f 201 89 204
f 202 201 205
f 203 202 206
f 204 88 208
f 205 204 209
f 206 205 210
f 207 206 211
f 208 87 213
f 209 208 214
f 210 209 215
f 211 210 216
f 212 211 217
f 213 86 219
f 214 213 220
f 215 214 221
f 216 215 222
f 217 216 223
f 218 217 224
f 226 64 63
f 227 63 62
f 228 226 227
f 229 62 61
f 230 227 229
f 231 228 230
f 232 61 60
f 233 229 232
f 234 230 233
f 235 231 234
f 236 60 59
f 237 232 236
f 238 233 237
f 239 234 238
f 240 235 239
f 241 59 58
f 242 236 241
f 243 237 242
f 244 238 243
f 245 239 244
f 246 240 245
f 247 58 36
f 248 241 247
f 249 242 248
f 250 243 249
f 251 244 250
f 252 245 251
f 253 246 252
f 226 63 227
f 227 62 229
f 228 227 230
f 229 61 232
f 230 229 233
f 231 230 234
f 232 60 236
f 233 232 237
f 234 233 238
f 235 234 239
f 236 59 241
f 237 236 242
f 238 237 243
f 239 238 244
f 240 239 245
f 241 58 247
f 242 241 248
f 243 242 249
f 244 243 250
f 245 244 251
f 246 245 252
f 254 36 35
f 255 35 34
f 256 254 255
f 257 34 33
f 258 255 257
f 259 256 258
f 260 33 32
f 261 257 260
f 262 258 261
f 263 259 262
f 264 32 31
f 265 260 264
f 266 261 265
f 267 262 266
f 268 263 267
f 269 31 30
f 270 264 269
f 271 265 270
f 272 266 271
f 273 267 272
f 274 268 273
f 275 30 29
f 276 269 275
f 277 270 276
f 278 271 277
f 279 272 278
f 280 273 279
f 281 274 280
f 254 35 255
f 255 34 257
f 256 255 258
f 257 33 260
f 258 257 261
f 259 258 262
f 260 32 264
f 261 260 265
f 262 261 266
f 263 262 267
f 264 31 269
f 265 264 270
f 266 265 271
f 267 266 272
f 268 267 273
f 269 30 275
f 270 269 276
f 271 270 277
f 272 271 278
f 273 272 279
f 274 273 280
f 275 29 142
f 282 142 144
f 276 275 282
f 283 144 147
f 284 282 283
f 277 276 284
f 285 147 151
f 286 283 285
f 287 284 286
f 278 277 287
f 288 151 156
f 289 285 288
f 290 286 289
f 291 287 290
f 279 278 291
f 292 156 162
f 293 288 292
f 294 289 293
f 295 290 294
f 296 291 295
f 280 279 296
f 297 162 169
f 298 292 297
f 299 293 298
f 300 294 299
f 301 295 300
f 302 296 301
f 281 280 302
f 275 142 282
f 282 144 283
f 276 282 284
f 283 147 285
f 284 283 286
f 277 284 287
f 285 151 288
f 286 285 289
f 287 286 290
f 278 287 291
f 288 156 292
f 289 288 293
f 290 289 294
f 291 290 295
f 279 291 296
f 292 162 297
f 293 292 298
f 294 293 299
f 295 294 300
f 296 295 301
f 280 296 302
f 163 120 170
f 303 170 172
f 164 163 303
f 304 172 175
f 305 303 304
f 165 164 305
f 306 175 179
f 307 304 306
f 308 305 307
f 166 165 308
f 309 179 184
f 310 306 309
f 311 307 310
f 312 308 311
f 167 166 312
f 313 184 190
f 314 309 313
f 315 310 314
f 316 311 315
f 317 312 316
f 168 167 317
f 318 190 197
f 319 313 318
f 320 314 319
f 321 315 320
f 322 316 321
f 323 317 322
f 169 168 323
f 163 170 303
f 303 172 304
f 164 303 305
f 304 175 306
f 305 304 307
f 165 305 308
f 306 179 309
f 307 306 310
f 308 307 311
f 166 308 312
f 309 184 313
f 310 309 314
f 311 310 315
f 312 311 316
f 167 312 317
f 313 190 318
f 314 313 319
f 315 314 320
f 316 315 321
f 317 316 322
f 168 317 323
f 191 92 198
f 324 198 200
f 192 191 324
f 325 200 203
f 326 324 325
f 193 192 326
f 327 203 207
f 328 325 327
f 329 326 328
f 194 193 329
f 330 207 212
f 331 327 330
f 332 328 331
f 333 329 332
f 195 194 333
f 334 212 218
f 335 330 334
f 336 331 335
f 337 332 336
f 338 333 337
f 196 195 338
f 339 218 225
f 340 334 339
f 341 335 340
f 342 336 341
f 343 337 342
f 344 338 343
f 197 196 344
f 191 198 324
f 324 200 325
f 192 324 326
f 325 203 327
f 326 325 328
f 193 326 329
f 327 207 330
f 328 327 331
f 329 328 332
f 194 329 333
f 330 212 334
f 331 330 335
f 332 331 336
f 333 332 337
f 195 333 338
f 334 218 339
f 335 334 340
f 336 335 341
f 337 336 342
f 338 337 343
f 196 338 344
f 219 64 226
f 345 226 228
f 220 219 345
f 346 228 231
f 347 345 346
f 221 220 347
f 348 231 235
f 349 346 348
f 350 347 349
f 222 221 350
f 351 235 240
f 352 348 351
f 353 349 352
f 354 350 353
f 223 222 354
f 355 240 246
f 356 351 355
f 357 352 356
f 358 353 357
f 359 354 358
f 224 223 359
f 360 246 253
f 361 355 360
f 362 356 361
f 363 357 362
f 364 358 363
f 365 359 364
f 225 224 365
f 219 226 345
f 345 228 346
f 220 345 347
f 346 231 348
f 347 346 349
f 221 347 350
f 348 235 351
f 349 348 352
f 350 349 353
f 222 350 354
f 351 240 355
f 352 351 356
f 353 352 357
f 354 353 358
f 223 354 359
f 355 246 360
f 356 355 361
f 357 356 362
f 358 357 363
f 359 358 364
f 224 359 365
f 247 36 254
f 366 254 256
f 248 247 366
f 367 256 259
f 368 366 367
f 249 248 368
f 369 259 263
f 370 367 369
f 371 368 370
f 250 249 371
f 372 263 268
f 373 369 372
f 374 370 373
f 375 371 374
f 251 250 375
f 376 268 274
f 377 372 376
f 378 373 377
f 379 374 378
f 380 375 379
f 252 251 380
f 381 274 281
f 382 376 381
f 383 377 382
f 384 378 383
f 385 379 384
f 386 380 385
f 253 252 386
f 247 254 366
f 366 256 367
f 248 366 368
f 367 259 369
f 368 367 370
f 249 368 371
f 369 263 372
f 370 369 373
f 371 370 374
f 250 371 375
f 372 268 376
f 373 372 377
f 374 373 378
f 375 374 379
f 251 375 380
f 376 274 381
f 377 376 382
f 378 377 383
f 379 378 384
f 380 379 385
f 252 380 386
f 389 387 388
f 391 388 390
f 392 389 391
f 394 390 393
f 395 391 394
f 396 392 395
f 398 393 397
f 399 394 398
f 400 395 399
f 401 396 400
f 403 397 402
f 404 398 403
f 405 399 404
f 406 400 405
f 407 401 406
f 409 402 408
f 410 403 409
f 411 404 410
f 412 405 411
f 413 406 412
f 414 407 413
f 302 408 281
f 301 409 302
f 300 410 301
f 299 411 300
f 298 412 299
f 297 413 298
f 169 414 297
f 389 388 391
f 391 390 394
f 392 391 395
f 394 393 398
f 395 394 399
f 396 395 400
f 398 397 403
f 399 398 404
f 400 399 405
f 401 400 406
f 403 402 409
f 404 403 410
f 405 404 411
f 406 405 412
f 407 406 413
f 409 408 302
f 410 409 301
f 411 410 300
f 412 411 299
f 413 412 298
f 414 413 297
f 388 387 415
f 417 415 416
f 390 388 417
f 419 416 418
f 420 417 419
f 393 390 420
f 422 418 421
f 423 419 422
f 424 420 423
f 397 393 424
f 426 421 425
f 427 422 426
f 428 423 427
f 429 424 428
f 402 397 429
f 431 425 430
f 432 426 431
f 433 427 432
f 434 428 433
f 435 429 434
f 408 402 435
f 386 430 253
f 385 431 386
f 384 432 385
f 383 433 384
f 382 434 383
f 381 435 382
f 281 408 381
f 388 415 417
f 417 416 419
f 390 417 420
f 419 418 422
f 420 419 423
f 393 420 424
f 422 421 426
f 423 422 427
f 424 423 428
f 397 424 429
f 426 425 431
f 427 426 432
f 428 427 433
f 429 428 434
f 402 429 435
f 431 430 386
f 432 431 385
f 433 432 384
f 434 433 383
f 435 434 382
f 408 435 381
f 415 387 436
f 438 436 437
f 416 415 438
f 440 437 439
f 441 438 440
f 418 416 441
f 443 439 442
f 444 440 443
f 445 441 444
f 421 418 445
f 447 442 446
f 448 443 447
f 449 444 448
f 450 445 449
f 425 421 450
f 452 446 451
f 453 447 452
f 454 448 453
f 455 449 454
f 456 450 455
f 430 425 456
f 365 451 225
f 364 452 365
f 363 453 364
f 362 454 363
f 361 455 362
f 360 456 361
f 253 430 360
f 415 436 438
f 438 437 440
f 416 438 441
f 440 439 443
f 441 440 444
f 418 441 445
f 443 442 447
f 444 443 448
f 445 444 449
f 421 445 450
f 447 446 452
f 448 447 453
f 449 448 454
f 450 449 455
f 425 450 456
f 452 451 365
f 453 452 364
f 454 453 363
f 455 454 362
f 456 455 361
f 430 456 360
f 436 387 457
f 459 457 458
f 437 436 459
f 461 458 460
f 462 459 461
f 439 437 462
f 464 460 463
f 465 461 464
f 466 462 465
f 442 439 466
f 468 463 467
f 469 464 468
f 470 465 469
f 471 466 470
f 446 442 471
f 473 467 472
f 474 468 473
f 475 469 474
f 476 470 475
f 477 471 476
f 451 446 477
f 344 472 197
f 343 473 344
f 342 474 343
f 341 475 342
f 340 476 341
f 339 477 340
f 225 451 339
f 436 457 459
f 459 458 461
f 437 459 462
f 461 460 464
f 462 461 465
f 439 462 466
f 464 463 468
f 465 464 469
f 466 465 470
f 442 466 471
f 468 467 473
f 469 468 474
f 470 469 475
f 471 470 476
f 446 471 477
f 473 472 344
f 474 473 343
f 475 474 342
f 476 475 341
f 477 476 340
f 451 477 339
f 457 387 389
f 478 389 392
f 458 457 478
f 479 392 396
f 480 478 479
f 460 458 480
f 481 396 401
f 482 479 481
f 483 480 482
f 463 460 483
f 484 401 407
f 485 481 484
f 486 482 485
f 487 483 486
f 467 463 487
f 488 407 414
f 489 484 488
f 490 485 489
f 491 486 490
f 492 487 491
f 472 467 492
f 323 414 169
f 322 488 323
f 321 489 322
f 320 490 321
f 319 491 320
f 318 492 319
f 197 472 318
f 457 389 478
f 478 392 479
f 458 478 480
f 479 396 481
f 480 479 482
f 460 480 483
f 481 401 484
f 482 481 485
f 483 482 486
f 463 483 487
f 484 407 488
f 485 484 489
f 486 485 490
f 487 486 491
f 467 487 492
f 488 414 323
f 489 488 322
f 490 489 321
f 491 490 320
f 492 491 319
f 472 492 318
