# File exported by Houdini 20.5.445 (www.sidefx.com)
# 492 points
# 2940 vertices
# 980 primitives
# Bounds: [-132.132141, -188.067398, -1088.77893] to [302.906067, 304.444519, -666.022095]
g 
v 74.4874268 111.341072 -993.030396
v 63.9248047 148.652405 -994.832642
v 93.604126 114.304085 -977.864746
v 54.2319946 181.091568 -994.324585
v 85.7190552 153.274872 -978.505737
v 114.661865 114.807671 -963.718872
v 46.303772 208.834183 -992.237061
v 79.2022705 186.13942 -977.546387
v 109.169373 155.031036 -963.514893
v 138.060486 115.004921 -950.323975
v 41.2501221 232.276108 -988.946777
v 74.8797607 214.261612 -975.940796
v 105.704407 188.405014 -962.272217
v 135.32605 156.217133 -949.616821
v 164.17749 116.973549 -936.910522
v 38.8826294 252.047256 -984.288818
v 72.7875977 238.936234 -973.66272
v 104.344482 217.64183 -960.710571
v 134.748474 190.809067 -948.11731
v 164.302979 159.165451 -935.78125
v 192.140747 122.226295 -922.203613
v 38.163208 268.483887 -977.703491
v 72.1379395 260.80304 -969.783691
v 104.52655 244.477554 -958.245605
v 135.980774 222.181931 -945.904663
v 166.492676 195.61351 -933.454468
v 195.096069 165.30574 -920.135376
v 220.122986 130.917572 -904.989136
v 38.315979 281.567322 -968.009644
v 71.78125 279.428467 -962.750488
v 105.184143 268.978333 -953.037476
v 138.200378 251.725876 -941.38269
v 170.250366 229.571732 -928.958008
v 200.050659 203.531204 -915.452393
v 225.771851 174.138596 -900.591064
v 245.813171 141.481873 -884.606934
v 96.0656128 72.429863 -979.529541
v 117.338989 71.6026382 -963.980957
v 116.881836 30.0988274 -965.109131
v 139.965088 70.2397995 -950.273438
v 139.583191 27.6695786 -949.803955
v 137.176392 -13.4494438 -949.669067
v 164.368347 71.2796021 -936.880737
v 163.274109 27.1332321 -936.094604
v 161.007568 -15.0334244 -934.369507
v 157.461487 -54.8328857 -931.460693
v 190.870544 76.2077255 -922.113892
v 188.272156 31.0464897 -921.538818
v 185.715637 -12.8165321 -919.238159
v 182.477661 -53.5280151 -914.767334
v 178.266052 -90.6845856 -908.586426
v 218.611633 85.6884918 -904.388306
v 215.053162 39.9991226 -903.914795
v 211.706726 -5.20895767 -901.688477
v 208.730286 -47.8063812 -896.526611
v 204.790649 -86.0973969 -889.620605
v 199.648682 -119.506226 -881.83374
v 245.863647 99.0695343 -882.495605
v 242.819702 54.1365128 -881.268555
v 239.359619 8.10086823 -879.04895
v 236.731506 -36.5911484 -873.913818
v 233.377075 -77.2588196 -867.05957
v 228.355103 -112.243759 -859.825073
v 221.003723 -140.801041 -853.229492
v 71.3396606 82.1941986 -1000.42737
v 94.0327148 37.9264755 -984.273682
v 70.6952515 50.267868 -1006.99207
v 115.200378 -7.48344421 -967.222778
v 94.5856934 2.59235382 -987.553101
v 72.4187012 16.7705345 -1011.79114
v 135.589722 -51.8851547 -948.401123
v 116.375488 -43.9684296 -966.974609
v 97.2843018 -32.3872833 -988.669678
v 75.857666 -16.7822342 -1013.34143
v 156.161377 -91.9764404 -925.398193
v 137.276733 -87.4573669 -943.67627
v 119.712891 -78.5527115 -963.935303
v 101.269104 -65.5295639 -986.67334
v 79.6310425 -48.2956543 -1011.0802
v 177.425537 -125.639542 -897.640625
v 158.262939 -125.4617 -915.496582
v 141.11554 -120.304184 -935.532471
v 123.870056 -110.001877 -957.631714
v 104.663208 -94.9667816 -980.941895
v 81.5895996 -75.173233 -1005.31274
v 199.469971 -151.634842 -866.227905
v 179.660706 -156.346146 -882.228394
v 161.886658 -155.631882 -901.499146
v 144.434998 -148.872604 -923.53833
v 125.565247 -135.961075 -947.470581
v 104.107239 -117.784576 -971.83313
v 79.4202271 -95.0922623 -996.446533
v 49.6304321 128.684937 -1010.88306
v 46.4747314 97.5857544 -1021.71619
v 24.0543823 141.207001 -1028.54041
v 46.3277588 64.83992 -1030.63464
v 21.2434692 108.450363 -1042.18689
v -2.43365479 149.576141 -1044.69202
v 48.7942505 31.302063 -1035.76514
v 21.6332397 75.2257767 -1051.77856
v -5.10067749 115.981804 -1060.13879
v -29.5230408 154.027283 -1058.12366
v 52.3977051 -1.91869736 -1036.78674
v 24.1585083 41.8940735 -1056.66052
v -4.75515747 82.7011414 -1069.87842
v -32.4501343 120.406471 -1074.15466
v -55.9212036 154.687592 -1066.97144
v 55.0892944 -32.8520355 -1033.85242
v 26.848877 9.33588982 -1057.2998
v -3.12454224 49.9482307 -1074.54297
v -32.8171997 87.7521286 -1083.37805
v -59.3692932 122.029579 -1081.92273
v -79.6539001 152.222076 -1069.13977
v 54.6650391 -58.9105988 -1026.32812
v 27.208313 -20.5217323 -1052.94336
v -2.52371216 18.3885689 -1073.83398
v -33.032074 55.8905029 -1086.44666
v -61.1877747 90.3994522 -1088.77893
v -83.8982849 121.103706 -1080.66589
v -99.0677795 147.649567 -1063.26868
v 34.9312744 166.473587 -1011.76318
v 6.56536865 177.67717 -1026.41394
v 22.609375 196.954361 -1009.05188
v -21.3892212 183.504532 -1038.17603
v -6.94055176 205.407578 -1019.87415
v 13.5324707 221.507187 -1003.91064
v -48.7547302 184.382095 -1046.65259
v -35.22995 207.868088 -1027.19873
v -16.237915 226.544754 -1010.73462
v 8.23034668 241.245743 -997.061768
v -74.2567749 180.924454 -1050.08508
v -62.0496826 205.116196 -1030.2655
v -44.1958008 225.5056 -1013.08667
v -21.4269714 242.795914 -999.393921
v 5.99365234 257.261536 -988.387817
v -96.3137512 174.120712 -1046.16357
v -86.6133423 198.057724 -1027.00757
v -70.5359192 219.470383 -1009.4552
v -49.1387634 238.676559 -995.405273
v -23.3578796 255.792648 -984.949097
v 6.02618408 270.417358 -976.640991
v 17.7615356 284.244385 -959.653564
v -17.6315613 268.484619 -966.869141
v -3.26113892 281.766663 -946.765503
v -48.0715332 250.13063 -974.756104
v -40.1192322 262.275513 -953.536133
v -24.5887451 276.033203 -931.040527
v -73.5280151 230.255905 -985.771729
v -70.3078003 241.333847 -961.991943
v -61.4245911 254.185501 -938.391846
v -45.0995178 267.67804 -913.499878
v -93.5890808 208.904556 -1000.96375
v -94.3904419 219.460953 -974.166626
v -90.2709656 231.56987 -947.957642
v -80.2850037 244.491714 -921.781372
v -63.3633118 256.748413 -894.56604
v -107.258087 185.413803 -1019.78906
v -112.01709 196.031784 -990.611084
v -111.959869 207.944229 -961.221069
v -106.526947 220.607285 -932.148682
v -95.3291016 233.060501 -903.379272
v -78.3283997 243.405594 -874.80481
v -113.217651 158.69548 -1039.94556
v -121.803253 169.319168 -1010.73389
v -125.807526 181.310867 -978.989502
v -124.520844 194.16011 -946.577881
v -117.671478 206.977798 -914.627808
v -105.646545 218.344864 -884.272095
v -88.7809448 226.520309 -856.056396
v -106.583405 126.729591 -1063.81091
v -88.1907349 95.5867081 -1081.25122
v -109.310699 105.056534 -1059.01453
v -62.8725586 62.0518341 -1087.22034
v -88.164093 70.7115479 -1074.69629
v -108.064819 84.225296 -1048.02539
v -33.302063 26.3577423 -1081.30933
v -61.6608582 35.8162193 -1077.07642
v -85.3771973 48.2890244 -1060.12683
v -103.824249 65.851387 -1029.97522
v -2.35510254 -11.0787697 -1064.19055
v -32.1793518 -0.105558395 -1066.4165
v -58.9366455 13.0313396 -1057.61047
v -80.7727661 29.4619789 -1037.0061
v -97.269165 50.404541 -1004.83276
v 27.9459839 -49.271698 -1037.8656
v -1.63256836 -37.2664413 -1043.85828
v -30.1481934 -23.0540543 -1041.28613
v -54.8842468 -6.06005478 -1028.61792
v -74.4623413 14.0170708 -1005.76892
v -88.4321594 36.7999039 -974.034058
v 57.2022095 -87.1887054 -1004.80737
v 29.7886353 -75.6116409 -1011.04578
v 0.602386475 -60.9700775 -1012.14624
v -26.2795715 -43.0909958 -1005.57117
v -48.6779175 -22.3105774 -990.529419
v -65.3780212 0.12556839 -967.848145
v -76.4247131 23.3135185 -939.875244
v 89.6787109 -122.879349 -968.815796
v 117.477356 -147.67482 -939.858276
v 97.3181763 -143.1577 -937.822388
v 141.08667 -165.432114 -912.411377
v 127.822144 -166.677963 -905.892212
v 103.315308 -154.628738 -904.485718
v 161.845276 -175.674423 -886.807373
v 153.561646 -181.6548 -876.901123
v 136.727356 -174.583939 -870.973755
v 109.144775 -156.402298 -869.684326
v 181.444458 -178.5439 -864.956787
v 177.041138 -188.067398 -851.581909
v 165.326599 -185.348953 -842.083862
v 145.648376 -171.518234 -836.179565
v 116.41394 -149.943558 -834.182251
v 202.571228 -174.581375 -846.786621
v 200.786987 -186.69841 -830.289062
v 192.736877 -187.474442 -817.328979
v 177.822449 -177.683273 -807.822083
v 155.661133 -159.823715 -801.345215
v 125.858643 -137.465973 -798.296814
v 226.632141 -163.586838 -832.437622
v 227.456177 -177.873978 -813.612793
v 222.5047 -181.7892 -797.147827
v 210.600891 -175.608047 -783.690308
v 191.816101 -161.38765 -773.246216
v 166.899231 -142.060806 -766.038818
v 136.909851 -120.531693 -762.828613
v 247.176697 -138.624252 -828.692993
v 255.861572 -104.252853 -834.968872
v 271.40271 -128.296066 -805.575928
v 260.25647 -63.7075653 -842.0448
v 278.996582 -88.1085129 -811.893799
v 290.631958 -110.593475 -784.155884
v 262.299561 -18.5711555 -848.802002
v 281.20105 -42.826416 -818.912354
v 295.522705 -65.8353119 -790.561279
v 301.209534 -87.3513412 -764.541443
v 264.080139 29.2767906 -853.615967
v 281.394653 5.69197655 -825.072754
v 295.03064 -17.2746849 -797.067505
v 302.906067 -39.6100998 -770.764709
v 300.909912 -60.2887268 -746.887695
v 266.820435 77.9322815 -856.177002
v 282.056396 56.1755142 -829.115356
v 293.370361 33.8106232 -801.967224
v 299.824646 11.2199421 -775.935974
v 299.6474 -10.7257233 -752.186279
v 290.718323 -30.2625694 -731.076416
v 267.612854 125.90699 -859.420654
v 282.79071 107.79641 -832.375
v 292.130188 87.2400055 -805.169556
v 295.846802 65.0180359 -779.102661
v 293.892639 42.4088478 -755.337708
v 286.710632 21.0170097 -734.623047
v 274.462524 2.75098038 -716.872437
v 256.401184 172.191055 -872.575928
v 233.323364 206.480148 -891.061646
v 260.310913 199.223557 -860.264771
v 204.250183 234.96904 -907.450562
v 233.46698 233.079788 -880.854248
v 255.916687 221.294876 -847.438965
v 171.209656 258.317688 -921.607544
v 200.91571 259.381592 -898.044678
v 225.655762 253.362595 -869.144897
v 242.980652 238.319992 -833.865723
v 135.805481 276.529968 -934.141724
v 164.597412 279.50531 -912.278687
v 190.072144 276.899841 -886.345825
v 210.092041 267.620178 -855.484497
v 222.351257 250.870438 -819.550903
v 98.7496948 288.782593 -945.396851
v 125.358093 293.650085 -924.550781
v 150.259827 293.540344 -900.090454
v 171.502502 287.927612 -871.860107
v 186.855591 276.492859 -839.731934
v 195.517761 259.021057 -804.357056
v 60.1967773 292.756531 -953.137939
v 83.1564331 300.2995 -934.322388
v 106.058594 303.138184 -911.289551
v 127.187134 300.666992 -884.362061
v 144.397705 292.849731 -854.219849
v 156.625671 280.006104 -821.819458
v 164.124878 262.745728 -788.636353
v 39.175293 295.916016 -941.402954
v 17.6950073 293.458496 -925.452393
v 60.822937 302.980286 -919.721924
v -4.07025146 287.021667 -907.041504
v 38.2404785 299.556335 -901.465698
v 81.6439819 304.444519 -893.96167
v -25.2712097 276.496582 -886.638184
v 15.269165 290.972839 -880.575439
v 57.1008301 299.157104 -873.319092
v 100.007202 299.915833 -864.06311
v -45.0895691 262.00592 -864.696045
v -7.65679932 276.86145 -857.152344
v 32.2120361 287.269531 -849.447876
v 73.2271118 291.796204 -840.195801
v 114.833923 289.401245 -830.479492
v -61.5486145 243.164688 -842.042358
v -28.7728577 257.120056 -831.439453
v 8.00854492 268.237488 -821.860474
v 47.0737915 275.488525 -811.846436
v 86.9126587 277.44281 -802.097656
v 126.335266 273.173889 -794.272034
v -120.901642 138.501923 -1035.3291
v -122.999573 119.137306 -1025.97754
v -129.111176 151.052399 -1001.84326
v -120.714203 101.416595 -1011.20227
v -130.155029 134.186523 -988.839233
v -132.132141 164.912338 -966.083496
v -114.808319 85.6198502 -990.115356
v -126.111542 118.420769 -970.570923
v -131.276703 149.403839 -949.170654
v -129.114258 178.84584 -929.386597
v -105.574738 70.7774277 -962.734741
v -117.714325 102.98835 -946.354858
v -124.751312 133.799866 -927.166992
v -125.94809 163.406143 -908.417603
v -120.116119 191.737442 -893.247925
v -92.1027222 55.1540298 -930.076904
v -104.177063 86.3075867 -916.13208
v -112.164032 116.64695 -899.286133
v -115.620789 146.364685 -882.27417
v -113.581665 175.165543 -867.995361
v -104.857239 202.172073 -858.802368
v 63.3494263 -112.07225 -974.12439
v 66.8508301 -128.080521 -940.958496
v 33.0030518 -97.2268829 -976.68042
v 70.0611572 -134.932297 -905.925537
v 34.4636841 -109.393875 -940.928833
v 3.03491211 -78.7041473 -973.907227
v 75.1852417 -133.530624 -868.738037
v 37.4992065 -113.249237 -903.166992
v 4.93902588 -87.6211395 -934.936646
v -22.8239136 -56.7467575 -963.929321
v 83.9917603 -125.092911 -829.011353
v 44.4902954 -109.535782 -861.804077
v 9.94641113 -89.0187912 -893.165405
v -18.7142029 -62.6909637 -921.133911
v -42.9929504 -32.1656914 -946.050415
v 97.0053101 -110.104279 -786.990417
v 57.2151489 -97.9476624 -815.947021
v 20.6387939 -81.9008713 -845.895386
v -10.311554 -60.4913254 -873.962891
v -35.4416809 -34.1300392 -898.91394
v -56.7842102 -5.38006973 -921.026489
v 253.40509 -159.032486 -805.558105
v 275.731567 -145.676865 -782.006714
v 252.311462 -168.319077 -785.605469
v 289.941101 -125.485611 -760.895691
v 269.890381 -150.968246 -761.617188
v 242.930481 -166.652908 -767.996094
v 293.22052 -99.9322205 -741.828735
v 277.23938 -127.777206 -740.112122
v 254.158325 -145.469894 -742.843933
v 225.241028 -155.771805 -752.844055
v 285.414612 -69.2711029 -724.770691
v 273.415771 -98.6830444 -720.641785
v 254.531128 -118.478714 -720.064148
v 229.569946 -130.643723 -725.907043
v 199.89856 -137.820847 -740.746582
v 269.153687 -32.7126312 -709.648254
v 259.290222 -62.1201782 -703.56134
v 243.6828 -83.753891 -699.798828
v 222.325195 -98.3097916 -701.735291
v 196.372131 -107.93309 -712.326355
v 167.511353 -114.786758 -732.829773
v 276.789917 156.726654 -842.603394
v 276.612122 181.730057 -826.686279
v 287.632019 137.83252 -812.509766
v 266.619507 201.585922 -811.570923
v 281.387146 161.148331 -794.762878
v 290.403259 116.245918 -783.921936
v 247.820862 217.715164 -796.832581
v 265.417542 180.169724 -778.53833
v 277.550537 138.796082 -765.371948
v 286.536804 93.1352463 -757.726807
v 221.368225 230.604935 -781.894104
v 241.036804 196.684647 -762.899902
v 255.896729 158.227585 -748.354614
v 267.653076 115.810158 -738.91156
v 277.704041 69.8666611 -734.59491
v 188.28479 239.626999 -766.300964
v 208.789734 210.507584 -746.795532
v 226.000244 175.698471 -731.337891
v 240.699219 136.081451 -720.817139
v 253.621155 92.909111 -715.43634
v 264.871948 47.8267708 -714.518188
v 70.335144 108.495392 -693.753662
v 81.1375732 140.002869 -684.36676
v 38.7758789 130.30423 -710.273804
v 91.2348633 168.942917 -683.616699
v 47.9716187 164.021622 -702.509033
v 7.45751953 149.905487 -730.146179
v 101.726074 194.614212 -691.920593
v 58.0838013 193.484726 -705.068237
v 16.9324951 183.846146 -725.573792
v -21.513855 168.377518 -752.643494
v 114.073059 216.636276 -708.549683
v 70.5632324 218.767685 -717.38324
v 29.0230713 212.717422 -732.248779
v -10.0479126 201.475449 -752.141602
v -46.3444519 186.0233 -776.901489
v 129.034058 235.078018 -731.710754
v 86.2911987 240.287247 -737.776794
v 44.7156372 237.429001 -748.595581
v 5.04730225 229.369614 -763.336487
v -32.0827942 217.633774 -780.791809
v -65.7965698 202.416245 -802.353577
v 146.275574 250.330978 -759.125732
v 105.201172 258.413513 -764.069275
v 64.2009277 258.931946 -772.500061
v 24.1525269 253.685257 -783.884521
v -13.9476929 244.364517 -796.626404
v -49.0531921 231.989151 -810.805786
v -79.6974792 216.382919 -828.787842
v 107.378662 102.83075 -675.141541
v 141.712219 91.4991226 -666.138062
v 120.576111 134.427582 -670.749268
v 172.868713 74.7453232 -666.111633
v 155.125549 122.422661 -667.807617
v 131.615906 162.050461 -675.498535
v 201.286865 54.6515121 -672.943481
v 185.665771 105.355202 -672.73114
v 166.162415 148.967712 -677.384216
v 142.445618 185.929733 -688.521362
v 227.695496 34.2448006 -684.567139
v 213.601379 85.4936142 -683.020142
v 196.909485 131.566986 -685.799744
v 177.502441 171.951859 -693.955872
v 155.080322 206.423019 -708.837097
v 252.310852 16.4052258 -699.526123
v 240.063416 65.5641403 -697.031189
v 225.766724 112.131393 -698.576416
v 209.630615 154.678558 -705.000427
v 191.369263 192.21199 -717.050354
v 170.533386 224.129044 -735.170227
v 80.6815796 73.0562286 -693.682373
v 87.7200317 36.6443062 -694.971008
v 119.179321 62.3152771 -674.029053
v 93.5367432 0.641326904 -698.900085
v 127.357727 22.5241013 -674.964111
v 153.788879 45.9679985 -666.022095
v 100.802002 -33.6334305 -707.797363
v 134.959595 -15.4211311 -679.927124
v 163.065125 3.17463684 -668.596252
v 185.235107 25.3197174 -667.937561
v 110.9198 -65.3115311 -722.375183
v 144.148193 -50.9586029 -691.240784
v 172.571228 -36.4914093 -676.166565
v 196.132446 -19.4350433 -673.133545
v 214.517029 3.32319641 -677.199341
v 123.583374 -94.2092285 -741.409607
v 155.521545 -83.9684448 -709.208008
v 183.997009 -73.3409424 -690.542847
v 208.475281 -60.25914 -683.675598
v 228.105408 -42.1906281 -685.412903
v 242.52179 -16.8839493 -691.641663
v 39.7373047 89.9836655 -719.797241
v 10.1715698 72.1873474 -751.288452
v 47.7487183 51.9887161 -723.444214
v -16.8900452 57.0848465 -785.882874
v 17.2177734 33.0988541 -758.274109
v 52.9525146 15.1453838 -728.320923
v -40.1600952 45.4453545 -822.372925
v -9.61825562 18.0431671 -795.871765
v 22.3401489 -3.43312836 -766.899963
v 58.4741821 -19.8009567 -736.596375
v -58.3676453 36.7960472 -860.409058
v -31.5846252 7.25249672 -835.439209
v -3.38192749 -17.8001289 -808.436096
v 29.0169067 -37.3134384 -779.492432
v 67.0969849 -52.2474365 -749.654541
v -70.4484863 29.7287521 -899.789917
v -47.5815735 -0.126369476 -877.127319
v -23.1435547 -27.7484055 -852.343628
v 5.58319092 -50.9025269 -825.352051
v 40.1485596 -68.6335754 -796.279419
v 80.1238403 -82.178009 -766.98999
v 5.49688721 111.878853 -740.543213
v -26.1143188 132.198944 -761.901978
v -23.802124 95.8736801 -774.006775
v -53.8686829 151.745819 -783.929138
v -53.8062439 117.699623 -795.618835
v -48.8654175 82.9565201 -809.283447
v -76.5764465 170.577927 -806.962708
v -79.0891724 138.413025 -817.557373
v -76.1410522 106.049797 -831.529907
v -69.1940918 72.7850647 -846.632812
v -93.5467224 187.882034 -831.667725
v -99.1121216 157.906998 -841.189331
v -98.4226074 127.24395 -855.14917
v -93.1627197 96.178978 -871.191162
v -83.95047 64.1068878 -886.817261
g 
f 3 1 2
f 5 2 4
f 6 3 5
f 8 4 7
f 9 5 8
f 10 6 9
f 12 7 11
f 13 8 12
f 14 9 13
f 15 10 14
f 17 11 16
f 18 12 17
f 19 13 18
f 20 14 19
f 21 15 20
f 23 16 22
f 24 17 23
f 25 18 24
f 26 19 25
f 27 20 26
f 28 21 27
f 30 22 29
f 31 23 30
f 32 24 31
f 33 25 32
f 34 26 33
f 35 27 34
f 36 28 35
f 3 2 5
f 5 4 8
f 6 5 9
f 8 7 12
f 9 8 13
f 10 9 14
f 12 11 17
f 13 12 18
f 14 13 19
f 15 14 20
f 17 16 23
f 18 17 24
f 19 18 25
f 20 19 26
f 21 20 27
f 23 22 30
f 24 23 31
f 25 24 32
f 26 25 33
f 27 26 34
f 28 27 35
f 37 1 3
f 38 3 6
f 39 37 38
f 40 6 10
f 41 38 40
f 42 39 41
f 43 10 15
f 44 40 43
f 45 41 44
f 46 42 45
f 47 15 21
f 48 43 47
f 49 44 48
f 50 45 49
f 51 46 50
f 52 21 28
f 53 47 52
f 54 48 53
f 55 49 54
f 56 50 55
f 57 51 56
f 58 28 36
f 59 52 58
f 60 53 59
f 61 54 60
f 62 55 61
f 63 56 62
f 64 57 63
f 37 3 38
f 38 6 40
f 39 38 41
f 40 10 43
f 41 40 44
f 42 41 45
f 43 15 47
f 44 43 48
f 45 44 49
f 46 45 50
f 47 21 52
f 48 47 53
f 49 48 54
f 50 49 55
f 51 50 56
f 52 28 58
f 53 52 59
f 54 53 60
f 55 54 61
f 56 55 62
f 57 56 63
f 65 1 37
f 66 37 39
f 67 65 66
f 68 39 42
f 69 66 68
f 70 67 69
f 71 42 46
f 72 68 71
f 73 69 72
f 74 70 73
f 75 46 51
f 76 71 75
f 77 72 76
f 78 73 77
f 79 74 78
f 80 51 57
f 81 75 80
f 82 76 81
f 83 77 82
f 84 78 83
f 85 79 84
f 86 57 64
f 87 80 86
f 88 81 87
f 89 82 88
f 90 83 89
f 91 84 90
f 92 85 91
f 65 37 66
f 66 39 68
f 67 66 69
f 68 42 71
f 69 68 72
f 70 69 73
f 71 46 75
f 72 71 76
f 73 72 77
f 74 73 78
f 75 51 80
f 76 75 81
f 77 76 82
f 78 77 83
f 79 78 84
f 80 57 86
f 81 80 87
f 82 81 88
f 83 82 89
f 84 83 90
f 85 84 91
f 93 1 65
f 94 65 67
f 95 93 94
f 96 67 70
f 97 94 96
f 98 95 97
f 99 70 74
f 100 96 99
f 101 97 100
f 102 98 101
f 103 74 79
f 104 99 103
f 105 100 104
f 106 101 105
f 107 102 106
f 108 79 85
f 109 103 108
f 110 104 109
f 111 105 110
f 112 106 111
f 113 107 112
f 114 85 92
f 115 108 114
f 116 109 115
f 117 110 116
f 118 111 117
f 119 112 118
f 120 113 119
f 93 65 94
f 94 67 96
f 95 94 97
f 96 70 99
f 97 96 100
f 98 97 101
f 99 74 103
f 100 99 104
f 101 100 105
f 102 101 106
f 103 79 108
f 104 103 109
f 105 104 110
f 106 105 111
f 107 106 112
f 108 85 114
f 109 108 115
f 110 109 116
f 111 110 117
f 112 111 118
f 113 112 119
f 2 1 93
f 121 93 95
f 4 2 121
f 122 95 98
f 123 121 122
f 7 4 123
f 124 98 102
f 125 122 124
f 126 123 125
f 11 7 126
f 127 102 107
f 128 124 127
f 129 125 128
f 130 126 129
f 16 11 130
f 131 107 113
f 132 127 131
f 133 128 132
f 134 129 133
f 135 130 134
f 22 16 135
f 136 113 120
f 137 131 136
f 138 132 137
f 139 133 138
f 140 134 139
f 141 135 140
f 29 22 141
f 2 93 121
f 121 95 122
f 4 121 123
f 122 98 124
f 123 122 125
f 7 123 126
f 124 102 127
f 125 124 128
f 126 125 129
f 11 126 130
f 127 107 131
f 128 127 132
f 129 128 133
f 130 129 134
f 16 130 135
f 131 113 136
f 132 131 137
f 133 132 138
f 134 133 139
f 135 134 140
f 22 135 141
f 142 29 141
f 143 141 140
f 144 142 143
f 145 140 139
f 146 143 145
f 147 144 146
f 148 139 138
f 149 145 148
f 150 146 149
f 151 147 150
f 152 138 137
f 153 148 152
f 154 149 153
f 155 150 154
f 156 151 155
f 157 137 136
f 158 152 157
f 159 153 158
f 160 154 159
f 161 155 160
f 162 156 161
f 163 136 120
f 164 157 163
f 165 158 164
f 166 159 165
f 167 160 166
f 168 161 167
f 169 162 168
f 142 141 143
f 143 140 145
f 144 143 146
f 145 139 148
f 146 145 149
f 147 146 150
f 148 138 152
f 149 148 153
f 150 149 154
f 151 150 155
f 152 137 157
f 153 152 158
f 154 153 159
f 155 154 160
f 156 155 161
f 157 136 163
f 158 157 164
f 159 158 165
f 160 159 166
f 161 160 167
f 162 161 168
f 170 120 119
f 171 119 118
f 172 170 171
f 173 118 117
f 174 171 173
f 175 172 174
f 176 117 116
f 177 173 176
f 178 174 177
f 179 175 178
f 180 116 115
f 181 176 180
f 182 177 181
f 183 178 182
f 184 179 183
f 185 115 114
f 186 180 185
f 187 181 186
f 188 182 187
f 189 183 188
f 190 184 189
f 191 114 92
f 192 185 191
f 193 186 192
f 194 187 193
f 195 188 194
f 196 189 195
f 197 190 196
f 170 119 171
f 171 118 173
f 172 171 174
f 173 117 176
f 174 173 177
f 175 174 178
f 176 116 180
f 177 176 181
f 178 177 182
f 179 178 183
f 180 115 185
f 181 180 186
f 182 181 187
f 183 182 188
f 184 183 189
f 185 114 191
f 186 185 192
f 187 186 193
f 188 187 194
f 189 188 195
f 190 189 196
f 198 92 91
f 199 91 90
f 200 198 199
f 201 90 89
f 202 199 201
f 203 200 202
f 204 89 88
f 205 201 204
f 206 202 205
f 207 203 206
f 208 88 87
f 209 204 208
f 210 205 209
f 211 206 210
f 212 207 211
f 213 87 86
f 214 208 213
f 215 209 214
f 216 210 215
f 217 211 216
f 218 212 217
f 219 86 64
f 220 213 219
f 221 214 220
f 222 215 221
f 223 216 222
f 224 217 223
f 225 218 224
f 198 91 199
f 199 90 201
f 200 199 202
f 201 89 204
f 202 201 205
f 203 202 206
f 204 88 208
f 205 204 209
f 206 205 210
f 207 206 211
f 208 87 213
f 209 208 214
f 210 209 215
f 211 210 216
f 212 211 217
f 213 86 219
f 214 213 220
f 215 214 221
f 216 215 222
f 217 216 223
f 218 217 224
f 226 64 63
f 227 63 62
f 228 226 227
f 229 62 61
f 230 227 229
f 231 228 230
f 232 61 60
f 233 229 232
f 234 230 233
f 235 231 234
f 236 60 59
f 237 232 236
f 238 233 237
f 239 234 238
f 240 235 239
f 241 59 58
f 242 236 241
f 243 237 242
f 244 238 243
f 245 239 244
f 246 240 245
f 247 58 36
f 248 241 247
f 249 242 248
f 250 243 249
f 251 244 250
f 252 245 251
f 253 246 252
f 226 63 227
f 227 62 229
f 228 227 230
f 229 61 232
f 230 229 233
f 231 230 234
f 232 60 236
f 233 232 237
f 234 233 238
f 235 234 239
f 236 59 241
f 237 236 242
f 238 237 243
f 239 238 244
f 240 239 245
f 241 58 247
f 242 241 248
f 243 242 249
f 244 243 250
f 245 244 251
f 246 245 252
f 254 36 35
f 255 35 34
f 256 254 255
f 257 34 33
f 258 255 257
f 259 256 258
f 260 33 32
f 261 257 260
f 262 258 261
f 263 259 262
f 264 32 31
f 265 260 264
f 266 261 265
f 267 262 266
f 268 263 267
f 269 31 30
f 270 264 269
f 271 265 270
f 272 266 271
f 273 267 272
f 274 268 273
f 275 30 29
f 276 269 275
f 277 270 276
f 278 271 277
f 279 272 278
f 280 273 279
f 281 274 280
f 254 35 255
f 255 34 257
f 256 255 258
f 257 33 260
f 258 257 261
f 259 258 262
f 260 32 264
f 261 260 265
f 262 261 266
f 263 262 267
f 264 31 269
f 265 264 270
f 266 265 271
f 267 266 272
f 268 267 273
f 269 30 275
f 270 269 276
f 271 270 277
f 272 271 278
f 273 272 279
f 274 273 280
f 275 29 142
f 282 142 144
f 276 275 282
f 283 144 147
f 284 282 283
f 277 276 284
f 285 147 151
f 286 283 285
f 287 284 286
f 278 277 287
f 288 151 156
f 289 285 288
f 290 286 289
f 291 287 290
f 279 278 291
f 292 156 162
f 293 288 292
f 294 289 293
f 295 290 294
f 296 291 295
f 280 279 296
f 297 162 169
f 298 292 297
f 299 293 298
f 300 294 299
f 301 295 300
f 302 296 301
f 281 280 302
f 275 142 282
f 282 144 283
f 276 282 284
f 283 147 285
f 284 283 286
f 277 284 287
f 285 151 288
f 286 285 289
f 287 286 290
f 278 287 291
f 288 156 292
f 289 288 293
f 290 289 294
f 291 290 295
f 279 291 296
f 292 162 297
f 293 292 298
f 294 293 299
f 295 294 300
f 296 295 301
f 280 296 302
f 163 120 170
f 303 170 172
f 164 163 303
f 304 172 175
f 305 303 304
f 165 164 305
f 306 175 179
f 307 304 306
f 308 305 307
f 166 165 308
f 309 179 184
f 310 306 309
f 311 307 310
f 312 308 311
f 167 166 312
f 313 184 190
f 314 309 313
f 315 310 314
f 316 311 315
f 317 312 316
f 168 167 317
f 318 190 197
f 319 313 318
f 320 314 319
f 321 315 320
f 322 316 321
f 323 317 322
f 169 168 323
f 163 170 303
f 303 172 304
f 164 303 305
f 304 175 306
f 305 304 307
f 165 305 308
f 306 179 309
f 307 306 310
f 308 307 311
f 166 308 312
f 309 184 313
f 310 309 314
f 311 310 315
f 312 311 316
f 167 312 317
f 313 190 318
f 314 313 319
f 315 314 320
f 316 315 321
f 317 316 322
f 168 317 323
f 191 92 198
f 324 198 200
f 192 191 324
f 325 200 203
f 326 324 325
f 193 192 326
f 327 203 207
f 328 325 327
f 329 326 328
f 194 193 329
f 330 207 212
f 331 327 330
f 332 328 331
f 333 329 332
f 195 194 333
f 334 212 218
f 335 330 334
f 336 331 335
f 337 332 336
f 338 333 337
f 196 195 338
f 339 218 225
f 340 334 339
f 341 335 340
f 342 336 341
f 343 337 342
f 344 338 343
f 197 196 344
f 191 198 324
f 324 200 325
f 192 324 326
f 325 203 327
f 326 325 328
f 193 326 329
f 327 207 330
f 328 327 331
f 329 328 332
f 194 329 333
f 330 212 334
f 331 330 335
f 332 331 336
f 333 332 337
f 195 333 338
f 334 218 339
f 335 334 340
f 336 335 341
f 337 336 342
f 338 337 343
f 196 338 344
f 219 64 226
f 345 226 228
f 220 219 345
f 346 228 231
f 347 345 346
f 221 220 347
f 348 231 235
f 349 346 348
f 350 347 349
f 222 221 350
f 351 235 240
f 352 348 351
f 353 349 352
f 354 350 353
f 223 222 354
f 355 240 246
f 356 351 355
f 357 352 356
f 358 353 357
f 359 354 358
f 224 223 359
f 360 246 253
f 361 355 360
f 362 356 361
f 363 357 362
f 364 358 363
f 365 359 364
f 225 224 365
f 219 226 345
f 345 228 346
f 220 345 347
f 346 231 348
f 347 346 349
f 221 347 350
f 348 235 351
f 349 348 352
f 350 349 353
f 222 350 354
f 351 240 355
f 352 351 356
f 353 352 357
f 354 353 358
f 223 354 359
f 355 246 360
f 356 355 361
f 357 356 362
f 358 357 363
f 359 358 364
f 224 359 365
f 247 36 254
f 366 254 256
f 248 247 366
f 367 256 259
f 368 366 367
f 249 248 368
f 369 259 263
f 370 367 369
f 371 368 370
f 250 249 371
f 372 263 268
f 373 369 372
f 374 370 373
f 375 371 374
f 251 250 375
f 376 268 274
f 377 372 376
f 378 373 377
f 379 374 378
f 380 375 379
f 252 251 380
f 381 274 281
f 382 376 381
f 383 377 382
f 384 378 383
f 385 379 384
f 386 380 385
f 253 252 386
f 247 254 366
f 366 256 367
f 248 366 368
f 367 259 369
f 368 367 370
f 249 368 371
f 369 263 372
f 370 369 373
f 371 370 374
f 250 371 375
f 372 268 376
f 373 372 377
f 374 373 378
f 375 374 379
f 251 375 380
f 376 274 381
f 377 376 382
f 378 377 383
f 379 378 384
f 380 379 385
f 252 380 386
f 389 387 388
f 391 388 390
f 392 389 391
f 394 390 393
f 395 391 394
f 396 392 395
f 398 393 397
f 399 394 398
f 400 395 399
f 401 396 400
f 403 397 402
f 404 398 403
f 405 399 404
f 406 400 405
f 407 401 406
f 409 402 408
f 410 403 409
f 411 404 410
f 412 405 411
f 413 406 412
f 414 407 413
f 302 408 281
f 301 409 302
f 300 410 301
f 299 411 300
f 298 412 299
f 297 413 298
f 169 414 297
f 389 388 391
f 391 390 394
f 392 391 395
f 394 393 398
f 395 394 399
f 396 395 400
f 398 397 403
f 399 398 404
f 400 399 405
f 401 400 406
f 403 402 409
f 404 403 410
f 405 404 411
f 406 405 412
f 407 406 413
f 409 408 302
f 410 409 301
f 411 410 300
f 412 411 299
f 413 412 298
f 414 413 297
f 388 387 415
f 417 415 416
f 390 388 417
f 419 416 418
f 420 417 419
f 393 390 420
f 422 418 421
f 423 419 422
f 424 420 423
f 397 393 424
f 426 421 425
f 427 422 426
f 428 423 427
f 429 424 428
f 402 397 429
f 431 425 430
f 432 426 431
f 433 427 432
f 434 428 433
f 435 429 434
f 408 402 435
f 386 430 253
f 385 431 386
f 384 432 385
f 383 433 384
f 382 434 383
f 381 435 382
f 281 408 381
f 388 415 417
f 417 416 419
f 390 417 420
f 419 418 422
f 420 419 423
f 393 420 424
f 422 421 426
f 423 422 427
f 424 423 428
f 397 424 429
f 426 425 431
f 427 426 432
f 428 427 433
f 429 428 434
f 402 429 435
f 431 430 386
f 432 431 385
f 433 432 384
f 434 433 383
f 435 434 382
f 408 435 381
f 415 387 436
f 438 436 437
f 416 415 438
f 440 437 439
f 441 438 440
f 418 416 441
f 443 439 442
f 444 440 443
f 445 441 444
f 421 418 445
f 447 442 446
f 448 443 447
f 449 444 448
f 450 445 449
f 425 421 450
f 452 446 451
f 453 447 452
f 454 448 453
f 455 449 454
f 456 450 455
f 430 425 456
f 365 451 225
f 364 452 365
f 363 453 364
f 362 454 363
f 361 455 362
f 360 456 361
f 253 430 360
f 415 436 438
f 438 437 440
f 416 438 441
f 440 439 443
f 441 440 444
f 418 441 445
f 443 442 447
f 444 443 448
f 445 444 449
f 421 445 450
f 447 446 452
f 448 447 453
f 449 448 454
f 450 449 455
f 425 450 456
f 452 451 365
f 453 452 364
f 454 453 363
f 455 454 362
f 456 455 361
f 430 456 360
f 436 387 457
f 459 457 458
f 437 436 459
f 461 458 460
f 462 459 461
f 439 437 462
f 464 460 463
f 465 461 464
f 466 462 465
f 442 439 466
f 468 463 467
f 469 464 468
f 470 465 469
f 471 466 470
f 446 442 471
f 473 467 472
f 474 468 473
f 475 469 474
f 476 470 475
f 477 471 476
f 451 446 477
f 344 472 197
f 343 473 344
f 342 474 343
f 341 475 342
f 340 476 341
f 339 477 340
f 225 451 339
f 436 457 459
f 459 458 461
f 437 459 462
f 461 460 464
f 462 461 465
f 439 462 466
f 464 463 468
f 465 464 469
f 466 465 470
f 442 466 471
f 468 467 473
f 469 468 474
f 470 469 475
f 471 470 476
f 446 471 477
f 473 472 344
f 474 473 343
f 475 474 342
f 476 475 341
f 477 476 340
f 451 477 339
f 457 387 389
f 478 389 392
f 458 457 478
f 479 392 396
f 480 478 479
f 460 458 480
f 481 396 401
f 482 479 481
f 483 480 482
f 463 460 483
f 484 401 407
f 485 481 484
f 486 482 485
f 487 483 486
f 467 463 487
f 488 407 414
f 489 484 488
f 490 485 489
f 491 486 490
f 492 487 491
f 472 467 492
f 323 414 169
f 322 488 323
f 321 489 322
f 320 490 321
f 319 491 320
f 318 492 319
f 197 472 318
f 457 389 478
f 478 392 479
f 458 478 480
f 479 396 481
f 480 479 482
f 460 480 483
f 481 401 484
f 482 481 485
f 483 482 486
f 463 483 487
f 484 407 488
f 485 484 489
f 486 485 490
f 487 486 491
f 467 487 492
f 488 414 323
f 489 488 322
f 490 489 321
f 491 490 320
f 492 491 319
f 472 492 318
