# File exported by Houdini 20.5.445 (www.sidefx.com)
# 492 points
# 2940 vertices
# 980 primitives
# Bounds: [-143.580887, -122.817078, -1111.18555] to [314.354828, 239.194183, -643.615601]
g 
v 96.6020355 58.0437508 -1078.27124
v 87.4400482 86.5540085 -1095.552
v 119.87381 74.1798248 -1081.84595
v 80.2500763 114.141685 -1107.04785
v 110.577789 103.785378 -1096.53857
v 142.002106 89.6035919 -1080.06787
v 73.8553619 140.279175 -1109.66919
v 102.690704 130.611511 -1102.72168
v 131.649689 119.14962 -1090.22266
v 162.606903 102.550674 -1072.34937
v 67.8150177 163.762451 -1102.19458
v 95.9004059 154.545044 -1099.07275
v 123.199432 144.744232 -1091.06323
v 151.590851 130.964584 -1077.32788
v 182.012299 112.047386 -1058.76392
v 62.988266 183.588898 -1086.24316
v 91.2593231 175.399353 -1086.73047
v 117.756989 167.075989 -1083.3269
v 144.344574 155.506226 -1074.177
v 171.922089 138.874847 -1059.271
v 200.955536 117.663269 -1040.31714
v 59.6650848 199.276215 -1064.17822
v 89.0096893 192.613831 -1066.9165
v 115.967133 185.755615 -1067.08472
v 141.889557 176.507721 -1063.0625
v 167.602448 162.103668 -1052.854
v 193.546356 142.554718 -1037.03198
v 219.91861 119.009331 -1017.99884
v 57.0242157 211.520233 -1038.28149
v 87.627182 206.270386 -1040.74463
v 116.380463 200.779205 -1042.21484
v 143.354095 193.294983 -1041.64038
v 168.707794 181.540741 -1036.75171
v 192.633759 163.743256 -1025.66919
v 215.499786 141.080261 -1009.63165
v 238.074005 116.773567 -991.953186
v 123.208405 39.0149078 -1062.78076
v 149.26181 56.2426605 -1064.40161
v 151.624603 19.6876221 -1047.78882
v 172.488068 71.1661758 -1061.11426
v 178.562408 38.0185165 -1047.43872
v 180.96701 0.306268692 -1033.03784
v 193.274017 83.043663 -1052.36011
v 201.842682 53.0249672 -1042.51758
v 207.644257 19.9718781 -1030.53271
v 209.966705 -17.7458191 -1016.71393
v 212.554779 91.3982849 -1037.90479
v 222.540314 64.461113 -1032.1582
v 230.703156 35.2762146 -1023.38824
v 236.03476 2.74751663 -1011.97186
v 236.248688 -33.2287216 -996.888
v 231.338593 95.5448914 -1017.75262
v 242.021759 71.8903275 -1015.61957
v 251.611481 46.0798759 -1010.21906
v 258.796234 17.6305351 -1001.72296
v 261.406586 -13.3446121 -989.457703
v 257.812958 -46.0058136 -972.877502
v 250.127167 95.2501831 -991.759216
v 261.533112 74.2269974 -991.52948
v 271.745026 51.68013 -989.189758
v 279.684845 26.6906223 -983.632385
v 283.262054 -0.400083542 -974.37323
v 281.21286 -28.7670975 -961.40741
v 272.330048 -57.3105621 -945.205688
v 89.2082367 30.0781994 -1061.93652
v 119.335114 5.52241707 -1046.91504
v 83.8372955 2.03437805 -1045.66235
v 150.409271 -17.5703735 -1033.38989
v 117.362946 -26.711792 -1032.75293
v 80.5127411 -23.9630356 -1030.44067
v 181.017059 -38.2742004 -1018.63788
v 149.717255 -51.2487717 -1019.50372
v 115.421295 -54.2238159 -1018.49445
v 77.1661224 -44.2341995 -1014.56427
v 209.215179 -55.2669373 -999.716003
v 179.604767 -70.9796829 -1002.23419
v 147.198456 -77.872879 -1003.27692
v 111.625458 -73.8082123 -1001.69513
v 72.5599213 -56.6739655 -996.29071
v 233.469452 -68.1052094 -975.326355
v 205.796234 -85.4955597 -978.257385
v 175.048553 -95.2709045 -981.123596
v 141.28006 -95.2116089 -982.299988
v 104.776581 -84.0260086 -980.363953
v 66.3631744 -61.545784 -974.056091
v 251.337982 -77.8709869 -945.366577
v 226.184052 -95.3369904 -946.420654
v 197.296783 -106.738419 -949.173462
v 165.109833 -109.554153 -952.486633
v 130.311676 -102.445007 -954.29071
v 94.5836639 -85.6559906 -952.490662
v 59.1051788 -60.9368896 -946.783447
v 67.0249786 62.4375648 -1082.70239
v 56.218338 35.7500458 -1063.17432
v 39.0572357 72.426239 -1084.36719
v 49.0453949 11.2609024 -1043.96411
v 26.4844513 48.5053253 -1062.07495
v 13.1103973 88.7240143 -1083.39429
v 44.2677765 -9.10237885 -1025.48633
v 18.6122894 28.239502 -1039.93994
v 0.0308685303 68.0179596 -1058.8728
v -10.8119049 109.683563 -1079.18481
v 39.6091766 -22.9510651 -1005.95929
v 12.7135162 13.2792749 -1017.44415
v -8.40266418 51.6514244 -1033.53174
v -23.5783539 91.6555099 -1052.51221
v -32.8599396 131.378342 -1070.2168
v 34.5435028 -30.2159615 -983.572205
v 6.80937195 4.2328701 -992.701477
v -15.6845856 40.8216743 -1005.81012
v -33.0053864 78.4785156 -1022.94049
v -45.248642 115.565125 -1040.68726
v -53.3136444 149.932343 -1054.76367
v 29.3783417 -32.255806 -955.83075
v 1.55903625 0.101894379 -963.284119
v -22.543869 34.8642387 -973.229187
v -41.7374725 70.4936981 -987.7724
v -55.8301239 105.157303 -1005.00494
v -66.1043549 136.963074 -1020.77362
v -72.6781769 164.760071 -1032.05688
v 58.1487274 94.6669922 -1100.93213
v 31.5379791 108.395355 -1102.3125
v 51.8926239 124.896339 -1111.18555
v 6.59059143 127.034645 -1099.59033
v 26.0086212 140.513306 -1110.1355
v 46.02388 152.395081 -1110.88037
v -17.568222 147.77774 -1091.63965
v 0.624313354 159.287994 -1103.51147
v 19.7094574 168.201874 -1105.89795
v 39.6242828 176.013214 -1099.37402
v -41.1853485 166.51416 -1076.67847
v -25.3263092 178.076141 -1089.76831
v -7.37269592 185.675354 -1093.86182
v 11.8353119 190.94046 -1089.37476
v 33.552475 195.189453 -1078.69189
v -64.1491852 180.836395 -1053.08398
v -51.8909149 193.628784 -1066.89331
v -36.19664 202.135956 -1072.75854
v -17.8446503 206.95575 -1070.6582
v 3.50944519 209.273743 -1062.76172
v 28.5812531 210.458252 -1051.52539
v 34.6005096 221.443939 -1018.80353
v 1.84339905 222.409729 -1030.78589
v 9.75361633 230.281677 -997.684265
v -25.2739716 222.34259 -1039.70728
v -25.1079865 231.72113 -1007.6004
v -16.3217621 236.525604 -974.120422
v -46.8845673 219.628082 -1044.88745
v -52.2925262 230.705444 -1013.5379
v -50.9708405 236.974792 -980.906677
v -40.6442108 239.194183 -947.02478
v -64.0864716 212.98761 -1043.98853
v -72.9131622 225.792419 -1015.30902
v -76.8264618 233.870728 -983.329407
v -73.984726 238.094452 -950.074951
v -61.889328 239.033173 -916.277344
v -77.4329987 201.803192 -1035.02612
v -88.7059784 216.658936 -1010.13751
v -96.3181915 226.911499 -980.704407
v -98.8215637 233.508209 -948.413818
v -93.8768463 236.810944 -915.449951
v -80.2199554 236.555695 -882.995483
v -87.2120209 186.552795 -1017.32526
v -100.558868 203.500092 -995.906799
v -111.30867 216.062073 -969.340027
v -117.740646 224.849762 -939.586182
v -118.125763 230.241577 -908.562256
v -110.675095 232.310608 -877.997437
v -95.4464569 230.843628 -849.198486
v -87.4026642 162.091705 -998.060852
v -78.3028717 132.000366 -982.786682
v -98.6370697 158.013794 -959.622864
v -65.093277 98.9469376 -965.402771
v -85.5594025 125.847008 -942.796997
v -105.727234 151.47934 -918.79834
v -47.2951813 63.9762115 -949.434814
v -68.46138 91.2999954 -926.092407
v -88.4612274 117.398315 -902.491699
v -108.89476 141.792603 -877.532715
v -24.6999359 28.2393913 -937.602905
v -47.1892853 55.1391296 -912.216187
v -67.9108734 81.4456635 -887.525757
v -88.1531525 106.160431 -862.717285
v -108.524231 128.958496 -837.336914
v 2.47135925 -6.97842789 -929.722778
v -21.510849 18.388731 -902.352905
v -43.9496613 44.1063385 -875.278931
v -65.1484833 69.0488434 -849.046021
v -85.6154022 92.2838135 -823.604858
v -104.971939 113.623405 -799.189941
v 33.5229645 -40.6039734 -921.802002
v 8.97782898 -18.174263 -894.036133
v -15.2379303 5.99713707 -865.106689
v -38.6372223 30.4782696 -836.510132
v -60.5294037 54.1951942 -809.538452
v -80.7151947 76.5345764 -785.039062
v -98.392395 97.4428329 -763.775391
v 72.1743317 -74.1841354 -919.067627
v 109.872711 -98.5250854 -921.02478
v 81.6625824 -85.0241776 -886.157959
v 145.905365 -113.294525 -919.104492
v 119.292023 -108.205872 -885.135498
v 85.8477631 -92.6841354 -849.269653
v 179.908295 -117.996552 -915.312744
v 154.482635 -120.520142 -881.69751
v 123.154388 -113.750214 -847.348999
v 86.3110809 -95.5135498 -811.299438
v 211.489166 -113.054764 -912.328491
v 187.929718 -122.446716 -878.609497
v 158.191498 -122.817078 -844.870483
v 123.792694 -112.66214 -810.668335
v 86.0392914 -91.8124619 -775.699463
v 240.231049 -99.8624725 -912.342407
v 219.73526 -114.930176 -878.546509
v 192.096893 -121.185211 -844.711182
v 159.573944 -117.139465 -811.018066
v 124.294037 -103.229584 -777.869263
v 87.552475 -80.6165161 -745.234009
v 265.67807 -80.2514877 -915.005127
v 249.425323 -98.7243423 -882.481201
v 225.018646 -109.383606 -848.658203
v 194.878265 -110.252838 -814.807129
v 161.525848 -101.313675 -781.920044
v 126.843597 -84.5414505 -750.613525
v 92.2954254 -62.5964661 -721.319946
v 287.193817 -51.7273865 -926.628418
v 297.682526 -22.094635 -941.674927
v 295.986786 -46.0011368 -906.806763
v 300.058014 5.56380272 -952.404846
v 307.173798 -16.2397766 -919.961182
v 298.774628 -37.4464722 -885.107422
v 296.182587 30.9326305 -959.186584
v 309.792633 10.8096561 -927.959229
v 310.46109 -8.28889084 -895.770508
v 297.256317 -24.5327682 -861.510376
v 287.984344 54.3522873 -962.359314
v 305.899078 35.6597061 -932.179199
v 313.664642 18.5417061 -900.924438
v 309.796539 3.7099762 -869.343994
v 293.823578 -6.30400467 -836.556519
v 276.400726 76.6413193 -962.772034
v 297.176117 59.3694572 -933.228394
v 310.380951 43.9602089 -902.45874
v 314.354828 30.7236958 -871.365234
v 307.383453 21.0151062 -840.915527
v 289.308197 16.8293934 -810.583252
v 261.866669 99.8822479 -963.024353
v 283.40152 83.9408722 -932.952026
v 300.749054 69.7314987 -901.685059
v 311.408478 57.7838631 -869.679321
v 312.503693 48.7791786 -838.892212
v 302.617096 43.8249779 -810.555786
v 282.621857 43.2861176 -784.029175
v 240.192474 128.672638 -973.680237
v 217.395905 155.982178 -991.39801
v 240.030975 140.626953 -952.357361
v 194.651886 179.110626 -1004.71832
v 216.467133 168.803619 -968.794006
v 237.563507 152.081268 -927.895752
v 169.929474 195.421051 -1011.44452
v 192.441193 190.85321 -978.912415
v 211.800995 180.132904 -942.713867
v 231.439789 163.801117 -901.932373
v 142.050507 205.783478 -1013.24164
v 164.993011 205.903778 -983.036316
v 184.350739 201.181824 -950.71051
v 202.080109 190.99234 -915.47998
v 219.746796 176.096985 -876.345703
v 110.566132 212.531036 -1012.85687
v 132.55545 215.463135 -983.839172
v 151.888275 215.036652 -953.517639
v 169.267914 210.429504 -921.961792
v 185.726288 201.001923 -888.568604
v 201.045074 188.447296 -852.186523
v 75.0534515 217.89325 -1011.93683
v 94.144455 222.235901 -983.929993
v 112.348541 224.269775 -954.469788
v 128.953339 223.024414 -924.366577
v 145.264679 217.857147 -893.956177
v 160.875031 209.352783 -862.858521
v 174.959625 199.352417 -830.25
v 51.376297 226.983093 -988.874329
v 25.0973053 233.880798 -965.743591
v 68.1068878 230.068237 -958.636047
v -0.858139038 237.703094 -940.793091
v 40.9291229 234.861053 -934.052612
v 84.2741547 230.519043 -927.801025
v -24.5591583 238.25708 -912.340088
v 15.4581451 236.188934 -907.643555
v 57.4494171 232.967407 -901.919189
v 100.98494 227.513733 -896.677734
v -46.0986176 236.443207 -879.777344
v -8.17338562 234.857452 -877.179565
v 32.4538422 232.270386 -873.447998
v 74.9191742 228.127899 -868.81543
v 118.229095 221.119629 -864.792725
v -65.1381989 231.329071 -843.990356
v -29.7253265 230.349884 -841.365845
v 9.34004211 228.454651 -839.206543
v 50.8264008 225.499908 -836.312256
v 93.4143829 220.57074 -833.067261
v 135.473724 212.358246 -830.763672
v -104.253632 184.274323 -978.033508
v -116.416061 179.680634 -935.881836
v -118.442642 200.42041 -952.844543
v -123.81015 171.861816 -892.672363
v -130.383102 194.581696 -908.527222
v -128.731339 211.87384 -924.297607
v -126.627014 160.285431 -849.716553
v -136.915359 185.154846 -864.052002
v -139.360214 204.64093 -879.024292
v -133.526169 219.491516 -894.019775
v -124.663406 144.965424 -807.880859
v -137.843658 171.551636 -819.874512
v -143.580887 193.424347 -833.706299
v -141.382172 210.678314 -848.421265
v -130.566727 223.50351 -863.475098
v -117.66391 126.818253 -767.830078
v -132.36853 153.880981 -776.27832
v -140.504547 177.574219 -788.121948
v -141.020966 197.240112 -802.230103
v -133.380753 212.517944 -817.716309
v -117.796951 223.520813 -833.532471
v 44.2308807 -53.5743103 -888.834351
v 49.7244415 -62.9538116 -852.169312
v 16.9129486 -30.2214127 -857.325317
v 50.6478119 -68.7543793 -813.112061
v 19.5350189 -38.5600128 -818.270508
v -9.74494934 -5.80403137 -825.869507
v 49.8643951 -69.5278168 -774.308105
v 18.9175873 -42.8957062 -777.921509
v -8.85279846 -13.3793182 -785.241821
v -35.0135651 18.7966995 -795.627319
v 50.5127716 -63.4438858 -738.692993
v 18.3104706 -41.4042282 -738.475464
v -9.86958313 -15.7706146 -743.821167
v -35.0737457 12.7181091 -753.906616
v -58.4095612 43.6314507 -767.755981
v 55.3357086 -49.5197754 -708.864014
v 21.3822784 -32.1718063 -702.778687
v -8.86497498 -10.9668884 -703.750488
v -35.3961639 13.5077906 -711.810913
v -58.6613007 40.4487495 -725.721069
v -79.4384003 68.7692032 -743.372314
v 275.851471 -74.776123 -893.084595
v 279.105255 -65.6539536 -871.30188
v 254.668671 -89.6247559 -858.38147
v 277.589264 -51.2916031 -848.837524
v 254.193573 -74.5014343 -835.642944
v 226.883636 -94.4640884 -823.345215
v 273.551361 -30.8624573 -825.390747
v 250.425629 -52.9697571 -812.772827
v 224.281403 -72.4819489 -799.881348
v 194.664215 -89.0592575 -788.760254
v 268.245941 -4.18472672 -800.677124
v 244.626434 -24.3364029 -789.001099
v 218.611481 -43.2686234 -776.259888
v 190.042084 -60.3581467 -764.207886
v 159.180023 -74.581871 -754.845215
v 261.11795 27.5047798 -774.271606
v 236.492462 10.8707352 -763.364258
v 209.739532 -6.48067474 -751.274536
v 181.134125 -23.8323135 -739.043335
v 151.309967 -40.1141205 -728.394409
v 121.176361 -53.6521912 -721.751221
v 263.14035 111.120361 -938.940552
v 262.159882 122.549545 -913.164673
v 283.831879 95.8762131 -904.400879
v 258.064545 134.434723 -886.037231
v 280.923187 108.140808 -875.105103
v 299.64035 83.6440964 -869.563965
v 248.422089 148.333618 -859.04895
v 272.898102 122.468719 -845.760864
v 293.279327 98.5420227 -837.612061
v 307.646332 74.8854523 -835.175537
v 231.299225 164.396454 -833.286377
v 257.515594 139.896454 -817.305298
v 279.784943 116.377785 -806.237549
v 296.391205 93.5158997 -801.272705
v 304.301117 69.9194031 -803.126953
v 205.192108 181.138306 -809.573853
v 232.876251 160.306641 -790.125244
v 256.627289 138.17691 -775.592407
v 274.949066 115.688065 -767.520142
v 285.343597 92.8431473 -767.259644
v 287.205292 68.9577789 -773.961182
v 33.4949188 143.3302 -669.736084
v 60.5454254 161.902191 -682.162476
v 8.5957489 160.898499 -685.034668
v 88.3743134 176.44281 -695.305542
v 34.8413239 178.730072 -699.763916
v -16.6386566 175.916199 -703.482178
v 113.174408 186.825714 -712.748413
v 59.9711151 191.526031 -716.313965
v 8.80021667 191.71048 -720.32019
v -41.0708771 188.856445 -724.657349
v 133.246857 193.449677 -736.442627
v 81.754715 200.425964 -738.573364
v 32.4660492 202.702942 -741.414917
v -15.5328217 202.647614 -744.832886
v -62.1068573 200.849243 -749.862793
v 149.729034 197.097137 -765.298462
v 100.854843 206.462219 -766.280884
v 53.5616913 210.652435 -768.314087
v 7.83686829 212.385681 -770.548462
v -36.4750214 212.905121 -773.619873
v -78.4033356 212.299286 -779.313354
v 163.641144 198.715057 -797.136841
v 118.606293 210.283478 -797.418945
v 73.4391632 216.531342 -799.348145
v 29.3483734 219.823669 -801.586182
v -13.0650787 221.680573 -803.668213
v -53.168869 222.737976 -806.627563
v -89.52211 222.684692 -812.680908
v 74.7405548 136.670074 -667.055908
v 115.971588 128.016296 -670.534546
v 107.459686 154.969818 -679.270386
v 155.984039 116.328888 -681.116211
v 151.320038 144.793182 -682.961792
v 138.242279 167.97052 -693.319214
v 193.689362 101.139526 -699.100342
v 191.623749 130.692078 -694.655151
v 182.425751 155.288452 -699.00354
v 163.226044 176.08786 -713.248169
v 228.526398 82.9010925 -723.364258
v 228.07608 112.596977 -714.045166
v 221.7117 137.892365 -713.14856
v 206.322113 160.357697 -721.944824
v 181.77243 180.130157 -739.996216
v 258.745819 62.6979561 -752.378052
v 260.713593 90.8711624 -741.036377
v 256.473358 116.210564 -735.668335
v 244.128204 139.720337 -739.201294
v 222.755341 161.221252 -752.325684
v 195.503143 181.182129 -772.500122
v 33.8864899 117.468849 -656.24231
v 37.0159149 88.945137 -648.268311
v 76.8475494 108.381615 -658.655884
v 43.2550507 58.7146721 -647.497925
v 81.2646332 78.2663574 -657.506348
v 118.306488 97.6851425 -669.215576
v 52.1699066 27.6347256 -654.895508
v 88.0855865 46.6236877 -663.465332
v 122.963776 65.948967 -675.199585
v 157.921906 84.2428131 -687.065674
v 63.1661835 -3.50140381 -670.502563
v 96.9290009 13.6588736 -676.275391
v 130.015411 32.4601517 -687.133911
v 162.734528 50.7964363 -699.290527
v 195.580658 67.7357101 -711.210083
v 76.4716949 -33.8806686 -693.244995
v 107.832733 -20.1440125 -695.702271
v 139.418243 -2.987854 -704.588501
v 170.562469 15.0491056 -716.353882
v 201.12619 32.4452438 -728.543701
v 230.645355 48.4370155 -740.575562
v -5.78993225 133.792603 -666.414307
v -40.041275 123.908516 -666.350098
v -4.67201233 103.860474 -651.232666
v -67.5262909 115.2658 -671.890991
v -35.671463 91.4693756 -652.263428
v 0.553451538 72.8677521 -643.615601
v -86.8452911 108.67527 -684.914307
v -58.6529083 81.918045 -661.743042
v -27.0025177 59.72686 -647.990723
v 9.44755554 41.8331947 -645.221069
v -97.6555023 103.99659 -705.683716
v -73.3251801 75.5092545 -680.858154
v -46.1002655 50.4849815 -663.2229
v -14.8371735 29.0855904 -654.741455
v 21.2841949 11.2151775 -656.924927
v -100.934464 100.365036 -732.545898
v -79.8664703 71.3763885 -708.657227
v -56.5582428 44.4360428 -689.511719
v -29.9004974 20.0980377 -676.996704
v 0.858139038 -1.18286896 -673.083374
v 36.2218475 -19.156189 -678.610107
v -33.8710785 153.192047 -685.143555
v -59.9889984 169.836273 -706.374512
v -68.441391 145.756165 -688.723511
v -82.9164581 184.761169 -730.606323
v -93.0901337 164.682526 -713.341064
v -94.3718719 139.708496 -697.8396
v -100.593643 198.97821 -759.610596
v -112.88147 182.001556 -741.891235
v -116.164261 160.816742 -726.434692
v -110.99968 135.020752 -714.00293
v -112.294403 212.311859 -793.868774
v -126.509705 198.246826 -776.321045
v -132.001236 180.040924 -760.481567
v -129.177414 157.582062 -747.171997
v -118.438858 130.931549 -737.465454
g 
f 3 1 2
f 5 2 4
f 6 3 5
f 8 4 7
f 9 5 8
f 10 6 9
f 12 7 11
f 13 8 12
f 14 9 13
f 15 10 14
f 17 11 16
f 18 12 17
f 19 13 18
f 20 14 19
f 21 15 20
f 23 16 22
f 24 17 23
f 25 18 24
f 26 19 25
f 27 20 26
f 28 21 27
f 30 22 29
f 31 23 30
f 32 24 31
f 33 25 32
f 34 26 33
f 35 27 34
f 36 28 35
f 3 2 5
f 5 4 8
f 6 5 9
f 8 7 12
f 9 8 13
f 10 9 14
f 12 11 17
f 13 12 18
f 14 13 19
f 15 14 20
f 17 16 23
f 18 17 24
f 19 18 25
f 20 19 26
f 21 20 27
f 23 22 30
f 24 23 31
f 25 24 32
f 26 25 33
f 27 26 34
f 28 27 35
f 37 1 3
f 38 3 6
f 39 37 38
f 40 6 10
f 41 38 40
f 42 39 41
f 43 10 15
f 44 40 43
f 45 41 44
f 46 42 45
f 47 15 21
f 48 43 47
f 49 44 48
f 50 45 49
f 51 46 50
f 52 21 28
f 53 47 52
f 54 48 53
f 55 49 54
f 56 50 55
f 57 51 56
f 58 28 36
f 59 52 58
f 60 53 59
f 61 54 60
f 62 55 61
f 63 56 62
f 64 57 63
f 37 3 38
f 38 6 40
f 39 38 41
f 40 10 43
f 41 40 44
f 42 41 45
f 43 15 47
f 44 43 48
f 45 44 49
f 46 45 50
f 47 21 52
f 48 47 53
f 49 48 54
f 50 49 55
f 51 50 56
f 52 28 58
f 53 52 59
f 54 53 60
f 55 54 61
f 56 55 62
f 57 56 63
f 65 1 37
f 66 37 39
f 67 65 66
f 68 39 42
f 69 66 68
f 70 67 69
f 71 42 46
f 72 68 71
f 73 69 72
f 74 70 73
f 75 46 51
f 76 71 75
f 77 72 76
f 78 73 77
f 79 74 78
f 80 51 57
f 81 75 80
f 82 76 81
f 83 77 82
f 84 78 83
f 85 79 84
f 86 57 64
f 87 80 86
f 88 81 87
f 89 82 88
f 90 83 89
f 91 84 90
f 92 85 91
f 65 37 66
f 66 39 68
f 67 66 69
f 68 42 71
f 69 68 72
f 70 69 73
f 71 46 75
f 72 71 76
f 73 72 77
f 74 73 78
f 75 51 80
f 76 75 81
f 77 76 82
f 78 77 83
f 79 78 84
f 80 57 86
f 81 80 87
f 82 81 88
f 83 82 89
f 84 83 90
f 85 84 91
f 93 1 65
f 94 65 67
f 95 93 94
f 96 67 70
f 97 94 96
f 98 95 97
f 99 70 74
f 100 96 99
f 101 97 100
f 102 98 101
f 103 74 79
f 104 99 103
f 105 100 104
f 106 101 105
f 107 102 106
f 108 79 85
f 109 103 108
f 110 104 109
f 111 105 110
f 112 106 111
f 113 107 112
f 114 85 92
f 115 108 114
f 116 109 115
f 117 110 116
f 118 111 117
f 119 112 118
f 120 113 119
f 93 65 94
f 94 67 96
f 95 94 97
f 96 70 99
f 97 96 100
f 98 97 101
f 99 74 103
f 100 99 104
f 101 100 105
f 102 101 106
f 103 79 108
f 104 103 109
f 105 104 110
f 106 105 111
f 107 106 112
f 108 85 114
f 109 108 115
f 110 109 116
f 111 110 117
f 112 111 118
f 113 112 119
f 2 1 93
f 121 93 95
f 4 2 121
f 122 95 98
f 123 121 122
f 7 4 123
f 124 98 102
f 125 122 124
f 126 123 125
f 11 7 126
f 127 102 107
f 128 124 127
f 129 125 128
f 130 126 129
f 16 11 130
f 131 107 113
f 132 127 131
f 133 128 132
f 134 129 133
f 135 130 134
f 22 16 135
f 136 113 120
f 137 131 136
f 138 132 137
f 139 133 138
f 140 134 139
f 141 135 140
f 29 22 141
f 2 93 121
f 121 95 122
f 4 121 123
f 122 98 124
f 123 122 125
f 7 123 126
f 124 102 127
f 125 124 128
f 126 125 129
f 11 126 130
f 127 107 131
f 128 127 132
f 129 128 133
f 130 129 134
f 16 130 135
f 131 113 136
f 132 131 137
f 133 132 138
f 134 133 139
f 135 134 140
f 22 135 141
f 142 29 141
f 143 141 140
f 144 142 143
f 145 140 139
f 146 143 145
f 147 144 146
f 148 139 138
f 149 145 148
f 150 146 149
f 151 147 150
f 152 138 137
f 153 148 152
f 154 149 153
f 155 150 154
f 156 151 155
f 157 137 136
f 158 152 157
f 159 153 158
f 160 154 159
f 161 155 160
f 162 156 161
f 163 136 120
f 164 157 163
f 165 158 164
f 166 159 165
f 167 160 166
f 168 161 167
f 169 162 168
f 142 141 143
f 143 140 145
f 144 143 146
f 145 139 148
f 146 145 149
f 147 146 150
f 148 138 152
f 149 148 153
f 150 149 154
f 151 150 155
f 152 137 157
f 153 152 158
f 154 153 159
f 155 154 160
f 156 155 161
f 157 136 163
f 158 157 164
f 159 158 165
f 160 159 166
f 161 160 167
f 162 161 168
f 170 120 119
f 171 119 118
f 172 170 171
f 173 118 117
f 174 171 173
f 175 172 174
f 176 117 116
f 177 173 176
f 178 174 177
f 179 175 178
f 180 116 115
f 181 176 180
f 182 177 181
f 183 178 182
f 184 179 183
f 185 115 114
f 186 180 185
f 187 181 186
f 188 182 187
f 189 183 188
f 190 184 189
f 191 114 92
f 192 185 191
f 193 186 192
f 194 187 193
f 195 188 194
f 196 189 195
f 197 190 196
f 170 119 171
f 171 118 173
f 172 171 174
f 173 117 176
f 174 173 177
f 175 174 178
f 176 116 180
f 177 176 181
f 178 177 182
f 179 178 183
f 180 115 185
f 181 180 186
f 182 181 187
f 183 182 188
f 184 183 189
f 185 114 191
f 186 185 192
f 187 186 193
f 188 187 194
f 189 188 195
f 190 189 196
f 198 92 91
f 199 91 90
f 200 198 199
f 201 90 89
f 202 199 201
f 203 200 202
f 204 89 88
f 205 201 204
f 206 202 205
f 207 203 206
f 208 88 87
f 209 204 208
f 210 205 209
f 211 206 210
f 212 207 211
f 213 87 86
f 214 208 213
f 215 209 214
f 216 210 215
f 217 211 216
f 218 212 217
f 219 86 64
f 220 213 219
f 221 214 220
f 222 215 221
f 223 216 222
f 224 217 223
f 225 218 224
f 198 91 199
f 199 90 201
f 200 199 202
f 201 89 204
f 202 201 205
f 203 202 206
f 204 88 208
f 205 204 209
f 206 205 210
f 207 206 211
f 208 87 213
f 209 208 214
f 210 209 215
f 211 210 216
f 212 211 217
f 213 86 219
f 214 213 220
f 215 214 221
f 216 215 222
f 217 216 223
f 218 217 224
f 226 64 63
f 227 63 62
f 228 226 227
f 229 62 61
f 230 227 229
f 231 228 230
f 232 61 60
f 233 229 232
f 234 230 233
f 235 231 234
f 236 60 59
f 237 232 236
f 238 233 237
f 239 234 238
f 240 235 239
f 241 59 58
f 242 236 241
f 243 237 242
f 244 238 243
f 245 239 244
f 246 240 245
f 247 58 36
f 248 241 247
f 249 242 248
f 250 243 249
f 251 244 250
f 252 245 251
f 253 246 252
f 226 63 227
f 227 62 229
f 228 227 230
f 229 61 232
f 230 229 233
f 231 230 234
f 232 60 236
f 233 232 237
f 234 233 238
f 235 234 239
f 236 59 241
f 237 236 242
f 238 237 243
f 239 238 244
f 240 239 245
f 241 58 247
f 242 241 248
f 243 242 249
f 244 243 250
f 245 244 251
f 246 245 252
f 254 36 35
f 255 35 34
f 256 254 255
f 257 34 33
f 258 255 257
f 259 256 258
f 260 33 32
f 261 257 260
f 262 258 261
f 263 259 262
f 264 32 31
f 265 260 264
f 266 261 265
f 267 262 266
f 268 263 267
f 269 31 30
f 270 264 269
f 271 265 270
f 272 266 271
f 273 267 272
f 274 268 273
f 275 30 29
f 276 269 275
f 277 270 276
f 278 271 277
f 279 272 278
f 280 273 279
f 281 274 280
f 254 35 255
f 255 34 257
f 256 255 258
f 257 33 260
f 258 257 261
f 259 258 262
f 260 32 264
f 261 260 265
f 262 261 266
f 263 262 267
f 264 31 269
f 265 264 270
f 266 265 271
f 267 266 272
f 268 267 273
f 269 30 275
f 270 269 276
f 271 270 277
f 272 271 278
f 273 272 279
f 274 273 280
f 275 29 142
f 282 142 144
f 276 275 282
f 283 144 147
f 284 282 283
f 277 276 284
f 285 147 151
f 286 283 285
f 287 284 286
f 278 277 287
f 288 151 156
f 289 285 288
f 290 286 289
f 291 287 290
f 279 278 291
f 292 156 162
f 293 288 292
f 294 289 293
f 295 290 294
f 296 291 295
f 280 279 296
f 297 162 169
f 298 292 297
f 299 293 298
f 300 294 299
f 301 295 300
f 302 296 301
f 281 280 302
f 275 142 282
f 282 144 283
f 276 282 284
f 283 147 285
f 284 283 286
f 277 284 287
f 285 151 288
f 286 285 289
f 287 286 290
f 278 287 291
f 288 156 292
f 289 288 293
f 290 289 294
f 291 290 295
f 279 291 296
f 292 162 297
f 293 292 298
f 294 293 299
f 295 294 300
f 296 295 301
f 280 296 302
f 163 120 170
f 303 170 172
f 164 163 303
f 304 172 175
f 305 303 304
f 165 164 305
f 306 175 179
f 307 304 306
f 308 305 307
f 166 165 308
f 309 179 184
f 310 306 309
f 311 307 310
f 312 308 311
f 167 166 312
f 313 184 190
f 314 309 313
f 315 310 314
f 316 311 315
f 317 312 316
f 168 167 317
f 318 190 197
f 319 313 318
f 320 314 319
f 321 315 320
f 322 316 321
f 323 317 322
f 169 168 323
f 163 170 303
f 303 172 304
f 164 303 305
f 304 175 306
f 305 304 307
f 165 305 308
f 306 179 309
f 307 306 310
f 308 307 311
f 166 308 312
f 309 184 313
f 310 309 314
f 311 310 315
f 312 311 316
f 167 312 317
f 313 190 318
f 314 313 319
f 315 314 320
f 316 315 321
f 317 316 322
f 168 317 323
f 191 92 198
f 324 198 200
f 192 191 324
f 325 200 203
f 326 324 325
f 193 192 326
f 327 203 207
f 328 325 327
f 329 326 328
f 194 193 329
f 330 207 212
f 331 327 330
f 332 328 331
f 333 329 332
f 195 194 333
f 334 212 218
f 335 330 334
f 336 331 335
f 337 332 336
f 338 333 337
f 196 195 338
f 339 218 225
f 340 334 339
f 341 335 340
f 342 336 341
f 343 337 342
f 344 338 343
f 197 196 344
f 191 198 324
f 324 200 325
f 192 324 326
f 325 203 327
f 326 325 328
f 193 326 329
f 327 207 330
f 328 327 331
f 329 328 332
f 194 329 333
f 330 212 334
f 331 330 335
f 332 331 336
f 333 332 337
f 195 333 338
f 334 218 339
f 335 334 340
f 336 335 341
f 337 336 342
f 338 337 343
f 196 338 344
f 219 64 226
f 345 226 228
f 220 219 345
f 346 228 231
f 347 345 346
f 221 220 347
f 348 231 235
f 349 346 348
f 350 347 349
f 222 221 350
f 351 235 240
f 352 348 351
f 353 349 352
f 354 350 353
f 223 222 354
f 355 240 246
f 356 351 355
f 357 352 356
f 358 353 357
f 359 354 358
f 224 223 359
f 360 246 253
f 361 355 360
f 362 356 361
f 363 357 362
f 364 358 363
f 365 359 364
f 225 224 365
f 219 226 345
f 345 228 346
f 220 345 347
f 346 231 348
f 347 346 349
f 221 347 350
f 348 235 351
f 349 348 352
f 350 349 353
f 222 350 354
f 351 240 355
f 352 351 356
f 353 352 357
f 354 353 358
f 223 354 359
f 355 246 360
f 356 355 361
f 357 356 362
f 358 357 363
f 359 358 364
f 224 359 365
f 247 36 254
f 366 254 256
f 248 247 366
f 367 256 259
f 368 366 367
f 249 248 368
f 369 259 263
f 370 367 369
f 371 368 370
f 250 249 371
f 372 263 268
f 373 369 372
f 374 370 373
f 375 371 374
f 251 250 375
f 376 268 274
f 377 372 376
f 378 373 377
f 379 374 378
f 380 375 379
f 252 251 380
f 381 274 281
f 382 376 381
f 383 377 382
f 384 378 383
f 385 379 384
f 386 380 385
f 253 252 386
f 247 254 366
f 366 256 367
f 248 366 368
f 367 259 369
f 368 367 370
f 249 368 371
f 369 263 372
f 370 369 373
f 371 370 374
f 250 371 375
f 372 268 376
f 373 372 377
f 374 373 378
f 375 374 379
f 251 375 380
f 376 274 381
f 377 376 382
f 378 377 383
f 379 378 384
f 380 379 385
f 252 380 386
f 389 387 388
f 391 388 390
f 392 389 391
f 394 390 393
f 395 391 394
f 396 392 395
f 398 393 397
f 399 394 398
f 400 395 399
f 401 396 400
f 403 397 402
f 404 398 403
f 405 399 404
f 406 400 405
f 407 401 406
f 409 402 408
f 410 403 409
f 411 404 410
f 412 405 411
f 413 406 412
f 414 407 413
f 302 408 281
f 301 409 302
f 300 410 301
f 299 411 300
f 298 412 299
f 297 413 298
f 169 414 297
f 389 388 391
f 391 390 394
f 392 391 395
f 394 393 398
f 395 394 399
f 396 395 400
f 398 397 403
f 399 398 404
f 400 399 405
f 401 400 406
f 403 402 409
f 404 403 410
f 405 404 411
f 406 405 412
f 407 406 413
f 409 408 302
f 410 409 301
f 411 410 300
f 412 411 299
f 413 412 298
f 414 413 297
f 388 387 415
f 417 415 416
f 390 388 417
f 419 416 418
f 420 417 419
f 393 390 420
f 422 418 421
f 423 419 422
f 424 420 423
f 397 393 424
f 426 421 425
f 427 422 426
f 428 423 427
f 429 424 428
f 402 397 429
f 431 425 430
f 432 426 431
f 433 427 432
f 434 428 433
f 435 429 434
f 408 402 435
f 386 430 253
f 385 431 386
f 384 432 385
f 383 433 384
f 382 434 383
f 381 435 382
f 281 408 381
f 388 415 417
f 417 416 419
f 390 417 420
f 419 418 422
f 420 419 423
f 393 420 424
f 422 421 426
f 423 422 427
f 424 423 428
f 397 424 429
f 426 425 431
f 427 426 432
f 428 427 433
f 429 428 434
f 402 429 435
f 431 430 386
f 432 431 385
f 433 432 384
f 434 433 383
f 435 434 382
f 408 435 381
f 415 387 436
f 438 436 437
f 416 415 438
f 440 437 439
f 441 438 440
f 418 416 441
f 443 439 442
f 444 440 443
f 445 441 444
f 421 418 445
f 447 442 446
f 448 443 447
f 449 444 448
f 450 445 449
f 425 421 450
f 452 446 451
f 453 447 452
f 454 448 453
f 455 449 454
f 456 450 455
f 430 425 456
f 365 451 225
f 364 452 365
f 363 453 364
f 362 454 363
f 361 455 362
f 360 456 361
f 253 430 360
f 415 436 438
f 438 437 440
f 416 438 441
f 440 439 443
f 441 440 444
f 418 441 445
f 443 442 447
f 444 443 448
f 445 444 449
f 421 445 450
f 447 446 452
f 448 447 453
f 449 448 454
f 450 449 455
f 425 450 456
f 452 451 365
f 453 452 364
f 454 453 363
f 455 454 362
f 456 455 361
f 430 456 360
f 436 387 457
f 459 457 458
f 437 436 459
f 461 458 460
f 462 459 461
f 439 437 462
f 464 460 463
f 465 461 464
f 466 462 465
f 442 439 466
f 468 463 467
f 469 464 468
f 470 465 469
f 471 466 470
f 446 442 471
f 473 467 472
f 474 468 473
f 475 469 474
f 476 470 475
f 477 471 476
f 451 446 477
f 344 472 197
f 343 473 344
f 342 474 343
f 341 475 342
f 340 476 341
f 339 477 340
f 225 451 339
f 436 457 459
f 459 458 461
f 437 459 462
f 461 460 464
f 462 461 465
f 439 462 466
f 464 463 468
f 465 464 469
f 466 465 470
f 442 466 471
f 468 467 473
f 469 468 474
f 470 469 475
f 471 470 476
f 446 471 477
f 473 472 344
f 474 473 343
f 475 474 342
f 476 475 341
f 477 476 340
f 451 477 339
f 457 387 389
f 478 389 392
f 458 457 478
f 479 392 396
f 480 478 479
f 460 458 480
f 481 396 401
f 482 479 481
f 483 480 482
f 463 460 483
f 484 401 407
f 485 481 484
f 486 482 485
f 487 483 486
f 467 463 487
f 488 407 414
f 489 484 488
f 490 485 489
f 491 486 490
f 492 487 491
f 472 467 492
f 323 414 169
f 322 488 323
f 321 489 322
f 320 490 321
f 319 491 320
f 318 492 319
f 197 472 318
f 457 389 478
f 478 392 479
f 458 478 480
f 479 396 481
f 480 479 482
f 460 480 483
f 481 401 484
f 482 481 485
f 483 482 486
f 463 483 487
f 484 407 488
f 485 484 489
f 486 485 490
f 487 486 491
f 467 487 492
f 488 414 323
f 489 488 322
f 490 489 321
f 491 490 320
f 492 491 319
f 472 492 318
