# File exported by Houdini 20.5.445 (www.sidefx.com)
# 492 points
# 2940 vertices
# 980 primitives
# Bounds: [-105.235443, -243.817413, -1063.40063] to [276.009369, 360.194519, -691.40033]
g 
v 115.250153 29.4209404 -1059.53149
v 108.985138 71.8332977 -1059.46436
v 132.289581 43.3219376 -1063.40063
v 103.836945 113.854027 -1057.33496
v 128.774139 90.7102814 -1060.95361
v 148.667511 56.722435 -1062.83838
v 99.3856506 154.614319 -1052.65161
v 125.359833 135.522888 -1054.90869
v 146.240936 107.598335 -1056.53442
v 162.977448 70.1078033 -1057.29077
v 94.8979797 193.715424 -1045.37451
v 121.623322 177.686462 -1046.05835
v 143.339508 153.972473 -1046.70337
v 160.992462 122.703346 -1047.52173
v 175.057281 83.4315948 -1047.76758
v 90.1214294 230.983734 -1036.63257
v 117.456512 217.637695 -1036.38086
v 140.219025 197.07486 -1036.15308
v 158.972382 169.701874 -1036.42651
v 174.147675 136.026123 -1036.82886
v 186.150482 96.3816299 -1036.7124
v 85.2591858 266.141205 -1027.64355
v 112.80307 255.750031 -1027.27051
v 136.813812 238.26889 -1026.58911
v 157.110809 213.8479 -1026.33203
v 173.789154 183.403839 -1026.31226
v 187.076202 148.123566 -1026.18311
v 197.684174 109.263725 -1025.60938
v 80.4743347 298.200195 -1017.66876
v 107.385773 291.710205 -1018.00702
v 132.558197 278.073059 -1017.64838
v 154.881561 256.86969 -1017.40314
v 173.766388 228.888367 -1017.19733
v 189.028046 195.804138 -1016.71918
v 200.961945 159.654572 -1015.91571
v 210.351105 122.351494 -1014.76605
v 131.368073 -5.49782562 -1060.43726
v 147.853851 5.25100327 -1063.29614
v 145.588531 -42.2954941 -1057.25024
v 162.676361 16.6177368 -1061.55737
v 160.444977 -32.4290886 -1058.82739
v 159.572784 -78.9242477 -1049.26001
v 175.197601 29.4155579 -1055.17065
v 173.633026 -20.5917931 -1056.05225
v 172.831818 -67.743515 -1049.94629
v 175.550018 -112.75325 -1036.45679
v 186.003571 43.7412186 -1045.09839
v 185.268646 -6.09428787 -1049.14697
v 185.228851 -53.5536804 -1046.55688
v 188.108551 -98.6623077 -1036.90991
v 194.473236 -141.336639 -1019.09979
v 197.120819 59.3680267 -1033.30322
v 196.567169 10.9843063 -1038.73193
v 197.383759 -36.0870895 -1039.27905
v 200.75943 -81.3770676 -1032.95679
v 207.372589 -124.012543 -1019.49774
v 214.890167 -163.257324 -997.997986
v 210.218842 76.4276886 -1020.50861
v 209.994049 30.2387161 -1025.83545
v 211.23703 -15.7811508 -1028.12109
v 215.043182 -60.8474045 -1024.65894
v 221.414276 -103.76944 -1014.30963
v 228.725372 -142.899323 -996.963074
v 234.051971 -176.93631 -972.888733
v 110.098663 -5.29043579 -1052.81079
v 128.259308 -44.2274933 -1051.44751
v 108.097382 -39.2095947 -1041.2019
v 145.240692 -83.2159729 -1044.68921
v 129.415619 -80.2368622 -1036.74731
v 109.584747 -72.162674 -1024.65869
v 163.14212 -120.367081 -1032.25977
v 149.87381 -119.763474 -1026.05615
v 134.000153 -113.847321 -1016.95099
v 113.093903 -103.517883 -1004.28253
v 182.974762 -153.530884 -1014.27997
v 170.849396 -156.453705 -1009.02081
v 157.094574 -152.876968 -1002.19989
v 139.853424 -144.631226 -992.731384
v 116.911407 -132.07077 -980.508362
v 204.720062 -180.542542 -991.524475
v 193.317108 -188.400726 -985.888611
v 180.296356 -188.428223 -980.26239
v 164.557892 -182.34964 -973.29425
v 144.565643 -171.579041 -964.288635
v 119.337311 -156.745377 -953.478333
v 226.091095 -198.798096 -963.673035
v 216.23288 -212.665161 -956.335632
v 203.968536 -218.051575 -950.656555
v 188.47226 -215.593231 -945.167664
v 169.179779 -206.884949 -938.73175
v 145.879486 -193.498779 -931.267395
v 118.624359 -176.115662 -923.380676
v 93.252533 40.1155624 -1052.64966
v 87.443512 3.79402542 -1042.31787
v 70.3205261 48.70858 -1042.93018
v 85.6159973 -30.3080292 -1027.47168
v 64.8609314 11.0347481 -1028.72632
v 47.7106018 55.9592819 -1030.48145
v 86.5632629 -62.5557709 -1009.2121
v 63.2671204 -23.046978 -1011.42035
v 42.9882507 17.7223053 -1012.86542
v 26.4831238 63.0618057 -1015.27557
v 88.8258362 -92.9587097 -987.986633
v 63.631012 -54.763504 -991.768127
v 41.4167175 -16.0072403 -993.583313
v 22.259552 25.3768387 -995.012512
v 7.19277954 71.5033493 -998.006897
v 91.0800476 -121.04805 -963.096863
v 64.7070007 -84.6315155 -968.969421
v 40.9657898 -47.0033035 -972.113098
v 20.275238 -7.31092834 -973.763367
v 3.04562378 35.2935028 -975.709045
v -9.65682983 81.7211456 -979.73761
v 91.327301 -145.215424 -933.743958
v 64.6030579 -111.517487 -941.473938
v 39.7963562 -75.244812 -946.667542
v 18.0203552 -36.334343 -949.853333
v -0.211334229 5.07252502 -952.306335
v -14.6037903 48.4394684 -955.815491
v -24.6802673 93.1000366 -961.674622
v 83.8401794 84.3912354 -1052.96631
v 59.1533508 93.8443069 -1044.07251
v 76.7773132 126.419487 -1051.73096
v 35.8135681 101.667702 -1032.38916
v 51.1494446 135.891479 -1043.64526
v 71.2805481 166.434998 -1048.39722
v 14.5539856 109.857628 -1017.52765
v 27.4034729 144.611267 -1032.42847
v 44.9780579 176.33255 -1040.94702
v 66.2239075 205.138885 -1042.25073
v -4.39352417 119.627373 -999.804138
v 5.94284058 154.619598 -1017.24713
v 20.6916809 186.984772 -1029.30078
v 39.4393005 216.406677 -1034.7832
v 61.1474915 243.038605 -1033.45264
v -21.2722473 130.625092 -980.136047
v -13.433197 166.647278 -997.966248
v -1.44680786 200.151886 -1012.26971
v 14.4233093 230.389587 -1021.16168
v 33.9855652 257.044312 -1024.37378
v 56.394989 280.04776 -1022.6098
v 60.4992371 316.231659 -1008.41425
v 33.6064758 296.351776 -1011.08148
v 40.3395081 329.084442 -995.281921
v 10.775177 271.930267 -1009.04681
v 12.2875671 307.146881 -995.000183
v 20.2514343 336.150604 -977.825867
v -7.4437561 243.086548 -1002.29498
v -10.0163879 279.855408 -989.886292
v -7.73544312 311.01358 -974.940613
v 0.750457764 336.022308 -956.138733
v -21.33078 209.241119 -991.230042
v -26.6703186 247.114075 -981.088318
v -28.6285706 279.950775 -967.430603
v -25.7101135 307.551361 -950.571472
v -17.2148743 328.609406 -929.733459
v -31.3514709 170.953339 -975.125183
v -38.4489441 209.070587 -968.134216
v -43.2358093 243.456726 -956.427673
v -44.490387 273.290924 -940.399597
v -41.2168884 297.653625 -920.908142
v -33.4500427 315.013916 -898.320374
v -37.0514832 128.921692 -955.788391
v -46.2270203 165.614502 -949.849182
v -52.6967468 201.286804 -940.657532
v -57.1075745 233.410614 -925.880554
v -58.2245789 260.731964 -906.920105
v -55.4621277 282.110382 -885.506409
v -49.0742493 296.496429 -863.143127
v -33.598053 77.4469147 -939.970398
v -21.1440125 28.8324585 -933.010071
v -41.1246643 64.161087 -918.278748
v -4.56149292 -16.4443436 -928.094055
v -26.6495667 13.5372696 -909.858459
v -47.9376526 54.5685196 -894.806824
v 15.1786804 -59.0340729 -923.461365
v -8.51199341 -32.5690956 -902.821838
v -32.4812317 2.98687363 -884.690247
v -55.3593445 48.259407 -868.787292
v 38.6684875 -98.7724762 -917.616028
v 12.6483459 -75.9071732 -895.325134
v -13.4558411 -43.6838379 -875.010803
v -39.6705627 -3.5426712 -856.757874
v -63.9409485 43.8147278 -840.312927
v 65.8381653 -135.813873 -909.557678
v 38.0010681 -116.810486 -885.936096
v 9.15042114 -87.9197006 -863.740417
v -19.7205505 -50.527977 -843.737976
v -47.5184021 -7.0952301 -826.118591
v -71.6164246 40.0691147 -810.648376
v 96.1645203 -170.368774 -899.065735
v 68.8346252 -155.537735 -874.4245
v 37.990509 -130.432663 -850.301331
v 5.8309021 -95.7303391 -828.277527
v -25.1462708 -53.895607 -809.507141
v -52.8489075 -8.84684753 -794.170471
v -75.0453796 35.9722977 -781.579529
v 132.612213 -200.948151 -895.434265
v 163.783966 -219.994873 -901.399231
v 144.258514 -217.739655 -865.498474
v 188.987885 -232.194458 -906.853821
v 177.848541 -235.523987 -869.945984
v 152.600189 -224.40686 -834.266174
v 208.688385 -237.050903 -911.384583
v 203.464386 -243.817413 -873.370911
v 187.077484 -239.099152 -837.052795
v 156.995087 -220.564392 -803.072083
v 223.949554 -233.626282 -916.558289
v 223.233307 -243.102112 -877.257629
v 213.126678 -242.604614 -839.931946
v 192.083649 -231.535645 -805.462097
v 158.057037 -207.491943 -774.982971
v 235.920807 -220.852936 -924.534973
v 238.97757 -232.934479 -884.489685
v 233.846039 -235.86496 -845.629456
v 219.136993 -229.886841 -809.888
v 193.495148 -214.120544 -778.597595
v 156.579071 -186.927887 -752.893494
v 245.465851 -198.179382 -936.889587
v 251.719696 -211.890808 -897.513
v 250.995758 -217.957642 -857.706848
v 241.345123 -216.160461 -819.976135
v 221.450348 -206.30481 -786.698547
v 191.386627 -187.89328 -759.4422
v 153.402863 -160.57959 -738.801331
v 248.429596 -163.091095 -962.108337
v 243.425812 -124.50354 -987.799744
v 260.754608 -142.865967 -951.386414
v 236.691132 -82.1297836 -1004.84882
v 256.0961 -100.708191 -978.021667
v 270.447357 -117.898575 -940.724304
v 230.611298 -36.9134521 -1013.47382
v 250.15036 -55.7193909 -994.500916
v 266.333588 -72.9913559 -967.64386
v 276.009369 -89.1855316 -930.18866
v 226.500641 9.9255867 -1014.60138
v 244.324615 -8.40194702 -1000.77435
v 260.627472 -25.9035339 -982.073792
v 271.938751 -42.4291458 -955.412781
v 274.937408 -57.5382919 -918.878357
v 224.650299 58.0259018 -1010.95746
v 240.111664 40.8249359 -999.743713
v 254.639862 23.7734451 -985.681824
v 265.816437 6.7045517 -966.719055
v 270.287079 -9.39467621 -940.430237
v 265.543976 -23.5154076 -905.897888
v 223.711945 107.693275 -1005.96881
v 237.257477 92.8660507 -995.310852
v 249.527252 77.0571899 -982.802673
v 258.516998 60.1138306 -967.433533
v 262.423492 42.7681198 -947.701965
v 259.087189 26.5199699 -922.090515
v 247.830536 12.4510765 -890.719177
v 217.487885 158.515594 -1005.22931
v 205.764496 199.459045 -1007.50372
v 222.018097 193.024017 -996.238831
v 190.720062 236.786346 -1008.9726
v 207.008942 234.942444 -999.681335
v 221.921234 223.886108 -986.114441
v 171.914581 269.242584 -1009.37775
v 188.186066 271.18634 -1001.34174
v 203.136566 264.611115 -990.102966
v 215.222076 249.338257 -973.3349
v 149.254852 295.119171 -1008.99335
v 165.278839 301.495819 -1000.92352
v 180.409882 298.449554 -991.123352
v 193.132355 287.555603 -976.971008
v 201.471039 268.625244 -956.972229
v 122.862885 313.122986 -1008.23737
v 138.194855 324.544189 -998.978088
v 153.236359 325.854614 -989.121399
v 166.620575 318.355225 -976.469543
v 176.486786 303.56781 -959.19342
v 181.240265 281.757996 -936.817566
v 93.2830505 322.665985 -1006.96979
v 106.898285 339.053101 -995.903259
v 120.891144 345.734863 -984.45636
v 134.364838 342.405945 -971.83429
v 145.593475 330.76178 -956.041077
v 152.934479 312.667023 -936.310486
v 155.267181 289.353058 -913.385559
v 73.1387024 340.712952 -994.591003
v 52.8381653 350.975616 -978.625793
v 86.2481995 354.290863 -980.319885
v 32.4809875 353.980011 -958.362122
v 65.4527893 360.194519 -961.177307
v 99.3609314 356.613098 -965.476746
v 12.1540222 349.269653 -933.291931
v 44.2345886 358.242798 -937.334045
v 77.575531 357.519684 -942.555481
v 111.54184 348.463989 -948.904724
v -7.94485474 336.731903 -902.430359
v 21.9709167 348.459229 -907.423035
v 54.4398499 350.222076 -913.882385
v 87.8135071 344.297577 -920.989685
v 120.91861 331.843536 -928.463928
v -28.3165588 316.799927 -865.033142
v -2.13241577 329.880676 -869.771667
v 28.2878723 334.368683 -876.804626
v 60.9386292 330.944031 -885.253845
v 93.8846741 321.906769 -894.151428
v 125.640289 307.961182 -903.558044
v -47.6790466 116.229668 -931.787903
v -56.1407166 106.830116 -907.770447
v -57.0538025 154.949829 -923.045227
v -64.1514587 100.36039 -881.639221
v -66.033844 147.314209 -895.424133
v -63.7704163 190.992004 -909.739197
v -73.3160095 95.0450287 -852.543884
v -75.72995 141.016968 -865.091492
v -74.04599 182.856812 -876.961731
v -68.7947693 222.225433 -890.318909
v -82.9177551 89.1142197 -821.013489
v -86.7425842 133.937622 -831.46991
v -85.6016541 174.724884 -841.18219
v -80.2524109 212.447388 -852.295715
v -70.4642029 248.151215 -867.017517
v -89.5395203 81.4705505 -788.269958
v -96.6520691 124.392967 -795.175354
v -97.6342468 164.370697 -801.735291
v -92.7397156 201.494202 -810.435974
v -82.5713196 235.907318 -823.652405
v -67.8609314 267.641907 -841.629333
v 105.673248 -190.410706 -866.76239
v 112.350494 -199.800598 -834.462219
v 73.6083069 -168.649719 -839.548523
v 116.223175 -198.475037 -803.079651
v 76.0553894 -170.264923 -806.813293
v 38.4217224 -136.153442 -814.569763
v 117.249664 -187.607544 -773.723206
v 76.7567444 -161.69455 -776.835754
v 37.5988464 -130.698212 -782.660339
v 2.62484741 -94.689537 -793.068665
v 116.183075 -168.822968 -748.782532
v 75.6874695 -144.439377 -749.959534
v 36.0525818 -115.684143 -754.656189
v -0.656585693 -83.0452881 -762.597473
v -30.7898254 -46.8251038 -775.741516
v 113.799103 -143.224823 -730.643494
v 73.448761 -119.784912 -728.226624
v 33.7460632 -92.1515656 -730.309509
v -3.60855103 -61.972023 -736.258362
v -35.3885803 -29.4834785 -746.67804
v -59.3320007 3.76488113 -762.152161
v 259.5159 -180.83316 -921.55658
v 269.953156 -157.631042 -908.562561
v 263.465668 -190.506012 -879.672302
v 275.539398 -130.205368 -897.155457
v 269.78006 -164.18631 -866.017639
v 258.512238 -192.792755 -839.234924
v 274.558136 -98.578125 -886.966248
v 269.074554 -133.487518 -855.055725
v 258.506866 -163.068359 -826.007019
v 242.608246 -187.397003 -802.154358
v 264.701141 -62.6147079 -876.663635
v 259.372406 -97.3081665 -845.703674
v 249.288177 -127.65097 -816.01532
v 234.272247 -153.167114 -790.059265
v 214.595917 -173.295959 -770.186096
v 244.725616 -22.0735092 -864.78363
v 238.265961 -54.495224 -836.000305
v 227.971161 -84.3334045 -807.207458
v 213.695343 -110.630936 -780.892883
v 195.7117 -132.3927 -759.355774
v 175.029633 -148.995239 -744.653748
v 231.897675 144.779358 -993.828918
v 235.272552 177.968628 -981.889587
v 243.676788 129.780304 -980.325012
v 231.576752 206.363556 -968.202942
v 242.733612 161.247467 -964.9422
v 251.09201 112.978706 -964.744812
v 219.643463 229.151733 -951.177063
v 233.046173 187.369995 -947.118958
v 243.59903 142.644287 -945.31781
v 252.902435 94.6164627 -946.140564
v 199.444183 246.444244 -930.218201
v 213.795258 208.117004 -925.045959
v 225.81308 166.887787 -922.187805
v 236.862091 122.660698 -921.738586
v 247.990204 75.6685638 -922.830994
v 171.05368 258.630493 -904.98407
v 184.327911 224.138092 -897.968445
v 196.295868 186.256409 -893.292664
v 208.366791 145.41272 -891.504944
v 221.40097 102.168343 -892.163147
v 235.020416 57.3940811 -892.964905
v -22.7394104 134.139923 -703.990417
v -6.17849731 162.235748 -721.102966
v -44.3283386 167.00412 -703.796082
v 17.5158386 189.285614 -746.238464
v -22.4506531 197.927979 -726.267883
v -56.8128967 198.840149 -712.981018
v 46.0404358 214.69339 -777.357605
v 5.80148315 226.104706 -757.067322
v -29.8923035 230.762238 -741.259827
v -62.1255798 227.526215 -731.533997
v 76.8979187 237.3974 -811.815125
v 37.1595764 251.247162 -792.705139
v 0.938873291 258.636505 -776.911682
v -32.308197 259.62326 -764.583191
v -62.4465027 251.945648 -758.079285
v 107.275055 257.405396 -847.187805
v 69.2267761 273.09787 -830.217834
v 33.065033 282.860016 -815.773743
v -0.91519165 287.108521 -803.448792
v -32.068512 283.873016 -794.237854
v -59.2285461 271.99942 -790.448181
v 134.133881 274.891663 -881.521179
v 99.5699768 292.046143 -867.602234
v 64.8468933 303.912476 -855.267761
v 30.7486877 310.741241 -844.240051
v -1.48947144 311.199066 -834.809875
v -30.2541809 303.390656 -828.219177
v -54.1145325 287.180817 -826.39447
v 14.5602112 118.757668 -720.103821
v 56.8149109 102.800362 -742.153992
v 34.4812927 147.670959 -741.895447
v 101.000214 85.4190521 -768.128845
v 77.526886 132.423523 -767.552429
v 59.6294861 174.426666 -769.764343
v 144.33609 66.4920883 -796.916199
v 120.973175 115.442253 -796.387146
v 102.13327 158.570618 -796.94696
v 88.2797546 198.597229 -801.59552
v 184.924225 47.0879669 -827.609558
v 163.190643 96.6640625 -827.371765
v 144.196686 141.081268 -826.692932
v 129.70285 181.888519 -829.024963
v 118.327057 220.362457 -835.682678
v 220.353485 28.6598244 -859.253357
v 202.317413 76.9919891 -859.757507
v 184.940826 122.193291 -858.474915
v 170.32193 164.281647 -858.948181
v 158.257721 203.587646 -862.887878
v 147.024567 240.423004 -870.539612
v -8.84707642 95.5471954 -702.320618
v 12.8864441 55.5011978 -705.145447
v 35.2831116 76.0244598 -720.752747
v 38.1059265 12.9808083 -708.874695
v 60.6364441 32.1573486 -723.746643
v 81.20224 56.1005859 -743.524353
v 65.1155701 -31.8689613 -712.528015
v 87.6528015 -13.5062065 -726.567444
v 107.958771 8.9667778 -745.929626
v 126.773163 35.4236755 -769.378479
v 94.2026672 -77.2277679 -717.398621
v 116.374115 -60.0706024 -729.696594
v 136.326141 -38.7903595 -748.33905
v 154.30423 -13.8475266 -771.504089
v 170.601837 14.6056404 -798.208923
v 124.372467 -120.798843 -725.399719
v 146.260223 -105.818527 -734.781433
v 166.390533 -86.2688293 -751.95929
v 183.990265 -62.5698776 -774.655212
v 198.881439 -35.3230515 -801.20929
v 211.058197 -4.97667694 -830.06427
v -48.0364075 125.905632 -692.901917
v -66.3659973 117.317909 -691.40033
v -31.7516785 83.6491547 -693.27887
v -78.4917908 107.154366 -699.168518
v -47.6208801 71.9462967 -693.841492
v -8.39254761 41.4536057 -697.585388
v -85.5375671 94.1039963 -714.456116
v -58.118866 59.1878281 -702.510193
v -23.3453064 27.3170509 -699.032532
v 17.6568909 -2.66126823 -702.320007
v -87.474884 77.937294 -734.983215
v -64.0696106 43.9773331 -717.702698
v -33.3918762 11.4844284 -708.012268
v 3.99032593 -19.1420059 -705.018005
v 46.3345032 -49.0472794 -707.867859
v -84.0475159 58.6907196 -757.747131
v -64.8208313 25.8188133 -737.89386
v -37.6825867 -7.05852509 -723.987854
v -3.24673462 -38.2442017 -716.32196
v 36.0163879 -68.2185364 -713.842102
v 78.730072 -96.4380417 -716.426086
v -70.3832703 160.619019 -696.243958
v -82.2010193 191.221436 -709.911926
v -87.6513977 152.048157 -700.403259
v -85.9772644 217.02179 -732.81842
v -97.7649841 180.402283 -719.161194
v -97.7935486 140.300385 -714.292297
v -83.5635071 238.440643 -763.516174
v -99.058075 203.482117 -746.524231
v -105.235443 166.078003 -738.122742
v -101.604584 124.869789 -735.501404
v -76.5367737 255.648407 -800.577454
v -92.9770813 222.200165 -781.805359
v -102.671478 186.490021 -770.272034
v -104.752533 147.861267 -764.532532
v -98.7134705 105.677605 -761.314514
g 
f 3 1 2
f 5 2 4
f 6 3 5
f 8 4 7
f 9 5 8
f 10 6 9
f 12 7 11
f 13 8 12
f 14 9 13
f 15 10 14
f 17 11 16
f 18 12 17
f 19 13 18
f 20 14 19
f 21 15 20
f 23 16 22
f 24 17 23
f 25 18 24
f 26 19 25
f 27 20 26
f 28 21 27
f 30 22 29
f 31 23 30
f 32 24 31
f 33 25 32
f 34 26 33
f 35 27 34
f 36 28 35
f 3 2 5
f 5 4 8
f 6 5 9
f 8 7 12
f 9 8 13
f 10 9 14
f 12 11 17
f 13 12 18
f 14 13 19
f 15 14 20
f 17 16 23
f 18 17 24
f 19 18 25
f 20 19 26
f 21 20 27
f 23 22 30
f 24 23 31
f 25 24 32
f 26 25 33
f 27 26 34
f 28 27 35
f 37 1 3
f 38 3 6
f 39 37 38
f 40 6 10
f 41 38 40
f 42 39 41
f 43 10 15
f 44 40 43
f 45 41 44
f 46 42 45
f 47 15 21
f 48 43 47
f 49 44 48
f 50 45 49
f 51 46 50
f 52 21 28
f 53 47 52
f 54 48 53
f 55 49 54
f 56 50 55
f 57 51 56
f 58 28 36
f 59 52 58
f 60 53 59
f 61 54 60
f 62 55 61
f 63 56 62
f 64 57 63
f 37 3 38
f 38 6 40
f 39 38 41
f 40 10 43
f 41 40 44
f 42 41 45
f 43 15 47
f 44 43 48
f 45 44 49
f 46 45 50
f 47 21 52
f 48 47 53
f 49 48 54
f 50 49 55
f 51 50 56
f 52 28 58
f 53 52 59
f 54 53 60
f 55 54 61
f 56 55 62
f 57 56 63
f 65 1 37
f 66 37 39
f 67 65 66
f 68 39 42
f 69 66 68
f 70 67 69
f 71 42 46
f 72 68 71
f 73 69 72
f 74 70 73
f 75 46 51
f 76 71 75
f 77 72 76
f 78 73 77
f 79 74 78
f 80 51 57
f 81 75 80
f 82 76 81
f 83 77 82
f 84 78 83
f 85 79 84
f 86 57 64
f 87 80 86
f 88 81 87
f 89 82 88
f 90 83 89
f 91 84 90
f 92 85 91
f 65 37 66
f 66 39 68
f 67 66 69
f 68 42 71
f 69 68 72
f 70 69 73
f 71 46 75
f 72 71 76
f 73 72 77
f 74 73 78
f 75 51 80
f 76 75 81
f 77 76 82
f 78 77 83
f 79 78 84
f 80 57 86
f 81 80 87
f 82 81 88
f 83 82 89
f 84 83 90
f 85 84 91
f 93 1 65
f 94 65 67
f 95 93 94
f 96 67 70
f 97 94 96
f 98 95 97
f 99 70 74
f 100 96 99
f 101 97 100
f 102 98 101
f 103 74 79
f 104 99 103
f 105 100 104
f 106 101 105
f 107 102 106
f 108 79 85
f 109 103 108
f 110 104 109
f 111 105 110
f 112 106 111
f 113 107 112
f 114 85 92
f 115 108 114
f 116 109 115
f 117 110 116
f 118 111 117
f 119 112 118
f 120 113 119
f 93 65 94
f 94 67 96
f 95 94 97
f 96 70 99
f 97 96 100
f 98 97 101
f 99 74 103
f 100 99 104
f 101 100 105
f 102 101 106
f 103 79 108
f 104 103 109
f 105 104 110
f 106 105 111
f 107 106 112
f 108 85 114
f 109 108 115
f 110 109 116
f 111 110 117
f 112 111 118
f 113 112 119
f 2 1 93
f 121 93 95
f 4 2 121
f 122 95 98
f 123 121 122
f 7 4 123
f 124 98 102
f 125 122 124
f 126 123 125
f 11 7 126
f 127 102 107
f 128 124 127
f 129 125 128
f 130 126 129
f 16 11 130
f 131 107 113
f 132 127 131
f 133 128 132
f 134 129 133
f 135 130 134
f 22 16 135
f 136 113 120
f 137 131 136
f 138 132 137
f 139 133 138
f 140 134 139
f 141 135 140
f 29 22 141
f 2 93 121
f 121 95 122
f 4 121 123
f 122 98 124
f 123 122 125
f 7 123 126
f 124 102 127
f 125 124 128
f 126 125 129
f 11 126 130
f 127 107 131
f 128 127 132
f 129 128 133
f 130 129 134
f 16 130 135
f 131 113 136
f 132 131 137
f 133 132 138
f 134 133 139
f 135 134 140
f 22 135 141
f 142 29 141
f 143 141 140
f 144 142 143
f 145 140 139
f 146 143 145
f 147 144 146
f 148 139 138
f 149 145 148
f 150 146 149
f 151 147 150
f 152 138 137
f 153 148 152
f 154 149 153
f 155 150 154
f 156 151 155
f 157 137 136
f 158 152 157
f 159 153 158
f 160 154 159
f 161 155 160
f 162 156 161
f 163 136 120
f 164 157 163
f 165 158 164
f 166 159 165
f 167 160 166
f 168 161 167
f 169 162 168
f 142 141 143
f 143 140 145
f 144 143 146
f 145 139 148
f 146 145 149
f 147 146 150
f 148 138 152
f 149 148 153
f 150 149 154
f 151 150 155
f 152 137 157
f 153 152 158
f 154 153 159
f 155 154 160
f 156 155 161
f 157 136 163
f 158 157 164
f 159 158 165
f 160 159 166
f 161 160 167
f 162 161 168
f 170 120 119
f 171 119 118
f 172 170 171
f 173 118 117
f 174 171 173
f 175 172 174
f 176 117 116
f 177 173 176
f 178 174 177
f 179 175 178
f 180 116 115
f 181 176 180
f 182 177 181
f 183 178 182
f 184 179 183
f 185 115 114
f 186 180 185
f 187 181 186
f 188 182 187
f 189 183 188
f 190 184 189
f 191 114 92
f 192 185 191
f 193 186 192
f 194 187 193
f 195 188 194
f 196 189 195
f 197 190 196
f 170 119 171
f 171 118 173
f 172 171 174
f 173 117 176
f 174 173 177
f 175 174 178
f 176 116 180
f 177 176 181
f 178 177 182
f 179 178 183
f 180 115 185
f 181 180 186
f 182 181 187
f 183 182 188
f 184 183 189
f 185 114 191
f 186 185 192
f 187 186 193
f 188 187 194
f 189 188 195
f 190 189 196
f 198 92 91
f 199 91 90
f 200 198 199
f 201 90 89
f 202 199 201
f 203 200 202
f 204 89 88
f 205 201 204
f 206 202 205
f 207 203 206
f 208 88 87
f 209 204 208
f 210 205 209
f 211 206 210
f 212 207 211
f 213 87 86
f 214 208 213
f 215 209 214
f 216 210 215
f 217 211 216
f 218 212 217
f 219 86 64
f 220 213 219
f 221 214 220
f 222 215 221
f 223 216 222
f 224 217 223
f 225 218 224
f 198 91 199
f 199 90 201
f 200 199 202
f 201 89 204
f 202 201 205
f 203 202 206
f 204 88 208
f 205 204 209
f 206 205 210
f 207 206 211
f 208 87 213
f 209 208 214
f 210 209 215
f 211 210 216
f 212 211 217
f 213 86 219
f 214 213 220
f 215 214 221
f 216 215 222
f 217 216 223
f 218 217 224
f 226 64 63
f 227 63 62
f 228 226 227
f 229 62 61
f 230 227 229
f 231 228 230
f 232 61 60
f 233 229 232
f 234 230 233
f 235 231 234
f 236 60 59
f 237 232 236
f 238 233 237
f 239 234 238
f 240 235 239
f 241 59 58
f 242 236 241
f 243 237 242
f 244 238 243
f 245 239 244
f 246 240 245
f 247 58 36
f 248 241 247
f 249 242 248
f 250 243 249
f 251 244 250
f 252 245 251
f 253 246 252
f 226 63 227
f 227 62 229
f 228 227 230
f 229 61 232
f 230 229 233
f 231 230 234
f 232 60 236
f 233 232 237
f 234 233 238
f 235 234 239
f 236 59 241
f 237 236 242
f 238 237 243
f 239 238 244
f 240 239 245
f 241 58 247
f 242 241 248
f 243 242 249
f 244 243 250
f 245 244 251
f 246 245 252
f 254 36 35
f 255 35 34
f 256 254 255
f 257 34 33
f 258 255 257
f 259 256 258
f 260 33 32
f 261 257 260
f 262 258 261
f 263 259 262
f 264 32 31
f 265 260 264
f 266 261 265
f 267 262 266
f 268 263 267
f 269 31 30
f 270 264 269
f 271 265 270
f 272 266 271
f 273 267 272
f 274 268 273
f 275 30 29
f 276 269 275
f 277 270 276
f 278 271 277
f 279 272 278
f 280 273 279
f 281 274 280
f 254 35 255
f 255 34 257
f 256 255 258
f 257 33 260
f 258 257 261
f 259 258 262
f 260 32 264
f 261 260 265
f 262 261 266
f 263 262 267
f 264 31 269
f 265 264 270
f 266 265 271
f 267 266 272
f 268 267 273
f 269 30 275
f 270 269 276
f 271 270 277
f 272 271 278
f 273 272 279
f 274 273 280
f 275 29 142
f 282 142 144
f 276 275 282
f 283 144 147
f 284 282 283
f 277 276 284
f 285 147 151
f 286 283 285
f 287 284 286
f 278 277 287
f 288 151 156
f 289 285 288
f 290 286 289
f 291 287 290
f 279 278 291
f 292 156 162
f 293 288 292
f 294 289 293
f 295 290 294
f 296 291 295
f 280 279 296
f 297 162 169
f 298 292 297
f 299 293 298
f 300 294 299
f 301 295 300
f 302 296 301
f 281 280 302
f 275 142 282
f 282 144 283
f 276 282 284
f 283 147 285
f 284 283 286
f 277 284 287
f 285 151 288
f 286 285 289
f 287 286 290
f 278 287 291
f 288 156 292
f 289 288 293
f 290 289 294
f 291 290 295
f 279 291 296
f 292 162 297
f 293 292 298
f 294 293 299
f 295 294 300
f 296 295 301
f 280 296 302
f 163 120 170
f 303 170 172
f 164 163 303
f 304 172 175
f 305 303 304
f 165 164 305
f 306 175 179
f 307 304 306
f 308 305 307
f 166 165 308
f 309 179 184
f 310 306 309
f 311 307 310
f 312 308 311
f 167 166 312
f 313 184 190
f 314 309 313
f 315 310 314
f 316 311 315
f 317 312 316
f 168 167 317
f 318 190 197
f 319 313 318
f 320 314 319
f 321 315 320
f 322 316 321
f 323 317 322
f 169 168 323
f 163 170 303
f 303 172 304
f 164 303 305
f 304 175 306
f 305 304 307
f 165 305 308
f 306 179 309
f 307 306 310
f 308 307 311
f 166 308 312
f 309 184 313
f 310 309 314
f 311 310 315
f 312 311 316
f 167 312 317
f 313 190 318
f 314 313 319
f 315 314 320
f 316 315 321
f 317 316 322
f 168 317 323
f 191 92 198
f 324 198 200
f 192 191 324
f 325 200 203
f 326 324 325
f 193 192 326
f 327 203 207
f 328 325 327
f 329 326 328
f 194 193 329
f 330 207 212
f 331 327 330
f 332 328 331
f 333 329 332
f 195 194 333
f 334 212 218
f 335 330 334
f 336 331 335
f 337 332 336
f 338 333 337
f 196 195 338
f 339 218 225
f 340 334 339
f 341 335 340
f 342 336 341
f 343 337 342
f 344 338 343
f 197 196 344
f 191 198 324
f 324 200 325
f 192 324 326
f 325 203 327
f 326 325 328
f 193 326 329
f 327 207 330
f 328 327 331
f 329 328 332
f 194 329 333
f 330 212 334
f 331 330 335
f 332 331 336
f 333 332 337
f 195 333 338
f 334 218 339
f 335 334 340
f 336 335 341
f 337 336 342
f 338 337 343
f 196 338 344
f 219 64 226
f 345 226 228
f 220 219 345
f 346 228 231
f 347 345 346
f 221 220 347
f 348 231 235
f 349 346 348
f 350 347 349
f 222 221 350
f 351 235 240
f 352 348 351
f 353 349 352
f 354 350 353
f 223 222 354
f 355 240 246
f 356 351 355
f 357 352 356
f 358 353 357
f 359 354 358
f 224 223 359
f 360 246 253
f 361 355 360
f 362 356 361
f 363 357 362
f 364 358 363
f 365 359 364
f 225 224 365
f 219 226 345
f 345 228 346
f 220 345 347
f 346 231 348
f 347 346 349
f 221 347 350
f 348 235 351
f 349 348 352
f 350 349 353
f 222 350 354
f 351 240 355
f 352 351 356
f 353 352 357
f 354 353 358
f 223 354 359
f 355 246 360
f 356 355 361
f 357 356 362
f 358 357 363
f 359 358 364
f 224 359 365
f 247 36 254
f 366 254 256
f 248 247 366
f 367 256 259
f 368 366 367
f 249 248 368
f 369 259 263
f 370 367 369
f 371 368 370
f 250 249 371
f 372 263 268
f 373 369 372
f 374 370 373
f 375 371 374
f 251 250 375
f 376 268 274
f 377 372 376
f 378 373 377
f 379 374 378
f 380 375 379
f 252 251 380
f 381 274 281
f 382 376 381
f 383 377 382
f 384 378 383
f 385 379 384
f 386 380 385
f 253 252 386
f 247 254 366
f 366 256 367
f 248 366 368
f 367 259 369
f 368 367 370
f 249 368 371
f 369 263 372
f 370 369 373
f 371 370 374
f 250 371 375
f 372 268 376
f 373 372 377
f 374 373 378
f 375 374 379
f 251 375 380
f 376 274 381
f 377 376 382
f 378 377 383
f 379 378 384
f 380 379 385
f 252 380 386
f 389 387 388
f 391 388 390
f 392 389 391
f 394 390 393
f 395 391 394
f 396 392 395
f 398 393 397
f 399 394 398
f 400 395 399
f 401 396 400
f 403 397 402
f 404 398 403
f 405 399 404
f 406 400 405
f 407 401 406
f 409 402 408
f 410 403 409
f 411 404 410
f 412 405 411
f 413 406 412
f 414 407 413
f 302 408 281
f 301 409 302
f 300 410 301
f 299 411 300
f 298 412 299
f 297 413 298
f 169 414 297
f 389 388 391
f 391 390 394
f 392 391 395
f 394 393 398
f 395 394 399
f 396 395 400
f 398 397 403
f 399 398 404
f 400 399 405
f 401 400 406
f 403 402 409
f 404 403 410
f 405 404 411
f 406 405 412
f 407 406 413
f 409 408 302
f 410 409 301
f 411 410 300
f 412 411 299
f 413 412 298
f 414 413 297
f 388 387 415
f 417 415 416
f 390 388 417
f 419 416 418
f 420 417 419
f 393 390 420
f 422 418 421
f 423 419 422
f 424 420 423
f 397 393 424
f 426 421 425
f 427 422 426
f 428 423 427
f 429 424 428
f 402 397 429
f 431 425 430
f 432 426 431
f 433 427 432
f 434 428 433
f 435 429 434
f 408 402 435
f 386 430 253
f 385 431 386
f 384 432 385
f 383 433 384
f 382 434 383
f 381 435 382
f 281 408 381
f 388 415 417
f 417 416 419
f 390 417 420
f 419 418 422
f 420 419 423
f 393 420 424
f 422 421 426
f 423 422 427
f 424 423 428
f 397 424 429
f 426 425 431
f 427 426 432
f 428 427 433
f 429 428 434
f 402 429 435
f 431 430 386
f 432 431 385
f 433 432 384
f 434 433 383
f 435 434 382
f 408 435 381
f 415 387 436
f 438 436 437
f 416 415 438
f 440 437 439
f 441 438 440
f 418 416 441
f 443 439 442
f 444 440 443
f 445 441 444
f 421 418 445
f 447 442 446
f 448 443 447
f 449 444 448
f 450 445 449
f 425 421 450
f 452 446 451
f 453 447 452
f 454 448 453
f 455 449 454
f 456 450 455
f 430 425 456
f 365 451 225
f 364 452 365
f 363 453 364
f 362 454 363
f 361 455 362
f 360 456 361
f 253 430 360
f 415 436 438
f 438 437 440
f 416 438 441
f 440 439 443
f 441 440 444
f 418 441 445
f 443 442 447
f 444 443 448
f 445 444 449
f 421 445 450
f 447 446 452
f 448 447 453
f 449 448 454
f 450 449 455
f 425 450 456
f 452 451 365
f 453 452 364
f 454 453 363
f 455 454 362
f 456 455 361
f 430 456 360
f 436 387 457
f 459 457 458
f 437 436 459
f 461 458 460
f 462 459 461
f 439 437 462
f 464 460 463
f 465 461 464
f 466 462 465
f 442 439 466
f 468 463 467
f 469 464 468
f 470 465 469
f 471 466 470
f 446 442 471
f 473 467 472
f 474 468 473
f 475 469 474
f 476 470 475
f 477 471 476
f 451 446 477
f 344 472 197
f 343 473 344
f 342 474 343
f 341 475 342
f 340 476 341
f 339 477 340
f 225 451 339
f 436 457 459
f 459 458 461
f 437 459 462
f 461 460 464
f 462 461 465
f 439 462 466
f 464 463 468
f 465 464 469
f 466 465 470
f 442 466 471
f 468 467 473
f 469 468 474
f 470 469 475
f 471 470 476
f 446 471 477
f 473 472 344
f 474 473 343
f 475 474 342
f 476 475 341
f 477 476 340
f 451 477 339
f 457 387 389
f 478 389 392
f 458 457 478
f 479 392 396
f 480 478 479
f 460 458 480
f 481 396 401
f 482 479 481
f 483 480 482
f 463 460 483
f 484 401 407
f 485 481 484
f 486 482 485
f 487 483 486
f 467 463 487
f 488 407 414
f 489 484 488
f 490 485 489
f 491 486 490
f 492 487 491
f 472 467 492
f 323 414 169
f 322 488 323
f 321 489 322
f 320 490 321
f 319 491 320
f 318 492 319
f 197 472 318
f 457 389 478
f 478 392 479
f 458 478 480
f 479 396 481
f 480 479 482
f 460 480 483
f 481 401 484
f 482 481 485
f 483 482 486
f 463 483 487
f 484 407 488
f 485 484 489
f 486 485 490
f 487 486 491
f 467 487 492
f 488 414 323
f 489 488 322
f 490 489 321
f 491 490 320
f 492 491 319
f 472 492 318
