# File exported by Houdini 20.5.445 (www.sidefx.com)
# 492 points
# 2940 vertices
# 980 primitives
# Bounds: [-142.848816, -136.505539, -1093.83655] to [313.622742, 252.882645, -660.964478]
g 
v 133.064087 102.132027 -1081.37317
v 133.748535 138.497772 -1090.20581
v 152.951172 116.814293 -1081.79944
v 129.302979 169.312592 -1087.9762
v 154.360046 155.911041 -1085.50989
v 171.11377 127.311089 -1079.64307
v 119.593506 193.819687 -1076.3562
v 150.648438 186.458008 -1078.12402
v 172.89917 166.264511 -1078.22644
v 188.42511 133.255127 -1074.82043
v 105.460388 212.86264 -1058.46448
v 141.660217 209.730515 -1063.3407
v 169.441528 195.556335 -1067.02344
v 189.890076 170.983246 -1069.18884
v 204.658875 135.703461 -1066.95776
v 88.8950043 227.634781 -1036.97131
v 128.194092 227.268356 -1043.88904
v 160.677917 217.536621 -1049.72681
v 186.132874 199.019226 -1054.81531
v 205.214722 171.684647 -1057.88696
v 219.464844 135.639313 -1055.26489
v 71.2224274 239.107697 -1013.27905
v 110.988525 240.330078 -1020.82715
v 146.635498 233.813965 -1027.5376
v 176.639587 219.947327 -1034.0697
v 200.442871 198.596436 -1040.03137
v 218.496643 169.739777 -1043.08508
v 232.284607 134.378052 -1038.89124
v 52.9113007 247.131088 -987.540894
v 90.1530914 249.361389 -993.912476
v 126.727783 245.065475 -1000.15369
v 160.46521 234.689713 -1006.80774
v 189.406616 218.019363 -1014.0603
v 212.451477 194.789871 -1020.46375
v 229.884338 165.67009 -1022.77612
v 243.187439 132.696014 -1017.03479
v 141.934265 71.0339432 -1065.35156
v 162.857788 81.8310699 -1068.20984
v 150.167603 36.4745255 -1044.83533
v 181.670166 89.3613052 -1068.16187
v 172.199402 45.2843323 -1049.8053
v 160.895752 1.84785461 -1020.63489
v 199.653992 93.9705505 -1064.12463
v 192.084412 52.3411331 -1050.29114
v 184.322327 10.8249016 -1026.25476
v 176.788513 -29.1648521 -992.978149
v 216.773804 96.4933472 -1055.07458
v 211.302673 57.7506485 -1044.76904
v 205.954285 19.289772 -1025.11743
v 202.400879 -18.2971153 -997.047607
v 199.454407 -53.3424454 -962.139282
v 232.632874 97.6624756 -1039.79297
v 229.950378 61.6223145 -1031.5448
v 227.2052 26.5303822 -1015.22827
v 226.606262 -7.6492691 -991.41333
v 227.307617 -40.2062225 -961.770142
v 226.642395 -69.7324753 -928.366699
v 246.806396 99.0411606 -1017.10181
v 247.700439 65.2006836 -1008.92969
v 248.391296 32.6786041 -993.896484
v 250.481873 1.76737785 -973.098145
v 253.726685 -27.6133614 -947.834473
v 255.735291 -55.0131836 -920.293457
v 253.924622 -79.3441849 -892.348755
v 116.729492 67.9566269 -1067.07581
v 125.389221 32.9209328 -1042.17993
v 98.2627716 34.8487778 -1045.21008
v 135.559326 -2.69203758 -1014.46301
v 109.272156 -1.1505394 -1013.31226
v 79.7854156 4.5089035 -1018.04846
v 150.349121 -35.8586426 -985.046021
v 123.754944 -35.5597687 -980.841553
v 95.5801544 -30.5844116 -981.75
v 64.0088348 -22.2946129 -988.032471
v 172.066284 -63.4773331 -954.289429
v 144.283325 -66.0361252 -948.233887
v 115.952637 -62.8047409 -946.151611
v 86.1326447 -55.4961014 -949.059937
v 53.4780426 -45.715004 -956.342163
v 200.2052 -83.4176712 -921.748169
v 172.025391 -90.1351547 -915.332642
v 142.774719 -90.3853149 -911.226318
v 112.707642 -85.36203 -911.263306
v 81.6113129 -76.618576 -916.226685
v 48.9644623 -66.5642166 -924.240845
v 231.198975 -95.4495316 -886.762939
v 204.717163 -106.392181 -880.80481
v 175.626038 -111.278336 -875.951782
v 144.840576 -110.181885 -873.971558
v 113.138794 -104.085175 -876.508667
v 81.1218109 -94.961113 -883.627686
v 49.0557404 -84.9765244 -893.218262
v 111.717041 106.654625 -1087.66077
v 91.5163422 71.1621628 -1073.5824
v 86.0876312 105.441467 -1090.76965
v 69.3801727 38.7550278 -1051.53186
v 62.9663544 69.685463 -1076.13
v 56.2487335 99.5560608 -1088.19934
v 48.0910492 9.92476273 -1024.05383
v 38.5659637 38.6435013 -1052.97229
v 31.4566803 65.1105728 -1072.12952
v 23.1741486 91.0703735 -1078.09424
v 31.0861969 -16.1906052 -992.531982
v 16.6126556 10.8576889 -1023.12781
v 6.76649475 35.5040207 -1046.29578
v -1.70332336 58.5616379 -1059.53418
v -11.8620758 81.0624466 -1060.66638
v 20.8591766 -40.47715 -957.88208
v 0.197036743 -15.2878342 -988.175903
v -14.4250946 8.28902435 -1012.8468
v -25.545578 30.0555515 -1030.28418
v -35.9026642 50.3104324 -1038.93213
v -47.0823517 70.2529907 -1037.74329
v 17.8448944 -63.4560318 -921.94397
v -8.65611267 -40.7690201 -949.561646
v -29.6050262 -18.2012634 -973.919189
v -45.8927155 3.10526085 -993.125977
v -59.1519012 22.8708858 -1006.34692
v -70.5826874 41.5626144 -1012.60205
v -80.4395599 60.2537994 -1011.47949
v 108.001831 140.809082 -1093.83655
v 78.1450958 135.779388 -1092.30908
v 97.9565582 167.94429 -1087.17114
v 44.7597198 125.936913 -1083.91785
v 63.6348419 159.351852 -1080.49072
v 82.7850494 189.29805 -1071.23328
v 8.4400177 113.614647 -1068.32581
v 26.7220001 146.453156 -1067.18347
v 44.585495 178.454422 -1060.14368
v 64.7092438 206.475113 -1049.51221
v -29.8289948 99.9744186 -1046.59021
v -12.5798187 131.245483 -1047.34595
v 4.72566223 163.71936 -1042.81775
v 23.8889923 194.844376 -1034.8197
v 46.0681 220.909927 -1024.67993
v -68.2483063 86.1750412 -1020.13416
v -53.5927582 115.073906 -1022.10376
v -37.0696564 147.052795 -1019.61694
v -18.1153412 180.045792 -1014.22046
v 3.68016052 209.81279 -1006.73682
v 27.6258698 232.900208 -997.557983
v 19.4641876 244.538193 -967.027954
v -9.08442688 224.995682 -977.543213
v -11.6216583 236.176529 -947.022583
v -34.7001801 196.894547 -986.104492
v -41.6248627 211.987549 -958.756958
v -38.6380157 222.220047 -927.697754
v -57.070816 163.72197 -992.062866
v -67.2610626 180.87326 -966.765137
v -68.3656158 195.424561 -940.026855
v -59.5116425 204.235687 -908.000977
v -75.884079 129.224731 -995.257568
v -88.8506012 146.545197 -971.024414
v -92.8721771 163.447601 -946.880737
v -87.7993927 176.80867 -919.973999
v -73.1204681 183.938828 -887.129639
v -91.4737396 97.0215912 -995.342407
v -106.641068 112.027435 -971.613281
v -112.955795 129.407959 -948.739136
v -110.44313 145.356567 -924.811157
v -99.0904388 157.042419 -897.581543
v -79.6162567 162.649353 -864.815186
v -103.56102 68.0229263 -990.319214
v -120.580673 79.7535858 -967.950195
v -128.939987 95.5108795 -945.827637
v -128.18367 112.009064 -923.321045
v -118.863327 126.277847 -899.334595
v -102.213608 136.243225 -872.406128
v -80.2913361 141.015839 -841.390991
v -103.576187 41.2824097 -985.247559
v -91.7551422 20.3709679 -980.978149
v -119.365402 25.8564739 -957.016235
v -76.2543488 -0.0212345123 -970.481445
v -103.280655 3.00522041 -949.367432
v -125.996811 13.8574591 -928.599976
v -56.9922028 -21.1520271 -954.912598
v -82.0078583 -19.0885391 -936.880005
v -104.826309 -11.0139618 -919.159912
v -122.530746 3.44194603 -900.988892
v -33.5185089 -43.4105682 -934.459717
v -56.267807 -41.8317337 -919.897461
v -77.9071808 -34.9859085 -905.450806
v -96.9371185 -23.0867538 -890.341675
v -110.147354 -6.6185112 -874.140381
v -4.71116638 -66.1605225 -909.546753
v -25.8655243 -65.1397552 -897.7771
v -46.3112946 -58.988121 -886.362793
v -65.5000153 -47.9135971 -874.567749
v -81.4086761 -33.2343903 -861.620605
v -91.7400665 -15.9688644 -847.380615
v 30.1073456 -87.9805374 -881.270752
v 10.7376251 -87.6605453 -870.541626
v -8.99723816 -82.4639206 -860.907104
v -28.4352875 -71.8611832 -851.884399
v -45.9649506 -57.6051254 -842.373169
v -60.1707916 -41.2879028 -831.958984
v -69.3802338 -24.7034607 -820.430298
v 71.8613129 -105.593338 -857.994263
v 109.134399 -116.140549 -847.335083
v 96.5571136 -120.348541 -826.286865
v 144.651489 -123.52655 -841.692383
v 137.470642 -129.596649 -817.42395
v 121.07489 -128.580307 -799.051147
v 178.323181 -125.802399 -841.164429
v 174.645081 -133.853043 -814.188477
v 163.428223 -135.720276 -792.642334
v 142.578125 -130.599396 -775.71875
v 209.908813 -122.056381 -844.088867
v 208.758484 -131.902817 -814.795166
v 200.610535 -136.505539 -790.910522
v 184.500488 -135.1418 -771.095947
v 159.200806 -126.824951 -755.18811
v 238.98053 -111.861176 -848.766968
v 240.188171 -123.318268 -817.123535
v 234.205872 -130.564453 -790.978638
v 220.728088 -132.654205 -769.161743
v 199.562195 -128.566895 -751.009033
v 171.190002 -118.047333 -736.55542
v 264.609985 -95.2844543 -854.093994
v 268.663208 -107.667419 -820.038086
v 264.938354 -117.124283 -791.074463
v 253.420349 -122.686066 -767.000244
v 234.482788 -122.682907 -747.286865
v 209.404053 -116.707535 -731.384155
v 179.860962 -106.002365 -718.97937
v 279.387939 -70.4499435 -870.606201
v 279.9552 -44.0746613 -896.654785
v 297.764221 -58.7836685 -845.61084
v 276.105713 -16.7004509 -922.134277
v 296.91925 -31.2786026 -870.447388
v 308.996033 -45.0190811 -819.592163
v 270.822754 11.8532639 -945.715332
v 291.737793 -3.71417999 -895.078735
v 307.47168 -16.7556763 -844.303955
v 313.622742 -29.418129 -795.27832
v 266.092773 42.2919846 -966.005615
v 284.983276 25.2668114 -918.199707
v 301.606506 11.6647301 -868.993896
v 312.075867 -0.266613007 -820.328247
v 312.219849 -12.2101631 -774.599731
v 261.840759 75.4886856 -981.809204
v 277.902283 56.971077 -938.656738
v 293.679016 42.2375336 -891.950806
v 305.743225 29.7071381 -844.857544
v 310.557556 18.1072159 -799.444824
v 305.073059 6.17114639 -758.251465
v 256.662231 111.302643 -990.200073
v 270.154907 92.4621048 -954.193848
v 283.833984 76.7218018 -911.574829
v 295.875854 63.1066742 -866.572998
v 302.719666 50.4952621 -822.463501
v 301.861755 38.0604172 -781.437256
v 292.473022 25.1624012 -745.699341
v 243.78064 150.625885 -995.863647
v 225.135803 183.337051 -996.964111
v 239.439697 165.260437 -968.668823
v 201.207214 209.677872 -991.177002
v 214.050842 195.268723 -966.634521
v 229.307678 175.968155 -936.410767
v 171.436401 229.31572 -983.31897
v 183.204285 217.909439 -959.627686
v 196.968689 202.000229 -933.223999
v 213.345886 182.7659 -900.708618
v 136.567993 242.860291 -975.964233
v 147.229736 234.190491 -951.843262
v 159.914551 220.826736 -926.430664
v 175.12384 204.374222 -897.683716
v 192.631592 186.079346 -863.363281
v 98.2125397 250.91713 -969.654907
v 107.25293 245.178284 -944.763672
v 118.708984 234.019409 -918.952637
v 133.171692 219.398804 -891.290405
v 150.291321 203.153534 -860.574585
v 168.858521 186.284546 -826.147827
v 58.0401459 252.882645 -963.860718
v 64.6521149 250.865128 -938.415405
v 74.1620026 242.192139 -911.529785
v 87.5770721 229.056931 -883.355591
v 104.642334 213.88942 -853.726562
v 123.938538 198.509827 -822.622681
v 143.60376 183.566956 -790.798706
v 24.2585602 249.207733 -938.691772
v -4.49455261 238.833298 -915.062988
v 32.1263275 244.523651 -909.010742
v -27.3218842 222.610291 -892.708252
v 6.72132874 231.57106 -881.682739
v 44.220993 233.131744 -878.260376
v -43.3943024 202.356537 -870.274414
v -11.8185883 213.274872 -855.703735
v 22.567276 218.183777 -846.956299
v 61.0940399 218.19342 -846.550293
v -52.7377167 179.601257 -846.765625
v -23.7671661 191.173325 -829.441162
v 7.91969299 198.360962 -816.423828
v 43.1830902 202.05246 -810.908325
v 82.0654449 202.190506 -813.53186
v -56.2926788 155.157227 -821.792603
v -29.9144745 166.275223 -801.603027
v -0.754104614 174.854645 -784.499268
v 31.8963776 181.448242 -774.497803
v 67.8088226 185.623871 -773.163086
v 105.591858 186.54303 -779.072144
v -125.526321 51.1321945 -962.990723
v -137.187317 39.3173447 -935.242432
v -137.721237 65.2977295 -940.626953
v -137.937271 29.9577827 -907.907837
v -142.848816 55.2230911 -913.358643
v -139.28981 81.5386658 -918.333374
v -128.18132 20.0865192 -880.878296
v -136.44223 45.3061752 -885.945923
v -136.974243 70.3028946 -890.384888
v -131.123184 96.7991333 -894.909668
v -110.346451 9.00673103 -853.399414
v -120.434921 33.5969925 -857.704712
v -123.590378 58.1212006 -861.177612
v -121.489243 83.2297211 -864.812988
v -114.659531 109.317085 -868.792969
v -86.7745209 -2.77754021 -824.459351
v -97.1972809 19.9159317 -827.276489
v -101.571548 43.4917755 -829.196899
v -101.592117 68.0155029 -831.202881
v -98.3552399 93.0159302 -834.144287
v -91.4393768 117.531281 -837.872559
v 52.9479828 -106.327805 -844.902344
v 76.1133575 -117.037994 -813.394287
v 33.0645294 -102.159302 -834.733398
v 97.7462616 -120.84935 -786.599243
v 54.4268341 -108.271439 -804.348633
v 12.4897308 -92.3318939 -826.654663
v 116.023071 -118.702103 -763.318481
v 73.4401398 -107.854828 -777.977173
v 32.1595917 -94.3935852 -797.411255
v -7.54548645 -77.9325867 -819.11377
v 130.710999 -111.538788 -741.943237
v 89.8657684 -102.206329 -753.766479
v 49.583725 -90.9051514 -770.63208
v 10.9715424 -77.3069611 -790.21521
v -25.5159454 -60.7903137 -810.776001
v 142.933105 -100.368591 -721.487427
v 104.426453 -92.5075607 -729.722046
v 65.5718536 -83.1146698 -743.799072
v 27.8078461 -72.0429001 -761.819214
v -7.53779602 -58.5732956 -781.168213
v -39.9507904 -42.5615234 -800.828247
v 288.773499 -85.2205811 -828.565552
v 302.832153 -72.3643265 -802.051758
v 288.494934 -96.6166534 -793.550903
v 308.380554 -57.2854919 -776.60376
v 297.018921 -82.7857666 -767.77417
v 279.269104 -105.170074 -765.310059
v 306.840698 -40.1147995 -754.334961
v 296.659973 -66.2220306 -744.1875
v 281.988831 -89.7926636 -741.112793
v 261.751221 -109.091583 -742.723389
v 299.183716 -21.0690994 -736.494873
v 288.992126 -46.9861145 -723.939453
v 275.524719 -70.978096 -719.193848
v 258.306335 -91.3807144 -720.004395
v 236.584045 -106.821793 -724.480957
v 285.949219 0.0329151154 -723.246582
v 275.238831 -24.8840408 -707.994995
v 261.40741 -48.5180435 -700.192993
v 245.163879 -69.4893112 -698.927612
v 226.535095 -86.4544754 -702.518066
v 204.929993 -98.5534134 -709.50293
v 258.222717 129.847076 -965.017334
v 254.2995 144.929535 -934.294678
v 271.372131 112.178368 -926.299072
v 244.128967 156.361267 -899.003296
v 266.451172 127.955498 -893.650879
v 282.735168 97.0654221 -882.973877
v 227.51593 164.267685 -860.658569
v 254.543884 139.907349 -856.883057
v 274.914185 112.76297 -850.116943
v 290.462097 82.9104767 -838.684082
v 204.966064 168.762482 -820.953125
v 235.16803 148.120361 -817.101685
v 259.264771 124.070694 -813.022217
v 277.377991 97.2297287 -806.478149
v 291.344299 68.3439941 -795.73645
v 177.66748 169.964844 -781.537231
v 208.755676 152.751312 -775.491211
v 235.373108 131.432983 -771.994507
v 256.180603 106.774086 -768.96582
v 271.89447 80.1287384 -763.831909
v 283.923218 52.6748276 -755.401733
v 90.407547 28.1671963 -668.220825
v 100.753433 56.5074844 -663.866821
v 59.966629 45.5321045 -675.094971
v 110.474915 85.7485123 -664.828613
v 68.2069244 76.6677704 -670.31958
v 30.4093475 63.840538 -686.391235
v 119.391052 113.452141 -673.420776
v 76.1997223 105.96331 -673.481689
v 37.771225 95.1985779 -683.819458
v 3.24504089 82.0030365 -705.535156
v 127.162292 137.471283 -690.952271
v 83.8194122 132.082581 -686.015259
v 45.0427399 122.785561 -691.087036
v 10.3001556 111.724197 -707.003296
v -21.1901093 99.0294647 -733.421875
v 133.697083 156.758728 -717.452881
v 91.189743 153.922791 -708.348633
v 52.3206635 146.63092 -708.648438
v 17.4114838 137.025543 -719.118408
v -13.976944 126.506828 -739.870361
v -43.0825653 114.324547 -767.851929
v 139.418701 171.352005 -751.753052
v 98.5224762 171.505661 -739.911743
v 59.934494 166.988647 -736.296631
v 24.5587616 159.580353 -741.734375
v -7.14060974 150.667755 -756.938232
v -35.878067 140.64798 -779.507568
v -62.896286 128.250488 -805.009766
v 127.367249 29.0417862 -662.05249
v 162.933044 30.9793243 -662.25769
v 140.823059 59.9752121 -662.569702
v 195.63855 32.7603378 -668.837524
v 177.361267 62.9389648 -669.077759
v 152.391235 89.8358231 -669.362671
v 224.689819 33.1196976 -681.390747
v 209.612488 63.8943863 -682.591187
v 189.167297 91.6504593 -682.648438
v 161.945129 116.389145 -684.083374
v 250.223022 31.5567207 -698.98999
v 237.693787 62.1905594 -702.254272
v 220.803223 90.4561157 -703.427368
v 198.280823 116.130005 -704.183105
v 169.215576 138.528687 -707.664307
v 272.901367 28.6204967 -720.582275
v 262.315002 58.1788788 -726.821655
v 248.058105 86.3530121 -730.761963
v 229.351807 112.732666 -732.567627
v 204.733154 136.302704 -734.767212
v 174.369568 156.099884 -740.312866
v 101.788452 2.90021133 -667.986816
v 112.602905 -18.7719574 -667.394043
v 141.076843 2.43332863 -660.966064
v 123.595947 -37.5109558 -669.376709
v 152.99707 -19.9944229 -660.964478
v 176.708069 3.23713493 -661.390991
v 135.274475 -54.8274002 -676.213379
v 164.019409 -40.1131821 -665.603149
v 187.959839 -20.3657532 -663.208862
v 208.31604 3.86443329 -668.479614
v 148.56012 -72.0311737 -687.690186
v 175.471252 -59.5846634 -675.825317
v 198.485474 -42.4331818 -670.689453
v 218.74231 -21.352829 -672.307007
v 236.355835 3.30594444 -681.396973
v 163.963867 -89.3483353 -702.424927
v 189.10437 -79.2243347 -690.831299
v 210.765747 -64.4255219 -683.941406
v 230.002014 -45.4908066 -682.342041
v 247.301697 -23.2399902 -687.16687
v 261.988281 1.74978638 -699.589966
v 60.9465179 12.826582 -680.932495
v 32.1805267 1.48376465 -699.2146
v 70.6414337 -12.2830391 -681.691772
v 5.01585388 -6.22085571 -721.11853
v 41.3763275 -22.215271 -700.78125
v 80.7625275 -32.1268692 -682.573975
v -19.1713104 -11.9146423 -745.222534
v 15.102005 -29.0090446 -723.125732
v 52.2344513 -40.6802292 -703.200806
v 92.4732513 -48.9127655 -686.492065
v -39.6777191 -16.4362869 -770.55481
v -7.15647888 -34.2482147 -747.845215
v 28.0597382 -47.3679733 -727.017822
v 66.1300201 -57.0621338 -708.486084
v 106.565613 -64.9799423 -694.670166
v -56.4674835 -20.375206 -795.814819
v -25.3344574 -38.4869003 -773.951904
v 8.43440247 -53.1531296 -753.307129
v 44.8600616 -64.5977173 -733.806152
v 83.504837 -73.8380966 -717.370239
v 123.481873 -82.0742188 -706.633057
v 28.3797455 31.08535 -693.522827
v -0.789077759 50.4487076 -710.704712
v -0.282058716 21.0652199 -717.009888
v -26.3431244 69.2961273 -734.85437
v -28.0039215 40.7522202 -738.632812
v -26.2754364 13.7997789 -742.821411
v -49.5618439 86.7831573 -765.563721
v -52.4184418 59.4346771 -765.830688
v -52.8361664 33.1114426 -767.751221
v -49.4524689 7.91883278 -769.914795
v -71.3125458 102.858742 -800.790161
v -75.6490631 76.8790436 -798.102905
v -77.2238922 51.1466141 -797.250244
v -75.9378815 26.3794212 -797.430298
v -69.8912201 2.67421913 -797.256104
g 
f 3 1 2
f 5 2 4
f 6 3 5
f 8 4 7
f 9 5 8
f 10 6 9
f 12 7 11
f 13 8 12
f 14 9 13
f 15 10 14
f 17 11 16
f 18 12 17
f 19 13 18
f 20 14 19
f 21 15 20
f 23 16 22
f 24 17 23
f 25 18 24
f 26 19 25
f 27 20 26
f 28 21 27
f 30 22 29
f 31 23 30
f 32 24 31
f 33 25 32
f 34 26 33
f 35 27 34
f 36 28 35
f 3 2 5
f 5 4 8
f 6 5 9
f 8 7 12
f 9 8 13
f 10 9 14
f 12 11 17
f 13 12 18
f 14 13 19
f 15 14 20
f 17 16 23
f 18 17 24
f 19 18 25
f 20 19 26
f 21 20 27
f 23 22 30
f 24 23 31
f 25 24 32
f 26 25 33
f 27 26 34
f 28 27 35
f 37 1 3
f 38 3 6
f 39 37 38
f 40 6 10
f 41 38 40
f 42 39 41
f 43 10 15
f 44 40 43
f 45 41 44
f 46 42 45
f 47 15 21
f 48 43 47
f 49 44 48
f 50 45 49
f 51 46 50
f 52 21 28
f 53 47 52
f 54 48 53
f 55 49 54
f 56 50 55
f 57 51 56
f 58 28 36
f 59 52 58
f 60 53 59
f 61 54 60
f 62 55 61
f 63 56 62
f 64 57 63
f 37 3 38
f 38 6 40
f 39 38 41
f 40 10 43
f 41 40 44
f 42 41 45
f 43 15 47
f 44 43 48
f 45 44 49
f 46 45 50
f 47 21 52
f 48 47 53
f 49 48 54
f 50 49 55
f 51 50 56
f 52 28 58
f 53 52 59
f 54 53 60
f 55 54 61
f 56 55 62
f 57 56 63
f 65 1 37
f 66 37 39
f 67 65 66
f 68 39 42
f 69 66 68
f 70 67 69
f 71 42 46
f 72 68 71
f 73 69 72
f 74 70 73
f 75 46 51
f 76 71 75
f 77 72 76
f 78 73 77
f 79 74 78
f 80 51 57
f 81 75 80
f 82 76 81
f 83 77 82
f 84 78 83
f 85 79 84
f 86 57 64
f 87 80 86
f 88 81 87
f 89 82 88
f 90 83 89
f 91 84 90
f 92 85 91
f 65 37 66
f 66 39 68
f 67 66 69
f 68 42 71
f 69 68 72
f 70 69 73
f 71 46 75
f 72 71 76
f 73 72 77
f 74 73 78
f 75 51 80
f 76 75 81
f 77 76 82
f 78 77 83
f 79 78 84
f 80 57 86
f 81 80 87
f 82 81 88
f 83 82 89
f 84 83 90
f 85 84 91
f 93 1 65
f 94 65 67
f 95 93 94
f 96 67 70
f 97 94 96
f 98 95 97
f 99 70 74
f 100 96 99
f 101 97 100
f 102 98 101
f 103 74 79
f 104 99 103
f 105 100 104
f 106 101 105
f 107 102 106
f 108 79 85
f 109 103 108
f 110 104 109
f 111 105 110
f 112 106 111
f 113 107 112
f 114 85 92
f 115 108 114
f 116 109 115
f 117 110 116
f 118 111 117
f 119 112 118
f 120 113 119
f 93 65 94
f 94 67 96
f 95 94 97
f 96 70 99
f 97 96 100
f 98 97 101
f 99 74 103
f 100 99 104
f 101 100 105
f 102 101 106
f 103 79 108
f 104 103 109
f 105 104 110
f 106 105 111
f 107 106 112
f 108 85 114
f 109 108 115
f 110 109 116
f 111 110 117
f 112 111 118
f 113 112 119
f 2 1 93
f 121 93 95
f 4 2 121
f 122 95 98
f 123 121 122
f 7 4 123
f 124 98 102
f 125 122 124
f 126 123 125
f 11 7 126
f 127 102 107
f 128 124 127
f 129 125 128
f 130 126 129
f 16 11 130
f 131 107 113
f 132 127 131
f 133 128 132
f 134 129 133
f 135 130 134
f 22 16 135
f 136 113 120
f 137 131 136
f 138 132 137
f 139 133 138
f 140 134 139
f 141 135 140
f 29 22 141
f 2 93 121
f 121 95 122
f 4 121 123
f 122 98 124
f 123 122 125
f 7 123 126
f 124 102 127
f 125 124 128
f 126 125 129
f 11 126 130
f 127 107 131
f 128 127 132
f 129 128 133
f 130 129 134
f 16 130 135
f 131 113 136
f 132 131 137
f 133 132 138
f 134 133 139
f 135 134 140
f 22 135 141
f 142 29 141
f 143 141 140
f 144 142 143
f 145 140 139
f 146 143 145
f 147 144 146
f 148 139 138
f 149 145 148
f 150 146 149
f 151 147 150
f 152 138 137
f 153 148 152
f 154 149 153
f 155 150 154
f 156 151 155
f 157 137 136
f 158 152 157
f 159 153 158
f 160 154 159
f 161 155 160
f 162 156 161
f 163 136 120
f 164 157 163
f 165 158 164
f 166 159 165
f 167 160 166
f 168 161 167
f 169 162 168
f 142 141 143
f 143 140 145
f 144 143 146
f 145 139 148
f 146 145 149
f 147 146 150
f 148 138 152
f 149 148 153
f 150 149 154
f 151 150 155
f 152 137 157
f 153 152 158
f 154 153 159
f 155 154 160
f 156 155 161
f 157 136 163
f 158 157 164
f 159 158 165
f 160 159 166
f 161 160 167
f 162 161 168
f 170 120 119
f 171 119 118
f 172 170 171
f 173 118 117
f 174 171 173
f 175 172 174
f 176 117 116
f 177 173 176
f 178 174 177
f 179 175 178
f 180 116 115
f 181 176 180
f 182 177 181
f 183 178 182
f 184 179 183
f 185 115 114
f 186 180 185
f 187 181 186
f 188 182 187
f 189 183 188
f 190 184 189
f 191 114 92
f 192 185 191
f 193 186 192
f 194 187 193
f 195 188 194
f 196 189 195
f 197 190 196
f 170 119 171
f 171 118 173
f 172 171 174
f 173 117 176
f 174 173 177
f 175 174 178
f 176 116 180
f 177 176 181
f 178 177 182
f 179 178 183
f 180 115 185
f 181 180 186
f 182 181 187
f 183 182 188
f 184 183 189
f 185 114 191
f 186 185 192
f 187 186 193
f 188 187 194
f 189 188 195
f 190 189 196
f 198 92 91
f 199 91 90
f 200 198 199
f 201 90 89
f 202 199 201
f 203 200 202
f 204 89 88
f 205 201 204
f 206 202 205
f 207 203 206
f 208 88 87
f 209 204 208
f 210 205 209
f 211 206 210
f 212 207 211
f 213 87 86
f 214 208 213
f 215 209 214
f 216 210 215
f 217 211 216
f 218 212 217
f 219 86 64
f 220 213 219
f 221 214 220
f 222 215 221
f 223 216 222
f 224 217 223
f 225 218 224
f 198 91 199
f 199 90 201
f 200 199 202
f 201 89 204
f 202 201 205
f 203 202 206
f 204 88 208
f 205 204 209
f 206 205 210
f 207 206 211
f 208 87 213
f 209 208 214
f 210 209 215
f 211 210 216
f 212 211 217
f 213 86 219
f 214 213 220
f 215 214 221
f 216 215 222
f 217 216 223
f 218 217 224
f 226 64 63
f 227 63 62
f 228 226 227
f 229 62 61
f 230 227 229
f 231 228 230
f 232 61 60
f 233 229 232
f 234 230 233
f 235 231 234
f 236 60 59
f 237 232 236
f 238 233 237
f 239 234 238
f 240 235 239
f 241 59 58
f 242 236 241
f 243 237 242
f 244 238 243
f 245 239 244
f 246 240 245
f 247 58 36
f 248 241 247
f 249 242 248
f 250 243 249
f 251 244 250
f 252 245 251
f 253 246 252
f 226 63 227
f 227 62 229
f 228 227 230
f 229 61 232
f 230 229 233
f 231 230 234
f 232 60 236
f 233 232 237
f 234 233 238
f 235 234 239
f 236 59 241
f 237 236 242
f 238 237 243
f 239 238 244
f 240 239 245
f 241 58 247
f 242 241 248
f 243 242 249
f 244 243 250
f 245 244 251
f 246 245 252
f 254 36 35
f 255 35 34
f 256 254 255
f 257 34 33
f 258 255 257
f 259 256 258
f 260 33 32
f 261 257 260
f 262 258 261
f 263 259 262
f 264 32 31
f 265 260 264
f 266 261 265
f 267 262 266
f 268 263 267
f 269 31 30
f 270 264 269
f 271 265 270
f 272 266 271
f 273 267 272
f 274 268 273
f 275 30 29
f 276 269 275
f 277 270 276
f 278 271 277
f 279 272 278
f 280 273 279
f 281 274 280
f 254 35 255
f 255 34 257
f 256 255 258
f 257 33 260
f 258 257 261
f 259 258 262
f 260 32 264
f 261 260 265
f 262 261 266
f 263 262 267
f 264 31 269
f 265 264 270
f 266 265 271
f 267 266 272
f 268 267 273
f 269 30 275
f 270 269 276
f 271 270 277
f 272 271 278
f 273 272 279
f 274 273 280
f 275 29 142
f 282 142 144
f 276 275 282
f 283 144 147
f 284 282 283
f 277 276 284
f 285 147 151
f 286 283 285
f 287 284 286
f 278 277 287
f 288 151 156
f 289 285 288
f 290 286 289
f 291 287 290
f 279 278 291
f 292 156 162
f 293 288 292
f 294 289 293
f 295 290 294
f 296 291 295
f 280 279 296
f 297 162 169
f 298 292 297
f 299 293 298
f 300 294 299
f 301 295 300
f 302 296 301
f 281 280 302
f 275 142 282
f 282 144 283
f 276 282 284
f 283 147 285
f 284 283 286
f 277 284 287
f 285 151 288
f 286 285 289
f 287 286 290
f 278 287 291
f 288 156 292
f 289 288 293
f 290 289 294
f 291 290 295
f 279 291 296
f 292 162 297
f 293 292 298
f 294 293 299
f 295 294 300
f 296 295 301
f 280 296 302
f 163 120 170
f 303 170 172
f 164 163 303
f 304 172 175
f 305 303 304
f 165 164 305
f 306 175 179
f 307 304 306
f 308 305 307
f 166 165 308
f 309 179 184
f 310 306 309
f 311 307 310
f 312 308 311
f 167 166 312
f 313 184 190
f 314 309 313
f 315 310 314
f 316 311 315
f 317 312 316
f 168 167 317
f 318 190 197
f 319 313 318
f 320 314 319
f 321 315 320
f 322 316 321
f 323 317 322
f 169 168 323
f 163 170 303
f 303 172 304
f 164 303 305
f 304 175 306
f 305 304 307
f 165 305 308
f 306 179 309
f 307 306 310
f 308 307 311
f 166 308 312
f 309 184 313
f 310 309 314
f 311 310 315
f 312 311 316
f 167 312 317
f 313 190 318
f 314 313 319
f 315 314 320
f 316 315 321
f 317 316 322
f 168 317 323
f 191 92 198
f 324 198 200
f 192 191 324
f 325 200 203
f 326 324 325
f 193 192 326
f 327 203 207
f 328 325 327
f 329 326 328
f 194 193 329
f 330 207 212
f 331 327 330
f 332 328 331
f 333 329 332
f 195 194 333
f 334 212 218
f 335 330 334
f 336 331 335
f 337 332 336
f 338 333 337
f 196 195 338
f 339 218 225
f 340 334 339
f 341 335 340
f 342 336 341
f 343 337 342
f 344 338 343
f 197 196 344
f 191 198 324
f 324 200 325
f 192 324 326
f 325 203 327
f 326 325 328
f 193 326 329
f 327 207 330
f 328 327 331
f 329 328 332
f 194 329 333
f 330 212 334
f 331 330 335
f 332 331 336
f 333 332 337
f 195 333 338
f 334 218 339
f 335 334 340
f 336 335 341
f 337 336 342
f 338 337 343
f 196 338 344
f 219 64 226
f 345 226 228
f 220 219 345
f 346 228 231
f 347 345 346
f 221 220 347
f 348 231 235
f 349 346 348
f 350 347 349
f 222 221 350
f 351 235 240
f 352 348 351
f 353 349 352
f 354 350 353
f 223 222 354
f 355 240 246
f 356 351 355
f 357 352 356
f 358 353 357
f 359 354 358
f 224 223 359
f 360 246 253
f 361 355 360
f 362 356 361
f 363 357 362
f 364 358 363
f 365 359 364
f 225 224 365
f 219 226 345
f 345 228 346
f 220 345 347
f 346 231 348
f 347 346 349
f 221 347 350
f 348 235 351
f 349 348 352
f 350 349 353
f 222 350 354
f 351 240 355
f 352 351 356
f 353 352 357
f 354 353 358
f 223 354 359
f 355 246 360
f 356 355 361
f 357 356 362
f 358 357 363
f 359 358 364
f 224 359 365
f 247 36 254
f 366 254 256
f 248 247 366
f 367 256 259
f 368 366 367
f 249 248 368
f 369 259 263
f 370 367 369
f 371 368 370
f 250 249 371
f 372 263 268
f 373 369 372
f 374 370 373
f 375 371 374
f 251 250 375
f 376 268 274
f 377 372 376
f 378 373 377
f 379 374 378
f 380 375 379
f 252 251 380
f 381 274 281
f 382 376 381
f 383 377 382
f 384 378 383
f 385 379 384
f 386 380 385
f 253 252 386
f 247 254 366
f 366 256 367
f 248 366 368
f 367 259 369
f 368 367 370
f 249 368 371
f 369 263 372
f 370 369 373
f 371 370 374
f 250 371 375
f 372 268 376
f 373 372 377
f 374 373 378
f 375 374 379
f 251 375 380
f 376 274 381
f 377 376 382
f 378 377 383
f 379 378 384
f 380 379 385
f 252 380 386
f 389 387 388
f 391 388 390
f 392 389 391
f 394 390 393
f 395 391 394
f 396 392 395
f 398 393 397
f 399 394 398
f 400 395 399
f 401 396 400
f 403 397 402
f 404 398 403
f 405 399 404
f 406 400 405
f 407 401 406
f 409 402 408
f 410 403 409
f 411 404 410
f 412 405 411
f 413 406 412
f 414 407 413
f 302 408 281
f 301 409 302
f 300 410 301
f 299 411 300
f 298 412 299
f 297 413 298
f 169 414 297
f 389 388 391
f 391 390 394
f 392 391 395
f 394 393 398
f 395 394 399
f 396 395 400
f 398 397 403
f 399 398 404
f 400 399 405
f 401 400 406
f 403 402 409
f 404 403 410
f 405 404 411
f 406 405 412
f 407 406 413
f 409 408 302
f 410 409 301
f 411 410 300
f 412 411 299
f 413 412 298
f 414 413 297
f 388 387 415
f 417 415 416
f 390 388 417
f 419 416 418
f 420 417 419
f 393 390 420
f 422 418 421
f 423 419 422
f 424 420 423
f 397 393 424
f 426 421 425
f 427 422 426
f 428 423 427
f 429 424 428
f 402 397 429
f 431 425 430
f 432 426 431
f 433 427 432
f 434 428 433
f 435 429 434
f 408 402 435
f 386 430 253
f 385 431 386
f 384 432 385
f 383 433 384
f 382 434 383
f 381 435 382
f 281 408 381
f 388 415 417
f 417 416 419
f 390 417 420
f 419 418 422
f 420 419 423
f 393 420 424
f 422 421 426
f 423 422 427
f 424 423 428
f 397 424 429
f 426 425 431
f 427 426 432
f 428 427 433
f 429 428 434
f 402 429 435
f 431 430 386
f 432 431 385
f 433 432 384
f 434 433 383
f 435 434 382
f 408 435 381
f 415 387 436
f 438 436 437
f 416 415 438
f 440 437 439
f 441 438 440
f 418 416 441
f 443 439 442
f 444 440 443
f 445 441 444
f 421 418 445
f 447 442 446
f 448 443 447
f 449 444 448
f 450 445 449
f 425 421 450
f 452 446 451
f 453 447 452
f 454 448 453
f 455 449 454
f 456 450 455
f 430 425 456
f 365 451 225
f 364 452 365
f 363 453 364
f 362 454 363
f 361 455 362
f 360 456 361
f 253 430 360
f 415 436 438
f 438 437 440
f 416 438 441
f 440 439 443
f 441 440 444
f 418 441 445
f 443 442 447
f 444 443 448
f 445 444 449
f 421 445 450
f 447 446 452
f 448 447 453
f 449 448 454
f 450 449 455
f 425 450 456
f 452 451 365
f 453 452 364
f 454 453 363
f 455 454 362
f 456 455 361
f 430 456 360
f 436 387 457
f 459 457 458
f 437 436 459
f 461 458 460
f 462 459 461
f 439 437 462
f 464 460 463
f 465 461 464
f 466 462 465
f 442 439 466
f 468 463 467
f 469 464 468
f 470 465 469
f 471 466 470
f 446 442 471
f 473 467 472
f 474 468 473
f 475 469 474
f 476 470 475
f 477 471 476
f 451 446 477
f 344 472 197
f 343 473 344
f 342 474 343
f 341 475 342
f 340 476 341
f 339 477 340
f 225 451 339
f 436 457 459
f 459 458 461
f 437 459 462
f 461 460 464
f 462 461 465
f 439 462 466
f 464 463 468
f 465 464 469
f 466 465 470
f 442 466 471
f 468 467 473
f 469 468 474
f 470 469 475
f 471 470 476
f 446 471 477
f 473 472 344
f 474 473 343
f 475 474 342
f 476 475 341
f 477 476 340
f 451 477 339
f 457 387 389
f 478 389 392
f 458 457 478
f 479 392 396
f 480 478 479
f 460 458 480
f 481 396 401
f 482 479 481
f 483 480 482
f 463 460 483
f 484 401 407
f 485 481 484
f 486 482 485
f 487 483 486
f 467 463 487
f 488 407 414
f 489 484 488
f 490 485 489
f 491 486 490
f 492 487 491
f 472 467 492
f 323 414 169
f 322 488 323
f 321 489 322
f 320 490 321
f 319 491 320
f 318 492 319
f 197 472 318
f 457 389 478
f 478 392 479
f 458 478 480
f 479 396 481
f 480 479 482
f 460 480 483
f 481 401 484
f 482 481 485
f 483 482 486
f 463 483 487
f 484 407 488
f 485 484 489
f 486 485 490
f 487 486 491
f 467 487 492
f 488 414 323
f 489 488 322
f 490 489 321
f 491 490 320
f 492 491 319
f 472 492 318
