# File exported by Houdini 20.5.445 (www.sidefx.com)
# 492 points
# 2940 vertices
# 980 primitives
# Bounds: [-99.7419434, -158.09314, -1109.64355] to [270.515869, 274.470245, -645.157532]
g 
v 184.061584 91.8482437 -1034.51855
v 191.821533 108.30011 -1017.54523
v 213.145752 91.3562469 -1011.46649
v 192.180969 125.498085 -1000.91718
v 220.780945 109.031731 -991.798035
v 236.856812 92.0187988 -983.156189
v 185.272888 143.875671 -984.039368
v 219.647095 127.549965 -973.236633
v 242.18158 111.652039 -962.185852
v 254.239929 94.5861359 -951.315247
v 173.027283 163.352966 -965.779358
v 211.529907 146.876709 -954.6745
v 239.051025 131.567902 -942.54718
v 256.683594 116.398193 -929.880737
v 265.068298 99.2821121 -917.973511
v 158.249146 183.6474 -945.114563
v 198.653809 166.984985 -934.938477
v 229.856018 151.77301 -922.855713
v 251.945129 137.543793 -909.425781
v 265.069214 122.900841 -896.327454
v 269.937256 105.726265 -885.30481
v 143.001404 204.408081 -920.893066
v 182.884766 188.190918 -912.182373
v 216.038757 173.110901 -901.088867
v 241.741211 159.305725 -888.314758
v 259.293823 145.80365 -875.208435
v 268.572754 130.985229 -863.876404
v 270.515869 113.15242 -855.90033
v 128.135193 224.765717 -892.317566
v 165.144287 210.388947 -884.583618
v 198.560669 196.455383 -874.911682
v 226.672668 183.336792 -863.969055
v 247.877563 170.368317 -852.419312
v 261.265503 156.136322 -842.00769
v 267.243469 139.561371 -834.338867
v 267.150574 119.739418 -830.66571
v 189.571289 75.1110916 -1038.62158
v 218.893738 74.4864273 -1009.70392
v 190.60083 58.0379448 -1041.36694
v 241.372131 74.687294 -976.476379
v 219.048401 57.5324516 -1006.92755
v 189.110535 39.2556343 -1043.03833
v 256.784729 76.5535202 -941.607178
v 239.979492 56.9084511 -970.135315
v 215.946045 38.3696785 -1004.58685
v 186.621765 17.5309772 -1043.56152
v 265.322632 80.6173782 -907.183594
v 253.635681 57.5373726 -933.723816
v 235.100098 36.3138847 -965.882385
v 211.00946 15.540123 -1003.11493
v 183.675049 -7.34992218 -1042.00488
v 267.773621 86.7476044 -874.856262
v 260.225891 60.3893204 -899.120178
v 246.862061 35.1410561 -928.979675
v 227.778687 11.5015163 -963.870178
v 204.59967 -11.0913467 -1001.39349
v 179.824463 -34.0678635 -1036.62988
v 265.661011 93.5878448 -846.254028
v 260.306213 65.2934113 -867.198059
v 250.965881 35.9994926 -894.319214
v 236.730896 7.86770248 -926.808289
v 217.816406 -17.5881462 -962.210632
v 196.160461 -40.0083923 -996.71698
v 174.215576 -60.1545639 -1025.54663
v 156.285645 81.1822968 -1055.96069
v 159.101318 60.6754684 -1064.93579
v 127.651184 67.0115433 -1073.43994
v 159.321289 39.508213 -1071.88965
v 130.928711 41.509037 -1085.60449
v 101.858032 47.5066605 -1085.62256
v 159.160034 16.5238514 -1076.07568
v 133.382202 15.4198151 -1094.15601
v 108.156616 16.4838371 -1099.02441
v 81.2904663 22.3836861 -1092.37329
v 159.340454 -8.93099976 -1076.22559
v 136.372681 -11.9162827 -1097.60938
v 114.174805 -14.4336319 -1106.70581
v 91.3477173 -13.7071381 -1105.0166
v 66.17276 -7.22024155 -1094.20898
v 159.175049 -36.4457626 -1070.40479
v 139.354614 -40.6356583 -1093.88306
v 119.991516 -45.6150513 -1106.67993
v 100.109558 -48.7235031 -1109.64355
v 78.7906494 -47.2219162 -1103.62183
v 55.1380005 -39.4016037 -1090.30493
v 157.085266 -64.2905502 -1056.15894
v 140.308472 -69.8292084 -1079.96948
v 123.541809 -76.7740021 -1095.78174
v 106.234619 -82.8942566 -1102.94067
v 87.7490845 -85.1636124 -1101.66821
v 67.4660645 -81.5246124 -1093.22168
v 45.3571472 -71.2209167 -1079.57886
v 157.108704 103.000938 -1041.24341
v 126.144531 91.7325211 -1058.75537
v 125.425415 114.029533 -1043.91455
v 96.699585 76.6734924 -1070.55469
v 93.0635986 101.563034 -1057.50879
v 89.4747314 124.344261 -1044.51538
v 71.6949158 56.5237999 -1077.09229
v 64.223999 85.3449936 -1064.87988
v 57.531311 110.081192 -1054.60278
v 51.2492065 133.126099 -1042.85254
v 52.3581543 30.5538216 -1080.02002
v 40.6407166 63.7416458 -1067.96973
v 30.4108887 92.0996246 -1058.21729
v 21.4405823 116.76078 -1049.13281
v 14.1567688 140.304352 -1037.16602
v 38.5895081 -1.07147026 -1078.62695
v 23.2078857 35.4918747 -1066.68628
v 9.28173828 68.0368805 -1056.54126
v -2.80340576 96.2764206 -1047.92627
v -12.3478699 121.505547 -1038.6814
v -18.3867493 145.950745 -1025.58447
v 28.3448792 -36.3466568 -1070.73828
v 10.9389954 0.640617371 -1059.58447
v -5.97943115 36.4095993 -1048.72192
v -21.194458 69.0047913 -1039.40039
v -33.3615417 98.1362 -1030.80884
v -41.2744751 124.729378 -1020.85834
v -44.2913208 150.17215 -1007.24176
v 159.753052 121.679626 -1024.7998
v 122.973511 134.316284 -1028.40259
v 154.448608 140.334717 -1008.87653
v 82.7377319 145.787506 -1029.50488
v 113.130127 154.301147 -1012.33612
v 142.795166 159.973328 -991.704285
v 41.9289856 155.770355 -1026.91504
v 70.2595825 167.286346 -1011.90143
v 98.6361084 175.616852 -993.342224
v 127.753052 180.916748 -971.581726
v 3.9725647 164.350128 -1018.39777
v 28.7966003 179.148468 -1005.79767
v 54.9587708 190.85141 -989.046326
v 82.7280884 198.877106 -969.368103
v 112.362854 203.067932 -947.135193
v -28.3964233 171.438263 -1001.85907
v -8.66714478 189.694885 -991.25592
v 13.757843 205.13559 -976.274353
v 39.1842346 216.877441 -958.23407
v 67.7533569 223.719543 -938.369324
v 98.1292114 225.808899 -916.589539
v 95.4915771 244.643524 -875.054321
v 60.9345093 245.625793 -899.160889
v 63.1294861 260.62439 -854.351074
v 29.0126038 241.032288 -920.316162
v 27.0174561 259.353912 -878.453796
v 32.1509094 270.950897 -831.620056
v 1.60943604 230.24411 -939.52887
v -3.52374268 250.980469 -899.375
v -2.80569458 266.347534 -855.753967
v 4.27557373 274.470245 -808.557739
v -21.0931091 214.076599 -956.874329
v -28.1905518 235.918396 -918.35791
v -30.6551208 253.904419 -876.890076
v -28.3483582 266.565033 -832.948486
v -19.3207092 271.169739 -787.3302
v -40.253479 193.578583 -971.190369
v -48.1112671 215.008759 -935.491821
v -52.7139587 234.565704 -896.26178
v -53.6033325 250.45694 -854.811401
v -48.9651184 260.39798 -812.146423
v -37.5198975 261.32486 -769.404663
v -56.1830444 168.799713 -980.948059
v -64.5550842 188.443268 -949.23053
v -70.3037109 208.277649 -913.416992
v -73.0073853 226.234863 -874.794128
v -70.9059448 239.861725 -834.631287
v -62.4570923 246.844299 -794.462891
v -48.8759155 244.711426 -755.55481
v -63.0497131 136.098755 -993.086365
v -58.2827759 104.334755 -1005.80573
v -76.3311768 118.523514 -975.228821
v -47.6053162 71.6956253 -1015.57574
v -68.8773193 80.8241653 -987.773987
v -86.0049744 98.7462463 -955.692688
v -32.4821472 36.8928909 -1025.16821
v -55.6589355 42.8865242 -998.338928
v -76.3327637 55.8507423 -968.807434
v -92.6347046 77.8800201 -936.17157
v -14.5647278 -0.599479675 -1036.1189
v -38.6608582 3.32061386 -1009.46161
v -61.6019897 13.5566463 -980.825745
v -81.5548706 31.3425331 -950.386292
v -94.912384 57.0845909 -917.4646
v 4.68023682 -39.9742279 -1048.03076
v -19.3455811 -38.0323563 -1021.61664
v -43.5621948 -29.4771729 -993.200012
v -66.0393372 -13.8271103 -963.365051
v -83.504364 8.60496521 -932.099304
v -92.6749878 36.3889275 -898.975281
v 24.1467896 -78.8407593 -1058.4668
v 1.33566284 -79.7138214 -1032.92236
v -23.1444092 -73.1206436 -1004.76031
v -47.254425 -59.008255 -975.018616
v -67.7987976 -38.3968048 -944.029663
v -81.8139648 -12.8917046 -912.142395
v -87.5741882 15.1470966 -879.747192
v 48.1481934 -106.957268 -1070.56592
v 70.9736633 -115.698692 -1081.46851
v 48.1853027 -133.69516 -1052.71704
v 90.3830566 -115.973808 -1085.83105
v 70.5628052 -138.710449 -1059.6748
v 45.2685852 -150.090057 -1026.91089
v 107.385254 -110.274223 -1082.91846
v 88.7892456 -135.274567 -1060.1123
v 66.7407227 -151.506439 -1030.33691
v 39.7527771 -157.396576 -995.071716
v 123.294861 -101.734993 -1072.08862
v 104.703308 -127.207787 -1053.76587
v 84.0516968 -145.616608 -1027.55615
v 60.3565979 -156.4534 -995.566833
v 32.6904907 -158.09314 -959.309387
v 139.395203 -93.26548 -1053.14917
v 120.296875 -117.681847 -1039.85767
v 99.7835083 -136.582458 -1017.98578
v 77.5105591 -149.659729 -989.634216
v 53.186676 -156.066864 -956.971497
v 26.6178284 -155.085938 -921.980835
v 156.605591 -86.1119156 -1026.3562
v 137.517029 -108.607201 -1017.37909
v 116.784546 -126.897636 -1000.11932
v 94.7952881 -140.625244 -975.924133
v 71.8685303 -149.299622 -947.033264
v 48.2492371 -152.465149 -915.971313
v 24.3967285 -150.211365 -885.058838
v 179.366394 -71.716301 -994.885559
v 202.365051 -49.52285 -963.250549
v 182.070007 -79.2527313 -962.600525
v 222.446045 -22.973465 -928.18512
v 204.701111 -53.3431015 -930.684631
v 182.806824 -81.5566483 -929.278381
v 238.037415 7.78468323 -893.737915
v 222.336487 -22.1309128 -896.66803
v 203.74054 -51.5475998 -898.588501
v 181.981262 -78.2693329 -895.143372
v 249.138245 41.1230583 -863.077209
v 235.241333 13.084322 -864.147949
v 218.963013 -16.4038162 -866.537476
v 200.347656 -44.3632584 -866.669189
v 179.884888 -68.5544128 -860.917908
v 256.456116 74.545517 -837.877075
v 244.146301 50.0353088 -835.346924
v 229.429504 22.1923237 -836.023376
v 212.728577 -5.74159241 -836.974304
v 194.934631 -30.993515 -834.906738
v 176.502075 -53.11306 -827.414917
v 259.868896 106.501945 -818.344727
v 248.955811 87.1085968 -811.323792
v 235.304504 62.768219 -808.516479
v 219.724609 36.2540627 -807.853271
v 203.214172 10.6762466 -806.75354
v 187.412659 -12.762825 -802.666748
v 171.511536 -34.2794342 -795.098022
v 260.507568 138.028656 -809.488281
v 257.588318 160.912598 -812.790649
v 248.162048 154.153259 -789.826599
v 247.885681 179.305573 -819.62323
v 241.885315 179.100616 -792.644043
v 230.43512 167.277649 -770.295044
v 230.619934 194.364502 -828.571167
v 228.739563 198.842133 -798.340027
v 221.046387 193.587585 -772.313538
v 208.539978 177.377991 -750.269531
v 205.793396 207.577911 -838.165649
v 208.060059 214.751312 -805.255188
v 204.757568 214.290405 -776.173096
v 196.189575 204.322937 -750.990784
v 183.764771 184.729675 -729.893616
v 174.101868 220.569855 -847.346436
v 179.538879 228.405365 -812.162292
v 180.478516 230.971283 -780.152222
v 176.334473 225.495728 -752.19989
v 167.587524 211.139313 -728.685974
v 155.693237 188.708893 -709.907776
v 136.495178 234.499481 -856.192139
v 143.080811 242.021667 -819.38739
v 146.949707 245.772369 -784.528809
v 147.028503 243.115692 -753.571594
v 142.317871 231.951691 -727.640808
v 134.200684 213.273743 -706.910706
v 125.264038 189.274719 -691.445984
v 103.059631 253.924133 -833.237183
v 70.8606873 267.611053 -809.101013
v 108.77832 258.605896 -793.429626
v 40.8492737 274.088654 -785.408325
v 76.7709351 267.846344 -768.51532
v 111.976196 257.316772 -757.958679
v 13.7357788 272.354767 -763.176941
v 46.599762 268.042999 -745.297974
v 78.8153687 259.589264 -733.638245
v 110.756226 247.598206 -727.775757
v -9.82321167 262.913879 -743.421143
v 18.9483948 258.863129 -723.962463
v 47.7831421 251.594055 -711.041748
v 76.6417236 241.745056 -704.316284
v 105.59436 229.057465 -703.072205
v -27.3571167 245.943115 -727.312805
v -3.79141235 241.440277 -705.181641
v 20.9248962 233.70163 -690.149292
v 46.5501709 224.856262 -682.20282
v 72.7746582 214.952393 -680.424683
v 99.2166138 203.165192 -683.845947
v -74.4368591 155.529938 -962.404724
v -87.3262939 139.848694 -942.090942
v -81.8012085 175.911072 -928.493347
v -96.2668762 122.132668 -921.589478
v -93.0639038 161.020325 -907.556885
v -85.7181702 195.626984 -892.11554
v -99.7419434 102.821938 -901.475952
v -98.3503113 143.560944 -886.772095
v -93.1424561 179.992706 -870.997864
v -84.8076782 212.232239 -853.315674
v -97.0226135 81.5780487 -881.400024
v -96.3351135 123.207191 -865.50354
v -92.1797485 160.904297 -849.151428
v -86.0498962 194.434479 -831.179749
v -77.1841736 223.363068 -812.269836
v -90.0465088 57.1483345 -860.483459
v -88.2121277 98.1363983 -842.722412
v -83.7091064 136.437805 -825.157349
v -77.8502502 170.99234 -806.648865
v -71.3697815 201.126343 -787.578247
v -62.6337585 225.942596 -769.789368
v 24.2930908 -113.815178 -1043.54736
v 21.713562 -136.349548 -1020.78363
v -0.965606689 -110.57386 -1014.01068
v 16.9018555 -148.084961 -991.450012
v -5.26577759 -128.34314 -988.307922
v -26.7684021 -98.6672211 -983.273376
v 10.3147888 -151.673248 -956.739685
v -10.9703064 -136.324097 -956.122009
v -31.4472961 -112.116997 -954.969299
v -50.5105591 -79.3525009 -950.997253
v 3.97253418 -150.142761 -918.46521
v -16.994873 -137.730438 -918.087952
v -36.5312805 -117.37043 -919.268799
v -54.1255798 -89.1181335 -919.304077
v -69.2125244 -53.9042969 -916.657227
v 1.2322998 -145.850525 -878.662109
v -20.2999573 -135.153778 -875.740173
v -39.8275452 -117.310081 -876.353027
v -56.5977478 -92.0191422 -878.52887
v -69.805542 -60.1517715 -880.057678
v -79.8226318 -23.7072754 -880.141968
v 158.600952 -96.9276123 -991.300476
v 159.28772 -102.726952 -955.341492
v 137.040466 -116.395012 -977.993103
v 159.47876 -103.276115 -918.661133
v 136.49353 -119.622841 -938.735718
v 114.473999 -131.088348 -957.34491
v 159.287354 -97.5881119 -881.377136
v 136.475464 -117.666222 -899.259583
v 113.118713 -131.305481 -915.406738
v 91.0853271 -141.147369 -930.981445
v 158.36499 -84.7885284 -843.782532
v 136.626587 -108.953102 -859.068237
v 112.688538 -126.176994 -873.143372
v 88.713623 -137.978363 -886.735657
v 66.8117065 -146.280426 -900.721924
v 156.113098 -65.9765778 -806.150452
v 136.160278 -93.0560455 -817.714905
v 112.471863 -114.2257 -829.377258
v 87.1851807 -129.543365 -841.284485
v 62.801178 -139.816528 -854.149231
v 41.5292969 -146.387726 -868.584961
v 250.261353 122.875725 -795.669922
v 235.015747 135.865845 -774.987366
v 236.7099 101.618469 -787.568542
v 215.266602 145.93338 -754.502686
v 219.443054 112.732742 -765.720093
v 221.249146 76.649498 -783.286133
v 192.361816 153.97226 -733.526245
v 198.582397 121.743233 -743.744629
v 202.901917 87.6299057 -759.612793
v 204.811218 50.8033485 -780.563599
v 165.884155 159.828827 -712.39978
v 174.42218 129.27594 -721.007446
v 181.684082 96.7341843 -735.408447
v 186.916992 61.9156952 -754.419373
v 189.158264 25.195755 -776.871338
v 135.462097 162.773834 -691.868591
v 145.67511 134.05307 -697.827209
v 156.433044 102.957001 -710.010437
v 166.10437 69.6515274 -727.15918
v 172.359314 34.833374 -747.566406
v 174.044617 -0.31360054 -770.221191
v 22.145874 3.78715324 -679.075317
v 38.6216431 30.0775757 -662.251587
v 12.2062683 40.522316 -670.436157
v 52.3131104 59.0690613 -651.799866
v 26.4191589 69.8133087 -653.556702
v 2.80114746 80.0065384 -667.532349
v 63.2116699 89.5752945 -648.16449
v 37.4082947 99.4327927 -645.326782
v 14.4364014 110.067368 -652.109924
v -7.45828247 120.066643 -671.800537
v 73.2929077 119.533829 -651.291077
v 47.1858521 128.755615 -645.157532
v 23.881012 138.523193 -647.055847
v 2.12384033 149.192719 -658.737671
v -19.0635376 158.664124 -683.603027
v 85.6885376 146.893799 -660.506104
v 58.8616333 156.719177 -652.164062
v 34.4746399 165.705811 -650.839417
v 11.7477112 175.682892 -657.198303
v -9.93771362 185.94928 -673.648438
v -31.0820618 193.840607 -702.295349
v 102.877075 170.340637 -674.308411
v 75.4100952 181.954285 -665.380859
v 49.603241 191.584198 -662.137268
v 25.1764526 200.796692 -665.323303
v 1.95553589 210.448608 -676.299072
v -20.2283325 219.003113 -696.606506
v -41.706665 223.328033 -726.717468
v 45.191803 -12.4467659 -680.989075
v 70.4159241 -22.7864914 -689.448364
v 64.6281128 17.650486 -667.203125
v 95.6932983 -28.8293762 -703.927734
v 90.9116211 10.8488655 -679.521057
v 79.3746338 49.695591 -660.663696
v 119.225525 -32.0598602 -722.948486
v 115.923279 6.99703598 -697.238281
v 105.564209 44.7059555 -676.514526
v 90.5071411 81.8707047 -660.476318
v 139.637024 -33.7034874 -745.331238
v 138.509705 4.47250748 -718.826477
v 130.19812 41.4194374 -696.878418
v 116.796265 77.3068008 -678.835144
v 101.099792 112.330673 -665.884949
v 156.676331 -34.4405518 -769.898865
v 157.764465 2.19424438 -743.452515
v 152.630554 38.4802818 -720.69635
v 142.070374 73.6815567 -701.208679
v 128.596313 107.461884 -685.833435
v 115.110474 139.587158 -676.465271
v 17.2696228 -31.4646378 -699.56427
v 11.7392273 -63.1399765 -722.182922
v 42.8375854 -48.8381577 -704.067871
v 6.76724243 -90.5407562 -746.76709
v 39.0427856 -79.520401 -729.271729
v 69.0333557 -59.1986847 -715.543762
v 4.15438843 -112.827873 -775.029907
v 35.0259399 -104.594444 -757.002869
v 65.5520325 -88.6697388 -743.609924
v 94.1735229 -64.8535995 -732.471069
v 5.67510986 -129.701752 -808.030823
v 32.9670715 -123.744987 -789.053833
v 61.9258423 -111.736855 -774.892761
v 90.5665283 -93.1807404 -763.561401
v 117.102417 -67.3866959 -753.743958
v 12.4320374 -141.894409 -845.09021
v 34.5784607 -137.381287 -826.219177
v 60.3249817 -128.618774 -811.294739
v 87.5410156 -114.580498 -799.072449
v 114.034546 -94.46138 -788.435913
v 137.588318 -67.6770325 -778.661987
v -1.30966187 3.14487076 -695.204712
v -23.1533508 6.64488602 -717.693054
v -10.0812378 -33.9783325 -718.993225
v -42.8476257 12.1883984 -745.534729
v -33.8255615 -32.1167603 -743.286438
v -17.6806335 -66.2397232 -743.425659
v -59.6183167 16.9821491 -777.227295
v -53.0614929 -28.591156 -772.145264
v -40.8691711 -65.3534393 -769.519348
v -21.8495789 -93.481041 -769.819275
v -72.8321838 19.2398739 -811.412231
v -67.0023804 -25.3274994 -805.735046
v -57.2281189 -63.0552292 -801.4953
v -41.8466492 -93.1447754 -799.309204
v -20.7901917 -115.393547 -800.871338
v -82.3395081 18.4764194 -846.235107
v -75.8536377 -23.5255508 -842.576416
v -66.781189 -60.9800949 -838.980469
v -53.4141846 -92.2238617 -835.735657
v -35.3341675 -116.139046 -834.410461
v -13.2875671 -132.639984 -837.232483
v -10.0527344 45.1856575 -691.108826
v -18.150238 87.7068787 -694.058716
v -29.9271545 52.5787811 -719.233276
v -27.7406006 128.905701 -704.064697
v -36.9360352 96.46492 -727.784058
v -48.1633911 59.8604355 -752.202698
v -39.4447937 167.192719 -720.470215
v -46.4872437 137.005524 -742.348145
v -55.0389709 102.921776 -765.006775
v -64.825531 63.779335 -787.403564
v -51.9499817 200.401184 -742.53302
v -58.7062378 172.512756 -762.282837
v -65.3144226 140.280609 -783.089172
v -72.736145 103.677048 -803.309631
v -79.2500916 62.7642975 -823.730774
g 
f 3 1 2
f 5 2 4
f 6 3 5
f 8 4 7
f 9 5 8
f 10 6 9
f 12 7 11
f 13 8 12
f 14 9 13
f 15 10 14
f 17 11 16
f 18 12 17
f 19 13 18
f 20 14 19
f 21 15 20
f 23 16 22
f 24 17 23
f 25 18 24
f 26 19 25
f 27 20 26
f 28 21 27
f 30 22 29
f 31 23 30
f 32 24 31
f 33 25 32
f 34 26 33
f 35 27 34
f 36 28 35
f 3 2 5
f 5 4 8
f 6 5 9
f 8 7 12
f 9 8 13
f 10 9 14
f 12 11 17
f 13 12 18
f 14 13 19
f 15 14 20
f 17 16 23
f 18 17 24
f 19 18 25
f 20 19 26
f 21 20 27
f 23 22 30
f 24 23 31
f 25 24 32
f 26 25 33
f 27 26 34
f 28 27 35
f 37 1 3
f 38 3 6
f 39 37 38
f 40 6 10
f 41 38 40
f 42 39 41
f 43 10 15
f 44 40 43
f 45 41 44
f 46 42 45
f 47 15 21
f 48 43 47
f 49 44 48
f 50 45 49
f 51 46 50
f 52 21 28
f 53 47 52
f 54 48 53
f 55 49 54
f 56 50 55
f 57 51 56
f 58 28 36
f 59 52 58
f 60 53 59
f 61 54 60
f 62 55 61
f 63 56 62
f 64 57 63
f 37 3 38
f 38 6 40
f 39 38 41
f 40 10 43
f 41 40 44
f 42 41 45
f 43 15 47
f 44 43 48
f 45 44 49
f 46 45 50
f 47 21 52
f 48 47 53
f 49 48 54
f 50 49 55
f 51 50 56
f 52 28 58
f 53 52 59
f 54 53 60
f 55 54 61
f 56 55 62
f 57 56 63
f 65 1 37
f 66 37 39
f 67 65 66
f 68 39 42
f 69 66 68
f 70 67 69
f 71 42 46
f 72 68 71
f 73 69 72
f 74 70 73
f 75 46 51
f 76 71 75
f 77 72 76
f 78 73 77
f 79 74 78
f 80 51 57
f 81 75 80
f 82 76 81
f 83 77 82
f 84 78 83
f 85 79 84
f 86 57 64
f 87 80 86
f 88 81 87
f 89 82 88
f 90 83 89
f 91 84 90
f 92 85 91
f 65 37 66
f 66 39 68
f 67 66 69
f 68 42 71
f 69 68 72
f 70 69 73
f 71 46 75
f 72 71 76
f 73 72 77
f 74 73 78
f 75 51 80
f 76 75 81
f 77 76 82
f 78 77 83
f 79 78 84
f 80 57 86
f 81 80 87
f 82 81 88
f 83 82 89
f 84 83 90
f 85 84 91
f 93 1 65
f 94 65 67
f 95 93 94
f 96 67 70
f 97 94 96
f 98 95 97
f 99 70 74
f 100 96 99
f 101 97 100
f 102 98 101
f 103 74 79
f 104 99 103
f 105 100 104
f 106 101 105
f 107 102 106
f 108 79 85
f 109 103 108
f 110 104 109
f 111 105 110
f 112 106 111
f 113 107 112
f 114 85 92
f 115 108 114
f 116 109 115
f 117 110 116
f 118 111 117
f 119 112 118
f 120 113 119
f 93 65 94
f 94 67 96
f 95 94 97
f 96 70 99
f 97 96 100
f 98 97 101
f 99 74 103
f 100 99 104
f 101 100 105
f 102 101 106
f 103 79 108
f 104 103 109
f 105 104 110
f 106 105 111
f 107 106 112
f 108 85 114
f 109 108 115
f 110 109 116
f 111 110 117
f 112 111 118
f 113 112 119
f 2 1 93
f 121 93 95
f 4 2 121
f 122 95 98
f 123 121 122
f 7 4 123
f 124 98 102
f 125 122 124
f 126 123 125
f 11 7 126
f 127 102 107
f 128 124 127
f 129 125 128
f 130 126 129
f 16 11 130
f 131 107 113
f 132 127 131
f 133 128 132
f 134 129 133
f 135 130 134
f 22 16 135
f 136 113 120
f 137 131 136
f 138 132 137
f 139 133 138
f 140 134 139
f 141 135 140
f 29 22 141
f 2 93 121
f 121 95 122
f 4 121 123
f 122 98 124
f 123 122 125
f 7 123 126
f 124 102 127
f 125 124 128
f 126 125 129
f 11 126 130
f 127 107 131
f 128 127 132
f 129 128 133
f 130 129 134
f 16 130 135
f 131 113 136
f 132 131 137
f 133 132 138
f 134 133 139
f 135 134 140
f 22 135 141
f 142 29 141
f 143 141 140
f 144 142 143
f 145 140 139
f 146 143 145
f 147 144 146
f 148 139 138
f 149 145 148
f 150 146 149
f 151 147 150
f 152 138 137
f 153 148 152
f 154 149 153
f 155 150 154
f 156 151 155
f 157 137 136
f 158 152 157
f 159 153 158
f 160 154 159
f 161 155 160
f 162 156 161
f 163 136 120
f 164 157 163
f 165 158 164
f 166 159 165
f 167 160 166
f 168 161 167
f 169 162 168
f 142 141 143
f 143 140 145
f 144 143 146
f 145 139 148
f 146 145 149
f 147 146 150
f 148 138 152
f 149 148 153
f 150 149 154
f 151 150 155
f 152 137 157
f 153 152 158
f 154 153 159
f 155 154 160
f 156 155 161
f 157 136 163
f 158 157 164
f 159 158 165
f 160 159 166
f 161 160 167
f 162 161 168
f 170 120 119
f 171 119 118
f 172 170 171
f 173 118 117
f 174 171 173
f 175 172 174
f 176 117 116
f 177 173 176
f 178 174 177
f 179 175 178
f 180 116 115
f 181 176 180
f 182 177 181
f 183 178 182
f 184 179 183
f 185 115 114
f 186 180 185
f 187 181 186
f 188 182 187
f 189 183 188
f 190 184 189
f 191 114 92
f 192 185 191
f 193 186 192
f 194 187 193
f 195 188 194
f 196 189 195
f 197 190 196
f 170 119 171
f 171 118 173
f 172 171 174
f 173 117 176
f 174 173 177
f 175 174 178
f 176 116 180
f 177 176 181
f 178 177 182
f 179 178 183
f 180 115 185
f 181 180 186
f 182 181 187
f 183 182 188
f 184 183 189
f 185 114 191
f 186 185 192
f 187 186 193
f 188 187 194
f 189 188 195
f 190 189 196
f 198 92 91
f 199 91 90
f 200 198 199
f 201 90 89
f 202 199 201
f 203 200 202
f 204 89 88
f 205 201 204
f 206 202 205
f 207 203 206
f 208 88 87
f 209 204 208
f 210 205 209
f 211 206 210
f 212 207 211
f 213 87 86
f 214 208 213
f 215 209 214
f 216 210 215
f 217 211 216
f 218 212 217
f 219 86 64
f 220 213 219
f 221 214 220
f 222 215 221
f 223 216 222
f 224 217 223
f 225 218 224
f 198 91 199
f 199 90 201
f 200 199 202
f 201 89 204
f 202 201 205
f 203 202 206
f 204 88 208
f 205 204 209
f 206 205 210
f 207 206 211
f 208 87 213
f 209 208 214
f 210 209 215
f 211 210 216
f 212 211 217
f 213 86 219
f 214 213 220
f 215 214 221
f 216 215 222
f 217 216 223
f 218 217 224
f 226 64 63
f 227 63 62
f 228 226 227
f 229 62 61
f 230 227 229
f 231 228 230
f 232 61 60
f 233 229 232
f 234 230 233
f 235 231 234
f 236 60 59
f 237 232 236
f 238 233 237
f 239 234 238
f 240 235 239
f 241 59 58
f 242 236 241
f 243 237 242
f 244 238 243
f 245 239 244
f 246 240 245
f 247 58 36
f 248 241 247
f 249 242 248
f 250 243 249
f 251 244 250
f 252 245 251
f 253 246 252
f 226 63 227
f 227 62 229
f 228 227 230
f 229 61 232
f 230 229 233
f 231 230 234
f 232 60 236
f 233 232 237
f 234 233 238
f 235 234 239
f 236 59 241
f 237 236 242
f 238 237 243
f 239 238 244
f 240 239 245
f 241 58 247
f 242 241 248
f 243 242 249
f 244 243 250
f 245 244 251
f 246 245 252
f 254 36 35
f 255 35 34
f 256 254 255
f 257 34 33
f 258 255 257
f 259 256 258
f 260 33 32
f 261 257 260
f 262 258 261
f 263 259 262
f 264 32 31
f 265 260 264
f 266 261 265
f 267 262 266
f 268 263 267
f 269 31 30
f 270 264 269
f 271 265 270
f 272 266 271
f 273 267 272
f 274 268 273
f 275 30 29
f 276 269 275
f 277 270 276
f 278 271 277
f 279 272 278
f 280 273 279
f 281 274 280
f 254 35 255
f 255 34 257
f 256 255 258
f 257 33 260
f 258 257 261
f 259 258 262
f 260 32 264
f 261 260 265
f 262 261 266
f 263 262 267
f 264 31 269
f 265 264 270
f 266 265 271
f 267 266 272
f 268 267 273
f 269 30 275
f 270 269 276
f 271 270 277
f 272 271 278
f 273 272 279
f 274 273 280
f 275 29 142
f 282 142 144
f 276 275 282
f 283 144 147
f 284 282 283
f 277 276 284
f 285 147 151
f 286 283 285
f 287 284 286
f 278 277 287
f 288 151 156
f 289 285 288
f 290 286 289
f 291 287 290
f 279 278 291
f 292 156 162
f 293 288 292
f 294 289 293
f 295 290 294
f 296 291 295
f 280 279 296
f 297 162 169
f 298 292 297
f 299 293 298
f 300 294 299
f 301 295 300
f 302 296 301
f 281 280 302
f 275 142 282
f 282 144 283
f 276 282 284
f 283 147 285
f 284 283 286
f 277 284 287
f 285 151 288
f 286 285 289
f 287 286 290
f 278 287 291
f 288 156 292
f 289 288 293
f 290 289 294
f 291 290 295
f 279 291 296
f 292 162 297
f 293 292 298
f 294 293 299
f 295 294 300
f 296 295 301
f 280 296 302
f 163 120 170
f 303 170 172
f 164 163 303
f 304 172 175
f 305 303 304
f 165 164 305
f 306 175 179
f 307 304 306
f 308 305 307
f 166 165 308
f 309 179 184
f 310 306 309
f 311 307 310
f 312 308 311
f 167 166 312
f 313 184 190
f 314 309 313
f 315 310 314
f 316 311 315
f 317 312 316
f 168 167 317
f 318 190 197
f 319 313 318
f 320 314 319
f 321 315 320
f 322 316 321
f 323 317 322
f 169 168 323
f 163 170 303
f 303 172 304
f 164 303 305
f 304 175 306
f 305 304 307
f 165 305 308
f 306 179 309
f 307 306 310
f 308 307 311
f 166 308 312
f 309 184 313
f 310 309 314
f 311 310 315
f 312 311 316
f 167 312 317
f 313 190 318
f 314 313 319
f 315 314 320
f 316 315 321
f 317 316 322
f 168 317 323
f 191 92 198
f 324 198 200
f 192 191 324
f 325 200 203
f 326 324 325
f 193 192 326
f 327 203 207
f 328 325 327
f 329 326 328
f 194 193 329
f 330 207 212
f 331 327 330
f 332 328 331
f 333 329 332
f 195 194 333
f 334 212 218
f 335 330 334
f 336 331 335
f 337 332 336
f 338 333 337
f 196 195 338
f 339 218 225
f 340 334 339
f 341 335 340
f 342 336 341
f 343 337 342
f 344 338 343
f 197 196 344
f 191 198 324
f 324 200 325
f 192 324 326
f 325 203 327
f 326 325 328
f 193 326 329
f 327 207 330
f 328 327 331
f 329 328 332
f 194 329 333
f 330 212 334
f 331 330 335
f 332 331 336
f 333 332 337
f 195 333 338
f 334 218 339
f 335 334 340
f 336 335 341
f 337 336 342
f 338 337 343
f 196 338 344
f 219 64 226
f 345 226 228
f 220 219 345
f 346 228 231
f 347 345 346
f 221 220 347
f 348 231 235
f 349 346 348
f 350 347 349
f 222 221 350
f 351 235 240
f 352 348 351
f 353 349 352
f 354 350 353
f 223 222 354
f 355 240 246
f 356 351 355
f 357 352 356
f 358 353 357
f 359 354 358
f 224 223 359
f 360 246 253
f 361 355 360
f 362 356 361
f 363 357 362
f 364 358 363
f 365 359 364
f 225 224 365
f 219 226 345
f 345 228 346
f 220 345 347
f 346 231 348
f 347 346 349
f 221 347 350
f 348 235 351
f 349 348 352
f 350 349 353
f 222 350 354
f 351 240 355
f 352 351 356
f 353 352 357
f 354 353 358
f 223 354 359
f 355 246 360
f 356 355 361
f 357 356 362
f 358 357 363
f 359 358 364
f 224 359 365
f 247 36 254
f 366 254 256
f 248 247 366
f 367 256 259
f 368 366 367
f 249 248 368
f 369 259 263
f 370 367 369
f 371 368 370
f 250 249 371
f 372 263 268
f 373 369 372
f 374 370 373
f 375 371 374
f 251 250 375
f 376 268 274
f 377 372 376
f 378 373 377
f 379 374 378
f 380 375 379
f 252 251 380
f 381 274 281
f 382 376 381
f 383 377 382
f 384 378 383
f 385 379 384
f 386 380 385
f 253 252 386
f 247 254 366
f 366 256 367
f 248 366 368
f 367 259 369
f 368 367 370
f 249 368 371
f 369 263 372
f 370 369 373
f 371 370 374
f 250 371 375
f 372 268 376
f 373 372 377
f 374 373 378
f 375 374 379
f 251 375 380
f 376 274 381
f 377 376 382
f 378 377 383
f 379 378 384
f 380 379 385
f 252 380 386
f 389 387 388
f 391 388 390
f 392 389 391
f 394 390 393
f 395 391 394
f 396 392 395
f 398 393 397
f 399 394 398
f 400 395 399
f 401 396 400
f 403 397 402
f 404 398 403
f 405 399 404
f 406 400 405
f 407 401 406
f 409 402 408
f 410 403 409
f 411 404 410
f 412 405 411
f 413 406 412
f 414 407 413
f 302 408 281
f 301 409 302
f 300 410 301
f 299 411 300
f 298 412 299
f 297 413 298
f 169 414 297
f 389 388 391
f 391 390 394
f 392 391 395
f 394 393 398
f 395 394 399
f 396 395 400
f 398 397 403
f 399 398 404
f 400 399 405
f 401 400 406
f 403 402 409
f 404 403 410
f 405 404 411
f 406 405 412
f 407 406 413
f 409 408 302
f 410 409 301
f 411 410 300
f 412 411 299
f 413 412 298
f 414 413 297
f 388 387 415
f 417 415 416
f 390 388 417
f 419 416 418
f 420 417 419
f 393 390 420
f 422 418 421
f 423 419 422
f 424 420 423
f 397 393 424
f 426 421 425
f 427 422 426
f 428 423 427
f 429 424 428
f 402 397 429
f 431 425 430
f 432 426 431
f 433 427 432
f 434 428 433
f 435 429 434
f 408 402 435
f 386 430 253
f 385 431 386
f 384 432 385
f 383 433 384
f 382 434 383
f 381 435 382
f 281 408 381
f 388 415 417
f 417 416 419
f 390 417 420
f 419 418 422
f 420 419 423
f 393 420 424
f 422 421 426
f 423 422 427
f 424 423 428
f 397 424 429
f 426 425 431
f 427 426 432
f 428 427 433
f 429 428 434
f 402 429 435
f 431 430 386
f 432 431 385
f 433 432 384
f 434 433 383
f 435 434 382
f 408 435 381
f 415 387 436
f 438 436 437
f 416 415 438
f 440 437 439
f 441 438 440
f 418 416 441
f 443 439 442
f 444 440 443
f 445 441 444
f 421 418 445
f 447 442 446
f 448 443 447
f 449 444 448
f 450 445 449
f 425 421 450
f 452 446 451
f 453 447 452
f 454 448 453
f 455 449 454
f 456 450 455
f 430 425 456
f 365 451 225
f 364 452 365
f 363 453 364
f 362 454 363
f 361 455 362
f 360 456 361
f 253 430 360
f 415 436 438
f 438 437 440
f 416 438 441
f 440 439 443
f 441 440 444
f 418 441 445
f 443 442 447
f 444 443 448
f 445 444 449
f 421 445 450
f 447 446 452
f 448 447 453
f 449 448 454
f 450 449 455
f 425 450 456
f 452 451 365
f 453 452 364
f 454 453 363
f 455 454 362
f 456 455 361
f 430 456 360
f 436 387 457
f 459 457 458
f 437 436 459
f 461 458 460
f 462 459 461
f 439 437 462
f 464 460 463
f 465 461 464
f 466 462 465
f 442 439 466
f 468 463 467
f 469 464 468
f 470 465 469
f 471 466 470
f 446 442 471
f 473 467 472
f 474 468 473
f 475 469 474
f 476 470 475
f 477 471 476
f 451 446 477
f 344 472 197
f 343 473 344
f 342 474 343
f 341 475 342
f 340 476 341
f 339 477 340
f 225 451 339
f 436 457 459
f 459 458 461
f 437 459 462
f 461 460 464
f 462 461 465
f 439 462 466
f 464 463 468
f 465 464 469
f 466 465 470
f 442 466 471
f 468 467 473
f 469 468 474
f 470 469 475
f 471 470 476
f 446 471 477
f 473 472 344
f 474 473 343
f 475 474 342
f 476 475 341
f 477 476 340
f 451 477 339
f 457 387 389
f 478 389 392
f 458 457 478
f 479 392 396
f 480 478 479
f 460 458 480
f 481 396 401
f 482 479 481
f 483 480 482
f 463 460 483
f 484 401 407
f 485 481 484
f 486 482 485
f 487 483 486
f 467 463 487
f 488 407 414
f 489 484 488
f 490 485 489
f 491 486 490
f 492 487 491
f 472 467 492
f 323 414 169
f 322 488 323
f 321 489 322
f 320 490 321
f 319 491 320
f 318 492 319
f 197 472 318
f 457 389 478
f 478 392 479
f 458 478 480
f 479 396 481
f 480 479 482
f 460 480 483
f 481 401 484
f 482 481 485
f 483 482 486
f 463 483 487
f 484 407 488
f 485 484 489
f 486 485 490
f 487 486 491
f 467 487 492
f 488 414 323
f 489 488 322
f 490 489 321
f 491 490 320
f 492 491 319
f 472 492 318
