# File exported by Houdini 20.5.445 (www.sidefx.com)
# 492 points
# 2940 vertices
# 980 primitives
# Bounds: [-149.199158, -126.237076, -1113.88171] to [319.973053, 242.614182, -640.919312]
g 
v 102.146759 53.7558861 -1082.70886
v 97.4137268 83.9218903 -1100.42322
v 123.948029 66.2954559 -1083.00049
v 92.7463989 113.058113 -1108.01562
v 118.678894 97.4096909 -1096.05066
v 144.595184 80.029129 -1077.52515
v 87.8305664 139.890778 -1104.6261
v 114.001709 125.722267 -1097.48889
v 138.828888 111.13752 -1085.729
v 164.891022 92.5226212 -1066.45361
v 83.3445129 163.170273 -1091.82178
v 110.662201 150.725815 -1088.92236
v 135.452179 138.21077 -1082.67993
v 160.091095 123.188416 -1071.1084
v 185.939972 102.34771 -1051.13464
v 79.4594727 182.292389 -1072.16748
v 108.5755 171.671646 -1072.03418
v 134.442841 161.131622 -1069.92273
v 159.001678 148.777267 -1064.43091
v 183.430267 132.123444 -1052.62598
v 208.113007 108.977631 -1032.32092
v 75.91745 197.549332 -1048.08936
v 106.741302 188.552429 -1048.54663
v 134.527283 179.853592 -1048.51855
v 160.306549 169.551437 -1046.99707
v 184.808075 155.974594 -1041.82031
v 208.077118 136.918518 -1029.99976
v 230.068878 111.628693 -1009.84564
v 72.2570496 209.827164 -1021.51697
v 103.983002 202.135437 -1020.08661
v 133.990448 194.848114 -1019.31989
v 161.999298 186.30162 -1019.12762
v 187.891205 174.748016 -1017.86163
v 211.254852 158.72728 -1012.8891
v 231.601715 136.975082 -1001.32031
v 249.292084 110.627533 -982.840576
v 122.440735 31.6069946 -1060.87256
v 147.250336 46.2621346 -1059.94897
v 145.327972 11.617651 -1036.71704
v 169.842194 60.106041 -1053.12158
v 171.523285 27.7926712 -1034.54004
v 170.251923 -7.1463089 -1012.05499
v 191.019073 71.2255478 -1040.72144
v 194.567047 41.335392 -1026.45227
v 196.19455 9.98645592 -1008.34113
v 195.716095 -24.9326897 -987.822388
v 212.162872 79.2462311 -1023.93164
v 215.918732 51.3203697 -1012.72266
v 218.845245 23.1765823 -998.810913
v 220.729889 -7.31158447 -981.91217
v 220.453033 -41.1064606 -963.368958
v 233.843109 83.7026596 -1003.23553
v 237.241058 57.4990768 -993.888184
v 240.491547 32.0622864 -983.121155
v 243.254059 5.28410149 -969.895508
v 244.605133 -23.8189621 -954.481079
v 242.413055 -54.8149643 -937.237915
v 254.682159 84.5084534 -977.413269
v 259.144928 59.5689049 -969.24176
v 262.886871 36.085186 -960.19342
v 265.804779 12.5052299 -950.28064
v 267.283539 -12.7981339 -938.274109
v 265.603851 -39.4319611 -924.251404
v 258.984039 -66.0825729 -908.603271
v 91.3746338 28.4691811 -1064.09741
v 114.645142 1.52362442 -1038.05103
v 81.7471008 4.30980492 -1041.20923
v 140.605286 -21.7308311 -1012.99707
v 109.045319 -26.3956642 -1014.33154
v 74.8397522 -17.882164 -1017.1026
v 167.977875 -42.3899994 -989.868164
v 138.076813 -52.0144958 -991.200256
v 105.675049 -51.114563 -992.1828
v 70.2728882 -36.5844574 -993.387146
v 195.148956 -60.4461594 -966.830811
v 167.203094 -73.4177322 -969.3255
v 136.371826 -77.3387222 -970.593628
v 102.538116 -69.9800949 -970.406677
v 65.7886658 -49.3036957 -969.172485
v 219.850739 -74.8327637 -941.074341
v 194.044403 -90.0629578 -944.540955
v 164.88797 -97.456955 -947.056519
v 132.507385 -94.8193817 -947.884644
v 97.3536072 -80.8773651 -946.534851
v 60.4916382 -55.4298096 -943.298889
v 239.617279 -85.2840881 -910.780029
v 216.449249 -101.463074 -913.580627
v 189.349274 -111.417679 -916.792664
v 158.489655 -112.441971 -919.341309
v 124.702423 -103.083725 -920.093933
v 89.5314331 -83.7326965 -918.298157
v 54.6967773 -56.4393616 -914.512451
v 76.8065796 64.1747894 -1091.56946
v 62.1963501 41.2014618 -1070.65234
v 52.0171509 80.3676682 -1096.94641
v 50.0840149 20.7582397 -1045.78821
v 35.203186 60.6490173 -1073.92969
v 27.3733826 101.229683 -1098.07837
v 41.8517151 2.86553383 -1019.67444
v 22.1392822 43.5479927 -1047.1554
v 9.84402466 84.2440491 -1073.27295
v 2.58581543 123.610558 -1093.6311
v 36.0968018 -11.2714539 -992.472839
v 13.2770386 28.6929474 -1018.37537
v -3.22784424 69.0363541 -1044.21704
v -14.4188232 107.871216 -1067.00793
v -22.0997925 143.59111 -1082.39282
v 30.4429626 -20.0847855 -963.035095
v 6.0730896 17.7778797 -986.356201
v -12.9709778 56.3425598 -1011.20551
v -27.5058289 93.7077026 -1034.55835
v -38.1261292 128.341415 -1053.27563
v -45.9625549 159.503662 -1064.20605
v 25.3468628 -24.3728256 -930.152222
v -0.654388428 10.9367218 -949.361755
v -22.1386719 47.4151955 -971.8078
v -38.9175415 83.1434784 -994.909668
v -52.2112122 116.53894 -1015.56146
v -61.9274597 146.456192 -1031.0105
v -68.725769 172.205109 -1039.2561
v 72.0104065 98.0759964 -1109.08752
v 47.3010864 116.56411 -1112.38342
v 66.9107361 128.829926 -1113.88171
v 21.9154968 137.35408 -1109.63
v 41.2464294 147.259949 -1113.25
v 60.6983643 155.485291 -1106.42236
v -4.63754272 157.490173 -1099.8551
v 14.1374207 166.442535 -1105.75854
v 33.2467041 172.763489 -1101.50647
v 54.2036133 177.776108 -1089.60681
v -31.7707214 174.595963 -1082.63562
v -14.7037048 184.597427 -1090.87634
v 3.97833252 190.690826 -1089.57031
v 24.5452271 194.184692 -1080.64575
v 48.2657166 196.137146 -1066.38623
v -58.4792175 187.580002 -1057.27783
v -44.5331421 199.62886 -1067.29065
v -27.3417969 207.520706 -1068.97485
v -7.14367676 211.409958 -1063.44739
v 16.4621887 212.132889 -1052.89478
v 43.1698303 211.187042 -1038.64539
v 48.2422791 221.343994 -1005.35461
v 14.9178772 224.593857 -1021.17981
v 21.9116516 231.1548 -988.210876
v -14.0362549 226.129028 -1032.43921
v -13.5368958 234.365387 -1001.30487
v -3.88485718 238.168533 -968.618958
v -38.2767944 224.248962 -1039.43127
v -42.7986755 234.310913 -1008.71826
v -39.6907654 239.826538 -977.692444
v -27.3518677 241.692505 -945.387085
v -57.889679 217.771393 -1041.2644
v -66.2975464 229.782333 -1011.64355
v -68.4578552 237.433884 -980.693909
v -62.467865 241.907349 -949.770264
v -48.5941162 242.614182 -918.189087
v -73.5598145 206.722122 -1035.55591
v -84.958374 220.687195 -1008.78992
v -91.4737549 230.879852 -978.904907
v -90.9281921 237.965912 -948.002258
v -82.6395264 241.513626 -917.578247
v -67.7580566 240.520844 -887.417114
v -85.3343201 191.820541 -1021.09222
v -99.6603088 207.58226 -997.250732
v -109.911026 220.017044 -969.531799
v -114.234436 229.356064 -939.799255
v -110.943909 235.442841 -909.939331
v -100.62207 237.396698 -881.243347
v -84.7660522 234.701477 -854.297241
v -86.6269836 168.754593 -1005.37561
v -77.4000854 140.806229 -991.965942
v -101.526306 164.225449 -966.453308
v -64.5909424 109.424088 -972.799988
v -88.5787659 134.180573 -949.615112
v -112.312149 157.777237 -924.296753
v -47.9723511 75.0990982 -950.651672
v -71.6924133 101.248215 -928.841248
v -95.1916809 125.498047 -905.802063
v -118.735611 148.422699 -880.84259
v -26.8470154 38.6327553 -928.427551
v -50.7627258 65.5787659 -906.92926
v -74.1183777 90.7614059 -884.81189
v -97.7354431 114.045845 -861.801575
v -120.721436 135.838745 -837.847534
v -0.793395996 1.11384201 -908.362488
v -25.1977234 27.4692669 -886.077881
v -48.8971863 53.247879 -863.530151
v -72.7384644 77.3311386 -840.895325
v -96.3704529 99.5981445 -818.452026
v -118.055984 120.368004 -796.807922
v 30.1208191 -35.7442627 -891.788025
v 5.63214111 -12.2214928 -867.574829
v -18.8482971 12.8610554 -843.183472
v -43.4076843 37.5348434 -819.354919
v -67.7674561 60.7923584 -796.789551
v -90.7969055 82.6401749 -776.34729
v -110.697784 103.39949 -758.895752
v 69.4525146 -72.549881 -886.009521
v 107.640411 -99.2483215 -888.404724
v 81.7912598 -84.5529404 -855.104553
v 143.701263 -116.044876 -887.8396
v 120.451508 -109.525192 -855.519714
v 88.6463318 -92.0143814 -821.017212
v 176.815094 -122.288651 -885.09082
v 155.229462 -123.30397 -853.336975
v 126.264771 -114.265411 -820.285889
v 90.4508362 -94.1922989 -785.211548
v 206.586761 -118.322769 -881.817505
v 186.998505 -126.237076 -850.253723
v 159.93045 -124.351044 -818.166992
v 127.117493 -111.97879 -784.904907
v 90.2323914 -90.0305405 -750.61908
v 232.968536 -105.764832 -879.748352
v 216.378815 -119.01651 -848.199646
v 191.456757 -123.118759 -816.502686
v 160.68161 -117.003311 -784.38623
v 126.713257 -101.728668 -751.998413
v 91.188446 -79.0501785 -720.12384
v 256.155609 -87.0578842 -879.410156
v 243.482147 -103.125443 -848.667358
v 221.821564 -111.26918 -816.950989
v 193.463104 -109.974426 -785.207275
v 161.50473 -100.025375 -753.888733
v 128.346252 -83.1959534 -723.667664
v 95.5975647 -61.7751465 -695.930786
v 275.411163 -60.3737259 -888.517578
v 284.350006 -33.18536 -903.361511
v 286.743744 -53.7405701 -867.264038
v 287.104095 -7.7887001 -915.635071
v 297.554535 -26.7725754 -880.699097
v 293.579132 -43.8237228 -844.477539
v 286.011566 15.8822241 -925.16394
v 301.343353 -2.18743134 -890.994202
v 306.602692 -17.6544266 -856.14502
v 298.278412 -29.1207466 -820.488281
v 282.240326 39.1057892 -933.719788
v 300.349762 21.3357906 -899.337952
v 311.783234 6.64029503 -864.718567
v 313.41098 -4.26831055 -829.964478
v 301.619354 -9.65102768 -795.590088
v 276.339874 63.9453583 -942.374634
v 295.141815 45.9095421 -907.454163
v 310.421539 30.9861431 -872.486084
v 318.920013 20.0208588 -837.092346
v 317.076263 14.0049324 -802.693665
v 302.206757 13.4424591 -770.323425
v 268.757416 91.7911911 -950.006287
v 286.423615 73.7253342 -915.245178
v 302.866974 57.9282417 -879.643799
v 315.127777 46.0009041 -843.55188
v 319.973053 39.0441246 -808.123779
v 314.60556 36.8537407 -775.232544
v 297.54422 38.8005791 -746.1203
v 254.521576 124.744911 -963.597107
v 235.782623 152.562241 -977.832458
v 255.689117 137.713486 -938.806458
v 213.727753 173.880447 -984.361328
v 234.260284 165.806946 -949.380188
v 251.906097 150.393448 -910.888245
v 187.734039 188.753067 -986.021973
v 209.13266 185.982635 -953.154541
v 226.372711 177.646774 -919.157898
v 242.042572 162.632401 -882.484619
v 158.279633 199.191925 -986.514771
v 179.507843 199.670395 -954.218994
v 196.841705 196.278152 -922.104797
v 211.587921 187.912704 -889.774231
v 225.081329 173.852844 -855.90863
v 125.417023 207.212494 -988.381775
v 145.356201 209.674484 -956.464722
v 162.437164 209.230347 -924.644653
v 176.436249 204.855194 -893.629089
v 189.207855 196.006897 -863.333008
v 200.62326 183.458649 -832.616272
v 88.9549866 214.899979 -992.385498
v 105.753052 218.082108 -961.793457
v 121.373108 219.058105 -930.471924
v 135.237244 217.173447 -899.160278
v 147.975311 211.405319 -869.113281
v 159.71347 202.151932 -840.63092
v 170.37735 191.055496 -812.771667
v 63.0342407 225.303696 -973.611328
v 36.6316223 233.381393 -955.184814
v 77.9449158 227.03096 -941.516968
v 11.7041626 238.11702 -934.951904
v 51.2480164 232.793137 -922.19635
v 92.0449524 226.135834 -909.082397
v -11.8139648 239.735809 -911.213867
v 25.8352051 234.978577 -901.041199
v 64.608551 229.156891 -888.672485
v 105.194733 221.79158 -876.8479
v -34.0898132 238.412994 -882.691406
v 1.25753784 234.129822 -875.597656
v 38.2901611 228.745804 -865.790344
v 77.1927185 222.266373 -854.846558
v 117.877472 213.858963 -845.518921
v -54.9207153 233.033218 -849.17865
v -22.0850525 229.139999 -843.726318
v 13.2177429 224.087326 -836.793945
v 50.8005371 218.366852 -828.413025
v 90.2749634 211.61673 -820.181885
v 130.648315 202.84993 -814.393433
v -105.857407 188.937546 -982.418762
v -121.552826 184.51564 -940.472656
v -120.73082 204.542511 -955.33252
v -132.146347 177.449356 -896.778503
v -135.687363 199.519577 -911.610962
v -129.96907 216.453125 -925.855469
v -137.546555 166.733917 -852.646667
v -144.764709 191.337921 -867.073547
v -142.92485 210.484009 -881.339478
v -131.674881 224.990265 -895.808594
v -137.427109 151.840546 -809.139954
v -147.783112 178.692474 -822.359558
v -149.199158 200.523239 -836.249512
v -141.50679 217.27507 -851.01416
v -124.964523 229.334244 -866.21283
v -131.110657 133.291061 -767.172058
v -143.989532 160.850891 -777.93927
v -148.355316 184.855316 -790.594788
v -143.828751 204.146896 -805.064331
v -130.686752 218.40773 -820.952393
v -110.21199 228.353195 -837.300842
v 42.2027588 -50.8457947 -857.71991
v 50.4859314 -60.9766693 -823.084595
v 15.0335083 -26.365284 -829.347839
v 53.835144 -66.7896881 -786.648865
v 20.519043 -35.543396 -792.178894
v -11.7095642 -1.04525375 -802.118042
v 54.3828735 -67.5093842 -749.79657
v 22.3478699 -40.2748871 -754.420654
v -7.94696045 -9.59140396 -763.421387
v -38.092865 23.9633865 -776.804382
v 55.4278564 -61.8060913 -715.197327
v 23.2180481 -39.3280182 -717.139099
v -6.62145996 -12.7308044 -725.027588
v -35.419342 16.8279552 -737.463196
v -63.8879395 48.6001625 -754.013733
v 60.2547302 -48.9262238 -685.866211
v 26.9155273 -31.2110329 -683.129944
v -4.29425049 -9.04525375 -688.030334
v -33.6103516 16.5763054 -699.325867
v -61.510437 44.4605064 -715.197205
v -87.8096924 73.622406 -734.778442
v 267.827545 -80.3605728 -855.71991
v 273.432404 -69.5790405 -832.276123
v 249.668304 -92.0904465 -822.641479
v 276.093781 -53.142395 -808.80426
v 251.279816 -74.9830704 -798.266541
v 223.975983 -94.2758408 -789.686768
v 277.874725 -30.9662971 -785.049194
v 251.476593 -51.3653107 -774.866943
v 223.34787 -70.491333 -765.230347
v 193.329437 -87.3688202 -757.458801
v 278.353302 -4.16186905 -760.537598
v 250.678986 -22.0524216 -751.235474
v 221.271088 -40.2471085 -741.757263
v 190.664581 -57.7391052 -732.847839
v 159.41568 -72.9388046 -725.867188
v 275.298126 25.8241291 -735.317383
v 247.351654 11.5216389 -726.274231
v 216.694733 -4.65258789 -717.43689
v 185.087067 -21.7762833 -708.641357
v 153.708588 -38.4747849 -700.592102
v 123.527832 -52.5826416 -695.381653
v 273.102203 105.288681 -926.208069
v 273.049042 118.331108 -899.095215
v 289.798004 87.5738907 -888.327026
v 267.209991 131.981445 -871.028198
v 287.433502 101.981346 -860.02124
v 303.769379 73.6374283 -850.521545
v 253.959442 146.328262 -843.770752
v 277.503021 118.056953 -831.880493
v 297.026581 90.9383011 -821.227112
v 311.854645 64.937561 -812.893494
v 231.642853 160.892502 -818.807312
v 258.714813 136.007919 -804.941467
v 281.434906 110.52874 -792.557129
v 299.673004 85.7495346 -782.65332
v 311.623627 61.4313469 -776.420898
v 200.233856 174.04776 -796.52179
v 228.619843 154.161346 -780.531189
v 254.568268 132.217178 -765.212646
v 276.77475 109.521004 -752.441162
v 292.29715 86.1391983 -744.687012
v 299.534393 62.6008415 -742.455933
v 38.2429504 136.111191 -666.525024
v 62.8698425 150.550781 -674.593933
v 7.64154053 152.085861 -679.989502
v 86.0420227 161.7043 -687.186279
v 31.4334717 165.63826 -692.288025
v -20.8842468 166.920502 -698.401123
v 106.046967 170.37326 -706.246826
v 53.28125 175.774353 -710.331482
v 3.66256714 179.312363 -715.531555
v -44.9943237 181.675903 -722.045471
v 123.483398 177.31871 -730.311401
v 72.7902222 184.124512 -733.619507
v 25.9503174 188.835876 -738.177063
v -19.0061951 193.083267 -743.463501
v -63.2876892 196.701141 -750.386169
v 139.794739 182.969742 -757.018494
v 91.4786682 191.512833 -759.701294
v 46.6719055 197.27626 -764.444336
v 4.50994873 202.315674 -769.708679
v -36.039917 207.296432 -775.340027
v -75.4016113 211.483185 -782.579834
v 155.64859 187.485855 -784.678345
v 110.744019 197.917343 -786.710571
v 67.7155457 205.080719 -792.022827
v 27.0840454 210.81105 -798.501953
v -11.2489929 216.200226 -804.761963
v -47.6558838 221.197479 -810.726807
v -82.0106201 224.734818 -817.613342
v 83.8953247 128.927917 -661.102417
v 128.748566 120.574989 -659.562622
v 113.751099 143.948532 -670.10675
v 171.346344 109.780594 -663.395264
v 160.804962 135.258804 -670.803101
v 138.237396 154.600037 -684.829468
v 210.569672 95.8207779 -674.343323
v 203.438629 122.916534 -677.6875
v 184.847321 144.502213 -688.846802
v 157.487518 161.991776 -706.375122
v 245.375885 78.4287109 -692.664673
v 241.365265 106.218544 -691.81311
v 226.306183 129.804108 -699.621216
v 202.658966 149.822189 -713.923706
v 173.349945 167.101974 -733.221008
v 274.965668 58.5363998 -716.923767
v 273.856354 85.4981689 -713.206055
v 262.65976 109.761261 -717.667053
v 242.619598 132.123199 -728.768188
v 216.866364 152.461746 -744.762268
v 187.483673 170.815414 -763.624268
v 41.9806519 113.36673 -655.511841
v 45.7442017 86.6808701 -646.333496
v 88.4620056 103.396881 -652.117676
v 51.0532532 57.5180626 -641.456909
v 92.2793884 75.1420059 -647.432922
v 132.303192 92.7374344 -654.736816
v 58.789093 27.1297646 -643.216309
v 97.1689453 45.0857239 -648.749512
v 135.248474 63.1642227 -656.405762
v 173.348358 80.1327896 -664.323181
v 68.9130249 -3.54249191 -652.879272
v 103.819489 13.4497137 -656.857056
v 139.271576 31.6704731 -664.479797
v 175.213165 48.9777527 -672.679993
v 211.235077 64.6372299 -681.269531
v 81.1170044 -33.5695229 -670.671509
v 112.46405 -19.4601898 -672.266174
v 145.176666 -2.25567245 -679.006226
v 178.738922 15.2842703 -687.41156
v 212.574677 31.6245079 -695.997314
v 245.455353 46.0880203 -705.318665
v -3.2444458 129.882843 -666.937805
v -40.215332 123.073929 -669.190979
v 0.609771729 102.8526 -654.255127
v -70.8347778 116.638695 -674.984619
v -33.5014954 92.7711563 -656.46582
v 6.14614868 73.0612335 -644.581116
v -93.5638733 111.716484 -686.369202
v -59.6981506 84.6414185 -664.452759
v -24.0329285 61.4676208 -648.878235
v 14.7677917 42.2441101 -640.919312
v -107.416 108.292679 -704.522949
v -77.3211365 79.0877609 -680.034363
v -45.1490479 53.0147057 -661.446106
v -10.8985596 30.2891159 -649.218689
v 26.7270508 11.3957005 -645.644287
v -112.616104 105.611694 -729.097778
v -86.3365784 75.6292648 -703.67334
v -57.4191895 47.6021194 -683.588989
v -26.8982239 21.9229755 -668.363159
v 5.95614624 -0.527557373 -659.924561
v 41.823822 -19.082489 -660.381592
v -37.0969849 148.406479 -683.416931
v -65.5419006 165.73848 -704.820496
v -74.0021667 144.605423 -689.220642
v -87.0897217 182.817398 -731.21759
v -100.021484 164.643448 -714.280945
v -102.278534 141.307663 -699.169373
v -101.256104 199.787445 -762.154907
v -117.803513 184.179596 -744.26416
v -124.547699 164.036942 -728.500305
v -121.283432 138.9086 -715.075562
v -108.48436 215.653793 -797.503723
v -127.654846 202.810822 -779.443848
v -138.042419 185.553986 -763.204407
v -139.157501 163.349716 -749.247314
v -130.736649 136.507767 -737.675964
g 
f 3 1 2
f 5 2 4
f 6 3 5
f 8 4 7
f 9 5 8
f 10 6 9
f 12 7 11
f 13 8 12
f 14 9 13
f 15 10 14
f 17 11 16
f 18 12 17
f 19 13 18
f 20 14 19
f 21 15 20
f 23 16 22
f 24 17 23
f 25 18 24
f 26 19 25
f 27 20 26
f 28 21 27
f 30 22 29
f 31 23 30
f 32 24 31
f 33 25 32
f 34 26 33
f 35 27 34
f 36 28 35
f 3 2 5
f 5 4 8
f 6 5 9
f 8 7 12
f 9 8 13
f 10 9 14
f 12 11 17
f 13 12 18
f 14 13 19
f 15 14 20
f 17 16 23
f 18 17 24
f 19 18 25
f 20 19 26
f 21 20 27
f 23 22 30
f 24 23 31
f 25 24 32
f 26 25 33
f 27 26 34
f 28 27 35
f 37 1 3
f 38 3 6
f 39 37 38
f 40 6 10
f 41 38 40
f 42 39 41
f 43 10 15
f 44 40 43
f 45 41 44
f 46 42 45
f 47 15 21
f 48 43 47
f 49 44 48
f 50 45 49
f 51 46 50
f 52 21 28
f 53 47 52
f 54 48 53
f 55 49 54
f 56 50 55
f 57 51 56
f 58 28 36
f 59 52 58
f 60 53 59
f 61 54 60
f 62 55 61
f 63 56 62
f 64 57 63
f 37 3 38
f 38 6 40
f 39 38 41
f 40 10 43
f 41 40 44
f 42 41 45
f 43 15 47
f 44 43 48
f 45 44 49
f 46 45 50
f 47 21 52
f 48 47 53
f 49 48 54
f 50 49 55
f 51 50 56
f 52 28 58
f 53 52 59
f 54 53 60
f 55 54 61
f 56 55 62
f 57 56 63
f 65 1 37
f 66 37 39
f 67 65 66
f 68 39 42
f 69 66 68
f 70 67 69
f 71 42 46
f 72 68 71
f 73 69 72
f 74 70 73
f 75 46 51
f 76 71 75
f 77 72 76
f 78 73 77
f 79 74 78
f 80 51 57
f 81 75 80
f 82 76 81
f 83 77 82
f 84 78 83
f 85 79 84
f 86 57 64
f 87 80 86
f 88 81 87
f 89 82 88
f 90 83 89
f 91 84 90
f 92 85 91
f 65 37 66
f 66 39 68
f 67 66 69
f 68 42 71
f 69 68 72
f 70 69 73
f 71 46 75
f 72 71 76
f 73 72 77
f 74 73 78
f 75 51 80
f 76 75 81
f 77 76 82
f 78 77 83
f 79 78 84
f 80 57 86
f 81 80 87
f 82 81 88
f 83 82 89
f 84 83 90
f 85 84 91
f 93 1 65
f 94 65 67
f 95 93 94
f 96 67 70
f 97 94 96
f 98 95 97
f 99 70 74
f 100 96 99
f 101 97 100
f 102 98 101
f 103 74 79
f 104 99 103
f 105 100 104
f 106 101 105
f 107 102 106
f 108 79 85
f 109 103 108
f 110 104 109
f 111 105 110
f 112 106 111
f 113 107 112
f 114 85 92
f 115 108 114
f 116 109 115
f 117 110 116
f 118 111 117
f 119 112 118
f 120 113 119
f 93 65 94
f 94 67 96
f 95 94 97
f 96 70 99
f 97 96 100
f 98 97 101
f 99 74 103
f 100 99 104
f 101 100 105
f 102 101 106
f 103 79 108
f 104 103 109
f 105 104 110
f 106 105 111
f 107 106 112
f 108 85 114
f 109 108 115
f 110 109 116
f 111 110 117
f 112 111 118
f 113 112 119
f 2 1 93
f 121 93 95
f 4 2 121
f 122 95 98
f 123 121 122
f 7 4 123
f 124 98 102
f 125 122 124
f 126 123 125
f 11 7 126
f 127 102 107
f 128 124 127
f 129 125 128
f 130 126 129
f 16 11 130
f 131 107 113
f 132 127 131
f 133 128 132
f 134 129 133
f 135 130 134
f 22 16 135
f 136 113 120
f 137 131 136
f 138 132 137
f 139 133 138
f 140 134 139
f 141 135 140
f 29 22 141
f 2 93 121
f 121 95 122
f 4 121 123
f 122 98 124
f 123 122 125
f 7 123 126
f 124 102 127
f 125 124 128
f 126 125 129
f 11 126 130
f 127 107 131
f 128 127 132
f 129 128 133
f 130 129 134
f 16 130 135
f 131 113 136
f 132 131 137
f 133 132 138
f 134 133 139
f 135 134 140
f 22 135 141
f 142 29 141
f 143 141 140
f 144 142 143
f 145 140 139
f 146 143 145
f 147 144 146
f 148 139 138
f 149 145 148
f 150 146 149
f 151 147 150
f 152 138 137
f 153 148 152
f 154 149 153
f 155 150 154
f 156 151 155
f 157 137 136
f 158 152 157
f 159 153 158
f 160 154 159
f 161 155 160
f 162 156 161
f 163 136 120
f 164 157 163
f 165 158 164
f 166 159 165
f 167 160 166
f 168 161 167
f 169 162 168
f 142 141 143
f 143 140 145
f 144 143 146
f 145 139 148
f 146 145 149
f 147 146 150
f 148 138 152
f 149 148 153
f 150 149 154
f 151 150 155
f 152 137 157
f 153 152 158
f 154 153 159
f 155 154 160
f 156 155 161
f 157 136 163
f 158 157 164
f 159 158 165
f 160 159 166
f 161 160 167
f 162 161 168
f 170 120 119
f 171 119 118
f 172 170 171
f 173 118 117
f 174 171 173
f 175 172 174
f 176 117 116
f 177 173 176
f 178 174 177
f 179 175 178
f 180 116 115
f 181 176 180
f 182 177 181
f 183 178 182
f 184 179 183
f 185 115 114
f 186 180 185
f 187 181 186
f 188 182 187
f 189 183 188
f 190 184 189
f 191 114 92
f 192 185 191
f 193 186 192
f 194 187 193
f 195 188 194
f 196 189 195
f 197 190 196
f 170 119 171
f 171 118 173
f 172 171 174
f 173 117 176
f 174 173 177
f 175 174 178
f 176 116 180
f 177 176 181
f 178 177 182
f 179 178 183
f 180 115 185
f 181 180 186
f 182 181 187
f 183 182 188
f 184 183 189
f 185 114 191
f 186 185 192
f 187 186 193
f 188 187 194
f 189 188 195
f 190 189 196
f 198 92 91
f 199 91 90
f 200 198 199
f 201 90 89
f 202 199 201
f 203 200 202
f 204 89 88
f 205 201 204
f 206 202 205
f 207 203 206
f 208 88 87
f 209 204 208
f 210 205 209
f 211 206 210
f 212 207 211
f 213 87 86
f 214 208 213
f 215 209 214
f 216 210 215
f 217 211 216
f 218 212 217
f 219 86 64
f 220 213 219
f 221 214 220
f 222 215 221
f 223 216 222
f 224 217 223
f 225 218 224
f 198 91 199
f 199 90 201
f 200 199 202
f 201 89 204
f 202 201 205
f 203 202 206
f 204 88 208
f 205 204 209
f 206 205 210
f 207 206 211
f 208 87 213
f 209 208 214
f 210 209 215
f 211 210 216
f 212 211 217
f 213 86 219
f 214 213 220
f 215 214 221
f 216 215 222
f 217 216 223
f 218 217 224
f 226 64 63
f 227 63 62
f 228 226 227
f 229 62 61
f 230 227 229
f 231 228 230
f 232 61 60
f 233 229 232
f 234 230 233
f 235 231 234
f 236 60 59
f 237 232 236
f 238 233 237
f 239 234 238
f 240 235 239
f 241 59 58
f 242 236 241
f 243 237 242
f 244 238 243
f 245 239 244
f 246 240 245
f 247 58 36
f 248 241 247
f 249 242 248
f 250 243 249
f 251 244 250
f 252 245 251
f 253 246 252
f 226 63 227
f 227 62 229
f 228 227 230
f 229 61 232
f 230 229 233
f 231 230 234
f 232 60 236
f 233 232 237
f 234 233 238
f 235 234 239
f 236 59 241
f 237 236 242
f 238 237 243
f 239 238 244
f 240 239 245
f 241 58 247
f 242 241 248
f 243 242 249
f 244 243 250
f 245 244 251
f 246 245 252
f 254 36 35
f 255 35 34
f 256 254 255
f 257 34 33
f 258 255 257
f 259 256 258
f 260 33 32
f 261 257 260
f 262 258 261
f 263 259 262
f 264 32 31
f 265 260 264
f 266 261 265
f 267 262 266
f 268 263 267
f 269 31 30
f 270 264 269
f 271 265 270
f 272 266 271
f 273 267 272
f 274 268 273
f 275 30 29
f 276 269 275
f 277 270 276
f 278 271 277
f 279 272 278
f 280 273 279
f 281 274 280
f 254 35 255
f 255 34 257
f 256 255 258
f 257 33 260
f 258 257 261
f 259 258 262
f 260 32 264
f 261 260 265
f 262 261 266
f 263 262 267
f 264 31 269
f 265 264 270
f 266 265 271
f 267 266 272
f 268 267 273
f 269 30 275
f 270 269 276
f 271 270 277
f 272 271 278
f 273 272 279
f 274 273 280
f 275 29 142
f 282 142 144
f 276 275 282
f 283 144 147
f 284 282 283
f 277 276 284
f 285 147 151
f 286 283 285
f 287 284 286
f 278 277 287
f 288 151 156
f 289 285 288
f 290 286 289
f 291 287 290
f 279 278 291
f 292 156 162
f 293 288 292
f 294 289 293
f 295 290 294
f 296 291 295
f 280 279 296
f 297 162 169
f 298 292 297
f 299 293 298
f 300 294 299
f 301 295 300
f 302 296 301
f 281 280 302
f 275 142 282
f 282 144 283
f 276 282 284
f 283 147 285
f 284 283 286
f 277 284 287
f 285 151 288
f 286 285 289
f 287 286 290
f 278 287 291
f 288 156 292
f 289 288 293
f 290 289 294
f 291 290 295
f 279 291 296
f 292 162 297
f 293 292 298
f 294 293 299
f 295 294 300
f 296 295 301
f 280 296 302
f 163 120 170
f 303 170 172
f 164 163 303
f 304 172 175
f 305 303 304
f 165 164 305
f 306 175 179
f 307 304 306
f 308 305 307
f 166 165 308
f 309 179 184
f 310 306 309
f 311 307 310
f 312 308 311
f 167 166 312
f 313 184 190
f 314 309 313
f 315 310 314
f 316 311 315
f 317 312 316
f 168 167 317
f 318 190 197
f 319 313 318
f 320 314 319
f 321 315 320
f 322 316 321
f 323 317 322
f 169 168 323
f 163 170 303
f 303 172 304
f 164 303 305
f 304 175 306
f 305 304 307
f 165 305 308
f 306 179 309
f 307 306 310
f 308 307 311
f 166 308 312
f 309 184 313
f 310 309 314
f 311 310 315
f 312 311 316
f 167 312 317
f 313 190 318
f 314 313 319
f 315 314 320
f 316 315 321
f 317 316 322
f 168 317 323
f 191 92 198
f 324 198 200
f 192 191 324
f 325 200 203
f 326 324 325
f 193 192 326
f 327 203 207
f 328 325 327
f 329 326 328
f 194 193 329
f 330 207 212
f 331 327 330
f 332 328 331
f 333 329 332
f 195 194 333
f 334 212 218
f 335 330 334
f 336 331 335
f 337 332 336
f 338 333 337
f 196 195 338
f 339 218 225
f 340 334 339
f 341 335 340
f 342 336 341
f 343 337 342
f 344 338 343
f 197 196 344
f 191 198 324
f 324 200 325
f 192 324 326
f 325 203 327
f 326 325 328
f 193 326 329
f 327 207 330
f 328 327 331
f 329 328 332
f 194 329 333
f 330 212 334
f 331 330 335
f 332 331 336
f 333 332 337
f 195 333 338
f 334 218 339
f 335 334 340
f 336 335 341
f 337 336 342
f 338 337 343
f 196 338 344
f 219 64 226
f 345 226 228
f 220 219 345
f 346 228 231
f 347 345 346
f 221 220 347
f 348 231 235
f 349 346 348
f 350 347 349
f 222 221 350
f 351 235 240
f 352 348 351
f 353 349 352
f 354 350 353
f 223 222 354
f 355 240 246
f 356 351 355
f 357 352 356
f 358 353 357
f 359 354 358
f 224 223 359
f 360 246 253
f 361 355 360
f 362 356 361
f 363 357 362
f 364 358 363
f 365 359 364
f 225 224 365
f 219 226 345
f 345 228 346
f 220 345 347
f 346 231 348
f 347 346 349
f 221 347 350
f 348 235 351
f 349 348 352
f 350 349 353
f 222 350 354
f 351 240 355
f 352 351 356
f 353 352 357
f 354 353 358
f 223 354 359
f 355 246 360
f 356 355 361
f 357 356 362
f 358 357 363
f 359 358 364
f 224 359 365
f 247 36 254
f 366 254 256
f 248 247 366
f 367 256 259
f 368 366 367
f 249 248 368
f 369 259 263
f 370 367 369
f 371 368 370
f 250 249 371
f 372 263 268
f 373 369 372
f 374 370 373
f 375 371 374
f 251 250 375
f 376 268 274
f 377 372 376
f 378 373 377
f 379 374 378
f 380 375 379
f 252 251 380
f 381 274 281
f 382 376 381
f 383 377 382
f 384 378 383
f 385 379 384
f 386 380 385
f 253 252 386
f 247 254 366
f 366 256 367
f 248 366 368
f 367 259 369
f 368 367 370
f 249 368 371
f 369 263 372
f 370 369 373
f 371 370 374
f 250 371 375
f 372 268 376
f 373 372 377
f 374 373 378
f 375 374 379
f 251 375 380
f 376 274 381
f 377 376 382
f 378 377 383
f 379 378 384
f 380 379 385
f 252 380 386
f 389 387 388
f 391 388 390
f 392 389 391
f 394 390 393
f 395 391 394
f 396 392 395
f 398 393 397
f 399 394 398
f 400 395 399
f 401 396 400
f 403 397 402
f 404 398 403
f 405 399 404
f 406 400 405
f 407 401 406
f 409 402 408
f 410 403 409
f 411 404 410
f 412 405 411
f 413 406 412
f 414 407 413
f 302 408 281
f 301 409 302
f 300 410 301
f 299 411 300
f 298 412 299
f 297 413 298
f 169 414 297
f 389 388 391
f 391 390 394
f 392 391 395
f 394 393 398
f 395 394 399
f 396 395 400
f 398 397 403
f 399 398 404
f 400 399 405
f 401 400 406
f 403 402 409
f 404 403 410
f 405 404 411
f 406 405 412
f 407 406 413
f 409 408 302
f 410 409 301
f 411 410 300
f 412 411 299
f 413 412 298
f 414 413 297
f 388 387 415
f 417 415 416
f 390 388 417
f 419 416 418
f 420 417 419
f 393 390 420
f 422 418 421
f 423 419 422
f 424 420 423
f 397 393 424
f 426 421 425
f 427 422 426
f 428 423 427
f 429 424 428
f 402 397 429
f 431 425 430
f 432 426 431
f 433 427 432
f 434 428 433
f 435 429 434
f 408 402 435
f 386 430 253
f 385 431 386
f 384 432 385
f 383 433 384
f 382 434 383
f 381 435 382
f 281 408 381
f 388 415 417
f 417 416 419
f 390 417 420
f 419 418 422
f 420 419 423
f 393 420 424
f 422 421 426
f 423 422 427
f 424 423 428
f 397 424 429
f 426 425 431
f 427 426 432
f 428 427 433
f 429 428 434
f 402 429 435
f 431 430 386
f 432 431 385
f 433 432 384
f 434 433 383
f 435 434 382
f 408 435 381
f 415 387 436
f 438 436 437
f 416 415 438
f 440 437 439
f 441 438 440
f 418 416 441
f 443 439 442
f 444 440 443
f 445 441 444
f 421 418 445
f 447 442 446
f 448 443 447
f 449 444 448
f 450 445 449
f 425 421 450
f 452 446 451
f 453 447 452
f 454 448 453
f 455 449 454
f 456 450 455
f 430 425 456
f 365 451 225
f 364 452 365
f 363 453 364
f 362 454 363
f 361 455 362
f 360 456 361
f 253 430 360
f 415 436 438
f 438 437 440
f 416 438 441
f 440 439 443
f 441 440 444
f 418 441 445
f 443 442 447
f 444 443 448
f 445 444 449
f 421 445 450
f 447 446 452
f 448 447 453
f 449 448 454
f 450 449 455
f 425 450 456
f 452 451 365
f 453 452 364
f 454 453 363
f 455 454 362
f 456 455 361
f 430 456 360
f 436 387 457
f 459 457 458
f 437 436 459
f 461 458 460
f 462 459 461
f 439 437 462
f 464 460 463
f 465 461 464
f 466 462 465
f 442 439 466
f 468 463 467
f 469 464 468
f 470 465 469
f 471 466 470
f 446 442 471
f 473 467 472
f 474 468 473
f 475 469 474
f 476 470 475
f 477 471 476
f 451 446 477
f 344 472 197
f 343 473 344
f 342 474 343
f 341 475 342
f 340 476 341
f 339 477 340
f 225 451 339
f 436 457 459
f 459 458 461
f 437 459 462
f 461 460 464
f 462 461 465
f 439 462 466
f 464 463 468
f 465 464 469
f 466 465 470
f 442 466 471
f 468 467 473
f 469 468 474
f 470 469 475
f 471 470 476
f 446 471 477
f 473 472 344
f 474 473 343
f 475 474 342
f 476 475 341
f 477 476 340
f 451 477 339
f 457 387 389
f 478 389 392
f 458 457 478
f 479 392 396
f 480 478 479
f 460 458 480
f 481 396 401
f 482 479 481
f 483 480 482
f 463 460 483
f 484 401 407
f 485 481 484
f 486 482 485
f 487 483 486
f 467 463 487
f 488 407 414
f 489 484 488
f 490 485 489
f 491 486 490
f 492 487 491
f 472 467 492
f 323 414 169
f 322 488 323
f 321 489 322
f 320 490 321
f 319 491 320
f 318 492 319
f 197 472 318
f 457 389 478
f 478 392 479
f 458 478 480
f 479 396 481
f 480 479 482
f 460 480 483
f 481 401 484
f 482 481 485
f 483 482 486
f 463 483 487
f 484 407 488
f 485 484 489
f 486 485 490
f 487 486 491
f 467 487 492
f 488 414 323
f 489 488 322
f 490 489 321
f 491 490 320
f 492 491 319
f 472 492 318
