# File exported by Houdini 20.5.445 (www.sidefx.com)
# 492 points
# 2940 vertices
# 980 primitives
# Bounds: [-174.293106, -128.094025, -1109.13818] to [345.067047, 244.47113, -645.662842]
g 
v 200.630157 87.6348648 -1084.83386
v 203.680389 114.695045 -1081.6283
v 234.510773 92.9314651 -1100.66943
v 204.418671 141.733704 -1075.36841
v 238.580048 121.441986 -1097.84314
v 263.911285 101.357971 -1109.13818
v 202.8508 166.861359 -1066.28235
v 239.164215 148.514404 -1090.75391
v 266.752228 130.369995 -1105.23694
v 288.687225 112.693687 -1108.64014
v 199.562225 188.0578 -1053.16284
v 236.679474 172.384827 -1079.29431
v 265.684906 156.386993 -1095.99841
v 289.454742 140.790649 -1102.8385
v 309.183685 125.04998 -1099.1604
v 195.662567 204.589325 -1035.15784
v 231.789154 191.752747 -1062.26416
v 261.130524 178.327454 -1081.26184
v 285.945282 164.848328 -1090.9707
v 307.304474 151.157257 -1091.22131
v 325.259186 135.873596 -1082.4021
v 190.363739 216.655884 -1012.76245
v 225.450897 206.703369 -1038.96082
v 254.015717 195.856079 -1059.65735
v 278.526459 184.650635 -1072.41345
v 300.403595 172.858002 -1076.35425
v 319.742767 159.546722 -1071.94824
v 335.414154 143.573273 -1060.30029
v 181.761017 225.617889 -987.136108
v 215.863861 218.068207 -1009.77026
v 244.077972 209.510986 -1029.7854
v 267.872833 200.339874 -1044.32971
v 288.8909 190.297821 -1051.92017
v 308.004486 178.678558 -1052.19934
v 324.749847 164.720795 -1045.7959
v 337.471283 147.875885 -1034.10278
v 216.857574 65.111824 -1093.57812
v 251.619171 72.463028 -1105.2478
v 229.913971 46.5388336 -1091.62805
v 280.487946 83.7244339 -1107.02502
v 264.249664 57.0718651 -1097.21667
v 241.045258 31.6392097 -1077.26562
v 304.376801 97.1974182 -1099.58679
v 292.113739 70.3010864 -1092.96533
v 274.307465 43.9032135 -1078.17432
v 250.540985 17.3429871 -1054.17859
v 324.100372 110.004539 -1084.49829
v 315.055023 83.7011337 -1080.75073
v 300.665192 56.8464775 -1070.09497
v 281.621552 29.2002983 -1052.24841
v 257.396515 1.22699928 -1026.57605
v 338.672821 120.043976 -1063.07434
v 333.212677 94.9028854 -1061.43909
v 321.53653 68.1170425 -1054.31006
v 305.403107 39.7598915 -1041.38562
v 285.018036 10.8417015 -1022.52441
v 260.62027 -17.2194138 -997.351318
v 345.067047 126.515778 -1036.05957
v 344.20755 102.537529 -1035.09204
v 335.875275 75.959671 -1030.51355
v 322.406647 47.150135 -1021.66858
v 304.661957 17.5634537 -1008.32922
v 283.558136 -10.9276047 -990.156616
v 259.944489 -36.513916 -967.326538
v 175.132416 68.5541916 -1072.09802
v 190.448883 43.9051056 -1077.2063
v 148.733673 48.742054 -1055.53442
v 203.151337 24.7047806 -1068.55029
v 164.297455 23.9275703 -1054.55554
v 122.371552 27.1581192 -1034.74585
v 214.754791 8.50526428 -1048.41357
v 177.885406 4.55761909 -1039.32947
v 139.051666 3.3493824 -1027.04492
v 96.6014862 3.36976433 -1010.2478
v 224.889862 -7.96343231 -1021.75281
v 190.712738 -13.2014084 -1014.96021
v 154.431305 -16.5200043 -1006.95532
v 115.345673 -19.4467926 -997.226196
v 72.649826 -22.5608978 -984.077148
v 232.078644 -26.4529572 -991.932251
v 201.255585 -32.0153046 -985.195801
v 167.879547 -35.7437439 -978.576294
v 131.681183 -39.4921646 -972.493164
v 92.6721954 -44.1210175 -965.897217
v 51.1291351 -48.7614288 -956.584351
v 235.30777 -46.3501129 -959.983032
v 207.864166 -52.5022354 -951.544067
v 177.541779 -56.2818604 -944.054077
v 144.22934 -59.6065216 -938.774292
v 108.28067 -63.859024 -935.526855
v 70.3825836 -68.7936325 -932.541382
v 31.3575287 -72.8812027 -927.758179
v 165.437042 100.634689 -1062.58484
v 135.160919 79.5181351 -1047.50317
v 126.43515 112.747673 -1038.33154
v 106.215057 55.990036 -1030.67676
v 93.1426239 86.9769669 -1023.49426
v 84.5517731 120.889084 -1017.58972
v 78.4321747 29.4683361 -1011.34692
v 62.753006 57.8196487 -1007.69336
v 50.0390472 89.0651703 -1003.87622
v 42.6073761 123.913651 -1000.72876
v 51.5536346 0.718687057 -989.145752
v 33.9857025 26.2433987 -989.296997
v 18.9051971 54.6983299 -988.251831
v 7.65629578 86.8122635 -987.322876
v 2.67488098 122.301582 -985.481812
v 26.939682 -29.5881844 -964.529297
v 6.19013977 -6.69474411 -967.49939
v -11.3134003 19.3025551 -969.045166
v -24.8421173 48.9335518 -970.393799
v -33.101181 82.3332291 -971.17749
v -34.4129181 118.220482 -969.588623
v 4.78260803 -59.436264 -937.148193
v -19.6744537 -40.6973724 -942.422852
v -40.9221344 -16.9350052 -945.832886
v -57.5306244 11.3534489 -948.821533
v -68.11409 43.7290649 -951.663208
v -71.7692719 78.8874283 -953.087036
v -68.4855804 114.855232 -951.672607
v 164.946503 130.947571 -1056.00159
v 123.161835 144.639557 -1031.85706
v 162.873749 158.749451 -1048.04419
v 80.4195404 153.488495 -1012.15381
v 119.869659 172.04364 -1024.0144
v 160.008575 182.654114 -1037.66626
v 38.9253387 156.552277 -995.090698
v 77.4977875 180.108368 -1003.59509
v 117.372894 194.481201 -1012.63843
v 157.345062 201.865417 -1023.22607
v -0.765518188 154.510651 -977.982056
v 36.0764618 182.261078 -984.256348
v 75.1079559 200.983582 -989.961304
v 115.053619 211.64035 -996.309326
v 154.186859 216.1185 -1004.08765
v -39.1805267 150.076111 -958.680542
v -5.23008728 180.011139 -963.065796
v 32.0838776 202.483429 -966.33606
v 71.3964691 216.907227 -969.733032
v 110.924591 224.283142 -974.225098
v 148.447968 226.495911 -980.33313
v 149.154572 233.893372 -956.693237
v 109.544952 233.810516 -950.354736
v 111.202484 240.154083 -927.470215
v 68.10112 229.171692 -946.318481
v 66.9825897 238.245178 -923.633667
v 68.8347626 243.435699 -900.086304
v 26.8572235 218.379242 -944.14502
v 23.5087738 230.865082 -921.865601
v 22.9409943 239.002075 -898.697266
v 25.7020721 242.441467 -873.197876
v -12.825058 199.781525 -942.907593
v -18.1621552 216.328217 -921.486938
v -20.4549408 228.108917 -898.47522
v -19.1130219 234.618042 -873.4021
v -13.931015 235.586884 -845.627319
v -49.8927155 172.477875 -941.249512
v -57.5573578 192.787994 -921.521973
v -61.4519806 208.664703 -899.11731
v -61.083725 218.911163 -873.990356
v -56.2364044 223.095734 -846.677124
v -47.2430878 221.391022 -817.762451
v -82.9433441 136.592987 -937.029175
v -93.7454987 158.609161 -919.844971
v -100.000076 178.027069 -899.185913
v -100.85762 192.371216 -874.765503
v -96.1960907 200.399719 -847.470215
v -86.6033173 202.264557 -819.095825
v -73.3282623 199.171997 -791.367065
v -102.81749 90.5180893 -933.950806
v -104.927902 48.5247955 -933.087891
v -131.320786 66.0520172 -915.325806
v -98.6591949 10.2558174 -930.006714
v -129.94104 20.403965 -913.127197
v -152.768661 42.1641121 -896.369019
v -84.3657074 -23.0872421 -925.909058
v -119.697617 -18.9584045 -909.213135
v -146.835129 -4.76173782 -893.42688
v -165.75119 19.2321396 -877.124512
v -63.2699738 -50.6795502 -921.261719
v -100.984146 -51.8006592 -903.611938
v -131.988815 -43.5701675 -888.1604
v -154.88028 -26.6913986 -873.085938
v -169.090744 -2.33295822 -856.985229
v -36.4647675 -72.0681534 -915.374634
v -74.6366119 -77.5907669 -896.355347
v -107.966507 -74.7575302 -879.698242
v -134.605072 -63.5971069 -864.771118
v -152.817856 -45.3902206 -850.144653
v -162.271088 -21.9936218 -834.490723
v -4.84776306 -86.7435913 -906.163208
v -40.7539825 -95.6933517 -885.936646
v -74.3853912 -97.8177338 -867.519531
v -103.263474 -92.2695847 -851.069214
v -125.401993 -79.5646515 -836.433472
v -139.556763 -61.3352661 -822.625732
v -146.081741 -39.4890747 -808.372559
v 37.7671356 -90.486969 -899.842651
v 79.9126129 -85.8722076 -899.660156
v 46.2781525 -103.013519 -868.264648
v 118.3862 -81.3384476 -899.771484
v 90.0005341 -98.4503937 -865.506714
v 56.6195526 -111.864578 -834.28894
v 153.38559 -77.8191376 -902.635376
v 128.282501 -94.7291641 -865.429443
v 100.639847 -108.135971 -831.23999
v 68.5079803 -118.603165 -799.246704
v 185.287445 -74.6227646 -909.483276
v 162.633331 -91.6804962 -869.960815
v 138.851715 -104.935364 -832.883423
v 112.393585 -115.426605 -797.996338
v 81.8793488 -123.536743 -765.217651
v 214.84964 -69.785759 -919.855469
v 194.384796 -87.9323578 -879.635254
v 173.534882 -101.613434 -840.157471
v 150.967377 -111.967468 -802.293091
v 125.385834 -120.040451 -766.776367
v 96.0581207 -125.955292 -734.377686
v 242.43985 -60.9704208 -931.599243
v 224.351044 -81.0854034 -893.056885
v 205.949615 -96.4123917 -852.688232
v 186.257843 -107.463699 -812.190918
v 163.962311 -115.418976 -773.500244
v 138.282013 -121.203171 -738.391724
v 109.365387 -124.713318 -708.419678
v 270.701935 -39.7990723 -951.31543
v 294.454315 -10.6375809 -972.023926
v 277.171356 -40.7289124 -932.709106
v 314.287567 20.5990124 -986.548218
v 298.770844 -8.48067474 -951.06897
v 278.70993 -39.1276093 -910.922485
v 329.780731 52.0933952 -996.305664
v 315.730072 24.8033619 -962.625366
v 296.767609 -4.67512131 -927.178589
v 274.313385 -34.4788322 -886.347168
v 340.151398 82.327446 -1002.47522
v 327.957733 57.7088699 -969.904297
v 309.98642 30.0408821 -936.672607
v 287.999908 1.26237869 -900.981079
v 263.444733 -26.5171318 -860.228149
v 343.84549 110.324852 -1005.73767
v 334.206818 89.2961121 -974.369629
v 317.872406 64.1996231 -942.406494
v 296.387665 37.0134964 -909.194824
v 271.965607 9.96121597 -873.720459
v 246.485931 -14.9948997 -834.717041
v 338.390533 135.870972 -1006.65295
v 331.390533 119.28405 -976.800537
v 317.355682 97.9145737 -945.93103
v 297.33194 73.2351379 -914.322144
v 273.482697 47.520649 -881.714478
v 248.557587 22.7662792 -847.858154
v 224.5065 0.425401688 -812.623657
v 325.351288 160.383881 -1013.11279
v 310.263824 178.057007 -1021.71301
v 306.833221 170.089325 -988.752441
v 292.547882 191.5336 -1023.66138
v 290.834198 187.43576 -993.404907
v 283.284088 177.830078 -961.051147
v 273.230072 202.22406 -1019.08325
v 272.76767 200.175598 -991.061157
v 266.988251 194.587982 -961.553833
v 255.722992 184.602966 -930.925781
v 251.484589 211.501312 -1008.53906
v 252.382599 210.554291 -983.082397
v 247.723663 207.279053 -955.697266
v 237.92276 201.32608 -927.737061
v 224.197235 191.183502 -900.205444
v 225.114471 220.279022 -992.709595
v 227.526947 220.20047 -970.447388
v 223.786957 218.41391 -945.114014
v 214.928253 214.648132 -918.77832
v 202.862274 208.020599 -893.2052
v 189.256195 197.126892 -869.543701
v 191.125824 228.579254 -972.499146
v 194.569244 229.711182 -953.451904
v 191.796722 229.18866 -930.321289
v 183.992706 226.817017 -905.085083
v 173.313995 221.761871 -880.152466
v 162.33725 213.417725 -857.662109
v 152.491241 200.718018 -838.480103
v 154.980438 236.954071 -937.883179
v 113.780853 242.724396 -905.322998
v 153.967804 237.963928 -915.809937
v 69.5859222 244.47113 -874.604736
v 109.877777 242.706024 -880.390259
v 147.415924 236.805359 -890.731445
v 26.4538116 240.60376 -844.129517
v 65.1850433 241.933685 -846.239868
v 102.170441 239.609497 -853.07959
v 137.87265 232.687927 -864.516602
v -11.9940948 229.413818 -812.971558
v 23.3461151 233.838959 -812.071777
v 58.7692413 234.993103 -815.707642
v 93.6841278 232.037079 -825.111816
v 128.032745 224.316101 -839.561768
v -43.9089203 208.900116 -782.096924
v -12.9111481 215.964539 -777.412109
v 19.8140106 220.367157 -777.895386
v 53.5710907 221.346222 -784.894409
v 87.1634674 217.912933 -798.929077
v 120.317291 210.657349 -817.877686
v -119.438187 114.560745 -917.749878
v -147.190994 92.0102768 -898.160767
v -129.78685 137.509155 -898.897705
v -165.748703 68.5957565 -878.349976
v -154.572571 114.540703 -877.738525
v -133.206207 156.094238 -875.912231
v -174.293106 44.2279282 -857.823242
v -168.705688 89.1426315 -856.123901
v -153.540344 130.863647 -852.365601
v -129.499161 168.328094 -848.54834
v -171.967316 19.4668045 -835.529419
v -171.789215 61.4180756 -833.049438
v -162.299255 102.04187 -827.829712
v -144.405991 139.910797 -821.795288
v -119.073517 173.740509 -817.949097
v -158.406006 -4.77146912 -809.509277
v -163.020599 32.1628647 -806.618164
v -159.187698 69.8188171 -800.478394
v -147.11171 106.859062 -792.984009
v -127.854431 141.799194 -787.23938
v -102.881454 173.058594 -786.23584
v 1.06282043 -103.532883 -875.684814
v 10.3181 -113.769775 -842.371582
v -33.188736 -110.179016 -853.755127
v 22.4944 -120.253357 -806.7771
v -21.4560699 -118.082031 -819.183594
v -63.8503571 -109.91864 -834.329468
v 37.0451813 -125.038055 -769.814331
v -6.37507629 -122.833557 -782.224243
v -48.8951874 -116.071854 -798.75769
v -89.2922516 -102.547394 -817.237061
v 53.3939362 -128.094025 -733.520264
v 11.118576 -126.088776 -743.390381
v -30.7548981 -119.438766 -760.32019
v -71.2103119 -107.33667 -780.709717
v -108.353409 -88.3379669 -802.164062
v 70.4099884 -127.555786 -700.921509
v 29.9380951 -126.631897 -704.903442
v -10.7306061 -120.378677 -719.377563
v -50.5522919 -108.569122 -740.600952
v -87.868515 -91.0697098 -764.564575
v -120.28186 -67.8233871 -787.834473
v 252.242889 -65.9386368 -912.07666
v 257.592377 -67.3122101 -890.61731
v 234.246185 -85.6973648 -870.505005
v 257.437592 -64.7417984 -866.682983
v 238.658722 -85.8299026 -846.622437
v 215.717255 -99.5032654 -827.437744
v 250.674286 -57.7900772 -840.730835
v 236.347443 -81.255661 -820.932739
v 218.365387 -97.8100662 -801.391235
v 194.773102 -108.716919 -784.44458
v 236.827728 -46.1926193 -814.024902
v 226.111115 -71.3028488 -793.911255
v 212.520294 -90.740181 -774.021973
v 194.093781 -104.930847 -756.275757
v 169.486969 -114.749756 -743.424316
v 216.144867 -29.3243828 -789.21167
v 207.34317 -55.1000137 -767.03833
v 196.645721 -76.7569962 -746.003174
v 182.441986 -94.4638748 -727.252441
v 163.211639 -108.191833 -713.306763
v 138.557281 -118.181702 -706.529419
v 321.135406 146.982849 -982.068237
v 297.162079 155.640442 -956.210449
v 308.892609 129.22879 -950.461548
v 268.943817 162.975647 -928.898071
v 280.314789 137.301392 -924.662354
v 290.369659 107.381516 -919.117188
v 237.517914 169.851013 -900.411499
v 248.256073 144.63559 -898.357544
v 258.164337 115.533974 -893.795288
v 267.010101 82.9394379 -887.287354
v 202.773224 176.63028 -871.330933
v 213.41153 151.662231 -870.909668
v 222.921173 122.909386 -867.806274
v 232.224518 91.1758194 -861.625366
v 241.013824 57.3860474 -853.667114
v 165.129242 181.74234 -840.465698
v 175.609222 157.736542 -841.192017
v 184.90274 129.220428 -839.12146
v 194.327423 97.7464905 -833.755737
v 204.289459 64.8354874 -825.570557
v 214.579254 31.8431301 -817.36377
v 0.882064819 25.1031742 -665.229492
v 18.1162262 56.0319977 -679.416748
v -20.8612213 49.2274094 -671.470703
v 37.8697968 87.1629639 -699.398804
v -0.987228394 84.3174744 -684.036011
v -39.6879425 74.1195221 -680.449585
v 58.5611115 117.84201 -723.32312
v 20.528183 117.873962 -701.981934
v -17.3576813 111.654167 -691.634888
v -55.4374847 99.7295914 -692.87854
v 79.582962 146.421265 -749.931641
v 42.5611115 149.045044 -724.449219
v 5.73020935 146.026581 -708.837158
v -30.8254547 138.185486 -704.000488
v -67.1222076 126.097916 -710.006226
v 101.276337 170.743286 -778.734619
v 65.3535309 176.052124 -751.441895
v 29.54216 176.301178 -732.077393
v -5.88490295 171.936371 -722.751953
v -40.3843842 163.76651 -722.868286
v -73.9976044 152.501404 -732.623047
v 125.232635 189.039215 -808.478394
v 90.360611 197.000549 -783.02478
v 55.7151642 200.824463 -761.955933
v 21.1264191 200.152069 -749.336548
v -12.6727142 195.443054 -745.37085
v -44.9524994 187.804443 -749.135498
v -75.9741058 177.54187 -760.292847
v 34.6642914 21.1705837 -670.858887
v 68.7513885 17.1418152 -683.488647
v 53.6614227 53.1072731 -693.938354
v 101.984772 12.3779163 -701.498535
v 87.0746918 49.4882927 -713.758179
v 73.7077179 84.110405 -721.362305
v 133.843536 7.23331261 -723.786621
v 118.636749 44.7155762 -736.242554
v 106.082916 80.1082001 -745.994995
v 93.9904938 113.937363 -750.354858
v 164.615753 2.70401764 -749.900513
v 149.408051 39.4020882 -760.66272
v 136.847137 74.9133301 -771.100342
v 125.99942 109.083183 -777.923828
v 114.847321 141.29425 -780.074097
v 194.867157 0.0788173676 -779.646729
v 180.982269 34.6515808 -787.30896
v 168.760468 69.3849335 -797.086304
v 158.130707 103.268478 -805.137451
v 148.258209 135.424896 -809.52417
v 137.878754 164.397797 -810.164185
v 8.73835754 -7.58398819 -656.58667
v 22.001297 -38.5731506 -649.656128
v 47.210495 -12.7370644 -660.52063
v 40.0771637 -67.1949081 -645.662842
v 64.4808502 -43.4335175 -653.885376
v 84.4691315 -17.7159348 -672.752197
v 60.5341034 -91.677063 -648.156616
v 85.1190033 -70.8692474 -653.147461
v 104.021271 -47.9490662 -668.656616
v 119.767975 -22.7925262 -692.121338
v 80.0659027 -109.947266 -659.756348
v 106.063446 -93.5609436 -661.189697
v 125.46701 -73.9788284 -673.193359
v 140.502106 -52.1083679 -692.743774
v 153.070526 -27.3308105 -718.172241
v 96.5344391 -120.823044 -680.415771
v 124.451935 -109.674347 -679.09021
v 146.111481 -94.6344147 -687.852295
v 162.288177 -76.3109131 -704.150269
v 174.693024 -55.02668 -725.588257
v 185.020294 -30.0243073 -750.67749
v -28.0270538 9.07168579 -663.056519
v -54.4253998 -5.50425339 -672.280518
v -19.3333282 -26.7442398 -657.089844
v -77.7600555 -17.4659882 -692.325562
v -43.391037 -42.6184692 -669.720093
v -4.63508606 -58.8303986 -652.421265
v -98.3011322 -26.0972137 -719.695923
v -64.4563446 -54.1591873 -692.656738
v -27.1833954 -74.1066055 -668.346924
v 14.2472382 -86.3860168 -651.550293
v -116.696976 -31.6963158 -750.176025
v -84.032547 -61.3308563 -722.180908
v -47.740799 -83.7976837 -694.709473
v -8.24327087 -99.308197 -671.46875
v 34.4311066 -107.806961 -658.188232
v -133.078629 -35.6635437 -780.396973
v -102.960739 -65.3177795 -754.791992
v -68.0177765 -88.8143387 -727.75769
v -29.4859772 -106.078903 -702.216919
v 11.1276398 -117.137024 -682.821411
v 53.4441681 -121.678558 -674.565308
v -53.5313873 34.2094498 -674.60498
v -74.0693207 59.7600365 -689.263062
v -81.7150726 21.4198456 -690.273071
v -89.3415985 86.6578598 -707.078491
v -102.351334 48.7686729 -710.201782
v -105.677139 11.7712517 -715.715698
v -99.2189178 115.161057 -728.891724
v -116.642899 77.8979416 -732.281738
v -125.943878 41.3472862 -739.293945
v -126.212494 5.18231773 -746.530029
v -103.717331 144.631592 -755.272217
v -125.16275 109.237236 -757.59729
v -139.613388 72.9165497 -764.512329
v -146.13562 36.5441132 -772.578003
v -143.964767 0.346914291 -778.720947
g 
f 3 1 2
f 5 2 4
f 6 3 5
f 8 4 7
f 9 5 8
f 10 6 9
f 12 7 11
f 13 8 12
f 14 9 13
f 15 10 14
f 17 11 16
f 18 12 17
f 19 13 18
f 20 14 19
f 21 15 20
f 23 16 22
f 24 17 23
f 25 18 24
f 26 19 25
f 27 20 26
f 28 21 27
f 30 22 29
f 31 23 30
f 32 24 31
f 33 25 32
f 34 26 33
f 35 27 34
f 36 28 35
f 3 2 5
f 5 4 8
f 6 5 9
f 8 7 12
f 9 8 13
f 10 9 14
f 12 11 17
f 13 12 18
f 14 13 19
f 15 14 20
f 17 16 23
f 18 17 24
f 19 18 25
f 20 19 26
f 21 20 27
f 23 22 30
f 24 23 31
f 25 24 32
f 26 25 33
f 27 26 34
f 28 27 35
f 37 1 3
f 38 3 6
f 39 37 38
f 40 6 10
f 41 38 40
f 42 39 41
f 43 10 15
f 44 40 43
f 45 41 44
f 46 42 45
f 47 15 21
f 48 43 47
f 49 44 48
f 50 45 49
f 51 46 50
f 52 21 28
f 53 47 52
f 54 48 53
f 55 49 54
f 56 50 55
f 57 51 56
f 58 28 36
f 59 52 58
f 60 53 59
f 61 54 60
f 62 55 61
f 63 56 62
f 64 57 63
f 37 3 38
f 38 6 40
f 39 38 41
f 40 10 43
f 41 40 44
f 42 41 45
f 43 15 47
f 44 43 48
f 45 44 49
f 46 45 50
f 47 21 52
f 48 47 53
f 49 48 54
f 50 49 55
f 51 50 56
f 52 28 58
f 53 52 59
f 54 53 60
f 55 54 61
f 56 55 62
f 57 56 63
f 65 1 37
f 66 37 39
f 67 65 66
f 68 39 42
f 69 66 68
f 70 67 69
f 71 42 46
f 72 68 71
f 73 69 72
f 74 70 73
f 75 46 51
f 76 71 75
f 77 72 76
f 78 73 77
f 79 74 78
f 80 51 57
f 81 75 80
f 82 76 81
f 83 77 82
f 84 78 83
f 85 79 84
f 86 57 64
f 87 80 86
f 88 81 87
f 89 82 88
f 90 83 89
f 91 84 90
f 92 85 91
f 65 37 66
f 66 39 68
f 67 66 69
f 68 42 71
f 69 68 72
f 70 69 73
f 71 46 75
f 72 71 76
f 73 72 77
f 74 73 78
f 75 51 80
f 76 75 81
f 77 76 82
f 78 77 83
f 79 78 84
f 80 57 86
f 81 80 87
f 82 81 88
f 83 82 89
f 84 83 90
f 85 84 91
f 93 1 65
f 94 65 67
f 95 93 94
f 96 67 70
f 97 94 96
f 98 95 97
f 99 70 74
f 100 96 99
f 101 97 100
f 102 98 101
f 103 74 79
f 104 99 103
f 105 100 104
f 106 101 105
f 107 102 106
f 108 79 85
f 109 103 108
f 110 104 109
f 111 105 110
f 112 106 111
f 113 107 112
f 114 85 92
f 115 108 114
f 116 109 115
f 117 110 116
f 118 111 117
f 119 112 118
f 120 113 119
f 93 65 94
f 94 67 96
f 95 94 97
f 96 70 99
f 97 96 100
f 98 97 101
f 99 74 103
f 100 99 104
f 101 100 105
f 102 101 106
f 103 79 108
f 104 103 109
f 105 104 110
f 106 105 111
f 107 106 112
f 108 85 114
f 109 108 115
f 110 109 116
f 111 110 117
f 112 111 118
f 113 112 119
f 2 1 93
f 121 93 95
f 4 2 121
f 122 95 98
f 123 121 122
f 7 4 123
f 124 98 102
f 125 122 124
f 126 123 125
f 11 7 126
f 127 102 107
f 128 124 127
f 129 125 128
f 130 126 129
f 16 11 130
f 131 107 113
f 132 127 131
f 133 128 132
f 134 129 133
f 135 130 134
f 22 16 135
f 136 113 120
f 137 131 136
f 138 132 137
f 139 133 138
f 140 134 139
f 141 135 140
f 29 22 141
f 2 93 121
f 121 95 122
f 4 121 123
f 122 98 124
f 123 122 125
f 7 123 126
f 124 102 127
f 125 124 128
f 126 125 129
f 11 126 130
f 127 107 131
f 128 127 132
f 129 128 133
f 130 129 134
f 16 130 135
f 131 113 136
f 132 131 137
f 133 132 138
f 134 133 139
f 135 134 140
f 22 135 141
f 142 29 141
f 143 141 140
f 144 142 143
f 145 140 139
f 146 143 145
f 147 144 146
f 148 139 138
f 149 145 148
f 150 146 149
f 151 147 150
f 152 138 137
f 153 148 152
f 154 149 153
f 155 150 154
f 156 151 155
f 157 137 136
f 158 152 157
f 159 153 158
f 160 154 159
f 161 155 160
f 162 156 161
f 163 136 120
f 164 157 163
f 165 158 164
f 166 159 165
f 167 160 166
f 168 161 167
f 169 162 168
f 142 141 143
f 143 140 145
f 144 143 146
f 145 139 148
f 146 145 149
f 147 146 150
f 148 138 152
f 149 148 153
f 150 149 154
f 151 150 155
f 152 137 157
f 153 152 158
f 154 153 159
f 155 154 160
f 156 155 161
f 157 136 163
f 158 157 164
f 159 158 165
f 160 159 166
f 161 160 167
f 162 161 168
f 170 120 119
f 171 119 118
f 172 170 171
f 173 118 117
f 174 171 173
f 175 172 174
f 176 117 116
f 177 173 176
f 178 174 177
f 179 175 178
f 180 116 115
f 181 176 180
f 182 177 181
f 183 178 182
f 184 179 183
f 185 115 114
f 186 180 185
f 187 181 186
f 188 182 187
f 189 183 188
f 190 184 189
f 191 114 92
f 192 185 191
f 193 186 192
f 194 187 193
f 195 188 194
f 196 189 195
f 197 190 196
f 170 119 171
f 171 118 173
f 172 171 174
f 173 117 176
f 174 173 177
f 175 174 178
f 176 116 180
f 177 176 181
f 178 177 182
f 179 178 183
f 180 115 185
f 181 180 186
f 182 181 187
f 183 182 188
f 184 183 189
f 185 114 191
f 186 185 192
f 187 186 193
f 188 187 194
f 189 188 195
f 190 189 196
f 198 92 91
f 199 91 90
f 200 198 199
f 201 90 89
f 202 199 201
f 203 200 202
f 204 89 88
f 205 201 204
f 206 202 205
f 207 203 206
f 208 88 87
f 209 204 208
f 210 205 209
f 211 206 210
f 212 207 211
f 213 87 86
f 214 208 213
f 215 209 214
f 216 210 215
f 217 211 216
f 218 212 217
f 219 86 64
f 220 213 219
f 221 214 220
f 222 215 221
f 223 216 222
f 224 217 223
f 225 218 224
f 198 91 199
f 199 90 201
f 200 199 202
f 201 89 204
f 202 201 205
f 203 202 206
f 204 88 208
f 205 204 209
f 206 205 210
f 207 206 211
f 208 87 213
f 209 208 214
f 210 209 215
f 211 210 216
f 212 211 217
f 213 86 219
f 214 213 220
f 215 214 221
f 216 215 222
f 217 216 223
f 218 217 224
f 226 64 63
f 227 63 62
f 228 226 227
f 229 62 61
f 230 227 229
f 231 228 230
f 232 61 60
f 233 229 232
f 234 230 233
f 235 231 234
f 236 60 59
f 237 232 236
f 238 233 237
f 239 234 238
f 240 235 239
f 241 59 58
f 242 236 241
f 243 237 242
f 244 238 243
f 245 239 244
f 246 240 245
f 247 58 36
f 248 241 247
f 249 242 248
f 250 243 249
f 251 244 250
f 252 245 251
f 253 246 252
f 226 63 227
f 227 62 229
f 228 227 230
f 229 61 232
f 230 229 233
f 231 230 234
f 232 60 236
f 233 232 237
f 234 233 238
f 235 234 239
f 236 59 241
f 237 236 242
f 238 237 243
f 239 238 244
f 240 239 245
f 241 58 247
f 242 241 248
f 243 242 249
f 244 243 250
f 245 244 251
f 246 245 252
f 254 36 35
f 255 35 34
f 256 254 255
f 257 34 33
f 258 255 257
f 259 256 258
f 260 33 32
f 261 257 260
f 262 258 261
f 263 259 262
f 264 32 31
f 265 260 264
f 266 261 265
f 267 262 266
f 268 263 267
f 269 31 30
f 270 264 269
f 271 265 270
f 272 266 271
f 273 267 272
f 274 268 273
f 275 30 29
f 276 269 275
f 277 270 276
f 278 271 277
f 279 272 278
f 280 273 279
f 281 274 280
f 254 35 255
f 255 34 257
f 256 255 258
f 257 33 260
f 258 257 261
f 259 258 262
f 260 32 264
f 261 260 265
f 262 261 266
f 263 262 267
f 264 31 269
f 265 264 270
f 266 265 271
f 267 266 272
f 268 267 273
f 269 30 275
f 270 269 276
f 271 270 277
f 272 271 278
f 273 272 279
f 274 273 280
f 275 29 142
f 282 142 144
f 276 275 282
f 283 144 147
f 284 282 283
f 277 276 284
f 285 147 151
f 286 283 285
f 287 284 286
f 278 277 287
f 288 151 156
f 289 285 288
f 290 286 289
f 291 287 290
f 279 278 291
f 292 156 162
f 293 288 292
f 294 289 293
f 295 290 294
f 296 291 295
f 280 279 296
f 297 162 169
f 298 292 297
f 299 293 298
f 300 294 299
f 301 295 300
f 302 296 301
f 281 280 302
f 275 142 282
f 282 144 283
f 276 282 284
f 283 147 285
f 284 283 286
f 277 284 287
f 285 151 288
f 286 285 289
f 287 286 290
f 278 287 291
f 288 156 292
f 289 288 293
f 290 289 294
f 291 290 295
f 279 291 296
f 292 162 297
f 293 292 298
f 294 293 299
f 295 294 300
f 296 295 301
f 280 296 302
f 163 120 170
f 303 170 172
f 164 163 303
f 304 172 175
f 305 303 304
f 165 164 305
f 306 175 179
f 307 304 306
f 308 305 307
f 166 165 308
f 309 179 184
f 310 306 309
f 311 307 310
f 312 308 311
f 167 166 312
f 313 184 190
f 314 309 313
f 315 310 314
f 316 311 315
f 317 312 316
f 168 167 317
f 318 190 197
f 319 313 318
f 320 314 319
f 321 315 320
f 322 316 321
f 323 317 322
f 169 168 323
f 163 170 303
f 303 172 304
f 164 303 305
f 304 175 306
f 305 304 307
f 165 305 308
f 306 179 309
f 307 306 310
f 308 307 311
f 166 308 312
f 309 184 313
f 310 309 314
f 311 310 315
f 312 311 316
f 167 312 317
f 313 190 318
f 314 313 319
f 315 314 320
f 316 315 321
f 317 316 322
f 168 317 323
f 191 92 198
f 324 198 200
f 192 191 324
f 325 200 203
f 326 324 325
f 193 192 326
f 327 203 207
f 328 325 327
f 329 326 328
f 194 193 329
f 330 207 212
f 331 327 330
f 332 328 331
f 333 329 332
f 195 194 333
f 334 212 218
f 335 330 334
f 336 331 335
f 337 332 336
f 338 333 337
f 196 195 338
f 339 218 225
f 340 334 339
f 341 335 340
f 342 336 341
f 343 337 342
f 344 338 343
f 197 196 344
f 191 198 324
f 324 200 325
f 192 324 326
f 325 203 327
f 326 325 328
f 193 326 329
f 327 207 330
f 328 327 331
f 329 328 332
f 194 329 333
f 330 212 334
f 331 330 335
f 332 331 336
f 333 332 337
f 195 333 338
f 334 218 339
f 335 334 340
f 336 335 341
f 337 336 342
f 338 337 343
f 196 338 344
f 219 64 226
f 345 226 228
f 220 219 345
f 346 228 231
f 347 345 346
f 221 220 347
f 348 231 235
f 349 346 348
f 350 347 349
f 222 221 350
f 351 235 240
f 352 348 351
f 353 349 352
f 354 350 353
f 223 222 354
f 355 240 246
f 356 351 355
f 357 352 356
f 358 353 357
f 359 354 358
f 224 223 359
f 360 246 253
f 361 355 360
f 362 356 361
f 363 357 362
f 364 358 363
f 365 359 364
f 225 224 365
f 219 226 345
f 345 228 346
f 220 345 347
f 346 231 348
f 347 346 349
f 221 347 350
f 348 235 351
f 349 348 352
f 350 349 353
f 222 350 354
f 351 240 355
f 352 351 356
f 353 352 357
f 354 353 358
f 223 354 359
f 355 246 360
f 356 355 361
f 357 356 362
f 358 357 363
f 359 358 364
f 224 359 365
f 247 36 254
f 366 254 256
f 248 247 366
f 367 256 259
f 368 366 367
f 249 248 368
f 369 259 263
f 370 367 369
f 371 368 370
f 250 249 371
f 372 263 268
f 373 369 372
f 374 370 373
f 375 371 374
f 251 250 375
f 376 268 274
f 377 372 376
f 378 373 377
f 379 374 378
f 380 375 379
f 252 251 380
f 381 274 281
f 382 376 381
f 383 377 382
f 384 378 383
f 385 379 384
f 386 380 385
f 253 252 386
f 247 254 366
f 366 256 367
f 248 366 368
f 367 259 369
f 368 367 370
f 249 368 371
f 369 263 372
f 370 369 373
f 371 370 374
f 250 371 375
f 372 268 376
f 373 372 377
f 374 373 378
f 375 374 379
f 251 375 380
f 376 274 381
f 377 376 382
f 378 377 383
f 379 378 384
f 380 379 385
f 252 380 386
f 389 387 388
f 391 388 390
f 392 389 391
f 394 390 393
f 395 391 394
f 396 392 395
f 398 393 397
f 399 394 398
f 400 395 399
f 401 396 400
f 403 397 402
f 404 398 403
f 405 399 404
f 406 400 405
f 407 401 406
f 409 402 408
f 410 403 409
f 411 404 410
f 412 405 411
f 413 406 412
f 414 407 413
f 302 408 281
f 301 409 302
f 300 410 301
f 299 411 300
f 298 412 299
f 297 413 298
f 169 414 297
f 389 388 391
f 391 390 394
f 392 391 395
f 394 393 398
f 395 394 399
f 396 395 400
f 398 397 403
f 399 398 404
f 400 399 405
f 401 400 406
f 403 402 409
f 404 403 410
f 405 404 411
f 406 405 412
f 407 406 413
f 409 408 302
f 410 409 301
f 411 410 300
f 412 411 299
f 413 412 298
f 414 413 297
f 388 387 415
f 417 415 416
f 390 388 417
f 419 416 418
f 420 417 419
f 393 390 420
f 422 418 421
f 423 419 422
f 424 420 423
f 397 393 424
f 426 421 425
f 427 422 426
f 428 423 427
f 429 424 428
f 402 397 429
f 431 425 430
f 432 426 431
f 433 427 432
f 434 428 433
f 435 429 434
f 408 402 435
f 386 430 253
f 385 431 386
f 384 432 385
f 383 433 384
f 382 434 383
f 381 435 382
f 281 408 381
f 388 415 417
f 417 416 419
f 390 417 420
f 419 418 422
f 420 419 423
f 393 420 424
f 422 421 426
f 423 422 427
f 424 423 428
f 397 424 429
f 426 425 431
f 427 426 432
f 428 427 433
f 429 428 434
f 402 429 435
f 431 430 386
f 432 431 385
f 433 432 384
f 434 433 383
f 435 434 382
f 408 435 381
f 415 387 436
f 438 436 437
f 416 415 438
f 440 437 439
f 441 438 440
f 418 416 441
f 443 439 442
f 444 440 443
f 445 441 444
f 421 418 445
f 447 442 446
f 448 443 447
f 449 444 448
f 450 445 449
f 425 421 450
f 452 446 451
f 453 447 452
f 454 448 453
f 455 449 454
f 456 450 455
f 430 425 456
f 365 451 225
f 364 452 365
f 363 453 364
f 362 454 363
f 361 455 362
f 360 456 361
f 253 430 360
f 415 436 438
f 438 437 440
f 416 438 441
f 440 439 443
f 441 440 444
f 418 441 445
f 443 442 447
f 444 443 448
f 445 444 449
f 421 445 450
f 447 446 452
f 448 447 453
f 449 448 454
f 450 449 455
f 425 450 456
f 452 451 365
f 453 452 364
f 454 453 363
f 455 454 362
f 456 455 361
f 430 456 360
f 436 387 457
f 459 457 458
f 437 436 459
f 461 458 460
f 462 459 461
f 439 437 462
f 464 460 463
f 465 461 464
f 466 462 465
f 442 439 466
f 468 463 467
f 469 464 468
f 470 465 469
f 471 466 470
f 446 442 471
f 473 467 472
f 474 468 473
f 475 469 474
f 476 470 475
f 477 471 476
f 451 446 477
f 344 472 197
f 343 473 344
f 342 474 343
f 341 475 342
f 340 476 341
f 339 477 340
f 225 451 339
f 436 457 459
f 459 458 461
f 437 459 462
f 461 460 464
f 462 461 465
f 439 462 466
f 464 463 468
f 465 464 469
f 466 465 470
f 442 466 471
f 468 467 473
f 469 468 474
f 470 469 475
f 471 470 476
f 446 471 477
f 473 472 344
f 474 473 343
f 475 474 342
f 476 475 341
f 477 476 340
f 451 477 339
f 457 387 389
f 478 389 392
f 458 457 478
f 479 392 396
f 480 478 479
f 460 458 480
f 481 396 401
f 482 479 481
f 483 480 482
f 463 460 483
f 484 401 407
f 485 481 484
f 486 482 485
f 487 483 486
f 467 463 487
f 488 407 414
f 489 484 488
f 490 485 489
f 491 486 490
f 492 487 491
f 472 467 492
f 323 414 169
f 322 488 323
f 321 489 322
f 320 490 321
f 319 491 320
f 318 492 319
f 197 472 318
f 457 389 478
f 478 392 479
f 458 478 480
f 479 396 481
f 480 479 482
f 460 480 483
f 481 401 484
f 482 481 485
f 483 482 486
f 463 483 487
f 484 407 488
f 485 484 489
f 486 485 490
f 487 486 491
f 467 487 492
f 488 414 323
f 489 488 322
f 490 489 321
f 491 490 320
f 492 491 319
f 472 492 318
