# File exported by Houdini 20.5.445 (www.sidefx.com)
# 492 points
# 2940 vertices
# 980 primitives
# Bounds: [-99.9795837, -179.322266, -1074.68066] to [270.753479, 295.699371, -680.120361]
g 
v 169.21051 64.9762115 -1043.53687
v 180.651794 110.12191 -1035.82178
v 187.226074 70.6431198 -1022.28125
v 189.877319 155.602051 -1024.48193
v 198.715332 118.743248 -1011.61926
v 202.822266 77.0401688 -997.335693
v 197.207031 198.666199 -1010.66797
v 206.823425 164.599762 -998.276611
v 212.88446 126.37278 -985.332275
v 215.575989 83.4051743 -970.306274
v 203.643311 235.668274 -995.168335
v 213.118958 205.596252 -983.21936
v 219.6203 170.810883 -971.18103
v 223.757812 131.867279 -958.065552
v 225.729492 88.2388687 -942.529907
v 209.435974 263.304443 -976.893677
v 218.927246 238.553955 -965.977783
v 225.220764 208.070801 -954.658569
v 229.480164 172.854034 -942.927979
v 232.263062 133.439026 -929.890381
v 234.061157 89.808136 -914.630249
v 214.451355 279.807404 -953.992188
v 224.289429 260.992401 -944.409302
v 230.747681 235.720367 -934.217163
v 234.815186 204.712799 -923.492676
v 237.6026 168.954559 -912.53186
v 239.633423 129.44342 -900.398926
v 241.623169 87.0389481 -886.642212
v 218.247253 285.91861 -926.223877
v 228.887451 272.015991 -916.455566
v 236.05896 251.943176 -907.059204
v 240.61853 225.544983 -897.776978
v 243.765381 193.496735 -888.782837
v 246.139832 157.348541 -879.701416
v 248.038635 118.936974 -869.784424
v 250.060425 80.0538712 -858.914185
v 168.054321 25.1939888 -1034.48462
v 186.947815 29.690609 -1009.20691
v 166.60614 -11.4578819 -1019.50659
v 202.924072 35.5167122 -981.241943
v 186.281555 -6.33235931 -990.993408
v 166.190796 -44.7310104 -998.934692
v 216.174561 41.460701 -952.214844
v 203.057556 -0.177936554 -961.032593
v 186.818604 -38.4505997 -968.662476
v 167.906006 -74.7781677 -974.033325
v 227.287292 45.9514084 -923.07666
v 217.566833 5.48451805 -930.708496
v 204.843506 -32.0775681 -937.697876
v 189.686523 -67.6831665 -943.47937
v 172.374878 -101.678986 -946.973022
v 237.074585 47.6265106 -893.919189
v 230.497681 9.3374939 -900.100464
v 221.14093 -27.0189056 -906.077881
v 209.19635 -61.5278625 -911.816895
v 195.216736 -94.3585892 -916.556152
v 179.536133 -124.752228 -919.897461
v 246.549805 45.944767 -864.040771
v 242.460327 10.8593102 -868.410522
v 236.300903 -23.7538109 -872.661377
v 227.354553 -56.898468 -877.593628
v 215.92041 -88.2433624 -882.955444
v 202.882324 -117.213226 -888.34668
v 187.455261 -142.222229 -892.871216
v 149.105103 35.0775909 -1055.79138
v 146.666565 -7.51885223 -1044.13318
v 128.268311 7.26976585 -1061.61304
v 145.274963 -44.9031982 -1025.5509
v 126.06781 -35.856163 -1046.00732
v 106.796936 -16.9571991 -1060.11633
v 145.868652 -77.9404144 -1000.94055
v 125.483398 -72.637085 -1022.95679
v 105.231079 -58.8873672 -1039.9978
v 84.2173462 -36.4592285 -1051.03479
v 149.148499 -107.268738 -972.377075
v 126.964294 -104.739487 -994.198853
v 105.123657 -94.2131119 -1012.49414
v 83.1375732 -76.3540726 -1026.50256
v 60.7328491 -51.6963043 -1034.90051
v 155.554688 -132.719055 -942.588257
v 131.165466 -132.877747 -962.480835
v 106.901428 -125.076538 -979.944824
v 83.0410767 -110.046173 -994.866821
v 59.6520996 -89.2179565 -1006.36584
v 37.0807495 -63.7942047 -1012.94556
v 163.967957 -152.733856 -912.256104
v 138.013184 -156.167419 -929.370361
v 111.000854 -151.672546 -944.594971
v 84.2819214 -139.536835 -958.308716
v 58.9029541 -121.229706 -970.478149
v 35.5487061 -98.8422165 -980.371704
v 14.8119202 -73.6791229 -986.570068
v 157.479614 87.6962509 -1056.46838
v 134.878418 57.2623062 -1067.55322
v 145.413574 111.469788 -1064.77112
v 111.936279 30.6698761 -1070.64868
v 121.11615 81.2816086 -1073.26074
v 133.465332 136.212372 -1069.71423
v 88.1687012 8.64866447 -1065.64648
v 96.4891357 56.2643509 -1072.6543
v 107.809082 106.698715 -1074.68066
v 121.3125 160.01239 -1072.05286
v 63.4161987 -9.61394882 -1052.82031
v 70.973999 35.1002197 -1063.4834
v 81.8016968 82.1048126 -1069.83252
v 94.534729 130.877655 -1072.98401
v 108.376282 179.93985 -1071.67163
v 37.722168 -25.3088379 -1032.58984
v 43.9819946 16.3243217 -1046.03906
v 54.2542114 60.469368 -1055.98499
v 66.7849121 105.870468 -1063.55664
v 80.2516479 150.773254 -1068.16785
v 93.8929443 193.012878 -1067.50952
v 11.9706726 -39.2132263 -1005.56482
v 15.2704163 -0.666984558 -1020.34998
v 23.8389893 40.749752 -1032.7699
v 35.87146 83.3006439 -1043.90356
v 49.475647 124.991768 -1053.21558
v 63.3773193 163.820862 -1058.86841
v 76.9015503 198.075256 -1058.45569
v 168.921509 137.745728 -1047.66614
v 157.375977 164.222748 -1055.42236
v 178.206238 184.87561 -1035.42554
v 145.717957 188.753326 -1060.77881
v 166.846313 210.712494 -1042.8728
v 185.872559 226.492584 -1020.95898
v 133.127014 209.17984 -1063.86475
v 154.727234 232.157654 -1048.09106
v 174.299866 248.980835 -1027.60583
v 192.454102 259.64386 -1004.03442
v 118.626831 222.857758 -1063.22229
v 140.781921 246.953644 -1050.09875
v 161.131531 265.137604 -1030.84033
v 180.273315 276.809814 -1007.97327
v 198.149231 281.945343 -982.518188
v 100.859558 227.28833 -1056.98523
v 123.38208 252.476593 -1046.70886
v 144.685059 272.380798 -1029.11267
v 165.180176 285.875427 -1006.71143
v 184.751953 292.51709 -981.525391
v 202.656799 292.442017 -954.483032
v 210.149475 290.634857 -914.303467
v 190.135864 295.699371 -945.972412
v 196.114929 289.926361 -904.154419
v 168.292847 293.258575 -975.083374
v 171.499573 291.561615 -938.602905
v 174.850647 284.855408 -896.997437
v 145.813843 283.55307 -1001.09753
v 146.297668 285.205994 -968.631714
v 146.586853 282.270599 -932.764404
v 147.172913 276.382019 -892.779419
v 122.989563 266.813293 -1023.19946
v 121.210815 271.488678 -994.376221
v 118.718018 271.421631 -962.297852
v 116.289368 269.498962 -927.741455
v 114.516663 265.315063 -889.657593
v 99.0036011 243.478912 -1038.92004
v 95.4727173 250.933502 -1014.65454
v 90.7526855 253.455627 -985.824463
v 85.7692261 254.408875 -954.384888
v 81.3931274 254.632141 -921.053711
v 78.0566406 252.392334 -884.731323
v 72.7932739 214.259308 -1045.52832
v 67.284729 223.574371 -1026.37744
v 60.7032471 228.545837 -1001.62231
v 53.6582642 232.018616 -972.972656
v 47.1843872 235.381134 -942.160767
v 42.1403198 237.844757 -909.870483
v 38.8414917 237.604584 -875.675659
v 48.6564941 178.563568 -1045.40796
v 32.595459 142.519623 -1040.25427
v 18.3283997 157.776489 -1025.23657
v 17.4703369 103.57946 -1029.51147
v 1.35839844 121.193016 -1015.30029
v -13.0840759 137.704193 -999.285767
v 4.09329224 62.6147614 -1016.38635
v -12.876709 82.0830612 -1001.2052
v -27.9364014 99.8552399 -986.448242
v -40.9875183 117.637856 -970.062744
v -6.00140381 20.7133522 -1002.5885
v -23.806366 41.0568314 -985.785034
v -39.0220642 60.2030945 -970.348511
v -52.0625916 78.9721985 -955.381226
v -63.5970459 98.2673645 -939.195557
v -10.8490906 -20.7928772 -987.992798
v -29.9032593 -1.16953659 -969.962158
v -45.6720581 18.7810249 -953.106201
v -58.6627197 38.9815865 -937.761108
v -69.7122498 59.277916 -923.154419
v -79.6433105 79.9238052 -907.911011
v -8.54837036 -60.4880905 -970.323364
v -28.8416748 -43.6411591 -952.443115
v -45.7420654 -24.2517624 -934.693237
v -59.3823242 -3.06201172 -918.307983
v -70.3069458 19.0056229 -903.641479
v -79.7106628 40.9635468 -890.189209
v -88.254425 62.2657089 -877.104004
v 8.02200317 -97.3606186 -954.531372
v 32.4317627 -124.099182 -944.691162
v 6.2638855 -116.916718 -920.998901
v 59.2987061 -145.817902 -933.679932
v 34.2709961 -143.549957 -910.136108
v 9.55844116 -131.223373 -888.078247
v 88.34021 -161.556458 -922.184937
v 64.4455566 -162.66214 -899.883545
v 40.9501343 -156.420044 -877.931396
v 17.4030457 -140.035675 -857.588623
v 118.798523 -169.914886 -909.77356
v 96.6834106 -174.422302 -889.510986
v 73.9639893 -172.11084 -868.893066
v 51.3571167 -162.788422 -848.670776
v 28.2540283 -143.857758 -830.618896
v 149.423401 -169.860199 -895.423096
v 130.324707 -178.082336 -877.543701
v 108.841919 -179.322266 -858.856323
v 86.5697021 -174.735291 -839.970581
v 63.7318726 -162.962799 -822.146606
v 40.5079346 -142.995514 -807.150513
v 178.514282 -161.028351 -877.841309
v 163.979614 -172.548279 -861.914795
v 145.059204 -177.379791 -845.186768
v 123.472046 -176.635193 -828.125244
v 100.284119 -170.031067 -811.751587
v 76.3916016 -156.941071 -797.416016
v 52.5627441 -137.45787 -786.438843
v 204.268311 -139.987854 -862.940552
v 220.271179 -112.571045 -855.344482
v 217.397034 -133.084824 -832.157227
v 232.726135 -82.6365967 -848.651733
v 233.355103 -103.981827 -823.289185
v 226.247192 -122.29393 -801.332153
v 242.49292 -51.1647034 -843.643188
v 245.107178 -73.4542313 -817.091187
v 242.160828 -92.2449493 -792.954956
v 231.120544 -107.949768 -772.032349
v 249.082581 -18.0091667 -840.34082
v 253.252197 -41.601532 -813.613647
v 253.092163 -61.109108 -788.345459
v 246.935852 -77.1064758 -765.377197
v 232.216675 -89.5455399 -746.315552
v 253.498169 16.5536633 -837.766846
v 258.864685 -8.18943024 -811.81897
v 260.583557 -28.5668526 -786.394897
v 257.040466 -44.9883804 -762.518188
v 246.999878 -57.3890533 -741.624023
v 228.472595 -66.3891602 -725.623779
v 257.182068 51.9635696 -834.763672
v 263.407043 26.9791603 -810.122437
v 266.636353 5.90437126 -785.328369
v 264.769409 -10.8000755 -761.38208
v 256.607849 -23.1552734 -739.756592
v 241.364075 -32.0075684 -722.109253
v 219.131226 -39.1242523 -710.014282
v 257.697144 93.6213989 -838.204712
v 255.283386 134.185516 -847.268677
v 264.016602 104.570107 -817.404663
v 252.777283 172.259583 -854.835693
v 261.096741 144.739258 -824.783203
v 267.340149 114.706192 -796.388306
v 249.636414 206.658875 -861.603638
v 257.869507 181.306091 -830.329834
v 263.716064 153.469452 -802.265381
v 265.824402 125.058769 -775.455078
v 245.446899 236.132141 -868.898804
v 253.484436 213.748016 -835.290894
v 259.21698 188.174316 -806.21875
v 261.161926 161.783264 -780.051636
v 258.011414 136.008148 -755.596558
v 238.913635 259.792755 -877.640991
v 246.83252 241.355133 -841.646606
v 252.252014 218.936676 -810.220581
v 254.233582 194.6427 -783.251465
v 251.302551 170.490082 -759.504883
v 242.477844 147.709839 -738.058716
v 228.036377 277.529419 -888.966797
v 235.558105 263.539062 -851.618042
v 240.344666 245.30307 -817.418701
v 242.032593 224.021729 -788.122803
v 239.375122 201.681549 -763.50415
v 231.643555 179.832306 -742.680176
v 218.641846 159.937653 -724.369019
v 218.254517 280.243164 -872.771606
v 200.972961 278.881226 -861.37085
v 222.531738 265.549805 -833.984253
v 176.140198 274.026001 -855.179077
v 201.427185 264.027588 -823.165527
v 223.53186 247.37381 -800.253662
v 144.634216 265.927551 -852.643799
v 172.559143 259.061676 -818.170654
v 197.990234 245.769043 -790.250122
v 220.647827 226.669647 -771.935913
v 106.65741 255.278259 -850.546509
v 135.406677 250.988281 -815.96582
v 163.350586 240.748932 -784.960083
v 189.541565 225.26709 -761.84436
v 212.594849 204.785645 -747.990723
v 62.6374512 241.741028 -845.318848
v 89.2040405 239.539612 -812.491333
v 117.829956 231.949799 -780.760254
v 146.929688 219.660797 -754.358765
v 174.300964 202.991028 -736.323853
v 198.357544 182.717926 -726.78479
v 40.2406616 192.151703 -1029.6521
v 6.64144897 171.257812 -1006.76672
v 31.3481445 200.132202 -1008.0636
v -25.244812 151.643768 -979.13269
v -4.07769775 180.087524 -983.158691
v 22.3998413 206.052185 -981.791748
v -53.3865051 132.63092 -948.587769
v -37.0953979 161.944519 -953.879272
v -14.6027527 187.754486 -955.206543
v 13.73349 211.860626 -952.014282
v -75.9024048 113.489922 -916.100098
v -65.7108765 143.56546 -921.394653
v -48.5710754 170.569275 -923.669189
v -24.216095 194.917999 -923.333862
v 6.46014404 217.351959 -919.360474
v -90.8813477 93.3437424 -882.283813
v -87.5994263 123.12841 -886.023926
v -77.0173035 151.294281 -887.835815
v -58.242981 177.307953 -888.190796
v -31.3744202 200.570068 -887.214111
v 1.7461853 220.9617 -883.612427
v -16.2023926 -83.0803909 -935.750732
v -16.93396 -99.1239014 -901.649414
v -35.8049316 -64.4990921 -917.2323
v -11.9312439 -109.474792 -869.2771
v -34.8304749 -77.316185 -883.841797
v -51.2910461 -42.686203 -899.865723
v -2.74111938 -115.496658 -839.885376
v -28.1837769 -84.5276108 -852.524902
v -48.8710022 -52.7150574 -867.496948
v -63.5198975 -18.6829567 -883.985107
v 9.17019653 -117.910675 -813.998779
v -18.1391602 -88.4629898 -824.001465
v -41.6407166 -57.565033 -836.915527
v -60.9247131 -26.2515335 -852.179199
v -74.0374451 6.42341995 -869.539062
v 22.3716431 -116.333435 -791.08313
v -6.09390259 -89.6200714 -798.255493
v -31.8171692 -59.7561188 -808.314453
v -54.7269897 -29.1067772 -821.344238
v -72.6048279 1.27110672 -837.295532
v -84.0714111 31.7459259 -855.944946
v 194.173279 -157.00296 -845.902466
v 204.696228 -147.779053 -814.305786
v 178.128845 -166.122101 -829.394409
v 210.284241 -134.454956 -783.518921
v 186.232422 -154.70575 -798.140991
v 157.66156 -169.0383 -813.237915
v 211.655762 -116.726227 -755.158691
v 188.916138 -138.743256 -768.647705
v 163.302551 -155.392761 -783.49707
v 133.860291 -166.20578 -797.893677
v 208.930908 -93.3700485 -731.146484
v 186.739197 -116.890167 -742.289062
v 162.605774 -135.884735 -756.196899
v 136.223816 -149.444153 -770.493286
v 107.386658 -156.830261 -784.117676
v 200.275696 -63.9257355 -712.22522
v 179.053894 -87.8218994 -720.328369
v 155.837158 -108.958221 -732.359009
v 131.133484 -125.441803 -745.938965
v 105.365784 -135.984955 -759.609497
v 79.0084229 -140.108582 -772.915161
v 265.253784 64.6090546 -812.055664
v 269.841125 76.3426514 -790.499878
v 269.937195 41.1611404 -786.609741
v 269.15741 88.7168961 -769.770996
v 270.753479 55.5362549 -765.258911
v 269.567566 23.1504211 -762.077271
v 261.629639 102.282677 -749.972778
v 264.133606 71.2366867 -745.349731
v 264.651917 41.1173439 -741.536133
v 262.252869 10.1788769 -739.199341
v 245.774414 117.583473 -731.480347
v 248.398315 89.1768951 -726.474976
v 249.892212 61.0681992 -722.490479
v 249.466309 32.0701599 -719.805786
v 246.601318 1.23796844 -719.244263
v 220.124146 134.134857 -715.481079
v 221.489868 108.693741 -709.098633
v 222.965637 82.6991196 -704.769043
v 223.977966 55.1702728 -702.338745
v 223.727966 25.4667587 -701.998413
v 222.068665 -6.23622894 -704.297974
v -10.2749634 63.8284073 -710.349609
v 9.26144409 89.7352905 -698.983643
v -28.5251465 96.2350388 -718.95874
v 35.9360352 113.138756 -690.781372
v -3.54229736 123.63987 -708.660034
v -39.2979736 127.679482 -734.25061
v 69.8638306 131.751282 -686.858643
v 29.9821777 145.929993 -702.526245
v -6.7355957 154.112213 -725.980469
v -40.2661438 157.481689 -755.769165
v 109.079163 144.585602 -688.611206
v 70.5587158 162.100433 -700.954224
v 33.9971313 173.918396 -722.075928
v -0.21697998 181.374878 -749.779175
v -30.8129578 184.452698 -782.491455
v 149.810059 152.18573 -696.062134
v 115.014038 172.418182 -704.697632
v 80.3156738 187.600525 -722.223022
v 46.4460449 198.391357 -747.767334
v 15.0475159 205.279388 -778.627686
v -12.2946777 206.995789 -813.0354
v 187.542847 156.454987 -708.317749
v 159.047729 178.522827 -713.435425
v 128.496765 196.592346 -726.883057
v 96.7175903 210.442688 -749.032593
v 65.5539551 220.151764 -778.205322
v 37.0491333 225.334747 -811.165283
v 12.2431641 224.513275 -845.076416
v 22.098053 47.7150497 -700.24353
v 56.4876099 32.558918 -694.528198
v 45.8574219 74.6811295 -689.079346
v 91.9788818 18.3135815 -691.457275
v 83.3950195 60.1365204 -684.58728
v 75.4533691 97.125618 -682.140869
v 127.390076 4.36255264 -690.636963
v 121.052612 45.5938911 -683.796509
v 114.832397 81.3153992 -680.120361
v 110.451111 113.662987 -680.902466
v 161.526184 -9.98190308 -692.729492
v 157.734802 29.9745483 -686.280518
v 153.545959 64.8425598 -682.759644
v 150.074646 95.685112 -682.349976
v 148.710754 124.273308 -686.224731
v 192.855835 -24.7705231 -698.887085
v 192.024597 12.4857273 -692.625122
v 190.507874 46.4054222 -689.708618
v 188.452209 76.6186371 -689.395996
v 186.889893 104.098801 -691.943848
v 186.656128 130.259491 -697.9552
v -5.31997681 27.4563141 -716.216064
v 2.44338989 -7.60505295 -723.885254
v 29.9727783 7.56523895 -708.005981
v 12.1703186 -39.6298676 -733.017212
v 39.5646362 -29.3991127 -716.789307
v 65.4061279 -9.32001114 -703.204834
v 22.9921265 -68.0984955 -743.707886
v 50.1218872 -62.3074188 -727.128906
v 75.5320435 -46.8914337 -713.040527
v 100.662048 -24.0976028 -700.534424
v 33.9962769 -93.5747223 -756.148682
v 60.7076416 -91.2320328 -739.670044
v 86.1228027 -80.2104797 -725.172119
v 110.790649 -61.7870636 -711.856079
v 135.596375 -37.7518463 -700.328003
v 44.1289673 -116.81601 -770.251221
v 70.5861206 -116.947021 -754.78125
v 96.2907104 -109.672882 -740.373657
v 121.272705 -95.3997498 -726.548462
v 145.586548 -75.2564087 -713.705933
v 169.41687 -51.0384216 -703.648682
v -37.9304199 59.20784 -728.403809
v -61.6016846 57.7600403 -749.749512
v -32.5054016 22.3091125 -734.36145
v -80.0983276 59.2697372 -772.838989
v -54.7572021 22.2619591 -754.753662
v -23.9162292 -10.65942 -742.210815
v -91.5571289 61.8100891 -797.393433
v -71.1794739 25.3842049 -776.81665
v -44.4545593 -8.30599976 -762.099243
v -13.2731628 -39.8603058 -751.820312
v -95.8809204 63.6311035 -823.329224
v -81.1739502 28.990757 -800.88855
v -59.1950989 -3.93266296 -783.805298
v -32.344574 -36.024704 -771.706787
v -1.22903442 -66.5436859 -762.876343
v -94.2974854 63.7548981 -850.097534
v -85.1329651 31.3035202 -827.292358
v -68.3575134 -0.197498322 -808.575806
v -45.930542 -31.5781555 -794.140015
v -19.1029663 -62.7364044 -783.456909
v 11.0549927 -91.9242172 -775.754272
v -57.831665 94.3268738 -743.013672
v -67.4052734 127.562996 -763.369019
v -79.7103577 94.7546844 -769.056885
v -64.6538696 157.957214 -788.375122
v -85.1902771 128.287598 -792.782593
v -93.9081726 96.2392731 -795.728638
v -51.1749268 184.257629 -817.709351
v -78.2284851 157.684601 -820.498047
v -94.3154297 128.381378 -822.30188
v -99.9795837 97.1112366 -823.371582
v -28.1290283 205.229584 -850.084961
v -59.9882202 181.930389 -852.047974
v -82.397644 155.529785 -852.776978
v -95.0089722 126.800224 -853.035767
v -98.5799866 96.260437 -852.26062
g 
f 3 1 2
f 5 2 4
f 6 3 5
f 8 4 7
f 9 5 8
f 10 6 9
f 12 7 11
f 13 8 12
f 14 9 13
f 15 10 14
f 17 11 16
f 18 12 17
f 19 13 18
f 20 14 19
f 21 15 20
f 23 16 22
f 24 17 23
f 25 18 24
f 26 19 25
f 27 20 26
f 28 21 27
f 30 22 29
f 31 23 30
f 32 24 31
f 33 25 32
f 34 26 33
f 35 27 34
f 36 28 35
f 3 2 5
f 5 4 8
f 6 5 9
f 8 7 12
f 9 8 13
f 10 9 14
f 12 11 17
f 13 12 18
f 14 13 19
f 15 14 20
f 17 16 23
f 18 17 24
f 19 18 25
f 20 19 26
f 21 20 27
f 23 22 30
f 24 23 31
f 25 24 32
f 26 25 33
f 27 26 34
f 28 27 35
f 37 1 3
f 38 3 6
f 39 37 38
f 40 6 10
f 41 38 40
f 42 39 41
f 43 10 15
f 44 40 43
f 45 41 44
f 46 42 45
f 47 15 21
f 48 43 47
f 49 44 48
f 50 45 49
f 51 46 50
f 52 21 28
f 53 47 52
f 54 48 53
f 55 49 54
f 56 50 55
f 57 51 56
f 58 28 36
f 59 52 58
f 60 53 59
f 61 54 60
f 62 55 61
f 63 56 62
f 64 57 63
f 37 3 38
f 38 6 40
f 39 38 41
f 40 10 43
f 41 40 44
f 42 41 45
f 43 15 47
f 44 43 48
f 45 44 49
f 46 45 50
f 47 21 52
f 48 47 53
f 49 48 54
f 50 49 55
f 51 50 56
f 52 28 58
f 53 52 59
f 54 53 60
f 55 54 61
f 56 55 62
f 57 56 63
f 65 1 37
f 66 37 39
f 67 65 66
f 68 39 42
f 69 66 68
f 70 67 69
f 71 42 46
f 72 68 71
f 73 69 72
f 74 70 73
f 75 46 51
f 76 71 75
f 77 72 76
f 78 73 77
f 79 74 78
f 80 51 57
f 81 75 80
f 82 76 81
f 83 77 82
f 84 78 83
f 85 79 84
f 86 57 64
f 87 80 86
f 88 81 87
f 89 82 88
f 90 83 89
f 91 84 90
f 92 85 91
f 65 37 66
f 66 39 68
f 67 66 69
f 68 42 71
f 69 68 72
f 70 69 73
f 71 46 75
f 72 71 76
f 73 72 77
f 74 73 78
f 75 51 80
f 76 75 81
f 77 76 82
f 78 77 83
f 79 78 84
f 80 57 86
f 81 80 87
f 82 81 88
f 83 82 89
f 84 83 90
f 85 84 91
f 93 1 65
f 94 65 67
f 95 93 94
f 96 67 70
f 97 94 96
f 98 95 97
f 99 70 74
f 100 96 99
f 101 97 100
f 102 98 101
f 103 74 79
f 104 99 103
f 105 100 104
f 106 101 105
f 107 102 106
f 108 79 85
f 109 103 108
f 110 104 109
f 111 105 110
f 112 106 111
f 113 107 112
f 114 85 92
f 115 108 114
f 116 109 115
f 117 110 116
f 118 111 117
f 119 112 118
f 120 113 119
f 93 65 94
f 94 67 96
f 95 94 97
f 96 70 99
f 97 96 100
f 98 97 101
f 99 74 103
f 100 99 104
f 101 100 105
f 102 101 106
f 103 79 108
f 104 103 109
f 105 104 110
f 106 105 111
f 107 106 112
f 108 85 114
f 109 108 115
f 110 109 116
f 111 110 117
f 112 111 118
f 113 112 119
f 2 1 93
f 121 93 95
f 4 2 121
f 122 95 98
f 123 121 122
f 7 4 123
f 124 98 102
f 125 122 124
f 126 123 125
f 11 7 126
f 127 102 107
f 128 124 127
f 129 125 128
f 130 126 129
f 16 11 130
f 131 107 113
f 132 127 131
f 133 128 132
f 134 129 133
f 135 130 134
f 22 16 135
f 136 113 120
f 137 131 136
f 138 132 137
f 139 133 138
f 140 134 139
f 141 135 140
f 29 22 141
f 2 93 121
f 121 95 122
f 4 121 123
f 122 98 124
f 123 122 125
f 7 123 126
f 124 102 127
f 125 124 128
f 126 125 129
f 11 126 130
f 127 107 131
f 128 127 132
f 129 128 133
f 130 129 134
f 16 130 135
f 131 113 136
f 132 131 137
f 133 132 138
f 134 133 139
f 135 134 140
f 22 135 141
f 142 29 141
f 143 141 140
f 144 142 143
f 145 140 139
f 146 143 145
f 147 144 146
f 148 139 138
f 149 145 148
f 150 146 149
f 151 147 150
f 152 138 137
f 153 148 152
f 154 149 153
f 155 150 154
f 156 151 155
f 157 137 136
f 158 152 157
f 159 153 158
f 160 154 159
f 161 155 160
f 162 156 161
f 163 136 120
f 164 157 163
f 165 158 164
f 166 159 165
f 167 160 166
f 168 161 167
f 169 162 168
f 142 141 143
f 143 140 145
f 144 143 146
f 145 139 148
f 146 145 149
f 147 146 150
f 148 138 152
f 149 148 153
f 150 149 154
f 151 150 155
f 152 137 157
f 153 152 158
f 154 153 159
f 155 154 160
f 156 155 161
f 157 136 163
f 158 157 164
f 159 158 165
f 160 159 166
f 161 160 167
f 162 161 168
f 170 120 119
f 171 119 118
f 172 170 171
f 173 118 117
f 174 171 173
f 175 172 174
f 176 117 116
f 177 173 176
f 178 174 177
f 179 175 178
f 180 116 115
f 181 176 180
f 182 177 181
f 183 178 182
f 184 179 183
f 185 115 114
f 186 180 185
f 187 181 186
f 188 182 187
f 189 183 188
f 190 184 189
f 191 114 92
f 192 185 191
f 193 186 192
f 194 187 193
f 195 188 194
f 196 189 195
f 197 190 196
f 170 119 171
f 171 118 173
f 172 171 174
f 173 117 176
f 174 173 177
f 175 174 178
f 176 116 180
f 177 176 181
f 178 177 182
f 179 178 183
f 180 115 185
f 181 180 186
f 182 181 187
f 183 182 188
f 184 183 189
f 185 114 191
f 186 185 192
f 187 186 193
f 188 187 194
f 189 188 195
f 190 189 196
f 198 92 91
f 199 91 90
f 200 198 199
f 201 90 89
f 202 199 201
f 203 200 202
f 204 89 88
f 205 201 204
f 206 202 205
f 207 203 206
f 208 88 87
f 209 204 208
f 210 205 209
f 211 206 210
f 212 207 211
f 213 87 86
f 214 208 213
f 215 209 214
f 216 210 215
f 217 211 216
f 218 212 217
f 219 86 64
f 220 213 219
f 221 214 220
f 222 215 221
f 223 216 222
f 224 217 223
f 225 218 224
f 198 91 199
f 199 90 201
f 200 199 202
f 201 89 204
f 202 201 205
f 203 202 206
f 204 88 208
f 205 204 209
f 206 205 210
f 207 206 211
f 208 87 213
f 209 208 214
f 210 209 215
f 211 210 216
f 212 211 217
f 213 86 219
f 214 213 220
f 215 214 221
f 216 215 222
f 217 216 223
f 218 217 224
f 226 64 63
f 227 63 62
f 228 226 227
f 229 62 61
f 230 227 229
f 231 228 230
f 232 61 60
f 233 229 232
f 234 230 233
f 235 231 234
f 236 60 59
f 237 232 236
f 238 233 237
f 239 234 238
f 240 235 239
f 241 59 58
f 242 236 241
f 243 237 242
f 244 238 243
f 245 239 244
f 246 240 245
f 247 58 36
f 248 241 247
f 249 242 248
f 250 243 249
f 251 244 250
f 252 245 251
f 253 246 252
f 226 63 227
f 227 62 229
f 228 227 230
f 229 61 232
f 230 229 233
f 231 230 234
f 232 60 236
f 233 232 237
f 234 233 238
f 235 234 239
f 236 59 241
f 237 236 242
f 238 237 243
f 239 238 244
f 240 239 245
f 241 58 247
f 242 241 248
f 243 242 249
f 244 243 250
f 245 244 251
f 246 245 252
f 254 36 35
f 255 35 34
f 256 254 255
f 257 34 33
f 258 255 257
f 259 256 258
f 260 33 32
f 261 257 260
f 262 258 261
f 263 259 262
f 264 32 31
f 265 260 264
f 266 261 265
f 267 262 266
f 268 263 267
f 269 31 30
f 270 264 269
f 271 265 270
f 272 266 271
f 273 267 272
f 274 268 273
f 275 30 29
f 276 269 275
f 277 270 276
f 278 271 277
f 279 272 278
f 280 273 279
f 281 274 280
f 254 35 255
f 255 34 257
f 256 255 258
f 257 33 260
f 258 257 261
f 259 258 262
f 260 32 264
f 261 260 265
f 262 261 266
f 263 262 267
f 264 31 269
f 265 264 270
f 266 265 271
f 267 266 272
f 268 267 273
f 269 30 275
f 270 269 276
f 271 270 277
f 272 271 278
f 273 272 279
f 274 273 280
f 275 29 142
f 282 142 144
f 276 275 282
f 283 144 147
f 284 282 283
f 277 276 284
f 285 147 151
f 286 283 285
f 287 284 286
f 278 277 287
f 288 151 156
f 289 285 288
f 290 286 289
f 291 287 290
f 279 278 291
f 292 156 162
f 293 288 292
f 294 289 293
f 295 290 294
f 296 291 295
f 280 279 296
f 297 162 169
f 298 292 297
f 299 293 298
f 300 294 299
f 301 295 300
f 302 296 301
f 281 280 302
f 275 142 282
f 282 144 283
f 276 282 284
f 283 147 285
f 284 283 286
f 277 284 287
f 285 151 288
f 286 285 289
f 287 286 290
f 278 287 291
f 288 156 292
f 289 288 293
f 290 289 294
f 291 290 295
f 279 291 296
f 292 162 297
f 293 292 298
f 294 293 299
f 295 294 300
f 296 295 301
f 280 296 302
f 163 120 170
f 303 170 172
f 164 163 303
f 304 172 175
f 305 303 304
f 165 164 305
f 306 175 179
f 307 304 306
f 308 305 307
f 166 165 308
f 309 179 184
f 310 306 309
f 311 307 310
f 312 308 311
f 167 166 312
f 313 184 190
f 314 309 313
f 315 310 314
f 316 311 315
f 317 312 316
f 168 167 317
f 318 190 197
f 319 313 318
f 320 314 319
f 321 315 320
f 322 316 321
f 323 317 322
f 169 168 323
f 163 170 303
f 303 172 304
f 164 303 305
f 304 175 306
f 305 304 307
f 165 305 308
f 306 179 309
f 307 306 310
f 308 307 311
f 166 308 312
f 309 184 313
f 310 309 314
f 311 310 315
f 312 311 316
f 167 312 317
f 313 190 318
f 314 313 319
f 315 314 320
f 316 315 321
f 317 316 322
f 168 317 323
f 191 92 198
f 324 198 200
f 192 191 324
f 325 200 203
f 326 324 325
f 193 192 326
f 327 203 207
f 328 325 327
f 329 326 328
f 194 193 329
f 330 207 212
f 331 327 330
f 332 328 331
f 333 329 332
f 195 194 333
f 334 212 218
f 335 330 334
f 336 331 335
f 337 332 336
f 338 333 337
f 196 195 338
f 339 218 225
f 340 334 339
f 341 335 340
f 342 336 341
f 343 337 342
f 344 338 343
f 197 196 344
f 191 198 324
f 324 200 325
f 192 324 326
f 325 203 327
f 326 325 328
f 193 326 329
f 327 207 330
f 328 327 331
f 329 328 332
f 194 329 333
f 330 212 334
f 331 330 335
f 332 331 336
f 333 332 337
f 195 333 338
f 334 218 339
f 335 334 340
f 336 335 341
f 337 336 342
f 338 337 343
f 196 338 344
f 219 64 226
f 345 226 228
f 220 219 345
f 346 228 231
f 347 345 346
f 221 220 347
f 348 231 235
f 349 346 348
f 350 347 349
f 222 221 350
f 351 235 240
f 352 348 351
f 353 349 352
f 354 350 353
f 223 222 354
f 355 240 246
f 356 351 355
f 357 352 356
f 358 353 357
f 359 354 358
f 224 223 359
f 360 246 253
f 361 355 360
f 362 356 361
f 363 357 362
f 364 358 363
f 365 359 364
f 225 224 365
f 219 226 345
f 345 228 346
f 220 345 347
f 346 231 348
f 347 346 349
f 221 347 350
f 348 235 351
f 349 348 352
f 350 349 353
f 222 350 354
f 351 240 355
f 352 351 356
f 353 352 357
f 354 353 358
f 223 354 359
f 355 246 360
f 356 355 361
f 357 356 362
f 358 357 363
f 359 358 364
f 224 359 365
f 247 36 254
f 366 254 256
f 248 247 366
f 367 256 259
f 368 366 367
f 249 248 368
f 369 259 263
f 370 367 369
f 371 368 370
f 250 249 371
f 372 263 268
f 373 369 372
f 374 370 373
f 375 371 374
f 251 250 375
f 376 268 274
f 377 372 376
f 378 373 377
f 379 374 378
f 380 375 379
f 252 251 380
f 381 274 281
f 382 376 381
f 383 377 382
f 384 378 383
f 385 379 384
f 386 380 385
f 253 252 386
f 247 254 366
f 366 256 367
f 248 366 368
f 367 259 369
f 368 367 370
f 249 368 371
f 369 263 372
f 370 369 373
f 371 370 374
f 250 371 375
f 372 268 376
f 373 372 377
f 374 373 378
f 375 374 379
f 251 375 380
f 376 274 381
f 377 376 382
f 378 377 383
f 379 378 384
f 380 379 385
f 252 380 386
f 389 387 388
f 391 388 390
f 392 389 391
f 394 390 393
f 395 391 394
f 396 392 395
f 398 393 397
f 399 394 398
f 400 395 399
f 401 396 400
f 403 397 402
f 404 398 403
f 405 399 404
f 406 400 405
f 407 401 406
f 409 402 408
f 410 403 409
f 411 404 410
f 412 405 411
f 413 406 412
f 414 407 413
f 302 408 281
f 301 409 302
f 300 410 301
f 299 411 300
f 298 412 299
f 297 413 298
f 169 414 297
f 389 388 391
f 391 390 394
f 392 391 395
f 394 393 398
f 395 394 399
f 396 395 400
f 398 397 403
f 399 398 404
f 400 399 405
f 401 400 406
f 403 402 409
f 404 403 410
f 405 404 411
f 406 405 412
f 407 406 413
f 409 408 302
f 410 409 301
f 411 410 300
f 412 411 299
f 413 412 298
f 414 413 297
f 388 387 415
f 417 415 416
f 390 388 417
f 419 416 418
f 420 417 419
f 393 390 420
f 422 418 421
f 423 419 422
f 424 420 423
f 397 393 424
f 426 421 425
f 427 422 426
f 428 423 427
f 429 424 428
f 402 397 429
f 431 425 430
f 432 426 431
f 433 427 432
f 434 428 433
f 435 429 434
f 408 402 435
f 386 430 253
f 385 431 386
f 384 432 385
f 383 433 384
f 382 434 383
f 381 435 382
f 281 408 381
f 388 415 417
f 417 416 419
f 390 417 420
f 419 418 422
f 420 419 423
f 393 420 424
f 422 421 426
f 423 422 427
f 424 423 428
f 397 424 429
f 426 425 431
f 427 426 432
f 428 427 433
f 429 428 434
f 402 429 435
f 431 430 386
f 432 431 385
f 433 432 384
f 434 433 383
f 435 434 382
f 408 435 381
f 415 387 436
f 438 436 437
f 416 415 438
f 440 437 439
f 441 438 440
f 418 416 441
f 443 439 442
f 444 440 443
f 445 441 444
f 421 418 445
f 447 442 446
f 448 443 447
f 449 444 448
f 450 445 449
f 425 421 450
f 452 446 451
f 453 447 452
f 454 448 453
f 455 449 454
f 456 450 455
f 430 425 456
f 365 451 225
f 364 452 365
f 363 453 364
f 362 454 363
f 361 455 362
f 360 456 361
f 253 430 360
f 415 436 438
f 438 437 440
f 416 438 441
f 440 439 443
f 441 440 444
f 418 441 445
f 443 442 447
f 444 443 448
f 445 444 449
f 421 445 450
f 447 446 452
f 448 447 453
f 449 448 454
f 450 449 455
f 425 450 456
f 452 451 365
f 453 452 364
f 454 453 363
f 455 454 362
f 456 455 361
f 430 456 360
f 436 387 457
f 459 457 458
f 437 436 459
f 461 458 460
f 462 459 461
f 439 437 462
f 464 460 463
f 465 461 464
f 466 462 465
f 442 439 466
f 468 463 467
f 469 464 468
f 470 465 469
f 471 466 470
f 446 442 471
f 473 467 472
f 474 468 473
f 475 469 474
f 476 470 475
f 477 471 476
f 451 446 477
f 344 472 197
f 343 473 344
f 342 474 343
f 341 475 342
f 340 476 341
f 339 477 340
f 225 451 339
f 436 457 459
f 459 458 461
f 437 459 462
f 461 460 464
f 462 461 465
f 439 462 466
f 464 463 468
f 465 464 469
f 466 465 470
f 442 466 471
f 468 467 473
f 469 468 474
f 470 469 475
f 471 470 476
f 446 471 477
f 473 472 344
f 474 473 343
f 475 474 342
f 476 475 341
f 477 476 340
f 451 477 339
f 457 387 389
f 478 389 392
f 458 457 478
f 479 392 396
f 480 478 479
f 460 458 480
f 481 396 401
f 482 479 481
f 483 480 482
f 463 460 483
f 484 401 407
f 485 481 484
f 486 482 485
f 487 483 486
f 467 463 487
f 488 407 414
f 489 484 488
f 490 485 489
f 491 486 490
f 492 487 491
f 472 467 492
f 323 414 169
f 322 488 323
f 321 489 322
f 320 490 321
f 319 491 320
f 318 492 319
f 197 472 318
f 457 389 478
f 478 392 479
f 458 478 480
f 479 396 481
f 480 479 482
f 460 480 483
f 481 401 484
f 482 481 485
f 483 482 486
f 463 483 487
f 484 407 488
f 485 484 489
f 486 485 490
f 487 486 491
f 467 487 492
f 488 414 323
f 489 488 322
f 490 489 321
f 491 490 320
f 492 491 319
f 472 492 318
