# File exported by Houdini 20.5.445 (www.sidefx.com)
# 492 points
# 2940 vertices
# 980 primitives
# Bounds: [-99.7561035, -168.502869, -1075.26831] to [270.529999, 284.879974, -679.532715]
g 
v 152.473663 48.1968803 -1050.32471
v 164.695709 88.6923218 -1044.10449
v 171.53299 53.9655418 -1028.89722
v 176.68338 130.357849 -1033.20544
v 185.19162 96.6514664 -1018.90784
v 189.326141 60.3629494 -1002.70117
v 186.861176 171.537842 -1018.84094
v 196.5112 138.58017 -1005.09949
v 202.240387 103.918602 -990.215576
v 205.22757 66.7676086 -973.473389
v 194.540619 209.503052 -1001.52002
v 204.614838 178.421387 -988.727661
v 211.392853 144.998627 -974.856445
v 215.852936 109.860466 -959.70874
v 218.945648 72.0738831 -942.908447
v 199.740082 240.882874 -981.112671
v 209.840485 213.686218 -969.79187
v 217.047455 182.475311 -957.302368
v 222.376068 148.891632 -943.500854
v 226.642365 113.268242 -928.469727
v 230.677887 75.0211639 -912.273193
v 202.506256 262.839386 -957.603271
v 212.900604 241.181458 -947.294312
v 220.298126 213.835999 -936.405762
v 225.964691 182.646362 -924.263306
v 230.83255 148.772156 -910.963257
v 235.635468 112.784538 -896.851807
v 240.861908 74.928299 -882.194702
v 202.485077 274.195557 -930.799805
v 213.630829 258.231934 -920.212036
v 221.726776 235.773407 -909.870605
v 227.794159 208.20694 -899.233765
v 232.985748 176.845367 -887.960327
v 238.21524 142.914886 -876.215332
v 243.865997 107.63549 -864.358765
v 249.829376 72.2842102 -852.596313
v 153.437592 13.2755146 -1039.05017
v 173.02121 18.6259632 -1013.79626
v 155.93808 -18.9284058 -1021.24573
v 191.148041 24.9282074 -985.073364
v 176.170685 -12.6802254 -993.74707
v 160.651215 -48.8257828 -998.301392
v 207.822968 31.0670815 -954.587036
v 195.061432 -5.9654808 -964.187866
v 181.962616 -41.5647049 -970.597046
v 168.295807 -76.7608414 -973.325439
v 223.05899 35.8623543 -923.36377
v 213.0065 -0.129869461 -933.43811
v 202.054962 -34.6601944 -941.315796
v 191.353668 -68.9256363 -946.630493
v 178.682648 -102.116615 -948.20166
v 236.924408 38.5285912 -891.706055
v 230.097687 4.0638237 -901.299805
v 221.580597 -29.1674118 -909.96106
v 213.043427 -61.9031754 -917.145752
v 203.638214 -93.8243942 -921.728638
v 189.803375 -122.549538 -921.886475
v 249.380341 39.3430023 -859.261475
v 246.157318 6.86828232 -866.736816
v 240.527863 -24.845459 -874.758301
v 234.096344 -56.0134964 -882.832275
v 226.883331 -86.3079758 -889.952759
v 216.254913 -114.074242 -894.289429
v 199.964508 -137.207275 -894.480591
v 133.619537 21.1482677 -1060.43115
v 135.453461 -16.6135025 -1045.27173
v 114.946259 -3.06181717 -1062.75806
v 139.043732 -49.9878311 -1022.70447
v 117.962128 -41.4930191 -1042.4209
v 95.4252625 -23.1694756 -1056.74951
v 144.784393 -80.1953659 -996.077515
v 122.246002 -74.7672501 -1015.34644
v 99.3789978 -61.076149 -1031.45618
v 74.5403137 -39.0541763 -1043.00378
v 153.089935 -107.583687 -968.3302
v 128.325226 -104.609367 -985.579468
v 103.942596 -93.7469864 -1000.87659
v 78.9897766 -75.7648087 -1013.82532
v 52.5503235 -51.3671112 -1022.86731
v 163.029266 -130.557648 -939.318481
v 136.141144 -130.623077 -954.187378
v 109.657745 -122.635506 -967.665283
v 83.5353088 -107.464836 -980.011597
v 57.3965759 -86.6315842 -990.53186
v 31.0024109 -61.5642471 -997.679688
v 173.668793 -147.392059 -908.196045
v 145.395599 -150.863922 -919.869507
v 116.682343 -146.650177 -930.812744
v 88.5544128 -134.914856 -941.716431
v 61.5092468 -117.089989 -952.321411
v 35.7176819 -95.1810837 -961.689087
v 11.361145 -70.6388321 -968.482544
v 139.817352 68.2970886 -1063.61816
v 117.261993 41.3492088 -1071.92761
v 126.414215 89.8802185 -1070.67175
v 94.8840637 18.9920654 -1071.17712
v 100.348297 63.5813713 -1075.26831
v 112.661713 113.457588 -1072.42786
v 71.9090881 0.941265106 -1061.78845
v 74.8108826 42.6370811 -1070.36438
v 83.8998108 88.0832977 -1072.4668
v 99.0440979 137.823334 -1069.94604
v 47.9734802 -13.7250977 -1044.66553
v 48.912262 25.441864 -1057.00989
v 55.7866516 67.5852203 -1062.83411
v 68.2884216 112.670982 -1064.99646
v 85.3263245 159.890503 -1064.11621
v 23.7608643 -26.4857101 -1020.66162
v 22.1784058 10.3978367 -1035.78809
v 27.0105591 49.9940872 -1044.74622
v 37.6349182 91.9005737 -1050.22205
v 52.7461853 134.848175 -1053.97375
v 70.5329895 177.008728 -1055.28601
v 1.03530884 -38.6470413 -990.231812
v -4.28167725 -3.86584854 -1006.5824
v -2.85812378 34.0428505 -1017.93213
v 5.26940918 73.9367218 -1026.1156
v 18.7834778 114.07917 -1033.22827
v 35.5731812 152.591461 -1039.40576
v 53.4476624 187.502533 -1042.71912
v 152.509369 114.031792 -1056.08667
v 140.107758 138.855011 -1062.11035
v 164.520844 158.538055 -1044.13953
v 127.74173 163.523804 -1064.02283
v 152.518524 184.329437 -1049.69153
v 174.733246 200.008698 -1028.76953
v 114.821625 186.315613 -1062.62927
v 140.347992 207.671265 -1051.80151
v 162.726349 224.350525 -1033.64185
v 182.557587 235.813934 -1009.84961
v 100.162079 204.220245 -1057.95081
v 126.447845 226.605743 -1050.78577
v 149.584015 244.159119 -1035.17175
v 169.859589 256.503876 -1013.16101
v 187.515533 263.037994 -986.887695
v 82.01651 214.328339 -1048.45557
v 108.598236 237.712036 -1044.88354
v 132.710114 256.508728 -1032.13647
v 154.123505 270.010468 -1011.81116
v 172.864532 277.643219 -986.518311
v 189.04538 279.111542 -959.055298
v 191.176117 281.300751 -919.92981
v 173.929291 284.879974 -951.378784
v 174.57486 280.877441 -910.033203
v 154.642365 281.444153 -980.702271
v 153.532196 281.590576 -944.259155
v 151.752716 274.915619 -901.952637
v 133.263153 271.703003 -1005.91846
v 131.099762 275.308716 -973.93042
v 127.409271 272.364624 -937.046631
v 122.570648 265.842072 -894.820679
v 109.339325 255.968323 -1024.38965
v 106.736542 262.859344 -997.422729
v 101.920746 262.985809 -965.126709
v 95.5838928 259.906952 -928.307373
v 88.0591736 255.417969 -886.57019
v 82.3383484 234.541687 -1033.71973
v 79.3954773 244.507935 -1012.39355
v 73.9529114 247.731689 -984.972534
v 66.9811096 247.563477 -952.514771
v 58.695343 246.414734 -915.936646
v 49.9935608 243.915344 -875.495972
v 51.865448 207.859222 -1032.07153
v 47.7879944 220.310242 -1016.02271
v 41.615448 226.694641 -993.876099
v 34.3885498 229.565887 -966.009277
v 26.1211548 231.348602 -933.805664
v 17.8027649 232.05484 -898.558716
v 10.8893738 230.842621 -861.383545
v 22.5718079 173.412994 -1023.87708
v 2.59747314 136.612366 -1015.448
v -9.38809204 157.153137 -999.29541
v -13.822052 97.1836624 -1005.48511
v -28.4290466 118.534599 -987.501587
v -39.3148499 138.997284 -971.005005
v -24.7810669 56.6977577 -995.71167
v -41.8109741 78.1546631 -975.34729
v -55.0240784 99.1038895 -957.326538
v -64.2761536 120.336052 -940.695923
v -28.8264771 16.5962067 -985.028687
v -48.4525452 37.318119 -963.565308
v -64.0484924 58.3623161 -943.695312
v -75.4701538 80.1141205 -926.045654
v -82.7854309 102.366905 -909.763672
v -25.1227722 -21.9566383 -970.862061
v -47.4036255 -3.14228439 -950.004028
v -65.6303406 17.3968239 -929.564453
v -79.3453064 39.5793839 -910.821167
v -88.394165 62.6994514 -894.149902
v -93.7878418 85.7214966 -878.968872
v -14.0291748 -58.423851 -951.034668
v -37.6937561 -42.6379318 -931.466309
v -58.1340637 -23.4760132 -911.417847
v -74.2099915 -1.29582214 -892.569458
v -85.493927 22.7581406 -875.853638
v -92.7450256 47.0636711 -861.431396
v -97.1570435 70.0455933 -848.840698
v 8.72619629 -93.5409164 -932.989502
v 36.2493591 -119.199379 -922.864502
v 9.06478882 -112.198021 -895.491943
v 64.9103088 -139.671661 -912.356445
v 39.8888245 -137.03009 -884.575317
v 12.9119568 -125.588356 -858.415771
v 95.0213928 -154.283691 -902.49292
v 71.5455017 -154.457367 -875.118042
v 46.8062439 -148.622101 -848.740112
v 20.4167175 -133.860596 -824.241821
v 126.564362 -161.86795 -893.554932
v 104.768646 -164.94635 -867.229614
v 81.3385925 -162.515869 -841.435303
v 56.9989319 -154.119904 -816.764526
v 31.25 -137.339905 -794.704346
v 158.919708 -161.608032 -884.877808
v 139.684418 -167.934937 -860.283203
v 117.602448 -168.502869 -835.54895
v 94.3067322 -164.241241 -811.509888
v 69.8372498 -153.833008 -789.227539
v 44.4492493 -136.375366 -770.515015
v 190.649689 -153.282562 -874.514404
v 175.593842 -162.658478 -852.401733
v 155.783478 -166.234985 -829.209351
v 133.57132 -165.235382 -806.333984
v 109.574554 -159.33255 -784.846558
v 84.2939758 -148.046387 -765.976685
v 58.6756897 -131.190094 -751.40564
v 219.223907 -133.9935 -867.131836
v 235.923615 -108.488731 -862.910522
v 233.929657 -126.829826 -838.107178
v 245.509247 -79.7120895 -855.270752
v 249.484833 -99.5916519 -830.571777
v 242.586212 -116.513359 -807.557007
v 251.337921 -49.3656387 -846.573975
v 257.742889 -70.1682205 -821.161255
v 256.629913 -88.0803146 -797.896729
v 245.56662 -103.435753 -776.680786
v 256.113495 -18.1293259 -838.772583
v 262.706818 -39.4355392 -812.537354
v 264.279694 -57.9168167 -788.252441
v 258.371796 -73.8722305 -766.337036
v 243.677826 -87.2882767 -747.59668
v 258.984589 14.54743 -832.326538
v 266.123566 -7.07653427 -806.075073
v 269.022919 -25.9340134 -780.890869
v 266.178802 -42.298584 -757.764893
v 255.945526 -55.9467545 -737.952637
v 237.727875 -66.8886337 -722.886475
v 258.732086 49.2820168 -827.082031
v 266.293671 28.1590996 -801.409668
v 270.529999 9.26490593 -776.028687
v 269.869293 -7.26268768 -752.0979
v 263.031647 -21.0544434 -731.149536
v 248.812225 -32.2867661 -714.858276
v 227.911652 -41.8298645 -704.30957
v 253.828949 88.9980927 -830.518677
v 246.765778 126.137672 -841.355835
v 256.358673 102.784142 -808.738647
v 240.170135 161.518066 -851.756348
v 248.122711 139.629852 -819.102905
v 255.90036 114.948479 -787.651733
v 233.947723 194.373108 -861.814697
v 240.172211 173.807587 -828.460693
v 246.245392 150.592163 -797.670044
v 250.537323 126.906807 -767.80249
v 227.360626 223.934143 -871.779297
v 232.245941 205.154877 -837.284302
v 236.580292 183.143494 -806.071899
v 239.267426 160.683472 -777.189453
v 238.503632 139.567932 -749.36731
v 219.211334 249.177826 -882.324707
v 223.178741 233.036652 -846.50293
v 226.024017 212.871521 -814.000366
v 226.956268 191.475708 -784.7677
v 224.889374 171.159546 -757.94043
v 218.614655 153.268982 -732.775513
v 207.737274 268.616821 -894.705688
v 210.894928 256.161011 -858.132935
v 212.280914 239.049713 -823.730957
v 211.407196 219.623596 -792.84021
v 207.719696 200.289185 -765.360474
v 200.70993 182.65625 -740.7323
v 190.521088 166.948517 -719.013184
v 194.438202 272.645172 -879.428467
v 174.714569 270.311005 -867.366821
v 194.688385 258.709595 -840.924561
v 147.794464 264.419891 -858.650757
v 170.928802 256.634369 -828.30481
v 192.055328 241.856476 -806.081665
v 114.010712 256.788483 -851.270508
v 139.36972 252.113495 -818.980225
v 163.553436 241.201111 -792.76062
v 186.382843 223.858398 -774.982422
v 74.3482971 247.437958 -842.825806
v 100.058258 245.445312 -810.459106
v 126.309174 237.847046 -781.793457
v 152.233063 224.569092 -760.236206
v 177.162994 205.914764 -746.939087
v 30.7293396 235.220642 -831.79248
v 54.006073 235.212769 -800.656494
v 80.3301697 230.3909 -771.212036
v 108.456085 220.71167 -746.942017
v 136.923126 206.329346 -730.543091
v 164.562225 188.0784 -721.809204
v 16.9750671 191.2146 -1010.38757
v -17.3532715 173.856934 -983.40625
v 9.29071045 202.128052 -991.922485
v -47.2754517 155.738556 -953.510254
v -25.3488464 184.416962 -963.196899
v 1.62606812 208.369904 -967.98291
v -71.5697021 137.446777 -921.96521
v -55.1077271 166.85675 -931.972778
v -33.7202759 191.721558 -937.921753
v -6.82501221 212.840881 -938.922241
v -88.984375 119.244362 -889.334473
v -78.7597046 148.708771 -898.695923
v -63.3424377 174.50824 -904.968628
v -42.3878479 196.865723 -907.231445
v -15.304657 215.864136 -905.319092
v -98.2204285 100.517586 -855.884644
v -94.5203247 128.870575 -863.193115
v -85.6453552 154.965393 -868.765381
v -70.9370422 178.5867 -871.381836
v -49.7842407 199.311829 -870.932129
v -22.1069946 216.684967 -867.713135
v -17.8413696 -79.6629105 -911.912598
v -17.1190491 -94.9602432 -872.869629
v -40.6766968 -61.1173935 -891.024292
v -12.0482788 -105.187614 -836.05188
v -37.9864197 -72.9694138 -852.54895
v -59.1295776 -38.792717 -871.604492
v -2.9776001 -111.343422 -803.22876
v -30.9138489 -80.4171982 -817.351929
v -54.0888367 -47.3117752 -834.913574
v -73.0899048 -13.4734573 -854.518433
v 9.76333618 -113.759621 -775.503784
v -19.9646912 -84.6811142 -786.515503
v -45.2051697 -52.1179886 -801.929565
v -66.5028687 -19.0341644 -819.870117
v -83.2001648 13.6049709 -839.900146
v 25.2310181 -112.08593 -753.081299
v -5.56848145 -85.6862717 -760.694458
v -33.083252 -54.2098846 -773.049683
v -57.0157471 -21.3083839 -788.780396
v -76.6094666 10.6971264 -806.993652
v -90.5515137 40.8488617 -827.235718
v 208.582184 -148.605804 -845.365479
v 220.305206 -139.718414 -816.027466
v 191.459869 -156.003021 -822.834106
v 226.235626 -127.826637 -786.400146
v 201.3862 -145.617584 -794.501099
v 170.575897 -158.124237 -800.620239
v 226.243866 -112.70681 -757.153442
v 204.71579 -131.998657 -766.478271
v 178.222992 -146.06366 -773.843384
v 146.405304 -155.467896 -779.437012
v 220.621429 -92.777916 -730.203979
v 200.923248 -113.709938 -739.254517
v 177.680573 -129.612488 -747.58313
v 150.34317 -140.915436 -754.401611
v 118.909943 -147.420013 -759.910767
v 210.355927 -66.7745895 -708.276123
v 190.734955 -88.9961014 -715.118408
v 168.929474 -107.093224 -722.870117
v 144.682281 -120.665108 -730.373779
v 117.837921 -129.535217 -737.082642
v 88.7492981 -133.216431 -743.46228
v 262.872772 65.2670441 -802.260376
v 263.905792 79.2176361 -779.331299
v 268.672455 45.0688171 -775.350952
v 259.91745 93.1879654 -758.546509
v 266.189056 61.104702 -752.676636
v 269.384247 28.2459755 -750.206421
v 248.901337 108.496437 -739.664551
v 256.804535 78.4329071 -732.793335
v 261.739471 47.5605392 -728.68335
v 263.84964 14.5674953 -727.699219
v 229.026154 125.627296 -722.618774
v 238.004303 97.7710953 -715.187012
v 244.76474 68.459198 -710.313477
v 248.928131 36.9107742 -708.157593
v 250.494171 3.00292969 -709.148804
v 199.069 143.448456 -708.044312
v 207.70578 118.254402 -700.155884
v 215.518158 90.4408417 -695.02002
v 221.84726 59.724865 -692.562988
v 226.339569 26.4807434 -692.762329
v 228.705109 -8.05696487 -696.174683
v 2.80737305 57.4805336 -708.834229
v 19.3298645 82.1865845 -699.950806
v -17.9411011 90.1934509 -715.995361
v 38.8081665 107.511559 -691.920044
v -0.0846252441 117.355827 -706.140259
v -34.7864685 122.044441 -727.876465
v 63.0881042 130.329681 -686.33313
v 22.6361084 142.423798 -698.776123
v -12.8363342 149.055847 -718.384155
v -44.6804199 152.091797 -745.517578
v 92.8442078 148.146423 -685.095581
v 52.0073547 162.790894 -695.380249
v 15.7806702 171.951019 -712.909546
v -16.5141296 177.209595 -737.604004
v -44.815918 179.175262 -768.904541
v 126.506256 159.543274 -690.075317
v 87.5148621 177.004059 -697.386963
v 51.6495056 189.149536 -712.358032
v 18.9527588 197.114441 -734.831299
v -9.73062134 201.42868 -763.709351
v -34.1151123 201.551208 -797.047852
v 160.479767 165.022064 -701.687622
v 126.500336 184.869873 -706.133667
v 93.2228699 200.291687 -717.804443
v 61.4085388 211.345734 -737.6073
v 32.0583496 218.250336 -764.263794
v 6.54769897 220.746429 -795.599854
v -14.5949402 218.633148 -828.576294
v 35.5447388 40.3432846 -699.405273
v 69.6878967 25.0150833 -692.5625
v 56.1510315 67.1884613 -690.977539
v 104.365997 10.9052238 -687.961426
v 93.1133728 53.3602715 -685.078613
v 78.9770203 92.8493805 -684.112915
v 138.876984 -2.61692238 -685.892212
v 129.668243 39.6276627 -681.680786
v 118.325592 78.5677185 -680.211548
v 105.568085 114.57032 -680.441284
v 172.169586 -16.0937843 -687.187866
v 165.378326 24.9915352 -681.492798
v 156.431488 63.3006096 -679.532715
v 146.469757 98.4566879 -679.572388
v 136.006134 130.324249 -682.263916
v 202.545258 -29.4887161 -692.988159
v 199.08963 8.91106606 -685.760498
v 192.957428 45.9958801 -683.054443
v 185.498993 80.4353638 -683.080444
v 177.129364 111.591972 -685.552612
v 168.447418 139.483154 -691.289795
v 7.9095459 23.7641373 -710.843262
v 14.6949768 -7.51035309 -712.76123
v 43.5593872 2.86861038 -701.696899
v 23.0681763 -36.4119797 -715.458984
v 52.2745667 -30.5845146 -704.454102
v 78.8105774 -14.5944748 -696.014526
v 32.4732056 -63.4730606 -719.665649
v 61.7347717 -60.5824966 -708.874268
v 88.2088928 -49.04245 -700.620728
v 113.561676 -29.6494408 -693.201538
v 41.9747925 -89.1992416 -726.071899
v 71.3746033 -87.9581985 -715.80603
v 98.0445251 -79.5425186 -707.682617
v 123.15683 -64.4331436 -700.500977
v 147.712311 -43.1448288 -693.519531
v 50.8871155 -112.231194 -736.255859
v 80.6737976 -112.504219 -726.851562
v 108.132294 -106.458839 -719.177124
v 133.480865 -94.7960434 -711.79248
v 157.450775 -77.7533951 -704.671631
v 180.490814 -55.6382675 -697.963989
v -25.0892639 56.2817039 -722.72937
v -49.9798584 59.2068901 -739.013062
v -20.786438 23.2324352 -724.702271
v -70.4223328 64.6692963 -757.116211
v -45.1052551 27.6324844 -739.995972
v -13.9789124 -6.23850632 -726.691528
v -84.9704895 70.0215607 -777.18103
v -64.2331238 33.9125748 -757.026001
v -37.2491455 -0.868968964 -741.755615
v -5.08856201 -33.7931137 -729.422852
v -93.5123291 73.1494141 -799.421753
v -77.7814026 39.3614616 -776.825562
v -55.1724548 5.32257271 -759.073364
v -27.3502808 -28.5824165 -744.885498
v 4.97598267 -60.8452072 -733.664185
v -97.192688 73.0079193 -823.540649
v -85.9633179 41.9499512 -800.143555
v -68.0498352 9.77626419 -780.326294
v -44.440155 -23.62677 -763.782715
v -16.5135803 -56.9074707 -750.47229
v 15.2052002 -87.5488968 -740.719482
v -47.2015686 91.2858276 -735.523071
v -62.7311401 123.94706 -753.259644
v -70.6473999 95.3599014 -756.860596
v -68.9485168 153.712769 -775.717163
v -82.2359009 127.377403 -779.199585
v -87.1308594 100.078407 -779.42749
v -64.0167847 179.65274 -802.629883
v -83.0047607 155.620941 -805.579834
v -93.2709961 130.289276 -805.855103
v -96.4800415 103.301353 -803.442139
v -48.0219727 200.759796 -833.452515
v -72.3067627 179.79538 -835.968628
v -88.2027588 156.442535 -836.167358
v -96.9796448 131.124054 -833.697632
v -99.7561035 103.598061 -828.963257
g 
f 3 1 2
f 5 2 4
f 6 3 5
f 8 4 7
f 9 5 8
f 10 6 9
f 12 7 11
f 13 8 12
f 14 9 13
f 15 10 14
f 17 11 16
f 18 12 17
f 19 13 18
f 20 14 19
f 21 15 20
f 23 16 22
f 24 17 23
f 25 18 24
f 26 19 25
f 27 20 26
f 28 21 27
f 30 22 29
f 31 23 30
f 32 24 31
f 33 25 32
f 34 26 33
f 35 27 34
f 36 28 35
f 3 2 5
f 5 4 8
f 6 5 9
f 8 7 12
f 9 8 13
f 10 9 14
f 12 11 17
f 13 12 18
f 14 13 19
f 15 14 20
f 17 16 23
f 18 17 24
f 19 18 25
f 20 19 26
f 21 20 27
f 23 22 30
f 24 23 31
f 25 24 32
f 26 25 33
f 27 26 34
f 28 27 35
f 37 1 3
f 38 3 6
f 39 37 38
f 40 6 10
f 41 38 40
f 42 39 41
f 43 10 15
f 44 40 43
f 45 41 44
f 46 42 45
f 47 15 21
f 48 43 47
f 49 44 48
f 50 45 49
f 51 46 50
f 52 21 28
f 53 47 52
f 54 48 53
f 55 49 54
f 56 50 55
f 57 51 56
f 58 28 36
f 59 52 58
f 60 53 59
f 61 54 60
f 62 55 61
f 63 56 62
f 64 57 63
f 37 3 38
f 38 6 40
f 39 38 41
f 40 10 43
f 41 40 44
f 42 41 45
f 43 15 47
f 44 43 48
f 45 44 49
f 46 45 50
f 47 21 52
f 48 47 53
f 49 48 54
f 50 49 55
f 51 50 56
f 52 28 58
f 53 52 59
f 54 53 60
f 55 54 61
f 56 55 62
f 57 56 63
f 65 1 37
f 66 37 39
f 67 65 66
f 68 39 42
f 69 66 68
f 70 67 69
f 71 42 46
f 72 68 71
f 73 69 72
f 74 70 73
f 75 46 51
f 76 71 75
f 77 72 76
f 78 73 77
f 79 74 78
f 80 51 57
f 81 75 80
f 82 76 81
f 83 77 82
f 84 78 83
f 85 79 84
f 86 57 64
f 87 80 86
f 88 81 87
f 89 82 88
f 90 83 89
f 91 84 90
f 92 85 91
f 65 37 66
f 66 39 68
f 67 66 69
f 68 42 71
f 69 68 72
f 70 69 73
f 71 46 75
f 72 71 76
f 73 72 77
f 74 73 78
f 75 51 80
f 76 75 81
f 77 76 82
f 78 77 83
f 79 78 84
f 80 57 86
f 81 80 87
f 82 81 88
f 83 82 89
f 84 83 90
f 85 84 91
f 93 1 65
f 94 65 67
f 95 93 94
f 96 67 70
f 97 94 96
f 98 95 97
f 99 70 74
f 100 96 99
f 101 97 100
f 102 98 101
f 103 74 79
f 104 99 103
f 105 100 104
f 106 101 105
f 107 102 106
f 108 79 85
f 109 103 108
f 110 104 109
f 111 105 110
f 112 106 111
f 113 107 112
f 114 85 92
f 115 108 114
f 116 109 115
f 117 110 116
f 118 111 117
f 119 112 118
f 120 113 119
f 93 65 94
f 94 67 96
f 95 94 97
f 96 70 99
f 97 96 100
f 98 97 101
f 99 74 103
f 100 99 104
f 101 100 105
f 102 101 106
f 103 79 108
f 104 103 109
f 105 104 110
f 106 105 111
f 107 106 112
f 108 85 114
f 109 108 115
f 110 109 116
f 111 110 117
f 112 111 118
f 113 112 119
f 2 1 93
f 121 93 95
f 4 2 121
f 122 95 98
f 123 121 122
f 7 4 123
f 124 98 102
f 125 122 124
f 126 123 125
f 11 7 126
f 127 102 107
f 128 124 127
f 129 125 128
f 130 126 129
f 16 11 130
f 131 107 113
f 132 127 131
f 133 128 132
f 134 129 133
f 135 130 134
f 22 16 135
f 136 113 120
f 137 131 136
f 138 132 137
f 139 133 138
f 140 134 139
f 141 135 140
f 29 22 141
f 2 93 121
f 121 95 122
f 4 121 123
f 122 98 124
f 123 122 125
f 7 123 126
f 124 102 127
f 125 124 128
f 126 125 129
f 11 126 130
f 127 107 131
f 128 127 132
f 129 128 133
f 130 129 134
f 16 130 135
f 131 113 136
f 132 131 137
f 133 132 138
f 134 133 139
f 135 134 140
f 22 135 141
f 142 29 141
f 143 141 140
f 144 142 143
f 145 140 139
f 146 143 145
f 147 144 146
f 148 139 138
f 149 145 148
f 150 146 149
f 151 147 150
f 152 138 137
f 153 148 152
f 154 149 153
f 155 150 154
f 156 151 155
f 157 137 136
f 158 152 157
f 159 153 158
f 160 154 159
f 161 155 160
f 162 156 161
f 163 136 120
f 164 157 163
f 165 158 164
f 166 159 165
f 167 160 166
f 168 161 167
f 169 162 168
f 142 141 143
f 143 140 145
f 144 143 146
f 145 139 148
f 146 145 149
f 147 146 150
f 148 138 152
f 149 148 153
f 150 149 154
f 151 150 155
f 152 137 157
f 153 152 158
f 154 153 159
f 155 154 160
f 156 155 161
f 157 136 163
f 158 157 164
f 159 158 165
f 160 159 166
f 161 160 167
f 162 161 168
f 170 120 119
f 171 119 118
f 172 170 171
f 173 118 117
f 174 171 173
f 175 172 174
f 176 117 116
f 177 173 176
f 178 174 177
f 179 175 178
f 180 116 115
f 181 176 180
f 182 177 181
f 183 178 182
f 184 179 183
f 185 115 114
f 186 180 185
f 187 181 186
f 188 182 187
f 189 183 188
f 190 184 189
f 191 114 92
f 192 185 191
f 193 186 192
f 194 187 193
f 195 188 194
f 196 189 195
f 197 190 196
f 170 119 171
f 171 118 173
f 172 171 174
f 173 117 176
f 174 173 177
f 175 174 178
f 176 116 180
f 177 176 181
f 178 177 182
f 179 178 183
f 180 115 185
f 181 180 186
f 182 181 187
f 183 182 188
f 184 183 189
f 185 114 191
f 186 185 192
f 187 186 193
f 188 187 194
f 189 188 195
f 190 189 196
f 198 92 91
f 199 91 90
f 200 198 199
f 201 90 89
f 202 199 201
f 203 200 202
f 204 89 88
f 205 201 204
f 206 202 205
f 207 203 206
f 208 88 87
f 209 204 208
f 210 205 209
f 211 206 210
f 212 207 211
f 213 87 86
f 214 208 213
f 215 209 214
f 216 210 215
f 217 211 216
f 218 212 217
f 219 86 64
f 220 213 219
f 221 214 220
f 222 215 221
f 223 216 222
f 224 217 223
f 225 218 224
f 198 91 199
f 199 90 201
f 200 199 202
f 201 89 204
f 202 201 205
f 203 202 206
f 204 88 208
f 205 204 209
f 206 205 210
f 207 206 211
f 208 87 213
f 209 208 214
f 210 209 215
f 211 210 216
f 212 211 217
f 213 86 219
f 214 213 220
f 215 214 221
f 216 215 222
f 217 216 223
f 218 217 224
f 226 64 63
f 227 63 62
f 228 226 227
f 229 62 61
f 230 227 229
f 231 228 230
f 232 61 60
f 233 229 232
f 234 230 233
f 235 231 234
f 236 60 59
f 237 232 236
f 238 233 237
f 239 234 238
f 240 235 239
f 241 59 58
f 242 236 241
f 243 237 242
f 244 238 243
f 245 239 244
f 246 240 245
f 247 58 36
f 248 241 247
f 249 242 248
f 250 243 249
f 251 244 250
f 252 245 251
f 253 246 252
f 226 63 227
f 227 62 229
f 228 227 230
f 229 61 232
f 230 229 233
f 231 230 234
f 232 60 236
f 233 232 237
f 234 233 238
f 235 234 239
f 236 59 241
f 237 236 242
f 238 237 243
f 239 238 244
f 240 239 245
f 241 58 247
f 242 241 248
f 243 242 249
f 244 243 250
f 245 244 251
f 246 245 252
f 254 36 35
f 255 35 34
f 256 254 255
f 257 34 33
f 258 255 257
f 259 256 258
f 260 33 32
f 261 257 260
f 262 258 261
f 263 259 262
f 264 32 31
f 265 260 264
f 266 261 265
f 267 262 266
f 268 263 267
f 269 31 30
f 270 264 269
f 271 265 270
f 272 266 271
f 273 267 272
f 274 268 273
f 275 30 29
f 276 269 275
f 277 270 276
f 278 271 277
f 279 272 278
f 280 273 279
f 281 274 280
f 254 35 255
f 255 34 257
f 256 255 258
f 257 33 260
f 258 257 261
f 259 258 262
f 260 32 264
f 261 260 265
f 262 261 266
f 263 262 267
f 264 31 269
f 265 264 270
f 266 265 271
f 267 266 272
f 268 267 273
f 269 30 275
f 270 269 276
f 271 270 277
f 272 271 278
f 273 272 279
f 274 273 280
f 275 29 142
f 282 142 144
f 276 275 282
f 283 144 147
f 284 282 283
f 277 276 284
f 285 147 151
f 286 283 285
f 287 284 286
f 278 277 287
f 288 151 156
f 289 285 288
f 290 286 289
f 291 287 290
f 279 278 291
f 292 156 162
f 293 288 292
f 294 289 293
f 295 290 294
f 296 291 295
f 280 279 296
f 297 162 169
f 298 292 297
f 299 293 298
f 300 294 299
f 301 295 300
f 302 296 301
f 281 280 302
f 275 142 282
f 282 144 283
f 276 282 284
f 283 147 285
f 284 283 286
f 277 284 287
f 285 151 288
f 286 285 289
f 287 286 290
f 278 287 291
f 288 156 292
f 289 288 293
f 290 289 294
f 291 290 295
f 279 291 296
f 292 162 297
f 293 292 298
f 294 293 299
f 295 294 300
f 296 295 301
f 280 296 302
f 163 120 170
f 303 170 172
f 164 163 303
f 304 172 175
f 305 303 304
f 165 164 305
f 306 175 179
f 307 304 306
f 308 305 307
f 166 165 308
f 309 179 184
f 310 306 309
f 311 307 310
f 312 308 311
f 167 166 312
f 313 184 190
f 314 309 313
f 315 310 314
f 316 311 315
f 317 312 316
f 168 167 317
f 318 190 197
f 319 313 318
f 320 314 319
f 321 315 320
f 322 316 321
f 323 317 322
f 169 168 323
f 163 170 303
f 303 172 304
f 164 303 305
f 304 175 306
f 305 304 307
f 165 305 308
f 306 179 309
f 307 306 310
f 308 307 311
f 166 308 312
f 309 184 313
f 310 309 314
f 311 310 315
f 312 311 316
f 167 312 317
f 313 190 318
f 314 313 319
f 315 314 320
f 316 315 321
f 317 316 322
f 168 317 323
f 191 92 198
f 324 198 200
f 192 191 324
f 325 200 203
f 326 324 325
f 193 192 326
f 327 203 207
f 328 325 327
f 329 326 328
f 194 193 329
f 330 207 212
f 331 327 330
f 332 328 331
f 333 329 332
f 195 194 333
f 334 212 218
f 335 330 334
f 336 331 335
f 337 332 336
f 338 333 337
f 196 195 338
f 339 218 225
f 340 334 339
f 341 335 340
f 342 336 341
f 343 337 342
f 344 338 343
f 197 196 344
f 191 198 324
f 324 200 325
f 192 324 326
f 325 203 327
f 326 325 328
f 193 326 329
f 327 207 330
f 328 327 331
f 329 328 332
f 194 329 333
f 330 212 334
f 331 330 335
f 332 331 336
f 333 332 337
f 195 333 338
f 334 218 339
f 335 334 340
f 336 335 341
f 337 336 342
f 338 337 343
f 196 338 344
f 219 64 226
f 345 226 228
f 220 219 345
f 346 228 231
f 347 345 346
f 221 220 347
f 348 231 235
f 349 346 348
f 350 347 349
f 222 221 350
f 351 235 240
f 352 348 351
f 353 349 352
f 354 350 353
f 223 222 354
f 355 240 246
f 356 351 355
f 357 352 356
f 358 353 357
f 359 354 358
f 224 223 359
f 360 246 253
f 361 355 360
f 362 356 361
f 363 357 362
f 364 358 363
f 365 359 364
f 225 224 365
f 219 226 345
f 345 228 346
f 220 345 347
f 346 231 348
f 347 346 349
f 221 347 350
f 348 235 351
f 349 348 352
f 350 349 353
f 222 350 354
f 351 240 355
f 352 351 356
f 353 352 357
f 354 353 358
f 223 354 359
f 355 246 360
f 356 355 361
f 357 356 362
f 358 357 363
f 359 358 364
f 224 359 365
f 247 36 254
f 366 254 256
f 248 247 366
f 367 256 259
f 368 366 367
f 249 248 368
f 369 259 263
f 370 367 369
f 371 368 370
f 250 249 371
f 372 263 268
f 373 369 372
f 374 370 373
f 375 371 374
f 251 250 375
f 376 268 274
f 377 372 376
f 378 373 377
f 379 374 378
f 380 375 379
f 252 251 380
f 381 274 281
f 382 376 381
f 383 377 382
f 384 378 383
f 385 379 384
f 386 380 385
f 253 252 386
f 247 254 366
f 366 256 367
f 248 366 368
f 367 259 369
f 368 367 370
f 249 368 371
f 369 263 372
f 370 369 373
f 371 370 374
f 250 371 375
f 372 268 376
f 373 372 377
f 374 373 378
f 375 374 379
f 251 375 380
f 376 274 381
f 377 376 382
f 378 377 383
f 379 378 384
f 380 379 385
f 252 380 386
f 389 387 388
f 391 388 390
f 392 389 391
f 394 390 393
f 395 391 394
f 396 392 395
f 398 393 397
f 399 394 398
f 400 395 399
f 401 396 400
f 403 397 402
f 404 398 403
f 405 399 404
f 406 400 405
f 407 401 406
f 409 402 408
f 410 403 409
f 411 404 410
f 412 405 411
f 413 406 412
f 414 407 413
f 302 408 281
f 301 409 302
f 300 410 301
f 299 411 300
f 298 412 299
f 297 413 298
f 169 414 297
f 389 388 391
f 391 390 394
f 392 391 395
f 394 393 398
f 395 394 399
f 396 395 400
f 398 397 403
f 399 398 404
f 400 399 405
f 401 400 406
f 403 402 409
f 404 403 410
f 405 404 411
f 406 405 412
f 407 406 413
f 409 408 302
f 410 409 301
f 411 410 300
f 412 411 299
f 413 412 298
f 414 413 297
f 388 387 415
f 417 415 416
f 390 388 417
f 419 416 418
f 420 417 419
f 393 390 420
f 422 418 421
f 423 419 422
f 424 420 423
f 397 393 424
f 426 421 425
f 427 422 426
f 428 423 427
f 429 424 428
f 402 397 429
f 431 425 430
f 432 426 431
f 433 427 432
f 434 428 433
f 435 429 434
f 408 402 435
f 386 430 253
f 385 431 386
f 384 432 385
f 383 433 384
f 382 434 383
f 381 435 382
f 281 408 381
f 388 415 417
f 417 416 419
f 390 417 420
f 419 418 422
f 420 419 423
f 393 420 424
f 422 421 426
f 423 422 427
f 424 423 428
f 397 424 429
f 426 425 431
f 427 426 432
f 428 427 433
f 429 428 434
f 402 429 435
f 431 430 386
f 432 431 385
f 433 432 384
f 434 433 383
f 435 434 382
f 408 435 381
f 415 387 436
f 438 436 437
f 416 415 438
f 440 437 439
f 441 438 440
f 418 416 441
f 443 439 442
f 444 440 443
f 445 441 444
f 421 418 445
f 447 442 446
f 448 443 447
f 449 444 448
f 450 445 449
f 425 421 450
f 452 446 451
f 453 447 452
f 454 448 453
f 455 449 454
f 456 450 455
f 430 425 456
f 365 451 225
f 364 452 365
f 363 453 364
f 362 454 363
f 361 455 362
f 360 456 361
f 253 430 360
f 415 436 438
f 438 437 440
f 416 438 441
f 440 439 443
f 441 440 444
f 418 441 445
f 443 442 447
f 444 443 448
f 445 444 449
f 421 445 450
f 447 446 452
f 448 447 453
f 449 448 454
f 450 449 455
f 425 450 456
f 452 451 365
f 453 452 364
f 454 453 363
f 455 454 362
f 456 455 361
f 430 456 360
f 436 387 457
f 459 457 458
f 437 436 459
f 461 458 460
f 462 459 461
f 439 437 462
f 464 460 463
f 465 461 464
f 466 462 465
f 442 439 466
f 468 463 467
f 469 464 468
f 470 465 469
f 471 466 470
f 446 442 471
f 473 467 472
f 474 468 473
f 475 469 474
f 476 470 475
f 477 471 476
f 451 446 477
f 344 472 197
f 343 473 344
f 342 474 343
f 341 475 342
f 340 476 341
f 339 477 340
f 225 451 339
f 436 457 459
f 459 458 461
f 437 459 462
f 461 460 464
f 462 461 465
f 439 462 466
f 464 463 468
f 465 464 469
f 466 465 470
f 442 466 471
f 468 467 473
f 469 468 474
f 470 469 475
f 471 470 476
f 446 471 477
f 473 472 344
f 474 473 343
f 475 474 342
f 476 475 341
f 477 476 340
f 451 477 339
f 457 387 389
f 478 389 392
f 458 457 478
f 479 392 396
f 480 478 479
f 460 458 480
f 481 396 401
f 482 479 481
f 483 480 482
f 463 460 483
f 484 401 407
f 485 481 484
f 486 482 485
f 487 483 486
f 467 463 487
f 488 407 414
f 489 484 488
f 490 485 489
f 491 486 490
f 492 487 491
f 472 467 492
f 323 414 169
f 322 488 323
f 321 489 322
f 320 490 321
f 319 491 320
f 318 492 319
f 197 472 318
f 457 389 478
f 478 392 479
f 458 478 480
f 479 396 481
f 480 479 482
f 460 480 483
f 481 401 484
f 482 481 485
f 483 482 486
f 463 483 487
f 484 407 488
f 485 484 489
f 486 485 490
f 487 486 491
f 467 487 492
f 488 414 323
f 489 488 322
f 490 489 321
f 491 490 320
f 492 491 319
f 472 492 318
