# File exported by Houdini 20.5.445 (www.sidefx.com)
# 492 points
# 2940 vertices
# 980 primitives
# Bounds: [-101.944427, -120.386475, -1184.96387] to [272.718323, 236.76358, -569.837158]
g 
v 116.273743 164.351639 -1178.19849
v 118.478058 187.545227 -1168.02271
v 156.426788 169.289093 -1176.92798
v 122.462189 207.075607 -1153.52734
v 161.88089 193.575394 -1162.48462
v 194.434021 171.941116 -1167.27319
v 127.176605 221.877808 -1135.39771
v 166.643799 212.937744 -1144.57251
v 199.969971 196.908417 -1149.18823
v 226.842407 170.874573 -1149.83179
v 130.535767 230.992294 -1112.78027
v 169.271362 226.737274 -1123.05884
v 202.426086 215.409912 -1127.8479
v 230.242371 195.449387 -1128.57178
v 251.227112 164.281342 -1124.97559
v 131.01474 234.241852 -1084.29639
v 167.637268 234.417572 -1096.00708
v 200.38269 227.507675 -1102.00977
v 228.531616 212.209198 -1103.27307
v 251.184021 187.329605 -1100.5144
v 266.57135 151.462448 -1093.67297
v 129.823578 233.017746 -1049.65039
v 161.502869 236.76358 -1062.07141
v 192.266418 233.860153 -1069.51196
v 220.499695 222.539276 -1072.29077
v 244.360229 202.018967 -1070.88013
v 262.242188 172.359741 -1065.97949
v 272.360474 134.083801 -1057.40234
v 126.417053 228.432083 -1009.47052
v 152.551727 234.388657 -1020.1156
v 179.373352 234.378235 -1027.6499
v 205.722595 226.284348 -1031.89893
v 229.692566 209.247101 -1032.80005
v 249.093201 183.787476 -1030.41309
v 262.26178 151.562012 -1025.2749
v 268.407654 114.755753 -1017.60645
v 139.411346 142.083389 -1184.96387
v 180.911072 144.252533 -1180.76831
v 160.292603 117.200943 -1184.84131
v 216.39856 142.545929 -1166.41211
v 199.32666 115.541702 -1175.99829
v 177.32074 89.2462311 -1175.27734
v 243.934509 135.969376 -1143.521
v 229.840759 108.684433 -1156.1748
v 211.274231 82.7322998 -1161.28906
v 190.625732 57.9991188 -1155.06567
v 262.883606 123.93187 -1113.4751
v 251.815857 96.7031708 -1127.97266
v 235.951843 70.6747742 -1136.30444
v 218.539795 46.323494 -1136.07617
v 201.169495 24.1696701 -1124.65088
v 272.718323 107.199203 -1076.6814
v 265.272339 80.3901367 -1092.21533
v 252.385864 54.2682037 -1102.39185
v 237.41626 29.7581081 -1105.65564
v 223.379822 7.8144207 -1100.08521
v 209.503601 -10.5517426 -1084.97363
v 272.590393 87.9660034 -1033.57483
v 269.511353 61.0214729 -1048.03662
v 260.600586 34.7538948 -1059.04663
v 248.603943 9.86523438 -1064.46216
v 237.242737 -12.4600906 -1062.60107
v 227.028137 -30.6783524 -1053.1582
v 215.747131 -43.8815613 -1037.44678
v 92.4336548 144.225357 -1176.20581
v 116.302277 118.459946 -1180.43262
v 72.7154236 121.507706 -1164.23096
v 137.716766 92.0287628 -1175.62378
v 97.6502991 93.773407 -1164.19385
v 56.9692383 96.9473877 -1142.73169
v 156.358521 64.1689529 -1160.05957
v 119.977203 67.1849976 -1153.79688
v 82.0575256 69.0155182 -1138.17505
v 43.2549133 72.5609894 -1113.98633
v 172.362244 33.842392 -1133.90405
v 139.729645 39.9364929 -1132.88306
v 104.506744 42.9598389 -1122.95776
v 68.0055237 45.0894051 -1105.28247
v 31.3509827 49.1278648 -1080.43652
v 185.90387 0.911659241 -1097.09192
v 157.376556 9.96956062 -1101.12915
v 125.129791 15.4637699 -1097.13062
v 90.6940308 18.4320679 -1085.65137
v 55.7868958 21.2378654 -1067.66699
v 21.9124756 26.2326126 -1044.36694
v 197.336792 -33.8789558 -1049.07446
v 173.360352 -23.737999 -1056.42358
v 144.544922 -16.010006 -1058.21899
v 112.347534 -11.189724 -1053.6947
v 78.7315979 -7.77108002 -1042.92944
v 45.8309631 -3.44664001 -1026.89172
v 15.253479 3.30679131 -1007.54895
v 77.6836853 173.134598 -1167.19214
v 52.4898682 151.554214 -1158.94873
v 41.9528809 180.587692 -1150.19629
v 34.1947021 127.196304 -1140.57739
v 18.3032227 157.197922 -1135.8103
v 10.2949219 185.429535 -1127.75464
v 20.1297302 101.735352 -1114.2998
v 2.21463013 131.177414 -1112.34583
v -11.031189 159.862335 -1108.4082
v -17.6541138 185.470261 -1100.87427
v 7.95623779 76.7306671 -1082.6604
v -10.7501221 104.830261 -1082.65771
v -26.0084839 132.542175 -1081.31104
v -37.4021301 158.374878 -1077.75122
v -42.1378174 180.212753 -1070.39978
v -2.20166016 51.9262543 -1047.2854
v -22.0919189 78.4068756 -1048.29529
v -38.729248 104.941772 -1048.43042
v -52.2463684 130.363205 -1047.08313
v -61.0976868 153.181625 -1043.46704
v -61.4217224 171.622971 -1036.20215
v -9.37237549 26.3783188 -1009.25671
v -31.0883179 50.8569145 -1009.83734
v -49.6903381 76.158493 -1010.05127
v -64.8459473 101.388672 -1009.32153
v -75.415802 125.247284 -1007.37598
v -79.3474731 146.273712 -1003.98505
v -74.6479797 163.236694 -998.552612
v 78.0729675 196.902664 -1155.76855
v 42.2285461 203.526627 -1137.68213
v 81.8554688 214.367142 -1139.86426
v 10.7172241 205.701965 -1114.21582
v 46.5046387 217.62735 -1120.06689
v 87.236969 225.196793 -1119.77808
v -16.9778442 201.778091 -1086.00439
v 15.5982666 215.489822 -1094.59033
v 52.9927063 223.852722 -1097.34961
v 92.3184814 229.628738 -1094.31641
v -39.396637 192.801086 -1052.9563
v -9.89663696 207.75975 -1063.3811
v 24.8925781 217.52626 -1068.27429
v 61.6688843 224.009415 -1067.94531
v 97.4082642 228.89444 -1062.01611
v -55.0628967 181.381042 -1014.28302
v -28.296936 195.760391 -1025.47729
v 3.99746704 206.307297 -1031.69873
v 38.6061401 213.759399 -1033.15894
v 71.9981079 219.328079 -1029.93591
v 101.616028 223.889984 -1021.81818
v 107.793365 217.646118 -974.360352
v 83.092804 211.531815 -985.658813
v 88.8988342 203.149551 -937.885254
v 53.9036255 205.968079 -992.593567
v 64.7293396 196.013718 -949.637512
v 68.2790833 185.563721 -901.523621
v 21.1842346 199.480972 -994.556091
v 36.0238342 189.83197 -956.178955
v 43.9831543 178.242004 -913.772705
v 44.8464355 167.453735 -865.386169
v -12.6823425 191.355209 -991.620605
v 3.68170166 183.298279 -956.750671
v 15.0711365 172.51181 -918.963684
v 19.4433289 160.958237 -876.414978
v 18.3279724 151.921524 -828.659058
v -44.5448914 180.511459 -983.170349
v -30.2104492 175.527588 -950.910461
v -17.9042358 166.804337 -916.464722
v -11.0333557 155.905823 -878.606812
v -9.32348633 145.83873 -836.62439
v -10.7206116 138.821213 -791.31311
v -71.1123352 165.309845 -969.190796
v -62.282959 163.902496 -938.303589
v -52.5959778 158.380798 -905.820862
v -45.4782104 149.593292 -871.154724
v -41.5842896 139.974457 -833.597168
v -40.0145874 131.943481 -793.729797
v -38.8381348 126.024994 -753.384399
v -88.3555298 145.12561 -961.914551
v -91.0104828 123.723053 -965.070496
v -97.5729828 125.731445 -924.099976
v -84.5326538 99.0868988 -967.760193
v -96.172226 100.364334 -927.863586
v -101.614197 104.048492 -887.523621
v -71.4896851 72.8707886 -970.180847
v -85.8482666 72.8233795 -931.892639
v -94.8648682 75.6243439 -893.60321
v -99.6768341 80.2912445 -853.609619
v -53.4561768 46.3855629 -971.706177
v -69.1775208 44.5752869 -935.370361
v -79.9395752 45.8182678 -899.200317
v -87.1147766 49.4295959 -862.061707
v -91.6684113 54.5224113 -822.677856
v -31.0811462 20.3674126 -972.371643
v -47.3190613 16.4228535 -937.222778
v -58.9202576 15.5003195 -902.739502
v -67.2294617 17.4899979 -867.877563
v -73.5144653 21.7350807 -831.756897
v -78.6435852 27.6153698 -793.518616
v -4.42404175 -5.12344742 -972.663696
v -20.2906494 -11.6931381 -938.200745
v -32.178772 -15.4443588 -903.869263
v -41.189209 -15.6109734 -869.702209
v -48.5798035 -12.5292358 -835.304138
v -55.5004272 -6.83241272 -800.314697
v -62.2977295 0.72984314 -764.622925
v 29.7037964 -24.2860298 -982.340454
v 64.038208 -31.9675941 -998.091492
v 46.2715149 -50.6557922 -954.367126
v 98.7676392 -36.9154205 -1008.05945
v 82.5179138 -58.1699219 -965.003845
v 63.3898926 -74.5776367 -921.143066
v 132.243561 -41.6886597 -1011.61749
v 117.431274 -63.4427948 -967.879639
v 99.5507507 -81.3663025 -925.257751
v 79.6760254 -94.4953613 -880.758179
v 162.901672 -48.4924164 -1009.29773
v 149.796753 -69.2113495 -964.000854
v 133.478699 -86.0734711 -920.329102
v 114.687866 -99.3957214 -877.150269
v 94.4490662 -108.320541 -832.782715
v 189.386475 -57.8584213 -1002.33447
v 178.615967 -76.964035 -955.199158
v 164.367218 -91.5546722 -908.86908
v 147.070831 -102.926483 -864.301025
v 127.957367 -111.546829 -821.396973
v 107.444946 -116.429947 -779.639832
v 210.57959 -67.811142 -992.286438
v 202.833862 -86.0981598 -943.671387
v 191.314758 -98.7759094 -894.14093
v 176.351379 -107.556061 -846.103821
v 158.905396 -114.069778 -801.655334
v 139.590302 -118.415619 -761.610779
v 118.866211 -120.094727 -726.071106
v 226.016174 -66.4767914 -996.032288
v 235.372742 -51.4418411 -1010.47351
v 231.501221 -81.6596832 -952.533875
v 243.534729 -30.9585686 -1018.01721
v 238.71814 -63.5492706 -967.328003
v 233.167358 -88.0684662 -909.293762
v 252.450989 -6.85375977 -1017.7146
v 244.934509 -40.7026901 -973.704651
v 238.62793 -67.3729706 -924.623474
v 233.05249 -86.9496918 -868.020081
v 260.580139 19.6080933 -1010.58368
v 250.746582 -15.0196953 -971.472839
v 242.864746 -43.2099915 -929.493652
v 237.034119 -64.806015 -882.641296
v 232.020325 -80.1072388 -829.096924
v 264.420227 48.4510841 -999.228027
v 253.594788 13.6605206 -963.200439
v 244.430298 -15.8795547 -925.716125
v 238.017456 -39.3157654 -885.871521
v 233.240173 -56.3797302 -841.895203
v 228.742188 -68.5948334 -792.87561
v 261.641235 79.4871826 -985.623779
v 251.078003 46.0762024 -951.742676
v 240.777771 16.1272163 -916.767334
v 233.105225 -8.7240715 -880.937256
v 228.266479 -27.8312836 -843.287292
v 225.139709 -42.0861664 -803.026855
v 221.749207 -53.5501099 -760.312561
v 254.65332 118.627274 -981.579102
v 245.220764 155.796768 -986.837524
v 235.436035 121.896591 -945.015747
v 229.738708 186.755005 -989.456909
v 223.23114 158.214233 -948.315063
v 211.9729 124.97113 -908.125916
v 209.250122 210.071457 -989.091858
v 206.000305 187.172913 -948.3927
v 197.443787 159.474945 -909.305847
v 185.307678 127.8255 -870.78717
v 185.3255 224.550079 -985.832642
v 184.687866 207.918457 -945.311951
v 178.721558 185.836044 -906.632324
v 168.837402 159.472473 -869.51593
v 156.74707 129.676498 -832.799927
v 159.68689 229.644608 -980.061462
v 160.593231 219.275513 -939.680847
v 156.430267 203.270447 -900.646851
v 148.469513 182.307968 -863.691162
v 138.437653 157.250443 -828.676147
v 127.953705 129.417679 -794.447632
v 133.588898 225.918198 -971.966125
v 134.86377 220.140305 -931.999939
v 131.399963 209.936295 -892.144836
v 124.583527 194.853546 -854.19342
v 116.194336 175.257462 -819.145508
v 107.419464 152.079086 -786.831116
v 100.241394 126.845947 -756.686279
v 111.142151 212.958374 -930.814697
v 88.6615601 196.263199 -890.858948
v 108.282776 206.023453 -887.602966
v 64.9098206 177.770142 -852.602112
v 82.7850952 188.789017 -846.142334
v 101.756012 195.780472 -846.474487
v 38.7644043 160.243378 -815.018616
v 56.4320679 170.649246 -806.563232
v 73.9728088 178.858032 -804.124756
v 93.3662415 181.287796 -808.179138
v 9.74893188 144.681473 -776.708252
v 27.8264465 152.864258 -766.707886
v 45.3664246 160.429199 -762.44519
v 63.9606018 164.073181 -764.476807
v 84.5264282 161.619278 -772.778442
v -20.8401794 129.474045 -737.453613
v -2.82141113 134.394974 -724.983459
v 15.2823486 139.876938 -718.777527
v 34.5048218 143.340637 -719.441589
v 55.1177673 142.689102 -726.562256
v 77.0509949 137.095566 -739.318848
v -86.2440796 147.505936 -927.621765
v -96.8642578 128.007706 -886.716492
v -80.6112976 145.604553 -893.519531
v -101.944427 106.268661 -848.079651
v -93.7223206 125.801407 -850.354431
v -75.0796204 139.781555 -858.866333
v -100.406479 81.9948273 -812.472839
v -99.9261932 103.899048 -809.504883
v -90.1763611 120.312592 -813.348511
v -70.7146606 131.776428 -822.285095
v -92.1359863 54.9358749 -779.480835
v -98.4066467 78.78302 -770.92572
v -96.7710266 98.1126556 -769.118469
v -86.5608521 112.63118 -773.599548
v -67.3777466 123.141266 -782.580383
v -77.9437256 25.6093388 -747.440857
v -88.9523621 49.7114601 -733.542786
v -94.0121155 71.381073 -725.342285
v -91.9312286 89.395401 -724.157593
v -81.7203674 103.805588 -729.951477
v -63.4754333 115.60524 -740.606384
v 11.3017273 -35.1414719 -944.0177
v 28.804718 -61.8057251 -912.99823
v -2.19631958 -42.3649521 -906.793091
v 46.2797852 -84.2807617 -876.877808
v 16.3053284 -67.9240875 -872.720642
v -12.3526917 -45.4589233 -870.114502
v 62.5749817 -101.402359 -833.72876
v 33.6984558 -88.2224579 -833.148376
v 6.27685547 -69.2974091 -832.77301
v -20.9706726 -44.2565002 -833.628113
v 77.3444824 -112.182999 -782.998535
v 49.2745972 -102.683365 -785.967102
v 22.5882874 -87.34021 -788.7099
v -3.5272522 -66.0735321 -792.406738
v -29.6411438 -39.0621033 -796.554382
v 90.776947 -117.609421 -726.944641
v 63.1949768 -111.039948 -730.457642
v 36.4424133 -99.3039551 -735.69989
v 10.5862427 -81.5600281 -742.545044
v -14.6922607 -58.1553192 -750.403137
v -39.3129272 -30.2203217 -757.873657
v 220.441833 -89.2785797 -942.185425
v 224.792114 -100.437897 -893.314697
v 211.62384 -103.253677 -887.220398
v 226.24646 -102.591492 -848.110596
v 215.434265 -110.154404 -835.368225
v 199.304199 -111.21283 -833.698914
v 226.674622 -97.767868 -807.197388
v 217.275085 -109.12793 -789.335938
v 203.125366 -114.841934 -780.200134
v 183.917786 -116.008789 -783.544556
v 225.466064 -87.5562286 -769.544373
v 217.518555 -101.74469 -748.27179
v 204.627869 -111.546936 -733.127197
v 186.962708 -117.019577 -728.756775
v 165.164917 -119.01535 -738.237793
v 220.830933 -73.0281525 -735.031006
v 214.784729 -89.4026031 -710.691101
v 203.061279 -102.508621 -690.935059
v 186.218323 -112.093094 -680.113586
v 165.578979 -117.901276 -682.141052
v 142.692719 -120.386475 -698.487244
v 244.651917 83.2185364 -945.421265
v 223.30426 87.5495148 -907.262756
v 232.78479 51.5889053 -909.660583
v 198.444763 92.8206329 -870.079224
v 210.652588 58.7870293 -871.101196
v 222.576294 24.9789867 -874.353455
v 171.164978 97.86586 -832.401917
v 185.937256 66.4239197 -833.409973
v 201.284973 34.8864288 -835.290771
v 216.226074 3.26958275 -838.370239
v 142.660797 101.165756 -793.230225
v 159.529266 72.6819 -794.082397
v 178.069458 43.9161224 -795.679932
v 196.84552 14.8510885 -797.551514
v 213.461243 -14.1095085 -799.844177
v 113.916321 102.21402 -752.55957
v 131.836151 76.3245544 -751.450195
v 153.159241 49.990139 -752.249084
v 175.6828 23.3516827 -753.769348
v 196.344116 -3.32979965 -755.433655
v 212.218018 -29.3145256 -757.387024
v 48.5083313 -35.1522293 -570.895508
v 56.3686829 -13.5478668 -579.806396
v 18.5091553 -11.0307922 -574.445679
v 62.0609131 10.328476 -595.801819
v 24.0500793 14.0653706 -584.919556
v -9.58447266 16.0727196 -584.308228
v 64.8053589 36.0191574 -618.417053
v 28.9445496 40.0296249 -603.057617
v -3.47244263 42.723526 -597.483521
v -32.9618835 44.2631836 -601.936829
v 66.8237915 62.0729218 -646.881165
v 33.9816895 66.6404266 -628.280273
v 4.34835815 69.0164032 -618.84259
v -23.1808167 70.3369293 -618.646301
v -48.6586914 71.2017822 -628.520996
v 72.0101013 86.4043884 -680.066895
v 42.1390076 92.4580994 -659.756592
v 15.2134094 95.0014038 -647.701111
v -9.58926392 95.3379822 -643.914978
v -32.9623718 94.8688049 -649.187927
v -54.7039185 94.4557343 -663.945007
v 83.069458 107.850754 -716.98999
v 56.2098999 116.010529 -696.864685
v 31.658783 119.711761 -683.564514
v 9.06567383 119.740952 -677.398193
v -11.9566345 117.418045 -678.970886
v -31.9041138 114.713882 -689.151672
v -50.8309021 112.588272 -706.487
v 84.3663635 -42.5723419 -576.895691
v 119.247131 -45.8202515 -590.513611
v 94.4969482 -18.8982315 -592.702942
v 150.835083 -46.4918213 -611.765503
v 128.803406 -20.6727257 -613.354431
v 99.5127258 6.17893982 -614.887085
v 177.156982 -46.6020203 -640.321167
v 157.754669 -20.940979 -640.883606
v 131.162415 4.74629593 -641.328857
v 99.6485596 32.1325493 -642.63501
v 197.359985 -47.6440887 -675.46405
v 180.864502 -21.747551 -674.421631
v 157.187775 3.79473114 -673.818054
v 128.743652 29.9213753 -673.602905
v 99.0225525 57.4131622 -675.015625
v 211.794983 -50.1539154 -715.950256
v 198.596802 -24.4507828 -713.336121
v 178.42572 1.4922905 -711.822754
v 153.446472 27.4838772 -710.537415
v 127.000336 53.8232918 -710.063599
v 102.593536 80.7414246 -711.615723
v 60.8704529 -59.3406219 -569.837158
v 71.802887 -79.6221008 -573.700928
v 99.3352661 -66.7676544 -575.290527
v 82.1689453 -96.0027008 -583.868164
v 111.155548 -86.2592926 -578.756287
v 134.764862 -69.4797211 -589.414185
v 92.6140442 -108.215714 -603.410522
v 121.032104 -101.450531 -590.180176
v 146.069672 -88.3691101 -594.773743
v 165.418884 -69.9456482 -612.568359
v 102.698059 -115.882248 -634.499207
v 129.627594 -112.043823 -612.91156
v 154.519043 -102.783905 -609.868896
v 175.33197 -88.593338 -621.841858
v 190.042053 -70.1268616 -644.858887
v 111.540649 -119.565018 -676.390015
v 136.826721 -118.032776 -649.20282
v 160.796783 -112.415802 -638.245972
v 181.931213 -102.579865 -643.040161
v 198.266602 -88.6723785 -660.262695
v 208.333191 -71.1227112 -685.875671
v 21.5700073 -39.3404541 -572.308228
v -2.76211548 -39.0119476 -585.628784
v 32.7593384 -63.8179626 -577.285034
v -22.6197815 -34.8157578 -610.322083
v 9.65945435 -63.0451355 -598.225708
v 43.7485962 -83.1911774 -588.582153
v -37.4049988 -28.0950356 -643.802795
v -7.8117981 -58.6355286 -629.87262
v 22.6416321 -81.7014008 -617.478394
v 55.5363159 -98.1564178 -607.387573
v -47.7334595 -19.9092903 -682.794312
v -20.4595032 -51.7350159 -668.99231
v 7.42678833 -77.0343933 -656.084961
v 36.5358887 -95.9472809 -644.461975
v 68.0231628 -108.876038 -636.170654
v -55.4881592 -10.1421204 -723.886169
v -30.171875 -42.4864044 -712.611206
v -4.1187439 -69.4688416 -701.127686
v 22.5426331 -90.7227936 -690.358887
v 50.4362183 -105.866196 -681.509644
v 80.0932922 -115.228622 -676.337158
v -9.63803101 -11.917984 -580.179382
v -36.4814148 17.4825325 -595.022705
v -33.0419922 -8.50877762 -598.025757
v -56.9788818 47.0356712 -618.047363
v -57.2821045 22.8875065 -617.315796
v -50.9113464 -1.93134689 -626.323242
v -69.1240234 74.3633728 -650.231079
v -74.408844 53.2957306 -644.875488
v -72.17099 30.8295307 -649.045227
v -63.2807007 6.52386093 -662.422974
v -71.4440918 97.4091492 -691.490601
v -83.1014404 80.6684875 -682.114197
v -86.315979 61.6868935 -680.787415
v -82.1387939 40.0629387 -688.392822
v -71.6063843 15.71523 -703.463806
g 
f 3 1 2
f 5 2 4
f 6 3 5
f 8 4 7
f 9 5 8
f 10 6 9
f 12 7 11
f 13 8 12
f 14 9 13
f 15 10 14
f 17 11 16
f 18 12 17
f 19 13 18
f 20 14 19
f 21 15 20
f 23 16 22
f 24 17 23
f 25 18 24
f 26 19 25
f 27 20 26
f 28 21 27
f 30 22 29
f 31 23 30
f 32 24 31
f 33 25 32
f 34 26 33
f 35 27 34
f 36 28 35
f 3 2 5
f 5 4 8
f 6 5 9
f 8 7 12
f 9 8 13
f 10 9 14
f 12 11 17
f 13 12 18
f 14 13 19
f 15 14 20
f 17 16 23
f 18 17 24
f 19 18 25
f 20 19 26
f 21 20 27
f 23 22 30
f 24 23 31
f 25 24 32
f 26 25 33
f 27 26 34
f 28 27 35
f 37 1 3
f 38 3 6
f 39 37 38
f 40 6 10
f 41 38 40
f 42 39 41
f 43 10 15
f 44 40 43
f 45 41 44
f 46 42 45
f 47 15 21
f 48 43 47
f 49 44 48
f 50 45 49
f 51 46 50
f 52 21 28
f 53 47 52
f 54 48 53
f 55 49 54
f 56 50 55
f 57 51 56
f 58 28 36
f 59 52 58
f 60 53 59
f 61 54 60
f 62 55 61
f 63 56 62
f 64 57 63
f 37 3 38
f 38 6 40
f 39 38 41
f 40 10 43
f 41 40 44
f 42 41 45
f 43 15 47
f 44 43 48
f 45 44 49
f 46 45 50
f 47 21 52
f 48 47 53
f 49 48 54
f 50 49 55
f 51 50 56
f 52 28 58
f 53 52 59
f 54 53 60
f 55 54 61
f 56 55 62
f 57 56 63
f 65 1 37
f 66 37 39
f 67 65 66
f 68 39 42
f 69 66 68
f 70 67 69
f 71 42 46
f 72 68 71
f 73 69 72
f 74 70 73
f 75 46 51
f 76 71 75
f 77 72 76
f 78 73 77
f 79 74 78
f 80 51 57
f 81 75 80
f 82 76 81
f 83 77 82
f 84 78 83
f 85 79 84
f 86 57 64
f 87 80 86
f 88 81 87
f 89 82 88
f 90 83 89
f 91 84 90
f 92 85 91
f 65 37 66
f 66 39 68
f 67 66 69
f 68 42 71
f 69 68 72
f 70 69 73
f 71 46 75
f 72 71 76
f 73 72 77
f 74 73 78
f 75 51 80
f 76 75 81
f 77 76 82
f 78 77 83
f 79 78 84
f 80 57 86
f 81 80 87
f 82 81 88
f 83 82 89
f 84 83 90
f 85 84 91
f 93 1 65
f 94 65 67
f 95 93 94
f 96 67 70
f 97 94 96
f 98 95 97
f 99 70 74
f 100 96 99
f 101 97 100
f 102 98 101
f 103 74 79
f 104 99 103
f 105 100 104
f 106 101 105
f 107 102 106
f 108 79 85
f 109 103 108
f 110 104 109
f 111 105 110
f 112 106 111
f 113 107 112
f 114 85 92
f 115 108 114
f 116 109 115
f 117 110 116
f 118 111 117
f 119 112 118
f 120 113 119
f 93 65 94
f 94 67 96
f 95 94 97
f 96 70 99
f 97 96 100
f 98 97 101
f 99 74 103
f 100 99 104
f 101 100 105
f 102 101 106
f 103 79 108
f 104 103 109
f 105 104 110
f 106 105 111
f 107 106 112
f 108 85 114
f 109 108 115
f 110 109 116
f 111 110 117
f 112 111 118
f 113 112 119
f 2 1 93
f 121 93 95
f 4 2 121
f 122 95 98
f 123 121 122
f 7 4 123
f 124 98 102
f 125 122 124
f 126 123 125
f 11 7 126
f 127 102 107
f 128 124 127
f 129 125 128
f 130 126 129
f 16 11 130
f 131 107 113
f 132 127 131
f 133 128 132
f 134 129 133
f 135 130 134
f 22 16 135
f 136 113 120
f 137 131 136
f 138 132 137
f 139 133 138
f 140 134 139
f 141 135 140
f 29 22 141
f 2 93 121
f 121 95 122
f 4 121 123
f 122 98 124
f 123 122 125
f 7 123 126
f 124 102 127
f 125 124 128
f 126 125 129
f 11 126 130
f 127 107 131
f 128 127 132
f 129 128 133
f 130 129 134
f 16 130 135
f 131 113 136
f 132 131 137
f 133 132 138
f 134 133 139
f 135 134 140
f 22 135 141
f 142 29 141
f 143 141 140
f 144 142 143
f 145 140 139
f 146 143 145
f 147 144 146
f 148 139 138
f 149 145 148
f 150 146 149
f 151 147 150
f 152 138 137
f 153 148 152
f 154 149 153
f 155 150 154
f 156 151 155
f 157 137 136
f 158 152 157
f 159 153 158
f 160 154 159
f 161 155 160
f 162 156 161
f 163 136 120
f 164 157 163
f 165 158 164
f 166 159 165
f 167 160 166
f 168 161 167
f 169 162 168
f 142 141 143
f 143 140 145
f 144 143 146
f 145 139 148
f 146 145 149
f 147 146 150
f 148 138 152
f 149 148 153
f 150 149 154
f 151 150 155
f 152 137 157
f 153 152 158
f 154 153 159
f 155 154 160
f 156 155 161
f 157 136 163
f 158 157 164
f 159 158 165
f 160 159 166
f 161 160 167
f 162 161 168
f 170 120 119
f 171 119 118
f 172 170 171
f 173 118 117
f 174 171 173
f 175 172 174
f 176 117 116
f 177 173 176
f 178 174 177
f 179 175 178
f 180 116 115
f 181 176 180
f 182 177 181
f 183 178 182
f 184 179 183
f 185 115 114
f 186 180 185
f 187 181 186
f 188 182 187
f 189 183 188
f 190 184 189
f 191 114 92
f 192 185 191
f 193 186 192
f 194 187 193
f 195 188 194
f 196 189 195
f 197 190 196
f 170 119 171
f 171 118 173
f 172 171 174
f 173 117 176
f 174 173 177
f 175 174 178
f 176 116 180
f 177 176 181
f 178 177 182
f 179 178 183
f 180 115 185
f 181 180 186
f 182 181 187
f 183 182 188
f 184 183 189
f 185 114 191
f 186 185 192
f 187 186 193
f 188 187 194
f 189 188 195
f 190 189 196
f 198 92 91
f 199 91 90
f 200 198 199
f 201 90 89
f 202 199 201
f 203 200 202
f 204 89 88
f 205 201 204
f 206 202 205
f 207 203 206
f 208 88 87
f 209 204 208
f 210 205 209
f 211 206 210
f 212 207 211
f 213 87 86
f 214 208 213
f 215 209 214
f 216 210 215
f 217 211 216
f 218 212 217
f 219 86 64
f 220 213 219
f 221 214 220
f 222 215 221
f 223 216 222
f 224 217 223
f 225 218 224
f 198 91 199
f 199 90 201
f 200 199 202
f 201 89 204
f 202 201 205
f 203 202 206
f 204 88 208
f 205 204 209
f 206 205 210
f 207 206 211
f 208 87 213
f 209 208 214
f 210 209 215
f 211 210 216
f 212 211 217
f 213 86 219
f 214 213 220
f 215 214 221
f 216 215 222
f 217 216 223
f 218 217 224
f 226 64 63
f 227 63 62
f 228 226 227
f 229 62 61
f 230 227 229
f 231 228 230
f 232 61 60
f 233 229 232
f 234 230 233
f 235 231 234
f 236 60 59
f 237 232 236
f 238 233 237
f 239 234 238
f 240 235 239
f 241 59 58
f 242 236 241
f 243 237 242
f 244 238 243
f 245 239 244
f 246 240 245
f 247 58 36
f 248 241 247
f 249 242 248
f 250 243 249
f 251 244 250
f 252 245 251
f 253 246 252
f 226 63 227
f 227 62 229
f 228 227 230
f 229 61 232
f 230 229 233
f 231 230 234
f 232 60 236
f 233 232 237
f 234 233 238
f 235 234 239
f 236 59 241
f 237 236 242
f 238 237 243
f 239 238 244
f 240 239 245
f 241 58 247
f 242 241 248
f 243 242 249
f 244 243 250
f 245 244 251
f 246 245 252
f 254 36 35
f 255 35 34
f 256 254 255
f 257 34 33
f 258 255 257
f 259 256 258
f 260 33 32
f 261 257 260
f 262 258 261
f 263 259 262
f 264 32 31
f 265 260 264
f 266 261 265
f 267 262 266
f 268 263 267
f 269 31 30
f 270 264 269
f 271 265 270
f 272 266 271
f 273 267 272
f 274 268 273
f 275 30 29
f 276 269 275
f 277 270 276
f 278 271 277
f 279 272 278
f 280 273 279
f 281 274 280
f 254 35 255
f 255 34 257
f 256 255 258
f 257 33 260
f 258 257 261
f 259 258 262
f 260 32 264
f 261 260 265
f 262 261 266
f 263 262 267
f 264 31 269
f 265 264 270
f 266 265 271
f 267 266 272
f 268 267 273
f 269 30 275
f 270 269 276
f 271 270 277
f 272 271 278
f 273 272 279
f 274 273 280
f 275 29 142
f 282 142 144
f 276 275 282
f 283 144 147
f 284 282 283
f 277 276 284
f 285 147 151
f 286 283 285
f 287 284 286
f 278 277 287
f 288 151 156
f 289 285 288
f 290 286 289
f 291 287 290
f 279 278 291
f 292 156 162
f 293 288 292
f 294 289 293
f 295 290 294
f 296 291 295
f 280 279 296
f 297 162 169
f 298 292 297
f 299 293 298
f 300 294 299
f 301 295 300
f 302 296 301
f 281 280 302
f 275 142 282
f 282 144 283
f 276 282 284
f 283 147 285
f 284 283 286
f 277 284 287
f 285 151 288
f 286 285 289
f 287 286 290
f 278 287 291
f 288 156 292
f 289 288 293
f 290 289 294
f 291 290 295
f 279 291 296
f 292 162 297
f 293 292 298
f 294 293 299
f 295 294 300
f 296 295 301
f 280 296 302
f 163 120 170
f 303 170 172
f 164 163 303
f 304 172 175
f 305 303 304
f 165 164 305
f 306 175 179
f 307 304 306
f 308 305 307
f 166 165 308
f 309 179 184
f 310 306 309
f 311 307 310
f 312 308 311
f 167 166 312
f 313 184 190
f 314 309 313
f 315 310 314
f 316 311 315
f 317 312 316
f 168 167 317
f 318 190 197
f 319 313 318
f 320 314 319
f 321 315 320
f 322 316 321
f 323 317 322
f 169 168 323
f 163 170 303
f 303 172 304
f 164 303 305
f 304 175 306
f 305 304 307
f 165 305 308
f 306 179 309
f 307 306 310
f 308 307 311
f 166 308 312
f 309 184 313
f 310 309 314
f 311 310 315
f 312 311 316
f 167 312 317
f 313 190 318
f 314 313 319
f 315 314 320
f 316 315 321
f 317 316 322
f 168 317 323
f 191 92 198
f 324 198 200
f 192 191 324
f 325 200 203
f 326 324 325
f 193 192 326
f 327 203 207
f 328 325 327
f 329 326 328
f 194 193 329
f 330 207 212
f 331 327 330
f 332 328 331
f 333 329 332
f 195 194 333
f 334 212 218
f 335 330 334
f 336 331 335
f 337 332 336
f 338 333 337
f 196 195 338
f 339 218 225
f 340 334 339
f 341 335 340
f 342 336 341
f 343 337 342
f 344 338 343
f 197 196 344
f 191 198 324
f 324 200 325
f 192 324 326
f 325 203 327
f 326 325 328
f 193 326 329
f 327 207 330
f 328 327 331
f 329 328 332
f 194 329 333
f 330 212 334
f 331 330 335
f 332 331 336
f 333 332 337
f 195 333 338
f 334 218 339
f 335 334 340
f 336 335 341
f 337 336 342
f 338 337 343
f 196 338 344
f 219 64 226
f 345 226 228
f 220 219 345
f 346 228 231
f 347 345 346
f 221 220 347
f 348 231 235
f 349 346 348
f 350 347 349
f 222 221 350
f 351 235 240
f 352 348 351
f 353 349 352
f 354 350 353
f 223 222 354
f 355 240 246
f 356 351 355
f 357 352 356
f 358 353 357
f 359 354 358
f 224 223 359
f 360 246 253
f 361 355 360
f 362 356 361
f 363 357 362
f 364 358 363
f 365 359 364
f 225 224 365
f 219 226 345
f 345 228 346
f 220 345 347
f 346 231 348
f 347 346 349
f 221 347 350
f 348 235 351
f 349 348 352
f 350 349 353
f 222 350 354
f 351 240 355
f 352 351 356
f 353 352 357
f 354 353 358
f 223 354 359
f 355 246 360
f 356 355 361
f 357 356 362
f 358 357 363
f 359 358 364
f 224 359 365
f 247 36 254
f 366 254 256
f 248 247 366
f 367 256 259
f 368 366 367
f 249 248 368
f 369 259 263
f 370 367 369
f 371 368 370
f 250 249 371
f 372 263 268
f 373 369 372
f 374 370 373
f 375 371 374
f 251 250 375
f 376 268 274
f 377 372 376
f 378 373 377
f 379 374 378
f 380 375 379
f 252 251 380
f 381 274 281
f 382 376 381
f 383 377 382
f 384 378 383
f 385 379 384
f 386 380 385
f 253 252 386
f 247 254 366
f 366 256 367
f 248 366 368
f 367 259 369
f 368 367 370
f 249 368 371
f 369 263 372
f 370 369 373
f 371 370 374
f 250 371 375
f 372 268 376
f 373 372 377
f 374 373 378
f 375 374 379
f 251 375 380
f 376 274 381
f 377 376 382
f 378 377 383
f 379 378 384
f 380 379 385
f 252 380 386
f 389 387 388
f 391 388 390
f 392 389 391
f 394 390 393
f 395 391 394
f 396 392 395
f 398 393 397
f 399 394 398
f 400 395 399
f 401 396 400
f 403 397 402
f 404 398 403
f 405 399 404
f 406 400 405
f 407 401 406
f 409 402 408
f 410 403 409
f 411 404 410
f 412 405 411
f 413 406 412
f 414 407 413
f 302 408 281
f 301 409 302
f 300 410 301
f 299 411 300
f 298 412 299
f 297 413 298
f 169 414 297
f 389 388 391
f 391 390 394
f 392 391 395
f 394 393 398
f 395 394 399
f 396 395 400
f 398 397 403
f 399 398 404
f 400 399 405
f 401 400 406
f 403 402 409
f 404 403 410
f 405 404 411
f 406 405 412
f 407 406 413
f 409 408 302
f 410 409 301
f 411 410 300
f 412 411 299
f 413 412 298
f 414 413 297
f 388 387 415
f 417 415 416
f 390 388 417
f 419 416 418
f 420 417 419
f 393 390 420
f 422 418 421
f 423 419 422
f 424 420 423
f 397 393 424
f 426 421 425
f 427 422 426
f 428 423 427
f 429 424 428
f 402 397 429
f 431 425 430
f 432 426 431
f 433 427 432
f 434 428 433
f 435 429 434
f 408 402 435
f 386 430 253
f 385 431 386
f 384 432 385
f 383 433 384
f 382 434 383
f 381 435 382
f 281 408 381
f 388 415 417
f 417 416 419
f 390 417 420
f 419 418 422
f 420 419 423
f 393 420 424
f 422 421 426
f 423 422 427
f 424 423 428
f 397 424 429
f 426 425 431
f 427 426 432
f 428 427 433
f 429 428 434
f 402 429 435
f 431 430 386
f 432 431 385
f 433 432 384
f 434 433 383
f 435 434 382
f 408 435 381
f 415 387 436
f 438 436 437
f 416 415 438
f 440 437 439
f 441 438 440
f 418 416 441
f 443 439 442
f 444 440 443
f 445 441 444
f 421 418 445
f 447 442 446
f 448 443 447
f 449 444 448
f 450 445 449
f 425 421 450
f 452 446 451
f 453 447 452
f 454 448 453
f 455 449 454
f 456 450 455
f 430 425 456
f 365 451 225
f 364 452 365
f 363 453 364
f 362 454 363
f 361 455 362
f 360 456 361
f 253 430 360
f 415 436 438
f 438 437 440
f 416 438 441
f 440 439 443
f 441 440 444
f 418 441 445
f 443 442 447
f 444 443 448
f 445 444 449
f 421 445 450
f 447 446 452
f 448 447 453
f 449 448 454
f 450 449 455
f 425 450 456
f 452 451 365
f 453 452 364
f 454 453 363
f 455 454 362
f 456 455 361
f 430 456 360
f 436 387 457
f 459 457 458
f 437 436 459
f 461 458 460
f 462 459 461
f 439 437 462
f 464 460 463
f 465 461 464
f 466 462 465
f 442 439 466
f 468 463 467
f 469 464 468
f 470 465 469
f 471 466 470
f 446 442 471
f 473 467 472
f 474 468 473
f 475 469 474
f 476 470 475
f 477 471 476
f 451 446 477
f 344 472 197
f 343 473 344
f 342 474 343
f 341 475 342
f 340 476 341
f 339 477 340
f 225 451 339
f 436 457 459
f 459 458 461
f 437 459 462
f 461 460 464
f 462 461 465
f 439 462 466
f 464 463 468
f 465 464 469
f 466 465 470
f 442 466 471
f 468 467 473
f 469 468 474
f 470 469 475
f 471 470 476
f 446 471 477
f 473 472 344
f 474 473 343
f 475 474 342
f 476 475 341
f 477 476 340
f 451 477 339
f 457 387 389
f 478 389 392
f 458 457 478
f 479 392 396
f 480 478 479
f 460 458 480
f 481 396 401
f 482 479 481
f 483 480 482
f 463 460 483
f 484 401 407
f 485 481 484
f 486 482 485
f 487 483 486
f 467 463 487
f 488 407 414
f 489 484 488
f 490 485 489
f 491 486 490
f 492 487 491
f 472 467 492
f 323 414 169
f 322 488 323
f 321 489 322
f 320 490 321
f 319 491 320
f 318 492 319
f 197 472 318
f 457 389 478
f 478 392 479
f 458 478 480
f 479 396 481
f 480 479 482
f 460 480 483
f 481 401 484
f 482 481 485
f 483 482 486
f 463 483 487
f 484 407 488
f 485 484 489
f 486 485 490
f 487 486 491
f 467 487 492
f 488 414 323
f 489 488 322
f 490 489 321
f 491 490 320
f 492 491 319
f 472 492 318
