# File exported by Houdini 20.5.445 (www.sidefx.com)
# 492 points
# 2940 vertices
# 980 primitives
# Bounds: [-199.748627, -215.011139, -1028.95972] to [370.522552, 331.388245, -725.84137]
g 
v 144.592133 49.2429848 -1019.63531
v 143.774384 81.6972198 -1009.30695
v 177.413239 68.5657501 -1009.47784
v 143.987701 110.350037 -997.26947
v 181.754852 102.623001 -996.988342
v 211.759918 85.6419373 -993.156067
v 144.487091 136.227493 -983.704651
v 186.055511 131.51564 -984.409607
v 219.844696 120.361771 -980.22821
v 246.724518 100.996567 -972.971008
v 144.658478 161.695358 -968.193909
v 188.428192 157.68042 -970.916565
v 225.894135 149.909256 -968.092712
v 256.612946 136.231323 -960.500916
v 280.653656 114.856354 -951.580261
v 143.70047 188.714035 -951.057068
v 188.142853 184.141144 -955.344421
v 227.987091 177.516586 -954.851135
v 262.380463 166.956848 -948.809998
v 290.362762 150.674088 -939.736145
v 311.484467 126.659119 -931.106995
v 141.602142 217.887695 -933.969543
v 185.349945 212.891968 -937.997986
v 226.193878 206.281479 -939.074036
v 263.092072 196.784149 -935.443176
v 294.582428 182.932663 -928.134705
v 319.61673 163.008453 -919.73761
v 337.304779 135.562698 -913.101379
v 138.855194 247.95282 -918.285706
v 180.953827 244.273743 -920.454651
v 221.70755 238.06311 -921.335266
v 259.960052 228.649353 -919.240662
v 293.878815 215.166245 -914.338318
v 322.000153 196.40976 -907.949768
v 343.22702 171.667114 -902.091858
v 356.62204 140.942795 -898.392883
v 165.195343 26.3628731 -1023.10236
v 199.445343 45.2752342 -1008.79596
v 183.60849 1.68470383 -1022.21332
v 233.292694 61.8066826 -988.32489
v 217.609161 20.9643478 -1004.28265
v 198.570404 -23.5519257 -1016.10773
v 266.7034 76.353653 -965.619324
v 250.02005 37.3867378 -981.448059
v 231.454132 -3.85163879 -996.090149
v 209.264435 -48.6696701 -1004.67889
v 298.806305 88.6708832 -943.289001
v 281.642303 50.799572 -957.773743
v 262.270782 11.7737541 -972.435242
v 240.789764 -29.5801964 -984.017029
v 215.222198 -73.9572601 -988.846985
v 327.921539 98.0913239 -922.814026
v 312.027374 60.6812782 -935.146667
v 292.293671 22.7872963 -948.485779
v 270.15567 -16.3263016 -960.365784
v 245.224152 -57.191391 -968.229431
v 216.141327 -99.6664276 -970.007629
v 351.860321 104.336411 -905.204895
v 339.328888 66.6825562 -914.444641
v 320.913727 28.7265244 -925.338562
v 298.519318 -9.42820358 -935.889343
v 272.985809 -47.9412689 -944.122986
v 244.103302 -86.5419922 -948.620056
v 212.624542 -123.954636 -947.800964
v 126.691986 14.6371384 -1026.35791
v 147.488129 -13.196846 -1028.95972
v 109.109528 -20.0020828 -1025.06274
v 164.321808 -40.7723618 -1026.00977
v 129.144257 -50.4881287 -1023.97467
v 89.3467712 -52.1345062 -1014.67938
v 176.676422 -67.4924469 -1016.49701
v 143.688141 -79.2391663 -1017.37189
v 107.594269 -83.8443909 -1008.57111
v 65.6803284 -80.0346069 -996.155701
v 184.384308 -93.4557495 -1001.0528
v 153.292267 -106.766449 -1004.09198
v 119.587555 -113.361694 -998.130798
v 81.6558533 -112.694214 -985.226013
v 38.0924377 -103.312576 -972.459534
v 186.831573 -119.574432 -981.263855
v 157.672333 -134.077408 -985.259094
v 126.261505 -142.143723 -981.570618
v 90.9352722 -143.426208 -971.356384
v 51.415802 -137.259323 -957.746399
v 8.22494507 -122.543762 -947.146179
v 184.193573 -144.702408 -956.72821
v 155.991302 -161.057709 -960.727234
v 126.306488 -170.99501 -958.769348
v 93.4619446 -173.659485 -951.191101
v 56.7723083 -169.249054 -940.232117
v 17.5884705 -157.505432 -929.235291
v -22.3295593 -138.460724 -922.895935
v 111.040558 49.6912117 -1019.53094
v 90.0451355 14.3216171 -1023.39313
v 76.5091858 50.0331383 -1017.09344
v 69.4288025 -18.3859749 -1018.57343
v 53.151886 15.6910934 -1018.29034
v 41.8866272 51.9670372 -1010.77924
v 46.3310242 -46.6359863 -1005.2995
v 29.638031 -13.5983429 -1010.57867
v 16.6738586 20.5291405 -1009.22943
v 8.30874634 57.3889427 -999.259338
v 19.4559631 -69.833931 -985.126282
v 3.34408569 -37.0682831 -995.050964
v -9.75906372 -4.07002258 -998.934998
v -18.9801941 30.305397 -995.124695
v -23.9336243 67.6292877 -983.004578
v -10.6114807 -88.8300476 -960.598816
v -26.8266907 -55.4317093 -973.187805
v -39.7898254 -22.4018402 -981.314148
v -48.8752136 10.9908257 -982.612854
v -53.7931824 45.8298759 -976.426819
v -54.7454529 83.1956635 -963.797546
v -42.5263367 -105.831207 -935.114929
v -60.3739319 -71.5299683 -947.874207
v -74.4185181 -37.0014954 -958.018005
v -83.6074829 -2.68488693 -963.006897
v -87.7005005 31.7600517 -961.659607
v -87.4156189 66.883606 -954.502869
v -83.6588135 102.980835 -943.758362
v 106.318207 82.995163 -1008.76398
v 70.0088806 84.0402222 -1004.69513
v 103.267426 111.849442 -994.988953
v 35.5242004 87.2858734 -995.598328
v 65.9555359 114.228165 -988.285095
v 101.879059 138.825821 -978.920837
v 2.67050171 94.5024719 -981.385803
v 31.1342468 119.88559 -976.567688
v 63.6159973 143.683472 -969.762878
v 101.066437 166.57988 -961.036438
v -29.2059021 107.322601 -963.348206
v -2.36740112 130.954666 -960.526184
v 27.6133728 153.680115 -956.221375
v 61.7542419 175.534836 -950.40094
v 99.9410706 197.155167 -942.657288
v -60.6340637 126.367523 -943.453918
v -35.7988586 149.328415 -941.821594
v -7.99563599 171.475769 -939.401672
v 23.7817688 192.28891 -936.237244
v 59.5298157 212.004013 -931.573425
v 98.3455505 230.854996 -925.276306
v 109.964508 267.037598 -908.959656
v 64.5198669 250.504822 -914.91449
v 80.3227234 284.570099 -900.778137
v 23.8512878 232.812698 -919.054871
v 32.1352844 269.026733 -905.165466
v 49.9380188 299.670013 -893.233582
v -11.7991638 213.577637 -921.468445
v -9.21548462 251.542053 -907.512268
v 0.578399658 284.16925 -895.990417
v 18.0284119 310.706665 -886.50824
v -42.6829529 191.869354 -923.16095
v -44.5102844 231.011749 -908.61322
v -40.5545349 265.186615 -896.817688
v -30.4688416 293.928345 -887.306824
v -14.8599548 316.755463 -880.253113
v -70.0184937 167.281693 -924.509338
v -75.0861206 206.338654 -909.179871
v -75.3734741 241.434845 -896.540222
v -70.5028992 271.969238 -886.354065
v -60.9291077 297.754211 -878.855408
v -45.4934998 316.815735 -874.139099
v -95.3772583 139.611938 -925.276428
v -102.948486 176.377869 -909.207336
v -106.161621 211.077972 -895.457214
v -104.986267 242.931305 -884.15509
v -99.2989807 271.396973 -875.816345
v -88.0147095 294.47583 -870.569275
v -70.7977295 310.03598 -867.950623
v -114.003906 100.566177 -930.740295
v -120.864075 60.2961998 -939.285217
v -142.979248 94.4811554 -917.918274
v -122.527924 21.8464775 -943.467102
v -150.743225 49.8715172 -924.684143
v -168.468079 83.9552155 -905.603333
v -117.839172 -15.9651451 -941.876892
v -151.003967 7.6547451 -926.433777
v -174.598541 35.565094 -910.242004
v -187.843933 71.2337494 -893.532776
v -106.413422 -54.0695801 -934.634338
v -143.733917 -33.7790947 -922.318298
v -172.133453 -9.6138382 -909.001282
v -190.955719 19.8347435 -894.65802
v -198.363251 57.0577202 -880.777771
v -88.7741394 -92.6521301 -922.853699
v -129.243896 -75.3856812 -912.371399
v -161.950287 -53.9186554 -901.253845
v -185.347076 -28.1191177 -889.00238
v -198.257965 3.01862335 -876.587952
v -199.748627 41.523716 -866.06781
v -66.1593933 -130.630997 -908.681946
v -108.077515 -117.26384 -897.324036
v -144.362183 -98.9174194 -886.729797
v -172.017853 -75.8921738 -875.718445
v -189.6521 -48.1426544 -864.503845
v -196.752686 -14.8431816 -854.772522
v -193.917511 24.5432396 -848.23407
v -28.8157043 -164.424866 -901.751038
v 13.7571716 -184.005341 -908.050964
v -35.9850769 -184.089966 -879.23468
v 53.3378601 -194.661407 -917.50177
v 8.03842163 -201.313751 -884.45697
v -43.29953 -196.114594 -854.210266
v 89.2038879 -197.561401 -926.065125
v 47.1076965 -209.636154 -892.364441
v 0.756134033 -209.868896 -858.577454
v -49.9807434 -200.757263 -827.803894
v 121.970184 -192.261414 -931.218689
v 82.8358459 -209.749756 -899.012756
v 39.5520325 -215.011139 -865.371033
v -6.55136108 -210.577103 -832.042053
v -54.4207458 -198.619049 -802.326599
v 153.517303 -178.505341 -931.690735
v 117.453217 -200.793121 -902.435608
v 76.5780334 -211.141983 -870.700256
v 33.000885 -211.510483 -838.125549
v -11.3435364 -203.841629 -806.863342
v -54.5327454 -190.045532 -779.988342
v 186.185577 -157.168503 -927.429138
v 153.72049 -182.175751 -901.948425
v 115.48349 -196.915665 -873.138
v 73.57901 -201.92038 -842.713318
v 30.7207947 -198.910065 -812.678406
v -10.7362366 -189.552673 -785.13324
v -48.6435242 -175.43248 -762.454773
v 226.763519 -122.86525 -925.674988
v 263.858917 -83.9235687 -925.311707
v 239.670074 -118.30806 -903.646301
v 295.742401 -44.7507782 -920.699524
v 280.317413 -78.5259705 -903.812805
v 249.454681 -108.624908 -883.268005
v 322.267853 -5.43169022 -913.745422
v 312.881561 -38.3485947 -900.774841
v 291.051727 -67.8682938 -885.257874
v 253.977997 -92.4970093 -865.886414
v 344.124908 34.8337975 -905.333557
v 338.702057 3.12764549 -895.962585
v 322.471161 -25.7579002 -884.56012
v 293.909882 -50.3408585 -870.207092
v 251.735687 -70.2522202 -851.975403
v 360.027313 76.6794281 -897.099182
v 358.233063 47.3433037 -889.971497
v 346.010284 19.2753181 -881.856995
v 322.756317 -5.61896515 -871.361511
v 288.032501 -26.4449501 -857.836487
v 242.752716 -43.0755997 -840.730774
v 367.813141 119.620102 -890.082092
v 369.767914 94.5987396 -883.496887
v 361.325836 68.5133514 -877.152649
v 341.920624 43.7008095 -869.654114
v 311.967072 21.7144508 -859.908386
v 273.054474 3.30568314 -847.15863
v 227.972137 -12.1542282 -831.105164
v 362.373871 164.273529 -887.724426
v 344.921661 198.314194 -890.937561
v 359.767059 185.578918 -878.368713
v 319.778595 224.97937 -895.724304
v 338.928253 221.367599 -881.541809
v 348.896027 204.852692 -870.18866
v 288.290741 245.266785 -900.468567
v 310.967926 249.367004 -885.694885
v 325.88382 241.413971 -873.578186
v 329.953888 221.809402 -863.175964
v 251.296173 259.912842 -903.914978
v 276.7164 270.922577 -889.399597
v 295.683807 270.107635 -877.390442
v 305.120087 258.23764 -866.869202
v 303.276154 235.709198 -857.264099
v 209.43924 269.396179 -905.536316
v 235.929657 286.301788 -892.160461
v 257.794525 292.222229 -880.776428
v 271.506622 286.867218 -870.788147
v 275.693268 271.02005 -861.586365
v 269.424286 246.355835 -852.668884
v 162.996429 274.234222 -905.48053
v 187.673615 294.961975 -893.976013
v 210.225311 307.068176 -883.776672
v 226.740265 308.309967 -874.681213
v 235.788177 298.550446 -866.279236
v 236.663361 279.900482 -858.039612
v 229.122406 254.960907 -849.576233
v 133.951935 293.878387 -896.676575
v 103.976227 309.186829 -889.649719
v 156.949005 311.908112 -886.698425
v 71.2217712 320.619415 -884.080261
v 123.688019 323.254883 -881.215881
v 175.194 319.926727 -878.253357
v 35.2784119 327.571106 -879.57135
v 86.731842 329.935486 -877.491638
v 137.800446 326.176544 -874.351746
v 187.608063 316.489471 -870.471619
v -0.966888428 328.759247 -875.178528
v 47.3318787 331.388245 -874.56134
v 97.1676331 327.120544 -871.963074
v 146.352814 317.503967 -867.638123
v 193.331451 302.053223 -862.550232
v -34.0014954 322.704651 -869.911926
v 8.37075806 326.13446 -870.624695
v 54.4708557 321.928223 -869.193665
v 101.803314 311.877808 -865.226379
v 147.924713 297.2565 -859.356995
v 190.800873 278.019073 -853.550232
v -126.017426 138.193222 -911.758362
v -153.001373 131.628021 -899.527161
v -132.048523 173.630814 -895.717346
v -175.420319 122.102722 -888.753235
v -156.439331 167.117004 -884.44574
v -133.292908 207.338882 -882.544128
v -189.777679 110.454773 -878.933289
v -174.291962 158.508179 -875.439148
v -153.902313 201.34613 -872.551941
v -129.529785 239.148132 -872.475037
v -194.13974 96.2064056 -868.474304
v -182.445831 147.171478 -867.635559
v -165.680084 193.10257 -865.197083
v -144.586151 233.275955 -863.845642
v -119.393219 267.285461 -865.784119
v -189.288971 78.3085938 -854.755554
v -179.880066 131.269592 -858.339661
v -166.257629 180.525604 -858.683044
v -148.635895 223.912903 -857.684387
v -127.163879 260.181152 -858.355896
v -101.752319 288.926025 -862.391541
v -76.5757141 -155.320541 -884.05304
v -85.3001709 -172.31218 -858.083679
v -118.628387 -140.092743 -870.192322
v -91.7296448 -181.901291 -830.67218
v -125.32254 -154.83046 -841.696838
v -151.938629 -119.630768 -857.95636
v -95.2063904 -184.374344 -802.902161
v -128.124054 -162.186905 -812.481628
v -154.468353 -131.826599 -827.979309
v -174.893066 -93.6685486 -846.487488
v -94.1915588 -179.631668 -777.187195
v -126.397766 -161.903534 -783.673523
v -152.160583 -135.84552 -797.799011
v -172.236725 -101.819916 -816.437927
v -187.094086 -61.0027313 -836.306091
v -86.5325623 -167.273132 -755.714905
v -118.196716 -152.846146 -757.619324
v -143.712128 -130.481888 -768.763733
v -163.542206 -99.8336792 -786.706482
v -178.16272 -62.0727997 -808.026794
v -187.961578 -19.5164566 -829.393494
v 195.416718 -153.848038 -902.364807
v 202.700531 -144.541885 -879.215271
v 158.117828 -173.551437 -875.503357
v 207.116241 -128.793015 -859.083801
v 161.037933 -158.27594 -852.50946
v 116.405365 -182.827881 -846.787903
v 207.405121 -106.698776 -842.53009
v 162.058258 -136.809387 -833.24823
v 116.708221 -162.398727 -824.728333
v 72.5436707 -183.620041 -817.525818
v 201.823456 -78.6634064 -829.426941
v 159.054291 -109.307083 -817.612122
v 114.805817 -136.038879 -806.436096
v 70.5612488 -159.114365 -796.65033
v 28.153595 -177.548035 -789.098328
v 190.366974 -45.4170837 -818.426697
v 150.3508 -75.9407806 -804.722717
v 108.160248 -103.607697 -791.165222
v 65.1559753 -128.465485 -778.962097
v 23.3323669 -149.577911 -769.220276
v -15.1221619 -165.429703 -763.124207
v 370.522552 142.143173 -878.994934
v 362.648041 162.321442 -869.585754
v 366.74765 117.536789 -872.242126
v 345.072662 180.416412 -861.454895
v 351.803375 137.77182 -862.550842
v 350.958588 92.7641296 -865.73761
v 318.638092 196.198181 -854.405212
v 326.599335 155.700623 -854.103699
v 328.25351 113.74115 -855.673401
v 323.563019 69.4513245 -858.160828
v 284.035675 209.373581 -848.212341
v 291.97934 171.249405 -846.243469
v 294.692047 132.343414 -846.216492
v 292.489288 91.7531586 -847.193542
v 285.313202 48.7502632 -847.918274
v 241.136383 221.066605 -843.187805
v 247.674896 185.027603 -838.688293
v 250.024811 148.426132 -836.192932
v 249.015106 110.801117 -835.224426
v 244.944733 71.1618805 -834.539978
v 238.032623 29.6465607 -833.098328
v -27.2344666 97.5485229 -772.613098
v 1.67160034 129.744629 -785.837219
v -34.5047913 146.349548 -796.834534
v 33.3684998 158.669922 -799.154724
v -4.45565796 180.908127 -810.263855
v -41.1430359 193.180862 -820.012756
v 69.2649841 184.096054 -812.223206
v 28.4535217 208.933197 -822.173279
v -9.96853638 226.446442 -831.690979
v -48.3717957 234.640167 -838.10614
v 109.045624 206.327866 -824.344788
v 65.4966736 231.558243 -832.621277
v 24.0313416 251.323364 -841.382141
v -16.263031 264.375397 -847.502258
v -56.4777527 268.165192 -850.101501
v 151.008759 225.456726 -834.475403
v 106.159088 250.164734 -841.198425
v 62.0409851 270.257843 -849.255066
v 18.8257751 285.268463 -855.193054
v -23.3653259 293.584717 -857.908264
v -64.2068787 292.11203 -857.649109
v 192.207733 241.543854 -842.579285
v 148.862946 265.559967 -847.840393
v 103.860138 285.221863 -855.075989
v 58.2222595 300.487762 -861.186584
v 13.1789856 310.514282 -864.427307
v -29.915741 313.290833 -864.777771
v -69.5541077 305.91571 -863.084534
v 0.092376709 71.4944153 -761.608337
v 31.4151306 50.0625267 -759.966125
v 34.5544128 104.188187 -777.197083
v 66.4221497 33.9109497 -766.823181
v 70.384491 84.7629547 -778.40387
v 71.1599426 133.464661 -793.090881
v 104.463226 21.4986305 -779.757507
v 109.055023 70.2148132 -787.095398
v 110.81662 115.207733 -796.612732
v 111.157806 159.611298 -808.789612
v 144.880646 10.4811859 -796.318176
v 150.285858 57.6292 -800.696228
v 152.874481 100.753372 -806.392883
v 154.227081 141.621155 -813.552673
v 154.315948 182.67923 -822.797302
v 186.987518 -0.831169128 -814.258728
v 193.527069 44.4393654 -816.700867
v 197.723419 86.8431549 -819.771179
v 200.070587 126.275253 -822.9599
v 200.765472 164.331711 -827.440491
v 198.857574 202.812363 -833.983459
v -39.4410095 46.6285057 -751.737854
v -50.70755 -2.74072075 -735.766418
v -9.47036743 19.4931526 -744.243958
v -59.6091614 -48.246048 -727.241638
v -17.4825134 -27.5784531 -734.090149
v 24.0096741 -0.688014984 -748.077576
v -65.0004883 -88.5630951 -725.84137
v -23.2061462 -69.3788223 -731.184753
v 18.6448669 -45.130661 -743.333435
v 60.7354431 -15.2951012 -759.875061
v -65.8334656 -123.056595 -731.478455
v -25.6581116 -105.793259 -735.119324
v 16.0184021 -83.7407837 -745.487
v 58.4007263 -57.2838745 -759.786682
v 101.054474 -26.0620041 -777.085022
v -60.8089294 -151.926697 -743.904114
v -23.5926819 -137.632278 -745.718567
v 17.0293274 -118.094879 -753.966736
v 59.4839172 -94.077179 -766.08551
v 102.377533 -66.6747131 -780.842468
v 144.691132 -35.5935211 -797.274841
v -59.2423401 93.5337524 -776.160339
v -89.0437927 88.2210693 -784.226257
v -74.8390503 36.5297127 -754.127258
v -116.376068 80.688446 -795.369568
v -105.580231 26.449646 -763.184509
v -87.9287415 -16.5807838 -738.497375
v -141.105377 70.1612091 -807.742249
v -132.108093 15.7652702 -776.457825
v -118.400208 -29.3127823 -748.94928
v -96.912384 -63.9372253 -730.785583
v -162.855377 56.3698769 -820.519836
v -154.83606 4.19356346 -792.019104
v -143.255646 -41.3762894 -764.555847
v -125.753387 -77.779892 -742.731018
v -100.647888 -104.68515 -730.95636
v -180.939758 40.429966 -833.849792
v -173.76416 -7.94084549 -809.507996
v -163.274963 -52.5375137 -784.147766
v -147.846588 -89.9296722 -761.482117
v -126.4086 -118.711227 -745.39032
v -97.9353638 -139.031143 -739.114807
v -67.3712769 146.373306 -804.25531
v -75.3435059 193.614731 -827.041809
v -97.1759033 142.878464 -813.652649
v -84.1234436 232.724747 -842.19696
v -105.894928 188.409683 -834.340271
v -124.588776 134.669739 -823.647034
v -92.9183044 262.075745 -851.054749
v -115.188599 223.423416 -846.520935
v -133.694489 176.458313 -841.816345
v -149.547729 120.751083 -833.677795
v -99.644165 280.800049 -856.740051
v -123.340485 247.424103 -853.086365
v -142.734955 206.159409 -851.796936
v -158.724731 157.180466 -849.586243
v -171.61554 101.296463 -843.72345
g 
f 3 1 2
f 5 2 4
f 6 3 5
f 8 4 7
f 9 5 8
f 10 6 9
f 12 7 11
f 13 8 12
f 14 9 13
f 15 10 14
f 17 11 16
f 18 12 17
f 19 13 18
f 20 14 19
f 21 15 20
f 23 16 22
f 24 17 23
f 25 18 24
f 26 19 25
f 27 20 26
f 28 21 27
f 30 22 29
f 31 23 30
f 32 24 31
f 33 25 32
f 34 26 33
f 35 27 34
f 36 28 35
f 3 2 5
f 5 4 8
f 6 5 9
f 8 7 12
f 9 8 13
f 10 9 14
f 12 11 17
f 13 12 18
f 14 13 19
f 15 14 20
f 17 16 23
f 18 17 24
f 19 18 25
f 20 19 26
f 21 20 27
f 23 22 30
f 24 23 31
f 25 24 32
f 26 25 33
f 27 26 34
f 28 27 35
f 37 1 3
f 38 3 6
f 39 37 38
f 40 6 10
f 41 38 40
f 42 39 41
f 43 10 15
f 44 40 43
f 45 41 44
f 46 42 45
f 47 15 21
f 48 43 47
f 49 44 48
f 50 45 49
f 51 46 50
f 52 21 28
f 53 47 52
f 54 48 53
f 55 49 54
f 56 50 55
f 57 51 56
f 58 28 36
f 59 52 58
f 60 53 59
f 61 54 60
f 62 55 61
f 63 56 62
f 64 57 63
f 37 3 38
f 38 6 40
f 39 38 41
f 40 10 43
f 41 40 44
f 42 41 45
f 43 15 47
f 44 43 48
f 45 44 49
f 46 45 50
f 47 21 52
f 48 47 53
f 49 48 54
f 50 49 55
f 51 50 56
f 52 28 58
f 53 52 59
f 54 53 60
f 55 54 61
f 56 55 62
f 57 56 63
f 65 1 37
f 66 37 39
f 67 65 66
f 68 39 42
f 69 66 68
f 70 67 69
f 71 42 46
f 72 68 71
f 73 69 72
f 74 70 73
f 75 46 51
f 76 71 75
f 77 72 76
f 78 73 77
f 79 74 78
f 80 51 57
f 81 75 80
f 82 76 81
f 83 77 82
f 84 78 83
f 85 79 84
f 86 57 64
f 87 80 86
f 88 81 87
f 89 82 88
f 90 83 89
f 91 84 90
f 92 85 91
f 65 37 66
f 66 39 68
f 67 66 69
f 68 42 71
f 69 68 72
f 70 69 73
f 71 46 75
f 72 71 76
f 73 72 77
f 74 73 78
f 75 51 80
f 76 75 81
f 77 76 82
f 78 77 83
f 79 78 84
f 80 57 86
f 81 80 87
f 82 81 88
f 83 82 89
f 84 83 90
f 85 84 91
f 93 1 65
f 94 65 67
f 95 93 94
f 96 67 70
f 97 94 96
f 98 95 97
f 99 70 74
f 100 96 99
f 101 97 100
f 102 98 101
f 103 74 79
f 104 99 103
f 105 100 104
f 106 101 105
f 107 102 106
f 108 79 85
f 109 103 108
f 110 104 109
f 111 105 110
f 112 106 111
f 113 107 112
f 114 85 92
f 115 108 114
f 116 109 115
f 117 110 116
f 118 111 117
f 119 112 118
f 120 113 119
f 93 65 94
f 94 67 96
f 95 94 97
f 96 70 99
f 97 96 100
f 98 97 101
f 99 74 103
f 100 99 104
f 101 100 105
f 102 101 106
f 103 79 108
f 104 103 109
f 105 104 110
f 106 105 111
f 107 106 112
f 108 85 114
f 109 108 115
f 110 109 116
f 111 110 117
f 112 111 118
f 113 112 119
f 2 1 93
f 121 93 95
f 4 2 121
f 122 95 98
f 123 121 122
f 7 4 123
f 124 98 102
f 125 122 124
f 126 123 125
f 11 7 126
f 127 102 107
f 128 124 127
f 129 125 128
f 130 126 129
f 16 11 130
f 131 107 113
f 132 127 131
f 133 128 132
f 134 129 133
f 135 130 134
f 22 16 135
f 136 113 120
f 137 131 136
f 138 132 137
f 139 133 138
f 140 134 139
f 141 135 140
f 29 22 141
f 2 93 121
f 121 95 122
f 4 121 123
f 122 98 124
f 123 122 125
f 7 123 126
f 124 102 127
f 125 124 128
f 126 125 129
f 11 126 130
f 127 107 131
f 128 127 132
f 129 128 133
f 130 129 134
f 16 130 135
f 131 113 136
f 132 131 137
f 133 132 138
f 134 133 139
f 135 134 140
f 22 135 141
f 142 29 141
f 143 141 140
f 144 142 143
f 145 140 139
f 146 143 145
f 147 144 146
f 148 139 138
f 149 145 148
f 150 146 149
f 151 147 150
f 152 138 137
f 153 148 152
f 154 149 153
f 155 150 154
f 156 151 155
f 157 137 136
f 158 152 157
f 159 153 158
f 160 154 159
f 161 155 160
f 162 156 161
f 163 136 120
f 164 157 163
f 165 158 164
f 166 159 165
f 167 160 166
f 168 161 167
f 169 162 168
f 142 141 143
f 143 140 145
f 144 143 146
f 145 139 148
f 146 145 149
f 147 146 150
f 148 138 152
f 149 148 153
f 150 149 154
f 151 150 155
f 152 137 157
f 153 152 158
f 154 153 159
f 155 154 160
f 156 155 161
f 157 136 163
f 158 157 164
f 159 158 165
f 160 159 166
f 161 160 167
f 162 161 168
f 170 120 119
f 171 119 118
f 172 170 171
f 173 118 117
f 174 171 173
f 175 172 174
f 176 117 116
f 177 173 176
f 178 174 177
f 179 175 178
f 180 116 115
f 181 176 180
f 182 177 181
f 183 178 182
f 184 179 183
f 185 115 114
f 186 180 185
f 187 181 186
f 188 182 187
f 189 183 188
f 190 184 189
f 191 114 92
f 192 185 191
f 193 186 192
f 194 187 193
f 195 188 194
f 196 189 195
f 197 190 196
f 170 119 171
f 171 118 173
f 172 171 174
f 173 117 176
f 174 173 177
f 175 174 178
f 176 116 180
f 177 176 181
f 178 177 182
f 179 178 183
f 180 115 185
f 181 180 186
f 182 181 187
f 183 182 188
f 184 183 189
f 185 114 191
f 186 185 192
f 187 186 193
f 188 187 194
f 189 188 195
f 190 189 196
f 198 92 91
f 199 91 90
f 200 198 199
f 201 90 89
f 202 199 201
f 203 200 202
f 204 89 88
f 205 201 204
f 206 202 205
f 207 203 206
f 208 88 87
f 209 204 208
f 210 205 209
f 211 206 210
f 212 207 211
f 213 87 86
f 214 208 213
f 215 209 214
f 216 210 215
f 217 211 216
f 218 212 217
f 219 86 64
f 220 213 219
f 221 214 220
f 222 215 221
f 223 216 222
f 224 217 223
f 225 218 224
f 198 91 199
f 199 90 201
f 200 199 202
f 201 89 204
f 202 201 205
f 203 202 206
f 204 88 208
f 205 204 209
f 206 205 210
f 207 206 211
f 208 87 213
f 209 208 214
f 210 209 215
f 211 210 216
f 212 211 217
f 213 86 219
f 214 213 220
f 215 214 221
f 216 215 222
f 217 216 223
f 218 217 224
f 226 64 63
f 227 63 62
f 228 226 227
f 229 62 61
f 230 227 229
f 231 228 230
f 232 61 60
f 233 229 232
f 234 230 233
f 235 231 234
f 236 60 59
f 237 232 236
f 238 233 237
f 239 234 238
f 240 235 239
f 241 59 58
f 242 236 241
f 243 237 242
f 244 238 243
f 245 239 244
f 246 240 245
f 247 58 36
f 248 241 247
f 249 242 248
f 250 243 249
f 251 244 250
f 252 245 251
f 253 246 252
f 226 63 227
f 227 62 229
f 228 227 230
f 229 61 232
f 230 229 233
f 231 230 234
f 232 60 236
f 233 232 237
f 234 233 238
f 235 234 239
f 236 59 241
f 237 236 242
f 238 237 243
f 239 238 244
f 240 239 245
f 241 58 247
f 242 241 248
f 243 242 249
f 244 243 250
f 245 244 251
f 246 245 252
f 254 36 35
f 255 35 34
f 256 254 255
f 257 34 33
f 258 255 257
f 259 256 258
f 260 33 32
f 261 257 260
f 262 258 261
f 263 259 262
f 264 32 31
f 265 260 264
f 266 261 265
f 267 262 266
f 268 263 267
f 269 31 30
f 270 264 269
f 271 265 270
f 272 266 271
f 273 267 272
f 274 268 273
f 275 30 29
f 276 269 275
f 277 270 276
f 278 271 277
f 279 272 278
f 280 273 279
f 281 274 280
f 254 35 255
f 255 34 257
f 256 255 258
f 257 33 260
f 258 257 261
f 259 258 262
f 260 32 264
f 261 260 265
f 262 261 266
f 263 262 267
f 264 31 269
f 265 264 270
f 266 265 271
f 267 266 272
f 268 267 273
f 269 30 275
f 270 269 276
f 271 270 277
f 272 271 278
f 273 272 279
f 274 273 280
f 275 29 142
f 282 142 144
f 276 275 282
f 283 144 147
f 284 282 283
f 277 276 284
f 285 147 151
f 286 283 285
f 287 284 286
f 278 277 287
f 288 151 156
f 289 285 288
f 290 286 289
f 291 287 290
f 279 278 291
f 292 156 162
f 293 288 292
f 294 289 293
f 295 290 294
f 296 291 295
f 280 279 296
f 297 162 169
f 298 292 297
f 299 293 298
f 300 294 299
f 301 295 300
f 302 296 301
f 281 280 302
f 275 142 282
f 282 144 283
f 276 282 284
f 283 147 285
f 284 283 286
f 277 284 287
f 285 151 288
f 286 285 289
f 287 286 290
f 278 287 291
f 288 156 292
f 289 288 293
f 290 289 294
f 291 290 295
f 279 291 296
f 292 162 297
f 293 292 298
f 294 293 299
f 295 294 300
f 296 295 301
f 280 296 302
f 163 120 170
f 303 170 172
f 164 163 303
f 304 172 175
f 305 303 304
f 165 164 305
f 306 175 179
f 307 304 306
f 308 305 307
f 166 165 308
f 309 179 184
f 310 306 309
f 311 307 310
f 312 308 311
f 167 166 312
f 313 184 190
f 314 309 313
f 315 310 314
f 316 311 315
f 317 312 316
f 168 167 317
f 318 190 197
f 319 313 318
f 320 314 319
f 321 315 320
f 322 316 321
f 323 317 322
f 169 168 323
f 163 170 303
f 303 172 304
f 164 303 305
f 304 175 306
f 305 304 307
f 165 305 308
f 306 179 309
f 307 306 310
f 308 307 311
f 166 308 312
f 309 184 313
f 310 309 314
f 311 310 315
f 312 311 316
f 167 312 317
f 313 190 318
f 314 313 319
f 315 314 320
f 316 315 321
f 317 316 322
f 168 317 323
f 191 92 198
f 324 198 200
f 192 191 324
f 325 200 203
f 326 324 325
f 193 192 326
f 327 203 207
f 328 325 327
f 329 326 328
f 194 193 329
f 330 207 212
f 331 327 330
f 332 328 331
f 333 329 332
f 195 194 333
f 334 212 218
f 335 330 334
f 336 331 335
f 337 332 336
f 338 333 337
f 196 195 338
f 339 218 225
f 340 334 339
f 341 335 340
f 342 336 341
f 343 337 342
f 344 338 343
f 197 196 344
f 191 198 324
f 324 200 325
f 192 324 326
f 325 203 327
f 326 325 328
f 193 326 329
f 327 207 330
f 328 327 331
f 329 328 332
f 194 329 333
f 330 212 334
f 331 330 335
f 332 331 336
f 333 332 337
f 195 333 338
f 334 218 339
f 335 334 340
f 336 335 341
f 337 336 342
f 338 337 343
f 196 338 344
f 219 64 226
f 345 226 228
f 220 219 345
f 346 228 231
f 347 345 346
f 221 220 347
f 348 231 235
f 349 346 348
f 350 347 349
f 222 221 350
f 351 235 240
f 352 348 351
f 353 349 352
f 354 350 353
f 223 222 354
f 355 240 246
f 356 351 355
f 357 352 356
f 358 353 357
f 359 354 358
f 224 223 359
f 360 246 253
f 361 355 360
f 362 356 361
f 363 357 362
f 364 358 363
f 365 359 364
f 225 224 365
f 219 226 345
f 345 228 346
f 220 345 347
f 346 231 348
f 347 346 349
f 221 347 350
f 348 235 351
f 349 348 352
f 350 349 353
f 222 350 354
f 351 240 355
f 352 351 356
f 353 352 357
f 354 353 358
f 223 354 359
f 355 246 360
f 356 355 361
f 357 356 362
f 358 357 363
f 359 358 364
f 224 359 365
f 247 36 254
f 366 254 256
f 248 247 366
f 367 256 259
f 368 366 367
f 249 248 368
f 369 259 263
f 370 367 369
f 371 368 370
f 250 249 371
f 372 263 268
f 373 369 372
f 374 370 373
f 375 371 374
f 251 250 375
f 376 268 274
f 377 372 376
f 378 373 377
f 379 374 378
f 380 375 379
f 252 251 380
f 381 274 281
f 382 376 381
f 383 377 382
f 384 378 383
f 385 379 384
f 386 380 385
f 253 252 386
f 247 254 366
f 366 256 367
f 248 366 368
f 367 259 369
f 368 367 370
f 249 368 371
f 369 263 372
f 370 369 373
f 371 370 374
f 250 371 375
f 372 268 376
f 373 372 377
f 374 373 378
f 375 374 379
f 251 375 380
f 376 274 381
f 377 376 382
f 378 377 383
f 379 378 384
f 380 379 385
f 252 380 386
f 389 387 388
f 391 388 390
f 392 389 391
f 394 390 393
f 395 391 394
f 396 392 395
f 398 393 397
f 399 394 398
f 400 395 399
f 401 396 400
f 403 397 402
f 404 398 403
f 405 399 404
f 406 400 405
f 407 401 406
f 409 402 408
f 410 403 409
f 411 404 410
f 412 405 411
f 413 406 412
f 414 407 413
f 302 408 281
f 301 409 302
f 300 410 301
f 299 411 300
f 298 412 299
f 297 413 298
f 169 414 297
f 389 388 391
f 391 390 394
f 392 391 395
f 394 393 398
f 395 394 399
f 396 395 400
f 398 397 403
f 399 398 404
f 400 399 405
f 401 400 406
f 403 402 409
f 404 403 410
f 405 404 411
f 406 405 412
f 407 406 413
f 409 408 302
f 410 409 301
f 411 410 300
f 412 411 299
f 413 412 298
f 414 413 297
f 388 387 415
f 417 415 416
f 390 388 417
f 419 416 418
f 420 417 419
f 393 390 420
f 422 418 421
f 423 419 422
f 424 420 423
f 397 393 424
f 426 421 425
f 427 422 426
f 428 423 427
f 429 424 428
f 402 397 429
f 431 425 430
f 432 426 431
f 433 427 432
f 434 428 433
f 435 429 434
f 408 402 435
f 386 430 253
f 385 431 386
f 384 432 385
f 383 433 384
f 382 434 383
f 381 435 382
f 281 408 381
f 388 415 417
f 417 416 419
f 390 417 420
f 419 418 422
f 420 419 423
f 393 420 424
f 422 421 426
f 423 422 427
f 424 423 428
f 397 424 429
f 426 425 431
f 427 426 432
f 428 427 433
f 429 428 434
f 402 429 435
f 431 430 386
f 432 431 385
f 433 432 384
f 434 433 383
f 435 434 382
f 408 435 381
f 415 387 436
f 438 436 437
f 416 415 438
f 440 437 439
f 441 438 440
f 418 416 441
f 443 439 442
f 444 440 443
f 445 441 444
f 421 418 445
f 447 442 446
f 448 443 447
f 449 444 448
f 450 445 449
f 425 421 450
f 452 446 451
f 453 447 452
f 454 448 453
f 455 449 454
f 456 450 455
f 430 425 456
f 365 451 225
f 364 452 365
f 363 453 364
f 362 454 363
f 361 455 362
f 360 456 361
f 253 430 360
f 415 436 438
f 438 437 440
f 416 438 441
f 440 439 443
f 441 440 444
f 418 441 445
f 443 442 447
f 444 443 448
f 445 444 449
f 421 445 450
f 447 446 452
f 448 447 453
f 449 448 454
f 450 449 455
f 425 450 456
f 452 451 365
f 453 452 364
f 454 453 363
f 455 454 362
f 456 455 361
f 430 456 360
f 436 387 457
f 459 457 458
f 437 436 459
f 461 458 460
f 462 459 461
f 439 437 462
f 464 460 463
f 465 461 464
f 466 462 465
f 442 439 466
f 468 463 467
f 469 464 468
f 470 465 469
f 471 466 470
f 446 442 471
f 473 467 472
f 474 468 473
f 475 469 474
f 476 470 475
f 477 471 476
f 451 446 477
f 344 472 197
f 343 473 344
f 342 474 343
f 341 475 342
f 340 476 341
f 339 477 340
f 225 451 339
f 436 457 459
f 459 458 461
f 437 459 462
f 461 460 464
f 462 461 465
f 439 462 466
f 464 463 468
f 465 464 469
f 466 465 470
f 442 466 471
f 468 467 473
f 469 468 474
f 470 469 475
f 471 470 476
f 446 471 477
f 473 472 344
f 474 473 343
f 475 474 342
f 476 475 341
f 477 476 340
f 451 477 339
f 457 387 389
f 478 389 392
f 458 457 478
f 479 392 396
f 480 478 479
f 460 458 480
f 481 396 401
f 482 479 481
f 483 480 482
f 463 460 483
f 484 401 407
f 485 481 484
f 486 482 485
f 487 483 486
f 467 463 487
f 488 407 414
f 489 484 488
f 490 485 489
f 491 486 490
f 492 487 491
f 472 467 492
f 323 414 169
f 322 488 323
f 321 489 322
f 320 490 321
f 319 491 320
f 318 492 319
f 197 472 318
f 457 389 478
f 478 392 479
f 458 478 480
f 479 396 481
f 480 479 482
f 460 480 483
f 481 401 484
f 482 481 485
f 483 482 486
f 463 483 487
f 484 407 488
f 485 484 489
f 486 485 490
f 487 486 491
f 467 487 492
f 488 414 323
f 489 488 322
f 490 489 321
f 491 490 320
f 492 491 319
f 472 492 318
