# File exported by Houdini 20.5.445 (www.sidefx.com)
# 492 points
# 2940 vertices
# 980 primitives
# Bounds: [-188.262054, -192.878326, -1053.48926] to [359.03595, 309.255432, -701.311768]
g 
v 169.279022 56.0956726 -1048.18982
v 167.536774 89.0279312 -1036.97473
v 198.134918 74.7420502 -1043.00317
v 166.025238 118.864632 -1020.97986
v 198.99588 109.924095 -1025.68701
v 226.108124 92.022995 -1028.1499
v 165.699066 145.005768 -1002.60303
v 200.831085 139.49649 -1005.38391
v 229.555084 127.035637 -1006.34497
v 253.587677 106.987213 -1006.35242
v 166.078156 168.269104 -983.55835
v 203.572113 164.614044 -985.172974
v 234.038239 155.582825 -984.782471
v 259.531464 140.707733 -982.792969
v 280.530792 119.027946 -981.567139
v 166.365936 190.571899 -964.697388
v 205.612274 187.264954 -966.056763
v 238.388275 180.159302 -965.185791
v 265.720245 168.237152 -961.80249
v 288.382294 151.112854 -958.447998
v 306.13858 127.337364 -957.199585
v 165.785736 213.638062 -946.614502
v 205.562775 209.91684 -947.772949
v 240.407196 203.431244 -947.100464
v 270.19986 192.915344 -943.407715
v 295.018158 177.933044 -938.765381
v 314.740204 157.767914 -935.627197
v 328.794037 131.259979 -935.314087
v 163.259308 237.693817 -930.067749
v 202.600433 234.286316 -930.074829
v 238.575531 227.948059 -929.370117
v 270.534943 217.696289 -926.268677
v 297.964264 203.148407 -921.520264
v 320.208771 184.000702 -917.485596
v 336.523895 159.91983 -915.826294
v 346.464691 130.990601 -916.898315
v 187.691803 32.8641968 -1053.48926
v 218.322601 51.228981 -1045.86548
v 203.137665 8.71029091 -1052.84607
v 245.931122 68.1567688 -1028.33459
v 233.950897 27.58741 -1042.68677
v 214.361603 -15.9277458 -1046.61279
v 271.814545 82.5316925 -1004.88391
v 260.367462 44.3939819 -1023.43225
v 243.916718 3.22031403 -1034.82642
v 219.938751 -41.7731552 -1036.54504
v 296.748505 93.2821045 -979.271118
v 284.653595 57.6453629 -999.356445
v 268.664581 19.1434593 -1014.75293
v 247.476349 -23.0305672 -1023.50232
v 220.332794 -68.0814438 -1022.37537
v 320.407501 99.3460236 -954.1521
v 308.112762 65.9795914 -973.243652
v 291.633453 30.1189766 -990.144165
v 270.591034 -8.94753265 -1002.43005
v 245.509674 -50.5986557 -1007.40369
v 216.355438 -92.8550873 -1002.48401
v 341.069 100.418488 -930.92688
v 330.293854 68.4953842 -946.732422
v 314.063568 34.7510681 -962.410278
v 292.311249 -1.26521492 -975.731323
v 266.682587 -39.2789383 -983.793457
v 238.693939 -77.72509 -984.425659
v 208.732025 -114.228127 -976.898926
v 150.845306 23.5294151 -1047.30115
v 167.594696 -3.91036224 -1049.45752
v 129.172821 -7.36281586 -1034.91138
v 180.322601 -30.7874985 -1045.33984
v 143.827545 -37.1871338 -1032.64453
v 103.353119 -35.3029633 -1013.08936
v 188.20578 -58.0768509 -1036.80603
v 154.174408 -66.084816 -1025.6958
v 116.509674 -67.0397263 -1007.30322
v 74.1651917 -60.3554153 -986.25708
v 191.130951 -86.0068893 -1024.43005
v 159.867645 -95.8321686 -1015.521
v 125.474091 -98.3966827 -998.629395
v 87.1013489 -94.5696259 -978.545654
v 44.044281 -83.6212311 -959.394775
v 189.354645 -112.440605 -1005.9353
v 160.611237 -125.059929 -1000.05408
v 129.351593 -130.069672 -986.327148
v 94.7082214 -127.916954 -967.951538
v 56.1499329 -119.526604 -949.648438
v 14.5339661 -105.022896 -934.243774
v 182.95993 -135.141144 -979.707031
v 155.549896 -150.540497 -975.793457
v 126.141876 -158.667847 -965.426025
v 94.1184387 -158.777405 -950.067139
v 59.1824036 -151.608673 -933.338745
v 22.0340881 -138.993225 -919.104126
v -15.8973083 -121.823845 -909.207642
v 138.137726 58.1221619 -1041.18604
v 115.476105 25.7029686 -1035.28333
v 104.888519 60.6339798 -1032.90674
v 89.6628113 -2.71749115 -1018.34045
v 78.2024231 29.8969154 -1023.45605
v 69.4462585 64.5577927 -1023.93945
v 60.0942078 -26.8884888 -994.193237
v 48.4670105 5.01150703 -1004.07263
v 39.1374207 37.1541672 -1011.79333
v 33.2147522 71.5385513 -1012.55432
v 28.4293518 -48.5038452 -967.577515
v 15.9704285 -15.3939247 -979.005371
v 6.15664673 16.544302 -990.542358
v -0.371002197 48.6252708 -998.146118
v -2.61831665 82.4701614 -997.729736
v -2.62796021 -70.1745224 -941.756226
v -17.0362549 -35.1906967 -952.615723
v -28.528595 -1.3453064 -964.977051
v -36.2253113 31.4471436 -975.85376
v -39.2165833 63.8210449 -981.79895
v -37.1806946 96.8562775 -979.907104
v -33.8098755 -91.106987 -917.328735
v -50.143219 -56.7109146 -927.647095
v -64.1592102 -20.8176613 -939.481201
v -74.2095642 14.6622143 -950.916748
v -78.6130676 48.7311325 -959.656372
v -76.8594971 81.3073425 -963.369263
v -69.8268738 112.975288 -960.74585
v 133.534332 91.7436447 -1031.16919
v 98.9148865 94.229187 -1024.5719
v 129.741425 120.964973 -1016.53491
v 63.9309387 98.1903458 -1015.67346
v 94.2995911 123.243843 -1010.2207
v 127.438812 146.554993 -998.822021
v 29.1446838 105.588448 -1002.61731
v 59.7437439 128.164551 -999.84021
v 91.4756165 149.934418 -991.462158
v 126.490143 170.789459 -979.227051
v -5.70480347 117.410469 -985.292603
v 25.1603088 137.562408 -984.550903
v 56.4867249 157.571594 -979.089844
v 89.7658997 177.155701 -970.237183
v 126.120331 195.986023 -959.047485
v -40.6706238 133.440918 -964.685547
v -10.6855469 152.725342 -964.772705
v 20.3653259 171.603119 -961.542969
v 53.0246887 190.061188 -955.862183
v 87.9080505 207.575256 -948.361206
v 124.969696 223.616852 -939.541992
v 134.27536 254.213928 -921.026611
v 91.6492004 240.607147 -928.75
v 102.93222 270.499725 -912.872192
v 52.5624695 224.781647 -934.917969
v 57.9198303 256.997833 -918.780151
v 70.0263977 284.338837 -905.493774
v 16.7475281 207.100281 -939.605957
v 17.9454041 240.48587 -922.635132
v 24.0455017 270.052612 -909.368408
v 36.8276062 293.643402 -898.620239
v -16.7336121 187.80603 -942.93042
v -18.4120483 221.184418 -924.980103
v -16.038269 251.501038 -910.845703
v -8.64718628 277.443695 -899.841919
v 4.66378784 297.774231 -891.478882
v -49.0244141 166.698242 -944.599121
v -52.9691467 198.768433 -926.282104
v -52.9312744 228.627991 -910.966919
v -48.550293 255.485657 -898.820435
v -39.4424438 278.853973 -889.914917
v -24.8852539 296.239471 -883.503296
v -81.3437805 142.580597 -944.196655
v -88.15802 171.852142 -927.042114
v -90.228302 200.001404 -911.245728
v -87.6972351 226.989166 -897.986938
v -80.4133301 252.269409 -887.877319
v -67.9788513 273.575775 -880.70752
v -50.751709 287.941467 -875.405762
v -105.943359 107.676819 -945.052734
v -114.226837 70.6961365 -944.354492
v -137.651642 97.3755875 -929.38147
v -114.614563 33.302494 -938.166138
v -144.005768 55.6161728 -926.183594
v -163.083405 83.9068146 -912.937866
v -107.652252 -4.75458908 -928.280151
v -141.700256 14.9835415 -918.093628
v -166.134094 38.9035416 -907.046265
v -180.249542 68.3123627 -894.694824
v -95.107605 -42.9646378 -916.127563
v -132.51416 -25.2799683 -906.608887
v -161.016876 -4.17320251 -896.682129
v -179.81604 20.7238579 -885.633667
v -188.245026 50.569664 -873.978027
v -78.607666 -80.6094284 -903.12439
v -118.023651 -65.5045853 -892.547852
v -149.797394 -46.7985306 -882.689941
v -172.377838 -24.7864227 -872.153687
v -185.154114 0.798618317 -861.067017
v -188.262054 30.8521767 -850.587891
v -58.4146118 -115.343147 -890.801147
v -98.504364 -104.057106 -876.175171
v -132.796021 -88.4788132 -864.06897
v -158.859528 -69.2206116 -852.771851
v -175.459137 -46.5945969 -841.785767
v -182.851318 -20.364975 -831.917114
v -182.364532 10.0458641 -824.399414
v -23.7338867 -144.017151 -886.557861
v 16.2493591 -161.812958 -895.318726
v -31.1326904 -159.858093 -860.447266
v 53.0710144 -174.293335 -909.399658
v 9.67996216 -176.840424 -869.522339
v -37.4863892 -170.799469 -833.074463
v 87.3146057 -179.831482 -924.822144
v 46.0323181 -187.408112 -883.625122
v 3.1010437 -185.617798 -843.102051
v -42.1763 -177.110474 -806.342651
v 119.522858 -176.831543 -937.864746
v 80.2605286 -189.799347 -897.995117
v 39.2011414 -192.878326 -857.569092
v -2.37484741 -188.323669 -818.026978
v -44.1929321 -177.810455 -782.449707
v 150.601349 -164.701691 -946.377441
v 114.031403 -182.750305 -909.453979
v 74.3545227 -190.771606 -871.164917
v 33.9656677 -190.81073 -832.87146
v -5.22946167 -183.985901 -795.966309
v -42.4448242 -171.858765 -763.022095
v 181.347748 -144.079041 -949.195923
v 148.656036 -165.504059 -916.505005
v 111.089752 -177.823029 -881.32666
v 71.3934021 -182.300629 -845.599854
v 32.4668274 -179.885406 -810.588257
v -3.52719116 -171.666962 -777.452759
v -35.9481506 -159.312042 -748.428711
v 218.171234 -110.44297 -954.401001
v 252.63913 -72.5565567 -959.460327
v 226.651215 -103.816216 -929.991821
v 284.023163 -34.8045959 -956.50354
v 265.266449 -66.2645187 -933.542358
v 233.748199 -93.6700363 -905.196045
v 311.673615 1.75507545 -947.309326
v 298.862518 -29.6350975 -929.647827
v 274.958832 -57.1504135 -908.021729
v 238.758698 -78.7192001 -881.409546
v 333.575226 37.2298203 -934.726807
v 326.492218 6.62994385 -920.982056
v 308.57309 -20.6996498 -904.484741
v 279.612091 -42.7720108 -884.353882
v 239.970184 -58.8077011 -859.963135
v 348.223724 72.4618301 -921.41333
v 346.219025 43.8326149 -910.669922
v 333.752228 17.3732147 -897.837402
v 310.175873 -4.95419693 -882.439331
v 276.850983 -22.199337 -863.883667
v 235.191681 -34.5221558 -841.939453
v 355.995453 108.453766 -908.623901
v 357.297791 83.5879211 -900.412598
v 348.875763 59.1837082 -890.781006
v 329.7659 37.2854118 -878.872314
v 300.601898 18.7453232 -864.388184
v 264.175079 4.14961052 -847.246094
v 222.861053 -7.28411102 -827.639648
v 353.019012 148.298035 -901.518188
v 339.677704 180.600983 -901.337769
v 350.763947 165.829346 -890.588745
v 319.447174 206.524017 -903.739624
v 333.625824 199.784882 -891.476318
v 339.356232 182.558533 -882.189575
v 293.629608 226.81311 -907.707642
v 309.931427 226.753235 -894.025146
v 319.320648 216.951111 -883.733643
v 319.196747 197.7258 -874.994629
v 262.792755 242.204132 -911.626709
v 280.871857 248.088531 -897.381836
v 292.783234 244.561188 -886.276245
v 296.953522 231.856171 -877.148193
v 291.035553 210.801758 -868.361938
v 226.455658 252.830292 -914.062134
v 245.740204 264.210205 -900.525269
v 259.784515 266.66095 -889.36377
v 267.120758 259.570038 -879.950562
v 266.236176 243.958008 -871.342285
v 256.135162 221.520081 -861.947754
v 183.881622 258.794891 -915.475342
v 202.407684 274.770172 -902.93811
v 217.750946 282.800018 -892.457642
v 227.96463 281.357727 -883.314819
v 231.266388 270.837677 -874.804932
v 227.161957 252.932312 -865.525513
v 216.35495 229.716888 -855.210449
v 152.794159 276.699677 -907.128906
v 119.978912 291.214874 -900.383301
v 169.161102 290.737122 -895.942383
v 85.8711853 301.512543 -895.030273
v 134.542755 301.31134 -890.739868
v 182.072418 295.002777 -886.76416
v 50.8670959 307.323242 -890.102173
v 97.9211121 307.685791 -886.81665
v 144.561432 301.419128 -882.39563
v 189.163422 289.479401 -878.046875
v 16.6144104 307.691467 -884.112671
v 60.3816833 309.255432 -882.486328
v 105.071808 302.975647 -878.473999
v 148.736542 290.933502 -873.12146
v 189.408722 274.371826 -868.315186
v -15.1174622 300.627533 -875.842041
v 23.5398865 303.77829 -875.55481
v 64.4334412 298.167389 -872.503662
v 105.856903 286.012177 -866.930908
v 145.648163 269.591187 -860.642578
v 182.456085 250.775574 -856.475464
v -118.367249 137.408417 -928.940918
v -148.652618 127.291801 -914.272705
v -124.066162 165.419952 -912.768433
v -170.683533 114.479576 -898.905518
v -151.423889 155.636963 -899.647949
v -123.638336 193.03598 -898.577271
v -182.758514 98.8167953 -881.559814
v -168.519135 143.140198 -885.956787
v -146.449677 183.680695 -887.30835
v -117.073914 220.288055 -887.106567
v -185.26236 79.9057617 -860.983887
v -174.938202 127.134666 -869.655884
v -157.72467 171.232605 -875.033081
v -134.023468 211.089752 -877.327881
v -104.069824 245.601288 -878.366455
v -180.194031 57.3926697 -836.13269
v -171.953461 106.23465 -848.243164
v -158.013733 153.745453 -858.477173
v -138.643188 197.444519 -865.214111
v -114.030182 235.234222 -868.891724
v -84.5444641 265.645355 -871.564331
v -69.2397156 -136.159485 -863.890015
v -77.1661072 -150.367676 -834.546631
v -108.576691 -123.931343 -846.040527
v -81.7529907 -159.936005 -805.177246
v -114.056305 -137.333313 -814.78894
v -139.444702 -107.622276 -831.404541
v -82.8307495 -164.516663 -777.570679
v -115.109863 -145.730591 -784.249023
v -140.798431 -120.189384 -798.713623
v -160.708801 -87.315033 -818.472046
v -79.6584167 -162.696655 -753.447632
v -111.678619 -148.034241 -755.557251
v -137.378082 -126.571617 -766.758179
v -157.212311 -97.9066544 -784.835449
v -172.187866 -62.1750412 -807.321777
v -70.9728088 -153.20224 -734.374146
v -102.494446 -142.236938 -730.658325
v -128.596405 -124.635872 -737.068359
v -148.79776 -99.6380844 -752.411011
v -163.787628 -67.6853867 -774.259888
v -174.800934 -30.3149796 -799.309082
v 186.671967 -138.195465 -923.32959
v 190.419769 -127.308952 -897.723267
v 150.109772 -155.360352 -889.584717
v 193.578705 -111.156456 -873.584106
v 150.956879 -139.276459 -864.725098
v 110.425873 -163.584137 -855.393677
v 195.777924 -90.1138 -851.353271
v 152.148895 -117.895226 -842.084351
v 110.103729 -143.081451 -832.127563
v 70.0862732 -164.624481 -821.526611
v 194.787933 -64.3198166 -831.512939
v 152.478973 -91.6198578 -821.177124
v 110.049164 -117.207359 -810.619995
v 69.1433411 -140.495575 -799.490967
v 31.0082092 -159.532776 -788.003906
v 187.487762 -34.3752098 -814.72998
v 148.615021 -60.5892868 -802.09729
v 107.841766 -86.259201 -789.953491
v 67.1677551 -110.720512 -778
v 28.7385559 -132.341705 -766.146973
v -5.81130981 -148.942932 -755.407593
v 359.03595 125.691841 -893.420776
v 350.91922 143.227295 -882.798584
v 354.138885 102.459984 -885.554565
v 332.551788 159.74585 -874.114258
v 338.621979 121.042122 -874.673584
v 338.157501 80.4815979 -875.997559
v 304.904205 174.707397 -866.014648
v 312.470245 138.20343 -864.963989
v 314.679718 100.434807 -864.24353
v 311.202057 60.6837082 -863.748413
v 268.925507 187.940735 -857.743164
v 276.728973 153.665894 -854.781982
v 280.345612 118.546394 -852.451172
v 279.850494 81.7658997 -850.088623
v 274.630646 43.30867 -848.210938
v 225.813873 199.139252 -848.624268
v 232.11734 167.098328 -843.120728
v 235.694244 134.209778 -838.389771
v 236.78537 99.8786469 -834.402954
v 235.093414 64.1292572 -831.088867
v 230.885712 27.9816895 -828.72168
v -31.0881653 76.9859695 -737.891968
v -0.767547607 107.934258 -753.68042
v -37.4224243 119.364738 -761.430664
v 31.388092 135.951843 -772.255493
v -4.99356079 153.581818 -779.481445
v -40.9353638 162.886108 -790.099609
v 65.5660095 160.70755 -791.404053
v 28.2780457 181.628906 -798.172485
v -6.94082642 197.101898 -807.677612
v -43.473877 204.01123 -817.841431
v 102.334747 182.255951 -810.004395
v 63.620636 204.401154 -815.423096
v 27.4324646 223.045135 -824.390381
v -8.50949097 235.813599 -832.844482
v -46.4049683 239.2453 -840.265503
v 141.089752 200.855804 -827.327515
v 101.742279 222.897552 -830.808472
v 63.9292908 242.682343 -838.645996
v 26.738678 258.446869 -846.67395
v -10.8196716 267.378021 -852.186035
v -49.5384521 265.74588 -856.234741
v 179.943695 216.771423 -842.675293
v 142.029388 238.13623 -844.427246
v 103.541107 257.83139 -850.534424
v 64.4372864 274.603149 -857.98938
v 25.1864929 286.141479 -863.451904
v -13.575531 289.563721 -865.88562
v -51.5851746 281.943024 -867.119873
v -2.70956421 57.779274 -732.651367
v 29.3132629 42.0677299 -737.075073
v 32.2432556 88.7652893 -751.461304
v 64.7434387 30.2145386 -749.005371
v 67.5917664 73.8799591 -758.391235
v 67.8471985 116.424995 -772.14856
v 103.204681 21.4347954 -766.250977
v 105.322357 62.5134048 -771.779785
v 105.976898 102.085571 -780.647461
v 104.955109 141.143066 -793.145996
v 143.637848 13.2593193 -786.241455
v 145.703766 52.6312637 -789.270996
v 146.146637 90.4140091 -794.715942
v 145.848907 126.820976 -802.711548
v 144.194855 162.994751 -813.535278
v 184.279144 3.62388992 -807.011963
v 188.113678 41.5131569 -808.72522
v 189.026703 78.4659882 -812.109009
v 189.326447 114.084938 -817.088013
v 187.984467 148.270538 -823.890625
v 185.056976 182.235504 -832.460693
v -42.2443542 32.3936081 -720.329712
v -49.7478638 -10.2530136 -708.215088
v -10.6662598 12.8464451 -719.200806
v -53.9411316 -49.3427048 -702.513794
v -15.0190125 -27.3658676 -712.942627
v 24.0864563 -1.15565109 -728.876831
v -55.1090698 -83.8323364 -704.110596
v -16.6117249 -62.8126831 -713.88208
v 22.254364 -38.3122559 -728.405029
v 61.8873596 -10.3227272 -745.753174
v -53.0121155 -113.58532 -712.761597
v -16.0002441 -94.4289627 -721.518555
v 22.5098572 -71.5295029 -734.674927
v 61.9756775 -45.55439 -749.825073
v 102.334747 -17.354599 -766.859619
v -46.7628479 -138.690521 -727.661377
v -12.6681519 -123.057762 -735.211182
v 24.5308533 -102.571037 -747.039185
v 63.962738 -78.4446716 -760.311401
v 104.400665 -52.2496872 -774.520142
v 144.792511 -24.9640045 -790.054077
v -63.7597656 69.6945038 -739.552002
v -92.9150085 61.3960724 -747.126587
v -76.7945557 19.1358986 -719.787598
v -118.211548 51.7075577 -758.429199
v -105.665558 6.40799904 -726.27124
v -84.5664062 -26.6574745 -706.829224
v -139.74115 40.7559624 -771.955688
v -129.384552 -5.62042236 -737.963989
v -112.438629 -41.1528397 -713.592407
v -88.2412415 -66.9739151 -701.311768
v -157.776703 29.3895988 -787.249512
v -148.503174 -16.3091431 -754.145508
v -134.446381 -53.3060303 -727.194946
v -114.708771 -81.6339417 -709.60437
v -87.9473877 -101.439659 -704.08252
v -172.197906 18.7389946 -804.674683
v -163.604614 -24.8020477 -774.589844
v -151.411896 -62.4470291 -747.35376
v -134.709473 -92.8230667 -726.48999
v -112.06723 -115.264915 -715.114258
v -82.7574768 -130.111511 -715.189575
v -70.6427612 116.338737 -769.632324
v -74.6686401 161.328461 -801.058838
v -99.2816467 110.545105 -781.409912
v -78.3206787 201.169189 -827.978638
v -103.649628 154.980194 -812.926025
v -124.229095 101.233124 -794.033569
v -82.2002258 232.885498 -848.128784
v -108.200592 191.729095 -838.131958
v -129.276062 143.215332 -824.270508
v -146.15686 88.4566498 -806.744995
v -85.0569458 254.631897 -861.877563
v -112.518555 218.819946 -856.332275
v -134.712341 175.593262 -847.915283
v -152.236603 126.408531 -835.523438
v -165.136536 73.1995773 -820.342041
g 
f 3 1 2
f 5 2 4
f 6 3 5
f 8 4 7
f 9 5 8
f 10 6 9
f 12 7 11
f 13 8 12
f 14 9 13
f 15 10 14
f 17 11 16
f 18 12 17
f 19 13 18
f 20 14 19
f 21 15 20
f 23 16 22
f 24 17 23
f 25 18 24
f 26 19 25
f 27 20 26
f 28 21 27
f 30 22 29
f 31 23 30
f 32 24 31
f 33 25 32
f 34 26 33
f 35 27 34
f 36 28 35
f 3 2 5
f 5 4 8
f 6 5 9
f 8 7 12
f 9 8 13
f 10 9 14
f 12 11 17
f 13 12 18
f 14 13 19
f 15 14 20
f 17 16 23
f 18 17 24
f 19 18 25
f 20 19 26
f 21 20 27
f 23 22 30
f 24 23 31
f 25 24 32
f 26 25 33
f 27 26 34
f 28 27 35
f 37 1 3
f 38 3 6
f 39 37 38
f 40 6 10
f 41 38 40
f 42 39 41
f 43 10 15
f 44 40 43
f 45 41 44
f 46 42 45
f 47 15 21
f 48 43 47
f 49 44 48
f 50 45 49
f 51 46 50
f 52 21 28
f 53 47 52
f 54 48 53
f 55 49 54
f 56 50 55
f 57 51 56
f 58 28 36
f 59 52 58
f 60 53 59
f 61 54 60
f 62 55 61
f 63 56 62
f 64 57 63
f 37 3 38
f 38 6 40
f 39 38 41
f 40 10 43
f 41 40 44
f 42 41 45
f 43 15 47
f 44 43 48
f 45 44 49
f 46 45 50
f 47 21 52
f 48 47 53
f 49 48 54
f 50 49 55
f 51 50 56
f 52 28 58
f 53 52 59
f 54 53 60
f 55 54 61
f 56 55 62
f 57 56 63
f 65 1 37
f 66 37 39
f 67 65 66
f 68 39 42
f 69 66 68
f 70 67 69
f 71 42 46
f 72 68 71
f 73 69 72
f 74 70 73
f 75 46 51
f 76 71 75
f 77 72 76
f 78 73 77
f 79 74 78
f 80 51 57
f 81 75 80
f 82 76 81
f 83 77 82
f 84 78 83
f 85 79 84
f 86 57 64
f 87 80 86
f 88 81 87
f 89 82 88
f 90 83 89
f 91 84 90
f 92 85 91
f 65 37 66
f 66 39 68
f 67 66 69
f 68 42 71
f 69 68 72
f 70 69 73
f 71 46 75
f 72 71 76
f 73 72 77
f 74 73 78
f 75 51 80
f 76 75 81
f 77 76 82
f 78 77 83
f 79 78 84
f 80 57 86
f 81 80 87
f 82 81 88
f 83 82 89
f 84 83 90
f 85 84 91
f 93 1 65
f 94 65 67
f 95 93 94
f 96 67 70
f 97 94 96
f 98 95 97
f 99 70 74
f 100 96 99
f 101 97 100
f 102 98 101
f 103 74 79
f 104 99 103
f 105 100 104
f 106 101 105
f 107 102 106
f 108 79 85
f 109 103 108
f 110 104 109
f 111 105 110
f 112 106 111
f 113 107 112
f 114 85 92
f 115 108 114
f 116 109 115
f 117 110 116
f 118 111 117
f 119 112 118
f 120 113 119
f 93 65 94
f 94 67 96
f 95 94 97
f 96 70 99
f 97 96 100
f 98 97 101
f 99 74 103
f 100 99 104
f 101 100 105
f 102 101 106
f 103 79 108
f 104 103 109
f 105 104 110
f 106 105 111
f 107 106 112
f 108 85 114
f 109 108 115
f 110 109 116
f 111 110 117
f 112 111 118
f 113 112 119
f 2 1 93
f 121 93 95
f 4 2 121
f 122 95 98
f 123 121 122
f 7 4 123
f 124 98 102
f 125 122 124
f 126 123 125
f 11 7 126
f 127 102 107
f 128 124 127
f 129 125 128
f 130 126 129
f 16 11 130
f 131 107 113
f 132 127 131
f 133 128 132
f 134 129 133
f 135 130 134
f 22 16 135
f 136 113 120
f 137 131 136
f 138 132 137
f 139 133 138
f 140 134 139
f 141 135 140
f 29 22 141
f 2 93 121
f 121 95 122
f 4 121 123
f 122 98 124
f 123 122 125
f 7 123 126
f 124 102 127
f 125 124 128
f 126 125 129
f 11 126 130
f 127 107 131
f 128 127 132
f 129 128 133
f 130 129 134
f 16 130 135
f 131 113 136
f 132 131 137
f 133 132 138
f 134 133 139
f 135 134 140
f 22 135 141
f 142 29 141
f 143 141 140
f 144 142 143
f 145 140 139
f 146 143 145
f 147 144 146
f 148 139 138
f 149 145 148
f 150 146 149
f 151 147 150
f 152 138 137
f 153 148 152
f 154 149 153
f 155 150 154
f 156 151 155
f 157 137 136
f 158 152 157
f 159 153 158
f 160 154 159
f 161 155 160
f 162 156 161
f 163 136 120
f 164 157 163
f 165 158 164
f 166 159 165
f 167 160 166
f 168 161 167
f 169 162 168
f 142 141 143
f 143 140 145
f 144 143 146
f 145 139 148
f 146 145 149
f 147 146 150
f 148 138 152
f 149 148 153
f 150 149 154
f 151 150 155
f 152 137 157
f 153 152 158
f 154 153 159
f 155 154 160
f 156 155 161
f 157 136 163
f 158 157 164
f 159 158 165
f 160 159 166
f 161 160 167
f 162 161 168
f 170 120 119
f 171 119 118
f 172 170 171
f 173 118 117
f 174 171 173
f 175 172 174
f 176 117 116
f 177 173 176
f 178 174 177
f 179 175 178
f 180 116 115
f 181 176 180
f 182 177 181
f 183 178 182
f 184 179 183
f 185 115 114
f 186 180 185
f 187 181 186
f 188 182 187
f 189 183 188
f 190 184 189
f 191 114 92
f 192 185 191
f 193 186 192
f 194 187 193
f 195 188 194
f 196 189 195
f 197 190 196
f 170 119 171
f 171 118 173
f 172 171 174
f 173 117 176
f 174 173 177
f 175 174 178
f 176 116 180
f 177 176 181
f 178 177 182
f 179 178 183
f 180 115 185
f 181 180 186
f 182 181 187
f 183 182 188
f 184 183 189
f 185 114 191
f 186 185 192
f 187 186 193
f 188 187 194
f 189 188 195
f 190 189 196
f 198 92 91
f 199 91 90
f 200 198 199
f 201 90 89
f 202 199 201
f 203 200 202
f 204 89 88
f 205 201 204
f 206 202 205
f 207 203 206
f 208 88 87
f 209 204 208
f 210 205 209
f 211 206 210
f 212 207 211
f 213 87 86
f 214 208 213
f 215 209 214
f 216 210 215
f 217 211 216
f 218 212 217
f 219 86 64
f 220 213 219
f 221 214 220
f 222 215 221
f 223 216 222
f 224 217 223
f 225 218 224
f 198 91 199
f 199 90 201
f 200 199 202
f 201 89 204
f 202 201 205
f 203 202 206
f 204 88 208
f 205 204 209
f 206 205 210
f 207 206 211
f 208 87 213
f 209 208 214
f 210 209 215
f 211 210 216
f 212 211 217
f 213 86 219
f 214 213 220
f 215 214 221
f 216 215 222
f 217 216 223
f 218 217 224
f 226 64 63
f 227 63 62
f 228 226 227
f 229 62 61
f 230 227 229
f 231 228 230
f 232 61 60
f 233 229 232
f 234 230 233
f 235 231 234
f 236 60 59
f 237 232 236
f 238 233 237
f 239 234 238
f 240 235 239
f 241 59 58
f 242 236 241
f 243 237 242
f 244 238 243
f 245 239 244
f 246 240 245
f 247 58 36
f 248 241 247
f 249 242 248
f 250 243 249
f 251 244 250
f 252 245 251
f 253 246 252
f 226 63 227
f 227 62 229
f 228 227 230
f 229 61 232
f 230 229 233
f 231 230 234
f 232 60 236
f 233 232 237
f 234 233 238
f 235 234 239
f 236 59 241
f 237 236 242
f 238 237 243
f 239 238 244
f 240 239 245
f 241 58 247
f 242 241 248
f 243 242 249
f 244 243 250
f 245 244 251
f 246 245 252
f 254 36 35
f 255 35 34
f 256 254 255
f 257 34 33
f 258 255 257
f 259 256 258
f 260 33 32
f 261 257 260
f 262 258 261
f 263 259 262
f 264 32 31
f 265 260 264
f 266 261 265
f 267 262 266
f 268 263 267
f 269 31 30
f 270 264 269
f 271 265 270
f 272 266 271
f 273 267 272
f 274 268 273
f 275 30 29
f 276 269 275
f 277 270 276
f 278 271 277
f 279 272 278
f 280 273 279
f 281 274 280
f 254 35 255
f 255 34 257
f 256 255 258
f 257 33 260
f 258 257 261
f 259 258 262
f 260 32 264
f 261 260 265
f 262 261 266
f 263 262 267
f 264 31 269
f 265 264 270
f 266 265 271
f 267 266 272
f 268 267 273
f 269 30 275
f 270 269 276
f 271 270 277
f 272 271 278
f 273 272 279
f 274 273 280
f 275 29 142
f 282 142 144
f 276 275 282
f 283 144 147
f 284 282 283
f 277 276 284
f 285 147 151
f 286 283 285
f 287 284 286
f 278 277 287
f 288 151 156
f 289 285 288
f 290 286 289
f 291 287 290
f 279 278 291
f 292 156 162
f 293 288 292
f 294 289 293
f 295 290 294
f 296 291 295
f 280 279 296
f 297 162 169
f 298 292 297
f 299 293 298
f 300 294 299
f 301 295 300
f 302 296 301
f 281 280 302
f 275 142 282
f 282 144 283
f 276 282 284
f 283 147 285
f 284 283 286
f 277 284 287
f 285 151 288
f 286 285 289
f 287 286 290
f 278 287 291
f 288 156 292
f 289 288 293
f 290 289 294
f 291 290 295
f 279 291 296
f 292 162 297
f 293 292 298
f 294 293 299
f 295 294 300
f 296 295 301
f 280 296 302
f 163 120 170
f 303 170 172
f 164 163 303
f 304 172 175
f 305 303 304
f 165 164 305
f 306 175 179
f 307 304 306
f 308 305 307
f 166 165 308
f 309 179 184
f 310 306 309
f 311 307 310
f 312 308 311
f 167 166 312
f 313 184 190
f 314 309 313
f 315 310 314
f 316 311 315
f 317 312 316
f 168 167 317
f 318 190 197
f 319 313 318
f 320 314 319
f 321 315 320
f 322 316 321
f 323 317 322
f 169 168 323
f 163 170 303
f 303 172 304
f 164 303 305
f 304 175 306
f 305 304 307
f 165 305 308
f 306 179 309
f 307 306 310
f 308 307 311
f 166 308 312
f 309 184 313
f 310 309 314
f 311 310 315
f 312 311 316
f 167 312 317
f 313 190 318
f 314 313 319
f 315 314 320
f 316 315 321
f 317 316 322
f 168 317 323
f 191 92 198
f 324 198 200
f 192 191 324
f 325 200 203
f 326 324 325
f 193 192 326
f 327 203 207
f 328 325 327
f 329 326 328
f 194 193 329
f 330 207 212
f 331 327 330
f 332 328 331
f 333 329 332
f 195 194 333
f 334 212 218
f 335 330 334
f 336 331 335
f 337 332 336
f 338 333 337
f 196 195 338
f 339 218 225
f 340 334 339
f 341 335 340
f 342 336 341
f 343 337 342
f 344 338 343
f 197 196 344
f 191 198 324
f 324 200 325
f 192 324 326
f 325 203 327
f 326 325 328
f 193 326 329
f 327 207 330
f 328 327 331
f 329 328 332
f 194 329 333
f 330 212 334
f 331 330 335
f 332 331 336
f 333 332 337
f 195 333 338
f 334 218 339
f 335 334 340
f 336 335 341
f 337 336 342
f 338 337 343
f 196 338 344
f 219 64 226
f 345 226 228
f 220 219 345
f 346 228 231
f 347 345 346
f 221 220 347
f 348 231 235
f 349 346 348
f 350 347 349
f 222 221 350
f 351 235 240
f 352 348 351
f 353 349 352
f 354 350 353
f 223 222 354
f 355 240 246
f 356 351 355
f 357 352 356
f 358 353 357
f 359 354 358
f 224 223 359
f 360 246 253
f 361 355 360
f 362 356 361
f 363 357 362
f 364 358 363
f 365 359 364
f 225 224 365
f 219 226 345
f 345 228 346
f 220 345 347
f 346 231 348
f 347 346 349
f 221 347 350
f 348 235 351
f 349 348 352
f 350 349 353
f 222 350 354
f 351 240 355
f 352 351 356
f 353 352 357
f 354 353 358
f 223 354 359
f 355 246 360
f 356 355 361
f 357 356 362
f 358 357 363
f 359 358 364
f 224 359 365
f 247 36 254
f 366 254 256
f 248 247 366
f 367 256 259
f 368 366 367
f 249 248 368
f 369 259 263
f 370 367 369
f 371 368 370
f 250 249 371
f 372 263 268
f 373 369 372
f 374 370 373
f 375 371 374
f 251 250 375
f 376 268 274
f 377 372 376
f 378 373 377
f 379 374 378
f 380 375 379
f 252 251 380
f 381 274 281
f 382 376 381
f 383 377 382
f 384 378 383
f 385 379 384
f 386 380 385
f 253 252 386
f 247 254 366
f 366 256 367
f 248 366 368
f 367 259 369
f 368 367 370
f 249 368 371
f 369 263 372
f 370 369 373
f 371 370 374
f 250 371 375
f 372 268 376
f 373 372 377
f 374 373 378
f 375 374 379
f 251 375 380
f 376 274 381
f 377 376 382
f 378 377 383
f 379 378 384
f 380 379 385
f 252 380 386
f 389 387 388
f 391 388 390
f 392 389 391
f 394 390 393
f 395 391 394
f 396 392 395
f 398 393 397
f 399 394 398
f 400 395 399
f 401 396 400
f 403 397 402
f 404 398 403
f 405 399 404
f 406 400 405
f 407 401 406
f 409 402 408
f 410 403 409
f 411 404 410
f 412 405 411
f 413 406 412
f 414 407 413
f 302 408 281
f 301 409 302
f 300 410 301
f 299 411 300
f 298 412 299
f 297 413 298
f 169 414 297
f 389 388 391
f 391 390 394
f 392 391 395
f 394 393 398
f 395 394 399
f 396 395 400
f 398 397 403
f 399 398 404
f 400 399 405
f 401 400 406
f 403 402 409
f 404 403 410
f 405 404 411
f 406 405 412
f 407 406 413
f 409 408 302
f 410 409 301
f 411 410 300
f 412 411 299
f 413 412 298
f 414 413 297
f 388 387 415
f 417 415 416
f 390 388 417
f 419 416 418
f 420 417 419
f 393 390 420
f 422 418 421
f 423 419 422
f 424 420 423
f 397 393 424
f 426 421 425
f 427 422 426
f 428 423 427
f 429 424 428
f 402 397 429
f 431 425 430
f 432 426 431
f 433 427 432
f 434 428 433
f 435 429 434
f 408 402 435
f 386 430 253
f 385 431 386
f 384 432 385
f 383 433 384
f 382 434 383
f 381 435 382
f 281 408 381
f 388 415 417
f 417 416 419
f 390 417 420
f 419 418 422
f 420 419 423
f 393 420 424
f 422 421 426
f 423 422 427
f 424 423 428
f 397 424 429
f 426 425 431
f 427 426 432
f 428 427 433
f 429 428 434
f 402 429 435
f 431 430 386
f 432 431 385
f 433 432 384
f 434 433 383
f 435 434 382
f 408 435 381
f 415 387 436
f 438 436 437
f 416 415 438
f 440 437 439
f 441 438 440
f 418 416 441
f 443 439 442
f 444 440 443
f 445 441 444
f 421 418 445
f 447 442 446
f 448 443 447
f 449 444 448
f 450 445 449
f 425 421 450
f 452 446 451
f 453 447 452
f 454 448 453
f 455 449 454
f 456 450 455
f 430 425 456
f 365 451 225
f 364 452 365
f 363 453 364
f 362 454 363
f 361 455 362
f 360 456 361
f 253 430 360
f 415 436 438
f 438 437 440
f 416 438 441
f 440 439 443
f 441 440 444
f 418 441 445
f 443 442 447
f 444 443 448
f 445 444 449
f 421 445 450
f 447 446 452
f 448 447 453
f 449 448 454
f 450 449 455
f 425 450 456
f 452 451 365
f 453 452 364
f 454 453 363
f 455 454 362
f 456 455 361
f 430 456 360
f 436 387 457
f 459 457 458
f 437 436 459
f 461 458 460
f 462 459 461
f 439 437 462
f 464 460 463
f 465 461 464
f 466 462 465
f 442 439 466
f 468 463 467
f 469 464 468
f 470 465 469
f 471 466 470
f 446 442 471
f 473 467 472
f 474 468 473
f 475 469 474
f 476 470 475
f 477 471 476
f 451 446 477
f 344 472 197
f 343 473 344
f 342 474 343
f 341 475 342
f 340 476 341
f 339 477 340
f 225 451 339
f 436 457 459
f 459 458 461
f 437 459 462
f 461 460 464
f 462 461 465
f 439 462 466
f 464 463 468
f 465 464 469
f 466 465 470
f 442 466 471
f 468 467 473
f 469 468 474
f 470 469 475
f 471 470 476
f 446 471 477
f 473 472 344
f 474 473 343
f 475 474 342
f 476 475 341
f 477 476 340
f 451 477 339
f 457 387 389
f 478 389 392
f 458 457 478
f 479 392 396
f 480 478 479
f 460 458 480
f 481 396 401
f 482 479 481
f 483 480 482
f 463 460 483
f 484 401 407
f 485 481 484
f 486 482 485
f 487 483 486
f 467 463 487
f 488 407 414
f 489 484 488
f 490 485 489
f 491 486 490
f 492 487 491
f 472 467 492
f 323 414 169
f 322 488 323
f 321 489 322
f 320 490 321
f 319 491 320
f 318 492 319
f 197 472 318
f 457 389 478
f 478 392 479
f 458 478 480
f 479 396 481
f 480 479 482
f 460 480 483
f 481 401 484
f 482 481 485
f 483 482 486
f 463 483 487
f 484 407 488
f 485 484 489
f 486 485 490
f 487 486 491
f 467 487 492
f 488 414 323
f 489 488 322
f 490 489 321
f 491 490 320
f 492 491 319
f 472 492 318
