# File exported by Houdini 20.5.445 (www.sidefx.com)
# 492 points
# 2940 vertices
# 980 primitives
# Bounds: [-99.6169128, -196.787048, -1137.78174] to [270.390808, 313.164154, -617.019348]
g 
v 119.290527 149.080566 -1049.39307
v 117.041077 181.948792 -1031.55127
v 135.857056 155.317291 -1024.19678
v 113.08728 212.003235 -1010.87714
v 132.92749 190.545959 -1000.7099
v 150.922546 159.27243 -995.626282
v 109.026978 238.932281 -988.186951
v 128.450745 220.819336 -974.936707
v 147.252319 195.231018 -967.36261
v 164.534485 159.773254 -963.60675
v 106.769531 262.244171 -963.967712
v 124.696045 246.748932 -948.458435
v 142.906372 224.51886 -937.656433
v 160.824341 194.742889 -931.980164
v 177.490417 155.220673 -928.502625
v 107.260254 281.449921 -938.706604
v 123.700012 268.305054 -921.709656
v 140.551208 248.606293 -908.287415
v 157.680237 221.844757 -899.479187
v 174.730896 187.730011 -894.875671
v 190.497559 145.765625 -890.791565
v 110.128174 296.272217 -912.599548
v 125.689087 285.348572 -894.222351
v 141.561646 267.935242 -878.866028
v 157.645081 243.368927 -867.335022
v 173.807129 211.967621 -860.210266
v 189.674927 174.975983 -855.733704
v 203.70636 132.940887 -851.065979
v 114.490173 306.53717 -886.114197
v 130.031006 297.87677 -865.888733
v 145.791321 282.622162 -848.157166
v 161.543518 260.069092 -834.105652
v 176.961365 230.679993 -824.659729
v 191.960999 196.20108 -818.503357
v 205.760742 158.704315 -814.127625
v 217.036072 119.13578 -810.392029
v 129.869995 117.138435 -1048.61353
v 148.254639 119.836357 -1021.62616
v 137.602417 80.8526611 -1042.52197
v 163.889404 120.197243 -991.289734
v 156.394409 80.8943787 -1013.05316
v 141.812683 40.9026642 -1029.77808
v 177.659363 116.990929 -957.214905
v 172.095703 78.3481598 -980.008728
v 160.470825 38.9334068 -997.594421
v 142.75592 -1.33860588 -1010.32355
v 190.784424 109.73658 -919.419739
v 186.302551 72.5566711 -943.107483
v 176.621338 34.1651421 -961.926819
v 161.628357 -4.9235611 -976.19989
v 141.69696 -43.8241196 -985.798767
v 203.858826 98.9254837 -877.855896
v 200.150269 63.3027916 -901.822571
v 191.880371 26.0390854 -922.060486
v 178.838684 -12.0086861 -938.360413
v 161.289795 -49.3940048 -950.657532
v 140.007935 -84.4806442 -958.515564
v 217.229736 86.1492157 -832.791199
v 214.282043 51.2871208 -855.405945
v 207.338867 14.6140518 -876.624573
v 195.947327 -22.8609505 -895.361633
v 180.156616 -59.3264847 -910.954163
v 160.458069 -92.7655411 -922.800842
v 138.082275 -121.412804 -930.491028
v 108.604004 122.425758 -1071.18872
v 117.368835 85.1559753 -1067.32349
v 96.3414917 94.5674362 -1087.37598
v 122.633362 44.6042938 -1056.5061
v 103.592041 53.4082375 -1078.28345
v 83.4675293 65.5942688 -1097.15381
v 124.313904 1.95915985 -1038.70166
v 106.934631 9.98718643 -1061.90698
v 89.3971558 21.8061371 -1082.18359
v 69.9275513 36.074337 -1100.32983
v 123.097656 -41.3762436 -1014.49921
v 106.676697 -34.4733849 -1038.89209
v 90.8735962 -23.4926872 -1060.40479
v 74.2189941 -9.37094116 -1079.92822
v 55.0011597 7.03659248 -1097.26562
v 120.265015 -83.6654739 -985.349304
v 103.658691 -78.7315521 -1009.8006
v 88.3705444 -69.4042435 -1032.25195
v 73.2799683 -56.0447769 -1053.18408
v 56.8479004 -39.4346466 -1072.38574
v 38.1821289 -20.9177895 -1088.76392
v 117.149902 -123.63102 -953.011536
v 98.862793 -121.352547 -975.236145
v 82.6687012 -114.614174 -997.645203
v 67.3862305 -103.327477 -1019.68683
v 52.2209473 -87.4037704 -1041.08936
v 36.1022339 -68.226265 -1060.45752
v 18.970459 -47.2604294 -1076.23535
v 101.7677 161.014862 -1062.68286
v 89.4073486 133.407104 -1086.32251
v 85.1290283 169.973145 -1075.58789
v 76.510376 105.374962 -1103.02051
v 72.1027832 141.148071 -1099.75
v 70.4248657 177.048767 -1088.11914
v 63.3283691 76.6872559 -1112.32861
v 58.8488159 112.703087 -1115.55005
v 56.9902954 147.322144 -1111.52222
v 57.4604492 183.007935 -1100.30542
v 49.1273193 47.7840538 -1114.01855
v 44.8149414 84.2432404 -1122.83496
v 42.8606567 118.693718 -1125.34229
v 43.225647 152.959229 -1122.05225
v 45.6259766 187.882996 -1111.47437
v 33.1377563 18.7666435 -1108.39258
v 29.1082764 55.3425102 -1121.66064
v 27.1705322 90.2840271 -1129.68457
v 27.5522461 124.564903 -1133.03564
v 30.0668945 158.511322 -1130.7854
v 34.5325928 191.310883 -1119.82812
v 14.2540283 -10.3713608 -1096.34229
v 10.3996582 25.7445717 -1112.21191
v 8.55688477 61.3627663 -1124.45532
v 9.19592285 96.6879349 -1133.3042
v 12.2312622 131.202301 -1137.78174
v 17.3845215 163.664917 -1135.18311
v 23.8292847 193.428223 -1123.33936
v 98.6323853 194.748138 -1045.01147
v 82.8813477 203.948975 -1058.03271
v 94.9720459 224.550964 -1025.23022
v 69.6765747 210.965118 -1070.90356
v 80.612793 233.247986 -1038.39551
v 92.1750488 250.568573 -1003.12567
v 58.1946411 216.134247 -1083.41724
v 68.8464966 239.470764 -1051.09937
v 79.2467651 258.435791 -1016.15448
v 91.4777222 272.708527 -978.997009
v 47.3740234 219.169861 -1094.47021
v 58.2380371 243.278809 -1063.08398
v 68.3672485 263.552948 -1028.04858
v 79.5024414 279.567627 -991.007874
v 93.2599487 290.739349 -952.719299
v 36.3684082 219.874817 -1101.94312
v 47.4177856 244.201416 -1072.88354
v 57.7979126 265.596008 -1038.34741
v 68.7143555 283.277924 -1000.78461
v 81.663208 296.342865 -962.393127
v 97.043335 304.283203 -924.072937
v 106.835144 312.49527 -884.612732
v 87.0452881 308.142578 -927.490173
v 96.7196655 313.164154 -886.597717
v 70.711731 297.803894 -969.252502
v 75.288208 306.382782 -933.884216
v 84.6534424 308.860779 -891.021179
v 57.6541748 282.183411 -1009.73932
v 58.7427979 293.57605 -978.01178
v 62.6357422 299.753937 -941.076477
v 71.522644 300.333801 -896.10614
v 46.368103 262.128204 -1048.02954
v 45.6608276 275.629089 -1019.06232
v 46.1507568 284.832214 -985.845886
v 49.4602051 289.311035 -946.730286
v 57.4906616 288.176971 -900.003479
v 34.8742065 238.337524 -1082.30444
v 33.6691284 253.228546 -1056.49634
v 32.5286865 264.845825 -1025.89404
v 32.5160522 272.755157 -990.22345
v 35.3299561 276.016174 -948.717102
v 42.7415161 273.967377 -901.191345
v 21.7997437 210.968811 -1109.64111
v 20.1338501 226.477295 -1088.65991
v 18.6616821 239.76767 -1060.91406
v 17.1234131 250.666779 -1027.55518
v 16.8510132 258.109161 -988.934021
v 19.7627563 261.029999 -945.696472
v 27.2477417 259.174072 -899.435852
v 8.50134277 177.465637 -1129.4248
v -0.246765137 143.635162 -1136.16406
v -8.1260376 161.807922 -1125.81763
v -6.91223145 107.807793 -1132.79492
v -18.5283203 124.14344 -1126.97778
v -25.8388672 145.512054 -1113.82471
v -10.868042 70.3115997 -1123.31274
v -26.1604614 84.7912445 -1119.07935
v -37.3112488 104.002525 -1110.62476
v -44.0774841 128.184204 -1095.35596
v -11.8093872 31.9168854 -1110.37036
v -30.6130676 44.0688629 -1106.34424
v -45.3904419 61.2936516 -1099.51172
v -55.9651184 83.7360992 -1088.81763
v -61.820343 111.135887 -1071.66675
v -9.6807251 -7.11536026 -1094.6001
v -31.5184021 2.0391655 -1090.48169
v -49.9199829 17.2849007 -1084.05811
v -64.0828552 38.4272804 -1074.89526
v -73.5398254 64.9936371 -1062.09082
v -77.5935364 95.3202744 -1043.91968
v -5.00158691 -47.2297134 -1074.7771
v -28.8051453 -41.5024033 -1070.8689
v -50.4896851 -28.6195259 -1064.59277
v -68.3428345 -8.58217239 -1055.83618
v -81.2007751 17.8246803 -1044.73462
v -88.1977844 48.2627907 -1030.87256
v -89.4083557 79.5442505 -1013.34418
v 8.27667236 -84.6556931 -1051.87793
v 26.1419678 -109.780861 -1030.75903
v -3.65795898 -117.643013 -1024.24707
v 42.8306885 -129.843048 -1007.12872
v 15.4268799 -143.610382 -998.719421
v -15.7358398 -142.697266 -993.240173
v 59.5008545 -143.815521 -983.058167
v 34.0483398 -161.553009 -972.118225
v 5.31085205 -167.080353 -964.22467
v -26.3208008 -157.994476 -959.009949
v 77.0773315 -152.467285 -959.594055
v 53.4383545 -172.6409 -946.287415
v 26.9472046 -181.944397 -935.659729
v -2.42169189 -179.390808 -927.601624
v -33.4305725 -163.928345 -922.716614
v 97.2166138 -156.239532 -937.466858
v 75.4280396 -178.472687 -922.513855
v 50.9312744 -190.332733 -909.202942
v 23.6763916 -191.404053 -898.236023
v -5.46765137 -181.963684 -890.405823
v -34.355957 -162.341309 -886.726379
v 121.52771 -154.578156 -916.055237
v 102.562317 -178.747559 -900.645935
v 80.4085693 -192.934509 -885.472961
v 55.095459 -196.787048 -871.978455
v 27.3703003 -190.72702 -861.2724
v -0.717773438 -176.389954 -854.751038
v -26.5256653 -155.054504 -853.332458
v 151.860535 -136.929993 -899.331238
v 177.246643 -105.852226 -887.082581
v 167.413574 -145.62204 -868.338196
v 197.492249 -70.2361908 -870.463196
v 194.088928 -111.621925 -851.920471
v 182.921204 -146.122284 -836.388367
v 212.354858 -32.0447845 -850.862976
v 213.685303 -73.4834976 -831.277527
v 209.646362 -109.405373 -816.239197
v 197.036194 -137.463074 -802.698914
v 222.458435 7.20134354 -829.11322
v 227.400391 -32.9154358 -808.14447
v 228.394226 -68.6012192 -792.182678
v 223.02417 -98.397316 -779.549255
v 208.6427 -119.599876 -768.690491
v 228.271362 46.5426407 -806.163879
v 236.459473 9.35321808 -783.460144
v 241.453613 -24.7200356 -765.678894
v 241.392456 -54.4491501 -752.36792
v 234.365479 -77.6825485 -742.180542
v 218.4729 -92.6592026 -734.816467
v 230.267517 85.8883667 -783.412292
v 241.441589 53.4763756 -758.604919
v 250.055847 22.686821 -738.054443
v 254.424866 -5.471138 -722.647705
v 252.706177 -29.2657585 -711.859436
v 243.407349 -47.2688904 -705.282898
v 226.43158 -59.0602951 -702.410828
v 224.496704 131.409729 -773.272644
v 212.122864 173.210541 -777.534119
v 231.989258 145.609314 -740.021729
v 197.799194 211.268372 -783.569153
v 218.299072 188.132599 -746.56543
v 238.726929 161.26062 -711.294556
v 182.458313 245.091675 -791.937195
v 202.910828 225.44693 -755.018982
v 223.08313 203.036743 -720.60437
v 242.96875 177.10141 -687.584656
v 166.163757 273.396088 -804.656189
v 186.265198 257.957245 -766.530518
v 205.834106 238.843109 -732.13562
v 224.84198 217.103149 -699.932007
v 242.657227 192.389648 -669.620117
v 148.578552 294.578766 -823.077576
v 167.723633 284.503448 -783.607971
v 186.65271 269.296082 -747.659546
v 204.788574 250.679199 -715.024109
v 221.716064 229.787354 -685.094604
v 236.308411 206.543091 -657.974182
v 129.732422 307.923401 -846.511902
v 146.494202 303.195496 -807.620178
v 163.999146 292.841949 -770.476501
v 181.320679 278.114777 -735.956482
v 197.578735 260.153809 -704.763794
v 211.872498 240.032684 -677.007263
v 222.843018 218.189392 -653.485901
v 121.845886 312.584473 -842.543762
v 111.156006 311.133057 -842.570862
v 137.986938 306.464478 -802.552185
v 98.3630371 304.843506 -845.14679
v 126.543457 303.509338 -801.454651
v 154.598633 295.514648 -764.89978
v 83.7719727 293.923309 -848.826965
v 112.571777 295.241272 -802.885193
v 142.163513 291.443665 -762.990356
v 170.867126 280.457916 -730.004272
v 67.5444336 279.338806 -852.057922
v 96.036438 281.717682 -805.698914
v 126.59436 280.866852 -763.616455
v 157.179504 274.949371 -727.340027
v 185.799255 261.546722 -698.31543
v 49.7342529 262.765533 -853.868103
v 76.8773804 264.270386 -808.746765
v 107.381714 264.171417 -765.890259
v 139.276489 261.399689 -727.245361
v 170.218994 253.641968 -694.751648
v 198.342163 239.163208 -669.948608
v 5.62591553 195.931702 -1112.80029
v -11.3551636 181.766113 -1105.70679
v 3.64318848 211.743164 -1088.05884
v -29.2820435 167.004486 -1090.82837
v -13.6589355 198.338654 -1077.25366
v 1.68603516 225.452667 -1056.32495
v -47.9671326 151.668121 -1069.73047
v -32.3925171 184.826141 -1059.27441
v -16.3137817 212.776093 -1041.86719
v -0.101501465 236.733398 -1018.38141
v -66.0667419 136.133026 -1043.0542
v -51.6920166 170.724731 -1034.9729
v -35.3459778 199.939209 -1020.14642
v -17.7553101 224.18277 -999.350647
v 0.385192871 244.113556 -974.40448
v -81.0091553 118.773293 -1011.30255
v -69.0123596 154.010742 -1004.14606
v -53.4972839 184.602264 -991.072449
v -35.108429 209.962952 -972.269348
v -14.9382935 230.157227 -949.283386
v 5.77667236 246.042542 -924.815857
v -19.3141479 -82.6787643 -1048.71851
v -33.3778381 -109.754539 -1019.92108
v -44.9850159 -72.1399384 -1042.92407
v -45.848999 -127.453239 -988.125549
v -59.1523438 -92.307518 -1012.7951
v -66.9491882 -53.0912552 -1034.47949
v -55.3829346 -136.269348 -953.01825
v -70.1472473 -103.274666 -980.000793
v -79.6594238 -66.4216385 -1002.94708
v -83.7325439 -26.1910019 -1023.71674
v -59.7582397 -137.844757 -914.980042
v -76.8566284 -107.193428 -943.062195
v -87.8571472 -71.9597855 -968.114807
v -93.8208008 -33.606102 -989.930115
v -94.1629944 6.71876526 -1010.341
v -54.723938 -133.428101 -876.291443
v -75.3574524 -105.517555 -902.146301
v -88.9234924 -72.1223068 -927.837585
v -96.8027649 -34.8880615 -951.363342
v -99.6169128 4.0555172 -972.701843
v -96.9778137 42.7034874 -993.253357
v 135.094666 -168.572876 -883.447083
v 149.752075 -172.678284 -852.26825
v 115.005981 -187.470703 -866.907654
v 164.05719 -166.893066 -820.961609
v 128.20105 -185.172119 -835.873474
v 91.3230591 -194.852112 -851.362122
v 176.56366 -150.854645 -788.560364
v 140.862671 -172.411316 -805.48407
v 102.930603 -185.818573 -821.042053
v 64.1428223 -191.598236 -838.075745
v 187.913147 -124.443611 -755.399292
v 152.755493 -148.72757 -774.431702
v 114.425354 -165.912079 -791.894348
v 74.2007446 -175.816895 -808.852478
v 34.6453247 -178.980438 -828.417297
v 198.260193 -88.5445328 -721.93634
v 164.368042 -113.817177 -742.297729
v 126.156921 -134.075104 -762.305847
v 85.0493164 -148.255524 -781.48468
v 43.489502 -156.0242 -801.157532
v 5.13946533 -158.054718 -824.34198
v 240.174072 99.7897263 -742.960083
v 249.21228 116.221504 -708.922546
v 252.861877 70.8292389 -717.449768
v 256.095642 133.81134 -680.912964
v 261.957947 90.1209259 -684.197693
v 261.439514 44.1341362 -697.854065
v 258.496582 151.686859 -658.931396
v 267.102112 110.02404 -657.471741
v 268.851746 66.518631 -665.72644
v 264.146973 20.1604652 -683.957764
v 254.217651 170.078766 -643.34491
v 265.766724 131.156311 -637.252991
v 270.390808 89.7385254 -640.422852
v 267.977478 45.8133049 -653.399597
v 258.919861 -0.24180603 -675.585815
v 240.903687 187.694824 -635.543701
v 254.722717 153.210175 -624.889954
v 262.50177 114.727074 -623.020264
v 263.138367 72.8257294 -630.911804
v 256.73053 28.6394119 -648.20282
v 244.073853 -15.9744682 -672.98114
v 58.5604248 87.3342896 -751.849121
v 91.3115845 114.39843 -717.321289
v 43.722229 119.096611 -763.213623
v 122.824402 140.436279 -685.613953
v 76.4696045 147.176239 -728.586548
v 31.3789673 149.635651 -776.749207
v 152.361084 163.615875 -660.177612
v 107.711731 172.537933 -699.555542
v 64.8834839 176.286377 -743.942566
v 23.7619629 178.793091 -793.476257
v 178.618469 182.944641 -644.177246
v 137.025757 194.455322 -678.440369
v 96.3843384 199.612457 -719.126038
v 57.605957 202.615509 -764.01825
v 21.0970459 205.484589 -814.382629
v 199.905334 198.139465 -638.6297
v 163.088623 212.870392 -666.680237
v 125.454895 220.011902 -702.742798
v 88.6331177 223.604736 -743.740234
v 53.8450317 226.108093 -789.006775
v 21.9526978 228.201477 -839.569397
v 214.766785 209.595276 -642.423035
v 184.051392 227.865784 -664.065247
v 150.67041 238.109009 -694.661072
v 116.333191 242.977875 -731.641479
v 82.7976074 245.075653 -773.399048
v 51.6417847 246.149506 -819.225159
v 24.2408447 245.867126 -868.597351
v 94.0786743 71.0999756 -722.058594
v 127.292419 52.783596 -698.661499
v 131.612305 100.224892 -685.076416
v 156.095886 31.2453804 -683.223083
v 166.527893 82.3921051 -662.728333
v 164.545959 126.035469 -654.39093
v 180.544128 7.58859825 -675.694031
v 194.909973 60.2011604 -650.62793
v 198.551025 106.758202 -636.088135
v 192.746704 147.362244 -633.189148
v 200.381348 -16.7637062 -676.558044
v 217.327148 35.0874748 -648.180298
v 225.090393 82.8250885 -629.203369
v 224.23468 125.811012 -620.666199
v 215.56488 164.034973 -623.348389
v 215.641418 -39.758194 -685.803589
v 233.685303 8.77457047 -655.669556
v 244.600891 55.942585 -633.049988
v 247.832336 100.261482 -619.868042
v 243.377563 140.718201 -617.019348
v 231.887512 177.026917 -624.564758
v 46.0828857 49.5728874 -767.158936
v 30.279541 10.2991371 -782.064026
v 80.2697144 26.933094 -739.705078
v 11.3997803 -29.3863525 -796.227844
v 62.0101318 -16.9929886 -757.362732
v 110.270081 3.37394524 -720.592468
v -7.6819458 -67.3680649 -809.051331
v 42.0025024 -58.9129028 -773.604492
v 90.5652466 -43.1323624 -741.377319
v 136.83374 -20.9640999 -709.053528
v -22.3708801 -101.676048 -821.67865
v 23.3951416 -97.1857986 -788.704041
v 70.8640747 -85.8382187 -760.618103
v 116.813904 -68.4117355 -733.328613
v 160.282532 -45.3038635 -705.059631
v -29.0305176 -131.097198 -836.057678
v 10.1116333 -130.523285 -804.842102
v 54.0405884 -123.784126 -779.630554
v 98.7164307 -111.050209 -756.735107
v 141.35321 -92.3579788 -733.311523
v 180.815063 -68.4396362 -709.218567
v 17.2893677 82.2319489 -792.956116
v -20.0516357 81.1777344 -832.640808
v 1.65960693 43.0370216 -809.170959
v -51.0155029 83.645752 -870.62616
v -36.0536499 41.1942787 -847.639709
v -15.3721313 4.17376137 -823.012878
v -73.6387024 87.2039795 -907.621277
v -65.5458679 42.8433952 -883.940735
v -51.7726135 2.65538597 -860.398865
v -33.6428833 -33.9886513 -835.579773
v -87.0862122 88.875 -944.143494
v -85.6938477 45.372963 -919.969666
v -78.4081116 3.95404053 -896.70343
v -66.8928833 -34.7853317 -872.991638
v -49.4523621 -70.2817917 -847.525452
v -91.7919922 86.4096069 -979.824158
v -95.9973755 45.9507484 -956.569275
v -94.5350037 5.20756149 -933.926819
v -88.2043457 -34.2872009 -911.002747
v -76.4980164 -71.056221 -886.28717
v -57.5352783 -103.73597 -860.41571
v 2.02545166 117.961174 -808.597473
v -7.63391113 151.778656 -825.364807
v -32.1665344 121.099358 -851.463684
v -10.6622925 182.898926 -844.717468
v -36.8731384 157.050812 -871.379944
v -57.7785645 125.940346 -892.623718
v -8.0645752 209.725494 -867.656799
v -34.4266968 188.003204 -893.836609
v -56.6713257 161.527435 -916.084045
v -74.2193909 128.917267 -932.900818
v -1.92370605 230.82608 -894.388245
v -26.4724426 212.575745 -919.691345
v -48.6281738 189.737366 -942.33783
v -67.2548523 161.331299 -960.275574
v -81.652832 126.940407 -972.608826
g 
f 3 1 2
f 5 2 4
f 6 3 5
f 8 4 7
f 9 5 8
f 10 6 9
f 12 7 11
f 13 8 12
f 14 9 13
f 15 10 14
f 17 11 16
f 18 12 17
f 19 13 18
f 20 14 19
f 21 15 20
f 23 16 22
f 24 17 23
f 25 18 24
f 26 19 25
f 27 20 26
f 28 21 27
f 30 22 29
f 31 23 30
f 32 24 31
f 33 25 32
f 34 26 33
f 35 27 34
f 36 28 35
f 3 2 5
f 5 4 8
f 6 5 9
f 8 7 12
f 9 8 13
f 10 9 14
f 12 11 17
f 13 12 18
f 14 13 19
f 15 14 20
f 17 16 23
f 18 17 24
f 19 18 25
f 20 19 26
f 21 20 27
f 23 22 30
f 24 23 31
f 25 24 32
f 26 25 33
f 27 26 34
f 28 27 35
f 37 1 3
f 38 3 6
f 39 37 38
f 40 6 10
f 41 38 40
f 42 39 41
f 43 10 15
f 44 40 43
f 45 41 44
f 46 42 45
f 47 15 21
f 48 43 47
f 49 44 48
f 50 45 49
f 51 46 50
f 52 21 28
f 53 47 52
f 54 48 53
f 55 49 54
f 56 50 55
f 57 51 56
f 58 28 36
f 59 52 58
f 60 53 59
f 61 54 60
f 62 55 61
f 63 56 62
f 64 57 63
f 37 3 38
f 38 6 40
f 39 38 41
f 40 10 43
f 41 40 44
f 42 41 45
f 43 15 47
f 44 43 48
f 45 44 49
f 46 45 50
f 47 21 52
f 48 47 53
f 49 48 54
f 50 49 55
f 51 50 56
f 52 28 58
f 53 52 59
f 54 53 60
f 55 54 61
f 56 55 62
f 57 56 63
f 65 1 37
f 66 37 39
f 67 65 66
f 68 39 42
f 69 66 68
f 70 67 69
f 71 42 46
f 72 68 71
f 73 69 72
f 74 70 73
f 75 46 51
f 76 71 75
f 77 72 76
f 78 73 77
f 79 74 78
f 80 51 57
f 81 75 80
f 82 76 81
f 83 77 82
f 84 78 83
f 85 79 84
f 86 57 64
f 87 80 86
f 88 81 87
f 89 82 88
f 90 83 89
f 91 84 90
f 92 85 91
f 65 37 66
f 66 39 68
f 67 66 69
f 68 42 71
f 69 68 72
f 70 69 73
f 71 46 75
f 72 71 76
f 73 72 77
f 74 73 78
f 75 51 80
f 76 75 81
f 77 76 82
f 78 77 83
f 79 78 84
f 80 57 86
f 81 80 87
f 82 81 88
f 83 82 89
f 84 83 90
f 85 84 91
f 93 1 65
f 94 65 67
f 95 93 94
f 96 67 70
f 97 94 96
f 98 95 97
f 99 70 74
f 100 96 99
f 101 97 100
f 102 98 101
f 103 74 79
f 104 99 103
f 105 100 104
f 106 101 105
f 107 102 106
f 108 79 85
f 109 103 108
f 110 104 109
f 111 105 110
f 112 106 111
f 113 107 112
f 114 85 92
f 115 108 114
f 116 109 115
f 117 110 116
f 118 111 117
f 119 112 118
f 120 113 119
f 93 65 94
f 94 67 96
f 95 94 97
f 96 70 99
f 97 96 100
f 98 97 101
f 99 74 103
f 100 99 104
f 101 100 105
f 102 101 106
f 103 79 108
f 104 103 109
f 105 104 110
f 106 105 111
f 107 106 112
f 108 85 114
f 109 108 115
f 110 109 116
f 111 110 117
f 112 111 118
f 113 112 119
f 2 1 93
f 121 93 95
f 4 2 121
f 122 95 98
f 123 121 122
f 7 4 123
f 124 98 102
f 125 122 124
f 126 123 125
f 11 7 126
f 127 102 107
f 128 124 127
f 129 125 128
f 130 126 129
f 16 11 130
f 131 107 113
f 132 127 131
f 133 128 132
f 134 129 133
f 135 130 134
f 22 16 135
f 136 113 120
f 137 131 136
f 138 132 137
f 139 133 138
f 140 134 139
f 141 135 140
f 29 22 141
f 2 93 121
f 121 95 122
f 4 121 123
f 122 98 124
f 123 122 125
f 7 123 126
f 124 102 127
f 125 124 128
f 126 125 129
f 11 126 130
f 127 107 131
f 128 127 132
f 129 128 133
f 130 129 134
f 16 130 135
f 131 113 136
f 132 131 137
f 133 132 138
f 134 133 139
f 135 134 140
f 22 135 141
f 142 29 141
f 143 141 140
f 144 142 143
f 145 140 139
f 146 143 145
f 147 144 146
f 148 139 138
f 149 145 148
f 150 146 149
f 151 147 150
f 152 138 137
f 153 148 152
f 154 149 153
f 155 150 154
f 156 151 155
f 157 137 136
f 158 152 157
f 159 153 158
f 160 154 159
f 161 155 160
f 162 156 161
f 163 136 120
f 164 157 163
f 165 158 164
f 166 159 165
f 167 160 166
f 168 161 167
f 169 162 168
f 142 141 143
f 143 140 145
f 144 143 146
f 145 139 148
f 146 145 149
f 147 146 150
f 148 138 152
f 149 148 153
f 150 149 154
f 151 150 155
f 152 137 157
f 153 152 158
f 154 153 159
f 155 154 160
f 156 155 161
f 157 136 163
f 158 157 164
f 159 158 165
f 160 159 166
f 161 160 167
f 162 161 168
f 170 120 119
f 171 119 118
f 172 170 171
f 173 118 117
f 174 171 173
f 175 172 174
f 176 117 116
f 177 173 176
f 178 174 177
f 179 175 178
f 180 116 115
f 181 176 180
f 182 177 181
f 183 178 182
f 184 179 183
f 185 115 114
f 186 180 185
f 187 181 186
f 188 182 187
f 189 183 188
f 190 184 189
f 191 114 92
f 192 185 191
f 193 186 192
f 194 187 193
f 195 188 194
f 196 189 195
f 197 190 196
f 170 119 171
f 171 118 173
f 172 171 174
f 173 117 176
f 174 173 177
f 175 174 178
f 176 116 180
f 177 176 181
f 178 177 182
f 179 178 183
f 180 115 185
f 181 180 186
f 182 181 187
f 183 182 188
f 184 183 189
f 185 114 191
f 186 185 192
f 187 186 193
f 188 187 194
f 189 188 195
f 190 189 196
f 198 92 91
f 199 91 90
f 200 198 199
f 201 90 89
f 202 199 201
f 203 200 202
f 204 89 88
f 205 201 204
f 206 202 205
f 207 203 206
f 208 88 87
f 209 204 208
f 210 205 209
f 211 206 210
f 212 207 211
f 213 87 86
f 214 208 213
f 215 209 214
f 216 210 215
f 217 211 216
f 218 212 217
f 219 86 64
f 220 213 219
f 221 214 220
f 222 215 221
f 223 216 222
f 224 217 223
f 225 218 224
f 198 91 199
f 199 90 201
f 200 199 202
f 201 89 204
f 202 201 205
f 203 202 206
f 204 88 208
f 205 204 209
f 206 205 210
f 207 206 211
f 208 87 213
f 209 208 214
f 210 209 215
f 211 210 216
f 212 211 217
f 213 86 219
f 214 213 220
f 215 214 221
f 216 215 222
f 217 216 223
f 218 217 224
f 226 64 63
f 227 63 62
f 228 226 227
f 229 62 61
f 230 227 229
f 231 228 230
f 232 61 60
f 233 229 232
f 234 230 233
f 235 231 234
f 236 60 59
f 237 232 236
f 238 233 237
f 239 234 238
f 240 235 239
f 241 59 58
f 242 236 241
f 243 237 242
f 244 238 243
f 245 239 244
f 246 240 245
f 247 58 36
f 248 241 247
f 249 242 248
f 250 243 249
f 251 244 250
f 252 245 251
f 253 246 252
f 226 63 227
f 227 62 229
f 228 227 230
f 229 61 232
f 230 229 233
f 231 230 234
f 232 60 236
f 233 232 237
f 234 233 238
f 235 234 239
f 236 59 241
f 237 236 242
f 238 237 243
f 239 238 244
f 240 239 245
f 241 58 247
f 242 241 248
f 243 242 249
f 244 243 250
f 245 244 251
f 246 245 252
f 254 36 35
f 255 35 34
f 256 254 255
f 257 34 33
f 258 255 257
f 259 256 258
f 260 33 32
f 261 257 260
f 262 258 261
f 263 259 262
f 264 32 31
f 265 260 264
f 266 261 265
f 267 262 266
f 268 263 267
f 269 31 30
f 270 264 269
f 271 265 270
f 272 266 271
f 273 267 272
f 274 268 273
f 275 30 29
f 276 269 275
f 277 270 276
f 278 271 277
f 279 272 278
f 280 273 279
f 281 274 280
f 254 35 255
f 255 34 257
f 256 255 258
f 257 33 260
f 258 257 261
f 259 258 262
f 260 32 264
f 261 260 265
f 262 261 266
f 263 262 267
f 264 31 269
f 265 264 270
f 266 265 271
f 267 266 272
f 268 267 273
f 269 30 275
f 270 269 276
f 271 270 277
f 272 271 278
f 273 272 279
f 274 273 280
f 275 29 142
f 282 142 144
f 276 275 282
f 283 144 147
f 284 282 283
f 277 276 284
f 285 147 151
f 286 283 285
f 287 284 286
f 278 277 287
f 288 151 156
f 289 285 288
f 290 286 289
f 291 287 290
f 279 278 291
f 292 156 162
f 293 288 292
f 294 289 293
f 295 290 294
f 296 291 295
f 280 279 296
f 297 162 169
f 298 292 297
f 299 293 298
f 300 294 299
f 301 295 300
f 302 296 301
f 281 280 302
f 275 142 282
f 282 144 283
f 276 282 284
f 283 147 285
f 284 283 286
f 277 284 287
f 285 151 288
f 286 285 289
f 287 286 290
f 278 287 291
f 288 156 292
f 289 288 293
f 290 289 294
f 291 290 295
f 279 291 296
f 292 162 297
f 293 292 298
f 294 293 299
f 295 294 300
f 296 295 301
f 280 296 302
f 163 120 170
f 303 170 172
f 164 163 303
f 304 172 175
f 305 303 304
f 165 164 305
f 306 175 179
f 307 304 306
f 308 305 307
f 166 165 308
f 309 179 184
f 310 306 309
f 311 307 310
f 312 308 311
f 167 166 312
f 313 184 190
f 314 309 313
f 315 310 314
f 316 311 315
f 317 312 316
f 168 167 317
f 318 190 197
f 319 313 318
f 320 314 319
f 321 315 320
f 322 316 321
f 323 317 322
f 169 168 323
f 163 170 303
f 303 172 304
f 164 303 305
f 304 175 306
f 305 304 307
f 165 305 308
f 306 179 309
f 307 306 310
f 308 307 311
f 166 308 312
f 309 184 313
f 310 309 314
f 311 310 315
f 312 311 316
f 167 312 317
f 313 190 318
f 314 313 319
f 315 314 320
f 316 315 321
f 317 316 322
f 168 317 323
f 191 92 198
f 324 198 200
f 192 191 324
f 325 200 203
f 326 324 325
f 193 192 326
f 327 203 207
f 328 325 327
f 329 326 328
f 194 193 329
f 330 207 212
f 331 327 330
f 332 328 331
f 333 329 332
f 195 194 333
f 334 212 218
f 335 330 334
f 336 331 335
f 337 332 336
f 338 333 337
f 196 195 338
f 339 218 225
f 340 334 339
f 341 335 340
f 342 336 341
f 343 337 342
f 344 338 343
f 197 196 344
f 191 198 324
f 324 200 325
f 192 324 326
f 325 203 327
f 326 325 328
f 193 326 329
f 327 207 330
f 328 327 331
f 329 328 332
f 194 329 333
f 330 212 334
f 331 330 335
f 332 331 336
f 333 332 337
f 195 333 338
f 334 218 339
f 335 334 340
f 336 335 341
f 337 336 342
f 338 337 343
f 196 338 344
f 219 64 226
f 345 226 228
f 220 219 345
f 346 228 231
f 347 345 346
f 221 220 347
f 348 231 235
f 349 346 348
f 350 347 349
f 222 221 350
f 351 235 240
f 352 348 351
f 353 349 352
f 354 350 353
f 223 222 354
f 355 240 246
f 356 351 355
f 357 352 356
f 358 353 357
f 359 354 358
f 224 223 359
f 360 246 253
f 361 355 360
f 362 356 361
f 363 357 362
f 364 358 363
f 365 359 364
f 225 224 365
f 219 226 345
f 345 228 346
f 220 345 347
f 346 231 348
f 347 346 349
f 221 347 350
f 348 235 351
f 349 348 352
f 350 349 353
f 222 350 354
f 351 240 355
f 352 351 356
f 353 352 357
f 354 353 358
f 223 354 359
f 355 246 360
f 356 355 361
f 357 356 362
f 358 357 363
f 359 358 364
f 224 359 365
f 247 36 254
f 366 254 256
f 248 247 366
f 367 256 259
f 368 366 367
f 249 248 368
f 369 259 263
f 370 367 369
f 371 368 370
f 250 249 371
f 372 263 268
f 373 369 372
f 374 370 373
f 375 371 374
f 251 250 375
f 376 268 274
f 377 372 376
f 378 373 377
f 379 374 378
f 380 375 379
f 252 251 380
f 381 274 281
f 382 376 381
f 383 377 382
f 384 378 383
f 385 379 384
f 386 380 385
f 253 252 386
f 247 254 366
f 366 256 367
f 248 366 368
f 367 259 369
f 368 367 370
f 249 368 371
f 369 263 372
f 370 369 373
f 371 370 374
f 250 371 375
f 372 268 376
f 373 372 377
f 374 373 378
f 375 374 379
f 251 375 380
f 376 274 381
f 377 376 382
f 378 377 383
f 379 378 384
f 380 379 385
f 252 380 386
f 389 387 388
f 391 388 390
f 392 389 391
f 394 390 393
f 395 391 394
f 396 392 395
f 398 393 397
f 399 394 398
f 400 395 399
f 401 396 400
f 403 397 402
f 404 398 403
f 405 399 404
f 406 400 405
f 407 401 406
f 409 402 408
f 410 403 409
f 411 404 410
f 412 405 411
f 413 406 412
f 414 407 413
f 302 408 281
f 301 409 302
f 300 410 301
f 299 411 300
f 298 412 299
f 297 413 298
f 169 414 297
f 389 388 391
f 391 390 394
f 392 391 395
f 394 393 398
f 395 394 399
f 396 395 400
f 398 397 403
f 399 398 404
f 400 399 405
f 401 400 406
f 403 402 409
f 404 403 410
f 405 404 411
f 406 405 412
f 407 406 413
f 409 408 302
f 410 409 301
f 411 410 300
f 412 411 299
f 413 412 298
f 414 413 297
f 388 387 415
f 417 415 416
f 390 388 417
f 419 416 418
f 420 417 419
f 393 390 420
f 422 418 421
f 423 419 422
f 424 420 423
f 397 393 424
f 426 421 425
f 427 422 426
f 428 423 427
f 429 424 428
f 402 397 429
f 431 425 430
f 432 426 431
f 433 427 432
f 434 428 433
f 435 429 434
f 408 402 435
f 386 430 253
f 385 431 386
f 384 432 385
f 383 433 384
f 382 434 383
f 381 435 382
f 281 408 381
f 388 415 417
f 417 416 419
f 390 417 420
f 419 418 422
f 420 419 423
f 393 420 424
f 422 421 426
f 423 422 427
f 424 423 428
f 397 424 429
f 426 425 431
f 427 426 432
f 428 427 433
f 429 428 434
f 402 429 435
f 431 430 386
f 432 431 385
f 433 432 384
f 434 433 383
f 435 434 382
f 408 435 381
f 415 387 436
f 438 436 437
f 416 415 438
f 440 437 439
f 441 438 440
f 418 416 441
f 443 439 442
f 444 440 443
f 445 441 444
f 421 418 445
f 447 442 446
f 448 443 447
f 449 444 448
f 450 445 449
f 425 421 450
f 452 446 451
f 453 447 452
f 454 448 453
f 455 449 454
f 456 450 455
f 430 425 456
f 365 451 225
f 364 452 365
f 363 453 364
f 362 454 363
f 361 455 362
f 360 456 361
f 253 430 360
f 415 436 438
f 438 437 440
f 416 438 441
f 440 439 443
f 441 440 444
f 418 441 445
f 443 442 447
f 444 443 448
f 445 444 449
f 421 445 450
f 447 446 452
f 448 447 453
f 449 448 454
f 450 449 455
f 425 450 456
f 452 451 365
f 453 452 364
f 454 453 363
f 455 454 362
f 456 455 361
f 430 456 360
f 436 387 457
f 459 457 458
f 437 436 459
f 461 458 460
f 462 459 461
f 439 437 462
f 464 460 463
f 465 461 464
f 466 462 465
f 442 439 466
f 468 463 467
f 469 464 468
f 470 465 469
f 471 466 470
f 446 442 471
f 473 467 472
f 474 468 473
f 475 469 474
f 476 470 475
f 477 471 476
f 451 446 477
f 344 472 197
f 343 473 344
f 342 474 343
f 341 475 342
f 340 476 341
f 339 477 340
f 225 451 339
f 436 457 459
f 459 458 461
f 437 459 462
f 461 460 464
f 462 461 465
f 439 462 466
f 464 463 468
f 465 464 469
f 466 465 470
f 442 466 471
f 468 467 473
f 469 468 474
f 470 469 475
f 471 470 476
f 446 471 477
f 473 472 344
f 474 473 343
f 475 474 342
f 476 475 341
f 477 476 340
f 451 477 339
f 457 387 389
f 478 389 392
f 458 457 478
f 479 392 396
f 480 478 479
f 460 458 480
f 481 396 401
f 482 479 481
f 483 480 482
f 463 460 483
f 484 401 407
f 485 481 484
f 486 482 485
f 487 483 486
f 467 463 487
f 488 407 414
f 489 484 488
f 490 485 489
f 491 486 490
f 492 487 491
f 472 467 492
f 323 414 169
f 322 488 323
f 321 489 322
f 320 490 321
f 319 491 320
f 318 492 319
f 197 472 318
f 457 389 478
f 478 392 479
f 458 478 480
f 479 396 481
f 480 479 482
f 460 480 483
f 481 401 484
f 482 481 485
f 483 482 486
f 463 483 487
f 484 407 488
f 485 484 489
f 486 485 490
f 487 486 491
f 467 487 492
f 488 414 323
f 489 488 322
f 490 489 321
f 491 490 320
f 492 491 319
f 472 492 318
