# File exported by Houdini 20.5.445 (www.sidefx.com)
# 492 points
# 2940 vertices
# 980 primitives
# Bounds: [-109.526459, -204.998978, -1132.78149] to [280.300385, 321.376099, -622.01947]
g 
v 71.5606384 133.548859 -1011.28156
v 61.0988464 174.735001 -1001.06134
v 82.2887878 142.247864 -984.217957
v 54.4994812 211.361618 -987.954773
v 75.1034241 184.479904 -969.599182
v 95.6014099 145.428162 -956.62262
v 50.9013977 243.070694 -972.247253
v 72.1617737 219.714798 -953.102478
v 91.922699 186.792526 -939.340881
v 111.828094 142.421204 -929.174011
v 49.0699158 270.072815 -954.168884
v 71.6517639 249.336838 -935.054626
v 91.9971619 220.27388 -920.876648
v 111.277557 182.36409 -910.504578
v 130.640594 135.041077 -901.630432
v 47.6289978 292.430908 -934.722229
v 72.1100159 274.615906 -915.75238
v 93.7707825 248.572861 -901.424866
v 113.712799 214.880112 -890.767395
v 132.577057 173.857285 -882.549255
v 151.228363 126.693062 -873.569519
v 46.1804504 309.254578 -914.075989
v 72.4726868 295.772827 -895.376648
v 95.9359436 273.374268 -880.948669
v 117.371796 243.262344 -869.951111
v 137.124725 206.594101 -861.719177
v 155.527374 164.855423 -854.736145
v 173.125824 120.36454 -845.206848
v 45.2920837 318.741821 -891.122009
v 72.5514832 310.500793 -872.456848
v 98.1303406 293.57251 -857.591003
v 121.653839 268.275024 -846.58075
v 143.28299 236.129044 -838.857605
v 162.721405 198.623978 -832.990784
v 180.049042 158.284286 -826.403992
v 195.601593 117.663002 -816.857239
v 90.2505798 95.1672668 -1003.24225
v 101.881073 99.66539 -975.031433
v 108.777557 53.6326752 -993.982605
v 115.500946 98.6567764 -946.851868
v 120.858063 55.6381378 -964.356628
v 125.144745 10.8544292 -981.608826
v 131.680573 93.2137299 -917.983948
v 134.530426 52.9934158 -933.744568
v 137.665619 11.9487019 -949.435364
v 138.423676 -31.6078873 -964.510559
v 150.384247 86.0496826 -887.861023
v 150.549469 47.5689697 -901.385315
v 151.537201 9.20780563 -915.254578
v 151.680634 -30.6695595 -929.314026
v 148.650482 -72.3694763 -942.750427
v 171.530609 80.3275909 -856.24115
v 169.56015 42.3575745 -866.91571
v 168.080414 5.03810501 -878.43927
v 166.507355 -32.7560272 -891.268616
v 163.334076 -71.3562469 -904.762268
v 156.656403 -109.63179 -917.746399
v 195.258026 78.3471985 -823.281555
v 192.863678 40.121273 -830.276428
v 189.180695 2.60626602 -838.686218
v 185.193695 -34.9072037 -849.637634
v 180.437897 -72.3003998 -862.959412
v 173.612396 -108.3815 -877.413147
v 163.471344 -141.113388 -891.433533
v 74.8041077 98.5314865 -1030.80396
v 95.1540833 55.0553741 -1021.72845
v 79.0745544 61.9098816 -1045.86743
v 112.408966 10.8591213 -1010.13849
v 98.1972351 15.8780136 -1034.12109
v 81.0058899 25.7480927 -1056.04028
v 125.67514 -32.9821777 -994.485168
v 112.286469 -29.1165199 -1019.33063
v 96.9328918 -20.9216576 -1040.8457
v 78.5048523 -8.36677551 -1061.57349
v 135.160858 -75.4205551 -973.937073
v 121.572723 -72.9663086 -999.874817
v 106.858124 -65.4849243 -1022.31439
v 90.0108948 -54.2109909 -1042.48926
v 70.2918396 -38.4925995 -1062.6416
v 141.8284 -115.383331 -948.678406
v 127.01297 -115.005127 -975.146179
v 111.665131 -108.528702 -998.620544
v 95.1001282 -97.3498993 -1019.65692
v 76.591095 -82.3107681 -1039.47168
v 56.151947 -62.6335449 -1059.2981
v 147.070221 -150.860306 -919.792419
v 130.062286 -153.745987 -945.399963
v 112.599823 -149.427322 -968.766174
v 94.7566833 -138.468185 -990.817566
v 76.0711975 -122.779465 -1011.7796
v 56.6862488 -103.252853 -1032.01709
v 37.1756897 -79.6659622 -1051.81665
v 55.0115662 147.318115 -1031.16772
v 58.16745 110.266014 -1051.45532
v 39.7036438 158.478073 -1049.04883
v 62.0116882 73.3048935 -1066.35889
v 43.0359192 120.1661 -1069.74609
v 25.344574 168.235947 -1064.99561
v 62.9248352 37.822567 -1076.38062
v 46.2776184 83.1953506 -1085.11353
v 28.5762634 129.323181 -1086.81055
v 11.0117493 176.635971 -1079.32031
v 58.733429 5.29458618 -1081.74707
v 45.5044861 48.9467392 -1095.48267
v 30.4074402 93.1694412 -1103.00806
v 13.6009216 138.211487 -1102.28174
v -4.76504517 183.666489 -1092.36743
v 48.1340027 -22.5900383 -1082.04297
v 38.6016541 18.6197205 -1100.4834
v 26.9433899 60.8946304 -1113.45044
v 12.9599915 103.832344 -1118.81079
v -3.38388062 146.817322 -1115.04517
v -22.2027893 188.93541 -1102.98926
v 30.8074646 -44.1435165 -1076.40698
v 24.0854797 -6.1893959 -1098.60107
v 15.9151917 33.650116 -1116.58838
v 5.45639038 74.4709854 -1127.6814
v -7.46786499 115.189827 -1129.56812
v -23.2358093 154.881775 -1122.88086
v -40.1802368 192.085129 -1108.57153
v 42.936615 190.402176 -1021.45184
v 26.8360291 202.263016 -1038.45044
v 35.1440125 227.008438 -1008.29645
v 11.3065491 211.711746 -1052.61938
v 17.5881042 238.173599 -1024.35107
v 29.8904724 257.79248 -992.158508
v -5.80117798 218.814224 -1065.94141
v -1.08261108 246.29808 -1038.21338
v 9.41043091 267.612305 -1008.06451
v 25.5278015 283.29541 -973.594788
v -24.7154846 223.303604 -1078.14258
v -21.7945251 251.268875 -1050.97485
v -12.6963196 273.624207 -1021.4632
v 2.04873657 291.022705 -988.75177
v 21.7197571 303.323853 -952.505188
v -44.2233582 224.384354 -1086.75952
v -43.4456787 252.268051 -1060.87891
v -36.1864319 275.229309 -1031.81763
v -22.6167908 293.602356 -999.728821
v -3.89816284 307.565979 -964.740295
v 19.0866394 316.223083 -927.678772
v 27.164093 321.376099 -889.17157
v -2.52993774 316.044006 -930.59137
v 8.4772644 317.833923 -887.774231
v -26.7443542 305.226318 -969.999939
v -22.4646912 309.591309 -932.281677
v -9.30618286 309.958923 -886.299133
v -45.0801697 289.625 -1005.82977
v -46.1688538 296.800415 -972.645203
v -39.6641541 299.005737 -932.222717
v -25.3248596 298.779297 -884.608948
v -57.1672058 269.686523 -1038.66309
v -63.0958862 279.385376 -1008.88788
v -61.8516541 283.748413 -972.785339
v -53.7070007 284.78363 -930.68512
v -38.9815369 284.587463 -882.968689
v -62.1038513 244.392807 -1068.63037
v -73.1190186 256.953613 -1042.42212
v -76.8547974 263.616699 -1009.1629
v -73.6399841 266.668518 -970.46637
v -64.4315796 267.805969 -927.375305
v -49.7946167 268.433716 -880.868835
v -60.0393066 212.743698 -1094.91333
v -75.5821228 227.85762 -1072.88306
v -84.6291809 237.633133 -1042.68066
v -86.42099 243.509689 -1005.88226
v -81.7500916 247.005814 -964.673157
v -71.8279724 249.37529 -921.270325
v -57.3863525 250.964432 -877.261536
v -47.9572449 172.527939 -1117.83325
v -31.4428406 132.512817 -1130.28882
v -56.6115112 154.183044 -1118.03198
v -17.9933777 92.1152496 -1132.78149
v -42.0505981 113.595695 -1126.79834
v -66.7828674 138.23761 -1108.2312
v -8.10720825 51.7461548 -1125.22046
v -31.4519348 73.4942398 -1124.35278
v -55.3022766 97.8384399 -1113.05273
v -78.3884888 124.688728 -1089.36841
v -0.640533447 11.340538 -1108.43164
v -23.9208679 33.0017967 -1111.3623
v -47.1998596 57.2114868 -1106.31421
v -70.2272949 83.5935822 -1091.41919
v -90.3388672 111.998131 -1064.49316
v 5.56521606 -28.947876 -1085.22241
v -18.1735535 -8.7179718 -1089.78564
v -40.943573 14.9722824 -1088.80029
v -63.6920776 41.1831474 -1080.72437
v -84.7931519 69.3115158 -1063.63013
v -100.821289 97.537468 -1035.96729
v 12.2013855 -68.8030853 -1057.70459
v -12.1822815 -51.985321 -1061.56958
v -34.9286194 -30.2045631 -1062.05615
v -57.204895 -4.6103096 -1057.97363
v -78.5281067 23.6181107 -1047.80322
v -96.2642517 52.2778854 -1030.22974
v -107.40448 79.1549454 -1004.69989
v 28.0779724 -107.197037 -1028.52832
v 49.7328186 -134.326859 -1004.76459
v 19.7477722 -130.809494 -1002.21637
v 71.2106628 -155.758469 -981.387756
v 44.2879944 -159.083908 -975.435486
v 14.4295349 -149.721481 -973.607117
v 92.4859924 -171.923233 -958.306335
v 68.7691956 -180.160172 -950.09967
v 42.4497375 -177.085617 -945.022278
v 13.7289124 -161.591751 -943.235413
v 113.94339 -181.25264 -935.407654
v 93.8268738 -194.264114 -925.941101
v 70.6769104 -195.592484 -918.496033
v 45.2152405 -186.02153 -913.516907
v 18.7110901 -164.555496 -911.608826
v 135.791901 -181.906357 -911.183655
v 120.101105 -199.634048 -901.954163
v 100.343536 -204.998978 -893.142517
v 77.7055969 -199.567245 -885.810974
v 53.7184143 -183.728104 -881.005676
v 30.0122375 -157.821396 -879.281921
v 157.700653 -172.789749 -883.22699
v 147.414764 -194.181625 -874.677917
v 131.796967 -203.356552 -865.354919
v 112.492889 -201.403458 -856.697571
v 90.8202209 -189.38652 -850.119934
v 68.599762 -168.718155 -846.588684
v 47.0247498 -141.281387 -846.162537
v 178.191132 -146.017593 -856.436829
v 190.889008 -109.587723 -838.39679
v 193.966461 -141.617859 -821.093323
v 200.055145 -70.768219 -822.322815
v 209.044403 -101.622238 -801.702087
v 210.016327 -127.716431 -785.950134
v 207.591583 -31.4547768 -809.645813
v 221.126129 -60.6421051 -786.16095
v 228.087921 -86.007782 -767.372864
v 226.171173 -106.100601 -751.820129
v 213.984772 8.12671852 -800.804749
v 231.23172 -19.5429192 -775.059509
v 243.060577 -43.9371033 -753.510315
v 247.297577 -64.424057 -735.464233
v 241.544586 -78.5857697 -719.970398
v 217.976044 49.2153549 -795.032532
v 238.144806 23.281353 -768.10199
v 254.179291 -0.179681778 -744.161194
v 263.57016 -21.0335999 -723.92395
v 264.015533 -36.9339752 -706.518494
v 253.810272 -46.2929916 -691.850769
v 218.271942 93.1427155 -791.407288
v 239.868256 70.1369705 -764.794373
v 258.794342 48.2388458 -739.172791
v 272.529999 27.6387405 -716.515381
v 278.167206 9.80876923 -697.451172
v 273.83963 -3.13305664 -681.218506
v 259.515594 -10.5253944 -668.296448
v 207.945953 142.821014 -796.442932
v 190.333099 186.617813 -805.210632
v 217.360382 168.762497 -777.609802
v 170.83432 226.406479 -810.165222
v 197.489655 212.700455 -784.908386
v 222.552216 193.45076 -759.024231
v 148.508087 260.544067 -815.198547
v 175.133759 249.686264 -788.995667
v 200.172028 235.445663 -765.102234
v 221.830048 215.788773 -740.639587
v 123.248505 288.296631 -823.142273
v 149.039948 279.768677 -794.413391
v 174.19223 268.867859 -769.709534
v 196.290436 254.572556 -746.662537
v 213.380096 234.330948 -723.341919
v 95.0050354 308.502441 -836.036316
v 118.923737 302.848145 -804.005798
v 143.344818 294.81488 -776.676208
v 165.825104 284.03894 -752.663391
v 183.907013 268.984131 -730.255493
v 197.058746 248.200119 -708.238342
v 63.4042664 319.582703 -854.799988
v 84.07724 316.956543 -820.388123
v 106.411835 312.118896 -789.357117
v 128.514801 304.89209 -762.284119
v 147.780609 293.773315 -738.359009
v 162.941681 277.905334 -716.467957
v 174.76651 257.313354 -696.222961
v 45.6075745 321.11145 -848.461365
v 27.3888245 316.778687 -843.7995
v 66.1405334 318.48645 -811.867493
v 9.61599731 308.684387 -840.152405
v 47.4880676 314.252869 -805.544983
v 87.3955994 314.164856 -779.442322
v -7.13235474 297.037598 -837.842712
v 28.8424988 305.672852 -800.772278
v 67.5967712 309.47937 -771.77948
v 107.774567 306.558411 -750.841492
v -22.0898132 281.505188 -837.045593
v 10.8851013 291.905273 -798.281433
v 47.8716125 298.758484 -766.099304
v 86.9217834 300.213684 -741.299622
v 125.923187 293.838745 -725.000427
v -34.0524597 262.252563 -836.710144
v -4.88412476 272.36438 -797.967468
v 29.5104065 280.655884 -763.196716
v 67.150238 285.520447 -734.177734
v 105.41153 284.164795 -713.170044
v 141.753082 274.588745 -701.07312
v -69.2125244 193.03627 -1099.16895
v -77.6506348 175.474686 -1093.08203
v -84.2210693 207.61409 -1071.24609
v -86.3032532 160.946854 -1077.13916
v -90.8775024 190.933578 -1059.04639
v -91.6419678 217.670395 -1035.45459
v -95.2032471 148.393066 -1053.15918
v -97.000061 177.467117 -1037.60474
v -96.0777588 201.999435 -1017.83759
v -91.5975342 224.530228 -993.593201
v -103.225464 134.546387 -1024.12891
v -102.355865 164.412094 -1008.81598
v -99.1393433 188.581467 -991.124207
v -93.4727478 209.44313 -970.752747
v -84.8103943 229.21196 -947.475403
v -109.116486 115.422249 -991.940613
v -105.925476 147.051727 -974.901428
v -100.148193 173.268082 -956.719543
v -92.5438538 194.905289 -938.018494
v -83.2442627 214.082291 -918.70575
v -71.8435059 232.525436 -898.592957
v -0.00985717773 -94.1672974 -1031.36426
v -9.27316284 -114.529526 -1003.117
v -25.2132263 -74.8664246 -1031.93286
v -13.6556091 -128.780624 -973.037292
v -33.624176 -91.5258102 -1001.18768
v -47.9247437 -50.1700592 -1029.26392
v -11.7610168 -135.437485 -940.892761
v -35.9810486 -101.420029 -968.980408
v -55.3414307 -63.2340164 -995.955261
v -69.7460022 -21.2853088 -1022.46649
v -2.38278198 -133.564545 -906.666077
v -30.6885071 -103.946259 -934.487122
v -55.3905945 -69.740036 -961.153748
v -75.4328613 -31.4259796 -986.360657
v -89.3278198 9.89167404 -1009.7691
v 14.7169495 -121.541229 -869.596375
v -16.421051 -97.1392822 -895.905701
v -46.0065002 -68.1788177 -922.485413
v -71.9179993 -34.6470795 -947.172546
v -91.5873413 2.57439804 -969.391418
v -103.352631 41.4441185 -988.729919
v 172.998749 -174.153763 -846.282776
v 187.822479 -163.594437 -809.749939
v 161.993561 -188.875259 -836.43866
v 202.125519 -142.769714 -773.249207
v 175.763153 -170.899185 -798.653015
v 146.148834 -190.715927 -826.462219
v 215.766571 -113.663193 -737.688049
v 188.677521 -142.729935 -761.127258
v 159.12674 -165.432999 -788.380798
v 126.533783 -181.511551 -818.158142
v 228.205536 -77.9158936 -704.367798
v 200.500885 -105.869339 -724.492432
v 170.863434 -129.86235 -750.664001
v 138.767548 -149.130234 -780.824402
v 104.392365 -162.629654 -813.024475
v 236.899689 -36.6478119 -674.790894
v 209.822357 -61.2218018 -690.00415
v 180.296906 -84.6416626 -713.617615
v 148.496307 -105.639313 -743.740051
v 114.901886 -122.981033 -777.32428
v 80.5248108 -135.306686 -811.803162
v 232.378143 119.822182 -768.947815
v 240.889435 146.234009 -749.741882
v 253.712738 98.3858948 -741.460022
v 242.794403 171.254379 -732.048401
v 259.402008 125.463432 -722.553467
v 270.562714 77.94133 -715.909485
v 236.559662 193.528824 -715.060303
v 255.914703 150.384583 -706.05835
v 271.503204 105.40686 -697.521667
v 280.300385 58.5784531 -693.72168
v 221.587494 212.244949 -698.967773
v 242.529266 172.368423 -690.44458
v 260.808319 129.95108 -681.723572
v 274.391083 86.1594009 -675.223572
v 279.773041 41.7383728 -674.375549
v 198.848724 227.189407 -684.61438
v 219.963165 191.601456 -675.291809
v 238.922638 152.309174 -666.343628
v 254.836395 111.294121 -658.173889
v 265.19754 70.0492935 -654.391113
v 267.254913 29.3951645 -657.452393
v 38.6816101 113.693245 -700.611267
v 65.889801 141.201691 -674.254944
v 19.5885925 138.344513 -717.571045
v 92.6742859 167.415482 -658.936523
v 47.3025208 167.651962 -695.467224
v 3.51815796 162.368179 -738.695374
v 116.749664 191.443039 -654.075439
v 72.4240417 194.830185 -683.875061
v 30.1169739 191.428757 -720.450317
v -10.6756287 185.485336 -762.976379
v 136.727814 212.568161 -657.226135
v 93.9243469 219.91301 -679.330688
v 52.5596619 218.359573 -710.446838
v 12.959259 213.084396 -747.279968
v -24.4050598 206.423203 -789.738342
v 152.42215 230.631912 -666.094116
v 111.944305 242.172165 -680.469055
v 71.5481262 243.565201 -705.250366
v 32.2761536 239.054855 -737.587769
v -4.63589478 232.178604 -775.242981
v -37.7778625 224.283676 -818.044861
v 164.812958 245.5728 -679.373413
v 127.539703 260.661865 -687.543823
v 88.6645813 266.071838 -705.427063
v 49.6018372 263.664795 -732.534485
v 12.4161682 257.019653 -766.176819
v -20.9798279 248.604172 -804.746643
v -49.178772 239.046463 -847.358826
v 77.1056213 105.378227 -669.250122
v 116.161163 94.144577 -645.652161
v 107.498505 133.354584 -644.279175
v 153.898956 77.9588776 -632.696899
v 146.8461 120.135277 -626.871338
v 135.080597 157.519577 -634.801025
v 188.88382 57.0438156 -630.628357
v 183.454071 100.763222 -622.01947
v 173.016205 140.687714 -625.648376
v 158.199371 177.885239 -638.110901
v 219.66037 33.9701729 -637.107971
v 217.037811 77.6816559 -626.909302
v 207.609222 118.711037 -627.86145
v 193.909454 158.002151 -636.602844
v 176.158722 195.592911 -649.54541
v 243.878876 10.8288708 -650.28363
v 245.97171 53.3302536 -639.197998
v 239.081085 94.569252 -637.919556
v 226.194916 135.113831 -644.095032
v 209.4487 174.585617 -654.142151
v 189.3461 212.008224 -665.379517
v 36.6326599 80.1981735 -715.259033
v 37.646759 45.2995911 -736.088074
v 79.2011414 67.9595108 -684.299988
v 40.9437561 8.88224983 -759.57782
v 82.8354797 29.8803024 -706.370544
v 119.94101 52.8491211 -662.915649
v 44.6089172 -29.2154388 -782.742249
v 86.0409241 -9.74236298 -731.960876
v 123.000458 11.3664207 -687.593079
v 156.956024 33.5862198 -652.484375
v 46.608429 -68.4756622 -804.401184
v 86.6529846 -51.5301971 -758.364441
v 123.457123 -31.8278122 -716.025635
v 157.529327 -10.7934418 -679.353821
v 189.688202 11.1838684 -651.856201
v 46.823822 -106.733353 -825.529236
v 84.1161804 -94.4302521 -784.810364
v 120.340363 -77.2418823 -745.76239
v 154.672699 -57.0939941 -709.886414
v 186.808624 -35.2601776 -680.064941
v 217.019501 -12.8313789 -659.585632
v 0.268951416 101.765808 -743.827698
v -34.5417175 92.0556412 -789.869202
v -3.96914673 65.0759811 -765.972839
v -64.0064087 85.2947235 -835.833679
v -39.0290833 52.9104309 -815.636047
v -3.68411255 28.4649239 -790.409729
v -87.0181885 81.7223434 -880.293274
v -67.4660034 44.4849701 -862.298767
v -37.8495789 15.0158806 -840.252258
v 0.098236084 -8.57359695 -813.347229
v -102.506317 80.6794357 -923.306091
v -88.6525269 40.5113335 -905.840515
v -64.6314392 6.02035332 -885.613342
v -32.6075134 -22.4035225 -861.291931
v 5.23275757 -46.4541931 -833.285095
v -109.526459 80.7337036 -965.076965
v -101.250702 40.4426613 -947.760193
v -83.36203 2.49852943 -928.015564
v -57.1323547 -31.0508461 -905.299622
v -25.1187439 -59.7027283 -879.314392
v 10.1405334 -84.5158081 -851.552063
v -19.756134 129.247284 -762.740295
v -34.14151 155.874298 -784.268738
v -52.3091736 123.54702 -808.667908
v -45.2275391 180.462387 -808.671692
v -63.2342834 152.881592 -829.833435
v -77.8169861 120.764473 -854.205383
v -55.2142029 201.515793 -836.20929
v -70.901947 178.401169 -854.841736
v -84.9025879 151.896973 -875.920715
v -96.2162476 119.644997 -899.490662
v -64.5881653 218.659775 -866.325989
v -77.5144043 198.654556 -884.59259
v -89.1907043 176.774796 -903.514587
v -99.2991638 150.521454 -923.907532
v -107.059998 118.543251 -945.438171
g 
f 3 1 2
f 5 2 4
f 6 3 5
f 8 4 7
f 9 5 8
f 10 6 9
f 12 7 11
f 13 8 12
f 14 9 13
f 15 10 14
f 17 11 16
f 18 12 17
f 19 13 18
f 20 14 19
f 21 15 20
f 23 16 22
f 24 17 23
f 25 18 24
f 26 19 25
f 27 20 26
f 28 21 27
f 30 22 29
f 31 23 30
f 32 24 31
f 33 25 32
f 34 26 33
f 35 27 34
f 36 28 35
f 3 2 5
f 5 4 8
f 6 5 9
f 8 7 12
f 9 8 13
f 10 9 14
f 12 11 17
f 13 12 18
f 14 13 19
f 15 14 20
f 17 16 23
f 18 17 24
f 19 18 25
f 20 19 26
f 21 20 27
f 23 22 30
f 24 23 31
f 25 24 32
f 26 25 33
f 27 26 34
f 28 27 35
f 37 1 3
f 38 3 6
f 39 37 38
f 40 6 10
f 41 38 40
f 42 39 41
f 43 10 15
f 44 40 43
f 45 41 44
f 46 42 45
f 47 15 21
f 48 43 47
f 49 44 48
f 50 45 49
f 51 46 50
f 52 21 28
f 53 47 52
f 54 48 53
f 55 49 54
f 56 50 55
f 57 51 56
f 58 28 36
f 59 52 58
f 60 53 59
f 61 54 60
f 62 55 61
f 63 56 62
f 64 57 63
f 37 3 38
f 38 6 40
f 39 38 41
f 40 10 43
f 41 40 44
f 42 41 45
f 43 15 47
f 44 43 48
f 45 44 49
f 46 45 50
f 47 21 52
f 48 47 53
f 49 48 54
f 50 49 55
f 51 50 56
f 52 28 58
f 53 52 59
f 54 53 60
f 55 54 61
f 56 55 62
f 57 56 63
f 65 1 37
f 66 37 39
f 67 65 66
f 68 39 42
f 69 66 68
f 70 67 69
f 71 42 46
f 72 68 71
f 73 69 72
f 74 70 73
f 75 46 51
f 76 71 75
f 77 72 76
f 78 73 77
f 79 74 78
f 80 51 57
f 81 75 80
f 82 76 81
f 83 77 82
f 84 78 83
f 85 79 84
f 86 57 64
f 87 80 86
f 88 81 87
f 89 82 88
f 90 83 89
f 91 84 90
f 92 85 91
f 65 37 66
f 66 39 68
f 67 66 69
f 68 42 71
f 69 68 72
f 70 69 73
f 71 46 75
f 72 71 76
f 73 72 77
f 74 73 78
f 75 51 80
f 76 75 81
f 77 76 82
f 78 77 83
f 79 78 84
f 80 57 86
f 81 80 87
f 82 81 88
f 83 82 89
f 84 83 90
f 85 84 91
f 93 1 65
f 94 65 67
f 95 93 94
f 96 67 70
f 97 94 96
f 98 95 97
f 99 70 74
f 100 96 99
f 101 97 100
f 102 98 101
f 103 74 79
f 104 99 103
f 105 100 104
f 106 101 105
f 107 102 106
f 108 79 85
f 109 103 108
f 110 104 109
f 111 105 110
f 112 106 111
f 113 107 112
f 114 85 92
f 115 108 114
f 116 109 115
f 117 110 116
f 118 111 117
f 119 112 118
f 120 113 119
f 93 65 94
f 94 67 96
f 95 94 97
f 96 70 99
f 97 96 100
f 98 97 101
f 99 74 103
f 100 99 104
f 101 100 105
f 102 101 106
f 103 79 108
f 104 103 109
f 105 104 110
f 106 105 111
f 107 106 112
f 108 85 114
f 109 108 115
f 110 109 116
f 111 110 117
f 112 111 118
f 113 112 119
f 2 1 93
f 121 93 95
f 4 2 121
f 122 95 98
f 123 121 122
f 7 4 123
f 124 98 102
f 125 122 124
f 126 123 125
f 11 7 126
f 127 102 107
f 128 124 127
f 129 125 128
f 130 126 129
f 16 11 130
f 131 107 113
f 132 127 131
f 133 128 132
f 134 129 133
f 135 130 134
f 22 16 135
f 136 113 120
f 137 131 136
f 138 132 137
f 139 133 138
f 140 134 139
f 141 135 140
f 29 22 141
f 2 93 121
f 121 95 122
f 4 121 123
f 122 98 124
f 123 122 125
f 7 123 126
f 124 102 127
f 125 124 128
f 126 125 129
f 11 126 130
f 127 107 131
f 128 127 132
f 129 128 133
f 130 129 134
f 16 130 135
f 131 113 136
f 132 131 137
f 133 132 138
f 134 133 139
f 135 134 140
f 22 135 141
f 142 29 141
f 143 141 140
f 144 142 143
f 145 140 139
f 146 143 145
f 147 144 146
f 148 139 138
f 149 145 148
f 150 146 149
f 151 147 150
f 152 138 137
f 153 148 152
f 154 149 153
f 155 150 154
f 156 151 155
f 157 137 136
f 158 152 157
f 159 153 158
f 160 154 159
f 161 155 160
f 162 156 161
f 163 136 120
f 164 157 163
f 165 158 164
f 166 159 165
f 167 160 166
f 168 161 167
f 169 162 168
f 142 141 143
f 143 140 145
f 144 143 146
f 145 139 148
f 146 145 149
f 147 146 150
f 148 138 152
f 149 148 153
f 150 149 154
f 151 150 155
f 152 137 157
f 153 152 158
f 154 153 159
f 155 154 160
f 156 155 161
f 157 136 163
f 158 157 164
f 159 158 165
f 160 159 166
f 161 160 167
f 162 161 168
f 170 120 119
f 171 119 118
f 172 170 171
f 173 118 117
f 174 171 173
f 175 172 174
f 176 117 116
f 177 173 176
f 178 174 177
f 179 175 178
f 180 116 115
f 181 176 180
f 182 177 181
f 183 178 182
f 184 179 183
f 185 115 114
f 186 180 185
f 187 181 186
f 188 182 187
f 189 183 188
f 190 184 189
f 191 114 92
f 192 185 191
f 193 186 192
f 194 187 193
f 195 188 194
f 196 189 195
f 197 190 196
f 170 119 171
f 171 118 173
f 172 171 174
f 173 117 176
f 174 173 177
f 175 174 178
f 176 116 180
f 177 176 181
f 178 177 182
f 179 178 183
f 180 115 185
f 181 180 186
f 182 181 187
f 183 182 188
f 184 183 189
f 185 114 191
f 186 185 192
f 187 186 193
f 188 187 194
f 189 188 195
f 190 189 196
f 198 92 91
f 199 91 90
f 200 198 199
f 201 90 89
f 202 199 201
f 203 200 202
f 204 89 88
f 205 201 204
f 206 202 205
f 207 203 206
f 208 88 87
f 209 204 208
f 210 205 209
f 211 206 210
f 212 207 211
f 213 87 86
f 214 208 213
f 215 209 214
f 216 210 215
f 217 211 216
f 218 212 217
f 219 86 64
f 220 213 219
f 221 214 220
f 222 215 221
f 223 216 222
f 224 217 223
f 225 218 224
f 198 91 199
f 199 90 201
f 200 199 202
f 201 89 204
f 202 201 205
f 203 202 206
f 204 88 208
f 205 204 209
f 206 205 210
f 207 206 211
f 208 87 213
f 209 208 214
f 210 209 215
f 211 210 216
f 212 211 217
f 213 86 219
f 214 213 220
f 215 214 221
f 216 215 222
f 217 216 223
f 218 217 224
f 226 64 63
f 227 63 62
f 228 226 227
f 229 62 61
f 230 227 229
f 231 228 230
f 232 61 60
f 233 229 232
f 234 230 233
f 235 231 234
f 236 60 59
f 237 232 236
f 238 233 237
f 239 234 238
f 240 235 239
f 241 59 58
f 242 236 241
f 243 237 242
f 244 238 243
f 245 239 244
f 246 240 245
f 247 58 36
f 248 241 247
f 249 242 248
f 250 243 249
f 251 244 250
f 252 245 251
f 253 246 252
f 226 63 227
f 227 62 229
f 228 227 230
f 229 61 232
f 230 229 233
f 231 230 234
f 232 60 236
f 233 232 237
f 234 233 238
f 235 234 239
f 236 59 241
f 237 236 242
f 238 237 243
f 239 238 244
f 240 239 245
f 241 58 247
f 242 241 248
f 243 242 249
f 244 243 250
f 245 244 251
f 246 245 252
f 254 36 35
f 255 35 34
f 256 254 255
f 257 34 33
f 258 255 257
f 259 256 258
f 260 33 32
f 261 257 260
f 262 258 261
f 263 259 262
f 264 32 31
f 265 260 264
f 266 261 265
f 267 262 266
f 268 263 267
f 269 31 30
f 270 264 269
f 271 265 270
f 272 266 271
f 273 267 272
f 274 268 273
f 275 30 29
f 276 269 275
f 277 270 276
f 278 271 277
f 279 272 278
f 280 273 279
f 281 274 280
f 254 35 255
f 255 34 257
f 256 255 258
f 257 33 260
f 258 257 261
f 259 258 262
f 260 32 264
f 261 260 265
f 262 261 266
f 263 262 267
f 264 31 269
f 265 264 270
f 266 265 271
f 267 266 272
f 268 267 273
f 269 30 275
f 270 269 276
f 271 270 277
f 272 271 278
f 273 272 279
f 274 273 280
f 275 29 142
f 282 142 144
f 276 275 282
f 283 144 147
f 284 282 283
f 277 276 284
f 285 147 151
f 286 283 285
f 287 284 286
f 278 277 287
f 288 151 156
f 289 285 288
f 290 286 289
f 291 287 290
f 279 278 291
f 292 156 162
f 293 288 292
f 294 289 293
f 295 290 294
f 296 291 295
f 280 279 296
f 297 162 169
f 298 292 297
f 299 293 298
f 300 294 299
f 301 295 300
f 302 296 301
f 281 280 302
f 275 142 282
f 282 144 283
f 276 282 284
f 283 147 285
f 284 283 286
f 277 284 287
f 285 151 288
f 286 285 289
f 287 286 290
f 278 287 291
f 288 156 292
f 289 288 293
f 290 289 294
f 291 290 295
f 279 291 296
f 292 162 297
f 293 292 298
f 294 293 299
f 295 294 300
f 296 295 301
f 280 296 302
f 163 120 170
f 303 170 172
f 164 163 303
f 304 172 175
f 305 303 304
f 165 164 305
f 306 175 179
f 307 304 306
f 308 305 307
f 166 165 308
f 309 179 184
f 310 306 309
f 311 307 310
f 312 308 311
f 167 166 312
f 313 184 190
f 314 309 313
f 315 310 314
f 316 311 315
f 317 312 316
f 168 167 317
f 318 190 197
f 319 313 318
f 320 314 319
f 321 315 320
f 322 316 321
f 323 317 322
f 169 168 323
f 163 170 303
f 303 172 304
f 164 303 305
f 304 175 306
f 305 304 307
f 165 305 308
f 306 179 309
f 307 306 310
f 308 307 311
f 166 308 312
f 309 184 313
f 310 309 314
f 311 310 315
f 312 311 316
f 167 312 317
f 313 190 318
f 314 313 319
f 315 314 320
f 316 315 321
f 317 316 322
f 168 317 323
f 191 92 198
f 324 198 200
f 192 191 324
f 325 200 203
f 326 324 325
f 193 192 326
f 327 203 207
f 328 325 327
f 329 326 328
f 194 193 329
f 330 207 212
f 331 327 330
f 332 328 331
f 333 329 332
f 195 194 333
f 334 212 218
f 335 330 334
f 336 331 335
f 337 332 336
f 338 333 337
f 196 195 338
f 339 218 225
f 340 334 339
f 341 335 340
f 342 336 341
f 343 337 342
f 344 338 343
f 197 196 344
f 191 198 324
f 324 200 325
f 192 324 326
f 325 203 327
f 326 325 328
f 193 326 329
f 327 207 330
f 328 327 331
f 329 328 332
f 194 329 333
f 330 212 334
f 331 330 335
f 332 331 336
f 333 332 337
f 195 333 338
f 334 218 339
f 335 334 340
f 336 335 341
f 337 336 342
f 338 337 343
f 196 338 344
f 219 64 226
f 345 226 228
f 220 219 345
f 346 228 231
f 347 345 346
f 221 220 347
f 348 231 235
f 349 346 348
f 350 347 349
f 222 221 350
f 351 235 240
f 352 348 351
f 353 349 352
f 354 350 353
f 223 222 354
f 355 240 246
f 356 351 355
f 357 352 356
f 358 353 357
f 359 354 358
f 224 223 359
f 360 246 253
f 361 355 360
f 362 356 361
f 363 357 362
f 364 358 363
f 365 359 364
f 225 224 365
f 219 226 345
f 345 228 346
f 220 345 347
f 346 231 348
f 347 346 349
f 221 347 350
f 348 235 351
f 349 348 352
f 350 349 353
f 222 350 354
f 351 240 355
f 352 351 356
f 353 352 357
f 354 353 358
f 223 354 359
f 355 246 360
f 356 355 361
f 357 356 362
f 358 357 363
f 359 358 364
f 224 359 365
f 247 36 254
f 366 254 256
f 248 247 366
f 367 256 259
f 368 366 367
f 249 248 368
f 369 259 263
f 370 367 369
f 371 368 370
f 250 249 371
f 372 263 268
f 373 369 372
f 374 370 373
f 375 371 374
f 251 250 375
f 376 268 274
f 377 372 376
f 378 373 377
f 379 374 378
f 380 375 379
f 252 251 380
f 381 274 281
f 382 376 381
f 383 377 382
f 384 378 383
f 385 379 384
f 386 380 385
f 253 252 386
f 247 254 366
f 366 256 367
f 248 366 368
f 367 259 369
f 368 367 370
f 249 368 371
f 369 263 372
f 370 369 373
f 371 370 374
f 250 371 375
f 372 268 376
f 373 372 377
f 374 373 378
f 375 374 379
f 251 375 380
f 376 274 381
f 377 376 382
f 378 377 383
f 379 378 384
f 380 379 385
f 252 380 386
f 389 387 388
f 391 388 390
f 392 389 391
f 394 390 393
f 395 391 394
f 396 392 395
f 398 393 397
f 399 394 398
f 400 395 399
f 401 396 400
f 403 397 402
f 404 398 403
f 405 399 404
f 406 400 405
f 407 401 406
f 409 402 408
f 410 403 409
f 411 404 410
f 412 405 411
f 413 406 412
f 414 407 413
f 302 408 281
f 301 409 302
f 300 410 301
f 299 411 300
f 298 412 299
f 297 413 298
f 169 414 297
f 389 388 391
f 391 390 394
f 392 391 395
f 394 393 398
f 395 394 399
f 396 395 400
f 398 397 403
f 399 398 404
f 400 399 405
f 401 400 406
f 403 402 409
f 404 403 410
f 405 404 411
f 406 405 412
f 407 406 413
f 409 408 302
f 410 409 301
f 411 410 300
f 412 411 299
f 413 412 298
f 414 413 297
f 388 387 415
f 417 415 416
f 390 388 417
f 419 416 418
f 420 417 419
f 393 390 420
f 422 418 421
f 423 419 422
f 424 420 423
f 397 393 424
f 426 421 425
f 427 422 426
f 428 423 427
f 429 424 428
f 402 397 429
f 431 425 430
f 432 426 431
f 433 427 432
f 434 428 433
f 435 429 434
f 408 402 435
f 386 430 253
f 385 431 386
f 384 432 385
f 383 433 384
f 382 434 383
f 381 435 382
f 281 408 381
f 388 415 417
f 417 416 419
f 390 417 420
f 419 418 422
f 420 419 423
f 393 420 424
f 422 421 426
f 423 422 427
f 424 423 428
f 397 424 429
f 426 425 431
f 427 426 432
f 428 427 433
f 429 428 434
f 402 429 435
f 431 430 386
f 432 431 385
f 433 432 384
f 434 433 383
f 435 434 382
f 408 435 381
f 415 387 436
f 438 436 437
f 416 415 438
f 440 437 439
f 441 438 440
f 418 416 441
f 443 439 442
f 444 440 443
f 445 441 444
f 421 418 445
f 447 442 446
f 448 443 447
f 449 444 448
f 450 445 449
f 425 421 450
f 452 446 451
f 453 447 452
f 454 448 453
f 455 449 454
f 456 450 455
f 430 425 456
f 365 451 225
f 364 452 365
f 363 453 364
f 362 454 363
f 361 455 362
f 360 456 361
f 253 430 360
f 415 436 438
f 438 437 440
f 416 438 441
f 440 439 443
f 441 440 444
f 418 441 445
f 443 442 447
f 444 443 448
f 445 444 449
f 421 445 450
f 447 446 452
f 448 447 453
f 449 448 454
f 450 449 455
f 425 450 456
f 452 451 365
f 453 452 364
f 454 453 363
f 455 454 362
f 456 455 361
f 430 456 360
f 436 387 457
f 459 457 458
f 437 436 459
f 461 458 460
f 462 459 461
f 439 437 462
f 464 460 463
f 465 461 464
f 466 462 465
f 442 439 466
f 468 463 467
f 469 464 468
f 470 465 469
f 471 466 470
f 446 442 471
f 473 467 472
f 474 468 473
f 475 469 474
f 476 470 475
f 477 471 476
f 451 446 477
f 344 472 197
f 343 473 344
f 342 474 343
f 341 475 342
f 340 476 341
f 339 477 340
f 225 451 339
f 436 457 459
f 459 458 461
f 437 459 462
f 461 460 464
f 462 461 465
f 439 462 466
f 464 463 468
f 465 464 469
f 466 465 470
f 442 466 471
f 468 467 473
f 469 468 474
f 470 469 475
f 471 470 476
f 446 471 477
f 473 472 344
f 474 473 343
f 475 474 342
f 476 475 341
f 477 476 340
f 451 477 339
f 457 387 389
f 478 389 392
f 458 457 478
f 479 392 396
f 480 478 479
f 460 458 480
f 481 396 401
f 482 479 481
f 483 480 482
f 463 460 483
f 484 401 407
f 485 481 484
f 486 482 485
f 487 483 486
f 467 463 487
f 488 407 414
f 489 484 488
f 490 485 489
f 491 486 490
f 492 487 491
f 472 467 492
f 323 414 169
f 322 488 323
f 321 489 322
f 320 490 321
f 319 491 320
f 318 492 319
f 197 472 318
f 457 389 478
f 478 392 479
f 458 478 480
f 479 396 481
f 480 479 482
f 460 480 483
f 481 401 484
f 482 481 485
f 483 482 486
f 463 483 487
f 484 407 488
f 485 484 489
f 486 485 490
f 487 486 491
f 467 487 492
f 488 414 323
f 489 488 322
f 490 489 321
f 491 490 320
f 492 491 319
f 472 492 318
