# File exported by Houdini 20.5.445 (www.sidefx.com)
# 492 points
# 2940 vertices
# 980 primitives
# Bounds: [-135.702347, -129.497986, -1108.77747] to [306.476288, 245.875092, -646.02356]
g 
v 168.823334 122.257812 -1106.95996
v 163.666962 146.802155 -1107.94116
v 192.324921 133.255554 -1108.31665
v 157.524689 166.534546 -1103.08752
v 190.859467 157.877289 -1108.77747
v 215.751556 140.016724 -1107.61157
v 150.945953 183.233093 -1092.72058
v 187.308441 176.521698 -1102.94922
v 216.208893 164.7435 -1106.07507
v 237.650299 144.016846 -1103.89563
v 143.082367 198.363678 -1077.09668
v 181.510468 192.007965 -1091.0321
v 212.976288 183.10788 -1097.56531
v 238.19931 169.514862 -1098.8324
v 256.355682 146.499115 -1096.15381
v 132.128723 212.424377 -1056.88586
v 172.586761 205.79657 -1073.13428
v 206.368866 197.968445 -1082.72119
v 234.309662 187.965576 -1086.59607
v 256.270782 172.5271 -1086.797
v 271.260101 147.43219 -1084.07703
v 117.179047 225.295135 -1033.42688
v 158.635284 218.47467 -1049.68848
v 194.827911 210.797363 -1061.22778
v 225.775665 202.38855 -1067.66833
v 250.967499 190.864868 -1070.00439
v 269.864777 173.123383 -1069.9325
v 281.888397 146.319122 -1067.6189
v 98.6233215 236.237946 -1008.03699
v 138.606842 229.914398 -1021.73645
v 175.966461 222.167755 -1033.16125
v 209.791046 214.094666 -1041.07471
v 238.776154 204.386078 -1045.55139
v 261.641205 190.481567 -1047.45276
v 277.935822 170.274017 -1048.02673
v 287.665802 142.905792 -1046.72461
v 184.836884 100.052071 -1100.98267
v 208.354584 108.309464 -1102.10706
v 195.909515 71.635437 -1089.69824
v 230.508514 112.203308 -1101.14941
v 218.552704 77.2958908 -1091.5127
v 203.474518 38.5231094 -1074.25684
v 250.403473 113.713669 -1097.0592
v 239.247223 79.0558853 -1090.58374
v 225.38736 42.523407 -1076.84277
v 209.823456 4.00552177 -1054.79712
v 266.983978 114.389999 -1088.74536
v 257.568634 79.169693 -1085.63391
v 245.191803 43.4152069 -1075.05505
v 231.447479 7.66210365 -1056.85925
v 217.244171 -28.0223007 -1030.76587
v 280.040009 114.085129 -1075.25403
v 272.859283 78.9927292 -1075.25012
v 262.69809 43.2182846 -1067.39478
v 251.035797 8.66914368 -1052.00684
v 238.939056 -23.9169655 -1029.8114
v 227.24704 -54.6349258 -1001.79517
v 288.998932 112.446983 -1055.43042
v 284.892853 78.3255997 -1057.41296
v 277.486847 43.0012894 -1051.54883
v 268.503693 8.82234192 -1038.00208
v 258.907806 -22.5067978 -1018.27356
v 249.210785 -50.1581345 -994.325073
v 240.396942 -74.122139 -967.825928
v 157.305939 94.30233 -1100.86694
v 171.959198 66.4135284 -1088.84094
v 145.842865 61.7875748 -1089.65417
v 181.334686 33.892601 -1071.14319
v 159.330414 30.4153461 -1070.65552
v 133.329224 27.0845432 -1072.57349
v 188.399872 -0.77374649 -1049.57471
v 168.143402 -3.60284805 -1046.53918
v 146.09671 -5.27009583 -1046.85596
v 119.000519 -6.74215317 -1049.91089
v 196.187164 -34.4309235 -1024.58215
v 176.293976 -37.7501297 -1019.27966
v 155.588226 -38.6319427 -1016.97278
v 132.043762 -38.0913696 -1018.47266
v 103.489349 -37.1927109 -1022.73608
v 207.010406 -63.7205429 -995.595581
v 187.059418 -69.1129532 -988.922485
v 166.269135 -70.6656494 -984.261353
v 143.5867 -69.276825 -983.420166
v 117.959961 -66.2194824 -986.752197
v 88.433075 -62.6125031 -992.564697
v 222.427399 -85.7097549 -961.645264
v 202.898956 -94.3088379 -954.233521
v 181.571808 -98.3782959 -947.898315
v 158.283478 -97.8805695 -944.996704
v 132.800385 -94.0583344 -946.85437
v 105.166962 -88.4372177 -952.998657
v 75.7374573 -82.2721786 -960.969604
v 141.239014 123.0243 -1105.22778
v 128.694031 91.2222061 -1099.87854
v 110.59787 118.654068 -1098.42944
v 116.440826 56.3678207 -1089.1001
v 97.4342346 82.8454819 -1093.22803
v 77.467926 109.970337 -1085.70935
v 102.631531 21.1978111 -1072.19666
v 84.3750916 46.4073105 -1081.99915
v 63.8044739 71.4654541 -1079.73645
v 42.7450562 98.5157318 -1067.22046
v 86.6307068 -11.8766747 -1049.19812
v 69.1737061 11.4790955 -1064.19873
v 49.6422424 34.5630188 -1067.19958
v 28.107666 58.6477509 -1059.92285
v 7.08163452 85.015007 -1045.04358
v 69.5047302 -41.1836624 -1020.52795
v 51.5138855 -20.6302299 -1039.4436
v 32.590332 0.0668849945 -1047.42749
v 11.9628906 21.5940742 -1045.34705
v -9.39157104 44.5759048 -1035.69141
v -28.6777954 70.1329803 -1021.78345
v 53.6076355 -65.6810913 -986.700439
v 33.016571 -49.0149689 -1006.97314
v 12.7337341 -31.5326004 -1018.9408
v -7.9335022 -12.7402649 -1022.00134
v -28.6271973 7.56479645 -1017.71033
v -47.7510071 30.1396923 -1008.8396
v -62.6531982 55.9415054 -998.454224
v 130.392609 147.791504 -1100.9751
v 95.7683411 143.904358 -1088.02856
v 120.306519 167.882812 -1090.42615
v 60.1763 135.637939 -1069.86365
v 83.1827087 164.769073 -1072.29944
v 111.17157 185.443634 -1075.2334
v 23.7018433 123.855415 -1048.06384
v 45.4889832 157.249298 -1050.79138
v 71.2941284 183.614166 -1053.82373
v 100.764221 201.849976 -1056.21973
v -13.8426208 108.968605 -1025.12073
v 6.44857788 145.295563 -1027.91479
v 30.9293518 176.982178 -1030.57812
v 58.0931091 201.458069 -1032.63013
v 87.0776672 217.428772 -1033.92249
v -51.4223938 92.5881348 -1001.89209
v -34.2904663 129.939148 -1004.63733
v -12.2352295 165.703339 -1007.10205
v 13.1828003 196.394409 -1008.38599
v 40.8081055 218.869873 -1008.84082
v 69.6914978 231.728455 -1009.01123
v 60.3913574 243.240112 -983.187378
v 27.7810974 234.98584 -984.401733
v 22.7615967 244.767517 -959.071411
v -2.3949585 215.421875 -985.779785
v -10.8808899 230.636749 -962.88916
v -11.8135071 238.467957 -936.724731
v -29.603302 185.679657 -986.581299
v -40.467041 204.21817 -966.508057
v -44.6618652 218.007721 -943.821777
v -41.2035522 223.58786 -916.491699
v -53.5948792 148.986389 -985.312378
v -66.3484802 168.803406 -967.638184
v -72.7489624 186.254181 -948.546265
v -72.238678 198.058899 -925.706543
v -63.9254456 201.512726 -897.548462
v -73.3633728 108.477859 -982.404541
v -88.6111755 127.483467 -965.347778
v -97.0441895 146.722137 -948.654053
v -98.4445801 162.751312 -929.668457
v -92.519104 172.745911 -906.484131
v -79.2562866 175.08609 -878.050659
v -87.120697 67.0606995 -978.786865
v -105.475983 82.514801 -960.866821
v -116.735931 101.336731 -944.173462
v -120.182236 119.876083 -927.096313
v -115.772903 134.68689 -907.561279
v -104.17334 143.895569 -884.042358
v -86.90979 146.651154 -856.563721
v -85.3099976 27.3728867 -980.30542
v -68.785614 -0.196252823 -987.765869
v -102.438782 3.21455383 -959.505615
v -48.2763367 -22.3373909 -992.559937
v -83.5536499 -24.0567245 -963.8396
v -112.362915 -15.2126122 -936.268433
v -25.7466125 -41.0081406 -991.743042
v -60.4755249 -44.7573013 -964.409546
v -90.5706787 -41.1293259 -937.393555
v -113.295883 -27.646225 -911.246826
v -2.06265259 -57.4748154 -983.716553
v -34.5904236 -61.5001984 -958.9552
v -64.0099182 -60.1466751 -934.032837
v -88.273407 -51.7945786 -909.366577
v -104.43103 -35.7064056 -885.178467
v 23.0393066 -72.5697327 -967.855103
v -5.9788208 -76.067688 -946.507446
v -33.2641907 -75.4623947 -924.39209
v -57.3901062 -69.7027893 -902.271118
v -75.9757996 -58.1169052 -880.358154
v -86.5979614 -41.7713623 -858.306274
v 50.6483459 -87.6403656 -944.926636
v 26.2388 -90.3303986 -926.832764
v 2.44534302 -89.6525421 -907.628052
v -20.1196289 -84.849968 -888.326416
v -39.7112732 -75.5187454 -869.227051
v -53.9754944 -62.481514 -850.149536
v -61.5534973 -47.623024 -830.534424
v 86.2744751 -100.616295 -924.521851
v 119.841278 -108.803368 -914.251587
v 102.408112 -114.2342 -889.643311
v 150.421112 -114.93708 -908.302124
v 139.524933 -122.194359 -879.662476
v 122.610016 -122.967674 -857.591919
v 178.37088 -117.385551 -908.022827
v 172.887543 -126.271477 -875.524658
v 162.430206 -128.819 -849.511963
v 144.525299 -126.495979 -828.997681
v 203.846588 -114.791435 -912.627441
v 203.085602 -125.366768 -876.794312
v 197.680878 -129.497986 -847.005249
v 185.644745 -129.424286 -822.836304
v 165.267242 -125.094856 -803.398193
v 226.421906 -106.640587 -919.940063
v 229.617828 -118.715309 -881.559814
v 228.485321 -124.386955 -848.119263
v 220.802948 -125.878563 -820.287842
v 205.370514 -124.171349 -797.829102
v 182.006317 -119.003548 -779.600708
v 245.950958 -93.8075409 -927.559814
v 251.905121 -106.432533 -887.603149
v 254.354218 -113.175697 -850.793579
v 250.363129 -115.784355 -819.120728
v 238.521332 -115.614998 -793.479736
v 219.186249 -113.226341 -773.276245
v 193.883331 -108.723656 -757.186768
v 259.70816 -73.81147 -946.419922
v 267.520844 -49.2351303 -973.173828
v 276.886627 -68.8184357 -921.838135
v 275.352081 -20.7195206 -997.190918
v 282.772552 -43.0617905 -949.548096
v 290.823212 -59.202858 -896.244019
v 282.513519 11.4369297 -1016.59753
v 288.285248 -13.6296921 -973.990356
v 294.81955 -32.3941727 -924.984009
v 300.869904 -45.7767944 -871.53064
v 288.642548 46.601059 -1029.17004
v 292.718231 19.3326626 -992.893555
v 297.86618 -2.13603973 -949.318481
v 303.144623 -18.0029526 -900.249146
v 306.191071 -29.4865723 -848.552612
v 292.603424 83.3805771 -1033.20874
v 295.267365 55.6313019 -1003.67017
v 298.77536 31.8667545 -966.397217
v 303.081451 13.204772 -922.543823
v 306.476288 -0.806163788 -874.772461
v 305.824677 -11.5040588 -826.398804
v 291.946198 119.481316 -1028.28516
v 294.109528 94.0978012 -1004.11743
v 295.963043 69.6289749 -973.011108
v 298.550568 48.5545731 -934.979126
v 301.352448 31.6224194 -891.890869
v 302.389313 18.2042084 -846.986328
v 298.703644 7.11068153 -803.694336
v 282.918365 155.697754 -1023.05774
v 267.426056 182.258759 -1022.05969
v 270.37381 164.467987 -995.859863
v 245.241669 200.623352 -1019.92786
v 248.234406 189.154358 -994.306396
v 250.305634 169.14859 -966.59082
v 216.942963 213.229401 -1016.28015
v 220.279999 205.866089 -991.412598
v 222.091278 191.599579 -965.571167
v 224.115936 170.439697 -936.319702
v 183.412689 222.876465 -1010.18359
v 187.305145 218.056976 -986.22229
v 189.196808 207.2677 -961.931641
v 190.901825 190.739655 -935.893677
v 194.047943 169.377777 -905.576904
v 145.421906 231.822144 -1001.11548
v 149.292328 228.594879 -978.801392
v 151.39798 219.876617 -955.56543
v 152.679779 205.831512 -931.598389
v 156.401398 187.572754 -905.210083
v 162.328278 166.913513 -874.671143
v 103.00415 240.206604 -989.380981
v 105.7659 238.633087 -968.361084
v 107.691742 231.342621 -945.836914
v 109.998779 218.555634 -922.657593
v 113.855347 201.521179 -898.818115
v 120.976929 182.466339 -872.891357
v 130.883636 163.349854 -843.843018
v 62.2721863 245.875092 -960.738525
v 24.9675598 244.684875 -933.447144
v 63.976532 240.707275 -936.994019
v -7.12945557 235.056213 -908.380005
v 28.3699646 235.310303 -907.478027
v 66.7332764 228.858765 -912.812988
v -32.8592224 216.90274 -885.652832
v -0.34185791 221.751709 -879.987183
v 34.174469 219.050903 -881.523438
v 71.8313904 211.647125 -888.424194
v -51.7085876 191.668274 -864.047607
v -22.0530396 200.177002 -853.991455
v 9.55880737 201.658142 -850.950195
v 43.4893799 197.962189 -854.65332
v 80.4663086 191.184174 -862.622559
v -63.4107971 161.656128 -841.066895
v -36.9840393 171.503998 -827.467163
v -7.8392334 176.545898 -819.332031
v 23.7163696 177.20929 -818.710327
v 57.5501404 174.668396 -824.057739
v 93.4716797 169.915405 -832.92334
v -110.59726 39.4921417 -958.375732
v -124.907761 18.1743851 -936.022705
v -126.539032 56.5750122 -938.983154
v -129.361908 2.79354477 -911.908813
v -135.697098 37.3111343 -915.357666
v -132.977081 76.1349564 -920.851318
v -123.141037 -8.37427521 -886.254395
v -133.315628 22.463316 -889.696167
v -135.702347 56.7256088 -895.308472
v -130.181656 94.3087921 -901.791016
v -106.636536 -17.6464882 -858.739136
v -119.602325 9.79442787 -861.40625
v -126.012527 40.3653641 -866.553101
v -125.795227 73.4604416 -873.071045
v -118.780212 108.399185 -879.407837
v -80.579071 -26.7997665 -828.707031
v -94.8155823 -2.53956985 -829.209106
v -104.023987 24.7548943 -832.736938
v -107.981689 54.3104858 -838.548584
v -106.722961 85.3414154 -845.351807
v -99.8003845 116.599495 -851.608887
v 63.1653137 -103.332573 -906.611816
v 81.0080261 -113.493355 -871.911621
v 41.4931946 -102.5476 -888.755005
v 101.734711 -118.611839 -840.60791
v 60.7982483 -108.842476 -855.220215
v 20.5144653 -97.8112946 -870.97168
v 122.915436 -119.368202 -811.831909
v 81.7115784 -110.615746 -824.530884
v 41.0766296 -100.506935 -838.39917
v 0.452697754 -89.0924072 -853.323364
v 142.411316 -116.198143 -784.681519
v 102.258362 -109.014015 -794.584839
v 62.1933594 -99.5405502 -807.045898
v 22.1524353 -88.8870087 -820.640381
v -16.9396362 -76.8087082 -835.064575
v 158.695282 -108.710503 -758.349976
v 121.217682 -104.274376 -764.115112
v 82.6066284 -96.0907516 -773.827271
v 43.8794556 -86.1814041 -786.0896
v 6.24945068 -75.0554581 -799.981201
v -29.2212524 -62.2688446 -814.895508
v 267.332733 -89.7360077 -900.377563
v 283.904266 -80.9006042 -872.342163
v 272.638153 -98.1013718 -857.756958
v 295.442596 -68.157135 -845.714355
v 286.04953 -85.8691254 -829.31604
v 271.851837 -101.430443 -820.768555
v 301.714996 -52.3509064 -821.71228
v 292.990265 -70.7829666 -803.584961
v 280.288788 -86.8012314 -793.337891
v 262.834137 -101.812294 -790.28418
v 302.075104 -34.1040497 -800.07959
v 293.581879 -53.2961121 -780.75061
v 281.208649 -70.1488876 -768.701782
v 265.127045 -85.8094788 -764.041504
v 244.960358 -100.608788 -765.977661
v 295.554962 -14.0113068 -778.720825
v 287.080353 -33.4689865 -759.101929
v 274.497894 -51.3111572 -745.804688
v 258.628998 -68.0381393 -739.578369
v 240.004547 -83.723938 -740.145752
v 218.655365 -97.8181076 -746.443604
v 286.097687 131.815186 -999.92981
v 272.299408 139.961853 -968.58728
v 287.188995 107.017334 -971.781738
v 251.345428 144.641632 -935.647217
v 272.347198 115.934471 -936.802002
v 288.053253 83.9853592 -937.592285
v 224.749969 146.740173 -901.839844
v 250.672577 121.827087 -900.129517
v 272.27005 94.2927017 -899.353027
v 289.442474 64.125412 -897.415894
v 194.303925 147.191956 -867.46521
v 223.423431 125.535843 -862.036011
v 249.640656 101.610504 -858.539673
v 272.37912 75.3937073 -855.988037
v 290.504852 47.3449554 -852.644409
v 161.345184 146.391846 -832.515991
v 191.560638 127.623032 -822.480835
v 220.699738 106.590561 -814.898193
v 247.712677 83.3144226 -810.251587
v 270.932465 58.2867279 -807.700684
v 288.391632 32.5691833 -805.839722
v 92.4636841 22.0842419 -646.473389
v 95.9216003 49.4997177 -651.441895
v 56.4539185 37.151825 -656.683716
v 99.4407959 75.1794891 -667.573242
v 58.0198059 66.4937057 -667.395264
v 22.9189453 52.4652328 -678.342407
v 103.493073 97.6929474 -693.719482
v 61.0919495 92.477272 -689.333618
v 24.6603088 82.3430862 -693.95459
v -6.97491455 68.6482925 -710.192017
v 108.083588 116.899719 -727.450195
v 65.9667664 115.050209 -719.319946
v 28.7865906 108.531586 -719.123413
v -3.91546631 98.9410629 -728.242554
v -33.1690063 86.6026535 -747.959595
v 113.45282 133.738861 -765.529541
v 72.4729309 135.061279 -754.46521
v 35.4273682 132.238312 -750.093018
v 1.94226074 126.362946 -753.371948
v -28.1144409 118.062668 -765.892334
v -55.7390137 106.569626 -786.462891
v 120.641418 148.962311 -805.056885
v 81.1360168 153.180695 -792.736816
v 44.6120911 154.223022 -785.125488
v 10.8870544 152.377777 -783.322876
v -20.0100403 147.608307 -789.635254
v -48.2064819 139.563477 -803.770508
v -74.0381775 127.258492 -822.980591
v 131.31076 24.162981 -646.02356
v 169.160309 25.2927628 -654.921265
v 137.447815 52.4522552 -655.716309
v 204.23349 24.4985638 -672.563599
v 176.152435 52.6957245 -670.347046
v 142.35376 76.9275436 -677.151611
v 235.352936 21.5351257 -697.922607
v 211.077789 50.0028076 -694.0177
v 180.870758 75.1745834 -697.275635
v 146.492279 97.2010574 -708.434937
v 262.018341 17.0295486 -729.378662
v 241.760956 45.0087967 -725.454834
v 214.986542 70.6735611 -726.404541
v 184.057587 93.769371 -733.367554
v 149.889923 114.67704 -746.499268
v 283.674347 12.1140957 -765.060547
v 267.986359 38.9825897 -763.102417
v 245.220917 64.8001556 -763.335205
v 217.531036 88.9006958 -767.1604
v 186.806732 110.870407 -775.599243
v 154.265961 130.7099 -788.61792
v 112.27002 -3.76937103 -648.842896
v 130.158997 -27.7372437 -659.577026
v 153.805817 -2.88617134 -651.57666
v 145.388214 -48.8849564 -675.716309
v 171.713715 -26.9605179 -664.864624
v 191.257538 -2.47623825 -663.454956
v 158.192719 -67.2024689 -694.596069
v 185.305695 -48.0206146 -682.333862
v 207.052277 -26.6364746 -678.466431
v 224.001068 -3.56195068 -683.087158
v 169.867462 -83.1094131 -714.691162
v 196.346893 -66.4854431 -701.976929
v 218.620026 -47.750267 -696.677612
v 237.309784 -27.6985397 -698.905762
v 252.18576 -6.26277161 -709.381348
v 181.837006 -96.8905487 -735.496338
v 207.149994 -82.9138718 -723.177124
v 228.958649 -66.4758148 -717.001831
v 247.920685 -48.8154526 -717.599365
v 263.954559 -30.0536804 -725.621216
v 276.373505 -9.96157455 -741.378662
v 66.6047363 4.42831802 -655.37146
v 41.8186951 -10.4909668 -674.700562
v 85.2333069 -22.876297 -662.285645
v 18.4333496 -21.8724289 -702.335449
v 59.598053 -37.3066864 -684.825317
v 101.804443 -46.1110001 -676.864746
v -3.82522583 -30.2711334 -734.437988
v 35.4680481 -47.2459106 -713.942871
v 75.4514465 -58.8303528 -701.399902
v 116.483063 -65.5026855 -695.3302
v -25.1876831 -36.8097076 -767.490845
v 12.4562073 -53.7273865 -746.63269
v 50.7822876 -66.7162247 -731.156006
v 90.1668396 -76.1855316 -720.929932
v 130.045349 -81.8980713 -715.352051
v -44.9029846 -42.1898956 -799.826172
v -9.36044312 -58.3343658 -780.667358
v 27.5987549 -71.4144516 -764.415771
v 65.9023743 -82.2380371 -751.339478
v 104.973083 -90.8874207 -741.846313
v 143.753082 -96.1381683 -736.185547
v 28.6543579 20.4113426 -672.016235
v -4.50680542 37.178299 -700.548462
v 4.00695801 7.36781883 -698.046387
v -33.6607971 55.0780945 -736.956543
v -28.5183411 25.6207905 -730.85022
v -18.7264709 -2.68371201 -729.843262
v -59.6305847 74.5941467 -776.234253
v -57.630249 44.5034561 -768.343872
v -51.2912292 16.1284676 -763.709839
v -40.684021 -11.0709381 -763.217773
v -82.2255859 95.7102509 -814.869263
v -84.0783386 64.7685471 -807.020752
v -81.102356 35.2437592 -800.52478
v -73.7555237 7.36620331 -796.601807
v -61.7941284 -18.6800613 -796.251221
g 
f 3 1 2
f 5 2 4
f 6 3 5
f 8 4 7
f 9 5 8
f 10 6 9
f 12 7 11
f 13 8 12
f 14 9 13
f 15 10 14
f 17 11 16
f 18 12 17
f 19 13 18
f 20 14 19
f 21 15 20
f 23 16 22
f 24 17 23
f 25 18 24
f 26 19 25
f 27 20 26
f 28 21 27
f 30 22 29
f 31 23 30
f 32 24 31
f 33 25 32
f 34 26 33
f 35 27 34
f 36 28 35
f 3 2 5
f 5 4 8
f 6 5 9
f 8 7 12
f 9 8 13
f 10 9 14
f 12 11 17
f 13 12 18
f 14 13 19
f 15 14 20
f 17 16 23
f 18 17 24
f 19 18 25
f 20 19 26
f 21 20 27
f 23 22 30
f 24 23 31
f 25 24 32
f 26 25 33
f 27 26 34
f 28 27 35
f 37 1 3
f 38 3 6
f 39 37 38
f 40 6 10
f 41 38 40
f 42 39 41
f 43 10 15
f 44 40 43
f 45 41 44
f 46 42 45
f 47 15 21
f 48 43 47
f 49 44 48
f 50 45 49
f 51 46 50
f 52 21 28
f 53 47 52
f 54 48 53
f 55 49 54
f 56 50 55
f 57 51 56
f 58 28 36
f 59 52 58
f 60 53 59
f 61 54 60
f 62 55 61
f 63 56 62
f 64 57 63
f 37 3 38
f 38 6 40
f 39 38 41
f 40 10 43
f 41 40 44
f 42 41 45
f 43 15 47
f 44 43 48
f 45 44 49
f 46 45 50
f 47 21 52
f 48 47 53
f 49 48 54
f 50 49 55
f 51 50 56
f 52 28 58
f 53 52 59
f 54 53 60
f 55 54 61
f 56 55 62
f 57 56 63
f 65 1 37
f 66 37 39
f 67 65 66
f 68 39 42
f 69 66 68
f 70 67 69
f 71 42 46
f 72 68 71
f 73 69 72
f 74 70 73
f 75 46 51
f 76 71 75
f 77 72 76
f 78 73 77
f 79 74 78
f 80 51 57
f 81 75 80
f 82 76 81
f 83 77 82
f 84 78 83
f 85 79 84
f 86 57 64
f 87 80 86
f 88 81 87
f 89 82 88
f 90 83 89
f 91 84 90
f 92 85 91
f 65 37 66
f 66 39 68
f 67 66 69
f 68 42 71
f 69 68 72
f 70 69 73
f 71 46 75
f 72 71 76
f 73 72 77
f 74 73 78
f 75 51 80
f 76 75 81
f 77 76 82
f 78 77 83
f 79 78 84
f 80 57 86
f 81 80 87
f 82 81 88
f 83 82 89
f 84 83 90
f 85 84 91
f 93 1 65
f 94 65 67
f 95 93 94
f 96 67 70
f 97 94 96
f 98 95 97
f 99 70 74
f 100 96 99
f 101 97 100
f 102 98 101
f 103 74 79
f 104 99 103
f 105 100 104
f 106 101 105
f 107 102 106
f 108 79 85
f 109 103 108
f 110 104 109
f 111 105 110
f 112 106 111
f 113 107 112
f 114 85 92
f 115 108 114
f 116 109 115
f 117 110 116
f 118 111 117
f 119 112 118
f 120 113 119
f 93 65 94
f 94 67 96
f 95 94 97
f 96 70 99
f 97 96 100
f 98 97 101
f 99 74 103
f 100 99 104
f 101 100 105
f 102 101 106
f 103 79 108
f 104 103 109
f 105 104 110
f 106 105 111
f 107 106 112
f 108 85 114
f 109 108 115
f 110 109 116
f 111 110 117
f 112 111 118
f 113 112 119
f 2 1 93
f 121 93 95
f 4 2 121
f 122 95 98
f 123 121 122
f 7 4 123
f 124 98 102
f 125 122 124
f 126 123 125
f 11 7 126
f 127 102 107
f 128 124 127
f 129 125 128
f 130 126 129
f 16 11 130
f 131 107 113
f 132 127 131
f 133 128 132
f 134 129 133
f 135 130 134
f 22 16 135
f 136 113 120
f 137 131 136
f 138 132 137
f 139 133 138
f 140 134 139
f 141 135 140
f 29 22 141
f 2 93 121
f 121 95 122
f 4 121 123
f 122 98 124
f 123 122 125
f 7 123 126
f 124 102 127
f 125 124 128
f 126 125 129
f 11 126 130
f 127 107 131
f 128 127 132
f 129 128 133
f 130 129 134
f 16 130 135
f 131 113 136
f 132 131 137
f 133 132 138
f 134 133 139
f 135 134 140
f 22 135 141
f 142 29 141
f 143 141 140
f 144 142 143
f 145 140 139
f 146 143 145
f 147 144 146
f 148 139 138
f 149 145 148
f 150 146 149
f 151 147 150
f 152 138 137
f 153 148 152
f 154 149 153
f 155 150 154
f 156 151 155
f 157 137 136
f 158 152 157
f 159 153 158
f 160 154 159
f 161 155 160
f 162 156 161
f 163 136 120
f 164 157 163
f 165 158 164
f 166 159 165
f 167 160 166
f 168 161 167
f 169 162 168
f 142 141 143
f 143 140 145
f 144 143 146
f 145 139 148
f 146 145 149
f 147 146 150
f 148 138 152
f 149 148 153
f 150 149 154
f 151 150 155
f 152 137 157
f 153 152 158
f 154 153 159
f 155 154 160
f 156 155 161
f 157 136 163
f 158 157 164
f 159 158 165
f 160 159 166
f 161 160 167
f 162 161 168
f 170 120 119
f 171 119 118
f 172 170 171
f 173 118 117
f 174 171 173
f 175 172 174
f 176 117 116
f 177 173 176
f 178 174 177
f 179 175 178
f 180 116 115
f 181 176 180
f 182 177 181
f 183 178 182
f 184 179 183
f 185 115 114
f 186 180 185
f 187 181 186
f 188 182 187
f 189 183 188
f 190 184 189
f 191 114 92
f 192 185 191
f 193 186 192
f 194 187 193
f 195 188 194
f 196 189 195
f 197 190 196
f 170 119 171
f 171 118 173
f 172 171 174
f 173 117 176
f 174 173 177
f 175 174 178
f 176 116 180
f 177 176 181
f 178 177 182
f 179 178 183
f 180 115 185
f 181 180 186
f 182 181 187
f 183 182 188
f 184 183 189
f 185 114 191
f 186 185 192
f 187 186 193
f 188 187 194
f 189 188 195
f 190 189 196
f 198 92 91
f 199 91 90
f 200 198 199
f 201 90 89
f 202 199 201
f 203 200 202
f 204 89 88
f 205 201 204
f 206 202 205
f 207 203 206
f 208 88 87
f 209 204 208
f 210 205 209
f 211 206 210
f 212 207 211
f 213 87 86
f 214 208 213
f 215 209 214
f 216 210 215
f 217 211 216
f 218 212 217
f 219 86 64
f 220 213 219
f 221 214 220
f 222 215 221
f 223 216 222
f 224 217 223
f 225 218 224
f 198 91 199
f 199 90 201
f 200 199 202
f 201 89 204
f 202 201 205
f 203 202 206
f 204 88 208
f 205 204 209
f 206 205 210
f 207 206 211
f 208 87 213
f 209 208 214
f 210 209 215
f 211 210 216
f 212 211 217
f 213 86 219
f 214 213 220
f 215 214 221
f 216 215 222
f 217 216 223
f 218 217 224
f 226 64 63
f 227 63 62
f 228 226 227
f 229 62 61
f 230 227 229
f 231 228 230
f 232 61 60
f 233 229 232
f 234 230 233
f 235 231 234
f 236 60 59
f 237 232 236
f 238 233 237
f 239 234 238
f 240 235 239
f 241 59 58
f 242 236 241
f 243 237 242
f 244 238 243
f 245 239 244
f 246 240 245
f 247 58 36
f 248 241 247
f 249 242 248
f 250 243 249
f 251 244 250
f 252 245 251
f 253 246 252
f 226 63 227
f 227 62 229
f 228 227 230
f 229 61 232
f 230 229 233
f 231 230 234
f 232 60 236
f 233 232 237
f 234 233 238
f 235 234 239
f 236 59 241
f 237 236 242
f 238 237 243
f 239 238 244
f 240 239 245
f 241 58 247
f 242 241 248
f 243 242 249
f 244 243 250
f 245 244 251
f 246 245 252
f 254 36 35
f 255 35 34
f 256 254 255
f 257 34 33
f 258 255 257
f 259 256 258
f 260 33 32
f 261 257 260
f 262 258 261
f 263 259 262
f 264 32 31
f 265 260 264
f 266 261 265
f 267 262 266
f 268 263 267
f 269 31 30
f 270 264 269
f 271 265 270
f 272 266 271
f 273 267 272
f 274 268 273
f 275 30 29
f 276 269 275
f 277 270 276
f 278 271 277
f 279 272 278
f 280 273 279
f 281 274 280
f 254 35 255
f 255 34 257
f 256 255 258
f 257 33 260
f 258 257 261
f 259 258 262
f 260 32 264
f 261 260 265
f 262 261 266
f 263 262 267
f 264 31 269
f 265 264 270
f 266 265 271
f 267 266 272
f 268 267 273
f 269 30 275
f 270 269 276
f 271 270 277
f 272 271 278
f 273 272 279
f 274 273 280
f 275 29 142
f 282 142 144
f 276 275 282
f 283 144 147
f 284 282 283
f 277 276 284
f 285 147 151
f 286 283 285
f 287 284 286
f 278 277 287
f 288 151 156
f 289 285 288
f 290 286 289
f 291 287 290
f 279 278 291
f 292 156 162
f 293 288 292
f 294 289 293
f 295 290 294
f 296 291 295
f 280 279 296
f 297 162 169
f 298 292 297
f 299 293 298
f 300 294 299
f 301 295 300
f 302 296 301
f 281 280 302
f 275 142 282
f 282 144 283
f 276 282 284
f 283 147 285
f 284 283 286
f 277 284 287
f 285 151 288
f 286 285 289
f 287 286 290
f 278 287 291
f 288 156 292
f 289 288 293
f 290 289 294
f 291 290 295
f 279 291 296
f 292 162 297
f 293 292 298
f 294 293 299
f 295 294 300
f 296 295 301
f 280 296 302
f 163 120 170
f 303 170 172
f 164 163 303
f 304 172 175
f 305 303 304
f 165 164 305
f 306 175 179
f 307 304 306
f 308 305 307
f 166 165 308
f 309 179 184
f 310 306 309
f 311 307 310
f 312 308 311
f 167 166 312
f 313 184 190
f 314 309 313
f 315 310 314
f 316 311 315
f 317 312 316
f 168 167 317
f 318 190 197
f 319 313 318
f 320 314 319
f 321 315 320
f 322 316 321
f 323 317 322
f 169 168 323
f 163 170 303
f 303 172 304
f 164 303 305
f 304 175 306
f 305 304 307
f 165 305 308
f 306 179 309
f 307 306 310
f 308 307 311
f 166 308 312
f 309 184 313
f 310 309 314
f 311 310 315
f 312 311 316
f 167 312 317
f 313 190 318
f 314 313 319
f 315 314 320
f 316 315 321
f 317 316 322
f 168 317 323
f 191 92 198
f 324 198 200
f 192 191 324
f 325 200 203
f 326 324 325
f 193 192 326
f 327 203 207
f 328 325 327
f 329 326 328
f 194 193 329
f 330 207 212
f 331 327 330
f 332 328 331
f 333 329 332
f 195 194 333
f 334 212 218
f 335 330 334
f 336 331 335
f 337 332 336
f 338 333 337
f 196 195 338
f 339 218 225
f 340 334 339
f 341 335 340
f 342 336 341
f 343 337 342
f 344 338 343
f 197 196 344
f 191 198 324
f 324 200 325
f 192 324 326
f 325 203 327
f 326 325 328
f 193 326 329
f 327 207 330
f 328 327 331
f 329 328 332
f 194 329 333
f 330 212 334
f 331 330 335
f 332 331 336
f 333 332 337
f 195 333 338
f 334 218 339
f 335 334 340
f 336 335 341
f 337 336 342
f 338 337 343
f 196 338 344
f 219 64 226
f 345 226 228
f 220 219 345
f 346 228 231
f 347 345 346
f 221 220 347
f 348 231 235
f 349 346 348
f 350 347 349
f 222 221 350
f 351 235 240
f 352 348 351
f 353 349 352
f 354 350 353
f 223 222 354
f 355 240 246
f 356 351 355
f 357 352 356
f 358 353 357
f 359 354 358
f 224 223 359
f 360 246 253
f 361 355 360
f 362 356 361
f 363 357 362
f 364 358 363
f 365 359 364
f 225 224 365
f 219 226 345
f 345 228 346
f 220 345 347
f 346 231 348
f 347 346 349
f 221 347 350
f 348 235 351
f 349 348 352
f 350 349 353
f 222 350 354
f 351 240 355
f 352 351 356
f 353 352 357
f 354 353 358
f 223 354 359
f 355 246 360
f 356 355 361
f 357 356 362
f 358 357 363
f 359 358 364
f 224 359 365
f 247 36 254
f 366 254 256
f 248 247 366
f 367 256 259
f 368 366 367
f 249 248 368
f 369 259 263
f 370 367 369
f 371 368 370
f 250 249 371
f 372 263 268
f 373 369 372
f 374 370 373
f 375 371 374
f 251 250 375
f 376 268 274
f 377 372 376
f 378 373 377
f 379 374 378
f 380 375 379
f 252 251 380
f 381 274 281
f 382 376 381
f 383 377 382
f 384 378 383
f 385 379 384
f 386 380 385
f 253 252 386
f 247 254 366
f 366 256 367
f 248 366 368
f 367 259 369
f 368 367 370
f 249 368 371
f 369 263 372
f 370 369 373
f 371 370 374
f 250 371 375
f 372 268 376
f 373 372 377
f 374 373 378
f 375 374 379
f 251 375 380
f 376 274 381
f 377 376 382
f 378 377 383
f 379 378 384
f 380 379 385
f 252 380 386
f 389 387 388
f 391 388 390
f 392 389 391
f 394 390 393
f 395 391 394
f 396 392 395
f 398 393 397
f 399 394 398
f 400 395 399
f 401 396 400
f 403 397 402
f 404 398 403
f 405 399 404
f 406 400 405
f 407 401 406
f 409 402 408
f 410 403 409
f 411 404 410
f 412 405 411
f 413 406 412
f 414 407 413
f 302 408 281
f 301 409 302
f 300 410 301
f 299 411 300
f 298 412 299
f 297 413 298
f 169 414 297
f 389 388 391
f 391 390 394
f 392 391 395
f 394 393 398
f 395 394 399
f 396 395 400
f 398 397 403
f 399 398 404
f 400 399 405
f 401 400 406
f 403 402 409
f 404 403 410
f 405 404 411
f 406 405 412
f 407 406 413
f 409 408 302
f 410 409 301
f 411 410 300
f 412 411 299
f 413 412 298
f 414 413 297
f 388 387 415
f 417 415 416
f 390 388 417
f 419 416 418
f 420 417 419
f 393 390 420
f 422 418 421
f 423 419 422
f 424 420 423
f 397 393 424
f 426 421 425
f 427 422 426
f 428 423 427
f 429 424 428
f 402 397 429
f 431 425 430
f 432 426 431
f 433 427 432
f 434 428 433
f 435 429 434
f 408 402 435
f 386 430 253
f 385 431 386
f 384 432 385
f 383 433 384
f 382 434 383
f 381 435 382
f 281 408 381
f 388 415 417
f 417 416 419
f 390 417 420
f 419 418 422
f 420 419 423
f 393 420 424
f 422 421 426
f 423 422 427
f 424 423 428
f 397 424 429
f 426 425 431
f 427 426 432
f 428 427 433
f 429 428 434
f 402 429 435
f 431 430 386
f 432 431 385
f 433 432 384
f 434 433 383
f 435 434 382
f 408 435 381
f 415 387 436
f 438 436 437
f 416 415 438
f 440 437 439
f 441 438 440
f 418 416 441
f 443 439 442
f 444 440 443
f 445 441 444
f 421 418 445
f 447 442 446
f 448 443 447
f 449 444 448
f 450 445 449
f 425 421 450
f 452 446 451
f 453 447 452
f 454 448 453
f 455 449 454
f 456 450 455
f 430 425 456
f 365 451 225
f 364 452 365
f 363 453 364
f 362 454 363
f 361 455 362
f 360 456 361
f 253 430 360
f 415 436 438
f 438 437 440
f 416 438 441
f 440 439 443
f 441 440 444
f 418 441 445
f 443 442 447
f 444 443 448
f 445 444 449
f 421 445 450
f 447 446 452
f 448 447 453
f 449 448 454
f 450 449 455
f 425 450 456
f 452 451 365
f 453 452 364
f 454 453 363
f 455 454 362
f 456 455 361
f 430 456 360
f 436 387 457
f 459 457 458
f 437 436 459
f 461 458 460
f 462 459 461
f 439 437 462
f 464 460 463
f 465 461 464
f 466 462 465
f 442 439 466
f 468 463 467
f 469 464 468
f 470 465 469
f 471 466 470
f 446 442 471
f 473 467 472
f 474 468 473
f 475 469 474
f 476 470 475
f 477 471 476
f 451 446 477
f 344 472 197
f 343 473 344
f 342 474 343
f 341 475 342
f 340 476 341
f 339 477 340
f 225 451 339
f 436 457 459
f 459 458 461
f 437 459 462
f 461 460 464
f 462 461 465
f 439 462 466
f 464 463 468
f 465 464 469
f 466 465 470
f 442 466 471
f 468 467 473
f 469 468 474
f 470 469 475
f 471 470 476
f 446 471 477
f 473 472 344
f 474 473 343
f 475 474 342
f 476 475 341
f 477 476 340
f 451 477 339
f 457 387 389
f 478 389 392
f 458 457 478
f 479 392 396
f 480 478 479
f 460 458 480
f 481 396 401
f 482 479 481
f 483 480 482
f 463 460 483
f 484 401 407
f 485 481 484
f 486 482 485
f 487 483 486
f 467 463 487
f 488 407 414
f 489 484 488
f 490 485 489
f 491 486 490
f 492 487 491
f 472 467 492
f 323 414 169
f 322 488 323
f 321 489 322
f 320 490 321
f 319 491 320
f 318 492 319
f 197 472 318
f 457 389 478
f 478 392 479
f 458 478 480
f 479 396 481
f 480 479 482
f 460 480 483
f 481 401 484
f 482 481 485
f 483 482 486
f 463 483 487
f 484 407 488
f 485 484 489
f 486 485 490
f 487 486 491
f 467 487 492
f 488 414 323
f 489 488 322
f 490 489 321
f 491 490 320
f 492 491 319
f 472 492 318
