# File exported by Houdini 20.5.445 (www.sidefx.com)
# 492 points
# 2940 vertices
# 980 primitives
# Bounds: [-143.716583, -115.781754, -1101.70361] to [314.490479, 232.158859, -653.097473]
g 
v 93.6417389 39.7668991 -1101.39819
v 78.9497528 71.4790344 -1097.33044
v 118.543213 60.7319412 -1100.43091
v 64.2430878 100.198586 -1090.84717
v 103.574219 94.0679703 -1095.95117
v 143.202698 80.7342453 -1098.19604
v 50.4157867 125.048981 -1083.2085
v 88.9404144 121.884605 -1088.65393
v 126.993347 113.238945 -1092.46265
v 167.001648 98.5678482 -1094.01208
v 37.5082245 146.530975 -1073.91284
v 74.8298798 144.864365 -1079.22827
v 111.390625 139.07695 -1082.82361
v 148.863403 128.68924 -1085.62524
v 189.252563 113.36454 -1086.22827
v 26.0751801 165.836685 -1061.34741
v 61.0912018 164.362061 -1066.75781
v 96.2051544 160.116745 -1069.76245
v 131.844666 152.072144 -1072.13623
v 169.233582 140.184525 -1073.98315
v 209.225342 124.182686 -1073.34277
v 16.7098846 183.262344 -1043.56433
v 48.7032623 181.512177 -1049.40149
v 81.7329254 177.949753 -1052.28186
v 115.854309 171.019196 -1053.86401
v 151.296692 160.673203 -1055.39075
v 188.409302 147.089905 -1056.49854
v 226.458557 130.087738 -1054.85181
v 9.59742737 198.134155 -1019.83868
v 38.7462616 196.353027 -1025.09985
v 69.433609 193.271362 -1028.18884
v 101.825623 186.8461 -1029.26306
v 135.827637 176.9422 -1030.14868
v 171.08075 163.984924 -1031.54736
v 206.773132 148.440582 -1032.59082
v 240.78894 130.58548 -1031.09229
v 123.612183 19.9719315 -1100.62012
v 152.782837 42.04953 -1098.16235
v 153.31311 1.33127594 -1092.85852
v 180.432678 62.856266 -1094.8501
v 185.542542 25.0793304 -1088.83325
v 181.912048 -14.4964828 -1077.54028
v 206.113464 81.3534241 -1089.37561
v 215.091614 46.9578247 -1084.03235
v 216.162415 10.594183 -1072.27954
v 207.818054 -26.8066788 -1055.26941
v 228.936646 96.4876328 -1079.60571
v 241.39209 65.7762527 -1076.49902
v 246.324707 32.6259079 -1065.6499
v 242.647095 -1.93072891 -1048.86841
v 228.798157 -36.4265137 -1027.33569
v 248.216919 106.887421 -1063.75439
v 263.656677 80.2321014 -1063.88721
v 272.035095 50.3994713 -1055.4856
v 272.024536 18.5522232 -1040.09082
v 262.458862 -13.7568512 -1019.6087
v 242.920044 -45.0185471 -995.685059
v 263.497437 111.268608 -1040.86597
v 281.351685 88.5496979 -1043.78003
v 292.666443 62.3139153 -1038.79517
v 295.759155 33.3125038 -1026.19019
v 289.248474 3.05797958 -1007.67145
v 273.13501 -26.8019753 -985.558655
v 249.037964 -54.7881927 -962.141785
v 87.0193634 7.20632362 -1101.70361
v 117.452942 -16.0786209 -1097.13501
v 79.6414032 -22.2210999 -1098.61169
v 145.725952 -35.2301865 -1083.49805
v 109.487671 -45.9430695 -1088.7655
v 70.695694 -45.1976547 -1090.65552
v 171.152405 -49.4468384 -1061.42285
v 135.299133 -63.2209015 -1068.65771
v 98.5805817 -67.2923584 -1074.63147
v 59.1719818 -59.4509811 -1076.82312
v 192.726196 -59.1246338 -1032.62952
v 156.86792 -74.7563858 -1039.95801
v 120.899414 -81.9008026 -1048.0083
v 83.7317657 -79.2106552 -1054.50696
v 44.7021942 -64.8881531 -1057.19263
v 209.047241 -66.0834122 -998.869507
v 173.814209 -82.1030045 -1004.82941
v 137.981934 -91.151413 -1012.88953
v 101.617554 -91.6779327 -1021.65759
v 64.7375946 -82.6753998 -1028.94189
v 28.3082733 -63.6411362 -1032.41553
v 218.424622 -73.412384 -961.646973
v 184.933716 -88.3283539 -964.725891
v 149.56073 -97.803093 -971.035339
v 113.259949 -100.081345 -980.022339
v 77.1604767 -94.2482071 -989.879395
v 42.8607635 -80.31353 -998.255066
v 11.6712494 -59.2829971 -1002.73438
v 60.4361725 40.1027641 -1098.41162
v 51.6178131 8.70526505 -1098.46509
v 28.6742096 43.2151718 -1091.70239
v 42.6311188 -16.3358917 -1094.73535
v 18.9116364 15.7336597 -1090.27771
v -1.24909973 50.922142 -1081.22888
v 32.4890289 -32.9203949 -1085.84265
v 9.04478455 -3.06151199 -1084.6731
v -11.46492 29.426672 -1077.37659
v -29.0122223 64.5261383 -1067.0437
v 20.3986664 -40.5885468 -1070.9043
v -1.88996887 -12.8564987 -1073.65588
v -22.0372467 17.453413 -1068.98047
v -39.6875153 49.7370377 -1059.97791
v -54.3256073 83.5521698 -1049.24487
v 6.69044495 -40.7684021 -1049.40051
v -13.9523163 -14.7778168 -1055.88904
v -33.3060455 13.7270136 -1054.25879
v -50.6682892 43.8687286 -1047.37402
v -65.3252411 74.6823349 -1037.80298
v -76.5254364 105.314804 -1027.8645
v -7.38926697 -36.8554153 -1020.23071
v -26.2311249 -11.6811295 -1029.3064
v -44.5948334 15.6508961 -1030.60352
v -61.598526 44.2025642 -1026.21387
v -76.0954742 72.7457809 -1018.60999
v -87.3173065 100.326523 -1009.9989
v -94.6905212 126.229965 -1002.70319
v 43.4779816 72.9360657 -1091.63599
v 11.3572845 76.8104019 -1082.83386
v 27.9445038 101.643204 -1083.59399
v -17.7184601 85.1463852 -1070.91895
v -3.76551819 106.179222 -1073.57654
v 14.3697662 126.655548 -1075.10181
v -43.9471283 99.1689529 -1055.81519
v -31.4878998 116.003517 -1060.9519
v -16.0908051 133.08728 -1064.33765
v 3.0098114 149.670441 -1065.04932
v -67.4314423 118.032616 -1037.29077
v -56.0004425 131.42569 -1045.2168
v -42.4789276 145.407837 -1050.56091
v -25.9585114 158.788834 -1052.66699
v -6.29420471 171.403564 -1050.56738
v -88.2047424 138.605499 -1013.85309
v -78.4245453 150.376236 -1024.10303
v -66.2937469 161.993195 -1031.54004
v -51.7960358 173.032639 -1034.8938
v -34.2541962 182.644455 -1033.87842
v -13.7432404 190.994186 -1028.64795
v -10.9056549 207.100235 -998.136841
v -36.598587 201.751114 -1006.77893
v -30.2783356 214.856232 -973.896545
v -57.3695831 195.030518 -1011.33929
v -56.7887115 209.95253 -982.048584
v -48.642746 220.710159 -947.837402
v -73.9238434 186.560333 -1011.18573
v -77.0631866 203.267761 -985.366089
v -75.070755 215.215088 -954.734619
v -66.0210114 224.290482 -919.951843
v -87.4476776 176.65564 -1005.86871
v -92.8748322 195.160172 -983.021545
v -94.6564941 208.424179 -955.487
v -91.9545135 218.338242 -924.254822
v -82.5339355 225.417908 -890.174133
v -98.4423218 165.289154 -995.728088
v -105.22673 185.250549 -974.690369
v -109.294418 200.008163 -949.649048
v -110.304855 210.845978 -921.154724
v -106.881256 218.458374 -890.387817
v -96.9115143 223.256958 -858.735474
v -105.947891 151.569199 -982.42749
v -113.984573 172.216705 -961.017761
v -119.700638 188.537949 -937.151672
v -123.102493 200.623108 -910.49353
v -123.35791 208.956161 -882.080444
v -118.885315 214.304367 -853.568054
v -108.142273 217.1427 -826.518066
v -105.383133 128.625885 -977.632629
v -96.8146362 101.253395 -984.704956
v -112.473083 127.554131 -950.191345
v -84.5766144 73.0601578 -992.03302
v -102.334244 98.592926 -956.987854
v -117.592621 123.948616 -921.102783
v -69.3541107 44.4760895 -997.678589
v -89.0316925 69.7249069 -962.799744
v -106.228104 93.9985733 -927.046143
v -121.662033 117.680229 -890.297607
v -52.1446075 15.8218765 -999.463684
v -73.4611969 40.8211174 -965.888611
v -92.4443359 64.6875458 -930.566711
v -109.579712 87.3402634 -894.507935
v -124.933212 108.699295 -857.766113
v -33.9715729 -12.5005341 -994.740295
v -56.6403961 11.5739803 -963.934021
v -77.2202606 35.0161095 -929.744202
v -95.9858246 57.2895508 -894.301758
v -113.025101 78.0524445 -858.57135
v -127.882126 97.4026871 -823.119141
v -15.0152435 -40.0128403 -981.118713
v -39.0976715 -18.5621719 -953.730225
v -61.3321381 3.53146362 -921.616089
v -81.8204956 25.3885727 -887.109009
v -100.305573 46.3665009 -852.296448
v -116.542511 66.143074 -818.53833
v -129.69902 84.7073288 -786.96344
v 12.3578644 -68.9734039 -966.905762
v 45.7975006 -90.1752472 -957.858643
v 10.8767548 -78.2421951 -926.786377
v 81.9568634 -102.812851 -946.892578
v 46.8173676 -98.9088593 -916.277893
v 8.99378967 -86.5427322 -884.975952
v 119.574036 -107.293655 -936.383118
v 84.9956207 -110.122482 -905.221741
v 47.692276 -105.622757 -874.924744
v 9.01133728 -91.9294357 -843.546509
v 157.286072 -104.090897 -928.618286
v 124.287415 -113.165482 -895.929138
v 88.0589142 -114.81691 -865.24115
v 50.4304352 -108.171005 -835.203491
v 12.7458649 -91.9931641 -804.995972
v 194.051514 -93.7221146 -924.832336
v 163.778259 -108.491592 -890.076355
v 129.317627 -115.781754 -857.820557
v 92.8892975 -114.403305 -827.49823
v 56.2476044 -104.043198 -798.826294
v 20.6729584 -84.8811493 -771.687988
v 229.470337 -76.8358536 -925.954224
v 203.233826 -95.4403687 -889.57428
v 171.728638 -107.816422 -855.00293
v 136.888916 -111.384781 -823.022949
v 100.930557 -105.348068 -793.993774
v 65.6107635 -90.8417435 -768.203918
v 32.1437836 -69.8904343 -745.579834
v 265.38916 -49.4907837 -943.120789
v 290.996765 -18.7660904 -968.978088
v 276.285217 -44.0096664 -925.309631
v 306.131958 11.901722 -991.202759
v 300.93396 -12.0341034 -952.720032
v 281.804077 -36.7023926 -908.906738
v 310.342957 41.4192848 -1007.59119
v 313.504944 18.423481 -973.692566
v 303.572327 -4.59392548 -936.159668
v 281.493896 -25.7179184 -893.669678
v 304.321289 68.8389893 -1016.62366
v 314.490479 47.0845375 -986.795227
v 312.162292 25.4534779 -954.364258
v 298.923462 5.60547638 -918.736267
v 275.072632 -10.14925 -878.737488
v 289.185608 93.6450119 -1017.72168
v 304.697327 73.8930359 -991.469055
v 308.869751 53.8348045 -963.024048
v 302.53833 35.2324295 -932.51239
v 287.053101 19.9602776 -899.338989
v 262.747864 10.0320511 -862.871216
v 266.340698 115.850281 -1010.85895
v 285.027039 98.9700623 -987.273438
v 294.318848 81.2873917 -961.670715
v 293.866943 64.2750626 -934.867859
v 284.791687 49.7374649 -906.735352
v 268.347046 39.4894142 -876.72699
v 245.380798 34.1664429 -844.994934
v 232.490173 138.759308 -1004.75397
v 195.75946 158.264069 -1003.62286
v 222.393005 145.314651 -974.700684
v 158.927795 175.051529 -1001.6778
v 184.634766 165.830368 -972.763977
v 210.620056 152.164368 -942.400085
v 123.351685 188.832275 -1000.67987
v 147.411621 183.46434 -971.419861
v 172.705811 173.233444 -941.242859
v 197.754272 160.215698 -909.453369
v 89.3630219 199.080383 -1000.50305
v 111.790283 197.952423 -971.643005
v 135.383179 191.296265 -941.452637
v 160.032349 181.300827 -909.917236
v 182.953125 170.072983 -877.367249
v 56.3081207 205.192917 -999.019958
v 76.9824371 208.226944 -971.250244
v 99.0981903 206.133209 -942.064087
v 122.337769 199.703522 -911.227783
v 145.165833 191.166443 -878.968262
v 164.078735 182.197006 -847.276917
v 23.1813812 208.296341 -995.1698
v 40.759079 214.453308 -968.25531
v 60.9229584 216.68515 -939.992004
v 83.0068207 214.969894 -910.676636
v 105.449341 210.02626 -880.082397
v 125.283691 203.180817 -848.948547
v 139.950378 195.337997 -820.359009
v 3.52311707 216.510483 -968.39502
v -15.2207184 223.254547 -940.919189
v 21.5450287 222.205032 -938.546814
v -33.2472382 227.730896 -912.752991
v 3.2587738 227.880127 -909.179382
v 42.3256683 224.193878 -908.670227
v -51.2019196 229.829086 -883.618469
v -14.8993683 231.337067 -879.493713
v 24.4968109 229.494064 -877.977783
v 64.9992218 222.936752 -878.215698
v -68.5182648 228.751007 -853.475586
v -33.4679413 231.933395 -849.14624
v 5.89949036 232.158859 -846.759583
v 46.804306 228.239197 -845.920959
v 86.8867645 218.824341 -846.379089
v -83.9416656 223.275345 -821.364136
v -51.9702606 227.953857 -817.521423
v -14.0720978 230.331177 -814.445618
v 26.6214447 229.192963 -812.532593
v 66.8811188 223.137039 -812.132202
v 104.711182 211.591339 -814.218689
v -116.57373 152.946503 -950.914978
v -123.763428 150.972626 -918.819641
v -124.44136 172.177567 -924.623718
v -129.171005 145.529144 -886.578491
v -131.447891 168.234161 -888.878235
v -129.826904 186.471588 -897.314148
v -133.325378 136.562927 -853.672485
v -136.694168 160.291351 -853.676758
v -136.414719 180.149994 -858.764587
v -132.678406 196.305603 -868.608276
v -136.555649 124.457123 -818.752625
v -140.609558 148.545807 -817.808044
v -140.821411 169.745987 -820.638672
v -137.989929 187.786179 -827.944031
v -131.448257 202.663284 -839.320129
v -138.572906 109.972084 -780.897278
v -143.238083 133.616043 -778.549683
v -143.716583 155.458878 -780.262268
v -140.455978 175.129959 -786.248535
v -133.988785 192.199448 -796.694519
v -123.647888 206.284302 -810.663574
v -17.6824799 -49.7861252 -940.090271
v -22.068924 -59.1585236 -896.307007
v -43.8908539 -28.7611427 -908.918396
v -25.2083893 -66.8899841 -852.360352
v -49.3849945 -38.0110016 -863.044556
v -67.1687469 -7.05972672 -874.749146
v -24.5818329 -70.5875092 -810.129517
v -52.2686005 -44.485611 -818.154541
v -72.5949554 -15.4698677 -828.005615
v -87.8382263 15.0565796 -839.47113
v -18.455246 -67.6890717 -772.014465
v -50.0312958 -45.471611 -775.950745
v -74.3791962 -19.4809151 -782.810974
v -92.5912018 8.62100601 -792.296448
v -106.134109 37.4237442 -804.328735
v -6.43760681 -56.0879288 -740.239136
v -40.7612152 -38.0036316 -738.787292
v -69.6615143 -15.9871941 -740.866516
v -92.5421906 8.6843071 -746.67627
v -109.594299 34.4397583 -756.581604
v -121.638947 60.0173302 -770.318237
v 242.128479 -73.1926422 -901.740295
v 249.703369 -66.6332474 -881.398499
v 212.976562 -90.5029907 -862.645874
v 252.505249 -55.1759186 -864.627319
v 218.098877 -79.6802979 -841.584839
v 179.442383 -98.9109955 -826.991028
v 250.184814 -37.7098923 -850.454041
v 218.823975 -61.7650528 -825.193115
v 182.664001 -81.8258438 -806.010498
v 143.054443 -96.8030853 -794.948853
v 242.131531 -14.0121994 -837.211121
v 214.41748 -36.2286987 -811.758911
v 181.119568 -56.0343552 -789.927917
v 144.031494 -72.3854294 -774.207947
v 105.088379 -84.1990433 -766.349915
v 227.863342 15.3460388 -822.647583
v 203.592163 -3.19367599 -798.699158
v 173.380737 -21.1822739 -776.125366
v 138.908203 -37.7215424 -757.581299
v 102.527039 -51.8276291 -745.241577
v 66.4230804 -62.9516525 -740.993164
v 256.818481 122.869644 -980.143738
v 244.288818 129.609695 -946.85083
v 271.621033 106.714035 -954.247192
v 229.960327 137.702103 -912.540588
v 255.235474 115.059166 -919.787598
v 276.428406 91.0991211 -928.31189
v 213.838928 148.232391 -878.191467
v 237.285156 125.848602 -884.732239
v 256.220703 102.399841 -893.746338
v 272.263489 77.3124924 -902.156494
v 193.478455 161.998169 -844.790955
v 216.012207 140.446777 -849.421753
v 233.543091 117.441772 -857.985596
v 247.950928 93.0276489 -867.351257
v 259.957092 67.1599731 -874.424011
v 166.081848 178.165802 -813.452637
v 187.539856 158.891327 -814.195557
v 204.533264 137.246948 -820.602295
v 218.354675 113.496117 -829.704407
v 230.10199 88.1482849 -838.289856
v 239.575073 61.5870094 -843.790405
v -15.3427887 133.088715 -665.194824
v 6.20854187 153.712067 -681.506775
v -39.0438995 149.352753 -668.611084
v 29.7686615 171.341431 -700.780457
v -16.5857391 171.318665 -688.644897
v -59.3415375 164.230164 -681.058044
v 55.202774 184.774551 -721.088928
v 8.27812195 188.968979 -710.83728
v -35.1313934 185.97757 -704.714111
v -75.5297699 178.115448 -701.572083
v 81.4219513 193.426682 -742.116577
v 34.9641266 201.765717 -733.50885
v -8.81309509 202.709579 -729.569885
v -49.9582977 198.521988 -727.688293
v -87.5270538 191.01059 -728.194946
v 106.164856 197.443985 -764.940735
v 61.8868866 209.579605 -756.912292
v 18.5380402 214.46904 -754.580017
v -23.1860504 213.788422 -754.50946
v -62.2048187 209.34436 -755.486084
v -96.4106598 202.349121 -758.707275
v 126.542114 197.588974 -790.710449
v 86.258316 212.641006 -782.917358
v 44.9187775 221.313187 -780.867249
v 3.14176941 224.10817 -781.836426
v -37.2488251 222.434341 -783.859253
v -73.6510162 217.833694 -786.676636
v -103.463913 211.297226 -791.61908
v 23.6177826 128.184814 -678.715698
v 64.1119232 120.19249 -698.730225
v 49.4017181 148.173691 -697.885132
v 104.925659 108.106476 -723.36853
v 91.9488678 138.400131 -720.076843
v 75.3795013 163.282455 -718.023132
v 144.153625 91.1494827 -751.544617
v 132.962219 123.62719 -746.534424
v 118.751892 150.60228 -741.007263
v 101.590515 173.283234 -738.324463
v 181.194885 71.1569672 -781.881165
v 171.317261 104.128845 -776.707886
v 158.751526 132.637054 -769.331116
v 144.238037 157.275024 -762.580261
v 127.002075 178.486755 -759.943787
v 215.167725 51.0046921 -813.252808
v 206.905823 82.2799683 -809.420288
v 195.785339 110.765984 -802.032898
v 182.967896 136.488068 -793.229248
v 168.032654 159.409927 -786.210999
v 149.630554 179.562958 -784.371887
v -11.9273224 108.411278 -660.968872
v -7.53276062 82.293869 -664.02655
v 30.5165863 100.383842 -678.157532
v -2.31568909 54.3014488 -673.092041
v 37.1856842 71.4123154 -683.421936
v 72.7761078 89.3277206 -701.154358
v 4.09144592 23.6209145 -685.941956
v 43.4379425 40.53722 -692.931763
v 80.3166962 57.2718544 -707.708801
v 113.986206 74.0591507 -727.828796
v 11.8342133 -8.97270203 -701.94873
v 49.9998016 6.82116127 -705.116089
v 87.1118317 23.1159916 -717.144409
v 122.089478 39.0059853 -735.151245
v 153.744568 54.9347916 -757.174622
v 21.1275787 -41.151001 -721.477173
v 57.467392 -28.6511116 -720.486328
v 94.2502899 -13.8348007 -728.932129
v 130.066345 1.75386238 -744.646484
v 163.142761 17.8833771 -765.199768
v 191.925476 34.2436485 -788.666626
v -50.0959015 121.774841 -654.672119
v -81.0879974 111.463219 -653.671326
v -48.3148041 95.1188278 -653.097473
v -106.462143 103.434441 -663.309692
v -78.8591766 83.8174591 -656.749329
v -44.5972748 67.9489059 -660.641174
v -124.133621 96.9736328 -682.999146
v -102.219406 74.7154312 -670.696533
v -73.6394501 55.5059052 -668.619995
v -38.5977325 38.8163986 -673.87085
v -133.31105 91.8263474 -711.621826
v -117.263992 67.7516785 -694.702087
v -94.5825806 45.6830063 -686.891479
v -65.588028 25.5853233 -686.312988
v -30.3840179 7.48637199 -691.349365
v -134.619827 87.8957672 -747.15448
v -123.577164 62.9316521 -728.296936
v -106.778305 38.6422119 -715.987427
v -83.8792725 15.4421692 -709.958496
v -54.8393097 -6.00357819 -709.344421
v -19.8356171 -24.9593582 -713.050903
v -75.0905609 138.595551 -662.280151
v -94.2260284 154.422455 -679.982605
v -104.168396 130.136108 -666.802124
v -107.536652 169.516678 -705.679993
v -119.602921 147.4487 -690.205322
v -125.286179 124.029724 -682.406006
v -115.812485 183.760971 -736.949463
v -128.549133 163.773849 -720.873901
v -135.843521 142.484161 -710.96051
v -137.70697 118.899605 -707.577942
v -120.863998 196.466537 -772.081055
v -132.659592 179.069733 -756.527161
v -140.243881 159.544083 -745.949768
v -143.438843 138.078537 -740.653625
v -141.761826 114.358719 -740.947327
g 
f 3 1 2
f 5 2 4
f 6 3 5
f 8 4 7
f 9 5 8
f 10 6 9
f 12 7 11
f 13 8 12
f 14 9 13
f 15 10 14
f 17 11 16
f 18 12 17
f 19 13 18
f 20 14 19
f 21 15 20
f 23 16 22
f 24 17 23
f 25 18 24
f 26 19 25
f 27 20 26
f 28 21 27
f 30 22 29
f 31 23 30
f 32 24 31
f 33 25 32
f 34 26 33
f 35 27 34
f 36 28 35
f 3 2 5
f 5 4 8
f 6 5 9
f 8 7 12
f 9 8 13
f 10 9 14
f 12 11 17
f 13 12 18
f 14 13 19
f 15 14 20
f 17 16 23
f 18 17 24
f 19 18 25
f 20 19 26
f 21 20 27
f 23 22 30
f 24 23 31
f 25 24 32
f 26 25 33
f 27 26 34
f 28 27 35
f 37 1 3
f 38 3 6
f 39 37 38
f 40 6 10
f 41 38 40
f 42 39 41
f 43 10 15
f 44 40 43
f 45 41 44
f 46 42 45
f 47 15 21
f 48 43 47
f 49 44 48
f 50 45 49
f 51 46 50
f 52 21 28
f 53 47 52
f 54 48 53
f 55 49 54
f 56 50 55
f 57 51 56
f 58 28 36
f 59 52 58
f 60 53 59
f 61 54 60
f 62 55 61
f 63 56 62
f 64 57 63
f 37 3 38
f 38 6 40
f 39 38 41
f 40 10 43
f 41 40 44
f 42 41 45
f 43 15 47
f 44 43 48
f 45 44 49
f 46 45 50
f 47 21 52
f 48 47 53
f 49 48 54
f 50 49 55
f 51 50 56
f 52 28 58
f 53 52 59
f 54 53 60
f 55 54 61
f 56 55 62
f 57 56 63
f 65 1 37
f 66 37 39
f 67 65 66
f 68 39 42
f 69 66 68
f 70 67 69
f 71 42 46
f 72 68 71
f 73 69 72
f 74 70 73
f 75 46 51
f 76 71 75
f 77 72 76
f 78 73 77
f 79 74 78
f 80 51 57
f 81 75 80
f 82 76 81
f 83 77 82
f 84 78 83
f 85 79 84
f 86 57 64
f 87 80 86
f 88 81 87
f 89 82 88
f 90 83 89
f 91 84 90
f 92 85 91
f 65 37 66
f 66 39 68
f 67 66 69
f 68 42 71
f 69 68 72
f 70 69 73
f 71 46 75
f 72 71 76
f 73 72 77
f 74 73 78
f 75 51 80
f 76 75 81
f 77 76 82
f 78 77 83
f 79 78 84
f 80 57 86
f 81 80 87
f 82 81 88
f 83 82 89
f 84 83 90
f 85 84 91
f 93 1 65
f 94 65 67
f 95 93 94
f 96 67 70
f 97 94 96
f 98 95 97
f 99 70 74
f 100 96 99
f 101 97 100
f 102 98 101
f 103 74 79
f 104 99 103
f 105 100 104
f 106 101 105
f 107 102 106
f 108 79 85
f 109 103 108
f 110 104 109
f 111 105 110
f 112 106 111
f 113 107 112
f 114 85 92
f 115 108 114
f 116 109 115
f 117 110 116
f 118 111 117
f 119 112 118
f 120 113 119
f 93 65 94
f 94 67 96
f 95 94 97
f 96 70 99
f 97 96 100
f 98 97 101
f 99 74 103
f 100 99 104
f 101 100 105
f 102 101 106
f 103 79 108
f 104 103 109
f 105 104 110
f 106 105 111
f 107 106 112
f 108 85 114
f 109 108 115
f 110 109 116
f 111 110 117
f 112 111 118
f 113 112 119
f 2 1 93
f 121 93 95
f 4 2 121
f 122 95 98
f 123 121 122
f 7 4 123
f 124 98 102
f 125 122 124
f 126 123 125
f 11 7 126
f 127 102 107
f 128 124 127
f 129 125 128
f 130 126 129
f 16 11 130
f 131 107 113
f 132 127 131
f 133 128 132
f 134 129 133
f 135 130 134
f 22 16 135
f 136 113 120
f 137 131 136
f 138 132 137
f 139 133 138
f 140 134 139
f 141 135 140
f 29 22 141
f 2 93 121
f 121 95 122
f 4 121 123
f 122 98 124
f 123 122 125
f 7 123 126
f 124 102 127
f 125 124 128
f 126 125 129
f 11 126 130
f 127 107 131
f 128 127 132
f 129 128 133
f 130 129 134
f 16 130 135
f 131 113 136
f 132 131 137
f 133 132 138
f 134 133 139
f 135 134 140
f 22 135 141
f 142 29 141
f 143 141 140
f 144 142 143
f 145 140 139
f 146 143 145
f 147 144 146
f 148 139 138
f 149 145 148
f 150 146 149
f 151 147 150
f 152 138 137
f 153 148 152
f 154 149 153
f 155 150 154
f 156 151 155
f 157 137 136
f 158 152 157
f 159 153 158
f 160 154 159
f 161 155 160
f 162 156 161
f 163 136 120
f 164 157 163
f 165 158 164
f 166 159 165
f 167 160 166
f 168 161 167
f 169 162 168
f 142 141 143
f 143 140 145
f 144 143 146
f 145 139 148
f 146 145 149
f 147 146 150
f 148 138 152
f 149 148 153
f 150 149 154
f 151 150 155
f 152 137 157
f 153 152 158
f 154 153 159
f 155 154 160
f 156 155 161
f 157 136 163
f 158 157 164
f 159 158 165
f 160 159 166
f 161 160 167
f 162 161 168
f 170 120 119
f 171 119 118
f 172 170 171
f 173 118 117
f 174 171 173
f 175 172 174
f 176 117 116
f 177 173 176
f 178 174 177
f 179 175 178
f 180 116 115
f 181 176 180
f 182 177 181
f 183 178 182
f 184 179 183
f 185 115 114
f 186 180 185
f 187 181 186
f 188 182 187
f 189 183 188
f 190 184 189
f 191 114 92
f 192 185 191
f 193 186 192
f 194 187 193
f 195 188 194
f 196 189 195
f 197 190 196
f 170 119 171
f 171 118 173
f 172 171 174
f 173 117 176
f 174 173 177
f 175 174 178
f 176 116 180
f 177 176 181
f 178 177 182
f 179 178 183
f 180 115 185
f 181 180 186
f 182 181 187
f 183 182 188
f 184 183 189
f 185 114 191
f 186 185 192
f 187 186 193
f 188 187 194
f 189 188 195
f 190 189 196
f 198 92 91
f 199 91 90
f 200 198 199
f 201 90 89
f 202 199 201
f 203 200 202
f 204 89 88
f 205 201 204
f 206 202 205
f 207 203 206
f 208 88 87
f 209 204 208
f 210 205 209
f 211 206 210
f 212 207 211
f 213 87 86
f 214 208 213
f 215 209 214
f 216 210 215
f 217 211 216
f 218 212 217
f 219 86 64
f 220 213 219
f 221 214 220
f 222 215 221
f 223 216 222
f 224 217 223
f 225 218 224
f 198 91 199
f 199 90 201
f 200 199 202
f 201 89 204
f 202 201 205
f 203 202 206
f 204 88 208
f 205 204 209
f 206 205 210
f 207 206 211
f 208 87 213
f 209 208 214
f 210 209 215
f 211 210 216
f 212 211 217
f 213 86 219
f 214 213 220
f 215 214 221
f 216 215 222
f 217 216 223
f 218 217 224
f 226 64 63
f 227 63 62
f 228 226 227
f 229 62 61
f 230 227 229
f 231 228 230
f 232 61 60
f 233 229 232
f 234 230 233
f 235 231 234
f 236 60 59
f 237 232 236
f 238 233 237
f 239 234 238
f 240 235 239
f 241 59 58
f 242 236 241
f 243 237 242
f 244 238 243
f 245 239 244
f 246 240 245
f 247 58 36
f 248 241 247
f 249 242 248
f 250 243 249
f 251 244 250
f 252 245 251
f 253 246 252
f 226 63 227
f 227 62 229
f 228 227 230
f 229 61 232
f 230 229 233
f 231 230 234
f 232 60 236
f 233 232 237
f 234 233 238
f 235 234 239
f 236 59 241
f 237 236 242
f 238 237 243
f 239 238 244
f 240 239 245
f 241 58 247
f 242 241 248
f 243 242 249
f 244 243 250
f 245 244 251
f 246 245 252
f 254 36 35
f 255 35 34
f 256 254 255
f 257 34 33
f 258 255 257
f 259 256 258
f 260 33 32
f 261 257 260
f 262 258 261
f 263 259 262
f 264 32 31
f 265 260 264
f 266 261 265
f 267 262 266
f 268 263 267
f 269 31 30
f 270 264 269
f 271 265 270
f 272 266 271
f 273 267 272
f 274 268 273
f 275 30 29
f 276 269 275
f 277 270 276
f 278 271 277
f 279 272 278
f 280 273 279
f 281 274 280
f 254 35 255
f 255 34 257
f 256 255 258
f 257 33 260
f 258 257 261
f 259 258 262
f 260 32 264
f 261 260 265
f 262 261 266
f 263 262 267
f 264 31 269
f 265 264 270
f 266 265 271
f 267 266 272
f 268 267 273
f 269 30 275
f 270 269 276
f 271 270 277
f 272 271 278
f 273 272 279
f 274 273 280
f 275 29 142
f 282 142 144
f 276 275 282
f 283 144 147
f 284 282 283
f 277 276 284
f 285 147 151
f 286 283 285
f 287 284 286
f 278 277 287
f 288 151 156
f 289 285 288
f 290 286 289
f 291 287 290
f 279 278 291
f 292 156 162
f 293 288 292
f 294 289 293
f 295 290 294
f 296 291 295
f 280 279 296
f 297 162 169
f 298 292 297
f 299 293 298
f 300 294 299
f 301 295 300
f 302 296 301
f 281 280 302
f 275 142 282
f 282 144 283
f 276 282 284
f 283 147 285
f 284 283 286
f 277 284 287
f 285 151 288
f 286 285 289
f 287 286 290
f 278 287 291
f 288 156 292
f 289 288 293
f 290 289 294
f 291 290 295
f 279 291 296
f 292 162 297
f 293 292 298
f 294 293 299
f 295 294 300
f 296 295 301
f 280 296 302
f 163 120 170
f 303 170 172
f 164 163 303
f 304 172 175
f 305 303 304
f 165 164 305
f 306 175 179
f 307 304 306
f 308 305 307
f 166 165 308
f 309 179 184
f 310 306 309
f 311 307 310
f 312 308 311
f 167 166 312
f 313 184 190
f 314 309 313
f 315 310 314
f 316 311 315
f 317 312 316
f 168 167 317
f 318 190 197
f 319 313 318
f 320 314 319
f 321 315 320
f 322 316 321
f 323 317 322
f 169 168 323
f 163 170 303
f 303 172 304
f 164 303 305
f 304 175 306
f 305 304 307
f 165 305 308
f 306 179 309
f 307 306 310
f 308 307 311
f 166 308 312
f 309 184 313
f 310 309 314
f 311 310 315
f 312 311 316
f 167 312 317
f 313 190 318
f 314 313 319
f 315 314 320
f 316 315 321
f 317 316 322
f 168 317 323
f 191 92 198
f 324 198 200
f 192 191 324
f 325 200 203
f 326 324 325
f 193 192 326
f 327 203 207
f 328 325 327
f 329 326 328
f 194 193 329
f 330 207 212
f 331 327 330
f 332 328 331
f 333 329 332
f 195 194 333
f 334 212 218
f 335 330 334
f 336 331 335
f 337 332 336
f 338 333 337
f 196 195 338
f 339 218 225
f 340 334 339
f 341 335 340
f 342 336 341
f 343 337 342
f 344 338 343
f 197 196 344
f 191 198 324
f 324 200 325
f 192 324 326
f 325 203 327
f 326 325 328
f 193 326 329
f 327 207 330
f 328 327 331
f 329 328 332
f 194 329 333
f 330 212 334
f 331 330 335
f 332 331 336
f 333 332 337
f 195 333 338
f 334 218 339
f 335 334 340
f 336 335 341
f 337 336 342
f 338 337 343
f 196 338 344
f 219 64 226
f 345 226 228
f 220 219 345
f 346 228 231
f 347 345 346
f 221 220 347
f 348 231 235
f 349 346 348
f 350 347 349
f 222 221 350
f 351 235 240
f 352 348 351
f 353 349 352
f 354 350 353
f 223 222 354
f 355 240 246
f 356 351 355
f 357 352 356
f 358 353 357
f 359 354 358
f 224 223 359
f 360 246 253
f 361 355 360
f 362 356 361
f 363 357 362
f 364 358 363
f 365 359 364
f 225 224 365
f 219 226 345
f 345 228 346
f 220 345 347
f 346 231 348
f 347 346 349
f 221 347 350
f 348 235 351
f 349 348 352
f 350 349 353
f 222 350 354
f 351 240 355
f 352 351 356
f 353 352 357
f 354 353 358
f 223 354 359
f 355 246 360
f 356 355 361
f 357 356 362
f 358 357 363
f 359 358 364
f 224 359 365
f 247 36 254
f 366 254 256
f 248 247 366
f 367 256 259
f 368 366 367
f 249 248 368
f 369 259 263
f 370 367 369
f 371 368 370
f 250 249 371
f 372 263 268
f 373 369 372
f 374 370 373
f 375 371 374
f 251 250 375
f 376 268 274
f 377 372 376
f 378 373 377
f 379 374 378
f 380 375 379
f 252 251 380
f 381 274 281
f 382 376 381
f 383 377 382
f 384 378 383
f 385 379 384
f 386 380 385
f 253 252 386
f 247 254 366
f 366 256 367
f 248 366 368
f 367 259 369
f 368 367 370
f 249 368 371
f 369 263 372
f 370 369 373
f 371 370 374
f 250 371 375
f 372 268 376
f 373 372 377
f 374 373 378
f 375 374 379
f 251 375 380
f 376 274 381
f 377 376 382
f 378 377 383
f 379 378 384
f 380 379 385
f 252 380 386
f 389 387 388
f 391 388 390
f 392 389 391
f 394 390 393
f 395 391 394
f 396 392 395
f 398 393 397
f 399 394 398
f 400 395 399
f 401 396 400
f 403 397 402
f 404 398 403
f 405 399 404
f 406 400 405
f 407 401 406
f 409 402 408
f 410 403 409
f 411 404 410
f 412 405 411
f 413 406 412
f 414 407 413
f 302 408 281
f 301 409 302
f 300 410 301
f 299 411 300
f 298 412 299
f 297 413 298
f 169 414 297
f 389 388 391
f 391 390 394
f 392 391 395
f 394 393 398
f 395 394 399
f 396 395 400
f 398 397 403
f 399 398 404
f 400 399 405
f 401 400 406
f 403 402 409
f 404 403 410
f 405 404 411
f 406 405 412
f 407 406 413
f 409 408 302
f 410 409 301
f 411 410 300
f 412 411 299
f 413 412 298
f 414 413 297
f 388 387 415
f 417 415 416
f 390 388 417
f 419 416 418
f 420 417 419
f 393 390 420
f 422 418 421
f 423 419 422
f 424 420 423
f 397 393 424
f 426 421 425
f 427 422 426
f 428 423 427
f 429 424 428
f 402 397 429
f 431 425 430
f 432 426 431
f 433 427 432
f 434 428 433
f 435 429 434
f 408 402 435
f 386 430 253
f 385 431 386
f 384 432 385
f 383 433 384
f 382 434 383
f 381 435 382
f 281 408 381
f 388 415 417
f 417 416 419
f 390 417 420
f 419 418 422
f 420 419 423
f 393 420 424
f 422 421 426
f 423 422 427
f 424 423 428
f 397 424 429
f 426 425 431
f 427 426 432
f 428 427 433
f 429 428 434
f 402 429 435
f 431 430 386
f 432 431 385
f 433 432 384
f 434 433 383
f 435 434 382
f 408 435 381
f 415 387 436
f 438 436 437
f 416 415 438
f 440 437 439
f 441 438 440
f 418 416 441
f 443 439 442
f 444 440 443
f 445 441 444
f 421 418 445
f 447 442 446
f 448 443 447
f 449 444 448
f 450 445 449
f 425 421 450
f 452 446 451
f 453 447 452
f 454 448 453
f 455 449 454
f 456 450 455
f 430 425 456
f 365 451 225
f 364 452 365
f 363 453 364
f 362 454 363
f 361 455 362
f 360 456 361
f 253 430 360
f 415 436 438
f 438 437 440
f 416 438 441
f 440 439 443
f 441 440 444
f 418 441 445
f 443 442 447
f 444 443 448
f 445 444 449
f 421 445 450
f 447 446 452
f 448 447 453
f 449 448 454
f 450 449 455
f 425 450 456
f 452 451 365
f 453 452 364
f 454 453 363
f 455 454 362
f 456 455 361
f 430 456 360
f 436 387 457
f 459 457 458
f 437 436 459
f 461 458 460
f 462 459 461
f 439 437 462
f 464 460 463
f 465 461 464
f 466 462 465
f 442 439 466
f 468 463 467
f 469 464 468
f 470 465 469
f 471 466 470
f 446 442 471
f 473 467 472
f 474 468 473
f 475 469 474
f 476 470 475
f 477 471 476
f 451 446 477
f 344 472 197
f 343 473 344
f 342 474 343
f 341 475 342
f 340 476 341
f 339 477 340
f 225 451 339
f 436 457 459
f 459 458 461
f 437 459 462
f 461 460 464
f 462 461 465
f 439 462 466
f 464 463 468
f 465 464 469
f 466 465 470
f 442 466 471
f 468 467 473
f 469 468 474
f 470 469 475
f 471 470 476
f 446 471 477
f 473 472 344
f 474 473 343
f 475 474 342
f 476 475 341
f 477 476 340
f 451 477 339
f 457 387 389
f 478 389 392
f 458 457 478
f 479 392 396
f 480 478 479
f 460 458 480
f 481 396 401
f 482 479 481
f 483 480 482
f 463 460 483
f 484 401 407
f 485 481 484
f 486 482 485
f 487 483 486
f 467 463 487
f 488 407 414
f 489 484 488
f 490 485 489
f 491 486 490
f 492 487 491
f 472 467 492
f 323 414 169
f 322 488 323
f 321 489 322
f 320 490 321
f 319 491 320
f 318 492 319
f 197 472 318
f 457 389 478
f 478 392 479
f 458 478 480
f 479 396 481
f 480 479 482
f 460 480 483
f 481 401 484
f 482 481 485
f 483 482 486
f 463 483 487
f 484 407 488
f 485 484 489
f 486 485 490
f 487 486 491
f 467 487 492
f 488 414 323
f 489 488 322
f 490 489 321
f 491 490 320
f 492 491 319
f 472 492 318
