# File exported by Houdini 20.5.445 (www.sidefx.com)
# 492 points
# 2940 vertices
# 980 primitives
# Bounds: [-149.28064, -127.520752, -1113.22827] to [320.054565, 243.897858, -641.572754]
g 
v 104.777374 52.4151649 -1084.57568
v 100.828003 82.8923874 -1100.8501
v 125.98111 63.7331734 -1083.27222
v 96.4977417 112.182442 -1106.18384
v 121.567627 95.2595062 -1094.46606
v 146.153473 76.7307739 -1076.41577
v 91.9404297 138.965988 -1100.69336
v 117.778229 123.927643 -1093.9209
v 141.813965 108.359947 -1082.95239
v 166.627258 89.1336212 -1064.75098
v 87.6801147 162.062698 -1086.34058
v 115.092682 148.970871 -1083.46875
v 139.602295 135.751434 -1077.89087
v 163.58844 120.260269 -1067.72852
v 188.450867 99.3475037 -1049.17041
v 83.7956543 181.100174 -1065.80396
v 113.104523 169.818634 -1065.06885
v 139.05249 158.720016 -1063.11206
v 163.479065 145.807678 -1058.58789
v 187.566772 129.255646 -1048.78101
v 211.486755 106.184746 -1030.271
v 80.1669006 196.448425 -1041.38281
v 110.98233 186.638092 -1040.57031
v 138.899048 177.351929 -1039.97363
v 164.815979 166.64505 -1038.79126
v 189.407288 152.883362 -1034.948
v 212.579163 134.273529 -1025.50708
v 234.023682 109.305641 -1007.41754
v 76.2948914 208.951599 -1014.88556
v 107.760406 200.385178 -1011.7735
v 137.69223 192.350433 -1009.69257
v 165.871399 183.357391 -1009.00128
v 192.0672 171.629715 -1008.30658
v 215.849182 155.801544 -1004.97479
v 236.304932 134.708084 -996.089661
v 253.434875 108.611809 -979.756897
v 123.380585 29.1591663 -1062.12305
v 147.6073 42.7632751 -1059.91846
v 144.192505 8.46555519 -1036.38623
v 169.854553 56.1404076 -1051.92676
v 170.098511 23.8551807 -1033.20288
v 167.111328 -10.4274139 -1009.28094
v 191.368713 67.2555237 -1038.94751
v 193.16217 36.9876442 -1024.03394
v 193.06781 5.99225616 -1004.87042
v 191.013428 -28.0115967 -982.10553
v 213.46582 75.5854416 -1022.10358
v 215.037048 46.7988777 -1009.5744
v 216.053101 18.64217 -994.316345
v 216.098938 -11.2174149 -975.811462
v 214.524597 -44.0882568 -955.153381
v 236.190491 80.5007629 -1001.41876
v 237.374329 53.1318245 -990.660583
v 238.299072 27.0765305 -977.802185
v 238.954285 0.682222366 -963.07782
v 238.801514 -27.6627693 -945.996704
v 236.163452 -57.9615784 -927.508179
v 257.49231 81.781929 -975.270203
v 260.034973 55.5711632 -966.062317
v 261.50824 31.0180779 -954.773987
v 262.274048 7.33848572 -942.694824
v 262.079651 -17.2400589 -929.335938
v 259.790039 -43.2385635 -914.275024
v 253.399414 -69.2825012 -898.057251
v 93.3494263 27.8926678 -1066.78491
v 114.271545 -0.0536708832 -1038.92651
v 82.3909912 4.78391647 -1043.45776
v 137.85318 -23.7794342 -1010.81097
v 107.050232 -26.7381897 -1013.27301
v 73.8160706 -16.2517853 -1017.78009
v 163.377075 -44.431839 -984.214905
v 133.891602 -52.7163849 -985.996765
v 102.295197 -50.2861176 -988.244812
v 68.090332 -34.2610474 -991.750916
v 189.315308 -62.4343643 -958.500061
v 161.709473 -74.4148102 -961.031799
v 131.554871 -77.3163834 -962.847473
v 98.7206726 -68.8996582 -964.065857
v 63.223175 -47.2146988 -965.327576
v 213.746155 -77.2182159 -931.366333
v 188.327209 -91.6409225 -934.784424
v 159.686707 -98.2712708 -937.358032
v 127.964081 -94.8610687 -938.596558
v 93.6413879 -80.0514145 -938.503052
v 57.7549133 -53.8500748 -937.603516
v 234.036377 -87.9833679 -900.417236
v 211.123047 -103.651611 -903.372925
v 184.432922 -113.04599 -906.561157
v 154.043213 -113.438538 -909.126099
v 120.770447 -103.382126 -910.155029
v 86.1810608 -83.3438187 -909.34436
v 51.9569092 -55.5057526 -907.55603
v 80.5452576 64.3521881 -1094.35645
v 65.2907104 42.4299698 -1074.56055
v 56.4035034 81.7254257 -1100.26733
v 51.7454224 23.1396046 -1049.41821
v 38.8435669 63.1329994 -1078.50537
v 31.7499084 103.034561 -1101.32471
v 41.8186035 6.11598969 -1022.03058
v 24.266449 46.9910431 -1051.54443
v 13.3522644 87.0086899 -1077.74805
v 6.33023071 125.059448 -1096.20801
v 35.1037292 -8.10752869 -993.157532
v 13.8995972 32.3875885 -1021.69879
v -1.19952393 72.3062744 -1048.5918
v -11.6402283 109.954559 -1070.71338
v -19.3681335 144.423096 -1084.14136
v 28.987854 -17.5759888 -961.678772
v 5.91485596 20.7562523 -988.254944
v -12.1929626 59.1383171 -1014.76019
v -25.9899902 95.7453613 -1038.3313
v -36.3540955 129.504028 -1056.08887
v -44.2442932 159.931656 -1065.3374
v 23.3491211 -22.7016754 -926.75061
v -1.65975952 12.9753189 -949.474731
v -22.2678223 49.3727379 -974.134827
v -38.584198 84.7079239 -998.205139
v -51.5002441 117.53688 -1018.66107
v -61.1725769 146.769638 -1033.02295
v -67.934082 172.050003 -1039.88208
v 76.232666 98.3130646 -1109.93164
v 51.6923828 117.411949 -1113.22827
v 70.9743042 128.793945 -1112.0647
v 25.8765869 138.095169 -1110.05957
v 45.0889587 147.423462 -1111.30884
v 64.6521606 155.067703 -1102.49219
v -1.46875 157.871399 -1099.80981
v 17.4647522 166.555908 -1103.76929
v 36.809845 172.623459 -1097.80688
v 58.232666 177.21524 -1084.57544
v -29.4360352 174.835831 -1082.27979
v -11.9229431 184.72937 -1088.9668
v 7.19317627 190.775803 -1086.25415
v 28.3543396 194.08522 -1076.28809
v 52.4892883 195.651978 -1061.02393
v -56.9921265 187.512848 -1056.71826
v -42.3282776 199.699783 -1065.52539
v -24.4588318 207.733154 -1066.12793
v -3.49868774 211.62854 -1059.88428
v 20.6594238 212.204971 -1048.6582
v 47.4940796 210.909134 -1033.43262
v 52.2996826 221.003448 -1000.08527
v 19.2918701 224.753754 -1017.3277
v 26.5346069 231.268692 -984.301086
v -9.87405396 226.448975 -1029.31299
v -8.87109375 234.804688 -998.698059
v 1.54101562 238.700806 -966.008728
v -34.838501 224.527512 -1036.67114
v -38.657135 234.683517 -1006.57709
v -34.5686035 240.524277 -976.329407
v -21.6371155 242.647598 -944.246338
v -55.4090271 217.843231 -1039.04712
v -63.1532593 229.939255 -1009.69171
v -64.1958618 237.976898 -979.614319
v -57.2333374 242.990845 -949.726685
v -43.1206055 243.897858 -918.646118
v -72.0028076 206.507294 -1034.2644
v -82.9349365 220.579971 -1007.36969
v -88.5124207 231.12648 -977.915344
v -86.6437073 238.750061 -948.010132
v -77.5102234 242.779495 -918.70105
v -62.618927 241.802124 -889.167236
v -84.7069397 191.32428 -1020.85394
v -98.708374 207.128296 -996.656677
v -108.295258 219.808868 -968.978455
v -111.302948 229.660965 -939.798096
v -106.745544 236.291824 -910.782349
v -95.7604675 238.615082 -883.075928
v -80.0372009 235.826523 -856.73291
v -86.7156982 168.244232 -1006.41681
v -77.702301 140.78894 -994.218201
v -102.602173 163.538879 -967.848328
v -64.9946594 110.099121 -975.686462
v -90.0310364 134.017166 -951.828552
v -114.390686 157.203476 -925.841064
v -48.6741028 76.3627701 -953.071472
v -73.3692627 101.757675 -931.044312
v -97.7695007 125.41256 -907.629761
v -121.676697 148.172302 -882.274658
v -28.1343079 40.2023697 -929.097534
v -52.7139893 66.6316071 -907.932617
v -76.953125 91.217514 -885.928833
v -101.274231 114.086617 -862.923584
v -124.353165 135.888626 -838.932373
v -2.73394775 2.60739517 -906.164673
v -27.4355164 28.783514 -884.741943
v -51.8149719 54.1038857 -862.819702
v -76.4374695 77.744957 -840.682739
v -100.586273 99.7487259 -818.673462
v -122.204956 120.577141 -797.415894
v 27.6582642 -34.8381653 -885.90625
v 3.23699951 -11.1744957 -863.008911
v -21.4456787 13.7568693 -839.789795
v -46.6340637 38.0529022 -816.918091
v -71.7104797 61.0400314 -795.259644
v -95.2242737 82.769165 -775.675537
v -115.064804 103.520538 -759.005737
v 66.6706848 -72.4267502 -877.248047
v 104.550415 -99.7157898 -878.615234
v 79.5237427 -84.8662872 -845.985962
v 140.413696 -117.015289 -877.916992
v 118.349304 -110.228088 -846.201538
v 87.4140015 -92.3932495 -812.553955
v 173.318176 -123.712524 -875.180298
v 153.09021 -124.298767 -844.064453
v 125.149628 -114.82872 -811.738403
v 90.1130676 -94.5466003 -777.548096
v 202.787354 -120.179626 -871.804321
v 184.603577 -127.520752 -840.852783
v 158.6203 -125.080902 -809.482056
v 126.637543 -112.412842 -776.961182
v 90.4772949 -90.4491348 -743.567017
v 228.865295 -107.965851 -869.33728
v 213.644897 -120.587006 -838.281616
v 189.74823 -124.077911 -807.331421
v 159.810791 -117.553024 -775.963623
v 126.570221 -102.211456 -744.338257
v 91.8392029 -79.7442551 -713.468384
v 251.89679 -89.5970383 -868.462646
v 240.559021 -104.9095 -837.845093
v 219.872681 -112.380066 -806.763794
v 192.221252 -110.725891 -775.850464
v 160.94342 -100.637726 -745.414917
v 128.58374 -83.8501663 -716.245483
v 96.6421509 -62.6141434 -689.870361
v 270.858459 -63.6108551 -877.533325
v 279.621155 -37.2509613 -893.133179
v 283.57666 -56.7841797 -855.979248
v 283.048584 -12.5978851 -906.321899
v 294.38446 -30.8376045 -870.335205
v 292.368896 -46.6242218 -833.147217
v 283.356445 10.7272282 -917.60083
v 298.784424 -7.02680206 -881.94873
v 305.593079 -21.6662674 -845.865967
v 299.259521 -31.8602295 -809.259888
v 281.425781 34.4725647 -928.663086
v 298.766602 16.4804878 -892.539917
v 310.857361 1.90563011 -856.572021
v 314.200195 -8.26287842 -820.27063
v 304.228699 -12.6256256 -784.644531
v 277.689819 60.5157623 -939.181885
v 295.049011 41.7397919 -902.825928
v 309.909729 26.2709503 -866.553345
v 318.917236 15.3270512 -829.973145
v 318.557007 9.86725807 -794.061523
v 305.362488 9.99144745 -760.301392
v 271.956909 89.473259 -946.964111
v 288.255676 70.695343 -911.608887
v 303.459351 54.1224327 -875.209961
v 315.172119 41.6322098 -838.397827
v 320.054565 34.5632553 -802.138184
v 315.852478 32.6678162 -768.036865
v 300.49408 35.0860977 -737.71814
v 258.917603 122.825798 -958.490784
v 240.247498 150.264984 -969.897766
v 259.598816 136.028519 -931.744385
v 217.542053 171.000549 -974.092834
v 237.826477 163.627106 -939.49707
v 254.673157 148.841888 -902.322021
v 190.951355 185.682129 -974.738098
v 211.876953 183.109863 -941.49646
v 228.596619 175.3638 -908.082275
v 243.279846 160.869019 -872.990723
v 161.206482 196.39415 -975.580994
v 181.752625 196.792908 -942.478516
v 198.46283 193.434875 -910.141724
v 212.289734 185.319885 -878.409424
v 224.6521 171.468658 -846.237549
v 128.419434 205.082825 -978.863098
v 147.517395 207.238449 -946.005005
v 163.772644 206.435837 -913.747681
v 177.097595 202.069565 -882.414551
v 188.827393 193.126404 -852.572021
v 199.086975 180.339859 -823.387695
v 92.3435059 213.673904 -984.91449
v 108.346619 216.452713 -953.510559
v 123.389832 217.118683 -921.495239
v 136.642548 214.916718 -889.702148
v 148.357056 208.864685 -859.428589
v 158.849243 199.20372 -831.422607
v 168.249756 187.37587 -804.866699
v 66.7478027 224.672653 -967.647156
v 41.3342285 233.343231 -950.60022
v 81.2663574 226.117783 -934.802612
v 17.0150146 238.543915 -931.868896
v 55.3830872 232.417572 -917.042236
v 94.7120056 224.78302 -901.8927
v -6.63336182 240.582428 -909.992432
v 30.1086731 235.048782 -897.785645
v 67.5531006 228.263428 -883.341187
v 106.745636 219.965179 -869.349121
v -29.3549805 239.31691 -883.393066
v 5.14202881 234.34993 -874.494995
v 40.9581299 228.09729 -862.572754
v 78.5412598 220.699539 -849.457397
v 117.978394 211.469879 -838.002686
v -50.6747437 233.730927 -851.286743
v -18.7792053 229.167114 -844.510254
v 15.3056335 223.252686 -835.713867
v 51.5817261 216.58934 -825.285645
v 89.7844238 208.941391 -815.04187
v 129.139038 199.506485 -807.55896
v -106.033783 188.179749 -982.751038
v -122.586151 183.786011 -941.259644
v -120.41362 203.965973 -955.382996
v -133.952072 177.098694 -897.800903
v -136.060013 199.203537 -912.12854
v -128.605774 216.36293 -926.054199
v -139.995956 166.911011 -853.674927
v -145.719589 191.562088 -867.848755
v -141.945969 210.804855 -882.074707
v -128.836685 225.489532 -896.573486
v -140.425446 152.410751 -810.031372
v -149.28064 179.476685 -823.209473
v -148.799026 201.364777 -837.224609
v -139.09465 218.118774 -852.224487
v -120.988998 230.279282 -867.646729
v -134.631363 133.811127 -767.872314
v -146.114502 161.802673 -778.781616
v -148.778748 185.97908 -791.597656
v -142.380356 205.22818 -806.374023
v -127.488388 219.473053 -822.695068
v -105.894043 229.488724 -839.484619
v 39.7473755 -50.5494537 -850.04895
v 48.7909851 -61.050354 -815.089478
v 12.822998 -25.9516182 -823.065063
v 53.2588806 -66.9812241 -779.347534
v 19.1869812 -35.4828568 -785.652954
v -14.0906677 -0.715942383 -797.28125
v 54.7106323 -67.8282928 -743.373657
v 22.1195374 -40.3907547 -748.666016
v -9.46575928 -9.60545349 -758.525024
v -41.0838623 23.9940948 -773.246338
v 56.3450623 -62.4105072 -709.547241
v 23.8109436 -39.7365875 -712.468384
v -7.07754517 -13.0123444 -721.061523
v -37.5866699 16.5317383 -734.104614
v -67.5539246 48.4715042 -751.763184
v 61.5290833 -49.8553314 -681.039551
v 27.9846191 -32.0768776 -679.549805
v -3.99465942 -9.74448395 -685.410156
v -34.7303162 16.0271034 -697.226562
v -64.451355 44.0244637 -713.38269
v -91.9519958 73.4788895 -733.807739
v 264.77478 -82.6084976 -844.240723
v 271.887939 -71.4504623 -820.586182
v 247.7854 -93.4924698 -811.376221
v 276.486877 -54.7187195 -797.234863
v 250.840027 -75.9597702 -787.044434
v 222.892944 -95.0704117 -779.245605
v 280.131653 -32.6994247 -773.704346
v 252.699463 -52.2543182 -763.919312
v 223.561035 -71.0573502 -755.028931
v 192.855896 -87.9482117 -748.138794
v 281.9505 -6.5473938 -749.577515
v 253.485901 -23.5098267 -740.622437
v 222.957764 -41.1634064 -731.946045
v 191.410339 -58.4296875 -723.990479
v 159.675476 -73.5424042 -717.835815
v 279.596863 22.73633 -725.276855
v 251.330261 9.0802269 -716.346313
v 219.916138 -6.39135361 -708.158569
v 187.371948 -22.9917183 -700.406128
v 155.269775 -39.3722382 -693.372559
v 124.683319 -53.3805923 -688.897339
v 276.43811 103.22541 -921.671753
v 275.672302 116.689011 -893.234253
v 291.609253 84.9783325 -883.915649
v 268.554993 130.436035 -864.182861
v 288.468567 99.7925568 -855.025635
v 304.316223 70.3354492 -846.143555
v 253.729492 144.397583 -836.446533
v 277.345886 115.868423 -826.581543
v 296.780273 87.9313278 -816.918213
v 311.671875 61.0618324 -808.393066
v 229.818665 158.047241 -811.556274
v 256.797607 133.169174 -799.912598
v 280.037231 107.480118 -788.478027
v 298.670654 82.1120377 -778.723022
v 311.394043 57.3675232 -771.495361
v 197.353455 170.026886 -789.771851
v 225.424255 150.194794 -775.666626
v 251.542725 128.325714 -761.854492
v 274.207153 105.39183 -749.608154
v 291.462585 82.213623 -740.624878
v 300.631775 58.6821938 -736.564087
v 37.4110107 130.697708 -664.050293
v 61.0585632 143.981583 -671.793213
v 5.91662598 146.719009 -677.900146
v 82.9823608 154.469589 -685.07312
v 29.0735474 159.430283 -690.633301
v -22.4902954 162.361069 -697.449951
v 102.024475 163.110886 -704.43335
v 50.1858826 169.342194 -709.193848
v 1.8079834 174.281769 -715.12085
v -45.7158203 178.401215 -722.37146
v 119.164581 170.632324 -727.911255
v 69.3976135 178.077148 -732.18042
v 23.8723755 183.944778 -737.853271
v -19.6146851 189.653244 -744.157593
v -62.5907593 194.874817 -751.869385
v 135.850281 177.251999 -753.188354
v 88.3493042 186.283279 -757.026123
v 44.7671814 192.98497 -763.223022
v 4.0765686 199.244125 -769.993286
v -34.9304504 205.563202 -776.928101
v -72.9811096 211.082748 -784.867554
v 152.523865 182.860977 -778.884155
v 108.314667 193.68251 -782.11499
v 66.3866577 201.619766 -789.083008
v 27.1461487 208.389038 -797.426758
v -9.73376465 214.888412 -805.464722
v -44.8173218 220.911499 -812.839844
v -78.1667175 225.345184 -820.244019
v 84.3213196 123.300697 -658.376221
v 130.394531 115.156898 -656.579346
v 112.298676 137.129166 -667.119263
v 173.985596 104.864479 -659.782959
v 159.952942 128.906769 -667.923096
v 134.997498 147.235352 -682.496338
v 213.840942 91.3873596 -669.437012
v 203.267822 117.387466 -674.672485
v 181.833496 137.837265 -686.47229
v 153.17981 154.792557 -704.164307
v 248.974182 74.5088806 -686.3302
v 241.795593 101.49617 -688.063232
v 223.781311 124.238747 -697.182251
v 198.646362 143.514389 -711.53894
v 168.837036 160.663559 -730.198486
v 278.644531 54.9906235 -709.216187
v 274.850952 81.1819229 -708.559814
v 260.853516 105.215134 -714.685059
v 239.224915 127.145683 -726.347534
v 212.81781 147.153793 -741.551147
v 183.534058 165.51741 -758.970093
v 42.7617798 109.161766 -654.540405
v 47.8279419 83.5984344 -646.598999
v 90.8579712 99.1131592 -650.635132
v 53.4465027 55.1072235 -641.572754
v 95.537262 71.8003845 -646.088989
v 135.925903 88.5801849 -651.865845
v 60.9898987 25.222641 -642.2323
v 100.350952 42.4721489 -646.524414
v 139.289307 59.870388 -652.71106
v 177.78772 76.2442856 -659.380981
v 70.7750549 -5.00951385 -650.260742
v 106.48291 11.539257 -653.299316
v 142.902557 29.2400379 -659.611694
v 179.731995 46.0030022 -666.49707
v 216.151978 61.1694717 -674.235718
v 82.6576538 -34.6500511 -666.258545
v 114.444458 -20.7243385 -667.214844
v 147.923401 -3.83370209 -672.909424
v 182.457153 13.2461843 -680.070435
v 217.168274 29.0466194 -687.612915
v 250.372803 42.9778671 -696.512573
v -4.46908569 125.644554 -665.564941
v -41.9310303 120.069366 -668.774414
v 0.830444336 99.8396378 -654.575806
v -73.083313 114.672409 -675.1875
v -34.0466919 90.7282257 -657.455444
v 7.38687134 70.9875565 -645.928223
v -96.358551 110.527794 -686.845459
v -61.1901245 83.2328796 -665.364746
v -23.8174133 60.0574722 -650.335571
v 16.1695557 40.6346397 -641.769043
v -110.806534 107.756233 -704.994263
v -79.9349365 78.1735687 -680.282349
v -46.0771484 52.0559502 -662.186523
v -10.4022522 29.210474 -649.787231
v 28.0873413 10.0794544 -645.027344
v -116.591187 105.532463 -729.376953
v -89.9678345 75.1383896 -703.131226
v -59.4260864 46.9232979 -683.060425
v -27.1767883 21.1199188 -667.794189
v 6.7635498 -1.52454567 -658.639038
v 43.1917114 -20.2057762 -657.710083
v -38.9598389 144.558075 -682.491333
v -66.8983459 162.897491 -704.929565
v -76.0815735 142.208679 -689.334473
v -87.2246399 181.259583 -732.31543
v -101.35022 163.296951 -715.226562
v -104.626831 140.024338 -699.913818
v -99.710144 199.599564 -763.909302
v -117.654556 184.125992 -745.671753
v -125.868393 163.911392 -729.575195
v -123.903671 138.557632 -715.970581
v -105.258392 216.421997 -799.705688
v -125.849197 203.629745 -781.148926
v -137.936432 186.35376 -764.421143
v -140.702545 164.052246 -750.213013
v -133.740768 136.835754 -738.476685
g 
f 3 1 2
f 5 2 4
f 6 3 5
f 8 4 7
f 9 5 8
f 10 6 9
f 12 7 11
f 13 8 12
f 14 9 13
f 15 10 14
f 17 11 16
f 18 12 17
f 19 13 18
f 20 14 19
f 21 15 20
f 23 16 22
f 24 17 23
f 25 18 24
f 26 19 25
f 27 20 26
f 28 21 27
f 30 22 29
f 31 23 30
f 32 24 31
f 33 25 32
f 34 26 33
f 35 27 34
f 36 28 35
f 3 2 5
f 5 4 8
f 6 5 9
f 8 7 12
f 9 8 13
f 10 9 14
f 12 11 17
f 13 12 18
f 14 13 19
f 15 14 20
f 17 16 23
f 18 17 24
f 19 18 25
f 20 19 26
f 21 20 27
f 23 22 30
f 24 23 31
f 25 24 32
f 26 25 33
f 27 26 34
f 28 27 35
f 37 1 3
f 38 3 6
f 39 37 38
f 40 6 10
f 41 38 40
f 42 39 41
f 43 10 15
f 44 40 43
f 45 41 44
f 46 42 45
f 47 15 21
f 48 43 47
f 49 44 48
f 50 45 49
f 51 46 50
f 52 21 28
f 53 47 52
f 54 48 53
f 55 49 54
f 56 50 55
f 57 51 56
f 58 28 36
f 59 52 58
f 60 53 59
f 61 54 60
f 62 55 61
f 63 56 62
f 64 57 63
f 37 3 38
f 38 6 40
f 39 38 41
f 40 10 43
f 41 40 44
f 42 41 45
f 43 15 47
f 44 43 48
f 45 44 49
f 46 45 50
f 47 21 52
f 48 47 53
f 49 48 54
f 50 49 55
f 51 50 56
f 52 28 58
f 53 52 59
f 54 53 60
f 55 54 61
f 56 55 62
f 57 56 63
f 65 1 37
f 66 37 39
f 67 65 66
f 68 39 42
f 69 66 68
f 70 67 69
f 71 42 46
f 72 68 71
f 73 69 72
f 74 70 73
f 75 46 51
f 76 71 75
f 77 72 76
f 78 73 77
f 79 74 78
f 80 51 57
f 81 75 80
f 82 76 81
f 83 77 82
f 84 78 83
f 85 79 84
f 86 57 64
f 87 80 86
f 88 81 87
f 89 82 88
f 90 83 89
f 91 84 90
f 92 85 91
f 65 37 66
f 66 39 68
f 67 66 69
f 68 42 71
f 69 68 72
f 70 69 73
f 71 46 75
f 72 71 76
f 73 72 77
f 74 73 78
f 75 51 80
f 76 75 81
f 77 76 82
f 78 77 83
f 79 78 84
f 80 57 86
f 81 80 87
f 82 81 88
f 83 82 89
f 84 83 90
f 85 84 91
f 93 1 65
f 94 65 67
f 95 93 94
f 96 67 70
f 97 94 96
f 98 95 97
f 99 70 74
f 100 96 99
f 101 97 100
f 102 98 101
f 103 74 79
f 104 99 103
f 105 100 104
f 106 101 105
f 107 102 106
f 108 79 85
f 109 103 108
f 110 104 109
f 111 105 110
f 112 106 111
f 113 107 112
f 114 85 92
f 115 108 114
f 116 109 115
f 117 110 116
f 118 111 117
f 119 112 118
f 120 113 119
f 93 65 94
f 94 67 96
f 95 94 97
f 96 70 99
f 97 96 100
f 98 97 101
f 99 74 103
f 100 99 104
f 101 100 105
f 102 101 106
f 103 79 108
f 104 103 109
f 105 104 110
f 106 105 111
f 107 106 112
f 108 85 114
f 109 108 115
f 110 109 116
f 111 110 117
f 112 111 118
f 113 112 119
f 2 1 93
f 121 93 95
f 4 2 121
f 122 95 98
f 123 121 122
f 7 4 123
f 124 98 102
f 125 122 124
f 126 123 125
f 11 7 126
f 127 102 107
f 128 124 127
f 129 125 128
f 130 126 129
f 16 11 130
f 131 107 113
f 132 127 131
f 133 128 132
f 134 129 133
f 135 130 134
f 22 16 135
f 136 113 120
f 137 131 136
f 138 132 137
f 139 133 138
f 140 134 139
f 141 135 140
f 29 22 141
f 2 93 121
f 121 95 122
f 4 121 123
f 122 98 124
f 123 122 125
f 7 123 126
f 124 102 127
f 125 124 128
f 126 125 129
f 11 126 130
f 127 107 131
f 128 127 132
f 129 128 133
f 130 129 134
f 16 130 135
f 131 113 136
f 132 131 137
f 133 132 138
f 134 133 139
f 135 134 140
f 22 135 141
f 142 29 141
f 143 141 140
f 144 142 143
f 145 140 139
f 146 143 145
f 147 144 146
f 148 139 138
f 149 145 148
f 150 146 149
f 151 147 150
f 152 138 137
f 153 148 152
f 154 149 153
f 155 150 154
f 156 151 155
f 157 137 136
f 158 152 157
f 159 153 158
f 160 154 159
f 161 155 160
f 162 156 161
f 163 136 120
f 164 157 163
f 165 158 164
f 166 159 165
f 167 160 166
f 168 161 167
f 169 162 168
f 142 141 143
f 143 140 145
f 144 143 146
f 145 139 148
f 146 145 149
f 147 146 150
f 148 138 152
f 149 148 153
f 150 149 154
f 151 150 155
f 152 137 157
f 153 152 158
f 154 153 159
f 155 154 160
f 156 155 161
f 157 136 163
f 158 157 164
f 159 158 165
f 160 159 166
f 161 160 167
f 162 161 168
f 170 120 119
f 171 119 118
f 172 170 171
f 173 118 117
f 174 171 173
f 175 172 174
f 176 117 116
f 177 173 176
f 178 174 177
f 179 175 178
f 180 116 115
f 181 176 180
f 182 177 181
f 183 178 182
f 184 179 183
f 185 115 114
f 186 180 185
f 187 181 186
f 188 182 187
f 189 183 188
f 190 184 189
f 191 114 92
f 192 185 191
f 193 186 192
f 194 187 193
f 195 188 194
f 196 189 195
f 197 190 196
f 170 119 171
f 171 118 173
f 172 171 174
f 173 117 176
f 174 173 177
f 175 174 178
f 176 116 180
f 177 176 181
f 178 177 182
f 179 178 183
f 180 115 185
f 181 180 186
f 182 181 187
f 183 182 188
f 184 183 189
f 185 114 191
f 186 185 192
f 187 186 193
f 188 187 194
f 189 188 195
f 190 189 196
f 198 92 91
f 199 91 90
f 200 198 199
f 201 90 89
f 202 199 201
f 203 200 202
f 204 89 88
f 205 201 204
f 206 202 205
f 207 203 206
f 208 88 87
f 209 204 208
f 210 205 209
f 211 206 210
f 212 207 211
f 213 87 86
f 214 208 213
f 215 209 214
f 216 210 215
f 217 211 216
f 218 212 217
f 219 86 64
f 220 213 219
f 221 214 220
f 222 215 221
f 223 216 222
f 224 217 223
f 225 218 224
f 198 91 199
f 199 90 201
f 200 199 202
f 201 89 204
f 202 201 205
f 203 202 206
f 204 88 208
f 205 204 209
f 206 205 210
f 207 206 211
f 208 87 213
f 209 208 214
f 210 209 215
f 211 210 216
f 212 211 217
f 213 86 219
f 214 213 220
f 215 214 221
f 216 215 222
f 217 216 223
f 218 217 224
f 226 64 63
f 227 63 62
f 228 226 227
f 229 62 61
f 230 227 229
f 231 228 230
f 232 61 60
f 233 229 232
f 234 230 233
f 235 231 234
f 236 60 59
f 237 232 236
f 238 233 237
f 239 234 238
f 240 235 239
f 241 59 58
f 242 236 241
f 243 237 242
f 244 238 243
f 245 239 244
f 246 240 245
f 247 58 36
f 248 241 247
f 249 242 248
f 250 243 249
f 251 244 250
f 252 245 251
f 253 246 252
f 226 63 227
f 227 62 229
f 228 227 230
f 229 61 232
f 230 229 233
f 231 230 234
f 232 60 236
f 233 232 237
f 234 233 238
f 235 234 239
f 236 59 241
f 237 236 242
f 238 237 243
f 239 238 244
f 240 239 245
f 241 58 247
f 242 241 248
f 243 242 249
f 244 243 250
f 245 244 251
f 246 245 252
f 254 36 35
f 255 35 34
f 256 254 255
f 257 34 33
f 258 255 257
f 259 256 258
f 260 33 32
f 261 257 260
f 262 258 261
f 263 259 262
f 264 32 31
f 265 260 264
f 266 261 265
f 267 262 266
f 268 263 267
f 269 31 30
f 270 264 269
f 271 265 270
f 272 266 271
f 273 267 272
f 274 268 273
f 275 30 29
f 276 269 275
f 277 270 276
f 278 271 277
f 279 272 278
f 280 273 279
f 281 274 280
f 254 35 255
f 255 34 257
f 256 255 258
f 257 33 260
f 258 257 261
f 259 258 262
f 260 32 264
f 261 260 265
f 262 261 266
f 263 262 267
f 264 31 269
f 265 264 270
f 266 265 271
f 267 266 272
f 268 267 273
f 269 30 275
f 270 269 276
f 271 270 277
f 272 271 278
f 273 272 279
f 274 273 280
f 275 29 142
f 282 142 144
f 276 275 282
f 283 144 147
f 284 282 283
f 277 276 284
f 285 147 151
f 286 283 285
f 287 284 286
f 278 277 287
f 288 151 156
f 289 285 288
f 290 286 289
f 291 287 290
f 279 278 291
f 292 156 162
f 293 288 292
f 294 289 293
f 295 290 294
f 296 291 295
f 280 279 296
f 297 162 169
f 298 292 297
f 299 293 298
f 300 294 299
f 301 295 300
f 302 296 301
f 281 280 302
f 275 142 282
f 282 144 283
f 276 282 284
f 283 147 285
f 284 283 286
f 277 284 287
f 285 151 288
f 286 285 289
f 287 286 290
f 278 287 291
f 288 156 292
f 289 288 293
f 290 289 294
f 291 290 295
f 279 291 296
f 292 162 297
f 293 292 298
f 294 293 299
f 295 294 300
f 296 295 301
f 280 296 302
f 163 120 170
f 303 170 172
f 164 163 303
f 304 172 175
f 305 303 304
f 165 164 305
f 306 175 179
f 307 304 306
f 308 305 307
f 166 165 308
f 309 179 184
f 310 306 309
f 311 307 310
f 312 308 311
f 167 166 312
f 313 184 190
f 314 309 313
f 315 310 314
f 316 311 315
f 317 312 316
f 168 167 317
f 318 190 197
f 319 313 318
f 320 314 319
f 321 315 320
f 322 316 321
f 323 317 322
f 169 168 323
f 163 170 303
f 303 172 304
f 164 303 305
f 304 175 306
f 305 304 307
f 165 305 308
f 306 179 309
f 307 306 310
f 308 307 311
f 166 308 312
f 309 184 313
f 310 309 314
f 311 310 315
f 312 311 316
f 167 312 317
f 313 190 318
f 314 313 319
f 315 314 320
f 316 315 321
f 317 316 322
f 168 317 323
f 191 92 198
f 324 198 200
f 192 191 324
f 325 200 203
f 326 324 325
f 193 192 326
f 327 203 207
f 328 325 327
f 329 326 328
f 194 193 329
f 330 207 212
f 331 327 330
f 332 328 331
f 333 329 332
f 195 194 333
f 334 212 218
f 335 330 334
f 336 331 335
f 337 332 336
f 338 333 337
f 196 195 338
f 339 218 225
f 340 334 339
f 341 335 340
f 342 336 341
f 343 337 342
f 344 338 343
f 197 196 344
f 191 198 324
f 324 200 325
f 192 324 326
f 325 203 327
f 326 325 328
f 193 326 329
f 327 207 330
f 328 327 331
f 329 328 332
f 194 329 333
f 330 212 334
f 331 330 335
f 332 331 336
f 333 332 337
f 195 333 338
f 334 218 339
f 335 334 340
f 336 335 341
f 337 336 342
f 338 337 343
f 196 338 344
f 219 64 226
f 345 226 228
f 220 219 345
f 346 228 231
f 347 345 346
f 221 220 347
f 348 231 235
f 349 346 348
f 350 347 349
f 222 221 350
f 351 235 240
f 352 348 351
f 353 349 352
f 354 350 353
f 223 222 354
f 355 240 246
f 356 351 355
f 357 352 356
f 358 353 357
f 359 354 358
f 224 223 359
f 360 246 253
f 361 355 360
f 362 356 361
f 363 357 362
f 364 358 363
f 365 359 364
f 225 224 365
f 219 226 345
f 345 228 346
f 220 345 347
f 346 231 348
f 347 346 349
f 221 347 350
f 348 235 351
f 349 348 352
f 350 349 353
f 222 350 354
f 351 240 355
f 352 351 356
f 353 352 357
f 354 353 358
f 223 354 359
f 355 246 360
f 356 355 361
f 357 356 362
f 358 357 363
f 359 358 364
f 224 359 365
f 247 36 254
f 366 254 256
f 248 247 366
f 367 256 259
f 368 366 367
f 249 248 368
f 369 259 263
f 370 367 369
f 371 368 370
f 250 249 371
f 372 263 268
f 373 369 372
f 374 370 373
f 375 371 374
f 251 250 375
f 376 268 274
f 377 372 376
f 378 373 377
f 379 374 378
f 380 375 379
f 252 251 380
f 381 274 281
f 382 376 381
f 383 377 382
f 384 378 383
f 385 379 384
f 386 380 385
f 253 252 386
f 247 254 366
f 366 256 367
f 248 366 368
f 367 259 369
f 368 367 370
f 249 368 371
f 369 263 372
f 370 369 373
f 371 370 374
f 250 371 375
f 372 268 376
f 373 372 377
f 374 373 378
f 375 374 379
f 251 375 380
f 376 274 381
f 377 376 382
f 378 377 383
f 379 378 384
f 380 379 385
f 252 380 386
f 389 387 388
f 391 388 390
f 392 389 391
f 394 390 393
f 395 391 394
f 396 392 395
f 398 393 397
f 399 394 398
f 400 395 399
f 401 396 400
f 403 397 402
f 404 398 403
f 405 399 404
f 406 400 405
f 407 401 406
f 409 402 408
f 410 403 409
f 411 404 410
f 412 405 411
f 413 406 412
f 414 407 413
f 302 408 281
f 301 409 302
f 300 410 301
f 299 411 300
f 298 412 299
f 297 413 298
f 169 414 297
f 389 388 391
f 391 390 394
f 392 391 395
f 394 393 398
f 395 394 399
f 396 395 400
f 398 397 403
f 399 398 404
f 400 399 405
f 401 400 406
f 403 402 409
f 404 403 410
f 405 404 411
f 406 405 412
f 407 406 413
f 409 408 302
f 410 409 301
f 411 410 300
f 412 411 299
f 413 412 298
f 414 413 297
f 388 387 415
f 417 415 416
f 390 388 417
f 419 416 418
f 420 417 419
f 393 390 420
f 422 418 421
f 423 419 422
f 424 420 423
f 397 393 424
f 426 421 425
f 427 422 426
f 428 423 427
f 429 424 428
f 402 397 429
f 431 425 430
f 432 426 431
f 433 427 432
f 434 428 433
f 435 429 434
f 408 402 435
f 386 430 253
f 385 431 386
f 384 432 385
f 383 433 384
f 382 434 383
f 381 435 382
f 281 408 381
f 388 415 417
f 417 416 419
f 390 417 420
f 419 418 422
f 420 419 423
f 393 420 424
f 422 421 426
f 423 422 427
f 424 423 428
f 397 424 429
f 426 425 431
f 427 426 432
f 428 427 433
f 429 428 434
f 402 429 435
f 431 430 386
f 432 431 385
f 433 432 384
f 434 433 383
f 435 434 382
f 408 435 381
f 415 387 436
f 438 436 437
f 416 415 438
f 440 437 439
f 441 438 440
f 418 416 441
f 443 439 442
f 444 440 443
f 445 441 444
f 421 418 445
f 447 442 446
f 448 443 447
f 449 444 448
f 450 445 449
f 425 421 450
f 452 446 451
f 453 447 452
f 454 448 453
f 455 449 454
f 456 450 455
f 430 425 456
f 365 451 225
f 364 452 365
f 363 453 364
f 362 454 363
f 361 455 362
f 360 456 361
f 253 430 360
f 415 436 438
f 438 437 440
f 416 438 441
f 440 439 443
f 441 440 444
f 418 441 445
f 443 442 447
f 444 443 448
f 445 444 449
f 421 445 450
f 447 446 452
f 448 447 453
f 449 448 454
f 450 449 455
f 425 450 456
f 452 451 365
f 453 452 364
f 454 453 363
f 455 454 362
f 456 455 361
f 430 456 360
f 436 387 457
f 459 457 458
f 437 436 459
f 461 458 460
f 462 459 461
f 439 437 462
f 464 460 463
f 465 461 464
f 466 462 465
f 442 439 466
f 468 463 467
f 469 464 468
f 470 465 469
f 471 466 470
f 446 442 471
f 473 467 472
f 474 468 473
f 475 469 474
f 476 470 475
f 477 471 476
f 451 446 477
f 344 472 197
f 343 473 344
f 342 474 343
f 341 475 342
f 340 476 341
f 339 477 340
f 225 451 339
f 436 457 459
f 459 458 461
f 437 459 462
f 461 460 464
f 462 461 465
f 439 462 466
f 464 463 468
f 465 464 469
f 466 465 470
f 442 466 471
f 468 467 473
f 469 468 474
f 470 469 475
f 471 470 476
f 446 471 477
f 473 472 344
f 474 473 343
f 475 474 342
f 476 475 341
f 477 476 340
f 451 477 339
f 457 387 389
f 478 389 392
f 458 457 478
f 479 392 396
f 480 478 479
f 460 458 480
f 481 396 401
f 482 479 481
f 483 480 482
f 463 460 483
f 484 401 407
f 485 481 484
f 486 482 485
f 487 483 486
f 467 463 487
f 488 407 414
f 489 484 488
f 490 485 489
f 491 486 490
f 492 487 491
f 472 467 492
f 323 414 169
f 322 488 323
f 321 489 322
f 320 490 321
f 319 491 320
f 318 492 319
f 197 472 318
f 457 389 478
f 478 392 479
f 458 478 480
f 479 396 481
f 480 479 482
f 460 480 483
f 481 401 484
f 482 481 485
f 483 482 486
f 463 483 487
f 484 407 488
f 485 484 489
f 486 485 490
f 487 486 491
f 467 487 492
f 488 414 323
f 489 488 322
f 490 489 321
f 491 490 320
f 492 491 319
f 472 492 318
