# File exported by Houdini 20.5.445 (www.sidefx.com)
# 492 points
# 2940 vertices
# 980 primitives
# Bounds: [-116.674103, -177.767822, -1082.11987] to [287.448029, 294.144928, -672.681152]
g 
v 157.757538 136.374298 -1029.25574
v 165.615143 181.249359 -1028.41235
v 172.731842 142.250397 -1011.98779
v 174.356598 220.33075 -1021.87097
v 182.988312 188.709534 -1007.94763
v 186.910614 147.186615 -991.750488
v 184.235199 251.173096 -1007.29138
v 193.829803 225.866852 -996.860107
v 198.725494 192.615631 -984.222046
v 200.137787 149.534027 -968.158325
v 195.555084 272.72403 -984.281372
v 205.447601 252.865479 -977.135254
v 210.949982 226.179993 -968.575684
v 212.918488 191.646729 -956.597046
v 212.424103 147.563812 -940.975708
v 207.743561 285.20282 -954.304321
v 217.995087 270.174744 -949.157959
v 223.471893 249.103821 -944.026489
v 225.661469 221.11972 -936.291504
v 226.151031 184.973053 -924.876709
v 224.473114 140.245453 -911.010254
v 218.974823 290.206604 -920.073486
v 229.979767 279.214539 -914.70166
v 236.885529 261.986572 -910.733521
v 240.293121 238.984802 -906.268188
v 240.807709 209.293365 -899.486084
v 239.575409 172.251495 -890.105103
v 236.842804 127.839638 -879.717896
v 227.927155 290.430023 -884.881348
v 239.921295 281.90152 -876.269409
v 248.308197 267.420288 -870.510864
v 253.430817 247.877563 -866.805908
v 255.580597 222.737366 -863.328491
v 255.247345 191.378754 -858.759521
v 253.232208 154.160339 -853.362915
v 249.520111 112.176544 -848.654419
v 159.454315 92.4537582 -1017.65271
v 174.381683 96.6424942 -997.311646
v 160.787811 48.3848763 -1004.91541
v 187.617584 100.345642 -974.942383
v 175.029877 52.2275734 -981.50647
v 160.777435 5.48050308 -990.077759
v 199.377228 101.597061 -950.026489
v 186.865143 55.2801514 -957.111572
v 174.027313 9.54864693 -963.946655
v 158.793304 -34.7762909 -971.126465
v 210.655365 98.5378876 -922.579712
v 197.491791 55.4495392 -931.007202
v 184.822723 12.1013069 -937.576416
v 171.421967 -30.4866867 -942.755127
v 155.749908 -70.8732758 -947.645508
v 222.910736 90.2343063 -893.164429
v 209.068207 50.8441391 -903.105225
v 195.368073 10.807066 -909.936768
v 181.962677 -28.8026047 -914.191406
v 168.35733 -66.8722839 -917.368286
v 152.914642 -101.553711 -920.626953
v 236.660858 77.3797073 -862.291748
v 222.925446 40.8595963 -873.029297
v 208.368622 3.99279213 -880.087036
v 193.742279 -32.196434 -883.987793
v 179.614716 -66.6037598 -886.015137
v 165.765533 -98.4012146 -888.163452
v 150.696503 -125.898911 -891.579468
v 143.92337 103.431427 -1037.71692
v 145.2435 53.8864136 -1026.73865
v 130.07608 70.9275742 -1045.10229
v 145.799896 7.46247292 -1014.3479
v 130.74649 18.6505394 -1034.17151
v 115.509247 40.2274132 -1050.82751
v 144.304535 -35.4405975 -997.589722
v 129.71463 -27.7638321 -1019.83362
v 114.838959 -12.6295929 -1037.78491
v 99.7556458 12.0315475 -1052.67432
v 141.218475 -74.1401367 -975.197998
v 126.615326 -69.4621429 -999.63855
v 111.919403 -58.0835114 -1019.90369
v 97.2444763 -39.855072 -1035.97424
v 82.526947 -13.277729 -1048.88965
v 137.894989 -107.689102 -947.406982
v 122.592072 -106.414658 -972.94458
v 107.265533 -98.2221756 -995.396362
v 92.1803894 -84.0400543 -1013.63794
v 77.6318054 -63.2441559 -1027.81311
v 63.3495178 -35.4147034 -1038.9115
v 135.246368 -135.027771 -915.233643
v 118.794342 -137.793198 -939.890015
v 101.956818 -133.538834 -963.366333
v 85.3907776 -122.804565 -983.721924
v 69.6985779 -105.791031 -1000.05042
v 55.3367615 -82.4371872 -1012.83069
v 42.2252502 -54.2039795 -1023.00195
v 146.586823 158.714203 -1044.48047
v 130.878632 126.770332 -1053.33911
v 134.319611 179.435455 -1057.35291
v 115.765167 96.3415604 -1060.08826
v 117.185699 148.655731 -1066.25647
v 121.148651 197.45752 -1067.8064
v 100.466583 67.2617416 -1064.33179
v 101.258087 119.206917 -1071.83875
v 103.048798 167.262482 -1076.17224
v 107.531281 210.963715 -1074.61499
v 84.1375427 39.5866737 -1063.81213
v 85.2459412 90.4263229 -1073.72217
v 86.4178162 137.921295 -1079.68835
v 88.7673645 181.066772 -1081.44507
v 93.6566467 218.462677 -1075.88831
v 65.6057434 13.2052689 -1056.67615
v 67.462677 61.6471481 -1069.67053
v 68.9980164 107.94648 -1078.24133
v 70.9518738 150.690704 -1082.11987
v 73.8627014 188.197662 -1080.36218
v 79.6568298 219.613403 -1071.30127
v 43.759491 -11.950058 -1041.93152
v 45.7933044 32.219696 -1057.49707
v 47.933136 76.0723419 -1069.13513
v 50.5218811 117.777214 -1076.05017
v 53.5453796 155.552673 -1077.18164
v 57.7602234 188.159637 -1072.34851
v 65.1359558 215.456116 -1061.69336
v 153.732941 204.70752 -1042.66125
v 141.198029 223.40918 -1053.25989
v 161.95755 241.429382 -1033.29077
v 128.089691 236.948242 -1060.42383
v 149.470367 255.735168 -1040.41772
v 171.826813 268.115845 -1015.07458
v 114.467987 244.305328 -1063.0979
v 136.642975 263.319641 -1043.66003
v 159.752472 276.915283 -1018.36719
v 183.610565 284.657471 -988.323486
v 100.454498 245.51236 -1060.39941
v 123.260529 264.86554 -1042.64001
v 147.382172 278.967438 -1018.1748
v 171.965912 288.383362 -988.201782
v 196.195099 292.408783 -954.962402
v 85.3742981 241.151398 -1052.44861
v 108.490875 261.258759 -1036.82861
v 133.673431 276.168091 -1014.1134
v 159.477692 286.56842 -984.983032
v 184.475372 292.718292 -951.866455
v 207.636688 294.144928 -917.815796
v 222.201508 291.59021 -872.1698
v 198.063873 293.311707 -909.87439
v 212.273285 290.830963 -864.088745
v 171.75827 289.933441 -947.088623
v 184.025177 291.050781 -906.436768
v 196.993561 289.280548 -860.379517
v 144.007538 282.146973 -981.228027
v 154.212555 286.314545 -945.902954
v 164.700165 288.220428 -905.974976
v 175.746613 286.777802 -860.241089
v 115.721649 269.739105 -1009.4646
v 123.425568 276.550995 -979.598755
v 131.448395 281.642517 -945.895386
v 139.931122 283.895294 -906.931763
v 149.040802 281.860657 -862.599609
v 88.2216492 251.456329 -1030.39099
v 92.38797 260.408844 -1005.71033
v 97.4178162 268.292114 -977.800659
v 103.388458 273.878754 -945.381836
v 110.180389 275.992889 -907.98999
v 118.060883 273.052673 -866.357422
v 62.7247009 225.862244 -1044.14172
v 62.073761 235.594391 -1023.73645
v 63.0161438 245.381439 -1000.6897
v 65.7041321 254.06012 -973.912964
v 70.1237488 260.451813 -942.911621
v 76.351532 262.917725 -907.821289
v 84.3288879 260.028839 -869.946899
v 43.8037415 192.187714 -1056.11804
v 36.0189514 159.145508 -1064.44836
v 21.4776306 166.238312 -1045.85596
v 31.0890198 123.110664 -1066.30273
v 13.2177124 129.159729 -1050.87134
v -2.13369751 140.293976 -1030.43994
v 26.8959656 83.994278 -1061.52759
v 7.16342163 91.2011414 -1048.9093
v -11.0952759 100.769737 -1031.5813
v -26.8454895 116.496605 -1010.0791
v 23.5621643 42.440197 -1050.84216
v 1.96099854 51.5592766 -1039.94885
v -18.2121582 61.7979813 -1025.19153
v -36.5486145 75.709404 -1006.81714
v -51.6023865 95.5256271 -985.336792
v 21.3584595 -0.861555099 -1035.27881
v -1.78991699 10.2849598 -1025.20679
v -23.5073547 21.677227 -1011.66663
v -43.9412537 35.8716049 -995.417969
v -61.7486877 53.9943924 -976.921631
v -74.8869324 77.1432419 -956.82373
v 20.3874817 -45.0367432 -1015.40479
v -2.9473877 -33.551445 -1004.97705
v -25.3963318 -20.9378128 -991.729492
v -47.4133606 -5.59299088 -976.636841
v -67.750946 12.8007832 -960.041382
v -84.4599304 34.5928802 -942.584473
v -94.8807678 60.0648117 -925.4646
v 28.5715027 -86.8563004 -996.624268
v 44.0591736 -116.205658 -983.37561
v 17.7467346 -112.731781 -966.889893
v 61.2567444 -138.113708 -967.814697
v 36.7536926 -140.427582 -951.557983
v 10.7053833 -130.181549 -935.061279
v 79.9372864 -152.327728 -948.9552
v 57.4884338 -159.300537 -933.998169
v 34.0270081 -155.083954 -918.595947
v 7.76834106 -139.903381 -902.481201
v 99.3033752 -159.472107 -926.592163
v 79.1256409 -170.236603 -913.147339
v 57.8155212 -170.640228 -899.303589
v 34.0764465 -161.131531 -884.81897
v 6.96398926 -142.878998 -869.59021
v 118.970367 -158.998077 -901.73584
v 101.211945 -173.174896 -888.800903
v 81.947052 -177.767822 -876.083984
v 59.8381042 -172.788696 -863.275513
v 34.8946838 -159.873108 -850.246094
v 6.46936035 -140.267395 -836.842041
v 138.339264 -150.554321 -876.29541
v 123.57901 -167.291931 -861.94519
v 106.318634 -175.072388 -848.610352
v 85.8309631 -174.393585 -836.513672
v 61.8863831 -165.92395 -825.474121
v 34.9856262 -151.505219 -814.995972
v 5.96569824 -132.582291 -805.030518
v 158.67099 -129.043945 -860.019775
v 175.595551 -100.641846 -856.956299
v 167.004425 -127.514755 -830.459839
v 191.845612 -70.0529938 -856.115356
v 187.049042 -99.4082336 -829.516479
v 175.894196 -121.544617 -804.022339
v 208.091827 -37.3101654 -854.877686
v 205.777252 -69.8255157 -830.321289
v 199.145233 -94.1462021 -805.54126
v 184.566315 -110.796509 -781.263672
v 224.105377 -2.16710854 -850.813232
v 223.501007 -37.5560608 -829.120361
v 219.6362 -64.7597198 -806.783325
v 210.046844 -83.9623184 -783.93103
v 191.322174 -95.1201401 -761.665283
v 239.568207 35.4004059 -842.414429
v 240.309601 -1.56705093 -823.494507
v 238.064606 -31.6029053 -804.074951
v 231.26181 -53.741478 -783.717651
v 217.530121 -68.0973511 -763.281738
v 194.360809 -74.5069122 -743.935181
v 253.967682 74.7097168 -829.174316
v 256.247955 38.695034 -811.808105
v 255.198761 7.01194 -794.790161
v 249.837677 -18.0725403 -777.27124
v 238.809418 -35.2161636 -759.067993
v 219.945892 -45.920845 -742.417847
v 193.213776 -50.2499695 -727.153076
v 264.036652 121.705589 -819.704956
v 267.213104 164.118011 -820.02478
v 275.622894 129.518738 -789.234619
v 268.143402 199.454346 -821.242676
v 277.285309 170.844666 -786.227051
v 283.495697 136.508423 -758.52356
v 266.842133 228.222595 -822.865234
v 276.706085 204.256073 -785.104858
v 283.745819 176.414001 -753.625488
v 287.448029 144.106628 -729.587891
v 262.679779 251.38739 -825.891602
v 273.552582 231.497833 -786.385376
v 281.45517 208.607208 -752.261963
v 286.286346 182.717743 -724.586548
v 287.069977 153.584595 -704.838623
v 255.013763 270.066406 -832.427612
v 266.909027 254.237 -791.959229
v 275.797516 235.535065 -755.774048
v 281.506989 214.410187 -725.192261
v 283.703033 190.916321 -701.770996
v 280.730316 165.191345 -686.463135
v 242.849335 283.43985 -843.720337
v 255.213593 272.588104 -803.825806
v 264.891937 258.58667 -766.685791
v 271.442657 241.720184 -733.719604
v 274.51535 222.258423 -706.699585
v 273.63327 200.55542 -687.452026
v 267.603973 176.973999 -676.455078
v 236.738129 285.02124 -828.048828
v 225.343292 284.930847 -818.64563
v 247.605316 275.224518 -787.686523
v 207.65567 283.688599 -814.801025
v 233.833282 275.752289 -778.715576
v 255.084686 262.37381 -751.696533
v 183.330902 280.26004 -815.807861
v 213.053741 273.859131 -776.07666
v 238.328583 262.723846 -744.229736
v 259.013947 246.059204 -720.81665
v 152.560516 273.001129 -820.973022
v 184.826447 268.122742 -779.480225
v 213.894196 258.992706 -743.964966
v 238.921295 245.182953 -715.999634
v 258.955414 225.777039 -696.492554
v 115.765594 260.651764 -828.998047
v 148.391571 256.739807 -788.43396
v 180.24173 249.173279 -750.97522
v 209.403229 237.83017 -719.271973
v 234.182465 221.992065 -695.270142
v 253.632416 201.450684 -680.588745
v 37.4582825 202.872742 -1036.61511
v 12.2851257 178.897156 -1024.40161
v 33.4903259 213.899017 -1015.15454
v -13.1108704 156.165771 -1007.26538
v 6.25561523 192.173126 -1001.31165
v 32.035675 225.162109 -991.328979
v -38.5696716 135.500153 -985.586426
v -20.2774048 172.221436 -982.55957
v 3.41500854 205.849792 -976.028564
v 33.2385559 235.777252 -963.947998
v -63.21875 116.674194 -959.627563
v -46.0272522 153.965851 -959.240845
v -23.714386 188.233765 -955.38916
v 4.04598999 218.601654 -946.998291
v 37.4361267 243.855377 -931.804565
v -86.051239 98.0561676 -928.867188
v -70.1740723 135.481049 -930.660522
v -48.9647217 170.386627 -929.084717
v -22.6178284 201.196808 -923.184814
v 8.98852539 226.759857 -911.882324
v 45.1158142 246.263733 -894.033691
v 4.02902222 -76.419342 -984.61792
v -8.33578491 -97.9332733 -951.782227
v -20.3735046 -62.1312714 -970.369873
v -15.6223755 -111.424255 -918.358276
v -32.9017334 -80.1299133 -935.69104
v -43.9863586 -45.262413 -954.955444
v -19.556488 -118.346588 -884.607056
v -41.1441956 -90.6382294 -900.924316
v -57.408783 -59.8926086 -918.976807
v -66.9586792 -25.5517006 -938.625854
v -21.8203125 -119.583969 -850.224854
v -46.7480774 -95.1647415 -865.341919
v -67.3640747 -67.4655304 -882.640137
v -81.772522 -36.3452911 -901.32373
v -88.0531006 -2.18066788 -921.309326
v -22.9927979 -115.569122 -815.318726
v -50.3015442 -94.1641083 -828.177979
v -74.4992065 -68.9183578 -844.368042
v -92.9966125 -39.9009705 -862.794434
v -103.29599 -7.78648376 -882.565552
v -103.979187 26.0137482 -903.560913
v 145.837799 -151.350952 -840.967163
v 152.247223 -145.137756 -809.332642
v 130.041901 -163.345093 -824.31189
v 157.83139 -133.129425 -782.217896
v 133.719574 -151.492889 -791.994263
v 110.570099 -166.053894 -810.376953
v 162.250397 -116.056854 -759.723511
v 135.180817 -133.81076 -764.971558
v 110.486542 -149.29837 -778.38501
v 86.5289001 -160.894684 -799.037231
v 164.299164 -93.7594757 -741.017578
v 134.423737 -110.808258 -742.857056
v 106.740143 -126.698669 -751.776611
v 81.6170959 -140.367615 -767.866943
v 57.8756409 -149.310181 -789.479004
v 162.82309 -66.7748947 -724.206665
v 130.8638 -82.165184 -724.431885
v 99.7892151 -97.6664963 -729.785522
v 71.6925354 -112.758896 -741.647461
v 46.8804626 -125.010468 -759.448364
v 25.250061 -132.034149 -780.877563
v 268.791962 83.7501907 -798.810913
v 279.171173 92.4570999 -768.529419
v 269.515228 49.4984818 -781.432739
v 284.586517 101.917793 -739.25
v 276.930817 61.0460739 -752.05127
v 265.191376 21.0973282 -765.242188
v 285.068939 113.610924 -712.37085
v 278.472443 74.5041428 -724.114014
v 268.113251 36.6370697 -736.975952
v 254.876129 0.0995540619 -748.966064
v 279.382294 128.083801 -690.707397
v 273.380157 90.7916565 -699.82959
v 263.513275 54.2615356 -711.271362
v 250.911652 19.1862049 -722.880859
v 236.510284 -14.1772728 -733.493286
v 266.439362 144.465759 -676.212524
v 260.603973 109.978699 -681.478638
v 250.727264 74.7710648 -689.904541
v 238.004547 40.3230591 -699.772339
v 223.774567 7.6883564 -709.66333
v 208.817352 -22.4802017 -718.933228
v -5.72488403 77.9177704 -727.675293
v 41.4070129 97.3106461 -717.097168
v 1.2588501 110.53286 -746.125244
v 91.3048401 114.750854 -707.154541
v 53.5290222 131.707062 -734.250977
v 12.4349976 142.63446 -767.024048
v 139.364594 130.747223 -696.366943
v 104.653229 150.221161 -720.521362
v 66.5173035 163.680725 -751.930054
v 25.7137756 173.266663 -788.485107
v 182.121613 145.473358 -685.164307
v 151.235199 166.824738 -705.268188
v 116.542999 181.895996 -734.129272
v 78.8523865 193.136871 -769.287109
v 39.1596985 201.268768 -808.608521
v 218.345978 158.185638 -676.239258
v 192.198883 181.20816 -691.264771
v 161.555145 197.939545 -716.314697
v 127.294586 210.262634 -748.936401
v 90.5017395 219.486542 -786.639038
v 53.0661926 225.451691 -828.093506
v 247.169647 168.430511 -672.681152
v 226.828033 192.674866 -681.976318
v 201.228912 211.403717 -702.106934
v 171.125763 225.205994 -730.939087
v 137.681305 235.202393 -766.335693
v 102.711578 242.112305 -806.055542
v 68.3415833 245.086304 -848.440796
v 19.6219788 58.3770294 -706.959595
v 48.3117981 39.154705 -693.421143
v 71.3252869 76.8942261 -697.278931
v 78.7315979 19.931654 -688.024902
v 101.374054 56.4791794 -686.524414
v 122.39035 92.7111893 -689.962524
v 109.880035 1.070961 -689.697998
v 130.762726 36.1134415 -684.191406
v 151.135895 70.9118347 -682.468872
v 168.928192 107.177391 -682.803101
v 140.666229 -17.1117973 -697.378784
v 159.025604 15.9871483 -689.216064
v 177.701263 49.5147972 -683.473511
v 194.797394 84.3545303 -679.216309
v 208.761505 120.876198 -676.128906
v 169.260712 -34.430397 -710.163086
v 185.554291 -3.7012291 -700.963623
v 202.07901 28.334507 -692.496338
v 217.811615 62.1517105 -684.721558
v 231.340485 97.4510345 -677.747314
v 241.587311 133.219604 -672.900269
v -30.9976807 44.4416008 -725.897095
v -45.4994507 10.0508823 -727.861694
v -2.4515686 22.8218689 -706.904053
v -49.129425 -24.5618782 -733.984009
v -12.825531 -12.0109711 -712.05603
v 29.1114197 3.11587143 -697.021484
v -43.1016235 -57.477066 -744.893555
v -13.0999146 -46.0786438 -721.928223
v 21.7193604 -31.115387 -705.786865
v 62.382843 -15.4637566 -695.161987
v -29.8998108 -86.5681305 -761.105469
v -5.15655518 -78.1208267 -736.679443
v 23.6985779 -64.1953278 -718.730103
v 57.66922 -48.5066452 -706.472412
v 96.8565979 -33.0332565 -699.47168
v -12.6363525 -111.566742 -781.308594
v 8.38635254 -106.829071 -756.548218
v 32.9386292 -95.7584915 -736.251709
v 61.5102234 -80.8502808 -721.414673
v 94.6235046 -65.2145233 -712.605835
v 131.203766 -50.1128464 -709.175293
v -44.0231323 77.5319138 -750.832397
v -74.3875732 77.5677414 -776.895142
v -67.9952393 40.0712891 -750.584351
v -95.4412231 77.9390869 -805.569092
v -94.1094666 36.9686775 -777.920898
v -78.1833191 3.06685257 -754.177002
v -106.810425 77.1178589 -836.045044
v -109.742737 34.937397 -807.480103
v -99.1918945 -1.66465378 -782.821533
v -76.233551 -32.2967987 -761.67627
v -110.339081 73.3840103 -866.10083
v -116.674103 32.6865425 -838.150757
v -109.819641 -4.31506348 -813.853149
v -91.8025818 -36.4571075 -792.512451
v -64.2945557 -63.8379059 -774.44397
v -106.32132 66.9739304 -895.579346
v -114.802338 29.5279503 -869.838135
v -111.387268 -6.22481155 -846.7229
v -97.2573547 -38.7564697 -825.838257
v -74.385376 -67.1186142 -807.161743
v -45.4814758 -91.4395905 -792.17627
v -37.2885742 114.057289 -774.614624
v -24.7418823 148.370331 -800.307251
v -65.4943237 117.34771 -804.650757
v -9.49810791 179.40921 -825.503296
v -50.1477966 152.445007 -833.655518
v -83.2252197 118.948067 -836.285645
v 6.67892456 206.434845 -848.648193
v -32.3488159 182.508759 -861.155151
v -65.1969604 152.856995 -867.043457
v -91.7497864 116.698303 -868.108521
v 24.6590576 228.839294 -871.047485
v -13.1759033 207.329132 -886.63269
v -45.1294556 180.110443 -895.679321
v -71.7256775 147.288208 -899.269775
v -92.7295532 109.24482 -898.664795
g 
f 3 1 2
f 5 2 4
f 6 3 5
f 8 4 7
f 9 5 8
f 10 6 9
f 12 7 11
f 13 8 12
f 14 9 13
f 15 10 14
f 17 11 16
f 18 12 17
f 19 13 18
f 20 14 19
f 21 15 20
f 23 16 22
f 24 17 23
f 25 18 24
f 26 19 25
f 27 20 26
f 28 21 27
f 30 22 29
f 31 23 30
f 32 24 31
f 33 25 32
f 34 26 33
f 35 27 34
f 36 28 35
f 3 2 5
f 5 4 8
f 6 5 9
f 8 7 12
f 9 8 13
f 10 9 14
f 12 11 17
f 13 12 18
f 14 13 19
f 15 14 20
f 17 16 23
f 18 17 24
f 19 18 25
f 20 19 26
f 21 20 27
f 23 22 30
f 24 23 31
f 25 24 32
f 26 25 33
f 27 26 34
f 28 27 35
f 37 1 3
f 38 3 6
f 39 37 38
f 40 6 10
f 41 38 40
f 42 39 41
f 43 10 15
f 44 40 43
f 45 41 44
f 46 42 45
f 47 15 21
f 48 43 47
f 49 44 48
f 50 45 49
f 51 46 50
f 52 21 28
f 53 47 52
f 54 48 53
f 55 49 54
f 56 50 55
f 57 51 56
f 58 28 36
f 59 52 58
f 60 53 59
f 61 54 60
f 62 55 61
f 63 56 62
f 64 57 63
f 37 3 38
f 38 6 40
f 39 38 41
f 40 10 43
f 41 40 44
f 42 41 45
f 43 15 47
f 44 43 48
f 45 44 49
f 46 45 50
f 47 21 52
f 48 47 53
f 49 48 54
f 50 49 55
f 51 50 56
f 52 28 58
f 53 52 59
f 54 53 60
f 55 54 61
f 56 55 62
f 57 56 63
f 65 1 37
f 66 37 39
f 67 65 66
f 68 39 42
f 69 66 68
f 70 67 69
f 71 42 46
f 72 68 71
f 73 69 72
f 74 70 73
f 75 46 51
f 76 71 75
f 77 72 76
f 78 73 77
f 79 74 78
f 80 51 57
f 81 75 80
f 82 76 81
f 83 77 82
f 84 78 83
f 85 79 84
f 86 57 64
f 87 80 86
f 88 81 87
f 89 82 88
f 90 83 89
f 91 84 90
f 92 85 91
f 65 37 66
f 66 39 68
f 67 66 69
f 68 42 71
f 69 68 72
f 70 69 73
f 71 46 75
f 72 71 76
f 73 72 77
f 74 73 78
f 75 51 80
f 76 75 81
f 77 76 82
f 78 77 83
f 79 78 84
f 80 57 86
f 81 80 87
f 82 81 88
f 83 82 89
f 84 83 90
f 85 84 91
f 93 1 65
f 94 65 67
f 95 93 94
f 96 67 70
f 97 94 96
f 98 95 97
f 99 70 74
f 100 96 99
f 101 97 100
f 102 98 101
f 103 74 79
f 104 99 103
f 105 100 104
f 106 101 105
f 107 102 106
f 108 79 85
f 109 103 108
f 110 104 109
f 111 105 110
f 112 106 111
f 113 107 112
f 114 85 92
f 115 108 114
f 116 109 115
f 117 110 116
f 118 111 117
f 119 112 118
f 120 113 119
f 93 65 94
f 94 67 96
f 95 94 97
f 96 70 99
f 97 96 100
f 98 97 101
f 99 74 103
f 100 99 104
f 101 100 105
f 102 101 106
f 103 79 108
f 104 103 109
f 105 104 110
f 106 105 111
f 107 106 112
f 108 85 114
f 109 108 115
f 110 109 116
f 111 110 117
f 112 111 118
f 113 112 119
f 2 1 93
f 121 93 95
f 4 2 121
f 122 95 98
f 123 121 122
f 7 4 123
f 124 98 102
f 125 122 124
f 126 123 125
f 11 7 126
f 127 102 107
f 128 124 127
f 129 125 128
f 130 126 129
f 16 11 130
f 131 107 113
f 132 127 131
f 133 128 132
f 134 129 133
f 135 130 134
f 22 16 135
f 136 113 120
f 137 131 136
f 138 132 137
f 139 133 138
f 140 134 139
f 141 135 140
f 29 22 141
f 2 93 121
f 121 95 122
f 4 121 123
f 122 98 124
f 123 122 125
f 7 123 126
f 124 102 127
f 125 124 128
f 126 125 129
f 11 126 130
f 127 107 131
f 128 127 132
f 129 128 133
f 130 129 134
f 16 130 135
f 131 113 136
f 132 131 137
f 133 132 138
f 134 133 139
f 135 134 140
f 22 135 141
f 142 29 141
f 143 141 140
f 144 142 143
f 145 140 139
f 146 143 145
f 147 144 146
f 148 139 138
f 149 145 148
f 150 146 149
f 151 147 150
f 152 138 137
f 153 148 152
f 154 149 153
f 155 150 154
f 156 151 155
f 157 137 136
f 158 152 157
f 159 153 158
f 160 154 159
f 161 155 160
f 162 156 161
f 163 136 120
f 164 157 163
f 165 158 164
f 166 159 165
f 167 160 166
f 168 161 167
f 169 162 168
f 142 141 143
f 143 140 145
f 144 143 146
f 145 139 148
f 146 145 149
f 147 146 150
f 148 138 152
f 149 148 153
f 150 149 154
f 151 150 155
f 152 137 157
f 153 152 158
f 154 153 159
f 155 154 160
f 156 155 161
f 157 136 163
f 158 157 164
f 159 158 165
f 160 159 166
f 161 160 167
f 162 161 168
f 170 120 119
f 171 119 118
f 172 170 171
f 173 118 117
f 174 171 173
f 175 172 174
f 176 117 116
f 177 173 176
f 178 174 177
f 179 175 178
f 180 116 115
f 181 176 180
f 182 177 181
f 183 178 182
f 184 179 183
f 185 115 114
f 186 180 185
f 187 181 186
f 188 182 187
f 189 183 188
f 190 184 189
f 191 114 92
f 192 185 191
f 193 186 192
f 194 187 193
f 195 188 194
f 196 189 195
f 197 190 196
f 170 119 171
f 171 118 173
f 172 171 174
f 173 117 176
f 174 173 177
f 175 174 178
f 176 116 180
f 177 176 181
f 178 177 182
f 179 178 183
f 180 115 185
f 181 180 186
f 182 181 187
f 183 182 188
f 184 183 189
f 185 114 191
f 186 185 192
f 187 186 193
f 188 187 194
f 189 188 195
f 190 189 196
f 198 92 91
f 199 91 90
f 200 198 199
f 201 90 89
f 202 199 201
f 203 200 202
f 204 89 88
f 205 201 204
f 206 202 205
f 207 203 206
f 208 88 87
f 209 204 208
f 210 205 209
f 211 206 210
f 212 207 211
f 213 87 86
f 214 208 213
f 215 209 214
f 216 210 215
f 217 211 216
f 218 212 217
f 219 86 64
f 220 213 219
f 221 214 220
f 222 215 221
f 223 216 222
f 224 217 223
f 225 218 224
f 198 91 199
f 199 90 201
f 200 199 202
f 201 89 204
f 202 201 205
f 203 202 206
f 204 88 208
f 205 204 209
f 206 205 210
f 207 206 211
f 208 87 213
f 209 208 214
f 210 209 215
f 211 210 216
f 212 211 217
f 213 86 219
f 214 213 220
f 215 214 221
f 216 215 222
f 217 216 223
f 218 217 224
f 226 64 63
f 227 63 62
f 228 226 227
f 229 62 61
f 230 227 229
f 231 228 230
f 232 61 60
f 233 229 232
f 234 230 233
f 235 231 234
f 236 60 59
f 237 232 236
f 238 233 237
f 239 234 238
f 240 235 239
f 241 59 58
f 242 236 241
f 243 237 242
f 244 238 243
f 245 239 244
f 246 240 245
f 247 58 36
f 248 241 247
f 249 242 248
f 250 243 249
f 251 244 250
f 252 245 251
f 253 246 252
f 226 63 227
f 227 62 229
f 228 227 230
f 229 61 232
f 230 229 233
f 231 230 234
f 232 60 236
f 233 232 237
f 234 233 238
f 235 234 239
f 236 59 241
f 237 236 242
f 238 237 243
f 239 238 244
f 240 239 245
f 241 58 247
f 242 241 248
f 243 242 249
f 244 243 250
f 245 244 251
f 246 245 252
f 254 36 35
f 255 35 34
f 256 254 255
f 257 34 33
f 258 255 257
f 259 256 258
f 260 33 32
f 261 257 260
f 262 258 261
f 263 259 262
f 264 32 31
f 265 260 264
f 266 261 265
f 267 262 266
f 268 263 267
f 269 31 30
f 270 264 269
f 271 265 270
f 272 266 271
f 273 267 272
f 274 268 273
f 275 30 29
f 276 269 275
f 277 270 276
f 278 271 277
f 279 272 278
f 280 273 279
f 281 274 280
f 254 35 255
f 255 34 257
f 256 255 258
f 257 33 260
f 258 257 261
f 259 258 262
f 260 32 264
f 261 260 265
f 262 261 266
f 263 262 267
f 264 31 269
f 265 264 270
f 266 265 271
f 267 266 272
f 268 267 273
f 269 30 275
f 270 269 276
f 271 270 277
f 272 271 278
f 273 272 279
f 274 273 280
f 275 29 142
f 282 142 144
f 276 275 282
f 283 144 147
f 284 282 283
f 277 276 284
f 285 147 151
f 286 283 285
f 287 284 286
f 278 277 287
f 288 151 156
f 289 285 288
f 290 286 289
f 291 287 290
f 279 278 291
f 292 156 162
f 293 288 292
f 294 289 293
f 295 290 294
f 296 291 295
f 280 279 296
f 297 162 169
f 298 292 297
f 299 293 298
f 300 294 299
f 301 295 300
f 302 296 301
f 281 280 302
f 275 142 282
f 282 144 283
f 276 282 284
f 283 147 285
f 284 283 286
f 277 284 287
f 285 151 288
f 286 285 289
f 287 286 290
f 278 287 291
f 288 156 292
f 289 288 293
f 290 289 294
f 291 290 295
f 279 291 296
f 292 162 297
f 293 292 298
f 294 293 299
f 295 294 300
f 296 295 301
f 280 296 302
f 163 120 170
f 303 170 172
f 164 163 303
f 304 172 175
f 305 303 304
f 165 164 305
f 306 175 179
f 307 304 306
f 308 305 307
f 166 165 308
f 309 179 184
f 310 306 309
f 311 307 310
f 312 308 311
f 167 166 312
f 313 184 190
f 314 309 313
f 315 310 314
f 316 311 315
f 317 312 316
f 168 167 317
f 318 190 197
f 319 313 318
f 320 314 319
f 321 315 320
f 322 316 321
f 323 317 322
f 169 168 323
f 163 170 303
f 303 172 304
f 164 303 305
f 304 175 306
f 305 304 307
f 165 305 308
f 306 179 309
f 307 306 310
f 308 307 311
f 166 308 312
f 309 184 313
f 310 309 314
f 311 310 315
f 312 311 316
f 167 312 317
f 313 190 318
f 314 313 319
f 315 314 320
f 316 315 321
f 317 316 322
f 168 317 323
f 191 92 198
f 324 198 200
f 192 191 324
f 325 200 203
f 326 324 325
f 193 192 326
f 327 203 207
f 328 325 327
f 329 326 328
f 194 193 329
f 330 207 212
f 331 327 330
f 332 328 331
f 333 329 332
f 195 194 333
f 334 212 218
f 335 330 334
f 336 331 335
f 337 332 336
f 338 333 337
f 196 195 338
f 339 218 225
f 340 334 339
f 341 335 340
f 342 336 341
f 343 337 342
f 344 338 343
f 197 196 344
f 191 198 324
f 324 200 325
f 192 324 326
f 325 203 327
f 326 325 328
f 193 326 329
f 327 207 330
f 328 327 331
f 329 328 332
f 194 329 333
f 330 212 334
f 331 330 335
f 332 331 336
f 333 332 337
f 195 333 338
f 334 218 339
f 335 334 340
f 336 335 341
f 337 336 342
f 338 337 343
f 196 338 344
f 219 64 226
f 345 226 228
f 220 219 345
f 346 228 231
f 347 345 346
f 221 220 347
f 348 231 235
f 349 346 348
f 350 347 349
f 222 221 350
f 351 235 240
f 352 348 351
f 353 349 352
f 354 350 353
f 223 222 354
f 355 240 246
f 356 351 355
f 357 352 356
f 358 353 357
f 359 354 358
f 224 223 359
f 360 246 253
f 361 355 360
f 362 356 361
f 363 357 362
f 364 358 363
f 365 359 364
f 225 224 365
f 219 226 345
f 345 228 346
f 220 345 347
f 346 231 348
f 347 346 349
f 221 347 350
f 348 235 351
f 349 348 352
f 350 349 353
f 222 350 354
f 351 240 355
f 352 351 356
f 353 352 357
f 354 353 358
f 223 354 359
f 355 246 360
f 356 355 361
f 357 356 362
f 358 357 363
f 359 358 364
f 224 359 365
f 247 36 254
f 366 254 256
f 248 247 366
f 367 256 259
f 368 366 367
f 249 248 368
f 369 259 263
f 370 367 369
f 371 368 370
f 250 249 371
f 372 263 268
f 373 369 372
f 374 370 373
f 375 371 374
f 251 250 375
f 376 268 274
f 377 372 376
f 378 373 377
f 379 374 378
f 380 375 379
f 252 251 380
f 381 274 281
f 382 376 381
f 383 377 382
f 384 378 383
f 385 379 384
f 386 380 385
f 253 252 386
f 247 254 366
f 366 256 367
f 248 366 368
f 367 259 369
f 368 367 370
f 249 368 371
f 369 263 372
f 370 369 373
f 371 370 374
f 250 371 375
f 372 268 376
f 373 372 377
f 374 373 378
f 375 374 379
f 251 375 380
f 376 274 381
f 377 376 382
f 378 377 383
f 379 378 384
f 380 379 385
f 252 380 386
f 389 387 388
f 391 388 390
f 392 389 391
f 394 390 393
f 395 391 394
f 396 392 395
f 398 393 397
f 399 394 398
f 400 395 399
f 401 396 400
f 403 397 402
f 404 398 403
f 405 399 404
f 406 400 405
f 407 401 406
f 409 402 408
f 410 403 409
f 411 404 410
f 412 405 411
f 413 406 412
f 414 407 413
f 302 408 281
f 301 409 302
f 300 410 301
f 299 411 300
f 298 412 299
f 297 413 298
f 169 414 297
f 389 388 391
f 391 390 394
f 392 391 395
f 394 393 398
f 395 394 399
f 396 395 400
f 398 397 403
f 399 398 404
f 400 399 405
f 401 400 406
f 403 402 409
f 404 403 410
f 405 404 411
f 406 405 412
f 407 406 413
f 409 408 302
f 410 409 301
f 411 410 300
f 412 411 299
f 413 412 298
f 414 413 297
f 388 387 415
f 417 415 416
f 390 388 417
f 419 416 418
f 420 417 419
f 393 390 420
f 422 418 421
f 423 419 422
f 424 420 423
f 397 393 424
f 426 421 425
f 427 422 426
f 428 423 427
f 429 424 428
f 402 397 429
f 431 425 430
f 432 426 431
f 433 427 432
f 434 428 433
f 435 429 434
f 408 402 435
f 386 430 253
f 385 431 386
f 384 432 385
f 383 433 384
f 382 434 383
f 381 435 382
f 281 408 381
f 388 415 417
f 417 416 419
f 390 417 420
f 419 418 422
f 420 419 423
f 393 420 424
f 422 421 426
f 423 422 427
f 424 423 428
f 397 424 429
f 426 425 431
f 427 426 432
f 428 427 433
f 429 428 434
f 402 429 435
f 431 430 386
f 432 431 385
f 433 432 384
f 434 433 383
f 435 434 382
f 408 435 381
f 415 387 436
f 438 436 437
f 416 415 438
f 440 437 439
f 441 438 440
f 418 416 441
f 443 439 442
f 444 440 443
f 445 441 444
f 421 418 445
f 447 442 446
f 448 443 447
f 449 444 448
f 450 445 449
f 425 421 450
f 452 446 451
f 453 447 452
f 454 448 453
f 455 449 454
f 456 450 455
f 430 425 456
f 365 451 225
f 364 452 365
f 363 453 364
f 362 454 363
f 361 455 362
f 360 456 361
f 253 430 360
f 415 436 438
f 438 437 440
f 416 438 441
f 440 439 443
f 441 440 444
f 418 441 445
f 443 442 447
f 444 443 448
f 445 444 449
f 421 445 450
f 447 446 452
f 448 447 453
f 449 448 454
f 450 449 455
f 425 450 456
f 452 451 365
f 453 452 364
f 454 453 363
f 455 454 362
f 456 455 361
f 430 456 360
f 436 387 457
f 459 457 458
f 437 436 459
f 461 458 460
f 462 459 461
f 439 437 462
f 464 460 463
f 465 461 464
f 466 462 465
f 442 439 466
f 468 463 467
f 469 464 468
f 470 465 469
f 471 466 470
f 446 442 471
f 473 467 472
f 474 468 473
f 475 469 474
f 476 470 475
f 477 471 476
f 451 446 477
f 344 472 197
f 343 473 344
f 342 474 343
f 341 475 342
f 340 476 341
f 339 477 340
f 225 451 339
f 436 457 459
f 459 458 461
f 437 459 462
f 461 460 464
f 462 461 465
f 439 462 466
f 464 463 468
f 465 464 469
f 466 465 470
f 442 466 471
f 468 467 473
f 469 468 474
f 470 469 475
f 471 470 476
f 446 471 477
f 473 472 344
f 474 473 343
f 475 474 342
f 476 475 341
f 477 476 340
f 451 477 339
f 457 387 389
f 478 389 392
f 458 457 478
f 479 392 396
f 480 478 479
f 460 458 480
f 481 396 401
f 482 479 481
f 483 480 482
f 463 460 483
f 484 401 407
f 485 481 484
f 486 482 485
f 487 483 486
f 467 463 487
f 488 407 414
f 489 484 488
f 490 485 489
f 491 486 490
f 492 487 491
f 472 467 492
f 323 414 169
f 322 488 323
f 321 489 322
f 320 490 321
f 319 491 320
f 318 492 319
f 197 472 318
f 457 389 478
f 478 392 479
f 458 478 480
f 479 396 481
f 480 479 482
f 460 480 483
f 481 401 484
f 482 481 485
f 483 482 486
f 463 483 487
f 484 407 488
f 485 484 489
f 486 485 490
f 487 486 491
f 467 487 492
f 488 414 323
f 489 488 322
f 490 489 321
f 491 490 320
f 492 491 319
f 472 492 318
