# File exported by Houdini 20.5.445 (www.sidefx.com)
# 492 points
# 2940 vertices
# 980 primitives
# Bounds: [-140.557648, -99.0108871, -1182.20703] to [311.331543, 215.388, -572.593872]
g 
v 140.647369 122.6343 -1179.2041
v 140.293549 147.051819 -1175.71814
v 175.893158 130.839081 -1182.20703
v 134.250153 169.037231 -1167.4231
v 174.594086 155.495605 -1176.58484
v 207.201996 133.705017 -1176.80249
v 124.17514 188.202789 -1154.69922
v 166.828094 176.320587 -1166.33838
v 202.867432 156.888947 -1168.21777
v 233.125122 130.448776 -1162.49487
v 111.897858 203.239655 -1136.80164
v 154.224274 192.607483 -1151.21802
v 191.884521 174.847382 -1154.88672
v 224.657959 150.69873 -1150.38037
v 252.988098 121.014923 -1139.2666
v 100.591278 212.743805 -1112.90771
v 139.736267 203.357666 -1130.18774
v 176.753387 187.054718 -1136.1554
v 210.412567 164.647552 -1133.12622
v 240.334473 137.248581 -1123.14087
v 266.810181 106.729584 -1107.52222
v 92.4806519 215.018555 -1081.86401
v 126.599243 207.310577 -1101.67358
v 160.594849 192.554199 -1110.2478
v 193.19516 171.775848 -1109.27063
v 223.335388 146.274261 -1100.74316
v 250.644348 117.960945 -1086.57068
v 275.24823 89.8285065 -1067.8103
v 88.3687134 209.179718 -1043.16357
v 116.867798 202.904663 -1063.24438
v 146.362946 189.980194 -1074.18994
v 175.889954 170.930634 -1075.55945
v 204.551758 147.382019 -1069.07666
v 231.58252 121.281448 -1056.84766
v 256.636475 95.482666 -1040.24133
v 279.072693 71.4831238 -1021.54309
v 160.664948 103.454208 -1181.82642
v 198.763824 108.812317 -1180.86548
v 178.944794 83.8220139 -1178.38782
v 230.995483 108.183548 -1170.12573
v 218.068787 87.0312119 -1172.94214
v 196.020142 64.8847809 -1168.69666
v 256.826538 101.827194 -1150.13354
v 250.206055 83.951828 -1157.19067
v 234.825439 66.3393707 -1159.00439
v 211.190918 47.3392372 -1152.68384
v 276.168274 90.9224625 -1121.02307
v 275.472473 75.9394684 -1131.76746
v 265.900085 61.4226303 -1138.55762
v 248.323425 46.8168526 -1138.83057
v 222.690369 31.2131138 -1130.16101
v 289.138794 77.1033783 -1082.43237
v 293.955933 64.7483978 -1095.97607
v 289.679688 52.5949783 -1106.95703
v 277.001343 40.5120888 -1112.94238
v 256.566528 28.3170223 -1111.27258
v 228.338989 15.6687994 -1101.06348
v 295.715698 60.2124901 -1034.07007
v 305.064331 49.4587784 -1048.104
v 305.616333 39.071991 -1061.81213
v 297.154541 29.0188828 -1072.52673
v 280.470215 19.1787777 -1077.41772
v 256.708191 9.40572929 -1074.97083
v 226.941589 -0.516794205 -1066.18896
v 115.68988 99.2284012 -1172.70007
v 135.264465 78.1999359 -1173.97144
v 90.4585876 74.3698959 -1161.18188
v 153.373901 58.6740799 -1168.15552
v 111.251709 52.3568535 -1160.3252
v 66.5484009 49.4538994 -1145.5752
v 169.968414 41.4077225 -1155.47095
v 129.585236 33.6473541 -1151.37964
v 88.3888245 27.4756889 -1141.86462
v 43.6987915 25.9299316 -1125.96069
v 183.736023 26.4300461 -1135.86548
v 144.835114 18.2382622 -1134.94287
v 105.678406 9.86226654 -1129.11157
v 65.0555725 4.38289452 -1118.49951
v 21.569519 3.80765724 -1101.98242
v 192.84436 12.8472996 -1109.15112
v 155.710327 5.36751938 -1110.93628
v 118.014648 -4.27204895 -1108.06934
v 79.7420349 -12.7677078 -1101.10913
v 40.6690369 -17.5473442 -1089.89917
v 0.439239502 -17.5254135 -1073.73267
v 195.664276 -1.78809547 -1075.23157
v 161.026337 -7.31722641 -1079.12061
v 124.904297 -16.9645691 -1078.69946
v 88.2365417 -27.4893379 -1074.54553
v 51.7428894 -35.5495224 -1066.90356
v 15.872345 -39.1284409 -1055.89929
v -19.460022 -37.8835678 -1041.66455
v 103.49176 125.956543 -1167.48218
v 74.2633057 100.313126 -1156.41479
v 64.9856873 127.678871 -1148.74695
v 46.5015869 74.8619385 -1141.55017
v 33.5210266 101.078033 -1133.97583
v 27.0180969 128.742966 -1124.51465
v 21.1978455 50.6207047 -1123.80005
v 4.62844849 76.1589432 -1116.68726
v -5.21795654 102.236191 -1107.34338
v -8.16241455 129.755859 -1096.5791
v -1.91381836 27.2516708 -1102.44543
v -21.1057739 52.1010933 -1097.01001
v -34.3978577 77.4078751 -1088.22925
v -40.3285675 103.237434 -1078.08008
v -38.6054688 130.107666 -1066.53833
v -23.1429443 3.78963852 -1076.33545
v -44.166275 27.3455868 -1073.32397
v -60.4237823 51.943119 -1066.29761
v -69.5485687 77.1259842 -1057.21741
v -70.2340088 102.78244 -1047.32568
v -63.4373474 128.471802 -1035.97021
v -42.7140045 -20.3176842 -1044.82983
v -65.1030273 0.742477417 -1043.78296
v -83.9004822 24.0932503 -1039.04456
v -95.9519348 48.893589 -1031.99121
v -99.2332611 74.5176315 -1024.13757
v -93.9320831 100.034958 -1015.84241
v -82.4487305 124.065704 -1005.815
v 99.5696411 151.437622 -1160.83264
v 59.9436951 153.83902 -1138.83887
v 91.4287415 174.136505 -1149.13928
v 23.2692566 155.059113 -1111.63428
v 52.3644104 176.171021 -1123.62146
v 81.1862793 192.975891 -1132.56616
v -8.98745728 155.483368 -1080.68433
v 18.2186584 176.821869 -1092.62634
v 44.4968872 194.442291 -1102.83789
v 71.4708557 207.390045 -1110.37695
v -36.2293701 154.057739 -1047.23218
v -10.651123 175.742889 -1057.22559
v 14.1099854 193.700043 -1066.86499
v 38.8778381 207.461151 -1075.26013
v 64.7095642 215.388 -1081.0708
v -58.6607056 148.997101 -1012.40076
v -34.807251 170.823425 -1018.40619
v -10.9131775 189.107605 -1025.0166
v 12.7137451 203.162262 -1031.70215
v 36.7682495 211.949341 -1037.89417
v 62.0784607 214.277527 -1042.52002
v 71.8414307 202.812622 -999.486816
v 43.5979614 206.449036 -995.563599
v 58.143158 192.404663 -952.737122
v 17.4598083 202.682434 -990.64917
v 29.166626 194.01825 -949.693359
v 46.4452209 178.568817 -906.726013
v -7.06280518 192.717865 -986.710205
v 2.70425415 188.416229 -947.805298
v 17.7859802 177.842712 -907.606201
v 37.0792236 161.701508 -864.430908
v -31.295166 177.491058 -983.612122
v -22.2315979 176.877075 -947.5177
v -8.40115356 170.302551 -909.81134
v 9.19927979 158.548035 -870.309692
v 28.9933472 142.261078 -827.943604
v -56.1911774 157.475433 -980.909729
v -47.5381317 159.85672 -947.918213
v -34.0778809 156.786285 -913.071106
v -17.2408447 148.810822 -876.492493
v 1.46859741 136.638763 -838.20166
v 20.4543152 121.318359 -797.650879
v -81.1433258 132.766541 -978.593994
v -74.3673401 137.434143 -948.265381
v -61.9224091 137.6026 -916.050354
v -45.3400879 133.245697 -882.253723
v -26.7225952 124.878632 -846.92157
v -7.96472168 113.573502 -810.170166
v 9.63058472 100.752708 -772.18158
v -104.260284 103.227676 -983.284485
v -117.272675 75.2920074 -991.902771
v -120.553986 81.8237839 -961.15918
v -121.206024 47.2087021 -998.377075
v -132.328064 51.1714973 -968.349548
v -130.610031 61.7621613 -938.20166
v -114.974609 20.3868866 -1004.16022
v -133.340469 21.8989697 -972.816956
v -139.67926 30.1350079 -943.405762
v -134.676147 44.6200104 -912.760681
v -99.6526947 -4.4453392 -1008.85876
v -123.990906 -4.94970322 -976.119995
v -137.53183 0.979007721 -945.264282
v -140.557648 13.8993168 -915.386719
v -133.91745 31.321331 -883.640747
v -77.7292938 -26.8748703 -1011.07916
v -105.948715 -29.1079445 -977.783508
v -125.566467 -25.0790596 -945.465759
v -135.575882 -13.9829712 -914.155945
v -136.54155 2.95999527 -883.389404
v -129.9095 21.5078926 -850.952759
v -52.1153107 -46.2325516 -1009.89221
v -81.4286499 -50.3303299 -976.687561
v -105.157211 -48.2390976 -943.281128
v -121.23465 -38.8468399 -910.585815
v -128.891495 -23.0395203 -878.907227
v -129.182587 -4.08402252 -847.959656
v -123.923279 13.3019524 -816.63147
v -17.4824829 -57.166954 -1015.7804
v 19.3283691 -56.4482803 -1028.17908
v -15.9241333 -71.5957642 -987.424805
v 55.8486633 -49.9828873 -1037.4502
v 21.9550171 -68.7263412 -999.460938
v -14.0864258 -81.5663605 -958.422913
v 92.5180359 -39.6607742 -1043.25769
v 59.0559387 -60.3647919 -1007.75885
v 24.4425964 -77.6338043 -970.370789
v -11.4207458 -88.0690536 -929.634399
v 129.289856 -28.6209717 -1045.17542
v 96.0106812 -49.6043625 -1011.48474
v 61.8088379 -68.8468781 -976.957397
v 27.0227051 -83.8471146 -940.544128
v -7.8767395 -91.2409515 -901.284058
v 165.728821 -20.5689964 -1042.67603
v 133.071075 -39.8624344 -1010.00256
v 98.8674011 -58.7698059 -977.195862
v 64.0703125 -75.4815063 -943.763855
v 29.5705566 -87.4757004 -909.089844
v -3.51242065 -92.1867371 -872.60907
v 201.002625 -17.3650208 -1035.18188
v 170.369049 -34.2431488 -1002.88196
v 136.597473 -51.1600266 -970.397583
v 101.353668 -67.3417053 -938.221436
v 66.268219 -81.0088501 -906.342834
v 32.9151306 -89.9929886 -874.542053
v 2.78717041 -92.5539474 -842.834229
v 238.714478 -11.9521255 -1032.90271
v 269.475586 -2.91770172 -1035.67847
v 244.421143 -24.7083206 -993.877197
v 292.309204 5.4904213 -1031.47717
v 274.718445 -16.5887146 -990.509399
v 245.20697 -38.5456161 -949.508606
v 306.5755 14.0012522 -1020.9187
v 295.632507 -8.89095306 -980.227966
v 274.412659 -30.9742889 -940.284546
v 242.658997 -52.4821472 -900.729797
v 311.331543 23.3481026 -1006.54486
v 306.932739 -0.465053558 -965.23053
v 293.028381 -22.9151192 -924.999329
v 270.201477 -44.3385239 -886.343994
v 238.015747 -64.4665833 -849.494202
v 306.045837 34.0884781 -991.337708
v 307.781067 9.91680908 -948.380188
v 300.949341 -12.744278 -906.534851
v 286.086304 -34.1673012 -867.075989
v 263.05011 -54.0161667 -830.803589
v 231.865723 -71.8069839 -798.476318
v 290.867432 46.6502762 -978.162109
v 297.277344 23.3938065 -932.911865
v 297.036438 1.38167953 -888.085083
v 289.963135 -19.6440849 -846.059204
v 275.447815 -39.271492 -808.4245
v 253.310669 -57.023468 -776.353088
v 224.365173 -72.3945389 -750.512878
v 266.00415 67.396759 -983.784485
v 240.068054 92.2622147 -1003.77472
v 250.179565 64.9458008 -945.625549
v 213.580994 117.811325 -1019.71155
v 222.650146 89.7773972 -966.557434
v 233.380798 65.2094803 -906.924377
v 186.885529 142.599823 -1030.11255
v 196.277527 114.116951 -980.793945
v 205.620667 88.9791565 -927.025146
v 217.117188 67.9174957 -866.784912
v 159.769531 164.700806 -1033.90698
v 170.572571 137.02887 -988.358215
v 179.819946 111.241486 -938.386841
v 189.65509 89.8212128 -883.720947
v 202.544708 71.7993774 -824.226379
v 131.993347 182.315002 -1028.42004
v 144.575867 157.254852 -987.378052
v 154.661591 131.998108 -941.333069
v 164.034943 109.612633 -890.910583
v 175.412415 91.2696686 -836.382324
v 189.035797 75.3821106 -779.58551
v 103.376404 193.906372 -1012.43359
v 117.082977 173.088593 -975.477539
v 128.370758 150.051147 -933.219055
v 138.273468 127.678101 -886.935852
v 149.166595 108.089638 -837.423462
v 161.788391 91.8051987 -785.850342
v 174.983551 76.9445267 -735.294373
v 88.0497131 185.075104 -962.029541
v 75.0975952 173.232697 -910.91217
v 101.629761 163.848511 -920.551819
v 64.4706421 158.689728 -862.193665
v 89.2747803 152.029572 -866.830261
v 113.224274 141.857056 -875.773926
v 55.2338867 141.272095 -818.536011
v 79.1317749 137.344055 -816.693298
v 101.876251 130.517426 -820.662415
v 124.760132 120.832207 -828.231201
v 45.7392883 121.134827 -781.349731
v 69.3017273 119.238045 -771.858643
v 91.9927063 115.498207 -769.055603
v 114.594666 109.831093 -771.470581
v 137.683319 102.041016 -777.517456
v 33.7012329 99.5410233 -750.197388
v 57.255127 98.023674 -732.693787
v 80.7495728 96.2411499 -721.245911
v 104.43866 93.7788925 -716.454529
v 128.259979 90.2123871 -717.707642
v 151.869019 84.8690109 -724.219482
v -99.6731873 111.340523 -953.65564
v -112.071747 91.0677338 -930.048889
v -89.2073364 115.373032 -921.56958
v -119.041489 72.7026367 -905.364807
v -98.5335236 95.3034821 -896.215271
v -73.7862549 114.766388 -887.866394
v -121.618149 56.8628578 -877.288147
v -103.758224 77.3081131 -868.891357
v -81.1286469 94.4274597 -860.138428
v -54.9026031 109.811432 -852.643982
v -120.928802 43.6385269 -844.28772
v -105.879166 61.4587669 -836.712158
v -85.3178558 76.2427139 -828.78241
v -60.9578094 89.1197433 -821.368103
v -34.5446472 101.172142 -815.007263
v -117.704117 31.9224148 -806.616821
v -105.258789 47.1341095 -797.895935
v -86.8924866 59.6024208 -790.172729
v -64.348053 70.1449127 -783.475159
v -39.6368866 80.0619354 -777.866821
v -14.3648987 89.9067688 -773.805847
v -50.964798 -65.2794571 -979.176147
v -49.4372406 -77.3651047 -947.660828
v -79.0188141 -66.1402588 -942.784485
v -46.7557373 -84.3648605 -916.933777
v -75.7237244 -74.0712662 -909.378052
v -100.352631 -59.0100098 -907.367249
v -42.5201416 -87.8099136 -887.444519
v -70.9890137 -77.511528 -877.324463
v -94.6009064 -62.6051636 -872.484497
v -114.031448 -44.4896011 -873.135376
v -36.6519165 -88.4990692 -858.833435
v -64.5054932 -78.2054214 -846.61261
v -87.5209961 -63.0221329 -838.570435
v -106.086258 -44.8585434 -836.255188
v -120.143845 -25.0005074 -839.555786
v -28.3777161 -88.294281 -829.442627
v -55.5087128 -77.8715439 -815.985229
v -78.2970428 -62.297081 -804.985291
v -96.6675415 -43.6330948 -799.002502
v -110.506546 -24.0261726 -799.106506
v -119.522415 -4.86182404 -804.916321
v 208.474487 -30.3897781 -996.979919
v 210.141022 -43.9588547 -955.085144
v 174.389954 -47.2383881 -961.563354
v 208.215729 -57.9078445 -909.579346
v 173.494965 -60.5806427 -917.95697
v 138.054535 -62.7720261 -927.553467
v 204.570282 -71.2283173 -860.829102
v 170.171509 -73.9347382 -871.61554
v 135.648438 -75.0059357 -882.818665
v 100.945251 -76.7399597 -894.825378
v 200.127533 -81.5597916 -810.019897
v 166.079865 -85.8915863 -822.367432
v 131.601868 -86.8702164 -835.325134
v 97.4661255 -86.7194901 -849.119751
v 64.4143372 -87.7103958 -862.799866
v 195.002899 -85.6624908 -758.759521
v 161.80957 -93.3386612 -770.511047
v 127.182343 -96.041748 -784.300537
v 92.8766174 -95.5029831 -799.568115
v 60.0254517 -94.2306671 -815.722351
v 29.8009644 -93.3226166 -830.631042
v 276.721802 42.2778015 -931.611267
v 260.366089 41.7992325 -887.857727
v 282.219604 20.3880463 -880.412476
v 243.93219 44.9473152 -846.216675
v 266.15448 22.1441479 -833.615417
v 282.147522 -0.0610294342 -832.603638
v 228.327637 50.3849945 -804.812927
v 250.159607 27.4939976 -790.347412
v 266.323853 3.48595428 -784.267029
v 275.161377 -19.7419624 -789.669861
v 213.041412 56.3157845 -761.436401
v 233.727966 34.4940987 -747.399048
v 249.290405 10.0043964 -739.462708
v 258.125793 -15.3726807 -740.519714
v 259.510925 -38.7631607 -752.631287
v 196.339661 60.4531288 -715.724243
v 215.047363 40.5180817 -701.731995
v 229.163696 16.7658424 -693.871582
v 237.148376 -9.33246613 -693.928955
v 238.452942 -34.9984436 -703.357727
v 233.85199 -56.9182434 -722.55365
v 23.2077942 -26.7403259 -598.68573
v 54.2643738 -17.955864 -580.204163
v 15.2098694 -5.79296875 -593.623474
v 86.9395142 -4.20281982 -572.593872
v 47.7807312 4.89600372 -580.776367
v 10.4695435 14.1365232 -602.584839
v 118.099915 13.4592047 -578.734558
v 79.799469 19.6697121 -581.184204
v 43.5747375 25.5540257 -597.094727
v 8.75445557 32.3400116 -624.491516
v 144.003998 32.7675629 -599.791016
v 108.251923 37.0204697 -596.032898
v 73.9552307 40.1867142 -605.43042
v 41.1942444 43.9213867 -625.842407
v 9.20462036 48.7145996 -656.28833
v 161.88559 50.9457397 -634.878235
v 130.227692 54.9779129 -625.491333
v 99.0266113 56.8089409 -628.007812
v 68.825531 58.4893875 -641.012024
v 39.5691528 60.9404411 -663.265686
v 10.4151917 64.4433136 -693.777222
v 171.537354 65.8741913 -681.199097
v 144.439484 71.3717194 -668.811462
v 117.119232 73.9608459 -665.335571
v 90.0820618 75.3296432 -670.774231
v 63.627594 76.7132645 -684.486206
v 37.5369263 78.6804352 -705.766907
v 11.0370178 81.4341049 -733.244873
v 52.0984497 -42.6543655 -600.779907
v 82.2683716 -55.5496445 -610.89624
v 88.3211975 -30.5845184 -583.135193
v 112.586853 -65.2900848 -627.82605
v 121.283875 -39.9671707 -596.535156
v 123.558228 -13.2676773 -579.644897
v 142.254181 -72.3388824 -650.575684
v 152.24469 -47.2017746 -618.378052
v 156.775757 -20.0293159 -598.594116
v 154.332672 7.08888435 -591.789551
v 170.903687 -76.4655075 -678.394653
v 180.917328 -52.8757858 -647.036926
v 186.257172 -25.8501015 -626.643677
v 185.429718 1.72115898 -617.167725
v 177.393097 27.7694168 -619.50708
v 198.527374 -76.7146454 -711.379395
v 208.071533 -56.5639343 -681.279541
v 213.070892 -31.1183052 -661.495117
v 212.407471 -3.74816513 -651.697021
v 205.063202 22.6519928 -651.722351
v 191.153778 46.0966339 -661.452271
v 12.2350464 -42.7650909 -624.987549
v 3.87670898 -56.5786667 -658.578491
v 42.1739197 -61.1050568 -634.099609
v -3.13128662 -68.1872406 -695.274719
v 34.5675659 -74.9522629 -672.020874
v 72.3329468 -74.7908554 -648.897827
v -8.77172852 -77.8010101 -732.001282
v 27.8260193 -84.849472 -710.387573
v 64.5699768 -87.6023712 -688.718262
v 102.432892 -84.3385849 -667.924683
v -10.6701355 -85.4694443 -768.118774
v 23.2654419 -91.3280563 -748.601624
v 58.624054 -95.0213776 -728.237671
v 95.0315247 -95.330658 -708.845825
v 132.650269 -90.0497055 -691.476257
v -6.89367676 -90.5317459 -804.973328
v 23.3866882 -94.1494598 -788.347656
v 56.3265686 -97.2084579 -769.84082
v 91.1140442 -99.0108871 -751.593079
v 127.115051 -97.7695389 -735.099792
v 163.536957 -90.8900223 -721.038818
v -9.86502075 -18.4250107 -617.0271
v -38.3845825 -8.16769409 -640.350342
v -21.8618774 -33.0281792 -646.256226
v -62.865799 1.76343155 -668.232422
v -50.51297 -22.4133606 -670.596558
v -30.5185547 -46.1697006 -681.216309
v -83.8182526 9.66308022 -700.124634
v -74.5700378 -13.0187302 -697.788147
v -58.6919403 -36.0817642 -704.905396
v -36.9681091 -58.2906647 -717.512451
v -101.195969 14.3348875 -735.973816
v -94.3819885 -6.43410492 -728.518799
v -81.5899658 -28.2154999 -730.798096
v -63.5686035 -49.9239426 -740.032166
v -40.3558502 -69.7952728 -753.345703
v -114.299194 15.5627565 -775.473145
v -109.204178 -3.58409882 -764.065063
v -98.875412 -23.9292107 -761.359924
v -83.4929504 -44.6937637 -765.805176
v -63.3477783 -64.2671509 -776.093079
v -38.0162659 -80.3036575 -789.859741
v -18.1272583 3.77007103 -617.383057
v -21.4899902 23.1775169 -632.547241
v -45.0032196 13.9937162 -646.348022
v -21.2974548 39.9040985 -659.557617
v -46.6644287 32.0157013 -667.120361
v -67.5880737 22.7249889 -679.935791
v -18.942749 55.0837135 -694.554932
v -45.23909 47.2736778 -698.810974
v -68.1642303 39.1315079 -706.311523
v -87.2976532 28.8327885 -718.277588
v -16.085144 71.0693512 -733.487244
v -42.3088531 62.3478813 -736.855774
v -66.4949341 53.8825111 -742.21698
v -87.6299896 44.2542 -750.07428
v -104.142365 31.9668598 -760.841675
g 
f 3 1 2
f 5 2 4
f 6 3 5
f 8 4 7
f 9 5 8
f 10 6 9
f 12 7 11
f 13 8 12
f 14 9 13
f 15 10 14
f 17 11 16
f 18 12 17
f 19 13 18
f 20 14 19
f 21 15 20
f 23 16 22
f 24 17 23
f 25 18 24
f 26 19 25
f 27 20 26
f 28 21 27
f 30 22 29
f 31 23 30
f 32 24 31
f 33 25 32
f 34 26 33
f 35 27 34
f 36 28 35
f 3 2 5
f 5 4 8
f 6 5 9
f 8 7 12
f 9 8 13
f 10 9 14
f 12 11 17
f 13 12 18
f 14 13 19
f 15 14 20
f 17 16 23
f 18 17 24
f 19 18 25
f 20 19 26
f 21 20 27
f 23 22 30
f 24 23 31
f 25 24 32
f 26 25 33
f 27 26 34
f 28 27 35
f 37 1 3
f 38 3 6
f 39 37 38
f 40 6 10
f 41 38 40
f 42 39 41
f 43 10 15
f 44 40 43
f 45 41 44
f 46 42 45
f 47 15 21
f 48 43 47
f 49 44 48
f 50 45 49
f 51 46 50
f 52 21 28
f 53 47 52
f 54 48 53
f 55 49 54
f 56 50 55
f 57 51 56
f 58 28 36
f 59 52 58
f 60 53 59
f 61 54 60
f 62 55 61
f 63 56 62
f 64 57 63
f 37 3 38
f 38 6 40
f 39 38 41
f 40 10 43
f 41 40 44
f 42 41 45
f 43 15 47
f 44 43 48
f 45 44 49
f 46 45 50
f 47 21 52
f 48 47 53
f 49 48 54
f 50 49 55
f 51 50 56
f 52 28 58
f 53 52 59
f 54 53 60
f 55 54 61
f 56 55 62
f 57 56 63
f 65 1 37
f 66 37 39
f 67 65 66
f 68 39 42
f 69 66 68
f 70 67 69
f 71 42 46
f 72 68 71
f 73 69 72
f 74 70 73
f 75 46 51
f 76 71 75
f 77 72 76
f 78 73 77
f 79 74 78
f 80 51 57
f 81 75 80
f 82 76 81
f 83 77 82
f 84 78 83
f 85 79 84
f 86 57 64
f 87 80 86
f 88 81 87
f 89 82 88
f 90 83 89
f 91 84 90
f 92 85 91
f 65 37 66
f 66 39 68
f 67 66 69
f 68 42 71
f 69 68 72
f 70 69 73
f 71 46 75
f 72 71 76
f 73 72 77
f 74 73 78
f 75 51 80
f 76 75 81
f 77 76 82
f 78 77 83
f 79 78 84
f 80 57 86
f 81 80 87
f 82 81 88
f 83 82 89
f 84 83 90
f 85 84 91
f 93 1 65
f 94 65 67
f 95 93 94
f 96 67 70
f 97 94 96
f 98 95 97
f 99 70 74
f 100 96 99
f 101 97 100
f 102 98 101
f 103 74 79
f 104 99 103
f 105 100 104
f 106 101 105
f 107 102 106
f 108 79 85
f 109 103 108
f 110 104 109
f 111 105 110
f 112 106 111
f 113 107 112
f 114 85 92
f 115 108 114
f 116 109 115
f 117 110 116
f 118 111 117
f 119 112 118
f 120 113 119
f 93 65 94
f 94 67 96
f 95 94 97
f 96 70 99
f 97 96 100
f 98 97 101
f 99 74 103
f 100 99 104
f 101 100 105
f 102 101 106
f 103 79 108
f 104 103 109
f 105 104 110
f 106 105 111
f 107 106 112
f 108 85 114
f 109 108 115
f 110 109 116
f 111 110 117
f 112 111 118
f 113 112 119
f 2 1 93
f 121 93 95
f 4 2 121
f 122 95 98
f 123 121 122
f 7 4 123
f 124 98 102
f 125 122 124
f 126 123 125
f 11 7 126
f 127 102 107
f 128 124 127
f 129 125 128
f 130 126 129
f 16 11 130
f 131 107 113
f 132 127 131
f 133 128 132
f 134 129 133
f 135 130 134
f 22 16 135
f 136 113 120
f 137 131 136
f 138 132 137
f 139 133 138
f 140 134 139
f 141 135 140
f 29 22 141
f 2 93 121
f 121 95 122
f 4 121 123
f 122 98 124
f 123 122 125
f 7 123 126
f 124 102 127
f 125 124 128
f 126 125 129
f 11 126 130
f 127 107 131
f 128 127 132
f 129 128 133
f 130 129 134
f 16 130 135
f 131 113 136
f 132 131 137
f 133 132 138
f 134 133 139
f 135 134 140
f 22 135 141
f 142 29 141
f 143 141 140
f 144 142 143
f 145 140 139
f 146 143 145
f 147 144 146
f 148 139 138
f 149 145 148
f 150 146 149
f 151 147 150
f 152 138 137
f 153 148 152
f 154 149 153
f 155 150 154
f 156 151 155
f 157 137 136
f 158 152 157
f 159 153 158
f 160 154 159
f 161 155 160
f 162 156 161
f 163 136 120
f 164 157 163
f 165 158 164
f 166 159 165
f 167 160 166
f 168 161 167
f 169 162 168
f 142 141 143
f 143 140 145
f 144 143 146
f 145 139 148
f 146 145 149
f 147 146 150
f 148 138 152
f 149 148 153
f 150 149 154
f 151 150 155
f 152 137 157
f 153 152 158
f 154 153 159
f 155 154 160
f 156 155 161
f 157 136 163
f 158 157 164
f 159 158 165
f 160 159 166
f 161 160 167
f 162 161 168
f 170 120 119
f 171 119 118
f 172 170 171
f 173 118 117
f 174 171 173
f 175 172 174
f 176 117 116
f 177 173 176
f 178 174 177
f 179 175 178
f 180 116 115
f 181 176 180
f 182 177 181
f 183 178 182
f 184 179 183
f 185 115 114
f 186 180 185
f 187 181 186
f 188 182 187
f 189 183 188
f 190 184 189
f 191 114 92
f 192 185 191
f 193 186 192
f 194 187 193
f 195 188 194
f 196 189 195
f 197 190 196
f 170 119 171
f 171 118 173
f 172 171 174
f 173 117 176
f 174 173 177
f 175 174 178
f 176 116 180
f 177 176 181
f 178 177 182
f 179 178 183
f 180 115 185
f 181 180 186
f 182 181 187
f 183 182 188
f 184 183 189
f 185 114 191
f 186 185 192
f 187 186 193
f 188 187 194
f 189 188 195
f 190 189 196
f 198 92 91
f 199 91 90
f 200 198 199
f 201 90 89
f 202 199 201
f 203 200 202
f 204 89 88
f 205 201 204
f 206 202 205
f 207 203 206
f 208 88 87
f 209 204 208
f 210 205 209
f 211 206 210
f 212 207 211
f 213 87 86
f 214 208 213
f 215 209 214
f 216 210 215
f 217 211 216
f 218 212 217
f 219 86 64
f 220 213 219
f 221 214 220
f 222 215 221
f 223 216 222
f 224 217 223
f 225 218 224
f 198 91 199
f 199 90 201
f 200 199 202
f 201 89 204
f 202 201 205
f 203 202 206
f 204 88 208
f 205 204 209
f 206 205 210
f 207 206 211
f 208 87 213
f 209 208 214
f 210 209 215
f 211 210 216
f 212 211 217
f 213 86 219
f 214 213 220
f 215 214 221
f 216 215 222
f 217 216 223
f 218 217 224
f 226 64 63
f 227 63 62
f 228 226 227
f 229 62 61
f 230 227 229
f 231 228 230
f 232 61 60
f 233 229 232
f 234 230 233
f 235 231 234
f 236 60 59
f 237 232 236
f 238 233 237
f 239 234 238
f 240 235 239
f 241 59 58
f 242 236 241
f 243 237 242
f 244 238 243
f 245 239 244
f 246 240 245
f 247 58 36
f 248 241 247
f 249 242 248
f 250 243 249
f 251 244 250
f 252 245 251
f 253 246 252
f 226 63 227
f 227 62 229
f 228 227 230
f 229 61 232
f 230 229 233
f 231 230 234
f 232 60 236
f 233 232 237
f 234 233 238
f 235 234 239
f 236 59 241
f 237 236 242
f 238 237 243
f 239 238 244
f 240 239 245
f 241 58 247
f 242 241 248
f 243 242 249
f 244 243 250
f 245 244 251
f 246 245 252
f 254 36 35
f 255 35 34
f 256 254 255
f 257 34 33
f 258 255 257
f 259 256 258
f 260 33 32
f 261 257 260
f 262 258 261
f 263 259 262
f 264 32 31
f 265 260 264
f 266 261 265
f 267 262 266
f 268 263 267
f 269 31 30
f 270 264 269
f 271 265 270
f 272 266 271
f 273 267 272
f 274 268 273
f 275 30 29
f 276 269 275
f 277 270 276
f 278 271 277
f 279 272 278
f 280 273 279
f 281 274 280
f 254 35 255
f 255 34 257
f 256 255 258
f 257 33 260
f 258 257 261
f 259 258 262
f 260 32 264
f 261 260 265
f 262 261 266
f 263 262 267
f 264 31 269
f 265 264 270
f 266 265 271
f 267 266 272
f 268 267 273
f 269 30 275
f 270 269 276
f 271 270 277
f 272 271 278
f 273 272 279
f 274 273 280
f 275 29 142
f 282 142 144
f 276 275 282
f 283 144 147
f 284 282 283
f 277 276 284
f 285 147 151
f 286 283 285
f 287 284 286
f 278 277 287
f 288 151 156
f 289 285 288
f 290 286 289
f 291 287 290
f 279 278 291
f 292 156 162
f 293 288 292
f 294 289 293
f 295 290 294
f 296 291 295
f 280 279 296
f 297 162 169
f 298 292 297
f 299 293 298
f 300 294 299
f 301 295 300
f 302 296 301
f 281 280 302
f 275 142 282
f 282 144 283
f 276 282 284
f 283 147 285
f 284 283 286
f 277 284 287
f 285 151 288
f 286 285 289
f 287 286 290
f 278 287 291
f 288 156 292
f 289 288 293
f 290 289 294
f 291 290 295
f 279 291 296
f 292 162 297
f 293 292 298
f 294 293 299
f 295 294 300
f 296 295 301
f 280 296 302
f 163 120 170
f 303 170 172
f 164 163 303
f 304 172 175
f 305 303 304
f 165 164 305
f 306 175 179
f 307 304 306
f 308 305 307
f 166 165 308
f 309 179 184
f 310 306 309
f 311 307 310
f 312 308 311
f 167 166 312
f 313 184 190
f 314 309 313
f 315 310 314
f 316 311 315
f 317 312 316
f 168 167 317
f 318 190 197
f 319 313 318
f 320 314 319
f 321 315 320
f 322 316 321
f 323 317 322
f 169 168 323
f 163 170 303
f 303 172 304
f 164 303 305
f 304 175 306
f 305 304 307
f 165 305 308
f 306 179 309
f 307 306 310
f 308 307 311
f 166 308 312
f 309 184 313
f 310 309 314
f 311 310 315
f 312 311 316
f 167 312 317
f 313 190 318
f 314 313 319
f 315 314 320
f 316 315 321
f 317 316 322
f 168 317 323
f 191 92 198
f 324 198 200
f 192 191 324
f 325 200 203
f 326 324 325
f 193 192 326
f 327 203 207
f 328 325 327
f 329 326 328
f 194 193 329
f 330 207 212
f 331 327 330
f 332 328 331
f 333 329 332
f 195 194 333
f 334 212 218
f 335 330 334
f 336 331 335
f 337 332 336
f 338 333 337
f 196 195 338
f 339 218 225
f 340 334 339
f 341 335 340
f 342 336 341
f 343 337 342
f 344 338 343
f 197 196 344
f 191 198 324
f 324 200 325
f 192 324 326
f 325 203 327
f 326 325 328
f 193 326 329
f 327 207 330
f 328 327 331
f 329 328 332
f 194 329 333
f 330 212 334
f 331 330 335
f 332 331 336
f 333 332 337
f 195 333 338
f 334 218 339
f 335 334 340
f 336 335 341
f 337 336 342
f 338 337 343
f 196 338 344
f 219 64 226
f 345 226 228
f 220 219 345
f 346 228 231
f 347 345 346
f 221 220 347
f 348 231 235
f 349 346 348
f 350 347 349
f 222 221 350
f 351 235 240
f 352 348 351
f 353 349 352
f 354 350 353
f 223 222 354
f 355 240 246
f 356 351 355
f 357 352 356
f 358 353 357
f 359 354 358
f 224 223 359
f 360 246 253
f 361 355 360
f 362 356 361
f 363 357 362
f 364 358 363
f 365 359 364
f 225 224 365
f 219 226 345
f 345 228 346
f 220 345 347
f 346 231 348
f 347 346 349
f 221 347 350
f 348 235 351
f 349 348 352
f 350 349 353
f 222 350 354
f 351 240 355
f 352 351 356
f 353 352 357
f 354 353 358
f 223 354 359
f 355 246 360
f 356 355 361
f 357 356 362
f 358 357 363
f 359 358 364
f 224 359 365
f 247 36 254
f 366 254 256
f 248 247 366
f 367 256 259
f 368 366 367
f 249 248 368
f 369 259 263
f 370 367 369
f 371 368 370
f 250 249 371
f 372 263 268
f 373 369 372
f 374 370 373
f 375 371 374
f 251 250 375
f 376 268 274
f 377 372 376
f 378 373 377
f 379 374 378
f 380 375 379
f 252 251 380
f 381 274 281
f 382 376 381
f 383 377 382
f 384 378 383
f 385 379 384
f 386 380 385
f 253 252 386
f 247 254 366
f 366 256 367
f 248 366 368
f 367 259 369
f 368 367 370
f 249 368 371
f 369 263 372
f 370 369 373
f 371 370 374
f 250 371 375
f 372 268 376
f 373 372 377
f 374 373 378
f 375 374 379
f 251 375 380
f 376 274 381
f 377 376 382
f 378 377 383
f 379 378 384
f 380 379 385
f 252 380 386
f 389 387 388
f 391 388 390
f 392 389 391
f 394 390 393
f 395 391 394
f 396 392 395
f 398 393 397
f 399 394 398
f 400 395 399
f 401 396 400
f 403 397 402
f 404 398 403
f 405 399 404
f 406 400 405
f 407 401 406
f 409 402 408
f 410 403 409
f 411 404 410
f 412 405 411
f 413 406 412
f 414 407 413
f 302 408 281
f 301 409 302
f 300 410 301
f 299 411 300
f 298 412 299
f 297 413 298
f 169 414 297
f 389 388 391
f 391 390 394
f 392 391 395
f 394 393 398
f 395 394 399
f 396 395 400
f 398 397 403
f 399 398 404
f 400 399 405
f 401 400 406
f 403 402 409
f 404 403 410
f 405 404 411
f 406 405 412
f 407 406 413
f 409 408 302
f 410 409 301
f 411 410 300
f 412 411 299
f 413 412 298
f 414 413 297
f 388 387 415
f 417 415 416
f 390 388 417
f 419 416 418
f 420 417 419
f 393 390 420
f 422 418 421
f 423 419 422
f 424 420 423
f 397 393 424
f 426 421 425
f 427 422 426
f 428 423 427
f 429 424 428
f 402 397 429
f 431 425 430
f 432 426 431
f 433 427 432
f 434 428 433
f 435 429 434
f 408 402 435
f 386 430 253
f 385 431 386
f 384 432 385
f 383 433 384
f 382 434 383
f 381 435 382
f 281 408 381
f 388 415 417
f 417 416 419
f 390 417 420
f 419 418 422
f 420 419 423
f 393 420 424
f 422 421 426
f 423 422 427
f 424 423 428
f 397 424 429
f 426 425 431
f 427 426 432
f 428 427 433
f 429 428 434
f 402 429 435
f 431 430 386
f 432 431 385
f 433 432 384
f 434 433 383
f 435 434 382
f 408 435 381
f 415 387 436
f 438 436 437
f 416 415 438
f 440 437 439
f 441 438 440
f 418 416 441
f 443 439 442
f 444 440 443
f 445 441 444
f 421 418 445
f 447 442 446
f 448 443 447
f 449 444 448
f 450 445 449
f 425 421 450
f 452 446 451
f 453 447 452
f 454 448 453
f 455 449 454
f 456 450 455
f 430 425 456
f 365 451 225
f 364 452 365
f 363 453 364
f 362 454 363
f 361 455 362
f 360 456 361
f 253 430 360
f 415 436 438
f 438 437 440
f 416 438 441
f 440 439 443
f 441 440 444
f 418 441 445
f 443 442 447
f 444 443 448
f 445 444 449
f 421 445 450
f 447 446 452
f 448 447 453
f 449 448 454
f 450 449 455
f 425 450 456
f 452 451 365
f 453 452 364
f 454 453 363
f 455 454 362
f 456 455 361
f 430 456 360
f 436 387 457
f 459 457 458
f 437 436 459
f 461 458 460
f 462 459 461
f 439 437 462
f 464 460 463
f 465 461 464
f 466 462 465
f 442 439 466
f 468 463 467
f 469 464 468
f 470 465 469
f 471 466 470
f 446 442 471
f 473 467 472
f 474 468 473
f 475 469 474
f 476 470 475
f 477 471 476
f 451 446 477
f 344 472 197
f 343 473 344
f 342 474 343
f 341 475 342
f 340 476 341
f 339 477 340
f 225 451 339
f 436 457 459
f 459 458 461
f 437 459 462
f 461 460 464
f 462 461 465
f 439 462 466
f 464 463 468
f 465 464 469
f 466 465 470
f 442 466 471
f 468 467 473
f 469 468 474
f 470 469 475
f 471 470 476
f 446 471 477
f 473 472 344
f 474 473 343
f 475 474 342
f 476 475 341
f 477 476 340
f 451 477 339
f 457 387 389
f 478 389 392
f 458 457 478
f 479 392 396
f 480 478 479
f 460 458 480
f 481 396 401
f 482 479 481
f 483 480 482
f 463 460 483
f 484 401 407
f 485 481 484
f 486 482 485
f 487 483 486
f 467 463 487
f 488 407 414
f 489 484 488
f 490 485 489
f 491 486 490
f 492 487 491
f 472 467 492
f 323 414 169
f 322 488 323
f 321 489 322
f 320 490 321
f 319 491 320
f 318 492 319
f 197 472 318
f 457 389 478
f 478 392 479
f 458 478 480
f 479 396 481
f 480 479 482
f 460 480 483
f 481 401 484
f 482 481 485
f 483 482 486
f 463 483 487
f 484 407 488
f 485 484 489
f 486 485 490
f 487 486 491
f 467 487 492
f 488 414 323
f 489 488 322
f 490 489 321
f 491 490 320
f 492 491 319
f 472 492 318
