# File exported by Houdini 20.5.445 (www.sidefx.com)
# 492 points
# 2940 vertices
# 980 primitives
# Bounds: [-114.655792, -236.746231, -1072.35718] to [285.429718, 353.123352, -682.443848]
g 
v 104.930145 33.6137962 -1036.31384
v 117.415741 79.0676727 -1049.50085
v 131.323029 50.9732628 -1034.99231
v 133.307953 123.321075 -1060.99646
v 148.244781 99.5930176 -1049.03015
v 157.525604 68.0353851 -1032.97791
v 150.704681 164.972916 -1068.87891
v 167.683624 144.864395 -1060.29797
v 177.487579 118.592651 -1047.88721
v 183.044098 84.2292175 -1031.64124
v 166.614594 204.199463 -1072.35718
v 186.267365 186.824738 -1067.39319
v 198.363434 164.531342 -1058.95044
v 204.764435 135.868347 -1047.3894
v 207.334991 99.3495636 -1031.70471
v 178.252777 241.567612 -1071.40247
v 200.932343 226.59079 -1070.04858
v 216.262054 207.154633 -1065.5675
v 225.521576 182.396423 -1058.36426
v 229.533295 151.362778 -1048.01135
v 229.703217 113.63002 -1032.974
v 184.07547 276.781982 -1066.04102
v 209.638153 264.700745 -1067.75305
v 228.628876 247.76506 -1067.04028
v 241.7164 225.700867 -1063.96155
v 249.082489 198.118652 -1058.15698
v 251.103851 165.021347 -1048.79211
v 249.138641 127.23024 -1034.30518
v 183.863861 308.085022 -1056.09509
v 211.452667 300.081482 -1059.42419
v 233.958588 286.166138 -1061.57361
v 251.222321 266.481934 -1062.25195
v 262.860321 241.180893 -1060.7157
v 268.520721 210.773178 -1056.11304
v 268.569183 176.411423 -1047.48901
v 264.54776 139.623245 -1033.79712
v 111.960236 -0.352367401 -1022.09448
v 138.499786 16.3839493 -1018.8833
v 120.7966 -32.6114197 -1007.22437
v 163.351044 32.1009254 -1015.69775
v 146.421722 -15.9903069 -1002.93628
v 130.269257 -62.8709106 -991.617798
v 186.873016 47.01334 -1013.76086
v 169.398163 -0.772121429 -998.921387
v 153.817841 -46.181633 -986.605591
v 138.36618 -90.8403778 -974.694946
v 209.36734 61.8658333 -1013.56836
v 190.966522 14.0856361 -996.243408
v 174.495148 -30.8270798 -981.686646
v 159.127899 -73.9582672 -969.00647
v 143.76474 -115.851349 -955.869019
v 230.522675 77.4597626 -1014.82751
v 211.918549 29.8961983 -995.339722
v 194.238068 -15.2063599 -977.937012
v 177.645782 -58.0366211 -962.946045
v 161.929535 -98.7401886 -949.361816
v 146.934052 -137.054489 -934.926758
v 249.389984 94.0947876 -1016.12366
v 232.261749 47.9279823 -995.731323
v 214.276947 2.61781502 -975.630249
v 196.371246 -40.848465 -957.515747
v 179.271942 -81.807373 -941.687134
v 163.534393 -119.626236 -927.192993
v 150.246124 -153.690613 -911.877441
v 83.6944275 -5.18035126 -1027.43677
v 93.1052551 -42.8663864 -1011.67139
v 65.2176208 -43.1996689 -1014.93726
v 104.21701 -75.9403839 -994.983032
v 77.32724 -81.4950256 -996.091309
v 49.3882751 -79.0056458 -996.345215
v 115.089508 -105.355515 -977.182739
v 90.3833313 -113.504868 -976.571899
v 64.2030945 -116.030823 -974.350342
v 36.6463318 -111.337067 -971.795532
v 123.833893 -131.746384 -957.591675
v 102.336273 -141.500473 -955.805786
v 79.127655 -146.533539 -951.793091
v 54.4115906 -146.740158 -947.156006
v 28.0576477 -139.596542 -942.773071
v 130.330231 -154.978882 -935.277344
v 112.808258 -166.925049 -932.389893
v 93.6282043 -174.035446 -927.11499
v 72.683197 -176.80304 -921.204224
v 49.6573792 -174.273727 -915.850952
v 24.4312439 -163.756866 -912.162842
v 136.536713 -174.256927 -909.33313
v 122.773468 -189.376801 -904.483154
v 107.775177 -199.316483 -897.787354
v 90.8114929 -204.348679 -891.032593
v 71.1272888 -204.135406 -885.74585
v 48.5038147 -197.4095 -882.843872
v 23.9236755 -182.296783 -882.600586
v 84.8878479 45.0739098 -1043.67419
v 60.2264709 4.44063187 -1032.53125
v 64.3708801 57.676136 -1047.48352
v 39.9651184 -34.1036263 -1016.92102
v 38.0007019 15.7688179 -1033.44495
v 42.8547668 70.7628784 -1047.09277
v 23.3160706 -69.2097244 -994.616455
v 17.0385437 -22.1363792 -1014.15869
v 15.7514343 28.8885078 -1029.52795
v 19.2151794 83.1835938 -1041.89734
v 10.4630432 -99.9980011 -966.100708
v 0.117401123 -55.2903214 -987.570435
v -5.39212036 -7.05882263 -1006.03137
v -8.12075806 43.0702248 -1020.30127
v -6.73947144 94.6181946 -1031.84509
v 2.45028687 -126.840179 -933.960693
v -12.9640198 -84.3079529 -955.356567
v -22.672821 -38.2053986 -975.667358
v -29.3443909 9.49893188 -993.117432
v -34.1187439 57.2625465 -1006.63928
v -33.315155 105.629364 -1018.1637
v -0.242279053 -149.365219 -901.267456
v -20.8862 -109.754807 -920.51416
v -36.6886902 -65.8986893 -940.418335
v -47.9156799 -19.9936943 -959.896606
v -56.4929504 25.9769249 -976.456177
v -61.167572 71.5220337 -990.291992
v -58.6715393 116.537308 -1002.45886
v 97.3205261 94.6002502 -1057.14502
v 76.2049866 109.704178 -1059.77844
v 112.427216 139.819748 -1066.8479
v 52.8995667 122.985886 -1057.21362
v 90.04599 154.780899 -1066.85706
v 128.361359 181.041489 -1071.81323
v 26.4397278 133.585327 -1049.65637
v 64.3089905 166.522293 -1061.4259
v 103.674835 194.580139 -1068.83044
v 141.997589 219.390762 -1072.05054
v -2.36502075 142.965591 -1037.52295
v 34.9576111 176.029984 -1051.11572
v 75.0766296 205.452454 -1060.4552
v 114.452423 232.043594 -1066.00354
v 150.959808 256.232056 -1067.72742
v -32.0381775 152.454895 -1021.29541
v 2.60140991 185.286316 -1035.75366
v 41.8912659 215.312225 -1046.64258
v 82.0419617 243.265732 -1054.06104
v 119.836334 269.059509 -1058.0083
v 153.799408 291.490479 -1058.49622
v 160.403168 324.856567 -1044.26147
v 124.689301 304.578491 -1045.54614
v 132.327728 333.627686 -1029.14148
v 86.6399841 279.040344 -1043.09351
v 92.386322 309.744507 -1029.05054
v 101.892609 334.199646 -1010.82458
v 46.4458313 251.077377 -1037.03503
v 51.9151917 281.994568 -1024.48767
v 59.620575 307.921753 -1008.85107
v 71.052948 326.779541 -988.947266
v 5.50027466 221.216629 -1027.68335
v 10.669281 252.269638 -1016.53882
v 17.981781 278.541504 -1002.36572
v 28.1430359 299.04364 -984.788086
v 41.3316956 311.972656 -963.405273
v -33.4223328 188.210373 -1015.12109
v -30.3226624 219.813187 -1005.49255
v -23.7776794 246.696945 -992.679077
v -14.0694275 268.021362 -976.606079
v -1.2461853 283.245361 -957.412231
v 14.2762146 291.651611 -935.72522
v -66.0639954 150.32753 -997.764893
v -67.5337219 182.213486 -989.861572
v -63.9548035 210.329346 -978.371704
v -55.6073303 233.280991 -963.716431
v -42.7294617 250.470474 -946.083008
v -26.6807556 262.128296 -926.719604
v -8.82168579 268.075928 -906.825928
v -83.4859924 100.021103 -978.041016
v -82.6474304 49.8442497 -962.007935
v -100.958282 83.5740662 -951.694702
v -74.0329895 1.69433022 -945.014038
v -95.8315125 30.4257622 -933.420898
v -110.199432 68.4845123 -923.6073
v -60.7702942 -45.4552002 -926.027954
v -82.5834045 -19.1711349 -915.058716
v -100.336212 14.2298889 -904.973022
v -111.443268 55.2750816 -894.224854
v -42.9374084 -91.306076 -906.066528
v -64.3061218 -66.8004227 -895.501953
v -83.2267151 -35.6325836 -886.399658
v -98.3858948 1.53190231 -876.070435
v -107.88504 43.7112312 -863.342529
v -19.8180237 -134.725281 -886.525391
v -40.398468 -112.352646 -875.541504
v -60.5447693 -82.8578033 -866.708618
v -78.6054382 -47.3370667 -857.453369
v -93.5533142 -8.11627197 -845.379639
v -103.406403 33.0783882 -830.731934
v 7.65957642 -173.703888 -867.021851
v -11.2480164 -155.239288 -854.814209
v -32.1070251 -127.787827 -845.174438
v -53.0821228 -93.2926331 -836.206421
v -72.6929016 -54.9084091 -825.310547
v -89.146637 -15.6620979 -811.582886
v -99.6368103 22.9916954 -797.356567
v 39.3798523 -205.308105 -853.802246
v 66.1538391 -220.664429 -852.068359
v 52.318512 -219.097397 -825.814697
v 88.5005798 -226.149002 -854.080444
v 79.7018738 -233.293015 -823.278687
v 60.5855408 -222.365509 -799.180786
v 106.548553 -224.280151 -859.446167
v 101.432098 -236.746231 -825.342285
v 88.1535339 -234.778793 -796.80957
v 63.7984314 -215.110413 -774.784302
v 121.365509 -216.161072 -867.476318
v 118.688141 -232.173203 -831.619995
v 109.862946 -235.855179 -799.743164
v 91.7981262 -225.328674 -773.464478
v 62.662323 -198.954376 -753.403687
v 134.399994 -201.60025 -876.38562
v 133.184662 -220.100922 -841.349609
v 127.66214 -227.84819 -807.616699
v 114.411896 -223.323807 -777.91687
v 91.4272156 -205.946213 -753.905396
v 58.4064026 -176.504562 -735.40332
v 147.517059 -179.654663 -884.30603
v 146.846832 -199.132706 -852.649902
v 143.641998 -209.756302 -819.473511
v 133.993805 -209.82959 -787.906982
v 115.405792 -198.943817 -760.507568
v 87.521698 -178.276489 -738.432983
v 52.7365417 -150.122925 -721.393799
v 162.49704 -144.642059 -899.066772
v 178.385101 -105.485947 -917.187866
v 176.494476 -128.28688 -888.65686
v 196.503876 -63.7766724 -934.974121
v 194.523407 -84.6365662 -910.447266
v 190.852386 -105.138931 -880.828857
v 215.354095 -19.8628082 -954.598877
v 213.991058 -39.7471924 -931.881592
v 210.288971 -58.3802338 -906.169189
v 202.792633 -76.910675 -875.189331
v 234.056915 26.1260262 -976.377197
v 233.338898 6.54112244 -955.004639
v 229.967621 -11.3398857 -930.686401
v 223.001556 -28.7332497 -903.191284
v 209.850189 -45.891861 -871.065063
v 251.753693 73.9481049 -999.217896
v 251.634186 54.7591133 -979.49585
v 248.675079 36.7652168 -956.254395
v 242.082184 19.4650269 -929.603516
v 230.17099 2.39864731 -900.17395
v 211.310822 -14.2200623 -867.557373
v 267.546417 122.911743 -1020.43701
v 267.888336 105.21759 -1003.12891
v 265.417084 87.0677032 -981.491943
v 259.119904 69.0529022 -955.456909
v 247.873383 51.2067528 -926.194092
v 230.977448 33.4195557 -895.330811
v 208.159882 16.449028 -863.492432
v 278.36087 172.250183 -1038.1886
v 281.040009 211.738312 -1048.23914
v 285.429718 199.578735 -1033.59155
v 277.370453 246.58223 -1052.57373
v 284.30722 239.31749 -1038.74695
v 284.792328 220.630005 -1019.02441
v 267.118256 276.319336 -1053.11621
v 276.005157 273.411804 -1038.89941
v 278.834564 259.579041 -1019.74426
v 276.395782 235.907181 -995.931519
v 250.545624 300.527893 -1051.18811
v 261.043182 302.283447 -1036.28381
v 265.694122 292.82135 -1016.7793
v 265.23819 273.733459 -993.502319
v 261.154572 246.310715 -967.237793
v 227.66391 318.634583 -1048.02722
v 239.050201 325.551575 -1032.44214
v 245.283234 320.931702 -1012.42175
v 246.626556 305.917297 -988.776733
v 244.503937 282.473938 -962.966431
v 240.140167 252.707932 -936.768677
v 197.853485 329.62616 -1044.41443
v 208.756622 341.666382 -1028.52466
v 215.997711 342.627136 -1008.10022
v 219.089996 332.312744 -983.796753
v 219.025177 312.503052 -957.54187
v 217.10672 286.031494 -931.697632
v 214.209747 255.738693 -908.312378
v 172.070953 345.310852 -1027.95996
v 143.046051 350.539062 -1009.05151
v 180.516693 353.123352 -1007.06213
v 112.184906 345.799561 -987.837891
v 149.800629 352.80719 -984.372925
v 185.233124 348.449585 -981.91333
v 80.9329529 332.019714 -963.58313
v 117.850922 342.153076 -960.424194
v 153.098358 342.304504 -956.012573
v 186.922882 332.432617 -953.974121
v 50.8555603 310.868591 -935.778198
v 86.0445251 322.477234 -933.878662
v 120.550018 325.965332 -929.578613
v 154.397247 320.815308 -925.543335
v 186.890594 307.172913 -925.373169
v 22.9771423 284.0755 -905.263062
v 55.3269348 295.167603 -903.388794
v 88.3912048 300.253784 -900.426514
v 121.901581 298.580566 -896.612549
v 154.929108 289.874146 -894.927002
v 186.13266 275.018799 -898.386108
v -92.3946838 136.195419 -971.365356
v -108.314545 121.906952 -943.000122
v -93.5691833 168.48645 -961.172852
v -114.655792 108.12767 -912.303467
v -107.31601 154.432739 -930.237427
v -88.3524475 195.425308 -947.237305
v -113.733246 94.7989349 -879.355957
v -111.291901 140.123444 -896.408691
v -99.5057068 180.371002 -913.66687
v -76.7615662 216.357834 -930.100464
v -109.590912 81.1295166 -843.856812
v -108.911957 125.011841 -859.553467
v -101.305084 164.608032 -876.806519
v -84.9526672 199.737473 -893.983643
v -59.8238831 231.539474 -910.475098
v -105.214691 66.4028168 -806.246948
v -104.395844 107.978851 -819.272217
v -97.7587585 146.65419 -835.858276
v -84.7527771 181.607758 -853.90686
v -64.8614807 212.722351 -871.979858
v -39.1559143 241.120193 -889.601196
v 21.080719 -192.099762 -836.993286
v 29.9027405 -198.255676 -808.864136
v -0.865081787 -167.119156 -824.723877
v 33.2831726 -193.215042 -782.753174
v 3.71713257 -165.940887 -796.63269
v -25.0113831 -133.140701 -814.606201
v 31.6924133 -179.068497 -758.553101
v 2.63162231 -154.712524 -769.842529
v -24.5965881 -126.6008 -785.104248
v -49.6352234 -93.679718 -803.589355
v 26.4576721 -158.479446 -736.338013
v -2.96603394 -136.316055 -743.658447
v -29.6254578 -111.639679 -755.532227
v -52.9176941 -83.7831421 -770.957031
v -72.7329407 -52.0064774 -789.669067
v 19.9346619 -133.54274 -716.967651
v -10.568634 -112.939224 -718.602905
v -37.6870422 -90.5440216 -725.499146
v -60.2605286 -66.2277145 -737.269653
v -77.825531 -39.2552872 -753.674805
v -90.5737 -9.33456421 -773.927612
v 160.715057 -167.827148 -868.513428
v 173.581757 -147.534027 -856.217041
v 158.575287 -182.036865 -835.702637
v 183.987762 -120.485641 -847.154785
v 167.271759 -156.628021 -823.006836
v 151.16629 -186.370819 -802.892334
v 189.657135 -88.6930237 -840.755371
v 171.058502 -125.179108 -813.782715
v 153.108551 -155.706345 -790.666992
v 134.900482 -180.403488 -772.33667
v 189.580414 -53.8722076 -836.462402
v 168.576691 -89.1237869 -807.346802
v 148.148529 -119.465256 -781.625366
v 128.025238 -144.606674 -760.606934
v 107.903961 -164.318512 -745.629883
v 184.582184 -17.4505157 -833.418701
v 160.220062 -49.3342743 -803.254028
v 136.040558 -78.0333023 -775.146362
v 112.79892 -102.797562 -751.385254
v 91.0089417 -123.204163 -733.727539
v 70.9356384 -139.02179 -723.409424
v 279.42099 154.448013 -1022.25464
v 283.573151 178.497528 -1013.58435
v 277.204559 135.231812 -1001.71045
v 280.210663 195.93573 -994.737427
v 278.135162 156.690018 -989.227417
v 271.240021 115.578781 -976.161377
v 269.414337 208.313232 -968.155151
v 271.647186 171.711166 -966.853638
v 268.152252 135.156036 -959.900024
v 260.248016 95.9225922 -946.078003
v 251.752045 216.858643 -937.146729
v 257.960541 182.012497 -937.613892
v 257.940216 148.03334 -934.390503
v 252.410248 113.372375 -926.143311
v 243.248383 75.7351685 -912.803101
v 226.957672 222.752121 -905.395508
v 235.817535 189.423859 -904.758667
v 239.099579 156.646973 -902.562988
v 236.225067 124.131439 -897.338257
v 228.7164 90.7400208 -889.039429
v 218.937836 54.9738426 -877.682495
v 14.103302 99.3999481 -739.617065
v 48.547699 123.245392 -766.904175
v 8.78469849 128.78125 -753.996948
v 82.8824768 146.777344 -792.001099
v 43.7917175 156.234634 -781.668335
v 4.32052612 157.299561 -771.746094
v 115.223846 170.007385 -813.888794
v 76.6861877 181.839035 -805.438354
v 38.6151428 186.787506 -798.648071
v 0.0392150879 184.271454 -793.45752
v 144.617828 192.78717 -834.66626
v 106.738068 206.431747 -826.399414
v 69.6921082 213.723175 -822.162842
v 32.9744568 214.757492 -819.615967
v -4.02267456 209.424667 -818.44873
v 170.746735 214.925308 -856.317017
v 134.407379 230.274643 -847.28418
v 98.3399353 239.549789 -844.450684
v 62.7987366 242.977585 -844.135742
v 27.7581482 240.506973 -844.636475
v -7.33480835 232.300766 -846.243652
v 193.748627 236.107529 -880.472534
v 160.603973 253.30751 -870.484619
v 126.213837 265.041321 -867.670654
v 91.6289978 270.676147 -869.021118
v 57.5314636 270.260498 -871.216309
v 24.0738831 263.910156 -873.398193
v -9.10525513 252.223343 -876.199097
v 42.0646057 84.598938 -746.148804
v 71.7058411 70.4602814 -757.137817
v 81.5696106 109.045181 -776.099731
v 101.862274 57.322506 -772.848511
v 113.676483 95.9194183 -789.052002
v 118.391815 132.517456 -802.456909
v 131.437714 45.4701881 -793.015381
v 143.969086 83.9925537 -806.403687
v 151.056793 119.82373 -817.297852
v 151.656464 155.372879 -826.252686
v 159.989716 34.8148232 -815.957642
v 171.730133 73.5195618 -827.918457
v 180.549591 108.695984 -836.81543
v 183.997528 142.907654 -844.10144
v 180.900177 177.819305 -850.157471
v 186.267914 25.2159119 -839.910156
v 196.892548 64.1779785 -852.236084
v 206.448151 99.2493591 -861.010254
v 212.292633 132.550171 -867.67981
v 212.29483 165.828918 -872.644897
v 205.853729 200.204529 -876.005371
v -1.93539429 65.964447 -716.44751
v -13.4234314 31.9926109 -698.771484
v 27.1840515 48.355175 -724.627686
v -17.2860413 -2.53556824 -689.400391
v 18.058136 12.9825439 -710.095703
v 57.9387512 32.6430893 -738.788818
v -11.6875305 -37.9321671 -688.90564
v 17.6934509 -22.5590324 -703.690918
v 51.5727844 -3.78109741 -727.643799
v 89.7643127 18.4737434 -758.078125
v 3.66799927 -74.7773743 -695.390259
v 27.6237488 -59.6034241 -704.456421
v 55.5654602 -41.1788025 -723.245605
v 87.4154358 -19.7101288 -749.385742
v 122.667633 5.27628708 -780.97876
v 26.5500793 -112.681992 -706.671997
v 46.6101379 -98.6455231 -711.25354
v 69.7223816 -80.9046021 -725.220093
v 95.849762 -59.7411041 -746.878906
v 124.642914 -35.120697 -774.592041
v 155.261566 -6.84264374 -806.355957
v -21.1909485 92.8539734 -722.870972
v -51.1301575 84.9685211 -713.53833
v -37.3771057 56.2338753 -699.620728
v -74.1509094 75.7928925 -713.890381
v -64.1827698 45.6510201 -694.004028
v -45.5466614 20.3592377 -685.84314
v -89.5089417 65.3548889 -724.364014
v -82.178009 34.1099625 -699.990356
v -67.0786438 7.90593338 -686.407715
v -43.8423767 -15.5032082 -682.443848
v -97.8062439 53.3553276 -743.57019
v -91.5936584 21.4262047 -716.872437
v -79.0174866 -5.80522537 -698.972656
v -59.0687561 -29.8439522 -689.52478
v -31.7969055 -52.4869614 -688.276611
v -100.575714 39.2952919 -768.931763
v -93.7336121 7.13150787 -742.467529
v -82.1006165 -21.2794228 -722.129761
v -64.2853699 -46.4267273 -708.25354
v -40.0778503 -69.5097427 -701.186157
v -9.70834351 -91.7971191 -700.519165
v -27.2388611 123.074356 -741.577637
v -31.2793884 151.220291 -765.273193
v -56.0767517 115.915787 -737.922241
v -34.4624939 177.454712 -792.616211
v -58.7638855 144.062637 -767.181519
v -77.4618225 107.357422 -743.377075
v -37.1409607 201.576614 -822.514282
v -61.0209045 169.809555 -799.409424
v -79.2837219 135.32373 -777.033325
v -92.0293274 96.933548 -757.444092
v -38.8772888 223.118942 -854.981812
v -63.1772766 192.97171 -834.179321
v -81.6428528 160.201401 -813.737671
v -94.153595 123.885254 -794.53772
v -100.88089 83.6558228 -778.999268
g 
f 3 1 2
f 5 2 4
f 6 3 5
f 8 4 7
f 9 5 8
f 10 6 9
f 12 7 11
f 13 8 12
f 14 9 13
f 15 10 14
f 17 11 16
f 18 12 17
f 19 13 18
f 20 14 19
f 21 15 20
f 23 16 22
f 24 17 23
f 25 18 24
f 26 19 25
f 27 20 26
f 28 21 27
f 30 22 29
f 31 23 30
f 32 24 31
f 33 25 32
f 34 26 33
f 35 27 34
f 36 28 35
f 3 2 5
f 5 4 8
f 6 5 9
f 8 7 12
f 9 8 13
f 10 9 14
f 12 11 17
f 13 12 18
f 14 13 19
f 15 14 20
f 17 16 23
f 18 17 24
f 19 18 25
f 20 19 26
f 21 20 27
f 23 22 30
f 24 23 31
f 25 24 32
f 26 25 33
f 27 26 34
f 28 27 35
f 37 1 3
f 38 3 6
f 39 37 38
f 40 6 10
f 41 38 40
f 42 39 41
f 43 10 15
f 44 40 43
f 45 41 44
f 46 42 45
f 47 15 21
f 48 43 47
f 49 44 48
f 50 45 49
f 51 46 50
f 52 21 28
f 53 47 52
f 54 48 53
f 55 49 54
f 56 50 55
f 57 51 56
f 58 28 36
f 59 52 58
f 60 53 59
f 61 54 60
f 62 55 61
f 63 56 62
f 64 57 63
f 37 3 38
f 38 6 40
f 39 38 41
f 40 10 43
f 41 40 44
f 42 41 45
f 43 15 47
f 44 43 48
f 45 44 49
f 46 45 50
f 47 21 52
f 48 47 53
f 49 48 54
f 50 49 55
f 51 50 56
f 52 28 58
f 53 52 59
f 54 53 60
f 55 54 61
f 56 55 62
f 57 56 63
f 65 1 37
f 66 37 39
f 67 65 66
f 68 39 42
f 69 66 68
f 70 67 69
f 71 42 46
f 72 68 71
f 73 69 72
f 74 70 73
f 75 46 51
f 76 71 75
f 77 72 76
f 78 73 77
f 79 74 78
f 80 51 57
f 81 75 80
f 82 76 81
f 83 77 82
f 84 78 83
f 85 79 84
f 86 57 64
f 87 80 86
f 88 81 87
f 89 82 88
f 90 83 89
f 91 84 90
f 92 85 91
f 65 37 66
f 66 39 68
f 67 66 69
f 68 42 71
f 69 68 72
f 70 69 73
f 71 46 75
f 72 71 76
f 73 72 77
f 74 73 78
f 75 51 80
f 76 75 81
f 77 76 82
f 78 77 83
f 79 78 84
f 80 57 86
f 81 80 87
f 82 81 88
f 83 82 89
f 84 83 90
f 85 84 91
f 93 1 65
f 94 65 67
f 95 93 94
f 96 67 70
f 97 94 96
f 98 95 97
f 99 70 74
f 100 96 99
f 101 97 100
f 102 98 101
f 103 74 79
f 104 99 103
f 105 100 104
f 106 101 105
f 107 102 106
f 108 79 85
f 109 103 108
f 110 104 109
f 111 105 110
f 112 106 111
f 113 107 112
f 114 85 92
f 115 108 114
f 116 109 115
f 117 110 116
f 118 111 117
f 119 112 118
f 120 113 119
f 93 65 94
f 94 67 96
f 95 94 97
f 96 70 99
f 97 96 100
f 98 97 101
f 99 74 103
f 100 99 104
f 101 100 105
f 102 101 106
f 103 79 108
f 104 103 109
f 105 104 110
f 106 105 111
f 107 106 112
f 108 85 114
f 109 108 115
f 110 109 116
f 111 110 117
f 112 111 118
f 113 112 119
f 2 1 93
f 121 93 95
f 4 2 121
f 122 95 98
f 123 121 122
f 7 4 123
f 124 98 102
f 125 122 124
f 126 123 125
f 11 7 126
f 127 102 107
f 128 124 127
f 129 125 128
f 130 126 129
f 16 11 130
f 131 107 113
f 132 127 131
f 133 128 132
f 134 129 133
f 135 130 134
f 22 16 135
f 136 113 120
f 137 131 136
f 138 132 137
f 139 133 138
f 140 134 139
f 141 135 140
f 29 22 141
f 2 93 121
f 121 95 122
f 4 121 123
f 122 98 124
f 123 122 125
f 7 123 126
f 124 102 127
f 125 124 128
f 126 125 129
f 11 126 130
f 127 107 131
f 128 127 132
f 129 128 133
f 130 129 134
f 16 130 135
f 131 113 136
f 132 131 137
f 133 132 138
f 134 133 139
f 135 134 140
f 22 135 141
f 142 29 141
f 143 141 140
f 144 142 143
f 145 140 139
f 146 143 145
f 147 144 146
f 148 139 138
f 149 145 148
f 150 146 149
f 151 147 150
f 152 138 137
f 153 148 152
f 154 149 153
f 155 150 154
f 156 151 155
f 157 137 136
f 158 152 157
f 159 153 158
f 160 154 159
f 161 155 160
f 162 156 161
f 163 136 120
f 164 157 163
f 165 158 164
f 166 159 165
f 167 160 166
f 168 161 167
f 169 162 168
f 142 141 143
f 143 140 145
f 144 143 146
f 145 139 148
f 146 145 149
f 147 146 150
f 148 138 152
f 149 148 153
f 150 149 154
f 151 150 155
f 152 137 157
f 153 152 158
f 154 153 159
f 155 154 160
f 156 155 161
f 157 136 163
f 158 157 164
f 159 158 165
f 160 159 166
f 161 160 167
f 162 161 168
f 170 120 119
f 171 119 118
f 172 170 171
f 173 118 117
f 174 171 173
f 175 172 174
f 176 117 116
f 177 173 176
f 178 174 177
f 179 175 178
f 180 116 115
f 181 176 180
f 182 177 181
f 183 178 182
f 184 179 183
f 185 115 114
f 186 180 185
f 187 181 186
f 188 182 187
f 189 183 188
f 190 184 189
f 191 114 92
f 192 185 191
f 193 186 192
f 194 187 193
f 195 188 194
f 196 189 195
f 197 190 196
f 170 119 171
f 171 118 173
f 172 171 174
f 173 117 176
f 174 173 177
f 175 174 178
f 176 116 180
f 177 176 181
f 178 177 182
f 179 178 183
f 180 115 185
f 181 180 186
f 182 181 187
f 183 182 188
f 184 183 189
f 185 114 191
f 186 185 192
f 187 186 193
f 188 187 194
f 189 188 195
f 190 189 196
f 198 92 91
f 199 91 90
f 200 198 199
f 201 90 89
f 202 199 201
f 203 200 202
f 204 89 88
f 205 201 204
f 206 202 205
f 207 203 206
f 208 88 87
f 209 204 208
f 210 205 209
f 211 206 210
f 212 207 211
f 213 87 86
f 214 208 213
f 215 209 214
f 216 210 215
f 217 211 216
f 218 212 217
f 219 86 64
f 220 213 219
f 221 214 220
f 222 215 221
f 223 216 222
f 224 217 223
f 225 218 224
f 198 91 199
f 199 90 201
f 200 199 202
f 201 89 204
f 202 201 205
f 203 202 206
f 204 88 208
f 205 204 209
f 206 205 210
f 207 206 211
f 208 87 213
f 209 208 214
f 210 209 215
f 211 210 216
f 212 211 217
f 213 86 219
f 214 213 220
f 215 214 221
f 216 215 222
f 217 216 223
f 218 217 224
f 226 64 63
f 227 63 62
f 228 226 227
f 229 62 61
f 230 227 229
f 231 228 230
f 232 61 60
f 233 229 232
f 234 230 233
f 235 231 234
f 236 60 59
f 237 232 236
f 238 233 237
f 239 234 238
f 240 235 239
f 241 59 58
f 242 236 241
f 243 237 242
f 244 238 243
f 245 239 244
f 246 240 245
f 247 58 36
f 248 241 247
f 249 242 248
f 250 243 249
f 251 244 250
f 252 245 251
f 253 246 252
f 226 63 227
f 227 62 229
f 228 227 230
f 229 61 232
f 230 229 233
f 231 230 234
f 232 60 236
f 233 232 237
f 234 233 238
f 235 234 239
f 236 59 241
f 237 236 242
f 238 237 243
f 239 238 244
f 240 239 245
f 241 58 247
f 242 241 248
f 243 242 249
f 244 243 250
f 245 244 251
f 246 245 252
f 254 36 35
f 255 35 34
f 256 254 255
f 257 34 33
f 258 255 257
f 259 256 258
f 260 33 32
f 261 257 260
f 262 258 261
f 263 259 262
f 264 32 31
f 265 260 264
f 266 261 265
f 267 262 266
f 268 263 267
f 269 31 30
f 270 264 269
f 271 265 270
f 272 266 271
f 273 267 272
f 274 268 273
f 275 30 29
f 276 269 275
f 277 270 276
f 278 271 277
f 279 272 278
f 280 273 279
f 281 274 280
f 254 35 255
f 255 34 257
f 256 255 258
f 257 33 260
f 258 257 261
f 259 258 262
f 260 32 264
f 261 260 265
f 262 261 266
f 263 262 267
f 264 31 269
f 265 264 270
f 266 265 271
f 267 266 272
f 268 267 273
f 269 30 275
f 270 269 276
f 271 270 277
f 272 271 278
f 273 272 279
f 274 273 280
f 275 29 142
f 282 142 144
f 276 275 282
f 283 144 147
f 284 282 283
f 277 276 284
f 285 147 151
f 286 283 285
f 287 284 286
f 278 277 287
f 288 151 156
f 289 285 288
f 290 286 289
f 291 287 290
f 279 278 291
f 292 156 162
f 293 288 292
f 294 289 293
f 295 290 294
f 296 291 295
f 280 279 296
f 297 162 169
f 298 292 297
f 299 293 298
f 300 294 299
f 301 295 300
f 302 296 301
f 281 280 302
f 275 142 282
f 282 144 283
f 276 282 284
f 283 147 285
f 284 283 286
f 277 284 287
f 285 151 288
f 286 285 289
f 287 286 290
f 278 287 291
f 288 156 292
f 289 288 293
f 290 289 294
f 291 290 295
f 279 291 296
f 292 162 297
f 293 292 298
f 294 293 299
f 295 294 300
f 296 295 301
f 280 296 302
f 163 120 170
f 303 170 172
f 164 163 303
f 304 172 175
f 305 303 304
f 165 164 305
f 306 175 179
f 307 304 306
f 308 305 307
f 166 165 308
f 309 179 184
f 310 306 309
f 311 307 310
f 312 308 311
f 167 166 312
f 313 184 190
f 314 309 313
f 315 310 314
f 316 311 315
f 317 312 316
f 168 167 317
f 318 190 197
f 319 313 318
f 320 314 319
f 321 315 320
f 322 316 321
f 323 317 322
f 169 168 323
f 163 170 303
f 303 172 304
f 164 303 305
f 304 175 306
f 305 304 307
f 165 305 308
f 306 179 309
f 307 306 310
f 308 307 311
f 166 308 312
f 309 184 313
f 310 309 314
f 311 310 315
f 312 311 316
f 167 312 317
f 313 190 318
f 314 313 319
f 315 314 320
f 316 315 321
f 317 316 322
f 168 317 323
f 191 92 198
f 324 198 200
f 192 191 324
f 325 200 203
f 326 324 325
f 193 192 326
f 327 203 207
f 328 325 327
f 329 326 328
f 194 193 329
f 330 207 212
f 331 327 330
f 332 328 331
f 333 329 332
f 195 194 333
f 334 212 218
f 335 330 334
f 336 331 335
f 337 332 336
f 338 333 337
f 196 195 338
f 339 218 225
f 340 334 339
f 341 335 340
f 342 336 341
f 343 337 342
f 344 338 343
f 197 196 344
f 191 198 324
f 324 200 325
f 192 324 326
f 325 203 327
f 326 325 328
f 193 326 329
f 327 207 330
f 328 327 331
f 329 328 332
f 194 329 333
f 330 212 334
f 331 330 335
f 332 331 336
f 333 332 337
f 195 333 338
f 334 218 339
f 335 334 340
f 336 335 341
f 337 336 342
f 338 337 343
f 196 338 344
f 219 64 226
f 345 226 228
f 220 219 345
f 346 228 231
f 347 345 346
f 221 220 347
f 348 231 235
f 349 346 348
f 350 347 349
f 222 221 350
f 351 235 240
f 352 348 351
f 353 349 352
f 354 350 353
f 223 222 354
f 355 240 246
f 356 351 355
f 357 352 356
f 358 353 357
f 359 354 358
f 224 223 359
f 360 246 253
f 361 355 360
f 362 356 361
f 363 357 362
f 364 358 363
f 365 359 364
f 225 224 365
f 219 226 345
f 345 228 346
f 220 345 347
f 346 231 348
f 347 346 349
f 221 347 350
f 348 235 351
f 349 348 352
f 350 349 353
f 222 350 354
f 351 240 355
f 352 351 356
f 353 352 357
f 354 353 358
f 223 354 359
f 355 246 360
f 356 355 361
f 357 356 362
f 358 357 363
f 359 358 364
f 224 359 365
f 247 36 254
f 366 254 256
f 248 247 366
f 367 256 259
f 368 366 367
f 249 248 368
f 369 259 263
f 370 367 369
f 371 368 370
f 250 249 371
f 372 263 268
f 373 369 372
f 374 370 373
f 375 371 374
f 251 250 375
f 376 268 274
f 377 372 376
f 378 373 377
f 379 374 378
f 380 375 379
f 252 251 380
f 381 274 281
f 382 376 381
f 383 377 382
f 384 378 383
f 385 379 384
f 386 380 385
f 253 252 386
f 247 254 366
f 366 256 367
f 248 366 368
f 367 259 369
f 368 367 370
f 249 368 371
f 369 263 372
f 370 369 373
f 371 370 374
f 250 371 375
f 372 268 376
f 373 372 377
f 374 373 378
f 375 374 379
f 251 375 380
f 376 274 381
f 377 376 382
f 378 377 383
f 379 378 384
f 380 379 385
f 252 380 386
f 389 387 388
f 391 388 390
f 392 389 391
f 394 390 393
f 395 391 394
f 396 392 395
f 398 393 397
f 399 394 398
f 400 395 399
f 401 396 400
f 403 397 402
f 404 398 403
f 405 399 404
f 406 400 405
f 407 401 406
f 409 402 408
f 410 403 409
f 411 404 410
f 412 405 411
f 413 406 412
f 414 407 413
f 302 408 281
f 301 409 302
f 300 410 301
f 299 411 300
f 298 412 299
f 297 413 298
f 169 414 297
f 389 388 391
f 391 390 394
f 392 391 395
f 394 393 398
f 395 394 399
f 396 395 400
f 398 397 403
f 399 398 404
f 400 399 405
f 401 400 406
f 403 402 409
f 404 403 410
f 405 404 411
f 406 405 412
f 407 406 413
f 409 408 302
f 410 409 301
f 411 410 300
f 412 411 299
f 413 412 298
f 414 413 297
f 388 387 415
f 417 415 416
f 390 388 417
f 419 416 418
f 420 417 419
f 393 390 420
f 422 418 421
f 423 419 422
f 424 420 423
f 397 393 424
f 426 421 425
f 427 422 426
f 428 423 427
f 429 424 428
f 402 397 429
f 431 425 430
f 432 426 431
f 433 427 432
f 434 428 433
f 435 429 434
f 408 402 435
f 386 430 253
f 385 431 386
f 384 432 385
f 383 433 384
f 382 434 383
f 381 435 382
f 281 408 381
f 388 415 417
f 417 416 419
f 390 417 420
f 419 418 422
f 420 419 423
f 393 420 424
f 422 421 426
f 423 422 427
f 424 423 428
f 397 424 429
f 426 425 431
f 427 426 432
f 428 427 433
f 429 428 434
f 402 429 435
f 431 430 386
f 432 431 385
f 433 432 384
f 434 433 383
f 435 434 382
f 408 435 381
f 415 387 436
f 438 436 437
f 416 415 438
f 440 437 439
f 441 438 440
f 418 416 441
f 443 439 442
f 444 440 443
f 445 441 444
f 421 418 445
f 447 442 446
f 448 443 447
f 449 444 448
f 450 445 449
f 425 421 450
f 452 446 451
f 453 447 452
f 454 448 453
f 455 449 454
f 456 450 455
f 430 425 456
f 365 451 225
f 364 452 365
f 363 453 364
f 362 454 363
f 361 455 362
f 360 456 361
f 253 430 360
f 415 436 438
f 438 437 440
f 416 438 441
f 440 439 443
f 441 440 444
f 418 441 445
f 443 442 447
f 444 443 448
f 445 444 449
f 421 445 450
f 447 446 452
f 448 447 453
f 449 448 454
f 450 449 455
f 425 450 456
f 452 451 365
f 453 452 364
f 454 453 363
f 455 454 362
f 456 455 361
f 430 456 360
f 436 387 457
f 459 457 458
f 437 436 459
f 461 458 460
f 462 459 461
f 439 437 462
f 464 460 463
f 465 461 464
f 466 462 465
f 442 439 466
f 468 463 467
f 469 464 468
f 470 465 469
f 471 466 470
f 446 442 471
f 473 467 472
f 474 468 473
f 475 469 474
f 476 470 475
f 477 471 476
f 451 446 477
f 344 472 197
f 343 473 344
f 342 474 343
f 341 475 342
f 340 476 341
f 339 477 340
f 225 451 339
f 436 457 459
f 459 458 461
f 437 459 462
f 461 460 464
f 462 461 465
f 439 462 466
f 464 463 468
f 465 464 469
f 466 465 470
f 442 466 471
f 468 467 473
f 469 468 474
f 470 469 475
f 471 470 476
f 446 471 477
f 473 472 344
f 474 473 343
f 475 474 342
f 476 475 341
f 477 476 340
f 451 477 339
f 457 387 389
f 478 389 392
f 458 457 478
f 479 392 396
f 480 478 479
f 460 458 480
f 481 396 401
f 482 479 481
f 483 480 482
f 463 460 483
f 484 401 407
f 485 481 484
f 486 482 485
f 487 483 486
f 467 463 487
f 488 407 414
f 489 484 488
f 490 485 489
f 491 486 490
f 492 487 491
f 472 467 492
f 323 414 169
f 322 488 323
f 321 489 322
f 320 490 321
f 319 491 320
f 318 492 319
f 197 472 318
f 457 389 478
f 478 392 479
f 458 478 480
f 479 396 481
f 480 479 482
f 460 480 483
f 481 401 484
f 482 481 485
f 483 482 486
f 463 483 487
f 484 407 488
f 485 484 489
f 486 485 490
f 487 486 491
f 467 487 492
f 488 414 323
f 489 488 322
f 490 489 321
f 491 490 320
f 492 491 319
f 472 492 318
