# File exported by Houdini 20.5.445 (www.sidefx.com)
# 492 points
# 2940 vertices
# 980 primitives
# Bounds: [-142.276642, -174.630142, -1095.54346] to [313.050537, 291.007263, -659.257568]
g 
v 60.2498169 17.9237328 -1092.33142
v 35.6320801 59.6319046 -1088.31592
v 76.1482544 25.9680672 -1083.76221
v 15.9269104 101.387482 -1080.81323
v 50.227417 69.8749466 -1078.94055
v 93.3309326 36.3660164 -1072.41772
v 0.191802979 141.26828 -1068.75867
v 29.5979614 111.790726 -1071.60864
v 65.7293701 80.9051895 -1067.88611
v 110.978577 48.6193733 -1060.24561
v -13.2741394 177.553268 -1050.70325
v 12.3893127 150.967438 -1059.74414
v 43.4711914 122.190071 -1061.08252
v 81.53302 92.7567902 -1056.74097
v 128.398926 62.2269974 -1048.73462
v -25.2923279 209.279709 -1026.62195
v -2.92581177 186.774643 -1041.33655
v 24.2145386 160.577652 -1048.90674
v 57.3376465 133.223633 -1050.08081
v 97.3366089 105.451973 -1046.01855
v 145.249756 76.9841232 -1038.65442
v -35.5560303 235.193527 -997.204224
v -16.6889038 218.587845 -1015.92249
v 6.80673218 196.05925 -1029.03003
v 36.067627 171.105881 -1036.60193
v 71.4761963 145.236633 -1038.43823
v 113.241882 119.10099 -1035.59937
v 160.654907 92.7003708 -1029.54346
v -43.1819153 255.04332 -964.180542
v -28.0249939 245.099869 -983.477539
v -8.5300293 228.128647 -1000.26721
v 16.8811035 206.661057 -1013.37744
v 48.743103 183.009445 -1021.89404
v 86.3910522 158.338669 -1025.20581
v 128.756226 133.725983 -1024.3656
v 173.126465 109.303917 -1019.65967
v 99.4146729 -17.3218689 -1088.86462
v 120.441528 -8.10110092 -1077.70825
v 142.304565 -48.9261627 -1082.21643
v 140.912292 4.11064911 -1064.37097
v 165.650208 -37.5519485 -1069.45789
v 185.115723 -77.4311142 -1072.55457
v 160.41571 18.4525242 -1050.92456
v 186.995422 -23.2096786 -1054.84241
v 208.499268 -64.0205002 -1058.93457
v 223.991516 -103.170212 -1059.53442
v 178.907043 34.5920334 -1038.79834
v 206.751831 -6.54534912 -1040.20703
v 229.199097 -47.3657227 -1042.95447
v 245.975342 -87.5892639 -1044.88708
v 255.405945 -124.955734 -1042.30078
v 195.667419 52.7009659 -1028.19958
v 224.788635 12.6349792 -1026.59668
v 247.818481 -27.7288361 -1026.28491
v 264.71521 -68.0092926 -1026.79456
v 274.889282 -106.652786 -1025.85559
v 276.837158 -140.466995 -1020.29346
v 208.991333 73.2259369 -1017.76831
v 239.76532 35.1524887 -1013.60278
v 263.887634 -4.40956879 -1009.49121
v 280.833984 -44.5568008 -1006.61804
v 290.629761 -83.7213211 -1004.39172
v 293.275452 -119.403122 -1000.85437
v 288.467529 -148.337875 -993.706055
v 68.6865845 -10.5190773 -1095.54346
v 112.5755 -49.108551 -1090.80969
v 78.1934204 -35.1013489 -1092.79956
v 157.118835 -81.9880829 -1081.82202
v 124.39917 -74.1817245 -1085.49072
v 85.9210205 -53.5640564 -1082.53076
v 198.222046 -110.445023 -1068.73181
v 167.767334 -106.46167 -1073.22095
v 131.590088 -91.4283676 -1072.48938
v 89.7584229 -66.1554947 -1066.3429
v 232.657166 -135.008774 -1051.27673
v 204.784058 -133.715637 -1056.10059
v 171.228516 -122.267075 -1056.84412
v 132.135254 -101.721603 -1053.59778
v 88.6126099 -73.8379288 -1046.38269
v 257.809265 -154.200363 -1028.78394
v 233.041199 -156.092789 -1033.37451
v 202.463867 -147.736069 -1035.1665
v 166.211548 -130.281723 -1033.96533
v 125.893921 -106.047256 -1030.09705
v 83.6275024 -77.536438 -1023.25146
v 272.616394 -165.138351 -1000.25598
v 251.007019 -170.922531 -1003.56567
v 223.713135 -166.495071 -1005.2688
v 190.787537 -152.469284 -1005.50867
v 153.615295 -130.934769 -1004.30664
v 114.579773 -105.19101 -1001.57495
v 76.2680664 -77.986557 -996.677246
v 31.0271301 38.0748558 -1094.4624
v 37.4344482 10.677969 -1094.49109
v 7.12301636 59.7533951 -1089.80505
v 43.9602051 -10.8591194 -1086.74414
v 12.2192383 33.2694588 -1085.51489
v -11.8896484 80.6653519 -1077.69556
v 48.4212036 -26.5514374 -1072.34741
v 16.2171021 13.4426765 -1073.52417
v -8.18328857 55.0778656 -1069.7793
v -27.4957275 99.1762543 -1059.07214
v 49.6726685 -37.6897583 -1053.78516
v 17.8343201 -1.17982101 -1056.49438
v -6.64193726 36.2480659 -1055.24854
v -25.4746399 74.9949493 -1049.21655
v -41.5712585 114.790222 -1036.09351
v 47.9699707 -45.3588791 -1031.97644
v 17.1318665 -12.1154366 -1035.9541
v -7.43157959 22.1627693 -1036.30212
v -26.2038269 57.286911 -1033.12866
v -41.2390747 92.6785126 -1025.1886
v -55.1879272 126.796867 -1010.39331
v 44.7838135 -50.1858826 -1005.67407
v 15.8447876 -20.45327 -1010.49097
v -8.52566528 10.9713612 -1011.9458
v -27.692627 43.4675674 -1010.62097
v -42.6219177 75.8001404 -1005.95667
v -55.4613953 106.351967 -996.526001
v -67.6799011 133.86319 -981.629639
v 7.86590576 84.1482773 -1087.56641
v -12.9134827 106.862869 -1078.677
v -8.99816895 127.107719 -1075.19678
v -29.1385498 125.730202 -1061.95593
v -27.4523621 147.99585 -1060.58447
v -22.2391968 165.426529 -1056.73303
v -43.2039185 140.376099 -1039.08289
v -42.5677185 163.3871 -1038.52881
v -39.4183655 183.092972 -1035.98083
v -33.7111511 198.686264 -1032.06714
v -56.9530334 150.814636 -1012.01587
v -56.6573792 173.316269 -1010.78125
v -54.3354187 194.037643 -1008.1106
v -50.0170593 211.983597 -1005.01331
v -43.8639526 226.093002 -1001.36707
v -70.9045715 156.38382 -981.396606
v -71.4190674 177.998032 -978.44519
v -69.3363647 198.728806 -974.260132
v -65.1539001 218.007645 -970.546997
v -59.3528748 234.744186 -967.651855
v -52.0879822 247.507126 -965.546753
v -53.9014587 265.301941 -930.057251
v -64.1262207 253.075607 -929.744385
v -62.661438 268.450073 -895.938477
v -72.4918213 236.101395 -931.345093
v -74.4303894 251.283127 -896.019165
v -71.9993286 266.997375 -863.849854
v -79.1085205 216.494766 -934.795532
v -84.1087952 230.799789 -898.418701
v -85.5621948 245.99263 -865.282104
v -84.2146912 263.444275 -834.841309
v -83.5030518 195.487778 -939.968506
v -91.6167297 209.012619 -902.946777
v -96.6591492 223.099228 -868.678833
v -99.3921814 239.954422 -837.439819
v -100.005127 259.057251 -808.898926
v -84.8158264 173.486191 -945.730103
v -96.0535583 186.511703 -909.065552
v -104.840393 199.562698 -873.69458
v -111.46286 215.262466 -841.093872
v -115.987244 233.966568 -811.690186
v -117.656189 253.56691 -785.476807
v -81.9434204 150.204315 -949.774536
v -95.5469971 163.143967 -914.546143
v -108.003204 175.616684 -878.437988
v -118.821747 190.19368 -844.100586
v -127.310547 207.78688 -813.27002
v -132.487976 227.234848 -786.501831
v -133.005249 245.829849 -763.700439
v -71.2724609 122.430626 -959.857544
v -57.4632263 93.7015381 -972.989502
v -73.1720581 111.353302 -934.13269
v -43.4466248 63.1139755 -980.443604
v -57.21875 81.7469025 -946.146362
v -73.5888977 101.216263 -904.866699
v -27.1972961 31.6318169 -983.657349
v -41.5932312 51.1041031 -952.77063
v -55.4328613 70.7647858 -916.344482
v -72.4261475 91.9324951 -873.078979
v -6.74468994 0.203426361 -983.864258
v -23.8147583 20.1038723 -955.286011
v -38.0443115 39.8748093 -922.556152
v -52.4526978 60.4321213 -883.994263
v -69.2238159 82.7891464 -840.159424
v 18.879364 -30.4194145 -981.07666
v -1.60507202 -10.828495 -954.087158
v -18.296936 8.84248734 -923.926025
v -33.0151672 28.925602 -889.11731
v -47.7487793 50.0007248 -849.543213
v -63.1293335 72.8301926 -807.585693
v 49.5560913 -60.1295929 -973.977539
v 26.301239 -41.7237625 -948.403809
v 6.69827271 -22.5304871 -919.786621
v -10.1438293 -2.79796982 -887.586304
v -25.4570312 17.4545765 -851.597778
v -39.7727051 38.7751541 -813.452881
v -53.0376892 61.4693222 -776.490479
v 89.5092163 -92.2519836 -969.867676
v 130.050293 -120.995407 -971.314575
v 99.7506104 -102.757294 -938.558838
v 168.72168 -146.097427 -971.359131
v 139.88562 -130.876663 -937.882935
v 107.094788 -109.124634 -903.799316
v 204.038696 -164.799698 -971.036255
v 176.80072 -153.211105 -936.891357
v 145.861084 -134.836258 -902.62793
v 113.299133 -111.467758 -867.373779
v 235.008789 -174.630142 -970.600708
v 210.447754 -167.646317 -936.453857
v 181.441467 -153.170547 -901.921753
v 151.054626 -133.541061 -867.052856
v 120.975098 -110.371475 -831.818115
v 261.437012 -174.36882 -970.141479
v 241.045227 -172.777481 -936.942749
v 215.027527 -162.981949 -902.387451
v 186.74939 -147.415817 -867.489868
v 158.823975 -128.107376 -832.940674
v 132.577026 -106.468399 -799.520142
v 282.699707 -161.638962 -967.517334
v 268.02301 -166.175949 -936.956543
v 246.688782 -162.318527 -903.338135
v 221.632446 -151.689377 -868.363037
v 195.83844 -136.613922 -833.83667
v 171.290955 -118.929184 -801.175781
v 148.419189 -99.7420197 -771.609375
v 298.619812 -133.552719 -970.077026
v 304.196228 -98.5175781 -977.093872
v 304.85144 -112.9646 -945.997559
v 301.63208 -58.9426422 -982.258911
v 310.43335 -73.3633347 -955.251587
v 308.564331 -88.6629486 -923.124756
v 291.078552 -17.6258163 -987.866089
v 306.826904 -31.0775337 -963.851562
v 313.050537 -45.8512192 -936.012573
v 310.117065 -61.9056854 -902.227905
v 271.899658 23.9126778 -994.768799
v 293.772705 12.1179924 -973.204468
v 306.834534 -1.36857224 -948.232788
v 311.766846 -16.7503624 -918.627808
v 308.604248 -33.3540497 -883.045288
v 243.355591 64.8171921 -1002.05896
v 270.013428 55.527565 -982.950928
v 289.137085 44.004055 -960.158813
v 300.808533 29.8534317 -933.11145
v 305.190857 13.5797653 -901.280151
v 302.186157 -3.53551102 -864.512817
v 205.457886 104.541603 -1007.05115
v 234.083679 98.678154 -990.679199
v 257.747925 90.0717545 -970.011475
v 275.4375 77.8835068 -944.759155
v 286.618408 62.3913879 -915.036499
v 291.102295 44.8321762 -881.453857
v 288.81427 26.9538155 -845.271851
v 155.062134 140.41394 -1010.29578
v 107.562439 166.685562 -1010.72473
v 135.747742 168.596634 -994.634521
v 65.2980957 191.726364 -1006.09229
v 87.4802856 194.853134 -990.220703
v 117.323303 192.584122 -972.109741
v 29.315979 215.432907 -996.253174
v 46.956604 218.883835 -980.240479
v 70.6933594 217.888962 -963.304443
v 101.172424 212.159225 -943.513794
v 0.296020508 236.944473 -981.593506
v 13.8511047 240.715347 -964.601807
v 33.0205688 240.226822 -948.121948
v 57.3062744 236.297043 -930.655273
v 86.2493896 227.756607 -910.339355
v -22.0712891 254.828171 -963.413696
v -11.9260254 259.729553 -944.799927
v 3.05743408 260.116821 -927.440308
v 22.2799988 257.085693 -910.591919
v 44.8724365 250.730515 -893.13208
v 70.0299072 239.899857 -873.848145
v -39.3765564 266.47406 -942.747314
v -32.0807495 273.570984 -922.041626
v -20.9993896 276.279602 -902.586792
v -6.47808838 275.025513 -884.806274
v 10.5549927 270.259583 -868.216553
v 29.5409241 261.815735 -852.191406
v 50.1513062 249.182999 -836.096436
v -48.536377 276.95282 -904.372681
v -56.6350708 280.670105 -868.391968
v -40.3609924 283.779114 -881.099243
v -67.2085876 280.622864 -836.090454
v -49.3687439 288.038574 -844.427612
v -29.8148499 286.130737 -860.427856
v -82.0766907 278.400269 -807.498901
v -62.3212585 288.830078 -812.208008
v -40.9078674 290.54895 -823.533325
v -17.2050781 284.146118 -842.169434
v -100.690857 274.053955 -781.887573
v -80.0551453 286.671082 -783.504639
v -56.7008667 291.007263 -790.827393
v -30.9671326 287.549866 -804.697876
v -2.53225708 277.405823 -825.471802
v -119.718719 266.146057 -758.147461
v -100.572906 280.164917 -756.817017
v -76.6315918 286.564087 -760.521606
v -48.7782288 285.302856 -770.401245
v -17.8624878 277.555664 -787.018799
v 15.3677368 265.06958 -809.625977
v -87.0744324 138.400879 -922.848145
v -90.4552612 128.479553 -892.943726
v -102.696289 152.063629 -884.296387
v -91.8051147 120.229118 -860.754639
v -107.314178 144.105377 -852.084351
v -117.42807 166.572495 -846.718872
v -90.3023376 112.543472 -827.263062
v -108.679749 137.923157 -818.510742
v -122.778778 160.999222 -813.644775
v -130.123505 183.749344 -812.201904
v -84.8394165 103.753792 -793.739136
v -105.300964 131.345795 -784.338135
v -122.838074 156.476227 -779.583374
v -135.059601 180.240921 -779.119507
v -139.105194 203.650192 -781.90332
v -73.9397888 92.1151581 -761.412109
v -95.1201782 121.732323 -750.656128
v -115.224762 149.821808 -745.236572
v -131.651611 176.294632 -745.104614
v -141.491913 201.221848 -749.24231
v -142.276642 224.559311 -755.925537
v 60.678894 -72.5354919 -942.533447
v 69.5628662 -80.7421112 -907.417969
v 36.5439453 -52.7839508 -913.201172
v 77.0502319 -85.4314499 -869.695068
v 45.2467651 -59.4988785 -875.091064
v 16.382019 -32.5361252 -881.355957
v 85.3264771 -87.3178024 -831.228638
v 53.9251709 -63.2736588 -835.031982
v 25.2622681 -38.30616 -840.499023
v -1.12850952 -11.7294579 -846.150024
v 97.6311646 -86.7255096 -794.771606
v 65.624939 -64.8168564 -795.08374
v 35.9511719 -41.2520294 -798.317749
v 8.33108521 -16.2856789 -802.79126
v -16.9587708 10.2082767 -807.969238
v 115.504639 -83.3562012 -762.218628
v 83.2744751 -63.8062134 -757.664795
v 51.9210815 -41.5328674 -756.903809
v 21.833374 -17.2398376 -758.802124
v -6.04153442 8.41368675 -762.930298
v -31.1142578 34.7251892 -769.027466
v 290.103394 -145.58577 -939.628052
v 294.443359 -124.396927 -912.447632
v 273.814758 -149.02684 -906.247314
v 297.548706 -99.9595337 -887.097168
v 277.972046 -127.55658 -877.066284
v 252.725159 -144.875046 -870.928711
v 299.28656 -72.7001343 -863.904907
v 281.735229 -102.860611 -849.883179
v 258.071655 -123.474701 -840.406738
v 229.212524 -134.41124 -834.859009
v 297.669495 -42.3146973 -842.394043
v 283.874695 -74.2652283 -824.561523
v 262.767517 -97.9897537 -811.523682
v 235.983337 -112.750443 -803.157227
v 204.983337 -119.381805 -799.502563
v 289.21936 -8.41213226 -821.383789
v 280.605103 -40.2579117 -800.293335
v 263.815491 -66.3442383 -783.67627
v 240.175476 -85.0648193 -772.316162
v 211.604614 -96.4331055 -766.501709
v 180.256836 -101.043091 -766.221802
v 187.076111 136.993622 -995.019531
v 167.74115 164.030167 -975.995972
v 214.917908 131.119385 -975.458252
v 149.339722 185.659134 -950.043701
v 195.212646 156.328613 -952.705444
v 237.893738 121.305275 -951.102783
v 131.509888 202.599075 -918.222046
v 175.89032 175.386002 -922.923218
v 217.721985 144.216003 -924.301758
v 255.41095 107.050514 -921.684937
v 111.841248 216.264114 -882.133667
v 154.646729 189.98732 -887.232178
v 196.223633 160.778336 -890.043945
v 234.189697 127.408745 -890.178955
v 266.516174 88.8029861 -887.193237
v 87.288208 227.459396 -842.455811
v 127.691711 202.196671 -847.013794
v 169.011047 173.491043 -849.313599
v 208.339478 141.671722 -850.341553
v 242.637634 106.412857 -849.933716
v 269.931702 67.8019562 -848.048218
v 34.9093628 108.301216 -665.843872
v 29.2476807 140.511444 -677.467896
v -10.9338989 143.457733 -665.616211
v 27.2410583 170.048813 -695.224121
v -19.23703 178.331406 -679.021729
v -52.4597168 177.302689 -670.290527
v 29.4595337 195.386398 -717.945679
v -20.5818787 207.373062 -697.859375
v -59.2910767 211.623795 -685.35022
v -87.3469543 206.991501 -680.28125
v 34.9511108 216.002579 -743.909668
v -15.3534851 230.224106 -720.614014
v -56.7435913 237.993393 -705.001465
v -89.6622925 238.435867 -696.605225
v -113.387085 229.580338 -695.597778
v 41.7727661 231.750778 -772.445923
v -5.69869995 247.258224 -746.375488
v -46.8727112 257.278992 -727.999146
v -81.7216492 261.006836 -716.987549
v -109.683472 256.909912 -712.881714
v -129.407043 243.237747 -715.507324
v 47.5418091 242.728592 -803.364502
v 5.61907959 258.770203 -775.777588
v -32.8021545 270.328857 -754.694336
v -66.9970398 276.297852 -740.981689
v -96.2039795 275.262512 -734.274292
v -119.510162 265.981873 -733.692871
v -135.623169 248.016312 -738.620361
v 79.6757202 94.1181107 -676.3396
v 126.183716 81.047966 -692.436646
v 78.8848267 126.996712 -693.492065
v 171.215942 68.8070908 -714.330811
v 127.900635 114.283646 -715.219971
v 80.3001709 155.71759 -716.855469
v 211.707703 57.084137 -741.97168
v 173.544312 102.081985 -742.139526
v 130.175415 142.467804 -743.454102
v 83.4630127 180.044571 -744.252563
v 245.447571 45.6313934 -774.187988
v 213.632446 90.0842056 -773.729248
v 174.958557 129.940125 -774.326782
v 132.059387 166.321579 -774.908813
v 86.9493408 200.115494 -774.375
v 271.007935 35.5513458 -809.467285
v 246.00885 78.5984726 -809.451782
v 213.034424 117.849823 -809.689575
v 174.145264 153.579163 -809.83252
v 131.915649 186.257523 -809.319214
v 88.8968506 215.979416 -807.128906
v 67.6865234 66.9958344 -664.694336
v 96.9234619 28.4444618 -668.675903
v 116.611328 50.2958336 -676.701172
v 120.038208 -5.8172493 -678.296143
v 146.416138 11.0278149 -682.741821
v 163.345215 36.1956558 -694.391846
v 135.519958 -35.2677765 -693.755737
v 166.989746 -23.3586807 -694.555664
v 190.251343 -3.39455414 -702.67334
v 205.20282 23.5742073 -718.099609
v 143.469116 -60.1876221 -714.697144
v 177.872986 -53.1250992 -712.153931
v 206.076294 -38.250061 -717.081421
v 227.191345 -16.4203339 -728.892944
v 240.625244 11.6581383 -747.823242
v 146.408203 -81.3230286 -740.838501
v 180.884399 -78.7196655 -735.869141
v 212.012695 -69.0331726 -737.930298
v 237.970947 -52.3195114 -746.509277
v 257.313599 -29.0042572 -761.473999
v 268.747009 0.575416565 -782.686157
v 14.2056274 97.9063797 -659.257568
v -3.81826782 89.7171173 -659.342529
v 45.5429077 54.8255081 -660.751343
v -19.797699 83.8106308 -666.750977
v 25.4040527 47.2902184 -664.769653
v 71.1516113 17.5905228 -668.591553
v -33.6272583 79.0539322 -682.361694
v 6.85882568 43.4165878 -677.04834
v 47.7058105 12.3799019 -677.458862
v 90.2299194 -13.7661018 -682.826172
v -44.4537964 74.0543823 -706.530396
v -9.62451172 41.2201347 -698.358643
v 26.3805542 10.7264099 -695.467773
v 63.8179321 -16.4556465 -697.188721
v 102.813599 -40.0958481 -703.265503
v -51.0947571 68.2092209 -738.419556
v -22.79245 38.6329117 -729.188965
v 7.90789795 10.1144753 -723.620117
v 40.6456299 -16.7329025 -721.921509
v 74.9072876 -41.1703949 -723.83728
v 110.132263 -62.8180237 -729.66748
v -32.1855164 134.986359 -661.357666
v -72.1254883 168.465256 -669.553467
v -48.3981628 127.448021 -664.779419
v -104.310547 195.536179 -683.73584
v -85.2831726 158.834457 -677.050659
v -60.9005737 120.041985 -676.058838
v -127.216614 214.016373 -703.468018
v -113.857666 181.932968 -695.542358
v -93.612915 147.841736 -692.44458
v -69.8211365 111.883705 -695.619629
v -139.957184 223.351761 -727.790894
v -132.960876 196.005325 -719.547974
v -117.617981 166.692856 -715.147583
v -97.14328 135.580658 -716.184814
v -74.4035034 102.69413 -723.840576
g 
f 3 1 2
f 5 2 4
f 6 3 5
f 8 4 7
f 9 5 8
f 10 6 9
f 12 7 11
f 13 8 12
f 14 9 13
f 15 10 14
f 17 11 16
f 18 12 17
f 19 13 18
f 20 14 19
f 21 15 20
f 23 16 22
f 24 17 23
f 25 18 24
f 26 19 25
f 27 20 26
f 28 21 27
f 30 22 29
f 31 23 30
f 32 24 31
f 33 25 32
f 34 26 33
f 35 27 34
f 36 28 35
f 3 2 5
f 5 4 8
f 6 5 9
f 8 7 12
f 9 8 13
f 10 9 14
f 12 11 17
f 13 12 18
f 14 13 19
f 15 14 20
f 17 16 23
f 18 17 24
f 19 18 25
f 20 19 26
f 21 20 27
f 23 22 30
f 24 23 31
f 25 24 32
f 26 25 33
f 27 26 34
f 28 27 35
f 37 1 3
f 38 3 6
f 39 37 38
f 40 6 10
f 41 38 40
f 42 39 41
f 43 10 15
f 44 40 43
f 45 41 44
f 46 42 45
f 47 15 21
f 48 43 47
f 49 44 48
f 50 45 49
f 51 46 50
f 52 21 28
f 53 47 52
f 54 48 53
f 55 49 54
f 56 50 55
f 57 51 56
f 58 28 36
f 59 52 58
f 60 53 59
f 61 54 60
f 62 55 61
f 63 56 62
f 64 57 63
f 37 3 38
f 38 6 40
f 39 38 41
f 40 10 43
f 41 40 44
f 42 41 45
f 43 15 47
f 44 43 48
f 45 44 49
f 46 45 50
f 47 21 52
f 48 47 53
f 49 48 54
f 50 49 55
f 51 50 56
f 52 28 58
f 53 52 59
f 54 53 60
f 55 54 61
f 56 55 62
f 57 56 63
f 65 1 37
f 66 37 39
f 67 65 66
f 68 39 42
f 69 66 68
f 70 67 69
f 71 42 46
f 72 68 71
f 73 69 72
f 74 70 73
f 75 46 51
f 76 71 75
f 77 72 76
f 78 73 77
f 79 74 78
f 80 51 57
f 81 75 80
f 82 76 81
f 83 77 82
f 84 78 83
f 85 79 84
f 86 57 64
f 87 80 86
f 88 81 87
f 89 82 88
f 90 83 89
f 91 84 90
f 92 85 91
f 65 37 66
f 66 39 68
f 67 66 69
f 68 42 71
f 69 68 72
f 70 69 73
f 71 46 75
f 72 71 76
f 73 72 77
f 74 73 78
f 75 51 80
f 76 75 81
f 77 76 82
f 78 77 83
f 79 78 84
f 80 57 86
f 81 80 87
f 82 81 88
f 83 82 89
f 84 83 90
f 85 84 91
f 93 1 65
f 94 65 67
f 95 93 94
f 96 67 70
f 97 94 96
f 98 95 97
f 99 70 74
f 100 96 99
f 101 97 100
f 102 98 101
f 103 74 79
f 104 99 103
f 105 100 104
f 106 101 105
f 107 102 106
f 108 79 85
f 109 103 108
f 110 104 109
f 111 105 110
f 112 106 111
f 113 107 112
f 114 85 92
f 115 108 114
f 116 109 115
f 117 110 116
f 118 111 117
f 119 112 118
f 120 113 119
f 93 65 94
f 94 67 96
f 95 94 97
f 96 70 99
f 97 96 100
f 98 97 101
f 99 74 103
f 100 99 104
f 101 100 105
f 102 101 106
f 103 79 108
f 104 103 109
f 105 104 110
f 106 105 111
f 107 106 112
f 108 85 114
f 109 108 115
f 110 109 116
f 111 110 117
f 112 111 118
f 113 112 119
f 2 1 93
f 121 93 95
f 4 2 121
f 122 95 98
f 123 121 122
f 7 4 123
f 124 98 102
f 125 122 124
f 126 123 125
f 11 7 126
f 127 102 107
f 128 124 127
f 129 125 128
f 130 126 129
f 16 11 130
f 131 107 113
f 132 127 131
f 133 128 132
f 134 129 133
f 135 130 134
f 22 16 135
f 136 113 120
f 137 131 136
f 138 132 137
f 139 133 138
f 140 134 139
f 141 135 140
f 29 22 141
f 2 93 121
f 121 95 122
f 4 121 123
f 122 98 124
f 123 122 125
f 7 123 126
f 124 102 127
f 125 124 128
f 126 125 129
f 11 126 130
f 127 107 131
f 128 127 132
f 129 128 133
f 130 129 134
f 16 130 135
f 131 113 136
f 132 131 137
f 133 132 138
f 134 133 139
f 135 134 140
f 22 135 141
f 142 29 141
f 143 141 140
f 144 142 143
f 145 140 139
f 146 143 145
f 147 144 146
f 148 139 138
f 149 145 148
f 150 146 149
f 151 147 150
f 152 138 137
f 153 148 152
f 154 149 153
f 155 150 154
f 156 151 155
f 157 137 136
f 158 152 157
f 159 153 158
f 160 154 159
f 161 155 160
f 162 156 161
f 163 136 120
f 164 157 163
f 165 158 164
f 166 159 165
f 167 160 166
f 168 161 167
f 169 162 168
f 142 141 143
f 143 140 145
f 144 143 146
f 145 139 148
f 146 145 149
f 147 146 150
f 148 138 152
f 149 148 153
f 150 149 154
f 151 150 155
f 152 137 157
f 153 152 158
f 154 153 159
f 155 154 160
f 156 155 161
f 157 136 163
f 158 157 164
f 159 158 165
f 160 159 166
f 161 160 167
f 162 161 168
f 170 120 119
f 171 119 118
f 172 170 171
f 173 118 117
f 174 171 173
f 175 172 174
f 176 117 116
f 177 173 176
f 178 174 177
f 179 175 178
f 180 116 115
f 181 176 180
f 182 177 181
f 183 178 182
f 184 179 183
f 185 115 114
f 186 180 185
f 187 181 186
f 188 182 187
f 189 183 188
f 190 184 189
f 191 114 92
f 192 185 191
f 193 186 192
f 194 187 193
f 195 188 194
f 196 189 195
f 197 190 196
f 170 119 171
f 171 118 173
f 172 171 174
f 173 117 176
f 174 173 177
f 175 174 178
f 176 116 180
f 177 176 181
f 178 177 182
f 179 178 183
f 180 115 185
f 181 180 186
f 182 181 187
f 183 182 188
f 184 183 189
f 185 114 191
f 186 185 192
f 187 186 193
f 188 187 194
f 189 188 195
f 190 189 196
f 198 92 91
f 199 91 90
f 200 198 199
f 201 90 89
f 202 199 201
f 203 200 202
f 204 89 88
f 205 201 204
f 206 202 205
f 207 203 206
f 208 88 87
f 209 204 208
f 210 205 209
f 211 206 210
f 212 207 211
f 213 87 86
f 214 208 213
f 215 209 214
f 216 210 215
f 217 211 216
f 218 212 217
f 219 86 64
f 220 213 219
f 221 214 220
f 222 215 221
f 223 216 222
f 224 217 223
f 225 218 224
f 198 91 199
f 199 90 201
f 200 199 202
f 201 89 204
f 202 201 205
f 203 202 206
f 204 88 208
f 205 204 209
f 206 205 210
f 207 206 211
f 208 87 213
f 209 208 214
f 210 209 215
f 211 210 216
f 212 211 217
f 213 86 219
f 214 213 220
f 215 214 221
f 216 215 222
f 217 216 223
f 218 217 224
f 226 64 63
f 227 63 62
f 228 226 227
f 229 62 61
f 230 227 229
f 231 228 230
f 232 61 60
f 233 229 232
f 234 230 233
f 235 231 234
f 236 60 59
f 237 232 236
f 238 233 237
f 239 234 238
f 240 235 239
f 241 59 58
f 242 236 241
f 243 237 242
f 244 238 243
f 245 239 244
f 246 240 245
f 247 58 36
f 248 241 247
f 249 242 248
f 250 243 249
f 251 244 250
f 252 245 251
f 253 246 252
f 226 63 227
f 227 62 229
f 228 227 230
f 229 61 232
f 230 229 233
f 231 230 234
f 232 60 236
f 233 232 237
f 234 233 238
f 235 234 239
f 236 59 241
f 237 236 242
f 238 237 243
f 239 238 244
f 240 239 245
f 241 58 247
f 242 241 248
f 243 242 249
f 244 243 250
f 245 244 251
f 246 245 252
f 254 36 35
f 255 35 34
f 256 254 255
f 257 34 33
f 258 255 257
f 259 256 258
f 260 33 32
f 261 257 260
f 262 258 261
f 263 259 262
f 264 32 31
f 265 260 264
f 266 261 265
f 267 262 266
f 268 263 267
f 269 31 30
f 270 264 269
f 271 265 270
f 272 266 271
f 273 267 272
f 274 268 273
f 275 30 29
f 276 269 275
f 277 270 276
f 278 271 277
f 279 272 278
f 280 273 279
f 281 274 280
f 254 35 255
f 255 34 257
f 256 255 258
f 257 33 260
f 258 257 261
f 259 258 262
f 260 32 264
f 261 260 265
f 262 261 266
f 263 262 267
f 264 31 269
f 265 264 270
f 266 265 271
f 267 266 272
f 268 267 273
f 269 30 275
f 270 269 276
f 271 270 277
f 272 271 278
f 273 272 279
f 274 273 280
f 275 29 142
f 282 142 144
f 276 275 282
f 283 144 147
f 284 282 283
f 277 276 284
f 285 147 151
f 286 283 285
f 287 284 286
f 278 277 287
f 288 151 156
f 289 285 288
f 290 286 289
f 291 287 290
f 279 278 291
f 292 156 162
f 293 288 292
f 294 289 293
f 295 290 294
f 296 291 295
f 280 279 296
f 297 162 169
f 298 292 297
f 299 293 298
f 300 294 299
f 301 295 300
f 302 296 301
f 281 280 302
f 275 142 282
f 282 144 283
f 276 282 284
f 283 147 285
f 284 283 286
f 277 284 287
f 285 151 288
f 286 285 289
f 287 286 290
f 278 287 291
f 288 156 292
f 289 288 293
f 290 289 294
f 291 290 295
f 279 291 296
f 292 162 297
f 293 292 298
f 294 293 299
f 295 294 300
f 296 295 301
f 280 296 302
f 163 120 170
f 303 170 172
f 164 163 303
f 304 172 175
f 305 303 304
f 165 164 305
f 306 175 179
f 307 304 306
f 308 305 307
f 166 165 308
f 309 179 184
f 310 306 309
f 311 307 310
f 312 308 311
f 167 166 312
f 313 184 190
f 314 309 313
f 315 310 314
f 316 311 315
f 317 312 316
f 168 167 317
f 318 190 197
f 319 313 318
f 320 314 319
f 321 315 320
f 322 316 321
f 323 317 322
f 169 168 323
f 163 170 303
f 303 172 304
f 164 303 305
f 304 175 306
f 305 304 307
f 165 305 308
f 306 179 309
f 307 306 310
f 308 307 311
f 166 308 312
f 309 184 313
f 310 309 314
f 311 310 315
f 312 311 316
f 167 312 317
f 313 190 318
f 314 313 319
f 315 314 320
f 316 315 321
f 317 316 322
f 168 317 323
f 191 92 198
f 324 198 200
f 192 191 324
f 325 200 203
f 326 324 325
f 193 192 326
f 327 203 207
f 328 325 327
f 329 326 328
f 194 193 329
f 330 207 212
f 331 327 330
f 332 328 331
f 333 329 332
f 195 194 333
f 334 212 218
f 335 330 334
f 336 331 335
f 337 332 336
f 338 333 337
f 196 195 338
f 339 218 225
f 340 334 339
f 341 335 340
f 342 336 341
f 343 337 342
f 344 338 343
f 197 196 344
f 191 198 324
f 324 200 325
f 192 324 326
f 325 203 327
f 326 325 328
f 193 326 329
f 327 207 330
f 328 327 331
f 329 328 332
f 194 329 333
f 330 212 334
f 331 330 335
f 332 331 336
f 333 332 337
f 195 333 338
f 334 218 339
f 335 334 340
f 336 335 341
f 337 336 342
f 338 337 343
f 196 338 344
f 219 64 226
f 345 226 228
f 220 219 345
f 346 228 231
f 347 345 346
f 221 220 347
f 348 231 235
f 349 346 348
f 350 347 349
f 222 221 350
f 351 235 240
f 352 348 351
f 353 349 352
f 354 350 353
f 223 222 354
f 355 240 246
f 356 351 355
f 357 352 356
f 358 353 357
f 359 354 358
f 224 223 359
f 360 246 253
f 361 355 360
f 362 356 361
f 363 357 362
f 364 358 363
f 365 359 364
f 225 224 365
f 219 226 345
f 345 228 346
f 220 345 347
f 346 231 348
f 347 346 349
f 221 347 350
f 348 235 351
f 349 348 352
f 350 349 353
f 222 350 354
f 351 240 355
f 352 351 356
f 353 352 357
f 354 353 358
f 223 354 359
f 355 246 360
f 356 355 361
f 357 356 362
f 358 357 363
f 359 358 364
f 224 359 365
f 247 36 254
f 366 254 256
f 248 247 366
f 367 256 259
f 368 366 367
f 249 248 368
f 369 259 263
f 370 367 369
f 371 368 370
f 250 249 371
f 372 263 268
f 373 369 372
f 374 370 373
f 375 371 374
f 251 250 375
f 376 268 274
f 377 372 376
f 378 373 377
f 379 374 378
f 380 375 379
f 252 251 380
f 381 274 281
f 382 376 381
f 383 377 382
f 384 378 383
f 385 379 384
f 386 380 385
f 253 252 386
f 247 254 366
f 366 256 367
f 248 366 368
f 367 259 369
f 368 367 370
f 249 368 371
f 369 263 372
f 370 369 373
f 371 370 374
f 250 371 375
f 372 268 376
f 373 372 377
f 374 373 378
f 375 374 379
f 251 375 380
f 376 274 381
f 377 376 382
f 378 377 383
f 379 378 384
f 380 379 385
f 252 380 386
f 389 387 388
f 391 388 390
f 392 389 391
f 394 390 393
f 395 391 394
f 396 392 395
f 398 393 397
f 399 394 398
f 400 395 399
f 401 396 400
f 403 397 402
f 404 398 403
f 405 399 404
f 406 400 405
f 407 401 406
f 409 402 408
f 410 403 409
f 411 404 410
f 412 405 411
f 413 406 412
f 414 407 413
f 302 408 281
f 301 409 302
f 300 410 301
f 299 411 300
f 298 412 299
f 297 413 298
f 169 414 297
f 389 388 391
f 391 390 394
f 392 391 395
f 394 393 398
f 395 394 399
f 396 395 400
f 398 397 403
f 399 398 404
f 400 399 405
f 401 400 406
f 403 402 409
f 404 403 410
f 405 404 411
f 406 405 412
f 407 406 413
f 409 408 302
f 410 409 301
f 411 410 300
f 412 411 299
f 413 412 298
f 414 413 297
f 388 387 415
f 417 415 416
f 390 388 417
f 419 416 418
f 420 417 419
f 393 390 420
f 422 418 421
f 423 419 422
f 424 420 423
f 397 393 424
f 426 421 425
f 427 422 426
f 428 423 427
f 429 424 428
f 402 397 429
f 431 425 430
f 432 426 431
f 433 427 432
f 434 428 433
f 435 429 434
f 408 402 435
f 386 430 253
f 385 431 386
f 384 432 385
f 383 433 384
f 382 434 383
f 381 435 382
f 281 408 381
f 388 415 417
f 417 416 419
f 390 417 420
f 419 418 422
f 420 419 423
f 393 420 424
f 422 421 426
f 423 422 427
f 424 423 428
f 397 424 429
f 426 425 431
f 427 426 432
f 428 427 433
f 429 428 434
f 402 429 435
f 431 430 386
f 432 431 385
f 433 432 384
f 434 433 383
f 435 434 382
f 408 435 381
f 415 387 436
f 438 436 437
f 416 415 438
f 440 437 439
f 441 438 440
f 418 416 441
f 443 439 442
f 444 440 443
f 445 441 444
f 421 418 445
f 447 442 446
f 448 443 447
f 449 444 448
f 450 445 449
f 425 421 450
f 452 446 451
f 453 447 452
f 454 448 453
f 455 449 454
f 456 450 455
f 430 425 456
f 365 451 225
f 364 452 365
f 363 453 364
f 362 454 363
f 361 455 362
f 360 456 361
f 253 430 360
f 415 436 438
f 438 437 440
f 416 438 441
f 440 439 443
f 441 440 444
f 418 441 445
f 443 442 447
f 444 443 448
f 445 444 449
f 421 445 450
f 447 446 452
f 448 447 453
f 449 448 454
f 450 449 455
f 425 450 456
f 452 451 365
f 453 452 364
f 454 453 363
f 455 454 362
f 456 455 361
f 430 456 360
f 436 387 457
f 459 457 458
f 437 436 459
f 461 458 460
f 462 459 461
f 439 437 462
f 464 460 463
f 465 461 464
f 466 462 465
f 442 439 466
f 468 463 467
f 469 464 468
f 470 465 469
f 471 466 470
f 446 442 471
f 473 467 472
f 474 468 473
f 475 469 474
f 476 470 475
f 477 471 476
f 451 446 477
f 344 472 197
f 343 473 344
f 342 474 343
f 341 475 342
f 340 476 341
f 339 477 340
f 225 451 339
f 436 457 459
f 459 458 461
f 437 459 462
f 461 460 464
f 462 461 465
f 439 462 466
f 464 463 468
f 465 464 469
f 466 465 470
f 442 466 471
f 468 467 473
f 469 468 474
f 470 469 475
f 471 470 476
f 446 471 477
f 473 472 344
f 474 473 343
f 475 474 342
f 476 475 341
f 477 476 340
f 451 477 339
f 457 387 389
f 478 389 392
f 458 457 478
f 479 392 396
f 480 478 479
f 460 458 480
f 481 396 401
f 482 479 481
f 483 480 482
f 463 460 483
f 484 401 407
f 485 481 484
f 486 482 485
f 487 483 486
f 467 463 487
f 488 407 414
f 489 484 488
f 490 485 489
f 491 486 490
f 492 487 491
f 472 467 492
f 323 414 169
f 322 488 323
f 321 489 322
f 320 490 321
f 319 491 320
f 318 492 319
f 197 472 318
f 457 389 478
f 478 392 479
f 458 478 480
f 479 396 481
f 480 479 482
f 460 480 483
f 481 401 484
f 482 481 485
f 483 482 486
f 463 483 487
f 484 407 488
f 485 484 489
f 486 485 490
f 487 486 491
f 467 487 492
f 488 414 323
f 489 488 322
f 490 489 321
f 491 490 320
f 492 491 319
f 472 492 318
