# File exported by Houdini 20.5.445 (www.sidefx.com)
# 492 points
# 2940 vertices
# 980 primitives
# Bounds: [-87.4610596, -156.541168, -1136.44836] to [258.234955, 272.918274, -618.352661]
g 
v 154.066437 130.335327 -1052.86194
v 163.953705 148.110931 -1013.97412
v 181.925751 133.813202 -1026.07349
v 171.517853 161.796692 -973.700439
v 193.69455 149.82373 -980.4823
v 207.625519 133.7612 -991.627075
v 173.603058 173.753601 -934.858032
v 200.298248 162.302521 -937.284058
v 217.991913 149.116699 -942.282349
v 229.185333 130.879486 -952.915894
v 168.521393 186.210938 -899.033691
v 199.553925 174.350494 -897.998657
v 221.13559 162.119324 -898.486084
v 235.849091 147.303253 -902.700073
v 245.091522 126.519585 -913.654053
v 156.425751 200.515991 -866.481445
v 190.857697 188.00589 -862.55481
v 216.161102 175.730743 -859.652222
v 234.318878 162.318512 -859.534302
v 246.850372 145.482025 -864.452026
v 254.516388 122.226463 -877.026489
v 138.8284 216.731262 -836.615845
v 174.782196 204.09967 -829.930664
v 203.084442 191.480347 -824.10144
v 224.523346 178.390076 -820.793091
v 240.18454 163.325317 -821.959229
v 251.000275 144.226929 -829.553589
v 257.339264 118.917458 -845.044067
v 117.854828 233.86496 -808.604736
v 152.45163 222.27182 -798.924316
v 182.18454 209.693939 -789.892334
v 206.331146 196.489746 -783.620605
v 225.07901 181.935913 -782.137695
v 238.990387 164.595673 -787.068848
v 248.600433 142.957855 -799.177979
v 254.106598 116.130196 -818.092041
v 161.725616 111.625694 -1073.92334
v 190.132538 114.453026 -1043.9563
v 169.968964 89.4775238 -1089.50635
v 215.147736 112.256706 -1006.98596
v 197.515839 91.0494995 -1056.90405
v 179.018463 63.9254646 -1098.26123
v 235.444183 106.46209 -966.999634
v 220.849457 86.2603912 -1018.54089
v 204.477814 63.5844231 -1064.10413
v 188.600372 35.8662605 -1098.29297
v 249.936554 99.2180252 -927.376465
v 239.174042 77.5956726 -978.105347
v 225.219147 56.0513916 -1025.27271
v 210.927399 33.0533218 -1063.41492
v 196.363861 5.92103195 -1089.6886
v 257.715302 92.6841125 -890.588501
v 251.462982 67.9132538 -938.255005
v 240.693512 44.7527733 -984.602417
v 228.146637 22.811945 -1024.34778
v 214.862823 0.423830032 -1054.02148
v 199.457916 -24.6448479 -1073.78894
v 258.234955 87.9545898 -857.449097
v 256.466888 59.6885643 -900.136475
v 249.570038 33.0605812 -943.434692
v 239.409271 9.19921112 -982.428833
v 227.323151 -12.1763344 -1013.49414
v 212.968964 -32.6602707 -1036.26379
v 195.913544 -53.8007584 -1051.66968
v 131.638824 110.934502 -1084.55261
v 141.027069 85.8308563 -1106.62939
v 112.644135 84.7187042 -1106.0575
v 151.902985 58.8876305 -1119.72534
v 125.207428 53.9796638 -1126.07117
v 97.8476257 53.3319588 -1118.979
v 163.970917 30.8844528 -1122.76953
v 139.009186 23.8109875 -1134.61096
v 113.56076 18.6931038 -1134.66516
v 87.3804016 19.0233231 -1123.40198
v 174.914764 1.68855286 -1115.83765
v 152.721222 -5.64056396 -1131.15198
v 129.392059 -13.1652145 -1136.44836
v 105.021698 -17.5167389 -1132.23145
v 80.4253235 -15.6185684 -1118.51465
v 181.721954 -28.6251068 -1099.80273
v 162.613739 -35.6567383 -1116.69177
v 142.145233 -43.8110733 -1125.09766
v 120.282257 -50.3287582 -1125.46106
v 97.5765076 -52.4098587 -1118.26172
v 74.8908997 -48.2990036 -1104.01892
v 181.489288 -59.1640625 -1075.30261
v 165.735565 -66.452858 -1091.9552
v 148.439362 -74.8045731 -1101.34497
v 129.567963 -82.0721817 -1103.99951
v 109.422699 -85.8283463 -1100.80994
v 88.6438293 -84.3416977 -1092.78577
v 68.1854858 -77.3900375 -1080.61719
v 131.367218 137.149506 -1048.32776
v 106.524994 115.876595 -1075.26013
v 107.614471 143.197266 -1036.93286
v 86.7121887 88.5558929 -1092.2229
v 82.4648743 120.401207 -1059.29309
v 82.7254333 148.26178 -1020.54761
v 72.414093 56.7799339 -1101.60901
v 63.4325256 92.1970215 -1073.0387
v 58.9534912 124.177162 -1039.78918
v 56.4809875 152.154877 -1002.23706
v 63.3149719 22.1554642 -1103.39844
v 50.5956726 59.4891396 -1079.90894
v 41.8958435 94.7300339 -1051.28967
v 35.4751892 126.389519 -1019.53735
v 29.3244324 153.447754 -984.721436
v 57.8052368 -13.6180458 -1096.45923
v 42.8768921 23.1606426 -1079.42786
v 30.8831787 60.0533638 -1055.84985
v 21.0571289 94.804863 -1028.32532
v 11.9493103 125.291679 -998.139648
v 3.16311646 151.237061 -965.976318
v 52.8036194 -48.5042343 -1079.23657
v 37.6364441 -15.3032608 -1069.21643
v 23.755249 20.6689472 -1051.61804
v 11.4104309 56.9161415 -1028.45728
v -0.0982666016 90.5468445 -1001.79773
v -10.8482666 119.983025 -973.444824
v -20.1091309 145.433319 -944.58606
v 138.771759 156.553162 -1007.70703
v 111.647186 163.818268 -995.79248
v 142.354828 171.221313 -967.822754
v 82.2732849 169.603729 -980.646484
v 110.471222 179.435577 -957.238281
v 139.609711 184.326508 -930.595337
v 50.7380981 173.542542 -964.858765
v 75.7035522 186.153076 -944.416138
v 102.562958 193.866699 -921.871094
v 129.876801 198.274933 -896.419922
v 18.3089905 174.330872 -948.627686
v 38.7055969 190.495453 -930.313965
v 62.5123901 201.927063 -910.522461
v 88.1249084 209.626984 -888.725952
v 114.019135 214.3638 -864.530396
v -12.0549316 170.948303 -929.3396
v 1.90765381 191.259521 -913.002441
v 20.9259644 207.307312 -895.547363
v 43.6781006 219.632263 -876.533569
v 68.5422058 228.051666 -855.920166
v 93.8067932 232.608093 -833.561646
v 81.3918152 250.066162 -797.435059
v 53.2973022 247.29306 -821.505127
v 46.1603088 262.800873 -785.409302
v 27.0409851 238.866089 -842.322021
v 17.6878967 256.547974 -808.356812
v 14.6446838 269.660614 -771.801025
v 3.79754639 225.05835 -861.192505
v -6.76132202 242.777161 -827.871338
v -11.7501526 258.627686 -793.692261
v -11.7844238 268.744415 -756.993652
v -15.3656616 206.782379 -878.54126
v -26.8403625 223.022675 -845.244995
v -33.1330566 239.071198 -811.958496
v -35.0327148 252.528839 -777.782104
v -31.6915283 259.462738 -741.879395
v -29.4500427 184.035492 -895.257568
v -42.1387634 198.031067 -861.695801
v -49.974884 212.839172 -828.406982
v -53.2904053 227.192902 -795.153687
v -51.6557617 238.642273 -761.696777
v -44.1206665 242.653442 -727.866455
v -37.4164734 155.727295 -911.977051
v -51.6736755 166.955505 -878.533691
v -61.8384399 179.693909 -844.837524
v -67.1203003 193.74646 -811.476685
v -66.9751892 207.460999 -778.78894
v -61.2420959 217.181427 -746.953735
v -50.2661438 218.85675 -716.37915
v -33.6324158 121.053001 -937.939453
v -21.6199646 88.6874847 -967.966919
v -43.1962891 93.2378464 -928.789795
v -8.54806519 53.9188194 -995.768433
v -29.3196106 55.7052689 -959.463257
v -51.8130493 64.3437195 -918.546753
v 4.75991821 17.2065201 -1020.07874
v -15.3118896 17.8679485 -985.901245
v -37.7020874 23.6295109 -949.021606
v -60.3682251 37.2128143 -907.953735
v 18.6852417 -19.7713966 -1038.97913
v -1.29345703 -19.978344 -1006.6051
v -23.4544983 -15.538784 -972.674072
v -46.4986572 -4.98903275 -936.474243
v -67.525238 12.9629536 -896.265259
v 33.8662415 -54.7433777 -1050.53601
v 13.6509705 -56.6361313 -1019.75916
v -8.41390991 -53.5333633 -988.01709
v -31.4901123 -44.5613327 -955.316895
v -53.647583 -29.3872375 -920.42688
v -72.2616882 -8.49752045 -881.831787
v 50.1459045 -86.2248154 -1053.4696
v 30.3730469 -90.6893845 -1023.79199
v 8.47756958 -89.4734268 -992.940308
v -14.9599304 -81.885231 -962.147339
v -38.0415344 -68.1471176 -930.937012
v -58.5762329 -49.4929123 -898.129639
v -74.5089111 -27.6198654 -862.808716
v 71.3684082 -107.533836 -1057.40234
v 92.9533997 -113.889061 -1065.81885
v 70.9127808 -130.979462 -1026.27148
v 112.923615 -113.950691 -1070.98206
v 92.3834534 -135.264069 -1032.56055
v 66.5175476 -146.75705 -990.121826
v 130.971222 -108.891212 -1072.40259
v 110.852325 -133.405579 -1036.64319
v 87.1719666 -148.846924 -996.06604
v 59.432373 -154.920227 -952.605835
v 147.347443 -100.729485 -1068.71765
v 126.818207 -126.999596 -1037.31653
v 104.205536 -145.202637 -1000.01953
v 79.1804504 -155.246155 -959.031128
v 51.559845 -156.541168 -916.633057
v 162.713287 -91.5561752 -1058.22363
v 141.391998 -117.885033 -1032.4967
v 118.961578 -137.688202 -999.83728
v 95.3426208 -150.252655 -962.480225
v 70.6514893 -155.433563 -922.958008
v 44.7025452 -153.373077 -883.679932
v 177.896088 -82.7152023 -1039.43701
v 156.247223 -107.56057 -1019.53418
v 133.175201 -127.405846 -992.568481
v 109.830902 -141.397827 -959.928345
v 86.433136 -148.942688 -924.072998
v 63.2457275 -150.396851 -887.784058
v 40.0726624 -147.011719 -853.621582
v 198.064484 -66.7608414 -1018.09668
v 217.347809 -46.0219803 -998.461792
v 196.927155 -75.6677322 -982.335205
v 232.194427 -24.6581116 -973.175415
v 217.447968 -53.4846573 -960.693237
v 193.594696 -79.1679153 -945.944092
v 243.273163 -0.437685013 -941.341553
v 231.984161 -29.3911362 -934.615601
v 214.435944 -54.471756 -923.84375
v 188.738495 -77.0783005 -909.906616
v 250.966461 27.8648262 -902.942749
v 241.470123 -1.40016556 -902.60791
v 227.900909 -27.2192307 -897.328735
v 208.861908 -49.9468002 -887.749878
v 182.716461 -70.2730942 -874.322388
v 254.0112 59.9030342 -860.978882
v 246.208771 31.3904724 -864.299194
v 235.016144 4.35420227 -864.4729
v 220.208893 -19.6751785 -860.039551
v 200.776276 -40.9371567 -851.514282
v 175.871185 -59.3462601 -838.996826
v 250.983307 94.0350113 -818.662231
v 244.81662 68.5060425 -821.866699
v 235.719025 41.4712257 -824.806396
v 223.690887 15.6132278 -824.947144
v 208.722443 -7.21590805 -821.196289
v 190.466339 -27.24543 -814.139282
v 168.289886 -44.8774948 -803.893188
v 243.602631 131.093842 -782.485718
v 234.500336 159.905731 -762.532593
v 228.739532 144.08725 -751.424316
v 221.225861 182.159821 -751.24231
v 215.945709 173.936859 -732.370117
v 209.587311 154.157837 -724.2948
v 203.536224 199.948395 -748.165405
v 198.914154 197.05426 -723.222778
v 192.896454 185.040466 -707.535767
v 186.237457 162.098877 -700.905884
v 180.801178 215.320953 -752.274536
v 177.211639 216.137848 -722.811157
v 171.913788 209.511993 -701.095337
v 165.716461 193.586029 -686.904541
v 159.907013 168.203674 -680.495972
v 152.293671 229.629883 -761.987915
v 149.915619 233.030731 -729.724976
v 145.794525 230.25351 -703.210693
v 140.642853 219.14325 -682.928711
v 135.733185 199.487671 -669.334106
v 133.13382 172.473297 -662.363281
v 117.619415 243.020691 -775.136719
v 115.872101 248.533844 -742.33252
v 112.942352 248.569824 -712.528564
v 109.318024 241.054047 -687.191772
v 106.235809 225.197723 -667.528687
v 105.546844 202.273743 -653.94812
v 108.168915 174.2724 -646.353149
v 79.855011 259.500824 -762.13855
v 45.199707 269.973389 -749.021606
v 77.7125549 262.405884 -728.61792
v 15.177002 272.918274 -735.012329
v 44.1796875 268.245148 -715.200684
v 75.4382019 257.692627 -698.539795
v -8.51275635 267.23999 -720.373169
v 17.0558777 265.442749 -701.319458
v 44.6209106 257.459442 -685.001709
v 74.3164673 244.19632 -672.973022
v -24.4830322 252.28653 -706.296265
v -2.34262085 252.851349 -687.255615
v 21.7969055 247.27002 -670.840942
v 47.896637 236.817108 -658.828979
v 75.9702759 221.847565 -652.585449
v -33.4184265 227.997772 -694.073486
v -14.5529175 229.206818 -674.161377
v 6.43173218 224.915466 -656.948242
v 29.6486816 216.90802 -644.268433
v 54.8232727 205.759766 -637.771118
v 81.3461609 191.496674 -638.296021
v -51.8445129 131.04129 -900.752075
v -62.2029724 104.646797 -888.493286
v -65.9306335 142.409424 -864.401245
v -70.7501526 78.9893494 -876.866211
v -75.4815369 118.121742 -850.628296
v -74.6279297 156.042267 -829.134277
v -77.5628357 54.8737144 -865.707764
v -82.0950317 94.9002914 -838.00293
v -81.8602295 133.528778 -814.302124
v -77.0041504 171.077698 -794.755737
v -81.97995 31.4934845 -853.447998
v -85.8580017 71.2984009 -825.351685
v -85.0585022 110.413445 -799.873291
v -80.4366455 148.30777 -778.228271
v -72.5178528 184.256226 -760.745239
v -84.0300598 7.90004158 -837.55249
v -87.4610596 45.4305687 -810.238037
v -85.5862732 83.8690033 -783.748657
v -79.7587585 121.926262 -760.329468
v -71.3863831 158.101715 -741.294067
v -61.4839478 190.871246 -726.800293
v 49.6368408 -116.382072 -1024.09509
v 45.3666687 -136.417145 -987.920898
v 26.5476379 -117.774818 -990.348633
v 38.4200745 -147.339142 -948.930664
v 19.5982056 -133.005859 -951.735474
v 2.0163269 -111.814369 -957.858398
v 30.4463196 -151.050171 -910.390259
v 11.219574 -139.626709 -911.537354
v -6.55673218 -122.544533 -918.227783
v -22.9300232 -99.2213211 -926.560547
v 23.2791748 -149.446442 -874.268311
v 3.1411438 -140.301575 -872.004272
v -15.4614258 -125.895699 -876.711182
v -32.0969238 -106.188545 -885.791382
v -46.424469 -80.9249954 -894.746216
v 18.6468201 -144.095032 -841.200317
v -2.61132812 -136.696167 -834.40271
v -22.7033997 -124.365303 -834.665527
v -40.4689941 -106.90554 -841.479004
v -55.0470276 -84.6335068 -851.468018
v -66.2514038 -58.0744095 -859.981079
v 175.004486 -93.7574539 -1002.29675
v 170.013519 -99.2735214 -964.620972
v 149.778046 -114.576363 -979.950928
v 164.094269 -99.0382614 -927.016724
v 142.308746 -115.72039 -940.79248
v 124.559906 -129.616272 -951.563965
v 158.312408 -93.7136307 -889.536865
v 135.394989 -111.79998 -901.826538
v 116.121429 -126.652092 -911.313843
v 100.270355 -139.047028 -918.421509
v 152.965729 -83.7741623 -851.699951
v 129.775909 -103.27636 -862.336426
v 109.044098 -119.306419 -870.740845
v 91.5505066 -132.457733 -877.199951
v 76.5120239 -142.741547 -882.508545
v 147.53183 -69.2416458 -813.048706
v 124.921356 -90.0727615 -821.189331
v 103.115143 -107.673347 -828.316895
v 83.7764587 -122.212929 -834.318481
v 66.8621826 -133.362671 -839.963867
v 52.3432312 -141.510803 -846.061157
v 238.608429 107.708916 -782.410156
v 222.23996 118.182121 -751.589722
v 230.875031 80.8588104 -785.297607
v 201.94455 126.431084 -724.671265
v 213.350494 90.3592377 -754.362427
v 220.63681 53.4510078 -787.853394
v 178.120758 133.499878 -700.347412
v 192.444794 98.7663803 -726.585693
v 202.507538 63.7115898 -756.156006
v 208.010345 28.2610397 -787.657715
v 152.554596 139.402588 -677.306152
v 169.31369 105.906563 -699.635132
v 182.151459 72.2586365 -725.994995
v 190.096161 38.6613197 -754.196411
v 192.894806 5.23082924 -783.555176
v 127.134369 143.385162 -655.427734
v 144.955475 111.000038 -672.618164
v 159.657074 78.0462646 -695.245117
v 169.506134 45.2060013 -720.904297
v 173.991974 13.1052303 -748.169067
v 173.340851 -17.3119049 -776.047119
v 5.15560913 -17.521225 -658.477905
v 26.977478 8.38045883 -644.092896
v -6.17526245 14.1448574 -649.351685
v 47.7363892 36.9132805 -633.464844
v 15.3141479 44.7040062 -633.792114
v -15.5686951 49.8688736 -646.630371
v 65.3834534 67.1352081 -626.895752
v 33.6393738 76.1013031 -623.359253
v 4.67938232 83.2676849 -631.599487
v -22.9178772 88.3173981 -649.840332
v 78.8633728 97.8838882 -625.026367
v 48.0144958 107.763832 -618.352661
v 20.320343 115.904366 -623.187134
v -5.05484009 123.058739 -636.797607
v -29.2001648 127.335304 -659.085815
v 88.8392029 127.377007 -628.035034
v 59.0527954 138.81427 -619.302368
v 32.1958923 147.81839 -621.238037
v 7.74783325 155.88797 -631.765137
v -14.4902039 162.246307 -649.339722
v -35.8174438 164.118927 -674.007812
v 97.6515198 153.400635 -635.465332
v 69.0730286 167.504822 -626.189941
v 42.4509277 178.427673 -626.131958
v 18.0469055 187.40799 -634.094238
v -4.05914307 194.568665 -648.810669
v -24.1514893 198.296265 -668.785278
v -43.3166504 195.562592 -693.47229
v 31.3688049 -29.5223236 -664.739868
v 57.6583252 -37.3533096 -677.778076
v 56.4931946 -1.68010139 -652.79248
v 82.6594543 -41.8754807 -696.29834
v 84.257782 -7.80276489 -668.607666
v 78.7176208 27.9864502 -645.208252
v 105.944427 -44.0547791 -719.385376
v 109.431976 -11.5029602 -689.812866
v 106.373077 22.5019855 -663.862305
v 96.4576721 58.5966721 -641.737305
v 127.689301 -44.872673 -745.995361
v 132.171051 -13.8608246 -715.45874
v 130.815582 18.7548714 -687.805664
v 123.302704 53.0079422 -663.155762
v 109.264008 89.1137848 -642.451538
v 148.333038 -45.077774 -774.717285
v 153.166046 -15.6481323 -744.623901
v 152.967743 15.8207035 -716.181641
v 147.015228 48.7868156 -689.733398
v 135.435089 82.9315948 -666.206909
v 118.456146 117.994911 -647.112427
v 0.355194092 -48.4004288 -678.371582
v -1.97277832 -74.6354446 -701.630859
v 27.6468201 -60.5586548 -688.691528
v -1.04223633 -96.1452103 -727.030762
v 25.9546204 -85.3015976 -714.896851
v 53.5880127 -67.4825211 -705.219971
v 3.85531616 -113.251915 -754.458496
v 27.3774109 -104.628319 -742.90564
v 51.871521 -90.4879837 -734.313232
v 77.993927 -70.615654 -726.69165
v 12.7460938 -126.829475 -784.41333
v 32.2599487 -119.597374 -773.350464
v 53.5322266 -108.195992 -765.397827
v 76.3188477 -92.0827255 -758.784912
v 101.293121 -71.2906723 -752.373169
v 25.0032654 -137.919037 -817.402588
v 40.4764099 -131.567108 -807.382812
v 58.3084717 -122.074409 -799.944458
v 78.1897888 -108.838493 -793.822144
v 100.180023 -91.6326065 -787.884277
v 124.201324 -70.6415787 -781.521729
v -22.6187744 -21.9102364 -670.461792
v -46.6393433 -23.2422714 -689.440796
v -27.5940857 -54.1069565 -693.11499
v -65.1087952 -22.9420776 -715.894653
v -49.4090576 -56.2186813 -714.714966
v -27.9220581 -80.0894089 -717.999878
v -76.9929199 -22.4456253 -749.012329
v -64.3229675 -56.5417709 -743.484375
v -46.3419189 -82.2470627 -740.891724
v -23.5151062 -100.978004 -744.269287
v -82.1051941 -22.8125992 -786.465698
v -71.9851074 -56.4025955 -778.582031
v -57.0391541 -82.9905167 -771.083984
v -37.5470276 -103.369606 -768.304321
v -14.0588074 -117.923836 -772.637329
v -80.9527283 -24.6764565 -825.312988
v -72.4709778 -56.7943192 -818.169312
v -59.9648743 -83.5410233 -808.266968
v -43.3222961 -105.046837 -800.42627
v -22.9261475 -121.182549 -798.602295
v 0.194458008 -132.048981 -804.433594
v -34.6082153 13.4376297 -666.241455
v -42.3125 51.6545296 -668.424927
v -57.3009949 14.7819366 -689.958862
v -46.9674377 90.9246521 -675.931396
v -62.6092224 53.7894096 -696.176636
v -73.5644226 16.033987 -720.671753
v -50.8020935 129.090851 -688.401367
v -65.1195984 92.1936646 -706.945679
v -76.706604 54.2037697 -730.009521
v -83.3251953 15.774313 -757.099854
v -55.7100525 163.385437 -705.381958
v -67.6227722 127.863686 -721.851074
v -77.9876709 90.1660767 -743.096802
v -85.0966492 51.5825996 -768.603394
v -86.7965698 13.0696621 -796.882568
g 
f 3 1 2
f 5 2 4
f 6 3 5
f 8 4 7
f 9 5 8
f 10 6 9
f 12 7 11
f 13 8 12
f 14 9 13
f 15 10 14
f 17 11 16
f 18 12 17
f 19 13 18
f 20 14 19
f 21 15 20
f 23 16 22
f 24 17 23
f 25 18 24
f 26 19 25
f 27 20 26
f 28 21 27
f 30 22 29
f 31 23 30
f 32 24 31
f 33 25 32
f 34 26 33
f 35 27 34
f 36 28 35
f 3 2 5
f 5 4 8
f 6 5 9
f 8 7 12
f 9 8 13
f 10 9 14
f 12 11 17
f 13 12 18
f 14 13 19
f 15 14 20
f 17 16 23
f 18 17 24
f 19 18 25
f 20 19 26
f 21 20 27
f 23 22 30
f 24 23 31
f 25 24 32
f 26 25 33
f 27 26 34
f 28 27 35
f 37 1 3
f 38 3 6
f 39 37 38
f 40 6 10
f 41 38 40
f 42 39 41
f 43 10 15
f 44 40 43
f 45 41 44
f 46 42 45
f 47 15 21
f 48 43 47
f 49 44 48
f 50 45 49
f 51 46 50
f 52 21 28
f 53 47 52
f 54 48 53
f 55 49 54
f 56 50 55
f 57 51 56
f 58 28 36
f 59 52 58
f 60 53 59
f 61 54 60
f 62 55 61
f 63 56 62
f 64 57 63
f 37 3 38
f 38 6 40
f 39 38 41
f 40 10 43
f 41 40 44
f 42 41 45
f 43 15 47
f 44 43 48
f 45 44 49
f 46 45 50
f 47 21 52
f 48 47 53
f 49 48 54
f 50 49 55
f 51 50 56
f 52 28 58
f 53 52 59
f 54 53 60
f 55 54 61
f 56 55 62
f 57 56 63
f 65 1 37
f 66 37 39
f 67 65 66
f 68 39 42
f 69 66 68
f 70 67 69
f 71 42 46
f 72 68 71
f 73 69 72
f 74 70 73
f 75 46 51
f 76 71 75
f 77 72 76
f 78 73 77
f 79 74 78
f 80 51 57
f 81 75 80
f 82 76 81
f 83 77 82
f 84 78 83
f 85 79 84
f 86 57 64
f 87 80 86
f 88 81 87
f 89 82 88
f 90 83 89
f 91 84 90
f 92 85 91
f 65 37 66
f 66 39 68
f 67 66 69
f 68 42 71
f 69 68 72
f 70 69 73
f 71 46 75
f 72 71 76
f 73 72 77
f 74 73 78
f 75 51 80
f 76 75 81
f 77 76 82
f 78 77 83
f 79 78 84
f 80 57 86
f 81 80 87
f 82 81 88
f 83 82 89
f 84 83 90
f 85 84 91
f 93 1 65
f 94 65 67
f 95 93 94
f 96 67 70
f 97 94 96
f 98 95 97
f 99 70 74
f 100 96 99
f 101 97 100
f 102 98 101
f 103 74 79
f 104 99 103
f 105 100 104
f 106 101 105
f 107 102 106
f 108 79 85
f 109 103 108
f 110 104 109
f 111 105 110
f 112 106 111
f 113 107 112
f 114 85 92
f 115 108 114
f 116 109 115
f 117 110 116
f 118 111 117
f 119 112 118
f 120 113 119
f 93 65 94
f 94 67 96
f 95 94 97
f 96 70 99
f 97 96 100
f 98 97 101
f 99 74 103
f 100 99 104
f 101 100 105
f 102 101 106
f 103 79 108
f 104 103 109
f 105 104 110
f 106 105 111
f 107 106 112
f 108 85 114
f 109 108 115
f 110 109 116
f 111 110 117
f 112 111 118
f 113 112 119
f 2 1 93
f 121 93 95
f 4 2 121
f 122 95 98
f 123 121 122
f 7 4 123
f 124 98 102
f 125 122 124
f 126 123 125
f 11 7 126
f 127 102 107
f 128 124 127
f 129 125 128
f 130 126 129
f 16 11 130
f 131 107 113
f 132 127 131
f 133 128 132
f 134 129 133
f 135 130 134
f 22 16 135
f 136 113 120
f 137 131 136
f 138 132 137
f 139 133 138
f 140 134 139
f 141 135 140
f 29 22 141
f 2 93 121
f 121 95 122
f 4 121 123
f 122 98 124
f 123 122 125
f 7 123 126
f 124 102 127
f 125 124 128
f 126 125 129
f 11 126 130
f 127 107 131
f 128 127 132
f 129 128 133
f 130 129 134
f 16 130 135
f 131 113 136
f 132 131 137
f 133 132 138
f 134 133 139
f 135 134 140
f 22 135 141
f 142 29 141
f 143 141 140
f 144 142 143
f 145 140 139
f 146 143 145
f 147 144 146
f 148 139 138
f 149 145 148
f 150 146 149
f 151 147 150
f 152 138 137
f 153 148 152
f 154 149 153
f 155 150 154
f 156 151 155
f 157 137 136
f 158 152 157
f 159 153 158
f 160 154 159
f 161 155 160
f 162 156 161
f 163 136 120
f 164 157 163
f 165 158 164
f 166 159 165
f 167 160 166
f 168 161 167
f 169 162 168
f 142 141 143
f 143 140 145
f 144 143 146
f 145 139 148
f 146 145 149
f 147 146 150
f 148 138 152
f 149 148 153
f 150 149 154
f 151 150 155
f 152 137 157
f 153 152 158
f 154 153 159
f 155 154 160
f 156 155 161
f 157 136 163
f 158 157 164
f 159 158 165
f 160 159 166
f 161 160 167
f 162 161 168
f 170 120 119
f 171 119 118
f 172 170 171
f 173 118 117
f 174 171 173
f 175 172 174
f 176 117 116
f 177 173 176
f 178 174 177
f 179 175 178
f 180 116 115
f 181 176 180
f 182 177 181
f 183 178 182
f 184 179 183
f 185 115 114
f 186 180 185
f 187 181 186
f 188 182 187
f 189 183 188
f 190 184 189
f 191 114 92
f 192 185 191
f 193 186 192
f 194 187 193
f 195 188 194
f 196 189 195
f 197 190 196
f 170 119 171
f 171 118 173
f 172 171 174
f 173 117 176
f 174 173 177
f 175 174 178
f 176 116 180
f 177 176 181
f 178 177 182
f 179 178 183
f 180 115 185
f 181 180 186
f 182 181 187
f 183 182 188
f 184 183 189
f 185 114 191
f 186 185 192
f 187 186 193
f 188 187 194
f 189 188 195
f 190 189 196
f 198 92 91
f 199 91 90
f 200 198 199
f 201 90 89
f 202 199 201
f 203 200 202
f 204 89 88
f 205 201 204
f 206 202 205
f 207 203 206
f 208 88 87
f 209 204 208
f 210 205 209
f 211 206 210
f 212 207 211
f 213 87 86
f 214 208 213
f 215 209 214
f 216 210 215
f 217 211 216
f 218 212 217
f 219 86 64
f 220 213 219
f 221 214 220
f 222 215 221
f 223 216 222
f 224 217 223
f 225 218 224
f 198 91 199
f 199 90 201
f 200 199 202
f 201 89 204
f 202 201 205
f 203 202 206
f 204 88 208
f 205 204 209
f 206 205 210
f 207 206 211
f 208 87 213
f 209 208 214
f 210 209 215
f 211 210 216
f 212 211 217
f 213 86 219
f 214 213 220
f 215 214 221
f 216 215 222
f 217 216 223
f 218 217 224
f 226 64 63
f 227 63 62
f 228 226 227
f 229 62 61
f 230 227 229
f 231 228 230
f 232 61 60
f 233 229 232
f 234 230 233
f 235 231 234
f 236 60 59
f 237 232 236
f 238 233 237
f 239 234 238
f 240 235 239
f 241 59 58
f 242 236 241
f 243 237 242
f 244 238 243
f 245 239 244
f 246 240 245
f 247 58 36
f 248 241 247
f 249 242 248
f 250 243 249
f 251 244 250
f 252 245 251
f 253 246 252
f 226 63 227
f 227 62 229
f 228 227 230
f 229 61 232
f 230 229 233
f 231 230 234
f 232 60 236
f 233 232 237
f 234 233 238
f 235 234 239
f 236 59 241
f 237 236 242
f 238 237 243
f 239 238 244
f 240 239 245
f 241 58 247
f 242 241 248
f 243 242 249
f 244 243 250
f 245 244 251
f 246 245 252
f 254 36 35
f 255 35 34
f 256 254 255
f 257 34 33
f 258 255 257
f 259 256 258
f 260 33 32
f 261 257 260
f 262 258 261
f 263 259 262
f 264 32 31
f 265 260 264
f 266 261 265
f 267 262 266
f 268 263 267
f 269 31 30
f 270 264 269
f 271 265 270
f 272 266 271
f 273 267 272
f 274 268 273
f 275 30 29
f 276 269 275
f 277 270 276
f 278 271 277
f 279 272 278
f 280 273 279
f 281 274 280
f 254 35 255
f 255 34 257
f 256 255 258
f 257 33 260
f 258 257 261
f 259 258 262
f 260 32 264
f 261 260 265
f 262 261 266
f 263 262 267
f 264 31 269
f 265 264 270
f 266 265 271
f 267 266 272
f 268 267 273
f 269 30 275
f 270 269 276
f 271 270 277
f 272 271 278
f 273 272 279
f 274 273 280
f 275 29 142
f 282 142 144
f 276 275 282
f 283 144 147
f 284 282 283
f 277 276 284
f 285 147 151
f 286 283 285
f 287 284 286
f 278 277 287
f 288 151 156
f 289 285 288
f 290 286 289
f 291 287 290
f 279 278 291
f 292 156 162
f 293 288 292
f 294 289 293
f 295 290 294
f 296 291 295
f 280 279 296
f 297 162 169
f 298 292 297
f 299 293 298
f 300 294 299
f 301 295 300
f 302 296 301
f 281 280 302
f 275 142 282
f 282 144 283
f 276 282 284
f 283 147 285
f 284 283 286
f 277 284 287
f 285 151 288
f 286 285 289
f 287 286 290
f 278 287 291
f 288 156 292
f 289 288 293
f 290 289 294
f 291 290 295
f 279 291 296
f 292 162 297
f 293 292 298
f 294 293 299
f 295 294 300
f 296 295 301
f 280 296 302
f 163 120 170
f 303 170 172
f 164 163 303
f 304 172 175
f 305 303 304
f 165 164 305
f 306 175 179
f 307 304 306
f 308 305 307
f 166 165 308
f 309 179 184
f 310 306 309
f 311 307 310
f 312 308 311
f 167 166 312
f 313 184 190
f 314 309 313
f 315 310 314
f 316 311 315
f 317 312 316
f 168 167 317
f 318 190 197
f 319 313 318
f 320 314 319
f 321 315 320
f 322 316 321
f 323 317 322
f 169 168 323
f 163 170 303
f 303 172 304
f 164 303 305
f 304 175 306
f 305 304 307
f 165 305 308
f 306 179 309
f 307 306 310
f 308 307 311
f 166 308 312
f 309 184 313
f 310 309 314
f 311 310 315
f 312 311 316
f 167 312 317
f 313 190 318
f 314 313 319
f 315 314 320
f 316 315 321
f 317 316 322
f 168 317 323
f 191 92 198
f 324 198 200
f 192 191 324
f 325 200 203
f 326 324 325
f 193 192 326
f 327 203 207
f 328 325 327
f 329 326 328
f 194 193 329
f 330 207 212
f 331 327 330
f 332 328 331
f 333 329 332
f 195 194 333
f 334 212 218
f 335 330 334
f 336 331 335
f 337 332 336
f 338 333 337
f 196 195 338
f 339 218 225
f 340 334 339
f 341 335 340
f 342 336 341
f 343 337 342
f 344 338 343
f 197 196 344
f 191 198 324
f 324 200 325
f 192 324 326
f 325 203 327
f 326 325 328
f 193 326 329
f 327 207 330
f 328 327 331
f 329 328 332
f 194 329 333
f 330 212 334
f 331 330 335
f 332 331 336
f 333 332 337
f 195 333 338
f 334 218 339
f 335 334 340
f 336 335 341
f 337 336 342
f 338 337 343
f 196 338 344
f 219 64 226
f 345 226 228
f 220 219 345
f 346 228 231
f 347 345 346
f 221 220 347
f 348 231 235
f 349 346 348
f 350 347 349
f 222 221 350
f 351 235 240
f 352 348 351
f 353 349 352
f 354 350 353
f 223 222 354
f 355 240 246
f 356 351 355
f 357 352 356
f 358 353 357
f 359 354 358
f 224 223 359
f 360 246 253
f 361 355 360
f 362 356 361
f 363 357 362
f 364 358 363
f 365 359 364
f 225 224 365
f 219 226 345
f 345 228 346
f 220 345 347
f 346 231 348
f 347 346 349
f 221 347 350
f 348 235 351
f 349 348 352
f 350 349 353
f 222 350 354
f 351 240 355
f 352 351 356
f 353 352 357
f 354 353 358
f 223 354 359
f 355 246 360
f 356 355 361
f 357 356 362
f 358 357 363
f 359 358 364
f 224 359 365
f 247 36 254
f 366 254 256
f 248 247 366
f 367 256 259
f 368 366 367
f 249 248 368
f 369 259 263
f 370 367 369
f 371 368 370
f 250 249 371
f 372 263 268
f 373 369 372
f 374 370 373
f 375 371 374
f 251 250 375
f 376 268 274
f 377 372 376
f 378 373 377
f 379 374 378
f 380 375 379
f 252 251 380
f 381 274 281
f 382 376 381
f 383 377 382
f 384 378 383
f 385 379 384
f 386 380 385
f 253 252 386
f 247 254 366
f 366 256 367
f 248 366 368
f 367 259 369
f 368 367 370
f 249 368 371
f 369 263 372
f 370 369 373
f 371 370 374
f 250 371 375
f 372 268 376
f 373 372 377
f 374 373 378
f 375 374 379
f 251 375 380
f 376 274 381
f 377 376 382
f 378 377 383
f 379 378 384
f 380 379 385
f 252 380 386
f 389 387 388
f 391 388 390
f 392 389 391
f 394 390 393
f 395 391 394
f 396 392 395
f 398 393 397
f 399 394 398
f 400 395 399
f 401 396 400
f 403 397 402
f 404 398 403
f 405 399 404
f 406 400 405
f 407 401 406
f 409 402 408
f 410 403 409
f 411 404 410
f 412 405 411
f 413 406 412
f 414 407 413
f 302 408 281
f 301 409 302
f 300 410 301
f 299 411 300
f 298 412 299
f 297 413 298
f 169 414 297
f 389 388 391
f 391 390 394
f 392 391 395
f 394 393 398
f 395 394 399
f 396 395 400
f 398 397 403
f 399 398 404
f 400 399 405
f 401 400 406
f 403 402 409
f 404 403 410
f 405 404 411
f 406 405 412
f 407 406 413
f 409 408 302
f 410 409 301
f 411 410 300
f 412 411 299
f 413 412 298
f 414 413 297
f 388 387 415
f 417 415 416
f 390 388 417
f 419 416 418
f 420 417 419
f 393 390 420
f 422 418 421
f 423 419 422
f 424 420 423
f 397 393 424
f 426 421 425
f 427 422 426
f 428 423 427
f 429 424 428
f 402 397 429
f 431 425 430
f 432 426 431
f 433 427 432
f 434 428 433
f 435 429 434
f 408 402 435
f 386 430 253
f 385 431 386
f 384 432 385
f 383 433 384
f 382 434 383
f 381 435 382
f 281 408 381
f 388 415 417
f 417 416 419
f 390 417 420
f 419 418 422
f 420 419 423
f 393 420 424
f 422 421 426
f 423 422 427
f 424 423 428
f 397 424 429
f 426 425 431
f 427 426 432
f 428 427 433
f 429 428 434
f 402 429 435
f 431 430 386
f 432 431 385
f 433 432 384
f 434 433 383
f 435 434 382
f 408 435 381
f 415 387 436
f 438 436 437
f 416 415 438
f 440 437 439
f 441 438 440
f 418 416 441
f 443 439 442
f 444 440 443
f 445 441 444
f 421 418 445
f 447 442 446
f 448 443 447
f 449 444 448
f 450 445 449
f 425 421 450
f 452 446 451
f 453 447 452
f 454 448 453
f 455 449 454
f 456 450 455
f 430 425 456
f 365 451 225
f 364 452 365
f 363 453 364
f 362 454 363
f 361 455 362
f 360 456 361
f 253 430 360
f 415 436 438
f 438 437 440
f 416 438 441
f 440 439 443
f 441 440 444
f 418 441 445
f 443 442 447
f 444 443 448
f 445 444 449
f 421 445 450
f 447 446 452
f 448 447 453
f 449 448 454
f 450 449 455
f 425 450 456
f 452 451 365
f 453 452 364
f 454 453 363
f 455 454 362
f 456 455 361
f 430 456 360
f 436 387 457
f 459 457 458
f 437 436 459
f 461 458 460
f 462 459 461
f 439 437 462
f 464 460 463
f 465 461 464
f 466 462 465
f 442 439 466
f 468 463 467
f 469 464 468
f 470 465 469
f 471 466 470
f 446 442 471
f 473 467 472
f 474 468 473
f 475 469 474
f 476 470 475
f 477 471 476
f 451 446 477
f 344 472 197
f 343 473 344
f 342 474 343
f 341 475 342
f 340 476 341
f 339 477 340
f 225 451 339
f 436 457 459
f 459 458 461
f 437 459 462
f 461 460 464
f 462 461 465
f 439 462 466
f 464 463 468
f 465 464 469
f 466 465 470
f 442 466 471
f 468 467 473
f 469 468 474
f 470 469 475
f 471 470 476
f 446 471 477
f 473 472 344
f 474 473 343
f 475 474 342
f 476 475 341
f 477 476 340
f 451 477 339
f 457 387 389
f 478 389 392
f 458 457 478
f 479 392 396
f 480 478 479
f 460 458 480
f 481 396 401
f 482 479 481
f 483 480 482
f 463 460 483
f 484 401 407
f 485 481 484
f 486 482 485
f 487 483 486
f 467 463 487
f 488 407 414
f 489 484 488
f 490 485 489
f 491 486 490
f 492 487 491
f 472 467 492
f 323 414 169
f 322 488 323
f 321 489 322
f 320 490 321
f 319 491 320
f 318 492 319
f 197 472 318
f 457 389 478
f 478 392 479
f 458 478 480
f 479 396 481
f 480 479 482
f 460 480 483
f 481 401 484
f 482 481 485
f 483 482 486
f 463 483 487
f 484 407 488
f 485 484 489
f 486 485 490
f 487 486 491
f 467 487 492
f 488 414 323
f 489 488 322
f 490 489 321
f 491 490 320
f 492 491 319
f 472 492 318
