# File exported by Houdini 20.5.445 (www.sidefx.com)
# 492 points
# 2940 vertices
# 980 primitives
# Bounds: [-85.1489716, -145.802948, -1143.04517] to [255.922882, 262.180054, -611.755859]
g 
v 137.577728 152.032104 -1104.07214
v 139.749664 177.966553 -1070.75513
v 163.178253 162.595856 -1087.06274
v 143.183319 198.490173 -1029.15942
v 167.233124 186.57962 -1044.0625
v 187.202789 167.439392 -1060.05774
v 145.872162 213.141266 -980.46405
v 171.270355 203.438263 -993.635986
v 191.679291 188.521606 -1007.80005
v 208.898285 165.805206 -1024.91626
v 145.165619 223.313049 -928.517273
v 172.749786 214.911285 -939.399658
v 194.430939 202.675171 -951.497559
v 212.174408 184.645142 -966.354248
v 226.952728 158.307373 -985.197632
v 138.631073 231.342377 -877.559998
v 168.896698 223.401245 -884.954651
v 192.767365 212.573181 -894.356384
v 211.950226 197.461792 -906.917419
v 227.570831 176.092896 -923.599487
v 239.997223 146.718903 -944.693481
v 125.320953 239.215881 -830.700684
v 157.613434 231.366913 -833.302185
v 184.181305 220.96225 -838.781433
v 205.734344 207.29483 -848.432922
v 223.152374 188.930267 -863.114319
v 236.928497 164.474152 -882.893433
v 247.028168 133.486115 -906.724426
v 106.183197 247.558563 -789.4151
v 138.128143 240.27536 -786.32019
v 166.612885 229.969269 -786.483582
v 190.90506 216.681 -791.94165
v 211.036713 199.680176 -804.022156
v 227.230927 178.013 -822.75647
v 239.480804 151.30722 -846.665649
v 247.758148 120.595894 -872.918274
v 153.83963 130.412506 -1121.11658
v 180.626617 139.758423 -1101.83899
v 171.720062 106.597404 -1128.64417
v 203.914581 141.732574 -1073.47388
v 197.990753 113.961174 -1106.11182
v 189.07901 80.214859 -1126.45337
v 223.828949 136.524384 -1038.33533
v 219.580841 112.767464 -1075.86218
v 213.480133 84.8755035 -1101.17798
v 203.341705 50.9767799 -1116.02112
v 239.567657 125.554268 -998.893188
v 237.041656 104.213707 -1040.0553
v 232.617096 80.4708252 -1069.03162
v 224.764008 52.4601135 -1088.68225
v 211.665924 19.2404652 -1098.91418
v 249.896271 111.35096 -957.908875
v 249.700714 90.3861694 -999.834534
v 246.788544 68.7987976 -1031.11414
v 240.04483 44.7329941 -1054.0813
v 228.715118 17.2186127 -1069.30774
v 212.050934 -13.5703125 -1076.18042
v 253.536407 96.7590408 -917.296753
v 255.922882 74.2830811 -956.451721
v 254.823151 52.5261269 -987.665649
v 249.043427 30.16082 -1012.23633
v 238.294342 6.3318615 -1030.97961
v 223.185577 -19.0127792 -1043.35449
v 204.562714 -44.9648361 -1048.62207
v 121.504852 124.407265 -1124.66516
v 140.421112 97.7978287 -1138.4707
v 107.089569 93.5199203 -1135.45105
v 159.887604 70.9124298 -1140.3407
v 128.300873 63.8109703 -1143.04517
v 94.6295929 61.6238632 -1135.87207
v 177.115021 42.8197861 -1132.51965
v 147.893951 35.090786 -1138.56348
v 115.917816 30.4370995 -1136.70251
v 82.4125824 30.3472633 -1126.7998
v 189.272736 12.674572 -1116.95117
v 163.325043 5.77967834 -1125.41943
v 133.727631 0.928388596 -1126.64294
v 101.745514 -0.771982193 -1121.36035
v 69.9325714 1.15620804 -1109.09473
v 193.860199 -19.4882889 -1094.38635
v 171.966583 -25.390976 -1104.36023
v 145.867645 -29.37537 -1107.81116
v 116.633026 -30.7358932 -1105.26855
v 86.5955353 -29.5515327 -1096.94946
v 58.4756927 -25.7224197 -1083.52258
v 189.891998 -52.2005844 -1064.97766
v 172.057709 -58.4681931 -1074.64539
v 150.220795 -62.0486679 -1078.92981
v 124.985992 -62.5268097 -1078.1554
v 98.1515045 -60.4369431 -1072.41382
v 72.1352997 -56.350853 -1062.76624
v 48.8460236 -50.2737045 -1050.94214
v 112.24527 156.320496 -1094.9436
v 92.7874908 126.859734 -1113.33569
v 87.9082794 160.01355 -1079.52905
v 76.8744659 95.3577652 -1121.42834
v 67.5000458 129.268005 -1095.60364
v 65.4606476 163.136963 -1059.48621
v 64.2550507 63.2721367 -1119.55115
v 52.1778107 97.1250992 -1101.42017
v 46.0745087 131.075073 -1073.65625
v 45.391922 164.776093 -1036.68921
v 53.13414 31.7856483 -1108.39636
v 40.8759918 64.2162018 -1097.63831
v 32.5240936 97.6059341 -1077.67419
v 28.4400177 131.11145 -1049.35132
v 27.8291473 163.85257 -1013.16663
v 42.8209381 1.60344696 -1087.97729
v 31.4540253 31.3098221 -1084.24341
v 23.0621185 63.0683937 -1071.78674
v 17.1528168 95.7685165 -1051.32288
v 14.1224213 128.58844 -1023.92639
v 12.4567413 159.173065 -989.81189
v 34.1901703 -27.250206 -1058.26257
v 22.9637299 -0.992341995 -1059.97595
v 15.0729828 28.0799122 -1054.76636
v 9.07923889 59.0668793 -1041.99829
v 4.80915833 91.1364594 -1022.29358
v 1.71815491 122.36805 -996.587463
v -1.56886292 149.795776 -965.14093
v 114.166412 184.001007 -1057.44897
v 90.0954742 188.601593 -1038.57288
v 116.869049 204.807373 -1013.75696
v 67.3693695 191.527252 -1016.27954
v 91.7269745 208.841492 -993.020569
v 117.592194 218.977386 -964.643738
v 45.6564178 191.888489 -992.554016
v 66.7183075 210.453766 -969.415771
v 89.4513702 222.198578 -943.693848
v 113.653656 228.86441 -913.498779
v 24.743515 188.3927 -969.134033
v 41.0182343 209.001984 -945.166382
v 60.1213837 222.720856 -919.788879
v 81.0556488 231.862549 -893.174683
v 103.162933 237.28125 -863.650879
v 4.69483948 178.979248 -944.676819
v 14.7437897 202.01416 -920.673462
v 28.8063202 219.424561 -894.650696
v 45.9563446 231.901978 -869.072632
v 65.221817 240.735352 -843.464844
v 85.7256622 246.010071 -816.966736
v 71.5509491 254.910217 -770.10791
v 48.8719025 250.114929 -796.528198
v 37.4127655 258.505798 -753.74408
v 29.0590057 240.32489 -821.598694
v 15.6030731 248.883057 -779.472473
v 7.13023376 256.52948 -739.129578
v 12.5615082 226.367645 -847.193359
v -1.45231628 233.475006 -804.45343
v -11.8854218 241.217926 -764.644409
v -16.5103912 248.191254 -725.735107
v -0.197494507 208.441711 -873.685364
v -14.0683441 213.896393 -830.23999
v -25.4538422 220.118469 -789.743286
v -32.4234161 227.431335 -751.370483
v -33.0416107 233.523804 -714.071411
v -8.76716614 185.359131 -900.622681
v -22.2585602 189.706757 -857.53894
v -34.332077 194.35257 -816.178833
v -42.9454803 200.732758 -777.028687
v -46.4936371 208.132324 -740.072327
v -44.2030487 212.958588 -705.006165
v -13.3669586 155.856445 -926.486816
v -26.3202972 159.510895 -885.875916
v -39.1071625 162.965302 -844.812805
v -49.4409637 168.40921 -804.875305
v -55.4770966 176.050812 -767.083435
v -56.4720612 183.508575 -731.922485
v -52.243515 187.017578 -699.678711
v -11.5527802 121.09304 -958.582031
v -6.72169495 89.2142181 -988.045288
v -20.9256744 90.5328674 -948.528503
v -2.53697205 56.2850876 -1009.17065
v -15.2425995 56.6722679 -974.428101
v -32.1255951 60.2095528 -935.589661
v 2.30555725 24.5197468 -1022.60437
v -10.0426483 24.0933838 -990.162903
v -25.4703217 25.8257904 -956.552429
v -43.7308502 31.8689651 -919.640564
v 8.77513123 -5.47124481 -1028.57935
v -3.72801208 -6.75152588 -997.285767
v -18.4538116 -5.97565842 -965.968323
v -35.6646881 -2.12134552 -933.855896
v -53.659317 7.42832947 -899.487793
v 18.1175079 -33.4845848 -1027.4845
v 4.27149963 -35.9354324 -996.353271
v -10.4999237 -35.5310135 -965.262146
v -27.3765106 -32.4110641 -934.649536
v -45.100296 -25.0461121 -904.304016
v -61.6504974 -12.0324364 -873.187561
v 31.4189911 -58.5324478 -1020.12878
v 15.5773773 -63.0557327 -988.093079
v -0.288955688 -63.7134933 -955.793213
v -17.4627838 -60.978653 -924.512024
v -35.4756317 -54.3342743 -895.109009
v -52.4788361 -43.0286789 -867.717896
v -66.9068451 -27.759758 -841.311646
v 53.0251312 -76.1787491 -1019.94507
v 77.8296356 -83.991127 -1030.12976
v 56.4660797 -98.698204 -984.345703
v 102.998505 -89.5465012 -1038.29749
v 81.7186127 -107.277931 -993.921448
v 59.0847321 -117.486305 -946.275269
v 127.166595 -92.4505386 -1042.79663
v 105.334564 -113.077675 -1001.33374
v 83.998642 -125.983772 -955.781677
v 60.4491119 -131.934967 -907.568237
v 148.979523 -91.7003708 -1043.05322
v 126.739105 -115.37542 -1005.36194
v 105.671234 -130.71286 -962.902161
v 84.4624481 -139.235809 -917.2771
v 60.5236359 -141.203491 -870.366943
v 167.672577 -86.396019 -1038.70618
v 145.52121 -112.760948 -1005.5304
v 124.499176 -130.767853 -966.805115
v 104.293854 -141.447662 -924.368286
v 83.3290558 -145.802948 -880.297485
v 59.9270172 -144.304626 -837.175903
v 183.833405 -77.1674423 -1027.87585
v 161.944122 -104.106575 -1000.33801
v 140.979279 -124.369225 -966.461487
v 121.049713 -137.246368 -927.918457
v 101.438629 -143.569 -887.009216
v 81.0702667 -144.4935 -846.490112
v 59.2745209 -140.836304 -809.464233
v 203.920258 -57.2546768 -1016.15393
v 223.909821 -31.767662 -1005.71008
v 199.909454 -65.3958664 -980.831055
v 239.758698 -7.28678131 -989.20874
v 220.431854 -39.7390289 -966.961304
v 193.463715 -68.3937607 -944.028442
v 250.420746 16.3663273 -968.02655
v 236.158661 -14.9250679 -948.30603
v 213.835114 -42.2916183 -928.415039
v 184.845428 -65.8146439 -907.053284
v 255.004669 40.0767975 -942.408325
v 245.884064 10.0535202 -926.038086
v 228.691498 -16.3254013 -908.866882
v 204.482697 -39.1729889 -890.965881
v 174.683746 -58.492012 -871.149963
v 253.934113 65.066803 -910.229858
v 248.599213 36.4390831 -899.184509
v 236.64035 10.8994751 -885.535706
v 217.791534 -11.8105736 -870.74292
v 192.611847 -31.288765 -854.705872
v 163.7034 -47.9197769 -836.833313
v 248.240692 92.9699249 -869.507507
v 244.586212 66.0272217 -864.329163
v 236.461517 41.0872536 -855.845215
v 222.853729 18.3207855 -844.959412
v 203.230133 -2.20786095 -832.635742
v 178.712006 -19.8848114 -818.886719
v 152.641327 -35.0146866 -803.835205
v 238.396698 128.867035 -827.21759
v 226.413727 161.552307 -796.291199
v 223.138702 137.775085 -785.854309
v 210.28537 188.366547 -770.890808
v 207.006073 171.178467 -753.485352
v 202.873749 145.564331 -748.745544
v 190.293976 209.753082 -753.405884
v 186.992828 197.822083 -729.172729
v 182.866791 178.797333 -717.172913
v 178.972687 151.148407 -715.794678
v 166.267365 226.932556 -744.768616
v 163.117157 219.255737 -714.695068
v 159.033112 205.373016 -695.610901
v 155.292328 183.861084 -686.94873
v 153.142242 154.940338 -687.017212
v 137.674164 240.794708 -744.355164
v 134.711884 236.957062 -710.372253
v 130.783783 227.281647 -685.047241
v 127.342865 210.640533 -669.207825
v 126.086761 187.016388 -662.187622
v 127.744781 157.86734 -662.062317
v 104.222321 251.264465 -750.265137
v 100.748795 251.215942 -715.221313
v 96.8403778 245.589661 -685.639343
v 94.0224152 233.30249 -663.229187
v 94.2112579 213.895966 -648.794434
v 97.911911 188.523804 -641.74707
v 103.899567 159.398987 -640.907104
v 66.6389008 259.332581 -731.074524
v 32.3730011 262.180054 -715.991394
v 62.2372284 258.089935 -697.455322
v 4.74916077 258.717926 -702.477417
v 30.3184967 258.699615 -683.714172
v 59.9441681 249.905182 -669.303345
v -15.1526642 248.081787 -690.110535
v 6.87901306 252.095154 -671.106995
v 32.4497223 246.921692 -656.203552
v 61.5001373 233.782501 -647.354553
v -28.8931122 229.30719 -679.962219
v -9.44642639 236.448151 -659.982544
v 13.4965973 234.900787 -644.327393
v 39.2800446 225.417694 -634.281921
v 67.5012665 209.393158 -632.520569
v -38.945694 201.923828 -673.38855
v -21.468277 210.010345 -651.779053
v -0.309158325 210.998993 -634.798889
v 23.7493439 205.172546 -623.537109
v 49.7438507 193.523285 -619.838928
v 76.7204132 177.739471 -625.450867
v -25.1793365 125.57972 -917.308899
v -37.1811371 95.147438 -906.574524
v -39.6147614 128.800537 -875.764099
v -49.9611664 66.734436 -894.605469
v -52.513443 100.283974 -865.561462
v -52.3957672 133.728241 -834.822754
v -61.0636749 41.1580315 -880.404846
v -64.4246674 74.6083832 -854.621582
v -64.2168732 107.809532 -825.104248
v -61.2786102 141.469452 -794.91748
v -69.5860443 18.813036 -861.186462
v -73.8167572 50.9372215 -840.654724
v -74.067215 83.6970367 -813.776611
v -70.7811432 116.871346 -784.35907
v -64.9104156 150.375244 -756.069519
v -75.6281586 -0.760259628 -833.640869
v -80.4866791 28.4225197 -819.350891
v -81.3781586 59.4880371 -797.188904
v -78.1863251 91.8305817 -770.036438
v -71.5194855 124.636528 -742.476562
v -62.7101593 156.87323 -718.298462
v 33.2673187 -84.2619553 -982.10675
v 34.6473541 -104.58535 -941.629883
v 14.7645111 -87.2021561 -945.461548
v 35.4154205 -120.340126 -900.847595
v 13.8240204 -104.952782 -902.256653
v -3.89900208 -85.5857315 -910.624634
v 35.4435883 -131.56076 -861.187805
v 12.6012421 -117.815178 -860.118469
v -7.18391418 -100.420525 -866.116089
v -23.4880524 -79.5261917 -878.515991
v 35.4137421 -137.28479 -824.703064
v 11.6550751 -125.48362 -820.372192
v -9.90394592 -109.635048 -823.527222
v -28.3739471 -90.3644943 -833.727783
v -42.842392 -68.2540817 -849.507629
v 36.1756744 -136.486176 -793.510071
v 12.155014 -127.203362 -784.665771
v -11.0668488 -113.280479 -783.549255
v -31.7361908 -95.3503189 -790.455566
v -48.4732208 -74.5531693 -804.299255
v -60.2479401 -51.9274368 -822.566956
v 179.64212 -87.8002396 -992.166077
v 173.130646 -92.0105057 -955.384521
v 156.478607 -110.7976 -962.517029
v 164.779694 -89.9297867 -918.108765
v 148.899994 -110.072639 -924.822632
v 135.13913 -126.148521 -927.671082
v 155.184235 -82.7400589 -880.932495
v 139.87674 -103.596886 -887.13208
v 127.07309 -121.043327 -889.549438
v 114.889801 -134.634766 -888.930176
v 144.951324 -71.6121292 -844.228577
v 129.94046 -92.7681961 -849.118835
v 117.508209 -110.99752 -851.067078
v 106.128693 -125.967598 -850.351929
v 94.4249725 -137.449158 -848.054565
v 134.611176 -57.107666 -807.766724
v 119.392242 -78.0330887 -810.331604
v 106.60611 -96.837532 -811.222778
v 95.1212616 -112.832481 -810.553162
v 83.9096222 -125.866402 -808.901672
v 72.121048 -135.507294 -807.816284
v 235.928925 100.946175 -824.905151
v 218.605377 109.021736 -785.713623
v 229.612823 74.3403168 -821.552246
v 197.364655 115.664299 -750.375732
v 210.656219 82.0518951 -784.185059
v 219.466278 49.9888306 -815.166443
v 173.555695 120.762032 -717.726685
v 188.934967 88.4878235 -749.471558
v 199.217621 57.5839195 -779.154846
v 204.331268 27.4602737 -806.320129
v 148.800934 125.27523 -687.085205
v 165.416351 94.0730972 -715.800354
v 176.910126 63.8742256 -744.458191
v 182.807709 34.703167 -770.904724
v 183.137909 6.82542801 -795.091125
v 123.480804 128.662415 -658.738831
v 139.910492 98.1145401 -682.805237
v 151.813568 68.336319 -709.455383
v 158.129303 39.9376259 -735.243958
v 159.353363 13.2756557 -758.854187
v 157.01297 -11.6883888 -781.314209
v -11.6300201 -14.3300667 -654.246094
v 5.72895813 8.46455002 -643.254028
v -25.4701385 11.9652863 -646.207031
v 25.7761688 33.7370987 -634.397827
v -6.65586853 39.7341309 -631.578552
v -36.4968719 41.8628693 -642.686768
v 46.5138092 60.5831909 -628.49707
v 13.7512054 68.8161621 -621.057129
v -16.4171295 73.6640015 -626.461853
v -43.9800873 74.3541107 -644.639893
v 65.4720001 87.9743195 -625.924438
v 33.3448944 98.446312 -614.976746
v 3.57566833 105.626762 -616.328247
v -23.8139801 109.039665 -628.506042
v -48.3075714 107.538582 -652.062805
v 81.155014 114.589897 -627.046326
v 50.4000397 127.501701 -613.480469
v 21.4864349 137.056519 -611.755859
v -5.38749695 142.845734 -620.018066
v -29.6777191 143.935303 -637.36084
v -50.5382843 139.028259 -664.202271
v 93.4458771 138.866394 -632.053162
v 64.4691925 154.475861 -616.778931
v 36.5679169 166.91214 -612.733521
v 10.2447968 175.313263 -618.253479
v -13.7751923 178.579224 -631.849548
v -34.7328339 175.857727 -652.467163
v -51.8112335 166.226807 -680.267395
v 13.5401459 -23.8390579 -660.664856
v 38.9598846 -29.9096222 -673.928528
v 34.0425262 0.451372147 -653.43042
v 63.5739594 -33.0073814 -693.12146
v 60.7654266 -4.1665802 -670.386841
v 56.3390961 26.0425148 -648.895874
v 86.7701569 -34.1239738 -717.16748
v 85.8181305 -6.59855652 -692.6698
v 83.9657745 21.4275074 -669.78241
v 78.0993195 52.22966 -647.161987
v 108.767609 -34.4544792 -744.634766
v 109.599213 -8.11624908 -719.255981
v 109.447235 18.4622803 -695.539062
v 106.077362 46.8910713 -671.887024
v 96.8798981 78.5826263 -647.998596
v 130.410004 -34.8223534 -773.958862
v 132.954071 -9.73468018 -749.133301
v 134.071503 15.9797115 -725.421021
v 132.079376 43.1186333 -701.351013
v 124.896088 72.4960632 -676.15509
v 111.690521 104.455315 -651.62854
v -10.0302887 -40.8854599 -667.986694
v -4.08711243 -64.2963333 -683.174683
v 17.305069 -50.7321701 -677.812134
v 5.55198669 -84.8637772 -700.901489
v 24.8923492 -73.1955185 -696.786987
v 43.5591278 -56.2530594 -694.763306
v 17.5844879 -102.80674 -721.774414
v 34.9644928 -92.2906723 -718.410034
v 51.2510223 -77.6160049 -717.489136
v 67.9051971 -58.5842285 -717.334473
v 30.9671173 -118.302788 -746.347046
v 46.4615631 -108.849724 -743.318481
v 60.7920685 -95.6946182 -743.084778
v 74.9984589 -79.2199478 -743.70166
v 90.3709869 -58.9326706 -744.371826
v 45.0020599 -131.222504 -775.34845
v 58.8585052 -123.372185 -772.574341
v 71.6161041 -111.672447 -772.836914
v 83.996933 -96.95327 -773.921265
v 97.0259857 -79.2170029 -774.742554
v 111.931366 -58.3068161 -774.864014
v -34.9286652 -19.2607231 -663.009277
v -54.1965179 -21.9786339 -678.704407
v -31.942337 -47.0515671 -677.086792
v -68.2260284 -23.1530914 -702.163147
v -48.7661896 -50.3842316 -693.045105
v -23.8463898 -70.7735825 -692.434326
v -76.3118744 -23.5600815 -732.390381
v -60.2532806 -51.7509613 -716.391968
v -38.2061005 -74.208992 -708.795227
v -11.9473724 -91.3343887 -710.466492
v -78.4091034 -24.2827835 -767.11615
v -66.027298 -51.9314499 -746.582336
v -47.3790436 -75.5571671 -732.782349
v -24.0191193 -94.7929306 -727.852966
v 2.47010803 -109.231697 -732.312195
v -74.9782867 -25.9417152 -803.970459
v -65.9808502 -51.952446 -782.3255
v -50.9819489 -75.507515 -764.581299
v -30.8701935 -96.0569077 -753.998596
v -7.14268494 -112.624596 -752.224243
v 18.6575165 -124.513283 -759.353821
v -50.0830841 9.3368988 -661.728271
v -59.8511505 40.127327 -665.979675
v -68.1144867 8.23290634 -685.868225
v -64.876358 71.9560547 -674.316406
v -75.1916351 38.8382721 -697.518555
v -79.4463959 7.5495739 -717.388794
v -66.0060577 103.313515 -685.995483
v -77.219162 69.1647949 -711.010742
v -83.4261322 36.9652519 -735.001526
v -84.2515106 6.24240112 -753.989502
v -64.8721466 132.322388 -700.608887
v -75.5355988 98.2520828 -725.772217
v -82.5720062 65.168045 -752.519165
v -85.1489716 33.5699005 -776.218018
v -82.839798 3.38011169 -793.297424
g 
f 3 1 2
f 5 2 4
f 6 3 5
f 8 4 7
f 9 5 8
f 10 6 9
f 12 7 11
f 13 8 12
f 14 9 13
f 15 10 14
f 17 11 16
f 18 12 17
f 19 13 18
f 20 14 19
f 21 15 20
f 23 16 22
f 24 17 23
f 25 18 24
f 26 19 25
f 27 20 26
f 28 21 27
f 30 22 29
f 31 23 30
f 32 24 31
f 33 25 32
f 34 26 33
f 35 27 34
f 36 28 35
f 3 2 5
f 5 4 8
f 6 5 9
f 8 7 12
f 9 8 13
f 10 9 14
f 12 11 17
f 13 12 18
f 14 13 19
f 15 14 20
f 17 16 23
f 18 17 24
f 19 18 25
f 20 19 26
f 21 20 27
f 23 22 30
f 24 23 31
f 25 24 32
f 26 25 33
f 27 26 34
f 28 27 35
f 37 1 3
f 38 3 6
f 39 37 38
f 40 6 10
f 41 38 40
f 42 39 41
f 43 10 15
f 44 40 43
f 45 41 44
f 46 42 45
f 47 15 21
f 48 43 47
f 49 44 48
f 50 45 49
f 51 46 50
f 52 21 28
f 53 47 52
f 54 48 53
f 55 49 54
f 56 50 55
f 57 51 56
f 58 28 36
f 59 52 58
f 60 53 59
f 61 54 60
f 62 55 61
f 63 56 62
f 64 57 63
f 37 3 38
f 38 6 40
f 39 38 41
f 40 10 43
f 41 40 44
f 42 41 45
f 43 15 47
f 44 43 48
f 45 44 49
f 46 45 50
f 47 21 52
f 48 47 53
f 49 48 54
f 50 49 55
f 51 50 56
f 52 28 58
f 53 52 59
f 54 53 60
f 55 54 61
f 56 55 62
f 57 56 63
f 65 1 37
f 66 37 39
f 67 65 66
f 68 39 42
f 69 66 68
f 70 67 69
f 71 42 46
f 72 68 71
f 73 69 72
f 74 70 73
f 75 46 51
f 76 71 75
f 77 72 76
f 78 73 77
f 79 74 78
f 80 51 57
f 81 75 80
f 82 76 81
f 83 77 82
f 84 78 83
f 85 79 84
f 86 57 64
f 87 80 86
f 88 81 87
f 89 82 88
f 90 83 89
f 91 84 90
f 92 85 91
f 65 37 66
f 66 39 68
f 67 66 69
f 68 42 71
f 69 68 72
f 70 69 73
f 71 46 75
f 72 71 76
f 73 72 77
f 74 73 78
f 75 51 80
f 76 75 81
f 77 76 82
f 78 77 83
f 79 78 84
f 80 57 86
f 81 80 87
f 82 81 88
f 83 82 89
f 84 83 90
f 85 84 91
f 93 1 65
f 94 65 67
f 95 93 94
f 96 67 70
f 97 94 96
f 98 95 97
f 99 70 74
f 100 96 99
f 101 97 100
f 102 98 101
f 103 74 79
f 104 99 103
f 105 100 104
f 106 101 105
f 107 102 106
f 108 79 85
f 109 103 108
f 110 104 109
f 111 105 110
f 112 106 111
f 113 107 112
f 114 85 92
f 115 108 114
f 116 109 115
f 117 110 116
f 118 111 117
f 119 112 118
f 120 113 119
f 93 65 94
f 94 67 96
f 95 94 97
f 96 70 99
f 97 96 100
f 98 97 101
f 99 74 103
f 100 99 104
f 101 100 105
f 102 101 106
f 103 79 108
f 104 103 109
f 105 104 110
f 106 105 111
f 107 106 112
f 108 85 114
f 109 108 115
f 110 109 116
f 111 110 117
f 112 111 118
f 113 112 119
f 2 1 93
f 121 93 95
f 4 2 121
f 122 95 98
f 123 121 122
f 7 4 123
f 124 98 102
f 125 122 124
f 126 123 125
f 11 7 126
f 127 102 107
f 128 124 127
f 129 125 128
f 130 126 129
f 16 11 130
f 131 107 113
f 132 127 131
f 133 128 132
f 134 129 133
f 135 130 134
f 22 16 135
f 136 113 120
f 137 131 136
f 138 132 137
f 139 133 138
f 140 134 139
f 141 135 140
f 29 22 141
f 2 93 121
f 121 95 122
f 4 121 123
f 122 98 124
f 123 122 125
f 7 123 126
f 124 102 127
f 125 124 128
f 126 125 129
f 11 126 130
f 127 107 131
f 128 127 132
f 129 128 133
f 130 129 134
f 16 130 135
f 131 113 136
f 132 131 137
f 133 132 138
f 134 133 139
f 135 134 140
f 22 135 141
f 142 29 141
f 143 141 140
f 144 142 143
f 145 140 139
f 146 143 145
f 147 144 146
f 148 139 138
f 149 145 148
f 150 146 149
f 151 147 150
f 152 138 137
f 153 148 152
f 154 149 153
f 155 150 154
f 156 151 155
f 157 137 136
f 158 152 157
f 159 153 158
f 160 154 159
f 161 155 160
f 162 156 161
f 163 136 120
f 164 157 163
f 165 158 164
f 166 159 165
f 167 160 166
f 168 161 167
f 169 162 168
f 142 141 143
f 143 140 145
f 144 143 146
f 145 139 148
f 146 145 149
f 147 146 150
f 148 138 152
f 149 148 153
f 150 149 154
f 151 150 155
f 152 137 157
f 153 152 158
f 154 153 159
f 155 154 160
f 156 155 161
f 157 136 163
f 158 157 164
f 159 158 165
f 160 159 166
f 161 160 167
f 162 161 168
f 170 120 119
f 171 119 118
f 172 170 171
f 173 118 117
f 174 171 173
f 175 172 174
f 176 117 116
f 177 173 176
f 178 174 177
f 179 175 178
f 180 116 115
f 181 176 180
f 182 177 181
f 183 178 182
f 184 179 183
f 185 115 114
f 186 180 185
f 187 181 186
f 188 182 187
f 189 183 188
f 190 184 189
f 191 114 92
f 192 185 191
f 193 186 192
f 194 187 193
f 195 188 194
f 196 189 195
f 197 190 196
f 170 119 171
f 171 118 173
f 172 171 174
f 173 117 176
f 174 173 177
f 175 174 178
f 176 116 180
f 177 176 181
f 178 177 182
f 179 178 183
f 180 115 185
f 181 180 186
f 182 181 187
f 183 182 188
f 184 183 189
f 185 114 191
f 186 185 192
f 187 186 193
f 188 187 194
f 189 188 195
f 190 189 196
f 198 92 91
f 199 91 90
f 200 198 199
f 201 90 89
f 202 199 201
f 203 200 202
f 204 89 88
f 205 201 204
f 206 202 205
f 207 203 206
f 208 88 87
f 209 204 208
f 210 205 209
f 211 206 210
f 212 207 211
f 213 87 86
f 214 208 213
f 215 209 214
f 216 210 215
f 217 211 216
f 218 212 217
f 219 86 64
f 220 213 219
f 221 214 220
f 222 215 221
f 223 216 222
f 224 217 223
f 225 218 224
f 198 91 199
f 199 90 201
f 200 199 202
f 201 89 204
f 202 201 205
f 203 202 206
f 204 88 208
f 205 204 209
f 206 205 210
f 207 206 211
f 208 87 213
f 209 208 214
f 210 209 215
f 211 210 216
f 212 211 217
f 213 86 219
f 214 213 220
f 215 214 221
f 216 215 222
f 217 216 223
f 218 217 224
f 226 64 63
f 227 63 62
f 228 226 227
f 229 62 61
f 230 227 229
f 231 228 230
f 232 61 60
f 233 229 232
f 234 230 233
f 235 231 234
f 236 60 59
f 237 232 236
f 238 233 237
f 239 234 238
f 240 235 239
f 241 59 58
f 242 236 241
f 243 237 242
f 244 238 243
f 245 239 244
f 246 240 245
f 247 58 36
f 248 241 247
f 249 242 248
f 250 243 249
f 251 244 250
f 252 245 251
f 253 246 252
f 226 63 227
f 227 62 229
f 228 227 230
f 229 61 232
f 230 229 233
f 231 230 234
f 232 60 236
f 233 232 237
f 234 233 238
f 235 234 239
f 236 59 241
f 237 236 242
f 238 237 243
f 239 238 244
f 240 239 245
f 241 58 247
f 242 241 248
f 243 242 249
f 244 243 250
f 245 244 251
f 246 245 252
f 254 36 35
f 255 35 34
f 256 254 255
f 257 34 33
f 258 255 257
f 259 256 258
f 260 33 32
f 261 257 260
f 262 258 261
f 263 259 262
f 264 32 31
f 265 260 264
f 266 261 265
f 267 262 266
f 268 263 267
f 269 31 30
f 270 264 269
f 271 265 270
f 272 266 271
f 273 267 272
f 274 268 273
f 275 30 29
f 276 269 275
f 277 270 276
f 278 271 277
f 279 272 278
f 280 273 279
f 281 274 280
f 254 35 255
f 255 34 257
f 256 255 258
f 257 33 260
f 258 257 261
f 259 258 262
f 260 32 264
f 261 260 265
f 262 261 266
f 263 262 267
f 264 31 269
f 265 264 270
f 266 265 271
f 267 266 272
f 268 267 273
f 269 30 275
f 270 269 276
f 271 270 277
f 272 271 278
f 273 272 279
f 274 273 280
f 275 29 142
f 282 142 144
f 276 275 282
f 283 144 147
f 284 282 283
f 277 276 284
f 285 147 151
f 286 283 285
f 287 284 286
f 278 277 287
f 288 151 156
f 289 285 288
f 290 286 289
f 291 287 290
f 279 278 291
f 292 156 162
f 293 288 292
f 294 289 293
f 295 290 294
f 296 291 295
f 280 279 296
f 297 162 169
f 298 292 297
f 299 293 298
f 300 294 299
f 301 295 300
f 302 296 301
f 281 280 302
f 275 142 282
f 282 144 283
f 276 282 284
f 283 147 285
f 284 283 286
f 277 284 287
f 285 151 288
f 286 285 289
f 287 286 290
f 278 287 291
f 288 156 292
f 289 288 293
f 290 289 294
f 291 290 295
f 279 291 296
f 292 162 297
f 293 292 298
f 294 293 299
f 295 294 300
f 296 295 301
f 280 296 302
f 163 120 170
f 303 170 172
f 164 163 303
f 304 172 175
f 305 303 304
f 165 164 305
f 306 175 179
f 307 304 306
f 308 305 307
f 166 165 308
f 309 179 184
f 310 306 309
f 311 307 310
f 312 308 311
f 167 166 312
f 313 184 190
f 314 309 313
f 315 310 314
f 316 311 315
f 317 312 316
f 168 167 317
f 318 190 197
f 319 313 318
f 320 314 319
f 321 315 320
f 322 316 321
f 323 317 322
f 169 168 323
f 163 170 303
f 303 172 304
f 164 303 305
f 304 175 306
f 305 304 307
f 165 305 308
f 306 179 309
f 307 306 310
f 308 307 311
f 166 308 312
f 309 184 313
f 310 309 314
f 311 310 315
f 312 311 316
f 167 312 317
f 313 190 318
f 314 313 319
f 315 314 320
f 316 315 321
f 317 316 322
f 168 317 323
f 191 92 198
f 324 198 200
f 192 191 324
f 325 200 203
f 326 324 325
f 193 192 326
f 327 203 207
f 328 325 327
f 329 326 328
f 194 193 329
f 330 207 212
f 331 327 330
f 332 328 331
f 333 329 332
f 195 194 333
f 334 212 218
f 335 330 334
f 336 331 335
f 337 332 336
f 338 333 337
f 196 195 338
f 339 218 225
f 340 334 339
f 341 335 340
f 342 336 341
f 343 337 342
f 344 338 343
f 197 196 344
f 191 198 324
f 324 200 325
f 192 324 326
f 325 203 327
f 326 325 328
f 193 326 329
f 327 207 330
f 328 327 331
f 329 328 332
f 194 329 333
f 330 212 334
f 331 330 335
f 332 331 336
f 333 332 337
f 195 333 338
f 334 218 339
f 335 334 340
f 336 335 341
f 337 336 342
f 338 337 343
f 196 338 344
f 219 64 226
f 345 226 228
f 220 219 345
f 346 228 231
f 347 345 346
f 221 220 347
f 348 231 235
f 349 346 348
f 350 347 349
f 222 221 350
f 351 235 240
f 352 348 351
f 353 349 352
f 354 350 353
f 223 222 354
f 355 240 246
f 356 351 355
f 357 352 356
f 358 353 357
f 359 354 358
f 224 223 359
f 360 246 253
f 361 355 360
f 362 356 361
f 363 357 362
f 364 358 363
f 365 359 364
f 225 224 365
f 219 226 345
f 345 228 346
f 220 345 347
f 346 231 348
f 347 346 349
f 221 347 350
f 348 235 351
f 349 348 352
f 350 349 353
f 222 350 354
f 351 240 355
f 352 351 356
f 353 352 357
f 354 353 358
f 223 354 359
f 355 246 360
f 356 355 361
f 357 356 362
f 358 357 363
f 359 358 364
f 224 359 365
f 247 36 254
f 366 254 256
f 248 247 366
f 367 256 259
f 368 366 367
f 249 248 368
f 369 259 263
f 370 367 369
f 371 368 370
f 250 249 371
f 372 263 268
f 373 369 372
f 374 370 373
f 375 371 374
f 251 250 375
f 376 268 274
f 377 372 376
f 378 373 377
f 379 374 378
f 380 375 379
f 252 251 380
f 381 274 281
f 382 376 381
f 383 377 382
f 384 378 383
f 385 379 384
f 386 380 385
f 253 252 386
f 247 254 366
f 366 256 367
f 248 366 368
f 367 259 369
f 368 367 370
f 249 368 371
f 369 263 372
f 370 369 373
f 371 370 374
f 250 371 375
f 372 268 376
f 373 372 377
f 374 373 378
f 375 374 379
f 251 375 380
f 376 274 381
f 377 376 382
f 378 377 383
f 379 378 384
f 380 379 385
f 252 380 386
f 389 387 388
f 391 388 390
f 392 389 391
f 394 390 393
f 395 391 394
f 396 392 395
f 398 393 397
f 399 394 398
f 400 395 399
f 401 396 400
f 403 397 402
f 404 398 403
f 405 399 404
f 406 400 405
f 407 401 406
f 409 402 408
f 410 403 409
f 411 404 410
f 412 405 411
f 413 406 412
f 414 407 413
f 302 408 281
f 301 409 302
f 300 410 301
f 299 411 300
f 298 412 299
f 297 413 298
f 169 414 297
f 389 388 391
f 391 390 394
f 392 391 395
f 394 393 398
f 395 394 399
f 396 395 400
f 398 397 403
f 399 398 404
f 400 399 405
f 401 400 406
f 403 402 409
f 404 403 410
f 405 404 411
f 406 405 412
f 407 406 413
f 409 408 302
f 410 409 301
f 411 410 300
f 412 411 299
f 413 412 298
f 414 413 297
f 388 387 415
f 417 415 416
f 390 388 417
f 419 416 418
f 420 417 419
f 393 390 420
f 422 418 421
f 423 419 422
f 424 420 423
f 397 393 424
f 426 421 425
f 427 422 426
f 428 423 427
f 429 424 428
f 402 397 429
f 431 425 430
f 432 426 431
f 433 427 432
f 434 428 433
f 435 429 434
f 408 402 435
f 386 430 253
f 385 431 386
f 384 432 385
f 383 433 384
f 382 434 383
f 381 435 382
f 281 408 381
f 388 415 417
f 417 416 419
f 390 417 420
f 419 418 422
f 420 419 423
f 393 420 424
f 422 421 426
f 423 422 427
f 424 423 428
f 397 424 429
f 426 425 431
f 427 426 432
f 428 427 433
f 429 428 434
f 402 429 435
f 431 430 386
f 432 431 385
f 433 432 384
f 434 433 383
f 435 434 382
f 408 435 381
f 415 387 436
f 438 436 437
f 416 415 438
f 440 437 439
f 441 438 440
f 418 416 441
f 443 439 442
f 444 440 443
f 445 441 444
f 421 418 445
f 447 442 446
f 448 443 447
f 449 444 448
f 450 445 449
f 425 421 450
f 452 446 451
f 453 447 452
f 454 448 453
f 455 449 454
f 456 450 455
f 430 425 456
f 365 451 225
f 364 452 365
f 363 453 364
f 362 454 363
f 361 455 362
f 360 456 361
f 253 430 360
f 415 436 438
f 438 437 440
f 416 438 441
f 440 439 443
f 441 440 444
f 418 441 445
f 443 442 447
f 444 443 448
f 445 444 449
f 421 445 450
f 447 446 452
f 448 447 453
f 449 448 454
f 450 449 455
f 425 450 456
f 452 451 365
f 453 452 364
f 454 453 363
f 455 454 362
f 456 455 361
f 430 456 360
f 436 387 457
f 459 457 458
f 437 436 459
f 461 458 460
f 462 459 461
f 439 437 462
f 464 460 463
f 465 461 464
f 466 462 465
f 442 439 466
f 468 463 467
f 469 464 468
f 470 465 469
f 471 466 470
f 446 442 471
f 473 467 472
f 474 468 473
f 475 469 474
f 476 470 475
f 477 471 476
f 451 446 477
f 344 472 197
f 343 473 344
f 342 474 343
f 341 475 342
f 340 476 341
f 339 477 340
f 225 451 339
f 436 457 459
f 459 458 461
f 437 459 462
f 461 460 464
f 462 461 465
f 439 462 466
f 464 463 468
f 465 464 469
f 466 465 470
f 442 466 471
f 468 467 473
f 469 468 474
f 470 469 475
f 471 470 476
f 446 471 477
f 473 472 344
f 474 473 343
f 475 474 342
f 476 475 341
f 477 476 340
f 451 477 339
f 457 387 389
f 478 389 392
f 458 457 478
f 479 392 396
f 480 478 479
f 460 458 480
f 481 396 401
f 482 479 481
f 483 480 482
f 463 460 483
f 484 401 407
f 485 481 484
f 486 482 485
f 487 483 486
f 467 463 487
f 488 407 414
f 489 484 488
f 490 485 489
f 491 486 490
f 492 487 491
f 472 467 492
f 323 414 169
f 322 488 323
f 321 489 322
f 320 490 321
f 319 491 320
f 318 492 319
f 197 472 318
f 457 389 478
f 478 392 479
f 458 478 480
f 479 396 481
f 480 479 482
f 460 480 483
f 481 401 484
f 482 481 485
f 483 482 486
f 463 483 487
f 484 407 488
f 485 484 489
f 486 485 490
f 487 486 491
f 467 487 492
f 488 414 323
f 489 488 322
f 490 489 321
f 491 490 320
f 492 491 319
f 472 492 318
