# File exported by Houdini 20.5.445 (www.sidefx.com)
# 492 points
# 2940 vertices
# 980 primitives
# Bounds: [-115.588379, -152.923355, -1102.31934] to [286.362305, 269.300476, -652.481689]
g 
v 95.5964355 17.5980873 -1102.31934
v 70.8605042 53.1811523 -1099.35168
v 118.226746 22.8297024 -1099.62183
v 47.3013611 89.4233551 -1089.70264
v 91.8135986 62.6697578 -1090.32776
v 139.413879 32.8479195 -1090.08887
v 27.0638428 125.121185 -1074.56921
v 67.5026245 99.7744141 -1075.44702
v 112.30957 74.3665771 -1075.31055
v 160.026184 44.9822807 -1075.73279
v 10.3346558 158.71875 -1054.75879
v 45.9887695 134.368484 -1056.92993
v 87.2880859 110.947388 -1056.78284
v 132.601685 86.6172943 -1056.83777
v 179.80249 58.3710785 -1057.44202
v -3.53036499 188.832321 -1030.29626
v 26.9815674 166.509399 -1035.14636
v 64.0135803 144.196732 -1036.11938
v 106.538391 122.294754 -1036.05176
v 152.276184 99.3140259 -1036.37219
v 197.992188 72.7541199 -1036.65613
v -15.1209412 214.240829 -1001.17834
v 10.4199829 195.595856 -1009.34155
v 42.7461548 175.161804 -1012.90564
v 81.6214294 154.648544 -1013.95056
v 125.370178 134.516083 -1014.47632
v 170.63501 113.203796 -1015.1438
v 213.235168 88.4072876 -1015.04773
v -24.5800476 233.44104 -967.471191
v -3.76947021 220.618774 -978.085083
v 23.6566162 203.983536 -984.919067
v 58.1514282 185.68486 -988.492065
v 98.8897705 167.437698 -990.515991
v 143.20697 149.144562 -992.278442
v 186.564697 128.851425 -993.619263
v 224.581421 105.037613 -993.540405
v 133.865295 -15.8834343 -1100.31348
v 160.049133 -10.4508896 -1097.66309
v 168.40155 -48.4795532 -1094.08167
v 182.647583 0.294174194 -1088.69263
v 195.455627 -41.720871 -1091.6792
v 196.719421 -78.797226 -1083.60095
v 202.950134 13.8257408 -1074.15515
v 217.466919 -29.6019859 -1082.7832
v 223.48114 -70.3173676 -1081.19409
v 217.882874 -104.692276 -1068.56458
v 221.326904 29.4228745 -1054.32983
v 236.207886 -13.996418 -1066.59033
v 244.17926 -56.2703934 -1070.74414
v 244.046753 -94.5090637 -1064.79004
v 232.027405 -124.498718 -1048.3894
v 237.116028 47.1023102 -1030.85095
v 252.270447 4.58899307 -1043.84546
v 260.751343 -37.9857025 -1051.35632
v 263.047058 -78.2371216 -1050.80615
v 256.779114 -112.720581 -1041.44397
v 238.960266 -137.769867 -1023.5426
v 248.890259 67.0558929 -1005.41003
v 265.00177 26.3023052 -1016.26648
v 273.83905 -15.6651802 -1024.14563
v 276.575928 -56.7292175 -1026.46704
v 272.705627 -93.9230194 -1022.28442
v 260.172424 -123.8302 -1011.66736
v 238.326721 -143.659348 -994.745728
v 94.3327637 -2.53385353 -1096.86035
v 132.171631 -39.7648163 -1090.99731
v 89.1132202 -17.1368408 -1084.81177
v 162.834412 -73.931015 -1080.49963
v 124.271423 -55.4097748 -1075.26587
v 80.0622559 -27.1193771 -1069.15161
v 185.671326 -103.502258 -1065.672
v 150.08667 -88.6261292 -1060.70874
v 111.278076 -64.3250427 -1055.77222
v 68.1853027 -33.562027 -1051.07727
v 201.334778 -126.805771 -1046.17688
v 167.83197 -115.948334 -1041.55737
v 132.218567 -95.171936 -1036.84253
v 94.5895996 -68.2859192 -1033.44482
v 54.2260742 -37.6781006 -1030.92993
v 210.125488 -143.145767 -1021.79443
v 178.322693 -136.913071 -1017.78442
v 144.792603 -120.148819 -1013.22278
v 110.250427 -96.448761 -1009.94458
v 75.0915527 -69.1438904 -1008.79358
v 39.0350952 -39.9670486 -1008.71802
v 212.022583 -151.636276 -992.246704
v 181.877136 -149.858963 -988.144653
v 149.843872 -138.122223 -983.760986
v 117.277039 -118.264908 -980.611206
v 85.1076355 -93.8376923 -979.845703
v 53.8986511 -67.3252563 -981.468262
v 23.5270691 -40.3280334 -983.943848
v 57.0887451 39.0466919 -1099.10754
v 52.0332642 23.1505947 -1090.04749
v 20.4938049 63.4472389 -1090.91455
v 44.4094543 12.1036491 -1076.33069
v 12.7212524 49.7113686 -1078.99231
v -12.443573 88.5346375 -1078.16187
v 35.0107117 3.8456707 -1060.8197
v 3.69509888 39.5248184 -1064.61523
v -22.5683594 75.0735016 -1064.76245
v -40.5313416 112.21048 -1061.82495
v 24.7511597 -3.03926468 -1043.52087
v -5.18200684 30.6939888 -1049.06897
v -32.1438904 64.2236938 -1049.93909
v -52.4645691 98.2781219 -1047.84241
v -63.2698364 133.260986 -1042.83472
v 13.5076599 -9.01750946 -1023.76257
v -13.8220215 22.3126774 -1031.48096
v -40.1521912 54.1361427 -1033.4292
v -61.8392639 86.4480591 -1031.71643
v -75.5653381 118.97023 -1027.73328
v -80.0261841 150.973602 -1021.19312
v 1.37588501 -13.4105568 -1000.04858
v -23.0524902 14.8067818 -1009.90967
v -47.6447754 44.6248894 -1013.47449
v -69.2598572 75.6176453 -1012.4043
v -84.5413818 106.91124 -1008.73621
v -91.5910034 137.234909 -1003.62195
v -91.3475037 165.158569 -996.606934
v 31.7473755 76.9551544 -1095.81165
v -1.21539307 102.31041 -1086.38904
v 11.3399048 114.340118 -1085.50903
v -28.0562439 126.785049 -1071.55505
v -16.0839539 139.176468 -1074.28674
v -4.38806152 150.189774 -1068.35913
v -49.7546997 148.743744 -1052.3689
v -37.1737976 161.795105 -1056.67554
v -26.8338623 173.374603 -1054.04956
v -16.6827393 182.770309 -1044.8042
v -67.5706177 167.486542 -1029.70386
v -54.7457275 181.217682 -1033.61902
v -44.4205933 193.378906 -1032.08154
v -35.950531 203.623489 -1025.30713
v -26.831604 210.760696 -1014.70142
v -81.4801636 182.330658 -1002.88733
v -70.5139465 196.839142 -1005.20447
v -60.6227417 209.25499 -1002.62976
v -52.3554382 219.76593 -996.074585
v -44.4664307 227.67865 -987.321899
v -35.713562 232.304062 -977.473999
v -39.4776001 245.977356 -935.505371
v -50.5696411 242.835129 -943.713989
v -52.3612671 251.802872 -901.132324
v -59.3633423 236.327942 -952.96582
v -63.5986938 245.434738 -909.675171
v -64.1592712 252.523636 -867.109619
v -67.3654785 227.330444 -962.075562
v -72.408783 236.794815 -919.547119
v -75.6908569 243.240982 -877.004639
v -76.1754456 250.748459 -835.382568
v -75.3162231 216.361191 -969.582642
v -80.2834778 226.894455 -929.193359
v -84.6670532 233.254974 -887.393677
v -87.7929077 239.614807 -846.194092
v -88.2016296 248.416687 -806.494141
v -84.1796265 203.24588 -973.498169
v -87.9006348 215.814056 -937.050537
v -92.447937 223.221725 -896.618652
v -96.661377 229.224304 -855.727295
v -99.3588562 236.561157 -816.579102
v -98.644165 245.900665 -780.039917
v -93.8321838 186.665024 -972.389771
v -95.8012695 202.194748 -941.049316
v -99.4391785 212.316055 -903.145264
v -103.810547 219.504913 -862.58252
v -107.339111 226.309464 -823.203857
v -108.444366 234.038971 -787.221436
v -105.258087 242.080704 -755.561401
v -100.514435 160.388489 -974.957275
v -99.2850952 129.548141 -981.790039
v -106.338226 154.174042 -951.696167
v -90.2275391 97.4942169 -987.069458
v -102.810669 120.980331 -959.280273
v -109.299591 147.199188 -926.745483
v -73.7538147 65.6427307 -990.431274
v -91.708313 87.9219513 -964.595215
v -103.259399 112.530121 -935.020142
v -109.740021 139.655914 -899.885254
v -52.0986938 34.9054413 -989.90979
v -74.2304382 55.9652214 -966.541382
v -90.1703186 79.1394806 -939.289673
v -100.944519 104.553619 -907.705322
v -107.337799 131.376236 -870.823608
v -27.8004761 5.62070465 -982.955566
v -52.041687 25.4573154 -962.349609
v -71.2739868 47.237648 -937.792358
v -85.5081787 71.2175598 -909.058472
v -95.372345 96.7321167 -876.148193
v -101.374939 122.241318 -839.223145
v -3.11691284 -22.9465942 -967.692261
v -26.8499451 -4.42878723 -948.634399
v -47.2901917 16.0094509 -926.372192
v -63.9555359 38.7060089 -900.75293
v -76.7008057 63.2670097 -871.671387
v -85.7607727 88.2626953 -839.404907
v -91.2271729 111.896347 -805.491943
v 26.2067566 -54.7656479 -953.744995
v 56.3198242 -83.4657593 -949.448853
v 28.0849915 -66.0167694 -920.250977
v 86.9887695 -109.274323 -947.362671
v 57.8003235 -94.2145081 -916.29187
v 30.1888733 -73.4918518 -885.213745
v 118.79364 -131.040695 -948.047363
v 88.3032837 -117.495636 -914.93042
v 59.8150635 -99.3670349 -882.690918
v 33.5116272 -76.5431213 -850.18396
v 151.439209 -146.543365 -951.380005
v 120.360657 -135.24826 -916.118774
v 90.657959 -118.752289 -882.41626
v 63.4309998 -98.5679169 -849.431152
v 38.874054 -74.7076874 -816.674316
v 184.247253 -152.923355 -956.488892
v 153.732483 -145.312744 -920.261597
v 123.473755 -131.341415 -884.652466
v 95.1867065 -113.167984 -850.39856
v 69.8093872 -92.2163544 -817.442505
v 47.4571838 -68.8767242 -785.838135
v 215.737305 -148.957275 -961.925537
v 187.946899 -145.496216 -926.456787
v 158.357849 -134.996338 -889.829102
v 129.618286 -119.582489 -853.731689
v 103.220032 -101.257172 -819.510132
v 79.9977417 -81.4044647 -787.532837
v 59.8072205 -60.4822998 -758.54126
v 247.33429 -132.663269 -974.505493
v 268.87323 -106.342285 -988.21106
v 251.437317 -114.485626 -950.850342
v 280.409302 -71.3209839 -995.4729
v 272.227844 -83.090744 -962.42334
v 252.68927 -91.410553 -924.930908
v 284.049316 -31.1298943 -997.488525
v 283.134155 -44.7828522 -968.345215
v 272.716125 -56.5779877 -935.835693
v 252.834473 -65.6075134 -898.067383
v 280.939453 11.6561737 -994.530762
v 286.362305 -2.47079086 -969.775391
v 282.991333 -16.0223427 -941.556396
v 271.851257 -28.3481903 -909.090698
v 253.025635 -38.5042114 -871.403931
v 269.960388 55.3251877 -987.647095
v 281.720154 42.444458 -967.07959
v 285.02832 28.5883942 -942.968506
v 280.915222 14.4740162 -914.78479
v 270.196777 1.05326271 -882.307007
v 253.22644 -10.3741379 -845.691528
v 248.577515 98.4846649 -978.631348
v 266.143372 89.2872772 -961.270996
v 276.465698 77.1598816 -940.569946
v 279.583252 62.731266 -915.910278
v 276.131714 47.2467003 -887.266479
v 266.783325 32.1455383 -855.316895
v 252.077393 18.969183 -821.364136
v 210.171448 136.773361 -973.290405
v 165.030457 160.924316 -971.675415
v 191.542969 165.590698 -952.744019
v 118.03009 179.985565 -968.381958
v 141.121094 188.427856 -948.966431
v 170.554016 190.118774 -929.664795
v 73.8934937 197.040588 -964.377686
v 93.0074463 206.070114 -943.036011
v 117.906189 211.276169 -922.990356
v 149.307068 209.644257 -902.209595
v 35.6138306 213.859894 -959.378784
v 50.6295166 221.863541 -935.766724
v 70.7240601 227.595383 -913.478638
v 97.0406494 229.243835 -891.904419
v 128.883362 224.156052 -869.773926
v 4.16845703 229.302032 -951.354004
v 15.092041 236.331619 -925.890503
v 30.5664978 241.774536 -901.355347
v 51.6543274 244.441727 -877.827148
v 78.1318665 242.684372 -855.487427
v 108.839966 234.547943 -833.92334
v -20.6750793 241.541138 -939.438232
v -14.0259705 247.968353 -911.8396
v -3.19223022 253.21019 -884.937866
v 12.6125183 256.614258 -859.370605
v 33.4542236 256.789978 -835.998291
v 58.9369812 252.176392 -815.472534
v 87.3241577 241.765427 -797.397461
v -36.2626343 253.256546 -901.789429
v -48.8098755 258.495056 -863.959229
v -29.4076233 258.997681 -870.338379
v -60.9496155 259.854126 -828.654907
v -42.0770569 264.297913 -830.774414
v -18.4231262 263.45874 -841.221558
v -73.598053 259.220398 -797.015015
v -54.7898254 266.170105 -795.128174
v -31.4683228 268.383423 -801.049316
v -2.66738892 265.429688 -814.897827
v -85.6255798 257.084778 -768.762451
v -67.5375977 265.281799 -763.63501
v -44.2073669 269.300476 -765.419556
v -15.493103 268.565979 -774.898071
v 18.8900452 262.904114 -792.102905
v -94.325592 252.370438 -742.984375
v -77.8422546 260.542175 -735.45166
v -55.1729736 265.263977 -733.900757
v -26.3091431 265.762878 -739.481567
v 8.19198608 261.817444 -752.850342
v 46.7937317 253.725967 -773.011963
v -102.735291 182.270355 -945.563477
v -108.533447 176.979401 -917.468018
v -104.746857 197.73996 -909.575928
v -111.848236 170.684875 -888.293457
v -110.82373 192.925812 -877.612183
v -108.49939 208.335281 -868.712769
v -112.469543 162.747177 -857.970215
v -114.063263 186.711472 -845.247803
v -114.00882 204.08078 -834.420532
v -112.191406 216.587585 -826.95752
v -109.392975 152.545532 -826.010986
v -113.47641 177.76561 -812.121704
v -115.286102 197.681503 -799.931396
v -115.588379 212.81134 -791.433228
v -113.7742 224.30217 -787.335938
v -100.705811 139.971848 -791.805786
v -106.665375 165.219376 -777.449219
v -110.137787 187.090042 -764.443848
v -112.197968 205.313629 -755.152344
v -112.786987 219.981522 -750.928223
v -110.858307 231.836548 -751.493042
v 0.0681152344 -35.2636871 -932.016479
v 3.06243896 -44.1775284 -894.053467
v -21.7756348 -14.7229385 -908.961426
v 6.78005981 -49.7526093 -855.713745
v -16.8100891 -21.7064247 -867.966187
v -40.0082703 7.61632919 -884.111206
v 12.0328674 -51.4205933 -818.29248
v -11.1377258 -25.6246872 -827.057495
v -33.0131836 2.50448418 -840.781494
v -54.8912964 32.2680283 -856.763062
v 20.1559448 -48.9555664 -782.820312
v -3.59890747 -25.8586388 -786.997925
v -25.3999939 0.530139923 -797.171753
v -46.3222351 29.2630119 -811.136108
v -66.7078552 58.841713 -826.0802
v 33.161438 -43.2269135 -750.245728
v 8.50140381 -22.3877869 -748.716919
v -14.4473267 2.09872818 -753.745117
v -36.0261841 29.4510307 -764.161011
v -56.2258911 58.0152817 -777.644409
v -74.8868713 85.8582001 -791.847534
v 222.055664 -135.664978 -937.777344
v 224.621521 -115.897141 -911.652466
v 193.071594 -129.455048 -899.252563
v 225.925781 -92.4020386 -884.121582
v 195.993286 -108.537292 -871.362671
v 163.846008 -117.1362 -860.500366
v 227.458374 -66.8432007 -856.1427
v 198.679016 -85.0541992 -842.644897
v 167.964966 -95.7110901 -831.102783
v 136.075134 -101.121384 -822.927979
v 229.947021 -39.2596741 -828.595825
v 202.221802 -59.3824615 -813.571411
v 172.134766 -72.0074005 -801.004761
v 141.221863 -79.5578156 -791.980713
v 110.319153 -82.7947083 -787.161377
v 232.560181 -8.61785126 -802.099243
v 206.843384 -29.9698486 -784.655884
v 177.368652 -44.8516235 -770.113403
v 146.470276 -54.7601318 -759.7323
v 115.929626 -60.4816513 -754.098511
v 86.8258667 -62.33461 -753.459229
v 235.697021 132.197937 -956.540894
v 218.780029 160.706268 -934.088257
v 254.122925 123.287827 -937.343872
v 199.28949 183.436981 -908.478394
v 238.32843 150.418442 -912.433716
v 265.258057 110.175674 -914.505249
v 178.368591 200.61821 -877.877808
v 219.59375 171.169846 -883.556396
v 250.313843 135.475021 -886.487549
v 269.259277 93.8403168 -887.282349
v 156.010559 213.106781 -842.039062
v 197.942871 186.545319 -848.880615
v 231.586731 154.409622 -853.394775
v 254.675293 117.037643 -855.354492
v 266.354736 75.6672363 -855.525024
v 130.622742 222.278183 -802.818726
v 171.818542 197.809479 -808.383423
v 207.476074 168.35347 -813.269287
v 234.479492 134.198364 -816.72168
v 250.777588 96.4619904 -818.627563
v 256.213318 57.2843513 -819.731689
v 57.5337219 112.279327 -655.055664
v 69.3657532 134.918976 -662.172607
v 26.0552979 140.101547 -654.852417
v 77.8156128 159.279495 -673.9552
v 32.1151123 165.758347 -662.807251
v -6.197052 168.075653 -658.658691
v 83.3156128 183.328308 -690.210083
v 35.4580078 191.132874 -675.221069
v -4.27139282 194.465012 -667.553711
v -37.4506226 194.72287 -666.868286
v 86.822937 204.809097 -711.084229
v 37.8346863 213.978622 -691.824463
v -3.43225098 218.447327 -680.84729
v -37.579834 219.517242 -676.835327
v -65.3569336 217.407272 -680.245728
v 89.1257324 222.077866 -736.400269
v 40.6237793 232.533936 -713.245117
v -1.58526611 238.289703 -698.505005
v -36.80896 240.20961 -691.578735
v -65.1678772 238.605209 -691.808472
v -86.9592896 233.308914 -699.626953
v 89.6143188 234.428955 -765.478882
v 44.0892334 245.904831 -740.093506
v 2.47402954 252.96077 -721.820923
v -33.2539978 255.858047 -711.616577
v -62.2600403 254.696579 -709.15332
v -84.4951172 249.66394 -713.670898
v -100.301941 241.094666 -725.052734
v 96.5613403 98.5206146 -662.682861
v 134.504211 85.4282074 -675.904297
v 113.590271 123.174225 -674.506104
v 168.737427 72.3427277 -695.377319
v 154.11731 111.652161 -692.925415
v 125.019348 148.297333 -691.197998
v 197.529968 58.8135567 -721.091553
v 189.020813 99.4758301 -717.718628
v 166.322998 137.077911 -714.909424
v 131.832764 172.103531 -712.720459
v 220.603821 44.5791168 -751.707031
v 217.656555 85.8291321 -747.951782
v 201.214172 124.572922 -744.643799
v 173.099304 160.336258 -741.578613
v 135.205505 192.978043 -738.832031
v 238.294434 30.9474754 -785.755371
v 239.723999 71.455246 -782.375366
v 229.340759 110.859833 -779.564819
v 207.345947 147.525177 -776.334229
v 175.22168 180.683853 -772.712646
v 135.192871 209.859299 -769.027344
v 65.3453979 82.6668243 -655.102051
v 68.1257629 54.4623909 -658.900269
v 104.240479 65.2407684 -663.928711
v 66.967865 27.8389091 -667.389282
v 104.834595 34.8468552 -669.585327
v 139.219238 49.5245819 -678.998657
v 63.5201416 3.00431442 -681.624023
v 100.623657 7.19857216 -680.703369
v 136.032593 17.7456226 -687.321899
v 168.979431 34.5808487 -700.739014
v 60.0171814 -19.8954468 -702.024414
v 94.4645996 -17.820343 -698.305298
v 128.798584 -10.5412025 -702.058594
v 162.339417 1.80313873 -712.363647
v 193.841064 19.7865334 -728.987915
v 58.4154663 -40.8286438 -728.051025
v 89.208252 -40.6048737 -722.615479
v 121.152405 -36.1528549 -724.084106
v 153.595581 -27.4094505 -731.557495
v 185.413208 -14.0137405 -744.746216
v 214.646484 4.88140488 -763.141235
v 26.1983643 109.679214 -652.481689
v -2.85427856 110.532379 -657.468628
v 31.2176514 80.1076813 -655.296997
v -29.0197754 113.928787 -671.238037
v 1.03234863 81.5292206 -664.581421
v 32.3764343 52.9607239 -662.658691
v -51.6834717 117.782623 -694.282593
v -25.1185303 85.1778107 -683.298096
v 2.26272583 54.9108696 -676.397217
v 31.4282532 27.4150524 -675.119507
v -70.0816345 119.570602 -725.828125
v -46.8864136 88.5053101 -711.352539
v -22.724884 57.9844627 -700.007324
v 2.78826904 29.1776314 -693.49585
v 30.0448303 2.97057724 -693.574585
v -83.4004822 117.483337 -763.839478
v -63.6402893 89.0054321 -747.986572
v -42.4244995 59.5117226 -733.78772
v -19.8077698 30.4820938 -722.875488
v 4.23748779 3.42427826 -717.241455
v 30.0677795 -20.5199738 -718.607422
v -5.69760132 139.667694 -655.099365
v -36.0006104 168.349869 -662.626831
v -33.1651917 142.128021 -664.087158
v -63.7615662 193.998169 -675.293213
v -60.5845032 170.304779 -676.116333
v -56.7860107 145.552322 -682.516846
v -86.9374084 214.165833 -693.908203
v -84.3413696 193.586411 -693.925293
v -80.838562 171.639252 -699.611084
v -76.4438477 147.505737 -710.55249
v -103.190735 226.801224 -719.25708
v -102.468506 210.444351 -718.431763
v -100.006165 191.688278 -723.276733
v -96.5476379 170.36261 -733.474243
v -91.4935303 145.995926 -747.635498
g 
f 3 1 2
f 5 2 4
f 6 3 5
f 8 4 7
f 9 5 8
f 10 6 9
f 12 7 11
f 13 8 12
f 14 9 13
f 15 10 14
f 17 11 16
f 18 12 17
f 19 13 18
f 20 14 19
f 21 15 20
f 23 16 22
f 24 17 23
f 25 18 24
f 26 19 25
f 27 20 26
f 28 21 27
f 30 22 29
f 31 23 30
f 32 24 31
f 33 25 32
f 34 26 33
f 35 27 34
f 36 28 35
f 3 2 5
f 5 4 8
f 6 5 9
f 8 7 12
f 9 8 13
f 10 9 14
f 12 11 17
f 13 12 18
f 14 13 19
f 15 14 20
f 17 16 23
f 18 17 24
f 19 18 25
f 20 19 26
f 21 20 27
f 23 22 30
f 24 23 31
f 25 24 32
f 26 25 33
f 27 26 34
f 28 27 35
f 37 1 3
f 38 3 6
f 39 37 38
f 40 6 10
f 41 38 40
f 42 39 41
f 43 10 15
f 44 40 43
f 45 41 44
f 46 42 45
f 47 15 21
f 48 43 47
f 49 44 48
f 50 45 49
f 51 46 50
f 52 21 28
f 53 47 52
f 54 48 53
f 55 49 54
f 56 50 55
f 57 51 56
f 58 28 36
f 59 52 58
f 60 53 59
f 61 54 60
f 62 55 61
f 63 56 62
f 64 57 63
f 37 3 38
f 38 6 40
f 39 38 41
f 40 10 43
f 41 40 44
f 42 41 45
f 43 15 47
f 44 43 48
f 45 44 49
f 46 45 50
f 47 21 52
f 48 47 53
f 49 48 54
f 50 49 55
f 51 50 56
f 52 28 58
f 53 52 59
f 54 53 60
f 55 54 61
f 56 55 62
f 57 56 63
f 65 1 37
f 66 37 39
f 67 65 66
f 68 39 42
f 69 66 68
f 70 67 69
f 71 42 46
f 72 68 71
f 73 69 72
f 74 70 73
f 75 46 51
f 76 71 75
f 77 72 76
f 78 73 77
f 79 74 78
f 80 51 57
f 81 75 80
f 82 76 81
f 83 77 82
f 84 78 83
f 85 79 84
f 86 57 64
f 87 80 86
f 88 81 87
f 89 82 88
f 90 83 89
f 91 84 90
f 92 85 91
f 65 37 66
f 66 39 68
f 67 66 69
f 68 42 71
f 69 68 72
f 70 69 73
f 71 46 75
f 72 71 76
f 73 72 77
f 74 73 78
f 75 51 80
f 76 75 81
f 77 76 82
f 78 77 83
f 79 78 84
f 80 57 86
f 81 80 87
f 82 81 88
f 83 82 89
f 84 83 90
f 85 84 91
f 93 1 65
f 94 65 67
f 95 93 94
f 96 67 70
f 97 94 96
f 98 95 97
f 99 70 74
f 100 96 99
f 101 97 100
f 102 98 101
f 103 74 79
f 104 99 103
f 105 100 104
f 106 101 105
f 107 102 106
f 108 79 85
f 109 103 108
f 110 104 109
f 111 105 110
f 112 106 111
f 113 107 112
f 114 85 92
f 115 108 114
f 116 109 115
f 117 110 116
f 118 111 117
f 119 112 118
f 120 113 119
f 93 65 94
f 94 67 96
f 95 94 97
f 96 70 99
f 97 96 100
f 98 97 101
f 99 74 103
f 100 99 104
f 101 100 105
f 102 101 106
f 103 79 108
f 104 103 109
f 105 104 110
f 106 105 111
f 107 106 112
f 108 85 114
f 109 108 115
f 110 109 116
f 111 110 117
f 112 111 118
f 113 112 119
f 2 1 93
f 121 93 95
f 4 2 121
f 122 95 98
f 123 121 122
f 7 4 123
f 124 98 102
f 125 122 124
f 126 123 125
f 11 7 126
f 127 102 107
f 128 124 127
f 129 125 128
f 130 126 129
f 16 11 130
f 131 107 113
f 132 127 131
f 133 128 132
f 134 129 133
f 135 130 134
f 22 16 135
f 136 113 120
f 137 131 136
f 138 132 137
f 139 133 138
f 140 134 139
f 141 135 140
f 29 22 141
f 2 93 121
f 121 95 122
f 4 121 123
f 122 98 124
f 123 122 125
f 7 123 126
f 124 102 127
f 125 124 128
f 126 125 129
f 11 126 130
f 127 107 131
f 128 127 132
f 129 128 133
f 130 129 134
f 16 130 135
f 131 113 136
f 132 131 137
f 133 132 138
f 134 133 139
f 135 134 140
f 22 135 141
f 142 29 141
f 143 141 140
f 144 142 143
f 145 140 139
f 146 143 145
f 147 144 146
f 148 139 138
f 149 145 148
f 150 146 149
f 151 147 150
f 152 138 137
f 153 148 152
f 154 149 153
f 155 150 154
f 156 151 155
f 157 137 136
f 158 152 157
f 159 153 158
f 160 154 159
f 161 155 160
f 162 156 161
f 163 136 120
f 164 157 163
f 165 158 164
f 166 159 165
f 167 160 166
f 168 161 167
f 169 162 168
f 142 141 143
f 143 140 145
f 144 143 146
f 145 139 148
f 146 145 149
f 147 146 150
f 148 138 152
f 149 148 153
f 150 149 154
f 151 150 155
f 152 137 157
f 153 152 158
f 154 153 159
f 155 154 160
f 156 155 161
f 157 136 163
f 158 157 164
f 159 158 165
f 160 159 166
f 161 160 167
f 162 161 168
f 170 120 119
f 171 119 118
f 172 170 171
f 173 118 117
f 174 171 173
f 175 172 174
f 176 117 116
f 177 173 176
f 178 174 177
f 179 175 178
f 180 116 115
f 181 176 180
f 182 177 181
f 183 178 182
f 184 179 183
f 185 115 114
f 186 180 185
f 187 181 186
f 188 182 187
f 189 183 188
f 190 184 189
f 191 114 92
f 192 185 191
f 193 186 192
f 194 187 193
f 195 188 194
f 196 189 195
f 197 190 196
f 170 119 171
f 171 118 173
f 172 171 174
f 173 117 176
f 174 173 177
f 175 174 178
f 176 116 180
f 177 176 181
f 178 177 182
f 179 178 183
f 180 115 185
f 181 180 186
f 182 181 187
f 183 182 188
f 184 183 189
f 185 114 191
f 186 185 192
f 187 186 193
f 188 187 194
f 189 188 195
f 190 189 196
f 198 92 91
f 199 91 90
f 200 198 199
f 201 90 89
f 202 199 201
f 203 200 202
f 204 89 88
f 205 201 204
f 206 202 205
f 207 203 206
f 208 88 87
f 209 204 208
f 210 205 209
f 211 206 210
f 212 207 211
f 213 87 86
f 214 208 213
f 215 209 214
f 216 210 215
f 217 211 216
f 218 212 217
f 219 86 64
f 220 213 219
f 221 214 220
f 222 215 221
f 223 216 222
f 224 217 223
f 225 218 224
f 198 91 199
f 199 90 201
f 200 199 202
f 201 89 204
f 202 201 205
f 203 202 206
f 204 88 208
f 205 204 209
f 206 205 210
f 207 206 211
f 208 87 213
f 209 208 214
f 210 209 215
f 211 210 216
f 212 211 217
f 213 86 219
f 214 213 220
f 215 214 221
f 216 215 222
f 217 216 223
f 218 217 224
f 226 64 63
f 227 63 62
f 228 226 227
f 229 62 61
f 230 227 229
f 231 228 230
f 232 61 60
f 233 229 232
f 234 230 233
f 235 231 234
f 236 60 59
f 237 232 236
f 238 233 237
f 239 234 238
f 240 235 239
f 241 59 58
f 242 236 241
f 243 237 242
f 244 238 243
f 245 239 244
f 246 240 245
f 247 58 36
f 248 241 247
f 249 242 248
f 250 243 249
f 251 244 250
f 252 245 251
f 253 246 252
f 226 63 227
f 227 62 229
f 228 227 230
f 229 61 232
f 230 229 233
f 231 230 234
f 232 60 236
f 233 232 237
f 234 233 238
f 235 234 239
f 236 59 241
f 237 236 242
f 238 237 243
f 239 238 244
f 240 239 245
f 241 58 247
f 242 241 248
f 243 242 249
f 244 243 250
f 245 244 251
f 246 245 252
f 254 36 35
f 255 35 34
f 256 254 255
f 257 34 33
f 258 255 257
f 259 256 258
f 260 33 32
f 261 257 260
f 262 258 261
f 263 259 262
f 264 32 31
f 265 260 264
f 266 261 265
f 267 262 266
f 268 263 267
f 269 31 30
f 270 264 269
f 271 265 270
f 272 266 271
f 273 267 272
f 274 268 273
f 275 30 29
f 276 269 275
f 277 270 276
f 278 271 277
f 279 272 278
f 280 273 279
f 281 274 280
f 254 35 255
f 255 34 257
f 256 255 258
f 257 33 260
f 258 257 261
f 259 258 262
f 260 32 264
f 261 260 265
f 262 261 266
f 263 262 267
f 264 31 269
f 265 264 270
f 266 265 271
f 267 266 272
f 268 267 273
f 269 30 275
f 270 269 276
f 271 270 277
f 272 271 278
f 273 272 279
f 274 273 280
f 275 29 142
f 282 142 144
f 276 275 282
f 283 144 147
f 284 282 283
f 277 276 284
f 285 147 151
f 286 283 285
f 287 284 286
f 278 277 287
f 288 151 156
f 289 285 288
f 290 286 289
f 291 287 290
f 279 278 291
f 292 156 162
f 293 288 292
f 294 289 293
f 295 290 294
f 296 291 295
f 280 279 296
f 297 162 169
f 298 292 297
f 299 293 298
f 300 294 299
f 301 295 300
f 302 296 301
f 281 280 302
f 275 142 282
f 282 144 283
f 276 282 284
f 283 147 285
f 284 283 286
f 277 284 287
f 285 151 288
f 286 285 289
f 287 286 290
f 278 287 291
f 288 156 292
f 289 288 293
f 290 289 294
f 291 290 295
f 279 291 296
f 292 162 297
f 293 292 298
f 294 293 299
f 295 294 300
f 296 295 301
f 280 296 302
f 163 120 170
f 303 170 172
f 164 163 303
f 304 172 175
f 305 303 304
f 165 164 305
f 306 175 179
f 307 304 306
f 308 305 307
f 166 165 308
f 309 179 184
f 310 306 309
f 311 307 310
f 312 308 311
f 167 166 312
f 313 184 190
f 314 309 313
f 315 310 314
f 316 311 315
f 317 312 316
f 168 167 317
f 318 190 197
f 319 313 318
f 320 314 319
f 321 315 320
f 322 316 321
f 323 317 322
f 169 168 323
f 163 170 303
f 303 172 304
f 164 303 305
f 304 175 306
f 305 304 307
f 165 305 308
f 306 179 309
f 307 306 310
f 308 307 311
f 166 308 312
f 309 184 313
f 310 309 314
f 311 310 315
f 312 311 316
f 167 312 317
f 313 190 318
f 314 313 319
f 315 314 320
f 316 315 321
f 317 316 322
f 168 317 323
f 191 92 198
f 324 198 200
f 192 191 324
f 325 200 203
f 326 324 325
f 193 192 326
f 327 203 207
f 328 325 327
f 329 326 328
f 194 193 329
f 330 207 212
f 331 327 330
f 332 328 331
f 333 329 332
f 195 194 333
f 334 212 218
f 335 330 334
f 336 331 335
f 337 332 336
f 338 333 337
f 196 195 338
f 339 218 225
f 340 334 339
f 341 335 340
f 342 336 341
f 343 337 342
f 344 338 343
f 197 196 344
f 191 198 324
f 324 200 325
f 192 324 326
f 325 203 327
f 326 325 328
f 193 326 329
f 327 207 330
f 328 327 331
f 329 328 332
f 194 329 333
f 330 212 334
f 331 330 335
f 332 331 336
f 333 332 337
f 195 333 338
f 334 218 339
f 335 334 340
f 336 335 341
f 337 336 342
f 338 337 343
f 196 338 344
f 219 64 226
f 345 226 228
f 220 219 345
f 346 228 231
f 347 345 346
f 221 220 347
f 348 231 235
f 349 346 348
f 350 347 349
f 222 221 350
f 351 235 240
f 352 348 351
f 353 349 352
f 354 350 353
f 223 222 354
f 355 240 246
f 356 351 355
f 357 352 356
f 358 353 357
f 359 354 358
f 224 223 359
f 360 246 253
f 361 355 360
f 362 356 361
f 363 357 362
f 364 358 363
f 365 359 364
f 225 224 365
f 219 226 345
f 345 228 346
f 220 345 347
f 346 231 348
f 347 346 349
f 221 347 350
f 348 235 351
f 349 348 352
f 350 349 353
f 222 350 354
f 351 240 355
f 352 351 356
f 353 352 357
f 354 353 358
f 223 354 359
f 355 246 360
f 356 355 361
f 357 356 362
f 358 357 363
f 359 358 364
f 224 359 365
f 247 36 254
f 366 254 256
f 248 247 366
f 367 256 259
f 368 366 367
f 249 248 368
f 369 259 263
f 370 367 369
f 371 368 370
f 250 249 371
f 372 263 268
f 373 369 372
f 374 370 373
f 375 371 374
f 251 250 375
f 376 268 274
f 377 372 376
f 378 373 377
f 379 374 378
f 380 375 379
f 252 251 380
f 381 274 281
f 382 376 381
f 383 377 382
f 384 378 383
f 385 379 384
f 386 380 385
f 253 252 386
f 247 254 366
f 366 256 367
f 248 366 368
f 367 259 369
f 368 367 370
f 249 368 371
f 369 263 372
f 370 369 373
f 371 370 374
f 250 371 375
f 372 268 376
f 373 372 377
f 374 373 378
f 375 374 379
f 251 375 380
f 376 274 381
f 377 376 382
f 378 377 383
f 379 378 384
f 380 379 385
f 252 380 386
f 389 387 388
f 391 388 390
f 392 389 391
f 394 390 393
f 395 391 394
f 396 392 395
f 398 393 397
f 399 394 398
f 400 395 399
f 401 396 400
f 403 397 402
f 404 398 403
f 405 399 404
f 406 400 405
f 407 401 406
f 409 402 408
f 410 403 409
f 411 404 410
f 412 405 411
f 413 406 412
f 414 407 413
f 302 408 281
f 301 409 302
f 300 410 301
f 299 411 300
f 298 412 299
f 297 413 298
f 169 414 297
f 389 388 391
f 391 390 394
f 392 391 395
f 394 393 398
f 395 394 399
f 396 395 400
f 398 397 403
f 399 398 404
f 400 399 405
f 401 400 406
f 403 402 409
f 404 403 410
f 405 404 411
f 406 405 412
f 407 406 413
f 409 408 302
f 410 409 301
f 411 410 300
f 412 411 299
f 413 412 298
f 414 413 297
f 388 387 415
f 417 415 416
f 390 388 417
f 419 416 418
f 420 417 419
f 393 390 420
f 422 418 421
f 423 419 422
f 424 420 423
f 397 393 424
f 426 421 425
f 427 422 426
f 428 423 427
f 429 424 428
f 402 397 429
f 431 425 430
f 432 426 431
f 433 427 432
f 434 428 433
f 435 429 434
f 408 402 435
f 386 430 253
f 385 431 386
f 384 432 385
f 383 433 384
f 382 434 383
f 381 435 382
f 281 408 381
f 388 415 417
f 417 416 419
f 390 417 420
f 419 418 422
f 420 419 423
f 393 420 424
f 422 421 426
f 423 422 427
f 424 423 428
f 397 424 429
f 426 425 431
f 427 426 432
f 428 427 433
f 429 428 434
f 402 429 435
f 431 430 386
f 432 431 385
f 433 432 384
f 434 433 383
f 435 434 382
f 408 435 381
f 415 387 436
f 438 436 437
f 416 415 438
f 440 437 439
f 441 438 440
f 418 416 441
f 443 439 442
f 444 440 443
f 445 441 444
f 421 418 445
f 447 442 446
f 448 443 447
f 449 444 448
f 450 445 449
f 425 421 450
f 452 446 451
f 453 447 452
f 454 448 453
f 455 449 454
f 456 450 455
f 430 425 456
f 365 451 225
f 364 452 365
f 363 453 364
f 362 454 363
f 361 455 362
f 360 456 361
f 253 430 360
f 415 436 438
f 438 437 440
f 416 438 441
f 440 439 443
f 441 440 444
f 418 441 445
f 443 442 447
f 444 443 448
f 445 444 449
f 421 445 450
f 447 446 452
f 448 447 453
f 449 448 454
f 450 449 455
f 425 450 456
f 452 451 365
f 453 452 364
f 454 453 363
f 455 454 362
f 456 455 361
f 430 456 360
f 436 387 457
f 459 457 458
f 437 436 459
f 461 458 460
f 462 459 461
f 439 437 462
f 464 460 463
f 465 461 464
f 466 462 465
f 442 439 466
f 468 463 467
f 469 464 468
f 470 465 469
f 471 466 470
f 446 442 471
f 473 467 472
f 474 468 473
f 475 469 474
f 476 470 475
f 477 471 476
f 451 446 477
f 344 472 197
f 343 473 344
f 342 474 343
f 341 475 342
f 340 476 341
f 339 477 340
f 225 451 339
f 436 457 459
f 459 458 461
f 437 459 462
f 461 460 464
f 462 461 465
f 439 462 466
f 464 463 468
f 465 464 469
f 466 465 470
f 442 466 471
f 468 467 473
f 469 468 474
f 470 469 475
f 471 470 476
f 446 471 477
f 473 472 344
f 474 473 343
f 475 474 342
f 476 475 341
f 477 476 340
f 451 477 339
f 457 387 389
f 478 389 392
f 458 457 478
f 479 392 396
f 480 478 479
f 460 458 480
f 481 396 401
f 482 479 481
f 483 480 482
f 463 460 483
f 484 401 407
f 485 481 484
f 486 482 485
f 487 483 486
f 467 463 487
f 488 407 414
f 489 484 488
f 490 485 489
f 491 486 490
f 492 487 491
f 472 467 492
f 323 414 169
f 322 488 323
f 321 489 322
f 320 490 321
f 319 491 320
f 318 492 319
f 197 472 318
f 457 389 478
f 478 392 479
f 458 478 480
f 479 396 481
f 480 479 482
f 460 480 483
f 481 401 484
f 482 481 485
f 483 482 486
f 463 483 487
f 484 407 488
f 485 484 489
f 486 485 490
f 487 486 491
f 467 487 492
f 488 414 323
f 489 488 322
f 490 489 321
f 491 490 320
f 492 491 319
f 472 492 318
