# File exported by Houdini 20.5.445 (www.sidefx.com)
# 492 points
# 2940 vertices
# 980 primitives
# Bounds: [-115.585007, -145.932068, -1102.47705] to [286.358917, 262.309174, -652.323975]
g 
v 111.819244 20.131855 -1099.82874
v 93.221817 54.584301 -1101.3175
v 138.892853 20.6348305 -1102.47705
v 73.3968048 89.0579834 -1095.75952
v 118.744171 60.1852837 -1098.4873
v 162.959991 27.6518974 -1098.45276
v 55.1418915 122.817162 -1083.20813
v 97.7804108 96.9941559 -1086.00537
v 141.351776 70.382019 -1087.31763
v 184.572662 38.6484833 -1088.1344
v 40.1061859 154.908966 -1064.33789
v 78.4537506 130.646454 -1067.35181
v 120.022186 107.1987 -1068.81116
v 162.787323 81.6634064 -1070.58569
v 204.445282 51.0540009 -1072.14941
v 28.0771637 183.824738 -1039.98181
v 61.5493927 161.198669 -1044.11768
v 100.002182 139.427856 -1045.75342
v 141.454132 117.395813 -1047.36047
v 183.263214 93.1100769 -1049.52295
v 222.332733 64.335556 -1050.8252
v 18.0485687 208.35907 -1010.75317
v 46.4642487 188.690308 -1016.43823
v 80.8351898 168.467468 -1018.9397
v 120.166351 148.528656 -1020.54626
v 161.664703 128.126465 -1022.62415
v 201.821808 105.511047 -1024.9917
v 237.07724 78.7808609 -1025.99951
v 9.31684875 227.68866 -977.179077
v 32.845932 212.76889 -983.619507
v 62.4409637 195.524292 -987.312622
v 98.1859589 177.674957 -989.547607
v 138.412323 160.005188 -991.92627
v 179.38681 141.345398 -995.053101
v 216.828461 119.783157 -998.178101
v 247.427155 94.3493271 -999.685913
v 144.443878 -15.8249397 -1096.31848
v 174.891815 -15.6826019 -1098.96814
v 171.825165 -50.7186966 -1088.84741
v 199.960541 -7.51128769 -1095.28979
v 203.463043 -48.8399124 -1091.28882
v 193.320587 -81.7324905 -1077.57361
v 221.06076 4.81123734 -1085.44238
v 228.398407 -38.7982788 -1087.35938
v 225.05484 -76.948082 -1079.04602
v 209.082062 -106.344864 -1061.77222
v 239.080353 19.5851555 -1068.151
v 248.256744 -24.4350586 -1075.78174
v 249.462555 -65.0230103 -1073.07703
v 240.178864 -99.0551147 -1061.02466
v 218.847748 -124.180725 -1041.31299
v 254.056549 36.4057312 -1044.04504
v 264.042267 -6.78530502 -1055.15259
v 267.869354 -48.5337219 -1057.47144
v 263.271088 -85.7749939 -1051.30798
v 248.138397 -115.45639 -1037.32031
v 222.303986 -135.609924 -1016.79968
v 265.046356 55.4854317 -1015.15161
v 275.686127 14.2265024 -1026.51709
v 280.587677 -27.5083618 -1031.52344
v 278.729828 -66.8867493 -1029.97571
v 268.041901 -100.478333 -1022.03198
v 247.833038 -125.319916 -1007.76648
v 219.445343 -140.35379 -988.569458
v 102.985748 3.08162308 -1090.65466
v 133.123871 -36.4454346 -1083.35535
v 90.8500214 -9.72926331 -1077.96765
v 156.023956 -71.9489975 -1071.8822
v 117.531281 -49.7207184 -1066.80029
v 76.5294342 -19.0738297 -1063.22083
v 173.000092 -101.234375 -1056.69641
v 136.456757 -83.3104248 -1051.41406
v 99.4617157 -57.3617706 -1048.09412
v 60.874527 -26.0424728 -1046.87622
v 184.36264 -123.600281 -1037.54309
v 149.401764 -110.367279 -1032.70776
v 114.585114 -88.3876038 -1029.13965
v 79.814682 -61.5419617 -1027.98682
v 44.3973541 -31.583168 -1029.00037
v 190.09726 -138.730713 -1013.99878
v 156.671356 -130.880066 -1009.91125
v 123.448639 -113.394928 -1006.59204
v 90.8773346 -90.1140213 -1005.36267
v 59.1108551 -63.996933 -1006.4873
v 28.0742035 -35.886879 -1008.91687
v 189.867706 -145.932068 -985.499023
v 158.222809 -143.132538 -981.569458
v 126.259308 -131.337067 -978.389893
v 95.2581329 -112.267593 -977.473267
v 66.0475311 -89.3278122 -978.568237
v 39.0450287 -64.2597656 -981.131836
v 13.6164398 -37.9260712 -984.618286
v 72.4266815 45.1871033 -1095.17236
v 60.8639984 31.9014091 -1084.45142
v 33.4694977 71.6780396 -1086.44775
v 48.427475 21.6129303 -1072.13843
v 20.7332001 59.8256187 -1075.05884
v -3.22059631 97.793251 -1074.20044
v 35.7937164 12.7416019 -1058.75891
v 9.16841125 49.4990311 -1063.32507
v -16.3639069 85.3184433 -1062.82617
v -36.0580292 121.776649 -1059.29016
v 22.6248627 4.22790146 -1043.90686
v -1.57093811 39.1833878 -1050.88501
v -26.7823029 73.4190063 -1051.33801
v -48.8889618 107.796211 -1047.79749
v -62.9395905 142.757538 -1041.97888
v 8.92616272 -3.9138031 -1026.43921
v -12.5242767 28.5584221 -1036.3772
v -35.9144745 61.2861481 -1038.72144
v -58.2066803 94.3587723 -1035.63489
v -75.1616669 127.642189 -1029.60693
v -82.7710724 160.430542 -1022.12549
v -4.00917053 -10.145607 -1003.35449
v -23.7549896 18.9099846 -1016.83252
v -45.1441498 49.4842873 -1022.30347
v -66.2725677 81.3610382 -1020.74133
v -83.8624115 113.778938 -1014.98669
v -94.3845367 145.529572 -1007.52429
v -95.9016266 175.026611 -999.598389
v 51.2622223 81.1510773 -1095.26233
v 13.5397186 108.282814 -1084.38464
v 32.8156281 115.901215 -1088.75171
v -19.1916656 134.014618 -1069.58398
v -0.417434692 142.481323 -1076.23218
v 19.0491791 149.155884 -1075.42603
v -46.5704498 157.04837 -1051.729
v -27.3444061 166.926758 -1059.00989
v -8.41947937 174.280945 -1060.94214
v 9.3686676 180.077606 -1054.72729
v -68.2577362 176.743103 -1030.93042
v -49.4404755 188.367981 -1037.71484
v -30.2746124 196.769043 -1040.35059
v -13.4063263 203.094055 -1036.81494
v 1.6309967 207.308929 -1026.37097
v -83.7396698 192.671631 -1006.23438
v -67.1667023 206.217773 -1011.64185
v -49.1476898 216.029449 -1013.55444
v -32.6215363 223.027405 -1010.4563
v -18.6994476 227.631897 -1002.25879
v -5.35090637 229.250427 -990.699097
v -7.29264832 242.347748 -947.98645
v -21.9571381 243.053894 -960.139648
v -21.8065948 250.239777 -915.756592
v -35.421524 240.688812 -970.916748
v -36.4028778 248.785095 -927.942139
v -34.7657623 252.823181 -882.563965
v -49.2405243 235.63559 -979.161377
v -49.8034515 245.299438 -938.772461
v -49.5528107 249.39325 -895.396606
v -47.3936615 252.728333 -850.241089
v -64.9557343 227.834076 -983.053589
v -63.392868 239.910706 -947.355103
v -63.2120514 245.295288 -906.318481
v -62.5189972 248.156311 -863.305054
v -59.8240509 252.000275 -819.774414
v -81.8357697 216.00058 -982.230469
v -78.510025 231.594818 -952.001587
v -76.8337555 239.907623 -914.729248
v -76.3895416 243.925018 -873.443726
v -75.0700531 247.031189 -831.788574
v -70.9539337 251.074371 -791.564453
v -97.1553192 198.592621 -978.022461
v -94.4175873 217.683289 -951.948364
v -91.2542267 230.714355 -919.110962
v -89.7433014 238.204254 -880.391846
v -88.665451 242.474579 -839.78064
v -85.735733 245.818573 -800.970703
v -79.0873871 248.814301 -765.974731
v -105.665054 169.812317 -980.408447
v -102.174911 136.570099 -989.53125
v -111.48732 162.895691 -960.334961
v -89.9531403 102.687065 -997.498413
v -105.547562 126.991524 -970.647827
v -113.992844 155.352844 -938.644287
v -71.9793549 69.6246719 -1002.08655
v -91.8953094 92.0935898 -977.933838
v -105.613083 118.099648 -949.122559
v -113.454849 147.791626 -914.368408
v -50.9907684 38.260807 -999.751709
v -73.0457306 59.2293625 -978.591431
v -90.236557 83.1520996 -953.217285
v -102.424271 110.423157 -922.943359
v -109.567917 140.341125 -886.62793
v -29.3627167 8.44410324 -988.366455
v -51.2345734 28.2601357 -969.737671
v -69.7762604 50.5007172 -947.347168
v -84.6230621 75.7210083 -921.097046
v -95.3573456 103.667328 -890.517212
v -101.897659 132.661591 -854.973755
v -8.79426575 -21.2241821 -969.214844
v -28.8871002 -2.80284119 -951.248291
v -46.7881317 17.9863358 -930.486084
v -62.285202 41.6482697 -906.963257
v -74.9263763 68.1740875 -880.71936
v -84.533371 96.2603912 -851.76123
v -90.7213287 123.434212 -820.05835
v 15.4618073 -53.6309814 -953.810059
v 40.6250458 -81.3312073 -949.187622
v 17.0419464 -65.9509277 -920.04834
v 66.9551239 -105.216583 -946.651245
v 41.8280792 -92.608757 -915.97644
v 19.0499725 -74.0605164 -884.858398
v 95.6685028 -125.060089 -945.808838
v 67.97258 -113.362061 -914.386841
v 43.7921906 -97.701561 -882.44458
v 22.4142303 -77.1134338 -849.87439
v 126.91568 -139.319946 -947.020386
v 97.0873566 -128.873062 -914.210815
v 70.5665436 -114.2108 -882.011719
v 47.7883759 -96.4998932 -849.358765
v 27.9902802 -74.733429 -816.529297
v 159.957245 -145.67984 -950.888916
v 129.600128 -138.00296 -916.207153
v 101.277863 -125.002686 -882.383545
v 76.259201 -108.395218 -849.654541
v 54.844223 -89.2805176 -817.406494
v 36.251297 -67.0470886 -786.105835
v 193.712433 -143.380066 -955.829468
v 164.880157 -138.878113 -920.977173
v 136.103729 -128.419205 -885.303711
v 109.517975 -113.692078 -850.459351
v 85.8394012 -96.0690536 -817.808838
v 65.2548065 -76.6376266 -787.247559
v 47.314682 -55.5679169 -759.111206
v 230.593842 -131.463165 -969.826294
v 258.97879 -110.786011 -986.91687
v 236.51712 -115.193787 -947.88208
v 276.944489 -80.1975327 -997.187256
v 263.057037 -89.0977783 -962.493652
v 238.134735 -92.8773727 -923.044189
v 285.551666 -42.5436249 -1001.50183
v 279.05014 -54.4102783 -970.093018
v 262.831573 -62.8709717 -935.82373
v 237.482452 -67.1497803 -896.267578
v 286.224396 -0.75210762 -1000.75574
v 286.358917 -14.0535469 -972.673584
v 277.530182 -25.4284592 -942.077515
v 260.559479 -34.3652153 -907.926147
v 236.231842 -39.9164581 -868.767578
v 280.093475 42.8360138 -994.372559
v 285.965607 30.0278912 -970.501343
v 283.611664 17.3476105 -943.511597
v 273.970856 5.56193542 -913.176514
v 257.638458 -4.62774277 -879.269043
v 235.398041 -11.8696976 -841.60022
v 265.649323 86.4953384 -982.351562
v 276.936371 76.6486053 -962.50415
v 280.975494 64.7665787 -939.448242
v 278.097137 51.6421661 -912.803345
v 268.9935 38.3904076 -882.728516
v 254.325775 26.2857475 -849.939087
v 234.630096 16.8170338 -815.544556
v 236.48819 126.168022 -973.127808
v 198.837494 151.838165 -969.234131
v 220.790436 155.20575 -946.802612
v 156.536713 171.651886 -964.362183
v 176.931549 179.344299 -941.13208
v 201.743073 180.127869 -919.678589
v 113.937347 188.323181 -959.977417
v 131.606232 197.122772 -934.496582
v 153.899078 202.145294 -911.986816
v 181.230804 200.056122 -890.297119
v 75.0209198 204.631409 -956.35791
v 89.2709198 212.608765 -928.259155
v 107.812836 218.615723 -902.979614
v 132.069611 220.423218 -880.028687
v 160.863861 215.153381 -857.85083
v 41.7297516 220.661621 -952.150024
v 52.2466278 227.481537 -921.831665
v 66.6526337 233.043396 -893.359619
v 86.7065887 235.960419 -867.458008
v 112.073029 234.338165 -844.293579
v 140.722076 226.137299 -822.948486
v 14.4117584 234.716797 -945.641968
v 20.9449615 240.437958 -913.448608
v 31.0205536 245.399536 -881.983521
v 46.2985992 248.76828 -852.855103
v 67.0709991 248.941803 -827.394409
v 92.2989044 244.287018 -806.055542
v 119.542694 233.827484 -788.117065
v -3.39756775 248.026917 -910.278198
v -17.5922699 254.502106 -874.035156
v 3.11528015 252.598969 -873.952759
v -30.4065094 256.823395 -839.210938
v -10.6887665 258.484894 -835.880249
v 13.8468475 256.33667 -840.346924
v -43.00383 257.166229 -806.988525
v -23.2837982 260.726562 -800.909058
v 0.558761597 261.362457 -801.960938
v 30.0478973 257.900421 -810.759888
v -54.8741608 256.321198 -777.539429
v -35.2211761 260.452087 -769.329956
v -11.1725311 262.309174 -767.515381
v 17.914566 260.854614 -772.973755
v 52.4212189 255.186768 -786.080322
v -64.2294159 253.412659 -750.69104
v -45.0783234 257.035889 -740.689941
v -20.8732147 258.853119 -736.599976
v 8.63902283 258.042969 -739.310181
v 42.9083099 253.938843 -749.375244
v 80.5489349 246.018768 -766.268921
v -107.003952 194.568359 -953.714111
v -112.866837 189.087097 -928.880493
v -104.309464 214.112976 -922.862183
v -115.585007 182.528778 -902.882202
v -110.500809 209.170685 -893.713135
v -101.495682 227.371155 -886.065063
v -115.045151 174.705719 -874.839111
v -113.443527 202.425659 -863.822144
v -107.821518 222.495361 -853.437012
v -99.6623688 235.252533 -844.910156
v -110.336288 165.467438 -843.559082
v -112.38118 193.214508 -831.883667
v -109.981552 214.900696 -820.010986
v -104.565964 230.215698 -809.769653
v -96.6160431 239.955719 -803.190674
v -100.348312 154.067261 -808.323364
v -105.29454 181.029877 -796.206909
v -105.803574 203.601288 -783.967285
v -102.765305 221.264313 -773.240601
v -97.2077179 234.098602 -766.161133
v -89.4564972 242.834656 -763.887329
v -6.20384216 -35.0351868 -932.43689
v -3.45603943 -45.2060394 -894.006958
v -24.3925629 -14.6408958 -910.07251
v 0.134658813 -51.3882294 -855.466064
v -19.7839508 -22.7345505 -868.476074
v -40.0290375 8.36418343 -886.466064
v 5.31748962 -52.8608246 -818.09436
v -14.3838654 -26.7616806 -827.420776
v -33.5185394 2.79682541 -842.542725
v -53.5375824 34.7272415 -861.169189
v 12.8969269 -48.9210205 -782.957031
v -7.38340759 -26.0010681 -787.487183
v -26.4775848 1.45833778 -798.842529
v -45.588913 32.0973778 -815.125244
v -65.0824738 64.2426529 -833.710938
v 23.995163 -39.6240082 -751.047607
v 2.82252502 -19.4413071 -749.54126
v -17.2136078 5.5096817 -755.419312
v -36.8255157 34.3283386 -767.983643
v -56.0670624 65.0182266 -784.959229
v -74.3220978 95.3475952 -803.201782
v 201.984589 -131.414612 -932.152954
v 206.056061 -112.51506 -907.004883
v 172.036652 -123.65831 -893.742188
v 207.539276 -89.0669174 -880.41272
v 176.068878 -102.596008 -866.282471
v 143.592804 -110.883118 -855.702759
v 208.17337 -63.3938293 -852.686523
v 178.558746 -78.3833618 -838.161743
v 148.361298 -88.6365204 -826.682983
v 117.572784 -94.8564682 -819.278809
v 209.121735 -35.9223175 -824.57373
v 180.709137 -52.2936172 -809.25415
v 151.654633 -63.7522736 -797.014038
v 122.589264 -71.8905334 -788.77771
v 93.6633453 -76.3696976 -785.146729
v 210.795502 -6.09558105 -796.874634
v 183.369843 -23.3114243 -779.864136
v 154.522308 -36.0737534 -766.127686
v 125.796234 -45.6695557 -756.780396
v 98.0801544 -52.272728 -752.200317
v 71.7332611 -55.5204926 -752.768677
v 255.68454 120.265335 -953.942261
v 241.522308 149.130005 -926.408203
v 267.322845 110.690109 -932.829224
v 224.294281 172.539337 -897.782593
v 254.218903 138.300964 -903.8125
v 271.728973 97.8295364 -908.567505
v 204.917877 190.50589 -866.240112
v 238.092682 159.954529 -872.927979
v 259.418182 123.725006 -877.477783
v 269.35257 82.8253326 -880.401733
v 183.718292 203.950256 -830.963989
v 218.772736 176.466278 -838.134155
v 243.560699 143.750977 -843.326172
v 257.270782 106.742867 -846.415405
v 260.384369 67.0217209 -848.202393
v 159.481476 213.987793 -793.088623
v 194.958344 189.062653 -798.771362
v 222.544586 159.25 -803.928101
v 240.031464 125.249329 -807.717529
v 246.972382 88.8471146 -810.200806
v 244.447601 52.0276451 -812.430664
v 57.1928253 121.227905 -653.998413
v 76.7977448 139.585358 -661.401489
v 33.3745575 148.145935 -656.311523
v 93.6692963 159.424377 -672.99231
v 48.5711212 168.424591 -663.897705
v 7.88111877 174.490265 -662.075073
v 106.340118 179.752197 -688.396484
v 60.1486359 189.088654 -675.584351
v 19.1345062 195.049316 -669.984253
v -17.7884979 199.434357 -671.849365
v 114.815521 198.855469 -707.791016
v 68.438858 208.752686 -691.099121
v 27.0537567 214.764465 -682.246826
v -9.45545959 218.677155 -680.296753
v -41.7251129 221.07962 -686.409424
v 119.663666 214.945099 -731.167725
v 74.2935028 225.593018 -710.893188
v 33.0048676 231.97287 -698.690796
v -3.38771057 235.648285 -693.805054
v -34.667099 237.336029 -696.122559
v -61.1326447 237.058105 -706.764038
v 121.213898 226.791779 -758.122681
v 78.3508453 238.322113 -735.650391
v 38.1242828 245.36087 -720.388672
v 2.26127625 249.063263 -712.730713
v -28.3366547 250.147369 -712.416504
v -53.5435944 249.042206 -719.196411
v -73.7930145 245.960236 -733.468506
v 92.3401642 105.591156 -659.593384
v 125.922516 90.8227921 -671.271729
v 117.389801 125.96167 -671.734131
v 155.776886 76.2195587 -689.445923
v 153.636993 112.732712 -688.498169
v 137.205536 146.853058 -688.287109
v 181.032501 61.3848877 -714.20166
v 184.164215 98.9605713 -711.765503
v 174.010895 134.21405 -710.206299
v 150.75589 167.478149 -708.702515
v 202.015839 45.9235611 -744.558838
v 209.007538 83.8437347 -740.766357
v 204.207123 120.29921 -738.290405
v 187.238312 154.622803 -735.657959
v 158.736481 186.357056 -733.052246
v 219.513092 30.6745834 -778.978516
v 228.648712 67.8099976 -774.692139
v 228.194305 104.867966 -771.770142
v 216.772247 140.377045 -768.729492
v 194.2435 173.05896 -765.009644
v 161.728607 202.135162 -761.209839
v 56.9837189 93.7400208 -652.323975
v 54.3256073 66.3935928 -655.106934
v 91.128952 74.3686905 -659.38916
v 50.6884308 39.559082 -663.699219
v 86.381546 45.0000381 -664.809692
v 121.542816 57.13274 -673.498779
v 47.432724 13.6949215 -678.984009
v 80.5086517 17.5616493 -676.890381
v 113.989105 26.8069763 -682.418213
v 147.789215 41.107029 -694.672363
v 45.556778 -10.7056656 -700.870117
v 75.4680939 -8.10121155 -695.960205
v 106.430817 -0.828388214 -698.439331
v 138.251312 10.2263489 -707.399292
v 170.612457 25.4097748 -722.74231
v 45.4698944 -33.6676521 -728.232056
v 72.5158234 -32.048378 -721.362793
v 100.804764 -26.7019577 -721.678955
v 130.284027 -18.0567131 -727.929443
v 160.7341 -6.22562027 -739.843018
v 191.194855 9.45827103 -757.142212
v 24.0045319 122.036102 -653.019775
v -6.25654602 125.55825 -660.385986
v 22.50737 93.9121552 -654.03125
v -32.8035431 130.494019 -677.048706
v -6.8948822 96.8412781 -665.398315
v 20.5236053 66.5348663 -660.338867
v -54.9142303 134.392487 -703.118286
v -31.4139557 100.525833 -686.867432
v -6.82633972 68.7248917 -676.343018
v 19.059494 39.5642891 -673.055054
v -71.9851837 134.813507 -737.369995
v -51.002182 102.361557 -718.296021
v -28.7299652 70.4802856 -703.250244
v -5.59089661 40.3093452 -694.150146
v 18.7668915 12.9703178 -692.841064
v -83.7288361 130.985077 -777.453613
v -65.3758698 100.614784 -757.994141
v -45.2266083 69.3733749 -739.925781
v -24.1629486 38.8911247 -725.973511
v -2.4896698 10.9072914 -718.597046
v 20.2938385 -13.3628197 -719.258911
v -1.19270325 151.617615 -659.004517
v -25.7363434 179.024109 -669.064331
v -30.8589325 157.113831 -671.205933
v -48.7574615 203.357147 -683.687744
v -53.388382 184.338684 -686.288208
v -55.857254 162.377563 -693.162231
v -68.4851227 222.958557 -703.72937
v -73.2887115 206.763062 -706.320068
v -76.061142 187.87439 -713.613892
v -76.0181427 164.721985 -724.363525
v -82.6441803 236.169098 -730.213745
v -88.6524506 223.448395 -732.465576
v -92.4608002 207.374146 -739.736816
v -93.5746002 187.231995 -750.616577
v -90.9477692 162.029022 -763.420166
g 
f 3 1 2
f 5 2 4
f 6 3 5
f 8 4 7
f 9 5 8
f 10 6 9
f 12 7 11
f 13 8 12
f 14 9 13
f 15 10 14
f 17 11 16
f 18 12 17
f 19 13 18
f 20 14 19
f 21 15 20
f 23 16 22
f 24 17 23
f 25 18 24
f 26 19 25
f 27 20 26
f 28 21 27
f 30 22 29
f 31 23 30
f 32 24 31
f 33 25 32
f 34 26 33
f 35 27 34
f 36 28 35
f 3 2 5
f 5 4 8
f 6 5 9
f 8 7 12
f 9 8 13
f 10 9 14
f 12 11 17
f 13 12 18
f 14 13 19
f 15 14 20
f 17 16 23
f 18 17 24
f 19 18 25
f 20 19 26
f 21 20 27
f 23 22 30
f 24 23 31
f 25 24 32
f 26 25 33
f 27 26 34
f 28 27 35
f 37 1 3
f 38 3 6
f 39 37 38
f 40 6 10
f 41 38 40
f 42 39 41
f 43 10 15
f 44 40 43
f 45 41 44
f 46 42 45
f 47 15 21
f 48 43 47
f 49 44 48
f 50 45 49
f 51 46 50
f 52 21 28
f 53 47 52
f 54 48 53
f 55 49 54
f 56 50 55
f 57 51 56
f 58 28 36
f 59 52 58
f 60 53 59
f 61 54 60
f 62 55 61
f 63 56 62
f 64 57 63
f 37 3 38
f 38 6 40
f 39 38 41
f 40 10 43
f 41 40 44
f 42 41 45
f 43 15 47
f 44 43 48
f 45 44 49
f 46 45 50
f 47 21 52
f 48 47 53
f 49 48 54
f 50 49 55
f 51 50 56
f 52 28 58
f 53 52 59
f 54 53 60
f 55 54 61
f 56 55 62
f 57 56 63
f 65 1 37
f 66 37 39
f 67 65 66
f 68 39 42
f 69 66 68
f 70 67 69
f 71 42 46
f 72 68 71
f 73 69 72
f 74 70 73
f 75 46 51
f 76 71 75
f 77 72 76
f 78 73 77
f 79 74 78
f 80 51 57
f 81 75 80
f 82 76 81
f 83 77 82
f 84 78 83
f 85 79 84
f 86 57 64
f 87 80 86
f 88 81 87
f 89 82 88
f 90 83 89
f 91 84 90
f 92 85 91
f 65 37 66
f 66 39 68
f 67 66 69
f 68 42 71
f 69 68 72
f 70 69 73
f 71 46 75
f 72 71 76
f 73 72 77
f 74 73 78
f 75 51 80
f 76 75 81
f 77 76 82
f 78 77 83
f 79 78 84
f 80 57 86
f 81 80 87
f 82 81 88
f 83 82 89
f 84 83 90
f 85 84 91
f 93 1 65
f 94 65 67
f 95 93 94
f 96 67 70
f 97 94 96
f 98 95 97
f 99 70 74
f 100 96 99
f 101 97 100
f 102 98 101
f 103 74 79
f 104 99 103
f 105 100 104
f 106 101 105
f 107 102 106
f 108 79 85
f 109 103 108
f 110 104 109
f 111 105 110
f 112 106 111
f 113 107 112
f 114 85 92
f 115 108 114
f 116 109 115
f 117 110 116
f 118 111 117
f 119 112 118
f 120 113 119
f 93 65 94
f 94 67 96
f 95 94 97
f 96 70 99
f 97 96 100
f 98 97 101
f 99 74 103
f 100 99 104
f 101 100 105
f 102 101 106
f 103 79 108
f 104 103 109
f 105 104 110
f 106 105 111
f 107 106 112
f 108 85 114
f 109 108 115
f 110 109 116
f 111 110 117
f 112 111 118
f 113 112 119
f 2 1 93
f 121 93 95
f 4 2 121
f 122 95 98
f 123 121 122
f 7 4 123
f 124 98 102
f 125 122 124
f 126 123 125
f 11 7 126
f 127 102 107
f 128 124 127
f 129 125 128
f 130 126 129
f 16 11 130
f 131 107 113
f 132 127 131
f 133 128 132
f 134 129 133
f 135 130 134
f 22 16 135
f 136 113 120
f 137 131 136
f 138 132 137
f 139 133 138
f 140 134 139
f 141 135 140
f 29 22 141
f 2 93 121
f 121 95 122
f 4 121 123
f 122 98 124
f 123 122 125
f 7 123 126
f 124 102 127
f 125 124 128
f 126 125 129
f 11 126 130
f 127 107 131
f 128 127 132
f 129 128 133
f 130 129 134
f 16 130 135
f 131 113 136
f 132 131 137
f 133 132 138
f 134 133 139
f 135 134 140
f 22 135 141
f 142 29 141
f 143 141 140
f 144 142 143
f 145 140 139
f 146 143 145
f 147 144 146
f 148 139 138
f 149 145 148
f 150 146 149
f 151 147 150
f 152 138 137
f 153 148 152
f 154 149 153
f 155 150 154
f 156 151 155
f 157 137 136
f 158 152 157
f 159 153 158
f 160 154 159
f 161 155 160
f 162 156 161
f 163 136 120
f 164 157 163
f 165 158 164
f 166 159 165
f 167 160 166
f 168 161 167
f 169 162 168
f 142 141 143
f 143 140 145
f 144 143 146
f 145 139 148
f 146 145 149
f 147 146 150
f 148 138 152
f 149 148 153
f 150 149 154
f 151 150 155
f 152 137 157
f 153 152 158
f 154 153 159
f 155 154 160
f 156 155 161
f 157 136 163
f 158 157 164
f 159 158 165
f 160 159 166
f 161 160 167
f 162 161 168
f 170 120 119
f 171 119 118
f 172 170 171
f 173 118 117
f 174 171 173
f 175 172 174
f 176 117 116
f 177 173 176
f 178 174 177
f 179 175 178
f 180 116 115
f 181 176 180
f 182 177 181
f 183 178 182
f 184 179 183
f 185 115 114
f 186 180 185
f 187 181 186
f 188 182 187
f 189 183 188
f 190 184 189
f 191 114 92
f 192 185 191
f 193 186 192
f 194 187 193
f 195 188 194
f 196 189 195
f 197 190 196
f 170 119 171
f 171 118 173
f 172 171 174
f 173 117 176
f 174 173 177
f 175 174 178
f 176 116 180
f 177 176 181
f 178 177 182
f 179 178 183
f 180 115 185
f 181 180 186
f 182 181 187
f 183 182 188
f 184 183 189
f 185 114 191
f 186 185 192
f 187 186 193
f 188 187 194
f 189 188 195
f 190 189 196
f 198 92 91
f 199 91 90
f 200 198 199
f 201 90 89
f 202 199 201
f 203 200 202
f 204 89 88
f 205 201 204
f 206 202 205
f 207 203 206
f 208 88 87
f 209 204 208
f 210 205 209
f 211 206 210
f 212 207 211
f 213 87 86
f 214 208 213
f 215 209 214
f 216 210 215
f 217 211 216
f 218 212 217
f 219 86 64
f 220 213 219
f 221 214 220
f 222 215 221
f 223 216 222
f 224 217 223
f 225 218 224
f 198 91 199
f 199 90 201
f 200 199 202
f 201 89 204
f 202 201 205
f 203 202 206
f 204 88 208
f 205 204 209
f 206 205 210
f 207 206 211
f 208 87 213
f 209 208 214
f 210 209 215
f 211 210 216
f 212 211 217
f 213 86 219
f 214 213 220
f 215 214 221
f 216 215 222
f 217 216 223
f 218 217 224
f 226 64 63
f 227 63 62
f 228 226 227
f 229 62 61
f 230 227 229
f 231 228 230
f 232 61 60
f 233 229 232
f 234 230 233
f 235 231 234
f 236 60 59
f 237 232 236
f 238 233 237
f 239 234 238
f 240 235 239
f 241 59 58
f 242 236 241
f 243 237 242
f 244 238 243
f 245 239 244
f 246 240 245
f 247 58 36
f 248 241 247
f 249 242 248
f 250 243 249
f 251 244 250
f 252 245 251
f 253 246 252
f 226 63 227
f 227 62 229
f 228 227 230
f 229 61 232
f 230 229 233
f 231 230 234
f 232 60 236
f 233 232 237
f 234 233 238
f 235 234 239
f 236 59 241
f 237 236 242
f 238 237 243
f 239 238 244
f 240 239 245
f 241 58 247
f 242 241 248
f 243 242 249
f 244 243 250
f 245 244 251
f 246 245 252
f 254 36 35
f 255 35 34
f 256 254 255
f 257 34 33
f 258 255 257
f 259 256 258
f 260 33 32
f 261 257 260
f 262 258 261
f 263 259 262
f 264 32 31
f 265 260 264
f 266 261 265
f 267 262 266
f 268 263 267
f 269 31 30
f 270 264 269
f 271 265 270
f 272 266 271
f 273 267 272
f 274 268 273
f 275 30 29
f 276 269 275
f 277 270 276
f 278 271 277
f 279 272 278
f 280 273 279
f 281 274 280
f 254 35 255
f 255 34 257
f 256 255 258
f 257 33 260
f 258 257 261
f 259 258 262
f 260 32 264
f 261 260 265
f 262 261 266
f 263 262 267
f 264 31 269
f 265 264 270
f 266 265 271
f 267 266 272
f 268 267 273
f 269 30 275
f 270 269 276
f 271 270 277
f 272 271 278
f 273 272 279
f 274 273 280
f 275 29 142
f 282 142 144
f 276 275 282
f 283 144 147
f 284 282 283
f 277 276 284
f 285 147 151
f 286 283 285
f 287 284 286
f 278 277 287
f 288 151 156
f 289 285 288
f 290 286 289
f 291 287 290
f 279 278 291
f 292 156 162
f 293 288 292
f 294 289 293
f 295 290 294
f 296 291 295
f 280 279 296
f 297 162 169
f 298 292 297
f 299 293 298
f 300 294 299
f 301 295 300
f 302 296 301
f 281 280 302
f 275 142 282
f 282 144 283
f 276 282 284
f 283 147 285
f 284 283 286
f 277 284 287
f 285 151 288
f 286 285 289
f 287 286 290
f 278 287 291
f 288 156 292
f 289 288 293
f 290 289 294
f 291 290 295
f 279 291 296
f 292 162 297
f 293 292 298
f 294 293 299
f 295 294 300
f 296 295 301
f 280 296 302
f 163 120 170
f 303 170 172
f 164 163 303
f 304 172 175
f 305 303 304
f 165 164 305
f 306 175 179
f 307 304 306
f 308 305 307
f 166 165 308
f 309 179 184
f 310 306 309
f 311 307 310
f 312 308 311
f 167 166 312
f 313 184 190
f 314 309 313
f 315 310 314
f 316 311 315
f 317 312 316
f 168 167 317
f 318 190 197
f 319 313 318
f 320 314 319
f 321 315 320
f 322 316 321
f 323 317 322
f 169 168 323
f 163 170 303
f 303 172 304
f 164 303 305
f 304 175 306
f 305 304 307
f 165 305 308
f 306 179 309
f 307 306 310
f 308 307 311
f 166 308 312
f 309 184 313
f 310 309 314
f 311 310 315
f 312 311 316
f 167 312 317
f 313 190 318
f 314 313 319
f 315 314 320
f 316 315 321
f 317 316 322
f 168 317 323
f 191 92 198
f 324 198 200
f 192 191 324
f 325 200 203
f 326 324 325
f 193 192 326
f 327 203 207
f 328 325 327
f 329 326 328
f 194 193 329
f 330 207 212
f 331 327 330
f 332 328 331
f 333 329 332
f 195 194 333
f 334 212 218
f 335 330 334
f 336 331 335
f 337 332 336
f 338 333 337
f 196 195 338
f 339 218 225
f 340 334 339
f 341 335 340
f 342 336 341
f 343 337 342
f 344 338 343
f 197 196 344
f 191 198 324
f 324 200 325
f 192 324 326
f 325 203 327
f 326 325 328
f 193 326 329
f 327 207 330
f 328 327 331
f 329 328 332
f 194 329 333
f 330 212 334
f 331 330 335
f 332 331 336
f 333 332 337
f 195 333 338
f 334 218 339
f 335 334 340
f 336 335 341
f 337 336 342
f 338 337 343
f 196 338 344
f 219 64 226
f 345 226 228
f 220 219 345
f 346 228 231
f 347 345 346
f 221 220 347
f 348 231 235
f 349 346 348
f 350 347 349
f 222 221 350
f 351 235 240
f 352 348 351
f 353 349 352
f 354 350 353
f 223 222 354
f 355 240 246
f 356 351 355
f 357 352 356
f 358 353 357
f 359 354 358
f 224 223 359
f 360 246 253
f 361 355 360
f 362 356 361
f 363 357 362
f 364 358 363
f 365 359 364
f 225 224 365
f 219 226 345
f 345 228 346
f 220 345 347
f 346 231 348
f 347 346 349
f 221 347 350
f 348 235 351
f 349 348 352
f 350 349 353
f 222 350 354
f 351 240 355
f 352 351 356
f 353 352 357
f 354 353 358
f 223 354 359
f 355 246 360
f 356 355 361
f 357 356 362
f 358 357 363
f 359 358 364
f 224 359 365
f 247 36 254
f 366 254 256
f 248 247 366
f 367 256 259
f 368 366 367
f 249 248 368
f 369 259 263
f 370 367 369
f 371 368 370
f 250 249 371
f 372 263 268
f 373 369 372
f 374 370 373
f 375 371 374
f 251 250 375
f 376 268 274
f 377 372 376
f 378 373 377
f 379 374 378
f 380 375 379
f 252 251 380
f 381 274 281
f 382 376 381
f 383 377 382
f 384 378 383
f 385 379 384
f 386 380 385
f 253 252 386
f 247 254 366
f 366 256 367
f 248 366 368
f 367 259 369
f 368 367 370
f 249 368 371
f 369 263 372
f 370 369 373
f 371 370 374
f 250 371 375
f 372 268 376
f 373 372 377
f 374 373 378
f 375 374 379
f 251 375 380
f 376 274 381
f 377 376 382
f 378 377 383
f 379 378 384
f 380 379 385
f 252 380 386
f 389 387 388
f 391 388 390
f 392 389 391
f 394 390 393
f 395 391 394
f 396 392 395
f 398 393 397
f 399 394 398
f 400 395 399
f 401 396 400
f 403 397 402
f 404 398 403
f 405 399 404
f 406 400 405
f 407 401 406
f 409 402 408
f 410 403 409
f 411 404 410
f 412 405 411
f 413 406 412
f 414 407 413
f 302 408 281
f 301 409 302
f 300 410 301
f 299 411 300
f 298 412 299
f 297 413 298
f 169 414 297
f 389 388 391
f 391 390 394
f 392 391 395
f 394 393 398
f 395 394 399
f 396 395 400
f 398 397 403
f 399 398 404
f 400 399 405
f 401 400 406
f 403 402 409
f 404 403 410
f 405 404 411
f 406 405 412
f 407 406 413
f 409 408 302
f 410 409 301
f 411 410 300
f 412 411 299
f 413 412 298
f 414 413 297
f 388 387 415
f 417 415 416
f 390 388 417
f 419 416 418
f 420 417 419
f 393 390 420
f 422 418 421
f 423 419 422
f 424 420 423
f 397 393 424
f 426 421 425
f 427 422 426
f 428 423 427
f 429 424 428
f 402 397 429
f 431 425 430
f 432 426 431
f 433 427 432
f 434 428 433
f 435 429 434
f 408 402 435
f 386 430 253
f 385 431 386
f 384 432 385
f 383 433 384
f 382 434 383
f 381 435 382
f 281 408 381
f 388 415 417
f 417 416 419
f 390 417 420
f 419 418 422
f 420 419 423
f 393 420 424
f 422 421 426
f 423 422 427
f 424 423 428
f 397 424 429
f 426 425 431
f 427 426 432
f 428 427 433
f 429 428 434
f 402 429 435
f 431 430 386
f 432 431 385
f 433 432 384
f 434 433 383
f 435 434 382
f 408 435 381
f 415 387 436
f 438 436 437
f 416 415 438
f 440 437 439
f 441 438 440
f 418 416 441
f 443 439 442
f 444 440 443
f 445 441 444
f 421 418 445
f 447 442 446
f 448 443 447
f 449 444 448
f 450 445 449
f 425 421 450
f 452 446 451
f 453 447 452
f 454 448 453
f 455 449 454
f 456 450 455
f 430 425 456
f 365 451 225
f 364 452 365
f 363 453 364
f 362 454 363
f 361 455 362
f 360 456 361
f 253 430 360
f 415 436 438
f 438 437 440
f 416 438 441
f 440 439 443
f 441 440 444
f 418 441 445
f 443 442 447
f 444 443 448
f 445 444 449
f 421 445 450
f 447 446 452
f 448 447 453
f 449 448 454
f 450 449 455
f 425 450 456
f 452 451 365
f 453 452 364
f 454 453 363
f 455 454 362
f 456 455 361
f 430 456 360
f 436 387 457
f 459 457 458
f 437 436 459
f 461 458 460
f 462 459 461
f 439 437 462
f 464 460 463
f 465 461 464
f 466 462 465
f 442 439 466
f 468 463 467
f 469 464 468
f 470 465 469
f 471 466 470
f 446 442 471
f 473 467 472
f 474 468 473
f 475 469 474
f 476 470 475
f 477 471 476
f 451 446 477
f 344 472 197
f 343 473 344
f 342 474 343
f 341 475 342
f 340 476 341
f 339 477 340
f 225 451 339
f 436 457 459
f 459 458 461
f 437 459 462
f 461 460 464
f 462 461 465
f 439 462 466
f 464 463 468
f 465 464 469
f 466 465 470
f 442 466 471
f 468 467 473
f 469 468 474
f 470 469 475
f 471 470 476
f 446 471 477
f 473 472 344
f 474 473 343
f 475 474 342
f 476 475 341
f 477 476 340
f 451 477 339
f 457 387 389
f 478 389 392
f 458 457 478
f 479 392 396
f 480 478 479
f 460 458 480
f 481 396 401
f 482 479 481
f 483 480 482
f 463 460 483
f 484 401 407
f 485 481 484
f 486 482 485
f 487 483 486
f 467 463 487
f 488 407 414
f 489 484 488
f 490 485 489
f 491 486 490
f 492 487 491
f 472 467 492
f 323 414 169
f 322 488 323
f 321 489 322
f 320 490 321
f 319 491 320
f 318 492 319
f 197 472 318
f 457 389 478
f 478 392 479
f 458 478 480
f 479 396 481
f 480 479 482
f 460 480 483
f 481 401 484
f 482 481 485
f 483 482 486
f 463 483 487
f 484 407 488
f 485 484 489
f 486 485 490
f 487 486 491
f 467 487 492
f 488 414 323
f 489 488 322
f 490 489 321
f 491 490 320
f 492 491 319
f 472 492 318
