# File exported by Houdini 20.5.445 (www.sidefx.com)
# 492 points
# 2940 vertices
# 980 primitives
# Bounds: [-103.044159, -205.603104, -1140.02539] to [273.818054, 321.980225, -614.775574]
g 
v 95.2904053 135.330276 -1025.01392
v 84.0926514 174.057236 -1011.0036
v 105.597107 144.654343 -997.584534
v 75.1746216 209.485626 -994.809265
v 95.4016113 185.454086 -978.268494
v 116.547974 149.988647 -967.651062
v 69.9683228 240.651031 -976.401184
v 89.2491455 220.201324 -958.06842
v 108.503479 190.540604 -944.761536
v 128.924133 149.65976 -936.381653
v 68.2498779 267.084717 -955.775818
v 87.2731323 249.102081 -936.513489
v 105.493408 223.244781 -921.87677
v 123.792297 188.383392 -911.620056
v 143.317932 143.586868 -903.963684
v 68.8614502 288.685791 -933.324036
v 88.3288574 272.870667 -913.643982
v 106.5271 249.653442 -898.077698
v 123.976624 218.68988 -886.901672
v 141.480957 179.715088 -878.690613
v 159.657898 133.780396 -870.402283
v 70.2932739 305.415161 -910.035828
v 91.0194092 292.211914 -889.567688
v 110.054016 271.433716 -873.111145
v 127.864929 243.222382 -860.972961
v 144.79071 207.981308 -852.444153
v 161.312012 167.391052 -845.050476
v 177.464233 123.320786 -835.990051
v 71.5507812 316.734253 -886.865784
v 93.9447021 307.160217 -864.809998
v 114.691772 289.530457 -846.784973
v 133.963562 264.092438 -833.181213
v 151.666687 231.728012 -823.74115
v 167.874878 194.395035 -816.919739
v 182.890015 154.906509 -809.875793
v 196.352173 114.869995 -801.429749
v 112.279358 100.44902 -1021.23322
v 124.427124 105.871124 -992.314758
v 126.930664 62.3007698 -1015.00226
v 136.130432 106.959549 -961.472961
v 139.959839 64.8288269 -984.17865
v 137.932556 21.5163116 -1004.2868
v 148.661194 103.191833 -928.396667
v 152.22345 63.3269768 -950.866516
v 151.792114 22.2683868 -970.849792
v 145.215393 -20.5625343 -987.92804
v 162.663452 95.5710602 -892.743591
v 165.009094 57.9070702 -914.324402
v 164.763062 19.1857796 -934.264099
v 160.193848 -21.1778488 -951.865417
v 149.545349 -62.428772 -966.442078
v 178.451965 86.456543 -854.560974
v 179.192322 50.0646477 -874.027161
v 178.326782 12.8916588 -893.500916
v 174.385742 -25.5235519 -911.893738
v 166.052612 -64.5090027 -928.212219
v 152.161926 -102.126663 -941.562439
v 196.406799 78.9067078 -814.469788
v 195.815186 42.5230026 -829.956482
v 193.961609 5.45284462 -847.675354
v 189.798401 -32.3458366 -866.479065
v 182.260681 -70.0340271 -884.900208
v 170.519226 -105.805573 -901.547913
v 154.194824 -137.212448 -915.271301
v 95.1223145 103.433533 -1046.36206
v 110.916992 63.9459038 -1041.53198
v 92.4321289 70.8580475 -1062.82397
v 122.493652 22.7546806 -1032.71948
v 105.580139 28.6828957 -1055.02466
v 86.281189 38.3174248 -1074.35229
v 129.434082 -19.8557739 -1018.06671
v 113.478577 -14.0685806 -1042.30151
v 96.0531616 -5.06537628 -1062.28516
v 76.0587769 6.97224045 -1080.75171
v 132.658203 -62.6027527 -997.372986
v 116.523865 -57.5648804 -1022.90631
v 100.218872 -48.3851852 -1044.75439
v 82.1986084 -36.7138367 -1063.68018
v 61.6978149 -22.1032524 -1081.69995
v 133.678101 -104.207779 -971.476135
v 116.127258 -100.694168 -996.993225
v 99.4162598 -92.0938873 -1019.98065
v 82.4158936 -79.8868256 -1040.85181
v 63.7245483 -65.2134171 -1059.62402
v 43.3359985 -47.2318115 -1077.29639
v 134.100098 -142.692307 -941.839294
v 114.121643 -141.871414 -965.497742
v 95.06073 -135.02002 -987.839905
v 77.1010742 -122.930511 -1010.06403
v 59.1156616 -107.324081 -1031.3833
v 40.3780518 -88.933075 -1050.86743
v 21.5899048 -67.1347504 -1068.50562
v 78.5039673 147.836761 -1042.2605
v 77.4315186 114.2668 -1064.44092
v 63.0459595 158.01741 -1058.28345
v 73.8099365 81.1051331 -1080.9646
v 61.5997925 122.856705 -1081.19043
v 49.1704102 166.561722 -1073.77881
v 66.5598145 49.0889854 -1092.24536
v 57.0571899 89.6238251 -1097.8269
v 47.1646729 130.774033 -1097.40845
v 36.3433838 174.023071 -1088.65112
v 55.0618896 18.8923912 -1098.02563
v 48.2414551 58.5517311 -1108.75586
v 41.206604 98.1708527 -1114.07739
v 33.1655884 138.648636 -1112.68408
v 23.7038574 180.302917 -1101.85376
v 38.8952637 -8.60728455 -1097.60034
v 34.5163574 29.9502068 -1113.27734
v 30.0628052 68.6238708 -1124.08154
v 25.1030273 107.46344 -1128.65137
v 18.6812134 146.475327 -1125.2207
v 10.6622314 185.167343 -1111.61865
v 17.7766724 -31.8802567 -1090.53076
v 14.8986816 4.8536644 -1109.8938
v 12.7516479 42.4952354 -1125.72437
v 10.6720581 80.354599 -1135.99365
v 7.69085693 117.770111 -1138.63403
v 3.07794189 154.138458 -1132.12354
v -3.19415283 188.767868 -1116.22168
v 66.3583374 188.153564 -1028.95459
v 51.1881104 199.129257 -1044.6438
v 57.546936 223.421234 -1013.14935
v 37.8494263 207.756058 -1059.01782
v 42.7814331 233.923889 -1027.95508
v 52.5582886 253.685913 -994.568787
v 25.2647095 214.189651 -1072.14209
v 29.2399292 241.629059 -1040.58228
v 37.5323486 263.111633 -1008.03461
v 50.5230103 279.02771 -973.120544
v 12.204834 218.249557 -1083.60059
v 15.0053101 246.689545 -1052.32007
v 21.8770752 269.620911 -1019.80365
v 33.5015869 287.226318 -986.021301
v 49.6433105 299.4505 -949.783997
v -2.37835693 219.938583 -1092.15845
v -1.02832031 248.72348 -1062.90356
v 4.10638428 272.99823 -1030.83252
v 14.4775391 291.963989 -997.130676
v 29.8534546 305.724792 -961.783264
v 49.1530762 314.15448 -924.716614
v 56.9328003 321.980225 -887.948914
v 31.3901367 316.926331 -929.886902
v 40.9011841 320.692505 -890.034607
v 10.826416 306.410034 -969.413391
v 13.8882446 313.100403 -934.998108
v 24.8382568 314.014709 -892.029114
v -4.24829102 290.75354 -1006.3576
v -6.40765381 300.558044 -976.123596
v -2.07904053 304.129761 -938.779358
v 9.80157471 302.60144 -893.415955
v -13.1871948 269.49823 -1041.11621
v -20.1190796 282.747192 -1014.05402
v -21.2394409 289.373169 -980.641541
v -15.8847656 290.409058 -940.561218
v -3.39068604 287.41394 -893.73407
v -16.4923706 242.280701 -1073.51099
v -27.3555298 258.716858 -1049.22632
v -33.4541626 268.970856 -1018.74066
v -33.5831299 273.471436 -981.932678
v -27.2580566 273.480347 -939.397522
v -14.4511719 270.529724 -892.184998
v -16.8231201 210.093643 -1101.75244
v -29.7895508 228.186508 -1080.80664
v -39.8924561 241.93457 -1052.99609
v -44.9841003 250.714569 -1018.47992
v -43.9304199 254.919952 -978.253601
v -36.692627 255.550751 -934.132263
v -23.8586426 253.650787 -888.297424
v -13.7136841 171.294083 -1125.72705
v -9.84588623 134.041595 -1138.68213
v -25.9464111 155.194778 -1125.89331
v -8.32055664 96.535614 -1140.02539
v -24.7399292 116.672638 -1133.9812
v -40.3511963 140.966156 -1116.39014
v -8.31744385 58.4552956 -1131.76147
v -26.0460205 78.2763977 -1130.1792
v -41.4482727 100.966812 -1119.94653
v -56.7232361 127.570099 -1099.0769
v -8.40411377 19.4448738 -1116.19312
v -28.1549072 38.5324593 -1117.2793
v -44.6308899 60.5761833 -1111.90088
v -59.375 85.6312256 -1098.68677
v -73.6169434 114.447906 -1075.80469
v -7.27984619 -20.1799698 -1095.73169
v -29.3340454 -3.0562439 -1097.59497
v -47.8463135 18.1842918 -1094.95337
v -62.9911499 42.8257141 -1086.48193
v -76.6644897 70.7081146 -1071.20215
v -88.5480957 100.636002 -1047.92847
v -3.91064453 -59.8403168 -1071.64941
v -27.8892212 -46.3558655 -1072.75854
v -48.8017273 -27.1501236 -1070.8584
v -65.6495056 -3.00808716 -1064.7793
v -79.2428894 24.9389648 -1053.823
v -90.8033447 54.6679115 -1037.94141
v -99.0035706 83.6965942 -1016.61566
v 9.77478027 -97.3466644 -1045.68066
v 30.0550537 -122.97316 -1023.23688
v -1.29553223 -123.586533 -1019.49042
v 50.0910034 -143.466934 -999.214417
v 21.053833 -150.699173 -992.747864
v -10.0499268 -144.578949 -990.109924
v 70.3956909 -159.552078 -975.028503
v 43.7067871 -171.184189 -965.666077
v 15.1884766 -171.42894 -960.168274
v -15.0512085 -158.873291 -957.694885
v 92.416748 -170.260559 -952.353333
v 68.2557983 -185.825897 -940.690735
v 41.9110718 -190.306915 -931.993713
v 14.005249 -183.846924 -926.304138
v -14.3007812 -165.698318 -923.535095
v 116.524353 -174.309555 -930.152649
v 95.7995605 -193.749664 -917.885193
v 72.0899658 -201.905136 -906.913147
v 46.0290527 -199.397018 -898.151672
v 19.3529663 -186.998154 -892.244202
v -5.89520264 -164.651154 -889.731628
v 142.037964 -170.216949 -905.435974
v 126.126892 -193.122437 -894.020325
v 106.196472 -204.83287 -882.205872
v 82.727417 -205.603104 -871.56842
v 57.5914307 -196.830536 -863.433533
v 32.8876343 -179.650391 -858.597717
v 10.8327637 -154.887115 -857.644714
v 168.33667 -147.962448 -880.909119
v 186.251953 -113.184067 -861.683044
v 183.269409 -150.323822 -845.544861
v 198.46875 -74.8413391 -840.987976
v 202.054077 -111.754181 -822.555237
v 197.812622 -142.831024 -809.135559
v 206.386108 -35.0790024 -820.516174
v 214.693115 -70.4082336 -799.73468
v 217.216431 -101.019745 -784.173889
v 211.367981 -125.093689 -772.215637
v 211.270935 5.11276054 -801.829407
v 223.261841 -27.7935677 -778.818176
v 230.611877 -56.8260956 -760.841858
v 231.493347 -81.0731964 -746.802185
v 223.56366 -98.7161713 -735.998718
v 214.193054 45.5966148 -786.243958
v 229.378723 15.7456131 -761.206482
v 240.747375 -11.1635513 -740.463074
v 246.386719 -34.7282944 -723.935669
v 244.695374 -53.4154358 -710.866028
v 234.088928 -65.9046097 -701.581787
v 215.583557 86.8302307 -774.291443
v 233.447998 60.8059731 -747.909851
v 248.463623 36.5031776 -724.24585
v 258.31366 14.1015739 -704.594788
v 261.108459 -4.99354935 -689.024475
v 255.566223 -19.2436218 -677.543091
v 241.863708 -28.3889389 -671.054749
v 208.18512 133.478043 -774.07074
v 193.121765 176.082916 -782.327576
v 218.806213 153.726624 -749.699768
v 176.530823 216.152695 -789.182922
v 201.105103 197.514801 -758.818787
v 226.140503 174.673279 -728.583984
v 158.268372 252.344635 -796.829407
v 181.866943 236.765076 -766.400696
v 205.305847 217.961395 -738.743591
v 228.442749 195.236084 -710.622314
v 137.743958 282.448944 -808.534729
v 160.417542 270.283661 -775.56012
v 182.867798 254.690582 -746.878479
v 204.546997 236.239059 -720.900452
v 224.371826 214.209229 -695.120972
v 114.59845 304.980591 -825.570007
v 135.857849 296.702454 -789.959778
v 157.224976 284.403809 -758.030212
v 178.176697 269.294708 -730.198975
v 197.225891 251.466095 -705.483521
v 212.944641 229.603271 -682.19397
v 88.0911255 318.469971 -849.326111
v 106.678589 314.301819 -812.236633
v 126.464294 305.709351 -777.013977
v 146.542786 294.100525 -745.191467
v 165.524719 279.773529 -717.727051
v 181.706604 261.864532 -694.012451
v 194.652161 240.186646 -673.074341
v 73.3878784 321.82959 -846.88385
v 57.5455322 318.22467 -845.868713
v 91.7091675 316.197937 -807.077942
v 41.621521 309.592957 -845.719177
v 75.7023926 311.506836 -804.266174
v 111.061523 307.359375 -770.136536
v 26.3358765 296.401306 -846.298157
v 59.4083252 301.804321 -803.352356
v 94.6314087 302.466553 -766.268005
v 130.495605 296.088379 -737.008484
v 12.2427979 279.679993 -846.699036
v 43.1740723 287.01178 -803.819885
v 77.3095703 291.116455 -764.719666
v 113.141602 289.859924 -731.918213
v 148.554626 280.676636 -707.948669
v -0.492248535 260.909424 -845.700256
v 27.6672363 267.511963 -804.269592
v 60.0263672 272.563141 -764.708679
v 95.1710205 274.498627 -729.283691
v 130.828003 270.894806 -701.007202
v 164.470642 259.413696 -682.424438
v -28.2929077 192.907898 -1107.18726
v -40.8764038 177.976486 -1101.96753
v -41.5901184 210.753296 -1081.11426
v -55.0803528 165.184753 -1087.3916
v -53.6329041 196.448715 -1070.20947
v -51.0400391 224.325836 -1047.72388
v -70.7112732 153.023834 -1066.29736
v -66.53302 184.466415 -1050.47363
v -61.6754761 210.58905 -1031.19263
v -54.7006226 233.462967 -1007.54742
v -85.8886719 139.584366 -1040.10107
v -79.9346008 172.008591 -1024.91724
v -72.2395935 198.390442 -1006.05109
v -63.0960083 219.876816 -985.232361
v -51.5631104 238.229858 -961.565125
v -97.8053589 121.481812 -1008.94379
v -91.7320251 154.788055 -994.361755
v -81.7844238 182.857285 -974.686707
v -69.7533264 205.461838 -953.702698
v -56.3039246 223.521225 -932.70697
v -41.0524902 238.86322 -911.123474
v -18.6778564 -87.9565277 -1046.31519
v -30.6255493 -110.151688 -1018.45758
v -43.4534302 -71.3003235 -1044.44727
v -38.8867188 -126.134857 -987.38031
v -54.8063354 -89.1669617 -1013.81952
v -63.7252502 -48.2139664 -1039.00488
v -41.4957886 -135.616776 -953.361389
v -60.7503357 -100.699692 -980.334778
v -73.0393372 -61.821167 -1005.13861
v -79.0093384 -19.7098503 -1029.38794
v -35.8950195 -138.175629 -917.251648
v -58.6704712 -106.12117 -944.207214
v -74.8650208 -69.506752 -968.946838
v -85.505249 -29.5712509 -992.58197
v -90.9673462 12.334877 -1015.82452
v -19.8510132 -132.504532 -880.19342
v -45.5130005 -104.1996 -905.212708
v -66.2125244 -70.8088837 -929.600647
v -82.5984192 -33.6294022 -953.120667
v -94.1315613 5.90010262 -975.880432
v -99.742981 45.7707481 -997.430359
v 156.952209 -178.902847 -869.975403
v 171.741394 -175.61647 -833.976379
v 141.173828 -196.10318 -858.021912
v 184.888672 -160.819916 -797.947693
v 154.526062 -185.451279 -822.357361
v 120.339233 -200.525421 -846.164246
v 197.362793 -135.220184 -760.852356
v 167.218872 -162.890503 -786.226746
v 133.469543 -182.646301 -811.259705
v 96.536499 -194.331833 -836.270813
v 208.869751 -100.847473 -723.696838
v 179.294617 -129.840607 -749.060364
v 145.939575 -152.91893 -775.759338
v 109.486328 -169.537994 -802.527039
v 71.1395874 -178.827057 -829.492371
v 218.599304 -58.5507584 -688.182373
v 190.468994 -86.3526611 -711.541321
v 157.960022 -110.956223 -739.11676
v 122.001404 -131.2435 -768.427185
v 84.0336304 -145.978119 -797.764221
v 46.1345825 -154.112915 -827.022034
v 230.53064 107.360764 -744.49884
v 242.099426 128.880173 -719.665894
v 249.729248 83.8663483 -717.204041
v 248.1026 150.776001 -699.25177
v 260.272034 106.880508 -692.802368
v 263.925171 62.0357094 -693.594788
v 246.918518 172.743317 -682.721924
v 263.09137 130.351089 -673.473938
v 271.597473 87.0585175 -669.978394
v 271.032532 42.3734703 -674.321838
v 236.93988 192.885605 -669.201477
v 256.214478 153.589813 -658.007568
v 269.241028 112.647888 -651.223999
v 273.818054 70.3300934 -650.959595
v 268.870056 26.5419006 -659.133118
v 217.726196 209.448944 -658.482483
v 237.900146 174.887421 -645.484802
v 253.839539 137.572205 -635.858704
v 263.205444 98.2900696 -632.258179
v 263.933105 57.3890343 -636.423767
v 256.083618 14.9462738 -649.37323
v 44.4071045 104.820953 -724.433594
v 72.8417358 131.997116 -689.24469
v 25.1871338 131.704865 -736.722229
v 101.812073 157.06958 -662.643494
v 55.0228882 159.809067 -704.449158
v 10.71698 157.903091 -752.894348
v 129.402161 179.548126 -647.023926
v 84.0535889 184.790131 -682.902344
v 41.2802734 184.973557 -724.996338
v 0.635070801 183.248367 -773.060364
v 153.4245 199.260468 -642.325012
v 110.46051 207.3358 -671.570435
v 69.2833862 208.95459 -708.126709
v 30.3044434 208.121399 -749.895813
v -6.62982178 206.529282 -797.290466
v 172.454102 215.816833 -647.074097
v 132.879028 227.754974 -668.730164
v 93.5552979 231.394531 -699.707703
v 55.6239014 230.871719 -736.802673
v 19.9547119 228.722046 -778.684387
v -12.960144 225.916611 -825.612488
v 186.112183 229.361893 -658.166138
v 150.901062 245.463531 -672.550537
v 113.936157 252.413177 -697.399841
v 76.8422852 253.076416 -730.358093
v 41.5419312 250.371307 -768.737122
v 9.3024292 246.249634 -810.78595
v -18.989563 241.089081 -856.554382
v 83.8574829 94.4679871 -692.38208
v 123.09729 81.8341064 -666.551575
v 115.963135 122.792953 -656.073181
v 158.911316 64.6808777 -649.938293
v 156.041321 109.608078 -633.864929
v 145.879883 146.817184 -633.128601
v 189.453674 43.0829048 -643.103333
v 191.049133 90.8155518 -623.617371
v 184.799866 131.096451 -617.720459
v 172.175964 166.669617 -624.117615
v 213.942688 18.9644585 -644.846497
v 220.352539 67.5358429 -623.783508
v 218.123352 109.64241 -614.775574
v 208.697693 147.637039 -616.429688
v 193.410828 182.873703 -627.530762
v 231.42218 -5.91951752 -654.483337
v 242.638733 41.5201759 -632.651367
v 245.328186 84.5906982 -621.359314
v 239.571472 124.294632 -619.870239
v 226.778137 161.557693 -626.797119
v 208.657837 196.696259 -640.272949
v 41.605896 69.2901001 -743.321716
v 39.6981201 31.26474 -763.532166
v 83.6937256 54.0575829 -712.61145
v 36.2382202 -8.67084122 -783.187073
v 81.5114136 11.484827 -734.909668
v 121.915283 36.2985611 -690.086731
v 29.8660278 -49.198143 -802.392761
v 75.1365967 -32.5797234 -757.654602
v 116.479187 -10.7693138 -715.928772
v 154.376282 14.6806488 -676.819641
v 21.3132935 -88.776947 -821.148621
v 65.1533813 -76.3193054 -780.763123
v 106.855103 -57.9455719 -742.484192
v 145.624634 -35.3362274 -705.582214
v 181.401489 -9.48177338 -671.854248
v 13.9187012 -124.870499 -839.341736
v 54.4202271 -117.651062 -803.620178
v 95.1450195 -103.588013 -769.562439
v 134.116943 -84.2767944 -735.920593
v 170.228638 -60.9739075 -703.675354
v 202.854248 -34.6679001 -675.446411
v 5.03424072 94.4601288 -769.772644
v -30.2838745 86.6854401 -814.903992
v -0.198059082 55.6023979 -792.378357
v -60.2666626 83.1827393 -858.331604
v -36.211731 46.1560707 -838.111877
v -3.55175781 16.646492 -812.888611
v -83.3881226 83.9483032 -900.318542
v -65.6776123 42.5026932 -880.414734
v -39.394165 7.61953735 -857.499451
v -7.22814941 -22.1021957 -830.948059
v -97.9743958 86.3444672 -940.9422
v -87.1262512 43.2859421 -920.242737
v -67.4813232 4.32189178 -898.003357
v -41.9173279 -30.061882 -873.704529
v -12.322937 -60.6917114 -847.331848
v -103.044159 86.9964294 -979.9505
v -98.836792 45.4383659 -958.976013
v -86.38797 4.7646904 -936.657776
v -67.6297607 -33.1679611 -913.296936
v -44.5479431 -67.5831451 -888.814636
v -17.8591919 -98.3002777 -863.455994
v -14.6588745 125.003372 -784.927917
v -26.9095459 154.689926 -802.223816
v -47.3054199 121.999649 -831.124207
v -33.4429932 182.462479 -822.807434
v -55.4872437 154.822388 -849.313782
v -72.6816101 122.511078 -876.039368
v -36.8356934 206.190414 -847.914368
v -57.8204041 183.659912 -871.325012
v -76.1108704 156.880417 -896.377991
v -90.282074 124.970093 -920.771301
v -39.2302856 224.540268 -877.869568
v -57.5022278 206.64415 -899.10675
v -74.1540527 184.992477 -921.489075
v -88.6652222 158.230286 -944.770935
v -98.962616 125.765472 -965.333801
g 
f 3 1 2
f 5 2 4
f 6 3 5
f 8 4 7
f 9 5 8
f 10 6 9
f 12 7 11
f 13 8 12
f 14 9 13
f 15 10 14
f 17 11 16
f 18 12 17
f 19 13 18
f 20 14 19
f 21 15 20
f 23 16 22
f 24 17 23
f 25 18 24
f 26 19 25
f 27 20 26
f 28 21 27
f 30 22 29
f 31 23 30
f 32 24 31
f 33 25 32
f 34 26 33
f 35 27 34
f 36 28 35
f 3 2 5
f 5 4 8
f 6 5 9
f 8 7 12
f 9 8 13
f 10 9 14
f 12 11 17
f 13 12 18
f 14 13 19
f 15 14 20
f 17 16 23
f 18 17 24
f 19 18 25
f 20 19 26
f 21 20 27
f 23 22 30
f 24 23 31
f 25 24 32
f 26 25 33
f 27 26 34
f 28 27 35
f 37 1 3
f 38 3 6
f 39 37 38
f 40 6 10
f 41 38 40
f 42 39 41
f 43 10 15
f 44 40 43
f 45 41 44
f 46 42 45
f 47 15 21
f 48 43 47
f 49 44 48
f 50 45 49
f 51 46 50
f 52 21 28
f 53 47 52
f 54 48 53
f 55 49 54
f 56 50 55
f 57 51 56
f 58 28 36
f 59 52 58
f 60 53 59
f 61 54 60
f 62 55 61
f 63 56 62
f 64 57 63
f 37 3 38
f 38 6 40
f 39 38 41
f 40 10 43
f 41 40 44
f 42 41 45
f 43 15 47
f 44 43 48
f 45 44 49
f 46 45 50
f 47 21 52
f 48 47 53
f 49 48 54
f 50 49 55
f 51 50 56
f 52 28 58
f 53 52 59
f 54 53 60
f 55 54 61
f 56 55 62
f 57 56 63
f 65 1 37
f 66 37 39
f 67 65 66
f 68 39 42
f 69 66 68
f 70 67 69
f 71 42 46
f 72 68 71
f 73 69 72
f 74 70 73
f 75 46 51
f 76 71 75
f 77 72 76
f 78 73 77
f 79 74 78
f 80 51 57
f 81 75 80
f 82 76 81
f 83 77 82
f 84 78 83
f 85 79 84
f 86 57 64
f 87 80 86
f 88 81 87
f 89 82 88
f 90 83 89
f 91 84 90
f 92 85 91
f 65 37 66
f 66 39 68
f 67 66 69
f 68 42 71
f 69 68 72
f 70 69 73
f 71 46 75
f 72 71 76
f 73 72 77
f 74 73 78
f 75 51 80
f 76 75 81
f 77 76 82
f 78 77 83
f 79 78 84
f 80 57 86
f 81 80 87
f 82 81 88
f 83 82 89
f 84 83 90
f 85 84 91
f 93 1 65
f 94 65 67
f 95 93 94
f 96 67 70
f 97 94 96
f 98 95 97
f 99 70 74
f 100 96 99
f 101 97 100
f 102 98 101
f 103 74 79
f 104 99 103
f 105 100 104
f 106 101 105
f 107 102 106
f 108 79 85
f 109 103 108
f 110 104 109
f 111 105 110
f 112 106 111
f 113 107 112
f 114 85 92
f 115 108 114
f 116 109 115
f 117 110 116
f 118 111 117
f 119 112 118
f 120 113 119
f 93 65 94
f 94 67 96
f 95 94 97
f 96 70 99
f 97 96 100
f 98 97 101
f 99 74 103
f 100 99 104
f 101 100 105
f 102 101 106
f 103 79 108
f 104 103 109
f 105 104 110
f 106 105 111
f 107 106 112
f 108 85 114
f 109 108 115
f 110 109 116
f 111 110 117
f 112 111 118
f 113 112 119
f 2 1 93
f 121 93 95
f 4 2 121
f 122 95 98
f 123 121 122
f 7 4 123
f 124 98 102
f 125 122 124
f 126 123 125
f 11 7 126
f 127 102 107
f 128 124 127
f 129 125 128
f 130 126 129
f 16 11 130
f 131 107 113
f 132 127 131
f 133 128 132
f 134 129 133
f 135 130 134
f 22 16 135
f 136 113 120
f 137 131 136
f 138 132 137
f 139 133 138
f 140 134 139
f 141 135 140
f 29 22 141
f 2 93 121
f 121 95 122
f 4 121 123
f 122 98 124
f 123 122 125
f 7 123 126
f 124 102 127
f 125 124 128
f 126 125 129
f 11 126 130
f 127 107 131
f 128 127 132
f 129 128 133
f 130 129 134
f 16 130 135
f 131 113 136
f 132 131 137
f 133 132 138
f 134 133 139
f 135 134 140
f 22 135 141
f 142 29 141
f 143 141 140
f 144 142 143
f 145 140 139
f 146 143 145
f 147 144 146
f 148 139 138
f 149 145 148
f 150 146 149
f 151 147 150
f 152 138 137
f 153 148 152
f 154 149 153
f 155 150 154
f 156 151 155
f 157 137 136
f 158 152 157
f 159 153 158
f 160 154 159
f 161 155 160
f 162 156 161
f 163 136 120
f 164 157 163
f 165 158 164
f 166 159 165
f 167 160 166
f 168 161 167
f 169 162 168
f 142 141 143
f 143 140 145
f 144 143 146
f 145 139 148
f 146 145 149
f 147 146 150
f 148 138 152
f 149 148 153
f 150 149 154
f 151 150 155
f 152 137 157
f 153 152 158
f 154 153 159
f 155 154 160
f 156 155 161
f 157 136 163
f 158 157 164
f 159 158 165
f 160 159 166
f 161 160 167
f 162 161 168
f 170 120 119
f 171 119 118
f 172 170 171
f 173 118 117
f 174 171 173
f 175 172 174
f 176 117 116
f 177 173 176
f 178 174 177
f 179 175 178
f 180 116 115
f 181 176 180
f 182 177 181
f 183 178 182
f 184 179 183
f 185 115 114
f 186 180 185
f 187 181 186
f 188 182 187
f 189 183 188
f 190 184 189
f 191 114 92
f 192 185 191
f 193 186 192
f 194 187 193
f 195 188 194
f 196 189 195
f 197 190 196
f 170 119 171
f 171 118 173
f 172 171 174
f 173 117 176
f 174 173 177
f 175 174 178
f 176 116 180
f 177 176 181
f 178 177 182
f 179 178 183
f 180 115 185
f 181 180 186
f 182 181 187
f 183 182 188
f 184 183 189
f 185 114 191
f 186 185 192
f 187 186 193
f 188 187 194
f 189 188 195
f 190 189 196
f 198 92 91
f 199 91 90
f 200 198 199
f 201 90 89
f 202 199 201
f 203 200 202
f 204 89 88
f 205 201 204
f 206 202 205
f 207 203 206
f 208 88 87
f 209 204 208
f 210 205 209
f 211 206 210
f 212 207 211
f 213 87 86
f 214 208 213
f 215 209 214
f 216 210 215
f 217 211 216
f 218 212 217
f 219 86 64
f 220 213 219
f 221 214 220
f 222 215 221
f 223 216 222
f 224 217 223
f 225 218 224
f 198 91 199
f 199 90 201
f 200 199 202
f 201 89 204
f 202 201 205
f 203 202 206
f 204 88 208
f 205 204 209
f 206 205 210
f 207 206 211
f 208 87 213
f 209 208 214
f 210 209 215
f 211 210 216
f 212 211 217
f 213 86 219
f 214 213 220
f 215 214 221
f 216 215 222
f 217 216 223
f 218 217 224
f 226 64 63
f 227 63 62
f 228 226 227
f 229 62 61
f 230 227 229
f 231 228 230
f 232 61 60
f 233 229 232
f 234 230 233
f 235 231 234
f 236 60 59
f 237 232 236
f 238 233 237
f 239 234 238
f 240 235 239
f 241 59 58
f 242 236 241
f 243 237 242
f 244 238 243
f 245 239 244
f 246 240 245
f 247 58 36
f 248 241 247
f 249 242 248
f 250 243 249
f 251 244 250
f 252 245 251
f 253 246 252
f 226 63 227
f 227 62 229
f 228 227 230
f 229 61 232
f 230 229 233
f 231 230 234
f 232 60 236
f 233 232 237
f 234 233 238
f 235 234 239
f 236 59 241
f 237 236 242
f 238 237 243
f 239 238 244
f 240 239 245
f 241 58 247
f 242 241 248
f 243 242 249
f 244 243 250
f 245 244 251
f 246 245 252
f 254 36 35
f 255 35 34
f 256 254 255
f 257 34 33
f 258 255 257
f 259 256 258
f 260 33 32
f 261 257 260
f 262 258 261
f 263 259 262
f 264 32 31
f 265 260 264
f 266 261 265
f 267 262 266
f 268 263 267
f 269 31 30
f 270 264 269
f 271 265 270
f 272 266 271
f 273 267 272
f 274 268 273
f 275 30 29
f 276 269 275
f 277 270 276
f 278 271 277
f 279 272 278
f 280 273 279
f 281 274 280
f 254 35 255
f 255 34 257
f 256 255 258
f 257 33 260
f 258 257 261
f 259 258 262
f 260 32 264
f 261 260 265
f 262 261 266
f 263 262 267
f 264 31 269
f 265 264 270
f 266 265 271
f 267 266 272
f 268 267 273
f 269 30 275
f 270 269 276
f 271 270 277
f 272 271 278
f 273 272 279
f 274 273 280
f 275 29 142
f 282 142 144
f 276 275 282
f 283 144 147
f 284 282 283
f 277 276 284
f 285 147 151
f 286 283 285
f 287 284 286
f 278 277 287
f 288 151 156
f 289 285 288
f 290 286 289
f 291 287 290
f 279 278 291
f 292 156 162
f 293 288 292
f 294 289 293
f 295 290 294
f 296 291 295
f 280 279 296
f 297 162 169
f 298 292 297
f 299 293 298
f 300 294 299
f 301 295 300
f 302 296 301
f 281 280 302
f 275 142 282
f 282 144 283
f 276 282 284
f 283 147 285
f 284 283 286
f 277 284 287
f 285 151 288
f 286 285 289
f 287 286 290
f 278 287 291
f 288 156 292
f 289 288 293
f 290 289 294
f 291 290 295
f 279 291 296
f 292 162 297
f 293 292 298
f 294 293 299
f 295 294 300
f 296 295 301
f 280 296 302
f 163 120 170
f 303 170 172
f 164 163 303
f 304 172 175
f 305 303 304
f 165 164 305
f 306 175 179
f 307 304 306
f 308 305 307
f 166 165 308
f 309 179 184
f 310 306 309
f 311 307 310
f 312 308 311
f 167 166 312
f 313 184 190
f 314 309 313
f 315 310 314
f 316 311 315
f 317 312 316
f 168 167 317
f 318 190 197
f 319 313 318
f 320 314 319
f 321 315 320
f 322 316 321
f 323 317 322
f 169 168 323
f 163 170 303
f 303 172 304
f 164 303 305
f 304 175 306
f 305 304 307
f 165 305 308
f 306 179 309
f 307 306 310
f 308 307 311
f 166 308 312
f 309 184 313
f 310 309 314
f 311 310 315
f 312 311 316
f 167 312 317
f 313 190 318
f 314 313 319
f 315 314 320
f 316 315 321
f 317 316 322
f 168 317 323
f 191 92 198
f 324 198 200
f 192 191 324
f 325 200 203
f 326 324 325
f 193 192 326
f 327 203 207
f 328 325 327
f 329 326 328
f 194 193 329
f 330 207 212
f 331 327 330
f 332 328 331
f 333 329 332
f 195 194 333
f 334 212 218
f 335 330 334
f 336 331 335
f 337 332 336
f 338 333 337
f 196 195 338
f 339 218 225
f 340 334 339
f 341 335 340
f 342 336 341
f 343 337 342
f 344 338 343
f 197 196 344
f 191 198 324
f 324 200 325
f 192 324 326
f 325 203 327
f 326 325 328
f 193 326 329
f 327 207 330
f 328 327 331
f 329 328 332
f 194 329 333
f 330 212 334
f 331 330 335
f 332 331 336
f 333 332 337
f 195 333 338
f 334 218 339
f 335 334 340
f 336 335 341
f 337 336 342
f 338 337 343
f 196 338 344
f 219 64 226
f 345 226 228
f 220 219 345
f 346 228 231
f 347 345 346
f 221 220 347
f 348 231 235
f 349 346 348
f 350 347 349
f 222 221 350
f 351 235 240
f 352 348 351
f 353 349 352
f 354 350 353
f 223 222 354
f 355 240 246
f 356 351 355
f 357 352 356
f 358 353 357
f 359 354 358
f 224 223 359
f 360 246 253
f 361 355 360
f 362 356 361
f 363 357 362
f 364 358 363
f 365 359 364
f 225 224 365
f 219 226 345
f 345 228 346
f 220 345 347
f 346 231 348
f 347 346 349
f 221 347 350
f 348 235 351
f 349 348 352
f 350 349 353
f 222 350 354
f 351 240 355
f 352 351 356
f 353 352 357
f 354 353 358
f 223 354 359
f 355 246 360
f 356 355 361
f 357 356 362
f 358 357 363
f 359 358 364
f 224 359 365
f 247 36 254
f 366 254 256
f 248 247 366
f 367 256 259
f 368 366 367
f 249 248 368
f 369 259 263
f 370 367 369
f 371 368 370
f 250 249 371
f 372 263 268
f 373 369 372
f 374 370 373
f 375 371 374
f 251 250 375
f 376 268 274
f 377 372 376
f 378 373 377
f 379 374 378
f 380 375 379
f 252 251 380
f 381 274 281
f 382 376 381
f 383 377 382
f 384 378 383
f 385 379 384
f 386 380 385
f 253 252 386
f 247 254 366
f 366 256 367
f 248 366 368
f 367 259 369
f 368 367 370
f 249 368 371
f 369 263 372
f 370 369 373
f 371 370 374
f 250 371 375
f 372 268 376
f 373 372 377
f 374 373 378
f 375 374 379
f 251 375 380
f 376 274 381
f 377 376 382
f 378 377 383
f 379 378 384
f 380 379 385
f 252 380 386
f 389 387 388
f 391 388 390
f 392 389 391
f 394 390 393
f 395 391 394
f 396 392 395
f 398 393 397
f 399 394 398
f 400 395 399
f 401 396 400
f 403 397 402
f 404 398 403
f 405 399 404
f 406 400 405
f 407 401 406
f 409 402 408
f 410 403 409
f 411 404 410
f 412 405 411
f 413 406 412
f 414 407 413
f 302 408 281
f 301 409 302
f 300 410 301
f 299 411 300
f 298 412 299
f 297 413 298
f 169 414 297
f 389 388 391
f 391 390 394
f 392 391 395
f 394 393 398
f 395 394 399
f 396 395 400
f 398 397 403
f 399 398 404
f 400 399 405
f 401 400 406
f 403 402 409
f 404 403 410
f 405 404 411
f 406 405 412
f 407 406 413
f 409 408 302
f 410 409 301
f 411 410 300
f 412 411 299
f 413 412 298
f 414 413 297
f 388 387 415
f 417 415 416
f 390 388 417
f 419 416 418
f 420 417 419
f 393 390 420
f 422 418 421
f 423 419 422
f 424 420 423
f 397 393 424
f 426 421 425
f 427 422 426
f 428 423 427
f 429 424 428
f 402 397 429
f 431 425 430
f 432 426 431
f 433 427 432
f 434 428 433
f 435 429 434
f 408 402 435
f 386 430 253
f 385 431 386
f 384 432 385
f 383 433 384
f 382 434 383
f 381 435 382
f 281 408 381
f 388 415 417
f 417 416 419
f 390 417 420
f 419 418 422
f 420 419 423
f 393 420 424
f 422 421 426
f 423 422 427
f 424 423 428
f 397 424 429
f 426 425 431
f 427 426 432
f 428 427 433
f 429 428 434
f 402 429 435
f 431 430 386
f 432 431 385
f 433 432 384
f 434 433 383
f 435 434 382
f 408 435 381
f 415 387 436
f 438 436 437
f 416 415 438
f 440 437 439
f 441 438 440
f 418 416 441
f 443 439 442
f 444 440 443
f 445 441 444
f 421 418 445
f 447 442 446
f 448 443 447
f 449 444 448
f 450 445 449
f 425 421 450
f 452 446 451
f 453 447 452
f 454 448 453
f 455 449 454
f 456 450 455
f 430 425 456
f 365 451 225
f 364 452 365
f 363 453 364
f 362 454 363
f 361 455 362
f 360 456 361
f 253 430 360
f 415 436 438
f 438 437 440
f 416 438 441
f 440 439 443
f 441 440 444
f 418 441 445
f 443 442 447
f 444 443 448
f 445 444 449
f 421 445 450
f 447 446 452
f 448 447 453
f 449 448 454
f 450 449 455
f 425 450 456
f 452 451 365
f 453 452 364
f 454 453 363
f 455 454 362
f 456 455 361
f 430 456 360
f 436 387 457
f 459 457 458
f 437 436 459
f 461 458 460
f 462 459 461
f 439 437 462
f 464 460 463
f 465 461 464
f 466 462 465
f 442 439 466
f 468 463 467
f 469 464 468
f 470 465 469
f 471 466 470
f 446 442 471
f 473 467 472
f 474 468 473
f 475 469 474
f 476 470 475
f 477 471 476
f 451 446 477
f 344 472 197
f 343 473 344
f 342 474 343
f 341 475 342
f 340 476 341
f 339 477 340
f 225 451 339
f 436 457 459
f 459 458 461
f 437 459 462
f 461 460 464
f 462 461 465
f 439 462 466
f 464 463 468
f 465 464 469
f 466 465 470
f 442 466 471
f 468 467 473
f 469 468 474
f 470 469 475
f 471 470 476
f 446 471 477
f 473 472 344
f 474 473 343
f 475 474 342
f 476 475 341
f 477 476 340
f 451 477 339
f 457 387 389
f 478 389 392
f 458 457 478
f 479 392 396
f 480 478 479
f 460 458 480
f 481 396 401
f 482 479 481
f 483 480 482
f 463 460 483
f 484 401 407
f 485 481 484
f 486 482 485
f 487 483 486
f 467 463 487
f 488 407 414
f 489 484 488
f 490 485 489
f 491 486 490
f 492 487 491
f 472 467 492
f 323 414 169
f 322 488 323
f 321 489 322
f 320 490 321
f 319 491 320
f 318 492 319
f 197 472 318
f 457 389 478
f 478 392 479
f 458 478 480
f 479 396 481
f 480 479 482
f 460 480 483
f 481 401 484
f 482 481 485
f 483 482 486
f 463 483 487
f 484 407 488
f 485 484 489
f 486 485 490
f 487 486 491
f 467 487 492
f 488 414 323
f 489 488 322
f 490 489 321
f 491 490 320
f 492 491 319
f 472 492 318
