# File exported by Houdini 20.5.445 (www.sidefx.com)
# 492 points
# 2940 vertices
# 980 primitives
# Bounds: [-136.238785, -128.405823, -1111.95947] to [307.012726, 244.782928, -642.841492]
g 
v 173.839874 120.627159 -1107.38525
v 169.210358 142.861328 -1109.08472
v 199.293427 130.629868 -1110.42969
v 164.616913 161.354263 -1104.80103
v 198.38266 152.823135 -1111.95947
v 224.40036 137.238602 -1110.7041
v 159.80899 177.975601 -1094.34814
v 195.744354 170.470764 -1106.48291
v 224.84024 159.903595 -1110.00171
v 247.209259 142.149155 -1106.96997
v 153.24704 193.486588 -1077.94312
v 191.284332 185.841782 -1094.20215
v 222.300995 177.284515 -1101.75317
v 247.643768 165.67392 -1102.58081
v 266.565155 145.91008 -1098.58911
v 143.130035 207.985596 -1056.85107
v 183.301727 199.871078 -1075.17163
v 216.571136 191.880539 -1086.29126
v 244.252716 183.091827 -1090.52197
v 266.344818 170.037277 -1089.73926
v 281.93631 148.039368 -1085.54126
v 128.501312 221.199005 -1033.18384
v 170.213776 212.984238 -1050.76099
v 205.821625 204.819611 -1063.6792
v 236.262848 197.073044 -1070.9043
v 261.349762 187.309525 -1073.06201
v 280.376373 171.956741 -1071.72766
v 292.730255 147.830429 -1068.01599
v 110.011383 232.632568 -1007.84003
v 150.422638 224.968002 -1022.56848
v 187.670135 216.659973 -1034.82788
v 220.833466 208.835938 -1043.44971
v 249.384186 200.333221 -1048.0686
v 272.17276 188.292526 -1049.36902
v 288.418427 170.209854 -1048.59619
v 298.14975 144.88118 -1046.25928
v 191.388458 100.745018 -1102.02881
v 216.794586 108.535393 -1104.07031
v 204.048004 74.8472824 -1091.27051
v 240.449554 112.650703 -1103.41138
v 228.201385 80.2522354 -1093.3479
v 212.632599 43.6192551 -1076.50586
v 260.984772 115.244827 -1098.98755
v 249.958282 82.1724777 -1092.37744
v 235.456146 47.1906738 -1079.06079
v 219.052643 9.83560181 -1058.10449
v 277.919891 116.96505 -1089.9978
v 268.525543 83.0197449 -1087.1582
v 255.709808 47.8565598 -1077.29907
v 240.955109 12.6090736 -1060.20508
v 225.472137 -22.482605 -1035.3999
v 291.079681 117.368011 -1075.7207
v 283.764313 83.3459778 -1076.45605
v 272.975006 47.8253632 -1069.80396
v 260.328827 12.9549751 -1055.78406
v 246.898834 -19.7262268 -1034.78589
v 233.622772 -50.1060104 -1007.78107
v 299.698395 115.899559 -1055.25671
v 295.388275 82.626709 -1058.4281
v 287.18045 47.3708496 -1054.35669
v 276.964447 12.6965809 -1042.63904
v 265.998444 -19.2706795 -1024.22461
v 254.898956 -47.3488846 -1001.02875
v 244.022186 -71.2975998 -975.064148
v 161.68515 95.125473 -1100.40039
v 178.376495 69.6906815 -1089.86987
v 150.422516 64.6924133 -1089.55737
v 189.377167 39.2538376 -1073.52295
v 166.167877 35.496563 -1072.89209
v 138.941559 31.0274105 -1073.80737
v 197.060822 5.77445793 -1053.30298
v 176.250458 2.9946785 -1050.63269
v 153.81424 0.325057983 -1050.82349
v 126.1091 -2.99765778 -1052.87915
v 204.214996 -27.6531982 -1029.64551
v 184.320282 -30.5646362 -1024.88721
v 163.905853 -32.1479797 -1022.88135
v 140.543121 -33.1604538 -1024.17725
v 111.717316 -34.4880981 -1027.38379
v 213.311554 -57.683876 -1001.9743
v 193.682953 -62.3346329 -995.825623
v 173.641388 -64.1986237 -991.576233
v 151.723724 -63.9412613 -990.860046
v 126.540558 -62.6629333 -993.809448
v 96.8784637 -61.3253708 -998.455139
v 225.827484 -81.3568115 -969.144531
v 206.850189 -88.9037018 -962.159912
v 186.640839 -92.8181076 -956.204041
v 164.483124 -92.9603195 -953.465637
v 139.940216 -90.3865204 -955.178406
v 112.829498 -86.4835892 -960.710205
v 83.3231964 -82.2993851 -967.475891
v 144.537445 121.432594 -1103.70728
v 131.193085 91.8767929 -1097.35889
v 112.753265 117.929558 -1094.49707
v 119.340363 58.5113602 -1087.06763
v 98.5760651 83.7219849 -1088.44922
v 78.984848 110.413376 -1079.49341
v 107.076996 23.5601711 -1071.56812
v 86.1269989 47.8587341 -1077.85083
v 64.0902863 72.6342926 -1073.00879
v 43.9712372 99.9029083 -1059.44495
v 92.912796 -10.342411 -1050.38525
v 72.7343597 12.3613434 -1061.52686
v 50.6429596 35.3826752 -1061.27271
v 28.0283966 59.9222031 -1051.89172
v 8.17701721 86.9875336 -1036.84814
v 77.0058136 -41.0578384 -1023.47473
v 56.907547 -21.1262932 -1038.67261
v 35.3407135 -0.397941589 -1043.06274
v 12.5339813 21.7016315 -1038.28418
v -9.53956604 45.6862946 -1027.41821
v -27.5381317 72.5329132 -1014.0741
v 61.0153656 -66.9470367 -991.118103
v 39.1301422 -51.1460724 -1008.3269
v 16.8251495 -33.8021469 -1016.73627
v -5.98570251 -14.5172119 -1016.62262
v -28.3074799 6.87822723 -1010.4649
v -47.7090607 31.0961094 -1001.25616
v -61.3504791 58.6866608 -991.804688
v 134.974579 144.743256 -1099.72388
v 100.010513 142.642929 -1084.10938
v 127.370026 164.454636 -1089.5022
v 64.1750031 136.283264 -1063.95911
v 90.3069305 163.731201 -1068.84058
v 120.252045 182.454956 -1074.17444
v 27.4209442 125.873703 -1041.37939
v 52.0812225 158.3591 -1046.052
v 80.2418976 183.003571 -1050.6145
v 110.751495 199.327377 -1054.62573
v -10.4779816 112.021599 -1018.65369
v 12.0473175 148.146805 -1023.00751
v 38.2581329 178.713333 -1026.69495
v 66.8992157 201.337234 -1029.73657
v 97.2837067 215.176666 -1032.35474
v -48.4226532 96.440506 -996.090271
v -29.4888763 134.222626 -1000.11877
v -5.98899841 169.605118 -1003.30511
v 20.7621613 198.924667 -1004.9939
v 49.8631134 219.272171 -1006.24261
v 80.1281891 229.869278 -1007.60187
v 71.3820038 241.258133 -981.880737
v 37.4506073 235.41449 -981.803284
v 32.9822235 244.782928 -956.291748
v 5.66514587 218.422607 -982.4328
v -2.2028656 233.431641 -958.972961
v -2.8611908 240.68045 -932.387634
v -23.0253448 190.518616 -983.092529
v -33.4224091 209.329132 -962.474182
v -37.287735 222.813309 -938.878296
v -33.9759369 227.63298 -911.130737
v -48.2003021 154.509308 -981.887207
v -60.6602325 175.046814 -964.252625
v -66.8576508 192.585999 -944.373901
v -66.4778595 203.933411 -920.687622
v -58.7680511 206.380814 -892.442139
v -69.4298553 113.612488 -978.255005
v -84.0856781 133.610977 -962.373108
v -92.3506012 153.261566 -945.778381
v -93.8895111 169.141037 -926.209595
v -88.5545502 178.416183 -902.674988
v -76.113205 179.588898 -874.466797
v -84.9691925 70.9272079 -973.606018
v -102.75502 87.5065002 -957.148865
v -113.727951 107.009544 -941.664368
v -117.170349 125.599686 -925.106628
v -113.090378 140.04567 -905.561523
v -102.24147 148.384216 -882.171692
v -85.7561798 150.224091 -854.968567
v -84.7014008 28.9968395 -974.327271
v -68.6251678 -1.02752876 -981.168457
v -102.196793 3.17485619 -954.436829
v -47.3263092 -24.9412003 -986.961914
v -83.2896271 -26.6564903 -958.593567
v -112.460876 -16.9848633 -932.106873
v -23.3174591 -44.5473175 -988.798035
v -59.4932709 -48.9537354 -960.837646
v -90.5203705 -45.2506485 -933.596924
v -113.897415 -30.9695511 -907.884521
v 2.01899719 -61.184761 -984.147034
v -32.4747162 -66.2779388 -958.239929
v -63.4648895 -65.4357147 -932.123352
v -88.690506 -56.9050751 -906.659241
v -105.526047 -40.1274796 -882.255554
v 28.4774628 -75.632103 -971.44397
v -2.76780701 -80.4118347 -948.857544
v -32.0088348 -80.6466599 -925.096436
v -57.5124969 -75.2647552 -901.334778
v -76.776535 -63.5960464 -878.211487
v -88.0018158 -46.775383 -855.439819
v 56.7043304 -89.264801 -950.736267
v 30.1937714 -93.1937714 -931.5979
v 4.3235321 -93.542366 -910.773193
v -19.841629 -89.6006165 -889.504578
v -40.3287811 -80.7912827 -868.495239
v -55.0240631 -67.8131104 -847.910278
v -63.1170807 -52.581749 -827.320068
v 92.2632904 -100.439026 -931.763245
v 125.40567 -106.867935 -922.46228
v 106.211761 -113.760178 -896.895569
v 155.0466 -111.704315 -916.965393
v 142.571014 -120.351883 -887.7099
v 124.228729 -122.21965 -864.352661
v 181.480499 -113.551331 -916.705505
v 174.435333 -123.867844 -883.691406
v 162.86264 -127.38916 -856.647278
v 144.198151 -125.913162 -834.681458
v 205.273346 -110.96727 -921.120911
v 202.866364 -122.924362 -884.945801
v 196.571747 -127.958359 -854.196228
v 184.10733 -128.405823 -828.709351
v 163.68576 -124.87764 -807.717285
v 226.637299 -103.463837 -928.20697
v 227.877167 -116.6828 -889.726074
v 225.892426 -123.072998 -855.487366
v 218.054413 -124.820282 -826.40332
v 202.876495 -123.387299 -802.496887
v 179.99295 -118.972275 -782.653564
v 246.12204 -92.0436096 -935.731689
v 249.610199 -105.531906 -895.969849
v 250.931183 -112.727798 -858.561096
v 246.822906 -115.281418 -825.761292
v 235.441681 -114.892273 -798.630737
v 216.747162 -112.698502 -776.857788
v 192.085541 -108.844589 -759.119385
v 261.71048 -72.8902817 -954.570435
v 271.806366 -47.7625122 -981.265991
v 277.679291 -69.2583084 -931.130371
v 281.229279 -18.3676758 -1004.45392
v 285.922577 -42.7003021 -958.899109
v 290.979095 -60.6424561 -906.413147
v 289.846466 14.7132187 -1022.05695
v 293.067902 -12.2543373 -982.14032
v 297.160248 -33.0062027 -935.014832
v 300.814178 -47.904213 -881.921692
v 297.286285 50.4567337 -1032.1925
v 298.765533 21.7036972 -998.65741
v 301.462494 -1.74146843 -957.617126
v 304.743683 -19.4711533 -910.019958
v 306.187286 -32.1911621 -858.111145
v 302.060089 87.1434555 -1033.87769
v 302.488495 58.6604538 -1006.34668
v 303.356415 33.1801834 -971.611206
v 305.23526 12.5369339 -929.971924
v 307.012726 -3.10770416 -883.165527
v 305.738373 -14.7771568 -834.18689
v 301.474945 122.331017 -1027.56128
v 301.83139 96.9190979 -1004.22046
v 301.216339 71.4043655 -974.930725
v 301.091156 48.5801315 -939.111572
v 301.602814 29.8750153 -897.792542
v 301.355927 15.1490374 -853.494568
v 297.746979 3.37441444 -809.468445
v 292.488312 156.847046 -1022.49023
v 277.338837 181.492371 -1022.75348
v 278.655487 164.901886 -995.641235
v 255.497162 198.059418 -1021.61243
v 257.289215 187.992462 -995.296448
v 257.217499 168.923843 -967.139099
v 227.657928 209.25209 -1018.23828
v 230.072113 203.347336 -992.887878
v 230.180389 190.276993 -966.899292
v 229.599335 169.669098 -937.925598
v 194.737701 218.149246 -1011.95947
v 197.727814 214.634308 -988.019043
v 198.161591 205.169067 -963.553955
v 197.687897 189.485611 -937.70636
v 197.927704 168.213486 -908.385132
v 157.002045 227.122147 -1002.45227
v 160.078339 224.742035 -980.257507
v 160.872772 217.283447 -957.002319
v 160.790558 204.310242 -933.184692
v 161.020172 186.544373 -908.000977
v 164.416473 165.474533 -878.844482
v 114.582367 236.37619 -989.646118
v 116.91214 235.146088 -968.792542
v 117.711273 228.718399 -946.322754
v 118.289215 217.061905 -923.392578
v 120.054169 200.72818 -900.389221
v 124.157135 181.588425 -876.26709
v 131.609406 161.685898 -849.146301
v 73.3950653 243.652283 -959.578674
v 35.0148163 244.404617 -930.731079
v 74.3432465 238.861084 -935.90387
v 1.22956848 236.808197 -904.21283
v 37.245285 235.292145 -905.037415
v 75.5303192 227.795151 -911.999939
v -26.643692 220.177979 -880.812012
v 6.49388123 223.406372 -876.598267
v 41.1321259 219.506165 -879.853699
v 78.4807281 211.379822 -888.444214
v -47.7810822 195.409729 -859.965149
v -17.4929657 202.85524 -850.67865
v 14.3166656 203.195526 -849.273865
v 48.0906525 198.576019 -854.690979
v 84.5046539 190.952942 -864.444214
v -61.7011566 164.825027 -839.0625
v -34.7046356 174.14389 -825.777466
v -5.34107971 178.312378 -819.000122
v 26.0809784 177.960236 -820.133545
v 59.4143524 174.396027 -827.116089
v 94.7121429 168.794983 -837.491638
v -109.483353 42.205307 -953.944214
v -124.764435 19.165453 -932.514771
v -125.225235 60.2246399 -936.05072
v -130.001328 2.0284214 -909.063782
v -135.778839 39.0750961 -913.30304
v -131.809677 80.2457047 -919.16925
v -124.637543 -10.7308655 -883.719849
v -134.655121 22.4420662 -888.146118
v -136.238785 58.9284821 -894.414185
v -129.449402 98.3684311 -900.917786
v -108.623123 -21.1955643 -856.203857
v -121.900421 8.22433472 -859.958069
v -127.986313 40.7888947 -866.06134
v -127.007187 75.7888184 -872.983154
v -118.57103 112.149879 -878.761536
v -82.8708038 -30.8951721 -825.807007
v -97.6121674 -5.31489563 -827.448425
v -106.925461 23.5655041 -832.186951
v -110.750305 54.8679123 -838.880066
v -108.695663 87.4205399 -845.771729
v -100.3181 119.724014 -851.202942
v 67.3716278 -104.408249 -912.818848
v 83.1344757 -114.046265 -877.722412
v 43.7101593 -104.643417 -893.50647
v 102.136627 -118.978928 -845.525024
v 61.4536591 -110.47496 -859.122437
v 21.0713959 -101.01889 -873.78009
v 122.110382 -119.917145 -815.497986
v 81.2540741 -112.157623 -827.079224
v 40.680954 -103.307007 -840.002319
v -0.0288543701 -93.2540359 -853.87915
v 141.007599 -117.091034 -786.938354
v 101.346954 -110.825745 -795.717285
v 61.3477631 -102.311844 -806.921326
v 21.3535614 -92.694931 -819.718201
v -17.8288727 -81.5489731 -833.46283
v 157.331207 -109.698227 -759.195801
v 120.328949 -106.426376 -763.654541
v 82.0214081 -99.257843 -771.790771
v 43.2906036 -90.0565643 -783.099243
v 5.4757843 -79.5002213 -796.627869
v -30.3386383 -67.143898 -811.528442
v 266.147736 -90.0265732 -909.101501
v 282.28952 -82.4494019 -881.613647
v 269.642059 -98.8849335 -866.323303
v 294.02243 -70.4663315 -855.169739
v 283.428375 -87.6342087 -837.872314
v 268.443634 -102.091522 -828.318298
v 300.848053 -55.1316376 -830.767639
v 291.319794 -73.1529236 -811.732483
v 277.855316 -88.2381058 -800.440186
v 259.844513 -101.989685 -796.240601
v 301.948029 -37.333252 -807.620361
v 293.14389 -56.1265106 -787.634216
v 280.144684 -72.1807022 -774.864929
v 263.436127 -86.6756973 -769.135803
v 242.688995 -100.426529 -770.076416
v 295.818146 -17.6401443 -783.939575
v 287.816742 -36.7102585 -763.530151
v 274.986969 -53.9232712 -749.682495
v 258.591339 -69.6825409 -742.761108
v 239.235626 -84.4429245 -742.678101
v 217.169525 -97.9228058 -748.511658
v 293.977386 133.710754 -999.05188
v 278.27951 140.811829 -968.228088
v 292.763885 108.567505 -971.686829
v 255.42337 144.461212 -936.370422
v 275.59964 116.165405 -937.307556
v 290.846954 84.3066177 -939.160828
v 227.042572 145.635941 -904.033997
v 251.722992 120.752945 -901.845947
v 272.556183 93.1942825 -901.419373
v 289.476288 62.7927017 -900.899475
v 194.888885 145.371216 -871.371643
v 222.564545 123.373306 -865.462585
v 247.709137 99.1820297 -861.736694
v 270.021515 72.8066177 -859.628967
v 288.4664 44.520134 -857.442688
v 160.350861 144.051254 -838.180969
v 189.041595 124.680389 -827.883118
v 217.024811 103.191338 -819.737488
v 243.470734 79.6946182 -814.612976
v 267.011505 54.6087723 -812.06366
v 285.713104 28.787302 -810.699463
v 87.8919525 19.6367111 -643.716248
v 90.5960846 46.8108215 -652.462219
v 51.4372711 34.6977539 -656.656921
v 93.9211273 72.0186462 -672.141602
v 52.7394257 63.948143 -671.309143
v 17.9521027 50.2951965 -680.880554
v 98.2158966 94.255043 -700.79718
v 56.2054901 89.8356094 -696.046997
v 19.9443207 80.4599991 -699.564209
v -11.6125031 67.3221817 -714.090637
v 103.430634 113.647209 -735.579407
v 61.8821564 112.693481 -727.100891
v 25.097641 107.120789 -725.874939
v -7.58500671 98.3688889 -733.40332
v -37.0349579 86.6053925 -751.343323
v 110.049164 130.982086 -773.363647
v 69.6458893 133.188126 -761.815613
v 33.1967926 131.429565 -756.311646
v -0.0584564209 126.588593 -757.970276
v -30.3224945 119.02877 -768.811646
v -58.2694855 108.008774 -788.110718
v 119.127167 146.655762 -811.841614
v 80.2025299 151.532028 -799.01178
v 44.3315887 153.559555 -790.123596
v 11.0529327 152.82193 -786.74939
v -19.8463287 148.994736 -791.283691
v -48.3909149 141.609238 -804.16571
v -74.7279816 129.795761 -822.862915
v 126.984406 21.5830441 -643.227783
v 165.30307 22.3470459 -652.521362
v 132.183624 49.3306046 -656.828247
v 201.065704 21.0632725 -671.028442
v 171.15744 49.0220871 -671.729065
v 136.672699 73.1594009 -681.750977
v 232.961578 17.6349831 -697.741028
v 206.387848 45.7835541 -695.967957
v 175.386444 70.6900864 -702.078308
v 140.720917 93.2059784 -715.278259
v 260.347076 12.9601364 -730.960999
v 237.634491 40.6849289 -728.135498
v 209.500336 66.2465134 -730.855042
v 178.271027 89.5514679 -739.603271
v 144.941864 110.95961 -754.101501
v 282.476593 8.13218117 -768.681702
v 264.530975 34.8592911 -766.706726
v 240.314423 60.651741 -767.59375
v 212.283112 84.8189926 -772.47644
v 182.112885 107.104874 -782.03302
v 150.883453 127.541656 -795.674194
v 109.036713 -6.21188354 -642.841492
v 128.522858 -30.2420731 -651.909058
v 151.229889 -5.38118744 -645.968018
v 145.120026 -51.3380051 -668.286682
v 170.981964 -29.3972168 -658.460693
v 189.530609 -5.2728653 -658.974792
v 158.614532 -69.295578 -689.02948
v 185.908722 -50.2013779 -677.026794
v 207.286285 -29.2255249 -674.066101
v 223.221649 -6.73801804 -680.355591
v 169.953827 -84.6271744 -711.782349
v 197.096344 -68.2150955 -698.957642
v 219.709503 -49.9781342 -693.99231
v 238.263519 -30.5247879 -697.043701
v 252.358551 -9.770401 -708.891724
v 180.983673 -97.7417145 -735.275513
v 206.999603 -83.9154129 -722.848816
v 229.587067 -68.1058502 -716.904114
v 249.025909 -51.1738281 -718.003723
v 265.120636 -33.1669922 -726.772888
v 277.007294 -13.615757 -743.554382
v 62.6605988 1.79485703 -650.834717
v 38.6808624 -13.6688576 -669.202148
v 82.7328644 -25.7315788 -654.716125
v 15.9565277 -25.4692307 -696.739258
v 57.8045807 -40.7715759 -676.928284
v 100.695267 -49.1229553 -668.303894
v -5.90412903 -34.1021118 -729.337708
v 34.1821747 -51.1605225 -706.719604
v 74.7035065 -62.412796 -693.204041
v 116.274384 -68.4050217 -687.795044
v -27.0782013 -40.8486481 -763.067383
v 11.4837494 -57.9770737 -740.628601
v 50.3413239 -70.8417053 -724.250549
v 89.9959564 -79.6864243 -714.2854
v 130.094879 -84.3598938 -710.319458
v -46.7091217 -46.58815 -795.960754
v -10.3768463 -62.8379517 -775.921326
v 27.1536713 -75.7801056 -759.216492
v 65.7068024 -86.2143555 -746.330261
v 104.771759 -93.9327698 -738.037842
v 143.313568 -97.9507294 -734.249817
v 24.2853851 17.7575283 -670.44281
v -9.03535461 34.9797745 -701.541504
v 0.36555481 4.29525375 -695.580261
v -38.1176605 53.9083023 -739.199829
v -32.5161591 23.2124901 -730.768494
v -21.8890839 -5.95721436 -727.075989
v -63.518692 74.9630051 -778.19574
v -61.6954803 43.4278946 -769.382202
v -54.8422699 13.6931152 -762.972229
v -43.5739899 -14.4116974 -760.466614
v -84.692276 97.4768372 -815.755188
v -87.5832367 65.3041687 -808.069824
v -84.6003571 34.1807327 -800.704651
v -76.9676361 4.9236927 -795.368164
v -64.4857635 -22.2040253 -793.494141
g 
f 3 1 2
f 5 2 4
f 6 3 5
f 8 4 7
f 9 5 8
f 10 6 9
f 12 7 11
f 13 8 12
f 14 9 13
f 15 10 14
f 17 11 16
f 18 12 17
f 19 13 18
f 20 14 19
f 21 15 20
f 23 16 22
f 24 17 23
f 25 18 24
f 26 19 25
f 27 20 26
f 28 21 27
f 30 22 29
f 31 23 30
f 32 24 31
f 33 25 32
f 34 26 33
f 35 27 34
f 36 28 35
f 3 2 5
f 5 4 8
f 6 5 9
f 8 7 12
f 9 8 13
f 10 9 14
f 12 11 17
f 13 12 18
f 14 13 19
f 15 14 20
f 17 16 23
f 18 17 24
f 19 18 25
f 20 19 26
f 21 20 27
f 23 22 30
f 24 23 31
f 25 24 32
f 26 25 33
f 27 26 34
f 28 27 35
f 37 1 3
f 38 3 6
f 39 37 38
f 40 6 10
f 41 38 40
f 42 39 41
f 43 10 15
f 44 40 43
f 45 41 44
f 46 42 45
f 47 15 21
f 48 43 47
f 49 44 48
f 50 45 49
f 51 46 50
f 52 21 28
f 53 47 52
f 54 48 53
f 55 49 54
f 56 50 55
f 57 51 56
f 58 28 36
f 59 52 58
f 60 53 59
f 61 54 60
f 62 55 61
f 63 56 62
f 64 57 63
f 37 3 38
f 38 6 40
f 39 38 41
f 40 10 43
f 41 40 44
f 42 41 45
f 43 15 47
f 44 43 48
f 45 44 49
f 46 45 50
f 47 21 52
f 48 47 53
f 49 48 54
f 50 49 55
f 51 50 56
f 52 28 58
f 53 52 59
f 54 53 60
f 55 54 61
f 56 55 62
f 57 56 63
f 65 1 37
f 66 37 39
f 67 65 66
f 68 39 42
f 69 66 68
f 70 67 69
f 71 42 46
f 72 68 71
f 73 69 72
f 74 70 73
f 75 46 51
f 76 71 75
f 77 72 76
f 78 73 77
f 79 74 78
f 80 51 57
f 81 75 80
f 82 76 81
f 83 77 82
f 84 78 83
f 85 79 84
f 86 57 64
f 87 80 86
f 88 81 87
f 89 82 88
f 90 83 89
f 91 84 90
f 92 85 91
f 65 37 66
f 66 39 68
f 67 66 69
f 68 42 71
f 69 68 72
f 70 69 73
f 71 46 75
f 72 71 76
f 73 72 77
f 74 73 78
f 75 51 80
f 76 75 81
f 77 76 82
f 78 77 83
f 79 78 84
f 80 57 86
f 81 80 87
f 82 81 88
f 83 82 89
f 84 83 90
f 85 84 91
f 93 1 65
f 94 65 67
f 95 93 94
f 96 67 70
f 97 94 96
f 98 95 97
f 99 70 74
f 100 96 99
f 101 97 100
f 102 98 101
f 103 74 79
f 104 99 103
f 105 100 104
f 106 101 105
f 107 102 106
f 108 79 85
f 109 103 108
f 110 104 109
f 111 105 110
f 112 106 111
f 113 107 112
f 114 85 92
f 115 108 114
f 116 109 115
f 117 110 116
f 118 111 117
f 119 112 118
f 120 113 119
f 93 65 94
f 94 67 96
f 95 94 97
f 96 70 99
f 97 96 100
f 98 97 101
f 99 74 103
f 100 99 104
f 101 100 105
f 102 101 106
f 103 79 108
f 104 103 109
f 105 104 110
f 106 105 111
f 107 106 112
f 108 85 114
f 109 108 115
f 110 109 116
f 111 110 117
f 112 111 118
f 113 112 119
f 2 1 93
f 121 93 95
f 4 2 121
f 122 95 98
f 123 121 122
f 7 4 123
f 124 98 102
f 125 122 124
f 126 123 125
f 11 7 126
f 127 102 107
f 128 124 127
f 129 125 128
f 130 126 129
f 16 11 130
f 131 107 113
f 132 127 131
f 133 128 132
f 134 129 133
f 135 130 134
f 22 16 135
f 136 113 120
f 137 131 136
f 138 132 137
f 139 133 138
f 140 134 139
f 141 135 140
f 29 22 141
f 2 93 121
f 121 95 122
f 4 121 123
f 122 98 124
f 123 122 125
f 7 123 126
f 124 102 127
f 125 124 128
f 126 125 129
f 11 126 130
f 127 107 131
f 128 127 132
f 129 128 133
f 130 129 134
f 16 130 135
f 131 113 136
f 132 131 137
f 133 132 138
f 134 133 139
f 135 134 140
f 22 135 141
f 142 29 141
f 143 141 140
f 144 142 143
f 145 140 139
f 146 143 145
f 147 144 146
f 148 139 138
f 149 145 148
f 150 146 149
f 151 147 150
f 152 138 137
f 153 148 152
f 154 149 153
f 155 150 154
f 156 151 155
f 157 137 136
f 158 152 157
f 159 153 158
f 160 154 159
f 161 155 160
f 162 156 161
f 163 136 120
f 164 157 163
f 165 158 164
f 166 159 165
f 167 160 166
f 168 161 167
f 169 162 168
f 142 141 143
f 143 140 145
f 144 143 146
f 145 139 148
f 146 145 149
f 147 146 150
f 148 138 152
f 149 148 153
f 150 149 154
f 151 150 155
f 152 137 157
f 153 152 158
f 154 153 159
f 155 154 160
f 156 155 161
f 157 136 163
f 158 157 164
f 159 158 165
f 160 159 166
f 161 160 167
f 162 161 168
f 170 120 119
f 171 119 118
f 172 170 171
f 173 118 117
f 174 171 173
f 175 172 174
f 176 117 116
f 177 173 176
f 178 174 177
f 179 175 178
f 180 116 115
f 181 176 180
f 182 177 181
f 183 178 182
f 184 179 183
f 185 115 114
f 186 180 185
f 187 181 186
f 188 182 187
f 189 183 188
f 190 184 189
f 191 114 92
f 192 185 191
f 193 186 192
f 194 187 193
f 195 188 194
f 196 189 195
f 197 190 196
f 170 119 171
f 171 118 173
f 172 171 174
f 173 117 176
f 174 173 177
f 175 174 178
f 176 116 180
f 177 176 181
f 178 177 182
f 179 178 183
f 180 115 185
f 181 180 186
f 182 181 187
f 183 182 188
f 184 183 189
f 185 114 191
f 186 185 192
f 187 186 193
f 188 187 194
f 189 188 195
f 190 189 196
f 198 92 91
f 199 91 90
f 200 198 199
f 201 90 89
f 202 199 201
f 203 200 202
f 204 89 88
f 205 201 204
f 206 202 205
f 207 203 206
f 208 88 87
f 209 204 208
f 210 205 209
f 211 206 210
f 212 207 211
f 213 87 86
f 214 208 213
f 215 209 214
f 216 210 215
f 217 211 216
f 218 212 217
f 219 86 64
f 220 213 219
f 221 214 220
f 222 215 221
f 223 216 222
f 224 217 223
f 225 218 224
f 198 91 199
f 199 90 201
f 200 199 202
f 201 89 204
f 202 201 205
f 203 202 206
f 204 88 208
f 205 204 209
f 206 205 210
f 207 206 211
f 208 87 213
f 209 208 214
f 210 209 215
f 211 210 216
f 212 211 217
f 213 86 219
f 214 213 220
f 215 214 221
f 216 215 222
f 217 216 223
f 218 217 224
f 226 64 63
f 227 63 62
f 228 226 227
f 229 62 61
f 230 227 229
f 231 228 230
f 232 61 60
f 233 229 232
f 234 230 233
f 235 231 234
f 236 60 59
f 237 232 236
f 238 233 237
f 239 234 238
f 240 235 239
f 241 59 58
f 242 236 241
f 243 237 242
f 244 238 243
f 245 239 244
f 246 240 245
f 247 58 36
f 248 241 247
f 249 242 248
f 250 243 249
f 251 244 250
f 252 245 251
f 253 246 252
f 226 63 227
f 227 62 229
f 228 227 230
f 229 61 232
f 230 229 233
f 231 230 234
f 232 60 236
f 233 232 237
f 234 233 238
f 235 234 239
f 236 59 241
f 237 236 242
f 238 237 243
f 239 238 244
f 240 239 245
f 241 58 247
f 242 241 248
f 243 242 249
f 244 243 250
f 245 244 251
f 246 245 252
f 254 36 35
f 255 35 34
f 256 254 255
f 257 34 33
f 258 255 257
f 259 256 258
f 260 33 32
f 261 257 260
f 262 258 261
f 263 259 262
f 264 32 31
f 265 260 264
f 266 261 265
f 267 262 266
f 268 263 267
f 269 31 30
f 270 264 269
f 271 265 270
f 272 266 271
f 273 267 272
f 274 268 273
f 275 30 29
f 276 269 275
f 277 270 276
f 278 271 277
f 279 272 278
f 280 273 279
f 281 274 280
f 254 35 255
f 255 34 257
f 256 255 258
f 257 33 260
f 258 257 261
f 259 258 262
f 260 32 264
f 261 260 265
f 262 261 266
f 263 262 267
f 264 31 269
f 265 264 270
f 266 265 271
f 267 266 272
f 268 267 273
f 269 30 275
f 270 269 276
f 271 270 277
f 272 271 278
f 273 272 279
f 274 273 280
f 275 29 142
f 282 142 144
f 276 275 282
f 283 144 147
f 284 282 283
f 277 276 284
f 285 147 151
f 286 283 285
f 287 284 286
f 278 277 287
f 288 151 156
f 289 285 288
f 290 286 289
f 291 287 290
f 279 278 291
f 292 156 162
f 293 288 292
f 294 289 293
f 295 290 294
f 296 291 295
f 280 279 296
f 297 162 169
f 298 292 297
f 299 293 298
f 300 294 299
f 301 295 300
f 302 296 301
f 281 280 302
f 275 142 282
f 282 144 283
f 276 282 284
f 283 147 285
f 284 283 286
f 277 284 287
f 285 151 288
f 286 285 289
f 287 286 290
f 278 287 291
f 288 156 292
f 289 288 293
f 290 289 294
f 291 290 295
f 279 291 296
f 292 162 297
f 293 292 298
f 294 293 299
f 295 294 300
f 296 295 301
f 280 296 302
f 163 120 170
f 303 170 172
f 164 163 303
f 304 172 175
f 305 303 304
f 165 164 305
f 306 175 179
f 307 304 306
f 308 305 307
f 166 165 308
f 309 179 184
f 310 306 309
f 311 307 310
f 312 308 311
f 167 166 312
f 313 184 190
f 314 309 313
f 315 310 314
f 316 311 315
f 317 312 316
f 168 167 317
f 318 190 197
f 319 313 318
f 320 314 319
f 321 315 320
f 322 316 321
f 323 317 322
f 169 168 323
f 163 170 303
f 303 172 304
f 164 303 305
f 304 175 306
f 305 304 307
f 165 305 308
f 306 179 309
f 307 306 310
f 308 307 311
f 166 308 312
f 309 184 313
f 310 309 314
f 311 310 315
f 312 311 316
f 167 312 317
f 313 190 318
f 314 313 319
f 315 314 320
f 316 315 321
f 317 316 322
f 168 317 323
f 191 92 198
f 324 198 200
f 192 191 324
f 325 200 203
f 326 324 325
f 193 192 326
f 327 203 207
f 328 325 327
f 329 326 328
f 194 193 329
f 330 207 212
f 331 327 330
f 332 328 331
f 333 329 332
f 195 194 333
f 334 212 218
f 335 330 334
f 336 331 335
f 337 332 336
f 338 333 337
f 196 195 338
f 339 218 225
f 340 334 339
f 341 335 340
f 342 336 341
f 343 337 342
f 344 338 343
f 197 196 344
f 191 198 324
f 324 200 325
f 192 324 326
f 325 203 327
f 326 325 328
f 193 326 329
f 327 207 330
f 328 327 331
f 329 328 332
f 194 329 333
f 330 212 334
f 331 330 335
f 332 331 336
f 333 332 337
f 195 333 338
f 334 218 339
f 335 334 340
f 336 335 341
f 337 336 342
f 338 337 343
f 196 338 344
f 219 64 226
f 345 226 228
f 220 219 345
f 346 228 231
f 347 345 346
f 221 220 347
f 348 231 235
f 349 346 348
f 350 347 349
f 222 221 350
f 351 235 240
f 352 348 351
f 353 349 352
f 354 350 353
f 223 222 354
f 355 240 246
f 356 351 355
f 357 352 356
f 358 353 357
f 359 354 358
f 224 223 359
f 360 246 253
f 361 355 360
f 362 356 361
f 363 357 362
f 364 358 363
f 365 359 364
f 225 224 365
f 219 226 345
f 345 228 346
f 220 345 347
f 346 231 348
f 347 346 349
f 221 347 350
f 348 235 351
f 349 348 352
f 350 349 353
f 222 350 354
f 351 240 355
f 352 351 356
f 353 352 357
f 354 353 358
f 223 354 359
f 355 246 360
f 356 355 361
f 357 356 362
f 358 357 363
f 359 358 364
f 224 359 365
f 247 36 254
f 366 254 256
f 248 247 366
f 367 256 259
f 368 366 367
f 249 248 368
f 369 259 263
f 370 367 369
f 371 368 370
f 250 249 371
f 372 263 268
f 373 369 372
f 374 370 373
f 375 371 374
f 251 250 375
f 376 268 274
f 377 372 376
f 378 373 377
f 379 374 378
f 380 375 379
f 252 251 380
f 381 274 281
f 382 376 381
f 383 377 382
f 384 378 383
f 385 379 384
f 386 380 385
f 253 252 386
f 247 254 366
f 366 256 367
f 248 366 368
f 367 259 369
f 368 367 370
f 249 368 371
f 369 263 372
f 370 369 373
f 371 370 374
f 250 371 375
f 372 268 376
f 373 372 377
f 374 373 378
f 375 374 379
f 251 375 380
f 376 274 381
f 377 376 382
f 378 377 383
f 379 378 384
f 380 379 385
f 252 380 386
f 389 387 388
f 391 388 390
f 392 389 391
f 394 390 393
f 395 391 394
f 396 392 395
f 398 393 397
f 399 394 398
f 400 395 399
f 401 396 400
f 403 397 402
f 404 398 403
f 405 399 404
f 406 400 405
f 407 401 406
f 409 402 408
f 410 403 409
f 411 404 410
f 412 405 411
f 413 406 412
f 414 407 413
f 302 408 281
f 301 409 302
f 300 410 301
f 299 411 300
f 298 412 299
f 297 413 298
f 169 414 297
f 389 388 391
f 391 390 394
f 392 391 395
f 394 393 398
f 395 394 399
f 396 395 400
f 398 397 403
f 399 398 404
f 400 399 405
f 401 400 406
f 403 402 409
f 404 403 410
f 405 404 411
f 406 405 412
f 407 406 413
f 409 408 302
f 410 409 301
f 411 410 300
f 412 411 299
f 413 412 298
f 414 413 297
f 388 387 415
f 417 415 416
f 390 388 417
f 419 416 418
f 420 417 419
f 393 390 420
f 422 418 421
f 423 419 422
f 424 420 423
f 397 393 424
f 426 421 425
f 427 422 426
f 428 423 427
f 429 424 428
f 402 397 429
f 431 425 430
f 432 426 431
f 433 427 432
f 434 428 433
f 435 429 434
f 408 402 435
f 386 430 253
f 385 431 386
f 384 432 385
f 383 433 384
f 382 434 383
f 381 435 382
f 281 408 381
f 388 415 417
f 417 416 419
f 390 417 420
f 419 418 422
f 420 419 423
f 393 420 424
f 422 421 426
f 423 422 427
f 424 423 428
f 397 424 429
f 426 425 431
f 427 426 432
f 428 427 433
f 429 428 434
f 402 429 435
f 431 430 386
f 432 431 385
f 433 432 384
f 434 433 383
f 435 434 382
f 408 435 381
f 415 387 436
f 438 436 437
f 416 415 438
f 440 437 439
f 441 438 440
f 418 416 441
f 443 439 442
f 444 440 443
f 445 441 444
f 421 418 445
f 447 442 446
f 448 443 447
f 449 444 448
f 450 445 449
f 425 421 450
f 452 446 451
f 453 447 452
f 454 448 453
f 455 449 454
f 456 450 455
f 430 425 456
f 365 451 225
f 364 452 365
f 363 453 364
f 362 454 363
f 361 455 362
f 360 456 361
f 253 430 360
f 415 436 438
f 438 437 440
f 416 438 441
f 440 439 443
f 441 440 444
f 418 441 445
f 443 442 447
f 444 443 448
f 445 444 449
f 421 445 450
f 447 446 452
f 448 447 453
f 449 448 454
f 450 449 455
f 425 450 456
f 452 451 365
f 453 452 364
f 454 453 363
f 455 454 362
f 456 455 361
f 430 456 360
f 436 387 457
f 459 457 458
f 437 436 459
f 461 458 460
f 462 459 461
f 439 437 462
f 464 460 463
f 465 461 464
f 466 462 465
f 442 439 466
f 468 463 467
f 469 464 468
f 470 465 469
f 471 466 470
f 446 442 471
f 473 467 472
f 474 468 473
f 475 469 474
f 476 470 475
f 477 471 476
f 451 446 477
f 344 472 197
f 343 473 344
f 342 474 343
f 341 475 342
f 340 476 341
f 339 477 340
f 225 451 339
f 436 457 459
f 459 458 461
f 437 459 462
f 461 460 464
f 462 461 465
f 439 462 466
f 464 463 468
f 465 464 469
f 466 465 470
f 442 466 471
f 468 467 473
f 469 468 474
f 470 469 475
f 471 470 476
f 446 471 477
f 473 472 344
f 474 473 343
f 475 474 342
f 476 475 341
f 477 476 340
f 451 477 339
f 457 387 389
f 478 389 392
f 458 457 478
f 479 392 396
f 480 478 479
f 460 458 480
f 481 396 401
f 482 479 481
f 483 480 482
f 463 460 483
f 484 401 407
f 485 481 484
f 486 482 485
f 487 483 486
f 467 463 487
f 488 407 414
f 489 484 488
f 490 485 489
f 491 486 490
f 492 487 491
f 472 467 492
f 323 414 169
f 322 488 323
f 321 489 322
f 320 490 321
f 319 491 320
f 318 492 319
f 197 472 318
f 457 389 478
f 478 392 479
f 458 478 480
f 479 396 481
f 480 479 482
f 460 480 483
f 481 401 484
f 482 481 485
f 483 482 486
f 463 483 487
f 484 407 488
f 485 484 489
f 486 485 490
f 487 486 491
f 467 487 492
f 488 414 323
f 489 488 322
f 490 489 321
f 491 490 320
f 492 491 319
f 472 492 318
