# File exported by Houdini 20.5.445 (www.sidefx.com)
# 492 points
# 2940 vertices
# 980 primitives
# Bounds: [-182.272247, -181.551941, -1065.1936] to [353.046143, 297.929047, -689.607422]
g 
v 180.9375 58.2619286 -1060.74121
v 180.807373 90.4292603 -1053.30481
v 210.379639 75.3622437 -1061.4917
v 179.26123 120.116356 -1038.84888
v 211.337036 110.284203 -1046.72949
v 237.342773 92.1063843 -1051.01257
v 177.713806 146.395416 -1019.99609
v 211.600708 140.120819 -1025.87134
v 239.183594 127.283089 -1029.72754
v 262.206238 107.178795 -1031.68823
v 176.624451 169.3302 -999.096191
v 212.229004 165.132355 -1002.42883
v 241.071777 155.767822 -1004.93604
v 265.349609 140.749603 -1005.95459
v 285.474976 119.19767 -1006.97778
v 175.390625 190.40155 -978.098389
v 212.640625 186.96347 -979.352661
v 243.171875 179.586914 -980.28418
v 268.765442 167.495667 -979.810425
v 290.223328 150.412567 -979.565552
v 307.280396 127.008446 -980.776001
v 173.155518 211.487823 -958.079346
v 211.249207 207.797363 -957.948853
v 243.887695 201.169861 -957.445679
v 271.504211 190.472656 -955.702271
v 294.618042 175.462433 -953.921753
v 313.233398 155.604401 -953.8573
v 326.81189 129.813721 -956.018677
v 168.816223 233.286316 -939.877441
v 206.671753 229.605255 -938.3302
v 240.85022 223.013763 -936.687256
v 270.909485 212.555573 -934.073486
v 296.522644 197.896606 -931.131348
v 317.253418 178.97226 -929.703613
v 332.671021 155.596832 -930.856689
v 342.387817 127.859901 -934.207764
v 197.507324 35.056324 -1065.1936
v 228.989563 51.8875275 -1064.21631
v 210.788086 10.9282436 -1064.27136
v 255.735413 68.3381042 -1051.2428
v 242.206909 27.8561478 -1061.15076
v 219.201538 -14.9910507 -1059.40369
v 279.11438 82.8646393 -1030.34656
v 267.395203 44.0191307 -1046.52893
v 248.923035 2.16164207 -1054.38416
v 222.753845 -42.2971039 -1050.50598
v 300.47406 93.7333298 -1005.02332
v 288.903931 57.5087624 -1024.79102
v 272.067566 17.7441559 -1038.31836
v 249.991699 -24.8096237 -1043.09204
v 221.959839 -68.7078629 -1035.56458
v 320.494507 99.4894028 -978.117065
v 308.781677 66.3573303 -998.766235
v 291.938965 29.5652466 -1015.24463
v 270.92395 -10.288765 -1024.79858
v 246.270874 -51.6126022 -1024.91418
v 217.318604 -92.2748184 -1013.77148
v 338.269653 99.620842 -951.579834
v 327.641663 69.0960693 -969.927246
v 310.605957 35.5918884 -986.734131
v 289.022217 -0.887283325 -998.651733
v 264.642334 -39.0441666 -1003.09033
v 238.16571 -76.7655411 -998.830444
v 208.997559 -111.649666 -986.082764
v 159.287476 28.096447 -1052.60059
v 173.409424 0.903007507 -1053.40845
v 133.291565 0.0784072876 -1033.85034
v 183.678345 -26.670681 -1049.95813
v 145.743652 -29.9438782 -1031.12085
v 103.70575 -25.6878204 -1008.4967
v 189.846619 -55.8707962 -1043.45435
v 154.926819 -60.9294357 -1026.40833
v 116.874573 -59.0579453 -1004.71167
v 73.5128174 -50.2363815 -982.648315
v 192.111328 -84.8991013 -1031.8512
v 160.484009 -92.6349564 -1018.46704
v 126.104126 -92.67173 -998.987183
v 87.5619507 -86.2185287 -977.737305
v 44.0473633 -73.919014 -958.687256
v 190.127197 -110.79995 -1012.62964
v 161.184387 -122.019646 -1003.37463
v 129.561157 -124.946037 -987.437744
v 94.5457764 -120.1791 -968.269043
v 55.7489624 -109.601723 -949.767456
v 14.2937317 -94.8474197 -934.51709
v 183.48999 -131.620117 -985.075439
v 155.997375 -145.713318 -978.328613
v 125.952576 -151.914825 -965.897217
v 93.1263428 -149.595398 -949.760864
v 57.6592407 -140.182281 -932.904663
v 20.7442017 -126.517067 -918.621704
v -16.6044006 -110.301292 -908.860596
v 149.888672 61.8187141 -1049.89294
v 123.253113 32.3019981 -1036.06323
v 116.128296 66.1330109 -1037.67773
v 92.6807861 7.01747322 -1013.23389
v 84.864624 38.6674843 -1020.22815
v 79.3180542 72.0926514 -1026.06665
v 59.6525879 -15.3352737 -987.180542
v 50.5926514 16.741293 -995.867188
v 44.1386719 48.1472855 -1006.2135
v 40.7800293 81.0779266 -1013.56519
v 27.755188 -37.8723221 -962.673096
v 15.9968262 -3.60241318 -970.095947
v 7.85272217 28.8428001 -980.991821
v 2.92861938 60.6362267 -992.03833
v 2.35617065 93.2799606 -998.827148
v -2.26715088 -61.2374039 -939.935669
v -16.4315796 -26.2379723 -946.200928
v -27.366394 8.65970993 -955.845337
v -34.7250977 42.376194 -967.026733
v -37.4750061 75.1259918 -977.057983
v -34.5931702 107.436119 -982.212402
v -33.6752625 -82.3809586 -916.552246
v -49.098938 -49.7557831 -923.49707
v -62.1750793 -14.4905968 -932.599365
v -72.0985413 21.7157822 -943.207397
v -77.3899536 56.9653511 -953.427979
v -76.5051575 90.3269958 -961.499756
v -69.2940674 121.547646 -965.026489
v 147.149353 94.6159592 -1043.65515
v 111.932617 98.9210129 -1034.09753
v 143.369629 123.694878 -1031.15625
v 75.1824951 104.699104 -1023.81311
v 107.222961 127.532219 -1023.13049
v 140.082458 149.178986 -1014.22583
v 37.8706055 113.709724 -1010.60596
v 70.8841553 133.816956 -1012.33423
v 103.469299 153.486725 -1006.3396
v 137.7323 172.395386 -994.298706
v 0.235748291 126.374931 -993.694092
v 33.8660278 144.187073 -997.126587
v 66.9373169 161.762939 -993.907715
v 100.520874 179.042236 -985.309937
v 135.746338 195.76178 -972.852905
v -37.4977722 141.615173 -973.821411
v -4.69714355 159.219238 -977.324951
v 28.5367432 175.707092 -976.036987
v 62.3587036 191.635681 -970.632324
v 97.0332642 206.923767 -962.11499
v 132.708374 221.039398 -951.503662
v 139.151489 248.806519 -930.430176
v 98.4898682 236.903656 -940.073486
v 106.725525 263.978973 -921.568848
v 60.2662354 222.986511 -947.764526
v 63.3734131 251.97171 -928.947144
v 72.9748535 276.700531 -913.394287
v 23.9966431 207.606232 -953.276611
v 23.8665161 237.236328 -933.938599
v 28.3787842 263.661163 -918.204712
v 39.4624634 284.971008 -905.494385
v -11.1756287 190.802063 -956.354248
v -13.4042053 220.080902 -937.033203
v -11.7201233 246.615753 -920.646973
v -5.1100769 269.746674 -907.538086
v 7.13647461 288.293274 -897.136353
v -46.2828979 171.658691 -956.733276
v -50.605072 199.735779 -938.844238
v -50.7138977 225.431671 -922.347656
v -46.3964844 248.964813 -908.54126
v -37.4230652 270.066284 -897.677612
v -23.2501221 286.034363 -888.870239
v -81.1164856 148.305328 -953.090576
v -88.2674866 174.144012 -938.516113
v -90.6585693 198.513275 -923.13562
v -88.0420227 222.0271 -909.218872
v -80.2717285 244.419769 -897.831055
v -67.3731689 263.707825 -888.803101
v -50.0807495 276.864716 -880.943726
v -106.270233 113.528069 -947.661011
v -113.345825 76.296402 -941.570557
v -137.344116 101.187004 -930.168213
v -112.378326 38.4483681 -932.418213
v -142.154541 59.8067284 -922.310059
v -161.156952 86.6329193 -911.406494
v -105.125763 0.302682877 -921.636963
v -138.852264 19.2609196 -912.095337
v -162.759796 42.1037712 -901.892822
v -176.10141 69.7335968 -890.586792
v -93.4250183 -37.6297836 -910.331299
v -129.878662 -20.9534836 -900.240479
v -157.30368 -0.80421257 -890.218994
v -174.948975 22.6843109 -879.085327
v -182.272247 50.344017 -867.300171
v -77.8981628 -73.3749008 -899.972168
v -116.40271 -59.7987747 -886.940918
v -146.76532 -42.3605423 -875.585327
v -167.79425 -21.7278366 -864.173706
v -179.118378 1.82961273 -852.227539
v -181.097473 29.0688057 -840.954834
v -58.7688293 -104.526527 -889.272095
v -98.0411377 -94.8228073 -872.439697
v -131.050995 -81.3354721 -857.599243
v -155.386383 -64.0510025 -844.262085
v -170.229889 -43.5267868 -831.703003
v -176.049713 -20.0168571 -820.223145
v -174.466125 7.00907516 -811.36792
v -25.3251038 -129.866608 -884.825684
v 13.7362976 -147.220856 -893.781494
v -33.4271545 -144.420959 -857.774902
v 50.5955811 -161.007477 -907.939575
v 6.59472656 -161.651703 -867.406738
v -39.538208 -155.928345 -830.085815
v 85.5125732 -168.706207 -923.321045
v 43.25354 -173.866577 -881.297729
v 0.54510498 -171.657715 -840.679077
v -42.838562 -164.507446 -803.262329
v 118.712402 -167.995575 -937.598022
v 78.2476807 -178.400482 -895.969971
v 37.0554199 -180.827789 -854.775879
v -3.41378784 -177.12326 -815.101807
v -42.8404541 -168.490692 -778.88562
v 150.296021 -157.806244 -948.310425
v 112.58313 -173.36615 -909.193604
v 72.6864624 -180.770905 -869.401245
v 33.0498657 -181.551941 -830.113403
v -4.37045288 -176.271118 -792.527832
v -39.0657349 -165.631531 -758.911865
v 180.886169 -138.628693 -954.352539
v 147.209961 -157.793121 -918.869629
v 109.279297 -169.500671 -881.873291
v 70.0982666 -174.667297 -844.853149
v 32.5551147 -173.528015 -808.739868
v -1.27603149 -166.49469 -774.540649
v -31.1496277 -154.868439 -744.337524
v 216.698975 -106.600029 -964.431519
v 249.152466 -69.8301239 -974.36377
v 222.516602 -98.5630569 -940.272827
v 278.28241 -32.4440536 -975.617432
v 258.393372 -61.7515259 -948.170288
v 226.790771 -87.1221085 -915.276123
v 304.829346 3.92795181 -968.88623
v 290.061096 -25.7503357 -947.420532
v 265.507568 -51.443367 -921.505859
v 229.725464 -71.4060898 -890.766113
v 327.520813 38.6671181 -956.063232
v 317.799805 9.25336647 -939.625122
v 298.382996 -16.6220169 -919.549561
v 269.453613 -36.8848953 -895.541138
v 230.680908 -51.5297928 -867.692993
v 343.720337 72.1482391 -940.165161
v 339.502136 44.2815704 -927.322144
v 325.032471 18.8892536 -911.94873
v 300.718872 -1.8243885 -893.387817
v 268.074097 -17.0485725 -871.589478
v 227.696228 -27.9023476 -846.974854
v 351.125244 105.296364 -924.319336
v 351.769775 80.8681335 -913.802856
v 342.410217 57.3289833 -901.744019
v 322.381104 36.8036613 -887.427979
v 293.585815 20.3609276 -870.381348
v 258.426575 8.01709366 -850.814087
v 218.486877 -1.73870087 -829.398315
v 347.705078 142.186951 -914.094971
v 334.907593 173.015594 -911.389404
v 344.720886 156.980988 -899.23938
v 315.781189 198.286499 -911.49646
v 328.112732 189.644806 -898.407227
v 332.321838 172.214844 -888.634399
v 291.235229 218.513275 -913.935425
v 305.246948 216.061127 -899.67688
v 312.641785 205.274292 -889.308594
v 311.019287 186.541748 -880.143433
v 261.838623 234.145233 -917.306763
v 277.146301 237.287109 -902.348389
v 286.822205 232.040588 -891.143188
v 289.127869 219.028748 -881.848511
v 281.946228 199.051056 -872.182617
v 227.248474 245.178833 -920.169189
v 243.347717 253.758453 -905.545166
v 254.792358 253.828064 -893.852905
v 260.183594 245.584106 -884.179321
v 257.749207 230.336243 -874.827881
v 246.679016 209.404144 -863.947266
v 186.447144 251.836517 -923.019409
v 201.753662 265.134216 -908.653687
v 214.261719 270.680878 -897.084351
v 222.347412 267.42569 -887.290283
v 224.008118 256.419373 -877.828125
v 218.770264 239.161011 -867.516602
v 206.942444 217.467316 -855.276489
v 154.420959 268.784393 -914.267456
v 120.809937 282.42395 -907.121338
v 167.775757 280.429504 -901.3927
v 86.4945068 291.874969 -901.137573
v 132.93927 290.523102 -895.862671
v 178.282532 282.559998 -890.966431
v 51.760437 297.074066 -895.003418
v 96.6549683 296.528931 -891.032593
v 140.965942 289.043915 -885.877075
v 183.508545 275.754028 -881.209473
v 17.6959839 296.983887 -887.315186
v 59.6315308 297.929047 -884.961548
v 102.040771 290.92749 -880.476562
v 143.405273 277.891052 -874.905884
v 182.282043 260.504913 -870.095215
v -14.5210571 289.27774 -878.274902
v 23.1542969 292.141571 -875.665283
v 62.1487427 286.253784 -871.991333
v 101.300903 273.596954 -866.2771
v 138.892395 256.704254 -860.040894
v 174.140442 237.831024 -856.096924
v -118.913635 140.519165 -935.987427
v -148.56546 129.071991 -918.585449
v -125.065521 165.756622 -922.397827
v -168.59903 114.795616 -899.629883
v -151.449615 154.359436 -905.87085
v -124.817505 189.874176 -908.651855
v -178.421326 97.2322464 -878.128052
v -166.532013 139.741791 -887.416504
v -146.400665 178.497864 -893.652954
v -117.760437 213.572235 -896.680664
v -179.272339 75.9694824 -853.35498
v -171.045441 121.114647 -865.501709
v -155.913696 163.546936 -875.918091
v -133.592865 202.172607 -882.928467
v -104.072906 235.975189 -886.677612
v -173.221893 51.2073364 -824.296875
v -166.963379 97.468895 -838.541138
v -154.955078 143.299561 -852.765503
v -137.094269 185.981781 -864.655884
v -113.443787 223.467987 -872.767578
v -84.2415161 254.113678 -877.606323
v -70.1621704 -122.964851 -860.752686
v -78.0278931 -136.560211 -830.328857
v -108.236755 -113.067741 -840.836548
v -81.52005 -147.44342 -800.561401
v -113.072449 -126.65934 -808.485718
v -137.389221 -99.7347488 -823.736816
v -80.6387634 -154.809204 -772.762573
v -112.560059 -136.897858 -777.544312
v -137.812866 -112.977928 -790.088135
v -156.728699 -82.174736 -808.830811
v -75.3027954 -155.977051 -748.366333
v -107.074677 -141.679779 -748.900635
v -132.783691 -121.181114 -758.070679
v -152.285278 -93.9334488 -774.168335
v -166.317841 -60.083168 -795.52771
v -64.8692017 -148.611572 -729.162598
v -96.0943604 -138.122406 -724.002319
v -122.345398 -121.597099 -728.206421
v -142.555573 -98.0855484 -740.919189
v -157.086395 -67.8649979 -760.679688
v -167.291565 -32.171669 -785.087158
v 184.588013 -131.85788 -929.457886
v 186.062073 -120.296761 -904.331543
v 147.471558 -147.888153 -893.236206
v 186.895081 -103.782967 -880.349365
v 146.600952 -132.245941 -869.255737
v 107.944092 -156.587616 -857.540039
v 187.612976 -82.5438614 -857.858765
v 146.082153 -111.11631 -847.098267
v 106.404236 -137.049438 -835.402466
v 68.5839233 -158.789612 -822.487549
v 187.188293 -56.8976517 -836.738525
v 145.91095 -84.8096542 -826.069824
v 105.568237 -111.569359 -814.436646
v 67.2146606 -135.695984 -801.501465
v 31.5292969 -154.887299 -787.565063
v 182.68988 -27.556839 -817.276489
v 144.016174 -53.8509293 -805.420166
v 104.397949 -80.4581833 -793.263062
v 65.8998413 -106.085838 -780.106323
v 30.0652466 -128.434601 -766.128906
v -2.22015381 -145.09259 -753.000488
v 353.046143 119.473595 -904.314819
v 344.121399 134.95343 -890.161865
v 347.747131 97.0915298 -894.296387
v 324.73938 150.607971 -879.419312
v 331.48761 114.329689 -880.184814
v 331.361816 76.7338562 -882.528076
v 296.067261 165.243988 -869.681641
v 304.52771 131.043884 -868.240723
v 307.535339 95.7978592 -867.638062
v 304.53772 58.8630257 -868.020142
v 259.556519 178.131226 -859.339111
v 268.249878 146.236511 -855.899902
v 272.991028 113.393059 -853.29248
v 273.46405 79.1433716 -851.382324
v 269.539246 43.9080963 -850.150513
v 216.399841 188.93927 -847.809204
v 223.254089 159.178955 -841.515259
v 228.39679 128.536865 -836.654663
v 230.750366 96.5967026 -832.977295
v 230.976013 63.8557472 -830.211792
v 227.78595 30.9466286 -828.64978
v -31.9955139 71.0289612 -725.180664
v -3.66534424 101.611122 -740.882202
v -40.3661804 110.075584 -747.080933
v 27.4667969 129.094543 -759.616943
v -9.16677856 143.95105 -764.982666
v -44.6532898 150.924103 -775.818115
v 60.8125 153.093842 -780.705444
v 23.6618042 171.707306 -784.909424
v -11.1951904 185.246521 -794.353638
v -46.7846375 190.611572 -806.376709
v 96.319519 173.750031 -801.92395
v 58.2657471 194.008087 -805.226318
v 23.0063477 211.248962 -813.12915
v -11.9853516 222.955322 -823.080811
v -48.6528625 225.572327 -833.498901
v 133.593628 191.249878 -822.044312
v 95.2277832 211.921631 -824.078491
v 58.965332 230.86087 -830.968262
v 23.3273926 246.011353 -839.036133
v -13.0362244 254.490662 -846.959839
v -50.6411133 252.572174 -854.640747
v 171.231689 205.78006 -840.073853
v 134.335632 226.329498 -841.058838
v 97.6190796 245.636566 -846.578613
v 60.6477661 262.388733 -853.840332
v 23.2637939 273.915558 -859.855469
v -14.3034668 277.26825 -864.96167
v -51.6437988 269.725739 -869.858276
v -2.98855591 54.5675468 -721.870483
v 29.5700684 41.3461075 -728.509399
v 29.9179077 85.0392303 -741.01062
v 65.4118652 32.0331497 -742.92395
v 65.7020874 72.1361237 -750.30957
v 64.2128906 111.813927 -762.363525
v 103.667358 25.103405 -762.275879
v 103.954834 62.515667 -765.900757
v 102.348145 98.6455002 -773.28125
v 100.008728 135.292969 -784.95752
v 143.245667 18.0171318 -783.960815
v 144.456482 54.0489693 -785.281372
v 142.767456 88.148468 -789.567261
v 140.557922 121.874702 -796.743774
v 137.731079 155.798187 -807.459106
v 182.413879 8.97213936 -806.370239
v 186.313171 43.9276581 -806.493896
v 185.860596 77.3877869 -809.031616
v 183.816406 109.974709 -813.41626
v 180.893005 141.891174 -819.808716
v 176.962341 173.598022 -828.761719
v -39.9376831 28.3787041 -707.90918
v -44.4766235 -12.4407387 -696.484985
v -7.78561401 11.9248066 -709.462036
v -46.6990967 -49.7877579 -692.443237
v -9.56109619 -26.2132187 -704.997192
v 27.1937256 0.858064651 -722.214233
v -47.0310669 -82.8962479 -695.941772
v -9.99108887 -60.3850327 -707.936523
v 26.8901978 -34.7164917 -724.041748
v 64.4251709 -6.1836319 -741.940918
v -45.0361633 -111.438515 -706.250366
v -9.30328369 -91.4052811 -717.077271
v 27.1911011 -67.3675308 -732.294434
v 64.7907104 -40.5134506 -748.406006
v 103.425964 -11.8538971 -765.226318
v -39.9757385 -135.385712 -722.561523
v -7.18795776 -119.741753 -731.980103
v 27.7410278 -98.5563583 -746.180542
v 64.9544067 -73.4097519 -761.121582
v 103.867188 -46.3154831 -775.62146
v 143.409912 -18.6757774 -790.333374
v -63.5689087 61.9302635 -724.961914
v -91.3949585 51.9901237 -730.413452
v -72.8152771 13.5415134 -705.200195
v -115.084625 41.3035583 -740.079102
v -100.324707 -0.417331696 -709.580933
v -77.9859314 -30.3068924 -693.045532
v -134.821503 30.4175491 -753.162109
v -122.871674 -12.8440514 -720.018921
v -105.125397 -45.5990372 -698.290283
v -80.3041992 -68.6324234 -689.607422
v -151.082367 20.3872643 -769.480713
v -141.106232 -22.8506813 -736.214722
v -126.86911 -57.5211105 -711.338745
v -106.784912 -83.4366837 -697.119507
v -79.7280884 -101.050194 -694.925537
v -164.360962 12.4166412 -789.038452
v -155.810699 -29.4806671 -758.090332
v -144.057587 -65.1725998 -732.143555
v -127.392639 -93.529335 -714.15332
v -104.531525 -114.131126 -705.880981
v -75.1318665 -127.575523 -708.346313
v -72.6921387 105.059196 -754.44104
v -77.1337585 147.699158 -787.394043
v -99.8497925 97.7317429 -765.299561
v -80.0111084 186.695007 -818.328125
v -104.321411 140.322418 -799.673706
v -122.855438 87.8283691 -777.491943
v -82.8858643 218.786072 -844.013428
v -108.076874 177.00061 -829.622192
v -127.959259 128.826996 -811.514648
v -142.625031 75.9073029 -790.659912
v -85.0602722 241.571564 -863.460938
v -111.824127 205.182373 -854.03833
v -132.909027 162.08136 -840.532593
v -148.938904 113.978127 -823.854736
v -159.526245 63.1149254 -805.797241
g 
f 3 1 2
f 5 2 4
f 6 3 5
f 8 4 7
f 9 5 8
f 10 6 9
f 12 7 11
f 13 8 12
f 14 9 13
f 15 10 14
f 17 11 16
f 18 12 17
f 19 13 18
f 20 14 19
f 21 15 20
f 23 16 22
f 24 17 23
f 25 18 24
f 26 19 25
f 27 20 26
f 28 21 27
f 30 22 29
f 31 23 30
f 32 24 31
f 33 25 32
f 34 26 33
f 35 27 34
f 36 28 35
f 3 2 5
f 5 4 8
f 6 5 9
f 8 7 12
f 9 8 13
f 10 9 14
f 12 11 17
f 13 12 18
f 14 13 19
f 15 14 20
f 17 16 23
f 18 17 24
f 19 18 25
f 20 19 26
f 21 20 27
f 23 22 30
f 24 23 31
f 25 24 32
f 26 25 33
f 27 26 34
f 28 27 35
f 37 1 3
f 38 3 6
f 39 37 38
f 40 6 10
f 41 38 40
f 42 39 41
f 43 10 15
f 44 40 43
f 45 41 44
f 46 42 45
f 47 15 21
f 48 43 47
f 49 44 48
f 50 45 49
f 51 46 50
f 52 21 28
f 53 47 52
f 54 48 53
f 55 49 54
f 56 50 55
f 57 51 56
f 58 28 36
f 59 52 58
f 60 53 59
f 61 54 60
f 62 55 61
f 63 56 62
f 64 57 63
f 37 3 38
f 38 6 40
f 39 38 41
f 40 10 43
f 41 40 44
f 42 41 45
f 43 15 47
f 44 43 48
f 45 44 49
f 46 45 50
f 47 21 52
f 48 47 53
f 49 48 54
f 50 49 55
f 51 50 56
f 52 28 58
f 53 52 59
f 54 53 60
f 55 54 61
f 56 55 62
f 57 56 63
f 65 1 37
f 66 37 39
f 67 65 66
f 68 39 42
f 69 66 68
f 70 67 69
f 71 42 46
f 72 68 71
f 73 69 72
f 74 70 73
f 75 46 51
f 76 71 75
f 77 72 76
f 78 73 77
f 79 74 78
f 80 51 57
f 81 75 80
f 82 76 81
f 83 77 82
f 84 78 83
f 85 79 84
f 86 57 64
f 87 80 86
f 88 81 87
f 89 82 88
f 90 83 89
f 91 84 90
f 92 85 91
f 65 37 66
f 66 39 68
f 67 66 69
f 68 42 71
f 69 68 72
f 70 69 73
f 71 46 75
f 72 71 76
f 73 72 77
f 74 73 78
f 75 51 80
f 76 75 81
f 77 76 82
f 78 77 83
f 79 78 84
f 80 57 86
f 81 80 87
f 82 81 88
f 83 82 89
f 84 83 90
f 85 84 91
f 93 1 65
f 94 65 67
f 95 93 94
f 96 67 70
f 97 94 96
f 98 95 97
f 99 70 74
f 100 96 99
f 101 97 100
f 102 98 101
f 103 74 79
f 104 99 103
f 105 100 104
f 106 101 105
f 107 102 106
f 108 79 85
f 109 103 108
f 110 104 109
f 111 105 110
f 112 106 111
f 113 107 112
f 114 85 92
f 115 108 114
f 116 109 115
f 117 110 116
f 118 111 117
f 119 112 118
f 120 113 119
f 93 65 94
f 94 67 96
f 95 94 97
f 96 70 99
f 97 96 100
f 98 97 101
f 99 74 103
f 100 99 104
f 101 100 105
f 102 101 106
f 103 79 108
f 104 103 109
f 105 104 110
f 106 105 111
f 107 106 112
f 108 85 114
f 109 108 115
f 110 109 116
f 111 110 117
f 112 111 118
f 113 112 119
f 2 1 93
f 121 93 95
f 4 2 121
f 122 95 98
f 123 121 122
f 7 4 123
f 124 98 102
f 125 122 124
f 126 123 125
f 11 7 126
f 127 102 107
f 128 124 127
f 129 125 128
f 130 126 129
f 16 11 130
f 131 107 113
f 132 127 131
f 133 128 132
f 134 129 133
f 135 130 134
f 22 16 135
f 136 113 120
f 137 131 136
f 138 132 137
f 139 133 138
f 140 134 139
f 141 135 140
f 29 22 141
f 2 93 121
f 121 95 122
f 4 121 123
f 122 98 124
f 123 122 125
f 7 123 126
f 124 102 127
f 125 124 128
f 126 125 129
f 11 126 130
f 127 107 131
f 128 127 132
f 129 128 133
f 130 129 134
f 16 130 135
f 131 113 136
f 132 131 137
f 133 132 138
f 134 133 139
f 135 134 140
f 22 135 141
f 142 29 141
f 143 141 140
f 144 142 143
f 145 140 139
f 146 143 145
f 147 144 146
f 148 139 138
f 149 145 148
f 150 146 149
f 151 147 150
f 152 138 137
f 153 148 152
f 154 149 153
f 155 150 154
f 156 151 155
f 157 137 136
f 158 152 157
f 159 153 158
f 160 154 159
f 161 155 160
f 162 156 161
f 163 136 120
f 164 157 163
f 165 158 164
f 166 159 165
f 167 160 166
f 168 161 167
f 169 162 168
f 142 141 143
f 143 140 145
f 144 143 146
f 145 139 148
f 146 145 149
f 147 146 150
f 148 138 152
f 149 148 153
f 150 149 154
f 151 150 155
f 152 137 157
f 153 152 158
f 154 153 159
f 155 154 160
f 156 155 161
f 157 136 163
f 158 157 164
f 159 158 165
f 160 159 166
f 161 160 167
f 162 161 168
f 170 120 119
f 171 119 118
f 172 170 171
f 173 118 117
f 174 171 173
f 175 172 174
f 176 117 116
f 177 173 176
f 178 174 177
f 179 175 178
f 180 116 115
f 181 176 180
f 182 177 181
f 183 178 182
f 184 179 183
f 185 115 114
f 186 180 185
f 187 181 186
f 188 182 187
f 189 183 188
f 190 184 189
f 191 114 92
f 192 185 191
f 193 186 192
f 194 187 193
f 195 188 194
f 196 189 195
f 197 190 196
f 170 119 171
f 171 118 173
f 172 171 174
f 173 117 176
f 174 173 177
f 175 174 178
f 176 116 180
f 177 176 181
f 178 177 182
f 179 178 183
f 180 115 185
f 181 180 186
f 182 181 187
f 183 182 188
f 184 183 189
f 185 114 191
f 186 185 192
f 187 186 193
f 188 187 194
f 189 188 195
f 190 189 196
f 198 92 91
f 199 91 90
f 200 198 199
f 201 90 89
f 202 199 201
f 203 200 202
f 204 89 88
f 205 201 204
f 206 202 205
f 207 203 206
f 208 88 87
f 209 204 208
f 210 205 209
f 211 206 210
f 212 207 211
f 213 87 86
f 214 208 213
f 215 209 214
f 216 210 215
f 217 211 216
f 218 212 217
f 219 86 64
f 220 213 219
f 221 214 220
f 222 215 221
f 223 216 222
f 224 217 223
f 225 218 224
f 198 91 199
f 199 90 201
f 200 199 202
f 201 89 204
f 202 201 205
f 203 202 206
f 204 88 208
f 205 204 209
f 206 205 210
f 207 206 211
f 208 87 213
f 209 208 214
f 210 209 215
f 211 210 216
f 212 211 217
f 213 86 219
f 214 213 220
f 215 214 221
f 216 215 222
f 217 216 223
f 218 217 224
f 226 64 63
f 227 63 62
f 228 226 227
f 229 62 61
f 230 227 229
f 231 228 230
f 232 61 60
f 233 229 232
f 234 230 233
f 235 231 234
f 236 60 59
f 237 232 236
f 238 233 237
f 239 234 238
f 240 235 239
f 241 59 58
f 242 236 241
f 243 237 242
f 244 238 243
f 245 239 244
f 246 240 245
f 247 58 36
f 248 241 247
f 249 242 248
f 250 243 249
f 251 244 250
f 252 245 251
f 253 246 252
f 226 63 227
f 227 62 229
f 228 227 230
f 229 61 232
f 230 229 233
f 231 230 234
f 232 60 236
f 233 232 237
f 234 233 238
f 235 234 239
f 236 59 241
f 237 236 242
f 238 237 243
f 239 238 244
f 240 239 245
f 241 58 247
f 242 241 248
f 243 242 249
f 244 243 250
f 245 244 251
f 246 245 252
f 254 36 35
f 255 35 34
f 256 254 255
f 257 34 33
f 258 255 257
f 259 256 258
f 260 33 32
f 261 257 260
f 262 258 261
f 263 259 262
f 264 32 31
f 265 260 264
f 266 261 265
f 267 262 266
f 268 263 267
f 269 31 30
f 270 264 269
f 271 265 270
f 272 266 271
f 273 267 272
f 274 268 273
f 275 30 29
f 276 269 275
f 277 270 276
f 278 271 277
f 279 272 278
f 280 273 279
f 281 274 280
f 254 35 255
f 255 34 257
f 256 255 258
f 257 33 260
f 258 257 261
f 259 258 262
f 260 32 264
f 261 260 265
f 262 261 266
f 263 262 267
f 264 31 269
f 265 264 270
f 266 265 271
f 267 266 272
f 268 267 273
f 269 30 275
f 270 269 276
f 271 270 277
f 272 271 278
f 273 272 279
f 274 273 280
f 275 29 142
f 282 142 144
f 276 275 282
f 283 144 147
f 284 282 283
f 277 276 284
f 285 147 151
f 286 283 285
f 287 284 286
f 278 277 287
f 288 151 156
f 289 285 288
f 290 286 289
f 291 287 290
f 279 278 291
f 292 156 162
f 293 288 292
f 294 289 293
f 295 290 294
f 296 291 295
f 280 279 296
f 297 162 169
f 298 292 297
f 299 293 298
f 300 294 299
f 301 295 300
f 302 296 301
f 281 280 302
f 275 142 282
f 282 144 283
f 276 282 284
f 283 147 285
f 284 283 286
f 277 284 287
f 285 151 288
f 286 285 289
f 287 286 290
f 278 287 291
f 288 156 292
f 289 288 293
f 290 289 294
f 291 290 295
f 279 291 296
f 292 162 297
f 293 292 298
f 294 293 299
f 295 294 300
f 296 295 301
f 280 296 302
f 163 120 170
f 303 170 172
f 164 163 303
f 304 172 175
f 305 303 304
f 165 164 305
f 306 175 179
f 307 304 306
f 308 305 307
f 166 165 308
f 309 179 184
f 310 306 309
f 311 307 310
f 312 308 311
f 167 166 312
f 313 184 190
f 314 309 313
f 315 310 314
f 316 311 315
f 317 312 316
f 168 167 317
f 318 190 197
f 319 313 318
f 320 314 319
f 321 315 320
f 322 316 321
f 323 317 322
f 169 168 323
f 163 170 303
f 303 172 304
f 164 303 305
f 304 175 306
f 305 304 307
f 165 305 308
f 306 179 309
f 307 306 310
f 308 307 311
f 166 308 312
f 309 184 313
f 310 309 314
f 311 310 315
f 312 311 316
f 167 312 317
f 313 190 318
f 314 313 319
f 315 314 320
f 316 315 321
f 317 316 322
f 168 317 323
f 191 92 198
f 324 198 200
f 192 191 324
f 325 200 203
f 326 324 325
f 193 192 326
f 327 203 207
f 328 325 327
f 329 326 328
f 194 193 329
f 330 207 212
f 331 327 330
f 332 328 331
f 333 329 332
f 195 194 333
f 334 212 218
f 335 330 334
f 336 331 335
f 337 332 336
f 338 333 337
f 196 195 338
f 339 218 225
f 340 334 339
f 341 335 340
f 342 336 341
f 343 337 342
f 344 338 343
f 197 196 344
f 191 198 324
f 324 200 325
f 192 324 326
f 325 203 327
f 326 325 328
f 193 326 329
f 327 207 330
f 328 327 331
f 329 328 332
f 194 329 333
f 330 212 334
f 331 330 335
f 332 331 336
f 333 332 337
f 195 333 338
f 334 218 339
f 335 334 340
f 336 335 341
f 337 336 342
f 338 337 343
f 196 338 344
f 219 64 226
f 345 226 228
f 220 219 345
f 346 228 231
f 347 345 346
f 221 220 347
f 348 231 235
f 349 346 348
f 350 347 349
f 222 221 350
f 351 235 240
f 352 348 351
f 353 349 352
f 354 350 353
f 223 222 354
f 355 240 246
f 356 351 355
f 357 352 356
f 358 353 357
f 359 354 358
f 224 223 359
f 360 246 253
f 361 355 360
f 362 356 361
f 363 357 362
f 364 358 363
f 365 359 364
f 225 224 365
f 219 226 345
f 345 228 346
f 220 345 347
f 346 231 348
f 347 346 349
f 221 347 350
f 348 235 351
f 349 348 352
f 350 349 353
f 222 350 354
f 351 240 355
f 352 351 356
f 353 352 357
f 354 353 358
f 223 354 359
f 355 246 360
f 356 355 361
f 357 356 362
f 358 357 363
f 359 358 364
f 224 359 365
f 247 36 254
f 366 254 256
f 248 247 366
f 367 256 259
f 368 366 367
f 249 248 368
f 369 259 263
f 370 367 369
f 371 368 370
f 250 249 371
f 372 263 268
f 373 369 372
f 374 370 373
f 375 371 374
f 251 250 375
f 376 268 274
f 377 372 376
f 378 373 377
f 379 374 378
f 380 375 379
f 252 251 380
f 381 274 281
f 382 376 381
f 383 377 382
f 384 378 383
f 385 379 384
f 386 380 385
f 253 252 386
f 247 254 366
f 366 256 367
f 248 366 368
f 367 259 369
f 368 367 370
f 249 368 371
f 369 263 372
f 370 369 373
f 371 370 374
f 250 371 375
f 372 268 376
f 373 372 377
f 374 373 378
f 375 374 379
f 251 375 380
f 376 274 381
f 377 376 382
f 378 377 383
f 379 378 384
f 380 379 385
f 252 380 386
f 389 387 388
f 391 388 390
f 392 389 391
f 394 390 393
f 395 391 394
f 396 392 395
f 398 393 397
f 399 394 398
f 400 395 399
f 401 396 400
f 403 397 402
f 404 398 403
f 405 399 404
f 406 400 405
f 407 401 406
f 409 402 408
f 410 403 409
f 411 404 410
f 412 405 411
f 413 406 412
f 414 407 413
f 302 408 281
f 301 409 302
f 300 410 301
f 299 411 300
f 298 412 299
f 297 413 298
f 169 414 297
f 389 388 391
f 391 390 394
f 392 391 395
f 394 393 398
f 395 394 399
f 396 395 400
f 398 397 403
f 399 398 404
f 400 399 405
f 401 400 406
f 403 402 409
f 404 403 410
f 405 404 411
f 406 405 412
f 407 406 413
f 409 408 302
f 410 409 301
f 411 410 300
f 412 411 299
f 413 412 298
f 414 413 297
f 388 387 415
f 417 415 416
f 390 388 417
f 419 416 418
f 420 417 419
f 393 390 420
f 422 418 421
f 423 419 422
f 424 420 423
f 397 393 424
f 426 421 425
f 427 422 426
f 428 423 427
f 429 424 428
f 402 397 429
f 431 425 430
f 432 426 431
f 433 427 432
f 434 428 433
f 435 429 434
f 408 402 435
f 386 430 253
f 385 431 386
f 384 432 385
f 383 433 384
f 382 434 383
f 381 435 382
f 281 408 381
f 388 415 417
f 417 416 419
f 390 417 420
f 419 418 422
f 420 419 423
f 393 420 424
f 422 421 426
f 423 422 427
f 424 423 428
f 397 424 429
f 426 425 431
f 427 426 432
f 428 427 433
f 429 428 434
f 402 429 435
f 431 430 386
f 432 431 385
f 433 432 384
f 434 433 383
f 435 434 382
f 408 435 381
f 415 387 436
f 438 436 437
f 416 415 438
f 440 437 439
f 441 438 440
f 418 416 441
f 443 439 442
f 444 440 443
f 445 441 444
f 421 418 445
f 447 442 446
f 448 443 447
f 449 444 448
f 450 445 449
f 425 421 450
f 452 446 451
f 453 447 452
f 454 448 453
f 455 449 454
f 456 450 455
f 430 425 456
f 365 451 225
f 364 452 365
f 363 453 364
f 362 454 363
f 361 455 362
f 360 456 361
f 253 430 360
f 415 436 438
f 438 437 440
f 416 438 441
f 440 439 443
f 441 440 444
f 418 441 445
f 443 442 447
f 444 443 448
f 445 444 449
f 421 445 450
f 447 446 452
f 448 447 453
f 449 448 454
f 450 449 455
f 425 450 456
f 452 451 365
f 453 452 364
f 454 453 363
f 455 454 362
f 456 455 361
f 430 456 360
f 436 387 457
f 459 457 458
f 437 436 459
f 461 458 460
f 462 459 461
f 439 437 462
f 464 460 463
f 465 461 464
f 466 462 465
f 442 439 466
f 468 463 467
f 469 464 468
f 470 465 469
f 471 466 470
f 446 442 471
f 473 467 472
f 474 468 473
f 475 469 474
f 476 470 475
f 477 471 476
f 451 446 477
f 344 472 197
f 343 473 344
f 342 474 343
f 341 475 342
f 340 476 341
f 339 477 340
f 225 451 339
f 436 457 459
f 459 458 461
f 437 459 462
f 461 460 464
f 462 461 465
f 439 462 466
f 464 463 468
f 465 464 469
f 466 465 470
f 442 466 471
f 468 467 473
f 469 468 474
f 470 469 475
f 471 470 476
f 446 471 477
f 473 472 344
f 474 473 343
f 475 474 342
f 476 475 341
f 477 476 340
f 451 477 339
f 457 387 389
f 478 389 392
f 458 457 478
f 479 392 396
f 480 478 479
f 460 458 480
f 481 396 401
f 482 479 481
f 483 480 482
f 463 460 483
f 484 401 407
f 485 481 484
f 486 482 485
f 487 483 486
f 467 463 487
f 488 407 414
f 489 484 488
f 490 485 489
f 491 486 490
f 492 487 491
f 472 467 492
f 323 414 169
f 322 488 323
f 321 489 322
f 320 490 321
f 319 491 320
f 318 492 319
f 197 472 318
f 457 389 478
f 478 392 479
f 458 478 480
f 479 396 481
f 480 479 482
f 460 480 483
f 481 401 484
f 482 481 485
f 483 482 486
f 463 483 487
f 484 407 488
f 485 484 489
f 486 485 490
f 487 486 491
f 467 487 492
f 488 414 323
f 489 488 322
f 490 489 321
f 491 490 320
f 492 491 319
f 472 492 318
