# File exported by Houdini 20.5.445 (www.sidefx.com)
# 492 points
# 2940 vertices
# 980 primitives
# Bounds: [-150.653503, -152.015991, -1097.42749] to [321.427399, 268.393097, -657.373535]
g 
v 91.4952698 86.9522476 -1051.34375
v 97.0682068 123.409782 -1074.49451
v 117.475372 97.1845169 -1055.66809
v 101.860077 157.36441 -1089.06641
v 124.189911 138.677612 -1075.84668
v 141.095612 106.862518 -1057.84155
v 102.362823 187.041473 -1092.38501
v 128.210052 175.53952 -1084.13879
v 146.675323 151.353455 -1073.12109
v 162.544464 115.882202 -1056.86169
v 96.6339417 211.352448 -1083.94836
v 126.755157 206.442993 -1080.14575
v 148.774384 189.07782 -1074.59583
v 166.013702 161.094635 -1066.27344
v 182.360504 124.180527 -1051.30701
v 84.6389465 230.365265 -1065.68225
v 118.696564 230.927521 -1065.22925
v 145.322968 219.618774 -1063.7843
v 166.163605 197.941833 -1061.06738
v 183.571136 167.801727 -1054.5531
v 201.170746 131.427429 -1039.72009
v 68.4537354 244.631744 -1040.7594
v 104.445831 249.392395 -1041.97412
v 135.434845 243.297333 -1042.92212
v 161.134735 227.063141 -1043.82886
v 182.234283 202.389252 -1042.96899
v 200.36203 171.431183 -1036.77991
v 219.049896 137.009613 -1020.91895
v 51.5823059 254.086212 -1012.07922
v 86.5990906 261.68689 -1012.44666
v 119.883148 260.068115 -1013.7594
v 150.084259 249.176483 -1016.54333
v 176.188873 229.662354 -1019.41687
v 198.119965 203.223785 -1019.04395
v 216.915863 172.666626 -1011.70886
v 235.667206 141.261292 -994.887939
v 105.097443 55.0058937 -1027.13782
v 132.37674 61.7680206 -1031.88635
v 123.057831 22.0529079 -1001.20532
v 157.340118 69.2084808 -1034.68506
v 152.008759 27.9955101 -1006.40186
v 146.353668 -9.1545105 -974.395142
v 180.909088 77.9806519 -1033.72192
v 179.374542 36.3641205 -1008.51526
v 177.41214 -1.3260231 -978.989502
v 173.676422 -36.2353134 -946.789307
v 203.70816 88.005043 -1026.90515
v 205.966583 47.3735352 -1005.24658
v 207.269684 9.82867813 -978.401123
v 206.451508 -25.0492096 -948.812317
v 202.618744 -57.8321075 -918.425598
v 225.480011 98.2173538 -1011.90369
v 231.881012 60.2710304 -994.085083
v 236.70755 23.789175 -970.352905
v 238.367645 -10.7203598 -943.322876
v 236.297272 -43.2316055 -915.669189
v 230.3237 -73.8053589 -889.332031
v 245.634003 107.522026 -986.951904
v 255.852386 73.4738007 -971.759521
v 264.848907 39.3847771 -951.308838
v 269.910614 5.91026878 -927.579468
v 269.419525 -26.2910271 -902.832153
v 263.787811 -56.7656174 -879.750244
v 254.28183 -84.8758926 -859.716797
v 73.0122681 58.4273987 -1030.01831
v 91.6774597 23.694149 -1000.52515
v 58.7084045 31.7601051 -1006.27563
v 114.785431 -10.0138245 -971.144287
v 83.6746521 -3.97542191 -973.659424
v 50.204895 6.42526436 -981.421875
v 141.61441 -40.8346786 -942.555969
v 110.948761 -37.5445023 -942.289917
v 80.0836792 -29.1937218 -947.022034
v 46.7616882 -18.3136368 -955.7453
v 170.995941 -67.1916885 -914.959229
v 140.522125 -67.8918304 -913.202881
v 110.604889 -62.4420624 -914.895935
v 80.0889282 -53.1567078 -920.995911
v 47.1003418 -42.7432327 -930.409851
v 200.914459 -88.050621 -887.54895
v 171.529449 -93.8914719 -885.693115
v 142.304474 -92.5765991 -885.453186
v 112.921173 -85.9384384 -888.596069
v 82.4452209 -76.4844131 -895.909607
v 49.4451904 -66.2531738 -906.653809
v 229.135712 -103.033867 -859.204712
v 202.490814 -114.404213 -857.971741
v 174.786713 -118.449684 -856.95282
v 146.204559 -115.827675 -857.929138
v 116.552948 -108.108833 -862.743652
v 85.1565552 -97.9525223 -872.051514
v 51.8799438 -86.8496933 -884.723755
v 66.2893372 97.612236 -1061.81091
v 42.9388733 68.7420654 -1039.57654
v 38.7142639 104.371101 -1069.66833
v 26.1983643 41.8655663 -1014.62988
v 13.0266113 74.881218 -1044.89221
v 9.45462036 106.842293 -1071.50183
v 17.1976013 15.5257988 -988.595703
v -3.92156982 47.0717888 -1017.59143
v -16.0582275 76.9547958 -1043.62085
v -20.0611572 105.572121 -1065.03564
v 14.0399475 -10.9338684 -962.109497
v -12.3945618 19.2040882 -990.26123
v -31.9689941 48.1783943 -1014.67859
v -43.8161926 75.6281891 -1035.46362
v -48.8460693 101.343239 -1050.95093
v 14.6613464 -37.577774 -936.233215
v -15.2943726 -9.28648758 -963.254517
v -39.755188 18.5800476 -986.804321
v -58.3055115 45.8178902 -1006.23083
v -70.171875 71.5225677 -1021.43689
v -76.7117615 94.8812485 -1031.6637
v 17.2440186 -63.0504684 -911.151062
v -14.8284302 -37.7725449 -936.149048
v -42.7776794 -11.5936317 -958.476746
v -65.6607361 14.9078312 -977.251221
v -83.2316895 41.1306725 -991.832275
v -95.473175 65.8194427 -1002.37476
v -102.829437 88.0521317 -1009.31604
v 70.7150269 132.633209 -1085.08569
v 41.3535156 135.823792 -1090.49084
v 72.880188 162.292267 -1096.8125
v 9.81610107 134.135559 -1087.57324
v 40.6328125 160.464966 -1097.42749
v 69.6798401 186.513702 -1095.59619
v -22.6311646 128.927826 -1074.89758
v 5.9185791 154.312042 -1088.66821
v 34.0248413 179.805542 -1090.60095
v 60.0682373 205.947723 -1082.2041
v -55.7703247 120.957024 -1054.27954
v -30.7661438 145.230896 -1070.05884
v -4.67971802 169.712799 -1076.18774
v 20.7277222 195.517822 -1071.84045
v 44.6515198 221.652344 -1059.19727
v -88.8535461 111.824677 -1028.21387
v -69.0335388 134.505646 -1043.43823
v -45.9711914 157.820831 -1051.81958
v -21.7350159 182.814117 -1051.51404
v 2.4744873 209.104645 -1043.21265
v 26.6609192 234.110992 -1029.35559
v 20.1867981 248.369354 -993.061768
v -9.23321533 224.146637 -1009.27319
v -8.54394531 238.458466 -973.313354
v -36.2150574 196.860291 -1020.35681
v -40.4150391 212.109009 -988.526001
v -33.1403198 225.743774 -953.118896
v -61.5907593 169.98761 -1025.23169
v -68.767334 184.492432 -997.107056
v -65.9617004 199.587372 -967.267639
v -52.4693604 211.486877 -932.359558
v -84.9629822 145.180695 -1022.40198
v -94.1381836 158.226135 -998.526978
v -94.3628235 173.190918 -973.069824
v -85.0241089 187.073151 -944.72821
v -66.1968689 196.591461 -910.739136
v -105.2966 121.768379 -1012.07471
v -116.193085 133.635986 -992.660767
v -119.068451 147.930573 -971.114441
v -112.610413 162.334961 -947.528259
v -97.1706848 173.736725 -920.482239
v -74.3880005 180.34671 -888.367737
v -120.149231 97.5041275 -996.253784
v -133.2276 108.790871 -980.168945
v -138.858246 122.38205 -962.080566
v -135.060974 136.542511 -942.160339
v -122.039825 148.624451 -919.852478
v -101.954773 157.084229 -894.617432
v -77.7535706 161.562164 -865.914368
v -120.291779 69.0409393 -983.299072
v -107.238159 41.853035 -975.345337
v -129.342133 51.2529259 -958.453857
v -89.4589844 14.2579498 -963.866028
v -111.17627 21.1104507 -949.522095
v -130.848938 35.6709557 -933.451294
v -67.3141785 -12.9637451 -948.665283
v -89.1643066 -7.97910309 -936.934082
v -109.125031 4.08381844 -923.351135
v -125.883942 22.4554329 -907.326538
v -39.9215698 -39.541954 -929.787231
v -62.7196655 -35.9860153 -920.938782
v -83.5918579 -25.8540039 -909.670593
v -101.55014 -9.84696198 -895.83844
v -115.725128 11.3834839 -879.839539
v -7.08584595 -65.204834 -906.996338
v -30.5967407 -62.7936172 -900.858643
v -52.7680969 -54.406662 -891.995178
v -72.6697083 -39.935112 -880.371094
v -89.0456238 -20.7989502 -866.309387
v -101.346771 1.74947739 -851.247803
v 30.8904419 -89.5435333 -880.35144
v 8.3225708 -88.1814957 -875.449585
v -14.6123657 -81.395668 -868.576477
v -36.713501 -68.4270477 -859.42981
v -56.1346741 -50.7805099 -847.928589
v -71.8718872 -29.9883728 -835.151611
v -83.4594116 -7.78000259 -822.681274
v 75.06604 -109.71595 -855.466309
v 112.839081 -122.405769 -841.631836
v 97.683197 -126.34626 -827.379272
v 146.496246 -132.384216 -833.615173
v 137.944489 -138.821259 -815.055969
v 118.134796 -136.474274 -801.131836
v 176.928741 -137.299469 -830.735291
v 172.389374 -146.713959 -809.186096
v 158.91684 -147.574066 -791.38855
v 135.228485 -140.051514 -776.958557
v 205.236603 -135.059204 -830.818237
v 202.79715 -147.598663 -807.527893
v 193.15152 -152.015991 -787.222961
v 175.039215 -148.543213 -769.666992
v 148.70932 -136.708893 -754.946472
v 232.174957 -124.594887 -831.541504
v 230.592194 -139.99823 -807.292358
v 223.11972 -148.186096 -785.498474
v 208.26712 -148.732208 -766.135559
v 186.623505 -141.391479 -749.237183
v 159.011627 -126.230949 -735.174805
v 258.197418 -105.486031 -831.529358
v 257.189362 -122.614998 -806.265808
v 250.640106 -134.327393 -783.41925
v 237.688446 -139.131165 -762.866089
v 218.176178 -136.343658 -745.030518
v 194.093109 -125.968483 -729.652344
v 166.356659 -109.596565 -717.295715
v 280.103973 -74.9379349 -840.109924
v 291.77652 -42.547554 -859.202576
v 300.327423 -61.5419846 -818.735168
v 296.77182 -9.72215271 -880.755737
v 311.191132 -26.2215805 -836.747925
v 312.823212 -46.0945129 -796.406677
v 294.162079 23.2484703 -903.065002
v 313.165863 7.86462784 -856.490845
v 320.768463 -8.83641815 -813.13031
v 316.290436 -29.1144562 -774.041382
v 285.141632 56.5023003 -924.661011
v 307.164581 41.4626541 -876.989868
v 319.691803 26.2761021 -831.463074
v 321.427399 9.31038857 -789.932983
v 311.676056 -10.2127304 -753.608154
v 272.348541 90.3684158 -944.093567
v 295.364532 75.3876495 -897.833618
v 311.362335 61.0492783 -851.546448
v 317.990875 45.9320412 -808.050781
v 314.226837 28.9465599 -769.441162
v 300.30246 10.5153179 -736.830017
v 257.87674 125.586067 -959.13678
v 279.309662 111.401123 -917.229797
v 296.792755 97.6691818 -872.589539
v 307.043549 83.3539658 -828.515625
v 308.03299 67.5505447 -788.017029
v 299.666656 50.0549774 -753.126648
v 283.866913 32.4297562 -724.707092
v 237.650543 163.710571 -976.614868
v 216.01651 196.704254 -989.584473
v 235.89444 183.999756 -953.833862
v 192.565826 225.592865 -992.012207
v 210.464325 215.482269 -962.381226
v 229.912811 200.373169 -926.437439
v 164.934601 247.992828 -988.511597
v 181.675323 240.298798 -960.900146
v 200.119354 227.93222 -930.772034
v 218.871979 211.413208 -895.102661
v 132.872589 262.525787 -983.845459
v 148.223663 257.64444 -955.544739
v 165.864532 247.577332 -927.051147
v 184.65921 233.744507 -896.343079
v 202.188202 216.526672 -861.812622
v 97.1100159 268.393097 -981.167358
v 110.38443 266.987274 -950.882812
v 126.754303 259.470673 -921.336853
v 145.401154 247.677277 -891.664795
v 164.223419 233.005585 -860.985779
v 181.066803 216.200226 -828.879028
v 58.7885132 264.757385 -981.504395
v 69.1143188 267.452423 -949.593445
v 83.2548828 263.056213 -917.58136
v 101.02652 253.415375 -886.306091
v 120.700592 240.593719 -855.929749
v 140.256134 226.410309 -826.614807
v 157.339447 211.198822 -798.681641
v 28.4562683 258.0065 -958.157715
v 3.10577393 246.192139 -935.657471
v 40.8473206 258.203033 -922.306091
v -17.0380554 231.124054 -913.926514
v 19.0052185 243.879456 -897.199402
v 57.5444641 251.282196 -886.770691
v -32.2069092 214.228394 -892.314514
v 2.33770752 226.521332 -873.610535
v 38.4864197 234.804047 -858.90332
v 77.6607666 239.869415 -852.544922
v -43.1608276 196.175171 -870.240295
v -10.2995605 207.702728 -850.451843
v 24.14151 216.010468 -832.71283
v 60.8038635 222.492249 -821.795349
v 99.7911072 226.485535 -820.142639
v -50.0327759 175.541718 -847.662048
v -19.8952637 186.867279 -827.261047
v 12.7190247 195.309296 -807.338379
v 47.7276001 202.386627 -792.783264
v 84.4856567 208.385651 -787.004211
v 121.636993 211.889374 -789.637268
v -138.23233 81.3510208 -967.896667
v -145.09436 66.7198105 -941.75946
v -148.21283 95.24366 -950.880005
v -143.140045 53.8601418 -915.799561
v -150.653503 82.4092484 -923.97345
v -148.208588 109.741661 -932.716003
v -134.698517 42.590126 -888.668091
v -144.796204 70.7351837 -896.83728
v -145.730316 97.0932999 -904.906128
v -138.095703 122.859703 -912.640442
v -120.846832 31.7876892 -859.674622
v -132.682434 59.205513 -867.886475
v -135.804443 84.6530457 -875.837036
v -130.806305 108.916748 -883.224487
v -119.2229 132.937592 -889.475098
v -102.243195 20.117218 -828.906921
v -114.742615 46.5865746 -836.081055
v -119.525696 71.1866837 -843.640747
v -116.414398 94.3567581 -850.913269
v -107.131561 116.89814 -857.091003
v -93.8250122 139.366882 -862.051331
v 52.7688599 -109.544319 -849.114319
v 73.0275574 -121.654137 -819.186035
v 28.8219604 -104.071541 -842.679382
v 91.0518494 -126.848457 -791.111572
v 47.2505493 -111.604622 -811.610535
v 4.47262573 -92.7340927 -835.064148
v 106.673737 -125.296959 -765.278564
v 63.881012 -111.881172 -782.445923
v 21.592041 -95.8773575 -803.813232
v -18.6976318 -75.8601074 -825.841858
v 120.186249 -116.920326 -741.685913
v 79.4551392 -105.230232 -755.127686
v 37.9985352 -91.7592697 -773.810669
v -2.03491211 -75.3810349 -794.323425
v -38.9214172 -54.8008499 -814.576721
v 131.698822 -101.525826 -719.955566
v 93.9882507 -91.4176636 -729.022705
v 54.242981 -80.039505 -744.16449
v 14.488678 -66.9476929 -763.007446
v -22.690918 -50.5624771 -782.667542
v -55.5510864 -30.4432907 -802.366821
v 281.02713 -95.2314835 -808.759094
v 296.102936 -81.5437317 -785.82074
v 275.134125 -110.93885 -782.39209
v 302.602264 -65.4595566 -763.444763
v 283.812408 -95.6123047 -759.470764
v 262.379425 -120.318062 -759.839172
v 300.450165 -46.3454819 -742.280396
v 284.291595 -76.9817047 -737.879639
v 264.749054 -102.001747 -737.604309
v 243.222198 -121.993874 -740.257446
v 290.529999 -23.691761 -723.70343
v 276.680634 -53.9666672 -717.816406
v 259.477081 -79.2609406 -716.742615
v 239.804413 -99.4322586 -718.793457
v 218.52829 -115.088448 -723.157471
v 274.18808 2.32720184 -709.061584
v 261.465668 -26.0498085 -700.267212
v 246.120331 -51.1269608 -697.128235
v 228.293732 -71.4504166 -698.017029
v 209.241974 -87.4787064 -701.95697
v 188.969513 -100.198875 -708.338928
v 258.992523 148.352844 -937.214722
v 255.45578 168.000488 -912.624939
v 277.414154 134.189941 -893.776184
v 246.611115 183.314606 -885.097412
v 269.892792 152.693573 -869.379517
v 290.214691 119.672997 -849.513977
v 231.735077 193.242188 -854.69989
v 256.087311 166.202637 -843.268005
v 277.233734 136.254608 -826.388367
v 294.765717 103.604973 -806.800171
v 211.432343 197.647614 -822.511353
v 236.391937 174.265564 -814.411682
v 257.714813 147.238922 -801.812317
v 275.692108 117.399124 -785.041626
v 289.793365 84.9749832 -767.75177
v 186.698578 196.627014 -790.65802
v 211.85202 176.80368 -783.335022
v 233.313263 152.714722 -773.875488
v 251.282318 125.477776 -760.750549
v 265.464691 95.9131165 -746.136597
v 276.039581 64.6979752 -733.334534
v 67.3276978 50.040699 -683.789001
v 84.9057007 70.7434921 -689.589172
v 39.9554749 64.0981293 -704.858704
v 102.055756 94.8396759 -699.221802
v 57.9738159 88.3414154 -710.756287
v 15.4653625 80.3939056 -727.504578
v 117.806976 121.472023 -710.791992
v 74.2860107 115.36882 -717.744873
v 33.4317322 107.382713 -731.332642
v -6.53314209 98.5513687 -750.347656
v 131.201813 148.776337 -724.519836
v 88.3599243 143.339294 -726.319641
v 48.2558289 135.635193 -735.963989
v 10.3509216 127.036354 -752.743713
v -26.6056824 117.153481 -774.745972
v 142.273407 173.9104 -742.910095
v 100.885712 169.614899 -739.45874
v 61.1384583 162.789795 -744.630371
v 23.8677673 154.688477 -758.198425
v -11.0942993 145.640686 -778.675659
v -45.0043335 134.458771 -802.475281
v 150.999908 194.821533 -767.673279
v 112.060883 192.696686 -760.08197
v 73.2833557 186.991333 -760.746033
v 36.0436707 179.858673 -770.503174
v 1.36743164 171.819794 -788.478882
v -31.0144348 161.922913 -810.740601
v -62.0106812 149.359161 -833.495544
v 106.379974 49.1505699 -669.970398
v 143.221405 48.2941589 -664.164124
v 125.910126 72.3845062 -679.707947
v 176.506866 47.0975647 -666.156677
v 162.812164 73.9486771 -678.417419
v 143.731781 97.9789429 -694.603638
v 206.128326 44.9035339 -674.593201
v 195.364594 74.7274017 -684.339783
v 180.007904 100.823334 -698.261658
v 159.105743 125.346153 -712.050293
v 233.181183 41.2175598 -687.884827
v 224.095551 73.4269333 -696.136658
v 211.45694 101.873161 -708.595947
v 193.962006 128.10498 -721.504272
v 171.222931 152.475952 -732.28949
v 259.099762 36.542614 -704.74884
v 250.486908 69.7458954 -712.673828
v 239.323456 100.163765 -724.661987
v 223.989349 128.320557 -737.845459
v 204.411163 154.050842 -748.916687
v 180.417084 176.593475 -757.922485
v 75.7991638 30.848526 -671.991577
v 87.1858826 11.8787117 -666.236694
v 117.791351 27.5456963 -659.727356
v 100.964752 -8.7926178 -667.403259
v 129.800385 5.93656158 -658.026428
v 154.729706 23.2654591 -657.373535
v 116.694672 -32.2123756 -674.792297
v 142.633026 -17.6290665 -663.735596
v 166.091949 -1.95200348 -659.881653
v 186.987213 18.4379921 -662.884338
v 134.009796 -58.0919952 -686.54248
v 157.073212 -43.8683777 -674.81189
v 178.624542 -28.8550873 -669.208191
v 198.296967 -10.5149956 -668.650146
v 216.298737 12.8873196 -674.074585
v 150.964935 -84.658638 -700.999939
v 173.516388 -72.0119247 -690.118835
v 193.295441 -57.6336517 -683.275269
v 212.306366 -40.6859665 -680.643677
v 229.448212 -19.0425873 -682.170349
v 245.087921 7.07411194 -689.460876
v 32.9633789 39.8126259 -695.181824
v 1.51574707 30.6244926 -711.040649
v 42.0651245 18.9296665 -685.148987
v -25.2757263 22.3341141 -730.328674
v 13.4151611 7.66365623 -703.340027
v 55.9483643 -1.56885719 -681.636536
v -46.8147583 14.6598301 -751.866699
v -9.95620728 -2.98141098 -725.184082
v 30.4559631 -14.8435555 -702.256714
v 73.0584717 -23.5508041 -684.705627
v -63.2567749 7.38903999 -774.72522
v -28.6729431 -12.9165878 -749.411255
v 9.73587036 -27.6725082 -726.737488
v 50.6029358 -38.5392838 -707.150452
v 92.3851013 -47.9592056 -693.18988
v -75.2647705 0.0193462372 -798.343018
v -43.7151489 -22.0567207 -775.103271
v -7.72555542 -39.7099762 -753.596497
v 31.5302124 -53.1521835 -733.44696
v 72.1255493 -64.14151 -716.458496
v 112.271332 -74.5160294 -705.191589
v 2.67660522 54.8106079 -720.293823
v -21.9367676 71.9201202 -745.90094
v -29.4501953 47.5313568 -738.753906
v -42.4833679 90.1985855 -771.828003
v -53.136322 65.6811295 -766.351562
v -55.8594055 41.268528 -759.2146
v -60.604126 108.169868 -799.346802
v -72.3919983 83.9453812 -794.539612
v -78.8451843 60.2920914 -788.015564
v -76.6468506 35.334259 -780.919128
v -77.5535583 124.714806 -829.423645
v -90.0489197 101.18145 -824.441284
v -98.0957031 78.2709351 -818.110107
v -99.4608765 54.5439377 -810.940247
v -91.8746643 28.722847 -804.099976
g 
f 3 1 2
f 5 2 4
f 6 3 5
f 8 4 7
f 9 5 8
f 10 6 9
f 12 7 11
f 13 8 12
f 14 9 13
f 15 10 14
f 17 11 16
f 18 12 17
f 19 13 18
f 20 14 19
f 21 15 20
f 23 16 22
f 24 17 23
f 25 18 24
f 26 19 25
f 27 20 26
f 28 21 27
f 30 22 29
f 31 23 30
f 32 24 31
f 33 25 32
f 34 26 33
f 35 27 34
f 36 28 35
f 3 2 5
f 5 4 8
f 6 5 9
f 8 7 12
f 9 8 13
f 10 9 14
f 12 11 17
f 13 12 18
f 14 13 19
f 15 14 20
f 17 16 23
f 18 17 24
f 19 18 25
f 20 19 26
f 21 20 27
f 23 22 30
f 24 23 31
f 25 24 32
f 26 25 33
f 27 26 34
f 28 27 35
f 37 1 3
f 38 3 6
f 39 37 38
f 40 6 10
f 41 38 40
f 42 39 41
f 43 10 15
f 44 40 43
f 45 41 44
f 46 42 45
f 47 15 21
f 48 43 47
f 49 44 48
f 50 45 49
f 51 46 50
f 52 21 28
f 53 47 52
f 54 48 53
f 55 49 54
f 56 50 55
f 57 51 56
f 58 28 36
f 59 52 58
f 60 53 59
f 61 54 60
f 62 55 61
f 63 56 62
f 64 57 63
f 37 3 38
f 38 6 40
f 39 38 41
f 40 10 43
f 41 40 44
f 42 41 45
f 43 15 47
f 44 43 48
f 45 44 49
f 46 45 50
f 47 21 52
f 48 47 53
f 49 48 54
f 50 49 55
f 51 50 56
f 52 28 58
f 53 52 59
f 54 53 60
f 55 54 61
f 56 55 62
f 57 56 63
f 65 1 37
f 66 37 39
f 67 65 66
f 68 39 42
f 69 66 68
f 70 67 69
f 71 42 46
f 72 68 71
f 73 69 72
f 74 70 73
f 75 46 51
f 76 71 75
f 77 72 76
f 78 73 77
f 79 74 78
f 80 51 57
f 81 75 80
f 82 76 81
f 83 77 82
f 84 78 83
f 85 79 84
f 86 57 64
f 87 80 86
f 88 81 87
f 89 82 88
f 90 83 89
f 91 84 90
f 92 85 91
f 65 37 66
f 66 39 68
f 67 66 69
f 68 42 71
f 69 68 72
f 70 69 73
f 71 46 75
f 72 71 76
f 73 72 77
f 74 73 78
f 75 51 80
f 76 75 81
f 77 76 82
f 78 77 83
f 79 78 84
f 80 57 86
f 81 80 87
f 82 81 88
f 83 82 89
f 84 83 90
f 85 84 91
f 93 1 65
f 94 65 67
f 95 93 94
f 96 67 70
f 97 94 96
f 98 95 97
f 99 70 74
f 100 96 99
f 101 97 100
f 102 98 101
f 103 74 79
f 104 99 103
f 105 100 104
f 106 101 105
f 107 102 106
f 108 79 85
f 109 103 108
f 110 104 109
f 111 105 110
f 112 106 111
f 113 107 112
f 114 85 92
f 115 108 114
f 116 109 115
f 117 110 116
f 118 111 117
f 119 112 118
f 120 113 119
f 93 65 94
f 94 67 96
f 95 94 97
f 96 70 99
f 97 96 100
f 98 97 101
f 99 74 103
f 100 99 104
f 101 100 105
f 102 101 106
f 103 79 108
f 104 103 109
f 105 104 110
f 106 105 111
f 107 106 112
f 108 85 114
f 109 108 115
f 110 109 116
f 111 110 117
f 112 111 118
f 113 112 119
f 2 1 93
f 121 93 95
f 4 2 121
f 122 95 98
f 123 121 122
f 7 4 123
f 124 98 102
f 125 122 124
f 126 123 125
f 11 7 126
f 127 102 107
f 128 124 127
f 129 125 128
f 130 126 129
f 16 11 130
f 131 107 113
f 132 127 131
f 133 128 132
f 134 129 133
f 135 130 134
f 22 16 135
f 136 113 120
f 137 131 136
f 138 132 137
f 139 133 138
f 140 134 139
f 141 135 140
f 29 22 141
f 2 93 121
f 121 95 122
f 4 121 123
f 122 98 124
f 123 122 125
f 7 123 126
f 124 102 127
f 125 124 128
f 126 125 129
f 11 126 130
f 127 107 131
f 128 127 132
f 129 128 133
f 130 129 134
f 16 130 135
f 131 113 136
f 132 131 137
f 133 132 138
f 134 133 139
f 135 134 140
f 22 135 141
f 142 29 141
f 143 141 140
f 144 142 143
f 145 140 139
f 146 143 145
f 147 144 146
f 148 139 138
f 149 145 148
f 150 146 149
f 151 147 150
f 152 138 137
f 153 148 152
f 154 149 153
f 155 150 154
f 156 151 155
f 157 137 136
f 158 152 157
f 159 153 158
f 160 154 159
f 161 155 160
f 162 156 161
f 163 136 120
f 164 157 163
f 165 158 164
f 166 159 165
f 167 160 166
f 168 161 167
f 169 162 168
f 142 141 143
f 143 140 145
f 144 143 146
f 145 139 148
f 146 145 149
f 147 146 150
f 148 138 152
f 149 148 153
f 150 149 154
f 151 150 155
f 152 137 157
f 153 152 158
f 154 153 159
f 155 154 160
f 156 155 161
f 157 136 163
f 158 157 164
f 159 158 165
f 160 159 166
f 161 160 167
f 162 161 168
f 170 120 119
f 171 119 118
f 172 170 171
f 173 118 117
f 174 171 173
f 175 172 174
f 176 117 116
f 177 173 176
f 178 174 177
f 179 175 178
f 180 116 115
f 181 176 180
f 182 177 181
f 183 178 182
f 184 179 183
f 185 115 114
f 186 180 185
f 187 181 186
f 188 182 187
f 189 183 188
f 190 184 189
f 191 114 92
f 192 185 191
f 193 186 192
f 194 187 193
f 195 188 194
f 196 189 195
f 197 190 196
f 170 119 171
f 171 118 173
f 172 171 174
f 173 117 176
f 174 173 177
f 175 174 178
f 176 116 180
f 177 176 181
f 178 177 182
f 179 178 183
f 180 115 185
f 181 180 186
f 182 181 187
f 183 182 188
f 184 183 189
f 185 114 191
f 186 185 192
f 187 186 193
f 188 187 194
f 189 188 195
f 190 189 196
f 198 92 91
f 199 91 90
f 200 198 199
f 201 90 89
f 202 199 201
f 203 200 202
f 204 89 88
f 205 201 204
f 206 202 205
f 207 203 206
f 208 88 87
f 209 204 208
f 210 205 209
f 211 206 210
f 212 207 211
f 213 87 86
f 214 208 213
f 215 209 214
f 216 210 215
f 217 211 216
f 218 212 217
f 219 86 64
f 220 213 219
f 221 214 220
f 222 215 221
f 223 216 222
f 224 217 223
f 225 218 224
f 198 91 199
f 199 90 201
f 200 199 202
f 201 89 204
f 202 201 205
f 203 202 206
f 204 88 208
f 205 204 209
f 206 205 210
f 207 206 211
f 208 87 213
f 209 208 214
f 210 209 215
f 211 210 216
f 212 211 217
f 213 86 219
f 214 213 220
f 215 214 221
f 216 215 222
f 217 216 223
f 218 217 224
f 226 64 63
f 227 63 62
f 228 226 227
f 229 62 61
f 230 227 229
f 231 228 230
f 232 61 60
f 233 229 232
f 234 230 233
f 235 231 234
f 236 60 59
f 237 232 236
f 238 233 237
f 239 234 238
f 240 235 239
f 241 59 58
f 242 236 241
f 243 237 242
f 244 238 243
f 245 239 244
f 246 240 245
f 247 58 36
f 248 241 247
f 249 242 248
f 250 243 249
f 251 244 250
f 252 245 251
f 253 246 252
f 226 63 227
f 227 62 229
f 228 227 230
f 229 61 232
f 230 229 233
f 231 230 234
f 232 60 236
f 233 232 237
f 234 233 238
f 235 234 239
f 236 59 241
f 237 236 242
f 238 237 243
f 239 238 244
f 240 239 245
f 241 58 247
f 242 241 248
f 243 242 249
f 244 243 250
f 245 244 251
f 246 245 252
f 254 36 35
f 255 35 34
f 256 254 255
f 257 34 33
f 258 255 257
f 259 256 258
f 260 33 32
f 261 257 260
f 262 258 261
f 263 259 262
f 264 32 31
f 265 260 264
f 266 261 265
f 267 262 266
f 268 263 267
f 269 31 30
f 270 264 269
f 271 265 270
f 272 266 271
f 273 267 272
f 274 268 273
f 275 30 29
f 276 269 275
f 277 270 276
f 278 271 277
f 279 272 278
f 280 273 279
f 281 274 280
f 254 35 255
f 255 34 257
f 256 255 258
f 257 33 260
f 258 257 261
f 259 258 262
f 260 32 264
f 261 260 265
f 262 261 266
f 263 262 267
f 264 31 269
f 265 264 270
f 266 265 271
f 267 266 272
f 268 267 273
f 269 30 275
f 270 269 276
f 271 270 277
f 272 271 278
f 273 272 279
f 274 273 280
f 275 29 142
f 282 142 144
f 276 275 282
f 283 144 147
f 284 282 283
f 277 276 284
f 285 147 151
f 286 283 285
f 287 284 286
f 278 277 287
f 288 151 156
f 289 285 288
f 290 286 289
f 291 287 290
f 279 278 291
f 292 156 162
f 293 288 292
f 294 289 293
f 295 290 294
f 296 291 295
f 280 279 296
f 297 162 169
f 298 292 297
f 299 293 298
f 300 294 299
f 301 295 300
f 302 296 301
f 281 280 302
f 275 142 282
f 282 144 283
f 276 282 284
f 283 147 285
f 284 283 286
f 277 284 287
f 285 151 288
f 286 285 289
f 287 286 290
f 278 287 291
f 288 156 292
f 289 288 293
f 290 289 294
f 291 290 295
f 279 291 296
f 292 162 297
f 293 292 298
f 294 293 299
f 295 294 300
f 296 295 301
f 280 296 302
f 163 120 170
f 303 170 172
f 164 163 303
f 304 172 175
f 305 303 304
f 165 164 305
f 306 175 179
f 307 304 306
f 308 305 307
f 166 165 308
f 309 179 184
f 310 306 309
f 311 307 310
f 312 308 311
f 167 166 312
f 313 184 190
f 314 309 313
f 315 310 314
f 316 311 315
f 317 312 316
f 168 167 317
f 318 190 197
f 319 313 318
f 320 314 319
f 321 315 320
f 322 316 321
f 323 317 322
f 169 168 323
f 163 170 303
f 303 172 304
f 164 303 305
f 304 175 306
f 305 304 307
f 165 305 308
f 306 179 309
f 307 306 310
f 308 307 311
f 166 308 312
f 309 184 313
f 310 309 314
f 311 310 315
f 312 311 316
f 167 312 317
f 313 190 318
f 314 313 319
f 315 314 320
f 316 315 321
f 317 316 322
f 168 317 323
f 191 92 198
f 324 198 200
f 192 191 324
f 325 200 203
f 326 324 325
f 193 192 326
f 327 203 207
f 328 325 327
f 329 326 328
f 194 193 329
f 330 207 212
f 331 327 330
f 332 328 331
f 333 329 332
f 195 194 333
f 334 212 218
f 335 330 334
f 336 331 335
f 337 332 336
f 338 333 337
f 196 195 338
f 339 218 225
f 340 334 339
f 341 335 340
f 342 336 341
f 343 337 342
f 344 338 343
f 197 196 344
f 191 198 324
f 324 200 325
f 192 324 326
f 325 203 327
f 326 325 328
f 193 326 329
f 327 207 330
f 328 327 331
f 329 328 332
f 194 329 333
f 330 212 334
f 331 330 335
f 332 331 336
f 333 332 337
f 195 333 338
f 334 218 339
f 335 334 340
f 336 335 341
f 337 336 342
f 338 337 343
f 196 338 344
f 219 64 226
f 345 226 228
f 220 219 345
f 346 228 231
f 347 345 346
f 221 220 347
f 348 231 235
f 349 346 348
f 350 347 349
f 222 221 350
f 351 235 240
f 352 348 351
f 353 349 352
f 354 350 353
f 223 222 354
f 355 240 246
f 356 351 355
f 357 352 356
f 358 353 357
f 359 354 358
f 224 223 359
f 360 246 253
f 361 355 360
f 362 356 361
f 363 357 362
f 364 358 363
f 365 359 364
f 225 224 365
f 219 226 345
f 345 228 346
f 220 345 347
f 346 231 348
f 347 346 349
f 221 347 350
f 348 235 351
f 349 348 352
f 350 349 353
f 222 350 354
f 351 240 355
f 352 351 356
f 353 352 357
f 354 353 358
f 223 354 359
f 355 246 360
f 356 355 361
f 357 356 362
f 358 357 363
f 359 358 364
f 224 359 365
f 247 36 254
f 366 254 256
f 248 247 366
f 367 256 259
f 368 366 367
f 249 248 368
f 369 259 263
f 370 367 369
f 371 368 370
f 250 249 371
f 372 263 268
f 373 369 372
f 374 370 373
f 375 371 374
f 251 250 375
f 376 268 274
f 377 372 376
f 378 373 377
f 379 374 378
f 380 375 379
f 252 251 380
f 381 274 281
f 382 376 381
f 383 377 382
f 384 378 383
f 385 379 384
f 386 380 385
f 253 252 386
f 247 254 366
f 366 256 367
f 248 366 368
f 367 259 369
f 368 367 370
f 249 368 371
f 369 263 372
f 370 369 373
f 371 370 374
f 250 371 375
f 372 268 376
f 373 372 377
f 374 373 378
f 375 374 379
f 251 375 380
f 376 274 381
f 377 376 382
f 378 377 383
f 379 378 384
f 380 379 385
f 252 380 386
f 389 387 388
f 391 388 390
f 392 389 391
f 394 390 393
f 395 391 394
f 396 392 395
f 398 393 397
f 399 394 398
f 400 395 399
f 401 396 400
f 403 397 402
f 404 398 403
f 405 399 404
f 406 400 405
f 407 401 406
f 409 402 408
f 410 403 409
f 411 404 410
f 412 405 411
f 413 406 412
f 414 407 413
f 302 408 281
f 301 409 302
f 300 410 301
f 299 411 300
f 298 412 299
f 297 413 298
f 169 414 297
f 389 388 391
f 391 390 394
f 392 391 395
f 394 393 398
f 395 394 399
f 396 395 400
f 398 397 403
f 399 398 404
f 400 399 405
f 401 400 406
f 403 402 409
f 404 403 410
f 405 404 411
f 406 405 412
f 407 406 413
f 409 408 302
f 410 409 301
f 411 410 300
f 412 411 299
f 413 412 298
f 414 413 297
f 388 387 415
f 417 415 416
f 390 388 417
f 419 416 418
f 420 417 419
f 393 390 420
f 422 418 421
f 423 419 422
f 424 420 423
f 397 393 424
f 426 421 425
f 427 422 426
f 428 423 427
f 429 424 428
f 402 397 429
f 431 425 430
f 432 426 431
f 433 427 432
f 434 428 433
f 435 429 434
f 408 402 435
f 386 430 253
f 385 431 386
f 384 432 385
f 383 433 384
f 382 434 383
f 381 435 382
f 281 408 381
f 388 415 417
f 417 416 419
f 390 417 420
f 419 418 422
f 420 419 423
f 393 420 424
f 422 421 426
f 423 422 427
f 424 423 428
f 397 424 429
f 426 425 431
f 427 426 432
f 428 427 433
f 429 428 434
f 402 429 435
f 431 430 386
f 432 431 385
f 433 432 384
f 434 433 383
f 435 434 382
f 408 435 381
f 415 387 436
f 438 436 437
f 416 415 438
f 440 437 439
f 441 438 440
f 418 416 441
f 443 439 442
f 444 440 443
f 445 441 444
f 421 418 445
f 447 442 446
f 448 443 447
f 449 444 448
f 450 445 449
f 425 421 450
f 452 446 451
f 453 447 452
f 454 448 453
f 455 449 454
f 456 450 455
f 430 425 456
f 365 451 225
f 364 452 365
f 363 453 364
f 362 454 363
f 361 455 362
f 360 456 361
f 253 430 360
f 415 436 438
f 438 437 440
f 416 438 441
f 440 439 443
f 441 440 444
f 418 441 445
f 443 442 447
f 444 443 448
f 445 444 449
f 421 445 450
f 447 446 452
f 448 447 453
f 449 448 454
f 450 449 455
f 425 450 456
f 452 451 365
f 453 452 364
f 454 453 363
f 455 454 362
f 456 455 361
f 430 456 360
f 436 387 457
f 459 457 458
f 437 436 459
f 461 458 460
f 462 459 461
f 439 437 462
f 464 460 463
f 465 461 464
f 466 462 465
f 442 439 466
f 468 463 467
f 469 464 468
f 470 465 469
f 471 466 470
f 446 442 471
f 473 467 472
f 474 468 473
f 475 469 474
f 476 470 475
f 477 471 476
f 451 446 477
f 344 472 197
f 343 473 344
f 342 474 343
f 341 475 342
f 340 476 341
f 339 477 340
f 225 451 339
f 436 457 459
f 459 458 461
f 437 459 462
f 461 460 464
f 462 461 465
f 439 462 466
f 464 463 468
f 465 464 469
f 466 465 470
f 442 466 471
f 468 467 473
f 469 468 474
f 470 469 475
f 471 470 476
f 446 471 477
f 473 472 344
f 474 473 343
f 475 474 342
f 476 475 341
f 477 476 340
f 451 477 339
f 457 387 389
f 478 389 392
f 458 457 478
f 479 392 396
f 480 478 479
f 460 458 480
f 481 396 401
f 482 479 481
f 483 480 482
f 463 460 483
f 484 401 407
f 485 481 484
f 486 482 485
f 487 483 486
f 467 463 487
f 488 407 414
f 489 484 488
f 490 485 489
f 491 486 490
f 492 487 491
f 472 467 492
f 323 414 169
f 322 488 323
f 321 489 322
f 320 490 321
f 319 491 320
f 318 492 319
f 197 472 318
f 457 389 478
f 478 392 479
f 458 478 480
f 479 396 481
f 480 479 482
f 460 480 483
f 481 401 484
f 482 481 485
f 483 482 486
f 463 483 487
f 484 407 488
f 485 484 489
f 486 485 490
f 487 486 491
f 467 487 492
f 488 414 323
f 489 488 322
f 490 489 321
f 491 490 320
f 492 491 319
f 472 492 318
