# File exported by Houdini 20.5.445 (www.sidefx.com)
# 492 points
# 2940 vertices
# 980 primitives
# Bounds: [-146.01445, -123.731194, -1112.979] to [316.788361, 240.108307, -641.822083]
g 
v 98.2909546 56.5033226 -1078.71094
v 90.9782715 85.6448517 -1097.05811
v 121.144379 71.5483246 -1081.47681
v 84.9852295 113.972023 -1107.93506
v 113.493134 101.72242 -1096.53125
v 142.836456 86.5175171 -1078.55884
v 79.2229004 140.539154 -1108.72583
v 106.80011 129.090393 -1101.43701
v 134.080933 116.610161 -1088.76514
v 163.290192 99.2936172 -1069.52637
v 73.8162231 164.105103 -1099.40527
v 101.339111 153.520325 -1096.24951
v 127.43689 142.808563 -1088.7373
v 154.294739 128.569336 -1074.99023
v 183.041718 108.719582 -1054.84302
v 69.5850525 183.669434 -1082.04883
v 97.9916687 174.57489 -1082.47913
v 123.968536 165.431519 -1079.60413
v 149.505554 153.721436 -1071.6228
v 175.653351 136.769623 -1056.90063
v 203.000641 114.544914 -1036.05566
v 66.3450623 199.117523 -1059.17725
v 96.302887 191.674103 -1061.38794
v 123.460999 184.153076 -1061.70288
v 149.087158 174.705353 -1058.81567
v 173.977875 160.65274 -1050.16858
v 198.589325 140.921753 -1034.68726
v 223.077057 116.22126 -1013.75598
v 63.3751831 211.245819 -1032.90259
v 94.6195679 205.246368 -1034.30688
v 123.915985 199.210846 -1035.3125
v 151.198853 191.396973 -1035.16235
v 176.525543 179.973419 -1031.802
v 199.806793 162.808319 -1022.62744
v 221.266937 139.975037 -1007.01886
v 241.686127 114.406715 -987.603821
v 122.753693 36.6598511 -1060.21692
v 148.477356 53.1402359 -1061.2771
v 149.706726 17.486208 -1041.47363
v 171.54837 67.7180176 -1056.80127
v 176.341095 35.050148 -1040.72412
v 177.72818 -1.6139698 -1023.36237
v 192.425934 79.2625122 -1046.64087
v 199.32547 49.4548912 -1034.87817
v 204.002167 17.0768509 -1020.55035
v 205.817352 -19.7330742 -1004.88049
v 212.092804 87.2230225 -1030.99194
v 220.012726 60.2770576 -1023.43286
v 226.667023 31.5543327 -1012.69171
v 231.263092 -0.267482758 -999.64563
v 231.998871 -35.6232376 -984.098267
v 231.623016 91.1256866 -1010.31628
v 239.973602 67.0581894 -1005.91785
v 247.553009 41.6416397 -998.787231
v 253.7117 13.7460756 -988.827515
v 256.522369 -16.6619377 -976.070435
v 253.765594 -48.7787247 -959.774475
v 251.174896 91.0332031 -984.472107
v 260.267059 68.9588318 -981.252136
v 268.390961 46.5696487 -977.118164
v 275.024811 22.1109161 -970.356201
v 278.370026 -4.42379379 -960.557312
v 276.777679 -32.1772957 -947.669189
v 268.939362 -60.0967331 -932.09259
v 89.6316528 29.5214062 -1060.63013
v 117.764099 4.50090981 -1041.04639
v 82.9565125 2.93302536 -1041.12744
v 147.524475 -18.4111862 -1023.78204
v 114.880066 -26.2423286 -1023.53003
v 78.7476501 -21.8183289 -1022.5545
v 177.518707 -39.2620621 -1006.8869
v 146.791504 -51.2253647 -1007.7923
v 113.024017 -53.0086136 -1007.11206
v 75.3964844 -41.6008072 -1004.23468
v 205.773651 -56.7840805 -987.303345
v 176.786041 -71.6273117 -989.748657
v 144.856934 -77.5503159 -990.641418
v 109.702148 -72.3759079 -989.125916
v 71.1100769 -54.0576706 -984.389587
v 230.311737 -70.1867752 -962.880188
v 203.432098 -86.9220505 -966.126465
v 173.246735 -95.9352036 -968.779114
v 139.86026 -95.0035477 -969.577332
v 103.638824 -82.8729782 -967.406433
v 65.4955139 -59.397438 -961.420837
v 248.829498 -80.2200241 -933.135864
v 224.615753 -97.2771072 -934.936707
v 196.4758 -108.252403 -937.943848
v 164.749054 -110.489616 -940.865234
v 130.266052 -102.658806 -941.905029
v 94.4783325 -85.030571 -939.735291
v 58.9721985 -59.3436508 -934.082092
v 70.2642822 63.0497017 -1084.87793
v 57.8832397 37.6671448 -1063.93579
v 43.5758057 75.5093536 -1088.13232
v 49.1343994 14.6384792 -1041.78906
v 29.2242737 53.0787354 -1064.69214
v 18.3374939 93.9140396 -1088.31506
v 43.6334534 -4.97683716 -1020.17767
v 19.6307983 33.8803253 -1040.17639
v 3.42819214 74.5465546 -1062.87231
v -5.62680054 115.907616 -1084.46704
v 38.7900391 -18.8586731 -997.824219
v 13.132019 18.8883801 -1014.89514
v -6.5062561 58.4425468 -1035.67029
v -20.0539551 98.6715317 -1057.10864
v -28.3874817 137.280457 -1074.97876
v 33.771698 -26.6279831 -973.229065
v 6.94854736 9.24716187 -987.21759
v -14.4099731 46.9410477 -1005.55646
v -30.6021729 85.0067749 -1025.97168
v -42.1300049 121.539177 -1045.01184
v -49.9505615 154.684448 -1058.51196
v 28.9683533 -29.3849182 -944.220154
v 1.45742798 4.22058678 -955.159668
v -21.7726746 39.964962 -970.040161
v -40.0536804 75.9826202 -988.634277
v -53.8873901 110.374184 -1008.03693
v -63.8820496 141.567932 -1024.34668
v -70.4775085 168.679504 -1034.97559
v 63.2655945 96.1039505 -1103.90283
v 37.5908813 111.940056 -1106.31592
v 57.794342 126.819847 -1112.979
v 12.7314453 131.833801 -1103.91992
v 32.2310791 143.841095 -1112.31421
v 51.9408875 154.215485 -1110.35498
v -12.1253967 152.669403 -1095.48157
v 6.35971069 163.029144 -1105.4436
v 25.3878479 170.749878 -1105.41309
v 45.4866333 177.328461 -1096.72998
v -36.9968262 170.658813 -1079.54346
v -20.6678772 181.46051 -1091.0459
v -2.51049805 188.281891 -1093.16504
v 17.0195618 192.723785 -1086.88245
v 39.4819641 196.041962 -1074.92212
v -61.3775024 184.412903 -1055.15527
v -48.5811157 196.747742 -1067.7085
v -32.4531555 204.818115 -1072.04895
v -13.6005859 209.139801 -1068.5249
v 8.57720947 210.752655 -1059.64636
v 34.4299316 211.065674 -1047.36157
v 40.2030945 221.654755 -1014.34589
v 6.95016479 223.50885 -1027.56763
v 14.4922791 230.763855 -994.498596
v -21.0222778 224.162231 -1037.34204
v -20.815918 232.947937 -1005.43323
v -11.958313 237.116943 -972.215149
v -43.5935669 221.887665 -1043.2146
v -48.8846741 232.456055 -1011.90765
v -47.2141113 238.145264 -979.642273
v -36.1670227 239.955933 -946.284851
v -61.5244751 215.477142 -1043.44702
v -70.5064697 227.819336 -1014.12805
v -74.123291 235.505951 -982.246399
v -70.3426819 239.485748 -949.575684
v -57.4653015 240.108307 -916.501587
v -75.5632324 204.541046 -1035.65857
v -87.2019653 218.844391 -1009.86548
v -94.7080383 228.84845 -980.013
v -96.5377808 235.352539 -947.858215
v -90.4190674 238.49939 -915.525574
v -76.151886 237.777435 -883.77478
v -85.8822327 189.591644 -1019.0415
v -99.9085999 205.892517 -996.59491
v -110.815628 218.182861 -969.40332
v -116.964996 226.919891 -939.378906
v -116.307465 232.339111 -908.487061
v -107.788483 234.156738 -878.297485
v -92.1473694 232.050842 -849.959412
v -86.3200378 165.766174 -1000.80176
v -77.1483459 136.391846 -985.656738
v -98.8982849 161.506042 -961.884094
v -64.1609192 103.729851 -966.856567
v -85.7590637 130.05423 -944.434265
v -107.339386 154.910645 -920.230652
v -46.7728577 68.714798 -947.864807
v -68.686615 95.8988266 -925.524048
v -89.9036865 121.438255 -902.508545
v -111.662888 145.222229 -877.838562
v -24.6038513 32.3774109 -931.494995
v -47.4483643 59.5973282 -908.091553
v -68.9203491 85.7409058 -884.766174
v -90.4347839 110.002388 -860.945496
v -112.054947 132.361847 -836.351013
v 2.37918091 -3.94566727 -919.403198
v -21.6895447 21.9057331 -893.888428
v -44.3912048 47.970314 -868.826599
v -66.3517456 72.8165436 -844.26947
v -88.0326233 95.7357407 -820.171509
v -108.551697 116.82473 -796.980835
v 33.7022095 -38.8269882 -909.610229
v 9.10922241 -15.9962997 -882.73407
v -15.2579651 8.62971306 -855.179443
v -38.8712158 33.456543 -828.348572
v -61.482666 57.2191696 -803.188965
v -82.7442322 79.3890839 -780.302917
v -101.440201 100.22683 -760.584412
v 72.9579163 -73.5923538 -906.761902
v 111.060791 -98.8041763 -909.328064
v 83.625 -84.791954 -874.87085
v 147.179718 -114.289009 -908.185425
v 121.674957 -108.666115 -874.677551
v 88.6625977 -92.3063278 -839.039978
v 180.800873 -119.452782 -904.97998
v 156.672638 -121.532555 -871.876892
v 126.061951 -113.873833 -837.786926
v 89.3825073 -94.7858505 -801.774231
v 211.595673 -114.740181 -901.913818
v 189.387665 -123.731194 -868.899414
v 160.505157 -123.339836 -835.588135
v 126.525024 -112.221306 -801.479919
v 88.8540039 -90.7727737 -766.407288
v 239.262054 -101.748848 -901.132324
v 220.075775 -116.210335 -868.213257
v 193.392365 -121.74691 -834.972229
v 161.389618 -116.869057 -801.66217
v 126.413269 -102.308266 -768.52948
v 89.8622131 -79.4930038 -735.764648
v 263.588165 -82.4285049 -902.623291
v 248.515961 -100.088051 -870.948486
v 225.069183 -109.8545 -837.824646
v 195.562408 -109.833809 -804.520142
v 162.637421 -100.346794 -771.970398
v 128.306641 -83.4924393 -740.712769
v 94.1809387 -61.7242203 -711.445801
v 284.001984 -54.4912872 -913.011292
v 293.73941 -25.6518288 -927.458557
v 293.333099 -48.4348907 -892.601257
v 295.992462 1.22179413 -938.305054
v 304.268402 -19.5770912 -905.282776
v 297.133636 -39.3714218 -870.322327
v 292.811615 25.9913769 -945.770569
v 307.156525 6.66801453 -913.676147
v 309.215729 -11.1397934 -880.774963
v 297.47702 -25.6902924 -846.350159
v 285.950958 49.0829926 -950.094543
v 304.196381 30.9312935 -918.895203
v 313.284149 14.8946495 -886.688599
v 311.185883 1.56115532 -854.276611
v 296.505951 -6.70159531 -821.221313
v 276.131989 71.930069 -953.191528
v 296.711823 54.6933594 -921.876221
v 310.963043 39.8094254 -889.783142
v 316.782501 27.6825924 -857.373352
v 311.46286 19.4720592 -825.942627
v 294.248505 16.7464333 -795.257874
v 263.841827 96.7418594 -956.808472
v 284.33139 80.2283173 -924.844177
v 302.07431 65.7928772 -891.980957
v 313.894989 54.2092514 -858.370544
v 316.788361 46.2392883 -825.765198
v 308.364838 42.5010033 -796.049927
v 288.884552 42.9745979 -769.067322
v 245.218048 127.455406 -970.04541
v 224.48941 155.486816 -987.963562
v 246.020905 139.984894 -948.314697
v 202.593353 178.073303 -999.375366
v 223.894989 168.384247 -963.567749
v 243.653229 151.893555 -922.998413
v 177.735016 193.755554 -1004.14252
v 199.932587 189.953827 -971.615479
v 218.480072 180.044312 -936.118042
v 236.601166 164.045898 -896.413635
v 149.343719 204.036194 -1005.12988
v 171.815277 204.384491 -974.317261
v 190.508636 200.318939 -942.226135
v 207.153351 190.824432 -908.046875
v 223.292267 176.187714 -870.514282
v 117.24527 211.100891 -1005.14905
v 138.648407 213.917328 -975.177856
v 157.202484 213.584381 -944.434814
v 173.472565 209.269806 -913.206543
v 188.585602 200.185822 -881.082458
v 202.478668 187.684448 -846.627869
v 81.1141663 217.135376 -1005.59039
v 99.5661621 221.120331 -976.707642
v 117.081451 222.978058 -946.480957
v 132.279816 221.38913 -916.26001
v 147.286072 216.081635 -886.168213
v 161.58609 207.461517 -856.143982
v 174.585907 197.298798 -825.241211
v 56.3381653 226.595123 -983.804565
v 29.4462585 233.701874 -962.264099
v 72.2736511 229.110138 -952.987549
v 3.60021973 237.71756 -938.867004
v 44.8547974 234.081665 -930.156616
v 87.6242371 229.115173 -921.640381
v -20.0977173 238.537689 -911.840759
v 19.2392578 235.566681 -905.412964
v 60.2866821 231.577972 -897.513733
v 103.092407 225.694061 -890.239929
v -41.9797668 236.876831 -880.362305
v -4.82644653 234.323914 -876.452271
v 34.6784668 230.83194 -870.806824
v 76.1177368 226.062927 -864.223145
v 118.804993 218.825043 -858.689331
v -61.7474976 231.693268 -844.968506
v -27.0691528 229.629089 -841.666931
v 10.8345642 226.658295 -838.131409
v 51.1452942 222.884247 -833.612366
v 92.8760376 217.555969 -828.943054
v 134.641479 209.461853 -825.761292
v -104.26796 187.088379 -979.737488
v -117.779251 182.495819 -937.382996
v -119.076202 202.804047 -953.734131
v -126.402328 174.821442 -893.722107
v -132.222153 197.174896 -909.451721
v -129.390762 214.18573 -924.708801
v -130.185455 163.402405 -850.077026
v -139.75296 188.052002 -864.782776
v -141.00676 207.31073 -879.548584
v -133.592697 221.882355 -894.220337
v -128.794693 148.136566 -807.375854
v -141.446991 174.633972 -820.222473
v -146.01445 196.409119 -834.180786
v -142.180359 213.404419 -848.814209
v -129.437592 225.819275 -863.799072
v -121.763321 129.81958 -766.415344
v -136.388947 156.876923 -776.090576
v -143.631973 180.514648 -788.45575
v -142.633072 199.994568 -802.67865
v -133.175858 214.810944 -818.179932
v -115.827057 225.239685 -833.955872
v 45.1864014 -52.5387573 -876.982849
v 51.7120056 -62.084938 -841.296814
v 17.752594 -28.7130127 -846.296936
v 53.3257751 -67.7859879 -803.164673
v 21.3318176 -37.2641373 -808.143616
v -9.02502441 -3.88092804 -816.057617
v 52.7488708 -68.4235611 -764.925232
v 21.3826294 -41.6523514 -768.62793
v -7.15979004 -11.7401352 -776.312134
v -34.4805603 21.1060257 -787.440063
v 53.234436 -62.3494949 -729.470642
v 21.0778503 -40.2510757 -729.715576
v -7.49343872 -14.3227463 -735.803223
v -33.6616211 14.6767197 -746.769165
v -58.552124 46.092865 -761.461975
v 57.7900696 -48.7247162 -699.523987
v 24.1950378 -31.3119545 -694.293823
v -6.16976929 -9.81164551 -696.538391
v -33.3866272 15.1500368 -705.931641
v -57.9884033 42.5243721 -720.732849
v -80.6476135 71.1935425 -739.028992
v 273.884674 -76.5189133 -880.127075
v 277.563934 -66.7611923 -857.642029
v 253.695099 -90.2339249 -846.182739
v 277.032257 -51.6242142 -834.498962
v 253.527863 -74.3605423 -822.578247
v 226.678558 -94.0317612 -811.732849
v 274.862701 -30.2924156 -810.670227
v 250.81723 -51.9447937 -799.121155
v 224.361359 -71.3550339 -787.512146
v 195.014008 -87.9442673 -777.685852
v 271.764069 -3.15457153 -785.73645
v 246.679596 -22.65382 -775.113281
v 219.681549 -41.455452 -763.647034
v 190.716217 -58.7821121 -752.709717
v 160.015961 -73.4150162 -744.17572
v 266.452057 28.2459221 -759.445984
v 240.346893 12.3799095 -749.453979
v 212.250153 -4.68924332 -738.606812
v 182.687592 -22.1705513 -727.621277
v 152.499054 -38.8618774 -717.788391
v 122.547363 -52.7707748 -711.527222
v 266.524872 109.072929 -933.734192
v 266.446442 121.126625 -908.100708
v 286.088043 92.9294434 -897.527649
v 262.274017 133.801971 -881.071899
v 283.941437 105.984505 -869.069519
v 301.834503 80.2228394 -861.245544
v 251.763641 148.163879 -854.350403
v 275.68924 121.195335 -840.538025
v 295.661957 96.0767746 -830.556396
v 310.539398 71.8527527 -825.322815
v 233.111969 164.054626 -829.012817
v 259.419159 139.121948 -812.928345
v 281.819122 114.82328 -800.467712
v 299.123505 91.2759094 -792.864136
v 308.840546 67.7375793 -791.320496
v 205.01004 179.749725 -805.95343
v 233.029449 159.125092 -787.027222
v 257.927032 137.108978 -771.022522
v 277.580292 114.332802 -760.620972
v 289.857086 91.2607574 -756.931885
v 293.334259 67.73703 -760.434692
v 37.0608826 142.398041 -668.892761
v 63.5901489 159.620148 -679.713501
v 10.1346741 159.341583 -683.662598
v 89.9036865 172.923737 -692.132996
v 35.3833313 175.498749 -696.74353
v -17.0194702 173.839966 -701.301697
v 112.617828 182.509796 -710.028687
v 59.093811 187.081146 -713.527405
v 8.03216553 188.174164 -717.768127
v -41.8757019 186.955017 -722.866211
v 131.441193 189.010864 -734.201904
v 79.8435059 195.507111 -736.461731
v 31.0809021 198.359467 -739.574158
v -16.1955566 199.638824 -743.391418
v -62.3276367 199.671844 -748.966125
v 147.616974 193.151825 -762.741455
v 98.5686951 201.79776 -764.017029
v 51.8619995 206.244965 -766.649292
v 7.13635254 208.94519 -769.597107
v -36.1142273 210.962311 -773.25824
v -77.460144 212.052216 -779.309509
v 162.067108 195.66214 -793.532776
v 116.71402 206.405457 -794.093689
v 72.0212402 212.6633 -796.863708
v 28.9223022 216.592072 -800.248352
v -12.2631531 219.580841 -803.45166
v -51.2885132 222.02002 -807.121277
v -87.2423096 223.274475 -813.284058
v 79.647583 135.484344 -664.612305
v 121.8797 126.822868 -665.582886
v 112.089081 152.868103 -675.655273
v 162.600067 115.398796 -673.312622
v 157.05954 143.056641 -677.364258
v 140.97641 165.090759 -689.772583
v 200.632843 100.569649 -688.59021
v 198.096466 129.438538 -686.682434
v 186.1315 153.173309 -694.20282
v 163.541412 172.827301 -710.391357
v 235.421295 82.5585632 -710.545105
v 234.951508 111.483284 -704.032654
v 226.119354 136.497345 -706.497192
v 207.53891 158.248627 -718.262817
v 180.692352 177.053772 -737.614441
v 265.240509 62.3793068 -738.185486
v 267.25473 89.980011 -728.748108
v 261.026947 115.223244 -726.986633
v 245.815948 138.193268 -734.321045
v 222.680328 159.495483 -749.269531
v 194.328522 178.835052 -769.92041
v 37.9644775 117.317009 -655.401794
v 40.8143616 89.2236938 -646.27301
v 81.8598022 107.891365 -655.141052
v 46.5164795 59.2152519 -643.630737
v 85.6268311 78.3032379 -652.355469
v 123.920013 97.2270279 -662.585083
v 55.0106506 28.2212105 -648.866577
v 91.5806274 47.0824928 -656.570618
v 127.542053 66.1404572 -666.986023
v 163.79599 84.0627747 -677.448792
v 65.7528381 -2.91472626 -662.44104
v 99.6452942 14.4040012 -667.839233
v 133.337097 33.1924362 -677.750122
v 167.119843 51.2877808 -688.56427
v 201.250824 67.8144531 -699.195557
v 78.6240234 -33.2625809 -683.797668
v 109.751953 -19.2842484 -686.149841
v 141.493896 -1.94952965 -694.486084
v 173.33194 16.1232834 -705.177429
v 205.01181 33.3257217 -716.092407
v 236.119904 48.9130898 -726.843323
v -3.13421631 133.908966 -666.919312
v -38.4768982 124.953468 -667.565369
v -1.72766113 104.651665 -651.648132
v -67.2687378 116.906471 -672.911255
v -33.8291016 92.9486237 -653.000061
v 3.28915405 73.8431244 -642.561035
v -87.9275208 110.776329 -685.014465
v -57.7687683 83.8001099 -661.855469
v -24.9935913 61.1069527 -646.826721
v 12.0470276 42.6697884 -641.822083
v -99.8073425 106.374855 -704.470642
v -73.1835632 77.5536804 -679.612366
v -44.5187073 51.9756699 -661.11322
v -12.4590149 30.0310631 -650.855896
v 23.9920349 11.8174744 -650.869629
v -103.764618 102.936638 -730.12677
v -80.421814 73.6191559 -705.834351
v -55.3917542 46.1699638 -686.0755
v -27.6396179 21.2684937 -672.192871
v 3.62744141 -0.479709625 -666.446594
v 38.9313049 -18.6637802 -670.281799
v -33.3921814 152.875427 -684.849854
v -61.1932068 169.271606 -705.292175
v -69.094635 146.480286 -688.93689
v -84.1624451 184.579102 -729.982483
v -95.0507507 165.370422 -712.98822
v -96.2007141 141.21933 -697.947876
v -101.018204 199.441864 -759.570007
v -114.680206 183.156708 -741.966797
v -118.867432 162.582153 -726.459534
v -113.994781 137.175415 -713.56781
v -111.470261 213.47049 -794.211914
v -127.409668 200.044983 -776.727173
v -134.448318 182.318756 -760.847656
v -132.632858 160.125977 -747.179504
v -122.256302 133.599579 -736.476624
g 
f 3 1 2
f 5 2 4
f 6 3 5
f 8 4 7
f 9 5 8
f 10 6 9
f 12 7 11
f 13 8 12
f 14 9 13
f 15 10 14
f 17 11 16
f 18 12 17
f 19 13 18
f 20 14 19
f 21 15 20
f 23 16 22
f 24 17 23
f 25 18 24
f 26 19 25
f 27 20 26
f 28 21 27
f 30 22 29
f 31 23 30
f 32 24 31
f 33 25 32
f 34 26 33
f 35 27 34
f 36 28 35
f 3 2 5
f 5 4 8
f 6 5 9
f 8 7 12
f 9 8 13
f 10 9 14
f 12 11 17
f 13 12 18
f 14 13 19
f 15 14 20
f 17 16 23
f 18 17 24
f 19 18 25
f 20 19 26
f 21 20 27
f 23 22 30
f 24 23 31
f 25 24 32
f 26 25 33
f 27 26 34
f 28 27 35
f 37 1 3
f 38 3 6
f 39 37 38
f 40 6 10
f 41 38 40
f 42 39 41
f 43 10 15
f 44 40 43
f 45 41 44
f 46 42 45
f 47 15 21
f 48 43 47
f 49 44 48
f 50 45 49
f 51 46 50
f 52 21 28
f 53 47 52
f 54 48 53
f 55 49 54
f 56 50 55
f 57 51 56
f 58 28 36
f 59 52 58
f 60 53 59
f 61 54 60
f 62 55 61
f 63 56 62
f 64 57 63
f 37 3 38
f 38 6 40
f 39 38 41
f 40 10 43
f 41 40 44
f 42 41 45
f 43 15 47
f 44 43 48
f 45 44 49
f 46 45 50
f 47 21 52
f 48 47 53
f 49 48 54
f 50 49 55
f 51 50 56
f 52 28 58
f 53 52 59
f 54 53 60
f 55 54 61
f 56 55 62
f 57 56 63
f 65 1 37
f 66 37 39
f 67 65 66
f 68 39 42
f 69 66 68
f 70 67 69
f 71 42 46
f 72 68 71
f 73 69 72
f 74 70 73
f 75 46 51
f 76 71 75
f 77 72 76
f 78 73 77
f 79 74 78
f 80 51 57
f 81 75 80
f 82 76 81
f 83 77 82
f 84 78 83
f 85 79 84
f 86 57 64
f 87 80 86
f 88 81 87
f 89 82 88
f 90 83 89
f 91 84 90
f 92 85 91
f 65 37 66
f 66 39 68
f 67 66 69
f 68 42 71
f 69 68 72
f 70 69 73
f 71 46 75
f 72 71 76
f 73 72 77
f 74 73 78
f 75 51 80
f 76 75 81
f 77 76 82
f 78 77 83
f 79 78 84
f 80 57 86
f 81 80 87
f 82 81 88
f 83 82 89
f 84 83 90
f 85 84 91
f 93 1 65
f 94 65 67
f 95 93 94
f 96 67 70
f 97 94 96
f 98 95 97
f 99 70 74
f 100 96 99
f 101 97 100
f 102 98 101
f 103 74 79
f 104 99 103
f 105 100 104
f 106 101 105
f 107 102 106
f 108 79 85
f 109 103 108
f 110 104 109
f 111 105 110
f 112 106 111
f 113 107 112
f 114 85 92
f 115 108 114
f 116 109 115
f 117 110 116
f 118 111 117
f 119 112 118
f 120 113 119
f 93 65 94
f 94 67 96
f 95 94 97
f 96 70 99
f 97 96 100
f 98 97 101
f 99 74 103
f 100 99 104
f 101 100 105
f 102 101 106
f 103 79 108
f 104 103 109
f 105 104 110
f 106 105 111
f 107 106 112
f 108 85 114
f 109 108 115
f 110 109 116
f 111 110 117
f 112 111 118
f 113 112 119
f 2 1 93
f 121 93 95
f 4 2 121
f 122 95 98
f 123 121 122
f 7 4 123
f 124 98 102
f 125 122 124
f 126 123 125
f 11 7 126
f 127 102 107
f 128 124 127
f 129 125 128
f 130 126 129
f 16 11 130
f 131 107 113
f 132 127 131
f 133 128 132
f 134 129 133
f 135 130 134
f 22 16 135
f 136 113 120
f 137 131 136
f 138 132 137
f 139 133 138
f 140 134 139
f 141 135 140
f 29 22 141
f 2 93 121
f 121 95 122
f 4 121 123
f 122 98 124
f 123 122 125
f 7 123 126
f 124 102 127
f 125 124 128
f 126 125 129
f 11 126 130
f 127 107 131
f 128 127 132
f 129 128 133
f 130 129 134
f 16 130 135
f 131 113 136
f 132 131 137
f 133 132 138
f 134 133 139
f 135 134 140
f 22 135 141
f 142 29 141
f 143 141 140
f 144 142 143
f 145 140 139
f 146 143 145
f 147 144 146
f 148 139 138
f 149 145 148
f 150 146 149
f 151 147 150
f 152 138 137
f 153 148 152
f 154 149 153
f 155 150 154
f 156 151 155
f 157 137 136
f 158 152 157
f 159 153 158
f 160 154 159
f 161 155 160
f 162 156 161
f 163 136 120
f 164 157 163
f 165 158 164
f 166 159 165
f 167 160 166
f 168 161 167
f 169 162 168
f 142 141 143
f 143 140 145
f 144 143 146
f 145 139 148
f 146 145 149
f 147 146 150
f 148 138 152
f 149 148 153
f 150 149 154
f 151 150 155
f 152 137 157
f 153 152 158
f 154 153 159
f 155 154 160
f 156 155 161
f 157 136 163
f 158 157 164
f 159 158 165
f 160 159 166
f 161 160 167
f 162 161 168
f 170 120 119
f 171 119 118
f 172 170 171
f 173 118 117
f 174 171 173
f 175 172 174
f 176 117 116
f 177 173 176
f 178 174 177
f 179 175 178
f 180 116 115
f 181 176 180
f 182 177 181
f 183 178 182
f 184 179 183
f 185 115 114
f 186 180 185
f 187 181 186
f 188 182 187
f 189 183 188
f 190 184 189
f 191 114 92
f 192 185 191
f 193 186 192
f 194 187 193
f 195 188 194
f 196 189 195
f 197 190 196
f 170 119 171
f 171 118 173
f 172 171 174
f 173 117 176
f 174 173 177
f 175 174 178
f 176 116 180
f 177 176 181
f 178 177 182
f 179 178 183
f 180 115 185
f 181 180 186
f 182 181 187
f 183 182 188
f 184 183 189
f 185 114 191
f 186 185 192
f 187 186 193
f 188 187 194
f 189 188 195
f 190 189 196
f 198 92 91
f 199 91 90
f 200 198 199
f 201 90 89
f 202 199 201
f 203 200 202
f 204 89 88
f 205 201 204
f 206 202 205
f 207 203 206
f 208 88 87
f 209 204 208
f 210 205 209
f 211 206 210
f 212 207 211
f 213 87 86
f 214 208 213
f 215 209 214
f 216 210 215
f 217 211 216
f 218 212 217
f 219 86 64
f 220 213 219
f 221 214 220
f 222 215 221
f 223 216 222
f 224 217 223
f 225 218 224
f 198 91 199
f 199 90 201
f 200 199 202
f 201 89 204
f 202 201 205
f 203 202 206
f 204 88 208
f 205 204 209
f 206 205 210
f 207 206 211
f 208 87 213
f 209 208 214
f 210 209 215
f 211 210 216
f 212 211 217
f 213 86 219
f 214 213 220
f 215 214 221
f 216 215 222
f 217 216 223
f 218 217 224
f 226 64 63
f 227 63 62
f 228 226 227
f 229 62 61
f 230 227 229
f 231 228 230
f 232 61 60
f 233 229 232
f 234 230 233
f 235 231 234
f 236 60 59
f 237 232 236
f 238 233 237
f 239 234 238
f 240 235 239
f 241 59 58
f 242 236 241
f 243 237 242
f 244 238 243
f 245 239 244
f 246 240 245
f 247 58 36
f 248 241 247
f 249 242 248
f 250 243 249
f 251 244 250
f 252 245 251
f 253 246 252
f 226 63 227
f 227 62 229
f 228 227 230
f 229 61 232
f 230 229 233
f 231 230 234
f 232 60 236
f 233 232 237
f 234 233 238
f 235 234 239
f 236 59 241
f 237 236 242
f 238 237 243
f 239 238 244
f 240 239 245
f 241 58 247
f 242 241 248
f 243 242 249
f 244 243 250
f 245 244 251
f 246 245 252
f 254 36 35
f 255 35 34
f 256 254 255
f 257 34 33
f 258 255 257
f 259 256 258
f 260 33 32
f 261 257 260
f 262 258 261
f 263 259 262
f 264 32 31
f 265 260 264
f 266 261 265
f 267 262 266
f 268 263 267
f 269 31 30
f 270 264 269
f 271 265 270
f 272 266 271
f 273 267 272
f 274 268 273
f 275 30 29
f 276 269 275
f 277 270 276
f 278 271 277
f 279 272 278
f 280 273 279
f 281 274 280
f 254 35 255
f 255 34 257
f 256 255 258
f 257 33 260
f 258 257 261
f 259 258 262
f 260 32 264
f 261 260 265
f 262 261 266
f 263 262 267
f 264 31 269
f 265 264 270
f 266 265 271
f 267 266 272
f 268 267 273
f 269 30 275
f 270 269 276
f 271 270 277
f 272 271 278
f 273 272 279
f 274 273 280
f 275 29 142
f 282 142 144
f 276 275 282
f 283 144 147
f 284 282 283
f 277 276 284
f 285 147 151
f 286 283 285
f 287 284 286
f 278 277 287
f 288 151 156
f 289 285 288
f 290 286 289
f 291 287 290
f 279 278 291
f 292 156 162
f 293 288 292
f 294 289 293
f 295 290 294
f 296 291 295
f 280 279 296
f 297 162 169
f 298 292 297
f 299 293 298
f 300 294 299
f 301 295 300
f 302 296 301
f 281 280 302
f 275 142 282
f 282 144 283
f 276 282 284
f 283 147 285
f 284 283 286
f 277 284 287
f 285 151 288
f 286 285 289
f 287 286 290
f 278 287 291
f 288 156 292
f 289 288 293
f 290 289 294
f 291 290 295
f 279 291 296
f 292 162 297
f 293 292 298
f 294 293 299
f 295 294 300
f 296 295 301
f 280 296 302
f 163 120 170
f 303 170 172
f 164 163 303
f 304 172 175
f 305 303 304
f 165 164 305
f 306 175 179
f 307 304 306
f 308 305 307
f 166 165 308
f 309 179 184
f 310 306 309
f 311 307 310
f 312 308 311
f 167 166 312
f 313 184 190
f 314 309 313
f 315 310 314
f 316 311 315
f 317 312 316
f 168 167 317
f 318 190 197
f 319 313 318
f 320 314 319
f 321 315 320
f 322 316 321
f 323 317 322
f 169 168 323
f 163 170 303
f 303 172 304
f 164 303 305
f 304 175 306
f 305 304 307
f 165 305 308
f 306 179 309
f 307 306 310
f 308 307 311
f 166 308 312
f 309 184 313
f 310 309 314
f 311 310 315
f 312 311 316
f 167 312 317
f 313 190 318
f 314 313 319
f 315 314 320
f 316 315 321
f 317 316 322
f 168 317 323
f 191 92 198
f 324 198 200
f 192 191 324
f 325 200 203
f 326 324 325
f 193 192 326
f 327 203 207
f 328 325 327
f 329 326 328
f 194 193 329
f 330 207 212
f 331 327 330
f 332 328 331
f 333 329 332
f 195 194 333
f 334 212 218
f 335 330 334
f 336 331 335
f 337 332 336
f 338 333 337
f 196 195 338
f 339 218 225
f 340 334 339
f 341 335 340
f 342 336 341
f 343 337 342
f 344 338 343
f 197 196 344
f 191 198 324
f 324 200 325
f 192 324 326
f 325 203 327
f 326 325 328
f 193 326 329
f 327 207 330
f 328 327 331
f 329 328 332
f 194 329 333
f 330 212 334
f 331 330 335
f 332 331 336
f 333 332 337
f 195 333 338
f 334 218 339
f 335 334 340
f 336 335 341
f 337 336 342
f 338 337 343
f 196 338 344
f 219 64 226
f 345 226 228
f 220 219 345
f 346 228 231
f 347 345 346
f 221 220 347
f 348 231 235
f 349 346 348
f 350 347 349
f 222 221 350
f 351 235 240
f 352 348 351
f 353 349 352
f 354 350 353
f 223 222 354
f 355 240 246
f 356 351 355
f 357 352 356
f 358 353 357
f 359 354 358
f 224 223 359
f 360 246 253
f 361 355 360
f 362 356 361
f 363 357 362
f 364 358 363
f 365 359 364
f 225 224 365
f 219 226 345
f 345 228 346
f 220 345 347
f 346 231 348
f 347 346 349
f 221 347 350
f 348 235 351
f 349 348 352
f 350 349 353
f 222 350 354
f 351 240 355
f 352 351 356
f 353 352 357
f 354 353 358
f 223 354 359
f 355 246 360
f 356 355 361
f 357 356 362
f 358 357 363
f 359 358 364
f 224 359 365
f 247 36 254
f 366 254 256
f 248 247 366
f 367 256 259
f 368 366 367
f 249 248 368
f 369 259 263
f 370 367 369
f 371 368 370
f 250 249 371
f 372 263 268
f 373 369 372
f 374 370 373
f 375 371 374
f 251 250 375
f 376 268 274
f 377 372 376
f 378 373 377
f 379 374 378
f 380 375 379
f 252 251 380
f 381 274 281
f 382 376 381
f 383 377 382
f 384 378 383
f 385 379 384
f 386 380 385
f 253 252 386
f 247 254 366
f 366 256 367
f 248 366 368
f 367 259 369
f 368 367 370
f 249 368 371
f 369 263 372
f 370 369 373
f 371 370 374
f 250 371 375
f 372 268 376
f 373 372 377
f 374 373 378
f 375 374 379
f 251 375 380
f 376 274 381
f 377 376 382
f 378 377 383
f 379 378 384
f 380 379 385
f 252 380 386
f 389 387 388
f 391 388 390
f 392 389 391
f 394 390 393
f 395 391 394
f 396 392 395
f 398 393 397
f 399 394 398
f 400 395 399
f 401 396 400
f 403 397 402
f 404 398 403
f 405 399 404
f 406 400 405
f 407 401 406
f 409 402 408
f 410 403 409
f 411 404 410
f 412 405 411
f 413 406 412
f 414 407 413
f 302 408 281
f 301 409 302
f 300 410 301
f 299 411 300
f 298 412 299
f 297 413 298
f 169 414 297
f 389 388 391
f 391 390 394
f 392 391 395
f 394 393 398
f 395 394 399
f 396 395 400
f 398 397 403
f 399 398 404
f 400 399 405
f 401 400 406
f 403 402 409
f 404 403 410
f 405 404 411
f 406 405 412
f 407 406 413
f 409 408 302
f 410 409 301
f 411 410 300
f 412 411 299
f 413 412 298
f 414 413 297
f 388 387 415
f 417 415 416
f 390 388 417
f 419 416 418
f 420 417 419
f 393 390 420
f 422 418 421
f 423 419 422
f 424 420 423
f 397 393 424
f 426 421 425
f 427 422 426
f 428 423 427
f 429 424 428
f 402 397 429
f 431 425 430
f 432 426 431
f 433 427 432
f 434 428 433
f 435 429 434
f 408 402 435
f 386 430 253
f 385 431 386
f 384 432 385
f 383 433 384
f 382 434 383
f 381 435 382
f 281 408 381
f 388 415 417
f 417 416 419
f 390 417 420
f 419 418 422
f 420 419 423
f 393 420 424
f 422 421 426
f 423 422 427
f 424 423 428
f 397 424 429
f 426 425 431
f 427 426 432
f 428 427 433
f 429 428 434
f 402 429 435
f 431 430 386
f 432 431 385
f 433 432 384
f 434 433 383
f 435 434 382
f 408 435 381
f 415 387 436
f 438 436 437
f 416 415 438
f 440 437 439
f 441 438 440
f 418 416 441
f 443 439 442
f 444 440 443
f 445 441 444
f 421 418 445
f 447 442 446
f 448 443 447
f 449 444 448
f 450 445 449
f 425 421 450
f 452 446 451
f 453 447 452
f 454 448 453
f 455 449 454
f 456 450 455
f 430 425 456
f 365 451 225
f 364 452 365
f 363 453 364
f 362 454 363
f 361 455 362
f 360 456 361
f 253 430 360
f 415 436 438
f 438 437 440
f 416 438 441
f 440 439 443
f 441 440 444
f 418 441 445
f 443 442 447
f 444 443 448
f 445 444 449
f 421 445 450
f 447 446 452
f 448 447 453
f 449 448 454
f 450 449 455
f 425 450 456
f 452 451 365
f 453 452 364
f 454 453 363
f 455 454 362
f 456 455 361
f 430 456 360
f 436 387 457
f 459 457 458
f 437 436 459
f 461 458 460
f 462 459 461
f 439 437 462
f 464 460 463
f 465 461 464
f 466 462 465
f 442 439 466
f 468 463 467
f 469 464 468
f 470 465 469
f 471 466 470
f 446 442 471
f 473 467 472
f 474 468 473
f 475 469 474
f 476 470 475
f 477 471 476
f 451 446 477
f 344 472 197
f 343 473 344
f 342 474 343
f 341 475 342
f 340 476 341
f 339 477 340
f 225 451 339
f 436 457 459
f 459 458 461
f 437 459 462
f 461 460 464
f 462 461 465
f 439 462 466
f 464 463 468
f 465 464 469
f 466 465 470
f 442 466 471
f 468 467 473
f 469 468 474
f 470 469 475
f 471 470 476
f 446 471 477
f 473 472 344
f 474 473 343
f 475 474 342
f 476 475 341
f 477 476 340
f 451 477 339
f 457 387 389
f 478 389 392
f 458 457 478
f 479 392 396
f 480 478 479
f 460 458 480
f 481 396 401
f 482 479 481
f 483 480 482
f 463 460 483
f 484 401 407
f 485 481 484
f 486 482 485
f 487 483 486
f 467 463 487
f 488 407 414
f 489 484 488
f 490 485 489
f 491 486 490
f 492 487 491
f 472 467 492
f 323 414 169
f 322 488 323
f 321 489 322
f 320 490 321
f 319 491 320
f 318 492 319
f 197 472 318
f 457 389 478
f 478 392 479
f 458 478 480
f 479 396 481
f 480 479 482
f 460 480 483
f 481 401 484
f 482 481 485
f 483 482 486
f 463 483 487
f 484 407 488
f 485 484 489
f 486 485 490
f 487 486 491
f 467 487 492
f 488 414 323
f 489 488 322
f 490 489 321
f 491 490 320
f 492 491 319
f 472 492 318
