# File exported by Houdini 20.5.445 (www.sidefx.com)
# 492 points
# 2940 vertices
# 980 primitives
# Bounds: [-143.708221, -175.385513, -1072.63538] to [314.482147, 291.762634, -682.165649]
g 
v 67.3250427 101.362915 -1019.05298
v 58.4460754 134.158554 -1034.0033
v 90.8537903 104.532761 -1014.18787
v 53.4107971 164.852203 -1047.53015
v 85.7284241 140.281067 -1030.04773
v 116.34317 107.036896 -1009.52112
v 52.2709045 193.381195 -1058.97339
v 84.3589783 173.195816 -1043.55347
v 113.495697 145.435837 -1025.62109
v 143.771332 110.699234 -1004.87439
v 53.8025818 218.993546 -1067.23499
v 86.224762 203.643982 -1054.00403
v 114.045563 180.448181 -1038.15173
v 141.993683 151.271973 -1020.35071
v 172.787628 117.114655 -998.859009
v 55.2879333 240.856354 -1069.46729
v 88.8103333 231.100815 -1059.46484
v 116.80368 212.752533 -1045.97473
v 143.080414 187.969376 -1030.61169
v 171.449554 158.961731 -1012.58105
v 202.539948 126.774719 -989.459961
v 54.5542908 258.365723 -1063.4585
v 89.1747742 254.565002 -1057.21106
v 118.769318 241.913208 -1046.76782
v 145.338165 221.749649 -1034.06116
v 172.323883 196.640259 -1019.01843
v 201.486603 168.702271 -999.918091
v 231.542999 138.680664 -975.010132
v 50.9823914 271.356659 -1048.92688
v 85.5231018 272.891815 -1045.26501
v 117.127472 266.484863 -1037.68359
v 145.757416 251.92334 -1027.79407
v 173.463531 230.999893 -1015.78088
v 201.964325 206.206787 -1000.33398
v 230.78952 179.267639 -979.979126
v 257.586212 150.744827 -954.737915
v 92.2517395 68.1300659 -1000.36914
v 117.994049 68.5024719 -994.100098
v 117.408112 32.1657677 -981.677246
v 145.514923 70.0023651 -988.665405
v 144.877289 32.3982735 -975.179199
v 142.364288 -4.85921478 -963.41687
v 174.717499 74.870575 -982.612427
v 173.89859 35.7798729 -968.592896
v 170.918793 -2.25013733 -956.483032
v 166.736115 -40.6198959 -944.990112
v 205.115509 84.2481689 -973.917236
v 204.244171 43.9786568 -959.778809
v 200.728851 4.78268051 -947.602661
v 195.629364 -34.1787071 -936.6427
v 190.320648 -72.8378906 -925.521484
v 235.775116 97.7337341 -960.573364
v 235.475311 57.2817497 -946.626343
v 231.654572 17.0502396 -934.482422
v 225.595917 -23.0173874 -924.10144
v 218.978851 -62.4137115 -914.491455
v 212.957306 -99.5376129 -903.9729
v 264.94046 113.508377 -940.958984
v 266.559601 74.5989532 -927.026978
v 263.281281 34.291893 -914.766968
v 256.622772 -6.80947495 -904.825562
v 248.596039 -47.5102997 -896.655518
v 241.100555 -85.8591003 -888.693359
v 234.276398 -119.261002 -879.390137
v 62.1125183 77.0024109 -1012.72253
v 89.6836243 38.9250946 -992.219727
v 60.384613 50.7758865 -1007.00696
v 115.726593 -0.804294586 -972.030884
v 89.9753113 9.24051857 -984.655518
v 61.1666565 22.7386436 -1002.03162
v 140.731781 -40.439003 -952.327148
v 116.601654 -32.760643 -962.630371
v 91.986969 -20.8423805 -977.413452
v 63.4676208 -6.50784302 -997.200073
v 165.178558 -77.6331024 -932.341431
v 141.764374 -73.4062653 -940.765381
v 118.912933 -63.7026367 -952.981323
v 94.8645325 -50.6752625 -969.832764
v 66.2989807 -35.5145798 -991.52771
v 189.372589 -109.926254 -910.708496
v 166.505035 -110.589966 -917.905396
v 144.234894 -104.128891 -927.769043
v 121.848602 -92.9985046 -942.021729
v 97.6662903 -78.5828552 -960.821289
v 68.7915955 -61.9559479 -983.57373
v 213.707977 -134.8246 -885.243774
v 191.938934 -141.343658 -891.460938
v 169.749786 -139.71283 -899.731567
v 147.433868 -131.50386 -911.699097
v 124.410309 -118.429901 -928.372803
v 99.0906677 -101.946198 -949.171143
v 69.7288513 -83.6090698 -972.370483
v 38.3247986 116.339828 -1032.41028
v 31.8612061 90.4207916 -1027.03711
v 9.83526611 126.83577 -1042.81396
v 29.6686096 63.1338921 -1023.35144
v 2.84976196 98.8063049 -1038.60815
v -17.9026794 132.793716 -1049.78723
v 30.2129822 34.3630295 -1020.70129
v 0.262298584 70.1648102 -1036.83264
v -25.3328857 102.934982 -1047.10327
v -44.5666504 134.342453 -1053.2478
v 32.2679138 4.50230026 -1017.77527
v 0.154846191 40.4438705 -1036.07422
v -28.6803894 73.0438232 -1046.99951
v -52.4606628 103.242538 -1051.89612
v -69.2189941 131.95784 -1052.34326
v 34.9041443 -25.0975037 -1012.43579
v 1.39007568 9.88282967 -1033.95288
v -29.8568115 42.4327469 -1047.0343
v -56.776947 72.5441132 -1052.18823
v -77.5184021 100.473526 -1051.2019
v -91.0326233 126.740616 -1046.24524
v 37.1531067 -52.3074493 -1002.26843
v 3.26983643 -20.2590027 -1026.74377
v -29.6902466 11.2664356 -1043.03796
v -59.0568848 41.375824 -1050.198
v -82.7080688 69.6217651 -1049.28638
v -99.5706482 95.8874207 -1043.07715
v -109.527802 120.449783 -1034.62427
v 26.9808655 149.598602 -1047.03455
v -2.54766846 158.92337 -1054.74658
v 20.7293701 178.740692 -1058.83801
v -30.493988 162.657928 -1057.60913
v -9.47879028 185.529083 -1063.32983
v 18.7920532 204.088165 -1068.00769
v -56.6630249 161.371292 -1055.69763
v -37.7046814 186.412689 -1061.36353
v -12.1790161 207.535812 -1068.27258
v 19.3548584 225.560822 -1072.63538
v -80.7455444 155.815475 -1048.58765
v -64.2151184 182.100754 -1053.44385
v -41.487793 205.350327 -1060.3252
v -12.87677 225.464859 -1067.27026
v 19.7465515 243.216156 -1069.66833
v -102.479126 147.595016 -1035.77466
v -89.1109314 173.704147 -1039.28687
v -69.7973328 198.365341 -1044.87793
v -44.253479 220.417358 -1051.85327
v -14.1486816 240.00882 -1057.19897
v 18.1863708 257.301849 -1057.03613
v 25.130127 271.858673 -1034.78674
v -11.3602905 253.934662 -1039.18787
v -1.22158813 267.705353 -1015.34717
v -44.7464294 233.678955 -1036.38513
v -39.6835022 247.044586 -1017.13159
v -26.2407227 260.635529 -993.048706
v -73.4525146 211.619263 -1030.3811
v -72.425293 224.773773 -1013.27417
v -64.8107605 238.400772 -993.558716
v -47.9608154 251.0625 -969.643188
v -95.9347839 187.134323 -1024.61475
v -98.5509033 200.620255 -1008.03833
v -95.5043945 214.39595 -989.840576
v -84.7061157 227.514999 -969.549194
v -65.1135254 238.232239 -945.737671
v -112.177765 160.506821 -1020.52856
v -118.000397 174.167282 -1003.52209
v -118.79538 188.338303 -985.220093
v -112.815796 202.148422 -965.693237
v -99.3924866 214.417709 -944.679199
v -78.5503845 222.949417 -921.203735
v -121.992889 131.908493 -1018.66248
v -130.779144 145.114288 -1000.49121
v -134.925812 159.494324 -980.874268
v -133.053802 174.149124 -960.395386
v -124.595764 188.013733 -939.519775
v -109.556702 199.156891 -918.228149
v -88.907074 205.919769 -896.13916
v -119.630707 99.9778442 -1024.82593
v -105.690521 71.3075104 -1035.44592
v -124.478851 81.1269684 -1012.40063
v -84.8388672 42.3042564 -1042.12524
v -106.016418 48.9633064 -1023.86804
v -124.230042 63.8499565 -997.123901
v -57.8165894 12.4699421 -1041.36633
v -81.587738 17.5867424 -1029.4585
v -101.883057 28.4940224 -1008.3114
v -119.229462 47.5300941 -978.74231
v -25.5394287 -18.3806686 -1030.74268
v -51.7210999 -13.6886063 -1025.65601
v -74.4696655 -4.90364838 -1011.12158
v -94.2224121 10.4050465 -987.916016
v -110.078674 32.4220314 -956.535767
v 10.3838806 -49.9907379 -1009.34045
v -16.7228088 -45.2725525 -1010.01331
v -41.9129333 -37.2952881 -1002.32336
v -64.1556396 -24.2146492 -985.817871
v -83.0257568 -5.25624466 -961.589844
v -97.0048523 17.9831257 -930.714966
v 47.9168396 -81.7486877 -978.250488
v 22.7205811 -77.1569061 -981.375122
v -3.4553833 -69.4160919 -979.072632
v -28.1118774 -57.5151215 -969.302002
v -49.7624207 -40.6550674 -952.214844
v -67.3479919 -19.4147682 -929.271851
v -79.7628479 4.30439377 -902.15564
v 87.9902649 -111.026901 -943.23938
v 119.719879 -131.791138 -917.083374
v 104.017853 -131.482544 -911.662964
v 146.579437 -148.164001 -895.920288
v 137.659332 -151.599731 -884.724854
v 118.055756 -144.229034 -878.955566
v 171.438751 -158.937408 -880.277222
v 166.630341 -165.450378 -864.701416
v 153.635406 -161.792343 -853.342773
v 130.780121 -149.448273 -845.880615
v 195.560089 -163.03978 -869.600464
v 193.859589 -172.611755 -850.615723
v 185.141754 -172.292404 -835.172852
v 168.267975 -163.529617 -822.773193
v 142.832001 -147.510284 -813.648438
v 219.017609 -158.833679 -862.465942
v 220.11203 -171.951355 -841.251831
v 214.75943 -175.385513 -822.843018
v 201.658356 -170.43869 -807.170166
v 181.203461 -157.801529 -793.856079
v 154.244659 -138.951157 -783.874146
v 241.2742 -144.156967 -856.955933
v 245.051971 -160.736847 -834.776978
v 242.855011 -168.606155 -814.399658
v 232.748199 -168.240204 -796.528564
v 215.106354 -159.874954 -780.763794
v 191.774017 -144.517242 -767.42749
v 164.502228 -124.130157 -757.970581
v 257.609894 -112.462555 -858.798828
v 265.971893 -72.6716461 -866.671875
v 277.158295 -98.1371307 -837.033569
v 274.970551 -29.7910728 -873.255615
v 285.931854 -53.5027008 -843.615356
v 291.032501 -78.4915466 -814.804443
v 283.808502 13.626215 -880.972778
v 295.207062 -7.99058533 -849.603027
v 299.974152 -31.2935524 -820.377441
v 297.524261 -55.6299744 -792.848389
v 290.088776 56.3256035 -891.468018
v 303.363556 36.737381 -857.716797
v 308.493256 15.1604214 -826.579712
v 306.250702 -7.85247421 -797.939697
v 296.102814 -30.6940231 -772.104614
v 291.230255 97.9486847 -905.240112
v 307.549286 80.5453796 -869.421631
v 314.482147 60.6548042 -835.648926
v 312.877411 38.739109 -804.782471
v 303.485992 16.6290207 -777.358765
v 287.694 -3.63676071 -753.928711
v 284.413177 138.76828 -921.132935
v 303.339203 124.257767 -884.614502
v 313.118988 106.530396 -848.319458
v 313.767242 85.8031921 -814.558228
v 306.13736 64.0122223 -784.778564
v 292.090607 43.4092789 -759.593384
v 273.780914 25.4932251 -739.125366
v 262.153168 178.738678 -945.843018
v 232.167328 209.383636 -971.098511
v 259.653717 203.17334 -932.463501
v 201.094818 235.827698 -989.586426
v 226.995636 233.622833 -956.732422
v 250.683502 223.204315 -916.07666
v 170.293182 257.940186 -1002.58582
v 193.562531 257.716736 -973.203613
v 215.827911 251.625397 -938.817627
v 235.651459 237.831543 -898.140869
v 139.125763 274.498749 -1012.50635
v 159.705902 275.963196 -984.354736
v 179.932892 272.099335 -953.452393
v 199.03006 262.651123 -918.67395
v 215.161774 245.937408 -879.240112
v 105.517365 283.462921 -1020.84827
v 124.057343 287.587646 -993.036011
v 142.407013 285.682129 -963.147827
v 160.506561 278.569519 -931.275024
v 177.005157 266.054169 -896.828979
v 190.667206 247.354614 -859.743042
v 67.7307434 283.466003 -1027.0061
v 84.1600647 290.705322 -1000.2301
v 101.105743 291.762634 -970.549805
v 118.55191 286.813599 -939.207031
v 135.405182 276.712921 -906.794922
v 151.024811 262.027161 -873.852661
v 164.208893 243.249863 -840.428589
v 41.2608948 283.537079 -1008.78284
v 16.1911011 278.395447 -987.092896
v 57.9722595 289.03479 -978.601807
v -6.58999634 269.78595 -964.053711
v 34.500885 281.888336 -955.378906
v 75.6808167 287.528687 -946.276611
v -26.1455383 257.073486 -940.250488
v 13.4178162 270.314941 -931.643677
v 53.2593079 277.611298 -921.394043
v 93.6508484 279.3396 -912.769409
v -42.882843 240.043671 -915.254272
v -5.37258911 253.289795 -906.695923
v 33.0840759 262.25708 -896.136353
v 72.3291931 266.110443 -886.066284
v 111.703949 265.91803 -878.602173
v -58.0233154 219.832687 -888.675171
v -23.2278137 231.390671 -879.59668
v 13.9373779 240.587662 -868.885376
v 52.5049133 246.417725 -858.104248
v 91.3132019 248.394531 -849.204102
v 128.789032 247.403931 -843.41394
v -133.332764 113.67691 -1003.30688
v -137.77655 98.0655518 -985.718384
v -141.301575 128.967316 -980.367554
v -135.994385 83.4516449 -965.986694
v -143.708221 115.346359 -958.335205
v -143.147186 144.876999 -956.807617
v -128.909973 69.0089264 -943.86792
v -139.782257 102.291595 -934.615479
v -143.211884 132.624023 -931.09082
v -138.731781 160.720413 -933.192139
v -116.915741 53.8258858 -918.951416
v -130.211548 88.0134583 -908.889526
v -136.844849 119.845474 -903.529663
v -136.168091 148.712341 -904.018433
v -127.403809 174.761383 -909.533203
v -99.4754639 37.5466576 -891.195801
v -114.470398 71.269577 -880.686768
v -123.912201 104.137955 -873.762939
v -126.582977 134.557526 -872.335449
v -121.607239 161.406754 -876.750122
v -108.823334 184.801605 -885.399536
v 64.5818176 -106.259109 -945.825317
v 78.4538269 -122.338455 -911.560791
v 38.0440369 -98.2306671 -945.948853
v 90.6249695 -131.240997 -876.132446
v 50.9853821 -110.776306 -908.923462
v 11.3455811 -86.8270111 -940.955078
v 102.344635 -133.03125 -840.064941
v 63.0082092 -116.0811 -870.762573
v 24.4375305 -95.6091003 -901.514526
v -13.3709106 -70.8125458 -929.471069
v 114.833893 -127.086075 -804.370483
v 75.6952209 -113.561539 -831.783936
v 37.6194153 -96.3948212 -860.911011
v 0.540740967 -75.0624237 -888.28064
v -34.8687134 -49.3749237 -911.623657
v 128.392609 -113.087997 -770.83728
v 90.5545349 -101.63121 -792.436523
v 52.7998962 -87.6990204 -818.729248
v 15.8775024 -69.8120422 -845.18396
v -19.6029053 -48.0544128 -868.790894
v -51.824585 -23.0837173 -887.861572
v 264.440277 -135.752457 -833.558594
v 280.419769 -119.753067 -811.052979
v 265.369843 -149.660233 -810.620117
v 287.78006 -98.4862823 -789.438965
v 275.553802 -131.526398 -788.715576
v 257.944305 -154.835403 -790.506348
v 286.554901 -73.0617828 -768.628906
v 275.909821 -107.738037 -768.059326
v 261.69516 -133.997299 -769.235474
v 241.897003 -151.394867 -772.697144
v 278.431976 -43.3151093 -748.965942
v 268.489227 -77.9251099 -747.906616
v 256.237274 -105.953308 -748.739502
v 240.178253 -126.391663 -751.227051
v 218.873932 -138.927109 -756.364136
v 264.304352 -8.72721481 -731.687256
v 254.566803 -40.8945312 -728.560791
v 243.409088 -69.0844574 -728.191895
v 229.643463 -91.6374359 -730.120728
v 212.073944 -107.890076 -734.361572
v 190.185089 -118.272552 -742.750488
v 286.597687 165.998367 -906.472656
v 280.104889 188.241638 -889.679077
v 300.910065 149.965561 -866.517578
v 266.44101 205.729218 -872.415527
v 289.323883 169.976944 -848.614746
v 305.276581 130.417679 -828.735474
v 246.295197 217.858246 -855.019653
v 270.280487 185.265472 -831.522217
v 288.115082 148.84259 -810.717163
v 300.241791 108.586395 -794.683228
v 220.272675 224.131165 -837.026001
v 244.143219 195.805038 -814.415405
v 263.073639 163.003494 -793.5271
v 277.405792 126.316452 -776.510254
v 287.200104 86.3055725 -765.029297
v 190.429779 224.533264 -818.078735
v 212.550629 201.105133 -795.904541
v 230.935516 172.790955 -775.364746
v 246.450592 140.021317 -758.270264
v 259.158112 103.715729 -746.208618
v 268.279633 65.124054 -739.961304
v 57.9403381 100.637375 -699.889648
v 67.8506775 125.751419 -701.509399
v 23.8664246 117.245697 -719.234741
v 81.7263489 148.052521 -711.564087
v 35.3842468 143.472122 -725.979614
v -7.07235718 133.148636 -744.464844
v 99.037262 168.078079 -728.652832
v 52.0153503 166.242279 -740.653931
v 7.93832397 159.6595 -755.893555
v -32.8034058 149.432358 -773.308105
v 118.007782 186.9814 -751.410645
v 72.0939636 187.078506 -760.768066
v 27.908844 182.844238 -773.698975
v -13.8493347 175.745529 -788.22876
v -52.8547058 165.991837 -803.814453
v 136.358002 206.243149 -778.480957
v 93.2262268 207.251114 -784.848267
v 50.2089539 204.832199 -795.425415
v 8.56402588 199.389252 -807.95752
v -31.0256653 191.750839 -821.314453
v -67.9678345 181.833435 -834.84082
v 152.200043 225.446442 -808.525635
v 112.76474 227.685013 -812.387695
v 72.1962585 226.709915 -820.276978
v 31.5231628 222.772186 -831.021973
v -7.84811401 215.880783 -842.979492
v -45.2388306 206.891815 -854.729736
v -79.486145 195.583633 -865.855713
v 96.756012 97.8991241 -686.64563
v 132.738556 90.8223419 -682.165649
v 109.587433 123.539734 -691.192871
v 165.484161 79.289978 -685.445801
v 146.429901 116.511063 -690.392944
v 125.162689 145.08345 -704.359253
v 195.60788 64.8533325 -694.230469
v 179.436005 105.619263 -696.752075
v 162.384064 137.845123 -706.673706
v 142.578033 164.302536 -724.652466
v 223.722809 49.6487541 -706.513306
v 210.196564 92.2753906 -707.848267
v 195.401215 128.075592 -715.624756
v 179.182281 158.207336 -729.989258
v 160.120331 183.850891 -751.057373
v 250.012787 35.9254494 -721.454956
v 239.965973 78.1562805 -722.161377
v 227.079193 116.362198 -728.970581
v 212.576569 150.132462 -741.631958
v 196.266205 179.410355 -759.738037
v 176.655121 204.306824 -782.451538
v 75.4773254 71.6636658 -695.902344
v 93.5007629 39.5185204 -698.484863
v 116.12265 64.2689514 -684.48645
v 110.245026 4.91346931 -705.501953
v 134.325165 27.7749748 -689.115234
v 151.677704 52.052681 -682.932739
v 125.343964 -30.7307777 -715.302734
v 150.466156 -10.3428955 -698.113037
v 168.769318 11.6050339 -690.065063
v 183.051544 36.2475357 -688.807739
v 138.964752 -65.35392 -726.841187
v 164.829071 -48.6629028 -709.961914
v 184.171967 -29.4663315 -701.315918
v 199.048004 -7.08167267 -698.134399
v 211.607635 19.1013527 -699.622192
v 151.996307 -96.963562 -740.817505
v 177.941498 -85.2692566 -724.374634
v 198.552155 -69.9337921 -715.827881
v 214.480499 -50.0771637 -711.795288
v 227.275604 -25.5891418 -711.180176
v 238.623688 3.32291412 -713.895874
v 29.3311157 84.1281891 -716.592651
v 2.90106201 66.9402313 -740.438599
v 47.9419861 51.3215752 -717.234741
v -20.9327698 50.482296 -768.78418
v 22.1780396 31.227356 -745.579224
v 65.806427 17.4257336 -723.519409
v -41.6860352 35.6124763 -799.628174
v -1.16400146 13.0000553 -777.779175
v 40.0721741 -3.76072693 -755.03833
v 82.2840881 -17.2213097 -732.735718
v -58.7159119 22.8701515 -832.265747
v -21.7758484 -2.42830086 -812.262085
v 16.9147034 -22.2825508 -790.10022
v 56.7220764 -38.1363678 -766.137573
v 97.4707336 -51.5428925 -743.274658
v -71.5106812 12.4766178 -866.603027
v -38.9967957 -14.4968071 -848.876709
v -3.32128906 -37.2244415 -827.833862
v 34.3199768 -56.0488968 -803.623657
v 72.9378357 -71.2192688 -778.098999
v 112.456757 -83.9774628 -755.519043
v -8.82376099 101.808655 -739.241455
v -40.8466797 119.532364 -765.229858
v -36.1028442 87.0728149 -764.264404
v -66.1395874 137.7948 -793.089966
v -67.3600769 107.266235 -789.383789
v -58.8342896 73.4255981 -791.977173
v -85.0484619 155.831879 -822.384033
v -91.2932739 127.39093 -815.853638
v -88.2244263 95.6732941 -815.895264
v -77.0514221 60.7207756 -821.852051
v -98.7582092 172.070267 -853.191528
v -108.926849 146.109406 -844.586792
v -110.359436 116.623627 -842.003906
v -103.870209 83.8498535 -845.703369
v -90.6136169 48.7741585 -854.643799
g 
f 3 1 2
f 5 2 4
f 6 3 5
f 8 4 7
f 9 5 8
f 10 6 9
f 12 7 11
f 13 8 12
f 14 9 13
f 15 10 14
f 17 11 16
f 18 12 17
f 19 13 18
f 20 14 19
f 21 15 20
f 23 16 22
f 24 17 23
f 25 18 24
f 26 19 25
f 27 20 26
f 28 21 27
f 30 22 29
f 31 23 30
f 32 24 31
f 33 25 32
f 34 26 33
f 35 27 34
f 36 28 35
f 3 2 5
f 5 4 8
f 6 5 9
f 8 7 12
f 9 8 13
f 10 9 14
f 12 11 17
f 13 12 18
f 14 13 19
f 15 14 20
f 17 16 23
f 18 17 24
f 19 18 25
f 20 19 26
f 21 20 27
f 23 22 30
f 24 23 31
f 25 24 32
f 26 25 33
f 27 26 34
f 28 27 35
f 37 1 3
f 38 3 6
f 39 37 38
f 40 6 10
f 41 38 40
f 42 39 41
f 43 10 15
f 44 40 43
f 45 41 44
f 46 42 45
f 47 15 21
f 48 43 47
f 49 44 48
f 50 45 49
f 51 46 50
f 52 21 28
f 53 47 52
f 54 48 53
f 55 49 54
f 56 50 55
f 57 51 56
f 58 28 36
f 59 52 58
f 60 53 59
f 61 54 60
f 62 55 61
f 63 56 62
f 64 57 63
f 37 3 38
f 38 6 40
f 39 38 41
f 40 10 43
f 41 40 44
f 42 41 45
f 43 15 47
f 44 43 48
f 45 44 49
f 46 45 50
f 47 21 52
f 48 47 53
f 49 48 54
f 50 49 55
f 51 50 56
f 52 28 58
f 53 52 59
f 54 53 60
f 55 54 61
f 56 55 62
f 57 56 63
f 65 1 37
f 66 37 39
f 67 65 66
f 68 39 42
f 69 66 68
f 70 67 69
f 71 42 46
f 72 68 71
f 73 69 72
f 74 70 73
f 75 46 51
f 76 71 75
f 77 72 76
f 78 73 77
f 79 74 78
f 80 51 57
f 81 75 80
f 82 76 81
f 83 77 82
f 84 78 83
f 85 79 84
f 86 57 64
f 87 80 86
f 88 81 87
f 89 82 88
f 90 83 89
f 91 84 90
f 92 85 91
f 65 37 66
f 66 39 68
f 67 66 69
f 68 42 71
f 69 68 72
f 70 69 73
f 71 46 75
f 72 71 76
f 73 72 77
f 74 73 78
f 75 51 80
f 76 75 81
f 77 76 82
f 78 77 83
f 79 78 84
f 80 57 86
f 81 80 87
f 82 81 88
f 83 82 89
f 84 83 90
f 85 84 91
f 93 1 65
f 94 65 67
f 95 93 94
f 96 67 70
f 97 94 96
f 98 95 97
f 99 70 74
f 100 96 99
f 101 97 100
f 102 98 101
f 103 74 79
f 104 99 103
f 105 100 104
f 106 101 105
f 107 102 106
f 108 79 85
f 109 103 108
f 110 104 109
f 111 105 110
f 112 106 111
f 113 107 112
f 114 85 92
f 115 108 114
f 116 109 115
f 117 110 116
f 118 111 117
f 119 112 118
f 120 113 119
f 93 65 94
f 94 67 96
f 95 94 97
f 96 70 99
f 97 96 100
f 98 97 101
f 99 74 103
f 100 99 104
f 101 100 105
f 102 101 106
f 103 79 108
f 104 103 109
f 105 104 110
f 106 105 111
f 107 106 112
f 108 85 114
f 109 108 115
f 110 109 116
f 111 110 117
f 112 111 118
f 113 112 119
f 2 1 93
f 121 93 95
f 4 2 121
f 122 95 98
f 123 121 122
f 7 4 123
f 124 98 102
f 125 122 124
f 126 123 125
f 11 7 126
f 127 102 107
f 128 124 127
f 129 125 128
f 130 126 129
f 16 11 130
f 131 107 113
f 132 127 131
f 133 128 132
f 134 129 133
f 135 130 134
f 22 16 135
f 136 113 120
f 137 131 136
f 138 132 137
f 139 133 138
f 140 134 139
f 141 135 140
f 29 22 141
f 2 93 121
f 121 95 122
f 4 121 123
f 122 98 124
f 123 122 125
f 7 123 126
f 124 102 127
f 125 124 128
f 126 125 129
f 11 126 130
f 127 107 131
f 128 127 132
f 129 128 133
f 130 129 134
f 16 130 135
f 131 113 136
f 132 131 137
f 133 132 138
f 134 133 139
f 135 134 140
f 22 135 141
f 142 29 141
f 143 141 140
f 144 142 143
f 145 140 139
f 146 143 145
f 147 144 146
f 148 139 138
f 149 145 148
f 150 146 149
f 151 147 150
f 152 138 137
f 153 148 152
f 154 149 153
f 155 150 154
f 156 151 155
f 157 137 136
f 158 152 157
f 159 153 158
f 160 154 159
f 161 155 160
f 162 156 161
f 163 136 120
f 164 157 163
f 165 158 164
f 166 159 165
f 167 160 166
f 168 161 167
f 169 162 168
f 142 141 143
f 143 140 145
f 144 143 146
f 145 139 148
f 146 145 149
f 147 146 150
f 148 138 152
f 149 148 153
f 150 149 154
f 151 150 155
f 152 137 157
f 153 152 158
f 154 153 159
f 155 154 160
f 156 155 161
f 157 136 163
f 158 157 164
f 159 158 165
f 160 159 166
f 161 160 167
f 162 161 168
f 170 120 119
f 171 119 118
f 172 170 171
f 173 118 117
f 174 171 173
f 175 172 174
f 176 117 116
f 177 173 176
f 178 174 177
f 179 175 178
f 180 116 115
f 181 176 180
f 182 177 181
f 183 178 182
f 184 179 183
f 185 115 114
f 186 180 185
f 187 181 186
f 188 182 187
f 189 183 188
f 190 184 189
f 191 114 92
f 192 185 191
f 193 186 192
f 194 187 193
f 195 188 194
f 196 189 195
f 197 190 196
f 170 119 171
f 171 118 173
f 172 171 174
f 173 117 176
f 174 173 177
f 175 174 178
f 176 116 180
f 177 176 181
f 178 177 182
f 179 178 183
f 180 115 185
f 181 180 186
f 182 181 187
f 183 182 188
f 184 183 189
f 185 114 191
f 186 185 192
f 187 186 193
f 188 187 194
f 189 188 195
f 190 189 196
f 198 92 91
f 199 91 90
f 200 198 199
f 201 90 89
f 202 199 201
f 203 200 202
f 204 89 88
f 205 201 204
f 206 202 205
f 207 203 206
f 208 88 87
f 209 204 208
f 210 205 209
f 211 206 210
f 212 207 211
f 213 87 86
f 214 208 213
f 215 209 214
f 216 210 215
f 217 211 216
f 218 212 217
f 219 86 64
f 220 213 219
f 221 214 220
f 222 215 221
f 223 216 222
f 224 217 223
f 225 218 224
f 198 91 199
f 199 90 201
f 200 199 202
f 201 89 204
f 202 201 205
f 203 202 206
f 204 88 208
f 205 204 209
f 206 205 210
f 207 206 211
f 208 87 213
f 209 208 214
f 210 209 215
f 211 210 216
f 212 211 217
f 213 86 219
f 214 213 220
f 215 214 221
f 216 215 222
f 217 216 223
f 218 217 224
f 226 64 63
f 227 63 62
f 228 226 227
f 229 62 61
f 230 227 229
f 231 228 230
f 232 61 60
f 233 229 232
f 234 230 233
f 235 231 234
f 236 60 59
f 237 232 236
f 238 233 237
f 239 234 238
f 240 235 239
f 241 59 58
f 242 236 241
f 243 237 242
f 244 238 243
f 245 239 244
f 246 240 245
f 247 58 36
f 248 241 247
f 249 242 248
f 250 243 249
f 251 244 250
f 252 245 251
f 253 246 252
f 226 63 227
f 227 62 229
f 228 227 230
f 229 61 232
f 230 229 233
f 231 230 234
f 232 60 236
f 233 232 237
f 234 233 238
f 235 234 239
f 236 59 241
f 237 236 242
f 238 237 243
f 239 238 244
f 240 239 245
f 241 58 247
f 242 241 248
f 243 242 249
f 244 243 250
f 245 244 251
f 246 245 252
f 254 36 35
f 255 35 34
f 256 254 255
f 257 34 33
f 258 255 257
f 259 256 258
f 260 33 32
f 261 257 260
f 262 258 261
f 263 259 262
f 264 32 31
f 265 260 264
f 266 261 265
f 267 262 266
f 268 263 267
f 269 31 30
f 270 264 269
f 271 265 270
f 272 266 271
f 273 267 272
f 274 268 273
f 275 30 29
f 276 269 275
f 277 270 276
f 278 271 277
f 279 272 278
f 280 273 279
f 281 274 280
f 254 35 255
f 255 34 257
f 256 255 258
f 257 33 260
f 258 257 261
f 259 258 262
f 260 32 264
f 261 260 265
f 262 261 266
f 263 262 267
f 264 31 269
f 265 264 270
f 266 265 271
f 267 266 272
f 268 267 273
f 269 30 275
f 270 269 276
f 271 270 277
f 272 271 278
f 273 272 279
f 274 273 280
f 275 29 142
f 282 142 144
f 276 275 282
f 283 144 147
f 284 282 283
f 277 276 284
f 285 147 151
f 286 283 285
f 287 284 286
f 278 277 287
f 288 151 156
f 289 285 288
f 290 286 289
f 291 287 290
f 279 278 291
f 292 156 162
f 293 288 292
f 294 289 293
f 295 290 294
f 296 291 295
f 280 279 296
f 297 162 169
f 298 292 297
f 299 293 298
f 300 294 299
f 301 295 300
f 302 296 301
f 281 280 302
f 275 142 282
f 282 144 283
f 276 282 284
f 283 147 285
f 284 283 286
f 277 284 287
f 285 151 288
f 286 285 289
f 287 286 290
f 278 287 291
f 288 156 292
f 289 288 293
f 290 289 294
f 291 290 295
f 279 291 296
f 292 162 297
f 293 292 298
f 294 293 299
f 295 294 300
f 296 295 301
f 280 296 302
f 163 120 170
f 303 170 172
f 164 163 303
f 304 172 175
f 305 303 304
f 165 164 305
f 306 175 179
f 307 304 306
f 308 305 307
f 166 165 308
f 309 179 184
f 310 306 309
f 311 307 310
f 312 308 311
f 167 166 312
f 313 184 190
f 314 309 313
f 315 310 314
f 316 311 315
f 317 312 316
f 168 167 317
f 318 190 197
f 319 313 318
f 320 314 319
f 321 315 320
f 322 316 321
f 323 317 322
f 169 168 323
f 163 170 303
f 303 172 304
f 164 303 305
f 304 175 306
f 305 304 307
f 165 305 308
f 306 179 309
f 307 306 310
f 308 307 311
f 166 308 312
f 309 184 313
f 310 309 314
f 311 310 315
f 312 311 316
f 167 312 317
f 313 190 318
f 314 313 319
f 315 314 320
f 316 315 321
f 317 316 322
f 168 317 323
f 191 92 198
f 324 198 200
f 192 191 324
f 325 200 203
f 326 324 325
f 193 192 326
f 327 203 207
f 328 325 327
f 329 326 328
f 194 193 329
f 330 207 212
f 331 327 330
f 332 328 331
f 333 329 332
f 195 194 333
f 334 212 218
f 335 330 334
f 336 331 335
f 337 332 336
f 338 333 337
f 196 195 338
f 339 218 225
f 340 334 339
f 341 335 340
f 342 336 341
f 343 337 342
f 344 338 343
f 197 196 344
f 191 198 324
f 324 200 325
f 192 324 326
f 325 203 327
f 326 325 328
f 193 326 329
f 327 207 330
f 328 327 331
f 329 328 332
f 194 329 333
f 330 212 334
f 331 330 335
f 332 331 336
f 333 332 337
f 195 333 338
f 334 218 339
f 335 334 340
f 336 335 341
f 337 336 342
f 338 337 343
f 196 338 344
f 219 64 226
f 345 226 228
f 220 219 345
f 346 228 231
f 347 345 346
f 221 220 347
f 348 231 235
f 349 346 348
f 350 347 349
f 222 221 350
f 351 235 240
f 352 348 351
f 353 349 352
f 354 350 353
f 223 222 354
f 355 240 246
f 356 351 355
f 357 352 356
f 358 353 357
f 359 354 358
f 224 223 359
f 360 246 253
f 361 355 360
f 362 356 361
f 363 357 362
f 364 358 363
f 365 359 364
f 225 224 365
f 219 226 345
f 345 228 346
f 220 345 347
f 346 231 348
f 347 346 349
f 221 347 350
f 348 235 351
f 349 348 352
f 350 349 353
f 222 350 354
f 351 240 355
f 352 351 356
f 353 352 357
f 354 353 358
f 223 354 359
f 355 246 360
f 356 355 361
f 357 356 362
f 358 357 363
f 359 358 364
f 224 359 365
f 247 36 254
f 366 254 256
f 248 247 366
f 367 256 259
f 368 366 367
f 249 248 368
f 369 259 263
f 370 367 369
f 371 368 370
f 250 249 371
f 372 263 268
f 373 369 372
f 374 370 373
f 375 371 374
f 251 250 375
f 376 268 274
f 377 372 376
f 378 373 377
f 379 374 378
f 380 375 379
f 252 251 380
f 381 274 281
f 382 376 381
f 383 377 382
f 384 378 383
f 385 379 384
f 386 380 385
f 253 252 386
f 247 254 366
f 366 256 367
f 248 366 368
f 367 259 369
f 368 367 370
f 249 368 371
f 369 263 372
f 370 369 373
f 371 370 374
f 250 371 375
f 372 268 376
f 373 372 377
f 374 373 378
f 375 374 379
f 251 375 380
f 376 274 381
f 377 376 382
f 378 377 383
f 379 378 384
f 380 379 385
f 252 380 386
f 389 387 388
f 391 388 390
f 392 389 391
f 394 390 393
f 395 391 394
f 396 392 395
f 398 393 397
f 399 394 398
f 400 395 399
f 401 396 400
f 403 397 402
f 404 398 403
f 405 399 404
f 406 400 405
f 407 401 406
f 409 402 408
f 410 403 409
f 411 404 410
f 412 405 411
f 413 406 412
f 414 407 413
f 302 408 281
f 301 409 302
f 300 410 301
f 299 411 300
f 298 412 299
f 297 413 298
f 169 414 297
f 389 388 391
f 391 390 394
f 392 391 395
f 394 393 398
f 395 394 399
f 396 395 400
f 398 397 403
f 399 398 404
f 400 399 405
f 401 400 406
f 403 402 409
f 404 403 410
f 405 404 411
f 406 405 412
f 407 406 413
f 409 408 302
f 410 409 301
f 411 410 300
f 412 411 299
f 413 412 298
f 414 413 297
f 388 387 415
f 417 415 416
f 390 388 417
f 419 416 418
f 420 417 419
f 393 390 420
f 422 418 421
f 423 419 422
f 424 420 423
f 397 393 424
f 426 421 425
f 427 422 426
f 428 423 427
f 429 424 428
f 402 397 429
f 431 425 430
f 432 426 431
f 433 427 432
f 434 428 433
f 435 429 434
f 408 402 435
f 386 430 253
f 385 431 386
f 384 432 385
f 383 433 384
f 382 434 383
f 381 435 382
f 281 408 381
f 388 415 417
f 417 416 419
f 390 417 420
f 419 418 422
f 420 419 423
f 393 420 424
f 422 421 426
f 423 422 427
f 424 423 428
f 397 424 429
f 426 425 431
f 427 426 432
f 428 427 433
f 429 428 434
f 402 429 435
f 431 430 386
f 432 431 385
f 433 432 384
f 434 433 383
f 435 434 382
f 408 435 381
f 415 387 436
f 438 436 437
f 416 415 438
f 440 437 439
f 441 438 440
f 418 416 441
f 443 439 442
f 444 440 443
f 445 441 444
f 421 418 445
f 447 442 446
f 448 443 447
f 449 444 448
f 450 445 449
f 425 421 450
f 452 446 451
f 453 447 452
f 454 448 453
f 455 449 454
f 456 450 455
f 430 425 456
f 365 451 225
f 364 452 365
f 363 453 364
f 362 454 363
f 361 455 362
f 360 456 361
f 253 430 360
f 415 436 438
f 438 437 440
f 416 438 441
f 440 439 443
f 441 440 444
f 418 441 445
f 443 442 447
f 444 443 448
f 445 444 449
f 421 445 450
f 447 446 452
f 448 447 453
f 449 448 454
f 450 449 455
f 425 450 456
f 452 451 365
f 453 452 364
f 454 453 363
f 455 454 362
f 456 455 361
f 430 456 360
f 436 387 457
f 459 457 458
f 437 436 459
f 461 458 460
f 462 459 461
f 439 437 462
f 464 460 463
f 465 461 464
f 466 462 465
f 442 439 466
f 468 463 467
f 469 464 468
f 470 465 469
f 471 466 470
f 446 442 471
f 473 467 472
f 474 468 473
f 475 469 474
f 476 470 475
f 477 471 476
f 451 446 477
f 344 472 197
f 343 473 344
f 342 474 343
f 341 475 342
f 340 476 341
f 339 477 340
f 225 451 339
f 436 457 459
f 459 458 461
f 437 459 462
f 461 460 464
f 462 461 465
f 439 462 466
f 464 463 468
f 465 464 469
f 466 465 470
f 442 466 471
f 468 467 473
f 469 468 474
f 470 469 475
f 471 470 476
f 446 471 477
f 473 472 344
f 474 473 343
f 475 474 342
f 476 475 341
f 477 476 340
f 451 477 339
f 457 387 389
f 478 389 392
f 458 457 478
f 479 392 396
f 480 478 479
f 460 458 480
f 481 396 401
f 482 479 481
f 483 480 482
f 463 460 483
f 484 401 407
f 485 481 484
f 486 482 485
f 487 483 486
f 467 463 487
f 488 407 414
f 489 484 488
f 490 485 489
f 491 486 490
f 492 487 491
f 472 467 492
f 323 414 169
f 322 488 323
f 321 489 322
f 320 490 321
f 319 491 320
f 318 492 319
f 197 472 318
f 457 389 478
f 478 392 479
f 458 478 480
f 479 396 481
f 480 479 482
f 460 480 483
f 481 401 484
f 482 481 485
f 483 482 486
f 463 483 487
f 484 407 488
f 485 484 489
f 486 485 490
f 487 486 491
f 467 487 492
f 488 414 323
f 489 488 322
f 490 489 321
f 491 490 320
f 492 491 319
f 472 492 318
