# File exported by Houdini 20.5.445 (www.sidefx.com)
# 492 points
# 2940 vertices
# 980 primitives
# Bounds: [-217.956787, -251.107452, -997.188354] to [388.730682, 367.484558, -757.612671]
g 
v 106.372772 20.3251762 -992.498901
v 100.324799 50.8302803 -984.091309
v 148.227448 38.9529076 -985.728638
v 92.5350647 82.0383453 -969.640625
v 143.375519 72.4840851 -975.996338
v 190.717255 58.0123787 -973.956421
v 83.8895569 115.4384 -952.409668
v 135.056183 106.055527 -961.421753
v 184.404938 94.2572937 -963.145142
v 231.847565 78.4514008 -956.818726
v 75.4855042 151.292831 -934.943481
v 125.383148 141.463776 -945.032471
v 174.007965 129.986008 -948.705933
v 222.803436 117.380295 -945.380981
v 269.288971 100.66774 -935.662842
v 67.874176 188.725449 -918.600708
v 116.18631 179.21286 -927.772949
v 162.803131 167.354126 -932.651978
v 210.402924 155.250473 -931.278687
v 258.306732 142.089737 -924.194214
v 301.931671 123.549408 -912.840088
v 62.4514465 225.921829 -903.967529
v 109.120148 218.591782 -910.404907
v 153.719452 207.299759 -915.153198
v 199.159821 194.923553 -915.2771
v 245.983002 182.203964 -910.326782
v 291.511932 166.909607 -901.635864
v 330.08017 144.492081 -891.106079
v 60.2458801 261.709412 -891.058228
v 104.660675 258.600769 -894.422729
v 148.51059 250.000381 -897.137939
v 192.723053 237.995071 -897.66626
v 238.161713 224.360764 -894.462891
v 283.049103 208.676697 -888.150391
v 323.209991 188.330063 -880.252075
v 353.832428 160.594574 -872.348999
v 135.89975 0.543869019 -990.621704
v 182.551727 19.5762024 -980.085449
v 162.483124 -21.2644997 -983.017578
v 227.660553 38.3608665 -963.65979
v 210.092255 -1.88503265 -967.544067
v 185.001007 -45.5693054 -970.839233
v 269.101532 58.3056679 -942.906616
v 254.39505 16.7644234 -947.284668
v 231.087494 -25.728878 -951.037476
v 202.772003 -71.4180756 -954.851929
v 305.295624 79.4583588 -919.913452
v 294.391083 35.907917 -924.780273
v 273.400604 -7.35864258 -928.66626
v 246.303619 -51.4078293 -932.599487
v 215.437714 -97.620575 -936.026978
v 335.744904 100.553162 -896.928955
v 329.18515 55.3698921 -901.859253
v 311.65506 10.3092422 -905.911377
v 286.190887 -34.2516174 -909.68396
v 255.88089 -78.7074432 -913.096802
v 222.71463 -123.376663 -915.155151
v 360.891693 118.752106 -875.845093
v 358.197113 73.7099915 -880.091797
v 344.93161 27.0242157 -884.12439
v 322.114105 -19.4591484 -887.628418
v 292.541901 -64.413765 -890.608521
v 259.365204 -107.370834 -892.717407
v 224.705841 -147.819199 -893.309814
v 84.773407 -11.0634003 -996.454834
v 113.892853 -36.409668 -992.456787
v 65.7198181 -44.6358795 -997.188354
v 139.237274 -63.0441895 -983.842285
v 95.3778992 -74.4501343 -990.997803
v 48.8652649 -78.8811035 -994.21167
v 160.128937 -90.5438385 -971.386475
v 119.883087 -104.065247 -980.295044
v 78.0117493 -111.38266 -984.993042
v 31.8829651 -110.517441 -986.122681
v 175.989655 -118.074234 -954.35437
v 138.887115 -133.0168 -965.594116
v 100.517853 -142.101013 -970.930298
v 58.4759827 -143.967636 -973.24646
v 12.2430725 -136.491714 -972.555786
v 186.187653 -144.838608 -932.437012
v 151.469147 -161.009216 -945.317871
v 115.798676 -171.304031 -952.067505
v 76.8058167 -174.5849 -954.823608
v 33.9577942 -169.628525 -955.754883
v -11.5365906 -154.941513 -954.352295
v 190.525482 -170.183548 -906.504272
v 157.020477 -187.748871 -918.410522
v 122.623627 -199.185425 -926.517456
v 85.5837708 -203.330902 -930.41748
v 45.1950989 -199.40271 -932.258545
v 2.91641235 -186.851089 -933.401367
v -39.1477966 -166.052994 -933.187378
v 62.5538025 20.9795723 -991.411499
v 39.1429138 -12.2254791 -995.496582
v 20.2542419 22.3217278 -984.445435
v 19.8598938 -45.151123 -994.932617
v -2.89724731 -11.1447678 -987.053223
v -19.7312317 26.231945 -971.403809
v 2.98764038 -76.1313019 -989.764038
v -21.4494324 -41.8122711 -984.248901
v -41.4225159 -5.73859787 -971.552734
v -56.7983704 35.014843 -953.627808
v -14.5951843 -102.638687 -979.262939
v -38.5012512 -68.4181824 -976.69043
v -59.3287048 -32.7723465 -966.522095
v -76.8571472 6.06077576 -951.304565
v -91.1089172 50.1370506 -933.897705
v -35.7173157 -122.548691 -963.266113
v -57.7533875 -88.9373398 -963.791382
v -77.6065979 -53.6601257 -956.641113
v -95.079071 -15.6819611 -944.134521
v -109.990326 26.1742935 -929.348755
v -122.658356 71.8916626 -914.326294
v -61.7072449 -135.272141 -942.403931
v -82.0723572 -102.200638 -945.164185
v -100.161469 -66.9775009 -941.062134
v -116.040558 -29.2052231 -931.671631
v -129.69693 11.633812 -919.858398
v -141.316742 54.9638252 -907.6073
v -150.435577 98.910965 -895.760986
v 52.7125549 54.2437935 -977.378418
v 8.74990845 58.5996666 -965.739136
v 43.1752625 87.8961182 -958.588257
v -32.0989685 66.2133636 -950.293213
v -1.64572144 95.1127777 -944.852539
v 34.2886047 123.365524 -939.474609
v -70.6474915 79.048584 -932.779541
v -44.1272278 106.330841 -929.611206
v -11.6950989 133.16507 -926.112915
v 25.8266296 160.842194 -922.501465
v -106.812653 98.085144 -914.689087
v -84.5337219 123.318756 -913.589111
v -55.4471741 148.183533 -911.97998
v -20.5254211 173.462936 -910.266846
v 18.9840393 199.787201 -907.790894
v -139.266022 123.725922 -896.032959
v -121.456512 147.264404 -896.353638
v -95.8924255 170.272034 -896.255737
v -63.1500549 193.140869 -896.085571
v -25.0071106 216.215973 -895.581665
v 16.6567078 239.323593 -894.061279
v 34.1672058 282.100586 -881.015381
v -14.1499939 259.429565 -881.619507
v 11.9332581 300.181427 -869.451782
v -58.3280945 237.55397 -881.118408
v -38.8028259 277.588928 -867.632812
v -8.25289917 315.608673 -856.395264
v -97.0329895 216.073486 -880.223267
v -83.9944153 256.727722 -865.574951
v -60.4665833 293.37854 -852.894043
v -29.9833069 327.606323 -843.747925
v -128.709747 194.133423 -879.294678
v -122.872467 235.833694 -863.763794
v -106.600739 272.639954 -850.022705
v -83.4829407 305.83963 -839.383789
v -55.1062927 335.398529 -832.839722
v -152.278107 170.510193 -878.382935
v -154.223846 212.913193 -862.113647
v -145.954559 250.462204 -847.455933
v -130.214813 284.094055 -835.871094
v -108.81546 313.696838 -827.911621
v -82.6304016 337.862793 -824.044434
v -167.55484 143.253967 -878.065063
v -176.883667 185.111176 -861.215332
v -177.186127 223.098648 -845.706665
v -169.590881 257.683899 -833.110474
v -155.177246 288.561981 -824.182129
v -134.873688 314.422729 -819.004883
v -109.772369 333.472595 -817.414795
v -169.572449 100.104263 -884.962769
v -160.799622 51.9434013 -896.317505
v -185.185455 98.4496765 -874.434204
v -150.33847 6.07950211 -906.76355
v -176.975586 47.234684 -884.891113
v -197.200409 92.9350433 -863.759521
v -138.083466 -36.5977249 -916.082886
v -167.838104 -0.548437119 -893.633423
v -190.276611 39.2472954 -873.185303
v -206.497559 84.8108215 -853.603882
v -123.394684 -76.5046692 -922.661743
v -157.175842 -45.4622803 -900.97229
v -183.056793 -10.7488251 -880.979736
v -201.509003 28.7757187 -862.388184
v -213.536499 75.6203766 -844.885864
v -105.236969 -114.789902 -923.910522
v -143.053925 -88.793335 -905.019165
v -173.174103 -58.9295578 -886.4375
v -194.935089 -23.995388 -868.932373
v -208.877838 17.7899055 -852.875854
v -215.143951 65.9842377 -838.145142
v -82.2222595 -152.079117 -918.19751
v -122.653168 -132.064453 -902.888428
v -156.924133 -107.255722 -887.227173
v -182.753357 -76.3993988 -871.644043
v -199.481995 -37.9556656 -857.383301
v -207.447754 7.01473236 -844.87793
v -208.153351 55.9524727 -833.81958
v -43.2392273 -188.025467 -911.071167
v 2.06484985 -210.835754 -908.261597
v -47.7759094 -207.442154 -887.982422
v 45.6399841 -223.402496 -905.880859
v -0.401153564 -229.600739 -883.719116
v -51.9717712 -222.626755 -864.766357
v 86.4109192 -226.593918 -902.762329
v 43.7452698 -240.650696 -880.407471
v -3.89401245 -242.46756 -859.584473
v -55.7181702 -230.697662 -841.041992
v 124.499786 -220.843933 -897.200684
v 85.4092712 -241.69278 -875.920654
v 40.7818298 -250.666504 -855.224487
v -7.77883911 -247.169189 -834.993652
v -57.1565247 -230.729797 -817.359619
v 161.558685 -206.522034 -888.3573
v 126.078339 -232.837494 -868.869019
v 84.2357483 -247.870026 -849.106812
v 37.9510193 -251.107452 -829.424805
v -9.44186401 -242.664886 -810.825684
v -53.735199 -222.748245 -795.337402
v 199.855682 -183.962692 -878.084839
v 168.345551 -213.443634 -860.757935
v 129.511627 -233.22644 -842.194336
v 85.125946 -242.105591 -823.214233
v 38.6885071 -240.216766 -805.052002
v -5.53695679 -228.248505 -789.043335
v -43.686554 -207.028198 -776.910522
v 244.914032 -145.58844 -873.419067
v 285.288544 -100.830627 -873.574463
v 262.472015 -138.965256 -857.770142
v 320.923004 -54.043045 -872.400635
v 306.079254 -90.1929016 -859.860718
v 275.644928 -125.938217 -846.540283
v 349.819916 -5.25924301 -869.94458
v 341.49704 -39.7130585 -859.583618
v 319.995819 -73.8208771 -850.052734
v 282.850067 -106.033569 -838.540527
v 369.685883 44.7438087 -866.150391
v 368.008636 12.1582222 -856.543091
v 353.65799 -20.8078156 -848.932861
v 325.918793 -52.0537186 -841.35376
v 283.243744 -80.2355194 -831.493042
v 378.81308 94.9902039 -861.764038
v 384.082123 65.5827332 -851.702637
v 376.604828 34.046627 -844.299683
v 356.261871 3.19063568 -838.203247
v 322.878693 -25.1323242 -832.001953
v 276.750946 -49.8630219 -823.74707
v 376.935516 144.333145 -858.538086
v 388.730682 120.476761 -847.389771
v 388.075897 92.0041351 -838.784668
v 374.386566 62.0657463 -832.19397
v 348.086334 33.1196632 -826.929688
v 310.518219 6.77757645 -821.854492
v 264.147919 -15.7918854 -815.256836
v 357.764496 191.857925 -861.157227
v 323.399811 223.599167 -868.391724
v 357.593109 219.851486 -852.004883
v 280.41098 246.704666 -875.415283
v 319.881012 254.302505 -859.771118
v 350.952423 244.17421 -845.161987
v 233.572052 265.014404 -880.452148
v 274.022064 279.894043 -866.560059
v 309.708588 280.694336 -853.987671
v 335.481476 264.262756 -840.840454
v 186.354401 280.077087 -882.436035
v 225.269318 300.236572 -870.206787
v 261.704254 308.326172 -859.848267
v 291.65097 302.064667 -849.985107
v 311.442535 279.481262 -838.463501
v 138.873322 290.65625 -882.317017
v 174.977386 315.256439 -871.211914
v 210.231659 329.41571 -861.907471
v 241.355988 330.620697 -854.301514
v 265.439117 317.180695 -846.846436
v 279.365936 290.390015 -837.309937
v 89.4303894 294.62796 -881.18042
v 121.702789 322.476746 -871.459961
v 154.503265 342.407684 -862.387573
v 185.276581 350.842194 -855.054321
v 211.659882 345.300293 -849.453491
v 230.840851 326.710724 -843.869751
v 240.675079 299.092773 -836.187988
v 66.150177 316.9888 -871.174927
v 45.6590881 334.260437 -860.048706
v 98.4793396 343.619995 -862.21936
v 24.6508484 346.554474 -848.468262
v 76.6947327 357.539734 -852.425171
v 129.220001 359.719025 -854.500732
v -0.578826904 353.633026 -838.136597
v 52.1524353 364.437531 -843.135742
v 104.25119 367.484558 -846.716797
v 156.942535 362.012695 -848.661499
v -30.8129578 354.907135 -829.422607
v 21.7001038 364.341003 -835.287964
v 74.5850525 366.628937 -839.995972
v 127.35611 362.098206 -842.78064
v 179.486969 349.157715 -844.242798
v -64.2529602 349.026764 -822.095947
v -14.8132629 356.809296 -828.253296
v 37.426239 357.619385 -834.063354
v 90.9701843 352.505035 -837.812256
v 143.843414 341.525818 -839.140869
v 194.093414 323.439453 -838.815308
v -186.904877 146.305038 -865.510498
v -200.755798 144.146652 -854.43457
v -195.568726 187.131348 -847.893066
v -210.319122 138.627319 -844.635498
v -208.403137 184.635391 -837.587891
v -196.107819 224.33992 -833.327393
v -216.226807 131.153458 -836.032959
v -215.87854 179.551392 -829.099243
v -208.004852 221.946365 -824.283691
v -188.624817 258.48822 -822.395264
v -217.956787 121.860214 -829.055664
v -217.873505 171.978348 -821.73645
v -212.767334 216.77179 -817.027954
v -198.593231 255.927719 -814.660034
v -172.887085 288.641113 -815.333252
v -211.553986 110.765427 -825.055298
v -212.335083 161.623764 -816.891357
v -209.338837 208.103531 -811.190552
v -199.162231 249.59877 -808.77356
v -179.042328 284.79718 -809.260376
v -148.811554 312.817596 -812.403687
v -90.429718 -173.431427 -896.076294
v -96.2909241 -191.333328 -873.53064
v -130.899811 -152.804657 -882.26062
v -99.9806824 -202.794693 -849.907837
v -134.972687 -167.242783 -860.545654
v -162.509399 -125.14299 -868.564819
v -100.477142 -206.493332 -825.516235
v -134.828827 -173.919144 -837.227905
v -162.149048 -134.160385 -848.50293
v -183.725525 -88.5712433 -855.661011
v -95.6211243 -202.032181 -801.670166
v -129.063446 -172.296204 -813.02832
v -155.593964 -134.162292 -826.864502
v -176.985107 -89.9618683 -838.484253
v -194.396057 -42.2142487 -844.650391
v -82.9501648 -188.949203 -780.266479
v -115.279449 -161.307343 -789.862427
v -141.168243 -124.103821 -804.696533
v -162.213196 -80.0681763 -820.133179
v -180.201843 -33.2682419 -831.072144
v -195.837067 12.7891884 -835.195068
v 214.840607 -181.464874 -857.116577
v 225.894073 -171.473801 -841.723633
v 177.480927 -206.810715 -839.484985
v 232.689667 -153.604828 -831.155029
v 182.869049 -191.350067 -824.545044
v 133.74704 -220.96228 -821.001343
v 234.59848 -128.229996 -823.75293
v 184.941864 -167.790192 -814.410278
v 135.21109 -199.79718 -806.450806
v 86.2272034 -224.346664 -802.46936
v 231.04837 -96.0337982 -817.532349
v 183.261444 -136.37262 -807.0354
v 134.255829 -170.367569 -796.421753
v 85.4151917 -197.623688 -788.196167
v 38.330719 -217.351578 -785.115601
v 221.822052 -57.334465 -810.414551
v 176.972015 -96.6828766 -800.872559
v 130.147125 -131.723068 -788.848022
v 82.6862488 -161.276642 -778.190308
v 36.5453186 -184.231598 -771.369385
v -6.11453247 -199.62381 -770.629517
v 380.276947 173.743622 -847.483032
v 376.546112 198.603592 -838.614258
v 387.752411 148.382141 -836.514038
v 364.420746 219.243286 -831.781616
v 377.575531 171.20874 -827.702759
v 380.628143 119.359833 -827.917114
v 342.709381 235.71315 -827.412354
v 358.562103 189.66629 -820.51062
v 362.848114 141.105804 -818.951904
v 359.45285 89.3057556 -821.363403
v 310.501678 248.829697 -825.731445
v 328.799225 204.711121 -815.901489
v 335.12674 158.427597 -811.617554
v 333.266266 110.132278 -812.193359
v 325.008087 59.7211571 -816.119263
v 267.447845 261.023376 -826.127686
v 285.703949 218.968246 -814.815186
v 294.116913 174.017242 -807.202148
v 294.103241 127.276978 -804.952271
v 288.248993 79.9229736 -806.607544
v 277.958771 32.2787743 -810.720093
v -23.1575623 143.527374 -805.206543
v 7.73812866 174.479919 -809.106079
v -41.4877014 193.508255 -813.036377
v 44.3163757 202.348618 -813.257568
v -8.96286011 225.170822 -816.985107
v -60.3077087 236.330215 -815.906494
v 85.98349 227.289078 -816.67627
v 29.0480652 251.386429 -821.04541
v -25.2345886 265.908142 -820.328247
v -78.2779236 271.324768 -815.785278
v 130.686188 248.790909 -819.679565
v 71.618988 273.572815 -824.599731
v 14.9601746 289.329773 -824.936523
v -39.8799133 298.296753 -821.103149
v -93.2093811 299.246429 -814.604248
v 174.283356 267.286072 -823.920776
v 116.213531 292.443878 -828.574585
v 58.8482971 308.793976 -829.746704
v 2.88339233 319.265656 -826.836792
v -51.2104797 323.923004 -820.815552
v -103.036591 320.092438 -813.983032
v 212.205719 283.94397 -829.718018
v 158.854523 308.855621 -833.301392
v 103.618622 326.074341 -834.498291
v 47.9862366 336.862671 -832.715576
v -6.50717163 342.59259 -827.662354
v -58.7079773 341.871704 -820.946289
v -107.86264 332.084717 -814.91748
v 12.8409729 110.131226 -795.808716
v 50.8319397 77.6289978 -786.953247
v 51.8694763 142.658966 -800.974854
v 90.9972229 49.2725868 -783.345825
v 96.2868958 112.724045 -793.975952
v 95.2790222 171.704117 -805.721191
v 133.413483 26.8678055 -786.672241
v 141.430145 86.548645 -791.837769
v 144.966095 142.868668 -799.433838
v 142.007721 197.098572 -809.203735
v 177.669037 9.20847321 -794.550415
v 187.395844 64.8847961 -794.802979
v 193.709259 117.703339 -797.549316
v 194.946747 169.384277 -803.505737
v 189.116791 219.587997 -812.754028
v 222.063446 -4.89086151 -804.69519
v 233.44986 46.9752388 -801.469604
v 241.698517 96.7480164 -799.969849
v 245.547455 145.839752 -801.82666
v 243.211578 194.171432 -807.844849
v 232.272614 240.538834 -818.416504
v -28.5190125 88.2343597 -795.562622
v -32.9040222 29.6523972 -784.114624
v 7.52462769 48.2170677 -782.819214
v -38.5691223 -29.1989517 -772.1698
v 3.40322876 -12.1132202 -771.076538
v 45.0923767 13.8865814 -775.084229
v -45.7585754 -84.9206161 -762.693848
v -1.71963501 -68.5547714 -762.026855
v 41.3233337 -44.3277206 -767.101562
v 85.1706238 -12.6622009 -775.967896
v -51.4886169 -134.308533 -759.34668
v -7.36087036 -119.344772 -757.612671
v 37.4615173 -96.707489 -763.127075
v 82.3362732 -67.5463486 -772.782349
v 128.177704 -31.9796944 -784.332764
v -51.7306824 -175.070145 -764.332397
v -10.1269226 -163.148819 -760.151611
v 34.5951843 -143.448883 -763.889038
v 80.8465881 -116.929184 -773.018433
v 127.294708 -84.4336548 -784.813599
v 174.056366 -46.4926605 -796.674683
v -60.1090393 142.907913 -808.324463
v -93.2651062 139.865875 -811.104614
v -64.8417664 82.8792877 -800.426147
v -123.57663 132.947403 -813.597168
v -96.9764709 76.0857697 -805.588745
v -70.2156677 21.1037598 -789.756714
v -151.39743 120.65921 -816.643677
v -126.776031 66.3782349 -811.630249
v -103.185516 11.8512497 -797.444336
v -77.7967224 -39.9293976 -778.704956
v -175.902924 102.691528 -820.755981
v -154.091064 52.4276009 -818.579956
v -132.958649 0.230384827 -807.123291
v -111.146759 -51.0147324 -789.329468
v -85.4707336 -97.2887421 -771.115601
v -195.490295 80.2902679 -826.338501
v -177.802551 34.1007576 -826.355591
v -159.087555 -14.8779984 -818.450562
v -139.505646 -64.1553192 -803.301514
v -117.050201 -109.899689 -785.376709
v -88.8054504 -147.801895 -770.901245
v -82.9739075 194.685059 -813.326416
v -105.044464 235.857864 -812.826416
v -118.588287 191.085617 -812.95105
v -124.482208 267.631531 -810.617432
v -141.764069 229.010422 -810.233643
v -149.469208 181.115509 -812.567749
v -139.017975 291.622803 -808.858154
v -160.923767 256.529907 -807.280884
v -172.018982 214.288101 -808.786255
v -175.953766 163.815613 -813.642578
v -146.861298 307.377838 -809.343506
v -173.839264 275.403076 -806.382202
v -189.412781 236.563187 -806.693359
v -196.031433 191.435898 -810.303589
v -197.245331 139.857559 -817.584595
g 
f 3 1 2
f 5 2 4
f 6 3 5
f 8 4 7
f 9 5 8
f 10 6 9
f 12 7 11
f 13 8 12
f 14 9 13
f 15 10 14
f 17 11 16
f 18 12 17
f 19 13 18
f 20 14 19
f 21 15 20
f 23 16 22
f 24 17 23
f 25 18 24
f 26 19 25
f 27 20 26
f 28 21 27
f 30 22 29
f 31 23 30
f 32 24 31
f 33 25 32
f 34 26 33
f 35 27 34
f 36 28 35
f 3 2 5
f 5 4 8
f 6 5 9
f 8 7 12
f 9 8 13
f 10 9 14
f 12 11 17
f 13 12 18
f 14 13 19
f 15 14 20
f 17 16 23
f 18 17 24
f 19 18 25
f 20 19 26
f 21 20 27
f 23 22 30
f 24 23 31
f 25 24 32
f 26 25 33
f 27 26 34
f 28 27 35
f 37 1 3
f 38 3 6
f 39 37 38
f 40 6 10
f 41 38 40
f 42 39 41
f 43 10 15
f 44 40 43
f 45 41 44
f 46 42 45
f 47 15 21
f 48 43 47
f 49 44 48
f 50 45 49
f 51 46 50
f 52 21 28
f 53 47 52
f 54 48 53
f 55 49 54
f 56 50 55
f 57 51 56
f 58 28 36
f 59 52 58
f 60 53 59
f 61 54 60
f 62 55 61
f 63 56 62
f 64 57 63
f 37 3 38
f 38 6 40
f 39 38 41
f 40 10 43
f 41 40 44
f 42 41 45
f 43 15 47
f 44 43 48
f 45 44 49
f 46 45 50
f 47 21 52
f 48 47 53
f 49 48 54
f 50 49 55
f 51 50 56
f 52 28 58
f 53 52 59
f 54 53 60
f 55 54 61
f 56 55 62
f 57 56 63
f 65 1 37
f 66 37 39
f 67 65 66
f 68 39 42
f 69 66 68
f 70 67 69
f 71 42 46
f 72 68 71
f 73 69 72
f 74 70 73
f 75 46 51
f 76 71 75
f 77 72 76
f 78 73 77
f 79 74 78
f 80 51 57
f 81 75 80
f 82 76 81
f 83 77 82
f 84 78 83
f 85 79 84
f 86 57 64
f 87 80 86
f 88 81 87
f 89 82 88
f 90 83 89
f 91 84 90
f 92 85 91
f 65 37 66
f 66 39 68
f 67 66 69
f 68 42 71
f 69 68 72
f 70 69 73
f 71 46 75
f 72 71 76
f 73 72 77
f 74 73 78
f 75 51 80
f 76 75 81
f 77 76 82
f 78 77 83
f 79 78 84
f 80 57 86
f 81 80 87
f 82 81 88
f 83 82 89
f 84 83 90
f 85 84 91
f 93 1 65
f 94 65 67
f 95 93 94
f 96 67 70
f 97 94 96
f 98 95 97
f 99 70 74
f 100 96 99
f 101 97 100
f 102 98 101
f 103 74 79
f 104 99 103
f 105 100 104
f 106 101 105
f 107 102 106
f 108 79 85
f 109 103 108
f 110 104 109
f 111 105 110
f 112 106 111
f 113 107 112
f 114 85 92
f 115 108 114
f 116 109 115
f 117 110 116
f 118 111 117
f 119 112 118
f 120 113 119
f 93 65 94
f 94 67 96
f 95 94 97
f 96 70 99
f 97 96 100
f 98 97 101
f 99 74 103
f 100 99 104
f 101 100 105
f 102 101 106
f 103 79 108
f 104 103 109
f 105 104 110
f 106 105 111
f 107 106 112
f 108 85 114
f 109 108 115
f 110 109 116
f 111 110 117
f 112 111 118
f 113 112 119
f 2 1 93
f 121 93 95
f 4 2 121
f 122 95 98
f 123 121 122
f 7 4 123
f 124 98 102
f 125 122 124
f 126 123 125
f 11 7 126
f 127 102 107
f 128 124 127
f 129 125 128
f 130 126 129
f 16 11 130
f 131 107 113
f 132 127 131
f 133 128 132
f 134 129 133
f 135 130 134
f 22 16 135
f 136 113 120
f 137 131 136
f 138 132 137
f 139 133 138
f 140 134 139
f 141 135 140
f 29 22 141
f 2 93 121
f 121 95 122
f 4 121 123
f 122 98 124
f 123 122 125
f 7 123 126
f 124 102 127
f 125 124 128
f 126 125 129
f 11 126 130
f 127 107 131
f 128 127 132
f 129 128 133
f 130 129 134
f 16 130 135
f 131 113 136
f 132 131 137
f 133 132 138
f 134 133 139
f 135 134 140
f 22 135 141
f 142 29 141
f 143 141 140
f 144 142 143
f 145 140 139
f 146 143 145
f 147 144 146
f 148 139 138
f 149 145 148
f 150 146 149
f 151 147 150
f 152 138 137
f 153 148 152
f 154 149 153
f 155 150 154
f 156 151 155
f 157 137 136
f 158 152 157
f 159 153 158
f 160 154 159
f 161 155 160
f 162 156 161
f 163 136 120
f 164 157 163
f 165 158 164
f 166 159 165
f 167 160 166
f 168 161 167
f 169 162 168
f 142 141 143
f 143 140 145
f 144 143 146
f 145 139 148
f 146 145 149
f 147 146 150
f 148 138 152
f 149 148 153
f 150 149 154
f 151 150 155
f 152 137 157
f 153 152 158
f 154 153 159
f 155 154 160
f 156 155 161
f 157 136 163
f 158 157 164
f 159 158 165
f 160 159 166
f 161 160 167
f 162 161 168
f 170 120 119
f 171 119 118
f 172 170 171
f 173 118 117
f 174 171 173
f 175 172 174
f 176 117 116
f 177 173 176
f 178 174 177
f 179 175 178
f 180 116 115
f 181 176 180
f 182 177 181
f 183 178 182
f 184 179 183
f 185 115 114
f 186 180 185
f 187 181 186
f 188 182 187
f 189 183 188
f 190 184 189
f 191 114 92
f 192 185 191
f 193 186 192
f 194 187 193
f 195 188 194
f 196 189 195
f 197 190 196
f 170 119 171
f 171 118 173
f 172 171 174
f 173 117 176
f 174 173 177
f 175 174 178
f 176 116 180
f 177 176 181
f 178 177 182
f 179 178 183
f 180 115 185
f 181 180 186
f 182 181 187
f 183 182 188
f 184 183 189
f 185 114 191
f 186 185 192
f 187 186 193
f 188 187 194
f 189 188 195
f 190 189 196
f 198 92 91
f 199 91 90
f 200 198 199
f 201 90 89
f 202 199 201
f 203 200 202
f 204 89 88
f 205 201 204
f 206 202 205
f 207 203 206
f 208 88 87
f 209 204 208
f 210 205 209
f 211 206 210
f 212 207 211
f 213 87 86
f 214 208 213
f 215 209 214
f 216 210 215
f 217 211 216
f 218 212 217
f 219 86 64
f 220 213 219
f 221 214 220
f 222 215 221
f 223 216 222
f 224 217 223
f 225 218 224
f 198 91 199
f 199 90 201
f 200 199 202
f 201 89 204
f 202 201 205
f 203 202 206
f 204 88 208
f 205 204 209
f 206 205 210
f 207 206 211
f 208 87 213
f 209 208 214
f 210 209 215
f 211 210 216
f 212 211 217
f 213 86 219
f 214 213 220
f 215 214 221
f 216 215 222
f 217 216 223
f 218 217 224
f 226 64 63
f 227 63 62
f 228 226 227
f 229 62 61
f 230 227 229
f 231 228 230
f 232 61 60
f 233 229 232
f 234 230 233
f 235 231 234
f 236 60 59
f 237 232 236
f 238 233 237
f 239 234 238
f 240 235 239
f 241 59 58
f 242 236 241
f 243 237 242
f 244 238 243
f 245 239 244
f 246 240 245
f 247 58 36
f 248 241 247
f 249 242 248
f 250 243 249
f 251 244 250
f 252 245 251
f 253 246 252
f 226 63 227
f 227 62 229
f 228 227 230
f 229 61 232
f 230 229 233
f 231 230 234
f 232 60 236
f 233 232 237
f 234 233 238
f 235 234 239
f 236 59 241
f 237 236 242
f 238 237 243
f 239 238 244
f 240 239 245
f 241 58 247
f 242 241 248
f 243 242 249
f 244 243 250
f 245 244 251
f 246 245 252
f 254 36 35
f 255 35 34
f 256 254 255
f 257 34 33
f 258 255 257
f 259 256 258
f 260 33 32
f 261 257 260
f 262 258 261
f 263 259 262
f 264 32 31
f 265 260 264
f 266 261 265
f 267 262 266
f 268 263 267
f 269 31 30
f 270 264 269
f 271 265 270
f 272 266 271
f 273 267 272
f 274 268 273
f 275 30 29
f 276 269 275
f 277 270 276
f 278 271 277
f 279 272 278
f 280 273 279
f 281 274 280
f 254 35 255
f 255 34 257
f 256 255 258
f 257 33 260
f 258 257 261
f 259 258 262
f 260 32 264
f 261 260 265
f 262 261 266
f 263 262 267
f 264 31 269
f 265 264 270
f 266 265 271
f 267 266 272
f 268 267 273
f 269 30 275
f 270 269 276
f 271 270 277
f 272 271 278
f 273 272 279
f 274 273 280
f 275 29 142
f 282 142 144
f 276 275 282
f 283 144 147
f 284 282 283
f 277 276 284
f 285 147 151
f 286 283 285
f 287 284 286
f 278 277 287
f 288 151 156
f 289 285 288
f 290 286 289
f 291 287 290
f 279 278 291
f 292 156 162
f 293 288 292
f 294 289 293
f 295 290 294
f 296 291 295
f 280 279 296
f 297 162 169
f 298 292 297
f 299 293 298
f 300 294 299
f 301 295 300
f 302 296 301
f 281 280 302
f 275 142 282
f 282 144 283
f 276 282 284
f 283 147 285
f 284 283 286
f 277 284 287
f 285 151 288
f 286 285 289
f 287 286 290
f 278 287 291
f 288 156 292
f 289 288 293
f 290 289 294
f 291 290 295
f 279 291 296
f 292 162 297
f 293 292 298
f 294 293 299
f 295 294 300
f 296 295 301
f 280 296 302
f 163 120 170
f 303 170 172
f 164 163 303
f 304 172 175
f 305 303 304
f 165 164 305
f 306 175 179
f 307 304 306
f 308 305 307
f 166 165 308
f 309 179 184
f 310 306 309
f 311 307 310
f 312 308 311
f 167 166 312
f 313 184 190
f 314 309 313
f 315 310 314
f 316 311 315
f 317 312 316
f 168 167 317
f 318 190 197
f 319 313 318
f 320 314 319
f 321 315 320
f 322 316 321
f 323 317 322
f 169 168 323
f 163 170 303
f 303 172 304
f 164 303 305
f 304 175 306
f 305 304 307
f 165 305 308
f 306 179 309
f 307 306 310
f 308 307 311
f 166 308 312
f 309 184 313
f 310 309 314
f 311 310 315
f 312 311 316
f 167 312 317
f 313 190 318
f 314 313 319
f 315 314 320
f 316 315 321
f 317 316 322
f 168 317 323
f 191 92 198
f 324 198 200
f 192 191 324
f 325 200 203
f 326 324 325
f 193 192 326
f 327 203 207
f 328 325 327
f 329 326 328
f 194 193 329
f 330 207 212
f 331 327 330
f 332 328 331
f 333 329 332
f 195 194 333
f 334 212 218
f 335 330 334
f 336 331 335
f 337 332 336
f 338 333 337
f 196 195 338
f 339 218 225
f 340 334 339
f 341 335 340
f 342 336 341
f 343 337 342
f 344 338 343
f 197 196 344
f 191 198 324
f 324 200 325
f 192 324 326
f 325 203 327
f 326 325 328
f 193 326 329
f 327 207 330
f 328 327 331
f 329 328 332
f 194 329 333
f 330 212 334
f 331 330 335
f 332 331 336
f 333 332 337
f 195 333 338
f 334 218 339
f 335 334 340
f 336 335 341
f 337 336 342
f 338 337 343
f 196 338 344
f 219 64 226
f 345 226 228
f 220 219 345
f 346 228 231
f 347 345 346
f 221 220 347
f 348 231 235
f 349 346 348
f 350 347 349
f 222 221 350
f 351 235 240
f 352 348 351
f 353 349 352
f 354 350 353
f 223 222 354
f 355 240 246
f 356 351 355
f 357 352 356
f 358 353 357
f 359 354 358
f 224 223 359
f 360 246 253
f 361 355 360
f 362 356 361
f 363 357 362
f 364 358 363
f 365 359 364
f 225 224 365
f 219 226 345
f 345 228 346
f 220 345 347
f 346 231 348
f 347 346 349
f 221 347 350
f 348 235 351
f 349 348 352
f 350 349 353
f 222 350 354
f 351 240 355
f 352 351 356
f 353 352 357
f 354 353 358
f 223 354 359
f 355 246 360
f 356 355 361
f 357 356 362
f 358 357 363
f 359 358 364
f 224 359 365
f 247 36 254
f 366 254 256
f 248 247 366
f 367 256 259
f 368 366 367
f 249 248 368
f 369 259 263
f 370 367 369
f 371 368 370
f 250 249 371
f 372 263 268
f 373 369 372
f 374 370 373
f 375 371 374
f 251 250 375
f 376 268 274
f 377 372 376
f 378 373 377
f 379 374 378
f 380 375 379
f 252 251 380
f 381 274 281
f 382 376 381
f 383 377 382
f 384 378 383
f 385 379 384
f 386 380 385
f 253 252 386
f 247 254 366
f 366 256 367
f 248 366 368
f 367 259 369
f 368 367 370
f 249 368 371
f 369 263 372
f 370 369 373
f 371 370 374
f 250 371 375
f 372 268 376
f 373 372 377
f 374 373 378
f 375 374 379
f 251 375 380
f 376 274 381
f 377 376 382
f 378 377 383
f 379 378 384
f 380 379 385
f 252 380 386
f 389 387 388
f 391 388 390
f 392 389 391
f 394 390 393
f 395 391 394
f 396 392 395
f 398 393 397
f 399 394 398
f 400 395 399
f 401 396 400
f 403 397 402
f 404 398 403
f 405 399 404
f 406 400 405
f 407 401 406
f 409 402 408
f 410 403 409
f 411 404 410
f 412 405 411
f 413 406 412
f 414 407 413
f 302 408 281
f 301 409 302
f 300 410 301
f 299 411 300
f 298 412 299
f 297 413 298
f 169 414 297
f 389 388 391
f 391 390 394
f 392 391 395
f 394 393 398
f 395 394 399
f 396 395 400
f 398 397 403
f 399 398 404
f 400 399 405
f 401 400 406
f 403 402 409
f 404 403 410
f 405 404 411
f 406 405 412
f 407 406 413
f 409 408 302
f 410 409 301
f 411 410 300
f 412 411 299
f 413 412 298
f 414 413 297
f 388 387 415
f 417 415 416
f 390 388 417
f 419 416 418
f 420 417 419
f 393 390 420
f 422 418 421
f 423 419 422
f 424 420 423
f 397 393 424
f 426 421 425
f 427 422 426
f 428 423 427
f 429 424 428
f 402 397 429
f 431 425 430
f 432 426 431
f 433 427 432
f 434 428 433
f 435 429 434
f 408 402 435
f 386 430 253
f 385 431 386
f 384 432 385
f 383 433 384
f 382 434 383
f 381 435 382
f 281 408 381
f 388 415 417
f 417 416 419
f 390 417 420
f 419 418 422
f 420 419 423
f 393 420 424
f 422 421 426
f 423 422 427
f 424 423 428
f 397 424 429
f 426 425 431
f 427 426 432
f 428 427 433
f 429 428 434
f 402 429 435
f 431 430 386
f 432 431 385
f 433 432 384
f 434 433 383
f 435 434 382
f 408 435 381
f 415 387 436
f 438 436 437
f 416 415 438
f 440 437 439
f 441 438 440
f 418 416 441
f 443 439 442
f 444 440 443
f 445 441 444
f 421 418 445
f 447 442 446
f 448 443 447
f 449 444 448
f 450 445 449
f 425 421 450
f 452 446 451
f 453 447 452
f 454 448 453
f 455 449 454
f 456 450 455
f 430 425 456
f 365 451 225
f 364 452 365
f 363 453 364
f 362 454 363
f 361 455 362
f 360 456 361
f 253 430 360
f 415 436 438
f 438 437 440
f 416 438 441
f 440 439 443
f 441 440 444
f 418 441 445
f 443 442 447
f 444 443 448
f 445 444 449
f 421 445 450
f 447 446 452
f 448 447 453
f 449 448 454
f 450 449 455
f 425 450 456
f 452 451 365
f 453 452 364
f 454 453 363
f 455 454 362
f 456 455 361
f 430 456 360
f 436 387 457
f 459 457 458
f 437 436 459
f 461 458 460
f 462 459 461
f 439 437 462
f 464 460 463
f 465 461 464
f 466 462 465
f 442 439 466
f 468 463 467
f 469 464 468
f 470 465 469
f 471 466 470
f 446 442 471
f 473 467 472
f 474 468 473
f 475 469 474
f 476 470 475
f 477 471 476
f 451 446 477
f 344 472 197
f 343 473 344
f 342 474 343
f 341 475 342
f 340 476 341
f 339 477 340
f 225 451 339
f 436 457 459
f 459 458 461
f 437 459 462
f 461 460 464
f 462 461 465
f 439 462 466
f 464 463 468
f 465 464 469
f 466 465 470
f 442 466 471
f 468 467 473
f 469 468 474
f 470 469 475
f 471 470 476
f 446 471 477
f 473 472 344
f 474 473 343
f 475 474 342
f 476 475 341
f 477 476 340
f 451 477 339
f 457 387 389
f 478 389 392
f 458 457 478
f 479 392 396
f 480 478 479
f 460 458 480
f 481 396 401
f 482 479 481
f 483 480 482
f 463 460 483
f 484 401 407
f 485 481 484
f 486 482 485
f 487 483 486
f 467 463 487
f 488 407 414
f 489 484 488
f 490 485 489
f 491 486 490
f 492 487 491
f 472 467 492
f 323 414 169
f 322 488 323
f 321 489 322
f 320 490 321
f 319 491 320
f 318 492 319
f 197 472 318
f 457 389 478
f 478 392 479
f 458 478 480
f 479 396 481
f 480 479 482
f 460 480 483
f 481 401 484
f 482 481 485
f 483 482 486
f 463 483 487
f 484 407 488
f 485 484 489
f 486 485 490
f 487 486 491
f 467 487 492
f 488 414 323
f 489 488 322
f 490 489 321
f 491 490 320
f 492 491 319
f 472 492 318
