# File exported by Houdini 20.5.445 (www.sidefx.com)
# 492 points
# 2940 vertices
# 980 primitives
# Bounds: [-141.939545, -176.156128, -1079.70398] to [312.71347, 292.533234, -675.097046]
g 
v 152.468536 58.8400497 -1023.25598
v 172.147308 99.6473846 -1044.79749
v 185.4888 75.3825226 -1031.59497
v 184.606964 140.284119 -1062.1803
v 205.395966 119.244637 -1055.45435
v 216.351349 92.1788025 -1040.6814
v 190.075287 179.552307 -1072.84375
v 216.44516 160.231567 -1072.30017
v 234.914276 136.761841 -1064.37549
v 244.9487 107.242691 -1049.26184
v 190.104523 215.494507 -1074.67505
v 220.746185 197.37027 -1079.70398
v 244.326813 175.626129 -1077.68469
v 261.410004 149.965149 -1069.35254
v 270.556732 118.594368 -1054.45728
v 186.732574 246.17691 -1066.82043
v 220.049591 229.470367 -1076.04895
v 247.158661 208.749176 -1078.89807
v 268.651154 184.829742 -1075.8772
v 283.967499 157.301239 -1067.23828
v 291.565643 124.89257 -1052.7417
v 181.494049 269.984558 -1049.71252
v 215.862885 255.470306 -1060.90649
v 245.041107 235.976746 -1067.07104
v 269.204803 213.250061 -1068.2489
v 287.990204 187.552094 -1064.37976
v 300.618378 158.553406 -1055.47046
v 306.001007 125.883949 -1041.72473
v 174.892365 285.410614 -1024.29517
v 208.725006 274.066437 -1034.54932
v 238.663727 257.073334 -1041.84082
v 264.135956 235.876068 -1045.60791
v 284.677948 211.122681 -1045.30029
v 299.871124 183.364868 -1040.7533
v 309.303009 153.295288 -1032.26965
v 312.71347 121.756599 -1020.79919
v 148.789703 28.5771637 -1003.94763
v 184.287384 45.1748466 -1011.51599
v 142.445465 -0.441835403 -983.095947
v 216.661957 61.132782 -1020.7782
v 179.415924 16.6750698 -991.218262
v 135.056061 -27.9635887 -962.114624
v 246.10202 75.0312881 -1029.97913
v 212.684113 32.1819839 -1001.35645
v 172.603424 -10.2582512 -971.656372
v 128.722809 -53.0546188 -941.448364
v 272.00351 85.6060638 -1035.64758
v 242.744904 45.4186325 -1011.07581
v 206.312347 5.09043884 -982.670044
v 165.76712 -34.9222031 -952.48877
v 124.949188 -74.540184 -920.928345
v 292.81369 91.7228088 -1033.6095
v 268.950592 55.5766678 -1016.27454
v 236.778961 18.0330677 -992.1073
v 199.179169 -19.6374359 -963.746094
v 160.576202 -56.4951935 -932.773682
v 123.827301 -91.8730011 -900.832642
v 306.386322 92.6897049 -1020.34485
v 289.590302 61.3100586 -1011.82288
v 263.045868 27.7934494 -995.018066
v 229.423737 -6.99332428 -971.407104
v 193.053802 -41.5756378 -942.963989
v 157.751312 -74.6443939 -912.109375
v 125.057343 -105.043533 -881.701294
v 115.462799 24.1915131 -1004.31677
v 107.349152 -10.6629639 -981.772705
v 76.7669373 -9.68259811 -985.4104
v 99.0901184 -42.0093765 -958.557495
v 68.1340637 -47.2838593 -960.989136
v 39.1959534 -42.1077499 -966.204102
v 92.6956482 -69.7093048 -935.442139
v 61.6105652 -79.2978821 -936.149658
v 33.191864 -80.6666107 -940.466553
v 5.48114014 -71.5672607 -945.774902
v 89.792572 -92.9680557 -912.253052
v 58.8557434 -105.666718 -910.825928
v 30.4927063 -111.792389 -913.842163
v 3.78762817 -109.280502 -918.541748
v -22.3942871 -96.0366516 -922.944946
v 90.2219543 -111.483276 -889.095825
v 59.9242859 -126.409653 -884.670166
v 31.7913513 -135.906265 -885.661255
v 5.23068237 -138.245743 -889.436035
v -19.8789062 -131.231415 -893.635864
v -44.3561707 -114.131012 -897.473511
v 93.4766541 -125.251297 -866.619263
v 64.04599 -141.75473 -857.981934
v 36.5315857 -153.617401 -855.442932
v 10.4469299 -159.332001 -857.26947
v -14.5090942 -156.939209 -861.195312
v -38.3093567 -145.271576 -865.598328
v -61.4927368 -126.087219 -870.922729
v 131.464691 68.8267517 -1028.18738
v 90.754303 33.3917656 -1008.77417
v 107.649567 78.6261673 -1029.6322
v 49.5389709 0.298812866 -989.274536
v 63.9520569 42.5602226 -1008.9856
v 80.7658997 87.6654968 -1026.68555
v 10.5835876 -30.1683159 -969.001953
v 20.7589417 10.5065441 -988.202515
v 34.9822693 51.9111748 -1004.97375
v 51.1574402 96.565712 -1019.41504
v -23.5387878 -57.0153961 -946.687378
v -19.1717224 -17.8907852 -966.237305
v -9.37908936 21.6211433 -982.839722
v 4.52349854 62.6138229 -996.969727
v 19.790863 106.178963 -1007.92114
v -51.3340454 -79.0781174 -921.306885
v -53.6327209 -42.26828 -941.679077
v -49.8676453 -4.17326355 -958.816772
v -40.1109009 35.1100388 -973.111694
v -26.3692322 75.3243713 -984.422607
v -11.8008423 116.123856 -991.919434
v -73.5344543 -96.0895844 -893.165771
v -81.7774048 -62.4015732 -913.726929
v -84.783783 -26.0069656 -931.588501
v -80.9064026 12.1902466 -946.491333
v -70.6299133 50.9242935 -958.228149
v -56.4210815 88.7617722 -966.456055
v -40.8991089 124.39463 -970.649536
v 148.554047 112.643166 -1047.72986
v 122.19754 123.622444 -1045.93213
v 157.197601 154.401031 -1060.90186
v 92.8566589 132.717804 -1038.93872
v 127.504181 165.268768 -1054.30798
v 158.651093 193.652435 -1066.22314
v 60.5717468 140.93161 -1027.05469
v 95.1076965 173.66864 -1042.34204
v 125.687592 203.82962 -1054.26196
v 155.329071 229.159729 -1062.76514
v 25.8265076 148.714203 -1010.16943
v 59.554657 180.501343 -1024.995
v 90.1072083 211.013428 -1036.77942
v 119.468903 238.323242 -1045.43225
v 149.703461 259.098816 -1050.23523
v -9.26315308 154.733154 -987.034546
v 21.480011 185.284637 -1001.13989
v 51.2554626 215.464294 -1012.70215
v 80.9568787 243.490601 -1021.50085
v 111.602631 266.471222 -1026.96667
v 143.292633 281.163757 -1028.13818
v 146.998505 292.533234 -997.398315
v 110.547089 285.163147 -1000.71484
v 116.630951 290.658691 -967.676147
v 75.9631042 266.752197 -998.61792
v 78.2705383 279.047913 -971.053223
v 84.4757996 280.387909 -936.38623
v 43.8236389 241.141174 -992.049316
v 43.0832825 257.211365 -967.870117
v 46.1603699 264.577972 -939.319336
v 51.4931335 263.945984 -904.424927
v 13.6553345 211.503082 -982.087524
v 10.9094849 229.431885 -959.487183
v 11.5870056 240.318817 -934.376099
v 14.5144348 244.665955 -905.658325
v 19.2889099 243.497681 -872.299805
v -15.8691711 179.848816 -969.281738
v -19.2529297 198.140076 -947.207642
v -20.2126465 210.780914 -923.225464
v -18.9183655 218.534851 -897.838501
v -15.5127869 221.680664 -870.324341
v -10.0851746 220.541626 -840.465515
v -46.3856201 146.948059 -953.777222
v -49.4969788 164.235077 -931.829834
v -50.9942627 177.22403 -907.466919
v -50.4326477 186.960175 -882.762939
v -47.4710083 193.446594 -858.26947
v -42.1994629 196.554718 -833.796509
v -34.7877197 195.886566 -809.275574
v -74.6197815 109.154442 -943.871094
v -92.8106995 71.8138275 -939.355591
v -102.823303 93.059166 -915.241821
v -105.487823 32.9528427 -930.491943
v -119.624359 55.2488403 -911.106445
v -123.452332 77.0250015 -885.262451
v -110.905792 -6.40503693 -917.736938
v -128.040039 16.3845806 -901.982788
v -135.945831 39.5859299 -881.408447
v -134.753906 62.0319443 -854.340515
v -108.619873 -44.8968506 -901.50061
v -127.683136 -22.9663849 -887.991455
v -139.01178 1.26678848 -871.550171
v -141.939545 25.274826 -850.00116
v -137.208252 48.2068253 -823.146851
v -99.3841248 -81.4640808 -881.649048
v -119.727509 -61.6265411 -869.483154
v -133.477081 -37.8801117 -855.330444
v -140.273254 -12.5335922 -838.204651
v -139.767242 11.9899979 -816.94104
v -133.316528 34.7943039 -792.458191
v -84.1578979 -115.187454 -858.657349
v -104.38559 -98.632515 -846.544678
v -120.255402 -76.8629837 -833.342529
v -130.466675 -51.6952209 -818.36615
v -134.584229 -25.7417908 -801.510559
v -132.650085 -1.29303169 -782.66748
v -126.218903 20.7186317 -763.125549
v -59.2381897 -144.881165 -840.639771
v -32.6049194 -162.844879 -833.687622
v -53.765564 -155.510345 -810.863159
v -6.58566284 -171.501801 -828.745422
v -24.7926025 -170.521698 -803.992188
v -48.2413025 -158.052216 -782.253967
v 19.4059143 -170.821442 -826.122925
v 2.66433716 -176.156128 -800.402161
v -18.0151672 -170.090027 -777.339417
v -43.7710571 -153.968842 -756.279236
v 46.1203918 -162.460205 -827.990417
v 29.980072 -172.988922 -801.114624
v 10.9736938 -173.297913 -777.131165
v -12.50354 -163.553986 -755.324097
v -39.0148926 -145.483826 -735.091736
v 75.1180115 -147.78894 -836.501404
v 58.8959656 -162.145355 -808.555908
v 40.8283997 -167.602966 -782.903687
v 18.8338623 -164.105194 -759.915405
v -6.24240112 -152.432037 -739.218262
v -31.2650757 -134.546387 -720.360718
v 108.102081 -127.233841 -852.704468
v 91.8744202 -143.591217 -824.565613
v 74.2268372 -152.916718 -797.372437
v 53.2939148 -154.666138 -772.197998
v 29.2260132 -149.206299 -749.768616
v 4.54101562 -137.876923 -729.985168
v -17.8389893 -122.4048 -712.951233
v 147.217194 -96.9700928 -882.841064
v 183.60434 -64.1059113 -916.53479
v 169.338837 -86.0711594 -884.656738
v 219.610443 -30.3687439 -946.78772
v 207.156647 -52.4947357 -918.216187
v 189.279877 -73.5523682 -883.531982
v 253.829987 3.07847023 -971.114136
v 241.573944 -19.7545395 -944.317505
v 226.38559 -41.1321411 -913.148682
v 205.690094 -61.2753754 -876.203491
v 283.00705 35.457531 -987.876343
v 271.519501 11.6871929 -961.71521
v 257.509003 -10.561451 -932.521606
v 240.648834 -31.3855896 -899.210449
v 218.487579 -50.5965271 -861.578064
v 303.129364 66.767395 -995.983154
v 294.263031 42.1537094 -969.685425
v 281.749359 18.8166008 -941.275513
v 267.438629 -3.32930756 -910.516602
v 249.662994 -23.2991867 -876.852661
v 226.276398 -40.4562378 -841.159973
v 311.984894 97.4027557 -995.530396
v 306.097076 72.7232819 -967.850098
v 296.160614 48.4318504 -938.763428
v 284.497223 25.0016212 -908.875122
v 270.48288 3.5737114 -878.482666
v 251.867462 -14.3931656 -847.475464
v 227.63797 -28.50737 -816.993408
v 311.065643 132.653839 -997.773071
v 304.131134 166.505249 -1006.23303
v 302.211945 139.623871 -966.657959
v 291.872589 197.997162 -1011.59448
v 292.391022 174.734894 -973.077271
v 287.734222 143.944244 -930.576294
v 274.527924 226.445587 -1013.29272
v 277.650116 206.622772 -976.17334
v 275.14035 179.328674 -935.636841
v 267.915375 146.944427 -892.265137
v 251.834747 251.089386 -1011.36072
v 257.654816 234.880798 -975.766968
v 257.247101 211.007141 -937.057251
v 251.818634 181.9133 -896.239136
v 243.294586 149.713867 -853.983337
v 223.254059 271.260132 -1006.26807
v 231.328827 258.784332 -972.275269
v 233.05722 238.66748 -934.976807
v 229.55069 212.734253 -896.015259
v 222.732635 183.178802 -856.389038
v 214.617401 152.276031 -817.554016
v 188.162811 286.099121 -998.468018
v 197.037323 277.3349 -966.197388
v 200.461151 261.247223 -929.919189
v 199.036285 238.911285 -891.889771
v 194.319489 211.94046 -854.003052
v 188.144745 182.806946 -817.7901
v 182.124054 153.883209 -784.968994
v 157.480194 289.245758 -964.543823
v 124.378204 283.996704 -930.167847
v 162.764801 276.757294 -927.342529
v 89.5725403 271.846405 -896.706787
v 126.82724 268.895844 -890.500122
v 163.175812 257.662567 -888.384766
v 54.1977844 254.21875 -864.507874
v 89.7190247 254.975525 -856.298828
v 125.186127 247.108856 -850.552002
v 160.031464 232.704987 -849.464478
v 20.0019531 232.068939 -833.246948
v 52.5509949 235.355835 -824.21875
v 86.657196 230.495239 -815.9823
v 121.146088 219.246002 -811.269104
v 155.14212 203.215607 -811.767151
v -10.8240356 205.845154 -802.282654
v 17.1754761 209.922821 -793.192932
v 48.6211853 207.401276 -783.531128
v 82.2727966 198.88797 -776.041199
v 116.586273 186.418884 -773.319702
v 150.178558 171.267578 -776.331238
v -78.2266541 129.14859 -920.822754
v -103.379608 111.490822 -887.88501
v -79.3043518 143.451843 -894.441284
v -120.096741 95.1136246 -855.20752
v -101.08313 124.781334 -858.939026
v -78.2511292 154.621521 -867.642456
v -127.788574 80.1030655 -823.005005
v -114.042053 108.278397 -824.948486
v -96.4518738 135.503418 -830.900635
v -74.6880493 163.576263 -842.005493
v -127.57077 65.399353 -791.54834
v -118.370087 92.636734 -792.097412
v -105.667236 118.297005 -796.045776
v -89.1473389 143.661255 -804.441345
v -68.3704529 169.557678 -817.370789
v -121.92041 49.175087 -761.123352
v -115.416351 75.439064 -760.156738
v -106.437042 100.122536 -762.121399
v -94.4266663 123.935585 -768.157837
v -78.8774109 147.661346 -778.721985
v -59.2643433 171.906067 -793.370239
v -81.6031189 -131.159042 -825.326904
v -76.8922729 -138.007645 -793.478271
v -100.780884 -111.428772 -810.925354
v -72.4393921 -137.378693 -763.568726
v -95.9536438 -115.506439 -777.467773
v -115.103943 -87.1513062 -796.05188
v -67.8344116 -131.470459 -737.019958
v -90.8966064 -113.312576 -746.630005
v -109.207855 -89.7873917 -761.586121
v -123.595215 -60.4106369 -780.280029
v -60.5374146 -122.421936 -716.177795
v -83.9384766 -106.996979 -720.018433
v -102.044525 -87.1888657 -730.523438
v -115.76825 -62.450119 -745.709961
v -125.964081 -33.2875099 -763.831909
v -47.0088501 -111.582672 -703.396423
v -71.3849487 -97.9027481 -700.570068
v -90.5110474 -80.7536087 -704.919373
v -104.818085 -59.4909134 -715.535217
v -115.186829 -34.4675827 -730.327942
v -122.144257 -7.09886932 -746.639709
v 129.668549 -117.474152 -851.201721
v 149.602386 -104.464508 -850.643433
v 111.311188 -130.834518 -821.517883
v 167.011688 -90.3085938 -847.337036
v 128.532074 -115.675537 -819.654297
v 90.5471497 -137.308624 -793.460022
v 181.642975 -76.6275558 -838.246887
v 143.657257 -100.070953 -814.706299
v 105.087982 -120.470947 -790.576538
v 66.5695496 -137.083557 -767.426025
v 193.23233 -63.5710983 -822.829285
v 156.797638 -84.6893234 -803.731018
v 118.397919 -103.493896 -783.963013
v 79.1572571 -119.040848 -763.002686
v 40.4928894 -130.661163 -743.610718
v 199.19223 -48.6730652 -802.398376
v 165.995758 -67.6256714 -787.052307
v 129.361725 -85.1538467 -771.256226
v 90.736969 -99.9732971 -754.469482
v 51.7309265 -111.231659 -737.206787
v 14.6751709 -118.706024 -722.272522
v 307.529083 105.066628 -964.709839
v 295.814606 109.415115 -927.972412
v 299.473175 78.5387344 -931.465454
v 278.990021 112.513313 -888.868774
v 286.463043 82.0398483 -891.606812
v 289.404144 53.4053612 -899.240723
v 257.417999 116.103874 -849.48291
v 268.671356 85.8496323 -850.937866
v 276.202362 57.5619202 -857.787292
v 277.919098 30.276207 -868.197388
v 230.680511 120.659416 -811.272339
v 244.928558 91.1801071 -810.907166
v 256.362335 63.1077652 -816.304016
v 262.955292 35.9997292 -826.274475
v 262.18338 9.98768044 -838.146729
v 197.860748 125.42202 -775.79364
v 213.402679 97.7120438 -772.548157
v 227.493256 70.522377 -775.619934
v 237.963593 43.7216034 -784.248657
v 242.275787 17.7455654 -796.328613
v 238.769562 -6.41637802 -808.215454
v 19.4634705 30.0293617 -675.150696
v 39.4897766 49.4597435 -676.417053
v 2.87365723 53.1382408 -676.64093
v 60.252533 69.1318588 -680.694153
v 21.8156128 74.9686661 -680.543335
v -12.8636475 77.5831146 -685.127686
v 82.6625061 87.6437454 -689.140808
v 42.0296326 96.0136871 -687.832886
v 6.44747925 101.230476 -693.102966
v -26.4191895 103.084763 -700.137634
v 106.887177 104.497673 -703.06427
v 64.9515686 115.725883 -699.613953
v 27.9958496 123.493279 -704.154602
v -5.54013062 128.264801 -712.359924
v -36.3439636 128.86911 -720.896423
v 132.05368 120.640724 -723.438293
v 90.9772034 134.146149 -717.370483
v 53.2383728 144.605103 -719.666992
v 18.6166382 152.058197 -727.427979
v -12.9854431 155.534271 -737.232788
v -41.3637085 153.770813 -746.50824
v 157.273529 137.074005 -750.765503
v 119.605072 152.405182 -742.485229
v 82.7818909 165.158813 -741.873108
v 47.518158 175.268585 -747.48291
v 14.69104 181.27475 -756.951294
v -14.9373474 181.883423 -767.210083
v -40.756012 176.446777 -776.236206
v 49.559967 20.2209415 -680.468811
v 81.6070251 11.3315601 -692.104736
v 75.0530701 41.0276489 -683.096924
v 114.953888 1.98903275 -709.080078
v 111.473907 32.3905144 -696.944519
v 100.197357 60.0586472 -689.325806
v 148.308136 -8.06472015 -730.277405
v 147.734039 22.2274017 -716.844543
v 139.647858 50.0618973 -705.851685
v 125.534332 76.6695862 -700.3573
v 179.548737 -17.778904 -755.440063
v 182.400543 11.0235691 -742.003113
v 177.570282 38.6176682 -729.131836
v 166.355316 65.2288818 -720.171997
v 150.544708 91.9847107 -717.498657
v 206.486664 -25.2212715 -784.494507
v 213.442474 0.608098984 -772.379639
v 212.428009 27.0084763 -759.058044
v 204.218597 53.7175293 -747.766418
v 190.795807 80.5197372 -741.472351
v 174.525665 107.939293 -742.097717
v 16.3664856 5.06497955 -678.4151
v 11.1667786 -18.8554115 -684.600281
v 47.5149841 -7.3478775 -688.130005
v 3.84844971 -42.0757446 -690.692078
v 42.9700012 -33.0671692 -697.240173
v 79.4747009 -18.0420265 -703.041687
v -4.46005249 -64.2362976 -694.743103
v 36.5273743 -57.0360641 -704.77887
v 75.0320129 -44.7174454 -713.292603
v 112.027557 -28.0859489 -721.536743
v -12.3610535 -84.8919144 -698.142517
v 28.4977722 -79.1707382 -710.088501
v 68.5112 -69.0561981 -721.910706
v 106.893219 -54.87854 -732.727844
v 143.944122 -37.5794983 -743.721497
v -17.532135 -104.004883 -703.596252
v 20.3379211 -99.4350281 -715.024597
v 60.1820984 -90.9790955 -729.317993
v 99.6513367 -78.7207947 -743.47876
v 137.647369 -63.1403809 -756.794373
v 173.608795 -45.1544189 -770.382751
v -10.1460266 26.42033 -675.097046
v -38.0696411 24.911705 -677.770691
v -16.4912415 0.610870361 -677.506104
v -63.2097473 24.5556412 -684.762817
v -46.2341614 -1.56173515 -679.9953
v -24.555542 -23.3252182 -681.606812
v -84.5967712 24.6352959 -696.406067
v -71.9375 -2.93564987 -687.073547
v -55.3036804 -26.2731514 -682.803528
v -33.5355835 -46.467804 -684.810425
v -101.8479 24.5533371 -713.220093
v -93.0610352 -3.90920639 -699.807922
v -80.7845459 -28.8020401 -690.165955
v -64.1231689 -50.2885361 -685.323975
v -41.9891052 -68.8308487 -687.850098
v -115.393951 23.4652672 -735.664185
v -109.513947 -5.0525856 -719.47229
v -100.60083 -31.3211288 -705.510071
v -87.9009094 -54.4442291 -694.858704
v -70.5321045 -74.0145111 -690.186951
v -47.4207458 -90.3138504 -693.177795
v -27.4554443 51.6678925 -679.2901
v -42.4430237 77.1036453 -690.35437
v -53.8384705 51.6088753 -685.086792
v -54.1851807 102.529854 -707.573975
v -66.5012207 77.3488693 -698.88147
v -76.1482544 52.2406998 -695.747986
v -61.5757141 127.36805 -730.526917
v -75.5476074 102.248146 -718.785339
v -85.9457397 77.9763718 -712.828247
v -94.4509888 52.8574371 -711.62384
v -63.459198 150.786743 -759.16095
v -79.9911194 125.921364 -745.195251
v -92.2990417 102.060822 -736.588867
v -101.759033 78.0284805 -733.015747
v -109.325989 52.2723885 -733.130554
g 
f 3 1 2
f 5 2 4
f 6 3 5
f 8 4 7
f 9 5 8
f 10 6 9
f 12 7 11
f 13 8 12
f 14 9 13
f 15 10 14
f 17 11 16
f 18 12 17
f 19 13 18
f 20 14 19
f 21 15 20
f 23 16 22
f 24 17 23
f 25 18 24
f 26 19 25
f 27 20 26
f 28 21 27
f 30 22 29
f 31 23 30
f 32 24 31
f 33 25 32
f 34 26 33
f 35 27 34
f 36 28 35
f 3 2 5
f 5 4 8
f 6 5 9
f 8 7 12
f 9 8 13
f 10 9 14
f 12 11 17
f 13 12 18
f 14 13 19
f 15 14 20
f 17 16 23
f 18 17 24
f 19 18 25
f 20 19 26
f 21 20 27
f 23 22 30
f 24 23 31
f 25 24 32
f 26 25 33
f 27 26 34
f 28 27 35
f 37 1 3
f 38 3 6
f 39 37 38
f 40 6 10
f 41 38 40
f 42 39 41
f 43 10 15
f 44 40 43
f 45 41 44
f 46 42 45
f 47 15 21
f 48 43 47
f 49 44 48
f 50 45 49
f 51 46 50
f 52 21 28
f 53 47 52
f 54 48 53
f 55 49 54
f 56 50 55
f 57 51 56
f 58 28 36
f 59 52 58
f 60 53 59
f 61 54 60
f 62 55 61
f 63 56 62
f 64 57 63
f 37 3 38
f 38 6 40
f 39 38 41
f 40 10 43
f 41 40 44
f 42 41 45
f 43 15 47
f 44 43 48
f 45 44 49
f 46 45 50
f 47 21 52
f 48 47 53
f 49 48 54
f 50 49 55
f 51 50 56
f 52 28 58
f 53 52 59
f 54 53 60
f 55 54 61
f 56 55 62
f 57 56 63
f 65 1 37
f 66 37 39
f 67 65 66
f 68 39 42
f 69 66 68
f 70 67 69
f 71 42 46
f 72 68 71
f 73 69 72
f 74 70 73
f 75 46 51
f 76 71 75
f 77 72 76
f 78 73 77
f 79 74 78
f 80 51 57
f 81 75 80
f 82 76 81
f 83 77 82
f 84 78 83
f 85 79 84
f 86 57 64
f 87 80 86
f 88 81 87
f 89 82 88
f 90 83 89
f 91 84 90
f 92 85 91
f 65 37 66
f 66 39 68
f 67 66 69
f 68 42 71
f 69 68 72
f 70 69 73
f 71 46 75
f 72 71 76
f 73 72 77
f 74 73 78
f 75 51 80
f 76 75 81
f 77 76 82
f 78 77 83
f 79 78 84
f 80 57 86
f 81 80 87
f 82 81 88
f 83 82 89
f 84 83 90
f 85 84 91
f 93 1 65
f 94 65 67
f 95 93 94
f 96 67 70
f 97 94 96
f 98 95 97
f 99 70 74
f 100 96 99
f 101 97 100
f 102 98 101
f 103 74 79
f 104 99 103
f 105 100 104
f 106 101 105
f 107 102 106
f 108 79 85
f 109 103 108
f 110 104 109
f 111 105 110
f 112 106 111
f 113 107 112
f 114 85 92
f 115 108 114
f 116 109 115
f 117 110 116
f 118 111 117
f 119 112 118
f 120 113 119
f 93 65 94
f 94 67 96
f 95 94 97
f 96 70 99
f 97 96 100
f 98 97 101
f 99 74 103
f 100 99 104
f 101 100 105
f 102 101 106
f 103 79 108
f 104 103 109
f 105 104 110
f 106 105 111
f 107 106 112
f 108 85 114
f 109 108 115
f 110 109 116
f 111 110 117
f 112 111 118
f 113 112 119
f 2 1 93
f 121 93 95
f 4 2 121
f 122 95 98
f 123 121 122
f 7 4 123
f 124 98 102
f 125 122 124
f 126 123 125
f 11 7 126
f 127 102 107
f 128 124 127
f 129 125 128
f 130 126 129
f 16 11 130
f 131 107 113
f 132 127 131
f 133 128 132
f 134 129 133
f 135 130 134
f 22 16 135
f 136 113 120
f 137 131 136
f 138 132 137
f 139 133 138
f 140 134 139
f 141 135 140
f 29 22 141
f 2 93 121
f 121 95 122
f 4 121 123
f 122 98 124
f 123 122 125
f 7 123 126
f 124 102 127
f 125 124 128
f 126 125 129
f 11 126 130
f 127 107 131
f 128 127 132
f 129 128 133
f 130 129 134
f 16 130 135
f 131 113 136
f 132 131 137
f 133 132 138
f 134 133 139
f 135 134 140
f 22 135 141
f 142 29 141
f 143 141 140
f 144 142 143
f 145 140 139
f 146 143 145
f 147 144 146
f 148 139 138
f 149 145 148
f 150 146 149
f 151 147 150
f 152 138 137
f 153 148 152
f 154 149 153
f 155 150 154
f 156 151 155
f 157 137 136
f 158 152 157
f 159 153 158
f 160 154 159
f 161 155 160
f 162 156 161
f 163 136 120
f 164 157 163
f 165 158 164
f 166 159 165
f 167 160 166
f 168 161 167
f 169 162 168
f 142 141 143
f 143 140 145
f 144 143 146
f 145 139 148
f 146 145 149
f 147 146 150
f 148 138 152
f 149 148 153
f 150 149 154
f 151 150 155
f 152 137 157
f 153 152 158
f 154 153 159
f 155 154 160
f 156 155 161
f 157 136 163
f 158 157 164
f 159 158 165
f 160 159 166
f 161 160 167
f 162 161 168
f 170 120 119
f 171 119 118
f 172 170 171
f 173 118 117
f 174 171 173
f 175 172 174
f 176 117 116
f 177 173 176
f 178 174 177
f 179 175 178
f 180 116 115
f 181 176 180
f 182 177 181
f 183 178 182
f 184 179 183
f 185 115 114
f 186 180 185
f 187 181 186
f 188 182 187
f 189 183 188
f 190 184 189
f 191 114 92
f 192 185 191
f 193 186 192
f 194 187 193
f 195 188 194
f 196 189 195
f 197 190 196
f 170 119 171
f 171 118 173
f 172 171 174
f 173 117 176
f 174 173 177
f 175 174 178
f 176 116 180
f 177 176 181
f 178 177 182
f 179 178 183
f 180 115 185
f 181 180 186
f 182 181 187
f 183 182 188
f 184 183 189
f 185 114 191
f 186 185 192
f 187 186 193
f 188 187 194
f 189 188 195
f 190 189 196
f 198 92 91
f 199 91 90
f 200 198 199
f 201 90 89
f 202 199 201
f 203 200 202
f 204 89 88
f 205 201 204
f 206 202 205
f 207 203 206
f 208 88 87
f 209 204 208
f 210 205 209
f 211 206 210
f 212 207 211
f 213 87 86
f 214 208 213
f 215 209 214
f 216 210 215
f 217 211 216
f 218 212 217
f 219 86 64
f 220 213 219
f 221 214 220
f 222 215 221
f 223 216 222
f 224 217 223
f 225 218 224
f 198 91 199
f 199 90 201
f 200 199 202
f 201 89 204
f 202 201 205
f 203 202 206
f 204 88 208
f 205 204 209
f 206 205 210
f 207 206 211
f 208 87 213
f 209 208 214
f 210 209 215
f 211 210 216
f 212 211 217
f 213 86 219
f 214 213 220
f 215 214 221
f 216 215 222
f 217 216 223
f 218 217 224
f 226 64 63
f 227 63 62
f 228 226 227
f 229 62 61
f 230 227 229
f 231 228 230
f 232 61 60
f 233 229 232
f 234 230 233
f 235 231 234
f 236 60 59
f 237 232 236
f 238 233 237
f 239 234 238
f 240 235 239
f 241 59 58
f 242 236 241
f 243 237 242
f 244 238 243
f 245 239 244
f 246 240 245
f 247 58 36
f 248 241 247
f 249 242 248
f 250 243 249
f 251 244 250
f 252 245 251
f 253 246 252
f 226 63 227
f 227 62 229
f 228 227 230
f 229 61 232
f 230 229 233
f 231 230 234
f 232 60 236
f 233 232 237
f 234 233 238
f 235 234 239
f 236 59 241
f 237 236 242
f 238 237 243
f 239 238 244
f 240 239 245
f 241 58 247
f 242 241 248
f 243 242 249
f 244 243 250
f 245 244 251
f 246 245 252
f 254 36 35
f 255 35 34
f 256 254 255
f 257 34 33
f 258 255 257
f 259 256 258
f 260 33 32
f 261 257 260
f 262 258 261
f 263 259 262
f 264 32 31
f 265 260 264
f 266 261 265
f 267 262 266
f 268 263 267
f 269 31 30
f 270 264 269
f 271 265 270
f 272 266 271
f 273 267 272
f 274 268 273
f 275 30 29
f 276 269 275
f 277 270 276
f 278 271 277
f 279 272 278
f 280 273 279
f 281 274 280
f 254 35 255
f 255 34 257
f 256 255 258
f 257 33 260
f 258 257 261
f 259 258 262
f 260 32 264
f 261 260 265
f 262 261 266
f 263 262 267
f 264 31 269
f 265 264 270
f 266 265 271
f 267 266 272
f 268 267 273
f 269 30 275
f 270 269 276
f 271 270 277
f 272 271 278
f 273 272 279
f 274 273 280
f 275 29 142
f 282 142 144
f 276 275 282
f 283 144 147
f 284 282 283
f 277 276 284
f 285 147 151
f 286 283 285
f 287 284 286
f 278 277 287
f 288 151 156
f 289 285 288
f 290 286 289
f 291 287 290
f 279 278 291
f 292 156 162
f 293 288 292
f 294 289 293
f 295 290 294
f 296 291 295
f 280 279 296
f 297 162 169
f 298 292 297
f 299 293 298
f 300 294 299
f 301 295 300
f 302 296 301
f 281 280 302
f 275 142 282
f 282 144 283
f 276 282 284
f 283 147 285
f 284 283 286
f 277 284 287
f 285 151 288
f 286 285 289
f 287 286 290
f 278 287 291
f 288 156 292
f 289 288 293
f 290 289 294
f 291 290 295
f 279 291 296
f 292 162 297
f 293 292 298
f 294 293 299
f 295 294 300
f 296 295 301
f 280 296 302
f 163 120 170
f 303 170 172
f 164 163 303
f 304 172 175
f 305 303 304
f 165 164 305
f 306 175 179
f 307 304 306
f 308 305 307
f 166 165 308
f 309 179 184
f 310 306 309
f 311 307 310
f 312 308 311
f 167 166 312
f 313 184 190
f 314 309 313
f 315 310 314
f 316 311 315
f 317 312 316
f 168 167 317
f 318 190 197
f 319 313 318
f 320 314 319
f 321 315 320
f 322 316 321
f 323 317 322
f 169 168 323
f 163 170 303
f 303 172 304
f 164 303 305
f 304 175 306
f 305 304 307
f 165 305 308
f 306 179 309
f 307 306 310
f 308 307 311
f 166 308 312
f 309 184 313
f 310 309 314
f 311 310 315
f 312 311 316
f 167 312 317
f 313 190 318
f 314 313 319
f 315 314 320
f 316 315 321
f 317 316 322
f 168 317 323
f 191 92 198
f 324 198 200
f 192 191 324
f 325 200 203
f 326 324 325
f 193 192 326
f 327 203 207
f 328 325 327
f 329 326 328
f 194 193 329
f 330 207 212
f 331 327 330
f 332 328 331
f 333 329 332
f 195 194 333
f 334 212 218
f 335 330 334
f 336 331 335
f 337 332 336
f 338 333 337
f 196 195 338
f 339 218 225
f 340 334 339
f 341 335 340
f 342 336 341
f 343 337 342
f 344 338 343
f 197 196 344
f 191 198 324
f 324 200 325
f 192 324 326
f 325 203 327
f 326 325 328
f 193 326 329
f 327 207 330
f 328 327 331
f 329 328 332
f 194 329 333
f 330 212 334
f 331 330 335
f 332 331 336
f 333 332 337
f 195 333 338
f 334 218 339
f 335 334 340
f 336 335 341
f 337 336 342
f 338 337 343
f 196 338 344
f 219 64 226
f 345 226 228
f 220 219 345
f 346 228 231
f 347 345 346
f 221 220 347
f 348 231 235
f 349 346 348
f 350 347 349
f 222 221 350
f 351 235 240
f 352 348 351
f 353 349 352
f 354 350 353
f 223 222 354
f 355 240 246
f 356 351 355
f 357 352 356
f 358 353 357
f 359 354 358
f 224 223 359
f 360 246 253
f 361 355 360
f 362 356 361
f 363 357 362
f 364 358 363
f 365 359 364
f 225 224 365
f 219 226 345
f 345 228 346
f 220 345 347
f 346 231 348
f 347 346 349
f 221 347 350
f 348 235 351
f 349 348 352
f 350 349 353
f 222 350 354
f 351 240 355
f 352 351 356
f 353 352 357
f 354 353 358
f 223 354 359
f 355 246 360
f 356 355 361
f 357 356 362
f 358 357 363
f 359 358 364
f 224 359 365
f 247 36 254
f 366 254 256
f 248 247 366
f 367 256 259
f 368 366 367
f 249 248 368
f 369 259 263
f 370 367 369
f 371 368 370
f 250 249 371
f 372 263 268
f 373 369 372
f 374 370 373
f 375 371 374
f 251 250 375
f 376 268 274
f 377 372 376
f 378 373 377
f 379 374 378
f 380 375 379
f 252 251 380
f 381 274 281
f 382 376 381
f 383 377 382
f 384 378 383
f 385 379 384
f 386 380 385
f 253 252 386
f 247 254 366
f 366 256 367
f 248 366 368
f 367 259 369
f 368 367 370
f 249 368 371
f 369 263 372
f 370 369 373
f 371 370 374
f 250 371 375
f 372 268 376
f 373 372 377
f 374 373 378
f 375 374 379
f 251 375 380
f 376 274 381
f 377 376 382
f 378 377 383
f 379 378 384
f 380 379 385
f 252 380 386
f 389 387 388
f 391 388 390
f 392 389 391
f 394 390 393
f 395 391 394
f 396 392 395
f 398 393 397
f 399 394 398
f 400 395 399
f 401 396 400
f 403 397 402
f 404 398 403
f 405 399 404
f 406 400 405
f 407 401 406
f 409 402 408
f 410 403 409
f 411 404 410
f 412 405 411
f 413 406 412
f 414 407 413
f 302 408 281
f 301 409 302
f 300 410 301
f 299 411 300
f 298 412 299
f 297 413 298
f 169 414 297
f 389 388 391
f 391 390 394
f 392 391 395
f 394 393 398
f 395 394 399
f 396 395 400
f 398 397 403
f 399 398 404
f 400 399 405
f 401 400 406
f 403 402 409
f 404 403 410
f 405 404 411
f 406 405 412
f 407 406 413
f 409 408 302
f 410 409 301
f 411 410 300
f 412 411 299
f 413 412 298
f 414 413 297
f 388 387 415
f 417 415 416
f 390 388 417
f 419 416 418
f 420 417 419
f 393 390 420
f 422 418 421
f 423 419 422
f 424 420 423
f 397 393 424
f 426 421 425
f 427 422 426
f 428 423 427
f 429 424 428
f 402 397 429
f 431 425 430
f 432 426 431
f 433 427 432
f 434 428 433
f 435 429 434
f 408 402 435
f 386 430 253
f 385 431 386
f 384 432 385
f 383 433 384
f 382 434 383
f 381 435 382
f 281 408 381
f 388 415 417
f 417 416 419
f 390 417 420
f 419 418 422
f 420 419 423
f 393 420 424
f 422 421 426
f 423 422 427
f 424 423 428
f 397 424 429
f 426 425 431
f 427 426 432
f 428 427 433
f 429 428 434
f 402 429 435
f 431 430 386
f 432 431 385
f 433 432 384
f 434 433 383
f 435 434 382
f 408 435 381
f 415 387 436
f 438 436 437
f 416 415 438
f 440 437 439
f 441 438 440
f 418 416 441
f 443 439 442
f 444 440 443
f 445 441 444
f 421 418 445
f 447 442 446
f 448 443 447
f 449 444 448
f 450 445 449
f 425 421 450
f 452 446 451
f 453 447 452
f 454 448 453
f 455 449 454
f 456 450 455
f 430 425 456
f 365 451 225
f 364 452 365
f 363 453 364
f 362 454 363
f 361 455 362
f 360 456 361
f 253 430 360
f 415 436 438
f 438 437 440
f 416 438 441
f 440 439 443
f 441 440 444
f 418 441 445
f 443 442 447
f 444 443 448
f 445 444 449
f 421 445 450
f 447 446 452
f 448 447 453
f 449 448 454
f 450 449 455
f 425 450 456
f 452 451 365
f 453 452 364
f 454 453 363
f 455 454 362
f 456 455 361
f 430 456 360
f 436 387 457
f 459 457 458
f 437 436 459
f 461 458 460
f 462 459 461
f 439 437 462
f 464 460 463
f 465 461 464
f 466 462 465
f 442 439 466
f 468 463 467
f 469 464 468
f 470 465 469
f 471 466 470
f 446 442 471
f 473 467 472
f 474 468 473
f 475 469 474
f 476 470 475
f 477 471 476
f 451 446 477
f 344 472 197
f 343 473 344
f 342 474 343
f 341 475 342
f 340 476 341
f 339 477 340
f 225 451 339
f 436 457 459
f 459 458 461
f 437 459 462
f 461 460 464
f 462 461 465
f 439 462 466
f 464 463 468
f 465 464 469
f 466 465 470
f 442 466 471
f 468 467 473
f 469 468 474
f 470 469 475
f 471 470 476
f 446 471 477
f 473 472 344
f 474 473 343
f 475 474 342
f 476 475 341
f 477 476 340
f 451 477 339
f 457 387 389
f 478 389 392
f 458 457 478
f 479 392 396
f 480 478 479
f 460 458 480
f 481 396 401
f 482 479 481
f 483 480 482
f 463 460 483
f 484 401 407
f 485 481 484
f 486 482 485
f 487 483 486
f 467 463 487
f 488 407 414
f 489 484 488
f 490 485 489
f 491 486 490
f 492 487 491
f 472 467 492
f 323 414 169
f 322 488 323
f 321 489 322
f 320 490 321
f 319 491 320
f 318 492 319
f 197 472 318
f 457 389 478
f 478 392 479
f 458 478 480
f 479 396 481
f 480 479 482
f 460 480 483
f 481 401 484
f 482 481 485
f 483 482 486
f 463 483 487
f 484 407 488
f 485 484 489
f 486 485 490
f 487 486 491
f 467 487 492
f 488 414 323
f 489 488 322
f 490 489 321
f 491 490 320
f 492 491 319
f 472 492 318
