# File exported by Houdini 20.5.445 (www.sidefx.com)
# 492 points
# 2940 vertices
# 980 primitives
# Bounds: [-151.214676, -100.235062, -1134.27454] to [321.988586, 216.612167, -620.526489]
g 
v 188.69812 42.0323524 -1087.11755
v 192.532532 58.6140594 -1083.05322
v 222.488525 41.291626 -1068.14404
v 196.069946 75.0025253 -1072.90796
v 229.259583 58.8374329 -1060.92627
v 252.157715 41.4920235 -1045.66675
v 199.166382 91.139183 -1057.00854
v 234.47168 75.4668579 -1047.65588
v 259.96344 59.9320679 -1035.95581
v 277.047058 42.9881744 -1019.68805
v 200.434631 106.542755 -1035.83093
v 237.46106 91.5084763 -1029.09473
v 264.919861 77.0483093 -1020.26123
v 284.571777 62.2785912 -1008.15973
v 296.535461 46.2979279 -990.733948
v 198.247742 120.09243 -1009.17908
v 236.773682 106.345871 -1005.04535
v 266.216553 93.0825272 -998.983948
v 287.962891 80.1180267 -990.180786
v 302.627563 66.651474 -977.463074
v 310.008423 52.3260231 -959.47644
v 191.82019 131.455109 -977.697937
v 230.98053 119.144974 -975.34967
v 262.646973 107.364548 -971.356506
v 286.841187 96.0803375 -965.211731
v 303.892578 84.9693604 -956.157654
v 314.263306 73.662262 -943.605713
v 318.160034 62.2138367 -927.23822
v 182.111206 142.078583 -943.245728
v 219.908691 131.045471 -941.035645
v 253.273621 120.666351 -937.621582
v 280.379883 110.60833 -932.877563
v 300.511353 101.283241 -926.252686
v 313.883911 92.6293488 -917.690552
v 320.911682 84.1371994 -907.192017
v 321.635803 75.0518951 -894.699707
v 204.539368 24.8300323 -1074.35986
v 237.633179 23.5642166 -1051.83557
v 215.493591 7.98643684 -1055.80127
v 264.357361 24.0232372 -1026.04602
v 246.203674 7.23597336 -1029.60681
v 220.424866 -8.00669098 -1032.21118
v 285.297791 26.5367584 -997.18042
v 269.33728 8.8973732 -1000.6192
v 248.009705 -7.36888885 -1002.71106
v 218.776611 -22.6206093 -1005.17523
v 300.631958 31.7940388 -965.758484
v 286.30481 13.3426514 -968.947266
v 267.398071 -3.74233246 -970.788574
v 242.724609 -19.8624878 -972.566101
v 210.093445 -34.9629822 -975.57605
v 310.831909 41.3219604 -932.894836
v 297.925537 21.7857246 -935.199036
v 280.218445 3.50853729 -936.143799
v 257.516418 -13.6002045 -937.048279
v 229.411682 -29.83078 -939.497375
v 194.676208 -44.6503601 -944.003723
v 315.940186 55.9815483 -899.386658
v 304.703796 36.0097084 -900.637634
v 287.502747 16.3351059 -899.855713
v 265.006958 -2.79702377 -898.979309
v 238.305542 -21.0702667 -900.157715
v 208.313354 -38.123848 -904.997131
v 174.643127 -52.6287079 -912.38916
v 163.404663 32.4552078 -1096.12451
v 178.216431 13.5499611 -1079.63184
v 136.231201 23.0885429 -1100.53406
v 186.55127 -4.33388138 -1058.20911
v 149.308289 3.32459831 -1080.07959
v 106.214905 14.1811399 -1100.75781
v 187.82074 -20.8966484 -1032.88184
v 154.048157 -14.7950821 -1055.66382
v 116.348083 -5.72418976 -1075.87842
v 73.1284637 5.92677689 -1095.78601
v 181.903137 -35.7395477 -1004.63165
v 150.854187 -31.4968033 -1028.27551
v 117.068665 -24.069294 -1048.16174
v 79.7566071 -14.3098679 -1066.70715
v 38.7771759 -2.37422562 -1084.60999
v 169.110107 -48.2947769 -973.418457
v 140.678345 -47.0655212 -998.450928
v 110.073486 -42.0602493 -1018.75482
v 77.3542023 -34.1961632 -1036.19531
v 42.5413361 -24.1676445 -1052.41772
v 6.51194763 -11.8223495 -1067.48242
v 150.85675 -58.8183975 -939.458801
v 124.582214 -61.1117554 -964.797913
v 96.8084259 -59.9337692 -986.367432
v 68.072403 -55.2598572 -1003.86224
v 38.4739227 -47.2429962 -1018.84283
v 8.52613831 -36.3585052 -1032.58398
v -20.515274 -22.930748 -1045.06763
v 153.856018 53.7273331 -1102.33911
v 123.636658 44.5075569 -1113.07422
v 117.286926 67.3347931 -1114.9519
v 92.9160919 35.5238113 -1118.17676
v 84.1238861 58.2341042 -1126.26099
v 80.3937836 82.4152832 -1123.91431
v 60.82164 26.8328247 -1117.70264
v 51.5900726 49.1620903 -1130.16492
v 45.9087982 73.0446243 -1133.74683
v 44.4948578 98.0078583 -1126.44592
v 27.7474518 18.4096642 -1110.41602
v 18.8941803 40.1358948 -1126.71997
v 12.9377594 63.4664078 -1134.27454
v 9.99217224 87.9378586 -1132.69275
v 11.3080902 113.10997 -1119.99902
v -4.44993591 9.55386925 -1094.92139
v -13.3509369 30.8023319 -1114.71106
v -19.4244843 53.5187569 -1125.48608
v -22.5815887 77.5034866 -1127.7002
v -22.3833771 102.273048 -1120.71399
v -18.1655121 127.019432 -1103.33484
v -32.950882 -1.16688347 -1070.75598
v -43.119751 20.506958 -1091.9707
v -50.3596649 42.9682617 -1105.61243
v -54.2022095 66.7955322 -1110.64233
v -54.3310242 91.493576 -1107.62866
v -50.8723907 116.171219 -1096.33752
v -44.240097 139.57048 -1076.88672
v 155.111511 72.7983093 -1096.09216
v 117.535095 88.5505905 -1105.73486
v 156.829407 90.6841507 -1082.94165
v 80.5677643 104.994751 -1110.3501
v 118.299744 107.261429 -1088.66174
v 158.331543 107.175545 -1063.42212
v 45.2311249 121.632744 -1107.22168
v 81.0804901 124.621643 -1087.8385
v 118.863159 124.109116 -1064.0188
v 158.229919 122.336075 -1037.6272
v 12.131546 137.601334 -1094.02026
v 45.2082062 142.388641 -1077.69348
v 80.6831207 142.397888 -1056.16113
v 117.568054 139.584457 -1031.39758
v 155.065186 135.642639 -1005.21576
v -19.0676117 152.247284 -1069.2832
v 9.87486267 159.689987 -1055.42822
v 42.3150177 161.533432 -1036.3833
v 77.105484 158.781326 -1013.89783
v 112.848328 153.489777 -990.15686
v 148.392822 147.537537 -966.669861
v 150.350586 156.798065 -921.069031
v 112.284058 164.167191 -943.340454
v 117.561646 172.538467 -896.604004
v 74.4806061 171.446274 -965.325928
v 77.121994 180.321579 -917.842712
v 84.2915192 187.979782 -870.41687
v 38.0871735 176.757584 -987.410645
v 38.3422394 187.151505 -938.532227
v 42.7969208 194.679031 -890.773926
v 50.9796906 201.386551 -843.328613
v 3.90901184 177.868484 -1008.39948
v 1.36775208 190.856583 -959.145752
v 3.53041077 199.71788 -910.398071
v 9.2033844 205.940536 -862.766602
v 18.2933197 211.020798 -816.36377
v -26.8581696 172.501663 -1026.33691
v -32.6545868 188.701889 -978.786743
v -34.0058441 200.609604 -929.659607
v -30.5193329 208.275284 -881.200623
v -23.3513336 212.858719 -834.530884
v -12.7638397 215.584488 -790.602295
v -53.9927979 160.014389 -1039.46899
v -62.6577606 178.384995 -995.608215
v -68.0976715 193.762344 -947.828613
v -68.3696594 204.910355 -898.942017
v -63.8641052 211.620804 -851.325012
v -54.8086548 214.583084 -807.057678
v -41.9280853 215.054672 -767.355225
v -72.2329407 136.358551 -1057.33801
v -78.8544769 109.182236 -1074.698
v -96.6961517 131.059387 -1032.6062
v -81.4453125 82.0787582 -1083.11719
v -101.087067 100.854988 -1047.92444
v -117.668274 124.519157 -1004.72815
v -79.5367737 55.8106079 -1083.51562
v -100.543137 71.6697998 -1053.96155
v -117.948044 91.8497696 -1018.30145
v -134.066132 116.914864 -975.399048
v -73.1615753 30.5577755 -1075.45532
v -94.925354 43.5024567 -1051.58398
v -112.668747 60.5690384 -1021.82574
v -129.271606 82.3032532 -986.689636
v -143.752243 108.045441 -944.998718
v -63.0397949 5.59629059 -1058.35168
v -85.3369446 15.4112682 -1039.46973
v -103.225372 29.6421185 -1015.27643
v -119.455551 48.8963089 -986.568298
v -134.257507 72.1381683 -953.151489
v -144.658859 97.6834564 -914.156372
v -49.4231262 -20.137619 -1034.27844
v -72.3159637 -14.0298233 -1018.46942
v -90.5576324 -2.93471146 -998.327454
v -106.266296 14.1988134 -974.87738
v -120.147446 36.2246628 -948.322083
v -130.856827 60.7496681 -917.950562
v -136.540146 85.4425964 -883.428772
v -25.5470734 -44.3665085 -1013.10925
v 2.72218323 -59.3798065 -1000.05927
v -28.3762054 -65.3862381 -981.5849
v 30.2239227 -69.1352463 -985.962585
v -1.54408264 -79.743042 -969.094116
v -30.4945221 -82.677948 -950.628357
v 56.8784027 -74.1980667 -970.812378
v 23.6463776 -86.5496445 -955.033875
v -5.33665466 -94.1922073 -938.28949
v -31.3020477 -92.508461 -919.629089
v 83.5789642 -74.7452621 -951.529907
v 48.3755646 -87.4433975 -938.085693
v 18.3280487 -97.0739441 -923.094177
v -7.18666077 -100.235062 -906.419861
v -29.6694489 -93.816246 -888.138245
v 110.93512 -71.7571411 -927.286438
v 74.3837738 -84.1302872 -916.025757
v 42.3945465 -94.4299469 -903.687866
v 16.0814667 -99.850235 -889.093445
v -5.94117737 -98.4972153 -873.141541
v -24.9636383 -89.0925217 -856.542542
v 138.65979 -65.1270294 -899.480713
v 102.804077 -77.2078094 -888.587708
v 69.306839 -87.7123413 -878.189026
v 41.0645599 -94.3507309 -866.279663
v 18.356369 -95.6482391 -852.691833
v -0.537002563 -91.4932327 -838.968445
v -16.3561554 -81.5629196 -825.612549
v 173.873474 -50.3347626 -877.193726
v 208.413635 -30.6514511 -868.1745
v 171.48877 -44.2900238 -845.555359
v 239.42627 -9.21174622 -864.519043
v 206.738525 -19.4880829 -838.030762
v 167.929016 -34.7536774 -818.607422
v 267.040588 12.675005 -865.10437
v 238.253967 5.47535133 -836.531006
v 203.415955 -6.53678131 -813.352417
v 163.560425 -23.1214561 -795.523132
v 290.005127 34.5323944 -867.395203
v 265.863953 30.0074654 -838.088745
v 234.56311 20.6355896 -812.861389
v 198.427246 6.80397415 -791.609009
v 158.973511 -10.1313934 -774.557251
v 306.868408 56.2131996 -868.78064
v 288.393494 53.9768066 -840.136658
v 261.361267 47.105793 -813.784058
v 228.379639 35.4572563 -790.42627
v 192.140991 20.4889431 -770.375244
v 154.557251 4.16430473 -753.935791
v 316.999878 77.3427658 -866.413879
v 304.141602 77.5006104 -839.066223
v 282.451538 73.268631 -812.872742
v 253.308472 63.9070778 -788.295532
v 219.818665 50.6120911 -766.337036
v 184.687744 35.2277946 -747.704285
v 149.117493 19.2491264 -732.809998
v 321.988586 93.6804047 -868.963318
v 319.325378 102.057411 -878.379333
v 317.218689 110.805603 -841.186707
v 308.872253 109.109642 -886.460449
v 311.732361 118.716187 -849.479492
v 306.1745 127.231224 -812.965881
v 291.08197 116.580338 -893.459045
v 296.985718 125.344498 -857.088623
v 297.012268 135.779205 -821.711914
v 287.868774 143.695587 -785.891174
v 266.04425 125.644073 -899.269409
v 273.972107 133.104782 -863.733032
v 277.285034 143.40509 -829.60791
v 274.231018 154.054901 -795.511536
v 262.102051 160.172073 -760.814941
v 233.479919 135.707489 -903.898682
v 242.947083 142.885529 -869.111206
v 248.319702 152.667419 -835.795837
v 248.983215 163.879837 -803.079773
v 243.415649 173.027817 -770.299866
v 230.064331 175.411453 -737.585571
v 194.134521 146.705292 -907.470703
v 203.598816 153.893005 -873.013489
v 210.218994 163.799698 -839.858643
v 213.282227 175.062302 -807.575562
v 212.123352 185.154709 -775.882263
v 205.890991 190.418839 -744.907715
v 193.843689 187.12001 -715.803284
v 160.490784 163.776932 -881.32074
v 126.674316 181.028458 -854.398987
v 168.020752 173.54332 -844.915771
v 92.6397858 196.712723 -826.919556
v 132.852844 191.678574 -816.84845
v 172.791443 185.091843 -810.797363
v 58.3899384 208.859177 -799.333862
v 97.5270233 206.228287 -788.588806
v 136.053711 202.365921 -781.838989
v 174.175537 195.717606 -777.777222
v 24.276474 215.679428 -772.248108
v 61.5957489 215.189926 -760.121643
v 98.8474274 213.608383 -752.366882
v 135.5802 209.594589 -747.575745
v 171.465881 202.082291 -745.131287
v -8.93492126 216.01796 -746.581604
v 25.3218842 216.612167 -731.775024
v 60.2809906 216.335251 -721.980652
v 95.4871674 214.016068 -716.082336
v 130.131287 208.588242 -713.252197
v 163.382629 199.761063 -713.215698
v -84.2439423 158.347061 -1013.96246
v -109.766037 154.348572 -985.584534
v -93.7498627 177.507706 -966.389648
v -130.972458 148.785095 -956.127686
v -119.058823 174.07811 -936.161072
v -98.7343903 193.090805 -916.681946
v -145.839233 141.153046 -926.059631
v -138.885742 168.292404 -905.58667
v -123.206192 189.397476 -885.18219
v -98.4776611 204.062241 -866.509766
v -151.214676 130.733871 -895.439697
v -149.906464 159.16066 -874.482178
v -139.930893 182.298416 -853.172791
v -120.643326 199.406052 -833.533813
v -91.9202881 210.033524 -817.718567
v -144.839737 116.841736 -864.219116
v -147.892715 145.482208 -842.382874
v -143.826553 170.14592 -819.826538
v -131.04007 189.658707 -798.986633
v -108.726974 203.242783 -782.513062
v -77.8284454 211.11412 -771.855286
v -52.9732971 -42.4401093 -997.762146
v -54.3649597 -61.8472214 -963.358093
v -74.2544556 -34.8929749 -978.909912
v -54.4882965 -74.9921036 -930.49353
v -74.3597412 -50.4209442 -942.78363
v -91.283371 -20.1381531 -957.604248
v -52.0490723 -79.479454 -897.999451
v -71.7838898 -57.947876 -908.465027
v -89.4488831 -30.5710182 -920.487976
v -105.107925 1.54888153 -934.153625
v -46.2561493 -76.7786331 -865.043823
v -65.181778 -57.5214233 -873.878845
v -82.8656311 -32.896656 -884.051392
v -99.4342804 -3.90076065 -895.479858
v -115.363174 27.9964943 -907.303345
v -35.9499359 -70.1699448 -831.214661
v -53.5190735 -52.1047363 -837.346497
v -70.2993774 -28.9363022 -845.063293
v -87.0439606 -2.15552521 -854.452942
v -104.011017 26.8405647 -864.723694
v -121.082825 56.4637451 -874.668701
v 135.890015 -64.4185791 -863.158691
v 132.475586 -59.5116043 -832.108337
v 99.8622589 -76.5078812 -852.304382
v 128.749512 -50.5487518 -805.749695
v 97.4418488 -70.9848633 -821.609863
v 68.3281708 -84.9301147 -841.877808
v 125.029541 -38.1499939 -781.966309
v 95.8207245 -60.9611206 -794.634949
v 68.8056183 -77.4178467 -810.552002
v 42.9915009 -88.3261414 -829.914001
v 122.141418 -22.8269958 -758.986694
v 94.4160004 -46.466774 -768.58136
v 69.8964081 -65.2613602 -781.718689
v 45.9628143 -78.2959137 -797.684143
v 22.2475739 -86.5959473 -816.9104
v 118.7099 -5.37651825 -735.170898
v 92.0453339 -28.3934402 -741.521057
v 69.1629486 -48.4276428 -751.870972
v 47.8714752 -63.854248 -766.155518
v 26.0192719 -73.9437256 -783.736084
v 4.10838318 -79.5418701 -803.913269
v 314.035156 97.2259979 -837.964844
v 304.83783 114.208199 -808.397461
v 296.612854 96.3450012 -809.478577
v 289.104614 129.695374 -779.199219
v 282.625549 111.522087 -779.145752
v 270.920959 89.7352448 -783.267578
v 266.371033 144.677185 -751.627319
v 262.462769 125.136215 -749.321716
v 253.051697 102.721405 -752.617859
v 239.112488 78.0812073 -759.099915
v 236.221069 158.739578 -726.31604
v 234.971802 137.659119 -721.158447
v 228.253418 113.835403 -722.33075
v 217.53656 88.7261505 -728.639893
v 203.074707 62.6776314 -737.735535
v 199.350647 170.191452 -703.029236
v 199.303955 148.263947 -695.183411
v 194.76532 123.126312 -693.608765
v 186.919067 96.7648315 -698.308594
v 176.508789 70.4466782 -707.862366
v 163.795532 44.5877914 -719.854614
v -4.24159241 73.729454 -630.009094
v 13.9723053 92.2388306 -620.526489
v -15.777359 105.891907 -628.835693
v 35.9181061 112.319969 -620.854492
v 4.45054626 125.917885 -622.851807
v -28.0634918 136.038818 -636.95105
v 61.6681671 133.405869 -629.09259
v 28.7351532 145.539459 -627.849121
v -4.39430237 155.430267 -635.025452
v -39.2488251 162.592361 -653.131104
v 91.44487 153.760712 -643.613159
v 57.2169647 164.81636 -640.74469
v 23.6417389 173.217026 -644.12439
v -10.6842499 179.750473 -654.773315
v -47.1077576 184.346207 -675.44873
v 124.766907 170.986282 -663.357605
v 89.7849884 182.262527 -659.642334
v 55.4785309 189.634689 -660.861206
v 21.5156708 194.78743 -667.276917
v -13.4962921 198.285904 -680.277222
v -50.2260284 200.470627 -702.324585
v 159.81073 183.035934 -687.598022
v 125.859314 195.055893 -683.777466
v 91.1570892 202.829636 -683.856812
v 56.6709442 207.483292 -687.820679
v 22.2541351 209.631546 -696.311401
v -12.7490692 210.524673 -710.761292
v -48.3068848 210.577652 -732.978088
v 16.2210541 53.9075241 -631.188599
v 35.7899323 38.8776703 -639.889771
v 38.4376678 75.5033264 -624.92572
v 55.1658783 29.2799339 -653.747253
v 61.390213 64.1168671 -636.15625
v 63.9191437 98.4856796 -627.826843
v 75.5072479 23.8844299 -671.238647
v 84.1673126 56.472847 -652.221069
v 90.1718292 88.7374496 -640.859863
v 92.7365265 121.203659 -637.726929
v 98.0978546 21.0724583 -690.946106
v 108.345764 51.0752487 -672.107849
v 116.623474 81.1684036 -658.727051
v 122.406494 111.580757 -652.272095
v 125.43219 141.89389 -653.63855
v 123.107727 19.6052723 -711.651123
v 135.050415 47.2352486 -694.777649
v 145.067444 75.2059937 -681.013977
v 153.088013 103.643394 -672.215576
v 158.851074 132.015213 -670.067505
v 161.557617 159.124985 -675.286194
v -7.30882263 43.2566376 -647.455933
v -10.2014923 14.8830624 -672.79541
v 12.1261749 20.9874496 -651.831421
v -12.7627106 -10.1775017 -703.475281
v 8.42256165 -7.32701874 -679.029785
v 30.2486115 5.92960167 -663.108887
v -14.262558 -31.6454964 -736.770569
v 5.98762512 -30.6459007 -710.043762
v 26.4717865 -20.7108116 -690.81958
v 48.7716827 -2.09188843 -678.09021
v -15.3586273 -50.2220078 -769.149719
v 5.50727844 -49.5268555 -742.499817
v 25.3801727 -41.8280106 -720.849182
v 45.9461212 -26.7094994 -705.227844
v 69.1507111 -5.27802277 -695.514099
v -16.7281342 -66.9144821 -798.407959
v 5.08091736 -65.3991928 -773.891052
v 26.2241364 -58.9921112 -752.153015
v 46.3740082 -46.6120605 -734.575806
v 67.5579376 -28.4563942 -722.181885
v 92.3661652 -5.92147064 -714.725342
v -26.7404022 77.3668671 -646.913635
v -48.4700317 82.9063416 -675.059753
v -28.9655609 46.4549408 -671.34314
v -70.156723 89.3127823 -712.363403
v -49.2219086 52.3819618 -705.131226
v -31.002182 18.8091412 -702.148071
v -91.3896027 93.8925858 -754.882446
v -69.1808319 58.502758 -745.311157
v -50.1031952 25.0828629 -738.885071
v -32.585556 -5.55446625 -736.043518
v -111.059113 94.4402161 -798.602295
v -88.9134064 61.4902 -788.134583
v -68.8210907 29.8248405 -779.480164
v -50.9425507 -0.263835907 -773.338928
v -33.8878632 -27.7342644 -770.046448
v -127.002609 91.1657639 -841.508423
v -107.344269 60.3017464 -831.173401
v -87.5671082 30.2416019 -821.385193
v -69.5243988 1.20422745 -812.756775
v -52.6608734 -25.7654572 -806.019653
v -35.8132172 -49.3397522 -801.575317
v -42.6806488 111.793228 -650.807129
v -58.6591187 142.195801 -663.772705
v -67.8298035 118.298012 -683.968384
v -72.4884949 167.860855 -683.388672
v -86.4025574 148.169739 -700.431152
v -91.9351959 124.072403 -724.94165
v -81.5066833 188.210648 -708.002625
v -101.618118 172.445236 -722.238159
v -111.694366 152.06662 -743.627075
v -114.140427 126.3032 -769.979126
v -83.6873474 202.695511 -737.20282
v -110.171783 190.906021 -749.065125
v -126.299591 173.844833 -767.650513
v -133.209564 151.33075 -791.039734
v -132.841415 123.656616 -816.416382
g 
f 3 1 2
f 5 2 4
f 6 3 5
f 8 4 7
f 9 5 8
f 10 6 9
f 12 7 11
f 13 8 12
f 14 9 13
f 15 10 14
f 17 11 16
f 18 12 17
f 19 13 18
f 20 14 19
f 21 15 20
f 23 16 22
f 24 17 23
f 25 18 24
f 26 19 25
f 27 20 26
f 28 21 27
f 30 22 29
f 31 23 30
f 32 24 31
f 33 25 32
f 34 26 33
f 35 27 34
f 36 28 35
f 3 2 5
f 5 4 8
f 6 5 9
f 8 7 12
f 9 8 13
f 10 9 14
f 12 11 17
f 13 12 18
f 14 13 19
f 15 14 20
f 17 16 23
f 18 17 24
f 19 18 25
f 20 19 26
f 21 20 27
f 23 22 30
f 24 23 31
f 25 24 32
f 26 25 33
f 27 26 34
f 28 27 35
f 37 1 3
f 38 3 6
f 39 37 38
f 40 6 10
f 41 38 40
f 42 39 41
f 43 10 15
f 44 40 43
f 45 41 44
f 46 42 45
f 47 15 21
f 48 43 47
f 49 44 48
f 50 45 49
f 51 46 50
f 52 21 28
f 53 47 52
f 54 48 53
f 55 49 54
f 56 50 55
f 57 51 56
f 58 28 36
f 59 52 58
f 60 53 59
f 61 54 60
f 62 55 61
f 63 56 62
f 64 57 63
f 37 3 38
f 38 6 40
f 39 38 41
f 40 10 43
f 41 40 44
f 42 41 45
f 43 15 47
f 44 43 48
f 45 44 49
f 46 45 50
f 47 21 52
f 48 47 53
f 49 48 54
f 50 49 55
f 51 50 56
f 52 28 58
f 53 52 59
f 54 53 60
f 55 54 61
f 56 55 62
f 57 56 63
f 65 1 37
f 66 37 39
f 67 65 66
f 68 39 42
f 69 66 68
f 70 67 69
f 71 42 46
f 72 68 71
f 73 69 72
f 74 70 73
f 75 46 51
f 76 71 75
f 77 72 76
f 78 73 77
f 79 74 78
f 80 51 57
f 81 75 80
f 82 76 81
f 83 77 82
f 84 78 83
f 85 79 84
f 86 57 64
f 87 80 86
f 88 81 87
f 89 82 88
f 90 83 89
f 91 84 90
f 92 85 91
f 65 37 66
f 66 39 68
f 67 66 69
f 68 42 71
f 69 68 72
f 70 69 73
f 71 46 75
f 72 71 76
f 73 72 77
f 74 73 78
f 75 51 80
f 76 75 81
f 77 76 82
f 78 77 83
f 79 78 84
f 80 57 86
f 81 80 87
f 82 81 88
f 83 82 89
f 84 83 90
f 85 84 91
f 93 1 65
f 94 65 67
f 95 93 94
f 96 67 70
f 97 94 96
f 98 95 97
f 99 70 74
f 100 96 99
f 101 97 100
f 102 98 101
f 103 74 79
f 104 99 103
f 105 100 104
f 106 101 105
f 107 102 106
f 108 79 85
f 109 103 108
f 110 104 109
f 111 105 110
f 112 106 111
f 113 107 112
f 114 85 92
f 115 108 114
f 116 109 115
f 117 110 116
f 118 111 117
f 119 112 118
f 120 113 119
f 93 65 94
f 94 67 96
f 95 94 97
f 96 70 99
f 97 96 100
f 98 97 101
f 99 74 103
f 100 99 104
f 101 100 105
f 102 101 106
f 103 79 108
f 104 103 109
f 105 104 110
f 106 105 111
f 107 106 112
f 108 85 114
f 109 108 115
f 110 109 116
f 111 110 117
f 112 111 118
f 113 112 119
f 2 1 93
f 121 93 95
f 4 2 121
f 122 95 98
f 123 121 122
f 7 4 123
f 124 98 102
f 125 122 124
f 126 123 125
f 11 7 126
f 127 102 107
f 128 124 127
f 129 125 128
f 130 126 129
f 16 11 130
f 131 107 113
f 132 127 131
f 133 128 132
f 134 129 133
f 135 130 134
f 22 16 135
f 136 113 120
f 137 131 136
f 138 132 137
f 139 133 138
f 140 134 139
f 141 135 140
f 29 22 141
f 2 93 121
f 121 95 122
f 4 121 123
f 122 98 124
f 123 122 125
f 7 123 126
f 124 102 127
f 125 124 128
f 126 125 129
f 11 126 130
f 127 107 131
f 128 127 132
f 129 128 133
f 130 129 134
f 16 130 135
f 131 113 136
f 132 131 137
f 133 132 138
f 134 133 139
f 135 134 140
f 22 135 141
f 142 29 141
f 143 141 140
f 144 142 143
f 145 140 139
f 146 143 145
f 147 144 146
f 148 139 138
f 149 145 148
f 150 146 149
f 151 147 150
f 152 138 137
f 153 148 152
f 154 149 153
f 155 150 154
f 156 151 155
f 157 137 136
f 158 152 157
f 159 153 158
f 160 154 159
f 161 155 160
f 162 156 161
f 163 136 120
f 164 157 163
f 165 158 164
f 166 159 165
f 167 160 166
f 168 161 167
f 169 162 168
f 142 141 143
f 143 140 145
f 144 143 146
f 145 139 148
f 146 145 149
f 147 146 150
f 148 138 152
f 149 148 153
f 150 149 154
f 151 150 155
f 152 137 157
f 153 152 158
f 154 153 159
f 155 154 160
f 156 155 161
f 157 136 163
f 158 157 164
f 159 158 165
f 160 159 166
f 161 160 167
f 162 161 168
f 170 120 119
f 171 119 118
f 172 170 171
f 173 118 117
f 174 171 173
f 175 172 174
f 176 117 116
f 177 173 176
f 178 174 177
f 179 175 178
f 180 116 115
f 181 176 180
f 182 177 181
f 183 178 182
f 184 179 183
f 185 115 114
f 186 180 185
f 187 181 186
f 188 182 187
f 189 183 188
f 190 184 189
f 191 114 92
f 192 185 191
f 193 186 192
f 194 187 193
f 195 188 194
f 196 189 195
f 197 190 196
f 170 119 171
f 171 118 173
f 172 171 174
f 173 117 176
f 174 173 177
f 175 174 178
f 176 116 180
f 177 176 181
f 178 177 182
f 179 178 183
f 180 115 185
f 181 180 186
f 182 181 187
f 183 182 188
f 184 183 189
f 185 114 191
f 186 185 192
f 187 186 193
f 188 187 194
f 189 188 195
f 190 189 196
f 198 92 91
f 199 91 90
f 200 198 199
f 201 90 89
f 202 199 201
f 203 200 202
f 204 89 88
f 205 201 204
f 206 202 205
f 207 203 206
f 208 88 87
f 209 204 208
f 210 205 209
f 211 206 210
f 212 207 211
f 213 87 86
f 214 208 213
f 215 209 214
f 216 210 215
f 217 211 216
f 218 212 217
f 219 86 64
f 220 213 219
f 221 214 220
f 222 215 221
f 223 216 222
f 224 217 223
f 225 218 224
f 198 91 199
f 199 90 201
f 200 199 202
f 201 89 204
f 202 201 205
f 203 202 206
f 204 88 208
f 205 204 209
f 206 205 210
f 207 206 211
f 208 87 213
f 209 208 214
f 210 209 215
f 211 210 216
f 212 211 217
f 213 86 219
f 214 213 220
f 215 214 221
f 216 215 222
f 217 216 223
f 218 217 224
f 226 64 63
f 227 63 62
f 228 226 227
f 229 62 61
f 230 227 229
f 231 228 230
f 232 61 60
f 233 229 232
f 234 230 233
f 235 231 234
f 236 60 59
f 237 232 236
f 238 233 237
f 239 234 238
f 240 235 239
f 241 59 58
f 242 236 241
f 243 237 242
f 244 238 243
f 245 239 244
f 246 240 245
f 247 58 36
f 248 241 247
f 249 242 248
f 250 243 249
f 251 244 250
f 252 245 251
f 253 246 252
f 226 63 227
f 227 62 229
f 228 227 230
f 229 61 232
f 230 229 233
f 231 230 234
f 232 60 236
f 233 232 237
f 234 233 238
f 235 234 239
f 236 59 241
f 237 236 242
f 238 237 243
f 239 238 244
f 240 239 245
f 241 58 247
f 242 241 248
f 243 242 249
f 244 243 250
f 245 244 251
f 246 245 252
f 254 36 35
f 255 35 34
f 256 254 255
f 257 34 33
f 258 255 257
f 259 256 258
f 260 33 32
f 261 257 260
f 262 258 261
f 263 259 262
f 264 32 31
f 265 260 264
f 266 261 265
f 267 262 266
f 268 263 267
f 269 31 30
f 270 264 269
f 271 265 270
f 272 266 271
f 273 267 272
f 274 268 273
f 275 30 29
f 276 269 275
f 277 270 276
f 278 271 277
f 279 272 278
f 280 273 279
f 281 274 280
f 254 35 255
f 255 34 257
f 256 255 258
f 257 33 260
f 258 257 261
f 259 258 262
f 260 32 264
f 261 260 265
f 262 261 266
f 263 262 267
f 264 31 269
f 265 264 270
f 266 265 271
f 267 266 272
f 268 267 273
f 269 30 275
f 270 269 276
f 271 270 277
f 272 271 278
f 273 272 279
f 274 273 280
f 275 29 142
f 282 142 144
f 276 275 282
f 283 144 147
f 284 282 283
f 277 276 284
f 285 147 151
f 286 283 285
f 287 284 286
f 278 277 287
f 288 151 156
f 289 285 288
f 290 286 289
f 291 287 290
f 279 278 291
f 292 156 162
f 293 288 292
f 294 289 293
f 295 290 294
f 296 291 295
f 280 279 296
f 297 162 169
f 298 292 297
f 299 293 298
f 300 294 299
f 301 295 300
f 302 296 301
f 281 280 302
f 275 142 282
f 282 144 283
f 276 282 284
f 283 147 285
f 284 283 286
f 277 284 287
f 285 151 288
f 286 285 289
f 287 286 290
f 278 287 291
f 288 156 292
f 289 288 293
f 290 289 294
f 291 290 295
f 279 291 296
f 292 162 297
f 293 292 298
f 294 293 299
f 295 294 300
f 296 295 301
f 280 296 302
f 163 120 170
f 303 170 172
f 164 163 303
f 304 172 175
f 305 303 304
f 165 164 305
f 306 175 179
f 307 304 306
f 308 305 307
f 166 165 308
f 309 179 184
f 310 306 309
f 311 307 310
f 312 308 311
f 167 166 312
f 313 184 190
f 314 309 313
f 315 310 314
f 316 311 315
f 317 312 316
f 168 167 317
f 318 190 197
f 319 313 318
f 320 314 319
f 321 315 320
f 322 316 321
f 323 317 322
f 169 168 323
f 163 170 303
f 303 172 304
f 164 303 305
f 304 175 306
f 305 304 307
f 165 305 308
f 306 179 309
f 307 306 310
f 308 307 311
f 166 308 312
f 309 184 313
f 310 309 314
f 311 310 315
f 312 311 316
f 167 312 317
f 313 190 318
f 314 313 319
f 315 314 320
f 316 315 321
f 317 316 322
f 168 317 323
f 191 92 198
f 324 198 200
f 192 191 324
f 325 200 203
f 326 324 325
f 193 192 326
f 327 203 207
f 328 325 327
f 329 326 328
f 194 193 329
f 330 207 212
f 331 327 330
f 332 328 331
f 333 329 332
f 195 194 333
f 334 212 218
f 335 330 334
f 336 331 335
f 337 332 336
f 338 333 337
f 196 195 338
f 339 218 225
f 340 334 339
f 341 335 340
f 342 336 341
f 343 337 342
f 344 338 343
f 197 196 344
f 191 198 324
f 324 200 325
f 192 324 326
f 325 203 327
f 326 325 328
f 193 326 329
f 327 207 330
f 328 327 331
f 329 328 332
f 194 329 333
f 330 212 334
f 331 330 335
f 332 331 336
f 333 332 337
f 195 333 338
f 334 218 339
f 335 334 340
f 336 335 341
f 337 336 342
f 338 337 343
f 196 338 344
f 219 64 226
f 345 226 228
f 220 219 345
f 346 228 231
f 347 345 346
f 221 220 347
f 348 231 235
f 349 346 348
f 350 347 349
f 222 221 350
f 351 235 240
f 352 348 351
f 353 349 352
f 354 350 353
f 223 222 354
f 355 240 246
f 356 351 355
f 357 352 356
f 358 353 357
f 359 354 358
f 224 223 359
f 360 246 253
f 361 355 360
f 362 356 361
f 363 357 362
f 364 358 363
f 365 359 364
f 225 224 365
f 219 226 345
f 345 228 346
f 220 345 347
f 346 231 348
f 347 346 349
f 221 347 350
f 348 235 351
f 349 348 352
f 350 349 353
f 222 350 354
f 351 240 355
f 352 351 356
f 353 352 357
f 354 353 358
f 223 354 359
f 355 246 360
f 356 355 361
f 357 356 362
f 358 357 363
f 359 358 364
f 224 359 365
f 247 36 254
f 366 254 256
f 248 247 366
f 367 256 259
f 368 366 367
f 249 248 368
f 369 259 263
f 370 367 369
f 371 368 370
f 250 249 371
f 372 263 268
f 373 369 372
f 374 370 373
f 375 371 374
f 251 250 375
f 376 268 274
f 377 372 376
f 378 373 377
f 379 374 378
f 380 375 379
f 252 251 380
f 381 274 281
f 382 376 381
f 383 377 382
f 384 378 383
f 385 379 384
f 386 380 385
f 253 252 386
f 247 254 366
f 366 256 367
f 248 366 368
f 367 259 369
f 368 367 370
f 249 368 371
f 369 263 372
f 370 369 373
f 371 370 374
f 250 371 375
f 372 268 376
f 373 372 377
f 374 373 378
f 375 374 379
f 251 375 380
f 376 274 381
f 377 376 382
f 378 377 383
f 379 378 384
f 380 379 385
f 252 380 386
f 389 387 388
f 391 388 390
f 392 389 391
f 394 390 393
f 395 391 394
f 396 392 395
f 398 393 397
f 399 394 398
f 400 395 399
f 401 396 400
f 403 397 402
f 404 398 403
f 405 399 404
f 406 400 405
f 407 401 406
f 409 402 408
f 410 403 409
f 411 404 410
f 412 405 411
f 413 406 412
f 414 407 413
f 302 408 281
f 301 409 302
f 300 410 301
f 299 411 300
f 298 412 299
f 297 413 298
f 169 414 297
f 389 388 391
f 391 390 394
f 392 391 395
f 394 393 398
f 395 394 399
f 396 395 400
f 398 397 403
f 399 398 404
f 400 399 405
f 401 400 406
f 403 402 409
f 404 403 410
f 405 404 411
f 406 405 412
f 407 406 413
f 409 408 302
f 410 409 301
f 411 410 300
f 412 411 299
f 413 412 298
f 414 413 297
f 388 387 415
f 417 415 416
f 390 388 417
f 419 416 418
f 420 417 419
f 393 390 420
f 422 418 421
f 423 419 422
f 424 420 423
f 397 393 424
f 426 421 425
f 427 422 426
f 428 423 427
f 429 424 428
f 402 397 429
f 431 425 430
f 432 426 431
f 433 427 432
f 434 428 433
f 435 429 434
f 408 402 435
f 386 430 253
f 385 431 386
f 384 432 385
f 383 433 384
f 382 434 383
f 381 435 382
f 281 408 381
f 388 415 417
f 417 416 419
f 390 417 420
f 419 418 422
f 420 419 423
f 393 420 424
f 422 421 426
f 423 422 427
f 424 423 428
f 397 424 429
f 426 425 431
f 427 426 432
f 428 427 433
f 429 428 434
f 402 429 435
f 431 430 386
f 432 431 385
f 433 432 384
f 434 433 383
f 435 434 382
f 408 435 381
f 415 387 436
f 438 436 437
f 416 415 438
f 440 437 439
f 441 438 440
f 418 416 441
f 443 439 442
f 444 440 443
f 445 441 444
f 421 418 445
f 447 442 446
f 448 443 447
f 449 444 448
f 450 445 449
f 425 421 450
f 452 446 451
f 453 447 452
f 454 448 453
f 455 449 454
f 456 450 455
f 430 425 456
f 365 451 225
f 364 452 365
f 363 453 364
f 362 454 363
f 361 455 362
f 360 456 361
f 253 430 360
f 415 436 438
f 438 437 440
f 416 438 441
f 440 439 443
f 441 440 444
f 418 441 445
f 443 442 447
f 444 443 448
f 445 444 449
f 421 445 450
f 447 446 452
f 448 447 453
f 449 448 454
f 450 449 455
f 425 450 456
f 452 451 365
f 453 452 364
f 454 453 363
f 455 454 362
f 456 455 361
f 430 456 360
f 436 387 457
f 459 457 458
f 437 436 459
f 461 458 460
f 462 459 461
f 439 437 462
f 464 460 463
f 465 461 464
f 466 462 465
f 442 439 466
f 468 463 467
f 469 464 468
f 470 465 469
f 471 466 470
f 446 442 471
f 473 467 472
f 474 468 473
f 475 469 474
f 476 470 475
f 477 471 476
f 451 446 477
f 344 472 197
f 343 473 344
f 342 474 343
f 341 475 342
f 340 476 341
f 339 477 340
f 225 451 339
f 436 457 459
f 459 458 461
f 437 459 462
f 461 460 464
f 462 461 465
f 439 462 466
f 464 463 468
f 465 464 469
f 466 465 470
f 442 466 471
f 468 467 473
f 469 468 474
f 470 469 475
f 471 470 476
f 446 471 477
f 473 472 344
f 474 473 343
f 475 474 342
f 476 475 341
f 477 476 340
f 451 477 339
f 457 387 389
f 478 389 392
f 458 457 478
f 479 392 396
f 480 478 479
f 460 458 480
f 481 396 401
f 482 479 481
f 483 480 482
f 463 460 483
f 484 401 407
f 485 481 484
f 486 482 485
f 487 483 486
f 467 463 487
f 488 407 414
f 489 484 488
f 490 485 489
f 491 486 490
f 492 487 491
f 472 467 492
f 323 414 169
f 322 488 323
f 321 489 322
f 320 490 321
f 319 491 320
f 318 492 319
f 197 472 318
f 457 389 478
f 478 392 479
f 458 478 480
f 479 396 481
f 480 479 482
f 460 480 483
f 481 401 484
f 482 481 485
f 483 482 486
f 463 483 487
f 484 407 488
f 485 484 489
f 486 485 490
f 487 486 491
f 467 487 492
f 488 414 323
f 489 488 322
f 490 489 321
f 491 490 320
f 492 491 319
f 472 492 318
