# File exported by Houdini 20.5.445 (www.sidefx.com)
# 492 points
# 2940 vertices
# 980 primitives
# Bounds: [-137.35611, -123.053474, -1115.46436] to [308.130005, 239.430573, -639.336609]
g 
v 173.229858 90.4427185 -1093.2085
v 174.924133 124.928551 -1107.70532
v 202.259277 104.354256 -1102.2478
v 173.141418 157.418793 -1112.5481
v 205.695557 139.326538 -1115.25586
v 229.912415 114.766609 -1107.10913
v 170.357422 186.384796 -1107.14453
v 206.233215 169.886078 -1115.38257
v 234.445435 147.624878 -1115.46436
v 255.830872 120.936302 -1105.43555
v 167.956299 210.356537 -1092.44531
v 205.594177 195.389618 -1103.78613
v 236.108337 174.612213 -1109.14941
v 260.498962 150.495789 -1107.07764
v 278.323608 122.906517 -1095.73682
v 165.950623 227.918213 -1069.33984
v 203.689148 214.832611 -1081.81958
v 235.682922 196.284088 -1090.46021
v 261.709412 174.278717 -1093.7334
v 281.785706 149.627533 -1089.87231
v 295.1922 121.11187 -1077.47778
v 162.626099 237.030121 -1037.36768
v 199.475281 226.710571 -1049.34131
v 232.231262 211.284393 -1059.5061
v 259.749207 192.144562 -1066.52979
v 281.297424 169.710083 -1068.34058
v 296.442505 143.861053 -1063.1366
v 305.10083 114.163139 -1050.44946
v 157.472839 237.019073 -997.362122
v 191.782166 229.211975 -1005.97876
v 224.065491 216.911896 -1014.85144
v 252.801147 201.178528 -1023.34253
v 276.003601 181.418945 -1029.41992
v 292.868958 157.778046 -1030.81897
v 303.469788 130.748169 -1026.1698
v 308.130005 101.531609 -1015.49731
v 184.705933 64.9491119 -1077.36096
v 216.085388 78.0136719 -1085.07471
v 190.40332 40.0417061 -1055.78516
v 244.21344 87.8617706 -1088.86035
v 223.342773 53.5234833 -1062.59387
v 190.657898 16.6423721 -1031.26709
v 269.02179 93.0596008 -1086.19531
v 251.544128 62.8433228 -1065.76001
v 224.815186 30.3573647 -1037.76672
v 186.815979 -4.84233856 -1006.28967
v 288.849182 94.0115433 -1075.17749
v 275.1474 66.7721863 -1062.03345
v 252.982361 38.5092392 -1040.17249
v 221.694946 8.10572433 -1012.31665
v 180.682617 -24.3821259 -982.320862
v 301.942871 90.1913147 -1054.16821
v 292.35907 65.63797 -1048.50159
v 275.253906 40.3216515 -1034.17896
v 249.387207 14.1329336 -1012.7016
v 215.063965 -13.4558525 -986.704468
v 173.833313 -42.1047745 -959.482544
v 307.516724 80.3986511 -1022.18414
v 301.593872 58.3649864 -1022.07452
v 289.481262 35.7673111 -1015.33508
v 269.595276 12.621912 -1001.85236
v 241.099426 -10.7081299 -982.725098
v 205.972534 -34.4513512 -960.290161
v 167.753357 -58.1511841 -937.15094
v 149.589966 58.6365471 -1073.59863
v 155.349121 30.3314095 -1052.4917
v 120.06897 27.0405598 -1052.00623
v 154.70459 4.38114166 -1027.68103
v 120.499451 -2.21854782 -1028.28345
v 85.1287079 -2.60165024 -1029.65479
v 149.66687 -18.9824867 -1001.84662
v 115.724915 -27.8318329 -1002.4411
v 82.2576752 -31.6132317 -1005.20215
v 47.1395721 -28.7667542 -1007.21045
v 142.839661 -39.2728348 -976.574158
v 108.50177 -50.305275 -976.112244
v 76.1042938 -56.1637039 -979.157227
v 43.5128937 -56.6738052 -982.772644
v 9.92955017 -50.2027206 -984.354797
v 136.488586 -56.7950668 -952.393555
v 101.558899 -69.2397079 -949.961487
v 69.1681061 -77.2327957 -951.974976
v 38.2044525 -79.6177902 -956.138
v 7.48622131 -76.1802902 -959.534058
v -23.0532684 -66.5163345 -960.933777
v 131.838501 -72.0978928 -928.904358
v 96.5831146 -84.9400711 -923.945435
v 63.401413 -94.537178 -923.522034
v 32.649826 -98.7728043 -926.659485
v 3.74186707 -96.9780502 -931.000793
v -24.0723114 -90.0669479 -934.799561
v -50.1584015 -78.1698227 -937.035828
v 144.527588 95.9084702 -1091.94312
v 117.65625 61.905117 -1072.02344
v 113.051758 100.279869 -1085.68018
v 85.6051483 30.5426788 -1050.2749
v 83.9369049 65.884079 -1065.23535
v 79.2772675 104.894814 -1074.22632
v 49.029953 2.75805283 -1027.63745
v 50.2133026 36.1450119 -1043.11926
v 48.5964203 71.7580566 -1053.36963
v 43.9696808 110.063194 -1057.81567
v 10.5810089 -20.913208 -1003.98859
v 12.8796844 10.7239456 -1019.49255
v 14.0827789 44.0648384 -1030.31567
v 12.7664948 78.5918579 -1035.93481
v 9.31089783 113.927696 -1036.25952
v -26.1595001 -40.3018265 -978.914551
v -25.3126373 -10.8899879 -993.429199
v -22.7675018 20.2834053 -1003.9447
v -20.9347076 52.0499496 -1010.04907
v -20.9698334 83.5821533 -1011.57227
v -22.1333771 114.436226 -1009.39648
v -57.9505463 -55.6890335 -952.050171
v -60.8879547 -29.4281311 -964.114502
v -59.5390778 -0.889888763 -972.741028
v -55.9949493 28.3501148 -977.879089
v -52.6811981 57.0850601 -979.772827
v -50.8093719 84.7615814 -979.431091
v -49.3040009 111.171638 -977.816345
v 141.770569 132.924622 -1102.21631
v 107.303589 138.414368 -1091.07935
v 136.206543 166.365448 -1102.11279
v 71.8825836 142.838043 -1074.85535
v 99.8818207 171.658752 -1086.57434
v 131.291138 195.279236 -1092.8147
v 36.0940399 145.76535 -1053.7312
v 63.7482758 174.463928 -1066.33057
v 94.1509552 199.451385 -1073.8186
v 128.293945 218.367645 -1075.47852
v 1.71589661 145.161407 -1027.27026
v 28.1032867 173.739563 -1040.72302
v 57.885849 199.340515 -1049.59058
v 91.1164093 220.360565 -1053.12329
v 126.822083 233.753632 -1049.63367
v -29.7884979 139.793793 -994.937256
v -6.18928528 167.667908 -1008.61346
v 22.2541046 193.532715 -1018.46301
v 54.9902191 215.754364 -1023.73083
v 90.0786896 231.903473 -1022.46533
v 124.826294 239.430573 -1013.23566
v 131.258118 234.095947 -964.671936
v 94.6061859 232.996918 -981.705505
v 103.574585 225.833008 -931.957581
v 57.2232208 222.16507 -990.381287
v 64.2650299 220.420746 -950.569031
v 74.1484833 213.663269 -900.44751
v 20.9102936 203.582581 -990.083374
v 25.5547028 206.43045 -958.495728
v 33.5486298 204.42395 -919.733093
v 43.1534576 199.27652 -870.428162
v -11.9688263 179.770935 -983.199097
v -10.9653168 186.021332 -956.253967
v -5.28370667 188.001312 -925.614929
v 2.67424011 187.515717 -887.881348
v 11.5644989 184.306732 -840.912659
v -39.7595062 152.487701 -971.505432
v -43.5153351 160.990204 -946.873596
v -41.3599091 166.467865 -920.201111
v -35.2481842 169.689056 -889.603577
v -27.4652252 171.366302 -853.224854
v -18.7502289 169.548523 -810.758972
v -62.0901642 122.603477 -955.186707
v -70.5776825 132.014282 -931.26709
v -73.2553864 140.242218 -906.144043
v -70.3670502 147.155243 -879.012817
v -63.8108673 152.7341 -848.906677
v -55.5271454 155.989349 -815.477173
v -45.6449127 154.507965 -780.31427
v -74.5239105 90.3164215 -944.133301
v -78.0081329 62.2942924 -943.792664
v -96.7637482 70.4871674 -908.218689
v -82.3973846 34.7702293 -943.993591
v -101.671997 41.8042107 -908.379272
v -115.66153 53.1821556 -872.244507
v -86.8133698 7.22405434 -942.903259
v -106.066391 14.9273787 -909.42041
v -120.044586 24.4142075 -873.797729
v -129.474823 38.9988403 -837.767761
v -88.9882355 -20.5143967 -939.310059
v -108.304886 -11.4822998 -909.339478
v -121.693451 -1.81957245 -875.624146
v -130.965714 10.4242802 -840.267639
v -136.441696 27.420599 -805.546509
v -86.408493 -47.7451401 -932.286926
v -106.22377 -38.1638489 -906.658142
v -119.292145 -27.6175003 -875.953125
v -127.904861 -15.6353226 -842.249878
v -133.504288 -1.04189301 -808.255493
v -136.36792 16.7707043 -776.432373
v -77.3904877 -73.089119 -920.932312
v -97.6390533 -64.7431259 -899.69751
v -110.991394 -54.1270523 -872.815369
v -119.292099 -41.7959137 -841.770081
v -124.679352 -27.7945137 -809.278442
v -128.408432 -11.996521 -778.33136
v -130.578781 4.96314812 -751.059204
v -55.6857758 -94.2621384 -911.412781
v -28.1027374 -105.858818 -906.919312
v -55.5743561 -105.809624 -884.681274
v 0.554458618 -111.52726 -901.740295
v -26.7664032 -115.8666 -879.663513
v -50.8207855 -113.152855 -857.508423
v 30.9925995 -111.492668 -898.165344
v 3.76759338 -119.393227 -875.486389
v -20.2495575 -120.894554 -853.985657
v -41.7084198 -116.803474 -831.414551
v 64.4291229 -105.406868 -897.677124
v 37.1883087 -117.525108 -874.513428
v 13.1391144 -122.556694 -852.581177
v -8.69544983 -122.346489 -830.888123
v -28.4234772 -117.739342 -808.013855
v 101.364685 -94.4301224 -901.653137
v 74.6537018 -110.269279 -877.353699
v 50.545578 -119.645332 -854.855225
v 28.2336884 -123.053474 -832.888794
v 7.42250061 -121.826195 -810.828308
v -11.6146393 -116.928017 -788.167358
v 141.298828 -80.2338943 -910.043823
v 116.633301 -98.3181839 -884.493469
v 93.2882233 -111.495338 -860.460999
v 70.6325836 -119.24662 -837.609192
v 48.5277557 -121.72364 -815.33606
v 27.3556061 -119.727592 -793.254395
v 7.61940002 -114.369499 -771.558105
v 186.127991 -59.4229202 -927.965576
v 224.682739 -36.6748886 -949.492981
v 202.647705 -61.6880569 -914.859436
v 256.816772 -15.0192871 -966.898193
v 238.502808 -40.4847488 -931.997009
v 215.725647 -64.5353165 -895.692627
v 280.055237 6.45623398 -978.722717
v 264.974854 -20.1369743 -942.795715
v 246.829346 -44.5520477 -906.942993
v 224.615723 -66.6191483 -870.62146
v 294.94989 28.035244 -984.880859
v 282.730713 0.315731049 -947.753967
v 267.358337 -24.7329254 -911.40033
v 250.111816 -46.9447403 -875.882812
v 227.990906 -65.4608841 -841.187134
v 303.343811 50.0740585 -985.97467
v 293.553711 21.5159855 -948.31842
v 280.021606 -4.22830582 -910.935303
v 264.980103 -26.6807404 -874.926147
v 247.530823 -45.3725052 -841.046631
v 224.62323 -59.7196884 -809.624023
v 306.093689 72.8466339 -981.559692
v 298.45929 44.2895317 -944.662415
v 286.366028 17.9736519 -906.618164
v 272.142761 -4.93390656 -869.431335
v 256.456238 -23.90868 -834.83783
v 237.847046 -38.9323959 -804.099243
v 214.432983 -50.1034698 -777.599792
v 303.941833 103.347221 -981.820801
v 296.84436 134.483429 -986.553894
v 293.820312 102.877602 -942.131714
v 283.388489 161.640533 -984.549072
v 283.64563 134.583893 -940.726074
v 277.924377 100.807213 -897.850586
v 263.697021 184.068054 -978.084473
v 267.113037 161.022247 -933.445862
v 264.815125 132.148438 -891.053589
v 257.450745 97.9217453 -850.844421
v 237.790649 201.802216 -969.911499
v 244.456116 182.213776 -924.228882
v 245.459045 157.816162 -880.462952
v 241.606628 128.408417 -840.319336
v 233.131165 94.8217697 -804.170105
v 206.489929 215.7099 -961.88269
v 215.576965 198.75177 -915.447754
v 219.609131 178.378021 -870.076294
v 219.046509 153.533844 -828.354614
v 214.128967 124.235085 -792.203857
v 205.13739 91.9446411 -761.70282
v 171.079346 226.634216 -955.685974
v 180.7052 211.941071 -909.061829
v 186.361877 194.491058 -861.549255
v 188.50885 173.663788 -817.627014
v 186.938721 148.622192 -779.989136
v 181.762939 119.781624 -749.915894
v 173.696594 89.4300995 -726.393066
v 142.910522 222.434448 -915.080688
v 113.644104 214.156525 -877.91394
v 150.024414 206.986877 -863.569214
v 82.5553741 202.732941 -845.080078
v 118.769958 198.72583 -824.965088
v 153.489624 188.491516 -814.717102
v 49.4859161 189.146759 -816.016296
v 85.6025238 187.316711 -793.055725
v 120.17041 179.204132 -777.402954
v 153.954834 166.058136 -772.556946
v 15.3968658 174.007172 -789.155945
v 50.2579498 172.758575 -766.495361
v 84.8610687 165.965179 -748.172668
v 118.74823 154.057159 -738.43573
v 151.203003 138.399261 -738.750488
v -17.3339996 157.202515 -762.607666
v 14.0670319 154.823425 -743.066162
v 47.4383087 147.710876 -725.066162
v 81.3404083 136.412109 -712.610657
v 114.148987 121.897484 -708.037231
v 145.061951 105.829033 -712.603699
v -87.8938446 101.240303 -916.532471
v -108.193512 83.2794647 -877.234314
v -95.6829987 111.856255 -889.579773
v -123.644379 68.8174744 -839.150208
v -113.605103 96.570488 -848.17627
v -97.1387177 122.370827 -862.487305
v -133.69281 56.5387306 -803.909119
v -125.835815 84.0177917 -808.808228
v -113.054291 109.066338 -819.731995
v -93.1117706 131.578888 -834.083862
v -137.35611 44.4834213 -771.717773
v -132.645554 71.1287384 -772.787109
v -122.868073 96.2028275 -779.317078
v -107.589355 118.755211 -790.524109
v -85.3756256 138.482147 -803.615906
v -134.488464 30.0971928 -742.849976
v -133.350021 55.0141182 -739.765015
v -126.959305 79.4929962 -742.310547
v -115.412659 102.744759 -749.705139
v -98.0898895 123.203804 -760.027466
v -74.746994 140.338715 -770.971191
v -80.1782684 -88.2622757 -891.99231
v -76.4132538 -98.3509903 -862.627258
v -96.0842438 -78.6341324 -867.889893
v -68.4106598 -104.735023 -833.473755
v -88.7277679 -87.564415 -836.627502
v -105.50441 -66.4581223 -839.225403
v -56.7328644 -108.25602 -805.994202
v -78.3114166 -93.4620132 -806.334839
v -95.8370514 -74.4081955 -807.048157
v -111.310715 -52.3468323 -807.632629
v -41.1250153 -109.427162 -781.657654
v -64.8197784 -97.0635452 -778.143799
v -84.1929169 -79.9927139 -776.218628
v -100.800232 -59.3239975 -775.265198
v -115.756165 -36.4066849 -775.519775
v -21.6972504 -108.327599 -760.843018
v -47.2607269 -98.2079544 -752.873108
v -69.4102936 -83.3268967 -747.397339
v -88.6967621 -64.2161026 -744.119324
v -105.461548 -42.1471558 -743.246338
v -119.683823 -18.6794815 -745.306335
v 160.821594 -81.662529 -897.827393
v 177.720642 -83.2235184 -882.0755
v 137.327271 -98.8531876 -870.085022
v 190.679138 -84.1396103 -861.177429
v 154.016541 -98.7846756 -852.328918
v 114.190674 -110.692039 -844.197144
v 198.766235 -82.523262 -835.503235
v 165.652466 -96.7182693 -829.966919
v 129.536621 -108.427574 -824.5177
v 90.4001923 -116.994301 -819.506836
v 200.228516 -76.2929611 -806.058411
v 170.930054 -90.3744125 -803.072754
v 138.348267 -102.599327 -800.336487
v 103.068909 -112.068153 -797.705933
v 65.7297821 -117.854744 -795.287415
v 193.602905 -65.0795517 -773.958801
v 167.731018 -78.3992538 -771.841858
v 138.630798 -91.0418625 -770.83728
v 107.19812 -102.04377 -770.420715
v 74.1840973 -109.839668 -770.510559
v 40.4716949 -113.753914 -770.709229
v 298.640625 71.5398254 -942.623596
v 285.149414 69.4399261 -900.639099
v 287.697754 42.5178909 -902.668457
v 266.835022 67.3039551 -856.498535
v 271.892456 41.2022629 -859.751892
v 273.572571 17.6593933 -863.210754
v 244.258606 65.3947601 -811.157104
v 251.639099 40.5050697 -815.979675
v 255.846924 18.3006096 -820.04187
v 257.588318 -2.82511902 -825.656433
v 216.960632 63.6059647 -766.637817
v 226.059387 39.8849106 -771.647217
v 232.496521 19.1777668 -776.356689
v 236.659668 -0.249620438 -782.447632
v 238.823242 -19.5049515 -791.449646
v 184.330505 62.2177048 -726.20575
v 193.756775 38.8985252 -728.141663
v 201.579163 19.2426014 -731.954407
v 207.645996 1.48893547 -738.414062
v 212.281982 -15.7185974 -748.228088
v 215.02533 -33.0120163 -761.600769
v -13.251358 -15.1932907 -645.802002
v 8.25956726 -2.74580193 -640.532227
v -28.2841644 7.88883018 -648.832275
v 33.611618 10.0670223 -639.336609
v -4.11186218 22.8454247 -646.513123
v -39.7319794 34.1869965 -657.870483
v 61.4255829 23.2857323 -643.830139
v 23.2136383 37.6389885 -648.151001
v -12.6128082 51.0729179 -658.787354
v -47.588913 62.6379585 -672.028381
v 90.1100006 37.1406975 -655.18689
v 52.2518463 52.6044922 -654.942871
v 16.5877228 67.3568954 -663.163696
v -18.0457611 80.7266541 -676.037354
v -52.2310028 91.2472992 -690.889343
v 118.504028 52.4571114 -673.392395
v 81.9853058 68.2317657 -667.970581
v 46.9026642 83.8272095 -672.29834
v 12.6780853 98.0560379 -683.230103
v -20.9938507 109.882469 -697.934631
v -53.8813019 117.641472 -714.341187
v 146.613403 69.9976501 -697.172119
v 113.025024 85.847168 -686.773071
v 79.1702423 101.722404 -686.617981
v 45.1364899 116.162361 -694.863098
v 11.3551788 127.976662 -708.764648
v -21.3419342 136.210022 -725.637878
v -51.9772797 139.20459 -743.677307
v 16.7809296 -26.9892082 -644.496948
v 49.4313202 -34.6960411 -650.277649
v 42.6706085 -14.077961 -639.679993
v 84.1584625 -38.7738113 -664.626526
v 78.1860809 -21.0926704 -648.307312
v 70.8886871 -1.41864395 -641.415527
v 119.772522 -41.1127548 -686.573181
v 114.311401 -24.956337 -666.727722
v 107.652222 -8.46805573 -654.711609
v 99.9133453 11.4011421 -650.88208
v 154.755249 -44.173233 -713.59082
v 150.135437 -27.4907265 -692.895569
v 143.878967 -11.9332428 -678.10083
v 136.857971 4.8993721 -669.783875
v 128.74762 25.6922379 -668.281555
v 187.02478 -47.7522736 -744.145203
v 184.311584 -30.2857399 -724.63562
v 179.118103 -13.8628502 -709.434937
v 172.805176 2.39583778 -699.21344
v 165.549866 20.3495789 -693.94458
v 156.792358 42.3352509 -693.583191
v -12.7845917 -35.1259308 -652.780212
v -8.59547424 -53.3512039 -664.957581
v 20.2867889 -46.4951324 -656.906616
v -2.61039734 -69.7585068 -681.671875
v 26.7658234 -63.5687027 -674.752869
v 54.7443085 -52.6521759 -668.647705
v 2.91590881 -84.2811356 -701.926147
v 33.6298065 -78.7677536 -696.327026
v 61.9418182 -68.417305 -691.452881
v 90.1786041 -55.3570099 -687.801697
v 6.60374451 -96.8165817 -724.614014
v 38.720993 -92.406395 -720.234009
v 68.541153 -83.3788528 -716.449524
v 97.3038177 -71.2981033 -713.642334
v 125.995667 -57.9989014 -712.250061
v 7.90361023 -106.794853 -748.337402
v 41.1891327 -104.453178 -745.452759
v 73.0232697 -97.7006454 -742.790955
v 103.53772 -87.2701035 -741.041443
v 132.935242 -74.8438339 -740.223572
v 161.16626 -61.780571 -740.902283
v -41.4000092 -13.3353729 -652.996338
v -66.1717377 -9.75343704 -660.643616
v -40.6476593 -35.116188 -660.070007
v -87.4238434 -5.26994324 -669.452087
v -64.5621185 -32.7573013 -668.031311
v -36.5239716 -54.0805969 -672.288574
v -104.631546 -0.71203804 -681.712585
v -84.6341095 -29.1187172 -678.851746
v -60.1255341 -52.2617264 -681.645569
v -31.2534943 -70.7550278 -689.220459
v -117.177399 3.29043007 -699.438354
v -100.464264 -24.9114418 -694.763367
v -79.4269867 -49.2014694 -695.642334
v -54.8048553 -69.5623856 -700.876648
v -26.4297638 -85.6102982 -710.332581
v -125.25383 5.76243782 -723.06073
v -111.812958 -20.9262962 -716.906921
v -94.3860626 -45.5663376 -715.783325
v -73.7721405 -67.2472305 -718.625427
v -50.1831207 -85.0511398 -724.899536
v -23.2396698 -98.2421036 -734.674133
v -58.4391632 13.6081867 -658.119995
v -70.3794708 42.3070107 -669.062927
v -83.348526 19.7721939 -667.373901
v -77.9087067 71.2529144 -685.163208
v -94.5468903 49.3187675 -680.227844
v -103.317978 25.2958221 -677.979614
v -81.3914642 98.6575394 -706.607544
v -100.748108 77.4896393 -699.017395
v -112.823685 54.2651825 -693.554016
v -118.31665 29.4340324 -692.791931
v -80.7595367 122.539833 -734.395996
v -102.135468 102.786003 -724.778198
v -116.82933 80.5848541 -716.805237
v -125.394928 56.574379 -712.537903
v -128.24559 31.5979099 -714.306641
g 
f 3 1 2
f 5 2 4
f 6 3 5
f 8 4 7
f 9 5 8
f 10 6 9
f 12 7 11
f 13 8 12
f 14 9 13
f 15 10 14
f 17 11 16
f 18 12 17
f 19 13 18
f 20 14 19
f 21 15 20
f 23 16 22
f 24 17 23
f 25 18 24
f 26 19 25
f 27 20 26
f 28 21 27
f 30 22 29
f 31 23 30
f 32 24 31
f 33 25 32
f 34 26 33
f 35 27 34
f 36 28 35
f 3 2 5
f 5 4 8
f 6 5 9
f 8 7 12
f 9 8 13
f 10 9 14
f 12 11 17
f 13 12 18
f 14 13 19
f 15 14 20
f 17 16 23
f 18 17 24
f 19 18 25
f 20 19 26
f 21 20 27
f 23 22 30
f 24 23 31
f 25 24 32
f 26 25 33
f 27 26 34
f 28 27 35
f 37 1 3
f 38 3 6
f 39 37 38
f 40 6 10
f 41 38 40
f 42 39 41
f 43 10 15
f 44 40 43
f 45 41 44
f 46 42 45
f 47 15 21
f 48 43 47
f 49 44 48
f 50 45 49
f 51 46 50
f 52 21 28
f 53 47 52
f 54 48 53
f 55 49 54
f 56 50 55
f 57 51 56
f 58 28 36
f 59 52 58
f 60 53 59
f 61 54 60
f 62 55 61
f 63 56 62
f 64 57 63
f 37 3 38
f 38 6 40
f 39 38 41
f 40 10 43
f 41 40 44
f 42 41 45
f 43 15 47
f 44 43 48
f 45 44 49
f 46 45 50
f 47 21 52
f 48 47 53
f 49 48 54
f 50 49 55
f 51 50 56
f 52 28 58
f 53 52 59
f 54 53 60
f 55 54 61
f 56 55 62
f 57 56 63
f 65 1 37
f 66 37 39
f 67 65 66
f 68 39 42
f 69 66 68
f 70 67 69
f 71 42 46
f 72 68 71
f 73 69 72
f 74 70 73
f 75 46 51
f 76 71 75
f 77 72 76
f 78 73 77
f 79 74 78
f 80 51 57
f 81 75 80
f 82 76 81
f 83 77 82
f 84 78 83
f 85 79 84
f 86 57 64
f 87 80 86
f 88 81 87
f 89 82 88
f 90 83 89
f 91 84 90
f 92 85 91
f 65 37 66
f 66 39 68
f 67 66 69
f 68 42 71
f 69 68 72
f 70 69 73
f 71 46 75
f 72 71 76
f 73 72 77
f 74 73 78
f 75 51 80
f 76 75 81
f 77 76 82
f 78 77 83
f 79 78 84
f 80 57 86
f 81 80 87
f 82 81 88
f 83 82 89
f 84 83 90
f 85 84 91
f 93 1 65
f 94 65 67
f 95 93 94
f 96 67 70
f 97 94 96
f 98 95 97
f 99 70 74
f 100 96 99
f 101 97 100
f 102 98 101
f 103 74 79
f 104 99 103
f 105 100 104
f 106 101 105
f 107 102 106
f 108 79 85
f 109 103 108
f 110 104 109
f 111 105 110
f 112 106 111
f 113 107 112
f 114 85 92
f 115 108 114
f 116 109 115
f 117 110 116
f 118 111 117
f 119 112 118
f 120 113 119
f 93 65 94
f 94 67 96
f 95 94 97
f 96 70 99
f 97 96 100
f 98 97 101
f 99 74 103
f 100 99 104
f 101 100 105
f 102 101 106
f 103 79 108
f 104 103 109
f 105 104 110
f 106 105 111
f 107 106 112
f 108 85 114
f 109 108 115
f 110 109 116
f 111 110 117
f 112 111 118
f 113 112 119
f 2 1 93
f 121 93 95
f 4 2 121
f 122 95 98
f 123 121 122
f 7 4 123
f 124 98 102
f 125 122 124
f 126 123 125
f 11 7 126
f 127 102 107
f 128 124 127
f 129 125 128
f 130 126 129
f 16 11 130
f 131 107 113
f 132 127 131
f 133 128 132
f 134 129 133
f 135 130 134
f 22 16 135
f 136 113 120
f 137 131 136
f 138 132 137
f 139 133 138
f 140 134 139
f 141 135 140
f 29 22 141
f 2 93 121
f 121 95 122
f 4 121 123
f 122 98 124
f 123 122 125
f 7 123 126
f 124 102 127
f 125 124 128
f 126 125 129
f 11 126 130
f 127 107 131
f 128 127 132
f 129 128 133
f 130 129 134
f 16 130 135
f 131 113 136
f 132 131 137
f 133 132 138
f 134 133 139
f 135 134 140
f 22 135 141
f 142 29 141
f 143 141 140
f 144 142 143
f 145 140 139
f 146 143 145
f 147 144 146
f 148 139 138
f 149 145 148
f 150 146 149
f 151 147 150
f 152 138 137
f 153 148 152
f 154 149 153
f 155 150 154
f 156 151 155
f 157 137 136
f 158 152 157
f 159 153 158
f 160 154 159
f 161 155 160
f 162 156 161
f 163 136 120
f 164 157 163
f 165 158 164
f 166 159 165
f 167 160 166
f 168 161 167
f 169 162 168
f 142 141 143
f 143 140 145
f 144 143 146
f 145 139 148
f 146 145 149
f 147 146 150
f 148 138 152
f 149 148 153
f 150 149 154
f 151 150 155
f 152 137 157
f 153 152 158
f 154 153 159
f 155 154 160
f 156 155 161
f 157 136 163
f 158 157 164
f 159 158 165
f 160 159 166
f 161 160 167
f 162 161 168
f 170 120 119
f 171 119 118
f 172 170 171
f 173 118 117
f 174 171 173
f 175 172 174
f 176 117 116
f 177 173 176
f 178 174 177
f 179 175 178
f 180 116 115
f 181 176 180
f 182 177 181
f 183 178 182
f 184 179 183
f 185 115 114
f 186 180 185
f 187 181 186
f 188 182 187
f 189 183 188
f 190 184 189
f 191 114 92
f 192 185 191
f 193 186 192
f 194 187 193
f 195 188 194
f 196 189 195
f 197 190 196
f 170 119 171
f 171 118 173
f 172 171 174
f 173 117 176
f 174 173 177
f 175 174 178
f 176 116 180
f 177 176 181
f 178 177 182
f 179 178 183
f 180 115 185
f 181 180 186
f 182 181 187
f 183 182 188
f 184 183 189
f 185 114 191
f 186 185 192
f 187 186 193
f 188 187 194
f 189 188 195
f 190 189 196
f 198 92 91
f 199 91 90
f 200 198 199
f 201 90 89
f 202 199 201
f 203 200 202
f 204 89 88
f 205 201 204
f 206 202 205
f 207 203 206
f 208 88 87
f 209 204 208
f 210 205 209
f 211 206 210
f 212 207 211
f 213 87 86
f 214 208 213
f 215 209 214
f 216 210 215
f 217 211 216
f 218 212 217
f 219 86 64
f 220 213 219
f 221 214 220
f 222 215 221
f 223 216 222
f 224 217 223
f 225 218 224
f 198 91 199
f 199 90 201
f 200 199 202
f 201 89 204
f 202 201 205
f 203 202 206
f 204 88 208
f 205 204 209
f 206 205 210
f 207 206 211
f 208 87 213
f 209 208 214
f 210 209 215
f 211 210 216
f 212 211 217
f 213 86 219
f 214 213 220
f 215 214 221
f 216 215 222
f 217 216 223
f 218 217 224
f 226 64 63
f 227 63 62
f 228 226 227
f 229 62 61
f 230 227 229
f 231 228 230
f 232 61 60
f 233 229 232
f 234 230 233
f 235 231 234
f 236 60 59
f 237 232 236
f 238 233 237
f 239 234 238
f 240 235 239
f 241 59 58
f 242 236 241
f 243 237 242
f 244 238 243
f 245 239 244
f 246 240 245
f 247 58 36
f 248 241 247
f 249 242 248
f 250 243 249
f 251 244 250
f 252 245 251
f 253 246 252
f 226 63 227
f 227 62 229
f 228 227 230
f 229 61 232
f 230 229 233
f 231 230 234
f 232 60 236
f 233 232 237
f 234 233 238
f 235 234 239
f 236 59 241
f 237 236 242
f 238 237 243
f 239 238 244
f 240 239 245
f 241 58 247
f 242 241 248
f 243 242 249
f 244 243 250
f 245 244 251
f 246 245 252
f 254 36 35
f 255 35 34
f 256 254 255
f 257 34 33
f 258 255 257
f 259 256 258
f 260 33 32
f 261 257 260
f 262 258 261
f 263 259 262
f 264 32 31
f 265 260 264
f 266 261 265
f 267 262 266
f 268 263 267
f 269 31 30
f 270 264 269
f 271 265 270
f 272 266 271
f 273 267 272
f 274 268 273
f 275 30 29
f 276 269 275
f 277 270 276
f 278 271 277
f 279 272 278
f 280 273 279
f 281 274 280
f 254 35 255
f 255 34 257
f 256 255 258
f 257 33 260
f 258 257 261
f 259 258 262
f 260 32 264
f 261 260 265
f 262 261 266
f 263 262 267
f 264 31 269
f 265 264 270
f 266 265 271
f 267 266 272
f 268 267 273
f 269 30 275
f 270 269 276
f 271 270 277
f 272 271 278
f 273 272 279
f 274 273 280
f 275 29 142
f 282 142 144
f 276 275 282
f 283 144 147
f 284 282 283
f 277 276 284
f 285 147 151
f 286 283 285
f 287 284 286
f 278 277 287
f 288 151 156
f 289 285 288
f 290 286 289
f 291 287 290
f 279 278 291
f 292 156 162
f 293 288 292
f 294 289 293
f 295 290 294
f 296 291 295
f 280 279 296
f 297 162 169
f 298 292 297
f 299 293 298
f 300 294 299
f 301 295 300
f 302 296 301
f 281 280 302
f 275 142 282
f 282 144 283
f 276 282 284
f 283 147 285
f 284 283 286
f 277 284 287
f 285 151 288
f 286 285 289
f 287 286 290
f 278 287 291
f 288 156 292
f 289 288 293
f 290 289 294
f 291 290 295
f 279 291 296
f 292 162 297
f 293 292 298
f 294 293 299
f 295 294 300
f 296 295 301
f 280 296 302
f 163 120 170
f 303 170 172
f 164 163 303
f 304 172 175
f 305 303 304
f 165 164 305
f 306 175 179
f 307 304 306
f 308 305 307
f 166 165 308
f 309 179 184
f 310 306 309
f 311 307 310
f 312 308 311
f 167 166 312
f 313 184 190
f 314 309 313
f 315 310 314
f 316 311 315
f 317 312 316
f 168 167 317
f 318 190 197
f 319 313 318
f 320 314 319
f 321 315 320
f 322 316 321
f 323 317 322
f 169 168 323
f 163 170 303
f 303 172 304
f 164 303 305
f 304 175 306
f 305 304 307
f 165 305 308
f 306 179 309
f 307 306 310
f 308 307 311
f 166 308 312
f 309 184 313
f 310 309 314
f 311 310 315
f 312 311 316
f 167 312 317
f 313 190 318
f 314 313 319
f 315 314 320
f 316 315 321
f 317 316 322
f 168 317 323
f 191 92 198
f 324 198 200
f 192 191 324
f 325 200 203
f 326 324 325
f 193 192 326
f 327 203 207
f 328 325 327
f 329 326 328
f 194 193 329
f 330 207 212
f 331 327 330
f 332 328 331
f 333 329 332
f 195 194 333
f 334 212 218
f 335 330 334
f 336 331 335
f 337 332 336
f 338 333 337
f 196 195 338
f 339 218 225
f 340 334 339
f 341 335 340
f 342 336 341
f 343 337 342
f 344 338 343
f 197 196 344
f 191 198 324
f 324 200 325
f 192 324 326
f 325 203 327
f 326 325 328
f 193 326 329
f 327 207 330
f 328 327 331
f 329 328 332
f 194 329 333
f 330 212 334
f 331 330 335
f 332 331 336
f 333 332 337
f 195 333 338
f 334 218 339
f 335 334 340
f 336 335 341
f 337 336 342
f 338 337 343
f 196 338 344
f 219 64 226
f 345 226 228
f 220 219 345
f 346 228 231
f 347 345 346
f 221 220 347
f 348 231 235
f 349 346 348
f 350 347 349
f 222 221 350
f 351 235 240
f 352 348 351
f 353 349 352
f 354 350 353
f 223 222 354
f 355 240 246
f 356 351 355
f 357 352 356
f 358 353 357
f 359 354 358
f 224 223 359
f 360 246 253
f 361 355 360
f 362 356 361
f 363 357 362
f 364 358 363
f 365 359 364
f 225 224 365
f 219 226 345
f 345 228 346
f 220 345 347
f 346 231 348
f 347 346 349
f 221 347 350
f 348 235 351
f 349 348 352
f 350 349 353
f 222 350 354
f 351 240 355
f 352 351 356
f 353 352 357
f 354 353 358
f 223 354 359
f 355 246 360
f 356 355 361
f 357 356 362
f 358 357 363
f 359 358 364
f 224 359 365
f 247 36 254
f 366 254 256
f 248 247 366
f 367 256 259
f 368 366 367
f 249 248 368
f 369 259 263
f 370 367 369
f 371 368 370
f 250 249 371
f 372 263 268
f 373 369 372
f 374 370 373
f 375 371 374
f 251 250 375
f 376 268 274
f 377 372 376
f 378 373 377
f 379 374 378
f 380 375 379
f 252 251 380
f 381 274 281
f 382 376 381
f 383 377 382
f 384 378 383
f 385 379 384
f 386 380 385
f 253 252 386
f 247 254 366
f 366 256 367
f 248 366 368
f 367 259 369
f 368 367 370
f 249 368 371
f 369 263 372
f 370 369 373
f 371 370 374
f 250 371 375
f 372 268 376
f 373 372 377
f 374 373 378
f 375 374 379
f 251 375 380
f 376 274 381
f 377 376 382
f 378 377 383
f 379 378 384
f 380 379 385
f 252 380 386
f 389 387 388
f 391 388 390
f 392 389 391
f 394 390 393
f 395 391 394
f 396 392 395
f 398 393 397
f 399 394 398
f 400 395 399
f 401 396 400
f 403 397 402
f 404 398 403
f 405 399 404
f 406 400 405
f 407 401 406
f 409 402 408
f 410 403 409
f 411 404 410
f 412 405 411
f 413 406 412
f 414 407 413
f 302 408 281
f 301 409 302
f 300 410 301
f 299 411 300
f 298 412 299
f 297 413 298
f 169 414 297
f 389 388 391
f 391 390 394
f 392 391 395
f 394 393 398
f 395 394 399
f 396 395 400
f 398 397 403
f 399 398 404
f 400 399 405
f 401 400 406
f 403 402 409
f 404 403 410
f 405 404 411
f 406 405 412
f 407 406 413
f 409 408 302
f 410 409 301
f 411 410 300
f 412 411 299
f 413 412 298
f 414 413 297
f 388 387 415
f 417 415 416
f 390 388 417
f 419 416 418
f 420 417 419
f 393 390 420
f 422 418 421
f 423 419 422
f 424 420 423
f 397 393 424
f 426 421 425
f 427 422 426
f 428 423 427
f 429 424 428
f 402 397 429
f 431 425 430
f 432 426 431
f 433 427 432
f 434 428 433
f 435 429 434
f 408 402 435
f 386 430 253
f 385 431 386
f 384 432 385
f 383 433 384
f 382 434 383
f 381 435 382
f 281 408 381
f 388 415 417
f 417 416 419
f 390 417 420
f 419 418 422
f 420 419 423
f 393 420 424
f 422 421 426
f 423 422 427
f 424 423 428
f 397 424 429
f 426 425 431
f 427 426 432
f 428 427 433
f 429 428 434
f 402 429 435
f 431 430 386
f 432 431 385
f 433 432 384
f 434 433 383
f 435 434 382
f 408 435 381
f 415 387 436
f 438 436 437
f 416 415 438
f 440 437 439
f 441 438 440
f 418 416 441
f 443 439 442
f 444 440 443
f 445 441 444
f 421 418 445
f 447 442 446
f 448 443 447
f 449 444 448
f 450 445 449
f 425 421 450
f 452 446 451
f 453 447 452
f 454 448 453
f 455 449 454
f 456 450 455
f 430 425 456
f 365 451 225
f 364 452 365
f 363 453 364
f 362 454 363
f 361 455 362
f 360 456 361
f 253 430 360
f 415 436 438
f 438 437 440
f 416 438 441
f 440 439 443
f 441 440 444
f 418 441 445
f 443 442 447
f 444 443 448
f 445 444 449
f 421 445 450
f 447 446 452
f 448 447 453
f 449 448 454
f 450 449 455
f 425 450 456
f 452 451 365
f 453 452 364
f 454 453 363
f 455 454 362
f 456 455 361
f 430 456 360
f 436 387 457
f 459 457 458
f 437 436 459
f 461 458 460
f 462 459 461
f 439 437 462
f 464 460 463
f 465 461 464
f 466 462 465
f 442 439 466
f 468 463 467
f 469 464 468
f 470 465 469
f 471 466 470
f 446 442 471
f 473 467 472
f 474 468 473
f 475 469 474
f 476 470 475
f 477 471 476
f 451 446 477
f 344 472 197
f 343 473 344
f 342 474 343
f 341 475 342
f 340 476 341
f 339 477 340
f 225 451 339
f 436 457 459
f 459 458 461
f 437 459 462
f 461 460 464
f 462 461 465
f 439 462 466
f 464 463 468
f 465 464 469
f 466 465 470
f 442 466 471
f 468 467 473
f 469 468 474
f 470 469 475
f 471 470 476
f 446 471 477
f 473 472 344
f 474 473 343
f 475 474 342
f 476 475 341
f 477 476 340
f 451 477 339
f 457 387 389
f 478 389 392
f 458 457 478
f 479 392 396
f 480 478 479
f 460 458 480
f 481 396 401
f 482 479 481
f 483 480 482
f 463 460 483
f 484 401 407
f 485 481 484
f 486 482 485
f 487 483 486
f 467 463 487
f 488 407 414
f 489 484 488
f 490 485 489
f 491 486 490
f 492 487 491
f 472 467 492
f 323 414 169
f 322 488 323
f 321 489 322
f 320 490 321
f 319 491 320
f 318 492 319
f 197 472 318
f 457 389 478
f 478 392 479
f 458 478 480
f 479 396 481
f 480 479 482
f 460 480 483
f 481 401 484
f 482 481 485
f 483 482 486
f 463 483 487
f 484 407 488
f 485 484 489
f 486 485 490
f 487 486 491
f 467 487 492
f 488 414 323
f 489 488 322
f 490 489 321
f 491 490 320
f 492 491 319
f 472 492 318
