# File exported by Houdini 20.5.445 (www.sidefx.com)
# 492 points
# 2940 vertices
# 980 primitives
# Bounds: [-130.599487, -191.097977, -1095.0304] to [301.373383, 307.475098, -659.77063]
g 
v 72.198761 113.667236 -991.434082
v 62.4165344 152.311844 -991.591431
v 90.58078 116.986145 -974.39978
v 53.2342834 186.021698 -988.979248
v 83.4513245 157.171799 -972.932495
v 110.987885 117.204605 -958.521484
v 45.1700134 214.443985 -983.993774
v 77.1828308 190.874939 -969.197266
v 105.997284 158.522797 -955.867554
v 133.410126 116.623734 -943.555908
v 39.2139587 237.938599 -977.417725
v 72.2814636 219.269547 -964.231812
v 102.334259 192.497116 -951.378784
v 130.820709 158.902527 -939.973267
v 158.16568 117.625702 -928.69104
v 36.0699768 257.069458 -969.592285
v 69.4802551 243.452957 -958.609375
v 100.551422 221.500305 -946.305054
v 130.222565 193.662674 -934.992065
v 158.607574 160.550934 -924.398071
v 184.942169 121.593903 -912.787842
v 35.0467834 272.512756 -960.410767
v 68.4402771 264.370789 -951.939453
v 100.446014 247.546097 -940.758057
v 131.463593 224.486084 -929.418945
v 161.17038 196.875793 -918.621948
v 188.507904 165.146347 -907.471191
v 212.07309 128.944412 -894.71936
v 35.2426453 284.716614 -949.183472
v 68.2134705 282.06427 -943.051392
v 101.237823 271.183411 -933.464478
v 133.964752 253.301163 -922.431396
v 165.477386 230.35025 -911.257812
v 194.270599 203.295547 -899.686523
v 218.609283 172.625977 -887.272461
v 237.312836 138.477341 -873.882202
v 92.5430603 74.1605225 -978.599243
v 113.092499 73.1995087 -961.071411
v 112.309235 31.2803345 -964.846069
v 135.059906 70.9184418 -945.579712
v 134.187103 28.3432884 -947.43042
v 131.748566 -12.7842598 -949.581665
v 158.474274 70.7062988 -930.846436
v 157.347748 26.2635956 -931.77832
v 154.726288 -15.0263672 -931.78186
v 151.413788 -54.295166 -930.500977
v 183.622467 74.4761505 -915.053223
v 181.59848 28.5544281 -915.808472
v 179.12088 -14.508934 -914.365112
v 175.604706 -53.8881378 -911.129395
v 171.532623 -90.3456116 -906.606323
v 210.244049 82.6883087 -896.573975
v 207.375519 36.1898155 -897.314819
v 204.905304 -8.70317841 -895.044678
v 201.764252 -49.9265594 -890.635254
v 197.468231 -86.9203186 -885.051025
v 191.937164 -119.586609 -879.159912
v 236.816559 94.969223 -874.160034
v 234.418732 49.1322975 -874.210083
v 232.39621 3.02172279 -871.498169
v 230.174347 -40.664566 -866.350708
v 226.363373 -79.8599701 -860.511719
v 220.516693 -113.597595 -854.843628
v 212.17099 -141.437454 -850.302124
v 69.085907 83.6213989 -1001.18945
v 90.6134949 38.8038673 -985.724609
v 68.6850281 50.7652321 -1009.7384
v 110.975067 -7.08629608 -969.078491
v 91.6809387 2.4951725 -990.758667
v 70.934967 16.2916412 -1015.71423
v 130.862579 -51.6564484 -949.950317
v 112.984039 -44.4490891 -970.328369
v 95.2372131 -33.3689499 -993.067749
v 75.0891418 -18.1232262 -1017.88721
v 150.843048 -91.7878113 -926.183716
v 133.646027 -88.0907898 -946.643433
v 117.488556 -79.8834229 -968.414307
v 100.195709 -67.3070679 -991.594971
v 79.4392395 -50.1452179 -1016.04187
v 171.010834 -125.741409 -897.747681
v 153.8237 -126.392761 -918.097778
v 138.201996 -121.849701 -939.818359
v 122.052704 -111.930069 -962.849365
v 103.583832 -97.1114655 -986.293579
v 81.039032 -77.0845795 -1010.77002
v 191.438446 -152.249222 -865.92395
v 173.468781 -157.746552 -884.564087
v 157.279938 -157.594391 -905.732178
v 140.860992 -150.960007 -928.95105
v 122.671478 -138.088242 -953.225586
v 101.734528 -119.732864 -977.557251
v 77.5909729 -96.4792633 -1002.25903
v 48.7762146 131.159088 -1010.25293
v 45.8330994 99.0538635 -1023.39685
v 24.6488953 144.069885 -1029.18066
v 46.2314758 65.3843079 -1033.50635
v 22.3569031 110.31546 -1044.40552
v -0.730682373 153.151657 -1046.89172
v 49.2826233 30.9263115 -1039.26746
v 23.5739441 76.2898865 -1054.40015
v -2.43759155 118.63414 -1062.88306
v -27.1235046 158.608566 -1061.75842
v 53.2345886 -2.92951965 -1041.0072
v 26.6289978 42.2493858 -1059.86658
v -1.21633911 84.759964 -1072.88379
v -28.8142395 124.199646 -1077.90271
v -53.2791748 160.437897 -1072.08777
v 55.9756775 -34.1109314 -1038.71985
v 29.2588196 9.2668438 -1061.46606
v 0.811004639 51.522953 -1078.2749
v -28.368042 91.178833 -1087.62988
v -55.4655457 127.175568 -1087.27283
v -77.1513672 159.12294 -1075.83582
v 54.6672058 -59.7576294 -1031.77856
v 29.0401306 -20.3952866 -1057.92517
v 0.966278076 19.9125214 -1078.6604
v -28.4739685 59.1451225 -1091.67004
v -56.7160339 95.369812 -1095.0304
v -80.4271545 127.529663 -1088.03943
v -97.0726624 155.352402 -1071.54895
v 34.8091736 170.670242 -1009.73462
v 7.41323853 182.495361 -1026.11548
v 22.5571594 202.571228 -1005.07336
v -20.0246887 189.147598 -1039.92285
v -6.52374268 211.68158 -1017.77161
v 12.8614197 227.792206 -997.100464
v -47.2878113 190.951294 -1050.50647
v -34.7411499 214.880402 -1027.2052
v -16.8208008 233.441132 -1005.77563
v 6.51968384 247.453049 -986.896362
v -73.0078735 188.393158 -1055.83423
v -61.8814697 212.819672 -1032.58875
v -44.9797058 232.936417 -1010.35962
v -23.0585938 249.412155 -991.140747
v 3.58621216 262.666382 -974.991943
v -95.3605957 182.271835 -1053.46802
v -86.7105713 206.227768 -1031.52478
v -71.5301514 227.241287 -1009.13599
v -50.8087463 245.535385 -989.469727
v -25.5791626 261.409302 -973.577515
v 3.34048462 274.720276 -960.794922
v 15.0626526 287.389709 -941.676758
v -20.0209045 272.766113 -952.610352
v -5.58804321 284.935364 -930.291504
v -50.0613708 255.722153 -965.529053
v -42.107666 266.475037 -941.320923
v -26.532135 279.171204 -916.37793
v -75.0153503 237.092667 -982.269409
v -71.8376465 246.737228 -955.120728
v -62.9320679 258.220764 -928.365234
v -46.8420105 271.067444 -900.980103
v -94.3710632 216.678665 -1003.04797
v -95.2989197 226.018112 -973.023071
v -91.1661377 236.699722 -943.375244
v -81.4385376 248.690506 -914.105103
v -64.884552 260.493408 -884.275024
v -107.011749 193.654755 -1026.30615
v -112.013702 203.4608 -994.764526
v -112.000275 214.06572 -962.250488
v -106.880676 225.704391 -930.031982
v -96.041626 237.366043 -898.236938
v -79.4075623 247.247787 -867.084473
v -112.123505 166.827805 -1048.9436
v -120.855316 176.839874 -1019.15894
v -124.786469 187.613449 -985.484741
v -123.925659 199.544128 -950.540527
v -117.496521 211.498016 -915.702271
v -105.798279 222.130554 -882.432007
v -89.1645813 229.932114 -851.681152
v -104.36618 134.043655 -1073.25012
v -84.6958618 101.83371 -1089.6604
v -107.147186 111.993469 -1069.1394
v -58.7695312 67.1166382 -1094.4386
v -85.2799683 77.039032 -1083.61621
v -106.289154 91.0277557 -1058.05688
v -29.7049866 29.9472961 -1087.38489
v -58.8688965 41.2937355 -1084.55884
v -83.7504578 55.0513649 -1068.84326
v -102.957886 72.9102936 -1039.33044
v -0.427581787 -8.89141083 -1069.76123
v -30.6771851 4.29216766 -1072.76477
v -58.26828 19.1925278 -1064.85352
v -80.9584961 36.73452 -1045.08179
v -97.7390137 57.7437477 -1013.24438
v 27.9579773 -48.2768936 -1043.39417
v -2.15090942 -34.0857239 -1049.74707
v -31.506012 -17.9267921 -1047.70203
v -56.844574 0.609998703 -1035.58862
v -76.7776794 21.4771538 -1013.23071
v -90.5620422 44.3787193 -981.515869
v 54.9573669 -87.2434692 -1010.84094
v 27.0489807 -73.7899857 -1017.19312
v -3.07913208 -57.2810211 -1018.51636
v -31.0258179 -37.7919464 -1012.27258
v -53.7250977 -15.8510094 -997.508301
v -70.3174133 7.42970657 -974.931641
v -80.6022339 30.7139473 -946.609741
v 85.815094 -123.962112 -974.888428
v 112.879608 -149.46402 -946.046021
v 91.4444275 -144.045532 -944.375854
v 135.899017 -167.63269 -918.69165
v 121.239105 -168.529587 -912.755615
v 95.9020691 -155.69696 -911.798828
v 156.070831 -178.359879 -892.697632
v 146.385712 -184.230759 -883.621216
v 128.603424 -176.834778 -878.471191
v 100.644623 -157.832809 -877.777344
v 174.593903 -181.02359 -869.092163
v 169.151398 -191.097977 -857.278809
v 156.550751 -188.37352 -848.903076
v 136.32962 -174.035721 -843.857788
v 107.057037 -151.017776 -842.857666
v 193.984039 -176.305634 -848.49231
v 191.541595 -189.275009 -833.84436
v 182.943573 -190.477417 -822.386353
v 167.710541 -180.46785 -814.129639
v 145.541901 -161.472839 -808.935913
v 115.855682 -137.464767 -807.024902
v 216.642975 -164.646851 -831.093384
v 216.672516 -179.385788 -813.792358
v 211.161285 -183.632889 -798.866333
v 199.181732 -177.258835 -786.99585
v 180.775238 -162.249603 -778.209961
v 156.351715 -141.899796 -772.549561
v 126.716949 -119.39447 -770.508057
v 238.228668 -140.26445 -824.470947
v 248.70816 -107.144012 -828.641235
v 263.328033 -131.138748 -800.307129
v 254.307343 -68.0955505 -834.272583
v 273.337128 -92.4550323 -804.650757
v 284.43277 -114.43634 -778.077026
v 256.546234 -24.2062378 -840.499756
v 276.699921 -48.5022888 -810.547485
v 291.876495 -71.1310425 -782.796265
v 297.588898 -91.6070099 -757.802856
v 257.116669 23.2276459 -846.00415
v 276.390228 -0.649261475 -816.956299
v 291.958771 -23.416069 -788.88208
v 301.373383 -45.1008987 -762.945557
v 299.75473 -64.6060562 -739.687134
v 258.059601 72.4261475 -848.88147
v 275.104401 50.0544319 -821.915283
v 288.865204 27.6573868 -794.605225
v 297.83432 5.41965485 -768.556763
v 299.495819 -15.9054794 -744.947632
v 290.949066 -34.5066261 -723.960938
v 258.645721 121.644806 -850.136719
v 274.342743 102.751129 -824.46228
v 285.380157 81.9382477 -798.203125
v 291.573395 59.8034859 -772.579102
v 292.178986 37.4150581 -749.030151
v 286.6008 16.3239708 -728.369629
v 274.651031 -1.42993164 -710.436279
v 248.643951 169.530319 -860.133789
v 227.171173 205.18425 -875.721558
v 253.756989 197.298569 -846.497925
v 199.485016 234.756943 -889.842041
v 228.616058 232.426041 -864.408813
v 250.733429 220.421082 -832.91687
v 167.286346 258.954529 -902.497925
v 197.30191 259.693542 -879.825317
v 221.990875 253.650345 -852.433228
v 238.827911 238.534866 -819.170288
v 132.24472 277.868958 -914.197266
v 161.591583 280.565186 -893.013916
v 187.394745 278.073364 -868.355591
v 207.228668 268.997681 -839.069946
v 219.025726 252.180649 -805.021973
v 95.3908386 290.674561 -925.056519
v 122.564178 295.39856 -904.781372
v 148.055206 295.453369 -881.43689
v 169.478302 290.165588 -854.53064
v 184.504913 279.065674 -823.891357
v 192.770721 261.657715 -790.303101
v 57.1511536 295.116333 -933.111816
v 80.464325 302.462585 -914.349243
v 103.96225 305.548218 -892.259766
v 125.498138 303.54187 -866.621582
v 142.601959 296.279358 -837.796021
v 154.472015 283.887573 -806.845825
v 161.850983 266.639954 -775.346924
v 36.634552 298.452148 -922.324341
v 15.5243835 296.140808 -907.825195
v 58.6372986 305.491516 -900.728882
v -6.11755371 290.026611 -891.212158
v 36.1792908 302.50238 -883.918701
v 79.7896423 307.475098 -875.95752
v -27.3565369 279.944397 -872.874146
v 13.0090027 294.455017 -864.780396
v 54.9937439 302.815002 -856.664185
v 98.2023621 303.722595 -847.466064
v -46.8730164 265.866821 -853.182129
v -9.90084839 280.905029 -843.381836
v 29.893219 291.612732 -834.469116
v 71.1266174 296.398132 -824.960449
v 112.87619 293.925476 -815.3573
v -62.5740662 246.953079 -833.656738
v -30.2759094 261.463745 -820.204346
v 6.27481079 273.090271 -809.0354
v 45.3379822 280.71106 -798.343262
v 85.1618347 282.6875 -788.539673
v 124.423981 277.970276 -780.7677
v -119.454468 145.849457 -1045.67969
v -121.356689 125.722015 -1036.75769
v -127.505463 157.347015 -1011.72681
v -119.210815 107.660294 -1021.52112
v -128.353455 139.723389 -999.199463
v -130.599487 170.216324 -974.59668
v -113.941528 91.9430389 -999.368408
v -124.630188 123.86232 -980.601562
v -129.707886 154.237045 -958.494263
v -128.119202 183.441391 -935.681152
v -105.887115 77.5399628 -970.637085
v -117.031555 108.864548 -955.33667
v -123.588623 138.794861 -936.241943
v -124.855225 167.683563 -915.650635
v -119.474701 195.551453 -896.682373
v -93.989502 62.157711 -936.693359
v -104.737213 92.6642456 -923.599609
v -111.854797 122.136108 -907.269531
v -114.744995 150.759354 -889.303589
v -112.625305 178.659012 -872.392578
v -104.389832 205.337021 -859.192261
v 58.6789856 -111.674881 -980.519043
v 60.2458191 -127.64505 -947.908936
v 27.3708191 -95.2720947 -983.517578
v 62.0924377 -134.851257 -913.77771
v 26.8587341 -107.709488 -948.489502
v -3.80661011 -75.3183823 -981.142578
v 66.2192078 -133.363235 -877.701538
v 28.493927 -111.673965 -911.824585
v -4.0519104 -84.6498718 -943.199097
v -30.7098389 -52.0814056 -971.453003
v 74.1144714 -124.248871 -838.616821
v 34.3852234 -107.660522 -871.571411
v -0.460357666 -85.9861145 -902.467407
v -28.6567993 -58.391037 -929.732178
v -50.9537354 -26.2261734 -953.583374
v 86.6036682 -108.490158 -796.133301
v 46.3848572 -95.6543884 -825.740723
v 9.53414917 -78.8107071 -855.611328
v -21.1974487 -56.4979706 -883.025513
v -45.1647034 -28.9513893 -906.889648
v -64.1016235 1.17676926 -927.933228
v 242.893341 -160.616104 -802.69165
v 266.306976 -147.863464 -777.87085
v 240.730927 -169.485764 -783.749023
v 282.940765 -127.813354 -755.589966
v 259.916901 -151.712799 -758.203491
v 231.088287 -167.056885 -767.477417
v 289.238068 -102.276901 -735.393188
v 270.106781 -128.076447 -735.092407
v 244.3862 -144.695511 -740.489624
v 213.897675 -155.220444 -753.992432
v 283.953888 -71.7842255 -717.428833
v 269.280853 -98.9089966 -713.956421
v 247.609833 -117.053146 -715.654663
v 220.413422 -128.709641 -725.01001
v 189.388641 -136.452286 -743.74292
v 268.77951 -35.6408539 -702.191406
v 257.14151 -62.8829956 -695.566528
v 239.146759 -82.5101166 -693.199707
v 215.476898 -95.9233704 -698.329834
v 187.768707 -105.443939 -713.056152
v 157.804657 -112.901733 -737.535889
v 268.753937 153.238464 -831.986816
v 269.923676 179.392136 -815.023926
v 280.294159 133.949844 -803.578125
v 261.19101 200.471741 -799.281128
v 275.393524 158.573059 -785.021851
v 284.701141 112.223572 -776.373535
v 243.471161 217.678177 -784.319092
v 260.494232 178.738953 -768.264404
v 272.960358 135.928375 -757.27124
v 282.843842 89.0338745 -751.310303
v 217.990265 231.847931 -769.512573
v 237.220001 196.400879 -752.463745
v 252.259674 156.355423 -739.927368
v 264.843719 112.534805 -732.162476
v 275.980255 65.6400452 -728.874878
v 185.797943 242.337814 -754.43335
v 206.234406 211.640396 -736.581299
v 223.691803 175.060806 -722.879272
v 238.953217 133.763947 -713.938843
v 252.511261 89.3343811 -709.579712
v 264.274811 43.6585732 -708.975952
v 68.1100159 109.218613 -693.370117
v 81.1280823 141.141388 -682.911621
v 38.5293274 131.878922 -710.919067
v 92.4485168 170.814621 -680.10376
v 49.2256775 166.299301 -700.903931
v 8.44656372 152.247147 -730.660034
v 103.24173 197.258698 -686.204468
v 59.9072571 196.759003 -700.519531
v 18.7550354 186.982559 -722.985962
v -19.9363708 171.197952 -752.419434
v 114.867279 220.064728 -700.58252
v 71.8750916 222.983932 -709.956177
v 30.6332092 216.934509 -726.070312
v -8.48086548 205.109207 -748.076904
v -44.8807373 189.02153 -775.622803
v 128.613068 239.063797 -721.752319
v 86.3634338 245.175919 -727.833984
v 45.2625427 242.519882 -739.256714
v 5.76339722 234.025986 -755.311279
v -31.3624878 221.438019 -775.102905
v -64.9224854 205.444229 -799.935059
v 144.730377 254.498856 -747.441406
v 104.040619 263.506409 -752.187622
v 63.4077454 264.410645 -760.740112
v 23.5917664 258.96521 -772.698975
v -14.4477844 249.028824 -786.823364
v -49.3349609 235.789078 -803.602661
v -79.5360107 219.501526 -825.299316
v 104.660553 102.983673 -672.728027
v 138.900482 91.0477142 -661.83313
v 120.337921 134.792374 -667.595947
v 170.345184 73.4121399 -660.561646
v 154.704681 121.737549 -663.498413
v 132.512543 162.877579 -670.888916
v 199.328461 52.4349327 -666.797852
v 185.153412 103.567993 -667.619995
v 166.617706 148.605743 -672.055908
v 143.399384 187.413727 -682.176758
v 226.365631 31.268074 -678.404907
v 213.079437 82.6845551 -677.462402
v 196.892181 129.980347 -680.065308
v 177.669952 172.131577 -687.274292
v 155.149689 208.598282 -700.654419
v 251.78299 12.7755661 -693.35437
v 239.504974 61.9429665 -691.424683
v 225.274261 109.425156 -692.730835
v 208.904266 153.534225 -698.177002
v 190.432465 192.989151 -708.76709
v 169.318939 226.799057 -725.164917
v 74.9562683 73.5051422 -692.060547
v 79.1954041 37.2617607 -692.827515
v 113.107391 62.4364967 -669.904907
v 83.6357117 1.73472786 -698.200562
v 119.20401 23.1898766 -670.456177
v 148.175446 45.8553658 -659.77063
v 90.6624451 -31.9159393 -709.841797
v 126.076935 -14.0076675 -677.199707
v 156.013824 4.00571823 -662.21106
v 180.624176 24.7481499 -660.540649
v 101.056915 -63.2043762 -727.232422
v 135.299896 -48.8301086 -691.296631
v 165.184845 -34.6736374 -671.619263
v 190.678741 -18.7381058 -665.640869
v 211.257721 2.18374825 -669.40332
v 113.807892 -92.2400513 -748.222046
v 146.647491 -81.5483398 -711.955322
v 176.450348 -70.8085785 -688.625366
v 202.768646 -58.4321823 -677.77356
v 224.562286 -41.9643555 -677.29895
v 240.927826 -18.8030739 -683.819092
v 36.1875916 91.2037354 -720.609619
v 5.45480347 74.2809906 -753.052002
v 40.3974915 53.119915 -723.266479
v -22.4320984 60.3558922 -788.535767
v 8.80270386 35.2279587 -759.636108
v 43.056488 16.5263004 -728.910034
v -45.9781189 50.0323296 -825.952393
v -18.5895996 21.3287582 -798.934937
v 11.6893005 -1.03178024 -770.14978
v 47.5683289 -17.9234238 -739.711304
v -63.8668213 42.5087929 -865.016968
v -40.546875 11.7218533 -840.201782
v -14.2354736 -14.3333397 -813.994019
v 17.6907043 -34.5433235 -785.630127
v 56.2521667 -49.9333038 -755.714722
v -75.2756653 36.2936249 -905.529419
v -55.9005127 5.38449097 -883.277344
v -33.6968689 -23.3688011 -859.593262
v -5.7472229 -47.3508148 -833.529663
v 28.986969 -65.7622681 -804.906982
v 69.6023865 -79.8618164 -775.269043
v 4.48324585 113.953766 -742.751587
v -25.7149963 134.892395 -764.282715
v -25.6051636 98.9200287 -777.334229
v -52.7061157 154.676804 -786.045776
v -54.0301514 121.258652 -799.529785
v -51.2824097 87.3109589 -813.558594
v -75.2872314 173.494797 -808.607666
v -78.3992615 142.038925 -821.773682
v -76.8934021 110.797577 -836.835449
v -71.847168 78.4432068 -851.77417
v -92.5841064 190.7901 -832.728882
v -98.0799866 161.402039 -845.575928
v -98.1261597 131.897537 -861.36377
v -94.1102295 102.021011 -877.734497
v -86.3045654 70.6019592 -892.713989
g 
f 3 1 2
f 5 2 4
f 6 3 5
f 8 4 7
f 9 5 8
f 10 6 9
f 12 7 11
f 13 8 12
f 14 9 13
f 15 10 14
f 17 11 16
f 18 12 17
f 19 13 18
f 20 14 19
f 21 15 20
f 23 16 22
f 24 17 23
f 25 18 24
f 26 19 25
f 27 20 26
f 28 21 27
f 30 22 29
f 31 23 30
f 32 24 31
f 33 25 32
f 34 26 33
f 35 27 34
f 36 28 35
f 3 2 5
f 5 4 8
f 6 5 9
f 8 7 12
f 9 8 13
f 10 9 14
f 12 11 17
f 13 12 18
f 14 13 19
f 15 14 20
f 17 16 23
f 18 17 24
f 19 18 25
f 20 19 26
f 21 20 27
f 23 22 30
f 24 23 31
f 25 24 32
f 26 25 33
f 27 26 34
f 28 27 35
f 37 1 3
f 38 3 6
f 39 37 38
f 40 6 10
f 41 38 40
f 42 39 41
f 43 10 15
f 44 40 43
f 45 41 44
f 46 42 45
f 47 15 21
f 48 43 47
f 49 44 48
f 50 45 49
f 51 46 50
f 52 21 28
f 53 47 52
f 54 48 53
f 55 49 54
f 56 50 55
f 57 51 56
f 58 28 36
f 59 52 58
f 60 53 59
f 61 54 60
f 62 55 61
f 63 56 62
f 64 57 63
f 37 3 38
f 38 6 40
f 39 38 41
f 40 10 43
f 41 40 44
f 42 41 45
f 43 15 47
f 44 43 48
f 45 44 49
f 46 45 50
f 47 21 52
f 48 47 53
f 49 48 54
f 50 49 55
f 51 50 56
f 52 28 58
f 53 52 59
f 54 53 60
f 55 54 61
f 56 55 62
f 57 56 63
f 65 1 37
f 66 37 39
f 67 65 66
f 68 39 42
f 69 66 68
f 70 67 69
f 71 42 46
f 72 68 71
f 73 69 72
f 74 70 73
f 75 46 51
f 76 71 75
f 77 72 76
f 78 73 77
f 79 74 78
f 80 51 57
f 81 75 80
f 82 76 81
f 83 77 82
f 84 78 83
f 85 79 84
f 86 57 64
f 87 80 86
f 88 81 87
f 89 82 88
f 90 83 89
f 91 84 90
f 92 85 91
f 65 37 66
f 66 39 68
f 67 66 69
f 68 42 71
f 69 68 72
f 70 69 73
f 71 46 75
f 72 71 76
f 73 72 77
f 74 73 78
f 75 51 80
f 76 75 81
f 77 76 82
f 78 77 83
f 79 78 84
f 80 57 86
f 81 80 87
f 82 81 88
f 83 82 89
f 84 83 90
f 85 84 91
f 93 1 65
f 94 65 67
f 95 93 94
f 96 67 70
f 97 94 96
f 98 95 97
f 99 70 74
f 100 96 99
f 101 97 100
f 102 98 101
f 103 74 79
f 104 99 103
f 105 100 104
f 106 101 105
f 107 102 106
f 108 79 85
f 109 103 108
f 110 104 109
f 111 105 110
f 112 106 111
f 113 107 112
f 114 85 92
f 115 108 114
f 116 109 115
f 117 110 116
f 118 111 117
f 119 112 118
f 120 113 119
f 93 65 94
f 94 67 96
f 95 94 97
f 96 70 99
f 97 96 100
f 98 97 101
f 99 74 103
f 100 99 104
f 101 100 105
f 102 101 106
f 103 79 108
f 104 103 109
f 105 104 110
f 106 105 111
f 107 106 112
f 108 85 114
f 109 108 115
f 110 109 116
f 111 110 117
f 112 111 118
f 113 112 119
f 2 1 93
f 121 93 95
f 4 2 121
f 122 95 98
f 123 121 122
f 7 4 123
f 124 98 102
f 125 122 124
f 126 123 125
f 11 7 126
f 127 102 107
f 128 124 127
f 129 125 128
f 130 126 129
f 16 11 130
f 131 107 113
f 132 127 131
f 133 128 132
f 134 129 133
f 135 130 134
f 22 16 135
f 136 113 120
f 137 131 136
f 138 132 137
f 139 133 138
f 140 134 139
f 141 135 140
f 29 22 141
f 2 93 121
f 121 95 122
f 4 121 123
f 122 98 124
f 123 122 125
f 7 123 126
f 124 102 127
f 125 124 128
f 126 125 129
f 11 126 130
f 127 107 131
f 128 127 132
f 129 128 133
f 130 129 134
f 16 130 135
f 131 113 136
f 132 131 137
f 133 132 138
f 134 133 139
f 135 134 140
f 22 135 141
f 142 29 141
f 143 141 140
f 144 142 143
f 145 140 139
f 146 143 145
f 147 144 146
f 148 139 138
f 149 145 148
f 150 146 149
f 151 147 150
f 152 138 137
f 153 148 152
f 154 149 153
f 155 150 154
f 156 151 155
f 157 137 136
f 158 152 157
f 159 153 158
f 160 154 159
f 161 155 160
f 162 156 161
f 163 136 120
f 164 157 163
f 165 158 164
f 166 159 165
f 167 160 166
f 168 161 167
f 169 162 168
f 142 141 143
f 143 140 145
f 144 143 146
f 145 139 148
f 146 145 149
f 147 146 150
f 148 138 152
f 149 148 153
f 150 149 154
f 151 150 155
f 152 137 157
f 153 152 158
f 154 153 159
f 155 154 160
f 156 155 161
f 157 136 163
f 158 157 164
f 159 158 165
f 160 159 166
f 161 160 167
f 162 161 168
f 170 120 119
f 171 119 118
f 172 170 171
f 173 118 117
f 174 171 173
f 175 172 174
f 176 117 116
f 177 173 176
f 178 174 177
f 179 175 178
f 180 116 115
f 181 176 180
f 182 177 181
f 183 178 182
f 184 179 183
f 185 115 114
f 186 180 185
f 187 181 186
f 188 182 187
f 189 183 188
f 190 184 189
f 191 114 92
f 192 185 191
f 193 186 192
f 194 187 193
f 195 188 194
f 196 189 195
f 197 190 196
f 170 119 171
f 171 118 173
f 172 171 174
f 173 117 176
f 174 173 177
f 175 174 178
f 176 116 180
f 177 176 181
f 178 177 182
f 179 178 183
f 180 115 185
f 181 180 186
f 182 181 187
f 183 182 188
f 184 183 189
f 185 114 191
f 186 185 192
f 187 186 193
f 188 187 194
f 189 188 195
f 190 189 196
f 198 92 91
f 199 91 90
f 200 198 199
f 201 90 89
f 202 199 201
f 203 200 202
f 204 89 88
f 205 201 204
f 206 202 205
f 207 203 206
f 208 88 87
f 209 204 208
f 210 205 209
f 211 206 210
f 212 207 211
f 213 87 86
f 214 208 213
f 215 209 214
f 216 210 215
f 217 211 216
f 218 212 217
f 219 86 64
f 220 213 219
f 221 214 220
f 222 215 221
f 223 216 222
f 224 217 223
f 225 218 224
f 198 91 199
f 199 90 201
f 200 199 202
f 201 89 204
f 202 201 205
f 203 202 206
f 204 88 208
f 205 204 209
f 206 205 210
f 207 206 211
f 208 87 213
f 209 208 214
f 210 209 215
f 211 210 216
f 212 211 217
f 213 86 219
f 214 213 220
f 215 214 221
f 216 215 222
f 217 216 223
f 218 217 224
f 226 64 63
f 227 63 62
f 228 226 227
f 229 62 61
f 230 227 229
f 231 228 230
f 232 61 60
f 233 229 232
f 234 230 233
f 235 231 234
f 236 60 59
f 237 232 236
f 238 233 237
f 239 234 238
f 240 235 239
f 241 59 58
f 242 236 241
f 243 237 242
f 244 238 243
f 245 239 244
f 246 240 245
f 247 58 36
f 248 241 247
f 249 242 248
f 250 243 249
f 251 244 250
f 252 245 251
f 253 246 252
f 226 63 227
f 227 62 229
f 228 227 230
f 229 61 232
f 230 229 233
f 231 230 234
f 232 60 236
f 233 232 237
f 234 233 238
f 235 234 239
f 236 59 241
f 237 236 242
f 238 237 243
f 239 238 244
f 240 239 245
f 241 58 247
f 242 241 248
f 243 242 249
f 244 243 250
f 245 244 251
f 246 245 252
f 254 36 35
f 255 35 34
f 256 254 255
f 257 34 33
f 258 255 257
f 259 256 258
f 260 33 32
f 261 257 260
f 262 258 261
f 263 259 262
f 264 32 31
f 265 260 264
f 266 261 265
f 267 262 266
f 268 263 267
f 269 31 30
f 270 264 269
f 271 265 270
f 272 266 271
f 273 267 272
f 274 268 273
f 275 30 29
f 276 269 275
f 277 270 276
f 278 271 277
f 279 272 278
f 280 273 279
f 281 274 280
f 254 35 255
f 255 34 257
f 256 255 258
f 257 33 260
f 258 257 261
f 259 258 262
f 260 32 264
f 261 260 265
f 262 261 266
f 263 262 267
f 264 31 269
f 265 264 270
f 266 265 271
f 267 266 272
f 268 267 273
f 269 30 275
f 270 269 276
f 271 270 277
f 272 271 278
f 273 272 279
f 274 273 280
f 275 29 142
f 282 142 144
f 276 275 282
f 283 144 147
f 284 282 283
f 277 276 284
f 285 147 151
f 286 283 285
f 287 284 286
f 278 277 287
f 288 151 156
f 289 285 288
f 290 286 289
f 291 287 290
f 279 278 291
f 292 156 162
f 293 288 292
f 294 289 293
f 295 290 294
f 296 291 295
f 280 279 296
f 297 162 169
f 298 292 297
f 299 293 298
f 300 294 299
f 301 295 300
f 302 296 301
f 281 280 302
f 275 142 282
f 282 144 283
f 276 282 284
f 283 147 285
f 284 283 286
f 277 284 287
f 285 151 288
f 286 285 289
f 287 286 290
f 278 287 291
f 288 156 292
f 289 288 293
f 290 289 294
f 291 290 295
f 279 291 296
f 292 162 297
f 293 292 298
f 294 293 299
f 295 294 300
f 296 295 301
f 280 296 302
f 163 120 170
f 303 170 172
f 164 163 303
f 304 172 175
f 305 303 304
f 165 164 305
f 306 175 179
f 307 304 306
f 308 305 307
f 166 165 308
f 309 179 184
f 310 306 309
f 311 307 310
f 312 308 311
f 167 166 312
f 313 184 190
f 314 309 313
f 315 310 314
f 316 311 315
f 317 312 316
f 168 167 317
f 318 190 197
f 319 313 318
f 320 314 319
f 321 315 320
f 322 316 321
f 323 317 322
f 169 168 323
f 163 170 303
f 303 172 304
f 164 303 305
f 304 175 306
f 305 304 307
f 165 305 308
f 306 179 309
f 307 306 310
f 308 307 311
f 166 308 312
f 309 184 313
f 310 309 314
f 311 310 315
f 312 311 316
f 167 312 317
f 313 190 318
f 314 313 319
f 315 314 320
f 316 315 321
f 317 316 322
f 168 317 323
f 191 92 198
f 324 198 200
f 192 191 324
f 325 200 203
f 326 324 325
f 193 192 326
f 327 203 207
f 328 325 327
f 329 326 328
f 194 193 329
f 330 207 212
f 331 327 330
f 332 328 331
f 333 329 332
f 195 194 333
f 334 212 218
f 335 330 334
f 336 331 335
f 337 332 336
f 338 333 337
f 196 195 338
f 339 218 225
f 340 334 339
f 341 335 340
f 342 336 341
f 343 337 342
f 344 338 343
f 197 196 344
f 191 198 324
f 324 200 325
f 192 324 326
f 325 203 327
f 326 325 328
f 193 326 329
f 327 207 330
f 328 327 331
f 329 328 332
f 194 329 333
f 330 212 334
f 331 330 335
f 332 331 336
f 333 332 337
f 195 333 338
f 334 218 339
f 335 334 340
f 336 335 341
f 337 336 342
f 338 337 343
f 196 338 344
f 219 64 226
f 345 226 228
f 220 219 345
f 346 228 231
f 347 345 346
f 221 220 347
f 348 231 235
f 349 346 348
f 350 347 349
f 222 221 350
f 351 235 240
f 352 348 351
f 353 349 352
f 354 350 353
f 223 222 354
f 355 240 246
f 356 351 355
f 357 352 356
f 358 353 357
f 359 354 358
f 224 223 359
f 360 246 253
f 361 355 360
f 362 356 361
f 363 357 362
f 364 358 363
f 365 359 364
f 225 224 365
f 219 226 345
f 345 228 346
f 220 345 347
f 346 231 348
f 347 346 349
f 221 347 350
f 348 235 351
f 349 348 352
f 350 349 353
f 222 350 354
f 351 240 355
f 352 351 356
f 353 352 357
f 354 353 358
f 223 354 359
f 355 246 360
f 356 355 361
f 357 356 362
f 358 357 363
f 359 358 364
f 224 359 365
f 247 36 254
f 366 254 256
f 248 247 366
f 367 256 259
f 368 366 367
f 249 248 368
f 369 259 263
f 370 367 369
f 371 368 370
f 250 249 371
f 372 263 268
f 373 369 372
f 374 370 373
f 375 371 374
f 251 250 375
f 376 268 274
f 377 372 376
f 378 373 377
f 379 374 378
f 380 375 379
f 252 251 380
f 381 274 281
f 382 376 381
f 383 377 382
f 384 378 383
f 385 379 384
f 386 380 385
f 253 252 386
f 247 254 366
f 366 256 367
f 248 366 368
f 367 259 369
f 368 367 370
f 249 368 371
f 369 263 372
f 370 369 373
f 371 370 374
f 250 371 375
f 372 268 376
f 373 372 377
f 374 373 378
f 375 374 379
f 251 375 380
f 376 274 381
f 377 376 382
f 378 377 383
f 379 378 384
f 380 379 385
f 252 380 386
f 389 387 388
f 391 388 390
f 392 389 391
f 394 390 393
f 395 391 394
f 396 392 395
f 398 393 397
f 399 394 398
f 400 395 399
f 401 396 400
f 403 397 402
f 404 398 403
f 405 399 404
f 406 400 405
f 407 401 406
f 409 402 408
f 410 403 409
f 411 404 410
f 412 405 411
f 413 406 412
f 414 407 413
f 302 408 281
f 301 409 302
f 300 410 301
f 299 411 300
f 298 412 299
f 297 413 298
f 169 414 297
f 389 388 391
f 391 390 394
f 392 391 395
f 394 393 398
f 395 394 399
f 396 395 400
f 398 397 403
f 399 398 404
f 400 399 405
f 401 400 406
f 403 402 409
f 404 403 410
f 405 404 411
f 406 405 412
f 407 406 413
f 409 408 302
f 410 409 301
f 411 410 300
f 412 411 299
f 413 412 298
f 414 413 297
f 388 387 415
f 417 415 416
f 390 388 417
f 419 416 418
f 420 417 419
f 393 390 420
f 422 418 421
f 423 419 422
f 424 420 423
f 397 393 424
f 426 421 425
f 427 422 426
f 428 423 427
f 429 424 428
f 402 397 429
f 431 425 430
f 432 426 431
f 433 427 432
f 434 428 433
f 435 429 434
f 408 402 435
f 386 430 253
f 385 431 386
f 384 432 385
f 383 433 384
f 382 434 383
f 381 435 382
f 281 408 381
f 388 415 417
f 417 416 419
f 390 417 420
f 419 418 422
f 420 419 423
f 393 420 424
f 422 421 426
f 423 422 427
f 424 423 428
f 397 424 429
f 426 425 431
f 427 426 432
f 428 427 433
f 429 428 434
f 402 429 435
f 431 430 386
f 432 431 385
f 433 432 384
f 434 433 383
f 435 434 382
f 408 435 381
f 415 387 436
f 438 436 437
f 416 415 438
f 440 437 439
f 441 438 440
f 418 416 441
f 443 439 442
f 444 440 443
f 445 441 444
f 421 418 445
f 447 442 446
f 448 443 447
f 449 444 448
f 450 445 449
f 425 421 450
f 452 446 451
f 453 447 452
f 454 448 453
f 455 449 454
f 456 450 455
f 430 425 456
f 365 451 225
f 364 452 365
f 363 453 364
f 362 454 363
f 361 455 362
f 360 456 361
f 253 430 360
f 415 436 438
f 438 437 440
f 416 438 441
f 440 439 443
f 441 440 444
f 418 441 445
f 443 442 447
f 444 443 448
f 445 444 449
f 421 445 450
f 447 446 452
f 448 447 453
f 449 448 454
f 450 449 455
f 425 450 456
f 452 451 365
f 453 452 364
f 454 453 363
f 455 454 362
f 456 455 361
f 430 456 360
f 436 387 457
f 459 457 458
f 437 436 459
f 461 458 460
f 462 459 461
f 439 437 462
f 464 460 463
f 465 461 464
f 466 462 465
f 442 439 466
f 468 463 467
f 469 464 468
f 470 465 469
f 471 466 470
f 446 442 471
f 473 467 472
f 474 468 473
f 475 469 474
f 476 470 475
f 477 471 476
f 451 446 477
f 344 472 197
f 343 473 344
f 342 474 343
f 341 475 342
f 340 476 341
f 339 477 340
f 225 451 339
f 436 457 459
f 459 458 461
f 437 459 462
f 461 460 464
f 462 461 465
f 439 462 466
f 464 463 468
f 465 464 469
f 466 465 470
f 442 466 471
f 468 467 473
f 469 468 474
f 470 469 475
f 471 470 476
f 446 471 477
f 473 472 344
f 474 473 343
f 475 474 342
f 476 475 341
f 477 476 340
f 451 477 339
f 457 387 389
f 478 389 392
f 458 457 478
f 479 392 396
f 480 478 479
f 460 458 480
f 481 396 401
f 482 479 481
f 483 480 482
f 463 460 483
f 484 401 407
f 485 481 484
f 486 482 485
f 487 483 486
f 467 463 487
f 488 407 414
f 489 484 488
f 490 485 489
f 491 486 490
f 492 487 491
f 472 467 492
f 323 414 169
f 322 488 323
f 321 489 322
f 320 490 321
f 319 491 320
f 318 492 319
f 197 472 318
f 457 389 478
f 478 392 479
f 458 478 480
f 479 396 481
f 480 479 482
f 460 480 483
f 481 401 484
f 482 481 485
f 483 482 486
f 463 483 487
f 484 407 488
f 485 484 489
f 486 485 490
f 487 486 491
f 467 487 492
f 488 414 323
f 489 488 322
f 490 489 321
f 491 490 320
f 492 491 319
f 472 492 318
