# File exported by Houdini 20.5.445 (www.sidefx.com)
# 492 points
# 2940 vertices
# 980 primitives
# Bounds: [-98.2077026, -199.724625, -1139.71753] to [268.981628, 316.101746, -615.083496]
g 
v 114.239319 144.786041 -1042.23193
v 109.101074 178.925919 -1025.15588
v 128.987061 151.931671 -1016.52112
v 102.789978 210.402191 -1005.47815
v 123.136353 188.483582 -993.551758
v 142.508606 156.612152 -987.322021
v 97.3917847 238.737473 -983.836426
v 116.806152 220.191177 -968.891479
v 136.305603 193.779541 -959.615479
v 155.181213 157.317871 -955.026733
v 94.8503418 263.203125 -960.745117
v 112.772095 247.319931 -943.94519
v 131.013489 224.28212 -931.408203
v 149.567993 193.289474 -924.229004
v 167.885254 152.602463 -920.108765
v 95.3331299 283.323059 -936.291748
v 112.145386 269.697449 -918.341431
v 129.124023 249.305069 -903.844971
v 146.301147 221.476303 -893.652466
v 163.920227 186.000061 -887.727539
v 181.198975 142.997955 -882.91394
v 98.157959 298.873413 -910.713623
v 114.526306 287.446411 -891.71814
v 130.885071 269.280396 -875.587769
v 147.154724 243.910385 -863.442871
v 163.433838 211.405685 -855.324341
v 179.82251 173.206985 -849.633667
v 195.129028 130.464905 -843.966064
v 102.147766 309.668579 -884.801392
v 118.984619 300.641663 -864.104858
v 135.679382 284.71521 -845.877686
v 151.991699 261.418701 -831.498291
v 167.691711 231.238708 -821.761475
v 182.894409 195.891052 -814.973877
v 197.214111 157.584946 -809.404907
v 209.50708 117.676224 -804.303589
v 126.710876 112.54184 -1041.36426
v 143.411926 116.072815 -1013.7915
v 136.25415 76.2393188 -1035.97998
v 157.619629 116.98494 -983.006958
v 153.560486 77.0011902 -1005.89368
v 141.979431 36.4235382 -1024.33154
v 170.602173 113.899567 -948.799805
v 168.088806 74.9372864 -972.449829
v 159.535767 35.0891533 -991.4552
v 144.137207 -5.64488983 -1006.00977
v 183.421814 106.592682 -911.044067
v 181.577759 69.3478851 -935.263916
v 174.735718 30.8050957 -955.219238
v 162.315063 -8.67620087 -970.996338
v 144.000793 -48.0541077 -982.413574
v 196.60791 95.9555359 -869.657104
v 195.007874 60.2992058 -893.639771
v 189.263123 23.0669823 -914.69873
v 178.746887 -15.1893578 -932.281372
v 163.221924 -53.0881424 -946.123779
v 143.027588 -88.7198639 -955.72583
v 210.536987 84.0380402 -825.013428
v 209.110779 48.972805 -846.928223
v 204.213623 12.2893486 -868.411987
v 195.10498 -25.3143425 -888.125122
v 181.46582 -62.2252808 -905.128418
v 163.502197 -96.2822876 -918.688232
v 142.036011 -125.46434 -928.066895
v 106.083252 117.140442 -1064.29382
v 116.43988 80.0675812 -1061.21863
v 95.6054688 88.5578918 -1081.25439
v 122.982422 39.8943596 -1051.74414
v 103.897888 48.0245857 -1073.57178
v 83.5565186 59.2197762 -1092.22412
v 125.384766 -2.37840462 -1035.22693
v 107.965759 5.22979927 -1058.74243
v 90.0106201 16.3140182 -1078.84253
v 70.2009888 29.4089699 -1096.73547
v 124.901245 -45.6689377 -1011.89526
v 108.093445 -38.9480362 -1036.74695
v 91.8087769 -28.2113037 -1058.44482
v 74.6061401 -14.9725723 -1077.70325
v 55 0.186290741 -1094.83264
v 122.829346 -88.1547241 -983.334473
v 105.268127 -83.0957184 -1008.10596
v 89.3550415 -73.7368774 -1030.92993
v 73.6854858 -60.6183929 -1051.96887
v 56.6453247 -45.0066223 -1070.90259
v 37.4710693 -27.3310928 -1087.15686
v 120.476196 -127.988541 -951.439697
v 100.916931 -125.642059 -973.828857
v 83.5603027 -118.674332 -996.299805
v 67.6237183 -107.085129 -1018.72278
v 51.8390503 -91.4725647 -1040.22754
v 35.0077515 -72.9836502 -1059.42871
v 17.3568726 -52.338562 -1075.25305
v 96.7041016 156.669617 -1056.30164
v 87.0949097 127.638489 -1079.8418
v 80.3063354 165.743469 -1070.10986
v 75.8114624 98.7272339 -1097.18628
v 70.0217896 135.317749 -1094.12268
v 65.7752686 173.166672 -1083.7262
v 63.3837891 69.5170288 -1107.74695
v 58.2710571 105.950851 -1110.76294
v 54.9807739 141.936996 -1107.43091
v 52.9041138 179.574249 -1097.11096
v 49.3485107 40.2762871 -1110.92383
v 44.989563 76.9135284 -1119.66016
v 42.3182983 112.441727 -1122.63428
v 41.1204224 148.35527 -1119.9314
v 41.0951538 184.806793 -1109.21191
v 32.8729858 11.5619583 -1106.60498
v 29.2450562 48.1431236 -1120.21204
v 27.2251587 83.8596191 -1128.98669
v 26.805603 119.433899 -1132.96814
v 27.8491211 154.536316 -1130.23779
v 29.7805176 188.614059 -1118.2926
v 13.0353394 -16.2059784 -1095.57056
v 9.77844238 19.8312111 -1112.21973
v 8.34564209 55.934269 -1125.66467
v 8.87597656 92.0539703 -1135.50549
v 11.2023926 127.187119 -1139.71753
v 14.7854614 160.327103 -1135.65759
v 18.6087036 191.136902 -1122.27063
v 90.6981812 192.066757 -1039.8783
v 75.1345215 201.672256 -1053.76208
v 84.7783813 223.397858 -1020.92444
v 62.0707397 209.054062 -1067.31616
v 70.4933472 232.625641 -1034.75232
v 80.6192627 250.796158 -999.738281
v 50.5881348 214.564941 -1080.38013
v 58.6307373 239.281265 -1047.7998
v 67.4436035 259.213013 -1013.04578
v 79.3109131 274.060364 -976.435913
v 39.5465088 217.872162 -1091.85657
v 47.6871338 243.356857 -1059.88745
v 55.9749756 264.734985 -1024.80615
v 66.6503906 281.395813 -988.334961
v 80.6550903 293.02887 -950.645386
v 28.1290894 218.809921 -1099.62854
v 36.3917236 244.41362 -1069.65173
v 44.5466919 267.047485 -1034.89832
v 54.4474487 285.563843 -997.977905
v 67.5327759 299.075562 -960.456665
v 83.6467896 307.288452 -922.665283
v 92.7965088 315.744568 -884.170166
v 71.6230469 311.297424 -926.758423
v 81.0317383 316.101746 -886.568237
v 54.4665527 300.804199 -967.772583
v 58.2182007 309.258667 -933.246216
v 67.8318481 311.320435 -890.747437
v 41.581665 284.769836 -1007.31042
v 41.0812378 296.364319 -976.531616
v 44.6547852 302.160889 -940.004761
v 54.1902466 302.007324 -895.176758
v 32.1504517 263.626831 -1044.99951
v 28.8335571 277.830444 -1016.8584
v 28.1054688 286.995178 -984.107422
v 31.4232178 290.759277 -945.084351
v 40.5102539 288.736816 -898.368652
v 23.7478027 238.399948 -1079.36011
v 19.3909302 254.256546 -1053.8949
v 15.9622192 266.283386 -1023.74377
v 14.9914551 273.81958 -988.169067
v 18.2091064 276.227539 -946.536133
v 26.9608765 273.458191 -898.939941
v 14.0612183 209.693741 -1107.95398
v 9.76416016 225.991211 -1086.32544
v 5.37536621 239.991379 -1058.65588
v 1.77502441 251.01976 -1025.35901
v 0.933166504 257.946472 -986.532471
v 4.50201416 260.160889 -943.013184
v 13.3336792 257.941772 -896.598267
v 4.45806885 175.000366 -1129.69104
v -2.01202393 140.704102 -1138.76025
v -11.1929932 159.62619 -1127.55103
v -7.59796143 104.752167 -1136.61633
v -19.8283081 122.353256 -1131.03162
v -28.1257629 144.278885 -1116.51453
v -11.4006958 67.1936951 -1126.89954
v -26.8547974 83.3438873 -1123.80884
v -38.3350525 103.721237 -1115.37354
v -45.8591003 128.214752 -1098.49304
v -12.7518311 28.494278 -1112.66492
v -31.5183105 42.7373047 -1110.34192
v -46.1960449 61.5803261 -1104.46606
v -56.8399353 84.8706818 -1093.59595
v -63.477478 112.356842 -1074.8584
v -11.3031616 -10.8192215 -1095.4082
v -33.1134644 0.696502686 -1093.02759
v -51.1449585 17.7483139 -1087.95349
v -64.9432068 40.1642876 -1079.54089
v -74.1434021 67.1581879 -1066.41223
v -79.2027893 97.2590485 -1046.802
v -7.1842041 -50.7059097 -1074.62878
v -31.0830688 -42.8366547 -1071.98682
v -52.3508911 -28.1864166 -1067.00427
v -69.5558167 -6.74774933 -1059.33899
v -81.7722168 20.3902092 -1048.62354
v -88.3822937 50.7849388 -1034.25842
v -90.8647156 81.3309021 -1015.51624
v 6.22631836 -87.8245087 -1051.35449
v 24.7994995 -112.677643 -1030.08081
v -5.60894775 -118.943344 -1024.23718
v 42.2457275 -132.518463 -1006.22083
v 14.2439575 -144.949203 -998.26001
v -16.8943481 -142.765915 -993.918457
v 59.6304321 -146.912842 -981.75354
v 33.6239014 -163.344742 -971.065796
v 4.96813965 -167.686829 -964.228882
v -26.0822754 -157.709106 -960.313354
v 78.5524292 -156.072266 -958.345459
v 54.401062 -175.200272 -945.197998
v 27.8128662 -183.513 -935.168945
v -1.22271729 -180.211166 -928.173828
v -31.4395142 -164.08728 -924.306763
v 100.400146 -160.26413 -936.468018
v 78.3717651 -181.837708 -921.924683
v 53.8051758 -192.936508 -909.105103
v 26.6528931 -193.402817 -898.783936
v -2.05700684 -183.420029 -891.643677
v -30.0093079 -163.238617 -888.513184
v 126.05249 -158.656219 -914.628662
v 107.323792 -182.594818 -900.040771
v 85.3262329 -196.334015 -885.554932
v 60.1784058 -199.724625 -872.687866
v 32.8456421 -193.243256 -862.635986
v 5.42712402 -178.376633 -856.636719
v -19.3978882 -156.434799 -855.391479
v 156.250366 -140.302124 -896.050781
v 180.116882 -108.393997 -881.502563
v 171.757935 -148.012054 -863.683838
v 198.194946 -72.0391541 -863.14917
v 196.471985 -112.862411 -844.711548
v 186.985107 -147.161728 -830.15271
v 210.966614 -33.3477478 -842.354004
v 213.920898 -73.800293 -822.549316
v 211.559021 -108.961349 -807.621826
v 200.673828 -136.633774 -795.008057
v 219.126831 6.141119 -820.189087
v 225.812805 -32.5917435 -798.735107
v 228.476135 -67.025177 -782.441895
v 224.80719 -95.8503876 -769.893433
v 212.204529 -116.455856 -759.814209
v 223.363342 45.7208633 -797.882812
v 233.339844 10.1438332 -774.542969
v 240.050903 -22.3186188 -756.111816
v 241.649109 -50.661438 -742.272217
v 236.328186 -72.9043884 -731.942139
v 222.164673 -87.5060425 -724.941772
v 224.309631 85.5961304 -777.003052
v 237.187988 54.8143654 -751.614868
v 247.501465 25.788063 -730.266846
v 253.460327 -0.794265747 -713.929443
v 253.321899 -23.4282913 -702.238525
v 245.610107 -40.8949585 -694.959961
v 230.122742 -52.4885254 -691.959229
v 217.619202 131.595337 -769.436768
v 204.479309 173.722733 -775.226318
v 225.970642 147.353226 -738.410278
v 189.739563 212.287613 -781.9104
v 211.395752 190.003601 -746.011841
v 233.370605 164.06929 -711.537598
v 174 246.828354 -790.435425
v 195.371094 227.832077 -754.734741
v 216.530823 206.098953 -721.556152
v 237.662903 180.824417 -689.375977
v 157.016602 275.761108 -803.139526
v 177.941406 260.913757 -766.039551
v 198.219482 242.383804 -732.874512
v 218.08374 221.197296 -701.969604
v 236.864685 197.088043 -672.425171
v 138.315369 297.519653 -821.726562
v 158.161621 287.733398 -782.945679
v 177.736938 273.075195 -747.931519
v 196.549866 255.140976 -716.366211
v 214.208435 234.762115 -687.565308
v 229.589966 211.966629 -661.061401
v 117.788879 311.224487 -845.65979
v 135.100464 306.597168 -807.212036
v 153.240784 296.572937 -770.554565
v 171.251526 282.404968 -736.615112
v 188.213318 265.114197 -706.079346
v 203.233337 245.485977 -679.157227
v 215.112183 223.764526 -655.867188
v 108.156006 315.766235 -842.600952
v 96.0584106 313.901917 -842.861572
v 124.920105 309.75238 -802.917603
v 82.4205322 306.933411 -845.028076
v 112.268188 306.317078 -801.874268
v 142.305481 299.139771 -765.480103
v 67.7094727 295.038635 -847.990723
v 97.7330322 297.265564 -802.830566
v 128.875854 294.572083 -763.454956
v 159.513306 284.64801 -730.736328
v 52.2982178 279.428101 -850.476562
v 81.5460815 282.870972 -804.93335
v 113.111633 283.361816 -763.544556
v 145.082947 278.821289 -727.737183
v 175.446411 266.540588 -699.220947
v 36.1459961 262.058167 -851.516602
v 63.7336426 264.657043 -807.098267
v 94.8132935 266.024414 -764.963623
v 127.558105 264.662598 -726.893433
v 159.66449 258.057617 -694.952026
v 189.137878 244.395279 -671.127319
v -0.717346191 194.167175 -1112.11743
v -16.4028931 180.031204 -1105.77441
v -5.28869629 210.654556 -1086.49756
v -33.5435486 166.133835 -1091.30701
v -21.4353638 197.454239 -1076.09534
v -9.99127197 224.952713 -1054.29407
v -51.8656616 151.920929 -1070.48022
v -39.1833801 184.712601 -1058.21497
v -26.2365723 212.374359 -1039.45874
v -13.4189453 236.231491 -1015.91321
v -69.7197876 137.235703 -1043.96826
v -57.6138916 171.356445 -1034.0293
v -43.6598206 200.034073 -1017.46069
v -28.6693115 223.665924 -995.863403
v -13.1346436 243.168564 -971.378784
v -84.3229675 120.012283 -1012.21277
v -74.0866394 154.838974 -1003.39404
v -60.2833557 184.858948 -988.387573
v -43.6487427 209.534302 -967.979004
v -25.5877075 229.105118 -944.874146
v -6.84765625 244.63707 -921.299683
v -21.7488403 -84.0297394 -1049.02881
v -35.2382507 -109.629135 -1020.93213
v -47.1340332 -71.8708801 -1044.30408
v -46.4752197 -126.541916 -989.732178
v -60.4086914 -91.0113373 -1014.56055
v -68.3810425 -51.4676208 -1036.84717
v -54.3598328 -135.519348 -954.8479
v -70.0483398 -101.871643 -981.807007
v -80.1317139 -64.4395599 -1005.02319
v -84.3232727 -23.742569 -1026.59937
v -56.4050598 -137.857025 -916.9375
v -74.683136 -106.593384 -944.723877
v -86.7682495 -70.7336273 -969.586304
v -93.3656006 -31.7259598 -991.757202
v -93.9418335 9.12340927 -1012.99292
v -48.3036499 -134.127411 -878.356812
v -69.9794617 -105.651108 -904.057983
v -84.9929504 -71.8238068 -929.165161
v -94.3309937 -34.1786575 -952.256836
v -98.2077026 5.21236229 -973.903076
v -96.9858398 44.2932281 -995.129639
v 140.40387 -172.056168 -881.435669
v 155.306946 -175.139008 -849.055054
v 120.955444 -190.859909 -865.982178
v 169.665222 -167.778687 -816.158203
v 134.566772 -187.351517 -833.800537
v 97.6755981 -197.847458 -851.233032
v 181.820557 -149.406677 -782.024414
v 147.374756 -172.586349 -801.767334
v 110.075195 -187.418503 -819.935547
v 71.1382446 -194.25528 -838.830322
v 193.196533 -120.623627 -747.345947
v 159.436035 -146.500687 -768.907227
v 122.112366 -165.346603 -789.197388
v 82.522583 -176.97345 -808.799683
v 42.5113525 -181.143448 -829.938843
v 203.572632 -82.74617 -712.351196
v 171.208557 -109.196045 -734.793091
v 134.232056 -130.955811 -757.581909
v 94.2641602 -147.043625 -779.838257
v 53.1386719 -156.537766 -801.921143
v 14.0394287 -159.499649 -826.246826
v 235.011475 101.486679 -738.895752
v 245.033142 119.239517 -707.094116
v 249.492249 74.1697845 -712.688843
v 252.346985 137.625824 -680.985107
v 259.44751 94.390976 -681.446655
v 259.702576 48.9570732 -691.947266
v 254.434814 156.346039 -660.545776
v 264.664856 114.937866 -656.555664
v 267.661499 71.9402924 -661.538452
v 263.807068 26.1498566 -676.605469
v 249.193115 175.452042 -645.945068
v 262.637146 136.780411 -637.742065
v 268.981628 95.8403778 -637.809692
v 267.923035 52.5037498 -647.374023
v 259.938904 6.71180916 -666.7323
v 234.676453 193.322723 -637.838989
v 250.217224 159.20047 -625.762939
v 259.970215 121.403305 -621.312134
v 262.46405 80.2098999 -625.936157
v 257.655884 36.4660988 -640.228638
v 246.513977 -8.46219254 -663.05896
v 55.6455688 91.4554596 -745.225952
v 86.3843384 119.160614 -709.885498
v 38.7020264 122.011322 -756.609131
v 116.595764 145.099289 -678.273804
v 69.8811646 150.535416 -721.738281
v 25.2247925 151.484314 -770.388428
v 145.448608 167.979187 -654.361572
v 100.329956 175.775635 -693.583862
v 57.5581665 178.530014 -738.159424
v 16.8405151 179.718704 -787.640747
v 171.351868 187.199295 -640.801758
v 129.179199 197.621674 -674.410278
v 88.3989868 201.871735 -714.737915
v 49.6055908 204.009201 -759.358398
v 13.1989746 205.581085 -809.159912
v 192.304565 202.785782 -637.680786
v 154.717041 216.41333 -664.810669
v 116.720459 222.567108 -700.179565
v 79.6954956 225.2771 -740.603882
v 44.6262207 226.688202 -785.296387
v 12.4378662 227.49205 -835.199951
v 207.01123 214.763763 -643.513062
v 175.116272 232.237335 -663.999023
v 140.921509 241.523331 -693.666016
v 106.012329 245.309799 -730.061279
v 72.0002441 246.140274 -771.275879
v 40.437561 245.784286 -816.400513
v 12.5821533 244.579239 -865.137573
v 92.8502808 77.0689697 -714.629639
v 128.18927 60.3941689 -690.075562
v 128.12085 106.63829 -676.78772
v 158.80481 39.8201714 -673.701782
v 165.001526 90.3065796 -653.683228
v 159.612671 132.165878 -646.696899
v 184.394287 16.3637581 -665.672241
v 195.189575 68.9289856 -641.301514
v 195.461304 114.209686 -628.326172
v 187.062622 153.059097 -627.623291
v 204.802368 -8.32934952 -666.225586
v 218.946289 43.9070625 -638.66333
v 223.779236 91.0641327 -621.744263
v 220.234131 132.691666 -615.577148
v 209.474121 169.575607 -620.623169
v 219.974792 -32.1436729 -675.339722
v 236.076965 17.1451645 -645.958496
v 244.732727 64.2856293 -625.53064
v 245.663757 107.829407 -615.220947
v 238.974915 147.119415 -615.083496
v 225.637146 182.565536 -624.701294
v 46.7594604 53.7770576 -761.612061
v 35.1600952 14.4832153 -777.990234
v 83.5834351 33.137989 -733.035156
v 20.117981 -25.6276665 -793.809204
v 69.5075073 -11.1240654 -752.225098
v 115.676025 10.8946075 -712.86438
v 3.29418945 -64.8626556 -808.813843
v 52.2233276 -54.329071 -770.881592
v 99.071228 -36.6552124 -735.683472
v 143.243286 -13.0426102 -700.622192
v -11.2115479 -100.821091 -822.967163
v 34.921936 -94.5733185 -788.370483
v 81.2432251 -81.2221832 -757.437256
v 125.491638 -61.9897156 -726.941528
v 167.008789 -37.5870209 -696.031982
v -19.4946899 -131.696594 -838.013794
v 21.0233154 -130.167068 -806.049805
v 64.8289795 -121.707947 -778.820679
v 108.261902 -106.956802 -752.78064
v 149.426819 -86.6064148 -726.261108
v 187.13208 -61.4996338 -699.785522
v 14.9713135 84.4591217 -787.733887
v -21.9567871 81.7369995 -829.145264
v 2.90185547 45.1943245 -805.838379
v -52.8739014 83.2148132 -868.756958
v -34.6922302 41.7420883 -846.300049
v -10.2080078 6.26568031 -821.326294
v -75.7061768 86.6125641 -907.034546
v -64.4941711 42.553772 -883.901489
v -46.9477844 3.19433975 -860.283203
v -24.9140625 -32.2896729 -835.28125
v -89.2948608 88.7849426 -944.451416
v -85.1387939 45.0639343 -920.574707
v -74.4581909 3.81567764 -897.194702
v -59.2941284 -34.4545708 -873.647095
v -39.4572449 -69.5419159 -848.679932
v -93.868103 87.2238312 -980.915527
v -95.92276 46.3824654 -957.624634
v -91.8453674 5.38206291 -934.632202
v -82.8599243 -34.173027 -911.839233
v -69.0831604 -71.0184174 -887.871826
v -48.6533813 -103.904007 -862.391724
v -2.30206299 118.970459 -802.965698
v -13.0786133 151.901749 -819.436523
v -36.0927734 120.750412 -847.127075
v -17.0889282 182.378281 -838.773438
v -42.0239868 156.216522 -866.333618
v -61.6871033 125.119049 -889.709595
v -15.8882446 208.767761 -861.976196
v -40.8126221 186.965347 -888.408691
v -61.9176025 160.706894 -912.286499
v -78.2817383 128.48291 -931.376099
v -11.925415 229.50412 -889.651367
v -34.5879517 211.517853 -914.305664
v -55.2800903 189.109238 -938.040161
v -72.6561584 161.277313 -957.974609
v -85.6121521 127.361343 -972.332642
g 
f 3 1 2
f 5 2 4
f 6 3 5
f 8 4 7
f 9 5 8
f 10 6 9
f 12 7 11
f 13 8 12
f 14 9 13
f 15 10 14
f 17 11 16
f 18 12 17
f 19 13 18
f 20 14 19
f 21 15 20
f 23 16 22
f 24 17 23
f 25 18 24
f 26 19 25
f 27 20 26
f 28 21 27
f 30 22 29
f 31 23 30
f 32 24 31
f 33 25 32
f 34 26 33
f 35 27 34
f 36 28 35
f 3 2 5
f 5 4 8
f 6 5 9
f 8 7 12
f 9 8 13
f 10 9 14
f 12 11 17
f 13 12 18
f 14 13 19
f 15 14 20
f 17 16 23
f 18 17 24
f 19 18 25
f 20 19 26
f 21 20 27
f 23 22 30
f 24 23 31
f 25 24 32
f 26 25 33
f 27 26 34
f 28 27 35
f 37 1 3
f 38 3 6
f 39 37 38
f 40 6 10
f 41 38 40
f 42 39 41
f 43 10 15
f 44 40 43
f 45 41 44
f 46 42 45
f 47 15 21
f 48 43 47
f 49 44 48
f 50 45 49
f 51 46 50
f 52 21 28
f 53 47 52
f 54 48 53
f 55 49 54
f 56 50 55
f 57 51 56
f 58 28 36
f 59 52 58
f 60 53 59
f 61 54 60
f 62 55 61
f 63 56 62
f 64 57 63
f 37 3 38
f 38 6 40
f 39 38 41
f 40 10 43
f 41 40 44
f 42 41 45
f 43 15 47
f 44 43 48
f 45 44 49
f 46 45 50
f 47 21 52
f 48 47 53
f 49 48 54
f 50 49 55
f 51 50 56
f 52 28 58
f 53 52 59
f 54 53 60
f 55 54 61
f 56 55 62
f 57 56 63
f 65 1 37
f 66 37 39
f 67 65 66
f 68 39 42
f 69 66 68
f 70 67 69
f 71 42 46
f 72 68 71
f 73 69 72
f 74 70 73
f 75 46 51
f 76 71 75
f 77 72 76
f 78 73 77
f 79 74 78
f 80 51 57
f 81 75 80
f 82 76 81
f 83 77 82
f 84 78 83
f 85 79 84
f 86 57 64
f 87 80 86
f 88 81 87
f 89 82 88
f 90 83 89
f 91 84 90
f 92 85 91
f 65 37 66
f 66 39 68
f 67 66 69
f 68 42 71
f 69 68 72
f 70 69 73
f 71 46 75
f 72 71 76
f 73 72 77
f 74 73 78
f 75 51 80
f 76 75 81
f 77 76 82
f 78 77 83
f 79 78 84
f 80 57 86
f 81 80 87
f 82 81 88
f 83 82 89
f 84 83 90
f 85 84 91
f 93 1 65
f 94 65 67
f 95 93 94
f 96 67 70
f 97 94 96
f 98 95 97
f 99 70 74
f 100 96 99
f 101 97 100
f 102 98 101
f 103 74 79
f 104 99 103
f 105 100 104
f 106 101 105
f 107 102 106
f 108 79 85
f 109 103 108
f 110 104 109
f 111 105 110
f 112 106 111
f 113 107 112
f 114 85 92
f 115 108 114
f 116 109 115
f 117 110 116
f 118 111 117
f 119 112 118
f 120 113 119
f 93 65 94
f 94 67 96
f 95 94 97
f 96 70 99
f 97 96 100
f 98 97 101
f 99 74 103
f 100 99 104
f 101 100 105
f 102 101 106
f 103 79 108
f 104 103 109
f 105 104 110
f 106 105 111
f 107 106 112
f 108 85 114
f 109 108 115
f 110 109 116
f 111 110 117
f 112 111 118
f 113 112 119
f 2 1 93
f 121 93 95
f 4 2 121
f 122 95 98
f 123 121 122
f 7 4 123
f 124 98 102
f 125 122 124
f 126 123 125
f 11 7 126
f 127 102 107
f 128 124 127
f 129 125 128
f 130 126 129
f 16 11 130
f 131 107 113
f 132 127 131
f 133 128 132
f 134 129 133
f 135 130 134
f 22 16 135
f 136 113 120
f 137 131 136
f 138 132 137
f 139 133 138
f 140 134 139
f 141 135 140
f 29 22 141
f 2 93 121
f 121 95 122
f 4 121 123
f 122 98 124
f 123 122 125
f 7 123 126
f 124 102 127
f 125 124 128
f 126 125 129
f 11 126 130
f 127 107 131
f 128 127 132
f 129 128 133
f 130 129 134
f 16 130 135
f 131 113 136
f 132 131 137
f 133 132 138
f 134 133 139
f 135 134 140
f 22 135 141
f 142 29 141
f 143 141 140
f 144 142 143
f 145 140 139
f 146 143 145
f 147 144 146
f 148 139 138
f 149 145 148
f 150 146 149
f 151 147 150
f 152 138 137
f 153 148 152
f 154 149 153
f 155 150 154
f 156 151 155
f 157 137 136
f 158 152 157
f 159 153 158
f 160 154 159
f 161 155 160
f 162 156 161
f 163 136 120
f 164 157 163
f 165 158 164
f 166 159 165
f 167 160 166
f 168 161 167
f 169 162 168
f 142 141 143
f 143 140 145
f 144 143 146
f 145 139 148
f 146 145 149
f 147 146 150
f 148 138 152
f 149 148 153
f 150 149 154
f 151 150 155
f 152 137 157
f 153 152 158
f 154 153 159
f 155 154 160
f 156 155 161
f 157 136 163
f 158 157 164
f 159 158 165
f 160 159 166
f 161 160 167
f 162 161 168
f 170 120 119
f 171 119 118
f 172 170 171
f 173 118 117
f 174 171 173
f 175 172 174
f 176 117 116
f 177 173 176
f 178 174 177
f 179 175 178
f 180 116 115
f 181 176 180
f 182 177 181
f 183 178 182
f 184 179 183
f 185 115 114
f 186 180 185
f 187 181 186
f 188 182 187
f 189 183 188
f 190 184 189
f 191 114 92
f 192 185 191
f 193 186 192
f 194 187 193
f 195 188 194
f 196 189 195
f 197 190 196
f 170 119 171
f 171 118 173
f 172 171 174
f 173 117 176
f 174 173 177
f 175 174 178
f 176 116 180
f 177 176 181
f 178 177 182
f 179 178 183
f 180 115 185
f 181 180 186
f 182 181 187
f 183 182 188
f 184 183 189
f 185 114 191
f 186 185 192
f 187 186 193
f 188 187 194
f 189 188 195
f 190 189 196
f 198 92 91
f 199 91 90
f 200 198 199
f 201 90 89
f 202 199 201
f 203 200 202
f 204 89 88
f 205 201 204
f 206 202 205
f 207 203 206
f 208 88 87
f 209 204 208
f 210 205 209
f 211 206 210
f 212 207 211
f 213 87 86
f 214 208 213
f 215 209 214
f 216 210 215
f 217 211 216
f 218 212 217
f 219 86 64
f 220 213 219
f 221 214 220
f 222 215 221
f 223 216 222
f 224 217 223
f 225 218 224
f 198 91 199
f 199 90 201
f 200 199 202
f 201 89 204
f 202 201 205
f 203 202 206
f 204 88 208
f 205 204 209
f 206 205 210
f 207 206 211
f 208 87 213
f 209 208 214
f 210 209 215
f 211 210 216
f 212 211 217
f 213 86 219
f 214 213 220
f 215 214 221
f 216 215 222
f 217 216 223
f 218 217 224
f 226 64 63
f 227 63 62
f 228 226 227
f 229 62 61
f 230 227 229
f 231 228 230
f 232 61 60
f 233 229 232
f 234 230 233
f 235 231 234
f 236 60 59
f 237 232 236
f 238 233 237
f 239 234 238
f 240 235 239
f 241 59 58
f 242 236 241
f 243 237 242
f 244 238 243
f 245 239 244
f 246 240 245
f 247 58 36
f 248 241 247
f 249 242 248
f 250 243 249
f 251 244 250
f 252 245 251
f 253 246 252
f 226 63 227
f 227 62 229
f 228 227 230
f 229 61 232
f 230 229 233
f 231 230 234
f 232 60 236
f 233 232 237
f 234 233 238
f 235 234 239
f 236 59 241
f 237 236 242
f 238 237 243
f 239 238 244
f 240 239 245
f 241 58 247
f 242 241 248
f 243 242 249
f 244 243 250
f 245 244 251
f 246 245 252
f 254 36 35
f 255 35 34
f 256 254 255
f 257 34 33
f 258 255 257
f 259 256 258
f 260 33 32
f 261 257 260
f 262 258 261
f 263 259 262
f 264 32 31
f 265 260 264
f 266 261 265
f 267 262 266
f 268 263 267
f 269 31 30
f 270 264 269
f 271 265 270
f 272 266 271
f 273 267 272
f 274 268 273
f 275 30 29
f 276 269 275
f 277 270 276
f 278 271 277
f 279 272 278
f 280 273 279
f 281 274 280
f 254 35 255
f 255 34 257
f 256 255 258
f 257 33 260
f 258 257 261
f 259 258 262
f 260 32 264
f 261 260 265
f 262 261 266
f 263 262 267
f 264 31 269
f 265 264 270
f 266 265 271
f 267 266 272
f 268 267 273
f 269 30 275
f 270 269 276
f 271 270 277
f 272 271 278
f 273 272 279
f 274 273 280
f 275 29 142
f 282 142 144
f 276 275 282
f 283 144 147
f 284 282 283
f 277 276 284
f 285 147 151
f 286 283 285
f 287 284 286
f 278 277 287
f 288 151 156
f 289 285 288
f 290 286 289
f 291 287 290
f 279 278 291
f 292 156 162
f 293 288 292
f 294 289 293
f 295 290 294
f 296 291 295
f 280 279 296
f 297 162 169
f 298 292 297
f 299 293 298
f 300 294 299
f 301 295 300
f 302 296 301
f 281 280 302
f 275 142 282
f 282 144 283
f 276 282 284
f 283 147 285
f 284 283 286
f 277 284 287
f 285 151 288
f 286 285 289
f 287 286 290
f 278 287 291
f 288 156 292
f 289 288 293
f 290 289 294
f 291 290 295
f 279 291 296
f 292 162 297
f 293 292 298
f 294 293 299
f 295 294 300
f 296 295 301
f 280 296 302
f 163 120 170
f 303 170 172
f 164 163 303
f 304 172 175
f 305 303 304
f 165 164 305
f 306 175 179
f 307 304 306
f 308 305 307
f 166 165 308
f 309 179 184
f 310 306 309
f 311 307 310
f 312 308 311
f 167 166 312
f 313 184 190
f 314 309 313
f 315 310 314
f 316 311 315
f 317 312 316
f 168 167 317
f 318 190 197
f 319 313 318
f 320 314 319
f 321 315 320
f 322 316 321
f 323 317 322
f 169 168 323
f 163 170 303
f 303 172 304
f 164 303 305
f 304 175 306
f 305 304 307
f 165 305 308
f 306 179 309
f 307 306 310
f 308 307 311
f 166 308 312
f 309 184 313
f 310 309 314
f 311 310 315
f 312 311 316
f 167 312 317
f 313 190 318
f 314 313 319
f 315 314 320
f 316 315 321
f 317 316 322
f 168 317 323
f 191 92 198
f 324 198 200
f 192 191 324
f 325 200 203
f 326 324 325
f 193 192 326
f 327 203 207
f 328 325 327
f 329 326 328
f 194 193 329
f 330 207 212
f 331 327 330
f 332 328 331
f 333 329 332
f 195 194 333
f 334 212 218
f 335 330 334
f 336 331 335
f 337 332 336
f 338 333 337
f 196 195 338
f 339 218 225
f 340 334 339
f 341 335 340
f 342 336 341
f 343 337 342
f 344 338 343
f 197 196 344
f 191 198 324
f 324 200 325
f 192 324 326
f 325 203 327
f 326 325 328
f 193 326 329
f 327 207 330
f 328 327 331
f 329 328 332
f 194 329 333
f 330 212 334
f 331 330 335
f 332 331 336
f 333 332 337
f 195 333 338
f 334 218 339
f 335 334 340
f 336 335 341
f 337 336 342
f 338 337 343
f 196 338 344
f 219 64 226
f 345 226 228
f 220 219 345
f 346 228 231
f 347 345 346
f 221 220 347
f 348 231 235
f 349 346 348
f 350 347 349
f 222 221 350
f 351 235 240
f 352 348 351
f 353 349 352
f 354 350 353
f 223 222 354
f 355 240 246
f 356 351 355
f 357 352 356
f 358 353 357
f 359 354 358
f 224 223 359
f 360 246 253
f 361 355 360
f 362 356 361
f 363 357 362
f 364 358 363
f 365 359 364
f 225 224 365
f 219 226 345
f 345 228 346
f 220 345 347
f 346 231 348
f 347 346 349
f 221 347 350
f 348 235 351
f 349 348 352
f 350 349 353
f 222 350 354
f 351 240 355
f 352 351 356
f 353 352 357
f 354 353 358
f 223 354 359
f 355 246 360
f 356 355 361
f 357 356 362
f 358 357 363
f 359 358 364
f 224 359 365
f 247 36 254
f 366 254 256
f 248 247 366
f 367 256 259
f 368 366 367
f 249 248 368
f 369 259 263
f 370 367 369
f 371 368 370
f 250 249 371
f 372 263 268
f 373 369 372
f 374 370 373
f 375 371 374
f 251 250 375
f 376 268 274
f 377 372 376
f 378 373 377
f 379 374 378
f 380 375 379
f 252 251 380
f 381 274 281
f 382 376 381
f 383 377 382
f 384 378 383
f 385 379 384
f 386 380 385
f 253 252 386
f 247 254 366
f 366 256 367
f 248 366 368
f 367 259 369
f 368 367 370
f 249 368 371
f 369 263 372
f 370 369 373
f 371 370 374
f 250 371 375
f 372 268 376
f 373 372 377
f 374 373 378
f 375 374 379
f 251 375 380
f 376 274 381
f 377 376 382
f 378 377 383
f 379 378 384
f 380 379 385
f 252 380 386
f 389 387 388
f 391 388 390
f 392 389 391
f 394 390 393
f 395 391 394
f 396 392 395
f 398 393 397
f 399 394 398
f 400 395 399
f 401 396 400
f 403 397 402
f 404 398 403
f 405 399 404
f 406 400 405
f 407 401 406
f 409 402 408
f 410 403 409
f 411 404 410
f 412 405 411
f 413 406 412
f 414 407 413
f 302 408 281
f 301 409 302
f 300 410 301
f 299 411 300
f 298 412 299
f 297 413 298
f 169 414 297
f 389 388 391
f 391 390 394
f 392 391 395
f 394 393 398
f 395 394 399
f 396 395 400
f 398 397 403
f 399 398 404
f 400 399 405
f 401 400 406
f 403 402 409
f 404 403 410
f 405 404 411
f 406 405 412
f 407 406 413
f 409 408 302
f 410 409 301
f 411 410 300
f 412 411 299
f 413 412 298
f 414 413 297
f 388 387 415
f 417 415 416
f 390 388 417
f 419 416 418
f 420 417 419
f 393 390 420
f 422 418 421
f 423 419 422
f 424 420 423
f 397 393 424
f 426 421 425
f 427 422 426
f 428 423 427
f 429 424 428
f 402 397 429
f 431 425 430
f 432 426 431
f 433 427 432
f 434 428 433
f 435 429 434
f 408 402 435
f 386 430 253
f 385 431 386
f 384 432 385
f 383 433 384
f 382 434 383
f 381 435 382
f 281 408 381
f 388 415 417
f 417 416 419
f 390 417 420
f 419 418 422
f 420 419 423
f 393 420 424
f 422 421 426
f 423 422 427
f 424 423 428
f 397 424 429
f 426 425 431
f 427 426 432
f 428 427 433
f 429 428 434
f 402 429 435
f 431 430 386
f 432 431 385
f 433 432 384
f 434 433 383
f 435 434 382
f 408 435 381
f 415 387 436
f 438 436 437
f 416 415 438
f 440 437 439
f 441 438 440
f 418 416 441
f 443 439 442
f 444 440 443
f 445 441 444
f 421 418 445
f 447 442 446
f 448 443 447
f 449 444 448
f 450 445 449
f 425 421 450
f 452 446 451
f 453 447 452
f 454 448 453
f 455 449 454
f 456 450 455
f 430 425 456
f 365 451 225
f 364 452 365
f 363 453 364
f 362 454 363
f 361 455 362
f 360 456 361
f 253 430 360
f 415 436 438
f 438 437 440
f 416 438 441
f 440 439 443
f 441 440 444
f 418 441 445
f 443 442 447
f 444 443 448
f 445 444 449
f 421 445 450
f 447 446 452
f 448 447 453
f 449 448 454
f 450 449 455
f 425 450 456
f 452 451 365
f 453 452 364
f 454 453 363
f 455 454 362
f 456 455 361
f 430 456 360
f 436 387 457
f 459 457 458
f 437 436 459
f 461 458 460
f 462 459 461
f 439 437 462
f 464 460 463
f 465 461 464
f 466 462 465
f 442 439 466
f 468 463 467
f 469 464 468
f 470 465 469
f 471 466 470
f 446 442 471
f 473 467 472
f 474 468 473
f 475 469 474
f 476 470 475
f 477 471 476
f 451 446 477
f 344 472 197
f 343 473 344
f 342 474 343
f 341 475 342
f 340 476 341
f 339 477 340
f 225 451 339
f 436 457 459
f 459 458 461
f 437 459 462
f 461 460 464
f 462 461 465
f 439 462 466
f 464 463 468
f 465 464 469
f 466 465 470
f 442 466 471
f 468 467 473
f 469 468 474
f 470 469 475
f 471 470 476
f 446 471 477
f 473 472 344
f 474 473 343
f 475 474 342
f 476 475 341
f 477 476 340
f 451 477 339
f 457 387 389
f 478 389 392
f 458 457 478
f 479 392 396
f 480 478 479
f 460 458 480
f 481 396 401
f 482 479 481
f 483 480 482
f 463 460 483
f 484 401 407
f 485 481 484
f 486 482 485
f 487 483 486
f 467 463 487
f 488 407 414
f 489 484 488
f 490 485 489
f 491 486 490
f 492 487 491
f 472 467 492
f 323 414 169
f 322 488 323
f 321 489 322
f 320 490 321
f 319 491 320
f 318 492 319
f 197 472 318
f 457 389 478
f 478 392 479
f 458 478 480
f 479 396 481
f 480 479 482
f 460 480 483
f 481 401 484
f 482 481 485
f 483 482 486
f 463 483 487
f 484 407 488
f 485 484 489
f 486 485 490
f 487 486 491
f 467 487 492
f 488 414 323
f 489 488 322
f 490 489 321
f 491 490 320
f 492 491 319
f 472 492 318
