# File exported by Houdini 20.5.445 (www.sidefx.com)
# 492 points
# 2940 vertices
# 980 primitives
# Bounds: [-102.805084, -181.767944, -1075.22522] to [273.57901, 298.14505, -679.575806]
g 
v 173.207916 77.3610229 -1037.95911
v 182.745148 124.284019 -1029.90259
v 189.978363 83.3065643 -1017.12732
v 190.41983 170.576202 -1019.29578
v 199.412323 133.318329 -1006.64465
v 204.224091 89.8876953 -993.334351
v 197.538361 212.898773 -1007.68225
v 206.689789 179.564484 -994.661499
v 212.77597 140.93335 -981.956055
v 215.786835 96.0930252 -967.937378
v 204.662262 247.67038 -994.124023
v 213.72879 219.063049 -981.62561
v 219.710785 185.078308 -969.025146
v 223.458099 145.636932 -956.216675
v 225.082977 100.121437 -941.736572
v 211.908417 272.104309 -975.917725
v 220.901276 249.11261 -965.214966
v 226.833527 220.196747 -953.606323
v 230.302826 185.612183 -941.416504
v 232.232758 145.548615 -928.972412
v 232.90036 100.105217 -914.829346
v 219.078766 285.429779 -951.50415
v 228.295563 268.114105 -942.519775
v 234.290497 244.678101 -932.752319
v 237.7341 215.051208 -922.004639
v 239.547577 179.547363 -911.046387
v 240.544952 139.131104 -900.080566
v 240.860382 94.9764023 -887.594727
v 225.582794 289.247162 -921.847534
v 235.675507 276.148163 -912.450439
v 242.286591 257.512543 -903.742676
v 246.27182 232.735535 -895.077515
v 248.35202 201.649719 -886.464478
v 249.436493 165.509766 -878.236572
v 250.044891 125.919289 -869.941406
v 250.196503 85.2655029 -860.547729
v 172.76535 35.4015274 -1029.96106
v 190.380707 39.8362656 -1005.19653
v 171.071381 -3.70430756 -1016.31079
v 204.708099 45.6003914 -978.332397
v 189.385162 1.12157249 -988.161377
v 169.258759 -39.2491913 -996.938354
v 216.189362 51.291214 -950.789429
v 204.239044 7.09778214 -959.020386
v 188.502777 -33.3445854 -966.57312
v 168.802094 -71.0337296 -972.923584
v 225.714386 55.0629234 -923.144409
v 216.575714 12.5011501 -929.865234
v 204.511688 -27.1638832 -936.003174
v 189.18924 -64.2850418 -941.57959
v 170.644135 -99.0332718 -946.038086
v 234.340485 55.2680779 -895.011108
v 227.451508 15.7105618 -900.609619
v 218.483734 -22.3863068 -905.265991
v 206.722931 -58.3755722 -909.838989
v 192.124603 -92.0746536 -914.347656
v 174.737091 -122.912163 -918.11499
v 244.077118 51.0615005 -866.07959
v 238.041107 15.6799583 -870.096191
v 231.428802 -19.9126396 -873.255737
v 222.63858 -54.3084488 -876.448486
v 211.024811 -86.5430374 -880.56604
v 196.714874 -115.98568 -885.390137
v 180.10611 -141.538177 -890.397827
v 154.497223 46.011734 -1051.08606
v 151.932709 1.01346397 -1040.86255
v 134.236176 16.6466675 -1058.46155
v 149.138824 -38.6839447 -1023.88965
v 130.767303 -28.9009933 -1044.57056
v 113.007477 -9.63243484 -1059.00732
v 147.578156 -73.6205902 -1000.89941
v 128.163971 -67.837883 -1023.6145
v 109.475555 -54.0385437 -1040.93689
v 90.6072083 -31.3192062 -1052.25293
v 148.309784 -104.294014 -973.260498
v 127.407501 -101.673744 -996.640503
v 107.202789 -91.303215 -1015.79346
v 87.0277405 -73.5771561 -1030.02881
v 67.165741 -48.4947662 -1038.47693
v 151.819916 -130.778442 -942.923828
v 129.098969 -131.138733 -965.227783
v 106.624786 -123.588387 -984.697998
v 84.5566711 -108.792915 -1000.6626
v 63.1125793 -88.1769791 -1012.21851
v 43.3398743 -62.1885757 -1018.57349
v 157.782257 -152.117798 -911.735352
v 133.456085 -155.747681 -931.477173
v 108.172211 -151.4375 -949.331177
v 83.2304382 -139.42868 -965.106812
v 59.6905823 -121.232643 -978.343994
v 38.2736511 -98.9592361 -988.138916
v 20.2902527 -73.0349884 -993.952515
v 161.62674 100.936821 -1050.77661
v 140.710175 69.2721252 -1063.2019
v 149.897125 125.445778 -1059.89331
v 119.076263 40.9785614 -1068.34534
v 127.598602 93.9938278 -1070.36182
v 138.14328 150.14743 -1066.52356
v 96.4356384 16.8201866 -1065.76013
v 104.882477 66.9637146 -1072.30774
v 114.831268 119.09922 -1074.16418
v 125.954559 172.804138 -1071.099
v 72.4635925 -3.58240891 -1055.31628
v 80.9922791 43.6574593 -1065.85315
v 91.0270081 92.5715332 -1072.36499
v 101.725189 142.159698 -1075.22522
v 112.903839 190.702332 -1072.61279
v 47.1506653 -21.3160629 -1037.25342
v 55.1774597 22.7183762 -1051.02271
v 65.3824768 68.7308502 -1061.56287
v 76.3418274 115.075752 -1069.18372
v 87.3849182 159.907104 -1072.71252
v 98.4330139 201.189667 -1069.78015
v 21.0063171 -36.7775879 -1012.22803
v 26.8588562 3.62215614 -1027.57324
v 36.273468 46.4797134 -1041.11072
v 47.3929138 89.8230286 -1052.79907
v 58.9635925 131.60968 -1061.43701
v 70.4248352 169.971161 -1065.005
v 81.7695007 203.49469 -1061.5907
v 171.255707 152.361877 -1041.87012
v 159.973602 178.74881 -1050.68591
v 179.281036 199.469391 -1031.01172
v 148.203583 202.268463 -1057.63977
v 168.043304 224.11203 -1039.61682
v 186.617157 239.390167 -1018.78369
v 135.420074 220.644287 -1062.10779
v 155.804535 243.547546 -1045.58545
v 175.169403 259.728607 -1025.71631
v 193.865692 269.634155 -1002.98242
v 120.976837 231.719818 -1062.42578
v 141.8685 255.855988 -1047.87305
v 162.131256 273.372772 -1028.75964
v 182.059113 284.278137 -1006.43152
v 201.232697 288.583923 -980.87207
v 103.783966 233.462433 -1056.88049
v 124.977448 258.899048 -1044.43518
v 146.084564 278.223114 -1026.35706
v 167.534821 290.922394 -1004.2876
v 188.748749 296.920319 -978.998413
v 208.442413 296.404846 -951.155396
v 218.935516 293.042389 -908.960693
v 196.925018 298.14505 -941.475098
v 205.506195 292.164612 -898.050415
v 172.924713 296.022308 -971.362793
v 178.679535 293.867157 -933.480835
v 184.65036 287.962708 -890.751709
v 148.601837 287.032104 -997.506836
v 151.258698 288.046265 -964.389771
v 154.079254 285.818085 -927.857178
v 157.485565 280.870239 -887.223267
v 124.9133 270.982941 -1019.68286
v 124.458954 274.886688 -990.470093
v 124.105011 275.46817 -958.591187
v 124.337982 274.525452 -924.135742
v 125.657928 270.580048 -886.060791
v 101.603119 247.764709 -1037.13696
v 98.3473206 254.22467 -1011.79822
v 94.9374084 257.146576 -983.155884
v 92.115509 259.273438 -952.663818
v 90.4728699 260.236633 -920.026978
v 90.325592 257.846741 -884.3573
v 77.2372131 217.914215 -1047.09045
v 71.5022888 226.14624 -1026.44312
v 65.1950989 231.109344 -1001.01379
v 59.346283 235.627228 -972.903687
v 54.9981384 240.240936 -943.398804
v 52.8334656 243.4151 -912.513062
v 52.5715637 242.879425 -879.377686
v 55.209259 181.592285 -1051.34106
v 41.4151306 145.835846 -1049.60718
v 25.5006409 158.92337 -1033.9043
v 28.51651 107.213692 -1040.72156
v 11.4764404 121.912849 -1027.11853
v -4.77542114 136.799103 -1009.85693
v 16.5237122 66.3968506 -1027.67639
v -1.47012329 83.7310333 -1014.10376
v -18.3936157 99.5883408 -999.447876
v -33.4266968 115.980598 -981.68811
v 6.2442627 24.1906013 -1012.71484
v -12.0900574 43.2697144 -998.137817
v -28.8285522 60.7999077 -983.88269
v -44.0053101 77.9928741 -968.848633
v -57.9187927 96.3315964 -951.201904
v -0.654785156 -18.2722778 -996.689575
v -19.4608765 0.941562653 -980.833252
v -35.89505 19.8501797 -965.752441
v -50.4463196 38.6132965 -951.237183
v -63.8888855 57.6418953 -936.44519
v -76.4927063 77.6563721 -919.790771
v -1.94332886 -59.359024 -978.756348
v -21.3442383 -42.3533707 -962.18396
v -37.8928223 -23.3760986 -945.888428
v -52.0914307 -3.17865753 -930.733154
v -64.7909546 17.5440578 -916.591431
v -76.8085632 38.5388145 -902.877808
v -87.9405212 59.5369682 -888.521606
v 10.6159668 -97.6375198 -963.672607
v 32.7099915 -124.653694 -954.27063
v 7.1350708 -117.34597 -931.96582
v 57.6972961 -146.584351 -942.553101
v 33.1546326 -144.388092 -921.076782
v 9.44689941 -131.644989 -900.84436
v 85.0793152 -162.604919 -929.325684
v 61.5677185 -164.15155 -909.546143
v 38.9182434 -157.58252 -889.986328
v 16.4502563 -140.491394 -871.662109
v 113.973236 -171.121033 -914.383545
v 92.2308655 -176.424622 -896.900635
v 70.2668762 -174.082367 -878.961182
v 48.585968 -164.066681 -861.267944
v 26.4272766 -144.237152 -845.073242
v 142.989288 -170.980103 -896.962402
v 124.286835 -180.246033 -881.724121
v 103.562714 -181.767944 -865.84436
v 82.1041565 -176.794159 -849.714844
v 60.0540466 -164.127075 -834.373291
v 37.4806213 -143.241913 -820.871094
v 170.525299 -161.798615 -876.383789
v 156.291534 -174.414368 -862.350098
v 138.117523 -179.769928 -848.130859
v 117.319977 -178.986328 -833.863403
v 94.8023376 -171.729553 -820.25769
v 71.556366 -157.661133 -808.214478
v 47.9979553 -137.489288 -798.279419
v 195.544708 -139.941193 -859.563599
v 212.817657 -112.025414 -852.34436
v 208.244354 -133.381958 -828.650635
v 226.235443 -81.6681137 -847.155518
v 225.453033 -103.870811 -821.206421
v 217.598419 -122.599632 -798.562134
v 236.047089 -49.4330826 -844.188477
v 237.695953 -72.998558 -817.277954
v 234.243744 -92.353035 -792.492798
v 223.32254 -107.948631 -770.748657
v 243.374237 -15.7430801 -842.497559
v 246.692474 -41.0278931 -815.919189
v 245.915192 -61.3096237 -790.405518
v 239.26889 -77.2720261 -766.833008
v 224.698578 -88.8418655 -746.875977
v 250.012848 18.8123798 -840.706421
v 254.593231 -7.98573303 -815.337646
v 255.809723 -29.5925674 -790.219971
v 251.588043 -46.1095963 -766.206665
v 240.641632 -57.6772919 -744.734497
v 221.368134 -65.2205582 -727.714478
v 256.424103 54.4588127 -837.577148
v 261.869415 27.0168381 -814.156494
v 264.497833 4.40192413 -790.171143
v 262.14682 -12.9544525 -766.552002
v 253.143951 -25.1068687 -744.690308
v 236.687531 -32.7690887 -726.17749
v 213.095673 -38.107338 -712.837524
v 259.75827 97.4433517 -839.63916
v 259.580048 139.519592 -846.545898
v 267.936493 107.468178 -818.119263
v 258.783661 178.349426 -852.011841
v 267.597382 149.106171 -822.758667
v 273.087738 116.755272 -795.979248
v 257.233978 212.428833 -857.631348
v 266.202179 186.173706 -825.910889
v 272.259369 156.859192 -798.778931
v 273.518707 126.324211 -773.724609
v 254.158844 240.654449 -864.260376
v 263.318634 218.012665 -829.62207
v 269.541168 191.932678 -800.327759
v 271.72403 164.287598 -775.319458
v 267.825714 136.676971 -752.708618
v 248.057343 262.893005 -872.329102
v 257.442291 244.305573 -835.28186
v 263.651764 222.016846 -803.031982
v 266.319672 197.415649 -776.268555
v 263.811127 172.286102 -753.950317
v 254.596283 147.806946 -734.738281
v 237.567841 279.848083 -883.200806
v 246.519073 265.573334 -844.833252
v 252.316315 247.527985 -809.759888
v 254.867706 226.513824 -780.021118
v 253.295197 203.848999 -756.234009
v 246.194305 181.161102 -737.278687
v 233.380646 159.332092 -721.815552
v 229.116486 282.455536 -866.223633
v 212.587555 281.711914 -854.36792
v 234.874542 267.966187 -826.629395
v 188.503998 277.873108 -848.297974
v 214.975555 267.329712 -815.855713
v 236.97995 249.963928 -792.335205
v 157.869659 270.524811 -847.104126
v 187.303925 263.009918 -811.74585
v 213.129242 248.939056 -783.266113
v 235.323822 229.115112 -764.405884
v 121.065216 259.907898 -848.126831
v 151.619598 254.818573 -812.2229
v 180.404694 243.780579 -780.3396
v 206.307037 227.500061 -756.396484
v 228.589081 206.562256 -742.14624
v 78.4980774 246.062988 -847.421875
v 107.078644 242.745728 -813.359253
v 136.891266 234.077057 -780.38269
v 166.086334 220.837677 -752.919067
v 192.812836 203.5578 -734.060425
v 215.443756 182.766724 -724.065308
v 46.5386658 193.503265 -1033.99341
v 14.3006897 170.3797 -1013.73999
v 37.6112366 200.973267 -1011.1012
v -17.8537292 149.844849 -987.825439
v 3.45092773 179.332123 -989.078003
v 28.8876648 207.564758 -984.425903
v -47.5106201 130.659241 -958.177002
v -30.1368408 160.605438 -961.420044
v -6.6211853 188.071716 -961.052612
v 21.5156555 214.658081 -955.416748
v -72.4475708 111.541954 -925.988037
v -60.7635193 142.383057 -929.567017
v -41.2109985 170.662659 -931.132202
v -14.8276367 196.980896 -930.086426
v 16.6069031 221.631622 -924.418091
v -90.4558105 91.3017426 -892.065918
v -85.6503906 122.245216 -894.276245
v -72.1795654 151.88446 -895.567993
v -49.7014465 179.492432 -896.393188
v -19.8418884 204.565887 -895.466187
v 14.7787781 226.144012 -890.356079
v -12.3990784 -82.8719864 -945.748047
v -14.9681702 -99.4944687 -913.459595
v -30.8994141 -64.2669754 -928.089722
v -11.2469788 -110.024376 -882.813232
v -32.1523743 -78.0874863 -896.152954
v -46.0884705 -43.0876389 -911.503906
v -3.12918091 -115.972404 -854.372803
v -27.3755493 -85.8344345 -865.950439
v -46.3544922 -54.3848495 -879.873413
v -59.2123413 -20.1959648 -896.210205
v 7.32015991 -118.295708 -828.204346
v -19.0592957 -89.7732468 -837.470703
v -41.8148499 -59.9802399 -849.47876
v -59.8049011 -29.0574074 -864.230591
v -71.918457 3.70880508 -881.804077
v 18.5469666 -116.731087 -803.547607
v -9.39093018 -90.8566971 -810.451538
v -34.7163696 -62.2101059 -819.675415
v -56.8917236 -32.6353912 -832.462524
v -74.0887451 -2.46253204 -848.574585
v -84.9199829 28.4204063 -867.536377
v 185.2164 -158.118713 -843.257202
v 195.699799 -148.704773 -811.16272
v 169.76651 -167.874512 -828.425659
v 202.033112 -134.756409 -780.826538
v 177.852936 -155.774597 -796.476562
v 150.051239 -170.955902 -814.706787
v 204.249237 -115.907005 -753.743286
v 180.975616 -138.458801 -767.162354
v 155.392059 -156.007568 -784.064697
v 126.849762 -167.667664 -802.137573
v 201.405487 -91.4569626 -731.182861
v 179.24826 -115.038368 -741.559326
v 154.951508 -134.747925 -756.629639
v 128.861359 -149.3237 -773.73291
v 100.995392 -157.411865 -791.088013
v 192.482269 -61.2881699 -713.545776
v 170.850067 -84.7440567 -720.353516
v 147.731781 -106.263054 -732.67688
v 123.416168 -123.701439 -748.327026
v 98.3266296 -135.195923 -765.105103
v 72.9944763 -139.887421 -781.793335
v 266.313324 65.7903137 -815.05249
v 272.547821 76.6508789 -793.053467
v 270.131683 40.1738663 -791.034668
v 273.57901 88.2867889 -771.299072
v 272.45932 53.7990227 -769.277222
v 269.152374 20.7732315 -767.392334
v 268.267548 101.167427 -750.267944
v 267.5112 68.7967072 -748.39917
v 265.622772 37.9444389 -746.494019
v 261.184174 7.16083336 -744.819458
v 254.760956 115.720802 -730.809082
v 254.015167 85.7825165 -728.42749
v 252.57547 57.0822487 -726.529419
v 249.679962 28.3900986 -724.936646
v 244.496796 -1.28277588 -724.355957
v 232.264252 131.524261 -714.896851
v 230.090363 104.493431 -710.330078
v 227.852264 77.8924255 -707.543701
v 225.634308 50.9516945 -706.13916
v 222.724701 22.7789955 -706.148926
v 218.490265 -7.03701782 -708.069336
v -17.3508911 68.132782 -710.034058
v 7.1081543 93.0986557 -699.004761
v -31.2616577 100.254692 -721.141235
v 39.8193054 114.393257 -691.447876
v 0.305419922 126.222298 -711.679443
v -36.4655151 131.50177 -738.927612
v 79.535675 130.648193 -688.640747
v 40.4168396 146.383972 -706.170654
v 3.08151245 156.158264 -731.451904
v -31.801239 161.18045 -762.320435
v 122.993805 141.728973 -691.064087
v 86.1627502 160.721313 -704.935059
v 49.6524963 174.093536 -727.530151
v 14.4587708 183.236511 -756.477783
v -17.889679 188.123505 -790.165161
v 165.722626 148.89032 -697.948975
v 133.379791 170.300232 -707.866089
v 99.4827576 186.684326 -726.690918
v 65.2602844 198.900909 -753.283447
v 32.5645447 207.424774 -785.239014
v 3.23141479 210.911743 -820.886475
v 203.489288 154.087311 -708.364746
v 177.709076 177.005493 -714.249146
v 148.48172 195.873657 -728.768555
v 116.950836 210.718597 -751.904175
v 85.1138611 221.716858 -782.163086
v 55.0311584 228.388245 -816.369385
v 28.0085754 229.054199 -851.631958
v 14.3980408 52.178791 -698.128174
v 48.5608826 36.7407188 -691.991577
v 42.9338684 77.4135284 -687.217529
v 84.2918396 22.0669975 -689.587158
v 79.8889465 61.8991356 -682.514893
v 78.0982361 97.1242599 -681.458862
v 120.312653 7.69171715 -690.14209
v 117.334442 46.4656296 -682.707153
v 116.1763 80.0059357 -679.575806
v 118.070526 111.099037 -681.744873
v 155.010895 -7.22351456 -693.685791
v 154.178314 30.258255 -686.880981
v 153.818451 62.5847282 -683.346069
v 155.447418 91.9051819 -683.417603
v 159.686615 120.167778 -687.866333
v 186.61673 -22.8561287 -700.948975
v 188.666351 12.3307285 -695.046509
v 190.090729 43.764164 -692.053833
v 191.75235 72.2304382 -691.564575
v 194.690094 99.2446213 -693.754272
v 198.988983 126.144722 -699.09668
v -15.2805176 31.5917664 -715.195557
v -7.88873291 -4.43186569 -723.760132
v 19.7814026 12.2202606 -706.187378
v 2.20214844 -38.0378036 -734.6698
v 29.148407 -25.6272049 -716.698364
v 55.4391174 -4.60073853 -701.875977
v 14.1560059 -67.8606644 -747.788818
v 40.1406555 -59.9813461 -728.999512
v 65.3130188 -42.8875732 -713.27063
v 91.2371521 -19.5094795 -700.077148
v 26.5657043 -93.8899307 -762.915039
v 51.9831238 -90.166008 -743.749512
v 76.5247498 -77.3669968 -726.901001
v 101.04422 -57.7349625 -712.165405
v 126.657623 -33.5310822 -700.573364
v 38.1916199 -116.989113 -779.833252
v 63.2775574 -116.476601 -761.303345
v 87.9928894 -108.043831 -743.880615
v 112.319244 -92.3856277 -727.721802
v 136.539886 -71.4530334 -713.929565
v 161.01651 -47.44384 -704.484375
v -46.173645 62.8168755 -729.505005
v -69.9197388 59.9550972 -752.747559
v -42.6086426 24.6745834 -735.523315
v -87.6337585 59.7784767 -777.927246
v -64.3087463 22.3734741 -758.437012
v -33.733429 -9.90580368 -744.270386
v -98.0878296 60.7596397 -804.197266
v -79.7674561 23.5315514 -782.874878
v -53.2174377 -9.81399536 -766.789795
v -21.914978 -40.5093307 -755.6875
v -100.832794 61.4680977 -831.707031
v -87.9580383 25.8322144 -809.153931
v -66.2914429 -7.03731155 -791.159424
v -39.2861633 -38.2584457 -778.230957
v -8.43133545 -67.7532959 -769.485962
v -96.9358826 61.0302849 -860.025391
v -89.3345032 27.6797218 -837.395874
v -73.0585022 -4.14072418 -818.22583
v -50.7228394 -34.8162918 -803.192749
v -24.2671204 -64.8140793 -792.686646
v 5.49151611 -92.9117203 -785.370239
v -61.7106018 98.1077805 -746.214722
v -65.5851135 131.656281 -768.461914
v -83.742218 97.7177505 -773.679688
v -57.8541565 162.462341 -795.414185
v -83.6167603 131.965912 -798.974609
v -97.2901001 97.9440079 -801.820801
v -39.916687 188.948883 -826.202881
v -71.912262 161.763763 -828.219604
v -93.0259705 130.945984 -829.370605
v -102.805084 97.3145981 -830.478882
v -14.5594482 210.097473 -858.825073
v -49.9692078 186.018768 -860.834595
v -76.9070129 158.216553 -860.7229
v -93.8151245 127.610603 -860.481689
v -100.257233 95.1023483 -860.511597
g 
f 3 1 2
f 5 2 4
f 6 3 5
f 8 4 7
f 9 5 8
f 10 6 9
f 12 7 11
f 13 8 12
f 14 9 13
f 15 10 14
f 17 11 16
f 18 12 17
f 19 13 18
f 20 14 19
f 21 15 20
f 23 16 22
f 24 17 23
f 25 18 24
f 26 19 25
f 27 20 26
f 28 21 27
f 30 22 29
f 31 23 30
f 32 24 31
f 33 25 32
f 34 26 33
f 35 27 34
f 36 28 35
f 3 2 5
f 5 4 8
f 6 5 9
f 8 7 12
f 9 8 13
f 10 9 14
f 12 11 17
f 13 12 18
f 14 13 19
f 15 14 20
f 17 16 23
f 18 17 24
f 19 18 25
f 20 19 26
f 21 20 27
f 23 22 30
f 24 23 31
f 25 24 32
f 26 25 33
f 27 26 34
f 28 27 35
f 37 1 3
f 38 3 6
f 39 37 38
f 40 6 10
f 41 38 40
f 42 39 41
f 43 10 15
f 44 40 43
f 45 41 44
f 46 42 45
f 47 15 21
f 48 43 47
f 49 44 48
f 50 45 49
f 51 46 50
f 52 21 28
f 53 47 52
f 54 48 53
f 55 49 54
f 56 50 55
f 57 51 56
f 58 28 36
f 59 52 58
f 60 53 59
f 61 54 60
f 62 55 61
f 63 56 62
f 64 57 63
f 37 3 38
f 38 6 40
f 39 38 41
f 40 10 43
f 41 40 44
f 42 41 45
f 43 15 47
f 44 43 48
f 45 44 49
f 46 45 50
f 47 21 52
f 48 47 53
f 49 48 54
f 50 49 55
f 51 50 56
f 52 28 58
f 53 52 59
f 54 53 60
f 55 54 61
f 56 55 62
f 57 56 63
f 65 1 37
f 66 37 39
f 67 65 66
f 68 39 42
f 69 66 68
f 70 67 69
f 71 42 46
f 72 68 71
f 73 69 72
f 74 70 73
f 75 46 51
f 76 71 75
f 77 72 76
f 78 73 77
f 79 74 78
f 80 51 57
f 81 75 80
f 82 76 81
f 83 77 82
f 84 78 83
f 85 79 84
f 86 57 64
f 87 80 86
f 88 81 87
f 89 82 88
f 90 83 89
f 91 84 90
f 92 85 91
f 65 37 66
f 66 39 68
f 67 66 69
f 68 42 71
f 69 68 72
f 70 69 73
f 71 46 75
f 72 71 76
f 73 72 77
f 74 73 78
f 75 51 80
f 76 75 81
f 77 76 82
f 78 77 83
f 79 78 84
f 80 57 86
f 81 80 87
f 82 81 88
f 83 82 89
f 84 83 90
f 85 84 91
f 93 1 65
f 94 65 67
f 95 93 94
f 96 67 70
f 97 94 96
f 98 95 97
f 99 70 74
f 100 96 99
f 101 97 100
f 102 98 101
f 103 74 79
f 104 99 103
f 105 100 104
f 106 101 105
f 107 102 106
f 108 79 85
f 109 103 108
f 110 104 109
f 111 105 110
f 112 106 111
f 113 107 112
f 114 85 92
f 115 108 114
f 116 109 115
f 117 110 116
f 118 111 117
f 119 112 118
f 120 113 119
f 93 65 94
f 94 67 96
f 95 94 97
f 96 70 99
f 97 96 100
f 98 97 101
f 99 74 103
f 100 99 104
f 101 100 105
f 102 101 106
f 103 79 108
f 104 103 109
f 105 104 110
f 106 105 111
f 107 106 112
f 108 85 114
f 109 108 115
f 110 109 116
f 111 110 117
f 112 111 118
f 113 112 119
f 2 1 93
f 121 93 95
f 4 2 121
f 122 95 98
f 123 121 122
f 7 4 123
f 124 98 102
f 125 122 124
f 126 123 125
f 11 7 126
f 127 102 107
f 128 124 127
f 129 125 128
f 130 126 129
f 16 11 130
f 131 107 113
f 132 127 131
f 133 128 132
f 134 129 133
f 135 130 134
f 22 16 135
f 136 113 120
f 137 131 136
f 138 132 137
f 139 133 138
f 140 134 139
f 141 135 140
f 29 22 141
f 2 93 121
f 121 95 122
f 4 121 123
f 122 98 124
f 123 122 125
f 7 123 126
f 124 102 127
f 125 124 128
f 126 125 129
f 11 126 130
f 127 107 131
f 128 127 132
f 129 128 133
f 130 129 134
f 16 130 135
f 131 113 136
f 132 131 137
f 133 132 138
f 134 133 139
f 135 134 140
f 22 135 141
f 142 29 141
f 143 141 140
f 144 142 143
f 145 140 139
f 146 143 145
f 147 144 146
f 148 139 138
f 149 145 148
f 150 146 149
f 151 147 150
f 152 138 137
f 153 148 152
f 154 149 153
f 155 150 154
f 156 151 155
f 157 137 136
f 158 152 157
f 159 153 158
f 160 154 159
f 161 155 160
f 162 156 161
f 163 136 120
f 164 157 163
f 165 158 164
f 166 159 165
f 167 160 166
f 168 161 167
f 169 162 168
f 142 141 143
f 143 140 145
f 144 143 146
f 145 139 148
f 146 145 149
f 147 146 150
f 148 138 152
f 149 148 153
f 150 149 154
f 151 150 155
f 152 137 157
f 153 152 158
f 154 153 159
f 155 154 160
f 156 155 161
f 157 136 163
f 158 157 164
f 159 158 165
f 160 159 166
f 161 160 167
f 162 161 168
f 170 120 119
f 171 119 118
f 172 170 171
f 173 118 117
f 174 171 173
f 175 172 174
f 176 117 116
f 177 173 176
f 178 174 177
f 179 175 178
f 180 116 115
f 181 176 180
f 182 177 181
f 183 178 182
f 184 179 183
f 185 115 114
f 186 180 185
f 187 181 186
f 188 182 187
f 189 183 188
f 190 184 189
f 191 114 92
f 192 185 191
f 193 186 192
f 194 187 193
f 195 188 194
f 196 189 195
f 197 190 196
f 170 119 171
f 171 118 173
f 172 171 174
f 173 117 176
f 174 173 177
f 175 174 178
f 176 116 180
f 177 176 181
f 178 177 182
f 179 178 183
f 180 115 185
f 181 180 186
f 182 181 187
f 183 182 188
f 184 183 189
f 185 114 191
f 186 185 192
f 187 186 193
f 188 187 194
f 189 188 195
f 190 189 196
f 198 92 91
f 199 91 90
f 200 198 199
f 201 90 89
f 202 199 201
f 203 200 202
f 204 89 88
f 205 201 204
f 206 202 205
f 207 203 206
f 208 88 87
f 209 204 208
f 210 205 209
f 211 206 210
f 212 207 211
f 213 87 86
f 214 208 213
f 215 209 214
f 216 210 215
f 217 211 216
f 218 212 217
f 219 86 64
f 220 213 219
f 221 214 220
f 222 215 221
f 223 216 222
f 224 217 223
f 225 218 224
f 198 91 199
f 199 90 201
f 200 199 202
f 201 89 204
f 202 201 205
f 203 202 206
f 204 88 208
f 205 204 209
f 206 205 210
f 207 206 211
f 208 87 213
f 209 208 214
f 210 209 215
f 211 210 216
f 212 211 217
f 213 86 219
f 214 213 220
f 215 214 221
f 216 215 222
f 217 216 223
f 218 217 224
f 226 64 63
f 227 63 62
f 228 226 227
f 229 62 61
f 230 227 229
f 231 228 230
f 232 61 60
f 233 229 232
f 234 230 233
f 235 231 234
f 236 60 59
f 237 232 236
f 238 233 237
f 239 234 238
f 240 235 239
f 241 59 58
f 242 236 241
f 243 237 242
f 244 238 243
f 245 239 244
f 246 240 245
f 247 58 36
f 248 241 247
f 249 242 248
f 250 243 249
f 251 244 250
f 252 245 251
f 253 246 252
f 226 63 227
f 227 62 229
f 228 227 230
f 229 61 232
f 230 229 233
f 231 230 234
f 232 60 236
f 233 232 237
f 234 233 238
f 235 234 239
f 236 59 241
f 237 236 242
f 238 237 243
f 239 238 244
f 240 239 245
f 241 58 247
f 242 241 248
f 243 242 249
f 244 243 250
f 245 244 251
f 246 245 252
f 254 36 35
f 255 35 34
f 256 254 255
f 257 34 33
f 258 255 257
f 259 256 258
f 260 33 32
f 261 257 260
f 262 258 261
f 263 259 262
f 264 32 31
f 265 260 264
f 266 261 265
f 267 262 266
f 268 263 267
f 269 31 30
f 270 264 269
f 271 265 270
f 272 266 271
f 273 267 272
f 274 268 273
f 275 30 29
f 276 269 275
f 277 270 276
f 278 271 277
f 279 272 278
f 280 273 279
f 281 274 280
f 254 35 255
f 255 34 257
f 256 255 258
f 257 33 260
f 258 257 261
f 259 258 262
f 260 32 264
f 261 260 265
f 262 261 266
f 263 262 267
f 264 31 269
f 265 264 270
f 266 265 271
f 267 266 272
f 268 267 273
f 269 30 275
f 270 269 276
f 271 270 277
f 272 271 278
f 273 272 279
f 274 273 280
f 275 29 142
f 282 142 144
f 276 275 282
f 283 144 147
f 284 282 283
f 277 276 284
f 285 147 151
f 286 283 285
f 287 284 286
f 278 277 287
f 288 151 156
f 289 285 288
f 290 286 289
f 291 287 290
f 279 278 291
f 292 156 162
f 293 288 292
f 294 289 293
f 295 290 294
f 296 291 295
f 280 279 296
f 297 162 169
f 298 292 297
f 299 293 298
f 300 294 299
f 301 295 300
f 302 296 301
f 281 280 302
f 275 142 282
f 282 144 283
f 276 282 284
f 283 147 285
f 284 283 286
f 277 284 287
f 285 151 288
f 286 285 289
f 287 286 290
f 278 287 291
f 288 156 292
f 289 288 293
f 290 289 294
f 291 290 295
f 279 291 296
f 292 162 297
f 293 292 298
f 294 293 299
f 295 294 300
f 296 295 301
f 280 296 302
f 163 120 170
f 303 170 172
f 164 163 303
f 304 172 175
f 305 303 304
f 165 164 305
f 306 175 179
f 307 304 306
f 308 305 307
f 166 165 308
f 309 179 184
f 310 306 309
f 311 307 310
f 312 308 311
f 167 166 312
f 313 184 190
f 314 309 313
f 315 310 314
f 316 311 315
f 317 312 316
f 168 167 317
f 318 190 197
f 319 313 318
f 320 314 319
f 321 315 320
f 322 316 321
f 323 317 322
f 169 168 323
f 163 170 303
f 303 172 304
f 164 303 305
f 304 175 306
f 305 304 307
f 165 305 308
f 306 179 309
f 307 306 310
f 308 307 311
f 166 308 312
f 309 184 313
f 310 309 314
f 311 310 315
f 312 311 316
f 167 312 317
f 313 190 318
f 314 313 319
f 315 314 320
f 316 315 321
f 317 316 322
f 168 317 323
f 191 92 198
f 324 198 200
f 192 191 324
f 325 200 203
f 326 324 325
f 193 192 326
f 327 203 207
f 328 325 327
f 329 326 328
f 194 193 329
f 330 207 212
f 331 327 330
f 332 328 331
f 333 329 332
f 195 194 333
f 334 212 218
f 335 330 334
f 336 331 335
f 337 332 336
f 338 333 337
f 196 195 338
f 339 218 225
f 340 334 339
f 341 335 340
f 342 336 341
f 343 337 342
f 344 338 343
f 197 196 344
f 191 198 324
f 324 200 325
f 192 324 326
f 325 203 327
f 326 325 328
f 193 326 329
f 327 207 330
f 328 327 331
f 329 328 332
f 194 329 333
f 330 212 334
f 331 330 335
f 332 331 336
f 333 332 337
f 195 333 338
f 334 218 339
f 335 334 340
f 336 335 341
f 337 336 342
f 338 337 343
f 196 338 344
f 219 64 226
f 345 226 228
f 220 219 345
f 346 228 231
f 347 345 346
f 221 220 347
f 348 231 235
f 349 346 348
f 350 347 349
f 222 221 350
f 351 235 240
f 352 348 351
f 353 349 352
f 354 350 353
f 223 222 354
f 355 240 246
f 356 351 355
f 357 352 356
f 358 353 357
f 359 354 358
f 224 223 359
f 360 246 253
f 361 355 360
f 362 356 361
f 363 357 362
f 364 358 363
f 365 359 364
f 225 224 365
f 219 226 345
f 345 228 346
f 220 345 347
f 346 231 348
f 347 346 349
f 221 347 350
f 348 235 351
f 349 348 352
f 350 349 353
f 222 350 354
f 351 240 355
f 352 351 356
f 353 352 357
f 354 353 358
f 223 354 359
f 355 246 360
f 356 355 361
f 357 356 362
f 358 357 363
f 359 358 364
f 224 359 365
f 247 36 254
f 366 254 256
f 248 247 366
f 367 256 259
f 368 366 367
f 249 248 368
f 369 259 263
f 370 367 369
f 371 368 370
f 250 249 371
f 372 263 268
f 373 369 372
f 374 370 373
f 375 371 374
f 251 250 375
f 376 268 274
f 377 372 376
f 378 373 377
f 379 374 378
f 380 375 379
f 252 251 380
f 381 274 281
f 382 376 381
f 383 377 382
f 384 378 383
f 385 379 384
f 386 380 385
f 253 252 386
f 247 254 366
f 366 256 367
f 248 366 368
f 367 259 369
f 368 367 370
f 249 368 371
f 369 263 372
f 370 369 373
f 371 370 374
f 250 371 375
f 372 268 376
f 373 372 377
f 374 373 378
f 375 374 379
f 251 375 380
f 376 274 381
f 377 376 382
f 378 377 383
f 379 378 384
f 380 379 385
f 252 380 386
f 389 387 388
f 391 388 390
f 392 389 391
f 394 390 393
f 395 391 394
f 396 392 395
f 398 393 397
f 399 394 398
f 400 395 399
f 401 396 400
f 403 397 402
f 404 398 403
f 405 399 404
f 406 400 405
f 407 401 406
f 409 402 408
f 410 403 409
f 411 404 410
f 412 405 411
f 413 406 412
f 414 407 413
f 302 408 281
f 301 409 302
f 300 410 301
f 299 411 300
f 298 412 299
f 297 413 298
f 169 414 297
f 389 388 391
f 391 390 394
f 392 391 395
f 394 393 398
f 395 394 399
f 396 395 400
f 398 397 403
f 399 398 404
f 400 399 405
f 401 400 406
f 403 402 409
f 404 403 410
f 405 404 411
f 406 405 412
f 407 406 413
f 409 408 302
f 410 409 301
f 411 410 300
f 412 411 299
f 413 412 298
f 414 413 297
f 388 387 415
f 417 415 416
f 390 388 417
f 419 416 418
f 420 417 419
f 393 390 420
f 422 418 421
f 423 419 422
f 424 420 423
f 397 393 424
f 426 421 425
f 427 422 426
f 428 423 427
f 429 424 428
f 402 397 429
f 431 425 430
f 432 426 431
f 433 427 432
f 434 428 433
f 435 429 434
f 408 402 435
f 386 430 253
f 385 431 386
f 384 432 385
f 383 433 384
f 382 434 383
f 381 435 382
f 281 408 381
f 388 415 417
f 417 416 419
f 390 417 420
f 419 418 422
f 420 419 423
f 393 420 424
f 422 421 426
f 423 422 427
f 424 423 428
f 397 424 429
f 426 425 431
f 427 426 432
f 428 427 433
f 429 428 434
f 402 429 435
f 431 430 386
f 432 431 385
f 433 432 384
f 434 433 383
f 435 434 382
f 408 435 381
f 415 387 436
f 438 436 437
f 416 415 438
f 440 437 439
f 441 438 440
f 418 416 441
f 443 439 442
f 444 440 443
f 445 441 444
f 421 418 445
f 447 442 446
f 448 443 447
f 449 444 448
f 450 445 449
f 425 421 450
f 452 446 451
f 453 447 452
f 454 448 453
f 455 449 454
f 456 450 455
f 430 425 456
f 365 451 225
f 364 452 365
f 363 453 364
f 362 454 363
f 361 455 362
f 360 456 361
f 253 430 360
f 415 436 438
f 438 437 440
f 416 438 441
f 440 439 443
f 441 440 444
f 418 441 445
f 443 442 447
f 444 443 448
f 445 444 449
f 421 445 450
f 447 446 452
f 448 447 453
f 449 448 454
f 450 449 455
f 425 450 456
f 452 451 365
f 453 452 364
f 454 453 363
f 455 454 362
f 456 455 361
f 430 456 360
f 436 387 457
f 459 457 458
f 437 436 459
f 461 458 460
f 462 459 461
f 439 437 462
f 464 460 463
f 465 461 464
f 466 462 465
f 442 439 466
f 468 463 467
f 469 464 468
f 470 465 469
f 471 466 470
f 446 442 471
f 473 467 472
f 474 468 473
f 475 469 474
f 476 470 475
f 477 471 476
f 451 446 477
f 344 472 197
f 343 473 344
f 342 474 343
f 341 475 342
f 340 476 341
f 339 477 340
f 225 451 339
f 436 457 459
f 459 458 461
f 437 459 462
f 461 460 464
f 462 461 465
f 439 462 466
f 464 463 468
f 465 464 469
f 466 465 470
f 442 466 471
f 468 467 473
f 469 468 474
f 470 469 475
f 471 470 476
f 446 471 477
f 473 472 344
f 474 473 343
f 475 474 342
f 476 475 341
f 477 476 340
f 451 477 339
f 457 387 389
f 478 389 392
f 458 457 478
f 479 392 396
f 480 478 479
f 460 458 480
f 481 396 401
f 482 479 481
f 483 480 482
f 463 460 483
f 484 401 407
f 485 481 484
f 486 482 485
f 487 483 486
f 467 463 487
f 488 407 414
f 489 484 488
f 490 485 489
f 491 486 490
f 492 487 491
f 472 467 492
f 323 414 169
f 322 488 323
f 321 489 322
f 320 490 321
f 319 491 320
f 318 492 319
f 197 472 318
f 457 389 478
f 478 392 479
f 458 478 480
f 479 396 481
f 480 479 482
f 460 480 483
f 481 401 484
f 482 481 485
f 483 482 486
f 463 483 487
f 484 407 488
f 485 484 489
f 486 485 490
f 487 486 491
f 467 487 492
f 488 414 323
f 489 488 322
f 490 489 321
f 491 490 320
f 492 491 319
f 472 492 318
