# File exported by Houdini 20.5.445 (www.sidefx.com)
# 492 points
# 2940 vertices
# 980 primitives
# Bounds: [-130.914444, -101.459015, -1189.85986] to [301.688354, 217.836121, -564.941162]
g 
v 133.373352 125.915428 -1184.54468
v 127.638245 149.469803 -1182.68994
v 166.975281 134.84964 -1189.85986
v 117.699097 171.615875 -1176.12939
v 159.898682 159.060013 -1186.98975
v 196.234314 138.304199 -1186.81714
v 105.955139 191.535706 -1163.8042
v 148.226562 179.94545 -1178.51855
v 186.394226 161.369904 -1181.64722
v 219.971924 134.928986 -1174.50415
v 95.1353302 207.277405 -1144.39136
v 135.27771 196.64888 -1163.43115
v 172.790222 179.442505 -1170.02588
v 207.062866 155.43924 -1166.25024
v 237.612793 124.413994 -1152.70947
v 87.201828 215.906448 -1116.66284
v 124.028076 207.288147 -1139.97363
v 159.193909 191.776505 -1150.82422
v 191.964233 169.588974 -1150.60669
v 222.124023 141.339737 -1140.79248
v 249.332214 107.757164 -1122.12305
v 83.7833405 215.928574 -1081.25
v 116.373474 209.660461 -1106.6604
v 148.198181 196.606247 -1121.70044
v 178.231018 176.66954 -1125.90454
v 206.158936 150.741135 -1120.00098
v 232.13385 120.376526 -1105.64062
v 255.980164 87.3416519 -1083.99976
v 84.0362091 207.981949 -1039.61401
v 112.501892 203.068024 -1063.22192
v 140.509155 192.253403 -1080.10767
v 167.190796 174.997864 -1088.46997
v 192.146545 151.822189 -1087.36353
v 215.63269 124.477776 -1077.56567
v 237.893127 95.1850052 -1061.29834
v 258.750183 66.3510284 -1039.58105
v 156.854919 108.035507 -1186.88647
v 193.589905 113.69117 -1187.19067
v 177.168091 89.0888443 -1183.05664
v 223.405701 112.551384 -1177.50366
v 214.880859 91.5279312 -1177.21558
v 194.951538 69.708519 -1172.89526
v 246.21228 104.543671 -1158.11328
v 244.187927 86.4809418 -1160.66455
v 232.375244 69.1198578 -1160.60938
v 210.544495 50.5488815 -1156.21704
v 262.251282 90.3474197 -1129.3855
v 266.003601 74.7624817 -1134.22021
v 260.773254 60.5936012 -1137.14136
v 246.665161 46.8549576 -1137.43896
v 223.161072 31.8469524 -1132.89502
v 272.121582 71.9358444 -1091.41309
v 281.040833 58.2666779 -1097.45776
v 281.638184 46.2300377 -1102.61719
v 273.540222 35.2927628 -1106.3335
v 256.687988 24.6635513 -1107.14282
v 230.962463 13.278327 -1102.80835
v 276.570251 51.6706123 -1044.15112
v 289.572449 38.6884308 -1049.04199
v 295.34906 27.6994381 -1054.94214
v 292.387451 18.4377689 -1061.22485
v 280.354736 10.3113251 -1066.41089
v 259.862061 2.64867783 -1068.55054
v 231.940369 -5.29682159 -1066.17358
v 111.463684 103.086296 -1176.30029
v 132.958252 83.3795013 -1178.16455
v 86.1236115 79.3564682 -1163.35547
v 151.701294 64.3640137 -1173.49561
v 107.16626 58.5614014 -1164.46118
v 59.9534454 55.2577744 -1146.72437
v 168.729248 46.3040276 -1162.25415
v 125.785767 39.8375893 -1158.35767
v 81.6637115 33.8852348 -1146.6272
v 34.7256622 31.6607075 -1127.0979
v 183.733948 29.2629871 -1143.92749
v 142.431335 22.9701347 -1144.9624
v 100.352859 15.4009018 -1138.24292
v 56.9194489 9.82476616 -1124.81201
v 11.3061676 8.45506668 -1104.48462
v 194.867554 13.0862446 -1117.64941
v 156.050293 7.38244629 -1123.29492
v 115.788696 -1.05088806 -1121.1626
v 74.7109833 -9.00782013 -1112.63892
v 32.7734528 -13.8949585 -1098.33105
v -10.1102753 -14.460907 -1078.49097
v 200.095642 -4.32688904 -1082.40234
v 164.40741 -8.41729355 -1091.48438
v 126.283142 -16.7266922 -1093.47095
v 87.1884613 -26.3229256 -1089.38354
v 47.8154449 -33.8885269 -1080.05762
v 8.66676331 -37.4817734 -1066.34546
v -29.442276 -36.471611 -1049.13208
v 95.3973541 128.426193 -1171.63916
v 68.9498444 103.755615 -1158.43774
v 57.090683 130.575562 -1151.71802
v 40.9452667 79.3707886 -1141.45654
v 28.6679535 104.896339 -1134.94971
v 21.0952911 133.087494 -1126.71069
v 13.5929718 55.6838875 -1122.03784
v -0.2759552 80.6694946 -1115.37109
v -7.80900574 107.145203 -1108.0918
v -10.8125763 135.895569 -1098.39136
v -11.6460114 31.9841824 -1100.60303
v -27.7882233 56.8302994 -1094.12573
v -36.7186432 82.6183853 -1087.10376
v -39.4378204 109.51339 -1079.39844
v -38.1435089 137.486023 -1068.65894
v -34.3614044 7.4011879 -1076.25977
v -52.8427582 31.5902042 -1070.81616
v -64.1051788 57.2122574 -1064.26587
v -67.981369 83.6601486 -1057.67725
v -66.1075439 110.349571 -1049.94458
v -61.0281677 136.374146 -1038.60352
v -54.1818848 -17.9935074 -1047.84888
v -74.8769531 4.27757645 -1043.61206
v -88.9103699 29.2561169 -1038.08521
v -94.9678192 55.8668938 -1032.63208
v -93.6702881 82.8825455 -1026.90332
v -87.4983521 108.799225 -1019.21454
v -78.9867401 132.162415 -1008.0036
v 86.7075043 154.057861 -1166.11914
v 48.8561859 157.496063 -1142.50757
v 76.1268158 177.284058 -1155.16284
v 15.5511017 160.74881 -1113.92407
v 40.5552216 181.276672 -1127.36816
v 66.1472931 197.53389 -1138.0293
v -13.1499786 162.805939 -1082.30151
v 10.4798126 183.732147 -1094.76733
v 33.4146576 200.461777 -1105.13208
v 58.1210785 211.955627 -1113.02539
v -38.0844574 161.73494 -1049.09448
v -15.7835846 183.030487 -1058.72559
v 5.75590515 199.996902 -1067.05151
v 28.3114471 211.990616 -1074.14868
v 54.0040131 217.836121 -1079.62573
v -59.3647308 156.052032 -1014.35321
v -39.2149506 177.135544 -1019.76288
v -18.8087616 194.273773 -1024.43726
v 2.96980286 206.590912 -1029.07812
v 27.4706879 213.334457 -1034.03369
v 54.968277 213.893631 -1038.3374
v 67.5871429 200.537094 -994.447571
v 35.9869843 205.145706 -990.936462
v 51.4112091 190.121902 -947.865845
v 7.23872375 203.241608 -986.860779
v 19.2351227 193.188751 -945.559326
v 36.5792999 177.759232 -902.004395
v -17.6710663 195.40567 -984.126526
v -8.97691345 189.833893 -944.150757
v 5.48466492 179.08963 -903.230347
v 23.2943268 163.451996 -859.443848
v -39.2586517 182.065277 -982.722595
v -32.9849701 180.570267 -944.514526
v -21.1800995 173.882843 -905.591919
v -5.6710968 162.556061 -865.242798
v 11.7460175 146.7285 -822.453003
v -59.2055206 163.452393 -981.691589
v -54.032196 165.422379 -946.284302
v -44.1261139 162.43988 -909.378662
v -30.4337616 154.855133 -871.501831
v -14.6209869 143.106354 -832.470703
v 2.09831238 127.550362 -792.106812
v -79.456543 140.356796 -979.504333
v -74.681488 144.682114 -947.979004
v -65.5647125 144.760574 -913.890015
v -52.8675842 140.555954 -878.334839
v -37.9030914 132.409637 -841.940552
v -22.0747528 120.799942 -805.080566
v -6.18589783 106.85141 -768.090576
v -97.8203125 112.937706 -985.312439
v -108.672165 85.7514648 -995.707214
v -111.882416 93.2625122 -963.306946
v -115.059418 56.7206459 -1001.94122
v -122.712326 63.2185326 -973.281433
v -120.498764 73.5742188 -941.095215
v -114.416779 27.8133144 -1006.39203
v -127.086777 32.1902008 -978.221375
v -129.535873 42.3188171 -950.169922
v -123.754288 54.8068352 -917.147705
v -105.028015 0.526741028 -1010.69806
v -123.210495 2.39987564 -980.933167
v -130.914444 10.9569988 -953.136902
v -129.913834 24.2963638 -924.209473
v -122.443848 38.0695457 -889.930786
v -86.931015 -24.2062378 -1014.96588
v -110.150177 -24.7357788 -983.367615
v -123.453842 -18.4813919 -953.29657
v -127.840347 -5.73466492 -924.236206
v -125.136078 9.94928741 -893.602661
v -117.767044 23.962635 -858.506714
v -61.5836945 -45.281456 -1017.66241
v -87.9883728 -48.563591 -985.249084
v -106.543488 -44.6795044 -952.731628
v -116.632675 -33.5654945 -920.782959
v -119.288254 -17.5001297 -889.508057
v -116.738113 -1.07821655 -857.371948
v -110.684097 12.0197563 -823.43396
v -24.4119415 -57.1655579 -1027.30298
v 15.6260529 -56.8351135 -1042.05029
v -19.3869171 -72.7294998 -1001.39948
v 55.1906586 -50.9246674 -1052.49756
v 21.1551361 -70.7912521 -1014.15851
v -14.6995087 -83.1299744 -972.352356
v 94.2267303 -41.328331 -1058.05005
v 60.4378204 -63.3756409 -1021.75446
v 25.3625336 -80.4092178 -983.306091
v -10.1385345 -88.9780197 -941.15564
v 132.863037 -31.2191925 -1058.05762
v 99.0908661 -53.3045273 -1023.7514
v 64.0734406 -72.396553 -988.093079
v 28.7972565 -85.8922348 -950.175903
v -5.2872467 -90.8074875 -908.884644
v 170.83606 -23.9358025 -1051.57349
v 137.755676 -43.9121017 -1019.26776
v 102.569946 -62.7836914 -985.753357
v 66.8359528 -78.4849625 -950.951233
v 32.2305756 -88.6133804 -914.355103
v 0.585647583 -90.9308319 -875.460693
v 207.247925 -21.6879196 -1037.33789
v 176.673279 -38.6835327 -1006.64178
v 142.153442 -55.7500839 -974.624451
v 105.921143 -71.5034561 -941.80957
v 70.3430023 -83.9705276 -908.531494
v 37.6259003 -91.0963745 -874.883179
v 9.5304718 -91.4936905 -840.923218
v 245.13623 -18.5810394 -1026.00244
v 273.994324 -12.4825745 -1022.16937
v 252.341553 -32.5202026 -979.490417
v 292.834473 -6.44142151 -1014.90057
v 280.373474 -27.1663246 -970.456116
v 254.692749 -46.9495087 -928.056641
v 301.439087 0.754835129 -1006.60577
v 296.669128 -21.2579308 -960.03656
v 281.003052 -40.9935226 -915.562134
v 253.604919 -60.2713089 -873.98999
v 299.894104 10.1611919 -999.431091
v 301.688354 -13.1036682 -950.750305
v 294.299194 -33.2197952 -903.867554
v 277.610046 -51.9425812 -860.045166
v 250.264221 -69.7919846 -820.436401
v 289.019897 22.5700226 -994.863831
v 295.76123 -1.41861725 -944.570068
v 295.480164 -21.8045464 -895.140747
v 287.639404 -40.2137146 -848.608765
v 271.243286 -57.2442017 -806.612549
v 245.261169 -72.9814377 -770.574951
v 270.66925 38.3774185 -993.028381
v 279.68689 14.6940479 -942.673462
v 284.630188 -5.2946167 -891.138916
v 284.460205 -23.0823479 -841.456299
v 277.471436 -39.4660339 -796.283081
v 262.277649 -54.7314301 -757.599854
v 238.698547 -68.7742157 -726.604736
v 246.386292 63.7783432 -1006.35846
v 223.949951 93.0666046 -1026.48218
v 232.630188 62.9431419 -970.690735
v 201.928162 121.134605 -1039.56641
v 209.768066 91.1740341 -988.528381
v 218.378235 64.0912704 -931.877686
v 179.864868 146.359985 -1044.66577
v 188.249146 117.078102 -997.627991
v 195.208008 90.093956 -946.794434
v 204.715149 66.6243057 -889.718384
v 156.496704 167.234879 -1040.79565
v 166.673523 139.915863 -997.489563
v 173.422913 113.630974 -951.028259
v 180.641663 89.9976959 -900.915405
v 191.74939 69.8042908 -845.047607
v 130.648499 182.722824 -1028.5083
v 143.054688 158.726334 -988.78656
v 150.780151 134.24057 -945.540527
v 157.377014 111.139244 -899.762085
v 166.111267 90.4321976 -851.435547
v 178.431763 72.5706787 -799.185669
v 101.720642 192.372879 -1008.54254
v 115.515991 172.4841 -971.976379
v 124.93988 150.837051 -931.1698
v 132.212646 129.26001 -887.963257
v 140.104248 108.743538 -844.032593
v 150.55957 90.083313 -799.667358
v 163.755127 73.2315063 -754.261597
v 84.4962311 182.889679 -956.843445
v 68.139267 171.730392 -905.6073
v 96.9216461 163.016953 -915.692383
v 52.9123993 159.056183 -857.05542
v 80.0935822 152.199585 -861.817871
v 105.990967 142.591736 -872.443604
v 38.8524017 144.060593 -813.449951
v 64.6118011 139.192688 -812.133911
v 89.4759979 132.040237 -817.578979
v 114.307983 122.111649 -828.652832
v 26.3011627 125.892174 -776.531616
v 50.5526581 122.638542 -768.169189
v 74.9027557 117.731827 -767.336182
v 99.5452118 110.781479 -773.475586
v 124.721375 101.628578 -784.931152
v 15.1625824 104.572868 -746.731689
v 37.8045807 101.581673 -730.993042
v 61.8606415 97.9905853 -722.468628
v 87.0654144 93.5286331 -721.974121
v 112.91687 88.1075821 -728.448486
v 138.748962 81.5015106 -739.863525
v -95.33078 120.572098 -953.305237
v -105.675339 100.902443 -928.927002
v -86.6282501 123.634132 -920.102905
v -111.043762 81.3113403 -904.709473
v -93.7272797 103.107048 -894.029663
v -73.8206329 122.218315 -885.583862
v -112.191238 62.4255219 -878.509888
v -96.7616272 82.9084015 -867.64978
v -78.1345062 100.537071 -858.270264
v -58.3412476 116.747711 -849.739746
v -109.870056 45.0135651 -848.153809
v -96.4135284 63.3967285 -838.046021
v -79.3951416 79.5041428 -828.626343
v -60.5042725 93.8602448 -820.305176
v -41.4735565 107.568817 -812.077515
v -104.541885 29.2334995 -812.184082
v -93.0270538 44.8002396 -802.035522
v -77.7015228 58.819912 -792.864258
v -60.1782227 71.4826508 -784.880981
v -41.8226471 83.2250061 -778.13208
v -23.8791046 94.9688339 -771.86853
v -56.8800659 -65.2700195 -990.91095
v -51.4655762 -77.5983887 -961.250793
v -81.6499634 -64.8270798 -954.773987
v -45.5860596 -84.0336227 -929.666382
v -74.3245087 -72.429718 -922.274048
v -97.9399414 -55.8395233 -919.107422
v -39.0392914 -86.0747528 -896.897217
v -66.4044189 -74.934845 -888.288086
v -88.6459503 -59.2464294 -883.762207
v -106.260193 -40.3179245 -883.545044
v -31.3482513 -85.5068893 -863.254639
v -57.5918732 -74.5038681 -852.899536
v -78.9204254 -59.3910141 -846.171753
v -95.655777 -41.5994568 -843.832886
v -108.237793 -22.1850777 -847.5
v -20.6099701 -85.0767059 -828.039673
v -46.2255402 -73.8193893 -815.410645
v -67.4313202 -58.922905 -805.427734
v -84.2223969 -41.8504639 -800.053345
v -96.7916718 -23.9380608 -800.973022
v -105.608627 -5.947155 -809.660278
v 216.175049 -35.9768066 -992.149597
v 219.608154 -50.7919006 -942.720093
v 182.059082 -52.7882767 -958.734436
v 219.670044 -65.4363403 -889.970581
v 183.075012 -67.3801346 -908.035156
v 145.060425 -68.3279343 -925.62085
v 218.030701 -77.8884506 -835.515991
v 182.200012 -81.1566467 -854.849243
v 144.928101 -81.5355148 -874.553345
v 107.465454 -81.7317734 -892.724365
v 215.446106 -85.1961288 -781.511719
v 180.836853 -91.6031952 -799.815186
v 144.00177 -93.2446594 -820.776367
v 107.048828 -92.2804642 -841.350586
v 71.3492279 -91.2330627 -859.660034
v 211.830261 -84.5799866 -730.333374
v 179.082886 -95.1809845 -743.899292
v 143.160583 -100.069946 -763.776001
v 106.440491 -100.212814 -785.878296
v 71.1123505 -97.7968445 -807.148315
v 38.5463715 -94.5895767 -825.572266
v 257.002563 36.7196655 -952.772644
v 242.486206 38.7818947 -912.925903
v 265.09967 15.8645 -897.578125
v 228.801086 43.2958107 -871.934082
v 251.022034 20.9155121 -855.37085
v 270.4104 -1.57164574 -843.368286
v 216.084045 48.9369087 -828.324707
v 238.0401 27.9256687 -812.876831
v 256.872925 5.55356407 -799.592163
v 270.889893 -17.6233749 -792.381226
v 202.848328 54.2985382 -782.311523
v 224.79834 35.0294418 -767.380493
v 243.136719 13.6070023 -754.974243
v 256.652466 -9.82011032 -746.833862
v 263.533569 -33.5279121 -746.518555
v 187.255066 57.2810936 -735.289673
v 208.893311 39.819828 -718.559937
v 226.769714 19.7459908 -706.005249
v 239.507019 -2.97647476 -698.815674
v 246.057129 -27.0390549 -698.635376
v 245.577209 -49.9304962 -707.544189
v 35.4038239 -33.2605171 -577.848999
v 64.8649445 -23.9966431 -566.68811
v 25.2513275 -13.44981 -583.102417
v 94.5940704 -9.69485092 -568.331055
v 54.4281769 -2.24410629 -578.657715
v 17.4409943 6.37571716 -600.902344
v 121.575989 8.26072693 -583.870483
v 81.9640045 12.8066826 -587.640503
v 45.5315704 18.3972931 -602.568176
v 11.5468597 25.5042515 -628.349854
v 142.522766 27.639679 -612.558838
v 105.223389 30.3742695 -609.521118
v 70.2644806 33.4454803 -617.023926
v 37.7038422 38.0109634 -634.329102
v 7.07118225 44.1491203 -661.670776
v 155.582336 45.8674126 -652.366821
v 122.124146 48.7338333 -643.145081
v 89.6927948 50.8675957 -643.088013
v 58.9671783 53.8548584 -651.901367
v 30.154892 58.1455383 -669.893799
v 2.98939514 63.6348839 -697.105591
v 161.743591 61.1657753 -700.66626
v 132.560059 66.1902924 -686.951904
v 103.293213 69.6416931 -679.867188
v 74.8565826 72.8381653 -680.322327
v 47.8295441 76.3648834 -689.323364
v 22.5067596 80.4359512 -706.913452
v -1.41645813 84.7882538 -732.513916
v 66.2341156 -47.0172653 -574.299255
v 99.1805878 -57.2096634 -580.951416
v 101.2052 -34.0373383 -564.941162
v 131.88739 -63.8285446 -596.905823
v 136.791138 -39.9853745 -575.637329
v 133.379517 -15.8460579 -571.812927
v 162.761963 -67.9165878 -620.884644
v 169.700073 -43.5026245 -596.888916
v 168.508301 -18.8863602 -588.742249
v 159.634949 4.89498901 -594.172302
v 190.704102 -70.2190323 -651.490723
v 198.687866 -46.0489502 -627.026428
v 198.86322 -20.9922028 -616.551758
v 191.717102 3.07223892 -618.036194
v 177.287964 25.3683472 -630.191284
v 215.901672 -70.7224197 -686.967773
v 223.616089 -48.3391724 -664.390991
v 224.322998 -23.5939293 -653.66449
v 217.973267 0.799236298 -653.128052
v 204.972473 23.2441521 -661.594482
v 185.82666 43.2101479 -677.856689
v 25.9819183 -48.2759323 -596.034058
v 18.7314911 -60.8777771 -626.292847
v 58.0830841 -64.488739 -600.458862
v 12.9673615 -71.0200882 -665.339966
v 51.2731476 -77.849884 -638.251587
v 90.6226044 -76.0205154 -613.90918
v 8.02467346 -78.7389145 -709.180054
v 45.241684 -87.1047821 -682.865601
v 82.9914398 -89.1223602 -656.876587
v 122.267578 -83.239975 -634.290283
v 4.22709656 -84.5631104 -754.133545
v 39.8432465 -92.6260681 -730.188354
v 76.4893341 -96.9289169 -704.93811
v 114.247192 -95.6422806 -680.258362
v 152.898315 -87.1389313 -660.452637
v 3.9818573 -88.9738007 -798.072266
v 36.5779266 -95.1201477 -777.728516
v 71.5960236 -99.8731995 -755.049438
v 108.396484 -101.459015 -731.024536
v 145.887939 -97.9843597 -708.609741
v 182.54657 -87.8941116 -692.292236
v 2.57606506 -26.0387535 -597.528076
v -24.8218842 -16.4033661 -623.772705
v -7.88240051 -39.3619232 -620.122192
v -47.6310272 -6.72779846 -655.80011
v -35.0839996 -28.9464836 -648.989136
v -15.1509857 -50.4417267 -653.309509
v -67.2766724 1.35659599 -693.477905
v -57.6719971 -19.380867 -682.209473
v -42.2051544 -39.9353333 -683.55835
v -20.6266327 -60.0218735 -693.403198
v -84.4949799 7.21406174 -735.328491
v -76.9710236 -12.0790329 -720.034424
v -64.5840302 -31.341362 -717.240601
v -47.3005981 -50.4966812 -723.860718
v -24.6912689 -68.7128372 -737.079712
v -99.0454254 10.7240448 -779.334229
v -93.0970917 -7.64979553 -762.729248
v -82.9630737 -25.8905792 -755.669678
v -68.6117096 -44.1600189 -758.380981
v -49.6492767 -61.6809921 -767.906982
v -25.7226715 -77.1803665 -782.06665
v -7.1771698 -4.65708923 -608.124146
v -13.2647858 15.2117138 -631.368774
v -32.7222137 5.16415024 -639.831177
v -16.8516083 33.8232689 -662.787842
v -36.9035187 24.3134365 -668.048462
v -53.7080536 13.9191914 -677.474609
v -19.0012665 52.3711891 -698.280884
v -38.9503021 42.5291519 -702.529663
v -56.7101593 32.3782578 -709.443237
v -72.2653656 20.9577065 -719.864502
v -20.9626923 72.4089127 -735.058594
v -40.2132416 61.6392365 -739.641113
v -58.4367218 50.9059143 -745.922974
v -75.1217651 39.3067703 -754.326294
v -89.2416992 26.1840706 -765.190308
g 
f 3 1 2
f 5 2 4
f 6 3 5
f 8 4 7
f 9 5 8
f 10 6 9
f 12 7 11
f 13 8 12
f 14 9 13
f 15 10 14
f 17 11 16
f 18 12 17
f 19 13 18
f 20 14 19
f 21 15 20
f 23 16 22
f 24 17 23
f 25 18 24
f 26 19 25
f 27 20 26
f 28 21 27
f 30 22 29
f 31 23 30
f 32 24 31
f 33 25 32
f 34 26 33
f 35 27 34
f 36 28 35
f 3 2 5
f 5 4 8
f 6 5 9
f 8 7 12
f 9 8 13
f 10 9 14
f 12 11 17
f 13 12 18
f 14 13 19
f 15 14 20
f 17 16 23
f 18 17 24
f 19 18 25
f 20 19 26
f 21 20 27
f 23 22 30
f 24 23 31
f 25 24 32
f 26 25 33
f 27 26 34
f 28 27 35
f 37 1 3
f 38 3 6
f 39 37 38
f 40 6 10
f 41 38 40
f 42 39 41
f 43 10 15
f 44 40 43
f 45 41 44
f 46 42 45
f 47 15 21
f 48 43 47
f 49 44 48
f 50 45 49
f 51 46 50
f 52 21 28
f 53 47 52
f 54 48 53
f 55 49 54
f 56 50 55
f 57 51 56
f 58 28 36
f 59 52 58
f 60 53 59
f 61 54 60
f 62 55 61
f 63 56 62
f 64 57 63
f 37 3 38
f 38 6 40
f 39 38 41
f 40 10 43
f 41 40 44
f 42 41 45
f 43 15 47
f 44 43 48
f 45 44 49
f 46 45 50
f 47 21 52
f 48 47 53
f 49 48 54
f 50 49 55
f 51 50 56
f 52 28 58
f 53 52 59
f 54 53 60
f 55 54 61
f 56 55 62
f 57 56 63
f 65 1 37
f 66 37 39
f 67 65 66
f 68 39 42
f 69 66 68
f 70 67 69
f 71 42 46
f 72 68 71
f 73 69 72
f 74 70 73
f 75 46 51
f 76 71 75
f 77 72 76
f 78 73 77
f 79 74 78
f 80 51 57
f 81 75 80
f 82 76 81
f 83 77 82
f 84 78 83
f 85 79 84
f 86 57 64
f 87 80 86
f 88 81 87
f 89 82 88
f 90 83 89
f 91 84 90
f 92 85 91
f 65 37 66
f 66 39 68
f 67 66 69
f 68 42 71
f 69 68 72
f 70 69 73
f 71 46 75
f 72 71 76
f 73 72 77
f 74 73 78
f 75 51 80
f 76 75 81
f 77 76 82
f 78 77 83
f 79 78 84
f 80 57 86
f 81 80 87
f 82 81 88
f 83 82 89
f 84 83 90
f 85 84 91
f 93 1 65
f 94 65 67
f 95 93 94
f 96 67 70
f 97 94 96
f 98 95 97
f 99 70 74
f 100 96 99
f 101 97 100
f 102 98 101
f 103 74 79
f 104 99 103
f 105 100 104
f 106 101 105
f 107 102 106
f 108 79 85
f 109 103 108
f 110 104 109
f 111 105 110
f 112 106 111
f 113 107 112
f 114 85 92
f 115 108 114
f 116 109 115
f 117 110 116
f 118 111 117
f 119 112 118
f 120 113 119
f 93 65 94
f 94 67 96
f 95 94 97
f 96 70 99
f 97 96 100
f 98 97 101
f 99 74 103
f 100 99 104
f 101 100 105
f 102 101 106
f 103 79 108
f 104 103 109
f 105 104 110
f 106 105 111
f 107 106 112
f 108 85 114
f 109 108 115
f 110 109 116
f 111 110 117
f 112 111 118
f 113 112 119
f 2 1 93
f 121 93 95
f 4 2 121
f 122 95 98
f 123 121 122
f 7 4 123
f 124 98 102
f 125 122 124
f 126 123 125
f 11 7 126
f 127 102 107
f 128 124 127
f 129 125 128
f 130 126 129
f 16 11 130
f 131 107 113
f 132 127 131
f 133 128 132
f 134 129 133
f 135 130 134
f 22 16 135
f 136 113 120
f 137 131 136
f 138 132 137
f 139 133 138
f 140 134 139
f 141 135 140
f 29 22 141
f 2 93 121
f 121 95 122
f 4 121 123
f 122 98 124
f 123 122 125
f 7 123 126
f 124 102 127
f 125 124 128
f 126 125 129
f 11 126 130
f 127 107 131
f 128 127 132
f 129 128 133
f 130 129 134
f 16 130 135
f 131 113 136
f 132 131 137
f 133 132 138
f 134 133 139
f 135 134 140
f 22 135 141
f 142 29 141
f 143 141 140
f 144 142 143
f 145 140 139
f 146 143 145
f 147 144 146
f 148 139 138
f 149 145 148
f 150 146 149
f 151 147 150
f 152 138 137
f 153 148 152
f 154 149 153
f 155 150 154
f 156 151 155
f 157 137 136
f 158 152 157
f 159 153 158
f 160 154 159
f 161 155 160
f 162 156 161
f 163 136 120
f 164 157 163
f 165 158 164
f 166 159 165
f 167 160 166
f 168 161 167
f 169 162 168
f 142 141 143
f 143 140 145
f 144 143 146
f 145 139 148
f 146 145 149
f 147 146 150
f 148 138 152
f 149 148 153
f 150 149 154
f 151 150 155
f 152 137 157
f 153 152 158
f 154 153 159
f 155 154 160
f 156 155 161
f 157 136 163
f 158 157 164
f 159 158 165
f 160 159 166
f 161 160 167
f 162 161 168
f 170 120 119
f 171 119 118
f 172 170 171
f 173 118 117
f 174 171 173
f 175 172 174
f 176 117 116
f 177 173 176
f 178 174 177
f 179 175 178
f 180 116 115
f 181 176 180
f 182 177 181
f 183 178 182
f 184 179 183
f 185 115 114
f 186 180 185
f 187 181 186
f 188 182 187
f 189 183 188
f 190 184 189
f 191 114 92
f 192 185 191
f 193 186 192
f 194 187 193
f 195 188 194
f 196 189 195
f 197 190 196
f 170 119 171
f 171 118 173
f 172 171 174
f 173 117 176
f 174 173 177
f 175 174 178
f 176 116 180
f 177 176 181
f 178 177 182
f 179 178 183
f 180 115 185
f 181 180 186
f 182 181 187
f 183 182 188
f 184 183 189
f 185 114 191
f 186 185 192
f 187 186 193
f 188 187 194
f 189 188 195
f 190 189 196
f 198 92 91
f 199 91 90
f 200 198 199
f 201 90 89
f 202 199 201
f 203 200 202
f 204 89 88
f 205 201 204
f 206 202 205
f 207 203 206
f 208 88 87
f 209 204 208
f 210 205 209
f 211 206 210
f 212 207 211
f 213 87 86
f 214 208 213
f 215 209 214
f 216 210 215
f 217 211 216
f 218 212 217
f 219 86 64
f 220 213 219
f 221 214 220
f 222 215 221
f 223 216 222
f 224 217 223
f 225 218 224
f 198 91 199
f 199 90 201
f 200 199 202
f 201 89 204
f 202 201 205
f 203 202 206
f 204 88 208
f 205 204 209
f 206 205 210
f 207 206 211
f 208 87 213
f 209 208 214
f 210 209 215
f 211 210 216
f 212 211 217
f 213 86 219
f 214 213 220
f 215 214 221
f 216 215 222
f 217 216 223
f 218 217 224
f 226 64 63
f 227 63 62
f 228 226 227
f 229 62 61
f 230 227 229
f 231 228 230
f 232 61 60
f 233 229 232
f 234 230 233
f 235 231 234
f 236 60 59
f 237 232 236
f 238 233 237
f 239 234 238
f 240 235 239
f 241 59 58
f 242 236 241
f 243 237 242
f 244 238 243
f 245 239 244
f 246 240 245
f 247 58 36
f 248 241 247
f 249 242 248
f 250 243 249
f 251 244 250
f 252 245 251
f 253 246 252
f 226 63 227
f 227 62 229
f 228 227 230
f 229 61 232
f 230 229 233
f 231 230 234
f 232 60 236
f 233 232 237
f 234 233 238
f 235 234 239
f 236 59 241
f 237 236 242
f 238 237 243
f 239 238 244
f 240 239 245
f 241 58 247
f 242 241 248
f 243 242 249
f 244 243 250
f 245 244 251
f 246 245 252
f 254 36 35
f 255 35 34
f 256 254 255
f 257 34 33
f 258 255 257
f 259 256 258
f 260 33 32
f 261 257 260
f 262 258 261
f 263 259 262
f 264 32 31
f 265 260 264
f 266 261 265
f 267 262 266
f 268 263 267
f 269 31 30
f 270 264 269
f 271 265 270
f 272 266 271
f 273 267 272
f 274 268 273
f 275 30 29
f 276 269 275
f 277 270 276
f 278 271 277
f 279 272 278
f 280 273 279
f 281 274 280
f 254 35 255
f 255 34 257
f 256 255 258
f 257 33 260
f 258 257 261
f 259 258 262
f 260 32 264
f 261 260 265
f 262 261 266
f 263 262 267
f 264 31 269
f 265 264 270
f 266 265 271
f 267 266 272
f 268 267 273
f 269 30 275
f 270 269 276
f 271 270 277
f 272 271 278
f 273 272 279
f 274 273 280
f 275 29 142
f 282 142 144
f 276 275 282
f 283 144 147
f 284 282 283
f 277 276 284
f 285 147 151
f 286 283 285
f 287 284 286
f 278 277 287
f 288 151 156
f 289 285 288
f 290 286 289
f 291 287 290
f 279 278 291
f 292 156 162
f 293 288 292
f 294 289 293
f 295 290 294
f 296 291 295
f 280 279 296
f 297 162 169
f 298 292 297
f 299 293 298
f 300 294 299
f 301 295 300
f 302 296 301
f 281 280 302
f 275 142 282
f 282 144 283
f 276 282 284
f 283 147 285
f 284 283 286
f 277 284 287
f 285 151 288
f 286 285 289
f 287 286 290
f 278 287 291
f 288 156 292
f 289 288 293
f 290 289 294
f 291 290 295
f 279 291 296
f 292 162 297
f 293 292 298
f 294 293 299
f 295 294 300
f 296 295 301
f 280 296 302
f 163 120 170
f 303 170 172
f 164 163 303
f 304 172 175
f 305 303 304
f 165 164 305
f 306 175 179
f 307 304 306
f 308 305 307
f 166 165 308
f 309 179 184
f 310 306 309
f 311 307 310
f 312 308 311
f 167 166 312
f 313 184 190
f 314 309 313
f 315 310 314
f 316 311 315
f 317 312 316
f 168 167 317
f 318 190 197
f 319 313 318
f 320 314 319
f 321 315 320
f 322 316 321
f 323 317 322
f 169 168 323
f 163 170 303
f 303 172 304
f 164 303 305
f 304 175 306
f 305 304 307
f 165 305 308
f 306 179 309
f 307 306 310
f 308 307 311
f 166 308 312
f 309 184 313
f 310 309 314
f 311 310 315
f 312 311 316
f 167 312 317
f 313 190 318
f 314 313 319
f 315 314 320
f 316 315 321
f 317 316 322
f 168 317 323
f 191 92 198
f 324 198 200
f 192 191 324
f 325 200 203
f 326 324 325
f 193 192 326
f 327 203 207
f 328 325 327
f 329 326 328
f 194 193 329
f 330 207 212
f 331 327 330
f 332 328 331
f 333 329 332
f 195 194 333
f 334 212 218
f 335 330 334
f 336 331 335
f 337 332 336
f 338 333 337
f 196 195 338
f 339 218 225
f 340 334 339
f 341 335 340
f 342 336 341
f 343 337 342
f 344 338 343
f 197 196 344
f 191 198 324
f 324 200 325
f 192 324 326
f 325 203 327
f 326 325 328
f 193 326 329
f 327 207 330
f 328 327 331
f 329 328 332
f 194 329 333
f 330 212 334
f 331 330 335
f 332 331 336
f 333 332 337
f 195 333 338
f 334 218 339
f 335 334 340
f 336 335 341
f 337 336 342
f 338 337 343
f 196 338 344
f 219 64 226
f 345 226 228
f 220 219 345
f 346 228 231
f 347 345 346
f 221 220 347
f 348 231 235
f 349 346 348
f 350 347 349
f 222 221 350
f 351 235 240
f 352 348 351
f 353 349 352
f 354 350 353
f 223 222 354
f 355 240 246
f 356 351 355
f 357 352 356
f 358 353 357
f 359 354 358
f 224 223 359
f 360 246 253
f 361 355 360
f 362 356 361
f 363 357 362
f 364 358 363
f 365 359 364
f 225 224 365
f 219 226 345
f 345 228 346
f 220 345 347
f 346 231 348
f 347 346 349
f 221 347 350
f 348 235 351
f 349 348 352
f 350 349 353
f 222 350 354
f 351 240 355
f 352 351 356
f 353 352 357
f 354 353 358
f 223 354 359
f 355 246 360
f 356 355 361
f 357 356 362
f 358 357 363
f 359 358 364
f 224 359 365
f 247 36 254
f 366 254 256
f 248 247 366
f 367 256 259
f 368 366 367
f 249 248 368
f 369 259 263
f 370 367 369
f 371 368 370
f 250 249 371
f 372 263 268
f 373 369 372
f 374 370 373
f 375 371 374
f 251 250 375
f 376 268 274
f 377 372 376
f 378 373 377
f 379 374 378
f 380 375 379
f 252 251 380
f 381 274 281
f 382 376 381
f 383 377 382
f 384 378 383
f 385 379 384
f 386 380 385
f 253 252 386
f 247 254 366
f 366 256 367
f 248 366 368
f 367 259 369
f 368 367 370
f 249 368 371
f 369 263 372
f 370 369 373
f 371 370 374
f 250 371 375
f 372 268 376
f 373 372 377
f 374 373 378
f 375 374 379
f 251 375 380
f 376 274 381
f 377 376 382
f 378 377 383
f 379 378 384
f 380 379 385
f 252 380 386
f 389 387 388
f 391 388 390
f 392 389 391
f 394 390 393
f 395 391 394
f 396 392 395
f 398 393 397
f 399 394 398
f 400 395 399
f 401 396 400
f 403 397 402
f 404 398 403
f 405 399 404
f 406 400 405
f 407 401 406
f 409 402 408
f 410 403 409
f 411 404 410
f 412 405 411
f 413 406 412
f 414 407 413
f 302 408 281
f 301 409 302
f 300 410 301
f 299 411 300
f 298 412 299
f 297 413 298
f 169 414 297
f 389 388 391
f 391 390 394
f 392 391 395
f 394 393 398
f 395 394 399
f 396 395 400
f 398 397 403
f 399 398 404
f 400 399 405
f 401 400 406
f 403 402 409
f 404 403 410
f 405 404 411
f 406 405 412
f 407 406 413
f 409 408 302
f 410 409 301
f 411 410 300
f 412 411 299
f 413 412 298
f 414 413 297
f 388 387 415
f 417 415 416
f 390 388 417
f 419 416 418
f 420 417 419
f 393 390 420
f 422 418 421
f 423 419 422
f 424 420 423
f 397 393 424
f 426 421 425
f 427 422 426
f 428 423 427
f 429 424 428
f 402 397 429
f 431 425 430
f 432 426 431
f 433 427 432
f 434 428 433
f 435 429 434
f 408 402 435
f 386 430 253
f 385 431 386
f 384 432 385
f 383 433 384
f 382 434 383
f 381 435 382
f 281 408 381
f 388 415 417
f 417 416 419
f 390 417 420
f 419 418 422
f 420 419 423
f 393 420 424
f 422 421 426
f 423 422 427
f 424 423 428
f 397 424 429
f 426 425 431
f 427 426 432
f 428 427 433
f 429 428 434
f 402 429 435
f 431 430 386
f 432 431 385
f 433 432 384
f 434 433 383
f 435 434 382
f 408 435 381
f 415 387 436
f 438 436 437
f 416 415 438
f 440 437 439
f 441 438 440
f 418 416 441
f 443 439 442
f 444 440 443
f 445 441 444
f 421 418 445
f 447 442 446
f 448 443 447
f 449 444 448
f 450 445 449
f 425 421 450
f 452 446 451
f 453 447 452
f 454 448 453
f 455 449 454
f 456 450 455
f 430 425 456
f 365 451 225
f 364 452 365
f 363 453 364
f 362 454 363
f 361 455 362
f 360 456 361
f 253 430 360
f 415 436 438
f 438 437 440
f 416 438 441
f 440 439 443
f 441 440 444
f 418 441 445
f 443 442 447
f 444 443 448
f 445 444 449
f 421 445 450
f 447 446 452
f 448 447 453
f 449 448 454
f 450 449 455
f 425 450 456
f 452 451 365
f 453 452 364
f 454 453 363
f 455 454 362
f 456 455 361
f 430 456 360
f 436 387 457
f 459 457 458
f 437 436 459
f 461 458 460
f 462 459 461
f 439 437 462
f 464 460 463
f 465 461 464
f 466 462 465
f 442 439 466
f 468 463 467
f 469 464 468
f 470 465 469
f 471 466 470
f 446 442 471
f 473 467 472
f 474 468 473
f 475 469 474
f 476 470 475
f 477 471 476
f 451 446 477
f 344 472 197
f 343 473 344
f 342 474 343
f 341 475 342
f 340 476 341
f 339 477 340
f 225 451 339
f 436 457 459
f 459 458 461
f 437 459 462
f 461 460 464
f 462 461 465
f 439 462 466
f 464 463 468
f 465 464 469
f 466 465 470
f 442 466 471
f 468 467 473
f 469 468 474
f 470 469 475
f 471 470 476
f 446 471 477
f 473 472 344
f 474 473 343
f 475 474 342
f 476 475 341
f 477 476 340
f 451 477 339
f 457 387 389
f 478 389 392
f 458 457 478
f 479 392 396
f 480 478 479
f 460 458 480
f 481 396 401
f 482 479 481
f 483 480 482
f 463 460 483
f 484 401 407
f 485 481 484
f 486 482 485
f 487 483 486
f 467 463 487
f 488 407 414
f 489 484 488
f 490 485 489
f 491 486 490
f 492 487 491
f 472 467 492
f 323 414 169
f 322 488 323
f 321 489 322
f 320 490 321
f 319 491 320
f 318 492 319
f 197 472 318
f 457 389 478
f 478 392 479
f 458 478 480
f 479 396 481
f 480 479 482
f 460 480 483
f 481 401 484
f 482 481 485
f 483 482 486
f 463 483 487
f 484 407 488
f 485 484 489
f 486 485 490
f 487 486 491
f 467 487 492
f 488 414 323
f 489 488 322
f 490 489 321
f 491 490 320
f 492 491 319
f 472 492 318
