# File exported by Houdini 20.5.445 (www.sidefx.com)
# 492 points
# 2940 vertices
# 980 primitives
# Bounds: [-136.053711, -212.884644, -1085.64062] to [306.827637, 329.261749, -669.160461]
g 
v 70.4679565 30.3320084 -1085.64062
v 57.7680664 74.1583252 -1082.00122
v 82.4894409 37.0534973 -1085.12646
v 46.7376099 116.017296 -1071.50415
v 70.1660767 84.732254 -1079.92651
v 94.7950439 44.4712181 -1081.13721
v 36.7124634 154.915436 -1055.57129
v 59.8729858 128.873596 -1067.65259
v 81.8168335 94.4992294 -1074.0791
v 106.532715 53.4546928 -1074.67139
v 27.2871704 190.365326 -1035.99805
v 50.6668701 169.1828 -1050.58813
v 71.3962402 139.870697 -1060.27026
v 92.0882568 104.490379 -1065.59717
v 117.099609 64.5379181 -1066.22339
v 18.7824707 222.352783 -1014.65533
v 42.0627441 205.795959 -1030.09131
v 62.427002 181.134735 -1041.88159
v 81.1722412 150.350098 -1050.12036
v 100.998352 115.298866 -1054.87476
v 126.282898 77.5571594 -1055.74756
v 11.9000244 250.55365 -992.653015
v 34.0928345 239.0177 -1007.08881
v 54.0881958 219.041382 -1019.34479
v 72.0641479 192.374939 -1029.42139
v 89.4851074 161.004669 -1037.03662
v 109.107056 127.069405 -1041.90356
v 134.34668 91.7201843 -1043.30127
v 6.98199463 274.354248 -969.448303
v 26.8482666 268.327362 -981.008606
v 45.7449951 253.780609 -991.799744
v 63.1864014 231.512451 -1002.17511
v 79.7337646 203.396515 -1011.81439
v 97.0705566 171.930511 -1020.12628
v 117.27771 139.102325 -1026.30688
v 142.208191 105.829826 -1029.13916
v 93.222168 -10.1708565 -1082.94678
v 107.908569 -4.94914246 -1079.61157
v 120.123779 -49.4730606 -1072.94238
v 122.283081 2.96783829 -1074.07153
v 137.047546 -42.3626175 -1066.74902
v 152.001831 -85.075531 -1057.43286
v 135.714355 13.9758377 -1067.32397
v 153.119019 -31.6971741 -1059.95874
v 169.877563 -74.559288 -1049.00098
v 187.337219 -115.94384 -1038.08228
v 147.725708 28.0825577 -1059.26025
v 167.944397 -17.6148643 -1053.1499
v 186.760437 -60.5801163 -1041.36206
v 205.146301 -101.951866 -1028.16602
v 222.945435 -141.59314 -1015.87079
v 158.025574 44.8660545 -1049.19263
v 181.294312 -0.11297226 -1045.65479
v 202.677429 -43.1508636 -1034.62622
v 222.206299 -84.4413528 -1019.72845
v 239.785217 -123.874153 -1004.61603
v 253.982971 -160.000305 -990.676819
v 166.715149 63.5092506 -1036.22192
v 192.689453 20.7214012 -1036.00024
v 217.010986 -21.4999619 -1027.23389
v 238.174744 -62.4086151 -1011.88702
v 255.68634 -101.564415 -994.129089
v 268.887451 -137.971588 -977.285461
v 276.679077 -169.608521 -962.630188
v 72.9094238 -0.949081421 -1082.91089
v 100.157837 -45.7112198 -1077.55884
v 78.4406128 -31.1842957 -1076.51294
v 132.216919 -86.6633224 -1065.28857
v 110.856506 -77.5057755 -1069.25781
v 87.3685303 -59.1466904 -1066.21851
v 168.428162 -122.369377 -1047.90869
v 147.352783 -117.944527 -1055.18579
v 124.14386 -104.49369 -1057.10742
v 98.1870728 -83.0184708 -1051.33057
v 206.129578 -152.518707 -1026.29541
v 185.997192 -152.338837 -1035.51758
v 163.035461 -142.87735 -1040.81128
v 137.248596 -125.701988 -1040.21655
v 108.161621 -101.897469 -1032.31299
v 241.015198 -175.997742 -1000.27765
v 223.321106 -180.645752 -1010.21942
v 201.269836 -175.21524 -1017.85016
v 175.42688 -161.446014 -1021.14703
v 146.311768 -141.134155 -1018.65839
v 114.418457 -115.951836 -1009.64423
v 267.837646 -189.923218 -968.985779
v 253.796082 -200.101898 -977.74762
v 234.132385 -200.178436 -986.531067
v 209.235107 -190.692383 -992.917786
v 180.207764 -173.384399 -994.907654
v 148.687195 -150.914368 -991.336121
v 116.657959 -125.950859 -982.413757
v 50.8915405 49.9314842 -1080.62354
v 52.2316895 18.2016182 -1076.12451
v 32.3590698 66.0987091 -1069.02026
v 56.8442383 -11.3948822 -1067.3396
v 33.5910034 33.8362274 -1062.34424
v 14.333252 78.4678192 -1051.7417
v 64.307373 -37.8981171 -1054.24854
v 37.5250854 5.00835609 -1051.29541
v 15.4685669 46.536396 -1043.63525
v -3.76245117 87.9081879 -1030.47559
v 72.8400879 -60.268425 -1036.61694
v 43.3644409 -20.0096436 -1036.06641
v 18.3392334 19.0531387 -1031.34131
v -3.21044922 57.3457069 -1021.94135
v -22.0059204 95.2683487 -1007.01593
v 80.0715942 -78.7589951 -1014.91132
v 49.4951782 -41.3264847 -1016.14532
v 22.1542358 -4.5164032 -1014.23578
v -1.85760498 31.3506851 -1008.58966
v -22.3664551 66.1378326 -997.58551
v -39.1884155 99.9770584 -981.613464
v 84.9400635 -94.09095 -987.734192
v 54.7563477 -60.4129105 -990.02179
v 26.4165649 -25.9941978 -990.051819
v 0.303100586 8.04968071 -987.417786
v -22.4234619 40.7512779 -980.575623
v -40.8758545 72.0301208 -969.133484
v -54.6370239 102.245918 -954.521057
v 36.7089233 94.8773575 -1072.13525
v 17.0557861 109.559731 -1055.85449
v 24.3994751 134.98172 -1057.17432
v -2.01000977 119.386726 -1034.77808
v 3.50012207 146.960541 -1037.27588
v 13.144043 170.859772 -1037.78101
v -20.847229 125.977547 -1010.82037
v -16.3909302 154.262482 -1013.56573
v -8.67529297 180.266327 -1015.62909
v 3.03570557 203.408691 -1016.16925
v -38.8619385 129.870544 -984.700623
v -35.3418579 158.311432 -987.385925
v -28.7839966 185.566193 -990.145813
v -18.8700562 210.906952 -992.699402
v -5.1317749 233.138855 -993.815002
v -55.1208496 130.86203 -956.110779
v -52.493042 159.21933 -958.130554
v -46.8660889 187.282654 -961.128845
v -37.993103 214.400726 -964.83075
v -25.7547607 239.045685 -968.378723
v -10.3348999 259.530914 -970.275208
v -6.84100342 286.083099 -946.948792
v -25.4961548 266.628204 -945.577209
v -18.7124023 293.123077 -924.162537
v -40.859436 241.962616 -941.574524
v -37.4747925 269.273621 -921.710876
v -29.8022461 296.779449 -901.246643
v -52.7145386 214.051819 -936.765808
v -52.3348999 241.109283 -916.954529
v -47.9539795 269.55069 -898.550354
v -41.6880493 297.504639 -877.75885
v -61.2243958 184.448212 -932.41449
v -63.875 210.506744 -911.605286
v -62.5231628 238.651154 -893.517639
v -59.1756592 267.779877 -875.405212
v -55.9393921 294.702728 -853.643738
v -66.6416016 153.819672 -929.506897
v -72.6833191 178.249023 -906.858948
v -74.716156 205.331512 -887.685608
v -74.5766602 234.269318 -869.986389
v -73.5606384 263.023468 -851.332336
v -73.2818604 287.740967 -828.959656
v -68.7002258 122.08828 -928.043396
v -78.6012573 144.127228 -903.388367
v -84.8268433 169.601685 -881.778748
v -88.5927429 197.883087 -862.694153
v -90.6963501 227.236694 -844.41156
v -91.8312988 254.670135 -825.263367
v -92.7911072 276.489594 -803.958313
v -61.2818298 86.0515747 -934.86261
v -44.2959595 53.0648613 -947.093567
v -66.4727783 71.5245361 -911.649353
v -22.0806274 20.5107994 -955.27301
v -45.4342651 36.3453903 -920.798645
v -70.6928406 59.1784172 -884.438171
v 4.02233887 -12.7873573 -959.204895
v -19.2893066 2.52006531 -925.992249
v -45.1119995 22.0188217 -890.446228
v -73.6099243 49.0225258 -853.648376
v 32.479187 -46.9144974 -959.753113
v 9.6630249 -31.5840874 -927.408752
v -15.3615723 -13.0475235 -892.785095
v -43.3947754 10.2920513 -856.504822
v -73.9187317 40.8531227 -820.420105
v 63.1066895 -81.0820541 -958.33197
v 40.5712891 -66.4409561 -926.095154
v 16.4413452 -48.3919449 -891.768005
v -10.2637939 -26.1639366 -856.069275
v -39.4835815 0.930444717 -820.276306
v -69.9959717 33.8862534 -786.947815
v 96.5042725 -114.553368 -954.611267
v 74.5964966 -101.495934 -922.775452
v 51.0438843 -84.9513626 -887.958191
v 25.414856 -63.5894852 -852.056458
v -2.47998047 -37.4485092 -816.736023
v -31.730957 -7.12149429 -783.87384
v -60.7348328 26.8207092 -756.03595
v 135.541382 -147.777466 -956.826599
v 171.239685 -173.911987 -962.657532
v 150.757385 -164.22757 -925.606384
v 203.868835 -194.659698 -962.22052
v 187.469177 -188.287231 -928.192444
v 161.97998 -174.035675 -889.070862
v 232.424377 -207.943726 -956.933777
v 219.638794 -204.896362 -924.972839
v 198.805603 -194.352051 -889.558899
v 170.885254 -177.351868 -849.730652
v 256.014709 -211.922302 -948.943787
v 247.224182 -212.884644 -918.355164
v 230.592651 -206.047577 -885.339539
v 207.872437 -193.309723 -849.52948
v 179.493408 -174.868256 -811.048157
v 273.980347 -205.265656 -940.691711
v 269.925781 -210.689758 -910.801086
v 257.97644 -208.213043 -879.123596
v 239.922241 -199.582794 -845.725281
v 216.871765 -185.882843 -811.122498
v 188.751648 -166.909454 -776.398621
v 286.139832 -186.639496 -934.904236
v 287.244446 -196.153961 -905.128967
v 280.847351 -198.503723 -873.771545
v 267.985107 -194.515167 -841.342712
v 249.617798 -185.319916 -808.748352
v 226.226196 -171.555481 -777.253479
v 197.678772 -153.151825 -748.289734
v 289.246338 -153.388 -943.41156
v 281.504395 -116.140816 -963.072083
v 297.693054 -130.859131 -927.797791
v 267.55304 -76.519043 -984.243103
v 288.448242 -89.5406113 -952.640808
v 302.199768 -104.456703 -915.100647
v 248.260925 -35.8906784 -1003.96576
v 272.293152 -47.9679565 -976.295593
v 290.299683 -60.7705536 -943.279602
v 301.776184 -76.0291977 -903.222595
v 224.060242 5.69997025 -1018.11615
v 250.193909 -6.47544861 -995.216003
v 271.053345 -18.1734772 -966.629333
v 286.646484 -31.3616142 -931.839661
v 295.713257 -46.7772141 -890.092346
v 195.755737 48.7322807 -1023.18976
v 222.655273 36.0201988 -1005.62921
v 245.805969 24.3666573 -982.131042
v 264.437744 12.0990181 -952.240051
v 277.619019 -1.8919487 -916.211121
v 283.375183 -17.3254967 -874.707581
v 166.056824 93.5212784 -1019.10748
v 191.245728 81.3544464 -1005.73016
v 215.181213 69.4925537 -987.264465
v 235.888794 57.0368919 -962.562561
v 251.775818 43.2340736 -931.689636
v 261.361267 28.1048851 -896.042053
v 263.116028 12.6063995 -857.649719
v 134.432739 138.744141 -1011.49786
v 109.117065 175.101044 -1003.53888
v 128.752869 168.900452 -989.825989
v 89.0519409 208.886169 -993.134338
v 103.404968 206.235748 -977.925964
v 124.319397 196.136108 -964.887024
v 71.5869141 239.358093 -981.980164
v 83.1113281 239.415344 -964.736755
v 99.0527344 233.240784 -950.235046
v 119.067444 220.109039 -937.072205
v 54.4419556 264.955231 -971.183899
v 64.6951294 268.223663 -952.090149
v 77.9575195 265.15686 -935.4953
v 93.7344971 256.294891 -920.730042
v 110.538879 240.558868 -906.807312
v 35.9986572 283.434814 -961.159241
v 45.8760986 291.243011 -940.879944
v 57.6940918 291.954102 -922.056946
v 71.095459 286.659576 -905.041199
v 84.3656006 275.362183 -889.549133
v 96.5404663 257.436676 -875.176453
v 15.6464233 292.7771 -951.476746
v 25.0811768 305.751526 -931.150452
v 35.81073 311.854645 -910.408997
v 47.2435303 310.877838 -890.778137
v 58.0424805 303.451691 -872.885071
v 67.3847046 289.797852 -857.114441
v 75.3226929 270.422485 -843.618469
v 2.87542725 306.504639 -926.327942
v -8.90435791 314.445221 -902.062683
v 12.8236694 319.67276 -903.845154
v -22.144043 317.747437 -877.654968
v -0.853149414 326.468018 -877.959045
v 22.4000244 324.512329 -881.243835
v -38.0058594 316.861023 -852.049133
v -17.7393188 327.754517 -851.68927
v 5.43115234 329.261749 -853.429749
v 31.0123901 321.486755 -859.665955
v -57.225708 311.031342 -825.180603
v -38.4943848 323.758545 -823.586609
v -16.0022583 327.611694 -824.665344
v 10.0532227 323.356964 -829.510315
v 38.3902588 310.849518 -839.877991
v -79.7038879 299.033905 -797.582825
v -63.0986328 313.107727 -793.429871
v -41.9761353 318.805084 -793.285828
v -15.9744263 317.082916 -797.695251
v 13.6350708 308.077148 -807.282043
v 44.7781982 292.237183 -822.679016
v -77.5901794 107.975441 -904.853333
v -85.6827087 96.9352341 -879.31073
v -89.4620667 133.018555 -878.236755
v -93.4264526 88.3822479 -850.602478
v -100.437714 125.313469 -851.271667
v -98.3506775 161.27301 -855.263733
v -99.344574 81.3374023 -818.956848
v -111.147858 119.582375 -821.426453
v -112.19809 156.054535 -826.859802
v -104.895844 191.711487 -834.727966
v -100.536194 74.7318878 -785.419373
v -118.74176 114.244072 -788.794617
v -124.788727 151.953827 -795.645813
v -120.82724 187.912384 -804.649475
v -109.091095 222.27298 -814.775574
v -93.7507935 67.0753632 -752.248718
v -118.551697 107.30024 -754.423767
v -131.839569 146.553467 -761.394226
v -133.454346 183.707642 -771.361145
v -125.612335 218.270111 -782.335022
v -111.095367 249.532135 -793.072937
v 112.130005 -134.573669 -922.706482
v 123.769958 -147.975891 -886.577942
v 87.4072876 -119.029015 -885.800232
v 132.655457 -154.738495 -847.294128
v 96.713501 -129.014893 -846.650208
v 61.4632568 -99.0312576 -847.83136
v 140.909668 -155.528748 -807.402893
v 104.363831 -132.22879 -806.350891
v 68.8847046 -105.05526 -807.588928
v 33.5784302 -73.0923843 -810.657288
v 150.121521 -150.700623 -770.006042
v 112.238647 -129.404388 -767.183289
v 75.2138062 -103.861305 -767.718689
v 38.9935913 -74.1060562 -770.75531
v 3.32421875 -41.176033 -775.698792
v 160.156738 -139.59494 -738.113953
v 121.027588 -120.112297 -732.028625
v 81.6414795 -95.3908768 -730.20282
v 43.0586548 -66.7561874 -732.426331
v 6.17767334 -35.3880844 -737.264832
v -28.826355 -3.58249664 -744.735657
v 297.15332 -168.420563 -910.381409
v 304.091248 -144.696655 -890.763977
v 296.727112 -176.269989 -876.646057
v 306.827637 -117.558907 -874.586365
v 302.15332 -151.569092 -853.926697
v 289.235229 -177.551636 -842.577576
v 303.673767 -87.8414383 -859.776184
v 302.424744 -123.169197 -834.916809
v 292.727478 -151.686127 -817.485779
v 275.06311 -172.617706 -808.636902
v 293.141418 -55.8219986 -844.820007
v 294.646423 -90.8256607 -817.681213
v 288.552246 -120.850517 -796.003967
v 274.813904 -144.922546 -781.786682
v 253.68512 -162.150391 -775.480652
v 272.622803 -21.2539139 -829.044495
v 275.577698 -53.8847427 -801.166199
v 271.848999 -83.8075562 -776.469421
v 261.941528 -110.066704 -758.000793
v 245.788635 -131.209656 -747.285217
v 223.743469 -145.738617 -744.193787
v 158.948792 126.802162 -1000.21429
v 153.533569 155.821655 -977.509216
v 183.538696 114.447334 -985.234192
v 147.489685 181.090607 -951.307434
v 176.312561 141.992157 -961.140076
v 205.524597 101.287102 -964.57196
v 138.143005 203.173584 -921.546082
v 166.22699 165.455078 -932.90448
v 194.50946 127.033882 -938.303528
v 223.117615 86.7187347 -937.332092
v 122.886169 222.53009 -888.15033
v 150.200867 186.22168 -899.937073
v 178.128357 148.973206 -906.874451
v 206.550659 110.614601 -907.809143
v 234.646057 70.4731598 -903.586243
v 99.4102783 239.509979 -852.166443
v 125.200439 205.216339 -861.77594
v 152.595154 168.913391 -868.888367
v 181.347473 131.217377 -871.402649
v 210.389832 92.4673309 -869.518982
v 238.245056 52.734005 -864.401184
v -13.8978882 129.042328 -686.423035
v -11.0715332 160.81073 -701.983398
v -50.5535278 167.085114 -688.876831
v -2.38250732 189.30426 -720.30719
v -45.8776855 200.879425 -704.460144
v -80.1737366 200.445709 -695.783325
v 11.0195312 213.609772 -741.192932
v -34.7561646 228.723114 -722.091248
v -72.0832214 233.564056 -711.01532
v -101.73172 228.135101 -707.392639
v 27.5188599 233.413879 -764.791077
v -18.3911743 251.076355 -742.580139
v -57.0454102 259.637421 -728.780334
v -88.4791565 259.848572 -722.840881
v -112.553741 250.681641 -724.679871
v 45.1353149 249.314697 -790.431824
v 1.65319824 268.910461 -766.430359
v -36.4094849 280.311218 -750.561951
v -68.3335876 284.206146 -742.431946
v -93.7381897 280.408447 -741.609314
v -112.702271 266.98349 -747.655579
v 61.9613037 261.661377 -816.854309
v 23.7029419 282.700958 -793.288269
v -12.0318604 296.548096 -776.88678
v -43.4393311 303.174042 -767.247253
v -69.4787598 302.545166 -764.065002
v -89.7261963 293.988342 -767.00592
v -104.849945 275.606812 -774.865417
v 28.2636108 109.162849 -697.718628
v 74.1785889 89.0158081 -714.47113
v 34.5865479 141.304413 -718.595154
v 121.743347 69.7325134 -735.948181
v 81.8311157 121.497261 -740.506165
v 45.6040039 168.902649 -741.80658
v 167.803467 52.0881691 -761.727722
v 128.645752 102.297249 -766.577698
v 92.7217407 148.420502 -768.306824
v 59.7476196 192.009094 -767.254822
v 208.671936 36.5778961 -791.279114
v 172.377808 84.2936401 -796.256042
v 137.468018 128.697021 -798.681335
v 105.088318 170.710571 -798.029968
v 74.7993164 211.033417 -794.786072
v 241.083008 23.4164581 -823.654846
v 209.926697 67.7921295 -829.093811
v 177.691956 110.058571 -832.472473
v 146.345215 150.482635 -832.786072
v 116.681702 189.414764 -829.518616
v 88.7724609 226.748413 -823.409485
v 14.1444092 82.7519226 -678.788452
v 47.8759155 34.9629517 -674.888367
v 63.0408936 58.7417259 -691.00708
v 84.8721924 -12.1773834 -676.301147
v 100.914551 10.0184708 -688.155334
v 113.312927 37.0948982 -708.654846
v 121.740051 -56.1279831 -684.023315
v 139.299011 -35.8636017 -691.012573
v 152.63147 -10.774456 -707.164368
v 162.434326 18.248394 -731.322083
v 154.628296 -94.6095352 -698.411072
v 175.121826 -77.5853653 -700.878357
v 189.91626 -54.7199783 -712.15094
v 200.726257 -28.0053902 -732.031311
v 207.416382 2.25327492 -759.014709
v 180.07489 -126.894142 -719.798767
v 204.24176 -114.289864 -718.378479
v 222.343445 -94.7858505 -725.17157
v 234.992493 -70.2370377 -740.33551
v 242.833923 -42.1922073 -763.30426
v 245.116394 -10.902832 -791.727234
v -35.8817749 119.592995 -675.905701
v -52.2223511 108.177788 -672.614746
v -4.37200928 68.8172302 -669.531372
v -63.1264038 94.7617264 -676.696777
v -16.7207031 54.7855644 -669.311646
v 31.7709961 18.6421852 -669.160461
v -69.4228821 79.3438721 -687.352966
v -25.022522 40.8086357 -676.902893
v 20.7496338 4.25447083 -672.975281
v 69.0263062 -28.7460709 -675.13562
v -71.3588257 62.4496269 -703.683777
v -30.1530151 26.3618126 -691.825806
v 12.6569214 -8.93729019 -685.180908
v 57.1583862 -42.153389 -683.731018
v 104.368042 -71.4227066 -687.845093
v -68.4899597 44.5897255 -726.364929
v -31.7161865 11.5209503 -713.996277
v 7.44360352 -22.10252 -706.247498
v 48.2940674 -54.3253555 -702.186157
v 91.0498657 -83.7175064 -702.647949
v 135.404785 -108.407021 -708.316711
v -74.5809937 158.116882 -682.247742
v -103.403992 189.452393 -694.216858
v -91.2256165 145.955536 -683.383728
v -121.4729 214.485626 -711.757385
v -118.083466 174.723846 -700.25061
v -101.149139 130.401062 -691.429443
v -127.605072 233.71936 -734.761658
v -132.300385 196.692566 -723.006165
v -125.476532 156.226105 -712.209534
v -105.146881 111.789513 -704.850891
v -123.291901 245.660583 -762.276184
v -134.386322 211.565277 -750.635315
v -136.053711 174.266937 -739.083313
v -125.960724 133.844055 -729.451111
v -102.925323 90.4933319 -724.416931
g 
f 3 1 2
f 5 2 4
f 6 3 5
f 8 4 7
f 9 5 8
f 10 6 9
f 12 7 11
f 13 8 12
f 14 9 13
f 15 10 14
f 17 11 16
f 18 12 17
f 19 13 18
f 20 14 19
f 21 15 20
f 23 16 22
f 24 17 23
f 25 18 24
f 26 19 25
f 27 20 26
f 28 21 27
f 30 22 29
f 31 23 30
f 32 24 31
f 33 25 32
f 34 26 33
f 35 27 34
f 36 28 35
f 3 2 5
f 5 4 8
f 6 5 9
f 8 7 12
f 9 8 13
f 10 9 14
f 12 11 17
f 13 12 18
f 14 13 19
f 15 14 20
f 17 16 23
f 18 17 24
f 19 18 25
f 20 19 26
f 21 20 27
f 23 22 30
f 24 23 31
f 25 24 32
f 26 25 33
f 27 26 34
f 28 27 35
f 37 1 3
f 38 3 6
f 39 37 38
f 40 6 10
f 41 38 40
f 42 39 41
f 43 10 15
f 44 40 43
f 45 41 44
f 46 42 45
f 47 15 21
f 48 43 47
f 49 44 48
f 50 45 49
f 51 46 50
f 52 21 28
f 53 47 52
f 54 48 53
f 55 49 54
f 56 50 55
f 57 51 56
f 58 28 36
f 59 52 58
f 60 53 59
f 61 54 60
f 62 55 61
f 63 56 62
f 64 57 63
f 37 3 38
f 38 6 40
f 39 38 41
f 40 10 43
f 41 40 44
f 42 41 45
f 43 15 47
f 44 43 48
f 45 44 49
f 46 45 50
f 47 21 52
f 48 47 53
f 49 48 54
f 50 49 55
f 51 50 56
f 52 28 58
f 53 52 59
f 54 53 60
f 55 54 61
f 56 55 62
f 57 56 63
f 65 1 37
f 66 37 39
f 67 65 66
f 68 39 42
f 69 66 68
f 70 67 69
f 71 42 46
f 72 68 71
f 73 69 72
f 74 70 73
f 75 46 51
f 76 71 75
f 77 72 76
f 78 73 77
f 79 74 78
f 80 51 57
f 81 75 80
f 82 76 81
f 83 77 82
f 84 78 83
f 85 79 84
f 86 57 64
f 87 80 86
f 88 81 87
f 89 82 88
f 90 83 89
f 91 84 90
f 92 85 91
f 65 37 66
f 66 39 68
f 67 66 69
f 68 42 71
f 69 68 72
f 70 69 73
f 71 46 75
f 72 71 76
f 73 72 77
f 74 73 78
f 75 51 80
f 76 75 81
f 77 76 82
f 78 77 83
f 79 78 84
f 80 57 86
f 81 80 87
f 82 81 88
f 83 82 89
f 84 83 90
f 85 84 91
f 93 1 65
f 94 65 67
f 95 93 94
f 96 67 70
f 97 94 96
f 98 95 97
f 99 70 74
f 100 96 99
f 101 97 100
f 102 98 101
f 103 74 79
f 104 99 103
f 105 100 104
f 106 101 105
f 107 102 106
f 108 79 85
f 109 103 108
f 110 104 109
f 111 105 110
f 112 106 111
f 113 107 112
f 114 85 92
f 115 108 114
f 116 109 115
f 117 110 116
f 118 111 117
f 119 112 118
f 120 113 119
f 93 65 94
f 94 67 96
f 95 94 97
f 96 70 99
f 97 96 100
f 98 97 101
f 99 74 103
f 100 99 104
f 101 100 105
f 102 101 106
f 103 79 108
f 104 103 109
f 105 104 110
f 106 105 111
f 107 106 112
f 108 85 114
f 109 108 115
f 110 109 116
f 111 110 117
f 112 111 118
f 113 112 119
f 2 1 93
f 121 93 95
f 4 2 121
f 122 95 98
f 123 121 122
f 7 4 123
f 124 98 102
f 125 122 124
f 126 123 125
f 11 7 126
f 127 102 107
f 128 124 127
f 129 125 128
f 130 126 129
f 16 11 130
f 131 107 113
f 132 127 131
f 133 128 132
f 134 129 133
f 135 130 134
f 22 16 135
f 136 113 120
f 137 131 136
f 138 132 137
f 139 133 138
f 140 134 139
f 141 135 140
f 29 22 141
f 2 93 121
f 121 95 122
f 4 121 123
f 122 98 124
f 123 122 125
f 7 123 126
f 124 102 127
f 125 124 128
f 126 125 129
f 11 126 130
f 127 107 131
f 128 127 132
f 129 128 133
f 130 129 134
f 16 130 135
f 131 113 136
f 132 131 137
f 133 132 138
f 134 133 139
f 135 134 140
f 22 135 141
f 142 29 141
f 143 141 140
f 144 142 143
f 145 140 139
f 146 143 145
f 147 144 146
f 148 139 138
f 149 145 148
f 150 146 149
f 151 147 150
f 152 138 137
f 153 148 152
f 154 149 153
f 155 150 154
f 156 151 155
f 157 137 136
f 158 152 157
f 159 153 158
f 160 154 159
f 161 155 160
f 162 156 161
f 163 136 120
f 164 157 163
f 165 158 164
f 166 159 165
f 167 160 166
f 168 161 167
f 169 162 168
f 142 141 143
f 143 140 145
f 144 143 146
f 145 139 148
f 146 145 149
f 147 146 150
f 148 138 152
f 149 148 153
f 150 149 154
f 151 150 155
f 152 137 157
f 153 152 158
f 154 153 159
f 155 154 160
f 156 155 161
f 157 136 163
f 158 157 164
f 159 158 165
f 160 159 166
f 161 160 167
f 162 161 168
f 170 120 119
f 171 119 118
f 172 170 171
f 173 118 117
f 174 171 173
f 175 172 174
f 176 117 116
f 177 173 176
f 178 174 177
f 179 175 178
f 180 116 115
f 181 176 180
f 182 177 181
f 183 178 182
f 184 179 183
f 185 115 114
f 186 180 185
f 187 181 186
f 188 182 187
f 189 183 188
f 190 184 189
f 191 114 92
f 192 185 191
f 193 186 192
f 194 187 193
f 195 188 194
f 196 189 195
f 197 190 196
f 170 119 171
f 171 118 173
f 172 171 174
f 173 117 176
f 174 173 177
f 175 174 178
f 176 116 180
f 177 176 181
f 178 177 182
f 179 178 183
f 180 115 185
f 181 180 186
f 182 181 187
f 183 182 188
f 184 183 189
f 185 114 191
f 186 185 192
f 187 186 193
f 188 187 194
f 189 188 195
f 190 189 196
f 198 92 91
f 199 91 90
f 200 198 199
f 201 90 89
f 202 199 201
f 203 200 202
f 204 89 88
f 205 201 204
f 206 202 205
f 207 203 206
f 208 88 87
f 209 204 208
f 210 205 209
f 211 206 210
f 212 207 211
f 213 87 86
f 214 208 213
f 215 209 214
f 216 210 215
f 217 211 216
f 218 212 217
f 219 86 64
f 220 213 219
f 221 214 220
f 222 215 221
f 223 216 222
f 224 217 223
f 225 218 224
f 198 91 199
f 199 90 201
f 200 199 202
f 201 89 204
f 202 201 205
f 203 202 206
f 204 88 208
f 205 204 209
f 206 205 210
f 207 206 211
f 208 87 213
f 209 208 214
f 210 209 215
f 211 210 216
f 212 211 217
f 213 86 219
f 214 213 220
f 215 214 221
f 216 215 222
f 217 216 223
f 218 217 224
f 226 64 63
f 227 63 62
f 228 226 227
f 229 62 61
f 230 227 229
f 231 228 230
f 232 61 60
f 233 229 232
f 234 230 233
f 235 231 234
f 236 60 59
f 237 232 236
f 238 233 237
f 239 234 238
f 240 235 239
f 241 59 58
f 242 236 241
f 243 237 242
f 244 238 243
f 245 239 244
f 246 240 245
f 247 58 36
f 248 241 247
f 249 242 248
f 250 243 249
f 251 244 250
f 252 245 251
f 253 246 252
f 226 63 227
f 227 62 229
f 228 227 230
f 229 61 232
f 230 229 233
f 231 230 234
f 232 60 236
f 233 232 237
f 234 233 238
f 235 234 239
f 236 59 241
f 237 236 242
f 238 237 243
f 239 238 244
f 240 239 245
f 241 58 247
f 242 241 248
f 243 242 249
f 244 243 250
f 245 244 251
f 246 245 252
f 254 36 35
f 255 35 34
f 256 254 255
f 257 34 33
f 258 255 257
f 259 256 258
f 260 33 32
f 261 257 260
f 262 258 261
f 263 259 262
f 264 32 31
f 265 260 264
f 266 261 265
f 267 262 266
f 268 263 267
f 269 31 30
f 270 264 269
f 271 265 270
f 272 266 271
f 273 267 272
f 274 268 273
f 275 30 29
f 276 269 275
f 277 270 276
f 278 271 277
f 279 272 278
f 280 273 279
f 281 274 280
f 254 35 255
f 255 34 257
f 256 255 258
f 257 33 260
f 258 257 261
f 259 258 262
f 260 32 264
f 261 260 265
f 262 261 266
f 263 262 267
f 264 31 269
f 265 264 270
f 266 265 271
f 267 266 272
f 268 267 273
f 269 30 275
f 270 269 276
f 271 270 277
f 272 271 278
f 273 272 279
f 274 273 280
f 275 29 142
f 282 142 144
f 276 275 282
f 283 144 147
f 284 282 283
f 277 276 284
f 285 147 151
f 286 283 285
f 287 284 286
f 278 277 287
f 288 151 156
f 289 285 288
f 290 286 289
f 291 287 290
f 279 278 291
f 292 156 162
f 293 288 292
f 294 289 293
f 295 290 294
f 296 291 295
f 280 279 296
f 297 162 169
f 298 292 297
f 299 293 298
f 300 294 299
f 301 295 300
f 302 296 301
f 281 280 302
f 275 142 282
f 282 144 283
f 276 282 284
f 283 147 285
f 284 283 286
f 277 284 287
f 285 151 288
f 286 285 289
f 287 286 290
f 278 287 291
f 288 156 292
f 289 288 293
f 290 289 294
f 291 290 295
f 279 291 296
f 292 162 297
f 293 292 298
f 294 293 299
f 295 294 300
f 296 295 301
f 280 296 302
f 163 120 170
f 303 170 172
f 164 163 303
f 304 172 175
f 305 303 304
f 165 164 305
f 306 175 179
f 307 304 306
f 308 305 307
f 166 165 308
f 309 179 184
f 310 306 309
f 311 307 310
f 312 308 311
f 167 166 312
f 313 184 190
f 314 309 313
f 315 310 314
f 316 311 315
f 317 312 316
f 168 167 317
f 318 190 197
f 319 313 318
f 320 314 319
f 321 315 320
f 322 316 321
f 323 317 322
f 169 168 323
f 163 170 303
f 303 172 304
f 164 303 305
f 304 175 306
f 305 304 307
f 165 305 308
f 306 179 309
f 307 306 310
f 308 307 311
f 166 308 312
f 309 184 313
f 310 309 314
f 311 310 315
f 312 311 316
f 167 312 317
f 313 190 318
f 314 313 319
f 315 314 320
f 316 315 321
f 317 316 322
f 168 317 323
f 191 92 198
f 324 198 200
f 192 191 324
f 325 200 203
f 326 324 325
f 193 192 326
f 327 203 207
f 328 325 327
f 329 326 328
f 194 193 329
f 330 207 212
f 331 327 330
f 332 328 331
f 333 329 332
f 195 194 333
f 334 212 218
f 335 330 334
f 336 331 335
f 337 332 336
f 338 333 337
f 196 195 338
f 339 218 225
f 340 334 339
f 341 335 340
f 342 336 341
f 343 337 342
f 344 338 343
f 197 196 344
f 191 198 324
f 324 200 325
f 192 324 326
f 325 203 327
f 326 325 328
f 193 326 329
f 327 207 330
f 328 327 331
f 329 328 332
f 194 329 333
f 330 212 334
f 331 330 335
f 332 331 336
f 333 332 337
f 195 333 338
f 334 218 339
f 335 334 340
f 336 335 341
f 337 336 342
f 338 337 343
f 196 338 344
f 219 64 226
f 345 226 228
f 220 219 345
f 346 228 231
f 347 345 346
f 221 220 347
f 348 231 235
f 349 346 348
f 350 347 349
f 222 221 350
f 351 235 240
f 352 348 351
f 353 349 352
f 354 350 353
f 223 222 354
f 355 240 246
f 356 351 355
f 357 352 356
f 358 353 357
f 359 354 358
f 224 223 359
f 360 246 253
f 361 355 360
f 362 356 361
f 363 357 362
f 364 358 363
f 365 359 364
f 225 224 365
f 219 226 345
f 345 228 346
f 220 345 347
f 346 231 348
f 347 346 349
f 221 347 350
f 348 235 351
f 349 348 352
f 350 349 353
f 222 350 354
f 351 240 355
f 352 351 356
f 353 352 357
f 354 353 358
f 223 354 359
f 355 246 360
f 356 355 361
f 357 356 362
f 358 357 363
f 359 358 364
f 224 359 365
f 247 36 254
f 366 254 256
f 248 247 366
f 367 256 259
f 368 366 367
f 249 248 368
f 369 259 263
f 370 367 369
f 371 368 370
f 250 249 371
f 372 263 268
f 373 369 372
f 374 370 373
f 375 371 374
f 251 250 375
f 376 268 274
f 377 372 376
f 378 373 377
f 379 374 378
f 380 375 379
f 252 251 380
f 381 274 281
f 382 376 381
f 383 377 382
f 384 378 383
f 385 379 384
f 386 380 385
f 253 252 386
f 247 254 366
f 366 256 367
f 248 366 368
f 367 259 369
f 368 367 370
f 249 368 371
f 369 263 372
f 370 369 373
f 371 370 374
f 250 371 375
f 372 268 376
f 373 372 377
f 374 373 378
f 375 374 379
f 251 375 380
f 376 274 381
f 377 376 382
f 378 377 383
f 379 378 384
f 380 379 385
f 252 380 386
f 389 387 388
f 391 388 390
f 392 389 391
f 394 390 393
f 395 391 394
f 396 392 395
f 398 393 397
f 399 394 398
f 400 395 399
f 401 396 400
f 403 397 402
f 404 398 403
f 405 399 404
f 406 400 405
f 407 401 406
f 409 402 408
f 410 403 409
f 411 404 410
f 412 405 411
f 413 406 412
f 414 407 413
f 302 408 281
f 301 409 302
f 300 410 301
f 299 411 300
f 298 412 299
f 297 413 298
f 169 414 297
f 389 388 391
f 391 390 394
f 392 391 395
f 394 393 398
f 395 394 399
f 396 395 400
f 398 397 403
f 399 398 404
f 400 399 405
f 401 400 406
f 403 402 409
f 404 403 410
f 405 404 411
f 406 405 412
f 407 406 413
f 409 408 302
f 410 409 301
f 411 410 300
f 412 411 299
f 413 412 298
f 414 413 297
f 388 387 415
f 417 415 416
f 390 388 417
f 419 416 418
f 420 417 419
f 393 390 420
f 422 418 421
f 423 419 422
f 424 420 423
f 397 393 424
f 426 421 425
f 427 422 426
f 428 423 427
f 429 424 428
f 402 397 429
f 431 425 430
f 432 426 431
f 433 427 432
f 434 428 433
f 435 429 434
f 408 402 435
f 386 430 253
f 385 431 386
f 384 432 385
f 383 433 384
f 382 434 383
f 381 435 382
f 281 408 381
f 388 415 417
f 417 416 419
f 390 417 420
f 419 418 422
f 420 419 423
f 393 420 424
f 422 421 426
f 423 422 427
f 424 423 428
f 397 424 429
f 426 425 431
f 427 426 432
f 428 427 433
f 429 428 434
f 402 429 435
f 431 430 386
f 432 431 385
f 433 432 384
f 434 433 383
f 435 434 382
f 408 435 381
f 415 387 436
f 438 436 437
f 416 415 438
f 440 437 439
f 441 438 440
f 418 416 441
f 443 439 442
f 444 440 443
f 445 441 444
f 421 418 445
f 447 442 446
f 448 443 447
f 449 444 448
f 450 445 449
f 425 421 450
f 452 446 451
f 453 447 452
f 454 448 453
f 455 449 454
f 456 450 455
f 430 425 456
f 365 451 225
f 364 452 365
f 363 453 364
f 362 454 363
f 361 455 362
f 360 456 361
f 253 430 360
f 415 436 438
f 438 437 440
f 416 438 441
f 440 439 443
f 441 440 444
f 418 441 445
f 443 442 447
f 444 443 448
f 445 444 449
f 421 445 450
f 447 446 452
f 448 447 453
f 449 448 454
f 450 449 455
f 425 450 456
f 452 451 365
f 453 452 364
f 454 453 363
f 455 454 362
f 456 455 361
f 430 456 360
f 436 387 457
f 459 457 458
f 437 436 459
f 461 458 460
f 462 459 461
f 439 437 462
f 464 460 463
f 465 461 464
f 466 462 465
f 442 439 466
f 468 463 467
f 469 464 468
f 470 465 469
f 471 466 470
f 446 442 471
f 473 467 472
f 474 468 473
f 475 469 474
f 476 470 475
f 477 471 476
f 451 446 477
f 344 472 197
f 343 473 344
f 342 474 343
f 341 475 342
f 340 476 341
f 339 477 340
f 225 451 339
f 436 457 459
f 459 458 461
f 437 459 462
f 461 460 464
f 462 461 465
f 439 462 466
f 464 463 468
f 465 464 469
f 466 465 470
f 442 466 471
f 468 467 473
f 469 468 474
f 470 469 475
f 471 470 476
f 446 471 477
f 473 472 344
f 474 473 343
f 475 474 342
f 476 475 341
f 477 476 340
f 451 477 339
f 457 387 389
f 478 389 392
f 458 457 478
f 479 392 396
f 480 478 479
f 460 458 480
f 481 396 401
f 482 479 481
f 483 480 482
f 463 460 483
f 484 401 407
f 485 481 484
f 486 482 485
f 487 483 486
f 467 463 487
f 488 407 414
f 489 484 488
f 490 485 489
f 491 486 490
f 492 487 491
f 472 467 492
f 323 414 169
f 322 488 323
f 321 489 322
f 320 490 321
f 319 491 320
f 318 492 319
f 197 472 318
f 457 389 478
f 478 392 479
f 458 478 480
f 479 396 481
f 480 479 482
f 460 480 483
f 481 401 484
f 482 481 485
f 483 482 486
f 463 483 487
f 484 407 488
f 485 484 489
f 486 485 490
f 487 486 491
f 467 487 492
f 488 414 323
f 489 488 322
f 490 489 321
f 491 490 320
f 492 491 319
f 472 492 318
