# File exported by Houdini 20.5.445 (www.sidefx.com)
# 492 points
# 2940 vertices
# 980 primitives
# Bounds: [-135.646027, -182.001663, -1077.03552] to [306.419952, 298.378784, -677.765503]
g 
v 74.4570007 107.457626 -1005.42725
v 63.094574 141.904541 -1012.47363
v 95.2312317 110.162582 -994.809204
v 54.1828308 172.613205 -1018.61377
v 87.1903381 146.729507 -1002.00476
v 118.294647 111.37175 -984.793213
v 48.641449 199.964279 -1023.67981
v 82.2472839 178.587189 -1008.5415
v 113.23233 149.568542 -992.140991
v 144.245941 112.926056 -975.366821
v 45.9984436 224.407532 -1026.96313
v 80.0653992 207.330505 -1014.01038
v 111.038483 182.870605 -998.654541
v 141.500885 152.814255 -982.764038
v 172.664703 116.99408 -965.525513
v 45.2854309 245.802933 -1027.72839
v 79.7210388 233.626312 -1017.32422
v 110.951202 213.41481 -1003.49011
v 141.228668 187.965775 -988.651245
v 171.846832 158.415665 -972.483398
v 202.38266 124.766769 -953.639404
v 45.3449402 263.608276 -1024.3208
v 80.0122986 257.050293 -1017.1189
v 111.901886 241.816727 -1005.0979
v 142.565521 220.62706 -991.592896
v 173.211273 195.377808 -976.579834
v 203.473358 167.072327 -959.041138
v 231.64859 135.684448 -938.213745
v 45.0101624 277.337524 -1014.95093
v 79.2724915 276.43689 -1010.8042
v 112.233246 267.197205 -1001.10889
v 144.101532 251.052658 -989.064209
v 175.682465 229.864944 -975.428589
v 206.409332 205.112198 -959.263062
v 234.634735 177.637039 -940.07251
v 258.162689 147.634155 -918.450195
v 98.4441833 71.2714386 -990.462402
v 121.442596 70.8882599 -978.999878
v 121.58847 31.4837265 -974.693481
v 146.286224 70.9629211 -968.796021
v 146.013214 30.5084 -963.546997
v 144.187164 -9.81384659 -958.392578
v 173.532623 73.73703 -958.505005
v 171.937653 32.2491226 -952.938843
v 169.470734 -8.96703339 -947.438965
v 166.33194 -49.7570496 -941.030151
v 202.595978 80.8850555 -946.379883
v 199.834259 38.2983246 -940.699951
v 195.927155 -3.88363266 -935.466064
v 192.24881 -45.6335449 -929.30188
v 188.287018 -85.0097656 -920.810059
v 232.314545 92.7055511 -930.720947
v 229.154327 49.5539055 -924.827148
v 224.101471 6.2111187 -919.896973
v 219.180023 -36.7345428 -914.554565
v 215.155548 -77.3549957 -906.671509
v 210.436127 -113.227112 -896.511963
v 260.879791 107.831406 -910.156616
v 258.757111 65.6515045 -903.459839
v 253.548981 21.7728157 -898.363403
v 247.690216 -22.5430832 -893.78479
v 243.02359 -64.9657593 -887.269043
v 238.456451 -102.741425 -878.680542
v 232.407379 -133.847183 -869.326782
v 71.0688171 81.1166077 -1007.50867
v 96.5122375 39.2577095 -989.918701
v 70.1734924 51.8602791 -1009.28345
v 120.043304 -4.30593491 -971.680664
v 96.8658752 6.20764923 -988.618042
v 71.3927917 20.4502602 -1010.27283
v 142.469879 -47.4672852 -952.762573
v 120.751801 -39.046814 -967.518433
v 98.9398499 -26.987606 -986.300659
v 74.1097717 -11.4530754 -1009.73425
v 164.559479 -87.4025879 -932.115845
v 143.206024 -82.0938263 -945.286743
v 123.097076 -72.2210388 -961.725342
v 102.068695 -58.8452454 -982.165649
v 77.45755 -41.9364853 -1006.22705
v 187.417694 -121.005814 -907.225952
v 165.897858 -120.351593 -919.560059
v 145.861053 -113.843842 -934.760498
v 126.134491 -102.703491 -953.381226
v 104.85672 -87.4525604 -975.289551
v 79.7251282 -68.622818 -999.331055
v 211.432343 -146.553391 -877.930908
v 190.022491 -151.248367 -888.60083
v 169.11734 -149.167358 -902.563477
v 148.886749 -141.413895 -920.4729
v 128.150726 -128.192749 -941.805664
v 105.401825 -110.424469 -965.07605
v 79.2179871 -89.421524 -989.29541
v 47.0202942 123.731949 -1020.85315
v 43.0168152 95.7879791 -1025.8241
v 19.3575134 135.170776 -1035.0033
v 42.1777649 65.5796814 -1030.47729
v 15.1848755 105.358093 -1042.60999
v -8.3163147 142.1241 -1046.7323
v 43.521637 33.9412766 -1033.71619
v 14.2079163 74.3687134 -1049.65027
v -12.8657227 110.97551 -1056.79797
v -35.7266235 144.807343 -1055.52515
v 46.4259949 2.00029755 -1033.58557
v 15.3320618 42.5197029 -1053.84045
v -14.4479675 79.4557953 -1065.35999
v -40.899353 112.981155 -1067.22742
v -61.6283569 143.58699 -1060.0575
v 49.5289612 -28.4754372 -1029.15173
v 17.6654968 10.6579304 -1053.25208
v -14.1063538 47.6098175 -1069.3158
v -43.3313599 81.4609985 -1075.43689
v -67.4707947 111.938507 -1071.3623
v -84.4468994 139.388016 -1058.63794
v 50.7628479 -55.2331467 -1020.02856
v 19.4137878 -19.5557594 -1046.97058
v -13.1765747 16.0431614 -1066.91711
v -44.2679138 49.9256401 -1077.03552
v -70.8275452 80.9242859 -1076.45923
v -90.677063 108.722168 -1066.52991
v -103.164154 133.648804 -1050.15198
v 32.2174377 158.349075 -1026.98584
v 2.86026001 168.404633 -1037.87012
v 21.603302 187.257004 -1031.06409
v -25.2882996 172.912231 -1045.19385
v -8.17053223 194.666885 -1038.21423
v 15.3146362 211.705597 -1033.2782
v -52.0203552 172.40596 -1048.73608
v -36.0859375 196.084564 -1040.99878
v -14.6843872 215.959427 -1036.46289
v 12.1548157 232.632706 -1033.23682
v -76.5697021 167.679688 -1047.29321
v -62.2309265 192.363068 -1038.87695
v -42.5140686 214.230545 -1033.98535
v -18.0279541 233.658463 -1031.59204
v 11.3215027 250.318649 -1029.68701
v -98.177887 160.045029 -1039.41833
v -86.4575195 184.644989 -1030.55652
v -68.8410645 207.636429 -1024.98071
v -46.2054749 229.060059 -1022.50293
v -19.1676025 248.410843 -1021.74976
v 11.6842346 264.764465 -1020.4126
v 22.7259827 279.519897 -1003.99329
v -13.5910339 262.615967 -1006.62048
v -0.0983276367 276.766479 -987.572998
v -45.081665 242.519928 -1006.71057
v -37.7503967 256.225037 -988.966309
v -22.6310425 270.423767 -968.25061
v -71.4129333 220.38504 -1007.5177
v -68.6678162 233.562973 -989.114258
v -60.1365356 247.618637 -969.528809
v -43.4095154 261.097717 -947.140625
v -92.6231079 196.919418 -1010.92297
v -93.6388245 209.733719 -990.719116
v -89.762085 223.55101 -970.210938
v -79.4328308 237.206009 -948.582031
v -61.4603882 249.201096 -924.701416
v -107.974701 171.89859 -1018.06799
v -112.672028 184.421631 -995.473389
v -112.58374 198.161804 -972.740723
v -106.798401 212.030792 -949.698242
v -94.8464355 225.029205 -926.145386
v -76.4473877 235.178024 -901.439697
v -116.165771 144.558853 -1028.74951
v -124.541443 156.587463 -1004.15222
v -128.229706 170.275497 -978.397095
v -126.295319 184.541321 -952.33667
v -118.757812 198.539627 -926.694092
v -105.737885 210.616898 -901.858521
v -87.7289734 218.707443 -877.79248
v -111.495361 113.258453 -1047.0968
v -95.4188843 84.0045471 -1064.52136
v -114.711914 93.0602722 -1039.80017
v -72.2723083 53.1121941 -1073.01343
v -95.0256653 60.0449715 -1056.73865
v -113.459198 73.4691467 -1028.21411
v -43.1846008 20.3011513 -1070.30298
v -69.2922974 26.8955574 -1062.32959
v -90.8188782 37.675396 -1042.65564
v -108.482056 55.5312462 -1011.43359
v -10.2836914 -14.1082268 -1055.67334
v -38.7011719 -6.90410233 -1055.10864
v -63.4243164 3.31074905 -1043.75085
v -83.8340454 18.3482056 -1021.40857
v -100.216217 39.784977 -988.744873
v 23.9758606 -49.3829498 -1030.34204
v -4.65673828 -41.5634918 -1034.7782
v -31.7421265 -31.0047379 -1030.55188
v -55.1565857 -16.6088867 -1016.31604
v -74.246521 2.33578873 -992.519043
v -88.8009033 25.4698792 -960.826416
v 57.6142883 -84.5933685 -997.019287
v 31.5571594 -76.9189758 -1002.48755
v 3.99530029 -66.0772018 -1002.72241
v -21.8323975 -51.4788742 -995.249023
v -43.8337402 -33.1622238 -979.504272
v -61.1462097 -11.8073883 -956.749268
v -73.710907 11.8820915 -929.264526
v 93.296051 -117.440155 -960.822876
v 122.31485 -140.63588 -932.807129
v 104.981903 -138.288971 -929.429321
v 147.2565 -157.693237 -906.882812
v 136.521271 -160.169235 -898.744507
v 114.750519 -150.159439 -895.616943
v 169.975372 -168.096237 -885.038086
v 163.799103 -174.158951 -872.322388
v 149.074249 -168.381012 -864.089722
v 123.864532 -153.071472 -860.325684
v 192.7435 -172.066269 -867.982056
v 189.725128 -180.880539 -851.331787
v 179.46994 -178.64119 -838.887085
v 161.172943 -166.930176 -829.962158
v 133.794281 -148.673462 -824.974609
v 216.388336 -169.119766 -855.542603
v 216.15744 -180.90033 -836.095215
v 209.398651 -182.001663 -819.908447
v 195.115265 -173.883179 -806.944336
v 173.47403 -158.43486 -796.970337
v 144.595917 -138.380875 -790.849976
v 240.051605 -157.231064 -846.476318
v 243.322113 -172.01387 -825.22522
v 240.028778 -177.352295 -806.477661
v 228.801178 -173.37384 -790.07373
v 209.900665 -161.474304 -776.24707
v 184.804962 -143.853806 -765.615967
v 155.223358 -123.09436 -759.471436
v 257.378448 -129.301086 -847.185059
v 263.936005 -91.7284088 -855.925171
v 278.969086 -116.563507 -825.498901
v 268.408966 -48.6346054 -863.450684
v 284.382355 -73.2918091 -833.503906
v 294.49118 -97.3011322 -804.572998
v 273.365509 -2.70649338 -868.911499
v 287.998077 -26.4379005 -839.86853
v 298.29837 -50.1676788 -811.501099
v 301.424042 -73.5979233 -784.592896
v 279.308929 43.8633728 -873.465942
v 292.623627 21.6502838 -844.472168
v 301.075592 -1.27328491 -816.566528
v 303.994598 -24.4949226 -790.016724
v 299.051727 -46.8815536 -765.670044
v 283.335724 89.7105408 -879.921753
v 297.347198 69.8656158 -849.682373
v 304.66684 48.1867638 -820.772217
v 305.879547 25.444931 -793.759277
v 300.718048 2.92292023 -769.338135
v 289.283478 -17.6096039 -748.009521
v 282.209015 134.298157 -889.307739
v 298.206329 117.957413 -858.189087
v 306.134064 98.4043427 -827.372681
v 306.419952 76.5618439 -798.442749
v 300.15274 54.1450233 -772.524658
v 289.041229 32.8838654 -750.470215
v 274.636932 14.3981018 -732.369629
v 266.657684 177.092377 -909.516235
v 239.631134 209.000473 -933.083252
v 267.635101 202.518082 -898.511841
v 208.243073 235.925446 -952.40271
v 237.022797 234.199371 -922.813965
v 260.365265 223.06485 -885.218506
v 174.735992 258.24585 -967.764771
v 202.800751 258.997925 -941.507202
v 227.065704 252.974045 -909.347656
v 245.70871 238.531631 -870.447266
v 140.19577 275.489014 -980.493164
v 166.385529 277.957947 -955.855835
v 190.327118 274.689819 -927.042725
v 210.269135 265.43866 -893.4552
v 224.461578 248.67601 -854.713013
v 104.324066 286.415771 -991.535767
v 128.04483 290.932922 -967.638306
v 150.627289 289.881775 -940.313721
v 170.897736 283.469543 -909.612061
v 187.198639 271.388367 -875.466309
v 197.787323 253.395248 -837.926025
v 65.8332825 289.112061 -998.965088
v 86.6584167 296.489319 -977.256104
v 107.201935 298.378784 -950.902466
v 126.952484 294.442444 -921.299316
v 144.479218 285.103943 -889.278564
v 158.221588 271.08844 -855.421265
v 167.615143 253.317947 -820.511353
v 42.7532043 291.44342 -984.340576
v 19.973114 288.136108 -965.176758
v 62.7238464 297.758179 -959.670532
v -2.01309204 280.515503 -943.879639
v 39.9584045 292.800964 -938.667358
v 82.3715515 297.588867 -930.764893
v -22.5250244 268.762634 -920.721802
v 17.9491272 282.716003 -915.589233
v 58.9993591 290.346313 -907.948486
v 100.831268 290.923645 -898.392822
v -41.6062622 253.200424 -895.843384
v -3.54574585 267.187866 -890.071899
v 35.9428406 276.674561 -882.385498
v 76.1598206 280.555115 -872.778931
v 117.071869 278.33075 -863.292236
v -58.7651367 234.020493 -869.391846
v -24.7944336 246.567093 -861.687866
v 12.5000305 256.413513 -853.093872
v 51.6463318 262.762024 -843.199097
v 91.4079285 264.366394 -833.436279
v 130.5242 260.936218 -825.785645
v -125.338196 125.974869 -1019.68188
v -128.387695 108.759293 -1007.672
v -133.548187 140.39505 -989.986328
v -126.141296 92.2428741 -992.200073
v -135.154205 125.226166 -973.551392
v -135.646027 155.514618 -959.470337
v -119.277618 76.4586182 -972.133179
v -130.867645 110.212585 -954.05603
v -135.271027 141.538605 -938.770996
v -131.798584 170.82074 -929.130005
v -108.163452 60.7844582 -947.143188
v -121.383514 94.4489288 -930.603394
v -128.628113 126.592896 -915.294067
v -129.233582 156.953629 -904.308105
v -122.004486 184.989197 -899.652832
v -92.0437927 44.4345589 -917.601807
v -105.984222 76.9700928 -902.695068
v -115.375336 109.300156 -887.97168
v -119.274536 140.686615 -876.544067
v -116.38382 169.909882 -870.632446
v -105.84967 195.939651 -871.271851
v 69.0589905 -109.862366 -965.149414
v 77.565033 -126.117859 -931.203369
v 41.3051453 -98.573349 -967.021484
v 84.7722473 -133.791977 -895.196655
v 48.4722595 -110.825516 -929.956055
v 13.5117798 -83.5956116 -963.675659
v 93.0255432 -133.909332 -857.076538
v 55.4735413 -115.6008 -890.884155
v 21.1111145 -92.5258484 -923.269775
v -11.6001587 -64.9490051 -953.355591
v 103.754486 -126.902222 -817.939087
v 64.8005676 -112.752335 -849.268555
v 29.5133362 -93.9205933 -880.664673
v -2.36999512 -70.1674042 -909.941528
v -32.3925781 -42.4924622 -935.824585
v 116.917023 -112.659546 -778.898438
v 78.3380432 -101.382416 -805.52417
v 41.9066467 -86.5527496 -834.925415
v 9.12597656 -66.7232361 -863.650024
v -20.6371155 -42.6675568 -889.823242
v -48.4920349 -16.0279541 -911.996704
v 265.659332 -150.732697 -821.815186
v 284.64505 -135.938232 -799.714111
v 266.581757 -162.108078 -799.977295
v 294.324066 -115.045792 -779.644653
v 280.114655 -144.821014 -778.318481
v 258.297394 -163.800964 -780.817749
v 293.551544 -89.1639709 -761.016724
v 282.639862 -121.498093 -758.91394
v 265.1315 -143.53595 -759.011841
v 240.826202 -156.157639 -763.40332
v 283.862579 -58.2926636 -743.306396
v 275.098236 -91.7518158 -740.685181
v 261.178009 -116.373428 -739.371704
v 241.275848 -131.993454 -740.715698
v 215.534271 -140.394577 -748.323975
v 268.367645 -21.7113266 -726.456055
v 259.908966 -54.0231552 -722.941284
v 247.968781 -80.2268829 -720.863647
v 231.250397 -98.8774719 -720.460571
v 209.558624 -110.846405 -724.833008
v 183.793488 -118.172104 -737.232422
v 289.032684 163.109009 -875.084229
v 285.584015 186.057785 -860.093262
v 300.525482 145.246887 -840.488525
v 273.124908 204.182114 -844.751831
v 291.446075 166.184998 -823.529663
v 302.245819 124.261826 -807.841309
v 252.731415 218.211426 -829.455811
v 273.163727 183.197205 -807.44043
v 287.235077 144.384827 -790.105469
v 295.768158 101.743958 -778.251221
v 225.371979 227.876572 -813.612671
v 246.922821 196.908051 -791.548584
v 263.332245 161.328354 -773.294189
v 275.222626 121.986969 -760.046509
v 283.219147 79.2868347 -752.310181
v 192.329681 232.740601 -796.624756
v 213.372711 206.768173 -774.599731
v 231.228851 175.349548 -755.971924
v 245.897797 139.333313 -742.042725
v 257.343414 99.8908844 -733.426025
v 266.772552 57.8601418 -730.430298
v 68.6127625 106.945831 -698.953003
v 76.7486877 136.274094 -694.166016
v 34.4772644 126.497742 -715.615723
v 86.651825 162.617065 -698.62561
v 42.4272766 157.374298 -714.461182
v 1.88760376 144.366928 -737.312378
v 99.4248962 185.626373 -712.036377
v 54.2071228 183.768021 -723.822266
v 11.9945374 175.255432 -740.909668
v -26.6698608 161.787079 -762.683472
v 115.151215 205.566299 -732.796509
v 70.0867004 206.547836 -741.621826
v 27.0925598 201.185669 -754.895752
v -13.0071716 191.87529 -771.115601
v -49.7731934 178.975647 -790.251831
v 132.964996 222.967316 -758.985596
v 89.2326965 226.693314 -765.569458
v 46.4356384 223.986145 -776.121216
v 5.59967041 217.279694 -789.144287
v -32.4994812 207.737259 -803.155762
v -67.0693359 195.181168 -819.009033
v 151.16568 238.898422 -788.734131
v 110.118744 244.767929 -793.942749
v 68.5221863 244.985855 -802.556396
v 27.7398376 240.483826 -813.541504
v -11.1999207 232.640427 -824.88147
v -47.2819824 222.278244 -836.076172
v -79.3176575 208.917389 -848.365234
v 106.513702 102.731247 -683.821655
v 141.525848 93.3089905 -677.765503
v 117.024384 132.527679 -683.09668
v 173.101715 78.9095612 -679.835449
v 152.531219 122.888931 -681.935791
v 128.261261 157.875 -691.902466
v 201.636566 61.2051735 -687.996704
v 184.237701 108.489578 -688.046997
v 164.110443 147.468521 -694.654541
v 141.608978 179.360809 -708.926514
v 227.995392 42.955658 -700.116211
v 213.302094 91.341507 -698.837036
v 196.624725 133.103714 -703.524292
v 178.113129 168.436996 -714.586182
v 157.419525 198.027573 -732.782715
v 252.592926 26.7996712 -714.954346
v 240.790924 73.7630157 -712.926147
v 227.550995 116.565536 -716.505127
v 212.271027 154.556686 -725.979126
v 194.77713 187.621094 -741.284668
v 174.83847 215.614151 -762.359863
v 84.3179016 73.6602173 -698.893188
v 98.249054 38.0441055 -702.733032
v 123.994293 64.2052307 -684.108398
v 109.484222 1.55887985 -708.178467
v 138.254913 24.4991302 -688.539185
v 158.67038 49.4205933 -680.053467
v 119.365204 -34.048233 -715.341919
v 149.663605 -14.7969284 -694.789673
v 172.592072 5.90987587 -686.29248
v 189.251862 30.778492 -684.204346
v 129.980621 -67.2074738 -725.847168
v 160.261322 -52.2303162 -703.855225
v 184.60849 -35.8378983 -694.720337
v 203.296783 -15.3761597 -692.606812
v 217.1633 10.7496834 -694.237671
v 142.180084 -97.0195923 -740.715942
v 171.596344 -86.8577423 -717.723633
v 196.569061 -74.9012909 -706.978394
v 216.730682 -58.694664 -704.18689
v 232.084381 -36.4264297 -705.266479
v 243.552704 -7.62387848 -708.495728
v 39.8183899 88.5220032 -721.08667
v 12.1874695 69.9559631 -749.751343
v 54.7841492 51.9806023 -725.662231
v -13.0882874 53.1179543 -782.165527
v 26.9520569 31.5247688 -758.213989
v 67.2302551 15.427021 -732.429199
v -35.2042236 39.0088768 -816.732422
v 1.81350708 14.2233791 -793.665161
v 38.8158264 -5.11835098 -767.451904
v 77.4422913 -20.2252693 -739.803467
v -53.2529907 27.8742065 -852.981812
v -19.8550415 0.791488647 -831.039185
v 14.0574036 -21.8408012 -805.378418
v 49.4333191 -39.814209 -777.253052
v 87.8666687 -53.8990707 -749.120728
v -66.3186951 19.1722851 -890.738647
v -37.0303345 -8.98076248 -870.400391
v -6.15985107 -34.2261314 -845.909424
v 26.2398376 -55.5207367 -818.431885
v 61.7554016 -72.0153885 -789.528442
v 100.793304 -84.7984314 -761.936035
v 2.35693359 108.480652 -741.547485
v -30.8902893 127.619568 -764.244263
v -25.5958252 91.9068298 -771.638794
v -58.6688538 146.722534 -788.42688
v -57.5898132 113.004379 -793.80835
v -49.3132935 77.4045715 -803.988281
v -80.2340393 165.457947 -814.007202
v -83.370697 133.685715 -816.874878
v -78.8479309 100.14119 -825.716675
v -68.5695496 65.0087128 -838.588135
v -95.6842346 182.48732 -841.430542
v -102.842224 153.217804 -841.991821
v -102.055908 121.557404 -849.201416
v -94.9885254 88.3862915 -861.392578
v -83.0097961 54.3027 -876.29248
g 
f 3 1 2
f 5 2 4
f 6 3 5
f 8 4 7
f 9 5 8
f 10 6 9
f 12 7 11
f 13 8 12
f 14 9 13
f 15 10 14
f 17 11 16
f 18 12 17
f 19 13 18
f 20 14 19
f 21 15 20
f 23 16 22
f 24 17 23
f 25 18 24
f 26 19 25
f 27 20 26
f 28 21 27
f 30 22 29
f 31 23 30
f 32 24 31
f 33 25 32
f 34 26 33
f 35 27 34
f 36 28 35
f 3 2 5
f 5 4 8
f 6 5 9
f 8 7 12
f 9 8 13
f 10 9 14
f 12 11 17
f 13 12 18
f 14 13 19
f 15 14 20
f 17 16 23
f 18 17 24
f 19 18 25
f 20 19 26
f 21 20 27
f 23 22 30
f 24 23 31
f 25 24 32
f 26 25 33
f 27 26 34
f 28 27 35
f 37 1 3
f 38 3 6
f 39 37 38
f 40 6 10
f 41 38 40
f 42 39 41
f 43 10 15
f 44 40 43
f 45 41 44
f 46 42 45
f 47 15 21
f 48 43 47
f 49 44 48
f 50 45 49
f 51 46 50
f 52 21 28
f 53 47 52
f 54 48 53
f 55 49 54
f 56 50 55
f 57 51 56
f 58 28 36
f 59 52 58
f 60 53 59
f 61 54 60
f 62 55 61
f 63 56 62
f 64 57 63
f 37 3 38
f 38 6 40
f 39 38 41
f 40 10 43
f 41 40 44
f 42 41 45
f 43 15 47
f 44 43 48
f 45 44 49
f 46 45 50
f 47 21 52
f 48 47 53
f 49 48 54
f 50 49 55
f 51 50 56
f 52 28 58
f 53 52 59
f 54 53 60
f 55 54 61
f 56 55 62
f 57 56 63
f 65 1 37
f 66 37 39
f 67 65 66
f 68 39 42
f 69 66 68
f 70 67 69
f 71 42 46
f 72 68 71
f 73 69 72
f 74 70 73
f 75 46 51
f 76 71 75
f 77 72 76
f 78 73 77
f 79 74 78
f 80 51 57
f 81 75 80
f 82 76 81
f 83 77 82
f 84 78 83
f 85 79 84
f 86 57 64
f 87 80 86
f 88 81 87
f 89 82 88
f 90 83 89
f 91 84 90
f 92 85 91
f 65 37 66
f 66 39 68
f 67 66 69
f 68 42 71
f 69 68 72
f 70 69 73
f 71 46 75
f 72 71 76
f 73 72 77
f 74 73 78
f 75 51 80
f 76 75 81
f 77 76 82
f 78 77 83
f 79 78 84
f 80 57 86
f 81 80 87
f 82 81 88
f 83 82 89
f 84 83 90
f 85 84 91
f 93 1 65
f 94 65 67
f 95 93 94
f 96 67 70
f 97 94 96
f 98 95 97
f 99 70 74
f 100 96 99
f 101 97 100
f 102 98 101
f 103 74 79
f 104 99 103
f 105 100 104
f 106 101 105
f 107 102 106
f 108 79 85
f 109 103 108
f 110 104 109
f 111 105 110
f 112 106 111
f 113 107 112
f 114 85 92
f 115 108 114
f 116 109 115
f 117 110 116
f 118 111 117
f 119 112 118
f 120 113 119
f 93 65 94
f 94 67 96
f 95 94 97
f 96 70 99
f 97 96 100
f 98 97 101
f 99 74 103
f 100 99 104
f 101 100 105
f 102 101 106
f 103 79 108
f 104 103 109
f 105 104 110
f 106 105 111
f 107 106 112
f 108 85 114
f 109 108 115
f 110 109 116
f 111 110 117
f 112 111 118
f 113 112 119
f 2 1 93
f 121 93 95
f 4 2 121
f 122 95 98
f 123 121 122
f 7 4 123
f 124 98 102
f 125 122 124
f 126 123 125
f 11 7 126
f 127 102 107
f 128 124 127
f 129 125 128
f 130 126 129
f 16 11 130
f 131 107 113
f 132 127 131
f 133 128 132
f 134 129 133
f 135 130 134
f 22 16 135
f 136 113 120
f 137 131 136
f 138 132 137
f 139 133 138
f 140 134 139
f 141 135 140
f 29 22 141
f 2 93 121
f 121 95 122
f 4 121 123
f 122 98 124
f 123 122 125
f 7 123 126
f 124 102 127
f 125 124 128
f 126 125 129
f 11 126 130
f 127 107 131
f 128 127 132
f 129 128 133
f 130 129 134
f 16 130 135
f 131 113 136
f 132 131 137
f 133 132 138
f 134 133 139
f 135 134 140
f 22 135 141
f 142 29 141
f 143 141 140
f 144 142 143
f 145 140 139
f 146 143 145
f 147 144 146
f 148 139 138
f 149 145 148
f 150 146 149
f 151 147 150
f 152 138 137
f 153 148 152
f 154 149 153
f 155 150 154
f 156 151 155
f 157 137 136
f 158 152 157
f 159 153 158
f 160 154 159
f 161 155 160
f 162 156 161
f 163 136 120
f 164 157 163
f 165 158 164
f 166 159 165
f 167 160 166
f 168 161 167
f 169 162 168
f 142 141 143
f 143 140 145
f 144 143 146
f 145 139 148
f 146 145 149
f 147 146 150
f 148 138 152
f 149 148 153
f 150 149 154
f 151 150 155
f 152 137 157
f 153 152 158
f 154 153 159
f 155 154 160
f 156 155 161
f 157 136 163
f 158 157 164
f 159 158 165
f 160 159 166
f 161 160 167
f 162 161 168
f 170 120 119
f 171 119 118
f 172 170 171
f 173 118 117
f 174 171 173
f 175 172 174
f 176 117 116
f 177 173 176
f 178 174 177
f 179 175 178
f 180 116 115
f 181 176 180
f 182 177 181
f 183 178 182
f 184 179 183
f 185 115 114
f 186 180 185
f 187 181 186
f 188 182 187
f 189 183 188
f 190 184 189
f 191 114 92
f 192 185 191
f 193 186 192
f 194 187 193
f 195 188 194
f 196 189 195
f 197 190 196
f 170 119 171
f 171 118 173
f 172 171 174
f 173 117 176
f 174 173 177
f 175 174 178
f 176 116 180
f 177 176 181
f 178 177 182
f 179 178 183
f 180 115 185
f 181 180 186
f 182 181 187
f 183 182 188
f 184 183 189
f 185 114 191
f 186 185 192
f 187 186 193
f 188 187 194
f 189 188 195
f 190 189 196
f 198 92 91
f 199 91 90
f 200 198 199
f 201 90 89
f 202 199 201
f 203 200 202
f 204 89 88
f 205 201 204
f 206 202 205
f 207 203 206
f 208 88 87
f 209 204 208
f 210 205 209
f 211 206 210
f 212 207 211
f 213 87 86
f 214 208 213
f 215 209 214
f 216 210 215
f 217 211 216
f 218 212 217
f 219 86 64
f 220 213 219
f 221 214 220
f 222 215 221
f 223 216 222
f 224 217 223
f 225 218 224
f 198 91 199
f 199 90 201
f 200 199 202
f 201 89 204
f 202 201 205
f 203 202 206
f 204 88 208
f 205 204 209
f 206 205 210
f 207 206 211
f 208 87 213
f 209 208 214
f 210 209 215
f 211 210 216
f 212 211 217
f 213 86 219
f 214 213 220
f 215 214 221
f 216 215 222
f 217 216 223
f 218 217 224
f 226 64 63
f 227 63 62
f 228 226 227
f 229 62 61
f 230 227 229
f 231 228 230
f 232 61 60
f 233 229 232
f 234 230 233
f 235 231 234
f 236 60 59
f 237 232 236
f 238 233 237
f 239 234 238
f 240 235 239
f 241 59 58
f 242 236 241
f 243 237 242
f 244 238 243
f 245 239 244
f 246 240 245
f 247 58 36
f 248 241 247
f 249 242 248
f 250 243 249
f 251 244 250
f 252 245 251
f 253 246 252
f 226 63 227
f 227 62 229
f 228 227 230
f 229 61 232
f 230 229 233
f 231 230 234
f 232 60 236
f 233 232 237
f 234 233 238
f 235 234 239
f 236 59 241
f 237 236 242
f 238 237 243
f 239 238 244
f 240 239 245
f 241 58 247
f 242 241 248
f 243 242 249
f 244 243 250
f 245 244 251
f 246 245 252
f 254 36 35
f 255 35 34
f 256 254 255
f 257 34 33
f 258 255 257
f 259 256 258
f 260 33 32
f 261 257 260
f 262 258 261
f 263 259 262
f 264 32 31
f 265 260 264
f 266 261 265
f 267 262 266
f 268 263 267
f 269 31 30
f 270 264 269
f 271 265 270
f 272 266 271
f 273 267 272
f 274 268 273
f 275 30 29
f 276 269 275
f 277 270 276
f 278 271 277
f 279 272 278
f 280 273 279
f 281 274 280
f 254 35 255
f 255 34 257
f 256 255 258
f 257 33 260
f 258 257 261
f 259 258 262
f 260 32 264
f 261 260 265
f 262 261 266
f 263 262 267
f 264 31 269
f 265 264 270
f 266 265 271
f 267 266 272
f 268 267 273
f 269 30 275
f 270 269 276
f 271 270 277
f 272 271 278
f 273 272 279
f 274 273 280
f 275 29 142
f 282 142 144
f 276 275 282
f 283 144 147
f 284 282 283
f 277 276 284
f 285 147 151
f 286 283 285
f 287 284 286
f 278 277 287
f 288 151 156
f 289 285 288
f 290 286 289
f 291 287 290
f 279 278 291
f 292 156 162
f 293 288 292
f 294 289 293
f 295 290 294
f 296 291 295
f 280 279 296
f 297 162 169
f 298 292 297
f 299 293 298
f 300 294 299
f 301 295 300
f 302 296 301
f 281 280 302
f 275 142 282
f 282 144 283
f 276 282 284
f 283 147 285
f 284 283 286
f 277 284 287
f 285 151 288
f 286 285 289
f 287 286 290
f 278 287 291
f 288 156 292
f 289 288 293
f 290 289 294
f 291 290 295
f 279 291 296
f 292 162 297
f 293 292 298
f 294 293 299
f 295 294 300
f 296 295 301
f 280 296 302
f 163 120 170
f 303 170 172
f 164 163 303
f 304 172 175
f 305 303 304
f 165 164 305
f 306 175 179
f 307 304 306
f 308 305 307
f 166 165 308
f 309 179 184
f 310 306 309
f 311 307 310
f 312 308 311
f 167 166 312
f 313 184 190
f 314 309 313
f 315 310 314
f 316 311 315
f 317 312 316
f 168 167 317
f 318 190 197
f 319 313 318
f 320 314 319
f 321 315 320
f 322 316 321
f 323 317 322
f 169 168 323
f 163 170 303
f 303 172 304
f 164 303 305
f 304 175 306
f 305 304 307
f 165 305 308
f 306 179 309
f 307 306 310
f 308 307 311
f 166 308 312
f 309 184 313
f 310 309 314
f 311 310 315
f 312 311 316
f 167 312 317
f 313 190 318
f 314 313 319
f 315 314 320
f 316 315 321
f 317 316 322
f 168 317 323
f 191 92 198
f 324 198 200
f 192 191 324
f 325 200 203
f 326 324 325
f 193 192 326
f 327 203 207
f 328 325 327
f 329 326 328
f 194 193 329
f 330 207 212
f 331 327 330
f 332 328 331
f 333 329 332
f 195 194 333
f 334 212 218
f 335 330 334
f 336 331 335
f 337 332 336
f 338 333 337
f 196 195 338
f 339 218 225
f 340 334 339
f 341 335 340
f 342 336 341
f 343 337 342
f 344 338 343
f 197 196 344
f 191 198 324
f 324 200 325
f 192 324 326
f 325 203 327
f 326 325 328
f 193 326 329
f 327 207 330
f 328 327 331
f 329 328 332
f 194 329 333
f 330 212 334
f 331 330 335
f 332 331 336
f 333 332 337
f 195 333 338
f 334 218 339
f 335 334 340
f 336 335 341
f 337 336 342
f 338 337 343
f 196 338 344
f 219 64 226
f 345 226 228
f 220 219 345
f 346 228 231
f 347 345 346
f 221 220 347
f 348 231 235
f 349 346 348
f 350 347 349
f 222 221 350
f 351 235 240
f 352 348 351
f 353 349 352
f 354 350 353
f 223 222 354
f 355 240 246
f 356 351 355
f 357 352 356
f 358 353 357
f 359 354 358
f 224 223 359
f 360 246 253
f 361 355 360
f 362 356 361
f 363 357 362
f 364 358 363
f 365 359 364
f 225 224 365
f 219 226 345
f 345 228 346
f 220 345 347
f 346 231 348
f 347 346 349
f 221 347 350
f 348 235 351
f 349 348 352
f 350 349 353
f 222 350 354
f 351 240 355
f 352 351 356
f 353 352 357
f 354 353 358
f 223 354 359
f 355 246 360
f 356 355 361
f 357 356 362
f 358 357 363
f 359 358 364
f 224 359 365
f 247 36 254
f 366 254 256
f 248 247 366
f 367 256 259
f 368 366 367
f 249 248 368
f 369 259 263
f 370 367 369
f 371 368 370
f 250 249 371
f 372 263 268
f 373 369 372
f 374 370 373
f 375 371 374
f 251 250 375
f 376 268 274
f 377 372 376
f 378 373 377
f 379 374 378
f 380 375 379
f 252 251 380
f 381 274 281
f 382 376 381
f 383 377 382
f 384 378 383
f 385 379 384
f 386 380 385
f 253 252 386
f 247 254 366
f 366 256 367
f 248 366 368
f 367 259 369
f 368 367 370
f 249 368 371
f 369 263 372
f 370 369 373
f 371 370 374
f 250 371 375
f 372 268 376
f 373 372 377
f 374 373 378
f 375 374 379
f 251 375 380
f 376 274 381
f 377 376 382
f 378 377 383
f 379 378 384
f 380 379 385
f 252 380 386
f 389 387 388
f 391 388 390
f 392 389 391
f 394 390 393
f 395 391 394
f 396 392 395
f 398 393 397
f 399 394 398
f 400 395 399
f 401 396 400
f 403 397 402
f 404 398 403
f 405 399 404
f 406 400 405
f 407 401 406
f 409 402 408
f 410 403 409
f 411 404 410
f 412 405 411
f 413 406 412
f 414 407 413
f 302 408 281
f 301 409 302
f 300 410 301
f 299 411 300
f 298 412 299
f 297 413 298
f 169 414 297
f 389 388 391
f 391 390 394
f 392 391 395
f 394 393 398
f 395 394 399
f 396 395 400
f 398 397 403
f 399 398 404
f 400 399 405
f 401 400 406
f 403 402 409
f 404 403 410
f 405 404 411
f 406 405 412
f 407 406 413
f 409 408 302
f 410 409 301
f 411 410 300
f 412 411 299
f 413 412 298
f 414 413 297
f 388 387 415
f 417 415 416
f 390 388 417
f 419 416 418
f 420 417 419
f 393 390 420
f 422 418 421
f 423 419 422
f 424 420 423
f 397 393 424
f 426 421 425
f 427 422 426
f 428 423 427
f 429 424 428
f 402 397 429
f 431 425 430
f 432 426 431
f 433 427 432
f 434 428 433
f 435 429 434
f 408 402 435
f 386 430 253
f 385 431 386
f 384 432 385
f 383 433 384
f 382 434 383
f 381 435 382
f 281 408 381
f 388 415 417
f 417 416 419
f 390 417 420
f 419 418 422
f 420 419 423
f 393 420 424
f 422 421 426
f 423 422 427
f 424 423 428
f 397 424 429
f 426 425 431
f 427 426 432
f 428 427 433
f 429 428 434
f 402 429 435
f 431 430 386
f 432 431 385
f 433 432 384
f 434 433 383
f 435 434 382
f 408 435 381
f 415 387 436
f 438 436 437
f 416 415 438
f 440 437 439
f 441 438 440
f 418 416 441
f 443 439 442
f 444 440 443
f 445 441 444
f 421 418 445
f 447 442 446
f 448 443 447
f 449 444 448
f 450 445 449
f 425 421 450
f 452 446 451
f 453 447 452
f 454 448 453
f 455 449 454
f 456 450 455
f 430 425 456
f 365 451 225
f 364 452 365
f 363 453 364
f 362 454 363
f 361 455 362
f 360 456 361
f 253 430 360
f 415 436 438
f 438 437 440
f 416 438 441
f 440 439 443
f 441 440 444
f 418 441 445
f 443 442 447
f 444 443 448
f 445 444 449
f 421 445 450
f 447 446 452
f 448 447 453
f 449 448 454
f 450 449 455
f 425 450 456
f 452 451 365
f 453 452 364
f 454 453 363
f 455 454 362
f 456 455 361
f 430 456 360
f 436 387 457
f 459 457 458
f 437 436 459
f 461 458 460
f 462 459 461
f 439 437 462
f 464 460 463
f 465 461 464
f 466 462 465
f 442 439 466
f 468 463 467
f 469 464 468
f 470 465 469
f 471 466 470
f 446 442 471
f 473 467 472
f 474 468 473
f 475 469 474
f 476 470 475
f 477 471 476
f 451 446 477
f 344 472 197
f 343 473 344
f 342 474 343
f 341 475 342
f 340 476 341
f 339 477 340
f 225 451 339
f 436 457 459
f 459 458 461
f 437 459 462
f 461 460 464
f 462 461 465
f 439 462 466
f 464 463 468
f 465 464 469
f 466 465 470
f 442 466 471
f 468 467 473
f 469 468 474
f 470 469 475
f 471 470 476
f 446 471 477
f 473 472 344
f 474 473 343
f 475 474 342
f 476 475 341
f 477 476 340
f 451 477 339
f 457 387 389
f 478 389 392
f 458 457 478
f 479 392 396
f 480 478 479
f 460 458 480
f 481 396 401
f 482 479 481
f 483 480 482
f 463 460 483
f 484 401 407
f 485 481 484
f 486 482 485
f 487 483 486
f 467 463 487
f 488 407 414
f 489 484 488
f 490 485 489
f 491 486 490
f 492 487 491
f 472 467 492
f 323 414 169
f 322 488 323
f 321 489 322
f 320 490 321
f 319 491 320
f 318 492 319
f 197 472 318
f 457 389 478
f 478 392 479
f 458 478 480
f 479 396 481
f 480 479 482
f 460 480 483
f 481 401 484
f 482 481 485
f 483 482 486
f 463 483 487
f 484 407 488
f 485 484 489
f 486 485 490
f 487 486 491
f 467 487 492
f 488 414 323
f 489 488 322
f 490 489 321
f 491 490 320
f 492 491 319
f 472 492 318
