# File exported by Houdini 20.5.445 (www.sidefx.com)
# 492 points
# 2940 vertices
# 980 primitives
# Bounds: [-92.0644836, -160.534576, -1125.66724] to [262.838409, 276.911682, -629.133789]
g 
v 170.609589 108.54052 -1028.4187
v 181.339996 123.8908 -998.991821
v 199.497528 109.28994 -1002.06824
v 186.384491 138.240051 -971.18103
v 210.81076 124.461815 -969.094849
v 224.350555 109.074303 -969.882935
v 184.275421 153.504089 -945.154907
v 214.098724 139.43103 -939.93396
v 233.146393 125.479301 -935.543945
v 243.570343 108.884949 -934.620728
v 175.062225 170.546448 -920.64679
v 209.431305 155.936523 -913.300354
v 232.988922 142.22821 -906.159912
v 248.21347 127.792763 -900.458252
v 256.266937 109.680679 -899.140137
v 160.168243 189.36734 -896.746338
v 197.740631 174.355713 -887.991455
v 225.229706 160.533081 -879.003174
v 244.242157 146.876373 -871.043884
v 256.350067 131.652985 -865.627686
v 262.348846 111.976593 -865.828918
v 141.912445 209.493439 -872.214539
v 180.336823 194.650452 -862.71106
v 210.923553 180.604553 -852.251526
v 233.460297 167.086975 -842.724548
v 248.886261 153.016907 -835.678467
v 258.356049 136.620514 -832.728149
v 262.574799 115.343636 -836.29071
v 122.570282 229.775421 -845.914795
v 158.872406 216.476685 -835.923218
v 190.737274 202.915161 -824.771729
v 216.522186 189.387543 -814.197876
v 235.547211 175.289093 -806.252502
v 248.316803 159.794006 -802.352173
v 255.715851 141.281982 -803.821899
v 258.571869 118.131454 -811.598022
v 175.249237 92.1176376 -1043.46423
v 204.645355 92.4623337 -1011.98938
v 178.367889 73.3396149 -1056.27942
v 228.842804 90.7793808 -975.659912
v 207.109894 72.9451752 -1020.43542
v 181.280487 51.0749741 -1065.95618
v 246.89859 88.5249405 -938.056152
v 230.018646 69.3092651 -981.477783
v 208.276642 49.305851 -1027.39417
v 184.218903 24.9969616 -1071.21326
v 258.289703 87.2584152 -901.898132
v 246.602997 64.7488251 -942.848145
v 229.213043 43.3959351 -987.289551
v 208.380524 21.3332863 -1031.74182
v 186.818756 -3.71117401 -1069.92346
v 262.838409 87.9392014 -868.812012
v 256.356659 61.3977814 -906.498108
v 243.691986 36.4648361 -948.296997
v 226.454315 13.0627251 -991.446777
v 207.06131 -9.62915802 -1030.83826
v 187.754974 -32.9650574 -1060.52393
v 260.877777 89.9961548 -839.367126
v 258.572296 60.2751694 -873.035706
v 250.717682 30.9106407 -911.34552
v 237.627838 3.73555756 -951.825684
v 220.978607 -20.2383156 -990.416382
v 203.098236 -41.2105484 -1021.7583
v 185.038239 -60.7396011 -1043.76526
v 143.911896 95.0025864 -1058.53772
v 148.126862 73.2203064 -1078.25903
v 119.321991 75.6749191 -1082.23206
v 152.712616 49.313179 -1092.73303
v 126.113983 47.8622665 -1102.87756
v 99.500824 49.9676857 -1097.99951
v 158.252472 22.831049 -1100.74561
v 134.015228 19.0684948 -1115.33777
v 110.120331 16.7389698 -1117.06836
v 85.087677 19.1556759 -1106.69263
v 164.263947 -5.70057297 -1100.51318
v 142.505646 -10.6346779 -1118.63281
v 120.973297 -15.8115082 -1125.66724
v 98.8977356 -18.0570107 -1122.06921
v 75.4580994 -14.5909576 -1108.09546
v 168.833099 -35.3521194 -1090.64453
v 150.017303 -40.6545792 -1111.22595
v 130.81424 -47.5667953 -1122.40784
v 111.072968 -53.0159988 -1124.20154
v 90.4775696 -53.9632339 -1116.88818
v 68.4894714 -48.6947861 -1101.28625
v 169.531158 -64.549614 -1071.02563
v 153.445709 -70.5625076 -1091.95544
v 136.800751 -78.4454193 -1105.38684
v 119.416901 -85.929184 -1110.9436
v 101.105621 -89.9596024 -1108.88672
v 81.7010193 -88.3011246 -1100.07678
v 61.0411377 -80.4840164 -1085.62317
v 146.601837 117.277107 -1029.32837
v 117.423615 102.530449 -1054.5321
v 119.40329 125.852364 -1024.3905
v 92.5759583 81.8998184 -1071.80933
v 89.9248352 109.430832 -1044.03918
v 89.0109558 133.727295 -1015.92664
v 73.4254456 55.3678818 -1082.61108
v 66.0921021 87.6279144 -1056.59241
v 60.8408508 115.559875 -1031.2384
v 55.9547424 140.300446 -1006.33118
v 60.141449 23.7865582 -1087.87781
v 48.4026794 59.976181 -1064.25427
v 38.8366394 92.0868454 -1040.73718
v 30.2695618 119.933044 -1018.06689
v 22.2933044 144.615051 -995.358398
v 51.553772 -11.5790329 -1086.6842
v 36.5119019 26.3108826 -1066.63428
v 23.1446838 62.0098724 -1044.85779
v 10.9958801 93.7666397 -1023.35352
v 0.101196289 121.380325 -1002.50256
v -8.88470459 146.238861 -981.218262
v 44.6136475 -48.4907761 -1076.93835
v 28.1842651 -12.3400803 -1061.47974
v 12.3479004 24.8232021 -1042.12048
v -2.68292236 60.1469116 -1021.54907
v -16.3408813 91.8626099 -1001.44299
v -27.5441284 119.938759 -982.030151
v -35.0982056 145.496704 -962.533936
v 153.228729 134.811798 -999.703125
v 121.162628 145.17453 -995.716309
v 153.103607 150.856842 -972.794067
v 85.4664001 154.424469 -989.584229
v 115.93631 162.708252 -970.250122
v 145.892914 167.640259 -947.927612
v 47.537262 161.781708 -981.899658
v 75.6227112 173.27533 -965.442505
v 104.271149 181.065125 -946.2229
v 132.482391 186.186646 -923.969299
v 10.3067627 166.688293 -970.947266
v 34.2273254 181.94223 -957.469482
v 60.5711975 193.485443 -940.768921
v 87.6964417 201.674957 -921.387939
v 114.971405 206.818237 -898.940186
v -22.8965759 168.979187 -954.503784
v -4.88250732 188.372162 -943.567017
v 17.4425964 204.461884 -929.334106
v 42.3279724 216.934052 -912.235779
v 68.7752991 225.12027 -892.633911
v 95.9301453 229.054382 -870.628296
v 87.480011 248.927032 -833.190613
v 56.9081116 247.938049 -857.516296
v 54.0855408 264.67749 -817.678833
v 28.6911011 241.117798 -878.619202
v 22.9940186 261.274658 -841.583496
v 23.6134033 274.505798 -799.988159
v 3.38632202 228.154114 -897.022217
v -3.76400757 249.792633 -862.065491
v -5.8855896 266.983673 -823.696533
v -3.25317383 276.221893 -781.601624
v -18.9379883 210.097443 -912.796326
v -26.7002869 231.424438 -879.566345
v -30.1910706 250.361206 -843.766052
v -30.0796509 264.342316 -805.106018
v -25.3036499 269.572052 -764.065796
v -37.4474792 187.742737 -925.663574
v -46.1014709 207.318604 -894.197815
v -50.4396973 226.407684 -860.438416
v -51.5178528 242.985748 -824.60907
v -48.8568726 253.957581 -786.954895
v -40.3702393 255.527161 -748.488342
v -50.5544434 160.533081 -935.72583
v -61.0759277 177.196259 -906.053467
v -67.0135498 195.083252 -874.071106
v -69.174469 212.681152 -840.539978
v -67.2390137 227.269073 -805.778381
v -59.989563 235.506775 -770.467163
v -47.8501892 234.370911 -735.850281
v -51.7077026 126.116066 -951.880615
v -41.4955444 93.5184708 -972.386353
v -63.0272827 102.936447 -938.466431
v -27.3861084 59.2424927 -992.675171
v -50.2001953 64.3583527 -960.285156
v -71.4755249 77.8076935 -923.929504
v -11.2082214 22.6052608 -1013.26599
v -34.3022766 25.419632 -981.552979
v -57.3332825 34.854351 -947.385498
v -77.9957581 53.177906 -909.884216
v 5.75195312 -15.8716049 -1033.18188
v -17.1625061 -14.374649 -1002.08093
v -41.0202332 -6.96078491 -969.181885
v -63.8125916 7.71878815 -934.239075
v -82.1328125 30.2789879 -896.22406
v 23.1744385 -54.3438339 -1050.05212
v 0.606445312 -54.4498367 -1019.99817
v -23.5821228 -48.3277054 -988.217407
v -47.6447144 -35.5268936 -954.950317
v -68.6372681 -16.2417068 -919.657349
v -83.5655518 8.69312096 -881.737488
v 41.2402344 -89.8410339 -1060.62439
v 19.3320007 -92.9345627 -1032.00708
v -4.61920166 -88.7756882 -1001.44312
v -29.3980713 -77.5458984 -969.671021
v -52.4872437 -60.0012054 -936.37207
v -71.1002808 -37.6062927 -901.311157
v -82.9655151 -12.2215042 -864.828186
v 63.9213867 -113.446404 -1070.69055
v 85.5037537 -119.745323 -1080.93518
v 63.5825806 -138.26355 -1046.46387
v 104.323273 -118.66021 -1085.69849
v 84.8672791 -141.46167 -1053.11169
v 59.6189575 -153.67218 -1015.42053
v 121.131622 -112.337517 -1084.60474
v 102.283539 -137.5849 -1055.19397
v 79.8815002 -154.011963 -1019.87781
v 52.2609558 -160.291382 -980.320557
v 136.796356 -103.562737 -1076.82446
v 117.459259 -129.587311 -1052.02124
v 96.0514221 -148.311371 -1020.22644
v 71.6471252 -158.908356 -983.61792
v 43.4760742 -160.534576 -944.025879
v 152.282013 -94.8843689 -1061.44153
v 132.13913 -120.107765 -1042.17676
v 110.415192 -139.486572 -1015.01929
v 87.5017395 -152.423981 -982.207031
v 62.7040405 -158.272949 -946.014404
v 35.9348145 -157.044525 -908.576782
v 168.466156 -87.5315399 -1037.91357
v 148.138947 -110.815147 -1023.83179
v 125.682587 -129.556671 -1002.01917
v 102.766754 -143.274353 -973.864014
v 79.5301208 -151.511017 -941.571899
v 55.8500366 -153.970825 -907.739624
v 31.8974915 -151.642853 -874.812256
v 189.494843 -73.5214615 -1011.45544
v 209.434113 -53.2387619 -986.086182
v 191.069611 -81.9384918 -977.336792
v 226.962372 -29.5484772 -953.169556
v 211.751007 -58.8779221 -950.661377
v 190.510773 -84.7413712 -942.502686
v 241.083527 -1.10813904 -915.208374
v 227.863129 -31.2357292 -917.712036
v 210.654755 -58.2840424 -915.624817
v 188.363556 -82.0987396 -907.134644
v 250.362091 31.3415794 -876.476257
v 239.004059 1.58227921 -881.021362
v 224.617218 -26.8417931 -883.066711
v 206.825104 -52.1865158 -880.110657
v 184.824677 -74.3459625 -871.165894
v 254.47171 65.9054565 -839.83551
v 245.005585 38.2958031 -843.647278
v 232.792633 9.55257607 -847.410095
v 217.895538 -17.4881401 -848.241638
v 200.536285 -40.7683868 -844.214661
v 180.094818 -61.1473465 -835.174072
v 253.83255 100.243073 -807.428955
v 246.074127 76.8636093 -807.822327
v 235.609894 49.8638992 -810.536682
v 222.77066 22.5239944 -812.929443
v 208.099152 -2.20353317 -812.5354
v 192.306854 -24.0467834 -807.840881
v 174.260529 -44.3322372 -799.825256
v 250.178619 134.67749 -784.284302
v 244.223907 160.253723 -776.33197
v 236.930756 148.983063 -760.402771
v 233.122833 180.401001 -775.609924
v 227.221344 176.559662 -753.47699
v 218.370697 160.797516 -739.017761
v 216.306793 197.275909 -780.342224
v 212.300385 198.253967 -753.773438
v 204.968903 189.69574 -733.159119
v 195.334747 169.912689 -718.994995
v 193.069244 212.362244 -789.010986
v 191.610992 216.557983 -759.042603
v 186.436798 212.704865 -734.081726
v 178.565765 199.508972 -714.047424
v 169.488861 176.676636 -699.919617
v 162.913177 226.506989 -800.226501
v 164.086517 232.824585 -767.811768
v 161.679535 232.391968 -739.398438
v 156.333832 223.446869 -715.15448
v 149.392853 206.09317 -695.697083
v 142.227997 181.189301 -682.067261
v 126.239288 240.365601 -812.27179
v 128.640167 247.814758 -778.921509
v 128.772552 249.840393 -747.730652
v 126.488861 243.924805 -720.047241
v 122.488739 229.865051 -696.618896
v 117.553741 208.667725 -678.388611
v 114.111298 182.354797 -665.893005
v 90.3206482 259.214233 -795.623413
v 57.1655884 271.979706 -777.369751
v 92.0522156 263.3349 -760.150208
v 27.4055786 276.911682 -758.633057
v 59.2778931 270.545013 -741.035156
v 92.3118591 259.672913 -728.296692
v 1.71563721 272.830811 -740.68927
v 30.3314209 268.635376 -722.417542
v 60.0851135 259.875641 -709.248718
v 90.8899841 247.202026 -700.565735
v -18.3684387 259.961731 -724.086182
v 5.90466309 256.903046 -704.641541
v 31.9379272 249.945374 -690.537231
v 59.4401245 239.776215 -681.541687
v 88.1752014 226.15036 -677.360168
v -30.5804138 238.439026 -710.109863
v -11.1343079 235.497131 -688.641235
v 10.6265259 228.818451 -672.682922
v 34.5671997 220.468689 -662.663025
v 60.2128906 210.219482 -658.384033
v 87.0376282 197.628693 -659.437439
v -67.253479 141.430847 -920.201904
v -78.6747437 119.786438 -903.390686
v -77.0588989 158.333679 -887.628662
v -86.3779602 97.632309 -887.062988
v -87.2315674 138.215332 -869.40271
v -81.5042114 176.370483 -854.456604
v -90.365448 75.6236343 -871.759644
v -92.0644836 117.653732 -852.00708
v -88.4885559 156.804657 -835.417542
v -80.3092041 193.57135 -820.340454
v -90.6777954 52.7985229 -856.551025
v -91.8634644 95.2550583 -834.850769
v -88.5941162 135.347321 -816.312317
v -82.0062256 172.584167 -799.926636
v -72.6966858 206.40567 -784.639893
v -88.5939636 27.8307571 -839.756714
v -88.4103394 68.7688293 -816.448486
v -83.8918762 108.982147 -795.804504
v -76.7026978 146.887451 -777.761963
v -68.1827393 181.107758 -761.68866
v -58.9058838 210.661346 -747.521973
v 40.8838806 -122.262856 -1039.95398
v 37.5629883 -143.111816 -1011.20325
v 16.3188782 -121.799797 -1007.89197
v 30.869751 -153.356445 -976.829346
v 10.4878235 -137.667847 -976.516724
v -9.65859985 -112.826118 -975.666382
v 22.177948 -155.825714 -939.622192
v 2.21322632 -143.908081 -939.945435
v -16.8936768 -124.369621 -942.366577
v -35.2963257 -96.6265335 -942.475586
v 13.9642639 -153.551575 -901.877502
v -6.41744995 -144.049042 -900.373718
v -25.2929993 -127.905235 -903.144836
v -42.5495911 -104.767693 -906.718567
v -58.0690613 -74.5713501 -906.837097
v 9.25036621 -148.687103 -864.967834
v -12.3435364 -140.65564 -859.519775
v -32.0400696 -126.628838 -859.493774
v -49.305603 -106.232124 -863.197327
v -63.7445984 -79.7078476 -867.003357
v -75.0620117 -47.8520737 -867.694824
v 168.419159 -98.8503952 -1001.5304
v 166.641876 -104.734428 -964.755859
v 144.585907 -118.51516 -984.157104
v 164.521393 -105.140358 -927.880981
v 141.004791 -120.991417 -945.042358
v 120.094757 -132.938019 -960.099365
v 162.194122 -100.251152 -890.241333
v 138.124298 -118.579689 -905.68811
v 115.336029 -131.969482 -918.862244
v 95.7923889 -142.597046 -930.49646
v 159.494965 -89.3456345 -851.460144
v 135.952789 -110.644554 -865.095154
v 112.008759 -126.381935 -876.901428
v 90.1451111 -138.194366 -887.343384
v 71.5770569 -147.25293 -897.266235
v 156.0961 -72.9319534 -811.621094
v 133.712921 -96.7261505 -822.393616
v 109.42807 -115.513451 -832.493652
v 85.6684875 -129.73465 -842.238403
v 64.4985657 -140.106262 -851.971619
v 46.5477905 -147.183105 -862.597168
v 243.288239 114.883255 -778.865173
v 227.74411 126.620872 -754.573608
v 233.547272 90.0676041 -778.385315
v 207.494354 135.953278 -732.399231
v 216.347809 100.68705 -753.229614
v 221.653229 63.1386719 -779.95636
v 183.652008 143.534668 -710.993835
v 195.14798 109.582947 -729.465942
v 203.617706 74.1793747 -753.119385
v 208.203339 36.8890533 -780.74231
v 157.662201 149.849365 -689.947327
v 171.462372 117.121429 -705.581421
v 182.974762 83.0218353 -726.715332
v 190.884552 47.8473434 -751.232422
v 194.12442 11.9617538 -778.142578
v 129.821136 153.54483 -669.611206
v 145.878937 122.481834 -681.232056
v 160.412628 89.4332657 -699.148682
v 171.150787 55.1988945 -721.074585
v 177.043549 20.8486404 -745.389648
v 177.873566 -12.7072258 -771.59613
v 16.6331482 -11.6527023 -667.018982
v 36.4588013 15.1290207 -651.211975
v 5.64611816 22.6415596 -658.940186
v 53.4934692 44.5865097 -640.061401
v 23.4160461 53.0903206 -642.150024
v -3.63619995 60.749054 -656.202576
v 66.8953857 75.7909393 -634.636841
v 37.1769714 84.3227768 -632.065308
v 11.5406494 92.8706818 -640.548096
v -11.9403992 100.977638 -659.749817
v 77.0404968 107.145401 -635.131104
v 47.7438965 115.846634 -629.133789
v 22.4875793 124.103554 -633.41394
v 0.1534729 133.203033 -646.459167
v -20.5358582 141.062897 -670.22113
v 86.323822 136.55603 -641.105774
v 57.2815247 146.396362 -633.265869
v 31.786438 154.675842 -634.322266
v 9.11688232 163.468903 -643.054626
v -11.1123352 172.344788 -660.270142
v -30.1470947 178.456451 -687.228821
v 97.9919739 162.015778 -651.763672
v 69.2640076 174.253479 -643.752747
v 42.9537354 183.978088 -642.763489
v 19.0083313 192.670868 -648.557495
v -2.49655151 201.213837 -661.308594
v -21.8634033 208.292389 -681.726501
v -40.0163269 210.447876 -709.589111
v 42.3109131 -25.4189796 -670.715271
v 68.8154602 -34.4432602 -681.602722
v 65.4110107 4.37971115 -657.720032
v 94.4163513 -39.9042892 -698.314575
v 93.3339539 -1.94924545 -671.629517
v 83.9408875 35.9799232 -650.309814
v 117.819122 -42.9703293 -719.7323
v 118.727509 -5.80415726 -690.962097
v 111.917572 30.9911041 -667.500793
v 97.5653381 68.2351151 -648.342773
v 138.75058 -44.4324646 -744.805298
v 140.832489 -8.5697937 -714.689392
v 136.596161 27.4728203 -689.528992
v 125.172333 63.4305344 -668.204712
v 107.555756 99.6831436 -651.156738
v 157.41507 -44.8079453 -772.106079
v 160.203033 -10.8133469 -741.9953
v 157.807648 24.1922894 -715.695496
v 149.501434 59.4610825 -692.553223
v 135.203705 94.3959351 -672.848145
v 117.006683 128.669769 -658.288452
v 10.7662354 -45.375267 -686.113464
v 5.43487549 -75.0503464 -708.488464
v 38.0985718 -60.0108185 -693.927734
v 2.43804932 -99.5552444 -735.219116
v 33.9520569 -88.2544098 -720.258789
v 64.8667908 -68.6939621 -708.768677
v 3.009552 -118.833031 -765.859436
v 31.3531494 -110.279137 -750.265015
v 60.6551514 -95.2405548 -738.574585
v 89.9650574 -73.2496262 -728.834839
v 7.9703064 -133.32132 -799.542603
v 31.872467 -126.839622 -783.839294
v 58.0149231 -115.224419 -771.825745
v 85.6181946 -98.1831131 -761.947876
v 113.247406 -74.9605408 -753.23468
v 17.7816772 -143.906525 -835.933105
v 36.7413025 -138.762451 -821.064636
v 58.8624878 -129.86203 -809.245605
v 83.5429382 -116.585442 -799.14563
v 109.634857 -98.4349823 -789.992493
v 135.109955 -74.7130432 -781.221436
v -10.690094 -14.7596741 -681.102356
v -35.5028992 -14.1921501 -700.659729
v -19.0726318 -50.3637543 -702.409241
v -56.1765747 -11.7433128 -725.813477
v -43.7128601 -51.0891113 -724.662476
v -24.0276794 -79.9199905 -727.115051
v -71.3328247 -9.30892944 -756.945312
v -61.8580322 -49.8228531 -753.601562
v -45.8468018 -80.8197098 -752.563904
v -24.2513428 -103.712029 -756.114502
v -80.6212769 -8.20755386 -792.419861
v -73.0164185 -48.1973038 -788.515503
v -59.7465515 -80.2076797 -784.979126
v -41.6674805 -104.80999 -784.088684
v -19.0899353 -122.495689 -788.616272
v -84.3898926 -9.28849411 -829.277649
v -77.2437439 -47.3792496 -827.465698
v -65.6984253 -79.5651398 -823.64801
v -50.085907 -105.237083 -819.78894
v -30.7828064 -124.407066 -819.255005
v -8.00909424 -137.188324 -824.660767
v -20.6487427 24.612875 -677.501587
v -27.4077148 66.1307068 -679.873047
v -43.2038269 29.0889549 -701.720459
v -33.2341919 107.828743 -688.449158
v -47.6536255 72.2256012 -708.810608
v -61.6637878 33.1890793 -730.859192
v -40.3434143 147.611786 -702.967712
v -52.2051086 113.447403 -721.353271
v -64.884552 75.7788391 -741.463013
v -75.4641724 34.9175339 -764.651672
v -49.4958801 182.827393 -722.823914
v -59.1385498 150.546021 -738.912231
v -69.5126343 114.298187 -756.916565
v -78.7443237 74.7760086 -777.522949
v -84.6381226 33.1763077 -801.625488
g 
f 3 1 2
f 5 2 4
f 6 3 5
f 8 4 7
f 9 5 8
f 10 6 9
f 12 7 11
f 13 8 12
f 14 9 13
f 15 10 14
f 17 11 16
f 18 12 17
f 19 13 18
f 20 14 19
f 21 15 20
f 23 16 22
f 24 17 23
f 25 18 24
f 26 19 25
f 27 20 26
f 28 21 27
f 30 22 29
f 31 23 30
f 32 24 31
f 33 25 32
f 34 26 33
f 35 27 34
f 36 28 35
f 3 2 5
f 5 4 8
f 6 5 9
f 8 7 12
f 9 8 13
f 10 9 14
f 12 11 17
f 13 12 18
f 14 13 19
f 15 14 20
f 17 16 23
f 18 17 24
f 19 18 25
f 20 19 26
f 21 20 27
f 23 22 30
f 24 23 31
f 25 24 32
f 26 25 33
f 27 26 34
f 28 27 35
f 37 1 3
f 38 3 6
f 39 37 38
f 40 6 10
f 41 38 40
f 42 39 41
f 43 10 15
f 44 40 43
f 45 41 44
f 46 42 45
f 47 15 21
f 48 43 47
f 49 44 48
f 50 45 49
f 51 46 50
f 52 21 28
f 53 47 52
f 54 48 53
f 55 49 54
f 56 50 55
f 57 51 56
f 58 28 36
f 59 52 58
f 60 53 59
f 61 54 60
f 62 55 61
f 63 56 62
f 64 57 63
f 37 3 38
f 38 6 40
f 39 38 41
f 40 10 43
f 41 40 44
f 42 41 45
f 43 15 47
f 44 43 48
f 45 44 49
f 46 45 50
f 47 21 52
f 48 47 53
f 49 48 54
f 50 49 55
f 51 50 56
f 52 28 58
f 53 52 59
f 54 53 60
f 55 54 61
f 56 55 62
f 57 56 63
f 65 1 37
f 66 37 39
f 67 65 66
f 68 39 42
f 69 66 68
f 70 67 69
f 71 42 46
f 72 68 71
f 73 69 72
f 74 70 73
f 75 46 51
f 76 71 75
f 77 72 76
f 78 73 77
f 79 74 78
f 80 51 57
f 81 75 80
f 82 76 81
f 83 77 82
f 84 78 83
f 85 79 84
f 86 57 64
f 87 80 86
f 88 81 87
f 89 82 88
f 90 83 89
f 91 84 90
f 92 85 91
f 65 37 66
f 66 39 68
f 67 66 69
f 68 42 71
f 69 68 72
f 70 69 73
f 71 46 75
f 72 71 76
f 73 72 77
f 74 73 78
f 75 51 80
f 76 75 81
f 77 76 82
f 78 77 83
f 79 78 84
f 80 57 86
f 81 80 87
f 82 81 88
f 83 82 89
f 84 83 90
f 85 84 91
f 93 1 65
f 94 65 67
f 95 93 94
f 96 67 70
f 97 94 96
f 98 95 97
f 99 70 74
f 100 96 99
f 101 97 100
f 102 98 101
f 103 74 79
f 104 99 103
f 105 100 104
f 106 101 105
f 107 102 106
f 108 79 85
f 109 103 108
f 110 104 109
f 111 105 110
f 112 106 111
f 113 107 112
f 114 85 92
f 115 108 114
f 116 109 115
f 117 110 116
f 118 111 117
f 119 112 118
f 120 113 119
f 93 65 94
f 94 67 96
f 95 94 97
f 96 70 99
f 97 96 100
f 98 97 101
f 99 74 103
f 100 99 104
f 101 100 105
f 102 101 106
f 103 79 108
f 104 103 109
f 105 104 110
f 106 105 111
f 107 106 112
f 108 85 114
f 109 108 115
f 110 109 116
f 111 110 117
f 112 111 118
f 113 112 119
f 2 1 93
f 121 93 95
f 4 2 121
f 122 95 98
f 123 121 122
f 7 4 123
f 124 98 102
f 125 122 124
f 126 123 125
f 11 7 126
f 127 102 107
f 128 124 127
f 129 125 128
f 130 126 129
f 16 11 130
f 131 107 113
f 132 127 131
f 133 128 132
f 134 129 133
f 135 130 134
f 22 16 135
f 136 113 120
f 137 131 136
f 138 132 137
f 139 133 138
f 140 134 139
f 141 135 140
f 29 22 141
f 2 93 121
f 121 95 122
f 4 121 123
f 122 98 124
f 123 122 125
f 7 123 126
f 124 102 127
f 125 124 128
f 126 125 129
f 11 126 130
f 127 107 131
f 128 127 132
f 129 128 133
f 130 129 134
f 16 130 135
f 131 113 136
f 132 131 137
f 133 132 138
f 134 133 139
f 135 134 140
f 22 135 141
f 142 29 141
f 143 141 140
f 144 142 143
f 145 140 139
f 146 143 145
f 147 144 146
f 148 139 138
f 149 145 148
f 150 146 149
f 151 147 150
f 152 138 137
f 153 148 152
f 154 149 153
f 155 150 154
f 156 151 155
f 157 137 136
f 158 152 157
f 159 153 158
f 160 154 159
f 161 155 160
f 162 156 161
f 163 136 120
f 164 157 163
f 165 158 164
f 166 159 165
f 167 160 166
f 168 161 167
f 169 162 168
f 142 141 143
f 143 140 145
f 144 143 146
f 145 139 148
f 146 145 149
f 147 146 150
f 148 138 152
f 149 148 153
f 150 149 154
f 151 150 155
f 152 137 157
f 153 152 158
f 154 153 159
f 155 154 160
f 156 155 161
f 157 136 163
f 158 157 164
f 159 158 165
f 160 159 166
f 161 160 167
f 162 161 168
f 170 120 119
f 171 119 118
f 172 170 171
f 173 118 117
f 174 171 173
f 175 172 174
f 176 117 116
f 177 173 176
f 178 174 177
f 179 175 178
f 180 116 115
f 181 176 180
f 182 177 181
f 183 178 182
f 184 179 183
f 185 115 114
f 186 180 185
f 187 181 186
f 188 182 187
f 189 183 188
f 190 184 189
f 191 114 92
f 192 185 191
f 193 186 192
f 194 187 193
f 195 188 194
f 196 189 195
f 197 190 196
f 170 119 171
f 171 118 173
f 172 171 174
f 173 117 176
f 174 173 177
f 175 174 178
f 176 116 180
f 177 176 181
f 178 177 182
f 179 178 183
f 180 115 185
f 181 180 186
f 182 181 187
f 183 182 188
f 184 183 189
f 185 114 191
f 186 185 192
f 187 186 193
f 188 187 194
f 189 188 195
f 190 189 196
f 198 92 91
f 199 91 90
f 200 198 199
f 201 90 89
f 202 199 201
f 203 200 202
f 204 89 88
f 205 201 204
f 206 202 205
f 207 203 206
f 208 88 87
f 209 204 208
f 210 205 209
f 211 206 210
f 212 207 211
f 213 87 86
f 214 208 213
f 215 209 214
f 216 210 215
f 217 211 216
f 218 212 217
f 219 86 64
f 220 213 219
f 221 214 220
f 222 215 221
f 223 216 222
f 224 217 223
f 225 218 224
f 198 91 199
f 199 90 201
f 200 199 202
f 201 89 204
f 202 201 205
f 203 202 206
f 204 88 208
f 205 204 209
f 206 205 210
f 207 206 211
f 208 87 213
f 209 208 214
f 210 209 215
f 211 210 216
f 212 211 217
f 213 86 219
f 214 213 220
f 215 214 221
f 216 215 222
f 217 216 223
f 218 217 224
f 226 64 63
f 227 63 62
f 228 226 227
f 229 62 61
f 230 227 229
f 231 228 230
f 232 61 60
f 233 229 232
f 234 230 233
f 235 231 234
f 236 60 59
f 237 232 236
f 238 233 237
f 239 234 238
f 240 235 239
f 241 59 58
f 242 236 241
f 243 237 242
f 244 238 243
f 245 239 244
f 246 240 245
f 247 58 36
f 248 241 247
f 249 242 248
f 250 243 249
f 251 244 250
f 252 245 251
f 253 246 252
f 226 63 227
f 227 62 229
f 228 227 230
f 229 61 232
f 230 229 233
f 231 230 234
f 232 60 236
f 233 232 237
f 234 233 238
f 235 234 239
f 236 59 241
f 237 236 242
f 238 237 243
f 239 238 244
f 240 239 245
f 241 58 247
f 242 241 248
f 243 242 249
f 244 243 250
f 245 244 251
f 246 245 252
f 254 36 35
f 255 35 34
f 256 254 255
f 257 34 33
f 258 255 257
f 259 256 258
f 260 33 32
f 261 257 260
f 262 258 261
f 263 259 262
f 264 32 31
f 265 260 264
f 266 261 265
f 267 262 266
f 268 263 267
f 269 31 30
f 270 264 269
f 271 265 270
f 272 266 271
f 273 267 272
f 274 268 273
f 275 30 29
f 276 269 275
f 277 270 276
f 278 271 277
f 279 272 278
f 280 273 279
f 281 274 280
f 254 35 255
f 255 34 257
f 256 255 258
f 257 33 260
f 258 257 261
f 259 258 262
f 260 32 264
f 261 260 265
f 262 261 266
f 263 262 267
f 264 31 269
f 265 264 270
f 266 265 271
f 267 266 272
f 268 267 273
f 269 30 275
f 270 269 276
f 271 270 277
f 272 271 278
f 273 272 279
f 274 273 280
f 275 29 142
f 282 142 144
f 276 275 282
f 283 144 147
f 284 282 283
f 277 276 284
f 285 147 151
f 286 283 285
f 287 284 286
f 278 277 287
f 288 151 156
f 289 285 288
f 290 286 289
f 291 287 290
f 279 278 291
f 292 156 162
f 293 288 292
f 294 289 293
f 295 290 294
f 296 291 295
f 280 279 296
f 297 162 169
f 298 292 297
f 299 293 298
f 300 294 299
f 301 295 300
f 302 296 301
f 281 280 302
f 275 142 282
f 282 144 283
f 276 282 284
f 283 147 285
f 284 283 286
f 277 284 287
f 285 151 288
f 286 285 289
f 287 286 290
f 278 287 291
f 288 156 292
f 289 288 293
f 290 289 294
f 291 290 295
f 279 291 296
f 292 162 297
f 293 292 298
f 294 293 299
f 295 294 300
f 296 295 301
f 280 296 302
f 163 120 170
f 303 170 172
f 164 163 303
f 304 172 175
f 305 303 304
f 165 164 305
f 306 175 179
f 307 304 306
f 308 305 307
f 166 165 308
f 309 179 184
f 310 306 309
f 311 307 310
f 312 308 311
f 167 166 312
f 313 184 190
f 314 309 313
f 315 310 314
f 316 311 315
f 317 312 316
f 168 167 317
f 318 190 197
f 319 313 318
f 320 314 319
f 321 315 320
f 322 316 321
f 323 317 322
f 169 168 323
f 163 170 303
f 303 172 304
f 164 303 305
f 304 175 306
f 305 304 307
f 165 305 308
f 306 179 309
f 307 306 310
f 308 307 311
f 166 308 312
f 309 184 313
f 310 309 314
f 311 310 315
f 312 311 316
f 167 312 317
f 313 190 318
f 314 313 319
f 315 314 320
f 316 315 321
f 317 316 322
f 168 317 323
f 191 92 198
f 324 198 200
f 192 191 324
f 325 200 203
f 326 324 325
f 193 192 326
f 327 203 207
f 328 325 327
f 329 326 328
f 194 193 329
f 330 207 212
f 331 327 330
f 332 328 331
f 333 329 332
f 195 194 333
f 334 212 218
f 335 330 334
f 336 331 335
f 337 332 336
f 338 333 337
f 196 195 338
f 339 218 225
f 340 334 339
f 341 335 340
f 342 336 341
f 343 337 342
f 344 338 343
f 197 196 344
f 191 198 324
f 324 200 325
f 192 324 326
f 325 203 327
f 326 325 328
f 193 326 329
f 327 207 330
f 328 327 331
f 329 328 332
f 194 329 333
f 330 212 334
f 331 330 335
f 332 331 336
f 333 332 337
f 195 333 338
f 334 218 339
f 335 334 340
f 336 335 341
f 337 336 342
f 338 337 343
f 196 338 344
f 219 64 226
f 345 226 228
f 220 219 345
f 346 228 231
f 347 345 346
f 221 220 347
f 348 231 235
f 349 346 348
f 350 347 349
f 222 221 350
f 351 235 240
f 352 348 351
f 353 349 352
f 354 350 353
f 223 222 354
f 355 240 246
f 356 351 355
f 357 352 356
f 358 353 357
f 359 354 358
f 224 223 359
f 360 246 253
f 361 355 360
f 362 356 361
f 363 357 362
f 364 358 363
f 365 359 364
f 225 224 365
f 219 226 345
f 345 228 346
f 220 345 347
f 346 231 348
f 347 346 349
f 221 347 350
f 348 235 351
f 349 348 352
f 350 349 353
f 222 350 354
f 351 240 355
f 352 351 356
f 353 352 357
f 354 353 358
f 223 354 359
f 355 246 360
f 356 355 361
f 357 356 362
f 358 357 363
f 359 358 364
f 224 359 365
f 247 36 254
f 366 254 256
f 248 247 366
f 367 256 259
f 368 366 367
f 249 248 368
f 369 259 263
f 370 367 369
f 371 368 370
f 250 249 371
f 372 263 268
f 373 369 372
f 374 370 373
f 375 371 374
f 251 250 375
f 376 268 274
f 377 372 376
f 378 373 377
f 379 374 378
f 380 375 379
f 252 251 380
f 381 274 281
f 382 376 381
f 383 377 382
f 384 378 383
f 385 379 384
f 386 380 385
f 253 252 386
f 247 254 366
f 366 256 367
f 248 366 368
f 367 259 369
f 368 367 370
f 249 368 371
f 369 263 372
f 370 369 373
f 371 370 374
f 250 371 375
f 372 268 376
f 373 372 377
f 374 373 378
f 375 374 379
f 251 375 380
f 376 274 381
f 377 376 382
f 378 377 383
f 379 378 384
f 380 379 385
f 252 380 386
f 389 387 388
f 391 388 390
f 392 389 391
f 394 390 393
f 395 391 394
f 396 392 395
f 398 393 397
f 399 394 398
f 400 395 399
f 401 396 400
f 403 397 402
f 404 398 403
f 405 399 404
f 406 400 405
f 407 401 406
f 409 402 408
f 410 403 409
f 411 404 410
f 412 405 411
f 413 406 412
f 414 407 413
f 302 408 281
f 301 409 302
f 300 410 301
f 299 411 300
f 298 412 299
f 297 413 298
f 169 414 297
f 389 388 391
f 391 390 394
f 392 391 395
f 394 393 398
f 395 394 399
f 396 395 400
f 398 397 403
f 399 398 404
f 400 399 405
f 401 400 406
f 403 402 409
f 404 403 410
f 405 404 411
f 406 405 412
f 407 406 413
f 409 408 302
f 410 409 301
f 411 410 300
f 412 411 299
f 413 412 298
f 414 413 297
f 388 387 415
f 417 415 416
f 390 388 417
f 419 416 418
f 420 417 419
f 393 390 420
f 422 418 421
f 423 419 422
f 424 420 423
f 397 393 424
f 426 421 425
f 427 422 426
f 428 423 427
f 429 424 428
f 402 397 429
f 431 425 430
f 432 426 431
f 433 427 432
f 434 428 433
f 435 429 434
f 408 402 435
f 386 430 253
f 385 431 386
f 384 432 385
f 383 433 384
f 382 434 383
f 381 435 382
f 281 408 381
f 388 415 417
f 417 416 419
f 390 417 420
f 419 418 422
f 420 419 423
f 393 420 424
f 422 421 426
f 423 422 427
f 424 423 428
f 397 424 429
f 426 425 431
f 427 426 432
f 428 427 433
f 429 428 434
f 402 429 435
f 431 430 386
f 432 431 385
f 433 432 384
f 434 433 383
f 435 434 382
f 408 435 381
f 415 387 436
f 438 436 437
f 416 415 438
f 440 437 439
f 441 438 440
f 418 416 441
f 443 439 442
f 444 440 443
f 445 441 444
f 421 418 445
f 447 442 446
f 448 443 447
f 449 444 448
f 450 445 449
f 425 421 450
f 452 446 451
f 453 447 452
f 454 448 453
f 455 449 454
f 456 450 455
f 430 425 456
f 365 451 225
f 364 452 365
f 363 453 364
f 362 454 363
f 361 455 362
f 360 456 361
f 253 430 360
f 415 436 438
f 438 437 440
f 416 438 441
f 440 439 443
f 441 440 444
f 418 441 445
f 443 442 447
f 444 443 448
f 445 444 449
f 421 445 450
f 447 446 452
f 448 447 453
f 449 448 454
f 450 449 455
f 425 450 456
f 452 451 365
f 453 452 364
f 454 453 363
f 455 454 362
f 456 455 361
f 430 456 360
f 436 387 457
f 459 457 458
f 437 436 459
f 461 458 460
f 462 459 461
f 439 437 462
f 464 460 463
f 465 461 464
f 466 462 465
f 442 439 466
f 468 463 467
f 469 464 468
f 470 465 469
f 471 466 470
f 446 442 471
f 473 467 472
f 474 468 473
f 475 469 474
f 476 470 475
f 477 471 476
f 451 446 477
f 344 472 197
f 343 473 344
f 342 474 343
f 341 475 342
f 340 476 341
f 339 477 340
f 225 451 339
f 436 457 459
f 459 458 461
f 437 459 462
f 461 460 464
f 462 461 465
f 439 462 466
f 464 463 468
f 465 464 469
f 466 465 470
f 442 466 471
f 468 467 473
f 469 468 474
f 470 469 475
f 471 470 476
f 446 471 477
f 473 472 344
f 474 473 343
f 475 474 342
f 476 475 341
f 477 476 340
f 451 477 339
f 457 387 389
f 478 389 392
f 458 457 478
f 479 392 396
f 480 478 479
f 460 458 480
f 481 396 401
f 482 479 481
f 483 480 482
f 463 460 483
f 484 401 407
f 485 481 484
f 486 482 485
f 487 483 486
f 467 463 487
f 488 407 414
f 489 484 488
f 490 485 489
f 491 486 490
f 492 487 491
f 472 467 492
f 323 414 169
f 322 488 323
f 321 489 322
f 320 490 321
f 319 491 320
f 318 492 319
f 197 472 318
f 457 389 478
f 478 392 479
f 458 478 480
f 479 396 481
f 480 479 482
f 460 480 483
f 481 401 484
f 482 481 485
f 483 482 486
f 463 483 487
f 484 407 488
f 485 484 489
f 486 485 490
f 487 486 491
f 467 487 492
f 488 414 323
f 489 488 322
f 490 489 321
f 491 490 320
f 492 491 319
f 472 492 318
