# File exported by Houdini 20.5.445 (www.sidefx.com)
# 492 points
# 2940 vertices
# 980 primitives
# Bounds: [-163.587662, -92.0749664, -1109.59338] to [334.361603, 208.452072, -645.207642]
g 
v 149.296478 2.86084747 -1099.89258
v 144.602997 25.3645821 -1101.02905
v 179.437073 17.1164017 -1091.11572
v 138.749115 49.5445404 -1095.08325
v 175.056732 43.3282471 -1091.63257
v 209.010956 35.2307053 -1080.8667
v 131.423157 73.8916626 -1082.28809
v 168.629364 69.3380127 -1084.30396
v 203.482697 63.6612778 -1081.01575
v 237.56546 54.8548813 -1070.09143
v 122.41214 97.1762009 -1063.47229
v 159.941589 93.7950439 -1069.70581
v 195.272644 89.9221649 -1072.15894
v 229.931122 83.719635 -1069.6283
v 263.759247 73.2497711 -1058.48071
v 111.922028 118.761154 -1039.77551
v 148.878601 116.094757 -1048.71265
v 184.414429 113.366943 -1055.10864
v 219.288361 108.780418 -1058.56934
v 253.604279 100.93187 -1056.42139
v 285.808929 87.944397 -1045.18933
v 100.713806 138.404495 -1012.38818
v 135.819092 136.187897 -1022.13403
v 170.898712 134.118454 -1030.66296
v 205.920074 130.285339 -1037.87488
v 240.488617 123.551239 -1041.92676
v 273.359344 112.772896 -1039.82251
v 302.255951 96.7904205 -1029.1947
v 89.9707947 155.784607 -982.374146
v 121.803192 154.13681 -990.603394
v 155.26178 152.334808 -999.083496
v 189.729095 148.632233 -1007.94775
v 224.364288 141.863235 -1015.90686
v 257.777069 131.444626 -1020.30042
v 287.941559 117.148941 -1018.75513
v 312.349945 99.2814255 -1009.70361
v 171.97348 -9.4706955 -1087.01343
v 205.932098 6.51279831 -1074.92627
v 193.308319 -19.0302734 -1067.78223
v 237.721222 25.1349792 -1062.40332
v 229.086304 -2.15182686 -1052.72693
v 211.698975 -27.4365768 -1043.90039
v 266.912506 43.7699051 -1050.05078
v 260.957428 15.8014002 -1038.22314
v 247.397308 -10.7760925 -1026.62463
v 225.213165 -36.250824 -1016.84521
v 292.260345 60.2016144 -1037.44531
v 288.929657 32.5692062 -1024.47559
v 277.677032 5.60251236 -1010.32483
v 259.121246 -20.6942062 -997.58728
v 231.682983 -46.0209808 -987.113525
v 312.010406 72.2534027 -1023.23914
v 311.816132 46.2160263 -1010.32324
v 302.767426 19.7609081 -994.263306
v 286.055817 -6.50930786 -978.416626
v 262.198822 -32.2822647 -965.307007
v 230.206055 -56.5150452 -954.851562
v 324.621246 78.5628891 -1005.29932
v 327.690033 55.338562 -993.11731
v 321.341705 30.4697075 -975.96814
v 306.421356 4.78089142 -957.499756
v 284.335052 -20.8819733 -941.463013
v 256.000092 -45.3488846 -929.307495
v 222.121368 -66.8183899 -920.230469
v 132.178223 -14.9530106 -1099.90002
v 153.919586 -28.5694427 -1083.40662
v 112.882843 -27.2356949 -1096.85608
v 172.753143 -38.7525406 -1061.34985
v 132.996887 -41.5932159 -1076.91101
v 90.5637207 -33.9430542 -1091.91248
v 187.282257 -48.0444641 -1035.44348
v 148.520203 -52.6386566 -1052.38708
v 107.887024 -49.4859085 -1068.44543
v 65.183075 -36.5645676 -1084.33777
v 195.674286 -57.7097931 -1006.03979
v 158.127441 -62.8465042 -1023.85388
v 118.806091 -61.8022079 -1040.21948
v 78.1022034 -53.1898575 -1056.89758
v 37.2317505 -36.3914871 -1071.95642
v 196.746155 -67.7490845 -972.925903
v 160.736908 -73.0044785 -990.71582
v 122.438171 -72.5467529 -1007.35425
v 82.9517517 -66.2872314 -1023.62646
v 43.982605 -53.3807602 -1039.94397
v 7.32891846 -34.2426682 -1052.93042
v 190.750702 -77.6212082 -935.713379
v 156.068573 -82.8646851 -952.318726
v 118.431244 -82.3049927 -968.769531
v 79.3498535 -76.8945312 -984.555176
v 41.1708679 -66.4804459 -1000.495
v 6.38067627 -50.7545471 -1015.60791
v -23.5983887 -30.93013 -1026.53662
v 116.236298 6.96526337 -1107.18066
v 95.3768005 -7.34838486 -1107.97437
v 83.3321838 17.231205 -1108.32214
v 73.2473755 -14.5719376 -1106.24658
v 60.28479 7.72463608 -1109.59338
v 51.2578735 33.9104385 -1103.19922
v 49.6943054 -16.8184738 -1101.62195
v 37.4097595 4.66433334 -1107.50647
v 27.8853149 28.8477058 -1103.72998
v 21.1285095 56.0445557 -1091.35938
v 24.8224792 -16.4481125 -1092.21863
v 14.5944519 4.80361176 -1100.73584
v 6.20968628 28.0722618 -1099.22937
v -0.678466797 53.6775894 -1089.37756
v -5.6529541 80.992012 -1072.62805
v -1.83221436 -14.2340927 -1075.40283
v -9.21585083 6.55870056 -1086.69385
v -15.0283508 28.9152184 -1087.88843
v -20.2691956 53.3958893 -1080.39478
v -25.0483246 79.3894043 -1066.29858
v -28.3663788 105.068802 -1047.51343
v -30.6052856 -11.207222 -1048.96924
v -35.7179718 9.62251472 -1062.18372
v -38.8163147 31.6560535 -1065.95972
v -41.0662689 55.0028381 -1061.30981
v -43.5814667 79.4031677 -1050.0752
v -46.2879028 103.649986 -1034.61279
v -47.614975 125.498764 -1016.97327
v 109.63916 31.5202866 -1103.58923
v 76.3825989 43.55896 -1099.28015
v 102.542236 56.6138535 -1092.30884
v 44.6630554 61.5399857 -1088.63452
v 69.1026611 69.4778442 -1083.08875
v 94.5872498 81.2062836 -1074.67468
v 15.0257263 84.4029083 -1071.77112
v 37.6372986 88.1024246 -1068.0592
v 61.1608887 94.5370483 -1061.27576
v 85.6102905 104.780914 -1051.80945
v -11.6140747 109.29467 -1048.44678
v 8.26412964 111.135101 -1046.7605
v 29.8674622 113.579002 -1042.03442
v 52.400177 118.668243 -1034.47522
v 75.8271179 127.143349 -1024.46497
v -34.738739 132.154633 -1018.31384
v -18.3926392 135.23941 -1017.94055
v 0.604888916 136.472443 -1015.24902
v 21.3012085 138.146118 -1010.0011
v 43.1234741 141.885773 -1002.41895
v 65.948822 148.077118 -992.981079
v 64.9509277 167.122849 -957.991821
v 38.8864441 162.353271 -967.7229
v 40.9678345 178.069946 -932.943359
v 15.6497803 159.323761 -975.378662
v 14.7423096 175.328598 -941.542114
v 17.2984314 188.197021 -906.478882
v -5.44506836 157.881409 -980.814819
v -7.78829956 173.787735 -947.36145
v -8.04046631 186.43486 -913.620239
v -6.34777832 196.604706 -877.99585
v -24.7971954 156.741119 -984.023682
v -28.1227417 172.838104 -950.844238
v -29.927475 185.430923 -917.662964
v -30.7249603 195.03447 -883.457275
v -29.6503296 201.898331 -847.486328
v -42.2880096 153.935791 -985.204346
v -47.1201477 171.002289 -952.239868
v -50.3526001 184.111679 -919.231689
v -52.6424713 193.546295 -885.565796
v -53.7197723 199.76207 -850.92981
v -52.346405 203.455917 -815.679688
v -57.5156708 147.604309 -984.738403
v -64.8417358 165.91481 -951.768433
v -70.2306824 180.174881 -918.429932
v -74.1700134 190.191925 -884.630981
v -76.7202148 196.458954 -850.344482
v -77.1988678 199.937424 -816.253296
v -74.1798859 201.627029 -783.772339
v -65.175705 130.371704 -993.605713
v -64.192276 106.353783 -1010.44507
v -82.2656403 131.885315 -967.068237
v -63.1110687 81.2922668 -1024.18164
v -82.1539917 106.082901 -982.665894
v -100.066116 130.176498 -937.590576
v -63.1315765 56.5655518 -1032.85461
v -82.9337769 80.3116074 -994.16394
v -101.460907 103.345848 -951.371582
v -118.960571 125.730446 -905.124512
v -63.3379974 32.4744415 -1034.45886
v -85.0830688 54.8481369 -999.549072
v -104.08252 76.8911896 -959.664917
v -121.932419 98.3343735 -916.076294
v -137.51149 118.672951 -870.006226
v -61.9183502 8.92142105 -1026.93738
v -86.889328 29.466507 -996.614868
v -107.59024 50.3185043 -960.205933
v -125.547958 71.049324 -919.655029
v -141.087296 90.8772507 -876.71875
v -152.713684 109.238426 -833.296631
v -57.3466034 -14.3482475 -1008.56348
v -86.3020477 3.69096565 -982.505371
v -110.121841 22.8080959 -949.703003
v -129.212128 42.5618553 -912.382324
v -144.090317 62.1275711 -873.019165
v -154.907227 80.6065063 -833.848145
v -161.563721 97.9203339 -796.691528
v -38.2358398 -39.6861954 -988.766357
v -5.9463501 -59.9543915 -974.516357
v -51.9397278 -46.4857254 -946.743286
v 31.4699097 -74.39254 -958.651367
v -15.7764282 -65.3905258 -932.449951
v -61.2823486 -50.2444458 -902.966309
v 71.8075256 -83.8743515 -942.880005
v 25.0628052 -78.188942 -917.155151
v -20.6308899 -66.9686584 -889.813354
v -63.8601074 -50.7628555 -858.57959
v 112.522308 -89.3638763 -926.485962
v 67.5994873 -87.2156143 -900.67749
v 23.0202942 -78.5975342 -873.983032
v -19.9531555 -65.3827667 -845.356812
v -59.4333801 -48.4204559 -813.656006
v 152.310272 -89.3204651 -909.553345
v 110.688873 -92.0749664 -883.203369
v 68.1072388 -86.6448364 -856.084961
v 26.2815552 -75.3431854 -828.133179
v -13.1546936 -60.4085159 -799.382935
v -48.0419769 -42.887619 -769.827637
v 190.377289 -81.8875351 -892.933716
v 154.046539 -89.8243713 -865.075195
v 114.866608 -89.3520508 -836.759888
v 74.9792175 -81.0793915 -808.198608
v 36.2470093 -67.5675125 -780.236816
v 0.331359863 -51.4065933 -753.922241
v -31.0025482 -33.8974304 -729.767334
v 232.752686 -63.4302139 -889.507935
v 268.896576 -39.0658188 -901.195435
v 241.647064 -56.9879227 -860.210205
v 297.80777 -12.9896507 -917.055664
v 278.744049 -31.0309906 -876.532715
v 249.484283 -46.1602554 -834.025024
v 319.096161 13.2507315 -936.751465
v 306.958893 -4.42837524 -896.793579
v 286.054352 -19.748085 -855.684937
v 255.279572 -30.5408401 -812.270508
v 331.704437 38.7714539 -957.519165
v 325.93045 21.7784824 -919.462524
v 311.886139 6.61448669 -879.820679
v 289.387299 -4.4087944 -838.577271
v 256.804535 -10.5248756 -795.584106
v 334.126984 63.1615295 -975.103638
v 334.361603 47.1612244 -941.04541
v 326.416534 32.8065643 -904.113525
v 310.587433 21.7361813 -865.113403
v 286.206818 15.2502966 -824.684814
v 252.079437 13.2345686 -783.825073
v 325.14328 86.1783142 -985.771973
v 330.170197 72.0753326 -957.279175
v 327.801178 59.0875854 -924.820557
v 317.923981 48.8444595 -889.17041
v 300.375641 42.2070122 -851.595703
v 274.632233 39.6778641 -813.104248
v 240.936676 39.9320374 -775.932129
v 302.388885 109.593819 -993.22998
v 273.342438 128.544556 -996.208984
v 285.528412 118.316444 -971.001831
v 240.20047 143.651581 -991.72937
v 253.192657 137.421707 -968.526733
v 263.267792 127.309502 -944.213867
v 205.333191 154.908539 -983.064697
v 218.793945 152.725708 -959.988037
v 229.231598 146.439148 -937.469482
v 237.529022 138.336151 -914.212769
v 169.938507 162.38739 -973.023315
v 183.420135 164.493408 -949.005371
v 194.29129 161.93692 -926.317017
v 202.662689 157.397629 -904.377808
v 209.771729 152.321747 -882.525879
v 134.527771 166.568192 -963.766357
v 147.081116 172.620041 -938.081055
v 157.959503 174.036819 -913.991699
v 166.62616 173.008682 -891.478149
v 173.956055 170.968857 -870.596558
v 180.254181 168.522003 -850.57019
v 99.2684326 168.793259 -955.946411
v 109.222198 177.623428 -929.120117
v 118.579376 182.771133 -902.990479
v 126.799103 185.324432 -878.633301
v 134.428711 186.225296 -856.805664
v 141.679169 185.847595 -837.434448
v 148.210632 184.319016 -819.794434
v 72.8862915 179.352798 -927.6427
v 47.0804443 189.231903 -900.138306
v 80.2651062 187.743637 -898.282715
v 21.2418823 197.78952 -871.842041
v 52.0047913 196.91188 -869.059937
v 86.8539734 193.144302 -870.52063
v -4.22436523 203.632828 -841.554199
v 24.4981079 203.818741 -839.033813
v 57.0940247 201.810181 -840.008057
v 93.8181152 196.422897 -845.31604
v -29.0498962 205.819275 -808.956055
v -2.05172729 207.234497 -806.453735
v 28.9549866 207.273331 -807.984985
v 63.7515869 204.517624 -813.322266
v 101.750671 197.866974 -822.765747
v -53.4448395 204.397736 -774.559692
v -28.10849 206.635773 -770.495361
v 1.74594116 208.447174 -771.929565
v 35.5264282 208.452072 -778.198853
v 72.1281128 205.121048 -788.404175
v 110.325653 197.430389 -802.241943
v -77.3000946 153.045135 -955.988281
v -95.8822021 153.634399 -925.634644
v -86.162796 170.169449 -919.526489
v -114.434189 150.098206 -893.32605
v -105.928909 168.844833 -886.356689
v -92.8249359 182.24205 -883.513916
v -132.915009 143.294922 -858.681519
v -125.055801 163.342941 -851.348877
v -113.49675 178.963318 -847.568481
v -97.5376282 189.94223 -847.153809
v -149.657181 133.674164 -821.947388
v -142.895279 154.60553 -813.940063
v -132.549576 171.91507 -809.290894
v -118.187088 185.159164 -807.974243
v -99.6995087 194.324097 -810.160889
v -161.232391 121.430229 -784.184448
v -156.829453 142.848663 -774.498901
v -148.220337 161.618378 -768.177002
v -135.336166 177.018707 -765.639404
v -118.257782 188.538193 -767.33606
v -97.5922241 196.480576 -773.447021
v -75.7217407 -22.4444046 -964.225342
v -90.3991089 -28.388237 -916.927124
v -105.699203 -4.16995239 -932.980713
v -97.9651642 -31.590126 -869.295654
v -118.420364 -9.76088715 -882.234497
v -128.226257 14.9053364 -897.129272
v -96.6881409 -31.9332428 -822.104614
v -121.797852 -12.7178421 -832.289795
v -137.020172 9.45026588 -844.805298
v -144.108261 34.5804977 -858.942261
v -86.6968231 -29.0339203 -775.485596
v -115.54808 -12.5867844 -783.13208
v -135.608795 7.03767395 -793.402954
v -148.188873 29.5834351 -806.292847
v -154.471619 54.5111237 -820.314331
v -68.602951 -21.9133453 -731.188965
v -99.7637482 -7.88304901 -735.404663
v -124.103439 9.09514618 -742.921753
v -141.990311 29.0846977 -754.028687
v -154.030411 51.3606796 -767.862061
v -160.678497 74.8071213 -782.457642
v 198.757355 -77.9183273 -855.791504
v 206.322723 -68.607933 -822.061646
v 161.873932 -83.3084717 -823.399658
v 213.153198 -53.4270325 -793.268311
v 169.187897 -70.1528168 -787.112915
v 123.28418 -79.6910629 -792.329834
v 217.384369 -32.763916 -770.560425
v 174.921997 -50.7174149 -757.17981
v 130.319611 -62.9639893 -754.839844
v 84.0578918 -68.4251556 -762.542603
v 216.612915 -7.04794312 -754.740723
v 176.800934 -25.2574615 -734.652466
v 134.202179 -39.5398026 -724.746948
v 89.9951782 -48.4672852 -724.854248
v 45.0775146 -52.1218185 -734.690308
v 209.243652 23.3362961 -745.616821
v 172.522186 6.48407555 -720.480835
v 132.531677 -8.79656982 -703.19519
v 90.8185425 -20.7052917 -695.377319
v 48.7479858 -28.7072449 -697.655151
v 7.65481567 -32.9294205 -709.681763
v 312.817535 96.1654282 -967.649048
v 293.272308 105.942604 -944.859497
v 315.427887 83.8239136 -938.731445
v 268.652557 117.663101 -918.189819
v 293.544159 96.7617874 -916.022705
v 310.85965 74.3958435 -906.418579
v 240.51181 132.676239 -888.290283
v 266.570892 112.661232 -889.322632
v 286.625397 91.6994247 -883.720825
v 298.646576 68.5669098 -870.816895
v 209.353577 151.228943 -856.012207
v 235.184174 132.361298 -858.660645
v 256.452484 112.391273 -856.240234
v 271.174408 90.5873337 -847.490601
v 277.673492 66.2649612 -832.463379
v 174.244995 171.329971 -821.991455
v 198.404114 155.14386 -824.019287
v 219.43808 136.543976 -823.128052
v 235.340363 115.638695 -817.714111
v 244.475677 92.143486 -807.136841
v 246.40451 66.6242371 -792.152466
v -25.3592072 142.599762 -650.226135
v 3.72271729 159.753281 -661.26593
v -43.1879272 158.191772 -650.883911
v 33.535675 173.901932 -679.136047
v -14.0030212 174.608017 -663.039246
v -59.1014709 170.446106 -655.957153
v 61.6878357 184.905029 -703.164917
v 14.2631226 187.492966 -682.959839
v -29.7875977 185.050354 -670.412415
v -72.0380859 180.132446 -667.318848
v 87.0480957 191.735779 -731.245728
v 40.3119507 196.907089 -709.045288
v -2.53189087 196.150665 -693.206848
v -42.8233948 192.506927 -684.896423
v -80.9080811 188.112411 -686.27887
v 109.70694 193.700256 -760.943848
v 64.4043884 201.909927 -738.831055
v 22.6699524 203.681122 -721.894043
v -16.0384216 201.558319 -710.820312
v -51.9891357 198.109726 -707.145264
v -84.4167328 194.562973 -713.03064
v 130.064606 190.811966 -790.600952
v 87.5327454 202.06929 -770.151855
v 47.0964355 206.892441 -754.053833
v 9.45239258 207.186737 -742.444336
v -25.0832367 204.96463 -736.312744
v -55.8074493 202.136841 -737.265381
v -81.8951111 199.094376 -746.336426
v 11.6065674 135.786865 -658.569641
v 50.3411255 126.717247 -671.707703
v 46.5127563 153.515381 -676.453552
v 89.691864 114.185333 -688.677612
v 88.5558167 143.815552 -696.243042
v 79.5252686 166.777664 -700.306152
v 129.290802 97.8376694 -707.942871
v 129.505859 129.519318 -718.580322
v 122.941803 154.895996 -724.803345
v 108.814087 175.534744 -728.416382
v 168.792053 78.9152374 -728.596191
v 169.728607 110.92997 -741.881348
v 164.448364 137.89537 -750.95813
v 152.49411 160.437424 -756.094604
v 134.150177 179.207291 -758.691772
v 206.700714 58.9717712 -751.028809
v 209.165833 89.3698654 -766.067017
v 204.985199 116.521736 -778.180664
v 194.33493 140.110733 -785.675781
v 177.497498 160.357544 -789.186157
v 155.743439 177.453583 -790.071167
v -30.2987518 118.319405 -647.007996
v -33.1888123 90.84021 -645.207642
v 8.57678223 107.783035 -653.306213
v -34.5558167 62.0100021 -646.551331
v 7.16064453 77.6491776 -649.603455
v 47.9562988 95.334198 -664.249207
v -35.3122559 33.9419327 -654.119019
v 6.50726318 47.0756989 -650.436829
v 47.0261536 62.76651 -659.436462
v 87.5793762 79.9974899 -679.237915
v -35.7068329 8.15493584 -670.36261
v 6.02954102 17.7931137 -659.271667
v 46.9568787 30.6374302 -661.017578
v 87.4205322 45.7228317 -674.3703
v 128.119812 62.1104813 -697.505005
v -34.7953033 -14.497963 -695.97644
v 5.97128296 -9.0239563 -678.676392
v 47.3269043 -0.0393066406 -672.744751
v 88.5187378 12.0330753 -678.333557
v 129.309662 26.5588722 -694.36145
v 169.174316 42.7309647 -719.223511
v -62.8177032 134.039993 -646.468628
v -95.69841 124.875664 -651.577759
v -68.4840393 106.803291 -646.488464
v -123.052856 116.264236 -665.484924
v -100.272171 95.9757233 -655.777954
v -71.3065491 77.9777908 -649.083618
v -143.958755 109.242393 -687.803345
v -125.97435 86.9828568 -674.243225
v -102.086777 67.1669388 -663.561523
v -72.5327911 49.6016159 -656.474548
v -157.639679 104.244682 -717.831665
v -145.141006 80.5305862 -701.640869
v -126.503311 59.0928497 -687.873535
v -102.677948 39.9739685 -677.567871
v -73.0469208 23.2082863 -671.51062
v -163.587662 100.845421 -754.526001
v -157.071381 76.7269821 -737.812988
v -144.271912 53.9380417 -722.352539
v -126.070618 33.2193146 -709.555054
v -102.43013 14.9839344 -700.728638
v -72.3971863 -0.663928986 -696.216797
v -82.2753296 150.381439 -650.317017
v -97.3193054 163.476624 -659.73584
v -114.000656 142.59729 -659.967529
v -107.180054 174.551437 -676.160889
v -126.045578 157.283142 -674.448181
v -138.186905 135.786545 -678.765198
v -110.88913 184.021622 -700.693359
v -131.281067 170.049789 -696.415283
v -145.766663 152.194946 -698.583374
v -154.518524 130.387451 -705.919067
v -107.581741 191.396835 -733.576538
v -128.723541 180.577942 -727.304321
v -144.994949 166.012894 -727.016357
v -156.186798 147.67868 -731.855835
v -162.363998 125.930031 -741.140137
g 
f 3 1 2
f 5 2 4
f 6 3 5
f 8 4 7
f 9 5 8
f 10 6 9
f 12 7 11
f 13 8 12
f 14 9 13
f 15 10 14
f 17 11 16
f 18 12 17
f 19 13 18
f 20 14 19
f 21 15 20
f 23 16 22
f 24 17 23
f 25 18 24
f 26 19 25
f 27 20 26
f 28 21 27
f 30 22 29
f 31 23 30
f 32 24 31
f 33 25 32
f 34 26 33
f 35 27 34
f 36 28 35
f 3 2 5
f 5 4 8
f 6 5 9
f 8 7 12
f 9 8 13
f 10 9 14
f 12 11 17
f 13 12 18
f 14 13 19
f 15 14 20
f 17 16 23
f 18 17 24
f 19 18 25
f 20 19 26
f 21 20 27
f 23 22 30
f 24 23 31
f 25 24 32
f 26 25 33
f 27 26 34
f 28 27 35
f 37 1 3
f 38 3 6
f 39 37 38
f 40 6 10
f 41 38 40
f 42 39 41
f 43 10 15
f 44 40 43
f 45 41 44
f 46 42 45
f 47 15 21
f 48 43 47
f 49 44 48
f 50 45 49
f 51 46 50
f 52 21 28
f 53 47 52
f 54 48 53
f 55 49 54
f 56 50 55
f 57 51 56
f 58 28 36
f 59 52 58
f 60 53 59
f 61 54 60
f 62 55 61
f 63 56 62
f 64 57 63
f 37 3 38
f 38 6 40
f 39 38 41
f 40 10 43
f 41 40 44
f 42 41 45
f 43 15 47
f 44 43 48
f 45 44 49
f 46 45 50
f 47 21 52
f 48 47 53
f 49 48 54
f 50 49 55
f 51 50 56
f 52 28 58
f 53 52 59
f 54 53 60
f 55 54 61
f 56 55 62
f 57 56 63
f 65 1 37
f 66 37 39
f 67 65 66
f 68 39 42
f 69 66 68
f 70 67 69
f 71 42 46
f 72 68 71
f 73 69 72
f 74 70 73
f 75 46 51
f 76 71 75
f 77 72 76
f 78 73 77
f 79 74 78
f 80 51 57
f 81 75 80
f 82 76 81
f 83 77 82
f 84 78 83
f 85 79 84
f 86 57 64
f 87 80 86
f 88 81 87
f 89 82 88
f 90 83 89
f 91 84 90
f 92 85 91
f 65 37 66
f 66 39 68
f 67 66 69
f 68 42 71
f 69 68 72
f 70 69 73
f 71 46 75
f 72 71 76
f 73 72 77
f 74 73 78
f 75 51 80
f 76 75 81
f 77 76 82
f 78 77 83
f 79 78 84
f 80 57 86
f 81 80 87
f 82 81 88
f 83 82 89
f 84 83 90
f 85 84 91
f 93 1 65
f 94 65 67
f 95 93 94
f 96 67 70
f 97 94 96
f 98 95 97
f 99 70 74
f 100 96 99
f 101 97 100
f 102 98 101
f 103 74 79
f 104 99 103
f 105 100 104
f 106 101 105
f 107 102 106
f 108 79 85
f 109 103 108
f 110 104 109
f 111 105 110
f 112 106 111
f 113 107 112
f 114 85 92
f 115 108 114
f 116 109 115
f 117 110 116
f 118 111 117
f 119 112 118
f 120 113 119
f 93 65 94
f 94 67 96
f 95 94 97
f 96 70 99
f 97 96 100
f 98 97 101
f 99 74 103
f 100 99 104
f 101 100 105
f 102 101 106
f 103 79 108
f 104 103 109
f 105 104 110
f 106 105 111
f 107 106 112
f 108 85 114
f 109 108 115
f 110 109 116
f 111 110 117
f 112 111 118
f 113 112 119
f 2 1 93
f 121 93 95
f 4 2 121
f 122 95 98
f 123 121 122
f 7 4 123
f 124 98 102
f 125 122 124
f 126 123 125
f 11 7 126
f 127 102 107
f 128 124 127
f 129 125 128
f 130 126 129
f 16 11 130
f 131 107 113
f 132 127 131
f 133 128 132
f 134 129 133
f 135 130 134
f 22 16 135
f 136 113 120
f 137 131 136
f 138 132 137
f 139 133 138
f 140 134 139
f 141 135 140
f 29 22 141
f 2 93 121
f 121 95 122
f 4 121 123
f 122 98 124
f 123 122 125
f 7 123 126
f 124 102 127
f 125 124 128
f 126 125 129
f 11 126 130
f 127 107 131
f 128 127 132
f 129 128 133
f 130 129 134
f 16 130 135
f 131 113 136
f 132 131 137
f 133 132 138
f 134 133 139
f 135 134 140
f 22 135 141
f 142 29 141
f 143 141 140
f 144 142 143
f 145 140 139
f 146 143 145
f 147 144 146
f 148 139 138
f 149 145 148
f 150 146 149
f 151 147 150
f 152 138 137
f 153 148 152
f 154 149 153
f 155 150 154
f 156 151 155
f 157 137 136
f 158 152 157
f 159 153 158
f 160 154 159
f 161 155 160
f 162 156 161
f 163 136 120
f 164 157 163
f 165 158 164
f 166 159 165
f 167 160 166
f 168 161 167
f 169 162 168
f 142 141 143
f 143 140 145
f 144 143 146
f 145 139 148
f 146 145 149
f 147 146 150
f 148 138 152
f 149 148 153
f 150 149 154
f 151 150 155
f 152 137 157
f 153 152 158
f 154 153 159
f 155 154 160
f 156 155 161
f 157 136 163
f 158 157 164
f 159 158 165
f 160 159 166
f 161 160 167
f 162 161 168
f 170 120 119
f 171 119 118
f 172 170 171
f 173 118 117
f 174 171 173
f 175 172 174
f 176 117 116
f 177 173 176
f 178 174 177
f 179 175 178
f 180 116 115
f 181 176 180
f 182 177 181
f 183 178 182
f 184 179 183
f 185 115 114
f 186 180 185
f 187 181 186
f 188 182 187
f 189 183 188
f 190 184 189
f 191 114 92
f 192 185 191
f 193 186 192
f 194 187 193
f 195 188 194
f 196 189 195
f 197 190 196
f 170 119 171
f 171 118 173
f 172 171 174
f 173 117 176
f 174 173 177
f 175 174 178
f 176 116 180
f 177 176 181
f 178 177 182
f 179 178 183
f 180 115 185
f 181 180 186
f 182 181 187
f 183 182 188
f 184 183 189
f 185 114 191
f 186 185 192
f 187 186 193
f 188 187 194
f 189 188 195
f 190 189 196
f 198 92 91
f 199 91 90
f 200 198 199
f 201 90 89
f 202 199 201
f 203 200 202
f 204 89 88
f 205 201 204
f 206 202 205
f 207 203 206
f 208 88 87
f 209 204 208
f 210 205 209
f 211 206 210
f 212 207 211
f 213 87 86
f 214 208 213
f 215 209 214
f 216 210 215
f 217 211 216
f 218 212 217
f 219 86 64
f 220 213 219
f 221 214 220
f 222 215 221
f 223 216 222
f 224 217 223
f 225 218 224
f 198 91 199
f 199 90 201
f 200 199 202
f 201 89 204
f 202 201 205
f 203 202 206
f 204 88 208
f 205 204 209
f 206 205 210
f 207 206 211
f 208 87 213
f 209 208 214
f 210 209 215
f 211 210 216
f 212 211 217
f 213 86 219
f 214 213 220
f 215 214 221
f 216 215 222
f 217 216 223
f 218 217 224
f 226 64 63
f 227 63 62
f 228 226 227
f 229 62 61
f 230 227 229
f 231 228 230
f 232 61 60
f 233 229 232
f 234 230 233
f 235 231 234
f 236 60 59
f 237 232 236
f 238 233 237
f 239 234 238
f 240 235 239
f 241 59 58
f 242 236 241
f 243 237 242
f 244 238 243
f 245 239 244
f 246 240 245
f 247 58 36
f 248 241 247
f 249 242 248
f 250 243 249
f 251 244 250
f 252 245 251
f 253 246 252
f 226 63 227
f 227 62 229
f 228 227 230
f 229 61 232
f 230 229 233
f 231 230 234
f 232 60 236
f 233 232 237
f 234 233 238
f 235 234 239
f 236 59 241
f 237 236 242
f 238 237 243
f 239 238 244
f 240 239 245
f 241 58 247
f 242 241 248
f 243 242 249
f 244 243 250
f 245 244 251
f 246 245 252
f 254 36 35
f 255 35 34
f 256 254 255
f 257 34 33
f 258 255 257
f 259 256 258
f 260 33 32
f 261 257 260
f 262 258 261
f 263 259 262
f 264 32 31
f 265 260 264
f 266 261 265
f 267 262 266
f 268 263 267
f 269 31 30
f 270 264 269
f 271 265 270
f 272 266 271
f 273 267 272
f 274 268 273
f 275 30 29
f 276 269 275
f 277 270 276
f 278 271 277
f 279 272 278
f 280 273 279
f 281 274 280
f 254 35 255
f 255 34 257
f 256 255 258
f 257 33 260
f 258 257 261
f 259 258 262
f 260 32 264
f 261 260 265
f 262 261 266
f 263 262 267
f 264 31 269
f 265 264 270
f 266 265 271
f 267 266 272
f 268 267 273
f 269 30 275
f 270 269 276
f 271 270 277
f 272 271 278
f 273 272 279
f 274 273 280
f 275 29 142
f 282 142 144
f 276 275 282
f 283 144 147
f 284 282 283
f 277 276 284
f 285 147 151
f 286 283 285
f 287 284 286
f 278 277 287
f 288 151 156
f 289 285 288
f 290 286 289
f 291 287 290
f 279 278 291
f 292 156 162
f 293 288 292
f 294 289 293
f 295 290 294
f 296 291 295
f 280 279 296
f 297 162 169
f 298 292 297
f 299 293 298
f 300 294 299
f 301 295 300
f 302 296 301
f 281 280 302
f 275 142 282
f 282 144 283
f 276 282 284
f 283 147 285
f 284 283 286
f 277 284 287
f 285 151 288
f 286 285 289
f 287 286 290
f 278 287 291
f 288 156 292
f 289 288 293
f 290 289 294
f 291 290 295
f 279 291 296
f 292 162 297
f 293 292 298
f 294 293 299
f 295 294 300
f 296 295 301
f 280 296 302
f 163 120 170
f 303 170 172
f 164 163 303
f 304 172 175
f 305 303 304
f 165 164 305
f 306 175 179
f 307 304 306
f 308 305 307
f 166 165 308
f 309 179 184
f 310 306 309
f 311 307 310
f 312 308 311
f 167 166 312
f 313 184 190
f 314 309 313
f 315 310 314
f 316 311 315
f 317 312 316
f 168 167 317
f 318 190 197
f 319 313 318
f 320 314 319
f 321 315 320
f 322 316 321
f 323 317 322
f 169 168 323
f 163 170 303
f 303 172 304
f 164 303 305
f 304 175 306
f 305 304 307
f 165 305 308
f 306 179 309
f 307 306 310
f 308 307 311
f 166 308 312
f 309 184 313
f 310 309 314
f 311 310 315
f 312 311 316
f 167 312 317
f 313 190 318
f 314 313 319
f 315 314 320
f 316 315 321
f 317 316 322
f 168 317 323
f 191 92 198
f 324 198 200
f 192 191 324
f 325 200 203
f 326 324 325
f 193 192 326
f 327 203 207
f 328 325 327
f 329 326 328
f 194 193 329
f 330 207 212
f 331 327 330
f 332 328 331
f 333 329 332
f 195 194 333
f 334 212 218
f 335 330 334
f 336 331 335
f 337 332 336
f 338 333 337
f 196 195 338
f 339 218 225
f 340 334 339
f 341 335 340
f 342 336 341
f 343 337 342
f 344 338 343
f 197 196 344
f 191 198 324
f 324 200 325
f 192 324 326
f 325 203 327
f 326 325 328
f 193 326 329
f 327 207 330
f 328 327 331
f 329 328 332
f 194 329 333
f 330 212 334
f 331 330 335
f 332 331 336
f 333 332 337
f 195 333 338
f 334 218 339
f 335 334 340
f 336 335 341
f 337 336 342
f 338 337 343
f 196 338 344
f 219 64 226
f 345 226 228
f 220 219 345
f 346 228 231
f 347 345 346
f 221 220 347
f 348 231 235
f 349 346 348
f 350 347 349
f 222 221 350
f 351 235 240
f 352 348 351
f 353 349 352
f 354 350 353
f 223 222 354
f 355 240 246
f 356 351 355
f 357 352 356
f 358 353 357
f 359 354 358
f 224 223 359
f 360 246 253
f 361 355 360
f 362 356 361
f 363 357 362
f 364 358 363
f 365 359 364
f 225 224 365
f 219 226 345
f 345 228 346
f 220 345 347
f 346 231 348
f 347 346 349
f 221 347 350
f 348 235 351
f 349 348 352
f 350 349 353
f 222 350 354
f 351 240 355
f 352 351 356
f 353 352 357
f 354 353 358
f 223 354 359
f 355 246 360
f 356 355 361
f 357 356 362
f 358 357 363
f 359 358 364
f 224 359 365
f 247 36 254
f 366 254 256
f 248 247 366
f 367 256 259
f 368 366 367
f 249 248 368
f 369 259 263
f 370 367 369
f 371 368 370
f 250 249 371
f 372 263 268
f 373 369 372
f 374 370 373
f 375 371 374
f 251 250 375
f 376 268 274
f 377 372 376
f 378 373 377
f 379 374 378
f 380 375 379
f 252 251 380
f 381 274 281
f 382 376 381
f 383 377 382
f 384 378 383
f 385 379 384
f 386 380 385
f 253 252 386
f 247 254 366
f 366 256 367
f 248 366 368
f 367 259 369
f 368 367 370
f 249 368 371
f 369 263 372
f 370 369 373
f 371 370 374
f 250 371 375
f 372 268 376
f 373 372 377
f 374 373 378
f 375 374 379
f 251 375 380
f 376 274 381
f 377 376 382
f 378 377 383
f 379 378 384
f 380 379 385
f 252 380 386
f 389 387 388
f 391 388 390
f 392 389 391
f 394 390 393
f 395 391 394
f 396 392 395
f 398 393 397
f 399 394 398
f 400 395 399
f 401 396 400
f 403 397 402
f 404 398 403
f 405 399 404
f 406 400 405
f 407 401 406
f 409 402 408
f 410 403 409
f 411 404 410
f 412 405 411
f 413 406 412
f 414 407 413
f 302 408 281
f 301 409 302
f 300 410 301
f 299 411 300
f 298 412 299
f 297 413 298
f 169 414 297
f 389 388 391
f 391 390 394
f 392 391 395
f 394 393 398
f 395 394 399
f 396 395 400
f 398 397 403
f 399 398 404
f 400 399 405
f 401 400 406
f 403 402 409
f 404 403 410
f 405 404 411
f 406 405 412
f 407 406 413
f 409 408 302
f 410 409 301
f 411 410 300
f 412 411 299
f 413 412 298
f 414 413 297
f 388 387 415
f 417 415 416
f 390 388 417
f 419 416 418
f 420 417 419
f 393 390 420
f 422 418 421
f 423 419 422
f 424 420 423
f 397 393 424
f 426 421 425
f 427 422 426
f 428 423 427
f 429 424 428
f 402 397 429
f 431 425 430
f 432 426 431
f 433 427 432
f 434 428 433
f 435 429 434
f 408 402 435
f 386 430 253
f 385 431 386
f 384 432 385
f 383 433 384
f 382 434 383
f 381 435 382
f 281 408 381
f 388 415 417
f 417 416 419
f 390 417 420
f 419 418 422
f 420 419 423
f 393 420 424
f 422 421 426
f 423 422 427
f 424 423 428
f 397 424 429
f 426 425 431
f 427 426 432
f 428 427 433
f 429 428 434
f 402 429 435
f 431 430 386
f 432 431 385
f 433 432 384
f 434 433 383
f 435 434 382
f 408 435 381
f 415 387 436
f 438 436 437
f 416 415 438
f 440 437 439
f 441 438 440
f 418 416 441
f 443 439 442
f 444 440 443
f 445 441 444
f 421 418 445
f 447 442 446
f 448 443 447
f 449 444 448
f 450 445 449
f 425 421 450
f 452 446 451
f 453 447 452
f 454 448 453
f 455 449 454
f 456 450 455
f 430 425 456
f 365 451 225
f 364 452 365
f 363 453 364
f 362 454 363
f 361 455 362
f 360 456 361
f 253 430 360
f 415 436 438
f 438 437 440
f 416 438 441
f 440 439 443
f 441 440 444
f 418 441 445
f 443 442 447
f 444 443 448
f 445 444 449
f 421 445 450
f 447 446 452
f 448 447 453
f 449 448 454
f 450 449 455
f 425 450 456
f 452 451 365
f 453 452 364
f 454 453 363
f 455 454 362
f 456 455 361
f 430 456 360
f 436 387 457
f 459 457 458
f 437 436 459
f 461 458 460
f 462 459 461
f 439 437 462
f 464 460 463
f 465 461 464
f 466 462 465
f 442 439 466
f 468 463 467
f 469 464 468
f 470 465 469
f 471 466 470
f 446 442 471
f 473 467 472
f 474 468 473
f 475 469 474
f 476 470 475
f 477 471 476
f 451 446 477
f 344 472 197
f 343 473 344
f 342 474 343
f 341 475 342
f 340 476 341
f 339 477 340
f 225 451 339
f 436 457 459
f 459 458 461
f 437 459 462
f 461 460 464
f 462 461 465
f 439 462 466
f 464 463 468
f 465 464 469
f 466 465 470
f 442 466 471
f 468 467 473
f 469 468 474
f 470 469 475
f 471 470 476
f 446 471 477
f 473 472 344
f 474 473 343
f 475 474 342
f 476 475 341
f 477 476 340
f 451 477 339
f 457 387 389
f 478 389 392
f 458 457 478
f 479 392 396
f 480 478 479
f 460 458 480
f 481 396 401
f 482 479 481
f 483 480 482
f 463 460 483
f 484 401 407
f 485 481 484
f 486 482 485
f 487 483 486
f 467 463 487
f 488 407 414
f 489 484 488
f 490 485 489
f 491 486 490
f 492 487 491
f 472 467 492
f 323 414 169
f 322 488 323
f 321 489 322
f 320 490 321
f 319 491 320
f 318 492 319
f 197 472 318
f 457 389 478
f 478 392 479
f 458 478 480
f 479 396 481
f 480 479 482
f 460 480 483
f 481 401 484
f 482 481 485
f 483 482 486
f 463 483 487
f 484 407 488
f 485 484 489
f 486 485 490
f 487 486 491
f 467 487 492
f 488 414 323
f 489 488 322
f 490 489 321
f 491 490 320
f 492 491 319
f 472 492 318
