# File exported by Houdini 20.5.445 (www.sidefx.com)
# 492 points
# 2940 vertices
# 980 primitives
# Bounds: [-133.200378, -184.745911, -1083.20654] to [303.974274, 301.123016, -671.594482]
g 
v 75.8507996 109.333176 -997.958008
v 64.6545715 145.127319 -1001.92163
v 95.7153015 112.063797 -984.885498
v 54.9291077 176.55867 -1004.39062
v 87.4008484 149.766891 -988.346436
v 117.63266 112.896835 -972.633057
v 47.9022522 203.906952 -1005.77747
v 81.3453674 181.949432 -990.90918
v 112.095612 151.979828 -975.776611
v 142.273407 113.759048 -961.059814
v 44.0038757 227.679733 -1005.90442
v 77.9665833 210.17421 -992.930786
v 109.134918 185.084595 -978.332153
v 139.480682 154.099854 -964.085083
v 169.678375 116.720215 -949.320801
v 42.3461609 248.296722 -1004.16138
v 76.6711731 235.602829 -993.748657
v 108.33316 214.855118 -980.232544
v 138.98465 188.825211 -966.360718
v 169.351227 158.392563 -952.057373
v 198.654449 123.259872 -935.973999
v 41.8996887 265.623444 -999.554077
v 76.3448792 258.394531 -992.053467
v 108.816742 242.517044 -980.238159
v 140.24173 220.833755 -967.139893
v 171.119415 195.064621 -953.18042
v 200.762787 165.921722 -937.618286
v 227.378082 133.167252 -919.675293
v 41.9472351 279.236847 -990.596069
v 75.8537903 277.629791 -986.007446
v 109.262054 267.650726 -976.196899
v 142.123932 250.930939 -964.192627
v 174.272308 229.367172 -950.889771
v 204.771576 204.112122 -935.75061
v 231.839935 175.810394 -918.519897
v 253.519684 144.559677 -899.689331
v 98.6560974 71.6133118 -983.895508
v 120.705048 70.9552307 -970.302612
v 120.626556 30.2646103 -968.82373
v 144.281403 70.3772278 -958.256592
v 144.099091 28.5502129 -955.644043
v 142.043549 -12.4464722 -952.949829
v 170.062469 72.3341064 -946.276978
v 168.629974 29.3443642 -943.507568
v 166.548065 -12.89077 -940.00647
v 163.152985 -53.4250946 -935.424683
v 197.933136 78.3555603 -932.701294
v 194.972382 34.4107323 -930.032104
v 191.741364 -9.02312469 -926.738647
v 188.637177 -50.8205261 -921.36792
v 184.515228 -89.0735626 -913.862793
v 226.728729 89.0448914 -915.912231
v 223.013885 44.5437737 -913.164673
v 218.567841 -0.0690288544 -910.318237
v 214.972443 -43.3553619 -905.167847
v 211.281281 -83.0310974 -897.385986
v 206.409332 -117.569168 -888.161255
v 254.646881 103.390045 -894.650513
v 251.688324 59.7204475 -891.057251
v 246.932465 14.4638233 -888.219727
v 242.8591 -30.4546318 -883.720947
v 239.412994 -72.3549957 -876.623169
v 234.83548 -108.793213 -868.335571
v 228.361664 -138.473816 -860.074951
v 72.620636 81.5428314 -1002.98438
v 96.6802673 38.1447372 -986.067139
v 71.8780823 50.6989708 -1007.22766
v 118.958282 -6.57908249 -968.430908
v 97.0426331 3.8216095 -987.208862
v 73.2658386 18.131155 -1010.37109
v 140.179718 -50.5413818 -949.738037
v 119.720734 -42.2071762 -966.454468
v 99.3211365 -30.3257713 -986.788208
v 76.3355408 -14.5829163 -1011.04297
v 161.437653 -90.6858368 -927.923584
v 141.248627 -85.602066 -943.714844
v 122.351166 -76.0811615 -962.139404
v 102.624969 -62.7658463 -983.96167
v 79.749054 -45.5669098 -1008.23181
v 183.667084 -124.32254 -901.352661
v 163.012054 -123.635757 -916.477539
v 144.246979 -117.719604 -934.324219
v 125.750458 -106.966156 -954.932251
v 105.609161 -91.7441254 -977.761108
v 81.7583313 -72.3204269 -1001.9502
v 206.970612 -150.044937 -870.777466
v 185.89566 -154.395325 -884.048828
v 166.327484 -152.87085 -900.853149
v 147.557587 -145.723587 -921.165283
v 127.823334 -132.665634 -944.143188
v 105.788727 -114.666794 -968.154053
v 80.516571 -92.694458 -992.543213
v 49.6004333 126.243927 -1014.6449
v 46.1190491 96.6830444 -1022.99402
v 22.8265076 138.243515 -1030.66467
v 45.6325378 64.9501038 -1030.03845
v 19.4241028 106.939713 -1041.94922
v -4.41390991 145.869568 -1044.73633
v 47.4761047 32.28265 -1034.4939
v 19.0926208 74.6459656 -1050.79663
v -8.01525879 113.524689 -1058.4928
v -31.8221741 149.364105 -1056.02698
v 50.8171692 -0.295320511 -1034.86987
v 20.9624329 41.952877 -1055.30066
v -8.6423645 80.9997559 -1068.05408
v -35.9262695 116.704834 -1071.02271
v -58.1313477 148.984909 -1062.97095
v 53.709137 -30.9796371 -1031.14099
v 23.5857849 9.7667923 -1055.18713
v -7.53735352 48.6081429 -1072.22021
v -37.2978516 84.5739899 -1079.99426
v -62.8197937 116.923172 -1077.03796
v -81.5014954 145.54216 -1063.50977
v 53.9964905 -57.3817291 -1022.90149
v 24.7347717 -20.2556686 -1049.80566
v -6.66824341 17.0514355 -1070.54675
v -37.7463074 52.7948036 -1082.20386
v -65.3652954 85.630722 -1083.20654
v -86.7160339 114.770294 -1073.86084
v -100.481689 140.303131 -1056.29333
v 34.5622864 162.270477 -1017.59692
v 5.5428772 172.865021 -1030.38037
v 22.6856995 191.750504 -1017.84436
v -22.6479797 177.973083 -1039.95886
v -7.04821777 199.62532 -1026.80457
v 14.8388977 216.040634 -1016.24182
v -49.8252258 178.085342 -1046.06726
v -35.1532288 201.48381 -1031.91321
v -14.9989319 220.617279 -1021.22754
v 10.6083679 236.246567 -1012.95581
v -74.8745117 173.924911 -1047.1897
v -61.5884705 198.187088 -1032.47998
v -42.8118591 219.183594 -1021.22974
v -19.2067566 237.500961 -1013.31335
v 8.96542358 253.206543 -1007.12244
v -96.6841431 166.643295 -1041.44128
v -85.9220886 190.775864 -1026.81226
v -69.0458374 212.871979 -1015.01221
v -47.0213318 233.15564 -1006.8623
v -20.7176208 251.512085 -1001.55005
v 9.15753174 267.253876 -997.076782
v 20.7425842 281.769989 -981.101807
v -15.0033569 265.227264 -985.491943
v -0.87689209 279.183716 -966.561279
v -45.8069763 245.75415 -989.072876
v -38.0065002 258.942108 -970.105835
v -22.6078491 273.190918 -949.067017
v -71.7185669 224.677582 -994.622559
v -68.585083 237.001831 -973.897095
v -59.7965393 250.728546 -952.764526
v -43.2688904 264.410034 -929.573486
v -92.3897095 202.278519 -1003.85461
v -93.2024231 214.053909 -980.477173
v -89.1000061 227.24675 -957.43335
v -78.9171753 240.728363 -933.873535
v -61.5371399 253.040375 -908.686157
v -106.972748 178.09874 -1017.16455
v -111.624451 189.65889 -991.111816
v -111.507874 202.625763 -965.117432
v -105.817322 216.045639 -939.235352
v -94.2697144 228.960281 -913.304688
v -76.7163696 239.414764 -886.919922
v -114.010742 151.202148 -1033.27271
v -122.491272 162.547714 -1005.83142
v -126.340576 175.511429 -976.823486
v -124.672882 189.151276 -947.44104
v -117.455139 202.688248 -918.652466
v -105.016022 214.57399 -891.186279
v -87.7328796 222.852676 -865.256836
v -108.309692 119.742798 -1055.3241
v -91.1682129 89.6708679 -1073.36121
v -111.178467 98.7178345 -1049.56055
v -66.8256836 57.4011269 -1080.7168
v -90.8192139 65.0610046 -1066.33789
v -109.810913 78.342041 -1038.52393
v -37.2130737 23.078743 -1076.21887
v -64.5444641 30.9710388 -1070.28113
v -87.1351929 42.4704132 -1052.06519
v -105.043793 60.0037041 -1021.25183
v -5.0090332 -12.8595619 -1060.07056
v -34.2589417 -3.92159271 -1061.13611
v -60.0289001 7.62803078 -1051.18884
v -81.1000671 23.2311211 -1029.78613
v -97.4978638 44.344059 -997.363159
v 27.346283 -49.6639862 -1034.01489
v -1.69833374 -39.841156 -1039.40588
v -29.5735168 -27.5315781 -1036.17468
v -53.6523743 -11.9433441 -1022.8064
v -72.9524841 7.49118042 -999.504639
v -87.2626953 30.3947411 -967.921997
v 58.6719055 -86.3123016 -1000.68481
v 31.9724426 -76.7155304 -1006.65247
v 3.80462646 -64.0013809 -1007.40027
v -22.4829407 -47.774292 -1000.46863
v -44.6840515 -28.2454681 -985.101807
v -61.652832 -6.48703003 -962.383545
v -73.6076965 16.9142857 -934.873047
v 92.6981506 -120.719635 -964.596069
v 121.082672 -144.753693 -935.934448
v 102.332245 -141.295853 -933.318115
v 145.337067 -162.185928 -908.971069
v 133.385284 -163.939896 -901.649902
v 110.102386 -152.852707 -899.528076
v 166.912628 -172.323441 -884.764771
v 159.833527 -178.330292 -873.49939
v 144.025909 -171.797256 -866.533936
v 117.404633 -154.895309 -864.233887
v 188.075104 -175.640549 -864.968262
v 184.390106 -184.701782 -849.945068
v 173.447906 -182.0634 -839.028931
v 154.425323 -169.170883 -831.81311
v 125.920258 -149.340378 -828.500732
v 210.883453 -172.429245 -849.60498
v 209.68222 -184.129074 -831.52063
v 202.233917 -184.745911 -816.856262
v 187.576874 -175.58255 -805.674561
v 165.594757 -158.936234 -797.549988
v 136.200592 -137.977036 -793.15094
v 235.230865 -161.369156 -838.058838
v 237.295807 -175.740891 -817.969849
v 233.093475 -180.016693 -800.212646
v 221.385712 -174.637802 -785.127319
v 202.391022 -161.431427 -772.908569
v 177.196075 -142.970596 -763.987366
v 147.117706 -121.979813 -759.380249
v 254.128143 -135.149841 -836.768921
v 261.351593 -99.2359467 -844.672607
v 277.113922 -123.583496 -814.494202
v 265.317047 -57.2307663 -852.470459
v 282.989166 -81.7845154 -822.203491
v 294.369293 -105.001877 -793.56781
v 268.159149 -11.3344231 -858.80127
v 285.255829 -35.4686661 -829.299072
v 297.884735 -58.8880463 -800.829163
v 302.767548 -81.4317474 -774.157715
v 272.087982 36.2437668 -862.849609
v 287.1185 13.1790142 -834.61731
v 298.342072 -9.88752747 -806.77002
v 303.974274 -32.7611542 -780.364624
v 300.927094 -54.4261932 -756.208069
v 276.008148 83.750885 -866.649536
v 290.205414 62.8420219 -838.369019
v 299.12674 40.6906128 -810.865295
v 302.874115 17.9139729 -784.652405
v 300.320831 -4.43770981 -760.740906
v 290.471649 -24.6286812 -739.607117
v 276.226288 130.166885 -872.676025
v 291.465118 112.907288 -843.815308
v 299.726837 92.7652283 -815.071167
v 301.438507 70.634201 -787.844421
v 297.15567 48.0001183 -763.290222
v 288.040131 26.5620422 -742.201599
v 274.991852 8.06269646 -724.504211
v 263.191925 174.720932 -889.345703
v 238.225189 207.735092 -910.612427
v 265.799774 200.908417 -878.052368
v 207.850555 235.325729 -928.841675
v 237.045868 233.591064 -900.867676
v 259.982819 222.047714 -865.388184
v 174.316742 258.040924 -943.979736
v 203.445648 259.089996 -919.211914
v 228.137665 253.005402 -888.693115
v 246.083771 238.183121 -851.453003
v 138.985443 275.714355 -956.90625
v 166.832733 278.595215 -933.888672
v 191.78183 275.63089 -906.53418
v 211.865997 266.287476 -874.188843
v 224.932587 249.563049 -836.619263
v 102.205658 287.381744 -968.275269
v 127.752167 292.121185 -946.18689
v 151.775238 291.616577 -920.387573
v 172.708649 285.529602 -890.857544
v 188.522919 273.748993 -857.50769
v 197.944122 256.091461 -820.7453
v 63.5700989 290.840515 -975.849609
v 85.7671814 298.33429 -956.052734
v 107.752655 300.725677 -931.571655
v 128.338104 297.569061 -903.275146
v 145.775421 288.941864 -872.02771
v 158.630768 275.504547 -838.595093
v 166.732452 258.070709 -804.191833
v 41.7361145 293.684784 -962.852539
v 19.8243713 290.865753 -945.374023
v 62.7980652 300.44577 -940.189941
v -2.00125122 283.884064 -925.377686
v 40.2348328 296.313324 -920.567871
v 83.1633606 301.123016 -913.012085
v -22.9542236 272.79892 -903.302734
v 17.6413269 287.06015 -898.309814
v 59.1557312 294.96582 -891.20874
v 101.594452 295.573425 -881.744751
v -42.6767883 257.820831 -879.580078
v -4.837677 272.293182 -873.463379
v 34.9402161 282.252258 -866.188232
v 75.5857239 286.436859 -856.832886
v 116.92337 284.077637 -847.096069
v -59.7167969 238.880249 -854.610229
v -26.3614807 252.166656 -845.930054
v 10.6621399 262.64505 -837.240479
v 49.7815857 269.440094 -827.451294
v 89.6335144 271.253754 -817.667358
v 129.058441 267.316925 -809.830017
v -122.266144 131.869492 -1026.77783
v -124.74295 113.500717 -1016.49927
v -130.649902 145.498825 -994.660034
v -122.463379 96.3212738 -1001.77551
v -131.914856 129.425232 -980.386353
v -133.200378 160.027603 -961.132812
v -116.012848 80.4424744 -981.476685
v -127.660858 113.893509 -961.885864
v -132.526855 145.174576 -942.686279
v -129.727509 174.680847 -927.352295
v -105.751617 65.1202393 -955.439209
v -118.606171 98.1433411 -938.356323
v -125.829254 129.693481 -920.32019
v -126.830231 159.872803 -904.77124
v -120.383087 188.309128 -894.459229
v -90.8822632 49.161293 -924.34436
v -103.965576 80.950531 -909.50061
v -112.732635 112.28923 -893.054565
v -116.584503 143.027298 -878.184937
v -114.313995 172.347183 -867.600586
v -104.808319 199.161316 -863.117432
v 67.4390564 -111.492661 -969.411499
v 73.2315369 -127.669067 -935.855469
v 38.4020691 -98.3998413 -971.644043
v 78.2322083 -134.671875 -900.164551
v 42.4718323 -110.491638 -935.166382
v 9.7694397 -81.5421753 -968.60376
v 84.7779846 -133.878311 -862.162354
v 47.3161316 -114.728699 -896.550171
v 14.3545837 -90.3770447 -928.683838
v -15.5672607 -61.2053986 -958.442383
v 94.6863708 -126.199692 -822.400269
v 55.5154724 -111.426437 -854.658081
v 20.8489075 -91.8421478 -886.225342
v -9.05758667 -66.7993774 -914.976562
v -35.9403076 -37.7978058 -940.710815
v 107.835175 -111.708801 -781.493164
v 68.6186829 -100.068619 -809.473328
v 32.2270203 -84.6768951 -839.317505
v 0.669525146 -64.04879 -867.888428
v -26.3684082 -38.86409 -893.777466
v -50.7900696 -11.2838058 -916.381958
v 261.682465 -155.893509 -812.35907
v 282.460419 -141.853622 -789.713318
v 261.678131 -166.121429 -791.506165
v 294.253754 -121.361938 -769.388
v 277.270111 -148.960663 -768.855164
v 252.771698 -165.904846 -772.906738
v 295.085724 -95.6334229 -750.958496
v 281.981293 -125.847076 -748.680664
v 261.732819 -145.420166 -749.541016
v 234.958344 -156.42276 -756.364929
v 285.763702 -64.7771606 -733.995911
v 275.850494 -96.4903564 -730.335571
v 259.652802 -118.550262 -728.628906
v 237.182648 -132.06485 -731.622864
v 209.295441 -139.430344 -742.583069
v 269.463593 -28.0081253 -718.149536
v 260.711761 -59.2628326 -713.491516
v 247.203094 -83.2187958 -709.887939
v 228.225616 -99.5690765 -709.772095
v 204.302155 -110.010162 -716.707336
v 176.832367 -116.781448 -733.015747
v 284.364838 160.019272 -857.25
v 282.781525 183.835327 -842.161621
v 295.184296 141.577499 -825.08844
v 271.496796 202.674362 -827.170715
v 287.689117 163.537582 -808.024353
v 296.945587 120.247818 -794.67688
v 251.709503 217.763474 -812.310425
v 270.534515 181.500397 -792.018494
v 283.194 141.495331 -776.709473
v 291.389801 97.4145813 -766.963928
v 224.585419 229.132751 -797.034912
v 245.078278 196.69278 -776.336182
v 260.478668 159.719742 -759.889099
v 271.77829 118.958466 -748.510071
v 280.614044 74.4911652 -742.669556
v 191.12265 236.22821 -780.804749
v 211.92276 208.690842 -759.869385
v 229.290131 175.609222 -742.747131
v 243.619171 137.911545 -730.488098
v 255.721405 96.5197601 -723.652588
v 266.233612 52.6530266 -721.981323
v 71.023407 107.801315 -695.751587
v 80.2120056 138.441666 -688.348877
v 38.0040588 128.562271 -712.051941
v 89.6342468 166.315399 -690.021667
v 46.1097107 161.121735 -707.223145
v 5.77526855 147.340698 -732.573242
v 100.786713 190.826263 -700.802185
v 56.4943542 189.224701 -713.090149
v 15.0206604 180.004227 -731.758423
v -23.3027344 165.314331 -756.295959
v 114.503998 211.831345 -719.599243
v 70.3578186 213.316208 -728.312561
v 28.1809387 207.502274 -742.209656
v -11.2049866 197.118011 -760.111206
v -47.5284119 182.763702 -782.049316
v 131.011322 229.691345 -744.555481
v 87.7489319 234.104858 -750.82428
v 45.5475769 231.23642 -761.38324
v 5.36437988 223.798172 -775.073792
v -32.0402832 213.112274 -790.567505
v -66.042572 199.097488 -809.0354
v 149.099213 244.932739 -773.348083
v 107.821808 252.099701 -778.518616
v 66.4583435 252.396667 -787.006042
v 26.0271912 247.49118 -798.1026
v -12.4219055 238.902054 -809.871338
v -47.8625488 227.524139 -822.200378
v -79.109314 212.956833 -836.872559
v 108.498505 102.842453 -678.981384
v 143.105316 92.3594818 -671.594482
v 120.00882 133.75415 -676.200317
v 174.322845 76.7101135 -672.682556
v 154.96109 122.899078 -674.238464
v 130.533966 160.515457 -682.76355
v 202.611053 57.7200279 -680.22644
v 185.913727 107.089249 -679.839905
v 165.73941 148.700272 -685.214783
v 142.170929 183.347351 -697.777893
v 228.794098 38.2612801 -692.128479
v 214.19809 88.4595184 -690.446777
v 197.320648 132.703476 -693.904175
v 178.049164 170.817978 -703.420776
v 156.238251 202.951904 -719.902222
v 253.219147 21.1311836 -706.989929
v 240.979034 69.5991669 -704.500427
v 227.00473 114.608475 -706.768799
v 211.363129 155.048584 -714.608398
v 193.446686 190.34288 -728.321777
v 172.976837 220.219559 -747.986023
v 84.474823 73.1498413 -696.332153
v 94.9845886 36.8648529 -698.978577
v 123.561554 62.9305305 -679.217834
v 103.089874 0.476654053 -703.075562
v 134.634491 22.897171 -681.79126
v 158.050934 47.1785698 -673.334412
v 111.238495 -34.4582291 -710.279175
v 143.723724 -15.8373413 -686.649414
v 169.476959 3.69625664 -677.475769
v 188.839264 27.3783646 -676.374146
v 121.366425 -66.7929611 -722.320801
v 153.302826 -52.2503967 -696.026672
v 179.906219 -37.0803375 -684.717896
v 201.190948 -18.445858 -682.939392
v 217.190826 6.23003769 -685.926941
v 133.749664 -95.9964905 -739.199585
v 164.550751 -85.9354248 -711.550415
v 191.423492 -74.9310303 -697.307922
v 213.833405 -60.564743 -693.367981
v 231.28653 -40.4743347 -695.585876
v 244.026093 -13.0917511 -700.216858
v 41.4334412 89.1272736 -720.103149
v 12.9638977 70.7264709 -750.458923
v 53.3432312 51.5929375 -724.820862
v -13.1533508 54.5896492 -784.160339
v 24.1036072 31.7954216 -758.517578
v 61.9338074 14.7003441 -730.31134
v -35.9147949 41.6281815 -819.822388
v -1.99224854 15.5733337 -794.958862
v 32.2926941 -4.91119766 -766.846252
v 69.3365784 -20.6779404 -737.380371
v -54.2079468 31.7404747 -857.056274
v -23.894043 3.49034691 -833.298096
v 6.96893311 -20.4420204 -806.31189
v 40.5083923 -39.2191696 -777.312805
v 78.4906311 -53.7173767 -747.953064
v -66.9642334 23.9074593 -895.650513
v -40.5014648 -5.05073547 -873.654419
v -13.036499 -31.5148697 -848.400146
v 17.1320496 -53.7939758 -820.797791
v 51.896698 -70.9026489 -791.542847
v 91.2842712 -84.0139923 -762.867737
v 5.36981201 110.088058 -740.365479
v -27.3213196 129.82637 -762.107788
v -23.21521 93.5294342 -772.358032
v -55.3894653 149.170334 -784.942322
v -54.4511108 114.966797 -793.946289
v -47.602478 79.5878906 -806.38501
v -77.7714233 168.001572 -808.991638
v -80.2523804 135.676773 -816.138672
v -76.2098389 102.458664 -828.074402
v -67.4550781 68.1757507 -842.595703
v -94.0993042 185.237503 -834.817627
v -100.213379 155.257523 -840.194214
v -99.1876526 123.787933 -851.300659
v -92.8258972 91.5259247 -866.020142
v -82.1859436 58.5020103 -881.806152
g 
f 3 1 2
f 5 2 4
f 6 3 5
f 8 4 7
f 9 5 8
f 10 6 9
f 12 7 11
f 13 8 12
f 14 9 13
f 15 10 14
f 17 11 16
f 18 12 17
f 19 13 18
f 20 14 19
f 21 15 20
f 23 16 22
f 24 17 23
f 25 18 24
f 26 19 25
f 27 20 26
f 28 21 27
f 30 22 29
f 31 23 30
f 32 24 31
f 33 25 32
f 34 26 33
f 35 27 34
f 36 28 35
f 3 2 5
f 5 4 8
f 6 5 9
f 8 7 12
f 9 8 13
f 10 9 14
f 12 11 17
f 13 12 18
f 14 13 19
f 15 14 20
f 17 16 23
f 18 17 24
f 19 18 25
f 20 19 26
f 21 20 27
f 23 22 30
f 24 23 31
f 25 24 32
f 26 25 33
f 27 26 34
f 28 27 35
f 37 1 3
f 38 3 6
f 39 37 38
f 40 6 10
f 41 38 40
f 42 39 41
f 43 10 15
f 44 40 43
f 45 41 44
f 46 42 45
f 47 15 21
f 48 43 47
f 49 44 48
f 50 45 49
f 51 46 50
f 52 21 28
f 53 47 52
f 54 48 53
f 55 49 54
f 56 50 55
f 57 51 56
f 58 28 36
f 59 52 58
f 60 53 59
f 61 54 60
f 62 55 61
f 63 56 62
f 64 57 63
f 37 3 38
f 38 6 40
f 39 38 41
f 40 10 43
f 41 40 44
f 42 41 45
f 43 15 47
f 44 43 48
f 45 44 49
f 46 45 50
f 47 21 52
f 48 47 53
f 49 48 54
f 50 49 55
f 51 50 56
f 52 28 58
f 53 52 59
f 54 53 60
f 55 54 61
f 56 55 62
f 57 56 63
f 65 1 37
f 66 37 39
f 67 65 66
f 68 39 42
f 69 66 68
f 70 67 69
f 71 42 46
f 72 68 71
f 73 69 72
f 74 70 73
f 75 46 51
f 76 71 75
f 77 72 76
f 78 73 77
f 79 74 78
f 80 51 57
f 81 75 80
f 82 76 81
f 83 77 82
f 84 78 83
f 85 79 84
f 86 57 64
f 87 80 86
f 88 81 87
f 89 82 88
f 90 83 89
f 91 84 90
f 92 85 91
f 65 37 66
f 66 39 68
f 67 66 69
f 68 42 71
f 69 68 72
f 70 69 73
f 71 46 75
f 72 71 76
f 73 72 77
f 74 73 78
f 75 51 80
f 76 75 81
f 77 76 82
f 78 77 83
f 79 78 84
f 80 57 86
f 81 80 87
f 82 81 88
f 83 82 89
f 84 83 90
f 85 84 91
f 93 1 65
f 94 65 67
f 95 93 94
f 96 67 70
f 97 94 96
f 98 95 97
f 99 70 74
f 100 96 99
f 101 97 100
f 102 98 101
f 103 74 79
f 104 99 103
f 105 100 104
f 106 101 105
f 107 102 106
f 108 79 85
f 109 103 108
f 110 104 109
f 111 105 110
f 112 106 111
f 113 107 112
f 114 85 92
f 115 108 114
f 116 109 115
f 117 110 116
f 118 111 117
f 119 112 118
f 120 113 119
f 93 65 94
f 94 67 96
f 95 94 97
f 96 70 99
f 97 96 100
f 98 97 101
f 99 74 103
f 100 99 104
f 101 100 105
f 102 101 106
f 103 79 108
f 104 103 109
f 105 104 110
f 106 105 111
f 107 106 112
f 108 85 114
f 109 108 115
f 110 109 116
f 111 110 117
f 112 111 118
f 113 112 119
f 2 1 93
f 121 93 95
f 4 2 121
f 122 95 98
f 123 121 122
f 7 4 123
f 124 98 102
f 125 122 124
f 126 123 125
f 11 7 126
f 127 102 107
f 128 124 127
f 129 125 128
f 130 126 129
f 16 11 130
f 131 107 113
f 132 127 131
f 133 128 132
f 134 129 133
f 135 130 134
f 22 16 135
f 136 113 120
f 137 131 136
f 138 132 137
f 139 133 138
f 140 134 139
f 141 135 140
f 29 22 141
f 2 93 121
f 121 95 122
f 4 121 123
f 122 98 124
f 123 122 125
f 7 123 126
f 124 102 127
f 125 124 128
f 126 125 129
f 11 126 130
f 127 107 131
f 128 127 132
f 129 128 133
f 130 129 134
f 16 130 135
f 131 113 136
f 132 131 137
f 133 132 138
f 134 133 139
f 135 134 140
f 22 135 141
f 142 29 141
f 143 141 140
f 144 142 143
f 145 140 139
f 146 143 145
f 147 144 146
f 148 139 138
f 149 145 148
f 150 146 149
f 151 147 150
f 152 138 137
f 153 148 152
f 154 149 153
f 155 150 154
f 156 151 155
f 157 137 136
f 158 152 157
f 159 153 158
f 160 154 159
f 161 155 160
f 162 156 161
f 163 136 120
f 164 157 163
f 165 158 164
f 166 159 165
f 167 160 166
f 168 161 167
f 169 162 168
f 142 141 143
f 143 140 145
f 144 143 146
f 145 139 148
f 146 145 149
f 147 146 150
f 148 138 152
f 149 148 153
f 150 149 154
f 151 150 155
f 152 137 157
f 153 152 158
f 154 153 159
f 155 154 160
f 156 155 161
f 157 136 163
f 158 157 164
f 159 158 165
f 160 159 166
f 161 160 167
f 162 161 168
f 170 120 119
f 171 119 118
f 172 170 171
f 173 118 117
f 174 171 173
f 175 172 174
f 176 117 116
f 177 173 176
f 178 174 177
f 179 175 178
f 180 116 115
f 181 176 180
f 182 177 181
f 183 178 182
f 184 179 183
f 185 115 114
f 186 180 185
f 187 181 186
f 188 182 187
f 189 183 188
f 190 184 189
f 191 114 92
f 192 185 191
f 193 186 192
f 194 187 193
f 195 188 194
f 196 189 195
f 197 190 196
f 170 119 171
f 171 118 173
f 172 171 174
f 173 117 176
f 174 173 177
f 175 174 178
f 176 116 180
f 177 176 181
f 178 177 182
f 179 178 183
f 180 115 185
f 181 180 186
f 182 181 187
f 183 182 188
f 184 183 189
f 185 114 191
f 186 185 192
f 187 186 193
f 188 187 194
f 189 188 195
f 190 189 196
f 198 92 91
f 199 91 90
f 200 198 199
f 201 90 89
f 202 199 201
f 203 200 202
f 204 89 88
f 205 201 204
f 206 202 205
f 207 203 206
f 208 88 87
f 209 204 208
f 210 205 209
f 211 206 210
f 212 207 211
f 213 87 86
f 214 208 213
f 215 209 214
f 216 210 215
f 217 211 216
f 218 212 217
f 219 86 64
f 220 213 219
f 221 214 220
f 222 215 221
f 223 216 222
f 224 217 223
f 225 218 224
f 198 91 199
f 199 90 201
f 200 199 202
f 201 89 204
f 202 201 205
f 203 202 206
f 204 88 208
f 205 204 209
f 206 205 210
f 207 206 211
f 208 87 213
f 209 208 214
f 210 209 215
f 211 210 216
f 212 211 217
f 213 86 219
f 214 213 220
f 215 214 221
f 216 215 222
f 217 216 223
f 218 217 224
f 226 64 63
f 227 63 62
f 228 226 227
f 229 62 61
f 230 227 229
f 231 228 230
f 232 61 60
f 233 229 232
f 234 230 233
f 235 231 234
f 236 60 59
f 237 232 236
f 238 233 237
f 239 234 238
f 240 235 239
f 241 59 58
f 242 236 241
f 243 237 242
f 244 238 243
f 245 239 244
f 246 240 245
f 247 58 36
f 248 241 247
f 249 242 248
f 250 243 249
f 251 244 250
f 252 245 251
f 253 246 252
f 226 63 227
f 227 62 229
f 228 227 230
f 229 61 232
f 230 229 233
f 231 230 234
f 232 60 236
f 233 232 237
f 234 233 238
f 235 234 239
f 236 59 241
f 237 236 242
f 238 237 243
f 239 238 244
f 240 239 245
f 241 58 247
f 242 241 248
f 243 242 249
f 244 243 250
f 245 244 251
f 246 245 252
f 254 36 35
f 255 35 34
f 256 254 255
f 257 34 33
f 258 255 257
f 259 256 258
f 260 33 32
f 261 257 260
f 262 258 261
f 263 259 262
f 264 32 31
f 265 260 264
f 266 261 265
f 267 262 266
f 268 263 267
f 269 31 30
f 270 264 269
f 271 265 270
f 272 266 271
f 273 267 272
f 274 268 273
f 275 30 29
f 276 269 275
f 277 270 276
f 278 271 277
f 279 272 278
f 280 273 279
f 281 274 280
f 254 35 255
f 255 34 257
f 256 255 258
f 257 33 260
f 258 257 261
f 259 258 262
f 260 32 264
f 261 260 265
f 262 261 266
f 263 262 267
f 264 31 269
f 265 264 270
f 266 265 271
f 267 266 272
f 268 267 273
f 269 30 275
f 270 269 276
f 271 270 277
f 272 271 278
f 273 272 279
f 274 273 280
f 275 29 142
f 282 142 144
f 276 275 282
f 283 144 147
f 284 282 283
f 277 276 284
f 285 147 151
f 286 283 285
f 287 284 286
f 278 277 287
f 288 151 156
f 289 285 288
f 290 286 289
f 291 287 290
f 279 278 291
f 292 156 162
f 293 288 292
f 294 289 293
f 295 290 294
f 296 291 295
f 280 279 296
f 297 162 169
f 298 292 297
f 299 293 298
f 300 294 299
f 301 295 300
f 302 296 301
f 281 280 302
f 275 142 282
f 282 144 283
f 276 282 284
f 283 147 285
f 284 283 286
f 277 284 287
f 285 151 288
f 286 285 289
f 287 286 290
f 278 287 291
f 288 156 292
f 289 288 293
f 290 289 294
f 291 290 295
f 279 291 296
f 292 162 297
f 293 292 298
f 294 293 299
f 295 294 300
f 296 295 301
f 280 296 302
f 163 120 170
f 303 170 172
f 164 163 303
f 304 172 175
f 305 303 304
f 165 164 305
f 306 175 179
f 307 304 306
f 308 305 307
f 166 165 308
f 309 179 184
f 310 306 309
f 311 307 310
f 312 308 311
f 167 166 312
f 313 184 190
f 314 309 313
f 315 310 314
f 316 311 315
f 317 312 316
f 168 167 317
f 318 190 197
f 319 313 318
f 320 314 319
f 321 315 320
f 322 316 321
f 323 317 322
f 169 168 323
f 163 170 303
f 303 172 304
f 164 303 305
f 304 175 306
f 305 304 307
f 165 305 308
f 306 179 309
f 307 306 310
f 308 307 311
f 166 308 312
f 309 184 313
f 310 309 314
f 311 310 315
f 312 311 316
f 167 312 317
f 313 190 318
f 314 313 319
f 315 314 320
f 316 315 321
f 317 316 322
f 168 317 323
f 191 92 198
f 324 198 200
f 192 191 324
f 325 200 203
f 326 324 325
f 193 192 326
f 327 203 207
f 328 325 327
f 329 326 328
f 194 193 329
f 330 207 212
f 331 327 330
f 332 328 331
f 333 329 332
f 195 194 333
f 334 212 218
f 335 330 334
f 336 331 335
f 337 332 336
f 338 333 337
f 196 195 338
f 339 218 225
f 340 334 339
f 341 335 340
f 342 336 341
f 343 337 342
f 344 338 343
f 197 196 344
f 191 198 324
f 324 200 325
f 192 324 326
f 325 203 327
f 326 325 328
f 193 326 329
f 327 207 330
f 328 327 331
f 329 328 332
f 194 329 333
f 330 212 334
f 331 330 335
f 332 331 336
f 333 332 337
f 195 333 338
f 334 218 339
f 335 334 340
f 336 335 341
f 337 336 342
f 338 337 343
f 196 338 344
f 219 64 226
f 345 226 228
f 220 219 345
f 346 228 231
f 347 345 346
f 221 220 347
f 348 231 235
f 349 346 348
f 350 347 349
f 222 221 350
f 351 235 240
f 352 348 351
f 353 349 352
f 354 350 353
f 223 222 354
f 355 240 246
f 356 351 355
f 357 352 356
f 358 353 357
f 359 354 358
f 224 223 359
f 360 246 253
f 361 355 360
f 362 356 361
f 363 357 362
f 364 358 363
f 365 359 364
f 225 224 365
f 219 226 345
f 345 228 346
f 220 345 347
f 346 231 348
f 347 346 349
f 221 347 350
f 348 235 351
f 349 348 352
f 350 349 353
f 222 350 354
f 351 240 355
f 352 351 356
f 353 352 357
f 354 353 358
f 223 354 359
f 355 246 360
f 356 355 361
f 357 356 362
f 358 357 363
f 359 358 364
f 224 359 365
f 247 36 254
f 366 254 256
f 248 247 366
f 367 256 259
f 368 366 367
f 249 248 368
f 369 259 263
f 370 367 369
f 371 368 370
f 250 249 371
f 372 263 268
f 373 369 372
f 374 370 373
f 375 371 374
f 251 250 375
f 376 268 274
f 377 372 376
f 378 373 377
f 379 374 378
f 380 375 379
f 252 251 380
f 381 274 281
f 382 376 381
f 383 377 382
f 384 378 383
f 385 379 384
f 386 380 385
f 253 252 386
f 247 254 366
f 366 256 367
f 248 366 368
f 367 259 369
f 368 367 370
f 249 368 371
f 369 263 372
f 370 369 373
f 371 370 374
f 250 371 375
f 372 268 376
f 373 372 377
f 374 373 378
f 375 374 379
f 251 375 380
f 376 274 381
f 377 376 382
f 378 377 383
f 379 378 384
f 380 379 385
f 252 380 386
f 389 387 388
f 391 388 390
f 392 389 391
f 394 390 393
f 395 391 394
f 396 392 395
f 398 393 397
f 399 394 398
f 400 395 399
f 401 396 400
f 403 397 402
f 404 398 403
f 405 399 404
f 406 400 405
f 407 401 406
f 409 402 408
f 410 403 409
f 411 404 410
f 412 405 411
f 413 406 412
f 414 407 413
f 302 408 281
f 301 409 302
f 300 410 301
f 299 411 300
f 298 412 299
f 297 413 298
f 169 414 297
f 389 388 391
f 391 390 394
f 392 391 395
f 394 393 398
f 395 394 399
f 396 395 400
f 398 397 403
f 399 398 404
f 400 399 405
f 401 400 406
f 403 402 409
f 404 403 410
f 405 404 411
f 406 405 412
f 407 406 413
f 409 408 302
f 410 409 301
f 411 410 300
f 412 411 299
f 413 412 298
f 414 413 297
f 388 387 415
f 417 415 416
f 390 388 417
f 419 416 418
f 420 417 419
f 393 390 420
f 422 418 421
f 423 419 422
f 424 420 423
f 397 393 424
f 426 421 425
f 427 422 426
f 428 423 427
f 429 424 428
f 402 397 429
f 431 425 430
f 432 426 431
f 433 427 432
f 434 428 433
f 435 429 434
f 408 402 435
f 386 430 253
f 385 431 386
f 384 432 385
f 383 433 384
f 382 434 383
f 381 435 382
f 281 408 381
f 388 415 417
f 417 416 419
f 390 417 420
f 419 418 422
f 420 419 423
f 393 420 424
f 422 421 426
f 423 422 427
f 424 423 428
f 397 424 429
f 426 425 431
f 427 426 432
f 428 427 433
f 429 428 434
f 402 429 435
f 431 430 386
f 432 431 385
f 433 432 384
f 434 433 383
f 435 434 382
f 408 435 381
f 415 387 436
f 438 436 437
f 416 415 438
f 440 437 439
f 441 438 440
f 418 416 441
f 443 439 442
f 444 440 443
f 445 441 444
f 421 418 445
f 447 442 446
f 448 443 447
f 449 444 448
f 450 445 449
f 425 421 450
f 452 446 451
f 453 447 452
f 454 448 453
f 455 449 454
f 456 450 455
f 430 425 456
f 365 451 225
f 364 452 365
f 363 453 364
f 362 454 363
f 361 455 362
f 360 456 361
f 253 430 360
f 415 436 438
f 438 437 440
f 416 438 441
f 440 439 443
f 441 440 444
f 418 441 445
f 443 442 447
f 444 443 448
f 445 444 449
f 421 445 450
f 447 446 452
f 448 447 453
f 449 448 454
f 450 449 455
f 425 450 456
f 452 451 365
f 453 452 364
f 454 453 363
f 455 454 362
f 456 455 361
f 430 456 360
f 436 387 457
f 459 457 458
f 437 436 459
f 461 458 460
f 462 459 461
f 439 437 462
f 464 460 463
f 465 461 464
f 466 462 465
f 442 439 466
f 468 463 467
f 469 464 468
f 470 465 469
f 471 466 470
f 446 442 471
f 473 467 472
f 474 468 473
f 475 469 474
f 476 470 475
f 477 471 476
f 451 446 477
f 344 472 197
f 343 473 344
f 342 474 343
f 341 475 342
f 340 476 341
f 339 477 340
f 225 451 339
f 436 457 459
f 459 458 461
f 437 459 462
f 461 460 464
f 462 461 465
f 439 462 466
f 464 463 468
f 465 464 469
f 466 465 470
f 442 466 471
f 468 467 473
f 469 468 474
f 470 469 475
f 471 470 476
f 446 471 477
f 473 472 344
f 474 473 343
f 475 474 342
f 476 475 341
f 477 476 340
f 451 477 339
f 457 387 389
f 478 389 392
f 458 457 478
f 479 392 396
f 480 478 479
f 460 458 480
f 481 396 401
f 482 479 481
f 483 480 482
f 463 460 483
f 484 401 407
f 485 481 484
f 486 482 485
f 487 483 486
f 467 463 487
f 488 407 414
f 489 484 488
f 490 485 489
f 491 486 490
f 492 487 491
f 472 467 492
f 323 414 169
f 322 488 323
f 321 489 322
f 320 490 321
f 319 491 320
f 318 492 319
f 197 472 318
f 457 389 478
f 478 392 479
f 458 478 480
f 479 396 481
f 480 479 482
f 460 480 483
f 481 401 484
f 482 481 485
f 483 482 486
f 463 483 487
f 484 407 488
f 485 484 489
f 486 485 490
f 487 486 491
f 467 487 492
f 488 414 323
f 489 488 322
f 490 489 321
f 491 490 320
f 492 491 319
f 472 492 318
