# File exported by Houdini 20.5.445 (www.sidefx.com)
# 492 points
# 2940 vertices
# 980 primitives
# Bounds: [-141.816284, -117.738159, -1099.17358] to [312.590179, 234.115265, -655.627441]
g 
v 89.1878662 47.3656006 -1098.76636
v 73.8091125 78.7451782 -1096.79688
v 113.403717 67.9269714 -1099.17358
v 59.5688171 106.424042 -1094.19727
v 98.2203064 100.365547 -1097.11792
v 137.340729 86.9056625 -1098.01392
v 46.4582214 130.285721 -1090.88623
v 84.234375 127.018555 -1093.54028
v 121.254578 118.289085 -1094.54468
v 160.220764 103.330917 -1094.24829
v 34.5695801 151.470795 -1085.02905
v 70.7263489 149.239807 -1087.68042
v 106.253998 143.176453 -1088.01782
v 142.415649 132.434357 -1087.74585
v 181.442047 116.625252 -1086.29785
v 24.5716858 170.831146 -1074.01172
v 58.0700073 168.502899 -1077.59961
v 91.8630066 163.732483 -1077.75488
v 126.16449 155.137573 -1076.76831
v 161.953094 142.66629 -1075.49561
v 200.6138 126.099594 -1072.97656
v 16.4444885 188.008362 -1056.30908
v 47.3116455 185.506073 -1061.06738
v 78.9037476 181.363358 -1062.08984
v 111.530884 173.763321 -1060.71313
v 145.27066 162.695267 -1058.99097
v 180.615448 148.468719 -1057.21069
v 217.700165 130.931595 -1054.05151
v 10.2732239 202.27681 -1032.0874
v 39.014801 199.904755 -1036.81567
v 68.6834106 196.427277 -1038.90869
v 99.6029968 189.422302 -1037.8938
v 131.839905 178.674911 -1035.67871
v 165.20285 164.949081 -1033.95996
v 199.215546 148.808807 -1032.4751
v 232.729828 130.608704 -1029.85962
v 119.823425 27.2180481 -1098.4231
v 148.11908 48.830574 -1097.53369
v 150.350891 7.62197495 -1092.55933
v 174.637787 68.4937973 -1095.20947
v 181.281097 30.8962803 -1090.1272
v 179.981232 -9.70883179 -1079.85449
v 199.106781 85.5272446 -1090.03027
v 209.451752 51.7531204 -1086.30615
v 212.680756 15.1664782 -1076.14966
v 207.381744 -23.6226578 -1060.35107
v 220.952179 99.1678162 -1079.96558
v 234.541046 69.3219833 -1078.91406
v 241.444489 36.5430603 -1070.31421
v 240.675873 1.48740768 -1055.32397
v 230.371063 -34.4420624 -1034.86035
v 239.713715 108.29203 -1063.55884
v 256.061676 82.5030518 -1065.66699
v 266.118439 53.4224701 -1059.9165
v 268.81601 21.7284927 -1046.93848
v 262.751617 -11.192627 -1028.1123
v 246.78244 -43.6120148 -1004.87543
v 255.13681 111.725067 -1040.04175
v 273.618378 89.6964493 -1044.48682
v 286.357574 64.268959 -1042.03149
v 291.87558 35.8736115 -1032.25537
v 288.706207 5.67948341 -1016.08649
v 276.147797 -24.6909027 -995.415955
v 255.05722 -53.5452652 -972.291687
v 83.6994934 14.2695198 -1097.88867
v 115.268677 -10.0078201 -1094.88184
v 77.8161011 -16.6940765 -1094.52954
v 144.972595 -30.7718353 -1084.0144
v 109.352112 -42.0796661 -1087.27954
v 70.8560486 -41.992836 -1087.14429
v 172.078094 -46.8913422 -1064.89771
v 137.135712 -61.3759995 -1070.33081
v 100.947906 -66.1118774 -1074.31787
v 61.7621155 -58.7887192 -1074.32861
v 195.619659 -58.1853409 -1038.64111
v 160.786194 -74.765274 -1044.33203
v 125.575256 -82.6794891 -1050.66284
v 88.8372803 -80.4526062 -1055.23706
v 49.8263855 -66.2674789 -1055.51782
v 214.139069 -65.9457855 -1006.68915
v 179.856171 -83.2448044 -1010.94598
v 144.837524 -93.2495346 -1017.46954
v 109.084106 -94.2958221 -1024.6687
v 72.4345703 -85.3741455 -1030.03955
v 35.6312256 -66.0750046 -1030.94873
v 225.687897 -73.2571564 -970.474304
v 193.054657 -89.522316 -971.666565
v 158.405975 -100.159409 -976.20575
v 122.769135 -103.106873 -983.805481
v 87.1300354 -97.3678665 -992.334412
v 52.7203674 -83.2063065 -998.837341
v 20.8205566 -61.695961 -1001.09869
v 56.0627441 47.5568848 -1095.45093
v 48.3989258 15.3221893 -1093.7063
v 24.4671021 50.2836609 -1088.97534
v 40.964386 -11.5096741 -1089.31079
v 15.9342651 21.6349564 -1085.26294
v -5.1242981 57.4820862 -1079.23462
v 32.8449402 -30.4319763 -1080.68213
v 7.68960571 0.911062241 -1078.65601
v -14.0309143 34.5325546 -1072.7251
v -32.3799133 70.5341492 -1066.1499
v 23.0814514 -40.3511734 -1066.42969
v -1.27444458 -11.0481644 -1067.58228
v -22.9844971 20.6345177 -1063.01489
v -41.7153625 54.087265 -1056.16968
v -56.8627319 89.1481628 -1050.00366
v 11.601532 -42.1365433 -1045.4187
v -11.3305969 -14.8172226 -1050.14673
v -32.555481 15.0156336 -1047.99756
v -51.3205566 46.3852692 -1042.0979
v -66.8933411 78.3564453 -1035.27246
v -78.2119446 110.532639 -1030.75269
v -0.537139893 -38.7363205 -1016.56134
v -21.7913513 -12.7383804 -1023.9776
v -42.2835083 15.5694876 -1024.48877
v -60.8953552 45.1349335 -1020.46088
v -76.5858765 74.8317032 -1014.51617
v -88.5086823 103.686348 -1009.29962
v -95.9859772 131.06395 -1007.4953
v 38.5615845 80.1051102 -1091.95923
v 6.66387939 83.8705444 -1084.32715
v 23.6338501 107.930267 -1088.71484
v -21.9537659 92.2783813 -1073.89575
v -7.58065796 113.111107 -1080.50122
v 11.2922058 132.605225 -1085.00415
v -47.2047119 106.500435 -1060.92212
v -34.6453857 123.98539 -1069.7876
v -18.2953796 140.331696 -1076.05005
v 1.43273926 155.811462 -1078.00317
v -69.543396 125.201065 -1044.61792
v -58.4152832 139.959625 -1055.87061
v -44.1998596 153.800446 -1063.51416
v -26.7563477 166.130646 -1066.63867
v -6.63830566 177.461609 -1064.31641
v -89.5861053 145.071198 -1022.86505
v -80.0202942 158.263306 -1036.02417
v -67.894043 170.623749 -1045.00439
v -52.638916 181.010361 -1049.05762
v -34.3720398 189.374619 -1047.86792
v -13.4171143 196.370285 -1041.8064
v -9.98095703 211.246872 -1010.38751
v -36.5314331 207.162979 -1019.53632
v -29.9122314 219.151077 -985.912415
v -58.0939636 201.741928 -1024.76416
v -57.5822754 215.425156 -994.229553
v -49.3587646 225.274353 -959.381775
v -75.3588562 194.141251 -1024.75269
v -78.4248352 209.649109 -997.877014
v -76.8438416 220.551773 -966.520813
v -67.5156555 228.429535 -930.93689
v -88.9771118 183.94632 -1019.02936
v -94.8504333 201.450134 -995.917419
v -96.9996948 213.889359 -967.725891
v -94.37854 222.877533 -935.713989
v -84.5660706 229.001892 -900.795532
v -99.8011017 171.673553 -1007.38824
v -107.402115 191.063156 -987.128235
v -112.118622 205.266556 -961.903625
v -113.54454 215.439865 -932.888062
v -110.04541 222.386566 -901.511719
v -99.4475098 226.52301 -869.202637
v -107.481201 156.742859 -990.984924
v -116.166931 177.33493 -971.559021
v -122.675949 193.3647 -948.320801
v -126.783234 205.014236 -921.645752
v -127.293701 212.926651 -892.967773
v -122.49559 217.87587 -864.12439
v -110.889267 220.321075 -836.707642
v -106.575928 132.410904 -980.407654
v -97.3618774 103.608543 -982.536072
v -113.174973 130.511444 -950.971008
v -84.0236816 74.1265182 -987.48407
v -101.900955 100.078781 -954.143982
v -117.261032 126.035202 -920.516235
v -67.3821106 44.4702454 -992.014832
v -87.1279297 69.9054642 -958.292786
v -104.397247 94.530777 -924.125366
v -119.96875 118.848183 -889.292969
v -48.1867981 15.0124979 -993.790222
v -69.6583252 39.9987564 -960.782776
v -88.6567688 63.9717026 -926.61499
v -106.055405 87.0575333 -891.978149
v -121.606689 109.05452 -856.976318
v -27.3697205 -13.9434052 -990.105042
v -50.1995544 9.97925949 -959.182068
v -70.8655701 33.5187073 -925.715454
v -89.887207 56.0788498 -891.361816
v -107.35318 77.2448425 -856.961182
v -122.562256 97.1214676 -823.071045
v -5.51190186 -41.9874344 -978.265198
v -29.3846741 -20.6132278 -950.288574
v -51.7036438 1.61230087 -918.299072
v -72.4639893 23.7184525 -884.532593
v -91.6346283 44.9555435 -850.657715
v -108.70491 65.00177 -817.989136
v -122.624786 83.9498596 -787.630371
v 23.918396 -71.3872223 -966.25116
v 57.7288513 -92.9408188 -959.020813
v 24.5202637 -80.802742 -926.811768
v 93.5390015 -105.799911 -949.268188
v 60.2597961 -101.850494 -917.526367
v 23.7213135 -89.1760788 -885.292847
v 130.532043 -110.015137 -940.001343
v 97.7386475 -113.126419 -907.586792
v 61.7661743 -108.632004 -876.430176
v 23.8582764 -94.6028137 -844.448364
v 167.647125 -105.943832 -934.102417
v 136.346008 -115.676514 -900.0448
v 101.336792 -117.633163 -868.394165
v 64.4714966 -110.994156 -837.747314
v 27.0262756 -94.3918457 -807.029419
v 203.766083 -94.3904419 -932.760742
v 175.30777 -109.888504 -896.852417
v 142.026459 -117.738159 -863.570312
v 106.261536 -116.653915 -832.562622
v 69.8999023 -106.198929 -803.325806
v 34.1174316 -86.5958252 -775.454224
v 238.15799 -76.4590607 -936.153687
v 213.762787 -95.7289047 -899.218262
v 183.540314 -108.62822 -863.80249
v 149.452148 -112.60025 -831.170654
v 113.817719 -106.648209 -801.532104
v 78.4928589 -91.9437256 -774.946533
v 44.6401367 -70.7124786 -751.12439
v 271.623749 -48.0890198 -954.218201
v 293.932648 -16.7197037 -978.871033
v 282.183746 -42.7318115 -936.884888
v 305.459137 14.1200809 -998.624084
v 303.513824 -10.483387 -962.063049
v 286.561188 -35.4751587 -920.171387
v 306.509796 43.2541885 -1011.94525
v 312.590179 20.0317879 -979.597839
v 305.026703 -3.23149109 -944.069946
v 284.780121 -24.6300201 -903.731689
v 298.170685 69.9599152 -1018.12177
v 310.737518 48.3513336 -989.240295
v 310.760223 26.6889572 -958.240784
v 299.27536 6.73150444 -924.516968
v 277.015717 -9.24235153 -886.690063
v 281.847382 93.9940109 -1017.10809
v 299.273956 74.5591583 -991.108215
v 305.561554 54.8077011 -963.266785
v 301.000092 36.2629967 -933.953491
v 286.860809 20.8459167 -902.531372
v 263.916779 10.7569485 -868.011963
v 259.068878 115.652817 -1009.18365
v 279.203949 99.0373535 -985.205261
v 290.495453 81.8587952 -959.281677
v 291.832123 65.1579132 -932.693726
v 284.071442 50.6210861 -905.552734
v 268.648163 40.2558975 -877.157593
v 246.677094 34.9110184 -847.238403
v 225.970062 138.433105 -1003.65094
v 190.204865 158.344574 -1004.47589
v 217.819489 145.084869 -974.184265
v 155.212189 175.859848 -1005.75702
v 180.945831 166.229736 -975.154602
v 208.042877 152.319794 -943.044434
v 121.880829 190.778931 -1008.57758
v 145.744385 184.934647 -978.044495
v 170.766663 174.286041 -945.947632
v 197.228729 160.718399 -911.796753
v 89.8347168 201.804703 -1011.21442
v 112.608582 200.525284 -981.989563
v 135.563568 193.627075 -950.436035
v 159.934174 182.781082 -916.802124
v 184.297577 170.681396 -881.264282
v 57.9107361 208.16304 -1010.93158
v 79.3048706 211.099762 -983.384338
v 101.193634 209.193817 -953.82843
v 123.90564 202.587631 -921.861084
v 146.814728 193.015594 -887.649048
v 167.266724 183.013733 -852.484619
v 24.9708557 211.617447 -1007.49725
v 43.3537903 217.483078 -981.026428
v 63.6281128 219.816742 -952.874451
v 85.3841858 218.207458 -923.163574
v 107.887726 212.779114 -891.696289
v 128.44342 205.171188 -858.631348
v 145.026337 196.559143 -826.471558
v 5.30307007 219.931686 -981.029236
v -14.3079834 226.931046 -953.397278
v 23.7027283 225.385132 -951.555725
v -33.4029236 231.327545 -924.63562
v 4.43731689 231.058395 -921.892578
v 44.4405212 227.296478 -921.624268
v -52.0173645 232.855881 -894.521606
v -14.4754639 233.913483 -891.528931
v 26.0187988 231.962006 -890.597412
v 67.3016357 225.619507 -890.768311
v -69.7500916 231.499481 -863.406616
v -33.4608459 234.115265 -859.75061
v 6.99822998 234.011017 -858.325806
v 48.9465942 230.194962 -857.831055
v 89.8680725 221.026474 -857.817993
v -85.3473816 226.056793 -831.240723
v -51.8106995 230.224701 -826.872559
v -12.4313049 232.154648 -824.155396
v 29.6242065 230.911835 -822.822388
v 71.1680908 224.981583 -822.244751
v 109.84137 213.430115 -823.019409
v -118.260727 157.219177 -957.279846
v -124.885071 154.473541 -922.852905
v -126.87149 176.528168 -933.014282
v -129.061523 148.210999 -888.601196
v -133.250839 171.870407 -894.919922
v -133.144638 190.57547 -906.509521
v -131.747025 138.380829 -854.594849
v -137.136292 163.21312 -857.632568
v -139.056549 183.682419 -865.86377
v -136.587891 200.143143 -878.114868
v -133.056351 125.405487 -819.918701
v -139.079865 150.728516 -820.652344
v -141.760452 172.706757 -825.964844
v -141.09404 191.254868 -835.726318
v -135.343109 206.273224 -848.947266
v -133.057266 110.112061 -782.748901
v -139.36673 134.906311 -781.867188
v -141.816284 157.821915 -785.191772
v -140.971313 178.237457 -793.161499
v -136.463867 195.655426 -805.309692
v -126.720428 209.658035 -820.390015
v -5.2638855 -52.0445023 -938.428101
v -7.69967651 -61.3995743 -895.416992
v -31.2874451 -30.88797 -906.750244
v -10.1580811 -69.1169815 -851.974121
v -35.1163635 -39.97995 -861.723511
v -54.8008118 -8.89838409 -872.803467
v -9.9029541 -72.668808 -810.533569
v -37.755249 -46.1903229 -817.47998
v -59.0410461 -17.013176 -826.868042
v -76.2845459 13.505024 -838.111572
v -4.80239868 -69.3141098 -773.608398
v -36.2877808 -46.7596359 -776.118042
v -61.0293884 -20.6318283 -782.25647
v -80.3529968 7.37251282 -791.609253
v -95.8303528 36.0528946 -803.740234
v 6.04064941 -57.0017166 -743.422607
v -28.3711853 -38.7516785 -739.983765
v -57.4911804 -16.7070541 -740.848999
v -80.9558411 7.76708794 -746.33606
v -99.1148987 33.2775726 -756.456543
v -112.741959 58.82444 -770.642334
v 250.795624 -72.5498581 -913.378662
v 257.522369 -65.8181839 -893.89917
v 223.123993 -90.3280106 -874.08252
v 258.90274 -54.2781906 -877.107422
v 227.16452 -79.1481018 -854.121094
v 190.645294 -99.0766754 -837.882935
v 254.95108 -36.8069153 -861.799072
v 226.37619 -60.9447708 -837.777344
v 192.69516 -81.4025497 -818.066406
v 154.827881 -97.1271591 -805.246704
v 245.475006 -13.2113495 -846.206787
v 220.337067 -35.2853851 -823.003418
v 189.622406 -55.1760101 -801.793335
v 154.642548 -71.9471283 -785.344238
v 117.033447 -84.4403152 -775.723389
v 230.420013 15.9886093 -828.308228
v 208.163177 -2.39919281 -807.050781
v 180.298187 -20.2221146 -786.023193
v 148.054474 -36.8938522 -767.811401
v 113.294495 -51.3615341 -754.688354
v 78.195282 -63.0365906 -748.787354
v 251.423798 122.571449 -978.127136
v 241.460114 129.623779 -944.934204
v 268.215668 106.947296 -951.152039
v 230.10318 138.119049 -910.974609
v 255.131561 115.699532 -916.201538
v 275.232452 91.8916473 -924.345947
v 216.644318 148.746094 -877.266846
v 240.588898 126.72995 -880.93103
v 258.509369 103.524635 -888.849609
v 272.786285 78.3912048 -898.086304
v 198.231415 162.380981 -844.844849
v 221.990021 141.209473 -845.748779
v 239.038055 118.597527 -852.665161
v 251.641693 94.2812042 -862.216797
v 261.491669 68.1993561 -871.323486
v 172.519745 178.610138 -814.679199
v 195.269379 159.326294 -811.279663
v 212.246735 138.103699 -815.51062
v 224.628265 114.668915 -824.212402
v 234.106842 89.3301468 -834.177002
v 241.612946 62.573822 -842.466675
v -10.2131653 134.096634 -670.304443
v 11.9430542 155.277374 -686.448608
v -33.6376648 151.126678 -676.064941
v 36.8882141 173.056137 -704.68103
v -10.0349121 173.540466 -696.09729
v -53.6794434 166.770248 -690.742676
v 63.895813 186.402267 -723.727417
v 16.344574 191.195236 -717.408081
v -28.2153015 188.762421 -714.287964
v -70.0388794 181.281448 -712.719238
v 91.1487122 194.904877 -743.971191
v 44.165741 203.811859 -739.040527
v -0.807525635 205.326248 -738.195312
v -43.6057129 201.680084 -738.427246
v -83.2258301 194.521927 -739.698608
v 115.714569 198.792938 -767.00415
v 71.155365 211.447617 -762.013062
v 26.7640076 216.787689 -762.19397
v -16.8234863 216.481781 -764.058105
v -58.122467 212.423141 -766.217285
v -94.7344513 205.761108 -769.643433
v 134.232666 198.789597 -794.51355
v 93.8243408 214.404175 -789.526611
v 51.6306152 223.285141 -789.011475
v 8.31985474 226.223587 -790.606812
v -34.0885315 224.8302 -793.271729
v -72.7195435 220.664993 -796.780151
v -104.612137 214.480301 -801.821045
v 28.5546875 129.000793 -682.027222
v 68.7124329 120.883392 -700.682617
v 55.0230103 149.377258 -699.982178
v 109.201324 108.912003 -724.563354
v 97.1988831 139.325745 -720.003906
v 82.4369812 164.492813 -718.38269
v 148.280212 92.2821655 -752.321289
v 138.011902 124.786377 -745.060669
v 125.176147 151.417755 -739.038208
v 110.105835 174.334106 -737.337891
v 184.611603 72.2848129 -782.963989
v 175.797211 105.458794 -774.693481
v 165.051208 133.784348 -765.735962
v 152.273163 158.035904 -759.141357
v 136.293945 179.285156 -758.515747
v 217.562958 51.9606323 -814.942749
v 210.38266 83.4979782 -807.558472
v 201.356354 111.98983 -797.783325
v 190.555389 137.426392 -788.283569
v 176.724457 159.924118 -782.407593
v 158.459198 180.123505 -783.43103
v -6.49771118 108.402809 -664.401611
v -1.12960815 81.4191818 -666.010498
v 35.7019043 100.391548 -680.976562
v 5.41033936 53.1603546 -674.692139
v 43.5947571 70.8384857 -686.027954
v 77.8013916 89.5718231 -703.803467
v 13.0982361 23.0169983 -688.646973
v 51.4311523 39.9234924 -696.27124
v 86.7756348 57.2471161 -711.288696
v 118.910736 74.7509308 -730.715698
v 22.1607971 -9.14049149 -705.981445
v 59.3955383 6.80373573 -710.268188
v 95.1678467 23.184927 -722.499878
v 128.316589 39.4663086 -739.969971
v 158.181458 55.7965164 -760.773438
v 32.5992126 -41.3980026 -726.643799
v 68.1431885 -28.4135742 -727.297974
v 103.706726 -13.35149 -736.651978
v 137.714813 2.41518402 -752.287964
v 168.693695 18.5760002 -771.717163
v 195.510773 35.0201263 -793.361694
v -44.7306824 122.252731 -660.020508
v -75.1898804 111.225769 -658.287476
v -42.0548401 94.2942886 -655.627441
v -99.9750366 102.751648 -667.053345
v -71.8672791 82.5411682 -658.239258
v -37.197937 66.5620651 -661.385376
v -117.191589 96.317337 -686.221802
v -94.6409149 73.5835876 -671.860352
v -65.6261902 54.3460846 -668.838257
v -30.0786133 37.8245392 -674.719604
v -126.031906 91.155426 -714.1875
v -109.054825 66.6708527 -695.709595
v -85.8016052 44.6903992 -686.907959
v -56.3198242 24.8326473 -686.501343
v -20.5229797 6.98972511 -692.980469
v -127.248016 87.183075 -748.872559
v -114.86145 61.8127899 -729.106567
v -97.0816345 37.6330338 -715.982544
v -73.5420532 14.7208652 -709.810791
v -44.0355835 -6.46994781 -709.972412
v -8.60604858 -25.3316917 -715.649658
v -69.8382874 140.013367 -670.210938
v -89.1966248 156.758209 -689.928345
v -98.6742859 130.887146 -674.007324
v -103.329041 172.643021 -716.507446
v -114.797272 149.216125 -699.029053
v -119.483368 124.354446 -688.494873
v -113.577011 187.272202 -747.562744
v -125.179062 166.485535 -730.046997
v -131.198181 143.953156 -718.193481
v -131.743591 119.207832 -712.533081
v -121.564987 199.90184 -782.00647
v -132.007828 182.350708 -765.344482
v -137.595734 162.06778 -753.107178
v -139.076523 139.462769 -746.055786
v -135.864487 114.603119 -744.460449
g 
f 3 1 2
f 5 2 4
f 6 3 5
f 8 4 7
f 9 5 8
f 10 6 9
f 12 7 11
f 13 8 12
f 14 9 13
f 15 10 14
f 17 11 16
f 18 12 17
f 19 13 18
f 20 14 19
f 21 15 20
f 23 16 22
f 24 17 23
f 25 18 24
f 26 19 25
f 27 20 26
f 28 21 27
f 30 22 29
f 31 23 30
f 32 24 31
f 33 25 32
f 34 26 33
f 35 27 34
f 36 28 35
f 3 2 5
f 5 4 8
f 6 5 9
f 8 7 12
f 9 8 13
f 10 9 14
f 12 11 17
f 13 12 18
f 14 13 19
f 15 14 20
f 17 16 23
f 18 17 24
f 19 18 25
f 20 19 26
f 21 20 27
f 23 22 30
f 24 23 31
f 25 24 32
f 26 25 33
f 27 26 34
f 28 27 35
f 37 1 3
f 38 3 6
f 39 37 38
f 40 6 10
f 41 38 40
f 42 39 41
f 43 10 15
f 44 40 43
f 45 41 44
f 46 42 45
f 47 15 21
f 48 43 47
f 49 44 48
f 50 45 49
f 51 46 50
f 52 21 28
f 53 47 52
f 54 48 53
f 55 49 54
f 56 50 55
f 57 51 56
f 58 28 36
f 59 52 58
f 60 53 59
f 61 54 60
f 62 55 61
f 63 56 62
f 64 57 63
f 37 3 38
f 38 6 40
f 39 38 41
f 40 10 43
f 41 40 44
f 42 41 45
f 43 15 47
f 44 43 48
f 45 44 49
f 46 45 50
f 47 21 52
f 48 47 53
f 49 48 54
f 50 49 55
f 51 50 56
f 52 28 58
f 53 52 59
f 54 53 60
f 55 54 61
f 56 55 62
f 57 56 63
f 65 1 37
f 66 37 39
f 67 65 66
f 68 39 42
f 69 66 68
f 70 67 69
f 71 42 46
f 72 68 71
f 73 69 72
f 74 70 73
f 75 46 51
f 76 71 75
f 77 72 76
f 78 73 77
f 79 74 78
f 80 51 57
f 81 75 80
f 82 76 81
f 83 77 82
f 84 78 83
f 85 79 84
f 86 57 64
f 87 80 86
f 88 81 87
f 89 82 88
f 90 83 89
f 91 84 90
f 92 85 91
f 65 37 66
f 66 39 68
f 67 66 69
f 68 42 71
f 69 68 72
f 70 69 73
f 71 46 75
f 72 71 76
f 73 72 77
f 74 73 78
f 75 51 80
f 76 75 81
f 77 76 82
f 78 77 83
f 79 78 84
f 80 57 86
f 81 80 87
f 82 81 88
f 83 82 89
f 84 83 90
f 85 84 91
f 93 1 65
f 94 65 67
f 95 93 94
f 96 67 70
f 97 94 96
f 98 95 97
f 99 70 74
f 100 96 99
f 101 97 100
f 102 98 101
f 103 74 79
f 104 99 103
f 105 100 104
f 106 101 105
f 107 102 106
f 108 79 85
f 109 103 108
f 110 104 109
f 111 105 110
f 112 106 111
f 113 107 112
f 114 85 92
f 115 108 114
f 116 109 115
f 117 110 116
f 118 111 117
f 119 112 118
f 120 113 119
f 93 65 94
f 94 67 96
f 95 94 97
f 96 70 99
f 97 96 100
f 98 97 101
f 99 74 103
f 100 99 104
f 101 100 105
f 102 101 106
f 103 79 108
f 104 103 109
f 105 104 110
f 106 105 111
f 107 106 112
f 108 85 114
f 109 108 115
f 110 109 116
f 111 110 117
f 112 111 118
f 113 112 119
f 2 1 93
f 121 93 95
f 4 2 121
f 122 95 98
f 123 121 122
f 7 4 123
f 124 98 102
f 125 122 124
f 126 123 125
f 11 7 126
f 127 102 107
f 128 124 127
f 129 125 128
f 130 126 129
f 16 11 130
f 131 107 113
f 132 127 131
f 133 128 132
f 134 129 133
f 135 130 134
f 22 16 135
f 136 113 120
f 137 131 136
f 138 132 137
f 139 133 138
f 140 134 139
f 141 135 140
f 29 22 141
f 2 93 121
f 121 95 122
f 4 121 123
f 122 98 124
f 123 122 125
f 7 123 126
f 124 102 127
f 125 124 128
f 126 125 129
f 11 126 130
f 127 107 131
f 128 127 132
f 129 128 133
f 130 129 134
f 16 130 135
f 131 113 136
f 132 131 137
f 133 132 138
f 134 133 139
f 135 134 140
f 22 135 141
f 142 29 141
f 143 141 140
f 144 142 143
f 145 140 139
f 146 143 145
f 147 144 146
f 148 139 138
f 149 145 148
f 150 146 149
f 151 147 150
f 152 138 137
f 153 148 152
f 154 149 153
f 155 150 154
f 156 151 155
f 157 137 136
f 158 152 157
f 159 153 158
f 160 154 159
f 161 155 160
f 162 156 161
f 163 136 120
f 164 157 163
f 165 158 164
f 166 159 165
f 167 160 166
f 168 161 167
f 169 162 168
f 142 141 143
f 143 140 145
f 144 143 146
f 145 139 148
f 146 145 149
f 147 146 150
f 148 138 152
f 149 148 153
f 150 149 154
f 151 150 155
f 152 137 157
f 153 152 158
f 154 153 159
f 155 154 160
f 156 155 161
f 157 136 163
f 158 157 164
f 159 158 165
f 160 159 166
f 161 160 167
f 162 161 168
f 170 120 119
f 171 119 118
f 172 170 171
f 173 118 117
f 174 171 173
f 175 172 174
f 176 117 116
f 177 173 176
f 178 174 177
f 179 175 178
f 180 116 115
f 181 176 180
f 182 177 181
f 183 178 182
f 184 179 183
f 185 115 114
f 186 180 185
f 187 181 186
f 188 182 187
f 189 183 188
f 190 184 189
f 191 114 92
f 192 185 191
f 193 186 192
f 194 187 193
f 195 188 194
f 196 189 195
f 197 190 196
f 170 119 171
f 171 118 173
f 172 171 174
f 173 117 176
f 174 173 177
f 175 174 178
f 176 116 180
f 177 176 181
f 178 177 182
f 179 178 183
f 180 115 185
f 181 180 186
f 182 181 187
f 183 182 188
f 184 183 189
f 185 114 191
f 186 185 192
f 187 186 193
f 188 187 194
f 189 188 195
f 190 189 196
f 198 92 91
f 199 91 90
f 200 198 199
f 201 90 89
f 202 199 201
f 203 200 202
f 204 89 88
f 205 201 204
f 206 202 205
f 207 203 206
f 208 88 87
f 209 204 208
f 210 205 209
f 211 206 210
f 212 207 211
f 213 87 86
f 214 208 213
f 215 209 214
f 216 210 215
f 217 211 216
f 218 212 217
f 219 86 64
f 220 213 219
f 221 214 220
f 222 215 221
f 223 216 222
f 224 217 223
f 225 218 224
f 198 91 199
f 199 90 201
f 200 199 202
f 201 89 204
f 202 201 205
f 203 202 206
f 204 88 208
f 205 204 209
f 206 205 210
f 207 206 211
f 208 87 213
f 209 208 214
f 210 209 215
f 211 210 216
f 212 211 217
f 213 86 219
f 214 213 220
f 215 214 221
f 216 215 222
f 217 216 223
f 218 217 224
f 226 64 63
f 227 63 62
f 228 226 227
f 229 62 61
f 230 227 229
f 231 228 230
f 232 61 60
f 233 229 232
f 234 230 233
f 235 231 234
f 236 60 59
f 237 232 236
f 238 233 237
f 239 234 238
f 240 235 239
f 241 59 58
f 242 236 241
f 243 237 242
f 244 238 243
f 245 239 244
f 246 240 245
f 247 58 36
f 248 241 247
f 249 242 248
f 250 243 249
f 251 244 250
f 252 245 251
f 253 246 252
f 226 63 227
f 227 62 229
f 228 227 230
f 229 61 232
f 230 229 233
f 231 230 234
f 232 60 236
f 233 232 237
f 234 233 238
f 235 234 239
f 236 59 241
f 237 236 242
f 238 237 243
f 239 238 244
f 240 239 245
f 241 58 247
f 242 241 248
f 243 242 249
f 244 243 250
f 245 244 251
f 246 245 252
f 254 36 35
f 255 35 34
f 256 254 255
f 257 34 33
f 258 255 257
f 259 256 258
f 260 33 32
f 261 257 260
f 262 258 261
f 263 259 262
f 264 32 31
f 265 260 264
f 266 261 265
f 267 262 266
f 268 263 267
f 269 31 30
f 270 264 269
f 271 265 270
f 272 266 271
f 273 267 272
f 274 268 273
f 275 30 29
f 276 269 275
f 277 270 276
f 278 271 277
f 279 272 278
f 280 273 279
f 281 274 280
f 254 35 255
f 255 34 257
f 256 255 258
f 257 33 260
f 258 257 261
f 259 258 262
f 260 32 264
f 261 260 265
f 262 261 266
f 263 262 267
f 264 31 269
f 265 264 270
f 266 265 271
f 267 266 272
f 268 267 273
f 269 30 275
f 270 269 276
f 271 270 277
f 272 271 278
f 273 272 279
f 274 273 280
f 275 29 142
f 282 142 144
f 276 275 282
f 283 144 147
f 284 282 283
f 277 276 284
f 285 147 151
f 286 283 285
f 287 284 286
f 278 277 287
f 288 151 156
f 289 285 288
f 290 286 289
f 291 287 290
f 279 278 291
f 292 156 162
f 293 288 292
f 294 289 293
f 295 290 294
f 296 291 295
f 280 279 296
f 297 162 169
f 298 292 297
f 299 293 298
f 300 294 299
f 301 295 300
f 302 296 301
f 281 280 302
f 275 142 282
f 282 144 283
f 276 282 284
f 283 147 285
f 284 283 286
f 277 284 287
f 285 151 288
f 286 285 289
f 287 286 290
f 278 287 291
f 288 156 292
f 289 288 293
f 290 289 294
f 291 290 295
f 279 291 296
f 292 162 297
f 293 292 298
f 294 293 299
f 295 294 300
f 296 295 301
f 280 296 302
f 163 120 170
f 303 170 172
f 164 163 303
f 304 172 175
f 305 303 304
f 165 164 305
f 306 175 179
f 307 304 306
f 308 305 307
f 166 165 308
f 309 179 184
f 310 306 309
f 311 307 310
f 312 308 311
f 167 166 312
f 313 184 190
f 314 309 313
f 315 310 314
f 316 311 315
f 317 312 316
f 168 167 317
f 318 190 197
f 319 313 318
f 320 314 319
f 321 315 320
f 322 316 321
f 323 317 322
f 169 168 323
f 163 170 303
f 303 172 304
f 164 303 305
f 304 175 306
f 305 304 307
f 165 305 308
f 306 179 309
f 307 306 310
f 308 307 311
f 166 308 312
f 309 184 313
f 310 309 314
f 311 310 315
f 312 311 316
f 167 312 317
f 313 190 318
f 314 313 319
f 315 314 320
f 316 315 321
f 317 316 322
f 168 317 323
f 191 92 198
f 324 198 200
f 192 191 324
f 325 200 203
f 326 324 325
f 193 192 326
f 327 203 207
f 328 325 327
f 329 326 328
f 194 193 329
f 330 207 212
f 331 327 330
f 332 328 331
f 333 329 332
f 195 194 333
f 334 212 218
f 335 330 334
f 336 331 335
f 337 332 336
f 338 333 337
f 196 195 338
f 339 218 225
f 340 334 339
f 341 335 340
f 342 336 341
f 343 337 342
f 344 338 343
f 197 196 344
f 191 198 324
f 324 200 325
f 192 324 326
f 325 203 327
f 326 325 328
f 193 326 329
f 327 207 330
f 328 327 331
f 329 328 332
f 194 329 333
f 330 212 334
f 331 330 335
f 332 331 336
f 333 332 337
f 195 333 338
f 334 218 339
f 335 334 340
f 336 335 341
f 337 336 342
f 338 337 343
f 196 338 344
f 219 64 226
f 345 226 228
f 220 219 345
f 346 228 231
f 347 345 346
f 221 220 347
f 348 231 235
f 349 346 348
f 350 347 349
f 222 221 350
f 351 235 240
f 352 348 351
f 353 349 352
f 354 350 353
f 223 222 354
f 355 240 246
f 356 351 355
f 357 352 356
f 358 353 357
f 359 354 358
f 224 223 359
f 360 246 253
f 361 355 360
f 362 356 361
f 363 357 362
f 364 358 363
f 365 359 364
f 225 224 365
f 219 226 345
f 345 228 346
f 220 345 347
f 346 231 348
f 347 346 349
f 221 347 350
f 348 235 351
f 349 348 352
f 350 349 353
f 222 350 354
f 351 240 355
f 352 351 356
f 353 352 357
f 354 353 358
f 223 354 359
f 355 246 360
f 356 355 361
f 357 356 362
f 358 357 363
f 359 358 364
f 224 359 365
f 247 36 254
f 366 254 256
f 248 247 366
f 367 256 259
f 368 366 367
f 249 248 368
f 369 259 263
f 370 367 369
f 371 368 370
f 250 249 371
f 372 263 268
f 373 369 372
f 374 370 373
f 375 371 374
f 251 250 375
f 376 268 274
f 377 372 376
f 378 373 377
f 379 374 378
f 380 375 379
f 252 251 380
f 381 274 281
f 382 376 381
f 383 377 382
f 384 378 383
f 385 379 384
f 386 380 385
f 253 252 386
f 247 254 366
f 366 256 367
f 248 366 368
f 367 259 369
f 368 367 370
f 249 368 371
f 369 263 372
f 370 369 373
f 371 370 374
f 250 371 375
f 372 268 376
f 373 372 377
f 374 373 378
f 375 374 379
f 251 375 380
f 376 274 381
f 377 376 382
f 378 377 383
f 379 378 384
f 380 379 385
f 252 380 386
f 389 387 388
f 391 388 390
f 392 389 391
f 394 390 393
f 395 391 394
f 396 392 395
f 398 393 397
f 399 394 398
f 400 395 399
f 401 396 400
f 403 397 402
f 404 398 403
f 405 399 404
f 406 400 405
f 407 401 406
f 409 402 408
f 410 403 409
f 411 404 410
f 412 405 411
f 413 406 412
f 414 407 413
f 302 408 281
f 301 409 302
f 300 410 301
f 299 411 300
f 298 412 299
f 297 413 298
f 169 414 297
f 389 388 391
f 391 390 394
f 392 391 395
f 394 393 398
f 395 394 399
f 396 395 400
f 398 397 403
f 399 398 404
f 400 399 405
f 401 400 406
f 403 402 409
f 404 403 410
f 405 404 411
f 406 405 412
f 407 406 413
f 409 408 302
f 410 409 301
f 411 410 300
f 412 411 299
f 413 412 298
f 414 413 297
f 388 387 415
f 417 415 416
f 390 388 417
f 419 416 418
f 420 417 419
f 393 390 420
f 422 418 421
f 423 419 422
f 424 420 423
f 397 393 424
f 426 421 425
f 427 422 426
f 428 423 427
f 429 424 428
f 402 397 429
f 431 425 430
f 432 426 431
f 433 427 432
f 434 428 433
f 435 429 434
f 408 402 435
f 386 430 253
f 385 431 386
f 384 432 385
f 383 433 384
f 382 434 383
f 381 435 382
f 281 408 381
f 388 415 417
f 417 416 419
f 390 417 420
f 419 418 422
f 420 419 423
f 393 420 424
f 422 421 426
f 423 422 427
f 424 423 428
f 397 424 429
f 426 425 431
f 427 426 432
f 428 427 433
f 429 428 434
f 402 429 435
f 431 430 386
f 432 431 385
f 433 432 384
f 434 433 383
f 435 434 382
f 408 435 381
f 415 387 436
f 438 436 437
f 416 415 438
f 440 437 439
f 441 438 440
f 418 416 441
f 443 439 442
f 444 440 443
f 445 441 444
f 421 418 445
f 447 442 446
f 448 443 447
f 449 444 448
f 450 445 449
f 425 421 450
f 452 446 451
f 453 447 452
f 454 448 453
f 455 449 454
f 456 450 455
f 430 425 456
f 365 451 225
f 364 452 365
f 363 453 364
f 362 454 363
f 361 455 362
f 360 456 361
f 253 430 360
f 415 436 438
f 438 437 440
f 416 438 441
f 440 439 443
f 441 440 444
f 418 441 445
f 443 442 447
f 444 443 448
f 445 444 449
f 421 445 450
f 447 446 452
f 448 447 453
f 449 448 454
f 450 449 455
f 425 450 456
f 452 451 365
f 453 452 364
f 454 453 363
f 455 454 362
f 456 455 361
f 430 456 360
f 436 387 457
f 459 457 458
f 437 436 459
f 461 458 460
f 462 459 461
f 439 437 462
f 464 460 463
f 465 461 464
f 466 462 465
f 442 439 466
f 468 463 467
f 469 464 468
f 470 465 469
f 471 466 470
f 446 442 471
f 473 467 472
f 474 468 473
f 475 469 474
f 476 470 475
f 477 471 476
f 451 446 477
f 344 472 197
f 343 473 344
f 342 474 343
f 341 475 342
f 340 476 341
f 339 477 340
f 225 451 339
f 436 457 459
f 459 458 461
f 437 459 462
f 461 460 464
f 462 461 465
f 439 462 466
f 464 463 468
f 465 464 469
f 466 465 470
f 442 466 471
f 468 467 473
f 469 468 474
f 470 469 475
f 471 470 476
f 446 471 477
f 473 472 344
f 474 473 343
f 475 474 342
f 476 475 341
f 477 476 340
f 451 477 339
f 457 387 389
f 478 389 392
f 458 457 478
f 479 392 396
f 480 478 479
f 460 458 480
f 481 396 401
f 482 479 481
f 483 480 482
f 463 460 483
f 484 401 407
f 485 481 484
f 486 482 485
f 487 483 486
f 467 463 487
f 488 407 414
f 489 484 488
f 490 485 489
f 491 486 490
f 492 487 491
f 472 467 492
f 323 414 169
f 322 488 323
f 321 489 322
f 320 490 321
f 319 491 320
f 318 492 319
f 197 472 318
f 457 389 478
f 478 392 479
f 458 478 480
f 479 396 481
f 480 479 482
f 460 480 483
f 481 401 484
f 482 481 485
f 483 482 486
f 463 483 487
f 484 407 488
f 485 484 489
f 486 485 490
f 487 486 491
f 467 487 492
f 488 414 323
f 489 488 322
f 490 489 321
f 491 490 320
f 492 491 319
f 472 492 318
