# File exported by Houdini 20.5.445 (www.sidefx.com)
# 492 points
# 2940 vertices
# 980 primitives
# Bounds: [-175.776443, -129.617401, -1104.65063] to [346.550385, 245.994507, -650.150452]
g 
v 203.512543 87.2937393 -1076.20215
v 206.318878 116.326866 -1074.07788
v 237.25766 92.7922058 -1093.66577
v 206.889252 144.966797 -1068.90991
v 240.787567 123.793709 -1091.85059
v 266.128998 101.481087 -1103.7749
v 205.534149 170.85965 -1059.99695
v 241.255829 152.596527 -1085.33618
v 268.45462 133.054047 -1100.5437
v 290.412811 112.815079 -1104.65063
v 203.388947 192.369217 -1046.27441
v 239.228485 177.183548 -1073.47388
v 267.495148 160.637772 -1091.37305
v 290.789948 143.247253 -1099.25415
v 310.512238 124.935928 -1096.24951
v 201.043549 208.814072 -1027.76807
v 236.026031 196.794556 -1055.54211
v 263.953522 183.189423 -1075.87988
v 287.691925 168.619858 -1087.1377
v 308.363129 153.027985 -1088.65698
v 326.120209 135.575745 -1080.26782
v 197.197601 220.480743 -1005.64923
v 231.739349 211.558411 -1031.81299
v 259.182648 200.870087 -1053.28003
v 282.035553 188.972519 -1067.40527
v 302.142731 175.871643 -1073.02417
v 320.290802 160.916611 -1069.95081
v 335.656769 143.24823 -1058.69702
v 189.699371 228.891983 -981.296082
v 223.909149 222.376434 -1003.07599
v 251.526947 214.158813 -1022.72021
v 273.962311 204.610321 -1037.802
v 293.026947 193.649841 -1046.77087
v 310.046051 180.815674 -1048.79895
v 325.253204 165.58873 -1043.8313
v 337.440582 147.647583 -1032.67603
v 220.267548 62.6899338 -1085.63135
v 255.030487 69.8662262 -1099.12549
v 233.504791 41.8952637 -1085.93213
v 283.449127 81.2316742 -1102.52075
v 267.932404 52.3219452 -1093.07178
v 243.79538 25.547575 -1074.40161
v 306.820587 94.8783264 -1096.15796
v 295.508514 66.0917053 -1089.59912
v 277.169647 38.52771 -1075.63477
v 252.306 11.6854076 -1052.42542
v 325.970245 107.964317 -1081.65503
v 318.177765 80.2495041 -1077.57788
v 303.693329 52.5802307 -1067.36548
v 283.930511 24.8956623 -1049.89087
v 258.535248 -2.67266273 -1024.4574
v 339.954865 118.351807 -1060.70361
v 336.103363 92.2488556 -1058.28931
v 324.786224 65.1061325 -1051.07251
v 308.160431 37.0886002 -1038.06104
v 287.068573 8.63333511 -1019.07703
v 261.278534 -18.9232178 -993.818848
v 345.741302 125.353043 -1034.08984
v 346.550385 100.82225 -1032.0498
v 339.131073 74.2919617 -1026.69434
v 325.358917 46.0809555 -1017.28412
v 307.106049 17.0676861 -1003.46802
v 284.965729 -11.0370026 -985.128357
v 259.773285 -36.4002533 -962.33728
v 177.693817 67.3023224 -1062.37463
v 193.605072 40.4519348 -1069.22363
v 150.628387 47.1827164 -1045.54712
v 205.643829 19.0053024 -1064.3125
v 166.289764 19.9620171 -1047.87781
v 123.297577 25.7017956 -1025.47388
v 215.810394 2.33382034 -1046.61694
v 178.403168 -0.977111816 -1036.21362
v 139.139679 -0.346496582 -1021.47388
v 95.9811859 2.35731125 -1001.99066
v 224.777191 -12.9444885 -1020.28943
v 189.409515 -18.4128799 -1013.17914
v 152.163849 -20.9046402 -1003.72528
v 112.512604 -21.9967575 -991.566101
v 69.3368073 -22.5011444 -976.006958
v 231.288361 -29.2419052 -989.317261
v 198.851776 -35.6146698 -983.015442
v 163.926422 -39.5241852 -976.040833
v 126.499115 -42.5323868 -968.625488
v 86.7751312 -45.4802246 -959.880859
v 44.9316254 -47.7760315 -948.582397
v 233.866364 -47.1436844 -955.940674
v 204.807159 -54.1751633 -948.201172
v 172.687347 -58.5471115 -940.905396
v 137.658417 -61.9365387 -935.18512
v 100.348373 -65.5330505 -930.770142
v 61.8440094 -69.0595016 -926.115601
v 22.8956757 -71.2781982 -919.980774
v 167.783844 101.377083 -1053.3396
v 136.593414 79.826149 -1037.03271
v 127.999664 114.484314 -1029.7948
v 106.430634 56.4350891 -1020.0058
v 93.3801117 88.8450012 -1014.11426
v 85.6754303 123.841667 -1010.2569
v 77.5565338 30.1692028 -1001.29108
v 61.615921 60.1031113 -998.325073
v 49.6921234 92.6759033 -996.123108
v 43.9942474 128.189423 -994.110901
v 49.3658295 1.87479782 -979.842651
v 31.839798 28.7364941 -980.466614
v 17.3021088 58.7046356 -980.694824
v 7.56132507 91.9231033 -980.817749
v 4.82933044 127.60955 -979.026001
v 22.3642426 -27.3006592 -955.54541
v 2.55308533 -3.5874176 -959.14917
v -13.9308014 23.4717274 -961.953125
v -26.0771027 54.3699188 -964.396118
v -32.2881012 88.3869019 -965.360474
v -31.2552032 124.040619 -963.058594
v -2.39625549 -56.3487854 -928.791138
v -25.6139984 -36.4000244 -934.372009
v -45.4392548 -11.677948 -938.768494
v -60.1385651 17.4883842 -943.003052
v -68.3981476 50.3681107 -946.337219
v -69.7375641 85.4941254 -947.371765
v -64.6456757 120.985374 -945.210388
v 167.396515 133.13028 -1048.3811
v 125.427521 147.24585 -1024.99829
v 165.658905 161.725586 -1041.33423
v 83.1155548 156.836121 -1005.64423
v 123.327911 174.986588 -1017.37158
v 163.788605 185.978577 -1030.78064
v 42.2917633 160.714386 -988.404663
v 81.6426239 183.237274 -996.734985
v 122.023224 197.245636 -1005.51807
v 162.358856 205.095428 -1015.87524
v 3.48979187 159.274261 -970.793884
v 40.9586029 185.777679 -976.820618
v 80.396225 203.496964 -982.530029
v 120.728302 213.899139 -988.979858
v 160.365631 218.943741 -996.852722
v -34.2595978 155.135468 -951.291077
v 0.287124634 183.819702 -955.237732
v 37.9290314 205.092117 -958.639221
v 77.5048065 218.681229 -962.623108
v 117.402679 225.941986 -967.833374
v 155.564301 228.807571 -974.376099
v 157.04892 236.051651 -952.998596
v 116.582855 235.119156 -946.334534
v 118.547821 241.46048 -926.286133
v 74.6030426 230.383942 -941.216675
v 73.7451324 239.194885 -921.54364
v 75.5166779 244.511398 -901.031128
v 33.0108795 220.196121 -937.780701
v 29.8570709 232.161819 -918.077881
v 29.4122772 240.191803 -898.094971
v 31.8557587 244.000122 -875.430115
v -6.95066833 202.704224 -935.632324
v -12.1441498 218.525757 -915.946655
v -14.3009491 229.929962 -895.574341
v -12.9532013 236.585281 -873.487854
v -8.22068787 238.208603 -848.024658
v -44.4679413 176.84285 -933.816528
v -51.9351349 196.437866 -914.765686
v -55.6191864 211.713287 -893.907837
v -55.0830536 221.800644 -871.083984
v -50.3350983 226.419968 -846.203979
v -41.8849945 225.560791 -818.885376
v -78.5345917 142.610962 -930.306885
v -89.0036163 164.201736 -912.956238
v -94.8252106 182.957153 -892.531128
v -95.2671051 196.845718 -869.031067
v -90.3821259 204.943314 -843.297668
v -80.9845123 207.391388 -816.554443
v -68.2931976 205.068619 -789.824097
v -100.08931 97.997757 -928.063904
v -104.150436 56.4565582 -927.465759
v -130.044205 75.0551529 -909.501709
v -100.566849 18.2469025 -924.450928
v -130.766403 29.643343 -907.249695
v -153.108139 52.3480911 -890.197632
v -88.8673248 -15.7246017 -919.824646
v -123.248215 -10.031517 -903.260254
v -149.41156 5.24864197 -887.194824
v -167.90123 29.888813 -870.469299
v -69.7512665 -44.5433044 -914.447083
v -107.173172 -43.9737549 -897.772278
v -137.179642 -34.5310287 -882.412109
v -159.27829 -16.8024063 -866.940857
v -173.17421 7.86581612 -850.060486
v -44.5789337 -67.4245529 -907.953369
v -82.9722748 -71.5316925 -890.205383
v -115.965302 -67.4361496 -874.685974
v -141.718719 -55.3551331 -860.05249
v -159.209229 -36.58564 -844.997009
v -168.378601 -13.131897 -828.22644
v -14.4363251 -83.9167099 -898.730408
v -51.0864716 -91.8122711 -879.572449
v -84.9122162 -92.8955002 -862.516479
v -113.534454 -86.3478622 -847.363464
v -134.876373 -72.8621826 -833.246033
v -148.075165 -54.1489029 -818.970398
v -154.115082 -32.3594894 -803.554199
v 27.3430328 -89.5435867 -892.890442
v 69.651535 -86.3179626 -893.850525
v 34.3281097 -102.573364 -861.83844
v 109.163971 -82.5089874 -895.045471
v 78.498642 -98.9293518 -859.828125
v 43.3894806 -111.957275 -828.177368
v 145.784515 -79.1285629 -898.505371
v 117.957916 -95.5818787 -860.420654
v 87.9854889 -108.87825 -825.53241
v 54.1966095 -119.335236 -793.434814
v 179.555634 -75.6335144 -905.425476
v 153.867157 -92.5563583 -865.262268
v 127.235382 -106.069107 -827.616333
v 98.5055695 -116.924683 -792.355225
v 66.5479889 -125.173019 -759.827515
v 210.905182 -70.1634521 -915.390381
v 187.34671 -88.4884109 -874.926575
v 163.316986 -102.789627 -835.237183
v 137.955231 -113.919312 -797.203247
v 110.327911 -122.565018 -761.715698
v 79.8643036 -128.495605 -729.913147
v 240.020355 -60.4599075 -926.338135
v 218.993378 -80.9533997 -887.984802
v 197.285492 -97.2204056 -847.946472
v 174.426422 -109.43071 -807.757751
v 149.570282 -118.372574 -769.360474
v 122.219513 -124.61351 -734.7005
v 92.4905853 -127.842422 -705.617554
v 270.126801 -38.5629044 -945.194153
v 295.571747 -9.41007614 -965.714417
v 275.549164 -38.8789673 -925.981934
v 316.463348 21.466814 -980.604431
v 299.042084 -6.51003265 -944.161255
v 275.671112 -37.1446838 -904.2005
v 332.441376 52.3078079 -991.197449
v 317.251312 26.4353771 -956.348145
v 295.958588 -2.41397476 -920.408569
v 269.809723 -32.6566162 -880.261047
v 342.752167 81.838974 -998.412964
v 330.009613 58.6919327 -964.748108
v 310.650665 32.0396347 -930.803223
v 286.024323 3.53693008 -895.068665
v 257.690277 -24.8692703 -855.390259
v 345.215607 109.533234 -1003.11285
v 335.600006 89.7099457 -970.700867
v 318.683929 65.8335953 -937.968445
v 295.730743 39.4050674 -904.567139
v 268.692291 12.5062008 -869.56012
v 239.712616 -13.030777 -831.894287
v 338.74649 135.435211 -1005.06964
v 332.016571 119.436653 -974.670471
v 317.622528 99.371933 -943.059082
v 296.92746 75.8009109 -911.291931
v 271.603546 50.7227859 -879.126648
v 244.304901 26.0570431 -846.172302
v 217.340118 3.18901253 -812.299133
v 326.238373 160.578125 -1011.27203
v 312.721466 179.114731 -1018.40796
v 309.743256 170.426651 -985.687317
v 297.290802 193.618454 -1018.47321
v 296.036957 188.419388 -988.396423
v 288.765228 178.304581 -956.266113
v 280.167816 205.288467 -1012.37091
v 280.293182 202.016403 -984.371155
v 274.780487 195.57251 -955.011475
v 263.314606 185.694916 -924.682983
v 259.972992 215.254913 -1001.23083
v 261.559418 213.211334 -975.630676
v 257.085541 209.050598 -948.226135
v 247.060089 202.766693 -920.438965
v 232.816803 193.274597 -893.113708
v 234.256378 224.174896 -986.050293
v 237.332489 223.347061 -963.599243
v 233.712616 220.803009 -937.990295
v 224.701263 216.660675 -911.5047
v 212.141693 210.13028 -885.823792
v 197.860809 200.226196 -862.054688
v 200.021149 231.893814 -967.579102
v 203.951385 232.745163 -948.747742
v 201.18631 231.790939 -925.306824
v 193.223724 229.094391 -899.508179
v 182.284454 224.147537 -874.013489
v 170.680267 216.289352 -850.855408
v 160.093842 204.776398 -831.123047
v 163.286774 239.28479 -935.752502
v 120.923615 244.33989 -905.942444
v 162.158783 240.266922 -914.057373
v 75.6829681 245.994507 -877.226746
v 116.54068 244.584244 -881.378845
v 155.325043 239.002869 -888.390259
v 31.8550568 242.861481 -847.552734
v 70.5598907 243.99437 -848.890564
v 108.363983 241.815842 -853.195068
v 145.519257 235.079681 -861.172058
v -7.11140442 233.055862 -815.734558
v 27.8567352 236.913834 -814.822693
v 63.3996735 237.874359 -817.132019
v 99.3787079 235.015488 -823.641785
v 135.227936 227.388031 -834.94104
v -39.4138031 214.340424 -782.476196
v -8.98603821 220.763931 -778.439026
v 23.3284454 224.628082 -778.441589
v 57.3467255 225.503479 -783.895508
v 92.0911102 222.129471 -795.305664
v 126.700958 214.774017 -811.817566
v -116.214142 122.204529 -911.439819
v -145.242371 101.128319 -891.532776
v -125.917511 144.687042 -891.909241
v -165.333633 78.7051163 -870.952576
v -151.743622 123.099602 -869.855164
v -128.60817 162.62442 -868.466492
v -175.776443 54.5072861 -849.641418
v -167.387161 98.5212479 -846.986023
v -149.876175 138.745331 -843.408447
v -124.347031 174.507767 -841.274109
v -175.645508 28.9046822 -826.897217
v -172.578522 70.6972885 -822.849976
v -160.266968 110.615021 -817.170898
v -140.244766 147.443787 -812.432556
v -113.744873 180.105957 -811.542114
v -164.431824 2.94400406 -801.44519
v -166.385513 40.2045059 -796.074036
v -159.588135 77.9918518 -788.650696
v -144.814026 114.913612 -781.634277
v -123.685074 149.454102 -778.30188
v -97.9257355 180.012405 -780.876831
v -10.4107819 -101.605057 -869.035889
v -2.66737366 -112.689133 -836.327637
v -45.4918976 -107.576904 -848.429321
v 8.25889587 -120.028702 -801.320618
v -35.269516 -116.568802 -814.686218
v -76.4190521 -106.543594 -830.601135
v 21.8211517 -125.588348 -765.06012
v -21.3805389 -122.272858 -778.627136
v -62.9767914 -113.889175 -796.122437
v -101.627121 -98.2664642 -814.994446
v 37.2639923 -129.484131 -729.696045
v -4.77729797 -126.215332 -740.936584
v -45.9666595 -118.153183 -758.924927
v -85.0154266 -104.201614 -779.780396
v -119.831894 -83.1655807 -800.541626
v 53.4823761 -129.617401 -698.63385
v 13.298111 -127.304382 -703.923462
v -26.6860199 -119.545898 -719.581787
v -65.3535614 -106.157761 -741.147278
v -100.610489 -86.896286 -764.171814
v -130.465195 -62.0506973 -785.375183
v 248.679291 -64.8260193 -906.188843
v 252.39035 -66.1694946 -884.670898
v 227.242096 -85.6511612 -865.458496
v 250.433563 -63.8852921 -861.192688
v 229.706329 -86.2020645 -842.128174
v 205.196014 -100.922318 -823.3526
v 242.122162 -57.2945938 -836.183716
v 225.558929 -82.0328827 -817.367065
v 205.934479 -99.8001862 -798.424316
v 181.184784 -111.50824 -781.227356
v 227.261566 -45.7452621 -811.113831
v 214.082733 -72.2813721 -791.570862
v 198.564117 -92.9441528 -772.474792
v 178.938568 -108.114365 -754.716736
v 153.681122 -118.383194 -741.012146
v 206.068268 -28.1956711 -788.803894
v 194.805573 -55.707901 -766.552124
v 182.009857 -78.7163544 -746.130859
v 166.32016 -97.3696594 -727.661499
v 146.378693 -111.714294 -713.125732
v 121.537201 -121.793808 -705.099915
v 322.293793 147.123535 -980.308838
v 300.249725 156.327881 -953.249695
v 309.920441 130.407776 -948.349609
v 274.386871 164.382568 -924.190613
v 283.027802 139.415833 -921.523804
v 290.784943 110.013153 -916.718689
v 244.73642 172.436646 -894.421936
v 253.07608 147.757233 -893.758179
v 259.894745 119.227486 -890.795227
v 266.462555 86.6787643 -885.45105
v 210.723297 180.565125 -864.482544
v 219.656342 156.287567 -865.385803
v 226.194855 127.80648 -863.869629
v 232.401947 96.0133286 -859.888306
v 238.689056 61.6720352 -853.142212
v 172.62558 186.861404 -833.138367
v 182.147614 163.817001 -835.044067
v 189.052338 135.680847 -834.818054
v 195.276398 103.79525 -831.808472
v 202.117523 70.0736008 -825.93512
v 209.665375 35.9774857 -818.195129
v -2.80918884 29.2636814 -661.785889
v 17.0775604 61.3347397 -675.043274
v -22.6079254 54.4617996 -665.27771
v 38.6978607 93.8031158 -693.897705
v -0.66569519 90.6525803 -677.019287
v -40.1703949 80.1530609 -672.326416
v 60.699295 125.456818 -716.869324
v 22.015213 125.134354 -694.534729
v -16.3322601 118.559303 -683.605347
v -54.6695709 106.55706 -684.109375
v 82.757431 154.15271 -743.17688
v 44.7960052 156.52951 -717.231018
v 7.36723328 153.21756 -701.754395
v -29.0633087 145.413086 -696.717773
v -65.0388641 133.509674 -702.046875
v 105.650543 177.746841 -771.915344
v 68.3753204 182.960632 -745.021545
v 31.7279816 182.983353 -726.478149
v -3.73240662 178.706039 -717.743347
v -37.6863556 170.922379 -717.757141
v -70.6681976 160.124893 -726.591248
v 131.284271 194.677383 -801.289246
v 94.7841339 202.669479 -777.077637
v 58.7988739 206.409363 -757.906311
v 23.7722321 205.757309 -746.687561
v -9.69325256 201.432922 -743.376404
v -41.2906342 194.385651 -746.876526
v -71.6575775 184.657776 -756.671753
v 29.8812714 24.4956264 -670.083557
v 62.6624603 20.0967293 -685.280273
v 51.8625031 57.9646988 -692.072144
v 94.6052399 15.2123175 -705.143616
v 84.2407074 54.348793 -714.311584
v 74.142807 90.6659088 -717.93335
v 125.470062 10.0658131 -728.213928
v 114.641754 49.6074066 -738.46051
v 105.832977 86.7765427 -744.549561
v 96.2311554 121.605659 -745.609558
v 155.753387 5.54270935 -753.820435
v 144.456085 44.1673508 -763.477051
v 135.777557 81.4624863 -771.144531
v 127.898529 116.725807 -774.772644
v 118.700958 149.069458 -774.494202
v 186.327362 2.8948288 -781.818726
v 175.381195 39.2339935 -789.772583
v 166.916107 75.370575 -797.667786
v 159.562958 110.43708 -803.01239
v 152.520721 142.906006 -804.787354
v 143.676361 171.238983 -803.497009
v 1.40135193 -4.90988922 -655.457642
v 11.0691986 -37.1232147 -651.681213
v 38.3292999 -11.0851974 -662.261047
v 25.7839203 -66.775238 -650.150452
v 51.817276 -43.16185 -657.947021
v 74.1308136 -16.6409721 -676.524414
v 43.9470673 -92.3452835 -652.613647
v 69.390213 -71.6980286 -658.012268
v 90.081955 -48.3826981 -673.301819
v 108.285919 -22.0177689 -696.692261
v 62.5539703 -111.721848 -662.099915
v 88.7649384 -95.5030975 -664.713074
v 109.173431 -75.5954819 -677.139343
v 126.058197 -52.9875259 -696.561646
v 141.05899 -26.6346588 -722.129333
v 79.0516815 -123.479187 -680.021118
v 106.850067 -112.631577 -680.20459
v 128.886871 -97.3208923 -689.970337
v 146.238312 -78.4087753 -706.481934
v 160.583771 -56.0207825 -727.593445
v 173.407379 -29.2092438 -752.781189
v -33.1286774 13.1900892 -658.610535
v -60.9204559 -1.54123688 -666.606323
v -27.9079132 -23.744194 -655.48761
v -85.48909 -13.4893379 -685.877014
v -53.1826019 -39.1089096 -667.868774
v -16.8210907 -56.8127136 -654.720886
v -106.890823 -21.7752991 -713.264526
v -75.1658478 -50.201416 -690.648621
v -40.2519379 -71.4172363 -670.329163
v -0.863418579 -85.3757935 -655.741882
v -125.600586 -26.6930122 -744.27063
v -95.1041107 -56.9440765 -720.114014
v -61.2157745 -80.5933685 -695.99939
v -23.6611481 -97.6501083 -674.762756
v 17.6790314 -107.939194 -661.483704
v -141.755814 -29.7013931 -775.168213
v -113.815948 -60.3257751 -752.610962
v -81.3342743 -85.205986 -728.278442
v -44.805069 -103.994995 -704.231934
v -5.35411072 -116.673386 -684.674561
v 36.2280426 -122.916107 -675.217102
v -56.7615814 39.1426849 -667.335388
v -75.5345306 65.6518478 -679.937317
v -86.3050385 26.1909466 -681.563171
v -88.9794769 93.5682678 -697.054443
v -104.676682 54.6846466 -699.476807
v -111.164261 16.535305 -705.893555
v -97.0067596 122.838783 -719.555542
v -116.593307 84.9477768 -720.915222
v -128.809952 47.3928604 -727.668701
v -132.228027 10.3728676 -736.531921
v -99.8819122 152.421936 -747.684387
v -122.843109 117.04377 -746.894714
v -139.802216 80.2720108 -752.347107
v -149.336227 43.2501144 -760.998291
v -150.168243 6.5319767 -769.483032
g 
f 3 1 2
f 5 2 4
f 6 3 5
f 8 4 7
f 9 5 8
f 10 6 9
f 12 7 11
f 13 8 12
f 14 9 13
f 15 10 14
f 17 11 16
f 18 12 17
f 19 13 18
f 20 14 19
f 21 15 20
f 23 16 22
f 24 17 23
f 25 18 24
f 26 19 25
f 27 20 26
f 28 21 27
f 30 22 29
f 31 23 30
f 32 24 31
f 33 25 32
f 34 26 33
f 35 27 34
f 36 28 35
f 3 2 5
f 5 4 8
f 6 5 9
f 8 7 12
f 9 8 13
f 10 9 14
f 12 11 17
f 13 12 18
f 14 13 19
f 15 14 20
f 17 16 23
f 18 17 24
f 19 18 25
f 20 19 26
f 21 20 27
f 23 22 30
f 24 23 31
f 25 24 32
f 26 25 33
f 27 26 34
f 28 27 35
f 37 1 3
f 38 3 6
f 39 37 38
f 40 6 10
f 41 38 40
f 42 39 41
f 43 10 15
f 44 40 43
f 45 41 44
f 46 42 45
f 47 15 21
f 48 43 47
f 49 44 48
f 50 45 49
f 51 46 50
f 52 21 28
f 53 47 52
f 54 48 53
f 55 49 54
f 56 50 55
f 57 51 56
f 58 28 36
f 59 52 58
f 60 53 59
f 61 54 60
f 62 55 61
f 63 56 62
f 64 57 63
f 37 3 38
f 38 6 40
f 39 38 41
f 40 10 43
f 41 40 44
f 42 41 45
f 43 15 47
f 44 43 48
f 45 44 49
f 46 45 50
f 47 21 52
f 48 47 53
f 49 48 54
f 50 49 55
f 51 50 56
f 52 28 58
f 53 52 59
f 54 53 60
f 55 54 61
f 56 55 62
f 57 56 63
f 65 1 37
f 66 37 39
f 67 65 66
f 68 39 42
f 69 66 68
f 70 67 69
f 71 42 46
f 72 68 71
f 73 69 72
f 74 70 73
f 75 46 51
f 76 71 75
f 77 72 76
f 78 73 77
f 79 74 78
f 80 51 57
f 81 75 80
f 82 76 81
f 83 77 82
f 84 78 83
f 85 79 84
f 86 57 64
f 87 80 86
f 88 81 87
f 89 82 88
f 90 83 89
f 91 84 90
f 92 85 91
f 65 37 66
f 66 39 68
f 67 66 69
f 68 42 71
f 69 68 72
f 70 69 73
f 71 46 75
f 72 71 76
f 73 72 77
f 74 73 78
f 75 51 80
f 76 75 81
f 77 76 82
f 78 77 83
f 79 78 84
f 80 57 86
f 81 80 87
f 82 81 88
f 83 82 89
f 84 83 90
f 85 84 91
f 93 1 65
f 94 65 67
f 95 93 94
f 96 67 70
f 97 94 96
f 98 95 97
f 99 70 74
f 100 96 99
f 101 97 100
f 102 98 101
f 103 74 79
f 104 99 103
f 105 100 104
f 106 101 105
f 107 102 106
f 108 79 85
f 109 103 108
f 110 104 109
f 111 105 110
f 112 106 111
f 113 107 112
f 114 85 92
f 115 108 114
f 116 109 115
f 117 110 116
f 118 111 117
f 119 112 118
f 120 113 119
f 93 65 94
f 94 67 96
f 95 94 97
f 96 70 99
f 97 96 100
f 98 97 101
f 99 74 103
f 100 99 104
f 101 100 105
f 102 101 106
f 103 79 108
f 104 103 109
f 105 104 110
f 106 105 111
f 107 106 112
f 108 85 114
f 109 108 115
f 110 109 116
f 111 110 117
f 112 111 118
f 113 112 119
f 2 1 93
f 121 93 95
f 4 2 121
f 122 95 98
f 123 121 122
f 7 4 123
f 124 98 102
f 125 122 124
f 126 123 125
f 11 7 126
f 127 102 107
f 128 124 127
f 129 125 128
f 130 126 129
f 16 11 130
f 131 107 113
f 132 127 131
f 133 128 132
f 134 129 133
f 135 130 134
f 22 16 135
f 136 113 120
f 137 131 136
f 138 132 137
f 139 133 138
f 140 134 139
f 141 135 140
f 29 22 141
f 2 93 121
f 121 95 122
f 4 121 123
f 122 98 124
f 123 122 125
f 7 123 126
f 124 102 127
f 125 124 128
f 126 125 129
f 11 126 130
f 127 107 131
f 128 127 132
f 129 128 133
f 130 129 134
f 16 130 135
f 131 113 136
f 132 131 137
f 133 132 138
f 134 133 139
f 135 134 140
f 22 135 141
f 142 29 141
f 143 141 140
f 144 142 143
f 145 140 139
f 146 143 145
f 147 144 146
f 148 139 138
f 149 145 148
f 150 146 149
f 151 147 150
f 152 138 137
f 153 148 152
f 154 149 153
f 155 150 154
f 156 151 155
f 157 137 136
f 158 152 157
f 159 153 158
f 160 154 159
f 161 155 160
f 162 156 161
f 163 136 120
f 164 157 163
f 165 158 164
f 166 159 165
f 167 160 166
f 168 161 167
f 169 162 168
f 142 141 143
f 143 140 145
f 144 143 146
f 145 139 148
f 146 145 149
f 147 146 150
f 148 138 152
f 149 148 153
f 150 149 154
f 151 150 155
f 152 137 157
f 153 152 158
f 154 153 159
f 155 154 160
f 156 155 161
f 157 136 163
f 158 157 164
f 159 158 165
f 160 159 166
f 161 160 167
f 162 161 168
f 170 120 119
f 171 119 118
f 172 170 171
f 173 118 117
f 174 171 173
f 175 172 174
f 176 117 116
f 177 173 176
f 178 174 177
f 179 175 178
f 180 116 115
f 181 176 180
f 182 177 181
f 183 178 182
f 184 179 183
f 185 115 114
f 186 180 185
f 187 181 186
f 188 182 187
f 189 183 188
f 190 184 189
f 191 114 92
f 192 185 191
f 193 186 192
f 194 187 193
f 195 188 194
f 196 189 195
f 197 190 196
f 170 119 171
f 171 118 173
f 172 171 174
f 173 117 176
f 174 173 177
f 175 174 178
f 176 116 180
f 177 176 181
f 178 177 182
f 179 178 183
f 180 115 185
f 181 180 186
f 182 181 187
f 183 182 188
f 184 183 189
f 185 114 191
f 186 185 192
f 187 186 193
f 188 187 194
f 189 188 195
f 190 189 196
f 198 92 91
f 199 91 90
f 200 198 199
f 201 90 89
f 202 199 201
f 203 200 202
f 204 89 88
f 205 201 204
f 206 202 205
f 207 203 206
f 208 88 87
f 209 204 208
f 210 205 209
f 211 206 210
f 212 207 211
f 213 87 86
f 214 208 213
f 215 209 214
f 216 210 215
f 217 211 216
f 218 212 217
f 219 86 64
f 220 213 219
f 221 214 220
f 222 215 221
f 223 216 222
f 224 217 223
f 225 218 224
f 198 91 199
f 199 90 201
f 200 199 202
f 201 89 204
f 202 201 205
f 203 202 206
f 204 88 208
f 205 204 209
f 206 205 210
f 207 206 211
f 208 87 213
f 209 208 214
f 210 209 215
f 211 210 216
f 212 211 217
f 213 86 219
f 214 213 220
f 215 214 221
f 216 215 222
f 217 216 223
f 218 217 224
f 226 64 63
f 227 63 62
f 228 226 227
f 229 62 61
f 230 227 229
f 231 228 230
f 232 61 60
f 233 229 232
f 234 230 233
f 235 231 234
f 236 60 59
f 237 232 236
f 238 233 237
f 239 234 238
f 240 235 239
f 241 59 58
f 242 236 241
f 243 237 242
f 244 238 243
f 245 239 244
f 246 240 245
f 247 58 36
f 248 241 247
f 249 242 248
f 250 243 249
f 251 244 250
f 252 245 251
f 253 246 252
f 226 63 227
f 227 62 229
f 228 227 230
f 229 61 232
f 230 229 233
f 231 230 234
f 232 60 236
f 233 232 237
f 234 233 238
f 235 234 239
f 236 59 241
f 237 236 242
f 238 237 243
f 239 238 244
f 240 239 245
f 241 58 247
f 242 241 248
f 243 242 249
f 244 243 250
f 245 244 251
f 246 245 252
f 254 36 35
f 255 35 34
f 256 254 255
f 257 34 33
f 258 255 257
f 259 256 258
f 260 33 32
f 261 257 260
f 262 258 261
f 263 259 262
f 264 32 31
f 265 260 264
f 266 261 265
f 267 262 266
f 268 263 267
f 269 31 30
f 270 264 269
f 271 265 270
f 272 266 271
f 273 267 272
f 274 268 273
f 275 30 29
f 276 269 275
f 277 270 276
f 278 271 277
f 279 272 278
f 280 273 279
f 281 274 280
f 254 35 255
f 255 34 257
f 256 255 258
f 257 33 260
f 258 257 261
f 259 258 262
f 260 32 264
f 261 260 265
f 262 261 266
f 263 262 267
f 264 31 269
f 265 264 270
f 266 265 271
f 267 266 272
f 268 267 273
f 269 30 275
f 270 269 276
f 271 270 277
f 272 271 278
f 273 272 279
f 274 273 280
f 275 29 142
f 282 142 144
f 276 275 282
f 283 144 147
f 284 282 283
f 277 276 284
f 285 147 151
f 286 283 285
f 287 284 286
f 278 277 287
f 288 151 156
f 289 285 288
f 290 286 289
f 291 287 290
f 279 278 291
f 292 156 162
f 293 288 292
f 294 289 293
f 295 290 294
f 296 291 295
f 280 279 296
f 297 162 169
f 298 292 297
f 299 293 298
f 300 294 299
f 301 295 300
f 302 296 301
f 281 280 302
f 275 142 282
f 282 144 283
f 276 282 284
f 283 147 285
f 284 283 286
f 277 284 287
f 285 151 288
f 286 285 289
f 287 286 290
f 278 287 291
f 288 156 292
f 289 288 293
f 290 289 294
f 291 290 295
f 279 291 296
f 292 162 297
f 293 292 298
f 294 293 299
f 295 294 300
f 296 295 301
f 280 296 302
f 163 120 170
f 303 170 172
f 164 163 303
f 304 172 175
f 305 303 304
f 165 164 305
f 306 175 179
f 307 304 306
f 308 305 307
f 166 165 308
f 309 179 184
f 310 306 309
f 311 307 310
f 312 308 311
f 167 166 312
f 313 184 190
f 314 309 313
f 315 310 314
f 316 311 315
f 317 312 316
f 168 167 317
f 318 190 197
f 319 313 318
f 320 314 319
f 321 315 320
f 322 316 321
f 323 317 322
f 169 168 323
f 163 170 303
f 303 172 304
f 164 303 305
f 304 175 306
f 305 304 307
f 165 305 308
f 306 179 309
f 307 306 310
f 308 307 311
f 166 308 312
f 309 184 313
f 310 309 314
f 311 310 315
f 312 311 316
f 167 312 317
f 313 190 318
f 314 313 319
f 315 314 320
f 316 315 321
f 317 316 322
f 168 317 323
f 191 92 198
f 324 198 200
f 192 191 324
f 325 200 203
f 326 324 325
f 193 192 326
f 327 203 207
f 328 325 327
f 329 326 328
f 194 193 329
f 330 207 212
f 331 327 330
f 332 328 331
f 333 329 332
f 195 194 333
f 334 212 218
f 335 330 334
f 336 331 335
f 337 332 336
f 338 333 337
f 196 195 338
f 339 218 225
f 340 334 339
f 341 335 340
f 342 336 341
f 343 337 342
f 344 338 343
f 197 196 344
f 191 198 324
f 324 200 325
f 192 324 326
f 325 203 327
f 326 325 328
f 193 326 329
f 327 207 330
f 328 327 331
f 329 328 332
f 194 329 333
f 330 212 334
f 331 330 335
f 332 331 336
f 333 332 337
f 195 333 338
f 334 218 339
f 335 334 340
f 336 335 341
f 337 336 342
f 338 337 343
f 196 338 344
f 219 64 226
f 345 226 228
f 220 219 345
f 346 228 231
f 347 345 346
f 221 220 347
f 348 231 235
f 349 346 348
f 350 347 349
f 222 221 350
f 351 235 240
f 352 348 351
f 353 349 352
f 354 350 353
f 223 222 354
f 355 240 246
f 356 351 355
f 357 352 356
f 358 353 357
f 359 354 358
f 224 223 359
f 360 246 253
f 361 355 360
f 362 356 361
f 363 357 362
f 364 358 363
f 365 359 364
f 225 224 365
f 219 226 345
f 345 228 346
f 220 345 347
f 346 231 348
f 347 346 349
f 221 347 350
f 348 235 351
f 349 348 352
f 350 349 353
f 222 350 354
f 351 240 355
f 352 351 356
f 353 352 357
f 354 353 358
f 223 354 359
f 355 246 360
f 356 355 361
f 357 356 362
f 358 357 363
f 359 358 364
f 224 359 365
f 247 36 254
f 366 254 256
f 248 247 366
f 367 256 259
f 368 366 367
f 249 248 368
f 369 259 263
f 370 367 369
f 371 368 370
f 250 249 371
f 372 263 268
f 373 369 372
f 374 370 373
f 375 371 374
f 251 250 375
f 376 268 274
f 377 372 376
f 378 373 377
f 379 374 378
f 380 375 379
f 252 251 380
f 381 274 281
f 382 376 381
f 383 377 382
f 384 378 383
f 385 379 384
f 386 380 385
f 253 252 386
f 247 254 366
f 366 256 367
f 248 366 368
f 367 259 369
f 368 367 370
f 249 368 371
f 369 263 372
f 370 369 373
f 371 370 374
f 250 371 375
f 372 268 376
f 373 372 377
f 374 373 378
f 375 374 379
f 251 375 380
f 376 274 381
f 377 376 382
f 378 377 383
f 379 378 384
f 380 379 385
f 252 380 386
f 389 387 388
f 391 388 390
f 392 389 391
f 394 390 393
f 395 391 394
f 396 392 395
f 398 393 397
f 399 394 398
f 400 395 399
f 401 396 400
f 403 397 402
f 404 398 403
f 405 399 404
f 406 400 405
f 407 401 406
f 409 402 408
f 410 403 409
f 411 404 410
f 412 405 411
f 413 406 412
f 414 407 413
f 302 408 281
f 301 409 302
f 300 410 301
f 299 411 300
f 298 412 299
f 297 413 298
f 169 414 297
f 389 388 391
f 391 390 394
f 392 391 395
f 394 393 398
f 395 394 399
f 396 395 400
f 398 397 403
f 399 398 404
f 400 399 405
f 401 400 406
f 403 402 409
f 404 403 410
f 405 404 411
f 406 405 412
f 407 406 413
f 409 408 302
f 410 409 301
f 411 410 300
f 412 411 299
f 413 412 298
f 414 413 297
f 388 387 415
f 417 415 416
f 390 388 417
f 419 416 418
f 420 417 419
f 393 390 420
f 422 418 421
f 423 419 422
f 424 420 423
f 397 393 424
f 426 421 425
f 427 422 426
f 428 423 427
f 429 424 428
f 402 397 429
f 431 425 430
f 432 426 431
f 433 427 432
f 434 428 433
f 435 429 434
f 408 402 435
f 386 430 253
f 385 431 386
f 384 432 385
f 383 433 384
f 382 434 383
f 381 435 382
f 281 408 381
f 388 415 417
f 417 416 419
f 390 417 420
f 419 418 422
f 420 419 423
f 393 420 424
f 422 421 426
f 423 422 427
f 424 423 428
f 397 424 429
f 426 425 431
f 427 426 432
f 428 427 433
f 429 428 434
f 402 429 435
f 431 430 386
f 432 431 385
f 433 432 384
f 434 433 383
f 435 434 382
f 408 435 381
f 415 387 436
f 438 436 437
f 416 415 438
f 440 437 439
f 441 438 440
f 418 416 441
f 443 439 442
f 444 440 443
f 445 441 444
f 421 418 445
f 447 442 446
f 448 443 447
f 449 444 448
f 450 445 449
f 425 421 450
f 452 446 451
f 453 447 452
f 454 448 453
f 455 449 454
f 456 450 455
f 430 425 456
f 365 451 225
f 364 452 365
f 363 453 364
f 362 454 363
f 361 455 362
f 360 456 361
f 253 430 360
f 415 436 438
f 438 437 440
f 416 438 441
f 440 439 443
f 441 440 444
f 418 441 445
f 443 442 447
f 444 443 448
f 445 444 449
f 421 445 450
f 447 446 452
f 448 447 453
f 449 448 454
f 450 449 455
f 425 450 456
f 452 451 365
f 453 452 364
f 454 453 363
f 455 454 362
f 456 455 361
f 430 456 360
f 436 387 457
f 459 457 458
f 437 436 459
f 461 458 460
f 462 459 461
f 439 437 462
f 464 460 463
f 465 461 464
f 466 462 465
f 442 439 466
f 468 463 467
f 469 464 468
f 470 465 469
f 471 466 470
f 446 442 471
f 473 467 472
f 474 468 473
f 475 469 474
f 476 470 475
f 477 471 476
f 451 446 477
f 344 472 197
f 343 473 344
f 342 474 343
f 341 475 342
f 340 476 341
f 339 477 340
f 225 451 339
f 436 457 459
f 459 458 461
f 437 459 462
f 461 460 464
f 462 461 465
f 439 462 466
f 464 463 468
f 465 464 469
f 466 465 470
f 442 466 471
f 468 467 473
f 469 468 474
f 470 469 475
f 471 470 476
f 446 471 477
f 473 472 344
f 474 473 343
f 475 474 342
f 476 475 341
f 477 476 340
f 451 477 339
f 457 387 389
f 478 389 392
f 458 457 478
f 479 392 396
f 480 478 479
f 460 458 480
f 481 396 401
f 482 479 481
f 483 480 482
f 463 460 483
f 484 401 407
f 485 481 484
f 486 482 485
f 487 483 486
f 467 463 487
f 488 407 414
f 489 484 488
f 490 485 489
f 491 486 490
f 492 487 491
f 472 467 492
f 323 414 169
f 322 488 323
f 321 489 322
f 320 490 321
f 319 491 320
f 318 492 319
f 197 472 318
f 457 389 478
f 478 392 479
f 458 478 480
f 479 396 481
f 480 479 482
f 460 480 483
f 481 401 484
f 482 481 485
f 483 482 486
f 463 483 487
f 484 407 488
f 485 484 489
f 486 485 490
f 487 486 491
f 467 487 492
f 488 414 323
f 489 488 322
f 490 489 321
f 491 490 320
f 492 491 319
f 472 492 318
