# File exported by Houdini 20.5.445 (www.sidefx.com)
# 492 points
# 2940 vertices
# 980 primitives
# Bounds: [-147.423737, -142.935181, -1096.71387] to [318.197632, 259.312286, -658.087097]
g 
v 113.85675 91.7134018 -1070.02441
v 118.339539 129.077759 -1086.95654
v 136.644958 104.979881 -1072.86865
v 118.684326 162.528351 -1092.52075
v 141.175659 146.818634 -1084.78784
v 156.629089 116.248581 -1072.91772
v 113.015625 190.481018 -1086.40601
v 140.656067 181.841309 -1083.59912
v 160.12207 159.637634 -1078.82739
v 174.749207 124.868942 -1069.60571
v 101.180603 212.62793 -1070.60034
v 134.102051 209.475983 -1071.47632
v 158.716187 193.8367 -1071.44702
v 177.097412 167.209045 -1069.52222
v 191.878723 130.55896 -1061.94312
v 84.8110809 229.639435 -1048.34155
v 121.627258 230.545593 -1051.66772
v 151.420776 220.118988 -1054.67017
v 174.681458 199.665741 -1057.10986
v 192.82196 170.377808 -1056.76782
v 208.127747 133.558899 -1049.0752
v 66.7988129 242.171478 -1022.47687
v 104.800537 245.911713 -1026.72559
v 138.373291 239.816345 -1031.27319
v 166.525574 224.545288 -1036.28931
v 189.298462 200.914795 -1040.28491
v 207.617126 170.219635 -1039.89038
v 223.184021 134.643402 -1030.4834
v 49.1203461 250.350464 -994.731812
v 85.2595062 255.832458 -997.717834
v 120.389832 253.060822 -1001.93707
v 152.68573 242.352783 -1007.75879
v 180.513367 223.932129 -1014.32965
v 203.261841 198.576385 -1018.84088
v 221.548279 168.130798 -1017.22797
v 236.749878 135.410126 -1006.01825
v 123.422119 59.7734375 -1048.61694
v 147.542542 69.2302704 -1053.34009
v 135.153931 25.8503056 -1024.11816
v 168.68988 77.7917023 -1055.16089
v 160.718689 33.7630692 -1030.20068
v 151.855469 -6.78044128 -997.299744
v 188.15271 85.549881 -1052.58032
v 183.694702 42.4170609 -1032.04395
v 179.613892 2.19594574 -1003.38159
v 175.149536 -34.7004166 -968.633545
v 206.911011 92.1876068 -1043.92505
v 205.617432 51.7271576 -1027.72827
v 205.420654 13.0083961 -1003.0863
v 205.205383 -23.0781403 -972.468872
v 203.070679 -56.0678177 -937.925354
v 225.114807 97.3082352 -1027.46729
v 226.99408 60.6444626 -1014.86798
v 230.345886 24.8020115 -994.043396
v 233.748596 -9.61096191 -967.363342
v 234.831055 -41.6906128 -937.033447
v 232.071411 -70.7992554 -905.441711
v 242.360474 101.832062 -1002.30847
v 247.73645 68.71138 -991.033875
v 254.308716 36.2482605 -972.906555
v 261.011841 4.47790146 -949.875305
v 265.175598 -26.0924149 -924.047546
v 264.52771 -54.4858551 -897.327698
v 258.590759 -80.0312271 -871.961426
v 94.6308746 59.8466797 -1050.34692
v 106.426208 24.7567673 -1021.52936
v 75.785965 30.0167179 -1025.50562
v 122.538757 -9.63778687 -991.708618
v 92.8435211 -5.72027969 -991.780884
v 60.4101715 2.89328384 -997.755676
v 144.769287 -40.6983795 -961.734009
v 114.955322 -39.036499 -958.884155
v 84.3313446 -32.1631889 -961.295959
v 50.8880768 -21.9290924 -968.47345
v 172.507324 -66.1952286 -931.603699
v 142.205994 -68.1945267 -927.186707
v 111.877991 -64.041153 -926.603516
v 80.6805267 -55.6082611 -930.895691
v 47.3026581 -45.3405457 -938.63855
v 203.183594 -85.0325012 -900.704773
v 173.322144 -91.733551 -896.171387
v 142.940186 -91.5934906 -893.651123
v 112.106201 -86.0467987 -894.900818
v 80.5546112 -77.1424179 -900.576538
v 47.5928802 -67.4021225 -909.113586
v 233.684265 -97.234314 -868.482666
v 206.155579 -108.722099 -864.673035
v 176.77124 -113.64753 -861.500244
v 146.117981 -112.302177 -860.632812
v 114.632996 -105.944115 -863.736938
v 82.5112457 -96.9775543 -870.941162
v 49.7773285 -86.9502716 -881.203613
v 91.3177948 99.1985626 -1078.78906
v 67.1378326 66.8535004 -1058.71167
v 65.1189728 101.865623 -1084.7522
v 44.5905304 37.8447418 -1033.35962
v 37.6088409 69.860611 -1063.41626
v 35.3029327 100.355118 -1085.20654
v 27.4676056 11.1307373 -1004.36829
v 13.8535919 41.3188248 -1035.74316
v 7.01417542 69.2246475 -1061.0708
v 3.49101257 95.7930298 -1077.27612
v 17.8070221 -14.5867081 -973.183289
v -2.95783997 14.2842722 -1004.13831
v -15.9583588 41.0559464 -1030.36011
v -23.4672089 65.8671417 -1050.03345
v -28.9582977 88.8930206 -1060.83887
v 15.0043488 -40.0998764 -941.268311
v -11.7176666 -12.8162918 -970.664856
v -31.5568695 13.4699287 -996.413391
v -44.8737335 37.9694138 -1017.15656
v -53.9070892 60.2405319 -1031.62622
v -61.2615509 80.6175537 -1038.66211
v 16.4002838 -64.5847702 -909.248962
v -13.6322174 -40.4631958 -936.503296
v -39.19841 -15.2672958 -960.977539
v -59.1580353 9.59773064 -981.508728
v -73.8115082 32.7366562 -997.212585
v -84.4012604 53.6716995 -1007.94708
v -91.8632355 72.8147507 -1013.18964
v 93.2485809 134.367401 -1094.43896
v 64.0978546 132.815857 -1096.71387
v 89.3651886 163.335968 -1096.10303
v 31.3499603 126.67453 -1091.56348
v 56.3965302 156.962616 -1093.10596
v 78.8462677 186.541504 -1085.33179
v -4.00358582 117.798492 -1077.77661
v 20.1197357 146.531586 -1082.2981
v 41.9294281 176.299133 -1077.33496
v 62.5851288 205.257935 -1065.27832
v -40.8039703 107.103546 -1056.18726
v -19.0656586 134.065521 -1063.51807
v 2.06169128 162.652588 -1061.60864
v 22.2707062 192.566254 -1052.84204
v 43.2743378 220.424408 -1039.19702
v -77.5827179 95.9940643 -1028.86426
v -59.8907013 120.641151 -1037.35156
v -40.4484406 147.743561 -1037.92969
v -20.221817 177.382965 -1032.38867
v 1.03211975 207.019287 -1022.56573
v 24.1756134 232.460205 -1009.57056
v 16.9252777 245.212036 -975.414673
v -11.6276703 222.474213 -990.12207
v -12.4329987 235.071625 -956.022705
v -36.9756622 193.384094 -1001.19647
v -42.7160797 209.07843 -970.927795
v -37.4342804 220.903503 -936.743408
v -59.5849457 162.150604 -1008.37109
v -68.6491852 178.640198 -980.484497
v -67.9523163 193.888245 -951.361877
v -56.5185089 204.272705 -916.914124
v -79.9768524 132.535431 -1011.07751
v -91.3689728 147.812622 -985.03717
v -93.4040985 164.21286 -958.995605
v -86.129776 178.060669 -930.337341
v -69.0435638 186.482086 -895.981384
v -97.7829742 105.827545 -1007.46527
v -111.071579 118.880905 -984.194214
v -115.281052 134.754272 -960.558594
v -110.365158 149.963989 -935.489075
v -96.9051971 161.794312 -907.269531
v -75.6952362 168.249878 -873.937012
v -111.995621 80.9404144 -996.289612
v -126.870438 91.9827042 -976.679016
v -133.533493 106.387444 -955.586853
v -130.639206 121.603531 -933.341309
v -118.918625 134.705383 -909.099976
v -100.413223 144.147522 -881.939941
v -77.3491058 149.101593 -851.169373
v -113.466202 55.3045273 -984.799438
v -101.913467 32.2925568 -976.315979
v -126.589676 39.8648071 -956.584229
v -85.1427155 8.11275101 -963.889709
v -109.016464 13.3586092 -946.965576
v -130.06221 26.0018024 -929.544617
v -63.718399 -17.2232056 -947.20813
v -86.2178192 -13.2885208 -933.497925
v -107.339951 -2.94644165 -919.103149
v -124.652725 13.2844992 -903.078735
v -37.7301178 -42.6232605 -926.023987
v -59.784256 -39.6123199 -915.224609
v -80.5523834 -30.4813461 -903.775513
v -98.901535 -16.2324562 -890.817383
v -112.972488 2.54140091 -876.068176
v -6.54597473 -67.0054321 -900.730591
v -28.6215057 -64.9967346 -892.258179
v -49.7480927 -57.1603088 -883.258545
v -68.9515533 -43.9220047 -873.121643
v -85.042099 -26.7124939 -861.427307
v -96.7196503 -6.80819702 -848.444824
v 30.1083832 -89.8723297 -872.482666
v 9.22373962 -88.8901749 -864.817566
v -12.1691742 -82.5557175 -857.341064
v -32.9671783 -70.3300552 -849.50708
v -51.3712311 -53.932106 -840.546082
v -66.394455 -34.9947586 -830.751831
v -77.0206146 -15.6289444 -820.52533
v 73.449295 -108.375648 -848.683472
v 111.27179 -119.345039 -837.673401
v 97.6082611 -123.670235 -819.318604
v 146.19928 -127.285057 -832.044678
v 138.523499 -133.904144 -810.084045
v 120.082703 -132.351288 -793.542542
v 178.807922 -130.204285 -831.027893
v 174.408936 -139.278992 -806.705322
v 161.858459 -140.952759 -786.670349
v 138.682373 -134.576202 -770.928772
v 209.488831 -126.551323 -832.817322
v 206.860474 -138.062286 -806.839417
v 197.40741 -142.935181 -784.73645
v 179.630005 -140.704956 -765.858276
v 152.723755 -130.505402 -750.63031
v 238.381531 -115.692513 -835.550659
v 236.985168 -129.379425 -808.031799
v 229.168457 -137.459808 -784.426575
v 214.059021 -139.014069 -763.899475
v 191.80835 -133.310028 -746.350464
v 162.928345 -120.310997 -732.284241
v 265.339294 -97.6745834 -838.292114
v 265.533264 -112.479149 -808.863708
v 258.905273 -123.511574 -783.440552
v 245.100281 -128.923401 -761.563721
v 224.94574 -127.498619 -742.889648
v 199.552673 -119.198799 -727.408691
v 170.285706 -105.550697 -715.222534
v 285.128296 -70.2839432 -851.735535
v 290.948792 -41.3912048 -875.392639
v 304.191956 -57.6233215 -828.762085
v 289.316162 -11.6703377 -899.493347
v 307.970581 -26.5018463 -850.549561
v 314.652222 -42.9177246 -804.366638
v 282.452332 18.512619 -922.989136
v 304.172546 3.82494354 -873.001892
v 316.642395 -10.4733315 -824.976135
v 317.195374 -26.6080322 -780.652954
v 273.159058 49.4541092 -944.557129
v 295.64032 34.1199646 -895.591187
v 311.659302 20.5187798 -847.064453
v 318.197632 6.80893517 -801.189026
v 312.903503 -8.74024582 -760.047485
v 263.613647 81.973999 -962.304382
v 284.470032 66.0276642 -916.894409
v 301.938232 52.2260284 -869.671753
v 312.395813 39.1711807 -823.46637
v 313.104309 25.5517025 -780.837769
v 302.77948 10.288393 -743.903687
v 254.054199 116.891678 -974.194397
v 271.999512 101.00724 -934.483765
v 288.687805 86.9421768 -890.632446
v 300.939636 73.6066513 -845.809326
v 305.61676 60.0868149 -802.871094
v 301.08313 45.6194229 -764.502441
v 288.113953 30.0763645 -732.4505
v 238.801392 155.807343 -986.264343
v 219.051514 189.018219 -992.726929
v 236.797729 173.40271 -960.775879
v 195.052307 216.920532 -989.587524
v 211.343384 204.144073 -962.818298
v 229.850708 186.925323 -929.760498
v 165.952698 238.197754 -982.303772
v 180.998291 227.949188 -956.991455
v 198.280762 213.477997 -928.890259
v 217.263855 195.826019 -894.721436
v 132.019897 252.381927 -974.979797
v 145.661621 244.868866 -949.010498
v 161.875427 232.658417 -922.210266
v 180.234009 217.445068 -892.428406
v 199.211853 200.100403 -857.884216
v 94.5709686 259.312286 -969.685181
v 106.1604 255.064575 -942.124878
v 120.973145 245.196228 -914.50177
v 138.778992 231.771912 -885.744995
v 158.157043 216.50116 -854.841248
v 176.911072 200.135773 -821.596924
v 55.2630768 258.196991 -966.878967
v 63.9302216 257.9776 -937.797546
v 76.4459686 250.962891 -908.2005
v 93.1334381 239.32251 -878.32019
v 112.787415 225.395203 -848.074158
v 133.186096 210.947479 -817.690247
v 152.516663 196.511505 -788.2229
v 23.5581818 251.975494 -942.840454
v -2.72166443 239.887207 -920.281311
v 34.1605072 249.303345 -909.415649
v -23.2349396 223.544373 -898.677246
v 11.453537 234.818237 -883.592346
v 49.4577484 239.933197 -875.832703
v -37.7049713 204.614227 -876.985718
v -5.10075378 216.481171 -859.110352
v 30.0058441 223.623657 -846.469727
v 69.0703278 226.792267 -842.546082
v -46.7403717 184.209412 -854.544678
v -16.2476349 195.739166 -834.639771
v 16.4166107 204.007599 -818.195862
v 52.2912445 209.741302 -809.342834
v 91.5225677 212.412872 -809.602173
v -51.6850739 162.867004 -831.117981
v -23.4039764 173.632019 -809.349121
v 7.27058411 182.249298 -789.590515
v 40.8557587 189.722748 -776.553528
v 77.1884003 195.440063 -772.727844
v 115.090942 198.029816 -777.262512
v -133.061386 66.0512085 -966.62915
v -142.889877 54.1570892 -938.417175
v -143.685287 79.8988876 -947.204041
v -141.570816 42.5681229 -911.582642
v -147.423737 69.3600769 -919.374329
v -143.656235 94.9224091 -926.587769
v -131.763504 31.189806 -884.796875
v -140.500412 57.8526993 -892.218506
v -140.63826 83.3036194 -898.432983
v -133.294357 108.419075 -904.014954
v -115.960373 20.0846882 -856.768005
v -126.15416 45.5747375 -863.926941
v -128.304886 70.1792984 -869.720581
v -124.021286 94.593956 -874.32196
v -114.601334 119.171471 -878.456299
v -95.0626068 8.55462837 -827.087646
v -105.905624 32.2301254 -833.098206
v -109.192856 55.5861969 -838.130981
v -106.463333 79.0128479 -841.984802
v -99.6814117 102.768326 -845.174744
v -90.0800323 126.490707 -848.217834
v 52.8356781 -108.697868 -838.6922
v 74.6091156 -119.603096 -808.741028
v 30.6970673 -103.64109 -830.820374
v 93.9108734 -123.57029 -782.482483
v 50.1543427 -109.936043 -800.982544
v 7.83598328 -92.6152649 -823.895569
v 110.009399 -121.071754 -759.140564
v 67.2575531 -109.22715 -774.361572
v 25.5675507 -94.6829224 -794.414368
v -14.0601349 -76.563385 -816.617737
v 123.280823 -112.654869 -737.71637
v 82.5637665 -102.40847 -749.731995
v 41.7974396 -90.2951126 -766.954102
v 2.72718811 -75.4867172 -787.052124
v -33.4220428 -57.0544891 -808.295898
v 134.500671 -98.8459396 -717.483582
v 96.5335236 -90.0937347 -725.704956
v 57.3543549 -80.0615692 -739.863159
v 18.7284088 -68.264801 -758.215454
v -17.1807709 -53.5260773 -778.324341
v -49.137619 -35.6212006 -799.180664
v 289.379211 -87.5659027 -814.72937
v 303.512756 -74.6546402 -790.407288
v 284.721008 -101.730171 -784.372498
v 308.310303 -59.40728 -766.482605
v 293.159729 -87.9472656 -760.473267
v 272.019714 -111.255867 -759.399902
v 305.103271 -41.4959717 -744.676392
v 292.244446 -70.7533875 -737.876465
v 274.5849 -95.2332153 -736.646973
v 252.068481 -114.076439 -738.626221
v 295.136292 -20.9422379 -726.498901
v 283.305664 -49.7797241 -717.694946
v 267.884583 -74.8259125 -715.21875
v 248.853271 -94.8154449 -716.924561
v 225.964233 -109.238518 -721.075745
v 279.761353 2.01434898 -713.111267
v 267.659607 -24.9392929 -701.079102
v 252.971619 -49.5993576 -695.868347
v 236.011047 -70.435257 -695.965759
v 216.489136 -86.2590561 -699.857422
v 194.369629 -97.3945236 -706.364502
v 256.371643 137.818207 -950.682129
v 254.091492 155.480957 -922.66571
v 272.502808 122.476723 -908.980591
v 246.215454 169.043396 -890.139709
v 267.407532 139.913269 -880.465515
v 285.373962 108.179062 -865.233582
v 231.656738 178.138611 -854.347656
v 255.881165 152.818604 -848.329468
v 275.423035 124.453117 -837.810974
v 292.170776 93.5297699 -821.731262
v 210.526123 182.775055 -817.110474
v 237.291809 161.120605 -813.074524
v 258.413635 135.678894 -806.785217
v 276.055237 107.629326 -795.675537
v 290.570801 77.5604706 -780.199524
v 184.255737 183.202576 -780.55072
v 212.240784 164.989166 -775.839783
v 235.15979 142.283997 -771.612366
v 253.750793 116.384903 -765.035706
v 268.789734 88.5735245 -754.657227
v 280.204407 59.6333771 -742.523376
v 80.3946686 34.2001266 -680.292908
v 94.9786835 59.3669128 -681.633301
v 52.7799835 50.0730057 -694.87439
v 108.311584 87.4534683 -684.831177
v 65.7369232 79.2931824 -693.382935
v 26.2671967 68.2699966 -710.223999
v 120.172668 116.242279 -691.435547
v 76.9615326 109.171638 -694.779114
v 37.7858734 99.2998428 -707.057556
v 1.27760315 87.6308594 -728.381836
v 130.815247 142.889404 -704.311646
v 87.6410675 136.964081 -702.296814
v 48.1468048 128.35379 -709.82373
v 12.2351532 118.128151 -726.922424
v -21.1794891 106.2603 -752.431458
v 139.755676 165.387512 -724.894714
v 97.600174 161.444794 -718.012024
v 58.2097321 153.899902 -720.71991
v 22.0460052 144.975006 -733.404785
v -10.8084259 135.069366 -755.242188
v -41.5214081 122.904198 -782.518738
v 146.815002 183.080688 -753.27124
v 106.716492 181.677216 -743.011658
v 67.9225311 176.046356 -741.399048
v 31.7037506 168.175812 -749.430908
v -1.44822693 159.577606 -767.067505
v -31.8724518 149.850372 -790.987915
v -60.3220062 137.199066 -816.416382
v 117.682739 34.5824203 -669.482483
v 153.631836 35.6921539 -665.530701
v 134.909607 62.1303024 -675.838684
v 186.761536 36.9943619 -668.487305
v 171.335632 65.1869278 -677.534607
v 149.668701 91.588356 -684.799683
v 216.274292 37.1756516 -677.708862
v 203.640137 67.1467896 -685.893677
v 185.669312 94.7652588 -692.730347
v 161.942139 120.290321 -697.761658
v 242.469299 35.6233597 -692.130554
v 231.907471 66.8716736 -699.997803
v 216.787842 95.5671768 -707.542969
v 197.212646 121.981316 -712.720764
v 171.974731 145.625854 -717.262268
v 266.329224 32.8522415 -710.582031
v 257.060242 64.1284332 -718.993408
v 244.066101 93.3575439 -728.402649
v 227.274658 120.619057 -735.274475
v 206.14386 145.422607 -739.804993
v 179.363708 166.579834 -744.676514
v 88.9845123 12.5305443 -671.6922
v 98.7587128 -6.42614746 -666.470886
v 129.298889 11.1244316 -660.657959
v 109.973816 -24.2964706 -666.961304
v 140.386658 -9.79206085 -658.087097
v 165.405396 10.2127991 -658.624878
v 122.746338 -42.9091949 -673.471313
v 151.509399 -30.3046951 -662.588684
v 175.89325 -13.1679268 -659.514893
v 197.29895 9.23676109 -664.084045
v 137.498962 -63.2284851 -684.790833
v 163.787598 -51.7814941 -673.155334
v 186.807556 -36.7013245 -667.59375
v 207.257874 -16.8889389 -667.997559
v 225.972656 7.25452042 -675.549255
v 154.195374 -84.7125702 -699.169861
v 178.448181 -74.4444199 -688.189148
v 200.189941 -61.2486496 -681.355896
v 219.562805 -43.4063263 -678.933167
v 237.144043 -21.1688957 -681.887512
v 253.131226 4.37616348 -691.955139
v 48.0762177 21.9224167 -691.834961
v 16.9256134 12.9734726 -708.379456
v 55.2828827 0.455692291 -684.87439
v -11.1164398 5.99817657 -728.161438
v 24.999649 -8.73999786 -703.075195
v 65.5644989 -17.83815 -681.809814
v -34.6885223 0.220752716 -750.21283
v -0.448776245 -16.514679 -724.517578
v 37.7775116 -27.686676 -701.926208
v 79.1504364 -35.5732346 -684.049561
v -53.3642731 -4.82923126 -773.332031
v -20.8518524 -23.337677 -748.199768
v 15.3142548 -36.8109741 -725.309326
v 54.5046844 -46.5875549 -705.537476
v 95.5271454 -54.7068253 -691.516174
v -67.188797 -9.82055664 -796.911743
v -36.7902374 -29.5221786 -773.134766
v -2.58622742 -45.3888168 -750.94458
v 34.944046 -57.5033493 -730.512756
v 74.4603424 -67.190361 -713.768738
v 114.496704 -76.0919647 -703.086304
v 18.1051788 38.7365952 -711.806091
v -8.05430603 57.5301743 -731.957764
v -13.1552887 30.964077 -731.954529
v -31.2409821 76.8447113 -754.552979
v -37.9084625 50.1217728 -755.710571
v -40.2614288 25.0982666 -754.184814
v -51.9329071 95.1859055 -781.786743
v -59.603714 68.9638748 -781.694275
v -63.8580475 44.189949 -780.744873
v -63.0095062 20.0355492 -777.783447
v -71.4058075 111.809311 -813.541443
v -79.6939545 86.5757065 -811.50824
v -85.387558 62.2399521 -809.484741
v -86.7164154 38.6436386 -806.437134
v -81.4334564 14.9565163 -802.036438
g 
f 3 1 2
f 5 2 4
f 6 3 5
f 8 4 7
f 9 5 8
f 10 6 9
f 12 7 11
f 13 8 12
f 14 9 13
f 15 10 14
f 17 11 16
f 18 12 17
f 19 13 18
f 20 14 19
f 21 15 20
f 23 16 22
f 24 17 23
f 25 18 24
f 26 19 25
f 27 20 26
f 28 21 27
f 30 22 29
f 31 23 30
f 32 24 31
f 33 25 32
f 34 26 33
f 35 27 34
f 36 28 35
f 3 2 5
f 5 4 8
f 6 5 9
f 8 7 12
f 9 8 13
f 10 9 14
f 12 11 17
f 13 12 18
f 14 13 19
f 15 14 20
f 17 16 23
f 18 17 24
f 19 18 25
f 20 19 26
f 21 20 27
f 23 22 30
f 24 23 31
f 25 24 32
f 26 25 33
f 27 26 34
f 28 27 35
f 37 1 3
f 38 3 6
f 39 37 38
f 40 6 10
f 41 38 40
f 42 39 41
f 43 10 15
f 44 40 43
f 45 41 44
f 46 42 45
f 47 15 21
f 48 43 47
f 49 44 48
f 50 45 49
f 51 46 50
f 52 21 28
f 53 47 52
f 54 48 53
f 55 49 54
f 56 50 55
f 57 51 56
f 58 28 36
f 59 52 58
f 60 53 59
f 61 54 60
f 62 55 61
f 63 56 62
f 64 57 63
f 37 3 38
f 38 6 40
f 39 38 41
f 40 10 43
f 41 40 44
f 42 41 45
f 43 15 47
f 44 43 48
f 45 44 49
f 46 45 50
f 47 21 52
f 48 47 53
f 49 48 54
f 50 49 55
f 51 50 56
f 52 28 58
f 53 52 59
f 54 53 60
f 55 54 61
f 56 55 62
f 57 56 63
f 65 1 37
f 66 37 39
f 67 65 66
f 68 39 42
f 69 66 68
f 70 67 69
f 71 42 46
f 72 68 71
f 73 69 72
f 74 70 73
f 75 46 51
f 76 71 75
f 77 72 76
f 78 73 77
f 79 74 78
f 80 51 57
f 81 75 80
f 82 76 81
f 83 77 82
f 84 78 83
f 85 79 84
f 86 57 64
f 87 80 86
f 88 81 87
f 89 82 88
f 90 83 89
f 91 84 90
f 92 85 91
f 65 37 66
f 66 39 68
f 67 66 69
f 68 42 71
f 69 68 72
f 70 69 73
f 71 46 75
f 72 71 76
f 73 72 77
f 74 73 78
f 75 51 80
f 76 75 81
f 77 76 82
f 78 77 83
f 79 78 84
f 80 57 86
f 81 80 87
f 82 81 88
f 83 82 89
f 84 83 90
f 85 84 91
f 93 1 65
f 94 65 67
f 95 93 94
f 96 67 70
f 97 94 96
f 98 95 97
f 99 70 74
f 100 96 99
f 101 97 100
f 102 98 101
f 103 74 79
f 104 99 103
f 105 100 104
f 106 101 105
f 107 102 106
f 108 79 85
f 109 103 108
f 110 104 109
f 111 105 110
f 112 106 111
f 113 107 112
f 114 85 92
f 115 108 114
f 116 109 115
f 117 110 116
f 118 111 117
f 119 112 118
f 120 113 119
f 93 65 94
f 94 67 96
f 95 94 97
f 96 70 99
f 97 96 100
f 98 97 101
f 99 74 103
f 100 99 104
f 101 100 105
f 102 101 106
f 103 79 108
f 104 103 109
f 105 104 110
f 106 105 111
f 107 106 112
f 108 85 114
f 109 108 115
f 110 109 116
f 111 110 117
f 112 111 118
f 113 112 119
f 2 1 93
f 121 93 95
f 4 2 121
f 122 95 98
f 123 121 122
f 7 4 123
f 124 98 102
f 125 122 124
f 126 123 125
f 11 7 126
f 127 102 107
f 128 124 127
f 129 125 128
f 130 126 129
f 16 11 130
f 131 107 113
f 132 127 131
f 133 128 132
f 134 129 133
f 135 130 134
f 22 16 135
f 136 113 120
f 137 131 136
f 138 132 137
f 139 133 138
f 140 134 139
f 141 135 140
f 29 22 141
f 2 93 121
f 121 95 122
f 4 121 123
f 122 98 124
f 123 122 125
f 7 123 126
f 124 102 127
f 125 124 128
f 126 125 129
f 11 126 130
f 127 107 131
f 128 127 132
f 129 128 133
f 130 129 134
f 16 130 135
f 131 113 136
f 132 131 137
f 133 132 138
f 134 133 139
f 135 134 140
f 22 135 141
f 142 29 141
f 143 141 140
f 144 142 143
f 145 140 139
f 146 143 145
f 147 144 146
f 148 139 138
f 149 145 148
f 150 146 149
f 151 147 150
f 152 138 137
f 153 148 152
f 154 149 153
f 155 150 154
f 156 151 155
f 157 137 136
f 158 152 157
f 159 153 158
f 160 154 159
f 161 155 160
f 162 156 161
f 163 136 120
f 164 157 163
f 165 158 164
f 166 159 165
f 167 160 166
f 168 161 167
f 169 162 168
f 142 141 143
f 143 140 145
f 144 143 146
f 145 139 148
f 146 145 149
f 147 146 150
f 148 138 152
f 149 148 153
f 150 149 154
f 151 150 155
f 152 137 157
f 153 152 158
f 154 153 159
f 155 154 160
f 156 155 161
f 157 136 163
f 158 157 164
f 159 158 165
f 160 159 166
f 161 160 167
f 162 161 168
f 170 120 119
f 171 119 118
f 172 170 171
f 173 118 117
f 174 171 173
f 175 172 174
f 176 117 116
f 177 173 176
f 178 174 177
f 179 175 178
f 180 116 115
f 181 176 180
f 182 177 181
f 183 178 182
f 184 179 183
f 185 115 114
f 186 180 185
f 187 181 186
f 188 182 187
f 189 183 188
f 190 184 189
f 191 114 92
f 192 185 191
f 193 186 192
f 194 187 193
f 195 188 194
f 196 189 195
f 197 190 196
f 170 119 171
f 171 118 173
f 172 171 174
f 173 117 176
f 174 173 177
f 175 174 178
f 176 116 180
f 177 176 181
f 178 177 182
f 179 178 183
f 180 115 185
f 181 180 186
f 182 181 187
f 183 182 188
f 184 183 189
f 185 114 191
f 186 185 192
f 187 186 193
f 188 187 194
f 189 188 195
f 190 189 196
f 198 92 91
f 199 91 90
f 200 198 199
f 201 90 89
f 202 199 201
f 203 200 202
f 204 89 88
f 205 201 204
f 206 202 205
f 207 203 206
f 208 88 87
f 209 204 208
f 210 205 209
f 211 206 210
f 212 207 211
f 213 87 86
f 214 208 213
f 215 209 214
f 216 210 215
f 217 211 216
f 218 212 217
f 219 86 64
f 220 213 219
f 221 214 220
f 222 215 221
f 223 216 222
f 224 217 223
f 225 218 224
f 198 91 199
f 199 90 201
f 200 199 202
f 201 89 204
f 202 201 205
f 203 202 206
f 204 88 208
f 205 204 209
f 206 205 210
f 207 206 211
f 208 87 213
f 209 208 214
f 210 209 215
f 211 210 216
f 212 211 217
f 213 86 219
f 214 213 220
f 215 214 221
f 216 215 222
f 217 216 223
f 218 217 224
f 226 64 63
f 227 63 62
f 228 226 227
f 229 62 61
f 230 227 229
f 231 228 230
f 232 61 60
f 233 229 232
f 234 230 233
f 235 231 234
f 236 60 59
f 237 232 236
f 238 233 237
f 239 234 238
f 240 235 239
f 241 59 58
f 242 236 241
f 243 237 242
f 244 238 243
f 245 239 244
f 246 240 245
f 247 58 36
f 248 241 247
f 249 242 248
f 250 243 249
f 251 244 250
f 252 245 251
f 253 246 252
f 226 63 227
f 227 62 229
f 228 227 230
f 229 61 232
f 230 229 233
f 231 230 234
f 232 60 236
f 233 232 237
f 234 233 238
f 235 234 239
f 236 59 241
f 237 236 242
f 238 237 243
f 239 238 244
f 240 239 245
f 241 58 247
f 242 241 248
f 243 242 249
f 244 243 250
f 245 244 251
f 246 245 252
f 254 36 35
f 255 35 34
f 256 254 255
f 257 34 33
f 258 255 257
f 259 256 258
f 260 33 32
f 261 257 260
f 262 258 261
f 263 259 262
f 264 32 31
f 265 260 264
f 266 261 265
f 267 262 266
f 268 263 267
f 269 31 30
f 270 264 269
f 271 265 270
f 272 266 271
f 273 267 272
f 274 268 273
f 275 30 29
f 276 269 275
f 277 270 276
f 278 271 277
f 279 272 278
f 280 273 279
f 281 274 280
f 254 35 255
f 255 34 257
f 256 255 258
f 257 33 260
f 258 257 261
f 259 258 262
f 260 32 264
f 261 260 265
f 262 261 266
f 263 262 267
f 264 31 269
f 265 264 270
f 266 265 271
f 267 266 272
f 268 267 273
f 269 30 275
f 270 269 276
f 271 270 277
f 272 271 278
f 273 272 279
f 274 273 280
f 275 29 142
f 282 142 144
f 276 275 282
f 283 144 147
f 284 282 283
f 277 276 284
f 285 147 151
f 286 283 285
f 287 284 286
f 278 277 287
f 288 151 156
f 289 285 288
f 290 286 289
f 291 287 290
f 279 278 291
f 292 156 162
f 293 288 292
f 294 289 293
f 295 290 294
f 296 291 295
f 280 279 296
f 297 162 169
f 298 292 297
f 299 293 298
f 300 294 299
f 301 295 300
f 302 296 301
f 281 280 302
f 275 142 282
f 282 144 283
f 276 282 284
f 283 147 285
f 284 283 286
f 277 284 287
f 285 151 288
f 286 285 289
f 287 286 290
f 278 287 291
f 288 156 292
f 289 288 293
f 290 289 294
f 291 290 295
f 279 291 296
f 292 162 297
f 293 292 298
f 294 293 299
f 295 294 300
f 296 295 301
f 280 296 302
f 163 120 170
f 303 170 172
f 164 163 303
f 304 172 175
f 305 303 304
f 165 164 305
f 306 175 179
f 307 304 306
f 308 305 307
f 166 165 308
f 309 179 184
f 310 306 309
f 311 307 310
f 312 308 311
f 167 166 312
f 313 184 190
f 314 309 313
f 315 310 314
f 316 311 315
f 317 312 316
f 168 167 317
f 318 190 197
f 319 313 318
f 320 314 319
f 321 315 320
f 322 316 321
f 323 317 322
f 169 168 323
f 163 170 303
f 303 172 304
f 164 303 305
f 304 175 306
f 305 304 307
f 165 305 308
f 306 179 309
f 307 306 310
f 308 307 311
f 166 308 312
f 309 184 313
f 310 309 314
f 311 310 315
f 312 311 316
f 167 312 317
f 313 190 318
f 314 313 319
f 315 314 320
f 316 315 321
f 317 316 322
f 168 317 323
f 191 92 198
f 324 198 200
f 192 191 324
f 325 200 203
f 326 324 325
f 193 192 326
f 327 203 207
f 328 325 327
f 329 326 328
f 194 193 329
f 330 207 212
f 331 327 330
f 332 328 331
f 333 329 332
f 195 194 333
f 334 212 218
f 335 330 334
f 336 331 335
f 337 332 336
f 338 333 337
f 196 195 338
f 339 218 225
f 340 334 339
f 341 335 340
f 342 336 341
f 343 337 342
f 344 338 343
f 197 196 344
f 191 198 324
f 324 200 325
f 192 324 326
f 325 203 327
f 326 325 328
f 193 326 329
f 327 207 330
f 328 327 331
f 329 328 332
f 194 329 333
f 330 212 334
f 331 330 335
f 332 331 336
f 333 332 337
f 195 333 338
f 334 218 339
f 335 334 340
f 336 335 341
f 337 336 342
f 338 337 343
f 196 338 344
f 219 64 226
f 345 226 228
f 220 219 345
f 346 228 231
f 347 345 346
f 221 220 347
f 348 231 235
f 349 346 348
f 350 347 349
f 222 221 350
f 351 235 240
f 352 348 351
f 353 349 352
f 354 350 353
f 223 222 354
f 355 240 246
f 356 351 355
f 357 352 356
f 358 353 357
f 359 354 358
f 224 223 359
f 360 246 253
f 361 355 360
f 362 356 361
f 363 357 362
f 364 358 363
f 365 359 364
f 225 224 365
f 219 226 345
f 345 228 346
f 220 345 347
f 346 231 348
f 347 346 349
f 221 347 350
f 348 235 351
f 349 348 352
f 350 349 353
f 222 350 354
f 351 240 355
f 352 351 356
f 353 352 357
f 354 353 358
f 223 354 359
f 355 246 360
f 356 355 361
f 357 356 362
f 358 357 363
f 359 358 364
f 224 359 365
f 247 36 254
f 366 254 256
f 248 247 366
f 367 256 259
f 368 366 367
f 249 248 368
f 369 259 263
f 370 367 369
f 371 368 370
f 250 249 371
f 372 263 268
f 373 369 372
f 374 370 373
f 375 371 374
f 251 250 375
f 376 268 274
f 377 372 376
f 378 373 377
f 379 374 378
f 380 375 379
f 252 251 380
f 381 274 281
f 382 376 381
f 383 377 382
f 384 378 383
f 385 379 384
f 386 380 385
f 253 252 386
f 247 254 366
f 366 256 367
f 248 366 368
f 367 259 369
f 368 367 370
f 249 368 371
f 369 263 372
f 370 369 373
f 371 370 374
f 250 371 375
f 372 268 376
f 373 372 377
f 374 373 378
f 375 374 379
f 251 375 380
f 376 274 381
f 377 376 382
f 378 377 383
f 379 378 384
f 380 379 385
f 252 380 386
f 389 387 388
f 391 388 390
f 392 389 391
f 394 390 393
f 395 391 394
f 396 392 395
f 398 393 397
f 399 394 398
f 400 395 399
f 401 396 400
f 403 397 402
f 404 398 403
f 405 399 404
f 406 400 405
f 407 401 406
f 409 402 408
f 410 403 409
f 411 404 410
f 412 405 411
f 413 406 412
f 414 407 413
f 302 408 281
f 301 409 302
f 300 410 301
f 299 411 300
f 298 412 299
f 297 413 298
f 169 414 297
f 389 388 391
f 391 390 394
f 392 391 395
f 394 393 398
f 395 394 399
f 396 395 400
f 398 397 403
f 399 398 404
f 400 399 405
f 401 400 406
f 403 402 409
f 404 403 410
f 405 404 411
f 406 405 412
f 407 406 413
f 409 408 302
f 410 409 301
f 411 410 300
f 412 411 299
f 413 412 298
f 414 413 297
f 388 387 415
f 417 415 416
f 390 388 417
f 419 416 418
f 420 417 419
f 393 390 420
f 422 418 421
f 423 419 422
f 424 420 423
f 397 393 424
f 426 421 425
f 427 422 426
f 428 423 427
f 429 424 428
f 402 397 429
f 431 425 430
f 432 426 431
f 433 427 432
f 434 428 433
f 435 429 434
f 408 402 435
f 386 430 253
f 385 431 386
f 384 432 385
f 383 433 384
f 382 434 383
f 381 435 382
f 281 408 381
f 388 415 417
f 417 416 419
f 390 417 420
f 419 418 422
f 420 419 423
f 393 420 424
f 422 421 426
f 423 422 427
f 424 423 428
f 397 424 429
f 426 425 431
f 427 426 432
f 428 427 433
f 429 428 434
f 402 429 435
f 431 430 386
f 432 431 385
f 433 432 384
f 434 433 383
f 435 434 382
f 408 435 381
f 415 387 436
f 438 436 437
f 416 415 438
f 440 437 439
f 441 438 440
f 418 416 441
f 443 439 442
f 444 440 443
f 445 441 444
f 421 418 445
f 447 442 446
f 448 443 447
f 449 444 448
f 450 445 449
f 425 421 450
f 452 446 451
f 453 447 452
f 454 448 453
f 455 449 454
f 456 450 455
f 430 425 456
f 365 451 225
f 364 452 365
f 363 453 364
f 362 454 363
f 361 455 362
f 360 456 361
f 253 430 360
f 415 436 438
f 438 437 440
f 416 438 441
f 440 439 443
f 441 440 444
f 418 441 445
f 443 442 447
f 444 443 448
f 445 444 449
f 421 445 450
f 447 446 452
f 448 447 453
f 449 448 454
f 450 449 455
f 425 450 456
f 452 451 365
f 453 452 364
f 454 453 363
f 455 454 362
f 456 455 361
f 430 456 360
f 436 387 457
f 459 457 458
f 437 436 459
f 461 458 460
f 462 459 461
f 439 437 462
f 464 460 463
f 465 461 464
f 466 462 465
f 442 439 466
f 468 463 467
f 469 464 468
f 470 465 469
f 471 466 470
f 446 442 471
f 473 467 472
f 474 468 473
f 475 469 474
f 476 470 475
f 477 471 476
f 451 446 477
f 344 472 197
f 343 473 344
f 342 474 343
f 341 475 342
f 340 476 341
f 339 477 340
f 225 451 339
f 436 457 459
f 459 458 461
f 437 459 462
f 461 460 464
f 462 461 465
f 439 462 466
f 464 463 468
f 465 464 469
f 466 465 470
f 442 466 471
f 468 467 473
f 469 468 474
f 470 469 475
f 471 470 476
f 446 471 477
f 473 472 344
f 474 473 343
f 475 474 342
f 476 475 341
f 477 476 340
f 451 477 339
f 457 387 389
f 478 389 392
f 458 457 478
f 479 392 396
f 480 478 479
f 460 458 480
f 481 396 401
f 482 479 481
f 483 480 482
f 463 460 483
f 484 401 407
f 485 481 484
f 486 482 485
f 487 483 486
f 467 463 487
f 488 407 414
f 489 484 488
f 490 485 489
f 491 486 490
f 492 487 491
f 472 467 492
f 323 414 169
f 322 488 323
f 321 489 322
f 320 490 321
f 319 491 320
f 318 492 319
f 197 472 318
f 457 389 478
f 478 392 479
f 458 478 480
f 479 396 481
f 480 479 482
f 460 480 483
f 481 401 484
f 482 481 485
f 483 482 486
f 463 483 487
f 484 407 488
f 485 484 489
f 486 485 490
f 487 486 491
f 467 487 492
f 488 414 323
f 489 488 322
f 490 489 321
f 491 490 320
f 492 491 319
f 472 492 318
