# File exported by Houdini 20.5.445 (www.sidefx.com)
# 492 points
# 2940 vertices
# 980 primitives
# Bounds: [-127.036652, -130.895569, -1118.96851] to [297.810577, 247.272675, -635.83252]
g 
v 191.0112 69.7795486 -1072.98694
v 190.204254 87.7148285 -1069.47546
v 220.916718 69.1946106 -1052.58032
v 186.217377 105.663078 -1061.39392
v 221.74826 88.197258 -1046.64893
v 246.141937 69.7830887 -1028.42737
v 181.102692 123.712257 -1047.97961
v 219.331146 106.446281 -1035.98633
v 247.457733 89.7002106 -1020.60889
v 266.490326 72.0951004 -1000.78467
v 176.071075 141.892761 -1028.94592
v 215.421417 124.400391 -1020.06567
v 245.541534 108.366226 -1007.78516
v 267.722748 92.8037338 -991.382935
v 281.768768 76.6435852 -970.230957
v 170.74942 159.623505 -1004.29724
v 210.3815 142.44696 -998.555176
v 241.655975 126.732803 -989.407471
v 265.614288 112.180901 -976.429199
v 282.609528 98.2746506 -959.266113
v 292.03006 84.2457962 -938.160034
v 164.040375 175.402985 -973.713135
v 203.511932 160.047485 -970.333374
v 235.476593 145.16156 -964.320801
v 260.772186 131.648071 -954.957764
v 279.810699 119.283127 -942.006958
v 292.553436 107.622536 -925.733276
v 297.683197 95.5465698 -906.87561
v 155.070526 189.092987 -937.889282
v 193.372101 176.438782 -934.628662
v 225.941193 163.253448 -930.163818
v 252.588287 151.253784 -923.920898
v 273.46402 140.964569 -915.569458
v 288.417511 131.326324 -904.815552
v 297.001495 120.989464 -891.79126
v 297.810577 108.755737 -877.194824
v 205.718231 51.3527679 -1061.19312
v 235.422028 50.2436829 -1036.46082
v 212.77182 33.3375206 -1046.25916
v 258.177643 51.4120407 -1008.36133
v 241.063629 32.6779175 -1017.56323
v 212.257233 16.1864853 -1028.79297
v 274.858612 55.2040482 -977.395996
v 260.611664 35.378685 -985.481934
v 238.190521 16.9513836 -995.760132
v 205.266754 0.383480072 -1008.40857
v 285.78067 61.986557 -944.208252
v 273.059906 41.2143021 -951.047974
v 254.317108 21.0994911 -960.165649
v 228.210419 2.45741653 -971.693481
v 193.776031 -14.9276276 -986.447754
v 291.79538 72.551384 -910.99585
v 279.634918 50.2064362 -915.62793
v 262.551666 28.3542023 -922.970825
v 240.855927 7.1401329 -933.575439
v 213.065765 -12.4548264 -947.436401
v 179.673187 -30.9479675 -964.85437
v 292.637054 86.3695297 -879.36499
v 281.140289 62.7996902 -881.56311
v 264.729034 38.7276688 -885.998413
v 244.932526 14.5591793 -894.606812
v 221.645172 -8.58686447 -907.856201
v 194.29599 -29.3296051 -924.971191
v 164.246307 -47.9037552 -944.402588
v 167.712738 59.575531 -1083.26367
v 177.948944 39.5101166 -1070.27625
v 139.035614 49.9373322 -1089.07532
v 179.756317 20.2223816 -1055.51001
v 145.263214 28.3172455 -1074.62158
v 106.369904 39.8135071 -1090.34216
v 175.349518 1.7082653 -1038.75208
v 144.234283 6.97329903 -1059.95984
v 111.059326 15.566803 -1074.54333
v 73.5361328 27.381794 -1086.67175
v 166.745758 -16.1839027 -1019.56409
v 138.820831 -14.3374634 -1044.04102
v 110.00177 -9.38848877 -1059.88318
v 79.057373 -0.781795502 -1070.05981
v 44.2867432 11.265461 -1078.3313
v 155.616302 -34.5207291 -998.545044
v 130.811157 -35.9747467 -1025.64807
v 105.676971 -35.1134491 -1044.23584
v 79.6617432 -30.640274 -1054.91321
v 51.4785156 -21.7249603 -1061.44348
v 20.5958557 -8.86253738 -1066.07703
v 142.860077 -53.9780197 -975.821899
v 120.968536 -58.5891495 -1003.54138
v 99.1715698 -61.7472382 -1024.50159
v 77.1288147 -61.9556808 -1037.4613
v 53.8013306 -57.0872421 -1044.43066
v 28.6722412 -46.5994186 -1048.29236
v 2.4362793 -31.7583618 -1049.98828
v 157.056671 81.8950195 -1088.43237
v 129.225647 71.7456894 -1099.36914
v 118.474335 93.8228073 -1100.46631
v 97.667511 62.205574 -1104.4071
v 87.7164307 83.0455933 -1111.56677
v 77.9868774 105.911438 -1108.63123
v 64.3150024 51.8815613 -1103.23352
v 55.2668457 72.9855194 -1114.95288
v 46.283783 94.1658249 -1118.50146
v 38.9281311 118.483307 -1111.18225
v 32.8179016 38.9184952 -1095.72803
v 22.9548035 62.0583878 -1110.54419
v 14.5646973 83.2797775 -1118.96851
v 8.01535034 105.687073 -1118.01685
v 3.08474731 130.653351 -1105.8667
v 6.31634521 21.4752865 -1082.18103
v -5.90579224 47.7154999 -1097.97217
v -15.4429016 71.0313492 -1109.77344
v -21.8303223 93.4658966 -1113.74829
v -25.8745422 116.857689 -1107.71985
v -28.0544739 141.756561 -1091.23572
v -13.9536743 -1.0729847 -1062.92114
v -28.9080505 27.8637562 -1077.0719
v -40.8887024 54.4643707 -1089.89648
v -48.799469 79.4160614 -1097.51221
v -53.0838623 103.622147 -1096.59546
v -54.7446594 127.789177 -1086.1416
v -53.9324341 151.978882 -1067.56067
v 151.314972 101.889603 -1083.15845
v 110.307709 115.790443 -1091.89722
v 144.060089 121.582535 -1071.99927
v 69.796814 129.972137 -1095.97253
v 102.083282 137.328461 -1076.69336
v 137.456696 141.174133 -1054.76941
v 31.1151733 143.812897 -1093.52747
v 61.2486572 152.738312 -1075.87109
v 94.6712036 157.963379 -1054.82898
v 131.72644 160.124481 -1031.40308
v -4.29855347 156.797577 -1082.0448
v 22.5463257 167.748016 -1066.97803
v 53.2596741 174.489899 -1047.63074
v 88.1876526 177.537231 -1025.58557
v 126.056976 177.710052 -1001.34387
v -35.4888306 168.663452 -1059.83667
v -13.148468 182.119171 -1046.87891
v 13.7784424 191.209656 -1029.52563
v 45.6783752 195.506439 -1009.22388
v 81.7725525 195.587219 -987.210327
v 119.208618 192.969086 -963.377319
v 122.334747 204.216644 -914.808838
v 81.5135193 209.058289 -939.84314
v 88.6630554 218.618378 -889.286621
v 42.4082031 212.344147 -962.684082
v 45.6266174 223.301514 -913.552246
v 55.680603 231.565369 -862.165771
v 7.46783447 211.365112 -983.873779
v 6.94195557 225.528748 -935.685059
v 12.4240417 234.876801 -885.780029
v 24.2956543 241.377411 -834.683228
v -21.7704163 204.416412 -1003.38525
v -25.7481079 221.967194 -956.40625
v -24.8171387 234.448944 -907.489136
v -17.8009644 242.40387 -857.771729
v -4.97698975 246.640778 -808.370605
v -45.7640686 191.430573 -1020.22595
v -52.4075623 211.289185 -975.658936
v -55.5050049 227.22171 -928.198242
v -53.7052917 238.731506 -879.406616
v -45.9126892 245.439087 -831.226929
v -32.1947327 247.272675 -785.184204
v -65.4422913 173.037842 -1033.13879
v -74.3693848 193.533813 -992.64209
v -81.0679932 212.106781 -947.945801
v -83.9579773 227.393127 -900.755737
v -80.9354553 238.017914 -853.368286
v -71.1375732 243.098785 -808.163086
v -55.3357239 242.519653 -766.686401
v -76.2685852 145.961426 -1050.96704
v -76.6864624 117.942711 -1067.88318
v -94.0224609 138.079559 -1030.45569
v -73.6907959 90.2083817 -1074.43799
v -91.7249146 105.975533 -1044.53906
v -107.650787 128.593414 -1007.04065
v -67.5440979 61.9552994 -1071.40442
v -86.4526672 74.1813583 -1047.11157
v -102.314148 92.6377182 -1017.72559
v -116.756454 117.551689 -981.633789
v -56.8615723 32.3526192 -1061.7998
v -77.8678284 41.3957138 -1041.37634
v -94.6629944 56.5682907 -1017.08411
v -109.023956 78.0680923 -988.972656
v -119.993942 104.524704 -955.049561
v -41.4101562 0.411487579 -1049.33716
v -64.127594 6.43485451 -1031.12952
v -83.3527527 18.5334797 -1009.60535
v -99.3817444 37.4168243 -985.759888
v -111.110748 61.6903763 -959.13855
v -116.633377 88.8998032 -927.859619
v -22.5172119 -34.2444153 -1037.00476
v -45.4416504 -31.8789444 -1019.65625
v -66.6190186 -22.9981995 -999.089722
v -85.1581726 -6.49404144 -976.854492
v -99.0036926 16.65979 -953.539917
v -106.106964 43.5924988 -928.475342
v -106.601196 71.2952805 -900.50647
v 3.26535034 -65.2217941 -1031.04443
v 29.074585 -81.2940826 -1029.56482
v 3.65643311 -95.2035217 -1010.18555
v 52.2597351 -88.9761353 -1024.64331
v 28.5931396 -108.55558 -1007.71497
v 3.4375 -116.237572 -985.79248
v 73.2081604 -89.1800995 -1015.00061
v 50.0870056 -111.399071 -1000.37842
v 27.328949 -124.885704 -980.992188
v 2.41394043 -126.434258 -956.958862
v 93.0827637 -84.6249313 -998.669678
v 69.4874268 -107.165306 -987.174316
v 47.5965576 -123.383675 -970.312012
v 25.3245239 -130.895569 -948.934937
v 1.27624512 -128.002136 -924.164062
v 113.701019 -77.815979 -974.527832
v 88.5451965 -99.392189 -967.044922
v 66.5145569 -116.210777 -952.926758
v 45.3467102 -126.711388 -934.228394
v 23.8838501 -129.748138 -912.461182
v 1.88461304 -124.3899 -889.140503
v 136.080963 -69.5779343 -943.686401
v 109.709564 -89.9348297 -939.267212
v 86.586792 -106.562538 -928.427612
v 65.6837463 -118.197731 -912.272705
v 45.4284668 -124.23452 -893.34314
v 25.4020386 -124.267128 -873.403076
v 6.15512085 -117.902763 -854.103149
v 166.132965 -52.7445297 -912.566895
v 196.006744 -29.5354919 -890.525269
v 165.948395 -54.404953 -882.194092
v 221.675507 -3.28295517 -872.979004
v 195.011383 -25.8313446 -860.730835
v 164.355682 -52.1050262 -854.325928
v 243.703949 24.6982861 -861.033081
v 219.169159 5.44193268 -844.841675
v 191.820587 -18.5014954 -835.144775
v 161.752045 -44.6694794 -829.004883
v 263.061737 52.5253067 -854.900269
v 240.168427 37.0318527 -835.164673
v 214.326996 16.3894615 -821.500732
v 186.463104 -7.60306549 -812.354126
v 157.922028 -32.1061478 -805.004517
v 278.835114 79.7786102 -852.477783
v 258.342682 67.9033585 -830.328247
v 233.791107 50.6116943 -813.035645
v 207.019928 29.2312546 -800.176392
v 179.360748 6.35611534 -790.472534
v 153.114349 -15.5543976 -781.429688
v 289.178436 106.252892 -851.085327
v 272.39743 98.1902161 -827.673096
v 249.845245 84.4072266 -807.420288
v 224.024567 65.7978058 -790.876709
v 197.124115 44.5745544 -777.869141
v 170.851593 23.401741 -767.482544
v 147.18692 3.37688637 -757.983643
v 294.169708 129.528351 -856.769897
v 291.010956 143.020325 -867.314209
v 284.981659 147.739838 -833.271484
v 280.109772 152.730713 -875.558228
v 279.88327 161.549316 -839.442017
v 270.48642 162.835815 -806.274292
v 262.573822 161.103027 -882.132202
v 266.714752 171.037262 -844.309326
v 263.460358 177.555542 -809.513794
v 250.830719 175.649414 -777.520752
v 238.511871 170.444 -887.719971
v 245.991058 179.502625 -848.717407
v 247.350494 188.133209 -812.765259
v 241.087006 192.175781 -779.503174
v 225.901642 186.530579 -749.515381
v 207.604462 182.178162 -892.756958
v 217.385712 189.650665 -853.029907
v 222.173248 198.335876 -816.112061
v 220.792023 205.037384 -781.968262
v 212.1409 205.260529 -750.938965
v 195.438995 194.618469 -724.376831
v 168.629364 194.816284 -897.851562
v 179.36142 201.710541 -857.975586
v 186.427399 209.99234 -819.849243
v 188.902985 217.638123 -784.457886
v 185.691132 220.571106 -752.488403
v 175.98056 214.74118 -724.92688
v 161.24826 199.291016 -702.701782
v 134.740723 211.609131 -870.002808
v 100.782654 226.726257 -841.901855
v 143.998932 219.961761 -828.135132
v 67.6469421 238.794434 -813.945312
v 109.164764 234.635223 -799.471313
v 149.459137 227.927399 -789.494263
v 35.8447571 245.948059 -786.842773
v 75.2392273 243.942841 -771.710449
v 113.387238 239.640625 -760.949585
v 150.414886 232.351349 -754.29895
v 5.24359131 247.173584 -761.746948
v 41.9576111 245.88327 -745.024292
v 77.5635071 242.993713 -733.344238
v 112.236572 237.500153 -725.962891
v 145.402863 228.401855 -723.044312
v -23.6767578 242.211884 -740.284668
v 9.15884399 240.028412 -720.340332
v 41.997345 236.47522 -706.525757
v 74.1922913 231.338135 -698.205688
v 105.395813 223.898468 -695.032959
v 134.686798 213.026184 -696.696411
v -88.7164612 168.372681 -1011.47192
v -107.450989 161.994781 -988.271851
v -98.9354858 189.641022 -968.167236
v -120.651901 153.523254 -964.073853
v -117.386948 183.575287 -943.647583
v -105.73703 208.336731 -922.045166
v -126.168945 142.416626 -939.044312
v -127.036652 174.486481 -918.921997
v -121.006134 201.459564 -896.740479
v -106.352997 222.996216 -874.181396
v -123.034332 127.598114 -912.996338
v -126.375122 161.220184 -893.410645
v -124.757172 190.213745 -871.043335
v -116.26297 214.114197 -847.841309
v -98.9263916 232.017853 -825.940063
v -111.60675 108.305328 -885.415649
v -115.18103 142.244904 -865.86145
v -115.826874 172.893921 -843.241577
v -111.90625 199.157013 -819.50769
v -101.336273 219.872345 -797.031616
v -82.5662842 234.25351 -778.656982
v -21.9913635 -68.2136917 -1012.95984
v -21.7696533 -94.250061 -987.974487
v -45.2147827 -62.758522 -991.518433
v -21.9024658 -109.525429 -960.43811
v -44.7649841 -82.7851791 -963.66333
v -66.1787415 -48.3536987 -968.442505
v -21.9862061 -115.124077 -929.284668
v -43.6543579 -92.4878235 -933.720337
v -63.9805908 -62.2494202 -938.330811
v -82.7527161 -25.6210442 -944.522583
v -20.5606384 -114.042076 -894.545288
v -40.8611145 -94.6224213 -899.99646
v -59.3398132 -67.3426285 -905.440063
v -76.4985352 -34.2570801 -911.590454
v -92.3374023 3.23132133 -919.23999
v -15.5083618 -108.995872 -857.468506
v -34.7692871 -91.7070007 -861.972534
v -51.4332275 -66.4315262 -867.469482
v -66.3923645 -35.3527451 -874.08728
v -80.551239 -0.69143486 -882.048462
v -94.1911621 35.4906616 -891.159912
v 136.07312 -75.8286285 -909.597778
v 135.506317 -77.964447 -877.449707
v 109.753296 -94.6410751 -901.957764
v 135.341034 -74.7752151 -847.600952
v 110.71814 -94.625679 -867.250977
v 87.5371704 -107.866982 -888.257202
v 135.132263 -65.0408401 -819.596313
v 112.635284 -88.6200333 -834.912231
v 89.7919006 -104.485985 -851.614746
v 67.0610352 -115.625389 -870.737305
v 133.755005 -48.8344345 -792.029419
v 114.262726 -75.7114182 -803.971069
v 92.6307678 -95.413414 -817.423096
v 69.4808044 -108.962471 -833.076416
v 46.5658875 -118.136482 -851.579834
v 130.442169 -27.4720688 -764.152222
v 113.764038 -55.8042984 -772.802856
v 94.4740295 -79.2963867 -783.809937
v 72.0536499 -96.5199432 -797.333374
v 48.3076477 -107.789513 -813.338867
v 25.8139038 -114.640541 -832.333618
v 282.111542 126.04705 -828.974487
v 269.192596 141.619171 -804.895874
v 261.877594 115.488037 -804.924927
v 251.261932 153.756927 -778.07251
v 246.170746 128.351273 -780.880127
v 236.84201 99.350029 -784.328369
v 228.269562 163.597443 -750.01001
v 225.759003 138.235687 -754.572754
v 219.322296 110.394897 -760.259277
v 209.534332 79.3716049 -767.203979
v 199.261993 171.074738 -723.110596
v 199.137421 145.530945 -727.320923
v 195.800079 118.258774 -734.3573
v 189.614166 88.9396667 -742.678955
v 181.148651 57.3944397 -753.262573
v 165.055939 176.237793 -698.745239
v 166.242096 150.646484 -700.660156
v 165.276459 123.474762 -707.17627
v 162.307953 95.0141144 -716.406128
v 157.825775 65.3584976 -727.624878
v 152.892548 34.7107697 -741.552734
v 15.971283 52.8268967 -659.971924
v 28.5885925 75.1362762 -644.571533
v 4.58258057 89.5765533 -653.35022
v 42.0348206 98.6978073 -638.224243
v 16.7785339 113.696632 -638.875244
v -8.57583618 126.149147 -654.5448
v 57.6549377 122.757858 -640.01709
v 30.8961792 136.679443 -635.83252
v 4.47229004 149.807709 -642.665283
v -22.7156982 160.352539 -664.174316
v 77.3757935 146.263947 -648.362671
v 49.1186218 158.756042 -641.801392
v 21.3134766 170.846771 -643.548828
v -6.81918335 181.794189 -655.748901
v -36.0992432 190.167023 -681.749756
v 101.618225 167.823425 -662.057007
v 72.321991 179.913208 -654.521362
v 43.25354 190.371643 -653.670654
v 13.9024963 200.126709 -660.603027
v -16.0730286 208.381592 -677.125244
v -47.0411987 214.332916 -705.661011
v 130.045837 185.95163 -680.319092
v 100.91922 198.8302 -672.854126
v 71.0858459 208.754364 -670.943359
v 40.6306763 216.682739 -675.101318
v 9.59216309 223.540802 -686.242188
v -21.9926758 228.805084 -705.527344
v -53.843811 231.964905 -734.290161
v 33.8894043 32.0429535 -661.945923
v 51.7770081 17.1013069 -670.152222
v 49.2697144 57.9675751 -650.415283
v 70.3658752 8.67271996 -682.299561
v 68.6397705 47.5512238 -662.097778
v 65.0050354 84.9896011 -647.873047
v 89.7686462 4.94590759 -698.270874
v 87.996582 42.038002 -677.763184
v 86.1965637 77.1734314 -662.778442
v 83.0046387 111.441101 -652.352417
v 109.521179 3.82456398 -717.081787
v 108.444611 39.064003 -696.912231
v 107.722351 72.3536911 -681.538086
v 107.151886 104.255486 -669.920776
v 105.47937 135.831787 -662.57666
v 128.81897 3.59491539 -737.383667
v 130.245972 36.9890823 -718.451294
v 131.41037 68.849556 -703.258057
v 132.971619 99.1921463 -691.331909
v 133.756622 128.648224 -682.324463
v 132.889923 157.711395 -677.94397
v 13.8822937 17.9141464 -681.618774
v 10.456543 -14.3596039 -708.153687
v 32.1170349 -5.1346817 -685.76416
v 6.98538208 -42.8290863 -737.231934
v 30.0972595 -36.7424393 -713.025513
v 51.2046204 -19.7274933 -694.84436
v 3.43991089 -67.3353043 -766.196411
v 28.5939636 -62.8083191 -741.714966
v 51.2495422 -49.4240799 -722.02771
v 71.4295349 -26.7786484 -707.37085
v 0.723510742 -88.1456833 -794.22168
v 26.6175842 -84.0824738 -770.267456
v 51.3055725 -73.3023071 -750.646851
v 73.0445251 -55.0032501 -734.865479
v 91.9530945 -29.0029144 -723.668091
v 1.08700562 -105.12925 -822.856934
v 24.7575684 -101.385994 -799.476929
v 49.7945251 -92.6339111 -780.371338
v 73.575592 -77.9690399 -764.52063
v 94.1645813 -56.4730225 -751.930542
v 111.812561 -28.6967926 -742.890381
v -2.65682983 55.5582275 -678.765381
v -21.0677795 61.4762421 -707.628906
v -6.02719116 19.7857456 -706.130127
v -39.6082153 69.1477737 -744.292358
v -24.6770325 25.5611572 -738.744629
v -10.4749756 -12.0158653 -736.447998
v -58.3347168 75.495163 -784.885864
v -42.8578186 32.621666 -776.093384
v -29.630249 -6.41954803 -769.967163
v -15.5078735 -40.5203857 -766.815186
v -77.0477295 77.8255997 -825.38562
v -61.2699585 37.2776566 -814.783325
v -47.9914856 -1.21622467 -805.94519
v -35.1669312 -36.4807663 -799.644897
v -19.9599609 -66.4536057 -795.922363
v -94.0820923 75.9455719 -863.976196
v -79.172699 37.9148865 -853.09436
v -65.4295044 0.673213959 -843.189087
v -52.3576965 -34.3146667 -835.125122
v -38.2739868 -65.3028564 -829.191406
v -20.9616394 -89.6547928 -825.187256
v -16.4828186 96.2720718 -677.913208
v -32.2673035 134.4664 -685.463013
v -36.7480469 104.492218 -712.942749
v -49.0499268 168.38205 -700.375366
v -54.7958069 142.572357 -725.764282
v -57.0374756 112.033592 -754.565186
v -64.6212158 197.084991 -721.403687
v -73.5519104 174.882202 -744.416748
v -76.7513733 147.76178 -770.994141
v -77.2784119 115.673004 -798.666992
v -76.7630005 219.418732 -747.513916
v -90.0907593 201.041046 -768.008057
v -96.2644043 176.888672 -792.429443
v -97.6998291 147.710602 -817.914429
v -96.5057678 114.116768 -842.331177
g 
f 3 1 2
f 5 2 4
f 6 3 5
f 8 4 7
f 9 5 8
f 10 6 9
f 12 7 11
f 13 8 12
f 14 9 13
f 15 10 14
f 17 11 16
f 18 12 17
f 19 13 18
f 20 14 19
f 21 15 20
f 23 16 22
f 24 17 23
f 25 18 24
f 26 19 25
f 27 20 26
f 28 21 27
f 30 22 29
f 31 23 30
f 32 24 31
f 33 25 32
f 34 26 33
f 35 27 34
f 36 28 35
f 3 2 5
f 5 4 8
f 6 5 9
f 8 7 12
f 9 8 13
f 10 9 14
f 12 11 17
f 13 12 18
f 14 13 19
f 15 14 20
f 17 16 23
f 18 17 24
f 19 18 25
f 20 19 26
f 21 20 27
f 23 22 30
f 24 23 31
f 25 24 32
f 26 25 33
f 27 26 34
f 28 27 35
f 37 1 3
f 38 3 6
f 39 37 38
f 40 6 10
f 41 38 40
f 42 39 41
f 43 10 15
f 44 40 43
f 45 41 44
f 46 42 45
f 47 15 21
f 48 43 47
f 49 44 48
f 50 45 49
f 51 46 50
f 52 21 28
f 53 47 52
f 54 48 53
f 55 49 54
f 56 50 55
f 57 51 56
f 58 28 36
f 59 52 58
f 60 53 59
f 61 54 60
f 62 55 61
f 63 56 62
f 64 57 63
f 37 3 38
f 38 6 40
f 39 38 41
f 40 10 43
f 41 40 44
f 42 41 45
f 43 15 47
f 44 43 48
f 45 44 49
f 46 45 50
f 47 21 52
f 48 47 53
f 49 48 54
f 50 49 55
f 51 50 56
f 52 28 58
f 53 52 59
f 54 53 60
f 55 54 61
f 56 55 62
f 57 56 63
f 65 1 37
f 66 37 39
f 67 65 66
f 68 39 42
f 69 66 68
f 70 67 69
f 71 42 46
f 72 68 71
f 73 69 72
f 74 70 73
f 75 46 51
f 76 71 75
f 77 72 76
f 78 73 77
f 79 74 78
f 80 51 57
f 81 75 80
f 82 76 81
f 83 77 82
f 84 78 83
f 85 79 84
f 86 57 64
f 87 80 86
f 88 81 87
f 89 82 88
f 90 83 89
f 91 84 90
f 92 85 91
f 65 37 66
f 66 39 68
f 67 66 69
f 68 42 71
f 69 68 72
f 70 69 73
f 71 46 75
f 72 71 76
f 73 72 77
f 74 73 78
f 75 51 80
f 76 75 81
f 77 76 82
f 78 77 83
f 79 78 84
f 80 57 86
f 81 80 87
f 82 81 88
f 83 82 89
f 84 83 90
f 85 84 91
f 93 1 65
f 94 65 67
f 95 93 94
f 96 67 70
f 97 94 96
f 98 95 97
f 99 70 74
f 100 96 99
f 101 97 100
f 102 98 101
f 103 74 79
f 104 99 103
f 105 100 104
f 106 101 105
f 107 102 106
f 108 79 85
f 109 103 108
f 110 104 109
f 111 105 110
f 112 106 111
f 113 107 112
f 114 85 92
f 115 108 114
f 116 109 115
f 117 110 116
f 118 111 117
f 119 112 118
f 120 113 119
f 93 65 94
f 94 67 96
f 95 94 97
f 96 70 99
f 97 96 100
f 98 97 101
f 99 74 103
f 100 99 104
f 101 100 105
f 102 101 106
f 103 79 108
f 104 103 109
f 105 104 110
f 106 105 111
f 107 106 112
f 108 85 114
f 109 108 115
f 110 109 116
f 111 110 117
f 112 111 118
f 113 112 119
f 2 1 93
f 121 93 95
f 4 2 121
f 122 95 98
f 123 121 122
f 7 4 123
f 124 98 102
f 125 122 124
f 126 123 125
f 11 7 126
f 127 102 107
f 128 124 127
f 129 125 128
f 130 126 129
f 16 11 130
f 131 107 113
f 132 127 131
f 133 128 132
f 134 129 133
f 135 130 134
f 22 16 135
f 136 113 120
f 137 131 136
f 138 132 137
f 139 133 138
f 140 134 139
f 141 135 140
f 29 22 141
f 2 93 121
f 121 95 122
f 4 121 123
f 122 98 124
f 123 122 125
f 7 123 126
f 124 102 127
f 125 124 128
f 126 125 129
f 11 126 130
f 127 107 131
f 128 127 132
f 129 128 133
f 130 129 134
f 16 130 135
f 131 113 136
f 132 131 137
f 133 132 138
f 134 133 139
f 135 134 140
f 22 135 141
f 142 29 141
f 143 141 140
f 144 142 143
f 145 140 139
f 146 143 145
f 147 144 146
f 148 139 138
f 149 145 148
f 150 146 149
f 151 147 150
f 152 138 137
f 153 148 152
f 154 149 153
f 155 150 154
f 156 151 155
f 157 137 136
f 158 152 157
f 159 153 158
f 160 154 159
f 161 155 160
f 162 156 161
f 163 136 120
f 164 157 163
f 165 158 164
f 166 159 165
f 167 160 166
f 168 161 167
f 169 162 168
f 142 141 143
f 143 140 145
f 144 143 146
f 145 139 148
f 146 145 149
f 147 146 150
f 148 138 152
f 149 148 153
f 150 149 154
f 151 150 155
f 152 137 157
f 153 152 158
f 154 153 159
f 155 154 160
f 156 155 161
f 157 136 163
f 158 157 164
f 159 158 165
f 160 159 166
f 161 160 167
f 162 161 168
f 170 120 119
f 171 119 118
f 172 170 171
f 173 118 117
f 174 171 173
f 175 172 174
f 176 117 116
f 177 173 176
f 178 174 177
f 179 175 178
f 180 116 115
f 181 176 180
f 182 177 181
f 183 178 182
f 184 179 183
f 185 115 114
f 186 180 185
f 187 181 186
f 188 182 187
f 189 183 188
f 190 184 189
f 191 114 92
f 192 185 191
f 193 186 192
f 194 187 193
f 195 188 194
f 196 189 195
f 197 190 196
f 170 119 171
f 171 118 173
f 172 171 174
f 173 117 176
f 174 173 177
f 175 174 178
f 176 116 180
f 177 176 181
f 178 177 182
f 179 178 183
f 180 115 185
f 181 180 186
f 182 181 187
f 183 182 188
f 184 183 189
f 185 114 191
f 186 185 192
f 187 186 193
f 188 187 194
f 189 188 195
f 190 189 196
f 198 92 91
f 199 91 90
f 200 198 199
f 201 90 89
f 202 199 201
f 203 200 202
f 204 89 88
f 205 201 204
f 206 202 205
f 207 203 206
f 208 88 87
f 209 204 208
f 210 205 209
f 211 206 210
f 212 207 211
f 213 87 86
f 214 208 213
f 215 209 214
f 216 210 215
f 217 211 216
f 218 212 217
f 219 86 64
f 220 213 219
f 221 214 220
f 222 215 221
f 223 216 222
f 224 217 223
f 225 218 224
f 198 91 199
f 199 90 201
f 200 199 202
f 201 89 204
f 202 201 205
f 203 202 206
f 204 88 208
f 205 204 209
f 206 205 210
f 207 206 211
f 208 87 213
f 209 208 214
f 210 209 215
f 211 210 216
f 212 211 217
f 213 86 219
f 214 213 220
f 215 214 221
f 216 215 222
f 217 216 223
f 218 217 224
f 226 64 63
f 227 63 62
f 228 226 227
f 229 62 61
f 230 227 229
f 231 228 230
f 232 61 60
f 233 229 232
f 234 230 233
f 235 231 234
f 236 60 59
f 237 232 236
f 238 233 237
f 239 234 238
f 240 235 239
f 241 59 58
f 242 236 241
f 243 237 242
f 244 238 243
f 245 239 244
f 246 240 245
f 247 58 36
f 248 241 247
f 249 242 248
f 250 243 249
f 251 244 250
f 252 245 251
f 253 246 252
f 226 63 227
f 227 62 229
f 228 227 230
f 229 61 232
f 230 229 233
f 231 230 234
f 232 60 236
f 233 232 237
f 234 233 238
f 235 234 239
f 236 59 241
f 237 236 242
f 238 237 243
f 239 238 244
f 240 239 245
f 241 58 247
f 242 241 248
f 243 242 249
f 244 243 250
f 245 244 251
f 246 245 252
f 254 36 35
f 255 35 34
f 256 254 255
f 257 34 33
f 258 255 257
f 259 256 258
f 260 33 32
f 261 257 260
f 262 258 261
f 263 259 262
f 264 32 31
f 265 260 264
f 266 261 265
f 267 262 266
f 268 263 267
f 269 31 30
f 270 264 269
f 271 265 270
f 272 266 271
f 273 267 272
f 274 268 273
f 275 30 29
f 276 269 275
f 277 270 276
f 278 271 277
f 279 272 278
f 280 273 279
f 281 274 280
f 254 35 255
f 255 34 257
f 256 255 258
f 257 33 260
f 258 257 261
f 259 258 262
f 260 32 264
f 261 260 265
f 262 261 266
f 263 262 267
f 264 31 269
f 265 264 270
f 266 265 271
f 267 266 272
f 268 267 273
f 269 30 275
f 270 269 276
f 271 270 277
f 272 271 278
f 273 272 279
f 274 273 280
f 275 29 142
f 282 142 144
f 276 275 282
f 283 144 147
f 284 282 283
f 277 276 284
f 285 147 151
f 286 283 285
f 287 284 286
f 278 277 287
f 288 151 156
f 289 285 288
f 290 286 289
f 291 287 290
f 279 278 291
f 292 156 162
f 293 288 292
f 294 289 293
f 295 290 294
f 296 291 295
f 280 279 296
f 297 162 169
f 298 292 297
f 299 293 298
f 300 294 299
f 301 295 300
f 302 296 301
f 281 280 302
f 275 142 282
f 282 144 283
f 276 282 284
f 283 147 285
f 284 283 286
f 277 284 287
f 285 151 288
f 286 285 289
f 287 286 290
f 278 287 291
f 288 156 292
f 289 288 293
f 290 289 294
f 291 290 295
f 279 291 296
f 292 162 297
f 293 292 298
f 294 293 299
f 295 294 300
f 296 295 301
f 280 296 302
f 163 120 170
f 303 170 172
f 164 163 303
f 304 172 175
f 305 303 304
f 165 164 305
f 306 175 179
f 307 304 306
f 308 305 307
f 166 165 308
f 309 179 184
f 310 306 309
f 311 307 310
f 312 308 311
f 167 166 312
f 313 184 190
f 314 309 313
f 315 310 314
f 316 311 315
f 317 312 316
f 168 167 317
f 318 190 197
f 319 313 318
f 320 314 319
f 321 315 320
f 322 316 321
f 323 317 322
f 169 168 323
f 163 170 303
f 303 172 304
f 164 303 305
f 304 175 306
f 305 304 307
f 165 305 308
f 306 179 309
f 307 306 310
f 308 307 311
f 166 308 312
f 309 184 313
f 310 309 314
f 311 310 315
f 312 311 316
f 167 312 317
f 313 190 318
f 314 313 319
f 315 314 320
f 316 315 321
f 317 316 322
f 168 317 323
f 191 92 198
f 324 198 200
f 192 191 324
f 325 200 203
f 326 324 325
f 193 192 326
f 327 203 207
f 328 325 327
f 329 326 328
f 194 193 329
f 330 207 212
f 331 327 330
f 332 328 331
f 333 329 332
f 195 194 333
f 334 212 218
f 335 330 334
f 336 331 335
f 337 332 336
f 338 333 337
f 196 195 338
f 339 218 225
f 340 334 339
f 341 335 340
f 342 336 341
f 343 337 342
f 344 338 343
f 197 196 344
f 191 198 324
f 324 200 325
f 192 324 326
f 325 203 327
f 326 325 328
f 193 326 329
f 327 207 330
f 328 327 331
f 329 328 332
f 194 329 333
f 330 212 334
f 331 330 335
f 332 331 336
f 333 332 337
f 195 333 338
f 334 218 339
f 335 334 340
f 336 335 341
f 337 336 342
f 338 337 343
f 196 338 344
f 219 64 226
f 345 226 228
f 220 219 345
f 346 228 231
f 347 345 346
f 221 220 347
f 348 231 235
f 349 346 348
f 350 347 349
f 222 221 350
f 351 235 240
f 352 348 351
f 353 349 352
f 354 350 353
f 223 222 354
f 355 240 246
f 356 351 355
f 357 352 356
f 358 353 357
f 359 354 358
f 224 223 359
f 360 246 253
f 361 355 360
f 362 356 361
f 363 357 362
f 364 358 363
f 365 359 364
f 225 224 365
f 219 226 345
f 345 228 346
f 220 345 347
f 346 231 348
f 347 346 349
f 221 347 350
f 348 235 351
f 349 348 352
f 350 349 353
f 222 350 354
f 351 240 355
f 352 351 356
f 353 352 357
f 354 353 358
f 223 354 359
f 355 246 360
f 356 355 361
f 357 356 362
f 358 357 363
f 359 358 364
f 224 359 365
f 247 36 254
f 366 254 256
f 248 247 366
f 367 256 259
f 368 366 367
f 249 248 368
f 369 259 263
f 370 367 369
f 371 368 370
f 250 249 371
f 372 263 268
f 373 369 372
f 374 370 373
f 375 371 374
f 251 250 375
f 376 268 274
f 377 372 376
f 378 373 377
f 379 374 378
f 380 375 379
f 252 251 380
f 381 274 281
f 382 376 381
f 383 377 382
f 384 378 383
f 385 379 384
f 386 380 385
f 253 252 386
f 247 254 366
f 366 256 367
f 248 366 368
f 367 259 369
f 368 367 370
f 249 368 371
f 369 263 372
f 370 369 373
f 371 370 374
f 250 371 375
f 372 268 376
f 373 372 377
f 374 373 378
f 375 374 379
f 251 375 380
f 376 274 381
f 377 376 382
f 378 377 383
f 379 378 384
f 380 379 385
f 252 380 386
f 389 387 388
f 391 388 390
f 392 389 391
f 394 390 393
f 395 391 394
f 396 392 395
f 398 393 397
f 399 394 398
f 400 395 399
f 401 396 400
f 403 397 402
f 404 398 403
f 405 399 404
f 406 400 405
f 407 401 406
f 409 402 408
f 410 403 409
f 411 404 410
f 412 405 411
f 413 406 412
f 414 407 413
f 302 408 281
f 301 409 302
f 300 410 301
f 299 411 300
f 298 412 299
f 297 413 298
f 169 414 297
f 389 388 391
f 391 390 394
f 392 391 395
f 394 393 398
f 395 394 399
f 396 395 400
f 398 397 403
f 399 398 404
f 400 399 405
f 401 400 406
f 403 402 409
f 404 403 410
f 405 404 411
f 406 405 412
f 407 406 413
f 409 408 302
f 410 409 301
f 411 410 300
f 412 411 299
f 413 412 298
f 414 413 297
f 388 387 415
f 417 415 416
f 390 388 417
f 419 416 418
f 420 417 419
f 393 390 420
f 422 418 421
f 423 419 422
f 424 420 423
f 397 393 424
f 426 421 425
f 427 422 426
f 428 423 427
f 429 424 428
f 402 397 429
f 431 425 430
f 432 426 431
f 433 427 432
f 434 428 433
f 435 429 434
f 408 402 435
f 386 430 253
f 385 431 386
f 384 432 385
f 383 433 384
f 382 434 383
f 381 435 382
f 281 408 381
f 388 415 417
f 417 416 419
f 390 417 420
f 419 418 422
f 420 419 423
f 393 420 424
f 422 421 426
f 423 422 427
f 424 423 428
f 397 424 429
f 426 425 431
f 427 426 432
f 428 427 433
f 429 428 434
f 402 429 435
f 431 430 386
f 432 431 385
f 433 432 384
f 434 433 383
f 435 434 382
f 408 435 381
f 415 387 436
f 438 436 437
f 416 415 438
f 440 437 439
f 441 438 440
f 418 416 441
f 443 439 442
f 444 440 443
f 445 441 444
f 421 418 445
f 447 442 446
f 448 443 447
f 449 444 448
f 450 445 449
f 425 421 450
f 452 446 451
f 453 447 452
f 454 448 453
f 455 449 454
f 456 450 455
f 430 425 456
f 365 451 225
f 364 452 365
f 363 453 364
f 362 454 363
f 361 455 362
f 360 456 361
f 253 430 360
f 415 436 438
f 438 437 440
f 416 438 441
f 440 439 443
f 441 440 444
f 418 441 445
f 443 442 447
f 444 443 448
f 445 444 449
f 421 445 450
f 447 446 452
f 448 447 453
f 449 448 454
f 450 449 455
f 425 450 456
f 452 451 365
f 453 452 364
f 454 453 363
f 455 454 362
f 456 455 361
f 430 456 360
f 436 387 457
f 459 457 458
f 437 436 459
f 461 458 460
f 462 459 461
f 439 437 462
f 464 460 463
f 465 461 464
f 466 462 465
f 442 439 466
f 468 463 467
f 469 464 468
f 470 465 469
f 471 466 470
f 446 442 471
f 473 467 472
f 474 468 473
f 475 469 474
f 476 470 475
f 477 471 476
f 451 446 477
f 344 472 197
f 343 473 344
f 342 474 343
f 341 475 342
f 340 476 341
f 339 477 340
f 225 451 339
f 436 457 459
f 459 458 461
f 437 459 462
f 461 460 464
f 462 461 465
f 439 462 466
f 464 463 468
f 465 464 469
f 466 465 470
f 442 466 471
f 468 467 473
f 469 468 474
f 470 469 475
f 471 470 476
f 446 471 477
f 473 472 344
f 474 473 343
f 475 474 342
f 476 475 341
f 477 476 340
f 451 477 339
f 457 387 389
f 478 389 392
f 458 457 478
f 479 392 396
f 480 478 479
f 460 458 480
f 481 396 401
f 482 479 481
f 483 480 482
f 463 460 483
f 484 401 407
f 485 481 484
f 486 482 485
f 487 483 486
f 467 463 487
f 488 407 414
f 489 484 488
f 490 485 489
f 491 486 490
f 492 487 491
f 472 467 492
f 323 414 169
f 322 488 323
f 321 489 322
f 320 490 321
f 319 491 320
f 318 492 319
f 197 472 318
f 457 389 478
f 478 392 479
f 458 478 480
f 479 396 481
f 480 479 482
f 460 480 483
f 481 401 484
f 482 481 485
f 483 482 486
f 463 483 487
f 484 407 488
f 485 484 489
f 486 485 490
f 487 486 491
f 467 487 492
f 488 414 323
f 489 488 322
f 490 489 321
f 491 490 320
f 492 491 319
f 472 492 318
