# File exported by Houdini 20.5.445 (www.sidefx.com)
# 492 points
# 2940 vertices
# 980 primitives
# Bounds: [-119.397064, -156.396439, -1101.83057] to [290.170959, 272.77356, -652.970398]
g 
v 89.4876709 16.7000332 -1101.83057
v 62.9378052 53.187767 -1097.1521
v 110.400757 23.4863472 -1096.59058
v 38.7441406 90.456543 -1086.65674
v 82.3995361 63.488678 -1086.35034
v 130.883484 34.0730743 -1085.34155
v 18.329895 127.004753 -1071.56152
v 57.389679 101.114159 -1071.83447
v 102.057495 75.4623642 -1070.65942
v 151.209167 46.5405655 -1069.99463
v 1.35275269 161.371628 -1052.07471
v 35.3916321 136.603821 -1054.40063
v 75.8069458 112.4907 -1053.58496
v 121.567993 88.0108719 -1052.43384
v 170.843445 60.2664566 -1051.8186
v -12.7033386 192.038254 -1027.94897
v 16.2525024 169.631088 -1033.8833
v 51.9802246 146.665039 -1035.00854
v 94.0098267 124.142754 -1034.1814
v 140.688049 101.067207 -1033.30957
v 188.97583 75.0263214 -1032.42017
v -24.4433899 217.63121 -998.980652
v -0.250274658 199.422562 -1009.06464
v 30.7353821 178.653702 -1013.76825
v 68.5810547 157.400803 -1014.961
v 112.277649 136.626709 -1014.80804
v 158.980408 115.284729 -1014.38861
v 204.472839 91.0555038 -1013.14435
v -33.8256836 236.668961 -965.302429
v -14.142395 224.672989 -978.233215
v 12.0411377 208.207443 -987.187927
v 45.4620056 189.37413 -991.971985
v 85.4494629 170.242813 -994.137878
v 130.123596 151.408478 -995.294861
v 175.283142 131.247742 -995.58429
v 216.276367 108.044075 -994.281311
v 129.538391 -16.0458832 -1100.30127
v 154.326477 -8.92594528 -1094.89014
v 166.934509 -47.636673 -1094.6853
v 176.541199 2.42559814 -1083.82031
v 192.720398 -39.3387299 -1089.56836
v 198.641357 -77.3233871 -1084.80615
v 196.933228 16.3554611 -1067.98291
v 214.381165 -26.5639915 -1078.33691
v 223.903381 -67.5688782 -1079.89331
v 223.014648 -103.522842 -1070.38379
v 215.605835 32.2530098 -1048.27295
v 233.32782 -10.5926819 -1060.83838
v 244.039551 -52.8213425 -1067.15796
v 247.263184 -92.1538849 -1064.45312
v 239.872681 -124.297974 -1050.85645
v 231.641663 50.2687683 -1026.33887
v 249.866516 8.27553558 -1038.3064
v 260.739929 -34.0700493 -1046.70654
v 265.300476 -74.8871841 -1048.6272
v 262.442932 -110.918503 -1041.91724
v 248.896973 -138.215164 -1026.19385
v 243.787659 70.599884 -1003.44806
v 262.981567 30.2921486 -1012.39386
v 274.383057 -11.4575081 -1019.9444
v 279.026001 -52.7305298 -1023.63092
v 277.375305 -90.8191223 -1021.32074
v 268.115234 -122.442825 -1012.51263
v 249.733765 -144.470352 -997.347107
v 91.3114014 -5.06469727 -1098.87109
v 132.02771 -41.5357513 -1093.67578
v 89.4910278 -21.039566 -1088.11914
v 166.367493 -74.8663483 -1083.7522
v 128.206909 -58.5531006 -1079.25977
v 83.3734131 -31.8251572 -1072.65332
v 192.744263 -104.223862 -1069.35376
v 157.8526 -91.2883377 -1065.34741
v 118.406311 -68.4939804 -1060.26978
v 73.6429443 -38.573288 -1054.42505
v 211.249207 -127.973709 -1050.0752
v 178.795776 -118.632095 -1046.47534
v 143.002869 -99.0705109 -1041.97729
v 103.976013 -72.9078598 -1037.88599
v 61.4041138 -42.4695511 -1033.81494
v 222.283325 -145.007034 -1025.62134
v 191.726685 -139.834763 -1022.45013
v 158.361145 -123.961258 -1018.22723
v 122.961426 -100.691681 -1014.70905
v 85.9748535 -73.4412384 -1012.63153
v 47.4710693 -44.1642532 -1010.94843
v 225.636841 -154.072189 -995.908752
v 196.917053 -153.283859 -992.322327
v 165.320251 -142.076431 -988.216248
v 132.167786 -122.381424 -984.884338
v 98.6467285 -97.7408905 -983.610291
v 65.4596252 -70.9184418 -984.382751
v 32.6517944 -43.812561 -985.578064
v 52.0799255 36.9656944 -1099.89233
v 49.9779358 19.2743301 -1092.6687
v 17.4458618 60.5567856 -1092.54443
v 45.086792 7.12740326 -1079.22778
v 12.2735596 45.1222496 -1081.5918
v -12.8669128 85.047554 -1079.98804
v 37.5783997 -1.52414894 -1063.19775
v 5.19534302 34.1601906 -1066.69336
v -20.8230896 70.1884384 -1066.82471
v -38.1899109 108.233803 -1063.2356
v 28.7339783 -8.20864105 -1045.20215
v -2.64837646 25.3602562 -1050.24976
v -29.4064026 58.9649315 -1051.17163
v -48.5519714 93.3317184 -1049.16211
v -58.6729126 128.855103 -1043.50439
v 18.8925781 -13.5914116 -1024.6272
v -10.2443848 17.4971313 -1031.52393
v -36.8587341 49.1897469 -1033.40918
v -57.5270081 81.4694519 -1032.0813
v -69.8960571 114.033356 -1028.32031
v -74.2849731 146.181335 -1021.1203
v 7.92147827 -17.3093567 -1000.18585
v -18.3192444 10.6848335 -1008.85541
v -43.5458069 40.3021698 -1011.98236
v -64.5363159 71.071991 -1011.2243
v -78.4885559 102.092545 -1008.18915
v -84.6963806 132.110199 -1003.35638
v -85.3113403 159.772507 -995.632874
v 25.7397461 76.3355331 -1094.979
v -4.5743103 101.010094 -1086.39062
v 4.83401489 115.213966 -1083.23145
v -28.6147766 124.724007 -1071.65015
v -20.1332703 139.336487 -1072.35425
v -11.3247681 151.987976 -1065.30078
v -47.9113159 145.807587 -1051.90942
v -39.1427917 160.919449 -1054.38354
v -32.1126099 174.381607 -1050.42969
v -24.0394897 185.035294 -1041.31274
v -64.2727356 163.632065 -1028.36548
v -55.159668 179.07045 -1030.47192
v -48.3691101 193.085159 -1027.4856
v -42.1281433 204.759872 -1020.60272
v -34.7221985 213.116684 -1010.81036
v -77.8684998 177.337051 -1000.53802
v -70.2913513 192.895035 -1000.85699
v -63.7106323 206.825912 -996.718323
v -57.6972351 218.870834 -989.887146
v -51.4769592 228.275375 -981.756531
v -43.9598694 234.305801 -973.301819
v -47.9413757 248.398026 -932.313843
v -58.1963501 243.559341 -938.412354
v -60.1430664 253.494553 -897.324951
v -65.9007263 235.194748 -946.287109
v -70.8301392 245.103409 -903.79657
v -71.7288208 253.65184 -863.102661
v -72.2633972 224.292892 -954.952087
v -78.709137 234.193314 -912.562256
v -82.9654846 242.048172 -871.17865
v -84.0861816 251.419571 -831.690857
v -78.0072327 211.545364 -962.892395
v -84.9154968 222.002304 -922.002686
v -90.9457703 229.417068 -880.815002
v -95.3730469 237.657394 -841.051514
v -96.7162781 248.615005 -803.546814
v -83.647644 197.04686 -968.352356
v -90.2168274 208.936234 -930.298218
v -96.8363953 216.800125 -889.921997
v -102.913086 224.328873 -849.997986
v -107.117859 233.848709 -812.476318
v -107.569641 245.533432 -777.939026
v -89.7630615 180.023758 -969.225281
v -94.7728577 194.242783 -935.521118
v -101.196869 203.965836 -896.610352
v -107.793243 211.979416 -856.492615
v -113.335052 220.576309 -818.330688
v -116.081818 230.614029 -784.027466
v -114.24411 241.022629 -754.067261
v -93.6440125 154.505737 -973.485535
v -91.957489 124.437019 -980.489197
v -99.00177 148.115509 -949.198181
v -83.8271484 92.9927902 -985.009094
v -95.3332825 115.995766 -956.695374
v -101.815735 141.106903 -922.953796
v -68.4433899 61.5792618 -987.739319
v -85.0710754 83.6513672 -961.191711
v -95.8101501 107.596031 -931.227844
v -102.411652 133.482422 -894.888977
v -47.0516968 31.1238022 -987.323059
v -68.3680115 52.1485786 -962.885193
v -83.4318542 74.8638 -934.997559
v -93.7567444 99.4165268 -903.088074
v -100.465515 124.920601 -865.058899
v -21.940918 2.02444458 -981.525085
v -46.2960815 21.8773136 -959.659851
v -65.11203 43.3383255 -934.005188
v -78.9087524 66.6375046 -904.495605
v -88.6525574 91.0927277 -871.2453
v -95.1655579 115.200417 -833.377808
v 4.56671143 -26.1519547 -968.422424
v -20.2774048 -7.61195374 -948.464661
v -41.2023926 12.5531712 -925.082092
v -57.8614502 34.6333237 -898.168823
v -70.4685059 58.1455116 -867.699768
v -79.5610962 81.9421616 -834.801575
v -85.4476318 104.376877 -800.177734
v 36.5936584 -57.6764679 -956.149109
v 69.2481995 -86.6890106 -952.255676
v 39.0922546 -68.5417252 -922.961914
v 101.852417 -113.129044 -950.50824
v 71.34021 -97.4182205 -918.903748
v 41.5394897 -75.9040222 -887.858154
v 134.8125 -135.322037 -951.69104
v 103.644226 -121.496811 -917.631104
v 73.4628906 -102.574722 -885.044617
v 44.9466553 -78.8919983 -852.566711
v 167.670959 -150.678452 -955.256042
v 136.441895 -139.433334 -919.423523
v 105.694092 -122.597672 -884.979431
v 76.8334961 -101.777298 -851.537354
v 50.4403687 -77.4302216 -818.586487
v 199.661743 -156.396439 -960.255554
v 169.671387 -149.218399 -923.860657
v 138.957642 -135.238327 -887.889954
v 109.621277 -116.882797 -853.062317
v 82.9940186 -95.7266846 -819.478027
v 59.4958801 -72.5212173 -787.393311
v 229.461365 -151.205948 -965.209534
v 202.932495 -148.683029 -929.951477
v 173.640747 -138.663681 -893.275574
v 144.477356 -123.435379 -856.918335
v 117.342163 -105.265549 -822.158325
v 93.3636475 -85.5960083 -789.639099
v 72.5130005 -64.9509888 -760.334534
v 258.076477 -132.504654 -976.080994
v 276.473938 -104.010254 -988.15802
v 262.039978 -113.769455 -951.705139
v 285.4953 -67.624939 -994.214539
v 280.126831 -80.3862228 -962.236633
v 263.60376 -90.5501938 -925.628845
v 287.260437 -26.8287659 -995.160217
v 288.939453 -40.9342499 -967.510681
v 281.197327 -53.8895493 -936.085999
v 264.297668 -64.7657471 -899.117859
v 281.924744 16.0660877 -991.960388
v 290.170959 1.89499092 -968.692322
v 289.496033 -12.2513733 -941.740173
v 280.999023 -25.7684784 -910.223511
v 264.933594 -37.6320343 -873.19751
v 267.892029 59.5379791 -986.568665
v 282.727356 46.9908524 -966.969421
v 288.959229 33.0107384 -943.83606
v 287.597717 18.2462864 -916.522949
v 279.494568 3.73820305 -884.692444
v 265.017578 -9.21023941 -848.487549
v 242.796631 102.199081 -980.125305
v 263.237854 93.6281204 -963.427551
v 276.611206 81.8329849 -943.321167
v 282.695801 67.2961807 -919.151306
v 281.989746 51.2148705 -890.861572
v 275.191223 35.1086006 -859.084351
v 262.763611 20.5563335 -825.134155
v 200.357788 139.675537 -977.172546
v 152.66333 163.325394 -976.791443
v 180.627808 168.346939 -958.945862
v 104.790466 182.618057 -974.196716
v 128.521606 190.9189 -956.002869
v 159.171875 192.747025 -937.099548
v 61.1194458 200.481491 -970.18988
v 80.4677734 209.030533 -950.277283
v 105.804871 213.842667 -930.799561
v 137.979553 212.167099 -909.888428
v 23.8874207 217.910446 -964.0578
v 39.0726929 225.442917 -942.278198
v 59.3399963 230.565353 -920.965027
v 85.7062378 231.76564 -899.567261
v 117.994934 226.58461 -877.152161
v -6.37646484 233.435837 -953.743347
v 4.73733521 240.174576 -930.417358
v 20.415802 245.119614 -907.496521
v 41.354187 247.309433 -884.824402
v 67.6324768 245.221848 -862.704224
v 98.3537598 236.976578 -840.938904
v -30.1131287 245.206314 -939.066284
v -23.2424011 251.700424 -913.59436
v -12.1347046 256.672791 -888.68988
v 3.5350647 259.677429 -864.598206
v 23.9142761 259.498962 -842.129395
v 48.7980042 254.65181 -821.995239
v 76.7432861 244.152481 -803.903809
v -44.5985413 256.329102 -900.66748
v -56.4832458 261.094482 -862.525818
v -37.4994812 262.267273 -871.465393
v -68.7128296 262.210938 -827.207581
v -49.8310852 267.330688 -831.685364
v -26.5868835 266.626892 -844.335876
v -82.0843506 261.404419 -795.874268
v -63.055481 269.231323 -795.974487
v -39.755127 271.565674 -803.846741
v -11.3753662 268.387329 -819.464539
v -94.9909363 258.995056 -768.11853
v -76.8579407 268.424927 -764.539001
v -53.4504395 272.77356 -767.90271
v -24.7835999 271.742065 -778.97583
v 9.27978516 265.614075 -797.574585
v -104.366821 253.728928 -742.76178
v -88.3841248 263.529968 -736.416809
v -65.9229736 268.984009 -736.027222
v -37.0542297 269.375366 -742.892822
v -2.48959351 264.861145 -757.561035
v 36.1245422 256.246033 -778.79071
v -97.8329773 174.779556 -941.769836
v -103.252899 169.151505 -912.64032
v -103.05661 188.953537 -903.68512
v -106.441772 162.827805 -882.28656
v -108.673218 183.943283 -871.02771
v -109.626251 199.432175 -862.260681
v -107.122009 154.983856 -850.995667
v -111.482849 177.989517 -837.946655
v -114.521851 195.359177 -827.782227
v -115.674835 208.787766 -821.247437
v -104.218811 144.723846 -818.707947
v -110.3703 169.510605 -804.466187
v -115.084015 189.540939 -793.076477
v -118.50116 205.469223 -785.920227
v -119.397064 218.524643 -783.144836
v -95.6298218 131.867767 -785.141296
v -103.103088 157.120346 -770.186462
v -109.164642 179.519211 -757.735168
v -114.37326 198.724625 -749.850037
v -117.950165 214.833969 -747.251587
v -118.373138 228.613449 -749.156677
v 8.57046509 -37.8923874 -934.041931
v 12.0562134 -46.3913422 -896.526978
v -14.6324768 -17.464859 -910.250061
v 16.1137085 -51.7915192 -858.12262
v -9.16482544 -24.1542969 -869.677429
v -33.5448608 4.35342026 -884.210144
v 21.7031555 -53.6464081 -820.308594
v -3.02819824 -28.0490456 -828.683411
v -26.0739746 -0.684646606 -841.281372
v -48.6708679 28.0088768 -855.272217
v 30.5357666 -52.094017 -784.267273
v 5.22293091 -28.9044418 -788.219727
v -17.7906189 -3.00122452 -797.569885
v -39.5661621 24.7631416 -809.995422
v -60.4608765 53.2038269 -822.931335
v 44.6689758 -47.6209106 -751.643921
v 18.7159119 -26.8012009 -749.705933
v -5.45742798 -2.57250404 -754.064636
v -28.0344543 24.1868992 -763.258667
v -49.1637268 51.8984413 -775.217834
v -68.6826172 78.9022751 -788.000183
v 235.182495 -137.286636 -940.289917
v 237.669006 -117.300171 -913.485657
v 207.582581 -132.522202 -902.332214
v 239.28363 -93.7904205 -885.7052
v 210.511292 -111.772568 -873.904419
v 178.785522 -121.018311 -863.603455
v 241.388 -68.1794128 -857.948364
v 213.58313 -88.4013214 -844.932861
v 183.080505 -100.07692 -833.836731
v 150.842712 -105.50296 -825.765869
v 244.219177 -40.3047791 -831.023926
v 217.767822 -62.5903625 -816.010925
v 187.936646 -76.647171 -803.580933
v 156.497498 -84.5504303 -794.499817
v 124.713196 -87.5137405 -789.538696
v 246.256348 -9.039505 -805.391968
v 222.587708 -32.5880928 -787.655151
v 193.918457 -49.2181396 -772.91571
v 162.755981 -59.9555969 -762.266174
v 131.253296 -65.803154 -756.39856
v 100.852722 -67.3266602 -755.553162
v 228.346069 135.812134 -961.057312
v 210.139587 164.083511 -940.530212
v 249.611145 127.535484 -942.200684
v 189.80481 186.532211 -915.69458
v 232.327393 154.356537 -918.781128
v 263.771118 114.748482 -919.508911
v 168.484863 203.445358 -885.021606
v 212.397583 174.716141 -890.294678
v 247.164001 139.677582 -892.55603
v 270.774048 98.2926941 -892.281738
v 146.182434 215.701828 -848.863586
v 189.950256 189.654221 -855.365845
v 226.922241 158.125778 -859.535828
v 254.433777 121.079468 -861.013672
v 270.668701 79.5080643 -860.370483
v 120.530151 224.759109 -809.337402
v 163.241089 200.536118 -814.554321
v 201.479736 171.476791 -819.022339
v 232.420105 137.623413 -822.162964
v 253.361389 99.8439255 -823.708557
v 263.247253 60.0174713 -824.285095
v 57.9677429 109.251755 -656.260925
v 65.6006165 134.165894 -663.717468
v 22.9085999 138.152374 -655.537231
v 70.2489929 160.459122 -675.995178
v 24.5139465 166.351639 -664.01593
v -12.3274841 167.299179 -658.944458
v 73.0848389 185.660019 -692.99823
v 24.5607605 193.455368 -677.034851
v -14.4585571 196.149704 -668.566101
v -45.7838745 194.855789 -666.927612
v 75.5068054 207.469925 -714.966675
v 25.3258667 217.058121 -694.540771
v -15.9758606 221.565109 -682.582153
v -49.0834961 221.84053 -677.819885
v -74.9025269 217.927658 -680.256897
v 77.7615051 224.637985 -741.367798
v 28.0805969 235.627457 -717.089417
v -14.6380005 241.887161 -701.195374
v -49.5571899 243.709671 -693.343567
v -76.8371887 241.050674 -692.792908
v -96.8273926 233.657852 -699.536865
v 78.626709 236.824661 -771.356934
v 32.3734741 248.702133 -745.007019
v -9.67034912 256.411621 -725.573608
v -45.5311279 259.714905 -714.199951
v -74.145813 258.159851 -710.793152
v -95.5223389 251.768509 -714.357666
v -109.869476 240.873367 -724.518433
v 98.5985107 96.0419998 -664.682678
v 138.548218 83.5530396 -678.595276
v 111.151428 122.899529 -676.70697
v 174.967102 71.1043091 -698.612061
v 153.60675 111.852005 -695.742798
v 118.965332 149.671051 -694.02832
v 205.807068 58.2576866 -724.83728
v 190.758423 100.201889 -721.108887
v 162.341675 138.704865 -718.412842
v 123.457458 174.33876 -716.485291
v 230.421997 44.6937637 -755.768921
v 221.665527 87.1829147 -751.910645
v 199.592651 126.598488 -748.70105
v 166.902039 162.722916 -746.027283
v 125.826172 195.445297 -743.691101
v 248.929321 31.8323669 -789.820862
v 245.626526 73.5419922 -786.823425
v 230.040833 113.506241 -784.171997
v 203.291992 150.304626 -781.265747
v 167.728333 183.348343 -778.13269
v 125.377441 212.343552 -774.876038
v 70.6794434 78.0029984 -656.878723
v 77.5505371 48.7482986 -661.34967
v 111.865356 61.2923203 -666.576355
v 79.2335205 21.6611404 -670.231323
v 116.70105 29.9213295 -672.708191
v 149.184021 46.2339134 -682.235657
v 77.2102661 -3.15184784 -684.373901
v 115.092224 1.71587944 -683.843079
v 150.039062 13.4251175 -690.771973
v 181.06897 31.9340897 -704.402222
v 73.7940369 -25.7038498 -704.400208
v 109.763123 -23.4999771 -701.046509
v 144.761353 -15.6182861 -705.180908
v 177.826355 -2.05205154 -715.882446
v 207.368774 17.7041378 -732.842773
v 71.6035461 -46.0272522 -730.036865
v 104.063904 -46.1367188 -724.929565
v 137.297119 -41.608223 -726.70282
v 170.28418 -32.1845016 -734.548218
v 201.538818 -17.4216652 -748.125916
v 228.758911 3.50983047 -766.844666
v 28.3166504 104.940491 -652.970398
v 0.733642578 104.221138 -656.933533
v 37.871521 73.8095398 -656.430969
v -24.3265076 106.380402 -669.389465
v 8.48147583 74.0658112 -664.766907
v 42.2461853 46.0274353 -664.529114
v -46.3178711 109.460678 -691.04718
v -17.3713074 77.109848 -682.35791
v 12.010376 47.4107666 -677.46759
v 43.1130066 20.5898361 -677.380066
v -64.4945374 111.063248 -721.428467
v -39.3474426 80.4594421 -709.286743
v -13.5566406 50.5599213 -700.092957
v 13.4448853 22.3605709 -694.964844
v 42.2817993 -3.25439453 -695.747925
v -77.7729797 109.351929 -758.737793
v -56.7472534 81.4931946 -744.94635
v -34.209137 52.7281837 -732.614136
v -10.4552002 24.3021412 -723.179321
v 14.8388977 -2.27923965 -718.529358
v 41.9937134 -25.9091415 -720.387695
v -6.84402466 135.880402 -654.790466
v -39.8345032 165.565994 -661.737976
v -32.5045776 136.603119 -662.444519
v -69.591217 191.893234 -674.053772
v -62.3141479 165.559189 -673.710693
v -54.6626892 138.572479 -679.265808
v -93.9772339 212.160599 -692.515015
v -87.7999573 189.231857 -691.059082
v -80.6792297 165.167221 -695.454163
v -73.1932983 139.54245 -705.757019
v -110.726501 224.370529 -717.595642
v -107.048187 205.98909 -715.203308
v -101.223389 185.476547 -718.439575
v -94.6217346 162.729599 -727.522217
v -87.2420959 137.587097 -741.562195
g 
f 3 1 2
f 5 2 4
f 6 3 5
f 8 4 7
f 9 5 8
f 10 6 9
f 12 7 11
f 13 8 12
f 14 9 13
f 15 10 14
f 17 11 16
f 18 12 17
f 19 13 18
f 20 14 19
f 21 15 20
f 23 16 22
f 24 17 23
f 25 18 24
f 26 19 25
f 27 20 26
f 28 21 27
f 30 22 29
f 31 23 30
f 32 24 31
f 33 25 32
f 34 26 33
f 35 27 34
f 36 28 35
f 3 2 5
f 5 4 8
f 6 5 9
f 8 7 12
f 9 8 13
f 10 9 14
f 12 11 17
f 13 12 18
f 14 13 19
f 15 14 20
f 17 16 23
f 18 17 24
f 19 18 25
f 20 19 26
f 21 20 27
f 23 22 30
f 24 23 31
f 25 24 32
f 26 25 33
f 27 26 34
f 28 27 35
f 37 1 3
f 38 3 6
f 39 37 38
f 40 6 10
f 41 38 40
f 42 39 41
f 43 10 15
f 44 40 43
f 45 41 44
f 46 42 45
f 47 15 21
f 48 43 47
f 49 44 48
f 50 45 49
f 51 46 50
f 52 21 28
f 53 47 52
f 54 48 53
f 55 49 54
f 56 50 55
f 57 51 56
f 58 28 36
f 59 52 58
f 60 53 59
f 61 54 60
f 62 55 61
f 63 56 62
f 64 57 63
f 37 3 38
f 38 6 40
f 39 38 41
f 40 10 43
f 41 40 44
f 42 41 45
f 43 15 47
f 44 43 48
f 45 44 49
f 46 45 50
f 47 21 52
f 48 47 53
f 49 48 54
f 50 49 55
f 51 50 56
f 52 28 58
f 53 52 59
f 54 53 60
f 55 54 61
f 56 55 62
f 57 56 63
f 65 1 37
f 66 37 39
f 67 65 66
f 68 39 42
f 69 66 68
f 70 67 69
f 71 42 46
f 72 68 71
f 73 69 72
f 74 70 73
f 75 46 51
f 76 71 75
f 77 72 76
f 78 73 77
f 79 74 78
f 80 51 57
f 81 75 80
f 82 76 81
f 83 77 82
f 84 78 83
f 85 79 84
f 86 57 64
f 87 80 86
f 88 81 87
f 89 82 88
f 90 83 89
f 91 84 90
f 92 85 91
f 65 37 66
f 66 39 68
f 67 66 69
f 68 42 71
f 69 68 72
f 70 69 73
f 71 46 75
f 72 71 76
f 73 72 77
f 74 73 78
f 75 51 80
f 76 75 81
f 77 76 82
f 78 77 83
f 79 78 84
f 80 57 86
f 81 80 87
f 82 81 88
f 83 82 89
f 84 83 90
f 85 84 91
f 93 1 65
f 94 65 67
f 95 93 94
f 96 67 70
f 97 94 96
f 98 95 97
f 99 70 74
f 100 96 99
f 101 97 100
f 102 98 101
f 103 74 79
f 104 99 103
f 105 100 104
f 106 101 105
f 107 102 106
f 108 79 85
f 109 103 108
f 110 104 109
f 111 105 110
f 112 106 111
f 113 107 112
f 114 85 92
f 115 108 114
f 116 109 115
f 117 110 116
f 118 111 117
f 119 112 118
f 120 113 119
f 93 65 94
f 94 67 96
f 95 94 97
f 96 70 99
f 97 96 100
f 98 97 101
f 99 74 103
f 100 99 104
f 101 100 105
f 102 101 106
f 103 79 108
f 104 103 109
f 105 104 110
f 106 105 111
f 107 106 112
f 108 85 114
f 109 108 115
f 110 109 116
f 111 110 117
f 112 111 118
f 113 112 119
f 2 1 93
f 121 93 95
f 4 2 121
f 122 95 98
f 123 121 122
f 7 4 123
f 124 98 102
f 125 122 124
f 126 123 125
f 11 7 126
f 127 102 107
f 128 124 127
f 129 125 128
f 130 126 129
f 16 11 130
f 131 107 113
f 132 127 131
f 133 128 132
f 134 129 133
f 135 130 134
f 22 16 135
f 136 113 120
f 137 131 136
f 138 132 137
f 139 133 138
f 140 134 139
f 141 135 140
f 29 22 141
f 2 93 121
f 121 95 122
f 4 121 123
f 122 98 124
f 123 122 125
f 7 123 126
f 124 102 127
f 125 124 128
f 126 125 129
f 11 126 130
f 127 107 131
f 128 127 132
f 129 128 133
f 130 129 134
f 16 130 135
f 131 113 136
f 132 131 137
f 133 132 138
f 134 133 139
f 135 134 140
f 22 135 141
f 142 29 141
f 143 141 140
f 144 142 143
f 145 140 139
f 146 143 145
f 147 144 146
f 148 139 138
f 149 145 148
f 150 146 149
f 151 147 150
f 152 138 137
f 153 148 152
f 154 149 153
f 155 150 154
f 156 151 155
f 157 137 136
f 158 152 157
f 159 153 158
f 160 154 159
f 161 155 160
f 162 156 161
f 163 136 120
f 164 157 163
f 165 158 164
f 166 159 165
f 167 160 166
f 168 161 167
f 169 162 168
f 142 141 143
f 143 140 145
f 144 143 146
f 145 139 148
f 146 145 149
f 147 146 150
f 148 138 152
f 149 148 153
f 150 149 154
f 151 150 155
f 152 137 157
f 153 152 158
f 154 153 159
f 155 154 160
f 156 155 161
f 157 136 163
f 158 157 164
f 159 158 165
f 160 159 166
f 161 160 167
f 162 161 168
f 170 120 119
f 171 119 118
f 172 170 171
f 173 118 117
f 174 171 173
f 175 172 174
f 176 117 116
f 177 173 176
f 178 174 177
f 179 175 178
f 180 116 115
f 181 176 180
f 182 177 181
f 183 178 182
f 184 179 183
f 185 115 114
f 186 180 185
f 187 181 186
f 188 182 187
f 189 183 188
f 190 184 189
f 191 114 92
f 192 185 191
f 193 186 192
f 194 187 193
f 195 188 194
f 196 189 195
f 197 190 196
f 170 119 171
f 171 118 173
f 172 171 174
f 173 117 176
f 174 173 177
f 175 174 178
f 176 116 180
f 177 176 181
f 178 177 182
f 179 178 183
f 180 115 185
f 181 180 186
f 182 181 187
f 183 182 188
f 184 183 189
f 185 114 191
f 186 185 192
f 187 186 193
f 188 187 194
f 189 188 195
f 190 189 196
f 198 92 91
f 199 91 90
f 200 198 199
f 201 90 89
f 202 199 201
f 203 200 202
f 204 89 88
f 205 201 204
f 206 202 205
f 207 203 206
f 208 88 87
f 209 204 208
f 210 205 209
f 211 206 210
f 212 207 211
f 213 87 86
f 214 208 213
f 215 209 214
f 216 210 215
f 217 211 216
f 218 212 217
f 219 86 64
f 220 213 219
f 221 214 220
f 222 215 221
f 223 216 222
f 224 217 223
f 225 218 224
f 198 91 199
f 199 90 201
f 200 199 202
f 201 89 204
f 202 201 205
f 203 202 206
f 204 88 208
f 205 204 209
f 206 205 210
f 207 206 211
f 208 87 213
f 209 208 214
f 210 209 215
f 211 210 216
f 212 211 217
f 213 86 219
f 214 213 220
f 215 214 221
f 216 215 222
f 217 216 223
f 218 217 224
f 226 64 63
f 227 63 62
f 228 226 227
f 229 62 61
f 230 227 229
f 231 228 230
f 232 61 60
f 233 229 232
f 234 230 233
f 235 231 234
f 236 60 59
f 237 232 236
f 238 233 237
f 239 234 238
f 240 235 239
f 241 59 58
f 242 236 241
f 243 237 242
f 244 238 243
f 245 239 244
f 246 240 245
f 247 58 36
f 248 241 247
f 249 242 248
f 250 243 249
f 251 244 250
f 252 245 251
f 253 246 252
f 226 63 227
f 227 62 229
f 228 227 230
f 229 61 232
f 230 229 233
f 231 230 234
f 232 60 236
f 233 232 237
f 234 233 238
f 235 234 239
f 236 59 241
f 237 236 242
f 238 237 243
f 239 238 244
f 240 239 245
f 241 58 247
f 242 241 248
f 243 242 249
f 244 243 250
f 245 244 251
f 246 245 252
f 254 36 35
f 255 35 34
f 256 254 255
f 257 34 33
f 258 255 257
f 259 256 258
f 260 33 32
f 261 257 260
f 262 258 261
f 263 259 262
f 264 32 31
f 265 260 264
f 266 261 265
f 267 262 266
f 268 263 267
f 269 31 30
f 270 264 269
f 271 265 270
f 272 266 271
f 273 267 272
f 274 268 273
f 275 30 29
f 276 269 275
f 277 270 276
f 278 271 277
f 279 272 278
f 280 273 279
f 281 274 280
f 254 35 255
f 255 34 257
f 256 255 258
f 257 33 260
f 258 257 261
f 259 258 262
f 260 32 264
f 261 260 265
f 262 261 266
f 263 262 267
f 264 31 269
f 265 264 270
f 266 265 271
f 267 266 272
f 268 267 273
f 269 30 275
f 270 269 276
f 271 270 277
f 272 271 278
f 273 272 279
f 274 273 280
f 275 29 142
f 282 142 144
f 276 275 282
f 283 144 147
f 284 282 283
f 277 276 284
f 285 147 151
f 286 283 285
f 287 284 286
f 278 277 287
f 288 151 156
f 289 285 288
f 290 286 289
f 291 287 290
f 279 278 291
f 292 156 162
f 293 288 292
f 294 289 293
f 295 290 294
f 296 291 295
f 280 279 296
f 297 162 169
f 298 292 297
f 299 293 298
f 300 294 299
f 301 295 300
f 302 296 301
f 281 280 302
f 275 142 282
f 282 144 283
f 276 282 284
f 283 147 285
f 284 283 286
f 277 284 287
f 285 151 288
f 286 285 289
f 287 286 290
f 278 287 291
f 288 156 292
f 289 288 293
f 290 289 294
f 291 290 295
f 279 291 296
f 292 162 297
f 293 292 298
f 294 293 299
f 295 294 300
f 296 295 301
f 280 296 302
f 163 120 170
f 303 170 172
f 164 163 303
f 304 172 175
f 305 303 304
f 165 164 305
f 306 175 179
f 307 304 306
f 308 305 307
f 166 165 308
f 309 179 184
f 310 306 309
f 311 307 310
f 312 308 311
f 167 166 312
f 313 184 190
f 314 309 313
f 315 310 314
f 316 311 315
f 317 312 316
f 168 167 317
f 318 190 197
f 319 313 318
f 320 314 319
f 321 315 320
f 322 316 321
f 323 317 322
f 169 168 323
f 163 170 303
f 303 172 304
f 164 303 305
f 304 175 306
f 305 304 307
f 165 305 308
f 306 179 309
f 307 306 310
f 308 307 311
f 166 308 312
f 309 184 313
f 310 309 314
f 311 310 315
f 312 311 316
f 167 312 317
f 313 190 318
f 314 313 319
f 315 314 320
f 316 315 321
f 317 316 322
f 168 317 323
f 191 92 198
f 324 198 200
f 192 191 324
f 325 200 203
f 326 324 325
f 193 192 326
f 327 203 207
f 328 325 327
f 329 326 328
f 194 193 329
f 330 207 212
f 331 327 330
f 332 328 331
f 333 329 332
f 195 194 333
f 334 212 218
f 335 330 334
f 336 331 335
f 337 332 336
f 338 333 337
f 196 195 338
f 339 218 225
f 340 334 339
f 341 335 340
f 342 336 341
f 343 337 342
f 344 338 343
f 197 196 344
f 191 198 324
f 324 200 325
f 192 324 326
f 325 203 327
f 326 325 328
f 193 326 329
f 327 207 330
f 328 327 331
f 329 328 332
f 194 329 333
f 330 212 334
f 331 330 335
f 332 331 336
f 333 332 337
f 195 333 338
f 334 218 339
f 335 334 340
f 336 335 341
f 337 336 342
f 338 337 343
f 196 338 344
f 219 64 226
f 345 226 228
f 220 219 345
f 346 228 231
f 347 345 346
f 221 220 347
f 348 231 235
f 349 346 348
f 350 347 349
f 222 221 350
f 351 235 240
f 352 348 351
f 353 349 352
f 354 350 353
f 223 222 354
f 355 240 246
f 356 351 355
f 357 352 356
f 358 353 357
f 359 354 358
f 224 223 359
f 360 246 253
f 361 355 360
f 362 356 361
f 363 357 362
f 364 358 363
f 365 359 364
f 225 224 365
f 219 226 345
f 345 228 346
f 220 345 347
f 346 231 348
f 347 346 349
f 221 347 350
f 348 235 351
f 349 348 352
f 350 349 353
f 222 350 354
f 351 240 355
f 352 351 356
f 353 352 357
f 354 353 358
f 223 354 359
f 355 246 360
f 356 355 361
f 357 356 362
f 358 357 363
f 359 358 364
f 224 359 365
f 247 36 254
f 366 254 256
f 248 247 366
f 367 256 259
f 368 366 367
f 249 248 368
f 369 259 263
f 370 367 369
f 371 368 370
f 250 249 371
f 372 263 268
f 373 369 372
f 374 370 373
f 375 371 374
f 251 250 375
f 376 268 274
f 377 372 376
f 378 373 377
f 379 374 378
f 380 375 379
f 252 251 380
f 381 274 281
f 382 376 381
f 383 377 382
f 384 378 383
f 385 379 384
f 386 380 385
f 253 252 386
f 247 254 366
f 366 256 367
f 248 366 368
f 367 259 369
f 368 367 370
f 249 368 371
f 369 263 372
f 370 369 373
f 371 370 374
f 250 371 375
f 372 268 376
f 373 372 377
f 374 373 378
f 375 374 379
f 251 375 380
f 376 274 381
f 377 376 382
f 378 377 383
f 379 378 384
f 380 379 385
f 252 380 386
f 389 387 388
f 391 388 390
f 392 389 391
f 394 390 393
f 395 391 394
f 396 392 395
f 398 393 397
f 399 394 398
f 400 395 399
f 401 396 400
f 403 397 402
f 404 398 403
f 405 399 404
f 406 400 405
f 407 401 406
f 409 402 408
f 410 403 409
f 411 404 410
f 412 405 411
f 413 406 412
f 414 407 413
f 302 408 281
f 301 409 302
f 300 410 301
f 299 411 300
f 298 412 299
f 297 413 298
f 169 414 297
f 389 388 391
f 391 390 394
f 392 391 395
f 394 393 398
f 395 394 399
f 396 395 400
f 398 397 403
f 399 398 404
f 400 399 405
f 401 400 406
f 403 402 409
f 404 403 410
f 405 404 411
f 406 405 412
f 407 406 413
f 409 408 302
f 410 409 301
f 411 410 300
f 412 411 299
f 413 412 298
f 414 413 297
f 388 387 415
f 417 415 416
f 390 388 417
f 419 416 418
f 420 417 419
f 393 390 420
f 422 418 421
f 423 419 422
f 424 420 423
f 397 393 424
f 426 421 425
f 427 422 426
f 428 423 427
f 429 424 428
f 402 397 429
f 431 425 430
f 432 426 431
f 433 427 432
f 434 428 433
f 435 429 434
f 408 402 435
f 386 430 253
f 385 431 386
f 384 432 385
f 383 433 384
f 382 434 383
f 381 435 382
f 281 408 381
f 388 415 417
f 417 416 419
f 390 417 420
f 419 418 422
f 420 419 423
f 393 420 424
f 422 421 426
f 423 422 427
f 424 423 428
f 397 424 429
f 426 425 431
f 427 426 432
f 428 427 433
f 429 428 434
f 402 429 435
f 431 430 386
f 432 431 385
f 433 432 384
f 434 433 383
f 435 434 382
f 408 435 381
f 415 387 436
f 438 436 437
f 416 415 438
f 440 437 439
f 441 438 440
f 418 416 441
f 443 439 442
f 444 440 443
f 445 441 444
f 421 418 445
f 447 442 446
f 448 443 447
f 449 444 448
f 450 445 449
f 425 421 450
f 452 446 451
f 453 447 452
f 454 448 453
f 455 449 454
f 456 450 455
f 430 425 456
f 365 451 225
f 364 452 365
f 363 453 364
f 362 454 363
f 361 455 362
f 360 456 361
f 253 430 360
f 415 436 438
f 438 437 440
f 416 438 441
f 440 439 443
f 441 440 444
f 418 441 445
f 443 442 447
f 444 443 448
f 445 444 449
f 421 445 450
f 447 446 452
f 448 447 453
f 449 448 454
f 450 449 455
f 425 450 456
f 452 451 365
f 453 452 364
f 454 453 363
f 455 454 362
f 456 455 361
f 430 456 360
f 436 387 457
f 459 457 458
f 437 436 459
f 461 458 460
f 462 459 461
f 439 437 462
f 464 460 463
f 465 461 464
f 466 462 465
f 442 439 466
f 468 463 467
f 469 464 468
f 470 465 469
f 471 466 470
f 446 442 471
f 473 467 472
f 474 468 473
f 475 469 474
f 476 470 475
f 477 471 476
f 451 446 477
f 344 472 197
f 343 473 344
f 342 474 343
f 341 475 342
f 340 476 341
f 339 477 340
f 225 451 339
f 436 457 459
f 459 458 461
f 437 459 462
f 461 460 464
f 462 461 465
f 439 462 466
f 464 463 468
f 465 464 469
f 466 465 470
f 442 466 471
f 468 467 473
f 469 468 474
f 470 469 475
f 471 470 476
f 446 471 477
f 473 472 344
f 474 473 343
f 475 474 342
f 476 475 341
f 477 476 340
f 451 477 339
f 457 387 389
f 478 389 392
f 458 457 478
f 479 392 396
f 480 478 479
f 460 458 480
f 481 396 401
f 482 479 481
f 483 480 482
f 463 460 483
f 484 401 407
f 485 481 484
f 486 482 485
f 487 483 486
f 467 463 487
f 488 407 414
f 489 484 488
f 490 485 489
f 491 486 490
f 492 487 491
f 472 467 492
f 323 414 169
f 322 488 323
f 321 489 322
f 320 490 321
f 319 491 320
f 318 492 319
f 197 472 318
f 457 389 478
f 478 392 479
f 458 478 480
f 479 396 481
f 480 479 482
f 460 480 483
f 481 401 484
f 482 481 485
f 483 482 486
f 463 483 487
f 484 407 488
f 485 484 489
f 486 485 490
f 487 486 491
f 467 487 492
f 488 414 323
f 489 488 322
f 490 489 321
f 491 490 320
f 492 491 319
f 472 492 318
