# File exported by Houdini 20.5.445 (www.sidefx.com)
# 492 points
# 2940 vertices
# 980 primitives
# Bounds: [-141.472275, -121.473083, -1106.00854] to [312.246185, 237.850189, -648.79248]
g 
v 91.5990601 59.5599747 -1081.15869
v 78.7889099 87.8202744 -1092.34668
v 115.36203 77.4588623 -1084.82251
v 68.1135559 113.819946 -1101.92432
v 102.839905 106.732124 -1095.14526
v 138.111694 93.6620789 -1084.74731
v 59.3587646 138.390396 -1106.00854
v 91.8900452 132.2341 -1100.9585
v 124.707642 122.647949 -1091.57935
v 159.061249 107.203262 -1079.8147
v 51.7921448 161.149734 -1101.95923
v 82.3573303 155.125168 -1099.62817
v 112.998383 147.107819 -1092.23657
v 144.688934 134.798904 -1081.52588
v 178.236298 117.446068 -1069.18872
v 45.164856 181.059631 -1088.90576
v 74.3842773 175.223557 -1089.7019
v 103.212769 168.291229 -1085.55518
v 132.869843 157.543427 -1076.71655
v 163.714935 142.728012 -1065.31348
v 196.238739 123.8843 -1052.91382
v 40.3535156 197.456757 -1068.71582
v 69.114502 192.323227 -1071.95776
v 96.8485107 186.702332 -1071.41675
v 124.737244 177.349243 -1065.57422
v 153.404694 163.518738 -1055.36133
v 182.92099 146.051407 -1043.55664
v 213.685699 125.776482 -1031.46191
v 37.4954834 210.243881 -1043.65698
v 66.6438599 206.241806 -1047.43408
v 94.705658 201.763779 -1049.08911
v 121.955414 194.44191 -1046.90576
v 148.896637 181.822693 -1039.49805
v 175.803802 164.286102 -1028.2373
v 203.004364 144.117752 -1016.36859
v 230.677216 123.335968 -1005.41998
v 121.0112 40.3123169 -1073.70459
v 147.632507 59.1812592 -1075.36963
v 151.842468 20.1918297 -1065.88989
v 171.763275 75.3409119 -1073.61328
v 179.690704 40.5141754 -1065.62598
v 182.753387 0.714092255 -1055.59155
v 193.234528 88.4872589 -1067.20703
v 204.236359 57.4020996 -1061.95972
v 211.101532 22.6579094 -1053.55176
v 211.961578 -16.444767 -1040.82593
v 212.499054 98.2752151 -1055.13208
v 226.007172 70.6880264 -1053.35938
v 235.810516 40.2321396 -1047.63184
v 240.270966 6.36314774 -1037.02808
v 237.922577 -30.6069412 -1020.92816
v 230.388947 103.945801 -1036.83936
v 245.555267 79.904129 -1038.40234
v 257.609283 53.1097107 -1035.66895
v 264.598541 23.4710999 -1027.85278
v 265.400421 -8.71524811 -1014.59723
v 258.625031 -42.2205505 -995.91925
v 247.65799 104.514618 -1011.71661
v 263.573395 83.8578949 -1015.56818
v 276.918304 60.4860764 -1015.51642
v 285.651031 34.3484802 -1010.6546
v 288.401093 5.98482132 -1000.63934
v 283.974213 -23.6853104 -985.757019
v 271.635712 -53.2122192 -966.996155
v 86.1808777 28.9020615 -1071.50195
v 118.7901 3.96487236 -1065.00464
v 82.4493408 -2.06549263 -1062.43726
v 150.829559 -19.0696411 -1056.33911
v 116.746002 -30.0445328 -1055.83179
v 78.9399109 -29.6143036 -1052.47803
v 181.058075 -38.812294 -1042.79346
v 148.556244 -53.2943802 -1044.47168
v 113.474823 -58.0230179 -1044.10596
v 74.5673218 -50.265007 -1039.86768
v 208.384003 -54.2845917 -1023.06049
v 177.095734 -71.2585907 -1025.99658
v 143.772552 -79.5114365 -1028.27075
v 107.703705 -77.1356812 -1027.94556
v 68.3490906 -62.0353165 -1023.04462
v 231.427643 -65.4922638 -997.050842
v 201.44931 -83.8218842 -999.434753
v 169.287079 -94.5710526 -1003.04779
v 134.857971 -95.7770386 -1005.9411
v 98.2337646 -86.1592026 -1005.9035
v 60.0213318 -65.3851471 -1000.8963
v 247.714203 -74.3229752 -965.353333
v 219.760834 -92.2896118 -965.065247
v 188.745087 -104.188232 -967.501404
v 155.391296 -107.734848 -972.000793
v 120.343475 -101.703705 -976.037415
v 85.0314331 -86.2358398 -976.778503
v 50.4569702 -63.0981827 -972.85675
v 59.6154785 60.7675018 -1081.45605
v 51.7023926 31.0275803 -1068.88843
v 29.1261597 65.821579 -1079.19727
v 46.3431396 3.84682465 -1057.26587
v 20.2860107 38.8688507 -1063.40796
v 1.12509155 76.8467102 -1074.6604
v 41.4961548 -17.5148163 -1044.72949
v 14.1771851 17.0463982 -1048.54321
v -7.94213867 53.7776337 -1055.6311
v -23.7603149 93.999382 -1068.01538
v 36.1461792 -31.2070084 -1029.47339
v 8.32907104 2.2841568 -1032.46924
v -14.8628845 37.5497894 -1036.69189
v -33.0809326 75.1032715 -1045.60156
v -45.5340271 114.799225 -1058.31567
v 29.7629395 -37.1029816 -1009.45392
v 2.14709473 -5.43719101 -1013.0274
v -21.8777771 28.2900696 -1015.59332
v -41.2087097 63.5374832 -1021.48273
v -55.5401306 99.7373352 -1031.97974
v -64.8103333 135.33812 -1043.69263
v 22.7655334 -37.1746521 -982.379578
v -3.99581909 -7.58236694 -986.93866
v -28.4597168 24.5171852 -989.148499
v -49.1617126 57.945961 -992.710632
v -64.9004822 91.5772018 -1000.80206
v -75.6945801 123.820862 -1012.05658
v -82.2276306 152.927261 -1022.63593
v 45.8901367 91.3442001 -1093.85645
v 16.5338745 99.8828812 -1092.03369
v 36.3830566 119.71785 -1103.11841
v -9.61224365 114.352707 -1087.26196
v 8.75784302 131.177963 -1100.16943
v 29.2190552 146.407196 -1105.45703
v -33.1983643 133.24176 -1079.00977
v -16.4699707 147.662445 -1093.13306
v 2.47302246 159.637482 -1099.8064
v 22.6882935 170.584427 -1098.35474
v -54.7897034 152.792419 -1065.47632
v -40.5838318 166.469101 -1080.57349
v -23.3396606 176.497574 -1088.34424
v -4.38708496 184.303345 -1088.29419
v 16.1859436 191.0569 -1080.91919
v -74.986969 169.353317 -1044.06226
v -64.1268616 183.370392 -1059.62256
v -49.5585632 193.512039 -1068.37012
v -32.0464783 200.058655 -1069.75952
v -12.1887817 204.23494 -1064.35913
v 10.834137 207.365463 -1054.95581
v 16.6519165 219.519836 -1022.92682
v -14.0325928 218.501465 -1032.83813
v -5.90560913 227.985474 -999.829651
v -38.7879639 216.628159 -1040.33032
v -38.6177368 227.565125 -1008.01239
v -29.7567444 234.407684 -974.091125
v -58.5314941 212.480652 -1043.61328
v -63.2908325 225.004852 -1013.20563
v -62.2703247 233.015747 -980.019348
v -52.5585022 237.195511 -945.323364
v -74.3849487 204.629776 -1040.00269
v -82.0480042 218.985748 -1013.48224
v -85.6702881 228.458328 -982.40387
v -83.4466858 234.223541 -948.569214
v -72.8778381 236.802261 -913.640625
v -86.4119568 192.443771 -1028.81104
v -96.2791595 209.074112 -1006.27936
v -103.178802 220.63797 -978.464417
v -105.727936 228.276886 -947.134766
v -102.169861 232.700806 -913.813843
v -90.1522522 234.05896 -880.377808
v -95.3008118 176.523132 -1009.50812
v -106.668747 195.227325 -990.220764
v -116.102982 209.084656 -965.461609
v -122.181122 218.715759 -936.900269
v -123.179565 224.838043 -906.547485
v -117.485733 227.893707 -876.210083
v -103.733459 228.114288 -847.293335
v -94.9734344 151.028015 -989.950745
v -85.750824 120.204506 -977.370056
v -103.519623 147.507172 -953.79071
v -71.9696045 87.3042984 -966.566223
v -90.6704712 114.546341 -941.428833
v -108.035431 141.420547 -916.119385
v -53.5001831 53.6358948 -960.559753
v -73.7496338 80.3773651 -932.646362
v -91.9250488 106.707169 -905.727905
v -109.363861 132.162537 -878.5271
v -30.7542419 20.2404175 -958.064758
v -52.9082947 46.1632843 -928.331055
v -72.7817383 71.6411285 -898.995483
v -91.1653442 96.4612656 -870.347778
v -108.571777 119.977303 -841.942871
v -4.51300049 -12.2544632 -954.877625
v -28.1772461 12.2475262 -925.072266
v -50.0187988 36.8150024 -894.51123
v -70.4496765 60.9107895 -864.214722
v -89.103241 83.9470673 -834.803223
v -105.840424 105.640762 -806.830811
v 24.4468689 -43.1468201 -947.575073
v 0.249450684 -21.4601898 -918.790161
v -23.1964417 1.74239731 -887.938721
v -45.8858643 25.198967 -856.610962
v -67.04599 47.9195938 -826.199097
v -85.7471008 69.7036133 -797.893677
v -101.361252 90.5004196 -772.832275
v 60.4293518 -74.3982849 -942.786987
v 96.6999512 -97.2632904 -941.940918
v 66.8841553 -84.6345215 -907.0802
v 132.485931 -111.060944 -937.204468
v 103.521698 -106.555588 -903.245728
v 69.2392273 -92.7396088 -867.84668
v 167.510162 -115.202988 -931.564453
v 139.363342 -118.182007 -897.526001
v 106.504425 -112.792892 -863.673584
v 69.5292358 -96.7117004 -828.466553
v 201.232819 -110.059799 -928.420044
v 174.829315 -120.076828 -893.494385
v 143.162659 -121.473083 -859.784424
v 108.000153 -113.24057 -826.283813
v 70.4395447 -94.2899094 -792.435425
v 232.994354 -96.7043076 -929.591309
v 209.652863 -112.728073 -893.96521
v 179.88797 -120.212112 -859.435669
v 146.157257 -117.779938 -826.053833
v 110.453217 -105.54892 -793.716553
v 73.8931274 -84.0188828 -762.373535
v 261.815948 -76.8900909 -934.266479
v 242.87558 -96.5885773 -899.5177
v 216.35672 -108.897095 -864.303223
v 184.637909 -111.619812 -830.353394
v 150.392883 -104.136215 -797.812378
v 115.256226 -88.1428223 -767.460571
v 80.5583191 -66.1459961 -739.407349
v 287.07132 -47.5932007 -949.200562
v 300.527069 -16.5432701 -967.276794
v 295.915131 -42.3188248 -930.78125
v 304.470673 12.744894 -979.780212
v 309.010345 -10.9335251 -947.138306
v 297.951141 -34.691452 -910.937622
v 300.458832 39.5611801 -986.900452
v 312.016327 17.7928925 -956.558655
v 310.044098 -3.76939774 -924.60144
v 294.357574 -23.0704498 -889.411133
v 290.254547 63.9827271 -988.995422
v 307.051788 43.9689178 -960.32489
v 312.246185 24.5423622 -930.475952
v 305.277313 6.80220985 -899.561035
v 286.80423 -6.69342041 -866.122192
v 275.465668 86.3556137 -986.663391
v 295.679779 68.3011246 -959.395203
v 306.673126 51.062149 -930.490356
v 306.976654 35.1298714 -901.344971
v 296.847931 22.2561722 -872.00769
v 277.045563 14.8674316 -841.323486
v 256.905548 107.575569 -980.754822
v 278.995331 91.8565292 -954.26886
v 294.370636 76.9426117 -925.799927
v 301.384674 63.1925583 -896.777954
v 298.600372 51.5398636 -868.750366
v 286.316315 43.7566223 -841.887329
v 265.743134 40.795105 -815.330322
v 229.438812 132.287048 -983.085022
v 200.7836 156.195435 -995.37677
v 226.244171 141.897934 -959.402405
v 174.082977 178.420456 -1008.06085
v 197.284943 167.778015 -973.148376
v 221.581268 151.998337 -934.354614
v 147.651276 195.915512 -1017.65765
v 170.67807 190.147034 -985.267395
v 192.050751 178.464233 -948.773682
v 215.282379 162.296692 -908.141479
v 119.763458 206.861526 -1021.69293
v 143.106903 206.253448 -992.200012
v 163.809784 200.102554 -959.329651
v 184.12558 188.818024 -922.708862
v 205.245575 174.0289 -882.134033
v 89.217041 213.279541 -1021.49554
v 111.744812 216.328247 -993.921692
v 132.399841 215.400101 -964.087952
v 151.932922 209.761581 -931.603027
v 171.280426 199.588409 -896.085571
v 189.504852 187.246475 -857.165527
v 55.2168274 217.679611 -1018.87653
v 74.8518677 222.678467 -992.422058
v 94.3961182 225.037094 -964.05658
v 113.554901 223.962402 -934.041626
v 132.800476 218.747009 -902.567749
v 151.136169 210.198059 -869.131104
v 167.189117 200.358475 -833.867432
v 33.8050537 226.310165 -993.965271
v 10.2741394 233.337692 -968.151428
v 52.0120544 230.533203 -964.654846
v -13.9985046 237.355957 -940.545898
v 27.5080566 235.693848 -936.964233
v 70.4693298 231.888443 -934.475952
v -36.7471313 237.850189 -910.05957
v 3.53140259 237.252274 -907.782227
v 46.2692566 234.947067 -905.507568
v 90.0275269 229.608597 -903.449707
v -57.1242065 235.965057 -876.493652
v -18.6923523 236.169235 -875.159424
v 23.192749 234.9384 -874.148315
v 66.7747192 231.387589 -872.457886
v 110.217041 223.927963 -870.542236
v -74.6295471 230.848419 -841.256836
v -38.7315674 232.055237 -838.567993
v 1.77124023 232.043869 -837.825562
v 44.7790833 230.182327 -837.062256
v 88.2064514 225.288986 -835.696533
v 129.758179 215.79863 -834.397461
v -109.345642 174.981674 -971.181946
v -118.492065 170.792084 -930.693115
v -121.403961 192.58815 -947.67334
v -123.336838 163.11319 -889.781128
v -130.53804 186.750931 -904.381836
v -130.634689 204.898499 -920.457764
v -124.484909 151.621231 -849.567627
v -134.904449 177.129715 -861.432007
v -138.875519 197.345276 -875.683228
v -135.465973 213.067307 -891.059204
v -122.364029 136.645584 -810.557373
v -134.614944 163.432053 -819.17334
v -141.444687 185.852814 -831.302124
v -141.472275 203.903549 -845.630005
v -133.793594 217.815536 -860.979248
v -116.938995 119.301147 -772.877197
v -129.38559 146.077072 -777.651367
v -137.699051 170.100479 -786.975586
v -139.942093 190.504761 -799.956421
v -135.158524 206.910385 -815.246582
v -123.018417 219.329453 -831.455688
v 32.2210083 -54.742424 -912.437866
v 35.1318054 -64.0576935 -873.150146
v 5.56903076 -32.4883041 -880.057373
v 34.8154907 -70.5126495 -832.078491
v 6.08898926 -40.8199921 -838.680176
v -20.0516357 -9.05039597 -846.949829
v 34.2073975 -72.1409149 -792.219727
v 4.55133057 -45.5319519 -796.669189
v -21.0226746 -16.422905 -804.272583
v -44.487854 14.5835209 -814.181519
v 36.1315002 -66.6969223 -756.497559
v 4.19732666 -44.4005051 -756.477173
v -22.9034729 -18.8474617 -761.370361
v -46.308075 8.8858757 -770.401489
v -66.9914246 38.4010773 -782.777222
v 42.6665039 -52.7706223 -727.249756
v 8.26379395 -35.0935211 -720.809692
v -21.8692627 -13.9034882 -720.477905
v -47.4624939 9.93704033 -726.420654
v -68.7494507 35.7244148 -738.09729
v -86.4326782 62.8252792 -754.151123
v 272.812653 -72.1992188 -913.061157
v 276.495697 -64.3254776 -892.843506
v 249.381134 -89.1029892 -876.235718
v 274.59079 -51.4788361 -872.749268
v 249.667999 -75.7921066 -855.479492
v 219.872955 -96.1902618 -840.195435
v 268.427887 -32.8226776 -851.676514
v 245.41629 -55.8351059 -835.349609
v 217.988007 -75.897789 -819.113281
v 186.197968 -92.5261459 -805.663696
v 259.099274 -7.93330765 -828.832397
v 237.349335 -29.0129166 -813.893799
v 211.661652 -48.0876999 -798.02832
v 182.210175 -64.9435425 -783.459106
v 149.672455 -78.7416382 -772.366699
v 247.29715 23.0500393 -803.855225
v 225.649445 5.18035316 -790.018188
v 200.738983 -12.4053116 -774.689941
v 172.707489 -29.2093658 -759.866943
v 142.32666 -44.4263458 -747.730713
v 110.992981 -57.2050781 -740.307373
v 255.285614 116.20282 -952.663025
v 251.398285 125.791451 -924.219604
v 275.801117 101.816032 -921.819824
v 245.404572 136.095383 -895.233276
v 270.679169 112.79451 -889.651123
v 289.362335 89.3282776 -890.549561
v 235.674591 148.288406 -866.323364
v 261.809784 125.219208 -857.573242
v 281.776093 102.902702 -855.745728
v 293.52597 78.8311539 -860.328613
v 219.927338 163.569092 -838.647949
v 246.631989 140.822311 -826.239502
v 268.086517 119.012657 -821.330322
v 281.293488 96.3526077 -823.9646
v 286.402374 71.4008408 -832.032349
v 196.48465 181.135376 -812.865845
v 222.993988 160.326492 -796.395264
v 244.692352 138.982788 -787.398682
v 259.452179 117.149681 -787.198608
v 266.323639 93.6840591 -794.304077
v 267.561981 68.1188126 -804.730225
v 17.9199524 141.398193 -670.356201
v 44.0744629 161.890533 -684.837769
v -4.82873535 159.432526 -683.631226
v 72.7514648 178.36203 -700.088623
v 22.2558899 180.275253 -701.771606
v -26.0059509 175.644684 -703.071289
v 101.372894 190.369431 -716.921631
v 50.3296204 195.835403 -719.85376
v 0.990509033 194.949219 -723.375122
v -46.6368103 189.658829 -725.852295
v 125.91214 197.768555 -738.801514
v 75.9862366 206.461884 -740.699219
v 27.0346069 208.464996 -743.829468
v -20.9325256 206.443771 -747.113892
v -66.6842651 201.583389 -750.814819
v 144.655914 201.115295 -766.657593
v 97.1839905 212.742096 -767.17334
v 49.7752991 217.413757 -768.948364
v 3.04037476 217.888916 -770.951172
v -42.2183533 215.858917 -773.86377
v -83.9424438 212.087479 -779.145874
v 158.196289 201.443649 -798.950806
v 114.851898 215.520905 -798.854126
v 69.7801514 222.800323 -799.959351
v 24.5669861 225.532089 -801.039307
v -19.4417114 225.601212 -802.208008
v -60.6930237 224.059372 -805.035889
v -96.6298981 221.205521 -811.441772
v 57.2939758 135.374832 -673.110718
v 97.2511902 126.798332 -683.088623
v 88.4877014 155.079056 -687.387939
v 136.694946 114.786079 -700.109009
v 130.692841 144.517441 -697.379761
v 120.064697 169.183487 -702.28064
v 175.041412 99.3997574 -723.154785
v 170.271393 129.873596 -715.09082
v 162.652985 155.635117 -713.180664
v 149.213501 178.106842 -720.233887
v 210.029205 80.4255676 -751.44104
v 207.351776 111.47081 -739.686768
v 201.589081 137.735352 -732.331055
v 190.758881 161.031677 -733.134888
v 172.365875 182.186829 -744.450317
v 240.560577 59.6605225 -782.713623
v 240.325043 89.9236526 -770.078735
v 236.604462 116.274651 -759.718262
v 227.650116 139.841705 -755.194336
v 211.816132 161.896225 -760.124268
v 188.106354 182.467758 -775.477173
v 19.1809082 114.645836 -659.095337
v 23.8026733 85.8330078 -654.832764
v 61.0768433 106.120186 -668.099487
v 31.1828918 55.7830048 -658.467285
v 67.6762085 75.4193192 -670.483032
v 102.139709 95.3418045 -685.227539
v 40.5769348 25.1525879 -670.104004
v 76.2796326 43.5413437 -679.420288
v 109.752106 62.7731018 -693.445679
v 142.160858 81.5351486 -708.523438
v 51.9800415 -5.72938538 -688.703369
v 86.4033203 10.6242352 -694.277344
v 119.26355 28.8207855 -706.412476
v 150.471161 46.9634476 -721.253784
v 180.634674 64.2634888 -736.441406
v 65.3472595 -36.5922546 -712.36145
v 97.8780212 -23.171051 -714.786621
v 130.059753 -7.08963776 -724.227661
v 160.650208 10.0332241 -737.922729
v 189.23526 27.0940228 -753.286011
v 215.821075 43.6933441 -768.533813
v -18.9995728 130.142212 -663.988037
v -50.8113098 118.846024 -662.644531
v -17.0659485 99.7416992 -651.578491
v -75.9919128 109.368317 -668.954712
v -46.3603821 86.6440506 -652.329468
v -11.1350708 69.2454529 -648.79248
v -93.4165649 102.480423 -684.549072
v -68.318573 77.0107498 -663.478149
v -38.1731262 56.1699982 -653.961548
v -2.30792236 39.1991959 -656.128418
v -102.6987 97.5808945 -708.637451
v -82.1733704 70.4931183 -685.309937
v -57.1152954 46.9395981 -671.058228
v -26.8646851 26.6637955 -666.898804
v 9.22491455 9.29147911 -672.90686
v -104.717758 93.7185669 -738.819092
v -87.8417664 65.8700562 -716.106934
v -67.2785034 40.2184525 -699.283936
v -42.0906982 17.0846062 -690.190674
v -11.7203674 -3.46881104 -689.564697
v 24.1346436 -21.3970222 -697.112793
v -44.5531921 149.665054 -681.362549
v -66.3746033 167.262802 -704.258179
v -76.1004333 140.759354 -684.55603
v -86.0957947 182.837524 -730.005859
v -96.4267731 160.326324 -711.078247
v -98.8493958 133.664352 -695.172119
v -103.4263 196.645447 -758.640625
v -113.750549 177.664185 -740.442383
v -116.539856 154.982986 -725.218384
v -112.708389 128.333771 -714.070923
v -116.224838 209.050919 -792.192993
v -127.359314 193.285004 -774.298462
v -130.76207 173.835373 -758.996094
v -127.241745 150.606888 -747.398926
v -118.339447 123.777405 -740.338379
g 
f 3 1 2
f 5 2 4
f 6 3 5
f 8 4 7
f 9 5 8
f 10 6 9
f 12 7 11
f 13 8 12
f 14 9 13
f 15 10 14
f 17 11 16
f 18 12 17
f 19 13 18
f 20 14 19
f 21 15 20
f 23 16 22
f 24 17 23
f 25 18 24
f 26 19 25
f 27 20 26
f 28 21 27
f 30 22 29
f 31 23 30
f 32 24 31
f 33 25 32
f 34 26 33
f 35 27 34
f 36 28 35
f 3 2 5
f 5 4 8
f 6 5 9
f 8 7 12
f 9 8 13
f 10 9 14
f 12 11 17
f 13 12 18
f 14 13 19
f 15 14 20
f 17 16 23
f 18 17 24
f 19 18 25
f 20 19 26
f 21 20 27
f 23 22 30
f 24 23 31
f 25 24 32
f 26 25 33
f 27 26 34
f 28 27 35
f 37 1 3
f 38 3 6
f 39 37 38
f 40 6 10
f 41 38 40
f 42 39 41
f 43 10 15
f 44 40 43
f 45 41 44
f 46 42 45
f 47 15 21
f 48 43 47
f 49 44 48
f 50 45 49
f 51 46 50
f 52 21 28
f 53 47 52
f 54 48 53
f 55 49 54
f 56 50 55
f 57 51 56
f 58 28 36
f 59 52 58
f 60 53 59
f 61 54 60
f 62 55 61
f 63 56 62
f 64 57 63
f 37 3 38
f 38 6 40
f 39 38 41
f 40 10 43
f 41 40 44
f 42 41 45
f 43 15 47
f 44 43 48
f 45 44 49
f 46 45 50
f 47 21 52
f 48 47 53
f 49 48 54
f 50 49 55
f 51 50 56
f 52 28 58
f 53 52 59
f 54 53 60
f 55 54 61
f 56 55 62
f 57 56 63
f 65 1 37
f 66 37 39
f 67 65 66
f 68 39 42
f 69 66 68
f 70 67 69
f 71 42 46
f 72 68 71
f 73 69 72
f 74 70 73
f 75 46 51
f 76 71 75
f 77 72 76
f 78 73 77
f 79 74 78
f 80 51 57
f 81 75 80
f 82 76 81
f 83 77 82
f 84 78 83
f 85 79 84
f 86 57 64
f 87 80 86
f 88 81 87
f 89 82 88
f 90 83 89
f 91 84 90
f 92 85 91
f 65 37 66
f 66 39 68
f 67 66 69
f 68 42 71
f 69 68 72
f 70 69 73
f 71 46 75
f 72 71 76
f 73 72 77
f 74 73 78
f 75 51 80
f 76 75 81
f 77 76 82
f 78 77 83
f 79 78 84
f 80 57 86
f 81 80 87
f 82 81 88
f 83 82 89
f 84 83 90
f 85 84 91
f 93 1 65
f 94 65 67
f 95 93 94
f 96 67 70
f 97 94 96
f 98 95 97
f 99 70 74
f 100 96 99
f 101 97 100
f 102 98 101
f 103 74 79
f 104 99 103
f 105 100 104
f 106 101 105
f 107 102 106
f 108 79 85
f 109 103 108
f 110 104 109
f 111 105 110
f 112 106 111
f 113 107 112
f 114 85 92
f 115 108 114
f 116 109 115
f 117 110 116
f 118 111 117
f 119 112 118
f 120 113 119
f 93 65 94
f 94 67 96
f 95 94 97
f 96 70 99
f 97 96 100
f 98 97 101
f 99 74 103
f 100 99 104
f 101 100 105
f 102 101 106
f 103 79 108
f 104 103 109
f 105 104 110
f 106 105 111
f 107 106 112
f 108 85 114
f 109 108 115
f 110 109 116
f 111 110 117
f 112 111 118
f 113 112 119
f 2 1 93
f 121 93 95
f 4 2 121
f 122 95 98
f 123 121 122
f 7 4 123
f 124 98 102
f 125 122 124
f 126 123 125
f 11 7 126
f 127 102 107
f 128 124 127
f 129 125 128
f 130 126 129
f 16 11 130
f 131 107 113
f 132 127 131
f 133 128 132
f 134 129 133
f 135 130 134
f 22 16 135
f 136 113 120
f 137 131 136
f 138 132 137
f 139 133 138
f 140 134 139
f 141 135 140
f 29 22 141
f 2 93 121
f 121 95 122
f 4 121 123
f 122 98 124
f 123 122 125
f 7 123 126
f 124 102 127
f 125 124 128
f 126 125 129
f 11 126 130
f 127 107 131
f 128 127 132
f 129 128 133
f 130 129 134
f 16 130 135
f 131 113 136
f 132 131 137
f 133 132 138
f 134 133 139
f 135 134 140
f 22 135 141
f 142 29 141
f 143 141 140
f 144 142 143
f 145 140 139
f 146 143 145
f 147 144 146
f 148 139 138
f 149 145 148
f 150 146 149
f 151 147 150
f 152 138 137
f 153 148 152
f 154 149 153
f 155 150 154
f 156 151 155
f 157 137 136
f 158 152 157
f 159 153 158
f 160 154 159
f 161 155 160
f 162 156 161
f 163 136 120
f 164 157 163
f 165 158 164
f 166 159 165
f 167 160 166
f 168 161 167
f 169 162 168
f 142 141 143
f 143 140 145
f 144 143 146
f 145 139 148
f 146 145 149
f 147 146 150
f 148 138 152
f 149 148 153
f 150 149 154
f 151 150 155
f 152 137 157
f 153 152 158
f 154 153 159
f 155 154 160
f 156 155 161
f 157 136 163
f 158 157 164
f 159 158 165
f 160 159 166
f 161 160 167
f 162 161 168
f 170 120 119
f 171 119 118
f 172 170 171
f 173 118 117
f 174 171 173
f 175 172 174
f 176 117 116
f 177 173 176
f 178 174 177
f 179 175 178
f 180 116 115
f 181 176 180
f 182 177 181
f 183 178 182
f 184 179 183
f 185 115 114
f 186 180 185
f 187 181 186
f 188 182 187
f 189 183 188
f 190 184 189
f 191 114 92
f 192 185 191
f 193 186 192
f 194 187 193
f 195 188 194
f 196 189 195
f 197 190 196
f 170 119 171
f 171 118 173
f 172 171 174
f 173 117 176
f 174 173 177
f 175 174 178
f 176 116 180
f 177 176 181
f 178 177 182
f 179 178 183
f 180 115 185
f 181 180 186
f 182 181 187
f 183 182 188
f 184 183 189
f 185 114 191
f 186 185 192
f 187 186 193
f 188 187 194
f 189 188 195
f 190 189 196
f 198 92 91
f 199 91 90
f 200 198 199
f 201 90 89
f 202 199 201
f 203 200 202
f 204 89 88
f 205 201 204
f 206 202 205
f 207 203 206
f 208 88 87
f 209 204 208
f 210 205 209
f 211 206 210
f 212 207 211
f 213 87 86
f 214 208 213
f 215 209 214
f 216 210 215
f 217 211 216
f 218 212 217
f 219 86 64
f 220 213 219
f 221 214 220
f 222 215 221
f 223 216 222
f 224 217 223
f 225 218 224
f 198 91 199
f 199 90 201
f 200 199 202
f 201 89 204
f 202 201 205
f 203 202 206
f 204 88 208
f 205 204 209
f 206 205 210
f 207 206 211
f 208 87 213
f 209 208 214
f 210 209 215
f 211 210 216
f 212 211 217
f 213 86 219
f 214 213 220
f 215 214 221
f 216 215 222
f 217 216 223
f 218 217 224
f 226 64 63
f 227 63 62
f 228 226 227
f 229 62 61
f 230 227 229
f 231 228 230
f 232 61 60
f 233 229 232
f 234 230 233
f 235 231 234
f 236 60 59
f 237 232 236
f 238 233 237
f 239 234 238
f 240 235 239
f 241 59 58
f 242 236 241
f 243 237 242
f 244 238 243
f 245 239 244
f 246 240 245
f 247 58 36
f 248 241 247
f 249 242 248
f 250 243 249
f 251 244 250
f 252 245 251
f 253 246 252
f 226 63 227
f 227 62 229
f 228 227 230
f 229 61 232
f 230 229 233
f 231 230 234
f 232 60 236
f 233 232 237
f 234 233 238
f 235 234 239
f 236 59 241
f 237 236 242
f 238 237 243
f 239 238 244
f 240 239 245
f 241 58 247
f 242 241 248
f 243 242 249
f 244 243 250
f 245 244 251
f 246 245 252
f 254 36 35
f 255 35 34
f 256 254 255
f 257 34 33
f 258 255 257
f 259 256 258
f 260 33 32
f 261 257 260
f 262 258 261
f 263 259 262
f 264 32 31
f 265 260 264
f 266 261 265
f 267 262 266
f 268 263 267
f 269 31 30
f 270 264 269
f 271 265 270
f 272 266 271
f 273 267 272
f 274 268 273
f 275 30 29
f 276 269 275
f 277 270 276
f 278 271 277
f 279 272 278
f 280 273 279
f 281 274 280
f 254 35 255
f 255 34 257
f 256 255 258
f 257 33 260
f 258 257 261
f 259 258 262
f 260 32 264
f 261 260 265
f 262 261 266
f 263 262 267
f 264 31 269
f 265 264 270
f 266 265 271
f 267 266 272
f 268 267 273
f 269 30 275
f 270 269 276
f 271 270 277
f 272 271 278
f 273 272 279
f 274 273 280
f 275 29 142
f 282 142 144
f 276 275 282
f 283 144 147
f 284 282 283
f 277 276 284
f 285 147 151
f 286 283 285
f 287 284 286
f 278 277 287
f 288 151 156
f 289 285 288
f 290 286 289
f 291 287 290
f 279 278 291
f 292 156 162
f 293 288 292
f 294 289 293
f 295 290 294
f 296 291 295
f 280 279 296
f 297 162 169
f 298 292 297
f 299 293 298
f 300 294 299
f 301 295 300
f 302 296 301
f 281 280 302
f 275 142 282
f 282 144 283
f 276 282 284
f 283 147 285
f 284 283 286
f 277 284 287
f 285 151 288
f 286 285 289
f 287 286 290
f 278 287 291
f 288 156 292
f 289 288 293
f 290 289 294
f 291 290 295
f 279 291 296
f 292 162 297
f 293 292 298
f 294 293 299
f 295 294 300
f 296 295 301
f 280 296 302
f 163 120 170
f 303 170 172
f 164 163 303
f 304 172 175
f 305 303 304
f 165 164 305
f 306 175 179
f 307 304 306
f 308 305 307
f 166 165 308
f 309 179 184
f 310 306 309
f 311 307 310
f 312 308 311
f 167 166 312
f 313 184 190
f 314 309 313
f 315 310 314
f 316 311 315
f 317 312 316
f 168 167 317
f 318 190 197
f 319 313 318
f 320 314 319
f 321 315 320
f 322 316 321
f 323 317 322
f 169 168 323
f 163 170 303
f 303 172 304
f 164 303 305
f 304 175 306
f 305 304 307
f 165 305 308
f 306 179 309
f 307 306 310
f 308 307 311
f 166 308 312
f 309 184 313
f 310 309 314
f 311 310 315
f 312 311 316
f 167 312 317
f 313 190 318
f 314 313 319
f 315 314 320
f 316 315 321
f 317 316 322
f 168 317 323
f 191 92 198
f 324 198 200
f 192 191 324
f 325 200 203
f 326 324 325
f 193 192 326
f 327 203 207
f 328 325 327
f 329 326 328
f 194 193 329
f 330 207 212
f 331 327 330
f 332 328 331
f 333 329 332
f 195 194 333
f 334 212 218
f 335 330 334
f 336 331 335
f 337 332 336
f 338 333 337
f 196 195 338
f 339 218 225
f 340 334 339
f 341 335 340
f 342 336 341
f 343 337 342
f 344 338 343
f 197 196 344
f 191 198 324
f 324 200 325
f 192 324 326
f 325 203 327
f 326 325 328
f 193 326 329
f 327 207 330
f 328 327 331
f 329 328 332
f 194 329 333
f 330 212 334
f 331 330 335
f 332 331 336
f 333 332 337
f 195 333 338
f 334 218 339
f 335 334 340
f 336 335 341
f 337 336 342
f 338 337 343
f 196 338 344
f 219 64 226
f 345 226 228
f 220 219 345
f 346 228 231
f 347 345 346
f 221 220 347
f 348 231 235
f 349 346 348
f 350 347 349
f 222 221 350
f 351 235 240
f 352 348 351
f 353 349 352
f 354 350 353
f 223 222 354
f 355 240 246
f 356 351 355
f 357 352 356
f 358 353 357
f 359 354 358
f 224 223 359
f 360 246 253
f 361 355 360
f 362 356 361
f 363 357 362
f 364 358 363
f 365 359 364
f 225 224 365
f 219 226 345
f 345 228 346
f 220 345 347
f 346 231 348
f 347 346 349
f 221 347 350
f 348 235 351
f 349 348 352
f 350 349 353
f 222 350 354
f 351 240 355
f 352 351 356
f 353 352 357
f 354 353 358
f 223 354 359
f 355 246 360
f 356 355 361
f 357 356 362
f 358 357 363
f 359 358 364
f 224 359 365
f 247 36 254
f 366 254 256
f 248 247 366
f 367 256 259
f 368 366 367
f 249 248 368
f 369 259 263
f 370 367 369
f 371 368 370
f 250 249 371
f 372 263 268
f 373 369 372
f 374 370 373
f 375 371 374
f 251 250 375
f 376 268 274
f 377 372 376
f 378 373 377
f 379 374 378
f 380 375 379
f 252 251 380
f 381 274 281
f 382 376 381
f 383 377 382
f 384 378 383
f 385 379 384
f 386 380 385
f 253 252 386
f 247 254 366
f 366 256 367
f 248 366 368
f 367 259 369
f 368 367 370
f 249 368 371
f 369 263 372
f 370 369 373
f 371 370 374
f 250 371 375
f 372 268 376
f 373 372 377
f 374 373 378
f 375 374 379
f 251 375 380
f 376 274 381
f 377 376 382
f 378 377 383
f 379 378 384
f 380 379 385
f 252 380 386
f 389 387 388
f 391 388 390
f 392 389 391
f 394 390 393
f 395 391 394
f 396 392 395
f 398 393 397
f 399 394 398
f 400 395 399
f 401 396 400
f 403 397 402
f 404 398 403
f 405 399 404
f 406 400 405
f 407 401 406
f 409 402 408
f 410 403 409
f 411 404 410
f 412 405 411
f 413 406 412
f 414 407 413
f 302 408 281
f 301 409 302
f 300 410 301
f 299 411 300
f 298 412 299
f 297 413 298
f 169 414 297
f 389 388 391
f 391 390 394
f 392 391 395
f 394 393 398
f 395 394 399
f 396 395 400
f 398 397 403
f 399 398 404
f 400 399 405
f 401 400 406
f 403 402 409
f 404 403 410
f 405 404 411
f 406 405 412
f 407 406 413
f 409 408 302
f 410 409 301
f 411 410 300
f 412 411 299
f 413 412 298
f 414 413 297
f 388 387 415
f 417 415 416
f 390 388 417
f 419 416 418
f 420 417 419
f 393 390 420
f 422 418 421
f 423 419 422
f 424 420 423
f 397 393 424
f 426 421 425
f 427 422 426
f 428 423 427
f 429 424 428
f 402 397 429
f 431 425 430
f 432 426 431
f 433 427 432
f 434 428 433
f 435 429 434
f 408 402 435
f 386 430 253
f 385 431 386
f 384 432 385
f 383 433 384
f 382 434 383
f 381 435 382
f 281 408 381
f 388 415 417
f 417 416 419
f 390 417 420
f 419 418 422
f 420 419 423
f 393 420 424
f 422 421 426
f 423 422 427
f 424 423 428
f 397 424 429
f 426 425 431
f 427 426 432
f 428 427 433
f 429 428 434
f 402 429 435
f 431 430 386
f 432 431 385
f 433 432 384
f 434 433 383
f 435 434 382
f 408 435 381
f 415 387 436
f 438 436 437
f 416 415 438
f 440 437 439
f 441 438 440
f 418 416 441
f 443 439 442
f 444 440 443
f 445 441 444
f 421 418 445
f 447 442 446
f 448 443 447
f 449 444 448
f 450 445 449
f 425 421 450
f 452 446 451
f 453 447 452
f 454 448 453
f 455 449 454
f 456 450 455
f 430 425 456
f 365 451 225
f 364 452 365
f 363 453 364
f 362 454 363
f 361 455 362
f 360 456 361
f 253 430 360
f 415 436 438
f 438 437 440
f 416 438 441
f 440 439 443
f 441 440 444
f 418 441 445
f 443 442 447
f 444 443 448
f 445 444 449
f 421 445 450
f 447 446 452
f 448 447 453
f 449 448 454
f 450 449 455
f 425 450 456
f 452 451 365
f 453 452 364
f 454 453 363
f 455 454 362
f 456 455 361
f 430 456 360
f 436 387 457
f 459 457 458
f 437 436 459
f 461 458 460
f 462 459 461
f 439 437 462
f 464 460 463
f 465 461 464
f 466 462 465
f 442 439 466
f 468 463 467
f 469 464 468
f 470 465 469
f 471 466 470
f 446 442 471
f 473 467 472
f 474 468 473
f 475 469 474
f 476 470 475
f 477 471 476
f 451 446 477
f 344 472 197
f 343 473 344
f 342 474 343
f 341 475 342
f 340 476 341
f 339 477 340
f 225 451 339
f 436 457 459
f 459 458 461
f 437 459 462
f 461 460 464
f 462 461 465
f 439 462 466
f 464 463 468
f 465 464 469
f 466 465 470
f 442 466 471
f 468 467 473
f 469 468 474
f 470 469 475
f 471 470 476
f 446 471 477
f 473 472 344
f 474 473 343
f 475 474 342
f 476 475 341
f 477 476 340
f 451 477 339
f 457 387 389
f 478 389 392
f 458 457 478
f 479 392 396
f 480 478 479
f 460 458 480
f 481 396 401
f 482 479 481
f 483 480 482
f 463 460 483
f 484 401 407
f 485 481 484
f 486 482 485
f 487 483 486
f 467 463 487
f 488 407 414
f 489 484 488
f 490 485 489
f 491 486 490
f 492 487 491
f 472 467 492
f 323 414 169
f 322 488 323
f 321 489 322
f 320 490 321
f 319 491 320
f 318 492 319
f 197 472 318
f 457 389 478
f 478 392 479
f 458 478 480
f 479 396 481
f 480 479 482
f 460 480 483
f 481 401 484
f 482 481 485
f 483 482 486
f 463 483 487
f 484 407 488
f 485 484 489
f 486 485 490
f 487 486 491
f 467 487 492
f 488 414 323
f 489 488 322
f 490 489 321
f 491 490 320
f 492 491 319
f 472 492 318
