# File exported by Houdini 20.5.445 (www.sidefx.com)
# 492 points
# 2940 vertices
# 980 primitives
# Bounds: [-202.300476, -221.068375, -1022.6369] to [373.074402, 337.445496, -732.164124]
g 
v 138.870667 46.2586861 -1014.13251
v 138.192383 78.1891327 -1005.27325
v 173.51416 65.4796906 -1004.1911
v 138.090881 106.463974 -994.526428
v 178.093811 99.0869293 -993.898743
v 209.832764 82.6391754 -988.738464
v 137.892029 132.765839 -981.44635
v 181.546936 127.914627 -982.745178
v 217.820251 117.356232 -978.276794
v 246.516296 98.4642181 -969.426086
v 136.693848 159.592087 -965.461243
v 182.233826 154.948044 -969.350281
v 222.294983 147.363754 -967.238098
v 255.662842 134.308746 -959.283142
v 281.602173 113.2966 -948.632019
v 134.236328 188.530197 -947.868469
v 179.965942 183.126328 -953.136902
v 222.040771 176.249084 -953.646301
v 259.24646 166.073273 -948.224792
v 289.876465 150.355499 -938.697205
v 312.95929 126.564865 -928.409119
v 131.060059 219.641907 -930.594055
v 175.598816 214.010147 -935.337585
v 218.085754 206.920227 -937.090881
v 257.556641 197.544876 -934.217468
v 291.804199 184.190567 -927.310852
v 319.27832 164.678619 -918.440735
v 338.918457 137.275955 -910.440857
v 128.07959 251.144287 -914.876282
v 170.710999 247.327301 -917.547913
v 212.547363 240.82309 -918.920959
v 252.807068 231.485199 -917.305969
v 289.368713 218.287903 -912.794861
v 319.934692 199.807144 -906.502747
v 343.227783 175.14061 -900.152161
v 358.362976 144.229965 -895.506042
v 160.097717 23.6191368 -1016.18231
v 196.233826 42.4533043 -1001.77692
v 179.224426 -1.07966614 -1014.46039
v 232.163391 58.9776115 -981.818665
v 215.038635 18.0636292 -995.910217
v 195.043945 -26.6465149 -1007.96198
v 267.420776 73.9408722 -959.803162
v 249.488159 34.4722557 -973.272522
v 229.589172 -7.05831909 -986.948914
v 206.647949 -52.2064514 -996.479187
v 300.834351 87.2167358 -938.127502
v 282.954224 48.339138 -950.197083
v 262.306396 8.66231537 -963.274597
v 239.665161 -33.138382 -974.710022
v 213.81665 -77.655426 -980.396057
v 330.636169 98.1530151 -918.233582
v 314.672791 59.2711678 -928.372742
v 294.05957 20.2423477 -939.95282
v 270.723938 -19.6254692 -951.001038
v 245.247375 -60.8694839 -958.848083
v 216.324707 -103.298355 -961.081482
v 354.78418 106.282593 -901.168884
v 342.710632 66.9426117 -908.703796
v 323.905823 27.3833694 -917.920349
v 300.582397 -12.0419502 -927.389099
v 274.429504 -51.3658295 -935.052795
v 245.690186 -90.3619537 -939.344177
v 214.223206 -127.95845 -939.175354
v 120.119263 11.7392006 -1021.05145
v 141.884216 -16.1289139 -1022.6369
v 102.590881 -23.3428879 -1021.27521
v 159.821472 -43.9333115 -1019.54962
v 124.061279 -54.1159058 -1019.52313
v 83.656189 -56.2587891 -1013.27777
v 173.26239 -71.0493774 -1010.11908
v 139.92865 -83.118454 -1013.02972
v 103.547485 -88.2558899 -1006.60956
v 61.1506348 -84.871109 -997.329773
v 182.037292 -97.243454 -994.51532
v 150.516907 -110.837677 -999.847595
v 116.713989 -117.81044 -996.026794
v 78.5339966 -117.52388 -985.570618
v 34.4494019 -108.299026 -975.644958
v 185.996216 -123.127106 -973.931335
v 156.079956 -137.855423 -980.238708
v 124.138062 -146.355652 -979.127258
v 88.5425415 -147.941635 -971.033142
v 48.616272 -141.828888 -959.644348
v 4.81787109 -126.935028 -951.364075
v 184.839844 -148.474594 -949.229797
v 155.777039 -164.725311 -955.015442
v 125.32312 -174.795639 -955.363708
v 91.7084961 -177.769882 -950.280457
v 54.3481445 -173.429871 -941.226257
v 14.5697021 -161.381851 -932.004211
v -25.9744263 -141.902359 -927.428284
v 103.965088 46.5438728 -1015.24579
v 82.5299683 11.0847664 -1020.02631
v 68.3950806 46.6707573 -1013.36993
v 62.2891235 -22.2138596 -1017.08209
v 45.2322998 12.1183205 -1015.80719
v 33.3904419 48.6683083 -1006.73114
v 40.2997437 -51.2472687 -1006.22675
v 22.6346436 -17.8041573 -1009.99994
v 8.98431396 16.7991295 -1006.53314
v -0.16027832 54.2782707 -994.489929
v 14.7231445 -74.907753 -988.339172
v -2.35491943 -41.8986053 -996.636414
v -16.0924072 -8.46836853 -998.114807
v -26.0869751 26.6063805 -991.699158
v -32.0615234 64.9642487 -977.580139
v -14.5528564 -93.6289368 -965.378845
v -31.2964478 -60.4170685 -976.804749
v -44.7502441 -27.2074013 -982.480408
v -54.322876 6.79800797 -980.930603
v -60.1323242 42.608036 -972.240295
v -62.3358154 81.3730927 -958.133972
v -46.4343262 -109.475388 -940.351624
v -64.3122559 -75.5413361 -952.473206
v -78.3076172 -41.2110825 -960.674133
v -87.5899048 -6.66031647 -962.957214
v -92.1722107 28.5316658 -958.937683
v -92.9614563 64.8113556 -949.906677
v -90.6090698 102.478104 -938.424377
v 99.0018311 79.4623871 -1005.04205
v 61.6837158 80.7918549 -1000.52545
v 95.8179932 108.390884 -991.691956
v 26.5983887 84.4781189 -990.611267
v 57.3936157 111.424225 -984.042786
v 93.8060303 136.162155 -975.496521
v -6.52862549 92.3775482 -975.666321
v 21.7189941 117.94664 -971.462952
v 54.3689575 141.954437 -965.425476
v 91.8079224 165.499512 -957.172058
v -38.3557739 106.198563 -957.384827
v -12.3359375 130.238129 -955.038757
v 17.425415 153.147461 -951.573914
v 51.421936 175.55925 -946.111023
v 89.4787598 198.00296 -938.728943
v -69.3873291 126.638809 -937.945129
v -45.947876 150.125931 -936.600769
v -18.980957 172.394318 -934.78949
v 12.4388428 193.359009 -932.057922
v 48.0865479 213.625626 -927.514709
v 87.078186 233.230347 -921.463684
v 99.3139648 270.558044 -905.500427
v 53.0764771 253.203674 -911.066833
v 70.5228271 288.164062 -897.208313
v 12.1030273 234.957977 -915.059021
v 21.3724976 271.87851 -901.165833
v 41.3462524 303.426758 -889.388977
v -23.4592285 215.604797 -917.277283
v -20.4520264 254.195801 -903.279114
v -9.16888428 287.40918 -891.612122
v 10.4334717 314.949158 -882.315002
v -53.7324829 194.065659 -918.523132
v -55.7000122 233.914734 -904.084656
v -50.9408569 268.517883 -892.171448
v -39.4154663 297.86676 -882.661194
v -22.0239258 321.572449 -875.91095
v -79.6403198 169.337982 -919.676697
v -85.3735657 209.430908 -904.581604
v -85.6229248 245.101868 -891.883484
v -80.0960693 276.141022 -881.648499
v -69.5085449 302.465881 -874.253479
v -53.1542358 322.133057 -869.72699
v -102.934784 141.078079 -920.509094
v -111.284088 179.317947 -904.870789
v -115.093719 214.972427 -891.211975
v -114.086029 247.501617 -879.910461
v -108.334656 276.417023 -871.496643
v -96.879364 299.826172 -866.16864
v -79.2281494 315.723022 -863.767395
v -119.128632 100.679108 -926.014343
v -124.447968 58.9536247 -935.411194
v -146.157532 95.5062714 -913.570007
v -125.607971 19.5875244 -941.701599
v -153.247589 49.6867104 -921.474915
v -170.530823 85.9431458 -901.776794
v -121.135529 -18.6090393 -942.798279
v -153.872498 6.76694107 -925.573547
v -176.94986 36.3373375 -908.002869
v -189.899048 74.111618 -890.656189
v -110.213806 -56.6996994 -937.988708
v -147.25824 -35.0657654 -924.135925
v -175.230225 -9.73475647 -909.437439
v -193.609039 21.4055748 -894.070007
v -200.786774 60.9560661 -879.708923
v -92.9288025 -95.1734619 -927.780823
v -133.236206 -77.0641937 -916.533997
v -165.652222 -54.6980362 -904.436462
v -188.783661 -27.5847626 -891.266663
v -201.181244 5.585989 -878.34967
v -202.300476 46.5720634 -867.584534
v -70.1367798 -133.391312 -913.978088
v -112.063721 -119.467743 -902.888367
v -148.279541 -100.305145 -892.033997
v -175.817627 -76.1507111 -880.524719
v -193.123138 -46.7520447 -868.965881
v -199.505707 -11.1264458 -859.255432
v -196.107208 30.7203789 -852.704651
v -32.0765381 -167.963028 -905.971619
v 11.2391357 -188.278259 -910.777039
v -39.0359497 -188.557098 -883.950134
v 51.7131958 -199.249817 -918.724548
v 5.80432129 -206.665497 -888.158142
v -46.4169312 -201.527527 -859.929382
v 88.5999756 -201.980408 -924.861023
v 46.0765381 -215.041367 -893.775696
v -1.37054443 -215.958801 -862.589661
v -53.2548828 -206.674164 -833.99469
v 122.202942 -196.559296 -927.560852
v 82.8619385 -214.986786 -897.745911
v 38.7383423 -221.068375 -866.612854
v -8.71136475 -216.986008 -835.731384
v -57.7924194 -204.586548 -808.207214
v 154.546021 -182.87294 -925.989319
v 118.379517 -205.937729 -898.770935
v 76.9015503 -217.097656 -869.294006
v 32.2254639 -217.91777 -838.940125
v -13.5675659 -210.262634 -809.909485
v -57.8031006 -195.804321 -785.094299
v 188.165161 -161.718964 -920.228943
v 155.634583 -187.377304 -896.478455
v 116.923706 -202.811157 -869.610657
v 74.1192627 -208.287277 -841.153015
v 29.9639282 -205.397568 -813.070496
v -12.9071045 -195.797546 -787.532532
v -51.4972534 -180.866592 -766.653259
v 229.47345 -127.241501 -917.436707
v 266.480042 -87.7029266 -916.931824
v 242.978882 -122.700577 -896.570862
v 298.113464 -47.5951996 -913.029236
v 283.312622 -81.7693329 -897.162292
v 252.780396 -112.543808 -878.054626
v 325.296997 -6.86401749 -906.831726
v 315.788635 -40.1076279 -895.065002
v 294.023499 -70.131546 -880.84845
v 256.872803 -95.6154938 -862.911316
v 347.703186 35.2264137 -899.553406
v 342.171143 3.28137207 -890.94696
v 325.725952 -26.1714897 -880.798767
v 296.968262 -51.6100769 -867.777405
v 254.263428 -72.5652008 -850.846252
v 363.51416 78.9294434 -892.586731
v 361.880981 49.4754601 -885.670959
v 349.564148 20.8633118 -878.404602
v 326.084351 -4.93547058 -869.167297
v 291.123779 -26.8558769 -856.871399
v 245.234802 -44.6014786 -840.791809
v 370.499878 123.311096 -886.472473
v 373.074402 98.2241211 -879.537781
v 364.96936 71.6444855 -873.377625
v 345.625122 46.0117302 -866.68866
v 315.500427 23.0318146 -858.250916
v 276.14624 3.67271996 -846.949402
v 230.510254 -12.7777023 -832.03009
v 363.530151 168.854202 -884.840515
v 344.313232 203.226852 -888.757507
v 360.768066 191.186981 -875.375916
v 317.143738 229.961594 -893.85321
v 338.460876 227.435608 -879.275085
v 350.333801 211.198273 -867.242249
v 283.418274 250.041595 -898.49762
v 308.808594 255.463867 -883.670105
v 326.208435 248.179565 -871.286438
v 332.157593 228.529495 -860.279968
v 244.177856 264.388428 -901.670593
v 272.646179 276.747101 -887.346619
v 294.440796 276.869263 -875.344055
v 306.322327 265.327545 -864.591736
v 306.296204 242.50708 -854.484314
v 200.678284 273.716248 -902.936584
v 229.859863 291.743469 -889.943054
v 254.576721 298.696106 -878.847839
v 270.97583 293.893188 -868.926331
v 277.48291 278.155731 -859.509583
v 272.820618 253.161987 -850.327454
v 153.397522 278.49231 -902.482849
v 180.130554 300.159973 -891.410217
v 204.901489 313.210876 -881.763
v 223.859863 315.121704 -873.142395
v 235.343323 305.668884 -864.864197
v 238.33252 287.092957 -856.487488
v 232.283936 261.957062 -848.031799
v 125.270508 298.390625 -893.683289
v 96.6136475 313.876587 -886.47821
v 150.297119 317.604858 -884.219299
v 65.0065918 325.651611 -880.555969
v 118.359375 329.237488 -878.533386
v 170.758545 326.549377 -876.280945
v 29.677063 332.914246 -875.747375
v 82.2989502 336.000671 -874.419617
v 134.273071 332.976807 -872.149597
v 185.248169 323.562622 -869.024841
v -7.07086182 334.34082 -871.172913
v 42.7106323 337.445496 -871.195496
v 93.8659058 333.819519 -869.443176
v 144.383606 324.747131 -865.97406
v 192.999329 309.376953 -861.399841
v -41.15271 328.455322 -866.055603
v 2.75714111 332.164856 -867.445007
v 50.5167847 328.501526 -866.848572
v 99.6152344 319.120056 -863.696106
v 147.554016 304.84436 -858.541931
v 192.373901 285.463684 -852.694641
v -131.582703 140.400345 -907.339417
v -156.480835 134.7173 -895.15094
v -138.258118 177.358627 -891.604065
v -177.850647 126.021317 -884.661682
v -160.710358 171.634232 -880.120178
v -140.287415 212.077438 -878.562927
v -192.310059 115.365417 -875.70575
v -177.766083 163.82431 -871.138611
v -159.371521 206.758713 -868.218323
v -137.409973 244.468597 -868.480408
v -196.901184 102.298523 -867.249939
v -185.936646 153.565964 -864.212952
v -170.458801 199.306335 -860.764709
v -151.326508 239.157684 -859.534607
v -127.995453 272.902039 -861.810242
v -191.763031 85.682724 -856.701965
v -183.146301 138.998398 -857.389343
v -170.716187 187.939133 -855.434265
v -154.593628 230.669632 -853.492615
v -134.861572 266.357178 -854.4328
v -110.586578 294.808289 -858.693787
v -80.1866455 -158.47258 -889.639587
v -88.9423828 -176.301895 -864.399719
v -122.463318 -142.537781 -876.529846
v -95.4840698 -186.447418 -837.689392
v -129.235046 -157.738205 -849.015686
v -155.784058 -120.928696 -864.492737
v -98.9493713 -189.087646 -810.442932
v -132.025024 -165.197922 -820.477478
v -158.296265 -133.070343 -835.807068
v -178.558044 -93.3358154 -852.881409
v -97.7932739 -184.166702 -784.459412
v -130.015961 -164.781433 -792.139709
v -155.725891 -136.761795 -806.463318
v -175.604126 -100.897781 -824.410706
v -190.053528 -58.3766174 -842.757141
v -89.6895447 -171.514587 -762.105774
v -121.287262 -155.397491 -765.826477
v -146.572876 -130.99028 -777.867737
v -166.143341 -98.1084442 -795.733337
v -180.219635 -58.1381607 -816.331726
v -189.871948 -14.0428429 -836.329407
v 198.300293 -158.9216 -895.735168
v 205.933228 -149.66066 -873.871765
v 160.659119 -179.259918 -870.651062
v 209.989014 -133.562195 -855.595886
v 163.520752 -164.054779 -848.904968
v 118.115662 -189.059235 -843.760925
v 209.331238 -110.868317 -841.136658
v 163.695496 -142.347 -831.384094
v 117.86438 -168.67955 -822.799744
v 72.9337769 -190.12764 -816.288879
v 203.253418 -82.0968781 -829.590759
v 159.676941 -114.250122 -817.592102
v 114.954651 -141.97934 -806.073792
v 70.1433716 -165.498566 -796.405823
v 26.9987183 -183.935333 -789.741882
v 191.845459 -47.7190018 -819.574646
v 150.886658 -79.9358368 -805.926208
v 107.976929 -108.764771 -792.18573
v 64.2693481 -134.210052 -779.969543
v 21.7824097 -155.454391 -770.682434
v -17.3000488 -171.120667 -765.680847
v 372.878906 146.9552 -875.484314
v 364.974182 167.844086 -865.940613
v 369.890198 121.963013 -868.281921
v 347.851685 186.368896 -857.906067
v 355.068604 142.701218 -858.655457
v 354.643616 96.4375763 -861.98468
v 322.201599 202.216721 -850.985291
v 330.353638 160.770721 -850.404724
v 332.154541 117.657196 -852.103333
v 327.482361 72.0702515 -855.268494
v 288.304382 215.351501 -845.20343
v 296.508606 176.11087 -842.91803
v 299.092163 136.022827 -843.008118
v 296.693115 94.3803711 -844.646545
v 289.110413 50.2825737 -846.498596
v 245.531189 227.278976 -841.153625
v 252.66272 189.980759 -836.338562
v 254.954468 151.935959 -833.859436
v 253.476318 113.212494 -833.390198
v 248.816406 72.7709045 -833.791321
v 241.138611 30.3418198 -833.5047
v -26.8236694 105.36412 -782.577698
v 1.61322021 137.663483 -794.160461
v -35.2564697 155.438522 -805.589783
v 33.7020264 166.553101 -805.819885
v -5.62005615 189.781006 -816.99176
v -43.5567017 202.484741 -826.004333
v 70.5193481 191.877457 -817.236633
v 27.7321167 217.507858 -827.266174
v -12.6660767 235.175446 -835.660706
v -52.7821045 243.241211 -840.713562
v 111.250305 213.994278 -827.41095
v 65.4730225 239.887543 -836.157776
v 21.7950439 259.565125 -843.968445
v -20.6549683 272.296783 -848.564514
v -62.6227417 275.828674 -849.843445
v 154.030701 232.782593 -835.472229
v 106.848145 258.308655 -843.083069
v 60.4883423 278.213531 -850.623962
v 15.098938 292.686523 -855.354309
v -29.1262817 300.477783 -856.718323
v -71.6091309 298.740662 -855.458557
v 195.548096 248.604736 -841.969421
v 150.206787 273.344238 -848.148865
v 103.021973 293.048706 -855.286682
v 55.3029175 307.726257 -860.479797
v 8.24505615 317.091492 -862.649719
v -36.6500244 319.399658 -862.040222
v -77.7391968 311.911743 -859.715759
v 0.720214844 77.3171844 -770.206116
v 32.1624146 53.7003822 -766.480042
v 35.1566162 110.217041 -784.157654
v 67.4689331 35.8840675 -771.704163
v 71.4710693 88.7260895 -783.475891
v 72.6196899 139.514877 -798.444763
v 105.969971 22.2624207 -783.309998
v 110.667969 72.6440125 -790.755676
v 112.97937 119.364151 -800.259705
v 113.852173 165.65979 -812.297058
v 146.823486 10.4615707 -798.834778
v 152.473389 59.0500908 -803.190857
v 155.715088 103.429184 -808.373474
v 157.934753 145.770721 -815.082581
v 158.264587 188.57341 -824.022034
v 189.100037 -1.28980064 -815.809631
v 196.336304 45.3593559 -818.17572
v 201.225098 88.6310883 -820.198914
v 204.390808 129.092621 -822.578674
v 205.590271 168.623001 -826.738708
v 203.422607 208.762833 -833.244446
v -38.0686035 52.8221245 -762.039124
v -49.1564941 1.21456718 -744.898254
v -8.29968262 23.0363617 -752.257629
v -58.8338013 -46.7821655 -734.562927
v -16.4547729 -26.3830414 -740.734558
v 25.0875854 0.683929443 -754.033997
v -65.4135132 -89.3632507 -732.164124
v -22.928833 -70.4024506 -736.457703
v 19.3562622 -45.9384079 -748.078674
v 61.8056641 -15.400631 -764.18512
v -67.4103394 -125.799606 -736.999939
v -26.4630127 -108.839188 -739.316101
v 15.8569336 -86.7858429 -748.937317
v 58.7622681 -59.8340912 -762.996399
v 101.910095 -27.4263344 -780.087952
v -63.2368164 -156.208252 -748.704651
v -25.3080444 -142.237839 -749.002991
v 15.9825439 -122.829056 -756.36322
v 59.1019287 -98.5756683 -768.153381
v 102.5896 -70.3212585 -782.967834
v 145.71698 -37.7376175 -799.315247
v -58.444458 102.204803 -786.791077
v -88.030304 97.5983582 -794.639832
v -73.0332642 43.670002 -765.216248
v -115.668762 90.5225525 -804.93988
v -103.879425 34.3600006 -774.261902
v -86.3977051 -11.7467651 -748.33136
v -141.034058 80.0453796 -816.32489
v -130.936127 24.1250572 -787.09906
v -117.29599 -23.8070107 -759.242004
v -96.6639099 -61.8205185 -739.268372
v -163.579895 65.6653748 -827.990295
v -154.574738 12.4335442 -801.838806
v -142.983948 -35.6330109 -774.86676
v -126.24353 -75.2806854 -752.126404
v -101.840424 -105.078293 -738.653992
v -182.46228 48.4383049 -839.93512
v -174.580231 -0.696643829 -818.123962
v -164.13504 -47.2761993 -793.760925
v -149.293243 -87.5496979 -771.091492
v -128.397705 -118.965439 -754.137878
v -100.308411 -141.519241 -746.19635
v -68.1878662 156.04184 -812.508484
v -78.2694092 203.104248 -831.608093
v -98.0769653 152.916306 -820.73407
v -89.1963196 241.341156 -843.124084
v -109.036804 197.91748 -837.203674
v -125.866791 144.753571 -829.297668
v -99.7868652 269.566467 -849.383362
v -120.367035 231.853806 -845.651917
v -137.040253 185.715195 -843.020447
v -151.314697 130.512634 -838.057068
v -107.739502 287.300781 -853.785583
v -130.033936 254.61087 -849.900818
v -147.741211 214.185226 -849.405457
v -162.157562 165.940887 -849.553162
v -173.815735 110.2052 -846.911316
g 
f 3 1 2
f 5 2 4
f 6 3 5
f 8 4 7
f 9 5 8
f 10 6 9
f 12 7 11
f 13 8 12
f 14 9 13
f 15 10 14
f 17 11 16
f 18 12 17
f 19 13 18
f 20 14 19
f 21 15 20
f 23 16 22
f 24 17 23
f 25 18 24
f 26 19 25
f 27 20 26
f 28 21 27
f 30 22 29
f 31 23 30
f 32 24 31
f 33 25 32
f 34 26 33
f 35 27 34
f 36 28 35
f 3 2 5
f 5 4 8
f 6 5 9
f 8 7 12
f 9 8 13
f 10 9 14
f 12 11 17
f 13 12 18
f 14 13 19
f 15 14 20
f 17 16 23
f 18 17 24
f 19 18 25
f 20 19 26
f 21 20 27
f 23 22 30
f 24 23 31
f 25 24 32
f 26 25 33
f 27 26 34
f 28 27 35
f 37 1 3
f 38 3 6
f 39 37 38
f 40 6 10
f 41 38 40
f 42 39 41
f 43 10 15
f 44 40 43
f 45 41 44
f 46 42 45
f 47 15 21
f 48 43 47
f 49 44 48
f 50 45 49
f 51 46 50
f 52 21 28
f 53 47 52
f 54 48 53
f 55 49 54
f 56 50 55
f 57 51 56
f 58 28 36
f 59 52 58
f 60 53 59
f 61 54 60
f 62 55 61
f 63 56 62
f 64 57 63
f 37 3 38
f 38 6 40
f 39 38 41
f 40 10 43
f 41 40 44
f 42 41 45
f 43 15 47
f 44 43 48
f 45 44 49
f 46 45 50
f 47 21 52
f 48 47 53
f 49 48 54
f 50 49 55
f 51 50 56
f 52 28 58
f 53 52 59
f 54 53 60
f 55 54 61
f 56 55 62
f 57 56 63
f 65 1 37
f 66 37 39
f 67 65 66
f 68 39 42
f 69 66 68
f 70 67 69
f 71 42 46
f 72 68 71
f 73 69 72
f 74 70 73
f 75 46 51
f 76 71 75
f 77 72 76
f 78 73 77
f 79 74 78
f 80 51 57
f 81 75 80
f 82 76 81
f 83 77 82
f 84 78 83
f 85 79 84
f 86 57 64
f 87 80 86
f 88 81 87
f 89 82 88
f 90 83 89
f 91 84 90
f 92 85 91
f 65 37 66
f 66 39 68
f 67 66 69
f 68 42 71
f 69 68 72
f 70 69 73
f 71 46 75
f 72 71 76
f 73 72 77
f 74 73 78
f 75 51 80
f 76 75 81
f 77 76 82
f 78 77 83
f 79 78 84
f 80 57 86
f 81 80 87
f 82 81 88
f 83 82 89
f 84 83 90
f 85 84 91
f 93 1 65
f 94 65 67
f 95 93 94
f 96 67 70
f 97 94 96
f 98 95 97
f 99 70 74
f 100 96 99
f 101 97 100
f 102 98 101
f 103 74 79
f 104 99 103
f 105 100 104
f 106 101 105
f 107 102 106
f 108 79 85
f 109 103 108
f 110 104 109
f 111 105 110
f 112 106 111
f 113 107 112
f 114 85 92
f 115 108 114
f 116 109 115
f 117 110 116
f 118 111 117
f 119 112 118
f 120 113 119
f 93 65 94
f 94 67 96
f 95 94 97
f 96 70 99
f 97 96 100
f 98 97 101
f 99 74 103
f 100 99 104
f 101 100 105
f 102 101 106
f 103 79 108
f 104 103 109
f 105 104 110
f 106 105 111
f 107 106 112
f 108 85 114
f 109 108 115
f 110 109 116
f 111 110 117
f 112 111 118
f 113 112 119
f 2 1 93
f 121 93 95
f 4 2 121
f 122 95 98
f 123 121 122
f 7 4 123
f 124 98 102
f 125 122 124
f 126 123 125
f 11 7 126
f 127 102 107
f 128 124 127
f 129 125 128
f 130 126 129
f 16 11 130
f 131 107 113
f 132 127 131
f 133 128 132
f 134 129 133
f 135 130 134
f 22 16 135
f 136 113 120
f 137 131 136
f 138 132 137
f 139 133 138
f 140 134 139
f 141 135 140
f 29 22 141
f 2 93 121
f 121 95 122
f 4 121 123
f 122 98 124
f 123 122 125
f 7 123 126
f 124 102 127
f 125 124 128
f 126 125 129
f 11 126 130
f 127 107 131
f 128 127 132
f 129 128 133
f 130 129 134
f 16 130 135
f 131 113 136
f 132 131 137
f 133 132 138
f 134 133 139
f 135 134 140
f 22 135 141
f 142 29 141
f 143 141 140
f 144 142 143
f 145 140 139
f 146 143 145
f 147 144 146
f 148 139 138
f 149 145 148
f 150 146 149
f 151 147 150
f 152 138 137
f 153 148 152
f 154 149 153
f 155 150 154
f 156 151 155
f 157 137 136
f 158 152 157
f 159 153 158
f 160 154 159
f 161 155 160
f 162 156 161
f 163 136 120
f 164 157 163
f 165 158 164
f 166 159 165
f 167 160 166
f 168 161 167
f 169 162 168
f 142 141 143
f 143 140 145
f 144 143 146
f 145 139 148
f 146 145 149
f 147 146 150
f 148 138 152
f 149 148 153
f 150 149 154
f 151 150 155
f 152 137 157
f 153 152 158
f 154 153 159
f 155 154 160
f 156 155 161
f 157 136 163
f 158 157 164
f 159 158 165
f 160 159 166
f 161 160 167
f 162 161 168
f 170 120 119
f 171 119 118
f 172 170 171
f 173 118 117
f 174 171 173
f 175 172 174
f 176 117 116
f 177 173 176
f 178 174 177
f 179 175 178
f 180 116 115
f 181 176 180
f 182 177 181
f 183 178 182
f 184 179 183
f 185 115 114
f 186 180 185
f 187 181 186
f 188 182 187
f 189 183 188
f 190 184 189
f 191 114 92
f 192 185 191
f 193 186 192
f 194 187 193
f 195 188 194
f 196 189 195
f 197 190 196
f 170 119 171
f 171 118 173
f 172 171 174
f 173 117 176
f 174 173 177
f 175 174 178
f 176 116 180
f 177 176 181
f 178 177 182
f 179 178 183
f 180 115 185
f 181 180 186
f 182 181 187
f 183 182 188
f 184 183 189
f 185 114 191
f 186 185 192
f 187 186 193
f 188 187 194
f 189 188 195
f 190 189 196
f 198 92 91
f 199 91 90
f 200 198 199
f 201 90 89
f 202 199 201
f 203 200 202
f 204 89 88
f 205 201 204
f 206 202 205
f 207 203 206
f 208 88 87
f 209 204 208
f 210 205 209
f 211 206 210
f 212 207 211
f 213 87 86
f 214 208 213
f 215 209 214
f 216 210 215
f 217 211 216
f 218 212 217
f 219 86 64
f 220 213 219
f 221 214 220
f 222 215 221
f 223 216 222
f 224 217 223
f 225 218 224
f 198 91 199
f 199 90 201
f 200 199 202
f 201 89 204
f 202 201 205
f 203 202 206
f 204 88 208
f 205 204 209
f 206 205 210
f 207 206 211
f 208 87 213
f 209 208 214
f 210 209 215
f 211 210 216
f 212 211 217
f 213 86 219
f 214 213 220
f 215 214 221
f 216 215 222
f 217 216 223
f 218 217 224
f 226 64 63
f 227 63 62
f 228 226 227
f 229 62 61
f 230 227 229
f 231 228 230
f 232 61 60
f 233 229 232
f 234 230 233
f 235 231 234
f 236 60 59
f 237 232 236
f 238 233 237
f 239 234 238
f 240 235 239
f 241 59 58
f 242 236 241
f 243 237 242
f 244 238 243
f 245 239 244
f 246 240 245
f 247 58 36
f 248 241 247
f 249 242 248
f 250 243 249
f 251 244 250
f 252 245 251
f 253 246 252
f 226 63 227
f 227 62 229
f 228 227 230
f 229 61 232
f 230 229 233
f 231 230 234
f 232 60 236
f 233 232 237
f 234 233 238
f 235 234 239
f 236 59 241
f 237 236 242
f 238 237 243
f 239 238 244
f 240 239 245
f 241 58 247
f 242 241 248
f 243 242 249
f 244 243 250
f 245 244 251
f 246 245 252
f 254 36 35
f 255 35 34
f 256 254 255
f 257 34 33
f 258 255 257
f 259 256 258
f 260 33 32
f 261 257 260
f 262 258 261
f 263 259 262
f 264 32 31
f 265 260 264
f 266 261 265
f 267 262 266
f 268 263 267
f 269 31 30
f 270 264 269
f 271 265 270
f 272 266 271
f 273 267 272
f 274 268 273
f 275 30 29
f 276 269 275
f 277 270 276
f 278 271 277
f 279 272 278
f 280 273 279
f 281 274 280
f 254 35 255
f 255 34 257
f 256 255 258
f 257 33 260
f 258 257 261
f 259 258 262
f 260 32 264
f 261 260 265
f 262 261 266
f 263 262 267
f 264 31 269
f 265 264 270
f 266 265 271
f 267 266 272
f 268 267 273
f 269 30 275
f 270 269 276
f 271 270 277
f 272 271 278
f 273 272 279
f 274 273 280
f 275 29 142
f 282 142 144
f 276 275 282
f 283 144 147
f 284 282 283
f 277 276 284
f 285 147 151
f 286 283 285
f 287 284 286
f 278 277 287
f 288 151 156
f 289 285 288
f 290 286 289
f 291 287 290
f 279 278 291
f 292 156 162
f 293 288 292
f 294 289 293
f 295 290 294
f 296 291 295
f 280 279 296
f 297 162 169
f 298 292 297
f 299 293 298
f 300 294 299
f 301 295 300
f 302 296 301
f 281 280 302
f 275 142 282
f 282 144 283
f 276 282 284
f 283 147 285
f 284 283 286
f 277 284 287
f 285 151 288
f 286 285 289
f 287 286 290
f 278 287 291
f 288 156 292
f 289 288 293
f 290 289 294
f 291 290 295
f 279 291 296
f 292 162 297
f 293 292 298
f 294 293 299
f 295 294 300
f 296 295 301
f 280 296 302
f 163 120 170
f 303 170 172
f 164 163 303
f 304 172 175
f 305 303 304
f 165 164 305
f 306 175 179
f 307 304 306
f 308 305 307
f 166 165 308
f 309 179 184
f 310 306 309
f 311 307 310
f 312 308 311
f 167 166 312
f 313 184 190
f 314 309 313
f 315 310 314
f 316 311 315
f 317 312 316
f 168 167 317
f 318 190 197
f 319 313 318
f 320 314 319
f 321 315 320
f 322 316 321
f 323 317 322
f 169 168 323
f 163 170 303
f 303 172 304
f 164 303 305
f 304 175 306
f 305 304 307
f 165 305 308
f 306 179 309
f 307 306 310
f 308 307 311
f 166 308 312
f 309 184 313
f 310 309 314
f 311 310 315
f 312 311 316
f 167 312 317
f 313 190 318
f 314 313 319
f 315 314 320
f 316 315 321
f 317 316 322
f 168 317 323
f 191 92 198
f 324 198 200
f 192 191 324
f 325 200 203
f 326 324 325
f 193 192 326
f 327 203 207
f 328 325 327
f 329 326 328
f 194 193 329
f 330 207 212
f 331 327 330
f 332 328 331
f 333 329 332
f 195 194 333
f 334 212 218
f 335 330 334
f 336 331 335
f 337 332 336
f 338 333 337
f 196 195 338
f 339 218 225
f 340 334 339
f 341 335 340
f 342 336 341
f 343 337 342
f 344 338 343
f 197 196 344
f 191 198 324
f 324 200 325
f 192 324 326
f 325 203 327
f 326 325 328
f 193 326 329
f 327 207 330
f 328 327 331
f 329 328 332
f 194 329 333
f 330 212 334
f 331 330 335
f 332 331 336
f 333 332 337
f 195 333 338
f 334 218 339
f 335 334 340
f 336 335 341
f 337 336 342
f 338 337 343
f 196 338 344
f 219 64 226
f 345 226 228
f 220 219 345
f 346 228 231
f 347 345 346
f 221 220 347
f 348 231 235
f 349 346 348
f 350 347 349
f 222 221 350
f 351 235 240
f 352 348 351
f 353 349 352
f 354 350 353
f 223 222 354
f 355 240 246
f 356 351 355
f 357 352 356
f 358 353 357
f 359 354 358
f 224 223 359
f 360 246 253
f 361 355 360
f 362 356 361
f 363 357 362
f 364 358 363
f 365 359 364
f 225 224 365
f 219 226 345
f 345 228 346
f 220 345 347
f 346 231 348
f 347 346 349
f 221 347 350
f 348 235 351
f 349 348 352
f 350 349 353
f 222 350 354
f 351 240 355
f 352 351 356
f 353 352 357
f 354 353 358
f 223 354 359
f 355 246 360
f 356 355 361
f 357 356 362
f 358 357 363
f 359 358 364
f 224 359 365
f 247 36 254
f 366 254 256
f 248 247 366
f 367 256 259
f 368 366 367
f 249 248 368
f 369 259 263
f 370 367 369
f 371 368 370
f 250 249 371
f 372 263 268
f 373 369 372
f 374 370 373
f 375 371 374
f 251 250 375
f 376 268 274
f 377 372 376
f 378 373 377
f 379 374 378
f 380 375 379
f 252 251 380
f 381 274 281
f 382 376 381
f 383 377 382
f 384 378 383
f 385 379 384
f 386 380 385
f 253 252 386
f 247 254 366
f 366 256 367
f 248 366 368
f 367 259 369
f 368 367 370
f 249 368 371
f 369 263 372
f 370 369 373
f 371 370 374
f 250 371 375
f 372 268 376
f 373 372 377
f 374 373 378
f 375 374 379
f 251 375 380
f 376 274 381
f 377 376 382
f 378 377 383
f 379 378 384
f 380 379 385
f 252 380 386
f 389 387 388
f 391 388 390
f 392 389 391
f 394 390 393
f 395 391 394
f 396 392 395
f 398 393 397
f 399 394 398
f 400 395 399
f 401 396 400
f 403 397 402
f 404 398 403
f 405 399 404
f 406 400 405
f 407 401 406
f 409 402 408
f 410 403 409
f 411 404 410
f 412 405 411
f 413 406 412
f 414 407 413
f 302 408 281
f 301 409 302
f 300 410 301
f 299 411 300
f 298 412 299
f 297 413 298
f 169 414 297
f 389 388 391
f 391 390 394
f 392 391 395
f 394 393 398
f 395 394 399
f 396 395 400
f 398 397 403
f 399 398 404
f 400 399 405
f 401 400 406
f 403 402 409
f 404 403 410
f 405 404 411
f 406 405 412
f 407 406 413
f 409 408 302
f 410 409 301
f 411 410 300
f 412 411 299
f 413 412 298
f 414 413 297
f 388 387 415
f 417 415 416
f 390 388 417
f 419 416 418
f 420 417 419
f 393 390 420
f 422 418 421
f 423 419 422
f 424 420 423
f 397 393 424
f 426 421 425
f 427 422 426
f 428 423 427
f 429 424 428
f 402 397 429
f 431 425 430
f 432 426 431
f 433 427 432
f 434 428 433
f 435 429 434
f 408 402 435
f 386 430 253
f 385 431 386
f 384 432 385
f 383 433 384
f 382 434 383
f 381 435 382
f 281 408 381
f 388 415 417
f 417 416 419
f 390 417 420
f 419 418 422
f 420 419 423
f 393 420 424
f 422 421 426
f 423 422 427
f 424 423 428
f 397 424 429
f 426 425 431
f 427 426 432
f 428 427 433
f 429 428 434
f 402 429 435
f 431 430 386
f 432 431 385
f 433 432 384
f 434 433 383
f 435 434 382
f 408 435 381
f 415 387 436
f 438 436 437
f 416 415 438
f 440 437 439
f 441 438 440
f 418 416 441
f 443 439 442
f 444 440 443
f 445 441 444
f 421 418 445
f 447 442 446
f 448 443 447
f 449 444 448
f 450 445 449
f 425 421 450
f 452 446 451
f 453 447 452
f 454 448 453
f 455 449 454
f 456 450 455
f 430 425 456
f 365 451 225
f 364 452 365
f 363 453 364
f 362 454 363
f 361 455 362
f 360 456 361
f 253 430 360
f 415 436 438
f 438 437 440
f 416 438 441
f 440 439 443
f 441 440 444
f 418 441 445
f 443 442 447
f 444 443 448
f 445 444 449
f 421 445 450
f 447 446 452
f 448 447 453
f 449 448 454
f 450 449 455
f 425 450 456
f 452 451 365
f 453 452 364
f 454 453 363
f 455 454 362
f 456 455 361
f 430 456 360
f 436 387 457
f 459 457 458
f 437 436 459
f 461 458 460
f 462 459 461
f 439 437 462
f 464 460 463
f 465 461 464
f 466 462 465
f 442 439 466
f 468 463 467
f 469 464 468
f 470 465 469
f 471 466 470
f 446 442 471
f 473 467 472
f 474 468 473
f 475 469 474
f 476 470 475
f 477 471 476
f 451 446 477
f 344 472 197
f 343 473 344
f 342 474 343
f 341 475 342
f 340 476 341
f 339 477 340
f 225 451 339
f 436 457 459
f 459 458 461
f 437 459 462
f 461 460 464
f 462 461 465
f 439 462 466
f 464 463 468
f 465 464 469
f 466 465 470
f 442 466 471
f 468 467 473
f 469 468 474
f 470 469 475
f 471 470 476
f 446 471 477
f 473 472 344
f 474 473 343
f 475 474 342
f 476 475 341
f 477 476 340
f 451 477 339
f 457 387 389
f 478 389 392
f 458 457 478
f 479 392 396
f 480 478 479
f 460 458 480
f 481 396 401
f 482 479 481
f 483 480 482
f 463 460 483
f 484 401 407
f 485 481 484
f 486 482 485
f 487 483 486
f 467 463 487
f 488 407 414
f 489 484 488
f 490 485 489
f 491 486 490
f 492 487 491
f 472 467 492
f 323 414 169
f 322 488 323
f 321 489 322
f 320 490 321
f 319 491 320
f 318 492 319
f 197 472 318
f 457 389 478
f 478 392 479
f 458 478 480
f 479 396 481
f 480 479 482
f 460 480 483
f 481 401 484
f 482 481 485
f 483 482 486
f 463 483 487
f 484 407 488
f 485 484 489
f 486 485 490
f 487 486 491
f 467 487 492
f 488 414 323
f 489 488 322
f 490 489 321
f 491 490 320
f 492 491 319
f 472 492 318
