# File exported by Houdini 20.5.445 (www.sidefx.com)
# 492 points
# 2940 vertices
# 980 primitives
# Bounds: [-136.456909, -213.058929, -1074.98645] to [307.230835, 329.436035, -679.814575]
g 
v 119.644836 42.8344994 -1024.43164
v 143.026123 85.2902374 -1042.19385
v 151.830444 59.1638832 -1026.48633
v 164.835449 126.383896 -1056.61804
v 178.906555 104.76059 -1045.56848
v 183.137085 76.1124573 -1028.5105
v 181.86731 166.582825 -1067.08789
v 200.863403 147.593903 -1060.61963
v 211.084229 124.001831 -1048.78735
v 212.784058 92.9864349 -1031.80176
v 192.390076 205.904526 -1072.68481
v 215.687134 188.679977 -1070.9032
v 231.246826 167.896805 -1063.92029
v 239.594055 142.069443 -1052.45972
v 239.890015 108.917557 -1036.24487
v 196.326538 243.339584 -1072.23389
v 223.195068 228.016998 -1074.98645
v 243.276917 208.922211 -1072.76257
v 257.194763 185.846512 -1066.19287
v 264.340698 157.634872 -1055.46057
v 263.55719 122.949402 -1040.21362
v 194.459595 276.702332 -1064.83679
v 224.223145 264.255249 -1071.08777
v 248.086792 246.831589 -1073.17053
v 266.589661 225.324707 -1071.19287
v 279.195068 199.582016 -1065.19788
v 284.934082 169.217499 -1055.19519
v 282.894592 134.078812 -1041.00366
v 188.108887 303.528076 -1050.37671
v 219.207275 294.910553 -1057.64648
v 246.083008 279.975342 -1062.27576
v 268.347778 259.8797 -1063.90967
v 285.325317 235.398087 -1062.18628
v 296.12738 207.057053 -1056.88623
v 299.948547 175.395874 -1048.03479
v 296.529175 141.290314 -1035.75293
v 116.879028 9.51485825 -1005.45947
v 149.030701 26.0482635 -1006.14636
v 115.728394 -22.7471924 -984.58313
v 179.56134 42.4279938 -1008.10681
v 147.200928 -5.3187027 -985.077881
v 116.985779 -52.6228409 -962.96521
v 208.386108 58.3752937 -1012.19568
v 176.43988 11.1067505 -987.784058
v 147.00116 -34.3615837 -963.793945
v 119.672546 -79.2679443 -941.172119
v 235.088989 73.8373108 -1017.72839
v 204.145447 27.0794754 -992.80896
v 174.636475 -17.4747734 -967.152588
v 147.700134 -60.3746033 -942.36792
v 122.701599 -102.027496 -919.183838
v 258.97821 88.621109 -1022.57922
v 230.31488 43.3430824 -998.995117
v 201.1073 -0.613302231 -972.601807
v 173.709656 -42.7582703 -945.797485
v 148.54187 -82.7861633 -920.456909
v 125.408081 -120.40892 -897.064575
v 278.752686 101.710022 -1023.3667
v 254.106079 59.8373909 -1003.74878
v 226.534851 17.2627068 -978.546753
v 199.143188 -24.5348969 -950.685059
v 173.250793 -64.2803726 -923.1698
v 149.525146 -101.023956 -897.796631
v 128.256287 -133.968231 -875.177124
v 86.651123 5.99517441 -1010.22437
v 85.0961914 -32.8048706 -988.444458
v 57.0997925 -31.2064362 -994.406494
v 86.9689941 -66.9354401 -965.883911
v 59.0518799 -72.4619446 -971.165405
v 31.7121582 -67.3670044 -976.624634
v 91.4160156 -96.1318665 -943.105591
v 64.5254517 -106.070221 -947.597168
v 37.6939697 -108.349258 -952.245972
v 10.751709 -100.238831 -955.838867
v 96.9277954 -120.65625 -919.712158
v 72.0473633 -133.369659 -923.183228
v 46.4949341 -140.054794 -926.62439
v 20.2276611 -139.140411 -928.912476
v -5.80059814 -127.723419 -930.440063
v 102.172607 -140.592926 -895.270142
v 79.906189 -155.462662 -896.963379
v 56.8279419 -165.117218 -898.954224
v 32.4059448 -168.596222 -899.977661
v 7.37921143 -163.959671 -900.537354
v -17.277832 -148.742477 -901.74707
v 107.494385 -155.662476 -869.544556
v 88.2738037 -172.787323 -867.859009
v 68.7113037 -185.064392 -867.71521
v 47.395813 -191.655029 -867.596069
v 24.2749023 -191.098984 -867.817627
v 0.252380371 -181.748901 -869.538208
v -23.7681885 -162.806213 -873.16394
v 100.720337 54.5995674 -1032.01123
v 63.8042603 17.4594765 -1016.56909
v 79.848877 67.3391113 -1035.3407
v 32.1295776 -19.0228996 -999.098145
v 39.954895 29.7635117 -1017.9635
v 55.8459473 78.5810547 -1033.86853
v 6.01654053 -53.7790527 -979.045288
v 6.94232178 -6.04093933 -998.497559
v 13.8563232 41.0212898 -1014.56311
v 29.1001587 88.4876862 -1028.05591
v -14.8731079 -84.542984 -955.100098
v -19.5579224 -38.8166962 -975.551758
v -20.2124634 6.85991478 -992.706787
v -14.0872192 52.2788124 -1006.96204
v 0.759216309 98.434082 -1018.58044
v -31.2224121 -109.77301 -926.161499
v -40.6028442 -67.0854492 -947.901123
v -47.4708252 -23.3566399 -966.450195
v -49.1448364 20.8103142 -982.419678
v -42.6467285 65.1492462 -995.66626
v -27.4799194 109.535889 -1005.8241
v -42.9068604 -129.440262 -894.687866
v -57.9381714 -90.7842255 -915.950195
v -69.916687 -49.5853577 -935.456421
v -77.9360352 -6.7047348 -953.14502
v -78.7532959 36.980854 -968.685791
v -70.4224854 80.0732422 -981.262451
v -54.2332153 121.194794 -990.196533
v 123.432983 100.117874 -1048.64258
v 101.060547 113.30249 -1049.55847
v 142.816345 141.815857 -1060.36133
v 75.3370361 123.908844 -1045.33716
v 117.965454 154.220383 -1058.19495
v 156.584106 181.442383 -1067.18323
v 46.5253296 133.113327 -1036.74597
v 89.7948608 164.154984 -1050.85229
v 128.766418 193.06546 -1061.48584
v 163.795471 219.97052 -1068.58765
v 15.3378906 142.57756 -1024.05872
v 57.9094238 173.208038 -1038.77454
v 97.2374878 202.716019 -1050.28442
v 132.447937 231.066589 -1058.64172
v 164.365479 256.702637 -1063.55615
v -16.9942017 152.721069 -1006.77124
v 22.4084473 182.577652 -1021.27368
v 60.8551025 211.868851 -1033.10461
v 96.4616089 240.687759 -1042.1001
v 128.976257 267.492859 -1048.1947
v 159.266846 289.455963 -1051.06702
v 160.555115 316.585205 -1032.08228
v 126.558228 299.228088 -1031.54651
v 130.29425 321.146545 -1010.21155
v 92.7057495 274.393555 -1027.2843
v 92.8787842 300.048553 -1008.66663
v 99.2700195 316.625031 -985.047363
v 57.9456787 245.893356 -1020.16272
v 56.9729614 272.752625 -1003.10779
v 60.6985474 292.263275 -982.202026
v 68.543396 303.268188 -956.666382
v 21.2990112 216.087158 -1010.18018
v 21.1530151 242.97142 -994.39209
v 24.262146 263.265381 -974.635986
v 30.407959 276.993774 -951.94873
v 38.9576416 283.240173 -925.988281
v -17.3969727 185.199615 -997.327515
v -16.3093262 211.84201 -982.827393
v -12.3742065 232.192307 -963.731689
v -6.296875 246.878708 -941.920654
v 1.77893066 256.15741 -918.759033
v 11.9569702 259.374084 -894.195435
v -56.7130737 151.66272 -981.804321
v -56.1152954 178.053619 -968.618896
v -51.7857056 198.626877 -950.358398
v -44.6828613 213.88414 -928.875732
v -35.4205933 224.882843 -906.377563
v -24.1289673 231.771881 -884.382935
v -11.1794434 233.902649 -863.042358
v -87.9749146 107.885803 -967.318359
v -101.632172 62.0398979 -955.255005
v -113.683289 93.8948975 -941.910278
v -104.541077 15.8112755 -939.802246
v -121.930634 44.979908 -927.881348
v -129.977264 79.5786743 -914.27356
v -97.9904175 -29.2653046 -922.064209
v -118.971344 -2.67843056 -910.678467
v -131.907867 29.5694466 -898.891968
v -136.456909 65.7069702 -884.254639
v -84.6456299 -72.2141571 -902.796509
v -107.325745 -47.9846725 -891.522339
v -123.769958 -18.0529175 -880.454224
v -133.141113 16.2106133 -867.71167
v -135.175903 52.4988441 -852.072266
v -65.9860229 -113.198792 -882.115723
v -88.250885 -91.1065826 -871.165894
v -107.306152 -63.2622986 -860.241455
v -120.953674 -30.6222038 -848.223389
v -128.443665 4.5333252 -834.209961
v -129.254364 39.6967735 -818.826538
v -42.5112915 -150.909775 -860.045288
v -62.9113159 -131.863678 -848.771118
v -83.5218506 -106.3293 -837.631714
v -101.570007 -75.4094009 -825.455933
v -114.627411 -41.1205673 -812.112915
v -121.569519 -6.22954178 -798.289429
v -122.110779 26.8285599 -785.508301
v -11.9467163 -183.033615 -843.402832
v 15.8464966 -200.852554 -837.631348
v 0.271972656 -193.637634 -814.830322
v 40.9289551 -207.659775 -835.098389
v 29.8389893 -208.955688 -808.419067
v 8.77374268 -194.472244 -787.310303
v 62.8292847 -205.390121 -834.969238
v 54.6109009 -213.058929 -805.907715
v 38.5953369 -207.203537 -781.408447
v 11.4578247 -186.848267 -760.990845
v 81.8452148 -195.85936 -836.478027
v 75.4372559 -208.167023 -806.426636
v 62.920105 -208.877914 -779.688843
v 41.0258789 -197.164948 -756.758057
v 8.97967529 -172.992737 -737.039307
v 99.746521 -179.915146 -839.935791
v 93.8684082 -195.560257 -810.065918
v 83.8134155 -201.198593 -781.854858
v 65.6617432 -196.023499 -756.892822
v 38.489624 -180.121368 -735.723145
v 4.59387207 -154.62973 -717.827026
v 119.659241 -157.29689 -847.812866
v 113.091125 -174.452621 -818.862793
v 104.161133 -183.596634 -789.835083
v 88.5992432 -183.49884 -762.986938
v 64.8670654 -174.088501 -739.895142
v 34.6417847 -156.565521 -720.907593
v 2.26904297 -133.091232 -705.34436
v 144.528381 -123.308197 -868.951538
v 169.487671 -85.9200134 -896.801392
v 161.516418 -106.962311 -866.593506
v 195.672119 -46.0853424 -926.313232
v 189.161133 -66.2137909 -899.105103
v 177.794678 -85.8254089 -866.94873
v 222.587708 -4.58000565 -956.073853
v 216.495911 -24.7232895 -931.095703
v 207.027832 -43.626091 -902.04541
v 191.480774 -61.9832153 -868.109985
v 249.650513 37.807621 -983.738525
v 243.134216 17.2272377 -960.6521
v 234.327942 -2.14767456 -933.856689
v 221.287781 -20.3013153 -902.722778
v 201.501526 -37.7281342 -867.552002
v 275.350647 80.2646484 -1005.87561
v 268.373474 59.4794426 -984.83728
v 259.467529 39.1172523 -960.028442
v 247.375427 20.019558 -930.873413
v 230.590942 2.14946938 -897.975952
v 207.685059 -14.8092804 -862.705322
v 296.041382 121.953751 -1019.72852
v 290.596436 101.633743 -1000.05444
v 281.608704 80.7753448 -976.680664
v 269.92157 60.2022591 -949.411621
v 254.776062 40.7111473 -918.41272
v 235.4198 22.4575996 -885.40564
v 211.102966 5.74309349 -852.455688
v 306.640625 164.717148 -1029.73206
v 305.724487 200.904175 -1038.22668
v 307.230835 182.196167 -1012.42859
v 297.084717 233.301956 -1043.0752
v 301.134338 219.136337 -1017.02966
v 298.679199 194.806671 -985.693848
v 281.796692 261.804993 -1044.76025
v 288.078979 251.698166 -1018.78345
v 288.049255 231.830872 -987.605835
v 282.565674 203.499512 -952.68457
v 260.411987 286.149078 -1043.68396
v 268.87207 280.090149 -1018.28137
v 271.080444 264.164062 -987.625244
v 267.885376 240.034164 -953.336182
v 260.832214 209.369217 -917.224854
v 233.086548 305.546295 -1040.23303
v 242.964233 303.99292 -1015.9646
v 247.409607 292.090912 -986.203369
v 246.421753 271.563416 -952.696167
v 241.455139 244.589584 -917.474731
v 234.795776 213.392166 -883.026855
v 199.588745 318.223877 -1034.48499
v 209.030457 322.002594 -1012.02234
v 214.922241 314.750153 -983.604492
v 216.102539 297.938782 -950.913696
v 213.532104 274.250427 -916.528198
v 209.033325 246.210281 -883.110596
v 204.445007 216.044662 -853.271851
v 170.056641 329.082672 -1010.56531
v 138.773499 329.436035 -984.340454
v 176.918457 328.251495 -982.94751
v 106.565491 319.519104 -955.838379
v 143.280151 323.344452 -953.021118
v 179.829651 315.787323 -950.446289
v 74.411438 301.013123 -925.399902
v 109.118713 309.000549 -922.402588
v 143.96637 306.957977 -918.392334
v 179.118958 294.929779 -915.442871
v 43.6125488 276.359741 -893.586914
v 75.4638062 286.71225 -890.88269
v 108.273438 289.14389 -886.662109
v 142.154785 282.638916 -882.290771
v 176.264954 267.667603 -880.130249
v 15.723938 247.59642 -860.671509
v 43.8216553 257.540588 -857.86853
v 73.8981934 262.44928 -854.030884
v 106.0979 260.557312 -849.52832
v 139.69696 251.175827 -846.200195
v 173.113892 235.542465 -846.677002
v -90.9541016 139.077423 -955.076294
v -115.005859 125.210266 -926.605957
v -88.274231 163.166855 -937.69458
v -128.192993 110.845688 -896.25415
v -108.859222 147.783386 -906.092285
v -80.6326294 180.742294 -916.145752
v -131.576843 96.412262 -864.00708
v -118.44046 132.608658 -873.459961
v -97.3270874 163.985016 -882.368896
v -69.4852905 193.750153 -892.697754
v -128.053253 81.4828339 -829.977051
v -119.019073 117.150864 -839.445557
v -103.401703 147.883331 -848.075195
v -82.0495911 175.816528 -857.550415
v -55.5601807 203.222992 -869.298096
v -120.991547 65.0630035 -794.636841
v -113.804932 99.7903137 -803.635498
v -101.251434 130.488937 -812.32666
v -84.3313599 157.88353 -821.73877
v -63.4614258 183.444962 -833.042969
v -38.9373169 208.535385 -846.84729
v -32.1218262 -167.336929 -828.947998
v -23.9350586 -172.444641 -799.376709
v -54.507019 -143.429932 -816.233032
v -20.7131348 -168.0345 -770.603882
v -50.1352539 -143.945267 -784.835205
v -77.1651306 -113.672729 -802.966919
v -22.4680176 -156.546387 -742.783447
v -50.4934082 -136.225128 -753.997681
v -75.1624756 -110.937546 -769.458252
v -96.597168 -79.532486 -788.749634
v -26.3318481 -140.012024 -718.064331
v -53.4035645 -122.363266 -724.71582
v -76.300293 -100.849564 -736.932495
v -95.0475159 -74.4213257 -753.714111
v -109.95047 -42.7115402 -774.227295
v -27.9776611 -119.793716 -699.486694
v -54.6762695 -103.87117 -699.837036
v -76.9942627 -84.9963455 -706.998657
v -94.2565002 -62.2998505 -720.429932
v -106.742035 -35.4645233 -738.774536
v -115.644226 -5.26176834 -760.80481
v 135.435608 -144.232391 -838.40332
v 149.887268 -124.803635 -833.968262
v 126.033203 -157.088898 -807.718262
v 161.696045 -100.878784 -833.093018
v 135.455017 -133.830933 -802.63208
v 111.56012 -161.41777 -778.384399
v 170.524658 -74.6492386 -833.650391
v 141.560242 -106.935287 -801.569336
v 114.651367 -134.466141 -773.396118
v 89.2719727 -157.031555 -751.941162
v 176.739563 -47.9200287 -832.810059
v 145.390747 -78.0946503 -802.040039
v 114.851318 -104.521088 -772.296143
v 85.9451294 -126.713043 -746.998291
v 59.111084 -144.236893 -729.192139
v 181.06897 -21.8829117 -827.533203
v 148.446716 -48.4061813 -800.695435
v 114.509644 -72.5314255 -772.219971
v 81.2172852 -93.4338379 -745.258301
v 50.6438599 -110.717484 -723.620483
v 24.128479 -124.046387 -709.975586
v 304.323303 142.63913 -1007.86926
v 301.808105 156.764832 -984.521362
v 296.401001 120.145035 -983.176147
v 290.35144 166.353836 -952.977417
v 291.608459 131.936691 -955.390259
v 285.165283 97.6104736 -955.753418
v 272.619385 173.078842 -917.005371
v 279.243652 139.576263 -920.944458
v 279.219727 107.570374 -925.218262
v 271.247314 75.4029083 -925.498657
v 249.481934 178.654678 -880.280884
v 260.15625 145.701492 -883.403687
v 265.182373 114.361038 -889.125
v 262.958496 84.2472687 -893.174561
v 252.968872 54.1946449 -892.356201
v 219.828369 184.025497 -846.244385
v 233.041931 152.166473 -845.945557
v 241.764282 121.06958 -850.458008
v 244.24176 91.1089478 -855.856323
v 239.703247 62.3632927 -858.648438
v 228.184021 34.242466 -857.550781
v 27.3460083 71.3692627 -728.473389
v 56.6279297 92.9629669 -740.206665
v 18.1085205 97.5844727 -733.666138
v 83.8703003 115.276459 -751.292847
v 45.8649902 122.188446 -746.395264
v 8.65118408 123.013718 -743.491577
v 109.340393 137.727325 -763.839478
v 70.5427246 146.837784 -759.754272
v 34.7651367 149.683701 -758.459473
v -0.467346191 147.873444 -758.40918
v 133.718201 159.261429 -779.029663
v 93.9976807 171.032944 -774.91394
v 58.2128296 176.123428 -775.275879
v 24.7399292 176.006409 -776.222534
v -8.07855225 172.047119 -778.481445
v 157.676086 179.296646 -798.26355
v 118.246887 194.107361 -793.174316
v 82.003418 202.196548 -794.183472
v 48.666687 204.187866 -796.82666
v 17.4455566 201.414856 -799.37915
v -12.8430176 194.990707 -803.284668
v 181.420532 197.97551 -822.824219
v 144.560242 215.578339 -816.426392
v 108.657837 227.394684 -816.893311
v 74.8406982 232.53389 -820.378784
v 43.5054321 231.462234 -824.220459
v 14.2578125 225.557419 -827.623901
v -13.8493042 215.941177 -831.958618
v 55.7190552 57.8830528 -735.276489
v 85.4803467 45.0918999 -745.358032
v 89.7993164 80.6277618 -748.565063
v 115.677429 33.2491837 -759.116943
v 122.759888 68.8098907 -761.449463
v 120.593567 103.005569 -761.304443
v 144.76532 22.7261047 -777.060547
v 154.460083 57.4186897 -778.557251
v 155.481079 90.8125305 -777.299072
v 148.491333 124.356155 -775.498535
v 171.167358 14.3819809 -799.187134
v 183.525635 47.1676598 -800.208374
v 187.747437 79.1544495 -798.50708
v 184.411804 111.318588 -794.901367
v 174.035461 144.469803 -793.023438
v 193.516602 8.82563591 -824.81604
v 208.517883 39.3486633 -826.771851
v 216.25293 69.1794586 -825.389648
v 216.595337 99.7021179 -821.423706
v 210.131226 131.220596 -816.752075
v 197.760681 163.86113 -815.991821
v 13.6165771 41.8016663 -717.824463
v -0.634887695 12.5083313 -705.518921
v 42.9743652 25.5427246 -726.181274
v -13.3481445 -16.2950974 -694.165894
v 29.7454224 -4.79911804 -715.508179
v 72.9328613 11.320446 -737.960449
v -21.4362183 -44.8411942 -687.209717
v 18.1762695 -33.7550545 -706.312866
v 60.210144 -19.2716904 -729.872314
v 102.663818 -0.809240341 -753.907837
v -22.2092896 -73.6408234 -686.938232
v 11.3884277 -62.4497375 -701.595825
v 49.6884766 -48.4093094 -723.620972
v 90.3185425 -31.326767 -748.946533
v 131.176697 -10.6148796 -774.502686
v -14.1878662 -103.099716 -693.52417
v 12.7474976 -92.2559967 -702.873291
v 45.1471558 -78.1469574 -721.254028
v 81.5795288 -61.1085968 -745.789551
v 119.729614 -40.9787292 -772.894287
v 157.5 -17.5893936 -799.467407
v -7.27337646 66.6528473 -718.921143
v -39.074585 61.9815483 -713.60437
v -24.1759033 35.050602 -704.2229
v -66.3421631 57.1736946 -714.346802
v -55.975769 28.3435516 -697.585327
v -39.0617065 4.31758881 -690.804443
v -87.7628174 51.7560616 -722.32666
v -80.6003113 21.2529182 -699.934937
v -68.3136597 -4.1813736 -686.268188
v -49.1873169 -25.8161469 -681.842041
v -103.539246 45.2746696 -737.655518
v -97.9937439 13.6832123 -711.771484
v -88.6964111 -13.3158417 -693.028442
v -73.7902832 -36.2194366 -682.15332
v -51.8748169 -55.966095 -679.814575
v -114.636749 37.1402359 -759.350952
v -109.170471 5.12185097 -732.545044
v -101.033295 -23.4569206 -710.834351
v -88.449646 -48.0598602 -695.116333
v -69.9405823 -68.9606018 -686.505859
v -45.1195679 -87.0108795 -685.845825
v -16.8145142 93.964798 -729.265015
v -25.2192383 119.752197 -743.754028
v -47.0968018 90.6968231 -730.009399
v -32.3503418 144.395035 -762.671021
v -53.4549561 117.095291 -749.37146
v -72.2886353 87.2145691 -736.491821
v -37.607666 167.773544 -786.231689
v -58.5682373 141.545227 -772.488892
v -76.9375 113.896881 -760.687744
v -92.4380798 82.4417267 -749.402222
v -40.0780029 189.39653 -814.471558
v -62.1567383 163.865479 -800.204468
v -80.903656 137.589981 -788.584351
v -96.5628357 108.640381 -778.595703
v -108.372253 75.4266205 -768.963379
g 
f 3 1 2
f 5 2 4
f 6 3 5
f 8 4 7
f 9 5 8
f 10 6 9
f 12 7 11
f 13 8 12
f 14 9 13
f 15 10 14
f 17 11 16
f 18 12 17
f 19 13 18
f 20 14 19
f 21 15 20
f 23 16 22
f 24 17 23
f 25 18 24
f 26 19 25
f 27 20 26
f 28 21 27
f 30 22 29
f 31 23 30
f 32 24 31
f 33 25 32
f 34 26 33
f 35 27 34
f 36 28 35
f 3 2 5
f 5 4 8
f 6 5 9
f 8 7 12
f 9 8 13
f 10 9 14
f 12 11 17
f 13 12 18
f 14 13 19
f 15 14 20
f 17 16 23
f 18 17 24
f 19 18 25
f 20 19 26
f 21 20 27
f 23 22 30
f 24 23 31
f 25 24 32
f 26 25 33
f 27 26 34
f 28 27 35
f 37 1 3
f 38 3 6
f 39 37 38
f 40 6 10
f 41 38 40
f 42 39 41
f 43 10 15
f 44 40 43
f 45 41 44
f 46 42 45
f 47 15 21
f 48 43 47
f 49 44 48
f 50 45 49
f 51 46 50
f 52 21 28
f 53 47 52
f 54 48 53
f 55 49 54
f 56 50 55
f 57 51 56
f 58 28 36
f 59 52 58
f 60 53 59
f 61 54 60
f 62 55 61
f 63 56 62
f 64 57 63
f 37 3 38
f 38 6 40
f 39 38 41
f 40 10 43
f 41 40 44
f 42 41 45
f 43 15 47
f 44 43 48
f 45 44 49
f 46 45 50
f 47 21 52
f 48 47 53
f 49 48 54
f 50 49 55
f 51 50 56
f 52 28 58
f 53 52 59
f 54 53 60
f 55 54 61
f 56 55 62
f 57 56 63
f 65 1 37
f 66 37 39
f 67 65 66
f 68 39 42
f 69 66 68
f 70 67 69
f 71 42 46
f 72 68 71
f 73 69 72
f 74 70 73
f 75 46 51
f 76 71 75
f 77 72 76
f 78 73 77
f 79 74 78
f 80 51 57
f 81 75 80
f 82 76 81
f 83 77 82
f 84 78 83
f 85 79 84
f 86 57 64
f 87 80 86
f 88 81 87
f 89 82 88
f 90 83 89
f 91 84 90
f 92 85 91
f 65 37 66
f 66 39 68
f 67 66 69
f 68 42 71
f 69 68 72
f 70 69 73
f 71 46 75
f 72 71 76
f 73 72 77
f 74 73 78
f 75 51 80
f 76 75 81
f 77 76 82
f 78 77 83
f 79 78 84
f 80 57 86
f 81 80 87
f 82 81 88
f 83 82 89
f 84 83 90
f 85 84 91
f 93 1 65
f 94 65 67
f 95 93 94
f 96 67 70
f 97 94 96
f 98 95 97
f 99 70 74
f 100 96 99
f 101 97 100
f 102 98 101
f 103 74 79
f 104 99 103
f 105 100 104
f 106 101 105
f 107 102 106
f 108 79 85
f 109 103 108
f 110 104 109
f 111 105 110
f 112 106 111
f 113 107 112
f 114 85 92
f 115 108 114
f 116 109 115
f 117 110 116
f 118 111 117
f 119 112 118
f 120 113 119
f 93 65 94
f 94 67 96
f 95 94 97
f 96 70 99
f 97 96 100
f 98 97 101
f 99 74 103
f 100 99 104
f 101 100 105
f 102 101 106
f 103 79 108
f 104 103 109
f 105 104 110
f 106 105 111
f 107 106 112
f 108 85 114
f 109 108 115
f 110 109 116
f 111 110 117
f 112 111 118
f 113 112 119
f 2 1 93
f 121 93 95
f 4 2 121
f 122 95 98
f 123 121 122
f 7 4 123
f 124 98 102
f 125 122 124
f 126 123 125
f 11 7 126
f 127 102 107
f 128 124 127
f 129 125 128
f 130 126 129
f 16 11 130
f 131 107 113
f 132 127 131
f 133 128 132
f 134 129 133
f 135 130 134
f 22 16 135
f 136 113 120
f 137 131 136
f 138 132 137
f 139 133 138
f 140 134 139
f 141 135 140
f 29 22 141
f 2 93 121
f 121 95 122
f 4 121 123
f 122 98 124
f 123 122 125
f 7 123 126
f 124 102 127
f 125 124 128
f 126 125 129
f 11 126 130
f 127 107 131
f 128 127 132
f 129 128 133
f 130 129 134
f 16 130 135
f 131 113 136
f 132 131 137
f 133 132 138
f 134 133 139
f 135 134 140
f 22 135 141
f 142 29 141
f 143 141 140
f 144 142 143
f 145 140 139
f 146 143 145
f 147 144 146
f 148 139 138
f 149 145 148
f 150 146 149
f 151 147 150
f 152 138 137
f 153 148 152
f 154 149 153
f 155 150 154
f 156 151 155
f 157 137 136
f 158 152 157
f 159 153 158
f 160 154 159
f 161 155 160
f 162 156 161
f 163 136 120
f 164 157 163
f 165 158 164
f 166 159 165
f 167 160 166
f 168 161 167
f 169 162 168
f 142 141 143
f 143 140 145
f 144 143 146
f 145 139 148
f 146 145 149
f 147 146 150
f 148 138 152
f 149 148 153
f 150 149 154
f 151 150 155
f 152 137 157
f 153 152 158
f 154 153 159
f 155 154 160
f 156 155 161
f 157 136 163
f 158 157 164
f 159 158 165
f 160 159 166
f 161 160 167
f 162 161 168
f 170 120 119
f 171 119 118
f 172 170 171
f 173 118 117
f 174 171 173
f 175 172 174
f 176 117 116
f 177 173 176
f 178 174 177
f 179 175 178
f 180 116 115
f 181 176 180
f 182 177 181
f 183 178 182
f 184 179 183
f 185 115 114
f 186 180 185
f 187 181 186
f 188 182 187
f 189 183 188
f 190 184 189
f 191 114 92
f 192 185 191
f 193 186 192
f 194 187 193
f 195 188 194
f 196 189 195
f 197 190 196
f 170 119 171
f 171 118 173
f 172 171 174
f 173 117 176
f 174 173 177
f 175 174 178
f 176 116 180
f 177 176 181
f 178 177 182
f 179 178 183
f 180 115 185
f 181 180 186
f 182 181 187
f 183 182 188
f 184 183 189
f 185 114 191
f 186 185 192
f 187 186 193
f 188 187 194
f 189 188 195
f 190 189 196
f 198 92 91
f 199 91 90
f 200 198 199
f 201 90 89
f 202 199 201
f 203 200 202
f 204 89 88
f 205 201 204
f 206 202 205
f 207 203 206
f 208 88 87
f 209 204 208
f 210 205 209
f 211 206 210
f 212 207 211
f 213 87 86
f 214 208 213
f 215 209 214
f 216 210 215
f 217 211 216
f 218 212 217
f 219 86 64
f 220 213 219
f 221 214 220
f 222 215 221
f 223 216 222
f 224 217 223
f 225 218 224
f 198 91 199
f 199 90 201
f 200 199 202
f 201 89 204
f 202 201 205
f 203 202 206
f 204 88 208
f 205 204 209
f 206 205 210
f 207 206 211
f 208 87 213
f 209 208 214
f 210 209 215
f 211 210 216
f 212 211 217
f 213 86 219
f 214 213 220
f 215 214 221
f 216 215 222
f 217 216 223
f 218 217 224
f 226 64 63
f 227 63 62
f 228 226 227
f 229 62 61
f 230 227 229
f 231 228 230
f 232 61 60
f 233 229 232
f 234 230 233
f 235 231 234
f 236 60 59
f 237 232 236
f 238 233 237
f 239 234 238
f 240 235 239
f 241 59 58
f 242 236 241
f 243 237 242
f 244 238 243
f 245 239 244
f 246 240 245
f 247 58 36
f 248 241 247
f 249 242 248
f 250 243 249
f 251 244 250
f 252 245 251
f 253 246 252
f 226 63 227
f 227 62 229
f 228 227 230
f 229 61 232
f 230 229 233
f 231 230 234
f 232 60 236
f 233 232 237
f 234 233 238
f 235 234 239
f 236 59 241
f 237 236 242
f 238 237 243
f 239 238 244
f 240 239 245
f 241 58 247
f 242 241 248
f 243 242 249
f 244 243 250
f 245 244 251
f 246 245 252
f 254 36 35
f 255 35 34
f 256 254 255
f 257 34 33
f 258 255 257
f 259 256 258
f 260 33 32
f 261 257 260
f 262 258 261
f 263 259 262
f 264 32 31
f 265 260 264
f 266 261 265
f 267 262 266
f 268 263 267
f 269 31 30
f 270 264 269
f 271 265 270
f 272 266 271
f 273 267 272
f 274 268 273
f 275 30 29
f 276 269 275
f 277 270 276
f 278 271 277
f 279 272 278
f 280 273 279
f 281 274 280
f 254 35 255
f 255 34 257
f 256 255 258
f 257 33 260
f 258 257 261
f 259 258 262
f 260 32 264
f 261 260 265
f 262 261 266
f 263 262 267
f 264 31 269
f 265 264 270
f 266 265 271
f 267 266 272
f 268 267 273
f 269 30 275
f 270 269 276
f 271 270 277
f 272 271 278
f 273 272 279
f 274 273 280
f 275 29 142
f 282 142 144
f 276 275 282
f 283 144 147
f 284 282 283
f 277 276 284
f 285 147 151
f 286 283 285
f 287 284 286
f 278 277 287
f 288 151 156
f 289 285 288
f 290 286 289
f 291 287 290
f 279 278 291
f 292 156 162
f 293 288 292
f 294 289 293
f 295 290 294
f 296 291 295
f 280 279 296
f 297 162 169
f 298 292 297
f 299 293 298
f 300 294 299
f 301 295 300
f 302 296 301
f 281 280 302
f 275 142 282
f 282 144 283
f 276 282 284
f 283 147 285
f 284 283 286
f 277 284 287
f 285 151 288
f 286 285 289
f 287 286 290
f 278 287 291
f 288 156 292
f 289 288 293
f 290 289 294
f 291 290 295
f 279 291 296
f 292 162 297
f 293 292 298
f 294 293 299
f 295 294 300
f 296 295 301
f 280 296 302
f 163 120 170
f 303 170 172
f 164 163 303
f 304 172 175
f 305 303 304
f 165 164 305
f 306 175 179
f 307 304 306
f 308 305 307
f 166 165 308
f 309 179 184
f 310 306 309
f 311 307 310
f 312 308 311
f 167 166 312
f 313 184 190
f 314 309 313
f 315 310 314
f 316 311 315
f 317 312 316
f 168 167 317
f 318 190 197
f 319 313 318
f 320 314 319
f 321 315 320
f 322 316 321
f 323 317 322
f 169 168 323
f 163 170 303
f 303 172 304
f 164 303 305
f 304 175 306
f 305 304 307
f 165 305 308
f 306 179 309
f 307 306 310
f 308 307 311
f 166 308 312
f 309 184 313
f 310 309 314
f 311 310 315
f 312 311 316
f 167 312 317
f 313 190 318
f 314 313 319
f 315 314 320
f 316 315 321
f 317 316 322
f 168 317 323
f 191 92 198
f 324 198 200
f 192 191 324
f 325 200 203
f 326 324 325
f 193 192 326
f 327 203 207
f 328 325 327
f 329 326 328
f 194 193 329
f 330 207 212
f 331 327 330
f 332 328 331
f 333 329 332
f 195 194 333
f 334 212 218
f 335 330 334
f 336 331 335
f 337 332 336
f 338 333 337
f 196 195 338
f 339 218 225
f 340 334 339
f 341 335 340
f 342 336 341
f 343 337 342
f 344 338 343
f 197 196 344
f 191 198 324
f 324 200 325
f 192 324 326
f 325 203 327
f 326 325 328
f 193 326 329
f 327 207 330
f 328 327 331
f 329 328 332
f 194 329 333
f 330 212 334
f 331 330 335
f 332 331 336
f 333 332 337
f 195 333 338
f 334 218 339
f 335 334 340
f 336 335 341
f 337 336 342
f 338 337 343
f 196 338 344
f 219 64 226
f 345 226 228
f 220 219 345
f 346 228 231
f 347 345 346
f 221 220 347
f 348 231 235
f 349 346 348
f 350 347 349
f 222 221 350
f 351 235 240
f 352 348 351
f 353 349 352
f 354 350 353
f 223 222 354
f 355 240 246
f 356 351 355
f 357 352 356
f 358 353 357
f 359 354 358
f 224 223 359
f 360 246 253
f 361 355 360
f 362 356 361
f 363 357 362
f 364 358 363
f 365 359 364
f 225 224 365
f 219 226 345
f 345 228 346
f 220 345 347
f 346 231 348
f 347 346 349
f 221 347 350
f 348 235 351
f 349 348 352
f 350 349 353
f 222 350 354
f 351 240 355
f 352 351 356
f 353 352 357
f 354 353 358
f 223 354 359
f 355 246 360
f 356 355 361
f 357 356 362
f 358 357 363
f 359 358 364
f 224 359 365
f 247 36 254
f 366 254 256
f 248 247 366
f 367 256 259
f 368 366 367
f 249 248 368
f 369 259 263
f 370 367 369
f 371 368 370
f 250 249 371
f 372 263 268
f 373 369 372
f 374 370 373
f 375 371 374
f 251 250 375
f 376 268 274
f 377 372 376
f 378 373 377
f 379 374 378
f 380 375 379
f 252 251 380
f 381 274 281
f 382 376 381
f 383 377 382
f 384 378 383
f 385 379 384
f 386 380 385
f 253 252 386
f 247 254 366
f 366 256 367
f 248 366 368
f 367 259 369
f 368 367 370
f 249 368 371
f 369 263 372
f 370 369 373
f 371 370 374
f 250 371 375
f 372 268 376
f 373 372 377
f 374 373 378
f 375 374 379
f 251 375 380
f 376 274 381
f 377 376 382
f 378 377 383
f 379 378 384
f 380 379 385
f 252 380 386
f 389 387 388
f 391 388 390
f 392 389 391
f 394 390 393
f 395 391 394
f 396 392 395
f 398 393 397
f 399 394 398
f 400 395 399
f 401 396 400
f 403 397 402
f 404 398 403
f 405 399 404
f 406 400 405
f 407 401 406
f 409 402 408
f 410 403 409
f 411 404 410
f 412 405 411
f 413 406 412
f 414 407 413
f 302 408 281
f 301 409 302
f 300 410 301
f 299 411 300
f 298 412 299
f 297 413 298
f 169 414 297
f 389 388 391
f 391 390 394
f 392 391 395
f 394 393 398
f 395 394 399
f 396 395 400
f 398 397 403
f 399 398 404
f 400 399 405
f 401 400 406
f 403 402 409
f 404 403 410
f 405 404 411
f 406 405 412
f 407 406 413
f 409 408 302
f 410 409 301
f 411 410 300
f 412 411 299
f 413 412 298
f 414 413 297
f 388 387 415
f 417 415 416
f 390 388 417
f 419 416 418
f 420 417 419
f 393 390 420
f 422 418 421
f 423 419 422
f 424 420 423
f 397 393 424
f 426 421 425
f 427 422 426
f 428 423 427
f 429 424 428
f 402 397 429
f 431 425 430
f 432 426 431
f 433 427 432
f 434 428 433
f 435 429 434
f 408 402 435
f 386 430 253
f 385 431 386
f 384 432 385
f 383 433 384
f 382 434 383
f 381 435 382
f 281 408 381
f 388 415 417
f 417 416 419
f 390 417 420
f 419 418 422
f 420 419 423
f 393 420 424
f 422 421 426
f 423 422 427
f 424 423 428
f 397 424 429
f 426 425 431
f 427 426 432
f 428 427 433
f 429 428 434
f 402 429 435
f 431 430 386
f 432 431 385
f 433 432 384
f 434 433 383
f 435 434 382
f 408 435 381
f 415 387 436
f 438 436 437
f 416 415 438
f 440 437 439
f 441 438 440
f 418 416 441
f 443 439 442
f 444 440 443
f 445 441 444
f 421 418 445
f 447 442 446
f 448 443 447
f 449 444 448
f 450 445 449
f 425 421 450
f 452 446 451
f 453 447 452
f 454 448 453
f 455 449 454
f 456 450 455
f 430 425 456
f 365 451 225
f 364 452 365
f 363 453 364
f 362 454 363
f 361 455 362
f 360 456 361
f 253 430 360
f 415 436 438
f 438 437 440
f 416 438 441
f 440 439 443
f 441 440 444
f 418 441 445
f 443 442 447
f 444 443 448
f 445 444 449
f 421 445 450
f 447 446 452
f 448 447 453
f 449 448 454
f 450 449 455
f 425 450 456
f 452 451 365
f 453 452 364
f 454 453 363
f 455 454 362
f 456 455 361
f 430 456 360
f 436 387 457
f 459 457 458
f 437 436 459
f 461 458 460
f 462 459 461
f 439 437 462
f 464 460 463
f 465 461 464
f 466 462 465
f 442 439 466
f 468 463 467
f 469 464 468
f 470 465 469
f 471 466 470
f 446 442 471
f 473 467 472
f 474 468 473
f 475 469 474
f 476 470 475
f 477 471 476
f 451 446 477
f 344 472 197
f 343 473 344
f 342 474 343
f 341 475 342
f 340 476 341
f 339 477 340
f 225 451 339
f 436 457 459
f 459 458 461
f 437 459 462
f 461 460 464
f 462 461 465
f 439 462 466
f 464 463 468
f 465 464 469
f 466 465 470
f 442 466 471
f 468 467 473
f 469 468 474
f 470 469 475
f 471 470 476
f 446 471 477
f 473 472 344
f 474 473 343
f 475 474 342
f 476 475 341
f 477 476 340
f 451 477 339
f 457 387 389
f 478 389 392
f 458 457 478
f 479 392 396
f 480 478 479
f 460 458 480
f 481 396 401
f 482 479 481
f 483 480 482
f 463 460 483
f 484 401 407
f 485 481 484
f 486 482 485
f 487 483 486
f 467 463 487
f 488 407 414
f 489 484 488
f 490 485 489
f 491 486 490
f 492 487 491
f 472 467 492
f 323 414 169
f 322 488 323
f 321 489 322
f 320 490 321
f 319 491 320
f 318 492 319
f 197 472 318
f 457 389 478
f 478 392 479
f 458 478 480
f 479 396 481
f 480 479 482
f 460 480 483
f 481 401 484
f 482 481 485
f 483 482 486
f 463 483 487
f 484 407 488
f 485 484 489
f 486 485 490
f 487 486 491
f 467 487 492
f 488 414 323
f 489 488 322
f 490 489 321
f 491 490 320
f 492 491 319
f 472 492 318
