# File exported by Houdini 20.5.445 (www.sidefx.com)
# 492 points
# 2940 vertices
# 980 primitives
# Bounds: [-163.439117, -83.5471191, -1139.37939] to [334.213043, 199.924225, -615.421692]
g 
v 190.701813 24.8955994 -1090.02124
v 198.648621 40.6016235 -1084.99561
v 226.61554 24.8994331 -1071.23352
v 205.5578 55.9594421 -1074.28589
v 237.192505 41.7374573 -1062.85156
v 258.472565 25.9525032 -1049.23389
v 210.157562 70.9784698 -1058.11304
v 244.644165 57.6643677 -1049.03418
v 269.284332 44.0688858 -1038.29297
v 285.29599 28.156086 -1024.00806
v 210.807892 85.4178162 -1036.72351
v 247.68811 72.9559784 -1030.32568
v 275.159698 60.8568192 -1022.14801
v 294.615265 47.6754417 -1011.23224
v 306.028412 31.9676285 -995.953125
v 206.698059 98.2927551 -1010.41443
v 245.183105 86.7784882 -1006.65637
v 275.390656 76.0490265 -1001.01587
v 297.87912 65.0668335 -992.967834
v 312.921478 52.6052246 -981.528809
v 320.026154 37.7880936 -965.570251
v 198.71933 109.574936 -980.514465
v 237.157257 98.6616058 -978.672729
v 269.727386 88.9959259 -975.021423
v 295.433563 79.5961761 -969.309387
v 313.866852 69.6210022 -960.836548
v 324.797333 58.2372971 -948.988159
v 328.218781 45.4416733 -933.540466
v 187.980103 120.307755 -948.44458
v 224.420624 109.889084 -947.233643
v 258.05954 100.727631 -944.540833
v 286.93399 92.0704651 -940.273865
v 309.282928 83.5792542 -933.869934
v 324.142059 74.5988312 -924.922729
v 331.725677 65.0814667 -913.683105
v 332.514557 55.112709 -900.765015
v 204.315765 8.77158546 -1078.70337
v 239.908813 8.14704323 -1056.98218
v 214.363922 -7.39149857 -1061.67749
v 269.185089 8.97857475 -1032.10229
v 247.69165 -7.93515396 -1036.78833
v 219.665222 -22.9819679 -1038.71167
v 292.445648 11.4365826 -1004.32056
v 273.460785 -6.55500412 -1009.00073
v 249.713806 -22.6760979 -1010.84583
v 219.417267 -36.9966621 -1010.47119
v 309.39798 16.2637367 -973.880676
v 292.853912 -2.88101578 -978.514343
v 271.635162 -19.8812065 -980.185852
v 245.672821 -35.0866203 -979.848938
v 213.230011 -48.4387856 -978.517273
v 320.029083 24.5328865 -941.080017
v 306.141144 4.27643204 -945.319336
v 286.972565 -13.8628159 -946.558289
v 263.356781 -30.0020332 -946.076965
v 235.054138 -44.2515907 -945.061462
v 200.91507 -56.5421486 -944.592529
v 325.83432 37.033268 -906.590637
v 313.996613 17.2018585 -909.823242
v 296.716583 -2.22554779 -910.318054
v 274.231293 -19.9412346 -908.938232
v 247.323822 -35.7578545 -907.415833
v 216.5672 -49.4702492 -907.230164
v 182.522003 -61.0481071 -909.720337
v 162.028839 15.750226 -1099.87427
v 175.110992 -2.38440514 -1084.2937
v 132.553345 6.98760223 -1104.80017
v 183.741486 -19.4144402 -1063.11536
v 145.009521 -12.1914749 -1084.2041
v 101.731384 -1.38234138 -1104.49805
v 186.871796 -35.1218147 -1036.65002
v 151.768768 -29.2897606 -1058.94043
v 112.82663 -20.7351341 -1079.22998
v 68.8919373 -8.99097061 -1099.25842
v 183.969543 -48.8394356 -1005.83826
v 152.058075 -44.7781258 -1029.51501
v 116.862915 -37.5244179 -1050.25464
v 77.6603088 -27.9585304 -1070.04395
v 34.8040161 -15.7252922 -1088.82275
v 174.626404 -59.8595695 -971.893433
v 145.199188 -58.0517159 -996.025452
v 112.850952 -52.4734383 -1017.18445
v 77.5866089 -44.2738914 -1036.66235
v 39.9438171 -34.0994987 -1055.41162
v 1.42468262 -21.6490746 -1072.14917
v 158.18457 -67.1632843 -934.937012
v 130.592865 -68.484848 -958.720398
v 100.389435 -65.5502319 -979.915222
v 68.3686218 -59.3386955 -999.052185
v 35.2557678 -50.7209053 -1017.27173
v 2.3571167 -40.1193733 -1034.4397
v -28.6219406 -27.2358055 -1049.22034
v 157.051239 36.644989 -1105.54077
v 123.64624 28.987442 -1117.5199
v 121.968079 51.1014481 -1119.1875
v 91.229248 21.1810589 -1122.87708
v 85.978241 44.2611084 -1131.35376
v 86.6346741 67.1294556 -1128.67773
v 58.3636475 13.3214035 -1121.89429
v 51.9368286 36.7884674 -1135.25916
v 49.4880371 60.4821701 -1138.98132
v 52.5552063 83.7876282 -1131.07056
v 24.5908508 5.68202209 -1114.27856
v 18.0862732 28.884819 -1131.27014
v 14.7268066 52.8233185 -1139.37939
v 15.2429504 76.7825165 -1137.6582
v 20.9455872 100.035141 -1124.08142
v -8.9822998 -1.71673965 -1099.28516
v -15.9374695 20.5617008 -1118.63232
v -19.523468 44.2895508 -1130.00024
v -19.6633606 68.5786896 -1132.46167
v -15.8111877 92.5279541 -1125.08765
v -7.72799683 115.071365 -1106.69165
v -40.1546249 -8.85445786 -1075.51965
v -48.8448257 11.9264851 -1095.69885
v -53.5488968 35.0238266 -1108.99341
v -54.1291275 59.4826736 -1114.56384
v -50.7506027 84.1046143 -1111.59595
v -43.8181839 107.560791 -1099.83691
v -34.1054764 128.507248 -1079.45166
v 162.8508 54.4115906 -1098.69702
v 126.774811 70.2790985 -1109.21509
v 167.742035 70.5836029 -1084.97595
v 91.5162659 87.3689728 -1113.99438
v 130.731049 86.9950256 -1091.02747
v 170.421753 85.6212311 -1064.73999
v 57.8147888 104.821701 -1110.39697
v 95.102478 104.767685 -1089.89331
v 132.37558 102.38765 -1065.09656
v 169.585693 99.8907013 -1038.24512
v 25.6629333 121.761429 -1096.42212
v 60.4803467 123.101639 -1078.97583
v 95.5635986 120.925934 -1056.63257
v 130.371857 117.000046 -1031.60925
v 164.878662 112.990189 -1006.10718
v -5.72302246 137.494507 -1070.92334
v 25.6064758 141.295822 -1055.92651
v 58.4955444 140.607895 -1036.25085
v 91.7314453 136.632095 -1013.9599
v 124.784332 130.989822 -991.26593
v 157.106415 125.300949 -969.53241
v 156.844513 134.718781 -927.009705
v 122.418518 142.104691 -946.828491
v 124.850983 150.346573 -902.904785
v 88.3105164 149.552368 -966.967957
v 88.3751221 158.502869 -921.687805
v 92.2198181 165.780228 -876.874023
v 54.5151367 155.475418 -987.710327
v 53.0831909 165.885727 -940.488586
v 54.5152893 173.171768 -894.855042
v 59.394989 179.40477 -850.027039
v 20.8893738 158.058136 -1008.14081
v 18.3009644 170.508636 -959.680176
v 18.088501 179.076294 -912.592407
v 20.6996155 184.885956 -867.185425
v 26.6360474 189.837387 -823.26532
v -12.1756287 155.832428 -1026.63232
v -16.563446 170.613831 -978.754272
v -18.3535156 181.369644 -930.449036
v -17.0854797 188.30304 -883.738098
v -12.9017639 192.695297 -839.168762
v -5.18807983 195.939316 -797.369873
v -42.9897537 147.343079 -1040.76221
v -50.6992416 164.13002 -995.909058
v -55.4171524 177.87146 -947.879578
v -56.0905075 187.334167 -899.750366
v -52.544548 192.774445 -853.670288
v -45.5284653 195.650009 -811.052734
v -34.7967758 196.97554 -773.005066
v -65.0215988 127.551315 -1059.4541
v -74.9683304 102.482605 -1077.31079
v -93.0164108 123.878113 -1033.34485
v -81.4233932 76.1309967 -1085.70239
v -101.24073 95.3877563 -1048.53662
v -117.501823 118.297791 -1002.70923
v -83.7112198 49.7899017 -1085.50903
v -105.373299 66.9265594 -1053.9314
v -122.683281 87.3444061 -1015.5498
v -138.079071 111.58551 -969.452881
v -81.0810165 24.4581833 -1077.4563
v -104.595985 39.2946091 -1051.07996
v -122.890175 57.3063202 -1018.45233
v -139.14975 79.0663757 -980.251282
v -153.111877 103.985901 -935.329102
v -73.0415421 0.87342453 -1061.9292
v -97.91082 12.962307 -1040.61548
v -117.258217 28.3505306 -1012.97357
v -134.0448 47.7757568 -980.496033
v -149.304596 70.6517792 -943.489502
v -160.451782 95.4009094 -901.054504
v -60.4113998 -20.9530144 -1038.16309
v -85.6259537 -12.2071114 -1021.0235
v -105.592705 0.117551804 -998.227783
v -122.743797 17.1324692 -970.782898
v -138.400955 38.3397598 -939.609497
v -151.065002 61.9209938 -905.14447
v -158.205383 85.6636505 -867.411438
v -36.9691696 -41.4959908 -1014.12347
v -6.67547607 -55.2257271 -997.122925
v -42.6981125 -55.0919151 -978.054382
v 24.1867371 -65.2103882 -979.537842
v -13.5780334 -68.3737793 -961.329285
v -46.1989059 -66.1740723 -942.908508
v 55.0061646 -71.8779755 -961.316223
v 15.2399292 -76.364502 -944.207397
v -18.8079529 -77.6399841 -927.217285
v -48.249382 -72.529953 -909.194824
v 85.6701965 -75.0542603 -941.311401
v 44.3428345 -79.935257 -925.49884
v 8.26727295 -82.6478119 -909.993408
v -22.4434509 -81.2368622 -893.883179
v -47.9453049 -72.6890259 -876.812378
v 116.054169 -74.2435455 -918.027527
v 74.6398315 -79.5158691 -903.278748
v 36.7737122 -83.0437622 -889.658752
v 3.91976929 -83.5471191 -875.9151
v -22.7034912 -78.8124847 -861.151855
v -43.8336411 -67.4093018 -845.266418
v 145.480042 -68.5246582 -891.924072
v 106.323517 -74.4883423 -876.763245
v 68.0779724 -78.7619629 -863.907227
v 33.221344 -80.568512 -852.326172
v 4.32403564 -78.4066925 -840.459351
v -18.1135559 -71.3387146 -827.697632
v -35.5292587 -59.5788765 -814.176086
v 182.155701 -55.3907204 -873.394958
v 219.008606 -39.6457176 -870.376587
v 180.218475 -45.518795 -840.900391
v 251.685089 -22.3029747 -871.589233
v 219.332336 -25.5869408 -839.647156
v 177.360352 -32.7251396 -813.276184
v 279.554352 -3.7170372 -874.459106
v 253.05954 -5.17110825 -842.279907
v 217.532104 -9.83212662 -813.706238
v 173.731415 -18.8675194 -789.350708
v 301.71756 16.1196899 -876.410461
v 281.008331 15.4770269 -845.596069
v 251.304382 12.5349979 -816.603821
v 213.636047 5.59486198 -790.20813
v 169.791016 -4.99991989 -767.271606
v 318.236603 36.6230774 -875.64447
v 302.680634 36.6154976 -846.199341
v 278.637482 34.6452179 -818.134583
v 246.400208 29.259901 -791.238525
v 207.953552 20.2190247 -766.523071
v 165.905151 8.92116547 -745.149414
v 329.297455 56.204422 -871.809387
v 318.665802 57.664238 -843.008789
v 299.504608 57.1652756 -814.982605
v 272.08078 53.1038361 -788.162842
v 238.145081 45.354599 -762.896667
v 200.406219 34.9456825 -740.266418
v 160.816467 23.0441875 -721.70166
v 334.213043 71.4043884 -875.668884
v 330.159088 80.1597748 -887.384827
v 330.542877 86.9644012 -850.243286
v 317.789642 88.1573334 -897.35083
v 322.050018 94.7056732 -862.186523
v 319.990875 102.951691 -825.388672
v 297.644501 96.2985992 -905.104858
v 304.094635 102.133484 -871.911316
v 306.338715 110.730103 -838.220703
v 301.309418 120.195847 -801.803101
v 270.168121 104.893967 -910.572266
v 278.308197 110.688812 -878.99469
v 282.733551 118.884216 -847.795532
v 282.440155 129.247437 -815.125122
v 274.489349 138.535477 -779.587463
v 236.615173 114.197754 -914.138794
v 245.572723 120.407059 -883.363708
v 251.462158 128.999863 -853.560486
v 253.702972 139.372787 -823.416626
v 251.03006 149.848404 -791.745422
v 241.422424 156.672226 -757.949768
v 198.197144 124.82373 -916.063904
v 206.419952 131.337555 -885.190674
v 212.685455 140.452042 -855.523071
v 216.575989 151.429047 -826.374146
v 217.098969 162.180984 -796.993225
v 213.295593 170.12471 -766.844543
v 204.45166 172.312958 -736.195312
v 164.880096 141.305359 -890.630676
v 131.538239 158.210846 -863.869141
v 171.126953 150.408173 -857.570618
v 98.1959839 173.965393 -836.393311
v 136.628265 168.507217 -829.372131
v 175.769501 161.699707 -826.683411
v 64.4514771 186.985428 -808.76532
v 102.113586 183.936813 -800.83252
v 139.955688 179.903214 -797.304138
v 178.224121 173.324966 -796.581299
v 30.3317566 195.631409 -781.486511
v 66.6662292 194.933517 -771.965454
v 103.583618 193.371063 -767.14093
v 140.63974 189.682968 -765.51355
v 177.257568 182.204971 -765.868958
v -3.50698853 198.506271 -754.971069
v 30.116272 199.609299 -742.804077
v 65.372406 199.924225 -735.693176
v 101.440979 198.476471 -732.485596
v 137.220428 193.775375 -732.094299
v 171.80304 184.982315 -733.61792
v -76.8563004 148.045029 -1014.60406
v -105.672691 145.669922 -984.235901
v -85.7989578 165.644714 -965.796387
v -129.727081 141.004929 -951.317383
v -113.802406 163.495361 -933.050415
v -90.0388107 179.179352 -915.585449
v -149.148926 134.412262 -917.254639
v -136.725281 158.569901 -898.82666
v -116.613304 176.410126 -881.377502
v -88.7088699 187.796051 -866.033081
v -161.687317 125.658966 -882.588135
v -154.105255 150.957443 -863.443481
v -137.934479 170.601242 -845.381653
v -113.544716 184.232529 -830.040039
v -81.9825821 192.121643 -818.358948
v -163.439117 114.138687 -847.687683
v -161.305817 139.614594 -826.996765
v -150.574142 160.734192 -807.469055
v -130.673615 176.525635 -791.387878
v -102.529839 186.898758 -780.059265
v -69.6885452 193.365326 -773.978821
v -67.2430801 -35.6768379 -998.435486
v -70.4771042 -48.1512947 -959.639221
v -89.5141678 -25.9944725 -978.237183
v -71.4291 -56.5627098 -923.025269
v -90.2819748 -35.6153297 -937.994934
v -107.258644 -11.0424919 -954.318115
v -70.371254 -59.0284691 -888.138855
v -88.9557877 -39.9363365 -900.316467
v -105.931587 -16.6325264 -913.433472
v -122.910606 9.49487305 -926.942444
v -65.5171432 -55.2131767 -853.912659
v -84.2414169 -38.0098305 -863.327087
v -101.523186 -16.6529121 -873.767639
v -118.929756 7.75549507 -884.703796
v -136.475739 34.0314751 -895.258545
v -55.7148361 -47.8506584 -819.105042
v -73.9246902 -31.38554 -824.721924
v -91.438942 -11.2911644 -831.805359
v -109.51107 11.2849541 -840.175049
v -127.994362 35.5849037 -849.163879
v -145.262207 60.6908188 -858.358459
v 141.758392 -63.1202736 -853.75415
v 137.381195 -53.6072655 -821.324524
v 102.00116 -69.092926 -838.826599
v 133.042664 -41.3783836 -794.084595
v 97.6591492 -59.596035 -807.2547
v 64.7587891 -72.5836182 -827.081604
v 129.46637 -27.8904915 -770.047607
v 93.7776794 -47.1808128 -779.841919
v 61.8931274 -62.3045082 -795.866333
v 32.2105408 -72.5540009 -816.412964
v 127.14856 -13.2603569 -746.836975
v 91.46521 -32.7095451 -754.133423
v 59.9433594 -48.8473625 -766.942322
v 32.0708313 -60.771244 -784.29657
v 6.1255188 -68.0009155 -804.933838
v 124.697754 2.3978405 -722.303833
v 89.7791138 -16.527729 -727.394653
v 58.3336792 -32.9223671 -737.2052
v 31.4518738 -45.8094215 -751.797913
v 7.73019409 -54.3569908 -770.630188
v -14.6682434 -58.6475105 -792.063538
v 328.845978 75.0233154 -843.169434
v 321.739777 92.2197418 -815.29718
v 314.189789 77.2098999 -812.235046
v 306.978546 109.123016 -788.985474
v 302.336212 94.2430267 -782.854736
v 290.274689 75.5821228 -783.122986
v 283.714691 126.451904 -764.667358
v 282.603302 110.551956 -755.403381
v 273.493927 91.2676392 -752.67511
v 258.441254 69.3672791 -755.823364
v 252.143463 143.887985 -741.972717
v 254.228668 126.840393 -729.92865
v 248.577606 106.138336 -723.875244
v 236.926758 83.1511993 -724.381104
v 220.783478 59.2343063 -730.472717
v 213.807343 159.686005 -719.685669
v 216.872375 141.930069 -705.729309
v 213.710449 119.818024 -696.676392
v 205.359344 95.1195984 -694.2099
v 193.133331 69.9225616 -698.578125
v 178.143311 45.7395706 -708.565125
v -17.1069031 80.6539917 -619.863831
v 6.70223999 98.0223846 -615.421692
v -27.4727554 108.89978 -623.611816
v 34.4032593 117.478012 -620.422852
v -0.605957031 127.997482 -623.583313
v -36.9436874 135.018646 -635.866638
v 65.7436523 137.499039 -633.083618
v 29.6231384 147.212631 -633.434998
v -6.0296936 153.67662 -639.934265
v -43.8844376 157.477936 -654.807556
v 100.278168 155.37471 -652.00061
v 62.670929 165.146317 -650.463196
v 26.9150085 171.053604 -653.502258
v -9.05957031 173.995239 -662.041687
v -47.2437057 175.152679 -678.722534
v 136.371948 168.812119 -676.174866
v 98.3921814 179.229706 -673.169739
v 61.7434082 185.3965 -673.818054
v 26.052948 188.109161 -678.498413
v -9.72674561 188.372421 -688.611267
v -46.7374649 187.42746 -706.602295
v 171.778229 175.066696 -704.697449
v 135.369019 186.828583 -701.010681
v 98.8162231 193.951187 -699.947144
v 62.594574 197.237503 -701.983704
v 26.8979797 197.686157 -707.998352
v -8.16967773 196.42038 -719.42749
v -42.5654373 194.413727 -738.10791
v 6.09350586 62.9735832 -619.186218
v 28.7006531 48.8594971 -626.136902
v 34.6747131 83.3850708 -617.334167
v 51.6426697 38.987999 -638.626282
v 61.4230042 72.1891327 -626.194885
v 66.256012 105.162064 -624.626709
v 76.0548401 32.1436081 -655.445679
v 88.2548218 63.326458 -640.238098
v 96.6867065 94.7203064 -635.119934
v 101.003693 125.771301 -639.170471
v 102.796295 27.5649529 -675.460876
v 116.346191 56.195488 -658.783875
v 127.11908 85.6799469 -650.727295
v 134.72818 115.175598 -651.315735
v 138.248444 143.523392 -660.058228
v 131.644989 24.6679611 -697.654419
v 146.539429 50.3934097 -681.479614
v 159.062408 77.5426025 -671.555481
v 168.932465 105.227798 -669.193665
v 175.203339 132.026428 -674.62207
v 176.523163 155.977646 -687.004089
v -23.6560059 53.3085632 -631.763733
v -28.8900223 27.8838005 -653.674255
v -1.80303955 32.7098236 -635.088562
v -33.154686 5.69465446 -683.354431
v -8.06692505 7.07859612 -660.113464
v 19.0755615 18.4186211 -645.852966
v -36.0125809 -13.1068153 -717.415649
v -12.8335571 -13.6194115 -691.079468
v 12.0421448 -5.68705368 -672.905334
v 40.7796936 10.0010681 -661.179016
v -36.8415451 -29.5351753 -752.495239
v -15.3247681 -30.3479729 -725.026123
v 7.6270752 -24.4481468 -703.881897
v 33.8083191 -12.1297531 -689.028931
v 65.083252 5.3980217 -679.637024
v -36.7883072 -44.9018364 -785.125732
v -15.3315735 -44.7840538 -759.411255
v 6.52670288 -39.8862419 -736.727356
v 30.7255249 -29.7848473 -719.297607
v 59.2497559 -15.1785469 -707.299744
v 93.2642822 3.04930115 -700.013855
v -44.247673 83.3903351 -634.29541
v -69.7905197 87.8312988 -659.445801
v -49.5508347 56.3177109 -653.302002
v -94.372673 93.0709534 -693.957031
v -73.145668 61.4668541 -685.26123
v -53.1777878 32.1985321 -681.676636
v -117.532173 96.7677307 -734.784912
v -95.6722031 66.6392975 -724.601501
v -75.0407791 38.0565033 -718.063293
v -55.7642288 10.9868851 -715.673706
v -137.540039 96.4962769 -778.399231
v -116.409721 68.490921 -767.713806
v -95.3841629 41.5733261 -759.303894
v -75.6245956 15.8156948 -753.823792
v -56.8377304 -8.52458954 -751.724426
v -151.87677 92.4284668 -822.748474
v -133.950821 66.0642853 -812.214783
v -113.936882 40.427742 -802.910034
v -93.9865341 16.0542221 -795.369934
v -75.1788712 -6.95526505 -789.991455
v -56.8198318 -27.8992043 -786.787354
v -58.9665298 113.060654 -642.25946
v -71.5909805 138.879013 -658.319214
v -87.685051 117.9366 -671.314819
v -80.0298996 160.096802 -680.071045
v -102.084541 142.89119 -690.143005
v -114.257576 122.437592 -708.462341
v -82.8724289 176.222427 -706.38562
v -110.573051 162.642105 -714.11853
v -128.904602 145.742264 -729.25708
v -137.441376 123.995071 -751.171936
v -79.4149857 187.149918 -737.397156
v -111.195412 177.219925 -743.495361
v -135.373474 163.628006 -756.148193
v -149.771362 144.984085 -774.694153
v -154.89537 121.160233 -797.711548
g 
f 3 1 2
f 5 2 4
f 6 3 5
f 8 4 7
f 9 5 8
f 10 6 9
f 12 7 11
f 13 8 12
f 14 9 13
f 15 10 14
f 17 11 16
f 18 12 17
f 19 13 18
f 20 14 19
f 21 15 20
f 23 16 22
f 24 17 23
f 25 18 24
f 26 19 25
f 27 20 26
f 28 21 27
f 30 22 29
f 31 23 30
f 32 24 31
f 33 25 32
f 34 26 33
f 35 27 34
f 36 28 35
f 3 2 5
f 5 4 8
f 6 5 9
f 8 7 12
f 9 8 13
f 10 9 14
f 12 11 17
f 13 12 18
f 14 13 19
f 15 14 20
f 17 16 23
f 18 17 24
f 19 18 25
f 20 19 26
f 21 20 27
f 23 22 30
f 24 23 31
f 25 24 32
f 26 25 33
f 27 26 34
f 28 27 35
f 37 1 3
f 38 3 6
f 39 37 38
f 40 6 10
f 41 38 40
f 42 39 41
f 43 10 15
f 44 40 43
f 45 41 44
f 46 42 45
f 47 15 21
f 48 43 47
f 49 44 48
f 50 45 49
f 51 46 50
f 52 21 28
f 53 47 52
f 54 48 53
f 55 49 54
f 56 50 55
f 57 51 56
f 58 28 36
f 59 52 58
f 60 53 59
f 61 54 60
f 62 55 61
f 63 56 62
f 64 57 63
f 37 3 38
f 38 6 40
f 39 38 41
f 40 10 43
f 41 40 44
f 42 41 45
f 43 15 47
f 44 43 48
f 45 44 49
f 46 45 50
f 47 21 52
f 48 47 53
f 49 48 54
f 50 49 55
f 51 50 56
f 52 28 58
f 53 52 59
f 54 53 60
f 55 54 61
f 56 55 62
f 57 56 63
f 65 1 37
f 66 37 39
f 67 65 66
f 68 39 42
f 69 66 68
f 70 67 69
f 71 42 46
f 72 68 71
f 73 69 72
f 74 70 73
f 75 46 51
f 76 71 75
f 77 72 76
f 78 73 77
f 79 74 78
f 80 51 57
f 81 75 80
f 82 76 81
f 83 77 82
f 84 78 83
f 85 79 84
f 86 57 64
f 87 80 86
f 88 81 87
f 89 82 88
f 90 83 89
f 91 84 90
f 92 85 91
f 65 37 66
f 66 39 68
f 67 66 69
f 68 42 71
f 69 68 72
f 70 69 73
f 71 46 75
f 72 71 76
f 73 72 77
f 74 73 78
f 75 51 80
f 76 75 81
f 77 76 82
f 78 77 83
f 79 78 84
f 80 57 86
f 81 80 87
f 82 81 88
f 83 82 89
f 84 83 90
f 85 84 91
f 93 1 65
f 94 65 67
f 95 93 94
f 96 67 70
f 97 94 96
f 98 95 97
f 99 70 74
f 100 96 99
f 101 97 100
f 102 98 101
f 103 74 79
f 104 99 103
f 105 100 104
f 106 101 105
f 107 102 106
f 108 79 85
f 109 103 108
f 110 104 109
f 111 105 110
f 112 106 111
f 113 107 112
f 114 85 92
f 115 108 114
f 116 109 115
f 117 110 116
f 118 111 117
f 119 112 118
f 120 113 119
f 93 65 94
f 94 67 96
f 95 94 97
f 96 70 99
f 97 96 100
f 98 97 101
f 99 74 103
f 100 99 104
f 101 100 105
f 102 101 106
f 103 79 108
f 104 103 109
f 105 104 110
f 106 105 111
f 107 106 112
f 108 85 114
f 109 108 115
f 110 109 116
f 111 110 117
f 112 111 118
f 113 112 119
f 2 1 93
f 121 93 95
f 4 2 121
f 122 95 98
f 123 121 122
f 7 4 123
f 124 98 102
f 125 122 124
f 126 123 125
f 11 7 126
f 127 102 107
f 128 124 127
f 129 125 128
f 130 126 129
f 16 11 130
f 131 107 113
f 132 127 131
f 133 128 132
f 134 129 133
f 135 130 134
f 22 16 135
f 136 113 120
f 137 131 136
f 138 132 137
f 139 133 138
f 140 134 139
f 141 135 140
f 29 22 141
f 2 93 121
f 121 95 122
f 4 121 123
f 122 98 124
f 123 122 125
f 7 123 126
f 124 102 127
f 125 124 128
f 126 125 129
f 11 126 130
f 127 107 131
f 128 127 132
f 129 128 133
f 130 129 134
f 16 130 135
f 131 113 136
f 132 131 137
f 133 132 138
f 134 133 139
f 135 134 140
f 22 135 141
f 142 29 141
f 143 141 140
f 144 142 143
f 145 140 139
f 146 143 145
f 147 144 146
f 148 139 138
f 149 145 148
f 150 146 149
f 151 147 150
f 152 138 137
f 153 148 152
f 154 149 153
f 155 150 154
f 156 151 155
f 157 137 136
f 158 152 157
f 159 153 158
f 160 154 159
f 161 155 160
f 162 156 161
f 163 136 120
f 164 157 163
f 165 158 164
f 166 159 165
f 167 160 166
f 168 161 167
f 169 162 168
f 142 141 143
f 143 140 145
f 144 143 146
f 145 139 148
f 146 145 149
f 147 146 150
f 148 138 152
f 149 148 153
f 150 149 154
f 151 150 155
f 152 137 157
f 153 152 158
f 154 153 159
f 155 154 160
f 156 155 161
f 157 136 163
f 158 157 164
f 159 158 165
f 160 159 166
f 161 160 167
f 162 161 168
f 170 120 119
f 171 119 118
f 172 170 171
f 173 118 117
f 174 171 173
f 175 172 174
f 176 117 116
f 177 173 176
f 178 174 177
f 179 175 178
f 180 116 115
f 181 176 180
f 182 177 181
f 183 178 182
f 184 179 183
f 185 115 114
f 186 180 185
f 187 181 186
f 188 182 187
f 189 183 188
f 190 184 189
f 191 114 92
f 192 185 191
f 193 186 192
f 194 187 193
f 195 188 194
f 196 189 195
f 197 190 196
f 170 119 171
f 171 118 173
f 172 171 174
f 173 117 176
f 174 173 177
f 175 174 178
f 176 116 180
f 177 176 181
f 178 177 182
f 179 178 183
f 180 115 185
f 181 180 186
f 182 181 187
f 183 182 188
f 184 183 189
f 185 114 191
f 186 185 192
f 187 186 193
f 188 187 194
f 189 188 195
f 190 189 196
f 198 92 91
f 199 91 90
f 200 198 199
f 201 90 89
f 202 199 201
f 203 200 202
f 204 89 88
f 205 201 204
f 206 202 205
f 207 203 206
f 208 88 87
f 209 204 208
f 210 205 209
f 211 206 210
f 212 207 211
f 213 87 86
f 214 208 213
f 215 209 214
f 216 210 215
f 217 211 216
f 218 212 217
f 219 86 64
f 220 213 219
f 221 214 220
f 222 215 221
f 223 216 222
f 224 217 223
f 225 218 224
f 198 91 199
f 199 90 201
f 200 199 202
f 201 89 204
f 202 201 205
f 203 202 206
f 204 88 208
f 205 204 209
f 206 205 210
f 207 206 211
f 208 87 213
f 209 208 214
f 210 209 215
f 211 210 216
f 212 211 217
f 213 86 219
f 214 213 220
f 215 214 221
f 216 215 222
f 217 216 223
f 218 217 224
f 226 64 63
f 227 63 62
f 228 226 227
f 229 62 61
f 230 227 229
f 231 228 230
f 232 61 60
f 233 229 232
f 234 230 233
f 235 231 234
f 236 60 59
f 237 232 236
f 238 233 237
f 239 234 238
f 240 235 239
f 241 59 58
f 242 236 241
f 243 237 242
f 244 238 243
f 245 239 244
f 246 240 245
f 247 58 36
f 248 241 247
f 249 242 248
f 250 243 249
f 251 244 250
f 252 245 251
f 253 246 252
f 226 63 227
f 227 62 229
f 228 227 230
f 229 61 232
f 230 229 233
f 231 230 234
f 232 60 236
f 233 232 237
f 234 233 238
f 235 234 239
f 236 59 241
f 237 236 242
f 238 237 243
f 239 238 244
f 240 239 245
f 241 58 247
f 242 241 248
f 243 242 249
f 244 243 250
f 245 244 251
f 246 245 252
f 254 36 35
f 255 35 34
f 256 254 255
f 257 34 33
f 258 255 257
f 259 256 258
f 260 33 32
f 261 257 260
f 262 258 261
f 263 259 262
f 264 32 31
f 265 260 264
f 266 261 265
f 267 262 266
f 268 263 267
f 269 31 30
f 270 264 269
f 271 265 270
f 272 266 271
f 273 267 272
f 274 268 273
f 275 30 29
f 276 269 275
f 277 270 276
f 278 271 277
f 279 272 278
f 280 273 279
f 281 274 280
f 254 35 255
f 255 34 257
f 256 255 258
f 257 33 260
f 258 257 261
f 259 258 262
f 260 32 264
f 261 260 265
f 262 261 266
f 263 262 267
f 264 31 269
f 265 264 270
f 266 265 271
f 267 266 272
f 268 267 273
f 269 30 275
f 270 269 276
f 271 270 277
f 272 271 278
f 273 272 279
f 274 273 280
f 275 29 142
f 282 142 144
f 276 275 282
f 283 144 147
f 284 282 283
f 277 276 284
f 285 147 151
f 286 283 285
f 287 284 286
f 278 277 287
f 288 151 156
f 289 285 288
f 290 286 289
f 291 287 290
f 279 278 291
f 292 156 162
f 293 288 292
f 294 289 293
f 295 290 294
f 296 291 295
f 280 279 296
f 297 162 169
f 298 292 297
f 299 293 298
f 300 294 299
f 301 295 300
f 302 296 301
f 281 280 302
f 275 142 282
f 282 144 283
f 276 282 284
f 283 147 285
f 284 283 286
f 277 284 287
f 285 151 288
f 286 285 289
f 287 286 290
f 278 287 291
f 288 156 292
f 289 288 293
f 290 289 294
f 291 290 295
f 279 291 296
f 292 162 297
f 293 292 298
f 294 293 299
f 295 294 300
f 296 295 301
f 280 296 302
f 163 120 170
f 303 170 172
f 164 163 303
f 304 172 175
f 305 303 304
f 165 164 305
f 306 175 179
f 307 304 306
f 308 305 307
f 166 165 308
f 309 179 184
f 310 306 309
f 311 307 310
f 312 308 311
f 167 166 312
f 313 184 190
f 314 309 313
f 315 310 314
f 316 311 315
f 317 312 316
f 168 167 317
f 318 190 197
f 319 313 318
f 320 314 319
f 321 315 320
f 322 316 321
f 323 317 322
f 169 168 323
f 163 170 303
f 303 172 304
f 164 303 305
f 304 175 306
f 305 304 307
f 165 305 308
f 306 179 309
f 307 306 310
f 308 307 311
f 166 308 312
f 309 184 313
f 310 309 314
f 311 310 315
f 312 311 316
f 167 312 317
f 313 190 318
f 314 313 319
f 315 314 320
f 316 315 321
f 317 316 322
f 168 317 323
f 191 92 198
f 324 198 200
f 192 191 324
f 325 200 203
f 326 324 325
f 193 192 326
f 327 203 207
f 328 325 327
f 329 326 328
f 194 193 329
f 330 207 212
f 331 327 330
f 332 328 331
f 333 329 332
f 195 194 333
f 334 212 218
f 335 330 334
f 336 331 335
f 337 332 336
f 338 333 337
f 196 195 338
f 339 218 225
f 340 334 339
f 341 335 340
f 342 336 341
f 343 337 342
f 344 338 343
f 197 196 344
f 191 198 324
f 324 200 325
f 192 324 326
f 325 203 327
f 326 325 328
f 193 326 329
f 327 207 330
f 328 327 331
f 329 328 332
f 194 329 333
f 330 212 334
f 331 330 335
f 332 331 336
f 333 332 337
f 195 333 338
f 334 218 339
f 335 334 340
f 336 335 341
f 337 336 342
f 338 337 343
f 196 338 344
f 219 64 226
f 345 226 228
f 220 219 345
f 346 228 231
f 347 345 346
f 221 220 347
f 348 231 235
f 349 346 348
f 350 347 349
f 222 221 350
f 351 235 240
f 352 348 351
f 353 349 352
f 354 350 353
f 223 222 354
f 355 240 246
f 356 351 355
f 357 352 356
f 358 353 357
f 359 354 358
f 224 223 359
f 360 246 253
f 361 355 360
f 362 356 361
f 363 357 362
f 364 358 363
f 365 359 364
f 225 224 365
f 219 226 345
f 345 228 346
f 220 345 347
f 346 231 348
f 347 346 349
f 221 347 350
f 348 235 351
f 349 348 352
f 350 349 353
f 222 350 354
f 351 240 355
f 352 351 356
f 353 352 357
f 354 353 358
f 223 354 359
f 355 246 360
f 356 355 361
f 357 356 362
f 358 357 363
f 359 358 364
f 224 359 365
f 247 36 254
f 366 254 256
f 248 247 366
f 367 256 259
f 368 366 367
f 249 248 368
f 369 259 263
f 370 367 369
f 371 368 370
f 250 249 371
f 372 263 268
f 373 369 372
f 374 370 373
f 375 371 374
f 251 250 375
f 376 268 274
f 377 372 376
f 378 373 377
f 379 374 378
f 380 375 379
f 252 251 380
f 381 274 281
f 382 376 381
f 383 377 382
f 384 378 383
f 385 379 384
f 386 380 385
f 253 252 386
f 247 254 366
f 366 256 367
f 248 366 368
f 367 259 369
f 368 367 370
f 249 368 371
f 369 263 372
f 370 369 373
f 371 370 374
f 250 371 375
f 372 268 376
f 373 372 377
f 374 373 378
f 375 374 379
f 251 375 380
f 376 274 381
f 377 376 382
f 378 377 383
f 379 378 384
f 380 379 385
f 252 380 386
f 389 387 388
f 391 388 390
f 392 389 391
f 394 390 393
f 395 391 394
f 396 392 395
f 398 393 397
f 399 394 398
f 400 395 399
f 401 396 400
f 403 397 402
f 404 398 403
f 405 399 404
f 406 400 405
f 407 401 406
f 409 402 408
f 410 403 409
f 411 404 410
f 412 405 411
f 413 406 412
f 414 407 413
f 302 408 281
f 301 409 302
f 300 410 301
f 299 411 300
f 298 412 299
f 297 413 298
f 169 414 297
f 389 388 391
f 391 390 394
f 392 391 395
f 394 393 398
f 395 394 399
f 396 395 400
f 398 397 403
f 399 398 404
f 400 399 405
f 401 400 406
f 403 402 409
f 404 403 410
f 405 404 411
f 406 405 412
f 407 406 413
f 409 408 302
f 410 409 301
f 411 410 300
f 412 411 299
f 413 412 298
f 414 413 297
f 388 387 415
f 417 415 416
f 390 388 417
f 419 416 418
f 420 417 419
f 393 390 420
f 422 418 421
f 423 419 422
f 424 420 423
f 397 393 424
f 426 421 425
f 427 422 426
f 428 423 427
f 429 424 428
f 402 397 429
f 431 425 430
f 432 426 431
f 433 427 432
f 434 428 433
f 435 429 434
f 408 402 435
f 386 430 253
f 385 431 386
f 384 432 385
f 383 433 384
f 382 434 383
f 381 435 382
f 281 408 381
f 388 415 417
f 417 416 419
f 390 417 420
f 419 418 422
f 420 419 423
f 393 420 424
f 422 421 426
f 423 422 427
f 424 423 428
f 397 424 429
f 426 425 431
f 427 426 432
f 428 427 433
f 429 428 434
f 402 429 435
f 431 430 386
f 432 431 385
f 433 432 384
f 434 433 383
f 435 434 382
f 408 435 381
f 415 387 436
f 438 436 437
f 416 415 438
f 440 437 439
f 441 438 440
f 418 416 441
f 443 439 442
f 444 440 443
f 445 441 444
f 421 418 445
f 447 442 446
f 448 443 447
f 449 444 448
f 450 445 449
f 425 421 450
f 452 446 451
f 453 447 452
f 454 448 453
f 455 449 454
f 456 450 455
f 430 425 456
f 365 451 225
f 364 452 365
f 363 453 364
f 362 454 363
f 361 455 362
f 360 456 361
f 253 430 360
f 415 436 438
f 438 437 440
f 416 438 441
f 440 439 443
f 441 440 444
f 418 441 445
f 443 442 447
f 444 443 448
f 445 444 449
f 421 445 450
f 447 446 452
f 448 447 453
f 449 448 454
f 450 449 455
f 425 450 456
f 452 451 365
f 453 452 364
f 454 453 363
f 455 454 362
f 456 455 361
f 430 456 360
f 436 387 457
f 459 457 458
f 437 436 459
f 461 458 460
f 462 459 461
f 439 437 462
f 464 460 463
f 465 461 464
f 466 462 465
f 442 439 466
f 468 463 467
f 469 464 468
f 470 465 469
f 471 466 470
f 446 442 471
f 473 467 472
f 474 468 473
f 475 469 474
f 476 470 475
f 477 471 476
f 451 446 477
f 344 472 197
f 343 473 344
f 342 474 343
f 341 475 342
f 340 476 341
f 339 477 340
f 225 451 339
f 436 457 459
f 459 458 461
f 437 459 462
f 461 460 464
f 462 461 465
f 439 462 466
f 464 463 468
f 465 464 469
f 466 465 470
f 442 466 471
f 468 467 473
f 469 468 474
f 470 469 475
f 471 470 476
f 446 471 477
f 473 472 344
f 474 473 343
f 475 474 342
f 476 475 341
f 477 476 340
f 451 477 339
f 457 387 389
f 478 389 392
f 458 457 478
f 479 392 396
f 480 478 479
f 460 458 480
f 481 396 401
f 482 479 481
f 483 480 482
f 463 460 483
f 484 401 407
f 485 481 484
f 486 482 485
f 487 483 486
f 467 463 487
f 488 407 414
f 489 484 488
f 490 485 489
f 491 486 490
f 492 487 491
f 472 467 492
f 323 414 169
f 322 488 323
f 321 489 322
f 320 490 321
f 319 491 320
f 318 492 319
f 197 472 318
f 457 389 478
f 478 392 479
f 458 478 480
f 479 396 481
f 480 479 482
f 460 480 483
f 481 401 484
f 482 481 485
f 483 482 486
f 463 483 487
f 484 407 488
f 485 484 489
f 486 485 490
f 487 486 491
f 467 487 492
f 488 414 323
f 489 488 322
f 490 489 321
f 491 490 320
f 492 491 319
f 472 492 318
