# File exported by Houdini 20.5.445 (www.sidefx.com)
# 492 points
# 2940 vertices
# 980 primitives
# Bounds: [-100.067261, -204.234863, -1140.69775] to [270.841156, 320.611969, -614.103271]
g 
v 102.077728 137.877808 -1030.61877
v 92.3159485 175.043701 -1015.43201
v 113.549957 146.653442 -1003.67993
v 83.4020691 209.398651 -997.997314
v 103.821198 186.169434 -982.740723
v 124.872833 152.093567 -973.696899
v 77.7124329 239.900482 -978.646973
v 96.884491 220.249634 -961.166748
v 116.35495 191.688995 -948.707031
v 136.81839 152.368347 -941.723267
v 75.599823 265.916626 -957.2948
v 93.999176 248.795227 -938.636963
v 112.110443 223.971283 -924.285278
v 130.556061 190.306152 -914.521729
v 150.204132 146.841095 -908.127075
v 76.3170471 287.189514 -934.124023
v 94.5993958 272.205872 -914.841309
v 112.157867 250.002075 -899.30127
v 129.342865 220.127472 -888.155029
v 146.89212 182.117432 -880.193237
v 165.19809 137.005035 -873.022705
v 78.5176697 303.645874 -909.893921
v 97.4508972 291.009003 -889.865601
v 115.38913 271.091949 -873.152466
v 132.423615 243.847778 -860.803711
v 148.929718 209.478455 -852.217651
v 165.347321 169.489197 -844.951782
v 181.487213 125.630974 -836.806763
v 80.7550354 314.927704 -885.874878
v 101.219025 305.371826 -864.009521
v 120.438385 288.155792 -845.586304
v 138.515839 263.367432 -831.525635
v 155.310883 231.617249 -821.873291
v 170.976715 194.867706 -814.894775
v 185.597565 155.744446 -808.005981
v 198.693939 115.628181 -800.33374
v 117.767181 104.081444 -1028.0614
v 131.16098 109.123833 -999.471313
v 130.808746 66.8021393 -1022.46326
v 143.315887 110.403114 -968.399292
v 145.019073 68.9308929 -991.712524
v 139.964508 26.5130615 -1011.76331
v 155.588959 107.024345 -934.654663
v 157.756378 67.4205017 -958.150513
v 154.928192 26.6804085 -978.338135
v 145.351654 -15.4812012 -995.029297
v 168.781708 99.4883499 -897.92395
v 170.433502 62.0009651 -921.096191
v 168.445953 23.281395 -941.670044
v 161.406464 -16.8984375 -959.145142
v 147.95694 -57.5633774 -973.050659
v 183.288483 89.6614838 -858.202881
v 183.949005 53.6211739 -879.904297
v 182.010468 16.4431229 -900.641968
v 176.19516 -22.0000229 -919.366821
v 165.489227 -60.7448807 -935.297974
v 149.13681 -97.740303 -947.734375
v 199.517426 80.3812866 -816.092896
v 199.245087 44.5271263 -834.334839
v 196.956329 7.64605904 -854.091797
v 191.578705 -30.1115723 -873.936035
v 182.224518 -67.6370163 -892.466797
v 168.362335 -102.94149 -908.512695
v 150.029938 -133.586975 -921.093628
v 99.4345398 107.497993 -1052.25183
v 113.450348 69.0946045 -1048.48328
v 94.0542908 76.2886963 -1069.06677
v 123.21817 28.5450439 -1039.99133
v 105.321136 35.1381416 -1061.9873
v 85.3827209 45.0914612 -1080.85242
v 128.426544 -13.8349228 -1025.04224
v 111.637604 -7.28504944 -1049.1062
v 93.7260437 2.35523224 -1068.98071
v 73.5915222 14.4181175 -1086.98499
v 130.059906 -56.722374 -1003.6615
v 113.359833 -50.89608 -1029.04578
v 96.7992249 -41.1149368 -1050.88123
v 78.8251038 -29.0785446 -1069.74573
v 58.5372009 -14.7484283 -1087.25854
v 129.712494 -98.6977615 -976.944214
v 111.787689 -94.407341 -1002.1803
v 95.1174011 -85.3812332 -1025.22729
v 78.3937683 -72.886116 -1046.16382
v 60.1330872 -58.2267838 -1064.84424
v 40.0765076 -40.7646027 -1081.84058
v 129.033783 -137.810852 -946.546753
v 108.68985 -136.147644 -969.658691
v 89.8663635 -129.048462 -991.987427
v 72.5057068 -117.042152 -1014.46521
v 55.1833801 -101.587074 -1035.86804
v 37.0007629 -83.5180893 -1055.15845
v 18.502594 -62.3338089 -1072.00146
v 84.9923401 150.156036 -1046.78638
v 81.2598572 118.023842 -1069.39258
v 69.2290955 159.922943 -1062.17542
v 74.9039001 86.2751312 -1086.33264
v 64.9593201 126.258308 -1085.46423
v 55.1954041 168.047424 -1077.20032
v 65.3849792 55.4043541 -1097.77283
v 57.7185364 94.3259506 -1102.25806
v 50.292572 133.766388 -1101.0072
v 42.4629822 175.137451 -1091.79236
v 52.5718689 25.5618134 -1103.10413
v 46.95224 64.0271759 -1112.89929
v 41.6982727 102.342583 -1117.5282
v 36.4191589 141.172546 -1115.66199
v 30.2342834 181.099426 -1104.89453
v 35.8782654 -2.31395531 -1101.6322
v 32.0901184 35.4619064 -1116.54651
v 28.820343 73.2494659 -1126.82166
v 25.858551 110.959602 -1131.12708
v 22.4947205 148.471924 -1127.71228
v 17.8830872 185.676727 -1114.68066
v 14.7255554 -26.937973 -1093.31689
v 12.0093079 9.59307671 -1111.8418
v 10.4806213 46.8218193 -1127.16052
v 9.81924438 84.0291901 -1137.43164
v 9.26669312 120.473671 -1140.29883
v 7.88284302 155.609985 -1134.35498
v 5.20755005 188.958221 -1119.02014
v 74.316864 188.85553 -1032.36536
v 59.0852356 199.417694 -1047.53699
v 65.7765808 223.015228 -1015.44775
v 46.0186462 207.634491 -1061.86267
v 51.3097229 233.197479 -1030.02625
v 60.7432556 252.554352 -996.146606
v 34.0162659 213.764771 -1075.24097
v 38.5367126 240.614655 -1042.94543
v 46.5688782 261.742615 -1009.50806
v 58.945282 277.45343 -974.045654
v 22.0003357 217.5242 -1086.74121
v 26.0080872 245.276001 -1054.56738
v 32.8479309 267.966431 -1020.85205
v 43.8846741 285.452911 -986.144653
v 59.1131897 297.621979 -949.598877
v 8.94265747 218.954224 -1094.77332
v 12.0628357 246.972473 -1064.76306
v 17.4212341 271.193359 -1031.50146
v 27.2088318 290.282318 -996.730713
v 41.5947571 304.075531 -960.867554
v 59.7159119 312.463135 -923.753296
v 67.794342 320.58786 -886.670776
v 43.683136 315.884003 -928.844482
v 53.0378113 319.94696 -889.144775
v 24.3335876 305.420868 -968.689453
v 27.3551941 312.788818 -934.671509
v 37.8164978 313.964081 -892.065918
v 10.271637 289.530029 -1006.32043
v 8.2272644 300.19635 -976.403809
v 12.0722961 304.532837 -939.640747
v 23.1737976 303.152588 -894.544922
v 1.80331421 267.904877 -1042.09143
v -4.57077026 281.962708 -1015.0365
v -6.00991821 289.690643 -982.218628
v -1.55899048 291.508301 -942.662109
v 9.84561157 288.338379 -895.827759
v -2.28170776 240.785522 -1075.35266
v -11.7345886 257.585449 -1050.91162
v -17.6228943 268.925537 -1020.83704
v -18.5208435 274.580139 -984.651367
v -13.417511 275.119232 -942.433838
v -1.8432312 271.79541 -894.976196
v -5.13424683 209.45578 -1104.05164
v -15.6246643 227.323303 -1082.85803
v -24.6587219 241.707703 -1055.36719
v -29.9710999 251.614594 -1021.45068
v -29.9610901 256.725555 -981.736206
v -24.0446472 257.651306 -937.730469
v -12.3771057 255.275391 -891.532104
v -6.50485229 172.051361 -1128.1228
v -6.49215698 135.918945 -1140.07617
v -19.8733215 156.316284 -1127.73022
v -8.08108521 99.2551956 -1140.69775
v -22.6457825 118.66935 -1134.73145
v -35.0630188 141.937988 -1117.8053
v -10.014801 61.4852562 -1131.89429
v -26.6590881 80.3580627 -1130.09204
v -40.100769 102.254112 -1120.3822
v -52.0474548 127.901436 -1100.38684
v -11.0847473 22.5805168 -1116.49487
v -30.2709656 40.3185196 -1116.73267
v -45.7779236 61.5727577 -1111.50464
v -58.2182617 85.9384613 -1098.96863
v -69.4877625 114.098396 -1077.05713
v -10.271698 -16.988121 -1096.8938
v -32.1257629 -1.4940815 -1097.52478
v -50.1997375 18.6840248 -1094.38586
v -64.3063965 42.727211 -1086.13293
v -75.5461121 70.2248993 -1071.40771
v -84.9782715 100.109535 -1049.07898
v -6.90829468 -56.7164001 -1073.90442
v -30.8799744 -44.8852615 -1073.84131
v -51.7310791 -26.9320869 -1071.09448
v -68.4126587 -3.44093704 -1064.71851
v -80.5410461 24.3674469 -1053.83276
v -89.7870789 54.2027321 -1038.15295
v -96.0874939 83.6609497 -1017.62109
v 6.6401062 -94.0161972 -1048.98584
v 26.4399719 -119.200874 -1027.04187
v -4.87930298 -121.565498 -1022.67493
v 45.6388245 -139.221558 -1003.00903
v 16.6533508 -148.13266 -996.149658
v -14.4976501 -143.292694 -993.102173
v 64.9433899 -154.737854 -978.435181
v 38.1925964 -167.879608 -968.676147
v 9.54690552 -169.477417 -962.969116
v -20.9694519 -157.813141 -960.213379
v 86.2273865 -165.063599 -955.525757
v 61.7112732 -181.75705 -943.251221
v 35.0522766 -187.547058 -934.144531
v 6.67062378 -182.220551 -928.199707
v -22.2228088 -164.772461 -925.272095
v 110.207489 -169.544922 -933.612061
v 88.6286926 -189.622314 -920.449097
v 64.301239 -198.78656 -908.774536
v 37.6506042 -197.388367 -899.536743
v 10.1894836 -185.873108 -893.335815
v -15.9462585 -164.426819 -890.624268
v 136.353485 -166.692871 -910.042725
v 119.170074 -189.993134 -897.486206
v 98.2444763 -202.490173 -884.693359
v 73.9176941 -204.234863 -873.235962
v 47.9198914 -196.383789 -864.553833
v 22.2206726 -180.141327 -859.355591
v -0.65133667 -156.482605 -858.238525
v 164.301666 -145.987 -887.380005
v 184.25235 -112.151955 -869.240967
v 179.386627 -150.468872 -852.771606
v 198.265533 -74.3660965 -848.713745
v 200.006439 -112.931908 -830.437378
v 193.977448 -145.427856 -816.913574
v 207.44046 -34.8849182 -827.368042
v 213.948334 -72.2072983 -807.025269
v 214.873932 -104.606148 -791.91687
v 207.373627 -130.131165 -780.189209
v 212.910858 5.08784676 -806.681885
v 223.16922 -29.9418907 -784.26001
v 229.050262 -60.9137497 -767.020142
v 228.533417 -86.7766953 -753.779541
v 219.190094 -105.397316 -743.796875
v 215.64328 45.3355064 -788.132446
v 229.079071 13.6100616 -763.664795
v 238.957672 -15.0779572 -743.828247
v 243.388763 -40.1491776 -728.410645
v 240.809418 -60.0524292 -716.630554
v 229.451813 -73.5248489 -708.560974
v 216.39328 86.3044891 -772.918457
v 232.60849 58.8712349 -746.777466
v 246.127777 33.23806 -723.916321
v 254.754669 9.64892578 -705.409851
v 256.773712 -10.5840607 -691.214661
v 250.907074 -26.0577736 -681.380676
v 237.197601 -36.3383713 -676.550049
v 209.303131 132.713379 -770.529419
v 195.088593 174.998138 -778.217285
v 219.642059 151.173248 -743.937988
v 179.340057 214.558716 -785.277344
v 203.093719 194.483185 -752.773804
v 227.471344 170.517731 -720.957153
v 162.213654 250.365601 -793.375854
v 185.056732 233.419647 -760.973999
v 207.903229 213.445984 -731.383728
v 230.729767 189.785797 -701.776184
v 143.066986 280.256989 -805.574463
v 165.115387 267.188782 -771.25708
v 186.752899 250.496979 -741.166748
v 207.964752 230.939362 -713.575073
v 227.889557 208.175812 -686.359558
v 121.550323 302.773193 -823.400757
v 142.266449 294.091827 -786.973755
v 162.890045 280.987976 -754.134033
v 183.096832 264.772461 -724.977966
v 201.869598 245.951538 -698.957703
v 217.935516 223.858978 -674.47998
v 97.0088196 316.600891 -847.78833
v 115.104523 312.441925 -810.492432
v 134.280731 303.335724 -774.852661
v 153.595551 290.66745 -742.115967
v 171.976654 275.23233 -713.423889
v 188.001984 256.798859 -688.677246
v 200.929169 234.9953 -666.850403
v 83.8239441 320.611969 -845.791626
v 69.0904846 317.69223 -845.626953
v 101.569427 314.938354 -806.344482
v 53.8479309 309.44632 -846.36084
v 86.5770569 310.517578 -804.41394
v 120.238983 305.223907 -768.981079
v 38.7793274 296.291656 -847.592163
v 70.8714294 300.664642 -804.172852
v 104.785553 300.193268 -765.988525
v 139.01474 292.671356 -734.906006
v 24.4949646 279.61026 -848.451294
v 54.8792419 285.695435 -805.012939
v 88.1488342 288.806732 -765.13623
v 122.704132 286.596008 -730.810669
v 156.54245 276.472961 -704.80011
v 10.9327087 261.153931 -847.988525
v 38.9407654 266.496063 -805.561646
v 70.8318787 270.500275 -765.331909
v 105.121368 271.44281 -728.834412
v 139.62851 266.925842 -698.945129
v 172.002533 254.786102 -678.291321
v -17.5480042 192.881195 -1109.36658
v -31.2264099 178.432281 -1104.09277
v -28.4015808 210.692627 -1083.39868
v -46.7254028 165.60434 -1089.90674
v -41.9277954 197.008209 -1072.82312
v -37.1788025 224.996796 -1050.60742
v -63.6956482 153.019989 -1069.22668
v -56.7669373 185.064728 -1053.9884
v -49.7257996 211.7948 -1034.60522
v -41.4841919 235.088104 -1011.10864
v -80.1670227 139.440308 -1043.03772
v -72.3817444 172.537872 -1029.42163
v -62.7373962 199.775635 -1010.54858
v -52.1431885 221.934082 -989.375244
v -39.6217346 240.579346 -965.510742
v -93.3206787 121.825661 -1011.69202
v -86.140625 155.701782 -999.073242
v -75.0382996 184.404724 -980.426025
v -61.5697632 207.669067 -958.88208
v -46.8477173 226.065277 -937.19397
v -30.5065002 241.235992 -914.984497
v -21.8246765 -86.2949753 -1048.66309
v -34.2816467 -109.370384 -1020.97351
v -46.7120667 -70.9439316 -1045.93567
v -43.5488892 -125.459373 -989.915039
v -58.6525269 -88.9154129 -1015.81665
v -67.0656738 -48.4447632 -1039.97986
v -47.9906006 -135.003815 -955.406006
v -65.9923706 -100.356224 -982.311646
v -77.2966003 -61.8129807 -1006.65259
v -82.1190491 -20.0692177 -1030.08838
v -44.8313599 -138.023926 -918.544922
v -66.0647888 -105.989113 -945.642456
v -80.7338867 -69.3766861 -970.250488
v -89.1835938 -29.5219536 -993.328735
v -92.1941833 12.1499996 -1016.0426
v -30.8424988 -133.726959 -880.89209
v -55.1567383 -104.959953 -906.117188
v -73.6322021 -71.024498 -930.401489
v -86.9998474 -33.3538055 -953.457031
v -95.534729 6.33782005 -975.960571
v -98.6975403 46.0401726 -997.719727
v 151.190765 -177.358795 -875.311035
v 166.127533 -176.786682 -840.672363
v 133.897186 -195.266418 -862.192017
v 179.39151 -164.494324 -805.06897
v 147.508881 -187.435181 -827.642944
v 112.064972 -200.731476 -849.368164
v 191.79483 -141.068909 -768.726074
v 160.236176 -167.45636 -792.790894
v 125.110687 -185.589966 -815.763428
v 87.1783142 -195.516327 -838.697876
v 203.242828 -108.256065 -731.821167
v 172.348541 -136.562805 -756.77063
v 137.554413 -158.460815 -781.818237
v 99.8437195 -173.520172 -806.369995
v 60.6590271 -181.033875 -831.325195
v 213.292816 -67.0229645 -695.7453
v 183.924835 -94.7772751 -719.789368
v 149.913483 -118.801826 -746.53418
v 112.443451 -137.959808 -773.908936
v 73.2778625 -151.144958 -800.988159
v 34.5959167 -157.449738 -828.390991
v 230.10965 105.348717 -740.383118
v 241.836456 125.363426 -713.29364
v 247.887115 80.7972412 -713.272827
v 248.825531 145.856171 -691.08783
v 258.916168 102.612953 -686.624573
v 260.831512 58.0658379 -690.466064
v 249.114838 166.80838 -673.450562
v 263.176727 124.930305 -665.618896
v 269.229767 82.2082977 -664.537231
v 267.002167 37.5456619 -672.376831
v 240.967377 187.039551 -659.98407
v 258.452362 148.046082 -649.296265
v 268.877838 107.383354 -644.322266
v 270.841156 65.0233459 -646.924927
v 264.44931 20.7078972 -658.98175
v 223.244781 204.2742 -650.470886
v 242.212006 170.009338 -637.114929
v 256.105988 132.91684 -628.837036
v 262.717499 93.4016037 -627.593567
v 261.005157 51.5517311 -634.974854
v 251.814667 7.91498184 -651.601624
v 47.6335144 100.884941 -732.370239
v 76.3318176 128.345764 -696.290894
v 28.6022644 128.875031 -744.018677
v 105.638092 153.609406 -667.163147
v 58.6860046 157.1539 -710.010071
v 14.3095398 156.095276 -759.08313
v 133.913116 175.986694 -648.303223
v 88.4433899 182.035889 -685.637329
v 45.6593933 183.092896 -729.074829
v 4.95431519 182.421143 -778.051392
v 158.827789 195.427948 -640.412354
v 116.005341 204.085388 -671.470276
v 74.9138489 206.646606 -709.627014
v 36.0293884 206.965485 -752.713989
v -0.804718018 206.601715 -801.161865
v 178.63382 211.702789 -642.588745
v 139.622528 223.934814 -666.436157
v 100.72879 228.356171 -699.100281
v 63.2286072 228.989105 -737.640076
v 27.6961365 228.224121 -780.72522
v -5.07919312 226.636749 -828.804321
v 192.656464 224.745758 -652.433228
v 158.399872 241.21698 -669.124939
v 122.325165 248.819977 -695.853638
v 86.0662537 250.474274 -730.158691
v 51.2557678 248.964294 -769.55835
v 19.1821594 246.096283 -812.786621
v -9.07058716 242.244019 -859.679321
v 86.7984314 89.4458618 -700.628601
v 125.237946 75.7279968 -674.829407
v 119.417084 118.308205 -662.722717
v 159.597076 57.5509758 -657.830261
v 158.907623 104.403343 -639.717041
v 149.736298 142.732574 -636.510559
v 188.365875 35.1658058 -650.069092
v 192.578094 84.982254 -628.327087
v 188.011871 126.717796 -619.612183
v 176.637482 162.795898 -623.652893
v 211.064728 10.4651699 -650.810669
v 219.898529 61.221981 -627.11792
v 219.819794 105.05616 -615.089844
v 212.374237 143.762329 -614.103271
v 198.503021 179.015869 -623.407349
v 227.260101 -14.3700256 -659.969543
v 239.970184 34.5888023 -634.985168
v 244.847076 79.4462585 -620.430298
v 241.595612 120.111748 -616.041931
v 230.935883 157.504608 -620.853943
v 214.223785 192.36615 -633.4375
v 43.7010803 64.3497772 -750.69165
v 39.2253113 25.4537849 -769.489746
v 84.5636902 47.5338249 -720.557983
v 32.1706848 -14.7509308 -787.985474
v 78.8227234 3.765131 -741.680969
v 120.986786 28.2989845 -698.450256
v 21.9632874 -55.1913376 -805.995239
v 68.5709534 -40.4734573 -763.45459
v 111.73056 -19.7577515 -723.537109
v 151.571136 5.6740818 -685.091309
v 10.6653137 -93.9764328 -823.461304
v 55.5890198 -83.5169601 -785.017456
v 98.9797058 -66.5490723 -748.954834
v 139.627533 -44.6963806 -713.583313
v 177.115021 -18.8506966 -679.807861
v 2.15463257 -128.461578 -840.42981
v 43.2044983 -123.309029 -806.234375
v 85.1471863 -110.953926 -774.403564
v 125.747467 -92.853569 -742.934692
v 163.587006 -70.1521225 -711.891174
v 197.715668 -43.8030319 -683.213379
v 8.04244995 91.1652069 -777.001465
v -27.719696 84.6841736 -820.949951
v 1.27682495 51.808033 -798.196777
v -58.099762 83.0829315 -863.327637
v -35.3630066 44.4057503 -842.390991
v -4.81735229 12.823616 -817.120605
v -81.2068481 85.157547 -904.191284
v -65.1334534 42.5824471 -883.098267
v -41.2098999 5.94179535 -859.815552
v -12.0670471 -25.9391403 -833.689453
v -95.4030457 87.8274078 -943.705933
v -86.4241028 44.2846565 -921.671143
v -69.3852844 4.24918365 -898.797363
v -47.0438232 -31.7982559 -874.696655
v -20.7684021 -64.3496246 -849.093628
v -100.067261 87.8730164 -981.736084
v -97.7920227 46.3845406 -959.617676
v -87.9963684 5.35128593 -936.740234
v -72.5348511 -33.4510689 -913.450073
v -52.8314209 -69.1532974 -889.522827
v -28.6619568 -101.110435 -864.542236
v -11.3647766 123.009132 -791.843384
v -23.3123474 153.81546 -808.432251
v -44.2422485 121.320107 -837.459595
v -28.9167175 182.533051 -828.294434
v -51.8378296 155.182617 -855.639038
v -69.7202759 123.482414 -881.942017
v -30.5882263 207.245667 -852.587524
v -52.9510803 184.935089 -877.36792
v -72.2045898 158.506226 -902.785645
v -86.9527588 126.708763 -925.920776
v -30.8467102 226.515747 -882.004517
v -50.5714111 208.798096 -904.294678
v -68.5794067 186.984772 -927.77832
v -84.0058594 160.006683 -950.667725
v -94.9611511 127.155434 -969.391968
g 
f 3 1 2
f 5 2 4
f 6 3 5
f 8 4 7
f 9 5 8
f 10 6 9
f 12 7 11
f 13 8 12
f 14 9 13
f 15 10 14
f 17 11 16
f 18 12 17
f 19 13 18
f 20 14 19
f 21 15 20
f 23 16 22
f 24 17 23
f 25 18 24
f 26 19 25
f 27 20 26
f 28 21 27
f 30 22 29
f 31 23 30
f 32 24 31
f 33 25 32
f 34 26 33
f 35 27 34
f 36 28 35
f 3 2 5
f 5 4 8
f 6 5 9
f 8 7 12
f 9 8 13
f 10 9 14
f 12 11 17
f 13 12 18
f 14 13 19
f 15 14 20
f 17 16 23
f 18 17 24
f 19 18 25
f 20 19 26
f 21 20 27
f 23 22 30
f 24 23 31
f 25 24 32
f 26 25 33
f 27 26 34
f 28 27 35
f 37 1 3
f 38 3 6
f 39 37 38
f 40 6 10
f 41 38 40
f 42 39 41
f 43 10 15
f 44 40 43
f 45 41 44
f 46 42 45
f 47 15 21
f 48 43 47
f 49 44 48
f 50 45 49
f 51 46 50
f 52 21 28
f 53 47 52
f 54 48 53
f 55 49 54
f 56 50 55
f 57 51 56
f 58 28 36
f 59 52 58
f 60 53 59
f 61 54 60
f 62 55 61
f 63 56 62
f 64 57 63
f 37 3 38
f 38 6 40
f 39 38 41
f 40 10 43
f 41 40 44
f 42 41 45
f 43 15 47
f 44 43 48
f 45 44 49
f 46 45 50
f 47 21 52
f 48 47 53
f 49 48 54
f 50 49 55
f 51 50 56
f 52 28 58
f 53 52 59
f 54 53 60
f 55 54 61
f 56 55 62
f 57 56 63
f 65 1 37
f 66 37 39
f 67 65 66
f 68 39 42
f 69 66 68
f 70 67 69
f 71 42 46
f 72 68 71
f 73 69 72
f 74 70 73
f 75 46 51
f 76 71 75
f 77 72 76
f 78 73 77
f 79 74 78
f 80 51 57
f 81 75 80
f 82 76 81
f 83 77 82
f 84 78 83
f 85 79 84
f 86 57 64
f 87 80 86
f 88 81 87
f 89 82 88
f 90 83 89
f 91 84 90
f 92 85 91
f 65 37 66
f 66 39 68
f 67 66 69
f 68 42 71
f 69 68 72
f 70 69 73
f 71 46 75
f 72 71 76
f 73 72 77
f 74 73 78
f 75 51 80
f 76 75 81
f 77 76 82
f 78 77 83
f 79 78 84
f 80 57 86
f 81 80 87
f 82 81 88
f 83 82 89
f 84 83 90
f 85 84 91
f 93 1 65
f 94 65 67
f 95 93 94
f 96 67 70
f 97 94 96
f 98 95 97
f 99 70 74
f 100 96 99
f 101 97 100
f 102 98 101
f 103 74 79
f 104 99 103
f 105 100 104
f 106 101 105
f 107 102 106
f 108 79 85
f 109 103 108
f 110 104 109
f 111 105 110
f 112 106 111
f 113 107 112
f 114 85 92
f 115 108 114
f 116 109 115
f 117 110 116
f 118 111 117
f 119 112 118
f 120 113 119
f 93 65 94
f 94 67 96
f 95 94 97
f 96 70 99
f 97 96 100
f 98 97 101
f 99 74 103
f 100 99 104
f 101 100 105
f 102 101 106
f 103 79 108
f 104 103 109
f 105 104 110
f 106 105 111
f 107 106 112
f 108 85 114
f 109 108 115
f 110 109 116
f 111 110 117
f 112 111 118
f 113 112 119
f 2 1 93
f 121 93 95
f 4 2 121
f 122 95 98
f 123 121 122
f 7 4 123
f 124 98 102
f 125 122 124
f 126 123 125
f 11 7 126
f 127 102 107
f 128 124 127
f 129 125 128
f 130 126 129
f 16 11 130
f 131 107 113
f 132 127 131
f 133 128 132
f 134 129 133
f 135 130 134
f 22 16 135
f 136 113 120
f 137 131 136
f 138 132 137
f 139 133 138
f 140 134 139
f 141 135 140
f 29 22 141
f 2 93 121
f 121 95 122
f 4 121 123
f 122 98 124
f 123 122 125
f 7 123 126
f 124 102 127
f 125 124 128
f 126 125 129
f 11 126 130
f 127 107 131
f 128 127 132
f 129 128 133
f 130 129 134
f 16 130 135
f 131 113 136
f 132 131 137
f 133 132 138
f 134 133 139
f 135 134 140
f 22 135 141
f 142 29 141
f 143 141 140
f 144 142 143
f 145 140 139
f 146 143 145
f 147 144 146
f 148 139 138
f 149 145 148
f 150 146 149
f 151 147 150
f 152 138 137
f 153 148 152
f 154 149 153
f 155 150 154
f 156 151 155
f 157 137 136
f 158 152 157
f 159 153 158
f 160 154 159
f 161 155 160
f 162 156 161
f 163 136 120
f 164 157 163
f 165 158 164
f 166 159 165
f 167 160 166
f 168 161 167
f 169 162 168
f 142 141 143
f 143 140 145
f 144 143 146
f 145 139 148
f 146 145 149
f 147 146 150
f 148 138 152
f 149 148 153
f 150 149 154
f 151 150 155
f 152 137 157
f 153 152 158
f 154 153 159
f 155 154 160
f 156 155 161
f 157 136 163
f 158 157 164
f 159 158 165
f 160 159 166
f 161 160 167
f 162 161 168
f 170 120 119
f 171 119 118
f 172 170 171
f 173 118 117
f 174 171 173
f 175 172 174
f 176 117 116
f 177 173 176
f 178 174 177
f 179 175 178
f 180 116 115
f 181 176 180
f 182 177 181
f 183 178 182
f 184 179 183
f 185 115 114
f 186 180 185
f 187 181 186
f 188 182 187
f 189 183 188
f 190 184 189
f 191 114 92
f 192 185 191
f 193 186 192
f 194 187 193
f 195 188 194
f 196 189 195
f 197 190 196
f 170 119 171
f 171 118 173
f 172 171 174
f 173 117 176
f 174 173 177
f 175 174 178
f 176 116 180
f 177 176 181
f 178 177 182
f 179 178 183
f 180 115 185
f 181 180 186
f 182 181 187
f 183 182 188
f 184 183 189
f 185 114 191
f 186 185 192
f 187 186 193
f 188 187 194
f 189 188 195
f 190 189 196
f 198 92 91
f 199 91 90
f 200 198 199
f 201 90 89
f 202 199 201
f 203 200 202
f 204 89 88
f 205 201 204
f 206 202 205
f 207 203 206
f 208 88 87
f 209 204 208
f 210 205 209
f 211 206 210
f 212 207 211
f 213 87 86
f 214 208 213
f 215 209 214
f 216 210 215
f 217 211 216
f 218 212 217
f 219 86 64
f 220 213 219
f 221 214 220
f 222 215 221
f 223 216 222
f 224 217 223
f 225 218 224
f 198 91 199
f 199 90 201
f 200 199 202
f 201 89 204
f 202 201 205
f 203 202 206
f 204 88 208
f 205 204 209
f 206 205 210
f 207 206 211
f 208 87 213
f 209 208 214
f 210 209 215
f 211 210 216
f 212 211 217
f 213 86 219
f 214 213 220
f 215 214 221
f 216 215 222
f 217 216 223
f 218 217 224
f 226 64 63
f 227 63 62
f 228 226 227
f 229 62 61
f 230 227 229
f 231 228 230
f 232 61 60
f 233 229 232
f 234 230 233
f 235 231 234
f 236 60 59
f 237 232 236
f 238 233 237
f 239 234 238
f 240 235 239
f 241 59 58
f 242 236 241
f 243 237 242
f 244 238 243
f 245 239 244
f 246 240 245
f 247 58 36
f 248 241 247
f 249 242 248
f 250 243 249
f 251 244 250
f 252 245 251
f 253 246 252
f 226 63 227
f 227 62 229
f 228 227 230
f 229 61 232
f 230 229 233
f 231 230 234
f 232 60 236
f 233 232 237
f 234 233 238
f 235 234 239
f 236 59 241
f 237 236 242
f 238 237 243
f 239 238 244
f 240 239 245
f 241 58 247
f 242 241 248
f 243 242 249
f 244 243 250
f 245 244 251
f 246 245 252
f 254 36 35
f 255 35 34
f 256 254 255
f 257 34 33
f 258 255 257
f 259 256 258
f 260 33 32
f 261 257 260
f 262 258 261
f 263 259 262
f 264 32 31
f 265 260 264
f 266 261 265
f 267 262 266
f 268 263 267
f 269 31 30
f 270 264 269
f 271 265 270
f 272 266 271
f 273 267 272
f 274 268 273
f 275 30 29
f 276 269 275
f 277 270 276
f 278 271 277
f 279 272 278
f 280 273 279
f 281 274 280
f 254 35 255
f 255 34 257
f 256 255 258
f 257 33 260
f 258 257 261
f 259 258 262
f 260 32 264
f 261 260 265
f 262 261 266
f 263 262 267
f 264 31 269
f 265 264 270
f 266 265 271
f 267 266 272
f 268 267 273
f 269 30 275
f 270 269 276
f 271 270 277
f 272 271 278
f 273 272 279
f 274 273 280
f 275 29 142
f 282 142 144
f 276 275 282
f 283 144 147
f 284 282 283
f 277 276 284
f 285 147 151
f 286 283 285
f 287 284 286
f 278 277 287
f 288 151 156
f 289 285 288
f 290 286 289
f 291 287 290
f 279 278 291
f 292 156 162
f 293 288 292
f 294 289 293
f 295 290 294
f 296 291 295
f 280 279 296
f 297 162 169
f 298 292 297
f 299 293 298
f 300 294 299
f 301 295 300
f 302 296 301
f 281 280 302
f 275 142 282
f 282 144 283
f 276 282 284
f 283 147 285
f 284 283 286
f 277 284 287
f 285 151 288
f 286 285 289
f 287 286 290
f 278 287 291
f 288 156 292
f 289 288 293
f 290 289 294
f 291 290 295
f 279 291 296
f 292 162 297
f 293 292 298
f 294 293 299
f 295 294 300
f 296 295 301
f 280 296 302
f 163 120 170
f 303 170 172
f 164 163 303
f 304 172 175
f 305 303 304
f 165 164 305
f 306 175 179
f 307 304 306
f 308 305 307
f 166 165 308
f 309 179 184
f 310 306 309
f 311 307 310
f 312 308 311
f 167 166 312
f 313 184 190
f 314 309 313
f 315 310 314
f 316 311 315
f 317 312 316
f 168 167 317
f 318 190 197
f 319 313 318
f 320 314 319
f 321 315 320
f 322 316 321
f 323 317 322
f 169 168 323
f 163 170 303
f 303 172 304
f 164 303 305
f 304 175 306
f 305 304 307
f 165 305 308
f 306 179 309
f 307 306 310
f 308 307 311
f 166 308 312
f 309 184 313
f 310 309 314
f 311 310 315
f 312 311 316
f 167 312 317
f 313 190 318
f 314 313 319
f 315 314 320
f 316 315 321
f 317 316 322
f 168 317 323
f 191 92 198
f 324 198 200
f 192 191 324
f 325 200 203
f 326 324 325
f 193 192 326
f 327 203 207
f 328 325 327
f 329 326 328
f 194 193 329
f 330 207 212
f 331 327 330
f 332 328 331
f 333 329 332
f 195 194 333
f 334 212 218
f 335 330 334
f 336 331 335
f 337 332 336
f 338 333 337
f 196 195 338
f 339 218 225
f 340 334 339
f 341 335 340
f 342 336 341
f 343 337 342
f 344 338 343
f 197 196 344
f 191 198 324
f 324 200 325
f 192 324 326
f 325 203 327
f 326 325 328
f 193 326 329
f 327 207 330
f 328 327 331
f 329 328 332
f 194 329 333
f 330 212 334
f 331 330 335
f 332 331 336
f 333 332 337
f 195 333 338
f 334 218 339
f 335 334 340
f 336 335 341
f 337 336 342
f 338 337 343
f 196 338 344
f 219 64 226
f 345 226 228
f 220 219 345
f 346 228 231
f 347 345 346
f 221 220 347
f 348 231 235
f 349 346 348
f 350 347 349
f 222 221 350
f 351 235 240
f 352 348 351
f 353 349 352
f 354 350 353
f 223 222 354
f 355 240 246
f 356 351 355
f 357 352 356
f 358 353 357
f 359 354 358
f 224 223 359
f 360 246 253
f 361 355 360
f 362 356 361
f 363 357 362
f 364 358 363
f 365 359 364
f 225 224 365
f 219 226 345
f 345 228 346
f 220 345 347
f 346 231 348
f 347 346 349
f 221 347 350
f 348 235 351
f 349 348 352
f 350 349 353
f 222 350 354
f 351 240 355
f 352 351 356
f 353 352 357
f 354 353 358
f 223 354 359
f 355 246 360
f 356 355 361
f 357 356 362
f 358 357 363
f 359 358 364
f 224 359 365
f 247 36 254
f 366 254 256
f 248 247 366
f 367 256 259
f 368 366 367
f 249 248 368
f 369 259 263
f 370 367 369
f 371 368 370
f 250 249 371
f 372 263 268
f 373 369 372
f 374 370 373
f 375 371 374
f 251 250 375
f 376 268 274
f 377 372 376
f 378 373 377
f 379 374 378
f 380 375 379
f 252 251 380
f 381 274 281
f 382 376 381
f 383 377 382
f 384 378 383
f 385 379 384
f 386 380 385
f 253 252 386
f 247 254 366
f 366 256 367
f 248 366 368
f 367 259 369
f 368 367 370
f 249 368 371
f 369 263 372
f 370 369 373
f 371 370 374
f 250 371 375
f 372 268 376
f 373 372 377
f 374 373 378
f 375 374 379
f 251 375 380
f 376 274 381
f 377 376 382
f 378 377 383
f 379 378 384
f 380 379 385
f 252 380 386
f 389 387 388
f 391 388 390
f 392 389 391
f 394 390 393
f 395 391 394
f 396 392 395
f 398 393 397
f 399 394 398
f 400 395 399
f 401 396 400
f 403 397 402
f 404 398 403
f 405 399 404
f 406 400 405
f 407 401 406
f 409 402 408
f 410 403 409
f 411 404 410
f 412 405 411
f 413 406 412
f 414 407 413
f 302 408 281
f 301 409 302
f 300 410 301
f 299 411 300
f 298 412 299
f 297 413 298
f 169 414 297
f 389 388 391
f 391 390 394
f 392 391 395
f 394 393 398
f 395 394 399
f 396 395 400
f 398 397 403
f 399 398 404
f 400 399 405
f 401 400 406
f 403 402 409
f 404 403 410
f 405 404 411
f 406 405 412
f 407 406 413
f 409 408 302
f 410 409 301
f 411 410 300
f 412 411 299
f 413 412 298
f 414 413 297
f 388 387 415
f 417 415 416
f 390 388 417
f 419 416 418
f 420 417 419
f 393 390 420
f 422 418 421
f 423 419 422
f 424 420 423
f 397 393 424
f 426 421 425
f 427 422 426
f 428 423 427
f 429 424 428
f 402 397 429
f 431 425 430
f 432 426 431
f 433 427 432
f 434 428 433
f 435 429 434
f 408 402 435
f 386 430 253
f 385 431 386
f 384 432 385
f 383 433 384
f 382 434 383
f 381 435 382
f 281 408 381
f 388 415 417
f 417 416 419
f 390 417 420
f 419 418 422
f 420 419 423
f 393 420 424
f 422 421 426
f 423 422 427
f 424 423 428
f 397 424 429
f 426 425 431
f 427 426 432
f 428 427 433
f 429 428 434
f 402 429 435
f 431 430 386
f 432 431 385
f 433 432 384
f 434 433 383
f 435 434 382
f 408 435 381
f 415 387 436
f 438 436 437
f 416 415 438
f 440 437 439
f 441 438 440
f 418 416 441
f 443 439 442
f 444 440 443
f 445 441 444
f 421 418 445
f 447 442 446
f 448 443 447
f 449 444 448
f 450 445 449
f 425 421 450
f 452 446 451
f 453 447 452
f 454 448 453
f 455 449 454
f 456 450 455
f 430 425 456
f 365 451 225
f 364 452 365
f 363 453 364
f 362 454 363
f 361 455 362
f 360 456 361
f 253 430 360
f 415 436 438
f 438 437 440
f 416 438 441
f 440 439 443
f 441 440 444
f 418 441 445
f 443 442 447
f 444 443 448
f 445 444 449
f 421 445 450
f 447 446 452
f 448 447 453
f 449 448 454
f 450 449 455
f 425 450 456
f 452 451 365
f 453 452 364
f 454 453 363
f 455 454 362
f 456 455 361
f 430 456 360
f 436 387 457
f 459 457 458
f 437 436 459
f 461 458 460
f 462 459 461
f 439 437 462
f 464 460 463
f 465 461 464
f 466 462 465
f 442 439 466
f 468 463 467
f 469 464 468
f 470 465 469
f 471 466 470
f 446 442 471
f 473 467 472
f 474 468 473
f 475 469 474
f 476 470 475
f 477 471 476
f 451 446 477
f 344 472 197
f 343 473 344
f 342 474 343
f 341 475 342
f 340 476 341
f 339 477 340
f 225 451 339
f 436 457 459
f 459 458 461
f 437 459 462
f 461 460 464
f 462 461 465
f 439 462 466
f 464 463 468
f 465 464 469
f 466 465 470
f 442 466 471
f 468 467 473
f 469 468 474
f 470 469 475
f 471 470 476
f 446 471 477
f 473 472 344
f 474 473 343
f 475 474 342
f 476 475 341
f 477 476 340
f 451 477 339
f 457 387 389
f 478 389 392
f 458 457 478
f 479 392 396
f 480 478 479
f 460 458 480
f 481 396 401
f 482 479 481
f 483 480 482
f 463 460 483
f 484 401 407
f 485 481 484
f 486 482 485
f 487 483 486
f 467 463 487
f 488 407 414
f 489 484 488
f 490 485 489
f 491 486 490
f 492 487 491
f 472 467 492
f 323 414 169
f 322 488 323
f 321 489 322
f 320 490 321
f 319 491 320
f 318 492 319
f 197 472 318
f 457 389 478
f 478 392 479
f 458 478 480
f 479 396 481
f 480 479 482
f 460 480 483
f 481 401 484
f 482 481 485
f 483 482 486
f 463 483 487
f 484 407 488
f 485 484 489
f 486 485 490
f 487 486 491
f 467 487 492
f 488 414 323
f 489 488 322
f 490 489 321
f 491 490 320
f 492 491 319
f 472 492 318
