# File exported by Houdini 20.5.445 (www.sidefx.com)
# 492 points
# 2940 vertices
# 980 primitives
# Bounds: [-145.134918, -139.171646, -1095.44824] to [315.908844, 255.548752, -659.352783]
g 
v 123.972992 96.5374298 -1076.60974
v 126.695038 133.715637 -1089.41418
v 145.094452 110.78331 -1078.20544
v 124.463287 166.15596 -1090.67761
v 147.972076 151.69339 -1085.71265
v 163.785797 121.99514 -1077.03503
v 116.336456 192.59346 -1081.18274
v 145.581451 184.729935 -1080.80737
v 166.330109 163.454697 -1078.72961
v 181.210846 129.403595 -1072.73608
v 102.85556 213.227493 -1063.69299
v 137.477509 210.175705 -1066.62732
v 163.69455 195.217484 -1068.73132
v 183.07608 169.47258 -1069.22424
v 197.769867 133.320496 -1064.67004
v 85.9981689 229.052078 -1041.35779
v 124.114838 229.451981 -1046.54333
v 155.325043 219.358932 -1051.22192
v 179.74704 199.731064 -1055.3396
v 198.396637 171.203568 -1057.08667
v 213.194489 134.548889 -1052.23718
v 68.0398865 240.940292 -1016.45276
v 106.968323 243.516434 -1022.38318
v 141.655792 237.204147 -1028.20728
v 170.804047 222.541519 -1034.30713
v 194.147186 199.877426 -1039.68372
v 212.391815 169.868942 -1041.35803
v 227.14035 134.202118 -1034.73474
v 50.0175171 248.88765 -989.71875
v 86.6963501 252.800949 -994.415039
v 122.606781 249.254959 -999.761963
v 155.712921 238.655045 -1006.24133
v 184.174469 221.006241 -1013.50391
v 207.125275 196.572586 -1019.35669
v 225.049164 166.636917 -1020.01904
v 239.394379 133.664795 -1011.60974
v 132.812408 64.8634567 -1057.73877
v 155.158356 75.2239304 -1061.6283
v 142.429108 30.5064068 -1035.0022
v 174.813385 83.5812073 -1062.51343
v 166.101898 39.0755463 -1040.71326
v 155.826263 -3.17036057 -1009.18066
v 193.263275 89.9427872 -1059.09619
v 187.154999 47.1959152 -1041.91187
v 181.318939 5.97765541 -1015.2301
v 175.576569 -32.4914398 -980.714844
v 211.120514 94.3697433 -1049.91418
v 207.321442 54.7262497 -1036.92346
v 204.840546 15.8966942 -1014.57654
v 203.49173 -21.0569229 -984.851929
v 201.478607 -54.906189 -949.699585
v 228.039703 97.2190781 -1033.75452
v 227.175812 61.0246582 -1023.60132
v 227.682343 25.6183662 -1005.01001
v 229.821198 -8.69713593 -979.488525
v 231.453949 -40.9865875 -949.20752
v 230.086517 -70.0937424 -916.29126
v 243.661774 99.9860153 -1009.67957
v 246.554474 66.6170044 -999.960693
v 250.190033 34.4044037 -983.518921
v 255.214996 3.26979446 -961.366333
v 259.758392 -26.6207581 -935.643433
v 261.06839 -54.4492798 -908.338745
v 257.384796 -79.1963272 -881.340332
v 105.938477 63.2824745 -1059.39368
v 115.688751 28.1241322 -1032.14929
v 86.7868958 31.7726631 -1035.55225
v 128.472382 -6.89270401 -1003.08276
v 100.312195 -4.14111328 -1002.40845
v 69.219635 3.10627365 -1007.73486
v 146.939728 -38.8990173 -973.092529
v 118.491699 -37.9073486 -969.423096
v 88.8720398 -31.8979492 -970.975098
v 56.1433105 -22.4083939 -977.699585
v 172.265594 -65.1033783 -942.455078
v 142.921844 -67.4427719 -937.085571
v 113.276245 -63.7620316 -935.629883
v 82.4845276 -55.7872314 -939.159912
v 49.2404785 -45.5712967 -946.561768
v 202.226593 -84.0862427 -910.469727
v 172.947662 -90.8652115 -904.909424
v 142.858246 -90.9999161 -901.527588
v 112.135773 -85.7608185 -902.123291
v 80.6075439 -76.896904 -907.427368
v 47.7211304 -66.9739838 -915.581665
v 233.345062 -95.8364029 -876.632812
v 206.103302 -107.090652 -871.693848
v 176.604645 -112.083023 -867.633179
v 145.615692 -110.958755 -866.154663
v 113.776489 -104.820969 -868.920166
v 81.572113 -95.888382 -875.959961
v 49.1787415 -85.9731674 -885.752808
v 102.286194 102.476677 -1084.21008
v 79.7329407 68.3930511 -1066.90088
v 76.539856 103.104439 -1088.84094
v 56.7362976 37.7758713 -1042.74463
v 50.7106934 69.21035 -1070.68408
v 46.751709 99.3081818 -1087.89709
v 36.7633667 10.223196 -1014.22473
v 25.85672 39.7014885 -1044.85498
v 19.5210571 66.7406158 -1067.7572
v 14.1038513 92.8202362 -1079.12512
v 23.0645447 -15.4241791 -982.26062
v 5.81054688 12.5143089 -1013.60437
v -4.97341919 38.152771 -1038.79224
v -12.3711243 61.8768349 -1055.9054
v -19.8458862 84.3665771 -1062.18408
v 16.7904663 -40.1592102 -948.457031
v -7.04785156 -13.8414383 -978.634399
v -23.9302673 11.0517788 -1004.38562
v -35.5609436 34.0644417 -1023.94507
v -44.7936707 55.0165977 -1036.15845
v -53.8131714 74.8708649 -1039.45129
v 16.7310181 -64.0568695 -914.277344
v -12.0024109 -40.425415 -941.75415
v -35.4493408 -16.3234863 -966.485229
v -53.3217468 6.76541901 -986.830688
v -66.8923035 28.0266628 -1001.75208
v -77.5531006 47.5019722 -1010.88416
v -85.9872437 66.0730667 -1013.31055
v 101.545837 137.356873 -1095.01599
v 72.1884155 133.841705 -1095.44824
v 94.3461609 165.595261 -1092.05322
v 39.1479187 125.60379 -1088.70496
v 60.7932129 157.769608 -1087.22119
v 80.9498596 188.028885 -1078.06995
v 3.08120728 114.888618 -1074.17493
v 24.1507874 145.784363 -1075.21301
v 43.4031677 177.098099 -1068.57654
v 63.122467 206.061386 -1056.61401
v -34.773407 102.719048 -1052.61743
v -15.255249 131.721222 -1055.96021
v 3.47457886 162.512985 -1052.09143
v 22.5242615 193.510971 -1043.1355
v 43.7780151 220.803543 -1030.78259
v -72.5979004 90.2920609 -1025.59424
v -56.4674377 116.875404 -1030.34949
v -38.732666 146.434601 -1028.63086
v -19.6723633 178.138382 -1022.69055
v 1.5017395 208.22496 -1013.66772
v 24.9833984 232.731644 -1002.33875
v 17.2328186 244.812332 -969.87439
v -11.1677856 223.525925 -982.786377
v -12.8429871 235.304245 -950.338257
v -36.5037231 194.710861 -992.876709
v -42.8218994 210.069504 -963.939453
v -38.6524048 221.012619 -931.175781
v -58.6585693 162.107986 -999.709473
v -68.4205017 179.121414 -973.031982
v -68.59021 193.983505 -944.929077
v -58.3626404 203.536606 -911.511353
v -77.9215393 129.82016 -1003.12463
v -90.0748596 146.173767 -977.641235
v -93.3209534 163.0233 -952.430542
v -87.1266174 176.658585 -924.473755
v -71.1213379 184.426193 -890.653076
v -94.4956665 100.503723 -1002.01416
v -108.781738 114.494438 -978.023682
v -114.014069 131.19696 -954.418945
v -110.278473 146.830688 -929.661987
v -97.8385315 158.630722 -901.778442
v -77.3640137 164.665421 -868.511719
v -107.637238 73.9186707 -994.141602
v -123.61911 85.2066574 -972.799927
v -131.008057 100.231354 -950.861694
v -129.02771 116.045853 -928.187134
v -118.537872 129.818848 -903.785767
v -101.015503 139.641663 -876.561401
v -78.5108643 144.573334 -845.46875
v -108.641449 48.2073097 -985.529541
v -97.2687378 26.637886 -978.577881
v -123.33905 33.1628952 -956.827881
v -81.3762207 4.59427834 -966.592651
v -106.737213 8.80579185 -947.61792
v -128.503723 20.5717793 -928.780029
v -61.0516052 -18.6553574 -950.148315
v -84.5690002 -15.5869751 -934.468262
v -106.430115 -6.38758469 -918.610962
v -123.801483 8.795784 -901.750854
v -36.0847473 -42.8519135 -929.096924
v -58.1168213 -40.5122147 -916.689331
v -79.1529846 -32.4569283 -904.065674
v -97.7915649 -19.3935089 -890.302002
v -111.476044 -1.89312553 -874.981812
v -5.77954102 -66.6386337 -903.759644
v -27.2599487 -65.0620117 -893.755005
v -47.9112549 -57.9083328 -883.811768
v -67.0100403 -45.651535 -873.189819
v -83.0092468 -29.7071533 -861.2146
v -94.1052856 -11.2475433 -847.86145
v 30.0300293 -88.9505081 -875.196533
v 9.98806763 -88.2519684 -866.020142
v -10.5353699 -82.3973541 -857.657227
v -30.6062317 -70.891571 -849.562622
v -48.4734497 -55.4821472 -840.733154
v -63.0830994 -37.8454132 -831.040405
v -73.0548401 -19.9930649 -820.513672
v 72.617157 -106.928116 -851.664551
v 110.208466 -117.531799 -841.098633
v 97.232605 -121.867966 -821.14502
v 145.583099 -125.051529 -835.636841
v 138.174896 -131.43309 -812.435913
v 120.834991 -130.194168 -794.798096
v 178.942535 -127.492691 -834.948242
v 174.802094 -136.097549 -809.31958
v 162.883148 -137.919571 -788.46936
v 140.789764 -132.214676 -772.025024
v 210.316498 -123.641586 -837.332031
v 208.239349 -134.371017 -809.764282
v 199.274689 -139.171646 -786.814697
v 182.172272 -137.412827 -767.425537
v 155.8638 -128.137863 -751.823975
v 239.560272 -113.050613 -841.036865
v 239.235382 -125.621536 -811.509521
v 232.075531 -133.377518 -786.734619
v 217.488922 -135.235855 -765.62439
v 195.569061 -130.345993 -747.752319
v 166.718292 -118.559265 -733.5271
v 266.16629 -95.7766571 -845.166016
v 268.096039 -109.30571 -813.387329
v 262.593842 -119.686386 -786.282959
v 249.566742 -125.254898 -763.397339
v 229.655121 -124.516434 -744.276001
v 204.205292 -117.336258 -728.597168
v 174.579254 -105.138046 -716.375122
v 283.538116 -69.7554169 -860.371948
v 286.311188 -42.2385254 -885.383789
v 302.081085 -57.5044403 -836.303223
v 282.82785 -13.8003769 -910.275269
v 303.0336 -28.2675514 -859.626831
v 312.610626 -43.2046661 -810.918945
v 276.080658 15.3328018 -934.016235
v 298.014435 0.416669846 -883.348389
v 312.490265 -13.0187988 -833.651123
v 315.908844 -27.211216 -786.814087
v 268.64505 45.7464867 -955.037964
v 289.815704 29.792944 -906.456177
v 306.665009 16.4149761 -857.296509
v 315.45163 3.82707596 -809.779541
v 312.865387 -9.73139572 -766.219849
v 261.745758 78.3510895 -971.797241
v 280.480316 61.3694725 -927.298828
v 297.435211 47.3034554 -880.361816
v 309.107025 34.7154961 -833.506226
v 312.072113 22.3175602 -789.283936
v 304.15097 8.84648895 -750.158325
v 254.578644 113.656876 -982.164795
v 270.30661 96.4141159 -944.027954
v 285.826813 81.7227097 -900.580078
v 298.201752 68.4081497 -855.769775
v 304.217072 55.5090408 -812.166016
v 301.647308 42.2466774 -772.307129
v 290.432892 28.0050087 -738.401489
v 240.804108 152.841522 -991.166626
v 221.491974 185.863052 -994.717529
v 237.786896 168.933884 -964.658691
v 197.432159 213.080185 -989.878296
v 212.208527 199.31868 -964.354858
v 229.428436 181.036301 -932.729248
v 167.880219 233.632339 -981.94458
v 181.449921 222.598434 -957.589355
v 197.249298 207.304276 -930.400024
v 215.326569 188.915176 -896.996704
v 133.341095 247.571762 -974.327271
v 145.616302 239.266586 -949.419189
v 160.298126 226.339493 -923.384521
v 177.42453 210.483139 -894.091553
v 196.109833 192.789322 -859.524658
v 95.3235474 255.112015 -968.345459
v 105.714874 249.917831 -942.227783
v 119.045105 239.254196 -915.575684
v 135.483551 225.17244 -887.345703
v 154.126373 209.474777 -856.418701
v 173.191193 192.95668 -822.453735
v 55.5774536 255.548752 -963.932251
v 63.231781 254.252914 -936.71228
v 74.3903809 246.261368 -908.5271
v 89.7087097 233.802505 -879.489746
v 108.42392 219.282761 -849.455322
v 128.608429 204.427719 -818.569458
v 148.347015 189.968582 -787.747192
v 22.9376831 250.411942 -939.334106
v -4.36856079 238.944473 -916.34729
v 32.2643433 246.597 -907.740234
v -25.7932739 222.445816 -894.49939
v 8.46875 232.697189 -881.192017
v 46.1781921 236.138748 -875.530273
v -40.7511597 202.745834 -872.471924
v -8.80096436 214.217575 -856.043213
v 25.9102173 220.403854 -845.151489
v 64.7327271 222.109421 -842.956787
v -49.597168 181.09758 -849.517944
v -20.0291138 192.726181 -830.642334
v 12.0476379 200.550827 -815.759033
v 47.617218 205.410538 -808.454224
v 86.7486572 206.94545 -809.878784
v -53.5991821 158.331345 -825.314697
v -26.3629456 169.257339 -804.019897
v 3.41757202 177.992874 -785.356689
v 36.4598999 185.206528 -773.704224
v 72.6041565 190.283432 -771.11792
v 110.511932 192.181107 -776.297485
v -129.312958 58.3986778 -965.328857
v -140.268753 47.0377312 -937.021606
v -140.646988 72.3547287 -944.252319
v -139.936707 36.7464676 -909.736206
v -145.134918 62.4904022 -916.539185
v -141.286789 87.9548798 -922.543213
v -129.880188 25.8318653 -882.911987
v -138.275528 51.807682 -889.189697
v -138.474503 76.797821 -894.372192
v -131.792114 102.243011 -899.288818
v -112.946411 14.5551062 -855.240723
v -122.874023 39.4928398 -861.073242
v -125.392334 64.0672607 -865.448364
v -122.081421 88.6943054 -869.30835
v -114.108795 113.879051 -873.163086
v -90.770752 2.8321209 -826.003418
v -101.127197 25.851881 -830.53186
v -104.707489 49.2180939 -833.842651
v -103.174408 73.1626358 -836.431396
v -98.2376099 97.6115952 -839.114136
v -90.259491 121.71859 -842.326416
v 52.9532471 -107.459793 -839.991333
v 75.5290833 -118.141068 -809.359497
v 31.9736328 -102.776764 -831.071289
v 95.919281 -121.885483 -783.061279
v 52.3492432 -108.833893 -801.095825
v 10.2309265 -92.2266922 -823.815308
v 112.884338 -119.419205 -760.019409
v 70.2113953 -108.139236 -774.8573
v 28.7791443 -94.194519 -794.617798
v -10.7679138 -76.9412384 -816.768066
v 126.59549 -111.519363 -738.867432
v 85.8137512 -101.795822 -750.71814
v 45.3400269 -90.1761856 -767.738281
v 6.62408447 -76.0302277 -787.710938
v -29.4863281 -58.5889282 -808.887207
v 138.129364 -98.9894562 -718.757812
v 99.8787842 -90.7410507 -726.953125
v 60.9048157 -81.1213989 -741.054565
v 22.803009 -69.7720337 -759.332642
v -12.6482849 -55.7294922 -779.294312
v -44.5742798 -38.8201141 -799.826416
v 290.345428 -85.6375122 -820.672363
v 304.156647 -72.6705933 -795.24353
v 287.625031 -98.5322571 -788.028198
v 309.014984 -57.5763245 -770.504883
v 295.87735 -84.8329468 -763.178467
v 276.413177 -107.842758 -761.527832
v 306.287384 -40.0651398 -748.421265
v 294.960785 -68.0506973 -740.090088
v 278.831757 -92.2635651 -738.048828
v 257.302948 -111.329163 -739.957642
v 297.193695 -20.3916168 -730.465942
v 286.359222 -48.0208969 -719.892822
v 271.916351 -72.7053452 -716.372192
v 253.77243 -92.9776382 -717.747681
v 231.324493 -107.778107 -722.112183
v 282.930939 1.4337616 -717.400269
v 271.476349 -24.6854973 -703.722046
v 257.104828 -48.9072266 -697.25354
v 240.469513 -69.8854599 -696.715576
v 221.44223 -86.2957764 -700.512329
v 199.42276 -97.6664886 -707.273926
v 256.88974 133.47934 -957.86438
v 254.177704 149.905823 -928.305664
v 271.464813 117.120781 -917.419067
v 245.434662 162.448959 -894.068237
v 266.949432 133.827789 -886.668701
v 283.821442 102.606506 -873.738647
v 230.061615 171.026749 -856.603149
v 255.716461 146.358459 -851.897217
v 275.222321 118.669464 -843.551636
v 291.204437 88.3087616 -830.003784
v 208.281952 175.665268 -817.752197
v 236.896637 154.680573 -814.062012
v 259.142548 129.979858 -809.337524
v 276.645477 102.535385 -800.98584
v 290.964447 73.1611786 -787.740234
v 181.46756 176.669876 -779.411133
v 211.106049 159.068069 -774.359741
v 235.7388 137.08139 -771.051758
v 255.035614 111.787544 -766.780518
v 270.36496 84.6001205 -759.214722
v 282.202179 56.4694214 -748.57666
v 86.0281372 30.272953 -675.522949
v 98.518158 57.3948708 -673.605225
v 57.2261353 47.0901985 -685.878174
v 109.775452 86.5090332 -674.665039
v 67.4246826 77.8651352 -681.693481
v 29.0038147 65.6830063 -698.292603
v 120.200226 115.026756 -681.556396
v 76.9892273 107.631531 -683.175171
v 38.1914673 97.3222504 -694.544434
v 2.86248779 84.670784 -716.272583
v 129.431671 140.483978 -696.23291
v 86.1368103 134.730316 -692.62854
v 46.9871521 125.672302 -698.944092
v 11.6511841 115.055359 -715.639526
v -20.5956726 102.623817 -741.913818
v 137.127594 161.36763 -719.46106
v 94.7358398 157.922836 -711.32312
v 55.5886536 150.379089 -712.801758
v 20.0657959 140.978119 -724.486938
v -12.0932617 130.821564 -746.07605
v -41.8356934 118.578484 -774.072632
v 143.35965 177.480667 -750.603638
v 102.873413 176.701004 -739.534668
v 64.1661377 171.499435 -736.886108
v 28.4094238 163.682755 -743.677979
v -3.9258728 154.755768 -760.275024
v -33.5322571 144.962433 -783.878784
v -61.225647 132.513092 -809.710571
v 122.95285 30.9397125 -667.025757
v 158.622284 32.556179 -664.959229
v 138.396271 60.5284538 -670.11731
v 191.545807 34.315609 -669.39856
v 174.709015 63.73246 -674.077515
v 151.362885 90.7705536 -677.017334
v 220.862701 34.8550568 -679.828857
v 206.839874 65.4462128 -684.75415
v 187.691742 93.3738174 -687.677002
v 162.385223 118.600258 -690.220947
v 246.679169 33.6110611 -695.350586
v 234.929169 64.6840439 -701.362061
v 218.976532 93.2083282 -705.510254
v 198.199677 119.342987 -707.908081
v 171.092804 142.40155 -711.268799
v 269.800385 31.0552578 -715.045166
v 259.816986 61.4096222 -722.863525
v 246.175018 90.0668259 -729.617188
v 228.613495 116.929993 -733.533203
v 205.959137 141.168213 -736.307861
v 177.334259 161.625992 -740.991943
v 95.7052002 6.7126503 -670.733032
v 105.766144 -13.4560471 -667.039307
v 135.345428 5.9176693 -661.326538
v 116.589264 -31.4739838 -667.921021
v 146.676117 -15.5979538 -659.352783
v 171.222931 6.08385849 -660.120972
v 128.605377 -49.0774155 -674.408813
v 157.552277 -35.6784592 -663.642578
v 181.881073 -17.2145996 -660.969238
v 203.023895 6.154459 -666.094604
v 142.41391 -67.4501724 -685.716309
v 169.296906 -55.9081726 -673.918335
v 192.434784 -39.8039093 -668.540527
v 212.951508 -19.293129 -669.581909
v 231.406708 5.11747169 -678.085083
v 158.408417 -86.51577 -700.197266
v 183.405792 -76.8095627 -688.89978
v 205.214508 -62.9045181 -681.978516
v 224.591461 -44.446785 -679.935791
v 242.183014 -22.1699677 -683.837524
v 257.766449 3.11761475 -695.210693
v 55.1851196 16.3350945 -687.593262
v 25.1075439 6.42564011 -704.905273
v 63.2261047 -6.81185532 -683.877441
v -2.68798828 -0.692434311 -725.453369
v 33.1594543 -15.960659 -702.42981
v 72.9778748 -25.5386429 -682.278442
v -26.7501526 -6.22054672 -748.310913
v 7.05728149 -23.0098343 -724.18103
v 44.4841614 -34.29496 -702.62915
v 85.255188 -42.2669678 -685.077881
v -46.4892883 -10.7984085 -772.350098
v -14.3406982 -28.8278046 -748.262451
v 21.1138306 -41.9942169 -726.124268
v 59.6135254 -51.6021576 -706.72229
v 100.291351 -59.4914398 -692.670776
v -61.8040466 -15.0721512 -796.580444
v -31.3124695 -33.8529816 -773.591064
v 2.41629028 -49.024826 -751.909058
v 39.2211609 -60.7108765 -731.703857
v 78.2145691 -70.0604401 -714.998291
v 118.196198 -78.5287781 -704.275635
v 24.2168274 34.0457001 -703.692383
v -3.54925537 53.4515038 -721.608398
v -5.84707642 25.2790737 -725.470093
v -27.9893494 72.7433395 -744.316162
v -32.0950928 44.8780556 -747.53064
v -32.5714722 18.8812542 -749.29541
v -49.9302673 90.7675781 -772.969604
v -55.1540833 63.8006935 -773.56311
v -57.6126709 38.1575623 -774.633423
v -55.6509094 13.555603 -774.495483
v -70.6748047 107.13839 -806.355591
v -76.7907104 81.4067001 -804.344849
v -80.4460144 56.2687225 -803.398438
v -80.7474976 32.1070442 -802.329468
v -75.2987671 8.57725143 -800.105713
g 
f 3 1 2
f 5 2 4
f 6 3 5
f 8 4 7
f 9 5 8
f 10 6 9
f 12 7 11
f 13 8 12
f 14 9 13
f 15 10 14
f 17 11 16
f 18 12 17
f 19 13 18
f 20 14 19
f 21 15 20
f 23 16 22
f 24 17 23
f 25 18 24
f 26 19 25
f 27 20 26
f 28 21 27
f 30 22 29
f 31 23 30
f 32 24 31
f 33 25 32
f 34 26 33
f 35 27 34
f 36 28 35
f 3 2 5
f 5 4 8
f 6 5 9
f 8 7 12
f 9 8 13
f 10 9 14
f 12 11 17
f 13 12 18
f 14 13 19
f 15 14 20
f 17 16 23
f 18 17 24
f 19 18 25
f 20 19 26
f 21 20 27
f 23 22 30
f 24 23 31
f 25 24 32
f 26 25 33
f 27 26 34
f 28 27 35
f 37 1 3
f 38 3 6
f 39 37 38
f 40 6 10
f 41 38 40
f 42 39 41
f 43 10 15
f 44 40 43
f 45 41 44
f 46 42 45
f 47 15 21
f 48 43 47
f 49 44 48
f 50 45 49
f 51 46 50
f 52 21 28
f 53 47 52
f 54 48 53
f 55 49 54
f 56 50 55
f 57 51 56
f 58 28 36
f 59 52 58
f 60 53 59
f 61 54 60
f 62 55 61
f 63 56 62
f 64 57 63
f 37 3 38
f 38 6 40
f 39 38 41
f 40 10 43
f 41 40 44
f 42 41 45
f 43 15 47
f 44 43 48
f 45 44 49
f 46 45 50
f 47 21 52
f 48 47 53
f 49 48 54
f 50 49 55
f 51 50 56
f 52 28 58
f 53 52 59
f 54 53 60
f 55 54 61
f 56 55 62
f 57 56 63
f 65 1 37
f 66 37 39
f 67 65 66
f 68 39 42
f 69 66 68
f 70 67 69
f 71 42 46
f 72 68 71
f 73 69 72
f 74 70 73
f 75 46 51
f 76 71 75
f 77 72 76
f 78 73 77
f 79 74 78
f 80 51 57
f 81 75 80
f 82 76 81
f 83 77 82
f 84 78 83
f 85 79 84
f 86 57 64
f 87 80 86
f 88 81 87
f 89 82 88
f 90 83 89
f 91 84 90
f 92 85 91
f 65 37 66
f 66 39 68
f 67 66 69
f 68 42 71
f 69 68 72
f 70 69 73
f 71 46 75
f 72 71 76
f 73 72 77
f 74 73 78
f 75 51 80
f 76 75 81
f 77 76 82
f 78 77 83
f 79 78 84
f 80 57 86
f 81 80 87
f 82 81 88
f 83 82 89
f 84 83 90
f 85 84 91
f 93 1 65
f 94 65 67
f 95 93 94
f 96 67 70
f 97 94 96
f 98 95 97
f 99 70 74
f 100 96 99
f 101 97 100
f 102 98 101
f 103 74 79
f 104 99 103
f 105 100 104
f 106 101 105
f 107 102 106
f 108 79 85
f 109 103 108
f 110 104 109
f 111 105 110
f 112 106 111
f 113 107 112
f 114 85 92
f 115 108 114
f 116 109 115
f 117 110 116
f 118 111 117
f 119 112 118
f 120 113 119
f 93 65 94
f 94 67 96
f 95 94 97
f 96 70 99
f 97 96 100
f 98 97 101
f 99 74 103
f 100 99 104
f 101 100 105
f 102 101 106
f 103 79 108
f 104 103 109
f 105 104 110
f 106 105 111
f 107 106 112
f 108 85 114
f 109 108 115
f 110 109 116
f 111 110 117
f 112 111 118
f 113 112 119
f 2 1 93
f 121 93 95
f 4 2 121
f 122 95 98
f 123 121 122
f 7 4 123
f 124 98 102
f 125 122 124
f 126 123 125
f 11 7 126
f 127 102 107
f 128 124 127
f 129 125 128
f 130 126 129
f 16 11 130
f 131 107 113
f 132 127 131
f 133 128 132
f 134 129 133
f 135 130 134
f 22 16 135
f 136 113 120
f 137 131 136
f 138 132 137
f 139 133 138
f 140 134 139
f 141 135 140
f 29 22 141
f 2 93 121
f 121 95 122
f 4 121 123
f 122 98 124
f 123 122 125
f 7 123 126
f 124 102 127
f 125 124 128
f 126 125 129
f 11 126 130
f 127 107 131
f 128 127 132
f 129 128 133
f 130 129 134
f 16 130 135
f 131 113 136
f 132 131 137
f 133 132 138
f 134 133 139
f 135 134 140
f 22 135 141
f 142 29 141
f 143 141 140
f 144 142 143
f 145 140 139
f 146 143 145
f 147 144 146
f 148 139 138
f 149 145 148
f 150 146 149
f 151 147 150
f 152 138 137
f 153 148 152
f 154 149 153
f 155 150 154
f 156 151 155
f 157 137 136
f 158 152 157
f 159 153 158
f 160 154 159
f 161 155 160
f 162 156 161
f 163 136 120
f 164 157 163
f 165 158 164
f 166 159 165
f 167 160 166
f 168 161 167
f 169 162 168
f 142 141 143
f 143 140 145
f 144 143 146
f 145 139 148
f 146 145 149
f 147 146 150
f 148 138 152
f 149 148 153
f 150 149 154
f 151 150 155
f 152 137 157
f 153 152 158
f 154 153 159
f 155 154 160
f 156 155 161
f 157 136 163
f 158 157 164
f 159 158 165
f 160 159 166
f 161 160 167
f 162 161 168
f 170 120 119
f 171 119 118
f 172 170 171
f 173 118 117
f 174 171 173
f 175 172 174
f 176 117 116
f 177 173 176
f 178 174 177
f 179 175 178
f 180 116 115
f 181 176 180
f 182 177 181
f 183 178 182
f 184 179 183
f 185 115 114
f 186 180 185
f 187 181 186
f 188 182 187
f 189 183 188
f 190 184 189
f 191 114 92
f 192 185 191
f 193 186 192
f 194 187 193
f 195 188 194
f 196 189 195
f 197 190 196
f 170 119 171
f 171 118 173
f 172 171 174
f 173 117 176
f 174 173 177
f 175 174 178
f 176 116 180
f 177 176 181
f 178 177 182
f 179 178 183
f 180 115 185
f 181 180 186
f 182 181 187
f 183 182 188
f 184 183 189
f 185 114 191
f 186 185 192
f 187 186 193
f 188 187 194
f 189 188 195
f 190 189 196
f 198 92 91
f 199 91 90
f 200 198 199
f 201 90 89
f 202 199 201
f 203 200 202
f 204 89 88
f 205 201 204
f 206 202 205
f 207 203 206
f 208 88 87
f 209 204 208
f 210 205 209
f 211 206 210
f 212 207 211
f 213 87 86
f 214 208 213
f 215 209 214
f 216 210 215
f 217 211 216
f 218 212 217
f 219 86 64
f 220 213 219
f 221 214 220
f 222 215 221
f 223 216 222
f 224 217 223
f 225 218 224
f 198 91 199
f 199 90 201
f 200 199 202
f 201 89 204
f 202 201 205
f 203 202 206
f 204 88 208
f 205 204 209
f 206 205 210
f 207 206 211
f 208 87 213
f 209 208 214
f 210 209 215
f 211 210 216
f 212 211 217
f 213 86 219
f 214 213 220
f 215 214 221
f 216 215 222
f 217 216 223
f 218 217 224
f 226 64 63
f 227 63 62
f 228 226 227
f 229 62 61
f 230 227 229
f 231 228 230
f 232 61 60
f 233 229 232
f 234 230 233
f 235 231 234
f 236 60 59
f 237 232 236
f 238 233 237
f 239 234 238
f 240 235 239
f 241 59 58
f 242 236 241
f 243 237 242
f 244 238 243
f 245 239 244
f 246 240 245
f 247 58 36
f 248 241 247
f 249 242 248
f 250 243 249
f 251 244 250
f 252 245 251
f 253 246 252
f 226 63 227
f 227 62 229
f 228 227 230
f 229 61 232
f 230 229 233
f 231 230 234
f 232 60 236
f 233 232 237
f 234 233 238
f 235 234 239
f 236 59 241
f 237 236 242
f 238 237 243
f 239 238 244
f 240 239 245
f 241 58 247
f 242 241 248
f 243 242 249
f 244 243 250
f 245 244 251
f 246 245 252
f 254 36 35
f 255 35 34
f 256 254 255
f 257 34 33
f 258 255 257
f 259 256 258
f 260 33 32
f 261 257 260
f 262 258 261
f 263 259 262
f 264 32 31
f 265 260 264
f 266 261 265
f 267 262 266
f 268 263 267
f 269 31 30
f 270 264 269
f 271 265 270
f 272 266 271
f 273 267 272
f 274 268 273
f 275 30 29
f 276 269 275
f 277 270 276
f 278 271 277
f 279 272 278
f 280 273 279
f 281 274 280
f 254 35 255
f 255 34 257
f 256 255 258
f 257 33 260
f 258 257 261
f 259 258 262
f 260 32 264
f 261 260 265
f 262 261 266
f 263 262 267
f 264 31 269
f 265 264 270
f 266 265 271
f 267 266 272
f 268 267 273
f 269 30 275
f 270 269 276
f 271 270 277
f 272 271 278
f 273 272 279
f 274 273 280
f 275 29 142
f 282 142 144
f 276 275 282
f 283 144 147
f 284 282 283
f 277 276 284
f 285 147 151
f 286 283 285
f 287 284 286
f 278 277 287
f 288 151 156
f 289 285 288
f 290 286 289
f 291 287 290
f 279 278 291
f 292 156 162
f 293 288 292
f 294 289 293
f 295 290 294
f 296 291 295
f 280 279 296
f 297 162 169
f 298 292 297
f 299 293 298
f 300 294 299
f 301 295 300
f 302 296 301
f 281 280 302
f 275 142 282
f 282 144 283
f 276 282 284
f 283 147 285
f 284 283 286
f 277 284 287
f 285 151 288
f 286 285 289
f 287 286 290
f 278 287 291
f 288 156 292
f 289 288 293
f 290 289 294
f 291 290 295
f 279 291 296
f 292 162 297
f 293 292 298
f 294 293 299
f 295 294 300
f 296 295 301
f 280 296 302
f 163 120 170
f 303 170 172
f 164 163 303
f 304 172 175
f 305 303 304
f 165 164 305
f 306 175 179
f 307 304 306
f 308 305 307
f 166 165 308
f 309 179 184
f 310 306 309
f 311 307 310
f 312 308 311
f 167 166 312
f 313 184 190
f 314 309 313
f 315 310 314
f 316 311 315
f 317 312 316
f 168 167 317
f 318 190 197
f 319 313 318
f 320 314 319
f 321 315 320
f 322 316 321
f 323 317 322
f 169 168 323
f 163 170 303
f 303 172 304
f 164 303 305
f 304 175 306
f 305 304 307
f 165 305 308
f 306 179 309
f 307 306 310
f 308 307 311
f 166 308 312
f 309 184 313
f 310 309 314
f 311 310 315
f 312 311 316
f 167 312 317
f 313 190 318
f 314 313 319
f 315 314 320
f 316 315 321
f 317 316 322
f 168 317 323
f 191 92 198
f 324 198 200
f 192 191 324
f 325 200 203
f 326 324 325
f 193 192 326
f 327 203 207
f 328 325 327
f 329 326 328
f 194 193 329
f 330 207 212
f 331 327 330
f 332 328 331
f 333 329 332
f 195 194 333
f 334 212 218
f 335 330 334
f 336 331 335
f 337 332 336
f 338 333 337
f 196 195 338
f 339 218 225
f 340 334 339
f 341 335 340
f 342 336 341
f 343 337 342
f 344 338 343
f 197 196 344
f 191 198 324
f 324 200 325
f 192 324 326
f 325 203 327
f 326 325 328
f 193 326 329
f 327 207 330
f 328 327 331
f 329 328 332
f 194 329 333
f 330 212 334
f 331 330 335
f 332 331 336
f 333 332 337
f 195 333 338
f 334 218 339
f 335 334 340
f 336 335 341
f 337 336 342
f 338 337 343
f 196 338 344
f 219 64 226
f 345 226 228
f 220 219 345
f 346 228 231
f 347 345 346
f 221 220 347
f 348 231 235
f 349 346 348
f 350 347 349
f 222 221 350
f 351 235 240
f 352 348 351
f 353 349 352
f 354 350 353
f 223 222 354
f 355 240 246
f 356 351 355
f 357 352 356
f 358 353 357
f 359 354 358
f 224 223 359
f 360 246 253
f 361 355 360
f 362 356 361
f 363 357 362
f 364 358 363
f 365 359 364
f 225 224 365
f 219 226 345
f 345 228 346
f 220 345 347
f 346 231 348
f 347 346 349
f 221 347 350
f 348 235 351
f 349 348 352
f 350 349 353
f 222 350 354
f 351 240 355
f 352 351 356
f 353 352 357
f 354 353 358
f 223 354 359
f 355 246 360
f 356 355 361
f 357 356 362
f 358 357 363
f 359 358 364
f 224 359 365
f 247 36 254
f 366 254 256
f 248 247 366
f 367 256 259
f 368 366 367
f 249 248 368
f 369 259 263
f 370 367 369
f 371 368 370
f 250 249 371
f 372 263 268
f 373 369 372
f 374 370 373
f 375 371 374
f 251 250 375
f 376 268 274
f 377 372 376
f 378 373 377
f 379 374 378
f 380 375 379
f 252 251 380
f 381 274 281
f 382 376 381
f 383 377 382
f 384 378 383
f 385 379 384
f 386 380 385
f 253 252 386
f 247 254 366
f 366 256 367
f 248 366 368
f 367 259 369
f 368 367 370
f 249 368 371
f 369 263 372
f 370 369 373
f 371 370 374
f 250 371 375
f 372 268 376
f 373 372 377
f 374 373 378
f 375 374 379
f 251 375 380
f 376 274 381
f 377 376 382
f 378 377 383
f 379 378 384
f 380 379 385
f 252 380 386
f 389 387 388
f 391 388 390
f 392 389 391
f 394 390 393
f 395 391 394
f 396 392 395
f 398 393 397
f 399 394 398
f 400 395 399
f 401 396 400
f 403 397 402
f 404 398 403
f 405 399 404
f 406 400 405
f 407 401 406
f 409 402 408
f 410 403 409
f 411 404 410
f 412 405 411
f 413 406 412
f 414 407 413
f 302 408 281
f 301 409 302
f 300 410 301
f 299 411 300
f 298 412 299
f 297 413 298
f 169 414 297
f 389 388 391
f 391 390 394
f 392 391 395
f 394 393 398
f 395 394 399
f 396 395 400
f 398 397 403
f 399 398 404
f 400 399 405
f 401 400 406
f 403 402 409
f 404 403 410
f 405 404 411
f 406 405 412
f 407 406 413
f 409 408 302
f 410 409 301
f 411 410 300
f 412 411 299
f 413 412 298
f 414 413 297
f 388 387 415
f 417 415 416
f 390 388 417
f 419 416 418
f 420 417 419
f 393 390 420
f 422 418 421
f 423 419 422
f 424 420 423
f 397 393 424
f 426 421 425
f 427 422 426
f 428 423 427
f 429 424 428
f 402 397 429
f 431 425 430
f 432 426 431
f 433 427 432
f 434 428 433
f 435 429 434
f 408 402 435
f 386 430 253
f 385 431 386
f 384 432 385
f 383 433 384
f 382 434 383
f 381 435 382
f 281 408 381
f 388 415 417
f 417 416 419
f 390 417 420
f 419 418 422
f 420 419 423
f 393 420 424
f 422 421 426
f 423 422 427
f 424 423 428
f 397 424 429
f 426 425 431
f 427 426 432
f 428 427 433
f 429 428 434
f 402 429 435
f 431 430 386
f 432 431 385
f 433 432 384
f 434 433 383
f 435 434 382
f 408 435 381
f 415 387 436
f 438 436 437
f 416 415 438
f 440 437 439
f 441 438 440
f 418 416 441
f 443 439 442
f 444 440 443
f 445 441 444
f 421 418 445
f 447 442 446
f 448 443 447
f 449 444 448
f 450 445 449
f 425 421 450
f 452 446 451
f 453 447 452
f 454 448 453
f 455 449 454
f 456 450 455
f 430 425 456
f 365 451 225
f 364 452 365
f 363 453 364
f 362 454 363
f 361 455 362
f 360 456 361
f 253 430 360
f 415 436 438
f 438 437 440
f 416 438 441
f 440 439 443
f 441 440 444
f 418 441 445
f 443 442 447
f 444 443 448
f 445 444 449
f 421 445 450
f 447 446 452
f 448 447 453
f 449 448 454
f 450 449 455
f 425 450 456
f 452 451 365
f 453 452 364
f 454 453 363
f 455 454 362
f 456 455 361
f 430 456 360
f 436 387 457
f 459 457 458
f 437 436 459
f 461 458 460
f 462 459 461
f 439 437 462
f 464 460 463
f 465 461 464
f 466 462 465
f 442 439 466
f 468 463 467
f 469 464 468
f 470 465 469
f 471 466 470
f 446 442 471
f 473 467 472
f 474 468 473
f 475 469 474
f 476 470 475
f 477 471 476
f 451 446 477
f 344 472 197
f 343 473 344
f 342 474 343
f 341 475 342
f 340 476 341
f 339 477 340
f 225 451 339
f 436 457 459
f 459 458 461
f 437 459 462
f 461 460 464
f 462 461 465
f 439 462 466
f 464 463 468
f 465 464 469
f 466 465 470
f 442 466 471
f 468 467 473
f 469 468 474
f 470 469 475
f 471 470 476
f 446 471 477
f 473 472 344
f 474 473 343
f 475 474 342
f 476 475 341
f 477 476 340
f 451 477 339
f 457 387 389
f 478 389 392
f 458 457 478
f 479 392 396
f 480 478 479
f 460 458 480
f 481 396 401
f 482 479 481
f 483 480 482
f 463 460 483
f 484 401 407
f 485 481 484
f 486 482 485
f 487 483 486
f 467 463 487
f 488 407 414
f 489 484 488
f 490 485 489
f 491 486 490
f 492 487 491
f 472 467 492
f 323 414 169
f 322 488 323
f 321 489 322
f 320 490 321
f 319 491 320
f 318 492 319
f 197 472 318
f 457 389 478
f 478 392 479
f 458 478 480
f 479 396 481
f 480 479 482
f 460 480 483
f 481 401 484
f 482 481 485
f 483 482 486
f 463 483 487
f 484 407 488
f 485 484 489
f 486 485 490
f 487 486 491
f 467 487 492
f 488 414 323
f 489 488 322
f 490 489 321
f 491 490 320
f 492 491 319
f 472 492 318
