# File exported by Houdini 20.5.445 (www.sidefx.com)
# 492 points
# 2940 vertices
# 980 primitives
# Bounds: [-133.878403, -100.690765, -1186.98059] to [304.652313, 217.067871, -567.820435]
g 
v 136.545837 123.774231 -1182.43799
v 131.873505 148.032257 -1179.87927
v 170.455688 133.354553 -1186.98059
v 122.875702 170.064514 -1172.98242
v 164.89151 157.611053 -1183.38843
v 200.348663 136.870941 -1183.31177
v 111.096283 189.679153 -1160.81445
v 153.905243 178.424301 -1174.66809
v 191.833496 159.93219 -1177.38721
v 224.668976 133.709579 -1170.49463
v 99.5862732 205.48407 -1142.31494
v 140.47934 195.035934 -1159.94702
v 178.450226 177.9729 -1165.67505
v 212.674683 154.142975 -1161.50806
v 242.819 123.591667 -1148.34424
v 90.4926453 214.863556 -1115.98889
v 127.902588 206.095963 -1137.80981
v 163.741089 190.383881 -1147.1145
v 197.226349 168.274551 -1145.92078
v 227.707794 140.330536 -1135.71875
v 254.946564 107.435593 -1117.51001
v 85.4848022 215.889664 -1081.60376
v 118.364471 209.34317 -1106.11523
v 150.838226 195.806564 -1119.58594
v 181.803925 175.508545 -1122.05957
v 210.836151 149.667603 -1115.06982
v 237.575653 119.728661 -1100.31702
v 261.902679 87.6958542 -1078.97559
v 84.5933228 208.72702 -1040.34998
v 112.823364 203.563049 -1063.81287
v 141.156586 192.223831 -1079.75427
v 168.702026 174.36731 -1086.38281
v 194.932739 150.848938 -1083.34998
v 219.837372 123.659248 -1072.39966
v 243.203644 94.9394073 -1055.61133
v 264.84964 67.2151566 -1033.98462
v 158.988647 106.484055 -1185.02515
v 195.956757 112.148979 -1184.78918
v 178.411194 87.4410706 -1181.50513
v 226.499481 111.358566 -1174.74817
v 216.473419 90.211235 -1175.56177
v 195.756134 68.2751923 -1171.74609
v 250.134796 103.930145 -1155.12231
v 246.654388 85.9166412 -1159.06934
v 233.569305 68.4033203 -1159.91724
v 210.861908 49.5515442 -1155.4408
v 267.02829 90.5056152 -1126.22095
v 269.490997 75.199913 -1132.71045
v 262.908905 61.0424805 -1137.00146
v 247.60025 47.0688858 -1137.87036
v 223.208954 31.7249031 -1132.69897
v 277.702606 73.1262207 -1087.92212
v 285.561066 60.0426483 -1095.96545
v 284.783661 48.194397 -1102.97632
v 275.266449 37.0863647 -1107.90173
v 257.219635 26.0811691 -1108.74146
v 230.59787 14.2889233 -1103.28259
v 282.715179 53.5995636 -1040.15356
v 294.934357 41.5251465 -1047.40344
v 299.348541 31.0473289 -1055.71448
v 294.794891 21.8256874 -1063.82275
v 281.316681 13.382741 -1069.73572
v 259.704376 5.19643021 -1071.28174
v 231.014923 -3.33772659 -1067.47021
v 113.07019 101.403587 -1174.58154
v 133.784058 81.4477386 -1176.56641
v 87.2056885 77.3619308 -1162.08154
v 152.118774 62.3475342 -1171.90552
v 108.011993 56.2713852 -1163.03625
v 61.2384949 53.039856 -1145.85437
v 168.927124 44.5454941 -1160.58936
v 126.490479 37.5254707 -1156.49023
v 83.0326843 31.4604053 -1145.20825
v 36.5438232 29.4489708 -1126.48755
v 183.626984 28.1504135 -1142.23767
v 142.815247 21.0508499 -1142.53296
v 101.486969 13.1453428 -1135.93237
v 58.7642212 7.61537552 -1123.19116
v 13.5811157 6.52013397 -1103.69666
v 194.538422 12.6203041 -1116.17871
v 155.81781 6.30451202 -1120.43225
v 116.247986 -2.68432045 -1117.94067
v 75.9743958 -10.8143311 -1109.75989
v 34.7763977 -15.6125259 -1096.17883
v -7.55303955 -15.982296 -1077.12659
v 199.049652 -3.29875946 -1081.46533
v 163.492279 -8.27961731 -1088.67676
v 125.883057 -17.3351974 -1089.73145
v 87.5279236 -27.3721085 -1085.51086
v 49.0364075 -35.1060867 -1076.58203
v 10.7178345 -38.6676788 -1063.52026
v -26.9631042 -37.6350403 -1046.98877
v 98.2571716 126.922653 -1169.60278
v 70.5540466 102.008751 -1156.9165
v 59.627533 128.752655 -1149.90942
v 42.0335999 77.4198914 -1140.4845
v 29.8009949 102.914589 -1133.51917
v 22.8458252 130.795135 -1125.10474
v 14.8835754 53.6462402 -1121.66479
v 0.30291748 78.6301651 -1114.48828
v -7.57849121 104.818512 -1106.66394
v -10.0632324 133.181122 -1096.93701
v -9.84765625 30.0339203 -1100.50195
v -27.0749512 54.7957764 -1093.80896
v -37.1355896 80.322319 -1086.08362
v -40.2114563 106.890587 -1077.83508
v -38.1487122 134.622253 -1067.18188
v -32.1209106 5.70764923 -1075.86548
v -51.7262268 29.6413021 -1070.6416
v -64.5042877 54.9052505 -1063.58191
v -69.4786987 81.0265503 -1056.2262
v -67.6121674 107.529343 -1048.18713
v -61.4253082 133.609528 -1037.13245
v -51.8192444 -19.4474106 -1046.71558
v -73.5011749 2.41513824 -1043.01074
v -89.0980835 26.888134 -1037.28955
v -96.6564331 53.0481567 -1031.21509
v -96.0758209 79.8371277 -1025.09326
v -89.3925171 105.853012 -1017.59326
v -79.616272 129.557617 -1006.82336
v 90.7854614 152.419556 -1163.73047
v 52.1396484 155.316681 -1140.55811
v 80.5578003 175.215973 -1152.75415
v 17.6920471 158.0168 -1112.34741
v 43.7471008 178.59407 -1125.53003
v 70.2225952 195.165329 -1136.06189
v -11.9781494 159.858658 -1080.83252
v 12.6344604 180.810776 -1093.34741
v 36.5914917 197.928207 -1104.10864
v 61.756134 210.124298 -1112.25635
v -37.4301758 158.983185 -1047.57239
v -14.0444031 180.399506 -1057.55273
v 8.47125244 197.758682 -1066.51489
v 31.3564453 210.416046 -1074.08569
v 56.6506042 217.067871 -1079.84119
v -58.9305267 153.713287 -1012.93195
v -37.4525146 175.031937 -1018.76306
v -16.0625 192.607117 -1023.97498
v 5.94869995 205.553833 -1029.02466
v 29.9268494 213.029465 -1034.24756
v 56.4756165 214.233887 -1038.82532
v 68.4042664 201.583847 -994.986694
v 37.8323669 205.803055 -991.039124
v 53.0029602 191.095627 -948.099731
v 10.0505371 203.22049 -986.757507
v 21.7140503 193.621063 -945.479187
v 39.1427917 178.169525 -902.213379
v -14.3873901 194.619247 -983.951294
v -5.78692627 189.450836 -944.115173
v 8.7744751 178.812088 -903.371582
v 27.211731 162.986679 -859.927429
v -36.4842834 180.546478 -982.445374
v -29.6845703 179.354218 -944.66626
v -17.4847412 172.774902 -905.941589
v -1.36126709 161.361893 -865.887939
v 16.9903259 145.313904 -823.454285
v -57.8175659 161.437286 -981.004395
v -51.5876007 163.53949 -946.415344
v -40.7950745 160.588531 -909.984497
v -26.2524719 152.972076 -872.417114
v -9.49850464 141.052368 -833.739868
v 8.14605713 125.414627 -793.599854
v -79.7651215 137.963257 -978.463928
v -74.1187439 142.385468 -947.623962
v -63.7883911 142.472992 -914.324585
v -49.90448 138.205933 -879.309998
v -33.7860718 129.950089 -843.328979
v -16.9536438 118.296021 -806.736572
v -0.336151123 104.513634 -769.712708
v -99.3635559 109.953659 -984.42334
v -111.448624 82.2850266 -994.073853
v -114.17337 89.8852158 -962.666931
v -117.907562 53.1997681 -999.99176
v -125.985275 59.2766418 -971.545105
v -123.275635 70.1344376 -940.533508
v -116.153732 24.7828064 -1004.73615
v -130.043304 28.3466988 -975.952454
v -133.032883 38.3267746 -948.155212
v -126.766068 51.8148346 -916.402344
v -105.108383 -1.90674782 -1009.35919
v -124.93364 -0.75935936 -978.750305
v -133.878403 7.1448288 -950.373169
v -133.459106 20.8265381 -921.809875
v -125.544312 36.0191498 -888.773254
v -85.5716858 -25.9627609 -1013.45996
v -110.361496 -27.0964279 -981.251526
v -125.286072 -21.4954681 -950.479126
v -130.893311 -8.99132538 -921.02417
v -128.666229 7.53188133 -890.898743
v -120.957123 23.1317139 -856.928711
v -59.5426788 -46.4716263 -1015.3042
v -87.0718994 -50.1403503 -982.593384
v -107.219116 -46.8099518 -949.783691
v -118.810394 -36.0726624 -917.556152
v -122.542328 -19.7391052 -886.27417
v -120.275909 -2.15684128 -854.824829
v -114.130981 12.3270493 -821.767761
v -22.517395 -57.9980087 -1024.00989
v 16.8662415 -57.5472336 -1038.16772
v -18.3495178 -73.2829056 -997.316467
v 55.5942383 -51.4460907 -1048.29858
v 21.5966492 -71.0182037 -1009.82654
v -14.4833679 -83.465416 -968.076782
v 93.886261 -41.4763641 -1054.0332
v 60.238678 -63.2266083 -1017.685
v 25.2226562 -80.3548813 -979.33252
v -10.5656738 -89.3939133 -937.456116
v 131.954895 -30.7804337 -1054.83276
v 98.365448 -52.7480164 -1020.45386
v 63.5457153 -72.0012436 -984.897583
v 28.2828979 -85.9350891 -947.250183
v -6.18988037 -91.4547119 -906.434509
v 169.57309 -22.8521271 -1049.95361
v 136.614136 -42.8696518 -1017.30786
v 101.665466 -61.9365463 -983.823181
v 66.0924072 -78.0433044 -949.249817
v 31.3704834 -88.7224426 -913.04657
v -0.799163818 -91.6130066 -874.713562
v 205.845276 -19.8725014 -1038.20178
v 175.174744 -37.049942 -1006.98883
v 140.796814 -54.2945633 -974.578918
v 104.734985 -70.3600616 -941.729187
v 69.1367188 -83.3060913 -908.702515
v 36.0938416 -91.0139923 -875.411011
v 7.32351685 -91.9515762 -841.946777
v 243.96463 -15.8122787 -1029.39832
v 273.695221 -8.9171524 -1026.84766
v 250.855621 -29.3262711 -984.945496
v 293.918549 -2.3733902 -1019.54718
v 279.873749 -23.2706299 -976.589905
v 252.805145 -43.6832581 -935.131348
v 304.225006 4.91088867 -1009.75031
v 297.74234 -17.1290512 -965.179504
v 280.297516 -37.425766 -922.390625
v 251.288483 -57.4168625 -881.971069
v 304.442108 13.9284325 -999.952332
v 304.652313 -9.27075958 -953.447876
v 295.355804 -29.8848038 -908.605408
v 276.682892 -49.3422699 -866.601257
v 247.55368 -67.9433136 -828.350342
v 294.906219 25.4660912 -992.27533
v 300.5914 1.66740036 -943.824036
v 298.543488 -19.1769562 -896.4245
v 288.62442 -38.33815 -851.968262
v 270.094635 -56.1701584 -811.899902
v 242.243744 -72.5783768 -777.459045
v 277.006683 40.0656052 -987.740784
v 285.694366 16.6726151 -938.321167
v 289.516388 -3.65275574 -888.252197
v 287.496429 -22.1781693 -840.478455
v 278.287933 -39.401062 -797.439758
v 260.907867 -55.3708572 -760.891724
v 235.459198 -69.8221817 -731.905823
v 252.0065 64.1293793 -1000.01697
v 228.210907 92.5248108 -1020.93237
v 237.493195 62.8474274 -964.245117
v 204.701782 120.286018 -1035.17896
v 213.072296 90.491745 -983.558533
v 222.495575 63.814003 -925.918579
v 181.089722 145.690674 -1042.35669
v 190.107605 116.296501 -994.617493
v 197.986725 89.4256516 -942.664001
v 208.208466 66.4566803 -884.353882
v 156.636932 167.091476 -1040.50232
v 167.390442 139.388916 -996.781006
v 175.173523 112.857162 -949.365723
v 183.296753 89.4480133 -897.679016
v 195.123566 69.7641296 -840.023315
v 130.402435 183.192963 -1029.32007
v 143.304779 158.71669 -989.503906
v 152.052734 133.694977 -945.73645
v 159.614594 110.348282 -898.871338
v 169.299683 89.9008408 -848.697388
v 182.164948 72.5918121 -794.362427
v 101.76709 193.305359 -1009.50427
v 115.929291 173.061035 -973.085571
v 126.149933 150.806213 -932.219116
v 134.440704 128.6586 -888.49884
v 143.425323 107.886955 -843.396851
v 154.708252 89.5492859 -797.033813
v 168.050659 73.3043442 -749.477356
v 85.3578796 183.88826 -957.640991
v 70.0307007 172.380966 -906.245117
v 98.349823 163.471283 -916.762207
v 56.3255615 159.004868 -857.688904
v 83.0065002 152.178406 -862.767761
v 108.497864 142.339691 -873.481384
v 43.9220276 143.127502 -814.33429
v 69.2962646 138.493912 -813.050964
v 93.6902466 131.336823 -818.474426
v 118.053345 121.303925 -829.115784
v 32.6286316 124.164993 -777.793823
v 56.7667542 121.252556 -769.182922
v 80.739624 116.546646 -768.057861
v 104.851624 109.723541 -773.624146
v 129.451538 100.773476 -783.942078
v 21.7619324 102.489014 -748.137695
v 44.6547546 99.8210983 -732.001709
v 68.5700073 96.557785 -722.896667
v 93.3547974 92.4799347 -721.446472
v 118.617584 87.4837036 -726.565308
v 143.756531 81.2595062 -736.468079
v -96.3985596 117.865417 -952.899597
v -107.301453 98.0984268 -929.107178
v -87.0949097 121.200653 -919.992432
v -113.12796 78.8134155 -905.073303
v -94.8577271 100.798569 -894.346924
v -73.1197662 119.910538 -886.041504
v -114.693405 60.6646042 -878.565186
v -98.4407654 81.0950089 -868.034241
v -78.3884583 98.5945129 -858.628357
v -56.328064 114.432083 -850.677124
v -112.811981 44.3197174 -847.540283
v -98.686554 62.4652023 -837.977051
v -80.3399811 78.2046356 -828.803894
v -59.5760651 92.124382 -820.731018
v -38.1753235 105.246475 -813.309875
v -107.972488 29.708292 -810.955505
v -95.9336853 45.0111084 -801.263245
v -79.3903503 58.5231934 -792.453857
v -60.1473999 70.5983429 -784.761658
v -39.7275391 81.7259521 -778.513306
v -19.586792 92.8553696 -773.105347
v -55.5539856 -66.2209396 -987.429626
v -51.1106567 -78.4370956 -957.165894
v -81.5245514 -66.2168808 -951.179871
v -46.1084137 -84.8392639 -925.663574
v -75.1457825 -73.7341156 -918.387878
v -99.3404541 -57.6885376 -915.658447
v -40.2348938 -87.0718842 -893.781311
v -67.9899139 -76.2060852 -884.871521
v -90.7727661 -60.7900848 -880.512512
v -109.022339 -42.1286011 -880.578552
v -33.0664673 -86.6223831 -861.75293
v -59.7322998 -75.7397919 -850.87738
v -81.604187 -60.5625992 -844.098877
v -98.9109955 -42.6322479 -841.997498
v -111.773346 -23.1663818 -845.196838
v -23.09375 -86.0187836 -828.599243
v -49.063385 -74.7647629 -815.726807
v -70.6464233 -59.5216064 -805.622131
v -87.8462524 -42.012146 -800.207825
v -100.590668 -23.7026978 -800.55127
v -109.291336 -5.52742767 -808.266968
v 214.45639 -33.6360474 -995.398254
v 217.380646 -48.0984039 -948.121216
v 180.143188 -50.6677856 -961.413391
v 216.848541 -62.7110443 -897.142761
v 180.493866 -64.9363403 -912.829102
v 143.162598 -66.4253235 -927.769104
v 214.606354 -75.681488 -843.819214
v 178.823059 -78.7814255 -861.459595
v 142.183807 -79.3836594 -878.726013
v 105.5737 -80.1931152 -894.610291
v 211.510742 -84.1177979 -790.003418
v 176.666718 -89.9261246 -807.733276
v 140.226471 -91.309494 -826.791138
v 104.071808 -90.5766983 -845.132629
v 69.219696 -90.2587357 -861.598328
v 207.48114 -84.96138 -737.96405
v 174.329346 -94.8025894 -752.388916
v 138.434357 -99.0046539 -771.306763
v 102.242584 -98.8586655 -791.553528
v 67.6895447 -96.6933746 -810.876526
v 35.7687073 -94.2772141 -827.985657
v 262.993866 37.5864067 -946.160156
v 247.797394 39.0114288 -905.768982
v 270.773346 16.6626549 -891.448425
v 233.219635 43.2939072 -865.072937
v 255.920807 20.9334183 -848.416809
v 274.90274 -1.35060692 -838.462036
v 219.830658 48.9406738 -822.190735
v 242.015106 27.6207371 -806.139465
v 260.518158 4.9321785 -793.816833
v 273.464813 -18.2225342 -789.385803
v 206.369812 54.3990097 -776.485413
v 227.997101 34.7753792 -761.434875
v 245.831085 12.6958885 -749.48877
v 258.31546 -11.2034836 -743.192078
v 263.689484 -34.9082336 -746.01062
v 190.813019 57.6038742 -729.548401
v 211.609467 39.853302 -713.053589
v 228.517303 19.0917091 -701.424255
v 240.107208 -4.43921661 -695.771423
v 245.186249 -28.9752502 -698.026428
v 243.28952 -51.7676163 -709.922668
v 32.9554443 -31.2626572 -582.37915
v 63.0560303 -22.3652267 -568.898071
v 23.6424561 -11.5524521 -584.925171
v 93.7867737 -8.43527985 -567.820435
v 53.9697876 -0.717660904 -578.152588
v 17.0008545 7.98773193 -600.7229
v 122.04187 9.27623177 -580.833496
v 82.8812866 14.0709591 -584.897095
v 46.6199341 19.6523418 -600.651001
v 12.4942627 26.6196823 -627.229126
v 144.430481 28.4896641 -607.740356
v 107.649475 31.4203682 -605.126953
v 72.979248 34.4116669 -613.713928
v 40.4655457 38.7133865 -632.242798
v 9.49841309 44.4765015 -660.626465
v 158.814819 46.5617599 -646.723816
v 125.983826 49.5148315 -638.070557
v 94.0237427 51.3855896 -639.360474
v 63.5701904 53.9581451 -649.701599
v 34.7122803 57.7541199 -669.038818
v 6.98913574 62.8183746 -697.089661
v 165.837036 61.627037 -695.028442
v 137.421936 66.4906616 -682.378479
v 108.817444 69.550705 -676.824768
v 80.8501587 72.2463074 -678.827393
v 54.0296326 75.2644577 -689.104614
v 28.5256958 78.8951035 -707.585022
v 3.87536621 82.9773483 -733.571655
v 63.219635 -45.4424515 -580.364624
v 95.363678 -56.3261642 -588.102417
v 98.7952271 -32.8911896 -568.214355
v 127.242401 -63.8294296 -604.546387
v 133.700317 -39.6380692 -579.59082
v 131.980499 -15.0836792 -571.946289
v 157.606262 -68.8010635 -628.377075
v 166.054077 -44.1183548 -601.057617
v 166.625061 -18.9258881 -589.32019
v 159.562958 5.42889595 -591.53595
v 185.623077 -71.7384033 -658.305237
v 194.806824 -47.5575943 -630.973511
v 196.768555 -21.9423294 -617.218384
v 191.371735 2.90174866 -615.760071
v 178.712769 25.8128128 -625.660034
v 211.573883 -72.3323364 -692.838379
v 220.197357 -50.3495789 -667.539185
v 222.508392 -25.2850876 -653.95166
v 217.767059 -0.131099701 -650.866089
v 206.282227 23.1373291 -657.285522
v 188.572021 43.6295929 -672.315979
v 22.901123 -46.2758789 -603.215271
v 15.0868835 -59.0860672 -635.10321
v 54.27005 -63.0780334 -609.337646
v 8.85040283 -69.5636444 -674.36676
v 46.9104309 -76.5719528 -648.305298
v 85.8902893 -75.3022995 -623.646301
v 3.56723022 -77.775444 -716.9245
v 40.6434021 -85.9258118 -692.244263
v 77.9999695 -88.3196182 -667.15918
v 116.911224 -83.2520447 -644.066162
v -0.0956726074 -84.3099823 -759.509338
v 35.1920166 -91.7787247 -737.294739
v 71.4602051 -96.0441666 -713.69989
v 108.90387 -95.3333435 -690.044067
v 147.331177 -87.7635727 -669.667114
v 0.592163086 -89.2861938 -800.915771
v 32.6106567 -94.6522064 -782.150818
v 67.0270996 -98.9422607 -761.152405
v 103.306702 -100.690765 -738.922485
v 140.58844 -97.928215 -717.610107
v 177.357269 -88.7261505 -700.605957
v 0.0439758301 -23.7767715 -601.938232
v -27.6419373 -14.0055313 -627.522949
v -11.0545959 -37.0917358 -626.660767
v -50.9463654 -4.28863525 -658.463806
v -38.7042847 -26.6440964 -654.409058
v -18.96521 -48.5462418 -660.87146
v -71.093399 3.70637131 -694.649231
v -61.8137207 -17.1761208 -686.087585
v -46.4591522 -38.167305 -689.391785
v -24.9501038 -58.7584381 -700.640808
v -88.5778809 9.19112587 -735.122681
v -81.4094696 -10.1400795 -721.92218
v -69.1483154 -29.8667831 -721.041931
v -51.8036957 -49.5773239 -728.779602
v -29.0917053 -68.2655258 -742.580627
v -102.974625 11.9961472 -778.185364
v -97.3506622 -6.27731323 -762.730896
v -87.3704376 -24.8881226 -757.341003
v -72.8877869 -43.7077179 -760.832031
v -53.651001 -61.7723465 -770.759277
v -29.4594727 -77.6223221 -785.019165
v -8.99084473 -2.5891571 -609.845703
v -14.013031 16.8317432 -631.292358
v -34.8878784 7.28017807 -640.922241
v -16.3700256 34.698719 -662.031372
v -38.1311035 25.7877159 -667.591064
v -56.4285278 15.970726 -677.654663
v -17.2192993 52.2607193 -697.760864
v -39.0949707 43.0362473 -701.79834
v -58.6065521 33.5853119 -708.64386
v -75.5505981 22.7447605 -719.266418
v -17.8179321 71.249939 -735.333557
v -39.2147522 61.1340332 -739.289368
v -59.3504333 51.0664062 -745.241882
v -77.6474915 40.1310349 -753.411926
v -92.8070984 27.4558487 -764.112305
g 
f 3 1 2
f 5 2 4
f 6 3 5
f 8 4 7
f 9 5 8
f 10 6 9
f 12 7 11
f 13 8 12
f 14 9 13
f 15 10 14
f 17 11 16
f 18 12 17
f 19 13 18
f 20 14 19
f 21 15 20
f 23 16 22
f 24 17 23
f 25 18 24
f 26 19 25
f 27 20 26
f 28 21 27
f 30 22 29
f 31 23 30
f 32 24 31
f 33 25 32
f 34 26 33
f 35 27 34
f 36 28 35
f 3 2 5
f 5 4 8
f 6 5 9
f 8 7 12
f 9 8 13
f 10 9 14
f 12 11 17
f 13 12 18
f 14 13 19
f 15 14 20
f 17 16 23
f 18 17 24
f 19 18 25
f 20 19 26
f 21 20 27
f 23 22 30
f 24 23 31
f 25 24 32
f 26 25 33
f 27 26 34
f 28 27 35
f 37 1 3
f 38 3 6
f 39 37 38
f 40 6 10
f 41 38 40
f 42 39 41
f 43 10 15
f 44 40 43
f 45 41 44
f 46 42 45
f 47 15 21
f 48 43 47
f 49 44 48
f 50 45 49
f 51 46 50
f 52 21 28
f 53 47 52
f 54 48 53
f 55 49 54
f 56 50 55
f 57 51 56
f 58 28 36
f 59 52 58
f 60 53 59
f 61 54 60
f 62 55 61
f 63 56 62
f 64 57 63
f 37 3 38
f 38 6 40
f 39 38 41
f 40 10 43
f 41 40 44
f 42 41 45
f 43 15 47
f 44 43 48
f 45 44 49
f 46 45 50
f 47 21 52
f 48 47 53
f 49 48 54
f 50 49 55
f 51 50 56
f 52 28 58
f 53 52 59
f 54 53 60
f 55 54 61
f 56 55 62
f 57 56 63
f 65 1 37
f 66 37 39
f 67 65 66
f 68 39 42
f 69 66 68
f 70 67 69
f 71 42 46
f 72 68 71
f 73 69 72
f 74 70 73
f 75 46 51
f 76 71 75
f 77 72 76
f 78 73 77
f 79 74 78
f 80 51 57
f 81 75 80
f 82 76 81
f 83 77 82
f 84 78 83
f 85 79 84
f 86 57 64
f 87 80 86
f 88 81 87
f 89 82 88
f 90 83 89
f 91 84 90
f 92 85 91
f 65 37 66
f 66 39 68
f 67 66 69
f 68 42 71
f 69 68 72
f 70 69 73
f 71 46 75
f 72 71 76
f 73 72 77
f 74 73 78
f 75 51 80
f 76 75 81
f 77 76 82
f 78 77 83
f 79 78 84
f 80 57 86
f 81 80 87
f 82 81 88
f 83 82 89
f 84 83 90
f 85 84 91
f 93 1 65
f 94 65 67
f 95 93 94
f 96 67 70
f 97 94 96
f 98 95 97
f 99 70 74
f 100 96 99
f 101 97 100
f 102 98 101
f 103 74 79
f 104 99 103
f 105 100 104
f 106 101 105
f 107 102 106
f 108 79 85
f 109 103 108
f 110 104 109
f 111 105 110
f 112 106 111
f 113 107 112
f 114 85 92
f 115 108 114
f 116 109 115
f 117 110 116
f 118 111 117
f 119 112 118
f 120 113 119
f 93 65 94
f 94 67 96
f 95 94 97
f 96 70 99
f 97 96 100
f 98 97 101
f 99 74 103
f 100 99 104
f 101 100 105
f 102 101 106
f 103 79 108
f 104 103 109
f 105 104 110
f 106 105 111
f 107 106 112
f 108 85 114
f 109 108 115
f 110 109 116
f 111 110 117
f 112 111 118
f 113 112 119
f 2 1 93
f 121 93 95
f 4 2 121
f 122 95 98
f 123 121 122
f 7 4 123
f 124 98 102
f 125 122 124
f 126 123 125
f 11 7 126
f 127 102 107
f 128 124 127
f 129 125 128
f 130 126 129
f 16 11 130
f 131 107 113
f 132 127 131
f 133 128 132
f 134 129 133
f 135 130 134
f 22 16 135
f 136 113 120
f 137 131 136
f 138 132 137
f 139 133 138
f 140 134 139
f 141 135 140
f 29 22 141
f 2 93 121
f 121 95 122
f 4 121 123
f 122 98 124
f 123 122 125
f 7 123 126
f 124 102 127
f 125 124 128
f 126 125 129
f 11 126 130
f 127 107 131
f 128 127 132
f 129 128 133
f 130 129 134
f 16 130 135
f 131 113 136
f 132 131 137
f 133 132 138
f 134 133 139
f 135 134 140
f 22 135 141
f 142 29 141
f 143 141 140
f 144 142 143
f 145 140 139
f 146 143 145
f 147 144 146
f 148 139 138
f 149 145 148
f 150 146 149
f 151 147 150
f 152 138 137
f 153 148 152
f 154 149 153
f 155 150 154
f 156 151 155
f 157 137 136
f 158 152 157
f 159 153 158
f 160 154 159
f 161 155 160
f 162 156 161
f 163 136 120
f 164 157 163
f 165 158 164
f 166 159 165
f 167 160 166
f 168 161 167
f 169 162 168
f 142 141 143
f 143 140 145
f 144 143 146
f 145 139 148
f 146 145 149
f 147 146 150
f 148 138 152
f 149 148 153
f 150 149 154
f 151 150 155
f 152 137 157
f 153 152 158
f 154 153 159
f 155 154 160
f 156 155 161
f 157 136 163
f 158 157 164
f 159 158 165
f 160 159 166
f 161 160 167
f 162 161 168
f 170 120 119
f 171 119 118
f 172 170 171
f 173 118 117
f 174 171 173
f 175 172 174
f 176 117 116
f 177 173 176
f 178 174 177
f 179 175 178
f 180 116 115
f 181 176 180
f 182 177 181
f 183 178 182
f 184 179 183
f 185 115 114
f 186 180 185
f 187 181 186
f 188 182 187
f 189 183 188
f 190 184 189
f 191 114 92
f 192 185 191
f 193 186 192
f 194 187 193
f 195 188 194
f 196 189 195
f 197 190 196
f 170 119 171
f 171 118 173
f 172 171 174
f 173 117 176
f 174 173 177
f 175 174 178
f 176 116 180
f 177 176 181
f 178 177 182
f 179 178 183
f 180 115 185
f 181 180 186
f 182 181 187
f 183 182 188
f 184 183 189
f 185 114 191
f 186 185 192
f 187 186 193
f 188 187 194
f 189 188 195
f 190 189 196
f 198 92 91
f 199 91 90
f 200 198 199
f 201 90 89
f 202 199 201
f 203 200 202
f 204 89 88
f 205 201 204
f 206 202 205
f 207 203 206
f 208 88 87
f 209 204 208
f 210 205 209
f 211 206 210
f 212 207 211
f 213 87 86
f 214 208 213
f 215 209 214
f 216 210 215
f 217 211 216
f 218 212 217
f 219 86 64
f 220 213 219
f 221 214 220
f 222 215 221
f 223 216 222
f 224 217 223
f 225 218 224
f 198 91 199
f 199 90 201
f 200 199 202
f 201 89 204
f 202 201 205
f 203 202 206
f 204 88 208
f 205 204 209
f 206 205 210
f 207 206 211
f 208 87 213
f 209 208 214
f 210 209 215
f 211 210 216
f 212 211 217
f 213 86 219
f 214 213 220
f 215 214 221
f 216 215 222
f 217 216 223
f 218 217 224
f 226 64 63
f 227 63 62
f 228 226 227
f 229 62 61
f 230 227 229
f 231 228 230
f 232 61 60
f 233 229 232
f 234 230 233
f 235 231 234
f 236 60 59
f 237 232 236
f 238 233 237
f 239 234 238
f 240 235 239
f 241 59 58
f 242 236 241
f 243 237 242
f 244 238 243
f 245 239 244
f 246 240 245
f 247 58 36
f 248 241 247
f 249 242 248
f 250 243 249
f 251 244 250
f 252 245 251
f 253 246 252
f 226 63 227
f 227 62 229
f 228 227 230
f 229 61 232
f 230 229 233
f 231 230 234
f 232 60 236
f 233 232 237
f 234 233 238
f 235 234 239
f 236 59 241
f 237 236 242
f 238 237 243
f 239 238 244
f 240 239 245
f 241 58 247
f 242 241 248
f 243 242 249
f 244 243 250
f 245 244 251
f 246 245 252
f 254 36 35
f 255 35 34
f 256 254 255
f 257 34 33
f 258 255 257
f 259 256 258
f 260 33 32
f 261 257 260
f 262 258 261
f 263 259 262
f 264 32 31
f 265 260 264
f 266 261 265
f 267 262 266
f 268 263 267
f 269 31 30
f 270 264 269
f 271 265 270
f 272 266 271
f 273 267 272
f 274 268 273
f 275 30 29
f 276 269 275
f 277 270 276
f 278 271 277
f 279 272 278
f 280 273 279
f 281 274 280
f 254 35 255
f 255 34 257
f 256 255 258
f 257 33 260
f 258 257 261
f 259 258 262
f 260 32 264
f 261 260 265
f 262 261 266
f 263 262 267
f 264 31 269
f 265 264 270
f 266 265 271
f 267 266 272
f 268 267 273
f 269 30 275
f 270 269 276
f 271 270 277
f 272 271 278
f 273 272 279
f 274 273 280
f 275 29 142
f 282 142 144
f 276 275 282
f 283 144 147
f 284 282 283
f 277 276 284
f 285 147 151
f 286 283 285
f 287 284 286
f 278 277 287
f 288 151 156
f 289 285 288
f 290 286 289
f 291 287 290
f 279 278 291
f 292 156 162
f 293 288 292
f 294 289 293
f 295 290 294
f 296 291 295
f 280 279 296
f 297 162 169
f 298 292 297
f 299 293 298
f 300 294 299
f 301 295 300
f 302 296 301
f 281 280 302
f 275 142 282
f 282 144 283
f 276 282 284
f 283 147 285
f 284 283 286
f 277 284 287
f 285 151 288
f 286 285 289
f 287 286 290
f 278 287 291
f 288 156 292
f 289 288 293
f 290 289 294
f 291 290 295
f 279 291 296
f 292 162 297
f 293 292 298
f 294 293 299
f 295 294 300
f 296 295 301
f 280 296 302
f 163 120 170
f 303 170 172
f 164 163 303
f 304 172 175
f 305 303 304
f 165 164 305
f 306 175 179
f 307 304 306
f 308 305 307
f 166 165 308
f 309 179 184
f 310 306 309
f 311 307 310
f 312 308 311
f 167 166 312
f 313 184 190
f 314 309 313
f 315 310 314
f 316 311 315
f 317 312 316
f 168 167 317
f 318 190 197
f 319 313 318
f 320 314 319
f 321 315 320
f 322 316 321
f 323 317 322
f 169 168 323
f 163 170 303
f 303 172 304
f 164 303 305
f 304 175 306
f 305 304 307
f 165 305 308
f 306 179 309
f 307 306 310
f 308 307 311
f 166 308 312
f 309 184 313
f 310 309 314
f 311 310 315
f 312 311 316
f 167 312 317
f 313 190 318
f 314 313 319
f 315 314 320
f 316 315 321
f 317 316 322
f 168 317 323
f 191 92 198
f 324 198 200
f 192 191 324
f 325 200 203
f 326 324 325
f 193 192 326
f 327 203 207
f 328 325 327
f 329 326 328
f 194 193 329
f 330 207 212
f 331 327 330
f 332 328 331
f 333 329 332
f 195 194 333
f 334 212 218
f 335 330 334
f 336 331 335
f 337 332 336
f 338 333 337
f 196 195 338
f 339 218 225
f 340 334 339
f 341 335 340
f 342 336 341
f 343 337 342
f 344 338 343
f 197 196 344
f 191 198 324
f 324 200 325
f 192 324 326
f 325 203 327
f 326 325 328
f 193 326 329
f 327 207 330
f 328 327 331
f 329 328 332
f 194 329 333
f 330 212 334
f 331 330 335
f 332 331 336
f 333 332 337
f 195 333 338
f 334 218 339
f 335 334 340
f 336 335 341
f 337 336 342
f 338 337 343
f 196 338 344
f 219 64 226
f 345 226 228
f 220 219 345
f 346 228 231
f 347 345 346
f 221 220 347
f 348 231 235
f 349 346 348
f 350 347 349
f 222 221 350
f 351 235 240
f 352 348 351
f 353 349 352
f 354 350 353
f 223 222 354
f 355 240 246
f 356 351 355
f 357 352 356
f 358 353 357
f 359 354 358
f 224 223 359
f 360 246 253
f 361 355 360
f 362 356 361
f 363 357 362
f 364 358 363
f 365 359 364
f 225 224 365
f 219 226 345
f 345 228 346
f 220 345 347
f 346 231 348
f 347 346 349
f 221 347 350
f 348 235 351
f 349 348 352
f 350 349 353
f 222 350 354
f 351 240 355
f 352 351 356
f 353 352 357
f 354 353 358
f 223 354 359
f 355 246 360
f 356 355 361
f 357 356 362
f 358 357 363
f 359 358 364
f 224 359 365
f 247 36 254
f 366 254 256
f 248 247 366
f 367 256 259
f 368 366 367
f 249 248 368
f 369 259 263
f 370 367 369
f 371 368 370
f 250 249 371
f 372 263 268
f 373 369 372
f 374 370 373
f 375 371 374
f 251 250 375
f 376 268 274
f 377 372 376
f 378 373 377
f 379 374 378
f 380 375 379
f 252 251 380
f 381 274 281
f 382 376 381
f 383 377 382
f 384 378 383
f 385 379 384
f 386 380 385
f 253 252 386
f 247 254 366
f 366 256 367
f 248 366 368
f 367 259 369
f 368 367 370
f 249 368 371
f 369 263 372
f 370 369 373
f 371 370 374
f 250 371 375
f 372 268 376
f 373 372 377
f 374 373 378
f 375 374 379
f 251 375 380
f 376 274 381
f 377 376 382
f 378 377 383
f 379 378 384
f 380 379 385
f 252 380 386
f 389 387 388
f 391 388 390
f 392 389 391
f 394 390 393
f 395 391 394
f 396 392 395
f 398 393 397
f 399 394 398
f 400 395 399
f 401 396 400
f 403 397 402
f 404 398 403
f 405 399 404
f 406 400 405
f 407 401 406
f 409 402 408
f 410 403 409
f 411 404 410
f 412 405 411
f 413 406 412
f 414 407 413
f 302 408 281
f 301 409 302
f 300 410 301
f 299 411 300
f 298 412 299
f 297 413 298
f 169 414 297
f 389 388 391
f 391 390 394
f 392 391 395
f 394 393 398
f 395 394 399
f 396 395 400
f 398 397 403
f 399 398 404
f 400 399 405
f 401 400 406
f 403 402 409
f 404 403 410
f 405 404 411
f 406 405 412
f 407 406 413
f 409 408 302
f 410 409 301
f 411 410 300
f 412 411 299
f 413 412 298
f 414 413 297
f 388 387 415
f 417 415 416
f 390 388 417
f 419 416 418
f 420 417 419
f 393 390 420
f 422 418 421
f 423 419 422
f 424 420 423
f 397 393 424
f 426 421 425
f 427 422 426
f 428 423 427
f 429 424 428
f 402 397 429
f 431 425 430
f 432 426 431
f 433 427 432
f 434 428 433
f 435 429 434
f 408 402 435
f 386 430 253
f 385 431 386
f 384 432 385
f 383 433 384
f 382 434 383
f 381 435 382
f 281 408 381
f 388 415 417
f 417 416 419
f 390 417 420
f 419 418 422
f 420 419 423
f 393 420 424
f 422 421 426
f 423 422 427
f 424 423 428
f 397 424 429
f 426 425 431
f 427 426 432
f 428 427 433
f 429 428 434
f 402 429 435
f 431 430 386
f 432 431 385
f 433 432 384
f 434 433 383
f 435 434 382
f 408 435 381
f 415 387 436
f 438 436 437
f 416 415 438
f 440 437 439
f 441 438 440
f 418 416 441
f 443 439 442
f 444 440 443
f 445 441 444
f 421 418 445
f 447 442 446
f 448 443 447
f 449 444 448
f 450 445 449
f 425 421 450
f 452 446 451
f 453 447 452
f 454 448 453
f 455 449 454
f 456 450 455
f 430 425 456
f 365 451 225
f 364 452 365
f 363 453 364
f 362 454 363
f 361 455 362
f 360 456 361
f 253 430 360
f 415 436 438
f 438 437 440
f 416 438 441
f 440 439 443
f 441 440 444
f 418 441 445
f 443 442 447
f 444 443 448
f 445 444 449
f 421 445 450
f 447 446 452
f 448 447 453
f 449 448 454
f 450 449 455
f 425 450 456
f 452 451 365
f 453 452 364
f 454 453 363
f 455 454 362
f 456 455 361
f 430 456 360
f 436 387 457
f 459 457 458
f 437 436 459
f 461 458 460
f 462 459 461
f 439 437 462
f 464 460 463
f 465 461 464
f 466 462 465
f 442 439 466
f 468 463 467
f 469 464 468
f 470 465 469
f 471 466 470
f 446 442 471
f 473 467 472
f 474 468 473
f 475 469 474
f 476 470 475
f 477 471 476
f 451 446 477
f 344 472 197
f 343 473 344
f 342 474 343
f 341 475 342
f 340 476 341
f 339 477 340
f 225 451 339
f 436 457 459
f 459 458 461
f 437 459 462
f 461 460 464
f 462 461 465
f 439 462 466
f 464 463 468
f 465 464 469
f 466 465 470
f 442 466 471
f 468 467 473
f 469 468 474
f 470 469 475
f 471 470 476
f 446 471 477
f 473 472 344
f 474 473 343
f 475 474 342
f 476 475 341
f 477 476 340
f 451 477 339
f 457 387 389
f 478 389 392
f 458 457 478
f 479 392 396
f 480 478 479
f 460 458 480
f 481 396 401
f 482 479 481
f 483 480 482
f 463 460 483
f 484 401 407
f 485 481 484
f 486 482 485
f 487 483 486
f 467 463 487
f 488 407 414
f 489 484 488
f 490 485 489
f 491 486 490
f 492 487 491
f 472 467 492
f 323 414 169
f 322 488 323
f 321 489 322
f 320 490 321
f 319 491 320
f 318 492 319
f 197 472 318
f 457 389 478
f 478 392 479
f 458 478 480
f 479 396 481
f 480 479 482
f 460 480 483
f 481 401 484
f 482 481 485
f 483 482 486
f 463 483 487
f 484 407 488
f 485 484 489
f 486 485 490
f 487 486 491
f 467 487 492
f 488 414 323
f 489 488 322
f 490 489 321
f 491 490 320
f 492 491 319
f 472 492 318
