# File exported by Houdini 20.5.445 (www.sidefx.com)
# 492 points
# 2940 vertices
# 980 primitives
# Bounds: [-112.503967, -178.620209, -1108.03296] to [283.277893, 294.997314, -646.768066]
g 
v 142.400024 159.592987 -1055.75745
v 149.54187 196.575958 -1047.02649
v 160.24469 164.508331 -1035.96265
v 157.228027 227.078918 -1029.70081
v 170.081177 202.395264 -1021.88269
v 177.319031 167.22287 -1012.65967
v 165.39978 250.519287 -1004.92798
v 179.519287 231.375122 -999.003174
v 188.917969 204.236023 -993.768311
v 193.237 166.433716 -985.147095
v 173.184814 267.576233 -975.338379
v 187.743164 252.764984 -969.669067
v 198.675659 230.986511 -966.308228
v 205.482605 201.537018 -961.977173
v 207.966064 161.388214 -953.17041
v 180.183655 279.586517 -943.919922
v 194.565491 267.89624 -936.504395
v 206.510864 249.73645 -932.800537
v 215.323914 225.371307 -930.353394
v 220.615662 193.427155 -926.102051
v 221.900452 151.978058 -917.771851
v 186.751892 287.441101 -912.398071
v 200.350403 278.149048 -901.807373
v 212.546997 262.707367 -895.749146
v 222.631409 241.351746 -892.721558
v 230.069458 214.201843 -890.607544
v 234.347717 180.304443 -886.844116
v 235.077515 138.780853 -880.293701
v 193.284912 291.748566 -881.464478
v 206.141418 284.256653 -866.961426
v 218.277039 270.745392 -856.679077
v 229.103699 251.154297 -850.514648
v 237.939819 226.610657 -847.828491
v 244.1651 197.114899 -846.482666
v 247.283325 162.475311 -844.748047
v 247.258484 123.039131 -842.289551
v 145.721252 121.02166 -1045.95898
v 163.09436 123.599068 -1024.22803
v 147.26947 79.2381287 -1030.91211
v 178.811157 124.139839 -999.173706
v 163.640564 80.6910095 -1006.96362
v 147.339539 36.360817 -1012.11328
v 193.162659 121.419411 -969.930176
v 178.186035 79.9896545 -980.005737
v 162.760437 37.4424973 -986.258423
v 146.049744 -5.82791901 -990.93396
v 207.367493 114.569893 -936.908081
v 192.11499 75.7294312 -949.47168
v 176.452393 35.5108604 -957.765869
v 160.024963 -5.61555862 -963.411255
v 142.853699 -46.3987656 -967.840698
v 222.009155 103.84594 -900.448608
v 206.888367 66.967453 -915.465454
v 190.518982 28.9229774 -926.292114
v 173.304871 -9.74621201 -933.813232
v 155.882019 -47.8031311 -938.82959
v 138.489563 -83.6010666 -942.535156
v 236.894287 89.9769745 -861.555054
v 223.196899 54.212841 -877.81665
v 206.630615 17.1403732 -891.206787
v 188.509949 -19.7013206 -901.232056
v 169.592896 -54.6734543 -907.974731
v 151.431824 -87.2414932 -911.675293
v 133.623169 -115.30204 -914.596924
v 127.409729 130.282867 -1066.78333
v 130.330078 85.0390015 -1052.82361
v 113.452759 99.7333603 -1072.48181
v 131.490356 39.4527321 -1034.99121
v 116.357117 50.3968048 -1055.00696
v 100.109375 69.8247375 -1074.26501
v 131.346313 -4.75934219 -1014.99719
v 117.235962 3.02928352 -1035.88428
v 102.829407 18.0253372 -1055.06287
v 86.7296143 40.9546242 -1073.75854
v 129.487549 -47.0367966 -993.016724
v 116.518677 -41.6364822 -1015.38391
v 103.022522 -30.386528 -1035.31702
v 88.618042 -12.027977 -1053.7699
v 72.6193237 12.830471 -1071.08301
v 125.67688 -86.6042557 -967.637207
v 113.43988 -83.8128433 -991.360352
v 100.754517 -75.3568649 -1012.91309
v 87.1276245 -60.9121628 -1032.23071
v 72.5391235 -40.2086716 -1049.67798
v 56.7744141 -14.4946671 -1064.97314
v 120.265137 -121.406685 -937.122803
v 107.673218 -122.276436 -960.751587
v 94.8841553 -117.185417 -983.783569
v 81.4813232 -106.143761 -1004.95435
v 67.413147 -88.9126663 -1023.80151
v 52.8543701 -66.2961731 -1040.20215
v 38.0427246 -40.0541 -1053.7229
v 128.055969 177.231537 -1069.91797
v 111.55658 148.406616 -1082.92419
v 113.047546 191.427307 -1081.48425
v 96.7272339 119.782005 -1089.38367
v 95.4383545 163.246918 -1095.5072
v 98.1737671 201.636169 -1090.12024
v 82.8587036 91.7327423 -1091.0116
v 79.9172363 135.684692 -1101.7135
v 79.5367432 174.092651 -1103.59204
v 84.1130371 207.967957 -1094.89722
v 69.078125 63.3749046 -1088.96765
v 65.5227051 107.883003 -1101.87219
v 63.2713013 146.708191 -1108.03296
v 64.4436035 180.71228 -1106.16638
v 71.1564941 210.649353 -1095.60632
v 54.0310669 33.8037415 -1083.26404
v 50.8016968 78.3140564 -1096.97498
v 47.7261963 117.724724 -1105.56348
v 46.8919067 152.492676 -1107.76575
v 50.2277222 183.130798 -1103.47949
v 59.1130371 210.375397 -1092.93018
v 35.7937622 2.78424454 -1072.41504
v 33.3079834 45.2991676 -1086.87134
v 30.4550781 84.9854736 -1096.6311
v 28.7815552 120.988029 -1101.45764
v 30.3761597 153.452454 -1101.02295
v 36.5073853 182.56546 -1096.19116
v 47.3713989 208.658356 -1087.35376
v 134.076111 213.850555 -1058.43823
v 119.143066 225.252319 -1066.97229
v 141.444031 241.356842 -1038.17627
v 105.498657 231.643463 -1073.1626
v 127.300598 249.10202 -1044.62903
v 149.950562 261.134338 -1011.72729
v 93.0822754 234.352173 -1076.66492
v 115.03717 252.427307 -1049.75928
v 136.937927 265.971619 -1017.51392
v 158.702393 275.331848 -982.011841
v 81.1801758 234.216949 -1077.79614
v 103.671936 252.91864 -1053.71204
v 125.723694 267.581726 -1022.72778
v 146.982422 278.539398 -987.783081
v 167.174194 285.584381 -950.76416
v 68.7819214 232.260101 -1076.42053
v 91.5559082 251.656036 -1056.28491
v 114.447876 267.265686 -1027.50183
v 136.465454 279.260803 -992.853149
v 156.911499 287.623566 -955.514526
v 175.708862 292.035187 -917.859497
v 188.581482 294.741333 -875.111206
v 168.648376 293.187439 -917.01123
v 181.607239 294.997314 -873.080566
v 147.617065 287.169128 -958.590942
v 158.860901 291.790527 -919.991943
v 170.843567 293.061157 -874.586426
v 124.831726 277.521698 -997.935669
v 135.134216 284.38913 -964.02063
v 145.109314 288.590759 -924.623291
v 155.499207 289.293365 -877.968994
v 100.336975 264.135773 -1032.55688
v 109.52771 273.387238 -1003.49768
v 118.409241 279.98175 -968.978027
v 126.824341 283.794678 -928.480347
v 135.575256 283.888367 -881.464722
v 74.7557983 246.310974 -1058.95654
v 81.8657837 258.001038 -1035.99023
v 89.3503418 267.243713 -1006.63635
v 96.7553101 273.642303 -971.043213
v 103.949097 276.837585 -929.953857
v 111.297913 275.823273 -884.299683
v 49.1051025 222.707306 -1074.86145
v 52.6001587 236.03479 -1057.93396
v 57.3875732 247.842133 -1034.93628
v 63.1231079 257.202362 -1005.28943
v 69.4851685 263.303192 -969.322388
v 76.0330811 265.908142 -929.092041
v 83.4138794 264.04129 -886.644409
v 27.2131348 190.256195 -1084.01453
v 16.0946045 157.560852 -1089.30212
v 6.58071899 169.167969 -1074.99805
v 10.5841675 123.265785 -1090.95789
v -4.05178833 130.734772 -1077.31238
v -14.3633728 146.04715 -1061.07947
v 9.50570679 87.1167145 -1088.56104
v -8.96286011 92.2770844 -1076.16907
v -24.3463135 103.710564 -1060.87646
v -35.3557129 123.037163 -1042.75134
v 11.041748 48.4436264 -1081.401
v -10.1357117 53.0514717 -1070.71899
v -29.1930847 62.4094505 -1056.58752
v -45.0105591 78.5915527 -1039.90564
v -55.7710266 102.29467 -1020.75757
v 13.2145996 6.77436638 -1068.854
v -9.48794556 11.8407822 -1060.0448
v -31.1731873 20.5558529 -1047.151
v -50.4363403 35.2949333 -1031.7428
v -65.4752197 56.5911827 -1014.6698
v -74.4442444 84.4003601 -996.04895
v 15.4544678 -37.400444 -1050.18323
v -8.17706299 -32.4687386 -1042.39319
v -31.6183167 -23.6990128 -1030.78906
v -53.5558777 -9.25955582 -1016.51733
v -71.9117126 11.3490314 -1001.04187
v -84.4012756 37.8298874 -985.394165
v -89.7935486 68.381424 -969.473389
v 26.0376587 -78.6876297 -1029.72473
v 42.406189 -106.732079 -1012.7312
v 13.3800049 -110.897163 -1000.90137
v 58.1507568 -128.281097 -993.376709
v 31.87677 -137.572266 -981.065186
v 1.48205566 -133.962311 -967.74707
v 73.2605591 -142.674194 -971.76416
v 49.3276367 -156.161713 -959.258423
v 22.3532104 -157.523071 -945.773804
v -8.95791626 -147.171204 -931.456421
v 88.0741577 -150.055847 -948.033203
v 66.2403564 -166.659393 -935.237061
v 41.854126 -172.059692 -921.837524
v 14.2280273 -166.718475 -907.746094
v -18.079071 -151.435181 -893.675659
v 102.993958 -150.783752 -923.034058
v 83.3379517 -170.026978 -909.28772
v 61.0742188 -178.592499 -895.543457
v 35.833313 -176.928223 -881.78064
v 6.94006348 -166.3685 -868.341675
v -25.3148193 -148.252075 -856.268921
v 118.949585 -144.689728 -898.437378
v 101.795166 -165.832062 -882.551025
v 81.5869141 -177.198883 -867.358521
v 58.1052246 -178.620209 -853.138916
v 31.1748047 -171.565186 -840.346191
v 1.64013672 -157.936462 -829.477661
v -28.8159485 -139.122467 -821.48999
v 140.937195 -125.577293 -884.426025
v 163.212524 -97.3599167 -881.942017
v 151.320312 -130.950745 -856.755493
v 185.0979 -65.3834076 -877.370361
v 177.764465 -102.398888 -854.833618
v 163.79541 -130.384125 -831.567383
v 205.832336 -30.0048866 -868.739136
v 201.7854 -69.7688522 -849.12207
v 192.848145 -101.16526 -829.072266
v 176.223206 -123.390282 -807.819702
v 224.753601 7.9454155 -855.650391
v 223.407593 -33.2005768 -837.961914
v 217.790649 -67.4379654 -821.014771
v 206.483582 -93.2190018 -803.143677
v 186.647156 -109.835426 -784.453857
v 240.88147 47.2740326 -838.755981
v 242.24353 6.91518974 -821.017944
v 239.622864 -28.8891487 -806.030029
v 231.714294 -57.7570724 -791.231567
v 217.489136 -78.3024979 -776.085083
v 194.114502 -89.942955 -760.827637
v 252.886047 86.4315491 -818.741699
v 256.922302 49.6234055 -799.056519
v 257.747375 14.6399879 -783.602051
v 253.171082 -15.9066772 -770.641113
v 242.345276 -39.4584885 -758.415283
v 224.209778 -55.316803 -747.20459
v 199.105286 -64.4368057 -737.455078
v 258.478699 131.38562 -805.225586
v 257.014709 171.427643 -803.668213
v 267.427612 139.051239 -767.788574
v 252.167297 205.205963 -803.455566
v 264.288147 179.069366 -765.041992
v 274.375977 147.598297 -732.477417
v 244.358582 233.79245 -805.621948
v 257.809753 212.322266 -766.091797
v 269.534424 187.419983 -731.143677
v 278.889343 158.05365 -701.952759
v 234.058594 257.99762 -812.072998
v 248.39563 240.675476 -771.927734
v 261.243347 220.3703 -735.687012
v 272.112061 197.191772 -703.828369
v 279.848389 170.246399 -678.144165
v 221.72113 277.028656 -823.772583
v 236.25531 264.590851 -783.711304
v 249.691467 248.396973 -746.61853
v 261.418884 229.26886 -712.924438
v 270.52655 207.305023 -684.170288
v 275.895203 182.353241 -662.688599
v 207.600159 289.312988 -841.005371
v 221.418213 282.284821 -801.656738
v 234.47699 270.863525 -764.271118
v 246.243164 255.726746 -729.59314
v 255.883484 237.459808 -698.771606
v 262.549377 216.748749 -673.591431
v 264.464844 194.134949 -655.877197
v 202.904175 292.34726 -831.653687
v 194.820862 292.177032 -827.686401
v 215.752563 285.390167 -791.259644
v 182.070251 289.546265 -827.908081
v 205.737366 284.744049 -786.731934
v 227.111816 274.078094 -754.059937
v 164.1474 285.004059 -830.890747
v 190.559753 281.495789 -786.719849
v 214.819275 273.131073 -749.803589
v 236.781494 258.907501 -720.37085
v 140.3927 277.584625 -835.581909
v 168.98407 275.092682 -790.227539
v 196.469666 268.54483 -750.183594
v 221.721924 257.154022 -716.840942
v 243.999939 240.189819 -690.930542
v 110.684509 265.639008 -841.694214
v 139.746338 263.41275 -797.107788
v 169.727905 258.137665 -755.392212
v 198.964111 249.419434 -718.681763
v 225.312073 236.149139 -688.997803
v 247.402832 217.636353 -667.611328
v 26.0661011 205.760559 -1069.86877
v 3.21420288 186.244812 -1058.43311
v 27.1679688 220.128113 -1051.25488
v -19.3475952 165.408936 -1042.06836
v 2.67651367 202.060425 -1037.95703
v 30.130249 232.845428 -1026.97778
v -41.4125977 145.476074 -1021.38196
v -21.0308838 183.579346 -1019.37878
v 4.49411011 216.230713 -1011.8186
v 34.8414307 242.917358 -995.840698
v -62.1872559 127.113564 -997.0271
v -43.711853 165.801178 -995.925415
v -19.7430115 199.567719 -990.48645
v 8.83312988 227.528809 -978.247803
v 41.0663452 249.437866 -957.627808
v -80.0288391 109.124016 -969.543945
v -63.975708 147.403503 -967.806152
v -41.7850342 181.950714 -963.008057
v -14.9135742 210.913788 -952.884521
v 15.7038574 233.773193 -936.25354
v 49.0421753 251.150421 -913.664795
v -1.00561523 -74.9304581 -1021.62549
v -16.6438293 -102.698586 -989.111572
v -27.6938477 -66.28759 -1009.90405
v -30.5355835 -120.062935 -953.412842
v -45.3607483 -88.1945724 -974.670776
v -52.9465637 -51.5510483 -995.817261
v -42.4864502 -128.322784 -915.536499
v -60.7928467 -100.239174 -937.389282
v -71.8951111 -67.5006256 -958.983765
v -75.2566528 -30.371315 -980.620117
v -51.9204102 -128.942688 -876.551025
v -73.277832 -104.23629 -898.447021
v -87.5818481 -74.2515945 -920.694946
v -93.6503601 -39.9271011 -943.280396
v -91.9684448 -2.28653717 -965.431763
v -57.0097351 -122.593376 -837.89502
v -80.9369507 -100.66703 -858.213745
v -98.1436462 -72.841774 -880.724121
v -106.786499 -39.9939117 -904.357666
v -106.684357 -4.10151291 -928.408936
v -100.266235 32.552639 -950.585571
v 124.665894 -152.398376 -864.028076
v 133.067078 -152.746918 -834.661011
v 105.530457 -167.880005 -845.354004
v 142.887329 -146.045502 -809.604248
v 111.075806 -161.449463 -814.926025
v 82.7037964 -172.319946 -828.605469
v 152.294495 -132.641418 -786.841675
v 117.537476 -148.175964 -789.977295
v 84.7266846 -159.4935 -797.841675
v 55.8740845 -167.721039 -814.295166
v 159.797241 -112.516228 -764.602539
v 123.314636 -128.426361 -767.719604
v 87.0664673 -140.233551 -773.047607
v 53.7260132 -149.54007 -783.890991
v 25.2242432 -156.001617 -802.848389
v 165.58606 -85.6190872 -742.237915
v 128.014832 -101.767708 -746.092407
v 88.8803711 -114.094597 -751.043823
v 51.3955078 -124.27256 -759.473389
v 18.4212952 -132.719299 -773.576904
v -8.26980591 -138.14917 -794.682129
v 265.167297 94.7251358 -779.679565
v 274.315735 103.725746 -742.559082
v 269.129639 59.983448 -760.32373
v 280.553894 114.867546 -709.203125
v 277.009949 71.9480591 -725.055176
v 268.400635 28.5488319 -746.139038
v 283.277893 128.914429 -681.296265
v 280.973633 86.9355621 -694.129395
v 273.46283 44.6470871 -712.969727
v 260.861511 2.3445282 -734.967041
v 280.597961 144.830505 -660.71106
v 279.660461 105.05909 -669.234009
v 273.010742 64.0778503 -684.894165
v 261.33197 22.946125 -704.524292
v 245.018433 -17.2170944 -725.893066
v 270.544312 161.600464 -649.005493
v 270.927246 125.328606 -652.074219
v 265.272583 86.4391632 -663.334839
v 254.176575 46.4582062 -680.064697
v 238.719971 6.92850685 -699.216431
v 220.002869 -30.4748039 -718.870117
v 35.9669189 79.0299835 -758.786011
v 82.2318115 100.820946 -736.796875
v 40.5747681 114.124763 -772.241089
v 126.315369 122.579765 -712.599976
v 87.0180664 138.064301 -746.524536
v 43.312439 147.553467 -786.481445
v 166.713074 143.113434 -688.996582
v 130.071594 160.291138 -720.158569
v 89.2290039 170.95224 -758.669678
v 45.7843018 178.772766 -801.838745
v 201.741638 161.04892 -669.049072
v 168.57959 180.196655 -696.193481
v 131.065491 191.884583 -731.932251
v 91.0535278 200.230499 -773.168335
v 50.482666 206.977173 -819.128052
v 230.230286 175.292236 -655.689819
v 201.585449 196.699188 -677.776611
v 168.252441 210.210327 -709.481567
v 131.966919 219.140411 -747.888184
v 94.9032593 226.059601 -791.261719
v 58.8355103 231.11087 -839.124268
v 251.277222 185.882019 -651.077271
v 228.178955 208.968689 -667.598511
v 200.13269 225.102264 -694.271851
v 168.242188 235.695801 -728.810425
v 134.760132 242.964691 -769.185913
v 101.690735 248.101044 -814.016846
v 70.4012451 250.210052 -861.90979
v 60.6237793 56.9225349 -735.470825
v 86.2612305 34.7305489 -718.076172
v 112.050964 79.1507263 -713.31311
v 111.930054 12.2882862 -707.781494
v 139.282898 56.8582039 -698.250854
v 157.445496 100.531914 -690.622925
v 137.015442 -9.7232132 -704.797485
v 163.638794 33.9773102 -691.301147
v 183.60614 77.4963684 -678.814209
v 196.720947 119.977425 -670.087158
v 160.680786 -30.3386383 -709.208984
v 185.342163 11.2636642 -692.293335
v 205.496765 53.6753883 -676.203125
v 220.588135 95.7197037 -662.663086
v 229.234131 136.547668 -654.516357
v 181.74115 -48.9584579 -720.462036
v 204.348633 -10.4674988 -701.468872
v 223.867798 29.8494949 -682.856567
v 239.533386 70.8382263 -665.803589
v 250.040405 111.340141 -652.743286
v 254.153564 150.051666 -646.768066
v 4.00616455 43.5801125 -761.823853
v -24.9322815 8.35085297 -763.571777
v 28.531189 17.8803673 -738.685547
v -46.1158752 -26.0198593 -766.999268
v 2.0010376 -18.2342186 -741.592041
v 55.2116699 -5.85440826 -723.486328
v -56.4606323 -58.7913742 -773.756836
v -15.3062134 -51.7057037 -747.37085
v 31.8765259 -41.506134 -729.333252
v 83.2924805 -28.2663994 -716.613525
v -55.9674988 -89.4802475 -784.290283
v -22.3475037 -83.0602646 -757.515625
v 17.9403381 -73.8168335 -738.918457
v 63.3765869 -62.9047775 -726.657104
v 111.887207 -49.2273636 -717.868774
v -45.9076233 -116.585381 -799.968262
v -19.7053223 -112.319359 -772.670776
v 13.5980225 -104.191597 -753.264526
v 52.760437 -94.3930283 -740.487549
v 95.795105 -83.0595322 -732.380005
v 139.841431 -68.6344833 -726.57605
v -5.4770813 80.1860504 -787.71167
v -40.9825134 82.8409729 -817.510986
v -39.7814941 42.6130562 -790.394043
v -68.2849121 85.9395142 -848.452515
v -72.8770752 43.1941757 -820.197632
v -66.3907166 5.88125229 -792.930054
v -86.0784607 87.4887085 -880.578491
v -94.5387268 44.1864853 -852.061279
v -93.9333191 4.89381981 -824.109375
v -81.8633423 -29.6280518 -797.96106
v -94.781311 85.2870636 -912.320923
v -105.249634 43.6650429 -885.486572
v -108.708679 4.03796768 -857.670166
v -102.462646 -32.1712265 -831.037231
v -85.0649109 -63.6245422 -806.229004
v -95.7157288 78.2515411 -941.945312
v -106.806488 39.7202568 -918.520996
v -112.503967 1.3062973 -892.731812
v -110.302887 -35.3698349 -866.490112
v -98.2344971 -68.0599136 -841.545776
v -76.3640137 -95.1770554 -818.696289
v -0.826843262 118.355522 -807.108276
v 2.73138428 153.491302 -825.657227
v -34.2058411 123.575996 -840.737427
v 8.07983398 185.165314 -844.812744
v -27.5446472 159.235046 -862.483887
v -58.5855103 127.433678 -874.141479
v 17.4613953 212.586151 -865.596802
v -17.8997803 189.860229 -885.024902
v -48.0799255 161.846222 -898.517944
v -73.9595642 127.47567 -907.544678
v 31.4973755 234.71109 -888.583862
v -3.53491211 214.851746 -909.474854
v -33.9752197 189.681091 -924.418335
v -60.0004883 158.523804 -934.009766
v -81.0405273 121.267815 -939.488037
g 
f 3 1 2
f 5 2 4
f 6 3 5
f 8 4 7
f 9 5 8
f 10 6 9
f 12 7 11
f 13 8 12
f 14 9 13
f 15 10 14
f 17 11 16
f 18 12 17
f 19 13 18
f 20 14 19
f 21 15 20
f 23 16 22
f 24 17 23
f 25 18 24
f 26 19 25
f 27 20 26
f 28 21 27
f 30 22 29
f 31 23 30
f 32 24 31
f 33 25 32
f 34 26 33
f 35 27 34
f 36 28 35
f 3 2 5
f 5 4 8
f 6 5 9
f 8 7 12
f 9 8 13
f 10 9 14
f 12 11 17
f 13 12 18
f 14 13 19
f 15 14 20
f 17 16 23
f 18 17 24
f 19 18 25
f 20 19 26
f 21 20 27
f 23 22 30
f 24 23 31
f 25 24 32
f 26 25 33
f 27 26 34
f 28 27 35
f 37 1 3
f 38 3 6
f 39 37 38
f 40 6 10
f 41 38 40
f 42 39 41
f 43 10 15
f 44 40 43
f 45 41 44
f 46 42 45
f 47 15 21
f 48 43 47
f 49 44 48
f 50 45 49
f 51 46 50
f 52 21 28
f 53 47 52
f 54 48 53
f 55 49 54
f 56 50 55
f 57 51 56
f 58 28 36
f 59 52 58
f 60 53 59
f 61 54 60
f 62 55 61
f 63 56 62
f 64 57 63
f 37 3 38
f 38 6 40
f 39 38 41
f 40 10 43
f 41 40 44
f 42 41 45
f 43 15 47
f 44 43 48
f 45 44 49
f 46 45 50
f 47 21 52
f 48 47 53
f 49 48 54
f 50 49 55
f 51 50 56
f 52 28 58
f 53 52 59
f 54 53 60
f 55 54 61
f 56 55 62
f 57 56 63
f 65 1 37
f 66 37 39
f 67 65 66
f 68 39 42
f 69 66 68
f 70 67 69
f 71 42 46
f 72 68 71
f 73 69 72
f 74 70 73
f 75 46 51
f 76 71 75
f 77 72 76
f 78 73 77
f 79 74 78
f 80 51 57
f 81 75 80
f 82 76 81
f 83 77 82
f 84 78 83
f 85 79 84
f 86 57 64
f 87 80 86
f 88 81 87
f 89 82 88
f 90 83 89
f 91 84 90
f 92 85 91
f 65 37 66
f 66 39 68
f 67 66 69
f 68 42 71
f 69 68 72
f 70 69 73
f 71 46 75
f 72 71 76
f 73 72 77
f 74 73 78
f 75 51 80
f 76 75 81
f 77 76 82
f 78 77 83
f 79 78 84
f 80 57 86
f 81 80 87
f 82 81 88
f 83 82 89
f 84 83 90
f 85 84 91
f 93 1 65
f 94 65 67
f 95 93 94
f 96 67 70
f 97 94 96
f 98 95 97
f 99 70 74
f 100 96 99
f 101 97 100
f 102 98 101
f 103 74 79
f 104 99 103
f 105 100 104
f 106 101 105
f 107 102 106
f 108 79 85
f 109 103 108
f 110 104 109
f 111 105 110
f 112 106 111
f 113 107 112
f 114 85 92
f 115 108 114
f 116 109 115
f 117 110 116
f 118 111 117
f 119 112 118
f 120 113 119
f 93 65 94
f 94 67 96
f 95 94 97
f 96 70 99
f 97 96 100
f 98 97 101
f 99 74 103
f 100 99 104
f 101 100 105
f 102 101 106
f 103 79 108
f 104 103 109
f 105 104 110
f 106 105 111
f 107 106 112
f 108 85 114
f 109 108 115
f 110 109 116
f 111 110 117
f 112 111 118
f 113 112 119
f 2 1 93
f 121 93 95
f 4 2 121
f 122 95 98
f 123 121 122
f 7 4 123
f 124 98 102
f 125 122 124
f 126 123 125
f 11 7 126
f 127 102 107
f 128 124 127
f 129 125 128
f 130 126 129
f 16 11 130
f 131 107 113
f 132 127 131
f 133 128 132
f 134 129 133
f 135 130 134
f 22 16 135
f 136 113 120
f 137 131 136
f 138 132 137
f 139 133 138
f 140 134 139
f 141 135 140
f 29 22 141
f 2 93 121
f 121 95 122
f 4 121 123
f 122 98 124
f 123 122 125
f 7 123 126
f 124 102 127
f 125 124 128
f 126 125 129
f 11 126 130
f 127 107 131
f 128 127 132
f 129 128 133
f 130 129 134
f 16 130 135
f 131 113 136
f 132 131 137
f 133 132 138
f 134 133 139
f 135 134 140
f 22 135 141
f 142 29 141
f 143 141 140
f 144 142 143
f 145 140 139
f 146 143 145
f 147 144 146
f 148 139 138
f 149 145 148
f 150 146 149
f 151 147 150
f 152 138 137
f 153 148 152
f 154 149 153
f 155 150 154
f 156 151 155
f 157 137 136
f 158 152 157
f 159 153 158
f 160 154 159
f 161 155 160
f 162 156 161
f 163 136 120
f 164 157 163
f 165 158 164
f 166 159 165
f 167 160 166
f 168 161 167
f 169 162 168
f 142 141 143
f 143 140 145
f 144 143 146
f 145 139 148
f 146 145 149
f 147 146 150
f 148 138 152
f 149 148 153
f 150 149 154
f 151 150 155
f 152 137 157
f 153 152 158
f 154 153 159
f 155 154 160
f 156 155 161
f 157 136 163
f 158 157 164
f 159 158 165
f 160 159 166
f 161 160 167
f 162 161 168
f 170 120 119
f 171 119 118
f 172 170 171
f 173 118 117
f 174 171 173
f 175 172 174
f 176 117 116
f 177 173 176
f 178 174 177
f 179 175 178
f 180 116 115
f 181 176 180
f 182 177 181
f 183 178 182
f 184 179 183
f 185 115 114
f 186 180 185
f 187 181 186
f 188 182 187
f 189 183 188
f 190 184 189
f 191 114 92
f 192 185 191
f 193 186 192
f 194 187 193
f 195 188 194
f 196 189 195
f 197 190 196
f 170 119 171
f 171 118 173
f 172 171 174
f 173 117 176
f 174 173 177
f 175 174 178
f 176 116 180
f 177 176 181
f 178 177 182
f 179 178 183
f 180 115 185
f 181 180 186
f 182 181 187
f 183 182 188
f 184 183 189
f 185 114 191
f 186 185 192
f 187 186 193
f 188 187 194
f 189 188 195
f 190 189 196
f 198 92 91
f 199 91 90
f 200 198 199
f 201 90 89
f 202 199 201
f 203 200 202
f 204 89 88
f 205 201 204
f 206 202 205
f 207 203 206
f 208 88 87
f 209 204 208
f 210 205 209
f 211 206 210
f 212 207 211
f 213 87 86
f 214 208 213
f 215 209 214
f 216 210 215
f 217 211 216
f 218 212 217
f 219 86 64
f 220 213 219
f 221 214 220
f 222 215 221
f 223 216 222
f 224 217 223
f 225 218 224
f 198 91 199
f 199 90 201
f 200 199 202
f 201 89 204
f 202 201 205
f 203 202 206
f 204 88 208
f 205 204 209
f 206 205 210
f 207 206 211
f 208 87 213
f 209 208 214
f 210 209 215
f 211 210 216
f 212 211 217
f 213 86 219
f 214 213 220
f 215 214 221
f 216 215 222
f 217 216 223
f 218 217 224
f 226 64 63
f 227 63 62
f 228 226 227
f 229 62 61
f 230 227 229
f 231 228 230
f 232 61 60
f 233 229 232
f 234 230 233
f 235 231 234
f 236 60 59
f 237 232 236
f 238 233 237
f 239 234 238
f 240 235 239
f 241 59 58
f 242 236 241
f 243 237 242
f 244 238 243
f 245 239 244
f 246 240 245
f 247 58 36
f 248 241 247
f 249 242 248
f 250 243 249
f 251 244 250
f 252 245 251
f 253 246 252
f 226 63 227
f 227 62 229
f 228 227 230
f 229 61 232
f 230 229 233
f 231 230 234
f 232 60 236
f 233 232 237
f 234 233 238
f 235 234 239
f 236 59 241
f 237 236 242
f 238 237 243
f 239 238 244
f 240 239 245
f 241 58 247
f 242 241 248
f 243 242 249
f 244 243 250
f 245 244 251
f 246 245 252
f 254 36 35
f 255 35 34
f 256 254 255
f 257 34 33
f 258 255 257
f 259 256 258
f 260 33 32
f 261 257 260
f 262 258 261
f 263 259 262
f 264 32 31
f 265 260 264
f 266 261 265
f 267 262 266
f 268 263 267
f 269 31 30
f 270 264 269
f 271 265 270
f 272 266 271
f 273 267 272
f 274 268 273
f 275 30 29
f 276 269 275
f 277 270 276
f 278 271 277
f 279 272 278
f 280 273 279
f 281 274 280
f 254 35 255
f 255 34 257
f 256 255 258
f 257 33 260
f 258 257 261
f 259 258 262
f 260 32 264
f 261 260 265
f 262 261 266
f 263 262 267
f 264 31 269
f 265 264 270
f 266 265 271
f 267 266 272
f 268 267 273
f 269 30 275
f 270 269 276
f 271 270 277
f 272 271 278
f 273 272 279
f 274 273 280
f 275 29 142
f 282 142 144
f 276 275 282
f 283 144 147
f 284 282 283
f 277 276 284
f 285 147 151
f 286 283 285
f 287 284 286
f 278 277 287
f 288 151 156
f 289 285 288
f 290 286 289
f 291 287 290
f 279 278 291
f 292 156 162
f 293 288 292
f 294 289 293
f 295 290 294
f 296 291 295
f 280 279 296
f 297 162 169
f 298 292 297
f 299 293 298
f 300 294 299
f 301 295 300
f 302 296 301
f 281 280 302
f 275 142 282
f 282 144 283
f 276 282 284
f 283 147 285
f 284 283 286
f 277 284 287
f 285 151 288
f 286 285 289
f 287 286 290
f 278 287 291
f 288 156 292
f 289 288 293
f 290 289 294
f 291 290 295
f 279 291 296
f 292 162 297
f 293 292 298
f 294 293 299
f 295 294 300
f 296 295 301
f 280 296 302
f 163 120 170
f 303 170 172
f 164 163 303
f 304 172 175
f 305 303 304
f 165 164 305
f 306 175 179
f 307 304 306
f 308 305 307
f 166 165 308
f 309 179 184
f 310 306 309
f 311 307 310
f 312 308 311
f 167 166 312
f 313 184 190
f 314 309 313
f 315 310 314
f 316 311 315
f 317 312 316
f 168 167 317
f 318 190 197
f 319 313 318
f 320 314 319
f 321 315 320
f 322 316 321
f 323 317 322
f 169 168 323
f 163 170 303
f 303 172 304
f 164 303 305
f 304 175 306
f 305 304 307
f 165 305 308
f 306 179 309
f 307 306 310
f 308 307 311
f 166 308 312
f 309 184 313
f 310 309 314
f 311 310 315
f 312 311 316
f 167 312 317
f 313 190 318
f 314 313 319
f 315 314 320
f 316 315 321
f 317 316 322
f 168 317 323
f 191 92 198
f 324 198 200
f 192 191 324
f 325 200 203
f 326 324 325
f 193 192 326
f 327 203 207
f 328 325 327
f 329 326 328
f 194 193 329
f 330 207 212
f 331 327 330
f 332 328 331
f 333 329 332
f 195 194 333
f 334 212 218
f 335 330 334
f 336 331 335
f 337 332 336
f 338 333 337
f 196 195 338
f 339 218 225
f 340 334 339
f 341 335 340
f 342 336 341
f 343 337 342
f 344 338 343
f 197 196 344
f 191 198 324
f 324 200 325
f 192 324 326
f 325 203 327
f 326 325 328
f 193 326 329
f 327 207 330
f 328 327 331
f 329 328 332
f 194 329 333
f 330 212 334
f 331 330 335
f 332 331 336
f 333 332 337
f 195 333 338
f 334 218 339
f 335 334 340
f 336 335 341
f 337 336 342
f 338 337 343
f 196 338 344
f 219 64 226
f 345 226 228
f 220 219 345
f 346 228 231
f 347 345 346
f 221 220 347
f 348 231 235
f 349 346 348
f 350 347 349
f 222 221 350
f 351 235 240
f 352 348 351
f 353 349 352
f 354 350 353
f 223 222 354
f 355 240 246
f 356 351 355
f 357 352 356
f 358 353 357
f 359 354 358
f 224 223 359
f 360 246 253
f 361 355 360
f 362 356 361
f 363 357 362
f 364 358 363
f 365 359 364
f 225 224 365
f 219 226 345
f 345 228 346
f 220 345 347
f 346 231 348
f 347 346 349
f 221 347 350
f 348 235 351
f 349 348 352
f 350 349 353
f 222 350 354
f 351 240 355
f 352 351 356
f 353 352 357
f 354 353 358
f 223 354 359
f 355 246 360
f 356 355 361
f 357 356 362
f 358 357 363
f 359 358 364
f 224 359 365
f 247 36 254
f 366 254 256
f 248 247 366
f 367 256 259
f 368 366 367
f 249 248 368
f 369 259 263
f 370 367 369
f 371 368 370
f 250 249 371
f 372 263 268
f 373 369 372
f 374 370 373
f 375 371 374
f 251 250 375
f 376 268 274
f 377 372 376
f 378 373 377
f 379 374 378
f 380 375 379
f 252 251 380
f 381 274 281
f 382 376 381
f 383 377 382
f 384 378 383
f 385 379 384
f 386 380 385
f 253 252 386
f 247 254 366
f 366 256 367
f 248 366 368
f 367 259 369
f 368 367 370
f 249 368 371
f 369 263 372
f 370 369 373
f 371 370 374
f 250 371 375
f 372 268 376
f 373 372 377
f 374 373 378
f 375 374 379
f 251 375 380
f 376 274 381
f 377 376 382
f 378 377 383
f 379 378 384
f 380 379 385
f 252 380 386
f 389 387 388
f 391 388 390
f 392 389 391
f 394 390 393
f 395 391 394
f 396 392 395
f 398 393 397
f 399 394 398
f 400 395 399
f 401 396 400
f 403 397 402
f 404 398 403
f 405 399 404
f 406 400 405
f 407 401 406
f 409 402 408
f 410 403 409
f 411 404 410
f 412 405 411
f 413 406 412
f 414 407 413
f 302 408 281
f 301 409 302
f 300 410 301
f 299 411 300
f 298 412 299
f 297 413 298
f 169 414 297
f 389 388 391
f 391 390 394
f 392 391 395
f 394 393 398
f 395 394 399
f 396 395 400
f 398 397 403
f 399 398 404
f 400 399 405
f 401 400 406
f 403 402 409
f 404 403 410
f 405 404 411
f 406 405 412
f 407 406 413
f 409 408 302
f 410 409 301
f 411 410 300
f 412 411 299
f 413 412 298
f 414 413 297
f 388 387 415
f 417 415 416
f 390 388 417
f 419 416 418
f 420 417 419
f 393 390 420
f 422 418 421
f 423 419 422
f 424 420 423
f 397 393 424
f 426 421 425
f 427 422 426
f 428 423 427
f 429 424 428
f 402 397 429
f 431 425 430
f 432 426 431
f 433 427 432
f 434 428 433
f 435 429 434
f 408 402 435
f 386 430 253
f 385 431 386
f 384 432 385
f 383 433 384
f 382 434 383
f 381 435 382
f 281 408 381
f 388 415 417
f 417 416 419
f 390 417 420
f 419 418 422
f 420 419 423
f 393 420 424
f 422 421 426
f 423 422 427
f 424 423 428
f 397 424 429
f 426 425 431
f 427 426 432
f 428 427 433
f 429 428 434
f 402 429 435
f 431 430 386
f 432 431 385
f 433 432 384
f 434 433 383
f 435 434 382
f 408 435 381
f 415 387 436
f 438 436 437
f 416 415 438
f 440 437 439
f 441 438 440
f 418 416 441
f 443 439 442
f 444 440 443
f 445 441 444
f 421 418 445
f 447 442 446
f 448 443 447
f 449 444 448
f 450 445 449
f 425 421 450
f 452 446 451
f 453 447 452
f 454 448 453
f 455 449 454
f 456 450 455
f 430 425 456
f 365 451 225
f 364 452 365
f 363 453 364
f 362 454 363
f 361 455 362
f 360 456 361
f 253 430 360
f 415 436 438
f 438 437 440
f 416 438 441
f 440 439 443
f 441 440 444
f 418 441 445
f 443 442 447
f 444 443 448
f 445 444 449
f 421 445 450
f 447 446 452
f 448 447 453
f 449 448 454
f 450 449 455
f 425 450 456
f 452 451 365
f 453 452 364
f 454 453 363
f 455 454 362
f 456 455 361
f 430 456 360
f 436 387 457
f 459 457 458
f 437 436 459
f 461 458 460
f 462 459 461
f 439 437 462
f 464 460 463
f 465 461 464
f 466 462 465
f 442 439 466
f 468 463 467
f 469 464 468
f 470 465 469
f 471 466 470
f 446 442 471
f 473 467 472
f 474 468 473
f 475 469 474
f 476 470 475
f 477 471 476
f 451 446 477
f 344 472 197
f 343 473 344
f 342 474 343
f 341 475 342
f 340 476 341
f 339 477 340
f 225 451 339
f 436 457 459
f 459 458 461
f 437 459 462
f 461 460 464
f 462 461 465
f 439 462 466
f 464 463 468
f 465 464 469
f 466 465 470
f 442 466 471
f 468 467 473
f 469 468 474
f 470 469 475
f 471 470 476
f 446 471 477
f 473 472 344
f 474 473 343
f 475 474 342
f 476 475 341
f 477 476 340
f 451 477 339
f 457 387 389
f 478 389 392
f 458 457 478
f 479 392 396
f 480 478 479
f 460 458 480
f 481 396 401
f 482 479 481
f 483 480 482
f 463 460 483
f 484 401 407
f 485 481 484
f 486 482 485
f 487 483 486
f 467 463 487
f 488 407 414
f 489 484 488
f 490 485 489
f 491 486 490
f 492 487 491
f 472 467 492
f 323 414 169
f 322 488 323
f 321 489 322
f 320 490 321
f 319 491 320
f 318 492 319
f 197 472 318
f 457 389 478
f 478 392 479
f 458 478 480
f 479 396 481
f 480 479 482
f 460 480 483
f 481 401 484
f 482 481 485
f 483 482 486
f 463 483 487
f 484 407 488
f 485 484 489
f 486 485 490
f 487 486 491
f 467 487 492
f 488 414 323
f 489 488 322
f 490 489 321
f 491 490 320
f 492 491 319
f 472 492 318
