# File exported by Houdini 20.5.445 (www.sidefx.com)
# 492 points
# 2940 vertices
# 980 primitives
# Bounds: [-133.252197, -217.998596, -1082.81714] to [304.026093, 334.375702, -671.983948]
g 
v 77.7648621 31.057827 -1082.61548
v 65.7148132 74.4936523 -1078.07324
v 89.4827576 38.3799095 -1082.81714
v 55.2501526 115.84771 -1067.25903
v 78.2945862 86.0050354 -1076.44092
v 101.319061 46.0874672 -1079.25024
v 45.6074524 154.36026 -1051.80054
v 69.0402527 129.880341 -1064.01807
v 90.0335999 96.3817215 -1071.01001
v 112.386566 55.1069069 -1072.88623
v 36.6159973 189.823822 -1033.58667
v 60.6221619 169.985168 -1047.47925
v 81.1676941 141.746552 -1057.14185
v 100.35672 106.69799 -1062.81201
v 122.172333 66.0295258 -1064.23804
v 28.6942444 222.26712 -1014.36237
v 52.7893372 206.69342 -1028.20312
v 73.4051208 183.024811 -1039.20581
v 91.5047302 152.815369 -1047.25928
v 109.250946 117.561913 -1052.15894
v 130.716827 78.8343353 -1053.48608
v 22.2378845 250.896423 -994.331726
v 45.3052673 240.260559 -1006.64301
v 65.7505188 221.141296 -1017.23627
v 83.6022034 195.049561 -1026.41699
v 99.9478455 163.714111 -1033.78271
v 117.126495 129.145538 -1038.8728
v 138.470612 92.7672577 -1040.85205
v 17.0979919 275.650452 -972.838562
v 38.0324402 270.092194 -982.016174
v 57.7511292 256.178864 -990.656921
v 75.5406189 234.393494 -999.427307
v 91.6695251 206.393158 -1008.17694
v 107.469025 174.470734 -1016.23065
v 125.025177 140.788055 -1022.70758
v 146.355988 106.528358 -1026.37549
v 99.0233459 -9.16840744 -1081.2627
v 112.746857 -3.85336304 -1079.16724
v 123.650116 -48.778511 -1072.4751
v 126.005829 3.80212402 -1074.28735
v 139.226715 -42.1069794 -1067.80542
v 152.708649 -85.2057953 -1057.35034
v 138.292877 14.5249481 -1067.6687
v 153.976715 -31.8919411 -1061.94263
v 169.33432 -75.3068466 -1050.65771
v 185.441681 -117.004738 -1037.72583
v 149.163727 28.411911 -1059.22949
v 167.573334 -18.1089516 -1055.39941
v 185.079681 -61.7646103 -1044.15845
v 202.157379 -103.53788 -1029.58984
v 219.176788 -143.451935 -1014.97418
v 158.489716 45.0324669 -1048.37109
v 179.76181 -0.793619156 -1047.34888
v 199.861725 -44.6245956 -1037.69995
v 218.313263 -86.5157242 -1022.42755
v 235.110626 -126.252846 -1005.44122
v 249.251984 -162.522644 -989.175232
v 166.75827 63.4451942 -1034.54346
v 190.290314 19.843132 -1036.34912
v 213.270966 -23.2650223 -1029.67749
v 233.556122 -64.8723984 -1015.10236
v 250.433136 -104.374199 -996.32135
v 263.526337 -140.881958 -977.442322
v 271.832245 -172.520142 -960.58075
v 79.8069153 -0.547599792 -1079.45605
v 105.136932 -44.9274902 -1075.17041
v 84.5248108 -31.1363525 -1072.23853
v 134.444794 -86.3114624 -1063.36792
v 114.743927 -77.1798172 -1065.73486
v 92.565033 -59.6704941 -1061.25952
v 167.968597 -122.90435 -1045.88965
v 148.594574 -118.246132 -1051.86084
v 127.126678 -105.077156 -1052.65063
v 102.608246 -84.5310974 -1045.92578
v 203.586823 -154.009979 -1023.86188
v 185.05246 -153.592224 -1032.04492
v 163.849945 -144.18335 -1036.47559
v 139.760712 -127.478874 -1035.02661
v 112.072418 -104.751686 -1026.39258
v 237.291046 -178.312561 -997.349915
v 220.998138 -182.858917 -1006.41168
v 200.604889 -177.435608 -1013.39569
v 176.47995 -163.977966 -1016.04047
v 148.955841 -144.461853 -1012.82355
v 118.299469 -120.505257 -1003.22797
v 263.837982 -192.754395 -965.503967
v 251.017242 -203.0448 -973.440247
v 232.877045 -203.331787 -981.791199
v 209.614044 -194.256226 -987.762634
v 182.129913 -177.661041 -989.121643
v 151.976166 -156.217651 -984.867493
v 120.77359 -132.346771 -975.40802
v 58.5823059 49.4049416 -1076.35547
v 59.5818176 17.2658844 -1071.37109
v 39.8041687 64.0318756 -1063.91528
v 63.3643494 -12.714077 -1061.87109
v 40.5851746 31.3802795 -1056.93115
v 21.0612488 75.0512238 -1046.3479
v 69.8971863 -39.9228439 -1048.46289
v 43.667572 2.17462158 -1045.51294
v 21.6130676 42.7600594 -1038.13574
v 2.04232788 83.5741272 -1025.39868
v 77.7085876 -63.384819 -1030.72974
v 48.5258484 -23.6717148 -1030.34424
v 23.5992126 14.8612785 -1025.85913
v 1.93521118 52.6065559 -1016.67535
v -16.8520813 90.3957214 -1002.49921
v 84.5232239 -83.2752762 -1008.68939
v 53.9341736 -46.1194382 -1010.44049
v 26.4596252 -9.69592667 -1009.11237
v 2.52401733 25.861866 -1003.35211
v -17.8171082 60.5593681 -992.524597
v -34.2774963 94.9039536 -977.588318
v 89.2475281 -100.403496 -980.980896
v 58.8786316 -66.693718 -983.977478
v 30.0133972 -32.3318214 -984.817932
v 3.70681763 1.57296181 -982.463928
v -18.794342 34.3944817 -975.634827
v -36.7753601 66.3831787 -964.648132
v -49.9269104 97.8373947 -951.453674
v 44.5495911 93.5978775 -1067.42798
v 24.223114 106.788933 -1050.8938
v 32.3053284 133.145477 -1052.72778
v 4.31362915 115.641457 -1030.16943
v 10.5138245 144.004669 -1033.40112
v 21.1861877 168.952515 -1034.65454
v -15.2140198 121.830238 -1007.12604
v -10.1392517 150.908508 -1010.9201
v -1.50210571 177.808411 -1014.03253
v 11.4636536 202.034088 -1015.42413
v -33.4516907 125.599312 -981.819519
v -29.4518738 154.844116 -985.970154
v -22.1764221 182.937164 -990.229065
v -11.1841125 209.184174 -993.93219
v 3.85958862 232.385315 -995.654968
v -49.8188171 127.350151 -954.388
v -46.7575989 156.599884 -958.126404
v -40.5707703 185.454559 -962.995544
v -30.894928 213.307617 -968.226257
v -17.6551208 238.666412 -972.624084
v -1.1277771 259.88327 -974.606995
v 2.13217163 288.280945 -952.795593
v -17.3569031 268.27005 -952.329285
v -11.0123596 296.686798 -932.118591
v -33.5272522 243.200409 -948.067078
v -30.3459167 272.734619 -930.228088
v -23.4463806 301.663879 -910.482849
v -46.0387878 214.763184 -942.10968
v -45.5895081 244.404755 -924.925354
v -41.5950012 274.749054 -908.029968
v -36.4220886 303.262634 -887.31488
v -55.0884094 184.426941 -935.843323
v -57.453949 213.278625 -918.134949
v -56.3143616 243.472321 -902.308044
v -53.5965881 273.64325 -885.118713
v -51.3278503 300.460358 -862.852234
v -60.9247131 152.785339 -930.749451
v -66.6242981 180.035095 -911.267029
v -68.719696 209.314423 -894.872498
v -68.7054749 239.738434 -878.993103
v -68.2461853 268.878845 -860.576721
v -68.6608582 293.086578 -837.268372
v -63.5548401 119.810814 -927.313904
v -72.9725342 144.582977 -905.530701
v -79.1195374 172.386505 -886.814148
v -82.7320862 202.484039 -870.02533
v -84.6773987 232.857605 -852.959167
v -86.2212524 260.209534 -833.530334
v -87.7573853 281.323761 -811.0755
v -57.2077942 81.9084625 -932.029724
v -41.2150574 47.2627373 -943.038513
v -63.2483826 67.8477173 -909.510681
v -19.7055359 13.8550873 -950.618469
v -43.7258606 30.8477097 -917.279724
v -68.7304382 56.2318459 -883.106506
v 6.35745239 -19.6987267 -954.242859
v -18.2937317 -3.94557953 -921.544983
v -45.0172424 17.1512985 -887.429626
v -73.4060059 46.902256 -852.984802
v 35.5702209 -54.0418243 -954.137878
v 11.1479187 -38.5389404 -922.314636
v -15.5916443 -19.043335 -888.48761
v -44.9433289 6.20855522 -853.884705
v -75.7489624 39.510746 -820.236145
v 66.8258972 -88.6139145 -951.652039
v 43.0757141 -73.9474335 -919.928406
v 17.1051331 -55.0554428 -886.421082
v -11.5552673 -31.4319 -851.753113
v -42.4191589 -2.23935509 -817.791565
v -73.6564941 33.289875 -786.918396
v 100.550385 -122.407509 -947.192444
v 77.9103088 -109.765297 -915.42218
v 52.9607239 -92.4136734 -881.290222
v 25.2833557 -69.5548859 -846.502747
v -4.69692993 -41.6228714 -812.44574
v -35.7105408 -9.15898514 -781.480896
v -65.6522522 27.0087013 -755.919495
v 139.536957 -155.207306 -949.461487
v 174.397797 -180.324615 -956.023743
v 154.706451 -172.441376 -918.065125
v 205.751984 -200.059875 -956.313293
v 190.693817 -195.5513 -921.420837
v 165.931183 -182.617279 -881.548279
v 232.805206 -212.472076 -951.457825
v 221.675873 -211.078125 -918.757019
v 202.104706 -202.02652 -882.617737
v 174.622589 -185.747498 -842.382996
v 254.825409 -215.746521 -943.71283
v 247.850433 -217.998596 -912.403137
v 232.806732 -212.55426 -878.776428
v 211.056854 -200.838745 -842.556213
v 182.604034 -182.481812 -804.17572
v 271.349884 -208.539337 -935.957336
v 269.095551 -214.814911 -905.159363
v 258.9039 -213.458466 -872.85553
v 242.128265 -205.849457 -839.106262
v 219.495453 -192.633362 -804.531189
v 190.608612 -173.193909 -770.422668
v 282.351654 -189.706329 -931.423035
v 285.073395 -199.529907 -900.444885
v 280.427032 -202.49054 -868.240295
v 268.964325 -199.305573 -835.364075
v 251.243195 -190.672394 -802.743103
v 227.481293 -176.902405 -771.676697
v 197.506134 -157.730103 -743.627136
v 284.409943 -156.437775 -942.304871
v 276.082611 -119.246132 -964.357361
v 293.222809 -133.947021 -927.747375
v 262.178192 -79.5842514 -987.069763
v 283.382599 -92.7735519 -954.660828
v 298.16214 -107.594017 -915.816467
v 243.458344 -38.6780167 -1006.7774
v 267.325104 -51.3101807 -978.953186
v 285.715057 -64.230629 -945.262634
v 298.095917 -79.2574234 -904.150696
v 220.277313 3.56221581 -1019.16302
v 245.990753 -9.66783142 -996.833679
v 266.987335 -21.8560829 -968.36554
v 283.058014 -35.0494614 -933.242371
v 292.603302 -50.0889511 -890.98407
v 194.025299 47.5644798 -1022.01959
v 220.165314 33.6089325 -1005.20111
v 243.155304 21.0197601 -982.427429
v 261.834015 8.29431534 -952.95697
v 274.928375 -5.59926605 -917.030579
v 280.267242 -20.4853363 -875.637756
v 168.229889 93.4401779 -1016.9278
v 192.272369 80.3315582 -1004.26959
v 215.476288 67.3989563 -986.59845
v 235.583527 54.1366158 -962.692932
v 250.7388 40.0284615 -932.520691
v 259.307709 25.1745186 -897.36908
v 259.845306 10.3482895 -859.484558
v 141.200653 139.695557 -1007.85675
v 119.283905 177.128082 -999.468689
v 137.774811 170.456421 -985.892273
v 101.320709 211.724762 -989.34137
v 115.367035 208.935089 -974.263977
v 134.899384 198.508636 -961.322571
v 84.5953064 242.687073 -979.157166
v 96.4171448 242.934814 -962.263611
v 111.855927 236.799988 -947.841858
v 130.254425 223.374146 -934.453186
v 67.1054993 268.324646 -969.972839
v 77.9552917 272.259064 -951.40741
v 91.3057556 269.539795 -935.176575
v 106.414276 260.727631 -920.213806
v 121.435333 244.684937 -905.628235
v 47.625824 286.500305 -962.104065
v 58.021759 295.370758 -942.250061
v 70.280304 296.791199 -924.103333
v 83.4809265 291.747131 -907.193665
v 95.8432922 280.366089 -891.114929
v 106.19223 262.066284 -875.660095
v 25.882782 295.48526 -954.986389
v 35.4821472 309.720551 -934.924133
v 46.4150085 316.671631 -914.80426
v 57.8540344 316.079254 -895.628357
v 68.2572937 308.673706 -877.443909
v 76.7389832 294.827271 -860.644348
v 83.0952454 275.066254 -845.686951
v 11.5950012 310.222198 -932.429382
v -2.02694702 319.039795 -910.017029
v 21.1635437 324.283569 -910.172424
v -16.7824402 322.995239 -886.555603
v 5.52548218 331.469635 -885.93512
v 30.6888123 329.576263 -888.092468
v -33.4903259 322.413147 -860.990906
v -12.6152039 332.958954 -860.361023
v 11.9518127 334.375702 -861.641052
v 39.3057556 326.652588 -866.576965
v -52.9699402 316.209503 -833.347229
v -33.8703308 328.91922 -831.953674
v -10.5196838 332.591187 -833.115662
v 16.6846619 328.296509 -837.232483
v 46.3573303 315.853394 -845.93158
v -75.1881409 303.551514 -804.373474
v -58.4924622 317.717194 -800.462097
v -36.9971619 323.40567 -800.765564
v -10.4706726 321.598907 -804.941589
v 19.841156 312.655701 -813.454407
v 51.7859802 296.910156 -827.030334
v -72.8612366 106.584084 -904.604431
v -81.6376038 96.3585129 -879.87262
v -84.3713684 134.28476 -880.91925
v -90.4933167 88.597702 -852.072205
v -95.963501 127.279228 -854.587219
v -92.93396 164.692169 -860.649109
v -98.2375488 82.2773132 -821.050842
v -107.633392 122.127739 -825.401184
v -107.189423 159.934753 -832.472961
v -98.9997253 196.625183 -841.980164
v -101.764679 76.2464294 -787.868591
v -116.976471 117.271461 -793.184753
v -120.68985 156.050507 -801.465027
v -115.262604 192.871002 -811.606384
v -102.888214 227.735809 -822.639832
v -97.3840637 68.9555054 -754.576355
v -119.213898 110.665382 -758.850037
v -129.42215 150.725067 -767.25824
v -128.869415 188.415161 -777.955505
v -119.821472 223.286926 -789.276428
v -105.378021 254.460114 -799.931091
v 116.025482 -143.202576 -914.832458
v 127.589447 -156.865692 -878.713806
v 90.4610291 -127.480492 -878.166687
v 136.206268 -163.305634 -839.777893
v 99.4023743 -137.096161 -839.405334
v 62.872345 -105.94767 -841.133972
v 143.763153 -163.1745 -800.570374
v 106.343353 -139.331848 -799.943787
v 69.5959167 -110.975533 -801.697693
v 32.7046814 -77.884819 -805.396423
v 151.620941 -156.870575 -764.252014
v 112.913483 -134.913452 -761.969543
v 74.7220154 -108.3395 -763.208923
v 37.2021179 -77.3858566 -766.63739
v 0.197540283 -43.7579041 -772.035461
v 159.43338 -143.852905 -733.833679
v 119.510712 -123.580879 -728.395813
v 79.2202454 -97.8541641 -727.361511
v 39.8366394 -68.1762009 -730.036682
v 1.99234009 -36.0315933 -735.154846
v -33.8733826 -3.84173203 -743.283386
v 293.726715 -171.525513 -907.759216
v 301.139008 -147.73468 -889.206604
v 294.987518 -179.527283 -872.790344
v 304.026093 -120.463417 -873.954407
v 300.575897 -154.541016 -851.273499
v 288.920929 -181.058807 -837.96698
v 300.778046 -90.6097031 -859.808289
v 300.289459 -125.729012 -833.489685
v 291.828278 -154.534943 -814.279236
v 275.437469 -176.496613 -803.779846
v 289.92099 -58.4647522 -845.477234
v 291.62912 -93.0209732 -817.496765
v 286.062225 -122.982521 -794.349304
v 273.511749 -147.744934 -778.536072
v 253.701447 -166.13446 -770.884949
v 268.427887 -23.4133453 -830.51178
v 271.110016 -55.7539062 -802.193298
v 267.421539 -85.5210342 -776.541931
v 257.860016 -111.863533 -756.593201
v 242.82547 -133.649109 -744.556091
v 222.220917 -149.202698 -740.394714
v 164.013214 127.091133 -997.147644
v 160.671783 156.771271 -974.044739
v 187.416107 113.964424 -983.442078
v 155.773285 182.91629 -948.034973
v 181.829071 142.197266 -958.95575
v 208.272186 99.9606247 -964.245544
v 146.654938 205.929626 -918.914978
v 172.375824 166.585907 -930.811829
v 198.287567 126.553017 -937.841614
v 224.492767 84.8430481 -938.225647
v 130.888092 226.170288 -886.644348
v 156.177032 188.351318 -898.308167
v 181.984589 149.560913 -906.50592
v 208.209686 109.784294 -908.908752
v 234.357513 68.5409088 -905.405334
v 105.980499 243.615845 -852.143494
v 130.391388 208.321808 -861.115173
v 155.865631 170.67099 -868.92804
v 182.528778 131.654572 -872.708191
v 209.716583 91.7740173 -871.648865
v 236.017426 51.2306786 -866.76825
v -16.9230652 133.023926 -690.407654
v -12.6733093 164.46283 -705.306213
v -51.8736877 170.425446 -692.33844
v -2.96334839 192.651337 -722.816589
v -46.3877258 203.706207 -706.806458
v -80.375 203.061249 -698.44281
v 11.2955627 216.723785 -743.189514
v -34.5010681 231.33197 -723.862122
v -71.4627686 235.94223 -712.774963
v -100.262634 230.866241 -709.81488
v 28.7680969 236.664337 -766.628357
v -17.1197815 253.912964 -744.63446
v -55.1872253 262.275513 -731.051819
v -85.8171082 262.70343 -725.363342
v -109.206024 253.96109 -727.724915
v 48.0090027 252.991394 -792.201477
v 4.43948364 272.391724 -769.378113
v -33.1852722 283.600891 -754.242004
v -64.5821838 287.487274 -746.277039
v -89.5606689 283.886902 -745.408875
v -108.302734 270.505768 -751.759949
v 67.2002258 265.854706 -818.756775
v 28.5747986 286.832062 -797.106262
v -7.36184692 300.539886 -782.037659
v -38.8251648 307.095703 -772.963684
v -64.771698 306.573944 -769.593567
v -85.0823364 297.870667 -772.237122
v -99.9202576 279.673523 -780.407898
v 24.1835022 113.12719 -701.785461
v 69.0539856 92.4768982 -718.598938
v 32.141571 145.038055 -721.980164
v 115.93454 72.2751007 -739.993591
v 78.4797058 124.720604 -743.896301
v 44.7358704 172.433319 -744.499695
v 161.941376 53.4364128 -765.435486
v 124.777924 104.58268 -769.940247
v 91.2999573 151.407593 -770.936096
v 60.1974792 195.334808 -769.31427
v 203.412689 36.6493225 -794.458923
v 168.566071 85.3511353 -799.412415
v 135.793243 130.663879 -801.232605
v 105.609039 173.490753 -799.930603
v 76.6378479 214.398926 -796.190857
v 236.825165 22.2965889 -826.235657
v 206.757416 67.5232239 -831.88446
v 176.286041 110.734383 -834.878845
v 146.958588 152.226624 -834.349548
v 119.295563 192.280579 -830.245422
v 92.7013855 230.407715 -823.974915
v 8.97457886 87.0763702 -683.133362
v 40.6097717 39.2615395 -678.701477
v 56.7451477 62.5074196 -695.508484
v 76.4167786 -8.6164856 -678.826294
v 92.8955383 13.1900215 -691.940613
v 106.194672 39.8604431 -713.041199
v 113.46579 -54.1529694 -684.845886
v 130.655792 -33.8181725 -693.174011
v 144.523834 -9.03171158 -710.597351
v 155.192902 19.7665291 -735.227356
v 148.163055 -94.9024429 -697.443909
v 167.253937 -77.2453384 -700.960022
v 181.912628 -54.3017654 -713.647156
v 193.29245 -27.7393456 -734.750916
v 200.793121 2.44865227 -762.187073
v 176.801605 -129.440399 -716.934998
v 199.179779 -115.858162 -716.482605
v 216.056854 -95.7763901 -724.445496
v 228.469818 -71.20047 -741.010681
v 236.629181 -43.2644653 -765.053162
v 239.623016 -11.9634552 -794.0401
v -39.2806091 123.695152 -680.07135
v -56.4781189 112.378563 -676.523987
v -10.3732605 73.5140228 -673.341736
v -68.1955261 98.8359451 -680.242798
v -23.3499451 59.4345589 -672.457031
v 24.1021423 23.17593 -671.983948
v -74.9568787 83.0267029 -690.41449
v -31.7245178 44.8452721 -679.4422
v 13.4309387 8.24504471 -675.019287
v 61.143158 -25.4722443 -676.590942
v -77.0505371 65.3732452 -705.932434
v -36.5608215 29.3777428 -693.401672
v 6.16928101 -6.09949875 -686.328674
v 50.5914001 -39.9501266 -684.252502
v 97.6931458 -70.3594131 -687.658264
v -74.0101013 46.3678169 -727.528137
v -37.5984192 13.0939369 -714.171692
v 2.0161438 -20.8119507 -705.995178
v 43.3141174 -53.7683029 -701.513367
v 86.3924866 -84.1503296 -701.303406
v 131.287262 -110.014793 -706.182678
v -76.0896301 161.431183 -686.120056
v -103.232269 192.325958 -697.815125
v -93.2893372 149.344696 -687.429993
v -119.108948 217.867188 -715.528503
v -117.662292 178.179047 -704.777405
v -103.876434 134.007324 -695.55719
v -123.665009 237.435547 -739.090515
v -129.435547 200.69455 -728.258362
v -125.153687 160.29834 -717.479675
v -108.361633 115.468391 -708.930115
v -118.200378 249.87674 -767.669495
v -129.795685 215.978394 -756.605164
v -133.252197 178.630981 -745.158508
v -126.149475 137.955109 -734.768982
v -106.462555 93.6901932 -727.96991
g 
f 3 1 2
f 5 2 4
f 6 3 5
f 8 4 7
f 9 5 8
f 10 6 9
f 12 7 11
f 13 8 12
f 14 9 13
f 15 10 14
f 17 11 16
f 18 12 17
f 19 13 18
f 20 14 19
f 21 15 20
f 23 16 22
f 24 17 23
f 25 18 24
f 26 19 25
f 27 20 26
f 28 21 27
f 30 22 29
f 31 23 30
f 32 24 31
f 33 25 32
f 34 26 33
f 35 27 34
f 36 28 35
f 3 2 5
f 5 4 8
f 6 5 9
f 8 7 12
f 9 8 13
f 10 9 14
f 12 11 17
f 13 12 18
f 14 13 19
f 15 14 20
f 17 16 23
f 18 17 24
f 19 18 25
f 20 19 26
f 21 20 27
f 23 22 30
f 24 23 31
f 25 24 32
f 26 25 33
f 27 26 34
f 28 27 35
f 37 1 3
f 38 3 6
f 39 37 38
f 40 6 10
f 41 38 40
f 42 39 41
f 43 10 15
f 44 40 43
f 45 41 44
f 46 42 45
f 47 15 21
f 48 43 47
f 49 44 48
f 50 45 49
f 51 46 50
f 52 21 28
f 53 47 52
f 54 48 53
f 55 49 54
f 56 50 55
f 57 51 56
f 58 28 36
f 59 52 58
f 60 53 59
f 61 54 60
f 62 55 61
f 63 56 62
f 64 57 63
f 37 3 38
f 38 6 40
f 39 38 41
f 40 10 43
f 41 40 44
f 42 41 45
f 43 15 47
f 44 43 48
f 45 44 49
f 46 45 50
f 47 21 52
f 48 47 53
f 49 48 54
f 50 49 55
f 51 50 56
f 52 28 58
f 53 52 59
f 54 53 60
f 55 54 61
f 56 55 62
f 57 56 63
f 65 1 37
f 66 37 39
f 67 65 66
f 68 39 42
f 69 66 68
f 70 67 69
f 71 42 46
f 72 68 71
f 73 69 72
f 74 70 73
f 75 46 51
f 76 71 75
f 77 72 76
f 78 73 77
f 79 74 78
f 80 51 57
f 81 75 80
f 82 76 81
f 83 77 82
f 84 78 83
f 85 79 84
f 86 57 64
f 87 80 86
f 88 81 87
f 89 82 88
f 90 83 89
f 91 84 90
f 92 85 91
f 65 37 66
f 66 39 68
f 67 66 69
f 68 42 71
f 69 68 72
f 70 69 73
f 71 46 75
f 72 71 76
f 73 72 77
f 74 73 78
f 75 51 80
f 76 75 81
f 77 76 82
f 78 77 83
f 79 78 84
f 80 57 86
f 81 80 87
f 82 81 88
f 83 82 89
f 84 83 90
f 85 84 91
f 93 1 65
f 94 65 67
f 95 93 94
f 96 67 70
f 97 94 96
f 98 95 97
f 99 70 74
f 100 96 99
f 101 97 100
f 102 98 101
f 103 74 79
f 104 99 103
f 105 100 104
f 106 101 105
f 107 102 106
f 108 79 85
f 109 103 108
f 110 104 109
f 111 105 110
f 112 106 111
f 113 107 112
f 114 85 92
f 115 108 114
f 116 109 115
f 117 110 116
f 118 111 117
f 119 112 118
f 120 113 119
f 93 65 94
f 94 67 96
f 95 94 97
f 96 70 99
f 97 96 100
f 98 97 101
f 99 74 103
f 100 99 104
f 101 100 105
f 102 101 106
f 103 79 108
f 104 103 109
f 105 104 110
f 106 105 111
f 107 106 112
f 108 85 114
f 109 108 115
f 110 109 116
f 111 110 117
f 112 111 118
f 113 112 119
f 2 1 93
f 121 93 95
f 4 2 121
f 122 95 98
f 123 121 122
f 7 4 123
f 124 98 102
f 125 122 124
f 126 123 125
f 11 7 126
f 127 102 107
f 128 124 127
f 129 125 128
f 130 126 129
f 16 11 130
f 131 107 113
f 132 127 131
f 133 128 132
f 134 129 133
f 135 130 134
f 22 16 135
f 136 113 120
f 137 131 136
f 138 132 137
f 139 133 138
f 140 134 139
f 141 135 140
f 29 22 141
f 2 93 121
f 121 95 122
f 4 121 123
f 122 98 124
f 123 122 125
f 7 123 126
f 124 102 127
f 125 124 128
f 126 125 129
f 11 126 130
f 127 107 131
f 128 127 132
f 129 128 133
f 130 129 134
f 16 130 135
f 131 113 136
f 132 131 137
f 133 132 138
f 134 133 139
f 135 134 140
f 22 135 141
f 142 29 141
f 143 141 140
f 144 142 143
f 145 140 139
f 146 143 145
f 147 144 146
f 148 139 138
f 149 145 148
f 150 146 149
f 151 147 150
f 152 138 137
f 153 148 152
f 154 149 153
f 155 150 154
f 156 151 155
f 157 137 136
f 158 152 157
f 159 153 158
f 160 154 159
f 161 155 160
f 162 156 161
f 163 136 120
f 164 157 163
f 165 158 164
f 166 159 165
f 167 160 166
f 168 161 167
f 169 162 168
f 142 141 143
f 143 140 145
f 144 143 146
f 145 139 148
f 146 145 149
f 147 146 150
f 148 138 152
f 149 148 153
f 150 149 154
f 151 150 155
f 152 137 157
f 153 152 158
f 154 153 159
f 155 154 160
f 156 155 161
f 157 136 163
f 158 157 164
f 159 158 165
f 160 159 166
f 161 160 167
f 162 161 168
f 170 120 119
f 171 119 118
f 172 170 171
f 173 118 117
f 174 171 173
f 175 172 174
f 176 117 116
f 177 173 176
f 178 174 177
f 179 175 178
f 180 116 115
f 181 176 180
f 182 177 181
f 183 178 182
f 184 179 183
f 185 115 114
f 186 180 185
f 187 181 186
f 188 182 187
f 189 183 188
f 190 184 189
f 191 114 92
f 192 185 191
f 193 186 192
f 194 187 193
f 195 188 194
f 196 189 195
f 197 190 196
f 170 119 171
f 171 118 173
f 172 171 174
f 173 117 176
f 174 173 177
f 175 174 178
f 176 116 180
f 177 176 181
f 178 177 182
f 179 178 183
f 180 115 185
f 181 180 186
f 182 181 187
f 183 182 188
f 184 183 189
f 185 114 191
f 186 185 192
f 187 186 193
f 188 187 194
f 189 188 195
f 190 189 196
f 198 92 91
f 199 91 90
f 200 198 199
f 201 90 89
f 202 199 201
f 203 200 202
f 204 89 88
f 205 201 204
f 206 202 205
f 207 203 206
f 208 88 87
f 209 204 208
f 210 205 209
f 211 206 210
f 212 207 211
f 213 87 86
f 214 208 213
f 215 209 214
f 216 210 215
f 217 211 216
f 218 212 217
f 219 86 64
f 220 213 219
f 221 214 220
f 222 215 221
f 223 216 222
f 224 217 223
f 225 218 224
f 198 91 199
f 199 90 201
f 200 199 202
f 201 89 204
f 202 201 205
f 203 202 206
f 204 88 208
f 205 204 209
f 206 205 210
f 207 206 211
f 208 87 213
f 209 208 214
f 210 209 215
f 211 210 216
f 212 211 217
f 213 86 219
f 214 213 220
f 215 214 221
f 216 215 222
f 217 216 223
f 218 217 224
f 226 64 63
f 227 63 62
f 228 226 227
f 229 62 61
f 230 227 229
f 231 228 230
f 232 61 60
f 233 229 232
f 234 230 233
f 235 231 234
f 236 60 59
f 237 232 236
f 238 233 237
f 239 234 238
f 240 235 239
f 241 59 58
f 242 236 241
f 243 237 242
f 244 238 243
f 245 239 244
f 246 240 245
f 247 58 36
f 248 241 247
f 249 242 248
f 250 243 249
f 251 244 250
f 252 245 251
f 253 246 252
f 226 63 227
f 227 62 229
f 228 227 230
f 229 61 232
f 230 229 233
f 231 230 234
f 232 60 236
f 233 232 237
f 234 233 238
f 235 234 239
f 236 59 241
f 237 236 242
f 238 237 243
f 239 238 244
f 240 239 245
f 241 58 247
f 242 241 248
f 243 242 249
f 244 243 250
f 245 244 251
f 246 245 252
f 254 36 35
f 255 35 34
f 256 254 255
f 257 34 33
f 258 255 257
f 259 256 258
f 260 33 32
f 261 257 260
f 262 258 261
f 263 259 262
f 264 32 31
f 265 260 264
f 266 261 265
f 267 262 266
f 268 263 267
f 269 31 30
f 270 264 269
f 271 265 270
f 272 266 271
f 273 267 272
f 274 268 273
f 275 30 29
f 276 269 275
f 277 270 276
f 278 271 277
f 279 272 278
f 280 273 279
f 281 274 280
f 254 35 255
f 255 34 257
f 256 255 258
f 257 33 260
f 258 257 261
f 259 258 262
f 260 32 264
f 261 260 265
f 262 261 266
f 263 262 267
f 264 31 269
f 265 264 270
f 266 265 271
f 267 266 272
f 268 267 273
f 269 30 275
f 270 269 276
f 271 270 277
f 272 271 278
f 273 272 279
f 274 273 280
f 275 29 142
f 282 142 144
f 276 275 282
f 283 144 147
f 284 282 283
f 277 276 284
f 285 147 151
f 286 283 285
f 287 284 286
f 278 277 287
f 288 151 156
f 289 285 288
f 290 286 289
f 291 287 290
f 279 278 291
f 292 156 162
f 293 288 292
f 294 289 293
f 295 290 294
f 296 291 295
f 280 279 296
f 297 162 169
f 298 292 297
f 299 293 298
f 300 294 299
f 301 295 300
f 302 296 301
f 281 280 302
f 275 142 282
f 282 144 283
f 276 282 284
f 283 147 285
f 284 283 286
f 277 284 287
f 285 151 288
f 286 285 289
f 287 286 290
f 278 287 291
f 288 156 292
f 289 288 293
f 290 289 294
f 291 290 295
f 279 291 296
f 292 162 297
f 293 292 298
f 294 293 299
f 295 294 300
f 296 295 301
f 280 296 302
f 163 120 170
f 303 170 172
f 164 163 303
f 304 172 175
f 305 303 304
f 165 164 305
f 306 175 179
f 307 304 306
f 308 305 307
f 166 165 308
f 309 179 184
f 310 306 309
f 311 307 310
f 312 308 311
f 167 166 312
f 313 184 190
f 314 309 313
f 315 310 314
f 316 311 315
f 317 312 316
f 168 167 317
f 318 190 197
f 319 313 318
f 320 314 319
f 321 315 320
f 322 316 321
f 323 317 322
f 169 168 323
f 163 170 303
f 303 172 304
f 164 303 305
f 304 175 306
f 305 304 307
f 165 305 308
f 306 179 309
f 307 306 310
f 308 307 311
f 166 308 312
f 309 184 313
f 310 309 314
f 311 310 315
f 312 311 316
f 167 312 317
f 313 190 318
f 314 313 319
f 315 314 320
f 316 315 321
f 317 316 322
f 168 317 323
f 191 92 198
f 324 198 200
f 192 191 324
f 325 200 203
f 326 324 325
f 193 192 326
f 327 203 207
f 328 325 327
f 329 326 328
f 194 193 329
f 330 207 212
f 331 327 330
f 332 328 331
f 333 329 332
f 195 194 333
f 334 212 218
f 335 330 334
f 336 331 335
f 337 332 336
f 338 333 337
f 196 195 338
f 339 218 225
f 340 334 339
f 341 335 340
f 342 336 341
f 343 337 342
f 344 338 343
f 197 196 344
f 191 198 324
f 324 200 325
f 192 324 326
f 325 203 327
f 326 325 328
f 193 326 329
f 327 207 330
f 328 327 331
f 329 328 332
f 194 329 333
f 330 212 334
f 331 330 335
f 332 331 336
f 333 332 337
f 195 333 338
f 334 218 339
f 335 334 340
f 336 335 341
f 337 336 342
f 338 337 343
f 196 338 344
f 219 64 226
f 345 226 228
f 220 219 345
f 346 228 231
f 347 345 346
f 221 220 347
f 348 231 235
f 349 346 348
f 350 347 349
f 222 221 350
f 351 235 240
f 352 348 351
f 353 349 352
f 354 350 353
f 223 222 354
f 355 240 246
f 356 351 355
f 357 352 356
f 358 353 357
f 359 354 358
f 224 223 359
f 360 246 253
f 361 355 360
f 362 356 361
f 363 357 362
f 364 358 363
f 365 359 364
f 225 224 365
f 219 226 345
f 345 228 346
f 220 345 347
f 346 231 348
f 347 346 349
f 221 347 350
f 348 235 351
f 349 348 352
f 350 349 353
f 222 350 354
f 351 240 355
f 352 351 356
f 353 352 357
f 354 353 358
f 223 354 359
f 355 246 360
f 356 355 361
f 357 356 362
f 358 357 363
f 359 358 364
f 224 359 365
f 247 36 254
f 366 254 256
f 248 247 366
f 367 256 259
f 368 366 367
f 249 248 368
f 369 259 263
f 370 367 369
f 371 368 370
f 250 249 371
f 372 263 268
f 373 369 372
f 374 370 373
f 375 371 374
f 251 250 375
f 376 268 274
f 377 372 376
f 378 373 377
f 379 374 378
f 380 375 379
f 252 251 380
f 381 274 281
f 382 376 381
f 383 377 382
f 384 378 383
f 385 379 384
f 386 380 385
f 253 252 386
f 247 254 366
f 366 256 367
f 248 366 368
f 367 259 369
f 368 367 370
f 249 368 371
f 369 263 372
f 370 369 373
f 371 370 374
f 250 371 375
f 372 268 376
f 373 372 377
f 374 373 378
f 375 374 379
f 251 375 380
f 376 274 381
f 377 376 382
f 378 377 383
f 379 378 384
f 380 379 385
f 252 380 386
f 389 387 388
f 391 388 390
f 392 389 391
f 394 390 393
f 395 391 394
f 396 392 395
f 398 393 397
f 399 394 398
f 400 395 399
f 401 396 400
f 403 397 402
f 404 398 403
f 405 399 404
f 406 400 405
f 407 401 406
f 409 402 408
f 410 403 409
f 411 404 410
f 412 405 411
f 413 406 412
f 414 407 413
f 302 408 281
f 301 409 302
f 300 410 301
f 299 411 300
f 298 412 299
f 297 413 298
f 169 414 297
f 389 388 391
f 391 390 394
f 392 391 395
f 394 393 398
f 395 394 399
f 396 395 400
f 398 397 403
f 399 398 404
f 400 399 405
f 401 400 406
f 403 402 409
f 404 403 410
f 405 404 411
f 406 405 412
f 407 406 413
f 409 408 302
f 410 409 301
f 411 410 300
f 412 411 299
f 413 412 298
f 414 413 297
f 388 387 415
f 417 415 416
f 390 388 417
f 419 416 418
f 420 417 419
f 393 390 420
f 422 418 421
f 423 419 422
f 424 420 423
f 397 393 424
f 426 421 425
f 427 422 426
f 428 423 427
f 429 424 428
f 402 397 429
f 431 425 430
f 432 426 431
f 433 427 432
f 434 428 433
f 435 429 434
f 408 402 435
f 386 430 253
f 385 431 386
f 384 432 385
f 383 433 384
f 382 434 383
f 381 435 382
f 281 408 381
f 388 415 417
f 417 416 419
f 390 417 420
f 419 418 422
f 420 419 423
f 393 420 424
f 422 421 426
f 423 422 427
f 424 423 428
f 397 424 429
f 426 425 431
f 427 426 432
f 428 427 433
f 429 428 434
f 402 429 435
f 431 430 386
f 432 431 385
f 433 432 384
f 434 433 383
f 435 434 382
f 408 435 381
f 415 387 436
f 438 436 437
f 416 415 438
f 440 437 439
f 441 438 440
f 418 416 441
f 443 439 442
f 444 440 443
f 445 441 444
f 421 418 445
f 447 442 446
f 448 443 447
f 449 444 448
f 450 445 449
f 425 421 450
f 452 446 451
f 453 447 452
f 454 448 453
f 455 449 454
f 456 450 455
f 430 425 456
f 365 451 225
f 364 452 365
f 363 453 364
f 362 454 363
f 361 455 362
f 360 456 361
f 253 430 360
f 415 436 438
f 438 437 440
f 416 438 441
f 440 439 443
f 441 440 444
f 418 441 445
f 443 442 447
f 444 443 448
f 445 444 449
f 421 445 450
f 447 446 452
f 448 447 453
f 449 448 454
f 450 449 455
f 425 450 456
f 452 451 365
f 453 452 364
f 454 453 363
f 455 454 362
f 456 455 361
f 430 456 360
f 436 387 457
f 459 457 458
f 437 436 459
f 461 458 460
f 462 459 461
f 439 437 462
f 464 460 463
f 465 461 464
f 466 462 465
f 442 439 466
f 468 463 467
f 469 464 468
f 470 465 469
f 471 466 470
f 446 442 471
f 473 467 472
f 474 468 473
f 475 469 474
f 476 470 475
f 477 471 476
f 451 446 477
f 344 472 197
f 343 473 344
f 342 474 343
f 341 475 342
f 340 476 341
f 339 477 340
f 225 451 339
f 436 457 459
f 459 458 461
f 437 459 462
f 461 460 464
f 462 461 465
f 439 462 466
f 464 463 468
f 465 464 469
f 466 465 470
f 442 466 471
f 468 467 473
f 469 468 474
f 470 469 475
f 471 470 476
f 446 471 477
f 473 472 344
f 474 473 343
f 475 474 342
f 476 475 341
f 477 476 340
f 451 477 339
f 457 387 389
f 478 389 392
f 458 457 478
f 479 392 396
f 480 478 479
f 460 458 480
f 481 396 401
f 482 479 481
f 483 480 482
f 463 460 483
f 484 401 407
f 485 481 484
f 486 482 485
f 487 483 486
f 467 463 487
f 488 407 414
f 489 484 488
f 490 485 489
f 491 486 490
f 492 487 491
f 472 467 492
f 323 414 169
f 322 488 323
f 321 489 322
f 320 490 321
f 319 491 320
f 318 492 319
f 197 472 318
f 457 389 478
f 478 392 479
f 458 478 480
f 479 396 481
f 480 479 482
f 460 480 483
f 481 401 484
f 482 481 485
f 483 482 486
f 463 483 487
f 484 407 488
f 485 484 489
f 486 485 490
f 487 486 491
f 467 487 492
f 488 414 323
f 489 488 322
f 490 489 321
f 491 490 320
f 492 491 319
f 472 492 318
