# File exported by Houdini 20.5.445 (www.sidefx.com)
# 492 points
# 2940 vertices
# 980 primitives
# Bounds: [-208.456451, -233.518997, -1011.54883] to [379.230377, 349.896118, -743.252197]
g 
v 126.551086 38.4241943 -1003.97876
v 124.965393 69.0479736 -997.645386
v 165.045349 57.3761826 -995.354126
v 122.935242 97.3315353 -987.554321
v 167.837158 89.9952698 -988.093628
v 205.087524 75.1180115 -982.003784
v 119.442505 125.80632 -972.875122
v 167.231689 119.623642 -976.982544
v 209.739624 109.754669 -974.158447
v 244.639343 92.472023 -964.182617
v 114.484497 156.26004 -955.094238
v 163.062866 149.631592 -961.763062
v 208.260193 141.360245 -962.289429
v 248.817627 129.416504 -955.859741
v 281.268677 109.918869 -943.77832
v 108.992676 189.315811 -936.845703
v 156.57428 181.956314 -944.156128
v 202.212402 173.520294 -946.693848
v 245.594543 163.524475 -943.388672
v 283.616028 149.246857 -934.82666
v 313.030701 126.765732 -922.935425
v 104.300293 223.724319 -919.828735
v 149.962952 216.961792 -925.928589
v 194.484192 208.263184 -929.104126
v 238.432556 198.443695 -927.621704
v 279.385986 186.032623 -921.873657
v 313.752258 167.97438 -913.270142
v 339.063721 141.4104 -903.713745
v 101.670715 257.266968 -905.032593
v 145.405457 253.477844 -908.304321
v 188.511536 246.043396 -910.705811
v 231.686768 236.205017 -910.079102
v 273.476807 223.561829 -906.226807
v 310.433777 206.238388 -900.154541
v 339.36792 182.402679 -893.289551
v 359.141388 151.630295 -887.167358
v 150.1651 16.7475243 -1003.07593
v 190.730957 35.5126419 -989.944092
v 171.166077 -7.49214172 -998.716675
v 230.839844 52.4699173 -971.541748
v 211.46698 11.4556808 -980.619751
v 188.983582 -33.3649712 -990.375854
v 269.266052 68.8468933 -950.601685
v 250.148499 28.2504654 -958.962402
v 227.71283 -13.8978653 -968.876099
v 202.630737 -59.6979218 -977.887695
v 304.453674 84.7174988 -929.285889
v 286.889648 43.6500549 -936.797241
v 264.447266 2.40533638 -945.751221
v 239.335205 -40.4254379 -954.965942
v 211.641724 -85.8872986 -961.450928
v 334.843628 99.3642654 -909.241943
v 320.575317 57.4417572 -915.692871
v 299.338867 15.844677 -923.403076
v 273.975098 -25.9225578 -931.629517
v 246.20343 -68.4912415 -938.652466
v 216.166321 -111.741257 -941.747925
v 359.088531 111.431595 -891.575439
v 349.412537 69.1554184 -896.747925
v 331.128052 26.2639084 -902.799561
v 306.578064 -16.0837555 -909.463257
v 278.32251 -57.5946884 -915.564209
v 248.133789 -98.1008835 -919.539673
v 216.413391 -136.583176 -919.850464
v 106.088501 4.82310486 -1009.896
v 130.064941 -22.706562 -1008.51648
v 87.9685669 -30.4705467 -1011.54883
v 150.48877 -50.7237778 -1003.88684
v 112.362549 -61.5629196 -1007.58423
v 69.9669189 -64.534935 -1006.90308
v 166.512695 -78.5702209 -994.090576
v 131.423035 -91.2115936 -1000.07703
v 93.4259033 -97.1584167 -998.744263
v 49.5772705 -94.5720139 -995.330688
v 177.591064 -105.647659 -978.33374
v 144.686035 -119.542404 -987.017334
v 109.809387 -127.214371 -986.964722
v 70.3658447 -127.548126 -982.259155
v 25.105896 -118.659866 -977.651855
v 183.76593 -131.865036 -957.098389
v 152.250916 -146.905457 -967.065674
v 119.29425 -155.813797 -969.763916
v 82.7805786 -157.773331 -965.742065
v 41.6264038 -151.746201 -959.959717
v -3.26593018 -136.50798 -955.940063
v 185.271423 -157.201111 -931.493774
v 154.280579 -173.487411 -940.527588
v 122.05304 -183.83783 -945.029907
v 87.0445557 -187.012985 -943.896973
v 48.5197144 -182.417358 -938.771729
v 7.50775146 -169.784576 -934.352905
v -33.9749146 -149.456223 -932.923584
v 87.9854126 38.5415421 -1005.94153
v 65.5944214 3.61679649 -1011.06104
v 49.9016724 38.8768692 -1003.37561
v 45.8771973 -30.1500969 -1010.43933
v 26.8683472 4.46231461 -1006.65308
v 13.3899536 41.4222107 -994.808838
v 25.8103027 -60.381897 -1003.05029
v 6.12719727 -26.2079086 -1003.42236
v -9.64654541 9.19887543 -995.656372
v -20.9296875 47.9614639 -980.373657
v 2.92376709 -85.0914001 -989.002686
v -16.0494385 -51.4808578 -993.40625
v -31.7354736 -17.0486374 -989.859619
v -44.1935425 19.5194016 -978.734985
v -52.9589233 60.1715469 -961.991943
v -24.0492554 -103.743835 -969.312134
v -42.1542358 -70.5217743 -976.962646
v -56.9052124 -36.5745087 -977.386108
v -68.5360107 -1.10564613 -970.477905
v -77.2322388 36.9548569 -957.823853
v -82.8369141 78.8823395 -942.417847
v -54.8334961 -117.660995 -945.836792
v -73.0065918 -84.2579041 -955.04126
v -87.4395752 -49.8393097 -958.370605
v -97.8046265 -14.2836189 -955.301392
v -104.759033 22.8329811 -946.808594
v -108.85733 61.9404907 -935.380859
v -110.324463 102.941727 -923.686035
v 82.1553345 70.790741 -996.38916
v 42.248291 73.1501465 -989.660278
v 77.3017578 100.629562 -982.020996
v 5.14312744 78.2179565 -977.344116
v 36.1536865 105.34111 -971.800293
v 72.3794556 131.161591 -963.813232
v -29.4431152 88.1630783 -960.685669
v -1.79547119 113.978271 -957.693848
v 30.381958 139.109039 -951.977539
v 67.2703247 164.353134 -944.545898
v -62.1417847 104.66687 -942.048706
v -37.9324951 128.901199 -940.943848
v -9.21569824 152.47818 -937.816772
v 24.2454834 176.200226 -932.66748
v 62.2676392 200.298035 -926.387695
v -93.3724365 128.019684 -923.126221
v -73.0390625 151.583771 -922.477905
v -47.7580566 173.726074 -921.383423
v -16.9716187 195.398987 -918.770386
v 18.9904785 216.816513 -914.998291
v 59.0055542 237.787842 -910.33606
v 73.6938477 276.978485 -895.698608
v 25.574646 258.060913 -899.68457
v 47.2124023 294.783081 -886.663696
v -16.7894287 238.645905 -902.396973
v -3.77410889 276.775299 -888.89978
v 21.3268433 310.232056 -877.481079
v -52.9193726 218.637238 -903.998779
v -47.2705688 258.24176 -889.901123
v -31.3290405 292.657959 -878.115479
v -6.85974121 322.490723 -868.975098
v -82.5280762 197.382675 -904.686157
v -83.4429932 238.164276 -889.858398
v -75.2798462 273.634399 -877.50769
v -59.4657593 304.504333 -867.923096
v -37.4203491 330.279724 -861.514526
v -106.048828 173.229431 -905.260254
v -112.424835 214.554153 -889.791748
v -111.190369 250.950043 -876.488525
v -102.706848 283.027008 -866.079102
v -88.232666 310.695251 -858.952759
v -68.1361084 331.959778 -854.941162
v -124.851471 144.752029 -906.378418
v -135.065369 184.976562 -890.54834
v -139.462585 221.778687 -876.22168
v -137.655365 255.256805 -864.458252
v -129.644958 285.117554 -856.042603
v -115.564911 309.532471 -850.891968
v -95.9283447 326.37384 -848.73291
v -135.176575 102.322479 -912.421753
v -135.771881 57.4292984 -922.346558
v -157.555054 98.723999 -900.535034
v -133.821045 15.6063919 -931.265747
v -160.322174 50.3091278 -909.408325
v -177.744629 91.0101318 -889.088501
v -128.361145 -23.9401665 -936.9375
v -159.844788 5.53782272 -916.549805
v -181.938324 39.1949921 -897.189331
v -195.251068 80.873024 -878.866821
v -117.762024 -62.4192352 -937.370605
v -153.913635 -37.2992249 -919.981079
v -180.862274 -8.78433228 -902.46936
v -198.587341 26.0904808 -885.531494
v -206.53186 69.6750183 -869.968506
v -101.118103 -100.701706 -931.578125
v -140.944946 -79.8982239 -917.681274
v -172.488098 -55.2766953 -903.029175
v -194.769073 -25.026165 -887.909668
v -206.719543 12.3918343 -873.939209
v -208.456451 57.5881577 -861.966187
v -78.5585938 -138.806107 -919.929443
v -120.185944 -123.15712 -908.2854
v -155.762482 -102.223495 -896.192383
v -182.739227 -75.4850616 -883.271851
v -199.071136 -42.1834869 -870.892334
v -204.754822 -1.82821083 -860.728149
v -201.533081 44.2013931 -853.057495
v -39.8031616 -174.431137 -910.562622
v 4.71618652 -196.101532 -911.328003
v -45.810791 -195.896317 -888.341919
v 46.6392212 -208.203232 -915.593506
v 0.36126709 -216.064468 -889.197876
v -52.6759033 -210.623917 -865.394653
v 85.4515381 -211.357147 -918.02063
v 42.5040283 -225.662384 -891.547729
v -6.13757324 -227.498001 -865.338745
v -59.0834961 -217.368668 -841.071899
v 121.316589 -205.998337 -916.358643
v 81.7475586 -225.849487 -890.895264
v 36.282959 -233.518997 -864.929565
v -12.9835205 -230.018661 -839.151611
v -63.0368042 -216.139771 -815.825684
v 155.859436 -192.500366 -910.996826
v 119.678528 -216.957001 -887.495483
v 77.1194458 -229.73851 -862.554565
v 30.4511719 -231.723679 -837.222412
v -17.3119507 -223.96051 -812.885376
v -62.1931152 -207.493484 -791.960571
v 191.438782 -171.4151 -902.808716
v 159.114197 -198.506073 -882.064087
v 119.64032 -215.441498 -858.855347
v 75.0799561 -222.186722 -834.703247
v 28.6047974 -219.736633 -811.118652
v -15.8903198 -209.302231 -789.619751
v -54.7261963 -192.044861 -772.299194
v 233.670044 -135.917007 -899.073364
v 270.860413 -94.4951477 -898.88562
v 248.252686 -130.839462 -880.713257
v 304.035278 -51.8127365 -895.935425
v 289.023193 -86.9325104 -882.254517
v 258.546021 -119.461853 -865.837769
v 332.835876 -7.73611832 -891.460571
v 323.029663 -41.6906891 -881.23645
v 300.804077 -73.2657318 -869.552612
v 263.189941 -101.083572 -854.336182
v 355.571655 38.0821381 -886.422974
v 350.292419 5.71093369 -878.363403
v 333.630859 -25.1652069 -870.119385
v 304.529602 -52.912674 -859.650391
v 261.25061 -76.5809174 -845.184204
v 370.099274 84.9472198 -881.171875
v 369.79068 55.2248917 -873.671875
v 358.101837 25.3336258 -867.161255
v 334.663147 -2.46605873 -859.997192
v 299.341675 -26.8313637 -850.560791
v 252.628784 -47.1854095 -837.194092
v 374.288849 131.846237 -876.251587
v 379.230377 106.691528 -867.883423
v 372.84903 79.1284714 -861.390381
v 354.594727 51.6781464 -855.529419
v 324.875366 26.3332062 -849.172241
v 285.214355 4.4930191 -840.858032
v 238.415039 -13.9527283 -829.093506
v 363.337921 178.933884 -876.11853
v 339.620544 213.451172 -881.519165
v 361.119659 203.438675 -866.796387
v 307.268555 239.47525 -887.089355
v 334.870483 239.991791 -871.985474
v 352.409302 224.947067 -858.793823
v 268.054016 258.477875 -891.660889
v 300.547058 267.414093 -876.859863
v 324.477844 262.378937 -864.072266
v 336.309753 243.060944 -851.969604
v 224.459717 272.352417 -894.392822
v 258.85376 287.815918 -880.870483
v 287.216919 290.76062 -869.223511
v 305.774536 280.419769 -858.162231
v 311.96344 257.242126 -846.784668
v 178.382507 282.031738 -894.779541
v 211.535278 302.565002 -883.136475
v 241.35553 312.110291 -873.28125
v 264.029175 309.029114 -864.106689
v 277.324707 293.541626 -854.471558
v 278.599854 267.979706 -843.957031
v 129.457214 286.642578 -893.789917
v 159.194702 310.737488 -883.796387
v 187.78479 326.311707 -875.236328
v 211.849304 330.101685 -867.956299
v 229.302307 321.327332 -860.847168
v 238.249451 302.66571 -852.50061
v 237.334412 277.099823 -843.106201
v 102.892395 307.343872 -885.128052
v 77.1902466 323.567627 -876.960693
v 131.403137 329.53656 -876.527344
v 49.1105347 335.758118 -869.508667
v 102.891602 342.038635 -869.866333
v 156.284363 341.01239 -869.431152
v 16.8465576 343.384094 -863.12207
v 70.6226196 348.868286 -864.350708
v 123.592834 347.773621 -864.447266
v 176.216248 339.300232 -863.418091
v -18.7155151 345.150208 -857.473389
v 33.2999878 349.896118 -859.635498
v 86.0615845 348.033691 -860.515503
v 138.371887 340.264648 -859.474487
v 189.315796 325.287292 -856.99292
v -54.6826782 339.582825 -851.838501
v -7.7387085 344.196655 -854.787842
v 42.7730713 341.826233 -856.592651
v 94.621582 333.88031 -856.098145
v 145.537781 320.578613 -853.204834
v 193.592529 301.225952 -848.710327
v -149.625427 145.479446 -894.161743
v -169.562134 141.371124 -882.119263
v -158.240234 184.543793 -878.100586
v -186.850647 134.203934 -871.525513
v -175.882263 180.356598 -866.8479
v -161.342316 220.757767 -864.465576
v -199.998901 125.14064 -862.884399
v -189.6716 173.827332 -857.360107
v -176.819397 216.625259 -854.425659
v -158.694794 253.89389 -854.157959
v -204.852722 114.21875 -856.451782
v -196.782684 165.154587 -850.404663
v -185.561829 210.213791 -846.229126
v -170.790894 249.60202 -845.20874
v -148.783325 283.024902 -846.99292
v -199.238495 100.275856 -850.975098
v -193.509094 153.119797 -846.221069
v -184.540039 200.699661 -841.210693
v -172.287292 242.172394 -838.848389
v -155.275879 277.356171 -840.160156
v -130.254547 305.665344 -843.744873
v -87.8671265 -163.693161 -896.255005
v -95.9546509 -182.351639 -871.918579
v -129.824554 -146.084549 -883.844604
v -102.170837 -193.652252 -846.662842
v -136.066223 -161.463882 -858.234009
v -162.724121 -122.03064 -871.647461
v -105.02832 -197.052429 -820.719482
v -138.316925 -169.180527 -831.563965
v -164.475494 -133.43367 -845.686646
v -184.698547 -90.9044647 -859.84021
v -102.765808 -192.430878 -795.161743
v -135.214783 -168.754074 -804.450806
v -160.768616 -136.389725 -818.677002
v -180.188019 -96.4582596 -834.959961
v -194.693573 -50.9308167 -850.084839
v -93.2324219 -179.499573 -771.878296
v -124.726349 -159.112671 -778.550293
v -149.711487 -129.626968 -791.655151
v -168.567413 -91.3796005 -809.446533
v -182.656403 -47.2640305 -828.284058
v -193.529205 -1.00869179 -843.764771
v 203.211548 -169.176941 -879.796875
v 211.312805 -159.704269 -860.917969
v 165.167053 -191.174011 -857.985229
v 215.202454 -142.688049 -846.469238
v 167.898865 -175.81459 -839.281372
v 121.203308 -202.33226 -834.695923
v 214.594238 -118.675461 -835.417358
v 167.347961 -153.254883 -825.309814
v 120.230957 -181.642349 -816.509033
v 73.741272 -204.143509 -811.178711
v 209.007324 -88.3653107 -826.351562
v 163.398254 -123.794815 -814.402466
v 116.845276 -153.933075 -802.705933
v 70.4835815 -178.772354 -793.39856
v 25.7468872 -197.636032 -788.556641
v 198.20636 -51.9360046 -818.295776
v 155.319397 -87.2524643 -804.98938
v 110.613708 -118.681076 -791.372559
v 65.3621216 -145.649857 -779.235352
v 21.3934937 -167.422791 -770.957886
v -19.1705933 -182.985992 -768.192871
v 376.300079 157.687012 -864.930176
v 369.353546 180.11705 -855.689087
v 376.048492 132.164581 -856.599243
v 353.963989 199.4375 -847.844482
v 362.283722 153.8078 -847.296875
v 362.844147 105.103775 -850.019775
v 330.378784 215.484253 -841.186768
v 339.357788 172.033569 -839.323364
v 341.465393 126.642105 -840.56311
v 337.049622 78.3596497 -844.227539
v 297.756042 228.704941 -836.376343
v 307.356018 187.233734 -832.57666
v 310.150452 144.345978 -832.107056
v 307.364197 100.109962 -834.216431
v 299.273621 53.6313095 -837.764771
v 254.804504 241.136597 -834.275269
v 264.262268 201.533386 -828.010986
v 267.341492 160.101822 -824.785278
v 265.451355 118.226379 -824.465942
v 259.664734 75.5656738 -826.217041
v 250.667419 31.3441811 -828.401733
v -26.9136353 122.994812 -797.656006
v 1.67352295 155.084122 -805.797852
v -38.605835 174.465225 -815.892578
v 35.2909546 183.594238 -814.31604
v -8.63006592 207.903778 -823.586548
v -50.9776611 220.782288 -829.234375
v 73.9329224 208.641281 -822.264526
v 26.0239868 234.832306 -830.914185
v -19.5028076 252.005859 -835.7771
v -64.3213501 259.542084 -836.918701
v 116.44165 230.295929 -828.574341
v 65.2901001 256.759094 -836.9552
v 16.47052 275.465179 -841.946533
v -30.9696045 286.942383 -842.93042
v -77.4060669 289.522522 -840.827759
v 160.432068 248.434906 -833.201294
v 108.225952 274.820892 -841.167114
v 57.0010376 293.790344 -846.678467
v 6.80407715 306.728821 -848.54187
v -41.8966064 313.135132 -846.968994
v -88.2956543 310.633118 -843.276855
v 202.046204 263.831848 -837.619141
v 152.408875 289.379456 -844.425659
v 101.042908 308.66217 -849.87146
v 49.1672974 321.869385 -852.663452
v -1.86456299 329.790161 -852.291016
v -50.4248047 331.090393 -849.380859
v -94.8936157 323.135803 -845.446655
v 2.50616455 91.4923019 -784.286377
v 35.1917725 63.2289581 -776.896118
v 38.0869751 124.424118 -794.667236
v 71.5680542 40.919548 -778.246216
v 76.3550415 98.3440247 -790.422119
v 77.9282227 153.562164 -805.33728
v 111.25531 24.0597725 -786.934448
v 116.956177 78.2430573 -794.18457
v 120.844543 128.939621 -803.237061
v 121.727478 179.389465 -814.761353
v 153.313904 10.2792282 -800.092896
v 160.162903 61.6925659 -803.244507
v 165.429749 109.078766 -807.216553
v 168.714539 155.212952 -813.342896
v 168.051941 201.931198 -822.036865
v 196.428467 -2.31652451 -814.901978
v 205.302734 46.4856262 -815.315552
v 211.980042 91.8308563 -815.278809
v 216.523865 135.29213 -816.796753
v 217.700867 178.681381 -820.994629
v 213.651001 222.203522 -828.049805
v -35.7012939 68.0341415 -780.022949
v -44.8162842 12.3330231 -762.833252
v -5.13323975 32.89048 -766.684692
v -54.5594482 -40.9843521 -749.415894
v -12.3554077 -21.7047882 -753.315308
v 28.7084351 5.29626465 -763.641968
v -62.9002686 -89.1562347 -743.252197
v -19.5501099 -70.8557587 -745.947998
v 23.3190308 -46.0795517 -756.097046
v 66.1636353 -14.6890984 -770.255249
v -67.2236328 -130.391052 -745.799316
v -24.7730713 -114.039124 -745.8302
v 18.7736206 -91.6333466 -754.143921
v 62.6890869 -63.5905838 -767.355469
v 107.074707 -29.4646912 -783.206787
v -65.1230469 -164.556564 -755.853027
v -25.6367188 -151.258057 -753.2948
v 17.1962891 -131.792465 -758.853394
v 61.6399536 -106.757217 -769.980103
v 106.521362 -76.66008 -784.393555
v 151.188232 -41.4598923 -799.940674
v -58.9666138 121.341934 -802.59375
v -88.6443481 117.825211 -809.132446
v -69.913269 60.768692 -784.663574
v -116.869202 111.314819 -816.991089
v -100.793274 52.8819427 -793.070435
v -81.7259521 1.35797501 -767.673706
v -143.377228 100.506248 -825.494385
v -128.977753 43.3269196 -803.992798
v -113.353424 -9.28622437 -778.31665
v -92.9275513 -54.2781982 -755.557617
v -167.219086 84.8348007 -834.346436
v -154.353943 31.1098404 -816.344727
v -140.717133 -20.6135902 -792.554688
v -123.905823 -66.6565094 -768.952759
v -100.709534 -103.745102 -751.759399
v -187.196777 65.2363586 -843.332764
v -176.351837 15.876236 -829.539551
v -164.125305 -33.3833961 -809.168579
v -149.170959 -79.0138855 -787.029663
v -129.168976 -117.140549 -768.446777
v -101.869629 -145.389694 -757.514404
v -73.418335 175.774582 -821.022461
v -88.6083374 221.345688 -831.570557
v -104.309998 172.894547 -825.914185
v -104.013977 257.015594 -836.075073
v -120.719788 215.669067 -833.206665
v -132.831818 164.401505 -831.038208
v -117.645172 282.678284 -838.16272
v -136.359436 246.750275 -835.246338
v -149.102142 202.607147 -835.531738
v -158.91626 149.186523 -836.626587
v -127.246155 298.890442 -840.23645
v -148.810089 267.006836 -836.672607
v -163.343933 228.003769 -836.315796
v -173.849274 181.659668 -839.565308
v -181.662109 127.308105 -843.079102
g 
f 3 1 2
f 5 2 4
f 6 3 5
f 8 4 7
f 9 5 8
f 10 6 9
f 12 7 11
f 13 8 12
f 14 9 13
f 15 10 14
f 17 11 16
f 18 12 17
f 19 13 18
f 20 14 19
f 21 15 20
f 23 16 22
f 24 17 23
f 25 18 24
f 26 19 25
f 27 20 26
f 28 21 27
f 30 22 29
f 31 23 30
f 32 24 31
f 33 25 32
f 34 26 33
f 35 27 34
f 36 28 35
f 3 2 5
f 5 4 8
f 6 5 9
f 8 7 12
f 9 8 13
f 10 9 14
f 12 11 17
f 13 12 18
f 14 13 19
f 15 14 20
f 17 16 23
f 18 17 24
f 19 18 25
f 20 19 26
f 21 20 27
f 23 22 30
f 24 23 31
f 25 24 32
f 26 25 33
f 27 26 34
f 28 27 35
f 37 1 3
f 38 3 6
f 39 37 38
f 40 6 10
f 41 38 40
f 42 39 41
f 43 10 15
f 44 40 43
f 45 41 44
f 46 42 45
f 47 15 21
f 48 43 47
f 49 44 48
f 50 45 49
f 51 46 50
f 52 21 28
f 53 47 52
f 54 48 53
f 55 49 54
f 56 50 55
f 57 51 56
f 58 28 36
f 59 52 58
f 60 53 59
f 61 54 60
f 62 55 61
f 63 56 62
f 64 57 63
f 37 3 38
f 38 6 40
f 39 38 41
f 40 10 43
f 41 40 44
f 42 41 45
f 43 15 47
f 44 43 48
f 45 44 49
f 46 45 50
f 47 21 52
f 48 47 53
f 49 48 54
f 50 49 55
f 51 50 56
f 52 28 58
f 53 52 59
f 54 53 60
f 55 54 61
f 56 55 62
f 57 56 63
f 65 1 37
f 66 37 39
f 67 65 66
f 68 39 42
f 69 66 68
f 70 67 69
f 71 42 46
f 72 68 71
f 73 69 72
f 74 70 73
f 75 46 51
f 76 71 75
f 77 72 76
f 78 73 77
f 79 74 78
f 80 51 57
f 81 75 80
f 82 76 81
f 83 77 82
f 84 78 83
f 85 79 84
f 86 57 64
f 87 80 86
f 88 81 87
f 89 82 88
f 90 83 89
f 91 84 90
f 92 85 91
f 65 37 66
f 66 39 68
f 67 66 69
f 68 42 71
f 69 68 72
f 70 69 73
f 71 46 75
f 72 71 76
f 73 72 77
f 74 73 78
f 75 51 80
f 76 75 81
f 77 76 82
f 78 77 83
f 79 78 84
f 80 57 86
f 81 80 87
f 82 81 88
f 83 82 89
f 84 83 90
f 85 84 91
f 93 1 65
f 94 65 67
f 95 93 94
f 96 67 70
f 97 94 96
f 98 95 97
f 99 70 74
f 100 96 99
f 101 97 100
f 102 98 101
f 103 74 79
f 104 99 103
f 105 100 104
f 106 101 105
f 107 102 106
f 108 79 85
f 109 103 108
f 110 104 109
f 111 105 110
f 112 106 111
f 113 107 112
f 114 85 92
f 115 108 114
f 116 109 115
f 117 110 116
f 118 111 117
f 119 112 118
f 120 113 119
f 93 65 94
f 94 67 96
f 95 94 97
f 96 70 99
f 97 96 100
f 98 97 101
f 99 74 103
f 100 99 104
f 101 100 105
f 102 101 106
f 103 79 108
f 104 103 109
f 105 104 110
f 106 105 111
f 107 106 112
f 108 85 114
f 109 108 115
f 110 109 116
f 111 110 117
f 112 111 118
f 113 112 119
f 2 1 93
f 121 93 95
f 4 2 121
f 122 95 98
f 123 121 122
f 7 4 123
f 124 98 102
f 125 122 124
f 126 123 125
f 11 7 126
f 127 102 107
f 128 124 127
f 129 125 128
f 130 126 129
f 16 11 130
f 131 107 113
f 132 127 131
f 133 128 132
f 134 129 133
f 135 130 134
f 22 16 135
f 136 113 120
f 137 131 136
f 138 132 137
f 139 133 138
f 140 134 139
f 141 135 140
f 29 22 141
f 2 93 121
f 121 95 122
f 4 121 123
f 122 98 124
f 123 122 125
f 7 123 126
f 124 102 127
f 125 124 128
f 126 125 129
f 11 126 130
f 127 107 131
f 128 127 132
f 129 128 133
f 130 129 134
f 16 130 135
f 131 113 136
f 132 131 137
f 133 132 138
f 134 133 139
f 135 134 140
f 22 135 141
f 142 29 141
f 143 141 140
f 144 142 143
f 145 140 139
f 146 143 145
f 147 144 146
f 148 139 138
f 149 145 148
f 150 146 149
f 151 147 150
f 152 138 137
f 153 148 152
f 154 149 153
f 155 150 154
f 156 151 155
f 157 137 136
f 158 152 157
f 159 153 158
f 160 154 159
f 161 155 160
f 162 156 161
f 163 136 120
f 164 157 163
f 165 158 164
f 166 159 165
f 167 160 166
f 168 161 167
f 169 162 168
f 142 141 143
f 143 140 145
f 144 143 146
f 145 139 148
f 146 145 149
f 147 146 150
f 148 138 152
f 149 148 153
f 150 149 154
f 151 150 155
f 152 137 157
f 153 152 158
f 154 153 159
f 155 154 160
f 156 155 161
f 157 136 163
f 158 157 164
f 159 158 165
f 160 159 166
f 161 160 167
f 162 161 168
f 170 120 119
f 171 119 118
f 172 170 171
f 173 118 117
f 174 171 173
f 175 172 174
f 176 117 116
f 177 173 176
f 178 174 177
f 179 175 178
f 180 116 115
f 181 176 180
f 182 177 181
f 183 178 182
f 184 179 183
f 185 115 114
f 186 180 185
f 187 181 186
f 188 182 187
f 189 183 188
f 190 184 189
f 191 114 92
f 192 185 191
f 193 186 192
f 194 187 193
f 195 188 194
f 196 189 195
f 197 190 196
f 170 119 171
f 171 118 173
f 172 171 174
f 173 117 176
f 174 173 177
f 175 174 178
f 176 116 180
f 177 176 181
f 178 177 182
f 179 178 183
f 180 115 185
f 181 180 186
f 182 181 187
f 183 182 188
f 184 183 189
f 185 114 191
f 186 185 192
f 187 186 193
f 188 187 194
f 189 188 195
f 190 189 196
f 198 92 91
f 199 91 90
f 200 198 199
f 201 90 89
f 202 199 201
f 203 200 202
f 204 89 88
f 205 201 204
f 206 202 205
f 207 203 206
f 208 88 87
f 209 204 208
f 210 205 209
f 211 206 210
f 212 207 211
f 213 87 86
f 214 208 213
f 215 209 214
f 216 210 215
f 217 211 216
f 218 212 217
f 219 86 64
f 220 213 219
f 221 214 220
f 222 215 221
f 223 216 222
f 224 217 223
f 225 218 224
f 198 91 199
f 199 90 201
f 200 199 202
f 201 89 204
f 202 201 205
f 203 202 206
f 204 88 208
f 205 204 209
f 206 205 210
f 207 206 211
f 208 87 213
f 209 208 214
f 210 209 215
f 211 210 216
f 212 211 217
f 213 86 219
f 214 213 220
f 215 214 221
f 216 215 222
f 217 216 223
f 218 217 224
f 226 64 63
f 227 63 62
f 228 226 227
f 229 62 61
f 230 227 229
f 231 228 230
f 232 61 60
f 233 229 232
f 234 230 233
f 235 231 234
f 236 60 59
f 237 232 236
f 238 233 237
f 239 234 238
f 240 235 239
f 241 59 58
f 242 236 241
f 243 237 242
f 244 238 243
f 245 239 244
f 246 240 245
f 247 58 36
f 248 241 247
f 249 242 248
f 250 243 249
f 251 244 250
f 252 245 251
f 253 246 252
f 226 63 227
f 227 62 229
f 228 227 230
f 229 61 232
f 230 229 233
f 231 230 234
f 232 60 236
f 233 232 237
f 234 233 238
f 235 234 239
f 236 59 241
f 237 236 242
f 238 237 243
f 239 238 244
f 240 239 245
f 241 58 247
f 242 241 248
f 243 242 249
f 244 243 250
f 245 244 251
f 246 245 252
f 254 36 35
f 255 35 34
f 256 254 255
f 257 34 33
f 258 255 257
f 259 256 258
f 260 33 32
f 261 257 260
f 262 258 261
f 263 259 262
f 264 32 31
f 265 260 264
f 266 261 265
f 267 262 266
f 268 263 267
f 269 31 30
f 270 264 269
f 271 265 270
f 272 266 271
f 273 267 272
f 274 268 273
f 275 30 29
f 276 269 275
f 277 270 276
f 278 271 277
f 279 272 278
f 280 273 279
f 281 274 280
f 254 35 255
f 255 34 257
f 256 255 258
f 257 33 260
f 258 257 261
f 259 258 262
f 260 32 264
f 261 260 265
f 262 261 266
f 263 262 267
f 264 31 269
f 265 264 270
f 266 265 271
f 267 266 272
f 268 267 273
f 269 30 275
f 270 269 276
f 271 270 277
f 272 271 278
f 273 272 279
f 274 273 280
f 275 29 142
f 282 142 144
f 276 275 282
f 283 144 147
f 284 282 283
f 277 276 284
f 285 147 151
f 286 283 285
f 287 284 286
f 278 277 287
f 288 151 156
f 289 285 288
f 290 286 289
f 291 287 290
f 279 278 291
f 292 156 162
f 293 288 292
f 294 289 293
f 295 290 294
f 296 291 295
f 280 279 296
f 297 162 169
f 298 292 297
f 299 293 298
f 300 294 299
f 301 295 300
f 302 296 301
f 281 280 302
f 275 142 282
f 282 144 283
f 276 282 284
f 283 147 285
f 284 283 286
f 277 284 287
f 285 151 288
f 286 285 289
f 287 286 290
f 278 287 291
f 288 156 292
f 289 288 293
f 290 289 294
f 291 290 295
f 279 291 296
f 292 162 297
f 293 292 298
f 294 293 299
f 295 294 300
f 296 295 301
f 280 296 302
f 163 120 170
f 303 170 172
f 164 163 303
f 304 172 175
f 305 303 304
f 165 164 305
f 306 175 179
f 307 304 306
f 308 305 307
f 166 165 308
f 309 179 184
f 310 306 309
f 311 307 310
f 312 308 311
f 167 166 312
f 313 184 190
f 314 309 313
f 315 310 314
f 316 311 315
f 317 312 316
f 168 167 317
f 318 190 197
f 319 313 318
f 320 314 319
f 321 315 320
f 322 316 321
f 323 317 322
f 169 168 323
f 163 170 303
f 303 172 304
f 164 303 305
f 304 175 306
f 305 304 307
f 165 305 308
f 306 179 309
f 307 306 310
f 308 307 311
f 166 308 312
f 309 184 313
f 310 309 314
f 311 310 315
f 312 311 316
f 167 312 317
f 313 190 318
f 314 313 319
f 315 314 320
f 316 315 321
f 317 316 322
f 168 317 323
f 191 92 198
f 324 198 200
f 192 191 324
f 325 200 203
f 326 324 325
f 193 192 326
f 327 203 207
f 328 325 327
f 329 326 328
f 194 193 329
f 330 207 212
f 331 327 330
f 332 328 331
f 333 329 332
f 195 194 333
f 334 212 218
f 335 330 334
f 336 331 335
f 337 332 336
f 338 333 337
f 196 195 338
f 339 218 225
f 340 334 339
f 341 335 340
f 342 336 341
f 343 337 342
f 344 338 343
f 197 196 344
f 191 198 324
f 324 200 325
f 192 324 326
f 325 203 327
f 326 325 328
f 193 326 329
f 327 207 330
f 328 327 331
f 329 328 332
f 194 329 333
f 330 212 334
f 331 330 335
f 332 331 336
f 333 332 337
f 195 333 338
f 334 218 339
f 335 334 340
f 336 335 341
f 337 336 342
f 338 337 343
f 196 338 344
f 219 64 226
f 345 226 228
f 220 219 345
f 346 228 231
f 347 345 346
f 221 220 347
f 348 231 235
f 349 346 348
f 350 347 349
f 222 221 350
f 351 235 240
f 352 348 351
f 353 349 352
f 354 350 353
f 223 222 354
f 355 240 246
f 356 351 355
f 357 352 356
f 358 353 357
f 359 354 358
f 224 223 359
f 360 246 253
f 361 355 360
f 362 356 361
f 363 357 362
f 364 358 363
f 365 359 364
f 225 224 365
f 219 226 345
f 345 228 346
f 220 345 347
f 346 231 348
f 347 346 349
f 221 347 350
f 348 235 351
f 349 348 352
f 350 349 353
f 222 350 354
f 351 240 355
f 352 351 356
f 353 352 357
f 354 353 358
f 223 354 359
f 355 246 360
f 356 355 361
f 357 356 362
f 358 357 363
f 359 358 364
f 224 359 365
f 247 36 254
f 366 254 256
f 248 247 366
f 367 256 259
f 368 366 367
f 249 248 368
f 369 259 263
f 370 367 369
f 371 368 370
f 250 249 371
f 372 263 268
f 373 369 372
f 374 370 373
f 375 371 374
f 251 250 375
f 376 268 274
f 377 372 376
f 378 373 377
f 379 374 378
f 380 375 379
f 252 251 380
f 381 274 281
f 382 376 381
f 383 377 382
f 384 378 383
f 385 379 384
f 386 380 385
f 253 252 386
f 247 254 366
f 366 256 367
f 248 366 368
f 367 259 369
f 368 367 370
f 249 368 371
f 369 263 372
f 370 369 373
f 371 370 374
f 250 371 375
f 372 268 376
f 373 372 377
f 374 373 378
f 375 374 379
f 251 375 380
f 376 274 381
f 377 376 382
f 378 377 383
f 379 378 384
f 380 379 385
f 252 380 386
f 389 387 388
f 391 388 390
f 392 389 391
f 394 390 393
f 395 391 394
f 396 392 395
f 398 393 397
f 399 394 398
f 400 395 399
f 401 396 400
f 403 397 402
f 404 398 403
f 405 399 404
f 406 400 405
f 407 401 406
f 409 402 408
f 410 403 409
f 411 404 410
f 412 405 411
f 413 406 412
f 414 407 413
f 302 408 281
f 301 409 302
f 300 410 301
f 299 411 300
f 298 412 299
f 297 413 298
f 169 414 297
f 389 388 391
f 391 390 394
f 392 391 395
f 394 393 398
f 395 394 399
f 396 395 400
f 398 397 403
f 399 398 404
f 400 399 405
f 401 400 406
f 403 402 409
f 404 403 410
f 405 404 411
f 406 405 412
f 407 406 413
f 409 408 302
f 410 409 301
f 411 410 300
f 412 411 299
f 413 412 298
f 414 413 297
f 388 387 415
f 417 415 416
f 390 388 417
f 419 416 418
f 420 417 419
f 393 390 420
f 422 418 421
f 423 419 422
f 424 420 423
f 397 393 424
f 426 421 425
f 427 422 426
f 428 423 427
f 429 424 428
f 402 397 429
f 431 425 430
f 432 426 431
f 433 427 432
f 434 428 433
f 435 429 434
f 408 402 435
f 386 430 253
f 385 431 386
f 384 432 385
f 383 433 384
f 382 434 383
f 381 435 382
f 281 408 381
f 388 415 417
f 417 416 419
f 390 417 420
f 419 418 422
f 420 419 423
f 393 420 424
f 422 421 426
f 423 422 427
f 424 423 428
f 397 424 429
f 426 425 431
f 427 426 432
f 428 427 433
f 429 428 434
f 402 429 435
f 431 430 386
f 432 431 385
f 433 432 384
f 434 433 383
f 435 434 382
f 408 435 381
f 415 387 436
f 438 436 437
f 416 415 438
f 440 437 439
f 441 438 440
f 418 416 441
f 443 439 442
f 444 440 443
f 445 441 444
f 421 418 445
f 447 442 446
f 448 443 447
f 449 444 448
f 450 445 449
f 425 421 450
f 452 446 451
f 453 447 452
f 454 448 453
f 455 449 454
f 456 450 455
f 430 425 456
f 365 451 225
f 364 452 365
f 363 453 364
f 362 454 363
f 361 455 362
f 360 456 361
f 253 430 360
f 415 436 438
f 438 437 440
f 416 438 441
f 440 439 443
f 441 440 444
f 418 441 445
f 443 442 447
f 444 443 448
f 445 444 449
f 421 445 450
f 447 446 452
f 448 447 453
f 449 448 454
f 450 449 455
f 425 450 456
f 452 451 365
f 453 452 364
f 454 453 363
f 455 454 362
f 456 455 361
f 430 456 360
f 436 387 457
f 459 457 458
f 437 436 459
f 461 458 460
f 462 459 461
f 439 437 462
f 464 460 463
f 465 461 464
f 466 462 465
f 442 439 466
f 468 463 467
f 469 464 468
f 470 465 469
f 471 466 470
f 446 442 471
f 473 467 472
f 474 468 473
f 475 469 474
f 476 470 475
f 477 471 476
f 451 446 477
f 344 472 197
f 343 473 344
f 342 474 343
f 341 475 342
f 340 476 341
f 339 477 340
f 225 451 339
f 436 457 459
f 459 458 461
f 437 459 462
f 461 460 464
f 462 461 465
f 439 462 466
f 464 463 468
f 465 464 469
f 466 465 470
f 442 466 471
f 468 467 473
f 469 468 474
f 470 469 475
f 471 470 476
f 446 471 477
f 473 472 344
f 474 473 343
f 475 474 342
f 476 475 341
f 477 476 340
f 451 477 339
f 457 387 389
f 478 389 392
f 458 457 478
f 479 392 396
f 480 478 479
f 460 458 480
f 481 396 401
f 482 479 481
f 483 480 482
f 463 460 483
f 484 401 407
f 485 481 484
f 486 482 485
f 487 483 486
f 467 463 487
f 488 407 414
f 489 484 488
f 490 485 489
f 491 486 490
f 492 487 491
f 472 467 492
f 323 414 169
f 322 488 323
f 321 489 322
f 320 490 321
f 319 491 320
f 318 492 319
f 197 472 318
f 457 389 478
f 478 392 479
f 458 478 480
f 479 396 481
f 480 479 482
f 460 480 483
f 481 401 484
f 482 481 485
f 483 482 486
f 463 483 487
f 484 407 488
f 485 484 489
f 486 485 490
f 487 486 491
f 467 487 492
f 488 414 323
f 489 488 322
f 490 489 321
f 491 490 320
f 492 491 319
f 472 492 318
