# File exported by Houdini 20.5.445 (www.sidefx.com)
# 492 points
# 2940 vertices
# 980 primitives
# Bounds: [-102.62587, -133.24147, -1166.07373] to [273.39978, 249.618576, -588.727295]
g 
v 128.022278 157.640701 -1161.05957
v 131.962402 181.875473 -1152.65479
v 166.975525 165.62645 -1157.15601
v 133.584534 203.205215 -1139.48633
v 170.454834 192.518387 -1145.47583
v 201.578674 172.348618 -1146.37817
v 131.614441 220.301224 -1119.44922
v 169.143982 214.365677 -1127.92285
v 201.883179 200.085648 -1130.54419
v 229.722839 174.924179 -1128.06909
v 127.525635 232.793625 -1090.91431
v 163.371399 230.744156 -1102.2937
v 196.505005 220.968796 -1107.49146
v 226.111267 201.873856 -1107.41089
v 250.488892 171.22789 -1102.04834
v 123.376709 241.176468 -1054.14697
v 155.674377 242.144485 -1067.64404
v 186.958252 235.72258 -1075.5481
v 216.488586 220.757278 -1078.46948
v 242.847229 196.239365 -1076.62817
v 263.152588 161.006485 -1069.72021
v 118.07135 245.299911 -1010.69171
v 146.314819 248.570389 -1024.0415
v 175.138733 244.676071 -1033.79736
v 203.49054 232.638565 -1039.76099
v 229.950867 212.027756 -1041.91846
v 252.115295 182.861954 -1039.64258
v 267.146423 145.522888 -1032.57812
v 110.149048 244.84227 -962.628723
v 134.038757 249.618576 -972.656921
v 160.077698 247.672165 -981.918274
v 187.021118 237.773483 -989.900574
v 213.215393 219.700699 -995.862976
v 236.213989 194.205978 -998.681702
v 253.527344 162.727737 -997.531799
v 263.393433 127.022034 -992.580505
v 148.125549 136.087036 -1165.5022
v 189.8703 141.228821 -1158.3103
v 166.404724 111.790359 -1165.6543
v 223.839294 143.481049 -1143.06641
v 207.329224 112.962852 -1153.97192
v 180.470825 84.0763321 -1159.67554
v 249.100037 140.496918 -1119.92432
v 237.902771 109.888298 -1133.38916
v 217.581116 80.2941055 -1142.75317
v 188.925598 52.53125 -1145.51074
v 265.906616 131.333221 -1089.52661
v 258.880127 101.280312 -1105.12817
v 243.460754 71.6366959 -1116.93701
v 220.630432 43.3900757 -1123.60767
v 192.465942 17.5612221 -1122.29541
v 273.39978 117.186485 -1052.71436
v 270.567627 87.5954666 -1069.3772
v 259.325623 58.2443008 -1083.08105
v 241.118591 29.9099636 -1092.39233
v 217.980896 3.82731247 -1095.40112
v 193.328369 -18.8078575 -1089.71826
v 270.742432 100.03598 -1010.1778
v 271.489075 70.8387146 -1025.98193
v 264.758911 41.2555237 -1040.03931
v 251.15625 12.9089489 -1051.3103
v 232.776855 -13.2145309 -1057.5
v 212.484375 -35.755394 -1056.9624
v 193.501343 -53.5771561 -1048.66113
v 99.9937592 137.217346 -1162.18555
v 119.402893 112.451965 -1166.07373
v 73.3135834 116.563759 -1155.48779
v 136.660278 86.4845657 -1164.23071
v 93.2211761 89.745842 -1156.87476
v 50.7977448 94.83564 -1139.27246
v 150.23584 58.1361694 -1154.59351
v 110.888367 62.6733704 -1151.13086
v 71.9530182 66.7075653 -1136.94263
v 34.0003204 71.6159897 -1113.50635
v 160.016296 26.3525887 -1135.0249
v 125.880798 33.4944611 -1136.02295
v 91.0833588 38.5571365 -1126.1853
v 56.5177765 42.6559868 -1106.89697
v 22.5077667 47.5311127 -1080.15405
v 167.538269 -9.06784821 -1104.18823
v 139.112488 0.487611771 -1108.98169
v 108.755127 7.90328026 -1104.02026
v 77.3426056 13.2205162 -1090.07837
v 45.84758 17.9510345 -1068.66016
v 14.843277 23.6066647 -1042.21655
v 174.063354 -46.41716 -1061.35132
v 151.391235 -36.8646469 -1067.90112
v 125.53009 -27.6012268 -1067.25293
v 97.3477325 -20.0147705 -1059.11719
v 68.1373138 -13.7060623 -1044.2395
v 39.1098175 -7.31563568 -1024.32837
v 10.787674 0.0538520813 -1002.16949
v 91.0496063 164.758408 -1154.59302
v 59.7894135 144.38858 -1150.50195
v 55.9749298 170.602005 -1142.33643
v 33.6028595 123.209274 -1137.17334
v 24.7170868 149.682739 -1132.75537
v 23.7975616 173.673904 -1124.29883
v 13.953476 100.065636 -1114.36035
v 0.79725647 126.788834 -1113.57471
v -5.7787323 151.07309 -1109.9668
v -4.6572113 172.131668 -1101.11938
v 0.379684448 74.9848709 -1083.30371
v -16.2021332 101.280014 -1085.57495
v -27.3434296 125.718582 -1086.07861
v -31.9792633 147.481049 -1082.92334
v -27.0321503 166.470383 -1073.56104
v -8.95793152 49.1133614 -1046.20435
v -28.2572174 74.1207657 -1050.11353
v -42.8411407 98.1402817 -1053.38477
v -51.4829865 120.452469 -1054.43604
v -51.8584442 140.666809 -1051.29712
v -42.1566315 158.226425 -1042.31934
v -14.4808197 22.7235565 -1004.91815
v -36.5103607 45.9025612 -1008.34515
v -54.0694733 69.3010559 -1012.17865
v -65.5460968 92.2402115 -1015.39215
v -69.4705658 113.650993 -1016.67328
v -64.5838165 132.824615 -1014.52313
v -51.217514 148.863586 -1008.04474
v 94.1251373 188.24144 -1144.23193
v 59.312912 191.852005 -1129.45972
v 95.4412994 206.644913 -1127.7561
v 28.311203 191.709213 -1108.74951
v 61.9785614 206.761765 -1109.16309
v 94.8623505 220.305771 -1103.59692
v 3.16514587 187.416702 -1082.74365
v 34.7837982 203.655075 -1084.62012
v 65.3831024 217.481003 -1080.69092
v 94.6935883 229.988754 -1071.0271
v -15.2154083 179.386581 -1052.28882
v 14.1338654 196.680649 -1054.99731
v 42.7908478 211.519852 -1052.03735
v 69.6335297 224.463669 -1043.96191
v 94.7542572 235.708115 -1030.30127
v -27.5830536 168.13063 -1017.64178
v -0.880874634 185.373672 -1020.58698
v 25.8119354 200.885391 -1017.88934
v 50.4582977 214.79451 -1010.38458
v 72.6706696 226.612534 -998.171082
v 92.4684906 236.905655 -981.984924
v 90.2163849 235.521378 -926.076294
v 73.2981415 224.800064 -946.096558
v 70.0694122 221.046494 -891.604004
v 55.0832062 212.819443 -963.101135
v 54.2639618 207.520981 -913.638916
v 49.220871 202.409531 -860.828735
v 34.4029694 199.577011 -975.741638
v 37.215744 194.146164 -931.956543
v 34.1623077 186.69725 -884.626587
v 28.2590179 181.970779 -834.167236
v 10.579361 184.69313 -983.212463
v 17.2361298 180.049667 -944.484375
v 17.3264923 172.470566 -902.854492
v 13.1986847 165.242813 -857.986206
v 7.48136902 161.817581 -810.644287
v -16.0430145 168.540451 -984.964294
v -6.75013733 165.038193 -950.510742
v -3.27476501 158.030411 -913.669434
v -5.16133118 150.194977 -874.187622
v -9.66252136 145.069305 -832.308472
v -14.9462433 143.058868 -788.234375
v -43.0809174 150.333282 -979.457214
v -34.452652 148.32074 -948.741089
v -29.6610565 142.509338 -915.869751
v -29.5313873 134.946655 -880.510864
v -32.2849884 129.176773 -843.064331
v -35.9129181 126.707115 -804.062256
v -39.0099945 125.688286 -764.095093
v -66.9115753 130.276093 -975.532532
v -78.5522308 110.888718 -976.746643
v -79.9340057 111.414307 -938.759155
v -80.2413788 88.7902603 -974.977844
v -87.5199127 89.4392776 -936.94104
v -90.318161 91.3659821 -899.572876
v -72.8423004 65.1273193 -971.897156
v -84.5156403 64.9157562 -934.078735
v -91.5694122 66.91436 -897.351685
v -96.177475 69.8214722 -860.171509
v -57.4967194 40.6123276 -968.743347
v -72.0935822 38.8340492 -931.43811
v -82.3238678 39.7924614 -895.370239
v -89.7932281 42.7987709 -859.332153
v -95.9817657 46.8925629 -822.280273
v -35.2006683 15.8559551 -966.028992
v -51.1737823 11.8871765 -929.224731
v -63.4045258 10.9303551 -893.653809
v -73.291275 12.9043617 -858.51001
v -81.8313751 17.0313931 -823.019409
v -89.6957245 22.6554317 -786.648438
v -7.02232361 -8.80940247 -964.055115
v -22.3135834 -15.5707016 -927.12146
v -35.1300812 -19.3210983 -891.296265
v -46.5789948 -19.4961166 -856.358643
v -57.5531769 -16.1998367 -821.768433
v -68.269516 -10.2168694 -787.239868
v -78.3580475 -2.26766586 -753.088135
v 27.3828888 -28.2437134 -974.50116
v 58.5155487 -37.8328247 -993.563904
v 46.1569672 -55.9968033 -943.966064
v 88.2303925 -45.997345 -1008.12457
v 78.2470856 -66.4077759 -958.569031
v 65.1772308 -81.7736511 -909.020508
v 116.224976 -54.2095261 -1016.9527
v 107.203308 -75.3025131 -967.163757
v 96.3095245 -91.877121 -918.198486
v 82.2980194 -103.846939 -868.88208
v 141.822266 -63.4978333 -1019.84747
v 133.158203 -84.3554382 -970.20282
v 123.360901 -100.443405 -920.810547
v 111.483765 -112.384445 -872.013794
v 96.1159515 -120.057724 -823.821167
v 164.44928 -73.2213745 -1017.10126
v 156.017151 -93.8324738 -968.556335
v 146.922485 -108.6931 -918.460571
v 136.258484 -118.986832 -868.753784
v 123.365906 -125.937088 -820.943359
v 106.462524 -129.539932 -776.128418
v 183.980774 -80.6872864 -1009.20929
v 175.752502 -101.711136 -963.070251
v 167.279419 -115.928406 -912.923706
v 157.742859 -124.569336 -861.901733
v 146.503662 -129.701553 -813.074829
v 132.329224 -132.524765 -768.792725
v 114.232422 -133.24147 -730.513428
v 202.519592 -73.8983383 -1009.83112
v 220.076843 -53.6019821 -1015.67474
v 207.703674 -86.5291748 -968.973816
v 237.066406 -28.9412117 -1013.32892
v 222.682434 -63.2059174 -973.313171
v 210.160889 -91.0980225 -927.477661
v 250.909973 -1.23771667 -1004.82159
v 235.167236 -36.5548401 -969.054993
v 221.676819 -65.7472839 -930.878784
v 210.645813 -88.6367798 -886.615723
v 259.668396 28.8470688 -992.689514
v 243.995056 -7.29674911 -959.509705
v 229.345581 -37.6052704 -925.841431
v 217.492798 -61.7508011 -889.786377
v 207.894531 -79.6634521 -848.03125
v 262.394897 60.4292145 -978.651672
v 248.280396 24.5484276 -947.052368
v 232.988342 -6.42887878 -915.789673
v 219.43512 -31.5748863 -884.347046
v 209.043823 -51.0284882 -850.777588
v 201.176147 -65.5346146 -812.705688
v 258.494812 92.2323837 -962.896667
v 246.862732 58.6759415 -932.553467
v 231.783081 28.2568798 -902.510986
v 216.535461 2.673172 -873.288452
v 204.173889 -18.1286011 -844.254761
v 195.802734 -34.7583923 -813.663818
v 190.168579 -48.4271698 -780.649658
v 249.648438 130.275848 -955.184265
v 236.481201 166.33223 -955.521057
v 230.587463 132.949707 -917.112915
v 216.433105 196.953629 -951.615051
v 214.368713 168.45369 -913.522461
v 206.853455 135.722687 -879.17688
v 191.891174 221.154617 -944.512695
v 192.187988 197.824844 -905.797607
v 188.192688 170.060104 -872.324341
v 179.554382 138.547974 -842.007202
v 165.265564 237.796768 -935.849365
v 166.562561 220.470779 -895.812012
v 164.499573 197.766891 -861.74646
v 159.091858 171.018936 -832.459961
v 150.152222 140.738251 -805.906616
v 138.450012 245.759567 -927.095215
v 139.479004 235.001724 -885.343384
v 137.809875 218.057022 -849.464355
v 134.112366 196.205948 -819.460938
v 128.630859 170.357559 -794.02771
v 120.723877 141.223663 -770.95752
v 112.767639 244.494064 -918.676392
v 112.137451 239.20665 -875.702637
v 109.322998 228.48259 -837.029663
v 105.862854 212.489853 -804.62085
v 102.106201 191.550186 -778.414062
v 97.7775726 166.402359 -756.999878
v 92.2431793 138.836182 -737.858276
v 88.6645966 233.415115 -877.17688
v 65.121933 217.659836 -841.226196
v 84.2514191 227.500229 -832.921753
v 42.588913 198.988693 -811.249146
v 59.0546112 211.77626 -798.003906
v 79.5867157 217.109085 -795.383179
v 20.9005585 178.461594 -786.335205
v 35.634201 192.614792 -769.622314
v 53.490036 200.837631 -762.094971
v 75.4663544 200.932816 -764.904053
v -1.40336609 157.271896 -763.880493
v 12.6106415 170.643661 -745.309082
v 28.99617 179.935837 -734.380371
v 48.6562347 182.878036 -732.586548
v 71.7621002 178.397354 -740.504272
v -26.251297 135.797943 -740.704834
v -12.477951 146.241425 -721.095825
v 3.48524475 154.599335 -708.261475
v 22.5755768 158.656845 -703.600464
v 44.5145416 157.255142 -707.759399
v 68.1026459 150.348114 -719.853882
v -61.0675812 130.865021 -943.577148
v -78.0021515 111.307121 -904.555542
v -56.9418488 127.183884 -911.218018
v -91.7149811 91.31604 -863.564575
v -77.7348785 107.507896 -870.606323
v -56.1105804 120.912529 -877.428467
v -99.574234 70.2720032 -822.092041
v -93.5468597 88.2487793 -827.44397
v -79.062912 102.174301 -834.913818
v -57.6941681 114.706238 -841.203003
v -100.202194 47.1614189 -781.388672
v -102.101639 67.4257126 -782.567871
v -95.4394379 83.732933 -788.506836
v -80.7878876 97.7142258 -796.350098
v -59.9486237 111.377953 -802.586548
v -93.2140045 21.4242229 -742.025269
v -101.674637 43.2381172 -736.950439
v -102.62587 62.6141853 -738.684448
v -95.5766144 79.7065048 -745.590576
v -81.1712494 95.1970978 -754.241455
v -61.3474579 110.133858 -761.133667
v 11.6122284 -39.1319275 -932.062134
v 31.7520294 -67.0107956 -898.711548
v -1.58546448 -46.5214691 -892.342651
v 50.7333221 -91.2793427 -861.864136
v 18.7823944 -73.4748154 -856.908081
v -13.937912 -49.7235718 -854.71936
v 66.6743011 -110.628937 -820.251221
v 36.3633575 -95.6257553 -817.945557
v 4.98719788 -74.9531174 -817.161499
v -26.9376068 -48.294693 -818.105957
v 78.9750214 -123.665634 -773.810791
v 50.0694122 -112.184357 -773.841187
v 19.9150238 -94.5835114 -775.199585
v -10.937027 -71.1685333 -777.674194
v -41.1081696 -42.6307068 -781.279663
v 88.3481598 -130.137955 -725.1698
v 60.2471466 -122.131271 -724.77832
v 30.6649628 -107.972198 -727.225342
v 0.477249146 -87.6898422 -731.342651
v -29.0463104 -62.1546097 -736.721558
v -55.9707184 -33.1056595 -743.49707
v 192.403564 -100.259613 -963.430725
v 196.980225 -109.099625 -918.59668
v 183.586426 -117.057022 -912.185303
v 200.236572 -109.106155 -875.778442
v 188.4599 -121.263641 -865.009644
v 174.907166 -126.175125 -858.909302
v 201.455261 -101.889282 -835.450073
v 191.920776 -117.228149 -821.869995
v 179.779663 -126.602005 -810.667969
v 164.954529 -130.537949 -806.498535
v 199.025574 -88.6699066 -798.228027
v 192.514648 -106.69516 -782.359619
v 182.164185 -119.81311 -767.428955
v 168.35968 -128.283157 -757.722656
v 151.748901 -132.399826 -757.47168
v 191.579834 -71.019928 -764.175537
v 188.275513 -90.7523956 -746.136841
v 179.932068 -106.939072 -728.568481
v 167.295105 -119.594742 -714.480103
v 151.273376 -128.267319 -708.545776
v 133.287781 -132.770706 -714.003906
v 241.145691 95.5477295 -922.47583
v 219.217529 99.4722672 -884.395752
v 226.819031 64.3671646 -891.33728
v 193.307068 104.120537 -847.959106
v 202.667664 71.2485352 -853.935913
v 210.049622 37.8321648 -861.797607
v 164.224609 108.620735 -812.127319
v 175.215637 78.0981903 -818.078979
v 185.025513 47.3669128 -824.828979
v 194.733154 15.370779 -833.277588
v 133.714966 111.792946 -776.11792
v 145.491089 83.2717056 -781.620972
v 157.675232 54.9294853 -788.010254
v 170.633057 25.8524094 -795.381836
v 183.891479 -4.21401978 -803.889648
v 103.269104 112.635933 -739.691406
v 114.869507 86.0048599 -743.058594
v 128.636963 59.3539047 -748.289795
v 144.67511 32.5462265 -755.088257
v 161.712769 5.35502815 -762.952759
v 177.666443 -21.9286499 -771.509399
v 21.4321442 -29.3369064 -590.684448
v 25.7841339 -6.23856354 -598.981201
v -8.76185608 -3.68995667 -592.430542
v 28.7152863 19.3829155 -612.885742
v -4.87034607 22.7169094 -602.486084
v -34.8052216 23.8251038 -602.12561
v 32.719162 46.1294098 -631.317383
v 0.569564819 50.1134262 -618.238647
v -27.8375397 51.5598946 -614.518921
v -53.7335052 51.2165031 -620.863403
v 40.6997223 72.2190018 -653.524292
v 10.1187897 77.2963867 -638.319214
v -16.9969635 79.1006088 -632.327026
v -41.3226776 78.4178162 -635.162109
v -63.4150238 76.2466736 -648.521606
v 54.0722198 96.3981857 -679.101929
v 25.2837677 103.147659 -662.093384
v -0.81791687 105.829216 -654.072754
v -24.1731415 105.106895 -654.473267
v -44.7693634 101.782135 -663.984619
v -62.9255219 97.1773376 -683.682251
v 71.9644318 118.432518 -707.498291
v 45.3001556 127.372787 -689.224976
v 20.2616425 131.733185 -679.046021
v -2.5131073 131.610352 -677.25293
v -22.2402802 127.58493 -684.045776
v -38.9723358 120.922234 -699.841553
v -53.7420197 113.332191 -723.305664
v 56.0911102 -37.9677277 -599.75708
v 89.3510284 -42.5149231 -616.368652
v 60.8374481 -12.3368912 -613.197266
v 119.015808 -44.0270538 -639.803101
v 92.2470551 -14.9861565 -634.772217
v 62.5014496 14.6482792 -631.488159
v 143.726013 -44.048111 -669.249146
v 119.181091 -15.8655586 -662.236816
v 91.8946991 12.338644 -656.825439
v 64.9348907 41.4083061 -653.314331
v 163.129883 -44.2071304 -703.559448
v 141.75293 -16.492691 -694.70813
v 117.316101 10.8116932 -687.420044
v 93.167984 38.352108 -681.725952
v 71.6222076 66.7316284 -678.436157
v 178.06073 -45.6224823 -741.178955
v 160.737244 -18.1738396 -731.458252
v 140.018799 8.87263298 -722.863525
v 118.934387 35.6846085 -715.554688
v 99.9799652 62.7032547 -710.075806
v 84.4200592 90.261734 -707.164062
v 37.1236115 -56.2132416 -591.279053
v 51.8414154 -79.6919861 -597.275024
v 75.0309296 -64.9533691 -602.777832
v 65.6137848 -98.9915161 -609.008179
v 90.7077179 -86.851799 -610.723999
v 109.360474 -68.6491699 -621.882202
v 79.0372162 -114.027115 -626.844727
v 104.0354 -104.301163 -623.707275
v 124.242798 -89.0377731 -632.263062
v 138.507751 -69.3166046 -648.068604
v 92.240799 -124.947037 -652.141602
v 115.451843 -117.963531 -642.989136
v 135.84491 -105.623032 -647.849609
v 151.677429 -89.2390289 -661.676514
v 161.614868 -69.0759888 -680.907593
v 104.432007 -131.426529 -686.615967
v 125.357422 -127.693436 -671.972778
v 144.751221 -118.940186 -671.51123
v 161.058655 -105.955429 -682.190308
v 172.880859 -89.5036545 -699.36438
v 178.895935 -69.5131607 -719.764893
v -2.86305237 -34.4185867 -588.727295
v -25.3627777 -36.1479721 -595.958618
v 11.6553497 -62.5937881 -592.31665
v -44.8386078 -34.1479645 -613.070312
v -10.7679596 -64.0421982 -604.790649
v 25.7650604 -85.5740585 -603.361694
v -59.7745514 -28.8221359 -639.609131
v -28.6868439 -61.0508881 -628.282104
v 4.85453796 -85.7966156 -622.6521
v 40.5795746 -103.570953 -621.695679
v -69.5788116 -21.1932678 -673.716064
v -41.4880524 -54.4399719 -661.051514
v -10.4266815 -81.6172791 -653.001709
v 22.3543243 -102.664963 -648.214966
v 56.6621552 -117.189621 -647.012695
v -75.1638947 -12.1293373 -712.507568
v -50.0700226 -45.1140671 -700.339111
v -21.0323639 -73.8652191 -691.724609
v 9.74653625 -97.463562 -685.428223
v 41.3783722 -115.086349 -681.452637
v 73.1929474 -126.276718 -680.862671
v -34.2124786 -5.65743256 -595.510376
v -58.7919464 23.6967945 -611.930176
v -55.4864044 -4.42433929 -608.475464
v -74.7158966 51.4724159 -638.064209
v -77.0966034 26.2958755 -631.218994
v -72.3069305 -0.256538391 -630.636353
v -80.4639435 75.7261963 -673.118774
v -89.2164764 53.9384232 -663.806885
v -90.3119354 30.8834343 -658.682129
v -84.0184174 5.93921661 -661.112183
v -75.5924835 95.1505051 -715.103027
v -90.8227081 76.9795837 -705.331543
v -98.5179901 57.6911736 -697.044312
v -98.4652863 36.577774 -693.840088
v -90.6443329 13.2725821 -698.747559
g 
f 3 1 2
f 5 2 4
f 6 3 5
f 8 4 7
f 9 5 8
f 10 6 9
f 12 7 11
f 13 8 12
f 14 9 13
f 15 10 14
f 17 11 16
f 18 12 17
f 19 13 18
f 20 14 19
f 21 15 20
f 23 16 22
f 24 17 23
f 25 18 24
f 26 19 25
f 27 20 26
f 28 21 27
f 30 22 29
f 31 23 30
f 32 24 31
f 33 25 32
f 34 26 33
f 35 27 34
f 36 28 35
f 3 2 5
f 5 4 8
f 6 5 9
f 8 7 12
f 9 8 13
f 10 9 14
f 12 11 17
f 13 12 18
f 14 13 19
f 15 14 20
f 17 16 23
f 18 17 24
f 19 18 25
f 20 19 26
f 21 20 27
f 23 22 30
f 24 23 31
f 25 24 32
f 26 25 33
f 27 26 34
f 28 27 35
f 37 1 3
f 38 3 6
f 39 37 38
f 40 6 10
f 41 38 40
f 42 39 41
f 43 10 15
f 44 40 43
f 45 41 44
f 46 42 45
f 47 15 21
f 48 43 47
f 49 44 48
f 50 45 49
f 51 46 50
f 52 21 28
f 53 47 52
f 54 48 53
f 55 49 54
f 56 50 55
f 57 51 56
f 58 28 36
f 59 52 58
f 60 53 59
f 61 54 60
f 62 55 61
f 63 56 62
f 64 57 63
f 37 3 38
f 38 6 40
f 39 38 41
f 40 10 43
f 41 40 44
f 42 41 45
f 43 15 47
f 44 43 48
f 45 44 49
f 46 45 50
f 47 21 52
f 48 47 53
f 49 48 54
f 50 49 55
f 51 50 56
f 52 28 58
f 53 52 59
f 54 53 60
f 55 54 61
f 56 55 62
f 57 56 63
f 65 1 37
f 66 37 39
f 67 65 66
f 68 39 42
f 69 66 68
f 70 67 69
f 71 42 46
f 72 68 71
f 73 69 72
f 74 70 73
f 75 46 51
f 76 71 75
f 77 72 76
f 78 73 77
f 79 74 78
f 80 51 57
f 81 75 80
f 82 76 81
f 83 77 82
f 84 78 83
f 85 79 84
f 86 57 64
f 87 80 86
f 88 81 87
f 89 82 88
f 90 83 89
f 91 84 90
f 92 85 91
f 65 37 66
f 66 39 68
f 67 66 69
f 68 42 71
f 69 68 72
f 70 69 73
f 71 46 75
f 72 71 76
f 73 72 77
f 74 73 78
f 75 51 80
f 76 75 81
f 77 76 82
f 78 77 83
f 79 78 84
f 80 57 86
f 81 80 87
f 82 81 88
f 83 82 89
f 84 83 90
f 85 84 91
f 93 1 65
f 94 65 67
f 95 93 94
f 96 67 70
f 97 94 96
f 98 95 97
f 99 70 74
f 100 96 99
f 101 97 100
f 102 98 101
f 103 74 79
f 104 99 103
f 105 100 104
f 106 101 105
f 107 102 106
f 108 79 85
f 109 103 108
f 110 104 109
f 111 105 110
f 112 106 111
f 113 107 112
f 114 85 92
f 115 108 114
f 116 109 115
f 117 110 116
f 118 111 117
f 119 112 118
f 120 113 119
f 93 65 94
f 94 67 96
f 95 94 97
f 96 70 99
f 97 96 100
f 98 97 101
f 99 74 103
f 100 99 104
f 101 100 105
f 102 101 106
f 103 79 108
f 104 103 109
f 105 104 110
f 106 105 111
f 107 106 112
f 108 85 114
f 109 108 115
f 110 109 116
f 111 110 117
f 112 111 118
f 113 112 119
f 2 1 93
f 121 93 95
f 4 2 121
f 122 95 98
f 123 121 122
f 7 4 123
f 124 98 102
f 125 122 124
f 126 123 125
f 11 7 126
f 127 102 107
f 128 124 127
f 129 125 128
f 130 126 129
f 16 11 130
f 131 107 113
f 132 127 131
f 133 128 132
f 134 129 133
f 135 130 134
f 22 16 135
f 136 113 120
f 137 131 136
f 138 132 137
f 139 133 138
f 140 134 139
f 141 135 140
f 29 22 141
f 2 93 121
f 121 95 122
f 4 121 123
f 122 98 124
f 123 122 125
f 7 123 126
f 124 102 127
f 125 124 128
f 126 125 129
f 11 126 130
f 127 107 131
f 128 127 132
f 129 128 133
f 130 129 134
f 16 130 135
f 131 113 136
f 132 131 137
f 133 132 138
f 134 133 139
f 135 134 140
f 22 135 141
f 142 29 141
f 143 141 140
f 144 142 143
f 145 140 139
f 146 143 145
f 147 144 146
f 148 139 138
f 149 145 148
f 150 146 149
f 151 147 150
f 152 138 137
f 153 148 152
f 154 149 153
f 155 150 154
f 156 151 155
f 157 137 136
f 158 152 157
f 159 153 158
f 160 154 159
f 161 155 160
f 162 156 161
f 163 136 120
f 164 157 163
f 165 158 164
f 166 159 165
f 167 160 166
f 168 161 167
f 169 162 168
f 142 141 143
f 143 140 145
f 144 143 146
f 145 139 148
f 146 145 149
f 147 146 150
f 148 138 152
f 149 148 153
f 150 149 154
f 151 150 155
f 152 137 157
f 153 152 158
f 154 153 159
f 155 154 160
f 156 155 161
f 157 136 163
f 158 157 164
f 159 158 165
f 160 159 166
f 161 160 167
f 162 161 168
f 170 120 119
f 171 119 118
f 172 170 171
f 173 118 117
f 174 171 173
f 175 172 174
f 176 117 116
f 177 173 176
f 178 174 177
f 179 175 178
f 180 116 115
f 181 176 180
f 182 177 181
f 183 178 182
f 184 179 183
f 185 115 114
f 186 180 185
f 187 181 186
f 188 182 187
f 189 183 188
f 190 184 189
f 191 114 92
f 192 185 191
f 193 186 192
f 194 187 193
f 195 188 194
f 196 189 195
f 197 190 196
f 170 119 171
f 171 118 173
f 172 171 174
f 173 117 176
f 174 173 177
f 175 174 178
f 176 116 180
f 177 176 181
f 178 177 182
f 179 178 183
f 180 115 185
f 181 180 186
f 182 181 187
f 183 182 188
f 184 183 189
f 185 114 191
f 186 185 192
f 187 186 193
f 188 187 194
f 189 188 195
f 190 189 196
f 198 92 91
f 199 91 90
f 200 198 199
f 201 90 89
f 202 199 201
f 203 200 202
f 204 89 88
f 205 201 204
f 206 202 205
f 207 203 206
f 208 88 87
f 209 204 208
f 210 205 209
f 211 206 210
f 212 207 211
f 213 87 86
f 214 208 213
f 215 209 214
f 216 210 215
f 217 211 216
f 218 212 217
f 219 86 64
f 220 213 219
f 221 214 220
f 222 215 221
f 223 216 222
f 224 217 223
f 225 218 224
f 198 91 199
f 199 90 201
f 200 199 202
f 201 89 204
f 202 201 205
f 203 202 206
f 204 88 208
f 205 204 209
f 206 205 210
f 207 206 211
f 208 87 213
f 209 208 214
f 210 209 215
f 211 210 216
f 212 211 217
f 213 86 219
f 214 213 220
f 215 214 221
f 216 215 222
f 217 216 223
f 218 217 224
f 226 64 63
f 227 63 62
f 228 226 227
f 229 62 61
f 230 227 229
f 231 228 230
f 232 61 60
f 233 229 232
f 234 230 233
f 235 231 234
f 236 60 59
f 237 232 236
f 238 233 237
f 239 234 238
f 240 235 239
f 241 59 58
f 242 236 241
f 243 237 242
f 244 238 243
f 245 239 244
f 246 240 245
f 247 58 36
f 248 241 247
f 249 242 248
f 250 243 249
f 251 244 250
f 252 245 251
f 253 246 252
f 226 63 227
f 227 62 229
f 228 227 230
f 229 61 232
f 230 229 233
f 231 230 234
f 232 60 236
f 233 232 237
f 234 233 238
f 235 234 239
f 236 59 241
f 237 236 242
f 238 237 243
f 239 238 244
f 240 239 245
f 241 58 247
f 242 241 248
f 243 242 249
f 244 243 250
f 245 244 251
f 246 245 252
f 254 36 35
f 255 35 34
f 256 254 255
f 257 34 33
f 258 255 257
f 259 256 258
f 260 33 32
f 261 257 260
f 262 258 261
f 263 259 262
f 264 32 31
f 265 260 264
f 266 261 265
f 267 262 266
f 268 263 267
f 269 31 30
f 270 264 269
f 271 265 270
f 272 266 271
f 273 267 272
f 274 268 273
f 275 30 29
f 276 269 275
f 277 270 276
f 278 271 277
f 279 272 278
f 280 273 279
f 281 274 280
f 254 35 255
f 255 34 257
f 256 255 258
f 257 33 260
f 258 257 261
f 259 258 262
f 260 32 264
f 261 260 265
f 262 261 266
f 263 262 267
f 264 31 269
f 265 264 270
f 266 265 271
f 267 266 272
f 268 267 273
f 269 30 275
f 270 269 276
f 271 270 277
f 272 271 278
f 273 272 279
f 274 273 280
f 275 29 142
f 282 142 144
f 276 275 282
f 283 144 147
f 284 282 283
f 277 276 284
f 285 147 151
f 286 283 285
f 287 284 286
f 278 277 287
f 288 151 156
f 289 285 288
f 290 286 289
f 291 287 290
f 279 278 291
f 292 156 162
f 293 288 292
f 294 289 293
f 295 290 294
f 296 291 295
f 280 279 296
f 297 162 169
f 298 292 297
f 299 293 298
f 300 294 299
f 301 295 300
f 302 296 301
f 281 280 302
f 275 142 282
f 282 144 283
f 276 282 284
f 283 147 285
f 284 283 286
f 277 284 287
f 285 151 288
f 286 285 289
f 287 286 290
f 278 287 291
f 288 156 292
f 289 288 293
f 290 289 294
f 291 290 295
f 279 291 296
f 292 162 297
f 293 292 298
f 294 293 299
f 295 294 300
f 296 295 301
f 280 296 302
f 163 120 170
f 303 170 172
f 164 163 303
f 304 172 175
f 305 303 304
f 165 164 305
f 306 175 179
f 307 304 306
f 308 305 307
f 166 165 308
f 309 179 184
f 310 306 309
f 311 307 310
f 312 308 311
f 167 166 312
f 313 184 190
f 314 309 313
f 315 310 314
f 316 311 315
f 317 312 316
f 168 167 317
f 318 190 197
f 319 313 318
f 320 314 319
f 321 315 320
f 322 316 321
f 323 317 322
f 169 168 323
f 163 170 303
f 303 172 304
f 164 303 305
f 304 175 306
f 305 304 307
f 165 305 308
f 306 179 309
f 307 306 310
f 308 307 311
f 166 308 312
f 309 184 313
f 310 309 314
f 311 310 315
f 312 311 316
f 167 312 317
f 313 190 318
f 314 313 319
f 315 314 320
f 316 315 321
f 317 316 322
f 168 317 323
f 191 92 198
f 324 198 200
f 192 191 324
f 325 200 203
f 326 324 325
f 193 192 326
f 327 203 207
f 328 325 327
f 329 326 328
f 194 193 329
f 330 207 212
f 331 327 330
f 332 328 331
f 333 329 332
f 195 194 333
f 334 212 218
f 335 330 334
f 336 331 335
f 337 332 336
f 338 333 337
f 196 195 338
f 339 218 225
f 340 334 339
f 341 335 340
f 342 336 341
f 343 337 342
f 344 338 343
f 197 196 344
f 191 198 324
f 324 200 325
f 192 324 326
f 325 203 327
f 326 325 328
f 193 326 329
f 327 207 330
f 328 327 331
f 329 328 332
f 194 329 333
f 330 212 334
f 331 330 335
f 332 331 336
f 333 332 337
f 195 333 338
f 334 218 339
f 335 334 340
f 336 335 341
f 337 336 342
f 338 337 343
f 196 338 344
f 219 64 226
f 345 226 228
f 220 219 345
f 346 228 231
f 347 345 346
f 221 220 347
f 348 231 235
f 349 346 348
f 350 347 349
f 222 221 350
f 351 235 240
f 352 348 351
f 353 349 352
f 354 350 353
f 223 222 354
f 355 240 246
f 356 351 355
f 357 352 356
f 358 353 357
f 359 354 358
f 224 223 359
f 360 246 253
f 361 355 360
f 362 356 361
f 363 357 362
f 364 358 363
f 365 359 364
f 225 224 365
f 219 226 345
f 345 228 346
f 220 345 347
f 346 231 348
f 347 346 349
f 221 347 350
f 348 235 351
f 349 348 352
f 350 349 353
f 222 350 354
f 351 240 355
f 352 351 356
f 353 352 357
f 354 353 358
f 223 354 359
f 355 246 360
f 356 355 361
f 357 356 362
f 358 357 363
f 359 358 364
f 224 359 365
f 247 36 254
f 366 254 256
f 248 247 366
f 367 256 259
f 368 366 367
f 249 248 368
f 369 259 263
f 370 367 369
f 371 368 370
f 250 249 371
f 372 263 268
f 373 369 372
f 374 370 373
f 375 371 374
f 251 250 375
f 376 268 274
f 377 372 376
f 378 373 377
f 379 374 378
f 380 375 379
f 252 251 380
f 381 274 281
f 382 376 381
f 383 377 382
f 384 378 383
f 385 379 384
f 386 380 385
f 253 252 386
f 247 254 366
f 366 256 367
f 248 366 368
f 367 259 369
f 368 367 370
f 249 368 371
f 369 263 372
f 370 369 373
f 371 370 374
f 250 371 375
f 372 268 376
f 373 372 377
f 374 373 378
f 375 374 379
f 251 375 380
f 376 274 381
f 377 376 382
f 378 377 383
f 379 378 384
f 380 379 385
f 252 380 386
f 389 387 388
f 391 388 390
f 392 389 391
f 394 390 393
f 395 391 394
f 396 392 395
f 398 393 397
f 399 394 398
f 400 395 399
f 401 396 400
f 403 397 402
f 404 398 403
f 405 399 404
f 406 400 405
f 407 401 406
f 409 402 408
f 410 403 409
f 411 404 410
f 412 405 411
f 413 406 412
f 414 407 413
f 302 408 281
f 301 409 302
f 300 410 301
f 299 411 300
f 298 412 299
f 297 413 298
f 169 414 297
f 389 388 391
f 391 390 394
f 392 391 395
f 394 393 398
f 395 394 399
f 396 395 400
f 398 397 403
f 399 398 404
f 400 399 405
f 401 400 406
f 403 402 409
f 404 403 410
f 405 404 411
f 406 405 412
f 407 406 413
f 409 408 302
f 410 409 301
f 411 410 300
f 412 411 299
f 413 412 298
f 414 413 297
f 388 387 415
f 417 415 416
f 390 388 417
f 419 416 418
f 420 417 419
f 393 390 420
f 422 418 421
f 423 419 422
f 424 420 423
f 397 393 424
f 426 421 425
f 427 422 426
f 428 423 427
f 429 424 428
f 402 397 429
f 431 425 430
f 432 426 431
f 433 427 432
f 434 428 433
f 435 429 434
f 408 402 435
f 386 430 253
f 385 431 386
f 384 432 385
f 383 433 384
f 382 434 383
f 381 435 382
f 281 408 381
f 388 415 417
f 417 416 419
f 390 417 420
f 419 418 422
f 420 419 423
f 393 420 424
f 422 421 426
f 423 422 427
f 424 423 428
f 397 424 429
f 426 425 431
f 427 426 432
f 428 427 433
f 429 428 434
f 402 429 435
f 431 430 386
f 432 431 385
f 433 432 384
f 434 433 383
f 435 434 382
f 408 435 381
f 415 387 436
f 438 436 437
f 416 415 438
f 440 437 439
f 441 438 440
f 418 416 441
f 443 439 442
f 444 440 443
f 445 441 444
f 421 418 445
f 447 442 446
f 448 443 447
f 449 444 448
f 450 445 449
f 425 421 450
f 452 446 451
f 453 447 452
f 454 448 453
f 455 449 454
f 456 450 455
f 430 425 456
f 365 451 225
f 364 452 365
f 363 453 364
f 362 454 363
f 361 455 362
f 360 456 361
f 253 430 360
f 415 436 438
f 438 437 440
f 416 438 441
f 440 439 443
f 441 440 444
f 418 441 445
f 443 442 447
f 444 443 448
f 445 444 449
f 421 445 450
f 447 446 452
f 448 447 453
f 449 448 454
f 450 449 455
f 425 450 456
f 452 451 365
f 453 452 364
f 454 453 363
f 455 454 362
f 456 455 361
f 430 456 360
f 436 387 457
f 459 457 458
f 437 436 459
f 461 458 460
f 462 459 461
f 439 437 462
f 464 460 463
f 465 461 464
f 466 462 465
f 442 439 466
f 468 463 467
f 469 464 468
f 470 465 469
f 471 466 470
f 446 442 471
f 473 467 472
f 474 468 473
f 475 469 474
f 476 470 475
f 477 471 476
f 451 446 477
f 344 472 197
f 343 473 344
f 342 474 343
f 341 475 342
f 340 476 341
f 339 477 340
f 225 451 339
f 436 457 459
f 459 458 461
f 437 459 462
f 461 460 464
f 462 461 465
f 439 462 466
f 464 463 468
f 465 464 469
f 466 465 470
f 442 466 471
f 468 467 473
f 469 468 474
f 470 469 475
f 471 470 476
f 446 471 477
f 473 472 344
f 474 473 343
f 475 474 342
f 476 475 341
f 477 476 340
f 451 477 339
f 457 387 389
f 478 389 392
f 458 457 478
f 479 392 396
f 480 478 479
f 460 458 480
f 481 396 401
f 482 479 481
f 483 480 482
f 463 460 483
f 484 401 407
f 485 481 484
f 486 482 485
f 487 483 486
f 467 463 487
f 488 407 414
f 489 484 488
f 490 485 489
f 491 486 490
f 492 487 491
f 472 467 492
f 323 414 169
f 322 488 323
f 321 489 322
f 320 490 321
f 319 491 320
f 318 492 319
f 197 472 318
f 457 389 478
f 478 392 479
f 458 478 480
f 479 396 481
f 480 479 482
f 460 480 483
f 481 401 484
f 482 481 485
f 483 482 486
f 463 483 487
f 484 407 488
f 485 484 489
f 486 485 490
f 487 486 491
f 467 487 492
f 488 414 323
f 489 488 322
f 490 489 321
f 491 490 320
f 492 491 319
f 472 492 318
