# File exported by Houdini 20.5.445 (www.sidefx.com)
# 492 points
# 2940 vertices
# 980 primitives
# Bounds: [-101.12674, -193.414978, -1133.54688] to [271.900665, 309.792084, -621.25415]
g 
v 123.563324 153.493317 -1055.83398
v 123.919708 185.759552 -1037.92505
v 141.309052 159.17215 -1031.32422
v 122.784332 214.507874 -1016.20593
v 141.806366 193.330536 -1007.75
v 157.994415 162.309021 -1003.45276
v 120.829193 240.002838 -992.483154
v 139.868378 222.298798 -981.13562
v 157.548126 197.226013 -975.17627
v 172.766022 162.346405 -971.923096
v 119.562103 261.944855 -967.189575
v 137.47348 246.797089 -953.272461
v 155.182953 225.265472 -944.485596
v 171.791412 196.433502 -940.119995
v 186.244598 157.752197 -936.911743
v 120.345856 279.981964 -940.897339
v 136.548309 267.21756 -925.119629
v 153.243622 248.123108 -913.295532
v 169.901154 222.402008 -906.301636
v 185.61264 189.495422 -902.761719
v 199.238922 148.388306 -899.016968
v 123.334198 293.84668 -914.094727
v 138.297333 283.351288 -896.559814
v 153.774567 266.532562 -882.332397
v 169.607147 242.735992 -872.022461
v 185.279572 212.553772 -866.380981
v 199.887726 176.777313 -862.924438
v 212.01651 135.397095 -858.926758
v 127.858124 303.375916 -887.168335
v 142.454254 295.055603 -867.411011
v 157.461029 280.389557 -850.47998
v 172.707794 258.497192 -837.214722
v 187.773956 229.89798 -828.489258
v 202.225616 196.566864 -823.503784
v 214.878143 160.02652 -820.314575
v 224.571747 120.835182 -817.727539
v 132.507782 121.127144 -1054.3158
v 151.453888 123.650642 -1028.25354
v 138.718475 84.3298187 -1046.87207
v 168.486298 123.368874 -998.564575
v 157.554291 84.4728241 -1018.47253
v 141.624908 43.9891434 -1032.67407
v 183.213531 119.873344 -964.873413
v 174.328278 81.4594574 -986.127075
v 159.903778 42.2812653 -1001.69897
v 141.506195 1.66357613 -1012.11707
v 196.84201 112.584343 -927.314331
v 189.334686 75.4140472 -949.793091
v 176.814667 37.1548042 -966.955078
v 159.74118 -1.66612244 -979.271118
v 139.236237 -40.3286514 -987.002319
v 210.08847 101.67971 -885.975708
v 203.769562 65.9893799 -909.171021
v 192.80191 28.7015419 -928.034058
v 177.461456 -9.0868454 -942.697266
v 158.518219 -46.035347 -953.137207
v 136.865509 -80.8463211 -959.4104
v 223.256256 88.3217163 -841.065063
v 218.251251 53.5208702 -863.580566
v 208.95578 16.8164406 -883.869507
v 195.271332 -20.4741783 -901.172363
v 177.536957 -56.4770126 -915.081055
v 156.5914 -89.4372482 -925.047241
v 134.080292 -117.723839 -931.260498
v 110.666779 127.460777 -1076.724
v 118.084991 89.325531 -1071.30371
v 97.3132019 99.7647934 -1091.44458
v 122.343719 48.0855408 -1058.78064
v 103.740326 57.412632 -1080.39661
v 84.0888977 70.8147736 -1099.55811
v 123.374298 5.07500458 -1039.65576
v 106.543915 13.2445259 -1062.41833
v 89.5647278 25.7016296 -1082.71704
v 70.5220642 41.6170158 -1101.25989
v 121.806183 -38.2706909 -1014.81079
v 106.062531 -31.4506149 -1038.57202
v 90.8076477 -20.3753586 -1059.74023
v 74.6576233 -5.2400856 -1079.41492
v 55.953949 12.8364906 -1097.21033
v 118.664642 -80.356163 -985.482422
v 103.040619 -75.6043396 -1009.43713
v 88.3882751 -66.4394302 -1031.3656
v 73.7306213 -52.8606033 -1051.99036
v 57.8624573 -35.1513901 -1071.427
v 39.820343 -15.3469429 -1088.22705
v 114.51474 -120.055916 -953.124023
v 97.8534241 -118.092201 -975.199463
v 82.8373718 -111.62426 -997.373291
v 68.1667786 -100.586281 -1019.15125
v 53.3814392 -84.4028854 -1040.2782
v 37.9104309 -64.3694077 -1059.66235
v 21.3738708 -42.6144028 -1075.48743
v 105.990082 166.017792 -1068.74585
v 91.5453796 139.289337 -1091.71338
v 89.2225647 175.177307 -1080.85803
v 77.6678162 111.629723 -1107.03577
v 74.141449 147.440674 -1104.43164
v 74.3760071 182.023224 -1092.19507
v 64.0348816 83.36409 -1114.65552
v 59.8261414 119.640343 -1118.70276
v 58.8818054 153.469574 -1114.69189
v 61.4095764 187.364838 -1102.65454
v 49.8728333 54.7792702 -1114.88074
v 45.3489075 91.6464996 -1124.15918
v 43.6254578 125.587746 -1126.59583
v 45.1058655 158.433105 -1122.87183
v 49.5845032 191.625122 -1112.20007
v 34.438446 25.5799599 -1108.24622
v 29.8667908 62.6519051 -1121.44458
v 27.629364 97.2640457 -1128.91113
v 28.3905334 130.476288 -1131.53357
v 32.0917664 163.026398 -1129.15417
v 38.4884949 194.705933 -1119.46997
v 16.4168396 -4.63131714 -1095.60437
v 11.9361877 31.9635429 -1110.93457
v 9.45455933 67.382431 -1122.04639
v 9.86917114 101.974892 -1129.60364
v 13.3309021 135.617706 -1133.54688
v 19.5519714 167.489624 -1132.04834
v 28.0175476 196.45517 -1122.18652
v 105.729584 198.414703 -1050.12952
v 89.893219 207.260315 -1062.02539
v 104.710602 226.60437 -1029.21619
v 76.5960388 213.810547 -1073.75647
v 90.2415466 234.799408 -1041.479
v 103.939423 251.095642 -1006.33167
v 64.9767761 218.602325 -1085.34827
v 78.4306946 240.545746 -1053.53174
v 91.0656433 258.347412 -1018.72583
v 104.394257 271.874146 -981.325439
v 54.1365662 221.347046 -1095.64819
v 67.9380188 244.015045 -1065.07178
v 80.4580383 263.010681 -1030.36414
v 92.8938293 278.128998 -993.14563
v 106.832977 288.738373 -954.369995
v 43.2858582 221.839325 -1102.53821
v 57.3712463 244.773926 -1074.57593
v 70.3026428 264.849213 -1040.66748
v 82.8750305 281.410614 -1003.1355
v 96.1846008 293.817383 -964.164917
v 111.16275 301.357239 -925.299316
v 121.501923 308.998047 -885.018799
v 102.844452 304.843842 -928.199219
v 112.994659 309.792084 -886.410156
v 86.8765564 294.898071 -970.713013
v 92.6878967 303.191498 -934.233154
v 102.073151 305.90567 -890.74231
v 72.7958069 280.177704 -1011.88025
v 76.0551453 290.872528 -979.130249
v 80.811554 297.076111 -941.448486
v 89.3474426 298.223541 -896.109741
v 59.0699158 261.51767 -1050.24072
v 61.181427 274.04245 -1020.73193
v 63.5242004 282.888031 -986.795532
v 67.4433289 287.718079 -947.276611
v 74.7673645 287.379944 -900.412964
v 44.5121155 239.154938 -1083.58459
v 45.9816589 253.150146 -1058.20032
v 47.4481506 264.109863 -1027.20435
v 49.0924377 271.968933 -991.158691
v 52.1322327 275.801086 -949.560425
v 58.5566101 274.479523 -902.118042
v 27.9729919 213.168701 -1109.3689
v 28.6490173 227.925446 -1089.15491
v 29.5978088 240.599274 -1061.97791
v 30.4892273 251.054199 -1028.59131
v 31.4903259 258.632233 -990.01001
v 34.3614197 262.052795 -947.013428
v 40.9006653 260.554077 -901.078979
v 11.5856628 180.490448 -1126.33276
v 1.19192505 146.911621 -1130.83594
v -5.88143921 164.173035 -1121.05298
v -6.04470825 111.144051 -1126.88318
v -17.4521179 126.069847 -1120.41943
v -24.2938538 146.628784 -1108.09229
v -9.81777954 73.9064026 -1118.37842
v -25.2164612 86.4873352 -1112.59595
v -36.4404602 104.304924 -1103.58838
v -43.0385437 127.953407 -1089.29285
v -10.1075745 35.9690094 -1107.1615
v -29.0932617 45.7811127 -1101.17578
v -44.3058167 61.3036995 -1093.03125
v -55.2267456 82.5864105 -1081.88696
v -61.1945496 109.789894 -1065.74121
v -7.18746948 -2.93113327 -1092.8208
v -29.1376038 3.95876503 -1087.0929
v -48.1128845 17.3514023 -1079.11011
v -62.9842529 37.05896 -1068.76123
v -73.0327759 62.918438 -1055.7384
v -77.2677917 93.3155746 -1038.56226
v -2.05203247 -43.5518723 -1073.62573
v -25.786438 -39.5619125 -1068.74561
v -47.9550476 -28.3931732 -1061.14111
v -66.6597595 -9.7937355 -1051.12878
v -80.4308167 15.5704899 -1039.25195
v -88.277771 45.7110558 -1025.47107
v -89.4188232 77.568161 -1008.97705
v 10.934845 -81.6412888 -1051.08618
v 28.1070251 -107.333672 -1030.35938
v -1.18075562 -116.038658 -1023.17664
v 44.3260803 -127.605537 -1007.27661
v 17.3293152 -142.073669 -998.425903
v -13.9273987 -142.050842 -991.456055
v 60.4101257 -141.370331 -983.591064
v 35.427887 -159.693787 -972.654419
v 6.69033813 -165.852753 -963.566162
v -25.7072449 -157.638245 -956.377686
v 76.7354431 -149.614471 -959.960083
v 53.6072083 -170.335571 -946.924072
v 27.275116 -180.133606 -935.683716
v -2.41409302 -178.016174 -926.176636
v -34.365448 -163.250214 -919.524292
v 95.0097351 -152.827728 -937.361572
v 73.582489 -175.441315 -922.249268
v 49.2547302 -187.723358 -908.671875
v 21.9390564 -189.101807 -896.983398
v -7.62747192 -180.041199 -888.039795
v -37.5077209 -160.941803 -883.259521
v 117.482269 -150.769836 -916.102417
v 98.5097961 -174.963776 -899.995117
v 76.3285217 -189.409546 -884.253174
v 50.9144592 -193.414978 -870.165283
v 22.9502869 -187.588593 -858.848267
v -5.68447876 -173.665894 -851.724609
v -32.469696 -152.875824 -849.788452
v 146.963165 -133.452637 -900.859985
v 173.185394 -103.118614 -890.919312
v 162.196014 -142.645782 -871.163696
v 195.361298 -68.1711655 -876.46936
v 190.393036 -109.737343 -857.733276
v 177.799042 -143.947754 -840.949097
v 212.425507 -30.486393 -858.447754
v 212.232635 -72.4926147 -839.182617
v 206.483673 -108.699593 -823.953247
v 192.181732 -136.750488 -809.478638
v 224.655426 8.50305748 -837.757202
v 227.99649 -32.5977859 -817.334106
v 227.378143 -69.0831223 -801.66333
v 220.231598 -99.3153915 -788.73999
v 204.031769 -120.647438 -776.804443
v 232.457977 47.6870956 -814.982666
v 238.898285 9.20646858 -793.002197
v 242.180206 -26.1230354 -775.898682
v 240.372955 -56.8472366 -762.943054
v 231.542633 -80.6497574 -752.438721
v 213.783295 -95.8144913 -744.207703
v 236.098969 86.6355591 -791.201294
v 245.505157 52.8272057 -767.128357
v 252.340363 20.5047646 -747.474121
v 254.95639 -9.0163269 -732.939941
v 251.424103 -33.7768097 -722.753662
v 240.306854 -52.1179123 -716.275879
v 221.607269 -63.8147659 -713.002686
v 231.914764 131.666046 -778.91748
v 220.839935 172.908173 -781.438904
v 238.946075 144.14624 -743.521362
v 207.321625 210.151184 -786.361328
v 226.457123 186.374054 -748.543701
v 245.192108 158.55838 -712.999939
v 192.48526 243.195526 -794.251343
v 211.893768 223.141235 -756.381653
v 230.947174 200.156128 -721.155518
v 249.31662 173.582916 -687.808838
v 176.786407 270.869019 -806.580933
v 195.959564 255.022614 -767.71167
v 214.692169 235.506714 -732.389893
v 232.766876 213.342957 -699.351013
v 249.333405 188.059601 -668.754028
v 160.151459 291.470245 -824.396606
v 178.438873 281.157379 -784.562317
v 196.570648 265.621704 -748.050659
v 213.971527 246.575958 -714.566467
v 230.103424 225.25824 -683.889465
v 243.704742 201.614258 -656.583618
v 142.605865 304.415894 -847.296021
v 158.701324 299.54422 -808.119019
v 175.449249 289.029999 -770.65741
v 191.994293 273.981934 -735.758484
v 207.462738 255.629242 -704.110107
v 221.152313 234.937073 -676.231018
v 231.015045 212.981445 -652.43042
v 136.174774 309.025177 -842.437988
v 126.852081 307.908783 -841.967041
v 151.578644 302.869995 -802.18396
v 114.87326 302.29895 -844.631714
v 141.249908 300.381165 -800.757935
v 167.240387 291.754608 -764.449158
v 100.301788 292.544159 -848.727539
v 127.790985 293.030121 -802.389038
v 155.672699 288.25238 -762.411621
v 182.455719 276.3815 -729.569153
v 83.0959167 279.285339 -852.559082
v 110.817841 280.711304 -805.732544
v 140.232758 278.626312 -763.36261
v 169.333588 271.418121 -727.042236
v 196.374359 257.054901 -697.854187
v 63.3519592 263.741852 -855.180542
v 90.1138 264.298126 -809.634888
v 119.973358 262.859009 -766.390625
v 150.97995 258.626068 -727.495361
v 180.875153 249.674683 -694.724792
v 207.832489 234.378296 -669.434631
v 10.3715515 198.466095 -1111.12512
v -7.90261841 183.90564 -1102.9353
v 10.4281921 213.803101 -1087.54602
v -26.7763977 168.063263 -1087.43433
v -8.25741577 200.019012 -1076.29553
v 10.884613 226.848358 -1056.77759
v -45.8795471 151.49707 -1066.03601
v -27.9026794 185.562744 -1058.10608
v -8.662323 213.767181 -1042.2489
v 11.0757751 237.77182 -1019.56409
v -64.1798706 135.067047 -1039.38586
v -47.817627 170.563873 -1033.61975
v -29.0272827 200.245728 -1020.55664
v -8.76870728 224.993683 -1001.1698
v 12.4059143 245.284698 -976.254517
v -79.3875427 117.520561 -1008.07703
v -65.6979065 153.440155 -1002.68225
v -48.3785095 184.533783 -991.442627
v -28.0439453 210.517975 -974.387573
v -5.69400024 231.285858 -952.382935
v 17.5014343 247.533783 -927.328613
v -16.3156128 -80.8729172 -1047.07947
v -31.0128479 -109.330315 -1017.43958
v -42.280426 -71.807457 -1040.11914
v -44.7706604 -127.830925 -984.667114
v -57.4647217 -93.0645676 -1009.23743
v -65.0093689 -54.0566406 -1030.72754
v -56.0015869 -136.744843 -948.874146
v -70.1064148 -104.458397 -975.832764
v -78.946228 -68.1086884 -998.951172
v -82.8357544 -28.2535248 -1019.25146
v -62.387146 -137.612335 -910.883667
v -78.811615 -107.779823 -938.932617
v -88.9043884 -73.206543 -964.303589
v -94.1245728 -35.4708862 -986.140747
v -94.2926331 4.34383583 -1005.83374
v -60.130127 -132.168243 -872.423584
v -80.1256409 -105.013969 -898.209595
v -92.6126709 -72.2342758 -924.392944
v -99.2344666 -35.6268539 -948.383911
v -101.12674 2.71161652 -969.638794
v -97.9287109 40.8971748 -989.51062
v 129.661285 -164.716949 -883.765869
v 143.643646 -169.251984 -853.589355
v 109.231598 -183.504211 -866.253174
v 157.723785 -164.435974 -823.993164
v 121.536896 -181.666321 -836.168823
v 85.297699 -190.94458 -850.002319
v 170.363068 -150.155579 -793.655884
v 133.771027 -170.245667 -807.440308
v 95.5758972 -182.372894 -820.389404
v 57.6554871 -187.724213 -835.936523
v 181.614288 -125.979118 -762.364319
v 145.285919 -148.613281 -778.40741
v 106.120575 -164.05545 -792.709717
v 65.8040466 -172.561188 -807.209351
v 27.4733582 -175.462585 -825.584595
v 191.79599 -92.1809921 -730.724365
v 156.52951 -116.024818 -748.405823
v 117.151276 -134.525665 -765.201233
v 75.1773376 -146.808563 -781.164856
v 33.8661804 -153.339294 -798.701294
v -2.9850769 -155.21228 -820.962769
v 245.737457 98.6891098 -749.096375
v 254.237396 113.371895 -713.017456
v 256.559174 68.09729 -724.481445
v 260.678009 130.059967 -683.294739
v 265.102142 85.9493561 -689.489807
v 263.341827 39.891468 -706.064087
v 263.227631 147.252014 -659.801208
v 270.060699 105.236626 -661.202271
v 270.350067 61.275898 -672.623596
v 264.289825 14.8185215 -693.469177
v 259.719879 164.998993 -643.168213
v 269.181671 125.679985 -639.648254
v 271.900665 83.7904053 -646.051758
v 267.824127 39.5875893 -662.06781
v 257.183136 -6.11963654 -686.264221
v 247.435211 182.205048 -635.26947
v 259.241913 147.234131 -626.628235
v 264.797699 108.155846 -627.694092
v 263.265045 65.8288574 -638.665527
v 254.82663 21.8114128 -658.295715
v 240.492401 -22.0193329 -684.10614
v 59.2261047 84.3742828 -757.632874
v 94.4585876 110.443932 -724.26532
v 47.2401428 117.260323 -769.0401
v 127.924225 136.050446 -692.775757
v 82.1643982 144.457489 -734.916992
v 36.6075134 148.73703 -782.451355
v 158.739838 159.309082 -666.463074
v 114.867523 169.600433 -705.372131
v 71.9287415 174.609772 -749.334229
v 30.0885315 178.664032 -798.761963
v 185.765472 178.712097 -648.511536
v 145.044281 191.518463 -682.761475
v 104.556732 197.714691 -723.349182
v 65.5938416 201.818512 -768.279907
v 28.5475769 205.992249 -818.997803
v 207.56424 193.614899 -640.702148
v 171.734161 209.625671 -669.006592
v 134.483185 217.838165 -705.285522
v 97.7691956 222.408386 -746.593262
v 62.9959412 226.108398 -792.335815
v 31.0072937 229.225159 -843.384766
v 222.767548 204.553162 -642.593994
v 193.262665 223.815125 -664.683472
v 160.616913 235.127563 -695.66333
v 126.7117 241.127563 -733.015381
v 93.5547791 244.606018 -775.168457
v 62.7489319 246.902283 -821.44873
v 35.558136 247.320923 -871.212402
v 92.594635 66.2722321 -729.011963
v 123.53775 46.3752632 -706.963501
v 132.835541 94.3994522 -693.242981
v 150.793549 24.0592041 -692.539795
v 165.555878 75.1078186 -672.213318
v 167.799896 119.955696 -662.551331
v 174.410553 0.329826355 -685.696838
v 192.381073 52.3835564 -660.849121
v 199.71817 99.4041977 -644.962097
v 197.35672 141.492737 -639.921875
v 194.086334 -23.5052528 -687.016357
v 213.757294 27.3640404 -658.87262
v 224.668243 75.0906067 -638.42981
v 226.95578 118.858528 -627.525269
v 221.06369 158.356567 -627.674805
v 209.855194 -45.5403214 -696.458374
v 229.737091 1.7088089 -666.655029
v 243.068207 48.4256859 -642.683655
v 248.988861 92.9605713 -626.978821
v 247.189484 134.136444 -621.25415
v 238.058319 171.342407 -626.348328
v 42.6167908 46.5837669 -771.563843
v 22.5769958 7.49337006 -784.816833
v 73.9549255 22.1273193 -745.44397
v 0.308258057 -31.3273621 -796.651123
v 52.0749817 -20.9499474 -760.85968
v 102.296906 -2.40486908 -727.240356
v -19.9251099 -67.8415375 -807.208862
v 29.806488 -61.1457214 -774.166199
v 79.9429016 -47.3714142 -745.363159
v 128.197479 -26.9610672 -716.457031
v -33.570282 -100.708839 -818.548096
v 10.9559631 -97.3093948 -786.99762
v 58.8902893 -87.7504501 -761.654236
v 106.479889 -72.3866043 -738.065125
v 151.734711 -50.9154587 -713.165161
v -37.7179871 -129.152924 -832.476074
v -0.624908447 -128.690674 -801.885254
v 42.6184387 -123.122398 -778.392517
v 87.9839783 -112.275551 -758.583435
v 132.097992 -95.5998459 -738.836853
v 173.072113 -73.1518021 -717.822327
v 17.5369568 81.0241241 -796.865479
v -19.9779358 81.3155975 -834.596558
v -2.09310913 41.8999062 -811.108521
v -50.8247986 84.4396515 -870.931274
v -39.6105652 41.3613853 -847.675171
v -23.1730042 3.2341671 -823.251343
v -73.2195129 87.9605408 -906.745361
v -68.5502625 43.5707092 -882.890625
v -58.8723755 2.93995285 -859.233276
v -44.2236938 -34.2584572 -833.950073
v -86.494751 88.9691772 -942.332153
v -87.9065247 45.7816162 -918.260132
v -83.9812012 4.43020439 -894.972168
v -75.4459839 -34.3408852 -870.442383
v -59.8440552 -69.7340317 -844.314087
v -91.3149719 85.53479 -977.013672
v -97.4699707 45.4882507 -954.238525
v -98.0496521 5.13145065 -931.931641
v -93.7247925 -34.074585 -908.291626
v -83.7576599 -70.4727707 -882.707031
v -65.8088379 -102.576271 -856.578491
v 4.98526001 117.779442 -812.938232
v -3.12667847 152.272339 -830.047974
v -29.4884644 121.876991 -854.129639
v -5.00375366 183.834656 -849.464111
v -32.6934814 158.096954 -874.672485
v -55.1175232 126.866783 -893.666992
v -1.00216675 210.952118 -872.144043
v -28.9866638 189.126038 -897.473389
v -52.5473328 162.321594 -917.795898
v -71.5724487 129.363831 -932.523438
v 7.14859009 232.240204 -898.241455
v -19.4200439 213.701447 -923.30249
v -43.2013245 190.348602 -944.448242
v -63.2849121 161.40802 -960.376587
v -79.2875671 126.580147 -970.942017
g 
f 3 1 2
f 5 2 4
f 6 3 5
f 8 4 7
f 9 5 8
f 10 6 9
f 12 7 11
f 13 8 12
f 14 9 13
f 15 10 14
f 17 11 16
f 18 12 17
f 19 13 18
f 20 14 19
f 21 15 20
f 23 16 22
f 24 17 23
f 25 18 24
f 26 19 25
f 27 20 26
f 28 21 27
f 30 22 29
f 31 23 30
f 32 24 31
f 33 25 32
f 34 26 33
f 35 27 34
f 36 28 35
f 3 2 5
f 5 4 8
f 6 5 9
f 8 7 12
f 9 8 13
f 10 9 14
f 12 11 17
f 13 12 18
f 14 13 19
f 15 14 20
f 17 16 23
f 18 17 24
f 19 18 25
f 20 19 26
f 21 20 27
f 23 22 30
f 24 23 31
f 25 24 32
f 26 25 33
f 27 26 34
f 28 27 35
f 37 1 3
f 38 3 6
f 39 37 38
f 40 6 10
f 41 38 40
f 42 39 41
f 43 10 15
f 44 40 43
f 45 41 44
f 46 42 45
f 47 15 21
f 48 43 47
f 49 44 48
f 50 45 49
f 51 46 50
f 52 21 28
f 53 47 52
f 54 48 53
f 55 49 54
f 56 50 55
f 57 51 56
f 58 28 36
f 59 52 58
f 60 53 59
f 61 54 60
f 62 55 61
f 63 56 62
f 64 57 63
f 37 3 38
f 38 6 40
f 39 38 41
f 40 10 43
f 41 40 44
f 42 41 45
f 43 15 47
f 44 43 48
f 45 44 49
f 46 45 50
f 47 21 52
f 48 47 53
f 49 48 54
f 50 49 55
f 51 50 56
f 52 28 58
f 53 52 59
f 54 53 60
f 55 54 61
f 56 55 62
f 57 56 63
f 65 1 37
f 66 37 39
f 67 65 66
f 68 39 42
f 69 66 68
f 70 67 69
f 71 42 46
f 72 68 71
f 73 69 72
f 74 70 73
f 75 46 51
f 76 71 75
f 77 72 76
f 78 73 77
f 79 74 78
f 80 51 57
f 81 75 80
f 82 76 81
f 83 77 82
f 84 78 83
f 85 79 84
f 86 57 64
f 87 80 86
f 88 81 87
f 89 82 88
f 90 83 89
f 91 84 90
f 92 85 91
f 65 37 66
f 66 39 68
f 67 66 69
f 68 42 71
f 69 68 72
f 70 69 73
f 71 46 75
f 72 71 76
f 73 72 77
f 74 73 78
f 75 51 80
f 76 75 81
f 77 76 82
f 78 77 83
f 79 78 84
f 80 57 86
f 81 80 87
f 82 81 88
f 83 82 89
f 84 83 90
f 85 84 91
f 93 1 65
f 94 65 67
f 95 93 94
f 96 67 70
f 97 94 96
f 98 95 97
f 99 70 74
f 100 96 99
f 101 97 100
f 102 98 101
f 103 74 79
f 104 99 103
f 105 100 104
f 106 101 105
f 107 102 106
f 108 79 85
f 109 103 108
f 110 104 109
f 111 105 110
f 112 106 111
f 113 107 112
f 114 85 92
f 115 108 114
f 116 109 115
f 117 110 116
f 118 111 117
f 119 112 118
f 120 113 119
f 93 65 94
f 94 67 96
f 95 94 97
f 96 70 99
f 97 96 100
f 98 97 101
f 99 74 103
f 100 99 104
f 101 100 105
f 102 101 106
f 103 79 108
f 104 103 109
f 105 104 110
f 106 105 111
f 107 106 112
f 108 85 114
f 109 108 115
f 110 109 116
f 111 110 117
f 112 111 118
f 113 112 119
f 2 1 93
f 121 93 95
f 4 2 121
f 122 95 98
f 123 121 122
f 7 4 123
f 124 98 102
f 125 122 124
f 126 123 125
f 11 7 126
f 127 102 107
f 128 124 127
f 129 125 128
f 130 126 129
f 16 11 130
f 131 107 113
f 132 127 131
f 133 128 132
f 134 129 133
f 135 130 134
f 22 16 135
f 136 113 120
f 137 131 136
f 138 132 137
f 139 133 138
f 140 134 139
f 141 135 140
f 29 22 141
f 2 93 121
f 121 95 122
f 4 121 123
f 122 98 124
f 123 122 125
f 7 123 126
f 124 102 127
f 125 124 128
f 126 125 129
f 11 126 130
f 127 107 131
f 128 127 132
f 129 128 133
f 130 129 134
f 16 130 135
f 131 113 136
f 132 131 137
f 133 132 138
f 134 133 139
f 135 134 140
f 22 135 141
f 142 29 141
f 143 141 140
f 144 142 143
f 145 140 139
f 146 143 145
f 147 144 146
f 148 139 138
f 149 145 148
f 150 146 149
f 151 147 150
f 152 138 137
f 153 148 152
f 154 149 153
f 155 150 154
f 156 151 155
f 157 137 136
f 158 152 157
f 159 153 158
f 160 154 159
f 161 155 160
f 162 156 161
f 163 136 120
f 164 157 163
f 165 158 164
f 166 159 165
f 167 160 166
f 168 161 167
f 169 162 168
f 142 141 143
f 143 140 145
f 144 143 146
f 145 139 148
f 146 145 149
f 147 146 150
f 148 138 152
f 149 148 153
f 150 149 154
f 151 150 155
f 152 137 157
f 153 152 158
f 154 153 159
f 155 154 160
f 156 155 161
f 157 136 163
f 158 157 164
f 159 158 165
f 160 159 166
f 161 160 167
f 162 161 168
f 170 120 119
f 171 119 118
f 172 170 171
f 173 118 117
f 174 171 173
f 175 172 174
f 176 117 116
f 177 173 176
f 178 174 177
f 179 175 178
f 180 116 115
f 181 176 180
f 182 177 181
f 183 178 182
f 184 179 183
f 185 115 114
f 186 180 185
f 187 181 186
f 188 182 187
f 189 183 188
f 190 184 189
f 191 114 92
f 192 185 191
f 193 186 192
f 194 187 193
f 195 188 194
f 196 189 195
f 197 190 196
f 170 119 171
f 171 118 173
f 172 171 174
f 173 117 176
f 174 173 177
f 175 174 178
f 176 116 180
f 177 176 181
f 178 177 182
f 179 178 183
f 180 115 185
f 181 180 186
f 182 181 187
f 183 182 188
f 184 183 189
f 185 114 191
f 186 185 192
f 187 186 193
f 188 187 194
f 189 188 195
f 190 189 196
f 198 92 91
f 199 91 90
f 200 198 199
f 201 90 89
f 202 199 201
f 203 200 202
f 204 89 88
f 205 201 204
f 206 202 205
f 207 203 206
f 208 88 87
f 209 204 208
f 210 205 209
f 211 206 210
f 212 207 211
f 213 87 86
f 214 208 213
f 215 209 214
f 216 210 215
f 217 211 216
f 218 212 217
f 219 86 64
f 220 213 219
f 221 214 220
f 222 215 221
f 223 216 222
f 224 217 223
f 225 218 224
f 198 91 199
f 199 90 201
f 200 199 202
f 201 89 204
f 202 201 205
f 203 202 206
f 204 88 208
f 205 204 209
f 206 205 210
f 207 206 211
f 208 87 213
f 209 208 214
f 210 209 215
f 211 210 216
f 212 211 217
f 213 86 219
f 214 213 220
f 215 214 221
f 216 215 222
f 217 216 223
f 218 217 224
f 226 64 63
f 227 63 62
f 228 226 227
f 229 62 61
f 230 227 229
f 231 228 230
f 232 61 60
f 233 229 232
f 234 230 233
f 235 231 234
f 236 60 59
f 237 232 236
f 238 233 237
f 239 234 238
f 240 235 239
f 241 59 58
f 242 236 241
f 243 237 242
f 244 238 243
f 245 239 244
f 246 240 245
f 247 58 36
f 248 241 247
f 249 242 248
f 250 243 249
f 251 244 250
f 252 245 251
f 253 246 252
f 226 63 227
f 227 62 229
f 228 227 230
f 229 61 232
f 230 229 233
f 231 230 234
f 232 60 236
f 233 232 237
f 234 233 238
f 235 234 239
f 236 59 241
f 237 236 242
f 238 237 243
f 239 238 244
f 240 239 245
f 241 58 247
f 242 241 248
f 243 242 249
f 244 243 250
f 245 244 251
f 246 245 252
f 254 36 35
f 255 35 34
f 256 254 255
f 257 34 33
f 258 255 257
f 259 256 258
f 260 33 32
f 261 257 260
f 262 258 261
f 263 259 262
f 264 32 31
f 265 260 264
f 266 261 265
f 267 262 266
f 268 263 267
f 269 31 30
f 270 264 269
f 271 265 270
f 272 266 271
f 273 267 272
f 274 268 273
f 275 30 29
f 276 269 275
f 277 270 276
f 278 271 277
f 279 272 278
f 280 273 279
f 281 274 280
f 254 35 255
f 255 34 257
f 256 255 258
f 257 33 260
f 258 257 261
f 259 258 262
f 260 32 264
f 261 260 265
f 262 261 266
f 263 262 267
f 264 31 269
f 265 264 270
f 266 265 271
f 267 266 272
f 268 267 273
f 269 30 275
f 270 269 276
f 271 270 277
f 272 271 278
f 273 272 279
f 274 273 280
f 275 29 142
f 282 142 144
f 276 275 282
f 283 144 147
f 284 282 283
f 277 276 284
f 285 147 151
f 286 283 285
f 287 284 286
f 278 277 287
f 288 151 156
f 289 285 288
f 290 286 289
f 291 287 290
f 279 278 291
f 292 156 162
f 293 288 292
f 294 289 293
f 295 290 294
f 296 291 295
f 280 279 296
f 297 162 169
f 298 292 297
f 299 293 298
f 300 294 299
f 301 295 300
f 302 296 301
f 281 280 302
f 275 142 282
f 282 144 283
f 276 282 284
f 283 147 285
f 284 283 286
f 277 284 287
f 285 151 288
f 286 285 289
f 287 286 290
f 278 287 291
f 288 156 292
f 289 288 293
f 290 289 294
f 291 290 295
f 279 291 296
f 292 162 297
f 293 292 298
f 294 293 299
f 295 294 300
f 296 295 301
f 280 296 302
f 163 120 170
f 303 170 172
f 164 163 303
f 304 172 175
f 305 303 304
f 165 164 305
f 306 175 179
f 307 304 306
f 308 305 307
f 166 165 308
f 309 179 184
f 310 306 309
f 311 307 310
f 312 308 311
f 167 166 312
f 313 184 190
f 314 309 313
f 315 310 314
f 316 311 315
f 317 312 316
f 168 167 317
f 318 190 197
f 319 313 318
f 320 314 319
f 321 315 320
f 322 316 321
f 323 317 322
f 169 168 323
f 163 170 303
f 303 172 304
f 164 303 305
f 304 175 306
f 305 304 307
f 165 305 308
f 306 179 309
f 307 306 310
f 308 307 311
f 166 308 312
f 309 184 313
f 310 309 314
f 311 310 315
f 312 311 316
f 167 312 317
f 313 190 318
f 314 313 319
f 315 314 320
f 316 315 321
f 317 316 322
f 168 317 323
f 191 92 198
f 324 198 200
f 192 191 324
f 325 200 203
f 326 324 325
f 193 192 326
f 327 203 207
f 328 325 327
f 329 326 328
f 194 193 329
f 330 207 212
f 331 327 330
f 332 328 331
f 333 329 332
f 195 194 333
f 334 212 218
f 335 330 334
f 336 331 335
f 337 332 336
f 338 333 337
f 196 195 338
f 339 218 225
f 340 334 339
f 341 335 340
f 342 336 341
f 343 337 342
f 344 338 343
f 197 196 344
f 191 198 324
f 324 200 325
f 192 324 326
f 325 203 327
f 326 325 328
f 193 326 329
f 327 207 330
f 328 327 331
f 329 328 332
f 194 329 333
f 330 212 334
f 331 330 335
f 332 331 336
f 333 332 337
f 195 333 338
f 334 218 339
f 335 334 340
f 336 335 341
f 337 336 342
f 338 337 343
f 196 338 344
f 219 64 226
f 345 226 228
f 220 219 345
f 346 228 231
f 347 345 346
f 221 220 347
f 348 231 235
f 349 346 348
f 350 347 349
f 222 221 350
f 351 235 240
f 352 348 351
f 353 349 352
f 354 350 353
f 223 222 354
f 355 240 246
f 356 351 355
f 357 352 356
f 358 353 357
f 359 354 358
f 224 223 359
f 360 246 253
f 361 355 360
f 362 356 361
f 363 357 362
f 364 358 363
f 365 359 364
f 225 224 365
f 219 226 345
f 345 228 346
f 220 345 347
f 346 231 348
f 347 346 349
f 221 347 350
f 348 235 351
f 349 348 352
f 350 349 353
f 222 350 354
f 351 240 355
f 352 351 356
f 353 352 357
f 354 353 358
f 223 354 359
f 355 246 360
f 356 355 361
f 357 356 362
f 358 357 363
f 359 358 364
f 224 359 365
f 247 36 254
f 366 254 256
f 248 247 366
f 367 256 259
f 368 366 367
f 249 248 368
f 369 259 263
f 370 367 369
f 371 368 370
f 250 249 371
f 372 263 268
f 373 369 372
f 374 370 373
f 375 371 374
f 251 250 375
f 376 268 274
f 377 372 376
f 378 373 377
f 379 374 378
f 380 375 379
f 252 251 380
f 381 274 281
f 382 376 381
f 383 377 382
f 384 378 383
f 385 379 384
f 386 380 385
f 253 252 386
f 247 254 366
f 366 256 367
f 248 366 368
f 367 259 369
f 368 367 370
f 249 368 371
f 369 263 372
f 370 369 373
f 371 370 374
f 250 371 375
f 372 268 376
f 373 372 377
f 374 373 378
f 375 374 379
f 251 375 380
f 376 274 381
f 377 376 382
f 378 377 383
f 379 378 384
f 380 379 385
f 252 380 386
f 389 387 388
f 391 388 390
f 392 389 391
f 394 390 393
f 395 391 394
f 396 392 395
f 398 393 397
f 399 394 398
f 400 395 399
f 401 396 400
f 403 397 402
f 404 398 403
f 405 399 404
f 406 400 405
f 407 401 406
f 409 402 408
f 410 403 409
f 411 404 410
f 412 405 411
f 413 406 412
f 414 407 413
f 302 408 281
f 301 409 302
f 300 410 301
f 299 411 300
f 298 412 299
f 297 413 298
f 169 414 297
f 389 388 391
f 391 390 394
f 392 391 395
f 394 393 398
f 395 394 399
f 396 395 400
f 398 397 403
f 399 398 404
f 400 399 405
f 401 400 406
f 403 402 409
f 404 403 410
f 405 404 411
f 406 405 412
f 407 406 413
f 409 408 302
f 410 409 301
f 411 410 300
f 412 411 299
f 413 412 298
f 414 413 297
f 388 387 415
f 417 415 416
f 390 388 417
f 419 416 418
f 420 417 419
f 393 390 420
f 422 418 421
f 423 419 422
f 424 420 423
f 397 393 424
f 426 421 425
f 427 422 426
f 428 423 427
f 429 424 428
f 402 397 429
f 431 425 430
f 432 426 431
f 433 427 432
f 434 428 433
f 435 429 434
f 408 402 435
f 386 430 253
f 385 431 386
f 384 432 385
f 383 433 384
f 382 434 383
f 381 435 382
f 281 408 381
f 388 415 417
f 417 416 419
f 390 417 420
f 419 418 422
f 420 419 423
f 393 420 424
f 422 421 426
f 423 422 427
f 424 423 428
f 397 424 429
f 426 425 431
f 427 426 432
f 428 427 433
f 429 428 434
f 402 429 435
f 431 430 386
f 432 431 385
f 433 432 384
f 434 433 383
f 435 434 382
f 408 435 381
f 415 387 436
f 438 436 437
f 416 415 438
f 440 437 439
f 441 438 440
f 418 416 441
f 443 439 442
f 444 440 443
f 445 441 444
f 421 418 445
f 447 442 446
f 448 443 447
f 449 444 448
f 450 445 449
f 425 421 450
f 452 446 451
f 453 447 452
f 454 448 453
f 455 449 454
f 456 450 455
f 430 425 456
f 365 451 225
f 364 452 365
f 363 453 364
f 362 454 363
f 361 455 362
f 360 456 361
f 253 430 360
f 415 436 438
f 438 437 440
f 416 438 441
f 440 439 443
f 441 440 444
f 418 441 445
f 443 442 447
f 444 443 448
f 445 444 449
f 421 445 450
f 447 446 452
f 448 447 453
f 449 448 454
f 450 449 455
f 425 450 456
f 452 451 365
f 453 452 364
f 454 453 363
f 455 454 362
f 456 455 361
f 430 456 360
f 436 387 457
f 459 457 458
f 437 436 459
f 461 458 460
f 462 459 461
f 439 437 462
f 464 460 463
f 465 461 464
f 466 462 465
f 442 439 466
f 468 463 467
f 469 464 468
f 470 465 469
f 471 466 470
f 446 442 471
f 473 467 472
f 474 468 473
f 475 469 474
f 476 470 475
f 477 471 476
f 451 446 477
f 344 472 197
f 343 473 344
f 342 474 343
f 341 475 342
f 340 476 341
f 339 477 340
f 225 451 339
f 436 457 459
f 459 458 461
f 437 459 462
f 461 460 464
f 462 461 465
f 439 462 466
f 464 463 468
f 465 464 469
f 466 465 470
f 442 466 471
f 468 467 473
f 469 468 474
f 470 469 475
f 471 470 476
f 446 471 477
f 473 472 344
f 474 473 343
f 475 474 342
f 476 475 341
f 477 476 340
f 451 477 339
f 457 387 389
f 478 389 392
f 458 457 478
f 479 392 396
f 480 478 479
f 460 458 480
f 481 396 401
f 482 479 481
f 483 480 482
f 463 460 483
f 484 401 407
f 485 481 484
f 486 482 485
f 487 483 486
f 467 463 487
f 488 407 414
f 489 484 488
f 490 485 489
f 491 486 490
f 492 487 491
f 472 467 492
f 323 414 169
f 322 488 323
f 321 489 322
f 320 490 321
f 319 491 320
f 318 492 319
f 197 472 318
f 457 389 478
f 478 392 479
f 458 478 480
f 479 396 481
f 480 479 482
f 460 480 483
f 481 401 484
f 482 481 485
f 483 482 486
f 463 483 487
f 484 407 488
f 485 484 489
f 486 485 490
f 487 486 491
f 467 487 492
f 488 414 323
f 489 488 322
f 490 489 321
f 491 490 320
f 492 491 319
f 472 492 318
