# File exported by Houdini 20.5.445 (www.sidefx.com)
# 492 points
# 2940 vertices
# 980 primitives
# Bounds: [-143.845871, -125.73391, -1117.85229] to [314.619781, 242.111023, -636.948853]
g 
v 177.757721 111.804855 -1109.02637
v 175.814117 131.259583 -1111.76099
v 206.816071 120.142632 -1115.46753
v 174.599823 149.44928 -1107.16406
v 207.549286 139.868729 -1117.85229
v 234.168976 127.296326 -1117.15332
v 172.259308 167.164154 -1094.7229
v 207.459503 157.308807 -1111.59717
v 235.621002 147.626007 -1117.09912
v 258.513153 134.311172 -1113.15942
v 167.146149 183.85434 -1076.5459
v 204.85495 173.413971 -1096.97241
v 234.78891 164.601196 -1107.68652
v 259.527924 155.414688 -1109.25586
v 279.062592 140.858795 -1103.34888
v 157.746063 198.988556 -1055.68384
v 198.348663 188.447815 -1076.40161
v 230.453644 179.581604 -1090.1543
v 257.118683 172.021973 -1096.12109
v 279.080658 162.447784 -1094.91968
v 295.338959 145.703674 -1088.20361
v 143.705841 212.694489 -1033.13599
v 185.808685 202.367462 -1052.32764
v 220.989227 193.347839 -1066.54346
v 250.116486 186.01947 -1075.06738
v 274.454193 178.525146 -1077.58789
v 293.666229 167.062195 -1074.87036
v 306.569611 147.654831 -1068.41504
v 126.191132 224.768341 -1007.88776
v 166.220734 215.246063 -1024.81909
v 202.959686 206.143677 -1038.11987
v 235.461029 198.492157 -1047.05127
v 262.918365 191.349304 -1051.7168
v 285.216156 182.115662 -1052.31958
v 301.605804 167.672211 -1049.58765
v 311.476532 146.210739 -1044.68115
v 196.905243 95.5718765 -1104.2146
v 226.255646 102.839775 -1108.5083
v 212.264435 74.8108139 -1093.39453
v 252.158112 108.649879 -1108.15503
v 240.016083 80.3675766 -1096.48706
v 223.202362 48.4971619 -1078.5896
v 274.036957 113.954613 -1102.65869
v 263.528656 84.2665634 -1095.13257
v 248.74472 52.1926117 -1081.39233
v 230.650421 17.8790245 -1060.87842
v 291.930939 118.26992 -1091.85938
v 282.925751 87.4623413 -1088.74536
v 269.954742 54.3035355 -1079.24512
v 254.057587 20.1874428 -1063.15454
v 236.304108 -13.6298065 -1039.86646
v 305.568207 120.656967 -1075.49219
v 298.538849 89.5109253 -1076.52832
v 287.313995 55.6536026 -1071.16357
v 273.381073 21.035635 -1059.02979
v 257.954132 -12.1166191 -1040.01172
v 241.933929 -42.140976 -1014.50665
v 313.773285 120.29818 -1053.09766
v 309.753571 89.5454636 -1057.09448
v 300.974701 55.5741806 -1055.25513
v 289.13797 20.7854061 -1046.59155
v 275.852936 -12.1447678 -1030.96704
v 262.225677 -41.1569061 -1009.47504
v 248.765778 -65.3738785 -984.203796
v 162.433929 90.7492981 -1098.71558
v 182.157806 69.8039093 -1089.78735
v 149.74295 64.7589645 -1086.14209
v 196.516571 44.2313919 -1074.75073
v 169.623444 40.1111755 -1072.69775
v 138.414612 34.4979973 -1070.89404
v 206.456146 14.3941278 -1055.92822
v 183.099213 11.59972 -1053.11401
v 157.861847 7.78353882 -1052.45703
v 127.143677 1.81415367 -1052.02295
v 213.954315 -17.3728485 -1034.05981
v 192.597931 -19.4611092 -1029.71631
v 170.677032 -21.6940117 -1027.92944
v 145.778442 -25.2042885 -1028.43237
v 114.8172 -30.383194 -1029.12329
v 221.208649 -47.5692062 -1008.39899
v 200.962311 -50.5638199 -1002.79572
v 180.541718 -52.3930359 -999.243591
v 158.405731 -54.0564651 -998.652527
v 132.506897 -56.1911316 -1000.59064
v 101.162323 -59.1933136 -1002.55597
v 230.173309 -73.182251 -977.656921
v 210.876007 -78.468895 -971.088806
v 190.944794 -81.5776291 -965.901306
v 169.540253 -82.8170166 -963.62616
v 145.489166 -82.8592987 -965.070374
v 118.062836 -82.6244431 -969.17157
v 87.1767273 -82.5464935 -973.070984
v 146.039978 113.833649 -1101.25049
v 128.481964 88.5204086 -1091.07495
v 112.825592 113.240211 -1087.06348
v 114.891296 58.5543823 -1079.32471
v 93.6627197 82.3903275 -1077.39453
v 78.3020935 109.161079 -1067.67725
v 103.056366 25.4632301 -1064.68213
v 79.0848389 48.311821 -1065.97949
v 57.8972168 73.0928955 -1058.2854
v 42.3822327 101.287247 -1045.51733
v 91.1775818 -8.66495895 -1045.71753
v 66.353302 12.9413624 -1050.84961
v 42.0887451 36.1035461 -1046.27124
v 21.1238098 61.587944 -1035.51465
v 5.66583252 90.17276 -1023.11224
v 77.7192078 -41.156456 -1021.59967
v 52.9292297 -22.1718063 -1030.4353
v 27.3905029 -1.11562729 -1029.62378
v 3.22433472 22.2706165 -1022.03131
v -16.8095093 48.1625443 -1011.71051
v -30.7378845 77.3960266 -1001.77057
v 62.7073669 -69.6129684 -991.867981
v 37.1582642 -54.9898376 -1003.19427
v 10.852478 -37.3859406 -1005.98785
v -14.9692078 -16.6775513 -1002.24725
v -37.7939453 7.26674652 -995.239075
v -54.7568054 34.6463699 -987.777527
v -65.0420837 65.1343384 -981.336365
v 141.14505 135.897491 -1097.6521
v 106.03183 138.079895 -1077.16724
v 137.549347 156.594833 -1086.55835
v 69.3269043 135.777359 -1053.94629
v 99.5533752 160.440063 -1062.00562
v 132.058685 175.967834 -1069.85107
v 30.5513916 128.481171 -1030.97046
v 59.1441345 158.905853 -1037.84717
v 90.0142517 180.656708 -1044.11401
v 123.101959 193.541687 -1050.48779
v -9.22891235 117.358932 -1009.17584
v 16.8052979 152.557983 -1015.3692
v 45.9389648 180.544373 -1020.17279
v 77.4706421 199.687134 -1024.64062
v 110.617676 209.765778 -1029.4519
v -48.4872742 104.301529 -987.954895
v -26.5672913 142.49794 -993.534241
v -0.222381592 176.112183 -997.37323
v 29.7858582 201.982697 -999.832092
v 62.1727295 218.064606 -1002.18292
v 95.0047607 224.773041 -1005.28131
v 88.036438 235.62146 -979.41156
v 52.003418 233.68335 -977.17511
v 49.1505737 242.111023 -950.741272
v 16.8873596 221.564178 -976.768494
v 11.0792847 235.605835 -951.673767
v 11.4458008 241.738464 -923.644165
v -15.5263062 198.221375 -977.124451
v -23.8877563 216.675079 -954.724182
v -26.4483337 229.058594 -928.93103
v -23.1786194 232.48111 -899.81958
v -44.0563965 165.106293 -976.15387
v -54.8615112 186.361725 -957.190613
v -59.8265381 203.408661 -934.920654
v -59.3912659 213.478638 -909.10498
v -52.4168396 214.015656 -879.762085
v -68.0563049 124.710686 -972.560974
v -81.4859924 146.586288 -956.793274
v -88.6958923 166.666595 -938.378784
v -90.2348633 181.86377 -916.650757
v -85.6263123 189.392914 -891.312012
v -74.147583 188.077728 -862.531128
v -86.9393311 80.1856842 -966.244446
v -103.301453 99.447525 -952.197571
v -113.192795 120.121544 -937.092896
v -116.374237 138.71106 -919.346802
v -113.064713 152.054962 -898.348877
v -103.218475 158.24765 -873.832153
v -87.7019958 157.669312 -846.385132
v -90.5933838 34.7062302 -964.31427
v -77.3167114 0.524965286 -968.863953
v -109.841064 6.98638916 -945.792603
v -56.8711243 -27.5639191 -973.620056
v -92.6486206 -27.9315414 -948.036499
v -121.55899 -15.9360809 -925.037476
v -31.2447205 -49.9443283 -977.273254
v -68.8024902 -54.4797134 -949.993652
v -100.326599 -49.2873535 -924.901123
v -124.2388 -32.8449631 -901.955688
v -2.91833496 -67.7528381 -977.187195
v -40.2581482 -74.2288971 -950.267944
v -73.0392456 -73.2724609 -924.052734
v -99.1768494 -63.2968063 -899.653931
v -117.02449 -44.6791611 -876.938599
v 26.8110657 -81.7700882 -970.2724
v -8.17022705 -88.7947083 -945.782593
v -40.4487 -90.074173 -920.244751
v -67.7256775 -84.4001236 -895.406494
v -87.96698 -71.6649399 -872.101685
v -100.241974 -53.4367371 -850.053467
v 57.7120056 -93.1283646 -954.648376
v 27.2467041 -99.7884598 -933.616455
v -2.40432739 -101.978416 -910.244751
v -29.2262268 -98.9857254 -886.369507
v -51.0253906 -90.3235016 -863.403076
v -66.518219 -77.0404282 -841.586426
v -75.6478577 -60.6271515 -821.160034
v 94.927002 -100.344261 -939.641479
v 128.495483 -102.765556 -932.709351
v 106.020233 -113.150215 -905.444092
v 157.473907 -104.527214 -928.168457
v 142.052063 -116.315926 -898.1521
v 120.449432 -121.120644 -872.307251
v 182.59964 -104.645744 -927.931274
v 172.458038 -117.777504 -894.730103
v 158.084686 -123.913063 -866.030762
v 136.912689 -124.80439 -841.02417
v 204.892181 -102.021996 -931.815674
v 198.609467 -116.3274 -895.815674
v 189.489471 -123.565681 -863.892456
v 175.087067 -125.73391 -836.144287
v 153.553802 -124.239769 -811.762085
v 225.740265 -96.4016953 -938.385864
v 222.031952 -111.237129 -900.439575
v 216.780609 -119.189751 -865.455078
v 207.152557 -122.070747 -834.549683
v 191.30484 -121.701424 -807.846069
v 168.752106 -119.218803 -784.246704
v 245.99942 -87.7255096 -946.236694
v 244.193451 -102.769966 -907.144043
v 241.565277 -111.004921 -869.451538
v 235.359406 -114.078789 -835.145752
v 223.403473 -114.038078 -805.427856
v 205.14975 -112.627037 -780.111816
v 181.590485 -110.482414 -758.022339
v 264.019623 -69.3073425 -966.169983
v 276.963531 -43.0207672 -992.256653
v 277.758942 -67.7882767 -945.259644
v 289.087372 -12.1490097 -1012.9433
v 289.053314 -39.6755905 -971.875183
v 289.362152 -61.1620331 -922.256226
v 300.256378 22.0936413 -1026.62305
v 298.688995 -7.45286942 -991.536072
v 298.129181 -31.8433609 -948.753296
v 297.759308 -50.2863464 -897.769775
v 309.40506 58.0105743 -1032.57544
v 306.657684 27.8783646 -1002.90009
v 304.318817 1.17719078 -966.532166
v 303.056 -20.3159103 -922.695312
v 301.264679 -36.3248825 -871.962158
v 314.619781 93.4201431 -1031.323
v 311.647797 64.8966522 -1005.67621
v 307.742462 37.3174973 -974.640198
v 304.475189 13.2719116 -937.146484
v 301.812347 -5.92464447 -893.418457
v 297.931366 -20.3745842 -844.964478
v 313.472809 126.086266 -1024.2854
v 310.949371 101.700661 -1000.87262
v 306.151581 75.4144821 -973.332947
v 300.833405 50.2080154 -940.755615
v 296.150604 28.3254662 -903.006226
v 291.878937 10.648941 -861.13562
v 286.388336 -3.23819733 -817.396362
v 304.286713 157.049683 -1021.02203
v 289.465363 178.182159 -1023.87128
v 288.513153 164.211243 -994.993713
v 268.119415 191.773193 -1024.18506
v 268.126862 184.453369 -996.697693
v 265.00473 167.667816 -967.747986
v 241.085114 200.945831 -1021.66254
v 241.835236 197.677124 -995.577698
v 239.374847 187.18512 -968.91803
v 234.841949 168.339417 -940.126221
v 208.958344 208.906219 -1015.8255
v 210.249969 207.508301 -991.572571
v 208.325714 200.730316 -966.497864
v 204.466766 187.395691 -940.77063
v 200.184723 167.254883 -912.473999
v 172.446075 217.828491 -1005.4881
v 174.216461 216.884369 -983.218689
v 172.771637 211.729767 -959.506775
v 169.573883 201.443878 -935.469482
v 166.173065 185.62912 -911.240601
v 164.136261 165.000427 -885.003418
v 131.308319 228.112244 -990.312195
v 133.047943 227.544098 -969.440002
v 132.002594 222.84201 -946.637817
v 129.57428 213.642975 -923.523071
v 127.425171 199.754608 -901.143921
v 127.057709 181.856018 -879.404785
v 129.404602 161.448517 -856.365479
v 90.5774536 237.626282 -957.069519
v 51.2121887 241.469025 -924.794189
v 90.4017944 233.794373 -933.062256
v 14.7294617 237.548431 -895.173096
v 51.5200806 233.503357 -898.891479
v 88.916626 224.712128 -908.998901
v -17.4775085 224.25708 -869.568604
v 17.2982483 225.023438 -868.002319
v 51.898468 219.582336 -874.208984
v 87.953125 210.676025 -886.014893
v -43.5516968 201.562744 -847.962891
v -11.4351807 207.061218 -840.782349
v 21.0931091 206.012451 -842.340698
v 54.2529907 200.342804 -850.941406
v 89.2020874 191.935425 -864.170898
v -62.1189575 171.06189 -829.082764
v -33.5726013 179.337524 -816.646118
v -3.24658203 182.513885 -812.55957
v 27.9695129 180.972748 -817.066284
v 60.2790833 176.203979 -827.692505
v 94.0870056 169.519135 -841.844849
v -113.96106 50.7308044 -947.158447
v -131.527802 25.5473938 -927.233154
v -128.653717 70.9576645 -931.979492
v -139.017227 5.29905128 -905.330078
v -142.150085 46.987648 -910.781006
v -134.586777 91.5146255 -916.222778
v -135.62793 -10.7169266 -880.771606
v -143.845871 26.8435898 -886.999634
v -142.682816 67.1205139 -893.358276
v -132.379272 109.104843 -897.806641
v -121.163193 -24.104229 -853.267822
v -133.545288 9.24212646 -859.380615
v -137.825638 45.5139084 -866.516357
v -134.030014 83.3233032 -872.295898
v -122.501129 121.238083 -875.159546
v -96.1872559 -36.2755966 -822.078369
v -110.967941 -7.47999954 -826.515259
v -119.654724 24.7832527 -833.284058
v -121.650284 59.0702133 -840.05896
v -116.860794 93.5702667 -844.932373
v -105.401901 126.682167 -846.994751
v 66.5011902 -107.578133 -918.539429
v 79.3117065 -116.242561 -883.189819
v 38.7115173 -110.231789 -896.551636
v 95.2724609 -120.598198 -849.528076
v 54.1438904 -115.150291 -861.045776
v 12.7688904 -108.534615 -873.514526
v 112.868622 -121.661354 -817.367065
v 72.1036682 -116.522011 -826.632202
v 31.1466064 -110.223381 -837.94397
v -10.1352539 -102.134972 -850.308472
v 130.594482 -119.328117 -786.140015
v 91.2348938 -115.552071 -792.224731
v 51.2541504 -109.279427 -801.743286
v 10.9927063 -101.423454 -813.725464
v -28.7043457 -91.1873474 -827.152222
v 147.306488 -112.850746 -755.232544
v 110.662781 -111.808968 -756.804932
v 72.2178345 -106.958641 -762.812256
v 33.1371765 -99.1455154 -773.605713
v -5.37005615 -89.1448135 -787.698364
v -42.0906372 -76.5201874 -803.783691
v 263.05307 -88.8609543 -921.823364
v 277.428925 -83.6840286 -896.36438
v 262.180695 -99.3449173 -878.869385
v 288.453949 -73.6077042 -870.744873
v 275.613739 -90.3744278 -851.240723
v 258.405853 -103.253868 -839.589233
v 295.097687 -59.9415207 -845.045166
v 284.19693 -77.6915817 -824.340088
v 268.929474 -91.5961304 -811.047485
v 248.992889 -103.357689 -804.901245
v 295.447479 -43.5954361 -818.762939
v 286.906342 -62.1856155 -797.360107
v 273.08847 -77.3554916 -782.747192
v 254.742706 -90.2672043 -775.375977
v 232.245209 -101.960091 -774.623413
v 286.829376 -24.9670029 -791.464722
v 281.318512 -43.9374084 -769.149536
v 269.398407 -60.5199203 -753.068848
v 252.325165 -75.1565628 -744.424927
v 231.568878 -88.3777924 -742.91748
v 207.865509 -100.390327 -747.7854
v 303.09317 135.994995 -996.019348
v 284.339691 141.670151 -966.578796
v 297.848907 111.277718 -968.784973
v 258.416473 144.098801 -936.96582
v 276.634674 116.819557 -936.165771
v 290.89035 85.7784576 -937.969971
v 226.812469 144.557846 -907.57019
v 249.00827 119.672974 -903.5354
v 267.943817 92.1647034 -902.027832
v 283.920624 61.7648621 -902.579102
v 191.417267 143.940811 -878.120361
v 216.372223 121.132103 -870.83252
v 239.081635 96.157692 -865.471802
v 259.698761 69.2440414 -862.905518
v 277.785919 40.6076736 -862.169922
v 154.351105 142.34436 -847.972412
v 179.826996 121.598076 -837.197998
v 204.991486 98.7637558 -827.536743
v 229.347137 74.240715 -820.948975
v 252.049652 48.6318054 -817.835571
v 271.707489 22.5274582 -817.146606
v 69.1200867 14.9011431 -645.329712
v 71.7564392 41.927948 -660.811768
v 33.0209656 30.7321777 -663.241577
v 76.1370239 66.9091187 -685.266724
v 35.4951172 60.2026062 -683.446533
v 0.8175354 47.6827164 -690.343628
v 82.2815247 89.4061279 -715.920288
v 41.3658752 86.6380081 -709.901367
v 5.45330811 78.7518005 -711.148438
v -26.5090942 66.8223495 -722.516602
v 90.227478 109.755257 -750.067871
v 50.0917358 110.43512 -739.568237
v 14.205719 106.580894 -735.793823
v -18.6192627 99.2875061 -740.226929
v -48.9074707 88.5647202 -755.317261
v 100.312439 128.138916 -786.011963
v 61.5548706 131.654755 -771.897705
v 26.3204651 131.549911 -763.135986
v -6.48440552 128.306335 -761.54895
v -37.3398743 121.861618 -769.40332
v -66.5163574 111.680046 -787.234863
v 113.048248 145.198151 -822.091309
v 75.7775269 151.163895 -806.333618
v 41.2947083 154.591187 -793.552368
v 8.86453247 155.343323 -786.633789
v -22.1696167 152.715012 -787.794434
v -51.8851318 146.061569 -798.811646
v -79.66922 135.070389 -817.760254
v 108.270203 16.1875038 -644.203979
v 147.13739 16.0329704 -653.276245
v 113.030273 43.3540955 -664.826416
v 183.822174 13.7415648 -672.155762
v 152.118042 41.7850037 -679.547241
v 118.139648 66.6764679 -694.607788
v 216.814606 9.61286545 -699.946777
v 187.702484 37.8439636 -703.266113
v 156.262604 63.5394669 -713.701782
v 123.788605 87.2066879 -729.961182
v 245.499298 4.89253426 -734.726196
v 219.604034 32.7961349 -734.716064
v 190.910248 58.7824554 -740.73877
v 161.062103 83.1829529 -752.294189
v 130.778198 106.143295 -768.214355
v 269.083832 0.52671814 -774.431763
v 247.957367 27.5076275 -772.951294
v 222.851715 53.5836563 -775.285645
v 195.824554 78.4770355 -782.270386
v 168.169769 102.049751 -793.663208
v 140.47348 124.18174 -808.000366
v 91.7167358 -11.5523453 -636.948853
v 113.98642 -36.3730392 -640.106934
v 134.855804 -11.2280693 -639.61145
v 133.816833 -58.0791779 -653.597046
v 158.211761 -35.8074112 -647.447876
v 174.664581 -11.9073715 -653.305298
v 149.903931 -75.9682388 -674.886597
v 176.74649 -56.7966614 -664.862793
v 196.627167 -36.1196442 -665.378418
v 210.139069 -14.259819 -676.574707
v 162.31424 -90.2318192 -701.002075
v 190.242584 -74.194191 -688.881592
v 212.606842 -56.6304855 -685.83313
v 229.767914 -37.8973694 -691.982544
v 241.071564 -17.7760849 -708.116089
v 172.394562 -101.550865 -729.26123
v 199.920807 -88.5253754 -717.013062
v 223.600861 -73.7660828 -712.095947
v 243.320221 -57.8868332 -715.059326
v 258.268951 -40.7111588 -726.506104
v 267.088959 -21.5484085 -746.671631
v 44.7277222 -3.0858078 -648.819214
v 22.0828857 -19.3252258 -664.530396
v 66.817749 -31.7882538 -644.962891
v 0.844604492 -32.0887909 -690.613037
v 43.5740662 -48.0843658 -665.31543
v 87.6070862 -56.245163 -653.510132
v -19.9171143 -41.2948761 -722.831787
v 21.3068237 -59.4701691 -695.027954
v 62.9490662 -70.7871857 -677.917725
v 105.799286 -76.0124359 -671.546753
v -40.4920349 -48.2027817 -756.765747
v -0.685272217 -66.7293625 -730.053955
v 39.3388977 -80.0171814 -710.316284
v 79.983551 -88.2329788 -698.837158
v 121.149536 -91.4473038 -696.096436
v -59.7786865 -54.1718826 -789.80896
v -22.2715759 -71.8534393 -766.828735
v 16.4314575 -85.337738 -747.662598
v 55.8305054 -95.399025 -733.38855
v 95.4498291 -101.526115 -725.632812
v 134.948822 -103.744026 -724.939941
v 6.44314575 13.8710032 -673.81311
v -26.1137085 32.7807579 -707.883301
v -16.5012817 -0.0358028412 -696.484985
v -53.4734192 54.0640488 -744.753296
v -49.0621643 20.9826717 -734.561768
v -37.5747986 -10.8385696 -726.239502
v -75.8829041 77.6881409 -780.473999
v -76.7770386 44.0979996 -772.938354
v -70.3912354 11.540823 -764.833618
v -58.2156372 -19.4271393 -758.534424
v -93.4559326 102.221016 -814.600098
v -99.5556335 68.6845703 -809.653076
v -98.6844177 35.1722107 -802.946533
v -91.3232422 2.83112335 -795.766235
v -78.3962097 -27.2163544 -790.727905
g 
f 3 1 2
f 5 2 4
f 6 3 5
f 8 4 7
f 9 5 8
f 10 6 9
f 12 7 11
f 13 8 12
f 14 9 13
f 15 10 14
f 17 11 16
f 18 12 17
f 19 13 18
f 20 14 19
f 21 15 20
f 23 16 22
f 24 17 23
f 25 18 24
f 26 19 25
f 27 20 26
f 28 21 27
f 30 22 29
f 31 23 30
f 32 24 31
f 33 25 32
f 34 26 33
f 35 27 34
f 36 28 35
f 3 2 5
f 5 4 8
f 6 5 9
f 8 7 12
f 9 8 13
f 10 9 14
f 12 11 17
f 13 12 18
f 14 13 19
f 15 14 20
f 17 16 23
f 18 17 24
f 19 18 25
f 20 19 26
f 21 20 27
f 23 22 30
f 24 23 31
f 25 24 32
f 26 25 33
f 27 26 34
f 28 27 35
f 37 1 3
f 38 3 6
f 39 37 38
f 40 6 10
f 41 38 40
f 42 39 41
f 43 10 15
f 44 40 43
f 45 41 44
f 46 42 45
f 47 15 21
f 48 43 47
f 49 44 48
f 50 45 49
f 51 46 50
f 52 21 28
f 53 47 52
f 54 48 53
f 55 49 54
f 56 50 55
f 57 51 56
f 58 28 36
f 59 52 58
f 60 53 59
f 61 54 60
f 62 55 61
f 63 56 62
f 64 57 63
f 37 3 38
f 38 6 40
f 39 38 41
f 40 10 43
f 41 40 44
f 42 41 45
f 43 15 47
f 44 43 48
f 45 44 49
f 46 45 50
f 47 21 52
f 48 47 53
f 49 48 54
f 50 49 55
f 51 50 56
f 52 28 58
f 53 52 59
f 54 53 60
f 55 54 61
f 56 55 62
f 57 56 63
f 65 1 37
f 66 37 39
f 67 65 66
f 68 39 42
f 69 66 68
f 70 67 69
f 71 42 46
f 72 68 71
f 73 69 72
f 74 70 73
f 75 46 51
f 76 71 75
f 77 72 76
f 78 73 77
f 79 74 78
f 80 51 57
f 81 75 80
f 82 76 81
f 83 77 82
f 84 78 83
f 85 79 84
f 86 57 64
f 87 80 86
f 88 81 87
f 89 82 88
f 90 83 89
f 91 84 90
f 92 85 91
f 65 37 66
f 66 39 68
f 67 66 69
f 68 42 71
f 69 68 72
f 70 69 73
f 71 46 75
f 72 71 76
f 73 72 77
f 74 73 78
f 75 51 80
f 76 75 81
f 77 76 82
f 78 77 83
f 79 78 84
f 80 57 86
f 81 80 87
f 82 81 88
f 83 82 89
f 84 83 90
f 85 84 91
f 93 1 65
f 94 65 67
f 95 93 94
f 96 67 70
f 97 94 96
f 98 95 97
f 99 70 74
f 100 96 99
f 101 97 100
f 102 98 101
f 103 74 79
f 104 99 103
f 105 100 104
f 106 101 105
f 107 102 106
f 108 79 85
f 109 103 108
f 110 104 109
f 111 105 110
f 112 106 111
f 113 107 112
f 114 85 92
f 115 108 114
f 116 109 115
f 117 110 116
f 118 111 117
f 119 112 118
f 120 113 119
f 93 65 94
f 94 67 96
f 95 94 97
f 96 70 99
f 97 96 100
f 98 97 101
f 99 74 103
f 100 99 104
f 101 100 105
f 102 101 106
f 103 79 108
f 104 103 109
f 105 104 110
f 106 105 111
f 107 106 112
f 108 85 114
f 109 108 115
f 110 109 116
f 111 110 117
f 112 111 118
f 113 112 119
f 2 1 93
f 121 93 95
f 4 2 121
f 122 95 98
f 123 121 122
f 7 4 123
f 124 98 102
f 125 122 124
f 126 123 125
f 11 7 126
f 127 102 107
f 128 124 127
f 129 125 128
f 130 126 129
f 16 11 130
f 131 107 113
f 132 127 131
f 133 128 132
f 134 129 133
f 135 130 134
f 22 16 135
f 136 113 120
f 137 131 136
f 138 132 137
f 139 133 138
f 140 134 139
f 141 135 140
f 29 22 141
f 2 93 121
f 121 95 122
f 4 121 123
f 122 98 124
f 123 122 125
f 7 123 126
f 124 102 127
f 125 124 128
f 126 125 129
f 11 126 130
f 127 107 131
f 128 127 132
f 129 128 133
f 130 129 134
f 16 130 135
f 131 113 136
f 132 131 137
f 133 132 138
f 134 133 139
f 135 134 140
f 22 135 141
f 142 29 141
f 143 141 140
f 144 142 143
f 145 140 139
f 146 143 145
f 147 144 146
f 148 139 138
f 149 145 148
f 150 146 149
f 151 147 150
f 152 138 137
f 153 148 152
f 154 149 153
f 155 150 154
f 156 151 155
f 157 137 136
f 158 152 157
f 159 153 158
f 160 154 159
f 161 155 160
f 162 156 161
f 163 136 120
f 164 157 163
f 165 158 164
f 166 159 165
f 167 160 166
f 168 161 167
f 169 162 168
f 142 141 143
f 143 140 145
f 144 143 146
f 145 139 148
f 146 145 149
f 147 146 150
f 148 138 152
f 149 148 153
f 150 149 154
f 151 150 155
f 152 137 157
f 153 152 158
f 154 153 159
f 155 154 160
f 156 155 161
f 157 136 163
f 158 157 164
f 159 158 165
f 160 159 166
f 161 160 167
f 162 161 168
f 170 120 119
f 171 119 118
f 172 170 171
f 173 118 117
f 174 171 173
f 175 172 174
f 176 117 116
f 177 173 176
f 178 174 177
f 179 175 178
f 180 116 115
f 181 176 180
f 182 177 181
f 183 178 182
f 184 179 183
f 185 115 114
f 186 180 185
f 187 181 186
f 188 182 187
f 189 183 188
f 190 184 189
f 191 114 92
f 192 185 191
f 193 186 192
f 194 187 193
f 195 188 194
f 196 189 195
f 197 190 196
f 170 119 171
f 171 118 173
f 172 171 174
f 173 117 176
f 174 173 177
f 175 174 178
f 176 116 180
f 177 176 181
f 178 177 182
f 179 178 183
f 180 115 185
f 181 180 186
f 182 181 187
f 183 182 188
f 184 183 189
f 185 114 191
f 186 185 192
f 187 186 193
f 188 187 194
f 189 188 195
f 190 189 196
f 198 92 91
f 199 91 90
f 200 198 199
f 201 90 89
f 202 199 201
f 203 200 202
f 204 89 88
f 205 201 204
f 206 202 205
f 207 203 206
f 208 88 87
f 209 204 208
f 210 205 209
f 211 206 210
f 212 207 211
f 213 87 86
f 214 208 213
f 215 209 214
f 216 210 215
f 217 211 216
f 218 212 217
f 219 86 64
f 220 213 219
f 221 214 220
f 222 215 221
f 223 216 222
f 224 217 223
f 225 218 224
f 198 91 199
f 199 90 201
f 200 199 202
f 201 89 204
f 202 201 205
f 203 202 206
f 204 88 208
f 205 204 209
f 206 205 210
f 207 206 211
f 208 87 213
f 209 208 214
f 210 209 215
f 211 210 216
f 212 211 217
f 213 86 219
f 214 213 220
f 215 214 221
f 216 215 222
f 217 216 223
f 218 217 224
f 226 64 63
f 227 63 62
f 228 226 227
f 229 62 61
f 230 227 229
f 231 228 230
f 232 61 60
f 233 229 232
f 234 230 233
f 235 231 234
f 236 60 59
f 237 232 236
f 238 233 237
f 239 234 238
f 240 235 239
f 241 59 58
f 242 236 241
f 243 237 242
f 244 238 243
f 245 239 244
f 246 240 245
f 247 58 36
f 248 241 247
f 249 242 248
f 250 243 249
f 251 244 250
f 252 245 251
f 253 246 252
f 226 63 227
f 227 62 229
f 228 227 230
f 229 61 232
f 230 229 233
f 231 230 234
f 232 60 236
f 233 232 237
f 234 233 238
f 235 234 239
f 236 59 241
f 237 236 242
f 238 237 243
f 239 238 244
f 240 239 245
f 241 58 247
f 242 241 248
f 243 242 249
f 244 243 250
f 245 244 251
f 246 245 252
f 254 36 35
f 255 35 34
f 256 254 255
f 257 34 33
f 258 255 257
f 259 256 258
f 260 33 32
f 261 257 260
f 262 258 261
f 263 259 262
f 264 32 31
f 265 260 264
f 266 261 265
f 267 262 266
f 268 263 267
f 269 31 30
f 270 264 269
f 271 265 270
f 272 266 271
f 273 267 272
f 274 268 273
f 275 30 29
f 276 269 275
f 277 270 276
f 278 271 277
f 279 272 278
f 280 273 279
f 281 274 280
f 254 35 255
f 255 34 257
f 256 255 258
f 257 33 260
f 258 257 261
f 259 258 262
f 260 32 264
f 261 260 265
f 262 261 266
f 263 262 267
f 264 31 269
f 265 264 270
f 266 265 271
f 267 266 272
f 268 267 273
f 269 30 275
f 270 269 276
f 271 270 277
f 272 271 278
f 273 272 279
f 274 273 280
f 275 29 142
f 282 142 144
f 276 275 282
f 283 144 147
f 284 282 283
f 277 276 284
f 285 147 151
f 286 283 285
f 287 284 286
f 278 277 287
f 288 151 156
f 289 285 288
f 290 286 289
f 291 287 290
f 279 278 291
f 292 156 162
f 293 288 292
f 294 289 293
f 295 290 294
f 296 291 295
f 280 279 296
f 297 162 169
f 298 292 297
f 299 293 298
f 300 294 299
f 301 295 300
f 302 296 301
f 281 280 302
f 275 142 282
f 282 144 283
f 276 282 284
f 283 147 285
f 284 283 286
f 277 284 287
f 285 151 288
f 286 285 289
f 287 286 290
f 278 287 291
f 288 156 292
f 289 288 293
f 290 289 294
f 291 290 295
f 279 291 296
f 292 162 297
f 293 292 298
f 294 293 299
f 295 294 300
f 296 295 301
f 280 296 302
f 163 120 170
f 303 170 172
f 164 163 303
f 304 172 175
f 305 303 304
f 165 164 305
f 306 175 179
f 307 304 306
f 308 305 307
f 166 165 308
f 309 179 184
f 310 306 309
f 311 307 310
f 312 308 311
f 167 166 312
f 313 184 190
f 314 309 313
f 315 310 314
f 316 311 315
f 317 312 316
f 168 167 317
f 318 190 197
f 319 313 318
f 320 314 319
f 321 315 320
f 322 316 321
f 323 317 322
f 169 168 323
f 163 170 303
f 303 172 304
f 164 303 305
f 304 175 306
f 305 304 307
f 165 305 308
f 306 179 309
f 307 306 310
f 308 307 311
f 166 308 312
f 309 184 313
f 310 309 314
f 311 310 315
f 312 311 316
f 167 312 317
f 313 190 318
f 314 313 319
f 315 314 320
f 316 315 321
f 317 316 322
f 168 317 323
f 191 92 198
f 324 198 200
f 192 191 324
f 325 200 203
f 326 324 325
f 193 192 326
f 327 203 207
f 328 325 327
f 329 326 328
f 194 193 329
f 330 207 212
f 331 327 330
f 332 328 331
f 333 329 332
f 195 194 333
f 334 212 218
f 335 330 334
f 336 331 335
f 337 332 336
f 338 333 337
f 196 195 338
f 339 218 225
f 340 334 339
f 341 335 340
f 342 336 341
f 343 337 342
f 344 338 343
f 197 196 344
f 191 198 324
f 324 200 325
f 192 324 326
f 325 203 327
f 326 325 328
f 193 326 329
f 327 207 330
f 328 327 331
f 329 328 332
f 194 329 333
f 330 212 334
f 331 330 335
f 332 331 336
f 333 332 337
f 195 333 338
f 334 218 339
f 335 334 340
f 336 335 341
f 337 336 342
f 338 337 343
f 196 338 344
f 219 64 226
f 345 226 228
f 220 219 345
f 346 228 231
f 347 345 346
f 221 220 347
f 348 231 235
f 349 346 348
f 350 347 349
f 222 221 350
f 351 235 240
f 352 348 351
f 353 349 352
f 354 350 353
f 223 222 354
f 355 240 246
f 356 351 355
f 357 352 356
f 358 353 357
f 359 354 358
f 224 223 359
f 360 246 253
f 361 355 360
f 362 356 361
f 363 357 362
f 364 358 363
f 365 359 364
f 225 224 365
f 219 226 345
f 345 228 346
f 220 345 347
f 346 231 348
f 347 346 349
f 221 347 350
f 348 235 351
f 349 348 352
f 350 349 353
f 222 350 354
f 351 240 355
f 352 351 356
f 353 352 357
f 354 353 358
f 223 354 359
f 355 246 360
f 356 355 361
f 357 356 362
f 358 357 363
f 359 358 364
f 224 359 365
f 247 36 254
f 366 254 256
f 248 247 366
f 367 256 259
f 368 366 367
f 249 248 368
f 369 259 263
f 370 367 369
f 371 368 370
f 250 249 371
f 372 263 268
f 373 369 372
f 374 370 373
f 375 371 374
f 251 250 375
f 376 268 274
f 377 372 376
f 378 373 377
f 379 374 378
f 380 375 379
f 252 251 380
f 381 274 281
f 382 376 381
f 383 377 382
f 384 378 383
f 385 379 384
f 386 380 385
f 253 252 386
f 247 254 366
f 366 256 367
f 248 366 368
f 367 259 369
f 368 367 370
f 249 368 371
f 369 263 372
f 370 369 373
f 371 370 374
f 250 371 375
f 372 268 376
f 373 372 377
f 374 373 378
f 375 374 379
f 251 375 380
f 376 274 381
f 377 376 382
f 378 377 383
f 379 378 384
f 380 379 385
f 252 380 386
f 389 387 388
f 391 388 390
f 392 389 391
f 394 390 393
f 395 391 394
f 396 392 395
f 398 393 397
f 399 394 398
f 400 395 399
f 401 396 400
f 403 397 402
f 404 398 403
f 405 399 404
f 406 400 405
f 407 401 406
f 409 402 408
f 410 403 409
f 411 404 410
f 412 405 411
f 413 406 412
f 414 407 413
f 302 408 281
f 301 409 302
f 300 410 301
f 299 411 300
f 298 412 299
f 297 413 298
f 169 414 297
f 389 388 391
f 391 390 394
f 392 391 395
f 394 393 398
f 395 394 399
f 396 395 400
f 398 397 403
f 399 398 404
f 400 399 405
f 401 400 406
f 403 402 409
f 404 403 410
f 405 404 411
f 406 405 412
f 407 406 413
f 409 408 302
f 410 409 301
f 411 410 300
f 412 411 299
f 413 412 298
f 414 413 297
f 388 387 415
f 417 415 416
f 390 388 417
f 419 416 418
f 420 417 419
f 393 390 420
f 422 418 421
f 423 419 422
f 424 420 423
f 397 393 424
f 426 421 425
f 427 422 426
f 428 423 427
f 429 424 428
f 402 397 429
f 431 425 430
f 432 426 431
f 433 427 432
f 434 428 433
f 435 429 434
f 408 402 435
f 386 430 253
f 385 431 386
f 384 432 385
f 383 433 384
f 382 434 383
f 381 435 382
f 281 408 381
f 388 415 417
f 417 416 419
f 390 417 420
f 419 418 422
f 420 419 423
f 393 420 424
f 422 421 426
f 423 422 427
f 424 423 428
f 397 424 429
f 426 425 431
f 427 426 432
f 428 427 433
f 429 428 434
f 402 429 435
f 431 430 386
f 432 431 385
f 433 432 384
f 434 433 383
f 435 434 382
f 408 435 381
f 415 387 436
f 438 436 437
f 416 415 438
f 440 437 439
f 441 438 440
f 418 416 441
f 443 439 442
f 444 440 443
f 445 441 444
f 421 418 445
f 447 442 446
f 448 443 447
f 449 444 448
f 450 445 449
f 425 421 450
f 452 446 451
f 453 447 452
f 454 448 453
f 455 449 454
f 456 450 455
f 430 425 456
f 365 451 225
f 364 452 365
f 363 453 364
f 362 454 363
f 361 455 362
f 360 456 361
f 253 430 360
f 415 436 438
f 438 437 440
f 416 438 441
f 440 439 443
f 441 440 444
f 418 441 445
f 443 442 447
f 444 443 448
f 445 444 449
f 421 445 450
f 447 446 452
f 448 447 453
f 449 448 454
f 450 449 455
f 425 450 456
f 452 451 365
f 453 452 364
f 454 453 363
f 455 454 362
f 456 455 361
f 430 456 360
f 436 387 457
f 459 457 458
f 437 436 459
f 461 458 460
f 462 459 461
f 439 437 462
f 464 460 463
f 465 461 464
f 466 462 465
f 442 439 466
f 468 463 467
f 469 464 468
f 470 465 469
f 471 466 470
f 446 442 471
f 473 467 472
f 474 468 473
f 475 469 474
f 476 470 475
f 477 471 476
f 451 446 477
f 344 472 197
f 343 473 344
f 342 474 343
f 341 475 342
f 340 476 341
f 339 477 340
f 225 451 339
f 436 457 459
f 459 458 461
f 437 459 462
f 461 460 464
f 462 461 465
f 439 462 466
f 464 463 468
f 465 464 469
f 466 465 470
f 442 466 471
f 468 467 473
f 469 468 474
f 470 469 475
f 471 470 476
f 446 471 477
f 473 472 344
f 474 473 343
f 475 474 342
f 476 475 341
f 477 476 340
f 451 477 339
f 457 387 389
f 478 389 392
f 458 457 478
f 479 392 396
f 480 478 479
f 460 458 480
f 481 396 401
f 482 479 481
f 483 480 482
f 463 460 483
f 484 401 407
f 485 481 484
f 486 482 485
f 487 483 486
f 467 463 487
f 488 407 414
f 489 484 488
f 490 485 489
f 491 486 490
f 492 487 491
f 472 467 492
f 323 414 169
f 322 488 323
f 321 489 322
f 320 490 321
f 319 491 320
f 318 492 319
f 197 472 318
f 457 389 478
f 478 392 479
f 458 478 480
f 479 396 481
f 480 479 482
f 460 480 483
f 481 401 484
f 482 481 485
f 483 482 486
f 463 483 487
f 484 407 488
f 485 484 489
f 486 485 490
f 487 486 491
f 467 487 492
f 488 414 323
f 489 488 322
f 490 489 321
f 491 490 320
f 492 491 319
f 472 492 318
