# File exported by Houdini 20.5.445 (www.sidefx.com)
# 492 points
# 2940 vertices
# 980 primitives
# Bounds: [-97.0553589, -247.968079, -1062.01135] to [267.829285, 364.345184, -692.789673]
g 
v 120.806763 29.4326515 -1058.82568
v 116.637085 72.5284424 -1061.73181
v 140.348022 45.0438995 -1062.01135
v 113.427429 115.34903 -1061.61853
v 138.359924 93.0277939 -1061.15088
v 158.423218 60.1122589 -1059.86707
v 110.825684 157.280838 -1058.5918
v 136.570312 138.411545 -1056.89148
v 157.422913 111.190491 -1055.11841
v 174.267761 74.581459 -1053.13501
v 108.754272 197.839447 -1054.19324
v 135.223633 181.432877 -1051.78076
v 156.774414 157.847382 -1049.33911
v 174.454224 126.963669 -1047.09888
v 188.48645 88.1690445 -1044.448
v 107.065125 236.656326 -1049.64282
v 134.179138 222.554169 -1047.35205
v 156.667786 201.723969 -1044.66187
v 175.286926 174.358398 -1042.07837
v 190.434814 140.790588 -1039.26428
v 202.073608 101.17569 -1035.73132
v 105.709045 273.021057 -1043.75146
v 132.824036 261.887451 -1042.99292
v 156.471619 243.983444 -1041.04468
v 176.521729 219.394302 -1038.70862
v 193.05011 188.869675 -1035.88354
v 206.105774 153.442444 -1032.24939
v 215.819702 114.192856 -1027.68054
v 104.675171 305.610016 -1034.93909
v 131.074463 298.526154 -1036.22241
v 155.405396 284.533569 -1036.56812
v 177.19165 263.229553 -1035.80713
v 195.741516 235.21077 -1033.81079
v 210.659119 202.003571 -1030.43823
v 221.952942 165.465805 -1025.74414
v 229.965942 127.495361 -1020.12915
v 136.800842 -4.36613846 -1057.328
v 155.983765 8.32977295 -1060.03296
v 150.266907 -39.5229111 -1053.20972
v 172.430542 21.1691208 -1057.05164
v 167.670898 -27.989563 -1055.00537
v 161.498413 -74.9016876 -1045.28186
v 186.18988 34.6420135 -1049.47217
v 182.172424 -15.2247772 -1051.14795
v 176.766846 -62.6434326 -1046.27576
v 172.585632 -108.359772 -1033.12292
v 198.734009 48.6986389 -1039.84998
v 194.551025 -0.755342484 -1042.88782
v 189.988647 -48.2475739 -1041.8678
v 186.234863 -93.8940125 -1033.70898
v 185.920166 -137.482834 -1016.974
v 211.823914 63.8748169 -1029.82678
v 207.110352 15.5339088 -1032.49524
v 202.626831 -31.3671112 -1033.15405
v 199.521912 -76.8199692 -1028.93811
v 199.109802 -120.161804 -1017.17041
v 202.125977 -160.347565 -997.336548
v 226.657837 80.8507767 -1019.78943
v 222.04541 34.2711639 -1020.87805
v 217.554565 -11.9178886 -1021.6908
v 214.545044 -57.1420593 -1019.4502
v 214.15625 -100.491943 -1011.37964
v 216.266113 -140.645294 -996.132568
v 219.38208 -175.978394 -974.473511
v 112.719849 -6.36284256 -1050.44812
v 130.17981 -43.7053909 -1047.07629
v 107.462219 -40.9593201 -1037.3573
v 144.988098 -80.9426575 -1039.93652
v 127.262817 -80.1764374 -1031.42749
v 105.872437 -74.4682159 -1019.40881
v 159.034668 -117.071777 -1028.09802
v 145.030396 -118.245636 -1020.63928
v 128.668335 -114.59729 -1010.43359
v 107.353699 -106.641861 -997.477783
v 174.478333 -150.164307 -1011.44751
v 162.799072 -154.264313 -1004.4502
v 149.374207 -152.628769 -995.772339
v 132.378967 -146.753998 -985.140503
v 109.898315 -136.57959 -972.674316
v 192.12738 -177.822815 -990.241821
v 181.502319 -186.436966 -982.646606
v 169.528687 -187.889359 -974.668213
v 154.758789 -183.894882 -965.802979
v 135.69928 -175.49501 -955.874023
v 111.603394 -162.771713 -945.050293
v 211.049561 -197.724655 -964.700928
v 201.388062 -211.856171 -955.014404
v 189.855042 -218.131699 -946.182373
v 175.66571 -217.279022 -938.025635
v 157.927917 -210.586761 -930.097168
v 136.02301 -199.108505 -922.348511
v 110.24115 -183.032227 -915.061279
v 97.5029297 39.1406784 -1054.64758
v 88.1315308 1.50692749 -1042.27954
v 73.6239624 47.3096542 -1048.10681
v 83.107605 -33.4650078 -1025.39795
v 64.1824341 8.27562332 -1031.41992
v 50.2896118 54.8386307 -1038.83826
v 81.9869385 -66.5061035 -1004.84595
v 59.871521 -26.8841591 -1011.0658
v 41.645813 15.3393822 -1017.90369
v 28.5169067 63.4081421 -1026.47412
v 83.0910645 -98.0248413 -981.720581
v 58.9362183 -59.5596237 -988.566162
v 37.8283081 -19.3171196 -994.822632
v 20.7474976 24.6774521 -1002.05334
v 8.81072998 74.1803131 -1011.26392
v 84.7961426 -127.406448 -955.783325
v 59.5214844 -90.3680878 -963.862305
v 36.6685181 -51.0563049 -970.384033
v 16.9891357 -8.7880249 -976.800293
v 1.65289307 37.1016388 -984.61792
v -8.69000244 86.7378616 -994.416748
v 84.7236328 -152.362915 -926.291382
v 59.4597168 -117.97316 -935.713501
v 35.8283691 -79.866745 -943.414673
v 14.8005371 -38.2651825 -950.170044
v -2.81182861 6.10019684 -957.465454
v -16.2246704 52.260788 -966.561035
v -24.9178467 99.3369598 -977.359985
v 90.8259888 84.4747009 -1058.89099
v 65.7496338 94.1364822 -1053.64783
v 86.3269043 127.847488 -1060.25293
v 42.0456543 103.215347 -1045.43298
v 60.609436 138.368378 -1055.90942
v 82.9917603 169.713379 -1058.38159
v 20.1292114 113.525436 -1033.38098
v 36.4921875 148.988434 -1047.81848
v 56.7617188 181.111633 -1054.36145
v 80.3500977 210.405807 -1054.16211
v 0.0836791992 125.745499 -1017.33923
v 13.9159546 161.273148 -1034.91211
v 31.8535156 193.811523 -1045.31873
v 53.5662842 223.343597 -1049.4491
v 78.505249 250.061081 -1048.4325
v -18.8961792 138.208206 -998.505249
v -7.83679199 175.017792 -1016.78674
v 7.67364502 208.842499 -1029.91772
v 27.5568848 238.957077 -1038.09912
v 51.5084839 265.340576 -1041.05054
v 77.8294067 287.907196 -1039.20166
v 86.3339233 324.020111 -1025.63818
v 55.5003052 304.568146 -1028.44934
v 65.9525757 336.572723 -1013.07886
v 27.0645752 280.584412 -1027.21021
v 32.3371582 314.922455 -1013.61597
v 43.6583862 342.610931 -996.864746
v 2.77020264 252.140091 -1020.63342
v 3.06469727 288.132416 -1009.27539
v 8.98205566 317.974884 -994.873657
v 20.9243774 341.121674 -976.605591
v -15.9590454 218.256882 -1009.67395
v -20.2550049 255.714218 -999.970825
v -19.25177 287.506195 -987.490723
v -12.5756226 313.374115 -971.547729
v -0.186950684 332.118011 -951.548584
v -29.2856445 179.561218 -994.141968
v -36.6904907 217.351379 -986.406006
v -39.848877 250.972183 -975.094849
v -37.829895 279.533813 -960.366943
v -30.5252075 301.895538 -942.191284
v -18.3479004 316.812286 -920.922852
v -37.2717896 136.465073 -973.599976
v -46.732666 173.318085 -967.79187
v -53.0195923 207.997253 -957.715942
v -55.0529175 239.013412 -943.413696
v -52.2964478 264.849976 -925.887207
v -45.0698853 284.266663 -906.122314
v -34.0944214 296.512543 -885.414795
v -35.1313477 82.8781128 -953.749146
v -23.4396973 31.6420441 -941.518677
v -42.4174194 68.4771194 -930.496704
v -7.02868652 -16.3096695 -931.81897
v -28.3817139 15.2009773 -917.806152
v -47.7600708 57.7107849 -906.632935
v 12.8353271 -61.3540344 -923.420898
v -10.0040894 -33.1550789 -906.848999
v -32.5327759 3.95111847 -892.981934
v -52.8600464 50.4765854 -880.614502
v 35.2028198 -103.616119 -914.688965
v 11.0983887 -78.3583221 -896.228394
v -13.6134644 -44.3856964 -880.066528
v -37.7380981 -2.7743454 -865.767212
v -59.2950439 45.3239059 -852.09375
v 60.5195923 -142.386688 -904.446411
v 34.6962891 -121.372299 -884.453125
v 8.0489502 -90.0048065 -866.383423
v -19.0876465 -50.9318771 -850.314941
v -44.6693115 -6.44164276 -835.920654
v -66.3225708 40.7679901 -822.117432
v 88.4708862 -177.408493 -892.285522
v 62.279541 -161.472733 -870.654663
v 33.3884888 -134.129089 -850.552612
v 3.67077637 -96.9149704 -832.804077
v -25.2960815 -53.678421 -817.608765
v -50.8727417 -8.24212646 -804.54187
v -71.0986938 35.9345551 -792.350098
v 122.193115 -207.428024 -887.080078
v 151.462708 -225.286911 -892.207153
v 131.210571 -223.43515 -857.520874
v 175.189331 -236.049866 -898.603882
v 163.409607 -240.462524 -861.919312
v 137.445435 -229.098663 -828.19519
v 193.892212 -239.7034 -906.026367
v 188.350647 -247.968079 -867.528076
v 171.317932 -243.466156 -831.831665
v 140.425903 -223.766617 -799.979126
v 208.504578 -235.339874 -914.902588
v 207.652649 -246.594269 -874.974609
v 197.093201 -246.560822 -837.230835
v 175.143494 -234.736145 -803.440063
v 140.50238 -208.710159 -774.961792
v 220.237061 -222.071518 -926.370483
v 223.052063 -235.826508 -885.905884
v 217.566223 -239.499847 -846.391113
v 202.048096 -233.044708 -810.301514
v 175.589783 -215.680923 -779.72644
v 138.667175 -186.14035 -755.770996
v 229.985229 -199.345001 -940.624756
v 235.831116 -214.532288 -901.827271
v 234.685852 -221.28334 -861.584106
v 224.468018 -219.381851 -823.490967
v 203.963013 -208.347595 -790.358643
v 173.815002 -187.849289 -763.962891
v 136.229187 -158.510681 -744.449463
v 234.21637 -163.573685 -964.643066
v 232.382751 -123.284271 -987.564209
v 248.092041 -144.059784 -954.777588
v 230.973633 -79.4789581 -1001.56018
v 247.479492 -99.8541565 -978.457031
v 259.889221 -118.933197 -945.108765
v 231.535583 -33.6355896 -1007.70715
v 246.65564 -53.2035522 -990.790039
v 259.99707 -71.9721832 -967.950684
v 267.22583 -89.5945816 -934.800659
v 234.414551 13.5763931 -1008.85107
v 247.501404 -5.1293869 -995.202881
v 259.438721 -23.2361069 -978.265137
v 267.61969 -40.9562149 -955.327148
v 267.727966 -57.1308136 -922.967773
v 238.484253 62.1237335 -1008.71252
v 250.03949 44.6765747 -995.98291
v 260.146851 27.3102455 -981.476929
v 266.795715 9.74971008 -963.597168
v 267.829285 -7.31140137 -940.215088
v 260.06311 -22.3059425 -909.140015
v 241.983704 112.500626 -1010.13525
v 252.771057 97.4391479 -997.42981
v 261.518127 81.3688354 -982.810669
v 266.26825 64.1090546 -966.168823
v 265.639954 46.2755661 -946.443848
v 258.606079 29.1916885 -922.354004
v 244.417847 14.2681808 -893.243164
v 238.783081 164.146713 -1016.6062
v 228.309875 205.709488 -1023.76843
v 243.982422 198.51947 -1012.6626
v 213.873657 243.351059 -1028.53687
v 230.077515 240.638321 -1020.43787
v 243.827942 228.281174 -1005.98401
v 195.649658 275.685669 -1030.74609
v 212.02179 276.980713 -1024.07043
v 226.445984 268.818542 -1013.05603
v 237.252258 251.97731 -994.803101
v 173.897217 301.440704 -1030.45215
v 190.297852 307.152496 -1023.69226
v 205.076355 302.639923 -1014.4187
v 217.045349 289.784454 -999.945801
v 224.140015 269.242432 -978.455688
v 148.877686 319.672516 -1028.24988
v 165.073303 330.284515 -1020.09412
v 179.807617 330.230194 -1010.6156
v 192.453186 320.613007 -998.27832
v 201.441101 303.65567 -980.860596
v 205.179199 280.257996 -957.683716
v 120.358398 329.799164 -1025.23096
v 135.481262 345.375214 -1014.85583
v 149.653748 350.604279 -1003.6134
v 162.376221 345.246063 -990.972168
v 172.704712 331.011322 -975.798218
v 179.30365 310.648956 -956.723267
v 181.000732 285.864838 -933.891113
v 101.65686 347.787811 -1012.29871
v 80.6807251 357.158478 -996.721558
v 115.770447 359.935516 -998.206787
v 57.9228516 358.499176 -977.780884
v 93.9290161 364.345184 -979.366455
v 128.667847 360.156708 -983.223999
v 34.6697998 351.876923 -954.374023
v 70.46875 360.252289 -957.087646
v 105.838867 359.11087 -960.794922
v 140.024719 349.362213 -966.938354
v 12.1483765 337.430023 -925.188843
v 46.0056152 348.265961 -929.239136
v 81.1557617 349.440765 -934.199585
v 115.871643 342.882538 -940.255737
v 148.816162 329.809052 -947.850098
v -9.27404785 315.759064 -888.772583
v 20.6011963 327.798187 -893.525024
v 53.9912109 331.341827 -899.822144
v 88.6210327 327.165131 -907.319092
v 122.287781 317.614716 -915.259277
v 153.311157 303.682037 -924.191895
v -48.664978 122.7276 -947.842407
v -56.0272217 111.858948 -922.044189
v -57.8603516 160.925766 -938.942383
v -61.8615723 103.742996 -894.874023
v -65.1472778 151.17662 -908.981567
v -63.6679688 195.438171 -924.705811
v -68.560791 96.8727722 -864.838989
v -72.2078857 142.742065 -876.617676
v -71.4417725 184.932678 -889.655151
v -65.4262085 225.360123 -906.0271
v -76.6566772 89.492691 -831.954102
v -80.8270264 133.74765 -841.101196
v -79.7730103 174.64447 -851.637817
v -73.7572632 213.153625 -865.971924
v -62.5528564 249.65834 -884.452393
v -83.736145 80.51474 -797.529663
v -89.9255981 122.623642 -802.592896
v -89.4945679 162.464355 -809.856201
v -83.0004883 199.93399 -821.865356
v -71.2839966 234.865189 -839.314819
v -54.9028931 267.151306 -861.222656
v 95.5942993 -196.518997 -860.557129
v 99.2958374 -204.595718 -829.313965
v 64.3172607 -173.252075 -836.959473
v 100.839355 -201.585205 -800.15271
v 63.5291138 -173.203049 -805.664795
v 30.8341064 -138.409042 -816.389038
v 100.473816 -188.603775 -773.782837
v 61.7567749 -162.688309 -777.717529
v 26.6981812 -131.343079 -785.963745
v -2.24816895 -94.5253448 -799.240112
v 98.7587891 -167.573395 -751.686523
v 59.5150757 -143.341034 -753.378906
v 22.7645874 -114.797897 -759.338257
v -8.41174316 -81.7233582 -769.858032
v -32.9866943 -45.7361069 -785.039917
v 96.8613892 -140.358612 -736.082397
v 57.4631958 -117.006866 -733.842651
v 19.8371582 -90.0740128 -736.420898
v -13.2911987 -60.177269 -743.738403
v -39.651062 -27.9833527 -756.015869
v -59.1758423 4.21216583 -772.455078
v 244.560669 -183.227737 -926.552002
v 256.152405 -160.283264 -914.352295
v 247.916077 -193.744888 -885.396362
v 263.374207 -132.108002 -903.939697
v 255.087708 -166.996155 -872.792236
v 242.279785 -195.924301 -844.843628
v 263.755371 -99.4177856 -894.071899
v 255.685059 -135.023529 -862.874146
v 243.121094 -164.961487 -833.164429
v 225.925476 -189.512863 -807.945068
v 255.326904 -62.3913651 -883.206909
v 247.281555 -97.520668 -853.676758
v 235.044006 -127.933289 -824.105713
v 218.510437 -153.460175 -797.521118
v 197.880737 -173.57103 -776.630615
v 237.425354 -21.004509 -869.98877
v 228.055237 -53.6567841 -843.050781
v 215.424683 -83.2602463 -815.005859
v 199.310974 -109.227234 -788.796143
v 180.111755 -130.757889 -766.997559
v 158.660095 -147.201202 -751.726318
v 251.496521 150.002899 -1003.7334
v 255.234741 182.82605 -996.247559
v 260.536926 134.710083 -987.665161
v 251.464355 209.851044 -985.383789
v 259.960388 165.686264 -976.37085
v 264.47345 117.624512 -969.414185
v 239.860596 230.733475 -969.922241
v 250.460815 190.255325 -961.319702
v 257.480591 146.600128 -953.864136
v 262.241272 98.7950134 -948.773315
v 220.836792 245.816177 -949.59375
v 232.206421 208.818253 -941.160278
v 240.47467 168.964432 -933.632812
v 247.009155 125.763657 -927.927612
v 252.878296 79.0634232 -924.446411
v 194.594543 255.621323 -924.665771
v 204.914673 222.257156 -915.428589
v 212.873108 185.781082 -907.10144
v 219.845642 146.2742 -900.665283
v 227.265503 104.026627 -896.717773
v 235.66864 59.6784592 -894.889526
v -16.4694824 128.819855 -709.136719
v 6.91021729 156.349274 -731.49353
v -31.5643921 161.511307 -713.386108
v 36.572998 183.102509 -761.434082
v -2.90093994 191.843353 -742.142822
v -39.2695312 192.939606 -727.100098
v 69.84021 207.999588 -795.884766
v 30.2489624 219.509674 -777.517334
v -6.80761719 224.520554 -761.657593
v -41.836792 221.398956 -749.470703
v 103.387878 230.539688 -832.134766
v 64.7185059 244.129898 -815.39978
v 27.4229736 252.034653 -800.839478
v -8.11523438 253.505325 -787.880493
v -41.3314209 246.404953 -778.573853
v 134.461609 251.114243 -867.974854
v 98.083313 266.155396 -853.123291
v 61.4951782 276.201172 -840.444824
v 25.6057129 281.163086 -828.696167
v -8.31774902 278.808533 -818.618286
v -38.8699341 267.881592 -812.356934
v 160.740723 269.773621 -902.130493
v 128.151245 286.061188 -889.482544
v 93.6613159 297.973053 -878.654663
v 58.2717896 305.39444 -868.774658
v 23.5864868 306.825165 -859.626221
v -8.39251709 300.098297 -852.532349
v -36.0794678 284.931946 -848.843018
v 17.7702026 113.599442 -724.414795
v 56.7904053 98.5631714 -745.952637
v 44.4610596 142.283493 -750.982422
v 98.5657959 82.7668457 -771.895386
v 84.1103516 128.109009 -775.263794
v 75.8330688 168.803909 -782.884399
v 140.713135 65.5620193 -800.848389
v 124.586609 112.63269 -802.72583
v 114.961548 154.196045 -808.088135
v 109.175354 192.781296 -817.684082
v 180.990295 47.5449219 -831.485718
v 164.779236 95.6445389 -832.370483
v 153.864197 138.548859 -835.841431
v 147.089905 177.82016 -842.886963
v 141.752014 214.928864 -853.613281
v 216.655273 30.0548592 -862.647583
v 202.990417 77.7822647 -863.310913
v 192.123901 121.847458 -865.459106
v 184.312866 162.540359 -870.592285
v 178.051331 200.382736 -878.758179
v 170.966797 235.968979 -889.473877
v -11.1067505 91.0426102 -703.184692
v 4.66943359 52.6230316 -705.04895
v 30.177063 72.3683472 -721.697021
v 27.8626709 12.8666344 -711.166992
v 51.8792114 31.2716141 -725.371338
v 75.0223999 54.1786957 -745.601685
v 53.8441162 -29.4151459 -717.919922
v 77.4634399 -11.596199 -730.866699
v 99.3864746 9.89912415 -749.504272
v 120.27887 35.2360458 -772.867554
v 80.7380981 -73.7252045 -724.443359
v 104.021545 -56.7549362 -736.160645
v 125.551514 -36.0687256 -754.157593
v 145.459167 -12.028019 -776.725708
v 163.739197 15.5355568 -802.901245
v 108.774292 -117.568481 -732.56897
v 131.482788 -102.69577 -742.2229
v 152.746643 -83.4639969 -759.223145
v 172.065796 -60.3054199 -781.589966
v 189.194336 -33.713028 -807.630493
v 203.822144 -3.69236755 -835.389038
v -44.3656616 121.352493 -695.782349
v -64.8842773 113.388916 -692.789673
v -36.1387329 79.9527054 -693.059937
v -78.3423462 103.543198 -700.279907
v -52.6481934 69.3001633 -694.12207
v -17.6013184 39.2282791 -698.089722
v -85.5654297 90.9829559 -716.678223
v -62.6397705 57.4357605 -704.720947
v -31.9394531 26.1158333 -701.560059
v 7.10040283 -2.25643349 -706.194946
v -86.7086182 75.4661789 -739.563721
v -67.418457 42.9108582 -722.685425
v -40.4505615 11.5091248 -713.258667
v -6.41955566 -18.2469559 -710.759766
v 34.2380981 -46.4758301 -714.376099
v -81.4925537 57.3077545 -765.94812
v -66.3728027 25.4686928 -746.128906
v -43.3283691 -6.02967453 -731.814941
v -13.6124268 -36.8935089 -723.29187
v 22.8919678 -65.7664719 -720.669067
v 64.0565186 -93.0727615 -723.406372
v -60.7037964 155.493774 -703.010254
v -68.0923462 185.45137 -720.674683
v -80.6843262 147.102768 -704.800171
v -69.2297363 211.417862 -747.004517
v -86.585083 175.118073 -726.92627
v -92.571167 135.796204 -717.439209
v -66.0454712 233.936264 -780.393677
v -85.388916 198.852112 -757.518311
v -96.1471558 161.707809 -744.05127
v -97.0553589 121.168137 -738.93103
v -60.4331055 252.880356 -819.265991
v -79.1896362 219.042099 -795.51001
v -91.7559204 183.151901 -779.137817
v -97.0496216 144.690247 -770.127319
v -93.8728638 103.023071 -766.817749
g 
f 3 1 2
f 5 2 4
f 6 3 5
f 8 4 7
f 9 5 8
f 10 6 9
f 12 7 11
f 13 8 12
f 14 9 13
f 15 10 14
f 17 11 16
f 18 12 17
f 19 13 18
f 20 14 19
f 21 15 20
f 23 16 22
f 24 17 23
f 25 18 24
f 26 19 25
f 27 20 26
f 28 21 27
f 30 22 29
f 31 23 30
f 32 24 31
f 33 25 32
f 34 26 33
f 35 27 34
f 36 28 35
f 3 2 5
f 5 4 8
f 6 5 9
f 8 7 12
f 9 8 13
f 10 9 14
f 12 11 17
f 13 12 18
f 14 13 19
f 15 14 20
f 17 16 23
f 18 17 24
f 19 18 25
f 20 19 26
f 21 20 27
f 23 22 30
f 24 23 31
f 25 24 32
f 26 25 33
f 27 26 34
f 28 27 35
f 37 1 3
f 38 3 6
f 39 37 38
f 40 6 10
f 41 38 40
f 42 39 41
f 43 10 15
f 44 40 43
f 45 41 44
f 46 42 45
f 47 15 21
f 48 43 47
f 49 44 48
f 50 45 49
f 51 46 50
f 52 21 28
f 53 47 52
f 54 48 53
f 55 49 54
f 56 50 55
f 57 51 56
f 58 28 36
f 59 52 58
f 60 53 59
f 61 54 60
f 62 55 61
f 63 56 62
f 64 57 63
f 37 3 38
f 38 6 40
f 39 38 41
f 40 10 43
f 41 40 44
f 42 41 45
f 43 15 47
f 44 43 48
f 45 44 49
f 46 45 50
f 47 21 52
f 48 47 53
f 49 48 54
f 50 49 55
f 51 50 56
f 52 28 58
f 53 52 59
f 54 53 60
f 55 54 61
f 56 55 62
f 57 56 63
f 65 1 37
f 66 37 39
f 67 65 66
f 68 39 42
f 69 66 68
f 70 67 69
f 71 42 46
f 72 68 71
f 73 69 72
f 74 70 73
f 75 46 51
f 76 71 75
f 77 72 76
f 78 73 77
f 79 74 78
f 80 51 57
f 81 75 80
f 82 76 81
f 83 77 82
f 84 78 83
f 85 79 84
f 86 57 64
f 87 80 86
f 88 81 87
f 89 82 88
f 90 83 89
f 91 84 90
f 92 85 91
f 65 37 66
f 66 39 68
f 67 66 69
f 68 42 71
f 69 68 72
f 70 69 73
f 71 46 75
f 72 71 76
f 73 72 77
f 74 73 78
f 75 51 80
f 76 75 81
f 77 76 82
f 78 77 83
f 79 78 84
f 80 57 86
f 81 80 87
f 82 81 88
f 83 82 89
f 84 83 90
f 85 84 91
f 93 1 65
f 94 65 67
f 95 93 94
f 96 67 70
f 97 94 96
f 98 95 97
f 99 70 74
f 100 96 99
f 101 97 100
f 102 98 101
f 103 74 79
f 104 99 103
f 105 100 104
f 106 101 105
f 107 102 106
f 108 79 85
f 109 103 108
f 110 104 109
f 111 105 110
f 112 106 111
f 113 107 112
f 114 85 92
f 115 108 114
f 116 109 115
f 117 110 116
f 118 111 117
f 119 112 118
f 120 113 119
f 93 65 94
f 94 67 96
f 95 94 97
f 96 70 99
f 97 96 100
f 98 97 101
f 99 74 103
f 100 99 104
f 101 100 105
f 102 101 106
f 103 79 108
f 104 103 109
f 105 104 110
f 106 105 111
f 107 106 112
f 108 85 114
f 109 108 115
f 110 109 116
f 111 110 117
f 112 111 118
f 113 112 119
f 2 1 93
f 121 93 95
f 4 2 121
f 122 95 98
f 123 121 122
f 7 4 123
f 124 98 102
f 125 122 124
f 126 123 125
f 11 7 126
f 127 102 107
f 128 124 127
f 129 125 128
f 130 126 129
f 16 11 130
f 131 107 113
f 132 127 131
f 133 128 132
f 134 129 133
f 135 130 134
f 22 16 135
f 136 113 120
f 137 131 136
f 138 132 137
f 139 133 138
f 140 134 139
f 141 135 140
f 29 22 141
f 2 93 121
f 121 95 122
f 4 121 123
f 122 98 124
f 123 122 125
f 7 123 126
f 124 102 127
f 125 124 128
f 126 125 129
f 11 126 130
f 127 107 131
f 128 127 132
f 129 128 133
f 130 129 134
f 16 130 135
f 131 113 136
f 132 131 137
f 133 132 138
f 134 133 139
f 135 134 140
f 22 135 141
f 142 29 141
f 143 141 140
f 144 142 143
f 145 140 139
f 146 143 145
f 147 144 146
f 148 139 138
f 149 145 148
f 150 146 149
f 151 147 150
f 152 138 137
f 153 148 152
f 154 149 153
f 155 150 154
f 156 151 155
f 157 137 136
f 158 152 157
f 159 153 158
f 160 154 159
f 161 155 160
f 162 156 161
f 163 136 120
f 164 157 163
f 165 158 164
f 166 159 165
f 167 160 166
f 168 161 167
f 169 162 168
f 142 141 143
f 143 140 145
f 144 143 146
f 145 139 148
f 146 145 149
f 147 146 150
f 148 138 152
f 149 148 153
f 150 149 154
f 151 150 155
f 152 137 157
f 153 152 158
f 154 153 159
f 155 154 160
f 156 155 161
f 157 136 163
f 158 157 164
f 159 158 165
f 160 159 166
f 161 160 167
f 162 161 168
f 170 120 119
f 171 119 118
f 172 170 171
f 173 118 117
f 174 171 173
f 175 172 174
f 176 117 116
f 177 173 176
f 178 174 177
f 179 175 178
f 180 116 115
f 181 176 180
f 182 177 181
f 183 178 182
f 184 179 183
f 185 115 114
f 186 180 185
f 187 181 186
f 188 182 187
f 189 183 188
f 190 184 189
f 191 114 92
f 192 185 191
f 193 186 192
f 194 187 193
f 195 188 194
f 196 189 195
f 197 190 196
f 170 119 171
f 171 118 173
f 172 171 174
f 173 117 176
f 174 173 177
f 175 174 178
f 176 116 180
f 177 176 181
f 178 177 182
f 179 178 183
f 180 115 185
f 181 180 186
f 182 181 187
f 183 182 188
f 184 183 189
f 185 114 191
f 186 185 192
f 187 186 193
f 188 187 194
f 189 188 195
f 190 189 196
f 198 92 91
f 199 91 90
f 200 198 199
f 201 90 89
f 202 199 201
f 203 200 202
f 204 89 88
f 205 201 204
f 206 202 205
f 207 203 206
f 208 88 87
f 209 204 208
f 210 205 209
f 211 206 210
f 212 207 211
f 213 87 86
f 214 208 213
f 215 209 214
f 216 210 215
f 217 211 216
f 218 212 217
f 219 86 64
f 220 213 219
f 221 214 220
f 222 215 221
f 223 216 222
f 224 217 223
f 225 218 224
f 198 91 199
f 199 90 201
f 200 199 202
f 201 89 204
f 202 201 205
f 203 202 206
f 204 88 208
f 205 204 209
f 206 205 210
f 207 206 211
f 208 87 213
f 209 208 214
f 210 209 215
f 211 210 216
f 212 211 217
f 213 86 219
f 214 213 220
f 215 214 221
f 216 215 222
f 217 216 223
f 218 217 224
f 226 64 63
f 227 63 62
f 228 226 227
f 229 62 61
f 230 227 229
f 231 228 230
f 232 61 60
f 233 229 232
f 234 230 233
f 235 231 234
f 236 60 59
f 237 232 236
f 238 233 237
f 239 234 238
f 240 235 239
f 241 59 58
f 242 236 241
f 243 237 242
f 244 238 243
f 245 239 244
f 246 240 245
f 247 58 36
f 248 241 247
f 249 242 248
f 250 243 249
f 251 244 250
f 252 245 251
f 253 246 252
f 226 63 227
f 227 62 229
f 228 227 230
f 229 61 232
f 230 229 233
f 231 230 234
f 232 60 236
f 233 232 237
f 234 233 238
f 235 234 239
f 236 59 241
f 237 236 242
f 238 237 243
f 239 238 244
f 240 239 245
f 241 58 247
f 242 241 248
f 243 242 249
f 244 243 250
f 245 244 251
f 246 245 252
f 254 36 35
f 255 35 34
f 256 254 255
f 257 34 33
f 258 255 257
f 259 256 258
f 260 33 32
f 261 257 260
f 262 258 261
f 263 259 262
f 264 32 31
f 265 260 264
f 266 261 265
f 267 262 266
f 268 263 267
f 269 31 30
f 270 264 269
f 271 265 270
f 272 266 271
f 273 267 272
f 274 268 273
f 275 30 29
f 276 269 275
f 277 270 276
f 278 271 277
f 279 272 278
f 280 273 279
f 281 274 280
f 254 35 255
f 255 34 257
f 256 255 258
f 257 33 260
f 258 257 261
f 259 258 262
f 260 32 264
f 261 260 265
f 262 261 266
f 263 262 267
f 264 31 269
f 265 264 270
f 266 265 271
f 267 266 272
f 268 267 273
f 269 30 275
f 270 269 276
f 271 270 277
f 272 271 278
f 273 272 279
f 274 273 280
f 275 29 142
f 282 142 144
f 276 275 282
f 283 144 147
f 284 282 283
f 277 276 284
f 285 147 151
f 286 283 285
f 287 284 286
f 278 277 287
f 288 151 156
f 289 285 288
f 290 286 289
f 291 287 290
f 279 278 291
f 292 156 162
f 293 288 292
f 294 289 293
f 295 290 294
f 296 291 295
f 280 279 296
f 297 162 169
f 298 292 297
f 299 293 298
f 300 294 299
f 301 295 300
f 302 296 301
f 281 280 302
f 275 142 282
f 282 144 283
f 276 282 284
f 283 147 285
f 284 283 286
f 277 284 287
f 285 151 288
f 286 285 289
f 287 286 290
f 278 287 291
f 288 156 292
f 289 288 293
f 290 289 294
f 291 290 295
f 279 291 296
f 292 162 297
f 293 292 298
f 294 293 299
f 295 294 300
f 296 295 301
f 280 296 302
f 163 120 170
f 303 170 172
f 164 163 303
f 304 172 175
f 305 303 304
f 165 164 305
f 306 175 179
f 307 304 306
f 308 305 307
f 166 165 308
f 309 179 184
f 310 306 309
f 311 307 310
f 312 308 311
f 167 166 312
f 313 184 190
f 314 309 313
f 315 310 314
f 316 311 315
f 317 312 316
f 168 167 317
f 318 190 197
f 319 313 318
f 320 314 319
f 321 315 320
f 322 316 321
f 323 317 322
f 169 168 323
f 163 170 303
f 303 172 304
f 164 303 305
f 304 175 306
f 305 304 307
f 165 305 308
f 306 179 309
f 307 306 310
f 308 307 311
f 166 308 312
f 309 184 313
f 310 309 314
f 311 310 315
f 312 311 316
f 167 312 317
f 313 190 318
f 314 313 319
f 315 314 320
f 316 315 321
f 317 316 322
f 168 317 323
f 191 92 198
f 324 198 200
f 192 191 324
f 325 200 203
f 326 324 325
f 193 192 326
f 327 203 207
f 328 325 327
f 329 326 328
f 194 193 329
f 330 207 212
f 331 327 330
f 332 328 331
f 333 329 332
f 195 194 333
f 334 212 218
f 335 330 334
f 336 331 335
f 337 332 336
f 338 333 337
f 196 195 338
f 339 218 225
f 340 334 339
f 341 335 340
f 342 336 341
f 343 337 342
f 344 338 343
f 197 196 344
f 191 198 324
f 324 200 325
f 192 324 326
f 325 203 327
f 326 325 328
f 193 326 329
f 327 207 330
f 328 327 331
f 329 328 332
f 194 329 333
f 330 212 334
f 331 330 335
f 332 331 336
f 333 332 337
f 195 333 338
f 334 218 339
f 335 334 340
f 336 335 341
f 337 336 342
f 338 337 343
f 196 338 344
f 219 64 226
f 345 226 228
f 220 219 345
f 346 228 231
f 347 345 346
f 221 220 347
f 348 231 235
f 349 346 348
f 350 347 349
f 222 221 350
f 351 235 240
f 352 348 351
f 353 349 352
f 354 350 353
f 223 222 354
f 355 240 246
f 356 351 355
f 357 352 356
f 358 353 357
f 359 354 358
f 224 223 359
f 360 246 253
f 361 355 360
f 362 356 361
f 363 357 362
f 364 358 363
f 365 359 364
f 225 224 365
f 219 226 345
f 345 228 346
f 220 345 347
f 346 231 348
f 347 346 349
f 221 347 350
f 348 235 351
f 349 348 352
f 350 349 353
f 222 350 354
f 351 240 355
f 352 351 356
f 353 352 357
f 354 353 358
f 223 354 359
f 355 246 360
f 356 355 361
f 357 356 362
f 358 357 363
f 359 358 364
f 224 359 365
f 247 36 254
f 366 254 256
f 248 247 366
f 367 256 259
f 368 366 367
f 249 248 368
f 369 259 263
f 370 367 369
f 371 368 370
f 250 249 371
f 372 263 268
f 373 369 372
f 374 370 373
f 375 371 374
f 251 250 375
f 376 268 274
f 377 372 376
f 378 373 377
f 379 374 378
f 380 375 379
f 252 251 380
f 381 274 281
f 382 376 381
f 383 377 382
f 384 378 383
f 385 379 384
f 386 380 385
f 253 252 386
f 247 254 366
f 366 256 367
f 248 366 368
f 367 259 369
f 368 367 370
f 249 368 371
f 369 263 372
f 370 369 373
f 371 370 374
f 250 371 375
f 372 268 376
f 373 372 377
f 374 373 378
f 375 374 379
f 251 375 380
f 376 274 381
f 377 376 382
f 378 377 383
f 379 378 384
f 380 379 385
f 252 380 386
f 389 387 388
f 391 388 390
f 392 389 391
f 394 390 393
f 395 391 394
f 396 392 395
f 398 393 397
f 399 394 398
f 400 395 399
f 401 396 400
f 403 397 402
f 404 398 403
f 405 399 404
f 406 400 405
f 407 401 406
f 409 402 408
f 410 403 409
f 411 404 410
f 412 405 411
f 413 406 412
f 414 407 413
f 302 408 281
f 301 409 302
f 300 410 301
f 299 411 300
f 298 412 299
f 297 413 298
f 169 414 297
f 389 388 391
f 391 390 394
f 392 391 395
f 394 393 398
f 395 394 399
f 396 395 400
f 398 397 403
f 399 398 404
f 400 399 405
f 401 400 406
f 403 402 409
f 404 403 410
f 405 404 411
f 406 405 412
f 407 406 413
f 409 408 302
f 410 409 301
f 411 410 300
f 412 411 299
f 413 412 298
f 414 413 297
f 388 387 415
f 417 415 416
f 390 388 417
f 419 416 418
f 420 417 419
f 393 390 420
f 422 418 421
f 423 419 422
f 424 420 423
f 397 393 424
f 426 421 425
f 427 422 426
f 428 423 427
f 429 424 428
f 402 397 429
f 431 425 430
f 432 426 431
f 433 427 432
f 434 428 433
f 435 429 434
f 408 402 435
f 386 430 253
f 385 431 386
f 384 432 385
f 383 433 384
f 382 434 383
f 381 435 382
f 281 408 381
f 388 415 417
f 417 416 419
f 390 417 420
f 419 418 422
f 420 419 423
f 393 420 424
f 422 421 426
f 423 422 427
f 424 423 428
f 397 424 429
f 426 425 431
f 427 426 432
f 428 427 433
f 429 428 434
f 402 429 435
f 431 430 386
f 432 431 385
f 433 432 384
f 434 433 383
f 435 434 382
f 408 435 381
f 415 387 436
f 438 436 437
f 416 415 438
f 440 437 439
f 441 438 440
f 418 416 441
f 443 439 442
f 444 440 443
f 445 441 444
f 421 418 445
f 447 442 446
f 448 443 447
f 449 444 448
f 450 445 449
f 425 421 450
f 452 446 451
f 453 447 452
f 454 448 453
f 455 449 454
f 456 450 455
f 430 425 456
f 365 451 225
f 364 452 365
f 363 453 364
f 362 454 363
f 361 455 362
f 360 456 361
f 253 430 360
f 415 436 438
f 438 437 440
f 416 438 441
f 440 439 443
f 441 440 444
f 418 441 445
f 443 442 447
f 444 443 448
f 445 444 449
f 421 445 450
f 447 446 452
f 448 447 453
f 449 448 454
f 450 449 455
f 425 450 456
f 452 451 365
f 453 452 364
f 454 453 363
f 455 454 362
f 456 455 361
f 430 456 360
f 436 387 457
f 459 457 458
f 437 436 459
f 461 458 460
f 462 459 461
f 439 437 462
f 464 460 463
f 465 461 464
f 466 462 465
f 442 439 466
f 468 463 467
f 469 464 468
f 470 465 469
f 471 466 470
f 446 442 471
f 473 467 472
f 474 468 473
f 475 469 474
f 476 470 475
f 477 471 476
f 451 446 477
f 344 472 197
f 343 473 344
f 342 474 343
f 341 475 342
f 340 476 341
f 339 477 340
f 225 451 339
f 436 457 459
f 459 458 461
f 437 459 462
f 461 460 464
f 462 461 465
f 439 462 466
f 464 463 468
f 465 464 469
f 466 465 470
f 442 466 471
f 468 467 473
f 469 468 474
f 470 469 475
f 471 470 476
f 446 471 477
f 473 472 344
f 474 473 343
f 475 474 342
f 476 475 341
f 477 476 340
f 451 477 339
f 457 387 389
f 478 389 392
f 458 457 478
f 479 392 396
f 480 478 479
f 460 458 480
f 481 396 401
f 482 479 481
f 483 480 482
f 463 460 483
f 484 401 407
f 485 481 484
f 486 482 485
f 487 483 486
f 467 463 487
f 488 407 414
f 489 484 488
f 490 485 489
f 491 486 490
f 492 487 491
f 472 467 492
f 323 414 169
f 322 488 323
f 321 489 322
f 320 490 321
f 319 491 320
f 318 492 319
f 197 472 318
f 457 389 478
f 478 392 479
f 458 478 480
f 479 396 481
f 480 479 482
f 460 480 483
f 481 401 484
f 482 481 485
f 483 482 486
f 463 483 487
f 484 407 488
f 485 484 489
f 486 485 490
f 487 486 491
f 467 487 492
f 488 414 323
f 489 488 322
f 490 489 321
f 491 490 320
f 492 491 319
f 472 492 318
