# File exported by Houdini 20.5.445 (www.sidefx.com)
# 492 points
# 2940 vertices
# 980 primitives
# Bounds: [-138.697952, -127.300919, -1115.54077] to [309.471863, 243.678024, -639.260254]
g 
v 176.649841 116.854279 -1108.52368
v 173.235352 137.318436 -1110.93604
v 204.092041 125.922409 -1113.34766
v 170.267151 155.344406 -1106.74023
v 203.853333 146.491257 -1115.54077
v 230.483154 132.716217 -1114.40161
v 167.02887 172.321671 -1095.64648
v 202.482849 163.782257 -1110
v 231.212463 153.88179 -1114.23633
v 254.104919 138.659531 -1110.56323
v 161.348938 188.391251 -1078.1814
v 199.062744 179.370941 -1096.69824
v 229.578491 170.855988 -1105.74072
v 254.669373 160.687515 -1106.61499
v 274.083679 143.799057 -1101.48047
v 151.764526 203.258072 -1056.78394
v 191.940308 193.840729 -1076.58936
v 224.560547 185.490631 -1089.18286
v 251.841248 177.528931 -1094.21509
v 273.887939 166.431854 -1092.98291
v 289.9198 147.261063 -1087.39014
v 137.332764 216.739761 -1033.49463
v 179.362549 207.399292 -1051.9436
v 214.569763 198.770218 -1065.78149
v 244.306396 191.367111 -1073.79492
v 269.141907 182.975204 -1076.06567
v 288.272705 169.725632 -1073.86328
v 300.929382 148.097885 -1068.72852
v 119.172119 228.581223 -1008.25397
v 159.586792 219.845001 -1024.05591
v 196.743164 211.09787 -1036.82373
v 229.429932 203.406891 -1045.78613
v 257.369141 195.755051 -1050.53247
v 279.99884 185.309952 -1051.44946
v 296.295349 169.157318 -1049.56372
v 306.075623 145.83194 -1045.98926
v 195.298218 99.0175781 -1103.47168
v 222.741638 106.433136 -1106.62646
v 209.435791 75.7422943 -1092.84131
v 247.647156 111.250137 -1106.20947
v 235.378723 81.0721588 -1095.38403
v 219.186707 46.8378372 -1078.27905
v 268.836731 115.155762 -1101.29688
v 258.08728 83.7524261 -1094.29175
v 243.280579 50.2799759 -1080.92773
v 226.011353 14.3791695 -1060.45874
v 286.227905 118.107101 -1091.45874
v 276.993225 85.6903687 -1088.58667
v 264.02594 51.3866692 -1079.05103
v 248.545105 16.6785812 -1062.65527
v 231.893921 -17.8038788 -1038.80298
v 299.594238 119.429764 -1076.19263
v 292.352173 86.7844696 -1077.24097
v 281.239197 51.9220047 -1071.41895
v 267.839478 17.0006599 -1058.4856
v 253.318237 -15.9443207 -1038.59131
v 238.61615 -46.0452576 -1012.38873
v 307.973633 118.409576 -1054.83618
v 303.724243 86.3133698 -1058.64673
v 295.088867 51.5182953 -1055.93188
v 283.915771 16.6134815 -1045.89014
v 271.707581 -15.9160461 -1028.88208
v 259.329834 -44.4661102 -1006.49957
v 247.104309 -68.4720764 -980.90033
v 163.223572 93.6964417 -1100.00146
v 181.672668 70.6483917 -1090.47827
v 151.575989 65.508812 -1088.66846
v 194.406738 42.5755157 -1075.00659
v 169.524597 38.6246681 -1073.87109
v 140.470581 33.4217033 -1073.55786
v 203.125854 10.716938 -1055.71069
v 181.22876 8.00081825 -1053.16406
v 157.672668 4.64852333 -1053.04688
v 128.743591 -0.204088211 -1053.93408
v 210.255493 -22.0948792 -1033.12866
v 189.794006 -24.479454 -1028.74487
v 168.962769 -26.503479 -1026.93481
v 145.15271 -28.893528 -1027.90869
v 115.511292 -32.2827606 -1029.91577
v 218.199463 -52.3952179 -1006.5683
v 198.393005 -56.1392517 -1000.8642
v 178.487549 -58.0986328 -997.017639
v 156.771667 -58.8834229 -996.406555
v 131.504272 -59.3669434 -998.898132
v 101.224365 -60.2714996 -1002.24664
v 228.713867 -77.2378998 -974.842834
v 209.675842 -83.5848999 -968.2453
v 189.89325 -87.2087708 -962.698914
v 168.383789 -87.9582214 -960.197327
v 144.341309 -86.7009125 -961.78949
v 117.307617 -84.6268921 -966.638855
v 87.3141022 -82.5227356 -972.00238
v 145.921509 118.09613 -1102.82153
v 130.897156 90.7251129 -1094.73364
v 113.265442 115.875839 -1091.11694
v 118.601807 59.0573235 -1084.08179
v 97.0670929 83.3546906 -1083.47607
v 79.0587616 109.93689 -1073.85913
v 107.010986 24.8835449 -1069.35645
v 84.0439606 48.3346214 -1072.80835
v 61.8553314 72.9739685 -1066.15454
v 43.7376556 100.643127 -1052.54395
v 94.3278351 -9.36593628 -1049.55151
v 71.5612335 12.7255096 -1057.35376
v 47.7709198 35.7663193 -1054.59229
v 25.4418793 60.7438774 -1044.01587
v 7.63066101 88.5432892 -1029.87793
v 79.7480316 -41.155365 -1024.20898
v 57.2595673 -21.7616844 -1035.96997
v 33.347702 -0.918645859 -1037.41309
v 9.28907776 21.8102322 -1030.76831
v -12.2723236 46.7451477 -1019.71075
v -28.2663116 74.8268585 -1007.79108
v 64.1735382 -68.4264069 -993.222473
v 40.5366974 -53.3088989 -1007.35907
v 16.1016388 -35.9127274 -1012.65448
v -8.56965637 -15.9721375 -1010.28351
v -31.6776276 6.65076828 -1003.23749
v -50.2527924 32.5081406 -994.560486
v -62.2033234 61.6430168 -986.511047
v 138.531433 140.456131 -1099.1875
v 103.458557 140.430115 -1081.01294
v 133.325195 160.356857 -1088.87134
v 67.4384003 136.09491 -1058.96436
v 96.0084991 162.054855 -1066.10474
v 127.369446 179.042114 -1072.86426
v 29.8087921 127.243683 -1036.17627
v 56.7736969 158.683273 -1042.27002
v 86.4425201 181.781906 -1047.87646
v 118.227783 196.306503 -1053.13892
v -8.92961121 114.639572 -1013.83319
v 15.5245514 150.407043 -1019.33087
v 43.2530365 179.672211 -1023.67841
v 73.3471527 200.47876 -1027.51807
v 105.125488 212.348267 -1031.29248
v -47.4887543 100.166 -991.912048
v -26.9246674 138.264236 -996.952087
v -2.08473206 172.940033 -1000.48138
v 26.1904755 200.617752 -1002.61115
v 56.9084015 218.790268 -1004.51984
v 88.5318146 227.335526 -1006.79926
v 80.5940094 238.493546 -981.065613
v 45.4880829 234.771637 -979.858093
v 41.7852631 243.678024 -953.94281
v 12.0037079 220.307251 -979.913757
v 5.07273865 234.908127 -955.695374
v 4.89573669 241.579803 -928.434326
v -18.4700165 194.613403 -980.381531
v -27.9931793 213.386368 -958.953674
v -31.2379303 226.385925 -934.254517
v -27.9655304 230.476334 -905.866577
v -45.1565399 159.822174 -979.304749
v -56.9723663 180.879013 -961.159363
v -62.6144867 198.2845 -940.101196
v -62.2414093 209.053543 -915.360718
v -54.9602509 210.50116 -886.672607
v -67.6472626 118.872543 -975.576721
v -81.8117218 139.924194 -960.094666
v -89.6564789 159.894424 -942.785889
v -91.2083282 175.516235 -922.19104
v -86.3220062 183.970413 -897.887329
v -74.4477081 183.878159 -869.543091
v -85.0088654 75.1781158 -969.830872
v -102.066818 93.0553589 -954.803772
v -112.552475 113.180328 -939.986816
v -115.829834 131.790741 -923.088257
v -112.160538 145.752762 -903.023193
v -101.914658 153.089874 -879.282593
v -86.0157013 153.784317 -852.080078
v -86.5573273 31.3815498 -969.411926
v -71.7253876 -0.894989014 -975.194519
v -104.827133 4.37843323 -950.311646
v -50.3915558 -26.8708725 -980.822571
v -86.4854279 -28.106575 -953.567078
v -115.668915 -17.3180847 -928.752441
v -25.2402802 -47.7136841 -984.159241
v -62.3921051 -52.3940811 -956.193054
v -93.8708038 -48.1347809 -929.658325
v -117.643143 -32.8210602 -905.106689
v 1.72901917 -64.8028259 -982.259094
v -34.4141083 -70.7295227 -955.611633
v -66.5457001 -70.033844 -929.032837
v -92.3767242 -60.9287109 -903.694702
v -109.807144 -43.2647858 -879.815796
v 29.8254547 -78.8957214 -972.648132
v -3.44892883 -84.878067 -949.012207
v -34.4177094 -85.7644348 -924.057861
v -60.9878693 -80.3970642 -899.352417
v -80.794632 -68.3040161 -875.771851
v -92.5850067 -50.8619003 -852.994995
v 59.2451324 -91.2860565 -954.450623
v 30.6691437 -96.5665436 -934.357422
v 2.78315735 -97.8842773 -912.116211
v -22.869278 -94.5487976 -889.249878
v -44.0917206 -85.9654846 -866.914673
v -59.1790314 -72.9166412 -845.384033
v -67.8498688 -57.1479034 -824.494629
v 95.3704987 -100.498016 -937.347168
v 128.500061 -104.950333 -929.197388
v 107.64386 -113.554672 -902.707153
v 157.587463 -108.293289 -924.171265
v 143.636414 -118.490341 -894.460205
v 123.708435 -121.747391 -869.790405
v 183.109497 -109.300964 -923.929077
v 174.477966 -121.093994 -890.708862
v 161.580139 -125.874893 -862.737671
v 141.801208 -125.467529 -839.240601
v 205.774414 -106.68985 -928.057495
v 201.456055 -119.957764 -891.862549
v 193.888245 -126.089279 -860.408569
v 180.609924 -127.300919 -833.707397
v 159.771118 -124.70314 -811.053833
v 226.531677 -100.052689 -934.841064
v 225.366089 -114.237656 -896.548584
v 221.955627 -121.439331 -861.818848
v 213.435791 -123.684921 -831.719849
v 198.094238 -122.683182 -806.390991
v 175.443542 -119.127319 -784.809814
v 246.379211 -90.124176 -942.302979
v 247.082458 -104.415009 -902.953369
v 246.603943 -112.118088 -865.308228
v 241.70105 -114.848755 -831.649048
v 230.257202 -114.514069 -803.183472
v 211.868713 -112.586563 -779.802246
v 187.844604 -109.520203 -759.975342
v 263.416199 -71.4809723 -961.57843
v 275.090759 -45.7649078 -988.09137
v 278.162842 -68.9981689 -939.421509
v 285.854431 -15.5769196 -1010.14349
v 288.188416 -41.6450958 -966.823914
v 290.659973 -61.3869171 -915.61499
v 295.839417 18.2086525 -1025.77954
v 296.560669 -10.2886772 -988.439026
v 298.405212 -32.8967056 -943.454834
v 299.97229 -49.5027313 -891.240356
v 304.306396 54.2065964 -1033.6543
v 303.516174 24.5414009 -1002.34711
v 303.681396 -0.68646431 -963.765808
v 304.786804 -20.3397522 -917.996094
v 304.771912 -34.5964813 -866.431519
v 309.471863 90.4168243 -1033.54639
v 308.045593 61.7078896 -1007.30145
v 306.395508 34.9397469 -974.70697
v 305.744629 12.4874001 -935.228271
v 305.467346 -4.9345932 -889.844238
v 303.1745 -17.8879089 -840.852539
v 308.67572 124.412292 -1026.57446
v 307.498901 99.380188 -1003.4184
v 304.687744 73.2860107 -975.293396
v 301.891052 49.0624046 -941.341675
v 299.8797 28.6839561 -901.865723
v 297.809875 12.4974327 -858.642822
v 293.561523 -0.248437881 -814.499634
v 299.609741 157.137238 -1022.21527
v 284.699951 179.962906 -1023.81219
v 284.724792 164.661591 -995.761414
v 263.104736 194.904022 -1023.43195
v 263.966431 186.242386 -996.4953
v 262.176941 168.275085 -967.955139
v 235.760681 204.932571 -1020.38153
v 237.34314 200.41951 -994.659363
v 236.06897 188.619888 -968.318542
v 233.292358 168.805847 -939.59375
v 203.278503 213.267731 -1014.23102
v 205.379639 210.890793 -990.155945
v 204.559204 202.802979 -965.442078
v 202.230652 188.221649 -939.814331
v 200.021912 167.349548 -911.091187
v 165.961914 222.230118 -1004.39081
v 168.33844 220.612839 -982.196716
v 167.950928 214.351456 -958.754944
v 166.219116 202.695007 -934.923706
v 164.724182 185.733704 -910.311768
v 164.793945 164.69165 -882.817627
v 123.995667 232.110809 -990.428772
v 125.98938 231.214493 -969.612854
v 125.798706 225.654953 -947.02356
v 124.795959 215.213348 -924.077515
v 124.509705 199.993851 -901.539917
v 126.340881 181.243439 -878.795044
v 131.025146 160.888275 -853.803589
v 82.8416901 240.669281 -958.794617
v 43.793869 243.107346 -928.250854
v 83.1691132 236.32431 -935.008179
v 8.55580139 237.444992 -900.177856
v 44.9964142 234.474976 -902.53833
v 82.9379425 226.192856 -911.1073
v -21.500412 222.495392 -875.690796
v 12.4172516 224.314941 -872.926636
v 47.056778 219.481705 -877.751099
v 83.8573151 210.871155 -887.980103
v -45.0783844 198.624084 -854.72644
v -13.9338226 205.014465 -846.426025
v 18.1710358 204.470322 -846.666504
v 51.6728363 199.196548 -853.760254
v 87.4169464 191.06279 -865.303711
v -61.2649078 167.864609 -835.386475
v -33.5366669 176.647522 -822.340942
v -3.75749207 180.172775 -816.857666
v 27.5084381 179.052338 -819.749512
v 60.3276825 174.749878 -828.589355
v 94.909256 168.504807 -840.837891
v -110.708481 45.8628235 -950.603149
v -127.077423 21.5384331 -930.03064
v -126.028214 64.9905243 -934.187378
v -133.401306 2.78491402 -907.326172
v -138.00885 42.2345695 -912.283325
v -132.4496 85.3672638 -918.210083
v -128.933899 -11.5997391 -882.328491
v -138.244308 23.8168106 -887.743652
v -138.697952 62.3492508 -894.40564
v -130.117432 103.307541 -900.089844
v -113.588654 -23.4610596 -854.781128
v -126.641846 7.93338203 -859.764648
v -132.025818 42.4310646 -866.623291
v -129.788437 79.0309753 -873.315063
v -119.749649 116.342636 -877.954956
v -88.135849 -34.2509766 -823.977417
v -103.057266 -7.12512589 -826.995972
v -112.25 23.4612122 -832.887939
v -115.441742 56.3820229 -840.036621
v -112.052567 90.1306 -846.196655
v -102.143753 122.988312 -850.292114
v 68.701889 -106.015076 -917.330444
v 82.7665558 -115.11142 -882.020996
v 42.9390411 -107.406403 -896.642334
v 100.128372 -119.804199 -848.978638
v 59.3582916 -112.762985 -861.583374
v 18.5514069 -104.807373 -875.123901
v 118.819336 -120.796249 -817.890259
v 78.0973969 -114.278244 -828.271118
v 37.4017181 -106.735672 -840.331421
v -3.53211975 -97.8306274 -853.295532
v 137.01709 -118.196091 -788.013794
v 97.6223907 -113.106903 -795.384766
v 57.7168427 -105.727997 -805.574341
v 17.6702728 -97.0973206 -817.79895
v -21.7116547 -86.5861664 -831.188965
v 153.467163 -111.157166 -758.681763
v 117.010193 -109.061996 -761.794189
v 78.6307831 -103.079254 -768.529663
v 39.7204132 -94.5948029 -779.265869
v 1.61140442 -84.4299469 -792.838623
v -34.6361542 -72.1380005 -808.133423
v 264.887268 -89.8740387 -916.616211
v 280.215698 -83.5175781 -890.064209
v 266.193176 -99.452713 -873.801636
v 291.713501 -72.4074707 -864.06958
v 279.985657 -89.3039856 -845.62146
v 263.876038 -102.873642 -835.141968
v 298.682861 -57.7899475 -839.091797
v 288.404175 -75.594101 -819.131592
v 273.958496 -89.9993896 -806.952759
v 255.091187 -102.685074 -801.728882
v 299.874939 -40.6417542 -814.319946
v 290.967407 -59.2301331 -793.574585
v 277.382202 -74.7422791 -780.036133
v 259.837341 -88.3251648 -773.51123
v 238.273132 -101.001541 -773.598022
v 293.010925 -21.4711304 -788.626221
v 286.043457 -40.3554153 -767.238647
v 273.341797 -57.1620941 -752.455444
v 256.437988 -72.2277374 -744.815552
v 236.328003 -86.1387787 -744.082642
v 213.432617 -98.8846588 -749.487671
v 299.647156 134.979095 -998.110046
v 282.2901 141.255096 -967.936462
v 296.336304 109.904373 -970.978821
v 257.79425 144.141434 -937.193115
v 277.031738 116.368973 -937.39978
v 291.830505 84.8494873 -939.544434
v 227.789856 144.756546 -906.336792
v 251.17688 119.913376 -903.277588
v 271.119507 92.3944397 -902.572021
v 287.638367 61.9441757 -902.942017
v 193.909607 144.128799 -875.365479
v 220.260315 121.760269 -868.678589
v 244.173157 97.2289276 -864.328369
v 265.750244 70.6416016 -862.272705
v 284.172302 42.1777344 -861.02417
v 158.039429 142.519318 -843.736572
v 185.134399 122.499115 -833.075439
v 211.759033 100.411911 -824.290894
v 237.262512 76.5057678 -818.568604
v 260.594116 51.2520828 -815.87085
v 280.028503 25.2986565 -814.927124
v 79.9585419 17.0321274 -643.829956
v 82.3726959 44.0873451 -656.184082
v 43.4711151 32.368248 -659.438477
v 86.0018768 69.0691223 -678.715088
v 45.0634003 61.6649628 -677.387085
v 10.39711 48.5489006 -685.588379
v 90.9688873 91.320694 -708.894287
v 49.4593964 87.741684 -703.684814
v 13.3664703 79.1102142 -706.101318
v -18.3049164 66.582962 -718.983276
v 97.3211823 111.12735 -743.749146
v 56.4470367 111.024796 -734.527588
v 20.1177216 106.359253 -732.131836
v -12.6116486 98.3860779 -738.099121
v -42.4120026 87.1488953 -754.508057
v 105.600647 128.917938 -780.683228
v 65.9505157 131.872742 -768.142578
v 30.1120453 131.041519 -761.217896
v -2.914505 127.094116 -761.272827
v -33.4277496 120.185562 -770.561523
v -61.8553314 109.651611 -788.954102
v 116.614929 145.177353 -817.947266
v 78.454422 150.621277 -803.927246
v 43.2670746 153.454773 -793.274902
v 10.4171295 153.597794 -788.230225
v -20.5008087 150.527557 -791.080322
v -49.5494537 143.625839 -803.021484
v -76.5514069 132.263657 -821.734863
v 119.158875 18.7143459 -643.093506
v 157.8302 19.0478821 -652.411621
v 123.889648 46.0847435 -660.443726
v 194.168396 17.2612305 -671.30249
v 162.914001 45.2305832 -675.296631
v 128.404602 69.5536652 -688.189941
v 226.684814 13.4483337 -698.84436
v 198.762573 41.3419838 -699.80188
v 166.840881 66.7417755 -708.0177
v 133.017395 89.6742249 -723.065674
v 254.727966 8.70357704 -733.192261
v 230.062561 36.4427986 -731.73938
v 201.381287 62.0533409 -736.203491
v 170.480347 85.8419342 -746.446411
v 138.463745 107.966599 -761.82312
v 277.503967 4.07795906 -772.261353
v 257.680847 30.8914204 -770.477417
v 232.705444 56.7517548 -772.044556
v 204.921265 81.1650238 -777.966187
v 175.818726 103.969147 -788.478149
v 146.25177 125.172485 -802.508911
v 102.078369 -9.02835464 -639.260254
v 123.081482 -33.3456764 -645.702393
v 144.82428 -8.38568115 -642.325073
v 141.26532 -54.6168213 -661.146118
v 166.459473 -32.5700684 -652.91748
v 183.933655 -8.63427734 -655.912842
v 155.888062 -72.4046783 -682.701782
v 183.094482 -53.3336945 -671.443115
v 203.817078 -32.6022758 -669.96582
v 218.593628 -10.495266 -678.483643
v 167.480835 -87.1144257 -707.54895
v 195.147705 -70.9358826 -694.890991
v 217.837158 -53.0902863 -690.655029
v 235.840393 -34.1208344 -695.018066
v 248.666504 -13.8156357 -708.782837
v 177.772583 -99.3796387 -733.628906
v 204.56604 -85.9259338 -721.182617
v 227.810913 -70.6973114 -715.619873
v 247.559265 -54.3661728 -717.4823
v 263.432983 -36.8843231 -727.338623
v 273.957825 -17.6742516 -745.70105
v 55.2403412 -0.925315857 -649.105469
v 32.0081024 -16.8411789 -666.229492
v 76.514267 -28.924366 -649.286377
v 10.0365143 -29.1418419 -693.206665
v 52.4352264 -44.6262894 -670.744995
v 95.9326019 -52.7170181 -660.774536
v -11.3404694 -38.022316 -725.831787
v 29.4264069 -55.479599 -700.728638
v 70.5388336 -66.6391907 -685.638306
v 112.720093 -72.1035156 -680.093994
v -32.2778473 -44.8603516 -759.856812
v 7.03291321 -62.5209656 -735.420776
v 46.4956818 -75.4749146 -717.580933
v 86.6031952 -83.9000244 -707.164429
v 127.124573 -87.6848145 -704.165527
v -51.7349396 -50.8056946 -792.974609
v -14.7175446 -67.5719604 -771.638672
v 23.4203644 -80.6385956 -753.931885
v 62.3553009 -90.7913666 -740.635376
v 101.601562 -97.6212616 -732.934448
v 140.237 -100.472824 -730.787842
v 16.7399445 15.3901539 -671.595459
v -16.4104156 33.3726196 -704.637695
v -6.58903503 1.63301277 -695.567383
v -44.9232941 53.4660416 -742.531616
v -39.5046844 21.5184231 -732.595215
v -28.2288055 -8.91918945 -726.325073
v -69.0756073 75.9302521 -780.277344
v -68.2766571 43.2062187 -771.583374
v -61.2873383 11.9853001 -763.863525
v -49.4685822 -17.4354019 -759.336548
v -88.4185944 99.6090546 -816.248047
v -92.8665619 66.5273209 -809.615967
v -90.6322479 34.0877495 -802.080933
v -82.8317108 3.1655941 -795.598633
v -70.1139069 -25.2713699 -792.061157
g 
f 3 1 2
f 5 2 4
f 6 3 5
f 8 4 7
f 9 5 8
f 10 6 9
f 12 7 11
f 13 8 12
f 14 9 13
f 15 10 14
f 17 11 16
f 18 12 17
f 19 13 18
f 20 14 19
f 21 15 20
f 23 16 22
f 24 17 23
f 25 18 24
f 26 19 25
f 27 20 26
f 28 21 27
f 30 22 29
f 31 23 30
f 32 24 31
f 33 25 32
f 34 26 33
f 35 27 34
f 36 28 35
f 3 2 5
f 5 4 8
f 6 5 9
f 8 7 12
f 9 8 13
f 10 9 14
f 12 11 17
f 13 12 18
f 14 13 19
f 15 14 20
f 17 16 23
f 18 17 24
f 19 18 25
f 20 19 26
f 21 20 27
f 23 22 30
f 24 23 31
f 25 24 32
f 26 25 33
f 27 26 34
f 28 27 35
f 37 1 3
f 38 3 6
f 39 37 38
f 40 6 10
f 41 38 40
f 42 39 41
f 43 10 15
f 44 40 43
f 45 41 44
f 46 42 45
f 47 15 21
f 48 43 47
f 49 44 48
f 50 45 49
f 51 46 50
f 52 21 28
f 53 47 52
f 54 48 53
f 55 49 54
f 56 50 55
f 57 51 56
f 58 28 36
f 59 52 58
f 60 53 59
f 61 54 60
f 62 55 61
f 63 56 62
f 64 57 63
f 37 3 38
f 38 6 40
f 39 38 41
f 40 10 43
f 41 40 44
f 42 41 45
f 43 15 47
f 44 43 48
f 45 44 49
f 46 45 50
f 47 21 52
f 48 47 53
f 49 48 54
f 50 49 55
f 51 50 56
f 52 28 58
f 53 52 59
f 54 53 60
f 55 54 61
f 56 55 62
f 57 56 63
f 65 1 37
f 66 37 39
f 67 65 66
f 68 39 42
f 69 66 68
f 70 67 69
f 71 42 46
f 72 68 71
f 73 69 72
f 74 70 73
f 75 46 51
f 76 71 75
f 77 72 76
f 78 73 77
f 79 74 78
f 80 51 57
f 81 75 80
f 82 76 81
f 83 77 82
f 84 78 83
f 85 79 84
f 86 57 64
f 87 80 86
f 88 81 87
f 89 82 88
f 90 83 89
f 91 84 90
f 92 85 91
f 65 37 66
f 66 39 68
f 67 66 69
f 68 42 71
f 69 68 72
f 70 69 73
f 71 46 75
f 72 71 76
f 73 72 77
f 74 73 78
f 75 51 80
f 76 75 81
f 77 76 82
f 78 77 83
f 79 78 84
f 80 57 86
f 81 80 87
f 82 81 88
f 83 82 89
f 84 83 90
f 85 84 91
f 93 1 65
f 94 65 67
f 95 93 94
f 96 67 70
f 97 94 96
f 98 95 97
f 99 70 74
f 100 96 99
f 101 97 100
f 102 98 101
f 103 74 79
f 104 99 103
f 105 100 104
f 106 101 105
f 107 102 106
f 108 79 85
f 109 103 108
f 110 104 109
f 111 105 110
f 112 106 111
f 113 107 112
f 114 85 92
f 115 108 114
f 116 109 115
f 117 110 116
f 118 111 117
f 119 112 118
f 120 113 119
f 93 65 94
f 94 67 96
f 95 94 97
f 96 70 99
f 97 96 100
f 98 97 101
f 99 74 103
f 100 99 104
f 101 100 105
f 102 101 106
f 103 79 108
f 104 103 109
f 105 104 110
f 106 105 111
f 107 106 112
f 108 85 114
f 109 108 115
f 110 109 116
f 111 110 117
f 112 111 118
f 113 112 119
f 2 1 93
f 121 93 95
f 4 2 121
f 122 95 98
f 123 121 122
f 7 4 123
f 124 98 102
f 125 122 124
f 126 123 125
f 11 7 126
f 127 102 107
f 128 124 127
f 129 125 128
f 130 126 129
f 16 11 130
f 131 107 113
f 132 127 131
f 133 128 132
f 134 129 133
f 135 130 134
f 22 16 135
f 136 113 120
f 137 131 136
f 138 132 137
f 139 133 138
f 140 134 139
f 141 135 140
f 29 22 141
f 2 93 121
f 121 95 122
f 4 121 123
f 122 98 124
f 123 122 125
f 7 123 126
f 124 102 127
f 125 124 128
f 126 125 129
f 11 126 130
f 127 107 131
f 128 127 132
f 129 128 133
f 130 129 134
f 16 130 135
f 131 113 136
f 132 131 137
f 133 132 138
f 134 133 139
f 135 134 140
f 22 135 141
f 142 29 141
f 143 141 140
f 144 142 143
f 145 140 139
f 146 143 145
f 147 144 146
f 148 139 138
f 149 145 148
f 150 146 149
f 151 147 150
f 152 138 137
f 153 148 152
f 154 149 153
f 155 150 154
f 156 151 155
f 157 137 136
f 158 152 157
f 159 153 158
f 160 154 159
f 161 155 160
f 162 156 161
f 163 136 120
f 164 157 163
f 165 158 164
f 166 159 165
f 167 160 166
f 168 161 167
f 169 162 168
f 142 141 143
f 143 140 145
f 144 143 146
f 145 139 148
f 146 145 149
f 147 146 150
f 148 138 152
f 149 148 153
f 150 149 154
f 151 150 155
f 152 137 157
f 153 152 158
f 154 153 159
f 155 154 160
f 156 155 161
f 157 136 163
f 158 157 164
f 159 158 165
f 160 159 166
f 161 160 167
f 162 161 168
f 170 120 119
f 171 119 118
f 172 170 171
f 173 118 117
f 174 171 173
f 175 172 174
f 176 117 116
f 177 173 176
f 178 174 177
f 179 175 178
f 180 116 115
f 181 176 180
f 182 177 181
f 183 178 182
f 184 179 183
f 185 115 114
f 186 180 185
f 187 181 186
f 188 182 187
f 189 183 188
f 190 184 189
f 191 114 92
f 192 185 191
f 193 186 192
f 194 187 193
f 195 188 194
f 196 189 195
f 197 190 196
f 170 119 171
f 171 118 173
f 172 171 174
f 173 117 176
f 174 173 177
f 175 174 178
f 176 116 180
f 177 176 181
f 178 177 182
f 179 178 183
f 180 115 185
f 181 180 186
f 182 181 187
f 183 182 188
f 184 183 189
f 185 114 191
f 186 185 192
f 187 186 193
f 188 187 194
f 189 188 195
f 190 189 196
f 198 92 91
f 199 91 90
f 200 198 199
f 201 90 89
f 202 199 201
f 203 200 202
f 204 89 88
f 205 201 204
f 206 202 205
f 207 203 206
f 208 88 87
f 209 204 208
f 210 205 209
f 211 206 210
f 212 207 211
f 213 87 86
f 214 208 213
f 215 209 214
f 216 210 215
f 217 211 216
f 218 212 217
f 219 86 64
f 220 213 219
f 221 214 220
f 222 215 221
f 223 216 222
f 224 217 223
f 225 218 224
f 198 91 199
f 199 90 201
f 200 199 202
f 201 89 204
f 202 201 205
f 203 202 206
f 204 88 208
f 205 204 209
f 206 205 210
f 207 206 211
f 208 87 213
f 209 208 214
f 210 209 215
f 211 210 216
f 212 211 217
f 213 86 219
f 214 213 220
f 215 214 221
f 216 215 222
f 217 216 223
f 218 217 224
f 226 64 63
f 227 63 62
f 228 226 227
f 229 62 61
f 230 227 229
f 231 228 230
f 232 61 60
f 233 229 232
f 234 230 233
f 235 231 234
f 236 60 59
f 237 232 236
f 238 233 237
f 239 234 238
f 240 235 239
f 241 59 58
f 242 236 241
f 243 237 242
f 244 238 243
f 245 239 244
f 246 240 245
f 247 58 36
f 248 241 247
f 249 242 248
f 250 243 249
f 251 244 250
f 252 245 251
f 253 246 252
f 226 63 227
f 227 62 229
f 228 227 230
f 229 61 232
f 230 229 233
f 231 230 234
f 232 60 236
f 233 232 237
f 234 233 238
f 235 234 239
f 236 59 241
f 237 236 242
f 238 237 243
f 239 238 244
f 240 239 245
f 241 58 247
f 242 241 248
f 243 242 249
f 244 243 250
f 245 244 251
f 246 245 252
f 254 36 35
f 255 35 34
f 256 254 255
f 257 34 33
f 258 255 257
f 259 256 258
f 260 33 32
f 261 257 260
f 262 258 261
f 263 259 262
f 264 32 31
f 265 260 264
f 266 261 265
f 267 262 266
f 268 263 267
f 269 31 30
f 270 264 269
f 271 265 270
f 272 266 271
f 273 267 272
f 274 268 273
f 275 30 29
f 276 269 275
f 277 270 276
f 278 271 277
f 279 272 278
f 280 273 279
f 281 274 280
f 254 35 255
f 255 34 257
f 256 255 258
f 257 33 260
f 258 257 261
f 259 258 262
f 260 32 264
f 261 260 265
f 262 261 266
f 263 262 267
f 264 31 269
f 265 264 270
f 266 265 271
f 267 266 272
f 268 267 273
f 269 30 275
f 270 269 276
f 271 270 277
f 272 271 278
f 273 272 279
f 274 273 280
f 275 29 142
f 282 142 144
f 276 275 282
f 283 144 147
f 284 282 283
f 277 276 284
f 285 147 151
f 286 283 285
f 287 284 286
f 278 277 287
f 288 151 156
f 289 285 288
f 290 286 289
f 291 287 290
f 279 278 291
f 292 156 162
f 293 288 292
f 294 289 293
f 295 290 294
f 296 291 295
f 280 279 296
f 297 162 169
f 298 292 297
f 299 293 298
f 300 294 299
f 301 295 300
f 302 296 301
f 281 280 302
f 275 142 282
f 282 144 283
f 276 282 284
f 283 147 285
f 284 283 286
f 277 284 287
f 285 151 288
f 286 285 289
f 287 286 290
f 278 287 291
f 288 156 292
f 289 288 293
f 290 289 294
f 291 290 295
f 279 291 296
f 292 162 297
f 293 292 298
f 294 293 299
f 295 294 300
f 296 295 301
f 280 296 302
f 163 120 170
f 303 170 172
f 164 163 303
f 304 172 175
f 305 303 304
f 165 164 305
f 306 175 179
f 307 304 306
f 308 305 307
f 166 165 308
f 309 179 184
f 310 306 309
f 311 307 310
f 312 308 311
f 167 166 312
f 313 184 190
f 314 309 313
f 315 310 314
f 316 311 315
f 317 312 316
f 168 167 317
f 318 190 197
f 319 313 318
f 320 314 319
f 321 315 320
f 322 316 321
f 323 317 322
f 169 168 323
f 163 170 303
f 303 172 304
f 164 303 305
f 304 175 306
f 305 304 307
f 165 305 308
f 306 179 309
f 307 306 310
f 308 307 311
f 166 308 312
f 309 184 313
f 310 309 314
f 311 310 315
f 312 311 316
f 167 312 317
f 313 190 318
f 314 313 319
f 315 314 320
f 316 315 321
f 317 316 322
f 168 317 323
f 191 92 198
f 324 198 200
f 192 191 324
f 325 200 203
f 326 324 325
f 193 192 326
f 327 203 207
f 328 325 327
f 329 326 328
f 194 193 329
f 330 207 212
f 331 327 330
f 332 328 331
f 333 329 332
f 195 194 333
f 334 212 218
f 335 330 334
f 336 331 335
f 337 332 336
f 338 333 337
f 196 195 338
f 339 218 225
f 340 334 339
f 341 335 340
f 342 336 341
f 343 337 342
f 344 338 343
f 197 196 344
f 191 198 324
f 324 200 325
f 192 324 326
f 325 203 327
f 326 325 328
f 193 326 329
f 327 207 330
f 328 327 331
f 329 328 332
f 194 329 333
f 330 212 334
f 331 330 335
f 332 331 336
f 333 332 337
f 195 333 338
f 334 218 339
f 335 334 340
f 336 335 341
f 337 336 342
f 338 337 343
f 196 338 344
f 219 64 226
f 345 226 228
f 220 219 345
f 346 228 231
f 347 345 346
f 221 220 347
f 348 231 235
f 349 346 348
f 350 347 349
f 222 221 350
f 351 235 240
f 352 348 351
f 353 349 352
f 354 350 353
f 223 222 354
f 355 240 246
f 356 351 355
f 357 352 356
f 358 353 357
f 359 354 358
f 224 223 359
f 360 246 253
f 361 355 360
f 362 356 361
f 363 357 362
f 364 358 363
f 365 359 364
f 225 224 365
f 219 226 345
f 345 228 346
f 220 345 347
f 346 231 348
f 347 346 349
f 221 347 350
f 348 235 351
f 349 348 352
f 350 349 353
f 222 350 354
f 351 240 355
f 352 351 356
f 353 352 357
f 354 353 358
f 223 354 359
f 355 246 360
f 356 355 361
f 357 356 362
f 358 357 363
f 359 358 364
f 224 359 365
f 247 36 254
f 366 254 256
f 248 247 366
f 367 256 259
f 368 366 367
f 249 248 368
f 369 259 263
f 370 367 369
f 371 368 370
f 250 249 371
f 372 263 268
f 373 369 372
f 374 370 373
f 375 371 374
f 251 250 375
f 376 268 274
f 377 372 376
f 378 373 377
f 379 374 378
f 380 375 379
f 252 251 380
f 381 274 281
f 382 376 381
f 383 377 382
f 384 378 383
f 385 379 384
f 386 380 385
f 253 252 386
f 247 254 366
f 366 256 367
f 248 366 368
f 367 259 369
f 368 367 370
f 249 368 371
f 369 263 372
f 370 369 373
f 371 370 374
f 250 371 375
f 372 268 376
f 373 372 377
f 374 373 378
f 375 374 379
f 251 375 380
f 376 274 381
f 377 376 382
f 378 377 383
f 379 378 384
f 380 379 385
f 252 380 386
f 389 387 388
f 391 388 390
f 392 389 391
f 394 390 393
f 395 391 394
f 396 392 395
f 398 393 397
f 399 394 398
f 400 395 399
f 401 396 400
f 403 397 402
f 404 398 403
f 405 399 404
f 406 400 405
f 407 401 406
f 409 402 408
f 410 403 409
f 411 404 410
f 412 405 411
f 413 406 412
f 414 407 413
f 302 408 281
f 301 409 302
f 300 410 301
f 299 411 300
f 298 412 299
f 297 413 298
f 169 414 297
f 389 388 391
f 391 390 394
f 392 391 395
f 394 393 398
f 395 394 399
f 396 395 400
f 398 397 403
f 399 398 404
f 400 399 405
f 401 400 406
f 403 402 409
f 404 403 410
f 405 404 411
f 406 405 412
f 407 406 413
f 409 408 302
f 410 409 301
f 411 410 300
f 412 411 299
f 413 412 298
f 414 413 297
f 388 387 415
f 417 415 416
f 390 388 417
f 419 416 418
f 420 417 419
f 393 390 420
f 422 418 421
f 423 419 422
f 424 420 423
f 397 393 424
f 426 421 425
f 427 422 426
f 428 423 427
f 429 424 428
f 402 397 429
f 431 425 430
f 432 426 431
f 433 427 432
f 434 428 433
f 435 429 434
f 408 402 435
f 386 430 253
f 385 431 386
f 384 432 385
f 383 433 384
f 382 434 383
f 381 435 382
f 281 408 381
f 388 415 417
f 417 416 419
f 390 417 420
f 419 418 422
f 420 419 423
f 393 420 424
f 422 421 426
f 423 422 427
f 424 423 428
f 397 424 429
f 426 425 431
f 427 426 432
f 428 427 433
f 429 428 434
f 402 429 435
f 431 430 386
f 432 431 385
f 433 432 384
f 434 433 383
f 435 434 382
f 408 435 381
f 415 387 436
f 438 436 437
f 416 415 438
f 440 437 439
f 441 438 440
f 418 416 441
f 443 439 442
f 444 440 443
f 445 441 444
f 421 418 445
f 447 442 446
f 448 443 447
f 449 444 448
f 450 445 449
f 425 421 450
f 452 446 451
f 453 447 452
f 454 448 453
f 455 449 454
f 456 450 455
f 430 425 456
f 365 451 225
f 364 452 365
f 363 453 364
f 362 454 363
f 361 455 362
f 360 456 361
f 253 430 360
f 415 436 438
f 438 437 440
f 416 438 441
f 440 439 443
f 441 440 444
f 418 441 445
f 443 442 447
f 444 443 448
f 445 444 449
f 421 445 450
f 447 446 452
f 448 447 453
f 449 448 454
f 450 449 455
f 425 450 456
f 452 451 365
f 453 452 364
f 454 453 363
f 455 454 362
f 456 455 361
f 430 456 360
f 436 387 457
f 459 457 458
f 437 436 459
f 461 458 460
f 462 459 461
f 439 437 462
f 464 460 463
f 465 461 464
f 466 462 465
f 442 439 466
f 468 463 467
f 469 464 468
f 470 465 469
f 471 466 470
f 446 442 471
f 473 467 472
f 474 468 473
f 475 469 474
f 476 470 475
f 477 471 476
f 451 446 477
f 344 472 197
f 343 473 344
f 342 474 343
f 341 475 342
f 340 476 341
f 339 477 340
f 225 451 339
f 436 457 459
f 459 458 461
f 437 459 462
f 461 460 464
f 462 461 465
f 439 462 466
f 464 463 468
f 465 464 469
f 466 465 470
f 442 466 471
f 468 467 473
f 469 468 474
f 470 469 475
f 471 470 476
f 446 471 477
f 473 472 344
f 474 473 343
f 475 474 342
f 476 475 341
f 477 476 340
f 451 477 339
f 457 387 389
f 478 389 392
f 458 457 478
f 479 392 396
f 480 478 479
f 460 458 480
f 481 396 401
f 482 479 481
f 483 480 482
f 463 460 483
f 484 401 407
f 485 481 484
f 486 482 485
f 487 483 486
f 467 463 487
f 488 407 414
f 489 484 488
f 490 485 489
f 491 486 490
f 492 487 491
f 472 467 492
f 323 414 169
f 322 488 323
f 321 489 322
f 320 490 321
f 319 491 320
f 318 492 319
f 197 472 318
f 457 389 478
f 478 392 479
f 458 478 480
f 479 396 481
f 480 479 482
f 460 480 483
f 481 401 484
f 482 481 485
f 483 482 486
f 463 483 487
f 484 407 488
f 485 484 489
f 486 485 490
f 487 486 491
f 467 487 492
f 488 414 323
f 489 488 322
f 490 489 321
f 491 490 320
f 492 491 319
f 472 492 318
