# File exported by Houdini 20.5.445 (www.sidefx.com)
# 492 points
# 2940 vertices
# 980 primitives
# Bounds: [-108.821167, -240.21492, -1071.20264] to [279.595093, 356.592041, -683.598389]
g 
v 104.774658 32.2662163 -1038.81873
v 114.314758 77.6308823 -1050.08008
v 130.1745 49.8956833 -1037.02173
v 127.445557 122.427017 -1060.41479
v 143.784668 98.5845184 -1048.92065
v 155.269714 66.9446564 -1034.34534
v 142.901794 164.940781 -1067.82617
v 160.41864 144.489777 -1059.27258
v 171.795959 117.715256 -1047.28931
v 179.658203 82.8925629 -1032.20825
v 158.082336 204.700699 -1071.00769
v 177.74054 187.169174 -1065.90466
v 190.230103 164.234436 -1057.64563
v 198.098938 134.848236 -1046.39783
v 202.937988 97.715004 -1031.39307
v 170.078796 242.21933 -1069.80701
v 192.431213 227.278961 -1068.17151
v 207.580872 207.417496 -1063.7771
v 217.019775 181.889801 -1056.8689
v 222.300659 150.088028 -1046.68726
v 224.596558 111.810043 -1031.88843
v 176.916748 277.49173 -1064.41272
v 202.010803 265.518097 -1065.74023
v 220.539307 248.385193 -1065.03113
v 233.257629 225.778503 -1062.23816
v 240.617065 197.431213 -1056.77869
v 243.740906 163.692001 -1047.37549
v 243.677185 125.432419 -1032.7699
v 177.989624 309.096863 -1054.80432
v 205.046082 301.147949 -1057.76965
v 227.025024 287.196838 -1059.89026
v 243.725525 267.218719 -1060.84143
v 254.881836 241.376587 -1059.71106
v 260.418396 210.328751 -1055.39014
v 261.426758 175.454712 -1046.48352
v 259.120667 138.208527 -1032.30334
v 113.936584 -1.40470123 -1026.3822
v 139.528381 15.2842789 -1022.85754
v 124.503296 -33.5997009 -1013.21582
v 163.284546 30.7584763 -1018.95959
v 149.122131 -17.2924919 -1008.71533
v 134.964539 -64.0994263 -999.023315
v 185.668335 45.3689423 -1015.94849
v 170.895691 -2.4119091 -1003.83008
v 157.368896 -47.8964386 -993.886719
v 143.289246 -92.597702 -983.208496
v 207.076233 59.9115448 -1014.48364
v 191.18512 12.1079941 -999.835083
v 176.733154 -32.896637 -987.951294
v 162.868286 -76.2153473 -977.426514
v 148.550354 -118.271805 -965.192627
v 227.390991 75.2997665 -1014.51404
v 210.974792 27.6186905 -997.356934
v 195.179626 -17.5815964 -982.688721
v 180.117676 -60.5972137 -970.265137
v 165.633057 -101.573257 -958.577026
v 151.759338 -140.169876 -944.754761
v 245.869141 92.0225372 -1014.9325
v 230.550659 45.5189285 -996.195557
v 214.207336 0.02394104 -978.565918
v 197.764587 -43.6272507 -963.189453
v 181.980591 -84.845932 -949.777466
v 167.511047 -122.989456 -936.869995
v 155.59436 -157.408035 -921.887573
v 85.7064209 -6.55757141 -1030.92334
v 97.0949707 -43.6194077 -1016.39246
v 68.9418945 -44.239296 -1017.95544
v 109.535522 -76.5135269 -1000.9585
v 82.9173584 -81.7241669 -1000.26025
v 54.8505859 -79.5707779 -998.714111
v 120.872253 -106.287033 -984.318237
v 96.892395 -113.658401 -982.007446
v 71.3143311 -115.844528 -978.150146
v 43.8464966 -111.551834 -973.799316
v 129.56073 -133.427292 -965.671387
v 109.136414 -142.305435 -962.337646
v 87.142334 -146.642212 -956.938232
v 63.347229 -146.609116 -950.824829
v 37.2701416 -140.037735 -944.810425
v 136.096497 -157.632538 -943.989502
v 119.702087 -168.847076 -939.669678
v 101.94165 -175.186081 -933.190918
v 82.3616333 -177.36441 -926.141235
v 60.229187 -174.723373 -919.494019
v 35.1999512 -164.905792 -914.456421
v 142.682373 -177.833771 -918.393188
v 129.848816 -192.501541 -912.168823
v 116.05835 -201.784302 -904.306885
v 100.402649 -206.147217 -896.665527
v 81.7565308 -205.473267 -890.415771
v 59.8002319 -198.775436 -886.37207
v 35.3546143 -184.359436 -884.951416
v 83.9228516 43.0713348 -1045.47778
v 61.5657959 2.24611473 -1034.99744
v 63.022644 54.993988 -1048.85767
v 43.0892334 -36.0427017 -1018.54724
v 39.0125732 12.7462692 -1035.22961
v 41.6482544 67.5946274 -1048.20312
v 28.2576294 -70.8096466 -995.420166
v 19.8733521 -25.021843 -1014.82202
v 17.0644531 25.4746513 -1030.77625
v 19.0084229 80.4788589 -1042.88416
v 17.3817139 -101.494064 -966.609863
v 4.77960205 -58.0270615 -987.31604
v -2.20080566 -10.3904228 -1005.97375
v -5.53204346 40.1879196 -1021.18262
v -5.71929932 92.746376 -1032.57043
v 11.5701904 -128.78183 -934.799683
v -6.128479 -87.1906738 -954.951782
v -17.6692505 -41.4944916 -974.689575
v -24.8518066 6.53263855 -992.743408
v -29.9968262 55.217247 -1007.08081
v -31.3623047 104.309814 -1018.46704
v 10.479126 -152.061203 -902.566162
v -11.6029663 -113.045944 -920.589355
v -29.0856323 -69.3012161 -939.39563
v -41.6010742 -23.1170616 -958.54895
v -50.34375 23.7077522 -976.009766
v -56.1296997 69.8212509 -990.119385
v -56.1504517 115.329025 -1002.35437
v 93.5700073 92.7418365 -1057.33118
v 72.1956787 107.470047 -1060.02258
v 106.118958 138.835999 -1066.43579
v 49.3584595 121.184494 -1057.81274
v 83.7602539 153.93808 -1066.9259
v 120.417236 180.901947 -1071.16943
v 23.7471924 132.572754 -1050.53906
v 58.6143799 166.442673 -1062.0083
v 96.2092285 194.996445 -1068.79285
v 133.810242 219.920898 -1071.20264
v -4.22143555 142.552246 -1038.33704
v 29.9871826 176.533264 -1051.99268
v 68.2454834 206.464539 -1060.94006
v 106.941711 233.105377 -1065.79797
v 143.485413 257.074432 -1066.71277
v -33.1135864 152.218231 -1021.89648
v -1.5145874 186.03746 -1036.7428
v 35.8670654 216.73143 -1047.48279
v 75.3529663 244.826324 -1054.49524
v 113.292603 270.457123 -1057.78162
v 147.647034 292.611389 -1057.59351
v 155.758545 326.44812 -1043.75391
v 119.655518 306.321838 -1045.58179
v 128.713318 335.967346 -1029.68384
v 81.0723267 280.952209 -1043.74646
v 88.2641602 312.171326 -1030.14392
v 99.0612183 337.380737 -1012.47302
v 40.7339478 253.052277 -1038.04932
v 47.2779541 284.515686 -1025.94739
v 56.2503662 311.166382 -1010.89539
v 68.5907593 330.926147 -991.691772
v 0.571044922 222.774384 -1028.90198
v 6.01330566 254.568909 -1018.21729
v 14.161499 281.671326 -1004.68506
v 25.020813 303.181396 -988.027466
v 38.9742432 317.053467 -967.35144
v -36.1619263 188.827179 -1016.18347
v -33.814209 221.361008 -1007.10596
v -27.2614746 249.254822 -994.973633
v -17.3466187 271.80954 -979.908325
v -4.04333496 288.181458 -961.61377
v 12.1329956 297.383423 -940.376953
v -65.3741455 149.712112 -998.020264
v -68.3527832 182.476181 -990.883301
v -65.6213989 211.753769 -980.165527
v -57.730896 236.151245 -966.422363
v -45.0450439 254.797882 -949.815552
v -28.8239136 267.511078 -931.08374
v -10.6523438 274.065826 -911.351074
v -79.0108643 98.2677612 -977.522095
v -75.8845215 47.8419266 -961.43457
v -95.065918 81.5777283 -950.870239
v -66.1541138 -0.958917618 -943.954956
v -87.4772339 28.1119766 -932.755493
v -102.905334 66.4317474 -922.899048
v -52.1452637 -48.8075409 -924.716064
v -73.2727051 -22.1675377 -914.059204
v -91.0159912 11.8168297 -904.566528
v -103.502258 53.3939514 -893.836792
v -32.9189453 -94.8242416 -905.601562
v -53.9832764 -70.152298 -894.784424
v -73.0948486 -38.5388031 -885.910645
v -88.9702148 -0.598697662 -876.1073
v -100.346619 42.2271347 -863.240479
v -8.75817871 -138.166794 -887.15332
v -29.2435913 -115.820419 -875.589478
v -49.7462769 -85.9722748 -866.498413
v -68.4677124 -49.7139587 -857.599365
v -84.6347656 -9.57712555 -845.98291
v -96.7391968 32.2358131 -830.956909
v 19.0751343 -176.773102 -868.596924
v 0.120788574 -158.62764 -855.579468
v -21.22229 -131.046234 -845.343018
v -42.9264526 -95.8800507 -836.298584
v -63.4719238 -56.4727402 -825.938599
v -81.473999 -16.3226089 -812.516357
v -94.2203369 22.873455 -797.7323
v 50.541748 -207.821167 -856.461548
v 76.897644 -222.861832 -855.962158
v 62.5774536 -222.255554 -828.420288
v 98.5340576 -228.608627 -859.041138
v 89.6083374 -236.388016 -827.095093
v 69.8928833 -226.187866 -801.512085
v 115.694946 -227.308426 -865.297607
v 110.797729 -240.21492 -830.235474
v 97.3303223 -238.686295 -800.395142
v 72.4233398 -219.44693 -776.901855
v 129.577759 -219.773041 -874.2052
v 127.439514 -236.122574 -837.478149
v 118.799316 -240.07515 -804.511597
v 100.618347 -229.765213 -776.923462
v 71.3057861 -203.335373 -755.761597
v 141.822449 -205.637375 -884.468018
v 141.382507 -224.397583 -848.389404
v 136.358337 -232.29985 -813.556519
v 123.387207 -227.866867 -782.728638
v 100.610413 -210.350891 -757.656982
v 67.8442993 -180.328629 -738.564941
v 154.194031 -183.792725 -893.811646
v 154.608276 -203.497421 -861.304077
v 152.166931 -214.247284 -827.068359
v 143.105652 -214.373108 -794.304443
v 125.105286 -203.301804 -765.800171
v 97.7509155 -182.102676 -742.952637
v 63.0327759 -153.155045 -725.434082
v 167.813904 -148.463272 -908.946289
v 182.015991 -108.875748 -925.970459
v 181.825989 -132.041107 -897.818237
v 198.661377 -66.8164444 -941.504272
v 197.967896 -87.8906708 -917.816528
v 196.111816 -108.738327 -888.782227
v 216.160889 -22.6379433 -958.355835
v 215.84906 -42.5441132 -936.514771
v 213.62738 -61.3646088 -911.80127
v 207.941284 -80.1152344 -881.518677
v 233.507874 23.6111374 -977.500732
v 233.850403 4.18262482 -956.816895
v 231.722534 -13.6313591 -933.388916
v 226.249817 -31.1147881 -906.983398
v 214.751099 -48.3693237 -875.546021
v 249.676514 71.8777542 -998.442139
v 250.861511 52.9443588 -979.20105
v 249.085327 35.3048477 -956.525146
v 243.743469 18.1425705 -930.784668
v 233.073853 1.03903389 -902.434692
v 215.423584 -15.6194534 -870.354004
v 263.659119 121.649628 -1019.04578
v 265.627075 104.26268 -1002.06689
v 264.502075 86.6763992 -980.713379
v 259.3703 69.0929642 -955.194458
v 249.101868 51.3726578 -926.756226
v 232.988464 33.4965439 -896.748169
v 210.804504 16.4736595 -865.215332
v 272.274963 171.949158 -1037.87683
v 273.705139 211.988647 -1048.78369
v 279.393982 200.683792 -1035.41589
v 270.051086 247.36499 -1053.08289
v 277.80481 240.946503 -1041.15833
v 279.595093 223.119781 -1023.13208
v 260.294373 277.582977 -1053.19678
v 269.833313 275.448547 -1041.02087
v 273.524658 262.45813 -1024.03137
v 272.552002 239.494019 -1002.00354
v 244.326538 302.102173 -1050.7666
v 255.435059 304.575562 -1037.76685
v 260.779175 295.89209 -1020.4762
v 261.382019 277.532501 -999.346313
v 258.653931 250.675293 -974.869873
v 222.051636 320.30304 -1047.25232
v 234.146423 327.949402 -1033.23804
v 240.987915 324.077576 -1015.20422
v 243.177856 309.77533 -993.702148
v 242.131287 286.909058 -969.940063
v 238.855164 257.503387 -945.394531
v 192.889404 331.245178 -1043.62134
v 204.602905 344.058228 -1028.84509
v 212.49707 345.782043 -1009.99548
v 216.307983 336.170837 -987.581421
v 217.105469 316.924866 -963.320435
v 216.101257 290.82074 -939.310425
v 213.94397 260.68811 -917.302612
v 168.419678 347.554077 -1028.11841
v 140.405029 353.586121 -1010.32788
v 177.645264 356.202393 -1008.39648
v 110.205322 349.694824 -990.203247
v 147.879517 356.592041 -986.76062
v 183.051453 352.283142 -984.789062
v 79.272583 336.891907 -967.043945
v 116.640137 346.688232 -963.776978
v 151.966125 346.75647 -959.806274
v 185.532532 336.860229 -958.624878
v 49.3259888 316.57019 -940.167969
v 85.2174683 327.858887 -938.110107
v 120.210205 331.037659 -934.119873
v 154.11792 325.703857 -930.906372
v 186.362854 311.981873 -931.856812
v 21.5204468 290.281738 -909.991821
v 54.6254272 301.299194 -908.167358
v 88.4435425 306.046753 -905.505249
v 122.384094 303.950073 -902.419067
v 155.418823 294.963013 -901.86731
v 186.344666 279.995087 -906.502563
v -89.5691528 134.952347 -971.264282
v -103.772949 120.469238 -942.526733
v -92.1317139 168.371231 -961.894043
v -108.821167 106.876343 -911.833984
v -104.044861 154.26059 -930.442261
v -87.894165 196.812561 -948.715576
v -107.587036 93.8937988 -878.962036
v -106.84436 140.131744 -896.251831
v -97.5617676 181.827438 -914.4552
v -77.3179321 219.486374 -932.553345
v -104.289978 80.6617661 -843.397217
v -104.706543 125.348206 -858.930542
v -98.6218262 166.130096 -876.794922
v -84.5355225 202.903152 -895.532715
v -61.0603638 236.122314 -913.744385
v -101.138794 66.5782013 -805.766113
v -101.418762 108.749252 -818.141968
v -95.7322388 148.334152 -834.77478
v -84.1311646 184.639114 -854.124512
v -65.6855469 217.186935 -873.994629
v -40.7203369 246.62088 -893.202026
v 31.8858032 -195.428848 -838.494751
v 39.5566406 -201.991882 -810.121948
v 9.57940674 -170.478394 -825.240601
v 41.9129639 -197.306076 -783.80603
v 12.9802246 -169.262238 -797.039551
v -15.2371216 -136.011459 -814.734131
v 39.984375 -183.164093 -759.933594
v 11.1895752 -157.767944 -770.651489
v -15.7297974 -128.819427 -785.709229
v -40.6038208 -95.4341736 -804.126099
v 35.1829834 -162.057632 -738.652344
v 5.51635742 -138.799149 -745.454834
v -21.2753906 -112.998993 -757.080688
v -44.7945557 -84.4654007 -772.337646
v -64.8335571 -52.4696808 -790.880981
v 29.3852539 -136.190353 -720.389771
v -1.86834717 -114.611099 -721.60437
v -29.6779785 -90.9857025 -728.153931
v -53.0632935 -65.8898926 -739.446045
v -71.4710083 -38.739502 -755.22876
v -84.8771362 -9.07201385 -774.878784
v 167.605408 -171.990997 -878.17395
v 180.458435 -151.612076 -865.351807
v 166.58313 -186.400986 -844.6875
v 190.855713 -124.304428 -855.189697
v 175.410034 -160.851517 -831.583252
v 160.095886 -190.81369 -810.867432
v 196.459656 -91.9083099 -847.112305
v 179.347168 -128.891922 -821.30835
v 162.479675 -159.750305 -798.319824
v 144.782532 -184.639404 -779.149048
v 195.703552 -56.1187057 -840.789917
v 176.499146 -91.9511337 -813.094604
v 157.537659 -122.703781 -788.190796
v 138.409119 -148.13533 -767.102295
v 118.590332 -168.023376 -751.307861
v 189.0047 -18.2868156 -835.847046
v 166.596924 -50.8335571 -806.759033
v 144.272705 -80.032196 -779.746582
v 122.556946 -105.18367 -756.639893
v 101.71405 -125.879471 -738.959473
v 81.7804565 -141.895325 -728.136719
v 275.267395 154.592834 -1022.24353
v 279.57373 180.225311 -1016.08337
v 274.858032 135.96196 -1001.87573
v 276.784424 199.056412 -999.864746
v 275.745361 159.155975 -991.739746
v 270.190369 116.988174 -976.434326
v 267.056641 212.460724 -975.274048
v 269.344482 175.630981 -971.854126
v 266.724609 138.27948 -962.212036
v 260.122009 97.7070694 -946.691406
v 250.40094 221.632523 -945.719238
v 256.212036 186.854416 -944.390381
v 256.02179 152.559647 -938.835083
v 251.432495 116.794205 -928.47998
v 243.697266 77.5389938 -914.005371
v 226.515198 227.736603 -914.733765
v 234.761047 194.625809 -912.678589
v 237.285828 161.838531 -908.379761
v 234.264465 128.789703 -901.306152
v 227.822205 94.0823441 -891.549194
v 219.699097 56.6181488 -879.334351
v 10.2630615 103.789154 -736.318604
v 44.9285889 128.04007 -765.557983
v 5.06958008 133.612473 -751.731812
v 80.0673828 151.794708 -793.705933
v 40.743103 161.416428 -782.430298
v 1.09735107 162.588165 -770.838013
v 113.566956 175.080734 -818.748779
v 74.8790283 187.162689 -809.491089
v 36.4777222 192.551743 -800.964111
v -2.39727783 190.049667 -793.858521
v 144.066956 197.803268 -841.739136
v 106.245789 211.696411 -832.767944
v 68.9053955 219.600479 -826.940918
v 31.644165 221.039047 -822.91687
v -5.84985352 215.536453 -820.383423
v 170.9375 219.87175 -864.937866
v 134.864319 235.419342 -854.964355
v 98.678894 245.232788 -850.646484
v 62.6149902 249.254181 -849.05896
v 26.8389282 247.042603 -848.664795
v -8.89086914 238.543945 -849.390503
v 194.059448 241.053223 -889.765137
v 161.330933 258.359528 -878.748779
v 127.040588 270.41748 -874.606812
v 92.1599731 276.566925 -874.739258
v 57.3677979 276.633087 -876.179443
v 23.0796509 270.404083 -877.922607
v -10.7053833 258.394501 -880.160034
v 38.2900391 88.8137436 -743.294678
v 68.2567139 74.5250778 -755.256104
v 78.0516357 113.739578 -775.338135
v 98.977356 61.1493454 -772.262329
v 110.361755 100.457611 -789.249756
v 115.653748 137.433777 -804.674438
v 129.77948 48.6887894 -793.410278
v 140.989258 88.3052826 -807.645996
v 148.338684 124.634552 -820.111816
v 149.825134 160.414398 -831.270752
v 160.01239 37.041481 -816.934326
v 169.595398 77.3414612 -829.838257
v 177.908447 113.377151 -840.155518
v 181.905945 147.979568 -849.091553
v 179.964355 182.948822 -857.159302
v 187.860413 26.30867 -841.285034
v 196.218506 67.0466385 -854.205078
v 204.313538 103.567322 -864.392334
v 210.05481 137.598709 -872.401245
v 210.886047 171.099945 -879.233521
v 205.492371 205.328415 -884.582642
v -5.00231934 69.5532837 -712.969604
v -14.4588013 34.6460304 -696.660278
v 24.5735474 51.6850052 -722.063721
v -15.3595581 -0.863773346 -689.49646
v 18.1500244 15.2829971 -709.237305
v 56.1994019 35.7466431 -737.537598
v -6.3380127 -37.4298935 -690.973267
v 21.5825806 -21.5250473 -704.76709
v 53.4459839 -2.09217453 -727.890747
v 89.5535889 20.9275932 -757.918945
v 11.845459 -75.5371399 -698.784912
v 35.1005249 -59.9468384 -707.295166
v 61.4443359 -41.0359116 -725.342773
v 91.1934814 -18.9782333 -750.662354
v 124.301514 6.71953583 -781.708374
v 36.4138794 -114.654099 -710.663208
v 56.5196533 -100.323013 -715.369019
v 78.7596436 -82.2418518 -729.138184
v 103.27948 -60.6494446 -750.142456
v 130.04657 -35.5016861 -776.936646
v 158.579224 -6.55821228 -807.92395
v -24.6471558 96.9952545 -719.091553
v -53.8583374 88.7267609 -709.924927
v -39.4076538 59.5999222 -696.484131
v -75.8988037 79.0111542 -710.793335
v -64.9484253 48.7247849 -691.782349
v -45.0390015 22.8955116 -684.66626
v -89.9484253 67.8432388 -722.158569
v -81.6408081 36.6967163 -698.781738
v -65.0309448 10.2557182 -686.36377
v -40.2952271 -13.9375191 -683.598389
v -96.5602417 55.0002747 -742.407837
v -89.6356812 23.3430367 -716.595459
v -75.6361084 -3.89282227 -699.83667
v -54.1277466 -28.4482994 -691.508911
v -25.3276978 -52.213089 -691.109985
v -97.3341675 40.0504532 -768.691284
v -90.0668335 8.25579453 -742.955444
v -77.3709106 -19.9913559 -723.512085
v -58.2282104 -45.4583893 -710.597412
v -32.7177124 -69.4598236 -704.249268
v -1.17596436 -93.0423889 -704.05542
v -30.7319946 127.599152 -738.311646
v -34.2418213 156.070496 -762.866943
v -58.9102783 119.885117 -734.27124
v -36.680481 182.559799 -791.749268
v -60.9210815 148.119034 -764.266479
v -79.2130737 110.548889 -740.082764
v -38.8445435 206.885941 -823.430786
v -62.3641968 173.94014 -798.04248
v -80.1621704 138.426117 -774.360229
v -92.2282104 99.1990814 -755.008667
v -40.4703369 228.541016 -857.401733
v -64.1268311 197.225143 -834.592651
v -81.5757446 163.200623 -812.377686
v -93.293457 125.886627 -792.570557
v -99.0999146 84.8992767 -777.608643
g 
f 3 1 2
f 5 2 4
f 6 3 5
f 8 4 7
f 9 5 8
f 10 6 9
f 12 7 11
f 13 8 12
f 14 9 13
f 15 10 14
f 17 11 16
f 18 12 17
f 19 13 18
f 20 14 19
f 21 15 20
f 23 16 22
f 24 17 23
f 25 18 24
f 26 19 25
f 27 20 26
f 28 21 27
f 30 22 29
f 31 23 30
f 32 24 31
f 33 25 32
f 34 26 33
f 35 27 34
f 36 28 35
f 3 2 5
f 5 4 8
f 6 5 9
f 8 7 12
f 9 8 13
f 10 9 14
f 12 11 17
f 13 12 18
f 14 13 19
f 15 14 20
f 17 16 23
f 18 17 24
f 19 18 25
f 20 19 26
f 21 20 27
f 23 22 30
f 24 23 31
f 25 24 32
f 26 25 33
f 27 26 34
f 28 27 35
f 37 1 3
f 38 3 6
f 39 37 38
f 40 6 10
f 41 38 40
f 42 39 41
f 43 10 15
f 44 40 43
f 45 41 44
f 46 42 45
f 47 15 21
f 48 43 47
f 49 44 48
f 50 45 49
f 51 46 50
f 52 21 28
f 53 47 52
f 54 48 53
f 55 49 54
f 56 50 55
f 57 51 56
f 58 28 36
f 59 52 58
f 60 53 59
f 61 54 60
f 62 55 61
f 63 56 62
f 64 57 63
f 37 3 38
f 38 6 40
f 39 38 41
f 40 10 43
f 41 40 44
f 42 41 45
f 43 15 47
f 44 43 48
f 45 44 49
f 46 45 50
f 47 21 52
f 48 47 53
f 49 48 54
f 50 49 55
f 51 50 56
f 52 28 58
f 53 52 59
f 54 53 60
f 55 54 61
f 56 55 62
f 57 56 63
f 65 1 37
f 66 37 39
f 67 65 66
f 68 39 42
f 69 66 68
f 70 67 69
f 71 42 46
f 72 68 71
f 73 69 72
f 74 70 73
f 75 46 51
f 76 71 75
f 77 72 76
f 78 73 77
f 79 74 78
f 80 51 57
f 81 75 80
f 82 76 81
f 83 77 82
f 84 78 83
f 85 79 84
f 86 57 64
f 87 80 86
f 88 81 87
f 89 82 88
f 90 83 89
f 91 84 90
f 92 85 91
f 65 37 66
f 66 39 68
f 67 66 69
f 68 42 71
f 69 68 72
f 70 69 73
f 71 46 75
f 72 71 76
f 73 72 77
f 74 73 78
f 75 51 80
f 76 75 81
f 77 76 82
f 78 77 83
f 79 78 84
f 80 57 86
f 81 80 87
f 82 81 88
f 83 82 89
f 84 83 90
f 85 84 91
f 93 1 65
f 94 65 67
f 95 93 94
f 96 67 70
f 97 94 96
f 98 95 97
f 99 70 74
f 100 96 99
f 101 97 100
f 102 98 101
f 103 74 79
f 104 99 103
f 105 100 104
f 106 101 105
f 107 102 106
f 108 79 85
f 109 103 108
f 110 104 109
f 111 105 110
f 112 106 111
f 113 107 112
f 114 85 92
f 115 108 114
f 116 109 115
f 117 110 116
f 118 111 117
f 119 112 118
f 120 113 119
f 93 65 94
f 94 67 96
f 95 94 97
f 96 70 99
f 97 96 100
f 98 97 101
f 99 74 103
f 100 99 104
f 101 100 105
f 102 101 106
f 103 79 108
f 104 103 109
f 105 104 110
f 106 105 111
f 107 106 112
f 108 85 114
f 109 108 115
f 110 109 116
f 111 110 117
f 112 111 118
f 113 112 119
f 2 1 93
f 121 93 95
f 4 2 121
f 122 95 98
f 123 121 122
f 7 4 123
f 124 98 102
f 125 122 124
f 126 123 125
f 11 7 126
f 127 102 107
f 128 124 127
f 129 125 128
f 130 126 129
f 16 11 130
f 131 107 113
f 132 127 131
f 133 128 132
f 134 129 133
f 135 130 134
f 22 16 135
f 136 113 120
f 137 131 136
f 138 132 137
f 139 133 138
f 140 134 139
f 141 135 140
f 29 22 141
f 2 93 121
f 121 95 122
f 4 121 123
f 122 98 124
f 123 122 125
f 7 123 126
f 124 102 127
f 125 124 128
f 126 125 129
f 11 126 130
f 127 107 131
f 128 127 132
f 129 128 133
f 130 129 134
f 16 130 135
f 131 113 136
f 132 131 137
f 133 132 138
f 134 133 139
f 135 134 140
f 22 135 141
f 142 29 141
f 143 141 140
f 144 142 143
f 145 140 139
f 146 143 145
f 147 144 146
f 148 139 138
f 149 145 148
f 150 146 149
f 151 147 150
f 152 138 137
f 153 148 152
f 154 149 153
f 155 150 154
f 156 151 155
f 157 137 136
f 158 152 157
f 159 153 158
f 160 154 159
f 161 155 160
f 162 156 161
f 163 136 120
f 164 157 163
f 165 158 164
f 166 159 165
f 167 160 166
f 168 161 167
f 169 162 168
f 142 141 143
f 143 140 145
f 144 143 146
f 145 139 148
f 146 145 149
f 147 146 150
f 148 138 152
f 149 148 153
f 150 149 154
f 151 150 155
f 152 137 157
f 153 152 158
f 154 153 159
f 155 154 160
f 156 155 161
f 157 136 163
f 158 157 164
f 159 158 165
f 160 159 166
f 161 160 167
f 162 161 168
f 170 120 119
f 171 119 118
f 172 170 171
f 173 118 117
f 174 171 173
f 175 172 174
f 176 117 116
f 177 173 176
f 178 174 177
f 179 175 178
f 180 116 115
f 181 176 180
f 182 177 181
f 183 178 182
f 184 179 183
f 185 115 114
f 186 180 185
f 187 181 186
f 188 182 187
f 189 183 188
f 190 184 189
f 191 114 92
f 192 185 191
f 193 186 192
f 194 187 193
f 195 188 194
f 196 189 195
f 197 190 196
f 170 119 171
f 171 118 173
f 172 171 174
f 173 117 176
f 174 173 177
f 175 174 178
f 176 116 180
f 177 176 181
f 178 177 182
f 179 178 183
f 180 115 185
f 181 180 186
f 182 181 187
f 183 182 188
f 184 183 189
f 185 114 191
f 186 185 192
f 187 186 193
f 188 187 194
f 189 188 195
f 190 189 196
f 198 92 91
f 199 91 90
f 200 198 199
f 201 90 89
f 202 199 201
f 203 200 202
f 204 89 88
f 205 201 204
f 206 202 205
f 207 203 206
f 208 88 87
f 209 204 208
f 210 205 209
f 211 206 210
f 212 207 211
f 213 87 86
f 214 208 213
f 215 209 214
f 216 210 215
f 217 211 216
f 218 212 217
f 219 86 64
f 220 213 219
f 221 214 220
f 222 215 221
f 223 216 222
f 224 217 223
f 225 218 224
f 198 91 199
f 199 90 201
f 200 199 202
f 201 89 204
f 202 201 205
f 203 202 206
f 204 88 208
f 205 204 209
f 206 205 210
f 207 206 211
f 208 87 213
f 209 208 214
f 210 209 215
f 211 210 216
f 212 211 217
f 213 86 219
f 214 213 220
f 215 214 221
f 216 215 222
f 217 216 223
f 218 217 224
f 226 64 63
f 227 63 62
f 228 226 227
f 229 62 61
f 230 227 229
f 231 228 230
f 232 61 60
f 233 229 232
f 234 230 233
f 235 231 234
f 236 60 59
f 237 232 236
f 238 233 237
f 239 234 238
f 240 235 239
f 241 59 58
f 242 236 241
f 243 237 242
f 244 238 243
f 245 239 244
f 246 240 245
f 247 58 36
f 248 241 247
f 249 242 248
f 250 243 249
f 251 244 250
f 252 245 251
f 253 246 252
f 226 63 227
f 227 62 229
f 228 227 230
f 229 61 232
f 230 229 233
f 231 230 234
f 232 60 236
f 233 232 237
f 234 233 238
f 235 234 239
f 236 59 241
f 237 236 242
f 238 237 243
f 239 238 244
f 240 239 245
f 241 58 247
f 242 241 248
f 243 242 249
f 244 243 250
f 245 244 251
f 246 245 252
f 254 36 35
f 255 35 34
f 256 254 255
f 257 34 33
f 258 255 257
f 259 256 258
f 260 33 32
f 261 257 260
f 262 258 261
f 263 259 262
f 264 32 31
f 265 260 264
f 266 261 265
f 267 262 266
f 268 263 267
f 269 31 30
f 270 264 269
f 271 265 270
f 272 266 271
f 273 267 272
f 274 268 273
f 275 30 29
f 276 269 275
f 277 270 276
f 278 271 277
f 279 272 278
f 280 273 279
f 281 274 280
f 254 35 255
f 255 34 257
f 256 255 258
f 257 33 260
f 258 257 261
f 259 258 262
f 260 32 264
f 261 260 265
f 262 261 266
f 263 262 267
f 264 31 269
f 265 264 270
f 266 265 271
f 267 266 272
f 268 267 273
f 269 30 275
f 270 269 276
f 271 270 277
f 272 271 278
f 273 272 279
f 274 273 280
f 275 29 142
f 282 142 144
f 276 275 282
f 283 144 147
f 284 282 283
f 277 276 284
f 285 147 151
f 286 283 285
f 287 284 286
f 278 277 287
f 288 151 156
f 289 285 288
f 290 286 289
f 291 287 290
f 279 278 291
f 292 156 162
f 293 288 292
f 294 289 293
f 295 290 294
f 296 291 295
f 280 279 296
f 297 162 169
f 298 292 297
f 299 293 298
f 300 294 299
f 301 295 300
f 302 296 301
f 281 280 302
f 275 142 282
f 282 144 283
f 276 282 284
f 283 147 285
f 284 283 286
f 277 284 287
f 285 151 288
f 286 285 289
f 287 286 290
f 278 287 291
f 288 156 292
f 289 288 293
f 290 289 294
f 291 290 295
f 279 291 296
f 292 162 297
f 293 292 298
f 294 293 299
f 295 294 300
f 296 295 301
f 280 296 302
f 163 120 170
f 303 170 172
f 164 163 303
f 304 172 175
f 305 303 304
f 165 164 305
f 306 175 179
f 307 304 306
f 308 305 307
f 166 165 308
f 309 179 184
f 310 306 309
f 311 307 310
f 312 308 311
f 167 166 312
f 313 184 190
f 314 309 313
f 315 310 314
f 316 311 315
f 317 312 316
f 168 167 317
f 318 190 197
f 319 313 318
f 320 314 319
f 321 315 320
f 322 316 321
f 323 317 322
f 169 168 323
f 163 170 303
f 303 172 304
f 164 303 305
f 304 175 306
f 305 304 307
f 165 305 308
f 306 179 309
f 307 306 310
f 308 307 311
f 166 308 312
f 309 184 313
f 310 309 314
f 311 310 315
f 312 311 316
f 167 312 317
f 313 190 318
f 314 313 319
f 315 314 320
f 316 315 321
f 317 316 322
f 168 317 323
f 191 92 198
f 324 198 200
f 192 191 324
f 325 200 203
f 326 324 325
f 193 192 326
f 327 203 207
f 328 325 327
f 329 326 328
f 194 193 329
f 330 207 212
f 331 327 330
f 332 328 331
f 333 329 332
f 195 194 333
f 334 212 218
f 335 330 334
f 336 331 335
f 337 332 336
f 338 333 337
f 196 195 338
f 339 218 225
f 340 334 339
f 341 335 340
f 342 336 341
f 343 337 342
f 344 338 343
f 197 196 344
f 191 198 324
f 324 200 325
f 192 324 326
f 325 203 327
f 326 325 328
f 193 326 329
f 327 207 330
f 328 327 331
f 329 328 332
f 194 329 333
f 330 212 334
f 331 330 335
f 332 331 336
f 333 332 337
f 195 333 338
f 334 218 339
f 335 334 340
f 336 335 341
f 337 336 342
f 338 337 343
f 196 338 344
f 219 64 226
f 345 226 228
f 220 219 345
f 346 228 231
f 347 345 346
f 221 220 347
f 348 231 235
f 349 346 348
f 350 347 349
f 222 221 350
f 351 235 240
f 352 348 351
f 353 349 352
f 354 350 353
f 223 222 354
f 355 240 246
f 356 351 355
f 357 352 356
f 358 353 357
f 359 354 358
f 224 223 359
f 360 246 253
f 361 355 360
f 362 356 361
f 363 357 362
f 364 358 363
f 365 359 364
f 225 224 365
f 219 226 345
f 345 228 346
f 220 345 347
f 346 231 348
f 347 346 349
f 221 347 350
f 348 235 351
f 349 348 352
f 350 349 353
f 222 350 354
f 351 240 355
f 352 351 356
f 353 352 357
f 354 353 358
f 223 354 359
f 355 246 360
f 356 355 361
f 357 356 362
f 358 357 363
f 359 358 364
f 224 359 365
f 247 36 254
f 366 254 256
f 248 247 366
f 367 256 259
f 368 366 367
f 249 248 368
f 369 259 263
f 370 367 369
f 371 368 370
f 250 249 371
f 372 263 268
f 373 369 372
f 374 370 373
f 375 371 374
f 251 250 375
f 376 268 274
f 377 372 376
f 378 373 377
f 379 374 378
f 380 375 379
f 252 251 380
f 381 274 281
f 382 376 381
f 383 377 382
f 384 378 383
f 385 379 384
f 386 380 385
f 253 252 386
f 247 254 366
f 366 256 367
f 248 366 368
f 367 259 369
f 368 367 370
f 249 368 371
f 369 263 372
f 370 369 373
f 371 370 374
f 250 371 375
f 372 268 376
f 373 372 377
f 374 373 378
f 375 374 379
f 251 375 380
f 376 274 381
f 377 376 382
f 378 377 383
f 379 378 384
f 380 379 385
f 252 380 386
f 389 387 388
f 391 388 390
f 392 389 391
f 394 390 393
f 395 391 394
f 396 392 395
f 398 393 397
f 399 394 398
f 400 395 399
f 401 396 400
f 403 397 402
f 404 398 403
f 405 399 404
f 406 400 405
f 407 401 406
f 409 402 408
f 410 403 409
f 411 404 410
f 412 405 411
f 413 406 412
f 414 407 413
f 302 408 281
f 301 409 302
f 300 410 301
f 299 411 300
f 298 412 299
f 297 413 298
f 169 414 297
f 389 388 391
f 391 390 394
f 392 391 395
f 394 393 398
f 395 394 399
f 396 395 400
f 398 397 403
f 399 398 404
f 400 399 405
f 401 400 406
f 403 402 409
f 404 403 410
f 405 404 411
f 406 405 412
f 407 406 413
f 409 408 302
f 410 409 301
f 411 410 300
f 412 411 299
f 413 412 298
f 414 413 297
f 388 387 415
f 417 415 416
f 390 388 417
f 419 416 418
f 420 417 419
f 393 390 420
f 422 418 421
f 423 419 422
f 424 420 423
f 397 393 424
f 426 421 425
f 427 422 426
f 428 423 427
f 429 424 428
f 402 397 429
f 431 425 430
f 432 426 431
f 433 427 432
f 434 428 433
f 435 429 434
f 408 402 435
f 386 430 253
f 385 431 386
f 384 432 385
f 383 433 384
f 382 434 383
f 381 435 382
f 281 408 381
f 388 415 417
f 417 416 419
f 390 417 420
f 419 418 422
f 420 419 423
f 393 420 424
f 422 421 426
f 423 422 427
f 424 423 428
f 397 424 429
f 426 425 431
f 427 426 432
f 428 427 433
f 429 428 434
f 402 429 435
f 431 430 386
f 432 431 385
f 433 432 384
f 434 433 383
f 435 434 382
f 408 435 381
f 415 387 436
f 438 436 437
f 416 415 438
f 440 437 439
f 441 438 440
f 418 416 441
f 443 439 442
f 444 440 443
f 445 441 444
f 421 418 445
f 447 442 446
f 448 443 447
f 449 444 448
f 450 445 449
f 425 421 450
f 452 446 451
f 453 447 452
f 454 448 453
f 455 449 454
f 456 450 455
f 430 425 456
f 365 451 225
f 364 452 365
f 363 453 364
f 362 454 363
f 361 455 362
f 360 456 361
f 253 430 360
f 415 436 438
f 438 437 440
f 416 438 441
f 440 439 443
f 441 440 444
f 418 441 445
f 443 442 447
f 444 443 448
f 445 444 449
f 421 445 450
f 447 446 452
f 448 447 453
f 449 448 454
f 450 449 455
f 425 450 456
f 452 451 365
f 453 452 364
f 454 453 363
f 455 454 362
f 456 455 361
f 430 456 360
f 436 387 457
f 459 457 458
f 437 436 459
f 461 458 460
f 462 459 461
f 439 437 462
f 464 460 463
f 465 461 464
f 466 462 465
f 442 439 466
f 468 463 467
f 469 464 468
f 470 465 469
f 471 466 470
f 446 442 471
f 473 467 472
f 474 468 473
f 475 469 474
f 476 470 475
f 477 471 476
f 451 446 477
f 344 472 197
f 343 473 344
f 342 474 343
f 341 475 342
f 340 476 341
f 339 477 340
f 225 451 339
f 436 457 459
f 459 458 461
f 437 459 462
f 461 460 464
f 462 461 465
f 439 462 466
f 464 463 468
f 465 464 469
f 466 465 470
f 442 466 471
f 468 467 473
f 469 468 474
f 470 469 475
f 471 470 476
f 446 471 477
f 473 472 344
f 474 473 343
f 475 474 342
f 476 475 341
f 477 476 340
f 451 477 339
f 457 387 389
f 478 389 392
f 458 457 478
f 479 392 396
f 480 478 479
f 460 458 480
f 481 396 401
f 482 479 481
f 483 480 482
f 463 460 483
f 484 401 407
f 485 481 484
f 486 482 485
f 487 483 486
f 467 463 487
f 488 407 414
f 489 484 488
f 490 485 489
f 491 486 490
f 492 487 491
f 472 467 492
f 323 414 169
f 322 488 323
f 321 489 322
f 320 490 321
f 319 491 320
f 318 492 319
f 197 472 318
f 457 389 478
f 478 392 479
f 458 478 480
f 479 396 481
f 480 479 482
f 460 480 483
f 481 401 484
f 482 481 485
f 483 482 486
f 463 483 487
f 484 407 488
f 485 484 489
f 486 485 490
f 487 486 491
f 467 487 492
f 488 414 323
f 489 488 322
f 490 489 321
f 491 490 320
f 492 491 319
f 472 492 318
