# File exported by Houdini 20.5.445 (www.sidefx.com)
# 492 points
# 2940 vertices
# 980 primitives
# Bounds: [-138.456726, -207.502426, -1087.97363] to [309.230652, 323.879517, -666.827393]
g 
v 63.718689 29.1096306 -1087.97363
v 50.1878052 73.1606674 -1085.26208
v 76.2724609 35.4993668 -1086.52771
v 38.5796509 115.471489 -1075.62585
v 62.6225586 83.0197906 -1082.81812
v 89.2453003 42.9076385 -1082.04333
v 28.0495605 154.832672 -1059.72742
v 51.2473145 127.299416 -1071.33057
v 74.5125732 92.419899 -1076.78625
v 101.900574 52.1194534 -1075.49451
v 18.21521 190.484299 -1039.36548
v 41.0974121 167.844467 -1054.17737
v 62.4119263 137.6409 -1063.56287
v 85.1604004 102.325638 -1068.30713
v 113.534485 63.5089493 -1067.34131
v 9.19519043 222.217819 -1016.38489
v 31.6862793 204.506241 -1032.91333
v 52.03302 178.880508 -1045.06189
v 71.9180908 147.763824 -1053.23206
v 94.5200195 113.31736 -1057.7052
v 123.776978 76.8210831 -1057.43591
v 1.79077148 249.954758 -992.351562
v 23.0388794 237.466904 -1008.573
v 42.6668701 216.645401 -1022.06213
v 61.1069946 189.513046 -1032.65784
v 80.2159424 158.385544 -1040.31726
v 103.066162 125.378578 -1044.91223
v 132.642334 91.2490387 -1045.60706
v -3.16522217 273.071533 -967.404663
v 15.6045532 266.398193 -981.166992
v 33.8070679 251.12645 -993.87439
v 51.2149658 228.38826 -1005.54272
v 68.7243652 200.3535 -1015.76733
v 88.2176514 169.617142 -1024.11877
v 111.752686 137.83017 -1029.802
v 140.797119 105.677322 -1031.79553
v 88.2433472 -11.4782333 -1083.88574
v 104.134338 -5.92143631 -1079.2179
v 117.928223 -50.0198746 -1073.19824
v 119.788391 2.49018478 -1072.85425
v 136.140381 -42.1890106 -1065.44531
v 152.69519 -84.5094604 -1057.8689
v 134.471558 13.9406319 -1065.85779
v 153.490234 -30.8812904 -1057.62671
v 171.790466 -73.1875763 -1047.84961
v 190.405334 -114.247147 -1039.20642
v 147.740417 28.3570366 -1058.1051
v 169.532043 -16.3958511 -1050.42603
v 189.747192 -58.6079102 -1038.99854
v 209.323792 -99.5839081 -1027.80127
v 227.476196 -138.968246 -1017.84863
v 159.231323 45.3553391 -1048.98169
v 184.160645 1.39109802 -1043.35596
v 206.759094 -40.7753601 -1031.7655
v 227.252136 -81.4801483 -1018.06946
v 245.236816 -120.603806 -1005.13965
v 258.982544 -156.644852 -993.44043
v 168.692383 64.248436 -1037.41382
v 196.57312 22.461628 -1034.9646
v 221.982483 -18.8077469 -1024.62329
v 243.867371 -59.0553284 -1009.37781
v 261.637207 -97.9176559 -993.209473
v 274.480164 -134.26088 -978.603394
v 281.348999 -165.883041 -966.028442
v 66.7453003 -1.91804314 -1085.75232
v 96.3709106 -46.7353134 -1079.5592
v 73.1885986 -31.8456078 -1080.21045
v 131.336792 -86.827301 -1067.19739
v 108.177429 -77.9376831 -1072.42944
v 82.9683228 -59.0795288 -1070.58899
v 170.039368 -121.369583 -1050.24658
v 147.223938 -117.40184 -1058.38611
v 122.157471 -103.917709 -1061.12952
v 94.4511719 -81.8066711 -1056.1897
v 209.408142 -150.386734 -1029.30823
v 187.680176 -150.606796 -1039.07153
v 162.935547 -141.305313 -1044.84485
v 135.332825 -123.88829 -1044.85962
v 104.521484 -99.3174744 -1037.50366
v 244.941833 -172.942062 -1004
v 225.836731 -177.803909 -1014.29236
v 202.152893 -172.517899 -1022.11194
v 174.591431 -158.645828 -1025.70996
v 143.6745 -137.819321 -1023.57764
v 110.301941 -111.703751 -1015.09534
v 271.537354 -186.28804 -973.432617
v 256.205383 -196.440598 -982.485474
v 235.042786 -196.416183 -991.174927
v 208.591125 -186.752335 -997.522583
v 177.974854 -169.010239 -999.708984
v 144.979492 -145.767227 -996.621338
v 111.978882 -119.881546 -988.37439
v 43.4469604 49.6809769 -1084.37012
v 45.3547363 18.3051376 -1080.53113
v 24.9752808 67.3269501 -1073.79675
v 50.8456421 -10.8297043 -1072.38269
v 26.8240967 35.4032593 -1067.60486
v 7.61193848 81.1450043 -1057.00879
v 59.0957031 -36.5335388 -1059.48474
v 31.6882324 7.03326035 -1056.87842
v 9.45666504 49.4847641 -1049.09302
v -9.51013184 91.6931076 -1035.71838
v 68.1877441 -57.7935791 -1042.02429
v 38.3443604 -17.0370255 -1041.52539
v 13.2705688 22.5184593 -1036.71082
v -8.16070557 61.410965 -1027.20642
v -26.8031616 99.7518234 -1011.86035
v 75.4517822 -74.7675171 -1020.52917
v 44.9309692 -37.2415085 -1021.63196
v 17.9315186 -0.0655879974 -1019.31067
v -5.94641113 36.1569557 -1013.53369
v -26.4692993 71.2352982 -1002.69043
v -43.5426025 104.938858 -986.172485
v 80.1100464 -88.2183304 -993.801392
v 50.1848755 -54.6920013 -995.827026
v 22.5361938 -20.2356491 -995.252686
v -2.96240234 13.9312439 -992.119263
v -25.6234131 46.7503815 -985.366333
v -44.3739014 77.6566772 -973.861572
v -58.6631165 106.961067 -958.401978
v 29.0530396 95.3651505 -1076.53186
v 9.90264893 111.642342 -1060.86414
v 16.6253052 136.142822 -1061.8208
v -8.28491211 122.697639 -1039.8252
v -3.37139893 149.511414 -1041.80859
v 5.3046875 172.358994 -1041.76965
v -26.2070923 129.93808 -1015.25269
v -22.3848877 157.523575 -1017.33093
v -15.5534668 182.650803 -1018.5918
v -5.07183838 204.666397 -1018.4126
v -43.7667236 134.159668 -988.430908
v -40.7623901 161.812759 -990.02356
v -34.9173584 188.180832 -991.580688
v -26.0578613 212.567032 -993.098999
v -13.6965332 233.725082 -993.583496
v -59.8280945 134.792969 -958.950073
v -57.7106628 162.316879 -959.59375
v -52.640564 189.58107 -961.003418
v -44.5595093 215.872726 -963.299316
v -33.4042969 239.673111 -965.932983
v -19.2730103 259.267334 -967.591553
v -15.8973999 284.146057 -942.467651
v -33.413208 265.420776 -940.474365
v -26.5726318 289.974121 -917.471436
v -47.7834473 241.370712 -936.9198
v -44.4893188 266.479309 -914.718506
v -36.6083984 292.216431 -892.992188
v -58.8815308 214.14534 -933.335083
v -58.7771912 238.71846 -910.702759
v -54.4290771 265.00946 -890.37146
v -47.6818848 291.800354 -868.95459
v -66.8417664 185.339279 -930.795654
v -69.9327698 208.746719 -906.886597
v -68.7962952 234.530441 -886.314697
v -65.3509216 262.134827 -866.705078
v -61.4909363 288.654297 -844.98645
v -71.771698 155.721344 -929.809326
v -78.3978577 177.451828 -904.184814
v -80.7626648 202.091415 -882.176025
v -80.7302551 229.302841 -862.358154
v -79.6664124 257.150391 -842.769775
v -78.8737183 281.92218 -820.969238
v -73.111969 125.151466 -930.015259
v -83.6876831 144.677765 -902.75769
v -90.4386292 167.616928 -878.32251
v -94.5418701 193.928757 -856.775757
v -96.9791565 221.981644 -836.930786
v -98.1774902 248.960373 -817.369873
v -98.6489868 271.07074 -796.912842
v -64.5813293 90.7522202 -938.398071
v -46.7304688 59.0276871 -951.400635
v -68.7900085 75.9658127 -914.498047
v -24.1884155 26.950119 -959.911743
v -46.5652771 42.187664 -924.747925
v -71.639679 63.0607986 -886.641479
v 1.35266113 -6.20529938 -964.070801
v -20.4155884 9.04579735 -930.589111
v -44.8953857 27.4928246 -894.063721
v -72.8685608 52.26651 -855.314575
v 28.7936401 -40.0446854 -965.449463
v 7.41827393 -24.6184425 -932.664551
v -15.7625732 -6.67019272 -897.48291
v -42.0267944 15.2388725 -859.974365
v -71.4910583 43.4370728 -821.774414
v 58.6893311 -73.761795 -964.757568
v 37.2407837 -58.803421 -932.496094
v 14.774292 -41.3440247 -897.498413
v -9.86328125 -20.2374878 -860.971558
v -37.0991821 5.13724327 -823.802856
v -66.2056885 35.7697983 -788.36499
v 91.6151123 -106.947876 -961.330444
v 70.34729 -93.0668716 -929.949829
v 47.9641113 -76.9476852 -894.976196
v 24.2056885 -56.8785019 -858.187744
v -1.45654297 -32.3645935 -821.769043
v -28.6157227 -3.94078445 -787.414795
v -56.0501404 27.8794098 -757.577393
v 130.800903 -140.53981 -963.045654
v 167.467957 -167.563766 -968.050049
v 145.96991 -156.000443 -932.093384
v 201.453918 -189.135117 -967.156372
v 183.523621 -180.954819 -933.869751
v 157.089417 -165.167984 -895.763672
v 231.42395 -203.036179 -961.838257
v 216.83374 -198.495468 -930.300293
v 194.591614 -186.394455 -895.61084
v 166.023499 -168.355484 -856.555054
v 256.512878 -207.502426 -954.168945
v 245.7677 -207.374039 -923.864014
v 227.432922 -199.17424 -891.276733
v 203.600098 -185.236679 -855.99646
v 175.071106 -166.336197 -817.842529
v 275.942871 -201.265213 -946.063721
v 269.920166 -206.020157 -916.62439
v 256.08551 -202.490158 -885.268066
v 236.619995 -192.74263 -852.164307
v 212.970886 -178.303543 -817.730469
v 185.368347 -159.430496 -782.799194
v 289.410278 -182.780746 -939.57251
v 288.690247 -192.10051 -910.673462
v 280.365601 -193.933517 -879.843628
v 265.924805 -189.101486 -847.688354
v 246.709778 -179.159439 -815.142578
v 223.453308 -165.1306 -783.411865
v 196.099487 -147.201218 -753.832642
v 293.885193 -149.589462 -946.007935
v 287.166443 -112.31459 -963.199585
v 302.077393 -127.132523 -929.282715
v 273.656494 -72.7120667 -982.383179
v 293.909973 -85.7209854 -951.751221
v 306.260681 -100.842789 -915.549316
v 254.150879 -32.3189507 -1001.37988
v 278.13678 -44.0609818 -974.170532
v 295.441956 -56.9105072 -942.008423
v 305.720886 -72.4436798 -903.211182
v 229.208862 8.68076897 -1016.59558
v 255.674133 -2.63368797 -993.437988
v 276.349915 -14.0342903 -965.113037
v 291.209656 -27.333477 -930.939819
v 299.33075 -43.1323471 -890.03772
v 199.416626 50.7623062 -1023.92932
v 226.952148 39.306057 -1005.72253
v 250.122559 28.4451828 -981.714355
v 268.459167 16.4404716 -951.758789
v 281.277161 2.27049828 -915.946777
v 286.878845 -13.6838341 -874.673218
v 166.569763 94.332489 -1021.47046
v 192.830261 83.4003754 -1007.62207
v 217.268738 72.6733704 -988.461914
v 238.233765 60.9662857 -963.087524
v 254.438538 47.370697 -931.792969
v 264.542297 31.9268532 -895.882935
v 267.066467 15.7507935 -857.182129
v 130.232971 138.33075 -1015.11511
v 101.033508 173.46077 -1007.94495
v 122.153442 167.967911 -994.151733
v 78.1861572 206.205978 -997.631226
v 93.2792969 203.955338 -982.522583
v 115.863708 194.414261 -969.36731
v 59.2608643 236.04393 -985.898804
v 70.8991089 236.152359 -968.719116
v 87.7241821 230.134201 -954.265381
v 109.647522 217.472824 -941.165161
v 41.9407959 261.51062 -973.709106
v 51.8972778 264.29657 -954.633057
v 65.3733521 261.041931 -937.954834
v 82.1314087 252.269363 -923.433716
v 101.062317 236.986435 -909.957153
v 24.2480469 280.305664 -961.595581
v 33.7474365 287.120544 -941.353027
v 45.3545532 287.209656 -922.296631
v 59.0490723 281.682678 -905.379517
v 73.4121704 270.498962 -890.485352
v 87.7661133 253.056351 -876.957153
v 5.19311523 290.130066 -949.319946
v 14.4381714 301.816223 -928.984619
v 24.9585571 306.942627 -908.085693
v 36.4036865 305.505066 -888.338135
v 47.71875 298.035706 -870.930786
v 58.2092896 284.61322 -856.189819
v 68.1239014 265.734192 -843.910156
v -6.16656494 302.958801 -921.529053
v -16.3986816 309.894226 -895.16626
v 3.93200684 314.954773 -899.026611
v -28.2153931 312.444397 -869.582764
v -7.84033203 321.284607 -871.340576
v 13.6738892 319.220642 -876.429932
v -43.2824097 311.052795 -843.785767
v -23.3792725 322.317932 -844.20459
v -1.42492676 323.879517 -847.109375
v 22.4365234 316.02301 -855.101685
v -62.3028564 305.275635 -817.577148
v -43.5193481 318.280823 -816.245483
v -21.6329346 322.321411 -817.894653
v 3.32635498 318.054932 -823.95813
v 30.3718872 305.513733 -836.343384
v -84.9488831 293.775391 -791.116211
v -68.0428162 307.923218 -787.278076
v -46.8869629 313.840759 -787.230469
v -21.2739258 312.153076 -792.336792
v 7.7019043 303.103943 -803.36731
v 38.1358643 287.286133 -820.765503
v -81.4722595 110.3964 -906.258667
v -88.8286438 98.6442871 -879.794556
v -94.1799622 132.640686 -876.948486
v -95.2315674 89.3402023 -850.294067
v -104.480347 124.244377 -849.141479
v -103.587067 158.603439 -851.302246
v -99.1367493 81.6787262 -818.109741
v -113.856567 117.928337 -818.62915
v -116.826324 152.903809 -822.439087
v -110.661621 187.353073 -828.703369
v -97.9780579 74.592041 -784.363403
v -119.294708 112.110054 -785.633789
v -128.175995 148.46875 -790.832153
v -126.025848 183.372849 -798.646606
v -115.338226 216.977463 -807.668579
v -89.2702026 66.4596329 -751.478638
v -116.311859 104.941101 -751.364014
v -132.933014 142.855164 -756.580566
v -137.354401 179.195175 -765.445801
v -131.195038 213.169327 -775.818115
v -117.285858 244.186356 -786.239624
v 107.252136 -125.929977 -929.911499
v 118.902527 -138.721664 -893.97522
v 83.2509766 -110.025406 -893.363525
v 127.865112 -145.436615 -854.579956
v 92.6815796 -120.015823 -854.015015
v 58.6117554 -91.1400757 -854.959473
v 136.631775 -146.794662 -814.371094
v 100.830994 -123.90564 -813.210083
v 66.5609741 -97.7672501 -814.088013
v 32.8765869 -67.171936 -816.616577
v 147.003723 -143.146896 -776.334839
v 109.859009 -122.376328 -773.197388
v 74.0027466 -97.757782 -773.122437
v 39.1885376 -69.3815765 -775.693726
v 5.0894165 -37.4190979 -780.232178
v 159.072754 -133.768753 -743.389404
v 120.739807 -114.943039 -736.801025
v 82.3770142 -91.2145386 -734.240112
v 44.8764648 -63.7058105 -735.804932
v 9.07427979 -33.3596954 -740.403931
v -24.7276001 -2.1084156 -747.387451
v 300.110474 -164.620438 -914.341675
v 306.635559 -141.0784 -893.623657
v 297.753845 -172.377365 -881.593506
v 309.230652 -114.151978 -876.387817
v 302.983643 -147.975998 -857.787842
v 288.577271 -173.368057 -848.110352
v 306.475342 -84.6386337 -860.885986
v 303.737366 -119.993256 -837.577271
v 292.506836 -148.100449 -821.853271
v 273.430481 -167.968918 -814.334106
v 296.318604 -52.7470779 -845.303711
v 297.160767 -88.1016541 -819.217773
v 289.855164 -118.017044 -798.954102
v 274.621155 -141.249054 -786.164062
v 252.115479 -157.162186 -780.972534
v 276.789368 -18.4573784 -828.811768
v 279.568176 -51.5076675 -801.444702
v 275.427795 -81.5922089 -777.823364
v 264.620972 -107.471237 -760.773438
v 246.957886 -127.669296 -751.217041
v 223.451416 -141.000504 -749.062012
v 156.437378 127.213234 -1003.05273
v 148.680298 155.698242 -981.058838
v 182.022156 115.932213 -987.005981
v 141.176392 180.155594 -955.082153
v 172.782898 142.786652 -963.144409
v 204.900818 103.747459 -965.318237
v 131.233582 201.26622 -925.071045
v 161.733459 165.361588 -935.100586
v 192.494934 128.560822 -938.703003
v 223.512451 89.7233963 -937.17749
v 116.144958 219.635818 -890.96521
v 145.553589 185.051529 -901.937988
v 175.759644 149.450012 -907.304932
v 206.329407 112.441399 -907.032227
v 236.335876 73.4408188 -902.730103
v 93.5092773 235.752029 -853.744019
v 121.044128 202.921005 -863.151733
v 150.544128 168.104111 -869.091309
v 181.379883 131.78656 -870.499023
v 212.25708 94.0821838 -868.035278
v 241.468689 55.1416702 -863.043823
v -9.63964844 124.944069 -682.871582
v -8.38531494 156.904755 -698.971558
v -48.2591553 163.225388 -685.517822
v -1.246521 185.55925 -717.943359
v -45.0738525 197.326553 -701.881104
v -79.5050964 197.146683 -692.719116
v 10.9764404 210.074356 -739.512939
v -34.8184204 225.427933 -720.359497
v -72.3391418 230.530258 -709.074707
v -102.501282 225.064407 -704.714233
v 26.3713379 229.909622 -763.635864
v -19.3435669 247.743637 -741.185669
v -58.1889954 256.52771 -727.158691
v -90.3187866 256.626404 -720.711548
v -115.418549 246.936539 -721.516602
v 42.5361328 245.494156 -789.827026
v -0.482788086 265.101257 -764.932495
v -38.7788696 276.650208 -748.30957
v -71.3355408 280.52533 -739.577637
v -97.4855652 276.440674 -738.264771
v -117.171051 262.661133 -743.447021
v 57.2752686 257.393616 -816.841309
v 19.539978 278.278748 -791.544067
v -16.0278931 292.158142 -773.601929
v -47.5240479 298.831604 -763.047119
v -73.874115 298.106506 -759.555908
v -94.549408 289.374756 -762.19519
v -110.275116 270.767273 -769.256104
v 33.6149292 105.465637 -694.231201
v 80.4714966 86.1534958 -711.088135
v 38.3179932 137.774445 -715.736694
v 128.496704 68.0387573 -732.85437
v 86.4094849 118.819252 -737.733765
v 47.5535278 165.538742 -739.632568
v 174.356628 51.7019653 -759.115967
v 133.611938 100.812248 -763.977417
v 95.3290405 145.986267 -766.278564
v 59.9067993 188.806046 -765.753296
v 214.465149 37.451683 -789.25708
v 177.143799 84.1580734 -793.970337
v 140.285828 127.520088 -796.759644
v 105.584534 168.530502 -796.779053
v 73.3171387 207.794022 -794.158691
v 245.886597 25.3977394 -822.269897
v 213.9953 68.9729843 -827.207275
v 180.219788 110.299568 -830.746216
v 146.80603 149.608093 -831.691406
v 115.029602 187.272568 -829.33252
v 85.253418 223.377457 -823.809692
v 20.6741333 78.6302643 -675.40979
v 56.0879517 31.3033142 -672.476685
v 70.4818115 55.5720978 -687.637817
v 93.5494385 -14.6263924 -675.379517
v 109.572998 7.76989174 -685.970581
v 121.217346 35.2235031 -705.527832
v 129.355225 -56.5733643 -684.753174
v 147.840271 -36.6845932 -690.610596
v 160.998047 -11.4704742 -705.43811
v 170.096985 17.7556114 -728.766479
v 159.516113 -92.7120895 -700.815674
v 181.885681 -76.5642014 -702.390991
v 197.450317 -54.0023651 -712.43457
v 208.100647 -27.236721 -731.024658
v 214.224121 3.05509949 -757.250244
v 181.451233 -122.803177 -723.909668
v 207.443542 -111.350601 -721.604126
v 227.207397 -92.7425461 -727.398315
v 240.632629 -68.4974365 -741.259766
v 248.604797 -40.3727722 -763.033936
v 250.696228 -8.99362183 -790.79895
v -31.0286865 115.246407 -672.41687
v -46.5641479 103.7789 -669.523804
v 2.800354 64.3224945 -666.827393
v -56.9570923 90.7360153 -674.016724
v -9.38995361 50.5277939 -667.239624
v 39.9104614 14.9173241 -667.699707
v -63.1384277 76.077507 -685.304932
v -18.1137695 37.4370651 -675.441162
v 27.9810791 1.30250359 -672.214478
v 76.555481 -30.6462936 -675.11438
v -65.2584839 60.3202896 -702.667236
v -23.9887695 24.2916679 -691.376343
v 18.5969238 -10.5200768 -685.275146
v 62.9452515 -42.8292923 -684.571533
v 109.96167 -70.7967377 -689.461914
v -62.8709106 43.9289093 -726.62793
v -26.4725342 11.0832767 -715.013916
v 11.9125977 -21.9803238 -707.655518
v 52.1362915 -53.2662659 -704.103149
v 94.267395 -81.5419159 -705.325684
v 137.754944 -105.083755 -711.796631
v -71.8403015 154.314026 -678.619751
v -102.58963 186.22319 -690.532837
v -87.6517639 142.216339 -679.863647
v -122.982849 210.901321 -707.81958
v -116.872498 171.25795 -696.188232
v -96.8838196 126.846657 -688.121704
v -131.359253 229.376968 -730.086548
v -134.132568 192.488174 -717.98291
v -123.885895 152.470184 -707.874023
v -100.452728 108.69799 -702.030029
v -128.568634 240.810745 -756.651489
v -138.456726 206.866776 -744.841187
v -137.613098 169.95665 -733.681885
v -124.007294 130.325836 -725.338623
v -98.1429138 88.30513 -722.395996
g 
f 3 1 2
f 5 2 4
f 6 3 5
f 8 4 7
f 9 5 8
f 10 6 9
f 12 7 11
f 13 8 12
f 14 9 13
f 15 10 14
f 17 11 16
f 18 12 17
f 19 13 18
f 20 14 19
f 21 15 20
f 23 16 22
f 24 17 23
f 25 18 24
f 26 19 25
f 27 20 26
f 28 21 27
f 30 22 29
f 31 23 30
f 32 24 31
f 33 25 32
f 34 26 33
f 35 27 34
f 36 28 35
f 3 2 5
f 5 4 8
f 6 5 9
f 8 7 12
f 9 8 13
f 10 9 14
f 12 11 17
f 13 12 18
f 14 13 19
f 15 14 20
f 17 16 23
f 18 17 24
f 19 18 25
f 20 19 26
f 21 20 27
f 23 22 30
f 24 23 31
f 25 24 32
f 26 25 33
f 27 26 34
f 28 27 35
f 37 1 3
f 38 3 6
f 39 37 38
f 40 6 10
f 41 38 40
f 42 39 41
f 43 10 15
f 44 40 43
f 45 41 44
f 46 42 45
f 47 15 21
f 48 43 47
f 49 44 48
f 50 45 49
f 51 46 50
f 52 21 28
f 53 47 52
f 54 48 53
f 55 49 54
f 56 50 55
f 57 51 56
f 58 28 36
f 59 52 58
f 60 53 59
f 61 54 60
f 62 55 61
f 63 56 62
f 64 57 63
f 37 3 38
f 38 6 40
f 39 38 41
f 40 10 43
f 41 40 44
f 42 41 45
f 43 15 47
f 44 43 48
f 45 44 49
f 46 45 50
f 47 21 52
f 48 47 53
f 49 48 54
f 50 49 55
f 51 50 56
f 52 28 58
f 53 52 59
f 54 53 60
f 55 54 61
f 56 55 62
f 57 56 63
f 65 1 37
f 66 37 39
f 67 65 66
f 68 39 42
f 69 66 68
f 70 67 69
f 71 42 46
f 72 68 71
f 73 69 72
f 74 70 73
f 75 46 51
f 76 71 75
f 77 72 76
f 78 73 77
f 79 74 78
f 80 51 57
f 81 75 80
f 82 76 81
f 83 77 82
f 84 78 83
f 85 79 84
f 86 57 64
f 87 80 86
f 88 81 87
f 89 82 88
f 90 83 89
f 91 84 90
f 92 85 91
f 65 37 66
f 66 39 68
f 67 66 69
f 68 42 71
f 69 68 72
f 70 69 73
f 71 46 75
f 72 71 76
f 73 72 77
f 74 73 78
f 75 51 80
f 76 75 81
f 77 76 82
f 78 77 83
f 79 78 84
f 80 57 86
f 81 80 87
f 82 81 88
f 83 82 89
f 84 83 90
f 85 84 91
f 93 1 65
f 94 65 67
f 95 93 94
f 96 67 70
f 97 94 96
f 98 95 97
f 99 70 74
f 100 96 99
f 101 97 100
f 102 98 101
f 103 74 79
f 104 99 103
f 105 100 104
f 106 101 105
f 107 102 106
f 108 79 85
f 109 103 108
f 110 104 109
f 111 105 110
f 112 106 111
f 113 107 112
f 114 85 92
f 115 108 114
f 116 109 115
f 117 110 116
f 118 111 117
f 119 112 118
f 120 113 119
f 93 65 94
f 94 67 96
f 95 94 97
f 96 70 99
f 97 96 100
f 98 97 101
f 99 74 103
f 100 99 104
f 101 100 105
f 102 101 106
f 103 79 108
f 104 103 109
f 105 104 110
f 106 105 111
f 107 106 112
f 108 85 114
f 109 108 115
f 110 109 116
f 111 110 117
f 112 111 118
f 113 112 119
f 2 1 93
f 121 93 95
f 4 2 121
f 122 95 98
f 123 121 122
f 7 4 123
f 124 98 102
f 125 122 124
f 126 123 125
f 11 7 126
f 127 102 107
f 128 124 127
f 129 125 128
f 130 126 129
f 16 11 130
f 131 107 113
f 132 127 131
f 133 128 132
f 134 129 133
f 135 130 134
f 22 16 135
f 136 113 120
f 137 131 136
f 138 132 137
f 139 133 138
f 140 134 139
f 141 135 140
f 29 22 141
f 2 93 121
f 121 95 122
f 4 121 123
f 122 98 124
f 123 122 125
f 7 123 126
f 124 102 127
f 125 124 128
f 126 125 129
f 11 126 130
f 127 107 131
f 128 127 132
f 129 128 133
f 130 129 134
f 16 130 135
f 131 113 136
f 132 131 137
f 133 132 138
f 134 133 139
f 135 134 140
f 22 135 141
f 142 29 141
f 143 141 140
f 144 142 143
f 145 140 139
f 146 143 145
f 147 144 146
f 148 139 138
f 149 145 148
f 150 146 149
f 151 147 150
f 152 138 137
f 153 148 152
f 154 149 153
f 155 150 154
f 156 151 155
f 157 137 136
f 158 152 157
f 159 153 158
f 160 154 159
f 161 155 160
f 162 156 161
f 163 136 120
f 164 157 163
f 165 158 164
f 166 159 165
f 167 160 166
f 168 161 167
f 169 162 168
f 142 141 143
f 143 140 145
f 144 143 146
f 145 139 148
f 146 145 149
f 147 146 150
f 148 138 152
f 149 148 153
f 150 149 154
f 151 150 155
f 152 137 157
f 153 152 158
f 154 153 159
f 155 154 160
f 156 155 161
f 157 136 163
f 158 157 164
f 159 158 165
f 160 159 166
f 161 160 167
f 162 161 168
f 170 120 119
f 171 119 118
f 172 170 171
f 173 118 117
f 174 171 173
f 175 172 174
f 176 117 116
f 177 173 176
f 178 174 177
f 179 175 178
f 180 116 115
f 181 176 180
f 182 177 181
f 183 178 182
f 184 179 183
f 185 115 114
f 186 180 185
f 187 181 186
f 188 182 187
f 189 183 188
f 190 184 189
f 191 114 92
f 192 185 191
f 193 186 192
f 194 187 193
f 195 188 194
f 196 189 195
f 197 190 196
f 170 119 171
f 171 118 173
f 172 171 174
f 173 117 176
f 174 173 177
f 175 174 178
f 176 116 180
f 177 176 181
f 178 177 182
f 179 178 183
f 180 115 185
f 181 180 186
f 182 181 187
f 183 182 188
f 184 183 189
f 185 114 191
f 186 185 192
f 187 186 193
f 188 187 194
f 189 188 195
f 190 189 196
f 198 92 91
f 199 91 90
f 200 198 199
f 201 90 89
f 202 199 201
f 203 200 202
f 204 89 88
f 205 201 204
f 206 202 205
f 207 203 206
f 208 88 87
f 209 204 208
f 210 205 209
f 211 206 210
f 212 207 211
f 213 87 86
f 214 208 213
f 215 209 214
f 216 210 215
f 217 211 216
f 218 212 217
f 219 86 64
f 220 213 219
f 221 214 220
f 222 215 221
f 223 216 222
f 224 217 223
f 225 218 224
f 198 91 199
f 199 90 201
f 200 199 202
f 201 89 204
f 202 201 205
f 203 202 206
f 204 88 208
f 205 204 209
f 206 205 210
f 207 206 211
f 208 87 213
f 209 208 214
f 210 209 215
f 211 210 216
f 212 211 217
f 213 86 219
f 214 213 220
f 215 214 221
f 216 215 222
f 217 216 223
f 218 217 224
f 226 64 63
f 227 63 62
f 228 226 227
f 229 62 61
f 230 227 229
f 231 228 230
f 232 61 60
f 233 229 232
f 234 230 233
f 235 231 234
f 236 60 59
f 237 232 236
f 238 233 237
f 239 234 238
f 240 235 239
f 241 59 58
f 242 236 241
f 243 237 242
f 244 238 243
f 245 239 244
f 246 240 245
f 247 58 36
f 248 241 247
f 249 242 248
f 250 243 249
f 251 244 250
f 252 245 251
f 253 246 252
f 226 63 227
f 227 62 229
f 228 227 230
f 229 61 232
f 230 229 233
f 231 230 234
f 232 60 236
f 233 232 237
f 234 233 238
f 235 234 239
f 236 59 241
f 237 236 242
f 238 237 243
f 239 238 244
f 240 239 245
f 241 58 247
f 242 241 248
f 243 242 249
f 244 243 250
f 245 244 251
f 246 245 252
f 254 36 35
f 255 35 34
f 256 254 255
f 257 34 33
f 258 255 257
f 259 256 258
f 260 33 32
f 261 257 260
f 262 258 261
f 263 259 262
f 264 32 31
f 265 260 264
f 266 261 265
f 267 262 266
f 268 263 267
f 269 31 30
f 270 264 269
f 271 265 270
f 272 266 271
f 273 267 272
f 274 268 273
f 275 30 29
f 276 269 275
f 277 270 276
f 278 271 277
f 279 272 278
f 280 273 279
f 281 274 280
f 254 35 255
f 255 34 257
f 256 255 258
f 257 33 260
f 258 257 261
f 259 258 262
f 260 32 264
f 261 260 265
f 262 261 266
f 263 262 267
f 264 31 269
f 265 264 270
f 266 265 271
f 267 266 272
f 268 267 273
f 269 30 275
f 270 269 276
f 271 270 277
f 272 271 278
f 273 272 279
f 274 273 280
f 275 29 142
f 282 142 144
f 276 275 282
f 283 144 147
f 284 282 283
f 277 276 284
f 285 147 151
f 286 283 285
f 287 284 286
f 278 277 287
f 288 151 156
f 289 285 288
f 290 286 289
f 291 287 290
f 279 278 291
f 292 156 162
f 293 288 292
f 294 289 293
f 295 290 294
f 296 291 295
f 280 279 296
f 297 162 169
f 298 292 297
f 299 293 298
f 300 294 299
f 301 295 300
f 302 296 301
f 281 280 302
f 275 142 282
f 282 144 283
f 276 282 284
f 283 147 285
f 284 283 286
f 277 284 287
f 285 151 288
f 286 285 289
f 287 286 290
f 278 287 291
f 288 156 292
f 289 288 293
f 290 289 294
f 291 290 295
f 279 291 296
f 292 162 297
f 293 292 298
f 294 293 299
f 295 294 300
f 296 295 301
f 280 296 302
f 163 120 170
f 303 170 172
f 164 163 303
f 304 172 175
f 305 303 304
f 165 164 305
f 306 175 179
f 307 304 306
f 308 305 307
f 166 165 308
f 309 179 184
f 310 306 309
f 311 307 310
f 312 308 311
f 167 166 312
f 313 184 190
f 314 309 313
f 315 310 314
f 316 311 315
f 317 312 316
f 168 167 317
f 318 190 197
f 319 313 318
f 320 314 319
f 321 315 320
f 322 316 321
f 323 317 322
f 169 168 323
f 163 170 303
f 303 172 304
f 164 303 305
f 304 175 306
f 305 304 307
f 165 305 308
f 306 179 309
f 307 306 310
f 308 307 311
f 166 308 312
f 309 184 313
f 310 309 314
f 311 310 315
f 312 311 316
f 167 312 317
f 313 190 318
f 314 313 319
f 315 314 320
f 316 315 321
f 317 316 322
f 168 317 323
f 191 92 198
f 324 198 200
f 192 191 324
f 325 200 203
f 326 324 325
f 193 192 326
f 327 203 207
f 328 325 327
f 329 326 328
f 194 193 329
f 330 207 212
f 331 327 330
f 332 328 331
f 333 329 332
f 195 194 333
f 334 212 218
f 335 330 334
f 336 331 335
f 337 332 336
f 338 333 337
f 196 195 338
f 339 218 225
f 340 334 339
f 341 335 340
f 342 336 341
f 343 337 342
f 344 338 343
f 197 196 344
f 191 198 324
f 324 200 325
f 192 324 326
f 325 203 327
f 326 325 328
f 193 326 329
f 327 207 330
f 328 327 331
f 329 328 332
f 194 329 333
f 330 212 334
f 331 330 335
f 332 331 336
f 333 332 337
f 195 333 338
f 334 218 339
f 335 334 340
f 336 335 341
f 337 336 342
f 338 337 343
f 196 338 344
f 219 64 226
f 345 226 228
f 220 219 345
f 346 228 231
f 347 345 346
f 221 220 347
f 348 231 235
f 349 346 348
f 350 347 349
f 222 221 350
f 351 235 240
f 352 348 351
f 353 349 352
f 354 350 353
f 223 222 354
f 355 240 246
f 356 351 355
f 357 352 356
f 358 353 357
f 359 354 358
f 224 223 359
f 360 246 253
f 361 355 360
f 362 356 361
f 363 357 362
f 364 358 363
f 365 359 364
f 225 224 365
f 219 226 345
f 345 228 346
f 220 345 347
f 346 231 348
f 347 346 349
f 221 347 350
f 348 235 351
f 349 348 352
f 350 349 353
f 222 350 354
f 351 240 355
f 352 351 356
f 353 352 357
f 354 353 358
f 223 354 359
f 355 246 360
f 356 355 361
f 357 356 362
f 358 357 363
f 359 358 364
f 224 359 365
f 247 36 254
f 366 254 256
f 248 247 366
f 367 256 259
f 368 366 367
f 249 248 368
f 369 259 263
f 370 367 369
f 371 368 370
f 250 249 371
f 372 263 268
f 373 369 372
f 374 370 373
f 375 371 374
f 251 250 375
f 376 268 274
f 377 372 376
f 378 373 377
f 379 374 378
f 380 375 379
f 252 251 380
f 381 274 281
f 382 376 381
f 383 377 382
f 384 378 383
f 385 379 384
f 386 380 385
f 253 252 386
f 247 254 366
f 366 256 367
f 248 366 368
f 367 259 369
f 368 367 370
f 249 368 371
f 369 263 372
f 370 369 373
f 371 370 374
f 250 371 375
f 372 268 376
f 373 372 377
f 374 373 378
f 375 374 379
f 251 375 380
f 376 274 381
f 377 376 382
f 378 377 383
f 379 378 384
f 380 379 385
f 252 380 386
f 389 387 388
f 391 388 390
f 392 389 391
f 394 390 393
f 395 391 394
f 396 392 395
f 398 393 397
f 399 394 398
f 400 395 399
f 401 396 400
f 403 397 402
f 404 398 403
f 405 399 404
f 406 400 405
f 407 401 406
f 409 402 408
f 410 403 409
f 411 404 410
f 412 405 411
f 413 406 412
f 414 407 413
f 302 408 281
f 301 409 302
f 300 410 301
f 299 411 300
f 298 412 299
f 297 413 298
f 169 414 297
f 389 388 391
f 391 390 394
f 392 391 395
f 394 393 398
f 395 394 399
f 396 395 400
f 398 397 403
f 399 398 404
f 400 399 405
f 401 400 406
f 403 402 409
f 404 403 410
f 405 404 411
f 406 405 412
f 407 406 413
f 409 408 302
f 410 409 301
f 411 410 300
f 412 411 299
f 413 412 298
f 414 413 297
f 388 387 415
f 417 415 416
f 390 388 417
f 419 416 418
f 420 417 419
f 393 390 420
f 422 418 421
f 423 419 422
f 424 420 423
f 397 393 424
f 426 421 425
f 427 422 426
f 428 423 427
f 429 424 428
f 402 397 429
f 431 425 430
f 432 426 431
f 433 427 432
f 434 428 433
f 435 429 434
f 408 402 435
f 386 430 253
f 385 431 386
f 384 432 385
f 383 433 384
f 382 434 383
f 381 435 382
f 281 408 381
f 388 415 417
f 417 416 419
f 390 417 420
f 419 418 422
f 420 419 423
f 393 420 424
f 422 421 426
f 423 422 427
f 424 423 428
f 397 424 429
f 426 425 431
f 427 426 432
f 428 427 433
f 429 428 434
f 402 429 435
f 431 430 386
f 432 431 385
f 433 432 384
f 434 433 383
f 435 434 382
f 408 435 381
f 415 387 436
f 438 436 437
f 416 415 438
f 440 437 439
f 441 438 440
f 418 416 441
f 443 439 442
f 444 440 443
f 445 441 444
f 421 418 445
f 447 442 446
f 448 443 447
f 449 444 448
f 450 445 449
f 425 421 450
f 452 446 451
f 453 447 452
f 454 448 453
f 455 449 454
f 456 450 455
f 430 425 456
f 365 451 225
f 364 452 365
f 363 453 364
f 362 454 363
f 361 455 362
f 360 456 361
f 253 430 360
f 415 436 438
f 438 437 440
f 416 438 441
f 440 439 443
f 441 440 444
f 418 441 445
f 443 442 447
f 444 443 448
f 445 444 449
f 421 445 450
f 447 446 452
f 448 447 453
f 449 448 454
f 450 449 455
f 425 450 456
f 452 451 365
f 453 452 364
f 454 453 363
f 455 454 362
f 456 455 361
f 430 456 360
f 436 387 457
f 459 457 458
f 437 436 459
f 461 458 460
f 462 459 461
f 439 437 462
f 464 460 463
f 465 461 464
f 466 462 465
f 442 439 466
f 468 463 467
f 469 464 468
f 470 465 469
f 471 466 470
f 446 442 471
f 473 467 472
f 474 468 473
f 475 469 474
f 476 470 475
f 477 471 476
f 451 446 477
f 344 472 197
f 343 473 344
f 342 474 343
f 341 475 342
f 340 476 341
f 339 477 340
f 225 451 339
f 436 457 459
f 459 458 461
f 437 459 462
f 461 460 464
f 462 461 465
f 439 462 466
f 464 463 468
f 465 464 469
f 466 465 470
f 442 466 471
f 468 467 473
f 469 468 474
f 470 469 475
f 471 470 476
f 446 471 477
f 473 472 344
f 474 473 343
f 475 474 342
f 476 475 341
f 477 476 340
f 451 477 339
f 457 387 389
f 478 389 392
f 458 457 478
f 479 392 396
f 480 478 479
f 460 458 480
f 481 396 401
f 482 479 481
f 483 480 482
f 463 460 483
f 484 401 407
f 485 481 484
f 486 482 485
f 487 483 486
f 467 463 487
f 488 407 414
f 489 484 488
f 490 485 489
f 491 486 490
f 492 487 491
f 472 467 492
f 323 414 169
f 322 488 323
f 321 489 322
f 320 490 321
f 319 491 320
f 318 492 319
f 197 472 318
f 457 389 478
f 478 392 479
f 458 478 480
f 479 396 481
f 480 479 482
f 460 480 483
f 481 401 484
f 482 481 485
f 483 482 486
f 463 483 487
f 484 407 488
f 485 484 489
f 486 485 490
f 487 486 491
f 467 487 492
f 488 414 323
f 489 488 322
f 490 489 321
f 491 490 320
f 492 491 319
f 472 492 318
