# File exported by Houdini 20.5.445 (www.sidefx.com)
# 492 points
# 2940 vertices
# 980 primitives
# Bounds: [-111.259674, -203.520996, -1128.63452] to [282.033569, 319.898102, -626.166504]
g 
v 64.5757446 133.678375 -1007.22864
v 55.2478638 174.89447 -998.090698
v 76.4891968 141.520935 -980.84729
v 49.3164673 211.38446 -986.111572
v 70.6483765 183.587799 -967.725464
v 91.3098145 143.602966 -954.526733
v 45.6756592 243.094177 -971.465332
v 68.1820679 218.842926 -952.716553
v 88.7849731 184.970337 -939.045044
v 109.043884 139.839203 -928.700928
v 43.0612183 270.299927 -954.71106
v 67.350769 248.846497 -936.204834
v 88.9911499 218.940613 -922.353271
v 109.204041 180.386078 -911.970581
v 129.062622 132.642059 -903.005493
v 40.522522 292.728302 -936.543701
v 66.9139404 274.781891 -918.55249
v 90.1424561 248.207886 -904.777954
v 111.382812 214.078278 -894.224854
v 131.298645 172.891571 -885.905151
v 150.700989 125.520012 -877.110107
v 38.4256592 308.469482 -915.890869
v 66.3681641 295.548004 -898.81189
v 91.4391479 273.527069 -885.482666
v 114.291504 243.784698 -875.261841
v 135.425049 207.487366 -867.380981
v 154.983582 165.91037 -860.413086
v 173.402893 121.292686 -851.064575
v 37.2614746 316.975952 -892.731079
v 65.7844849 309.532166 -876.029663
v 92.861145 293.494568 -862.557373
v 117.990723 269.178314 -852.653442
v 141.107849 238.225922 -845.838013
v 161.784973 201.893616 -840.527344
v 179.970886 161.93869 -834.417969
v 196.253296 120.992363 -824.821045
v 82.9608154 94.6062164 -998.116333
v 95.6883545 98.1758194 -970.875854
v 101.841736 52.1577148 -987.624146
v 110.926514 96.1208191 -944.224854
v 114.832031 53.3179474 -959.075439
v 119.575623 8.68265343 -974.330322
v 128.884094 90.2075424 -917.295776
v 130.072083 50.0048676 -930.190918
v 132.746704 9.3126564 -943.292725
v 134.694946 -33.8784485 -956.463135
v 149.187317 83.6489868 -889.301758
v 148.023621 44.7285919 -900.092163
v 148.035156 6.51999474 -910.911377
v 148.377991 -32.8371315 -922.380493
v 146.96051 -74.076622 -934.072998
v 171.821899 79.5056 -860.039185
v 169.228149 40.6201515 -868.250122
v 166.608398 3.20414162 -876.534912
v 164.541687 -34.233223 -886.140015
v 161.969116 -72.2849045 -897.121094
v 157.023926 -110.190681 -908.573486
v 196.488647 79.9108047 -829.44104
v 194.46759 40.3158875 -834.155396
v 190.499573 2.25290489 -839.702637
v 185.58429 -34.9146957 -847.078979
v 180.505249 -71.7515793 -857.122314
v 174.400513 -107.452385 -869.209717
v 165.813782 -140.095947 -881.921387
v 67.079834 98.7005386 -1025.92358
v 88.0286865 54.1927719 -1015.38037
v 72.1779175 61.4447861 -1040.29773
v 106.927246 8.94115257 -1002.56543
v 93.1403198 14.1371193 -1027.14648
v 76.4976807 24.2308998 -1049.94165
v 122.315979 -35.3790131 -986.032959
v 109.523682 -31.7803726 -1011.12463
v 94.8065186 -23.6501923 -1033.35571
v 76.927124 -10.7851448 -1054.91919
v 134.106018 -77.6788025 -964.880005
v 121.320557 -75.8707504 -990.909668
v 107.300476 -68.8652954 -1013.79993
v 90.9901733 -57.6185684 -1034.66052
v 71.6778564 -41.5776901 -1055.61633
v 143.032349 -116.898796 -939.19812
v 129.241821 -117.48513 -965.804443
v 114.72168 -111.834984 -989.655273
v 98.6428833 -101.082329 -1011.18201
v 80.5125732 -86.0587997 -1031.48743
v 60.1602173 -66.0259018 -1052.16064
v 150.38269 -151.058838 -910.020752
v 134.574829 -155.186768 -935.895264
v 118.106812 -151.990509 -959.798462
v 100.842773 -141.787994 -982.31897
v 82.4369507 -126.452415 -1003.48401
v 63.1000366 -106.856743 -1024.06238
v 43.2277222 -82.8847427 -1044.70337
v 47.6490479 148.142426 -1027.73523
v 50.2998657 110.901726 -1047.35571
v 31.9212646 159.697144 -1046.1416
v 55.2850952 73.2448349 -1061.53625
v 34.9968262 121.185524 -1066.02087
v 16.9730835 169.70163 -1062.08496
v 58.7410278 36.7987595 -1071.02173
v 39.5592651 83.5866547 -1080.64197
v 20.1448975 130.687164 -1082.90649
v 1.23760986 178.283417 -1076.4939
v 57.4860229 3.35969162 -1075.96008
v 41.3948364 48.3440399 -1090.65369
v 23.4511719 93.8227539 -1098.54639
v 4.23077393 139.755981 -1098.16711
v -16.5043945 185.316956 -1089.82166
v 49.7528687 -25.1764946 -1076.05664
v 37.3501587 17.1125946 -1095.49707
v 22.5283203 60.5400009 -1108.92517
v 5.40936279 104.514046 -1114.21643
v -14.4165649 148.318268 -1111.27527
v -35.6687622 190.225189 -1100.45447
v 34.8864136 -46.9929886 -1070.42163
v 25.546814 -8.35232544 -1093.67847
v 14.1761475 32.354847 -1112.24573
v 0.292053223 74.0628357 -1123.20288
v -16.5075073 115.668037 -1125.38977
v -35.7689819 155.894836 -1119.42261
v -54.7106934 192.693207 -1105.65808
v 36.3580933 191.306763 -1018.99377
v 19.2808228 203.47995 -1036.46228
v 28.6721191 227.725372 -1006.81372
v 1.9899292 213.01178 -1051.27002
v 9.16461182 239.080261 -1023.77905
v 22.7149048 258.334259 -991.675049
v -17.3066406 219.952087 -1065.06763
v -11.6751709 246.985138 -1038.31592
v 0.0151367188 268.045471 -1008.3219
v 17.3686523 283.633728 -973.959351
v -38.1314392 223.930908 -1077.12549
v -34.2781372 251.296295 -1050.98669
v -23.9502563 273.380493 -1021.8219
v -8.02819824 290.809021 -989.067017
v 12.7973633 303.0401 -953.10083
v -58.8665466 224.259125 -1084.85205
v -57.2080078 251.324951 -1059.82251
v -48.7442627 273.852448 -1031.27429
v -34.0627441 292.27121 -999.360962
v -14.1738281 306.074829 -964.129761
v 9.99298096 314.35733 -927.459839
v 18.5108032 318.987152 -889.387817
v -12.3525391 313.151031 -928.699951
v -0.554748535 315.20575 -886.500732
v -37.7783203 302.476135 -967.950317
v -32.7300415 306.124054 -928.971191
v -18.8486328 307.420685 -883.572144
v -57.2812195 287.101898 -1003.98315
v -57.5550842 293.284973 -969.128052
v -50.2008362 295.534027 -927.605347
v -35.4292603 296.836731 -880.440796
v -70.450592 267.256165 -1036.37244
v -75.5931091 276.066498 -1005.32849
v -73.3176575 280.14389 -967.939697
v -64.5206299 281.840637 -925.011963
v -49.6379395 283.548798 -877.747437
v -76.5808411 242.61496 -1065.79175
v -86.6890869 253.778107 -1038.2771
v -89.2452087 259.969788 -1004.08618
v -85.1144409 263.326294 -964.711304
v -75.4963684 265.575378 -921.27478
v -60.8432922 268.007568 -875.341064
v -75.1596375 211.86499 -1091.56079
v -90.1048279 225.310883 -1068.41687
v -97.8502502 233.974518 -1037.14697
v -98.3856506 239.644714 -999.781982
v -93.0118408 243.843842 -958.621826
v -82.8586426 247.549347 -915.469238
v -68.2842712 250.38089 -872.175415
v -61.9619141 172.455719 -1114.27014
v -42.6804199 132.569916 -1126.62329
v -69.3589783 153.080597 -1114.13635
v -24.9949341 91.5992508 -1128.63452
v -51.5533752 112.583061 -1123.02063
v -77.6300354 136.070221 -1104.07104
v -10.9873047 50.5057373 -1121.21033
v -36.6065369 72.1546936 -1120.37671
v -62.8141785 95.9820328 -1108.96277
v -86.9355164 121.847298 -1084.6698
v 0.122558594 9.50061798 -1104.30127
v -25.0547485 31.4179688 -1107.65613
v -50.7503662 55.5676651 -1102.27441
v -75.5411377 81.4746246 -1086.47876
v -96.2227478 108.907005 -1058.62036
v 9.453125 -31.3734016 -1080.12793
v -15.3909912 -10.4477463 -1085.48645
v -40.6018372 13.5024529 -1084.89551
v -65.6834106 39.507412 -1076.37964
v -88.0391235 67.0124588 -1058.05151
v -104.148865 94.3150635 -1028.97949
v 18.5618286 -71.4576874 -1051.28333
v -6.13818359 -53.8375092 -1055.96362
v -30.7128296 -31.5764046 -1057.33899
v -55.6427002 -5.98843002 -1053.71643
v -79.053894 21.7772446 -1043.11926
v -97.7387695 49.6858444 -1024.30579
v -108.811707 75.8894653 -997.293213
v 35.9846191 -110.069389 -1020.85181
v 58.135498 -137.374939 -996.546265
v 29.1553955 -132.982208 -994.229614
v 79.6834717 -158.605499 -973.219482
v 54.2821045 -161.164124 -967.352051
v 25.2365723 -150.762848 -965.811157
v 100.608582 -174.162842 -950.040039
v 78.8216553 -181.716003 -942.161987
v 53.7677612 -177.739746 -937.292358
v 25.6951294 -161.054169 -935.90564
v 121.274597 -182.430878 -926.577271
v 103.380615 -194.871643 -917.769043
v 81.8214111 -195.430878 -910.640259
v 57.4992676 -184.705963 -906.072021
v 31.3562012 -162.089386 -904.580811
v 141.932068 -181.589996 -901.561523
v 128.620239 -198.842773 -893.031616
v 110.612305 -203.520996 -884.633301
v 89.4730835 -197.058044 -877.761719
v 66.3721924 -180.005035 -873.426514
v 42.5340576 -153.200989 -871.982178
v 162.361755 -170.805145 -873.208862
v 154.339417 -191.226135 -864.250732
v 140.600098 -200.101715 -855.792236
v 122.967651 -197.2612 -847.467163
v 102.514343 -184.134186 -841.316772
v 80.7252808 -162.578796 -838.175537
v 58.5071411 -134.75882 -837.961182
v 181.309326 -143.081543 -847.375366
v 193.06958 -106.740837 -831.55249
v 198.039246 -136.860992 -812.97229
v 202.543274 -68.6347885 -818.776733
v 213.264221 -97.5898438 -796.737549
v 215.675354 -122.195702 -779.30957
v 210.90509 -30.1025391 -809.869629
v 226.218323 -57.7837601 -785.000366
v 234.689575 -81.8846054 -764.641235
v 233.717346 -100.829765 -747.280884
v 217.298584 9.58579254 -804.360474
v 236.296814 -17.0379486 -777.636963
v 249.839417 -40.5606613 -754.789307
v 255.29895 -60.543129 -735.336426
v 250.175842 -73.8248825 -718.090332
v 220.243103 51.8452835 -801.376221
v 241.637207 26.7509842 -773.888916
v 259.102234 3.84829903 -748.947876
v 270.067017 -16.7069817 -727.626587
v 271.518677 -32.6968613 -709.051392
v 261.692383 -42.020134 -692.672852
v 219.340088 97.3999252 -800.050171
v 241.285889 75.0999298 -773.476196
v 260.806091 53.6352005 -747.299927
v 275.449158 33.2058678 -723.648804
v 282.033569 15.003582 -703.560913
v 278.22052 1.10059738 -686.086914
v 264.050171 -7.19213104 -671.136963
v 208.225891 148.352631 -806.209473
v 190.216309 191.95816 -814.144165
v 217.255798 175.542053 -787.720947
v 169.823547 230.555695 -818.477417
v 197.222717 218.743591 -793.997314
v 221.860168 200.839264 -768.801025
v 146.076599 263.161194 -823.032959
v 173.792664 254.290192 -798.098145
v 199.129028 241.83194 -774.677002
v 219.943542 223.153625 -750.212891
v 119.104492 289.495789 -830.138794
v 146.143188 282.852478 -803.279663
v 171.916748 273.835114 -779.641846
v 193.767029 260.858521 -756.793701
v 209.649048 241.235321 -733.104004
v 89.1057739 308.430023 -841.599854
v 114.215088 304.471985 -811.890747
v 139.434937 298.294403 -786.291382
v 162.031006 288.972443 -763.055664
v 179.471619 274.870026 -740.612427
v 191.49585 254.619537 -718.065308
v 56.1052246 318.373383 -858.213013
v 77.6882324 317.208679 -826.113647
v 100.774475 314.148773 -797.343994
v 123.183594 308.437714 -771.813354
v 142.190613 298.42926 -748.469482
v 156.691345 283.389465 -726.405273
v 167.852234 263.332916 -705.572388
v 37.8538208 319.898102 -850.885864
v 19.1047974 315.80603 -844.88501
v 59.050415 319.086731 -816.745728
v 0.613952637 308.121521 -839.679321
v 39.6030273 315.149658 -809.095215
v 80.6774292 316.420013 -786.471558
v -16.9126587 297.183716 -835.623047
v 20.0575562 306.865051 -802.55835
v 59.758667 311.775208 -777.296387
v 100.97522 310.034637 -759.313599
v -32.5809326 282.283264 -833.52063
v 1.26263428 293.677917 -798.091064
v 39.0464478 301.436646 -769.516846
v 78.8676147 303.705261 -747.999878
v 118.6922 298.309479 -733.943481
v -44.7458496 262.99826 -832.693481
v -14.9252319 274.292206 -796.209717
v 20.0808105 283.738586 -764.374878
v 58.2972412 289.464447 -738.365479
v 97.1091309 288.732849 -720.07605
v 134.08551 279.881989 -709.670654
v -83.6440125 191.287567 -1094.92822
v -90.4320679 172.731232 -1088.34778
v -97.7612 204.286102 -1065.948
v -96.7517395 157.365936 -1072.09216
v -102.593689 186.836395 -1053.4303
v -103.760498 213.45871 -1029.33582
v -103.082642 144.330994 -1047.51721
v -106.274231 172.659546 -1031.84521
v -106.412292 197.182861 -1011.67346
v -102.54248 220.313995 -987.267578
v -108.138275 130.340424 -1017.39697
v -108.909668 159.29953 -1002.58423
v -107.117157 183.285919 -985.03894
v -102.767761 204.862457 -964.655518
v -95.1791382 225.953461 -941.603882
v -111.259674 111.581032 -983.967529
v -109.530823 142.487518 -967.72644
v -105.511292 168.262482 -950.326172
v -99.7153931 190.340607 -932.200439
v -92.1130371 210.698639 -913.347168
v -82.0496826 230.603912 -893.669312
v 8.14337158 -96.2047729 -1024.34082
v 0.316467285 -115.721077 -995.884521
v -17.6989746 -76.1493607 -1025.84521
v -2.87689209 -128.799896 -965.973389
v -25.2608032 -92.1210632 -995.095337
v -42.8173218 -51.2402878 -1024.29248
v -0.238098145 -133.967407 -934.165039
v -27.140564 -101.109581 -963.12085
v -49.7827148 -63.9370804 -990.997803
v -67.3589783 -22.6851234 -1017.96814
v 9.09216309 -130.300629 -899.951172
v -21.8288574 -102.399834 -928.667358
v -49.6723022 -69.7858887 -956.12207
v -72.5904236 -32.704586 -981.595703
v -88.8254089 7.80179405 -1004.65442
v 25.1166992 -116.327354 -862.203979
v -8.37921143 -93.8870468 -889.438843
v -40.677887 -67.0124435 -916.792236
v -68.9960327 -35.2630386 -941.695068
v -90.4593811 0.656387329 -963.527344
v -103.529266 38.6895676 -982.094116
v 178.200317 -169.953827 -836.438965
v 193.745056 -157.718842 -800.361206
v 169.168762 -183.937378 -826.240601
v 208.974792 -136.142273 -765.046387
v 183.285767 -164.40155 -788.633423
v 155.01532 -185.083588 -816.262573
v 223.760498 -107.264107 -731.505615
v 196.497009 -135.376831 -752.057251
v 167.933533 -158.131042 -778.061401
v 136.756775 -174.881622 -808.10791
v 236.590454 -72.3702316 -700.873413
v 208.460632 -98.7154541 -717.221191
v 179.259888 -121.859749 -740.952148
v 148.293091 -141.030853 -770.359009
v 115.297058 -155.152985 -803.237549
v 243.422852 -32.6974258 -673.793701
v 216.904968 -55.5146179 -685.026123
v 187.536377 -77.0822601 -705.333618
v 156.59082 -97.2384491 -733.568604
v 124.157593 -114.49099 -766.875366
v 91.0350952 -127.477898 -802.284912
v 232.443054 126.175743 -779.491211
v 239.835144 153.731567 -760.755859
v 253.346741 105.140503 -752.076538
v 240.403992 178.954041 -742.55957
v 257.071289 132.982452 -733.912598
v 270.039185 84.7211075 -725.939575
v 232.56427 200.84259 -724.940796
v 251.550903 157.624725 -716.991821
v 268.105652 112.294518 -708.517334
v 279.882935 64.7688446 -702.719482
v 216.052246 219.062134 -708.366455
v 236.549255 179.082184 -700.544067
v 255.053406 136.277985 -692.599609
v 270.563843 91.7451859 -685.404419
v 279.605591 46.4840012 -682.368164
v 192.056335 233.60849 -693.676025
v 213.163086 197.939117 -684.422119
v 232.068359 157.981934 -676.549072
v 248.889526 115.928108 -668.860229
v 261.694031 73.682045 -663.436035
v 267.532715 32.4855843 -663.671997
v 38.4681396 115.572487 -694.759277
v 65.019104 143.731598 -672.761719
v 19.3369141 139.913666 -713.781006
v 90.40802 170.759766 -661.352539
v 45.5905151 170.209534 -695.628296
v 2.17724609 163.443878 -736.553467
v 112.608643 195.553406 -658.999268
v 68.6235352 198.557037 -686.302124
v 26.46875 193.780273 -721.057983
v -14.2474365 185.941803 -761.699951
v 130.614563 217.521149 -663.417358
v 87.9437256 224.620392 -682.93103
v 46.5319824 222.05188 -711.968994
v 6.76940918 215.018036 -747.236206
v -30.8134155 206.321625 -788.202148
v 144.938049 236.282867 -673.192017
v 104.294189 247.482635 -685.317627
v 63.7095337 248.191925 -707.663574
v 24.1500854 242.337769 -738.011475
v -13.0794067 233.645325 -773.941895
v -46.5830078 223.925262 -815.401489
v 157.167969 251.534027 -687.655396
v 119.397339 266.039093 -694.333008
v 80.1585083 270.904755 -709.861206
v 40.7174072 267.670532 -734.383057
v 3.11547852 259.67926 -765.616943
v -30.7611084 249.704315 -802.12561
v -59.32901 238.62439 -843.475708
v 76.1820068 107.630066 -664.13562
v 114.482483 96.3578033 -641.852539
v 105.861084 136.015167 -644.416626
v 151.909424 79.7186584 -630.734131
v 144.264038 122.287758 -629.085815
v 132.076721 160.605347 -639.562744
v 187.373779 58.5053024 -630.416382
v 180.161133 102.415443 -626.166504
v 169.014038 143.305939 -632.548096
v 153.449707 181.742004 -645.492188
v 219.496826 35.5452309 -638.323975
v 213.78894 79.2305679 -632.372559
v 202.755127 121.211494 -636.251953
v 188.339417 161.785156 -645.708252
v 169.762024 200.601868 -657.713257
v 245.866455 13.0734425 -652.53064
v 243.887451 55.307518 -645.343384
v 234.196411 97.3188858 -647.028809
v 219.928406 139.100586 -654.356934
v 202.708862 179.857574 -663.401245
v 182.108704 218.060028 -673.731201
v 36.3152466 82.0915146 -705.868286
v 37.5456543 47.7586823 -724.643188
v 78.2392578 70.33004 -675.354858
v 41.5957642 12.4955597 -747.797607
v 82.7521362 33.1512947 -695.22522
v 118.84967 55.4752121 -655.072388
v 47.2272949 -23.960247 -772.018799
v 87.7208862 -4.80499268 -720.160156
v 123.804443 15.3501511 -677.329712
v 156.740173 36.29282 -646.296143
v 52.4082642 -61.7427292 -795.026367
v 91.3319092 -44.5379639 -747.279297
v 126.923523 -25.7375679 -704.884766
v 159.998413 -6.12170029 -670.630493
v 191.278137 13.9038734 -647.608887
v 55.9100952 -99.6336288 -816.693481
v 92.1395874 -86.248291 -774.602661
v 127.029297 -69.1537933 -735.066528
v 160.127991 -50.1078491 -700.15564
v 191.543884 -30.0782509 -673.304443
v 221.010864 -9.71575928 -657.157593
v 0.550720215 102.898903 -735.580322
v -33.9943237 92.4441986 -780.344971
v -3.67205811 66.5086517 -755.081665
v -63.3950195 85.0964279 -826.137939
v -38.3996887 53.9538193 -804.890381
v -3.23632812 30.7125244 -779.033936
v -86.3756714 80.7372513 -871.082642
v -66.78125 44.9227867 -852.512817
v -37.1659546 16.8832932 -830.219971
v 1.37768555 -5.12968826 -803.139282
v -102.138397 78.6683731 -914.610718
v -87.9489441 39.7947845 -897.279785
v -63.6399536 6.86768913 -877.273438
v -30.7390137 -19.7173653 -852.980835
v 8.8114624 -41.7652512 -824.750732
v -109.812317 77.64077 -956.864746
v -100.755585 38.2624092 -940.114258
v -82.1103516 1.61904335 -920.976562
v -54.6259155 -30.1609344 -898.497559
v -20.6674194 -56.6765823 -872.218872
v 17.0483398 -79.2905197 -843.781616
v -19.6939087 129.642456 -756.583618
v -35.4298096 155.465393 -779.845581
v -52.3214111 122.955284 -800.995972
v -48.9605713 179.188263 -805.341309
v -64.7971191 151.159302 -823.83606
v -77.9811096 119.197746 -845.946899
v -61.809845 199.575653 -832.953247
v -74.8771057 175.493408 -849.976807
v -86.8529663 148.973663 -869.059692
v -96.6888428 117.315758 -891.144165
v -73.4353943 216.568268 -862.405151
v -84.2265625 195.156219 -879.809326
v -93.7001648 172.745453 -897.584106
v -101.967529 146.8078 -916.709473
v -108.015839 115.266502 -937.078735
g 
f 3 1 2
f 5 2 4
f 6 3 5
f 8 4 7
f 9 5 8
f 10 6 9
f 12 7 11
f 13 8 12
f 14 9 13
f 15 10 14
f 17 11 16
f 18 12 17
f 19 13 18
f 20 14 19
f 21 15 20
f 23 16 22
f 24 17 23
f 25 18 24
f 26 19 25
f 27 20 26
f 28 21 27
f 30 22 29
f 31 23 30
f 32 24 31
f 33 25 32
f 34 26 33
f 35 27 34
f 36 28 35
f 3 2 5
f 5 4 8
f 6 5 9
f 8 7 12
f 9 8 13
f 10 9 14
f 12 11 17
f 13 12 18
f 14 13 19
f 15 14 20
f 17 16 23
f 18 17 24
f 19 18 25
f 20 19 26
f 21 20 27
f 23 22 30
f 24 23 31
f 25 24 32
f 26 25 33
f 27 26 34
f 28 27 35
f 37 1 3
f 38 3 6
f 39 37 38
f 40 6 10
f 41 38 40
f 42 39 41
f 43 10 15
f 44 40 43
f 45 41 44
f 46 42 45
f 47 15 21
f 48 43 47
f 49 44 48
f 50 45 49
f 51 46 50
f 52 21 28
f 53 47 52
f 54 48 53
f 55 49 54
f 56 50 55
f 57 51 56
f 58 28 36
f 59 52 58
f 60 53 59
f 61 54 60
f 62 55 61
f 63 56 62
f 64 57 63
f 37 3 38
f 38 6 40
f 39 38 41
f 40 10 43
f 41 40 44
f 42 41 45
f 43 15 47
f 44 43 48
f 45 44 49
f 46 45 50
f 47 21 52
f 48 47 53
f 49 48 54
f 50 49 55
f 51 50 56
f 52 28 58
f 53 52 59
f 54 53 60
f 55 54 61
f 56 55 62
f 57 56 63
f 65 1 37
f 66 37 39
f 67 65 66
f 68 39 42
f 69 66 68
f 70 67 69
f 71 42 46
f 72 68 71
f 73 69 72
f 74 70 73
f 75 46 51
f 76 71 75
f 77 72 76
f 78 73 77
f 79 74 78
f 80 51 57
f 81 75 80
f 82 76 81
f 83 77 82
f 84 78 83
f 85 79 84
f 86 57 64
f 87 80 86
f 88 81 87
f 89 82 88
f 90 83 89
f 91 84 90
f 92 85 91
f 65 37 66
f 66 39 68
f 67 66 69
f 68 42 71
f 69 68 72
f 70 69 73
f 71 46 75
f 72 71 76
f 73 72 77
f 74 73 78
f 75 51 80
f 76 75 81
f 77 76 82
f 78 77 83
f 79 78 84
f 80 57 86
f 81 80 87
f 82 81 88
f 83 82 89
f 84 83 90
f 85 84 91
f 93 1 65
f 94 65 67
f 95 93 94
f 96 67 70
f 97 94 96
f 98 95 97
f 99 70 74
f 100 96 99
f 101 97 100
f 102 98 101
f 103 74 79
f 104 99 103
f 105 100 104
f 106 101 105
f 107 102 106
f 108 79 85
f 109 103 108
f 110 104 109
f 111 105 110
f 112 106 111
f 113 107 112
f 114 85 92
f 115 108 114
f 116 109 115
f 117 110 116
f 118 111 117
f 119 112 118
f 120 113 119
f 93 65 94
f 94 67 96
f 95 94 97
f 96 70 99
f 97 96 100
f 98 97 101
f 99 74 103
f 100 99 104
f 101 100 105
f 102 101 106
f 103 79 108
f 104 103 109
f 105 104 110
f 106 105 111
f 107 106 112
f 108 85 114
f 109 108 115
f 110 109 116
f 111 110 117
f 112 111 118
f 113 112 119
f 2 1 93
f 121 93 95
f 4 2 121
f 122 95 98
f 123 121 122
f 7 4 123
f 124 98 102
f 125 122 124
f 126 123 125
f 11 7 126
f 127 102 107
f 128 124 127
f 129 125 128
f 130 126 129
f 16 11 130
f 131 107 113
f 132 127 131
f 133 128 132
f 134 129 133
f 135 130 134
f 22 16 135
f 136 113 120
f 137 131 136
f 138 132 137
f 139 133 138
f 140 134 139
f 141 135 140
f 29 22 141
f 2 93 121
f 121 95 122
f 4 121 123
f 122 98 124
f 123 122 125
f 7 123 126
f 124 102 127
f 125 124 128
f 126 125 129
f 11 126 130
f 127 107 131
f 128 127 132
f 129 128 133
f 130 129 134
f 16 130 135
f 131 113 136
f 132 131 137
f 133 132 138
f 134 133 139
f 135 134 140
f 22 135 141
f 142 29 141
f 143 141 140
f 144 142 143
f 145 140 139
f 146 143 145
f 147 144 146
f 148 139 138
f 149 145 148
f 150 146 149
f 151 147 150
f 152 138 137
f 153 148 152
f 154 149 153
f 155 150 154
f 156 151 155
f 157 137 136
f 158 152 157
f 159 153 158
f 160 154 159
f 161 155 160
f 162 156 161
f 163 136 120
f 164 157 163
f 165 158 164
f 166 159 165
f 167 160 166
f 168 161 167
f 169 162 168
f 142 141 143
f 143 140 145
f 144 143 146
f 145 139 148
f 146 145 149
f 147 146 150
f 148 138 152
f 149 148 153
f 150 149 154
f 151 150 155
f 152 137 157
f 153 152 158
f 154 153 159
f 155 154 160
f 156 155 161
f 157 136 163
f 158 157 164
f 159 158 165
f 160 159 166
f 161 160 167
f 162 161 168
f 170 120 119
f 171 119 118
f 172 170 171
f 173 118 117
f 174 171 173
f 175 172 174
f 176 117 116
f 177 173 176
f 178 174 177
f 179 175 178
f 180 116 115
f 181 176 180
f 182 177 181
f 183 178 182
f 184 179 183
f 185 115 114
f 186 180 185
f 187 181 186
f 188 182 187
f 189 183 188
f 190 184 189
f 191 114 92
f 192 185 191
f 193 186 192
f 194 187 193
f 195 188 194
f 196 189 195
f 197 190 196
f 170 119 171
f 171 118 173
f 172 171 174
f 173 117 176
f 174 173 177
f 175 174 178
f 176 116 180
f 177 176 181
f 178 177 182
f 179 178 183
f 180 115 185
f 181 180 186
f 182 181 187
f 183 182 188
f 184 183 189
f 185 114 191
f 186 185 192
f 187 186 193
f 188 187 194
f 189 188 195
f 190 189 196
f 198 92 91
f 199 91 90
f 200 198 199
f 201 90 89
f 202 199 201
f 203 200 202
f 204 89 88
f 205 201 204
f 206 202 205
f 207 203 206
f 208 88 87
f 209 204 208
f 210 205 209
f 211 206 210
f 212 207 211
f 213 87 86
f 214 208 213
f 215 209 214
f 216 210 215
f 217 211 216
f 218 212 217
f 219 86 64
f 220 213 219
f 221 214 220
f 222 215 221
f 223 216 222
f 224 217 223
f 225 218 224
f 198 91 199
f 199 90 201
f 200 199 202
f 201 89 204
f 202 201 205
f 203 202 206
f 204 88 208
f 205 204 209
f 206 205 210
f 207 206 211
f 208 87 213
f 209 208 214
f 210 209 215
f 211 210 216
f 212 211 217
f 213 86 219
f 214 213 220
f 215 214 221
f 216 215 222
f 217 216 223
f 218 217 224
f 226 64 63
f 227 63 62
f 228 226 227
f 229 62 61
f 230 227 229
f 231 228 230
f 232 61 60
f 233 229 232
f 234 230 233
f 235 231 234
f 236 60 59
f 237 232 236
f 238 233 237
f 239 234 238
f 240 235 239
f 241 59 58
f 242 236 241
f 243 237 242
f 244 238 243
f 245 239 244
f 246 240 245
f 247 58 36
f 248 241 247
f 249 242 248
f 250 243 249
f 251 244 250
f 252 245 251
f 253 246 252
f 226 63 227
f 227 62 229
f 228 227 230
f 229 61 232
f 230 229 233
f 231 230 234
f 232 60 236
f 233 232 237
f 234 233 238
f 235 234 239
f 236 59 241
f 237 236 242
f 238 237 243
f 239 238 244
f 240 239 245
f 241 58 247
f 242 241 248
f 243 242 249
f 244 243 250
f 245 244 251
f 246 245 252
f 254 36 35
f 255 35 34
f 256 254 255
f 257 34 33
f 258 255 257
f 259 256 258
f 260 33 32
f 261 257 260
f 262 258 261
f 263 259 262
f 264 32 31
f 265 260 264
f 266 261 265
f 267 262 266
f 268 263 267
f 269 31 30
f 270 264 269
f 271 265 270
f 272 266 271
f 273 267 272
f 274 268 273
f 275 30 29
f 276 269 275
f 277 270 276
f 278 271 277
f 279 272 278
f 280 273 279
f 281 274 280
f 254 35 255
f 255 34 257
f 256 255 258
f 257 33 260
f 258 257 261
f 259 258 262
f 260 32 264
f 261 260 265
f 262 261 266
f 263 262 267
f 264 31 269
f 265 264 270
f 266 265 271
f 267 266 272
f 268 267 273
f 269 30 275
f 270 269 276
f 271 270 277
f 272 271 278
f 273 272 279
f 274 273 280
f 275 29 142
f 282 142 144
f 276 275 282
f 283 144 147
f 284 282 283
f 277 276 284
f 285 147 151
f 286 283 285
f 287 284 286
f 278 277 287
f 288 151 156
f 289 285 288
f 290 286 289
f 291 287 290
f 279 278 291
f 292 156 162
f 293 288 292
f 294 289 293
f 295 290 294
f 296 291 295
f 280 279 296
f 297 162 169
f 298 292 297
f 299 293 298
f 300 294 299
f 301 295 300
f 302 296 301
f 281 280 302
f 275 142 282
f 282 144 283
f 276 282 284
f 283 147 285
f 284 283 286
f 277 284 287
f 285 151 288
f 286 285 289
f 287 286 290
f 278 287 291
f 288 156 292
f 289 288 293
f 290 289 294
f 291 290 295
f 279 291 296
f 292 162 297
f 293 292 298
f 294 293 299
f 295 294 300
f 296 295 301
f 280 296 302
f 163 120 170
f 303 170 172
f 164 163 303
f 304 172 175
f 305 303 304
f 165 164 305
f 306 175 179
f 307 304 306
f 308 305 307
f 166 165 308
f 309 179 184
f 310 306 309
f 311 307 310
f 312 308 311
f 167 166 312
f 313 184 190
f 314 309 313
f 315 310 314
f 316 311 315
f 317 312 316
f 168 167 317
f 318 190 197
f 319 313 318
f 320 314 319
f 321 315 320
f 322 316 321
f 323 317 322
f 169 168 323
f 163 170 303
f 303 172 304
f 164 303 305
f 304 175 306
f 305 304 307
f 165 305 308
f 306 179 309
f 307 306 310
f 308 307 311
f 166 308 312
f 309 184 313
f 310 309 314
f 311 310 315
f 312 311 316
f 167 312 317
f 313 190 318
f 314 313 319
f 315 314 320
f 316 315 321
f 317 316 322
f 168 317 323
f 191 92 198
f 324 198 200
f 192 191 324
f 325 200 203
f 326 324 325
f 193 192 326
f 327 203 207
f 328 325 327
f 329 326 328
f 194 193 329
f 330 207 212
f 331 327 330
f 332 328 331
f 333 329 332
f 195 194 333
f 334 212 218
f 335 330 334
f 336 331 335
f 337 332 336
f 338 333 337
f 196 195 338
f 339 218 225
f 340 334 339
f 341 335 340
f 342 336 341
f 343 337 342
f 344 338 343
f 197 196 344
f 191 198 324
f 324 200 325
f 192 324 326
f 325 203 327
f 326 325 328
f 193 326 329
f 327 207 330
f 328 327 331
f 329 328 332
f 194 329 333
f 330 212 334
f 331 330 335
f 332 331 336
f 333 332 337
f 195 333 338
f 334 218 339
f 335 334 340
f 336 335 341
f 337 336 342
f 338 337 343
f 196 338 344
f 219 64 226
f 345 226 228
f 220 219 345
f 346 228 231
f 347 345 346
f 221 220 347
f 348 231 235
f 349 346 348
f 350 347 349
f 222 221 350
f 351 235 240
f 352 348 351
f 353 349 352
f 354 350 353
f 223 222 354
f 355 240 246
f 356 351 355
f 357 352 356
f 358 353 357
f 359 354 358
f 224 223 359
f 360 246 253
f 361 355 360
f 362 356 361
f 363 357 362
f 364 358 363
f 365 359 364
f 225 224 365
f 219 226 345
f 345 228 346
f 220 345 347
f 346 231 348
f 347 346 349
f 221 347 350
f 348 235 351
f 349 348 352
f 350 349 353
f 222 350 354
f 351 240 355
f 352 351 356
f 353 352 357
f 354 353 358
f 223 354 359
f 355 246 360
f 356 355 361
f 357 356 362
f 358 357 363
f 359 358 364
f 224 359 365
f 247 36 254
f 366 254 256
f 248 247 366
f 367 256 259
f 368 366 367
f 249 248 368
f 369 259 263
f 370 367 369
f 371 368 370
f 250 249 371
f 372 263 268
f 373 369 372
f 374 370 373
f 375 371 374
f 251 250 375
f 376 268 274
f 377 372 376
f 378 373 377
f 379 374 378
f 380 375 379
f 252 251 380
f 381 274 281
f 382 376 381
f 383 377 382
f 384 378 383
f 385 379 384
f 386 380 385
f 253 252 386
f 247 254 366
f 366 256 367
f 248 366 368
f 367 259 369
f 368 367 370
f 249 368 371
f 369 263 372
f 370 369 373
f 371 370 374
f 250 371 375
f 372 268 376
f 373 372 377
f 374 373 378
f 375 374 379
f 251 375 380
f 376 274 381
f 377 376 382
f 378 377 383
f 379 378 384
f 380 379 385
f 252 380 386
f 389 387 388
f 391 388 390
f 392 389 391
f 394 390 393
f 395 391 394
f 396 392 395
f 398 393 397
f 399 394 398
f 400 395 399
f 401 396 400
f 403 397 402
f 404 398 403
f 405 399 404
f 406 400 405
f 407 401 406
f 409 402 408
f 410 403 409
f 411 404 410
f 412 405 411
f 413 406 412
f 414 407 413
f 302 408 281
f 301 409 302
f 300 410 301
f 299 411 300
f 298 412 299
f 297 413 298
f 169 414 297
f 389 388 391
f 391 390 394
f 392 391 395
f 394 393 398
f 395 394 399
f 396 395 400
f 398 397 403
f 399 398 404
f 400 399 405
f 401 400 406
f 403 402 409
f 404 403 410
f 405 404 411
f 406 405 412
f 407 406 413
f 409 408 302
f 410 409 301
f 411 410 300
f 412 411 299
f 413 412 298
f 414 413 297
f 388 387 415
f 417 415 416
f 390 388 417
f 419 416 418
f 420 417 419
f 393 390 420
f 422 418 421
f 423 419 422
f 424 420 423
f 397 393 424
f 426 421 425
f 427 422 426
f 428 423 427
f 429 424 428
f 402 397 429
f 431 425 430
f 432 426 431
f 433 427 432
f 434 428 433
f 435 429 434
f 408 402 435
f 386 430 253
f 385 431 386
f 384 432 385
f 383 433 384
f 382 434 383
f 381 435 382
f 281 408 381
f 388 415 417
f 417 416 419
f 390 417 420
f 419 418 422
f 420 419 423
f 393 420 424
f 422 421 426
f 423 422 427
f 424 423 428
f 397 424 429
f 426 425 431
f 427 426 432
f 428 427 433
f 429 428 434
f 402 429 435
f 431 430 386
f 432 431 385
f 433 432 384
f 434 433 383
f 435 434 382
f 408 435 381
f 415 387 436
f 438 436 437
f 416 415 438
f 440 437 439
f 441 438 440
f 418 416 441
f 443 439 442
f 444 440 443
f 445 441 444
f 421 418 445
f 447 442 446
f 448 443 447
f 449 444 448
f 450 445 449
f 425 421 450
f 452 446 451
f 453 447 452
f 454 448 453
f 455 449 454
f 456 450 455
f 430 425 456
f 365 451 225
f 364 452 365
f 363 453 364
f 362 454 363
f 361 455 362
f 360 456 361
f 253 430 360
f 415 436 438
f 438 437 440
f 416 438 441
f 440 439 443
f 441 440 444
f 418 441 445
f 443 442 447
f 444 443 448
f 445 444 449
f 421 445 450
f 447 446 452
f 448 447 453
f 449 448 454
f 450 449 455
f 425 450 456
f 452 451 365
f 453 452 364
f 454 453 363
f 455 454 362
f 456 455 361
f 430 456 360
f 436 387 457
f 459 457 458
f 437 436 459
f 461 458 460
f 462 459 461
f 439 437 462
f 464 460 463
f 465 461 464
f 466 462 465
f 442 439 466
f 468 463 467
f 469 464 468
f 470 465 469
f 471 466 470
f 446 442 471
f 473 467 472
f 474 468 473
f 475 469 474
f 476 470 475
f 477 471 476
f 451 446 477
f 344 472 197
f 343 473 344
f 342 474 343
f 341 475 342
f 340 476 341
f 339 477 340
f 225 451 339
f 436 457 459
f 459 458 461
f 437 459 462
f 461 460 464
f 462 461 465
f 439 462 466
f 464 463 468
f 465 464 469
f 466 465 470
f 442 466 471
f 468 467 473
f 469 468 474
f 470 469 475
f 471 470 476
f 446 471 477
f 473 472 344
f 474 473 343
f 475 474 342
f 476 475 341
f 477 476 340
f 451 477 339
f 457 387 389
f 478 389 392
f 458 457 478
f 479 392 396
f 480 478 479
f 460 458 480
f 481 396 401
f 482 479 481
f 483 480 482
f 463 460 483
f 484 401 407
f 485 481 484
f 486 482 485
f 487 483 486
f 467 463 487
f 488 407 414
f 489 484 488
f 490 485 489
f 491 486 490
f 492 487 491
f 472 467 492
f 323 414 169
f 322 488 323
f 321 489 322
f 320 490 321
f 319 491 320
f 318 492 319
f 197 472 318
f 457 389 478
f 478 392 479
f 458 478 480
f 479 396 481
f 480 479 482
f 460 480 483
f 481 401 484
f 482 481 485
f 483 482 486
f 463 483 487
f 484 407 488
f 485 484 489
f 486 485 490
f 487 486 491
f 467 487 492
f 488 414 323
f 489 488 322
f 490 489 321
f 491 490 320
f 492 491 319
f 472 492 318
