# File exported by Houdini 20.5.445 (www.sidefx.com)
# 492 points
# 2940 vertices
# 980 primitives
# Bounds: [-138.790771, -112.309288, -1123.09277] to [309.564667, 228.686401, -631.708252]
g 
v 169.286652 99.3289795 -1108.95996
v 168.031647 131.082886 -1118.1355
v 198.803619 112.522606 -1116.88013
v 165.501678 160.790527 -1117.40527
v 200.423859 144.59137 -1123.09277
v 227.427582 121.10128 -1119.42065
v 163.498322 187.101868 -1107.67627
v 200.723419 172.136292 -1117.10864
v 230.91983 151.098663 -1120.31421
v 254.452362 125.041855 -1114.58386
v 162.306061 208.420319 -1089.76892
v 200.320526 194.604492 -1100.97021
v 232.293671 175.354248 -1107.81335
v 258.321198 152.082916 -1109.03784
v 277.905426 125.465355 -1101.52832
v 160.377533 222.632751 -1063.32104
v 198.196014 210.781311 -1075.13501
v 231.121124 193.518616 -1083.84631
v 259.02536 173.147491 -1089.19116
v 280.818756 149.684601 -1088.97803
v 295.510956 122.700226 -1080.0072
v 157.039398 228.313324 -1028.78638
v 193.348907 219.003143 -1039.65723
v 226.339813 204.189148 -1048.552
v 255.61496 186.775635 -1055.91882
v 279.467682 166.393738 -1060.24036
v 296.499298 142.547699 -1059.09875
v 306.079376 114.810509 -1049.8728
v 152.188202 225.251709 -987.205627
v 185.451141 217.983643 -994.535645
v 217.290802 205.638031 -1001.3219
v 246.976715 190.919281 -1008.3432
v 272.609711 173.671478 -1014.92688
v 291.931854 152.816437 -1019.22791
v 304.112457 128.424103 -1018.92505
v 309.564667 101.173851 -1012.19183
v 185.047333 76.2129211 -1097.14819
v 216.369965 87.9858093 -1103.75854
v 195.656097 53.3757629 -1078.17236
v 244.691437 95.4574661 -1104.60742
v 227.777435 64.9627457 -1083.17188
v 200.671112 31.5338078 -1054.15027
v 269.737518 98.4873657 -1097.92236
v 255.284027 71.7760315 -1082.46631
v 233.184845 43.1347275 -1057.91223
v 200.589386 11.2380543 -1027.78528
v 289.799286 98.1290207 -1082.81006
v 278.080536 73.6877136 -1073.95459
v 259.760406 48.6664124 -1055.67163
v 233.187103 21.9213314 -1030.20325
v 196.800385 -7.44432068 -1001.21112
v 303.207489 93.2667694 -1058.06543
v 294.59256 71.0510559 -1055.71118
v 280.106232 48.3511353 -1044.33081
v 258.491425 25.1081638 -1025.30676
v 228.548126 0.93183136 -1001.12469
v 190.70517 -24.8057938 -975.273499
v 309.092438 82.1546173 -1022.8266
v 303.415985 62.1135178 -1025.23145
v 292.47049 41.5896225 -1020.19171
v 275.543243 20.9349442 -1008.40619
v 251.293121 0.313014984 -991.069031
v 219.69162 -20.2623329 -970.58844
v 183.542816 -41.2850037 -949.598083
v 149.006317 69.1062622 -1091.66541
v 160.543915 43.3348846 -1074.06091
v 124.156036 38.6072998 -1070.97168
v 165.337067 19.7672577 -1050.85791
v 130.46817 11.8952274 -1049.95374
v 93.6302032 9.81692123 -1048.57715
v 164.67038 -1.61784363 -1024.81458
v 130.219147 -11.2154922 -1025.08643
v 95.4559174 -16.7067261 -1026.07275
v 58.620224 -15.7274628 -1025.47717
v 160.498138 -20.7763557 -998.070312
v 126.04483 -31.4352646 -998.511841
v 92.2622833 -38.8028641 -1000.87268
v 57.8750763 -41.2940674 -1002.59222
v 22.4318085 -36.9232559 -1001.75452
v 155.065277 -37.6472855 -971.645569
v 120.352814 -49.2574234 -971.243164
v 86.9275055 -57.644371 -973.838867
v 53.949234 -62.0069046 -977.076599
v 21.175766 -60.8383255 -978.470947
v -11.014267 -53.4327927 -977.212219
v 149.633392 -53.0459976 -945.356628
v 115.087921 -64.7503967 -943.425598
v 81.3690948 -74.0481186 -944.822449
v 49.0539093 -79.2456665 -948.335388
v 17.8787689 -79.7740936 -951.457336
v -11.924118 -75.2856522 -952.954102
v -39.0536346 -65.9355316 -951.756714
v 138.204803 103.219383 -1105.18591
v 114.968048 70.707428 -1087.05542
v 104.996185 106.499016 -1096.17041
v 87.6924896 40.5251617 -1066.02393
v 79.5814362 73.7700806 -1077.10425
v 70.1472015 110.405373 -1082.10327
v 55.5781097 13.6539059 -1043.36902
v 50.6085358 45.2219391 -1055.47009
v 43.1253204 78.7533722 -1062.08252
v 34.5754852 114.368507 -1063.1814
v 20.1794891 -9.52718353 -1019.15558
v 17.8955536 20.29459 -1031.56982
v 13.6266937 51.56427 -1038.89966
v 7.11366272 83.6318665 -1041.53955
v 0.339065552 116.221764 -1039.46289
v -15.0049896 -29.090416 -992.58667
v -16.4902802 -1.73458481 -1004.14447
v -18.1463776 27.233366 -1011.59796
v -21.5181732 56.6956863 -1014.88782
v -26.4521332 85.8952408 -1014.8197
v -30.5818634 114.4673 -1011.27228
v -46.4999847 -45.5038605 -963.320862
v -49.8096161 -21.4894371 -972.084717
v -50.7081757 4.6436367 -977.922974
v -51.4889069 31.5389423 -980.918945
v -53.7148285 58.3120575 -981.970581
v -56.6729889 84.3530197 -981.670776
v -57.903244 109.106514 -979.495178
v 132.719635 137.644379 -1110.18994
v 97.3047028 142.23587 -1096.94604
v 127.438446 168.652618 -1105.46338
v 61.5928192 145.63913 -1078.83752
v 90.7572174 172.956573 -1088.52588
v 124.059906 194.932861 -1092.76172
v 26.1529083 146.863892 -1055.81604
v 54.7019501 174.168793 -1066.72754
v 86.8731537 197.647705 -1072.67725
v 122.654388 214.853271 -1072.52246
v -7.61909485 144.229919 -1027.74377
v 19.5817413 171.335602 -1039.59497
v 51.037674 195.470306 -1047.09119
v 85.7927094 214.900848 -1049.17566
v 121.71286 226.832397 -1043.43665
v -38.9244232 136.788971 -994.783386
v -14.2502594 163.271454 -1006.58307
v 16.0319366 187.508179 -1014.96472
v 50.3240204 208.083038 -1018.69305
v 85.8870087 222.588135 -1015.3548
v 120.259674 228.686401 -1004.41296
v 127.744598 220.494049 -954.174194
v 91.8636932 220.497345 -972.045715
v 102.72641 211.099243 -920.861206
v 54.7593536 211.315735 -982.645386
v 64.0547943 207.198517 -940.448914
v 76.5066376 198.652649 -888.633606
v 17.582962 194.690094 -984.91394
v 25.263443 195.41687 -951.083801
v 36.1018219 191.362518 -909.739319
v 49.0981903 184.502411 -857.943298
v -17.2706757 172.719452 -979.86438
v -12.6024628 177.241364 -952.024597
v -3.37409973 177.581085 -919.428528
v 7.94020081 175.080963 -878.69696
v 20.3312225 170.375671 -828.429871
v -47.257431 147.089722 -970.183167
v -47.4601593 154.074127 -944.904358
v -41.2416534 158.51944 -917.561035
v -31.457962 160.293304 -885.150635
v -20.4262238 160.104858 -845.484497
v -8.95631409 157.299347 -799.195618
v -70.7486115 118.608398 -956.197083
v -76.9235077 126.818558 -931.897583
v -75.7385559 134.346024 -906.379517
v -68.8706512 140.669281 -878.394653
v -58.9655609 144.993622 -845.911316
v -48.2032013 146.834229 -808.900391
v -36.6088104 144.948578 -769.824829
v -81.9182434 87.7681503 -946.706482
v -81.1160889 60.8102264 -945.50293
v -101.850891 67.9393616 -910.963013
v -79.6902924 34.4288368 -944.265686
v -101.619659 39.8122864 -908.476196
v -117.934357 51.3299484 -873.693787
v -79.3771667 8.69403839 -943.554749
v -101.418289 13.6867599 -907.855408
v -118.405029 22.6025543 -872.196594
v -130.106216 38.3654289 -837.293701
v -78.7393341 -16.5682373 -941.838684
v -100.577652 -11.052742 -908.108398
v -117.366211 -3.26198196 -872.756287
v -129.787308 9.25155067 -837.603699
v -137.270676 27.927269 -803.764954
v -75.4009552 -41.1185303 -937.971497
v -97.0014191 -35.2198563 -907.525635
v -113.206543 -27.5119324 -873.610596
v -125.396484 -16.6117287 -838.653442
v -133.975952 -1.215271 -804.967896
v -138.458252 18.1802349 -773.827576
v -66.917038 -63.8355865 -930.97583
v -88.2365265 -58.916954 -904.597717
v -103.868073 -51.4803467 -873.291382
v -115.466293 -41.2756195 -839.333313
v -124.272324 -27.7417984 -805.716858
v -130.612946 -11.017952 -774.917664
v -133.998413 6.99928474 -747.940063
v -45.3488007 -81.736969 -927.254944
v -16.2132111 -90.3024368 -926.550842
v -45.4737701 -93.3572769 -901.798767
v 14.6933441 -93.3987732 -923.300842
v -14.8437042 -100.349236 -900.466309
v -40.4057465 -101.394096 -875.440979
v 46.8248138 -91.8575974 -919.661072
v 17.2970428 -101.992958 -897.000854
v -8.66731262 -106.770317 -874.675537
v -31.297226 -106.751457 -848.976685
v 81.1363068 -85.5543594 -917.427612
v 51.6885834 -99.2378769 -894.576111
v 25.601944 -107.040062 -872.606079
v 2.18232727 -110.501884 -849.943787
v -18.5736847 -109.879707 -823.836548
v 117.870697 -75.2693558 -918.16394
v 89.2163239 -92.098053 -894.233093
v 63.195694 -103.493629 -871.97699
v 39.2258148 -109.896736 -849.798035
v 17.1036224 -112.309288 -826.612122
v -3.11216736 -111.007942 -800.829651
v 156.225616 -62.962532 -922.012878
v 129.94101 -81.5181046 -896.452148
v 104.829193 -96.0359039 -872.647095
v 80.6126862 -105.92379 -849.9021
v 57.1865082 -111.153816 -827.325684
v 34.7933502 -112.254753 -804.186035
v 13.6800995 -110.13279 -779.805542
v 198.675385 -45.3202591 -935.222778
v 234.725128 -25.961586 -953.850342
v 211.295258 -51.0993652 -916.663696
v 262.989899 -7.11882401 -969.168152
v 244.043121 -33.0490112 -930.934753
v 220.108429 -57.2317352 -892.587341
v 283.052094 11.9280815 -980.007629
v 267.476349 -15.1039276 -940.575317
v 248.044769 -39.5995712 -901.892029
v 224.575409 -61.3862 -864.050476
v 296.627655 31.4001923 -985.836182
v 283.699799 3.2121315 -945.949768
v 266.675323 -21.8085403 -906.686707
v 247.387909 -43.5577545 -868.799988
v 223.718903 -61.565506 -832.930115
v 304.880157 51.6062927 -986.00415
v 294.364105 22.564724 -947.160156
v 279.110748 -3.29520035 -907.747009
v 261.560028 -25.3880386 -869.326111
v 241.687592 -43.5210724 -833.31189
v 217.207489 -57.5941238 -800.679321
v 307.674713 72.7010117 -978.763428
v 299.657074 43.7153473 -942.321533
v 286.34433 16.9133606 -903.949036
v 269.87442 -6.09177399 -865.39209
v 251.412872 -24.812294 -828.790771
v 230.37735 -39.5515289 -796.041199
v 205.520294 -50.8262177 -768.17627
v 305.053558 101.190102 -973.667114
v 296.664459 129.659012 -972.715332
v 294.414581 98.8265686 -928.336487
v 281.200836 153.458527 -966.959351
v 282.755341 127.501404 -921.217224
v 278.471405 95.0226669 -878.524536
v 259.036102 172.606049 -959.886292
v 264.223297 150.571747 -912.419312
v 264.041412 123.730286 -867.905945
v 258.540741 91.1470184 -827.569641
v 231.411102 188.106934 -953.007935
v 239.741302 168.764008 -904.530945
v 243.056 146.653076 -858.12854
v 241.749359 120.001053 -815.898315
v 235.196198 88.1721878 -779.519775
v 200.227264 201.810303 -947.915405
v 210.284332 183.78537 -898.638855
v 216.12088 164.799561 -850.210327
v 218.245819 143.034363 -805.943115
v 215.962189 116.881531 -767.8302
v 208.613739 86.1937485 -737.388855
v 166.12265 212.967896 -944.014954
v 176.678253 197.04425 -895.618286
v 183.691864 179.968201 -845.39563
v 187.725677 161.345978 -798.043457
v 188.749115 139.722229 -757.699951
v 185.801971 113.919746 -725.990479
v 178.740631 84.6645203 -703.11853
v 140.680511 207.440613 -903.444336
v 114.847504 198.695038 -865.596069
v 149.402191 192.159546 -850.112854
v 87.8585968 187.38031 -831.275452
v 122.218903 184.303345 -810.272644
v 154.617157 175.297485 -798.256531
v 58.5531464 174.464508 -800.655029
v 93.2969818 173.585114 -776.07135
v 125.527985 167.390289 -758.938965
v 156.909882 155.836212 -752.284546
v 26.4615021 160.824005 -773.160156
v 60.8460236 160.333618 -747.414307
v 93.6993256 155.477417 -726.998718
v 125.337067 145.857635 -715.939697
v 156.199249 131.765457 -715.790161
v -6.81391907 146.565247 -747.353149
v 24.9200897 144.546112 -723.430298
v 57.5097198 138.96875 -702.304199
v 90.0944672 129.773468 -688.452637
v 121.697296 117.045563 -684.359558
v 151.382599 101.578049 -689.342041
v -95.2953949 97.5475082 -919.323059
v -113.527328 80.5869293 -880.688171
v -100.602325 107.777443 -892.299255
v -126.467422 67.7774506 -841.472168
v -116.829529 94.2558289 -851.704712
v -98.3376617 118.159958 -864.666504
v -134.964417 57.4071426 -803.913452
v -127.412476 84.0465927 -811.036865
v -113.255936 107.099281 -822.256592
v -90.8320007 127.060028 -834.735352
v -138.790771 46.5641632 -770.012939
v -133.427017 73.4009933 -772.368591
v -122.621033 97.0782623 -780.084106
v -105.198715 116.883705 -790.622864
v -80.476059 133.13324 -800.965149
v -137.154587 32.6313324 -740.098083
v -134.740814 58.260231 -737.676514
v -127.03656 82.7344513 -740.470886
v -113.547592 104.020103 -747.328735
v -93.8529205 121.121056 -755.829468
v -67.9323883 134.309082 -763.574036
v -70.7934113 -79.2415237 -902.926575
v -67.2845917 -89.7518387 -874.669739
v -88.0516205 -73.0198135 -873.569885
v -58.9659271 -96.8935471 -846.234741
v -81.1292725 -82.1875381 -843.357178
v -99.9702759 -63.613945 -840.478271
v -47.4839935 -101.907448 -818.315674
v -70.7499847 -88.6094589 -813.720154
v -90.97966 -71.3674545 -809.343628
v -109.140152 -51.0370102 -806.015503
v -33.0241852 -104.966576 -792.083374
v -58.1701508 -93.4596634 -785.000671
v -79.9539032 -77.1504364 -779.113525
v -99.5744171 -57.3509445 -774.650574
v -116.980957 -35.1337128 -772.694092
v -15.9364166 -105.650581 -767.899475
v -42.8310394 -96.1500244 -757.790833
v -67.1343231 -81.4307022 -749.633667
v -88.9256592 -62.2728729 -743.855835
v -107.87999 -40.14048 -741.149902
v -123.298355 -16.6391296 -742.252136
v 171.94632 -67.4720459 -904.245789
v 184.644745 -72.5584488 -882.939697
v 146.688873 -85.341835 -876.291321
v 193.478851 -76.5285797 -857.446594
v 159.224274 -88.5743561 -853.094116
v 121.932953 -98.519455 -850.565369
v 197.32309 -76.9440384 -828.860046
v 166.736664 -89.0434189 -826.509644
v 133.295135 -99.1332474 -825.717041
v 96.7951508 -106.677483 -826.08728
v 194.637299 -72.5342484 -797.888367
v 167.644684 -84.7460175 -796.990845
v 137.781342 -95.5745926 -797.530823
v 105.465485 -104.311867 -799.222229
v 70.8965607 -109.937553 -801.63324
v 185.091339 -64.2080841 -764.716736
v 160.719269 -75.7955856 -764.055359
v 133.617279 -86.687561 -765.359741
v 104.943817 -96.8134842 -768.097351
v 75.0315094 -104.61039 -771.794861
v 44.2133942 -109.011589 -775.724426
v 299.87204 69.534874 -935.965027
v 286.167206 65.4309769 -889.244019
v 288.574249 39.7837296 -897.483765
v 268.099396 61.4417725 -840.092957
v 272.63858 36.1948013 -850.963562
v 273.16983 14.230072 -858.4552
v 246.024078 58.2053757 -790.975525
v 252.419952 33.1926155 -803.316772
v 255.272919 12.2037983 -812.563354
v 254.813446 -6.64892197 -820.156128
v 219.611298 56.2867737 -745.287659
v 227.19339 30.776083 -756.007568
v 231.936981 10.2538147 -765.98175
v 233.868622 -7.18133545 -774.762085
v 233.257294 -23.4551926 -784.25293
v 188.188812 55.6892319 -705.702026
v 195.658844 29.5312691 -712.033142
v 201.443634 8.17891502 -719.575806
v 205.242828 -8.70438004 -728.333679
v 206.947723 -23.3104706 -739.146606
v 207.125336 -37.1638107 -752.437622
v -15.5635223 -20.1560211 -641.021484
v 8.60325623 -9.19519043 -634.397583
v -27.8088837 4.03456497 -643.327942
v 36.1164703 2.69789886 -631.708252
v -0.801773071 17.8020802 -639.00177
v -36.5830231 31.6436329 -650.781494
v 65.2862091 15.6503658 -634.43042
v 28.3690948 31.953043 -638.400818
v -6.94508362 47.229454 -648.735229
v -42.2985382 60.8266754 -662.568481
v 94.4010773 29.8254299 -643.537354
v 58.0627289 46.8197021 -642.729431
v 23.3656464 62.6306305 -649.863098
v -10.9314117 77.0149689 -662.212585
v -45.6386566 89.10466 -678.378418
v 123.461761 46.2016754 -657.881958
v 88.5859833 63.2903671 -651.691406
v 54.353775 78.9753799 -655.043579
v 20.4615936 92.931427 -665.408936
v -13.2086945 105.031532 -680.827209
v -46.5709991 113.866272 -700.119385
v 152.168182 64.9583969 -677.12616
v 120.162567 81.8450012 -666.081482
v 87.4334869 97.311142 -664.910339
v 53.9444122 110.406738 -672.617981
v 20.3585052 121.047783 -687.839905
v -12.3429718 128.750183 -708.257812
v -43.5688629 132.402771 -730.825623
v 13.4184113 -33.7420273 -638.884399
v 44.7895355 -43.1292419 -642.746826
v 41.8092804 -22.5899467 -632.657959
v 78.0414581 -48.5289383 -654.634766
v 75.7086945 -31.3924026 -639.397705
v 71.9064178 -10.8528976 -633.133606
v 112.227386 -50.6547165 -675.158203
v 109.904694 -36.5137634 -655.747681
v 106.833099 -19.6084595 -644.958252
v 102.032501 1.82165146 -641.209167
v 146.027069 -51.1147156 -702.500366
v 143.901093 -38.2161713 -681.301758
v 141.080048 -24.0873718 -666.915649
v 137.196442 -6.35607147 -659.122925
v 131.193878 16.434761 -656.625122
v 177.737579 -51.3239975 -733.859558
v 176.771515 -37.9544449 -714.02063
v 174.647858 -24.7062378 -698.605835
v 171.480194 -9.6214447 -687.881714
v 166.532623 9.52873421 -681.635864
v 159.992706 34.287468 -677.99469
v -18.1607819 -39.425087 -648.96405
v -15.9446259 -56.6967545 -661.812439
v 13.8639984 -52.253479 -651.606628
v -9.92021179 -72.0269852 -679.210144
v 18.8887787 -67.8080673 -669.886169
v 47.292099 -59.619873 -660.924133
v -2.21354675 -85.314949 -700.50824
v 26.6361542 -81.1228714 -692.460571
v 53.8646698 -72.9850769 -684.470276
v 81.9161224 -62.5015411 -678.058411
v 5.09614563 -96.5044937 -724.9151
v 34.5545197 -92.5646591 -718.185547
v 61.9898529 -84.5844193 -711.496765
v 89.0993805 -74.1820984 -705.82666
v 117.085236 -62.9913025 -702.214111
v 10.5541229 -105.049004 -751.717896
v 40.823288 -102.167336 -746.173889
v 69.5859833 -95.3399048 -740.690857
v 97.4091339 -85.6814194 -735.858887
v 124.909576 -74.8037491 -732.41925
v 152.095856 -63.7394333 -731.309387
v -44.6696014 -16.0482941 -649.370605
v -70.1659088 -10.3827858 -658.021118
v -46.8108978 -37.2486954 -657.690063
v -91.774765 -4.23327637 -667.336182
v -70.7292938 -33.2617493 -666.439758
v -43.6215668 -55.690979 -670.616333
v -109.131866 1.35672569 -679.289368
v -90.4481354 -28.4446106 -676.994751
v -66.3059845 -52.6336212 -680.315735
v -37.1005096 -71.7302551 -688.141174
v -121.608139 5.76054764 -696.39325
v -105.770126 -23.4580231 -692.106934
v -84.5537262 -48.5578613 -693.813049
v -58.9484711 -69.4403152 -700.038147
v -29.2118378 -85.6943665 -710.333374
v -129.354263 8.16073227 -719.699585
v -116.369736 -18.9371414 -713.787903
v -98.3071747 -44.0079575 -713.589844
v -76.0859528 -66.1169357 -717.843628
v -50.4742889 -84.2763214 -725.776367
v -21.7083282 -97.4342957 -737.074036
v -58.8192291 12.2273235 -653.451599
v -68.161026 42.0573273 -662.961731
v -84.4647522 20.6229668 -663.687927
v -73.6819 71.4982147 -677.359863
v -93.3951721 51.0764465 -675.323669
v -105.398026 27.7729568 -675.03009
v -76.1290283 98.3549576 -697.012268
v -98.0135803 79.4255295 -693.171936
v -113.0271 57.4589157 -689.934814
v -121.00914 32.7136459 -690.017029
v -74.6274109 119.820732 -724.889282
v -98.61763 103.730919 -718.645752
v -115.810196 83.6153107 -712.92157
v -126.517548 60.3044281 -709.867249
v -131.139801 34.8150101 -711.438049
g 
f 3 1 2
f 5 2 4
f 6 3 5
f 8 4 7
f 9 5 8
f 10 6 9
f 12 7 11
f 13 8 12
f 14 9 13
f 15 10 14
f 17 11 16
f 18 12 17
f 19 13 18
f 20 14 19
f 21 15 20
f 23 16 22
f 24 17 23
f 25 18 24
f 26 19 25
f 27 20 26
f 28 21 27
f 30 22 29
f 31 23 30
f 32 24 31
f 33 25 32
f 34 26 33
f 35 27 34
f 36 28 35
f 3 2 5
f 5 4 8
f 6 5 9
f 8 7 12
f 9 8 13
f 10 9 14
f 12 11 17
f 13 12 18
f 14 13 19
f 15 14 20
f 17 16 23
f 18 17 24
f 19 18 25
f 20 19 26
f 21 20 27
f 23 22 30
f 24 23 31
f 25 24 32
f 26 25 33
f 27 26 34
f 28 27 35
f 37 1 3
f 38 3 6
f 39 37 38
f 40 6 10
f 41 38 40
f 42 39 41
f 43 10 15
f 44 40 43
f 45 41 44
f 46 42 45
f 47 15 21
f 48 43 47
f 49 44 48
f 50 45 49
f 51 46 50
f 52 21 28
f 53 47 52
f 54 48 53
f 55 49 54
f 56 50 55
f 57 51 56
f 58 28 36
f 59 52 58
f 60 53 59
f 61 54 60
f 62 55 61
f 63 56 62
f 64 57 63
f 37 3 38
f 38 6 40
f 39 38 41
f 40 10 43
f 41 40 44
f 42 41 45
f 43 15 47
f 44 43 48
f 45 44 49
f 46 45 50
f 47 21 52
f 48 47 53
f 49 48 54
f 50 49 55
f 51 50 56
f 52 28 58
f 53 52 59
f 54 53 60
f 55 54 61
f 56 55 62
f 57 56 63
f 65 1 37
f 66 37 39
f 67 65 66
f 68 39 42
f 69 66 68
f 70 67 69
f 71 42 46
f 72 68 71
f 73 69 72
f 74 70 73
f 75 46 51
f 76 71 75
f 77 72 76
f 78 73 77
f 79 74 78
f 80 51 57
f 81 75 80
f 82 76 81
f 83 77 82
f 84 78 83
f 85 79 84
f 86 57 64
f 87 80 86
f 88 81 87
f 89 82 88
f 90 83 89
f 91 84 90
f 92 85 91
f 65 37 66
f 66 39 68
f 67 66 69
f 68 42 71
f 69 68 72
f 70 69 73
f 71 46 75
f 72 71 76
f 73 72 77
f 74 73 78
f 75 51 80
f 76 75 81
f 77 76 82
f 78 77 83
f 79 78 84
f 80 57 86
f 81 80 87
f 82 81 88
f 83 82 89
f 84 83 90
f 85 84 91
f 93 1 65
f 94 65 67
f 95 93 94
f 96 67 70
f 97 94 96
f 98 95 97
f 99 70 74
f 100 96 99
f 101 97 100
f 102 98 101
f 103 74 79
f 104 99 103
f 105 100 104
f 106 101 105
f 107 102 106
f 108 79 85
f 109 103 108
f 110 104 109
f 111 105 110
f 112 106 111
f 113 107 112
f 114 85 92
f 115 108 114
f 116 109 115
f 117 110 116
f 118 111 117
f 119 112 118
f 120 113 119
f 93 65 94
f 94 67 96
f 95 94 97
f 96 70 99
f 97 96 100
f 98 97 101
f 99 74 103
f 100 99 104
f 101 100 105
f 102 101 106
f 103 79 108
f 104 103 109
f 105 104 110
f 106 105 111
f 107 106 112
f 108 85 114
f 109 108 115
f 110 109 116
f 111 110 117
f 112 111 118
f 113 112 119
f 2 1 93
f 121 93 95
f 4 2 121
f 122 95 98
f 123 121 122
f 7 4 123
f 124 98 102
f 125 122 124
f 126 123 125
f 11 7 126
f 127 102 107
f 128 124 127
f 129 125 128
f 130 126 129
f 16 11 130
f 131 107 113
f 132 127 131
f 133 128 132
f 134 129 133
f 135 130 134
f 22 16 135
f 136 113 120
f 137 131 136
f 138 132 137
f 139 133 138
f 140 134 139
f 141 135 140
f 29 22 141
f 2 93 121
f 121 95 122
f 4 121 123
f 122 98 124
f 123 122 125
f 7 123 126
f 124 102 127
f 125 124 128
f 126 125 129
f 11 126 130
f 127 107 131
f 128 127 132
f 129 128 133
f 130 129 134
f 16 130 135
f 131 113 136
f 132 131 137
f 133 132 138
f 134 133 139
f 135 134 140
f 22 135 141
f 142 29 141
f 143 141 140
f 144 142 143
f 145 140 139
f 146 143 145
f 147 144 146
f 148 139 138
f 149 145 148
f 150 146 149
f 151 147 150
f 152 138 137
f 153 148 152
f 154 149 153
f 155 150 154
f 156 151 155
f 157 137 136
f 158 152 157
f 159 153 158
f 160 154 159
f 161 155 160
f 162 156 161
f 163 136 120
f 164 157 163
f 165 158 164
f 166 159 165
f 167 160 166
f 168 161 167
f 169 162 168
f 142 141 143
f 143 140 145
f 144 143 146
f 145 139 148
f 146 145 149
f 147 146 150
f 148 138 152
f 149 148 153
f 150 149 154
f 151 150 155
f 152 137 157
f 153 152 158
f 154 153 159
f 155 154 160
f 156 155 161
f 157 136 163
f 158 157 164
f 159 158 165
f 160 159 166
f 161 160 167
f 162 161 168
f 170 120 119
f 171 119 118
f 172 170 171
f 173 118 117
f 174 171 173
f 175 172 174
f 176 117 116
f 177 173 176
f 178 174 177
f 179 175 178
f 180 116 115
f 181 176 180
f 182 177 181
f 183 178 182
f 184 179 183
f 185 115 114
f 186 180 185
f 187 181 186
f 188 182 187
f 189 183 188
f 190 184 189
f 191 114 92
f 192 185 191
f 193 186 192
f 194 187 193
f 195 188 194
f 196 189 195
f 197 190 196
f 170 119 171
f 171 118 173
f 172 171 174
f 173 117 176
f 174 173 177
f 175 174 178
f 176 116 180
f 177 176 181
f 178 177 182
f 179 178 183
f 180 115 185
f 181 180 186
f 182 181 187
f 183 182 188
f 184 183 189
f 185 114 191
f 186 185 192
f 187 186 193
f 188 187 194
f 189 188 195
f 190 189 196
f 198 92 91
f 199 91 90
f 200 198 199
f 201 90 89
f 202 199 201
f 203 200 202
f 204 89 88
f 205 201 204
f 206 202 205
f 207 203 206
f 208 88 87
f 209 204 208
f 210 205 209
f 211 206 210
f 212 207 211
f 213 87 86
f 214 208 213
f 215 209 214
f 216 210 215
f 217 211 216
f 218 212 217
f 219 86 64
f 220 213 219
f 221 214 220
f 222 215 221
f 223 216 222
f 224 217 223
f 225 218 224
f 198 91 199
f 199 90 201
f 200 199 202
f 201 89 204
f 202 201 205
f 203 202 206
f 204 88 208
f 205 204 209
f 206 205 210
f 207 206 211
f 208 87 213
f 209 208 214
f 210 209 215
f 211 210 216
f 212 211 217
f 213 86 219
f 214 213 220
f 215 214 221
f 216 215 222
f 217 216 223
f 218 217 224
f 226 64 63
f 227 63 62
f 228 226 227
f 229 62 61
f 230 227 229
f 231 228 230
f 232 61 60
f 233 229 232
f 234 230 233
f 235 231 234
f 236 60 59
f 237 232 236
f 238 233 237
f 239 234 238
f 240 235 239
f 241 59 58
f 242 236 241
f 243 237 242
f 244 238 243
f 245 239 244
f 246 240 245
f 247 58 36
f 248 241 247
f 249 242 248
f 250 243 249
f 251 244 250
f 252 245 251
f 253 246 252
f 226 63 227
f 227 62 229
f 228 227 230
f 229 61 232
f 230 229 233
f 231 230 234
f 232 60 236
f 233 232 237
f 234 233 238
f 235 234 239
f 236 59 241
f 237 236 242
f 238 237 243
f 239 238 244
f 240 239 245
f 241 58 247
f 242 241 248
f 243 242 249
f 244 243 250
f 245 244 251
f 246 245 252
f 254 36 35
f 255 35 34
f 256 254 255
f 257 34 33
f 258 255 257
f 259 256 258
f 260 33 32
f 261 257 260
f 262 258 261
f 263 259 262
f 264 32 31
f 265 260 264
f 266 261 265
f 267 262 266
f 268 263 267
f 269 31 30
f 270 264 269
f 271 265 270
f 272 266 271
f 273 267 272
f 274 268 273
f 275 30 29
f 276 269 275
f 277 270 276
f 278 271 277
f 279 272 278
f 280 273 279
f 281 274 280
f 254 35 255
f 255 34 257
f 256 255 258
f 257 33 260
f 258 257 261
f 259 258 262
f 260 32 264
f 261 260 265
f 262 261 266
f 263 262 267
f 264 31 269
f 265 264 270
f 266 265 271
f 267 266 272
f 268 267 273
f 269 30 275
f 270 269 276
f 271 270 277
f 272 271 278
f 273 272 279
f 274 273 280
f 275 29 142
f 282 142 144
f 276 275 282
f 283 144 147
f 284 282 283
f 277 276 284
f 285 147 151
f 286 283 285
f 287 284 286
f 278 277 287
f 288 151 156
f 289 285 288
f 290 286 289
f 291 287 290
f 279 278 291
f 292 156 162
f 293 288 292
f 294 289 293
f 295 290 294
f 296 291 295
f 280 279 296
f 297 162 169
f 298 292 297
f 299 293 298
f 300 294 299
f 301 295 300
f 302 296 301
f 281 280 302
f 275 142 282
f 282 144 283
f 276 282 284
f 283 147 285
f 284 283 286
f 277 284 287
f 285 151 288
f 286 285 289
f 287 286 290
f 278 287 291
f 288 156 292
f 289 288 293
f 290 289 294
f 291 290 295
f 279 291 296
f 292 162 297
f 293 292 298
f 294 293 299
f 295 294 300
f 296 295 301
f 280 296 302
f 163 120 170
f 303 170 172
f 164 163 303
f 304 172 175
f 305 303 304
f 165 164 305
f 306 175 179
f 307 304 306
f 308 305 307
f 166 165 308
f 309 179 184
f 310 306 309
f 311 307 310
f 312 308 311
f 167 166 312
f 313 184 190
f 314 309 313
f 315 310 314
f 316 311 315
f 317 312 316
f 168 167 317
f 318 190 197
f 319 313 318
f 320 314 319
f 321 315 320
f 322 316 321
f 323 317 322
f 169 168 323
f 163 170 303
f 303 172 304
f 164 303 305
f 304 175 306
f 305 304 307
f 165 305 308
f 306 179 309
f 307 306 310
f 308 307 311
f 166 308 312
f 309 184 313
f 310 309 314
f 311 310 315
f 312 311 316
f 167 312 317
f 313 190 318
f 314 313 319
f 315 314 320
f 316 315 321
f 317 316 322
f 168 317 323
f 191 92 198
f 324 198 200
f 192 191 324
f 325 200 203
f 326 324 325
f 193 192 326
f 327 203 207
f 328 325 327
f 329 326 328
f 194 193 329
f 330 207 212
f 331 327 330
f 332 328 331
f 333 329 332
f 195 194 333
f 334 212 218
f 335 330 334
f 336 331 335
f 337 332 336
f 338 333 337
f 196 195 338
f 339 218 225
f 340 334 339
f 341 335 340
f 342 336 341
f 343 337 342
f 344 338 343
f 197 196 344
f 191 198 324
f 324 200 325
f 192 324 326
f 325 203 327
f 326 325 328
f 193 326 329
f 327 207 330
f 328 327 331
f 329 328 332
f 194 329 333
f 330 212 334
f 331 330 335
f 332 331 336
f 333 332 337
f 195 333 338
f 334 218 339
f 335 334 340
f 336 335 341
f 337 336 342
f 338 337 343
f 196 338 344
f 219 64 226
f 345 226 228
f 220 219 345
f 346 228 231
f 347 345 346
f 221 220 347
f 348 231 235
f 349 346 348
f 350 347 349
f 222 221 350
f 351 235 240
f 352 348 351
f 353 349 352
f 354 350 353
f 223 222 354
f 355 240 246
f 356 351 355
f 357 352 356
f 358 353 357
f 359 354 358
f 224 223 359
f 360 246 253
f 361 355 360
f 362 356 361
f 363 357 362
f 364 358 363
f 365 359 364
f 225 224 365
f 219 226 345
f 345 228 346
f 220 345 347
f 346 231 348
f 347 346 349
f 221 347 350
f 348 235 351
f 349 348 352
f 350 349 353
f 222 350 354
f 351 240 355
f 352 351 356
f 353 352 357
f 354 353 358
f 223 354 359
f 355 246 360
f 356 355 361
f 357 356 362
f 358 357 363
f 359 358 364
f 224 359 365
f 247 36 254
f 366 254 256
f 248 247 366
f 367 256 259
f 368 366 367
f 249 248 368
f 369 259 263
f 370 367 369
f 371 368 370
f 250 249 371
f 372 263 268
f 373 369 372
f 374 370 373
f 375 371 374
f 251 250 375
f 376 268 274
f 377 372 376
f 378 373 377
f 379 374 378
f 380 375 379
f 252 251 380
f 381 274 281
f 382 376 381
f 383 377 382
f 384 378 383
f 385 379 384
f 386 380 385
f 253 252 386
f 247 254 366
f 366 256 367
f 248 366 368
f 367 259 369
f 368 367 370
f 249 368 371
f 369 263 372
f 370 369 373
f 371 370 374
f 250 371 375
f 372 268 376
f 373 372 377
f 374 373 378
f 375 374 379
f 251 375 380
f 376 274 381
f 377 376 382
f 378 377 383
f 379 378 384
f 380 379 385
f 252 380 386
f 389 387 388
f 391 388 390
f 392 389 391
f 394 390 393
f 395 391 394
f 396 392 395
f 398 393 397
f 399 394 398
f 400 395 399
f 401 396 400
f 403 397 402
f 404 398 403
f 405 399 404
f 406 400 405
f 407 401 406
f 409 402 408
f 410 403 409
f 411 404 410
f 412 405 411
f 413 406 412
f 414 407 413
f 302 408 281
f 301 409 302
f 300 410 301
f 299 411 300
f 298 412 299
f 297 413 298
f 169 414 297
f 389 388 391
f 391 390 394
f 392 391 395
f 394 393 398
f 395 394 399
f 396 395 400
f 398 397 403
f 399 398 404
f 400 399 405
f 401 400 406
f 403 402 409
f 404 403 410
f 405 404 411
f 406 405 412
f 407 406 413
f 409 408 302
f 410 409 301
f 411 410 300
f 412 411 299
f 413 412 298
f 414 413 297
f 388 387 415
f 417 415 416
f 390 388 417
f 419 416 418
f 420 417 419
f 393 390 420
f 422 418 421
f 423 419 422
f 424 420 423
f 397 393 424
f 426 421 425
f 427 422 426
f 428 423 427
f 429 424 428
f 402 397 429
f 431 425 430
f 432 426 431
f 433 427 432
f 434 428 433
f 435 429 434
f 408 402 435
f 386 430 253
f 385 431 386
f 384 432 385
f 383 433 384
f 382 434 383
f 381 435 382
f 281 408 381
f 388 415 417
f 417 416 419
f 390 417 420
f 419 418 422
f 420 419 423
f 393 420 424
f 422 421 426
f 423 422 427
f 424 423 428
f 397 424 429
f 426 425 431
f 427 426 432
f 428 427 433
f 429 428 434
f 402 429 435
f 431 430 386
f 432 431 385
f 433 432 384
f 434 433 383
f 435 434 382
f 408 435 381
f 415 387 436
f 438 436 437
f 416 415 438
f 440 437 439
f 441 438 440
f 418 416 441
f 443 439 442
f 444 440 443
f 445 441 444
f 421 418 445
f 447 442 446
f 448 443 447
f 449 444 448
f 450 445 449
f 425 421 450
f 452 446 451
f 453 447 452
f 454 448 453
f 455 449 454
f 456 450 455
f 430 425 456
f 365 451 225
f 364 452 365
f 363 453 364
f 362 454 363
f 361 455 362
f 360 456 361
f 253 430 360
f 415 436 438
f 438 437 440
f 416 438 441
f 440 439 443
f 441 440 444
f 418 441 445
f 443 442 447
f 444 443 448
f 445 444 449
f 421 445 450
f 447 446 452
f 448 447 453
f 449 448 454
f 450 449 455
f 425 450 456
f 452 451 365
f 453 452 364
f 454 453 363
f 455 454 362
f 456 455 361
f 430 456 360
f 436 387 457
f 459 457 458
f 437 436 459
f 461 458 460
f 462 459 461
f 439 437 462
f 464 460 463
f 465 461 464
f 466 462 465
f 442 439 466
f 468 463 467
f 469 464 468
f 470 465 469
f 471 466 470
f 446 442 471
f 473 467 472
f 474 468 473
f 475 469 474
f 476 470 475
f 477 471 476
f 451 446 477
f 344 472 197
f 343 473 344
f 342 474 343
f 341 475 342
f 340 476 341
f 339 477 340
f 225 451 339
f 436 457 459
f 459 458 461
f 437 459 462
f 461 460 464
f 462 461 465
f 439 462 466
f 464 463 468
f 465 464 469
f 466 465 470
f 442 466 471
f 468 467 473
f 469 468 474
f 470 469 475
f 471 470 476
f 446 471 477
f 473 472 344
f 474 473 343
f 475 474 342
f 476 475 341
f 477 476 340
f 451 477 339
f 457 387 389
f 478 389 392
f 458 457 478
f 479 392 396
f 480 478 479
f 460 458 480
f 481 396 401
f 482 479 481
f 483 480 482
f 463 460 483
f 484 401 407
f 485 481 484
f 486 482 485
f 487 483 486
f 467 463 487
f 488 407 414
f 489 484 488
f 490 485 489
f 491 486 490
f 492 487 491
f 472 467 492
f 323 414 169
f 322 488 323
f 321 489 322
f 320 490 321
f 319 491 320
f 318 492 319
f 197 472 318
f 457 389 478
f 478 392 479
f 458 478 480
f 479 396 481
f 480 479 482
f 460 480 483
f 481 401 484
f 482 481 485
f 483 482 486
f 463 483 487
f 484 407 488
f 485 484 489
f 486 485 490
f 487 486 491
f 467 487 492
f 488 414 323
f 489 488 322
f 490 489 321
f 491 490 320
f 492 491 319
f 472 492 318
