# File exported by Houdini 20.5.445 (www.sidefx.com)
# 492 points
# 2940 vertices
# 980 primitives
# Bounds: [-138.587524, -156.57663, -1094.51013] to [309.36145, 272.953735, -660.290894]
g 
v 164.51825 69.8206253 -1047.07886
v 177.768494 109.389458 -1068.74768
v 195.69043 85.5612411 -1056.94934
v 183.735291 148.062683 -1084.06299
v 208.9245 127.280907 -1079.89441
v 224.814514 100.733215 -1066.21606
v 184.252869 184.140472 -1090.44958
v 214.600708 164.993774 -1092.93188
v 237.182495 141.622375 -1086.98425
v 251.929321 112.960068 -1072.6792
v 181.726257 215.903809 -1086.7002
v 215.369507 197.822968 -1094.41724
v 242.069092 175.951233 -1094.51013
v 262.597961 150.566284 -1087.49109
v 275.822327 120.338943 -1073.06067
v 177.937622 241.811646 -1072.91443
v 213.298279 225.186249 -1084.15015
v 242.358704 204.234741 -1088.73279
v 265.892761 180.571075 -1087.09167
v 283.647034 153.795135 -1079.25122
v 294.348083 122.588593 -1064.79883
v 173.564941 260.244781 -1049.94812
v 209.24585 246.254395 -1062.51697
v 239.474915 227.201385 -1070.24646
v 264.477234 205.015442 -1072.68054
v 284.202515 179.8974 -1069.61487
v 298.180298 151.577209 -1060.92944
v 305.554749 119.767296 -1046.68628
v 167.764526 269.866302 -1018.85999
v 202.429932 259.590759 -1029.85059
v 232.979797 243.723206 -1038.44397
v 258.819824 223.51239 -1043.51294
v 279.586182 199.465729 -1044.21753
v 294.989746 172.152557 -1040.07935
v 304.912781 142.470367 -1031.33813
v 309.36145 111.51812 -1019.00085
v 164.903625 40.4439812 -1027.5177
v 199.104309 56.4004173 -1036.57422
v 160.911804 12.7022038 -1005.77795
v 229.958374 70.9585037 -1045.92542
v 197.265015 29.244873 -1015.15173
v 154.030945 -13.2753372 -983.854004
v 257.637268 82.1508484 -1052.75903
v 229.321594 43.2702904 -1025.11316
v 191.839661 3.60919189 -994.310425
v 146.081848 -37.1039124 -962.952271
v 281.138794 88.5994492 -1053.16455
v 257.400452 53.5043449 -1032.03577
v 224.765564 16.9816494 -1004.69629
v 184.452942 -20.3412895 -974.438965
v 138.934387 -58.0970383 -943.215576
v 298.335022 89.9512711 -1043.71509
v 280.610168 58.8194275 -1031.26221
v 253.043274 26.1185513 -1010.62244
v 217.598022 -7.88372421 -984.203491
v 176.598755 -42.0791245 -954.881226
v 134.313232 -75.6457443 -924.143677
v 307.293884 85.9794312 -1022.07068
v 296.612244 58.6627731 -1018.19019
v 275.765442 29.8244057 -1006.44666
v 245.58252 -0.272754669 -987.125244
v 209.132263 -31.067688 -962.258667
v 170.43634 -61.2897568 -934.351685
v 132.85791 -89.7210236 -905.634094
v 131.123047 35.980751 -1026.24951
v 125.378235 2.64938927 -1003.11267
v 93.4064331 3.03117752 -1005.61658
v 116.890991 -27.0684242 -979.196289
v 84.725769 -32.2274132 -980.78479
v 54.0395813 -28.0636063 -985.204346
v 108.145264 -53.205162 -955.843506
v 75.563385 -62.5095444 -955.682861
v 45.8598328 -63.6959991 -959.592163
v 16.2206116 -55.9080811 -964.509521
v 101.055115 -75.666008 -933.506287
v 68.2296753 -87.8354797 -930.940125
v 38.7604675 -93.3659286 -933.307739
v 11.0582275 -90.5480957 -938.026489
v -17.0376587 -78.8738403 -942.446167
v 97.2151489 -94.0122223 -911.791626
v 64.1684875 -108.28907 -906.243042
v 34.4385071 -117.062859 -906.331543
v 7.28121948 -118.502312 -909.742493
v -18.4202881 -111.213219 -914.325867
v -44.2811584 -95.9609299 -918.516052
v 97.3552856 -108.168541 -890.661133
v 64.2919006 -123.740685 -881.243164
v 33.8580322 -134.848846 -877.889526
v 6.05465698 -139.582458 -879.158875
v -19.3433533 -136.203064 -882.870911
v -43.1856689 -124.838432 -887.857788
v -66.2563477 -107.551033 -893.555542
v 141.255066 78.7252731 -1050.5437
v 104.211548 43.3805466 -1029.48584
v 114.909729 86.8753433 -1050.17993
v 63.879425 10.8135529 -1008.43176
v 75.1507874 50.7606697 -1028.30762
v 85.5861816 94.4546585 -1045.04163
v 22.8919067 -18.5135612 -987.24939
v 32.8671265 19.3072662 -1006.39087
v 44.061615 58.9547348 -1022.70923
v 53.6943665 102.248947 -1035.20129
v -15.49823 -43.8255997 -964.949463
v -9.06619263 -7.82210922 -983.831055
v 0.767333984 29.5463371 -999.826904
v 11.4787292 68.8533707 -1012.55811
v 20.2012634 110.535187 -1020.66638
v -48.5965881 -64.4641342 -940.623474
v -47.6719971 -30.7067261 -959.466919
v -41.5022583 5.00431061 -975.30957
v -31.8674927 42.162014 -988.038086
v -21.5514221 80.0644226 -996.96228
v -12.571167 117.879372 -1000.87012
v -75.4350891 -80.358757 -914.090576
v -80.551239 -49.44944 -932.421692
v -80.0978088 -15.5746193 -948.035278
v -74.0359497 20.0844078 -960.536865
v -63.9172363 55.7571945 -969.276001
v -52.149292 89.8646088 -973.840698
v -40.9804688 121.815338 -974.635498
v 150.987793 121.168816 -1069.25342
v 121.598816 130.556091 -1064.5177
v 152.699646 160.973785 -1079.45569
v 89.631958 138.088654 -1054.41809
v 120.065613 170.175293 -1069.27954
v 149.491516 197.153015 -1080.29614
v 55.2215881 144.710632 -1039.22595
v 85.4526367 176.677124 -1053.85364
v 114.093262 205.437347 -1064.90869
v 144.377319 228.366333 -1071.78052
v 19.3406677 150.092712 -1018.70166
v 48.7089539 181.174957 -1033.03638
v 77.2280273 210.24054 -1044.10107
v 107.029846 235.126923 -1051.47363
v 139.276855 252.859894 -1053.84363
v -14.7563477 151.752625 -990.980957
v 11.6177673 181.806763 -1005.04175
v 39.1074524 210.913177 -1016.4585
v 68.8411865 236.98172 -1024.51514
v 101.057251 257.155975 -1028.08496
v 134.758301 268.540802 -1026.2085
v 139.565247 272.953735 -988.651489
v 102.53717 268.802795 -996.432129
v 109.020691 268.1745 -956.961792
v 66.6172485 253.687317 -997.525513
v 70.1324463 259.600647 -965.382935
v 76.5529785 256.789581 -925.110535
v 33.417511 230.579437 -992.583252
v 33.8686523 241.056152 -965.506714
v 37.4471741 243.770905 -933.165161
v 42.9954224 240.807861 -893.31427
v 3.56497192 202.602478 -982.851562
v 0.973083496 215.737549 -958.565796
v 1.79724121 222.517517 -931.35144
v 5.02758789 224.416656 -899.374817
v 9.99624634 222.1185 -861.381836
v -23.4148865 171.888275 -969.526733
v -28.4964905 186.079254 -946.029724
v -30.4089661 195.602875 -921.311646
v -29.3561707 201.040619 -894.168091
v -25.8977661 203.477356 -863.717896
v -20.3694458 201.733368 -829.767883
v -49.1397705 139.553772 -953.427124
v -55.5223694 153.108429 -929.307922
v -59.6427307 163.826202 -904.487244
v -60.6443787 172.227966 -879.469055
v -58.4709473 177.976135 -853.508179
v -53.5681763 181.109161 -826.688843
v -46.1716614 179.629242 -799.298157
v -71.3517151 104.113541 -944.495789
v -86.2789001 71.1091232 -943.631042
v -98.1850586 86.0096893 -912.957458
v -99.0477295 37.0011444 -939.430481
v -113.071198 53.0328255 -912.9776
v -119.127991 68.8185501 -880.87616
v -106.825439 1.79525566 -931.07843
v -123.173065 19.5756302 -909.411133
v -130.743134 36.4747467 -881.788086
v -131.880524 53.510746 -848.893982
v -107.827332 -33.5188751 -918.385986
v -126.375488 -14.849617 -901.147766
v -136.05835 3.82389641 -878.335693
v -138.52478 21.8642216 -849.996277
v -136.008972 39.9953651 -817.792603
v -102.072998 -67.3016281 -901.75238
v -121.796173 -49.7791214 -887.355469
v -133.960876 -30.0525131 -869.024475
v -138.587524 -10.3441162 -845.474121
v -137.572144 8.69914246 -817.797791
v -133.134003 27.1811848 -788.349243
v -90.5220337 -98.2585983 -881.257935
v -110.218536 -83.7803726 -867.871216
v -124.171631 -65.0752487 -852.234741
v -131.647736 -44.4138107 -833.161804
v -133.071289 -23.8651428 -810.382324
v -130.527863 -4.39145279 -785.596619
v -125.983978 13.6156406 -761.229492
v -68.7510681 -125.588753 -864.223145
v -43.1556702 -142.259949 -856.666382
v -66.237793 -136.884216 -834.759949
v -17.1934814 -151.002411 -851.834045
v -38.121521 -150.796143 -827.751831
v -60.7147522 -141.106049 -806.446838
v 10.1912537 -151.383759 -849.97052
v -10.0710144 -156.57663 -824.963379
v -30.8225403 -152.054535 -801.948425
v -53.5567017 -139.608124 -780.854492
v 40.1878357 -144.030945 -852.492065
v 19.7129211 -154.454712 -826.744202
v -0.459655762 -155.517761 -803.007019
v -21.8748474 -148.180695 -780.620178
v -44.1927185 -134.50293 -760.00116
v 73.7654114 -130.50354 -861.359985
v 53.0519104 -144.980103 -834.741699
v 32.8965149 -151.295868 -809.950378
v 11.7880249 -149.667847 -786.762329
v -9.88751221 -141.142609 -765.01123
v -30.9206543 -127.706352 -745.541931
v 111.704895 -111.90374 -877.315613
v 91.835144 -128.706879 -850.200745
v 71.8095093 -139.086975 -824.088562
v 50.7752075 -142.68811 -799.20459
v 28.9592896 -139.961243 -776.073181
v 7.47592163 -131.949707 -755.325134
v -12.399292 -120.031303 -737.535034
v 155.926208 -84.6591263 -905.34436
v 196.021912 -55.0200195 -935.111511
v 178.452148 -78.3587646 -903.402771
v 233.57959 -25.4820633 -960.312622
v 218.237122 -49.0373917 -930.591309
v 198.284973 -71.6674042 -895.990723
v 266.159363 3.1065197 -979.083862
v 251.993164 -21.1371117 -949.992432
v 235.238098 -44.0020218 -917.939026
v 214.054077 -65.6014786 -881.405762
v 290.244202 30.8543663 -989.900757
v 278.429321 5.4373188 -960.627197
v 263.889771 -18.2397499 -929.748169
v 247.021729 -40.3200302 -896.60199
v 224.907532 -59.8472214 -860.241333
v 303.894531 58.1228447 -992.804688
v 295.136658 31.765625 -962.420532
v 283.049744 6.98064613 -931.477966
v 269.526733 -16.0135651 -899.918213
v 252.689819 -36.2297821 -867.571777
v 229.547852 -52.3257523 -834.123169
v 308.007202 85.1273422 -989.147705
v 301.779663 58.7414474 -957.10144
v 292.074158 33.3206024 -924.626831
v 280.931824 9.6613884 -892.769104
v 267.986877 -11.2286453 -862.13092
v 250.716309 -28.3325653 -833.02478
v 227.13147 -40.892601 -805.343689
v 305.457153 118.463989 -991.555542
v 298.527588 151.897705 -1000.95239
v 295.967529 122.267586 -957.820557
v 286.355225 182.854919 -1006.00525
v 286.428467 156.79303 -964.595337
v 280.984375 124.217888 -920.146729
v 268.889282 210.430054 -1006.51343
v 271.579712 187.965912 -966.547485
v 268.454651 158.926086 -924.755249
v 260.477234 125.489647 -880.659851
v 245.839661 233.824677 -1003.00061
v 251.154968 215.121124 -964.13916
v 250.239136 189.65274 -923.981934
v 244.485291 159.281799 -883.009521
v 235.505981 126.538658 -840.809692
v 216.756714 252.463959 -996.244873
v 224.277771 237.464142 -958.177246
v 225.676025 215.809204 -918.605103
v 222.161987 188.692383 -879.201111
v 215.307312 158.204895 -840.46698
v 206.521057 127.105782 -802.422852
v 181.130615 265.76004 -987.350464
v 189.614136 254.283417 -950.051697
v 192.98999 236.585968 -910.253113
v 191.782043 213.117004 -870.816162
v 187.158142 185.208618 -833.657349
v 180.701904 155.413971 -799.2547
v 173.803162 126.592735 -767.672668
v 149.923828 265.442627 -949.319946
v 116.683044 258.50592 -913.099792
v 155.234558 250.975098 -907.13147
v 81.7026367 246.235687 -879.670715
v 119.414001 241.921021 -869.087341
v 156.042053 230.654419 -865.361694
v 45.8738708 229.791809 -848.438599
v 82.2855835 228.256378 -835.838928
v 118.328369 219.195038 -827.419434
v 153.228271 204.742859 -826.031799
v 11.0140381 209.911407 -818.248108
v 44.8182068 210.086487 -805.67688
v 79.7426147 202.95932 -794.710449
v 114.454834 190.454102 -788.545105
v 148.171326 174.386475 -789.894043
v -20.8016052 186.474579 -788.914856
v 8.78198242 187.069061 -776.64032
v 41.3088989 181.400726 -764.424438
v 75.3150635 170.536102 -755.282471
v 109.42627 156.812622 -752.042908
v 142.516907 142.064575 -756.438782
v -78.6268616 119.240402 -917.233032
v -102.889648 100.243179 -881.718811
v -83.6386108 131.012207 -889.172974
v -120.187714 83.5222397 -847.426819
v -104.910522 112.101418 -851.62738
v -85.8249512 141.391235 -862.301758
v -129.274872 68.85215 -814.63739
v -118.578674 95.9310303 -816.399963
v -103.870422 122.823524 -823.790466
v -84.5700989 150.131744 -836.634949
v -130.408325 54.7999001 -783.668884
v -124.201355 80.783905 -783.146179
v -113.972321 106.065819 -787.743835
v -99.3956909 131.064545 -797.405396
v -79.8604431 156.194489 -811.268066
v -125.233917 39.1806984 -754.822205
v -122.272736 63.8821182 -751.719055
v -116.090668 87.9283752 -753.210693
v -105.937683 111.585045 -759.91626
v -91.3512878 135.183197 -771.560364
v -71.686676 158.218536 -785.727295
v -91.1782227 -113.943016 -848.838074
v -87.3377686 -122.347588 -817.210815
v -107.949158 -97.0522079 -833.049438
v -80.9936829 -124.383293 -787.540344
v -102.192535 -103.496193 -799.838135
v -118.816803 -76.639473 -815.76239
v -72.4729919 -121.937584 -761.308228
v -94.1299744 -104.767464 -769.297974
v -110.940918 -82.2540741 -781.697083
v -123.744385 -54.8367386 -796.113159
v -60.2139587 -116.870262 -740.55481
v -82.9466248 -102.543587 -742.923096
v -100.518677 -83.5665283 -750.968201
v -113.843842 -60.010376 -762.09259
v -123.465607 -33.0164337 -773.956543
v -41.7411194 -110.327934 -727.193787
v -66.0049133 -97.7682648 -722.943848
v -85.3959656 -81.4045639 -725.170593
v -100.383759 -60.9275436 -731.902039
v -111.561829 -37.2242661 -740.675659
v -119.773926 -11.8026314 -750.476685
v 135.072205 -105.852928 -874.4599
v 156.604309 -98.0229721 -869.706116
v 114.588318 -120.430626 -845.251587
v 175.134766 -89.9062271 -859.693848
v 134.835815 -110.909615 -838.235107
v 93.1896973 -128.758972 -817.556396
v 189.812805 -81.8989868 -843.675415
v 151.877502 -101.233177 -826.193359
v 111.90387 -117.868217 -808.78595
v 70.5006104 -131.083038 -791.215271
v 199.073181 -72.4480133 -822.163269
v 164.426575 -90.4069901 -808.907654
v 126.734436 -106.135094 -795.111328
v 87.105835 -118.819511 -781.011292
v 46.6885681 -127.616142 -766.787109
v 201.09552 -58.8261032 -796.215576
v 170.263306 -75.6211243 -786.347534
v 135.653687 -90.9711075 -776.033142
v 98.5028076 -103.893913 -765.723816
v 60.1959534 -113.238365 -755.196594
v 22.4292603 -118.573189 -744.969055
v 301.233276 88.8921661 -954.384155
v 288.727478 90.6541595 -915.939087
v 292.750977 61.271904 -917.402466
v 270.986389 92.3002853 -876.2677
v 278.303772 63.2469177 -876.498596
v 282.371887 36.2153893 -882.174988
v 248.606445 94.747612 -836.338501
v 258.986938 66.3985825 -835.760132
v 266.862305 39.9096909 -840.009033
v 270.897949 14.153492 -849.297546
v 221.19696 97.7519608 -797.030579
v 233.939453 70.7962418 -795.473877
v 244.837402 45.1834602 -798.588318
v 252.885559 20.0771484 -806.734619
v 255.865967 -4.63909149 -819.043701
v 187.9104 100.340927 -759.780273
v 201.507629 75.476944 -756.148926
v 214.32074 51.3835335 -757.656189
v 225.301392 27.403019 -764.713074
v 232.532471 3.47774887 -776.541077
v 233.680542 -19.6690903 -791.113892
v 5.68832397 11.3752651 -662.052612
v 24.0843201 28.3682671 -660.290894
v -12.4882202 33.7462502 -664.184998
v 45.0653687 45.2671165 -662.197327
v 6.33969116 52.9442863 -665.361206
v -28.5467529 58.2617455 -673.485352
v 68.7165222 61.3376083 -669.279968
v 28.2071228 71.1014633 -670.388855
v -7.90005493 79.1766281 -678.713562
v -41.4100037 84.4931641 -689.125122
v 94.4549561 76.6877213 -683.016113
v 53.3283386 88.2786102 -680.619324
v 16.1838074 98.6316071 -687.384827
v -18.1896057 106.842201 -698.386536
v -50.1435242 111.330246 -710.187866
v 121.121826 92.4348297 -704.038269
v 81.2188721 105.050705 -697.583923
v 43.8216553 117.287468 -701.036621
v 8.69824219 127.77932 -710.811707
v -24.089447 135.022095 -723.38269
v -54.0309143 137.187927 -735.878845
v 147.791992 109.09066 -732.445251
v 111.155457 122.767685 -722.446228
v 74.9315186 136.146271 -721.77124
v 39.6395569 148.54303 -728.645935
v 6.00634766 157.782867 -740.271301
v -25.1225891 162.169189 -753.437195
v -52.6617126 160.360291 -765.721375
v 36.5910339 2.12100983 -665.404541
v 69.8218689 -4.61526489 -676.142517
v 60.1848145 20.4679451 -664.914917
v 104.742249 -11.3211441 -693.181152
v 97.5210571 14.1405544 -678.158997
v 85.1147461 37.1267815 -669.365112
v 139.909485 -19.4577866 -715.376953
v 135.213318 6.66390228 -698.080017
v 124.966492 29.7176781 -685.828064
v 111.022278 52.039196 -680.069702
v 173.556335 -28.4816284 -741.773987
v 171.880737 -2.58867073 -723.71106
v 163.818176 21.210701 -709.288879
v 151.612549 43.8365211 -700.229736
v 137.038147 66.7983551 -698.028564
v 203.319824 -36.4324417 -771.896362
v 205.474609 -12.237751 -754.692078
v 200.267822 11.9010696 -739.266785
v 189.999634 35.4684105 -728.10968
v 176.942078 58.7022095 -722.850342
v 162.640869 82.6871796 -724.262634
v 6.75024414 -11.48209 -667.600281
v 6.89428711 -33.0661697 -677.436829
v 39.3513184 -22.002861 -676.247681
v 5.00164795 -53.315979 -690.01947
v 40.1964417 -44.6224442 -690.418945
v 72.7688293 -30.0083542 -691.46405
v 1.13348389 -72.4218063 -703.127014
v 38.4968262 -65.878624 -705.878601
v 73.3163147 -53.8614883 -708.515869
v 106.803528 -37.9406204 -711.533875
v -4.11001587 -90.2119522 -714.66748
v 34.6033325 -85.5631561 -720.283997
v 71.4485779 -75.975296 -725.053711
v 106.713013 -62.4162216 -729.992981
v 140.76709 -46.3571777 -735.38324
v -9.24987793 -106.086647 -725.438721
v 28.804657 -103.220375 -732.791504
v 67.0279541 -96.0174942 -740.414856
v 104.110046 -84.6642761 -747.718445
v 139.567749 -70.3038025 -755.38208
v 172.94281 -54.1109695 -763.31427
v -22.195282 9.02337837 -665.252075
v -48.0115662 8.86886597 -670.161621
v -23.2228394 -14.9874649 -670.437622
v -70.9866028 10.1013565 -678.445007
v -50.2366333 -15.6875458 -676.08844
v -25.4494324 -36.5625305 -679.894409
v -90.2246704 11.9019604 -691.607422
v -73.5733337 -15.1013832 -686.25293
v -53.588623 -37.6480026 -686.121887
v -29.2957458 -56.5475693 -691.278381
v -105.323883 13.633791 -709.80188
v -92.7741699 -13.9124222 -701.337097
v -77.2545471 -37.8844528 -697.252686
v -58.144043 -58.3407211 -697.233337
v -34.3247986 -75.581131 -702.389038
v -116.804596 14.4716873 -733.034973
v -107.906982 -12.5525131 -722.334534
v -96.4654846 -37.5495224 -714.737366
v -81.8360291 -59.6521835 -709.896179
v -63.044342 -78.3228607 -708.742676
v -39.2457886 -93.5894775 -713.629456
v -41.7109985 34.178894 -669.927734
v -57.5704651 60.3681717 -681.563477
v -66.5462036 35.9074554 -677.106995
v -69.1933594 86.9757004 -699.164734
v -80.5632629 62.5990372 -690.870361
v -87.0796509 38.0494576 -687.901672
v -75.9189453 112.968681 -722.282288
v -89.8629456 88.6174698 -710.806885
v -98.4499512 64.4750824 -704.292725
v -103.240448 40.0158882 -704.14325
v -76.920105 137.107086 -751.026062
v -93.7170715 113.167549 -737.387207
v -104.937744 89.2926025 -727.876831
v -111.846497 65.483963 -724.29834
v -115.461121 40.8940811 -726.40387
g 
f 3 1 2
f 5 2 4
f 6 3 5
f 8 4 7
f 9 5 8
f 10 6 9
f 12 7 11
f 13 8 12
f 14 9 13
f 15 10 14
f 17 11 16
f 18 12 17
f 19 13 18
f 20 14 19
f 21 15 20
f 23 16 22
f 24 17 23
f 25 18 24
f 26 19 25
f 27 20 26
f 28 21 27
f 30 22 29
f 31 23 30
f 32 24 31
f 33 25 32
f 34 26 33
f 35 27 34
f 36 28 35
f 3 2 5
f 5 4 8
f 6 5 9
f 8 7 12
f 9 8 13
f 10 9 14
f 12 11 17
f 13 12 18
f 14 13 19
f 15 14 20
f 17 16 23
f 18 17 24
f 19 18 25
f 20 19 26
f 21 20 27
f 23 22 30
f 24 23 31
f 25 24 32
f 26 25 33
f 27 26 34
f 28 27 35
f 37 1 3
f 38 3 6
f 39 37 38
f 40 6 10
f 41 38 40
f 42 39 41
f 43 10 15
f 44 40 43
f 45 41 44
f 46 42 45
f 47 15 21
f 48 43 47
f 49 44 48
f 50 45 49
f 51 46 50
f 52 21 28
f 53 47 52
f 54 48 53
f 55 49 54
f 56 50 55
f 57 51 56
f 58 28 36
f 59 52 58
f 60 53 59
f 61 54 60
f 62 55 61
f 63 56 62
f 64 57 63
f 37 3 38
f 38 6 40
f 39 38 41
f 40 10 43
f 41 40 44
f 42 41 45
f 43 15 47
f 44 43 48
f 45 44 49
f 46 45 50
f 47 21 52
f 48 47 53
f 49 48 54
f 50 49 55
f 51 50 56
f 52 28 58
f 53 52 59
f 54 53 60
f 55 54 61
f 56 55 62
f 57 56 63
f 65 1 37
f 66 37 39
f 67 65 66
f 68 39 42
f 69 66 68
f 70 67 69
f 71 42 46
f 72 68 71
f 73 69 72
f 74 70 73
f 75 46 51
f 76 71 75
f 77 72 76
f 78 73 77
f 79 74 78
f 80 51 57
f 81 75 80
f 82 76 81
f 83 77 82
f 84 78 83
f 85 79 84
f 86 57 64
f 87 80 86
f 88 81 87
f 89 82 88
f 90 83 89
f 91 84 90
f 92 85 91
f 65 37 66
f 66 39 68
f 67 66 69
f 68 42 71
f 69 68 72
f 70 69 73
f 71 46 75
f 72 71 76
f 73 72 77
f 74 73 78
f 75 51 80
f 76 75 81
f 77 76 82
f 78 77 83
f 79 78 84
f 80 57 86
f 81 80 87
f 82 81 88
f 83 82 89
f 84 83 90
f 85 84 91
f 93 1 65
f 94 65 67
f 95 93 94
f 96 67 70
f 97 94 96
f 98 95 97
f 99 70 74
f 100 96 99
f 101 97 100
f 102 98 101
f 103 74 79
f 104 99 103
f 105 100 104
f 106 101 105
f 107 102 106
f 108 79 85
f 109 103 108
f 110 104 109
f 111 105 110
f 112 106 111
f 113 107 112
f 114 85 92
f 115 108 114
f 116 109 115
f 117 110 116
f 118 111 117
f 119 112 118
f 120 113 119
f 93 65 94
f 94 67 96
f 95 94 97
f 96 70 99
f 97 96 100
f 98 97 101
f 99 74 103
f 100 99 104
f 101 100 105
f 102 101 106
f 103 79 108
f 104 103 109
f 105 104 110
f 106 105 111
f 107 106 112
f 108 85 114
f 109 108 115
f 110 109 116
f 111 110 117
f 112 111 118
f 113 112 119
f 2 1 93
f 121 93 95
f 4 2 121
f 122 95 98
f 123 121 122
f 7 4 123
f 124 98 102
f 125 122 124
f 126 123 125
f 11 7 126
f 127 102 107
f 128 124 127
f 129 125 128
f 130 126 129
f 16 11 130
f 131 107 113
f 132 127 131
f 133 128 132
f 134 129 133
f 135 130 134
f 22 16 135
f 136 113 120
f 137 131 136
f 138 132 137
f 139 133 138
f 140 134 139
f 141 135 140
f 29 22 141
f 2 93 121
f 121 95 122
f 4 121 123
f 122 98 124
f 123 122 125
f 7 123 126
f 124 102 127
f 125 124 128
f 126 125 129
f 11 126 130
f 127 107 131
f 128 127 132
f 129 128 133
f 130 129 134
f 16 130 135
f 131 113 136
f 132 131 137
f 133 132 138
f 134 133 139
f 135 134 140
f 22 135 141
f 142 29 141
f 143 141 140
f 144 142 143
f 145 140 139
f 146 143 145
f 147 144 146
f 148 139 138
f 149 145 148
f 150 146 149
f 151 147 150
f 152 138 137
f 153 148 152
f 154 149 153
f 155 150 154
f 156 151 155
f 157 137 136
f 158 152 157
f 159 153 158
f 160 154 159
f 161 155 160
f 162 156 161
f 163 136 120
f 164 157 163
f 165 158 164
f 166 159 165
f 167 160 166
f 168 161 167
f 169 162 168
f 142 141 143
f 143 140 145
f 144 143 146
f 145 139 148
f 146 145 149
f 147 146 150
f 148 138 152
f 149 148 153
f 150 149 154
f 151 150 155
f 152 137 157
f 153 152 158
f 154 153 159
f 155 154 160
f 156 155 161
f 157 136 163
f 158 157 164
f 159 158 165
f 160 159 166
f 161 160 167
f 162 161 168
f 170 120 119
f 171 119 118
f 172 170 171
f 173 118 117
f 174 171 173
f 175 172 174
f 176 117 116
f 177 173 176
f 178 174 177
f 179 175 178
f 180 116 115
f 181 176 180
f 182 177 181
f 183 178 182
f 184 179 183
f 185 115 114
f 186 180 185
f 187 181 186
f 188 182 187
f 189 183 188
f 190 184 189
f 191 114 92
f 192 185 191
f 193 186 192
f 194 187 193
f 195 188 194
f 196 189 195
f 197 190 196
f 170 119 171
f 171 118 173
f 172 171 174
f 173 117 176
f 174 173 177
f 175 174 178
f 176 116 180
f 177 176 181
f 178 177 182
f 179 178 183
f 180 115 185
f 181 180 186
f 182 181 187
f 183 182 188
f 184 183 189
f 185 114 191
f 186 185 192
f 187 186 193
f 188 187 194
f 189 188 195
f 190 189 196
f 198 92 91
f 199 91 90
f 200 198 199
f 201 90 89
f 202 199 201
f 203 200 202
f 204 89 88
f 205 201 204
f 206 202 205
f 207 203 206
f 208 88 87
f 209 204 208
f 210 205 209
f 211 206 210
f 212 207 211
f 213 87 86
f 214 208 213
f 215 209 214
f 216 210 215
f 217 211 216
f 218 212 217
f 219 86 64
f 220 213 219
f 221 214 220
f 222 215 221
f 223 216 222
f 224 217 223
f 225 218 224
f 198 91 199
f 199 90 201
f 200 199 202
f 201 89 204
f 202 201 205
f 203 202 206
f 204 88 208
f 205 204 209
f 206 205 210
f 207 206 211
f 208 87 213
f 209 208 214
f 210 209 215
f 211 210 216
f 212 211 217
f 213 86 219
f 214 213 220
f 215 214 221
f 216 215 222
f 217 216 223
f 218 217 224
f 226 64 63
f 227 63 62
f 228 226 227
f 229 62 61
f 230 227 229
f 231 228 230
f 232 61 60
f 233 229 232
f 234 230 233
f 235 231 234
f 236 60 59
f 237 232 236
f 238 233 237
f 239 234 238
f 240 235 239
f 241 59 58
f 242 236 241
f 243 237 242
f 244 238 243
f 245 239 244
f 246 240 245
f 247 58 36
f 248 241 247
f 249 242 248
f 250 243 249
f 251 244 250
f 252 245 251
f 253 246 252
f 226 63 227
f 227 62 229
f 228 227 230
f 229 61 232
f 230 229 233
f 231 230 234
f 232 60 236
f 233 232 237
f 234 233 238
f 235 234 239
f 236 59 241
f 237 236 242
f 238 237 243
f 239 238 244
f 240 239 245
f 241 58 247
f 242 241 248
f 243 242 249
f 244 243 250
f 245 244 251
f 246 245 252
f 254 36 35
f 255 35 34
f 256 254 255
f 257 34 33
f 258 255 257
f 259 256 258
f 260 33 32
f 261 257 260
f 262 258 261
f 263 259 262
f 264 32 31
f 265 260 264
f 266 261 265
f 267 262 266
f 268 263 267
f 269 31 30
f 270 264 269
f 271 265 270
f 272 266 271
f 273 267 272
f 274 268 273
f 275 30 29
f 276 269 275
f 277 270 276
f 278 271 277
f 279 272 278
f 280 273 279
f 281 274 280
f 254 35 255
f 255 34 257
f 256 255 258
f 257 33 260
f 258 257 261
f 259 258 262
f 260 32 264
f 261 260 265
f 262 261 266
f 263 262 267
f 264 31 269
f 265 264 270
f 266 265 271
f 267 266 272
f 268 267 273
f 269 30 275
f 270 269 276
f 271 270 277
f 272 271 278
f 273 272 279
f 274 273 280
f 275 29 142
f 282 142 144
f 276 275 282
f 283 144 147
f 284 282 283
f 277 276 284
f 285 147 151
f 286 283 285
f 287 284 286
f 278 277 287
f 288 151 156
f 289 285 288
f 290 286 289
f 291 287 290
f 279 278 291
f 292 156 162
f 293 288 292
f 294 289 293
f 295 290 294
f 296 291 295
f 280 279 296
f 297 162 169
f 298 292 297
f 299 293 298
f 300 294 299
f 301 295 300
f 302 296 301
f 281 280 302
f 275 142 282
f 282 144 283
f 276 282 284
f 283 147 285
f 284 283 286
f 277 284 287
f 285 151 288
f 286 285 289
f 287 286 290
f 278 287 291
f 288 156 292
f 289 288 293
f 290 289 294
f 291 290 295
f 279 291 296
f 292 162 297
f 293 292 298
f 294 293 299
f 295 294 300
f 296 295 301
f 280 296 302
f 163 120 170
f 303 170 172
f 164 163 303
f 304 172 175
f 305 303 304
f 165 164 305
f 306 175 179
f 307 304 306
f 308 305 307
f 166 165 308
f 309 179 184
f 310 306 309
f 311 307 310
f 312 308 311
f 167 166 312
f 313 184 190
f 314 309 313
f 315 310 314
f 316 311 315
f 317 312 316
f 168 167 317
f 318 190 197
f 319 313 318
f 320 314 319
f 321 315 320
f 322 316 321
f 323 317 322
f 169 168 323
f 163 170 303
f 303 172 304
f 164 303 305
f 304 175 306
f 305 304 307
f 165 305 308
f 306 179 309
f 307 306 310
f 308 307 311
f 166 308 312
f 309 184 313
f 310 309 314
f 311 310 315
f 312 311 316
f 167 312 317
f 313 190 318
f 314 313 319
f 315 314 320
f 316 315 321
f 317 316 322
f 168 317 323
f 191 92 198
f 324 198 200
f 192 191 324
f 325 200 203
f 326 324 325
f 193 192 326
f 327 203 207
f 328 325 327
f 329 326 328
f 194 193 329
f 330 207 212
f 331 327 330
f 332 328 331
f 333 329 332
f 195 194 333
f 334 212 218
f 335 330 334
f 336 331 335
f 337 332 336
f 338 333 337
f 196 195 338
f 339 218 225
f 340 334 339
f 341 335 340
f 342 336 341
f 343 337 342
f 344 338 343
f 197 196 344
f 191 198 324
f 324 200 325
f 192 324 326
f 325 203 327
f 326 325 328
f 193 326 329
f 327 207 330
f 328 327 331
f 329 328 332
f 194 329 333
f 330 212 334
f 331 330 335
f 332 331 336
f 333 332 337
f 195 333 338
f 334 218 339
f 335 334 340
f 336 335 341
f 337 336 342
f 338 337 343
f 196 338 344
f 219 64 226
f 345 226 228
f 220 219 345
f 346 228 231
f 347 345 346
f 221 220 347
f 348 231 235
f 349 346 348
f 350 347 349
f 222 221 350
f 351 235 240
f 352 348 351
f 353 349 352
f 354 350 353
f 223 222 354
f 355 240 246
f 356 351 355
f 357 352 356
f 358 353 357
f 359 354 358
f 224 223 359
f 360 246 253
f 361 355 360
f 362 356 361
f 363 357 362
f 364 358 363
f 365 359 364
f 225 224 365
f 219 226 345
f 345 228 346
f 220 345 347
f 346 231 348
f 347 346 349
f 221 347 350
f 348 235 351
f 349 348 352
f 350 349 353
f 222 350 354
f 351 240 355
f 352 351 356
f 353 352 357
f 354 353 358
f 223 354 359
f 355 246 360
f 356 355 361
f 357 356 362
f 358 357 363
f 359 358 364
f 224 359 365
f 247 36 254
f 366 254 256
f 248 247 366
f 367 256 259
f 368 366 367
f 249 248 368
f 369 259 263
f 370 367 369
f 371 368 370
f 250 249 371
f 372 263 268
f 373 369 372
f 374 370 373
f 375 371 374
f 251 250 375
f 376 268 274
f 377 372 376
f 378 373 377
f 379 374 378
f 380 375 379
f 252 251 380
f 381 274 281
f 382 376 381
f 383 377 382
f 384 378 383
f 385 379 384
f 386 380 385
f 253 252 386
f 247 254 366
f 366 256 367
f 248 366 368
f 367 259 369
f 368 367 370
f 249 368 371
f 369 263 372
f 370 369 373
f 371 370 374
f 250 371 375
f 372 268 376
f 373 372 377
f 374 373 378
f 375 374 379
f 251 375 380
f 376 274 381
f 377 376 382
f 378 377 383
f 379 378 384
f 380 379 385
f 252 380 386
f 389 387 388
f 391 388 390
f 392 389 391
f 394 390 393
f 395 391 394
f 396 392 395
f 398 393 397
f 399 394 398
f 400 395 399
f 401 396 400
f 403 397 402
f 404 398 403
f 405 399 404
f 406 400 405
f 407 401 406
f 409 402 408
f 410 403 409
f 411 404 410
f 412 405 411
f 413 406 412
f 414 407 413
f 302 408 281
f 301 409 302
f 300 410 301
f 299 411 300
f 298 412 299
f 297 413 298
f 169 414 297
f 389 388 391
f 391 390 394
f 392 391 395
f 394 393 398
f 395 394 399
f 396 395 400
f 398 397 403
f 399 398 404
f 400 399 405
f 401 400 406
f 403 402 409
f 404 403 410
f 405 404 411
f 406 405 412
f 407 406 413
f 409 408 302
f 410 409 301
f 411 410 300
f 412 411 299
f 413 412 298
f 414 413 297
f 388 387 415
f 417 415 416
f 390 388 417
f 419 416 418
f 420 417 419
f 393 390 420
f 422 418 421
f 423 419 422
f 424 420 423
f 397 393 424
f 426 421 425
f 427 422 426
f 428 423 427
f 429 424 428
f 402 397 429
f 431 425 430
f 432 426 431
f 433 427 432
f 434 428 433
f 435 429 434
f 408 402 435
f 386 430 253
f 385 431 386
f 384 432 385
f 383 433 384
f 382 434 383
f 381 435 382
f 281 408 381
f 388 415 417
f 417 416 419
f 390 417 420
f 419 418 422
f 420 419 423
f 393 420 424
f 422 421 426
f 423 422 427
f 424 423 428
f 397 424 429
f 426 425 431
f 427 426 432
f 428 427 433
f 429 428 434
f 402 429 435
f 431 430 386
f 432 431 385
f 433 432 384
f 434 433 383
f 435 434 382
f 408 435 381
f 415 387 436
f 438 436 437
f 416 415 438
f 440 437 439
f 441 438 440
f 418 416 441
f 443 439 442
f 444 440 443
f 445 441 444
f 421 418 445
f 447 442 446
f 448 443 447
f 449 444 448
f 450 445 449
f 425 421 450
f 452 446 451
f 453 447 452
f 454 448 453
f 455 449 454
f 456 450 455
f 430 425 456
f 365 451 225
f 364 452 365
f 363 453 364
f 362 454 363
f 361 455 362
f 360 456 361
f 253 430 360
f 415 436 438
f 438 437 440
f 416 438 441
f 440 439 443
f 441 440 444
f 418 441 445
f 443 442 447
f 444 443 448
f 445 444 449
f 421 445 450
f 447 446 452
f 448 447 453
f 449 448 454
f 450 449 455
f 425 450 456
f 452 451 365
f 453 452 364
f 454 453 363
f 455 454 362
f 456 455 361
f 430 456 360
f 436 387 457
f 459 457 458
f 437 436 459
f 461 458 460
f 462 459 461
f 439 437 462
f 464 460 463
f 465 461 464
f 466 462 465
f 442 439 466
f 468 463 467
f 469 464 468
f 470 465 469
f 471 466 470
f 446 442 471
f 473 467 472
f 474 468 473
f 475 469 474
f 476 470 475
f 477 471 476
f 451 446 477
f 344 472 197
f 343 473 344
f 342 474 343
f 341 475 342
f 340 476 341
f 339 477 340
f 225 451 339
f 436 457 459
f 459 458 461
f 437 459 462
f 461 460 464
f 462 461 465
f 439 462 466
f 464 463 468
f 465 464 469
f 466 465 470
f 442 466 471
f 468 467 473
f 469 468 474
f 470 469 475
f 471 470 476
f 446 471 477
f 473 472 344
f 474 473 343
f 475 474 342
f 476 475 341
f 477 476 340
f 451 477 339
f 457 387 389
f 478 389 392
f 458 457 478
f 479 392 396
f 480 478 479
f 460 458 480
f 481 396 401
f 482 479 481
f 483 480 482
f 463 460 483
f 484 401 407
f 485 481 484
f 486 482 485
f 487 483 486
f 467 463 487
f 488 407 414
f 489 484 488
f 490 485 489
f 491 486 490
f 492 487 491
f 472 467 492
f 323 414 169
f 322 488 323
f 321 489 322
f 320 490 321
f 319 491 320
f 318 492 319
f 197 472 318
f 457 389 478
f 478 392 479
f 458 478 480
f 479 396 481
f 480 479 482
f 460 480 483
f 481 401 484
f 482 481 485
f 483 482 486
f 463 483 487
f 484 407 488
f 485 484 489
f 486 485 490
f 487 486 491
f 467 487 492
f 488 414 323
f 489 488 322
f 490 489 321
f 491 490 320
f 492 491 319
f 472 492 318
