# File exported by Houdini 20.5.445 (www.sidefx.com)
# 492 points
# 2940 vertices
# 980 primitives
# Bounds: [-161.211853, -95.7665558, -1108.50159] to [331.985779, 212.143661, -646.299438]
g 
v 140.243286 5.81244087 -1102.86743
v 133.820557 30.4646473 -1102.9071
v 169.587708 21.9501457 -1095.3269
v 126.114746 56.2637405 -1095.62671
v 163.19696 50.315918 -1094.61682
v 198.582214 41.4343567 -1086.34033
v 117.015503 81.5389709 -1081.76904
v 154.827637 77.6561127 -1085.88843
v 190.81012 71.6568146 -1085.01782
v 226.775513 61.9343948 -1076.72876
v 106.506531 105.153687 -1062.45874
v 144.417847 102.681152 -1070.26343
v 180.633972 98.8095551 -1074.63159
v 216.667603 92.0372467 -1074.53149
v 252.76001 80.8264313 -1066.05298
v 94.9720306 126.680191 -1038.90442
v 132.038269 124.970978 -1048.82532
v 168.198792 122.456024 -1056.51343
v 204.135254 117.513947 -1061.74219
v 240.05481 109.166656 -1061.90491
v 274.848633 95.8295441 -1053.16699
v 83.3065643 146.092102 -1012.16815
v 118.240601 144.708893 -1022.39624
v 153.662231 142.972473 -1031.58496
v 189.457947 138.96405 -1039.82007
v 225.302856 131.905533 -1045.38232
v 260.111145 120.983948 -1045.29932
v 291.778076 105.003601 -1036.92859
v 72.7622528 163.216965 -983.038757
v 104.274658 162.220108 -991.451904
v 137.880127 160.792038 -1000.08612
v 172.956482 157.143478 -1009.20752
v 208.601685 150.236801 -1017.80096
v 243.481689 139.75499 -1023.4137
v 275.684875 125.507812 -1023.66125
v 302.774048 107.496567 -1016.86737
v 164.00354 -7.59061813 -1091.13623
v 197.57019 10.2212372 -1080.65845
v 186.53717 -17.9258499 -1072.18091
v 229.336243 30.3033066 -1069.74805
v 222.452637 0.927856445 -1059.06238
v 206.408936 -26.3387222 -1047.75879
v 258.715576 50.0172729 -1058.72949
v 254.836426 20.4537048 -1046.34351
v 242.675903 -7.70445633 -1032.68823
v 221.836609 -34.5174828 -1019.80743
v 284.303772 67.2383728 -1047.01294
v 283.460876 38.4351349 -1034.0896
v 273.934631 10.2367573 -1018.5415
v 256.65741 -17.1710052 -1003.09088
v 230.942444 -43.5488434 -989.500854
v 304.43219 79.9667358 -1033.11865
v 307.044128 53.0521736 -1021.03625
v 300.17511 25.5654907 -1004.50153
v 285.028015 -1.73127365 -986.658691
v 262.419006 -28.3267555 -970.342712
v 232.203369 -53.5155029 -956.973572
v 317.687744 86.445694 -1015.06799
v 323.633362 62.5371742 -1004.63684
v 319.791565 36.8453903 -987.982361
v 306.731812 10.389864 -968.265259
v 285.891296 -15.9758606 -949.316162
v 258.738586 -41.2650986 -933.944702
v 226.199524 -63.9359894 -922.325012
v 124.686218 -14.722229 -1102.36353
v 147.471985 -29.3030281 -1086.19995
v 107.026611 -29.4425087 -1097.83521
v 167.501831 -39.6998596 -1063.4552
v 128.287781 -44.1434784 -1077.65112
v 86.557724 -37.8584061 -1090.53027
v 183.810852 -48.309845 -1036.4834
v 145.493164 -54.6784668 -1052.20752
v 105.509216 -53.1373596 -1066.68896
v 63.239151 -41.2115402 -1080.79773
v 194.903381 -57.0708466 -1006.45642
v 157.768372 -64.0987549 -1023.06049
v 118.983154 -64.7591553 -1038.32288
v 78.5858307 -57.5808868 -1053.54297
v 37.7641144 -41.4777222 -1067.27905
v 198.858826 -66.4063416 -973.069702
v 163.3703 -73.6133728 -989.653076
v 125.701538 -74.9270935 -1005.51093
v 86.484787 -70.1599274 -1020.74445
v 47.3702545 -58.2686462 -1035.88147
v 10.3932648 -39.4623413 -1047.8501
v 195.216614 -76.1934814 -935.682373
v 161.263184 -83.2937775 -950.891357
v 124.432373 -84.5326385 -966.541626
v 85.80513 -80.451828 -981.757263
v 47.608017 -70.9906769 -996.920349
v 12.3144073 -55.8000946 -1011.16284
v -18.2971954 -35.9967957 -1021.30786
v 107.216675 9.03261948 -1108.46289
v 88.2363739 -8.2506485 -1108.50159
v 74.5805817 18.0372925 -1107.91382
v 67.8983612 -17.8285751 -1104.83423
v 53.5413361 5.71478653 -1107.90771
v 42.7870026 33.3574142 -1101.09277
v 46.0308075 -21.1954269 -1098.16956
v 32.1817474 1.08389664 -1104.0752
v 21.117691 26.2476616 -1100.3186
v 12.631546 54.5165367 -1088.05908
v 23.1050873 -21.0798836 -1087.22095
v 10.9412079 0.883665085 -1095.7229
v 0.620223999 25.0050106 -1094.39038
v -7.97425842 51.3213387 -1084.93201
v -14.5363922 79.2647858 -1068.79028
v -0.966110229 -19.2049332 -1069.69739
v -10.4652557 2.41143036 -1080.83936
v -18.841568 25.9900837 -1081.95886
v -26.4714508 51.4758644 -1074.81543
v -33.0720062 77.9633789 -1061.46545
v -37.7040253 103.838547 -1043.65198
v -27.2428436 -16.0082207 -1043.0094
v -34.1283569 5.46619797 -1055.8894
v -39.5785828 28.3940048 -1059.64453
v -44.6666107 52.820713 -1055.17139
v -49.9115601 78.2165985 -1044.49731
v -54.5005035 102.854797 -1029.96167
v -56.8553314 124.683456 -1013.43921
v 98.7677765 35.5121803 -1103.4967
v 65.7112274 45.9420395 -1097.63696
v 89.8098602 61.9094162 -1090.9895
v 34.3235626 62.239666 -1085.91577
v 56.6435089 72.8861237 -1080.56396
v 80.1871796 87.205658 -1072.69189
v 4.8419342 83.811554 -1068.56055
v 25.6255646 89.6533966 -1064.95862
v 47.1826019 98.5787659 -1058.55322
v 69.893631 111.080688 -1049.86499
v -21.8672333 108.211014 -1045.25977
v -3.4228363 111.348099 -1043.73901
v 16.455246 115.844711 -1039.25879
v 37.3060455 123.172012 -1032.26758
v 59.2973175 133.55101 -1023.2019
v -44.961731 131.33725 -1015.51019
v -29.8411407 135.021866 -1015.49072
v -12.3091888 137.63855 -1013.06824
v 6.90596008 141.138626 -1008.27197
v 27.4226837 146.802139 -1001.37323
v 49.2650604 154.535217 -992.804688
v 48.8615875 173.941833 -959.090698
v 23.1442413 167.892181 -968.178345
v 26.3187103 184.266037 -934.64801
v 0.769546509 163.262192 -975.15863
v 0.117416382 180.114105 -942.790466
v 4.38838196 193.572052 -908.925842
v -19.1171112 160.146774 -979.887024
v -21.6286774 176.997025 -947.882263
v -20.9969025 190.328491 -915.529968
v -17.3647003 201.189529 -881.190552
v -36.9973907 157.53093 -982.61731
v -40.5480194 174.386108 -950.531799
v -41.8982849 187.656067 -918.680176
v -41.5037079 198.073059 -885.901489
v -38.7443085 205.678802 -851.285767
v -52.9228973 153.668564 -983.351501
v -57.7705841 171.070114 -951.350342
v -60.6921539 184.737045 -919.365479
v -62.1861877 194.958725 -886.986816
v -62.1717987 201.981094 -853.774231
v -59.6005859 206.16188 -819.891541
v -66.525528 146.659454 -982.259827
v -73.5964813 165.066376 -950.267395
v -78.616333 179.669876 -917.913452
v -81.9635773 190.278442 -885.208923
v -83.7058105 197.152527 -852.180115
v -83.3806915 201.080658 -819.408386
v -79.7286377 202.970566 -788.05011
v -72.9473419 129.45108 -989.903015
v -70.4803162 105.479767 -1005.42108
v -88.1487732 131.225922 -963.178284
v -66.6977997 79.9076843 -1018.24402
v -85.7908478 105.163239 -977.414246
v -103.401443 129.559616 -933.612854
v -63.571106 54.3304024 -1026.44629
v -83.4424133 78.8443604 -988.023743
v -102.111099 102.253906 -945.987732
v -119.426437 124.834488 -901.163879
v -61.0164948 29.3719807 -1027.91052
v -82.4909363 52.6537895 -993.062805
v -101.644058 75.2591095 -953.54834
v -119.832367 96.943222 -910.748047
v -135.595566 117.409195 -866.018188
v -57.5288544 4.93581009 -1020.63635
v -81.9082947 26.37957 -990.282166
v -102.538177 47.9093475 -954.020996
v -120.95163 69.0062027 -913.806763
v -137.201111 89.0132294 -871.542419
v -149.553253 107.596024 -829.194946
v -51.2882233 -19.0441589 -1002.94183
v -79.5055084 -0.406108856 -976.773071
v -103.006119 19.3596191 -944.095764
v -122.440323 39.6278229 -907.012024
v -138.273621 59.530571 -867.925659
v -150.341293 78.3097992 -829.130676
v -158.233902 96.0435028 -792.498718
v -30.7232208 -44.8334122 -983.905945
v 2.43370056 -65.0874176 -970.339722
v -42.7546539 -52.1204071 -942.123474
v 40.0995941 -79.2321777 -955.017273
v -6.06843567 -71.3471375 -928.16272
v -51.3544922 -56.8855743 -898.292358
v 80.2086029 -87.9421692 -939.686096
v 34.7505646 -84.0329132 -913.197754
v -10.499527 -74.1752625 -885.299377
v -53.8510284 -58.55896 -853.875
v 120.303223 -92.1268921 -923.901917
v 76.9420624 -92.3378143 -897.234314
v 33.0785065 -85.6896515 -869.868164
v -9.81044006 -73.7392273 -840.868469
v -49.4697876 -56.9867249 -809.310242
v 159.132996 -90.2184448 -908.093994
v 119.311523 -95.7665558 -880.714478
v 77.8131561 -92.9076691 -852.898376
v 36.4291534 -83.4519043 -824.456604
v -3.01802063 -69.3640137 -795.612061
v -38.3605804 -51.4951019 -766.501221
v 196.337891 -80.8976135 -893.605652
v 161.76062 -91.519577 -864.476074
v 123.929443 -93.9038086 -835.269958
v 84.8376312 -87.9922333 -806.217773
v 46.2992401 -75.8686371 -778.078125
v 10.0747528 -59.9347534 -751.82196
v -21.9207916 -41.5816269 -728.205505
v 237.537842 -60.4334412 -893.348572
v 272.541443 -34.7708015 -908.139221
v 246.822327 -54.4716187 -866.180603
v 300.251465 -7.79700089 -927.33667
v 282.770996 -27.1260223 -885.84198
v 254.516663 -44.6118927 -842.295349
v 319.905701 19.0941887 -949.345032
v 309.402222 0.438064575 -909.013672
v 289.786377 -16.8760529 -867.09845
v 259.80304 -29.9844398 -822.785034
v 330.192505 45.2373466 -970.31543
v 326.197754 27.2224197 -932.938049
v 313.562073 10.533699 -893.247803
v 292.225708 -2.70082855 -851.562012
v 260.573975 -10.7646179 -807.922607
v 329.895264 70.2222595 -986.44165
v 331.985779 53.1457596 -953.635864
v 325.496277 37.3233528 -917.575073
v 310.897522 24.4661064 -878.94519
v 287.843506 15.9340982 -838.467346
v 255.075378 12.4811363 -797.15448
v 318.060913 93.6090088 -994.323242
v 324.846191 78.5289612 -967.193298
v 323.933594 64.0773315 -936.191589
v 315.45575 52.1867065 -901.740784
v 299.241394 43.8847427 -864.8125
v 275.213989 39.6610336 -826.748352
v 243.250793 38.9804726 -789.222412
v 292.353271 117.54451 -998.242004
v 260.990906 136.773422 -998.880981
v 275.51178 125.635132 -973.901428
v 226.295593 151.977661 -993.069092
v 241.697632 145.175537 -969.458496
v 253.794739 133.748642 -945.323792
v 190.337646 163.31311 -983.962158
v 206.272766 160.759918 -960.235718
v 219.092224 153.378723 -937.232056
v 228.887817 143.692871 -914.023926
v 154.139648 170.75708 -974.077515
v 170.097961 172.600525 -949.508728
v 183.634888 169.17189 -926.08374
v 194.052551 163.328064 -903.549866
v 202.184509 156.624969 -881.687622
v 118.24115 174.660614 -965.141968
v 133.136963 180.561783 -939.285706
v 146.826965 181.306076 -914.534241
v 157.964966 179.240936 -891.221191
v 166.781555 175.906021 -869.677734
v 173.638611 171.859268 -849.650146
v 83.0471954 176.491043 -957.412292
v 95.0857086 185.311432 -930.870728
v 107.173462 189.910904 -904.482117
v 118.036072 191.605255 -879.494995
v 127.504578 191.441742 -856.862549
v 135.596008 189.794281 -836.905945
v 142.246948 186.869812 -819.302185
v 58.5810699 186.56781 -929.512939
v 34.9011688 195.70491 -902.594421
v 68.7036285 194.783661 -900.407532
v 10.996994 203.461533 -875.14032
v 42.6603851 203.197571 -871.870056
v 78.0267792 199.561462 -872.477539
v -12.8775787 208.508179 -845.717957
v 16.7028351 209.342972 -842.839844
v 50.0027313 207.520493 -842.827209
v 87.0148773 201.904114 -846.73407
v -36.3659973 209.621048 -813.81311
v -8.93772888 211.805557 -811.286621
v 22.6968536 212.143661 -811.954102
v 57.9105072 209.235901 -815.764038
v 95.950943 202.128189 -823.515991
v -59.4141693 206.6203 -779.663635
v -34.2342224 209.73204 -775.96936
v -4.20915222 212.079926 -776.973267
v 29.8621063 212.107376 -781.93457
v 66.5887909 208.420929 -790.410034
v 104.687073 200.259003 -802.663086
v -84.4769135 152.071243 -953.513977
v -100.953033 152.948685 -923.139587
v -92.7807159 169.355789 -918.156555
v -117.040787 149.481201 -890.872803
v -110.250183 168.210083 -885.135132
v -98.7622986 181.687805 -883.278259
v -133.116653 142.450699 -856.183289
v -127.120255 162.683502 -850.18219
v -117.094772 178.326263 -847.534668
v -102.72966 189.662369 -848.083801
v -148.066086 132.504807 -819.158813
v -143.037994 153.730408 -812.505981
v -134.173996 171.068405 -809.155212
v -121.210526 184.47261 -809.013977
v -104.249023 194.262268 -812.311096
v -158.963074 119.981979 -780.900757
v -155.769836 141.70578 -772.363831
v -148.462891 160.582153 -767.329163
v -136.800674 175.951248 -766.228271
v -121.010712 187.772369 -769.341187
v -101.743637 196.542267 -776.73175
v -67.7758484 -27.4840965 -959.037476
v -81.2375641 -34.1536407 -912.130981
v -97.4337921 -8.83686447 -927.800964
v -88.3316193 -38.2748642 -864.72876
v -109.394638 -15.2225266 -877.659973
v -120.142624 10.7783108 -892.228699
v -87.0122681 -39.4282837 -817.886169
v -112.660095 -18.9219017 -828.306091
v -128.765671 4.60016632 -840.748779
v -136.919952 31.0099869 -854.43103
v -77.4192505 -36.7485199 -772.088867
v -106.818787 -19.1107788 -779.958923
v -127.69278 1.71752548 -790.366272
v -141.351974 25.4993439 -802.866821
v -148.809586 51.4752007 -816.155884
v -60.006134 -28.9348297 -729.339661
v -91.8121643 -13.9374847 -733.587524
v -116.986389 4.05113602 -741.167358
v -135.944336 24.9617653 -752.031372
v -149.208389 48.1732635 -764.987915
v -156.761826 72.4103394 -778.617737
v 205.24823 -77.3314819 -858.247009
v 212.800537 -68.8340149 -826.711304
v 169.769104 -85.6170807 -824.646118
v 219.249207 -54.4022522 -800.418884
v 176.798523 -73.0152283 -790.671143
v 132.20813 -84.6493225 -792.769287
v 222.844299 -34.145031 -780.255249
v 181.962341 -53.6522369 -763.466553
v 138.722717 -67.816391 -757.786072
v 93.4792633 -75.2000885 -762.684448
v 221.227112 -8.47444153 -766.484131
v 182.960571 -27.7287064 -743.751099
v 141.705383 -43.5598145 -730.667419
v 98.5593109 -54.2662811 -727.741028
v 54.3823395 -59.5279541 -734.943054
v 213.1745 22.1462135 -758.34314
v 177.72937 4.8625679 -731.75177
v 138.852722 -11.3686295 -712.078735
v 98.1151886 -24.6527405 -701.411438
v 56.8638153 -34.1574249 -700.853821
v 16.4181976 -39.6456451 -710.277161
v 304.805603 103.036957 -973.849548
v 284.825928 111.859558 -948.821289
v 308.820435 89.2621918 -946.418518
v 260.278625 122.323959 -920.292725
v 286.213257 100.86232 -921.559509
v 305.550476 78.0594177 -915.804626
v 232.65448 136.084946 -889.112549
v 259.08197 115.304398 -893.047913
v 280.529236 93.8660278 -891.103638
v 294.852966 70.4972534 -881.713562
v 202.273743 153.602371 -856.168701
v 228.062378 133.821182 -861.151306
v 250.23877 113.158051 -861.861694
v 266.851318 91.1431122 -856.530151
v 275.72113 66.7010803 -844.426514
v 167.906921 172.925903 -822.071167
v 191.959106 155.829758 -825.802673
v 213.641418 136.478882 -827.486938
v 231.188904 115.201431 -824.937012
v 242.538208 91.7220459 -817.292969
v 246.651428 65.9867325 -804.627563
v -24.4591217 142.256134 -651.34906
v 3.74171448 159.172684 -663.033325
v -43.5145874 157.081741 -651.009644
v 31.7884369 173.622406 -681.925171
v -15.6909943 173.690262 -664.442688
v -60.5344543 168.959351 -655.976562
v 57.9407806 184.920761 -706.542908
v 10.69133 187.340164 -685.795227
v -32.86586 184.274033 -672.419678
v -74.4722137 178.731979 -668.19104
v 81.829483 192.062271 -734.291748
v 35.1881256 197.363586 -712.523621
v -7.26771545 196.438797 -696.841797
v -46.9092102 192.200424 -688.085205
v -84.1377258 187.144699 -688.559753
v 103.85144 194.448013 -762.84967
v 58.5753937 203.014145 -741.746887
v 17.0189667 204.957748 -725.911926
v -21.3486176 202.608185 -715.399536
v -56.6618195 198.476318 -711.494934
v -88.1910706 194.182587 -716.648438
v 124.139465 192.270355 -791.137817
v 81.719223 203.904022 -771.839355
v 41.3439484 209.142654 -757.323975
v 3.70375061 209.569794 -747.111572
v -30.6711578 206.994507 -741.636719
v -60.9349213 203.342407 -742.357544
v -86.3574982 199.542679 -750.683533
v 13.3756866 136.030869 -661.61322
v 52.7888641 127.26622 -676.971741
v 47.1273956 153.403046 -679.994263
v 92.6837006 114.702362 -696.177368
v 89.5915985 143.715347 -701.605225
v 78.0373688 166.629044 -704.391052
v 132.485291 97.9351044 -717.421875
v 130.827515 129.247162 -725.70282
v 121.673645 154.579117 -730.069336
v 105.211243 175.474792 -732.251892
v 171.884949 78.4093475 -739.722778
v 170.990784 110.429077 -750.937805
v 163.246887 137.302338 -757.632629
v 148.946167 160.069656 -760.653625
v 129.016907 179.280289 -761.61377
v 209.467529 58.022583 -763.436646
v 209.989502 88.6228027 -776.997742
v 203.593506 115.792297 -786.477356
v 190.603455 139.493912 -791.401428
v 172.195496 160.179611 -792.536499
v 149.795166 178.007034 -791.53595
v -28.5816498 118.699448 -649.376831
v -30.8541107 91.5575867 -649.318237
v 11.1739349 108.762878 -658.359253
v -31.1883087 62.2876396 -651.421509
v 10.5244293 78.7389374 -656.285767
v 51.2996063 96.5146484 -671.874146
v -30.4513702 32.7911606 -658.372498
v 10.9747162 47.2381554 -657.218018
v 51.1371002 63.5893402 -668.266479
v 91.4454498 80.7413635 -688.95636
v -29.2052155 4.83389664 -672.949585
v 11.9242401 15.9882259 -664.672424
v 52.1615448 29.9781666 -669.180664
v 92.131485 45.6410294 -684.579346
v 132.275879 62.0622368 -708.669617
v -26.8480072 -20.1833839 -696.429932
v 13.3932343 -13.3659363 -681.756592
v 53.9640961 -2.98300934 -678.788818
v 94.4109344 10.2616444 -687.099731
v 134.461304 25.5344505 -705.288574
v 173.371582 41.9308701 -731.333801
v -62.212616 133.512833 -646.299438
v -95.3201599 124.167923 -650.36084
v -67.1593018 106.844482 -647.77124
v -122.642899 115.362778 -663.455994
v -99.0798798 95.4909668 -656.0755
v -69.1538544 77.962326 -651.7724
v -143.208572 108.134354 -685.100464
v -124.496857 85.8778381 -673.581543
v -99.7426758 66.1916962 -664.888855
v -68.9482117 48.6627731 -659.378296
v -156.256897 102.919434 -714.505127
v -143.093994 78.8660278 -699.952759
v -123.599777 57.1139679 -687.863586
v -98.5065918 37.7396202 -678.711487
v -67.6157379 20.5261879 -673.421021
v -161.211853 99.1940308 -750.767578
v -154.201248 74.6291656 -734.991821
v -140.473022 51.1559296 -720.953674
v -121.067261 29.836792 -709.087341
v -96.2499695 10.9359608 -700.667603
v -65.2395782 -5.54363251 -696.351318
v -82.7112122 149.212875 -649.198364
v -98.5599213 162.049026 -658.723877
v -114.460693 141.506592 -657.878357
v -109.088745 173.223175 -676.193848
v -127.054138 156.128265 -672.685669
v -138.437698 134.795563 -676.02478
v -113.303253 182.878799 -702.338196
v -132.572342 168.828857 -695.976685
v -146.237381 151.171631 -696.524963
v -154.167023 129.355789 -702.867981
v -110.628616 190.701859 -736.453857
v -130.487869 179.388687 -728.425415
v -145.646179 164.855972 -726.363342
v -155.868988 146.599503 -729.791809
v -161.032654 124.666138 -738.024414
g 
f 3 1 2
f 5 2 4
f 6 3 5
f 8 4 7
f 9 5 8
f 10 6 9
f 12 7 11
f 13 8 12
f 14 9 13
f 15 10 14
f 17 11 16
f 18 12 17
f 19 13 18
f 20 14 19
f 21 15 20
f 23 16 22
f 24 17 23
f 25 18 24
f 26 19 25
f 27 20 26
f 28 21 27
f 30 22 29
f 31 23 30
f 32 24 31
f 33 25 32
f 34 26 33
f 35 27 34
f 36 28 35
f 3 2 5
f 5 4 8
f 6 5 9
f 8 7 12
f 9 8 13
f 10 9 14
f 12 11 17
f 13 12 18
f 14 13 19
f 15 14 20
f 17 16 23
f 18 17 24
f 19 18 25
f 20 19 26
f 21 20 27
f 23 22 30
f 24 23 31
f 25 24 32
f 26 25 33
f 27 26 34
f 28 27 35
f 37 1 3
f 38 3 6
f 39 37 38
f 40 6 10
f 41 38 40
f 42 39 41
f 43 10 15
f 44 40 43
f 45 41 44
f 46 42 45
f 47 15 21
f 48 43 47
f 49 44 48
f 50 45 49
f 51 46 50
f 52 21 28
f 53 47 52
f 54 48 53
f 55 49 54
f 56 50 55
f 57 51 56
f 58 28 36
f 59 52 58
f 60 53 59
f 61 54 60
f 62 55 61
f 63 56 62
f 64 57 63
f 37 3 38
f 38 6 40
f 39 38 41
f 40 10 43
f 41 40 44
f 42 41 45
f 43 15 47
f 44 43 48
f 45 44 49
f 46 45 50
f 47 21 52
f 48 47 53
f 49 48 54
f 50 49 55
f 51 50 56
f 52 28 58
f 53 52 59
f 54 53 60
f 55 54 61
f 56 55 62
f 57 56 63
f 65 1 37
f 66 37 39
f 67 65 66
f 68 39 42
f 69 66 68
f 70 67 69
f 71 42 46
f 72 68 71
f 73 69 72
f 74 70 73
f 75 46 51
f 76 71 75
f 77 72 76
f 78 73 77
f 79 74 78
f 80 51 57
f 81 75 80
f 82 76 81
f 83 77 82
f 84 78 83
f 85 79 84
f 86 57 64
f 87 80 86
f 88 81 87
f 89 82 88
f 90 83 89
f 91 84 90
f 92 85 91
f 65 37 66
f 66 39 68
f 67 66 69
f 68 42 71
f 69 68 72
f 70 69 73
f 71 46 75
f 72 71 76
f 73 72 77
f 74 73 78
f 75 51 80
f 76 75 81
f 77 76 82
f 78 77 83
f 79 78 84
f 80 57 86
f 81 80 87
f 82 81 88
f 83 82 89
f 84 83 90
f 85 84 91
f 93 1 65
f 94 65 67
f 95 93 94
f 96 67 70
f 97 94 96
f 98 95 97
f 99 70 74
f 100 96 99
f 101 97 100
f 102 98 101
f 103 74 79
f 104 99 103
f 105 100 104
f 106 101 105
f 107 102 106
f 108 79 85
f 109 103 108
f 110 104 109
f 111 105 110
f 112 106 111
f 113 107 112
f 114 85 92
f 115 108 114
f 116 109 115
f 117 110 116
f 118 111 117
f 119 112 118
f 120 113 119
f 93 65 94
f 94 67 96
f 95 94 97
f 96 70 99
f 97 96 100
f 98 97 101
f 99 74 103
f 100 99 104
f 101 100 105
f 102 101 106
f 103 79 108
f 104 103 109
f 105 104 110
f 106 105 111
f 107 106 112
f 108 85 114
f 109 108 115
f 110 109 116
f 111 110 117
f 112 111 118
f 113 112 119
f 2 1 93
f 121 93 95
f 4 2 121
f 122 95 98
f 123 121 122
f 7 4 123
f 124 98 102
f 125 122 124
f 126 123 125
f 11 7 126
f 127 102 107
f 128 124 127
f 129 125 128
f 130 126 129
f 16 11 130
f 131 107 113
f 132 127 131
f 133 128 132
f 134 129 133
f 135 130 134
f 22 16 135
f 136 113 120
f 137 131 136
f 138 132 137
f 139 133 138
f 140 134 139
f 141 135 140
f 29 22 141
f 2 93 121
f 121 95 122
f 4 121 123
f 122 98 124
f 123 122 125
f 7 123 126
f 124 102 127
f 125 124 128
f 126 125 129
f 11 126 130
f 127 107 131
f 128 127 132
f 129 128 133
f 130 129 134
f 16 130 135
f 131 113 136
f 132 131 137
f 133 132 138
f 134 133 139
f 135 134 140
f 22 135 141
f 142 29 141
f 143 141 140
f 144 142 143
f 145 140 139
f 146 143 145
f 147 144 146
f 148 139 138
f 149 145 148
f 150 146 149
f 151 147 150
f 152 138 137
f 153 148 152
f 154 149 153
f 155 150 154
f 156 151 155
f 157 137 136
f 158 152 157
f 159 153 158
f 160 154 159
f 161 155 160
f 162 156 161
f 163 136 120
f 164 157 163
f 165 158 164
f 166 159 165
f 167 160 166
f 168 161 167
f 169 162 168
f 142 141 143
f 143 140 145
f 144 143 146
f 145 139 148
f 146 145 149
f 147 146 150
f 148 138 152
f 149 148 153
f 150 149 154
f 151 150 155
f 152 137 157
f 153 152 158
f 154 153 159
f 155 154 160
f 156 155 161
f 157 136 163
f 158 157 164
f 159 158 165
f 160 159 166
f 161 160 167
f 162 161 168
f 170 120 119
f 171 119 118
f 172 170 171
f 173 118 117
f 174 171 173
f 175 172 174
f 176 117 116
f 177 173 176
f 178 174 177
f 179 175 178
f 180 116 115
f 181 176 180
f 182 177 181
f 183 178 182
f 184 179 183
f 185 115 114
f 186 180 185
f 187 181 186
f 188 182 187
f 189 183 188
f 190 184 189
f 191 114 92
f 192 185 191
f 193 186 192
f 194 187 193
f 195 188 194
f 196 189 195
f 197 190 196
f 170 119 171
f 171 118 173
f 172 171 174
f 173 117 176
f 174 173 177
f 175 174 178
f 176 116 180
f 177 176 181
f 178 177 182
f 179 178 183
f 180 115 185
f 181 180 186
f 182 181 187
f 183 182 188
f 184 183 189
f 185 114 191
f 186 185 192
f 187 186 193
f 188 187 194
f 189 188 195
f 190 189 196
f 198 92 91
f 199 91 90
f 200 198 199
f 201 90 89
f 202 199 201
f 203 200 202
f 204 89 88
f 205 201 204
f 206 202 205
f 207 203 206
f 208 88 87
f 209 204 208
f 210 205 209
f 211 206 210
f 212 207 211
f 213 87 86
f 214 208 213
f 215 209 214
f 216 210 215
f 217 211 216
f 218 212 217
f 219 86 64
f 220 213 219
f 221 214 220
f 222 215 221
f 223 216 222
f 224 217 223
f 225 218 224
f 198 91 199
f 199 90 201
f 200 199 202
f 201 89 204
f 202 201 205
f 203 202 206
f 204 88 208
f 205 204 209
f 206 205 210
f 207 206 211
f 208 87 213
f 209 208 214
f 210 209 215
f 211 210 216
f 212 211 217
f 213 86 219
f 214 213 220
f 215 214 221
f 216 215 222
f 217 216 223
f 218 217 224
f 226 64 63
f 227 63 62
f 228 226 227
f 229 62 61
f 230 227 229
f 231 228 230
f 232 61 60
f 233 229 232
f 234 230 233
f 235 231 234
f 236 60 59
f 237 232 236
f 238 233 237
f 239 234 238
f 240 235 239
f 241 59 58
f 242 236 241
f 243 237 242
f 244 238 243
f 245 239 244
f 246 240 245
f 247 58 36
f 248 241 247
f 249 242 248
f 250 243 249
f 251 244 250
f 252 245 251
f 253 246 252
f 226 63 227
f 227 62 229
f 228 227 230
f 229 61 232
f 230 229 233
f 231 230 234
f 232 60 236
f 233 232 237
f 234 233 238
f 235 234 239
f 236 59 241
f 237 236 242
f 238 237 243
f 239 238 244
f 240 239 245
f 241 58 247
f 242 241 248
f 243 242 249
f 244 243 250
f 245 244 251
f 246 245 252
f 254 36 35
f 255 35 34
f 256 254 255
f 257 34 33
f 258 255 257
f 259 256 258
f 260 33 32
f 261 257 260
f 262 258 261
f 263 259 262
f 264 32 31
f 265 260 264
f 266 261 265
f 267 262 266
f 268 263 267
f 269 31 30
f 270 264 269
f 271 265 270
f 272 266 271
f 273 267 272
f 274 268 273
f 275 30 29
f 276 269 275
f 277 270 276
f 278 271 277
f 279 272 278
f 280 273 279
f 281 274 280
f 254 35 255
f 255 34 257
f 256 255 258
f 257 33 260
f 258 257 261
f 259 258 262
f 260 32 264
f 261 260 265
f 262 261 266
f 263 262 267
f 264 31 269
f 265 264 270
f 266 265 271
f 267 266 272
f 268 267 273
f 269 30 275
f 270 269 276
f 271 270 277
f 272 271 278
f 273 272 279
f 274 273 280
f 275 29 142
f 282 142 144
f 276 275 282
f 283 144 147
f 284 282 283
f 277 276 284
f 285 147 151
f 286 283 285
f 287 284 286
f 278 277 287
f 288 151 156
f 289 285 288
f 290 286 289
f 291 287 290
f 279 278 291
f 292 156 162
f 293 288 292
f 294 289 293
f 295 290 294
f 296 291 295
f 280 279 296
f 297 162 169
f 298 292 297
f 299 293 298
f 300 294 299
f 301 295 300
f 302 296 301
f 281 280 302
f 275 142 282
f 282 144 283
f 276 282 284
f 283 147 285
f 284 283 286
f 277 284 287
f 285 151 288
f 286 285 289
f 287 286 290
f 278 287 291
f 288 156 292
f 289 288 293
f 290 289 294
f 291 290 295
f 279 291 296
f 292 162 297
f 293 292 298
f 294 293 299
f 295 294 300
f 296 295 301
f 280 296 302
f 163 120 170
f 303 170 172
f 164 163 303
f 304 172 175
f 305 303 304
f 165 164 305
f 306 175 179
f 307 304 306
f 308 305 307
f 166 165 308
f 309 179 184
f 310 306 309
f 311 307 310
f 312 308 311
f 167 166 312
f 313 184 190
f 314 309 313
f 315 310 314
f 316 311 315
f 317 312 316
f 168 167 317
f 318 190 197
f 319 313 318
f 320 314 319
f 321 315 320
f 322 316 321
f 323 317 322
f 169 168 323
f 163 170 303
f 303 172 304
f 164 303 305
f 304 175 306
f 305 304 307
f 165 305 308
f 306 179 309
f 307 306 310
f 308 307 311
f 166 308 312
f 309 184 313
f 310 309 314
f 311 310 315
f 312 311 316
f 167 312 317
f 313 190 318
f 314 313 319
f 315 314 320
f 316 315 321
f 317 316 322
f 168 317 323
f 191 92 198
f 324 198 200
f 192 191 324
f 325 200 203
f 326 324 325
f 193 192 326
f 327 203 207
f 328 325 327
f 329 326 328
f 194 193 329
f 330 207 212
f 331 327 330
f 332 328 331
f 333 329 332
f 195 194 333
f 334 212 218
f 335 330 334
f 336 331 335
f 337 332 336
f 338 333 337
f 196 195 338
f 339 218 225
f 340 334 339
f 341 335 340
f 342 336 341
f 343 337 342
f 344 338 343
f 197 196 344
f 191 198 324
f 324 200 325
f 192 324 326
f 325 203 327
f 326 325 328
f 193 326 329
f 327 207 330
f 328 327 331
f 329 328 332
f 194 329 333
f 330 212 334
f 331 330 335
f 332 331 336
f 333 332 337
f 195 333 338
f 334 218 339
f 335 334 340
f 336 335 341
f 337 336 342
f 338 337 343
f 196 338 344
f 219 64 226
f 345 226 228
f 220 219 345
f 346 228 231
f 347 345 346
f 221 220 347
f 348 231 235
f 349 346 348
f 350 347 349
f 222 221 350
f 351 235 240
f 352 348 351
f 353 349 352
f 354 350 353
f 223 222 354
f 355 240 246
f 356 351 355
f 357 352 356
f 358 353 357
f 359 354 358
f 224 223 359
f 360 246 253
f 361 355 360
f 362 356 361
f 363 357 362
f 364 358 363
f 365 359 364
f 225 224 365
f 219 226 345
f 345 228 346
f 220 345 347
f 346 231 348
f 347 346 349
f 221 347 350
f 348 235 351
f 349 348 352
f 350 349 353
f 222 350 354
f 351 240 355
f 352 351 356
f 353 352 357
f 354 353 358
f 223 354 359
f 355 246 360
f 356 355 361
f 357 356 362
f 358 357 363
f 359 358 364
f 224 359 365
f 247 36 254
f 366 254 256
f 248 247 366
f 367 256 259
f 368 366 367
f 249 248 368
f 369 259 263
f 370 367 369
f 371 368 370
f 250 249 371
f 372 263 268
f 373 369 372
f 374 370 373
f 375 371 374
f 251 250 375
f 376 268 274
f 377 372 376
f 378 373 377
f 379 374 378
f 380 375 379
f 252 251 380
f 381 274 281
f 382 376 381
f 383 377 382
f 384 378 383
f 385 379 384
f 386 380 385
f 253 252 386
f 247 254 366
f 366 256 367
f 248 366 368
f 367 259 369
f 368 367 370
f 249 368 371
f 369 263 372
f 370 369 373
f 371 370 374
f 250 371 375
f 372 268 376
f 373 372 377
f 374 373 378
f 375 374 379
f 251 375 380
f 376 274 381
f 377 376 382
f 378 377 383
f 379 378 384
f 380 379 385
f 252 380 386
f 389 387 388
f 391 388 390
f 392 389 391
f 394 390 393
f 395 391 394
f 396 392 395
f 398 393 397
f 399 394 398
f 400 395 399
f 401 396 400
f 403 397 402
f 404 398 403
f 405 399 404
f 406 400 405
f 407 401 406
f 409 402 408
f 410 403 409
f 411 404 410
f 412 405 411
f 413 406 412
f 414 407 413
f 302 408 281
f 301 409 302
f 300 410 301
f 299 411 300
f 298 412 299
f 297 413 298
f 169 414 297
f 389 388 391
f 391 390 394
f 392 391 395
f 394 393 398
f 395 394 399
f 396 395 400
f 398 397 403
f 399 398 404
f 400 399 405
f 401 400 406
f 403 402 409
f 404 403 410
f 405 404 411
f 406 405 412
f 407 406 413
f 409 408 302
f 410 409 301
f 411 410 300
f 412 411 299
f 413 412 298
f 414 413 297
f 388 387 415
f 417 415 416
f 390 388 417
f 419 416 418
f 420 417 419
f 393 390 420
f 422 418 421
f 423 419 422
f 424 420 423
f 397 393 424
f 426 421 425
f 427 422 426
f 428 423 427
f 429 424 428
f 402 397 429
f 431 425 430
f 432 426 431
f 433 427 432
f 434 428 433
f 435 429 434
f 408 402 435
f 386 430 253
f 385 431 386
f 384 432 385
f 383 433 384
f 382 434 383
f 381 435 382
f 281 408 381
f 388 415 417
f 417 416 419
f 390 417 420
f 419 418 422
f 420 419 423
f 393 420 424
f 422 421 426
f 423 422 427
f 424 423 428
f 397 424 429
f 426 425 431
f 427 426 432
f 428 427 433
f 429 428 434
f 402 429 435
f 431 430 386
f 432 431 385
f 433 432 384
f 434 433 383
f 435 434 382
f 408 435 381
f 415 387 436
f 438 436 437
f 416 415 438
f 440 437 439
f 441 438 440
f 418 416 441
f 443 439 442
f 444 440 443
f 445 441 444
f 421 418 445
f 447 442 446
f 448 443 447
f 449 444 448
f 450 445 449
f 425 421 450
f 452 446 451
f 453 447 452
f 454 448 453
f 455 449 454
f 456 450 455
f 430 425 456
f 365 451 225
f 364 452 365
f 363 453 364
f 362 454 363
f 361 455 362
f 360 456 361
f 253 430 360
f 415 436 438
f 438 437 440
f 416 438 441
f 440 439 443
f 441 440 444
f 418 441 445
f 443 442 447
f 444 443 448
f 445 444 449
f 421 445 450
f 447 446 452
f 448 447 453
f 449 448 454
f 450 449 455
f 425 450 456
f 452 451 365
f 453 452 364
f 454 453 363
f 455 454 362
f 456 455 361
f 430 456 360
f 436 387 457
f 459 457 458
f 437 436 459
f 461 458 460
f 462 459 461
f 439 437 462
f 464 460 463
f 465 461 464
f 466 462 465
f 442 439 466
f 468 463 467
f 469 464 468
f 470 465 469
f 471 466 470
f 446 442 471
f 473 467 472
f 474 468 473
f 475 469 474
f 476 470 475
f 477 471 476
f 451 446 477
f 344 472 197
f 343 473 344
f 342 474 343
f 341 475 342
f 340 476 341
f 339 477 340
f 225 451 339
f 436 457 459
f 459 458 461
f 437 459 462
f 461 460 464
f 462 461 465
f 439 462 466
f 464 463 468
f 465 464 469
f 466 465 470
f 442 466 471
f 468 467 473
f 469 468 474
f 470 469 475
f 471 470 476
f 446 471 477
f 473 472 344
f 474 473 343
f 475 474 342
f 476 475 341
f 477 476 340
f 451 477 339
f 457 387 389
f 478 389 392
f 458 457 478
f 479 392 396
f 480 478 479
f 460 458 480
f 481 396 401
f 482 479 481
f 483 480 482
f 463 460 483
f 484 401 407
f 485 481 484
f 486 482 485
f 487 483 486
f 467 463 487
f 488 407 414
f 489 484 488
f 490 485 489
f 491 486 490
f 492 487 491
f 472 467 492
f 323 414 169
f 322 488 323
f 321 489 322
f 320 490 321
f 319 491 320
f 318 492 319
f 197 472 318
f 457 389 478
f 478 392 479
f 458 478 480
f 479 396 481
f 480 479 482
f 460 480 483
f 481 401 484
f 482 481 485
f 483 482 486
f 463 483 487
f 484 407 488
f 485 484 489
f 486 485 490
f 487 486 491
f 467 487 492
f 488 414 323
f 489 488 322
f 490 489 321
f 491 490 320
f 492 491 319
f 472 492 318
