# File exported by Houdini 20.5.445 (www.sidefx.com)
# 492 points
# 2940 vertices
# 980 primitives
# Bounds: [-172.220871, -151.231506, -1095.95068] to [342.994781, 267.608612, -658.850342]
g 
v 195.541046 84.330246 -1063.95972
v 202.45932 114.766022 -1065.026
v 229.484283 95.2358932 -1081.85999
v 209.103485 141.470062 -1062.45776
v 239.311798 128.022217 -1079.64722
v 260.253265 106.247627 -1091.31091
v 212.860138 165.603027 -1053.46899
v 245.537933 155.797668 -1070.52075
v 269.820953 140.649323 -1081.92419
v 286.222137 117.200638 -1089.73669
v 213.09079 186.97229 -1037.78674
v 247.224579 179.75354 -1053.93005
v 273.828705 168.798798 -1064.31775
v 293.645416 152.252594 -1071.74121
v 306.236053 127.856636 -1077.29614
v 209.872406 205.233643 -1016.87378
v 245.28476 199.799316 -1030.2948
v 273.207123 191.548645 -1039.92798
v 295.654999 179.470886 -1046.43274
v 311.885529 161.615021 -1052.15308
v 321.010773 136.451813 -1056.78955
v 202.711517 220.888763 -993.09668
v 239.443451 216.147919 -1001.61511
v 268.985199 209.454895 -1009.3844
v 293.360443 199.81424 -1015.11682
v 312.753937 186.028564 -1020.38586
v 325.819489 166.528229 -1026.3175
v 331.726776 140.850403 -1031.15588
v 191.055023 234.767944 -968.629761
v 228.143829 230.010742 -971.253296
v 259.94754 223.624146 -975.088501
v 286.806244 214.699249 -978.872803
v 309.305634 202.637054 -983.25708
v 326.322601 186.353455 -989.384521
v 336.330109 165.329773 -996.739014
v 339.121796 140.107452 -1002.82397
v 210.244965 56.5922623 -1073.32349
v 243.777435 66.9595413 -1089.97559
v 222.734833 26.4979172 -1077.38989
v 272.308502 77.780899 -1095.95068
v 254.628876 37.7944794 -1090.31738
v 232.727081 -3.57634735 -1073.88171
v 295.308502 88.8724136 -1090.68665
v 280.242462 49.9398766 -1091.30212
v 262.513031 9.95348549 -1081.53467
v 239.82724 -30.7556 -1061.44751
v 312.402618 99.8445053 -1075.34998
v 300.094147 62.2069168 -1081.62634
v 285.158234 24.0845661 -1077.08667
v 267.224884 -14.7757263 -1063.25842
v 243.013824 -52.7827454 -1040.02808
v 324.518341 108.584328 -1052.0697
v 314.425812 73.4302979 -1062.71033
v 301.894073 37.1589928 -1062.62927
v 286.768463 0.476366043 -1053.35791
v 267.522308 -35.824028 -1036.13086
v 240.90683 -69.3825226 -1011.45044
v 332.882233 112.875786 -1022.76282
v 323.81369 81.7032242 -1035.33533
v 312.947845 47.8826904 -1038.76697
v 299.711456 13.1724873 -1033.18115
v 283.049347 -21.1335373 -1020.27881
v 261.196014 -53.50634 -1001.67102
v 232.612701 -81.8114243 -978.638916
v 169.443512 57.3509941 -1047.37842
v 184.837311 23.9326134 -1054.59436
v 141.893646 31.0965919 -1027.91858
v 197.259735 -9.60354614 -1055.58618
v 157.726105 -5.4938736 -1031.73535
v 112.089813 6.41030502 -1007.34619
v 206.472076 -40.6266632 -1048.55286
v 169.452484 -39.8028641 -1029.37415
v 127.504059 -30.9763489 -1006.85132
v 80.4694824 -16.9434166 -985.967285
v 211.730743 -66.2504044 -1032.2489
v 176.681854 -69.3403015 -1018.45288
v 137.400787 -63.8111191 -1000.23376
v 94.2289124 -52.5514374 -980.296509
v 47.9736023 -38.6499252 -963.209595
v 211.599518 -84.8963013 -1006.63501
v 178.21347 -91.7687988 -997.443604
v 141.039093 -90.1636047 -984.196533
v 100.760101 -81.9935608 -967.881836
v 58.2833252 -70.0330658 -951.570068
v 14.9415894 -57.1272659 -938.775024
v 205.165192 -97.9409332 -973.848267
v 173.091278 -107.373512 -966.552124
v 137.331085 -109.335442 -956.776001
v 98.9891052 -104.519249 -944.924072
v 59.2483521 -94.8649979 -931.920288
v 19.5906067 -82.9818039 -920.477783
v -18.2953491 -70.8971558 -912.634521
v 162.112396 93.4902039 -1042.83325
v 129.512848 68.181015 -1023.87439
v 125.484955 103.18441 -1021.33972
v 97.2694397 43.8517952 -1005.76636
v 88.3054199 78.9424591 -1003.36182
v 86.9810181 113.23288 -1000.9635
v 64.9101257 19.611908 -987.793457
v 53.9778748 54.3268738 -987.329224
v 48.0052185 88.352066 -984.567139
v 48.3754578 122.263794 -982.213379
v 32.6430054 -5.37133408 -968.747925
v 21.1342163 28.1538849 -970.947632
v 13.4176636 61.6203461 -969.688232
v 9.84689331 95.1300507 -966.414185
v 11.2041016 129.196411 -965.856812
v 0.154907227 -29.774437 -947.431641
v -11.4654236 0.321323395 -952.648438
v -19.7705688 32.5439072 -953.774658
v -25.0152283 65.9472275 -951.772827
v -27.0238647 100.096443 -949.883667
v -24.6804199 134.58255 -952.060547
v -33.2901306 -50.3569717 -922.573975
v -45.5328369 -25.8022385 -930.344238
v -54.7615356 3.16433716 -934.718262
v -61.0003967 35.8388519 -935.543823
v -64.2825012 70.7917557 -934.471436
v -64.2295227 106.208565 -935.359131
v -59.5032959 140.366058 -939.825195
v 167.542145 123.86644 -1043.45081
v 130.666534 133.212311 -1021.2345
v 172.912323 149.72171 -1040.59106
v 91.6324768 142.956299 -1001.16113
v 134.852997 158.199249 -1019.36377
v 175.032074 172.759186 -1032.53918
v 51.5870056 152.470184 -983.650391
v 94.0612488 167.870636 -1001.3075
v 135.083038 180.796326 -1014.29236
v 173.392365 193.457336 -1019.67261
v 11.6222534 160.560791 -967.968262
v 51.5757141 178.307617 -984.439087
v 92.2840881 191.065216 -997.797363
v 131.370514 201.961182 -1003.95007
v 168.100189 212.093445 -1001.90039
v -28.5942688 167.107056 -953.732422
v 7.22665405 188.210327 -967.966553
v 46.4220276 203.205627 -980.437012
v 85.8796387 213.923981 -987.241577
v 123.386627 222.422668 -986.583374
v 158.55954 229.442474 -979.717285
v 155.899445 245.615173 -953.480591
v 117.994659 241.005096 -964.091064
v 117.627472 255.518341 -939.762085
v 79.2644653 234.370148 -970.085449
v 76.261322 250.520142 -949.815063
v 78.0272827 262.223785 -927.232788
v 39.3262024 225.085815 -969.953003
v 35.3112793 242.260529 -954.958984
v 34.7150879 255.34787 -936.63501
v 38.530426 264.412994 -915.40332
v -0.961334229 211.382416 -962.870239
v -5.4805603 229.763397 -953.568481
v -6.99676514 244.076385 -939.973511
v -5.21109009 255.042267 -922.857178
v 0.907318115 262.324707 -902.573853
v -39.2559509 191.125305 -950.587158
v -45.4475098 211.290497 -944.909912
v -47.8399353 227.651947 -935.57251
v -46.6633911 240.403229 -922.470581
v -41.5160217 249.690125 -906.179565
v -31.9677734 255.066956 -886.878662
v -73.7558289 163.963318 -935.924683
v -83.0677185 185.294769 -930.60376
v -87.1422119 203.603607 -923.022583
v -86.3292236 218.484924 -912.761597
v -80.9533997 229.743713 -899.749878
v -71.3129272 237.466095 -884.353516
v -58.1951294 241.302826 -866.692627
v -95.4520264 125.306847 -924.064819
v -100.08783 85.2919998 -919.783569
v -125.303192 108.179985 -907.450439
v -99.6410522 46.2373428 -918.561768
v -129.113312 64.6729126 -903.483398
v -147.831421 89.4895248 -888.517212
v -95.5018616 10.3262558 -917.080933
v -127.961273 24.8541126 -900.805908
v -150.829559 44.8166084 -883.999634
v -162.718872 69.625946 -865.91626
v -87.6498718 -21.1126251 -912.376953
v -122.504364 -10.2349777 -895.758545
v -148.779297 5.52182388 -878.649292
v -165.198212 25.2127876 -859.86084
v -170.519852 48.3577271 -839.31543
v -75.7358398 -47.6702194 -904.07959
v -112.249451 -40.5303116 -887.083252
v -141.568787 -28.9389877 -870.062256
v -161.990784 -13.6138458 -851.570068
v -172.220871 4.60302734 -831.099487
v -171.951248 25.5831757 -809.488403
v -59.2564087 -69.8589783 -893.021484
v -96.0916138 -66.4214706 -874.929688
v -127.623962 -59.3728943 -857.496216
v -151.697723 -48.6234512 -839.376953
v -166.453598 -34.7241936 -819.664917
v -171.391647 -17.9903526 -798.762817
v -167.723724 1.60111046 -778.384399
v -27.4902344 -88.0532608 -888.830566
v 12.6992493 -101.258537 -895.921753
v -33.5160522 -103.250389 -864.317383
v 53.2692261 -112.681755 -905.597778
v 8.44259644 -116.513206 -870.981079
v -35.7654114 -117.485023 -839.354492
v 93.2060852 -120.286003 -915.525391
v 49.5114136 -126.447533 -878.77478
v 6.89230347 -129.84082 -845.244873
v -34.1703796 -130.50528 -813.572266
v 131.913971 -122.082802 -925.08313
v 89.7267761 -131.54538 -887.146118
v 48.1317139 -137.798462 -852.289429
v 8.29364014 -141.311981 -819.59375
v -28.7756653 -141.189636 -788.182007
v 168.613312 -116.379524 -933.952271
v 129.033295 -129.915863 -895.995483
v 88.6132202 -139.866608 -860.399414
v 49.3092041 -146.564301 -826.94397
v 12.7108459 -149.4953 -795.218872
v -20.1040344 -147.332672 -765.005615
v 202.29422 -102.258354 -941.838257
v 166.875031 -119.44149 -905.150757
v 128.572052 -133.537231 -869.647339
v 89.8538513 -144.09668 -835.764404
v 53.0377502 -150.296173 -803.628418
v 19.7883911 -151.231506 -773.417969
v -9.15081787 -146.120972 -745.632324
v 238.351593 -75.6486893 -958.994873
v 267.724945 -43.9921494 -980.425659
v 238.715851 -67.6378021 -938.327026
v 289.313263 -10.5284538 -996.694458
v 268.079559 -33.6167603 -958.11853
v 234.295929 -57.6070633 -917.441162
v 305.490021 23.528244 -1006.83301
v 289.601715 0.313085556 -972.013916
v 263.661469 -21.8038406 -935.071655
v 226.709137 -44.5137787 -896.684937
v 318.472687 57.3641891 -1009.15234
v 306.17746 33.8677177 -979.002686
v 285.86734 12.3076897 -945.861328
v 256.469086 -7.64257812 -911.131592
v 217.935394 -27.5739899 -876.106445
v 329.897003 89.839386 -1002.37427
v 320.451141 66.7086639 -977.65686
v 304.011688 45.4326553 -949.070923
v 279.763458 27.0055847 -918.126343
v 247.83255 10.1882706 -886.869263
v 209.246857 -6.15832138 -856.39978
v 339.345978 120.098587 -986.305664
v 333.065582 98.7607574 -966.498169
v 319.533295 78.5350647 -943.108521
v 298.715302 61.4099503 -916.887939
v 271.005402 46.7499657 -889.585815
v 237.688324 33.0589752 -862.952637
v 200.875458 19.0748272 -837.637207
v 342.994781 151.212708 -970.279419
v 336.578156 176.772675 -961.149292
v 340.10202 159.54892 -938.756104
v 321.343964 197.220551 -953.310913
v 327.939606 185.015717 -930.18457
v 326.996735 168.027802 -911.083618
v 299.142487 213.326508 -948.297974
v 306.665619 205.367218 -924.483032
v 308.345612 193.169037 -905.282959
v 302.425507 177.792603 -888.196655
v 271.928925 226.089752 -945.69751
v 279.294708 222.235596 -921.583618
v 281.762726 213.654053 -902.122925
v 278.360504 201.996582 -885.251709
v 268.192169 187.684998 -868.826294
v 239.218719 236.045654 -944.754517
v 246.095428 236.380249 -921.332397
v 248.98465 231.240479 -901.521606
v 247.066071 222.240753 -884.126465
v 239.93222 210.513092 -867.786743
v 227.629852 196.486877 -851.033203
v 199.866058 243.626007 -945.23999
v 205.566742 247.948456 -922.863037
v 208.465424 246.637054 -903.183472
v 207.78653 240.318604 -885.314453
v 203.010956 230.390015 -868.180176
v 194.669708 217.84787 -851.173218
v 183.741608 203.298218 -833.894775
v 161.446075 254.965607 -929.751221
v 121.714935 263.399353 -916.730835
v 164.329437 258.025208 -908.243896
v 81.7096252 267.608612 -904.648193
v 123.132172 264.273743 -895.658813
v 164.622772 254.874969 -889.0177
v 41.9197083 267.604004 -892.492188
v 81.9388428 266.337921 -882.902466
v 121.534576 259.027649 -875.391724
v 161.574799 246.663818 -870.422852
v 4.48565674 262.571136 -878.567505
v 41.5871887 263.272156 -868.814453
v 79.0800171 258.068268 -860.224243
v 116.915558 247.895905 -854.179077
v 155.221466 234.13327 -850.847534
v -28.3146362 250.444183 -860.049805
v 3.90029907 253.22403 -850.845825
v 37.8722229 250.134247 -841.492188
v 73.1468811 242.342346 -833.978149
v 109.351349 231.158295 -829.857422
v 146.332367 217.850769 -829.824219
v -110.522949 150.255524 -916.875122
v -137.217194 133.716675 -896.494873
v -117.858551 171.51651 -908.1521
v -154.295685 114.493523 -873.257935
v -139.919586 154.17218 -883.983032
v -118.257446 188.938629 -897.583618
v -163.06369 92.4912491 -846.100952
v -151.405975 133.257538 -856.358276
v -135.28299 170.176575 -869.849121
v -112.716583 202.686096 -885.107544
v -165.143066 67.3698273 -814.91626
v -154.656372 108.322998 -824.135864
v -141.502228 147.076996 -837.599487
v -124.656219 182.343048 -853.908813
v -102.009979 212.813568 -870.447876
v -161.846924 39.1041298 -780.269775
v -151.889252 78.5329742 -787.049072
v -139.780731 118.388649 -799.332642
v -125.85379 156.545929 -816.323608
v -108.844238 190.783203 -835.363647
v -86.6565247 219.405029 -853.113525
v -69.508667 -86.9048309 -865.657471
v -74.2340088 -101.962486 -838.657593
v -104.694305 -83.7597122 -845.413086
v -73.312439 -116.113457 -811.82605
v -106.092377 -99.0291214 -816.576538
v -132.687561 -77.3892899 -826.150879
v -67.2782898 -128.489838 -784.299072
v -100.804352 -112.856224 -787.587158
v -129.660736 -93.0171738 -795.231079
v -152.13913 -67.4426651 -805.979614
v -56.6593933 -137.141052 -757.19458
v -89.871582 -123.455269 -757.428467
v -119.662628 -105.843239 -763.357788
v -144.331879 -82.6755829 -772.382202
v -161.971436 -53.4193192 -784.019531
v -42.2411804 -138.808014 -733.031982
v -74.1026611 -127.588036 -727.852295
v -104.112427 -112.583611 -729.916016
v -129.995361 -92.3246689 -736.969971
v -149.773834 -66.0805588 -747.480103
v -162.293549 -34.2570076 -761.165527
v 204.1185 -97.8881531 -919.449341
v 200.704987 -90.9342499 -898.374756
v 166.308746 -116.607475 -882.208618
v 193.434235 -80.0208206 -878.600342
v 161.04422 -109.466164 -861.768677
v 127.209015 -131.407135 -847.045288
v 184.348907 -63.8022995 -859.713989
v 152.825714 -96.0623398 -843.131714
v 121.661896 -122.60714 -827.022583
v 88.7969666 -141.281616 -813.278442
v 175.525848 -41.4948654 -841.520752
v 143.781464 -75.0816193 -825.446167
v 113.709381 -105.116554 -808.430664
v 83.7108459 -129.216003 -792.688477
v 52.5484009 -145.026245 -780.360596
v 168.185333 -12.8986855 -823.675781
v 136.131866 -45.8741455 -807.996216
v 105.705353 -77.6168671 -790.326904
v 76.5238342 -105.687096 -772.554321
v 47.8405762 -127.660179 -757.781738
v 19.274292 -141.336243 -748.312012
v 341.292389 130.133942 -951.85022
v 334.048492 139.50589 -920.421143
v 330.626678 110.233536 -931.692261
v 315.392792 150.586823 -893.414673
v 317.972565 122.818443 -900.931763
v 311.929596 93.7199707 -909.304321
v 285.366547 162.653076 -870.302856
v 294.066681 136.791321 -874.170776
v 294.173615 109.710968 -879.366577
v 286.026886 80.1969223 -884.993652
v 245.550934 174.145782 -849.317749
v 258.742401 150.711884 -849.793091
v 265.05484 125.803047 -851.996216
v 263.142792 98.4199142 -855.630371
v 253.346466 67.6878281 -859.70105
v 198.786407 183.543793 -828.491577
v 212.518524 162.551422 -825.614136
v 223.276581 139.998444 -824.757935
v 227.78891 114.741211 -826.328613
v 224.59079 86.0131149 -829.886963
v 214.697968 53.8257713 -834.05896
v -14.556488 58.0936394 -673.217407
v 6.93780518 91.7273026 -690.408569
v -30.8434448 88.6609955 -684.033569
v 29.3858337 122.18618 -712.180298
v -8.90795898 124.997139 -705.45874
v -43.7912903 120.813553 -705.901245
v 54.3352356 148.098755 -736.540405
v 14.760376 155.126953 -729.944214
v -20.1404419 157.119873 -730.893188
v -52.7601013 152.807098 -736.429932
v 82.7240601 168.725006 -762.08667
v 41.7095947 178.856537 -755.486816
v 5.92938232 185.025543 -756.480591
v -26.8743591 186.815948 -762.766846
v -58.1086121 182.510681 -771.537842
v 114.323273 184.275482 -787.600952
v 72.4945679 196.57196 -780.970947
v 35.3641968 205.845184 -781.550293
v 1.66052246 211.65451 -787.613647
v -30.0498047 213.170135 -797.142944
v -60.7135315 208.163177 -806.79126
v 148.564728 195.608276 -811.692261
v 107.527191 209.24704 -805.88147
v 69.526825 220.872223 -805.793945
v 34.2197876 229.671417 -811.074829
v 1.04971313 234.84967 -819.950317
v -30.717926 234.989899 -830.107666
v -61.1056213 228.087006 -838.86084
v 17.4405212 51.5529175 -682.823608
v 50.4442444 47.1675301 -702.524902
v 43.1699829 86.2129211 -703.852539
v 83.0426331 43.6896744 -728.484375
v 79.7660522 82.4476013 -725.86731
v 69.2309875 115.830299 -727.436279
v 114.078094 39.8899574 -756.643677
v 115.933929 79.0210419 -751.587036
v 109.335236 111.27626 -749.475342
v 97.2463684 140.052582 -752.294189
v 143.434662 34.3115387 -784.54126
v 150.392609 73.7010574 -778.604004
v 149.159637 106.237946 -774.33313
v 140.6091 133.842957 -773.802612
v 128.102203 158.976562 -777.965454
v 172.196075 26.9477253 -811.261719
v 183.138092 65.1716995 -805.91687
v 187.713226 98.1669769 -800.983154
v 184.525238 126.260201 -798.34668
v 174.874603 150.64212 -799.254883
v 162.110382 173.2005 -803.615723
v -16.9640503 19.0660744 -665.394043
v -19.8981628 -18.0272293 -665.311523
v 17.0861206 11.665062 -680.526489
v -22.7063904 -52.3571396 -671.730469
v 15.0326538 -25.57061 -684.79248
v 49.6305542 6.52879143 -704.840942
v -23.836731 -83.5933456 -683.359497
v 12.2790222 -60.4405518 -693.918823
v 46.4396667 -31.5919495 -712.130371
v 79.6008911 2.19405365 -734.146362
v -21.9850464 -111.155983 -699.617432
v 10.838562 -92.6769714 -707.209717
v 43.1404114 -67.4055328 -722.971069
v 75.1246948 -36.8004303 -743.206665
v 107.891205 -2.3467617 -764.553955
v -16.9300232 -132.890167 -720.525024
v 12.9447632 -120.828941 -724.997437
v 42.7301331 -100.200645 -737.603027
v 72.8849487 -73.2582474 -755.398804
v 103.726044 -41.7627945 -775.383667
v 136.648407 -7.66342926 -794.264771
v -45.7860413 41.8962326 -666.012939
v -74.5800171 26.8538895 -667.125977
v -51.4430237 -1.24273872 -658.850342
v -100.254303 14.2618999 -676.703369
v -82.0557861 -17.9455566 -662.877075
v -56.1482544 -39.1835251 -661.406372
v -122.427307 5.31123924 -694.322388
v -108.510162 -30.050087 -676.533447
v -86.9490051 -54.9623413 -669.325317
v -58.4853821 -72.1002274 -671.224487
v -141.102631 0.641511917 -718.68103
v -130.624664 -36.7851105 -698.681885
v -112.588684 -65.0479202 -687.122559
v -87.5792847 -85.6476364 -682.953125
v -56.8587036 -100.44445 -686.441284
v -156.440552 -0.0178508759 -747.555786
v -148.502258 -37.995842 -727.688477
v -133.300659 -68.9769974 -713.674561
v -111.03363 -92.8571167 -705.032593
v -83.000061 -110.512962 -702.229492
v -51.0819397 -123.47361 -706.815186
v -61.937439 75.4916992 -682.717896
v -73.2069397 110.003548 -710.325562
v -88.2784119 63.4123001 -689.28772
v -80.4504089 143.47699 -745.029541
v -96.8798828 99.7485809 -720.953613
v -110.68515 53.231411 -703.017822
v -84.9382629 173.944336 -782.539795
v -102.47467 134.075714 -758.037231
v -116.961731 90.6976776 -737.208618
v -130.092163 45.7016792 -723.394165
v -87.3459473 199.82074 -819.218506
v -106.596252 164.961029 -796.906982
v -121.709595 125.474846 -775.782593
v -135.105103 83.5770187 -759.211426
v -147.260803 41.2541847 -749.583618
g 
f 3 1 2
f 5 2 4
f 6 3 5
f 8 4 7
f 9 5 8
f 10 6 9
f 12 7 11
f 13 8 12
f 14 9 13
f 15 10 14
f 17 11 16
f 18 12 17
f 19 13 18
f 20 14 19
f 21 15 20
f 23 16 22
f 24 17 23
f 25 18 24
f 26 19 25
f 27 20 26
f 28 21 27
f 30 22 29
f 31 23 30
f 32 24 31
f 33 25 32
f 34 26 33
f 35 27 34
f 36 28 35
f 3 2 5
f 5 4 8
f 6 5 9
f 8 7 12
f 9 8 13
f 10 9 14
f 12 11 17
f 13 12 18
f 14 13 19
f 15 14 20
f 17 16 23
f 18 17 24
f 19 18 25
f 20 19 26
f 21 20 27
f 23 22 30
f 24 23 31
f 25 24 32
f 26 25 33
f 27 26 34
f 28 27 35
f 37 1 3
f 38 3 6
f 39 37 38
f 40 6 10
f 41 38 40
f 42 39 41
f 43 10 15
f 44 40 43
f 45 41 44
f 46 42 45
f 47 15 21
f 48 43 47
f 49 44 48
f 50 45 49
f 51 46 50
f 52 21 28
f 53 47 52
f 54 48 53
f 55 49 54
f 56 50 55
f 57 51 56
f 58 28 36
f 59 52 58
f 60 53 59
f 61 54 60
f 62 55 61
f 63 56 62
f 64 57 63
f 37 3 38
f 38 6 40
f 39 38 41
f 40 10 43
f 41 40 44
f 42 41 45
f 43 15 47
f 44 43 48
f 45 44 49
f 46 45 50
f 47 21 52
f 48 47 53
f 49 48 54
f 50 49 55
f 51 50 56
f 52 28 58
f 53 52 59
f 54 53 60
f 55 54 61
f 56 55 62
f 57 56 63
f 65 1 37
f 66 37 39
f 67 65 66
f 68 39 42
f 69 66 68
f 70 67 69
f 71 42 46
f 72 68 71
f 73 69 72
f 74 70 73
f 75 46 51
f 76 71 75
f 77 72 76
f 78 73 77
f 79 74 78
f 80 51 57
f 81 75 80
f 82 76 81
f 83 77 82
f 84 78 83
f 85 79 84
f 86 57 64
f 87 80 86
f 88 81 87
f 89 82 88
f 90 83 89
f 91 84 90
f 92 85 91
f 65 37 66
f 66 39 68
f 67 66 69
f 68 42 71
f 69 68 72
f 70 69 73
f 71 46 75
f 72 71 76
f 73 72 77
f 74 73 78
f 75 51 80
f 76 75 81
f 77 76 82
f 78 77 83
f 79 78 84
f 80 57 86
f 81 80 87
f 82 81 88
f 83 82 89
f 84 83 90
f 85 84 91
f 93 1 65
f 94 65 67
f 95 93 94
f 96 67 70
f 97 94 96
f 98 95 97
f 99 70 74
f 100 96 99
f 101 97 100
f 102 98 101
f 103 74 79
f 104 99 103
f 105 100 104
f 106 101 105
f 107 102 106
f 108 79 85
f 109 103 108
f 110 104 109
f 111 105 110
f 112 106 111
f 113 107 112
f 114 85 92
f 115 108 114
f 116 109 115
f 117 110 116
f 118 111 117
f 119 112 118
f 120 113 119
f 93 65 94
f 94 67 96
f 95 94 97
f 96 70 99
f 97 96 100
f 98 97 101
f 99 74 103
f 100 99 104
f 101 100 105
f 102 101 106
f 103 79 108
f 104 103 109
f 105 104 110
f 106 105 111
f 107 106 112
f 108 85 114
f 109 108 115
f 110 109 116
f 111 110 117
f 112 111 118
f 113 112 119
f 2 1 93
f 121 93 95
f 4 2 121
f 122 95 98
f 123 121 122
f 7 4 123
f 124 98 102
f 125 122 124
f 126 123 125
f 11 7 126
f 127 102 107
f 128 124 127
f 129 125 128
f 130 126 129
f 16 11 130
f 131 107 113
f 132 127 131
f 133 128 132
f 134 129 133
f 135 130 134
f 22 16 135
f 136 113 120
f 137 131 136
f 138 132 137
f 139 133 138
f 140 134 139
f 141 135 140
f 29 22 141
f 2 93 121
f 121 95 122
f 4 121 123
f 122 98 124
f 123 122 125
f 7 123 126
f 124 102 127
f 125 124 128
f 126 125 129
f 11 126 130
f 127 107 131
f 128 127 132
f 129 128 133
f 130 129 134
f 16 130 135
f 131 113 136
f 132 131 137
f 133 132 138
f 134 133 139
f 135 134 140
f 22 135 141
f 142 29 141
f 143 141 140
f 144 142 143
f 145 140 139
f 146 143 145
f 147 144 146
f 148 139 138
f 149 145 148
f 150 146 149
f 151 147 150
f 152 138 137
f 153 148 152
f 154 149 153
f 155 150 154
f 156 151 155
f 157 137 136
f 158 152 157
f 159 153 158
f 160 154 159
f 161 155 160
f 162 156 161
f 163 136 120
f 164 157 163
f 165 158 164
f 166 159 165
f 167 160 166
f 168 161 167
f 169 162 168
f 142 141 143
f 143 140 145
f 144 143 146
f 145 139 148
f 146 145 149
f 147 146 150
f 148 138 152
f 149 148 153
f 150 149 154
f 151 150 155
f 152 137 157
f 153 152 158
f 154 153 159
f 155 154 160
f 156 155 161
f 157 136 163
f 158 157 164
f 159 158 165
f 160 159 166
f 161 160 167
f 162 161 168
f 170 120 119
f 171 119 118
f 172 170 171
f 173 118 117
f 174 171 173
f 175 172 174
f 176 117 116
f 177 173 176
f 178 174 177
f 179 175 178
f 180 116 115
f 181 176 180
f 182 177 181
f 183 178 182
f 184 179 183
f 185 115 114
f 186 180 185
f 187 181 186
f 188 182 187
f 189 183 188
f 190 184 189
f 191 114 92
f 192 185 191
f 193 186 192
f 194 187 193
f 195 188 194
f 196 189 195
f 197 190 196
f 170 119 171
f 171 118 173
f 172 171 174
f 173 117 176
f 174 173 177
f 175 174 178
f 176 116 180
f 177 176 181
f 178 177 182
f 179 178 183
f 180 115 185
f 181 180 186
f 182 181 187
f 183 182 188
f 184 183 189
f 185 114 191
f 186 185 192
f 187 186 193
f 188 187 194
f 189 188 195
f 190 189 196
f 198 92 91
f 199 91 90
f 200 198 199
f 201 90 89
f 202 199 201
f 203 200 202
f 204 89 88
f 205 201 204
f 206 202 205
f 207 203 206
f 208 88 87
f 209 204 208
f 210 205 209
f 211 206 210
f 212 207 211
f 213 87 86
f 214 208 213
f 215 209 214
f 216 210 215
f 217 211 216
f 218 212 217
f 219 86 64
f 220 213 219
f 221 214 220
f 222 215 221
f 223 216 222
f 224 217 223
f 225 218 224
f 198 91 199
f 199 90 201
f 200 199 202
f 201 89 204
f 202 201 205
f 203 202 206
f 204 88 208
f 205 204 209
f 206 205 210
f 207 206 211
f 208 87 213
f 209 208 214
f 210 209 215
f 211 210 216
f 212 211 217
f 213 86 219
f 214 213 220
f 215 214 221
f 216 215 222
f 217 216 223
f 218 217 224
f 226 64 63
f 227 63 62
f 228 226 227
f 229 62 61
f 230 227 229
f 231 228 230
f 232 61 60
f 233 229 232
f 234 230 233
f 235 231 234
f 236 60 59
f 237 232 236
f 238 233 237
f 239 234 238
f 240 235 239
f 241 59 58
f 242 236 241
f 243 237 242
f 244 238 243
f 245 239 244
f 246 240 245
f 247 58 36
f 248 241 247
f 249 242 248
f 250 243 249
f 251 244 250
f 252 245 251
f 253 246 252
f 226 63 227
f 227 62 229
f 228 227 230
f 229 61 232
f 230 229 233
f 231 230 234
f 232 60 236
f 233 232 237
f 234 233 238
f 235 234 239
f 236 59 241
f 237 236 242
f 238 237 243
f 239 238 244
f 240 239 245
f 241 58 247
f 242 241 248
f 243 242 249
f 244 243 250
f 245 244 251
f 246 245 252
f 254 36 35
f 255 35 34
f 256 254 255
f 257 34 33
f 258 255 257
f 259 256 258
f 260 33 32
f 261 257 260
f 262 258 261
f 263 259 262
f 264 32 31
f 265 260 264
f 266 261 265
f 267 262 266
f 268 263 267
f 269 31 30
f 270 264 269
f 271 265 270
f 272 266 271
f 273 267 272
f 274 268 273
f 275 30 29
f 276 269 275
f 277 270 276
f 278 271 277
f 279 272 278
f 280 273 279
f 281 274 280
f 254 35 255
f 255 34 257
f 256 255 258
f 257 33 260
f 258 257 261
f 259 258 262
f 260 32 264
f 261 260 265
f 262 261 266
f 263 262 267
f 264 31 269
f 265 264 270
f 266 265 271
f 267 266 272
f 268 267 273
f 269 30 275
f 270 269 276
f 271 270 277
f 272 271 278
f 273 272 279
f 274 273 280
f 275 29 142
f 282 142 144
f 276 275 282
f 283 144 147
f 284 282 283
f 277 276 284
f 285 147 151
f 286 283 285
f 287 284 286
f 278 277 287
f 288 151 156
f 289 285 288
f 290 286 289
f 291 287 290
f 279 278 291
f 292 156 162
f 293 288 292
f 294 289 293
f 295 290 294
f 296 291 295
f 280 279 296
f 297 162 169
f 298 292 297
f 299 293 298
f 300 294 299
f 301 295 300
f 302 296 301
f 281 280 302
f 275 142 282
f 282 144 283
f 276 282 284
f 283 147 285
f 284 283 286
f 277 284 287
f 285 151 288
f 286 285 289
f 287 286 290
f 278 287 291
f 288 156 292
f 289 288 293
f 290 289 294
f 291 290 295
f 279 291 296
f 292 162 297
f 293 292 298
f 294 293 299
f 295 294 300
f 296 295 301
f 280 296 302
f 163 120 170
f 303 170 172
f 164 163 303
f 304 172 175
f 305 303 304
f 165 164 305
f 306 175 179
f 307 304 306
f 308 305 307
f 166 165 308
f 309 179 184
f 310 306 309
f 311 307 310
f 312 308 311
f 167 166 312
f 313 184 190
f 314 309 313
f 315 310 314
f 316 311 315
f 317 312 316
f 168 167 317
f 318 190 197
f 319 313 318
f 320 314 319
f 321 315 320
f 322 316 321
f 323 317 322
f 169 168 323
f 163 170 303
f 303 172 304
f 164 303 305
f 304 175 306
f 305 304 307
f 165 305 308
f 306 179 309
f 307 306 310
f 308 307 311
f 166 308 312
f 309 184 313
f 310 309 314
f 311 310 315
f 312 311 316
f 167 312 317
f 313 190 318
f 314 313 319
f 315 314 320
f 316 315 321
f 317 316 322
f 168 317 323
f 191 92 198
f 324 198 200
f 192 191 324
f 325 200 203
f 326 324 325
f 193 192 326
f 327 203 207
f 328 325 327
f 329 326 328
f 194 193 329
f 330 207 212
f 331 327 330
f 332 328 331
f 333 329 332
f 195 194 333
f 334 212 218
f 335 330 334
f 336 331 335
f 337 332 336
f 338 333 337
f 196 195 338
f 339 218 225
f 340 334 339
f 341 335 340
f 342 336 341
f 343 337 342
f 344 338 343
f 197 196 344
f 191 198 324
f 324 200 325
f 192 324 326
f 325 203 327
f 326 325 328
f 193 326 329
f 327 207 330
f 328 327 331
f 329 328 332
f 194 329 333
f 330 212 334
f 331 330 335
f 332 331 336
f 333 332 337
f 195 333 338
f 334 218 339
f 335 334 340
f 336 335 341
f 337 336 342
f 338 337 343
f 196 338 344
f 219 64 226
f 345 226 228
f 220 219 345
f 346 228 231
f 347 345 346
f 221 220 347
f 348 231 235
f 349 346 348
f 350 347 349
f 222 221 350
f 351 235 240
f 352 348 351
f 353 349 352
f 354 350 353
f 223 222 354
f 355 240 246
f 356 351 355
f 357 352 356
f 358 353 357
f 359 354 358
f 224 223 359
f 360 246 253
f 361 355 360
f 362 356 361
f 363 357 362
f 364 358 363
f 365 359 364
f 225 224 365
f 219 226 345
f 345 228 346
f 220 345 347
f 346 231 348
f 347 346 349
f 221 347 350
f 348 235 351
f 349 348 352
f 350 349 353
f 222 350 354
f 351 240 355
f 352 351 356
f 353 352 357
f 354 353 358
f 223 354 359
f 355 246 360
f 356 355 361
f 357 356 362
f 358 357 363
f 359 358 364
f 224 359 365
f 247 36 254
f 366 254 256
f 248 247 366
f 367 256 259
f 368 366 367
f 249 248 368
f 369 259 263
f 370 367 369
f 371 368 370
f 250 249 371
f 372 263 268
f 373 369 372
f 374 370 373
f 375 371 374
f 251 250 375
f 376 268 274
f 377 372 376
f 378 373 377
f 379 374 378
f 380 375 379
f 252 251 380
f 381 274 281
f 382 376 381
f 383 377 382
f 384 378 383
f 385 379 384
f 386 380 385
f 253 252 386
f 247 254 366
f 366 256 367
f 248 366 368
f 367 259 369
f 368 367 370
f 249 368 371
f 369 263 372
f 370 369 373
f 371 370 374
f 250 371 375
f 372 268 376
f 373 372 377
f 374 373 378
f 375 374 379
f 251 375 380
f 376 274 381
f 377 376 382
f 378 377 383
f 379 378 384
f 380 379 385
f 252 380 386
f 389 387 388
f 391 388 390
f 392 389 391
f 394 390 393
f 395 391 394
f 396 392 395
f 398 393 397
f 399 394 398
f 400 395 399
f 401 396 400
f 403 397 402
f 404 398 403
f 405 399 404
f 406 400 405
f 407 401 406
f 409 402 408
f 410 403 409
f 411 404 410
f 412 405 411
f 413 406 412
f 414 407 413
f 302 408 281
f 301 409 302
f 300 410 301
f 299 411 300
f 298 412 299
f 297 413 298
f 169 414 297
f 389 388 391
f 391 390 394
f 392 391 395
f 394 393 398
f 395 394 399
f 396 395 400
f 398 397 403
f 399 398 404
f 400 399 405
f 401 400 406
f 403 402 409
f 404 403 410
f 405 404 411
f 406 405 412
f 407 406 413
f 409 408 302
f 410 409 301
f 411 410 300
f 412 411 299
f 413 412 298
f 414 413 297
f 388 387 415
f 417 415 416
f 390 388 417
f 419 416 418
f 420 417 419
f 393 390 420
f 422 418 421
f 423 419 422
f 424 420 423
f 397 393 424
f 426 421 425
f 427 422 426
f 428 423 427
f 429 424 428
f 402 397 429
f 431 425 430
f 432 426 431
f 433 427 432
f 434 428 433
f 435 429 434
f 408 402 435
f 386 430 253
f 385 431 386
f 384 432 385
f 383 433 384
f 382 434 383
f 381 435 382
f 281 408 381
f 388 415 417
f 417 416 419
f 390 417 420
f 419 418 422
f 420 419 423
f 393 420 424
f 422 421 426
f 423 422 427
f 424 423 428
f 397 424 429
f 426 425 431
f 427 426 432
f 428 427 433
f 429 428 434
f 402 429 435
f 431 430 386
f 432 431 385
f 433 432 384
f 434 433 383
f 435 434 382
f 408 435 381
f 415 387 436
f 438 436 437
f 416 415 438
f 440 437 439
f 441 438 440
f 418 416 441
f 443 439 442
f 444 440 443
f 445 441 444
f 421 418 445
f 447 442 446
f 448 443 447
f 449 444 448
f 450 445 449
f 425 421 450
f 452 446 451
f 453 447 452
f 454 448 453
f 455 449 454
f 456 450 455
f 430 425 456
f 365 451 225
f 364 452 365
f 363 453 364
f 362 454 363
f 361 455 362
f 360 456 361
f 253 430 360
f 415 436 438
f 438 437 440
f 416 438 441
f 440 439 443
f 441 440 444
f 418 441 445
f 443 442 447
f 444 443 448
f 445 444 449
f 421 445 450
f 447 446 452
f 448 447 453
f 449 448 454
f 450 449 455
f 425 450 456
f 452 451 365
f 453 452 364
f 454 453 363
f 455 454 362
f 456 455 361
f 430 456 360
f 436 387 457
f 459 457 458
f 437 436 459
f 461 458 460
f 462 459 461
f 439 437 462
f 464 460 463
f 465 461 464
f 466 462 465
f 442 439 466
f 468 463 467
f 469 464 468
f 470 465 469
f 471 466 470
f 446 442 471
f 473 467 472
f 474 468 473
f 475 469 474
f 476 470 475
f 477 471 476
f 451 446 477
f 344 472 197
f 343 473 344
f 342 474 343
f 341 475 342
f 340 476 341
f 339 477 340
f 225 451 339
f 436 457 459
f 459 458 461
f 437 459 462
f 461 460 464
f 462 461 465
f 439 462 466
f 464 463 468
f 465 464 469
f 466 465 470
f 442 466 471
f 468 467 473
f 469 468 474
f 470 469 475
f 471 470 476
f 446 471 477
f 473 472 344
f 474 473 343
f 475 474 342
f 476 475 341
f 477 476 340
f 451 477 339
f 457 387 389
f 478 389 392
f 458 457 478
f 479 392 396
f 480 478 479
f 460 458 480
f 481 396 401
f 482 479 481
f 483 480 482
f 463 460 483
f 484 401 407
f 485 481 484
f 486 482 485
f 487 483 486
f 467 463 487
f 488 407 414
f 489 484 488
f 490 485 489
f 491 486 490
f 492 487 491
f 472 467 492
f 323 414 169
f 322 488 323
f 321 489 322
f 320 490 321
f 319 491 320
f 318 492 319
f 197 472 318
f 457 389 478
f 478 392 479
f 458 478 480
f 479 396 481
f 480 479 482
f 460 480 483
f 481 401 484
f 482 481 485
f 483 482 486
f 463 483 487
f 484 407 488
f 485 484 489
f 486 485 490
f 487 486 491
f 467 487 492
f 488 414 323
f 489 488 322
f 490 489 321
f 491 490 320
f 492 491 319
f 472 492 318
