# File exported by Houdini 20.5.445 (www.sidefx.com)
# 492 points
# 2940 vertices
# 980 primitives
# Bounds: [-109.450134, -240.826141, -1064.33398] to [280.22406, 357.203247, -690.467041]
g 
v 110.9245 29.6284981 -1060.27612
v 103.709839 71.7885742 -1058.66345
v 126.680786 42.5973854 -1063.92322
v 97.4974365 113.325562 -1054.89783
v 122.226135 89.7274933 -1060.42395
v 141.994629 55.0933418 -1063.48486
v 92.3009033 153.62059 -1049.25867
v 118.165649 134.157761 -1053.60352
v 138.949585 105.753738 -1056.83533
v 155.682068 67.7766724 -1058.58862
v 87.215271 191.971924 -1041.09021
v 113.82428 175.901443 -1043.75439
v 135.395264 151.947968 -1046.04688
v 152.903442 120.365097 -1048.18384
v 167.059082 80.7825012 -1049.33484
v 81.6487427 228.335419 -1030.85193
v 108.753235 215.223053 -1032.00354
v 131.291138 194.692078 -1033.15588
v 149.812683 167.251511 -1034.81177
v 164.839172 133.481567 -1036.55981
v 177.085693 93.8015594 -1037.61646
v 75.6730347 262.591034 -1019.72229
v 102.923645 252.565948 -1020.16589
v 126.677429 235.271271 -1020.48206
v 146.706482 210.930786 -1021.44348
v 163.14624 180.539001 -1022.86133
v 176.393005 145.353149 -1024.32251
v 187.509399 106.700485 -1025.32263
v 69.7443848 294.070129 -1008.13818
v 96.3583374 287.870972 -1008.52405
v 121.229553 274.42392 -1008.51025
v 143.263672 253.330658 -1008.98779
v 161.880127 225.442154 -1009.94067
v 176.989014 192.503036 -1011.06677
v 189.109436 156.620667 -1012.18774
v 199.294067 119.634674 -1013.03186
v 127.265686 -5.99815369 -1061.88232
v 142.48822 3.76708603 -1064.33398
v 142.443665 -43.5241165 -1058.74683
v 156.326782 14.3561058 -1062.51831
v 156.27832 -34.4665985 -1059.81812
v 158.406494 -80.5417633 -1050.38171
v 168.387817 26.71661 -1056.72668
v 168.720337 -23.1429291 -1056.88086
v 171.105774 -69.8778076 -1050.62451
v 176.85614 -114.326767 -1036.60229
v 178.707825 41.0419426 -1047.02942
v 180.090515 -8.75432587 -1050.52856
v 183.076538 -55.9163208 -1047.07361
v 189.474609 -100.48407 -1036.87964
v 198.035095 -142.614136 -1018.12756
v 188.947632 56.9538765 -1034.82727
v 190.96167 8.57543182 -1040.53931
v 194.937012 -38.3981857 -1040.18872
v 201.995422 -83.2938461 -1032.99207
v 211.269226 -125.408157 -1018.38501
v 220.080139 -164.104523 -995.85144
v 201.101807 74.0627136 -1021.1123
v 203.563354 28.0973167 -1027.4917
v 208.173035 -17.7475204 -1029.40222
v 215.585754 -62.572197 -1024.80811
v 225.212341 -105.001114 -1013.39185
v 233.829163 -143.501328 -994.388672
v 239.76178 -176.955551 -969.382446
v 107.214661 -4.58234406 -1054.42126
v 126.084473 -44.3510666 -1053.49609
v 106.785461 -38.0705795 -1043.48975
v 144.575195 -83.9906769 -1046.52332
v 129.063965 -79.8931732 -1039.32495
v 109.447937 -70.507782 -1027.73511
v 164.316772 -121.421341 -1033.2561
v 150.823914 -119.921677 -1028.27136
v 134.821594 -112.790176 -1020.19604
v 113.850281 -101.132736 -1008.03223
v 186.200623 -154.447861 -1014.32495
v 173.555481 -156.744202 -1010.55151
v 159.326172 -152.184692 -1005.20215
v 141.677307 -142.638168 -996.644653
v 118.401611 -128.761139 -984.786987
v 209.855957 -181.171143 -990.571289
v 198.081848 -188.50441 -986.733276
v 184.413025 -187.688065 -982.881836
v 167.924255 -180.52301 -977.270264
v 147.262451 -168.503616 -968.954102
v 121.404053 -152.485611 -958.194946
v 232.069824 -198.706146 -961.333984
v 222.242798 -212.223557 -956.069092
v 209.690857 -216.966919 -952.668823
v 193.572021 -213.598373 -949.040283
v 173.404236 -203.844666 -943.70459
v 149.282471 -189.468292 -936.491577
v 121.377014 -171.342316 -928.216797
v 89.6876831 41.0107002 -1052.55261
v 85.4506836 5.35312653 -1043.35242
v 67.4192505 49.8816261 -1041.49524
v 84.9028931 -28.1908417 -1029.52722
v 63.5786743 12.9879913 -1028.76819
v 45.2781982 57.2568016 -1027.68933
v 86.663269 -59.8113403 -1012.26709
v 62.8414917 -20.3601532 -1012.97852
v 41.9516602 19.8680382 -1012.09534
v 24.2992554 63.9680367 -1011.27148
v 89.4725342 -89.398819 -991.789551
v 63.6740112 -51.235527 -994.537476
v 40.9515381 -13.0917168 -994.594971
v 21.2337036 27.1010017 -993.388306
v 5.0925293 71.4621735 -992.951538
v 92.1677246 -116.588974 -967.452148
v 65.043457 -80.3067932 -972.527954
v 40.7026367 -43.3911438 -974.353394
v 19.5893555 -4.92281342 -973.980103
v 1.82299805 35.9843864 -973.082153
v -11.7662354 80.40625 -973.760986
v 92.967041 -140.177979 -938.149536
v 65.291687 -106.679733 -945.322388
v 39.6472168 -71.1405182 -949.459717
v 17.2102051 -33.5221558 -951.083252
v -1.40936279 6.19937897 -951.360474
v -16.0688477 47.844799 -952.023682
v -26.5481567 90.8631134 -954.847412
v 79.0908813 84.6988373 -1050.54565
v 54.8094482 94.3018341 -1039.97327
v 70.7944336 126.167969 -1047.37939
v 31.847229 101.772537 -1026.62354
v 45.4838867 135.369568 -1037.41113
v 64.3416748 165.384369 -1042.76794
v 10.9242554 109.040009 -1010.32446
v 22.1395264 143.239182 -1024.48035
v 38.3005981 174.620392 -1033.38318
v 58.6396484 203.007462 -1035.88367
v -7.71051025 117.493362 -991.586792
v 1.21276855 151.973099 -1007.97949
v 14.5856934 184.076416 -1020.2428
v 32.1390991 213.392578 -1026.65051
v 52.829895 239.754242 -1026.08533
v -24.0003052 127.38887 -971.22937
v -17.3248901 162.715714 -987.94397
v -6.59259033 195.877411 -1002.2854
v 7.96057129 226.131866 -1011.80676
v 26.1226196 252.806488 -1015.57825
v 46.9990845 275.818329 -1013.58948
v 49.3999023 311.749268 -998.391113
v 24.5269775 291.595581 -1001.23511
v 29.4822998 324.494995 -984.85791
v 3.94421387 267.003784 -999.310791
v 4.18157959 302.273376 -984.583862
v 10.3067017 331.840729 -966.919922
v -12.3721924 238.046417 -992.479004
v -15.361145 274.864136 -979.676758
v -14.447998 306.449677 -964.053345
v -7.91723633 332.336945 -944.677368
v -24.9509277 204.303391 -980.890869
v -29.8773804 242.181854 -971.210205
v -32.5666504 275.371155 -957.140137
v -31.2435913 303.637573 -939.495117
v -24.8926392 325.762268 -917.930542
v -33.9945679 166.537964 -964.951294
v -40.6496582 204.335098 -958.023804
v -45.2422485 239.14386 -946.899658
v -47.6669312 269.492432 -930.452759
v -46.324707 294.664337 -910.18103
v -40.885437 313.149689 -886.720947
v -39.0183716 125.448303 -947.052979
v -48.178772 161.42157 -940.198242
v -54.3195801 197.279678 -931.395142
v -58.8969727 230.117798 -917.242676
v -61.5610962 258.057617 -897.828247
v -60.8937988 280.279633 -875.631592
v -56.7736816 295.675018 -852.369629
v -35.1831665 75.5363312 -934.07373
v -22.5170288 28.6419716 -929.969971
v -42.8630981 62.6584587 -912.729858
v -5.96740723 -15.0871468 -927.434204
v -28.2557983 13.6390114 -906.817993
v -50.2657471 53.3390923 -889.246094
v 14.3175659 -56.1196365 -924.656006
v -10.0209961 -31.1744995 -901.881226
v -34.5209961 3.06097412 -881.357666
v -58.4606934 47.1016579 -863.13623
v 38.8287354 -94.5381165 -920.081421
v 11.8991089 -73.1737595 -895.832886
v -14.9572144 -42.5101547 -873.307983
v -41.9535522 -3.65421677 -852.817993
v -67.4602051 42.743084 -834.460449
v 67.2585449 -130.880295 -912.962402
v 38.9109497 -112.852661 -887.626709
v 9.06341553 -85.64431 -863.258545
v -20.7440796 -49.8098831 -841.011841
v -49.4500122 -7.45223618 -821.439209
v -74.7626953 39.1809578 -804.612793
v 98.9688721 -165.439423 -903.255127
v 71.6272583 -151.112396 -877.273438
v 40.4533081 -127.199951 -851.197632
v 7.38757324 -94.1848755 -826.861206
v -24.7886353 -53.841774 -805.845337
v -53.7112427 -9.51622009 -788.81897
v -77.0788574 35.2305336 -775.462646
v 136.609741 -196.382339 -900.431885
v 168.499512 -216.092789 -906.835327
v 149.452576 -213.582291 -870.192505
v 194.290588 -229.105225 -911.548462
v 183.258301 -231.871063 -874.591309
v 158.509155 -220.929947 -837.840332
v 214.468201 -234.734131 -914.308838
v 209.134216 -240.826141 -876.867554
v 192.942322 -236.009247 -840.306641
v 163.579102 -218.129288 -805.141724
v 230.042297 -231.992859 -917.117065
v 229.212402 -240.750519 -878.734863
v 219.178589 -240.056824 -841.879639
v 198.643982 -229.355377 -807.074341
v 165.490051 -206.344818 -775.439209
v 242.102234 -219.808838 -922.705322
v 245.137695 -231.126892 -883.468872
v 240.116333 -233.81604 -845.460327
v 225.847717 -228.077942 -810.097168
v 201.00293 -213.045441 -778.461426
v 164.731323 -187.118744 -751.744751
v 251.440613 -197.395828 -933.095825
v 257.889771 -210.555817 -894.278198
v 257.348022 -216.293625 -855.154297
v 248.106934 -214.598587 -818.033325
v 228.900513 -205.283173 -784.977295
v 199.469177 -187.846039 -757.344604
v 161.595215 -161.783051 -735.882568
v 253.886047 -162.551376 -957.928467
v 247.946167 -124.561127 -985.05896
v 265.626282 -141.918732 -947.080933
v 239.136292 -83.070816 -1003.54749
v 259.340637 -100.590942 -974.946411
v 274.391724 -116.962982 -936.168213
v 229.979248 -38.5330353 -1013.81775
v 250.954773 -56.6869431 -993.05896
v 268.126892 -73.0977631 -964.111206
v 278.875061 -88.6835175 -925.11084
v 222.312988 7.97366333 -1015.99414
v 242.239746 -10.1210632 -1001.32629
v 260.019897 -27.0302238 -980.814453
v 272.6474 -42.8627548 -951.953857
v 277.098022 -57.5514832 -913.665039
v 217.006226 55.7634773 -1011.92346
v 234.477356 38.7128029 -1000.75684
v 251.183105 21.8756905 -986.120239
v 264.089355 5.31742477 -965.589844
v 270.169128 -10.22789 -937.262207
v 267.112427 -24.0428009 -900.960815
v 213.384949 105.035187 -1004.7135
v 228.358704 90.297699 -994.741699
v 242.546997 74.6616821 -982.641113
v 253.877319 57.9380989 -967.127563
v 259.812927 41.0190163 -946.366577
v 258.223999 25.24617 -919.180664
v 248.638306 11.4745445 -886.356689
v 205.321106 155.373001 -1000.6416
v 192.945312 195.968994 -1000.33289
v 209.32959 189.621841 -988.870972
v 177.854919 233.039856 -999.811401
v 193.865723 231.373077 -989.682007
v 209.28064 220.682419 -976.522095
v 159.257935 265.419464 -998.935669
v 175.103882 267.53009 -989.722046
v 190.119385 261.490631 -978.190674
v 202.878113 246.777985 -962.119019
v 136.856506 291.297119 -997.917114
v 152.33374 297.828979 -988.631104
v 167.26355 295.362946 -978.185547
v 180.211853 285.230865 -964.029663
v 189.170654 266.977386 -944.771973
v 110.637451 309.229004 -997.161621
v 125.222656 320.891205 -986.753662
v 139.966736 322.753204 -976.159302
v 153.297119 316.136261 -963.082764
v 163.366577 302.259735 -945.866943
v 168.575012 281.169952 -924.127075
v 81.142334 318.536285 -996.405518
v 93.7649536 335.203949 -984.432495
v 107.322815 342.469208 -972.2677
v 120.676453 340.093994 -958.988525
v 131.850647 329.594757 -942.704346
v 139.267761 312.474792 -922.940796
v 141.862061 289.842102 -900.467896
v 60.526062 336.481598 -983.857178
v 40.4697266 346.98703 -967.627441
v 72.7722778 350.678497 -968.917969
v 20.9430542 350.65332 -946.884644
v 52.213501 357.203247 -949.60144
v 85.5290527 353.977448 -953.498291
v 1.67071533 346.854614 -921.21106
v 31.6148071 356.223328 -925.2677
v 63.8028564 355.850189 -930.382935
v 97.4696045 347.174408 -936.183594
v -17.75354 335.309937 -889.98584
v 10.0109253 347.511993 -894.758911
v 40.8703003 349.722961 -901.150024
v 73.4603882 344.186859 -908.002686
v 106.609558 331.885193 -915.173706
v -38.0275269 316.404663 -852.863647
v -13.798645 329.960083 -856.867798
v 14.8908081 334.981384 -863.540405
v 46.3581543 332.000702 -871.83313
v 79.0061646 323.147003 -880.694214
v 111.253784 309.012695 -890.226318
v -49.6312256 113.152527 -923.937866
v -58.6773682 104.243973 -900.374634
v -59.2840576 151.426971 -914.462036
v -67.6239624 98.2612152 -874.441528
v -69.1190796 144.63063 -887.81311
v -65.913269 188.044617 -901.778687
v -77.6616211 93.3876801 -845.635742
v -79.8019409 139.209488 -858.233398
v -77.289856 181.055267 -870.394775
v -71.5319824 220.169098 -882.896729
v -87.5391846 87.9980011 -814.457153
v -91.4706421 132.964478 -825.501465
v -89.93573 174.009201 -835.854736
v -84.4440918 211.573532 -846.160278
v -75.0231934 246.79892 -859.098267
v -93.3597412 80.9438629 -782.180298
v -101.154907 124.250229 -790.207642
v -102.418701 164.578415 -797.70105
v -98.109375 201.683685 -805.633301
v -88.6177979 235.836731 -817.005859
v -74.6591187 267.211365 -832.801514
v 110.002869 -186.000809 -870.626831
v 118.092041 -196.195511 -837.61792
v 78.1729126 -165.059296 -841.737793
v 122.828918 -196.012054 -804.928345
v 82.1757202 -167.798889 -808.085205
v 42.8705444 -133.924698 -814.578491
v 124.547791 -186.577759 -774.036621
v 83.803772 -160.655334 -776.767456
v 43.6854858 -129.676041 -781.694336
v 6.24871826 -94.0779572 -790.688477
v 124.129456 -169.308105 -747.525146
v 83.3362427 -144.948196 -748.415771
v 43.0336914 -116.026169 -752.540527
v 4.49102783 -83.4210281 -759.357056
v -28.7721558 -47.5404739 -771.210693
v 122.01947 -144.964233 -727.830933
v 81.3366089 -121.615479 -725.257935
v 40.9206543 -93.73349 -727.045166
v 2.19055176 -63.1742401 -732.37915
v -32.3133545 -30.7293205 -741.670532
v -59.0516357 2.78979492 -756.346924
v 265.231384 -179.653931 -916.924438
v 275.246643 -156.22789 -903.639038
v 269.470093 -189.069473 -875.415161
v 280.22406 -129.032547 -891.841675
v 275.611084 -162.772568 -861.210693
v 264.910461 -191.333313 -835.424194
v 278.473572 -98.0540619 -881.079346
v 274.426941 -132.658813 -849.486206
v 264.891907 -161.997025 -821.281006
v 249.580383 -186.254349 -798.523438
v 268.037659 -62.7472076 -870.658447
v 264.160645 -97.2973175 -839.540527
v 255.201538 -127.531601 -810.250732
v 241.023621 -152.922424 -785.058228
v 222.076172 -173.061874 -766.37793
v 247.332458 -22.7662582 -859.162476
v 242.345154 -55.1915588 -829.855957
v 233.302307 -85.1286469 -801.005493
v 219.948853 -111.484543 -774.976074
v 202.636047 -133.269318 -753.965454
v 182.653259 -150.041229 -740.344238
v 220.604492 141.714706 -989.936035
v 223.632507 174.736862 -975.508789
v 233.885498 126.862595 -977.413208
v 220.137573 203.484894 -959.804932
v 232.697083 158.23291 -959.779785
v 243.288025 110.281723 -962.668091
v 208.43158 227.063934 -941.260742
v 223.206299 184.828323 -940.058716
v 235.586487 139.943954 -941.270508
v 247.509277 92.210968 -944.426147
v 187.99646 245.408813 -919.211548
v 203.917969 206.524704 -916.472168
v 217.86615 164.837646 -916.376465
v 231.204834 120.426483 -918.453369
v 244.929077 73.6985474 -920.730591
v 158.817383 258.817535 -893.285278
v 173.788879 223.791092 -888.210205
v 188.003845 185.342712 -885.988647
v 202.644287 144.047379 -886.706421
v 218.30011 100.54277 -889.052734
v 233.87561 55.9387703 -889.788818
v -24.3336792 136.352737 -701.964478
v -11.1099243 164.734085 -716.89563
v -49.2260132 169.329376 -700.346924
v 9.53033447 191.775513 -739.45459
v -30.9459839 200.5345 -719.743652
v -64.3759155 201.23735 -707.627441
v 35.329834 217.148224 -768.37146
v -5.55432129 228.748779 -747.691772
v -40.7350464 233.319763 -732.467041
v -71.4937744 229.99646 -724.297363
v 64.2420044 239.766479 -801.158569
v 23.694458 253.946533 -781.334473
v -12.1436768 261.211426 -765.471313
v -44.2184448 262.045258 -753.969849
v -72.6730957 254.124603 -749.296265
v 93.6792603 259.427155 -835.399414
v 54.5957031 275.635834 -817.646729
v 18.5083618 285.386688 -802.863037
v -14.4203491 289.326538 -790.720215
v -44.055603 285.745483 -782.517822
v -69.3935547 273.433807 -780.600708
v 120.454895 276.262207 -869.034546
v 84.7536621 294.041992 -854.456909
v 49.7348022 306.043732 -841.788696
v 16.3342285 312.600159 -830.72583
v -14.4558716 312.587891 -821.674683
v -41.4459229 304.273132 -816.070923
v -63.328064 287.582886 -815.898926
v 14.2688599 120.725876 -717.951782
v 57.2226562 104.009827 -739.474487
v 31.0489502 149.802979 -737.793335
v 101.662231 85.6575623 -764.746826
v 75.6143188 133.801041 -763.553101
v 53.1990967 176.407272 -763.516479
v 145.168213 65.9097595 -792.905762
v 119.918274 115.870056 -792.424438
v 97.2125854 159.7789 -791.360474
v 79.1287842 200.43425 -793.490112
v 185.921021 46.0293465 -823.216431
v 162.438477 96.219986 -823.490479
v 140.507629 141.348511 -821.837524
v 122.139771 182.798859 -821.865112
v 107.288513 221.892517 -826.042969
v 221.391052 27.5703506 -854.713013
v 201.443176 75.876236 -856.140137
v 181.890747 121.458542 -854.435059
v 164.013672 164.080215 -852.864746
v 148.837402 203.97731 -854.326538
v 135.054382 241.397491 -859.717285
v -7.05792236 97.137085 -701.15564
v 16.0197144 55.7613182 -702.952637
v 37.4076538 76.7131195 -718.653442
v 41.8070679 11.7449417 -704.964478
v 63.6702881 31.2733994 -720.291504
v 83.2168579 55.7568626 -740.31958
v 70.0534058 -34.0643311 -707.582886
v 91.8022461 -15.4848175 -721.823853
v 111.087219 7.35434723 -741.452148
v 128.761536 34.3314896 -765.200439
v 100.58075 -79.6256714 -712.203125
v 122.054199 -62.3240356 -724.250854
v 141.170654 -40.8042374 -742.956665
v 158.020996 -15.5211143 -766.288452
v 172.942749 13.3156395 -793.274902
v 131.983459 -122.883377 -720.988525
v 153.072144 -107.699295 -729.309204
v 172.56366 -88.0254669 -746.139771
v 189.310486 -64.1366882 -768.733398
v 203.026428 -36.6271591 -795.402588
v 213.764587 -6.0269165 -824.643433
v -48.6314697 127.76329 -691.734375
v -66.3933105 118.689453 -690.467041
v -29.2942505 84.9377594 -692.213867
v -78.4252319 108.112701 -697.743652
v -45.2689819 72.6821899 -692.071167
v -4.96948242 41.4307976 -694.860229
v -85.8041382 94.6408844 -711.897705
v -56.446106 59.1740761 -699.461914
v -19.973877 26.8756332 -695.393921
v 21.8790894 -4.09981155 -697.989014
v -88.3592529 78.116806 -730.785156
v -62.9221191 43.4463463 -713.252686
v -29.9197388 10.6659241 -703.615356
v 8.81835938 -20.7025948 -700.539307
v 52.0969238 -51.3147888 -703.046265
v -85.7196045 58.3389397 -751.989746
v -64.1308594 24.953949 -732.373657
v -34.2564697 -8.22970581 -719.212646
v 2.29650879 -39.8190918 -712.066406
v 42.7496948 -70.4144135 -709.68396
v 86.1211548 -98.8693085 -712.228882
v -74.0233765 162.565399 -694.058472
v -88.1802979 193.447006 -706.205811
v -90.3425903 153.767914 -698.924316
v -93.6293335 219.20784 -727.501953
v -102.606201 182.301071 -716.580566
v -100.087646 141.682724 -712.760254
v -91.9819336 240.108734 -756.746216
v -105.396423 205.144226 -742.555664
v -109.450134 167.475647 -735.847412
v -103.977844 125.806229 -733.12085
v -84.6455078 256.413727 -792.611328
v -99.8060303 223.183258 -776.421875
v -108.083008 187.472397 -766.821045
v -108.828491 148.65126 -761.590454
v -101.758789 106.03273 -757.039917
g 
f 3 1 2
f 5 2 4
f 6 3 5
f 8 4 7
f 9 5 8
f 10 6 9
f 12 7 11
f 13 8 12
f 14 9 13
f 15 10 14
f 17 11 16
f 18 12 17
f 19 13 18
f 20 14 19
f 21 15 20
f 23 16 22
f 24 17 23
f 25 18 24
f 26 19 25
f 27 20 26
f 28 21 27
f 30 22 29
f 31 23 30
f 32 24 31
f 33 25 32
f 34 26 33
f 35 27 34
f 36 28 35
f 3 2 5
f 5 4 8
f 6 5 9
f 8 7 12
f 9 8 13
f 10 9 14
f 12 11 17
f 13 12 18
f 14 13 19
f 15 14 20
f 17 16 23
f 18 17 24
f 19 18 25
f 20 19 26
f 21 20 27
f 23 22 30
f 24 23 31
f 25 24 32
f 26 25 33
f 27 26 34
f 28 27 35
f 37 1 3
f 38 3 6
f 39 37 38
f 40 6 10
f 41 38 40
f 42 39 41
f 43 10 15
f 44 40 43
f 45 41 44
f 46 42 45
f 47 15 21
f 48 43 47
f 49 44 48
f 50 45 49
f 51 46 50
f 52 21 28
f 53 47 52
f 54 48 53
f 55 49 54
f 56 50 55
f 57 51 56
f 58 28 36
f 59 52 58
f 60 53 59
f 61 54 60
f 62 55 61
f 63 56 62
f 64 57 63
f 37 3 38
f 38 6 40
f 39 38 41
f 40 10 43
f 41 40 44
f 42 41 45
f 43 15 47
f 44 43 48
f 45 44 49
f 46 45 50
f 47 21 52
f 48 47 53
f 49 48 54
f 50 49 55
f 51 50 56
f 52 28 58
f 53 52 59
f 54 53 60
f 55 54 61
f 56 55 62
f 57 56 63
f 65 1 37
f 66 37 39
f 67 65 66
f 68 39 42
f 69 66 68
f 70 67 69
f 71 42 46
f 72 68 71
f 73 69 72
f 74 70 73
f 75 46 51
f 76 71 75
f 77 72 76
f 78 73 77
f 79 74 78
f 80 51 57
f 81 75 80
f 82 76 81
f 83 77 82
f 84 78 83
f 85 79 84
f 86 57 64
f 87 80 86
f 88 81 87
f 89 82 88
f 90 83 89
f 91 84 90
f 92 85 91
f 65 37 66
f 66 39 68
f 67 66 69
f 68 42 71
f 69 68 72
f 70 69 73
f 71 46 75
f 72 71 76
f 73 72 77
f 74 73 78
f 75 51 80
f 76 75 81
f 77 76 82
f 78 77 83
f 79 78 84
f 80 57 86
f 81 80 87
f 82 81 88
f 83 82 89
f 84 83 90
f 85 84 91
f 93 1 65
f 94 65 67
f 95 93 94
f 96 67 70
f 97 94 96
f 98 95 97
f 99 70 74
f 100 96 99
f 101 97 100
f 102 98 101
f 103 74 79
f 104 99 103
f 105 100 104
f 106 101 105
f 107 102 106
f 108 79 85
f 109 103 108
f 110 104 109
f 111 105 110
f 112 106 111
f 113 107 112
f 114 85 92
f 115 108 114
f 116 109 115
f 117 110 116
f 118 111 117
f 119 112 118
f 120 113 119
f 93 65 94
f 94 67 96
f 95 94 97
f 96 70 99
f 97 96 100
f 98 97 101
f 99 74 103
f 100 99 104
f 101 100 105
f 102 101 106
f 103 79 108
f 104 103 109
f 105 104 110
f 106 105 111
f 107 106 112
f 108 85 114
f 109 108 115
f 110 109 116
f 111 110 117
f 112 111 118
f 113 112 119
f 2 1 93
f 121 93 95
f 4 2 121
f 122 95 98
f 123 121 122
f 7 4 123
f 124 98 102
f 125 122 124
f 126 123 125
f 11 7 126
f 127 102 107
f 128 124 127
f 129 125 128
f 130 126 129
f 16 11 130
f 131 107 113
f 132 127 131
f 133 128 132
f 134 129 133
f 135 130 134
f 22 16 135
f 136 113 120
f 137 131 136
f 138 132 137
f 139 133 138
f 140 134 139
f 141 135 140
f 29 22 141
f 2 93 121
f 121 95 122
f 4 121 123
f 122 98 124
f 123 122 125
f 7 123 126
f 124 102 127
f 125 124 128
f 126 125 129
f 11 126 130
f 127 107 131
f 128 127 132
f 129 128 133
f 130 129 134
f 16 130 135
f 131 113 136
f 132 131 137
f 133 132 138
f 134 133 139
f 135 134 140
f 22 135 141
f 142 29 141
f 143 141 140
f 144 142 143
f 145 140 139
f 146 143 145
f 147 144 146
f 148 139 138
f 149 145 148
f 150 146 149
f 151 147 150
f 152 138 137
f 153 148 152
f 154 149 153
f 155 150 154
f 156 151 155
f 157 137 136
f 158 152 157
f 159 153 158
f 160 154 159
f 161 155 160
f 162 156 161
f 163 136 120
f 164 157 163
f 165 158 164
f 166 159 165
f 167 160 166
f 168 161 167
f 169 162 168
f 142 141 143
f 143 140 145
f 144 143 146
f 145 139 148
f 146 145 149
f 147 146 150
f 148 138 152
f 149 148 153
f 150 149 154
f 151 150 155
f 152 137 157
f 153 152 158
f 154 153 159
f 155 154 160
f 156 155 161
f 157 136 163
f 158 157 164
f 159 158 165
f 160 159 166
f 161 160 167
f 162 161 168
f 170 120 119
f 171 119 118
f 172 170 171
f 173 118 117
f 174 171 173
f 175 172 174
f 176 117 116
f 177 173 176
f 178 174 177
f 179 175 178
f 180 116 115
f 181 176 180
f 182 177 181
f 183 178 182
f 184 179 183
f 185 115 114
f 186 180 185
f 187 181 186
f 188 182 187
f 189 183 188
f 190 184 189
f 191 114 92
f 192 185 191
f 193 186 192
f 194 187 193
f 195 188 194
f 196 189 195
f 197 190 196
f 170 119 171
f 171 118 173
f 172 171 174
f 173 117 176
f 174 173 177
f 175 174 178
f 176 116 180
f 177 176 181
f 178 177 182
f 179 178 183
f 180 115 185
f 181 180 186
f 182 181 187
f 183 182 188
f 184 183 189
f 185 114 191
f 186 185 192
f 187 186 193
f 188 187 194
f 189 188 195
f 190 189 196
f 198 92 91
f 199 91 90
f 200 198 199
f 201 90 89
f 202 199 201
f 203 200 202
f 204 89 88
f 205 201 204
f 206 202 205
f 207 203 206
f 208 88 87
f 209 204 208
f 210 205 209
f 211 206 210
f 212 207 211
f 213 87 86
f 214 208 213
f 215 209 214
f 216 210 215
f 217 211 216
f 218 212 217
f 219 86 64
f 220 213 219
f 221 214 220
f 222 215 221
f 223 216 222
f 224 217 223
f 225 218 224
f 198 91 199
f 199 90 201
f 200 199 202
f 201 89 204
f 202 201 205
f 203 202 206
f 204 88 208
f 205 204 209
f 206 205 210
f 207 206 211
f 208 87 213
f 209 208 214
f 210 209 215
f 211 210 216
f 212 211 217
f 213 86 219
f 214 213 220
f 215 214 221
f 216 215 222
f 217 216 223
f 218 217 224
f 226 64 63
f 227 63 62
f 228 226 227
f 229 62 61
f 230 227 229
f 231 228 230
f 232 61 60
f 233 229 232
f 234 230 233
f 235 231 234
f 236 60 59
f 237 232 236
f 238 233 237
f 239 234 238
f 240 235 239
f 241 59 58
f 242 236 241
f 243 237 242
f 244 238 243
f 245 239 244
f 246 240 245
f 247 58 36
f 248 241 247
f 249 242 248
f 250 243 249
f 251 244 250
f 252 245 251
f 253 246 252
f 226 63 227
f 227 62 229
f 228 227 230
f 229 61 232
f 230 229 233
f 231 230 234
f 232 60 236
f 233 232 237
f 234 233 238
f 235 234 239
f 236 59 241
f 237 236 242
f 238 237 243
f 239 238 244
f 240 239 245
f 241 58 247
f 242 241 248
f 243 242 249
f 244 243 250
f 245 244 251
f 246 245 252
f 254 36 35
f 255 35 34
f 256 254 255
f 257 34 33
f 258 255 257
f 259 256 258
f 260 33 32
f 261 257 260
f 262 258 261
f 263 259 262
f 264 32 31
f 265 260 264
f 266 261 265
f 267 262 266
f 268 263 267
f 269 31 30
f 270 264 269
f 271 265 270
f 272 266 271
f 273 267 272
f 274 268 273
f 275 30 29
f 276 269 275
f 277 270 276
f 278 271 277
f 279 272 278
f 280 273 279
f 281 274 280
f 254 35 255
f 255 34 257
f 256 255 258
f 257 33 260
f 258 257 261
f 259 258 262
f 260 32 264
f 261 260 265
f 262 261 266
f 263 262 267
f 264 31 269
f 265 264 270
f 266 265 271
f 267 266 272
f 268 267 273
f 269 30 275
f 270 269 276
f 271 270 277
f 272 271 278
f 273 272 279
f 274 273 280
f 275 29 142
f 282 142 144
f 276 275 282
f 283 144 147
f 284 282 283
f 277 276 284
f 285 147 151
f 286 283 285
f 287 284 286
f 278 277 287
f 288 151 156
f 289 285 288
f 290 286 289
f 291 287 290
f 279 278 291
f 292 156 162
f 293 288 292
f 294 289 293
f 295 290 294
f 296 291 295
f 280 279 296
f 297 162 169
f 298 292 297
f 299 293 298
f 300 294 299
f 301 295 300
f 302 296 301
f 281 280 302
f 275 142 282
f 282 144 283
f 276 282 284
f 283 147 285
f 284 283 286
f 277 284 287
f 285 151 288
f 286 285 289
f 287 286 290
f 278 287 291
f 288 156 292
f 289 288 293
f 290 289 294
f 291 290 295
f 279 291 296
f 292 162 297
f 293 292 298
f 294 293 299
f 295 294 300
f 296 295 301
f 280 296 302
f 163 120 170
f 303 170 172
f 164 163 303
f 304 172 175
f 305 303 304
f 165 164 305
f 306 175 179
f 307 304 306
f 308 305 307
f 166 165 308
f 309 179 184
f 310 306 309
f 311 307 310
f 312 308 311
f 167 166 312
f 313 184 190
f 314 309 313
f 315 310 314
f 316 311 315
f 317 312 316
f 168 167 317
f 318 190 197
f 319 313 318
f 320 314 319
f 321 315 320
f 322 316 321
f 323 317 322
f 169 168 323
f 163 170 303
f 303 172 304
f 164 303 305
f 304 175 306
f 305 304 307
f 165 305 308
f 306 179 309
f 307 306 310
f 308 307 311
f 166 308 312
f 309 184 313
f 310 309 314
f 311 310 315
f 312 311 316
f 167 312 317
f 313 190 318
f 314 313 319
f 315 314 320
f 316 315 321
f 317 316 322
f 168 317 323
f 191 92 198
f 324 198 200
f 192 191 324
f 325 200 203
f 326 324 325
f 193 192 326
f 327 203 207
f 328 325 327
f 329 326 328
f 194 193 329
f 330 207 212
f 331 327 330
f 332 328 331
f 333 329 332
f 195 194 333
f 334 212 218
f 335 330 334
f 336 331 335
f 337 332 336
f 338 333 337
f 196 195 338
f 339 218 225
f 340 334 339
f 341 335 340
f 342 336 341
f 343 337 342
f 344 338 343
f 197 196 344
f 191 198 324
f 324 200 325
f 192 324 326
f 325 203 327
f 326 325 328
f 193 326 329
f 327 207 330
f 328 327 331
f 329 328 332
f 194 329 333
f 330 212 334
f 331 330 335
f 332 331 336
f 333 332 337
f 195 333 338
f 334 218 339
f 335 334 340
f 336 335 341
f 337 336 342
f 338 337 343
f 196 338 344
f 219 64 226
f 345 226 228
f 220 219 345
f 346 228 231
f 347 345 346
f 221 220 347
f 348 231 235
f 349 346 348
f 350 347 349
f 222 221 350
f 351 235 240
f 352 348 351
f 353 349 352
f 354 350 353
f 223 222 354
f 355 240 246
f 356 351 355
f 357 352 356
f 358 353 357
f 359 354 358
f 224 223 359
f 360 246 253
f 361 355 360
f 362 356 361
f 363 357 362
f 364 358 363
f 365 359 364
f 225 224 365
f 219 226 345
f 345 228 346
f 220 345 347
f 346 231 348
f 347 346 349
f 221 347 350
f 348 235 351
f 349 348 352
f 350 349 353
f 222 350 354
f 351 240 355
f 352 351 356
f 353 352 357
f 354 353 358
f 223 354 359
f 355 246 360
f 356 355 361
f 357 356 362
f 358 357 363
f 359 358 364
f 224 359 365
f 247 36 254
f 366 254 256
f 248 247 366
f 367 256 259
f 368 366 367
f 249 248 368
f 369 259 263
f 370 367 369
f 371 368 370
f 250 249 371
f 372 263 268
f 373 369 372
f 374 370 373
f 375 371 374
f 251 250 375
f 376 268 274
f 377 372 376
f 378 373 377
f 379 374 378
f 380 375 379
f 252 251 380
f 381 274 281
f 382 376 381
f 383 377 382
f 384 378 383
f 385 379 384
f 386 380 385
f 253 252 386
f 247 254 366
f 366 256 367
f 248 366 368
f 367 259 369
f 368 367 370
f 249 368 371
f 369 263 372
f 370 369 373
f 371 370 374
f 250 371 375
f 372 268 376
f 373 372 377
f 374 373 378
f 375 374 379
f 251 375 380
f 376 274 381
f 377 376 382
f 378 377 383
f 379 378 384
f 380 379 385
f 252 380 386
f 389 387 388
f 391 388 390
f 392 389 391
f 394 390 393
f 395 391 394
f 396 392 395
f 398 393 397
f 399 394 398
f 400 395 399
f 401 396 400
f 403 397 402
f 404 398 403
f 405 399 404
f 406 400 405
f 407 401 406
f 409 402 408
f 410 403 409
f 411 404 410
f 412 405 411
f 413 406 412
f 414 407 413
f 302 408 281
f 301 409 302
f 300 410 301
f 299 411 300
f 298 412 299
f 297 413 298
f 169 414 297
f 389 388 391
f 391 390 394
f 392 391 395
f 394 393 398
f 395 394 399
f 396 395 400
f 398 397 403
f 399 398 404
f 400 399 405
f 401 400 406
f 403 402 409
f 404 403 410
f 405 404 411
f 406 405 412
f 407 406 413
f 409 408 302
f 410 409 301
f 411 410 300
f 412 411 299
f 413 412 298
f 414 413 297
f 388 387 415
f 417 415 416
f 390 388 417
f 419 416 418
f 420 417 419
f 393 390 420
f 422 418 421
f 423 419 422
f 424 420 423
f 397 393 424
f 426 421 425
f 427 422 426
f 428 423 427
f 429 424 428
f 402 397 429
f 431 425 430
f 432 426 431
f 433 427 432
f 434 428 433
f 435 429 434
f 408 402 435
f 386 430 253
f 385 431 386
f 384 432 385
f 383 433 384
f 382 434 383
f 381 435 382
f 281 408 381
f 388 415 417
f 417 416 419
f 390 417 420
f 419 418 422
f 420 419 423
f 393 420 424
f 422 421 426
f 423 422 427
f 424 423 428
f 397 424 429
f 426 425 431
f 427 426 432
f 428 427 433
f 429 428 434
f 402 429 435
f 431 430 386
f 432 431 385
f 433 432 384
f 434 433 383
f 435 434 382
f 408 435 381
f 415 387 436
f 438 436 437
f 416 415 438
f 440 437 439
f 441 438 440
f 418 416 441
f 443 439 442
f 444 440 443
f 445 441 444
f 421 418 445
f 447 442 446
f 448 443 447
f 449 444 448
f 450 445 449
f 425 421 450
f 452 446 451
f 453 447 452
f 454 448 453
f 455 449 454
f 456 450 455
f 430 425 456
f 365 451 225
f 364 452 365
f 363 453 364
f 362 454 363
f 361 455 362
f 360 456 361
f 253 430 360
f 415 436 438
f 438 437 440
f 416 438 441
f 440 439 443
f 441 440 444
f 418 441 445
f 443 442 447
f 444 443 448
f 445 444 449
f 421 445 450
f 447 446 452
f 448 447 453
f 449 448 454
f 450 449 455
f 425 450 456
f 452 451 365
f 453 452 364
f 454 453 363
f 455 454 362
f 456 455 361
f 430 456 360
f 436 387 457
f 459 457 458
f 437 436 459
f 461 458 460
f 462 459 461
f 439 437 462
f 464 460 463
f 465 461 464
f 466 462 465
f 442 439 466
f 468 463 467
f 469 464 468
f 470 465 469
f 471 466 470
f 446 442 471
f 473 467 472
f 474 468 473
f 475 469 474
f 476 470 475
f 477 471 476
f 451 446 477
f 344 472 197
f 343 473 344
f 342 474 343
f 341 475 342
f 340 476 341
f 339 477 340
f 225 451 339
f 436 457 459
f 459 458 461
f 437 459 462
f 461 460 464
f 462 461 465
f 439 462 466
f 464 463 468
f 465 464 469
f 466 465 470
f 442 466 471
f 468 467 473
f 469 468 474
f 470 469 475
f 471 470 476
f 446 471 477
f 473 472 344
f 474 473 343
f 475 474 342
f 476 475 341
f 477 476 340
f 451 477 339
f 457 387 389
f 478 389 392
f 458 457 478
f 479 392 396
f 480 478 479
f 460 458 480
f 481 396 401
f 482 479 481
f 483 480 482
f 463 460 483
f 484 401 407
f 485 481 484
f 486 482 485
f 487 483 486
f 467 463 487
f 488 407 414
f 489 484 488
f 490 485 489
f 491 486 490
f 492 487 491
f 472 467 492
f 323 414 169
f 322 488 323
f 321 489 322
f 320 490 321
f 319 491 320
f 318 492 319
f 197 472 318
f 457 389 478
f 478 392 479
f 458 478 480
f 479 396 481
f 480 479 482
f 460 480 483
f 481 401 484
f 482 481 485
f 483 482 486
f 463 483 487
f 484 407 488
f 485 484 489
f 486 485 490
f 487 486 491
f 467 487 492
f 488 414 323
f 489 488 322
f 490 489 321
f 491 490 320
f 492 491 319
f 472 492 318
