# File exported by Houdini 20.5.445 (www.sidefx.com)
# 492 points
# 2940 vertices
# 980 primitives
# Bounds: [-117.9935, -234.627213, -1068.28784] to [288.767426, 351.004333, -686.513184]
g 
v 101.259857 30.5096474 -1065.0614
v 92.3091125 72.5992432 -1061.05249
v 114.723236 41.5610771 -1067.70764
v 84.1827698 113.290512 -1053.745
v 108.167145 88.5150299 -1062.12146
v 127.897491 52.2346992 -1066.46021
v 77.1018982 152.609665 -1044.84802
v 102.44754 132.163452 -1053.07678
v 122.977997 102.632019 -1058.98157
v 140.07431 63.418232 -1061.78882
v 70.9687805 189.81282 -1034.60901
v 97.1001892 173.130341 -1041.56604
v 118.319244 148.27005 -1047.14502
v 135.710785 115.818695 -1051.48962
v 150.565216 75.5592957 -1053.55273
v 64.7865906 224.39978 -1022.29822
v 91.2165833 211.304611 -1027.37671
v 113.101288 190.428452 -1031.79736
v 131.066498 162.533676 -1036.0752
v 145.968781 128.345276 -1039.75122
v 159.298737 88.5205994 -1041.8833
v 58.0765686 256.598236 -1008.10742
v 84.2042542 247.059448 -1011.20471
v 106.948578 229.88681 -1014.0752
v 126.042816 205.519638 -1017.60388
v 141.829132 175.095596 -1021.59912
v 155.159698 140.006927 -1025.44946
v 167.84787 101.700409 -1028.2771
v 51.2277527 286.271362 -992.606812
v 76.20401 280.637756 -994.209351
v 99.76474 267.514221 -995.716797
v 120.61557 246.589539 -998.203247
v 138.236053 218.874588 -1001.74402
v 152.869781 186.252213 -1005.95044
v 165.570953 150.906723 -1010.29785
v 177.891144 114.461182 -1013.96326
v 118.715179 -6.66364288 -1067.0946
v 131.988556 1.23044586 -1068.28784
v 136.66806 -45.3768616 -1063.20276
v 144.205109 10.3376274 -1065.53467
v 149.424103 -37.7567444 -1062.98376
v 156.626251 -82.8210144 -1052.73169
v 155.150604 21.7251663 -1059.72412
v 161.113068 -27.3491402 -1059.27026
v 169.466095 -72.964325 -1051.82544
v 179.639984 -116.253647 -1036.43372
v 164.978485 35.8291092 -1050.99707
v 171.874054 -13.4169846 -1052.78223
v 181.684357 -59.4884109 -1048.06934
v 193.110321 -102.947693 -1035.28076
v 204.933014 -144.094482 -1015.56409
v 174.101166 52.1617165 -1039.07739
v 182.185577 4.00187492 -1043.50171
v 193.305145 -42.2345428 -1041.26855
v 206.36557 -86.0582275 -1031.54822
v 218.797455 -127.269089 -1013.91455
v 229.641327 -164.833603 -990.788574
v 184.474152 69.5548401 -1024.58521
v 193.285675 24.0849419 -1030.7959
v 205.148895 -21.2742653 -1030.62317
v 219.557953 -65.2611008 -1023.82861
v 232.781586 -106.563568 -1008.73975
v 243.123138 -144.000214 -986.876709
v 250.256317 -176.484955 -962.295654
v 100.363251 -2.74571037 -1060.61548
v 121.158417 -44.1383057 -1059.59241
v 102.479401 -35.2145615 -1050.93213
v 142.56192 -84.7908783 -1051.17725
v 126.658783 -78.4940414 -1046.49695
v 106.922089 -66.3046112 -1036.66052
v 166.081879 -122.404251 -1036.05078
v 151.490326 -119.277008 -1034.3916
v 134.556488 -109.706924 -1028.97302
v 113.060211 -95.1381378 -1018.34863
v 192.373199 -155.052185 -1015.3208
v 178.456085 -156.014755 -1015.57617
v 162.642609 -149.484406 -1013.65857
v 143.632416 -137.360474 -1007.51819
v 119.329315 -120.623322 -996.539307
v 219.477936 -181.279022 -989.639893
v 207.02121 -187.410355 -990.653809
v 191.893036 -184.684998 -991.040161
v 173.497894 -175.160049 -988.43042
v 150.998138 -160.615662 -981.676514
v 123.692719 -142.124527 -971.014648
v 243.177704 -197.716049 -958.32251
v 233.215424 -210.110123 -958.096436
v 219.720062 -213.175858 -959.549561
v 202.047699 -207.824265 -959.995361
v 180.005219 -195.811523 -957.197144
v 154.143097 -179.273483 -950.658813
v 125.064545 -159.525848 -941.511475
v 81.3782654 43.7031746 -1056.71619
v 79.8616028 9.34203339 -1049.42053
v 60.542572 53.6064873 -1043.90869
v 81.1842346 -22.9049988 -1037.47266
v 59.0429382 18.3195877 -1033.95361
v 39.4194641 61.4274101 -1027.84985
v 84.3551941 -53.0040894 -1021.75671
v 59.6497498 -13.3857574 -1020.57642
v 37.8241882 26.0368462 -1016.14648
v 18.7449036 68.1446686 -1009.65393
v 88.4898376 -80.724411 -1002.59265
v 61.3885803 -42.3715515 -1003.99463
v 37.5959167 -4.91223526 -1001.59766
v 16.9897766 33.3320122 -996.239258
v -0.475799561 74.4533844 -989.460205
v 92.4011536 -105.720963 -979.237793
v 63.6451111 -69.4777985 -983.454956
v 37.9138489 -33.4142036 -983.380615
v 15.6929016 3.05006409 -979.875854
v -2.87515259 40.8639412 -974.161499
v -17.6891174 81.1598816 -968.267456
v 94.7892151 -127.844482 -950.176758
v 65.1917419 -94.3159637 -956.443359
v 37.7500916 -59.8228989 -959.287109
v 13.6694031 -24.3485527 -958.500488
v -6.21755981 12.232338 -955.044556
v -21.6391296 50.0593987 -950.639771
v -32.6549988 89.2696686 -947.237671
v 68.9841614 86.6127014 -1050.6217
v 45.7743835 96.5724487 -1036.96167
v 58.4648132 126.771545 -1042.71472
v 23.6162415 104.006149 -1020.70142
v 34.0456238 136.021042 -1029.25073
v 49.9653625 164.747986 -1034.27466
v 3.17276001 110.02298 -1001.81116
v 11.5896301 142.715317 -1012.91711
v 24.926239 173.014725 -1021.0376
v 43.0518494 200.463364 -1024.79077
v -15.2214661 116.146622 -980.874634
v -8.54397583 149.093353 -993.593872
v 2.41873169 180.217468 -1004.53845
v 17.7041931 209.0578 -1011.62866
v 36.8455505 234.708344 -1013.29749
v -31.1723938 123.395752 -958.666016
v -26.1722717 156.836807 -971.580933
v -17.3188171 188.874954 -984.226318
v -4.6300354 218.826508 -994.006104
v 11.7182922 245.480652 -999.323486
v 30.7465515 268.237854 -998.62085
v 31.8456116 302.831604 -980.375366
v 10.0711365 282.379669 -983.821289
v 13.3129578 314.930603 -965.27832
v -8.02157593 257.446167 -981.236206
v -7.96243286 292.267517 -965.835205
v -4.20394897 322.39447 -946.424805
v -22.4059753 228.229248 -973.487183
v -24.3009949 264.602173 -961.146729
v -24.3472595 296.745422 -944.736938
v -20.9560242 323.873657 -923.734497
v -33.4535217 195.216644 -961.778931
v -37.1112976 231.888794 -952.205444
v -39.0951843 265.693542 -939.0177
v -39.7021179 295.088684 -920.467896
v -37.205658 318.953735 -897.189819
v -41.2084656 159.133911 -947.93396
v -47.3414001 194.878479 -939.170654
v -50.7080383 229.763641 -928.954712
v -53.2165222 261.397308 -913.487305
v -54.6372375 288.001221 -892.341675
v -53.4166565 308.404846 -867.250488
v -45.3460999 120.566818 -934.432251
v -54.7413635 153.964539 -924.012085
v -60.6377258 188.791718 -914.181519
v -64.4710999 222.604782 -901.425171
v -67.9860535 252.217102 -882.985596
v -70.4180603 275.957062 -860.017334
v -70.2137756 293.125366 -835.31604
v -40.964447 74.44487 -927.727417
v -28.105072 31.3338547 -929.331665
v -48.7795715 62.0029335 -906.498169
v -10.7173767 -8.83790588 -931.328125
v -33.7842102 16.4095726 -905.930786
v -56.8107605 52.6034279 -882.741577
v 11.5822449 -46.5415878 -931.602783
v -14.2767639 -25.2005234 -904.718628
v -39.8345032 5.41766739 -879.346924
v -65.4913025 46.0303764 -855.891724
v 38.5118103 -82.710556 -928.974365
v 10.6404724 -64.0086365 -901.194702
v -17.9760437 -37.3757324 -874.222778
v -46.433075 -2.13113022 -848.989502
v -74.0029602 41.361393 -826.136597
v 69.426239 -118.237778 -923.488159
v 41.2028503 -101.720367 -895.315308
v 10.6054382 -77.7069092 -866.940186
v -21.0530701 -46.0067825 -839.953857
v -51.7261658 -6.98197937 -815.723633
v -79.5336609 37.5794792 -795.137573
v 103.287933 -152.939072 -915.053101
v 76.8067322 -139.331635 -886.786743
v 46.2854309 -117.613113 -857.349609
v 12.9288025 -88.0351486 -828.6604
v -21.0091248 -51.6376495 -802.842773
v -52.518219 -10.2182426 -781.50061
v -78.9023132 33.3458252 -765.221924
v 142.260529 -184.51857 -914.175659
v 175.029694 -205.768661 -921.234985
v 156.377167 -202.32254 -883.222778
v 202.116486 -220.773514 -924.417358
v 190.510651 -221.946976 -887.569214
v 166.391266 -211.085907 -848.822998
v 223.828156 -228.430038 -923.844116
v 217.474762 -232.75679 -887.834351
v 200.99234 -227.33812 -850.885986
v 172.881805 -210.597672 -813.299561
v 240.649872 -227.49028 -921.890747
v 238.839935 -234.627213 -885.949463
v 228.14621 -233.12825 -850.116089
v 208.073456 -222.81987 -814.535278
v 176.904877 -201.757812 -780.320312
v 253.254242 -216.880524 -922.041992
v 255.66153 -226.720886 -885.421753
v 250.096954 -228.705307 -849.491943
v 236.041534 -223.076431 -814.806519
v 212.634918 -209.211487 -782.231812
v 178.669891 -185.634338 -753.162842
v 262.320221 -195.621567 -927.286499
v 268.619537 -207.601868 -890.49707
v 267.923676 -212.667648 -853.5
v 259.101349 -211.05838 -818.047485
v 241.199615 -202.549179 -785.486816
v 213.750763 -186.721039 -757.036011
v 177.362457 -163.085129 -733.711304
v 263.766693 -161.312439 -948.836914
v 256.45163 -123.953674 -977.124756
v 274.47757 -139.863342 -937.456299
v 245.139923 -83.7030869 -999.271118
v 266.043793 -99.2278595 -967.517944
v 281.80246 -114.489609 -926.663208
v 230.890594 -40.9052277 -1012.46851
v 253.630951 -57.2282944 -988.297363
v 272.113922 -71.9431305 -956.259888
v 284.506622 -86.7381897 -914.970215
v 216.442047 4.47602463 -1017.6864
v 239.404755 -12.7397766 -1000.00916
v 259.226776 -28.1159325 -975.524536
v 274.011932 -42.6592484 -943.151611
v 281.007111 -56.8214111 -902.485474
v 203.87381 51.5160027 -1015.03772
v 225.151642 34.8198395 -1002.64807
v 245.085236 18.8427353 -985.181396
v 260.739044 3.57685852 -960.591675
v 269.881378 -10.9866104 -928.427002
v 269.968414 -24.5061226 -889.60498
v 193.790619 99.911026 -1006.01868
v 211.894318 85.3833771 -996.301147
v 230.035492 70.1430054 -983.646851
v 245.279266 54.2092323 -966.026611
v 254.683807 38.3870888 -941.744263
v 256.713226 23.4076881 -910.939331
v 250.455658 9.89398193 -875.588013
v 181.167511 149.262939 -997.125977
v 167.053864 189.126358 -992.218994
v 183.708038 182.563431 -980.088745
v 151.885834 225.606506 -987.631836
v 167.05838 223.740494 -975.542969
v 183.518585 213.276566 -962.741089
v 134.150665 257.669556 -983.726685
v 148.74234 259.597534 -971.623413
v 163.876129 254.044281 -959.038452
v 178.16037 240.045776 -944.030151
v 113.067963 283.449738 -980.743774
v 127.218842 289.820312 -968.177246
v 141.675934 287.981323 -955.68811
v 155.118561 278.855347 -941.129639
v 165.479156 261.634766 -923.351807
v 88.4294739 301.263184 -978.92627
v 101.578278 312.887878 -965.239624
v 115.480743 315.398132 -952.198486
v 128.539398 310.02478 -937.703857
v 138.920074 297.535583 -920.532471
v 145.081329 277.671265 -900.484497
v 60.7775574 310.177368 -977.780151
v 71.754364 326.963196 -962.917725
v 84.1514587 334.950378 -948.319946
v 96.6495667 334.000427 -933.091553
v 107.238434 325.275024 -915.804565
v 114.527435 309.788147 -896.348389
v 117.664154 288.374146 -875.628418
v 40.8326111 327.619263 -963.282959
v 21.7110291 338.232056 -945.953979
v 51.2644958 342.653687 -945.994629
v 3.24862671 342.795105 -924.580811
v 31.2010193 350.067993 -925.97937
v 62.6114197 347.490356 -928.554077
v -15.2322693 340.588623 -898.674805
v 10.9871521 350.658936 -901.328125
v 40.7607117 351.004333 -905.014893
v 73.2052307 342.867126 -909.555664
v -34.4450989 331.088074 -867.851807
v -10.5378113 343.979126 -870.945435
v 17.4187927 346.965698 -875.753174
v 48.4295959 342.024963 -881.283936
v 81.2707825 329.809387 -887.873901
v -55.0066223 314.447266 -832.50769
v -34.4040222 328.679688 -833.997437
v -8.91702271 334.486755 -838.810303
v 20.5187683 332.130676 -845.69519
v 52.6211853 323.405212 -853.911621
v 85.5800476 308.719849 -863.804199
v -56.030304 108.787918 -912.447876
v -65.9523621 100.374969 -889.063965
v -66.679657 144.81485 -899.818481
v -76.2061462 94.6395721 -863.251099
v -78.0361023 139.052689 -873.975342
v -73.4988708 181.236877 -887.03125
v -87.1097107 90.0717926 -834.472412
v -90.2303772 134.690475 -845.289307
v -86.6117859 176.124619 -857.737427
v -78.8844299 215.01741 -869.983154
v -96.3885193 85.3207397 -803.241699
v -102.50235 129.694656 -813.617432
v -100.595856 170.943085 -825.215332
v -93.9124451 208.783646 -836.139282
v -83.8843689 243.536499 -847.016357
v -99.7833557 78.982193 -770.950195
v -110.810822 122.4552 -779.48584
v -112.930389 163.368286 -789.33374
v -108.774017 201.019989 -798.450684
v -99.8803406 234.972595 -807.750244
v -86.8423767 265.605255 -819.830688
v 116.763702 -174.194336 -881.9729
v 126.555267 -185.991821 -847.517944
v 86.375885 -154.891068 -849.990112
v 132.758636 -188.302414 -812.261597
v 92.4700623 -160.154739 -814.386353
v 52.2431946 -126.586441 -818.960327
v 136.337189 -182.063354 -778.300415
v 95.7296448 -156.291565 -780.237061
v 55.4268494 -125.335495 -783.886475
v 15.7012634 -90.3302689 -790.411011
v 138.041107 -168.306046 -748.533936
v 97.0166321 -144.245209 -748.715698
v 56.3818054 -115.229492 -751.857666
v 16.3947449 -82.4991302 -756.975952
v -21.2380066 -47.3723602 -766.121216
v 137.717987 -147.283585 -725.4823
v 96.5972595 -124.395615 -722.301636
v 55.4102478 -96.3896637 -723.397095
v 15.1040955 -65.2138977 -727.634277
v -22.8951111 -32.5289383 -734.92688
v -55.3022156 0.693977356 -747.355347
v 275.506317 -177.552719 -908.753296
v 284.560089 -153.779297 -894.249878
v 279.903168 -186.453827 -868.87207
v 288.767426 -126.510803 -881.878784
v 285.593842 -160.271805 -852.784058
v 275.797882 -188.521805 -830.295044
v 285.970367 -96.452301 -869.939697
v 284.325897 -130.572357 -839.702637
v 276.076752 -159.728058 -813.547485
v 261.720001 -183.961044 -794.375122
v 274.393951 -62.6282959 -858.404297
v 273.318329 -96.8151245 -827.865845
v 266.444427 -126.621628 -800.158447
v 253.776276 -151.746262 -777.266846
v 236.096222 -172.139572 -762.274048
v 252.555573 -24.0188332 -846.844238
v 250.553864 -56.4762573 -817.171387
v 243.81369 -86.3982544 -788.828125
v 232.19577 -112.637314 -764.025146
v 216.477448 -134.468689 -745.294434
v 197.994293 -151.551666 -735.091309
v 198.396881 135.641525 -987.277954
v 200.341705 167.882339 -968.119263
v 214.949615 121.110901 -975.712036
v 197.058868 196.559372 -947.946899
v 212.973114 151.844727 -954.033447
v 228.789154 105.029404 -961.254517
v 186.407318 221.156738 -925.50708
v 203.865509 178.623672 -930.342407
v 220.471832 134.236038 -936.651733
v 237.683258 87.7470093 -941.901367
v 166.548676 241.216309 -900.273193
v 185.385773 201.659363 -903.184692
v 203.129547 159.650848 -908.442139
v 221.16745 115.648483 -913.775391
v 239.206085 70.2680969 -915.519897
v 136.854706 256.816864 -872.13855
v 155.223297 221.020523 -871.956055
v 173.761017 181.889053 -874.953003
v 193.19986 140.178085 -879.646973
v 212.745209 96.9075623 -882.724487
v 232.213348 53.2847328 -881.513916
v -24.2068787 139.525253 -699.714111
v -16.1826477 168.586868 -712.152832
v -54.7061462 173.004929 -697.21167
v -1.29568481 195.593216 -730.421875
v -43.0362244 204.716721 -711.867188
v -75.4206238 204.863464 -702.121826
v 19.3690491 220.371704 -754.706787
v -23.2762756 232.726166 -734.125488
v -58.1245422 237.285736 -720.766968
v -86.4746399 233.727539 -715.68689
v 43.9269104 242.353729 -783.491455
v 1.54116821 257.459412 -762.817993
v -34.1697693 264.87146 -747.741821
v -64.5094299 265.651093 -738.673462
v -89.9067078 257.365784 -737.654053
v 70.6800842 261.066101 -814.472412
v 29.5618591 278.471558 -795.407471
v -6.71548462 288.52533 -780.672241
v -38.1077576 292.219177 -769.880615
v -65.071991 288.312439 -764.462891
v -87.0069885 275.316895 -766.491821
v 96.4054871 276.524261 -845.709229
v 58.7193298 295.636963 -829.599365
v 23.0762634 308.143494 -816.665161
v -9.29959106 314.474182 -806.423096
v -37.5509949 313.894653 -799.126099
v -61.2475891 304.898193 -796.404663
v -79.5085144 287.438232 -799.992676
v 15.3974915 122.625626 -714.187988
v 58.384613 103.989716 -733.687866
v 28.0647888 152.567383 -732.203125
v 102.742584 83.8578339 -757.046997
v 73.7121277 134.642151 -756.793945
v 45.4060974 178.894943 -754.585571
v 146.686066 63.1394463 -783.641235
v 118.547699 114.787018 -784.591797
v 91.6092834 160.424698 -782.741455
v 66.0568542 202.205933 -781.004517
v 188.20224 43.2768059 -812.854492
v 161.330048 93.8280487 -815.016724
v 135.89798 140.149063 -813.634033
v 111.541595 182.749847 -810.872681
v 89.8528748 222.7659 -810.166626
v 223.892853 25.3213882 -843.838745
v 200.218597 73.0275574 -847.512695
v 177.131805 118.721161 -846.97644
v 154.74881 162.052872 -843.656372
v 133.693878 202.756729 -840.619629
v 114.737518 241.005493 -840.876709
v -3.39614868 98.1509857 -697.620972
v 21.2397766 53.8624153 -696.148926
v 41.0431213 75.5737457 -712.634155
v 49.4828186 7.44394684 -695.721558
v 69.5812683 27.536911 -711.436401
v 86.8906555 52.8439217 -732.072388
v 80.9922791 -39.5018082 -697.481689
v 100.998077 -20.4676514 -711.19397
v 118.259491 2.94954681 -731.04126
v 133.266083 30.6813011 -755.255981
v 114.694733 -84.9997406 -703.389771
v 134.185638 -67.173584 -713.159424
v 151.691254 -45.2665405 -731.241699
v 166.471405 -19.4796638 -754.59021
v 178.599884 9.99440765 -782.01709
v 147.820282 -126.851807 -715.093994
v 167.448212 -111.40799 -720.168091
v 185.200592 -91.3362579 -734.711182
v 200.340912 -67.2664566 -756.452026
v 211.901337 -39.4581223 -782.873291
v 219.724213 -8.45720673 -812.514282
v -47.3443298 130.478821 -690.237915
v -65.0782166 120.355988 -688.324463
v -24.8809509 85.5251465 -688.163452
v -77.9972839 108.441956 -693.620361
v -40.9585876 72.3947906 -686.513184
v 1.22647095 39.0581779 -687.33667
v -86.2309265 93.9404907 -705.072021
v -52.39328 57.7580299 -692.195801
v -12.703949 23.9472618 -687.466919
v 31.2413635 -8.8216629 -689.008057
v -89.5131531 76.7706299 -721.258667
v -58.816925 41.1901894 -704.690308
v -21.1368103 7.52786255 -695.921997
v 20.3957825 -25.4435349 -692.750244
v 65.3614197 -57.0130463 -694.895142
v -87.3072815 56.4137306 -741.175537
v -60.0890198 22.2837715 -722.786621
v -24.7013245 -11.1520576 -711.681274
v 15.110321 -43.8368835 -705.583496
v 57.3933411 -75.3488464 -703.639893
v 101.751984 -103.890686 -706.440674
v -78.1483459 165.326431 -692.401001
v -97.0107727 196.512146 -703.027222
v -93.7832947 155.736465 -697.240479
v -105.931976 222.301315 -721.915161
v -110.200836 184.616211 -714.167847
v -103.718353 142.78595 -709.55127
v -106.195648 242.414825 -748.492065
v -115.999664 207.181793 -738.37561
v -116.738129 168.823898 -732.486572
v -108.39389 126.124939 -726.962158
v -98.8457336 257.078613 -781.818604
v -111.850861 224.167694 -769.784912
v -117.9935 188.229172 -762.067505
v -116.999054 148.775162 -754.949585
v -107.609711 105.160919 -747.154907
g 
f 3 1 2
f 5 2 4
f 6 3 5
f 8 4 7
f 9 5 8
f 10 6 9
f 12 7 11
f 13 8 12
f 14 9 13
f 15 10 14
f 17 11 16
f 18 12 17
f 19 13 18
f 20 14 19
f 21 15 20
f 23 16 22
f 24 17 23
f 25 18 24
f 26 19 25
f 27 20 26
f 28 21 27
f 30 22 29
f 31 23 30
f 32 24 31
f 33 25 32
f 34 26 33
f 35 27 34
f 36 28 35
f 3 2 5
f 5 4 8
f 6 5 9
f 8 7 12
f 9 8 13
f 10 9 14
f 12 11 17
f 13 12 18
f 14 13 19
f 15 14 20
f 17 16 23
f 18 17 24
f 19 18 25
f 20 19 26
f 21 20 27
f 23 22 30
f 24 23 31
f 25 24 32
f 26 25 33
f 27 26 34
f 28 27 35
f 37 1 3
f 38 3 6
f 39 37 38
f 40 6 10
f 41 38 40
f 42 39 41
f 43 10 15
f 44 40 43
f 45 41 44
f 46 42 45
f 47 15 21
f 48 43 47
f 49 44 48
f 50 45 49
f 51 46 50
f 52 21 28
f 53 47 52
f 54 48 53
f 55 49 54
f 56 50 55
f 57 51 56
f 58 28 36
f 59 52 58
f 60 53 59
f 61 54 60
f 62 55 61
f 63 56 62
f 64 57 63
f 37 3 38
f 38 6 40
f 39 38 41
f 40 10 43
f 41 40 44
f 42 41 45
f 43 15 47
f 44 43 48
f 45 44 49
f 46 45 50
f 47 21 52
f 48 47 53
f 49 48 54
f 50 49 55
f 51 50 56
f 52 28 58
f 53 52 59
f 54 53 60
f 55 54 61
f 56 55 62
f 57 56 63
f 65 1 37
f 66 37 39
f 67 65 66
f 68 39 42
f 69 66 68
f 70 67 69
f 71 42 46
f 72 68 71
f 73 69 72
f 74 70 73
f 75 46 51
f 76 71 75
f 77 72 76
f 78 73 77
f 79 74 78
f 80 51 57
f 81 75 80
f 82 76 81
f 83 77 82
f 84 78 83
f 85 79 84
f 86 57 64
f 87 80 86
f 88 81 87
f 89 82 88
f 90 83 89
f 91 84 90
f 92 85 91
f 65 37 66
f 66 39 68
f 67 66 69
f 68 42 71
f 69 68 72
f 70 69 73
f 71 46 75
f 72 71 76
f 73 72 77
f 74 73 78
f 75 51 80
f 76 75 81
f 77 76 82
f 78 77 83
f 79 78 84
f 80 57 86
f 81 80 87
f 82 81 88
f 83 82 89
f 84 83 90
f 85 84 91
f 93 1 65
f 94 65 67
f 95 93 94
f 96 67 70
f 97 94 96
f 98 95 97
f 99 70 74
f 100 96 99
f 101 97 100
f 102 98 101
f 103 74 79
f 104 99 103
f 105 100 104
f 106 101 105
f 107 102 106
f 108 79 85
f 109 103 108
f 110 104 109
f 111 105 110
f 112 106 111
f 113 107 112
f 114 85 92
f 115 108 114
f 116 109 115
f 117 110 116
f 118 111 117
f 119 112 118
f 120 113 119
f 93 65 94
f 94 67 96
f 95 94 97
f 96 70 99
f 97 96 100
f 98 97 101
f 99 74 103
f 100 99 104
f 101 100 105
f 102 101 106
f 103 79 108
f 104 103 109
f 105 104 110
f 106 105 111
f 107 106 112
f 108 85 114
f 109 108 115
f 110 109 116
f 111 110 117
f 112 111 118
f 113 112 119
f 2 1 93
f 121 93 95
f 4 2 121
f 122 95 98
f 123 121 122
f 7 4 123
f 124 98 102
f 125 122 124
f 126 123 125
f 11 7 126
f 127 102 107
f 128 124 127
f 129 125 128
f 130 126 129
f 16 11 130
f 131 107 113
f 132 127 131
f 133 128 132
f 134 129 133
f 135 130 134
f 22 16 135
f 136 113 120
f 137 131 136
f 138 132 137
f 139 133 138
f 140 134 139
f 141 135 140
f 29 22 141
f 2 93 121
f 121 95 122
f 4 121 123
f 122 98 124
f 123 122 125
f 7 123 126
f 124 102 127
f 125 124 128
f 126 125 129
f 11 126 130
f 127 107 131
f 128 127 132
f 129 128 133
f 130 129 134
f 16 130 135
f 131 113 136
f 132 131 137
f 133 132 138
f 134 133 139
f 135 134 140
f 22 135 141
f 142 29 141
f 143 141 140
f 144 142 143
f 145 140 139
f 146 143 145
f 147 144 146
f 148 139 138
f 149 145 148
f 150 146 149
f 151 147 150
f 152 138 137
f 153 148 152
f 154 149 153
f 155 150 154
f 156 151 155
f 157 137 136
f 158 152 157
f 159 153 158
f 160 154 159
f 161 155 160
f 162 156 161
f 163 136 120
f 164 157 163
f 165 158 164
f 166 159 165
f 167 160 166
f 168 161 167
f 169 162 168
f 142 141 143
f 143 140 145
f 144 143 146
f 145 139 148
f 146 145 149
f 147 146 150
f 148 138 152
f 149 148 153
f 150 149 154
f 151 150 155
f 152 137 157
f 153 152 158
f 154 153 159
f 155 154 160
f 156 155 161
f 157 136 163
f 158 157 164
f 159 158 165
f 160 159 166
f 161 160 167
f 162 161 168
f 170 120 119
f 171 119 118
f 172 170 171
f 173 118 117
f 174 171 173
f 175 172 174
f 176 117 116
f 177 173 176
f 178 174 177
f 179 175 178
f 180 116 115
f 181 176 180
f 182 177 181
f 183 178 182
f 184 179 183
f 185 115 114
f 186 180 185
f 187 181 186
f 188 182 187
f 189 183 188
f 190 184 189
f 191 114 92
f 192 185 191
f 193 186 192
f 194 187 193
f 195 188 194
f 196 189 195
f 197 190 196
f 170 119 171
f 171 118 173
f 172 171 174
f 173 117 176
f 174 173 177
f 175 174 178
f 176 116 180
f 177 176 181
f 178 177 182
f 179 178 183
f 180 115 185
f 181 180 186
f 182 181 187
f 183 182 188
f 184 183 189
f 185 114 191
f 186 185 192
f 187 186 193
f 188 187 194
f 189 188 195
f 190 189 196
f 198 92 91
f 199 91 90
f 200 198 199
f 201 90 89
f 202 199 201
f 203 200 202
f 204 89 88
f 205 201 204
f 206 202 205
f 207 203 206
f 208 88 87
f 209 204 208
f 210 205 209
f 211 206 210
f 212 207 211
f 213 87 86
f 214 208 213
f 215 209 214
f 216 210 215
f 217 211 216
f 218 212 217
f 219 86 64
f 220 213 219
f 221 214 220
f 222 215 221
f 223 216 222
f 224 217 223
f 225 218 224
f 198 91 199
f 199 90 201
f 200 199 202
f 201 89 204
f 202 201 205
f 203 202 206
f 204 88 208
f 205 204 209
f 206 205 210
f 207 206 211
f 208 87 213
f 209 208 214
f 210 209 215
f 211 210 216
f 212 211 217
f 213 86 219
f 214 213 220
f 215 214 221
f 216 215 222
f 217 216 223
f 218 217 224
f 226 64 63
f 227 63 62
f 228 226 227
f 229 62 61
f 230 227 229
f 231 228 230
f 232 61 60
f 233 229 232
f 234 230 233
f 235 231 234
f 236 60 59
f 237 232 236
f 238 233 237
f 239 234 238
f 240 235 239
f 241 59 58
f 242 236 241
f 243 237 242
f 244 238 243
f 245 239 244
f 246 240 245
f 247 58 36
f 248 241 247
f 249 242 248
f 250 243 249
f 251 244 250
f 252 245 251
f 253 246 252
f 226 63 227
f 227 62 229
f 228 227 230
f 229 61 232
f 230 229 233
f 231 230 234
f 232 60 236
f 233 232 237
f 234 233 238
f 235 234 239
f 236 59 241
f 237 236 242
f 238 237 243
f 239 238 244
f 240 239 245
f 241 58 247
f 242 241 248
f 243 242 249
f 244 243 250
f 245 244 251
f 246 245 252
f 254 36 35
f 255 35 34
f 256 254 255
f 257 34 33
f 258 255 257
f 259 256 258
f 260 33 32
f 261 257 260
f 262 258 261
f 263 259 262
f 264 32 31
f 265 260 264
f 266 261 265
f 267 262 266
f 268 263 267
f 269 31 30
f 270 264 269
f 271 265 270
f 272 266 271
f 273 267 272
f 274 268 273
f 275 30 29
f 276 269 275
f 277 270 276
f 278 271 277
f 279 272 278
f 280 273 279
f 281 274 280
f 254 35 255
f 255 34 257
f 256 255 258
f 257 33 260
f 258 257 261
f 259 258 262
f 260 32 264
f 261 260 265
f 262 261 266
f 263 262 267
f 264 31 269
f 265 264 270
f 266 265 271
f 267 266 272
f 268 267 273
f 269 30 275
f 270 269 276
f 271 270 277
f 272 271 278
f 273 272 279
f 274 273 280
f 275 29 142
f 282 142 144
f 276 275 282
f 283 144 147
f 284 282 283
f 277 276 284
f 285 147 151
f 286 283 285
f 287 284 286
f 278 277 287
f 288 151 156
f 289 285 288
f 290 286 289
f 291 287 290
f 279 278 291
f 292 156 162
f 293 288 292
f 294 289 293
f 295 290 294
f 296 291 295
f 280 279 296
f 297 162 169
f 298 292 297
f 299 293 298
f 300 294 299
f 301 295 300
f 302 296 301
f 281 280 302
f 275 142 282
f 282 144 283
f 276 282 284
f 283 147 285
f 284 283 286
f 277 284 287
f 285 151 288
f 286 285 289
f 287 286 290
f 278 287 291
f 288 156 292
f 289 288 293
f 290 289 294
f 291 290 295
f 279 291 296
f 292 162 297
f 293 292 298
f 294 293 299
f 295 294 300
f 296 295 301
f 280 296 302
f 163 120 170
f 303 170 172
f 164 163 303
f 304 172 175
f 305 303 304
f 165 164 305
f 306 175 179
f 307 304 306
f 308 305 307
f 166 165 308
f 309 179 184
f 310 306 309
f 311 307 310
f 312 308 311
f 167 166 312
f 313 184 190
f 314 309 313
f 315 310 314
f 316 311 315
f 317 312 316
f 168 167 317
f 318 190 197
f 319 313 318
f 320 314 319
f 321 315 320
f 322 316 321
f 323 317 322
f 169 168 323
f 163 170 303
f 303 172 304
f 164 303 305
f 304 175 306
f 305 304 307
f 165 305 308
f 306 179 309
f 307 306 310
f 308 307 311
f 166 308 312
f 309 184 313
f 310 309 314
f 311 310 315
f 312 311 316
f 167 312 317
f 313 190 318
f 314 313 319
f 315 314 320
f 316 315 321
f 317 316 322
f 168 317 323
f 191 92 198
f 324 198 200
f 192 191 324
f 325 200 203
f 326 324 325
f 193 192 326
f 327 203 207
f 328 325 327
f 329 326 328
f 194 193 329
f 330 207 212
f 331 327 330
f 332 328 331
f 333 329 332
f 195 194 333
f 334 212 218
f 335 330 334
f 336 331 335
f 337 332 336
f 338 333 337
f 196 195 338
f 339 218 225
f 340 334 339
f 341 335 340
f 342 336 341
f 343 337 342
f 344 338 343
f 197 196 344
f 191 198 324
f 324 200 325
f 192 324 326
f 325 203 327
f 326 325 328
f 193 326 329
f 327 207 330
f 328 327 331
f 329 328 332
f 194 329 333
f 330 212 334
f 331 330 335
f 332 331 336
f 333 332 337
f 195 333 338
f 334 218 339
f 335 334 340
f 336 335 341
f 337 336 342
f 338 337 343
f 196 338 344
f 219 64 226
f 345 226 228
f 220 219 345
f 346 228 231
f 347 345 346
f 221 220 347
f 348 231 235
f 349 346 348
f 350 347 349
f 222 221 350
f 351 235 240
f 352 348 351
f 353 349 352
f 354 350 353
f 223 222 354
f 355 240 246
f 356 351 355
f 357 352 356
f 358 353 357
f 359 354 358
f 224 223 359
f 360 246 253
f 361 355 360
f 362 356 361
f 363 357 362
f 364 358 363
f 365 359 364
f 225 224 365
f 219 226 345
f 345 228 346
f 220 345 347
f 346 231 348
f 347 346 349
f 221 347 350
f 348 235 351
f 349 348 352
f 350 349 353
f 222 350 354
f 351 240 355
f 352 351 356
f 353 352 357
f 354 353 358
f 223 354 359
f 355 246 360
f 356 355 361
f 357 356 362
f 358 357 363
f 359 358 364
f 224 359 365
f 247 36 254
f 366 254 256
f 248 247 366
f 367 256 259
f 368 366 367
f 249 248 368
f 369 259 263
f 370 367 369
f 371 368 370
f 250 249 371
f 372 263 268
f 373 369 372
f 374 370 373
f 375 371 374
f 251 250 375
f 376 268 274
f 377 372 376
f 378 373 377
f 379 374 378
f 380 375 379
f 252 251 380
f 381 274 281
f 382 376 381
f 383 377 382
f 384 378 383
f 385 379 384
f 386 380 385
f 253 252 386
f 247 254 366
f 366 256 367
f 248 366 368
f 367 259 369
f 368 367 370
f 249 368 371
f 369 263 372
f 370 369 373
f 371 370 374
f 250 371 375
f 372 268 376
f 373 372 377
f 374 373 378
f 375 374 379
f 251 375 380
f 376 274 381
f 377 376 382
f 378 377 383
f 379 378 384
f 380 379 385
f 252 380 386
f 389 387 388
f 391 388 390
f 392 389 391
f 394 390 393
f 395 391 394
f 396 392 395
f 398 393 397
f 399 394 398
f 400 395 399
f 401 396 400
f 403 397 402
f 404 398 403
f 405 399 404
f 406 400 405
f 407 401 406
f 409 402 408
f 410 403 409
f 411 404 410
f 412 405 411
f 413 406 412
f 414 407 413
f 302 408 281
f 301 409 302
f 300 410 301
f 299 411 300
f 298 412 299
f 297 413 298
f 169 414 297
f 389 388 391
f 391 390 394
f 392 391 395
f 394 393 398
f 395 394 399
f 396 395 400
f 398 397 403
f 399 398 404
f 400 399 405
f 401 400 406
f 403 402 409
f 404 403 410
f 405 404 411
f 406 405 412
f 407 406 413
f 409 408 302
f 410 409 301
f 411 410 300
f 412 411 299
f 413 412 298
f 414 413 297
f 388 387 415
f 417 415 416
f 390 388 417
f 419 416 418
f 420 417 419
f 393 390 420
f 422 418 421
f 423 419 422
f 424 420 423
f 397 393 424
f 426 421 425
f 427 422 426
f 428 423 427
f 429 424 428
f 402 397 429
f 431 425 430
f 432 426 431
f 433 427 432
f 434 428 433
f 435 429 434
f 408 402 435
f 386 430 253
f 385 431 386
f 384 432 385
f 383 433 384
f 382 434 383
f 381 435 382
f 281 408 381
f 388 415 417
f 417 416 419
f 390 417 420
f 419 418 422
f 420 419 423
f 393 420 424
f 422 421 426
f 423 422 427
f 424 423 428
f 397 424 429
f 426 425 431
f 427 426 432
f 428 427 433
f 429 428 434
f 402 429 435
f 431 430 386
f 432 431 385
f 433 432 384
f 434 433 383
f 435 434 382
f 408 435 381
f 415 387 436
f 438 436 437
f 416 415 438
f 440 437 439
f 441 438 440
f 418 416 441
f 443 439 442
f 444 440 443
f 445 441 444
f 421 418 445
f 447 442 446
f 448 443 447
f 449 444 448
f 450 445 449
f 425 421 450
f 452 446 451
f 453 447 452
f 454 448 453
f 455 449 454
f 456 450 455
f 430 425 456
f 365 451 225
f 364 452 365
f 363 453 364
f 362 454 363
f 361 455 362
f 360 456 361
f 253 430 360
f 415 436 438
f 438 437 440
f 416 438 441
f 440 439 443
f 441 440 444
f 418 441 445
f 443 442 447
f 444 443 448
f 445 444 449
f 421 445 450
f 447 446 452
f 448 447 453
f 449 448 454
f 450 449 455
f 425 450 456
f 452 451 365
f 453 452 364
f 454 453 363
f 455 454 362
f 456 455 361
f 430 456 360
f 436 387 457
f 459 457 458
f 437 436 459
f 461 458 460
f 462 459 461
f 439 437 462
f 464 460 463
f 465 461 464
f 466 462 465
f 442 439 466
f 468 463 467
f 469 464 468
f 470 465 469
f 471 466 470
f 446 442 471
f 473 467 472
f 474 468 473
f 475 469 474
f 476 470 475
f 477 471 476
f 451 446 477
f 344 472 197
f 343 473 344
f 342 474 343
f 341 475 342
f 340 476 341
f 339 477 340
f 225 451 339
f 436 457 459
f 459 458 461
f 437 459 462
f 461 460 464
f 462 461 465
f 439 462 466
f 464 463 468
f 465 464 469
f 466 465 470
f 442 466 471
f 468 467 473
f 469 468 474
f 470 469 475
f 471 470 476
f 446 471 477
f 473 472 344
f 474 473 343
f 475 474 342
f 476 475 341
f 477 476 340
f 451 477 339
f 457 387 389
f 478 389 392
f 458 457 478
f 479 392 396
f 480 478 479
f 460 458 480
f 481 396 401
f 482 479 481
f 483 480 482
f 463 460 483
f 484 401 407
f 485 481 484
f 486 482 485
f 487 483 486
f 467 463 487
f 488 407 414
f 489 484 488
f 490 485 489
f 491 486 490
f 492 487 491
f 472 467 492
f 323 414 169
f 322 488 323
f 321 489 322
f 320 490 321
f 319 491 320
f 318 492 319
f 197 472 318
f 457 389 478
f 478 392 479
f 458 478 480
f 479 396 481
f 480 479 482
f 460 480 483
f 481 401 484
f 482 481 485
f 483 482 486
f 463 483 487
f 484 407 488
f 485 484 489
f 486 485 490
f 487 486 491
f 467 487 492
f 488 414 323
f 489 488 322
f 490 489 321
f 491 490 320
f 492 491 319
f 472 492 318
