# File exported by Houdini 20.5.445 (www.sidefx.com)
# 492 points
# 2940 vertices
# 980 primitives
# Bounds: [-172.917877, -74.3064499, -1144.33411] to [343.691803, 190.683563, -610.466919]
g 
v 196.853485 15.1492596 -1090.74976
v 206.191315 29.5915146 -1085.87354
v 233.880035 16.6257992 -1071.50708
v 211.810394 44.0041275 -1075.07166
v 244.320129 32.9416008 -1063.3855
v 266.781921 20.3762321 -1049.58228
v 212.617737 58.8523483 -1058.48926
v 248.627197 48.8358841 -1049.86157
v 275.749969 38.6659126 -1039.07825
v 294.306244 25.5250244 -1024.74292
v 209.156677 74.1891937 -1037.26172
v 247.0383 64.515625 -1031.59009
v 277.415253 55.8747559 -1023.84167
v 300.572968 45.7532387 -1012.97028
v 315.414764 31.9602814 -997.774231
v 203.707764 88.9660797 -1013.15839
v 241.484009 79.2012482 -1009.8642
v 273.587463 71.3611221 -1004.70422
v 299.828949 63.1837158 -996.984314
v 319.245331 52.8084793 -985.538818
v 330.025543 38.6782074 -969.485413
v 196.927917 102.023209 -986.68573
v 233.605804 92.2240601 -985.556763
v 266.343231 84.5582809 -982.558411
v 294.278107 77.3233948 -977.152649
v 316.720856 68.9479675 -968.709106
v 332.26712 58.2255669 -956.544861
v 338.979034 44.3530884 -940.16333
v 187.648102 113.440025 -957.568481
v 222.350952 103.970009 -957.871155
v 255.168549 96.1481171 -956.763062
v 284.578583 88.9131851 -953.372925
v 309.332428 81.3529053 -947.061157
v 328.237457 72.5014496 -937.628113
v 339.956635 61.7826691 -925.142273
v 343.284637 49.1559334 -909.79248
v 208.641235 0.645679474 -1079.31189
v 246.506287 2.31848526 -1057.71362
v 217.136749 -13.8118858 -1063.59888
v 278.121918 5.3793869 -1033.18433
v 253.65863 -12.5517235 -1039.25879
v 221.533569 -28.7048149 -1042.80835
v 303.004486 9.90054321 -1006.06653
v 282.480988 -9.90517426 -1012.26178
v 255.265472 -27.6406708 -1016.03174
v 221.302124 -43.1800537 -1016.776
v 320.768158 16.0766678 -976.782715
v 303.921844 -5.48443222 -982.712097
v 280.481964 -24.862114 -986.581787
v 251.242554 -41.6503372 -987.629028
v 215.939514 -55.5266037 -985.806335
v 331.81369 23.465313 -945.67334
v 318.032135 1.33504868 -950.434021
v 298.043732 -19.6190147 -953.99408
v 272.236176 -37.7898026 -955.21698
v 241.345062 -52.6723022 -953.937378
v 205.349121 -64.0345154 -951.041077
v 337.629059 31.2885056 -912.440125
v 325.704681 10.9571915 -915.131348
v 308.223846 -10.2943649 -917.38092
v 285.244843 -29.9479561 -918.292786
v 257.128662 -46.205368 -917.327332
v 225.055389 -58.7429657 -915.589233
v 189.749298 -67.5715027 -914.361694
v 165.567322 6.95357132 -1101.55908
v 175.73053 -10.5634308 -1085.85425
v 133.293152 -0.424732208 -1107.86755
v 182.592438 -26.389061 -1066.1001
v 142.4487 -19.9960709 -1086.91943
v 100.312256 -7.33932877 -1108.69849
v 185.470093 -41.6192245 -1041.34766
v 148.029388 -36.4473877 -1062.39819
v 108.243561 -27.969841 -1082.50342
v 66.4489136 -13.8878632 -1103.42261
v 183.545227 -55.3456497 -1011.21478
v 149.130585 -51.1977997 -1033.27002
v 112.038208 -44.256897 -1053.22949
v 72.3650818 -34.4994049 -1072.66528
v 31.4549255 -19.7151108 -1092.19336
v 176.145386 -65.965477 -975.98114
v 144.537231 -63.5877533 -998.755005
v 110.18396 -57.8304596 -1019.45856
v 73.1307678 -49.6723175 -1038.83838
v 34.2907715 -39.0109558 -1057.67249
v -3.72091675 -24.2703094 -1074.91138
v 162.780884 -71.8751373 -936.631531
v 133.25119 -71.9823914 -958.730469
v 101.09964 -68.2793579 -979.92157
v 66.5888062 -61.5073547 -999.849548
v 30.806427 -52.3960648 -1019.09674
v -4.45962524 -41.3056946 -1036.86475
v -36.6776962 -27.2601166 -1051.57251
v 163.768524 26.2458267 -1107.7168
v 127.997284 20.8550835 -1121.06079
v 129.277008 40.4413261 -1122.37939
v 93.2979431 15.53967 -1127.73621
v 91.209198 36.9562988 -1135.927
v 94.8459473 56.7492294 -1131.73267
v 59.2035522 9.82789993 -1127.20947
v 55.5269775 32.7096672 -1140.62903
v 56.1534119 54.1599312 -1143.29993
v 62.0625 74.0521393 -1132.85242
v 24.6933899 3.71863556 -1119.30981
v 20.8529358 27.4025612 -1136.79077
v 20.2832642 50.1445808 -1144.33411
v 23.8633728 71.4261475 -1140.81873
v 32.2961426 91.1505508 -1123.90479
v -10.5898132 -2.47271729 -1103.41309
v -14.2273254 21.0568848 -1123.82275
v -14.815033 44.6615715 -1135.11279
v -11.9294128 67.2608337 -1136.43579
v -5.23687744 88.1820755 -1126.67883
v 5.36541748 107.221352 -1104.63672
v -45.4604568 -8.21787262 -1078.4165
v -50.0447464 14.0545788 -1099.80908
v -50.7429276 37.9061012 -1113.70703
v -47.762413 61.7064438 -1118.79004
v -41.4038773 84.0918884 -1114.33789
v -32.0290756 104.218513 -1099.8916
v -19.8884888 121.757545 -1076.10754
v 170.653809 41.8055649 -1100.49182
v 135.041718 56.98666 -1110.85034
v 173.8302 56.6454811 -1085.61377
v 100.687744 74.2199402 -1114.35156
v 137.423492 72.5602417 -1090.55615
v 173.063293 71.8899384 -1064.22021
v 68.6966248 92.4671478 -1108.75366
v 103.439819 90.866539 -1087.79761
v 136.746002 88.7520218 -1063.52808
v 169.644836 88.0264969 -1038.28662
v 38.859314 110.570374 -1092.65576
v 71.5404053 110.437553 -1075.16492
v 103.198242 108.45256 -1054.15601
v 133.945862 106.031265 -1031.50977
v 165.016205 103.83844 -1009.03882
v 9.90802002 127.695343 -1065.69922
v 40.4341736 130.260498 -1050.91431
v 70.5215759 129.871552 -1033.17261
v 99.7561646 127.169174 -1013.73431
v 128.893463 122.886345 -994.295227
v 158.573639 117.902832 -975.773682
v 158.173065 127.365723 -936.081116
v 126.426117 134.989594 -952.875
v 126.975067 142.240494 -910.814392
v 95.8302917 142.220306 -969.649414
v 94.0566711 151.255005 -926.517456
v 94.6262207 157.131958 -882.976562
v 66.603363 147.070374 -987.13916
v 63.2296448 158.538788 -942.212341
v 61.2770691 165.523041 -898.110352
v 61.9144287 170.450989 -854.315613
v 37.0569458 148.729431 -1004.65216
v 33.2525024 162.390045 -958.454224
v 29.8187561 171.257904 -913.180481
v 28.0878906 176.652893 -869.08783
v 29.6346741 180.467285 -826.49469
v 6.14086914 146.457184 -1021.14398
v 2.03494263 162.02887 -974.828186
v -2.27349854 173.243073 -928.441162
v -5.19708252 180.087372 -883.338074
v -5.4725647 183.930969 -840.397156
v -1.63882446 186.324066 -800.608032
v -26.1589355 139.81839 -1035.58899
v -31.6409683 156.409607 -990.595703
v -36.9546127 169.981049 -943.744629
v -40.7963486 179.217316 -897.248413
v -41.5307999 184.267609 -853.081604
v -38.5398026 186.671143 -812.622559
v -31.1240768 187.733215 -776.906677
v -52.2221909 123.796692 -1057.38452
v -64.8555984 102.607925 -1078.38403
v -82.537117 122.868141 -1032.27051
v -74.1278 79.3318329 -1088.57739
v -93.9080582 98.1496429 -1049.52246
v -110.313583 119.58667 -1001.20502
v -80.3221512 54.4195557 -1089.04834
v -101.847847 72.1031342 -1055.61084
v -119.566025 91.8996124 -1014.64722
v -134.346649 114.395653 -965.337219
v -82.7116776 28.9113503 -1080.58423
v -106.579384 45.1890411 -1052.33472
v -125.238922 63.6430626 -1016.96478
v -141.118866 84.4889755 -975.21521
v -153.523224 107.545471 -926.582153
v -80.1839828 4.20595741 -1063.77222
v -106.634529 18.4511356 -1040.4165
v -126.887215 35.253933 -1009.92664
v -143.342468 54.7755165 -973.823792
v -157.45871 76.620224 -932.903076
v -166.961731 99.5791473 -887.172974
v -71.4237137 -17.9940147 -1039.51294
v -99.7444839 -6.56298828 -1020.09015
v -121.928398 7.8452282 -993.950928
v -139.543228 25.6064606 -962.57843
v -154.613815 46.4553108 -927.440002
v -166.565399 68.9113617 -889.204407
v -172.917877 91.0282745 -848.54425
v -46.9203415 -37.1892014 -1016.07196
v -13.6221313 -50.4562302 -998.385254
v -53.8649673 -43.7154236 -978.075745
v 20.8835754 -60.6961594 -978.744385
v -21.1440125 -56.0169373 -959.319275
v -58.4360275 -47.0766678 -939.434326
v 55.5316162 -68.4884033 -958.636475
v 12.226532 -64.7233963 -939.603638
v -26.8421021 -57.9114914 -921.424561
v -60.6223679 -46.7694855 -901.998108
v 89.4042664 -73.3480988 -937.851379
v 45.9649658 -70.478653 -919.278809
v 5.34634399 -64.6485596 -902.128479
v -30.4289322 -55.8297119 -885.056824
v -60.561882 -42.6793747 -866.099731
v 122.115509 -74.3064499 -915.445679
v 80.0644531 -72.6615829 -897.152039
v 38.7861633 -67.9668045 -880.917969
v 1.02236938 -60.5740051 -865.565796
v -31.2540512 -50.0980682 -849.473206
v -57.8131027 -35.7967834 -831.226562
v 153.743011 -70.4149704 -891.839966
v 114.435516 -69.7396927 -871.844727
v 73.9996643 -66.3837433 -855.152039
v 35.0644226 -60.7218933 -840.989258
v 0.350219727 -52.5717316 -827.640137
v -28.5739822 -41.4539871 -813.034058
v -51.5873184 -27.8671494 -796.519287
v 193.202728 -61.3680191 -878.244568
v 231.42041 -49.6168594 -878.78949
v 194.842987 -49.4870453 -844.655945
v 264.545013 -34.3006172 -880.829285
v 235.392578 -34.5738373 -846.599182
v 195.059937 -33.5999298 -814.698242
v 292.122345 -15.6226425 -881.999939
v 268.854431 -16.8972168 -849.169434
v 236.766968 -16.504364 -817.729797
v 193.86441 -16.5811615 -787.409302
v 314.24588 5.02049255 -881.565979
v 296.184113 2.74782181 -849.871887
v 270.275085 2.14608383 -819.372986
v 235.542175 1.41412354 -789.556396
v 191.573029 -0.60975647 -760.660522
v 331.090912 25.7484894 -880.434204
v 318.110077 23.2367172 -849.137451
v 297.495331 22.1913071 -818.702515
v 268.563599 20.8986511 -789.120117
v 231.673309 18.3488503 -760.469971
v 188.228302 14.4735737 -733.445129
v 341.641876 45.1933556 -879.796204
v 333.967316 43.5795937 -848.722961
v 318.691071 43.2346268 -817.450012
v 294.818756 42.4306793 -786.865479
v 262.854034 39.9210243 -757.750671
v 224.811096 35.6282196 -730.737122
v 183.377655 30.2182579 -706.795776
v 343.691803 61.7022896 -889.161194
v 335.528229 73.2606888 -904.098633
v 338.226715 73.8485413 -868.736633
v 319.011688 83.1023865 -915.593506
v 324.339752 84.3247223 -883.80072
v 325.566132 87.2689209 -848.514221
v 295.865326 91.6233749 -923.554321
v 302.750641 93.8612289 -894.430054
v 306.081757 97.4343338 -863.516846
v 305.095551 103.25087 -828.370178
v 267.379272 99.7666168 -927.897461
v 275.171692 103.05233 -900.466736
v 279.771515 107.667419 -872.517578
v 281.079926 114.168808 -842.245117
v 277.608673 121.983086 -807.889404
v 234.277405 108.256416 -929.098328
v 242.340057 112.708435 -902.100586
v 247.585266 118.469185 -875.592834
v 250.429382 126.00576 -848.261658
v 250.055115 134.562836 -818.854126
v 244.830872 142.102386 -786.389771
v 197.026215 117.77758 -928.141357
v 203.825623 122.960129 -900.079529
v 208.797058 129.843689 -873.25946
v 212.365173 138.483429 -846.924744
v 214.235229 147.96936 -820.277161
v 213.259766 156.307068 -792.611084
v 208.223694 160.881561 -763.640991
v 164.038422 132.585236 -901.660828
v 130.523773 148.116638 -873.002441
v 168.052795 139.63446 -870.562317
v 96.9920654 163.265137 -843.512451
v 133.243469 156.213013 -840.210693
v 171.49057 148.807953 -842.128174
v 63.7032166 176.125671 -814.463501
v 99.1270752 171.296539 -809.891785
v 135.984161 166.120636 -810.591675
v 174.344299 159.238129 -814.807312
v 30.7037048 184.924652 -786.871704
v 64.9298096 182.94342 -780.108582
v 100.870911 180.359253 -778.911621
v 138.003876 176.274292 -781.846252
v 175.660034 168.906952 -787.225891
v -2.26889038 188.708832 -760.854004
v 29.7932434 189.236542 -751.035461
v 64.4952698 189.201813 -747.005798
v 100.900543 187.739594 -747.761597
v 137.759979 183.383026 -752.03064
v 173.789886 174.622223 -758.020996
v -61.8429489 143.230774 -1010.67627
v -93.895134 143.248077 -981.24292
v -69.4675827 159.886078 -961.426697
v -121.648209 140.405182 -947.563843
v -101.767876 159.46875 -929.389771
v -74.6502457 172.282959 -912.018921
v -144.007874 134.839966 -910.338318
v -127.859047 155.623627 -894.000732
v -104.985786 170.386536 -878.293762
v -75.9391403 179.801575 -864.115234
v -161.036316 126.739021 -870.922974
v -147.748657 148.535309 -855.224976
v -127.887718 164.803436 -840.921265
v -102.430855 176.152283 -828.474731
v -72.7333908 183.470612 -818.711792
v -171.213715 116.420464 -830.504761
v -161.722931 138.375122 -813.540222
v -144.519043 155.833069 -799.106567
v -120.955666 168.747559 -787.927856
v -94.0586166 178.361511 -780.424805
v -64.1255417 184.730621 -776.71405
v -81.286293 -27.4549942 -998.663757
v -85.949379 -32.5602188 -957.381348
v -107.327019 -15.0778275 -975.186523
v -87.414711 -33.8319435 -916.947998
v -109.431274 -18.4502258 -931.739075
v -127.491684 0.779399872 -946.613098
v -86.2858047 -31.1051788 -878.005737
v -108.481308 -17.1592026 -889.757263
v -128.373734 -0.191413879 -901.56842
v -144.609238 20.7983208 -914.047485
v -82.6255722 -24.7268448 -839.569336
v -104.641884 -11.671875 -848.183716
v -125.597572 3.80097008 -857.1297
v -144.553146 22.3298302 -866.88623
v -159.162308 44.1340218 -877.630554
v -75.2754898 -16.5770874 -800.237
v -96.8712387 -3.34637451 -804.63446
v -117.874039 11.5578728 -810.338562
v -138.140778 28.6114159 -817.651611
v -155.858978 47.9689865 -826.529419
v -168.256943 69.1125946 -836.876526
v 152.877319 -61.7180328 -852.396301
v 151.009583 -48.3097916 -818.024353
v 111.212067 -59.3759766 -831.487366
v 148.822662 -32.5132294 -788.310242
v 107.834869 -45.5435257 -797.458191
v 70.4023132 -55.266571 -815.310425
v 146.84964 -16.6425629 -760.975464
v 105.157135 -30.3665428 -767.705627
v 67.0236511 -41.4738617 -781.308411
v 32.4154663 -49.1951752 -801.944946
v 145.453979 -1.37339401 -733.234863
v 103.967133 -15.1888275 -738.829651
v 65.1706238 -26.6495819 -750.01709
v 30.0365906 -35.2971649 -766.774658
v -1.01217651 -40.3862686 -788.621887
v 143.706055 14.52211 -704.129883
v 103.523895 0.409919739 -707.793152
v 64.7879639 -11.2864342 -717.108643
v 29.2800293 -20.1969757 -731.519104
v -2.00482178 -25.9471016 -750.460022
v -28.7895584 -28.2666817 -772.786987
v 341.665253 60.6914482 -855.447021
v 334.485565 75.87397 -832.581238
v 331.763519 61.782383 -821.517578
v 318.853607 92.314537 -810.91333
v 321.038727 79.2143707 -796.699036
v 312.631073 62.8252678 -788.074768
v 294.263763 110.717819 -790.111267
v 300.86496 97.370285 -773.729431
v 297.084808 81.114296 -761.577271
v 283.925812 61.8367004 -755.889465
v 261.651215 130.692963 -769.324951
v 270.763885 116.709572 -751.879883
v 271.134918 99.6671448 -737.017395
v 262.620636 79.7642288 -727.63739
v 246.602081 57.9772224 -725.522766
v 222.382996 150.513672 -747.239868
v 231.443512 136.462479 -729.497314
v 233.989777 118.626404 -712.947815
v 229.440948 97.4744873 -700.679443
v 218.440887 74.4257278 -695.253906
v 202.53656 51.4724197 -697.590576
v -23.2579651 95.4084167 -614.208374
v 6.6020813 113.3638 -616.181152
v -31.3954544 119.602386 -623.631775
v 39.2041626 132.352051 -627.075256
v 0.900177002 139.364868 -630.2146
v -38.0183029 141.515213 -639.578552
v 74.1351929 149.665863 -645.303101
v 34.4157104 157.589752 -645.251648
v -3.73458862 160.419128 -649.559265
v -42.7840958 159.627716 -660.41748
v 109.991211 163.090393 -669.60675
v 69.2178345 171.835205 -666.546814
v 30.5985413 175.534546 -667.116516
v -7.21716309 175.560242 -672.477661
v -45.3801498 173.060944 -685.059631
v 145.111664 170.169708 -698.696838
v 104.648743 180.554749 -693.013
v 65.6242676 185.248718 -690.310913
v 27.8563232 186.190338 -691.601624
v -8.94482422 184.714966 -698.372559
v -44.9645004 181.793365 -712.894226
v 178.225128 169.327362 -730.814575
v 139.904785 181.8862 -723.864075
v 101.571838 188.453064 -718.60376
v 63.7284241 190.683563 -716.561584
v 27.1558228 190.413757 -719.020874
v -7.70449829 188.724091 -727.504395
v -40.3571243 186.361725 -743.580688
v 3.37530518 81.6717377 -610.466919
v 30.7184753 69.8898315 -613.745361
v 38.5077209 101.802269 -615.083557
v 59.0084534 59.5523453 -623.127991
v 70.5860596 91.2186737 -620.672607
v 75.6825256 121.513596 -628.969177
v 88.6985168 50.6904564 -637.579346
v 102.77832 81.0484924 -631.860962
v 111.317078 110.78997 -637.072083
v 113.849091 138.579407 -650.345886
v 120.083282 43.1521301 -656.428284
v 135.561859 71.3085175 -648.104858
v 146.507782 99.65065 -650.470215
v 152.106995 126.558029 -661.27655
v 151.700226 150.579926 -678.102966
v 152.316803 36.5380363 -679.487427
v 169.212708 61.5530128 -669.724182
v 182.090637 87.6904831 -669.488281
v 190.130005 113.099899 -677.727783
v 192.297974 135.987778 -692.46344
v 188.129944 155.026276 -711.036072
v -34.05056 70.6257019 -617.954285
v -42.4873428 48.2556458 -632.697144
v -7.51541138 53.980442 -617.671082
v -49.1388779 29.2205696 -657.6875
v -16.4759521 30.8328629 -636.552734
v 18.5410461 41.2480431 -625.30127
v -54.2116013 13.5646515 -690.318481
v -23.7576904 12.4663887 -664.748779
v 8.8963623 18.7819328 -647.94397
v 45.7044983 31.7046509 -638.641602
v -56.8239822 -0.13684845 -726.552795
v -28.9249649 -1.99663544 -699.005737
v 1.77856445 1.73726654 -678.310303
v 36.3311768 10.7498531 -664.074219
v 75.5392151 24.5394707 -656.296875
v -56.2970657 -13.7072372 -762.613281
v -30.903038 -14.7551727 -735.797852
v -2.23965454 -12.0760498 -713.348206
v 30.6296387 -5.43141556 -695.938538
v 67.7308044 4.92993546 -683.893921
v 108.577393 19.0335751 -677.904236
v -55.9648514 95.1846313 -625.315613
v -86.5690079 96.9278336 -645.963501
v -66.6140823 71.2748413 -635.9245
v -114.980591 99.695282 -675.546631
v -95.5772324 74.1549072 -663.860046
v -73.562233 50.7173309 -657.881042
v -140.433655 101.914528 -712.294556
v -122.040207 77.4627686 -699.684021
v -100.682686 54.682354 -691.854736
v -78.3616562 33.2784271 -688.686951
v -160.100677 101.311157 -754.320801
v -144.832916 78.1461945 -741.18103
v -124.696312 56.7223549 -732.051514
v -103.111427 36.6334801 -726.537903
v -80.9507828 17.5644455 -724.818726
v -171.244843 97.5919571 -800.240417
v -161.186249 75.1431503 -786.988892
v -144.123383 54.2281761 -776.823975
v -123.725128 35.1740417 -769.403564
v -102.348396 17.6626587 -764.729553
v -80.3708572 1.27584457 -762.719482
v -67.2363968 120.018982 -637.94043
v -75.1770248 141.214584 -656.914612
v -99.4613876 121.718292 -661.628418
v -79.292305 158.11319 -680.548523
v -107.073097 141.904083 -683.315247
v -128.01712 123.65638 -693.533752
v -79.2472916 170.776886 -708.356262
v -108.80986 157.708344 -710.007996
v -133.591583 142.63559 -717.963074
v -151.563004 124.489723 -732.592346
v -74.6547623 179.611908 -740.402954
v -104.454826 169.794647 -742.132019
v -131.137817 157.56662 -748.973816
v -152.93808 142.307648 -761.08252
v -166.617081 122.424271 -778.365906
g 
f 3 1 2
f 5 2 4
f 6 3 5
f 8 4 7
f 9 5 8
f 10 6 9
f 12 7 11
f 13 8 12
f 14 9 13
f 15 10 14
f 17 11 16
f 18 12 17
f 19 13 18
f 20 14 19
f 21 15 20
f 23 16 22
f 24 17 23
f 25 18 24
f 26 19 25
f 27 20 26
f 28 21 27
f 30 22 29
f 31 23 30
f 32 24 31
f 33 25 32
f 34 26 33
f 35 27 34
f 36 28 35
f 3 2 5
f 5 4 8
f 6 5 9
f 8 7 12
f 9 8 13
f 10 9 14
f 12 11 17
f 13 12 18
f 14 13 19
f 15 14 20
f 17 16 23
f 18 17 24
f 19 18 25
f 20 19 26
f 21 20 27
f 23 22 30
f 24 23 31
f 25 24 32
f 26 25 33
f 27 26 34
f 28 27 35
f 37 1 3
f 38 3 6
f 39 37 38
f 40 6 10
f 41 38 40
f 42 39 41
f 43 10 15
f 44 40 43
f 45 41 44
f 46 42 45
f 47 15 21
f 48 43 47
f 49 44 48
f 50 45 49
f 51 46 50
f 52 21 28
f 53 47 52
f 54 48 53
f 55 49 54
f 56 50 55
f 57 51 56
f 58 28 36
f 59 52 58
f 60 53 59
f 61 54 60
f 62 55 61
f 63 56 62
f 64 57 63
f 37 3 38
f 38 6 40
f 39 38 41
f 40 10 43
f 41 40 44
f 42 41 45
f 43 15 47
f 44 43 48
f 45 44 49
f 46 45 50
f 47 21 52
f 48 47 53
f 49 48 54
f 50 49 55
f 51 50 56
f 52 28 58
f 53 52 59
f 54 53 60
f 55 54 61
f 56 55 62
f 57 56 63
f 65 1 37
f 66 37 39
f 67 65 66
f 68 39 42
f 69 66 68
f 70 67 69
f 71 42 46
f 72 68 71
f 73 69 72
f 74 70 73
f 75 46 51
f 76 71 75
f 77 72 76
f 78 73 77
f 79 74 78
f 80 51 57
f 81 75 80
f 82 76 81
f 83 77 82
f 84 78 83
f 85 79 84
f 86 57 64
f 87 80 86
f 88 81 87
f 89 82 88
f 90 83 89
f 91 84 90
f 92 85 91
f 65 37 66
f 66 39 68
f 67 66 69
f 68 42 71
f 69 68 72
f 70 69 73
f 71 46 75
f 72 71 76
f 73 72 77
f 74 73 78
f 75 51 80
f 76 75 81
f 77 76 82
f 78 77 83
f 79 78 84
f 80 57 86
f 81 80 87
f 82 81 88
f 83 82 89
f 84 83 90
f 85 84 91
f 93 1 65
f 94 65 67
f 95 93 94
f 96 67 70
f 97 94 96
f 98 95 97
f 99 70 74
f 100 96 99
f 101 97 100
f 102 98 101
f 103 74 79
f 104 99 103
f 105 100 104
f 106 101 105
f 107 102 106
f 108 79 85
f 109 103 108
f 110 104 109
f 111 105 110
f 112 106 111
f 113 107 112
f 114 85 92
f 115 108 114
f 116 109 115
f 117 110 116
f 118 111 117
f 119 112 118
f 120 113 119
f 93 65 94
f 94 67 96
f 95 94 97
f 96 70 99
f 97 96 100
f 98 97 101
f 99 74 103
f 100 99 104
f 101 100 105
f 102 101 106
f 103 79 108
f 104 103 109
f 105 104 110
f 106 105 111
f 107 106 112
f 108 85 114
f 109 108 115
f 110 109 116
f 111 110 117
f 112 111 118
f 113 112 119
f 2 1 93
f 121 93 95
f 4 2 121
f 122 95 98
f 123 121 122
f 7 4 123
f 124 98 102
f 125 122 124
f 126 123 125
f 11 7 126
f 127 102 107
f 128 124 127
f 129 125 128
f 130 126 129
f 16 11 130
f 131 107 113
f 132 127 131
f 133 128 132
f 134 129 133
f 135 130 134
f 22 16 135
f 136 113 120
f 137 131 136
f 138 132 137
f 139 133 138
f 140 134 139
f 141 135 140
f 29 22 141
f 2 93 121
f 121 95 122
f 4 121 123
f 122 98 124
f 123 122 125
f 7 123 126
f 124 102 127
f 125 124 128
f 126 125 129
f 11 126 130
f 127 107 131
f 128 127 132
f 129 128 133
f 130 129 134
f 16 130 135
f 131 113 136
f 132 131 137
f 133 132 138
f 134 133 139
f 135 134 140
f 22 135 141
f 142 29 141
f 143 141 140
f 144 142 143
f 145 140 139
f 146 143 145
f 147 144 146
f 148 139 138
f 149 145 148
f 150 146 149
f 151 147 150
f 152 138 137
f 153 148 152
f 154 149 153
f 155 150 154
f 156 151 155
f 157 137 136
f 158 152 157
f 159 153 158
f 160 154 159
f 161 155 160
f 162 156 161
f 163 136 120
f 164 157 163
f 165 158 164
f 166 159 165
f 167 160 166
f 168 161 167
f 169 162 168
f 142 141 143
f 143 140 145
f 144 143 146
f 145 139 148
f 146 145 149
f 147 146 150
f 148 138 152
f 149 148 153
f 150 149 154
f 151 150 155
f 152 137 157
f 153 152 158
f 154 153 159
f 155 154 160
f 156 155 161
f 157 136 163
f 158 157 164
f 159 158 165
f 160 159 166
f 161 160 167
f 162 161 168
f 170 120 119
f 171 119 118
f 172 170 171
f 173 118 117
f 174 171 173
f 175 172 174
f 176 117 116
f 177 173 176
f 178 174 177
f 179 175 178
f 180 116 115
f 181 176 180
f 182 177 181
f 183 178 182
f 184 179 183
f 185 115 114
f 186 180 185
f 187 181 186
f 188 182 187
f 189 183 188
f 190 184 189
f 191 114 92
f 192 185 191
f 193 186 192
f 194 187 193
f 195 188 194
f 196 189 195
f 197 190 196
f 170 119 171
f 171 118 173
f 172 171 174
f 173 117 176
f 174 173 177
f 175 174 178
f 176 116 180
f 177 176 181
f 178 177 182
f 179 178 183
f 180 115 185
f 181 180 186
f 182 181 187
f 183 182 188
f 184 183 189
f 185 114 191
f 186 185 192
f 187 186 193
f 188 187 194
f 189 188 195
f 190 189 196
f 198 92 91
f 199 91 90
f 200 198 199
f 201 90 89
f 202 199 201
f 203 200 202
f 204 89 88
f 205 201 204
f 206 202 205
f 207 203 206
f 208 88 87
f 209 204 208
f 210 205 209
f 211 206 210
f 212 207 211
f 213 87 86
f 214 208 213
f 215 209 214
f 216 210 215
f 217 211 216
f 218 212 217
f 219 86 64
f 220 213 219
f 221 214 220
f 222 215 221
f 223 216 222
f 224 217 223
f 225 218 224
f 198 91 199
f 199 90 201
f 200 199 202
f 201 89 204
f 202 201 205
f 203 202 206
f 204 88 208
f 205 204 209
f 206 205 210
f 207 206 211
f 208 87 213
f 209 208 214
f 210 209 215
f 211 210 216
f 212 211 217
f 213 86 219
f 214 213 220
f 215 214 221
f 216 215 222
f 217 216 223
f 218 217 224
f 226 64 63
f 227 63 62
f 228 226 227
f 229 62 61
f 230 227 229
f 231 228 230
f 232 61 60
f 233 229 232
f 234 230 233
f 235 231 234
f 236 60 59
f 237 232 236
f 238 233 237
f 239 234 238
f 240 235 239
f 241 59 58
f 242 236 241
f 243 237 242
f 244 238 243
f 245 239 244
f 246 240 245
f 247 58 36
f 248 241 247
f 249 242 248
f 250 243 249
f 251 244 250
f 252 245 251
f 253 246 252
f 226 63 227
f 227 62 229
f 228 227 230
f 229 61 232
f 230 229 233
f 231 230 234
f 232 60 236
f 233 232 237
f 234 233 238
f 235 234 239
f 236 59 241
f 237 236 242
f 238 237 243
f 239 238 244
f 240 239 245
f 241 58 247
f 242 241 248
f 243 242 249
f 244 243 250
f 245 244 251
f 246 245 252
f 254 36 35
f 255 35 34
f 256 254 255
f 257 34 33
f 258 255 257
f 259 256 258
f 260 33 32
f 261 257 260
f 262 258 261
f 263 259 262
f 264 32 31
f 265 260 264
f 266 261 265
f 267 262 266
f 268 263 267
f 269 31 30
f 270 264 269
f 271 265 270
f 272 266 271
f 273 267 272
f 274 268 273
f 275 30 29
f 276 269 275
f 277 270 276
f 278 271 277
f 279 272 278
f 280 273 279
f 281 274 280
f 254 35 255
f 255 34 257
f 256 255 258
f 257 33 260
f 258 257 261
f 259 258 262
f 260 32 264
f 261 260 265
f 262 261 266
f 263 262 267
f 264 31 269
f 265 264 270
f 266 265 271
f 267 266 272
f 268 267 273
f 269 30 275
f 270 269 276
f 271 270 277
f 272 271 278
f 273 272 279
f 274 273 280
f 275 29 142
f 282 142 144
f 276 275 282
f 283 144 147
f 284 282 283
f 277 276 284
f 285 147 151
f 286 283 285
f 287 284 286
f 278 277 287
f 288 151 156
f 289 285 288
f 290 286 289
f 291 287 290
f 279 278 291
f 292 156 162
f 293 288 292
f 294 289 293
f 295 290 294
f 296 291 295
f 280 279 296
f 297 162 169
f 298 292 297
f 299 293 298
f 300 294 299
f 301 295 300
f 302 296 301
f 281 280 302
f 275 142 282
f 282 144 283
f 276 282 284
f 283 147 285
f 284 283 286
f 277 284 287
f 285 151 288
f 286 285 289
f 287 286 290
f 278 287 291
f 288 156 292
f 289 288 293
f 290 289 294
f 291 290 295
f 279 291 296
f 292 162 297
f 293 292 298
f 294 293 299
f 295 294 300
f 296 295 301
f 280 296 302
f 163 120 170
f 303 170 172
f 164 163 303
f 304 172 175
f 305 303 304
f 165 164 305
f 306 175 179
f 307 304 306
f 308 305 307
f 166 165 308
f 309 179 184
f 310 306 309
f 311 307 310
f 312 308 311
f 167 166 312
f 313 184 190
f 314 309 313
f 315 310 314
f 316 311 315
f 317 312 316
f 168 167 317
f 318 190 197
f 319 313 318
f 320 314 319
f 321 315 320
f 322 316 321
f 323 317 322
f 169 168 323
f 163 170 303
f 303 172 304
f 164 303 305
f 304 175 306
f 305 304 307
f 165 305 308
f 306 179 309
f 307 306 310
f 308 307 311
f 166 308 312
f 309 184 313
f 310 309 314
f 311 310 315
f 312 311 316
f 167 312 317
f 313 190 318
f 314 313 319
f 315 314 320
f 316 315 321
f 317 316 322
f 168 317 323
f 191 92 198
f 324 198 200
f 192 191 324
f 325 200 203
f 326 324 325
f 193 192 326
f 327 203 207
f 328 325 327
f 329 326 328
f 194 193 329
f 330 207 212
f 331 327 330
f 332 328 331
f 333 329 332
f 195 194 333
f 334 212 218
f 335 330 334
f 336 331 335
f 337 332 336
f 338 333 337
f 196 195 338
f 339 218 225
f 340 334 339
f 341 335 340
f 342 336 341
f 343 337 342
f 344 338 343
f 197 196 344
f 191 198 324
f 324 200 325
f 192 324 326
f 325 203 327
f 326 325 328
f 193 326 329
f 327 207 330
f 328 327 331
f 329 328 332
f 194 329 333
f 330 212 334
f 331 330 335
f 332 331 336
f 333 332 337
f 195 333 338
f 334 218 339
f 335 334 340
f 336 335 341
f 337 336 342
f 338 337 343
f 196 338 344
f 219 64 226
f 345 226 228
f 220 219 345
f 346 228 231
f 347 345 346
f 221 220 347
f 348 231 235
f 349 346 348
f 350 347 349
f 222 221 350
f 351 235 240
f 352 348 351
f 353 349 352
f 354 350 353
f 223 222 354
f 355 240 246
f 356 351 355
f 357 352 356
f 358 353 357
f 359 354 358
f 224 223 359
f 360 246 253
f 361 355 360
f 362 356 361
f 363 357 362
f 364 358 363
f 365 359 364
f 225 224 365
f 219 226 345
f 345 228 346
f 220 345 347
f 346 231 348
f 347 346 349
f 221 347 350
f 348 235 351
f 349 348 352
f 350 349 353
f 222 350 354
f 351 240 355
f 352 351 356
f 353 352 357
f 354 353 358
f 223 354 359
f 355 246 360
f 356 355 361
f 357 356 362
f 358 357 363
f 359 358 364
f 224 359 365
f 247 36 254
f 366 254 256
f 248 247 366
f 367 256 259
f 368 366 367
f 249 248 368
f 369 259 263
f 370 367 369
f 371 368 370
f 250 249 371
f 372 263 268
f 373 369 372
f 374 370 373
f 375 371 374
f 251 250 375
f 376 268 274
f 377 372 376
f 378 373 377
f 379 374 378
f 380 375 379
f 252 251 380
f 381 274 281
f 382 376 381
f 383 377 382
f 384 378 383
f 385 379 384
f 386 380 385
f 253 252 386
f 247 254 366
f 366 256 367
f 248 366 368
f 367 259 369
f 368 367 370
f 249 368 371
f 369 263 372
f 370 369 373
f 371 370 374
f 250 371 375
f 372 268 376
f 373 372 377
f 374 373 378
f 375 374 379
f 251 375 380
f 376 274 381
f 377 376 382
f 378 377 383
f 379 378 384
f 380 379 385
f 252 380 386
f 389 387 388
f 391 388 390
f 392 389 391
f 394 390 393
f 395 391 394
f 396 392 395
f 398 393 397
f 399 394 398
f 400 395 399
f 401 396 400
f 403 397 402
f 404 398 403
f 405 399 404
f 406 400 405
f 407 401 406
f 409 402 408
f 410 403 409
f 411 404 410
f 412 405 411
f 413 406 412
f 414 407 413
f 302 408 281
f 301 409 302
f 300 410 301
f 299 411 300
f 298 412 299
f 297 413 298
f 169 414 297
f 389 388 391
f 391 390 394
f 392 391 395
f 394 393 398
f 395 394 399
f 396 395 400
f 398 397 403
f 399 398 404
f 400 399 405
f 401 400 406
f 403 402 409
f 404 403 410
f 405 404 411
f 406 405 412
f 407 406 413
f 409 408 302
f 410 409 301
f 411 410 300
f 412 411 299
f 413 412 298
f 414 413 297
f 388 387 415
f 417 415 416
f 390 388 417
f 419 416 418
f 420 417 419
f 393 390 420
f 422 418 421
f 423 419 422
f 424 420 423
f 397 393 424
f 426 421 425
f 427 422 426
f 428 423 427
f 429 424 428
f 402 397 429
f 431 425 430
f 432 426 431
f 433 427 432
f 434 428 433
f 435 429 434
f 408 402 435
f 386 430 253
f 385 431 386
f 384 432 385
f 383 433 384
f 382 434 383
f 381 435 382
f 281 408 381
f 388 415 417
f 417 416 419
f 390 417 420
f 419 418 422
f 420 419 423
f 393 420 424
f 422 421 426
f 423 422 427
f 424 423 428
f 397 424 429
f 426 425 431
f 427 426 432
f 428 427 433
f 429 428 434
f 402 429 435
f 431 430 386
f 432 431 385
f 433 432 384
f 434 433 383
f 435 434 382
f 408 435 381
f 415 387 436
f 438 436 437
f 416 415 438
f 440 437 439
f 441 438 440
f 418 416 441
f 443 439 442
f 444 440 443
f 445 441 444
f 421 418 445
f 447 442 446
f 448 443 447
f 449 444 448
f 450 445 449
f 425 421 450
f 452 446 451
f 453 447 452
f 454 448 453
f 455 449 454
f 456 450 455
f 430 425 456
f 365 451 225
f 364 452 365
f 363 453 364
f 362 454 363
f 361 455 362
f 360 456 361
f 253 430 360
f 415 436 438
f 438 437 440
f 416 438 441
f 440 439 443
f 441 440 444
f 418 441 445
f 443 442 447
f 444 443 448
f 445 444 449
f 421 445 450
f 447 446 452
f 448 447 453
f 449 448 454
f 450 449 455
f 425 450 456
f 452 451 365
f 453 452 364
f 454 453 363
f 455 454 362
f 456 455 361
f 430 456 360
f 436 387 457
f 459 457 458
f 437 436 459
f 461 458 460
f 462 459 461
f 439 437 462
f 464 460 463
f 465 461 464
f 466 462 465
f 442 439 466
f 468 463 467
f 469 464 468
f 470 465 469
f 471 466 470
f 446 442 471
f 473 467 472
f 474 468 473
f 475 469 474
f 476 470 475
f 477 471 476
f 451 446 477
f 344 472 197
f 343 473 344
f 342 474 343
f 341 475 342
f 340 476 341
f 339 477 340
f 225 451 339
f 436 457 459
f 459 458 461
f 437 459 462
f 461 460 464
f 462 461 465
f 439 462 466
f 464 463 468
f 465 464 469
f 466 465 470
f 442 466 471
f 468 467 473
f 469 468 474
f 470 469 475
f 471 470 476
f 446 471 477
f 473 472 344
f 474 473 343
f 475 474 342
f 476 475 341
f 477 476 340
f 451 477 339
f 457 387 389
f 478 389 392
f 458 457 478
f 479 392 396
f 480 478 479
f 460 458 480
f 481 396 401
f 482 479 481
f 483 480 482
f 463 460 483
f 484 401 407
f 485 481 484
f 486 482 485
f 487 483 486
f 467 463 487
f 488 407 414
f 489 484 488
f 490 485 489
f 491 486 490
f 492 487 491
f 472 467 492
f 323 414 169
f 322 488 323
f 321 489 322
f 320 490 321
f 319 491 320
f 318 492 319
f 197 472 318
f 457 389 478
f 478 392 479
f 458 478 480
f 479 396 481
f 480 479 482
f 460 480 483
f 481 401 484
f 482 481 485
f 483 482 486
f 463 483 487
f 484 407 488
f 485 484 489
f 486 485 490
f 487 486 491
f 467 487 492
f 488 414 323
f 489 488 322
f 490 489 321
f 491 490 320
f 492 491 319
f 472 492 318
